<svg id="Layer_1" data-name="Layer 1" xmlns="http://www.w3.org/2000/svg" xmlns:xlink="http://www.w3.org/1999/xlink" viewBox="0 0 1334 750.37"><defs><style>.cls-1,.cls-17,.cls-19,.cls-23,.cls-26{fill:none;}.cls-2{fill:#c96a0a;}.cls-3{opacity:0.51;}.cls-4{fill:#ff8e0a;}.cls-5{fill:#a05008;}.cls-6{fill:#d36e09;}.cls-7{fill:#989898;}.cls-8{fill:#bebebe;}.cls-9{fill:#131313;}.cls-10{fill:#535353;}.cls-11{fill:#838484;}.cls-12{fill:#c9c9c9;}.cls-13{fill:#218b06;}.cls-14{fill:#1bbc00;}.cls-15{fill:#b2241a;}.cls-16{fill:#ff3921;}.cls-17{stroke:#000;stroke-width:1.25px;}.cls-17,.cls-19,.cls-23,.cls-26{stroke-miterlimit:10;}.cls-18{fill:#f14c2e;}.cls-19,.cls-23{stroke:#ffa100;}.cls-19{stroke-width:4.17px;}.cls-20{fill:#af3000;}.cls-21{fill:#ffe2e2;}.cls-22{fill:#040100;}.cls-23{stroke-width:2.88px;}.cls-24{fill:#ffca72;}.cls-25{fill:#efa42f;}.cls-26{stroke:#a05008;stroke-width:5.27px;}.cls-27{opacity:0.16;}.cls-28{clip-path:url(#clip-path);}.cls-29,.cls-62{fill:#fff;}.cls-30{clip-path:url(#clip-path-2);}.cls-31{clip-path:url(#clip-path-3);}.cls-32{clip-path:url(#clip-path-4);}.cls-33{clip-path:url(#clip-path-5);}.cls-34{clip-path:url(#clip-path-6);}.cls-35{clip-path:url(#clip-path-7);}.cls-36{clip-path:url(#clip-path-8);}.cls-37{clip-path:url(#clip-path-9);}.cls-38{clip-path:url(#clip-path-10);}.cls-39{clip-path:url(#clip-path-11);}.cls-40{clip-path:url(#clip-path-12);}.cls-41{clip-path:url(#clip-path-13);}.cls-42{clip-path:url(#clip-path-14);}.cls-43{clip-path:url(#clip-path-15);}.cls-44{clip-path:url(#clip-path-16);}.cls-45{opacity:0.26;}.cls-46{clip-path:url(#clip-path-17);}.cls-47{fill:#070707;}.cls-48{fill:#e7e7e7;}.cls-49{opacity:0.28;}.cls-50{clip-path:url(#clip-path-18);}.cls-51{clip-path:url(#clip-path-19);}.cls-52{fill:#273426;}.cls-53{fill:#d73a27;}.cls-54{clip-path:url(#clip-path-20);}.cls-55{clip-path:url(#clip-path-21);}.cls-56{fill:#f3d386;}.cls-57{fill:#df3b36;}.cls-58{fill:#e74538;}.cls-59{clip-path:url(#clip-path-22);}.cls-60{fill:#85bac8;}.cls-61{fill:#e41200;}.cls-62{opacity:0.31;}.cls-63{clip-path:url(#clip-path-23);}.cls-64{opacity:0.08;}.cls-65{clip-path:url(#clip-path-24);}.cls-66{fill:#bfbfbf;}.cls-67{fill:#413840;}.cls-68{clip-path:url(#clip-path-25);}.cls-69{fill:#c5102d;}.cls-70{clip-path:url(#clip-path-26);}.cls-71{fill:#606060;}</style><clipPath id="clip-path"><rect class="cls-1" x="286.48" y="149.52" width="22.21" height="28.59"/></clipPath><clipPath id="clip-path-2"><rect class="cls-1" x="297.64" y="175.73" width="17.57" height="21.46"/></clipPath><clipPath id="clip-path-3"><rect class="cls-1" x="324.84" y="136.68" width="17.57" height="21.46"/></clipPath><clipPath id="clip-path-4"><rect class="cls-1" x="369.94" y="148.97" width="22.21" height="28.59"/></clipPath><clipPath id="clip-path-5"><rect class="cls-1" x="381.1" y="175.18" width="17.57" height="21.46"/></clipPath><clipPath id="clip-path-6"><rect class="cls-1" x="553.58" y="141.8" width="17.57" height="21.46"/></clipPath><clipPath id="clip-path-7"><rect class="cls-1" x="566.93" y="156.3" width="29.43" height="38.56"/></clipPath><clipPath id="clip-path-8"><rect class="cls-1" x="408.3" y="136.13" width="17.57" height="21.46"/></clipPath><clipPath id="clip-path-9"><rect class="cls-1" x="476.07" y="169.91" width="22.21" height="28.59"/></clipPath><clipPath id="clip-path-10"><rect class="cls-1" x="514.43" y="157.07" width="17.57" height="21.46"/></clipPath><clipPath id="clip-path-11"><rect class="cls-1" x="956.46" y="155.39" width="22.21" height="28.59"/></clipPath><clipPath id="clip-path-12"><rect class="cls-1" x="966.09" y="178.71" width="17.56" height="21.46"/></clipPath><clipPath id="clip-path-13"><rect class="cls-1" x="1051.21" y="167.71" width="22.21" height="28.59"/></clipPath><clipPath id="clip-path-14"><rect class="cls-1" x="1058.97" y="182" width="17.56" height="21.46"/></clipPath><clipPath id="clip-path-15"><rect class="cls-1" x="1130.83" y="153.41" width="22.21" height="28.59"/></clipPath><clipPath id="clip-path-16"><rect class="cls-1" x="1169.19" y="140.58" width="17.56" height="21.46"/></clipPath><clipPath id="clip-path-17"><rect class="cls-1" x="892.81" y="575.6" width="391.07" height="22.48"/></clipPath><clipPath id="clip-path-18"><rect class="cls-1" x="918.47" y="70.55" width="343.57" height="459.39"/></clipPath><clipPath id="clip-path-19"><rect class="cls-1" x="1150.64" y="469.17" width="65.78" height="94.22"/></clipPath><clipPath id="clip-path-20"><rect class="cls-1" x="1157.78" y="317.93" width="25.75" height="118.73"/></clipPath><clipPath id="clip-path-21"><rect class="cls-1" x="956.37" y="317.93" width="25.89" height="118.73"/></clipPath><clipPath id="clip-path-22"><rect class="cls-1" x="1062.58" y="341.11" width="43.36" height="122.6"/></clipPath><clipPath id="clip-path-23"><rect class="cls-1" x="1081.48" y="244.95" width="19.85" height="23.63"/></clipPath><clipPath id="clip-path-24"><rect class="cls-1" x="1070.24" y="73.34" width="157.84" height="459.39"/></clipPath><clipPath id="clip-path-25"><rect class="cls-1" x="965.41" y="332.89" width="76.27" height="60.12"/></clipPath><clipPath id="clip-path-26"><rect class="cls-1" x="680.38" y="695.68" width="162.61" height="23"/></clipPath></defs><title>guide-background</title><rect class="cls-2" y="680.61" width="1334" height="69.77"/><path class="cls-3" d="M484.34,701.92H312a5.55,5.55,0,0,1,0-11.1H484.34a5.55,5.55,0,1,1,0,11.1"/><path class="cls-3" d="M631.11,703h-107a4.42,4.42,0,0,1-4.4-4.41v-2.28a4.42,4.42,0,0,1,4.4-4.41h107a4.43,4.43,0,0,1,4.41,4.41v2.28a4.42,4.42,0,0,1-4.41,4.41"/><path class="cls-3" d="M1228.24,707.81h-293c-6.64,0-12.07-3-12.07-6.71v-3.48c0-3.69,5.43-6.71,12.07-6.71h293c6.63,0,12.07,3,12.07,6.71v3.48c0,3.69-5.44,6.71-12.07,6.71"/><path class="cls-3" d="M145.7,701.23H85.52a3.36,3.36,0,0,1-3.35-3.35v-4.4a3.36,3.36,0,0,1,3.35-3.35H145.7a3.36,3.36,0,0,1,3.35,3.35v4.4a3.36,3.36,0,0,1-3.35,3.35"/><path class="cls-3" d="M233.6,701.93H173.42a3.36,3.36,0,0,1-3.35-3.35v-4.39a3.36,3.36,0,0,1,3.35-3.35H233.6a3.35,3.35,0,0,1,3.34,3.35v4.39a3.35,3.35,0,0,1-3.34,3.35"/><rect class="cls-4" x="2" width="1334" height="680.61"/><rect class="cls-5" x="665.66" y="-0.03" width="127.43" height="680.67"/><rect class="cls-6" x="679.83" width="99.82" height="680.67"/><rect class="cls-5" x="101.44" y="-0.02" width="127.43" height="680.67"/><rect class="cls-6" x="115.61" y="0.02" width="99.82" height="680.67"/><path class="cls-7" d="M834.24-2.78V85.59a6.87,6.87,0,0,0,6.84,6.89h453.34a6.87,6.87,0,0,0,6.84-6.89V-2.78a6.87,6.87,0,0,0-6.84-6.89H841.08a6.86,6.86,0,0,0-6.84,6.89m451,79.39H850.29V5.47h434.92Z"/><polygon class="cls-7" points="1281.47 73.04 1284.3 76.48 1274.01 76.48 1247.74 50.02 1227.15 75.12 1226.04 76.48 1203.52 76.48 1203.87 76.13 1205.56 74.43 1208.14 71.83 1209.57 70.39 1216.01 63.9 1238.76 40.98 1216.31 18.35 1213.43 15.45 1209.84 11.84 1208.44 10.42 1206.71 8.68 1205.56 7.52 1204.17 6.13 1203.52 5.46 1226.04 5.46 1226.28 5.76 1227.42 7.16 1247.74 31.92 1250.9 28.75 1274.01 5.46 1284.3 5.46 1281.47 8.91 1258.73 36.63 1255.17 40.98 1258.73 45.31 1281.47 73.04"/><polygon class="cls-7" points="1292.68 86.7 1292.19 86.7 1292.41 86.43 1292.44 86.4 1292.46 86.43 1292.68 86.7"/><polygon class="cls-8" points="1292.46 86.43 1292.68 86.7 1292.41 86.43 1292.44 86.4 1292.46 86.43"/><polygon class="cls-8" points="1292.43 70.59 1298.28 76.48 1282.54 76.48 1255.17 48.9 1250.9 53.2 1228.15 76.13 1227.79 76.48 1212.05 76.48 1212.41 76.13 1213.43 75.09 1220.28 68.2 1243.03 45.27 1247.3 40.98 1220.58 14.05 1212.35 5.76 1212.05 5.46 1227.79 5.46 1228.09 5.76 1228.45 6.12 1250.9 28.75 1255.17 33.05 1280.3 7.73 1282.54 5.46 1298.28 5.46 1292.43 11.36 1288.17 15.65 1263.04 40.98 1288.17 66.3 1292.43 70.59"/><polygon class="cls-7" points="1214.58 76.48 1214.82 76.79 1204.53 76.79 1204.23 76.48 1203.88 76.13 1181.42 53.5 1178.27 50.33 1157.4 75.76 1157.05 76.18 1156.56 76.79 1134.04 76.79 1143.95 66.8 1146.23 64.5 1169.28 41.28 1137.76 9.52 1137.23 8.98 1136.08 7.82 1134.04 5.76 1156.56 5.76 1156.86 6.13 1178.27 32.23 1181.42 29.05 1204.17 6.13 1204.53 5.76 1214.82 5.76 1213.7 7.13 1211.99 9.21 1209.84 11.84 1189.25 36.94 1185.69 41.28 1189.25 45.62 1209.57 70.39 1211.99 73.34 1213.43 75.09 1214.58 76.48"/><polygon class="cls-7" points="1223.2 87 1222.71 87 1222.93 86.73 1222.96 86.7 1222.98 86.73 1223.2 87"/><polygon class="cls-8" points="1222.98 86.73 1223.2 87 1222.93 86.73 1222.96 86.7 1222.98 86.73"/><polygon class="cls-8" points="1228.15 76.13 1228.8 76.79 1213.06 76.79 1212.76 76.48 1212.41 76.13 1210.82 74.53 1208.14 71.83 1185.69 49.2 1181.42 53.5 1158.31 76.79 1142.57 76.79 1143.17 76.18 1143.54 75.81 1148.21 71.1 1150.5 68.8 1173.55 45.58 1177.82 41.28 1143 6.19 1142.57 5.76 1158.31 5.76 1181.42 29.05 1185.69 33.35 1208.44 10.43 1212.71 6.13 1213.06 5.76 1228.8 5.76 1228.45 6.12 1227.42 7.16 1222.95 11.66 1220.58 14.05 1216.31 18.35 1193.56 41.28 1216.01 63.9 1218.69 66.6 1220.28 68.2 1222.95 70.89 1227.15 75.12 1228.15 76.13"/><polygon class="cls-7" points="1144.51 75.81 1144.81 76.18 1134.52 76.18 1108.26 49.72 1087.66 74.82 1086.55 76.18 1064.03 76.18 1064.39 75.83 1066.07 74.13 1068.65 71.53 1070.08 70.08 1073.94 66.2 1076.52 63.6 1099.28 40.67 1064.03 5.16 1086.55 5.16 1086.79 5.46 1087.94 6.85 1108.26 31.62 1111.41 28.44 1134.52 5.16 1144.81 5.16 1144.31 5.76 1143.96 6.19 1141.98 8.61 1140.1 10.9 1119.24 36.33 1115.68 40.67 1119.24 45.01 1140.65 71.1 1141.98 72.74 1144.51 75.81"/><polygon class="cls-7" points="1152.23 86.4 1151.73 86.4 1151.95 86.12 1151.98 86.09 1152 86.12 1152.23 86.4"/><polygon class="cls-8" points="1152 86.12 1152.23 86.4 1151.95 86.12 1151.98 86.09 1152 86.12"/><polygon class="cls-8" points="1158.37 75.76 1158.79 76.18 1143.05 76.18 1140.81 73.92 1139.33 72.43 1115.68 48.6 1111.41 52.9 1088.66 75.83 1088.3 76.18 1072.56 76.18 1072.92 75.83 1073.94 74.79 1078.2 70.5 1080.79 67.9 1103.54 44.97 1107.81 40.67 1072.56 5.16 1088.3 5.16 1088.96 5.82 1111.41 28.44 1115.68 32.74 1138.73 9.52 1140.81 7.42 1142.45 5.76 1143.05 5.16 1158.79 5.16 1158.19 5.76 1157.83 6.13 1152.94 11.05 1150.87 13.15 1148.68 15.35 1146.6 17.45 1123.55 40.67 1147.2 64.5 1148.68 65.99 1151.47 68.8 1152.94 70.29 1158.37 75.76"/><polygon class="cls-7" points="1074.12 76.18 1074.36 76.48 1064.07 76.48 1063.77 76.18 1037.81 50.02 1017.09 75.28 1016.34 76.18 1016.1 76.48 993.58 76.48 993.88 76.18 995.62 74.43 998.07 71.97 999.42 70.59 1005.93 64.03 1028.83 40.98 993.58 5.46 1016.1 5.46 1016.82 6.34 1037.81 31.92 1040.96 28.75 1063.72 5.82 1064.07 5.46 1074.36 5.46 1073.24 6.82 1071.54 8.91 1069.38 11.53 1048.79 36.63 1045.23 40.98 1048.79 45.31 1069.11 70.08 1071.54 73.04 1072.97 74.79 1074.12 76.18"/><polygon class="cls-7" points="1082.74 86.7 1082.25 86.7 1082.47 86.43 1082.5 86.4 1082.52 86.43 1082.74 86.7"/><polygon class="cls-8" points="1082.52 86.43 1082.74 86.7 1082.47 86.43 1082.5 86.4 1082.52 86.43"/><polygon class="cls-8" points="1088.34 76.48 1072.61 76.48 1045.23 48.9 1040.96 53.2 1017.86 76.48 1002.11 76.48 1002.41 76.18 1003.29 75.3 1007.76 70.8 1010.2 68.33 1033.09 45.27 1037.36 40.98 1002.11 5.46 1017.86 5.46 1040.96 28.75 1045.23 33.05 1067.98 10.12 1070.36 7.73 1072.25 5.82 1072.61 5.46 1088.34 5.46 1087.99 5.82 1086.97 6.85 1082.5 11.36 1080.12 13.75 1078.23 15.65 1075.85 18.05 1053.1 40.98 1079.82 67.9 1082.5 70.59 1086.69 74.82 1088.34 76.48"/><polygon class="cls-7" points="1003.29 75.3 1004.01 76.18 993.72 76.18 967.46 49.72 946.86 74.82 945.75 76.18 923.23 76.18 923.58 75.83 925.26 74.13 927.85 71.53 929.28 70.08 935.72 63.6 958.47 40.67 936.02 18.05 933.13 15.14 929.55 11.53 926.42 8.38 925.26 7.21 923.88 5.82 923.23 5.16 945.75 5.16 945.99 5.46 947.13 6.85 967.46 31.62 970.61 28.44 993.72 5.16 1004.01 5.16 1003.76 5.46 1003.01 6.37 1001.18 8.6 999.15 11.08 978.44 36.33 974.88 40.67 978.44 45.01 999.42 70.59 1001.18 72.74 1003.29 75.3"/><polygon class="cls-7" points="1012.39 86.4 1011.9 86.4 1012.12 86.12 1012.14 86.09 1012.17 86.12 1012.39 86.4"/><polygon class="cls-8" points="1012.17 86.12 1012.39 86.4 1012.12 86.12 1012.14 86.09 1012.17 86.12"/><polygon class="cls-8" points="1017.09 75.28 1017.99 76.18 1002.25 76.18 1000.01 73.92 998.07 71.97 974.88 48.6 970.61 52.9 947.86 75.83 947.5 76.18 931.76 76.18 932.12 75.83 933.14 74.79 939.99 67.9 962.74 44.97 967.01 40.67 931.76 5.16 947.5 5.16 948.16 5.82 970.61 28.44 974.88 32.74 997.77 9.68 1000.01 7.42 1001.95 5.46 1002.25 5.16 1017.99 5.16 1017.69 5.46 1016.82 6.34 1012.14 11.05 1009.9 13.31 1005.63 17.61 982.75 40.67 1010.2 68.33 1012.14 70.29 1017.09 75.28"/><polygon class="cls-7" points="934.28 76.18 934.53 76.48 924.24 76.48 923.94 76.18 897.97 50.02 876.26 76.48 853.75 76.48 855.78 74.43 863.65 66.5 888.99 40.98 863.65 15.45 856.94 8.68 855.78 7.51 853.75 5.46 876.26 5.46 897.97 31.92 901.13 28.75 923.88 5.82 924.24 5.46 934.53 5.46 933.41 6.82 931.7 8.91 929.55 11.53 908.96 36.63 905.4 40.98 908.96 45.31 929.28 70.08 931.7 73.04 933.14 74.79 934.28 76.18"/><polygon class="cls-7" points="942.91 86.7 942.42 86.7 942.64 86.43 942.66 86.4 942.69 86.43 942.91 86.7"/><polygon class="cls-8" points="942.69 86.43 942.91 86.7 942.64 86.43 942.66 86.4 942.69 86.43"/><polygon class="cls-8" points="948.51 76.48 932.77 76.48 932.47 76.18 905.39 48.9 901.13 53.2 878.02 76.48 862.28 76.48 867.92 70.8 893.26 45.27 897.53 40.98 862.28 5.46 878.02 5.46 901.13 28.75 905.39 33.05 928.15 10.12 930.53 7.73 932.42 5.82 932.77 5.46 948.51 5.46 948.16 5.82 947.13 6.85 942.66 11.36 940.28 13.75 938.4 15.65 936.02 18.05 913.27 40.98 939.99 67.9 942.66 70.59 946.86 74.82 948.51 76.48"/><path class="cls-8" d="M845.67-2.78V85.59a6.87,6.87,0,0,0,6.84,6.89h453.33a6.87,6.87,0,0,0,6.84-6.89V-2.78a6.86,6.86,0,0,0-6.84-6.89H852.51a6.86,6.86,0,0,0-6.84,6.89m451,79.39H861.72V5.47h434.91Z"/><path class="cls-7" d="M217.44-2.78V85.59a6.87,6.87,0,0,0,6.84,6.89H677.61a6.87,6.87,0,0,0,6.84-6.89V-2.78a6.86,6.86,0,0,0-6.84-6.89H224.28a6.86,6.86,0,0,0-6.84,6.89m451,79.39H233.49V5.47H668.4Z"/><polygon class="cls-7" points="664.67 73.04 667.5 76.48 657.21 76.48 630.94 50.02 610.35 75.12 609.23 76.48 586.71 76.48 587.07 76.13 588.75 74.43 591.34 71.83 592.77 70.39 599.2 63.9 621.96 40.98 599.5 18.35 596.62 15.45 593.04 11.84 591.64 10.42 589.91 8.68 588.75 7.52 587.37 6.13 586.71 5.46 609.23 5.46 609.48 5.76 610.62 7.16 630.94 31.92 634.1 28.75 657.21 5.46 667.5 5.46 664.67 8.91 641.93 36.63 638.37 40.98 641.93 45.31 664.67 73.04"/><polygon class="cls-7" points="675.88 86.7 675.39 86.7 675.61 86.43 675.63 86.4 675.66 86.43 675.88 86.7"/><polygon class="cls-8" points="675.66 86.43 675.88 86.7 675.61 86.43 675.63 86.4 675.66 86.43"/><polygon class="cls-8" points="675.63 70.59 681.48 76.48 665.74 76.48 638.36 48.9 634.1 53.2 611.34 76.13 610.99 76.48 595.25 76.48 595.61 76.13 596.63 75.09 603.47 68.2 626.23 45.27 630.5 40.98 603.77 14.05 595.55 5.76 595.25 5.46 610.99 5.46 611.29 5.76 611.64 6.12 634.1 28.75 638.36 33.05 663.5 7.73 665.74 5.46 681.48 5.46 675.63 11.36 671.36 15.65 646.23 40.98 671.36 66.3 675.63 70.59"/><polygon class="cls-7" points="597.77 76.48 598.02 76.79 587.72 76.79 587.42 76.48 587.07 76.13 564.61 53.5 561.46 50.33 540.6 75.76 540.25 76.18 539.75 76.79 517.23 76.79 527.14 66.8 529.43 64.5 552.48 41.28 520.96 9.52 520.43 8.98 519.27 7.82 517.23 5.76 539.75 5.76 540.06 6.13 561.46 32.23 564.61 29.05 587.37 6.13 587.72 5.76 598.02 5.76 596.9 7.13 595.19 9.21 593.04 11.84 572.45 36.94 568.89 41.28 572.45 45.62 592.77 70.39 595.19 73.34 596.63 75.09 597.77 76.48"/><polygon class="cls-7" points="606.4 87 605.9 87 606.13 86.73 606.15 86.7 606.18 86.73 606.4 87"/><polygon class="cls-8" points="606.18 86.73 606.4 87 606.13 86.73 606.15 86.7 606.18 86.73"/><polygon class="cls-8" points="611.34 76.13 612 76.79 596.26 76.79 595.96 76.48 595.61 76.13 594.02 74.53 591.34 71.83 568.88 49.2 564.61 53.5 541.51 76.79 525.77 76.79 526.37 76.18 526.74 75.81 531.41 71.1 533.7 68.8 556.75 45.58 561.01 41.28 526.19 6.19 525.77 5.76 541.51 5.76 564.61 29.05 568.88 33.35 591.64 10.43 595.9 6.13 596.26 5.76 612 5.76 611.64 6.12 610.62 7.16 606.15 11.66 603.77 14.05 599.5 18.35 576.75 41.28 599.2 63.9 601.88 66.6 603.47 68.2 606.15 70.89 610.35 75.12 611.34 76.13"/><polygon class="cls-7" points="527.7 75.81 528.01 76.18 517.72 76.18 491.45 49.72 470.86 74.82 469.74 76.18 447.22 76.18 447.58 75.83 449.26 74.13 451.85 71.53 453.28 70.08 457.13 66.2 459.72 63.6 482.47 40.67 447.22 5.16 469.74 5.16 469.99 5.46 471.13 6.85 491.45 31.62 494.61 28.44 517.72 5.16 528.01 5.16 527.51 5.76 527.16 6.19 525.18 8.61 523.3 10.9 502.44 36.33 498.88 40.67 502.44 45.01 523.84 71.1 525.18 72.74 527.7 75.81"/><polygon class="cls-7" points="535.42 86.4 534.93 86.4 535.15 86.12 535.18 86.09 535.2 86.12 535.42 86.4"/><polygon class="cls-8" points="535.2 86.12 535.42 86.4 535.15 86.12 535.17 86.09 535.2 86.12"/><polygon class="cls-8" points="541.57 75.76 541.99 76.18 526.25 76.18 524.01 73.92 522.53 72.43 498.87 48.6 494.61 52.9 471.85 75.83 471.5 76.18 455.76 76.18 456.12 75.83 457.14 74.79 461.4 70.5 463.98 67.9 486.74 44.97 491.01 40.67 455.76 5.16 471.5 5.16 472.15 5.82 494.61 28.44 498.87 32.74 521.92 9.52 524.01 7.42 525.65 5.76 526.25 5.16 541.99 5.16 541.39 5.76 541.02 6.13 536.14 11.05 534.06 13.15 531.88 15.35 529.8 17.45 506.74 40.67 530.4 64.5 531.88 65.99 534.66 68.8 536.14 70.29 541.57 75.76"/><polygon class="cls-7" points="457.31 76.18 457.56 76.48 447.27 76.48 446.97 76.18 421 50.02 400.29 75.28 399.54 76.18 399.29 76.48 376.77 76.48 377.07 76.18 378.81 74.43 381.26 71.97 382.62 70.59 389.13 64.03 412.02 40.98 376.77 5.46 399.29 5.46 400.01 6.34 421 31.92 424.16 28.75 446.91 5.82 447.27 5.46 457.56 5.46 456.44 6.82 454.73 8.91 452.58 11.53 431.99 36.63 428.43 40.98 431.99 45.31 452.31 70.08 454.73 73.04 456.17 74.79 457.31 76.18"/><polygon class="cls-7" points="465.94 86.7 465.45 86.7 465.67 86.43 465.69 86.4 465.72 86.43 465.94 86.7"/><polygon class="cls-8" points="465.72 86.43 465.94 86.7 465.67 86.43 465.69 86.4 465.72 86.43"/><polygon class="cls-8" points="471.54 76.48 455.8 76.48 428.42 48.9 424.16 53.2 401.05 76.48 385.31 76.48 385.61 76.18 386.49 75.3 390.95 70.8 393.4 68.33 416.29 45.27 420.56 40.98 385.31 5.46 401.05 5.46 424.16 28.75 428.42 33.05 451.18 10.12 453.56 7.73 455.45 5.82 455.8 5.46 471.54 5.46 471.19 5.82 470.16 6.85 465.69 11.36 463.31 13.75 461.43 15.65 459.05 18.05 436.3 40.98 463.01 67.9 465.69 70.59 469.89 74.82 471.54 76.48"/><polygon class="cls-7" points="386.49 75.3 387.21 76.18 376.91 76.18 350.65 49.72 330.06 74.82 328.94 76.18 306.42 76.18 306.78 75.83 308.46 74.13 311.05 71.53 312.48 70.08 318.91 63.6 341.67 40.67 319.21 18.05 316.33 15.14 312.75 11.53 309.62 8.38 308.46 7.21 307.08 5.82 306.42 5.16 328.94 5.16 329.19 5.46 330.33 6.85 350.65 31.62 353.8 28.44 376.91 5.16 387.21 5.16 386.96 5.46 386.21 6.37 384.38 8.6 382.35 11.08 361.64 36.33 358.08 40.67 361.64 45.01 382.62 70.59 384.38 72.74 386.49 75.3"/><polygon class="cls-7" points="395.59 86.4 395.09 86.4 395.32 86.12 395.34 86.09 395.37 86.12 395.59 86.4"/><polygon class="cls-8" points="395.37 86.12 395.59 86.4 395.32 86.12 395.34 86.09 395.37 86.12"/><polygon class="cls-8" points="400.29 75.28 401.19 76.18 385.45 76.18 383.21 73.92 381.26 71.97 358.07 48.6 353.8 52.9 331.05 75.83 330.7 76.18 314.96 76.18 315.31 75.83 316.34 74.79 323.18 67.9 345.94 44.97 350.2 40.67 314.96 5.16 330.7 5.16 331.35 5.82 353.8 28.44 358.07 32.74 380.96 9.68 383.21 7.42 385.15 5.46 385.45 5.16 401.19 5.16 400.89 5.46 400.01 6.34 395.34 11.05 393.1 13.31 388.83 17.61 365.94 40.67 393.4 68.33 395.34 70.29 400.29 75.28"/><polygon class="cls-7" points="317.48 76.18 317.73 76.48 307.43 76.48 307.13 76.18 281.17 50.02 259.46 76.48 236.94 76.48 238.98 74.43 246.85 66.5 272.19 40.98 246.85 15.45 240.14 8.68 238.98 7.51 236.94 5.46 259.46 5.46 281.17 31.92 284.32 28.75 307.08 5.82 307.43 5.46 317.73 5.46 316.61 6.82 314.9 8.91 312.75 11.53 292.16 36.63 288.6 40.98 292.16 45.31 312.48 70.08 314.9 73.04 316.34 74.79 317.48 76.18"/><polygon class="cls-7" points="326.11 86.7 325.61 86.7 325.83 86.43 325.86 86.4 325.88 86.43 326.11 86.7"/><polygon class="cls-8" points="325.88 86.43 326.11 86.7 325.83 86.43 325.86 86.4 325.88 86.43"/><polygon class="cls-8" points="331.71 76.48 315.97 76.48 315.67 76.18 288.59 48.9 284.32 53.2 261.22 76.48 245.48 76.48 251.12 70.8 276.46 45.27 280.73 40.98 245.48 5.46 261.22 5.46 284.32 28.75 288.59 33.05 311.35 10.12 313.73 7.73 315.62 5.82 315.97 5.46 331.71 5.46 331.35 5.82 330.33 6.85 325.86 11.36 323.48 13.75 321.59 15.65 319.21 18.05 296.46 40.98 323.18 67.9 325.86 70.59 330.06 74.82 331.71 76.48"/><path class="cls-8" d="M228.87-2.78V85.59a6.86,6.86,0,0,0,6.83,6.89H689a6.87,6.87,0,0,0,6.84-6.89V-2.78A6.86,6.86,0,0,0,689-9.67H235.7a6.86,6.86,0,0,0-6.83,6.89m451,79.39H244.92V5.47H679.83Z"/><path class="cls-9" d="M756.59,462.85H726.76a7,7,0,0,1-7-7V368.59a7,7,0,0,1,7-7h29.83a7,7,0,0,1,7,7v87.24a7,7,0,0,1-7,7"/><rect class="cls-10" x="735.89" y="363.47" width="40.06" height="97.47" rx="5.12"/><path class="cls-11" d="M770.83,365.38a3.22,3.22,0,0,1,3.22,3.21v87.24a3.22,3.22,0,0,1-3.22,3.22H741a3.22,3.22,0,0,1-3.22-3.22V368.59a3.22,3.22,0,0,1,3.22-3.21h29.82m0-3.81H741a7,7,0,0,0-7,7v87.24a7,7,0,0,0,7,7h29.82a7,7,0,0,0,7-7V368.59a7,7,0,0,0-7-7"/><path class="cls-10" d="M753.14,386.58c-3.65,0-6.62-3.35-6.62-7.47s3-7.47,6.62-7.47,6.62,3.35,6.62,7.47-3,7.47-6.62,7.47"/><path class="cls-11" d="M753.14,373.54c2.61,0,4.72,2.5,4.72,5.57s-2.11,5.57-4.72,5.57-4.72-2.5-4.72-5.57,2.12-5.57,4.72-5.57m0-3.8c-4.7,0-8.52,4.2-8.52,9.37s3.82,9.37,8.52,9.37,8.53-4.19,8.53-9.37-3.82-9.37-8.53-9.37"/><path class="cls-10" d="M753.14,408.64c-3.65,0-6.62-3.35-6.62-7.47s3-7.47,6.62-7.47,6.62,3.35,6.62,7.47-3,7.47-6.62,7.47"/><path class="cls-11" d="M753.14,395.6c2.61,0,4.72,2.5,4.72,5.57s-2.11,5.56-4.72,5.56-4.72-2.49-4.72-5.56,2.12-5.57,4.72-5.57m0-3.81c-4.7,0-8.52,4.2-8.52,9.38s3.82,9.37,8.52,9.37,8.53-4.2,8.53-9.37-3.82-9.38-8.53-9.38"/><path class="cls-12" d="M764.79,379.11c0,5.18-3.81,9.37-8.52,9.37s-8.52-4.19-8.52-9.37,3.82-9.37,8.52-9.37,8.52,4.2,8.52,9.37"/><path class="cls-12" d="M764.79,401.17c0,5.17-3.81,9.37-8.52,9.37s-8.52-4.2-8.52-9.37,3.82-9.38,8.52-9.38,8.52,4.2,8.52,9.38"/><path class="cls-13" d="M761.67,423.22c0,5.18-3.82,9.37-8.53,9.37s-8.52-4.19-8.52-9.37,3.82-9.37,8.52-9.37,8.53,4.19,8.53,9.37"/><path class="cls-14" d="M764.79,423.22c0,5.18-3.81,9.37-8.52,9.37s-8.52-4.19-8.52-9.37,3.82-9.37,8.52-9.37,8.52,4.19,8.52,9.37"/><path class="cls-15" d="M761.67,445.27c0,5.18-3.82,9.38-8.53,9.38s-8.52-4.2-8.52-9.38,3.82-9.37,8.52-9.37,8.53,4.2,8.53,9.37"/><path class="cls-16" d="M764.79,445.27c0,5.18-3.81,9.38-8.52,9.38s-8.52-4.2-8.52-9.38,3.82-9.37,8.52-9.37,8.52,4.2,8.52,9.37"/><path class="cls-17" d="M723.17,367.78c-.61-5.16-4.82-8.06-8.13-6.52s-5.58,6.37-6.5,11.42-.69,10.39-.51,15.62q.65,18.39.51,36.81-.06,9.19-.31,18.4c-.08,2.86-.26,5.73-.29,8.59,0,3.24-.19,6.75-1.47,9.77a6.79,6.79,0,0,1-3.13,3.58c-1.64.77-3.38-.35-4.39-1.65a23,23,0,0,1-3.17-6.67c-.89-2.52-1.73-5.05-2.46-7.63a145.36,145.36,0,0,1-3.6-16.79c-.88-5.61-1.5-11.26-1.94-16.93-1.14-14.81-1.09-29.76-1.41-44.67-.08-3.82-.53-8.44-2.87-9.89-2.09-1.3-4.41.84-6,3.22-5.51,8.06-8.16,19.7-9,31.21s-.12,23.13.2,34.7c.17,5.87.21,11.75-.11,17.62-.17,3.07-.47,6.12-.86,9.17-.17,1.33-.41,2.65-.54,4a7.89,7.89,0,0,1-.6,3.27c-1,1.65-3.23-1.58-3.82-2.24-1.8-2-5.1-5.18-4.24-8.21.53-1.85,2.53-2.79,3.9-4.14,1-1,1.87-2.37,3.28-2.58"/><rect class="cls-18" x="317.73" y="435.9" width="160.35" height="236.23"/><rect class="cls-19" x="317.73" y="435.9" width="160.35" height="236.23"/><rect class="cls-20" x="314.96" y="428.01" width="165.12" height="12.45"/><rect class="cls-21" x="318.87" y="460.89" width="157.42" height="5.63"/><rect class="cls-21" x="318.68" y="489.06" width="157.92" height="5.63"/><rect class="cls-21" x="318.43" y="519.32" width="157.92" height="5.63"/><rect class="cls-21" x="318.23" y="547.48" width="157.92" height="5.63"/><rect class="cls-21" x="320.26" y="575.64" width="155.92" height="5.63"/><rect class="cls-21" x="320.06" y="603.81" width="155.92" height="5.63"/><rect class="cls-21" x="319.82" y="634.07" width="155.92" height="5.63"/><rect class="cls-21" x="319.62" y="662.23" width="155.92" height="5.63"/><path class="cls-22" d="M343.2,690.82a9.38,9.38,0,1,1-9.38-9.38,9.38,9.38,0,0,1,9.38,9.38"/><path class="cls-21" d="M338.79,686.22a6.86,6.86,0,1,1-9.74-.21l-2.87-11.94h15.29Z"/><path class="cls-22" d="M473,690.82a9.38,9.38,0,1,1-9.38-9.38,9.38,9.38,0,0,1,9.38,9.38"/><path class="cls-21" d="M468.63,686.22a6.77,6.77,0,0,1,1.88,4.71A6.86,6.86,0,1,1,458.88,686L456,674.07H471.3Z"/><rect class="cls-18" x="520.39" y="526.27" width="115.44" height="156.99"/><rect class="cls-23" x="520.89" y="526.27" width="115.44" height="156.99"/><rect class="cls-20" x="518.89" y="521.03" width="117.43" height="8.27"/><rect class="cls-21" x="521.71" y="542.88" width="113.25" height="3.74"/><rect class="cls-21" x="521.4" y="581.71" width="113.75" height="3.74"/><rect class="cls-21" x="522.21" y="619.14" width="112.75" height="3.74"/><rect class="cls-21" x="522.39" y="657.96" width="112.25" height="3.74"/><path class="cls-22" d="M539.23,695.68a6.78,6.78,0,1,1-6.75-6.23,6.51,6.51,0,0,1,6.75,6.23"/><path class="cls-21" d="M536.05,692.62a4.37,4.37,0,0,1,1.36,3.14,5,5,0,0,1-9.87,0,4.34,4.34,0,0,1,1.5-3.27L527,684.55h11Z"/><path class="cls-22" d="M632.7,695.68a6.77,6.77,0,1,1-6.75-6.23,6.51,6.51,0,0,1,6.75,6.23"/><path class="cls-21" d="M629.53,692.62a4.36,4.36,0,0,1,1.35,3.14,5,5,0,0,1-9.87,0,4.37,4.37,0,0,1,1.5-3.27l-2.06-7.94h11Z"/><path class="cls-24" d="M235.62,616.65H171.4c-3.44,0-6.25,3.19-6.25,7.09v64.89c0,3.9,2.81,7.09,6.25,7.09h64.22c3.44,0,6.25-3.19,6.25-7.09V623.74c0-3.9-2.81-7.09-6.25-7.09m-20.43,19.67a5.58,5.58,0,0,1-4.19,2H196c-3.27,0-5.94-3-5.94-6.73a7.21,7.21,0,0,1,1.74-4.76,5.62,5.62,0,0,1,4.2-2h15c3.27,0,5.94,3,5.94,6.74a7.21,7.21,0,0,1-1.75,4.76"/><path class="cls-24" d="M235.61,538.93H171.4c-3.43,0-6.25,3.19-6.25,7.09V610.9c0,3.9,2.82,7.1,6.25,7.1h64.21c3.45,0,6.26-3.2,6.26-7.1V546c0-3.9-2.81-7.09-6.26-7.09m-45.43,13.7h0c0-.16,0-.31.09-.46l0-.13c0-.17.09-.34.14-.5l0,0h0a6.89,6.89,0,0,1,1.36-2.41,5.62,5.62,0,0,1,4.19-2h15a6.06,6.06,0,0,1,5.57,4.39h0a5.12,5.12,0,0,1,.19.67l.09.46h0a7.88,7.88,0,0,1,.09,1.2,7.16,7.16,0,0,1-1.74,4.76,5.61,5.61,0,0,1-4.2,2H196c-3.26,0-5.93-3-5.93-6.74a7.88,7.88,0,0,1,.1-1.2"/><path class="cls-25" d="M235.62,613.29H171.41c-3.44,0-6.26-3.19-6.26-7.09v4.7c0,3.9,2.82,7.1,6.25,7.1h64.21c3.45,0,6.26-3.2,6.26-7.1v-4.7c0,3.9-2.81,7.09-6.25,7.09"/><path class="cls-24" d="M147.72,616.65H83.5c-3.44,0-6.25,3.19-6.25,7.09v64.89c0,3.9,2.81,7.09,6.25,7.09h64.22c3.44,0,6.25-3.19,6.25-7.09V623.74c0-3.9-2.81-7.09-6.25-7.09m-20.43,19.67a5.58,5.58,0,0,1-4.19,2h-15c-3.27,0-5.94-3-5.94-6.73a7.21,7.21,0,0,1,1.74-4.76,5.62,5.62,0,0,1,4.2-2h15c3.27,0,5.94,3,5.94,6.74a7.21,7.21,0,0,1-1.75,4.76"/><path class="cls-6" d="M353,210.13H281.76a7.61,7.61,0,0,1-7.59-7.59V137.62a7.62,7.62,0,0,1,7.59-7.59H353a7.62,7.62,0,0,1,7.6,7.59v64.92a7.61,7.61,0,0,1-7.6,7.59"/><rect class="cls-26" x="274.17" y="130.03" width="86.38" height="80.1" rx="7.59"/><path class="cls-6" d="M442.48,210.13H371.29a7.61,7.61,0,0,1-7.59-7.59V137.62a7.61,7.61,0,0,1,7.59-7.59h71.19a7.61,7.61,0,0,1,7.59,7.59v64.92a7.61,7.61,0,0,1-7.59,7.59"/><rect class="cls-26" x="363.7" y="130.03" width="86.38" height="80.1" rx="7.59"/><path class="cls-6" d="M530.6,210.13H459.41a7.61,7.61,0,0,1-7.59-7.59V137.62a7.61,7.61,0,0,1,7.59-7.59H530.6a7.61,7.61,0,0,1,7.59,7.59v64.92a7.61,7.61,0,0,1-7.59,7.59"/><rect class="cls-26" x="451.82" y="130.03" width="86.38" height="80.1" rx="7.59"/><path class="cls-6" d="M620.13,210.13h-71.2a7.61,7.61,0,0,1-7.59-7.59V137.62a7.62,7.62,0,0,1,7.59-7.59h71.2a7.62,7.62,0,0,1,7.59,7.59v64.92a7.61,7.61,0,0,1-7.59,7.59"/><rect class="cls-26" x="541.34" y="130.03" width="86.38" height="80.1" rx="7.59"/><g class="cls-27"><g class="cls-28"><path class="cls-29" d="M288.1,177.43h0a3.79,3.79,0,0,1-.94-5.27l14.65-21a3.78,3.78,0,0,1,6.21,4.32l-14.65,21a3.79,3.79,0,0,1-5.27.94"/></g></g><g class="cls-27"><g class="cls-30"><path class="cls-29" d="M299.48,196.42h0a4.33,4.33,0,0,1-1.07-6l8.94-12.84a4.31,4.31,0,0,1,7.08,4.93l-8.94,12.84a4.34,4.34,0,0,1-6,1.08"/></g></g><g class="cls-27"><g class="cls-31"><path class="cls-29" d="M326.68,157.37h0a4.32,4.32,0,0,1-1.07-6l8.94-12.84a4.32,4.32,0,0,1,7.09,4.93l-8.95,12.84a4.32,4.32,0,0,1-6,1.07"/></g></g><g class="cls-27"><g class="cls-32"><path class="cls-29" d="M371.56,176.88h0a3.8,3.8,0,0,1-.95-5.27l14.65-21a3.78,3.78,0,1,1,6.21,4.32l-14.65,21a3.78,3.78,0,0,1-5.26.94"/></g></g><g class="cls-27"><g class="cls-33"><path class="cls-29" d="M382.94,195.86h0a4.31,4.31,0,0,1-1.07-6L390.81,177a4.31,4.31,0,0,1,7.08,4.93L389,194.79a4.32,4.32,0,0,1-6,1.07"/></g></g><g class="cls-27"><g class="cls-34"><path class="cls-29" d="M555.42,162.49h0a4.32,4.32,0,0,1-1.07-6l8.94-12.83a4.31,4.31,0,1,1,7.08,4.93l-8.94,12.84a4.32,4.32,0,0,1-6,1.07"/></g></g><g class="cls-27"><g class="cls-35"><path class="cls-29" d="M568.73,194.11h0a4.24,4.24,0,0,1-1.05-5.88l21-30.12a4.22,4.22,0,1,1,6.93,4.83l-21,30.12a4.24,4.24,0,0,1-5.89,1.05"/></g></g><g class="cls-27"><g class="cls-36"><path class="cls-29" d="M410.14,156.82h0a4.31,4.31,0,0,1-1.07-6L418,138a4.31,4.31,0,1,1,7.08,4.93l-8.94,12.84a4.32,4.32,0,0,1-6,1.07"/></g></g><g class="cls-27"><g class="cls-37"><path class="cls-29" d="M477.69,197.82h0a3.79,3.79,0,0,1-.94-5.27l14.65-21a3.78,3.78,0,1,1,6.2,4.32l-14.64,21a3.8,3.8,0,0,1-5.27.94"/></g></g><g class="cls-27"><g class="cls-38"><path class="cls-29" d="M516.27,177.76h0a4.31,4.31,0,0,1-1.07-6l8.94-12.84a4.31,4.31,0,1,1,7.08,4.93l-8.94,12.84a4.32,4.32,0,0,1-6,1.07"/></g></g><path class="cls-6" d="M1027.29,210.13H956.1a7.61,7.61,0,0,1-7.59-7.59V137.62A7.62,7.62,0,0,1,956.1,130h71.19a7.62,7.62,0,0,1,7.6,7.59v64.92a7.61,7.61,0,0,1-7.6,7.59"/><rect class="cls-26" x="948.51" y="130.03" width="86.38" height="80.1" rx="7.59"/><path class="cls-6" d="M1116.82,210.13h-71.19a7.61,7.61,0,0,1-7.6-7.59V137.62a7.62,7.62,0,0,1,7.6-7.59h71.19a7.61,7.61,0,0,1,7.59,7.59v64.92a7.61,7.61,0,0,1-7.59,7.59"/><rect class="cls-26" x="1038.03" y="130.03" width="86.38" height="80.1" rx="7.59"/><path class="cls-6" d="M1204.94,210.13h-71.19a7.61,7.61,0,0,1-7.59-7.59V137.62a7.61,7.61,0,0,1,7.59-7.59h71.19a7.61,7.61,0,0,1,7.59,7.59v64.92a7.61,7.61,0,0,1-7.59,7.59"/><rect class="cls-26" x="1126.16" y="130.03" width="86.38" height="80.1" rx="7.59"/><g class="cls-27"><g class="cls-39"><path class="cls-29" d="M958.08,183.3h0a3.8,3.8,0,0,1-.94-5.27l14.65-21a3.79,3.79,0,0,1,6.21,4.33l-14.65,21a3.8,3.8,0,0,1-5.27.94"/></g></g><g class="cls-27"><g class="cls-40"><path class="cls-29" d="M967.94,199.4h0a4.33,4.33,0,0,1-1.08-6l8.95-12.83a4.31,4.31,0,1,1,7.08,4.93l-8.95,12.84a4.31,4.31,0,0,1-6,1.07"/></g></g><g class="cls-27"><g class="cls-41"><path class="cls-29" d="M1052.83,195.62h0a3.79,3.79,0,0,1-.94-5.27l14.65-21a3.79,3.79,0,0,1,6.21,4.33l-14.65,21a3.79,3.79,0,0,1-5.27.94"/></g></g><g class="cls-27"><g class="cls-42"><path class="cls-29" d="M1060.81,202.69h0a4.32,4.32,0,0,1-1.07-6l8.94-12.83a4.31,4.31,0,1,1,7.08,4.93l-8.94,12.84a4.33,4.33,0,0,1-6,1.07"/></g></g><g class="cls-27"><g class="cls-43"><path class="cls-29" d="M1132.45,181.33h0a3.8,3.8,0,0,1-.94-5.27l14.65-21a3.78,3.78,0,1,1,6.2,4.33l-14.64,21a3.8,3.8,0,0,1-5.27,1"/></g></g><g class="cls-27"><g class="cls-44"><path class="cls-29" d="M1171,161.27h0a4.32,4.32,0,0,1-1.07-6l8.94-12.84a4.32,4.32,0,1,1,7.08,4.94L1177,160.19a4.33,4.33,0,0,1-6,1.08"/></g></g><polygon class="cls-8" points="1240.88 700.34 1192.83 700.43 1087.46 653.44 1055.81 639.83 954.82 596.41 955.41 595.03 1013.29 595.03 1087.81 627.08 1161.36 661.58 1240.88 700.34"/><polygon class="cls-8" points="1168.19 595.03 1087.81 627.08 1055.81 639.83 923.72 699.79 971.18 699.79 1087.46 653.44 1087.46 653.44 1119.46 640.68 1119.47 640.68 1228.3 597.3 1227.4 595.03 1168.19 595.03"/><g class="cls-45"><g class="cls-46"><path class="cls-47" d="M1280.06,598.08H896.63a3.83,3.83,0,0,1-3.82-3.82V579.42a3.83,3.83,0,0,1,3.82-3.82h383.43a3.83,3.83,0,0,1,3.82,3.82v14.84a3.83,3.83,0,0,1-3.82,3.82"/></g></g><path class="cls-48" d="M1280.06,593H896.63a3.83,3.83,0,0,1-3.82-3.82V574.29a3.83,3.83,0,0,1,3.82-3.82h383.43a3.83,3.83,0,0,1,3.82,3.82v14.84a3.83,3.83,0,0,1-3.82,3.82"/><polygon class="cls-48" points="1010.82 468.21 975.22 480.66 949.37 562.44 962.55 562.44 986.82 489.56 1015.14 483.73 1010.82 468.21"/><path class="cls-8" d="M969.26,570.21H940a7.4,7.4,0,1,1,0-14.79h29.26a7.4,7.4,0,0,1,0,14.79"/><g class="cls-49"><g class="cls-50"><path d="M1252.87,433.74H1211c-10.26.11-16.51.14-20.3.13-9.24,34.56-24.39,78.67-24.39,78.67s-3.48-1.07-9.2-2.59c0,0-4.27,7.56-12.84,20-18.64-7.76-38-10-55.2-9.58a183.46,183.46,0,0,0-54.53,9.58l-7-21.55c-8.61,2.05-14.11,3.64-14.11,3.64s-13.92-41.58-23.95-78.17c-2.56,0-7.16,0-15.38-.12H926c-5.53,0-9.19-5.22-6.86-9.8l55.11-108.72,0-.08C976.13,268.72,988.39,221,1008,176.2c.45-1,.9-2,1.36-3.08s.91-2,1.38-3.06.89-1.95,1.34-2.92q3.84-8.32,8-16.46c.61-1.19,1.22-2.38,1.85-3.57.9-1.71,1.8-3.42,2.72-5.12s1.84-3.39,2.78-5.08q1-1.8,2-3.57c.38-.69.77-1.38,1.17-2.06q2.85-5,5.81-9.87c.72-1.18,1.43-2.35,2.15-3.51.4-.63.79-1.26,1.18-1.89.81-1.3,1.62-2.59,2.45-3.87,1-1.62,2.07-3.23,3.13-4.82,1.94-3,3.93-5.91,5.93-8.82l1.56-2.24q4.29-6.14,8.73-12.06a33.08,33.08,0,0,1,9.37-8.42A36.59,36.59,0,0,1,1089,70.56h.87a36.74,36.74,0,0,1,19,5.23,33.1,33.1,0,0,1,9.35,8.41c.66.9,1.33,1.79,2,2.7s1.33,1.8,2,2.71,1.3,1.81,2,2.73,1.29,1.83,1.93,2.74q2.87,4.14,5.61,8.34c.62.93,1.22,1.87,1.82,2.8l1.8,2.83c.22.35.44.69.65,1s.4.63.59,1c1.48,2.35,2.91,4.71,4.32,7.08l1.39,2.36,0,0c.76,1.3,1.52,2.6,2.26,3.91.65,1.12,1.29,2.26,1.92,3.39.76,1.36,1.51,2.71,2.25,4.08.07.12.14.24.21.38l1.5,2.76,1.56,3c1.38,2.61,2.73,5.25,4.06,7.88.52,1,1.05,2.07,1.56,3.11l.76,1.54q1.3,2.67,2.57,5.34c.48,1,1,2,1.42,3,.3.61.58,1.21.86,1.82l1,2.25q1.14,2.49,2.25,5l1.35,3q1.33,3,2.64,6.08,4.15,9.78,8,19.61a373.41,373.41,0,0,1,24.1,103.79c.47,5.56.83,11.13,1.05,16.71l0,.82.29-2.84,57.45,107.2c2.34,5.48-2.09,11.4-8.54,11.4"/></g></g><g class="cls-49"><g class="cls-51"><polygon points="1154.96 469.17 1190.57 481.62 1216.42 563.39 1203.23 563.39 1178.96 490.51 1150.64 484.68 1154.96 469.17"/></g></g><polygon class="cls-48" points="1146.58 469.17 1182.18 481.62 1208.04 563.39 1194.85 563.39 1170.58 490.51 1142.26 484.68 1146.58 469.17"/><path class="cls-8" d="M1188.14,571.16h29.27a7.4,7.4,0,0,0,0-14.79h-29.27a7.4,7.4,0,0,0,0,14.79"/><path class="cls-52" d="M1132.32,512.74s-3.9,7.55-11.71,20c-17-7.76-34.69-10-50.37-9.58a154.21,154.21,0,0,0-49.74,9.58l-6.35-21.55V495.4l56.09-7.41,22.23-2.93Z"/><path class="cls-53" d="M1219.71,436.53H1164l.65-6.88,10.2-108.88.26-2.84,52.41,107.19a8.37,8.37,0,0,1-7.79,11.41"/><path class="cls-53" d="M965.6,317.93,915.29,426.72a6.91,6.91,0,0,0,6.27,9.81h57.7Z"/><g class="cls-49"><g class="cls-54"><path d="M1181.48,436.53c-9.36.11-15.07.13-18.52.13-6.36,0-5.07-.13-5.07-.13L1174.8,320l.29-2s13.45,73.61,6.39,118.6"/></g></g><g class="cls-49"><g class="cls-55"><path d="M965.6,317.93s-20.63,58.3-.2,118.6c19.2.29,16.75,0,16.75,0Z"/></g></g><path class="cls-56" d="M1167.42,416.44c-.75,4-1.71,8.49-2.79,13.21-.53,2.27-1.08,4.62-1.67,7-8.43,34.55-22.25,78.67-22.25,78.67s-3.18-1.07-8.39-2.59c-13.32-3.88-40-10.74-61.34-10.52l-.74,0c-19.67.32-42.28,5.34-56.09,8.94-7.86,2.05-12.88,3.64-12.88,3.64s-12.7-41.58-21.85-78.18c-.08-.34-.17-.68-.26-1-3.36-13.54-6.22-26.33-7.73-36-1.82-11.59-3.34-23.24-4.39-34.94-.95-10.59-1.54-21.19-1.63-31.81q-.07-7.49.19-15c1.65-46.43,12.84-94.17,30.69-138.94a476.47,476.47,0,0,1,48.88-92,31.36,31.36,0,0,1,25.07-13.64h.8A31.34,31.34,0,0,1,1096.91,87c19.61,28.65,35,60.35,47.68,92.86q3.79,9.78,7.27,19.61a404,404,0,0,1,22,103.79q.65,8.34,1,16.71c0,.28,0,.54,0,.82a434.75,434.75,0,0,1-7.4,95.67"/><path class="cls-53" d="M1144.59,179.84a202.31,202.31,0,0,1-74.35,13.21,216.16,216.16,0,0,1-74-14.07q5.9-14.79,12.73-29.09c6.54-13.69,13.68-27,21.35-39.78q7.11-11.89,14.8-23.12a31.36,31.36,0,0,1,25.07-13.64h.8A31.34,31.34,0,0,1,1096.91,87q8.61,12.57,16.18,25.88c7.2,12.61,13.75,25.63,19.74,38.9q6.27,13.89,11.76,28.08"/><rect class="cls-48" x="1064.96" y="474.88" width="12.24" height="85.09"/><path class="cls-57" d="M1132.83,151.76a201.93,201.93,0,0,1-60.41,8.49,216.32,216.32,0,0,1-63.4-10.36c6.54-13.69,13.68-27,21.35-39.78q7.11-11.89,14.8-23.12a31.36,31.36,0,0,1,25.07-13.64h.8A31.34,31.34,0,0,1,1096.91,87q8.61,12.57,16.18,25.88c7.2,12.61,13.75,25.63,19.74,38.9"/><path class="cls-8" d="M1056.45,569.83h29.26a7.39,7.39,0,1,0,0-14.78h-29.26a7.39,7.39,0,0,0,0,14.78"/><path class="cls-58" d="M1113.09,112.86a202.49,202.49,0,0,1-36.45,2.87,215.1,215.1,0,0,1-46.27-5.62q7.11-11.89,14.8-23.12a31.36,31.36,0,0,1,25.07-13.64h.8A31.34,31.34,0,0,1,1096.91,87q8.61,12.57,16.18,25.88"/><g class="cls-49"><g class="cls-59"><path d="M1073,342.16l-10.38,117.93a3.42,3.42,0,0,0,3.53,3.62h36.27a3.41,3.41,0,0,0,3.51-3.79l-19.49-90.46c-.24-1.66-10.39-28.1-10.39-28.1-1.84,0-2.9-.92-3,.8"/></g></g><path class="cls-53" d="M1067,344.14l-13.23,115.72a3.54,3.54,0,0,0,3.53,3.85h29.11a3.55,3.55,0,0,0,3.52-4L1074,344a3.55,3.55,0,0,0-7,.18"/><path class="cls-60" d="M1110.6,265.37a40.16,40.16,0,1,1-40.16-40.16,40.16,40.16,0,0,1,40.16,40.16"/><path class="cls-61" d="M1070.45,221.5a43.34,43.34,0,0,0-4.58.24,43.87,43.87,0,0,0,0,87.26,40.83,40.83,0,0,0,4.58.24,43.87,43.87,0,0,0,0-87.74m0,80.32a36.45,36.45,0,1,1,36.45-36.45,36.34,36.34,0,0,1-36.45,36.45"/><path class="cls-62" d="M1048.67,276.89h0a5.21,5.21,0,0,1-1.29-7.23l20.11-28.86a5.19,5.19,0,0,1,8.52,5.94L1055.9,275.6a5.19,5.19,0,0,1-7.23,1.29"/><g class="cls-27"><g class="cls-63"><path class="cls-29" d="M1084.93,267.84l-1.67-1.17a4.18,4.18,0,0,1-1-5.81l9.84-14.13a4.19,4.19,0,0,1,5.82-1l1.66,1.16a4.17,4.17,0,0,1,1,5.81l-9.84,14.13a4.19,4.19,0,0,1-5.81,1"/></g></g><g class="cls-64"><g class="cls-65"><path d="M1219.71,436.53h-38.23c-9.36.11-15.07.13-18.52.13-8.43,34.56-22.25,78.67-22.25,78.67s-3.17-1.07-8.39-2.59c0,0-3.9,7.55-11.71,20-17-7.76-34.69-10-50.37-9.58V73.34h.8A31.34,31.34,0,0,1,1096.91,87c19.62,28.66,35,60.35,47.68,92.86q3.79,9.76,7.27,19.61a403.58,403.58,0,0,1,22,103.79c.43,5.56.76,11.13,1,16.71l.29-2,52.41,107.19a8.37,8.37,0,0,1-7.79,11.41"/></g></g><path class="cls-8" d="M1024.31,149.89H855.55a5.39,5.39,0,0,1-5.37-5.37V103.85a5.39,5.39,0,0,1,5.37-5.37h168.76a5.39,5.39,0,0,1,5.38,5.37v40.67a5.39,5.39,0,0,1-5.38,5.37"/><path class="cls-48" d="M1039.85,149.89H871.09a5.39,5.39,0,0,1-5.38-5.37V103.85a5.39,5.39,0,0,1,5.38-5.37h168.76a5.39,5.39,0,0,1,5.38,5.37v40.67a5.39,5.39,0,0,1-5.38,5.37"/><path class="cls-7" d="M913.7,88.05c0,12.28-9.6,22.23-21.45,22.23s-21.44-10-21.44-22.23,9.6-22.23,21.44-22.23,21.45,10,21.45,22.23"/><path class="cls-66" d="M918.49,88.05c0,12.28-9.6,22.23-21.45,22.23s-21.44-10-21.44-22.23S885.2,65.82,897,65.82s21.45,10,21.45,22.23"/><path class="cls-7" d="M904.08,88.05a7,7,0,1,1-7-7.3,7.17,7.17,0,0,1,7,7.3"/><path class="cls-7" d="M961.38,88.05c0,12.28-9.6,22.23-21.45,22.23s-21.44-10-21.44-22.23,9.6-22.23,21.44-22.23,21.45,10,21.45,22.23"/><path class="cls-66" d="M966.17,88.05c0,12.28-9.6,22.23-21.45,22.23s-21.44-10-21.44-22.23,9.6-22.23,21.44-22.23,21.45,10,21.45,22.23"/><path class="cls-7" d="M951.76,88.05a7,7,0,1,1-7-7.3,7.17,7.17,0,0,1,7,7.3"/><rect class="cls-67" x="913.7" y="149.89" width="82.11" height="9.86"/><rect class="cls-67" x="923.73" y="159.03" width="63.47" height="11.13"/><rect class="cls-8" x="943.53" y="198.94" width="23.89" height="38.68"/><path class="cls-48" d="M987.21,168.92c0,18.3-14.31,33.12-32,33.12s-32-14.82-32-33.12Z"/><rect class="cls-8" x="896.39" y="271.79" width="66.22" height="24.17" transform="translate(158.24 875.24) rotate(-54.46)"/><path class="cls-48" d="M974,247.91c0,10.57-8.27,19.14-18.48,19.14S937,258.48,937,247.91s8.27-19.15,18.48-19.15S974,237.34,974,247.91"/><path class="cls-8" d="M963.38,247.91a7.92,7.92,0,1,1-7.91-8.2,8.06,8.06,0,0,1,7.91,8.2"/><g class="cls-49"><g class="cls-68"><path d="M1008.55,365.07l-6.66,13.4L1033,390.34l-2.32,2.67-31.83-8.38-.9,1.81-22-11.74a18.84,18.84,0,0,1-8.84-10c-.95-10.59-1.54-21.2-1.63-31.81l12.1,6.86a17.85,17.85,0,0,1,13.58.09l23.08,14-1.54,3.08,29.05,21.6-2.62,3.12Z"/></g></g><polygon class="cls-8" points="908.61 336.33 965.37 368.52 976.11 346.43 919.36 314.23 908.61 336.33"/><path class="cls-48" d="M919.84,330.15a18.07,18.07,0,0,1-25.7,4.91,19.58,19.58,0,0,1-4.74-26.62,18.09,18.09,0,0,1,25.7-4.92,19.58,19.58,0,0,1,4.74,26.63"/><path class="cls-8" d="M911.14,323.94a7.75,7.75,0,0,1-11,2.11,8.39,8.39,0,0,1-2-11.4,7.76,7.76,0,0,1,11-2.11,8.39,8.39,0,0,1,2,11.4"/><path class="cls-48" d="M1010.24,359,994,391.68l-22-11.74a19.48,19.48,0,0,1-8.19-25.72,18.19,18.19,0,0,1,23.4-9.14Z"/><path class="cls-8" d="M983.17,354.79a8.32,8.32,0,0,1,3.5,11,7.77,7.77,0,0,1-10.62,3.63,8.34,8.34,0,0,1-3.51-11,7.78,7.78,0,0,1,10.63-3.63"/><polygon class="cls-67" points="1008.71 362.11 1037.76 383.7 1035.14 386.83 1004.63 370.3 1008.71 362.11"/><polygon class="cls-67" points="997.96 383.7 1029.05 395.58 1026.73 398.24 994.9 389.86 997.96 383.7"/><rect class="cls-8" x="714.48" y="575.27" width="38.68" height="23.89" transform="translate(-131.51 953.98) rotate(-61.64)"/><rect class="cls-8" x="730.04" y="484.04" width="24.17" height="66.22" transform="translate(-58.77 96.72) rotate(-7.17)"/><path class="cls-48" d="M764.15,569.92c5-9.3,1.82-20.78-7.16-25.63s-20.34-1.23-25.36,8.07-1.81,20.78,7.17,25.63,20.33,1.23,25.35-8.07"/><path class="cls-8" d="M754.85,564.9A7.92,7.92,0,1,0,744,568.35a8.06,8.06,0,0,0,10.85-3.45"/><polygon class="cls-8" points="748.66 461.07 813.9 459.7 812.86 484.26 747.62 485.63 748.66 461.07"/><path class="cls-48" d="M755.61,471.85a18.08,18.08,0,0,0-20.28-16.54,19.57,19.57,0,0,0-16.82,21.18A18.08,18.08,0,0,0,738.79,493a19.57,19.57,0,0,0,16.82-21.17"/><path class="cls-8" d="M745,473.17a7.74,7.74,0,0,0-8.68-7.07,8.37,8.37,0,0,0-7.2,9.06,7.74,7.74,0,0,0,8.68,7.08,8.38,8.38,0,0,0,7.2-9.07"/><path class="cls-48" d="M848.88,489.39l1.21-36.46-25-.13a19.47,19.47,0,0,0-19.42,18.74A18.19,18.19,0,0,0,822,490.69Z"/><path class="cls-8" d="M823,480.25a8.34,8.34,0,0,0,8.31-8,7.78,7.78,0,0,0-7.62-8.24,8.34,8.34,0,0,0-8.32,8,7.79,7.79,0,0,0,7.63,8.24"/><polygon class="cls-67" points="848.99 485.94 884.81 480.74 883.99 476.75 849.29 476.79 848.99 485.94"/><polygon class="cls-67" points="849.79 461.84 882.79 466.16 882.01 462.71 850.02 454.96 849.79 461.84"/><path class="cls-69" d="M976.42,134.83a6.52,6.52,0,1,1-6.52-6.75,6.64,6.64,0,0,1,6.52,6.75"/><path class="cls-69" d="M992.53,134.83a6.52,6.52,0,1,1-6.51-6.75,6.63,6.63,0,0,1,6.51,6.75"/><path class="cls-69" d="M1009.63,134.83a6.52,6.52,0,1,1-6.51-6.75,6.63,6.63,0,0,1,6.51,6.75"/><g class="cls-49"><g class="cls-70"><path d="M843,707.18c0,6.35-36.4,11.5-81.31,11.5s-81.3-5.15-81.3-11.5,36.4-11.5,81.3-11.5S843,700.83,843,707.18"/></g></g><path class="cls-8" d="M489.9,136H621.5a4.13,4.13,0,0,0,4.12-4.12V101.49a4.12,4.12,0,0,0-4.12-4.11H489.9a4.12,4.12,0,0,0-4.11,4.11v30.43A4.13,4.13,0,0,0,489.9,136"/><path class="cls-48" d="M477.8,136H609.4a4.13,4.13,0,0,0,4.11-4.12V101.49a4.12,4.12,0,0,0-4.11-4.11H477.8a4.12,4.12,0,0,0-4.12,4.11v30.43A4.13,4.13,0,0,0,477.8,136"/><path class="cls-7" d="M576.14,89.54a16.71,16.71,0,1,0,16.7-16.72,16.71,16.71,0,0,0-16.7,16.72"/><path class="cls-66" d="M572.41,89.54a16.71,16.71,0,1,0,16.7-16.72,16.71,16.71,0,0,0-16.7,16.72"/><path class="cls-7" d="M583.63,89.54a5.49,5.49,0,1,0,5.48-5.49,5.48,5.48,0,0,0-5.48,5.49"/><path class="cls-7" d="M539,89.54a16.71,16.71,0,1,0,16.7-16.72A16.71,16.71,0,0,0,539,89.54"/><path class="cls-66" d="M535.27,89.54A16.71,16.71,0,1,0,552,72.82a16.7,16.7,0,0,0-16.7,16.72"/><path class="cls-7" d="M546.49,89.54A5.49,5.49,0,1,0,552,84.05a5.48,5.48,0,0,0-5.48,5.49"/><rect class="cls-67" x="512.18" y="136.04" width="63.96" height="7.41"/><rect class="cls-67" x="518.88" y="142.9" width="49.44" height="8.37"/><rect class="cls-8" x="534.3" y="172.92" width="18.61" height="29.08"/><path class="cls-48" d="M518.88,150.35a24.9,24.9,0,1,0,49.79,0Z"/><polygon class="cls-8" points="556.5 211.25 586.49 251.76 571.16 262.31 541.18 221.79 556.5 211.25"/><path class="cls-48" d="M529.2,209.73a14.4,14.4,0,1,0,14.4-14.39,14.4,14.4,0,0,0-14.4,14.39"/><path class="cls-8" d="M537.44,209.73a6.16,6.16,0,1,0,6.16-6.16,6.16,6.16,0,0,0-6.16,6.16"/><polygon class="cls-8" points="580.1 276.22 535.89 300.43 527.52 283.81 571.73 259.6 580.1 276.22"/><path class="cls-48" d="M571.35,271.57a14.4,14.4,0,1,0,3.7-20,14.4,14.4,0,0,0-3.7,20"/><path class="cls-8" d="M578.13,266.9a6.16,6.16,0,1,0,1.58-8.57,6.16,6.16,0,0,0-1.58,8.57"/><path class="cls-48" d="M500.93,293.28l12.66,24.55L530.75,309a14.39,14.39,0,0,0-11.84-26.2Z"/><path class="cls-8" d="M522,290.09a6.16,6.16,0,1,0,8.28,2.73,6.17,6.17,0,0,0-8.28-2.73"/><polygon class="cls-67" points="502.13 295.6 479.5 311.83 481.54 314.19 505.31 301.76 502.13 295.6"/><polygon class="cls-67" points="510.5 311.83 486.28 320.76 488.09 322.77 512.89 316.47 510.5 311.83"/><path class="cls-69" d="M527.28,124.71a5.08,5.08,0,1,0,5.08-5.07,5.08,5.08,0,0,0-5.08,5.07"/><path class="cls-69" d="M514.73,124.71a5.08,5.08,0,1,0,5.08-5.07,5.07,5.07,0,0,0-5.08,5.07"/><path class="cls-69" d="M501.41,124.71a5.08,5.08,0,1,0,5.07-5.07,5.07,5.07,0,0,0-5.07,5.07"/><path class="cls-71" d="M701,705.48a23,23,0,0,1-16.28-39.3l63.79-63.79a23,23,0,0,1,32.55,0l63.79,63.79a23,23,0,0,1-16.28,39.3Z"/><path d="M764.79,598.08a20.53,20.53,0,0,1,14.56,6l63.79,63.79c13,13,3.78,35.15-14.56,35.15H701c-18.35,0-27.53-22.18-14.56-35.15l63.79-63.79a20.52,20.52,0,0,1,14.55-6m0-4.86a25.3,25.3,0,0,0-18,7.45L683,664.46a25.45,25.45,0,0,0,18,43.45H828.58a25.45,25.45,0,0,0,18-43.45l-63.79-63.79a25.32,25.32,0,0,0-18-7.45"/><path class="cls-48" d="M780,638.41a18.08,18.08,0,0,1-25.7,4.91,19.58,19.58,0,0,1-4.75-26.62,18.09,18.09,0,0,1,25.7-4.92A19.59,19.59,0,0,1,780,638.41"/><path class="cls-8" d="M771.31,632.2a7.74,7.74,0,0,1-11,2.11,8.38,8.38,0,0,1-2-11.4,7.74,7.74,0,0,1,11-2.11,8.38,8.38,0,0,1,2,11.4"/><path class="cls-48" d="M722,691.47a18.08,18.08,0,0,1-25.7,4.91,19.59,19.59,0,0,1-4.75-26.63,18.09,18.09,0,0,1,25.71-4.91A19.59,19.59,0,0,1,722,691.47"/><path class="cls-8" d="M713.32,685.26a7.73,7.73,0,0,1-11,2.1,8.38,8.38,0,0,1-2-11.4,7.73,7.73,0,0,1,11-2.1,8.38,8.38,0,0,1,2,11.4"/><path class="cls-48" d="M839.73,691.47a18.08,18.08,0,0,1-25.7,4.91,19.59,19.59,0,0,1-4.75-26.63,18.08,18.08,0,0,1,25.7-4.91,19.59,19.59,0,0,1,4.75,26.63"/><path class="cls-8" d="M831,685.26a7.73,7.73,0,0,1-11,2.1,8.38,8.38,0,0,1-2-11.4,7.73,7.73,0,0,1,11-2.1,8.38,8.38,0,0,1,2,11.4"/><path class="cls-48" d="M748.13,606.22l-41.62,41.62a30,30,0,1,1,41.62-41.62"/><path class="cls-48" d="M1097,639.35a9.38,9.38,0,1,1-9.37-9.38,9.37,9.37,0,0,1,9.37,9.38"/></svg>