<?xml version="1.0" encoding="utf-8"?>
<!-- Generator: Adobe Illustrator 23.0.2, SVG Export Plug-In . SVG Version: 6.00 Build 0)  -->
<svg version="1.1" id="Group_2" xmlns="http://www.w3.org/2000/svg" xmlns:xlink="http://www.w3.org/1999/xlink" x="0px" y="0px"
	 viewBox="0 0 643 693" style="enable-background:new 0 0 643 693;" xml:space="preserve">
<style type="text/css">
	.st0{fill:#103B51;}
	.st1{fill:#1B618C;}
	.st2{fill:#149EF2;}
	.st3{fill:#0081E2;}
	.st4{fill:#FFFFFF;}
</style>
<title>close</title>
<path class="st0" d="M643,346.5c0,27.3-3,53.8-8.6,79.3C601,577.8,473.6,691,321.5,691C143.9,691,0,536.8,0,346.5S143.9,2,321.5,2
	C456,2,571.3,90.5,619.2,216.2C634.5,256.4,643,300.4,643,346.5z"/>
<g id="Ellipse_1_copy_8">
	<path class="st1" d="M320.5,17.7c-96.4,0-182.3,44.8-238.2,114.7c-1.4,1.8,14.7,21.7,24.2,32.9c0.5,0.6,0.4,1.5-0.2,2.1
		c-0.5,0.4-1.2,0.5-1.7,0.1c-12-7.8-32.9-20.9-34.3-18.9c-35.7,51.1-54.8,112-54.7,174.4c0,11.4,0.6,69.7,1.8,80.7
		C25.9,480.2,68.8,556,126,606c1.6,1.3,0.2-40.9,0-47.2c0-0.5,0.2-1,0.6-1.2l26.6-18.9c0.7-0.5,1.6-0.3,2,0.4
		c0.3,0.4,0.3,0.9,0.2,1.3l-11.3,31.4c-0.1,0.1-0.1,0.3-0.1,0.5c-0.1,3.5-1,44.6,2,46.8c49.6,36.4,106.1,56.3,174.5,56.3
		c151.8,0,277.6-110.1,301-255.5c0.2-1.2-17.3-10.3-30.9-17.1c-0.7-0.4-1-1.3-0.6-2c0.3-0.6,1-0.9,1.7-0.7c13.8,4.1,31.2,9,31.4,8
		c0.2-1.6,0.5-2.6,0.6-4.2c1.2-10.8,1.7-69.7,1.7-80.8C625.4,154.4,488.9,17.7,320.5,17.7z"/>
</g>
<g id="Ellipse_1_copy_2">
	<path class="st2" d="M320.5,17.1C224,17.1,138,61.9,82,131.9c-1.9,2.4,30,41.1,30,41.1s-39.9-28.2-41.9-25.3
		C-20.2,277.2,2.7,454,122.9,556.3c4,3.4,31.3-14,31.3-14s-10.3,30.4-5.8,33.5c50.7,34.7,110.7,53.2,172.2,53.1
		C457.3,628.9,573,539,612,415c0.8-2.5-34.9-19-34.9-19s37.3,11.8,38,9c6.2-24.3,11-55.8,11-82C626,154.1,489.2,17.1,320.5,17.1z"/>
</g>
<g id="Ellipse_1_copy_3">
	<path class="st3" d="M320.5,42.5c-85.8-0.1-166.8,39.3-219.8,106.7C98.8,151.6,126,183,126,183s-36.8-18.3-39.5-14.1
		c-77.7,118.4-55.1,276.2,52.9,368C143,540,168,524,168,524s-9.4,27.9-5.3,30.7c46.5,31.8,101.5,48.8,157.8,48.7
		c125.2,0,231.3-82.3,267.1-195.9c0.9-2.9-17.6-13.6-17.6-13.6s22.3-2.9,23.2-6.8c4.9-21,7.4-42.6,7.4-64.2
		C600.5,168.1,475.2,42.5,320.5,42.5z"/>
</g>
<path class="st4" d="M643,346.5c0,27.3-3,53.8-8.6,79.3l-13.9-0.1l-12.1-0.1l-27.1-0.3l-83.4-0.8l-13.6-17.2l-8.1,17.2h-68.1
	l5.2-29.1l-9.5,29.1h-23.8c-14,0-25.4,11.4-25.4,25.4V532c0,11.3-13.7,17-21.7,9l-81.5-81.2L240,437.8l-2.3,8.5l-4.7-12.8l-11.6-3.3
	L118.2,327.4c-4.9-5-4.9-13.2,0.3-18.2l61-58l11.7,24.6l1.2-36.8l141-134.4c8.1-7.8,21.5-1.9,21.6,9.1v75.4
	c0,14,11.4,25.4,25.4,25.4h16.6l3.3,13.7l18.7-13.7l160.6,1.3l26.7,0.2l0.7,0l12.3,0.1C634.5,256.4,643,300.4,643,346.5z"/>
</svg>
