<?xml version="1.0" encoding="utf-8"?>
<!-- Generator: Adobe Illustrator 23.0.2, SVG Export Plug-In . SVG Version: 6.00 Build 0)  -->
<svg version="1.1" id="Group_2" xmlns="http://www.w3.org/2000/svg" xmlns:xlink="http://www.w3.org/1999/xlink" x="0px" y="0px"
	 viewBox="0 0 643 693" style="enable-background:new 0 0 643 693;" xml:space="preserve">
<style type="text/css">
	.st0{fill:#103B51;}
	.st1{fill:#149EF2;}
	.st2{fill:#0081E2;}
	.st3{fill:#1B618C;}
	.st4{fill:#FFFFFF;}
</style>
<title>close</title>
<path class="st0" d="M624.2,346.5c0,17.1-1,33.9-3,50.3c0,0,0,0.1,0,0.1c-2.6,21.9-7,43.2-12.9,63.6
	C569.3,594.8,461.7,691,321.5,691c-127.1,0-226-77.5-271.9-191.3c-18.2-45.1-28.1-96-28.1-150c0-74.5,16.9-130,48.2-170
	c3.6-4.6,7.4-9,11.4-13.2c27.5-29,64-48.5,108-60C224.5,97.2,264.9,93,309.5,93c74.7,0,135.6,13.7,183.8,42.7
	c43.1,25.9,76.1,63.9,100,115.3C606.2,278.9,616.5,310.6,624.2,346.5z"/>
<g id="Ellipse_1_copy_2">
	<path class="st1" d="M624.4,355.1c0,13.1-1.2,27.5-3.2,41.7c0,0,0,0.1,0,0.1c-2,14.2-4.7,28.1-7.8,40.2c-0.7,2.8-36.7-8.6-38-9
		c1.3,0.6,35.6,16.5,34.9,19c-1.4,4.5-2.9,9-4.6,13.4C562.8,577.5,450.6,661,318.9,661c-61.5,0.1-121.5-18.4-172.2-53.1
		c-4.4-3.1,5.5-32.7,5.8-33.5c-0.6,0.4-27.3,17.4-31.3,14c-30-25.5-54-55.8-71.6-88.7c-53-98.9-48.9-222.8,18.8-319.9
		c0.2-0.2,0.6-0.3,1.3-0.1c7.3,1.8,40.6,25.4,40.6,25.4S86,175.6,81.1,166.5c-0.7-1.3-1-2.2-0.8-2.5c56-70,142-114.8,238.5-114.8
		c132.2,0,244.9,84.2,287.4,201.9C618,283.6,624.4,318.6,624.4,355.1z"/>
</g>
<g id="Ellipse_1_copy_3">
	<path class="st2" d="M318.8,74.7C233.1,74.6,152,113.9,99,181.3c-1.9,2.4,25.3,33.8,25.3,33.8S87.6,196.8,84.8,201
		C7.1,319.5,29.7,477.2,137.7,569c3.7,3.1,28.7-12.9,28.7-12.9s-9.4,27.9-5.3,30.7c46.5,31.8,101.5,48.8,157.8,48.7
		c125.2,0,231.3-82.3,267.1-195.8c0.9-2.9-17.6-13.6-17.6-13.6s22.3-2.9,23.2-6.8c4.9-21,7.4-42.6,7.4-64.2
		C598.9,200.2,473.5,74.7,318.8,74.7z"/>
</g>
<path class="st3" d="M126,558.8L126,558.8z"/>
<path class="st4" d="M624.4,355.1c0,13.1-1.2,27.5-3.2,41.7c0,0,0,0.1,0,0.1c-2.6,21.9-7,43.2-12.9,63.6l-2.6,0l-27.1-0.3l-80.6-0.8
	l-13.6-17.2l-8.1,17.2h-68.1l5.2-29.1l-9.5,29.1h-23.8c-14,0-25.4,11.4-25.4,25.4V567c0,11.3-13.7,17-21.7,9l-81.5-81.2L240,472.8
	l-2.3,8.5l-4.7-12.8l-11.6-3.3L118.2,362.4c-4.9-5-4.9-13.2,0.3-18.2l61-58l11.7,24.6l1.2-36.8l141-134.4c8.1-7.8,21.5-1.9,21.6,9.1
	v75.4c0,14,11.4,25.4,25.4,25.4h16.6l3.3,13.7l18.7-13.7l160.1,1.3l14.3,0.1l13,0.1C618,283.6,624.4,318.6,624.4,355.1z"/>
</svg>
