<svg id="Layer_1" data-name="Layer 1" xmlns="http://www.w3.org/2000/svg" viewBox="0 0 1500 1500"><defs><style>.cls-1{fill:#707070;}.cls-2{opacity:0.23;}.cls-3{fill:#fff;}</style></defs><title>bluetooth_inactive</title><g id="Ellipse_1" data-name="Ellipse 1"><circle class="cls-1" cx="749.77" cy="750" r="750"/></g><g id="Ellipse_1_copy" data-name="Ellipse 1 copy" class="cls-2"><path class="cls-3" d="M1398.78,372.27C619.39,285.82,580.7,966.76,99.12,1121.19c206.81,358.89,665.4,482.18,1024.29,275.37S1605.59,731.16,1398.78,372.27Z"/></g><g id="Ellipse_2" data-name="Ellipse 2" class="cls-2"><path class="cls-3" d="M630,27.91c-1-6.27-145.42,8.18-283.61,102.37C206.12,221.33,120,359.44,125.35,362.79c3.14,9.47,96.21-118.24,236.48-209.3C500,59.31,637.53,34.46,630,27.91Z"/></g><path class="cls-3" d="M1090.7,937.58,838.35,757.41a11,11,0,0,1,0-17.95l79.44-55.35L934.3,654l27.87-.94-30.9-16.22L974.16,639a10.88,10.88,0,0,0,6.8-1.86l111.27-75A11.2,11.2,0,0,0,1097,553l.35-87.13a11.4,11.4,0,0,0-4.67-9L719.78,192.41a11.23,11.23,0,0,0-6.43-1.51l-64.76-.24a11.05,11.05,0,0,0-11.2,10.88v.33l-.86,233.93L658,461.69l-21.34,6.74-1.21,124.4a10.9,10.9,0,0,1-17.4,8.78L456.9,486.9a10.77,10.77,0,0,0-12.56,0l-92.2,64.39a10.9,10.9,0,0,0-.19,17.92L591.18,738.66a11,11,0,0,1,2.51,15.4,10.87,10.87,0,0,1-2.56,2.55l-228.62,160A11,11,0,0,0,359.9,932a10.87,10.87,0,0,0,2.55,2.56l91.75,65a10.78,10.78,0,0,0,12.57,0l35.38-24.76a12.12,12.12,0,0,0,3.74-4.79l20-47.43,8.25,14.92a11,11,0,0,0,15,4.37c.35-.19.68-.4,1-.62l67.58-47.21a10.9,10.9,0,0,1,17.24,9l-1,181.38,25.85,17.55-26.08,21.08,17.18,11.71L633.43,1168l-.5,126.07a11,11,0,0,0,11,11.07h.22l64.77.24a11.5,11.5,0,0,0,6.27-2L1092,1040.71a11.14,11.14,0,0,0,4.76-9.11l-1.34-85.18A11,11,0,0,0,1090.7,937.58ZM794.48,594.14l.62-169.72a11,11,0,0,1,17.4-8.79l120.19,85.23a11.06,11.06,0,0,1-.05,18L811.72,603.15a11,11,0,0,1-17.24-9Zm-1.73,479.62L793.37,904a11,11,0,0,1,17.4-8.78L931,980.48a11,11,0,0,1,2.51,15.41,11.31,11.31,0,0,1-2.57,2.55l-121.12,84a11,11,0,0,1-17.3-8.75Z"/></svg>