<svg id="Layer_1" data-name="Layer 1" xmlns="http://www.w3.org/2000/svg" viewBox="0 0 1500 1500"><defs><style>.cls-1{fill:#01baff;}.cls-2{opacity:0.23;}.cls-3{fill:#fff;}</style></defs><title>bluetooth_active</title><g id="Ellipse_1" data-name="Ellipse 1"><circle class="cls-1" cx="749.77" cy="750" r="750"/></g><g id="Ellipse_1_copy" data-name="Ellipse 1 copy" class="cls-2"><path class="cls-3" d="M1398.78,372.27C619.39,285.82,580.7,966.76,99.12,1121.19c206.81,358.89,665.4,482.18,1024.29,275.37S1605.59,731.16,1398.78,372.27Z"/></g><g id="Ellipse_2" data-name="Ellipse 2" class="cls-2"><path class="cls-3" d="M630,27.91c-1-6.27-145.42,8.18-283.61,102.37C206.12,221.33,120,359.44,125.35,362.79c3.14,9.47,96.21-118.24,236.48-209.3C500,59.31,637.53,34.46,630,27.91Z"/></g><path class="cls-3" d="M1090.7,925.07,838.35,756.8a9.88,9.88,0,0,1-2.51-14.39A10.56,10.56,0,0,1,838.4,740l79.44-51.7,16.46-28.16,27.87-.87-30.9-15.15,42.89,2a11.46,11.46,0,0,0,6.8-1.74l111.27-70a10.25,10.25,0,0,0,4.76-8.51l.35-81.38a10.45,10.45,0,0,0-4.67-8.38l-372.89-247a11.82,11.82,0,0,0-6.43-1.4l-64.76-.22c-6.1-.08-11.11,4.46-11.2,10.16v.3l-.86,218.5L658,480.59l-21.34,6.3-1.21,116.18c0,5.63-4.85,10.2-10.88,10.21a11.46,11.46,0,0,1-6.52-2L456.9,504.13a11.38,11.38,0,0,0-12.56,0l-92.2,60.13a9.77,9.77,0,0,0-2.92,14.14A10.41,10.41,0,0,0,352,581L591.18,739.28a9.87,9.87,0,0,1,2.51,14.38,10.6,10.6,0,0,1-2.56,2.39L362.51,905.5a9.88,9.88,0,0,0-2.61,14.37,10.41,10.41,0,0,0,2.55,2.4L454.2,983a11.38,11.38,0,0,0,12.57,0l35.38-23.12a11.51,11.51,0,0,0,3.74-4.47l20-44.31,8.25,13.94a11.45,11.45,0,0,0,15,4.08c.35-.18.68-.37,1-.58l67.58-44.09a11.41,11.41,0,0,1,15.21,2.36,9.75,9.75,0,0,1,2,6.06l-1,169.41,25.85,16.4-26.08,19.69,17.18,10.93-17.43,31-.5,117.76c0,5.69,4.92,10.31,11,10.33h.22l64.77.22a12.16,12.16,0,0,0,6.27-1.86L1092,1021.4a10.23,10.23,0,0,0,4.76-8.51l-1.34-79.56A10.13,10.13,0,0,0,1090.7,925.07ZM794.48,604.29l.62-158.52c.13-5.69,5.17-10.21,11.27-10.08a11.61,11.61,0,0,1,6.13,1.88l120.19,79.6a9.88,9.88,0,0,1,2.51,14.39,10.56,10.56,0,0,1-2.56,2.38L811.72,612.71A11.53,11.53,0,0,1,796.39,610,9.78,9.78,0,0,1,794.48,604.29Zm-1.73,448,.62-158.52c.13-5.69,5.18-10.2,11.27-10.08a11.58,11.58,0,0,1,6.13,1.88L931,965.14a9.89,9.89,0,0,1,2.51,14.39,10.6,10.6,0,0,1-2.57,2.38l-121.12,78.47a11.54,11.54,0,0,1-15.35-2.62,9.86,9.86,0,0,1-2-5.55Z"/></svg>