<svg xmlns="http://www.w3.org/2000/svg" xmlns:xlink="http://www.w3.org/1999/xlink" viewBox="0 0 1920 1080"><defs><style>.cls-1,.cls-102,.cls-12,.cls-33,.cls-38,.cls-41,.cls-53,.cls-57{fill:none;}.cls-2{isolation:isolate;}.cls-3{fill:#1e1e1e;}.cls-20,.cls-22,.cls-23,.cls-4{fill:#282828;}.cls-5{fill:#212121;}.cls-6{fill:#464747;}.cls-7{fill:#353535;stroke-width:1.13px;}.cls-102,.cls-20,.cls-27,.cls-29,.cls-38,.cls-58,.cls-7{stroke:#000;}.cls-20,.cls-22,.cls-27,.cls-29,.cls-30,.cls-7{stroke-linejoin:round;}.cls-15,.cls-21,.cls-8{fill:#4d4d4d;}.cls-9{fill:#b3b3b3;}.cls-10{fill:#d3161d;}.cls-11{fill:#adadad;stroke:#080000;stroke-width:1.54px;}.cls-102,.cls-11,.cls-12,.cls-13,.cls-14,.cls-15,.cls-21,.cls-23,.cls-28,.cls-32,.cls-33,.cls-36,.cls-38,.cls-41,.cls-52,.cls-53,.cls-54,.cls-55,.cls-56,.cls-57,.cls-58{stroke-miterlimit:10;}.cls-12,.cls-13,.cls-30,.cls-32,.cls-36,.cls-41,.cls-57{stroke:#070707;}.cls-12{stroke-width:2.36px;}.cls-13{fill:#77401b;}.cls-13,.cls-14,.cls-41{stroke-width:1.55px;}.cls-14,.cls-24,.cls-58{fill:#f8c946;}.cls-14{stroke:#020202;}.cls-15,.cls-21,.cls-23{stroke:#151616;}.cls-15{stroke-width:4.65px;}.cls-16{fill:#7b7b7b;}.cls-17{clip-path:url(#clip-path);}.cls-18{fill:#e7e7e7;}.cls-19{clip-path:url(#clip-path-2);}.cls-20,.cls-22{stroke-width:2px;}.cls-21,.cls-23{stroke-width:1.27px;}.cls-22{stroke:#282828;}.cls-25{fill:#683919;}.cls-26,.cls-32{fill:#945320;}.cls-27{fill:#515051;stroke-width:1.55px;}.cls-28,.cls-31{fill:#161616;}.cls-28,.cls-33,.cls-52,.cls-53,.cls-54,.cls-55,.cls-56{stroke:#0a0a0a;}.cls-28,.cls-29,.cls-32,.cls-33,.cls-36,.cls-38{stroke-width:1.34px;}.cls-29{fill:#8e8a8b;}.cls-30,.cls-36{fill:#e2b647;}.cls-30{stroke-width:1.34px;}.cls-34{fill:#dddbd7;}.cls-35{fill:#232323;}.cls-37{fill:#3a3a3a;}.cls-39{fill:#7c7c7c;}.cls-40{fill:#666;}.cls-42{fill:#389cce;}.cls-43{fill:#7f1119;}.cls-44{fill:#5e0e18;}.cls-45{fill:#352f49;}.cls-46{fill:#e41e00;}.cls-47{fill:#fffe28;}.cls-48{fill:#18ff08;}.cls-49{fill:#dbdddd;}.cls-50{fill:#0fb0db;}.cls-51{fill:#303435;}.cls-52,.cls-53,.cls-54,.cls-55,.cls-56{stroke-width:0.61px;}.cls-52{fill:url(#radial-gradient);}.cls-54{fill:url(#radial-gradient-2);}.cls-55{fill:url(#radial-gradient-3);}.cls-56{fill:url(#radial-gradient-4);}.cls-57,.cls-58{stroke-width:0.77px;}.cls-59{fill:#d01600;}.cls-60{fill:#a50e02;}.cls-61{clip-path:url(#clip-path-3);}.cls-62{clip-path:url(#clip-path-4);}.cls-63{clip-path:url(#clip-path-5);}.cls-64{clip-path:url(#clip-path-6);}.cls-65{clip-path:url(#clip-path-7);}.cls-66{clip-path:url(#clip-path-8);}.cls-67{clip-path:url(#clip-path-9);}.cls-68{clip-path:url(#clip-path-10);}.cls-69{clip-path:url(#clip-path-11);}.cls-70{clip-path:url(#clip-path-12);}.cls-71{clip-path:url(#clip-path-13);}.cls-72{clip-path:url(#clip-path-14);}.cls-73{fill:#008d0a;}.cls-74{clip-path:url(#clip-path-15);}.cls-75{clip-path:url(#clip-path-16);}.cls-76{fill:#008a0a;}.cls-77{clip-path:url(#clip-path-17);}.cls-78{clip-path:url(#clip-path-18);}.cls-79{clip-path:url(#clip-path-19);}.cls-80{clip-path:url(#clip-path-20);}.cls-81{fill:#008009;}.cls-82{fill:#00f711;}.cls-83{clip-path:url(#clip-path-21);}.cls-84{clip-path:url(#clip-path-22);}.cls-85{clip-path:url(#clip-path-23);}.cls-86{clip-path:url(#clip-path-24);}.cls-87{fill:#331080;}.cls-88{fill:#621ef7;}.cls-89{fill:#39118f;}.cls-90{clip-path:url(#clip-path-25);}.cls-91{fill:#818181;}.cls-92{clip-path:url(#clip-path-26);}.cls-93{clip-path:url(#clip-path-27);}.cls-94{clip-path:url(#clip-path-28);}.cls-95{clip-path:url(#clip-path-29);}.cls-96{clip-path:url(#clip-path-30);}.cls-97{clip-path:url(#clip-path-31);}.cls-98{clip-path:url(#clip-path-32);}.cls-99{clip-path:url(#clip-path-33);}.cls-100{clip-path:url(#clip-path-34);}.cls-101{clip-path:url(#clip-path-35);}.cls-102{stroke-width:1.26px;}</style><clipPath id="clip-path"><path class="cls-1" d="M1256.52,645.69l-5,13.15a6.8,6.8,0,0,0,.38-2.93,9.92,9.92,0,0,0-3.49-6.65,105.76,105.76,0,0,0-10.19-8.29c-3.75-2.68-7.21-5-10.27-6.75l5-13.15c3.06,1.79,6.52,4.07,10.27,6.76a102.84,102.84,0,0,1,10.19,8.29,10,10,0,0,1,3.49,6.65A6.74,6.74,0,0,1,1256.52,645.69Z"/></clipPath><clipPath id="clip-path-2"><path class="cls-1" d="M1260.32,703.57l-5,13.15a74.88,74.88,0,0,1-25.31-6.21c-9-3.78-18.11-10-27.21-18.49a206.08,206.08,0,0,1-15.51-16.14c-4.76-5.55-9-10.92-12.69-16a143.11,143.11,0,0,1-8.94-13.76,60.69,60.69,0,0,1-4.53-9.48l5-13.14a59.77,59.77,0,0,0,4.53,9.48,144.36,144.36,0,0,0,8.94,13.76c3.65,5,7.92,10.43,12.69,16a206.08,206.08,0,0,0,15.51,16.14c9.1,8.49,18.26,14.71,27.21,18.48A74.41,74.41,0,0,0,1260.32,703.57Z"/></clipPath><radialGradient id="radial-gradient" cx="1351.07" cy="663.36" r="9.43" gradientTransform="translate(1768.45 -621.25) rotate(90)" gradientUnits="userSpaceOnUse"><stop offset="0.2" stop-color="#666"/><stop offset="0.57" stop-color="#585858"/><stop offset="1" stop-color="#4d4d4d"/></radialGradient><radialGradient id="radial-gradient-2" cx="1312.9" cy="756.65" r="9.43" gradientTransform="translate(1822.14 -490.38) rotate(90)" xlink:href="#radial-gradient"/><radialGradient id="radial-gradient-3" cx="1352.15" cy="754.33" r="9.43" gradientTransform="translate(1859.1 -531.35) rotate(90)" xlink:href="#radial-gradient"/><radialGradient id="radial-gradient-4" cx="1316.89" cy="664.95" r="9.43" gradientTransform="translate(1735.85 -586) rotate(90)" xlink:href="#radial-gradient"/><clipPath id="clip-path-3"><path class="cls-1" d="M847.28,51.39l-4.95,13.14c-2.69.4-5.53.91-8.43,1.51s-5.69,1.3-8.3,2.09-5.07,1.61-7.27,2.47-4.09,1.66-5.56,2.35l5-13.15c1.47-.69,3.29-1.45,5.55-2.34s4.66-1.7,7.27-2.48,5.43-1.48,8.31-2.08S844.58,51.79,847.28,51.39Z"/></clipPath><clipPath id="clip-path-4"><path class="cls-1" d="M797.77,88.43l5-13.15c.22-.58.47-1.18.77-1.8a28.71,28.71,0,0,1,5-7.14,32.07,32.07,0,0,1,9.2-6.54l-5,13.15a31.86,31.86,0,0,0-9.2,6.53,28.71,28.71,0,0,0-5,7.14C798.24,87.24,798,87.85,797.77,88.43Z"/></clipPath><clipPath id="clip-path-5"><path class="cls-1" d="M908.62,121.34l-5,13.14a32.72,32.72,0,0,0-.48-18.55c-2-6.67-6.31-14-12.88-21.85S877.1,80.51,870.57,77a47,47,0,0,0-19.44-5.79l-1.36,0a49.83,49.83,0,0,0-18,2.86,111.54,111.54,0,0,0-19.16,8.86,15.54,15.54,0,0,0-3.88,3.66c-1.57,1.93-3.1,3.78-4.58,5.58A46.32,46.32,0,0,1,800,96.67a4.65,4.65,0,0,1-3.2,1.45l5-13.15a4.69,4.69,0,0,0,3.2-1.44A45.42,45.42,0,0,0,809.14,79c1.48-1.79,3-3.64,4.58-5.57a15.38,15.38,0,0,1,3.88-3.66,111.6,111.6,0,0,1,19.16-8.87,49.8,49.8,0,0,1,18-2.86l1.36.06a46.91,46.91,0,0,1,19.44,5.79c6.53,3.49,13.17,9.23,19.74,17.06s10.9,15.18,12.88,21.84A32.76,32.76,0,0,1,908.62,121.34Z"/></clipPath><clipPath id="clip-path-6"><path class="cls-1" d="M859,125.26a6.51,6.51,0,0,0,0-.77l.58-1.53.61-1.63.64-1.69.65-1.72.64-1.72.64-1.69.61-1.62.58-1.54a6.34,6.34,0,0,1,0,.76Z"/></clipPath><clipPath id="clip-path-7"><path class="cls-1" d="M860.08,112.07l-5,13.14a4.64,4.64,0,0,0-.11-2.88,14.69,14.69,0,0,0-2.88-4.6,17.06,17.06,0,0,0-4.22-3.85,7.67,7.67,0,0,0-3.21-1.08l4.95-13.15a7.84,7.84,0,0,1,3.21,1.09,16.66,16.66,0,0,1,4.22,3.85,14.69,14.69,0,0,1,2.88,4.6A4.64,4.64,0,0,1,860.08,112.07Z"/></clipPath><clipPath id="clip-path-8"><path class="cls-1" d="M860.06,112.15l-4.95,13.14a.24.24,0,0,0,0-.08l5-13.14S860.07,112.12,860.06,112.15Z"/></clipPath><clipPath id="clip-path-9"><path class="cls-1" d="M858.64,126.62a1.21,1.21,0,0,0,.05-.14l4.95-13.14a.69.69,0,0,1,0,.13C862.11,117.42,860.13,122.67,858.64,126.62Z"/></clipPath><clipPath id="clip-path-10"><path class="cls-1" d="M832.66,119.7l5-13.14a4.39,4.39,0,0,1,1.62-2,39.36,39.36,0,0,1,3.59-2.33c1.23-.71,2.49-1.36,3.79-2a6.46,6.46,0,0,1,2.88-.63l-5,13.14a6.46,6.46,0,0,0-2.88.63c-1.29.59-2.56,1.25-3.79,2a41.6,41.6,0,0,0-3.59,2.33A4.39,4.39,0,0,0,832.66,119.7Z"/></clipPath><clipPath id="clip-path-11"><path class="cls-1" d="M911.33,125.16l-5,13.14A41.86,41.86,0,0,1,897,152.69a87.22,87.22,0,0,1-18.76,14.23,92.38,92.38,0,0,1-27,10.75A61.11,61.11,0,0,1,836.75,179,62.19,62.19,0,0,1,824,177.3c-9-2.14-18.26-6.55-27.49-13.09S778,148.69,768.46,137.37c-10.46-12.48-17.8-23.86-21.79-33.85s-5.42-19.31-4.13-27.42a39.11,39.11,0,0,1,2-7.73l4.95-13.14a39.11,39.11,0,0,0-2,7.73c-1.29,8.11.1,17.34,4.13,27.42s11.33,21.37,21.79,33.85c9.5,11.32,19,20.35,28.09,26.84S820,162,829,164.16a62.89,62.89,0,0,0,12.71,1.69,62,62,0,0,0,14.48-1.32,92.88,92.88,0,0,0,27-10.75,86.89,86.89,0,0,0,18.75-14.23A41.75,41.75,0,0,0,911.33,125.16Z"/></clipPath><clipPath id="clip-path-12"><path class="cls-1" d="M629.51,385l5-13.14a7.68,7.68,0,0,1,3.45-4,8.8,8.8,0,0,1,4.88-1.26,11.51,11.51,0,0,1,2.27.3,10.35,10.35,0,0,1,6,3.74,9.27,9.27,0,0,1,2.1,6.52l-5,13.15a9.29,9.29,0,0,0-2.1-6.53,10.35,10.35,0,0,0-6-3.74,11.52,11.52,0,0,0-2.26-.3A8.92,8.92,0,0,0,633,381,7.73,7.73,0,0,0,629.51,385Z"/></clipPath><clipPath id="clip-path-13"><path class="cls-1" d="M647.25,396.62l-5,13.14.34-.91c1.32-3.58,2.47-7.07,3.4-10.37s1.7-6,2.21-8.17l5-13.15c-.51,2.14-1.26,4.89-2.21,8.18s-2.08,6.79-3.4,10.37C647.48,396,647.36,396.31,647.25,396.62Z"/></clipPath><clipPath id="clip-path-14"><path class="cls-1" d="M698.06,412.12l-4.95,13.14c-1.19,3.16-2.43,6.16-3.7,9a103.88,103.88,0,0,1-6.88,13,48.94,48.94,0,0,1-5.85,7.79l5-13.14a48.87,48.87,0,0,0,5.84-7.79,103.92,103.92,0,0,0,6.89-13C695.63,418.27,696.87,415.27,698.06,412.12Z"/></clipPath><clipPath id="clip-path-15"><path class="cls-1" d="M607.85,617.73l-5,13.14a54,54,0,0,1-10.2-13.4,42.13,42.13,0,0,1-4.25-14.89l4.95-13.14a41.81,41.81,0,0,0,4.25,14.88A53.8,53.8,0,0,0,607.85,617.73Z"/></clipPath><clipPath id="clip-path-16"><path class="cls-1" d="M648.37,681.37c1.45-3.87,2.89-7.74,4.37-11.6h0Q650.55,675.57,648.37,681.37Z"/></clipPath><clipPath id="clip-path-17"><path class="cls-1" d="M679.41,684.65l-4.95,13.15a80.69,80.69,0,0,1-11.45-13,61.59,61.59,0,0,1-7.21-14.16l5-13.14A61.59,61.59,0,0,0,668,671.68,80.23,80.23,0,0,0,679.41,684.65Z"/></clipPath><clipPath id="clip-path-18"><path class="cls-1" d="M658.17,666.74l-4.95,13.14a44.58,44.58,0,0,1-2,4.61,59.6,59.6,0,0,1-8.76,12.58l4.95-13.14a59.39,59.39,0,0,0,8.76-12.59A43.48,43.48,0,0,0,658.17,666.74Z"/></clipPath><clipPath id="clip-path-19"><path class="cls-1" d="M597.59,681.83l4.95-13.14A36.24,36.24,0,0,1,609,658.14l-5,13.14A36.24,36.24,0,0,0,597.59,681.83Z"/></clipPath><clipPath id="clip-path-20"><path class="cls-1" d="M594,680.54l5-13.15c-.19.51-.37,1-.52,1.53a36.76,36.76,0,0,0-1.16,14.74l-4.95,13.15a36.81,36.81,0,0,1,1.16-14.75C593.68,681.55,593.85,681.05,594,680.54Z"/></clipPath><clipPath id="clip-path-21"><path class="cls-1" d="M1236.26,140.52l-5,13.14a3.25,3.25,0,0,0,.21-1.77,4.69,4.69,0,0,0-1.24-2.27c-.88-1-1.84-2-2.82-3s-2-2-3-2.91a6,6,0,0,0-2.41-1.43,5,5,0,0,0-1.19-.16,6.44,6.44,0,0,0-1.65.16,12.75,12.75,0,0,0-4.3,2.22,11,11,0,0,0-3.31,3.21,5.89,5.89,0,0,0-.29.63l5-13.15a6.81,6.81,0,0,1,.29-.62,11.09,11.09,0,0,1,3.31-3.22,12.69,12.69,0,0,1,4.3-2.21,7,7,0,0,1,1.65-.17,5.6,5.6,0,0,1,1.19.17,6.09,6.09,0,0,1,2.41,1.43c1,.92,2,1.9,3,2.91s1.94,2,2.82,3a4.69,4.69,0,0,1,1.24,2.27A3.26,3.26,0,0,1,1236.26,140.52Z"/></clipPath><clipPath id="clip-path-22"><path class="cls-1" d="M1283.68,161l-5,13.14c-.24.64-.5,1.29-.79,1.93-2.58,5.72-7.75,11.37-15.35,16.79a39.2,39.2,0,0,1-12.9,6,47.25,47.25,0,0,1-13.25,1.41l5-13.14a46.88,46.88,0,0,0,13.25-1.42,39.18,39.18,0,0,0,12.9-6c7.6-5.42,12.77-11.08,15.35-16.79C1283.17,162.29,1283.44,161.65,1283.68,161Z"/></clipPath><clipPath id="clip-path-23"><path class="cls-1" d="M1192.79,174.19l-5,13.14a3.88,3.88,0,0,0,.21-2.17,7.66,7.66,0,0,0-1.5-3.16,45.05,45.05,0,0,0-7.17-7.27,9.92,9.92,0,0,0-3.41-1.82,6.43,6.43,0,0,0-1.53-.24,7.74,7.74,0,0,0-2.08.24,15.59,15.59,0,0,0-5.1,2.61,13.49,13.49,0,0,0-3.91,3.82,6.07,6.07,0,0,0-.41.86l5-13.14a6.07,6.07,0,0,1,.41-.86,13.24,13.24,0,0,1,3.91-3.82,15.59,15.59,0,0,1,5.1-2.61,7.69,7.69,0,0,1,2.08-.24,6,6,0,0,1,1.53.24,10.07,10.07,0,0,1,3.41,1.81,41.84,41.84,0,0,1,3.82,3.47,41.36,41.36,0,0,1,3.35,3.81A7.6,7.6,0,0,1,1193,172,3.89,3.89,0,0,1,1192.79,174.19Z"/></clipPath><clipPath id="clip-path-24"><path class="cls-1" d="M1238.74,201.46l-5,13.14c-.2.53-.41,1.05-.63,1.57a34,34,0,0,1-11.86,14.17c-8.49,6-16.79,9.82-24.68,11.19a54.2,54.2,0,0,1-10.93.81,49.9,49.9,0,0,1-12.06-1.82,66.84,66.84,0,0,1-21.06-10.34,151,151,0,0,1-19.11-16.47,141.69,141.69,0,0,1-15.92-19.06,48.07,48.07,0,0,1-8.21-19.37,30.68,30.68,0,0,1,1.67-15.92l5-13.14a30.67,30.67,0,0,0-1.67,15.92,48.07,48.07,0,0,0,8.21,19.37,140.89,140.89,0,0,0,15.92,19.05A150.24,150.24,0,0,0,1157.52,217a67,67,0,0,0,21.06,10.34,49.9,49.9,0,0,0,12.06,1.82,54.94,54.94,0,0,0,10.93-.81c7.89-1.38,16.19-5.14,24.68-11.19A34.14,34.14,0,0,0,1238.11,203C1238.33,202.51,1238.54,202,1238.74,201.46Z"/></clipPath><clipPath id="clip-path-25"><path class="cls-1" d="M958,726.69l-5,13.14a15,15,0,0,1-4.86,4.62,71.94,71.94,0,0,1-7,3.68c-8.24,3.66-17.7,7.8-28.1,12.31-10.11,4.38-20.85,9-31.91,13.73-10.77,4.6-21.4,9.2-31.61,13.69-9.85,4.33-18.6,8.34-26,11.91l5-13.15c7.44-3.57,16.19-7.57,26-11.9,10.21-4.49,20.84-9.1,31.61-13.7,11.06-4.73,21.8-9.35,31.91-13.73,10.4-4.5,19.85-8.64,28.1-12.3a71.94,71.94,0,0,0,7-3.68A15,15,0,0,0,958,726.69Z"/></clipPath><clipPath id="clip-path-26"><path class="cls-1" d="M961.27,728.54l-4.95,13.14a18.1,18.1,0,0,1-5.79,5.49,77.51,77.51,0,0,1-7.35,3.86c-8.28,3.68-17.74,7.81-28.14,12.32-10.12,4.39-20.86,9-31.93,13.74-10.76,4.59-21.38,9.19-31.58,13.69s-19.26,8.63-26.86,12.29l5-13.14c7.6-3.66,16.63-7.81,26.86-12.3s20.81-9.09,31.58-13.69c11.07-4.72,21.81-9.34,31.93-13.73,10.4-4.51,19.86-8.65,28.14-12.33a77.5,77.5,0,0,0,7.35-3.85A18.1,18.1,0,0,0,961.27,728.54Z"/></clipPath><clipPath id="clip-path-27"><path class="cls-1" d="M1082.82,737.82l5-13.14a6.65,6.65,0,0,1,.94-1.77,5.12,5.12,0,0,1,2.35-1.77,5.66,5.66,0,0,1,2-.27,7.63,7.63,0,0,1,1,.08c1.44.22,3,.53,4.74.94,1.55.36,3.1.79,4.59,1.27a7.51,7.51,0,0,1,2.88,1.58,6,6,0,0,1,1.57,2.7,11.45,11.45,0,0,1,0,5l-5,13.14a11.45,11.45,0,0,0,0-5,6,6,0,0,0-1.57-2.69,7.39,7.39,0,0,0-2.88-1.59c-1.49-.48-3-.91-4.59-1.27-1.7-.41-3.3-.72-4.74-.94-.36,0-.71-.07-1-.08a5.66,5.66,0,0,0-2.05.28,5,5,0,0,0-2.35,1.77A6.43,6.43,0,0,0,1082.82,737.82Z"/></clipPath><clipPath id="clip-path-28"><path class="cls-1" d="M1031.89,718.09l4.95-13.14a62.59,62.59,0,0,0-3,11.2c-1.64,9.29-1.34,17.42.91,24.14a41.14,41.14,0,0,0,11.11,17.38,60.79,60.79,0,0,0,18.51,11.55,156,156,0,0,0,23.1,7.27,19.89,19.89,0,0,0,4.14.48c1,0,2,0,3.17,0l8.23-.36c1.87-.07,3.57-.09,5.08-.05.56,0,1.09,0,2,.1l-5,13.15c-.86-.07-1.4-.09-2-.11-1.51,0-3.21,0-5.08.05q-4,.16-8.23.37c-1.15,0-2.21.06-3.17,0a20.65,20.65,0,0,1-4.14-.47,157.22,157.22,0,0,1-23.1-7.28,60.41,60.41,0,0,1-18.51-11.55,41.14,41.14,0,0,1-11.11-17.38c-2.24-6.72-2.55-14.85-.91-24.13A63.55,63.55,0,0,1,1031.89,718.09Z"/></clipPath><clipPath id="clip-path-29"><path class="cls-1" d="M1114,777.44l-5,13.14c-.38,1-1.39,2-3.14,3.11a25.4,25.4,0,0,1-7.36,2.8,45.63,45.63,0,0,1-10.88,1.1h-1.06a51.43,51.43,0,0,1-12.84-2.21l5-13.14a51.36,51.36,0,0,0,12.84,2.21h1.06a46.69,46.69,0,0,0,10.88-1.1,25.1,25.1,0,0,0,7.36-2.81C1112.58,779.45,1113.59,778.45,1114,777.44Z"/></clipPath><clipPath id="clip-path-30"><path class="cls-1" d="M1078.69,782.23l-5,13.14c-1.85-.57-4-1.33-6.54-2.25s-5.19-2-8-3.33-5.62-2.64-8.46-4.12c-2.29-1.19-4.47-2.45-6.49-3.75l5-13.14c2,1.3,4.2,2.55,6.49,3.74,2.84,1.49,5.69,2.88,8.46,4.13s5.52,2.4,8,3.33S1076.84,781.66,1078.69,782.23Z"/></clipPath><clipPath id="clip-path-31"><path class="cls-1" d="M1048.43,755.64q-1.87,5-3.76,10,1.88-5,3.76-10Z"/></clipPath><clipPath id="clip-path-32"><path class="cls-1" d="M1129.35,832.66a55.3,55.3,0,0,1-25.45,5.52l.58-1.53.61-1.63.64-1.69.64-1.72.65-1.72.64-1.69.61-1.63.58-1.53a55.33,55.33,0,0,0,25.45-5.52c7.4-3.73,13.74-9.71,18.87-17.75q-2.46,6.57-4.94,13.14l5-13.14a65.79,65.79,0,0,0,6-12.21l-5,13.14a65.58,65.58,0,0,1-6,12.22C1143.09,823,1136.75,828.93,1129.35,832.66Z"/></clipPath><clipPath id="clip-path-33"><path class="cls-1" d="M1026.86,815.44c-2.23-1.65-4.13-3.07-5.74-4.32l4.95-13.14c1.61,1.25,3.51,2.66,5.74,4.32a77.24,77.24,0,0,0,10.22,6.2,132.19,132.19,0,0,0,14.81,6.44,170.68,170.68,0,0,0,20.26,6,147.07,147.07,0,0,0,29.27,4.09l2.47,0-4.95,13.14c-.81,0-1.64,0-2.47,0a147.07,147.07,0,0,1-29.27-4.09,172.7,172.7,0,0,1-20.26-6,134,134,0,0,1-14.81-6.45A77.24,77.24,0,0,1,1026.86,815.44Z"/></clipPath><clipPath id="clip-path-34"><path class="cls-1" d="M1103.9,838.18h0l4.95-13.14h0l-4.95,13.14Z"/></clipPath><clipPath id="clip-path-35"><path class="cls-1" d="M1162.67,790.92l-5,13.14a68.25,68.25,0,0,1-6.2,12.67c-5.41,8.48-12.15,14.79-20,18.76a58.91,58.91,0,0,1-27.16,5.91c-.84,0-1.68,0-2.53,0a151.28,151.28,0,0,1-30.2-4.2,174.92,174.92,0,0,1-20.81-6.13,138.39,138.39,0,0,1-15.32-6.67,85,85,0,0,1-10.8-6.57c-2.9-2.14-5.25-3.92-7.16-5.42l5-13.14c1.91,1.5,4.26,3.28,7.16,5.42a84.33,84.33,0,0,0,10.8,6.57,138.39,138.39,0,0,0,15.32,6.67,176.81,176.81,0,0,0,20.81,6.13,152,152,0,0,0,30.2,4.2c.85,0,1.69,0,2.53,0a58.81,58.81,0,0,0,27.16-5.9c7.88-4,14.62-10.29,20-18.76A68.56,68.56,0,0,0,1162.67,790.92Z"/></clipPath></defs><title>numbers</title><g id="Layer_6" data-name="Layer 6"><g class="cls-2"><polygon class="cls-3" points="844.32 288.23 650.6 203.81 972.51 63.53 1166.23 147.96 844.32 288.23"/><polygon points="1164.88 142.27 1166.23 147.96 972.51 63.53 971.16 57.84 1164.88 142.27"/><polygon points="971.16 57.84 972.51 63.53 650.6 203.81 649.25 198.11 971.16 57.84"/></g><g class="cls-2"><path class="cls-4" d="M1077.25,312.76a48.69,48.69,0,0,1-2,12.41,20.33,20.33,0,0,0-.43-12.89c-3-7.92-11-15.14-23.85-21-8.51-3.86-19.12-7.09-31.76-9.54-31.8-6.14-70.42-6-107.19-.94-1.5.2-3,.43-4.48.64-35.11,5.3-68.17,15.17-91.5,28.54-24.31,13.94-33.44,29.05-28.55,42.21a21.49,21.49,0,0,0,1.13,2.51c-.17-.29-.32-.57-.45-.83-.39-.8-.9-1.86-1.24-2.67a47.08,47.08,0,0,1-1.91-5.32,86.47,86.47,0,0,1-2.83-13.84c-.36-2.57-.84-6.11-1.72-15a138.46,138.46,0,0,1-.65-22.09,104.63,104.63,0,0,0-.1-11.18s-.34-5.89-1.08-11.86a62.25,62.25,0,0,0-1.7-8.54c-.47-1.87-.86-3.52-1.23-5.29-.43-2.06-.83-4.27-1.28-7.15-.42-2.66-1.2-8.18-1.79-15.22-.39-4.75-.6-9.35-.65-11.83-.06-3.14,0-4.45,0-6.13,0-1.84.2-4.08.2-4.09.22-2.39.22-2.39.49-4.26a25.94,25.94,0,0,1,.5-2.63c.36-1.37.9-3.18,1.37-4.51.37-1,1-2.22,1.43-3.15,4.18-8.15,13.11-16.51,27-24.48,24.29-13.92,59.15-24,95.9-29.15l1.7-.23c36.22-4.87,74.12-4.88,105.4,1.16,16.11,3.11,28.9,7.53,38.24,12.83a45.75,45.75,0,0,1,13.41,10.86,36.49,36.49,0,0,1,2.38,3.41c.3.56.77,1.3,1,1.89.56,1.18,1.3,2.75,1.75,4,2,5.27,3.64,13.36,4.93,24.05.31,2.58.5,4.52.58,5.35.18,1.84.59,6.35.82,11.83,0,.76.07,1.54.08,2.33.16,4.72,0,8.57-.15,10.42-.14,2.77-.19,3.85-.13,5.92,0,.46.08,2.9.43,6.53a125.07,125.07,0,0,0,3,19.08,134.51,134.51,0,0,1,2.61,13.25c.25,1.73.58,4.44.68,5.4.46,4.41.79,8.15.93,10A153.63,153.63,0,0,1,1077.25,312.76Z"/><path class="cls-5" d="M843.07,382.1c-31.79-6.14-50.72-17.34-55.62-30.5s4.23-28.26,28.55-42.2,59.21-24.07,96-29.18,75.4-5.21,107.19.93,50.71,17.34,55.61,30.5-4.22,28.27-28.54,42.21S987,377.93,950.25,383,874.86,388.24,843.07,382.1Z"/></g><path class="cls-6" d="M1077.25,312.76a48.69,48.69,0,0,1-2,12.41,20.33,20.33,0,0,0-.43-12.89c-3-7.92-11-15.14-23.85-21-8.51-3.86-19.12-7.09-31.76-9.54-31.8-6.14-70.42-6-107.19-.94-1.5.2-3,.43-4.48.64-35.11,5.3-68.17,15.17-91.5,28.54-24.31,13.94-33.44,29.05-28.55,42.21a21.49,21.49,0,0,0,1.13,2.51c-.17-.29-.32-.57-.45-.83-.39-.8-.9-1.86-1.24-2.67a47.08,47.08,0,0,1-1.91-5.32,86.47,86.47,0,0,1-2.83-13.84c-.36-2.57-.84-6.11-1.72-15a138.46,138.46,0,0,1-.65-22.09,104.63,104.63,0,0,0-.1-11.18s-.34-5.89-1.08-11.86a62.25,62.25,0,0,0-1.7-8.54c-.47-1.87-.86-3.52-1.23-5.29,32.9-33,92.2-56.77,160.89-60.28,50.49-2.58,97.06,6.24,132.52,22.81,0,.76.07,1.54.08,2.33.16,4.72,0,8.57-.15,10.42-.14,2.77-.19,3.85-.13,5.92,0,.46.08,2.9.43,6.53a125.07,125.07,0,0,0,3,19.08,134.51,134.51,0,0,1,2.61,13.25c.25,1.73.58,4.44.68,5.4.46,4.41.79,8.15.93,10A153.63,153.63,0,0,1,1077.25,312.76Z"/><path class="cls-7" d="M1286.5,925.51a97.45,97.45,0,0,0-4-15.87C1275,888,1252,822.65,1232,783.58c-11.76-23-18.94-38.8-25-50.57a100.85,100.85,0,0,0-29.47-34.57c-8.22-6.09-17.67-12.94-31.76-17.81-18.38-6.36-38-5.47-57.12-2-47.73,8.5-73.41,10.49-82.7,13.82-9,6.7-47,50.05-48.28,85.46-.92,25.54,2.47,60.14,21.46,86.77s96.3,154.81,127.93,156.26c36.93,1.68,131.27-7.23,158-28.33C1289.11,973.62,1290.63,950.71,1286.5,925.51Z"/><path class="cls-8" d="M1119.64,1016.29c-16.9,0-35.27-4.78-51.47-9-2.22-.58-4.4-1.15-6.54-1.69-13.12-3.35-48.13-24.78-89.2-54.59-40.08-29.09-72.64-56.55-81-68.32-18.46-25.89-21.33-59.69-20.48-83.48.48-13.25,6.66-26.79,18.38-40.23,9.74-11.17,20.65-19.22,25.89-23.08l1.15-.85,2.26-1.71c9.33-7.12,31.2-23.8,63.92-32.2a96.84,96.84,0,0,1,24.06-3.06,91.52,91.52,0,0,1,30,5c13.72,4.74,22.92,11.57,30.32,17.06a96.06,96.06,0,0,1,27.91,32.73c2.72,5.23,5.7,11.36,9.15,18.47,4.18,8.62,9.39,19.35,15.89,32.07,20,39.1,43.41,105.84,50.12,125.37a92.54,92.54,0,0,1,3.82,15c4.07,24.8,2.32,44.84-19.45,62-9,7.07-20.32,10.51-34.68,10.51Z"/><path d="M1006.57,703.43a86.35,86.35,0,0,1,28.25,4.69c12.94,4.48,21.78,11,28.88,16.3a90.74,90.74,0,0,1,26.36,30.91c2.68,5.17,5.65,11.27,9.08,18.35,4.2,8.64,9.42,19.39,15.94,32.16,19.83,38.79,43.15,105.23,49.82,124.67a87.59,87.59,0,0,1,3.61,14.13c2.18,13.33,2.2,23.05,0,31.51-2.5,9.79-8.23,18.11-17.54,25.44-8,6.3-18.26,9.37-31.37,9.37-16.21,0-34.23-4.69-50.13-8.83-2.23-.58-4.42-1.15-6.56-1.69-12.33-3.15-47.44-24.74-87.39-53.74-39-28.34-71.86-55.93-79.82-67.1C886,866,874.76,841,876.25,799.41c.42-12,6.17-24.42,17.06-36.91,9.36-10.73,20-18.54,25-22.3l1.16-.86,2.31-1.75c9.08-6.93,30.34-23.14,62-31.27a91.53,91.53,0,0,1,22.74-2.89m0-10.67A102.1,102.1,0,0,0,981.18,696c-36.79,9.44-60.39,29.12-68,34.8-9,6.69-46.3,32.85-47.57,68.25-.91,25.54,2.48,60.15,21.47,86.77s142.58,117.15,173.26,125c18.11,4.61,39.41,10.85,59.33,10.85,13.84,0,27-3,38-11.66,24-18.94,25.55-41.85,21.42-67.06a97.6,97.6,0,0,0-4-15.86c-7.42-21.61-30.44-87-50.41-126.07-11.76-23-18.94-38.79-25-50.56a100.85,100.85,0,0,0-29.47-34.57c-8.22-6.1-17.67-12.94-31.76-17.81a96.9,96.9,0,0,0-31.73-5.28Z"/><ellipse class="cls-9" cx="953.74" cy="817.08" rx="56.79" ry="71.07" transform="translate(-26.01 31.38) rotate(-1.86)"/><ellipse class="cls-9" cx="1029.35" cy="915.77" rx="40.68" ry="50.92" transform="translate(-29.17 33.88) rotate(-1.86)"/><ellipse class="cls-9" cx="1111.67" cy="953.18" rx="32.01" ry="40.07" transform="translate(-30.34 36.57) rotate(-1.86)"/><ellipse class="cls-10" cx="950.11" cy="817.19" rx="19.31" ry="26.55" transform="translate(-26.02 31.26) rotate(-1.86)"/><ellipse class="cls-10" cx="1027.61" cy="917.85" rx="22.93" ry="16.67" transform="translate(-85.24 1730.26) rotate(-77.9)"/><ellipse class="cls-10" cx="1111.76" cy="955.91" rx="16.99" ry="12.35" transform="translate(-55.95 1842.62) rotate(-77.9)"/><path class="cls-11" d="M1132.27,898.69s-9.35-18-36.91-8.48c-5.24-11.68-16.26-43.37-65.41-38.85,2.22-11,20.73-58.59-16.72-104.4,14.31-6.69,23.16-11.13,41.86,11.08S1134.16,893.1,1132.27,898.69Z"/><line class="cls-12" x1="1206.7" y1="732.46" x2="1096.58" y2="745.13"/><line class="cls-12" x1="1142.32" y1="679.54" x2="1019.73" y2="693.63"/><polyline class="cls-12" points="1002.25 695.64 969.72 699.38 969.7 699.38"/><line class="cls-12" x1="1239.77" y1="799.59" x2="1130.07" y2="812.2"/><line class="cls-12" x1="1266.95" y1="866.35" x2="1157.66" y2="878.91"/><line class="cls-12" x1="1287.83" y1="935.66" x2="1179.8" y2="948.09"/><path class="cls-13" d="M1334.18,731.89c-14.7,18.76-42,30.32-60.86,25.77-.46-.12-.92-.26-1.35-.42l-133.49-57.88a10.74,10.74,0,0,1-6.73-5.86l0,.06-16.49-34.83,20.31-2.2,9,5.06c.69-1-4.87,7.74-4.1,6.75,4.82-6.16,1.14-1.81,8.62-6.77,7.05-4.68,15.4-6.81,21.82-5.56l117.37,24.07h0l36.81-13.33,15.6,30.88,1.23,2.43a2.47,2.47,0,0,1,.17.42C1345.47,709.08,1343,720.63,1334.18,731.89Z"/><path class="cls-13" d="M1341.92,700.06l-1.23-2.43A17.29,17.29,0,0,1,1341.92,700.06Z"/><path class="cls-14" d="M1317.47,699.17c-14.69,18.77-42,30.32-60.85,25.76a11.91,11.91,0,0,1-1.36-.41l-133.49-57.89c-5.81-2-8.57-6.92-7.2-12.92s10.33-19.9,17.8-24.86c7.05-4.68,15.41-6.82,21.82-5.56l155.36,31.86c.58.12,1.06.22,1.48.35C1329.26,660.84,1332.15,680.43,1317.47,699.17Z"/><g class="cls-2"><ellipse class="cls-15" cx="1279.14" cy="689.63" rx="26.27" ry="18" transform="translate(-135.94 358.96) rotate(-15.18)"/><g class="cls-2"><polygon class="cls-16" points="1332.45 650.59 1327.5 663.73 1284.3 623.43 1289.25 610.29 1332.45 650.59"/><polygon points="1332.56 655.12 1327.61 668.26 1284.41 627.96 1289.36 614.81 1332.56 655.12"/><polygon points="1232.12 620.6 1227.17 633.74 1223.2 604.98 1228.15 591.84 1232.12 620.6"/><polygon points="1232.95 621.07 1228 634.22 1227.17 633.74 1232.12 620.6 1232.95 621.07"/><g class="cls-2"><g class="cls-17"><g class="cls-2"><path d="M1256.52,645.69l-5,13.15a6.8,6.8,0,0,0,.38-2.93,9.92,9.92,0,0,0-3.49-6.65,105.76,105.76,0,0,0-10.19-8.29c-3.75-2.68-7.21-5-10.27-6.75l5-13.15c3.06,1.79,6.52,4.07,10.27,6.76a102.84,102.84,0,0,1,10.19,8.29,10,10,0,0,1,3.49,6.65,6.74,6.74,0,0,1-.38,2.92"/></g></g></g><path class="cls-18" d="M1289.74,557.29,1363.38,626l-30.93,24.59-43.2-40.3-7,5.56,6,5.6a67.25,67.25,0,0,1,13.42,17.19,53,53,0,0,1,6.19,18.69,38.35,38.35,0,0,1-2,17.9,33.69,33.69,0,0,1-11,14.87,49.16,49.16,0,0,1-14.81,7.7,53.14,53.14,0,0,1-18.85,2.59l-1.1,0c-7.33-.32-15.33-2.3-23.79-5.86s-17.18-9.5-25.91-17.64a196.22,196.22,0,0,1-15.2-15.82c-4.7-5.47-8.9-10.77-12.49-15.73a143.1,143.1,0,0,1-8.72-13.4,74.71,74.71,0,0,1-3.75-7.5l40.08-10.07a76.07,76.07,0,0,0,4.87,7.84c2.35,3.4,5,6.85,7.74,10.29s5.57,6.67,8.29,9.66,5.11,5.47,7.07,7.29a15.2,15.2,0,0,0,9.68,4.22l.57,0a12.77,12.77,0,0,0,8.55-2.63,9,9,0,0,0,3.54-8,13.31,13.31,0,0,0-4.63-8.88,105.84,105.84,0,0,0-10.59-8.63c-3.54-2.54-6.83-4.72-9.81-6.5l-3.49-25.39Z"/><g class="cls-2"><g class="cls-19"><g class="cls-2"><path d="M1260.32,703.57l-5,13.15a74.88,74.88,0,0,1-25.31-6.21c-9-3.78-18.11-10-27.21-18.49a206.08,206.08,0,0,1-15.51-16.14c-4.76-5.55-9-10.92-12.69-16a143.11,143.11,0,0,1-8.94-13.76,60.69,60.69,0,0,1-4.53-9.48l5-13.14a59.77,59.77,0,0,0,4.53,9.48,144.36,144.36,0,0,0,8.94,13.76c3.65,5,7.92,10.43,12.69,16a206.08,206.08,0,0,0,15.51,16.14c9.1,8.49,18.26,14.71,27.21,18.48a74.41,74.41,0,0,0,25.31,6.21"/></g></g></g><path d="M1332.56,655.12l-43.2-40.31-1.89,1.5,3.33,3.1A71.12,71.12,0,0,1,1305,637.57a56.4,56.4,0,0,1,6.55,19.82,40.9,40.9,0,0,1-2.13,19.13,36.3,36.3,0,0,1-11.91,16.08,52.83,52.83,0,0,1-15.76,8.22,57.31,57.31,0,0,1-20.19,2.8l-1.22,0a74.41,74.41,0,0,1-25.31-6.21c-9-3.77-18.11-10-27.21-18.48a206.08,206.08,0,0,1-15.51-16.14c-4.77-5.55-9-10.93-12.69-16a144.36,144.36,0,0,1-8.94-13.76,59.77,59.77,0,0,1-4.53-9.48l-.48-1.43,46.51-11.69.73,1.5a68.51,68.51,0,0,0,5.37,8.87c2.3,3.32,4.85,6.7,7.57,10.06s5.47,6.55,8.15,9.49,5,5.31,6.83,7.06a10.72,10.72,0,0,0,6.92,3,9.49,9.49,0,0,0,6.64-1.88,6.36,6.36,0,0,0,2.53-5.76,10,10,0,0,0-3.49-6.65,102.84,102.84,0,0,0-10.19-8.29c-3.75-2.69-7.21-5-10.27-6.76l-.83-.47-4-28.77.75-.47,61-38.35,78.73,73.45Zm-44.32-33.67-6-5.6,7-5.56,43.2,40.3L1363.38,626l-73.64-68.71-57.67,36.28,3.49,25.39c3,1.78,6.27,4,9.81,6.5a105.84,105.84,0,0,1,10.59,8.63,13.31,13.31,0,0,1,4.63,8.88,9,9,0,0,1-3.54,8,12.77,12.77,0,0,1-8.55,2.63l-.57,0a15.2,15.2,0,0,1-9.68-4.22c-2-1.82-4.33-4.28-7.07-7.29s-5.5-6.25-8.29-9.66-5.39-6.89-7.74-10.29a76.07,76.07,0,0,1-4.87-7.84L1170.2,624.4a74.71,74.71,0,0,0,3.75,7.5,143.1,143.1,0,0,0,8.72,13.4c3.59,5,7.79,10.26,12.49,15.73a196.22,196.22,0,0,0,15.2,15.82c8.73,8.14,17.45,14.08,25.91,17.64s16.46,5.54,23.79,5.86l1.1,0A53.14,53.14,0,0,0,1280,697.8a49.16,49.16,0,0,0,14.81-7.7,33.66,33.66,0,0,0,11-14.88,38.3,38.3,0,0,0,2-17.89,53.14,53.14,0,0,0-6.19-18.7,67.37,67.37,0,0,0-13.42-17.18"/></g></g><path class="cls-20" d="M1360.14,633.59c-.15,2.33-.52,5.25-1,8.45-1,6.48-2.53,14.11-3.84,20.27a115.16,115.16,0,0,1-4.2,15.07c-3.76,9.66-11.25,27.39-14,33.41-.52,1.16-.86,1.47-1,1l-.06.21-16.15-4.23,24.1-79.94,16.15,4.26-.06.21h0A4.22,4.22,0,0,1,1360.14,633.59Z"/><path class="cls-21" d="M1343,637.78c-1,6.48-2.52,14.11-3.84,20.27a115.16,115.16,0,0,1-4.2,15.07c-3.76,9.66-11.25,27.39-14,33.41-1,2.35-1.35,1.22-.74-2.73,0-.15,0-.3.07-.45.2-1.21.42-2.61.68-4.2a133.15,133.15,0,0,1,3.84-15.93c4.7-15.15,13.49-41.38,17.38-52.22,1.25-3.49,2-4.14,1.79-1.67S1343.48,634.58,1343,637.78Z"/><g class="cls-2"><path class="cls-22" d="M1312.72,655.88c-1-1-1.68-1.63-1.68-1.63A3.89,3.89,0,0,1,1312.72,655.88Z"/></g><g class="cls-2"><path class="cls-20" d="M1269.9,733.91a18.14,18.14,0,0,1-3.48.4c-6,.05-16.69-.2-27.3-.66l-12.51,16L1211,730.43l-.07-.1-.16-.24c-.71-1.18-.44-2.8.88-4.63,4-5.43,11.32-13.29,24-20.22l1.08-.58c4.67-2.46,9.86-3.55,13.26-2.77,10.56,2.44,30,10,37.69,15.29h0l.65.61a.12.12,0,0,0,.05.05c3,2.89,14.26,17,15.26,20.58C1304.47,741.34,1283,735.81,1269.9,733.91Z"/><path class="cls-4" d="M1288.36,717.8l-.65-.61A2.72,2.72,0,0,1,1288.36,717.8Z"/><path class="cls-23" d="M1300,744.92c4.13-3.29,5.27-6.8,2.79-8.53-7.66-5.32-27.13-12.85-37.69-15.29-3.4-.78-8.59.31-13.26,2.77l-1.08.58c-12.72,6.94-20.08,14.79-24,20.22-2.47,3.39-1.26,6.09,2.94,6.56,12.28,1.39,40.58,2.39,51.84,2.29a25.38,25.38,0,0,0,11.14-3.24,25,25,0,0,0,3.45-2.26q1.69-1.34,3.9-3.1"/><path class="cls-21" d="M1250.8,724.45l1.08-.58c4.67-2.46,9.86-3.55,13.26-2.77,10.56,2.44,30,10,37.69,15.29,2.48,1.73,1.34,5.24-2.79,8.53q-2.2,1.77-3.9,3.1a25,25,0,0,1-3.45,2.26,25.38,25.38,0,0,1-11.14,3.24c-11.26.1-39.56-.9-51.84-2.29-4.2-.47-5.41-3.17-3-6.55C1230.72,739.24,1238.08,731.39,1250.8,724.45Z"/></g><g class="cls-2"><path class="cls-20" d="M1317.51,677.37a126.67,126.67,0,0,1,1.46,21.78c-.2,4-3.6,8.93-8.3,12.13l-4.42,3-.46.3c-4.4,2.8-8.94,3.35-11.12,1.27-5.57-5.33-18.56-20.75-23.42-28.94-1.66-2.8-.06-7.66,3.91-11.82a97,97,0,0,1,17.7-14.8,62.53,62.53,0,0,1,11.45-5.82c2.72-1,5.1-1.07,6.73-.21,0,0,.65.61,1.68,1.63h0c3.28,3.24,10.34,10.55,12.21,15.11C1326.22,674.12,1321.92,676.15,1317.51,677.37Z"/><path class="cls-21" d="M1306,676.55a63.82,63.82,0,0,1,11.45-5.82c4.28-1.61,7.7-.79,8.71,2.11,3.17,9,6.53,30.44,5.94,42.59-.19,3.94-3.6,8.93-8.29,12.12l-4.43,3-.45.29c-4.4,2.8-8.94,3.35-11.12,1.27-5.58-5.33-18.57-20.74-23.42-28.94-1.66-2.8-.06-7.65,3.9-11.81A97.15,97.15,0,0,1,1306,676.55Z"/></g><path class="cls-24" d="M1173,633.75s-137.47-63-198.94-72.7c0,0-165-6-306.73,5.65,17,12.19,161.84,69.31,182.31,73S1118.61,642.62,1173,633.75Z"/><path class="cls-25" d="M894.12,623.69s-56-31.64-61.66-33.39,106.32-7.36,106.32-7.36,54.38,29.74,58.05,33.1S894.12,623.69,894.12,623.69Z"/><path class="cls-26" d="M665.57,566.39s-9.09,235,9.47,294.12c17.77,14.54,139.7,67.24,178.4,66.56,3.87-27,5.45-268.28-5.56-287.69C833.31,628.4,724.82,582.1,665.57,566.39Z"/><path class="cls-10" d="M1173,633.75s6.49,119.92,3.66,208c-1.09,34-33.16,67.49-38.64,68.86-12.22,11.59-302.45,28.62-319.55,17.5,0,0,31.2-25.5,30-72.28-1.44-58.44.78-145.74-.65-216.5C858.36,633.74,1121.85,627,1173,633.75Z"/><path class="cls-27" d="M886.08,502.87,886,591.42l77.56.87c13,0,23.52-19.8,23.54-44.25s-10.48-44.29-23.45-44.3c-4.36,0-8.45,2.23-12,6.14Z"/><path class="cls-28" d="M1227.46,488.51s-27.3,20.13-78.09,26.53c-22.58,2.84-52.1.25-80.6-3.44-92.65-12-133.84-60.27-133.84-60.27s6.19-63.79,7.42-85.2,30.43-63.05,30.43-63.05Z"/><path class="cls-28" d="M638.3,490.85s17.64,31.59,76.88,29,145.48-25.45,145.48-25.45l54.09-71.92Z"/><path class="cls-10" d="M962.61,316.61l-30.2,0,.62,99.09,29.48,0S958,350.14,962.61,316.61Z"/><polygon class="cls-29" points="962.51 415.7 943.11 442.02 922.06 442 933.03 415.67 962.51 415.7"/><polygon class="cls-30" points="985.57 415.72 904.79 415.64 909.79 557.99 986.38 556.27 985.57 415.72"/><path class="cls-31" d="M962.4,414.85l2.12,17a2.9,2.9,0,0,0,1.16,2l20.76,15.35a2.92,2.92,0,0,0,4.63-1.92l.7-4.74a2.92,2.92,0,0,0-.82-2.48l-23.58-27.66A2.92,2.92,0,0,0,962.4,414.85Z"/><polygon class="cls-32" points="860.66 494.44 868.3 526.56 909.79 557.99 904.79 415.64 860.66 494.44"/><path class="cls-28" d="M932,418.14s-1.36,16.39-4.79,19-48.37,22-53.72,22.72-4.3-11.6-4.3-11.6Z"/><path class="cls-33" d="M932,418.14s-1.69,19.79-6.15,19.78c-5.33,2.62-45,19.93-45,19.93"/><path class="cls-34" d="M666.37,493a105.34,105.34,0,0,1-11.42-.56c-.81-.09-1.62-.19-2.41-.31a10.42,10.42,0,0,1-6.61-3.78l-.17-.22-.6-.87a4.49,4.49,0,0,0-.24-.42,10.1,10.1,0,0,1-1.2-3.35l0-.23c-.06-.38-.13-.77-.2-1.15-1.13-6.65-2.77-17.26-4.18-30.17-.21-2-.42-4-.63-6.09,0-.17,0-.36,0-.58-.24-2.44-.45-4.95-.65-7.53-.92-11.33-1.44-22.48-1.53-33.14A348.09,348.09,0,0,1,638,367.35c0-.05,0-.09,0-.14a227.07,227.07,0,0,1,7.2-39.43,10.65,10.65,0,0,1,8.26-7.65l.65-.13,1-.18c14.92-2.8,30.77-5.37,47.2-7.66,35.75-5,91.07-10.91,151.62-10.91,7.88,0,15.78.1,23.48.3,12.44.3,24.9.89,37,1.76a10.56,10.56,0,0,1,9.73,9.33c.17,1.49.35,3.06.51,4.68a615,615,0,0,1,2.36,71.46c-.28,10.27-.85,19.07-1.66,25.48,0,.15,0,.29-.06.44-.32,2.49-.67,4.59-1.06,6.26a12.82,12.82,0,0,1-1.36,1.23c-2.49,2-8.1,5.59-20.45,11.16-2.41,1.08-4.43,2-6.34,2.77-3.56,1.52-7.65,3.18-12.53,5.1-5.46,2.11-11.13,4.23-16.82,6.27-49.4,17.67-126.58,39.08-179.3,44.32l-.65.07C679.22,492.62,672.33,493,666.37,493Z"/><path class="cls-35" d="M853.94,309h0c7.82,0,15.66.1,23.31.3,12.31.3,24.65.89,36.65,1.74a2.85,2.85,0,0,1,2.36,1.61,3.16,3.16,0,0,1,.25.89c.17,1.53.34,3,.49,4.53v.08a605.86,605.86,0,0,1,2.32,70.43c-.27,9.92-.82,18.39-1.58,24.54l-.09.62c-.15,1.21-.3,2.22-.44,3.08-2.16,1.53-7.18,4.63-17.91,9.48-2.37,1.06-4.34,1.92-6.23,2.72-3.48,1.48-7.38,3.07-12.27,5-5.41,2.1-11,4.18-16.62,6.2-49,17.52-125.4,38.73-177.46,43.91h-.15l-.54.06c-7.35.71-14,1.07-19.67,1.07a96.58,96.58,0,0,1-10.54-.51c-.77-.09-1.49-.18-2.18-.28a2.62,2.62,0,0,1-1.66-.95l-.24-.34-.15-.26a2.74,2.74,0,0,1-.25-.71l0-.23c-.07-.4-.14-.82-.22-1.23-1.11-6.55-2.72-17-4.1-29.6-.2-1.94-.41-3.92-.61-6,0-.22,0-.48-.08-.77-.2-2.14-.41-4.53-.63-7.32-.9-11.13-1.41-22.09-1.5-32.57a342.35,342.35,0,0,1,1.54-36.36,1.11,1.11,0,0,0,0-.19,220.08,220.08,0,0,1,7-38.07,3,3,0,0,1,2.24-2.17l.7-.13.83-.16.19,0c14.49-2.72,30.66-5.34,46.75-7.58A1106.56,1106.56,0,0,1,853.94,309m0-15.49c-59.39,0-113.78,5.58-152.67,11-20.78,2.88-37.13,5.75-47.48,7.69l-1.74.33a18.43,18.43,0,0,0-14.26,13.15,235.25,235.25,0,0,0-7.46,40.77.25.25,0,0,0,0,.08,354.45,354.45,0,0,0-1.62,38.14c.1,11.82.7,23.2,1.55,33.69.21,2.68.43,5.3.68,7.85a2.11,2.11,0,0,1,0,.25c.21,2.17.43,4.27.65,6.33,1.38,12.58,3,23.17,4.26,30.69.08.45.16.9.23,1.32a17.69,17.69,0,0,0,2.21,6.06.26.26,0,0,0,.05.09,1.16,1.16,0,0,0,.14.24,3.46,3.46,0,0,0,.29.45c.16.25.38.56.63.91s.32.44.5.66a18.13,18.13,0,0,0,11.48,6.58c.88.13,1.79.25,2.71.35a112.74,112.74,0,0,0,12.27.6c6.42,0,13.56-.4,21.26-1.14l.63-.07C739.78,494.4,816,473.88,869.4,454.78c6-2.15,11.69-4.28,17-6.35,4.5-1.77,8.76-3.49,12.72-5.18,2.27-1,4.43-1.91,6.5-2.84,10.17-4.59,17.86-8.76,22.15-12.2a13.73,13.73,0,0,0,3.42-3.67.11.11,0,0,0,0-.05,3.85,3.85,0,0,0,.37-.92,70,70,0,0,0,1.4-7.9h0c.9-7,1.48-16.27,1.77-26.68a618.56,618.56,0,0,0-2.4-72.42c-.16-1.66-.34-3.28-.52-4.86A18.3,18.3,0,0,0,915,295.58c-12.56-.89-25.06-1.47-37.39-1.77q-12-.31-23.69-.31Z"/><polygon class="cls-36" points="980.41 578.9 976.79 616.39 894.02 617.85 901.59 580.29 980.41 578.9"/><polygon class="cls-32" points="863.73 561.12 842.42 590.12 894.02 617.85 901.59 580.29 863.73 561.12"/><ellipse class="cls-37" cx="886.04" cy="547.15" rx="23.5" ry="44.27"/><path class="cls-38" d="M963,413.24s.86,19.36,2.65,20.68l20.76,15.35"/><path class="cls-34" d="M1201.39,486.64c-31.62,0-82.42-9.9-135.91-26.49-53.79-16.67-84.18-32.11-88.34-37.59-4.12-16.92-4.6-74.05-.87-108.36a10.18,10.18,0,0,1,9.29-9c27.76-2.2,55.4-3.32,82.15-3.32,52,0,101.55,4.21,147.27,12.51a10.29,10.29,0,0,1,8,7.31c5.47,18.63,16.71,71.08,2.84,155.49a10.1,10.1,0,0,1-8.4,8.41,104.89,104.89,0,0,1-16,1.08Z"/><path class="cls-35" d="M1067.71,310c51.52,0,100.58,4.16,145.82,12.38a2.21,2.21,0,0,1,1.67,1.6c6.86,23.35,9.87,52.27,9,86a506.85,506.85,0,0,1-6.33,65.92,2,2,0,0,1-1.64,1.7,97.46,97.46,0,0,1-14.79,1c-29.94,0-78.44-9.33-129.76-25a635.64,635.64,0,0,1-59.92-21.3c-17.52-7.44-24.62-12-27.17-14-3.22-17.56-4-68.48-.18-103.19a2,2,0,0,1,1.85-1.81c27.54-2.19,55-3.3,81.5-3.3m0-16.26c-25.07,0-52.71,1-82.79,3.35a18.31,18.31,0,0,0-16.73,16.26c-3.8,34.94-3.49,93.85,1.22,111.85,4.66,17.81,157,69.6,232,69.6a113.42,113.42,0,0,0,17.3-1.17,18.3,18.3,0,0,0,15.18-15.13c4.5-27.41,13.94-101.19-3.07-159.1a18.45,18.45,0,0,0-14.37-13c-25.52-4.64-76.34-12.64-148.72-12.64Z"/><path class="cls-4" d="M831.65,439.42c-30.3,0-55.42-26.79-56-59.73-.59-33.47,24-61.14,54.77-61.68h.93c30.29,0,55.41,26.8,56,59.73.58,33.47-24,61.14-54.78,61.69Z"/><path class="cls-39" d="M831.36,324.58c12.8,0,25,5.4,34.23,15.19a57.89,57.89,0,0,1,1.08,77c-9.09,10.16-21.25,15.88-34.22,16.1h-.81c-12.8,0-25-5.39-34.23-15.19a57.92,57.92,0,0,1-1.08-77c9.09-10.15,21.25-15.87,34.22-16.1h.81m0-13.16h-1c-34.48.6-61.9,31.22-61.24,68.38.64,36.79,28.56,66.2,62.56,66.2h1c34.48-.61,61.9-31.23,61.25-68.38-.65-36.79-28.57-66.2-62.57-66.2Z"/><path class="cls-4" d="M1068.31,437.87c-30.3,0-55.42-26.79-56-59.73a63,63,0,0,1,15.77-43.39c10.33-11.53,24.18-18,39-18.29h.93c30.29,0,55.41,26.8,56,59.73.59,33.47-24,61.14-54.77,61.69Z"/><path class="cls-39" d="M1068,323c12.8,0,25,5.4,34.23,15.19a56.58,56.58,0,0,1,15.18,38.08c.52,29.84-21.15,54.51-48.32,55h-.8c-12.81,0-25-5.39-34.24-15.19A56.51,56.51,0,0,1,1018.9,378c-.53-29.84,21.14-54.51,48.31-55h.81m0-13.16h-1c-34.48.61-61.9,31.22-61.24,68.38.64,36.79,28.56,66.2,62.56,66.2h1c34.48-.61,61.9-31.22,61.25-68.38-.65-36.79-28.57-66.2-62.57-66.2Z"/><ellipse class="cls-40" cx="884.3" cy="549.57" rx="10.21" ry="22.1" transform="translate(-9.52 15.63) rotate(-1.01)"/><path class="cls-41" d="M986,563.05c34.85,4.5,187,70.7,187,70.7s9.18,195.76,3.66,208c-2.18,14.31-2.12,32.2-33.71,65.43-10.48,5.65-14.38,19.65-228.65,24.11"/><path class="cls-41" d="M863.41,559.11s-190,3.52-197.84,7.28c0,0-3.57,163-1.73,172.65"/><ellipse class="cls-42" cx="1067.69" cy="350.6" rx="23.29" ry="27.68" transform="translate(-6 18.82) rotate(-1.01)"/><ellipse class="cls-42" cx="832.25" cy="349.48" rx="23.29" ry="27.68" transform="translate(-6.01 14.68) rotate(-1.01)"/><path class="cls-43" d="M919.55,708.93l187.12-7.66a13.94,13.94,0,0,1,14.51,14.14l-1.72,111.12a13.93,13.93,0,0,1-13.37,13.71l-187.33,7.69a13.94,13.94,0,0,1-14.5-14.17l1.93-111.15A13.93,13.93,0,0,1,919.55,708.93Z"/><path class="cls-44" d="M916.64,714.39l187.52-8.07a10.83,10.83,0,0,1,11.3,11L1113.74,829a10.83,10.83,0,0,1-10.36,10.66L915.88,848a10.85,10.85,0,0,1-11.32-11l1.7-112A10.85,10.85,0,0,1,916.64,714.39Z"/><path class="cls-45" d="M1038.33,765.58l-115.41,3.91a7,7,0,0,1-7.13-6.8l.76-32.85a7,7,0,0,1,6.8-7.14l115.41-3.91a7,7,0,0,1,7.14,6.81l-.77,32.85A7,7,0,0,1,1038.33,765.58Z"/><ellipse class="cls-46" cx="942.35" cy="745.7" rx="13.49" ry="16.86" transform="translate(-6.55 8.35) rotate(-0.51)"/><ellipse class="cls-47" cx="983.05" cy="743.98" rx="13.49" ry="16.86" transform="translate(-6.53 8.71) rotate(-0.51)"/><ellipse class="cls-48" cx="1022.93" cy="743.49" rx="13.49" ry="16.86" transform="translate(-6.52 9.06) rotate(-0.51)"/><path class="cls-49" d="M1015.59,794.51,924.73,798a7.28,7.28,0,0,1-7.41-7.09h0a7.28,7.28,0,0,1,7.1-7.41l90.86-3.49a7.28,7.28,0,0,1,7.41,7.1h0A7.28,7.28,0,0,1,1015.59,794.51Z"/><path class="cls-50" d="M964.42,840.27l-40.36,1.31a7.27,7.27,0,0,1-7.41-7.09h0a7.28,7.28,0,0,1,7.1-7.41l40.36-1.31a7.26,7.26,0,0,1,7.4,7.09h0A7.28,7.28,0,0,1,964.42,840.27Z"/><path class="cls-50" d="M964.73,819.92l-40.36,1.32a7.28,7.28,0,0,1-7.41-7.1h0a7.28,7.28,0,0,1,7.1-7.41l40.36-1.31a7.28,7.28,0,0,1,7.41,7.1h0A7.28,7.28,0,0,1,964.73,819.92Z"/><polygon class="cls-51" points="1058.53 719.09 1113.73 716.4 1111.98 829.88 1056.22 831.93 1058.53 719.09"/><ellipse class="cls-52" cx="1104.34" cy="729.47" rx="6.98" ry="6.03" transform="translate(357.9 1822.41) rotate(-89.12)"/><path class="cls-53" d="M1104.44,722.49s2.53,8.67-.6,14"/><path class="cls-53" d="M1098.31,729.38s7.7,1.92,12,.19"/><ellipse class="cls-54" cx="1064.73" cy="822.17" rx="6.98" ry="6.03" transform="translate(226.21 1874.07) rotate(-89.12)"/><path class="cls-53" d="M1064.83,815.19s2.53,8.67-.6,13.95"/><path class="cls-53" d="M1058.7,822.08s7.7,1.92,12,.18"/><ellipse class="cls-55" cx="1104.01" cy="820.45" rx="6.98" ry="6.03" transform="translate(266.61 1911.66) rotate(-89.12)"/><path class="cls-53" d="M1104.12,813.47s2.53,8.67-.61,14"/><path class="cls-53" d="M1098,820.36s7.7,1.92,12,.19"/><ellipse class="cls-56" cx="1070.13" cy="730.54" rx="6.98" ry="6.03" transform="translate(323.16 1789.27) rotate(-89.12)"/><path class="cls-53" d="M1070.24,723.56s2.53,8.67-.6,14"/><path class="cls-53" d="M1064.11,730.45s7.7,1.92,12.05.18"/><path class="cls-57" d="M917.32,790.9s15.78-4.72,30.43.47,15.52-8,22.34-7.7,8.25,10.3,17.52,9.43,6.27-4.47,10.66-4.38,4.33,4.68,8.48,4.2,6.11-13.29,8.53-12.92"/><path class="cls-7" d="M928.81,976.77a96.41,96.41,0,0,0-4-15.87c-7.42-21.61-30.44-87-50.41-126.06-11.76-23-19-38.8-25.05-50.57a100.88,100.88,0,0,0-29.48-34.57c-8.22-6.09-17.66-12.94-31.75-17.81-18.38-6.36-38-5.47-57.12-2-47.73,8.5-73.42,10.49-82.71,13.82-9,6.7-47,50.06-48.28,85.46-.91,25.54,2.48,60.14,21.47,86.77s96.29,154.81,127.93,156.26c36.93,1.68,131.26-7.23,158-28.33C931.42,1024.89,933,1002,928.81,976.77Z"/><path class="cls-8" d="M762,1067.55c-16.89,0-35.26-4.78-51.47-9l-6.53-1.68c-13.12-3.35-48.14-24.78-89.2-54.59-40.08-29.09-72.65-56.55-81-68.32-18.47-25.89-21.33-59.69-20.48-83.48.47-13.25,6.66-26.79,18.38-40.23,9.74-11.17,20.65-19.22,25.89-23.08l1.15-.85,2.25-1.71c9.34-7.12,31.2-23.8,63.92-32.2a96.92,96.92,0,0,1,24.07-3.06,91.52,91.52,0,0,1,30,5c13.72,4.75,22.92,11.57,30.32,17.06a96.17,96.17,0,0,1,27.91,32.73c2.71,5.23,5.69,11.37,9.15,18.48,4.18,8.62,9.39,19.34,15.89,32.06,20,39.11,43.41,105.85,50.11,125.37a91.57,91.57,0,0,1,3.83,15c4.07,24.8,2.31,44.84-19.46,62-9,7.07-20.32,10.51-34.67,10.51Z"/><path d="M648.89,754.69a86.29,86.29,0,0,1,28.24,4.69c13,4.48,21.79,11,28.89,16.3a90.71,90.71,0,0,1,26.35,30.91c2.69,5.17,5.65,11.28,9.09,18.35,4.19,8.64,9.41,19.39,15.94,32.16,19.82,38.79,43.14,105.23,49.82,124.67a87.53,87.53,0,0,1,3.6,14.13c2.19,13.33,2.2,23.05,0,31.51-2.49,9.79-8.23,18.11-17.53,25.44-8,6.3-18.26,9.37-31.38,9.37-16.21,0-34.23-4.69-50.12-8.83-2.23-.58-4.42-1.15-6.57-1.69-12.32-3.15-47.44-24.74-87.38-53.74-39-28.34-71.86-55.93-79.83-67.1-9.71-13.61-21-38.58-19.49-80.19.43-12,6.17-24.42,17.06-36.91,9.36-10.73,20-18.54,25-22.3l1.17-.86,2.31-1.75c9.08-6.92,30.34-23.14,62-31.27a91.53,91.53,0,0,1,22.74-2.89m0-10.67a102.57,102.57,0,0,0-25.39,3.22c-36.79,9.44-60.4,29.12-68,34.8-9,6.69-46.3,32.85-47.56,68.25-.92,25.54,2.47,60.15,21.47,86.77s142.57,117.15,173.26,125c18.1,4.61,39.4,10.85,59.32,10.85,13.84,0,27-3,38-11.66,24-18.94,25.56-41.85,21.42-67.06a96.55,96.55,0,0,0-4-15.86c-7.42-21.61-30.44-87-50.41-126.07-11.76-23-18.95-38.79-25-50.56a100.88,100.88,0,0,0-29.48-34.57c-8.22-6.1-17.66-12.94-31.75-17.81A96.9,96.9,0,0,0,648.89,744Z"/><ellipse class="cls-9" cx="596.06" cy="868.34" rx="56.79" ry="71.07" transform="matrix(1, -0.03, 0.03, 1, -27.86, 19.8)"/><ellipse class="cls-9" cx="671.67" cy="967.03" rx="40.68" ry="50.92" transform="translate(-31.03 22.3) rotate(-1.86)"/><ellipse class="cls-9" cx="753.99" cy="1004.44" rx="32.01" ry="40.07" transform="translate(-32.2 24.99) rotate(-1.86)"/><ellipse class="cls-10" cx="592.43" cy="868.45" rx="19.31" ry="26.55" transform="translate(-27.87 19.68) rotate(-1.86)"/><ellipse class="cls-10" cx="669.93" cy="969.11" rx="22.93" ry="16.67" transform="translate(-418.07 1421.04) rotate(-77.9)"/><ellipse class="cls-10" cx="754.08" cy="1007.17" rx="16.99" ry="12.35" transform="translate(-388.78 1533.39) rotate(-77.9)"/><path class="cls-11" d="M774.59,950s-9.36-18-36.92-8.49c-5.23-11.68-16.25-43.37-65.4-38.85,2.22-11,20.73-58.59-16.72-104.4,14.31-6.69,23.15-11.13,41.85,11.09S776.48,944.36,774.59,950Z"/><line class="cls-12" x1="849.02" y1="783.72" x2="738.9" y2="796.39"/><line class="cls-12" x1="784.63" y1="730.8" x2="662.04" y2="744.89"/><polyline class="cls-12" points="644.57 746.9 612.03 750.64 612.02 750.64"/><line class="cls-12" x1="882.08" y1="850.85" x2="772.38" y2="863.46"/><line class="cls-12" x1="909.27" y1="917.61" x2="799.98" y2="930.17"/><line class="cls-12" x1="930.15" y1="986.92" x2="822.12" y2="999.35"/><ellipse class="cls-58" cx="1107.12" cy="618.66" rx="5.69" ry="18.62" transform="translate(302.16 1598.71) rotate(-79.8)"/><path class="cls-59" d="M883.23,96.16s-9.05,156.48,3,183.87l-20,1.39s-8.52-163.75-1.46-177.22Z"/><path class="cls-60" d="M864.34,281.46,886,280.1a6,6,0,0,1,6.23,4.57l9.2,37.48a6,6,0,0,1-5.54,7.45l-36.26,1.86a6,6,0,0,1-6.27-6.86l5.39-38A6,6,0,0,1,864.34,281.46Z"/><g class="cls-2"><path class="cls-20" d="M626.54,742.49c-.21,1.1-.47,2.36-.77,3.79-.83,4-4.36,4.76-8.56,1.88-13-8.89-38.3-30.75-50-42.39A26.15,26.15,0,0,1,560,691.92a38.42,38.42,0,0,1,.12-12.79,21.08,21.08,0,0,1,5.92-11.42c.52-.5,3.92-.89,5.1-.39l9.89,1.59.81,7.83-.79,0c12.57,14.85,32.62,40.15,40.62,50.87C625.33,732.44,627.32,738.57,626.54,742.49Z"/><path class="cls-21" d="M572.08,681.27a38.42,38.42,0,0,0-.12,12.79,26.17,26.17,0,0,0,7.23,13.85c11.65,11.64,37,33.5,49.95,42.39,4.2,2.88,7.73,2.11,8.56-1.88.3-1.43.56-2.69.77-3.79.78-3.92-1.21-10-4.84-14.92-9-12.05-33.2-42.52-44.92-55.86-4-4.56-8.41-6.22-10.71-4A21,21,0,0,0,572.08,681.27Z"/></g><path class="cls-13" d="M619.93,783.07c20.37,12.36,50,13.55,66,2.63a10.78,10.78,0,0,0,1.12-.87L791.56,683.57a10.74,10.74,0,0,0,4.24-7.85l0,0,3.13-38.4-19.78,5.11-6.64,7.91c-1-.7,7.29,5.52,6.21,4.86-6.67-4-1.7-1.28-10.45-3.29-8.25-1.88-16.82-.93-22.38,2.5L644.61,718.39h0l-39.16.51-3.69,34.4-.29,2.71a2.36,2.36,0,0,0,0,.46C601.31,765.7,607.71,775.64,619.93,783.07Z"/><path class="cls-13" d="M601.46,756l.29-2.71A16.28,16.28,0,0,0,601.46,756Z"/><path class="cls-14" d="M624,746.55c20.38,12.38,50,13.56,66,2.64.4-.28.77-.56,1.12-.86L795.65,647.06c4.73-3.9,5.57-9.51,2.18-14.63s-16.68-15-25.43-17c-8.25-1.89-16.82-.94-22.38,2.5L615.9,702.57c-.51.31-.91.58-1.27.84C599.46,714.84,603.67,734.19,624,746.55Z"/><g class="cls-2"><ellipse class="cls-15" cx="656.52" cy="724.09" rx="26.27" ry="18" transform="translate(-66.18 66.04) rotate(-5.48)"/></g><path class="cls-20" d="M561.38,700.9c1.08,2.07,2.61,4.59,4.36,7.31,3.54,5.51,8,11.86,11.74,17a116.18,116.18,0,0,0,10,12.06c7.36,7.3,21.41,20.45,26.34,24.85,1,.84,1.39,1,1.33.51l.14.17,13-10.43-54.51-63.24-13,10.46.15.16h0A4.05,4.05,0,0,0,561.38,700.9Z"/><path class="cls-21" d="M578.49,698.11c3.22,5.72,7.34,12.31,10.74,17.61a114.13,114.13,0,0,0,9.25,12.62c6.93,7.72,20.19,21.66,24.86,26.34,1.82,1.82,1.7.66-.27-2.83l-.22-.39c-.62-1.06-1.32-2.29-2.13-3.69a131.18,131.18,0,0,0-9.21-13.55c-9.74-12.52-27.22-34-34.68-42.73-2.4-2.82-3.29-3.19-2.27-.93S576.9,695.3,578.49,698.11Z"/><g class="cls-2"><path class="cls-20" d="M616.05,727.65a126.32,126.32,0,0,0,7.06,20.66c1.7,3.57,6.76,6.85,12.33,8l5.24,1.05.54.1c5.14.88,9.54-.36,10.74-3.12,3.09-7.07,9.12-26.31,10.44-35.74.45-3.22-2.9-7.09-8.17-9.39a96.74,96.74,0,0,0-22-6.83,62.6,62.6,0,0,0-12.8-1c-2.91.1-5.12,1-6.29,2.41,0,0-.37.81-.93,2.15h0c-1.78,4.26-5.47,13.72-5.43,18.65C606.76,728,611.51,728.23,616.05,727.65Z"/><path class="cls-21" d="M626.78,721.28A62.92,62.92,0,0,0,614,719.87c-4.57,0-7.48,2-7.41,5,.21,9.56,4.64,30.79,9.47,42,1.57,3.63,6.52,7.09,12,8.42l5.2,1.24.53.12c5.1,1.06,9.54,0,10.85-2.74,3.34-7,10-26,11.7-35.34.57-3.21-2.64-7.19-7.82-9.68A96.85,96.85,0,0,0,626.78,721.28Z"/></g><g class="cls-2"><path class="cls-20" d="M680.36,762.13a18.06,18.06,0,0,0,3.42-.78c5.64-1.93,15.68-5.73,25.53-9.68l17.11,10.93,8.37-23.31,0-.11.07-.28c.28-1.35-.51-2.79-2.36-4.08C727,731,717.44,726,703.14,723.72l-1.21-.18c-5.22-.78-10.48-.08-13.43,1.78-9.15,5.81-25,19.37-30.48,26.93v0c0,.06-.17.34-.41.79a.07.07,0,0,1,0,.06c-1.88,3.73-7.82,20.74-7.56,24.48C650.22,780.61,668.63,768.27,680.36,762.13Z"/><path class="cls-21" d="M695.32,746.68l-1.21-.16c-5.24-.66-10.49.16-13.39,2.09-9,6-24.58,19.92-29.87,27.6-1.71,2.5.6,5.37,5.62,7l4.74,1.53a24.17,24.17,0,0,0,4,.89,25.42,25.42,0,0,0,11.56-.9c10.58-3.87,36.71-14.8,47.71-20.43,3.76-1.93,3.94-4.88.44-7.17C719.32,753.43,709.67,748.68,695.32,746.68Z"/></g><g class="cls-2"><polygon points="849 51.14 844.05 64.28 842.33 64.53 847.28 51.39 849 51.14"/><g class="cls-2"><g class="cls-61"><g class="cls-2"><path d="M847.28,51.39l-4.95,13.14c-2.69.4-5.53.91-8.43,1.51s-5.69,1.3-8.3,2.09-5.07,1.61-7.27,2.47-4.09,1.66-5.56,2.35l5-13.15c1.47-.69,3.29-1.45,5.55-2.34s4.66-1.7,7.27-2.48,5.43-1.48,8.31-2.08,5.73-1.11,8.43-1.51"/></g></g></g><g class="cls-2"><g class="cls-62"><g class="cls-2"><path d="M817.72,59.8l-5,13.15a31.86,31.86,0,0,0-9.2,6.53,28.71,28.71,0,0,0-5,7.14c-.3.62-.55,1.23-.77,1.81l5-13.15c.22-.58.47-1.18.77-1.8a28.71,28.71,0,0,1,5-7.14,32.07,32.07,0,0,1,9.2-6.54"/></g></g></g><polygon points="849.66 99.65 844.71 112.8 844.54 112.79 849.49 99.65 849.66 99.65"/><g class="cls-2"><g class="cls-63"><g class="cls-2"><path d="M908.62,121.34l-5,13.14a32.72,32.72,0,0,0-.48-18.55c-2-6.67-6.31-14-12.88-21.85S877.1,80.51,870.57,77a47,47,0,0,0-19.44-5.79l-1.36,0c-.51,0-1,0-1.53,0l5-13.14c.51,0,1,0,1.53,0l1.36.06a46.91,46.91,0,0,1,19.44,5.79c6.53,3.49,13.17,9.23,19.74,17.06s10.9,15.18,12.88,21.84a32.76,32.76,0,0,1,.48,18.56"/><path d="M853.19,58l-5,13.14A50,50,0,0,0,831.81,74a111.54,111.54,0,0,0-19.16,8.86,15.54,15.54,0,0,0-3.88,3.66c-1.57,1.93-3.1,3.78-4.58,5.58A46.32,46.32,0,0,1,800,96.67a4.75,4.75,0,0,1-3.09,1.45l5-13.15a4.69,4.69,0,0,0,3.09-1.44A45.42,45.42,0,0,0,809.14,79c1.48-1.79,3-3.64,4.58-5.57a15.38,15.38,0,0,1,3.88-3.66,111.6,111.6,0,0,1,19.16-8.87A50,50,0,0,1,853.19,58"/><path d="M801.82,85l-5,13.15h-.11l5-13.15h.11"/></g></g></g><g class="cls-2"><g class="cls-64"><g class="cls-2"><path class="cls-39" d="M863.64,113.34l-4.95,13.14a7.42,7.42,0,0,0-.1-4.6,17.62,17.62,0,0,0-3.56-5.83,20.86,20.86,0,0,0-5.36-4.8,11.94,11.94,0,0,0-5.15-1.66l-.28,0h-.32l5-13.14h.6a12.14,12.14,0,0,1,5.15,1.67,20.67,20.67,0,0,1,5.36,4.8,17.87,17.87,0,0,1,3.56,5.82,7.45,7.45,0,0,1,.1,4.61"/></g></g></g><g class="cls-2"><g class="cls-65"><g class="cls-2"><path d="M860.08,112.07l-5,13.14a4.64,4.64,0,0,0-.11-2.88,14.69,14.69,0,0,0-2.88-4.6,17.06,17.06,0,0,0-4.22-3.85,7.67,7.67,0,0,0-3.21-1.08l4.95-13.15a7.84,7.84,0,0,1,3.21,1.09,16.66,16.66,0,0,1,4.22,3.85,14.69,14.69,0,0,1,2.88,4.6,4.64,4.64,0,0,1,.11,2.88"/></g></g></g><g class="cls-2"><g class="cls-66"><g class="cls-2"><path d="M860.06,112.15l-4.95,13.14a.24.24,0,0,0,0-.08l5-13.14s0,.05,0,.08"/></g></g></g><g class="cls-2"><g class="cls-67"><g class="cls-2"><path class="cls-39" d="M863.59,113.47l-5,13.15a1.21,1.21,0,0,0,.05-.14l4.95-13.14a.69.69,0,0,1,0,.13"/></g></g></g><g class="cls-2"><g class="cls-68"><g class="cls-2"><path d="M849.49,99.65l-5,13.14h-.18l4.95-13.14h.18"/><path d="M849.31,99.65l-4.95,13.14a6.58,6.58,0,0,0-2.7.63c-1.29.59-2.56,1.25-3.79,2a41.6,41.6,0,0,0-3.59,2.33,4.39,4.39,0,0,0-1.62,2l5-13.14a4.39,4.39,0,0,1,1.62-2,39.36,39.36,0,0,1,3.59-2.33c1.23-.71,2.49-1.36,3.79-2a6.58,6.58,0,0,1,2.7-.63"/></g></g></g><path d="M911.71,102.35a35.52,35.52,0,0,1,.51,20.12,40.74,40.74,0,0,1-10.28,17.08,86.89,86.89,0,0,1-18.75,14.23,92.88,92.88,0,0,1-27,10.75,62,62,0,0,1-14.48,1.32A62.89,62.89,0,0,1,829,164.16c-9-2.14-18.26-6.55-27.49-13.09s-18.59-15.52-28.09-26.84c-10.46-12.48-17.8-23.87-21.79-33.85S746.2,71.07,747.49,63a41.28,41.28,0,0,1,11.07-22,99.59,99.59,0,0,1,23-17.68A127.91,127.91,0,0,1,799,14.69,111,111,0,0,1,813.72,10a72,72,0,0,1,12-1.85c3.35-.2,6.31-.33,8.82-.4l1.64,0L849,51.14l-1.72.25c-2.7.4-5.53.91-8.43,1.51s-5.69,1.3-8.31,2.08-5.06,1.62-7.27,2.48-4.08,1.65-5.55,2.34a32.07,32.07,0,0,0-9.2,6.54,28.71,28.71,0,0,0-5,7.14,16.72,16.72,0,0,0-1.74,5.9,8.35,8.35,0,0,0,.09,2,43.7,43.7,0,0,0,4.21-4.47q2.22-2.68,4.56-5.55A18,18,0,0,1,815.3,67,115.59,115.59,0,0,1,835,57.89a53.68,53.68,0,0,1,19.44-3.06l1.39.05a51.17,51.17,0,0,1,21.3,6.31c7,3.76,14.09,9.84,21,18.07S909.6,95.24,911.71,102.35Zm-3.09,19a32.76,32.76,0,0,0-.48-18.56c-2-6.66-6.31-14-12.88-21.84s-13.21-13.57-19.74-17.06a46.91,46.91,0,0,0-19.44-5.79L854.72,58a49.8,49.8,0,0,0-18,2.86,111.6,111.6,0,0,0-19.16,8.87,15.38,15.38,0,0,0-3.88,3.66c-1.57,1.93-3.1,3.78-4.58,5.57a45.42,45.42,0,0,1-4.23,4.54,4.69,4.69,0,0,1-3.2,1.44,3.62,3.62,0,0,1-2.55-1.26c-.88-1-1.23-2.59-1.1-4.88A19.41,19.41,0,0,1,800,72a31.51,31.51,0,0,1,5.5-7.83,35,35,0,0,1,10.11-7.19c1.56-.73,3.44-1.53,5.78-2.45s4.83-1.76,7.55-2.56,5.63-1.55,8.61-2.16q3.55-.75,6.92-1.29L833.43,11.05q-3.15.12-7.07.34a69.65,69.65,0,0,0-11.29,1.76,104.22,104.22,0,0,0-14.23,4.51,126.47,126.47,0,0,0-17,8.39,96.9,96.9,0,0,0-22.28,17.14,38.68,38.68,0,0,0-10.37,20.59c-1.22,7.61.11,16.33,3.94,25.88s11,20.72,21.21,32.89c9.27,11.06,18.47,19.85,27.31,26.12s17.48,10.39,25.93,12.4a58.06,58.06,0,0,0,11.81,1.56,56.78,56.78,0,0,0,13.54-1.24,89.22,89.22,0,0,0,26-10.35A84.69,84.69,0,0,0,899,137.3a37.91,37.91,0,0,0,9.62-16"/><path d="M860,102.91a17.87,17.87,0,0,1,3.56,5.82,7.45,7.45,0,0,1,.1,4.61,7.29,7.29,0,0,1-2.74,3.47,41.74,41.74,0,0,1-3.78,2.45,43.24,43.24,0,0,1-4.18,2.16,10.15,10.15,0,0,1-4.42.9l-.35,0a12,12,0,0,1-5.15-1.66,20.62,20.62,0,0,1-5.36-4.8A17.55,17.55,0,0,1,834.1,110a7.41,7.41,0,0,1-.09-4.6,7.17,7.17,0,0,1,2.63-3.41,42.21,42.21,0,0,1,3.88-2.52c1.31-.76,2.68-1.46,4.08-2.1a10.51,10.51,0,0,1,4.59-.95h.28a12.14,12.14,0,0,1,5.15,1.67A20.67,20.67,0,0,1,860,102.91Zm.1,9.16a4.64,4.64,0,0,0-.11-2.88,14.69,14.69,0,0,0-2.88-4.6,16.66,16.66,0,0,0-4.22-3.85,7.84,7.84,0,0,0-3.21-1.09h-.17a6.46,6.46,0,0,0-2.88.63c-1.3.59-2.56,1.24-3.79,2a39.36,39.36,0,0,0-3.59,2.33,4.35,4.35,0,0,0-1.66,2.12,4.57,4.57,0,0,0,.11,2.88,14.42,14.42,0,0,0,2.88,4.6,16.59,16.59,0,0,0,4.2,3.85,7.61,7.61,0,0,0,3.22,1.08h.23a6.11,6.11,0,0,0,2.73-.58,41.45,41.45,0,0,0,3.88-2,40.87,40.87,0,0,0,3.51-2.28,4.58,4.58,0,0,0,1.75-2.17"/><path class="cls-18" d="M908.14,102.78a32.76,32.76,0,0,1,.48,18.56,37.91,37.91,0,0,1-9.62,16A84.69,84.69,0,0,1,880.89,151a89.22,89.22,0,0,1-26,10.35,56.78,56.78,0,0,1-13.54,1.24,58.06,58.06,0,0,1-11.81-1.56c-8.45-2-17.18-6.18-25.93-12.4s-18-15.06-27.31-26.12C766.09,110.38,759,99.31,755.1,89.66s-5.16-18.27-3.94-25.88a38.68,38.68,0,0,1,10.37-20.59,96.9,96.9,0,0,1,22.28-17.14,126.47,126.47,0,0,1,17-8.39,104.22,104.22,0,0,1,14.23-4.51,69.65,69.65,0,0,1,11.29-1.76q3.92-.23,7.07-.34L844.5,48.48q-3.36.54-6.92,1.29c-3,.61-5.89,1.34-8.61,2.16s-5.25,1.67-7.55,2.56-4.22,1.72-5.78,2.45a35,35,0,0,0-10.11,7.19A31.51,31.51,0,0,0,800,72a19.41,19.41,0,0,0-2,6.87c-.13,2.29.22,3.84,1.1,4.88A3.48,3.48,0,0,0,801.41,85a4.77,4.77,0,0,0,3.5-1.42A45.42,45.42,0,0,0,809.14,79c1.48-1.79,3-3.64,4.58-5.57a15.38,15.38,0,0,1,3.88-3.66,111.6,111.6,0,0,1,19.16-8.87,49.8,49.8,0,0,1,18-2.86l1.36.06a46.91,46.91,0,0,1,19.44,5.79c6.53,3.49,13.17,9.23,19.74,17.06S906.16,96.12,908.14,102.78Zm-44.5,10.56a7.45,7.45,0,0,0-.1-4.61,17.87,17.87,0,0,0-3.56-5.82,20.67,20.67,0,0,0-5.36-4.8,12.14,12.14,0,0,0-5.15-1.67h-.28a10.51,10.51,0,0,0-4.59.95c-1.4.64-2.77,1.34-4.08,2.1a42.21,42.21,0,0,0-3.88,2.52,7.17,7.17,0,0,0-2.63,3.41,7.41,7.41,0,0,0,.09,4.6,17.55,17.55,0,0,0,3.56,5.83,20.62,20.62,0,0,0,5.36,4.8,12,12,0,0,0,5.15,1.66l.35,0a10.15,10.15,0,0,0,4.42-.9,43.24,43.24,0,0,0,4.18-2.16,41.74,41.74,0,0,0,3.78-2.45,7.29,7.29,0,0,0,2.74-3.47"/><g class="cls-2"><g class="cls-69"><g class="cls-2"><path d="M911.33,125.16l-5,13.14A41.86,41.86,0,0,1,897,152.69a87.22,87.22,0,0,1-18.76,14.23,92.38,92.38,0,0,1-27,10.75A61.41,61.41,0,0,1,838.68,179l5-13.14a61.24,61.24,0,0,0,12.55-1.34,92.88,92.88,0,0,0,27-10.75,86.89,86.89,0,0,0,18.75-14.23,41.75,41.75,0,0,0,9.39-14.39"/><path d="M843.63,165.87l-5,13.14c-.65,0-1.29,0-1.93,0A62.19,62.19,0,0,1,824,177.3c-9-2.14-18.26-6.55-27.49-13.09S778,148.69,768.46,137.37c-10.46-12.48-17.8-23.86-21.79-33.85s-5.42-19.31-4.13-27.42a39.11,39.11,0,0,1,2-7.73l4.95-13.14a39.11,39.11,0,0,0-2,7.73c-1.29,8.11.1,17.34,4.13,27.42s11.33,21.37,21.79,33.85c9.5,11.32,19,20.35,28.09,26.84S820,162,829,164.16a62.89,62.89,0,0,0,12.71,1.69c.64,0,1.28,0,1.93,0"/></g></g></g></g><g class="cls-2"><g class="cls-2"><g class="cls-70"><g class="cls-2"><path d="M653.2,377.16l-5,13.15a9.29,9.29,0,0,0-2.1-6.53,10.35,10.35,0,0,0-6-3.74,11.52,11.52,0,0,0-2.26-.3h-.32l5-13.14h.31a11.51,11.51,0,0,1,2.27.3,10.35,10.35,0,0,1,6,3.74,9.27,9.27,0,0,1,2.1,6.52"/><path d="M642.48,366.59l-5,13.14A8.9,8.9,0,0,0,633,381a7.73,7.73,0,0,0-3.45,4l5-13.14a7.68,7.68,0,0,1,3.45-4,8.9,8.9,0,0,1,4.57-1.27"/></g></g></g><g class="cls-2"><g class="cls-71"><g class="cls-2"><path d="M647.25,396.62l-5,13.14.34-.91c1.32-3.58,2.47-7.07,3.4-10.37s1.7-6,2.21-8.17l5-13.15c-.51,2.14-1.26,4.89-2.21,8.18s-2.08,6.79-3.4,10.37c-.11.3-.23.6-.34.91"/></g></g></g><polygon points="630.52 394.04 625.57 407.18 594.11 399.89 599.06 386.75 630.52 394.04"/><polygon points="599.06 386.75 594.11 399.89 582 384.28 586.95 371.14 599.06 386.75"/><g class="cls-2"><g class="cls-72"><g class="cls-2"><path d="M698.06,412.12l-4.95,13.14c-1.19,3.16-2.43,6.16-3.7,9a103.88,103.88,0,0,1-6.88,13,48.94,48.94,0,0,1-5.85,7.79l5-13.14a48.87,48.87,0,0,0,5.84-7.79,103.92,103.92,0,0,0,6.89-13c1.27-2.82,2.51-5.82,3.7-9"/></g></g></g><polygon points="680.6 442.89 675.65 456.03 632.92 428.46 637.87 415.31 680.6 442.89"/><polygon points="681.63 441.86 676.68 455 675.65 456.03 680.6 442.89 681.63 441.86"/><path d="M704.31,357.27c2.54,8.2,2.92,17.71,1.12,28.28a130.52,130.52,0,0,1-4.65,18.81,165.73,165.73,0,0,1-6.42,16.73,103.92,103.92,0,0,1-6.89,13,48.87,48.87,0,0,1-5.84,7.79l-1,1-42.73-27.57.92-1.25a45.46,45.46,0,0,0,4.58-8.08c1.5-3.29,2.91-6.75,4.22-10.28s2.47-7.07,3.4-10.37,1.7-6,2.21-8.18a9.27,9.27,0,0,0-2.1-6.52,10.35,10.35,0,0,0-6-3.74,11.51,11.51,0,0,0-2.27-.3,8.8,8.8,0,0,0-4.88,1.26,7.73,7.73,0,0,0-3.9,5.68L630.52,394l-31.46-7.29L587,371.14l-6.55,38.33L529,397.56l17.44-102.19L583,303.85l22.42,23.63a53.69,53.69,0,0,1,22-12.11,55.32,55.32,0,0,1,16.91-2.09,65.65,65.65,0,0,1,12.89,1.7,73.88,73.88,0,0,1,18.49,7.3,62.51,62.51,0,0,1,17.18,14A57.92,57.92,0,0,1,704.31,357.27Zm-2.55,27.44c1.73-10.14,1.39-19.21-1-27A54.32,54.32,0,0,0,690.05,338a58.15,58.15,0,0,0-16-13,69.27,69.27,0,0,0-17.35-6.85,60.6,60.6,0,0,0-12-1.59A51.33,51.33,0,0,0,629,318.45a50,50,0,0,0-22,12.63l-1.35,1.35L581.2,306.65l-31.59-7.32-16.4,96,44.07,10.22,7.31-42.85L601.13,384l26.25,6.08,3-17.38a10.47,10.47,0,0,1,5.22-7.57,12.52,12.52,0,0,1,6.87-1.75,15.86,15.86,0,0,1,3.14.42,14.69,14.69,0,0,1,8.49,5.25,12.61,12.61,0,0,1,2.83,8.79c-.57,2.42-1.34,5.25-2.31,8.63s-2.12,6.9-3.46,10.55-2.77,7.12-4.29,10.46a52.37,52.37,0,0,1-4,7.29l36.82,23.75a59.26,59.26,0,0,0,4.51-6.27,100.74,100.74,0,0,0,6.7-12.65,162.75,162.75,0,0,0,6.32-16.46,127.21,127.21,0,0,0,4.55-18.43"/><path class="cls-18" d="M549.61,299.33l31.59,7.32,24.45,25.78,1.35-1.35a50,50,0,0,1,22-12.63,51.33,51.33,0,0,1,15.71-1.94,60.6,60.6,0,0,1,12,1.59A69.27,69.27,0,0,1,674.05,325a58,58,0,0,1,16,13,54.32,54.32,0,0,1,10.69,19.78c2.41,7.76,2.75,16.83,1,27a127.21,127.21,0,0,1-4.55,18.43,162.75,162.75,0,0,1-6.32,16.46,100.74,100.74,0,0,1-6.7,12.65,59.26,59.26,0,0,1-4.51,6.27l-36.82-23.75a51.81,51.81,0,0,0,4-7.29c1.52-3.34,3-6.86,4.29-10.46s2.5-7.19,3.46-10.55,1.74-6.21,2.27-8.41a12.61,12.61,0,0,0-2.79-9,14.69,14.69,0,0,0-8.49-5.25,15.86,15.86,0,0,0-3.14-.42,12.52,12.52,0,0,0-6.87,1.75,10.47,10.47,0,0,0-5.22,7.57l-3,17.38L601.13,384l-16.54-21.33-7.31,42.85L533.21,395.3Z"/><polygon points="580.4 409.47 575.45 422.62 524.08 410.7 529.03 397.56 580.4 409.47"/><polygon points="529.03 397.56 524.08 410.7 541.52 308.52 546.47 295.37 529.03 397.56"/></g><g class="cls-2"><polygon points="593.4 589.44 588.45 602.58 587.7 595.38 592.65 582.24 593.4 589.44"/><polygon class="cls-73" points="702.27 618.37 697.32 631.52 682.68 648.82 687.63 635.68 702.27 618.37"/><g class="cls-2"><g class="cls-74"><g class="cls-2"><path d="M607.85,617.73l-5,13.14a54,54,0,0,1-10.2-13.4,42.13,42.13,0,0,1-4.25-14.89l4.95-13.14a41.81,41.81,0,0,0,4.25,14.88,53.8,53.8,0,0,0,10.2,13.41"/></g></g></g><polygon points="624.37 633.9 619.41 647.05 602.9 630.87 607.85 617.73 624.37 633.9"/><g class="cls-2"><g class="cls-75"><g class="cls-2"><path class="cls-76" d="M654.63,665.42l-4.94,13.14c-.57,1.51-1.21,3-1.9,4.35a57.53,57.53,0,0,1-8.35,12l4.95-13.14a57.53,57.53,0,0,0,8.35-12,44.91,44.91,0,0,0,1.89-4.35"/></g></g></g><g class="cls-2"><g class="cls-77"><g class="cls-2"><path d="M679.41,684.65l-4.95,13.15a80.69,80.69,0,0,1-11.45-13,61.59,61.59,0,0,1-7.21-14.16l5-13.14A61.59,61.59,0,0,0,668,671.68a80.23,80.23,0,0,0,11.45,13"/></g></g></g><polygon points="730.75 694.82 725.8 707.96 684.08 706.78 689.03 693.63 730.75 694.82"/><polygon points="689.03 693.63 684.08 706.78 674.46 697.8 679.41 684.65 689.03 693.63"/><g class="cls-2"><g class="cls-78"><g class="cls-2"><path d="M658.17,666.74l-4.95,13.14a44.58,44.58,0,0,1-2,4.61,59.6,59.6,0,0,1-8.76,12.58l4.95-13.14a59.39,59.39,0,0,0,8.76-12.59,43.48,43.48,0,0,0,2-4.6"/></g></g></g><g class="cls-2"><g class="cls-79"><g class="cls-2"><path d="M609,658.14l-5,13.14a36.24,36.24,0,0,0-6.46,10.55l4.95-13.14A36.24,36.24,0,0,1,609,658.14"/></g></g></g><polygon points="647.39 683.93 642.44 697.07 634.59 705.37 639.54 692.23 647.39 683.93"/><g class="cls-2"><g class="cls-80"><g class="cls-2"><path d="M597.31,683.66l-4.95,13.15a36.81,36.81,0,0,1,1.16-14.75c.16-.51.33-1,.52-1.52l5-13.15c-.19.51-.37,1-.52,1.53a36.76,36.76,0,0,0-1.16,14.74"/></g></g></g><polygon class="cls-81" points="601.43 687.95 596.48 701.09 596.04 696.91 601 683.77 601.43 687.95"/><path class="cls-82" d="M709.86,588.77l.42,4a34.12,34.12,0,0,1-1.06,13.65,34.92,34.92,0,0,1-7,12l-14.64,17.31,25.23,25.38a56,56,0,0,1,9.41,12.49,37.55,37.55,0,0,1,4,13.77l.43,4.18-36.35-1L682,682.62a76.89,76.89,0,0,1-10.89-12.33,58.67,58.67,0,0,1-7-13.77l-4.87-12.78-2.15,12.77a50.88,50.88,0,0,1-4.37,13.26,57.53,57.53,0,0,1-8.35,12L637.56,689l-36.13-1-.44-4.18a34,34,0,0,1,1.06-13.66,34.94,34.94,0,0,1,7-12L629.1,634l-18.61-18.24A50.25,50.25,0,0,1,601,603.33a38.92,38.92,0,0,1-3.92-13.79l-.42-4,36.66,1,.76,1c2.84,3.87,5.4,7.6,7.64,11.07s4.46,7.19,6.62,11l9.23,17.64,5.58-17.17c1.38-3.76,2.86-7.37,4.38-10.74s3.3-6.92,5.34-10.65l.59-1Z"/><path d="M725.6,672.51A40.6,40.6,0,0,1,730,687.43l.77,7.39L689,693.63l-9.62-9a80.23,80.23,0,0,1-11.45-13,61.59,61.59,0,0,1-7.21-14.16,52.71,52.71,0,0,1-4.6,13.82,59.39,59.39,0,0,1-8.76,12.59l-7.85,8.3-41.46-1.17-.77-7.4a36.76,36.76,0,0,1,1.16-14.74A37.5,37.5,0,0,1,605.93,656l18.43-22.14-16.51-16.17a53.8,53.8,0,0,1-10.2-13.41,41.81,41.81,0,0,1-4.25-14.88l-.75-7.2,42.41,1.2,2.05,2.63c2.91,4,5.52,7.76,7.79,11.3s4.53,7.31,6.75,11.22l5,9.47,3-9.2c1.43-3.85,2.93-7.53,4.47-11s3.35-7,5.45-10.88l1.52-2.57,42.18,1.2.75,7.19a36.93,36.93,0,0,1-1.15,14.74,37.64,37.64,0,0,1-7.47,12.89l-13,15.34,23.19,23.34A60.23,60.23,0,0,1,725.6,672.51Zm1.13,19-.43-4.18a37.55,37.55,0,0,0-4-13.77,56,56,0,0,0-9.41-12.49l-25.23-25.38,14.64-17.31a34.92,34.92,0,0,0,7-12,34.12,34.12,0,0,0,1.06-13.65l-.42-4-36.4-1-.59,1c-2,3.73-3.84,7.32-5.34,10.65s-3,7-4.38,10.74l-5.58,17.17-9.23-17.64c-2.16-3.81-4.4-7.52-6.62-11s-4.8-7.2-7.64-11.07l-.76-1-36.66-1,.42,4A38.92,38.92,0,0,0,601,603.33a50.25,50.25,0,0,0,9.49,12.44L629.1,634,609,658.14a34.94,34.94,0,0,0-7,12A34,34,0,0,0,601,683.77l.44,4.18,36.13,1,6.83-7.23a57.53,57.53,0,0,0,8.35-12,50.88,50.88,0,0,0,4.37-13.26l2.15-12.77,4.87,12.78a58.67,58.67,0,0,0,7,13.77A76.89,76.89,0,0,0,682,682.62l8.41,7.85,36.35,1"/><polygon points="639.54 692.23 634.59 705.37 593.13 704.2 598.08 691.05 639.54 692.23"/><polygon points="598.08 691.05 593.13 704.2 592.36 696.81 597.31 683.66 598.08 691.05"/></g><g class="cls-2"><g class="cls-2"><g class="cls-83"><g class="cls-2"><path d="M1236.26,140.52l-5,13.14a3.25,3.25,0,0,0,.21-1.77,4.69,4.69,0,0,0-1.24-2.27c-.88-1-1.84-2-2.82-3s-2-2-3-2.91a6,6,0,0,0-2.41-1.43,5,5,0,0,0-1.19-.16h-.19L1225.6,129h.19a5.6,5.6,0,0,1,1.19.17,6.09,6.09,0,0,1,2.41,1.43c1,.92,2,1.9,3,2.91s1.94,2,2.82,3a4.69,4.69,0,0,1,1.24,2.27,3.26,3.26,0,0,1-.21,1.77"/><path d="M1225.6,129l-4.95,13.14a7.71,7.71,0,0,0-1.46.17,12.75,12.75,0,0,0-4.3,2.22,11,11,0,0,0-3.31,3.21,5.89,5.89,0,0,0-.29.63l5-13.15a6.81,6.81,0,0,1,.29-.62,11.09,11.09,0,0,1,3.31-3.22,12.69,12.69,0,0,1,4.3-2.21,7,7,0,0,1,1.46-.17"/></g></g></g><g class="cls-2"><g class="cls-84"><g class="cls-2"><path d="M1283.68,161l-5,13.14c-.24.64-.5,1.29-.79,1.93-2.58,5.72-7.75,11.37-15.35,16.79a39.2,39.2,0,0,1-12.9,6,46,46,0,0,1-11.54,1.43l4.95-13.14a45.49,45.49,0,0,0,11.54-1.44,39.18,39.18,0,0,0,12.9-6c7.6-5.42,12.77-11.08,15.35-16.79.28-.65.55-1.29.79-1.93"/><path d="M1243.1,187.14l-4.95,13.14c-.56,0-1.14,0-1.71,0l5-13.14c.57,0,1.14,0,1.71,0"/></g></g></g><g class="cls-2"><g class="cls-85"><g class="cls-2"><path d="M1192.79,174.19l-5,13.14a3.88,3.88,0,0,0,.21-2.17,7.66,7.66,0,0,0-1.5-3.16,45.05,45.05,0,0,0-7.17-7.27,9.92,9.92,0,0,0-3.41-1.82,6.43,6.43,0,0,0-1.53-.24h-.22l5-13.14h.22a6,6,0,0,1,1.53.24,10.07,10.07,0,0,1,3.41,1.81,41.84,41.84,0,0,1,3.82,3.47,41.36,41.36,0,0,1,3.35,3.81A7.6,7.6,0,0,1,1193,172a3.89,3.89,0,0,1-.21,2.17"/><path d="M1179.17,159.53l-5,13.14a7.78,7.78,0,0,0-1.86.24,15.59,15.59,0,0,0-5.1,2.61,13.49,13.49,0,0,0-3.91,3.82,6.07,6.07,0,0,0-.41.86l5-13.14a6.07,6.07,0,0,1,.41-.86,13.24,13.24,0,0,1,3.91-3.82,15.59,15.59,0,0,1,5.1-2.61,7.78,7.78,0,0,1,1.86-.24"/></g></g></g><path d="M1194.51,167.32a11,11,0,0,1,2.15,4.57,7.09,7.09,0,0,1-.93,4.87,16,16,0,0,1-4.71,4.7,18.69,18.69,0,0,1-6.25,3.13,12,12,0,0,1-3.15.35,10,10,0,0,1-2.66-.42,14.55,14.55,0,0,1-4.91-2.59,47.79,47.79,0,0,1-4.2-3.81,47,47,0,0,1-3.68-4.19,11,11,0,0,1-2.15-4.57,7,7,0,0,1,.93-4.87,15.88,15.88,0,0,1,4.71-4.7,18.88,18.88,0,0,1,6.25-3.13,12.12,12.12,0,0,1,3.13-.35,10.49,10.49,0,0,1,2.67.43,14.23,14.23,0,0,1,4.92,2.59,48.58,48.58,0,0,1,4.2,3.8A46.77,46.77,0,0,1,1194.51,167.32Zm-2.13,7.73a4.28,4.28,0,0,0,.62-3,7.6,7.6,0,0,0-1.5-3.16,41.36,41.36,0,0,0-3.35-3.81,41.84,41.84,0,0,0-3.82-3.47,10.07,10.07,0,0,0-3.41-1.81,6,6,0,0,0-1.53-.24,7.69,7.69,0,0,0-2.08.24,15.59,15.59,0,0,0-5.1,2.61,13.24,13.24,0,0,0-3.91,3.82,4.28,4.28,0,0,0-.62,3,7.43,7.43,0,0,0,1.5,3.16,38.9,38.9,0,0,0,3.35,3.81,42.31,42.31,0,0,0,3.82,3.48,10.46,10.46,0,0,0,3.4,1.8,5.56,5.56,0,0,0,1.53.24,7.81,7.81,0,0,0,2.09-.24,15.59,15.59,0,0,0,5.1-2.61,13.63,13.63,0,0,0,3.91-3.82"/><path class="cls-18" d="M1281.34,145.79a24.86,24.86,0,0,1-1.93,15.66c-2.38,5.28-7.23,10.56-14.42,15.7a35.88,35.88,0,0,1-11.81,5.46,42.94,42.94,0,0,1-12.07,1.29c-.68,0-1.37-.05-2.07-.1l-1.88-.13.11,1.64a34.58,34.58,0,0,1-2.65,16.27,31.47,31.47,0,0,1-10.92,13c-8.09,5.77-15.92,9.34-23.28,10.62a50.6,50.6,0,0,1-10.12.75,44.93,44.93,0,0,1-11-1.65,62.29,62.29,0,0,1-19.65-9.67,146.2,146.2,0,0,1-18.57-16,138.08,138.08,0,0,1-15.48-18.53,44.88,44.88,0,0,1-7.68-18,28.93,28.93,0,0,1,2.87-17.58c2.88-5.84,8.44-11.73,16.53-17.51a39.29,39.29,0,0,1,16.81-6.92,54.08,54.08,0,0,1,9.73-.61,57.69,57.69,0,0,1,9.24,1l1.85.35.17-1.58a29.07,29.07,0,0,1,3.61-11.2,30.57,30.57,0,0,1,8.94-9.34c7.21-5.14,14.14-8.32,20.61-9.45a42.54,42.54,0,0,1,8.49-.64,36.85,36.85,0,0,1,9.8,1.59,55.84,55.84,0,0,1,17,8.86,148,148,0,0,1,16.58,14.54A136.58,136.58,0,0,1,1274,129.86,42.94,42.94,0,0,1,1281.34,145.79Zm-85.61,31a7.09,7.09,0,0,0,.93-4.87,11,11,0,0,0-2.15-4.57,46.77,46.77,0,0,0-3.68-4.19,48.58,48.58,0,0,0-4.2-3.8,14.23,14.23,0,0,0-4.92-2.59,10.49,10.49,0,0,0-2.67-.43,12.12,12.12,0,0,0-3.13.35,18.69,18.69,0,0,0-6.25,3.13,15.88,15.88,0,0,0-4.71,4.7,7,7,0,0,0-.93,4.87,11,11,0,0,0,2.15,4.57,47,47,0,0,0,3.68,4.19,47.79,47.79,0,0,0,4.2,3.81,14.55,14.55,0,0,0,4.91,2.59,10,10,0,0,0,2.66.42,12,12,0,0,0,3.15-.35,18.69,18.69,0,0,0,6.25-3.13,16,16,0,0,0,4.71-4.7m43.64-34a6.3,6.3,0,0,0,.75-4.13,8.15,8.15,0,0,0-2.06-3.94c-.94-1.05-1.94-2.12-3-3.16s-2.1-2.08-3.15-3.06a10.51,10.51,0,0,0-4.21-2.42,9.42,9.42,0,0,0-2.26-.33,10.89,10.89,0,0,0-2.63.25,15.51,15.51,0,0,0-5.54,2.75,13.55,13.55,0,0,0-4.15,4.17,6.34,6.34,0,0,0-.76,4.12,8.16,8.16,0,0,0,2.07,3.95c.9,1,1.91,2.08,3,3.17s2.13,2.11,3.15,3a10.43,10.43,0,0,0,4.2,2.42,9,9,0,0,0,2.26.34,10.07,10.07,0,0,0,2.64-.26,15.51,15.51,0,0,0,5.54-2.75,13.34,13.34,0,0,0,4.15-4.16"/><path d="M1285,145.59a27.76,27.76,0,0,1-2.09,17.35c-2.58,5.71-7.75,11.37-15.35,16.79a39.18,39.18,0,0,1-12.9,6,46.88,46.88,0,0,1-13.25,1.42,43.18,43.18,0,0,1-3.28,15.9,34.14,34.14,0,0,1-11.86,14.18c-8.49,6.05-16.79,9.81-24.68,11.19a54.94,54.94,0,0,1-10.93.81,49.9,49.9,0,0,1-12.06-1.82A67,67,0,0,1,1157.52,217a150.24,150.24,0,0,1-19.11-16.48,140.89,140.89,0,0,1-15.92-19.05,48.07,48.07,0,0,1-8.21-19.37,31.35,31.35,0,0,1,3.1-19.2c3.06-6.25,8.91-12.48,17.4-18.54a42.61,42.61,0,0,1,18.28-7.49,56.29,56.29,0,0,1,10.5-.66,60.76,60.76,0,0,1,8.1.77,31.22,31.22,0,0,1,3.73-10.67,33.33,33.33,0,0,1,9.74-10.22c7.6-5.42,15-8.79,22-10a46.33,46.33,0,0,1,9.32-.7,41.58,41.58,0,0,1,11,1.78,60.54,60.54,0,0,1,18.41,9.56,149.87,149.87,0,0,1,17,15A139.42,139.42,0,0,1,1277,128.42,46.22,46.22,0,0,1,1285,145.59Zm-5.57,15.86a24.86,24.86,0,0,0,1.93-15.66,42.94,42.94,0,0,0-7.38-15.93,136.58,136.58,0,0,0-13.77-16.24,148,148,0,0,0-16.58-14.54,55.84,55.84,0,0,0-17-8.86,36.85,36.85,0,0,0-9.8-1.59,42.54,42.54,0,0,0-8.49.64c-6.47,1.13-13.4,4.31-20.61,9.45a30.57,30.57,0,0,0-8.94,9.34,29.07,29.07,0,0,0-3.61,11.2l-.17,1.58-1.85-.35a57.69,57.69,0,0,0-9.24-1,54.08,54.08,0,0,0-9.73.61,39.29,39.29,0,0,0-16.81,6.92c-8.09,5.78-13.65,11.67-16.53,17.51a28.93,28.93,0,0,0-2.87,17.58,44.88,44.88,0,0,0,7.68,18,138.08,138.08,0,0,0,15.48,18.53,146.2,146.2,0,0,0,18.57,16,62.29,62.29,0,0,0,19.65,9.67,44.93,44.93,0,0,0,11,1.65,50.6,50.6,0,0,0,10.12-.75c7.36-1.29,15.19-4.85,23.28-10.62a31.47,31.47,0,0,0,10.92-13,34.58,34.58,0,0,0,2.65-16.27l-.11-1.64,1.88.13c.7,0,1.39.08,2.07.1a42.94,42.94,0,0,0,12.07-1.29,35.88,35.88,0,0,0,11.81-5.46c7.19-5.14,12-10.42,14.42-15.7"/><path d="M1239.86,137.65a8.82,8.82,0,0,0-1.8-2.94c-.47-.52-1-1.05-1.45-1.58s-1-1.06-1.53-1.58c-.77-.8-1.57-1.57-2.36-2.32l-.79-.74a11.5,11.5,0,0,0-1.49-1.16,10.17,10.17,0,0,0-2.72-1.26,9.42,9.42,0,0,0-2.26-.33,10.09,10.09,0,0,0-2,.13l-.67.12c-.31.07-.62.16-.94.26s-.43.15-.65.24-.45.18-.67.29-.69.33-1,.53l-.35.21c-.25.14-.49.29-.74.45s-.35.22-.53.35l-.61.42a19.51,19.51,0,0,0-2.85,2.42,8.67,8.67,0,0,0-1.3,1.75,6.87,6.87,0,0,0-.81,2.52,5.63,5.63,0,0,0,0,.58,5,5,0,0,0,.08,1,7.13,7.13,0,0,0,.26,1,8.7,8.7,0,0,0,.44,1,10.29,10.29,0,0,0,1.37,1.94c.45.5.93,1,1.43,1.55s1,1.07,1.55,1.62c1.07,1.09,2.13,2.11,3.15,3a10.94,10.94,0,0,0,1.49,1.17,9.15,9.15,0,0,0,1,.6,9.37,9.37,0,0,0,1.66.65,8.63,8.63,0,0,0,1.61.3c.22,0,.43,0,.65,0s.43,0,.65,0a8.81,8.81,0,0,0,1.24-.12c.25,0,.5-.08.75-.14a8.84,8.84,0,0,0,.94-.26l.45-.16.4-.16.29-.12a17.3,17.3,0,0,0,1.59-.82l.36-.22c.49-.3,1-.64,1.51-1,.26-.18.51-.37.75-.55s.69-.54,1-.81l.29-.26.55-.52c.26-.26.5-.52.71-.77a7.48,7.48,0,0,0,.85-1.25c.1-.17.18-.35.26-.52a7.21,7.21,0,0,0,.49-1.56,5.88,5.88,0,0,0,0-2A6.14,6.14,0,0,0,1239.86,137.65Zm-3.88,3.48a10.56,10.56,0,0,1-3.31,3.23,12.64,12.64,0,0,1-4.3,2.2,6.15,6.15,0,0,1-1.66.18,4.55,4.55,0,0,1-1.18-.18,5.8,5.8,0,0,1-2.42-1.42c-1-.9-2-1.87-3-2.91s-2-2-2.84-3a4.54,4.54,0,0,1-1.23-2.27,3.72,3.72,0,0,1,.49-2.39,11.09,11.09,0,0,1,3.31-3.22,12.69,12.69,0,0,1,4.3-2.21,7,7,0,0,1,1.65-.17,5.6,5.6,0,0,1,1.19.17,6.09,6.09,0,0,1,2.41,1.43c1,.92,2,1.9,3,2.91s1.94,2,2.82,3a4.69,4.69,0,0,1,1.24,2.27,3.62,3.62,0,0,1-.49,2.38"/><g class="cls-2"><g class="cls-86"><g class="cls-2"><path d="M1238.74,201.46l-5,13.14c-.2.53-.41,1.05-.63,1.57a34,34,0,0,1-11.86,14.17c-8.49,6-16.79,9.82-24.68,11.19a54.55,54.55,0,0,1-9.28.84l5-13.15a55.66,55.66,0,0,0,9.28-.83c7.89-1.38,16.19-5.14,24.68-11.19A34.14,34.14,0,0,0,1238.11,203c.22-.51.43-1,.63-1.56"/><path d="M1192.29,229.22l-5,13.15q-.83,0-1.65,0a49.9,49.9,0,0,1-12.06-1.82,66.84,66.84,0,0,1-21.06-10.34,151,151,0,0,1-19.11-16.47,141.69,141.69,0,0,1-15.92-19.06,48.07,48.07,0,0,1-8.21-19.37,30.68,30.68,0,0,1,1.67-15.92l5-13.14a30.67,30.67,0,0,0-1.67,15.92,48.07,48.07,0,0,0,8.21,19.37,140.89,140.89,0,0,0,15.92,19.05A150.24,150.24,0,0,0,1157.52,217a67,67,0,0,0,21.06,10.34,49.9,49.9,0,0,0,12.06,1.82c.55,0,1.1,0,1.65,0"/></g></g></g></g><g class="cls-2"><polygon points="1287.95 369.1 1283 382.25 1279.58 348.12 1284.53 334.98 1287.95 369.1"/><polygon points="1373.76 404.23 1368.81 417.37 1365.88 388.07 1370.83 374.93 1373.76 404.23"/><polygon points="1377.76 407.56 1372.81 420.71 1330.79 419.38 1335.74 406.24 1377.76 407.56"/><polygon class="cls-87" points="1252.61 400.41 1247.66 413.55 1244.74 384.24 1249.69 371.1 1252.61 400.41"/><polygon points="1291.52 404.84 1286.57 417.98 1244.3 416.65 1249.25 403.51 1291.52 404.84"/><polygon points="1249.25 403.51 1244.3 416.65 1240.73 380.91 1245.68 367.77 1249.25 403.51"/><polygon class="cls-88" points="1288.54 338.32 1325.4 339.48 1328.81 373.6 1370.83 374.93 1373.76 404.23 1331.73 402.9 1335.15 437.03 1298.3 435.87 1294.89 401.74 1252.61 400.41 1249.69 371.1 1291.95 372.43 1288.54 338.32"/><polygon class="cls-89" points="1335.15 437.03 1330.2 450.17 1293.35 449.01 1298.3 435.87 1335.15 437.03"/><polygon class="cls-87" points="1298.3 435.87 1293.35 449.01 1289.94 414.88 1294.89 401.74 1298.3 435.87"/><polygon points="1294.93 438.96 1289.98 452.11 1286.57 417.98 1291.52 404.84 1294.93 438.96"/><polygon points="1339.16 440.36 1334.21 453.5 1289.98 452.11 1294.93 438.96 1339.16 440.36"/><path d="M1332.17,370.5l42,1.33,3.57,35.73-42-1.32,3.42,34.12-44.23-1.4-3.41-34.12-42.27-1.33-3.57-35.74L1288,369.1,1284.53,335l44.22,1.4Zm41.59,33.73-2.93-29.3-42-1.33-3.41-34.12-36.86-1.16,3.41,34.11-42.26-1.33,2.92,29.31,42.28,1.33,3.41,34.13,36.85,1.16-3.42-34.13,42,1.33"/></g><g class="cls-2"><polygon points="973.76 709.79 968.81 722.93 956.32 741.68 961.27 728.54 973.76 709.79"/><polygon points="882.87 708.82 877.92 721.96 822.94 690.62 827.89 677.47 882.87 708.82"/><g class="cls-2"><g class="cls-90"><g class="cls-2"><path class="cls-91" d="M958,726.69l-5,13.14a15,15,0,0,1-4.86,4.62,71.94,71.94,0,0,1-7,3.68c-8.24,3.66-17.7,7.8-28.1,12.31-10.11,4.38-20.85,9-31.91,13.73-10.77,4.6-21.4,9.2-31.61,13.69-9.85,4.33-18.6,8.34-26,11.91l5-13.15c7.44-3.57,16.19-7.57,26-11.9,10.21-4.49,20.84-9.1,31.61-13.7,11.06-4.73,21.8-9.35,31.91-13.73,10.4-4.5,19.85-8.64,28.1-12.3a71.94,71.94,0,0,0,7-3.68,15,15,0,0,0,4.86-4.62"/></g></g></g><path d="M852.44,640.62l121.32,69.17-12.49,18.75a18.1,18.1,0,0,1-5.79,5.49,77.5,77.5,0,0,1-7.35,3.85c-8.28,3.68-17.74,7.82-28.14,12.33-10.12,4.39-20.86,9-31.93,13.73-10.77,4.6-21.38,9.2-31.58,13.69s-19.26,8.64-26.86,12.3l-.94.44L788,767.19l5.76-8.65A65.34,65.34,0,0,1,807,743.79a78.07,78.07,0,0,1,18.12-10.56l57.74-24.41-55-31.35ZM958,726.69l10.75-16.13L854,645.1,832.9,676.7l57.39,32.73-63.21,26.72a74.51,74.51,0,0,0-17.38,10.12A63.09,63.09,0,0,0,797,760.4l-4,6,35.42,20.2c7.44-3.57,16.19-7.57,26-11.9,10.21-4.49,20.84-9.1,31.61-13.7,11.06-4.73,21.8-9.35,31.91-13.73,10.4-4.5,19.85-8.64,28.1-12.3a71.94,71.94,0,0,0,7-3.68,15.13,15.13,0,0,0,4.86-4.62"/><path class="cls-18" d="M854,645.1l114.8,65.46L958,726.69a15,15,0,0,1-4.86,4.62,71.94,71.94,0,0,1-7,3.68c-8.25,3.66-17.7,7.8-28.1,12.3-10.11,4.38-20.85,9-31.91,13.73-10.77,4.6-21.4,9.21-31.61,13.7-9.85,4.33-18.6,8.33-26,11.9L793,766.42l4-6a63.09,63.09,0,0,1,12.66-14.13,74.51,74.51,0,0,1,17.38-10.12l63.21-26.72L832.9,676.7Z"/><g class="cls-2"><g class="cls-92"><g class="cls-2"><path d="M961.27,728.54l-4.95,13.14a18.1,18.1,0,0,1-5.79,5.49,77.51,77.51,0,0,1-7.35,3.86c-8.28,3.68-17.74,7.81-28.14,12.32-10.12,4.39-20.86,9-31.93,13.74-10.76,4.59-21.38,9.19-31.58,13.69s-19.26,8.63-26.86,12.29l5-13.14c7.6-3.66,16.63-7.81,26.86-12.3s20.81-9.09,31.58-13.69c11.07-4.72,21.81-9.34,31.93-13.73,10.4-4.51,19.86-8.65,28.14-12.33a77.5,77.5,0,0,0,7.35-3.85,18.1,18.1,0,0,0,5.79-5.49"/></g></g></g><polygon points="828.68 790.37 823.73 803.51 783.08 780.33 788.03 767.19 828.68 790.37"/><polygon points="829.62 789.93 824.67 803.07 823.73 803.51 828.68 790.37 829.62 789.93"/></g><g class="cls-2"><g class="cls-2"><g class="cls-93"><g class="cls-2"><path d="M1107.92,732.42l-5,13.14a11.45,11.45,0,0,0,0-5,6,6,0,0,0-1.57-2.69,7.39,7.39,0,0,0-2.88-1.59c-1.49-.48-3-.91-4.59-1.27-1.7-.41-3.3-.72-4.74-.94-.36,0-.71-.07-1-.08h-.24l4.95-13.14h.24a7.63,7.63,0,0,1,1,.08c1.44.22,3,.53,4.74.94,1.55.36,3.1.79,4.59,1.27a7.51,7.51,0,0,1,2.88,1.58,6,6,0,0,1,1.57,2.7,11.45,11.45,0,0,1,0,5"/><path d="M1092.87,720.86,1087.92,734a5.82,5.82,0,0,0-1.81.29,5,5,0,0,0-2.35,1.77,6.43,6.43,0,0,0-.94,1.76l5-13.14a6.65,6.65,0,0,1,.94-1.77,5.12,5.12,0,0,1,2.35-1.77,5.54,5.54,0,0,1,1.81-.28"/></g></g></g><g class="cls-2"><g class="cls-94"><g class="cls-2"><path d="M1110.06,776.62l-5,13.15c-.86-.07-1.4-.09-2-.11l-2,0,5-13.14c.68,0,1.34,0,2,0s1.09,0,2,.1"/><path d="M1106.14,776.5l-5,13.14c-1,0-2,0-3.12.07q-4,.16-8.23.37c-.71,0-1.39,0-2,0l5-13.14c.64,0,1.32,0,2-.06l8.23-.36c1.1,0,2.14-.07,3.12-.07"/><path d="M1092.76,777l-5,13.14c-.4,0-.78,0-1.14,0a20.65,20.65,0,0,1-4.14-.47,157.22,157.22,0,0,1-23.1-7.28,60.41,60.41,0,0,1-18.51-11.55,41.14,41.14,0,0,1-11.11-17.38c-2.24-6.72-2.55-14.85-.91-24.13a63.55,63.55,0,0,1,3-11.21l4.95-13.14a62.59,62.59,0,0,0-3,11.2c-1.64,9.29-1.34,17.42.91,24.14a41.14,41.14,0,0,0,11.11,17.38,60.79,60.79,0,0,0,18.51,11.55,156,156,0,0,0,23.1,7.27,19.89,19.89,0,0,0,4.14.48l1.14,0"/></g></g></g><g class="cls-2"><g class="cls-95"><g class="cls-2"><path d="M1114,777.44l-5,13.14c-.38,1-1.39,2-3.14,3.11a25.4,25.4,0,0,1-7.36,2.8,46.06,46.06,0,0,1-10.67,1.1l5-13.14a46.06,46.06,0,0,0,10.67-1.1,25.1,25.1,0,0,0,7.36-2.81c1.75-1.09,2.76-2.09,3.14-3.1"/><path d="M1092.8,784.45l-5,13.14h-1.27a51.43,51.43,0,0,1-12.84-2.21l5-13.14a51.36,51.36,0,0,0,12.84,2.21h1.27"/></g></g></g><g class="cls-2"><g class="cls-96"><g class="cls-2"><path d="M1078.69,782.23l-5,13.14c-1.85-.57-4-1.33-6.54-2.25s-5.19-2-8-3.33-5.62-2.64-8.46-4.12c-2.29-1.19-4.47-2.45-6.49-3.75l5-13.14c2,1.3,4.2,2.55,6.49,3.74,2.84,1.49,5.69,2.88,8.46,4.13s5.52,2.4,8,3.33,4.69,1.68,6.54,2.25"/></g></g></g><polygon points="1049.18 768.78 1044.23 781.92 1021.12 811.12 1026.07 797.98 1049.18 768.78"/><path class="cls-18" d="M1165.7,735.68c1.51,9.39,1.17,20.48-1,33-2.45,13.87-6.31,25-11.5,33.13s-11.47,14-18.87,17.75a55.35,55.35,0,0,1-25.46,5.52l-2.47,0a147.07,147.07,0,0,1-29.27-4.09,170.68,170.68,0,0,1-20.26-6A132.19,132.19,0,0,1,1042,808.5a77.24,77.24,0,0,1-10.22-6.2c-2.23-1.66-4.13-3.07-5.74-4.32l23.11-29.2c2,1.3,4.2,2.55,6.49,3.74,2.84,1.49,5.69,2.88,8.46,4.13s5.52,2.4,8,3.33,4.69,1.68,6.54,2.25a51.36,51.36,0,0,0,12.84,2.21h1.06a46.69,46.69,0,0,0,10.88-1.1,25.1,25.1,0,0,0,7.36-2.81c2-1.27,3.07-2.41,3.27-3.59a2.43,2.43,0,0,0-.69-2.16,5.81,5.81,0,0,0-3.9-1.41c-.51,0-1-.06-1.61-.07-1.64,0-3.48,0-5.5.05q-4,.15-8.26.36c-1,0-2,.06-2.86,0a15.58,15.58,0,0,1-3.25-.36,152.1,152.1,0,0,1-22.43-7.06,56.29,56.29,0,0,1-17.17-10.69,37.72,37.72,0,0,1-10.13-15.89c-2.08-6.25-2.35-13.91-.79-22.73s4.4-15.82,8.54-21.09a35.29,35.29,0,0,1,15.36-11.38,56,56,0,0,1,21-3.28l.69,0a125.72,125.72,0,0,1,24.94,3.47,117.88,117.88,0,0,1,28.86,10.53,57.23,57.23,0,0,1,19.3,16.44A54.92,54.92,0,0,1,1165.7,735.68Zm-54.12-2.4a13.72,13.72,0,0,0-.08-6.28,9.51,9.51,0,0,0-2.58-4.28,12,12,0,0,0-4.55-2.57c-1.61-.51-3.27-1-4.93-1.37-1.83-.42-3.55-.76-5.13-1a13.54,13.54,0,0,0-1.53-.13,9.77,9.77,0,0,0-3.39.46,8.28,8.28,0,0,0-3.83,2.78,12.87,12.87,0,0,0-2.19,5.74,13.67,13.67,0,0,0,.08,6.27,9.57,9.57,0,0,0,2.57,4.28,11.6,11.6,0,0,0,4.43,2.53c1.48.5,3.18,1,5.06,1.41,1.71.4,3.39.73,5,1a14.58,14.58,0,0,0,1.69.16,9.88,9.88,0,0,0,3.38-.46,8.07,8.07,0,0,0,3.82-2.78,13,13,0,0,0,2.19-5.73"/><g class="cls-2"><g class="cls-97"><g class="cls-2"><path class="cls-39" d="M1092.31,773.77l-5,13.14h-1a17.08,17.08,0,0,1-3.26-.36,153.29,153.29,0,0,1-22.43-7.07,56.41,56.41,0,0,1-17.17-10.69,37.75,37.75,0,0,1-10.13-15.88c-2.08-6.26-2.35-13.91-.79-22.74a60.2,60.2,0,0,1,2.87-10.74l5-13.15a60.31,60.31,0,0,0-2.87,10.75c-1.56,8.82-1.29,16.48.79,22.73a37.72,37.72,0,0,0,10.13,15.89,56.29,56.29,0,0,0,17.17,10.69,152.1,152.1,0,0,0,22.43,7.06,15.58,15.58,0,0,0,3.25.36l1,0"/></g></g></g><g class="cls-2"><g class="cls-98"><g class="cls-2"><path class="cls-91" d="M1159.15,789.56l-5,13.14a65.58,65.58,0,0,1-6,12.22c-5.13,8-11.47,14-18.87,17.74a55,55,0,0,1-24.79,5.52l5-13.14a55,55,0,0,0,24.79-5.52c7.4-3.73,13.74-9.71,18.87-17.75a65.17,65.17,0,0,0,6-12.21"/><path class="cls-39" d="M1109.51,825l-5,13.14h-.66c-.82,0-1.65,0-2.48,0a147.07,147.07,0,0,1-29.27-4.09,172.7,172.7,0,0,1-20.26-6,134,134,0,0,1-14.81-6.45,77.24,77.24,0,0,1-10.22-6.2c-2.23-1.65-4.13-3.07-5.74-4.32l4.95-13.14c1.61,1.25,3.51,2.66,5.74,4.32a77.24,77.24,0,0,0,10.22,6.2,132.19,132.19,0,0,0,14.81,6.44,170.68,170.68,0,0,0,20.26,6,147.07,147.07,0,0,0,29.27,4.09l2.47,0h.67"/></g></g></g><g class="cls-2"><g class="cls-99"><g class="cls-2"><path class="cls-39" d="M1109.51,825l-5,13.14h-.66c-.82,0-1.65,0-2.48,0a147.07,147.07,0,0,1-29.27-4.09,172.7,172.7,0,0,1-20.26-6,134,134,0,0,1-14.81-6.45,77.24,77.24,0,0,1-10.22-6.2c-2.23-1.65-4.13-3.07-5.74-4.32l4.95-13.14c1.61,1.25,3.51,2.66,5.74,4.32a77.24,77.24,0,0,0,10.22,6.2,132.19,132.19,0,0,0,14.81,6.44,170.68,170.68,0,0,0,20.26,6,147.07,147.07,0,0,0,29.27,4.09l2.47,0h.67"/></g></g></g><path d="M1169.37,735.62c1.56,9.7,1.21,21.1-1,33.88-2.51,14.21-6.5,25.68-11.86,34.09s-12.15,14.79-20,18.76a58.81,58.81,0,0,1-27.16,5.9c-.84,0-1.68,0-2.53,0a152,152,0,0,1-30.2-4.2,176.81,176.81,0,0,1-20.81-6.13,138.39,138.39,0,0,1-15.32-6.67,84.33,84.33,0,0,1-10.8-6.57c-2.9-2.14-5.25-3.92-7.16-5.42l-1.31-1L1048,764.23l1.58,1.06a78.79,78.79,0,0,0,7.65,4.53c2.76,1.44,5.54,2.79,8.24,4s5.31,2.31,7.72,3.19,4.55,1.64,6.27,2.17a47.7,47.7,0,0,0,11.81,2h.83a42.08,42.08,0,0,0,9.95-1,22.38,22.38,0,0,0,6.34-2.38,9.53,9.53,0,0,0,1.63-1.24c-.87-.06-1.4-.08-2-.1-1.51,0-3.21,0-5.08.05l-8.23.36c-1.15.06-2.21.07-3.17,0a19.89,19.89,0,0,1-4.14-.48,156,156,0,0,1-23.1-7.27,60.79,60.79,0,0,1-18.51-11.55,41.14,41.14,0,0,1-11.11-17.38c-2.25-6.72-2.55-14.85-.91-24.14s4.66-16.63,9.06-22.25a38.19,38.19,0,0,1,16.68-12.32,59.4,59.4,0,0,1,22.41-3.52l.81,0a128.63,128.63,0,0,1,25.73,3.58,122.3,122.3,0,0,1,30,11,61.48,61.48,0,0,1,20.7,17.63A58.54,58.54,0,0,1,1169.37,735.62Zm-4.7,33c2.2-12.48,2.54-23.57,1-33a54.92,54.92,0,0,0-9.54-23.95,57.23,57.23,0,0,0-19.3-16.44A117.88,117.88,0,0,0,1108,684.76a125.72,125.72,0,0,0-24.94-3.47l-.69,0a56,56,0,0,0-21,3.28,35.29,35.29,0,0,0-15.36,11.38c-4.14,5.27-7,12.37-8.54,21.09s-1.29,16.48.79,22.73a37.72,37.72,0,0,0,10.13,15.89,56.29,56.29,0,0,0,17.17,10.69,152.1,152.1,0,0,0,22.43,7.06,15.58,15.58,0,0,0,3.25.36c.86,0,1.82,0,2.86,0q4.26-.21,8.26-.36c2-.08,3.86-.1,5.5-.05.56,0,1.1,0,1.61.07a5.81,5.81,0,0,1,3.9,1.41,2.43,2.43,0,0,1,.69,2.16c-.2,1.18-1.24,2.32-3.27,3.59a25.1,25.1,0,0,1-7.36,2.81,46.69,46.69,0,0,1-10.88,1.1h-1.06a51.36,51.36,0,0,1-12.84-2.21c-1.85-.57-4-1.33-6.54-2.25s-5.2-2.05-8-3.33-5.62-2.64-8.46-4.13c-2.29-1.19-4.47-2.44-6.49-3.74L1026.07,798c1.61,1.25,3.51,2.66,5.74,4.32a77.24,77.24,0,0,0,10.22,6.2,132.19,132.19,0,0,0,14.81,6.44,170.68,170.68,0,0,0,20.26,6,147.07,147.07,0,0,0,29.27,4.09l2.47,0a55.35,55.35,0,0,0,25.46-5.52c7.4-3.73,13.74-9.71,18.87-17.75s9-19.26,11.5-33.13"/><path d="M1108.92,722.72a9.51,9.51,0,0,1,2.58,4.28,13.72,13.72,0,0,1,.08,6.28,13,13,0,0,1-2.19,5.73,8.07,8.07,0,0,1-3.82,2.78,9.88,9.88,0,0,1-3.38.46,14.58,14.58,0,0,1-1.69-.16c-1.6-.24-3.28-.57-5-1-1.88-.44-3.58-.91-5.06-1.41a11.6,11.6,0,0,1-4.43-2.53,9.57,9.57,0,0,1-2.57-4.28,13.67,13.67,0,0,1-.08-6.27,12.87,12.87,0,0,1,2.19-5.74,8.28,8.28,0,0,1,3.83-2.78,9.77,9.77,0,0,1,3.39-.46,13.54,13.54,0,0,1,1.53.13c1.58.24,3.3.58,5.13,1,1.66.4,3.32.86,4.93,1.37A12,12,0,0,1,1108.92,722.72Zm-1,9.7a11.45,11.45,0,0,0,0-5,6,6,0,0,0-1.57-2.7,7.51,7.51,0,0,0-2.88-1.58c-1.49-.48-3-.91-4.59-1.27-1.7-.41-3.3-.72-4.74-.94a7.63,7.63,0,0,0-1-.08,5.66,5.66,0,0,0-2,.27,5.12,5.12,0,0,0-2.35,1.77,10.62,10.62,0,0,0-1.67,4.58,11.42,11.42,0,0,0,0,5,6,6,0,0,0,1.57,2.7,7.35,7.35,0,0,0,2.77,1.56c1.38.45,3,.89,4.7,1.3,1.58.38,3.14.68,4.63.91a9.74,9.74,0,0,0,1.16.1,6.2,6.2,0,0,0,2-.26,5.08,5.08,0,0,0,2.35-1.78,10.7,10.7,0,0,0,1.68-4.57"/><g class="cls-2"><g class="cls-100"><g class="cls-2"><path class="cls-39" d="M1109.51,825l-5,13.14h-.66c-.82,0-1.65,0-2.48,0a147.07,147.07,0,0,1-29.27-4.09,172.7,172.7,0,0,1-20.26-6,134,134,0,0,1-14.81-6.45,77.24,77.24,0,0,1-10.22-6.2c-2.23-1.65-4.13-3.07-5.74-4.32l4.95-13.14c1.61,1.25,3.51,2.66,5.74,4.32a77.24,77.24,0,0,0,10.22,6.2,132.19,132.19,0,0,0,14.81,6.44,170.68,170.68,0,0,0,20.26,6,147.07,147.07,0,0,0,29.27,4.09l2.47,0h.67"/></g></g></g><polygon points="1022.46 799.22 1017.51 812.36 1016.21 811.33 1021.15 798.18 1022.46 799.22"/><g class="cls-2"><g class="cls-101"><g class="cls-2"><path d="M1162.67,790.92l-5,13.14a68.25,68.25,0,0,1-6.2,12.67c-5.41,8.48-12.15,14.79-20,18.76a58.54,58.54,0,0,1-26.43,5.91l5-13.14a58.7,58.7,0,0,0,26.43-5.91c7.88-4,14.62-10.29,20-18.76a68.56,68.56,0,0,0,6.2-12.67"/><path d="M1110,828.26l-5,13.14h-.73c-.84,0-1.68,0-2.53,0a151.28,151.28,0,0,1-30.2-4.2,174.92,174.92,0,0,1-20.81-6.13,138.39,138.39,0,0,1-15.32-6.67,85,85,0,0,1-10.8-6.57c-2.9-2.14-5.25-3.92-7.16-5.42l5-13.14c1.91,1.5,4.26,3.28,7.16,5.42a84.33,84.33,0,0,0,10.8,6.57,138.39,138.39,0,0,0,15.32,6.67,176.81,176.81,0,0,0,20.81,6.13,152,152,0,0,0,30.2,4.2c.85,0,1.69,0,2.53,0h.73"/></g></g></g></g><path class="cls-102" d="M1308.67,473.13c5.69,5.23,14.28,6.53,21.75,4.54s13.9-6.89,19-12.66"/><path class="cls-102" d="M1307,488.74c3.33,3.32,8.1,4.91,12.8,5.15a44.5,44.5,0,0,0,13.9-2,125.83,125.83,0,0,0,31.36-13.36"/><path class="cls-102" d="M1297.58,303.29A274.51,274.51,0,0,0,1278,222.37"/><path class="cls-102" d="M1301.7,231.79a180.29,180.29,0,0,1,11.86,71.43"/><path class="cls-102" d="M1327.26,279.93v19.18"/><path class="cls-102" d="M569.22,485a132,132,0,0,0,17.28,73.29"/><path class="cls-102" d="M585.3,493.26a100.6,100.6,0,0,0,18.41,56.36"/><path class="cls-102" d="M606.79,466.74a148.19,148.19,0,0,0,23.11,76.47"/><path class="cls-102" d="M862.94,2.14A215.62,215.62,0,0,0,871.87,50"/><path class="cls-102" d="M885.36,2.11a130.1,130.1,0,0,0,3.28,58.22"/><path class="cls-102" d="M778.19,737.18c1.29,2.65,5.3.52,7.1-1.82a121.4,121.4,0,0,0,19-35.5"/><path class="cls-102" d="M760,735.54a57.85,57.85,0,0,0,20.87-28.11"/><path class="cls-102" d="M1021.57,689.67a313.2,313.2,0,0,0-5,43"/><path class="cls-102" d="M1012.48,680.77a96.67,96.67,0,0,0-6.2,37"/><path class="cls-102" d="M640.39,171.31A136.82,136.82,0,0,1,709.62,105"/><path class="cls-102" d="M666.28,162.64a63.7,63.7,0,0,1,28.56-21.9"/><path class="cls-102" d="M1156.3,96.29c1.09-11.59,11.14-21.7,22.72-22.87"/><path class="cls-102" d="M1129.86,94.88c-1.57-9.21,3.91-18.48,11.39-24.07s16.69-8.26,25.68-10.81"/></g></svg>