<?xml version="1.0" encoding="utf-8"?>
<!-- Generator: Adobe Illustrator 23.0.2, SVG Export Plug-In . SVG Version: 6.00 Build 0)  -->
<svg version="1.1" id="Layer_1" xmlns="http://www.w3.org/2000/svg" xmlns:xlink="http://www.w3.org/1999/xlink" x="0px" y="0px"
	 viewBox="0 0 599 630" style="enable-background:new 0 0 599 630;" xml:space="preserve">
<style type="text/css">
	.st0{fill-rule:evenodd;clip-rule:evenodd;fill:#168E12;}
	.st1{fill-rule:evenodd;clip-rule:evenodd;fill:#20CE1B;}
	.st2{opacity:0.12;fill-rule:evenodd;clip-rule:evenodd;fill:#FFFFFF;enable-background:new    ;}
	.st3{opacity:0.75;fill-rule:evenodd;clip-rule:evenodd;fill:#FFFFFF;enable-background:new    ;}
	.st4{opacity:0.2;fill-rule:evenodd;clip-rule:evenodd;fill:#FFFFFF;enable-background:new    ;}
	.st5{fill-rule:evenodd;clip-rule:evenodd;fill:#1E9B18;}
</style>
<path class="st0" d="M361.7,7.7c-0.1,0-0.2-0.1-0.3-0.1c-7.5-1.9-15.1-3.5-22.8-4.6c-8.6-1.3-17.2-2.1-25.7-2.4c-0.1,0-0.2,0-0.3,0
	C158.2-6,16.1,130.7,3.8,287.2c-0.7,8.6-1.1,17.1-1.3,25.5l0,0C0.9,381.4,15,442.2,42.7,491.9c8.7,15.6,18.8,30.1,30.1,43.3
	c41.6,48.7,100.4,81.1,173.4,91.9c3,0.4,5.9,0.8,8.8,1.2c60.2,7.5,113.4-1,159-23.4c66.5-32.7,116.9-95.3,148.9-182.1l0,0
	c4.1-11.2,8-22.8,11.5-34.8C617.6,240.9,513.2,46.8,361.7,7.7z M42.7,422.1v-43.9h30.1v83.9C61.6,449.6,51.5,436.2,42.7,422.1z
	 M255,561.2V522h159v24.6C365.2,564.6,310.6,570.5,255,561.2z"/>
<path class="st1" d="M358,6.9c162,34.5,267.1,186,234.7,338.3S402.5,593,240.5,558.5S-26.6,372.5,5.8,220.2S195.9-27.6,358,6.9z"/>
<path id="Ellipse_1_copy_4" class="st2" d="M306.1,300.3c147.5,56.4,98.5,47.3,273.5,41.5c-31.2,146.3-182.7,238-338.4,204.8
	S-15.4,368.1,15.8,221.8C133.1,232.2,222.6,268.4,306.1,300.3z"/>
<path id="Rounded_Rectangle_1" class="st3" d="M153.4,153.4c-3.7-11.5,1.3-18.2,14.4-16.7L366.3,187l-31.8,0.4l44.2,2.7l110.5,28
	c11.9,4.3,11.9,14.5,5.1,21.9L351.2,341.9L331,341l13.8,5.6l-21.7-3.9l11.4,11.4L234.7,425c-6,5.1-18.9,5.4-21.4-9.6l-44.7-195.5
	l9.7-14l-10.5,7l4.4-11.4l-7.9-0.9L153.4,153.4z"/>
<path class="st4" d="M275.4,4.1c43.8-1,63.8,2.5,91.6,9.9c29.3,7.7,53.6,20.3,53.9,23.3c-0.3,3.8-10.7-2.4-36.9-10.3
	c-25.6-7.8-45.5-7-89.3-6c-43.8,0.3-103.9,9.8-128.7,20c-25.1,10.2-43.6,22.8-44,19c0.3-3,7.9-8.4,33-23
	C179.7,22.4,231.7,4.4,275.4,4.1z"/>
<path class="st5" d="M414,546.6V605c-45.6,22.5-98.8,30.9-159,23.4v-67.1C310.6,570.5,365.2,564.6,414,546.6z"/>
<path class="st5" d="M72.8,462.1v73.1c-11.3-13.3-21.4-27.8-30.1-43.3v-69.8C51.5,436.2,61.6,449.6,72.8,462.1z"/>
</svg>
