<svg xmlns="http://www.w3.org/2000/svg" xmlns:xlink="http://www.w3.org/1999/xlink" viewBox="0 0 1920 1080"><defs><style>.cls-1{fill:#353535;stroke-width:1.45px;}.cls-1,.cls-15,.cls-17,.cls-25,.cls-46{stroke:#000;}.cls-1,.cls-15,.cls-17{stroke-linejoin:round;}.cls-10,.cls-11,.cls-2{fill:#4d4d4d;}.cls-3{fill:#b3b3b3;}.cls-4{fill:#d3161d;}.cls-5{fill:#adadad;stroke:#080000;stroke-width:1.99px;}.cls-10,.cls-11,.cls-16,.cls-18,.cls-20,.cls-21,.cls-25,.cls-29,.cls-40,.cls-41,.cls-42,.cls-43,.cls-44,.cls-45,.cls-46,.cls-5,.cls-6,.cls-7,.cls-8,.cls-9{stroke-miterlimit:10;}.cls-21,.cls-25,.cls-29,.cls-41,.cls-45,.cls-6{fill:none;}.cls-18,.cls-20,.cls-29,.cls-45,.cls-6,.cls-7{stroke:#070707;}.cls-6{stroke-width:3.05px;}.cls-7{fill:#77401b;}.cls-29,.cls-7,.cls-8{stroke-width:2px;}.cls-12,.cls-46,.cls-8{fill:#f8c946;}.cls-8{stroke:#020202;}.cls-26,.cls-9{fill:#282828;}.cls-10,.cls-11,.cls-9{stroke:#151616;}.cls-10,.cls-9{stroke-width:1.64px;}.cls-11{stroke-width:6px;}.cls-13{fill:#683919;}.cls-14,.cls-20{fill:#945320;}.cls-15{fill:#515051;stroke-width:2px;}.cls-16,.cls-19{fill:#161616;}.cls-16,.cls-21,.cls-40,.cls-41,.cls-42,.cls-43,.cls-44{stroke:#0a0a0a;}.cls-16,.cls-17,.cls-18,.cls-20,.cls-21,.cls-25{stroke-width:1.73px;}.cls-17{fill:#8e8a8b;}.cls-18{fill:#e2b647;}.cls-22{fill:#dddbd7;}.cls-23{fill:#232323;}.cls-24{fill:#3a3a3a;}.cls-27{fill:#7c7c7c;}.cls-28{fill:#666;}.cls-30{fill:#389cce;}.cls-31{fill:#7f1119;}.cls-32{fill:#5e0e18;}.cls-33{fill:#352f49;}.cls-34{fill:#e41e00;}.cls-35{fill:#fffe28;}.cls-36{fill:#18ff08;}.cls-37{fill:#dbdddd;}.cls-38{fill:#0fb0db;}.cls-39{fill:#303435;}.cls-40,.cls-41,.cls-42,.cls-43,.cls-44{stroke-width:0.78px;}.cls-40{fill:url(#radial-gradient);}.cls-42{fill:url(#radial-gradient-2);}.cls-43{fill:url(#radial-gradient-3);}.cls-44{fill:url(#radial-gradient-4);}</style><radialGradient id="radial-gradient" cx="1178.39" cy="535.72" r="12.18" gradientTransform="matrix(-1, 0, 0, 1, 1875.03, 74.96)" gradientUnits="userSpaceOnUse"><stop offset="0.2" stop-color="#666"/><stop offset="0.57" stop-color="#585858"/><stop offset="1" stop-color="#4d4d4d"/></radialGradient><radialGradient id="radial-gradient-2" cx="1129.09" cy="656.21" r="12.18" gradientTransform="matrix(-1, 0, 0, 1, 1882.93, 71.42)" xlink:href="#radial-gradient"/><radialGradient id="radial-gradient-3" cx="1179.78" cy="653.21" r="12.18" gradientTransform="matrix(-1, 0, 0, 1, 1882.85, 74.8)" xlink:href="#radial-gradient"/><radialGradient id="radial-gradient-4" cx="1134.25" cy="537.78" r="12.18" gradientTransform="matrix(-1, 0, 0, 1, 1875.07, 72.02)" xlink:href="#radial-gradient"/></defs><title>sequence</title><g id="sequence"><path class="cls-1" d="M475.07,876.53a125.22,125.22,0,0,1,4.17-20.73c8.14-28.36,33.51-114.21,56.69-165.93,13.65-30.46,21.88-51.28,29-66.87a130.25,130.25,0,0,1,35.73-46.53c10.2-8.41,21.93-17.85,39.78-25.07C663.71,542,689,541.84,714,545c62.12,7.82,95.38,8.69,107.59,12.38,12.06,8,63.94,61.45,67.91,107,2.86,32.88.77,77.74-22,113.33s-114,206-154.69,210c-47.52,4.62-169.78-.65-205.69-26.09C474.88,938.76,471.4,909.31,475.07,876.53Z"/><path class="cls-2" d="M690.71,982.76c-16,0-29-3.74-39.86-11.42-29.21-20.7-32.79-46.42-29.19-78.68a119.45,119.45,0,0,1,4-19.6c7.36-25.63,33.17-113.26,56.36-165,7.55-16.84,13.56-31,18.39-42.41,4-9.39,7.41-17.5,10.57-24.43a124.09,124.09,0,0,1,33.84-44.06c9.18-7.57,20.6-17,38-24a118.47,118.47,0,0,1,44.63-8.57,125.87,125.87,0,0,1,25,2.51c42.76,8.67,72.06,28.74,84.57,37.31l3,2.06,1.55,1c7,4.64,21.61,14.3,34.92,28.06,16,16.57,24.86,33.61,26.35,50.67,2.67,30.64,1.2,74.42-20.91,109-10.05,15.74-50.24,53.3-100,93.47-51,41.16-94.74,71.11-111.44,76.29-2.72.84-5.5,1.72-8.33,2.61C739.57,974.71,714.07,982.76,690.71,982.76Z"/><path d="M827.39,571.47A118.87,118.87,0,0,1,851,573.85c41.39,8.39,69.88,27.9,82,36.24l3.09,2.1,1.56,1c6.82,4.5,21,13.88,33.77,27.1,14.87,15.4,23.1,31,24.44,46.48,4.67,53.57-8.21,86.52-19.84,104.72-9.54,14.93-50.06,52.69-98.53,91.81-49.61,40-93.47,70.21-109.17,75.08-2.73.84-5.51,1.72-8.35,2.62-22,7-47,14.82-69.27,14.82-14.51,0-26.25-3.31-35.88-10.14-12.49-8.85-20.44-19.2-24.3-31.65-3.34-10.77-4-23.31-2-40.65A112.26,112.26,0,0,1,632.23,875c7.33-25.51,33-112.75,56-164.09,7.57-16.9,13.6-31.11,18.44-42.53,4-9.35,7.38-17.43,10.5-24.27a117.09,117.09,0,0,1,31.95-41.6c8.82-7.27,19.78-16.3,36.19-22.93a111.51,111.51,0,0,1,42-8.07h0m0-13.79a125.85,125.85,0,0,0-47.21,9.08c-17.85,7.21-29.58,16.66-39.78,25.07a130.25,130.25,0,0,0-35.73,46.53c-7.1,15.59-15.33,36.41-29,66.87C652.51,757,627.13,842.8,619,871.16a125.22,125.22,0,0,0-4.17,20.73c-3.67,32.78-.19,62.23,32,85.07,13.09,9.28,28.12,12.69,43.85,12.69,27.4,0,56.89-10.37,81.71-18.07,39.06-12.12,192.48-137,215.22-172.63s24.83-80.45,22-113.33c-4-45.58-53.79-76.85-65.85-84.9-10.23-6.82-42-30.63-90-40.38a132.81,132.81,0,0,0-26.33-2.66Z"/><ellipse class="cls-3" cx="897.1" cy="714.71" rx="73.34" ry="91.79" transform="matrix(1, -0.02, 0.02, 1, -13.19, 16.88)"/><ellipse class="cls-3" cx="806.09" cy="847" rx="52.54" ry="65.76" transform="translate(-15.68 15.2) rotate(-1.07)"/><ellipse class="cls-3" cx="702.38" cy="900.69" rx="41.35" ry="51.74" transform="matrix(1, -0.02, 0.02, 1, -16.7, 13.28)"/><ellipse class="cls-4" cx="901.79" cy="714.62" rx="24.94" ry="34.29" transform="translate(-13.19 16.97) rotate(-1.07)"/><ellipse class="cls-4" cx="808.47" cy="849.57" rx="21.53" ry="29.61" transform="translate(-192.64 238.7) rotate(-15.03)"/><ellipse class="cls-4" cx="702.45" cy="904.21" rx="15.95" ry="21.94" transform="translate(-210.44 213.07) rotate(-15.03)"/><path class="cls-5" d="M672.22,831.77s10.87-23.88,47-13.38c6-15.41,18.1-57,81.79-54.42-3.59-14-30.6-74.21,14.67-135.77-18.89-7.68-30.59-12.82-53.25,17.06S669.41,824.68,672.22,831.77Z"/><line class="cls-6" x1="565.24" y1="622.27" x2="708.12" y2="631.35"/><line class="cls-6" x1="644.79" y1="549.77" x2="803.84" y2="559.85"/><polyline class="cls-6" points="826.51 561.29 868.72 563.97 868.74 563.97"/><line class="cls-6" x1="527.03" y1="711.04" x2="669.35" y2="720.06"/><line class="cls-6" x1="496.37" y1="798.94" x2="638.16" y2="807.93"/><line class="cls-6" x1="474.02" y1="889.72" x2="614.17" y2="898.61"/><path class="cls-7" d="M471.21,549.07,670.85,472.9c33.58-14,59.54-18,75.17,13.41h0c11.86,32.21-3.28,42.54-32.21,60.31L521,669.6A63.93,63.93,0,0,1,435.52,641h0C419.89,609.58,439.83,564.7,471.21,549.07Z"/><path class="cls-8" d="M486.34,543,693,460.44c33.58-14,71.88,55.94,43,73.71l-192.82,123A63.92,63.92,0,0,1,457.7,628.5h0A63.94,63.94,0,0,1,486.34,543Z"/><path class="cls-9" d="M443.2,605.49s-3.64-10.17,5.89-27.84c-26.43-7.75-92.56-17.12-99.76-9.41-4.89,5.26-8.13,17.73-10.78,29.62-2.38,10.67,5.2,20.83,16.1,20.09,32.59-2.23,82.74-7.14,82.74-7.14Z"/><path class="cls-10" d="M449.33,577.21c-26.42-7.75-89.27-24.33-96.46-16.61-4.9,5.25-9.32,17.55-12.54,28.65a15.69,15.69,0,0,0,16.11,20.08c32.58-2.23,85.42-1.64,87.51-3.46C440.78,593.4,444.37,584.21,449.33,577.21Z"/><path class="cls-9" d="M457.21,646s-9-5.91-12.14-25.74c-25.74,9.81-84.07,42.35-85.13,52.84-.72,7.15,4.24,19,9.32,30.12,4.56,9.93,16.75,13.43,25,6.25,24.6-21.48,61.56-55.72,61.56-55.72Z"/><path class="cls-10" d="M445,619.79c-25.74,9.81-85.81,34.62-86.87,45.12-.73,7.14,3.19,19.61,7.34,30.4a15.7,15.7,0,0,0,25,6.25c24.61-21.48,67-53,67.6-55.69C448,637.86,445.28,628.37,445,619.79Z"/><path class="cls-9" d="M499.76,666.6s-10.69,1.57-26.16-11.23c-12.77,24.4-35.46,64.68-29.3,73.25,4.19,5.83,4.58,6.73,15.72,11.65,10,4.42,20.07-1.29,22.84-11.86a272.53,272.53,0,0,1,21-55.07Z"/><path class="cls-10" d="M473.22,655.05c-12.77,24.4-41.89,60-35.72,68.61,4.19,5.83,4.16,7.85,14.42,13.18,9.69,5,19.91-1.34,22.84-11.87,8.74-31.37,26.89-56.63,25.51-59C487.43,666.61,479.12,661.29,473.22,655.05Z"/><path class="cls-9" d="M464.34,552.42l-10,18s-6.47,2.28-7.92,2.65c-8.19,2.07-63.51-35.5-55.76-46.56s21.4-23.24,26-22.25c.58.12,6.92-.21,6.92-.21S468,551.75,464.34,552.42Z"/><path class="cls-10" d="M472.26,549.77a43.78,43.78,0,0,0-10.9,9.2,74.11,74.11,0,0,0-7.07,11.42c-4.21,7.32-63.5-35.49-55.75-46.55S420.44,503,425.07,504,476.44,549,472.26,549.77Z"/><ellipse class="cls-11" cx="515.41" cy="597.93" rx="22.52" ry="24.97" transform="translate(-257.61 757.92) rotate(-60.93)"/><path class="cls-12" d="M602.18,492.73S775.34,402.38,854,385.83c0,0,212.37-18.63,396-12.95-21.11,16.83-204.16,100.08-230.32,106.17S672.93,500.58,602.18,492.73Z"/><path class="cls-13" d="M961.23,461.35s70.13-44.5,77.33-47.14-137.62-2.47-137.62-2.47-68.17,41.95-72.69,46.52S961.23,461.35,961.23,461.35Z"/><path class="cls-14" d="M1252.23,372.36s27.24,302.53,7.21,380c-22,19.93-175.76,95.94-225.71,97.62C1027,815.4,1009,504.3,1021.9,478.54,1040,463.41,1176.85,396.54,1252.23,372.36Z"/><path class="cls-4" d="M602.18,492.73s-.45,155.11,9,268.59c3.64,43.73,47.23,84.86,54.38,86.26,16.53,14.15,392,16.95,413.31,1.47,0,0-41.92-30.83-43.53-91.23-2-75.47-10.63-187.92-13.46-279.28C1008,472,667.72,480.59,602.18,492.73Z"/><path class="cls-15" d="M963.62,305l6,114.21-100,6.23c-16.73.88-31.64-24-33.28-55.51s10.6-57.82,27.32-58.69c5.63-.3,11,2.32,15.85,7.13Z"/><path class="cls-16" d="M519.87,309s39,24.16,105,29.06c29.31,2.17,67.21-3.11,103.73-9.76,118.7-21.6,168.65-86.57,168.65-86.57S885,159.87,882,132.34,838.61,53,838.61,53Z"/><path class="cls-16" d="M1282.41,273.12s-20.66,41.92-97.24,42.53-189.31-23.21-189.31-23.21l-74.52-89.2Z"/><path class="cls-4" d="M852.63,69.8l38.94-2,5.74,127.84-38,2S860.75,112.75,852.63,69.8Z"/><polygon class="cls-17" points="859.29 197.6 886.05 230.27 913.2 228.85 897.32 195.61 859.29 197.6"/><polygon class="cls-18" points="829.56 199.15 933.74 193.71 936.68 377.64 837.78 380.49 829.56 199.15"/><path class="cls-19" d="M859.38,196.5l-1.61,22.12a3.76,3.76,0,0,1-1.37,2.7l-25.76,21.16a3.77,3.77,0,0,1-6.09-2.17l-1.21-6.07a3.74,3.74,0,0,1,.89-3.26l28.58-37.22A3.77,3.77,0,0,1,859.38,196.5Z"/><polygon class="cls-20" points="995.86 292.44 988.12 334.37 936.68 377.64 933.74 193.71 995.86 292.44"/><path class="cls-16" d="M898.79,198.73s2.84,21.05,7.43,24.16,63.84,25.17,70.79,25.76,4.79-15.25,4.79-15.25Z"/><path class="cls-21" d="M898.79,198.73s3.49,25.42,9.24,25.11c7.05,3,59.34,22.73,59.34,22.73"/><path class="cls-22" d="M1234.77,278c-45.48,0-118.89-11.61-196.38-31-33.63-8.44-65.19-17.75-88.87-26.23C918,209.46,910.4,203.3,908.94,201.87c-6.34-22.24-10-94.48-7-139.76a13.64,13.64,0,0,1,11.93-12.64,1196,1196,0,0,1,144.54-8.32,1472.83,1472.83,0,0,1,193.17,12.79,13.76,13.76,0,0,1,11.16,9.33c10.5,30.84,16.17,69.13,16.85,113.8a665.82,665.82,0,0,1-4.62,86.89,13.58,13.58,0,0,1-10.79,11.75c-7.67,1.53-17.55,2.31-29.36,2.31Z"/><path class="cls-23" d="M1058.38,51.15a1465.06,1465.06,0,0,1,191.81,12.69,3.85,3.85,0,0,1,3,2.65c10.17,29.85,15.66,67.11,16.32,110.73a655.6,655.6,0,0,1-4.55,85.54,3.59,3.59,0,0,1-2.82,3.14c-7,1.41-16.25,2.12-27.42,2.12-43.51,0-114.21-11-189.11-29.54-32.63-8.06-63.77-17.06-87.66-25.35-26-9-36.44-14.68-40.23-17.11-5.11-22.78-8.84-88.33-5.88-133.26a3.63,3.63,0,0,1,3.17-3.37,1186.25,1186.25,0,0,1,143.32-8.24m0-20c-45.62,0-95.39,2.22-145.75,8.39a23.66,23.66,0,0,0-20.7,21.91c-3,45.29.65,121.29,7.71,144.25,6.81,22.12,229,82.32,335.13,82.32,12.14,0,22.74-.78,31.35-2.51a23.6,23.6,0,0,0,18.74-20.35c4.31-35.61,12.44-131.33-12.69-205.12a23.81,23.81,0,0,0-19.25-16,1478.64,1478.64,0,0,0-194.54-12.88Z"/><polygon class="cls-18" points="846.97 409.28 854.12 457.39 960.97 453.81 948.73 405.86 846.97 409.28"/><polygon class="cls-20" points="996.29 378.64 1025.7 414.64 960.97 453.81 948.73 405.86 996.29 378.64"/><ellipse class="cls-24" cx="966.6" cy="362.09" rx="30.35" ry="57.18" transform="translate(-17.54 50.82) rotate(-2.98)"/><path class="cls-25" d="M858.46,194.46s.17,25-2.06,26.86l-25.76,21.16"/><path class="cls-22" d="M547,305.1a117.87,117.87,0,0,1-11.93-.56,13.11,13.11,0,0,1-11.4-10.3,666.58,666.58,0,0,1-12.71-86c-3.5-44.49-1.44-83.09,6.12-114.73a13.3,13.3,0,0,1,9.86-10C604.76,65.26,690.91,56,783,56c12.93,0,26.13.19,39.23.56a13.14,13.14,0,0,1,12.58,11c7.08,44,10.23,117.7,6,139.81-4.34,6.2-38.81,28.2-117.62,56.56C651.71,289.73,585.83,305.1,547,305.1Z"/><path class="cls-23" d="M783,66.49c12.83,0,25.92.19,38.92.56a2.65,2.65,0,0,1,2.51,2.22c7.16,44.51,9.57,110.24,6.58,133.1-3.27,2.76-12.6,9.48-36.32,20.86-22.05,10.58-50.4,22.15-79.82,32.58C646.36,280.1,583.6,294.6,547,294.6a105.07,105.07,0,0,1-10.84-.51A2.63,2.63,0,0,1,534,292a655.85,655.85,0,0,1-12.5-84.61C518,164,520,126.51,527.32,96a2.84,2.84,0,0,1,2-2.18c77-18.1,162.35-27.28,253.67-27.28h0m0-21c-129.85,0-218.49,18.44-258.46,27.83A23.83,23.83,0,0,0,506.9,91.06c-18.12,75.82-1.07,170.36,6.54,205.41A23.63,23.63,0,0,0,534,315a126.48,126.48,0,0,0,13,.62c93,0,299-81.27,304-105.33,4.88-23.52,1.39-99.53-5.81-144.34a23.64,23.64,0,0,0-22.65-19.87q-20.35-.59-39.53-.57Z"/><path class="cls-26" d="M1026.19,219.65c-18.69,0-36.45-7.76-50-21.85a81.6,81.6,0,0,1-22.43-54.13c-1.45-43.21,29.71-79.45,69.47-80.79.75,0,1.51,0,2.27,0,18.68,0,36.44,7.76,50,21.86a81.58,81.58,0,0,1,22.43,54.13c.71,21-6.21,41.06-19.47,56.35-13.1,15.11-30.86,23.79-50,24.43C1027.7,219.64,1026.94,219.65,1026.19,219.65Z"/><path class="cls-27" d="M1025.47,71.34c16.35,0,31.94,6.84,43.9,19.25a73.14,73.14,0,0,1,20.05,48.52c.64,18.9-5.54,36.84-17.39,50.5-11.54,13.31-27.11,20.94-43.86,21.51l-2,0c-16.35,0-32-6.84-43.91-19.25a73.1,73.1,0,0,1-20-48.52c-.64-18.9,5.54-36.84,17.39-50.5,11.54-13.31,27.12-20.94,43.86-21.5.66,0,1.33,0,2,0h0m0-17c-.85,0-1.71,0-2.56,0C978.4,55.88,943.63,96,945.24,144c1.58,47.05,37.57,84.2,81,84.2.84,0,1.7,0,2.55,0,44.51-1.5,79.28-41.6,77.67-89.57-1.57-47-37.57-84.2-80.94-84.2Z"/><path class="cls-26" d="M720.93,235.87c-18.68,0-36.45-7.76-50-21.85a81.61,81.61,0,0,1-22.42-54.14C647,116.67,678.19,80.43,717.94,79.1c.76,0,1.52,0,2.27,0,18.68,0,36.45,7.76,50,21.85A81.61,81.61,0,0,1,792.66,155c.71,21.06-6.21,41.07-19.47,56.36-13.1,15.11-30.86,23.79-50,24.43C722.44,235.85,721.68,235.87,720.93,235.87Z"/><path class="cls-27" d="M720.21,87.56c16.35,0,31.94,6.84,43.91,19.25a73.19,73.19,0,0,1,20,48.52c.63,18.9-5.55,36.84-17.4,50.5-11.53,13.31-27.11,20.94-43.86,21.5-.66,0-1.32,0-2,0-16.35,0-31.95-6.84-43.91-19.25a73.12,73.12,0,0,1-20-48.52c-.63-18.9,5.54-36.84,17.4-50.5,11.53-13.31,27.11-20.94,43.85-21.5.66,0,1.33,0,2,0h0m0-17c-.85,0-1.7,0-2.56,0-44.5,1.5-79.28,41.6-77.67,89.57,1.58,47.05,37.57,84.2,80.95,84.2.85,0,1.7,0,2.55-.05,44.51-1.49,79.29-41.59,77.68-89.56-1.58-47-37.57-84.2-80.95-84.2Z"/><ellipse class="cls-28" cx="969.01" cy="365.11" rx="13.19" ry="28.54" transform="translate(-11.7 32.71) rotate(-1.92)"/><path class="cls-29" d="M838.67,389.2C794,397.31,602.18,492.73,602.18,492.73s1.09,253.1,9,268.59c3.75,18.31,4.85,41.39,47.8,82.16,13.88,6.59,19.84,24.39,296.49,16"/><path class="cls-29" d="M996.58,376s245.25-8,255.65-3.67c0,0,15.37,210,13.63,222.57"/><ellipse class="cls-30" cx="733.49" cy="157.82" rx="30.08" ry="35.75" transform="translate(-4.88 24.7) rotate(-1.92)"/><ellipse class="cls-30" cx="1038.82" cy="142.81" rx="30.08" ry="35.75" transform="translate(-4.21 34.93) rotate(-1.92)"/><path class="cls-7" d="M1238,242.4,1156.63,440c-14.88,33.2-19.53,59,11.43,75.49h0c31.88,12.7,42.6-2.16,61.13-30.61l128-189.52a63.94,63.94,0,0,0-26.39-86.2h0C1299.85,192.69,1254.46,211.44,1238,242.4Z"/><path class="cls-8" d="M1231.57,257.36l-88,204.45c-14.88,33.2,54,73.33,72.55,44.88l128-189.52a63.93,63.93,0,0,0-26.38-86.2h0A63.94,63.94,0,0,0,1231.57,257.36Z"/><path class="cls-9" d="M1295.15,215.87s-10.07-3.9-28,5.16c-7.06-26.62-14.69-93-6.78-100,5.38-4.75,17.94-7.66,29.89-10,10.72-2.1,20.69,5.75,19.65,16.63-3.08,32.51-9.3,82.51-9.3,82.51Z"/><path class="cls-10" d="M1266.72,221.26c-7-26.62-22-89.88-14.07-96.87,5.38-4.75,17.79-8.85,29-11.77a15.69,15.69,0,0,1,19.65,16.63c-3.08,32.51-3.88,85.35-5.76,87.38C1283.13,213.14,1273.85,216.49,1266.72,221.26Z"/><path class="cls-9" d="M1335.31,231s-5.67-9.2-25.41-12.82c10.48-25.46,44.54-82.92,55.06-83.71,7.16-.53,18.92,4.74,29.86,10.11,9.81,4.82,13,17.09,5.59,25.13-22.12,24-57.32,60.09-57.32,60.09Z"/><path class="cls-10" d="M1309.4,218.05c10.49-25.47,36.87-84.87,47.39-85.66,7.16-.53,19.51,3.71,30.19,8.15a15.69,15.69,0,0,1,5.59,25.13c-22.12,24-54.71,65.62-57.44,66.1C1327.39,221.5,1318,218.56,1309.4,218.05Z"/><path class="cls-9" d="M1354.76,274s1.85-10.64-10.54-26.44c24.73-12.12,65.59-33.75,74-27.37,5.72,4.35,6.61,4.75,11.24,16,4.15,10.11-1.83,20-12.47,22.53a272.5,272.5,0,0,0-55.59,19.52Z"/><path class="cls-10" d="M1343.91,247.19c24.72-12.12,61.12-40.29,69.52-33.91,5.72,4.35,7.74,4.37,12.8,14.76,4.78,9.83-1.87,19.88-12.47,22.53-31.58,7.91-57.32,25.39-59.68,23.95C1355.09,261.7,1350,253.25,1343.91,247.19Z"/><path class="cls-9" d="M1241.54,235.61l18.23-9.57s2.45-6.41,2.86-7.85c2.29-8.13-33.81-64.42-45.07-57s-23.81,20.78-22.93,25.44c.1.59-.39,6.92-.39,6.92S1240.78,239.25,1241.54,235.61Z"/><path class="cls-10" d="M1238.69,243.46a43.85,43.85,0,0,1,9.48-10.66,74.75,74.75,0,0,1,11.6-6.76c7.43-4-33.81-64.41-45.07-57s-21.37,21.35-20.49,26S1237.82,247.62,1238.69,243.46Z"/><ellipse class="cls-11" cx="1285.7" cy="287.87" rx="22.52" ry="24.97" transform="translate(12.71 627.56) rotate(-27.56)"/><path class="cls-31" d="M934.05,573l-241.84,2.47a18,18,0,0,0-17.78,19.19L684,737.85a18,18,0,0,0,18.14,16.8l242.13-2.46A18,18,0,0,0,962,733L952.2,589.74A18,18,0,0,0,934.05,573Z"/><path class="cls-32" d="M938.18,579.82l-242.4,2a14,14,0,0,0-13.85,14.94l9.59,144a14,14,0,0,0,14.07,13.07L948,752.13a14,14,0,0,0,13.87-14.92l-9.58-144.32A14,14,0,0,0,938.18,579.82Z"/><path class="cls-33" d="M784.6,653.88l149.11-2.57a9,9,0,0,0,8.75-9.25l-3.16-42.32a9,9,0,0,0-9.24-8.75L781,593.56a9,9,0,0,0-8.75,9.24l3.15,42.33A9,9,0,0,0,784.6,653.88Z"/><ellipse class="cls-34" cx="907.08" cy="621.9" rx="17.42" ry="21.77" transform="translate(-25.49 38.92) rotate(-2.42)"/><ellipse class="cls-35" cx="854.47" cy="622.37" rx="17.42" ry="21.77" transform="translate(-25.56 36.69) rotate(-2.42)"/><ellipse class="cls-36" cx="802.99" cy="624.36" rx="17.42" ry="21.77" transform="translate(-25.69 34.52) rotate(-2.42)"/><path class="cls-37" d="M815.84,689.69l117.42-1.51a9.39,9.39,0,0,0,9.08-9.64h0a9.38,9.38,0,0,0-9.64-9.08L815.28,671a9.4,9.4,0,0,0-9.09,9.64h0A9.41,9.41,0,0,0,815.84,689.69Z"/><path class="cls-38" d="M884.86,745.33l52.14-1a9.4,9.4,0,0,0,9.09-9.64h0a9.4,9.4,0,0,0-9.65-9.08l-52.14,1a9.38,9.38,0,0,0-9.08,9.64h0A9.38,9.38,0,0,0,884.86,745.33Z"/><path class="cls-38" d="M883.11,719.11l52.14-1a9.4,9.4,0,0,0,9.09-9.64h0a9.41,9.41,0,0,0-9.64-9.09l-52.15,1a9.4,9.4,0,0,0-9.08,9.65h0A9.4,9.4,0,0,0,883.11,719.11Z"/><polygon class="cls-39" points="755.47 595.25 684.1 595.42 693.85 741.67 765.9 740.64 755.47 595.25"/><ellipse class="cls-40" cx="697.08" cy="611.66" rx="7.79" ry="9.02" transform="translate(-39.15 47.73) rotate(-3.81)"/><path class="cls-41" d="M696.48,602.67s-2.69,11.34,1.7,18"/><path class="cls-41" d="M704.85,611.15s-9.81,3-15.54,1"/><ellipse class="cls-42" cx="754.29" cy="728.61" rx="7.79" ry="9.02" transform="translate(-46.8 51.79) rotate(-3.81)"/><path class="cls-41" d="M753.69,719.61s-2.7,11.35,1.69,18"/><path class="cls-41" d="M762.05,728.09s-9.81,3-15.53,1"/><ellipse class="cls-43" cx="703.51" cy="728.99" rx="7.79" ry="9.02" transform="translate(-46.94 48.41) rotate(-3.81)"/><path class="cls-41" d="M702.91,720s-2.69,11.35,1.7,18"/><path class="cls-41" d="M711.27,728.47s-9.81,3-15.53,1"/><ellipse class="cls-44" cx="741.26" cy="610.78" rx="7.79" ry="9.02" transform="translate(-38.99 50.66) rotate(-3.81)"/><path class="cls-41" d="M740.66,601.79s-2.69,11.34,1.7,18"/><path class="cls-41" d="M749,610.27s-9.81,3-15.54,1"/><path class="cls-45" d="M942.34,678.54s-20.66-5-39.22,2.62-20.54-9.25-29.31-8.45-10,13.82-22,13.31-8.38-5.35-14-4.94-5.27,6.32-10.66,6-8.75-16.74-11.85-16.1"/><path class="cls-1" d="M939.79,919A125.33,125.33,0,0,1,944,898.3c8.14-28.36,33.52-114.2,56.69-165.92,13.66-30.46,21.88-51.29,29-66.87A130.16,130.16,0,0,1,1065.36,619c10.2-8.41,21.93-17.86,39.78-25.07,23.29-9.42,48.62-9.56,73.54-6.42,62.13,7.82,95.39,8.69,107.59,12.37,12.06,8,63.94,61.45,67.91,107,2.86,32.88.77,77.74-22,113.34s-114,206-154.69,210c-47.52,4.62-169.78-.65-205.69-26.1C939.6,981.27,936.12,951.82,939.79,919Z"/><path class="cls-2" d="M1155.44,1025.26c-16,0-29-3.73-39.87-11.41-29.21-20.7-32.79-46.43-29.18-78.69a119.61,119.61,0,0,1,3.94-19.6c7.36-25.62,33.17-113.25,56.36-165,7.54-16.83,13.55-31,18.38-42.4,4-9.4,7.42-17.51,10.58-24.44a124.24,124.24,0,0,1,33.84-44.07c9.18-7.56,20.6-17,38-24a118.38,118.38,0,0,1,44.62-8.57,126,126,0,0,1,25,2.52c42.75,8.67,72,28.74,84.56,37.31,1.16.79,2.16,1.48,3,2.05l1.55,1c7,4.64,21.61,14.3,34.92,28.07,16,16.56,24.86,33.61,26.35,50.67,2.67,30.63,1.21,74.41-20.9,109-10.06,15.73-50.25,53.29-100,93.46-51,41.16-94.75,71.11-111.45,76.29l-8.32,2.61C1204.29,1017.21,1178.79,1025.26,1155.44,1025.26Z"/><path d="M1292.11,614a119,119,0,0,1,23.59,2.38c41.38,8.39,69.87,27.91,82,36.24,1.18.81,2.21,1.52,3.09,2.1l1.57,1c6.81,4.51,21,13.88,33.76,27.11,14.88,15.39,23.1,31,24.45,46.48,4.66,53.57-8.22,86.51-19.85,104.72-9.54,14.93-50.06,52.68-98.53,91.81-49.6,40-93.47,70.2-109.16,75.07l-8.36,2.62c-22,7-47,14.83-69.27,14.83-14.51,0-26.25-3.32-35.88-10.15-12.49-8.84-20.44-19.19-24.3-31.65-3.34-10.77-4-23.3-2-40.64a113.64,113.64,0,0,1,3.72-18.47c7.33-25.51,33-112.74,56-164.09,7.57-16.89,13.6-31.11,18.44-42.53,4-9.35,7.38-17.42,10.5-24.26a117.26,117.26,0,0,1,32-41.61c8.81-7.26,19.77-16.3,36.18-22.93a111.7,111.7,0,0,1,42-8.07h0m0-13.78a126,126,0,0,0-47.22,9.07c-17.85,7.22-29.58,16.67-39.78,25.08a130.21,130.21,0,0,0-35.73,46.52c-7.1,15.59-15.32,36.41-29,66.88-23.17,51.72-48.55,137.56-56.69,165.92a125.22,125.22,0,0,0-4.17,20.73c-3.67,32.78-.19,62.24,32,85.08,13.09,9.27,28.13,12.68,43.85,12.68,27.41,0,56.89-10.36,81.71-18.07,39.06-12.12,192.49-137,215.22-172.62s24.83-80.46,22-113.34c-4-45.58-53.8-76.85-65.86-84.89-10.23-6.82-42-30.64-90-40.39a133,133,0,0,0-26.33-2.65Z"/><ellipse class="cls-3" cx="1361.82" cy="757.22" rx="73.34" ry="91.79" transform="translate(-13.9 25.57) rotate(-1.07)"/><ellipse class="cls-3" cx="1270.81" cy="889.5" rx="52.54" ry="65.76" transform="translate(-16.39 23.89) rotate(-1.07)"/><ellipse class="cls-3" cx="1167.11" cy="943.19" rx="41.35" ry="51.74" transform="translate(-17.41 21.96) rotate(-1.07)"/><ellipse class="cls-4" cx="1366.51" cy="757.13" rx="24.94" ry="34.29" transform="translate(-13.9 25.65) rotate(-1.07)"/><ellipse class="cls-4" cx="1273.19" cy="892.08" rx="21.53" ry="29.61" transform="matrix(0.97, -0.26, 0.26, 0.97, -187.77, 360.65)"/><ellipse class="cls-4" cx="1167.17" cy="946.72" rx="15.95" ry="21.94" transform="translate(-205.56 335.03) rotate(-15.03)"/><path class="cls-5" d="M1136.94,874.27s10.87-23.87,47-13.38c6-15.41,18.1-57,81.79-54.42-3.58-14-30.6-74.21,14.68-135.77-18.9-7.68-30.6-12.82-53.26,17.07S1134.13,867.18,1136.94,874.27Z"/><line class="cls-6" x1="1029.96" y1="664.78" x2="1172.84" y2="673.85"/><line class="cls-6" x1="1109.51" y1="592.27" x2="1268.56" y2="602.36"/><polyline class="cls-6" points="1291.23 603.8 1333.45 606.47 1333.46 606.47"/><line class="cls-6" x1="991.75" y1="753.54" x2="1134.07" y2="762.57"/><line class="cls-6" x1="961.1" y1="841.45" x2="1102.88" y2="850.44"/><line class="cls-6" x1="938.74" y1="932.22" x2="1078.89" y2="941.12"/></g><g id="wait"><ellipse class="cls-46" cx="686.17" cy="468.92" rx="24.05" ry="7.34" transform="translate(-88.59 168.14) rotate(-13.13)"/></g></svg>