<svg id="Layer_1" data-name="Layer 1" xmlns="http://www.w3.org/2000/svg" xmlns:xlink="http://www.w3.org/1999/xlink" viewBox="0 0 180 180"><defs><style>.cls-1{fill:#353535;stroke-width:0.23px;}.cls-1,.cls-15,.cls-17,.cls-25,.cls-46{stroke:#000;}.cls-1,.cls-15,.cls-17{stroke-linejoin:round;}.cls-10,.cls-11,.cls-2{fill:#4d4d4d;}.cls-3{fill:#b3b3b3;}.cls-4{fill:#d3161d;}.cls-5{fill:#adadad;stroke:#080000;stroke-width:0.31px;}.cls-10,.cls-11,.cls-16,.cls-18,.cls-20,.cls-21,.cls-25,.cls-29,.cls-40,.cls-41,.cls-42,.cls-43,.cls-44,.cls-45,.cls-46,.cls-5,.cls-6,.cls-7,.cls-8,.cls-9{stroke-miterlimit:10;}.cls-21,.cls-25,.cls-29,.cls-41,.cls-45,.cls-6{fill:none;}.cls-18,.cls-20,.cls-29,.cls-45,.cls-6,.cls-7{stroke:#070707;}.cls-6{stroke-width:0.48px;}.cls-7{fill:#77401b;}.cls-15,.cls-29,.cls-7,.cls-8{stroke-width:0.32px;}.cls-12,.cls-46,.cls-8{fill:#f8c946;}.cls-8{stroke:#020202;}.cls-26,.cls-9{fill:#282828;}.cls-10,.cls-11,.cls-9{stroke:#151616;}.cls-10,.cls-9{stroke-width:0.26px;}.cls-11{stroke-width:0.95px;}.cls-13{fill:#683919;}.cls-14,.cls-20{fill:#945320;}.cls-15{fill:#515051;}.cls-16,.cls-19{fill:#161616;}.cls-16,.cls-21,.cls-40,.cls-41,.cls-42,.cls-43,.cls-44{stroke:#0a0a0a;}.cls-16,.cls-17,.cls-18,.cls-20,.cls-21,.cls-25{stroke-width:0.27px;}.cls-17{fill:#8e8a8b;}.cls-18{fill:#e2b647;}.cls-22{fill:#dddbd7;}.cls-23{fill:#232323;}.cls-24{fill:#3a3a3a;}.cls-27{fill:#7c7c7c;}.cls-28{fill:#666;}.cls-30{fill:#389cce;}.cls-31{fill:#7f1119;}.cls-32{fill:#5e0e18;}.cls-33{fill:#352f49;}.cls-34{fill:#e41e00;}.cls-35{fill:#fffe28;}.cls-36{fill:#18ff08;}.cls-37{fill:#dbdddd;}.cls-38{fill:#0fb0db;}.cls-39{fill:#303435;}.cls-40,.cls-41,.cls-42,.cls-43,.cls-44,.cls-46{stroke-width:0.12px;}.cls-40{fill:url(#radial-gradient);}.cls-42{fill:url(#radial-gradient-2);}.cls-43{fill:url(#radial-gradient-3);}.cls-44{fill:url(#radial-gradient-4);}.cls-45{stroke-width:0.16px;}</style><radialGradient id="radial-gradient" cx="-569.58" cy="478.49" r="1.39" gradientTransform="matrix(0, 1.38, 1.38, 0, -536.9, 890.67)" gradientUnits="userSpaceOnUse"><stop offset="0.2" stop-color="#666"/><stop offset="0.57" stop-color="#585858"/><stop offset="1" stop-color="#4d4d4d"/></radialGradient><radialGradient id="radial-gradient-2" cx="-575.22" cy="464.71" r="1.39" gradientTransform="matrix(0, 1.38, 1.38, 0, -526.88, 917)" xlink:href="#radial-gradient"/><radialGradient id="radial-gradient-3" cx="-565.88" cy="466.21" r="1.39" gradientTransform="matrix(0, 1.38, 1.38, 0, -523.2, 905.88)" xlink:href="#radial-gradient"/><radialGradient id="radial-gradient-4" cx="-574.63" cy="478.26" r="1.39" gradientTransform="matrix(0, 1.38, 1.38, 0, -543.58, 897.51)" xlink:href="#radial-gradient"/></defs><title>bt_robot_awaked</title><path class="cls-1" d="M158.3,147.08a22.54,22.54,0,0,0-.66-3.29c-1.29-4.49-5.31-18.08-9-26.27-2.16-4.83-3.46-8.12-4.58-10.59a20.56,20.56,0,0,0-5.66-7.37,23,23,0,0,0-6.3-4c-3.68-1.49-7.69-1.51-11.64-1-9.83,1.24-15.09,1.38-17,2-1.9,1.28-10.12,9.73-10.74,17-.46,5.21-.13,12.31,3.47,17.95s18,32.62,24.48,33.25c7.53.73,26.88-.1,32.56-4.13C158.32,156.93,158.88,152.27,158.3,147.08Z"/><path class="cls-2" d="M124.16,163.9a10.64,10.64,0,0,0,6.31-1.81c4.63-3.28,5.19-7.35,4.62-12.46a19,19,0,0,0-.62-3.11c-1.17-4-5.25-17.93-8.92-26.12-1.2-2.67-2.15-4.91-2.91-6.71-.64-1.5-1.17-2.77-1.68-3.88a19.88,19.88,0,0,0-5.35-7,22.42,22.42,0,0,0-6-3.8,18.78,18.78,0,0,0-7.06-1.35,19.11,19.11,0,0,0-4,.39A35.9,35.9,0,0,0,85.16,104l-.71.49c-6.07,4-9.33,8.2-9.71,12.47-.42,4.85-.19,11.78,3.31,17.26,3.68,5.77,27.77,25.11,33.47,26.88l1.32.42C116.43,162.62,120.46,163.9,124.16,163.9Z"/><path d="M102.53,98.77h0a18.65,18.65,0,0,0-3.73.37,34.54,34.54,0,0,0-13,5.74l-.49.34-.25.16c-5.77,3.82-8.87,7.74-9.21,11.65-.41,4.68-.19,11.36,3.14,16.59,3.5,5.48,27.47,24.74,32.88,26.42l1.32.42c3.48,1.1,7.43,2.35,11,2.35a9.57,9.57,0,0,0,5.68-1.61c4.19-3,4.7-6.73,4.17-11.45a19.12,19.12,0,0,0-.59-2.92c-1.16-4-5.23-17.86-8.87-26-1.2-2.67-2.15-4.93-2.92-6.73-.63-1.48-1.17-2.76-1.66-3.85a18.55,18.55,0,0,0-5.06-6.58,20.82,20.82,0,0,0-5.72-3.64,17.68,17.68,0,0,0-6.66-1.27m0-2.19A19.74,19.74,0,0,1,110,98a22.75,22.75,0,0,1,6.3,4,20.56,20.56,0,0,1,5.66,7.37c1.12,2.47,2.42,5.77,4.58,10.59,3.67,8.19,7.69,21.78,9,26.27a23.09,23.09,0,0,1,.66,3.29c.58,5.19,0,9.85-5.08,13.47a11.75,11.75,0,0,1-6.94,2c-4.34,0-9-1.64-12.93-2.86-6.18-1.92-30.47-21.7-34.07-27.34s-3.93-12.74-3.47-18c.63-7.21,8.51-12.17,10.42-13.44A37.33,37.33,0,0,1,98.41,97a20.86,20.86,0,0,1,4.17-.43Z"/><ellipse class="cls-3" cx="91.49" cy="121.44" rx="14.53" ry="11.61" transform="translate(-31.64 210.64) rotate(-88.93)"/><ellipse class="cls-3" cx="105.9" cy="142.39" rx="10.41" ry="8.32" transform="translate(-38.45 245.61) rotate(-88.93)"/><ellipse class="cls-3" cx="122.31" cy="150.89" rx="8.19" ry="6.54" transform="translate(-30.83 270.36) rotate(-88.93)"/><ellipse class="cls-4" cx="90.74" cy="121.43" rx="5.43" ry="3.95" transform="translate(-32.37 209.89) rotate(-88.93)"/><ellipse class="cls-4" cx="105.51" cy="142.8" rx="4.69" ry="3.41" transform="translate(-59.74 207.72) rotate(-74.99)"/><ellipse class="cls-4" cx="122.29" cy="151.45" rx="3.47" ry="2.53" transform="translate(-55.66 230.35) rotate(-74.99)"/><path class="cls-5" d="M127.09,140s-1.72-3.78-7.45-2.12c-.94-2.44-2.86-9-12.94-8.62.56-2.22,4.84-11.75-2.33-21.5,3-1.22,4.85-2,8.43,2.7S127.53,138.86,127.09,140Z"/><line class="cls-6" x1="144.02" y1="106.81" x2="121.41" y2="108.25"/><line class="cls-6" x1="131.43" y1="95.33" x2="106.26" y2="96.93"/><polyline class="cls-6" points="102.67 97.16 95.99 97.58 95.98 97.58"/><line class="cls-6" x1="150.07" y1="120.87" x2="127.54" y2="122.3"/><line class="cls-6" x1="154.92" y1="134.79" x2="132.48" y2="136.21"/><line class="cls-6" x1="158.46" y1="149.16" x2="136.28" y2="150.57"/><path class="cls-7" d="M158.91,95.2l-31.6-12c-5.32-2.22-9.43-2.85-11.9,2.12h0c-1.88,5.1.52,6.74,5.1,9.55L151,114.31a10.12,10.12,0,0,0,13.52-4.54h0C167,104.8,163.87,97.7,158.91,95.2Z"/><path class="cls-8" d="M156.51,94.26,123.76,81.2c-5.32-2.22-11.38,8.85-6.8,11.67l30.56,19.46A10.11,10.11,0,0,0,161,107.8h0A10.12,10.12,0,0,0,156.51,94.26Z"/><path class="cls-9" d="M163.34,104.2s.57-1.62-.93-4.41c4.18-1.23,14.65-2.72,15.79-1.49.77.83,1.28,2.8,1.7,4.69a2.51,2.51,0,0,1-1.75,3.09,2.69,2.69,0,0,1-.8.09c-5.15-.35-13.09-1.13-13.09-1.13Z"/><path class="cls-10" d="M162.37,99.68c4.18-1.23,14.13-3.86,15.27-2.63a13.44,13.44,0,0,1,2,4.53,2.48,2.48,0,0,1-1.67,3.08,2.41,2.41,0,0,1-.88.1c-5.16-.35-13.52-.26-13.85-.55A5.24,5.24,0,0,0,162.37,99.68Z"/><path class="cls-9" d="M161.12,110.57s1.43-.93,1.92-4.07c4.08,1.55,13.31,6.7,13.48,8.37.11,1.13-.67,3-1.48,4.76a2.52,2.52,0,0,1-3.24,1.46,2.66,2.66,0,0,1-.76-.46c-3.9-3.4-9.75-8.82-9.75-8.82Z"/><path class="cls-10" d="M163.05,106.42c4.08,1.55,13.59,5.48,13.75,7.14a13.21,13.21,0,0,1-1.16,4.82,2.49,2.49,0,0,1-3.2,1.45,2.72,2.72,0,0,1-.75-.45c-3.9-3.4-10.61-8.39-10.7-8.82A5.22,5.22,0,0,0,163.05,106.42Z"/><path class="cls-9" d="M154.39,113.83s1.69.25,4.14-1.78c2,3.87,5.61,10.25,4.63,11.6-.66.93-.72,1.07-2.48,1.85a2.6,2.6,0,0,1-3.44-1.31,2.7,2.7,0,0,1-.18-.57,43.71,43.71,0,0,0-3.3-8.72Z"/><path class="cls-10" d="M158.59,112c2,3.87,6.63,9.51,5.65,10.87A4.57,4.57,0,0,1,162,125a2.57,2.57,0,0,1-3.42-1.24,2.31,2.31,0,0,1-.2-.63c-1.38-5-4.25-9-4-9.35A5.24,5.24,0,0,0,158.59,112Z"/><path class="cls-9" d="M160,95.75l1.59,2.85s1,.36,1.26.42c1.29.32,10-5.62,8.82-7.38s-3.39-3.68-4.12-3.52h-1.09S159.41,95.65,160,95.75Z"/><path class="cls-10" d="M158.76,95.33a7.11,7.11,0,0,1,1.73,1.46,12.36,12.36,0,0,1,1.11,1.81c.67,1.16,10.05-5.62,8.83-7.38s-3.47-3.29-4.2-3.13S158.08,95.2,158.76,95.33Z"/><ellipse class="cls-11" cx="151.9" cy="102.96" rx="3.95" ry="3.57" transform="translate(-30.92 87.13) rotate(-29.18)"/><path class="cls-12" d="M138.18,86.3S110.76,72,98.32,69.37c0,0-33.61-3-62.68-2C39,70,68,83.2,72.1,84.13S127,87.54,138.18,86.3Z"/><path class="cls-13" d="M81.35,81.33s-11.11-7-12.24-7.46,21.78-.4,21.78-.4,10.79,6.65,11.5,7.37S81.35,81.33,81.35,81.33Z"/><path class="cls-14" d="M35.29,67.2S31,115.1,34.15,127.37c3.47,3.15,27.81,15.19,35.72,15.46,1.07-5.48,3.92-54.74,1.87-58.82C68.88,81.66,47.22,71.07,35.29,67.2Z"/><path class="cls-4" d="M138.18,86.3s.07,24.56-1.43,42.53c-.58,6.93-7.48,13.44-8.61,13.66-2.62,2.24-62,2.69-65.42.23a19.3,19.3,0,0,0,6.89-14.44c.32-12,1.69-29.76,2.13-44.23C73.94,83,127.76,84.38,138.18,86.3Z"/><path class="cls-15" d="M81,56.57,80,74.66l15.83,1c2.65.14,5-3.79,5.27-8.79s-1.68-9.15-4.33-9.29a3.25,3.25,0,0,0-2.5,1.13Z"/><path class="cls-16" d="M151.2,57.2S145,61,134.59,61.81c-4.64.34-10.64-.5-16.42-1.55C99.38,56.84,91.48,46.55,91.48,46.55s1.93-13,2.4-17.32,7-12.48,7-12.48Z"/><path class="cls-16" d="M30.51,51.52s3.25,6.68,15.39,6.74,30-3.68,30-3.68L87.66,40.46Z"/><path class="cls-4" d="M98.67,19.55,92.37,19l-.91,20.24,6,.31S97.38,26.35,98.67,19.55Z"/><polygon class="cls-17" points="97.48 39.56 93.24 44.74 88.95 44.51 91.46 39.25 97.48 39.56"/><polygon class="cls-18" points="102.19 39.81 85.7 38.95 85.23 68.08 100.88 68.53 102.19 39.81"/><path class="cls-19" d="M97.47,39.39l.25,3.5a.62.62,0,0,0,.22.43L102,46.67a.61.61,0,0,0,.85,0,.64.64,0,0,0,.15-.31l.19-1a.58.58,0,0,0-.14-.52l-4.52-5.89a.6.6,0,0,0-.84-.12A.58.58,0,0,0,97.47,39.39Z"/><polygon class="cls-20" points="75.86 54.58 77.09 61.22 85.23 68.08 85.7 38.95 75.86 54.58"/><path class="cls-16" d="M91.23,39.74s-.45,3.34-1.18,3.83a95.51,95.51,0,0,1-11.2,4.08c-1.1.09-.76-2.42-.76-2.42Z"/><path class="cls-21" d="M91.23,39.74s-.55,4-1.46,4c-1.12.48-9.4,3.6-9.4,3.6"/><path class="cls-22" d="M38.05,52.3c17,0,48.93-9.09,51.57-12,1-3.51,1.59-15,1.11-22.14a2.16,2.16,0,0,0-1.88-2A186.28,186.28,0,0,0,66,14.79a231.63,231.63,0,0,0-30.58,2,2.16,2.16,0,0,0-1.76,1.47C29.78,29.57,31,44.26,31.69,50A2.17,2.17,0,0,0,33.4,51.9a24.12,24.12,0,0,0,4.65.37Z"/><path class="cls-23" d="M66,16.37a231.62,231.62,0,0,0-30.36,2,.58.58,0,0,0-.48.42c-3.74,11-2.55,25.4-1.87,31.08a.56.56,0,0,0,.45.5,23.32,23.32,0,0,0,4.34.34C44.94,50.71,56.13,49,68,46c11.45-2.83,18.43-5.51,20.24-6.71.81-3.59,1.4-14,.93-21.12a.57.57,0,0,0-.5-.53A184.89,184.89,0,0,0,66,16.36m0-3.16A189.27,189.27,0,0,1,89,14.53,3.73,3.73,0,0,1,92.31,18c.48,7.18-.1,19.21-1.22,22.85s-36.25,13-53,13a26.15,26.15,0,0,1-5-.39,3.75,3.75,0,0,1-3-3.23c-.68-5.64-2-20.79,2-32.48a3.74,3.74,0,0,1,3-2.53,231.4,231.4,0,0,1,30.79-2Z"/><polygon class="cls-18" points="99.43 73.08 98.3 80.7 81.39 80.14 83.32 72.54 99.43 73.08"/><polygon class="cls-20" points="75.79 68.23 71.14 73.93 81.39 80.14 83.32 72.54 75.79 68.23"/><ellipse class="cls-24" cx="80.49" cy="65.62" rx="9.05" ry="4.8" transform="translate(10.78 142.59) rotate(-87.02)"/><path class="cls-25" d="M97.61,39.07s0,4,.33,4.25L102,46.67"/><path class="cls-22" d="M146.9,56.59q.93,0,1.86-.09a2.1,2.1,0,0,0,1.81-1.63c1.23-5.7,3.81-20.2,1-31.79A2.13,2.13,0,0,0,150,21.5a177.69,177.69,0,0,0-40.53-4.36c-2,0-4.14,0-6.21.09a2.08,2.08,0,0,0-2,1.75c-1.12,7-1.62,18.64-1,22.14C102.6,44.5,132.91,56.59,146.9,56.59Z"/><path class="cls-23" d="M109.55,15.48V18.8c-2,0-4.1,0-6.16.09a.42.42,0,0,0-.4.35c-1.13,7.07-1.51,17.5-1,21.1,3.77,3.43,31.31,14.59,44.91,14.59a11.55,11.55,0,0,0,1.72-.08.44.44,0,0,0,.35-.33c1.21-5.59,3.74-19.79,1.05-31a.44.44,0,0,0-.32-.35,176.68,176.68,0,0,0-40.15-4.32V15.48m0,0a175.44,175.44,0,0,1,40.91,4.41,3.77,3.77,0,0,1,2.8,2.8c2.86,12,.17,27-1,32.53a3.73,3.73,0,0,1-3.29,3,20.49,20.49,0,0,1-2.07.1c-14.72,0-47.32-12.87-48.11-16.68s-.22-15.76.92-22.86a3.72,3.72,0,0,1,3.58-3.14q3.21-.09,6.26-.09Z"/><path class="cls-26" d="M71.06,43.06c6.21,0,11.24-5.29,11.47-12s-4.7-12.58-11-12.79h-.36c-6.21,0-11.24,5.28-11.47,12a12.86,12.86,0,0,0,3.06,8.93,10.9,10.9,0,0,0,7.91,3.87Z"/><path class="cls-27" d="M71.18,19.57h0c-5.48,0-9.92,4.72-10.12,10.73s4.14,11.22,9.7,11.41h.31C76.55,41.71,81,37,81.2,31s-4.15-11.22-9.7-11.4h-.31m0-2.69h.4c7,.23,12.55,6.58,12.3,14.18s-6,13.33-12.82,13.33h-.4c-7-.24-12.55-6.59-12.29-14.19s5.94-13.33,12.81-13.33Z"/><path class="cls-26" d="M119.38,45.62c6.2,0,11.24-5.28,11.47-12a12.93,12.93,0,0,0-3.09-8.95,10.92,10.92,0,0,0-7.92-3.87h-.36c-6.2,0-11.24,5.29-11.46,12a12.83,12.83,0,0,0,3.08,8.92A10.9,10.9,0,0,0,119,45.59Z"/><path class="cls-27" d="M119.49,22.14h0c-5.47,0-9.92,4.71-10.12,10.73s4.15,11.22,9.7,11.4h.31c5.47,0,9.92-4.71,10.12-10.73s-4.14-11.21-9.74-11.4h-.32m0-2.69h.41c7,.24,12.55,6.59,12.29,14.19S126.2,47,119.33,47h-.4c-7.05-.23-12.55-6.58-12.3-14.18.25-7.45,6-13.33,12.81-13.33Z"/><ellipse class="cls-28" cx="80.11" cy="66.09" rx="4.52" ry="2.09" transform="translate(11.38 143.94) rotate(-88.08)"/><path class="cls-29" d="M100.76,69.91c7,1.29,37.42,16.39,37.42,16.39s-.18,40.08-1.43,42.53c-.6,2.9-.77,6.56-7.57,13-2.2,1-3.14,3.86-46.93,2.54"/><path class="cls-29" d="M75.76,67.82s-38.82-1.27-40.46-.58c0,0-2.44,33.26-2.16,35.24"/><ellipse class="cls-30" cx="117.39" cy="33.27" rx="5.66" ry="4.76" transform="translate(80.21 149.47) rotate(-88.08)"/><ellipse class="cls-30" cx="69.06" cy="30.88" rx="5.66" ry="4.76" transform="translate(35.88 98.86) rotate(-88.08)"/><path class="cls-7" d="M37.54,46.66,50.42,77.94c2.35,5.26,3.09,9.35-1.81,12h0c-5,2-6.74-.34-9.68-4.85l-20.26-30a10.12,10.12,0,0,1,4.18-13.65h0C27.76,38.79,34.93,41.76,37.54,46.66Z"/><path class="cls-8" d="M38.56,49,52.48,81.4C54.84,86.66,43.93,93,41,88.51l-20.24-30a10.12,10.12,0,0,1,4.17-13.65h0A10.12,10.12,0,0,1,38.56,49Z"/><path class="cls-9" d="M28.49,42.46s1.6-.62,4.43.82C34,39.06,35.25,28.55,34,27.45c-.86-.76-2.84-1.22-4.74-1.59a2.51,2.51,0,0,0-3.11,2.63c.49,5.15,1.48,13.07,1.48,13.07Z"/><path class="cls-10" d="M33,43.31C34.11,39.1,36.47,29.08,35.22,28a13,13,0,0,0-4.59-1.86,2.47,2.47,0,0,0-3,1.75,2.37,2.37,0,0,0-.07.88c.49,5.15.62,13.52.92,13.84A5.19,5.19,0,0,1,33,43.31Z"/><path class="cls-9" d="M22.14,44.85s.89-1.46,4-2c-1.66-4-7-13.14-8.72-13.26-1.13-.08-3,.75-4.72,1.6a2.51,2.51,0,0,0-1.33,3.3,2.24,2.24,0,0,0,.44.7c3.5,3.81,9.07,9.52,9.07,9.52Z"/><path class="cls-10" d="M26.24,42.8c-1.66-4-5.84-13.44-7.5-13.56A13,13,0,0,0,14,30.53a2.48,2.48,0,0,0-1.37,3.24,2.33,2.33,0,0,0,.48.76c3.5,3.8,8.66,10.39,9.09,10.47A5.2,5.2,0,0,1,26.24,42.8Z"/><path class="cls-9" d="M19.06,51.67s-.29-1.69,1.67-4.19C16.81,45.56,10.34,42.14,9,43.15c-.91.68-1,.75-1.78,2.53a2.59,2.59,0,0,0,1.4,3.4,3,3,0,0,0,.6.17A42.39,42.39,0,0,1,18,52.34Z"/><path class="cls-10" d="M20.76,47.42c-3.92-1.92-9.68-6.38-11-5.37a4.5,4.5,0,0,0-2,2.34,2.55,2.55,0,0,0,1.32,3.37,2.64,2.64,0,0,0,.68.19c5,1.25,9.07,4,9.45,3.8A5.15,5.15,0,0,1,20.76,47.42Z"/><path class="cls-9" d="M37,45.58l-2.89-1.51s-.39-1-.45-1.24c-.36-1.29,5.35-10.2,7.13-9s3.77,3.29,3.63,4c0,.1.07,1.1.07,1.1S37.1,46.2,37,45.58Z"/><path class="cls-10" d="M37.43,46.83a7.11,7.11,0,0,0-1.5-1.69,12.08,12.08,0,0,0-1.84-1.07c-1.17-.64,5.35-10.2,7.14-9s3.38,3.38,3.24,4.12S37.57,47.48,37.43,46.83Z"/><ellipse class="cls-11" cx="29.99" cy="53.84" rx="3.95" ry="3.56" transform="translate(-31.61 55.62) rotate(-62.54)"/><path class="cls-31" d="M85.65,99l38.28.39a2.82,2.82,0,0,1,2.81,2.86v.14l-1.51,22.67a2.84,2.84,0,0,1-2.87,2.66L84,127.35a2.85,2.85,0,0,1-2.82-2.89s0-.07,0-.11l1.54-22.69A2.82,2.82,0,0,1,85.65,99Z"/><path class="cls-32" d="M85,100.09l38.37.31a2.2,2.2,0,0,1,2.19,2.22v.15L124,125.56a2.22,2.22,0,0,1-2.22,2.07l-38.37-.25a2.22,2.22,0,0,1-2.2-2.23.66.66,0,0,1,0-.14l1.51-22.81A2.21,2.21,0,0,1,85,100.09Z"/><path class="cls-33" d="M109.3,111.82l-23.6-.41A1.43,1.43,0,0,1,84.32,110l.5-6.71a1.43,1.43,0,0,1,1.46-1.38l23.6.41a1.43,1.43,0,0,1,1.39,1.46l-.5,6.7A1.45,1.45,0,0,1,109.3,111.82Z"/><ellipse class="cls-34" cx="89.91" cy="106.74" rx="3.45" ry="2.76" transform="translate(-20.53 192.07) rotate(-87.58)"/><ellipse class="cls-35" cx="98.23" cy="106.82" rx="3.45" ry="2.76" transform="translate(-12.64 200.46) rotate(-87.58)"/><ellipse class="cls-36" cx="106.38" cy="107.14" rx="3.45" ry="2.76" transform="translate(-5.15 208.9) rotate(-87.58)"/><path class="cls-37" d="M104.36,117.49l-18.59-.24a1.48,1.48,0,0,1-1.43-1.53h0a1.48,1.48,0,0,1,1.52-1.44l18.59.24a1.48,1.48,0,0,1,1.43,1.53h0A1.5,1.5,0,0,1,104.36,117.49Z"/><path class="cls-38" d="M93.43,126.3l-8.25-.15a1.51,1.51,0,0,1-1.44-1.53h0a1.48,1.48,0,0,1,1.53-1.44l8.25.15A1.51,1.51,0,0,1,95,124.86h0A1.49,1.49,0,0,1,93.43,126.3Z"/><path class="cls-38" d="M93.71,122.2,85.46,122A1.48,1.48,0,0,1,84,120.52h0a1.48,1.48,0,0,1,1.52-1.44h0l8.21.12a1.51,1.51,0,0,1,1.44,1.53h0A1.51,1.51,0,0,1,93.71,122.2Z"/><polygon class="cls-39" points="113.91 102.53 125.21 102.56 123.67 125.72 112.26 125.56 113.91 102.53"/><ellipse class="cls-40" cx="123.16" cy="105.13" rx="1.43" ry="1.23" transform="translate(10.1 221.06) rotate(-86.2)"/><path class="cls-41" d="M123.25,103.71a4.34,4.34,0,0,1-.27,2.84"/><path class="cls-41" d="M121.93,105.05a5.21,5.21,0,0,0,2.45.16"/><ellipse class="cls-42" cx="114.1" cy="123.65" rx="1.43" ry="1.23" transform="translate(-16.84 229.31) rotate(-86.2)"/><path class="cls-41" d="M114.2,122.2a4.41,4.41,0,0,1-.27,2.84"/><path class="cls-41" d="M112.87,123.57a5.25,5.25,0,0,0,2.46.16"/><ellipse class="cls-43" cx="121.42" cy="123.54" rx="1.43" ry="1.23" transform="translate(-10.3 236.04) rotate(-86)"/><path class="cls-41" d="M122.23,122.29a4.34,4.34,0,0,1-.27,2.84"/><path class="cls-41" d="M120.91,123.63a5.25,5.25,0,0,0,2.46.16"/><ellipse class="cls-44" cx="116.17" cy="104.99" rx="1.43" ry="1.23" transform="translate(3.71 213.94) rotate(-86.2)"/><path class="cls-41" d="M116.26,103.57a4.41,4.41,0,0,1-.27,2.84"/><path class="cls-41" d="M114.93,104.91a5.26,5.26,0,0,0,2.46.17"/><path class="cls-45" d="M84.34,115.72a11.29,11.29,0,0,1,6.2.42c2.94,1.21,3.25-1.47,4.64-1.34s1.58,2.19,3.48,2.11,1.33-.85,2.22-.79.84,1,1.69,1,1.39-2.65,1.88-2.55"/><path class="cls-1" d="M84.76,153.81a20.18,20.18,0,0,0-.66-3.29c-1.29-4.49-5.31-18.08-9-26.27-2.17-4.83-3.47-8.12-4.59-10.59a20.56,20.56,0,0,0-5.66-7.37,22.93,22.93,0,0,0-6.29-4,23,23,0,0,0-11.64-1c-9.84,1.24-15.1,1.38-17,2-1.91,1.28-10.12,9.73-10.75,17-.45,5.21-.12,12.31,3.48,18s18,32.62,24.48,33.25c7.52.73,26.87-.1,32.56-4.13C84.76,163.66,85.32,159,84.76,153.81Z"/><path class="cls-2" d="M50.61,170.63a10.57,10.57,0,0,0,6.31-1.81c4.62-3.28,5.19-7.35,4.62-12.46a20.28,20.28,0,0,0-.63-3.1c-1.16-4.06-5.25-17.94-8.92-26.13-1.19-2.66-2.14-4.9-2.9-6.7-.64-1.51-1.18-2.78-1.68-3.89a19.79,19.79,0,0,0-5.36-7,22.17,22.17,0,0,0-6-3.8A18.63,18.63,0,0,0,29,104.39a19.11,19.11,0,0,0-4,.4,35.6,35.6,0,0,0-13.38,5.9l-.73.49c-2.26,1.5-9.13,6-9.69,12.47C.76,128.5,1,135.43,4.49,140.91,8.17,146.68,32.25,166,38,167.8l1.31.41C42.88,169.35,46.91,170.63,50.61,170.63Z"/><path d="M29,105.5h0a18.65,18.65,0,0,0-3.73.37,34.54,34.54,0,0,0-13,5.74l-.49.34-.25.16c-5.77,3.82-8.87,7.74-9.21,11.65-.41,4.69-.2,11.36,3.14,16.59,3.5,5.48,27.46,24.74,32.87,26.42l1.32.42c3.49,1.1,7.44,2.35,11,2.35a9.52,9.52,0,0,0,5.67-1.61c4.19-3,4.7-6.72,4.17-11.45a17,17,0,0,0-.59-2.92c-1.16-4-5.22-17.86-8.87-26-1.19-2.67-2.15-4.92-2.91-6.73-.63-1.48-1.17-2.76-1.67-3.85a18.52,18.52,0,0,0-5.05-6.58,20.84,20.84,0,0,0-5.73-3.63A17.5,17.5,0,0,0,29,105.49m0-2.18a20,20,0,0,1,7.48,1.43,22.93,22.93,0,0,1,6.29,4,20.56,20.56,0,0,1,5.66,7.37c1.12,2.47,2.43,5.77,4.59,10.59,3.66,8.19,7.68,21.78,9,26.27a20.18,20.18,0,0,1,.66,3.29c.58,5.19,0,9.85-5.07,13.47a11.75,11.75,0,0,1-6.94,2c-4.34,0-9-1.64-12.94-2.86C31.53,167,7.25,147.17,3.65,141.53s-3.93-12.74-3.48-18c.63-7.21,8.52-12.17,10.43-13.44a37.41,37.41,0,0,1,14.16-6.4,20.75,20.75,0,0,1,4.16-.42Z"/><ellipse class="cls-3" cx="17.94" cy="128.17" rx="14.53" ry="11.61" transform="translate(-110.55 143.71) rotate(-88.93)"/><ellipse class="cls-3" cx="32.34" cy="149.12" rx="10.41" ry="8.32" transform="translate(-117.35 178.67) rotate(-88.93)"/><ellipse class="cls-3" cx="48.75" cy="157.62" rx="8.19" ry="6.54" transform="translate(-109.76 203.42) rotate(-88.93)"/><ellipse class="cls-4" cx="17.2" cy="128.16" rx="5.43" ry="3.95" transform="translate(-111.26 142.96) rotate(-88.93)"/><ellipse class="cls-4" cx="31.96" cy="149.53" rx="4.69" ry="3.41" transform="translate(-120.74 141.68) rotate(-74.99)"/><ellipse class="cls-4" cx="48.74" cy="158.18" rx="3.47" ry="2.53" transform="translate(-116.66 164.29) rotate(-74.99)"/><path class="cls-5" d="M53.53,146.72s-1.72-3.78-7.44-2.12c-1-2.44-2.87-9-13-8.62.57-2.22,4.85-11.75-2.32-21.5,3-1.21,4.84-2,8.43,2.7S54,145.59,53.53,146.72Z"/><line class="cls-6" x1="70.47" y1="113.54" x2="47.85" y2="114.98"/><line class="cls-6" x1="57.88" y1="102.06" x2="32.7" y2="103.66"/><polyline class="cls-6" points="29.11 103.89 22.43 104.31 22.43 104.31"/><line class="cls-6" x1="76.51" y1="127.6" x2="53.99" y2="129.03"/><line class="cls-6" x1="81.37" y1="141.52" x2="58.92" y2="142.94"/><line class="cls-6" x1="84.9" y1="155.89" x2="62.72" y2="157.3"/><line class="cls-41" x1="96.34" y1="39.08" x2="91.73" y2="38.68"/><ellipse class="cls-46" cx="127.09" cy="83.16" rx="0.85" ry="2.79" transform="translate(17.22 188.02) rotate(-76.86)"/></svg>