<svg id="Capa_1" data-name="Capa 1" xmlns="http://www.w3.org/2000/svg" viewBox="0 0 290.14 290.14"><defs><style>.cls-1{fill:#fefdf9;}</style></defs><title>duration_double</title><path class="cls-1" d="M100.3,0V173.51A53.22,53.22,0,0,0,80,169.58c-17.46,0-35.26,7.8-48.86,21.39-25.34,25.35-28.51,63.41-7.07,84.85,9.23,9.24,22,14.32,36,14.32,17.46,0,35.26-7.8,48.85-21.39,11.85-11.84,19.31-26.84,21-42.23a57.84,57.84,0,0,0,.36-6.54h0V60h120V173.51A53.22,53.22,0,0,0,230,169.58c-17.46,0-35.26,7.8-48.85,21.39-25.35,25.35-28.52,63.41-7.08,84.85,9.23,9.24,22,14.32,36,14.32,17.46,0,35.26-7.8,48.86-21.39,11.84-11.84,19.3-26.84,21-42.23a57.84,57.84,0,0,0,.36-6.54h0V0Z"/></svg>