<svg id="Group_2" data-name="Group 2" xmlns="http://www.w3.org/2000/svg" viewBox="0 0 643 693"><defs><style>.cls-1{fill:#821308;}.cls-1,.cls-3{stroke:#7a1309;}.cls-2{fill:#a01d08;}.cls-3{fill:none;}.cls-4{fill:#c63502;}.cls-5{fill:#e54100;}.cls-6{fill:#fff;}</style></defs><title>close</title><ellipse class="cls-1" cx="321.5" cy="346.5" rx="321.5" ry="344.5"/><g id="Ellipse_1_copy_8" data-name="Ellipse 1 copy 8"><path class="cls-2" d="M320.5,17.7c-96.37,0-182.29,44.78-238.16,114.69-1.45,1.81,14.73,21.66,24.16,32.92a1.46,1.46,0,0,1-1.92,2.16c-12-7.82-32.91-20.93-34.32-18.91A304.24,304.24,0,0,0,15.63,323c0,11.4.62,69.66,1.84,80.73C25.86,480.18,68.75,556,126,606c1.55,1.35.23-40.94,0-47.22a1.43,1.43,0,0,1,.61-1.23l26.57-18.86a1.46,1.46,0,0,1,2.21,1.69l-11.34,31.4a1.63,1.63,0,0,0-.09.45c-.08,3.46-1,44.59,2,46.77,49.58,36.41,106.07,56.3,174.5,56.3,151.77,0,277.64-110.13,301-255.46.19-1.21-17.34-10.28-30.93-17.11a1.46,1.46,0,0,1,1.07-2.7c13.82,4.1,31.24,9,31.37,8,.19-1.58.46-2.59.63-4.17,1.15-10.79,1.74-69.74,1.74-80.83C625.37,154.39,488.88,17.7,320.5,17.7Z"/><path class="cls-3" d="M320.5,17.7c-96.37,0-182.29,44.78-238.16,114.69-1.45,1.81,14.73,21.66,24.16,32.92a1.46,1.46,0,0,1-1.92,2.16c-12-7.82-32.91-20.93-34.32-18.91A304.24,304.24,0,0,0,15.63,323c0,11.4.62,69.66,1.84,80.73C25.86,480.18,68.75,556,126,606c1.55,1.35.23-40.94,0-47.22a1.43,1.43,0,0,1,.61-1.23l26.57-18.86a1.46,1.46,0,0,1,2.21,1.69l-11.34,31.4a1.63,1.63,0,0,0-.09.45c-.08,3.46-1,44.59,2,46.77,49.58,36.41,106.07,56.3,174.5,56.3,151.77,0,277.64-110.13,301-255.46.19-1.21-17.34-10.28-30.93-17.11a1.46,1.46,0,0,1,1.07-2.7c13.82,4.1,31.24,9,31.37,8,.19-1.58.46-2.59.63-4.17,1.15-10.79,1.74-69.74,1.74-80.83C625.37,154.39,488.88,17.7,320.5,17.7Z"/></g><g id="Ellipse_1_copy_2" data-name="Ellipse 1 copy 2"><path class="cls-4" d="M320.5,17.09C224,17.09,138,61.89,82,131.85c-1.92,2.4,30,41.15,30,41.15s-39.88-28.17-41.91-25.27a306.31,306.31,0,0,0,52.79,408.56c4,3.4,31.27-14,31.27-14s-10.3,30.42-5.81,33.5A303.83,303.83,0,0,0,320.5,628.91C457.2,628.91,572.93,539,611.93,415c.8-2.54-34.93-19-34.93-19s37.28,11.84,38,9c6.18-24.26,11-55.81,11-82C626,154.05,489.21,17.09,320.5,17.09Z"/></g><g id="Ellipse_1_copy_3" data-name="Ellipse 1 copy 3"><path class="cls-5" d="M320.5,42.55A279.42,279.42,0,0,0,100.68,149.22C98.79,151.61,126,183,126,183s-36.75-18.32-39.53-14.1a280.81,280.81,0,0,0,52.86,368C143,540,168,524,168,524s-9.45,27.89-5.33,30.71A278.54,278.54,0,0,0,320.5,603.45c125.23,0,231.26-82.31,267.09-195.85C588.49,404.73,570,394,570,394s22.27-2.88,23.19-6.82A281.58,281.58,0,0,0,600.55,323C600.55,168.11,475.17,42.55,320.5,42.55Z"/></g><g id="Rectangle_2_copy_3" data-name="Rectangle 2 copy 3"><polygon class="cls-6" points="415.31 302.44 441.75 270.54 436.96 258.7 451.4 258.9 429.44 250.57 460.82 247.54 499.42 200.97 403.81 121.1 320.61 221.48 220.55 135.92 141.9 233.03 211.91 292.88 245.62 291.46 222.36 301.81 240.9 317.66 156.75 419.21 252.37 499 335.6 398.6 372.93 430.52 388.46 423.47 389.3 444.51 395.49 440.46 399.83 453.51 435.43 483.94 514 386.83 415.31 302.44"/></g></svg>