<svg id="Layer_1" data-name="Layer 1" xmlns="http://www.w3.org/2000/svg" viewBox="0 0 463 949"><defs><style>.cls-1{fill:#9b9b9b;}.cls-2{fill:#e8e8e8;}.cls-3{fill:#be4245;}.cls-4{fill:#eb514a;}</style></defs><title>sidebar2</title><path class="cls-1" d="M30.32,156h403a30,30,0,0,1,30,30V949a0,0,0,0,1,0,0H.32a0,0,0,0,1,0,0V186A30,30,0,0,1,30.32,156Z"/><path class="cls-2" d="M30.32,139h403a30,30,0,0,1,30,30V932a0,0,0,0,1,0,0H.32a0,0,0,0,1,0,0V169A30,30,0,0,1,30.32,139Z"/><path class="cls-3" d="M26.32,129H419.65a36.78,36.78,0,0,0,36.67-36.67l-3-58.33a18.05,18.05,0,0,0-18-18l-402-6a18.07,18.07,0,0,0-18,17.07c0,.62-.06,1.24-.14,1.86L8.64,108.54A17.82,17.82,0,0,0,26.32,129Z"/><path class="cls-4" d="M26.32,119H419.65a36.78,36.78,0,0,0,36.67-36.67l-3-58.33a18.05,18.05,0,0,0-18-18l-402-6a18.07,18.07,0,0,0-18,17.07c0,.62-.06,1.24-.14,1.86L8.64,98.54A17.82,17.82,0,0,0,26.32,119Z"/></svg>