<svg id="Layer_1" data-name="Layer 1" xmlns="http://www.w3.org/2000/svg" viewBox="0 0 464.36 355.92"><defs><style>.cls-1{fill:#009444;}.cls-2{fill:#39b54a;}</style></defs><title>success</title><path class="cls-1" d="M464.36,56.45a12.89,12.89,0,0,1-3.79,8.64l-287,287a13,13,0,0,1-18.39,0L3.78,200.14a13,13,0,0,1-3.59-6.91A12.87,12.87,0,0,1,0,191.59v-1.24c.15-3.12,0-9.53,0-9.53l17.36-12.6,19.15-19.14a13,13,0,0,1,18.4,0L155.52,250.27a13,13,0,0,0,18.4,0L409.85,14.37a13,13,0,0,1,18.37,0l21,21h-.55L464.36,45Z"/><path class="cls-2" d="M3.79,189.58,155.16,341.53a13,13,0,0,0,18.39,0l287-287a13,13,0,0,0,0-18.38L428.23,3.81a13,13,0,0,0-18.38,0L173.93,239.73a13,13,0,0,1-18.4,0L54.91,138.54a13,13,0,0,0-18.4,0L3.8,171.22A13,13,0,0,0,3.79,189.58Z"/></svg>