<svg xmlns="http://www.w3.org/2000/svg" viewBox="0 0 643 693"><defs><style>.cls-1{fill:#00371f;}.cls-2{fill:#006f3f;}.cls-3{fill:#01bc6b;}.cls-4{fill:#00ed86;}.cls-5{fill:#fff;}.cls-6{fill:#e8fef4;}</style></defs><title>yes</title><g id="Group_2" data-name="Group 2"><g id="Ellipse_1_copy_6" data-name="Ellipse 1 copy 6"><path class="cls-1" d="M320.5,691.57a320.14,320.14,0,0,1-318-285C1.22,394.9.57,333.16.57,321.81a319.93,319.93,0,1,1,639.86,0c0,11.44-.61,73.5-1.83,84.88A319.22,319.22,0,0,1,320.5,691.57Z"/><path d="M320.5,1.79a319.68,319.68,0,0,1,319.57,320c0,11.44-.62,73.48-1.83,84.84a319.62,319.62,0,0,1-635.38-.1C1.58,394.88.93,333.15.93,321.81A319.41,319.41,0,0,1,320.5,1.79m0-.73C143.61,1.06.2,144.67.2,321.81c0,12,.66,73.18,1.94,84.82C19.75,567.1,155.57,691.94,320.5,691.94c165.26,0,301.29-124.29,318.47-285.21,1.21-11.33,1.83-73.27,1.83-84.92C640.8,144.67,497.39,1.06,320.5,1.06Z"/></g><g id="Ellipse_1_copy_8" data-name="Ellipse 1 copy 8"><path class="cls-2" d="M320.5,17.7c-96.37,0-182.29,44.78-238.16,114.69C80.3,134.93,113,173,113,173s-40.75-27.29-42.74-24.44A304.24,304.24,0,0,0,15.63,323c0,11.4.62,69.66,1.84,80.73C25.86,480.18,68.75,556,126,606c1.67,1.46,0-48,0-48l31-22-13,36s-1.1,44.72,2,47c49.58,36.41,106.07,56.3,174.5,56.3,151.77,0,277.64-110.13,301-255.46C621.81,417.87,575,395,575,395s47.78,14.78,48,13c.19-1.58.46-2.59.63-4.17,1.15-10.79,1.74-69.74,1.74-80.83C625.37,154.39,488.88,17.7,320.5,17.7Z"/></g><g id="Ellipse_1_copy_2" data-name="Ellipse 1 copy 2"><path class="cls-3" d="M320.5,17.09C224,17.09,138,61.89,82,131.85c-1.92,2.4,30,41.15,30,41.15s-39.88-28.17-41.91-25.27a306.31,306.31,0,0,0,52.79,408.56c4,3.4,31.27-14,31.27-14s-10.3,30.42-5.81,33.5A303.83,303.83,0,0,0,320.5,628.91C457.2,628.91,572.93,539,611.93,415c.8-2.54-34.93-19-34.93-19s37.28,11.84,38,9c6.18-24.26,11-55.81,11-82C626,154.05,489.21,17.09,320.5,17.09Z"/></g><g id="Ellipse_1_copy_3" data-name="Ellipse 1 copy 3"><path class="cls-4" d="M320.5,42.55A279.42,279.42,0,0,0,100.68,149.22C98.79,151.61,126,183,126,183s-36.75-18.32-39.53-14.1a280.81,280.81,0,0,0,52.86,368C143,540,168,524,168,524s-9.45,27.89-5.33,30.71A278.54,278.54,0,0,0,320.5,603.45c125.23,0,231.26-82.31,267.09-195.85C588.49,404.73,570,394,570,394s22.27-2.88,23.19-6.82A281.58,281.58,0,0,0,600.55,323C600.55,168.11,475.17,42.55,320.5,42.55Z"/></g></g><g id="Group_1" data-name="Group 1"><g id="Shape_1" data-name="Shape 1"><path class="cls-5" d="M405.4,175.23c-8,10.55-17,24.7-26.25,40.35C378,217.53,395,241,395,241s-20.61-17.31-21.26-16.2C342,279.4,307.72,346.54,294,345c-5.79-4.67-9.07-6.69-17.09-22.09C276.12,321.38,274,334,274,334s-1.2-19.29-2.05-21.08c-6.31-13.15-15-32.79-27.95-62.92-15.54-34.53-83.29-16.08-96-3-8.83,4.52-12.27,14.62-9,20,6.36,10.46,2.85,4.08,11,11,13,25.29,29.61,53.71,46.92,81.35C197.77,360.7,203,358,203,358l-1.73,8.26L207,361s-.95,12.76-.08,14.11c25.35,39.47,51,75.73,68.08,96.89,6.61,8.83,28,17.07,46,0,20.5-22.4,63.13-77.62,63.13-77.62L380,385s11.68-1,12.89-2.7c42.21-59,78.37-121.7,87.11-159.3C484.26,196.35,414.11,144.3,405.4,175.23Z"/></g><g id="Shape_1_copy" data-name="Shape 1 copy"><path class="cls-6" d="M405.4,175.23c-8,10.55-17,24.7-26.25,40.35C378,217.53,395,241,395,241s-20.61-17.31-21.26-16.2C342,279.4,307.72,346.54,294,345c-5.79-4.67-10.07,5.31-18.09-10.09C275.12,333.38,273,346,273,346s-1.2-19.29-2.05-21.08c-6.31-13.15-15-32.79-27.95-62.92-15.54-34.53-82.29-28.08-95-15-8.83,4.52-12.27,14.62-9,20,6.36,10.46,2.85,4.08,11,11,13,25.29,29.61,53.71,46.92,81.35C197.77,360.7,203,358,203,358l-1.73,8.26L207,361s-.95,12.76-.08,14.11c25.35,39.47,51,75.73,68.08,96.89,6.61,8.83,28,17.07,46,0,20.5-22.4,57.13-80.62,57.13-80.62L374,382s11.68-1,12.89-2.7c42.21-59,77.37-118.7,86.11-156.3C477.26,196.35,415.72,162.07,405.4,175.23Z"/></g></g></svg>