<svg xmlns="http://www.w3.org/2000/svg" width="1556" height="826" viewBox="0 0 1556 826">
  <defs>
    <style>
      .cls-1 {
        fill: #415561;
        stroke: #869fad;
        stroke-width: 10.73px;
      }

      .cls-1, .cls-2, .cls-3, .cls-4 {
        fill-rule: evenodd;
      }

      .cls-2 {
        fill: #9cb6c6;
      }

      .cls-3 {
        fill: #50616b;
      }

      .cls-4 {
        fill: #6c808c;
      }
    </style>
  </defs>
  <path id="Rounded_Rectangle_1_copy" data-name="Rounded Rectangle 1 copy" class="cls-1" d="M26.959,5.443H1529.04c3.92,0,10.75,3.387,10.75,3.387l9.53,14.045s1.09,1.215,1.09,7.573V795.628c0,3.845-1.71,13-1.71,13l-11.11,10a22.317,22.317,0,0,1-8.55,2H26.959c-3.9,0-12.824-3-12.824-3l-6.723-8.224s-1.826-8.688-1.826-13.781V30.449C5.586,25.111,8.6,16.1,8.6,16.1L19.537,5.387S24.025,5.443,26.959,5.443Z"/>
  <path id="Rounded_Rectangle_1_copy_2" data-name="Rounded Rectangle 1 copy 2" class="cls-2" d="M41.493,21.447H1514.51c2.67,0,11.35,3.348,11.35,3.348l8.21,9.109s1.81,7.478,1.81,12.549V763.9c0,3.775-.86,14-0.86,14l-9.4,9s-6.88,2-11.11,2H41.493c-4.32,0-13.679-1-13.679-1l-6.839-12s-0.855-8.762-.855-12V35.45l5.129-13S38.809,21.447,41.493,21.447Z"/>
  <path id="Rounded_Rectangle_1_copy_4" data-name="Rounded Rectangle 1 copy 4" class="cls-2" d="M1535.88,46.453V763.9c0,3.775-.86,14-0.86,14l-9.4,9s-6.88,2-11.11,2H41.493c-4.32,0-13.679-1-13.679-1l-6.839-12s-0.855-8.762-.855-12V46.453"/>
  <path id="Rounded_Rectangle_1_copy_5" data-name="Rounded Rectangle 1 copy 5" class="cls-3" d="M1535.37,700.8l0.51,77.82c0,3.774-.86,14-0.86,14l-9.4,9s-6.88,2-11.11,2H41.493c-4.32,0-13.679-1-13.679-1l-6.839-12s-0.855-8.763-.855-12L20.784,673.97"/>
  <path id="Rounded_Rectangle_1_copy_3" data-name="Rounded Rectangle 1 copy 3" class="cls-4" d="M46.068,32.153H1509.93c2.67,0,11.35,3.348,11.35,3.348l8.21,9.109s1.81,7.478,1.81,12.549l0.49,618.156,3.58,25.489,0.51,67.456c0,3.775-.86,14-0.86,14l-9.4,9s-6.88,2-11.11,2H41.493c-4.32,0-13.679-1-13.679-1l-6.839-12s-0.855-8.762-.855-12l0.664-94.29,3.694-41.443L24.7,57.159v-11l5.13-13S43.384,32.153,46.068,32.153Z"/>
</svg>
