<svg xmlns="http://www.w3.org/2000/svg" width="1440" height="1080" viewBox="0 0 1440 1080">
  <defs>
    <style>
      .cls-1 {
        fill: #c6c6c6;
      }

      .cls-1, .cls-2, .cls-4 {
        stroke: #000;
        stroke-width: 0.73px;
      }

      .cls-1, .cls-2, .cls-3, .cls-4, .cls-5, .cls-7, .cls-8 {
        fill-rule: evenodd;
      }

      .cls-2 {
        fill: #f4f4f4;
      }

      .cls-3, .cls-7, .cls-8 {
        fill: #fff;
      }

      .cls-3 {
        opacity: 0.15;
      }

      .cls-4 {
        fill: #323232;
      }

      .cls-5 {
        fill: #f2f2f2;
        stroke: #fac06d;
        stroke-width: 0.99px;
      }

      .cls-6 {
        fill: #01baff;
      }

      .cls-7 {
        opacity: 0.23;
      }
    </style>
  </defs>
  <path id="Rounded_Rectangle_1" data-name="Rounded Rectangle 1" class="cls-1" d="M730.8,342.677L864.213,375.81c17.871,5.763,35.686,22.747,29.922,40.618L774.2,784.408a34,34,0,0,1-42.8,21.922L601.085,747.419c-16.62-5.36-31.572-23.179-26.211-39.8L691,363.065A31.62,31.62,0,0,1,730.8,342.677Z"/>
  <path id="Rounded_Rectangle_1_copy_2" data-name="Rounded Rectangle 1 copy 2" class="cls-2" d="M724.494,340.007L855.636,371.45a34,34,0,0,1,21.922,42.8L760.07,778.527a34,34,0,0,1-42.8,21.922L595.818,744.8A31.62,31.62,0,0,1,575.43,705L684.7,360.4A31.619,31.619,0,0,1,724.494,340.007Z"/>
  <path id="Rounded_Rectangle_1_copy_4" data-name="Rounded Rectangle 1 copy 4" class="cls-3" d="M575.43,705L684.7,360.4a31.619,31.619,0,0,1,39.8-20.388L855.636,371.45C873.507,377.213,570.07,721.621,575.43,705Z"/>
  <path class="cls-4" d="M683.4,381.845l182.773,52.241L761.191,759.576l-175.425-69.2Z"/>
  <path id="Ellipse_1_copy" data-name="Ellipse 1 copy" class="cls-5" d="M660.305,729.3c7.371,2.707,11.42,11.708,9.042,20.1s-10.28,13.006-17.652,10.3-11.42-11.708-9.042-20.1S652.933,726.591,660.305,729.3Z"/>
  <g>
    <g id="Setting_button" data-name="Setting button">
      <circle class="cls-6" cx="453.781" cy="399.344" r="63.469"/>
      <path id="Ellipse_1_copy-2" data-name="Ellipse 1 copy" class="cls-7" d="M508.7,367.385a63.468,63.468,0,1,1-109.982,63.377C439.465,417.693,442.74,360.07,508.7,367.385Z"/>
      <path class="cls-7" d="M419.637,346.907c11.695-7.97,23.916-9.193,24-8.663,0.637,0.555-11,2.657-22.694,10.627-11.87,7.706-19.746,18.514-20.011,17.712-0.457-.284,6.834-11.971,18.7-19.676h0Z"/>
    </g>
    <path id="Forma_1" data-name="Forma 1" class="cls-8" d="M489.1,381.9l-32.416-23H451v18.045l1.544,1.573-1.544-.3v11.34l-26.161-18.558-7.962,5.648,31.848,22.593-31.848,22.593,7.962,5.648,16.842-11.948,1.5-3.636,1.024,1.845L451,408.935v15.079l1.544,1.027L451,426.879l2.659,1.642-2.659.508V439.6h5.687l32.416-23-24.454-17.348,6.891-4.889,0.175-1.914,2.666-.1-2.22-1.165,3.344,0.158Zm-26.729-7.665,10.805,7.665-10.805,7.665v-15.33ZM473.175,416.6l-10.805,7.665v-15.33Z"/>
  </g>
</svg>
