<svg id="Group_2" data-name="Group 2" xmlns="http://www.w3.org/2000/svg" viewBox="0 0 643 693"><defs><style>.cls-1{fill:#821308;stroke:#7a1309;}.cls-2{fill:#c63502;}.cls-3{fill:#e54100;}.cls-4{fill:#fff;}</style></defs><title>close_pressed</title><path class="cls-1" d="M621,356.5C621,546.76,505.06,691,327.5,691S11,569.76,11,379.5,621,166.24,621,356.5Z"/><g id="Ellipse_1_copy_2" data-name="Ellipse 1 copy 2"><path class="cls-2" d="M316.5,57.09C220,57.09,134,101.89,78,171.85c-1.92,2.4,30,41.15,30,41.15s-39.88-28.17-41.91-25.27C-24.2,317.18-1.34,494,118.88,596.29c4,3.4,31.27-14,31.27-14s-10.3,30.42-5.81,33.5A303.78,303.78,0,0,0,316.5,668.91C453.2,668.91,568.93,579,607.93,455c.8-2.54-34.93-19-34.93-19s37.28,11.84,38,9c6.18-24.26,11-55.81,11-82C622,194.05,485.21,57.09,316.5,57.09Z"/></g><g id="Ellipse_1_copy_3" data-name="Ellipse 1 copy 3"><path class="cls-3" d="M316.5,82.55A279.41,279.41,0,0,0,96.68,189.22C94.79,191.61,122,223,122,223s-36.75-18.32-39.53-14.1a280.81,280.81,0,0,0,52.86,368C139,580,164,564,164,564s-9.45,27.89-5.33,30.71A278.51,278.51,0,0,0,316.5,643.45c125.23,0,231.26-82.31,267.09-195.85C584.49,444.73,566,434,566,434s22.27-2.88,23.19-6.82A281.29,281.29,0,0,0,596.55,363C596.55,208.11,471.17,82.55,316.5,82.55Z"/></g><g id="Rectangle_2_copy_3" data-name="Rectangle 2 copy 3"><polygon class="cls-4" points="411.31 342.44 437.75 310.54 432.96 298.7 447.4 298.9 425.44 290.57 456.82 287.54 495.42 240.97 399.81 161.1 316.61 261.48 216.55 175.92 137.9 273.03 207.91 332.88 241.62 331.46 218.36 341.81 236.9 357.66 152.75 459.21 248.37 539 331.6 438.6 368.93 470.52 384.46 463.47 385.3 484.51 391.49 480.46 395.83 493.51 431.43 523.94 510 426.83 411.31 342.44"/></g></svg>