<svg xmlns="http://www.w3.org/2000/svg" viewBox="0 0 1920 1080"><defs><style>.cls-1{fill:#63f0ff;}.cls-2{fill:#1cd7ff;}.cls-3{fill:#00a3c6;}.cls-4{fill:#8df4ff;}.cls-5{fill:#4de4ff;}.cls-6{fill:#71f5ff;}.cls-7{fill:#0ed4ff;}.cls-8{fill:#b1f3ff;stroke:#31d0ff;stroke-miterlimit:10;stroke-width:4px;}.cls-10,.cls-9{fill:#2aceff;}.cls-10{opacity:0.5;}</style></defs><title>background</title><g id="Layer_6" data-name="Layer 6"><rect class="cls-1" x="0.5" y="-0.5" width="1920" height="1080"/><rect class="cls-2" x="791.5" y="164.64" width="526.43" height="455.86"/><rect class="cls-3" x="791.5" y="173.54" width="526.43" height="17.17"/><rect class="cls-4" x="791.5" y="164.64" width="526.43" height="17.17"/><path class="cls-5" d="M762.5,307.94V625.5H683.07v-321H369.5v-72H687.06A75.43,75.43,0,0,1,762.5,307.94Z"/><path class="cls-2" d="M759,312.5H684A7.55,7.55,0,0,1,676.5,305V230.05a7.54,7.54,0,0,1,8.21-7.52,90.34,90.34,0,0,1,81.76,81.76A7.54,7.54,0,0,1,759,312.5Z"/><rect class="cls-6" x="747.5" y="341.5" width="8" height="85" rx="4"/><rect class="cls-6" x="67.5" y="212.5" width="99" height="838" rx="12.12"/><rect class="cls-5" x="166.5" y="65.5" width="172" height="985" rx="17.32"/><rect class="cls-2" x="338.5" y="182.5" width="242" height="868" rx="19.28"/><rect class="cls-5" x="557.5" y="568.5" width="881" height="482" rx="27.41"/><rect class="cls-2" x="1438.5" y="480.5" width="320" height="523" rx="17.21"/><polygon class="cls-7" points="1480.32 962.5 1133.82 962.5 1145 282.9 1491.5 408.78 1480.32 962.5"/><polygon class="cls-3" points="1491.5 425.31 1145 299.43 1145 288.62 1491.5 414.5 1491.5 425.31"/><polygon class="cls-4" points="1491.5 419.59 1145 293.71 1145 282.9 1491.5 408.78 1491.5 419.59"/><rect class="cls-5" x="1154.19" y="576.44" width="317.16" height="51"/><line class="cls-8" x1="1418.48" y1="627.44" x2="1418.48" y2="576.44"/><line class="cls-8" x1="1365.62" y1="627.44" x2="1365.62" y2="576.44"/><line class="cls-8" x1="1312.76" y1="627.44" x2="1312.76" y2="576.44"/><line class="cls-8" x1="1259.9" y1="627.44" x2="1259.9" y2="576.44"/><line class="cls-8" x1="1207.05" y1="627.44" x2="1207.05" y2="576.44"/><rect class="cls-5" x="1154.19" y="462.44" width="317.16" height="51"/><line class="cls-8" x1="1418.48" y1="513.44" x2="1418.48" y2="462.44"/><line class="cls-8" x1="1365.62" y1="513.44" x2="1365.62" y2="462.44"/><line class="cls-8" x1="1312.76" y1="513.44" x2="1312.76" y2="462.44"/><line class="cls-8" x1="1259.9" y1="513.44" x2="1259.9" y2="462.44"/><line class="cls-8" x1="1207.05" y1="513.44" x2="1207.05" y2="462.44"/><rect class="cls-5" x="1675.5" y="709.5" width="84" height="273" rx="10.46"/><rect class="cls-5" x="1497.71" y="809.5" width="141.79" height="167" rx="10.63"/><rect class="cls-9" x="1428.5" y="809.5" width="116.8" height="167" rx="8.55"/><rect class="cls-9" x="1634.5" y="709.5" width="69.19" height="273" rx="8.42"/><path class="cls-5" d="M1919.5,135.5v883H1781.86a22.42,22.42,0,0,1-22.36-22.36V157.86a22.42,22.42,0,0,1,22.36-22.36Z"/><rect class="cls-2" x="188.5" y="568.5" width="135" height="243" rx="9.98"/><rect class="cls-2" x="122.5" y="753.5" width="266" height="116" rx="3.95"/><rect class="cls-5" x="82.5" y="787.5" width="346" height="116" rx="4.51"/><rect class="cls-2" x="67.5" y="877.5" width="376" height="116" rx="4.7"/><rect class="cls-5" x="1761.5" y="539.5" width="77" height="437" rx="11.23"/><rect class="cls-9" x="1758.5" y="539.5" width="55" height="437" rx="9.49"/><rect class="cls-5" x="47.5" y="962.5" width="1814" height="81" rx="2.94"/><rect class="cls-5" x="-0.5" y="986.5" width="1920" height="93"/><path class="cls-9" d="M407.47,373.26a40.58,40.58,0,0,1-3.82,17.22L292.52,628.77A41.16,41.16,0,0,1,238,648.62l-.44-.21a41.16,41.16,0,0,1-19.4-54.33L329.27,355.79a41.15,41.15,0,0,1,54.11-20l.42.19A41.16,41.16,0,0,1,407.47,373.26Z"/><path class="cls-9" d="M646.06,433.78a35.77,35.77,0,0,1-33.56,30.46c-.56,0-1.12,0-1.69,0a35.44,35.44,0,0,1-5.11-.37L379.86,431.14a35.61,35.61,0,0,1,10.23-70.49l225.84,32.77A35.73,35.73,0,0,1,646.06,433.78Z"/><path class="cls-9" d="M612.5,430.5v33.74c-.56,0-1.12,0-1.69,0a35.44,35.44,0,0,1-5.11-.37L379.86,431.14a35.41,35.41,0,0,1-21.74-11.92l25.38-22.29Z"/><rect class="cls-9" x="615.98" y="409.41" width="48.98" height="187.6" rx="24.49" transform="translate(1433.97 686.98) rotate(154.88)"/><path class="cls-9" d="M407.47,373.26a40.58,40.58,0,0,1-3.82,17.22L292.52,628.77A41.16,41.16,0,0,1,238,648.62l-.44-.21L383.38,335.76l.42.19A41.16,41.16,0,0,1,407.47,373.26Z"/><circle class="cls-9" cx="361" cy="390" r="22.5"/><circle class="cls-9" cx="255" cy="611" r="22.5"/><circle class="cls-9" cx="612.5" cy="435.5" r="50"/><rect class="cls-9" x="620.25" y="567.75" width="113.58" height="20.14" rx="10.07" transform="translate(-184.34 353.59) rotate(-25.89)"/><rect class="cls-9" x="663.08" y="586.2" width="42.69" height="13.69" transform="translate(-190.25 358.34) rotate(-25.89)"/><path class="cls-9" d="M639,607.46l-.4,33.92a4.68,4.68,0,0,0,1.52,3.51l44.13,40.34a4.69,4.69,0,0,0,7.85-3.26h0a4.65,4.65,0,0,0-1.11-3.23l-35.17-41.47a4.66,4.66,0,0,1-1.09-3.53L658.61,598Z"/><path class="cls-9" d="M723.83,566.31,750.72,587a4.67,4.67,0,0,1,1.82,3.38L756.93,650a4.69,4.69,0,0,1-7.42,4.15h0a4.64,4.64,0,0,1-1.85-2.87L736.85,598a4.7,4.7,0,0,0-2.11-3L704.26,575.8Z"/><circle class="cls-9" cx="613" cy="435" r="22.5"/><path class="cls-9" d="M1919.5,361.94v95.61l-160-95.62-27-16.15-17-10.17a40.46,40.46,0,0,1-12.82-12.11,41.33,41.33,0,0,1-1.91-43.19c.18-.33.37-.66.56-1l.24-.39a41.15,41.15,0,0,1,56-13.78l1.94,1.16Z"/><path class="cls-9" d="M1772.84,308.61a35,35,0,0,1-2.24,11.6,32.81,32.81,0,0,1-2,4.44,35,35,0,0,1-2.24,3.65,35.47,35.47,0,0,1-20.41,14.09l-13.46,3.39L1576.66,385l-15.14,3.81L1553,391l-17.11,4.31-11.25,2.83a35.94,35.94,0,0,1-5.05.9c-.56.05-1.12.1-1.68.13a35.31,35.31,0,0,1-15.36-2.61,35.72,35.72,0,0,1-15-11.47,35,35,0,0,1-6.16-12.79c-.13-.51-.25-1-.35-1.54A35.72,35.72,0,0,1,1507.25,329l23.56-5.93,169.92-42.78,2.18-.55h0l25.63-6.45a35.72,35.72,0,0,1,43.23,25.85A34.8,34.8,0,0,1,1772.84,308.61Z"/><path class="cls-10" d="M1766.35,328.3a35.47,35.47,0,0,1-20.41,14.09l-13.46,3.39L1576.66,385l-15.14,3.81L1553,391l-17.11,4.31-11.25,2.83a35.94,35.94,0,0,1-5.05.9c-.56.05-1.12.1-1.68.13l-.69-6.74-1.8-17.48-1-9.34,20.48-5.19,1.13-.28,24.82-6.29,1.11-.28,137.8-34.91,28.19-7.14,10.83-2.74,26.9,19.12Z"/><path class="cls-9" d="M1540,383.37l-4.15,11.89-8.25,23.64-7.4,21.19-25.89,74.16a23.35,23.35,0,0,1-1,2.36,24.6,24.6,0,0,1-18.4,13.75,24.38,24.38,0,0,1-22.17-8.07,24.57,24.57,0,0,1-5.25-22.37c.16-.61.34-1.21.55-1.81l31.72-90.88.29-.84,7.45-21.35,4.61-13.21,1.61-4.6a24.57,24.57,0,0,1,31.2-15.05,24.32,24.32,0,0,1,11.08,7.91,24.64,24.64,0,0,1,5.3,14.13A24,24,0,0,1,1540,383.37Z"/><path class="cls-10" d="M1919.5,409.17v48.38l-160-95.62-27-16.15-17-10.17a40.46,40.46,0,0,1-12.82-12.11,41.33,41.33,0,0,1-1.91-43.19c.18-.33.37-.66.56-1l.24-.39,1.38.82,29.75,17.78,26.84,16,11.1,6.63.44.26Z"/><circle class="cls-9" cx="1750.49" cy="311.28" r="22.5"/><path class="cls-9" d="M1561.52,388.81a50,50,0,0,1-81.4,17.58c-.29-.28-.58-.56-.85-.85a50,50,0,1,1,82.73-52c.24.66.47,1.33.67,2a50.1,50.1,0,0,1-1.15,33.29Z"/><polygon class="cls-10" points="1528.5 418.5 1504.5 411.5 1464.96 526.71 1486.5 534.5 1528.5 418.5"/><polygon class="cls-9" points="1482.66 533.16 1478.19 545.44 1462.99 539.9 1439.89 531.49 1444.37 519.21 1452.8 522.28 1452.81 522.29 1458.81 524.47 1474.98 530.36 1482.66 533.16"/><path class="cls-9" d="M1508.37,577.25l-38,42.61a4.47,4.47,0,0,1-7.77-2.33,4.6,4.6,0,0,1-.05-.64,4.41,4.41,0,0,1,.79-2.53l29.35-42.82a4.42,4.42,0,0,0,.69-3.46l-3.88-18.26-3.26-15.34,16.76,6.1,2.48.9.27.1,3.7,32.18A4.52,4.52,0,0,1,1508.37,577.25Z"/><path class="cls-9" d="M1421.24,510.79l-23.52,22.26a4.5,4.5,0,0,0-1.4,3.38l1.66,57.05a4.48,4.48,0,0,0,7.46,3.22h0a4.48,4.48,0,0,0,1.47-2.91l5.06-51.66a4.49,4.49,0,0,1,1.7-3.09l27.08-21.15Z"/><circle class="cls-9" cx="1514.62" cy="370.03" r="22.5"/><path class="cls-9" d="M1518.32,532.44a9.61,9.61,0,0,1-12.81,9l-2.48-.9-16.76-6.1-3.61-1.32-7.68-2.8-16.17-5.89-6-2.18h0l-8.43-3.07-3.62-1.32-19.14-7a9.61,9.61,0,1,1,6.58-18.06l19.37,7.06,16.77,6.1,29.05,10.59,17,6.18,1.65.6A9.65,9.65,0,0,1,1518.32,532.44Z"/></g></svg>