<svg xmlns="http://www.w3.org/2000/svg" viewBox="0 0 1920 1080"><defs><style>.cls-1{fill:#101d2d;}.cls-2{opacity:0.16;}.cls-3{fill:#5499ed;}.cls-4{fill:#28d1c8;}.cls-5,.cls-6{fill:#dd6512;}.cls-6{opacity:0.29;}.cls-7{fill:#bc5815;}.cls-8{fill:#994a14;}.cls-9{fill:#38a3e3;}.cls-10{fill:#73ccff;}.cls-11{fill:#2e80bf;}.cls-12{fill:#050505;opacity:0.35;}.cls-13{fill:#c6006e;}.cls-14{fill:#ff277e;}.cls-15{fill:#ee8624;}.cls-16{fill:#b05029;}.cls-17{fill:#ff3978;}.cls-18,.cls-19,.cls-20{fill:#fe7f4a;stroke:#170600;stroke-miterlimit:10;}.cls-18{stroke-width:3px;}.cls-19{stroke-width:2.13px;}.cls-20{stroke-width:1.07px;}.cls-21{fill:#457b00;}.cls-22{fill:#85b107;}.cls-23{fill:#35c443;}.cls-24{fill:#41cece;}.cls-25{fill:#004346;}.cls-26{fill:#fff;}.cls-27{fill:#e56915;}.cls-28{fill:#eddc0f;}.cls-29{fill:#1fdce5;}</style></defs><title>background</title><g id="Layer_2" data-name="Layer 2"><rect class="cls-1" width="1920" height="1080"/><g id="Layer_4" data-name="Layer 4"><g class="cls-2"><path class="cls-3" d="M1037.51,320c-27.83,14.52-60.36,15.88-91.59,19.11-76,7.87-152.08,29.4-214.52,73.45C716,423.47,700.1,443.69,711.16,459c7.78,10.74,23.43,10.37,36.56,12.24s28.54,12.68,23.69,25c-1.6,4.06-5.16,7-8.94,9.21-11.37,6.54-25.09,7.1-38.2,7.5l-340.7,10.28c-12.3.37-29.43-4.23-27.65-16.41.76-5.21,5.16-9,9.36-12.19A241.14,241.14,0,0,1,491.51,447c19.34-1.46,43.4-3.49,50.54-21.52-33.24-11.6-68.92-13.94-104.11-14.94a1493.23,1493.23,0,0,0-194.39,7.16c-67.8,6.95-139.74,17.9-201.4-11.13,39.45-33.51,91.77-47.66,143-54.76s103.5-8.15,153.89-20c9.46-2.23,21-7.6,20.34-17.29s-13-13.59-22.87-14.23c-44.81-2.92-89.56,6-134.46,6s-93.24-11-122.49-45c-13.59-15.83-22-35.52-27.4-55.67-12.79-48-8.25-101.84,19-143.38L0,55.88V0H220.71A108.32,108.32,0,0,0,188.4,78.7c.14,6.62,1.06,13.62,5.18,18.8,7.39,9.3,21.37,9,33.19,7.78L607.87,67c61.54-6.18,123.93-12.33,185-2.23,10.43,1.73,21.41,4.25,28.94,11.67,10.07,10,11,26.6,5.43,39.59S810.6,139,799,147.13c-92.37,65.34-233.61,44.51-309.41,128.51-5.27,5.85-10.36,13-9.58,20.8.51,5.09,3.47,9.6,6.68,13.59,28.44,35.36,80,44.38,124.46,35.18s84.08-33.27,124.17-54.52A1103,1103,0,0,1,895,221.56c32-10.95,65-20.5,98.83-21.48,33.45-1,72.53,11.2,83.09,43C1086.88,272.83,1065.35,305.51,1037.51,320Z"/></g><g class="cls-2"><path class="cls-3" d="M1920,0V113c-13.44-5.76-26.34-13-38.87-20.61-8.25-5-16.84-10.26-26.46-11-10.86-.76-21.16,4.45-30.71,9.66-29.42,16.05-60.56,36.71-68.83,69.19-9.34,36.65,13.89,72.79,34.85,104.28s41.42,70.5,26.73,105.36c-13.66,32.39-51.88,46.13-86.57,51.83-66.59,11-136.88,5.93-199.2,31.86-24.29,10.11-47.48,25.61-60.4,48.53-2.54,4.52-4.72,9.7-3.67,14.78,1.38,6.67,7.72,11,13.63,14.38a373.13,373.13,0,0,0,144.76,47.46c28.15,3.13,56.83,3.06,84.23,10.22s54.33,23.14,66,49c16.41,36.47-4.06,81.5-37.15,104s-75.13,26.85-115.11,26c-25.21-.53-50.8-2.95-74.25-12.21-5.8-2.29-11.88-5.41-14.5-11.06-5.88-12.65,9.53-25.1,23.22-27.76s29.93-2.59,38.36-13.7c7.39-9.75,4.67-24.4-3-33.9s-19.21-15-30.44-19.85c-88-38.16-189-60.88-251.26-133.88-6.6-7.75-12.84-16.36-14.67-26.37-3.15-17.23,7.38-34,19.49-46.66C1376.86,379,1484.8,369,1530,293.65c7.79-13,13-30.25,4.26-42.64-4.35-6.19-11.36-9.87-18.1-13.31l-70-35.74c-16.37-8.36-33.69-17.62-42.49-33.76-14.15-26-.41-58.64,18.55-81.34,39-46.69,95.8-71,155.71-86.86Z"/></g><g class="cls-2"><path class="cls-4" d="M1920,976.33V1080H0V947.93c55.26-17.3,113.9-22,172.38-19.24,26.77,1.23,53.5,4,79.87,7.87C343.15,949.8,432,974.88,522.56,990q4.19.7,8.37,1.37a1171.44,1171.44,0,0,0,449-16c37.16-8.68,73.92-19.18,110.92-28.55,26.61-6.75,53.35-12.91,80.44-17.39,191.38-31.66,384.39,22.16,578.1,41,42.67,4.16,85.38,6.62,128.11,6.09C1891.6,976.3,1905.88,975.84,1920,976.33Z"/></g><g class="cls-2"><path class="cls-4" d="M1920,917.57V1080H0V891.25c41.21-4.55,85.11,4,124.67,18.16,16.14,5.77,32,12.38,47.71,19.28,44.59,19.57,88.28,41.52,135.36,53.6,69.73,17.89,143,13.13,214.82,7.67l5.8-.44,507.1-38.74c18.44-1.41,36.93-2.82,55.43-4,65.65-4.27,131.5-6,196.36,4.06,105.93,16.35,208.41,63.67,315.33,56.23,50.62-3.52,99-19.15,146.85-36.67,25-9.13,49.77-18.76,74.72-27.47C1855.07,932.13,1887.44,922.76,1920,917.57Z"/></g></g><path class="cls-5" d="M1405.64,1080H553.5q12.63-18.62,26.66-36a551.66,551.66,0,0,1,38-42.58,537.73,537.73,0,0,1,62.13-53.85c85-62.89,188.1-99.73,299.3-99.73a495.14,495.14,0,0,1,166.84,28.85q15.79,5.64,31.14,12.31a506.4,506.4,0,0,1,51.62,26q21.36,12.31,41.5,26.65A546.07,546.07,0,0,1,1405.64,1080Z"/><path class="cls-6" d="M1439.79,1080H553.5l-.31.45-.4-.45H519.34q7-10.65,14.51-21,12.39-17.11,25.89-33.24a588.8,588.8,0,0,1,41.19-44.34,572.41,572.41,0,0,1,62.86-52.85C753.85,863.33,862.54,825.2,979.57,825.2a529.71,529.71,0,0,1,180,31.41q17,6.09,33.41,13.31a544.58,544.58,0,0,1,56.17,28.58q21.36,12.46,41.58,26.81A585.69,585.69,0,0,1,1439.79,1080Z"/><path class="cls-6" d="M1499.32,1080H553.5l-.31.45-.4-.45H447.5a676.59,676.59,0,0,1,47.3-65.42q11.4-14,23.5-27.21,22.14-24.27,46.47-46.11a638.81,638.81,0,0,1,62.4-49.43C726.78,822.55,845.69,782.3,973.41,782.3a597.79,597.79,0,0,1,211.21,38.41q21.53,8.09,42.3,17.77a612.83,612.83,0,0,1,57.3,30.43q20.88,12.52,40.75,26.66C1393.67,944.39,1453,1007.13,1499.32,1080Z"/><path class="cls-7" d="M988,990.57c0,36.65-15.9,69.15-40.44,89.43H828.46c-24.54-20.28-40.44-52.78-40.44-89.43,0-61.48,44.77-111.33,100-111.33S988,929.09,988,990.57Z"/><path class="cls-7" d="M1126.09,1046.32a46.63,46.63,0,0,1-13.84,33.68h-52.32a46.63,46.63,0,0,1-13.84-33.68c0-24.6,17.91-44.54,40-44.54S1126.09,1021.72,1126.09,1046.32Z"/><ellipse class="cls-7" cx="1271.63" cy="1021.12" rx="10" ry="11.13"/><path class="cls-7" d="M703.09,1080H653.21c.88-14.49,11.71-25.93,24.94-25.93S702.21,1065.51,703.09,1080Z"/><ellipse class="cls-8" cx="874.62" cy="990.57" rx="57.65" ry="64.18"/><path class="cls-6" d="M416,836.37c-22,22,40.23,91.51,102.3,151,14.15,13.56,28.3,26.6,41.44,38.43,7.16,6.45,14,12.54,20.42,18.16,20.59,18.09,36.42,31.33,42.11,36H553.5l-.31.45-.4-.45c-6-6.55-12.32-13.57-18.94-21-12.28-13.71-25.51-28.71-39.05-44.46-101.17-117.7-219.57-276.76-89.38-244.7,96.39,23.74,170.51,74.87,221.75,122,13.89,12.76,26.1,25.24,36.62,36.78,6.06,6.65,11.55,13,16.48,18.92,21.23,25.49,31.94,43,31.94,43l-49.87,64.18s-17.91-22.58-44.2-53.37c-5.41-6.33-11.18-13-17.21-19.92-11.28-12.89-23.51-26.57-36.16-40.2C505.68,877.53,437.65,814.72,416,836.37Z"/><path class="cls-6" d="M1107.67,940.6s194.59-352.52,301.75-252.41S1188,1001.78,1188,1001.78l-36.66-25.19s347.5-265.6,196.75-219.07A131,131,0,0,0,1309.41,777c-113.36,83-119.61,83.39-176.36,184.74C1126.09,949.14,1107.67,940.6,1107.67,940.6Z"/><path class="cls-9" d="M348.08,166.14a100.09,100.09,0,1,1-100-100A99.72,99.72,0,0,1,348.08,166.14Z"/><path class="cls-10" d="M348.08,166.14a99.72,99.72,0,0,1-25.81,67.07A100,100,0,0,1,214,72.1a100.09,100.09,0,0,1,134.11,94Z"/><circle class="cls-11" cx="259.06" cy="100.06" r="15.41"/><circle class="cls-11" cx="310.06" cy="143.49" r="8.27"/><circle class="cls-11" cx="252.7" cy="174.32" r="11.03"/><circle class="cls-11" cx="312.8" cy="201.59" r="5.52"/><circle class="cls-11" cx="217.35" cy="128.07" r="2.76"/><circle class="cls-12" cx="193.54" cy="181.56" r="15.41"/><path class="cls-13" d="M1899.61,412.76A146,146,0,0,1,1710.39,552c-6.36-2-25.45,14.38-31.4,11.59a145.77,145.77,0,0,1-18-10.06c-5.22-3.43,2.71-25.94-2-30a146.08,146.08,0,0,1-46.27-147.87c1-3.86-6.06-9.19-4.75-12.92a147.28,147.28,0,0,1,7.48-17.5c1.38-2.7,11.06-3.83,12.6-6.43a145.85,145.85,0,0,1,271.59,73.89Z"/><path class="cls-14" d="M1899.61,412.76a145.85,145.85,0,0,1-3.94,33.8c-.75,3.17,9,11.5,8,14.59q-1.82,5.84-4.09,11.46c-1.39,3.45-13.5,1.63-15.14,4.94a146.82,146.82,0,0,1-22.5,33,145.88,145.88,0,0,1-157.94-235,147,147,0,0,1,83.9-4.66c5.56,1.34,17.74-8,23-6q5,1.83,9.77,4c5.1,2.31,3.31,15.89,8.08,18.76a146.57,146.57,0,0,1,37.92,32.84c3.54,4.33,26-.66,29,4.07,2.78,4.34,9.18,16.51,11.5,21.14,3.85,7.68-16,17.6-13.53,26A145.55,145.55,0,0,1,1899.61,412.76Z"/><circle class="cls-13" cx="1769.78" cy="316.39" r="22.48"/><circle class="cls-13" cx="1850.74" cy="463.23" r="14.58"/><circle class="cls-13" cx="1756.57" cy="439.78" r="31.35"/><path class="cls-15" d="M689.17,163.3a50,50,0,1,1-72.47-44.68v0a49.72,49.72,0,0,1,18.86-5.17c1.18-.11,2.39-.14,3.6-.14A50,50,0,0,1,689.17,163.3Z"/><circle class="cls-16" cx="607.89" cy="147.52" r="4.65"/><circle class="cls-16" cx="624.14" cy="161.92" r="1.86"/><circle class="cls-16" cx="674.05" cy="150.88" r="2.79"/><circle class="cls-16" cx="624.14" cy="194.63" r="7.44"/><circle class="cls-16" cx="651.48" cy="168.86" r="10.14"/><path class="cls-16" d="M677.22,195.72a50,50,0,0,1-15.41,12.14,10.14,10.14,0,1,1,15.41-12.14Z"/><circle class="cls-16" cx="657.75" cy="132.64" r="6.51"/><path class="cls-16" d="M637,118.6a10.15,10.15,0,0,1-20.29,0v0a49.72,49.72,0,0,1,18.86-5.17A10,10,0,0,1,637,118.6Z"/><path class="cls-17" d="M1614.93,173.87l-6-6.45s45.91,4.3,67.67,21.28c7.23,6.38,17.11,15.41,13.32,34.16a27.31,27.31,0,0,1-5.64,11.85c-5.7,7-11.72,12.62-28.55,12a28.1,28.1,0,0,1-10.5-2.46c-10.37-4.61-22.94-11.34-49.93-46l9.57-.47L1580,177s-5.5-6.93,3.35-7.65C1592.21,170.53,1614.93,173.87,1614.93,173.87Z"/><circle class="cls-18" cx="1659.76" cy="216.78" r="23.34"/><path class="cls-17" d="M1609.14,101.88l-4.26-4.6s32.66,3.06,48.15,15.14c5.14,4.54,12.17,11,9.47,24.3a19.48,19.48,0,0,1-4,8.44c-4,5-8.34,9-20.31,8.56a20.11,20.11,0,0,1-7.47-1.75c-7.38-3.29-16.32-8.07-35.52-32.74l6.8-.34-17.69-14.8s-3.91-4.94,2.38-5.45C1593,99.49,1609.14,101.88,1609.14,101.88Z"/><circle class="cls-19" cx="1641.03" cy="132.4" r="16.61"/><path class="cls-17" d="M1503.53,127.34l-2.13-2.3s16.33,1.53,24.07,7.57c2.58,2.27,6.09,5.48,4.74,12.15a9.65,9.65,0,0,1-2,4.22c-2,2.47-4.17,4.49-10.16,4.28a9.8,9.8,0,0,1-3.73-.88c-3.69-1.64-8.16-4-17.77-16.36l3.41-.17-8.85-7.4s-2-2.47,1.19-2.73C1495.45,126.15,1503.53,127.34,1503.53,127.34Z"/><circle class="cls-20" cx="1519.48" cy="142.6" r="8.3"/><path class="cls-21" d="M1256.77,100.06a50,50,0,1,1-31.32-46.39A50,50,0,0,1,1256.77,100.06Z"/><path class="cls-22" d="M1243.41,92a50,50,0,0,1-68.73,46.37c-.89-.75-1.74-1.51-2.57-2.31a50.74,50.74,0,0,1-5.08-5.68,50,50,0,0,1,58.42-76.75A49.9,49.9,0,0,1,1243.41,92Z"/><path class="cls-21" d="M1178.5,88.51c0,4.11,3.94,7.48,8.77,7.48h3v.06h19.94a8.81,8.81,0,0,1,8.77,8.78,8.81,8.81,0,0,1-8.77,8.77h-51.58a50.06,50.06,0,0,1,14.11-50.18h37.47a8.81,8.81,0,0,1,8.77,8.77h0a8.81,8.81,0,0,1-8.77,8.77h-19.94V81h-3a9.56,9.56,0,0,0-6.19,2.2A7,7,0,0,0,1178.5,88.51Z"/><path class="cls-21" d="M1190.27,133.26a2.85,2.85,0,0,1-2.84,2.84h-15.32a50.74,50.74,0,0,1-5.08-5.68h20.4A2.86,2.86,0,0,1,1190.27,133.26Z"/><path class="cls-23" d="M917.69,231.57a74.93,74.93,0,1,0,0,149.86H918V231.57Z"/><path class="cls-23" d="M992.69,306.5A75,75,0,0,0,918,231.57V381.43A75,75,0,0,0,992.69,306.5Z"/><path class="cls-24" d="M987.77,279.32l-3.91.07-2-2.16-.38-3.46-2,1.1-1.08,4.23-2.9-3.09-.12-2.91-2.8-2.42-1-1h-3.25l1,2.89,3.91,2.18.67.72-.84.43,0,2.29-1.9.8-1.63-.36-1-1.44,2.64.14.71-1-5.86-4-.44-1.68-2.38,2.15-2.42-.49-3.68,4.77-.72,1.87-2.35.22-3.47,0-2.08-1-.61-4.13.74-2,3.54-.78,3.86.78.47-2.14-1.64-.38.56-3.33,3.88-.6,2.72-3.84,2.8-.47,2.54.37h.93l-.51-3.6-3.08,1.24-1.08-2.69-1.79-.25-.33-1.84,1.46-1.59,3.46-1.36.89-1.59A74.75,74.75,0,0,0,918,231.36v13.52l1.43.64v2.68l2.25.56-1.13,2.12H918v9.78l1.55.95-.12,2.62-1.43.49v1.82l2.18,1-.07,1.8-1,.09a.18.18,0,0,1,0-.05L918,269v50.33l1.87.71,6.61.06,1.94,3.18,2.93.94-.57,2.62-3.21,4.08-.94,9-2.89,2.29-4.31-.13L918,344.63v0l1.06,4.67L918,350.67v30.82a75,75,0,0,0,58-27.74h-2.48v-5l-2.86-3.86v-6l-2.19-2.18-.19-2.5,2.78-5.3-5.27-9.3.63-6.3-4.75-.5-1.74-1.74h-3.18l-1.62,1.49h-5.62l-.19.5h-3.12L939,304.9l.06-6.36,1.18-.44.44-2.43H939l-.69-2.56,8.3-6v-4.24l4.06-2.25,1.64.16h3.35l2.61-1.4,8.43-.66V283l6.64,1.68,1.31.94h1.22v-2.35l3.83-.37,3.66,2.72h6l.42-.39Q988.92,282.24,987.77,279.32ZM952.33,258l.68-1.06,2.47-.5.62,3,1.31,2.12.87,1,1.59.62-1.49,1.78-2.9.28H953.3l.24-2.59,1.81-.38L955.2,261,953.51,260l-1.18-.8Zm-4.06,4.68,1.5-2.4,2-.47,1.44.62L953.1,262,950,264.2h-1.75Z"/><polygon class="cls-25" points="917.96 344.63 917.96 344.65 917.96 344.63 917.96 344.63"/><path class="cls-24" d="M914.34,355.31l-1.5,2.74-4.46,2.15-2.93.44-.13,1.25,2.06.59-.25,1.34-1.84,1.77,1.12,1.41,2.22.06-.12,1.72-.59,1.68-.2,1.37L911,374.6l-.44,1.43-4.46-.08-4.45-3.88L898.19,366l.49-5.87-2.62-3.5,1.06-5.92-1.56-.44V337.4s-4.36-3.31-4.61-3.31-2.31-.56-2.31-.56l-.44-2.43L882.53,324l.56-2.56.18-4.18,3.93-2.74-.56-4.68-5.74-.44-4.49-5.11-3.18-.87-2.06-.38.25-1.87-2.62-.38v1.06l-6.55-1.62-2.64-4,1.08-1.95-4.15-6.06-.72-4.43h-1.68l.56,4.31,2.87,4.43-.31,1.75-2.43-.38-3-5.1v-5.94l-3.11-1.5v-4.27a75,75,0,0,0,69.07,104.44H918V350.67Z"/><path class="cls-24" d="M914.94,268.09l-.18-1.34h0l1.21-.84V264.7l-1.31-.33-.32,1.12-2.3.36-.23-.08v.12l-.8.12-.65-1.31-.75-.33H908l-.74.61v1.35l1.4.47L910,267l-.31.14-1.26,1.4-.56-.7-1.21-.32-3.33,3.13.44.35-4.91,2.72-4.62,4.8-.31,2.14-4.63,3L887,286l.26,4.61-3.19-1.48,0-2.7h-8.86l-4.58,2.32-2,3.67-.78,2.91,1.29,2.82,3.61.44,5.74-3.84.5,1.91-1.75,3.3,4.37.75.44,6.75,6,1,3.8-4.4,4.62.94,1.62,2.25,4.43-.26.12-1.31,2.43,1.19,2.75,4.3,4.74.06,1.75,3.06.25,3.74,3.37,1.29V269Zm-7.45,3.78-1.56.13.08-1.08.7-.88.94.74ZM913,270l-1.07.09-.21,1-.83.51-1.31.11c0-.31-.08-.55-.08-.55H909V270h2.15l.45-1.14.85,0,1,.2Z"/><path class="cls-24" d="M917.79,231.36a74.68,74.68,0,0,0-44.11,14.37l3.79,0,1.69.94,3.17.68.25,1.25,5.06.19-.69-1.62-4.49-.13,1.06-1-.37-1.19h-4.06l4.43-3.31h4.24l2,2.75,3.31.19,2-1.94,1.5.75L893.82,246l-3.62.07a12.24,12.24,0,0,1,.31,2.61l4.61-.12.51-1.25,3.17-.19.38-1.87-1.87-.31.62-1.68,1.44-.44,5,.25-2.76,2.5.45,1.93,2.87.43-.19-3.49,2.75-1.43,4.87-.57,5.61,2.49V231.36Z"/><polygon class="cls-24" points="917.33 250.88 916.39 253.31 909.12 251.59 914.84 248.55 912.65 246.7 907.72 247.32 907.29 247.77 907.28 247.76 907.2 247.87 905.78 249.34 903.44 249.54 903.63 250.71 904.44 251.05 904.41 251.43 902.5 251.71 902.36 252.81 900.54 252.91 900.21 250.71 896.93 251.71 890.24 255.62 891 258.38 892.87 259.6 896.61 260.11 896.61 264.37 898.34 264.09 899.93 260.77 903.91 259.5 903.91 254.4 906.12 252.73 911.47 254 911.09 257.37 912.53 257.37 916.46 255.43 916.65 259.86 917.96 260.66 917.96 250.88 917.33 250.88"/><polygon class="cls-24" points="916.65 265.16 916.83 266.03 917.96 266.54 917.96 264.72 916.65 265.16"/></g><g id="Layer_3" data-name="Layer 3"><circle class="cls-26" cx="489.9" cy="442.4" r="5"/><circle class="cls-27" cx="380.41" cy="483.41" r="5"/><circle class="cls-26" cx="668.75" cy="574.77" r="5"/><circle class="cls-26" cx="1051.42" cy="516.86" r="4"/><circle class="cls-28" cx="1261.21" cy="373.64" r="5"/><circle class="cls-28" cx="1167.45" cy="228.2" r="5"/><circle class="cls-27" cx="959.15" cy="148.37" r="5"/><circle class="cls-26" cx="796.56" cy="198.55" r="5"/><circle class="cls-26" cx="110.41" cy="416.19" r="5"/><circle class="cls-29" cx="105.41" cy="632.46" r="5"/><circle class="cls-29" cx="87.34" cy="765.7" r="5"/><circle class="cls-29" cx="208.96" cy="820.2" r="5"/><circle class="cls-29" cx="380.41" cy="653.42" r="5"/><circle class="cls-29" cx="1634.55" cy="879.24" r="5"/><circle class="cls-29" cx="1850.74" cy="782.3" r="5"/><circle class="cls-29" cx="1629.55" cy="679.85" r="5"/><circle class="cls-29" cx="1490.51" cy="815.2" r="5"/><circle class="cls-26" cx="157.71" cy="736.42" r="5"/><circle class="cls-26" cx="461.92" cy="753.95" r="5"/><circle class="cls-26" cx="1101.93" cy="346.24" r="3"/><circle class="cls-26" cx="993.46" cy="386.87" r="4.95"/><circle class="cls-26" cx="1261.63" cy="493.37" r="4.95"/><circle class="cls-26" cx="1725.22" cy="952.82" r="4.95"/><circle class="cls-26" cx="1545.13" cy="979.62" r="4.95"/><circle class="cls-26" cx="1572.13" cy="874.24" r="4.95"/><circle class="cls-26" cx="948.27" cy="726.46" r="4.95"/><circle class="cls-26" cx="332.52" cy="357.09" r="4.95"/><circle class="cls-27" cx="1279.11" cy="477.37" r="4.95"/><circle class="cls-26" cx="1664.89" cy="420.54" r="5"/><circle class="cls-26" cx="1874.2" cy="276.59" r="5"/><circle class="cls-26" cx="1780.44" cy="131.15" r="5"/><circle class="cls-26" cx="1572.13" cy="51.32" r="5"/><circle class="cls-26" cx="1409.54" cy="101.51" r="5"/><circle class="cls-27" cx="723.39" cy="319.15" r="5"/><circle class="cls-27" cx="721.02" cy="534.53" r="4.95"/><circle class="cls-26" cx="770.7" cy="639.37" r="2.5"/><circle class="cls-26" cx="1074.9" cy="656.91" r="1"/><path class="cls-26" d="M430,227a3,3,0,0,1-3,3.05h-4.72v5.13a3.24,3.24,0,0,1-6.48,0v-5.13H411a3,3,0,0,1,0-6.09h4.72v-5.4a3.24,3.24,0,0,1,6.48,0V224h4.72A3.05,3.05,0,0,1,430,227Z"/><path class="cls-26" d="M1567.13,642a3.06,3.06,0,0,1-3,3h-4.72v5.13a3.24,3.24,0,0,1-6.47,0v-5.13h-4.72a3.05,3.05,0,0,1,0-6.1h4.72v-5.4a3.24,3.24,0,0,1,6.47,0V639h4.72A3.05,3.05,0,0,1,1567.13,642Z"/><path class="cls-26" d="M1441.91,368.77a3.06,3.06,0,0,1-3.05,3.05h-4.72V377a3.24,3.24,0,1,1-6.47,0v-5.13H1423a3,3,0,0,1,0-6.09h4.72v-5.4a3.25,3.25,0,0,1,3.24-3.24,3.24,3.24,0,0,1,3.23,3.24v5.4h4.72A3.05,3.05,0,0,1,1441.91,368.77Z"/></g></svg>