<svg id="Layer_1" data-name="Layer 1" xmlns="http://www.w3.org/2000/svg" viewBox="0 0 1135 756"><defs><style>.cls-1{opacity:0.67;}.cls-2{fill:#070707;}.cls-3{fill:#00b1ff;}.cls-4{fill:#15bdf9;}.cls-5{fill:#fff;}.cls-6{fill:#020202;opacity:0.2;}.cls-7{fill:#30515e;}.cls-8{fill:#f2f7f9;opacity:0.09;}.cls-9{fill:#1e333a;}</style></defs><title>board_clear</title><g class="cls-1"><rect class="cls-2" y="19" width="1135" height="736" rx="50"/></g><path class="cls-3" d="M1135,50V686a50,50,0,0,1-50,50H50A50,50,0,0,1,0,686V50A50,50,0,0,1,50,0H1085a50,50,0,0,1,50,50Z"/><path class="cls-4" d="M1134.36,42H.64A50,50,0,0,1,50,0H1085A50,50,0,0,1,1134.36,42Z"/><path class="cls-5" d="M1085,5a45.05,45.05,0,0,1,45,45V686a45.05,45.05,0,0,1-45,45H50A45.05,45.05,0,0,1,5,686V50A45.05,45.05,0,0,1,50,5H1085m0-5H50A50,50,0,0,0,0,50V686a50,50,0,0,0,50,50H1085a50,50,0,0,0,50-50V50a50,50,0,0,0-50-50Z"/><path class="cls-6" d="M1103.09,48.83l-11.77,20.31a2.52,2.52,0,0,1-2.17,1.24l-12.3,0h-11.16a2.5,2.5,0,0,1-2.16-1.25l-11.7-20.34a2.53,2.53,0,0,1,0-2.5l11.77-20.31a2.51,2.51,0,0,1,2.17-1.24h1.54l21.92,0A2.52,2.52,0,0,1,1091.4,26l11.69,20.33A2.5,2.5,0,0,1,1103.09,48.83Z"/><path class="cls-7" d="M1106.17,45.75,1094.4,66.06a2.51,2.51,0,0,1-2.17,1.24l-12.31,0h-11.15A2.52,2.52,0,0,1,1066.6,66l-11.69-20.33a2.5,2.5,0,0,1,0-2.51l11.77-20.31a2.52,2.52,0,0,1,2.17-1.24h1.54l21.92,0a2.5,2.5,0,0,1,2.16,1.25l11.7,20.34A2.53,2.53,0,0,1,1106.17,45.75Z"/><path class="cls-8" d="M1086.69,48.31a29.73,29.73,0,0,1-6.77,19h-11.15A2.52,2.52,0,0,1,1066.6,66l-11.69-20.33a2.5,2.5,0,0,1,0-2.51l11.77-20.31a2.52,2.52,0,0,1,2.17-1.24h1.54A30,30,0,0,1,1086.69,48.31Z"/><polygon class="cls-9" points="1064.39 44.43 1072.49 30.46 1088.64 30.49 1096.69 44.49 1088.59 58.46 1072.44 58.44 1064.39 44.43"/><path class="cls-6" d="M76.09,50.83,64.32,71.14a2.52,2.52,0,0,1-2.17,1.24l-12.3,0H38.69a2.5,2.5,0,0,1-2.16-1.25L24.83,50.75a2.53,2.53,0,0,1,0-2.5L36.6,27.94a2.51,2.51,0,0,1,2.17-1.24h1.54l21.92,0A2.52,2.52,0,0,1,64.4,28L76.09,48.32A2.5,2.5,0,0,1,76.09,50.83Z"/><path class="cls-7" d="M79.17,47.75,67.4,68.06a2.51,2.51,0,0,1-2.17,1.24l-12.31,0H41.77A2.52,2.52,0,0,1,39.6,68L27.91,47.68a2.5,2.5,0,0,1,0-2.51L39.68,24.86a2.52,2.52,0,0,1,2.17-1.24h1.54l21.92,0a2.5,2.5,0,0,1,2.16,1.25l11.7,20.34A2.53,2.53,0,0,1,79.17,47.75Z"/><path class="cls-8" d="M59.69,50.31a29.73,29.73,0,0,1-6.77,19H41.77A2.52,2.52,0,0,1,39.6,68L27.91,47.68a2.5,2.5,0,0,1,0-2.51L39.68,24.86a2.52,2.52,0,0,1,2.17-1.24h1.54A30,30,0,0,1,59.69,50.31Z"/><polygon class="cls-9" points="37.39 46.43 45.49 32.46 61.64 32.49 69.69 46.49 61.59 60.46 45.44 60.44 37.39 46.43"/><path class="cls-6" d="M78.09,687.83,66.32,708.14a2.52,2.52,0,0,1-2.17,1.24l-12.3,0H40.69a2.5,2.5,0,0,1-2.16-1.25l-11.7-20.34a2.53,2.53,0,0,1,0-2.5L38.6,664.94a2.51,2.51,0,0,1,2.17-1.24h1.54l21.92,0A2.52,2.52,0,0,1,66.4,665l11.69,20.33A2.5,2.5,0,0,1,78.09,687.83Z"/><path class="cls-7" d="M81.17,684.75,69.4,705.06a2.51,2.51,0,0,1-2.17,1.24l-12.31,0H43.77A2.52,2.52,0,0,1,41.6,705L29.91,684.68a2.5,2.5,0,0,1,0-2.51l11.77-20.31a2.52,2.52,0,0,1,2.17-1.24h1.54l21.92,0a2.5,2.5,0,0,1,2.16,1.25l11.7,20.34A2.53,2.53,0,0,1,81.17,684.75Z"/><path class="cls-8" d="M61.69,687.31a29.73,29.73,0,0,1-6.77,19H43.77A2.52,2.52,0,0,1,41.6,705L29.91,684.68a2.5,2.5,0,0,1,0-2.51l11.77-20.31a2.52,2.52,0,0,1,2.17-1.24h1.54A30,30,0,0,1,61.69,687.31Z"/><polygon class="cls-9" points="39.39 683.43 47.49 669.46 63.64 669.49 71.69 683.49 63.59 697.46 47.44 697.44 39.39 683.43"/><path class="cls-6" d="M1109.09,685.83l-11.77,20.31a2.52,2.52,0,0,1-2.17,1.24l-12.3,0h-11.16a2.5,2.5,0,0,1-2.16-1.25l-11.7-20.34a2.53,2.53,0,0,1,0-2.5l11.77-20.31a2.51,2.51,0,0,1,2.17-1.24h1.54l21.92,0a2.52,2.52,0,0,1,2.17,1.25l11.69,20.33A2.5,2.5,0,0,1,1109.09,685.83Z"/><path class="cls-7" d="M1112.17,682.75l-11.77,20.31a2.51,2.51,0,0,1-2.17,1.24l-12.31,0h-11.15a2.52,2.52,0,0,1-2.17-1.25l-11.69-20.33a2.5,2.5,0,0,1,0-2.51l11.77-20.31a2.52,2.52,0,0,1,2.17-1.24h1.54l21.92,0a2.5,2.5,0,0,1,2.16,1.25l11.7,20.34A2.53,2.53,0,0,1,1112.17,682.75Z"/><path class="cls-8" d="M1092.69,685.31a29.73,29.73,0,0,1-6.77,19h-11.15a2.52,2.52,0,0,1-2.17-1.25l-11.69-20.33a2.5,2.5,0,0,1,0-2.51l11.77-20.31a2.52,2.52,0,0,1,2.17-1.24h1.54A30,30,0,0,1,1092.69,685.31Z"/><polygon class="cls-9" points="1070.39 681.43 1078.49 667.46 1094.64 667.49 1102.69 681.49 1094.59 695.46 1078.44 695.44 1070.39 681.43"/></svg>