<svg id="Layer_1" data-name="Layer 1" xmlns="http://www.w3.org/2000/svg" viewBox="0 0 1135 756"><defs><style>.cls-1{fill:#2d2d2d;}.cls-2{fill:#00b1ff;}.cls-3{fill:#3cc7f7;}.cls-4{fill:#1c5fe5;}.cls-5{fill:#3b7fed;}.cls-6{fill:#020202;opacity:0.2;}.cls-7{fill:#30515e;}.cls-8{fill:#f2f7f9;opacity:0.09;}.cls-9{fill:#1e333a;}.cls-10{opacity:0.49;}.cls-11{fill:#050505;}.cls-11,.cls-12{stroke:#070707;stroke-miterlimit:10;}.cls-12{fill:#fff;}</style></defs><title>board</title><rect class="cls-1" y="20" width="1135" height="736"/><rect class="cls-2" width="1135" height="736"/><rect class="cls-3" x="2" y="2" width="1131" height="28"/><path d="M1133,2V734H2V2H1133m2-2H0V736H1135V0Z"/><polygon class="cls-1" points="812.5 135.61 321.5 133.61 321.5 58.92 812.5 60.92 812.5 135.61"/><polygon class="cls-4" points="812.5 132.08 321.5 130.08 321.5 55.39 812.5 57.39 812.5 132.08"/><polygon class="cls-5" points="812.15 62.68 321.85 60.68 321.85 55.74 812.15 57.74 812.15 62.68"/><path d="M812.15,57.74v74l-490.3-2v-74l490.3,2m.35-.35-491-2v74.69l491,2V57.39Z"/><path class="cls-6" d="M1113.09,44.83l-11.77,20.31a2.52,2.52,0,0,1-2.17,1.24l-12.3,0h-11.16a2.5,2.5,0,0,1-2.16-1.25l-11.7-20.34a2.53,2.53,0,0,1,0-2.5l11.77-20.31a2.51,2.51,0,0,1,2.17-1.24h1.54l21.92,0A2.52,2.52,0,0,1,1101.4,22l11.69,20.33A2.5,2.5,0,0,1,1113.09,44.83Z"/><path class="cls-7" d="M1116.17,41.75,1104.4,62.06a2.51,2.51,0,0,1-2.17,1.24l-12.31,0h-11.15A2.52,2.52,0,0,1,1076.6,62l-11.69-20.33a2.5,2.5,0,0,1,0-2.51l11.77-20.31a2.52,2.52,0,0,1,2.17-1.24h1.54l21.92,0a2.5,2.5,0,0,1,2.16,1.25l11.7,20.34A2.53,2.53,0,0,1,1116.17,41.75Z"/><path class="cls-8" d="M1096.69,44.31a29.73,29.73,0,0,1-6.77,19h-11.15A2.52,2.52,0,0,1,1076.6,62l-11.69-20.33a2.5,2.5,0,0,1,0-2.51l11.77-20.31a2.52,2.52,0,0,1,2.17-1.24h1.54A30,30,0,0,1,1096.69,44.31Z"/><polygon class="cls-9" points="1074.39 40.43 1082.49 26.46 1098.64 26.49 1106.69 40.49 1098.59 54.46 1082.44 54.44 1074.39 40.43"/><path class="cls-6" d="M64.09,42.83,52.32,63.14a2.52,2.52,0,0,1-2.17,1.24l-12.3,0H26.69a2.5,2.5,0,0,1-2.16-1.25L12.83,42.75a2.53,2.53,0,0,1,0-2.5L24.6,19.94a2.51,2.51,0,0,1,2.17-1.24h1.54l21.92,0A2.52,2.52,0,0,1,52.4,20L64.09,40.32A2.5,2.5,0,0,1,64.09,42.83Z"/><path class="cls-7" d="M67.17,39.75,55.4,60.06a2.51,2.51,0,0,1-2.17,1.24l-12.31,0H29.77A2.52,2.52,0,0,1,27.6,60L15.91,39.68a2.5,2.5,0,0,1,0-2.51L27.68,16.86a2.52,2.52,0,0,1,2.17-1.24h1.54l21.92,0a2.5,2.5,0,0,1,2.16,1.25l11.7,20.34A2.53,2.53,0,0,1,67.17,39.75Z"/><path class="cls-8" d="M47.69,42.31a29.73,29.73,0,0,1-6.77,19H29.77A2.52,2.52,0,0,1,27.6,60L15.91,39.68a2.5,2.5,0,0,1,0-2.51L27.68,16.86a2.52,2.52,0,0,1,2.17-1.24h1.54A30,30,0,0,1,47.69,42.31Z"/><polygon class="cls-9" points="25.39 38.43 33.49 24.46 49.64 24.49 57.69 38.49 49.59 52.46 33.44 52.44 25.39 38.43"/><path class="cls-6" d="M62.09,702.83,50.32,723.14a2.52,2.52,0,0,1-2.17,1.24l-12.3,0H24.69a2.5,2.5,0,0,1-2.16-1.25l-11.7-20.34a2.53,2.53,0,0,1,0-2.5L22.6,679.94a2.51,2.51,0,0,1,2.17-1.24h1.54l21.92,0A2.52,2.52,0,0,1,50.4,680l11.69,20.33A2.5,2.5,0,0,1,62.09,702.83Z"/><path class="cls-7" d="M65.17,699.75,53.4,720.06a2.51,2.51,0,0,1-2.17,1.24l-12.31,0H27.77A2.52,2.52,0,0,1,25.6,720L13.91,699.68a2.5,2.5,0,0,1,0-2.51l11.77-20.31a2.52,2.52,0,0,1,2.17-1.24h1.54l21.92,0a2.5,2.5,0,0,1,2.16,1.25l11.7,20.34A2.53,2.53,0,0,1,65.17,699.75Z"/><path class="cls-8" d="M45.69,702.31a29.73,29.73,0,0,1-6.77,19H27.77A2.52,2.52,0,0,1,25.6,720L13.91,699.68a2.5,2.5,0,0,1,0-2.51l11.77-20.31a2.52,2.52,0,0,1,2.17-1.24h1.54A30,30,0,0,1,45.69,702.31Z"/><polygon class="cls-9" points="23.39 698.43 31.49 684.46 47.64 684.49 55.69 698.49 47.59 712.46 31.44 712.44 23.39 698.43"/><path class="cls-6" d="M1115.09,700.83l-11.77,20.31a2.52,2.52,0,0,1-2.17,1.24l-12.3,0h-11.16a2.5,2.5,0,0,1-2.16-1.25l-11.7-20.34a2.53,2.53,0,0,1,0-2.5l11.77-20.31a2.51,2.51,0,0,1,2.17-1.24h1.54l21.92,0a2.52,2.52,0,0,1,2.17,1.25l11.69,20.33A2.5,2.5,0,0,1,1115.09,700.83Z"/><path class="cls-7" d="M1118.17,697.75l-11.77,20.31a2.51,2.51,0,0,1-2.17,1.24l-12.31,0h-11.15a2.52,2.52,0,0,1-2.17-1.25l-11.69-20.33a2.5,2.5,0,0,1,0-2.51l11.77-20.31a2.52,2.52,0,0,1,2.17-1.24h1.54l21.92,0a2.5,2.5,0,0,1,2.16,1.25l11.7,20.34A2.53,2.53,0,0,1,1118.17,697.75Z"/><path class="cls-8" d="M1098.69,700.31a29.73,29.73,0,0,1-6.77,19h-11.15a2.52,2.52,0,0,1-2.17-1.25l-11.69-20.33a2.5,2.5,0,0,1,0-2.51l11.77-20.31a2.52,2.52,0,0,1,2.17-1.24h1.54A30,30,0,0,1,1098.69,700.31Z"/><polygon class="cls-9" points="1076.39 696.43 1084.49 682.46 1100.64 682.49 1108.69 696.49 1100.59 710.46 1084.44 710.44 1076.39 696.43"/><g class="cls-10"><path class="cls-11" d="M397.6,112.43V83.09h-6.5V77l9.43-6.15h9.9v41.58Z"/><path class="cls-11" d="M422.55,97.32a12.5,12.5,0,0,1-2.42-.23,4.52,4.52,0,0,1-2-.94,4.8,4.8,0,0,1-1.34-1.93,10.27,10.27,0,0,1,0-6.33,4.55,4.55,0,0,1,1.34-1.9,4.7,4.7,0,0,1,2-.91,11.76,11.76,0,0,1,2.42-.23,11.89,11.89,0,0,1,2.44.23,4.49,4.49,0,0,1,2,.91,4.81,4.81,0,0,1,1.32,1.9,10.47,10.47,0,0,1,0,6.33A5.08,5.08,0,0,1,427,96.15a4.32,4.32,0,0,1-2,.94A12.64,12.64,0,0,1,422.55,97.32Zm0,15.7a11.75,11.75,0,0,1-2.42-.24,4.4,4.4,0,0,1-2-.93,4.84,4.84,0,0,1-1.34-1.94,10.24,10.24,0,0,1,0-6.32,4.59,4.59,0,0,1,1.34-1.91,4.69,4.69,0,0,1,2-.9,11.75,11.75,0,0,1,2.42-.24,11.88,11.88,0,0,1,2.44.24,4.48,4.48,0,0,1,2,.9,4.85,4.85,0,0,1,1.32,1.91,10.43,10.43,0,0,1,0,6.32,5.12,5.12,0,0,1-1.32,1.94,4.21,4.21,0,0,1-2,.93A11.88,11.88,0,0,1,422.55,113Z"/><path class="cls-11" d="M456.06,98.73a13.29,13.29,0,0,0,2.81.9c1.13.26,2.27.47,3.42.65s2.24.3,3.25.38,1.78.12,2.29.12c1,0,1.65-.15,1.9-.44a1.37,1.37,0,0,0,.38-.91,1.67,1.67,0,0,0-.41-1.23,2.74,2.74,0,0,0-1.05-.64,8.26,8.26,0,0,0-2.49-.44,32.35,32.35,0,0,1-3.31-.38,19.08,19.08,0,0,1-3.54-1,9.35,9.35,0,0,1-3.25-2.08A10.33,10.33,0,0,1,453.68,90a16.78,16.78,0,0,1-.9-6,19.45,19.45,0,0,1,.76-5.6A10.3,10.3,0,0,1,456.11,74a11.87,11.87,0,0,1,4.78-2.84,23.16,23.16,0,0,1,7.29-1,37.24,37.24,0,0,1,4.74.3,42,42,0,0,1,4.37.76,30.85,30.85,0,0,1,3.54,1,12.16,12.16,0,0,1,2.34,1.09l-3.86,11a14.38,14.38,0,0,0-2.72-.91c-1.08-.25-2.17-.47-3.29-.64a24.54,24.54,0,0,0-3.22-.32,13.69,13.69,0,0,0-2.6.11,2.42,2.42,0,0,0-1.32.53,1.23,1.23,0,0,0-.32.88,1.19,1.19,0,0,0,.41,1,2.85,2.85,0,0,0,1.05.5,15.5,15.5,0,0,0,2.55.35c1.07.08,2.21.23,3.42.44A19.39,19.39,0,0,1,477,87.28a10.22,10.22,0,0,1,3.4,2.19,10.64,10.64,0,0,1,2.46,3.81,16.11,16.11,0,0,1,.94,6,18.64,18.64,0,0,1-.82,5.66,10.82,10.82,0,0,1-2.67,4.39,12.07,12.07,0,0,1-4.83,2.84,23.45,23.45,0,0,1-7.32,1,39.44,39.44,0,0,1-5.33-.36q-2.64-.34-4.89-.87a33.27,33.27,0,0,1-3.89-1.15,15.11,15.11,0,0,1-2.41-1.08Z"/><path class="cls-11" d="M517.67,110.68c-.58.23-1.33.48-2.22.76s-1.92.52-3.05.76-2.37.44-3.72.61a32.53,32.53,0,0,1-4.3.27q-7.92,0-11.92-3.78t-4-12.33a23.8,23.8,0,0,1,1-7.32,12.72,12.72,0,0,1,2.9-5A11.33,11.33,0,0,1,497,81.77a22.65,22.65,0,0,1,12.71,0,11.3,11.3,0,0,1,4.69,2.87,12.84,12.84,0,0,1,2.9,5,23.8,23.8,0,0,1,1,7.32,16.33,16.33,0,0,1-5.42,1.9,38.79,38.79,0,0,1-5.71.38H500a3.11,3.11,0,0,0,.44,1.56,2.29,2.29,0,0,0,1,.82,4.05,4.05,0,0,0,1.4.29c.53,0,1.09,0,1.67,0q1.41,0,2.58-.09c.78-.06,1.55-.14,2.31-.23s1.55-.23,2.35-.38,1.66-.38,2.6-.65Zm-11-16.11a4.3,4.3,0,0,0-.23-1.88,2,2,0,0,0-.8-.93,2.11,2.11,0,0,0-1.05-.32c-.37,0-.69,0-1,0a13.33,13.33,0,0,0-1.4.09,3.2,3.2,0,0,0-1.2.38,1.86,1.86,0,0,0-.76.94,3.65,3.65,0,0,0-.15,1.76Z"/><path class="cls-11" d="M544.09,125.32V111.79c-.55.23-1,.43-1.47.58a7.58,7.58,0,0,1-1.32.36c-.45.07-.9.13-1.37.17s-1,.06-1.64.06a24.38,24.38,0,0,1-6.91-.85,10.74,10.74,0,0,1-4.75-2.75,11.36,11.36,0,0,1-2.75-4.89A25.91,25.91,0,0,1,523,97.2a26.73,26.73,0,0,1,.91-7.49,12.25,12.25,0,0,1,2.75-5.07,10.86,10.86,0,0,1,4.6-2.87,20.94,20.94,0,0,1,6.5-.91,16.48,16.48,0,0,1,2.37.15,8.63,8.63,0,0,1,1.94.5,7.53,7.53,0,0,1,1.75,1A14.83,14.83,0,0,1,545.61,84l4-2.64h5.57v43.93ZM541.51,102a2.46,2.46,0,0,0,1.55-.44,2.32,2.32,0,0,0,.79-1.14,5.68,5.68,0,0,0,.27-1.64c0-.63,0-1.27,0-1.94s0-1.28,0-1.87a4.8,4.8,0,0,0-.27-1.52,2.07,2.07,0,0,0-.79-1,2.75,2.75,0,0,0-1.55-.38h-2.4a9.3,9.3,0,0,0-2.7.32,3.12,3.12,0,0,0-1.49.94,3.15,3.15,0,0,0-.64,1.55,15.77,15.77,0,0,0,0,4.34,3.15,3.15,0,0,0,.64,1.55,3.12,3.12,0,0,0,1.49.94,9.3,9.3,0,0,0,2.7.32Z"/><path class="cls-11" d="M587.19,112.43l-4-2.63a13.56,13.56,0,0,1-1.64,1.61,7.88,7.88,0,0,1-1.52,1,5.66,5.66,0,0,1-1.58.53,10.49,10.49,0,0,1-1.87.15,21.45,21.45,0,0,1-6.59-.91,10.75,10.75,0,0,1-4.6-2.84,12.2,12.2,0,0,1-2.72-5,25.91,25.91,0,0,1-.91-7.38V81.39h11.12V97a18.91,18.91,0,0,0,.15,2.69,2.21,2.21,0,0,0,2.14,2.14,18.91,18.91,0,0,0,2.69.15h1.23a2.47,2.47,0,0,0,1.56-.44,2.38,2.38,0,0,0,.79-1.14,6.06,6.06,0,0,0,.26-1.64c0-.63,0-1.27,0-1.94V81.39h11.07v31Z"/><path class="cls-11" d="M627.25,110.68c-.58.23-1.32.48-2.22.76s-1.91.52-3,.76-2.38.44-3.73.61a32.42,32.42,0,0,1-4.3.27q-7.9,0-11.92-3.78T598,97a23.82,23.82,0,0,1,1-7.32,13,13,0,0,1,2.9-5,11.3,11.3,0,0,1,4.69-2.87,22.65,22.65,0,0,1,12.71,0A11.26,11.26,0,0,1,624,84.64a12.72,12.72,0,0,1,2.9,5,23.5,23.5,0,0,1,1,7.32,16.25,16.25,0,0,1-5.42,1.9,38.79,38.79,0,0,1-5.71.38h-7.14a3,3,0,0,0,.43,1.56,2.35,2.35,0,0,0,1,.82,4.06,4.06,0,0,0,1.41.29c.52,0,1.08,0,1.66,0q1.41,0,2.58-.09c.78-.06,1.55-.14,2.32-.23s1.54-.23,2.34-.38,1.67-.38,2.61-.65Zm-11-16.11a4.16,4.16,0,0,0-.23-1.88,2,2,0,0,0-.79-.93,2.11,2.11,0,0,0-1.05-.32c-.38,0-.7,0-1,0a13.34,13.34,0,0,0-1.41.09,3.2,3.2,0,0,0-1.2.38,1.91,1.91,0,0,0-.76.94,3.66,3.66,0,0,0-.14,1.76Z"/><path class="cls-11" d="M653.09,112.43V96.85a18.91,18.91,0,0,0-.15-2.69A2.21,2.21,0,0,0,650.8,92a18.91,18.91,0,0,0-2.69-.15h-1.23a2.49,2.49,0,0,0-1.56.44,2.39,2.39,0,0,0-.78,1.14,5.69,5.69,0,0,0-.27,1.65c0,.62,0,1.26,0,1.93v15.4H633.17v-31h5.57l4,2.64a19.2,19.2,0,0,1,1.7-1.64,6.42,6.42,0,0,1,1.52-1,6.25,6.25,0,0,1,1.67-.5,13.59,13.59,0,0,1,2.19-.15,20.14,20.14,0,0,1,6.21.88,10.35,10.35,0,0,1,4.48,2.82,12.57,12.57,0,0,1,2.73,5,25.82,25.82,0,0,1,.93,7.41v15.58Z"/><path class="cls-11" d="M696.55,110c-.71.43-1.43.83-2.17,1.2a13.2,13.2,0,0,1-2.43.94,19.12,19.12,0,0,1-3,.59,31.91,31.91,0,0,1-3.75.2,25,25,0,0,1-7.44-1,12.29,12.29,0,0,1-5.09-2.92,11.43,11.43,0,0,1-2.9-5,25.19,25.19,0,0,1-.91-7.21,24.42,24.42,0,0,1,.94-7.2,11.67,11.67,0,0,1,2.93-5,12.05,12.05,0,0,1,5.09-2.9,26.11,26.11,0,0,1,7.44-.94,26.72,26.72,0,0,1,4.07.27,26,26,0,0,1,3,.64,12.16,12.16,0,0,1,2.28.91c.64.35,1.26.7,1.85,1.06l-3.93,9.6c-.74-.31-1.41-.57-2-.79a14.67,14.67,0,0,0-1.67-.5,10.78,10.78,0,0,0-1.52-.23c-.49,0-1-.06-1.61-.06a13.6,13.6,0,0,0-3.11.29,3.4,3.4,0,0,0-1.75.94,3.24,3.24,0,0,0-.77,1.61,15.85,15.85,0,0,0,0,4.63,3.24,3.24,0,0,0,.77,1.61,3.4,3.4,0,0,0,1.75.94,13.6,13.6,0,0,0,3.11.29c.58,0,1.12,0,1.61-.06a12.46,12.46,0,0,0,1.52-.23,14.67,14.67,0,0,0,1.67-.5c.58-.22,1.25-.48,2-.79Z"/><path class="cls-11" d="M730.46,110.68c-.59.23-1.33.48-2.23.76s-1.91.52-3,.76-2.38.44-3.72.61a32.57,32.57,0,0,1-4.31.27q-7.9,0-11.92-3.78t-4-12.33a23.5,23.5,0,0,1,1-7.32,12.72,12.72,0,0,1,2.9-5,11.33,11.33,0,0,1,4.68-2.87,22.65,22.65,0,0,1,12.71,0,11.37,11.37,0,0,1,4.69,2.87,12.84,12.84,0,0,1,2.9,5,23.82,23.82,0,0,1,1,7.32,16.2,16.2,0,0,1-5.41,1.9,38.93,38.93,0,0,1-5.72.38h-7.14a3,3,0,0,0,.44,1.56,2.26,2.26,0,0,0,1,.82,4.06,4.06,0,0,0,1.41.29c.53,0,1.08,0,1.67,0,.94,0,1.79,0,2.58-.09s1.55-.14,2.31-.23,1.54-.23,2.34-.38,1.67-.38,2.61-.65Zm-11-16.11a4.28,4.28,0,0,0-.24-1.88,2,2,0,0,0-.79-.93,2.11,2.11,0,0,0-1-.32c-.37,0-.7,0-1,0a13.34,13.34,0,0,0-1.41.09,3.21,3.21,0,0,0-1.19.38,1.87,1.87,0,0,0-.77.94,3.79,3.79,0,0,0-.14,1.76Z"/></g><path class="cls-12" d="M400.6,108.43V79.09h-6.5V73l9.43-6.15h9.9v41.58Z"/><path class="cls-12" d="M425.55,93.32a12.5,12.5,0,0,1-2.42-.23,4.52,4.52,0,0,1-2-.94,4.8,4.8,0,0,1-1.34-1.93,10.27,10.27,0,0,1,0-6.33,4.55,4.55,0,0,1,1.34-1.9,4.7,4.7,0,0,1,2-.91,11.76,11.76,0,0,1,2.42-.23,11.89,11.89,0,0,1,2.44.23,4.49,4.49,0,0,1,2,.91,4.81,4.81,0,0,1,1.32,1.9,10.47,10.47,0,0,1,0,6.33A5.08,5.08,0,0,1,430,92.15a4.32,4.32,0,0,1-2,.94A12.64,12.64,0,0,1,425.55,93.32Zm0,15.7a11.75,11.75,0,0,1-2.42-.24,4.4,4.4,0,0,1-2-.93,4.84,4.84,0,0,1-1.34-1.94,10.24,10.24,0,0,1,0-6.32,4.59,4.59,0,0,1,1.34-1.91,4.69,4.69,0,0,1,2-.9,11.75,11.75,0,0,1,2.42-.24,11.88,11.88,0,0,1,2.44.24,4.48,4.48,0,0,1,2,.9,4.85,4.85,0,0,1,1.32,1.91,10.43,10.43,0,0,1,0,6.32,5.12,5.12,0,0,1-1.32,1.94,4.21,4.21,0,0,1-2,.93A11.88,11.88,0,0,1,425.55,109Z"/><path class="cls-12" d="M459.06,94.73a13.29,13.29,0,0,0,2.81.9c1.13.26,2.27.47,3.42.65s2.24.3,3.25.38,1.78.12,2.29.12c1,0,1.65-.15,1.9-.44a1.37,1.37,0,0,0,.38-.91,1.67,1.67,0,0,0-.41-1.23,2.74,2.74,0,0,0-1.05-.64,8.26,8.26,0,0,0-2.49-.44,32.35,32.35,0,0,1-3.31-.38,19.08,19.08,0,0,1-3.54-1,9.35,9.35,0,0,1-3.25-2.08A10.33,10.33,0,0,1,456.68,86a16.78,16.78,0,0,1-.9-6,19.45,19.45,0,0,1,.76-5.6A10.3,10.3,0,0,1,459.11,70a11.87,11.87,0,0,1,4.78-2.84,23.16,23.16,0,0,1,7.29-1,37.24,37.24,0,0,1,4.74.3,42,42,0,0,1,4.37.76,30.85,30.85,0,0,1,3.54,1,12.16,12.16,0,0,1,2.34,1.09l-3.86,11a14.38,14.38,0,0,0-2.72-.91c-1.08-.25-2.17-.47-3.29-.64a24.54,24.54,0,0,0-3.22-.32,13.69,13.69,0,0,0-2.6.11,2.42,2.42,0,0,0-1.32.53,1.23,1.23,0,0,0-.32.88,1.19,1.19,0,0,0,.41,1,2.85,2.85,0,0,0,1.05.5,15.5,15.5,0,0,0,2.55.35c1.07.08,2.21.23,3.42.44A19.39,19.39,0,0,1,480,83.28a10.22,10.22,0,0,1,3.4,2.19,10.64,10.64,0,0,1,2.46,3.81,16.11,16.11,0,0,1,.94,6,18.64,18.64,0,0,1-.82,5.66,10.82,10.82,0,0,1-2.67,4.39,12.07,12.07,0,0,1-4.83,2.84,23.45,23.45,0,0,1-7.32,1,39.44,39.44,0,0,1-5.33-.36q-2.64-.34-4.89-.87a33.27,33.27,0,0,1-3.89-1.15,15.11,15.11,0,0,1-2.41-1.08Z"/><path class="cls-12" d="M520.67,106.68c-.58.23-1.33.48-2.22.76s-1.92.52-3.05.76-2.37.44-3.72.61a32.53,32.53,0,0,1-4.3.27q-7.92,0-11.92-3.78t-4-12.33a23.8,23.8,0,0,1,1-7.32,12.72,12.72,0,0,1,2.9-5A11.33,11.33,0,0,1,500,77.77a22.65,22.65,0,0,1,12.71,0,11.3,11.3,0,0,1,4.69,2.87,12.84,12.84,0,0,1,2.9,5,23.8,23.8,0,0,1,1,7.32,16.33,16.33,0,0,1-5.42,1.9,38.79,38.79,0,0,1-5.71.38H503a3.11,3.11,0,0,0,.44,1.56,2.29,2.29,0,0,0,1,.82,4.05,4.05,0,0,0,1.4.29c.53,0,1.09,0,1.67,0q1.41,0,2.58-.09c.78-.06,1.55-.14,2.31-.23s1.55-.23,2.35-.38,1.66-.38,2.6-.65Zm-11-16.11a4.3,4.3,0,0,0-.23-1.88,2,2,0,0,0-.8-.93,2.11,2.11,0,0,0-1.05-.32c-.37,0-.69,0-1,0a13.33,13.33,0,0,0-1.4.09,3.2,3.2,0,0,0-1.2.38,1.86,1.86,0,0,0-.76.94,3.65,3.65,0,0,0-.15,1.76Z"/><path class="cls-12" d="M547.09,121.32V107.79c-.55.23-1,.43-1.47.58a7.58,7.58,0,0,1-1.32.36c-.45.07-.9.13-1.37.17s-1,.06-1.64.06a24.38,24.38,0,0,1-6.91-.85,10.74,10.74,0,0,1-4.75-2.75,11.36,11.36,0,0,1-2.75-4.89A25.91,25.91,0,0,1,526,93.2a26.73,26.73,0,0,1,.91-7.49,12.25,12.25,0,0,1,2.75-5.07,10.86,10.86,0,0,1,4.6-2.87,20.94,20.94,0,0,1,6.5-.91,16.48,16.48,0,0,1,2.37.15,8.63,8.63,0,0,1,1.94.5,7.53,7.53,0,0,1,1.75,1A14.83,14.83,0,0,1,548.61,80l4-2.64h5.57v43.93ZM544.51,98a2.46,2.46,0,0,0,1.55-.44,2.32,2.32,0,0,0,.79-1.14,5.68,5.68,0,0,0,.27-1.64c0-.63,0-1.27,0-1.94s0-1.28,0-1.87a4.8,4.8,0,0,0-.27-1.52,2.07,2.07,0,0,0-.79-1,2.75,2.75,0,0,0-1.55-.38h-2.4a9.3,9.3,0,0,0-2.7.32,3.12,3.12,0,0,0-1.49.94,3.15,3.15,0,0,0-.64,1.55,15.77,15.77,0,0,0,0,4.34,3.15,3.15,0,0,0,.64,1.55,3.12,3.12,0,0,0,1.49.94,9.3,9.3,0,0,0,2.7.32Z"/><path class="cls-12" d="M590.19,108.43l-4-2.63a13.56,13.56,0,0,1-1.64,1.61,7.88,7.88,0,0,1-1.52,1,5.66,5.66,0,0,1-1.58.53,10.49,10.49,0,0,1-1.87.15,21.45,21.45,0,0,1-6.59-.91,10.75,10.75,0,0,1-4.6-2.84,12.2,12.2,0,0,1-2.72-5,25.91,25.91,0,0,1-.91-7.38V77.39h11.12V93a18.91,18.91,0,0,0,.15,2.69,2.21,2.21,0,0,0,2.14,2.14,18.91,18.91,0,0,0,2.69.15h1.23a2.47,2.47,0,0,0,1.56-.44,2.38,2.38,0,0,0,.79-1.14,6.06,6.06,0,0,0,.26-1.64c0-.63,0-1.27,0-1.94V77.39h11.07v31Z"/><path class="cls-12" d="M630.25,106.68c-.58.23-1.32.48-2.22.76s-1.91.52-3,.76-2.38.44-3.73.61a32.42,32.42,0,0,1-4.3.27q-7.9,0-11.92-3.78T601,93a23.82,23.82,0,0,1,1-7.32,13,13,0,0,1,2.9-5,11.3,11.3,0,0,1,4.69-2.87,22.65,22.65,0,0,1,12.71,0A11.26,11.26,0,0,1,627,80.64a12.72,12.72,0,0,1,2.9,5,23.5,23.5,0,0,1,1,7.32,16.25,16.25,0,0,1-5.42,1.9,38.79,38.79,0,0,1-5.71.38h-7.14a3,3,0,0,0,.43,1.56,2.35,2.35,0,0,0,1,.82,4.06,4.06,0,0,0,1.41.29c.52,0,1.08,0,1.66,0q1.41,0,2.58-.09c.78-.06,1.55-.14,2.32-.23s1.54-.23,2.34-.38,1.67-.38,2.61-.65Zm-11-16.11a4.16,4.16,0,0,0-.23-1.88,2,2,0,0,0-.79-.93,2.11,2.11,0,0,0-1.05-.32c-.38,0-.7,0-1,0a13.34,13.34,0,0,0-1.41.09,3.2,3.2,0,0,0-1.2.38,1.91,1.91,0,0,0-.76.94,3.66,3.66,0,0,0-.14,1.76Z"/><path class="cls-12" d="M656.09,108.43V92.85a18.91,18.91,0,0,0-.15-2.69A2.21,2.21,0,0,0,653.8,88a18.91,18.91,0,0,0-2.69-.15h-1.23a2.49,2.49,0,0,0-1.56.44,2.39,2.39,0,0,0-.78,1.14,5.69,5.69,0,0,0-.27,1.65c0,.62,0,1.26,0,1.93v15.4H636.17v-31h5.57l4,2.64a19.2,19.2,0,0,1,1.7-1.64,6.42,6.42,0,0,1,1.52-1,6.25,6.25,0,0,1,1.67-.5,13.59,13.59,0,0,1,2.19-.15,20.14,20.14,0,0,1,6.21.88,10.35,10.35,0,0,1,4.48,2.82,12.57,12.57,0,0,1,2.73,5,25.82,25.82,0,0,1,.93,7.41v15.58Z"/><path class="cls-12" d="M699.55,106c-.71.43-1.43.83-2.17,1.2a13.2,13.2,0,0,1-2.43.94,19.12,19.12,0,0,1-3,.59,31.91,31.91,0,0,1-3.75.2,25,25,0,0,1-7.44-1,12.29,12.29,0,0,1-5.09-2.92,11.43,11.43,0,0,1-2.9-5,25.19,25.19,0,0,1-.91-7.21,24.42,24.42,0,0,1,.94-7.2,11.67,11.67,0,0,1,2.93-5,12.05,12.05,0,0,1,5.09-2.9,26.11,26.11,0,0,1,7.44-.94,26.72,26.72,0,0,1,4.07.27,26,26,0,0,1,3,.64,12.16,12.16,0,0,1,2.28.91c.64.35,1.26.7,1.85,1.06l-3.93,9.6c-.74-.31-1.41-.57-2-.79a14.67,14.67,0,0,0-1.67-.5,10.78,10.78,0,0,0-1.52-.23c-.49,0-1-.06-1.61-.06a13.6,13.6,0,0,0-3.11.29,3.4,3.4,0,0,0-1.75.94,3.24,3.24,0,0,0-.77,1.61,15.85,15.85,0,0,0,0,4.63,3.24,3.24,0,0,0,.77,1.61,3.4,3.4,0,0,0,1.75.94,13.6,13.6,0,0,0,3.11.29c.58,0,1.12,0,1.61-.06a12.46,12.46,0,0,0,1.52-.23,14.67,14.67,0,0,0,1.67-.5c.58-.22,1.25-.48,2-.79Z"/><path class="cls-12" d="M733.46,106.68c-.59.23-1.33.48-2.23.76s-1.91.52-3,.76-2.38.44-3.72.61a32.57,32.57,0,0,1-4.31.27q-7.9,0-11.92-3.78t-4-12.33a23.5,23.5,0,0,1,1-7.32,12.72,12.72,0,0,1,2.9-5,11.33,11.33,0,0,1,4.68-2.87,22.65,22.65,0,0,1,12.71,0,11.37,11.37,0,0,1,4.69,2.87,12.84,12.84,0,0,1,2.9,5,23.82,23.82,0,0,1,1,7.32,16.2,16.2,0,0,1-5.41,1.9,38.93,38.93,0,0,1-5.72.38h-7.14a3,3,0,0,0,.44,1.56,2.26,2.26,0,0,0,1,.82,4.06,4.06,0,0,0,1.41.29c.53,0,1.08,0,1.67,0,.94,0,1.79,0,2.58-.09s1.55-.14,2.31-.23,1.54-.23,2.34-.38,1.67-.38,2.61-.65Zm-11-16.11a4.28,4.28,0,0,0-.24-1.88,2,2,0,0,0-.79-.93,2.11,2.11,0,0,0-1-.32c-.37,0-.7,0-1,0a13.34,13.34,0,0,0-1.41.09,3.21,3.21,0,0,0-1.19.38,1.87,1.87,0,0,0-.77.94,3.79,3.79,0,0,0-.14,1.76Z"/></svg>