<?xml version="1.0" encoding="utf-8"?>
<!-- Generator: Adobe Illustrator 23.0.2, SVG Export Plug-In . SVG Version: 6.00 Build 0)  -->
<svg version="1.1" id="Layer_1" xmlns="http://www.w3.org/2000/svg" xmlns:xlink="http://www.w3.org/1999/xlink" x="0px" y="0px"
	 viewBox="0 0 980.7 710.5" style="enable-background:new 0 0 980.7 710.5;" xml:space="preserve">
<style type="text/css">
	.st0{fill:#2E85BF;}
	.st1{fill:#353535;stroke:#000000;stroke-width:0.96;stroke-linejoin:round;}
	.st2{fill:#4D4D4D;}
	.st3{fill:#B3B3B3;}
	.st4{fill:#D3161D;}
	.st5{fill:#ADADAD;stroke:#080000;stroke-width:1.31;stroke-miterlimit:10;}
	.st6{fill:none;stroke:#070707;stroke-width:2.01;stroke-miterlimit:10;}
	.st7{fill:#77401B;stroke:#070707;stroke-width:1.25;stroke-miterlimit:10;}
	.st8{fill:#F8C946;stroke:#020202;stroke-width:1.25;stroke-miterlimit:10;}
	.st9{fill:#282828;stroke:#151616;stroke-width:1.03;stroke-miterlimit:10;}
	.st10{fill:#4D4D4D;stroke:#151616;stroke-width:1.03;stroke-miterlimit:10;}
	.st11{fill:#4D4D4D;stroke:#151616;stroke-width:3.75;stroke-miterlimit:10;}
	.st12{fill:#F8C946;}
	.st13{fill:#683919;}
	.st14{fill:#945320;}
	.st15{fill:#515051;stroke:#000000;stroke-width:1.25;stroke-linejoin:round;}
	.st16{fill:#161616;stroke:#0A0A0A;stroke-width:1.08;stroke-miterlimit:10;}
	.st17{fill:#8E8A8B;stroke:#000000;stroke-width:1.08;stroke-linejoin:round;}
	.st18{fill:#E2B647;stroke:#070707;stroke-width:1.08;stroke-miterlimit:10;}
	.st19{fill:#161616;}
	.st20{fill:#945320;stroke:#070707;stroke-width:1.08;stroke-miterlimit:10;}
	.st21{fill:none;stroke:#0A0A0A;stroke-width:1.08;stroke-miterlimit:10;}
	.st22{fill:#DDDBD7;}
	.st23{fill:#232323;}
	.st24{fill:#3A3A3A;}
	.st25{fill:none;stroke:#000000;stroke-width:1.08;stroke-miterlimit:10;}
	.st26{fill:#282828;}
	.st27{fill:#7C7C7C;}
	.st28{fill:#666666;}
	.st29{fill:none;stroke:#070707;stroke-width:1.25;stroke-miterlimit:10;}
	.st30{fill:#389CCE;}
	.st31{fill:#7F1119;}
	.st32{fill:#5E0E18;}
	.st33{fill:#352F49;}
	.st34{fill:#E41E00;}
	.st35{fill:#FFFE28;}
	.st36{fill:#18FF08;}
	.st37{fill:#DBDDDD;}
	.st38{fill:#0FB0DB;}
	.st39{fill:#303435;}
	.st40{fill:url(#SVGID_1_);stroke:#0A0A0A;stroke-width:0.49;stroke-miterlimit:10;}
	.st41{fill:none;stroke:#0A0A0A;stroke-width:0.49;stroke-miterlimit:10;}
	.st42{fill:url(#SVGID_2_);stroke:#0A0A0A;stroke-width:0.49;stroke-miterlimit:10;}
	.st43{fill:url(#SVGID_3_);stroke:#0A0A0A;stroke-width:0.49;stroke-miterlimit:10;}
	.st44{fill:url(#SVGID_4_);stroke:#0A0A0A;stroke-width:0.49;stroke-miterlimit:10;}
	.st45{fill:none;stroke:#070707;stroke-width:0.63;stroke-miterlimit:10;}
	.st46{fill:url(#SVGID_5_);}
	.st47{fill:#1E1E1E;}
	.st48{fill:#080809;}
	.st49{fill:#4C4C4C;}
	.st50{opacity:0.1;fill:url(#SVGID_6_);}
	.st51{fill:#2B2B2B;stroke:#606060;stroke-width:0.8652;stroke-miterlimit:10;}
	.st52{fill:#EFEDED;}
</style>
<title>bt_background</title>
<g id="Layer_23">
	<path class="st0" d="M718.8,156.4c7.4,28.7,25.4,53.5,50.3,69.5l8.6-14.3c-44.7-29.4-59.1-88.5-31.9-133.7L731.2,69
		C715.4,95.3,710.9,126.8,718.8,156.4z"/>
	<path class="st0" d="M751.3,148.7c5.2,20,17.6,37.4,34.9,48.9l8.5-13.8c-31.1-21.2-40.4-57.6-21.2-89.5l-13.3-7.9
		C748.8,105.1,745.7,127.6,751.3,148.7z"/>
	<path class="st0" d="M781.3,142.9c3.5,13.4,11.6,25.1,22.9,33l7.1-11.9c-20.5-14.9-24.4-35.4-11.4-57l-12.5-7.1
		C779.7,112.8,777.4,128.3,781.3,142.9z"/>
	<path class="st1" d="M628.8,655.3c0.6-4.6,0.9-9.2,0.8-13.8c-0.5-19.4-2.5-78-8.7-114.7c-3.7-21.6-5.5-36.2-7.4-47.2
		c-2.2-12.8-7.4-24.9-15-35.4c-5.1-7-11-15-21.1-22.5c-13.2-9.8-29.3-14.1-45.6-16.2c-40.7-5.3-62-10.2-70.4-9.9
		c-9,3.1-50.7,28.5-60.8,56.8c-7.2,20.4-13.3,49.2-4.7,75.6s38.5,149.6,63.7,158.8c29.4,10.8,107.9,27.5,134.9,17.3
		C618.7,694.8,625.8,676.7,628.8,655.3z"/>
	<path class="st2" d="M487.6,689c-19,0-38.8-12.3-56.1-23.2l-4.9-3c-9.8-6-32.6-32.3-58.2-66.8c-25-33.7-44.4-64.2-48.1-75.8
		c-8.3-25.6-2.1-53.7,4.7-72.7c3.8-10.6,12.2-20,25.1-27.8c8.5-5,17.5-9,26.8-12.1l1.1-0.4l2.3-0.8c8.2-3,27.6-10,52.6-10
		c2.4,0,4.9,0.1,7.2,0.2c15.6,0.7,30.6,6.1,43.2,15.3c9.9,7.3,15.6,15.2,20.2,21.5c7.2,10,12.1,21.5,14.3,33.6
		c0.9,4.9,1.7,10.6,2.7,17.3c1.2,8,2.7,18,4.7,30c6.2,36.7,8.2,96.6,8.6,114.1c0.1,4.4-0.1,8.8-0.7,13.1c-3,21.1-9.5,36.8-31.5,45.2
		C497.1,688.3,492.4,689.1,487.6,689z"/>
	<path d="M432.9,401c2.3,0,4.7,0.1,7,0.2c14.7,0.7,28.9,5.7,40.8,14.4c9.3,6.9,14.8,14.5,19.2,20.5c6.8,9.4,11.4,20.2,13.4,31.7
		c0.8,4.9,1.7,10.5,2.7,17.1c1.2,8,2.7,18,4.7,30c6.2,36.4,8.1,96,8.6,113.5c0.1,4.1-0.1,8.3-0.7,12.3c-1.6,11.3-4.1,19.2-8,25.5
		c-4.5,7.3-11.2,12.5-20.6,16.1c-3.9,1.5-8.1,2.2-12.3,2.2c-17.8,0-36.8-11.9-53.7-22.5l-4.9-3c-9.2-5.7-32-32.1-57-65.6
		c-24.4-32.8-43.9-63.4-47.5-74.5c-4.4-13.5-7.1-36.5,4.6-69.8c3.4-9.6,11.2-18.2,23.2-25.5c10.3-6.3,20.8-9.9,25.9-11.7l1.2-0.4
		l2.3-0.8C389.8,407.8,408.6,401,432.9,401 M432.9,392c-28.4,0-49.4,8.6-56.4,11c-9,3.1-45.8,14.8-55.8,43.1
		c-7.2,20.4-13.3,49.2-4.7,75.6c8.6,26.3,85.5,130.9,108.3,145.1c18.5,11.4,41,26.9,63.3,26.9c5.3,0,10.6-0.9,15.5-2.8
		c24.2-9.2,31.3-27.3,34.4-48.8c0.6-4.6,0.9-9.2,0.8-13.9c-0.5-19.4-2.5-78-8.7-114.7c-3.7-21.6-5.5-36.2-7.4-47.2
		c-2.2-12.8-7.4-24.9-15-35.4c-5.1-7-11-15-21.1-22.5c-13.3-9.8-29.2-15.4-45.6-16.2C437.9,392,435.5,391.9,432.9,392L432.9,392z"/>
	
		<ellipse transform="matrix(0.2689 -0.9632 0.9632 0.2689 -181.9894 726.2943)" class="st3" cx="387.4" cy="483" rx="60.2" ry="48.1"/>
	
		<ellipse transform="matrix(0.2689 -0.9632 0.9632 0.2689 -250.9987 833.3793)" class="st3" cx="423.5" cy="582" rx="43.1" ry="34.5"/>
	
		<ellipse transform="matrix(0.2689 -0.9632 0.9632 0.2689 -258.5905 925.7204)" class="st3" cx="480.5" cy="633.2" rx="34" ry="27.1"/>
	
		<ellipse transform="matrix(0.2689 -0.9632 0.9632 0.2689 -183.3558 722.8298)" class="st4" cx="384.5" cy="482.2" rx="22.5" ry="16.4"/>
	
		<ellipse transform="matrix(0.4933 -0.8698 0.8698 0.4933 -293.7968 662.1867)" class="st4" cx="421.5" cy="583.3" rx="19.4" ry="14.1"/>
	
		<ellipse transform="matrix(0.4933 -0.8698 0.8698 0.4933 -309.6127 739.3682)" class="st4" cx="479.9" cy="635.5" rx="14.4" ry="10.5"/>
	<path class="st5" d="M511,594.4c0,0-3-17-27.7-16.2c-1.2-10.8-2.1-39.2-43-48c4.6-8.3,31.6-42.1,13-88.6c13.3-1.8,21.5-3.1,31,19.6
		S514,590.3,511,594.4z"/>
	<line class="st6" x1="613.4" y1="478.9" x2="521.2" y2="461.2"/>
	<line class="st6" x1="574.8" y1="419.8" x2="472.1" y2="400"/>
	<polyline class="st6" points="457.5,397.2 430.3,392 430.2,391.9 	"/>
	<line class="st6" x1="623.1" y1="541.6" x2="531.2" y2="523.9"/>
	<line class="st6" x1="628.1" y1="602.5" x2="536.5" y2="584.8"/>
	<line class="st6" x1="627.3" y1="663.8" x2="536.9" y2="646.4"/>
	<path class="st7" d="M634.1,226.4l-116.6,65.1c-20.2,10.5-32.5,21.3-23.8,41.4l0,0c10.7,18.6,21.7,15.5,41.8,8.8l136.3-43.1
		c20.1-8.9,29.3-32.3,20.6-52.5l0,0C683.7,226,654.2,217.6,634.1,226.4z"/>
	<path class="st8" d="M625.1,231.2l-122.5,66c-20.2,10.5-2,56.9,18.1,50.2L657,304.2c20.1-8.9,29.3-32.3,20.6-52.5l0,0
		C668.7,231.6,645.3,222.5,625.1,231.2z"/>
	<path class="st9" d="M672.4,235.6c0,0-3.4-5.8-15.7-8.3c6.9-15.8,28.9-51.3,35.5-51.6c4.5-0.2,11.8,3.2,18.5,6.7
		c6.1,3.1,7.9,10.9,3.2,15.8c-14.1,14.7-36.6,36.8-36.6,36.8L672.4,235.6z"/>
	<path class="st10" d="M656.4,227.2c6.9-15.8,24.2-52.6,30.7-52.9c4.5-0.2,12.2,2.6,18.8,5.5c5,2.2,7.2,8,5,13c0,0,0,0,0,0
		c-0.5,1-1.1,2-1.9,2.8c-14.1,14.7-35.1,40.3-36.8,40.6C668.6,230.8,662.7,227.5,656.4,227.2z"/>
	<path class="st9" d="M686.2,258.6c0,0,0.8-6.7-7.5-16.1c15-8.4,54-23.3,59.5-19.6c3.7,2.5,7.4,9.7,10.7,16.6
		c2.9,6.2-0.3,13.4-7,14.5c-20.2,3.2-51.4,7.2-51.4,7.2L686.2,258.6z"/>
	<path class="st10" d="M678.5,242.2c15-8.4,51-27.2,56.5-23.5c3.7,2.5,8.1,9.4,11.6,15.7c2.6,4.7,1,10.7-3.8,13.3l0,0
		c-1,0.6-2.1,1-3.2,1.1c-20.2,3.2-52.3,10.9-53.8,10.1C686.1,252.5,683.4,246.3,678.5,242.2z"/>
	<path class="st9" d="M679,287.2c0,0,5-4.5,5.1-17c16.8,3.7,45.2,9,46.9,15.3c1.1,4.4,1.4,4.9-0.7,12.2c-1.9,6.6-8.7,9.1-14.8,6.2
		c-11.1-5.2-22.8-9.3-34.8-12L679,287.2z"/>
	<path class="st10" d="M684.1,269.9c16.8,3.7,45.6,4,47.2,10.4c1.1,4.4,2.1,5.1,0.5,12.2c-1.5,6.7-8.6,9-14.8,6.2
		c-18.5-8.4-37.9-9.8-38.5-11.5C682.9,282.6,685,276.2,684.1,269.9z"/>
	<path class="st9" d="M638.5,224.4l12.7,2.4c0,0,3.7-2.2,4.5-2.7c4.3-3.1,8.5-44.7,0-45.4s-19.7,0.9-21.1,3.6
		c-0.2,0.3-2.9,3.2-2.9,3.2S636.7,225.9,638.5,224.4z"/>
	<path class="st10" d="M634,227.1c2.8-1,5.8-1.5,8.8-1.5c2.8,0.1,5.6,0.6,8.3,1.2c5.2,0.9,8.5-44.7,0-45.4s-18.8,2.1-20.1,4.8
		S632,228.9,634,227.1z"/>
	
		<ellipse transform="matrix(0.1884 -0.9821 0.9821 0.1884 256.8835 845.1823)" class="st11" cx="639.8" cy="267.2" rx="15.6" ry="14.1"/>
	<path class="st12" d="M559.2,330.1c0,0-106.3-60.1-155-72.1c0,0-132.3-16.1-247.1-16.5c12.8,11,125.4,66.8,141.6,71.2
		S514.8,333.5,559.2,330.1z"/>
	<path class="st13" d="M335.6,302.9c0,0-42.9-29.3-47.3-31.1s86,1.4,86,1.4s41.7,27.7,44.4,30.6S335.6,302.9,335.6,302.9z"/>
	<path class="st14" d="M155.6,241.1c0,0-23.4,188.4-12.6,237.2c13.3,12.9,107.8,63.6,138.9,65.8c5-21.4,22.8-215.4,15.3-231.8
		C286.3,302.5,202.2,257.8,155.6,241.1z"/>
	<path class="st4" d="M559.2,330.1c0,0-3,96.9-11.3,167.6c-3.2,27.2-31.3,52-35.8,52.7c-10.6,8.5-240.1-1.8-253.1-11.9
		c0,0,22.5-18.4,24.8-56.1c2.9-47.1,9.9-113.1,13.6-170.1C306.1,308.5,518.5,321.1,559.2,330.1z"/>
	<path class="st15" d="M352.9,202.6l-14.5,70l61.2,13.3c10.2,2.1,21.8-11.8,25.8-31.2s-1.1-36.7-11.3-38.9c-3.5-0.7-7,0.4-10.5,2.9
		L352.9,202.6z"/>
	<path class="st16" d="M626.7,247c0,0-26.4,11.3-67.6,8c-18.3-1.4-41.3-8.3-63.2-15.8c-71.3-24.6-96-69.5-96-69.5
		s15.3-49.4,19.8-66.2S454,58.7,454,58.7L626.7,247z"/>
	<path class="st16" d="M158.9,152.7c0,0,8.8,27.9,56.1,35.5s119.2,3.6,119.2,3.6l54.5-48.1L158.9,152.7z"/>
	<path class="st4" d="M443.7,67.7l-23.9-4.9l-15.6,78.4l23.3,4.8C427.5,146.1,434.6,93.5,443.7,67.7z"/>
	<polygon class="st17" points="427.5,146.1 407.9,163.7 391.2,160.3 404.2,141.2 	"/>
	<polygon class="st18" points="445.7,149.8 381.9,136.6 362.6,250 423.5,261.1 	"/>
	<path class="st19" d="M427.6,145.4l-1.1,13.8c-0.1,0.7,0.2,1.3,0.6,1.8l13.9,15.5c0.9,1,2.4,1,3.3,0.2c0.3-0.3,0.5-0.6,0.6-0.9
		l1.3-3.6c0.2-0.7,0.1-1.5-0.3-2.1l-14.1-25.7c-0.7-1.1-2.2-1.4-3.3-0.6C428,144,427.6,144.7,427.6,145.4L427.6,145.4z"/>
	<polygon class="st20" points="334.1,191.7 334.9,218.4 362.6,250 381.9,136.6 	"/>
	<path class="st16" d="M403,143c0,0-3.8,12.7-6.9,14.2s-41.8,9.5-46.2,9.2s-1.5-9.9-1.5-9.9L403,143z"/>
	<path class="st21" d="M403,143c0,0-4.6,15.4-8.1,14.6c-4.6,1.2-38.8,8.4-38.8,8.4"/>
	<path class="st22" d="M238.7,163.3c-31.9,0-55.7-2.5-68.8-7.3c-3.5-1.3-5.7-4.6-5.6-8.3c0.6-18.1,2.4-36.2,5.4-54.1
		c4.7-27.5,11.8-50.6,21.2-68.7c1.5-2.9,4.4-4.7,7.6-4.7h0.1c26,0.4,118.1,3.6,209.1,29.2c3.9,1.1,6.5,4.9,6.1,8.9
		c-2.5,28.3-11.6,72.6-17.6,85.7c-2.9,2.2-17.8,7.4-56.1,12.4C306.6,160.8,272.7,163.1,238.7,163.3z"/>
	<path class="st23" d="M198.6,13.9v12.5c25.9,0.4,117.2,3.6,207.5,29c1,0.3,1.7,1.3,1.6,2.4c-2.4,28.1-10.9,68.2-16.2,81.8
		c-4.7,2.1-20.2,6.7-54.9,11.1c-32.5,4.1-65.2,6.2-97.9,6.4c-30.8,0-54.4-2.4-66.6-6.9c-0.9-0.3-1.5-1.2-1.4-2.2
		c0.6-17.9,2.4-35.7,5.3-53.3c4.5-26.9,11.5-49.4,20.6-66.9c0.4-0.8,1.2-1.4,2.1-1.4L198.6,13.9 M198.6,13.9
		c-5.6,0-10.6,3.2-13.2,8.1c-22.5,43.2-26.6,103.1-27.3,125.5c-0.2,6.4,3.7,12.2,9.7,14.4c15,5.5,41.2,7.6,70.9,7.6
		c69.7,0,158.2-12.1,163.1-22.3c6.5-13.5,16-60.1,18.4-88.4c0.6-7.1-3.9-13.6-10.7-15.5C318.3,17.7,227,14.3,198.8,13.9H198.6z"/>
	<polygon class="st18" points="415.1,278 407.5,301 338.2,300 352.5,266.3 	"/>
	<polygon class="st20" points="325.7,245 296.6,272.7 338.2,300 352.5,266.3 	"/>
	
		<ellipse transform="matrix(0.2028 -0.9792 0.9792 0.2028 42.9105 527.8417)" class="st24" cx="345.6" cy="237.6" rx="35.7" ry="19"/>
	<path class="st25" d="M428.3,144.2c0,0-2.5,15.4-1.2,16.8l14,15.5"/>
	<path class="st22" d="M618.1,242.9h-0.4c-21.8-1-61.8-16-106.8-39.9c-47.2-25-70.5-44.1-72.9-49.1c-0.5-14,8.4-59.3,17-85.8
		c1.1-3.4,4.2-5.7,7.8-5.7c0.3,0,0.7,0,1,0.1c66.4,8.2,126.9,23.3,179.9,44.6c2.9,1.2,4.9,3.9,5.2,7.1c1.7,20.3-0.7,44.3-7.1,71.5
		c-4.2,17.7-9.5,35-16,52C624.5,240.8,621.5,242.8,618.1,242.9L618.1,242.9z"/>
	<path class="st23" d="M462.7,68.9c0.1,0,0.1,0,0.2,0c65.8,8.2,125.7,23.1,178.3,44.2c0.6,0.3,1,0.9,1.1,1.5
		c1.6,19.6-0.7,42.9-6.9,69.4c-4.1,17.4-9.4,34.4-15.7,51.1c-0.2,0.6-0.8,1.1-1.5,1.1H618c-10.4-0.5-25.7-4.5-44.5-11.6
		c-19.4-7.6-38.4-16.2-56.8-26c-17.1-8.9-33.8-18.7-49.9-29.3c-15-10-20.6-15.6-22.5-17.7c0.3-14.4,8-54.8,16.7-81.6
		C461.4,69.4,462,68.9,462.7,68.9 M462.7,55.8c-6.4,0-12,4.2-14,10.3c-8.7,27-18,73.6-17.2,88.6c0.8,16.1,132.6,92.1,186,94.7h0.7
		c6.1,0,11.6-3.8,13.8-9.5c8-20.9,27.5-77.7,23.5-126.3c-0.5-5.6-4.1-10.5-9.3-12.6c-26.2-10.5-87.5-33.4-181.5-45.1
		C463.9,55.9,463.3,55.8,462.7,55.8L462.7,55.8z"/>
	<path class="st26" d="M328.6,144.4c-2.6,0-5.2-0.2-7.7-0.7c-11.9-2.3-22.3-9.5-28.6-19.8c-6.8-10.9-9.2-24-6.7-36.7
		c4.4-23.5,23.6-40.6,45.6-40.6c2.6,0,5.2,0.2,7.7,0.7c11.9,2.3,22.3,9.5,28.6,19.8c6.8,10.9,9.2,24,6.7,36.7
		C369.8,127.3,350.6,144.4,328.6,144.4z"/>
	<path class="st27" d="M331.2,51.9c2.3,0,4.5,0.2,6.7,0.6c21.6,4,35.5,26.6,31,50.3c-1.9,10.2-7.1,19.4-14.8,26.2
		c-7,6.3-16.2,9.9-25.6,10c-2.3,0-4.5-0.2-6.8-0.6c-21.5-4-35.5-26.6-31-50.3c1.9-10.2,7.1-19.4,14.8-26.3
		C312.7,55.6,321.8,52,331.2,51.9 M331.2,41.3c-24.1,0-45.9,18.6-50.9,44.9c-5.5,29.5,12.2,57.6,39.5,62.7c2.9,0.5,5.8,0.8,8.7,0.8
		c24.1,0,45.9-18.6,50.9-44.9c5.5-29.5-12.1-57.6-39.5-62.7C337.1,41.6,334.2,41.3,331.2,41.3L331.2,41.3z"/>
	<path class="st26" d="M515.7,183.3c-2.6,0-5.2-0.2-7.7-0.7c-24.4-4.6-40.3-29.9-35.3-56.5c4.4-23.5,23.6-40.6,45.6-40.6
		c2.6,0,5.2,0.2,7.7,0.7c24.4,4.6,40.3,29.9,35.3,56.5C556.9,166.2,537.7,183.3,515.7,183.3z"/>
	<path class="st27" d="M518.3,90.8c2.3,0,4.5,0.2,6.8,0.6c21.6,4,35.5,26.6,31,50.3c-1.8,10.2-7,19.4-14.7,26.3
		c-7,6.3-16.2,9.9-25.6,10c-2.3,0-4.5-0.2-6.8-0.6c-21.6-4.1-35.5-26.6-31-50.3c1.9-10.2,7.1-19.4,14.8-26.2
		C499.8,94.5,508.9,90.9,518.3,90.8 M518.4,80.2c-24.1,0-45.9,18.6-50.9,44.9c-5.5,29.5,12.1,57.6,39.5,62.7
		c2.9,0.5,5.8,0.8,8.7,0.8c24.1,0,45.9-18.6,50.9-44.9c5.5-29.5-12.2-57.6-39.6-62.7C524.1,80.5,521.2,80.2,518.4,80.2L518.4,80.2z"
		/>
	
		<ellipse transform="matrix(0.1807 -0.9835 0.9835 0.1807 44.7293 531.9602)" class="st28" cx="341.7" cy="239.1" rx="17.8" ry="8.2"/>
	<path class="st29" d="M413.7,260.4c27.7,6,145.6,69.7,145.6,69.7s-6,158.1-11.3,167.6c-2.7,11.4-4.9,25-31.6,50.3
		c-6,7.6-48.6,8.2-221.3-2.9"/>
	<path class="st29" d="M315.3,248.8c0,0-153-10.2-159.6-7.7c0,0-15,146.3-14.1,154.2"/>
	
		<ellipse transform="matrix(6.982913e-02 -0.9976 0.9976 6.982913e-02 373.9008 652.7166)" class="st30" cx="537" cy="125.9" rx="22.4" ry="18.8"/>
	
		<ellipse transform="matrix(0.6203 -0.7843 0.7843 0.6203 59.9879 307.4005)" class="st30" cx="347.5" cy="91.7" rx="22.4" ry="18.8"/>
	<path class="st7" d="M383.5,281.3l-122.7,52.8c-20.6,9.6-36.7,12.8-47.3-6.4l0,0c-8.2-19.8,0.9-26.6,18.5-38.5l117.2-81.9
		c19.3-10.5,43.4-3.6,54.1,15.6l0,0C414,242.2,402.7,270.7,383.5,281.3z"/>
	<path class="st8" d="M374.2,285.5l-126.9,57c-20.6,9.6-46.4-33.1-28.8-44.9l117.2-81.9c19.3-10.5,43.4-3.6,54.1,15.6l0,0
		C400.5,250.6,393.5,274.8,374.2,285.5z"/>
	<path class="st9" d="M399.5,245.3c0,0,2.5,6.2-3,17.5c16.7,4.1,58.2,8.3,62.5,3.3c2.9-3.4,4.6-11.3,6-18.8
		c1.2-6.7-3.8-12.9-10.6-12.1c-20.3,2.2-51.5,6.6-51.5,6.6L399.5,245.3z"/>
	<path class="st10" d="M396.5,263.1c16.7,4.1,56.4,12.9,60.7,7.8c2.9-3.4,5.4-11.2,7.1-18.2c1.3-5.3-1.9-10.6-7.1-11.9c0,0,0,0,0,0
		l0,0c-1.1-0.3-2.3-0.4-3.4-0.2c-20.3,2.2-53.3,3.3-54.6,4.5C401,251.2,400.1,257.9,396.5,263.1z"/>
	<path class="st9" d="M389.7,220.4c0,0,5.8,3.4,8.3,15.8c15.8-6.8,51.4-28.6,51.8-35.2c0.3-4.5-3.1-11.8-6.6-18.6
		c-3.1-6.1-10.8-8-15.8-3.2c-14.8,14.1-37,36.4-37,36.4L389.7,220.4z"/>
	<path class="st10" d="M398,236.4c15.8-6.8,52.7-23.9,53.1-30.5c0.3-4.5-2.5-12.2-5.4-18.8c-2.1-5-7.9-7.3-12.9-5.1l0,0
		c-1.1,0.5-2,1.1-2.8,2c-14.8,14.1-40.5,34.8-40.8,36.6C394.5,224.2,397.7,230.1,398,236.4z"/>
	<path class="st9" d="M362.6,208.6c0,0,6.6-1.2,16.6,6.3c7.3-15.6,20.5-41.3,16.4-46.5c-2.8-3.5-3-4.1-10.1-6.9
		c-6.4-2.5-12.5,1.3-14,8c-2.6,12.1-6.5,23.8-11.6,35L362.6,208.6z"/>
	<path class="st10" d="M379.5,215.2c7.3-15.6,24.6-38.6,20.5-43.8c-2.8-3.5-2.8-4.8-9.4-7.9c-6.2-2.9-12.4,1.4-14,8
		c-4.6,19.8-15.3,36.1-14.4,37.5C368.6,208.3,375,210.6,379.5,215.2z"/>
	<path class="st9" d="M387.7,279l5.8-11.5c0,0,4-1.6,4.9-1.9c5.1-1.5,40.6,20.5,36,27.6s-12.8,15.1-15.7,14.6
		c-0.4-0.1-4.3,0.3-4.3,0.3S385.5,279.5,387.7,279z"/>
	<path class="st10" d="M382.9,280.9c2.5-1.6,4.7-3.7,6.6-6c1.6-2.3,3-4.8,4.1-7.3c2.4-4.7,40.6,20.5,36,27.6s-13.1,13.6-16.1,13.1
		S380.3,281.5,382.9,280.9z"/>
	
		<ellipse transform="matrix(0.4487 -0.8937 0.8937 0.4487 -29.6437 455.8069)" class="st11" cx="354.6" cy="251.9" rx="14.1" ry="15.6"/>
	<path class="st31" d="M350.2,373.2l151,6.7c6.2,0.2,11.1,5.5,10.8,11.7v0.7l-9,89.3c-0.6,5.9-5.7,10.4-11.7,10.1L340,484.9
		c-6.2-0.3-11-5.5-10.8-11.7c0,0,0,0,0,0l0,0c0-0.2,0-0.4,0-0.7l9.2-89.3C339.1,377.3,344.2,372.9,350.2,373.2z"/>
	<path class="st32" d="M347.5,377.4l151.4,6.4c4.8,0.2,8.6,4.3,8.4,9.1c0,0,0,0,0,0l0,0v0.5l-9,89.8c-0.5,4.6-4.4,8.1-9.1,7.9
		l-151.4-6.1c-4.8-0.2-8.6-4.3-8.4-9.1c0,0,0,0,0,0l0,0c0-0.2,0-0.3,0-0.5l9-90C338.9,380.6,342.8,377.2,347.5,377.4z"/>
	<path class="st33" d="M441.8,426.9l-93.1-4.8c-3.1-0.2-5.5-2.9-5.3-6c0,0,0,0,0,0l0,0l2.9-26.4c0.2-3.1,2.9-5.5,5.9-5.3
		c0,0,0,0,0,0l0,0l93.1,4.8c3.1,0.2,5.5,2.9,5.3,6c0,0,0,0,0,0l0,0l-2.9,26.4C447.6,424.7,444.9,427.1,441.8,426.9z"/>
	
		<ellipse transform="matrix(7.619701e-02 -0.9971 0.9971 7.619701e-02 -65.0537 738.4723)" class="st34" cx="366" cy="404.3" rx="13.6" ry="10.9"/>
	
		<ellipse transform="matrix(7.619701e-02 -0.9971 0.9971 7.619701e-02 -36.1074 772.5425)" class="st35" cx="398.9" cy="405.8" rx="13.6" ry="10.9"/>
	
		<ellipse transform="matrix(7.619701e-02 -0.9971 0.9971 7.619701e-02 -8.7684 806.7123)" class="st36" cx="431" cy="408.1" rx="13.6" ry="10.9"/>
	<path class="st37" d="M421.5,448.6l-73.3-3.4c-3.2-0.2-5.7-3-5.5-6.2l0,0c0.2-3.2,3-5.7,6.2-5.5c0,0,0,0,0,0l0,0l73.3,3.4
		c3.2,0.2,5.7,3,5.5,6.2l0,0C427.6,446.4,424.8,448.8,421.5,448.6z"/>
	<path class="st38" d="M377.2,481.9l-32.5-1.7c-3.2-0.2-5.7-3-5.5-6.2l0,0c0.2-3.2,3-5.7,6.2-5.5l32.6,1.7c3.2,0.2,5.7,3,5.5,6.2
		l0,0C383.2,479.7,380.5,482.1,377.2,481.9z"/>
	<path class="st38" d="M378.9,465.6l-32.5-1.7c-3.2-0.2-5.7-3-5.5-6.2l0,0c0.2-3.2,3-5.7,6.2-5.5l32.5,1.7c3.2,0.2,5.7,3,5.5,6.2
		l0,0C384.9,463.3,382.1,465.8,378.9,465.6z"/>
	<polygon class="st39" points="461.3,390.9 505.9,392.5 496.7,483.7 451.7,481.5 	"/>
	
		<radialGradient id="SVGID_1_" cx="3945.1882" cy="-4938.02" r="76.14" gradientTransform="matrix(9.949511e-02 1.003618e-02 1.003618e-02 -9.949511e-02 154.7864 -129.0798)" gradientUnits="userSpaceOnUse">
		<stop  offset="0.2" style="stop-color:#666666"/>
		<stop  offset="0.57" style="stop-color:#585858"/>
		<stop  offset="1" style="stop-color:#4D4D4D"/>
	</radialGradient>
	<path class="st40" d="M492.6,401.9c0.3-3.1,2.7-5.4,5.4-5.1s4.6,3,4.3,6.1c-0.3,3.1-2.7,5.4-5.4,5.1S492.3,405,492.6,401.9z"/>
	<path class="st41" d="M498,396.8c0,0,1.5,7.1-1.4,11.2"/>
	<path class="st41" d="M492.6,401.9c0,0,6.1,2.1,9.7,1"/>
	
		<radialGradient id="SVGID_2_" cx="3636.9983" cy="-5691.23" r="76.14" gradientTransform="matrix(9.949511e-02 1.003618e-02 1.003618e-02 -9.949511e-02 154.7885 -129.0784)" gradientUnits="userSpaceOnUse">
		<stop  offset="0.2" style="stop-color:#666666"/>
		<stop  offset="0.57" style="stop-color:#585858"/>
		<stop  offset="1" style="stop-color:#4D4D4D"/>
	</radialGradient>
	<path class="st42" d="M454.3,473.8c0.3-3.1,2.7-5.4,5.4-5.1c2.7,0.3,4.6,3,4.3,6.1c-0.3,3.1-2.7,5.4-5.4,5.1S454,476.9,454.3,473.8
		z"/>
	<path class="st41" d="M459.8,468.6c0,0,1.4,7.1-1.5,11.2"/>
	<path class="st41" d="M454.3,473.8c0,0,6.1,2.1,9.7,1"/>
	
		<radialGradient id="SVGID_3_" cx="3953.8984" cy="-5672.4902" r="76.14" gradientTransform="matrix(9.949511e-02 1.003618e-02 1.003618e-02 -9.949511e-02 154.7896 -129.0856)" gradientUnits="userSpaceOnUse">
		<stop  offset="0.2" style="stop-color:#666666"/>
		<stop  offset="0.57" style="stop-color:#585858"/>
		<stop  offset="1" style="stop-color:#4D4D4D"/>
	</radialGradient>
	<path class="st43" d="M486.1,475.1c0.3-3.1,2.7-5.4,5.4-5.1s4.6,3,4.3,6.1c-0.3,3.1-2.7,5.4-5.4,5.1
		C487.7,480.9,485.7,478.2,486.1,475.1z"/>
	<path class="st41" d="M491.5,469.9c0,0,1.4,7.1-1.4,11.2"/>
	<path class="st41" d="M486.1,475.1c0,0,6.1,2.1,9.7,1"/>
	
		<radialGradient id="SVGID_4_" cx="3669.2583" cy="-4950.9502" r="76.14" gradientTransform="matrix(9.949511e-02 1.003618e-02 1.003618e-02 -9.949511e-02 154.7741 -129.0821)" gradientUnits="userSpaceOnUse">
		<stop  offset="0.2" style="stop-color:#666666"/>
		<stop  offset="0.57" style="stop-color:#585858"/>
		<stop  offset="1" style="stop-color:#4D4D4D"/>
	</radialGradient>
	<path class="st44" d="M465,400.4c0.3-3.1,2.7-5.4,5.4-5.1c2.7,0.3,4.6,3,4.3,6.1c-0.3,3.1-2.7,5.4-5.4,5.1
		C466.6,406.3,464.7,403.5,465,400.4z"/>
	<path class="st41" d="M470.4,395.3c0,0,1.4,7.1-1.4,11.2"/>
	<path class="st41" d="M465,400.4c0,0,6.1,2.1,9.7,1"/>
	<path class="st45" d="M342.8,439c0,0,13-2.7,24.4,2.5s13-5.3,18.5-4.7s5.9,8.9,13.4,8.8s5.4-3.2,8.9-2.8s3.1,4.1,6.5,4
		s5.8-10.3,7.7-9.8"/>
	<path class="st1" d="M317,658.1c0.7-4.6,0.9-9.2,0.8-13.8c-0.5-19.4-2.5-78-8.7-114.7c-3.7-21.6-5.5-36.2-7.4-47.2
		c-2.2-12.8-7.4-24.9-15-35.4c-5.1-7-11-15-21.1-22.5c-13.2-9.8-29.3-14.1-45.6-16.2c-40.8-5.3-62-10.2-70.4-9.9
		c-9,3.1-50.7,28.5-60.8,56.8c-7.2,20.4-13.3,49.2-4.7,75.6s38.5,149.6,63.7,158.8c29.4,10.8,107.9,27.5,134.9,17.3
		C306.9,697.6,313.9,679.5,317,658.1z"/>
	<path class="st2" d="M175.8,691.8c-19.1,0-38.7-12.3-56.1-23.2c-1.6-1-3.3-2-4.9-3c-9.8-6-32.6-32.3-58.2-66.8
		c-25-33.7-44.3-64.2-48.1-75.8c-8.4-25.6-2.1-53.7,4.7-72.7c3.8-10.6,12.2-20,25.1-27.9c8.5-5,17.5-9,26.8-12.1l1.2-0.4l2.3-0.8
		c8.2-3,27.6-10,52.6-10c2.4,0,4.8,0.1,7.2,0.2c15.6,0.7,30.6,6.1,43.2,15.3c9.9,7.3,15.6,15.2,20.2,21.5
		c7.2,10,12.1,21.4,14.2,33.6c0.9,4.9,1.7,10.6,2.7,17.3c1.2,8,2.7,18,4.7,30c6.2,36.7,8.2,96.6,8.6,114.1c0.1,4.4-0.1,8.8-0.7,13.1
		c-3,21.1-9.5,36.8-31.5,45.2C185.3,691.1,180.6,691.9,175.8,691.8z"/>
	<path d="M121.1,403.8c2.3,0,4.7,0.1,7,0.2c14.7,0.7,28.9,5.7,40.8,14.4c9.3,6.9,14.8,14.5,19.2,20.5c6.8,9.4,11.4,20.2,13.4,31.7
		c0.9,4.9,1.7,10.5,2.7,17.1c1.2,8,2.7,18.1,4.7,30c6.2,36.4,8.1,96,8.6,113.4c0.1,4.1-0.1,8.3-0.7,12.3c-1.6,11.3-4.1,19.2-8,25.5
		c-4.5,7.3-11.3,12.5-20.6,16.1c-3.9,1.5-8.1,2.2-12.3,2.2c-17.8,0-36.8-12-53.7-22.5l-4.9-3c-9.2-5.7-32.1-32.1-57-65.6
		c-24.4-32.8-43.9-63.5-47.5-74.5c-4.4-13.5-7.2-36.5,4.6-69.8c3.4-9.6,11.2-18.2,23.2-25.5c10.3-6.3,20.8-9.9,25.9-11.7l1.2-0.4
		l2.3-0.8C78,410.6,96.8,403.8,121.1,403.8 M121.1,394.7c-28.4,0-49.3,8.6-56.4,11c-9,3.1-45.8,14.8-55.8,43.1
		c-7.2,20.4-13.3,49.3-4.7,75.6c8.6,26.3,85.5,130.9,108.3,145.1c18.5,11.5,41.1,26.9,63.3,26.9c5.3,0,10.6-0.9,15.5-2.8
		c24.2-9.2,31.3-27.3,34.4-48.8c0.6-4.6,0.9-9.2,0.8-13.9c-0.5-19.4-2.5-78-8.7-114.7c-3.6-21.6-5.4-36.2-7.4-47.2
		c-2.2-12.8-7.4-24.9-15-35.4c-5.1-7-11-15-21.1-22.5c-13.3-9.8-29.2-15.4-45.6-16.2C126.1,394.7,123.6,394.7,121.1,394.7
		L121.1,394.7z"/>
	
		<ellipse transform="matrix(0.2689 -0.9632 0.9632 0.2689 -412.6615 427.981)" class="st3" cx="75.6" cy="485.8" rx="60.2" ry="48.1"/>
	
		<ellipse transform="matrix(0.2689 -0.9632 0.9632 0.2689 -481.6848 535.072)" class="st3" cx="111.6" cy="584.8" rx="43.1" ry="34.5"/>
	
		<ellipse transform="matrix(0.2689 -0.9632 0.9632 0.2689 -489.2812 627.4119)" class="st3" cx="168.7" cy="636" rx="33.9" ry="27.1"/>
	
		<ellipse transform="matrix(0.2689 -0.9632 0.9632 0.2689 -414.0278 424.5163)" class="st4" cx="72.6" cy="485" rx="22.5" ry="16.4"/>
	
		<ellipse transform="matrix(0.4933 -0.8698 0.8698 0.4933 -454.2406 392.3519)" class="st4" cx="109.7" cy="586.1" rx="19.4" ry="14.1"/>
	
		<ellipse transform="matrix(0.4933 -0.8698 0.8698 0.4933 -470.0329 469.5342)" class="st4" cx="168" cy="638.2" rx="14.4" ry="10.5"/>
	<path class="st5" d="M199.1,597.2c0,0-3-17-27.7-16.3c-1.2-10.8-2.1-39.2-43-48c4.6-8.3,31.6-42.1,13-88.7
		c13.3-1.8,21.5-3.1,31,19.6S202.1,593.1,199.1,597.2z"/>
	<line class="st6" x1="301.6" y1="481.7" x2="209.3" y2="464"/>
	<line class="st6" x1="263" y1="422.6" x2="160.3" y2="402.8"/>
	<polyline class="st6" points="145.7,400 118.4,394.8 118.4,394.8 	"/>
	<line class="st6" x1="311.2" y1="544.4" x2="219.4" y2="526.7"/>
	<line class="st6" x1="316.2" y1="605.3" x2="224.7" y2="587.7"/>
	<line class="st6" x1="315.5" y1="666.6" x2="225" y2="649.2"/>
</g>
<g>
	
		<linearGradient id="SVGID_5_" gradientUnits="userSpaceOnUse" x1="857.9645" y1="266.6659" x2="963.5155" y2="-118.0473" gradientTransform="matrix(0.9387 -0.3448 0.3448 0.9387 0.2749 315.7057)">
		<stop  offset="0" style="stop-color:#C8C1B9"/>
		<stop  offset="0.2025" style="stop-color:#FFF2DF"/>
		<stop  offset="0.4294" style="stop-color:#D5CDC2"/>
		<stop  offset="0.6503" style="stop-color:#FDF6EF"/>
		<stop  offset="0.8098" style="stop-color:#F6EAD9"/>
		<stop  offset="1" style="stop-color:#FDF6EF"/>
	</linearGradient>
	<path class="st46" d="M906.8,12.7C903.5,3.6,893.1-1,883.7,2.5L803.3,32c-9.4,3.5-14.3,13.7-11,22.8l72.8,198.3
		c3.4,9.1,13.7,13.7,23.1,10.3l80.4-29.5c9.4-3.5,14.3-13.7,11-22.8L906.8,12.7z"/>
	<path class="st47" d="M978.3,211.2c3.1,8.4-1.4,17.8-10,20.9l-80.6,29.6c-8.6,3.2-18.1-1.1-21.2-9.5L793.7,54.1
		c-3.1-8.4,1.4-17.8,10-20.9l80.6-29.6c8.6-3.2,18.1,1.1,21.2,9.5L978.3,211.2z"/>
	<rect x="838" y="43.8" transform="matrix(0.9386 -0.3449 0.3449 0.9386 8.2318 313.9372)" class="st2" width="96.9" height="180"/>
	<g>
		<path class="st48" d="M834.1,39.7c0.2,0.6-0.1,1.2-0.7,1.4c-0.6,0.2-1.2-0.1-1.4-0.6c-0.2-0.6,0.1-1.2,0.7-1.4
			C833.2,38.9,833.9,39.2,834.1,39.7z"/>
	</g>
	<g>
		<path class="st49" d="M859.5,29.2l-16.6,6.1c-0.6,0.2-0.9,0.9-0.7,1.4c0.2,0.6,0.9,0.9,1.5,0.7l16.6-6.1c0.6-0.2,0.9-0.9,0.7-1.5
			C860.8,29.3,860.1,29,859.5,29.2z M860.2,31l-16.6,6.1c-0.4,0.2-0.9-0.1-1.1-0.5c-0.2-0.4,0.1-0.9,0.5-1.1l16.6-6.1
			c0.5-0.2,0.9,0.1,1.1,0.5C860.9,30.4,860.6,30.9,860.2,31z"/>
	</g>
	
		<linearGradient id="SVGID_6_" gradientUnits="userSpaceOnUse" x1="965.1379" y1="48.2848" x2="790.8359" y2="226.574" gradientTransform="matrix(0.9387 -0.3449 0.3449 0.9387 9.1449 307.9936)">
		<stop  offset="0" style="stop-color:#FFFFFF"/>
		<stop  offset="0.8884" style="stop-color:#FFFFFF;stop-opacity:0"/>
	</linearGradient>
	<path class="st50" d="M961.3,165.5L836.7,21.1l47.4-17.4c8.5-3.1,18.6,2.2,21.7,10.5L961.3,165.5z"/>
	<g>
		<path class="st51" d="M932.5,229.9c1.7,4.7-0.8,10-5.6,11.8c-4.8,1.8-10.2-0.6-11.9-5.4c-1.7-4.7,0.8-10,5.6-11.8
			C925.4,222.8,930.8,225.2,932.5,229.9z"/>
	</g>
	<path class="st52" d="M922.5,139.2l-27.1-5.7c-0.5-0.1-0.8-0.6-0.7-1.1c0-0.1,0.1-0.2,0.2-0.3l5.3-6.8c0.2-0.2,0.2-0.5,0.2-0.8
		l-0.2-1c-0.1-0.4,0.2-0.9,0.6-1.1l2.4-1l-3.1-0.2l3.8-1.2c0.2-0.1,0.4-0.2,0.5-0.4l7.5-9.4c0.2-0.3,0.3-0.6,0.2-0.9l-2.5-6.7
		c-0.1-0.3-0.4-0.5-0.7-0.5L869,93.7c-0.2,0-0.4,0-0.6,0.1l-5.6,2.1c-0.5,0.2-0.8,0.7-0.7,1.2c0,0,0,0,0,0l6.6,18.1
		c0.1,0.2,0.3,0.4,0.5,0.5l2.1,0.8l-0.8,0.1c-0.6,0.1-0.9,0.6-0.9,1.1c0,0.1,0,0.1,0,0.2l3.4,9.5c0.2,0.5-0.1,1-0.6,1.2
		c-0.2,0.1-0.4,0.1-0.6,0l-17.3-3.6c-0.4-0.1-0.8,0.1-1.1,0.4l-6.2,8c-0.3,0.4-0.3,1,0.2,1.3c0.1,0.1,0.2,0.1,0.3,0.1l25.6,5.3
		c0.5,0.1,0.8,0.6,0.7,1.1c0,0.1-0.1,0.2-0.2,0.3l-15.3,19.8c-0.3,0.4-0.2,1,0.2,1.3c0.1,0.1,0.2,0.1,0.3,0.1l9.8,2
		c0.4,0.1,0.8-0.1,1.1-0.4l2.4-3.1c0.1-0.1,0.2-0.3,0.2-0.5l0.4-4.3l1.1,0.9c0.4,0.3,1,0.3,1.4-0.1c0,0,0-0.1,0.1-0.1l4.5-5.8
		c0.3-0.4,0.9-0.6,1.4-0.3c0.2,0.1,0.3,0.3,0.4,0.4l5.1,14c0.1,0.3,0.4,0.5,0.7,0.6l0.7,0.1c0.5,0.1,0.8,0.6,0.7,1.1
		c0,0,0,0.1,0,0.1l-0.3,0.6c-0.2,0.5,0,1,0.6,1.2c0,0,0.1,0,0.1,0l0.1,0c0.5,0.1,0.9,0.5,0.8,1c-0.1,0.3-0.2,0.5-0.5,0.6l0,0
		c-0.4,0.2-0.6,0.7-0.5,1.1l3.6,9.7c0.2,0.5,0.7,0.7,1.3,0.5c0,0,0,0,0,0l5.6-2.1c0.2-0.1,0.4-0.2,0.5-0.4l25.2-32.5
		c0.2-0.3,0.3-0.6,0.2-0.9l-2.5-6.5C923.1,139.4,922.8,139.2,922.5,139.2z M887,122.3l-4.8-13.1c-0.2-0.5,0.1-1,0.7-1.2
		c0.2-0.1,0.4-0.1,0.6,0l12.9,2.7c0.5,0.1,0.8,0.6,0.7,1.1c0,0.1-0.1,0.2-0.2,0.3l-8.1,10.4c-0.3,0.4-1,0.5-1.4,0.3
		C887.1,122.6,887,122.5,887,122.3z M900.5,159.4l-4.8-13.1c-0.2-0.5,0.1-1,0.7-1.2c0.2-0.1,0.4-0.1,0.6,0l12.9,2.7
		c0.5,0.1,0.8,0.6,0.7,1.1c0,0.1-0.1,0.2-0.2,0.3l-8.1,10.4c-0.3,0.4-1,0.6-1.4,0.3C900.7,159.7,900.5,159.5,900.5,159.4
		L900.5,159.4z"/>
</g>
</svg>
