<svg id="Layer_1" data-name="Layer 1" xmlns="http://www.w3.org/2000/svg" xmlns:xlink="http://www.w3.org/1999/xlink" viewBox="0 0 980.7 710.51"><defs><style>.cls-1{fill:#38558e;}.cls-2{fill:#1dacdd;}.cls-3{fill:#fff;}.cls-4{fill:#fcfafa;}.cls-5{fill:#3db7d8;}.cls-6{fill:#2e85bf;}.cls-7{fill:#353535;stroke-width:0.96px;}.cls-21,.cls-23,.cls-31,.cls-7{stroke:#000;}.cls-21,.cls-23,.cls-7{stroke-linejoin:round;}.cls-16,.cls-17,.cls-8{fill:#4d4d4d;}.cls-9{fill:#b3b3b3;}.cls-10{fill:#d3161d;}.cls-11{fill:#adadad;stroke:#080000;stroke-width:1.31px;}.cls-11,.cls-12,.cls-13,.cls-14,.cls-15,.cls-16,.cls-17,.cls-22,.cls-24,.cls-26,.cls-27,.cls-31,.cls-35,.cls-46,.cls-47,.cls-48,.cls-49,.cls-50,.cls-51{stroke-miterlimit:10;}.cls-12,.cls-27,.cls-31,.cls-35,.cls-47,.cls-51{fill:none;}.cls-12,.cls-13,.cls-24,.cls-26,.cls-35,.cls-51{stroke:#070707;}.cls-12{stroke-width:2.01px;}.cls-13{fill:#77401b;}.cls-13,.cls-14,.cls-21,.cls-35{stroke-width:1.25px;}.cls-14,.cls-18{fill:#f8c946;}.cls-14{stroke:#020202;}.cls-15,.cls-32{fill:#282828;}.cls-15,.cls-16,.cls-17{stroke:#151616;}.cls-15,.cls-16{stroke-width:1.03px;}.cls-17{stroke-width:3.75px;}.cls-19{fill:#683919;}.cls-20,.cls-26{fill:#945320;}.cls-21{fill:#515051;}.cls-22,.cls-25{fill:#161616;}.cls-22,.cls-27,.cls-46,.cls-47,.cls-48,.cls-49,.cls-50{stroke:#0a0a0a;}.cls-22,.cls-23,.cls-24,.cls-26,.cls-27,.cls-31{stroke-width:1.08px;}.cls-23{fill:#8e8a8b;}.cls-24{fill:#e2b647;}.cls-28{fill:#dddbd7;}.cls-29{fill:#232323;}.cls-30{fill:#3a3a3a;}.cls-33{fill:#7c7c7c;}.cls-34{fill:#666;}.cls-36{fill:#389cce;}.cls-37{fill:#7f1119;}.cls-38{fill:#5e0e18;}.cls-39{fill:#352f49;}.cls-40{fill:#e41e00;}.cls-41{fill:#fffe28;}.cls-42{fill:#18ff08;}.cls-43{fill:#dbdddd;}.cls-44{fill:#0fb0db;}.cls-45{fill:#303435;}.cls-46,.cls-47,.cls-48,.cls-49,.cls-50{stroke-width:0.49px;}.cls-46{fill:url(#radial-gradient);}.cls-48{fill:url(#radial-gradient-2);}.cls-49{fill:url(#radial-gradient-3);}.cls-50{fill:url(#radial-gradient-4);}.cls-51{stroke-width:0.63px;}.cls-52{fill:#efeded;}</style><radialGradient id="radial-gradient" cx="1231.84" cy="2383.85" r="76.14" gradientTransform="translate(736.42 279.5) rotate(90) scale(0.1)" gradientUnits="userSpaceOnUse"><stop offset="0.2" stop-color="#666"/><stop offset="0.57" stop-color="#585858"/><stop offset="1" stop-color="#4d4d4d"/></radialGradient><radialGradient id="radial-gradient-2" cx="923.65" cy="3137.06" r="76.14" gradientTransform="translate(773.49 382.17) rotate(90) scale(0.1)" xlink:href="#radial-gradient"/><radialGradient id="radial-gradient-3" cx="1240.55" cy="3118.32" r="76.14" gradientTransform="matrix(0, 0.1, -0.1, 0, 803.36, 351.8)" xlink:href="#radial-gradient"/><radialGradient id="radial-gradient-4" cx="955.91" cy="2396.78" r="76.14" gradientTransform="translate(710.11 305.61) rotate(90) scale(0.1)" xlink:href="#radial-gradient"/></defs><title>bt_background</title><g id="Layer_23" data-name="Layer 23"><path class="cls-1" d="M870.57,246.31a13.12,13.12,0,0,1-12.68-10.08l-44.36-193a13,13,0,0,1,9.75-15.57L917,6.08a13.43,13.43,0,0,1,2.9-.33,13.08,13.08,0,0,1,12.67,10.09l44.36,193a13,13,0,0,1-9.75,15.57L873.46,246A12.79,12.79,0,0,1,870.57,246.31Z"/><path d="M919.85,5.61V5.9a13,13,0,0,1,12.53,10l44.36,193a12.87,12.87,0,0,1-9.64,15.4l-93.67,21.52a12.55,12.55,0,0,1-2.86.33,13,13,0,0,1-12.54-10l-44.36-193a12.89,12.89,0,0,1,9.65-15.39L917,6.22a13.15,13.15,0,0,1,2.87-.32V5.61m0,0A12.53,12.53,0,0,0,917,6l-93.7,21.52a13.18,13.18,0,0,0-9.86,15.74l44.37,193a13.14,13.14,0,0,0,15.73,9.86l93.67-21.52A13.18,13.18,0,0,0,977,208.86L932.66,15.8A13.19,13.19,0,0,0,919.84,5.61Z"/><rect class="cls-2" x="845.22" y="41.74" width="98.3" height="162.6" transform="translate(-4.84 203.4) rotate(-12.94)"/><path d="M923.64,33.47,959.8,190.83l-94.7,21.76L828.94,55.23l94.7-21.76m.85-1.36-96.9,22.27L864.25,214l96.91-22.27Z"/><path class="cls-3" d="M862.88,30.29,881.65,26a2.68,2.68,0,0,1,3.22,2h0a2.68,2.68,0,0,1-2,3.22l-18.77,4.32a2.7,2.7,0,0,1-3.22-2h0A2.69,2.69,0,0,1,862.88,30.29Z"/><path class="cls-1" d="M906.61,228.08a4.44,4.44,0,0,1-4.29-3.41l-1.2-5.24a4.4,4.4,0,0,1,3.29-5.27l21-4.82a4.79,4.79,0,0,1,1-.11,4.44,4.44,0,0,1,4.29,3.41l1.2,5.24a4.4,4.4,0,0,1-3.29,5.27l-21,4.82A4.79,4.79,0,0,1,906.61,228.08Z"/><path class="cls-4" d="M926.37,209.94h0a3.72,3.72,0,0,1,3.6,2.86l1.2,5.24a3.7,3.7,0,0,1-2.76,4.42l-21,4.82a3.71,3.71,0,0,1-4.42-2.77l-1.2-5.24a3.69,3.69,0,0,1,2.76-4.42l21-4.82a3.75,3.75,0,0,1,.82-.09m0-1.42a5.36,5.36,0,0,0-1.13.13l-21,4.82a5.12,5.12,0,0,0-3.82,6.12l1.2,5.24a5.12,5.12,0,0,0,5,4,4.78,4.78,0,0,0,1.13-.13l21-4.82a5.11,5.11,0,0,0,3.82-6.11l-1.2-5.25A5.12,5.12,0,0,0,926.37,208.52Z"/><polygon class="cls-5" points="959.46 190.62 829.28 55.44 923.42 33.81 959.46 190.62"/><path class="cls-6" d="M718.81,156.43a117.8,117.8,0,0,0,50.3,69.47l8.63-14.33c-44.7-29.37-59.1-88.46-31.88-133.72l-14.63-8.8A113,113,0,0,0,718.81,156.43Z"/><path class="cls-6" d="M751.27,148.73a84,84,0,0,0,34.87,48.87l8.5-13.78c-31.09-21.16-40.37-57.58-21.17-89.5l-13.34-7.89A80.53,80.53,0,0,0,751.27,148.73Z"/><path class="cls-6" d="M781.33,142.92a58,58,0,0,0,22.88,33L811.33,164c-20.53-14.86-24.43-35.39-11.42-57l-12.46-7.14A55.62,55.62,0,0,0,781.33,142.92Z"/><path class="cls-7" d="M628.85,655.26a82.27,82.27,0,0,0,.77-13.85c-.51-19.38-2.5-78-8.7-114.72-3.66-21.59-5.46-36.17-7.4-47.24a85.71,85.71,0,0,0-15-35.44c-5.1-7-11-14.95-21.14-22.47-13.25-9.82-29.31-14.07-45.64-16.18-40.73-5.26-62-10.18-70.36-9.85-9,3.12-50.73,28.5-60.75,56.8-7.23,20.42-13.29,49.25-4.71,75.6s38.48,149.62,63.69,158.83C489,697.5,567.49,714.27,594.47,704,618.72,694.82,625.78,676.69,628.85,655.26Z"/><path class="cls-8" d="M487.65,689c-19,0-38.76-12.31-56.08-23.17l-4.85-3c-9.76-6-32.62-32.27-58.23-66.8-25-33.71-44.35-64.18-48.14-75.83-8.34-25.63-2.07-53.67,4.67-72.69,3.75-10.59,12.19-19.95,25.08-27.84a135,135,0,0,1,26.8-12.08l1.15-.39,2.26-.82c8.25-3,27.57-10,52.61-10,2.41,0,4.85.06,7.24.19a79.33,79.33,0,0,1,43.2,15.3c9.89,7.33,15.59,15.18,20.17,21.5A81.27,81.27,0,0,1,517.78,467c.86,4.92,1.71,10.63,2.69,17.27,1.2,8,2.68,18,4.7,30,6.21,36.7,8.18,96.6,8.64,114.08a79.7,79.7,0,0,1-.72,13.1c-3,21.08-9.53,36.84-31.49,45.17A39,39,0,0,1,487.65,689Z"/><path d="M432.92,401c2.33,0,4.68.07,7,.19a74.91,74.91,0,0,1,40.76,14.42c9.32,6.91,14.8,14.45,19.2,20.52a76.87,76.87,0,0,1,13.45,31.68c.85,4.86,1.7,10.55,2.68,17.14C517.2,493,518.69,503,520.72,515c6.16,36.4,8.12,96,8.57,113.45a74.92,74.92,0,0,1-.67,12.34c-1.63,11.32-4.09,19.19-8,25.48-4.5,7.27-11.25,12.54-20.62,16.1a34,34,0,0,1-12.34,2.2c-17.75,0-36.84-11.94-53.68-22.5l-4.88-3c-9.16-5.67-32.05-32.06-57-65.64C347.75,560.6,328.23,530,324.63,518.9c-4.37-13.48-7.15-36.52,4.63-69.78,3.4-9.59,11.2-18.17,23.18-25.5,10.29-6.29,20.84-9.91,25.91-11.66l1.16-.4,2.31-.82c8-2.91,26.82-9.7,51.08-9.7m0-9.05c-28.37,0-49.35,8.59-56.36,11-9,3.12-45.78,14.78-55.8,43.07-7.24,20.42-13.29,49.25-4.7,75.6S401.5,652.6,424.32,666.73c18.47,11.44,41,26.88,63.31,26.88a43.47,43.47,0,0,0,15.55-2.8c24.23-9.2,31.29-27.33,34.38-48.75a82.38,82.38,0,0,0,.76-13.86c-.5-19.38-2.5-78-8.7-114.72-3.66-21.6-5.45-36.18-7.39-47.25a85.67,85.67,0,0,0-15-35.43c-5.09-7-11-14.95-21.14-22.5a84.13,84.13,0,0,0-45.63-16.19c-2.54-.13-5-.19-7.5-.2Z"/><ellipse class="cls-9" cx="387.43" cy="483.03" rx="60.22" ry="48.12" transform="translate(-181.99 726.29) rotate(-74.4)"/><ellipse class="cls-9" cx="423.47" cy="582.03" rx="43.14" ry="34.47" transform="translate(-251 833.38) rotate(-74.4)"/><ellipse class="cls-9" cx="480.5" cy="633.2" rx="33.95" ry="27.13" transform="translate(-258.59 925.72) rotate(-74.4)"/><ellipse class="cls-10" cx="384.47" cy="482.2" rx="22.5" ry="16.37" transform="translate(-183.36 722.83) rotate(-74.4)"/><ellipse class="cls-10" cx="421.52" cy="583.28" rx="19.43" ry="14.13" transform="translate(-293.79 662.19) rotate(-60.44)"/><ellipse class="cls-10" cx="479.87" cy="635.46" rx="14.39" ry="10.47" transform="translate(-309.62 739.37) rotate(-60.44)"/><path class="cls-11" d="M511,594.38s-3-17-27.68-16.25c-1.25-10.77-2.11-39.2-43-48,4.59-8.3,31.63-42.09,13-88.62,13.27-1.77,21.54-3.13,31,19.6S514,590.34,511,594.38Z"/><line class="cls-12" x1="613.42" y1="478.93" x2="521.18" y2="461.18"/><line class="cls-12" x1="574.83" y1="419.78" x2="472.15" y2="400.01"/><polyline class="cls-12" points="457.51 397.19 430.27 391.95 430.25 391.94"/><line class="cls-12" x1="623.08" y1="541.6" x2="531.2" y2="523.9"/><line class="cls-12" x1="628.09" y1="602.47" x2="536.55" y2="584.85"/><line class="cls-12" x1="627.34" y1="663.81" x2="536.86" y2="646.39"/><path class="cls-13" d="M634.1,226.37,517.49,291.52C497.31,302,485,312.85,493.74,332.93h0c10.68,18.6,21.71,15.49,41.83,8.75l136.31-43.09a40,40,0,0,0,20.57-52.47h0C683.69,226,654.18,217.59,634.1,226.37Z"/><path class="cls-14" d="M625.14,231.19,502.61,297.14c-20.17,10.49-2,56.89,18.13,50.17l136.31-43.09a40,40,0,0,0,20.56-52.47h0A40,40,0,0,0,625.14,231.19Z"/><path class="cls-15" d="M672.39,235.57s-3.42-5.82-15.71-8.34c6.87-15.78,28.92-51.26,35.51-51.59,4.48-.24,11.76,3.21,18.52,6.71,6.07,3.12,7.9,10.85,3.17,15.78-14.14,14.72-36.61,36.79-36.61,36.79Z"/><path class="cls-16" d="M656.36,227.17c6.88-15.78,24.15-52.56,30.74-52.91,4.48-.24,12.15,2.58,18.75,5.48a9.83,9.83,0,0,1,5,13,9.94,9.94,0,0,1-1.89,2.83c-14.14,14.72-35.06,40.28-36.76,40.55A20.58,20.58,0,0,0,656.36,227.17Z"/><path class="cls-15" d="M686.2,258.56s.8-6.71-7.47-16.15c15-8.4,54-23.31,59.49-19.61,3.71,2.5,7.42,9.67,10.69,16.55,2.93,6.17-.27,13.42-7,14.48C721.72,257,690.48,261,690.48,261Z"/><path class="cls-16" d="M678.52,242.17c15-8.39,51-27.24,56.48-23.54,3.71,2.5,8.12,9.38,11.62,15.72a9.8,9.8,0,0,1-3.75,13.34h0a9.68,9.68,0,0,1-3.25,1.13c-20.17,3.17-52.29,10.88-53.81,10.06A20.53,20.53,0,0,0,678.52,242.17Z"/><path class="cls-15" d="M679,287.2s5-4.49,5.11-17c16.82,3.67,45.23,8.95,46.88,15.34,1.12,4.37,1.4,4.89-.72,12.21-1.87,6.57-8.67,9.1-14.85,6.19a170,170,0,0,0-34.81-12Z"/><path class="cls-16" d="M684.09,269.85c16.83,3.66,45.59,4,47.23,10.4,1.11,4.37,2.1,5.14.53,12.2-1.47,6.67-8.63,9-14.85,6.19-18.55-8.4-37.94-9.83-38.54-11.46A20.49,20.49,0,0,0,684.09,269.85Z"/><path class="cls-15" d="M638.46,224.42l12.65,2.39s3.69-2.19,4.45-2.74c4.27-3.09,8.46-44.68.05-45.4s-19.74.93-21.12,3.55c-.17.33-2.87,3.24-2.87,3.24S636.68,225.9,638.46,224.42Z"/><path class="cls-16" d="M634,227.15a28,28,0,0,1,8.79-1.54,46.64,46.64,0,0,1,8.31,1.2c5.2.92,8.46-44.69,0-45.4s-18.76,2.15-20.14,4.77S632,228.85,634,227.15Z"/><ellipse class="cls-17" cx="639.81" cy="267.17" rx="15.61" ry="14.08" transform="translate(256.88 845.18) rotate(-79.14)"/><path class="cls-18" d="M559.21,330.1S452.94,270,404.19,258c0,0-132.29-16.14-247.13-16.49,12.82,11,125.42,66.85,141.63,71.23S514.84,333.5,559.21,330.1Z"/><path class="cls-19" d="M335.56,302.87s-42.87-29.28-47.31-31.08,86,1.37,86,1.37,41.7,27.66,44.42,30.63S335.56,302.87,335.56,302.87Z"/><path class="cls-20" d="M155.65,241.11s-23.43,188.43-12.56,237.25C156.38,491.28,250.86,542,282,544.13c5-21.44,22.78-215.42,15.26-231.78C286.3,302.49,202.23,257.82,155.65,241.11Z"/><path class="cls-10" d="M559.21,330.1s-3,96.89-11.33,167.61c-3.21,27.24-31.31,52-35.81,52.74C501.45,558.94,272,548.68,259,538.57c0,0,22.46-18.37,24.75-56.08,2.85-47.11,9.86-113.14,13.56-170.14C306.11,308.51,518.52,321.13,559.21,330.1Z"/><path class="cls-21" d="M352.87,202.55l-14.5,70,61.19,13.32c10.25,2.12,21.82-11.82,25.82-31.16s-1.07-36.72-11.32-38.85c-3.45-.71-7.05.4-10.47,2.91Z"/><path class="cls-22" d="M626.68,247s-26.41,11.26-67.62,8c-18.31-1.43-41.26-8.28-63.17-15.84-71.29-24.59-96-69.46-96-69.46s15.29-49.43,19.75-66.16S454,58.69,454,58.69Z"/><path class="cls-22" d="M158.9,152.68s8.8,27.86,56.06,35.49,119.18,3.58,119.18,3.58l54.48-48.06Z"/><path class="cls-10" d="M443.72,67.73l-23.87-4.94-15.63,78.45,23.3,4.83S434.63,93.5,443.72,67.73Z"/><polygon class="cls-23" points="427.5 146.07 407.87 163.72 391.23 160.28 404.19 141.24 427.5 146.07"/><polygon class="cls-24" points="445.72 149.84 381.86 136.62 362.64 249.99 423.47 261.11 445.72 149.84"/><path class="cls-25" d="M427.57,145.38l-1.11,13.82a2.41,2.41,0,0,0,.6,1.8L441,176.51a2.36,2.36,0,0,0,3.33.18,2.26,2.26,0,0,0,.64-.94l1.33-3.64A2.36,2.36,0,0,0,446,170l-14.15-25.71a2.36,2.36,0,0,0-4.3,1.07Z"/><polygon class="cls-26" points="334.14 191.74 334.94 218.38 362.64 249.99 381.86 136.62 334.14 191.74"/><path class="cls-22" d="M403,143s-3.75,12.73-6.88,14.22-41.83,9.52-46.18,9.22-1.51-9.88-1.51-9.88Z"/><path class="cls-27" d="M403,143s-4.57,15.37-8.09,14.64c-4.64,1.2-38.82,8.43-38.82,8.43"/><path class="cls-28" d="M238.73,163.31c-31.94,0-55.73-2.5-68.76-7.28a8.51,8.51,0,0,1-5.57-8.31,416.4,416.4,0,0,1,5.37-54.13C174.42,66.09,181.55,43,191,24.87a8.64,8.64,0,0,1,7.64-4.71h.12c26,.39,118.08,3.64,209.1,29.21A8.54,8.54,0,0,1,414,58.29c-2.45,28.27-11.56,72.59-17.58,85.71-2.87,2.22-17.78,7.42-56.13,12.45A827.18,827.18,0,0,1,238.73,163.31Z"/><path class="cls-29" d="M198.6,13.91v12.5c25.85.39,117.21,3.61,207.49,29a2.26,2.26,0,0,1,1.64,2.38c-2.42,28.06-10.94,68.23-16.25,81.8-4.73,2.09-20.22,6.67-54.87,11.07a817.61,817.61,0,0,1-97.91,6.42c-30.77,0-54.44-2.45-66.65-6.88a2.24,2.24,0,0,1-1.44-2.21,410.45,410.45,0,0,1,5.28-53.29c4.54-26.87,11.46-49.38,20.57-66.88a2.43,2.43,0,0,1,2.11-1.39V13.91m0,0A14.89,14.89,0,0,0,185.41,22c-22.51,43.21-26.56,103.14-27.27,125.54a14.77,14.77,0,0,0,9.66,14.38c15,5.46,41.25,7.65,70.93,7.65,69.7,0,158.16-12.09,163.07-22.28,6.54-13.51,16-60.13,18.42-88.39a14.78,14.78,0,0,0-10.71-15.52C318.32,17.73,227,14.33,198.82,13.91Z"/><polygon class="cls-24" points="415.06 278.03 407.46 300.96 338.17 300.01 352.51 266.28 415.06 278.03"/><polygon class="cls-26" points="325.7 244.96 296.56 272.71 338.17 300.01 352.51 266.28 325.7 244.96"/><ellipse class="cls-30" cx="345.62" cy="237.57" rx="35.74" ry="18.97" transform="translate(42.91 527.83) rotate(-78.3)"/><path class="cls-31" d="M428.3,144.21s-2.47,15.45-1.25,16.79L441,176.51"/><path class="cls-28" d="M618.08,242.85h-.4c-21.82-1-61.75-16-106.81-39.88-47.19-25-70.5-44.07-72.93-49.09-.49-14,8.43-59.3,17-85.82a8.19,8.19,0,0,1,7.8-5.69,8.39,8.39,0,0,1,1,.06c66.36,8.24,126.86,23.27,179.9,44.62a8.3,8.3,0,0,1,5.15,7.09c1.68,20.26-.7,44.31-7.08,71.46a418,418,0,0,1-16,52,8.25,8.25,0,0,1-7.62,5.28Z"/><path class="cls-29" d="M462.71,68.92a.74.74,0,0,1,.21,0C528.69,77.1,588.66,92,641.18,113.13a1.77,1.77,0,0,1,1.06,1.54c1.62,19.58-.71,42.94-6.93,69.42a407.17,407.17,0,0,1-15.74,51.11,1.63,1.63,0,0,1-1.49,1.07H618c-10.36-.5-25.73-4.53-44.45-11.64a533.16,533.16,0,0,1-56.76-26,549.33,549.33,0,0,1-49.85-29.31c-15-10-20.58-15.57-22.45-17.69.33-14.42,8-54.79,16.67-81.6a1.66,1.66,0,0,1,1.55-1.14m0-13.13a14.79,14.79,0,0,0-14,10.25c-8.69,27-18,73.64-17.25,88.64.84,16.13,132.6,92.14,186,94.72h.71a14.76,14.76,0,0,0,13.75-9.51c8-20.93,27.5-77.74,23.49-126.27A14.86,14.86,0,0,0,646.08,101c-26.15-10.54-87.51-33.37-181.54-45.07a16,16,0,0,0-1.83-.11Z"/><path class="cls-32" d="M328.62,144.37a42.67,42.67,0,0,1-7.73-.71,43.11,43.11,0,0,1-28.58-19.83,50.87,50.87,0,0,1-6.69-36.67c4.41-23.51,23.6-40.57,45.63-40.57a41.8,41.8,0,0,1,7.73.72,43.14,43.14,0,0,1,28.58,19.83,50.89,50.89,0,0,1,6.7,36.66C369.84,127.31,350.65,144.37,328.62,144.37Z"/><path class="cls-33" d="M331.25,51.9a36.28,36.28,0,0,1,6.74.63c21.56,4,35.49,26.6,31,50.29a46.22,46.22,0,0,1-14.79,26.25,39.08,39.08,0,0,1-25.62,10,37.37,37.37,0,0,1-6.76-.62c-21.55-4-35.47-26.61-31-50.29A46.34,46.34,0,0,1,305.61,61.9a39.1,39.1,0,0,1,25.63-10m0-10.62c-24.1,0-45.9,18.56-50.86,44.9-5.53,29.49,12.16,57.56,39.52,62.69a46.3,46.3,0,0,0,8.71.82c24.1,0,45.91-18.57,50.85-44.91C385,75.29,367.31,47.23,340,42.09a47.14,47.14,0,0,0-8.71-.81Z"/><path class="cls-32" d="M515.71,183.31a41.8,41.8,0,0,1-7.73-.72c-24.44-4.59-40.26-29.93-35.27-56.49,4.41-23.51,23.6-40.58,45.63-40.58a41,41,0,0,1,7.73.73c24.42,4.55,40.27,29.91,35.27,56.47C556.91,166.23,537.72,183.31,515.71,183.31Z"/><path class="cls-33" d="M518.32,90.8a36.46,36.46,0,0,1,6.75.62c21.56,4,35.49,26.61,31,50.29A46.19,46.19,0,0,1,541.34,168a39.1,39.1,0,0,1-25.63,10,36.47,36.47,0,0,1-6.75-.63c-21.57-4.05-35.49-26.62-31-50.31a46.22,46.22,0,0,1,14.79-26.25,39.08,39.08,0,0,1,25.61-10m0-10.63c-24.09,0-45.9,18.57-50.85,44.91-5.51,29.5,12.11,57.6,39.49,62.71a47.14,47.14,0,0,0,8.71.81c24.1,0,45.91-18.56,50.86-44.9C572.06,114.22,554.37,86.15,527,81a48,48,0,0,0-8.71-.82Z"/><ellipse class="cls-34" cx="341.67" cy="239.13" rx="17.78" ry="8.22" transform="translate(44.73 531.97) rotate(-79.59)"/><path class="cls-35" d="M413.66,260.41c27.73,6,145.55,69.69,145.55,69.69s-6.05,158.1-11.33,167.64c-2.73,11.36-4.86,25-31.61,50.32-6,7.56-48.64,8.2-221.28-2.91"/><path class="cls-35" d="M315.28,248.83s-153-10.2-159.63-7.72c0,0-15,146.28-14.14,154.19"/><ellipse class="cls-36" cx="535.32" cy="126.77" rx="22.35" ry="18.8" transform="matrix(0.07, -1, 1, 0.07, 372.71, 652.31)"/><ellipse class="cls-36" cx="347.52" cy="91.73" rx="22.35" ry="18.8" transform="translate(59.99 307.41) rotate(-51.66)"/><path class="cls-13" d="M383.52,281.3,260.83,334.1c-20.63,9.63-36.71,12.79-47.29-6.4h0c-8.25-19.81.93-26.65,18.53-38.51L349.26,207.3a40,40,0,0,1,54.14,15.63h0C414,242.16,402.71,270.71,383.52,281.3Z"/><path class="cls-14" d="M374.23,285.47l-126.89,57c-20.63,9.63-46.37-33.06-28.76-44.91l117.2-81.89a40,40,0,0,1,54.14,15.62h0A40,40,0,0,1,374.23,285.47Z"/><path class="cls-15" d="M399.54,245.32s2.53,6.25-3,17.55c16.7,4.14,58.25,8.26,62.55,3.26,2.92-3.41,4.61-11.29,6-18.79,1.23-6.72-3.77-12.87-10.59-12.14-20.29,2.24-51.48,6.62-51.48,6.62Z"/><path class="cls-16" d="M396.45,263.15c16.71,4.14,56.39,12.85,60.68,7.84,2.92-3.41,5.36-11.2,7.08-18.22a9.81,9.81,0,0,0-7.15-11.89h0a9.66,9.66,0,0,0-3.43-.23c-20.3,2.25-53.32,3.27-54.57,4.46A20.57,20.57,0,0,1,396.45,263.15Z"/><path class="cls-15" d="M389.72,220.37s5.8,3.45,8.26,15.76c15.81-6.8,51.4-28.65,51.78-35.23.27-4.49-3.12-11.79-6.61-18.57-3.13-6.08-10.81-8-15.76-3.25-14.8,14.06-37,36.42-37,36.42Z"/><path class="cls-16" d="M398,236.45c15.81-6.81,52.69-23.88,53.07-30.46.27-4.48-2.5-12.16-5.39-18.79a9.79,9.79,0,0,0-12.85-5.15h0A9.82,9.82,0,0,0,430,184c-14.81,14.06-40.49,34.84-40.76,36.55A20.58,20.58,0,0,1,398,236.45Z"/><path class="cls-15" d="M362.61,208.64s6.63-1.25,16.63,6.33c7.34-15.57,20.45-41.33,16.38-46.52-2.77-3.53-3-4.08-10.12-6.87-6.36-2.5-12.51,1.33-14,8a171.25,171.25,0,0,1-11.65,35Z"/><path class="cls-16" d="M379.48,215.19c7.34-15.58,24.59-38.6,20.52-43.76-2.77-3.53-2.81-4.79-9.38-7.85-6.19-2.89-12.4,1.36-14,8-4.63,19.82-15.31,36.08-14.37,37.51A20.45,20.45,0,0,1,379.48,215.19Z"/><path class="cls-15" d="M387.73,279l5.8-11.49s4-1.6,4.88-1.88c5.06-1.5,40.59,20.51,36,27.61s-12.75,15.09-15.67,14.59c-.37-.07-4.32.31-4.32.31S385.46,279.53,387.73,279Z"/><path class="cls-16" d="M382.85,280.88a27.29,27.29,0,0,0,6.59-6,45.73,45.73,0,0,0,4.11-7.32c2.44-4.68,40.6,20.5,36.05,27.61s-13.13,13.56-16.06,13.06S380.26,281.45,382.85,280.88Z"/><ellipse class="cls-17" cx="354.61" cy="251.93" rx="14.08" ry="15.61" transform="translate(-29.64 455.8) rotate(-63.34)"/><path class="cls-37" d="M350.17,373.19l151,6.67A11.26,11.26,0,0,1,512,391.53v.7l-9,89.26a11.26,11.26,0,0,1-11.69,10.11L340,484.93a11.25,11.25,0,0,1-10.75-11.73h0a2.94,2.94,0,0,1,.05-.66l9.17-89.26A11.26,11.26,0,0,1,350.17,373.19Z"/><path class="cls-38" d="M347.45,377.38l151.38,6.37a8.75,8.75,0,0,1,8.39,9.1h0v.5l-9.05,89.76a8.74,8.74,0,0,1-9.06,7.86l-151.39-6.15a8.74,8.74,0,0,1-8.38-9.09h0a4,4,0,0,1,0-.49l9.05-90A8.75,8.75,0,0,1,347.45,377.38Z"/><path class="cls-39" d="M441.83,426.91l-93.1-4.77a5.63,5.63,0,0,1-5.27-6v0l2.87-26.38a5.62,5.62,0,0,1,5.95-5.27h0l93.11,4.77a5.63,5.63,0,0,1,5.27,6v0l-2.87,26.38A5.63,5.63,0,0,1,441.83,426.91Z"/><ellipse class="cls-40" cx="366" cy="404.34" rx="13.61" ry="10.89" transform="translate(-65.05 738.47) rotate(-85.63)"/><ellipse class="cls-41" cx="398.86" cy="405.76" rx="13.61" ry="10.89" transform="translate(-36.11 772.54) rotate(-85.63)"/><ellipse class="cls-42" cx="430.97" cy="408.09" rx="13.61" ry="10.89" transform="translate(-8.77 806.71) rotate(-85.63)"/><path class="cls-43" d="M421.55,448.62l-73.32-3.43a5.87,5.87,0,0,1-5.47-6.22h0A5.86,5.86,0,0,1,349,433.5h0l73.33,3.43a5.86,5.86,0,0,1,5.47,6.21h0A5.88,5.88,0,0,1,421.55,448.62Z"/><path class="cls-44" d="M377.25,481.92l-32.55-1.68a5.87,5.87,0,0,1-5.47-6.22h0a5.87,5.87,0,0,1,6.21-5.47L378,470.23a5.88,5.88,0,0,1,5.47,6.25h0A5.89,5.89,0,0,1,377.25,481.92Z"/><path class="cls-44" d="M378.9,465.57l-32.55-1.71a5.87,5.87,0,0,1-5.47-6.22h0a5.87,5.87,0,0,1,6.21-5.47l32.55,1.71a5.87,5.87,0,0,1,5.47,6.22h0A5.86,5.86,0,0,1,378.9,465.57Z"/><polygon class="cls-45" points="461.27 390.9 505.85 392.51 496.66 483.68 451.67 481.5 461.27 390.9"/><ellipse class="cls-46" cx="497.42" cy="402.41" rx="5.64" ry="4.87" transform="translate(47.12 856.93) rotate(-84.24)"/><path class="cls-47" d="M498,396.78s1.45,7.15-1.43,11.19"/><path class="cls-47" d="M492.58,401.9s6.07,2.08,9.68,1"/><ellipse class="cls-48" cx="459.18" cy="474.24" rx="5.64" ry="4.87" transform="translate(-58.75 883.51) rotate(-84.24)"/><path class="cls-47" d="M459.75,468.63s1.44,7.14-1.45,11.19"/><path class="cls-47" d="M454.34,473.75s6.06,2.07,9.68,1"/><ellipse class="cls-49" cx="490.91" cy="475.57" rx="5.64" ry="4.87" transform="translate(-31.53 916.27) rotate(-84.24)"/><path class="cls-47" d="M491.46,469.94s1.44,7.14-1.44,11.19"/><path class="cls-47" d="M486.06,475.06s6.06,2.07,9.68,1"/><ellipse class="cls-50" cx="469.82" cy="400.92" rx="5.64" ry="4.87" transform="translate(23.77 828.13) rotate(-84.24)"/><path class="cls-47" d="M470.38,395.3s1.44,7.14-1.44,11.18"/><path class="cls-47" d="M465,400.42s6.07,2.07,9.69,1"/><path class="cls-51" d="M342.76,439s13-2.71,24.44,2.46,13-5.34,18.5-4.66,5.93,8.85,13.44,8.76,5.35-3.17,8.88-2.79,3.13,4.06,6.54,4,5.82-10.28,7.74-9.81"/><path class="cls-7" d="M317,658.06a81.23,81.23,0,0,0,.77-13.85c-.5-19.38-2.5-78.05-8.7-114.72-3.66-21.59-5.45-36.17-7.39-47.24a85.54,85.54,0,0,0-15-35.43c-5.1-7-11-15-21.14-22.48-13.24-9.81-29.31-14.07-45.63-16.18-40.75-5.26-62-10.18-70.37-9.85-9,3.12-50.73,28.51-60.75,56.8-7.23,20.42-13.29,49.25-4.7,75.6s38.47,149.62,63.66,158.83c29.41,10.76,107.94,27.51,134.94,17.28C306.88,697.62,313.94,679.49,317,658.06Z"/><path class="cls-8" d="M175.81,691.84c-19.05,0-38.72-12.3-56.08-23.17q-2.46-1.54-4.86-3c-9.75-6-32.61-32.27-58.22-66.81-25-33.7-44.35-64.17-48.13-75.82-8.35-25.63-2.07-53.67,4.66-72.69,3.76-10.6,12.19-20,25.08-27.85a134.44,134.44,0,0,1,26.8-12.07l1.15-.4,2.26-.81c8.25-3,27.57-10,52.61-10,2.41,0,4.85.07,7.24.2a79.4,79.4,0,0,1,43.2,15.29c9.89,7.33,15.59,15.19,20.18,21.5a81.48,81.48,0,0,1,14.24,33.56c.86,4.92,1.71,10.63,2.7,17.26,1.19,8,2.67,18,4.69,30,6.21,36.69,8.18,96.59,8.64,114.08a77.8,77.8,0,0,1-.72,13.12c-3,21.09-9.53,36.84-31.49,45.18A39,39,0,0,1,175.81,691.84Z"/><path d="M121.08,403.75c2.32,0,4.68.07,7,.19a74.79,74.79,0,0,1,40.75,14.41c9.34,6.91,14.81,14.46,19.21,20.52a76.91,76.91,0,0,1,13.45,31.69c.85,4.86,1.7,10.55,2.67,17.14,1.2,8.05,2.69,18.07,4.72,30.05,6.16,36.4,8.12,96,8.57,113.44a73.84,73.84,0,0,1-.67,12.34c-1.63,11.33-4.09,19.19-8,25.48-4.51,7.28-11.26,12.54-20.63,16.1a34.22,34.22,0,0,1-12.34,2.21c-17.76,0-36.84-12-53.68-22.5l-4.88-3c-9.16-5.68-32.06-32.06-57-65.64-24.38-32.83-43.87-63.48-47.47-74.53-4.37-13.48-7.15-36.52,4.63-69.78,3.4-9.59,11.19-18.16,23.18-25.5,10.29-6.29,20.84-9.91,25.91-11.66l1.16-.4,2.31-.82c8-2.9,26.83-9.7,51.08-9.7m0-9.05c-28.37,0-49.35,8.6-56.36,11-9,3.12-45.78,14.78-55.8,43.07-7.25,20.42-13.3,49.26-4.72,75.61S89.68,655.36,112.52,669.48c18.48,11.45,41.06,26.88,63.32,26.88a43.41,43.41,0,0,0,15.54-2.79c24.24-9.2,31.3-27.34,34.38-48.76a83.45,83.45,0,0,0,.77-13.86c-.51-19.37-2.5-78.05-8.71-114.72-3.65-21.59-5.45-36.17-7.39-47.23a85.45,85.45,0,0,0-15-35.44c-5.1-7-11-14.95-21.15-22.5a84.13,84.13,0,0,0-45.63-16.19c-2.54-.13-5-.19-7.5-.2Z"/><ellipse class="cls-9" cx="75.59" cy="485.82" rx="60.22" ry="48.12" transform="translate(-412.66 427.98) rotate(-74.4)"/><ellipse class="cls-9" cx="111.62" cy="584.83" rx="43.14" ry="34.47" transform="translate(-481.68 535.07) rotate(-74.4)"/><ellipse class="cls-9" cx="168.64" cy="636.01" rx="33.95" ry="27.13" transform="translate(-489.28 627.4) rotate(-74.4)"/><ellipse class="cls-10" cx="72.63" cy="484.99" rx="22.5" ry="16.37" transform="translate(-414.03 424.52) rotate(-74.4)"/><ellipse class="cls-10" cx="109.68" cy="586.09" rx="19.43" ry="14.13" transform="translate(-454.24 392.36) rotate(-60.44)"/><ellipse class="cls-10" cx="168.03" cy="638.25" rx="14.39" ry="10.47" transform="translate(-470.04 469.53) rotate(-60.44)"/><path class="cls-11" d="M199.15,597.19s-3-17-27.68-16.26c-1.25-10.77-2.11-39.19-43-48,4.58-8.3,31.65-42.1,13-88.66,13.26-1.76,21.54-3.12,31,19.61S202.11,593.14,199.15,597.19Z"/><line class="cls-12" x1="301.58" y1="481.73" x2="209.34" y2="463.98"/><line class="cls-12" x1="262.99" y1="422.58" x2="160.32" y2="402.81"/><polyline class="cls-12" points="145.68 399.99 118.43 394.75 118.42 394.75"/><line class="cls-12" x1="311.24" y1="544.4" x2="219.36" y2="526.71"/><line class="cls-12" x1="316.24" y1="605.27" x2="224.71" y2="587.65"/><line class="cls-12" x1="315.5" y1="666.61" x2="225.02" y2="649.19"/></g><path class="cls-52" d="M919.51,123.76,898.2,115a.82.82,0,0,1-.3-1.3l4.81-5.35a.81.81,0,0,0,.2-.65l-.12-.92a.81.81,0,0,1,.6-.89l2-.54-2.51-.65,3.14-.57a.81.81,0,0,0,.46-.25l6.78-7.31a.83.83,0,0,0,.19-.74L912,89.52a.85.85,0,0,0-.49-.57L880.05,76.13a.83.83,0,0,0-.49,0l-4.69,1.08a.82.82,0,0,0-.62,1l3.9,16.94a.75.75,0,0,0,.36.51l1.63,1-.64,0a.82.82,0,0,0-.77,1l2,8.87a.81.81,0,0,1-1.11.93l-13.6-5.57a.8.8,0,0,0-.91.21l-5.58,6.22a.81.81,0,0,0,.29,1.3L880,117.83a.82.82,0,0,1,.3,1.3l-13.83,15.45a.82.82,0,0,0,.3,1.3l7.74,3.15a.8.8,0,0,0,.91-.21l2.14-2.39a.91.91,0,0,0,.19-.41l.64-3.77.85.94a.82.82,0,0,0,1.22,0l4.09-4.56a.81.81,0,0,1,1.4.36l3,13.14a.84.84,0,0,0,.51.59l.52.19a.82.82,0,0,1,.44,1.14l-.28.53a.82.82,0,0,0,.48,1.15l.11,0a.81.81,0,0,1,.07,1.52h0a.82.82,0,0,0-.47.93l2.1,9.13a.82.82,0,0,0,1,.61l4.69-1.08a.86.86,0,0,0,.42-.25l22.81-25.39a.83.83,0,0,0,.19-.74L920,124.32A.82.82,0,0,0,919.51,123.76Zm-27.25-19.83-2.83-12.29a.82.82,0,0,1,1.11-.93l10.14,4.13a.82.82,0,0,1,.3,1.3l-7.32,8.15A.82.82,0,0,1,892.26,103.93Zm8,34.73-2.83-12.29a.82.82,0,0,1,1.11-.93l10.14,4.13a.82.82,0,0,1,.3,1.3L901.64,139A.82.82,0,0,1,900.24,138.66Z"/></svg>