<svg id="Layer_1" data-name="Layer 1" xmlns="http://www.w3.org/2000/svg" xmlns:xlink="http://www.w3.org/1999/xlink" viewBox="0 0 1199.8 1113.59"><defs><style>.cls-1{fill:#353535;stroke-width:1.53px;}.cls-1,.cls-15,.cls-17,.cls-25{stroke:#000;}.cls-1,.cls-15,.cls-17{stroke-linejoin:round;}.cls-10,.cls-11,.cls-2{fill:#4d4d4d;}.cls-3{fill:#b3b3b3;}.cls-4{fill:#d3161d;}.cls-5{fill:#adadad;stroke:#080000;stroke-width:2.09px;}.cls-10,.cls-11,.cls-16,.cls-18,.cls-20,.cls-21,.cls-25,.cls-29,.cls-40,.cls-41,.cls-42,.cls-43,.cls-44,.cls-45,.cls-5,.cls-6,.cls-7,.cls-8,.cls-9{stroke-miterlimit:10;}.cls-21,.cls-25,.cls-29,.cls-41,.cls-45,.cls-6{fill:none;}.cls-18,.cls-20,.cls-29,.cls-45,.cls-6,.cls-7{stroke:#070707;}.cls-6{stroke-width:3.21px;}.cls-7{fill:#77401b;}.cls-29,.cls-7,.cls-8{stroke-width:2px;}.cls-12,.cls-8{fill:#f8c946;}.cls-8{stroke:#020202;}.cls-26,.cls-9{fill:#282828;}.cls-10,.cls-11,.cls-9{stroke:#151616;}.cls-10,.cls-9{stroke-width:1.64px;}.cls-11{stroke-width:6px;}.cls-13{fill:#683919;}.cls-14,.cls-20{fill:#945320;}.cls-15{fill:#515051;stroke-width:2px;}.cls-16,.cls-19{fill:#161616;}.cls-16,.cls-21,.cls-40,.cls-41,.cls-42,.cls-43,.cls-44{stroke:#0a0a0a;}.cls-16,.cls-17,.cls-18,.cls-20,.cls-21,.cls-25{stroke-width:1.73px;}.cls-17{fill:#8e8a8b;}.cls-18{fill:#e2b647;}.cls-22{fill:#dddbd7;}.cls-23{fill:#232323;}.cls-24{fill:#3a3a3a;}.cls-27{fill:#7c7c7c;}.cls-28{fill:#666;}.cls-30{fill:#389cce;}.cls-31{fill:#7f1119;}.cls-32{fill:#5e0e18;}.cls-33{fill:#352f49;}.cls-34{fill:#e41e00;}.cls-35{fill:#fffe28;}.cls-36{fill:#18ff08;}.cls-37{fill:#dbdddd;}.cls-38{fill:#0fb0db;}.cls-39{fill:#303435;}.cls-40,.cls-41,.cls-42,.cls-43,.cls-44{stroke-width:0.78px;}.cls-40{fill:url(#radial-gradient);}.cls-42{fill:url(#radial-gradient-2);}.cls-43{fill:url(#radial-gradient-3);}.cls-44{fill:url(#radial-gradient-4);}</style><radialGradient id="radial-gradient" cx="-3507.76" cy="819.77" r="12.18" gradientTransform="translate(1616.46 4129.67) rotate(90)" gradientUnits="userSpaceOnUse"><stop offset="0.2" stop-color="#666"/><stop offset="0.57" stop-color="#585858"/><stop offset="1" stop-color="#4d4d4d"/></radialGradient><radialGradient id="radial-gradient-2" cx="-3557.06" cy="940.26" r="12.18" gradientTransform="translate(1675.81 4293.91) rotate(90)" xlink:href="#radial-gradient"/><radialGradient id="radial-gradient-3" cx="-3506.37" cy="937.26" r="12.18" gradientTransform="translate(1723.54 4245.32) rotate(90)" xlink:href="#radial-gradient"/><radialGradient id="radial-gradient-4" cx="-3551.9" cy="821.83" r="12.18" gradientTransform="translate(1574.39 4171.44) rotate(90)" xlink:href="#radial-gradient"/></defs><title>bt_robot</title><path class="cls-1" d="M1006,1026a132.49,132.49,0,0,0,1.22-22.17c-.81-31-4-124.86-13.92-183.51-5.85-34.55-8.72-57.87-11.83-75.58a136.87,136.87,0,0,0-24.05-56.69c-8.16-11.23-17.58-23.91-33.82-35.95-21.19-15.7-46.88-22.51-73-25.88-65.17-8.41-99.2-16.29-112.57-15.76-14.37,5-81.15,45.6-97.18,90.87-11.57,32.66-21.26,78.79-7.53,120.94s61.56,239.35,101.88,254.08C782.22,1093.56,907.83,1120.4,951,1104,989.79,1089.28,1001.08,1060.27,1006,1026Z"/><path class="cls-2" d="M780.11,1080c-30.48,0-62-19.69-89.72-37.07l-7.76-4.85c-15.61-9.66-52.17-51.61-93.15-106.86-40-53.92-70.94-102.67-77-121.3-13.35-41-3.31-85.86,7.47-116.29,6-16.94,19.5-31.92,40.12-44.54,17.14-10.48,34.52-16.45,42.87-19.32l1.84-.63,3.61-1.3c13.2-4.77,44.11-15.94,84.17-15.94,3.85,0,7.75.1,11.58.31a126.94,126.94,0,0,1,69.11,24.47c15.82,11.72,24.94,24.29,32.27,34.39a130.26,130.26,0,0,1,22.79,53.68c1.38,7.87,2.74,17,4.31,27.62,1.91,12.85,4.28,28.83,7.51,47.92,9.94,58.7,13.09,154.53,13.82,182.5a125.59,125.59,0,0,1-1.15,20.95c-4.83,33.73-15.24,58.93-50.38,72.26A62.43,62.43,0,0,1,780.11,1080Z"/><path d="M692.55,619.17c3.73,0,7.49.1,11.19.3a119.81,119.81,0,0,1,65.2,23.06c14.92,11.06,23.68,23.13,30.72,32.83a123,123,0,0,1,21.51,50.69c1.37,7.77,2.72,16.87,4.29,27.42,1.91,12.88,4.29,28.91,7.53,48.07,9.86,58.23,13,153.63,13.72,181.48a118.71,118.71,0,0,1-1.08,19.74c-2.6,18.12-6.53,30.7-12.77,40.76-7.2,11.64-18,20.06-33,25.76a54.45,54.45,0,0,1-19.73,3.53c-28.4,0-58.94-19.11-85.88-36q-4-2.49-7.8-4.87c-14.66-9.07-51.28-51.28-91.14-105-38.95-52.52-70.18-101.55-75.94-119.23-7-21.56-11.44-58.43,7.41-111.63,5.43-15.34,17.91-29.06,37.07-40.79,16.47-10.07,33.34-15.86,41.45-18.65l1.86-.64,3.7-1.32c12.84-4.65,42.91-15.52,81.71-15.52m0-14.47c-45.38,0-78.94,13.74-90.16,17.65-14.37,5-73.23,23.65-89.27,68.91-11.57,32.66-21.25,78.79-7.52,120.94s136.72,209.47,173.22,232.07c29.56,18.31,65.68,43,101.29,43a69.5,69.5,0,0,0,24.87-4.47c38.77-14.72,50.06-43.73,55-78a132.61,132.61,0,0,0,1.22-22.17c-.81-31-4-124.86-13.92-183.52-5.85-34.55-8.72-57.87-11.83-75.58a136.75,136.75,0,0,0-24-56.68c-8.15-11.23-17.58-23.92-33.82-36a134.63,134.63,0,0,0-73-25.89q-6.1-.33-12-.32Z"/><ellipse class="cls-3" cx="619.78" cy="750.45" rx="96.34" ry="76.98" transform="translate(-269.69 1145.61) rotate(-74.4)"/><ellipse class="cls-3" cx="677.42" cy="908.83" rx="69.02" ry="55.15" transform="translate(-380.09 1316.92) rotate(-74.4)"/><ellipse class="cls-3" cx="768.66" cy="990.69" rx="54.31" ry="43.4" transform="translate(-392.23 1464.63) rotate(-74.4)"/><ellipse class="cls-4" cx="615.04" cy="749.13" rx="36" ry="26.18" transform="translate(-271.88 1140.07) rotate(-74.4)"/><ellipse class="cls-4" cx="674.33" cy="910.81" rx="31.08" ry="22.6" transform="translate(-450.6 1048.09) rotate(-60.44)"/><ellipse class="cls-4" cx="767.66" cy="994.25" rx="23.02" ry="16.75" transform="translate(-475.88 1171.55) rotate(-60.44)"/><path class="cls-5" d="M817.45,928.6s-4.76-27.12-44.28-26c-2-17.23-3.38-62.7-68.77-76.83C711.73,812.5,755,758.44,725.24,684c21.22-2.83,34.46-5,49.61,31.36S822.18,922.14,817.45,928.6Z"/><line class="cls-6" x1="981.31" y1="743.91" x2="833.75" y2="715.51"/><line class="cls-6" x1="919.58" y1="649.29" x2="755.32" y2="617.66"/><polyline class="cls-6" points="731.9 613.15 688.31 604.76 688.29 604.75"/><line class="cls-6" x1="996.77" y1="844.16" x2="849.78" y2="815.86"/><line class="cls-6" x1="1004.77" y1="941.55" x2="858.34" y2="913.35"/><line class="cls-6" x1="1003.58" y1="1039.67" x2="858.83" y2="1011.81"/><path class="cls-7" d="M1014.39,339.88,827.85,444.1c-32.28,16.76-52,34.12-38,66.25h0c17.09,29.76,34.73,24.78,66.92,14l218.06-68.94a63.93,63.93,0,0,0,32.9-83.93h0C1093.73,339.36,1046.52,325.84,1014.39,339.88Z"/><path class="cls-8" d="M1000.05,347.6l-196,105.5c-32.28,16.77-3.23,91,29,80.25l218.06-68.93A63.92,63.92,0,0,0,1084,380.49h0A63.91,63.91,0,0,0,1000.05,347.6Z"/><path class="cls-9" d="M1075.64,354.6s-5.47-9.31-25.13-13.35c11-25.24,46.27-82,56.81-82.53,7.17-.38,18.82,5.14,29.63,10.74,9.71,5,12.64,17.36,5.07,25.24-22.62,23.56-58.57,58.86-58.57,58.86Z"/><path class="cls-10" d="M1050,341.16c11-25.24,38.64-84.08,49.18-84.64,7.17-.38,19.43,4.12,30,8.77a15.71,15.71,0,0,1,5.07,25.25c-22.62,23.55-56.09,64.45-58.82,64.88C1067.92,345,1058.57,341.85,1050,341.16Z"/><path class="cls-9" d="M1097.73,391.37s1.28-10.73-11.94-25.83c24-13.44,86.43-37.29,95.16-31.37,5.94,4,11.88,15.47,17.11,26.47,4.69,9.87-.44,21.47-11.24,23.17-32.26,5.08-82.24,11.45-82.24,11.45Z"/><path class="cls-10" d="M1085.45,365.16c24-13.43,81.62-43.58,90.35-37.66,5.94,4,13,15,18.6,25.14a15.7,15.7,0,0,1-11.23,23.17c-32.27,5.08-83.65,17.41-86.09,16.09C1097.4,379,1091.85,370.88,1085.45,365.16Z"/><path class="cls-9" d="M1086.2,437.2s8.07-7.19,8.18-27.26c26.91,5.86,72.36,14.31,75,24.53,1.78,7,2.23,7.83-1.15,19.54-3,10.5-13.88,14.56-23.76,9.9a272.27,272.27,0,0,0-55.69-19.25Z"/><path class="cls-10" d="M1094.37,409.44c26.91,5.86,72.93,6.41,75.55,16.63,1.78,7,3.35,8.23.85,19.52-2.36,10.67-13.81,14.41-23.76,9.9-29.67-13.43-60.69-15.72-61.65-18.32C1094.12,427.75,1095.37,418,1094.37,409.44Z"/><path class="cls-9" d="M1021.37,336.76l20.23,3.83s5.9-3.5,7.12-4.38c6.84-4.95,13.53-71.48.08-72.64s-31.57,1.5-33.78,5.69c-.27.52-4.6,5.17-4.6,5.17S1018.52,339.13,1021.37,336.76Z"/><path class="cls-10" d="M1014.25,341.13a44.17,44.17,0,0,1,14.06-2.46,73.41,73.41,0,0,1,13.29,1.92c8.32,1.46,13.54-71.49.08-72.64s-30,3.45-32.21,7.64S1011,343.85,1014.25,341.13Z"/><ellipse class="cls-11" cx="1023.49" cy="405.13" rx="24.97" ry="22.52" transform="translate(432.81 1333.98) rotate(-79.14)"/><path class="cls-12" d="M894.59,505.82s-170-96.17-248-115.38c0,0-211.62-25.82-395.33-26.38C271.76,381.6,451.89,471,477.82,478S823.61,511.27,894.59,505.82Z"/><path class="cls-13" d="M536.81,462.27s-68.58-46.85-75.69-49.73,137.63,2.2,137.63,2.2,66.71,44.24,71.06,49S536.81,462.27,536.81,462.27Z"/><path class="cls-14" d="M249,363.47S211.51,664.9,228.9,743c21.27,20.67,172.4,101.85,222.27,105.22,7.95-34.31,36.45-344.62,24.42-370.8C458,461.66,323.51,390.19,249,363.47Z"/><path class="cls-4" d="M894.59,505.82s-4.81,155-18.13,268.13c-5.13,43.58-50.08,83.21-57.28,84.37-17,13.58-384.11-2.83-404.89-19,0,0,35.94-29.39,39.6-89.71,4.56-75.36,15.78-181,21.7-272.19C489.69,471.28,829.5,491.47,894.59,505.82Z"/><path class="cls-15" d="M564.49,301.77l-23.19,112,97.89,21.31c16.4,3.39,34.91-18.91,41.31-49.84s-1.72-58.75-18.12-62.15c-5.52-1.14-11.27.63-16.74,4.65Z"/><path class="cls-16" d="M1002.52,372.94s-42.25,18-108.17,12.83c-29.3-2.29-66-13.25-101.06-25.35C679.24,321.08,639.7,249.3,639.7,249.3s24.46-79.07,31.59-105.83,54.93-71.83,54.93-71.83Z"/><path class="cls-16" d="M254.2,222s14.08,44.57,89.68,56.77,190.65,5.73,190.65,5.73l87.16-76.88Z"/><path class="cls-4" d="M709.83,86.1l-38.19-7.9-25,125.5,37.28,7.72S695.29,127.33,709.83,86.1Z"/><polygon class="cls-17" points="683.88 211.42 652.48 239.66 625.86 234.15 646.6 203.7 683.88 211.42"/><polygon class="cls-18" points="713.03 217.45 610.88 196.3 580.12 377.66 677.44 395.46 713.03 217.45"/><path class="cls-19" d="M684,210.32l-1.77,22.11a3.81,3.81,0,0,0,.95,2.87l22.26,24.82a3.77,3.77,0,0,0,6.35-1.22l2.12-5.82a3.75,3.75,0,0,0-.39-3.35L690.87,208.6A3.77,3.77,0,0,0,684,210.32Z"/><polygon class="cls-20" points="534.53 284.48 535.82 327.1 580.12 377.66 610.88 196.3 534.53 284.48"/><path class="cls-16" d="M644.67,206.56s-6,20.37-11,22.75-66.91,15.22-73.87,14.74-2.42-15.8-2.42-15.8Z"/><path class="cls-21" d="M644.67,206.56s-7.3,24.59-12.94,23.42c-7.42,1.92-62.1,13.48-62.1,13.48"/><path class="cls-22" d="M381.91,239c-51.1,0-89.16-4-110-11.64A13.58,13.58,0,0,1,263,214.06a665.67,665.67,0,0,1,8.59-86.59c7.44-44,18.84-81,33.9-109.94A13.81,13.81,0,0,1,317.7,10h.2c41.66.62,188.9,5.82,334.5,46.73A13.65,13.65,0,0,1,662.27,71c-3.91,45.23-18.49,116.13-28.12,137.11-4.59,3.56-28.45,11.87-89.8,19.92C492.43,234.88,431.71,239,381.91,239Z"/><path class="cls-23" d="M317.7,0l.05,20c41.36.62,187.51,5.78,331.94,46.36a3.63,3.63,0,0,1,2.62,3.81c-3.88,44.88-17.51,109.14-26,130.86-7.56,3.34-32.34,10.67-87.77,17.7C487.41,225.22,430.32,229,381.91,229c-49.23,0-87.1-3.92-106.63-11a3.59,3.59,0,0,1-2.31-3.53,657.37,657.37,0,0,1,8.46-85.25c7.26-43,18.33-79,32.9-107A3.88,3.88,0,0,1,317.7,20V0m0,0a23.83,23.83,0,0,0-21.1,12.91c-36,69.13-42.48,165-43.62,200.83a23.62,23.62,0,0,0,15.45,23c24,8.74,66,12.25,113.48,12.25,111.5,0,253-19.35,260.86-35.64,10.46-21.62,25.56-96.2,29.47-141.41A23.64,23.64,0,0,0,655.1,47.11C509.23,6.12,363.14.67,318.05,0Z"/><polygon class="cls-18" points="663.99 422.52 651.83 459.21 540.98 457.69 563.92 403.73 663.99 422.52"/><polygon class="cls-20" points="521.03 369.62 474.41 414.02 540.98 457.69 563.92 403.73 521.03 369.62"/><ellipse class="cls-24" cx="552.89" cy="357.76" rx="57.18" ry="30.35" transform="translate(90.47 826.64) rotate(-78.3)"/><path class="cls-25" d="M685.17,208.44s-3.95,24.72-2,26.86l22.26,24.82"/><path class="cls-22" d="M988.76,366.24h-.63c-34.91-1.68-98.79-25.53-170.88-63.79-75.49-40.06-112.77-70.51-116.66-78.53-.79-22.48,13.49-94.86,27.15-137.29a13.08,13.08,0,0,1,12.48-9.11,12.74,12.74,0,0,1,1.63.1C848,90.81,944.78,114.84,1029.64,149a13.28,13.28,0,0,1,8.24,11.34c2.68,32.42-1.13,70.88-11.33,114.32a666.37,666.37,0,0,1-25.59,83.1,13.19,13.19,0,0,1-12.2,8.46Z"/><path class="cls-23" d="M740.22,88a1.83,1.83,0,0,1,.33,0c105.21,13.09,201.15,36.89,285.17,70.73a2.82,2.82,0,0,1,1.69,2.46c2.6,31.33-1.13,68.69-11.08,111.06A654.3,654.3,0,0,1,991.15,354a2.61,2.61,0,0,1-2.39,1.72h-.12c-16.58-.8-41.17-7.24-71.12-18.62-27.46-10.43-58.86-24.8-90.8-41.55-29.31-15.37-57.63-32-79.74-46.89-23.93-16.08-32.92-24.9-35.91-28.29.52-23.08,12.85-87.65,26.66-130.55A2.65,2.65,0,0,1,740.22,88m0-21a23.66,23.66,0,0,0-22.48,16.4c-13.91,43.2-28.87,117.8-27.6,141.79C691.49,251,902.26,372.6,987.63,376.72l1.13,0a23.61,23.61,0,0,0,22-15.21c12.84-33.49,44-124.36,37.58-202a23.8,23.8,0,0,0-14.78-20.21c-41.83-16.85-140-53.38-290.42-72.09a24,24,0,0,0-2.92-.18Z"/><path class="cls-26" d="M525.7,208.71a67.71,67.71,0,0,1-12.37-1.15c-18.82-3.54-35.05-14.8-45.72-31.72-10.79-17.13-14.59-38-10.7-58.66,7.06-37.61,37.76-64.9,73-64.9a67.69,67.69,0,0,1,12.36,1.15C561.09,57,577.32,68.23,588,85.15c10.79,17.12,14.59,37.95,10.71,58.65-7.06,37.61-37.77,64.91-73,64.91Z"/><path class="cls-27" d="M529.91,60.78a58.48,58.48,0,0,1,10.79,1c34.49,6.47,56.76,42.56,49.64,80.45a74,74,0,0,1-23.66,42c-11.75,10.27-26.31,15.92-41,15.92a58.67,58.67,0,0,1-10.8-1c-34.48-6.47-56.75-42.56-49.64-80.45a74,74,0,0,1,23.66-42c11.75-10.27,26.31-15.92,41-15.92m0-17c-38.56,0-73.44,29.69-81.36,71.83-8.85,47.18,19.45,92.08,63.21,100.3a75.21,75.21,0,0,0,13.94,1.3c38.55,0,73.44-29.7,81.35-71.84,8.86-47.17-19.44-92.07-63.21-100.29a75.18,75.18,0,0,0-13.93-1.3Z"/><path class="cls-26" d="M825,271a66.86,66.86,0,0,1-12.37-1.16c-39.09-7.34-64.4-47.88-56.42-90.37,7.06-37.61,37.76-64.91,73-64.91a66.83,66.83,0,0,1,12.36,1.16C880.64,123,906,163.58,898,206.07,890.91,243.68,860.21,271,825,271Z"/><path class="cls-27" d="M829.18,123a58.59,58.59,0,0,1,10.8,1c34.49,6.48,56.76,42.57,49.64,80.45A74,74,0,0,1,866,246.56c-11.75,10.26-26.31,15.92-41,15.92a58.59,58.59,0,0,1-10.8-1C779.69,255,757.43,218.9,764.54,181A74,74,0,0,1,788.2,139C800,128.7,814.51,123,829.18,123m0-17c-38.55,0-73.44,29.7-81.35,71.84C739,225.05,767.27,270,811,278.18a76.07,76.07,0,0,0,13.94,1.3c38.55,0,73.44-29.7,81.35-71.84,8.86-47.17-19.44-92.08-63.21-100.3a76.07,76.07,0,0,0-13.94-1.3Z"/><ellipse class="cls-28" cx="550.06" cy="360.38" rx="28.54" ry="13.19" transform="matrix(0.18, -0.98, 0.98, 0.18, 94.36, 834.48)"/><path class="cls-29" d="M661.75,394.33C706.1,404,894.59,505.82,894.59,505.82S884.91,758.74,876.46,774c-4.37,18.17-7.77,40.08-50.56,80.5-9.62,12.09-77.81,13.12-354-4.65"/><path class="cls-29" d="M504.37,375.81S259.53,359.5,249,363.47c0,0-23.93,234-22.63,246.65"/><ellipse class="cls-30" cx="856.32" cy="180.53" rx="35.75" ry="30.08" transform="translate(618.45 1022.73) rotate(-86.13)"/><ellipse class="cls-30" cx="555.91" cy="124.48" rx="35.75" ry="30.08" transform="translate(113.45 483.31) rotate(-51.66)"/><path class="cls-7" d="M613.53,427.75,417.26,512.22c-33,15.4-58.73,20.46-75.66-10.24h0c-13.2-31.68,1.49-42.63,29.65-61.6l187.48-131a63.93,63.93,0,0,1,86.6,25h0C662.27,365.14,644.23,410.82,613.53,427.75Z"/><path class="cls-8" d="M598.67,434.43l-203,91.18c-33,15.4-74.17-52.88-46-71.85l187.49-131a63.93,63.93,0,0,1,86.6,25h0A63.93,63.93,0,0,1,598.67,434.43Z"/><path class="cls-9" d="M639.15,370.2s4.06,10-4.72,28.07c26.73,6.63,93.2,13.22,100.07,5.21,4.67-5.45,7.38-18.06,9.53-30.05C746,362.68,738,352.84,727.1,354c-32.47,3.59-82.36,10.6-82.36,10.6Z"/><path class="cls-10" d="M634.21,398.72c26.73,6.63,90.22,20.56,97.08,12.54,4.67-5.45,8.57-17.92,11.32-29.14a15.7,15.7,0,0,0-16.93-19.4c-32.47,3.6-85.29,5.23-87.29,7.14C642.08,382.18,638.87,391.51,634.21,398.72Z"/><path class="cls-9" d="M623.45,330.29s9.28,5.52,13.21,25.21c25.3-10.89,82.22-45.84,82.84-56.37.42-7.17-5-18.85-10.58-29.7-5-9.73-17.29-12.72-25.21-5.2-23.68,22.5-59.18,58.26-59.18,58.26Z"/><path class="cls-10" d="M636.76,356c25.29-10.88,84.28-38.19,84.9-48.72.42-7.17-4-19.46-8.62-30.06a15.68,15.68,0,0,0-25.21-5.2c-23.68,22.49-64.76,55.74-65.2,58.47C633,338.06,636.11,347.43,636.76,356Z"/><path class="cls-9" d="M580.08,311.52s10.61-2,26.6,10.12c11.74-24.91,32.72-66.11,26.2-74.41-4.43-5.65-4.85-6.53-16.19-11-10.17-4-20,2.13-22.33,12.81A272.51,272.51,0,0,1,575.72,305Z"/><path class="cls-10" d="M607.07,322c11.74-24.92,39.34-61.75,32.82-70-4.43-5.65-4.49-7.67-15-12.56-9.9-4.63-19.84,2.17-22.33,12.81-7.41,31.71-24.49,57.71-23,60C592.4,311,600.92,316,607.07,322Z"/><path class="cls-9" d="M620.26,424.12l9.28-18.38s6.37-2.55,7.81-3c8.09-2.41,64.93,32.8,57.65,44.17s-20.4,24.13-25.07,23.33c-.59-.1-6.91.5-6.91.5S616.64,424.93,620.26,424.12Z"/><path class="cls-10" d="M612.45,427.09A43.84,43.84,0,0,0,623,417.45a74.5,74.5,0,0,0,6.58-11.71c3.9-7.49,64.94,32.8,57.66,44.17s-21,21.7-25.68,20.9S608.31,428,612.45,427.09Z"/><ellipse class="cls-11" cx="567.32" cy="380.79" rx="22.52" ry="24.97" transform="translate(-27.56 716.91) rotate(-63.34)"/><path class="cls-31" d="M560.18,574.76l241.63,10.67a18,18,0,0,1,17.11,19.79L804.52,748a18,18,0,0,1-18.7,16.18l-241.9-10.67a18,18,0,0,1-17.12-19.82L541.48,590.9A18,18,0,0,1,560.18,574.76Z"/><path class="cls-32" d="M555.83,581.46,798,591.65A14,14,0,0,1,811.36,607L796.88,750.6a14,14,0,0,1-14.5,12.58L540.2,753.34A14,14,0,0,1,526.84,738l14.47-143.9A14,14,0,0,1,555.83,581.46Z"/><path class="cls-33" d="M706.81,660.69l-148.94-7.63a9,9,0,0,1-8.43-9.53l4.59-42.2a9,9,0,0,1,9.53-8.43l148.94,7.63a9,9,0,0,1,8.43,9.53l-4.59,42.2A9,9,0,0,1,706.81,660.69Z"/><ellipse class="cls-34" cx="585.48" cy="624.57" rx="21.77" ry="17.42" transform="translate(-81.86 1160.78) rotate(-85.63)"/><ellipse class="cls-35" cx="638.05" cy="626.83" rx="21.77" ry="17.42" transform="translate(-35.55 1215.28) rotate(-85.63)"/><ellipse class="cls-36" cx="689.42" cy="630.57" rx="21.77" ry="17.42" transform="translate(8.18 1269.96) rotate(-85.63)"/><path class="cls-37" d="M674.37,695.42l-117.3-5.49a9.39,9.39,0,0,1-8.75-9.94h0a9.4,9.4,0,0,1,9.94-8.76l117.31,5.49a9.39,9.39,0,0,1,8.75,9.94h0A9.41,9.41,0,0,1,674.37,695.42Z"/><path class="cls-38" d="M603.5,748.69,551.42,746a9.39,9.39,0,0,1-8.75-9.94h0a9.39,9.39,0,0,1,9.94-8.75L604.7,730a9.41,9.41,0,0,1,8.75,10h0A9.4,9.4,0,0,1,603.5,748.69Z"/><path class="cls-38" d="M606.14,722.54l-52.08-2.74a9.39,9.39,0,0,1-8.75-9.94h0a9.39,9.39,0,0,1,9.94-8.75l52.08,2.73a9.4,9.4,0,0,1,8.75,9.95h0A9.38,9.38,0,0,1,606.14,722.54Z"/><polygon class="cls-39" points="737.91 603.09 809.23 605.67 794.52 751.51 722.55 748.03 737.91 603.09"/><ellipse class="cls-40" cx="795.71" cy="621.47" rx="9.02" ry="7.79" transform="translate(97.54 1350.8) rotate(-84.24)"/><path class="cls-41" d="M796.61,612.5s2.31,11.43-2.3,17.89"/><path class="cls-41" d="M788,620.69s9.71,3.32,15.49,1.56"/><ellipse class="cls-42" cx="734.57" cy="736.4" rx="9.02" ry="7.79" transform="translate(-71.83 1393.37) rotate(-84.24)"/><path class="cls-41" d="M735.47,727.43s2.31,11.43-2.31,17.9"/><path class="cls-41" d="M726.82,735.62s9.7,3.32,15.49,1.56"/><ellipse class="cls-43" cx="785.3" cy="738.5" rx="9.02" ry="7.79" transform="translate(-28.27 1445.74) rotate(-84.24)"/><path class="cls-41" d="M786.21,729.53s2.3,11.43-2.31,17.9"/><path class="cls-41" d="M777.56,737.72s9.7,3.32,15.49,1.57"/><ellipse class="cls-44" cx="751.58" cy="619.09" rx="9.02" ry="7.79" transform="translate(60.2 1304.76) rotate(-84.24)"/><path class="cls-41" d="M752.48,610.12s2.31,11.43-2.3,17.89"/><path class="cls-41" d="M743.83,618.31s9.71,3.32,15.5,1.56"/><path class="cls-45" d="M548.32,680s20.82-4.34,39.1,3.94,20.85-8.55,29.59-7.45,9.49,14.15,21.51,14,8.56-5.06,14.21-4.46,5,6.5,10.45,6.34,9.31-16.44,12.39-15.69"/><path class="cls-1" d="M507.12,1030.48a131.38,131.38,0,0,0,1.23-22.16c-.81-31-4-124.87-13.92-183.52-5.85-34.55-8.72-57.87-11.83-75.58a136.71,136.71,0,0,0-24.06-56.68c-8.15-11.23-17.58-23.92-33.81-35.95-21.19-15.7-46.89-22.52-73-25.89-65.18-8.41-99.2-16.28-112.57-15.76-14.37,5-81.15,45.61-97.18,90.87-11.57,32.66-21.26,78.79-7.53,120.94S196,1066.1,236.29,1080.84c47.06,17.2,172.68,44,215.87,27.64C490.93,1093.76,502.22,1064.75,507.12,1030.48Z"/><path class="cls-2" d="M281.25,1084.52c-30.48,0-61.95-19.69-89.72-37.07q-3.94-2.48-7.77-4.84c-15.6-9.67-52.16-51.62-93.14-106.87-40-53.92-70.94-102.66-77-121.3-13.35-41-3.31-85.86,7.47-116.28,6-16.95,19.5-31.93,40.12-44.55,17.14-10.48,34.52-16.45,42.87-19.32l1.83-.63,3.62-1.29c13.2-4.78,44.1-16,84.17-16,3.85,0,7.75.1,11.58.31a126.94,126.94,0,0,1,69.11,24.47c15.82,11.72,24.94,24.29,32.27,34.39a130.24,130.24,0,0,1,22.79,53.69c1.38,7.86,2.74,17,4.31,27.61,1.91,12.85,4.28,28.84,7.51,47.92,9.94,58.7,13.09,154.53,13.82,182.5a125.59,125.59,0,0,1-1.15,21c-4.83,33.73-15.25,58.93-50.38,72.27A62.65,62.65,0,0,1,281.25,1084.52Z"/><path d="M193.69,623.65c3.72,0,7.49.1,11.19.3A119.75,119.75,0,0,1,270.07,647c14.93,11.06,23.69,23.13,30.73,32.83a123,123,0,0,1,21.51,50.69c1.37,7.77,2.72,16.88,4.28,27.42,1.92,12.88,4.29,28.91,7.54,48.07,9.86,58.23,13,153.63,13.72,181.48a118.71,118.71,0,0,1-1.08,19.74c-2.6,18.13-6.54,30.7-12.77,40.76-7.2,11.64-18,20.06-33,25.76a54.49,54.49,0,0,1-19.73,3.53c-28.41,0-58.94-19.11-85.88-36q-4-2.49-7.8-4.86c-14.66-9.08-51.29-51.29-91.14-105-39-52.52-70.18-101.55-75.94-119.23-7-21.56-11.44-58.43,7.41-111.63,5.43-15.34,17.9-29.06,37.07-40.79,16.47-10.07,33.34-15.86,41.45-18.65l1.86-.64c1-.36,2.28-.81,3.7-1.32,12.84-4.64,42.91-15.52,81.71-15.52m0-14.47c-45.38,0-78.94,13.75-90.16,17.65-14.37,5-73.23,23.65-89.27,68.91C2.69,728.4-7,774.53,6.73,816.68S143.46,1026.15,180,1048.75c29.56,18.31,65.68,43,101.29,43a69.5,69.5,0,0,0,24.87-4.47c38.77-14.72,50.06-43.73,55-78a132.55,132.55,0,0,0,1.22-22.17c-.81-31-4-124.86-13.92-183.52-5.85-34.54-8.72-57.87-11.83-75.57a136.87,136.87,0,0,0-24.05-56.69c-8.16-11.23-17.59-23.92-33.82-36a134.74,134.74,0,0,0-73-25.89q-6.1-.32-12-.32Z"/><ellipse class="cls-3" cx="120.92" cy="754.93" rx="96.34" ry="76.98" transform="translate(-638.72 668.4) rotate(-74.4)"/><ellipse class="cls-3" cx="178.56" cy="913.31" rx="69.02" ry="55.15" transform="translate(-749.12 839.7) rotate(-74.4)"/><ellipse class="cls-3" cx="269.79" cy="995.17" rx="54.31" ry="43.4" transform="translate(-761.27 987.42) rotate(-74.4)"/><ellipse class="cls-4" cx="116.18" cy="753.61" rx="36" ry="26.18" transform="translate(-640.91 662.86) rotate(-74.4)"/><ellipse class="cls-4" cx="175.47" cy="915.3" rx="31.08" ry="22.6" transform="translate(-707.27 616.42) rotate(-60.44)"/><ellipse class="cls-4" cx="268.8" cy="998.73" rx="23.02" ry="16.75" transform="translate(-732.56 739.88) rotate(-60.44)"/><path class="cls-5" d="M318.59,933.09s-4.76-27.13-44.28-26c-2-17.23-3.38-62.7-68.78-76.83,7.33-13.28,50.64-67.34,20.84-141.82,21.22-2.83,34.47-5,49.62,31.37S323.32,926.62,318.59,933.09Z"/><line class="cls-6" x1="482.45" y1="748.39" x2="334.89" y2="719.99"/><line class="cls-6" x1="420.72" y1="653.77" x2="256.46" y2="622.14"/><polyline class="cls-6" points="233.04 617.63 189.45 609.24 189.43 609.24"/><line class="cls-6" x1="497.9" y1="848.65" x2="350.92" y2="820.34"/><line class="cls-6" x1="505.9" y1="946.03" x2="359.47" y2="917.83"/><line class="cls-6" x1="504.72" y1="1044.15" x2="359.97" y2="1016.29"/></svg>