<svg id="Layer_1" data-name="Layer 1" xmlns="http://www.w3.org/2000/svg" xmlns:xlink="http://www.w3.org/1999/xlink" viewBox="0 0 1500 1500"><defs><style>.cls-1{fill:#88cc3f;}.cls-2{fill:#fbfcfa;opacity:0.17;}.cls-3,.cls-64{fill:#353535;}.cls-3,.cls-31,.cls-32,.cls-64{stroke:#000;stroke-linejoin:round;}.cls-3{stroke-width:1.67px;}.cls-10,.cls-4,.cls-60{fill:#4d4d4d;}.cls-5{fill:#b3b3b3;}.cls-6{fill:#f9f7f7;opacity:0.41;}.cls-7{fill:#d3161d;}.cls-58,.cls-8{fill:#77401b;}.cls-28,.cls-29,.cls-33,.cls-34,.cls-58,.cls-66,.cls-8{stroke:#070707;}.cls-10,.cls-23,.cls-24,.cls-25,.cls-26,.cls-27,.cls-28,.cls-29,.cls-33,.cls-34,.cls-43,.cls-57,.cls-58,.cls-59,.cls-60,.cls-65,.cls-66,.cls-8,.cls-9{stroke-miterlimit:10;}.cls-8,.cls-9{stroke-width:2px;}.cls-11,.cls-59,.cls-9{fill:#f8c946;}.cls-59,.cls-9{stroke:#020202;}.cls-10,.cls-60{stroke:#151616;}.cls-10{stroke-width:5.19px;}.cls-12{fill:#683919;}.cls-13,.cls-34{fill:#945320;}.cls-14{fill:#7f1119;}.cls-15{fill:#5e0e18;}.cls-16{fill:#352f49;}.cls-17{fill:#e41e00;}.cls-18{fill:#fffe28;}.cls-19{fill:#18ff08;}.cls-20{fill:#dbdddd;}.cls-21{fill:#0fb0db;}.cls-22{fill:#303435;}.cls-23,.cls-24,.cls-25,.cls-26,.cls-27,.cls-57{stroke:#0a0a0a;}.cls-23,.cls-24,.cls-25,.cls-26,.cls-27{stroke-width:0.89px;}.cls-23{fill:url(#radial-gradient);}.cls-24,.cls-28,.cls-29,.cls-66{fill:none;}.cls-25{fill:url(#radial-gradient-2);}.cls-26{fill:url(#radial-gradient-3);}.cls-27{fill:url(#radial-gradient-4);}.cls-28{stroke-width:1.14px;}.cls-29{stroke-width:2.28px;}.cls-30{fill:#161616;}.cls-31{fill:#515051;stroke-width:2.27px;}.cls-32{fill:#8e8a8b;}.cls-32,.cls-33,.cls-34{stroke-width:1.97px;}.cls-33{fill:#e2b647;}.cls-35{fill:#3a3a3a;}.cls-36{fill:#666;}.cls-37{fill:#aa161d;}.cls-38{fill:#dddbd7;}.cls-39{fill:#212121;}.cls-40{fill:#282828;}.cls-41{fill:#7c7c7c;}.cls-42{fill:#389cce;}.cls-43{fill:#f2f0f0;stroke:#161616;}.cls-44{fill:#252735;}.cls-45{fill:#393d51;}.cls-46{fill:#cac8c8;}.cls-47{fill:#fff;}.cls-48{fill:#383838;}.cls-49{fill:#313131;}.cls-50{fill:#252424;}.cls-51{fill:#4b4d5c;}.cls-52{fill:#b10e0e;}.cls-53{fill:#121214;}.cls-54{fill:#e90f0f;}.cls-55{fill:#16a5a1;}.cls-56{fill:#10e8e8;}.cls-57{fill:#494949;}.cls-57,.cls-58,.cls-59{stroke-width:2.41px;}.cls-60{stroke-width:6.24px;}.cls-61{fill:#2d2d2d;}.cls-62{fill:#070707;}.cls-63{fill:#333;}.cls-64{stroke-width:1.67px;}.cls-65{fill:#adadad;stroke:#080000;stroke-width:2.28px;}.cls-66{stroke-width:3.5px;}</style><radialGradient id="radial-gradient" cx="-2855.14" cy="864.6" r="13.87" gradientTransform="translate(1752.07 3669.22) rotate(90)" gradientUnits="userSpaceOnUse"><stop offset="0.2" stop-color="#666"/><stop offset="0.57" stop-color="#585858"/><stop offset="1" stop-color="#4d4d4d"/></radialGradient><radialGradient id="radial-gradient-2" cx="-2911.28" cy="1001.8" r="13.87" gradientTransform="translate(1828.64 3860.64) rotate(90)" xlink:href="#radial-gradient"/><radialGradient id="radial-gradient-3" cx="-2853.56" cy="998.39" r="13.87" gradientTransform="translate(1883.03 3801.41) rotate(90)" xlink:href="#radial-gradient"/><radialGradient id="radial-gradient-4" cx="-2905.41" cy="866.94" r="13.87" gradientTransform="translate(1704.1 3720.18) rotate(90)" xlink:href="#radial-gradient"/></defs><title>music</title><rect class="cls-1" width="1500" height="1500"/><polygon class="cls-2" points="1206.15 0 0 909.68 0 1500 557.73 1500 1500 201.05 1500 0 1206.15 0"/><path class="cls-3" d="M1150.08,1112.09a144.35,144.35,0,0,0-5.22-23.67c-9.94-32.32-40.86-130.16-68.53-188.93-16.29-34.62-26.16-58.31-34.63-76a149.44,149.44,0,0,0-42-52.56c-11.87-9.41-25.51-20-46.13-27.88-26.89-10.29-55.92-9.91-84.41-5.78-71,10.29-109.12,12-123,16.48-13.65,9.48-72,71.8-75.53,124.12-2.58,37.74.77,89.11,27.59,129.41s135,233.67,181.76,237.33c54.56,4.27,194.56-4.39,235.17-34.31C1151.63,1183.41,1155,1149.58,1150.08,1112.09Z"/><path class="cls-4" d="M903,1238.46c-26.16,0-54.69-8.42-79.86-15.85l-9.59-2.81c-19.25-5.58-70-39-129.35-85-57.9-45-104.76-87.15-116.62-105-26.08-39.19-28.69-89.33-26.29-124.49,1.34-19.59,11.14-39.31,29.12-58.64,15-16.06,31.47-27.44,39.42-32.91l1.74-1.2,3.42-2.42c14.15-10.09,47.3-33.72,96.12-44.57a144.28,144.28,0,0,1,31.19-3.44A135.74,135.74,0,0,1,791,771c20.07,7.68,33.36,18.22,44,26.69a142.28,142.28,0,0,1,39.72,49.78c3.77,7.87,7.88,17.09,12.65,27.77,5.78,13,13,29.08,22,48.2,27.69,58.82,59.14,158.69,68.12,187.89a136,136,0,0,1,4.94,22.38c4.83,36.89,1.28,66.45-31.76,90.8-12.74,9.39-28.34,14-47.67,14Z"/><path d="M742.29,770a127.65,127.65,0,0,1,45.86,8.37c18.94,7.25,31.7,17.37,42,25.5a134.22,134.22,0,0,1,37.51,47c3.72,7.77,7.81,17,12.55,27.58,5.8,13,13,29.15,22,48.35,27.47,58.35,58.78,157.77,67.72,186.85a127.78,127.78,0,0,1,4.66,21.07c2.6,19.83,2.15,34.21-1.45,46.63-4.16,14.35-13,26.39-27.17,36.79-11.33,8.35-25.39,12.41-43,12.41-25,0-53-8.24-77.62-15.52l-9.63-2.83c-18.09-5.24-69-38.88-126.71-83.7-56.39-43.8-103.63-86.19-114.88-103.1-13.72-20.62-29.19-58.1-25-119.59,1.21-17.73,10.3-35.82,27-53.79,14.36-15.43,30.4-26.47,38.11-31.78l1.78-1.22c1-.69,2.16-1.53,3.5-2.48,13.76-9.81,46-32.79,93.24-43.29A136.14,136.14,0,0,1,742.29,770m0-15.8a151.82,151.82,0,0,0-32.91,3.63C654.5,770,618.63,798,607.06,806.05c-13.65,9.48-70.09,46.38-73.66,98.7-2.58,37.74.78,89.1,27.6,129.41s205.31,180.17,250.34,193.22c27.89,8.09,60.91,19,91.65,19,18.88,0,36.9-4.11,52.35-15.49,36.46-26.87,39.82-60.7,34.92-98.18A144.26,144.26,0,0,0,985,1109c-9.94-32.32-40.85-130.16-68.52-188.93-16.3-34.62-26.17-58.31-34.64-76a149.2,149.2,0,0,0-42-52.55c-11.87-9.42-25.51-20-46.12-27.89a144,144,0,0,0-51.51-9.41Z"/><ellipse class="cls-5" cx="662.97" cy="935.68" rx="84.06" ry="105.21"/><ellipse class="cls-5" cx="770.1" cy="1085.33" rx="60.23" ry="75.37"/><ellipse class="cls-5" cx="890.09" cy="1144.64" rx="47.39" ry="59.31"/><path class="cls-6" d="M1076.33,899.49l-37.11-39.56-1.06,89.68s-67.53-124.32-66.47-119.13S992,906.36,992,906.36l-44.92-46.43,19.3,75.75L918.94,890l10.55,38.54L910.89,908,992,1040.89,973.8,975l51.7,65.9-16.88-78.61,43.26,59.08,1-85.76L1074.55,975l-21.62-78.61,32.71,61.68Z"/><polygon class="cls-6" points="881.21 735.76 937.48 764.05 881.21 749.91 925.16 779.4 842.7 748.54 858.32 764.05 800.48 746.07 881.21 735.76"/><ellipse class="cls-7" cx="657.59" cy="935.68" rx="28.59" ry="39.31"/><ellipse class="cls-7" cx="767.42" cy="1088.33" rx="33.94" ry="24.68" transform="translate(-473.89 1570.57) rotate(-76.04)"/><ellipse class="cls-7" cx="890.09" cy="1148.68" rx="25.14" ry="18.29" transform="translate(-439.38 1735.41) rotate(-76.04)"/><path class="cls-8" d="M1111.56,829.8l-8.82,50.63-1,5.6a34.2,34.2,0,0,1-2,5.55,39.26,39.26,0,0,1-6.36,9.65c-11.35,12.81-30.89,20.09-47.46,21-25.41,1.47-41-19.33-53.67-38.51-3.75-5.64-125.72-169-126.76-170.4a28.19,28.19,0,0,1-2.48-4c-3-5.38-4.14-9.88-3.8-13.7,0-.33.06-.66.11-1s.07-.45.12-.67L867,651.59Z"/><path class="cls-9" d="M1107.24,849.55a39,39,0,0,1-6.37,9.65c-11.34,12.81-30.88,20.09-47.46,21-25.4,1.47-40.94-19.33-53.67-38.51C996,836.1,874,672.73,873,671.34a28.19,28.19,0,0,1-2.48-4c-9.23-16.29-.48-24.51,11.08-30.15,11.31-5.52,23.14,1.15,32,8.16,23.28,18.35,44.86,39.72,67.33,59.43,36.27,31.83,73.85,62.48,108.76,95.82,7.49,7.15,16.83,14.64,19.43,25.18A35.36,35.36,0,0,1,1107.24,849.55Z"/><circle class="cls-10" cx="1057.83" cy="834.31" r="24"/><path class="cls-11" d="M989.81,674.59s-200.51-96.21-290.64-112c0,0-242.42-13.09-451.17.39C272.67,581.29,484.18,669,514.18,675S909.6,686.23,989.81,674.59Z"/><path class="cls-12" d="M580,652.59s-81.52-48-89.81-50.69,156.53-8.07,156.53-8.07S725.9,639,731.21,644,580,652.59,580,652.59Z"/><path class="cls-13" d="M245.41,562.44S226,907.78,251.72,995.15c25.76,21.85,203.69,102.48,260.6,102.48,6.41-39.59,15-394.33-.72-423.15C490.45,657.94,332.12,587.07,245.41,562.44Z"/><path class="cls-7" d="M989.81,674.59s6.44,176.51,0,306c-2.48,49.91-50.51,98.38-58.59,100.25-18.27,16.73-436.62,26.29-461.48,9.49,0,0,46.54-36.69,46-105.5-.6-86-3.92-206.29-4.19-310.37C527.14,666.44,914.76,663.28,989.81,674.59Z"/><path class="cls-14" d="M615.18,778.59l275.34-6.43a20.49,20.49,0,0,1,21,21.17l-5.39,163.35a20.5,20.5,0,0,1-20,19.81L610.43,983a20.49,20.49,0,0,1-21-21.21l5.71-163.37A20.49,20.49,0,0,1,615.18,778.59Z"/><path class="cls-15" d="M610.75,786.54l275.94-7A15.94,15.94,0,0,1,903,796l-5.42,164.21A15.94,15.94,0,0,1,882.1,975.6L606.19,983a15.94,15.94,0,0,1-16.36-16.46L595.22,802A16,16,0,0,1,610.75,786.54Z"/><path class="cls-16" d="M788.37,865l-169.8,2.76a10.27,10.27,0,0,1-10.31-10.18l2-48.3a10.28,10.28,0,0,1,10.18-10.31l169.8-2.76a10.28,10.28,0,0,1,10.32,10.18l-2,48.29A10.28,10.28,0,0,1,788.37,865Z"/><ellipse class="cls-17" cx="647.75" cy="833.24" rx="24.79" ry="19.84" transform="matrix(0.01, -1, 1, 0.01, -191.12, 1473.68)"/><ellipse class="cls-18" cx="707.64" cy="831.77" rx="24.79" ry="19.84" transform="translate(-130.28 1532.11) rotate(-89.5)"/><ellipse class="cls-19" cx="766.3" cy="832.07" rx="24.79" ry="19.84" transform="translate(-72.44 1591.07) rotate(-89.5)"/><path class="cls-20" d="M754.18,906.9l-133.69,2.78a10.69,10.69,0,0,1-10.7-10.63h0a10.68,10.68,0,0,1,10.62-10.7l133.69-2.78a10.7,10.7,0,0,1,10.71,10.63h0A10.7,10.7,0,0,1,754.18,906.9Z"/><path class="cls-21" d="M677.76,972.87l-59.39.89a10.7,10.7,0,0,1-10.7-10.63h0a10.7,10.7,0,0,1,10.62-10.7l59.39-.89a10.7,10.7,0,0,1,10.7,10.63h0A10.7,10.7,0,0,1,677.76,972.87Z"/><path class="cls-21" d="M678.74,943l-59.38.89a10.7,10.7,0,0,1-10.7-10.63h0a10.69,10.69,0,0,1,10.62-10.7l59.38-.89a10.7,10.7,0,0,1,10.71,10.62h0A10.7,10.7,0,0,1,678.74,943Z"/><polygon class="cls-22" points="819.28 797.13 900.51 794.59 895 961.41 812.96 962.98 819.28 797.13"/><ellipse class="cls-23" cx="886.35" cy="813.57" rx="10.27" ry="8.86" transform="translate(43.96 1672.59) rotate(-88.11)"/><path class="cls-24" d="M886.69,803.31s3.5,12.81-1.24,20.51"/><path class="cls-24" d="M877.49,813.28s11.28,3,17.72.59"/><ellipse class="cls-25" cx="825.72" cy="948.85" rx="10.27" ry="8.86" transform="translate(-149.87 1742.79) rotate(-88.11)"/><path class="cls-24" d="M826.06,938.59s3.49,12.81-1.25,20.5"/><path class="cls-24" d="M816.86,948.56s11.28,3,17.72.58"/><ellipse class="cls-26" cx="883.52" cy="947.34" rx="10.27" ry="8.86" transform="translate(-92.47 1799.11) rotate(-88.11)"/><path class="cls-24" d="M883.86,937.08s3.5,12.81-1.25,20.5"/><path class="cls-24" d="M874.66,947.05s11.28,3,17.72.58"/><ellipse class="cls-27" cx="836.04" cy="814.26" rx="10.27" ry="8.86" transform="translate(-5.38 1622.96) rotate(-88.11)"/><path class="cls-24" d="M836.38,804s3.49,12.81-1.25,20.5"/><path class="cls-24" d="M827.18,814s11.28,3,17.72.58"/><path class="cls-28" d="M609.79,899.05s23.32-6.52,44.73,1.48,23-11.31,33-10.74,11.87,15.36,25.51,14.32,9.34-6.41,15.8-6.16,6.24,7,12.36,6.4,9.32-19.39,12.87-18.78"/><path class="cls-29" d="M716.71,565.8c51.14,7.53,273.1,108.79,273.1,108.79s8.43,288.09,0,306c-3.57,21-3.94,47.29-51.26,95.34-15.55,8-20,22.17-335.15,23.19"/><path class="cls-29" d="M536.49,556.85s-279.41.27-291.08,5.59c0,0-9.47,239.6-7,253.82"/><path class="cls-30" d="M632.47,314.53a24.35,24.35,0,0,1-3.63-3.69Z"/><path class="cls-31" d="M571.29,474.74l-2.41,130.2,114,3.28c19.07.35,35.09-28.5,35.76-64.45S704.4,478.37,685.32,478c-6.41-.12-12.47,3.06-17.75,8.71Z"/><polygon class="cls-32" points="684.8 377.03 655.59 415.24 624.64 414.67 641.45 376.23 684.8 377.03"/><path class="cls-30" d="M981.48,242.87c-2.23,34.79,16.78,73.75,6.4,110.23a33.48,33.48,0,0,1-27.55,24c-50.82,7.09-92,3.26-212.78-25.62l-36.09,65.17L623.82,313.05l-4.52-5.34h0a33.28,33.28,0,0,1-5.74-20.15c1.64-38.35,6.4-73.82,17.54-117.3a33.55,33.55,0,0,1,25.6-24.6c59.76-12.46,162.95-37.16,296.57-36.25,11.85.08,24.55,7.18,36,16l0,0L1053,184.57Z"/><polygon class="cls-33" points="718.7 377.66 599.92 375.46 604.73 556.39 717.39 555.85 718.7 377.66"/><polygon class="cls-34" points="510.72 427.76 544.53 509.11 604.73 556.39 599.92 375.46 510.72 427.76"/><path class="cls-30" d="M623.22,351.91a22,22,0,0,1-9.38-7.43Z"/><polygon class="cls-33" points="708.03 588.97 701.74 644 579.99 644 592.09 588.97 708.03 588.97"/><polygon class="cls-34" points="536.92 559.8 504.83 601.9 579.99 644 592.09 588.97 536.92 559.8"/><ellipse class="cls-35" cx="570.08" cy="539.83" rx="65.11" ry="34.56" transform="translate(19.77 1099.81) rotate(-88.94)"/><ellipse class="cls-36" cx="567.46" cy="543.36" rx="15.02" ry="32.5"/><path class="cls-7" d="M696.76,223.3s-37.33,3.65-56.27,4.24c10.94,52.82,23.41,92.88-4.33,168.08,52.29-6.29,53.05-3.26,53.05-3.26S669.45,312.46,696.76,223.3Z"/><polygon class="cls-37" points="696.76 223.3 643.89 175.14 602.31 178.49 652.09 226.97 696.76 223.3"/><line class="cls-30" x1="204.55" y1="428.01" x2="217.65" y2="439.91"/><path class="cls-30" d="M652.09,222.22,589,260.74A590.5,590.5,0,0,1,578.11,330a37.84,37.84,0,0,1-22.46,26.78C431.44,408,385.44,431.41,317.77,439.92l-29.63,64-70.48-64h0L204.55,428A37.52,37.52,0,0,1,198,408.26C194,306,208.61,229.55,219.59,189.08a37.79,37.79,0,0,1,31.72-27.6C369.76,146.44,484,143,558.4,148.65a37.64,37.64,0,0,1,25.39,12.57v0Z"/><path class="cls-38" d="M319.55,497.93c-3.48,0-7.06-.06-10.66-.18-12.48-.4-22.4-10.64-24.12-24.89-12.16-100.7,5.12-159.32,16.56-198.1,1.68-5.68,3.26-11.05,4.64-16.15a24.83,24.83,0,0,1,20.89-18.16c77.65-9.86,159-15.29,229.13-15.29,27.92,0,53.27.85,75.35,2.52a24.88,24.88,0,0,1,23,25.35c-1.18,54.57-6.06,100.45-14.91,140.26a24.94,24.94,0,0,1-14.79,17.65c-185.1,76.45-256,87-305.08,87Z"/><path class="cls-39" d="M556,238.08c27.59,0,52.62.83,74.37,2.48a12,12,0,0,1,11.06,12.19c-1.17,53.71-5.95,98.77-14.62,137.74a12,12,0,0,1-7.1,8.51c-183,75.59-252.42,86-300.15,86-3.34,0-6.78-.06-10.24-.17-7-.22-10.92-7-11.72-13.53-11.84-98.06,4.33-152.87,16.13-192.9,1.7-5.75,3.3-11.18,4.72-16.42a11.92,11.92,0,0,1,10-8.72c77.13-9.8,157.93-15.19,227.51-15.19m0-25.84c-66.65,0-147.66,4.84-230.76,15.4a37.79,37.79,0,0,0-31.73,27.59c-11,40.47-35.78,101.39-21.56,219.18,2.37,19.66,16.74,35.62,36.53,36.26,3.62.11,7.31.18,11.08.18,56.6,0,132.46-14.64,310-88A37.83,37.83,0,0,0,652,396.1c6.69-30.12,13.73-74.18,15.22-142.79a37.8,37.8,0,0,0-34.93-38.51c-22.22-1.69-48-2.56-76.33-2.56Z"/><path class="cls-40" d="M510.82,420.25c-41.2,0-75.57-34.84-78.24-79.32-1.35-22.53,5.54-44.17,19.4-60.93,13.69-16.55,32.57-26.34,53.15-27.57,1.46-.09,2.94-.14,4.39-.14,41.2,0,75.57,34.84,78.24,79.32,1.35,22.53-5.54,44.17-19.41,60.93-13.68,16.55-32.56,26.34-53.14,27.58C513.75,420.2,512.27,420.25,510.82,420.25Z"/><path class="cls-41" d="M509.53,263.13c35.47,0,65.08,30.37,67.41,69.13C578.13,352,572.11,371,560,385.63c-11.76,14.21-27.9,22.61-45.45,23.67-1.25.07-2.5.11-3.74.11-35.48,0-65.09-30.36-67.42-69.13-1.19-19.78,4.82-38.74,16.93-53.37,11.76-14.21,27.9-22.61,45.45-23.67,1.24-.07,2.5-.11,3.75-.11h0m0-21.67q-2.5,0-5,.15c-48.82,2.93-85.86,47.69-82.72,100,3,50.48,42.4,89.5,89.06,89.5q2.51,0,5-.15c48.82-2.93,85.86-47.69,82.72-100-3-50.48-42.4-89.51-89.06-89.5Z"/><ellipse class="cls-42" cx="520.49" cy="369.59" rx="28.05" ry="33.34" transform="translate(-21.23 31.88) rotate(-3.44)"/><polygon class="cls-30" points="713.69 408.26 689.21 392.36 685.3 370.72 710.51 372 713.69 408.26"/><path class="cls-38" d="M954.5,446.15c-64.45,0-136.1-13.82-225.49-43.49-3.07-1-13.14-5.61-13.93-22-.13-2.62-.27-5.36-.41-8.2-1.87-37-4.7-92.83,5.79-131.13a20.53,20.53,0,0,1,16-14.89c10.44-2,22.3-4.62,36-7.65,55.39-12.25,139.09-30.75,240.21-30.75,6.51,0,13.1.08,19.57.23,8.75.2,15.64,7.45,20.47,21.54,13.53,39.42,26.38,108.89,10.84,216-1,7-9.38,11.69-16.74,12.59q-5.85.72-11.88,1.5C1010.85,443,985.93,446.15,954.5,446.15Z"/><path class="cls-39" d="M1012.71,201c6.39,0,12.87.07,19.25.22.65,0,1.17,0,2.44,1.36s3.74,4.56,6.11,11.46c8.45,24.62,13.85,53.5,16.06,85.85,2.59,37.78.67,79.28-5.68,123.36a10.68,10.68,0,0,1-5.63,2.35c-3.93.48-7.9,1-12,1.5-23.69,3-48.2,6.15-78.81,6.15-28.7,0-58.41-2.8-90.84-8.56-39-6.93-82.95-18.46-130.58-34.27-3.45-1.15-4.9-6.29-5.1-10.35-.13-2.63-.27-5.38-.41-8.23-1.83-36.14-4.59-90.75,5.35-127.06a7.69,7.69,0,0,1,6-5.61c10.63-2,22.57-4.67,36.39-7.73C830.11,219.3,913,201,1012.7,201h0m0-25.84c-127,0-225.36,28.44-278.67,38.63a33.53,33.53,0,0,0-26,24.17c-11.85,43.29-7.67,105.51-5.83,143.37.73,15.06,8.46,28.86,22.77,33.61,105.36,35,176,44.15,229.56,44.15,37.69,0,66.94-4.54,93.91-7.85,13.16-1.61,26-10.43,27.95-23.56,14.31-98.64,5.47-172.84-11.41-222-5.48-16-15.49-29.87-32.38-30.27q-10.05-.24-19.88-.23Z"/><path class="cls-40" d="M857.14,409c-.8,0-1.6,0-2.41,0-21.19-.67-40.87-10.19-55.41-26.8-14.73-16.82-22.44-38.86-21.7-62.05a89.59,89.59,0,0,1,24.79-59.71c15-15.53,34.72-24.08,55.42-24.08.81,0,1.61,0,2.41,0,21.19.67,40.87,10.19,55.41,26.8,14.74,16.82,22.44,38.86,21.7,62.05a89.55,89.55,0,0,1-24.79,59.7C897.52,400.46,877.84,409,857.14,409Z"/><path class="cls-41" d="M857.83,247.47h0c.68,0,1.38,0,2.06,0,18.07.58,34.9,8.75,47.38,23,12.87,14.69,19.6,34,19,54.36a78.45,78.45,0,0,1-21.66,52.31c-12.92,13.34-29.76,20.69-47.42,20.69l-2.06,0c-18.06-.58-34.89-8.75-47.38-23-12.87-14.69-19.59-34-18.94-54.36a78.45,78.45,0,0,1,21.66-52.31c12.92-13.34,29.76-20.69,47.41-20.69m0-22.28c-49,0-89.65,41.75-91.34,94.57-1.72,53.82,37.63,98.74,87.88,100.35.93,0,1.85,0,2.77,0,49,0,89.66-41.75,91.35-94.57,1.72-53.82-37.63-98.74-87.89-100.35-.93,0-1.85,0-2.77,0Z"/><path class="cls-42" d="M895.48,352.33c-.29,18.92-12.67,34.12-28.6,33.88s-29.35-15.84-29.07-34.76c.33-21.2,10.51-34.12,29.36-33.83C883.09,317.86,895.77,333.4,895.48,352.33Z"/><path class="cls-43" d="M611.59,939a33.1,33.1,0,0,1-1,5.6Z"/><path class="cls-43" d="M368.21,753.28c0,.32-.08.65-.11,1l-.06,0Z"/><g id="Shape_37_copy" data-name="Shape 37 copy"><polygon class="cls-44" points="385.87 1056.24 377.42 1128.5 677.59 1262.57 1474.64 1116.45 1491.7 976.59 385.87 1056.24"/></g><g id="Shape_37" data-name="Shape 37"><polygon class="cls-45" points="1410.52 959.95 1389 977.57 1185.03 913.35 386.31 1055.71 594.84 1115.97 613.81 1096.87 693.48 1118.48 1491.81 975.95 1410.52 959.95"/></g><g id="Shape_43_copy" data-name="Shape 43 copy"><polygon class="cls-46" points="1227.17 1004.4 454.14 1046.1 453.58 1064.51 662.12 1129.5 1383.39 1047.54 1399.09 989.33 1227.17 1004.4"/></g><g id="Shape_43" data-name="Shape 43"><polygon class="cls-47" points="1174.05 918.88 454.17 1045.68 673.72 1118.89 1400.79 989.53 1174.05 918.88"/></g><g id="Shape_40_copy_4" data-name="Shape 40 copy 4"><polygon class="cls-48" points="630.63 1046.04 604.37 1053.73 728.06 1110.07 754.69 1103.02 757.12 1082.41 630.63 1046.04"/></g><g id="Shape_40_copy_4-2" data-name="Shape 40 copy 4"><polygon class="cls-49" points="604 1053.1 600.2 1073.83 727.97 1110.06 730.49 1089.46 604 1053.1"/></g><g id="Shape_41_copy_3" data-name="Shape 41 copy 3"><polygon class="cls-50" points="730.49 1089.46 727.97 1110.06 754.9 1103.05 757.38 1082.73 730.49 1089.46"/></g><g id="Shape_40_copy_5" data-name="Shape 40 copy 5"><polygon class="cls-48" points="757.06 1023.69 730.8 1031.38 854.49 1087.72 881.12 1080.67 883.55 1060.06 757.06 1023.69"/></g><g id="Shape_40_copy_5-2" data-name="Shape 40 copy 5"><polygon class="cls-49" points="730.43 1030.75 726.62 1051.48 854.4 1087.71 856.92 1067.12 730.43 1030.75"/></g><g id="Shape_41_copy_4" data-name="Shape 41 copy 4"><polygon class="cls-50" points="856.92 1067.12 854.4 1087.71 881.33 1080.7 883.81 1060.38 856.92 1067.12"/></g><g id="Shape_40_copy_6" data-name="Shape 40 copy 6"><polygon class="cls-48" points="892.36 998.99 866.11 1006.67 989.79 1063.02 1016.42 1055.96 1018.86 1035.36 892.36 998.99"/></g><g id="Shape_40_copy_6-2" data-name="Shape 40 copy 6"><polygon class="cls-49" points="865.73 1006.05 861.93 1026.78 989.71 1063.01 992.22 1042.41 865.73 1006.05"/></g><g id="Shape_41_copy_5" data-name="Shape 41 copy 5"><polygon class="cls-50" points="992.22 1042.41 989.71 1063.01 1016.63 1056 1019.12 1035.68 992.22 1042.41"/></g><g id="Shape_40_copy_7" data-name="Shape 40 copy 7"><polygon class="cls-48" points="1027.67 974.29 1001.41 981.97 1125.1 1038.32 1151.73 1031.26 1154.16 1010.66 1027.67 974.29"/></g><g id="Shape_40_copy_7-2" data-name="Shape 40 copy 7"><polygon class="cls-49" points="1001.04 981.34 997.24 1002.08 1125.01 1038.31 1127.53 1017.71 1001.04 981.34"/></g><g id="Shape_41_copy_6" data-name="Shape 41 copy 6"><polygon class="cls-50" points="1127.53 1017.71 1125.01 1038.31 1151.94 1031.3 1154.42 1010.98 1127.53 1017.71"/></g><g id="Shape_40_copy_8" data-name="Shape 40 copy 8"><polygon class="cls-48" points="1171.44 950.62 1145.18 958.31 1268.87 1014.65 1295.5 1007.6 1297.93 986.99 1171.44 950.62"/></g><g id="Shape_40_copy_8-2" data-name="Shape 40 copy 8"><polygon class="cls-49" points="1144.81 957.68 1141.01 978.41 1268.78 1014.64 1271.3 994.04 1144.81 957.68"/></g><g id="Shape_41_copy_7" data-name="Shape 41 copy 7"><polygon class="cls-50" points="1271.3 994.04 1268.78 1014.64 1295.71 1007.63 1298.19 987.31 1271.3 994.04"/></g><g id="Shape_44" data-name="Shape 44"><polygon class="cls-44" points="695.93 1119.89 614.64 1096.21 589.33 1120.61 385.87 1056.24 375.29 1128.82 679.84 1265.67 1474.54 1117.09 1491.7 976.59 695.93 1119.89"/></g><g id="Shape_39" data-name="Shape 39"><polygon class="cls-51" points="1411.28 959.89 612.74 1097.7 695.73 1121.58 1493.4 976.8 1411.28 959.89"/></g><g id="Shape_42" data-name="Shape 42"><polygon class="cls-44" points="614.64 1096.21 606.84 1103.85 628.01 1113.31 644.28 1106.71 614.64 1096.21"/></g><g id="Shape_45" data-name="Shape 45"><polygon class="cls-44" points="545.5 1029.35 526.26 1032.16 611.14 1054.55 623.61 1050.92 545.5 1029.35"/></g><g id="Shape_45_copy" data-name="Shape 45 copy"><polygon class="cls-44" points="677.21 1005.93 657.97 1008.74 742.86 1031.13 755.33 1027.5 677.21 1005.93"/></g><g id="Shape_45_copy_2" data-name="Shape 45 copy 2"><polygon class="cls-44" points="807.23 982.3 787.99 985.11 872.88 1007.5 885.35 1003.87 807.23 982.3"/></g><g id="Shape_45_copy_3" data-name="Shape 45 copy 3"><polygon class="cls-44" points="947.82 956.53 928.58 959.33 1013.47 981.73 1025.94 978.1 947.82 956.53"/></g><g id="Shape_45_copy_4" data-name="Shape 45 copy 4"><polygon class="cls-44" points="1089.9 932.65 1070.66 935.46 1155.54 957.85 1168.01 954.22 1089.9 932.65"/></g><g id="Forma_1_copy" data-name="Forma 1 copy"><path class="cls-52" d="M1251.8,1087.49l-91.54,28.12c-11.09,3.18-20.08,14.79-20.08,25.93v97s-6.64-4.49-21.41-2.39c-21.7,3.09-39.29,19.81-39.29,37.36s17.59,28.28,39.29,25.19,37.62-19.29,37.62-36.83V1179c0-7.78,9.31-11.11,9.31-11.11l81-25.47s8.95-3,8.95,5.3v66.49s-8.24-4.76-23-3c-21.7,2.64-39.3,19-39.3,36.54s17.6,28.67,39.3,26,39.31-19,39.31-36.55V1101.9C1271.89,1090.76,1262.89,1084.31,1251.8,1087.49Z"/></g><path class="cls-53" d="M640.42,1031.78l-.1-1.37A3.76,3.76,0,0,1,640.42,1031.78Z"/><g id="Forma_1" data-name="Forma 1"><path class="cls-54" d="M1236.46,1089.19l-91.55,28.12c-11.09,3.18-20.08,14.8-20.08,25.93v97s-6.64-4.5-21.41-2.4c-21.7,3.1-39.29,19.82-39.29,37.36s17.59,28.28,39.29,25.2,37.62-19.3,37.62-36.83v-82.79c0-7.77,9.31-11.1,9.31-11.1l81-25.48s8.94-3,8.94,5.3V1216s-8.24-4.77-23-3c-21.7,2.64-39.3,19-39.3,36.55s17.6,28.66,39.3,26,39.31-19,39.31-36.55V1103.61C1256.54,1092.47,1247.55,1086,1236.46,1089.19Z"/></g><g id="Forma_1_copy-2" data-name="Forma 1 copy"><path class="cls-55" d="M1305.35,457.45l-91.55,28.12c-11.09,3.18-20.08,14.79-20.08,25.93v97s-6.64-4.49-21.41-2.39c-21.7,3.1-39.29,19.81-39.29,37.36s17.59,28.28,39.29,25.19,37.62-19.29,37.62-36.82V549c0-7.78,9.32-11.11,9.32-11.11l81-25.47s9-3,9,5.3v66.49s-8.25-4.76-23-3c-21.69,2.64-39.3,19-39.3,36.54s17.61,28.67,39.3,26,39.31-19,39.31-36.55V471.86C1325.43,460.72,1316.44,454.27,1305.35,457.45Z"/></g><g id="Forma_1-2" data-name="Forma 1"><path class="cls-56" d="M1290,459.15l-91.55,28.12c-11.09,3.18-20.08,14.8-20.08,25.93v97s-6.63-4.49-21.41-2.39c-21.69,3.09-39.29,19.81-39.29,37.36s17.6,28.27,39.29,25.19,37.63-19.3,37.63-36.83V550.71c0-7.78,9.31-11.11,9.31-11.11l80.95-25.48s9-3,9,5.31v66.49s-8.24-4.77-23-3c-21.69,2.65-39.29,19-39.29,36.55s17.6,28.66,39.29,26,39.31-19,39.31-36.55V473.57C1310.09,462.43,1301.09,456,1290,459.15Z"/></g><ellipse class="cls-57" cx="353.91" cy="689.39" rx="39.66" ry="33.72" transform="translate(-338.84 1036.67) rotate(-89.45)"/><path class="cls-58" d="M637.15,886.54,626,947.34l-1.24,6.72a41.43,41.43,0,0,1-2.45,6.66,47.17,47.17,0,0,1-7.76,11.53c-13.8,15.28-37.39,23.81-57.33,24.77-30.58,1.48-49-23.72-64.11-46.94-4.44-6.82-149.26-204.72-150.49-206.41a33.58,33.58,0,0,1-2.94-4.79c-3.61-6.51-4.87-11.94-4.41-16.53,0-.39.08-.79.14-1.17s.09-.54.15-.81l9.58-51Z"/><path class="cls-59" d="M631.72,910.25A47,47,0,0,1,624,921.78c-13.79,15.27-37.39,23.81-57.33,24.77-30.57,1.48-49-23.72-64.11-46.93C498.08,892.78,353.27,694.89,352,693.2a33,33,0,0,1-2.93-4.79c-10.92-19.7-.3-29.48,13.67-36.14,13.67-6.51,27.81,1.65,38.43,10.19,27.79,22.34,53.51,48.29,80.3,72.25,43.27,38.7,88.11,76,129.72,116.5,8.93,8.69,20.06,17.81,23.07,30.51C636.84,892.5,635.58,902,631.72,910.25Z"/><circle class="cls-60" cx="572.48" cy="891.35" r="28.87"/><path class="cls-53" d="M556.84,1061.7c-7.9,6.58-33.37.45-41.15-7.48-.84-.86-1.22-2.73-1.25-5.38v0l-.82-13.94,2.47-.41c5.57-30.49,20.15-61.1,23.32-65.58a44.78,44.78,0,0,1,21.8-5.31C562.06,980.82,564.75,1055.13,556.84,1061.7Z"/><path class="cls-61" d="M538.6,955.48s10.47,7.7,22.61,8.06c.84,17.27,2.82,82.38-5.09,89s-33.37.45-41.15-7.48S534.37,961.47,538.6,955.48Z"/><path class="cls-53" d="M659.57,1059.29c-1.63,10.15-24.84,22.3-35.91,21.45s-52-97.18-52.75-104.48l-.81-13.39,7.58,13.5a37.16,37.16,0,0,0,16.79-5.06c10,10.38,49.75,57.59,61.71,78.87l2.58-4.27.71,11.71v0Z"/><path class="cls-53" d="M716.94,1008.86c2,10.1-13.7,30.12-24,33.86s-84.48-65.24-91.56-74.49l-1.85.24.63-14.21,10.78,9a50,50,0,0,0,10.41-7.64c14.5,5.76,78.34,36,92.65,49.15l2-9.77,1.13,13.82Z"/><path class="cls-61" d="M570.1,962.88s12.55,1.76,23.56-5c12,12.45,66.72,77.82,65.1,88s-24.84,22.3-35.91,21.46S570.85,970.17,570.1,962.88Z"/><path class="cls-53" d="M692.18,975c-10.44,3.79-63.25-17-69.1-22.81a8.81,8.81,0,0,0,3.1-3.18l-.23.14-3.68-10.35,6,3.38a26.91,26.91,0,0,0-.12-5.75c13.29,5.28,54.8,4.86,70.29,10.15l5.7-5.42.87,14.09A19.21,19.21,0,0,1,692.18,975Z"/><path class="cls-61" d="M600.21,954.26a55.29,55.29,0,0,0,20.36-12.06C636.64,948.58,713.29,985,716,995s-13.41,30.57-23.84,34.38S603.91,960.59,600.21,954.26Z"/><path class="cls-61" d="M622.27,938.82s6.57-3.26,5.06-15.75c16.08,6.37,73.4,4.42,76.12,14.34s-1.64,20.42-12.08,24.22S628.12,944.58,622.27,938.82Z"/><path class="cls-53" d="M1046.2,976.06c-6.52,5.53-27.74.64-34.27-5.89-.71-.71-1-2.26-1.08-4.47v0l-.8-11.58,2.05-.36c4.39-25.39,16.27-51,18.87-54.71a37.21,37.21,0,0,1,18.08-4.59C1049.89,908.77,1052.72,970.53,1046.2,976.06Z"/><path class="cls-44" d="M1030.18,887.89s8.77,6.33,18.86,6.53c.84,14.35,3,68.46-3.52,74s-27.74.63-34.27-5.9S1026.71,892.9,1030.18,887.89Z"/><path class="cls-53" d="M1131.58,973.23c-1.27,8.45-20.47,18.74-29.68,18.12s-44-80.38-44.69-86.44l-.78-11.12,6.41,11.16a31,31,0,0,0,13.92-4.34c8.41,8.55,41.82,47.48,51.93,65.07l2.11-3.57.68,9.73v0Z"/><path class="cls-53" d="M1178.87,930.85c1.79,8.38-11.15,25.15-19.65,28.34s-70.75-53.56-76.71-61.2l-1.53.22.41-11.82,9,7.36a41.57,41.57,0,0,0,8.59-6.43c12.1,4.67,65.42,29.32,77.42,40.12l1.56-8.14,1,11.48Z"/><path class="cls-44" d="M1056.43,893.79s10.44,1.37,19.54-4.3c10.08,10.25,56.1,64.16,54.83,72.62s-20.47,18.74-29.69,18.12S1057.11,899.85,1056.43,893.79Z"/><path class="cls-53" d="M1158,902.91c-8.65,3.24-52.72-13.67-57.63-18.41a7.23,7.23,0,0,0,2.55-2.67l-.19.12-3.14-8.57,5,2.76a22.64,22.64,0,0,0-.15-4.78c11.09,4.28,45.6,3.6,58.52,7.88l4.69-4.55.84,11.7A16,16,0,0,1,1158,902.91Z"/><path class="cls-44" d="M1081.39,886.39a46.07,46.07,0,0,0,16.83-10.19c13.41,5.17,77.43,34.88,79.76,43.1s-10.9,25.53-19.54,28.77S1084.52,891.62,1081.39,886.39Z"/><path class="cls-44" d="M1099.61,873.38s5.43-2.76,4.08-13.14c13.41,5.17,61.06,3.1,63.39,11.32s-1.2,17-9.85,20.23S1104.51,878.12,1099.61,873.38Z"/><path class="cls-62" d="M1193.2,354.85c-4-4-9.62-5.85-15.09-6.59a50.74,50.74,0,0,0-18.45,1.13c-8.89,2.14-17.69,7-23,14.89a23.2,23.2,0,0,0-3.62,10.92c-.78,7.6.38,15.52,4.37,22.13a30.45,30.45,0,0,0,13.6,11.92c6.29,2.85,13.13,3.5,20,3.56,17.27.16,36.93-11.85,40.67-29.73a34.28,34.28,0,0,0,.3-6.95V305.89c0-3.71.1-7.41-.18-11.1-.13-1.67-.56-4.71,1.39-5.54,1.23-.52,2.79,0,4,.46a18.68,18.68,0,0,1,4.77,2.73c10.84,8.26,24.17,21.51,26.41,35.71.62,3.94-2.31,5.14-4,8.15-2.86,5.22,1.94,12.45,7.87,11.46,5.62-.95,9.38-7.13,12-11.64,12.22-21.05,15.16-48.08,2.52-69.51-3.7-6.27-9.66-10.63-15.44-14.83-7.37-5.38-15.29-10.1-22.55-15.55a51.78,51.78,0,0,1-15.15-18.49,34.9,34.9,0,0,1-2-5.13,18.15,18.15,0,0,0-1.61-4.08c-1.76-2.87-5.18-3.78-8.34-3-7.71,1.89-6,8.62-6,15.11v20.08l0,25.83,0,28.22,0,26.58,0,21.31v14C1195.08,355.64,1194,355.62,1193.2,354.85Z"/><path class="cls-63" d="M1190.69,352.17c-4-4-9.61-5.86-15.09-6.59a50.68,50.68,0,0,0-18.44,1.13c-8.9,2.14-17.69,7-23,14.89a23.18,23.18,0,0,0-3.61,10.92c-.79,7.6.38,15.52,4.36,22.13a30.53,30.53,0,0,0,13.61,11.92c6.28,2.85,13.13,3.49,20,3.56,17.27.16,36.92-11.85,40.66-29.73a33.61,33.61,0,0,0,.3-6.95V303.21c0-3.71.1-7.41-.18-11.11-.12-1.66-.56-4.7,1.39-5.53,1.23-.52,2.79,0,4,.46a18.33,18.33,0,0,1,4.76,2.73c10.85,8.26,24.18,21.51,26.41,35.71.62,3.94-2.31,5.14-4,8.15-2.85,5.21,1.94,12.45,7.87,11.45,5.63-.94,9.38-7.13,12-11.63,12.22-21.05,15.15-48.09,2.51-69.52-3.7-6.26-9.66-10.62-15.43-14.83-7.37-5.37-15.3-10.09-22.56-15.54a51.74,51.74,0,0,1-15.14-18.49,35,35,0,0,1-2-5.13,17.69,17.69,0,0,0-1.61-4.08c-1.76-2.87-5.18-3.78-8.33-3-7.72,1.89-6,8.62-6,15.11l0,20.08,0,25.83,0,28.22v26.57l0,21.32v13.95C1192.57,353,1191.47,352.94,1190.69,352.17Z"/><path class="cls-64" d="M620.72,1177.7a144.15,144.15,0,0,0-5.23-23.67c-9.94-32.32-40.85-130.16-68.52-188.93-16.3-34.62-26.17-58.31-34.64-76a149.33,149.33,0,0,0-42-52.56c-11.87-9.41-25.51-20-46.12-27.88-26.89-10.29-55.92-9.91-84.42-5.78-71,10.29-109.12,12-123,16.48-13.66,9.48-72,71.8-75.54,124.12-2.58,37.74.78,89.1,27.59,129.41s135,233.67,181.77,237.33c54.56,4.27,194.55-4.39,235.16-34.31C622.26,1249,625.62,1215.19,620.72,1177.7Z"/><path class="cls-4" d="M373.62,1304.07c-26.15,0-54.68-8.42-79.86-15.85q-4.87-1.44-9.59-2.81c-19.25-5.58-70-39-129.35-85.05-57.89-45-104.76-87.15-116.61-105-26.08-39.19-28.7-89.33-26.29-124.5,1.33-19.58,11.13-39.3,29.11-58.63C56,896.2,72.51,884.82,80.45,879.35l1.75-1.2,3.42-2.42c14.15-10.09,47.3-33.72,96.11-44.57a144.35,144.35,0,0,1,31.19-3.44,135.7,135.7,0,0,1,48.69,8.89c20.08,7.68,33.36,18.22,44,26.69a142.31,142.31,0,0,1,39.73,49.78c3.76,7.87,7.88,17.09,12.64,27.77,5.78,12.95,13,29.07,22,48.2,27.68,58.82,59.14,158.69,68.12,187.89a137,137,0,0,1,4.94,22.38c4.83,36.89,1.27,66.45-31.77,90.8-12.74,9.39-28.33,14-47.66,14Z"/><path d="M212.92,835.62A127.74,127.74,0,0,1,258.79,844c18.94,7.24,31.7,17.37,41.95,25.5a134.22,134.22,0,0,1,37.51,47c3.72,7.77,7.82,17,12.56,27.58,5.79,13,13,29.15,22,48.35,27.47,58.34,58.78,157.76,67.72,186.85a129.62,129.62,0,0,1,4.66,21.07c2.59,19.83,2.14,34.21-1.46,46.63-4.16,14.35-13,26.39-27.16,36.79-11.34,8.35-25.4,12.41-43,12.41-25,0-53-8.24-77.62-15.52q-4.9-1.45-9.63-2.83c-18.09-5.24-69-38.88-126.71-83.7C103.27,1150.32,56,1107.93,44.78,1091c-13.71-20.62-29.18-58.1-25-119.59,1.21-17.73,10.3-35.82,27-53.79,14.36-15.43,30.4-26.47,38.11-31.78l1.77-1.22,3.5-2.48c13.77-9.81,46-32.79,93.24-43.29a136.21,136.21,0,0,1,29.48-3.25m0-15.8a151.66,151.66,0,0,0-32.9,3.63c-54.88,12.2-90.75,40.18-102.33,48.21C64,881.14,7.61,918,4,970.36c-2.58,37.74.77,89.1,27.59,129.41S237,1279.94,282,1293c27.89,8.09,60.91,19,91.65,19,18.89,0,36.91-4.11,52.36-15.49,36.46-26.87,39.81-60.7,34.91-98.18a144.24,144.24,0,0,0-5.22-23.68c-9.94-32.32-40.86-130.16-68.53-188.93-16.3-34.62-26.16-58.31-34.64-76a149.3,149.3,0,0,0-41.94-52.56c-11.87-9.41-25.51-20-46.13-27.88a144,144,0,0,0-51.51-9.41Z"/><ellipse class="cls-5" cx="133.6" cy="1001.29" rx="84.06" ry="105.21"/><ellipse class="cls-5" cx="240.73" cy="1150.94" rx="60.23" ry="75.37"/><ellipse class="cls-5" cx="360.73" cy="1210.25" rx="47.39" ry="59.31"/><ellipse class="cls-7" cx="128.23" cy="1001.29" rx="28.59" ry="39.31"/><ellipse class="cls-7" cx="238.06" cy="1153.94" rx="33.94" ry="24.68" transform="translate(-939.23 1106.62) rotate(-76.04)"/><ellipse class="cls-7" cx="360.73" cy="1214.29" rx="25.14" ry="18.29" transform="translate(-904.72 1271.46) rotate(-76.04)"/><path class="cls-65" d="M393.82,1130.62s-13-27.13-54.21-14.32c-7.18-17.53-22-65-94.89-60.62,3.81-16.12,33.48-85.7-19.73-155.27,21.49-9.21,34.79-15.35,61.39,18.41S396.89,1122.44,393.82,1130.62Z"/><line class="cls-66" x1="511.93" y1="888.25" x2="348.39" y2="901.71"/><line class="cls-66" x1="419.21" y1="806.86" x2="237.16" y2="821.82"/><polyline class="cls-66" points="211.21 823.96 162.89 827.93 162.88 827.93"/><line class="cls-66" x1="557.62" y1="989.16" x2="394.71" y2="1002.55"/><line class="cls-66" x1="594.63" y1="1089.24" x2="432.34" y2="1102.58"/><line class="cls-66" x1="622.2" y1="1192.79" x2="461.77" y2="1205.98"/></svg>