<svg id="Layer_1" data-name="Layer 1" xmlns="http://www.w3.org/2000/svg" viewBox="0 0 818.84 818.84"><defs><style>.cls-1{fill:#1db5bc;}.cls-2{fill:#28e1ea;}.cls-3{opacity:0.3;}.cls-4{fill:#020202;}.cls-5{fill:#fafbfc;}</style></defs><title>number 6</title><rect class="cls-1" width="818.84" height="818.84"/><path class="cls-2" d="M818.84,0V236.15C739.87,383,574.2,484.06,382.61,484.06c-155.4,0-293.75-66.51-382.61-170V0Z"/><g class="cls-3"><path class="cls-4" d="M533.36,276.79q-13.61-5-28.9-9.58t-30.17-7.81q-14.88-3.19-28.05-5t-22.53-2.49q-25.5-1.41-45.47,3.55t-34,12.43q-14,7.45-21.25,14.91t-7.22,11.71q0,5,9.77,3.2a223,223,0,0,0,22.95-5.68q13.17-3.9,27.2-8.17t22.52-4.26A476.9,476.9,0,0,1,477.69,286q37.8,6.39,66.29,24.5t45,50.05q16.58,31.95,16.58,82.36T589,527.42q-16.57,34.08-46.32,55t-70.12,30.17q-40.38,9.23-88.82,9.23-58.65,0-104.13-13.49T203.15,564.7q-31-30.18-47.18-79.17T139.82,366.25q0-77.38,19.13-128.51t54-81.29q34.85-30.18,84.15-42.25t109.64-12.07q40.8,0,71.83,4.26a413.18,413.18,0,0,1,54,10.65q22.95,6.39,38.67,13.85T598,144Zm-98.6,170.4q0-12.78-3.4-19.88a25.21,25.21,0,0,0-8.92-10.65,29.79,29.79,0,0,0-13.6-4.26q-8.08-.7-16.57-.71c-6.25,0-11.9.24-17,.71a29.1,29.1,0,0,0-13.18,4.26,25,25,0,0,0-8.92,10.65c-2.28,4.74-3.4,11.36-3.4,19.88s1.12,15.15,3.4,19.88a24.88,24.88,0,0,0,8.92,10.65A28.86,28.86,0,0,0,375.27,482c5.1.48,10.75.71,17,.71q8.48,0,16.57-.71a29.55,29.55,0,0,0,13.6-4.26,25.09,25.09,0,0,0,8.92-10.65Q434.75,460,434.76,447.19Z"/></g><path class="cls-5" d="M578.34,333q-13.61-5-28.9-9.58t-30.18-7.81q-14.88-3.19-28.05-5t-22.52-2.49q-25.5-1.41-45.47,3.55t-34,12.43q-14,7.46-21.25,14.91t-7.23,11.71q0,5,9.78,3.2a223,223,0,0,0,23-5.68q13.17-3.9,27.2-8.17t22.52-4.26a476.77,476.77,0,0,1,79.47,6.39q37.82,6.39,66.3,24.5t45,50.05q16.57,31.95,16.57,82.36T634,583.64q-16.57,34.08-46.32,55t-70.13,30.17q-40.38,9.23-88.82,9.23-58.65,0-104.12-13.49t-76.5-43.66q-31-30.18-47.17-79.17T184.8,422.47q0-77.37,19.12-128.51t54-81.29q34.85-30.18,84.15-42.25t109.64-12.07q40.8,0,71.82,4.26a413,413,0,0,1,54,10.65q22.95,6.39,38.67,13.85t26.78,13.13Zm-98.6,170.4q0-12.78-3.4-19.88a25.28,25.28,0,0,0-8.92-10.65,29.83,29.83,0,0,0-13.6-4.26q-8.1-.71-16.58-.71-9.36,0-17,.71a29.06,29.06,0,0,0-13.17,4.26,25.09,25.09,0,0,0-8.93,10.65q-3.4,7.11-3.4,19.88t3.4,19.88a25,25,0,0,0,8.93,10.65,28.82,28.82,0,0,0,13.17,4.26q7.65.72,17,.71,8.49,0,16.58-.71a29.59,29.59,0,0,0,13.6-4.26,25.16,25.16,0,0,0,8.92-10.65Q479.73,516.19,479.74,503.41Z"/><circle class="cls-2" cx="729.16" cy="708.7" r="19.51"/></svg>