<svg id="Layer_1" data-name="Layer 1" xmlns="http://www.w3.org/2000/svg" viewBox="0 0 818.84 818.84"><defs><style>.cls-1{fill:#1db5bc;}.cls-2{fill:#28e1ea;}.cls-3{opacity:0.3;}.cls-4{fill:#020202;}.cls-5{fill:#fafbfc;}</style></defs><title>number 5</title><rect class="cls-1" width="818.84" height="818.84"/><path class="cls-2" d="M818.84,0V236.15C739.87,383,574.2,484.06,382.61,484.06c-155.4,0-293.75-66.51-382.61-170V0Z"/><g class="cls-3"><path class="cls-4" d="M386.72,281.7v19.88h22.1A250.4,250.4,0,0,1,487.44,314q37.82,12.44,66.73,34.43a172.86,172.86,0,0,1,46.32,52.9q17.41,30.89,17.42,67.8,0,27-11.47,57.51t-37.82,56.8q-26.37,26.28-70.13,43.67T391,644.51a698.24,698.24,0,0,1-77.35-4.26q-38.25-4.26-71-10.65a533.23,533.23,0,0,1-56.52-13.84q-23.81-7.46-34.85-13.14l64.6-132.77a265.07,265.07,0,0,0,37,10.3q21.68,4.62,44.62,7.81t44.2,5q21.24,1.79,34.85,1.77,17,0,28.05-10.65t11.05-24.85q0-14.91-12.33-25.2t-30.17-10.3a345,345,0,0,0-45.9,3.2q-23.81,3.19-41.65,7.45l-82.44-61.06,27.2-241.4H591.56V281.7Z"/></g><path class="cls-5" d="M416.84,316.68v19.88h22.1A250.4,250.4,0,0,1,517.56,349q37.82,12.42,66.73,34.43a172.86,172.86,0,0,1,46.32,52.9Q648,467.21,648,504.12q0,27-11.47,57.51t-37.82,56.8q-26.36,26.28-70.13,43.67T421.09,679.49a697.93,697.93,0,0,1-77.34-4.26q-38.25-4.26-71-10.65a533.23,533.23,0,0,1-56.52-13.84q-23.81-7.46-34.85-13.14L246,504.83a266.46,266.46,0,0,0,37,10.3q21.67,4.62,44.62,7.81t44.2,5q21.24,1.77,34.85,1.77,17,0,28.05-10.65t11.05-24.85q0-14.91-12.32-25.2t-30.18-10.3a345,345,0,0,0-45.9,3.2q-23.8,3.19-41.64,7.45l-82.45-61.06,27.2-241.4H621.69V316.68Z"/><circle class="cls-2" cx="729.16" cy="708.7" r="19.51"/></svg>