<svg id="Layer_1" data-name="Layer 1" xmlns="http://www.w3.org/2000/svg" viewBox="0 0 818.84 818.84"><defs><style>.cls-1{fill:#1db5bc;}.cls-2{fill:#28e1ea;}.cls-3{opacity:0.3;}.cls-4{fill:#070707;}.cls-5{fill:#fafbfc;}</style></defs><title>number 9</title><rect class="cls-1" width="818.84" height="818.84"/><path class="cls-2" d="M818.84,0V236.15C739.87,383,574.2,484.06,382.61,484.06c-155.4,0-293.75-66.51-382.61-170V0Z"/><g class="cls-3"><path class="cls-4" d="M210.36,458.59a245.47,245.47,0,0,0,28.9,9.94q15.3,4.26,30.17,7.45t28.05,5q13.17,1.77,22.53,2.48,25.5,1.43,45.47-3.55t34-12.43q14-7.45,21.25-14.91T428,440.84q0-5-9.77-3.2a227,227,0,0,0-22.95,5.68Q382,447.24,368,451.49t-22.53,4.26a474.33,474.33,0,0,1-79.89-6.39Q228.2,443,199.73,424.87t-45-50.06q-16.58-31.95-16.58-82.36,0-49.69,16.58-84.14T201,152.94q29.75-20.94,70.12-30.18T360,113.53q58.65,0,104.13,13.49t76.49,43.67q31,30.18,47.18,79.16T603.9,369.13q0,78.11-19.13,128.86t-54,81q-34.86,30.18-84.15,42.24T337,633.25q-40.8,0-71.83-4.26a412.51,412.51,0,0,1-54-10.65q-23-6.39-38.67-13.85t-26.78-13.13ZM394,288.19q0-12.78-3.4-19.88a25.21,25.21,0,0,0-8.92-10.65A29.79,29.79,0,0,0,368,253.4q-8.08-.71-16.58-.71c-6.24,0-11.89.24-17,.71a29.1,29.1,0,0,0-13.18,4.26,25,25,0,0,0-8.92,10.65c-2.28,4.74-3.4,11.36-3.4,19.88s1.12,15.15,3.4,19.88a24.88,24.88,0,0,0,8.92,10.65A28.86,28.86,0,0,0,334.46,323c5.1.48,10.75.71,17,.71q8.49,0,16.58-.71a29.55,29.55,0,0,0,13.6-4.26,25.09,25.09,0,0,0,8.92-10.65Q393.94,301,394,288.19Z"/></g><path class="cls-5" d="M257.05,503.41a243.66,243.66,0,0,0,28.9,9.94q15.3,4.26,30.17,7.46t28.05,5q13.17,1.77,22.52,2.48,25.5,1.43,45.48-3.55t34-12.42q14-7.45,21.25-14.91c4.8-5,7.22-8.88,7.22-11.72,0-3.31-3.27-4.37-9.77-3.19a221.73,221.73,0,0,0-22.95,5.68q-13.2,3.9-27.2,8.16t-22.53,4.26a474.24,474.24,0,0,1-79.89-6.39q-37.41-6.39-65.88-24.49t-45-50.06q-16.56-32-16.57-82.36,0-49.69,16.57-84.13t46.33-55.38q29.74-20.94,70.12-30.18t88.82-9.23q58.65,0,104.12,13.49t76.5,43.67q31,30.18,47.18,79.16T650.58,414q0,78.1-19.12,128.87t-54,80.94Q542.63,653.94,493.34,666T383.69,678.07q-40.79,0-71.82-4.26a412.51,412.51,0,0,1-54-10.65q-22.95-6.39-38.68-13.84t-26.77-13.14ZM440.64,333q0-12.78-3.4-19.88a25.33,25.33,0,0,0-8.92-10.65,29.83,29.83,0,0,0-13.6-4.26q-8.09-.71-16.58-.71-9.36,0-17,.71A29.06,29.06,0,0,0,368,302.48,25.21,25.21,0,0,0,359,313.13q-3.41,7.11-3.4,19.88c0,8.52,1.13,15.16,3.4,19.88A25,25,0,0,0,368,363.54a28.71,28.71,0,0,0,13.17,4.26q7.65.72,17,.71,8.49,0,16.58-.71a29.47,29.47,0,0,0,13.6-4.26,25.09,25.09,0,0,0,8.92-10.65C439.5,348.17,440.64,341.53,440.64,333Z"/><circle class="cls-2" cx="729.16" cy="708.7" r="19.51"/></svg>