<svg id="Layer_1" data-name="Layer 1" xmlns="http://www.w3.org/2000/svg" viewBox="0 0 818.84 818.84"><defs><style>.cls-1{fill:#1db5bc;}.cls-2{fill:#28e1ea;}.cls-3{opacity:0.3;}.cls-4{fill:#050505;}.cls-5{fill:#fafbfc;}</style></defs><title>number 4</title><rect class="cls-1" width="818.84" height="818.84"/><path class="cls-2" d="M818.84,0V236.15C739.87,383,574.2,484.06,382.61,484.06c-155.4,0-293.75-66.51-382.61-170V0Z"/><g class="cls-3"><path class="cls-4" d="M370.72,638.73v-98h-249V518q0-36.9,12.32-67.45t29.33-65.31L281.47,134.62h204L335.87,402.3h45.05q10.2-43.31,46.75-84.49l48.45-55.38h81.6V391.64H630v149.1H557.72v98Z"/></g><path class="cls-5" d="M408.34,671V573h-249V550.27q0-36.9,12.33-67.45T201,417.5L319.1,166.87h204L373.49,434.54h45.05q10.2-43.29,46.75-84.49l48.45-55.38h81.6V423.89h72.24V573H595.34v98Z"/><circle class="cls-2" cx="729.16" cy="708.7" r="19.51"/></svg>