<svg id="Layer_1" data-name="Layer 1" xmlns="http://www.w3.org/2000/svg" viewBox="0 0 818.84 818.84"><defs><style>.cls-1{fill:#1db5bc;}.cls-2{fill:#28e1ea;}.cls-3{opacity:0.3;}.cls-4{fill:#0a0a0a;}.cls-5{fill:#fafbfc;}</style></defs><title>number 8</title><rect class="cls-1" width="818.84" height="818.84"/><path class="cls-2" d="M818.84,0V236.15C739.87,383,574.2,484.06,382.61,484.06c-155.4,0-293.75-66.51-382.61-170V0Z"/><g class="cls-3"><path class="cls-4" d="M540.91,361.82a157.47,157.47,0,0,1,42.93,48.64q15.72,28.05,15.72,62.12,0,53.25-17.85,87t-48,52.9q-30.18,19.15-70.55,26.26a493.28,493.28,0,0,1-85.42,7.1,498.32,498.32,0,0,1-86.27-7.1q-40.38-7.08-70.13-26.26t-46.74-52.9q-17-33.72-17-87,0-34.08,15.3-61.77a158,158,0,0,1,41.64-48.28,129.82,129.82,0,0,1-25.92-38.34q-8.92-20.58-8.92-47.57,0-47.55,15.72-77.39t42.5-45.79q26.78-16,62.9-21.65a494.82,494.82,0,0,1,76.92-5.69,489.22,489.22,0,0,1,76.07,5.69q36.12,5.69,63.32,21.65t43.35,45.79q16.14,29.84,16.15,77.39a117.2,117.2,0,0,1-8.92,45.09A127.42,127.42,0,0,1,540.91,361.82ZM424.47,472.58q0-13.47-3.4-21.3a25,25,0,0,0-9.78-11.71,37,37,0,0,0-14.87-5,163.94,163.94,0,0,0-37.4,0,37,37,0,0,0-14.88,5,24.89,24.89,0,0,0-9.77,11.71q-3.4,7.83-3.4,21.3t3.4,21.3a24.78,24.78,0,0,0,9.77,11.72,36.81,36.81,0,0,0,14.88,5,165.48,165.48,0,0,0,37.4,0,36.81,36.81,0,0,0,14.87-5,24.85,24.85,0,0,0,9.78-11.72Q424.46,486.08,424.47,472.58Zm-85-196c0,8.06,1,14.2,3,18.46a21.66,21.66,0,0,0,8.07,9.59,25.05,25.05,0,0,0,12.32,3.55c4.81.24,9.78.35,14.88.35s10-.11,14.87-.35a25.12,25.12,0,0,0,12.33-3.55,21.79,21.79,0,0,0,8.07-9.59c2-4.26,3-10.4,3-18.46s-1-14.2-3-18.45a21.79,21.79,0,0,0-8.07-9.59A25.23,25.23,0,0,0,392.59,245c-4.82-.23-9.77-.36-14.87-.36s-10.07.13-14.88.36a25.16,25.16,0,0,0-12.32,3.55,21.66,21.66,0,0,0-8.07,9.59C340.45,262.42,339.47,268.58,339.47,276.62Z"/></g><path class="cls-5" d="M568.14,394.07a157.21,157.21,0,0,1,42.92,48.64q15.72,28.05,15.73,62.12,0,53.25-17.85,87t-48,52.89Q530.73,663.87,490.37,671a493.4,493.4,0,0,1-85.43,7.1,498.48,498.48,0,0,1-86.27-7.1q-40.38-7.08-70.12-26.27T201.8,591.81q-17-33.72-17-87,0-34.08,15.3-61.77a157.9,157.9,0,0,1,41.65-48.28,130,130,0,0,1-25.93-38.34q-8.91-20.58-8.92-47.57,0-47.55,15.72-77.39t42.5-45.79q26.78-16,62.9-21.66a496.18,496.18,0,0,1,76.92-5.68A490.61,490.61,0,0,1,481,164q36.11,5.7,63.32,21.66t43.35,45.79q16.13,29.82,16.15,77.39A117.24,117.24,0,0,1,594.91,354,127.39,127.39,0,0,1,568.14,394.07ZM451.69,504.83q0-13.49-3.4-21.3a24.9,24.9,0,0,0-9.77-11.71,37,37,0,0,0-14.88-5,163.94,163.94,0,0,0-37.4,0,36.91,36.91,0,0,0-14.87,5,24.79,24.79,0,0,0-9.77,11.71q-3.42,7.83-3.4,21.3t3.4,21.3a24.77,24.77,0,0,0,9.77,11.72,36.91,36.91,0,0,0,14.87,5,165.48,165.48,0,0,0,37.4,0,37,37,0,0,0,14.88-5,24.88,24.88,0,0,0,9.77-11.72Q451.68,518.33,451.69,504.83Zm-85-196q0,12.08,3,18.46a21.79,21.79,0,0,0,8.07,9.59,25.2,25.2,0,0,0,12.33,3.55q7.21.36,14.87.35t14.88-.35a25.19,25.19,0,0,0,12.32-3.55,21.88,21.88,0,0,0,8.08-9.59q3-6.39,3-18.46t-3-18.46a21.85,21.85,0,0,0-8.08-9.58,25.19,25.19,0,0,0-12.32-3.55q-7.23-.36-14.88-.36t-14.87.36a25.2,25.2,0,0,0-12.33,3.55,21.76,21.76,0,0,0-8.07,9.58Q366.69,296.8,366.69,308.87Z"/><circle class="cls-2" cx="729.16" cy="708.7" r="19.51"/></svg>