<svg id="Layer_1" data-name="Layer 1" xmlns="http://www.w3.org/2000/svg" viewBox="0 0 818.84 818.84"><defs><style>.cls-1{fill:#1db5bc;}.cls-2{fill:#28e1ea;}.cls-3{opacity:0.3;}.cls-4{fill:#050505;}.cls-5{fill:#fafbfc;}</style></defs><title>number 2</title><rect class="cls-1" width="818.84" height="818.84"/><path class="cls-2" d="M818.84,0V236.15C739.87,383,574.2,484.06,382.61,484.06c-155.4,0-293.75-66.51-382.61-170V0Z"/><g class="cls-3"><path class="cls-4" d="M172,658.47l.85-106.5q.83-46.86,23.37-80.23a248.49,248.49,0,0,1,54.82-58.22q26.34-19.86,62.05-37.63t86.7-44q9.35-5,15.3-8.87c3.95-2.6,5.95-6.5,5.95-11.72a10,10,0,0,0-5.1-8.87,41.89,41.89,0,0,0-12.75-5A114.51,114.51,0,0,0,386.64,295c-5.95-.46-11.19-.71-15.72-.71q-17,0-36.55,1.78t-39.52,4.61q-20,2.85-37.83,7.1A287.74,287.74,0,0,0,225.57,317L169.48,184.19q11-6.39,34.42-13.13t52.27-12.43q28.89-5.67,60.35-9.23a526.27,526.27,0,0,1,58.65-3.55,340.2,340.2,0,0,1,85.42,10.65q41.22,10.65,73.1,30.89t51,49.34q19.13,29.13,19.12,66.74t-15.3,65.32a170.58,170.58,0,0,1-40.37,48.64,288.5,288.5,0,0,1-57.38,36.92q-32.31,16-66.29,30.88Q410,490.93,396.42,497t-28.05,12.42h249v149.1Z"/></g><path class="cls-5" d="M199.25,671l.85-106.5q.84-46.86,23.37-80.23A248.54,248.54,0,0,1,278.3,426q26.32-19.87,62.05-37.63t86.69-44q9.34-5,15.3-8.87t6-11.72a10,10,0,0,0-5.1-8.87,41.64,41.64,0,0,0-12.75-5,114.37,114.37,0,0,0-16.57-2.49c-5.95-.46-11.2-.71-15.73-.71q-17,0-36.55,1.78t-39.52,4.61q-20,2.85-37.82,7.1a285.54,285.54,0,0,0-31.45,9.23L196.7,196.69q11-6.39,34.42-13.13t52.28-12.43q28.88-5.67,60.35-9.23a526,526,0,0,1,58.64-3.55A340.2,340.2,0,0,1,487.81,169q41.22,10.65,73.1,30.89t51,49.34Q631,278.34,631,316t-15.29,65.32a170.45,170.45,0,0,1-40.38,48.64A288.87,288.87,0,0,1,518,466.85q-32.31,16-66.3,30.88-14.46,5.7-28.05,11.72l-28.05,12.42h249V671Z"/><circle class="cls-2" cx="729.16" cy="708.7" r="19.51"/></svg>