<svg id="Layer_1" data-name="Layer 1" xmlns="http://www.w3.org/2000/svg" viewBox="0 0 818.84 818.84"><defs><style>.cls-1{fill:#1db5bc;}.cls-2{fill:#28e1ea;}.cls-3{opacity:0.3;}.cls-4{fill:#070707;}.cls-5{fill:#fafbfc;}</style></defs><title>number 3</title><rect class="cls-1" width="818.84" height="818.84"/><path class="cls-2" d="M818.84,0V236.15C739.87,383,574.2,484.06,382.61,484.06c-155.4,0-293.75-66.51-382.61-170V0Z"/><g class="cls-3"><path class="cls-4" d="M291.67,428.93V338.76l59.5-52.54H185.43V137.12H590v106.5l-75.64,83.07q44.18,22.74,71.82,61.42a145.07,145.07,0,0,1,27.62,86.26q0,27-11.47,57.51t-37.82,56.8Q538.17,615,494.39,632.35T386.87,649.74a698.24,698.24,0,0,1-77.35-4.26q-38.24-4.26-71-10.65A533.23,533.23,0,0,1,182,621q-23.81-7.46-34.85-13.14l64.6-132.77a239.6,239.6,0,0,0,37,9.94q21.67,4.26,44.62,7.46t44.2,5q21.24,1.79,34.85,2.48,17-1.41,28.05-11.36t11-24.14q0-14.91-12.32-25.2T369,428.93Z"/></g><path class="cls-5" d="M329.3,458.68V368.51L388.79,316H223.05V166.87H627.64v106.5L552,356.44q44.19,22.74,71.82,61.42a145.08,145.08,0,0,1,27.63,86.26q0,27-11.48,57.51t-37.82,56.8Q575.79,644.71,532,662.1T424.49,679.49a698.06,698.06,0,0,1-77.34-4.26q-38.25-4.26-71-10.65a533.23,533.23,0,0,1-56.52-13.84q-23.81-7.46-34.85-13.14l64.6-132.77a239.6,239.6,0,0,0,37,9.94Q308,519,331,522.23t44.2,5Q396.43,529,410,529.68q17-1.41,28-11.36t11.05-24.14q0-14.91-12.32-25.2t-30.18-10.3Z"/><circle class="cls-2" cx="729.16" cy="708.7" r="19.51"/></svg>