<svg id="Layer_1" data-name="Layer 1" xmlns="http://www.w3.org/2000/svg" viewBox="0 0 818.84 818.84"><defs><style>.cls-1{fill:#1db5bc;}.cls-2{fill:#28e1ea;}.cls-3{opacity:0.3;}.cls-4{fill:#020202;}.cls-5{fill:#fafbfc;}</style></defs><title>number 7</title><rect class="cls-1" width="818.84" height="818.84"/><path class="cls-2" d="M818.84,0V236.15C739.87,383,574.2,484.06,382.61,484.06c-155.4,0-293.75-66.51-382.61-170V0Z"/><g class="cls-3"><path class="cls-4" d="M204.19,638.21v-32q0-37.62,9.35-68.87t30.6-64.61l122.4-189.57H148.1V134.11h459v76a60.85,60.85,0,0,1-5.52,25.56,258.24,258.24,0,0,1-13.18,24.85q-24.66,39.78-56.1,89.46T468.11,450.77q-32.73,51.12-63.32,100.11t-52.7,87.33Z"/></g><path class="cls-5" d="M234.07,671V639q0-37.62,9.35-68.87T274,505.54L396.42,316H178V166.87H637v76a60.7,60.7,0,0,1-5.52,25.56,258.24,258.24,0,0,1-13.18,24.85Q593.6,333,562.16,382.71T498,483.53q-32.73,51.12-63.32,100.11T382,671Z"/><circle class="cls-2" cx="729.16" cy="708.7" r="19.51"/></svg>