<svg xmlns="http://www.w3.org/2000/svg" xmlns:xlink="http://www.w3.org/1999/xlink" viewBox="0 0 1920 1080"><defs><style>.cls-1{fill:#39bae2;}.cls-2{fill:#353535;stroke-width:1.45px;}.cls-16,.cls-18,.cls-2,.cls-26,.cls-49,.cls-50{stroke:#000;}.cls-16,.cls-18,.cls-2{stroke-linejoin:round;}.cls-11,.cls-12,.cls-3{fill:#4d4d4d;}.cls-4{fill:#b3b3b3;}.cls-5{fill:#d3161d;}.cls-6{fill:#adadad;stroke:#080000;stroke-width:1.99px;}.cls-10,.cls-11,.cls-12,.cls-17,.cls-19,.cls-21,.cls-22,.cls-26,.cls-30,.cls-40,.cls-41,.cls-42,.cls-43,.cls-44,.cls-45,.cls-47,.cls-48,.cls-49,.cls-50,.cls-6,.cls-7,.cls-8,.cls-9{stroke-miterlimit:10;}.cls-22,.cls-26,.cls-30,.cls-41,.cls-45,.cls-49,.cls-50,.cls-7{fill:none;}.cls-19,.cls-21,.cls-30,.cls-45,.cls-7,.cls-8{stroke:#070707;}.cls-7{stroke-width:3.05px;}.cls-8{fill:#77401b;}.cls-30,.cls-47,.cls-8,.cls-9{stroke-width:2px;}.cls-13,.cls-48,.cls-9{fill:#f8c946;}.cls-47,.cls-48,.cls-9{stroke:#020202;}.cls-10,.cls-27{fill:#282828;}.cls-10,.cls-11,.cls-12{stroke:#151616;}.cls-10,.cls-11{stroke-width:1.64px;}.cls-12{stroke-width:6px;}.cls-14{fill:#683919;}.cls-15,.cls-21,.cls-47{fill:#945320;}.cls-16{fill:#515051;stroke-width:2px;}.cls-17,.cls-20{fill:#161616;}.cls-17,.cls-22,.cls-40,.cls-41,.cls-42,.cls-43,.cls-44{stroke:#0a0a0a;}.cls-17,.cls-18,.cls-19,.cls-21,.cls-22,.cls-26{stroke-width:1.73px;}.cls-18{fill:#8e8a8b;}.cls-19{fill:#e2b647;}.cls-23{fill:#dddbd7;}.cls-24{fill:#232323;}.cls-25{fill:#3a3a3a;}.cls-28{fill:#7c7c7c;}.cls-29{fill:#666;}.cls-31{fill:#7f1119;}.cls-32{fill:#5e0e18;}.cls-33{fill:#352f49;}.cls-34{fill:#e41e00;}.cls-35{fill:#fffe28;}.cls-36{fill:#18ff08;}.cls-37{fill:#dbdddd;}.cls-38{fill:#0fb0db;}.cls-39{fill:#303435;}.cls-40,.cls-41,.cls-42,.cls-43,.cls-44{stroke-width:0.78px;}.cls-40{fill:url(#radial-gradient);}.cls-42{fill:url(#radial-gradient-2);}.cls-43{fill:url(#radial-gradient-3);}.cls-44{fill:url(#radial-gradient-4);}.cls-46{fill:#389cce;}.cls-48{stroke-width:2.18px;}.cls-49{stroke-width:1.27px;}.cls-50{stroke-width:0.76px;}.cls-51{fill:#4f4f4f;}.cls-52{fill:#595959;}.cls-53{fill:#d1d1d1;}.cls-54{isolation:isolate;}.cls-55{clip-path:url(#clip-path);}.cls-56{clip-path:url(#clip-path-2);}.cls-57{clip-path:url(#clip-path-3);}.cls-58{clip-path:url(#clip-path-4);}.cls-59{clip-path:url(#clip-path-5);}.cls-60{clip-path:url(#clip-path-6);}.cls-61{clip-path:url(#clip-path-7);}.cls-62{clip-path:url(#clip-path-8);}.cls-63{clip-path:url(#clip-path-9);}.cls-64{clip-path:url(#clip-path-10);}.cls-65{clip-path:url(#clip-path-11);}.cls-66{clip-path:url(#clip-path-12);}</style><radialGradient id="radial-gradient" cx="1228.86" cy="538.14" r="12.18" gradientTransform="matrix(-1, 0, 0, 1, 1959.33, 75.52)" gradientUnits="userSpaceOnUse"><stop offset="0.2" stop-color="#666"/><stop offset="0.57" stop-color="#585858"/><stop offset="1" stop-color="#4d4d4d"/></radialGradient><radialGradient id="radial-gradient-2" cx="1179.56" cy="658.63" r="12.18" gradientTransform="matrix(-1, 0, 0, 1, 1967.23, 71.97)" xlink:href="#radial-gradient"/><radialGradient id="radial-gradient-3" cx="1230.25" cy="655.63" r="12.18" gradientTransform="matrix(-1, 0, 0, 1, 1967.14, 75.35)" xlink:href="#radial-gradient"/><radialGradient id="radial-gradient-4" cx="1184.72" cy="540.2" r="12.18" gradientTransform="matrix(-1, 0, 0, 1, 1959.37, 72.58)" xlink:href="#radial-gradient"/><clipPath id="clip-path"><path class="cls-1" d="M903.14,304.38l15.36-3.84a1.94,1.94,0,0,1,.8,0l-15.37,3.84A2.09,2.09,0,0,0,903.14,304.38Z"/></clipPath><clipPath id="clip-path-2"><path class="cls-1" d="M927.12,374.61l-15.36,3.84c1.37-.34,2.56-2.05,3-4.84,2.79-19.5.69-42-5.9-63-1.13-3.63-3.15-6-4.89-6.28l15.37-3.84c1.73.28,3.75,2.64,4.89,6.28,6.58,21,8.68,43.47,5.89,63C929.68,372.56,928.5,374.26,927.12,374.61Z"/></clipPath><clipPath id="clip-path-3"><path class="cls-1" d="M929.21,288l15.36-3.84a2,2,0,0,1,.84,0L930.05,288A2.36,2.36,0,0,0,929.21,288Z"/></clipPath><clipPath id="clip-path-4"><path class="cls-1" d="M956.28,390.53l-15.36,3.84c1.32-.33,2.45-1.87,2.87-4.4,5-29.46,1.7-64.21-9-96.18-1.12-3.35-3-5.54-4.74-5.81l15.36-3.84c1.69.27,3.62,2.45,4.74,5.81,10.7,32,14,66.72,9,96.18C958.73,388.65,957.6,390.2,956.28,390.53Z"/></clipPath><clipPath id="clip-path-5"><path class="cls-1" d="M955.15,266.35l15.37-3.85a2.06,2.06,0,0,1,.86,0L956,266.31A2.3,2.3,0,0,0,955.15,266.35Z"/></clipPath><clipPath id="clip-path-6"><path class="cls-1" d="M986,408.48l-15.36,3.85c1.28-.32,2.37-1.78,2.81-4.15,7.59-41.48,2.94-91.12-12.77-136.33-1.1-3.19-3-5.27-4.64-5.54l15.36-3.84c1.67.27,3.54,2.34,4.65,5.53,15.7,45.22,20.35,94.86,12.76,136.34C988.36,406.71,987.27,408.16,986,408.48Z"/></clipPath><clipPath id="clip-path-7"><path class="cls-1" d="M539.39,293.58,524,289.73a2.14,2.14,0,0,0-.8,0l15.36,3.85A1.79,1.79,0,0,1,539.39,293.58Z"/></clipPath><clipPath id="clip-path-8"><path class="cls-1" d="M515.41,363.8l15.36,3.85c-1.38-.35-2.56-2-3-4.84-2.79-19.51-.69-42,5.89-63,1.14-3.64,3.16-6,4.89-6.28l-15.36-3.85c-1.73.28-3.75,2.65-4.89,6.28-6.58,21-8.69,43.48-5.89,63C512.84,361.75,514,363.46,515.41,363.8Z"/></clipPath><clipPath id="clip-path-9"><path class="cls-1" d="M513.32,277.21,498,273.36a2.29,2.29,0,0,0-.83,0l15.36,3.85A2,2,0,0,1,513.32,277.21Z"/></clipPath><clipPath id="clip-path-10"><path class="cls-1" d="M486.25,379.72l15.36,3.85c-1.33-.33-2.45-1.88-2.88-4.4-4.94-29.46-1.69-64.21,9-96.18,1.12-3.36,3.05-5.54,4.74-5.81l-15.36-3.85c-1.7.27-3.62,2.46-4.74,5.81-10.7,32-14,66.72-9,96.18C483.8,377.85,484.92,379.39,486.25,379.72Z"/></clipPath><clipPath id="clip-path-11"><path class="cls-1" d="M487.37,255.54,472,251.7a2.26,2.26,0,0,0-.86,0l15.36,3.85A2.06,2.06,0,0,1,487.37,255.54Z"/></clipPath><clipPath id="clip-path-12"><path class="cls-1" d="M456.55,397.68l15.36,3.84c-1.29-.32-2.38-1.77-2.81-4.14-7.59-41.48-2.94-91.12,12.76-136.34,1.11-3.19,3-5.26,4.65-5.53l-15.36-3.85c-1.67.27-3.54,2.35-4.65,5.54-15.71,45.21-20.35,94.85-12.76,136.33C454.17,395.9,455.26,397.36,456.55,397.68Z"/></clipPath></defs><title>radar</title><g id="Layer_4" data-name="Layer 4"><path class="cls-2" d="M508.89,879.51a126.37,126.37,0,0,1,4.17-20.74c8.14-28.36,33.52-114.2,56.7-165.92,13.65-30.46,21.87-51.29,29-66.88a130.24,130.24,0,0,1,35.74-46.52c10.2-8.41,21.93-17.86,39.78-25.08,23.29-9.41,48.61-9.55,73.54-6.41,62.12,7.82,95.38,8.69,107.58,12.37,12.07,8,64,61.45,67.91,107,2.87,32.88.78,77.74-22,113.34s-114,206-154.68,210c-47.52,4.61-169.78-.66-205.69-26.1C508.7,941.74,505.23,912.29,508.89,879.51Z"/><path class="cls-3" d="M724.54,985.73c-16,0-29-3.73-39.86-11.41-29.22-20.7-32.8-46.43-29.19-78.69a119.61,119.61,0,0,1,3.94-19.6c7.36-25.62,33.17-113.25,56.37-165,7.54-16.82,13.55-31,18.37-42.39,4-9.4,7.43-17.51,10.58-24.44a124.15,124.15,0,0,1,33.85-44.07c9.17-7.56,20.59-17,38-24a118.43,118.43,0,0,1,44.63-8.57,126,126,0,0,1,25,2.52c42.75,8.66,72.05,28.74,84.57,37.31,1.15.79,2.16,1.48,3,2l1.54,1c7,4.64,21.62,14.3,34.92,28.07,16,16.56,24.87,33.61,26.35,50.67,2.67,30.63,1.21,74.41-20.9,109-10,15.73-50.24,53.29-100,93.46-51,41.16-94.75,71.11-111.45,76.29l-8.32,2.61C773.4,977.68,747.9,985.73,724.54,985.73Z"/><path d="M861.21,560.66v13.78h0a119,119,0,0,1,23.59,2.38c41.38,8.39,69.88,27.91,82,36.24,1.18.81,2.22,1.52,3.1,2.1.46.32,1,.66,1.56,1,6.81,4.51,21,13.88,33.76,27.11,14.88,15.39,23.1,31,24.45,46.48,4.66,53.57-8.22,86.51-19.85,104.72-9.54,14.93-50.05,52.68-98.53,91.81-49.6,40-93.47,70.2-109.16,75.07L793.82,964c-22,7-47,14.83-69.28,14.83-14.51,0-26.24-3.32-35.88-10.15-12.48-8.84-20.43-19.2-24.29-31.65-3.35-10.77-4-23.3-2-40.64a112.37,112.37,0,0,1,3.72-18.47c7.32-25.51,33-112.74,56-164.09,7.57-16.89,13.59-31.11,18.43-42.53,4-9.35,7.39-17.42,10.51-24.27a117.17,117.17,0,0,1,32-41.6c8.81-7.26,19.78-16.3,36.18-22.93a111.74,111.74,0,0,1,42.05-8.07V560.66m0,0A125.84,125.84,0,0,0,814,569.73c-17.85,7.22-29.58,16.67-39.78,25.07a130.36,130.36,0,0,0-35.74,46.53c-7.1,15.59-15.32,36.41-29,66.88-23.18,51.72-48.56,137.56-56.7,165.92a126.25,126.25,0,0,0-4.17,20.73c-3.66,32.78-.19,62.24,32.06,85.08,13.09,9.27,28.12,12.68,43.84,12.68,27.41,0,56.89-10.36,81.72-18.07,39.06-12.12,192.48-137,215.22-172.62s24.82-80.46,22-113.34c-4-45.58-53.79-76.85-65.86-84.89-10.23-6.82-42-30.64-90-40.39a132.87,132.87,0,0,0-26.33-2.65Z"/><ellipse class="cls-4" cx="930.92" cy="717.69" rx="73.34" ry="91.79" transform="translate(-13.24 17.51) rotate(-1.07)"/><ellipse class="cls-4" cx="839.91" cy="849.97" rx="52.54" ry="65.76" transform="translate(-15.73 15.83) rotate(-1.07)"/><ellipse class="cls-4" cx="736.21" cy="903.66" rx="41.35" ry="51.74" transform="matrix(1, -0.02, 0.02, 1, -16.75, 13.91)"/><ellipse class="cls-5" cx="935.61" cy="717.6" rx="24.94" ry="34.29" transform="matrix(1, -0.02, 0.02, 1, -13.24, 17.6)"/><ellipse class="cls-5" cx="842.29" cy="852.55" rx="21.53" ry="29.61" transform="translate(-192.26 247.57) rotate(-15.03)"/><ellipse class="cls-5" cx="736.28" cy="907.19" rx="15.95" ry="21.94" transform="translate(-210.05 221.95) rotate(-15.03)"/><path class="cls-6" d="M706,834.74s10.88-23.88,47.05-13.38c6-15.41,18.11-57,81.8-54.42-3.59-14-30.61-74.21,14.67-135.77-18.89-7.68-30.6-12.82-53.25,17.07S703.23,827.65,706,834.74Z"/><line class="cls-7" x1="599.07" y1="625.25" x2="741.94" y2="634.32"/><line class="cls-7" x1="678.62" y1="552.74" x2="837.66" y2="562.83"/><polyline class="cls-7" points="860.34 564.26 902.55 566.94 902.57 566.94"/><line class="cls-7" x1="560.86" y1="714.01" x2="703.18" y2="723.04"/><line class="cls-7" x1="530.2" y1="801.92" x2="671.99" y2="810.9"/><line class="cls-7" x1="507.85" y1="892.69" x2="648" y2="901.59"/><path class="cls-8" d="M537.92,478l210.19-38.44c35.57-7.64,61.82-6.8,71.46,26.9h0c5.78,33.83-11,41.22-42.68,53.42l-212,85.72a63.92,63.92,0,0,1-78.81-43.76h0C476.42,528.16,504.22,487.67,537.92,478Z"/><path class="cls-9" d="M553.9,474.85l218.29-43.47c35.57-7.63,60.47,68.13,28.78,80.32L589,597.42a63.92,63.92,0,0,1-78.81-43.76h0A63.93,63.93,0,0,1,553.9,474.85Z"/><path class="cls-10" d="M500.08,528.4s-1.71-10.67,10.88-26.3c-24.57-12.45-87.89-33.73-96.37-27.46-5.77,4.27-11.23,15.95-16,27.16-4.28,10.05,1.32,21.43,12.17,22.68,32.44,3.76,82.65,8.09,82.65,8.09Z"/><path class="cls-11" d="M511.28,501.71c-24.57-12.44-83.34-40.21-91.82-33.94-5.77,4.27-12.36,15.55-17.55,25.88a15.69,15.69,0,0,0,12.17,22.69c32.44,3.75,84.29,14,86.67,12.56C499.91,516.07,505.12,507.69,511.28,501.71Z"/><path class="cls-10" d="M506.46,570.81s-7.81-7.46-7.24-27.52c-27.09,5-90.39,26.29-93.35,36.42-2,6.89.7,19.49,3.68,31.3,2.66,10.6,14,16.27,23.41,10.71,28.11-16.63,70.7-43.55,70.7-43.55Z"/><path class="cls-11" d="M499.24,542.79c-27.09,5-90.69,18.37-93.65,28.5-2,6.89-.43,19.86,1.68,31.22a15.69,15.69,0,0,0,23.41,10.71c28.11-16.63,75.58-39.85,76.62-42.41C498.87,561.1,498,551.27,499.24,542.79Z"/><path class="cls-10" d="M544.54,598.8s-10.8-.4-23.67-15.81c-17,21.66-46.67,57.12-42.18,66.67,3.06,6.49,3.27,7.45,13.33,14.32,9,6.17,20,2.39,24.63-7.49a272.64,272.64,0,0,1,30.67-50.32Z"/><path class="cls-11" d="M520.56,582.6c-17,21.66-52.15,51.39-47.65,60.94,3.06,6.49,2.66,8.48,11.77,15.59,8.61,6.72,19.83,2.32,24.63-7.5,14.31-29.25,36.77-50.77,35.86-53.38C532.41,596.56,525.21,589.81,520.56,582.6Z"/><path class="cls-10" d="M530.56,480.07,517.4,495.91s-6.78,1.06-8.28,1.16c-8.42.54-56-46.49-46.32-55.95s25.29-18.95,29.66-17.13c.55.23,6.84,1.06,6.84,1.06S534.27,480.09,530.56,480.07Z"/><path class="cls-11" d="M538.83,478.92a43.78,43.78,0,0,0-12.4,7.05,74.16,74.16,0,0,0-9,9.94c-5.48,6.43-56-46.49-46.32-56s25.32-16.45,29.7-14.63S543.07,478.93,538.83,478.92Z"/><ellipse class="cls-12" cx="572.46" cy="534.14" rx="22.52" ry="24.97" transform="translate(-203.97 634.97) rotate(-50.42)"/><path class="cls-13" d="M636,495.7S809.16,405.35,887.8,388.8c0,0,212.38-18.62,396-12.95-21.11,16.84-204.17,100.08-230.33,106.18S706.76,503.56,636,495.7Z"/><path class="cls-14" d="M995.05,464.32s70.14-44.5,77.33-47.14-137.61-2.47-137.61-2.47-68.18,42-72.69,46.53S995.05,464.32,995.05,464.32Z"/><path class="cls-15" d="M1286.05,375.34s27.24,302.53,7.21,380c-22,19.93-175.75,96-225.7,97.62-6.79-34.56-24.75-345.66-11.83-371.42C1073.8,466.38,1210.67,399.51,1286.05,375.34Z"/><path class="cls-5" d="M636,495.7s-.46,155.11,9,268.59c3.65,43.73,47.23,84.86,54.39,86.26,16.52,14.15,392,17,413.31,1.48,0,0-41.93-30.83-43.53-91.24-2-75.47-10.64-187.92-13.46-279.28C1041.85,474.92,701.55,483.57,636,495.7Z"/><path class="cls-16" d="M997.45,308l5.95,114.21-100,6.24c-16.73.87-31.64-24-33.29-55.52s10.6-57.82,27.33-58.69c5.63-.29,11,2.33,15.84,7.13Z"/><path class="cls-17" d="M553.69,310s39,26.16,105,31.06c29.3,2.18,67.21-3.11,103.73-9.75,118.7-21.61,168.65-86.57,168.65-86.57s-12.2-81.87-15.2-109.4S872.44,56,872.44,56Z"/><path class="cls-17" d="M1316.24,276.1S1295.57,318,1219,318.63s-189.32-23.22-189.32-23.22l-74.51-89.2Z"/><path class="cls-5" d="M886.45,72.77l38.95-2,5.74,127.85-38,2S894.58,115.72,886.45,72.77Z"/><polygon class="cls-18" points="893.12 200.57 919.88 233.25 947.03 231.83 931.14 198.59 893.12 200.57"/><polygon class="cls-19" points="863.38 202.12 967.57 196.69 970.5 380.61 871.61 383.46 863.38 202.12"/><path class="cls-20" d="M893.21,199.47,891.6,221.6a3.77,3.77,0,0,1-1.37,2.69l-25.76,21.17a3.78,3.78,0,0,1-6.1-2.18l-1.21-6.07a3.78,3.78,0,0,1,.89-3.25l28.58-37.23A3.78,3.78,0,0,1,893.21,199.47Z"/><polygon class="cls-21" points="1029.68 295.41 1021.95 337.35 970.5 380.61 967.57 196.69 1029.68 295.41"/><path class="cls-17" d="M932.62,201.71s2.83,21,7.42,24.15,63.84,25.18,70.79,25.76,4.79-15.25,4.79-15.25Z"/><path class="cls-22" d="M932.62,201.71s3.49,25.41,9.24,25.11c7,3,59.33,22.73,59.33,22.73"/><path class="cls-23" d="M1268.6,281c-45.48,0-118.9-11.61-196.39-31.06-33.62-8.43-65.18-17.75-88.87-26.22-31.5-11.28-39.11-17.44-40.58-18.88-6.34-22.24-10-94.48-7-139.76a13.64,13.64,0,0,1,11.93-12.64,1196,1196,0,0,1,144.54-8.32,1474.81,1474.81,0,0,1,193.17,12.79,13.78,13.78,0,0,1,11.15,9.33c10.51,30.84,16.18,69.13,16.85,113.8a665.82,665.82,0,0,1-4.62,86.89A13.57,13.57,0,0,1,1298,278.68c-7.67,1.54-17.55,2.32-29.36,2.32Z"/><path class="cls-24" d="M1092.21,54.12A1462.29,1462.29,0,0,1,1284,66.82a3.83,3.83,0,0,1,3.06,2.64c10.16,29.86,15.65,67.11,16.31,110.73a655.49,655.49,0,0,1-4.55,85.54,3.59,3.59,0,0,1-2.81,3.15c-7,1.4-16.25,2.12-27.42,2.12-43.52,0-114.21-11.05-189.11-29.55-32.64-8.06-63.77-17.06-87.67-25.35-26-9-36.43-14.67-40.22-17.1-5.11-22.78-8.85-88.33-5.89-133.26a3.64,3.64,0,0,1,3.17-3.37,1186.23,1186.23,0,0,1,143.33-8.25m0-20c-45.63,0-95.39,2.23-145.76,8.4a23.63,23.63,0,0,0-20.69,21.9c-3,45.29.65,121.29,7.71,144.25,6.8,22.13,229,82.33,335.13,82.33,12.14,0,22.74-.79,31.34-2.51a23.61,23.61,0,0,0,18.75-20.36C1323,232.52,1331.13,136.8,1306,63a23.81,23.81,0,0,0-19.25-16,1476.28,1476.28,0,0,0-194.54-12.89Z"/><polygon class="cls-19" points="880.8 412.25 887.95 460.37 994.8 456.78 982.56 408.83 880.8 412.25"/><polygon class="cls-21" points="1030.12 381.61 1059.53 417.62 994.8 456.78 982.56 408.83 1030.12 381.61"/><ellipse class="cls-25" cx="1000.43" cy="365.06" rx="30.35" ry="57.18" transform="translate(-17.65 52.59) rotate(-2.98)"/><path class="cls-26" d="M892.29,197.43s.16,25-2.06,26.86l-25.76,21.17"/><path class="cls-23" d="M580.86,308.08a114.73,114.73,0,0,1-11.93-.57,13.06,13.06,0,0,1-11.4-10.3,665.88,665.88,0,0,1-12.72-86c-3.5-44.48-1.43-83.08,6.13-114.72a13.27,13.27,0,0,1,9.86-10C638.58,68.24,724.73,59,816.85,59c12.93,0,26.13.19,39.24.56a13.13,13.13,0,0,1,12.58,11c7.07,44,10.22,117.7,6,139.82-4.35,6.2-38.82,28.19-117.62,56.56C685.54,292.7,619.66,308.08,580.86,308.08Z"/><path class="cls-24" d="M816.87,69.47c12.82,0,25.92.18,38.92.55a2.67,2.67,0,0,1,2.51,2.22c7.16,44.51,9.57,110.24,6.58,133.11-3.27,2.76-12.6,9.48-36.32,20.86-22,10.57-50.4,22.14-79.83,32.57-68.54,24.29-131.3,38.8-167.87,38.8a104.93,104.93,0,0,1-10.84-.51,2.63,2.63,0,0,1-2.23-2.09,653.71,653.71,0,0,1-12.51-84.6c-3.41-43.39-1.44-80.89,5.87-111.46a2.84,2.84,0,0,1,2.05-2.18c77-18.1,162.34-27.27,253.66-27.27h0m0-21C687,48.47,598.36,66.9,558.39,76.3A23.79,23.79,0,0,0,540.73,94c-18.13,75.81-1.08,170.35,6.54,205.4A23.59,23.59,0,0,0,567.84,318a123.48,123.48,0,0,0,13,.63c93,0,299-81.28,304-105.33,4.88-23.53,1.39-99.53-5.82-144.34A23.64,23.64,0,0,0,856.38,49q-20.36-.57-39.52-.56Z"/><path class="cls-27" d="M1060,222.62c-18.68,0-36.45-7.76-50-21.85a81.59,81.59,0,0,1-22.42-54.13c-1.45-43.21,29.71-79.45,69.46-80.78.76,0,1.52,0,2.27,0,18.68,0,36.45,7.76,50,21.85a81.65,81.65,0,0,1,22.43,54.13c1.45,43.21-29.72,79.45-69.47,80.79Z"/><path class="cls-28" d="M1059.3,74.32c16.35,0,31.94,6.83,43.9,19.25a73.1,73.1,0,0,1,20,48.52c.63,18.9-5.54,36.83-17.39,50.5-11.54,13.3-27.12,20.94-43.86,21.5-.66,0-1.33,0-2,0-16.35,0-31.94-6.83-43.91-19.25a73.19,73.19,0,0,1-20.05-48.51c-1.29-38.53,26.19-70.83,61.26-72,.65,0,1.32,0,2,0h0m0-17c-.84,0-1.7,0-2.55,0-44.51,1.49-79.29,41.59-77.68,89.57,1.58,47,37.57,84.19,81,84.19.85,0,1.7,0,2.56,0,44.51-1.49,79.28-41.59,77.67-89.56-1.58-47.06-37.57-84.21-81-84.2Z"/><path class="cls-27" d="M754.75,238.84c-18.68,0-36.44-7.76-50-21.85a81.6,81.6,0,0,1-22.43-54.13c-1.45-43.21,29.71-79.45,69.46-80.79q1.14,0,2.28,0c18.68,0,36.44,7.76,50,21.85A81.6,81.6,0,0,1,826.49,158c1.45,43.21-29.71,79.45-69.47,80.78C756.27,238.83,755.51,238.84,754.75,238.84Z"/><path class="cls-28" d="M754,90.54c16.35,0,31.94,6.83,43.9,19.25a73.1,73.1,0,0,1,20,48.51c1.3,38.53-26.18,70.83-61.25,72-.66,0-1.33,0-2,0-16.35,0-31.94-6.83-43.9-19.25a74.81,74.81,0,0,1-2.66-99c11.54-13.3,27.11-20.94,43.86-21.5.66,0,1.33,0,2,0h0m0-17c-.85,0-1.71,0-2.56,0-44.51,1.49-79.28,41.59-77.67,89.56,1.58,47.06,37.57,84.2,80.94,84.2.85,0,1.71,0,2.56,0,44.51-1.49,79.28-41.59,77.67-89.57-1.58-47-37.57-84.2-80.94-84.19Z"/><ellipse class="cls-29" cx="1002.83" cy="368.08" rx="13.19" ry="28.54" transform="translate(-11.78 33.85) rotate(-1.92)"/><path class="cls-30" d="M872.5,392.18C827.84,400.29,636,495.7,636,495.7s1.08,253.1,9,268.59c3.76,18.31,4.86,41.4,47.8,82.17,13.89,6.59,19.84,24.39,296.5,16"/><path class="cls-30" d="M1030.41,379s245.25-8,255.64-3.67c0,0,15.37,210,13.64,222.57"/><path class="cls-31" d="M967.88,576,726,578.41a18,18,0,0,0-17.77,19.2l9.54,143.21A18,18,0,0,0,736,757.62l242.12-2.45a18,18,0,0,0,17.78-19.23L986,592.71A18,18,0,0,0,967.88,576Z"/><path class="cls-32" d="M972,582.8l-242.39,2a14,14,0,0,0-13.86,14.93l9.6,144a14,14,0,0,0,14.06,13.06l242.38-1.61a14,14,0,0,0,13.88-14.93l-9.58-144.31A14,14,0,0,0,972,582.8Z"/><path class="cls-33" d="M818.42,656.86l149.11-2.58a9,9,0,0,0,8.76-9.24l-3.16-42.33a9,9,0,0,0-9.24-8.75l-149.12,2.58a9,9,0,0,0-8.75,9.24l3.16,42.33A9,9,0,0,0,818.42,656.86Z"/><ellipse class="cls-34" cx="940.9" cy="624.87" rx="17.42" ry="21.77" transform="translate(-25.58 40.35) rotate(-2.42)"/><ellipse class="cls-35" cx="888.29" cy="625.34" rx="17.42" ry="21.77" transform="translate(-25.65 38.13) rotate(-2.42)"/><ellipse class="cls-36" cx="836.82" cy="627.34" rx="17.42" ry="21.77" transform="translate(-25.78 35.95) rotate(-2.42)"/><path class="cls-37" d="M849.66,692.66l117.42-1.5a9.41,9.41,0,0,0,9.09-9.64h0a9.41,9.41,0,0,0-9.65-9.09l-117.42,1.5a9.4,9.4,0,0,0-9.08,9.65h0A9.39,9.39,0,0,0,849.66,692.66Z"/><path class="cls-38" d="M918.68,748.31l52.15-1a9.4,9.4,0,0,0,9.08-9.64h0a9.4,9.4,0,0,0-9.64-9.09l-52.14,1a9.4,9.4,0,0,0-9.09,9.64h0A9.4,9.4,0,0,0,918.68,748.31Z"/><path class="cls-38" d="M916.94,722.08l52.14-1a9.38,9.38,0,0,0,9.08-9.64h0a9.39,9.39,0,0,0-9.64-9.08l-52.14,1a9.4,9.4,0,0,0-9.09,9.64h0A9.4,9.4,0,0,0,916.94,722.08Z"/><polygon class="cls-39" points="789.29 598.23 717.93 598.39 727.68 744.65 799.72 743.61 789.29 598.23"/><ellipse class="cls-40" cx="730.91" cy="614.64" rx="7.79" ry="9.02" transform="translate(-39.27 49.98) rotate(-3.81)"/><path class="cls-41" d="M730.31,605.64s-2.7,11.35,1.69,18"/><path class="cls-41" d="M738.67,614.12s-9.81,3-15.53,1"/><ellipse class="cls-42" cx="788.11" cy="731.58" rx="7.79" ry="9.02" transform="translate(-46.92 54.05) rotate(-3.81)"/><path class="cls-41" d="M787.51,722.58s-2.69,11.35,1.7,18"/><path class="cls-41" d="M795.88,731.06s-9.81,3-15.54,1"/><ellipse class="cls-43" cx="737.33" cy="731.96" rx="7.79" ry="9.02" transform="translate(-47.06 50.67) rotate(-3.81)"/><path class="cls-41" d="M736.73,723s-2.69,11.35,1.7,18"/><path class="cls-41" d="M745.1,731.44s-9.81,3-15.53,1"/><ellipse class="cls-44" cx="775.09" cy="613.76" rx="7.79" ry="9.02" transform="translate(-39.11 52.92) rotate(-3.81)"/><path class="cls-41" d="M774.49,604.76s-2.69,11.35,1.7,18"/><path class="cls-41" d="M782.86,613.24s-9.81,3-15.54,1"/><path class="cls-45" d="M976.17,681.52s-20.67-5-39.22,2.61-20.54-9.25-29.32-8.45-10,13.83-22,13.31-8.38-5.34-14-4.94-5.27,6.33-10.66,6-8.74-16.74-11.85-16.1"/><path class="cls-2" d="M973.61,922a126.25,126.25,0,0,1,4.17-20.73c8.15-28.36,33.52-114.21,56.7-165.93,13.65-30.46,21.87-51.28,29-66.87A130.39,130.39,0,0,1,1099.19,622c10.2-8.41,21.93-17.85,39.78-25.07,23.29-9.42,48.62-9.56,73.54-6.42,62.12,7.82,95.38,8.69,107.58,12.37,12.07,8,64,61.46,67.92,107,2.86,32.88.77,77.74-22,113.33s-114,206-154.68,210c-47.52,4.62-169.78-.65-205.69-26.09C973.43,984.24,970,954.79,973.61,922Z"/><path class="cls-3" d="M1189.26,1028.23c-16,0-29-3.73-39.86-11.41-29.21-20.7-32.8-46.42-29.19-78.68a118.41,118.41,0,0,1,4-19.6c7.35-25.63,33.17-113.26,56.36-165,7.54-16.83,13.55-31,18.38-42.4,4-9.39,7.42-17.51,10.58-24.44a124.09,124.09,0,0,1,33.84-44.06c9.17-7.56,20.59-17,38-24a118.48,118.48,0,0,1,44.63-8.58,126,126,0,0,1,25,2.52c42.76,8.67,72.06,28.74,84.57,37.31l3,2.06,1.54,1c7,4.64,21.62,14.29,34.92,28.06,16,16.56,24.87,33.61,26.36,50.67,2.66,30.64,1.2,74.42-20.91,109-10.05,15.74-50.24,53.3-100,93.46-51,41.17-94.74,71.11-111.44,76.3-2.73.84-5.5,1.72-8.33,2.61C1238.12,1020.19,1212.62,1028.23,1189.26,1028.23Z"/><path d="M1325.93,603.16V617h0a119,119,0,0,1,23.59,2.38c41.38,8.39,69.88,27.9,82,36.24,1.18.81,2.22,1.51,3.1,2.1l1.56,1c6.81,4.5,21,13.88,33.77,27.1,14.87,15.4,23.1,31,24.44,46.48,4.67,53.57-8.22,86.52-19.85,104.72-9.53,14.93-50,52.69-98.53,91.81-49.6,40-93.47,70.21-109.16,75.08-2.73.84-5.52,1.72-8.35,2.62-22,7-47,14.82-69.28,14.82-14.5,0-26.24-3.31-35.88-10.14-12.48-8.85-20.43-19.2-24.29-31.65-3.34-10.77-4-23.31-2-40.65a112.26,112.26,0,0,1,3.72-18.46c7.33-25.51,33-112.75,56-164.09,7.57-16.9,13.59-31.11,18.44-42.54,4-9.34,7.38-17.42,10.5-24.26a117.21,117.21,0,0,1,32-41.61c8.81-7.26,19.78-16.29,36.18-22.93a111.77,111.77,0,0,1,42-8.06V603.16m0,0a125.85,125.85,0,0,0-47.21,9.08c-17.85,7.21-29.58,16.66-39.78,25.07a130.3,130.3,0,0,0-35.74,46.53c-7.1,15.58-15.32,36.41-29,66.87-23.18,51.72-48.55,137.57-56.7,165.92a126.58,126.58,0,0,0-4.17,20.74c-3.66,32.78-.18,62.23,32.06,85.07,13.09,9.28,28.12,12.69,43.84,12.69,27.41,0,56.89-10.37,81.72-18.07,39.06-12.12,192.48-137,215.22-172.63s24.82-80.45,22-113.34c-4-45.57-53.79-76.84-65.86-84.89-10.22-6.82-42-30.64-90-40.38a132.07,132.07,0,0,0-26.33-2.66Z"/><ellipse class="cls-4" cx="1395.65" cy="760.19" rx="73.34" ry="91.79" transform="translate(-13.95 26.2) rotate(-1.07)"/><ellipse class="cls-4" cx="1304.63" cy="892.48" rx="52.54" ry="65.76" transform="translate(-16.44 24.52) rotate(-1.07)"/><ellipse class="cls-4" cx="1200.93" cy="946.17" rx="41.35" ry="51.74" transform="translate(-17.46 22.59) rotate(-1.07)"/><ellipse class="cls-5" cx="1400.34" cy="760.1" rx="24.94" ry="34.29" transform="translate(-13.95 26.29) rotate(-1.07)"/><ellipse class="cls-5" cx="1307.02" cy="895.05" rx="21.53" ry="29.61" transform="translate(-187.38 369.53) rotate(-15.03)"/><ellipse class="cls-5" cx="1201" cy="949.69" rx="15.95" ry="21.94" transform="translate(-205.18 343.9) rotate(-15.03)"/><path class="cls-6" d="M1170.77,877.25s10.87-23.88,47-13.38c6-15.41,18.1-57,81.79-54.42-3.59-14-30.61-74.21,14.67-135.77-18.89-7.68-30.59-12.82-53.25,17.06S1168,870.16,1170.77,877.25Z"/><line class="cls-7" x1="1063.79" y1="667.75" x2="1206.66" y2="676.83"/><line class="cls-7" x1="1143.34" y1="595.25" x2="1302.39" y2="605.33"/><polyline class="cls-7" points="1325.06 606.77 1367.27 609.45 1367.29 609.45"/><line class="cls-7" x1="1025.58" y1="756.52" x2="1167.9" y2="765.54"/><line class="cls-7" x1="994.92" y1="844.42" x2="1136.71" y2="853.41"/><line class="cls-7" x1="972.57" y1="935.2" x2="1112.72" y2="944.09"/><rect class="cls-46" x="1003.4" y="135.66" width="93.34" height="21.41" rx="10.7"/><rect class="cls-46" x="711.47" y="149.61" width="93.34" height="21.41" rx="10.7"/><path class="cls-47" d="M1173,131.57l-1.81-.47a143.3,143.3,0,0,1,3.78,31.1c.51,22.56,7.82,292.89,7.84,293.53a70.17,70.17,0,0,1-.65,11.58l3.09-2.75,14.31,41.51-45-6.29-7.72-1.08c-11.77-4.31-12.2-17.78-13.82-28.28l-37.81-281.79a232.2,232.2,0,0,1,1.3-30.75c2.18-21,10.77-50.87,32-60.51a24.3,24.3,0,0,1,7.07-2l.11,0h0l10.66,1.23,36.22,4.16Z"/><path class="cls-48" d="M1136.31,194.45a233.84,233.84,0,0,1,1.3-30.75c2.19-21,10.77-50.87,32-60.51,15.19-6.89,30.71,3.57,37.09,17.46,6.77,14.76,9,31.29,9.41,47.37.51,22.56,7.81,292.89,7.83,293.53.33,12.23-2.43,26.28-11.06,35.71-5.91,6.46-16.27,10.44-24.94,7.26-11.78-4.31-12.21-17.78-13.83-28.28Z"/><path class="cls-10" d="M1024.23,118.53a45.66,45.66,0,0,1-.63-8.25Z"/><path class="cls-10" d="M1186.74,84.64l-.7,9.3a1.72,1.72,0,0,1-.64,1.39c-5.49,4.37-10.8,5.18-25.88-.88-4.79-1.93-77.51-23.25-71.78-29.85s23.17-.81,24.58-.57c1.16.2,42.9,13.36,64,23.52Z"/><path class="cls-10" d="M1157.31,86.14l-1.77,6.69-2,7.62h0a13.52,13.52,0,0,1-2.77,4c-2.84,2.41-9.68.05-17-.81-32.48-3.8-91.18-17.79-92.88-23.73a15.49,15.49,0,0,1,.18-8.45l4-15.21,2.52,5.73a11.89,11.89,0,0,1,2.68-1.42c16.42-6.1,72.73,14.62,100.87,28.66Z"/><path class="cls-11" d="M1088.47,54.52c5.73-6.59,23.18-.81,24.59-.57s58.88,18.41,73,28.52a1.75,1.75,0,0,1,.1,2.78c-5.48,4.37-10.8,5.18-25.87-.88C1155.46,82.44,1082.75,61.12,1088.47,54.52Z"/><path class="cls-11" d="M1157.43,78.5c-26.76-14-87.13-36.73-104.22-30.38-6.88,2.55-11.45,12.07-9.37,19.35,1.7,5.94,60.41,19.94,92.88,23.74,7.3.85,14.13,3.21,17,.81C1156.37,89.75,1160.53,80.12,1157.43,78.5Z"/><path class="cls-10" d="M1136.22,112.3c.27,6.5-3.57,13.15-10.52,14-34.65,4.4-90.62,13.56-95.87,6.73-2.65-3.46-4.63-8.74-5.58-14.45a.29.29,0,0,1,0-.09l-.63-8.25V91.62l109.91,2.66,2.74,18Z"/><path class="cls-11" d="M1124.89,86.12c-30.32-6.81-78.76-15.61-95.86-6.91-9.38,8.16-7.21,31,0,40.36,5.24,6.82,61.21-2.34,95.86-6.74C1137.83,111.19,1140,89.51,1124.89,86.12Z"/><path class="cls-10" d="M1024.25,118.62h0v-.09A.29.29,0,0,0,1024.25,118.62Z"/><ellipse class="cls-49" cx="744.17" cy="418.67" rx="34.94" ry="34.26" transform="translate(221.23 1093.66) rotate(-81.6)"/><path class="cls-50" d="M763.92,420.64A20.92,20.92,0,0,1,751.25,437l-2.61,17.67-20.22-3L731,434.09a20.93,20.93,0,0,1-7.56-19.43,20.46,20.46,0,1,1,40.47,6Z"/><path class="cls-51" d="M728.81,485.36c-22.18-.1-25.82-8.89-26-9.26l0-.29a43.43,43.43,0,0,1,1.42-6.87c2.55-8.94,9.59-24.15,28.11-25.57.86-.07,1.73-.1,2.57-.1,14.55,0,21.74,9.87,25.21,18.16a41.54,41.54,0,0,1,2.77,9.65l0,.36c-.27.56-6.83,13.92-33.67,13.92Z"/><path d="M734.91,443.9c14.34,0,21.33,9.91,24.62,17.78a41.14,41.14,0,0,1,2.73,9.49s-6.34,13.56-33.09,13.56h-.36c-22-.09-25.37-8.85-25.37-8.85a43.18,43.18,0,0,1,1.4-6.76c2.55-8.92,9.48-23.72,27.55-25.11.86-.07,1.7-.1,2.52-.1m0-1.27h0c-.86,0-1.74,0-2.62.1-18.9,1.46-26.07,16.94-28.67,26a43.35,43.35,0,0,0-1.44,7l.08.58c.15.39,3.93,9.57,26.54,9.67h.37c27.24,0,34-13.71,34.24-14.3l.11-.7a41.93,41.93,0,0,0-2.82-9.81c-3.54-8.47-10.89-18.56-25.79-18.56Z"/><path class="cls-52" d="M762.26,471.17s-6.4,13.68-33.45,13.55c-22-.09-25.37-8.85-25.37-8.85a43.18,43.18,0,0,1,1.4-6.76c5.69-6.82,18.2-11.56,32.73-11.56a56.72,56.72,0,0,1,22,4.13A41.14,41.14,0,0,1,762.26,471.17Z"/><path class="cls-53" d="M749.63,458.18a3.34,3.34,0,0,1-2.12-.75,2.91,2.91,0,0,1-1.07-2.11,2.84,2.84,0,0,1,.83-2.18l98.38-101.05a3.33,3.33,0,0,1,2.37-1,3.3,3.3,0,0,1,2.12.76,2.89,2.89,0,0,1,.24,4.28L752,457.21a3.33,3.33,0,0,1-2.37,1Z"/><path d="M848,351.75a2.73,2.73,0,0,1,1.72.6,2.26,2.26,0,0,1,.18,3.36L751.54,456.76a2.72,2.72,0,0,1-3.63.18,2.27,2.27,0,0,1-.19-3.36l98.39-101.05a2.64,2.64,0,0,1,1.91-.78m0-1.27a3.94,3.94,0,0,0-2.82,1.16L746.82,452.7a3.48,3.48,0,0,0-1,2.65,3.55,3.55,0,0,0,1.3,2.56,4,4,0,0,0,5.35-.26l98.38-101a3.52,3.52,0,0,0,1-2.66,3.58,3.58,0,0,0-1.3-2.56,4,4,0,0,0-2.53-.9Z"/><path class="cls-53" d="M716.35,455.28a3.27,3.27,0,0,1-2.5-1.11L622.18,347.85a2.86,2.86,0,0,1-.69-2.21,2.94,2.94,0,0,1,1.2-2.06,3.36,3.36,0,0,1,4.47.47l91.67,106.32a2.91,2.91,0,0,1-.51,4.27,3.29,3.29,0,0,1-2,.64Z"/><path d="M624.66,343.58a2.66,2.66,0,0,1,2,.89l91.67,106.32a2.26,2.26,0,0,1-.41,3.34,2.65,2.65,0,0,1-1.59.52,2.69,2.69,0,0,1-2-.89L622.66,347.43a2.26,2.26,0,0,1,.41-3.34,2.71,2.71,0,0,1,1.59-.51m0-1.27a3.93,3.93,0,0,0-2.35.76,3.66,3.66,0,0,0-1.46,2.5,3.46,3.46,0,0,0,.85,2.69l91.67,106.32a4,4,0,0,0,5.33.57,3.64,3.64,0,0,0,1.46-2.49,3.52,3.52,0,0,0-.85-2.7L627.64,343.64a3.91,3.91,0,0,0-3-1.33Z"/><g class="cls-54"><g class="cls-54"><path class="cls-1" d="M903.14,304.38l15.36-3.84a1.94,1.94,0,0,1,.8,0l-15.37,3.84A2.09,2.09,0,0,0,903.14,304.38Z"/><g class="cls-55"><g class="cls-54"><path class="cls-1" d="M903.14,304.38l15.36-3.84.17,0-15.36,3.85-.17,0"/><path class="cls-1" d="M903.31,304.35l15.36-3.85.23,0-15.37,3.85-.22,0"/><path class="cls-1" d="M903.53,304.33l15.37-3.85h.2l-15.37,3.84h-.2"/><path class="cls-1" d="M903.73,304.33l15.37-3.84.18,0-15.36,3.84-.19,0"/><path class="cls-1" d="M903.92,304.35l15.36-3.84h0l-15.37,3.84h0"/></g></g></g><g class="cls-54"><path class="cls-1" d="M927.12,374.61l-15.36,3.84c1.37-.34,2.56-2.05,3-4.84,2.79-19.5.69-42-5.9-63-1.13-3.63-3.15-6-4.89-6.28l15.37-3.84c1.73.28,3.75,2.64,4.89,6.28,6.58,21,8.68,43.47,5.89,63C929.68,372.56,928.5,374.26,927.12,374.61Z"/><g class="cls-56"><g class="cls-54"><path class="cls-1" d="M903.93,304.35l15.37-3.84.16,0-15.36,3.85-.17,0"/><path class="cls-1" d="M904.1,304.39l15.36-3.85.18,0-15.36,3.84-.18,0"/><path class="cls-1" d="M904.28,304.43l15.36-3.84.17.06-15.36,3.84-.17-.06"/><path class="cls-1" d="M904.45,304.49l15.36-3.84.17.07-15.36,3.84-.17-.07"/><path class="cls-1" d="M904.62,304.56,920,300.72l.17.08-15.36,3.85-.17-.09"/><path class="cls-1" d="M904.79,304.65l15.36-3.85.17.09L905,304.74l-.17-.09"/><path class="cls-1" d="M905,304.74l15.36-3.85.17.11-15.36,3.85-.17-.11"/><path class="cls-1" d="M905.13,304.85,920.49,301l.17.12L905.3,305l-.17-.11"/><path class="cls-1" d="M905.3,305l15.36-3.84.18.13-15.36,3.85-.18-.14"/><path class="cls-1" d="M905.48,305.1l15.36-3.85.18.15-15.36,3.85a1.19,1.19,0,0,0-.18-.15"/><path class="cls-1" d="M905.66,305.25,921,301.4l.19.17-15.36,3.84-.19-.16"/><path class="cls-1" d="M905.85,305.41l15.36-3.84.19.18L906,305.6c-.06-.07-.13-.13-.19-.19"/><path class="cls-1" d="M906,305.6l15.36-3.85a2.09,2.09,0,0,1,.2.22l-15.36,3.84-.2-.21"/><path class="cls-1" d="M906.24,305.81,921.6,302l.21.23-15.36,3.85-.21-.24"/><path class="cls-1" d="M906.45,306.05l15.36-3.85.22.27-15.36,3.85-.22-.27"/><path class="cls-1" d="M906.67,306.32,922,302.47l.23.31-15.36,3.84-.23-.3"/><path class="cls-1" d="M906.9,306.62l15.36-3.84.24.35L907.14,307l-.24-.35"/><path class="cls-1" d="M907.14,307l15.36-3.84.24.38-15.36,3.84-.24-.38"/><path class="cls-1" d="M907.38,307.35l15.36-3.84.24.41-15.36,3.85-.24-.42"/><path class="cls-1" d="M907.62,307.77,923,303.92c.08.15.16.3.23.45l-15.36,3.84c-.07-.15-.15-.3-.23-.44"/><path class="cls-1" d="M907.85,308.21l15.36-3.84.24.49-15.36,3.84-.24-.49"/><path class="cls-1" d="M908.09,308.7l15.36-3.84c.09.2.18.4.26.61l-15.36,3.84c-.08-.21-.17-.41-.26-.61"/><path class="cls-1" d="M908.35,309.31l15.36-3.84q.25.63.48,1.32c.65,2.1,1.27,4.22,1.84,6.34L910.67,317q-.85-3.19-1.85-6.35c-.14-.46-.3-.9-.47-1.32"/><path class="cls-1" d="M910.67,317,926,313.13c.42,1.6.83,3.21,1.2,4.81l-15.36,3.85q-.57-2.42-1.2-4.81"/><path class="cls-1" d="M911.87,321.79l15.36-3.85c.31,1.33.6,2.65.88,4l-15.36,3.85c-.28-1.33-.57-2.66-.88-4"/><path class="cls-1" d="M912.75,325.77l15.36-3.85c.24,1.19.48,2.38.69,3.58l-15.36,3.84c-.21-1.19-.45-2.38-.69-3.57"/><path class="cls-1" d="M913.44,329.34l15.36-3.84c.21,1.12.4,2.25.59,3.38L914,332.73c-.18-1.13-.37-2.26-.58-3.39"/><path class="cls-1" d="M914,332.73l15.37-3.85c.17,1.12.34,2.24.49,3.35l-15.36,3.85c-.15-1.12-.32-2.24-.5-3.35"/><path class="cls-1" d="M914.52,336.08l15.36-3.85c.16,1.13.3,2.25.43,3.37L915,339.45c-.13-1.12-.27-2.25-.43-3.37"/><path class="cls-1" d="M915,339.45l15.36-3.85q.2,1.71.36,3.42l-15.37,3.84c-.1-1.13-.22-2.27-.35-3.41"/><path class="cls-1" d="M915.3,342.86,930.67,339c.1,1.15.2,2.31.28,3.46l-15.37,3.85c-.08-1.16-.17-2.31-.28-3.47"/><path class="cls-1" d="M915.58,346.33,931,342.48c.08,1.17.14,2.33.19,3.5l-15.36,3.84c0-1.16-.12-2.33-.2-3.49"/><path class="cls-1" d="M915.78,349.82,931.14,346c.06,1.17.09,2.34.12,3.5l-15.36,3.85q0-1.75-.12-3.51"/><path class="cls-1" d="M915.9,353.33l15.36-3.85c0,1.17,0,2.33,0,3.49l-15.36,3.84c0-1.15,0-2.32,0-3.48"/><path class="cls-1" d="M915.92,356.81,931.28,353c0,1.15,0,2.3-.06,3.44l-15.36,3.84c0-1.14.06-2.29.06-3.44"/><path class="cls-1" d="M915.86,360.25l15.36-3.84c0,1.13-.08,2.26-.15,3.38l-15.36,3.85q.09-1.68.15-3.39"/><path class="cls-1" d="M915.71,363.64l15.36-3.85c-.06,1.12-.14,2.23-.23,3.33L915.47,367c.1-1.1.18-2.21.24-3.32"/><path class="cls-1" d="M915.47,367l15.37-3.84c-.1,1.09-.2,2.18-.33,3.26l-15.36,3.85c.12-1.08.23-2.17.32-3.27"/><path class="cls-1" d="M915.15,370.23l15.36-3.85c-.12,1.1-.26,2.19-.41,3.27l-15.36,3.84c.15-1.08.29-2.17.41-3.26"/><path class="cls-1" d="M914.74,373.49l15.36-3.84,0,.12c0,.12,0,.23-.05.35L914.66,374l.06-.35,0-.12"/><path class="cls-1" d="M914.66,374,930,370.12c0,.12,0,.24-.07.36l-15.36,3.84.06-.36"/><path class="cls-1" d="M914.6,374.32,930,370.48c0,.12-.05.24-.08.35l-15.36,3.85c0-.12.05-.24.08-.36"/><path class="cls-1" d="M914.52,374.68l15.36-3.85-.09.35L914.43,375l.09-.34"/><path class="cls-1" d="M914.43,375l15.36-3.84c0,.12-.07.23-.1.35l-15.37,3.84a3.58,3.58,0,0,0,.11-.35"/><path class="cls-1" d="M914.32,375.37l15.37-3.84-.12.35-15.37,3.84a2.06,2.06,0,0,0,.12-.35"/><path class="cls-1" d="M914.2,375.72l15.37-3.84-.15.35-15.36,3.84a3.65,3.65,0,0,0,.14-.35"/><path class="cls-1" d="M914.06,376.07l15.36-3.84a3,3,0,0,1-.17.36l-15.36,3.85c.06-.12.12-.24.17-.37"/><path class="cls-1" d="M913.89,376.44l15.36-3.85a3.55,3.55,0,0,1-.2.39l-15.37,3.84a2.82,2.82,0,0,0,.21-.38"/><path class="cls-1" d="M913.68,376.82,929.05,373c-.1.15-.2.3-.3.43l-15.36,3.85a4.78,4.78,0,0,0,.29-.44"/><path class="cls-1" d="M913.39,377.26l15.36-3.85a3,3,0,0,1-1.63,1.2l-15.36,3.84a3,3,0,0,0,1.63-1.19"/></g></g></g></g><g class="cls-54"><g class="cls-54"><path class="cls-1" d="M929.21,288l15.36-3.84a2,2,0,0,1,.84,0L930.05,288A2.36,2.36,0,0,0,929.21,288Z"/><g class="cls-57"><g class="cls-54"><path class="cls-1" d="M929.21,288l15.36-3.84.18,0L929.39,288l-.18,0"/><path class="cls-1" d="M929.39,288l15.36-3.85.24,0L929.63,288a1,1,0,0,0-.24,0"/><path class="cls-1" d="M929.63,288,945,284.11h.21L929.84,288h-.21"/><path class="cls-1" d="M929.84,288l15.36-3.85.2,0L930,288l-.19,0"/><path class="cls-1" d="M930,288l15.37-3.84h0L930.05,288h0"/></g></g></g><g class="cls-54"><path class="cls-1" d="M956.28,390.53l-15.36,3.84c1.32-.33,2.45-1.87,2.87-4.4,5-29.46,1.7-64.21-9-96.18-1.12-3.35-3-5.54-4.74-5.81l15.36-3.84c1.69.27,3.62,2.45,4.74,5.81,10.7,32,14,66.72,9,96.18C958.73,388.65,957.6,390.2,956.28,390.53Z"/><g class="cls-58"><g class="cls-54"><path class="cls-1" d="M930.05,288l15.36-3.84.17,0L930.22,288l-.17,0"/><path class="cls-1" d="M930.22,288l15.36-3.85.18.05-15.36,3.85-.18-.05"/><path class="cls-1" d="M930.4,288.07l15.36-3.85.18.06-15.36,3.85a.64.64,0,0,0-.18-.06"/><path class="cls-1" d="M930.58,288.13l15.36-3.85.17.08-15.36,3.84-.17-.07"/><path class="cls-1" d="M930.75,288.2l15.36-3.84.18.08-15.36,3.84-.18-.08"/><path class="cls-1" d="M930.93,288.28l15.36-3.84.17.09-15.36,3.85-.17-.1"/><path class="cls-1" d="M931.1,288.38l15.36-3.85.18.11-15.36,3.85-.18-.11"/><path class="cls-1" d="M931.28,288.49l15.36-3.85.17.12-15.36,3.85-.17-.12"/><path class="cls-1" d="M931.45,288.61l15.36-3.85.18.14-15.36,3.84-.18-.13"/><path class="cls-1" d="M931.63,288.74,947,284.9l.18.15-15.36,3.84-.18-.15"/><path class="cls-1" d="M931.81,288.89l15.36-3.84.19.16L932,289.06l-.19-.17"/><path class="cls-1" d="M932,289.06l15.36-3.85.19.19-15.36,3.85-.19-.19"/><path class="cls-1" d="M932.19,289.25l15.36-3.85.2.21-15.36,3.84-.2-.2"/><path class="cls-1" d="M932.39,289.45l15.36-3.84.21.23-15.36,3.85-.21-.24"/><path class="cls-1" d="M932.6,289.69,948,285.84l.22.27L932.81,290a3.17,3.17,0,0,0-.21-.27"/><path class="cls-1" d="M932.81,290l15.37-3.85.22.3L933,290.26c-.08-.11-.15-.21-.23-.3"/><path class="cls-1" d="M933,290.26l15.36-3.85a4,4,0,0,1,.23.34l-15.36,3.84c-.08-.11-.15-.23-.23-.33"/><path class="cls-1" d="M933.27,290.59l15.36-3.84.24.37L933.51,291l-.24-.37"/><path class="cls-1" d="M933.51,291l15.36-3.84.23.4-15.36,3.84-.23-.4"/><path class="cls-1" d="M933.74,291.36l15.36-3.84c.07.14.15.28.22.43L934,291.79l-.22-.43"/><path class="cls-1" d="M934,291.79,949.32,288l.23.46-15.36,3.85c-.08-.16-.15-.32-.23-.47"/><path class="cls-1" d="M934.19,292.26l15.36-3.85.24.56-15.36,3.85-.24-.56"/><path class="cls-1" d="M934.43,292.82,949.79,289c.13.31.25.64.36,1q2.1,6.27,3.81,12.66l-15.36,3.84c-1.14-4.25-2.41-8.48-3.81-12.66-.11-.34-.23-.66-.36-1"/><path class="cls-1" d="M938.6,306.45,954,302.61c.63,2.34,1.22,4.7,1.77,7.05l-15.36,3.85q-.82-3.54-1.77-7.06"/><path class="cls-1" d="M940.37,313.51l15.36-3.85q.64,2.76,1.22,5.53L941.59,319q-.57-2.76-1.22-5.52"/><path class="cls-1" d="M941.59,319,957,315.19c.34,1.67.67,3.34,1,5l-15.37,3.84c-.3-1.67-.63-3.35-1-5"/><path class="cls-1" d="M942.56,324.05l15.37-3.84q.44,2.39.81,4.77l-15.36,3.84c-.25-1.59-.53-3.18-.82-4.77"/><path class="cls-1" d="M943.38,328.82,958.74,325c.26,1.57.49,3.14.71,4.71l-15.37,3.85c-.21-1.57-.45-3.15-.7-4.72"/><path class="cls-1" d="M944.08,333.54l15.37-3.85q.31,2.37.6,4.74l-15.37,3.84c-.18-1.58-.38-3.15-.6-4.73"/><path class="cls-1" d="M944.68,338.27l15.37-3.84c.18,1.6.35,3.2.49,4.8l-15.36,3.84c-.15-1.6-.31-3.2-.5-4.8"/><path class="cls-1" d="M945.18,343.07l15.36-3.84c.15,1.62.29,3.25.4,4.86l-15.37,3.85c-.11-1.62-.24-3.24-.39-4.87"/><path class="cls-1" d="M945.57,347.94l15.37-3.85c.11,1.65.2,3.29.28,4.92l-15.37,3.85c-.07-1.64-.16-3.28-.28-4.92"/><path class="cls-1" d="M945.85,352.86,961.22,349c.07,1.65.12,3.3.16,4.94L946,357.79c0-1.64-.08-3.28-.16-4.93"/><path class="cls-1" d="M946,357.79,961.38,354c0,1.64,0,3.27,0,4.9l-15.36,3.84c0-1.62,0-3.26,0-4.9"/><path class="cls-1" d="M946.05,362.69l15.36-3.84c0,1.62,0,3.23-.09,4.84L946,367.53c0-1.6.08-3.22.09-4.84"/><path class="cls-1" d="M946,367.53l15.36-3.84c-.05,1.59-.12,3.18-.21,4.76l-15.36,3.84c.09-1.58.16-3.16.21-4.76"/><path class="cls-1" d="M945.75,372.29l15.36-3.84c-.09,1.57-.2,3.12-.33,4.67L945.42,377q.2-2.33.33-4.68"/><path class="cls-1" d="M945.42,377l15.36-3.85q-.19,2.31-.45,4.59L945,381.56q.25-2.28.45-4.59"/><path class="cls-1" d="M945,381.56l15.36-3.85c-.17,1.53-.36,3.05-.58,4.56l-15.36,3.84c.21-1.51.41-3,.58-4.55"/><path class="cls-1" d="M944.39,386.11l15.36-3.84c-.18,1.29-.38,2.58-.6,3.86v.05L943.78,390V390c.22-1.28.42-2.56.6-3.86"/><path class="cls-1" d="M943.78,390l15.36-3.85-.06.34-15.36,3.85.06-.34"/><path class="cls-1" d="M943.72,390.37l15.36-3.85c0,.12-.05.23-.07.34l-15.37,3.84c0-.11.06-.22.08-.33"/><path class="cls-1" d="M943.64,390.7,959,386.86l-.09.33L943.56,391a2.66,2.66,0,0,0,.08-.33"/><path class="cls-1" d="M943.56,391l15.36-3.84c0,.11-.06.22-.1.33l-15.36,3.85c0-.11.07-.22.1-.34"/><path class="cls-1" d="M943.46,391.37l15.36-3.85c0,.11-.07.23-.11.33l-15.37,3.85.12-.33"/><path class="cls-1" d="M943.34,391.7l15.37-3.85c-.05.12-.09.23-.14.34L943.21,392c0-.11.09-.23.13-.34"/><path class="cls-1" d="M943.21,392l15.36-3.85c-.05.12-.11.24-.16.35l-15.36,3.85c.05-.12.11-.23.16-.35"/><path class="cls-1" d="M943.05,392.39l15.36-3.85-.21.38-15.36,3.84.21-.37"/><path class="cls-1" d="M942.84,392.76l15.36-3.84a4.38,4.38,0,0,1-.28.42l-15.36,3.84a4.38,4.38,0,0,0,.28-.42"/><path class="cls-1" d="M942.56,393.18l15.36-3.84a3,3,0,0,1-1.64,1.19l-15.36,3.84a3,3,0,0,0,1.64-1.19"/></g></g></g></g><g class="cls-54"><g class="cls-54"><path class="cls-1" d="M955.15,266.35l15.37-3.85a2.06,2.06,0,0,1,.86,0L956,266.31A2.3,2.3,0,0,0,955.15,266.35Z"/><g class="cls-59"><g class="cls-54"><path class="cls-1" d="M955.15,266.35l15.37-3.85.18,0-15.36,3.85-.19,0"/><path class="cls-1" d="M955.34,266.31l15.36-3.85.25,0-15.37,3.85-.24,0"/><path class="cls-1" d="M955.58,266.29,971,262.44h.21l-15.36,3.84a1.61,1.61,0,0,0-.22,0"/><path class="cls-1" d="M955.8,266.29l15.36-3.84.2,0L956,266.31l-.2,0"/><path class="cls-1" d="M956,266.31l15.36-3.84h0L956,266.31h0"/></g></g></g><g class="cls-54"><path class="cls-1" d="M986,408.48l-15.36,3.85c1.28-.32,2.37-1.78,2.81-4.15,7.59-41.48,2.94-91.12-12.77-136.33-1.1-3.19-3-5.27-4.64-5.54l15.36-3.84c1.67.27,3.54,2.34,4.65,5.53,15.7,45.22,20.35,94.86,12.76,136.34C988.36,406.71,987.27,408.16,986,408.48Z"/><g class="cls-60"><g class="cls-54"><path class="cls-1" d="M956,266.31l15.36-3.84.17,0-15.36,3.85-.17,0"/><path class="cls-1" d="M956.19,266.35l15.36-3.85.19.06-15.36,3.84-.19,0"/><path class="cls-1" d="M956.38,266.4l15.36-3.84a.64.64,0,0,1,.18.06l-15.36,3.84-.18-.06"/><path class="cls-1" d="M956.56,266.46l15.36-3.84.18.07-15.36,3.85-.18-.08"/><path class="cls-1" d="M956.74,266.54l15.36-3.85.18.09-15.37,3.84-.17-.08"/><path class="cls-1" d="M956.91,266.62l15.37-3.84.17.09-15.36,3.85-.18-.1"/><path class="cls-1" d="M957.09,266.72l15.36-3.85.18.11-15.36,3.85-.18-.11"/><path class="cls-1" d="M957.27,266.83,972.63,263l.18.12L957.44,267l-.17-.12"/><path class="cls-1" d="M957.44,267l15.37-3.85.18.14-15.37,3.84-.18-.13"/><path class="cls-1" d="M957.62,267.08,973,263.24l.18.15-15.36,3.84-.19-.15"/><path class="cls-1" d="M957.81,267.23l15.36-3.84.18.17L958,267.4l-.18-.17"/><path class="cls-1" d="M958,267.4l15.36-3.84.2.18-15.36,3.85-.2-.19"/><path class="cls-1" d="M958.19,267.59l15.36-3.85.19.21-15.36,3.84-.19-.2"/><path class="cls-1" d="M958.38,267.79,973.74,264l.21.23L958.59,268l-.21-.24"/><path class="cls-1" d="M958.59,268,974,264.18l.21.26-15.36,3.85-.21-.26"/><path class="cls-1" d="M958.8,268.29l15.36-3.85.22.3L959,268.58l-.22-.29"/><path class="cls-1" d="M959,268.58l15.36-3.84c.08.1.15.21.23.33l-15.36,3.84-.23-.33"/><path class="cls-1" d="M959.25,268.91l15.36-3.84.23.36-15.36,3.85-.23-.37"/><path class="cls-1" d="M959.48,269.28l15.36-3.85.22.39-15.36,3.85c-.07-.14-.15-.27-.22-.39"/><path class="cls-1" d="M959.7,269.67l15.36-3.85c.08.14.15.27.22.42l-15.36,3.84c-.07-.14-.14-.28-.22-.41"/><path class="cls-1" d="M959.92,270.08l15.36-3.84a4.71,4.71,0,0,1,.22.45l-15.36,3.84-.22-.45"/><path class="cls-1" d="M960.14,270.53l15.36-3.84.24.56-15.36,3.84-.24-.56"/><path class="cls-1" d="M960.38,271.09l15.36-3.84c.1.24.2.49.29.75q3.53,10.17,6.31,20.59L967,292.43c-1.86-6.93-4-13.81-6.32-20.58-.09-.26-.18-.51-.28-.76"/><path class="cls-1" d="M967,292.43l15.36-3.84c.81,3,1.58,6.09,2.29,9.16l-15.36,3.84q-1.08-4.59-2.29-9.16"/><path class="cls-1" d="M969.27,301.59l15.36-3.84q.89,3.76,1.67,7.55l-15.36,3.85c-.53-2.52-1.08-5-1.67-7.56"/><path class="cls-1" d="M970.94,309.15l15.36-3.85c.47,2.27.91,4.53,1.32,6.8l-15.36,3.84c-.42-2.26-.86-4.53-1.32-6.79"/><path class="cls-1" d="M972.26,315.94l15.36-3.84q.6,3.24,1.12,6.5l-15.37,3.84q-.51-3.24-1.11-6.5"/><path class="cls-1" d="M973.37,322.44l15.37-3.84c.34,2.13.65,4.25,1,6.38l-15.37,3.84q-.44-3.18-1-6.38"/><path class="cls-1" d="M974.32,328.82,989.69,325q.43,3.21.81,6.42l-15.36,3.84c-.25-2.13-.52-4.28-.82-6.42"/><path class="cls-1" d="M975.14,335.24l15.36-3.84q.38,3.25.67,6.51l-15.36,3.84q-.3-3.24-.67-6.51"/><path class="cls-1" d="M975.81,341.75l15.36-3.84q.32,3.3.54,6.59l-15.36,3.84c-.16-2.19-.33-4.39-.54-6.59"/><path class="cls-1" d="M976.35,348.34l15.36-3.84q.22,3.35.38,6.67L976.72,355c-.09-2.21-.22-4.44-.37-6.67"/><path class="cls-1" d="M976.72,355l15.37-3.84q.15,3.36.21,6.69l-15.36,3.84c0-2.22-.12-4.45-.22-6.69"/><path class="cls-1" d="M976.94,361.7l15.36-3.84c.05,2.22.06,4.43.05,6.64L977,368.34c0-2.2,0-4.42,0-6.64"/><path class="cls-1" d="M977,368.34l15.36-3.84q0,3.28-.12,6.56l-15.36,3.84q.11-3.25.12-6.56"/><path class="cls-1" d="M976.87,374.9l15.36-3.84c-.06,2.16-.16,4.31-.28,6.45l-15.36,3.84q.18-3.21.28-6.45"/><path class="cls-1" d="M976.59,381.35,992,377.51q-.19,3.18-.45,6.33l-15.36,3.85q.25-3.15.45-6.34"/><path class="cls-1" d="M976.14,387.69l15.36-3.85c-.18,2.09-.38,4.17-.62,6.23l-15.36,3.84q.35-3.09.62-6.22"/><path class="cls-1" d="M975.52,393.91l15.36-3.84q-.35,3.09-.78,6.15l-15.36,3.84q.43-3,.78-6.15"/><path class="cls-1" d="M974.74,400.06l15.36-3.84c-.29,2.09-.62,4.17-1,6.22l-15.36,3.85c.36-2.06.69-4.13,1-6.23"/><path class="cls-1" d="M973.76,406.29l15.36-3.85c-.1.64-.22,1.27-.33,1.9,0,.07,0,.15,0,.23l-15.36,3.84c0-.07,0-.15,0-.23l.33-1.89"/><path class="cls-1" d="M973.38,408.41l15.36-3.84c0,.11,0,.21-.07.32l-15.36,3.84a3,3,0,0,0,.07-.32"/><path class="cls-1" d="M973.31,408.73l15.36-3.84c0,.11,0,.21-.08.32l-15.36,3.84c0-.1,0-.21.08-.32"/><path class="cls-1" d="M973.23,409.05l15.36-3.84c0,.11-.06.21-.1.32l-15.36,3.84a3,3,0,0,0,.1-.32"/><path class="cls-1" d="M973.13,409.37l15.36-3.84a3,3,0,0,1-.11.32L973,409.7c0-.11.08-.22.11-.33"/><path class="cls-1" d="M973,409.7l15.36-3.85c0,.11-.08.22-.13.33L972.89,410l.13-.33"/><path class="cls-1" d="M972.89,410l15.36-3.85a3.54,3.54,0,0,1-.16.34l-15.36,3.85c.06-.11.11-.23.16-.34"/><path class="cls-1" d="M972.73,410.37l15.36-3.85a3.07,3.07,0,0,1-.2.36l-15.36,3.85c.07-.12.14-.24.2-.36"/><path class="cls-1" d="M972.53,410.73l15.36-3.85a3.07,3.07,0,0,1-.28.42l-15.36,3.85a4.38,4.38,0,0,0,.28-.42"/><path class="cls-1" d="M972.25,411.15l15.36-3.85a3,3,0,0,1-1.63,1.18l-15.36,3.85a3,3,0,0,0,1.63-1.18"/></g></g></g></g><g class="cls-54"><g class="cls-54"><path class="cls-1" d="M539.39,293.58,524,289.73a2.14,2.14,0,0,0-.8,0l15.36,3.85A1.79,1.79,0,0,1,539.39,293.58Z"/><g class="cls-61"><g class="cls-54"><path class="cls-1" d="M539.39,293.58,524,289.73l-.17,0,15.36,3.84.17,0"/><path class="cls-1" d="M539.22,293.54l-15.36-3.84-.23,0L539,293.52l.23,0"/><path class="cls-1" d="M539,293.52l-15.36-3.84h-.2l15.36,3.85h.2"/><path class="cls-1" d="M538.79,293.53l-15.36-3.85-.19,0,15.36,3.85.19,0"/><path class="cls-1" d="M538.6,293.55l-15.36-3.85h0l15.36,3.85h0"/></g></g></g><g class="cls-54"><path class="cls-1" d="M515.41,363.8l15.36,3.85c-1.38-.35-2.56-2-3-4.84-2.79-19.51-.69-42,5.89-63,1.14-3.64,3.16-6,4.89-6.28l-15.36-3.85c-1.73.28-3.75,2.65-4.89,6.28-6.58,21-8.69,43.48-5.89,63C512.84,361.75,514,363.46,515.41,363.8Z"/><g class="cls-62"><g class="cls-54"><path class="cls-1" d="M538.59,293.55l-15.36-3.85-.16,0,15.36,3.84.16,0"/><path class="cls-1" d="M538.43,293.58l-15.36-3.84-.18,0,15.36,3.85.18-.05"/><path class="cls-1" d="M538.25,293.63l-15.36-3.85-.17.06,15.36,3.85.17-.06"/><path class="cls-1" d="M538.08,293.69l-15.36-3.85-.17.07,15.36,3.85.17-.07"/><path class="cls-1" d="M537.91,293.76l-15.36-3.85-.17.09,15.36,3.84.17-.08"/><path class="cls-1" d="M537.74,293.84,522.38,290l-.17.09,15.36,3.84.17-.09"/><path class="cls-1" d="M537.57,293.93l-15.36-3.84-.17.11L537.4,294l.17-.11"/><path class="cls-1" d="M537.4,294,522,290.2l-.18.11,15.37,3.85.17-.12"/><path class="cls-1" d="M537.23,294.16l-15.37-3.85-.17.14,15.36,3.84.18-.13"/><path class="cls-1" d="M537.05,294.29l-15.36-3.84-.19.15,15.37,3.84.18-.15"/><path class="cls-1" d="M536.87,294.44,521.5,290.6l-.18.16,15.36,3.85a1.54,1.54,0,0,1,.19-.17"/><path class="cls-1" d="M536.68,294.61l-15.36-3.85a1.7,1.7,0,0,0-.19.19l15.36,3.84.19-.18"/><path class="cls-1" d="M536.49,294.79,521.13,291l-.21.21L536.29,295a2.09,2.09,0,0,1,.2-.22"/><path class="cls-1" d="M536.29,295l-15.37-3.85-.2.24,15.36,3.84.21-.23"/><path class="cls-1" d="M536.08,295.24l-15.36-3.84-.22.27,15.36,3.84.22-.27"/><path class="cls-1" d="M535.86,295.51l-15.36-3.84-.23.3,15.36,3.85.23-.31"/><path class="cls-1" d="M535.63,295.82,520.27,292l-.24.35,15.36,3.85.24-.35"/><path class="cls-1" d="M535.39,296.17,520,292.32l-.24.38,15.36,3.85.24-.38"/><path class="cls-1" d="M535.15,296.55l-15.36-3.85-.24.42L534.91,297l.24-.41"/><path class="cls-1" d="M534.91,297l-15.36-3.84-.24.44,15.36,3.85.24-.45"/><path class="cls-1" d="M534.67,297.41l-15.36-3.85c-.08.16-.16.33-.23.49l15.36,3.85c.08-.17.15-.33.23-.49"/><path class="cls-1" d="M534.44,297.9l-15.36-3.85-.27.61,15.37,3.85c.08-.21.17-.41.26-.61"/><path class="cls-1" d="M534.18,298.51l-15.37-3.85c-.17.42-.32.86-.47,1.32q-1,3.15-1.84,6.35l15.36,3.84c.57-2.12,1.18-4.24,1.84-6.34q.22-.69.48-1.32"/><path class="cls-1" d="M531.86,306.17l-15.36-3.84q-.64,2.4-1.2,4.81L530.66,311q.55-2.42,1.2-4.81"/><path class="cls-1" d="M530.66,311l-15.36-3.84c-.31,1.32-.61,2.65-.88,4L529.78,315c.27-1.33.57-2.65.88-4"/><path class="cls-1" d="M529.78,315l-15.36-3.84c-.25,1.19-.48,2.38-.7,3.57l15.36,3.84c.22-1.19.45-2.38.7-3.57"/><path class="cls-1" d="M529.08,318.53l-15.36-3.84c-.2,1.13-.4,2.26-.58,3.39l15.36,3.84c.18-1.13.38-2.26.58-3.39"/><path class="cls-1" d="M528.5,321.92l-15.36-3.84c-.18,1.11-.34,2.23-.5,3.35L528,325.27c.16-1.11.32-2.23.5-3.35"/><path class="cls-1" d="M528,325.27l-15.36-3.84c-.15,1.12-.29,2.25-.42,3.37l15.36,3.84c.13-1.12.27-2.24.42-3.37"/><path class="cls-1" d="M527.58,328.64l-15.36-3.84c-.14,1.14-.25,2.28-.36,3.41l15.36,3.85q.16-1.71.36-3.42"/><path class="cls-1" d="M527.22,332.06l-15.36-3.85c-.11,1.16-.2,2.31-.28,3.47l15.36,3.84c.08-1.15.18-2.31.28-3.46"/><path class="cls-1" d="M526.94,335.52l-15.36-3.84c-.08,1.16-.14,2.33-.2,3.49L526.74,339c.06-1.17.12-2.33.2-3.5"/><path class="cls-1" d="M526.74,339l-15.36-3.85c-.05,1.17-.09,2.34-.11,3.51l15.36,3.84c0-1.16.06-2.33.11-3.5"/><path class="cls-1" d="M526.63,342.52l-15.36-3.84c0,1.16,0,2.33,0,3.48L526.61,346c0-1.16,0-2.32,0-3.49"/><path class="cls-1" d="M526.61,346l-15.37-3.85c0,1.15,0,2.3.07,3.44l15.36,3.85c0-1.14-.06-2.29-.06-3.44"/><path class="cls-1" d="M526.67,349.45l-15.36-3.85q0,1.71.15,3.39l15.36,3.84c-.07-1.12-.12-2.25-.15-3.38"/><path class="cls-1" d="M526.82,352.83,511.46,349c.06,1.11.14,2.22.23,3.32l15.36,3.85c-.09-1.1-.17-2.21-.23-3.33"/><path class="cls-1" d="M527.05,356.16l-15.36-3.85c.09,1.1.2,2.19.32,3.27l15.37,3.84c-.13-1.08-.23-2.17-.33-3.26"/><path class="cls-1" d="M527.38,359.42,512,355.58c.13,1.09.27,2.18.42,3.26l15.36,3.85c-.15-1.08-.29-2.17-.41-3.27"/><path class="cls-1" d="M527.79,362.69l-15.36-3.85,0,.12c0,.12,0,.24,0,.35l15.36,3.85c0-.12,0-.23-.05-.35l0-.12"/><path class="cls-1" d="M527.86,363.16l-15.36-3.85a3.29,3.29,0,0,0,.07.36l15.36,3.85c0-.12,0-.24-.07-.36"/><path class="cls-1" d="M527.93,363.52l-15.36-3.85c0,.12,0,.24.08.36L528,363.87c0-.11,0-.23-.08-.35"/><path class="cls-1" d="M528,363.87,512.65,360l.09.34,15.36,3.85-.09-.35"/><path class="cls-1" d="M528.1,364.22l-15.36-3.85a3.57,3.57,0,0,0,.1.35l15.36,3.85c0-.12-.07-.23-.1-.35"/><path class="cls-1" d="M528.2,364.57l-15.36-3.85.12.35,15.36,3.84-.12-.34"/><path class="cls-1" d="M528.32,364.91,513,361.07c0,.12.09.24.14.35l15.37,3.85c-.05-.12-.1-.23-.15-.36"/><path class="cls-1" d="M528.47,365.27l-15.37-3.85c.06.13.11.25.17.37l15.36,3.84-.16-.36"/><path class="cls-1" d="M528.63,365.63l-15.36-3.84.21.38L528.84,366l-.21-.39"/><path class="cls-1" d="M528.84,366l-15.36-3.85c.1.16.19.3.29.44l15.37,3.84a4.67,4.67,0,0,1-.3-.43"/><path class="cls-1" d="M529.14,366.45l-15.37-3.84a3,3,0,0,0,1.64,1.19l15.36,3.85a3,3,0,0,1-1.63-1.2"/></g></g></g></g><g class="cls-54"><g class="cls-54"><path class="cls-1" d="M513.32,277.21,498,273.36a2.29,2.29,0,0,0-.83,0l15.36,3.85A2,2,0,0,1,513.32,277.21Z"/><g class="cls-63"><g class="cls-54"><path class="cls-1" d="M513.32,277.21,498,273.36l-.18,0,15.37,3.84.18,0"/><path class="cls-1" d="M513.14,277.17l-15.37-3.84a.86.86,0,0,0-.23,0l15.36,3.84.24,0"/><path class="cls-1" d="M512.9,277.15l-15.36-3.84h-.21l15.36,3.84h.21"/><path class="cls-1" d="M512.69,277.15l-15.36-3.84-.2,0,15.36,3.85.2,0"/><path class="cls-1" d="M512.49,277.18l-15.36-3.85h0l15.36,3.85h0"/></g></g></g><g class="cls-54"><path class="cls-1" d="M486.25,379.72l15.36,3.85c-1.33-.33-2.45-1.88-2.88-4.4-4.94-29.46-1.69-64.21,9-96.18,1.12-3.36,3.05-5.54,4.74-5.81l-15.36-3.85c-1.7.27-3.62,2.46-4.74,5.81-10.7,32-14,66.72-9,96.18C483.8,377.85,484.92,379.39,486.25,379.72Z"/><g class="cls-64"><g class="cls-54"><path class="cls-1" d="M512.48,277.18l-15.36-3.85-.17,0,15.36,3.84.17,0"/><path class="cls-1" d="M512.31,277.21,497,273.37l-.19.05,15.37,3.84.18-.05"/><path class="cls-1" d="M512.13,277.26l-15.37-3.84-.17.06L512,277.32l.18-.06"/><path class="cls-1" d="M512,277.32l-15.36-3.84-.18.07,15.36,3.84.18-.07"/><path class="cls-1" d="M511.77,277.39l-15.36-3.84-.17.08,15.36,3.85.17-.09"/><path class="cls-1" d="M511.6,277.48l-15.36-3.85-.18.1,15.37,3.84.17-.09"/><path class="cls-1" d="M511.43,277.57l-15.37-3.84-.17.11,15.36,3.84.18-.11"/><path class="cls-1" d="M511.25,277.68l-15.36-3.84-.18.12,15.37,3.84.17-.12"/><path class="cls-1" d="M511.08,277.8,495.71,274l-.17.13,15.36,3.85.18-.14"/><path class="cls-1" d="M510.9,277.94l-15.36-3.85-.19.15,15.36,3.85a1.25,1.25,0,0,1,.19-.15"/><path class="cls-1" d="M510.71,278.09l-15.36-3.85-.18.17,15.36,3.84.18-.16"/><path class="cls-1" d="M510.53,278.25l-15.36-3.84-.2.19,15.36,3.84.2-.19"/><path class="cls-1" d="M510.33,278.44,495,274.6l-.19.2,15.36,3.85.19-.21"/><path class="cls-1" d="M510.14,278.65l-15.36-3.85-.21.24,15.36,3.84.21-.23"/><path class="cls-1" d="M509.93,278.88,494.57,275a3.2,3.2,0,0,0-.22.27l15.36,3.84.22-.27"/><path class="cls-1" d="M509.71,279.15l-15.36-3.84c-.07.09-.15.19-.22.3l15.36,3.84.22-.3"/><path class="cls-1" d="M509.49,279.45l-15.36-3.84-.24.33,15.37,3.85a4,4,0,0,1,.23-.34"/><path class="cls-1" d="M509.26,279.79l-15.37-3.85-.23.37L509,280.16l.24-.37"/><path class="cls-1" d="M509,280.16l-15.36-3.85-.23.4,15.36,3.85.23-.4"/><path class="cls-1" d="M508.79,280.56l-15.36-3.85-.23.43L508.57,281c.07-.15.14-.29.22-.43"/><path class="cls-1" d="M508.57,281l-15.37-3.85c-.07.15-.15.31-.22.47l15.36,3.84c.07-.16.15-.31.23-.46"/><path class="cls-1" d="M508.34,281.45,493,277.61l-.24.56L508.1,282l.24-.56"/><path class="cls-1" d="M508.1,282l-15.36-3.84c-.13.31-.25.63-.36,1-1.4,4.18-2.67,8.41-3.82,12.66l15.37,3.85c1.14-4.26,2.41-8.49,3.81-12.66.11-.34.23-.67.36-1"/><path class="cls-1" d="M503.93,295.65l-15.37-3.85c-.62,2.35-1.22,4.7-1.77,7.06l15.37,3.84q.82-3.54,1.77-7.05"/><path class="cls-1" d="M502.16,302.7l-15.37-3.84c-.42,1.84-.83,3.68-1.21,5.52l15.36,3.85q.57-2.78,1.22-5.53"/><path class="cls-1" d="M500.94,308.23l-15.36-3.85c-.35,1.67-.67,3.35-1,5L500,313.24c.31-1.67.64-3.34,1-5"/><path class="cls-1" d="M500,313.24,484.6,309.4c-.29,1.59-.56,3.18-.82,4.77L499.15,318c.25-1.59.52-3.19.81-4.78"/><path class="cls-1" d="M499.15,318l-15.37-3.85c-.25,1.57-.48,3.15-.7,4.72l15.36,3.84c.22-1.57.45-3.14.71-4.71"/><path class="cls-1" d="M498.44,322.73l-15.36-3.84c-.22,1.58-.42,3.15-.6,4.73l15.36,3.85q.29-2.37.6-4.74"/><path class="cls-1" d="M497.84,327.47l-15.36-3.85c-.18,1.6-.35,3.2-.5,4.8l15.36,3.85c.15-1.6.32-3.2.5-4.8"/><path class="cls-1" d="M497.34,332.27,482,328.42c-.15,1.63-.28,3.25-.39,4.87L497,337.13c.11-1.61.24-3.24.39-4.86"/><path class="cls-1" d="M497,337.13l-15.36-3.84c-.11,1.64-.21,3.28-.28,4.92l15.36,3.84c.08-1.63.17-3.27.28-4.92"/><path class="cls-1" d="M496.67,342.05l-15.36-3.84c-.07,1.65-.13,3.29-.16,4.93L496.51,347c0-1.63.09-3.28.16-4.93"/><path class="cls-1" d="M496.51,347l-15.36-3.84c0,1.64,0,3.28,0,4.9l15.37,3.85c0-1.63,0-3.26,0-4.91"/><path class="cls-1" d="M496.48,351.89,481.11,348c0,1.62,0,3.24.09,4.84l15.36,3.85c-.05-1.61-.07-3.22-.08-4.84"/><path class="cls-1" d="M496.56,356.73l-15.36-3.85c.05,1.6.12,3.18.21,4.76l15.37,3.85c-.1-1.58-.17-3.17-.22-4.76"/><path class="cls-1" d="M496.78,361.49l-15.37-3.85c.09,1.57.2,3.13.34,4.68l15.36,3.84c-.13-1.55-.24-3.11-.33-4.67"/><path class="cls-1" d="M497.11,366.16l-15.36-3.84q.19,2.31.45,4.59l15.36,3.84q-.26-2.28-.45-4.59"/><path class="cls-1" d="M497.56,370.75l-15.36-3.84c.17,1.53.36,3,.58,4.55l15.36,3.85c-.22-1.51-.41-3-.58-4.56"/><path class="cls-1" d="M498.14,375.31l-15.36-3.85c.18,1.3.38,2.58.59,3.86v.06l15.36,3.84v-.05c-.21-1.28-.41-2.57-.59-3.86"/><path class="cls-1" d="M498.74,379.22l-15.36-3.84c0,.11,0,.23.07.34l15.36,3.84c0-.11-.05-.22-.07-.34"/><path class="cls-1" d="M498.81,379.56l-15.36-3.84c0,.11,0,.22.07.33l15.36,3.85c0-.11-.05-.22-.07-.34"/><path class="cls-1" d="M498.88,379.9l-15.36-3.85q0,.18.09.33L499,380.23l-.09-.33"/><path class="cls-1" d="M499,380.23l-15.36-3.85a3.37,3.37,0,0,0,.1.34l15.36,3.84c0-.11-.07-.22-.1-.33"/><path class="cls-1" d="M499.07,380.56l-15.36-3.84c0,.11.07.22.11.33l15.36,3.84c0-.11-.08-.22-.11-.33"/><path class="cls-1" d="M499.18,380.89l-15.36-3.84c0,.11.09.23.14.34l15.36,3.84c-.05-.11-.09-.22-.14-.34"/><path class="cls-1" d="M499.32,381.23,484,377.39c.05.12.1.23.16.35l15.36,3.84a3.73,3.73,0,0,1-.16-.35"/><path class="cls-1" d="M499.48,381.58l-15.36-3.84c.06.13.13.25.2.37L499.69,382c-.08-.12-.14-.25-.21-.38"/><path class="cls-1" d="M499.69,382l-15.37-3.85c.09.15.19.29.28.42L500,382.38a4.38,4.38,0,0,1-.28-.42"/><path class="cls-1" d="M500,382.38l-15.37-3.85a3,3,0,0,0,1.65,1.19l15.36,3.85a3,3,0,0,1-1.64-1.19"/></g></g></g></g><g class="cls-54"><g class="cls-54"><path class="cls-1" d="M487.37,255.54,472,251.7a2.26,2.26,0,0,0-.86,0l15.36,3.85A2.06,2.06,0,0,1,487.37,255.54Z"/><g class="cls-65"><g class="cls-54"><path class="cls-1" d="M487.37,255.54,472,251.7l-.19,0,15.37,3.84.18,0"/><path class="cls-1" d="M487.19,255.5l-15.37-3.84-.24,0,15.36,3.84.25,0"/><path class="cls-1" d="M486.94,255.48l-15.36-3.84h-.22l15.37,3.85h.21"/><path class="cls-1" d="M486.73,255.49l-15.37-3.85-.2,0,15.36,3.85.21,0"/><path class="cls-1" d="M486.52,255.51l-15.36-3.85h0l15.36,3.85h0"/></g></g></g><g class="cls-54"><path class="cls-1" d="M456.55,397.68l15.36,3.84c-1.29-.32-2.38-1.77-2.81-4.14-7.59-41.48-2.94-91.12,12.76-136.34,1.11-3.19,3-5.26,4.65-5.53l-15.36-3.85c-1.67.27-3.54,2.35-4.65,5.54-15.71,45.21-20.35,94.85-12.76,136.33C454.17,395.9,455.26,397.36,456.55,397.68Z"/><g class="cls-66"><g class="cls-54"><path class="cls-1" d="M486.51,255.51l-15.36-3.85-.18,0,15.36,3.84.18,0"/><path class="cls-1" d="M486.33,255.54,471,251.7l-.18.05,15.36,3.84.18-.05"/><path class="cls-1" d="M486.15,255.59l-15.36-3.84-.18.06L486,255.66l.18-.07"/><path class="cls-1" d="M486,255.66l-15.36-3.85-.18.08,15.36,3.84.18-.07"/><path class="cls-1" d="M485.79,255.73l-15.36-3.84-.18.08,15.36,3.85.18-.09"/><path class="cls-1" d="M485.61,255.82,470.25,252a1,1,0,0,0-.17.1l15.36,3.84.17-.09"/><path class="cls-1" d="M485.44,255.91l-15.36-3.84-.18.11L485.26,256l.18-.11"/><path class="cls-1" d="M485.26,256l-15.36-3.84-.18.12,15.36,3.84.18-.12"/><path class="cls-1" d="M485.08,256.14l-15.36-3.84-.18.13,15.36,3.85.18-.14"/><path class="cls-1" d="M484.9,256.28l-15.36-3.85-.18.15,15.36,3.85.18-.15"/><path class="cls-1" d="M484.72,256.43l-15.36-3.85-.19.17,15.36,3.85.19-.17"/><path class="cls-1" d="M484.53,256.6l-15.36-3.85-.19.19,15.36,3.84.19-.18"/><path class="cls-1" d="M484.34,256.78,469,252.94l-.2.2L484.14,257l.2-.21"/><path class="cls-1" d="M484.14,257l-15.36-3.85-.2.24,15.36,3.84.2-.23"/><path class="cls-1" d="M483.94,257.22l-15.36-3.84-.21.26,15.36,3.84.21-.26"/><path class="cls-1" d="M483.73,257.48l-15.36-3.84a3.15,3.15,0,0,0-.22.29l15.36,3.85.22-.3"/><path class="cls-1" d="M483.51,257.78l-15.36-3.85-.23.33,15.36,3.85c.08-.12.15-.23.23-.33"/><path class="cls-1" d="M483.28,258.11l-15.36-3.85c-.08.12-.16.24-.23.37l15.36,3.84.23-.36"/><path class="cls-1" d="M483.05,258.47l-15.36-3.84c-.08.12-.15.25-.23.39l15.37,3.84c.07-.13.14-.26.22-.39"/><path class="cls-1" d="M482.83,258.86,467.46,255l-.21.41,15.36,3.84.22-.41"/><path class="cls-1" d="M482.61,259.27l-15.36-3.84c-.08.15-.15.3-.22.45l15.36,3.85c.07-.16.14-.31.22-.46"/><path class="cls-1" d="M482.39,259.73,467,255.88c-.09.18-.17.37-.25.56l15.37,3.85c.07-.19.16-.38.24-.56"/><path class="cls-1" d="M482.15,260.29l-15.37-3.85c-.09.25-.19.5-.28.76-2.35,6.77-4.46,13.65-6.31,20.58l15.36,3.85q2.77-10.41,6.31-20.59c.09-.26.19-.51.29-.75"/><path class="cls-1" d="M475.55,281.63l-15.36-3.85q-1.21,4.58-2.3,9.16l15.37,3.85c.71-3.07,1.48-6.12,2.29-9.16"/><path class="cls-1" d="M473.26,290.79l-15.37-3.85c-.58,2.52-1.14,5-1.66,7.56l15.36,3.84q.78-3.78,1.67-7.55"/><path class="cls-1" d="M471.59,298.34l-15.36-3.84c-.47,2.26-.91,4.53-1.32,6.79l15.36,3.85c.41-2.27.85-4.53,1.32-6.8"/><path class="cls-1" d="M470.27,305.14l-15.36-3.85q-.6,3.25-1.12,6.5l15.36,3.85q.53-3.25,1.12-6.5"/><path class="cls-1" d="M469.15,311.64l-15.36-3.85q-.51,3.19-1,6.38L468.2,318c.3-2.13.61-4.25.95-6.38"/><path class="cls-1" d="M468.2,318l-15.36-3.85c-.29,2.14-.56,4.29-.81,6.42l15.36,3.85q.38-3.21.81-6.42"/><path class="cls-1" d="M467.39,324.44,452,320.59q-.37,3.27-.68,6.51L466.71,331q.3-3.26.68-6.51"/><path class="cls-1" d="M466.71,331l-15.36-3.85q-.3,3.3-.53,6.59l15.36,3.85q.22-3.29.53-6.59"/><path class="cls-1" d="M466.18,337.54l-15.36-3.85c-.15,2.23-.28,4.46-.38,6.67l15.36,3.85q.15-3.33.38-6.67"/><path class="cls-1" d="M465.8,344.21l-15.36-3.85q-.15,3.36-.22,6.69l15.37,3.84c0-2.22.11-4.44.21-6.68"/><path class="cls-1" d="M465.59,350.89l-15.37-3.84c0,2.22-.06,4.44,0,6.64l15.36,3.85c0-2.21,0-4.42,0-6.65"/><path class="cls-1" d="M465.54,357.54l-15.36-3.85q0,3.3.11,6.56l15.37,3.85q-.11-3.27-.12-6.56"/><path class="cls-1" d="M465.66,364.1l-15.37-3.85q.1,3.24.29,6.45l15.36,3.85c-.12-2.14-.22-4.29-.28-6.45"/><path class="cls-1" d="M465.94,370.55l-15.36-3.85q.18,3.19.45,6.34l15.36,3.84q-.27-3.15-.45-6.33"/><path class="cls-1" d="M466.39,376.88,451,373q.27,3.13.61,6.22L467,383.11q-.35-3.09-.61-6.23"/><path class="cls-1" d="M467,383.11l-15.36-3.85q.36,3.11.78,6.15l15.37,3.85q-.44-3.06-.79-6.15"/><path class="cls-1" d="M467.79,389.26l-15.37-3.85c.3,2.1.63,4.17,1,6.23l15.36,3.84c-.35-2.05-.68-4.13-1-6.22"/><path class="cls-1" d="M468.76,395.48l-15.36-3.84c.11.63.22,1.26.34,1.89,0,.08,0,.16,0,.23l15.37,3.85c0-.08,0-.16,0-.23-.11-.63-.23-1.26-.34-1.9"/><path class="cls-1" d="M469.15,397.61l-15.37-3.85c0,.11.05.22.08.32l15.36,3.85c0-.11-.05-.22-.07-.32"/><path class="cls-1" d="M469.22,397.93l-15.36-3.85a3,3,0,0,0,.08.32l15.36,3.85c0-.11-.06-.21-.08-.32"/><path class="cls-1" d="M469.3,398.25l-15.36-3.85.09.32,15.37,3.85c0-.11-.07-.21-.1-.32"/><path class="cls-1" d="M469.4,398.57,454,394.72l.12.33,15.36,3.84a3,3,0,0,1-.11-.32"/><path class="cls-1" d="M469.51,398.89l-15.36-3.84c0,.11.08.22.13.33l15.36,3.84c-.05-.11-.09-.22-.13-.33"/><path class="cls-1" d="M469.64,399.22l-15.36-3.84c.05.11.1.23.16.34l15.36,3.84a3.54,3.54,0,0,1-.16-.34"/><path class="cls-1" d="M469.8,399.56l-15.36-3.84c.06.12.12.24.19.36L470,399.92c-.06-.11-.13-.23-.19-.36"/><path class="cls-1" d="M470,399.92l-15.36-3.84c.09.15.19.29.28.42l15.36,3.84c-.09-.13-.19-.27-.28-.42"/><path class="cls-1" d="M470.27,400.34l-15.36-3.84a3,3,0,0,0,1.64,1.18l15.36,3.84a3,3,0,0,1-1.64-1.18"/></g></g></g></g></g></svg>