<svg id="Layer_1" data-name="Layer 1" xmlns="http://www.w3.org/2000/svg" viewBox="0 0 1080 1920"><defs><style>.cls-1{fill:#fff;}.cls-2{fill:#1bcfe2;}.cls-3{fill:#828282;}</style></defs><title>roadmap</title><rect class="cls-1" x="-420" y="420" width="1920" height="1080" transform="translate(1500 420) rotate(90)"/><rect class="cls-2" width="1080" height="1920"/><rect class="cls-3" x="750" y="810" width="300" height="300" transform="translate(1860 60) rotate(90)"/><rect class="cls-3" x="750" y="1365" width="300" height="300" transform="translate(2415 615) rotate(90)"/><rect class="cls-3" x="750" y="255" width="300" height="300" transform="translate(1305 -495) rotate(90)"/><rect class="cls-3" x="390" y="810" width="300" height="300" transform="translate(1500 420) rotate(90)"/><rect class="cls-3" x="390" y="1365" width="300" height="300" transform="translate(2055 975) rotate(90)"/><rect class="cls-3" x="390" y="255" width="300" height="300" transform="translate(945 -135) rotate(90)"/><rect class="cls-3" x="30" y="810" width="300" height="300" transform="translate(1140 780) rotate(90)"/><rect class="cls-3" x="30" y="1365" width="300" height="300" transform="translate(1695 1335) rotate(90)"/><rect class="cls-3" x="30" y="255" width="300" height="300" transform="translate(585 225) rotate(90)"/><rect class="cls-3" x="180" y="366.06" width="720" height="80.31"/><rect class="cls-3" x="180" y="919.84" width="720" height="80.31"/><rect class="cls-3" x="180" y="1474.84" width="720" height="80.31"/><rect class="cls-3" x="141.55" y="919.84" width="76.9" height="635.31"/><rect class="cls-3" x="858.22" y="374.22" width="76.9" height="635.31"/></svg>