<svg xmlns="http://www.w3.org/2000/svg" viewBox="0 0 1500 1500"><defs><style>.cls-1{fill:#191919;}.cls-2{fill:#4b4c4c;}.cls-3{fill:#0f162d;}.cls-4{fill:#383838;}.cls-5{fill:#25baf4;stroke-width:1.55px;}.cls-34,.cls-48,.cls-5,.cls-50,.cls-56,.cls-57{stroke:#000;}.cls-13,.cls-14,.cls-15,.cls-16,.cls-17,.cls-39,.cls-40,.cls-41,.cls-42,.cls-43,.cls-49,.cls-5,.cls-51,.cls-52,.cls-53,.cls-57,.cls-61{stroke-miterlimit:10;}.cls-6{fill:#f9f9f9;}.cls-7{opacity:0.76;}.cls-8{opacity:0.54;}.cls-9{opacity:0.89;}.cls-10{fill:#3d3d3d;}.cls-11{fill:#212121;}.cls-12{fill:#2d2d2d;}.cls-13{fill:#e2ab23;stroke:#f4b06c;}.cls-13,.cls-17{stroke-width:4px;}.cls-14{fill:#b71815;stroke:#ef634d;stroke-width:5px;}.cls-15{fill:#46f40c;stroke:#8df268;}.cls-15,.cls-43{stroke-width:6px;}.cls-16,.cls-22{fill:#515150;}.cls-16{stroke:#999;stroke-width:3px;}.cls-17{fill:#f44427;stroke:#757575;opacity:0.53;}.cls-18{fill:#ed4d15;}.cls-19{fill:#020202;}.cls-20{fill:#262626;}.cls-21{fill:#050505;}.cls-23{fill:#303030;}.cls-24{fill:#e83715;}.cls-25{fill:#992617;}.cls-26{fill:#c4c4c4;}.cls-27{fill:#565656;}.cls-28{fill:#17e5e5;}.cls-29{fill:#167f7c;}.cls-30{fill:#1b8782;}.cls-31{fill:#1ae23a;}.cls-32{fill:#0e771a;}.cls-33{fill:#0b5611;}.cls-34{fill:#353535;stroke-width:1.46px;}.cls-34,.cls-48,.cls-50,.cls-56{stroke-linejoin:round;}.cls-35{fill:#6d6c6d;}.cls-36{fill:#b3b3b3;}.cls-37{fill:#f9f7f7;opacity:0.41;}.cls-38{fill:#d3161d;}.cls-39{fill:#77401b;}.cls-39,.cls-51,.cls-52,.cls-61{stroke:#070707;}.cls-39,.cls-40,.cls-61{stroke-width:2px;}.cls-40,.cls-44{fill:#f8c946;}.cls-40{stroke:#020202;}.cls-41,.cls-58{fill:#282828;}.cls-41,.cls-42,.cls-43{stroke:#151616;}.cls-41,.cls-42{stroke-width:1.64px;}.cls-42,.cls-43{fill:#4d4d4d;}.cls-45{fill:#683919;}.cls-46,.cls-52{fill:#945320;}.cls-47{fill:#adadad;}.cls-48{fill:#515051;}.cls-48,.cls-56{stroke-width:2px;}.cls-49{fill:#161616;}.cls-49,.cls-53{stroke:#0a0a0a;}.cls-49,.cls-50,.cls-51,.cls-52,.cls-53,.cls-57{stroke-width:1.73px;}.cls-50,.cls-56{fill:#8e8a8b;}.cls-51{fill:#e2b647;}.cls-53,.cls-57,.cls-61{fill:none;}.cls-54{fill:#dddbd7;}.cls-55{fill:#232323;}.cls-59{fill:#7c7c7c;}.cls-60{fill:#3a3a3a;}.cls-62{fill:#389cce;}.cls-63{fill:#771525;}.cls-64{fill:#5e0e18;}.cls-65{fill:#ef1111;}.cls-66{fill:#efc516;}.cls-67{fill:#25e510;}</style></defs><title>tRobot2</title><g id="Layer_1" data-name="Layer 1"><path class="cls-1" d="M1500,1095.87V1500H0V1195.06c102.06,3.28,209,6.2,265.72,6.2,129,0,120.56-119,120.56-119s-64.49-485.57-78.51-648.45S167.59,274.05,167.59,274.05L0,250.59V0L1125.6,2.67S824.35,153.39,719,202.94s-83.17,165.18-83.17,165.18S682,871.91,698.68,1024.7s101.65,128,101.65,128Z"/><path class="cls-2" d="M326.36,1279c-74.1,0-201.35-3.82-334.74-8.76L.5,148l219,31.32s164.9-4.11,183.21,208.77,81.19,735.44,81.19,735.44S494.92,1279,326.36,1279Z"/><path class="cls-2" d="M1500,0V1189.32l-770.38,62.33s-95.73-3.9-112-141c-19.89-168.09-71-778.47-71-778.47s-24.42-127.33,91.6-181.92C704.25,119.21,840.12,52.09,945,0Z"/><path class="cls-3" d="M266.22,1218.76c-52.51,0-154.58-2.57-266.37-6.71l-16.85-.62V229.91l186.33,26.64c8.19.1,42.06,1.88,76.66,23.77,20.87,13.19,38.06,31.2,51.1,53.52,15.68,26.83,25.3,60,28.62,98.45,13.82,160.62,77.77,642.8,78.42,647.65l.07.53,0,.54c.16,2.36,3.65,58.21-33.91,98.51C346.07,1205.56,311,1218.76,266.22,1218.76Z"/><path class="cls-4" d="M.5,250.09l167.59,24h.51c8.7,0,126.18,2.91,139.67,159.74,14,162.88,78.51,648.45,78.51,648.45s8.41,119-120.56,119c-56.7,0-163.66-2.92-265.72-6.7V250.09m-35-40.36V1228.29l33.7,1.25c112,4.15,214.3,6.72,267,6.72,25.71,0,49-4.12,69.08-12.25a132.56,132.56,0,0,0,47.84-32.56c17.92-19.23,30.26-44.54,35.7-73.21a160.74,160.74,0,0,0,2.85-38.46l-.07-1.08-.14-1.06c-.65-4.85-64.55-486.63-78.34-646.85-3.53-41.1-13.95-76.69-30.94-105.78-14.47-24.76-33.6-44.77-56.85-59.48-36.92-23.35-73.46-26.16-84.59-26.45L5.45,215.45l-39.95-5.72Z"/><path class="cls-3" d="M786.14,1172.56c-27.12,0-91.75-14.14-106-145.12C664,878.92,619.34,393.16,617.33,371.29c-1-5.74-5.25-35.12,2.34-70,11.17-51.45,42.55-90.63,90.74-113.29,104-48.9,403.2-198.58,406.21-200.09l3.54-1.77L1228.68-16H1521l-1.7,1128.86L802,1170.9A73.17,73.17,0,0,1,786.14,1172.56Z"/><path class="cls-4" d="M1503.5,1.5l-1.65,1095.22-702.67,56.85a51.34,51.34,0,0,1-13,1.48c-24.49,0-76-14.11-88.61-129.5C680.89,872.76,634.69,369,634.69,369s-22.18-115.62,83.17-165.18S1124.45,3.52,1124.45,3.52l104.4-2H1503.5m35-35H1228.17l-104.4,2-7.91.15-7.07,3.54c-3,1.5-302.08,151.1-405.83,199.9-53.3,25.08-88,68.44-100.39,125.42-8,36.79-4,67.53-2.61,76,2.72,29.62,46.73,508.4,62.78,655.77,3.27,30,9.31,56.31,18,78.06,8.13,20.43,18.76,37.46,31.6,50.62,20.16,20.66,46.38,32,73.83,32a91.74,91.74,0,0,0,18.4-1.8l700.13-56.64,32.13-2.6,0-32.24L1538.5,1.55l0-35Z"/><path class="cls-5" d="M1500,0V360.06C1314.17,578.75,1014.36,727.3,671.28,747.61c-1.49-15.61-3-31.29-4.45-46.93-16-169-31-332.56-31-332.56S613.66,252.5,719,202.94,1125.6,2.67,1125.6,2.67L1263.6,0Z"/><path class="cls-5" d="M340.77,726.82q-48.4-9.15-95.12-21.71A1225,1225,0,0,1,0,610.27V250.59l167.59,23.46s126.17-3.14,140.18,159.74C313.29,497.9,326.63,612,340.77,726.82Z"/><path class="cls-6" d="M1492.89,418.9a8.69,8.69,0,0,1-1.13,7.4Z"/><path d="M1491.44,419.3a7.6,7.6,0,0,1-1,6.24l2.75,1.16,1.13-7.4c.28-1.89-2.61-2.7-2.9-.8l-1.13,7.4a1.51,1.51,0,0,0,2.75,1.16,10.78,10.78,0,0,0,1.28-8.56C1493.89,416.62,1491,417.42,1491.44,419.3Z"/><g class="cls-7"><path class="cls-6" d="M1500,294.14v65.92C1314.17,578.75,1014.36,727.3,671.28,747.61c-1.49-15.61-3-31.29-4.45-46.93,19.89-4.84,46.06,5.8,59.61-9.85,8.3-9.6,6.7-24.37,12.72-35.54,10.42-19.32,37.2-20.09,59.15-20.07,93.66.09,187-33.32,259.33-92.83,8.67-7.14,17.34-20.61,8.95-28.09-3.4-3-8.36-3.41-12.93-3.61L970,506.93c-26.74-1.21-58.09-5.09-71.26-28.39-5.23-9.26-6.53-20.2-7.11-30.82-.85-15.68-.06-32.46,8.87-45.38,14.44-20.9,43.66-23.88,65.65-36.58,35-20.21,49.49-63.77,80.83-89.27,25.53-20.77,59.46-27.42,92-32.21,18.53-2.72,37.78-5,55.71.42,51.67,15.63,76.3,89.18,130.28,89.7,20.36.2,38.83-10.82,57.59-18.72C1419.47,300.14,1459.82,296.17,1500,294.14Z"/></g><path class="cls-6" d="M245.65,705.11A1225,1225,0,0,1,0,610.27v-44c31.88-9.71,78.57,7.15,99.18,24.59,20.19,17.09,33.51,40.73,50.34,61.13,7.53,9.14,16.55,18.09,28.14,20.52,7.72,1.62,15.8.14,23.6,1.38,12.81,2,23.27,11,32.71,20Q239.88,699.4,245.65,705.11Z"/><path class="cls-6" d="M0,446.8c16.81,3.72,35.68-2.63,51.76-10.38,19.63-9.47,39.91-21.23,61.58-19a8.47,8.47,0,0,1,4.46,1.41c2,1.55,2.35,4.42,2,6.91-1.53,11-12.81,17.34-21.92,23.71S80.14,467.7,86,477.16a257.86,257.86,0,0,0,144.49-72.79c3.85-3.87,7.69-8.07,9.27-13.3s.18-11.75-4.56-14.47c-3.35-1.93-7.49-1.59-11.34-1.19q-79.32,8.31-158.47,18.21c.42-20.33,18.83-35.41,36.78-45,12-6.4,27-16.83,22.47-29.67-3.83-11-18.56-12.32-30.15-11.58q-47.35,3-94.47,8.81v32.58a115.35,115.35,0,0,1,48.4-12.3c4.92,18.66-8,37.34-22.43,50.13-8.45,7.48-17.88,14.3-26,22.13Z"/><g class="cls-8"><path class="cls-6" d="M147.17,552.58c-9.13-8.67-8.44-24.47-.77-34.45s20.49-14.8,33-16c2.32-.22,4.82-.3,6.78,1s2.84,3.29,3.49,5.38c5.5,17.63-7.32,37.87.39,54.66,9,19.59,39.25,20.58,49.74,39.41,4.06,7.29,4.37,16.07,7.39,23.85,5.62,14.51,21.49,24.34,37,22.92a37.39,37.39,0,0,1,9.07,18.37c-7.25,9.37-22,4.87-32.62-.43l-73.88-37c-14.75-7.4-30-15.18-40.27-28.08-5.66-7.11-9.56-15.47-15.07-22.7C109,550,66.67,546.07,34.84,527.15c-2.23-1.32-4.59-3-5.24-5.47-1-3.76,2.26-7.19,5.28-9.63,7.25-5.88,15.37-11.36,24.64-12.5s19.81,3.37,22.77,12.22c1.16,3.46,1.11,7.26,2.57,10.6,5.26,12,23.75,9.16,34.24,17.08,4.61,3.48,7.38,8.91,11.8,12.63s12.14,4.92,15.28.08"/></g><g class="cls-9"><path class="cls-6" d="M710.58,342.12a160,160,0,0,1,66.8-90.77c47.66-30.71,108-33.84,159.31-58,60.61-28.57,107-85.72,172-102,11-2.77,22.78-4.25,33.78-1.3s21.15,11.08,23.9,22.13c1.89,7.56.21,15.57-2.43,22.9-13.87,38.37-52.15,62.39-90.34,76.74s-79.2,22.21-114.4,42.84c-16.55,9.71-31.44,22-45.24,35.37-10.78,10.41-21,21.56-28.74,34.39S872.28,351.77,863.51,364c-13.9,19.46-35.55,31.66-53.19,47.82s-32,40.56-24.36,63.21c5.67,16.78,22.07,27.77,38.84,33.47s34.67,7.34,51.61,12.51c4.36,1.33,8.77,3,12.09,6.1,7.58,7.15,6.69,20.21.48,28.58s-16.3,12.93-26.25,16c-29.43,9.18-62.44,8.38-90.13-5.17s-49.2-40.49-53.29-71c-1.51-11.31-.94-23.56-7.17-33.13-4.73-7.25-12.61-11.69-19.2-17.31-18.32-15.63-26.47-42.22-20.05-65.43,2.28-8.27,6.69-16.52,14.25-20.57,5.11-2.74,11.17-3.3,16.29-6,22.42-11.93,13.58-54.73,37.68-62.75"/></g><path class="cls-6" d="M1500,0V215.32c-10.35,3.11-21.93,3.83-32.79,4.23-2.14.08-4.4.13-6.27-.92-3.84-2.17-4-7.48-4.4-11.87-1.71-18.17-17.78-33.89-36-35.22a31,31,0,0,0-17.73,3.67c-7.85,4.53-12.66,12.76-17.49,20.42a283.18,283.18,0,0,1-35.46,45.2c-11.39,11.83-24.54,23-40.53,26.74s-35.29-2.42-41.93-17.44c-1.76-4-2.61-8.41-5.16-11.93-4.37-6-12.47-7.78-19.86-8.59-30.94-3.41-62.72,1.88-93.08-5-7.52-1.71-16.48-6.43-15.64-14.09.75-6.9,8.75-9.95,14.94-13.09,9.29-4.73,16.61-12.47,24-19.78C1236.91,114.36,1323.18,72.2,1375.76,0H1500Z"/></g><g id="Layer_2" data-name="Layer 2"><polygon class="cls-10" points="148.67 190.56 148.82 203.75 137.47 210.48 125.97 204.01 125.82 190.82 137.17 184.09 148.67 190.56"/><polygon class="cls-10" points="329.17 262.98 329.32 276.18 317.97 282.9 306.47 276.44 306.32 263.24 317.67 256.52 329.17 262.98"/><polygon class="cls-10" points="381.14 361.69 381.29 374.88 369.94 381.61 358.44 375.14 358.29 361.95 369.64 355.22 381.14 361.69"/><polygon class="cls-10" points="398.24 494.61 398.39 507.8 387.04 514.53 375.54 508.06 375.39 494.87 386.74 488.14 398.24 494.61"/><polygon class="cls-10" points="415.34 624.23 415.49 637.42 404.14 644.15 392.64 637.68 392.49 624.49 403.84 617.77 415.34 624.23"/><polygon class="cls-10" points="429.52 757.09 429.67 770.28 418.32 777.01 406.82 770.54 406.67 757.35 418.02 750.62 429.52 757.09"/><polygon class="cls-10" points="446.06 898.56 446.21 911.75 434.86 918.48 423.36 912.01 423.21 898.82 434.56 892.09 446.06 898.56"/><polygon class="cls-10" points="460.58 1043.27 460.73 1056.46 449.38 1063.18 437.88 1056.72 437.73 1043.53 449.08 1036.8 460.58 1043.27"/><polygon class="cls-10" points="446.06 1191.2 446.21 1204.4 434.86 1211.12 423.36 1204.65 423.21 1191.46 434.56 1184.74 446.06 1191.2"/><polygon class="cls-10" points="329.17 1250.05 329.32 1263.24 317.97 1269.97 306.47 1263.5 306.32 1250.31 317.67 1243.58 329.17 1250.05"/><polygon class="cls-10" points="181.74 1250.05 181.88 1263.24 170.53 1269.97 159.03 1263.5 158.88 1250.31 170.24 1243.58 181.74 1250.05"/><polygon class="cls-10" points="59.86 1246.56 60.01 1259.75 48.66 1266.47 37.16 1260.01 37.01 1246.82 48.36 1240.09 59.86 1246.56"/><polygon class="cls-10" points="56.68 179.24 56.83 192.44 45.48 199.16 33.98 192.69 33.83 179.5 45.18 172.78 56.68 179.24"/><polygon class="cls-10" points="243.66 205.59 243.81 218.78 232.46 225.51 220.96 219.04 220.81 205.85 232.16 199.13 243.66 205.59"/><polygon class="cls-10" points="880.57 61.09 880.72 74.29 869.36 81.01 857.86 74.55 857.72 61.35 869.07 54.63 880.57 61.09"/><polygon class="cls-10" points="737.27 124.81 737.42 138 726.07 144.73 714.57 138.26 714.42 125.07 725.77 118.34 737.27 124.81"/><polygon class="cls-10" points="622.86 205.59 623.01 218.78 611.66 225.51 600.16 219.04 600.01 205.85 611.36 199.13 622.86 205.59"/><polygon class="cls-10" points="584.52 340.42 584.67 353.61 573.32 360.34 561.82 353.87 561.67 340.68 573.02 333.95 584.52 340.42"/><polygon class="cls-10" points="595.71 485.1 595.86 498.29 584.51 505.02 573.01 498.55 572.86 485.36 584.21 478.63 595.71 485.1"/><polygon class="cls-10" points="607.15 612.08 607.3 625.27 595.95 632 584.45 625.53 584.3 612.34 595.65 605.61 607.15 612.08"/><polygon class="cls-10" points="622.79 740.88 622.94 754.08 611.59 760.8 600.09 754.34 599.94 741.14 611.29 734.42 622.79 740.88"/><polygon class="cls-10" points="635.52 872.92 635.67 886.12 624.32 892.84 612.82 886.38 612.67 873.18 624.02 866.46 635.52 872.92"/><polygon class="cls-10" points="651.14 1013.88 651.29 1027.07 639.94 1033.8 628.44 1027.33 628.29 1014.14 639.64 1007.41 651.14 1013.88"/><polygon class="cls-10" points="676.1 1135.14 676.25 1148.33 664.9 1155.06 653.4 1148.59 653.25 1135.4 664.6 1128.67 676.1 1135.14"/><polygon class="cls-10" points="784.04 1212.04 784.19 1225.24 772.84 1231.96 761.34 1225.49 761.19 1212.3 772.54 1205.58 784.04 1212.04"/><polygon class="cls-10" points="921.05 1198.03 921.21 1211.22 909.86 1217.95 898.36 1211.48 898.21 1198.29 909.55 1191.56 921.05 1198.03"/><polygon class="cls-10" points="1052.45 1191.04 1052.6 1204.24 1041.25 1210.96 1029.75 1204.5 1029.6 1191.3 1040.95 1184.58 1052.45 1191.04"/><polygon class="cls-10" points="1213.8 1178.11 1213.95 1191.3 1202.6 1198.03 1191.1 1191.56 1190.95 1178.37 1202.3 1171.64 1213.8 1178.11"/><polygon class="cls-10" points="1353.29 1164.76 1353.44 1177.95 1342.09 1184.67 1330.59 1178.21 1330.44 1165.01 1341.79 1158.29 1353.29 1164.76"/></g><g id="Layer_3" data-name="Layer 3"><polygon class="cls-10" points="1500 1251.65 1500 1500 725.92 1500 692.69 1327.28 1500 1251.65"/><polygon class="cls-11" points="692.69 1327.28 664.75 1375.82 692.69 1500 725.92 1500 692.69 1327.28"/><polygon class="cls-10" points="449.23 1345.52 434.71 1500 0 1500 0 1339.44 449.23 1345.52"/><polygon class="cls-11" points="449.23 1345.52 484.08 1394.18 473.15 1500 434.71 1500 449.23 1345.52"/><polygon class="cls-12" points="1208.76 1500 830.16 1500 793.73 1345.52 1150.22 1310 1208.76 1500"/><ellipse class="cls-13" cx="873.84" cy="1399.67" rx="36.38" ry="43.84" transform="translate(-313.89 254.25) rotate(-14.06)"/><ellipse class="cls-14" cx="987.07" cy="1387.95" rx="36.38" ry="43.84" transform="translate(-307.65 281.42) rotate(-14.06)"/><ellipse class="cls-15" cx="1096.52" cy="1374.93" rx="36.38" ry="43.84" transform="translate(-301.2 307.62) rotate(-14.06)"/><path class="cls-16" d="M1044.59,1500H991.82c-4.1-17.07,4-33.69,18.13-37.24s29.34,7.47,33.64,24.67A37.43,37.43,0,0,1,1044.59,1500Z"/><polygon class="cls-17" points="1359.44 1341.81 1208.14 1361.18 1192.65 1308.96 1338.07 1292.49 1359.44 1341.81"/><path class="cls-18" d="M1215.56,1340.21l-.22-1.42,1.67-2c4-4.78,5.78-7.28,5.42-9.86-.26-1.74-1.4-3.23-4.11-2.86a6.34,6.34,0,0,0-3.64,2l-1-1.53a8.22,8.22,0,0,1,4.88-2.42c3.92-.53,6,1.78,6.32,4.23.47,3.16-1.58,6-4.89,10l-1.26,1.46v0l8.16-1.09.29,1.92Z"/><path class="cls-18" d="M1240.68,1327.94c.87,5.82-.94,9.34-5,9.87-3.55.48-6.42-2.33-7.33-8s1.29-9.25,5-9.75S1239.86,1322.48,1240.68,1327.94Zm-9.83,1.58c.66,4.45,2.5,6.78,4.73,6.49,2.52-.34,3.31-3.27,2.65-7.64-.63-4.21-2.19-6.83-4.74-6.49C1231.34,1322.17,1230.15,1324.86,1230.85,1329.52Z"/><path class="cls-18" d="M1242.86,1325.71a1.58,1.58,0,0,1,1.43-1.88,1.65,1.65,0,0,1,1.9,1.44,1.56,1.56,0,0,1-1.44,1.85A1.63,1.63,0,0,1,1242.86,1325.71Zm1.4,9.3a1.59,1.59,0,0,1,1.43-1.89,1.64,1.64,0,0,1,1.89,1.44,1.56,1.56,0,0,1-1.43,1.86A1.63,1.63,0,0,1,1244.26,1335Z"/><path class="cls-18" d="M1260.82,1325.25c.88,5.82-.94,9.34-5,9.87-3.55.48-6.43-2.33-7.34-8s1.3-9.25,5-9.75S1260,1319.79,1260.82,1325.25Zm-9.83,1.58c.67,4.45,2.5,6.78,4.74,6.48,2.52-.33,3.3-3.26,2.65-7.63-.64-4.21-2.2-6.83-4.74-6.49C1251.48,1319.48,1250.29,1322.17,1251,1326.83Z"/><path class="cls-18" d="M1273.63,1315l.23,1.53-5.57,16.65-2.54.34,5.61-16.2v0l-8.89,1.19-.29-1.93Z"/><path class="cls-18" d="M1277.36,1321.1a1.58,1.58,0,0,1,1.43-1.88,1.64,1.64,0,0,1,1.89,1.44,1.56,1.56,0,0,1-1.43,1.86A1.64,1.64,0,0,1,1277.36,1321.1Zm1.39,9.3a1.59,1.59,0,0,1,1.43-1.88,1.64,1.64,0,0,1,1.9,1.44,1.56,1.56,0,0,1-1.43,1.85A1.64,1.64,0,0,1,1278.75,1330.4Z"/><path class="cls-18" d="M1284.55,1331l-.21-1.43,1.66-2c4-4.78,5.78-7.27,5.42-9.86-.26-1.73-1.39-3.22-4.11-2.86a6.34,6.34,0,0,0-3.64,2l-1-1.52a8.23,8.23,0,0,1,4.89-2.43c3.91-.52,5.94,1.79,6.31,4.23.48,3.17-1.57,6-4.88,10l-1.27,1.46v0l8.17-1.09.28,1.93Z"/><path class="cls-18" d="M1309.67,1318.72c.88,5.82-.93,9.34-5,9.88-3.55.47-6.43-2.34-7.34-8s1.3-9.26,5-9.75S1308.85,1313.27,1309.67,1318.72Zm-9.83,1.58c.67,4.45,2.5,6.79,4.74,6.49,2.52-.34,3.3-3.26,2.65-7.63s-2.2-6.83-4.74-6.49C1300.33,1313,1299.14,1315.64,1299.84,1320.3Z"/><path class="cls-18" d="M1313.45,1324.42a8.79,8.79,0,0,0,4.18.55c3.16-.43,3.86-2.45,3.61-3.87-.38-2.39-2.83-3.12-5.21-2.8l-1.37.18-.26-1.73,1.37-.19c1.79-.23,3.93-1.41,3.62-3.43-.2-1.37-1.31-2.46-3.57-2.16a6.86,6.86,0,0,0-3.47,1.62l-.9-1.6a9,9,0,0,1,4.56-2c3.58-.48,5.5,1.3,5.82,3.38.26,1.77-.63,3.42-2.76,4.48v0a4.72,4.72,0,0,1,4.72,3.86c.41,2.74-1.5,5.44-5.86,6a9.82,9.82,0,0,1-4.9-.53Z"/><path class="cls-18" d="M1336.18,1308.63l-6.93.92,0,4.49a10.15,10.15,0,0,1,1.46-.3,8.23,8.23,0,0,1,4.06.4,5,5,0,0,1,3.26,4c.5,3.34-2,6.22-5.89,6.75a9.46,9.46,0,0,1-4.69-.45l.35-1.84a8.73,8.73,0,0,0,4,.42c2.32-.31,4.09-2,3.75-4.28s-2.16-3.58-5.8-3.1a20.33,20.33,0,0,0-2.49.52l-.06-8.37,8.7-1.16Z"/><path class="cls-19" d="M1026.12,1500h-13.34l-14.2-21.49a5.59,5.59,0,0,1,1.58-7.71,5.58,5.58,0,0,1,7.7,1.58Z"/><path class="cls-16" d="M1148.91,1500h-42.06a37.06,37.06,0,0,1-6.29-13.34c-4.31-17.2,3.77-34,18-37.62s29.33,7.47,33.64,24.67C1154.65,1483.34,1153.18,1492.86,1148.91,1500Z"/><path class="cls-19" d="M1143.24,1500H1130.5l-23.27-35.21a5.59,5.59,0,0,1,1.58-7.71,5.58,5.58,0,0,1,7.7,1.58l25.89,39.16A5.32,5.32,0,0,1,1143.24,1500Z"/><path class="cls-20" d="M270.61,1382.84v36.88l-135-3.51c-3.79,0-6.86-8.26-6.86-18.44s3.07-18.44,6.86-18.44h.35Z"/><polygon class="cls-21" points="147.71 1430.49 252.87 1432.18 233.28 1500 123.24 1500 147.71 1430.49"/><ellipse class="cls-22" cx="270.61" cy="1401.28" rx="6.87" ry="18.44"/><polygon class="cls-20" points="233.28 1418.75 229.33 1470.25 236.16 1447.23 237.85 1418.87 233.28 1418.75"/><polygon class="cls-23" points="233.28 1418.75 220.33 1418.75 216.02 1470.25 229.33 1470.25 233.28 1418.75"/><polygon class="cls-20" points="171.84 1416.95 167.88 1468.45 174.71 1445.43 176.4 1417.07 171.84 1416.95"/><polygon class="cls-23" points="171.84 1416.95 158.89 1416.95 154.57 1468.45 167.88 1468.45 171.84 1416.95"/><polygon class="cls-12" points="112.85 1404.19 76.15 1500 0 1500 0 1401.28 112.85 1404.19"/><polygon class="cls-24" points="49.17 1418.75 90.6 1419.72 80.7 1442.7 37.95 1440.7 49.17 1418.75"/><polygon class="cls-25" points="37.95 1440.7 37.95 1445.48 80.18 1447.31 80.7 1442.7 37.95 1440.7"/><polygon class="cls-25" points="90.6 1419.72 89.8 1425.51 80.18 1447.31 80.7 1442.7 90.6 1419.72"/><polygon class="cls-24" points="33.09 1455.88 74.52 1456.84 64.62 1479.83 21.87 1477.83 33.09 1455.88"/><polygon class="cls-25" points="21.87 1477.83 21.87 1482.61 64.1 1484.43 64.62 1479.83 21.87 1477.83"/><polygon class="cls-25" points="74.52 1456.84 73.72 1462.63 64.1 1484.43 64.62 1479.83 74.52 1456.84"/><polygon class="cls-26" points="57.97 1495.39 55.98 1500 13.69 1500 16.54 1494.42 57.97 1495.39"/><polygon class="cls-27" points="57.97 1495.39 57.33 1500 55.98 1500 57.97 1495.39"/><polygon class="cls-28" points="30.54 1416.42 20.64 1439.4 0 1438.43 0 1415.7 30.54 1416.42"/><polygon class="cls-29" points="20.64 1439.4 20.12 1444 0 1443.13 0 1438.43 20.64 1439.4"/><polygon class="cls-30" points="30.54 1416.42 29.74 1422.2 20.12 1444.01 20.64 1439.4 30.54 1416.42"/><polygon class="cls-31" points="14.92 1454.54 5.02 1477.52 0 1477.29 0 1454.19 14.92 1454.54"/><polygon class="cls-32" points="5.02 1477.52 4.49 1482.13 0 1481.94 0 1477.29 5.02 1477.52"/><polygon class="cls-33" points="14.92 1454.54 14.11 1460.33 4.5 1482.13 5.02 1477.52 14.92 1454.54"/></g><g id="Layer_4" data-name="Layer 4"><path class="cls-34" d="M320,1332.28a126,126,0,0,1-.68-21.27c1.46-29.67,6.58-119.63,17.41-175.64,6.37-33,9.64-55.29,13-72.19a131.25,131.25,0,0,1,24.32-53.82c8.06-10.58,17.39-22.54,33.22-33.71,20.66-14.58,45.44-20.55,70.59-23.2,62.68-6.62,95.47-13.42,108.27-12.61,13.68,5.1,76.8,45.52,91.17,89.27,10.36,31.56,18.63,76,4.53,116.11s-64.32,228.11-103.3,241.34C533.05,1402,412,1425,371,1408.28,334.14,1393.31,324,1365.25,320,1332.28Z"/><path class="cls-35" d="M536.94,1389.12a59.52,59.52,0,0,1-22.86-4.35c-33.39-13.56-42.81-38-46.69-70.39a120.08,120.08,0,0,1-.65-20.12c1.32-26.8,6.47-118.6,17.3-174.66,3.52-18.23,6.15-33.51,8.26-45.78,1.74-10.12,3.25-18.86,4.75-26.37a124.88,124.88,0,0,1,23-51c7.25-9.52,16.28-21.36,31.7-32.25a121.71,121.71,0,0,1,66.8-21.93c2.09-.07,4.21-.1,6.3-.1,40.79,0,71.88,12.06,85.15,17.21,1.32.51,2.46,1,3.44,1.32l1.74.65c7.94,2.93,24.47,9,40.67,19.47,19.5,12.55,32.11,27.22,37.48,43.6,9.66,29.4,18.3,72.64,4.59,111.65-6.23,17.73-37,63.78-76.52,114.58-40.51,52.07-76.49,91.47-91.67,100.39l-7.56,4.48C595.72,1371.28,565.7,1389.12,536.94,1389.12Z"/><path d="M624.89,949.14c39.48,0,69.72,11.73,82.63,16.74,1.35.52,2.52,1,3.52,1.35l1.77.66c7.71,2.84,23.76,8.77,39.32,18.79,18.12,11.67,29.77,25.1,34.64,39.93,16.89,51.42,11.84,86.67,4.63,107.19-5.91,16.82-36.93,63.14-75.44,112.62-39.4,50.64-75.46,90.29-89.71,98.67l-7.59,4.49c-25.71,15.28-54.86,32.6-81.72,32.6a52.85,52.85,0,0,1-20.25-3.83c-14.27-5.8-24.44-14.12-31.08-25.43-5.76-9.79-9.25-21.93-11.34-39.37a113.59,113.59,0,0,1-.6-19c1.32-26.68,6.43-118.07,17.18-173.68,3.53-18.3,6.17-33.61,8.29-45.92,1.73-10.07,3.23-18.77,4.71-26.19a117.87,117.87,0,0,1,21.75-48.12c7-9.15,15.63-20.52,30.18-30.79a114.82,114.82,0,0,1,63-20.67c2-.06,4.07-.09,6.09-.09h0m0-13.88c-2.14,0-4.31,0-6.51.1a129.14,129.14,0,0,0-70.59,23.2c-15.83,11.18-25.16,23.14-33.22,33.72a131.21,131.21,0,0,0-24.32,53.81c-3.37,16.91-6.64,39.21-13,72.2-10.82,56-16,146-17.41,175.63a126,126,0,0,0,.68,21.28c3.94,33,14.12,61,51,76a67.07,67.07,0,0,0,25.47,4.86c33.6,0,68.07-22.39,96.34-39,35.49-20.86,157.11-178.54,171.21-218.65s5.83-84.55-4.54-116.12c-14.37-43.75-70.38-62.94-84.05-68-11.08-4.14-45-19-91-19Z"/><ellipse class="cls-36" cx="696.38" cy="1076.67" rx="73.82" ry="92.39" transform="translate(-243.98 204.96) rotate(-14.28)"/><ellipse class="cls-36" cx="637.61" cy="1227.23" rx="52.89" ry="66.19" transform="translate(-282.92 195.11) rotate(-14.28)"/><ellipse class="cls-36" cx="548.33" cy="1303.69" rx="41.62" ry="52.08" transform="translate(-304.53 175.46) rotate(-14.28)"/><path class="cls-37" d="M336.75,1135.37l23-41.7,20.32,76.1s30.54-120.44,30.77-115.79-.88,69-.88,69l28.17-49.23,0,68.64,30.51-49.18-.63,35.09,11.39-21.45-40.29,130.63,1.25-60-29.73,67.28L408,1174.15l-24,59.65L364.48,1161l-9.87,38.2,1.38-71.58-14.48,59.57Z"/><polygon class="cls-37" points="467.35 953.78 425.59 990.04 470.41 965.82 439.39 1000.43 502.9 956.32 492.96 972.9 538.29 945.07 467.35 953.78"/><ellipse class="cls-38" cx="700.96" cy="1075.5" rx="25.1" ry="34.52" transform="translate(-243.55 206.05) rotate(-14.28)"/><ellipse class="cls-38" cx="640.54" cy="1229.2" rx="21.68" ry="29.8" transform="translate(-505.29 449.26) rotate(-28.23)"/><ellipse class="cls-38" cx="549.21" cy="1307.13" rx="16.06" ry="22.08" transform="matrix(0.88, -0.47, 0.47, 0.88, -553.02, 415.33)"/><path class="cls-39" d="M234.68,834.47,447.6,852.4c36.33,1.94,61.45,9.62,61.92,44.67h0c-3.27,34.16-21.4,36.91-55.17,40.38L227.28,964.67a63.92,63.92,0,0,1-64.6-62.86h0C162.2,866.75,199.62,835,234.68,834.47Z"/><path class="cls-40" d="M250.93,835.58,473,850.78c36.33,1.94,40.52,81.58,6.75,85.05L252.67,963.05a63.93,63.93,0,0,1-64.61-62.86h0A63.94,63.94,0,0,1,250.93,835.58Z"/><path class="cls-41" d="M185,873.17s1.14-10.74,17.38-22.53c-20.45-18.45-76-55.56-85.81-51.73-6.69,2.61-15,12.45-22.57,22-6.76,8.58-4.34,21,5.81,25.08,30.33,12.12,77.65,29.44,77.65,29.44Z"/><path class="cls-42" d="M202.76,850.35c-20.45-18.44-69.9-60.63-79.73-56.8-6.68,2.61-16,11.78-23.71,20.39a15.69,15.69,0,0,0,5.8,25.08c30.33,12.12,77.7,35.56,80.36,34.82C188,861.23,195.25,854.5,202.76,850.35Z"/><path class="cls-41" d="M180,915.78s-5.59-9.25.21-28.46C152.8,885,86.12,889,80.62,898c-3.75,6.12-4.43,19-4.66,31.18-.2,10.92,9.26,19.37,19.8,16.46,31.48-8.69,79.64-23.52,79.64-23.52Z"/><path class="cls-42" d="M180.39,886.84c-27.44-2.32-92.33-6-97.84,3C78.8,896,76.93,908.89,76,920.41a15.69,15.69,0,0,0,19.79,16.46c31.49-8.69,83.38-18.67,85.06-20.87C175.24,904.41,176.93,894.69,180.39,886.84Z"/><path class="cls-41" d="M209.44,952.76s-10.31-3.22-18.7-21.45c-22.08,16.45-60,42.91-58.16,53.29,1.25,7.07,1.21,8,9.11,17.32,7.09,8.31,18.65,7.54,25.73-.79A273,273,0,0,1,210.2,960.6Z"/><path class="cls-42" d="M190.54,930.85c-22.09,16.45-63.78,35.95-61.94,46.33,1.25,7.07.35,8.88,7.28,18.13,6.55,8.75,18.53,7.43,25.73-.79,21.48-24.48,48.79-39.37,48.58-42.13C198.33,947.42,193.15,939,190.54,930.85Z"/><path class="cls-41" d="M227,834.51l-16.84,11.84s-6.82-.75-8.29-1.05c-8.27-1.68-41.84-59.52-30.06-66.12s29.37-11.67,33.11-8.77c.47.37,6.33,2.82,6.33,2.82S230.61,835.5,227,834.51Z"/><path class="cls-42" d="M235.32,835.56a43.87,43.87,0,0,0-13.82,3.56,74.77,74.77,0,0,0-11.31,7.23c-7,4.77-41.84-59.52-30.06-66.12s28.75-9.25,32.49-6.34S239.41,836.69,235.32,835.56Z"/><ellipse class="cls-43" cx="253.32" cy="897.67" rx="22.52" ry="24.97" transform="translate(-471.52 310.65) rotate(-35.24)"/><path class="cls-44" d="M361.68,925.24S511.5,799.93,584.78,767c0,0,203.48-63.63,384.06-97.37-17,21-178,141.44-202.28,153S432.47,917.77,361.68,925.24Z"/><path class="cls-45" d="M705.7,817.77s59-58.47,65.46-62.59-135,27-135,27-57.62,55.56-61.05,61S705.7,817.77,705.7,817.77Z"/><path class="cls-46" d="M970.93,668.59s91.32,289.7,88.33,369.64c-17.19,24.17-151.16,131.32-199.6,143.65-14-32.31-98.12-332.37-91-360.29C783.06,802.94,902.47,708.33,970.93,668.59Z"/><path class="cls-38" d="M361.68,925.24s32.74,151.61,66.26,260.44c12.92,41.93,64.29,72.79,71.58,72.63,19.17,10.28,377.29-72.17,394.8-91.86,0,0-47.55-21.14-62-79.81-18.1-73.29-41.33-176.41-63.63-265.05C753.68,818.11,423.11,899.36,361.68,925.24Z"/><path class="cls-34" d="M782,1274.52a127,127,0,0,1-.68-21.27c1.46-29.67,6.59-119.63,17.41-175.64,6.37-33,9.64-55.29,13-72.2A131.34,131.34,0,0,1,836.1,951.6c8.07-10.58,17.39-22.54,33.22-33.71,20.66-14.59,45.45-20.55,70.59-23.2,62.68-6.62,95.47-13.42,108.28-12.61,13.67,5.1,76.79,45.51,91.16,89.27,10.36,31.56,18.63,76,4.54,116.11s-64.33,228.11-103.31,241.34c-45.5,15.45-166.53,38.4-207.57,21.72C796.17,1335.55,786,1307.49,782,1274.52Z"/><path class="cls-35" d="M999,1331.36A59.52,59.52,0,0,1,976.1,1327c-33.38-13.56-42.81-38-46.69-70.39a119,119,0,0,1-.64-20.12c1.31-26.8,6.46-118.59,17.29-174.66,3.52-18.23,6.15-33.51,8.26-45.79,1.74-10.11,3.25-18.85,4.75-26.36a124.88,124.88,0,0,1,23-51c7.25-9.52,16.28-21.36,31.7-32.25a121.72,121.72,0,0,1,66.81-21.93c2.08-.07,4.2-.1,6.29-.1,40.8,0,71.88,12.06,85.15,17.21,1.32.51,2.47,1,3.44,1.32l1.74.65c8,2.93,24.47,9,40.68,19.47,19.49,12.55,32.1,27.22,37.48,43.6,9.65,29.4,18.29,72.64,4.58,111.65-6.23,17.73-37,63.78-76.52,114.58-40.51,52.07-76.49,91.47-91.67,100.39q-3.71,2.18-7.55,4.48C1057.74,1313.52,1027.72,1331.36,999,1331.36Z"/><path d="M1086.91,891.38c39.49,0,69.72,11.73,82.63,16.74l3.52,1.35,1.77.65c7.72,2.85,23.76,8.78,39.32,18.8,18.12,11.67,29.78,25.1,34.65,39.93,16.89,51.42,11.84,86.67,4.63,107.19-5.92,16.82-36.94,63.13-75.45,112.62-39.4,50.64-75.45,90.29-89.71,98.67l-7.58,4.49c-25.72,15.28-54.87,32.6-81.73,32.6a52.85,52.85,0,0,1-20.25-3.83c-14.27-5.8-24.43-14.12-31.08-25.43-5.75-9.79-9.25-21.93-11.34-39.37a113.59,113.59,0,0,1-.6-19c1.32-26.68,6.44-118.08,17.18-173.68,3.53-18.3,6.17-33.61,8.29-45.92,1.73-10.07,3.23-18.77,4.71-26.19a117.87,117.87,0,0,1,21.75-48.12c7-9.15,15.63-20.52,30.18-30.79a114.82,114.82,0,0,1,63-20.67c2-.06,4.06-.09,6.08-.09h0m0-13.88c-2.14,0-4.31,0-6.51.1a129.14,129.14,0,0,0-70.59,23.2C994,912,984.65,923.93,976.58,934.52a131.19,131.19,0,0,0-24.31,53.81c-3.38,16.91-6.65,39.21-13,72.2-10.82,56-16,146-17.41,175.63a127.13,127.13,0,0,0,.68,21.28c3.94,33,14.13,61,51,76A67.07,67.07,0,0,0,999,1338.3c33.6,0,68.07-22.4,96.34-39,35.49-20.86,157.12-178.55,171.21-218.65s5.83-84.55-4.53-116.12c-14.37-43.75-70.39-62.94-84.06-68-11.08-4.14-45-19-91-19Z"/><ellipse class="cls-36" cx="1158.41" cy="1018.91" rx="73.82" ry="92.39" transform="translate(-215.47 317.1) rotate(-14.28)"/><ellipse class="cls-36" cx="1099.64" cy="1169.47" rx="52.89" ry="66.19" transform="translate(-254.41 307.25) rotate(-14.28)"/><ellipse class="cls-36" cx="1010.36" cy="1245.93" rx="41.62" ry="52.08" transform="translate(-276.02 287.6) rotate(-14.28)"/><path class="cls-37" d="M798.77,1077.61l23-41.7,20.32,76.1s30.55-120.44,30.77-115.79-.88,69-.88,69L900.17,1016l0,68.64,30.51-49.18-.63,35.09,11.39-21.45L901.13,1179.7l1.25-60L872.65,1187,870,1116.39,846,1176l-19.47-72.76-9.86,38.2L818,1069.9l-14.48,59.57Z"/><polygon class="cls-37" points="929.37 896.02 887.61 932.28 932.44 908.06 901.42 942.67 964.92 898.56 954.99 915.13 1000.32 887.31 929.37 896.02"/><ellipse class="cls-38" cx="1162.98" cy="1017.74" rx="25.1" ry="34.52" transform="translate(-215.04 318.19) rotate(-14.28)"/><ellipse class="cls-38" cx="1102.56" cy="1171.44" rx="21.68" ry="29.8" transform="translate(-422.99 660.95) rotate(-28.23)"/><ellipse class="cls-38" cx="1011.23" cy="1249.37" rx="16.06" ry="22.08" transform="translate(-470.72 627.02) rotate(-28.23)"/><path class="cls-47" d="M965,1185.32s5.16-25.9,43-23.92c2.32-16.48,4.63-60,67.64-72.14-6.74-12.9-47.06-65.69-16.84-136.42-20.28-3.19-32.93-5.53-48.26,29S960.56,1179,965,1185.32Z"/><path class="cls-48" d="M674.59,664.52l30.25,110.29L608.5,802.29c-16.15,4.43-36-16.65-44.39-47.11s-2-58.75,14.14-63.18c5.44-1.49,11.29-.09,17,3.58Z"/><path class="cls-49" d="M242,763.36s43.3,15.26,108.76,5.93c29.09-4.14,65-17.41,99.24-31.71C561.3,691.08,596.2,616.93,596.2,616.93S566.77,539.57,558,513.32s-59.38-68.19-59.38-68.19Z"/><path class="cls-49" d="M979.19,565.19S968,610.56,893.3,627.54s-189.91,17.83-189.91,17.83l-91.87-71.2Z"/><path class="cls-38" d="M515.85,458.52l37.61-10.32,33,123.66L549.7,581.93S533,498.74,515.85,458.52Z"/><polygon class="cls-50" points="549.7 581.93 582.84 608.13 609.05 600.93 586.42 571.86 549.7 581.93"/><polygon class="cls-51" points="520.99 589.81 621.6 562.21 663.81 741.25 567.82 765.19 520.99 589.81"/><path class="cls-49" d="M549.56,580.84l3.16,22a3.76,3.76,0,0,1-.77,2.92l-20.63,26.19a3.78,3.78,0,0,1-6.42-.82l-2.48-5.67a3.77,3.77,0,0,1,.17-3.37l20-42.48A3.77,3.77,0,0,1,549.56,580.84Z"/><polygon class="cls-52" points="703.39 645.37 704.81 687.98 663.81 741.25 621.6 562.21 703.39 645.37"/><path class="cls-49" d="M588.53,574.59s7.28,19.95,12.42,22,67.75,10.94,74.66,10S677,590.7,677,590.7Z"/><path class="cls-53" d="M588.53,574.59s8.85,24.09,14.4,22.55c7.53,1.45,62.82,9.52,62.82,9.52"/><path class="cls-54" d="M777.21,592.49c-42.54,0-84.77-1.94-118.89-5.46-46.11-4.75-57.22-10.29-59.21-11.55-11-20.36-30-90.14-36.76-135a13.65,13.65,0,0,1,8.95-14.9C714,375.49,860.62,361,902.15,357.68c.35,0,.71,0,1.07,0A13.94,13.94,0,0,1,915,364.41c16.86,27.88,30.59,64.07,40.81,107.56a666.46,666.46,0,0,1,14.07,85.87,13.57,13.57,0,0,1-8,13.79c-29.8,13.06-98.84,20.86-184.67,20.86Z"/><path class="cls-55" d="M903.22,367.64a3.83,3.83,0,0,1,3.26,1.95c16.32,27,29.65,62.2,39.63,104.67A655.89,655.89,0,0,1,960,558.79a3.61,3.61,0,0,1-2.08,3.68c-28.6,12.53-96.14,20-180.68,20-40.38,0-80.83-1.78-113.9-5-37.41-3.65-51.94-7.78-56.82-9.59C596.63,546.73,579,483.49,572.24,439a3.63,3.63,0,0,1,2.37-4c141.57-49.68,287.09-64.11,328.33-67.35h.28m0-20c-.62,0-1.23,0-1.85.08C856.41,351.25,711,366,568,416.13A23.64,23.64,0,0,0,552.46,442c6.78,44.88,26.58,118.34,38.39,139.26,6.94,12.29,95.11,21.28,186.36,21.28,75.57,0,153.25-6.16,188.71-21.71a23.6,23.6,0,0,0,14-23.89c-3.42-35.71-16-130.95-56.28-197.65a23.85,23.85,0,0,0-20.38-11.6Z"/><polygon class="cls-51" points="582.95 791.35 600.23 836.82 703.84 810.46 681.63 766.24 582.95 791.35"/><polygon class="cls-52" points="722.26 729.47 758.69 758.35 703.84 810.46 681.63 766.24 722.26 729.47"/><ellipse class="cls-56" cx="689.72" cy="719.66" rx="30.35" ry="57.18" transform="translate(-165.79 208.06) rotate(-15.34)"/><path class="cls-57" d="M548.22,579s5.52,24.42,3.73,26.68l-20.63,26.19"/><path class="cls-54" d="M254.45,755.83a13.14,13.14,0,0,1-11.89-7.7,663.06,663.06,0,0,1-30.82-81.3C198.8,624.12,192.56,586,193.18,553.45a13.27,13.27,0,0,1,7.5-11.84c82.51-39.5,177.62-69.62,282.67-89.54a13.46,13.46,0,0,1,2.45-.23A13.23,13.23,0,0,1,498,460.17c16.32,41.48,35.17,112.81,35.81,135.29-3.37,8.25-38.64,41-111.44,85.78C352.86,724,290.62,751.85,255.89,755.75A13.74,13.74,0,0,1,254.45,755.83Z"/><path class="cls-55" d="M485.8,462.34a2.66,2.66,0,0,1,2.44,1.68c16.51,41.94,32.91,105.59,34.9,128.59-2.78,3.58-11.19,12.95-34.05,30.52C468,639.37,440.77,657.78,412.49,675c-30.81,18.75-61.23,35.08-88,47.24-29.16,13.26-53.29,21.24-69.79,23.1h-.27a2.68,2.68,0,0,1-2.35-1.57,654.13,654.13,0,0,1-30.31-80c-12.62-41.65-18.71-78.7-18.12-110.13a2.86,2.86,0,0,1,1.54-2.57c81.7-39.1,175.94-68.94,280.1-88.69a2.72,2.72,0,0,1,.49-.05m0-21a23.49,23.49,0,0,0-4.4.42C332.53,470,236.82,512.67,196.14,532.14a23.82,23.82,0,0,0-13.46,21.11C181.19,631.18,218.07,719.89,233,752.5a23.65,23.65,0,0,0,21.44,13.83,23.14,23.14,0,0,0,2.62-.15c84.93-9.53,287.54-144.3,287.26-170.1-.26-24-19.93-97.52-36.55-139.75a23.66,23.66,0,0,0-22-15Z"/><path class="cls-58" d="M703.16,569.32a72,72,0,0,1-45.09-16.5,81.78,81.78,0,0,1-27.65-43.77c-10.66-41.9,12-84,50.57-93.78a67.27,67.27,0,0,1,16.5-2.07,72,72,0,0,1,45.09,16.5,81.78,81.78,0,0,1,27.65,43.77c5.2,20.42,2.73,41.45-7,59.22-9.57,17.56-25,29.84-43.61,34.56A67.15,67.15,0,0,1,703.16,569.32Z"/><path class="cls-59" d="M697.5,421.7a63.47,63.47,0,0,1,39.73,14.6A73.42,73.42,0,0,1,762,475.57c9.5,37.36-10.43,74.79-44.44,83.44a58.4,58.4,0,0,1-14.4,1.81,63.45,63.45,0,0,1-39.73-14.6A73.36,73.36,0,0,1,638.66,507c-9.51-37.36,10.42-74.79,44.43-83.44a58.48,58.48,0,0,1,14.41-1.81h0m0-17A75.17,75.17,0,0,0,678.9,407c-43.16,11-68.55,57.59-56.72,104.1,10.14,39.84,44.28,66.68,81,66.68a75.71,75.71,0,0,0,18.6-2.33c43.15-11,68.55-57.6,56.71-104.11-10.13-39.83-44.27-66.68-81-66.68Z"/><path class="cls-58" d="M408.44,650.47A72,72,0,0,1,363.35,634a81.77,81.77,0,0,1-27.65-43.78c-10.66-41.9,12-84,50.57-93.77a66.79,66.79,0,0,1,16.5-2.07,72,72,0,0,1,45.09,16.49,83.51,83.51,0,0,1,20.69,103c-9.57,17.56-25.05,29.83-43.61,34.55A66.74,66.74,0,0,1,408.44,650.47Z"/><path class="cls-59" d="M402.78,502.85a63.52,63.52,0,0,1,39.73,14.59,73.33,73.33,0,0,1,24.76,39.28c9.51,37.35-10.42,74.78-44.43,83.44a58.46,58.46,0,0,1-14.4,1.81,63.49,63.49,0,0,1-39.73-14.6,73.3,73.3,0,0,1-24.77-39.27c-9.51-37.36,10.42-74.79,44.43-83.44a58.46,58.46,0,0,1,14.4-1.81h0m0-17a75.16,75.16,0,0,0-18.59,2.33c-43.16,11-68.55,57.59-56.72,104.11,10.14,39.83,44.28,66.68,81,66.68a75.31,75.31,0,0,0,18.6-2.34c43.15-11,68.55-57.59,56.71-104.11-10.13-39.83-44.28-66.68-81-66.67Z"/><ellipse class="cls-60" cx="692.71" cy="722.09" rx="13.19" ry="28.54" transform="translate(-156.66 193.1) rotate(-14.28)"/><path class="cls-61" d="M570.55,773.51C528.66,791,361.68,925.24,361.68,925.24s55.21,247,66.26,260.44c7.59,17.08,13.6,39.39,64.28,70,15,3.47,21.8,14.55,290.25-52.83"/><path class="cls-61" d="M722,726.87s237.86-60.28,248.94-58.28c0,0,59.94,201.87,60.93,214.5"/><ellipse class="cls-62" cx="405.43" cy="573.26" rx="30.08" ry="35.75" transform="translate(-128.83 117.67) rotate(-14.28)"/><ellipse class="cls-62" cx="700.82" cy="493.2" rx="30.08" ry="35.75" transform="translate(-99.97 188.03) rotate(-14.28)"/><path class="cls-63" d="M440.05,999.06s179.64-65.95,284-66.12c37.08,148.66,43.93,174,41.47,179.22s-245.85,64.07-273.07,59.36C478.87,1155.11,444.87,1036.92,440.05,999.06Z"/><path class="cls-64" d="M452.27,1003.28s173-63.51,273.47-63.67c35.71,143.15,42.3,167.56,39.93,172.58s-236.75,61.7-263,57.16C489.65,1153.56,456.91,1039.74,452.27,1003.28Z"/><path class="cls-39" d="M1029.05,563.68,904.44,737.26c-22.11,28.89-32.58,53-6.23,76.1h0c28.11,19.69,42,7.69,66.53-15.75l168.13-155a63.92,63.92,0,0,0-5.86-90h0C1100.66,529.51,1052.17,537.33,1029.05,563.68Z"/><path class="cls-40" d="M1019.34,576.76,886.72,755.52c-22.11,28.89,35.74,83.78,60.3,60.35l168.14-155a63.94,63.94,0,0,0-5.87-90h0A63.93,63.93,0,0,0,1019.34,576.76Z"/><path class="cls-41" d="M1090.75,551s-8.91-6.11-28.42-1.41c-.75-27.53,7.08-93.87,16.38-98.85,6.32-3.39,19.22-3.34,31.39-2.87,10.92.42,18.81,10.35,15.31,20.7-10.48,30.94-28,78.17-28,78.17Z"/><path class="cls-42" d="M1061.84,549.71c-.74-27.53-.72-92.52,8.57-97.51,6.33-3.39,19.35-4.53,30.9-4.8a15.69,15.69,0,0,1,15.31,20.7c-10.47,30.93-23.4,82.17-25.69,83.72C1079.68,545.57,1069.88,546.7,1061.84,549.71Z"/><path class="cls-41" d="M1126.37,574.9s-3.4-10.25-21.79-18.31c16.06-22.38,62.41-70.47,72.83-68.82,7.09,1.13,17.33,9,26.74,16.7,8.43,6.95,8.71,19.62-.34,25.75-27,18.3-69.59,45.3-69.59,45.3Z"/><path class="cls-42" d="M1104.12,556.39c16.06-22.37,55.38-74.12,65.8-72.47,7.09,1.13,18.15,8.1,27.52,14.86a15.7,15.7,0,0,1-.33,25.75c-27,18.3-68.34,51.29-71.1,51.13C1120.83,563.89,1112.34,558.85,1104.12,556.39Z"/><path class="cls-41" d="M1135.4,621.29s4.25-9.93-4.18-28.15c26.85-6.12,71.59-17.78,78.3-9.63,4.56,5.54,5.34,6.14,7.25,18.17,1.72,10.79-6.38,19.08-17.3,19.06a272.54,272.54,0,0,0-58.6,6.22Z"/><path class="cls-42" d="M1131,592.69c26.86-6.12,68.75-25.17,75.46-17,4.57,5.54,6.53,6,9.06,17.31,2.4,10.66-6.38,18.91-17.31,19.06-32.56.43-61.62,11.54-63.59,9.59C1138.55,609.37,1135.53,600,1131,592.69Z"/><path class="cls-41" d="M1034,557.89l19.94-5.12s3.86-5.68,4.59-7c4.09-7.38-18.11-70.46-30.78-65.79s-27.94,14.75-28.16,19.49c0,.59-2,6.64-2,6.64S1032.47,561.25,1034,557.89Z"/><path class="cls-42" d="M1029.46,564.88a43.86,43.86,0,0,1,11.68-8.2,74.42,74.42,0,0,1,12.84-3.91c8.15-2.21-18.1-70.47-30.77-65.8s-25.7,15.87-25.92,20.6S1027.66,568.72,1029.46,564.88Z"/><ellipse class="cls-43" cx="1065" cy="618.89" rx="22.52" ry="24.97" transform="translate(-119.72 281.71) rotate(-14.28)"/><ellipse class="cls-65" cx="498.36" cy="1045.22" rx="26.4" ry="36.04" transform="translate(-242.34 155.16) rotate(-14.28)"/><ellipse class="cls-66" cx="565.99" cy="1028.01" rx="26.4" ry="36.04" transform="translate(-236.01 171.3) rotate(-14.28)"/><ellipse class="cls-67" cx="635.14" cy="1010.42" rx="26.4" ry="36.04" transform="translate(-229.54 187.81) rotate(-14.28)"/></g></svg>