<svg xmlns="http://www.w3.org/2000/svg" xmlns:xlink="http://www.w3.org/1999/xlink" viewBox="0 0 1500 1500"><defs><style>.cls-1{fill:#191919;}.cls-2{fill:#4b4c4c;}.cls-3{fill:#0f162d;}.cls-4{fill:#383838;}.cls-5{fill:#25baf4;stroke-width:1.55px;}.cls-34,.cls-48,.cls-5,.cls-50,.cls-58{stroke:#000;}.cls-13,.cls-14,.cls-15,.cls-16,.cls-17,.cls-39,.cls-40,.cls-41,.cls-42,.cls-43,.cls-47,.cls-49,.cls-5,.cls-51,.cls-53,.cls-54,.cls-58,.cls-62,.cls-73,.cls-74,.cls-75,.cls-76,.cls-77,.cls-78{stroke-miterlimit:10;}.cls-6{fill:#f9f9f9;}.cls-7{opacity:0.76;}.cls-8{opacity:0.54;}.cls-9{opacity:0.89;}.cls-10{fill:#3d3d3d;}.cls-11{fill:#212121;}.cls-12{fill:#2d2d2d;}.cls-13{fill:#e2ab23;stroke:#f4b06c;}.cls-13,.cls-17{stroke-width:4px;}.cls-14{fill:#b71815;stroke:#ef634d;stroke-width:5px;}.cls-15{fill:#46f40c;stroke:#8df268;}.cls-15,.cls-43{stroke-width:6px;}.cls-16,.cls-22{fill:#515150;}.cls-16{stroke:#999;stroke-width:3px;}.cls-17{fill:#f44427;stroke:#757575;opacity:0.53;}.cls-18{fill:#ed4d15;}.cls-19{fill:#020202;}.cls-20{fill:#262626;}.cls-21{fill:#050505;}.cls-23{fill:#303030;}.cls-24{fill:#e83715;}.cls-25{fill:#992617;}.cls-26{fill:#c4c4c4;}.cls-27{fill:#565656;}.cls-28{fill:#17e5e5;}.cls-29{fill:#167f7c;}.cls-30{fill:#1b8782;}.cls-31{fill:#1ae23a;}.cls-32{fill:#0e771a;}.cls-33{fill:#0b5611;}.cls-34{fill:#353535;stroke-width:1.46px;}.cls-34,.cls-48,.cls-50{stroke-linejoin:round;}.cls-35,.cls-42,.cls-43{fill:#4d4d4d;}.cls-36{fill:#b3b3b3;}.cls-37{fill:#f9f7f7;opacity:0.41;}.cls-38{fill:#d3161d;}.cls-39{fill:#77401b;}.cls-39,.cls-51,.cls-53,.cls-62,.cls-78{stroke:#070707;}.cls-39,.cls-40,.cls-47,.cls-62{stroke-width:2px;}.cls-40,.cls-44{fill:#f8c946;}.cls-40{stroke:#020202;}.cls-41,.cls-59{fill:#282828;}.cls-41,.cls-42,.cls-43{stroke:#151616;}.cls-41,.cls-42{stroke-width:1.64px;}.cls-45{fill:#683919;}.cls-46,.cls-53{fill:#945320;}.cls-47{fill:#adadad;stroke:#080000;}.cls-48{fill:#515051;stroke-width:2px;}.cls-49,.cls-52{fill:#161616;}.cls-49,.cls-54,.cls-73,.cls-74,.cls-75,.cls-76,.cls-77{stroke:#0a0a0a;}.cls-49,.cls-50,.cls-51,.cls-53,.cls-54,.cls-58{stroke-width:1.73px;}.cls-50{fill:#8e8a8b;}.cls-51{fill:#e2b647;}.cls-54,.cls-58,.cls-62,.cls-74,.cls-78{fill:none;}.cls-55{fill:#dddbd7;}.cls-56{fill:#232323;}.cls-57{fill:#3a3a3a;}.cls-60{fill:#7c7c7c;}.cls-61{fill:#666;}.cls-63{fill:#389cce;}.cls-64{fill:#7f1119;}.cls-65{fill:#5e0e18;}.cls-66{fill:#352f49;}.cls-67{fill:#e41e00;}.cls-68{fill:#fffe28;}.cls-69{fill:#18ff08;}.cls-70{fill:#dbdddd;}.cls-71{fill:#0fb0db;}.cls-72{fill:#303435;}.cls-73,.cls-74,.cls-75,.cls-76,.cls-77{stroke-width:0.78px;}.cls-73{fill:url(#radial-gradient);}.cls-75{fill:url(#radial-gradient-2);}.cls-76{fill:url(#radial-gradient-3);}.cls-77{fill:url(#radial-gradient-4);}</style><radialGradient id="radial-gradient" cx="1043.14" cy="869.9" r="12.18" gradientTransform="matrix(-1, 0, 0, 1, 1511.38, 130.67)" gradientUnits="userSpaceOnUse"><stop offset="0.2" stop-color="#666"/><stop offset="0.57" stop-color="#585858"/><stop offset="1" stop-color="#4d4d4d"/></radialGradient><radialGradient id="radial-gradient-2" cx="993.83" cy="990.39" r="12.18" gradientTransform="matrix(-1, 0, 0, 1, 1540.52, 114.07)" xlink:href="#radial-gradient"/><radialGradient id="radial-gradient-3" cx="1044.53" cy="987.39" r="12.18" gradientTransform="matrix(-1, 0, 0, 1, 1541.44, 127.12)" xlink:href="#radial-gradient"/><radialGradient id="radial-gradient-4" cx="998.99" cy="871.96" r="12.18" gradientTransform="matrix(-1, 0, 0, 1, 1510.44, 119.32)" xlink:href="#radial-gradient"/></defs><title>tRobot2</title><g id="Layer_1" data-name="Layer 1"><path class="cls-1" d="M1500,1095.87V1500H0V1195.06c102.06,3.28,209,6.2,265.72,6.2,129,0,120.56-119,120.56-119s-64.49-485.57-78.51-648.45S167.59,274.05,167.59,274.05L0,250.59V0L1125.6,2.67S824.35,153.39,719,202.94s-83.17,165.18-83.17,165.18S682,871.91,698.68,1024.7s101.65,128,101.65,128Z"/><path class="cls-2" d="M326.36,1279c-74.1,0-201.35-3.82-334.74-8.76L.5,148l219,31.32s164.9-4.11,183.21,208.77,81.19,735.44,81.19,735.44S494.92,1279,326.36,1279Z"/><path class="cls-2" d="M1500,0V1189.32l-770.38,62.33s-95.73-3.9-112-141c-19.89-168.09-71-778.47-71-778.47s-24.42-127.33,91.6-181.92C704.25,119.21,840.12,52.09,945,0Z"/><path class="cls-3" d="M266.22,1218.76c-52.51,0-154.58-2.57-266.37-6.71l-16.85-.62V229.91l186.33,26.64c8.19.1,42.06,1.88,76.66,23.77,20.87,13.19,38.06,31.2,51.1,53.52,15.68,26.83,25.3,60,28.62,98.45,13.82,160.62,77.77,642.8,78.42,647.65l.07.53,0,.54c.16,2.36,3.65,58.21-33.91,98.51C346.07,1205.56,311,1218.76,266.22,1218.76Z"/><path class="cls-4" d="M.5,250.09l167.59,24h.51c8.7,0,126.18,2.91,139.67,159.74,14,162.88,78.51,648.45,78.51,648.45s8.41,119-120.56,119c-56.7,0-163.66-2.92-265.72-6.7V250.09m-35-40.36V1228.29l33.7,1.25c112,4.15,214.3,6.72,267,6.72,25.71,0,49-4.12,69.08-12.25a132.56,132.56,0,0,0,47.84-32.56c17.92-19.23,30.26-44.54,35.7-73.21a160.74,160.74,0,0,0,2.85-38.46l-.07-1.08-.14-1.06c-.65-4.85-64.55-486.63-78.34-646.85-3.53-41.1-13.95-76.69-30.94-105.78-14.47-24.76-33.6-44.77-56.85-59.48-36.92-23.35-73.46-26.16-84.59-26.45L5.45,215.45l-39.95-5.72Z"/><path class="cls-3" d="M786.14,1172.56c-27.12,0-91.75-14.14-106-145.12C664,878.92,619.34,393.16,617.33,371.29c-1-5.74-5.25-35.12,2.34-70,11.17-51.45,42.55-90.63,90.74-113.29,104-48.9,403.2-198.58,406.21-200.09l3.54-1.77L1228.68-16H1521l-1.7,1128.86L802,1170.9A73.17,73.17,0,0,1,786.14,1172.56Z"/><path class="cls-4" d="M1503.5,1.5l-1.65,1095.22-702.67,56.85a51.34,51.34,0,0,1-13,1.48c-24.49,0-76-14.11-88.61-129.5C680.89,872.76,634.69,369,634.69,369s-22.18-115.62,83.17-165.18S1124.45,3.52,1124.45,3.52l104.4-2H1503.5m35-35H1228.17l-104.4,2-7.91.15-7.07,3.54c-3,1.5-302.08,151.1-405.83,199.9-53.3,25.08-88,68.44-100.39,125.42-8,36.79-4,67.53-2.61,76,2.72,29.62,46.73,508.4,62.78,655.77,3.27,30,9.31,56.31,18,78.06,8.13,20.43,18.76,37.46,31.6,50.62,20.16,20.66,46.38,32,73.83,32a91.74,91.74,0,0,0,18.4-1.8l700.13-56.64,32.13-2.6,0-32.24L1538.5,1.55l0-35Z"/><path class="cls-5" d="M1500,0V360.06C1314.17,578.75,1014.36,727.3,671.28,747.61c-1.49-15.61-3-31.29-4.45-46.93-16-169-31-332.56-31-332.56S613.66,252.5,719,202.94,1125.6,2.67,1125.6,2.67L1263.6,0Z"/><path class="cls-5" d="M340.77,726.82q-48.4-9.15-95.12-21.71A1225,1225,0,0,1,0,610.27V250.59l167.59,23.46s126.17-3.14,140.18,159.74C313.29,497.9,326.63,612,340.77,726.82Z"/><path class="cls-6" d="M1492.89,418.9a8.69,8.69,0,0,1-1.13,7.4Z"/><path d="M1491.44,419.3a7.6,7.6,0,0,1-1,6.24l2.75,1.16,1.13-7.4c.28-1.89-2.61-2.7-2.9-.8l-1.13,7.4a1.51,1.51,0,0,0,2.75,1.16,10.78,10.78,0,0,0,1.28-8.56C1493.89,416.62,1491,417.42,1491.44,419.3Z"/><g class="cls-7"><path class="cls-6" d="M1500,294.14v65.92C1314.17,578.75,1014.36,727.3,671.28,747.61c-1.49-15.61-3-31.29-4.45-46.93,19.89-4.84,46.06,5.8,59.61-9.85,8.3-9.6,6.7-24.37,12.72-35.54,10.42-19.32,37.2-20.09,59.15-20.07,93.66.09,187-33.32,259.33-92.83,8.67-7.14,17.34-20.61,8.95-28.09-3.4-3-8.36-3.41-12.93-3.61L970,506.93c-26.74-1.21-58.09-5.09-71.26-28.39-5.23-9.26-6.53-20.2-7.11-30.82-.85-15.68-.06-32.46,8.87-45.38,14.44-20.9,43.66-23.88,65.65-36.58,35-20.21,49.49-63.77,80.83-89.27,25.53-20.77,59.46-27.42,92-32.21,18.53-2.72,37.78-5,55.71.42,51.67,15.63,76.3,89.18,130.28,89.7,20.36.2,38.83-10.82,57.59-18.72C1419.47,300.14,1459.82,296.17,1500,294.14Z"/></g><path class="cls-6" d="M245.65,705.11A1225,1225,0,0,1,0,610.27v-44c31.88-9.71,78.57,7.15,99.18,24.59,20.19,17.09,33.51,40.73,50.34,61.13,7.53,9.14,16.55,18.09,28.14,20.52,7.72,1.62,15.8.14,23.6,1.38,12.81,2,23.27,11,32.71,20Q239.88,699.4,245.65,705.11Z"/><path class="cls-6" d="M0,446.8c16.81,3.72,35.68-2.63,51.76-10.38,19.63-9.47,39.91-21.23,61.58-19a8.47,8.47,0,0,1,4.46,1.41c2,1.55,2.35,4.42,2,6.91-1.53,11-12.81,17.34-21.92,23.71S80.14,467.7,86,477.16a257.86,257.86,0,0,0,144.49-72.79c3.85-3.87,7.69-8.07,9.27-13.3s.18-11.75-4.56-14.47c-3.35-1.93-7.49-1.59-11.34-1.19q-79.32,8.31-158.47,18.21c.42-20.33,18.83-35.41,36.78-45,12-6.4,27-16.83,22.47-29.67-3.83-11-18.56-12.32-30.15-11.58q-47.35,3-94.47,8.81v32.58a115.35,115.35,0,0,1,48.4-12.3c4.92,18.66-8,37.34-22.43,50.13-8.45,7.48-17.88,14.3-26,22.13Z"/><g class="cls-8"><path class="cls-6" d="M147.17,552.58c-9.13-8.67-8.44-24.47-.77-34.45s20.49-14.8,33-16c2.32-.22,4.82-.3,6.78,1s2.84,3.29,3.49,5.38c5.5,17.63-7.32,37.87.39,54.66,9,19.59,39.25,20.58,49.74,39.41,4.06,7.29,4.37,16.07,7.39,23.85,5.62,14.51,21.49,24.34,37,22.92a37.39,37.39,0,0,1,9.07,18.37c-7.25,9.37-22,4.87-32.62-.43l-73.88-37c-14.75-7.4-30-15.18-40.27-28.08-5.66-7.11-9.56-15.47-15.07-22.7C109,550,66.67,546.07,34.84,527.15c-2.23-1.32-4.59-3-5.24-5.47-1-3.76,2.26-7.19,5.28-9.63,7.25-5.88,15.37-11.36,24.64-12.5s19.81,3.37,22.77,12.22c1.16,3.46,1.11,7.26,2.57,10.6,5.26,12,23.75,9.16,34.24,17.08,4.61,3.48,7.38,8.91,11.8,12.63s12.14,4.92,15.28.08"/></g><g class="cls-9"><path class="cls-6" d="M710.58,342.12a160,160,0,0,1,66.8-90.77c47.66-30.71,108-33.84,159.31-58,60.61-28.57,107-85.72,172-102,11-2.77,22.78-4.25,33.78-1.3s21.15,11.08,23.9,22.13c1.89,7.56.21,15.57-2.43,22.9-13.87,38.37-52.15,62.39-90.34,76.74s-79.2,22.21-114.4,42.84c-16.55,9.71-31.44,22-45.24,35.37-10.78,10.41-21,21.56-28.74,34.39S872.28,351.77,863.51,364c-13.9,19.46-35.55,31.66-53.19,47.82s-32,40.56-24.36,63.21c5.67,16.78,22.07,27.77,38.84,33.47s34.67,7.34,51.61,12.51c4.36,1.33,8.77,3,12.09,6.1,7.58,7.15,6.69,20.21.48,28.58s-16.3,12.93-26.25,16c-29.43,9.18-62.44,8.38-90.13-5.17s-49.2-40.49-53.29-71c-1.51-11.31-.94-23.56-7.17-33.13-4.73-7.25-12.61-11.69-19.2-17.31-18.32-15.63-26.47-42.22-20.05-65.43,2.28-8.27,6.69-16.52,14.25-20.57,5.11-2.74,11.17-3.3,16.29-6,22.42-11.93,13.58-54.73,37.68-62.75"/></g><path class="cls-6" d="M1500,0V215.32c-10.35,3.11-21.93,3.83-32.79,4.23-2.14.08-4.4.13-6.27-.92-3.84-2.17-4-7.48-4.4-11.87-1.71-18.17-17.78-33.89-36-35.22a31,31,0,0,0-17.73,3.67c-7.85,4.53-12.66,12.76-17.49,20.42a283.18,283.18,0,0,1-35.46,45.2c-11.39,11.83-24.54,23-40.53,26.74s-35.29-2.42-41.93-17.44c-1.76-4-2.61-8.41-5.16-11.93-4.37-6-12.47-7.78-19.86-8.59-30.94-3.41-62.72,1.88-93.08-5-7.52-1.71-16.48-6.43-15.64-14.09.75-6.9,8.75-9.95,14.94-13.09,9.29-4.73,16.61-12.47,24-19.78C1236.91,114.36,1323.18,72.2,1375.76,0H1500Z"/></g><g id="Layer_2" data-name="Layer 2"><polygon class="cls-10" points="148.67 190.56 148.82 203.75 137.47 210.48 125.97 204.01 125.82 190.82 137.17 184.09 148.67 190.56"/><polygon class="cls-10" points="329.17 262.98 329.32 276.18 317.97 282.9 306.47 276.44 306.32 263.24 317.67 256.52 329.17 262.98"/><polygon class="cls-10" points="381.14 361.69 381.29 374.88 369.94 381.61 358.44 375.14 358.29 361.95 369.64 355.22 381.14 361.69"/><polygon class="cls-10" points="398.24 494.61 398.39 507.8 387.04 514.53 375.54 508.06 375.39 494.87 386.74 488.14 398.24 494.61"/><polygon class="cls-10" points="415.34 624.23 415.49 637.42 404.14 644.15 392.64 637.68 392.49 624.49 403.84 617.77 415.34 624.23"/><polygon class="cls-10" points="429.52 757.09 429.67 770.28 418.32 777.01 406.82 770.54 406.67 757.35 418.02 750.62 429.52 757.09"/><polygon class="cls-10" points="446.06 898.56 446.21 911.75 434.86 918.48 423.36 912.01 423.21 898.82 434.56 892.09 446.06 898.56"/><polygon class="cls-10" points="460.58 1043.27 460.73 1056.46 449.38 1063.18 437.88 1056.72 437.73 1043.53 449.08 1036.8 460.58 1043.27"/><polygon class="cls-10" points="446.06 1191.2 446.21 1204.4 434.86 1211.12 423.36 1204.65 423.21 1191.46 434.56 1184.74 446.06 1191.2"/><polygon class="cls-10" points="329.17 1250.05 329.32 1263.24 317.97 1269.97 306.47 1263.5 306.32 1250.31 317.67 1243.58 329.17 1250.05"/><polygon class="cls-10" points="181.74 1250.05 181.88 1263.24 170.53 1269.97 159.03 1263.5 158.88 1250.31 170.24 1243.58 181.74 1250.05"/><polygon class="cls-10" points="59.86 1246.56 60.01 1259.75 48.66 1266.47 37.16 1260.01 37.01 1246.82 48.36 1240.09 59.86 1246.56"/><polygon class="cls-10" points="56.68 179.24 56.83 192.44 45.48 199.16 33.98 192.69 33.83 179.5 45.18 172.78 56.68 179.24"/><polygon class="cls-10" points="243.66 205.59 243.81 218.78 232.46 225.51 220.96 219.04 220.81 205.85 232.16 199.13 243.66 205.59"/><polygon class="cls-10" points="880.57 61.09 880.72 74.29 869.36 81.01 857.86 74.55 857.72 61.35 869.07 54.63 880.57 61.09"/><polygon class="cls-10" points="737.27 124.81 737.42 138 726.07 144.73 714.57 138.26 714.42 125.07 725.77 118.34 737.27 124.81"/><polygon class="cls-10" points="622.86 205.59 623.01 218.78 611.66 225.51 600.16 219.04 600.01 205.85 611.36 199.13 622.86 205.59"/><polygon class="cls-10" points="584.52 340.42 584.67 353.61 573.32 360.34 561.82 353.87 561.67 340.68 573.02 333.95 584.52 340.42"/><polygon class="cls-10" points="595.71 485.1 595.86 498.29 584.51 505.02 573.01 498.55 572.86 485.36 584.21 478.63 595.71 485.1"/><polygon class="cls-10" points="607.15 612.08 607.3 625.27 595.95 632 584.45 625.53 584.3 612.34 595.65 605.61 607.15 612.08"/><polygon class="cls-10" points="622.79 740.88 622.94 754.08 611.59 760.8 600.09 754.34 599.94 741.14 611.29 734.42 622.79 740.88"/><polygon class="cls-10" points="635.52 872.92 635.67 886.12 624.32 892.84 612.82 886.38 612.67 873.18 624.02 866.46 635.52 872.92"/><polygon class="cls-10" points="651.14 1013.88 651.29 1027.07 639.94 1033.8 628.44 1027.33 628.29 1014.14 639.64 1007.41 651.14 1013.88"/><polygon class="cls-10" points="676.1 1135.14 676.25 1148.33 664.9 1155.06 653.4 1148.59 653.25 1135.4 664.6 1128.67 676.1 1135.14"/><polygon class="cls-10" points="784.04 1212.04 784.19 1225.24 772.84 1231.96 761.34 1225.49 761.19 1212.3 772.54 1205.58 784.04 1212.04"/><polygon class="cls-10" points="921.05 1198.03 921.21 1211.22 909.86 1217.95 898.36 1211.48 898.21 1198.29 909.55 1191.56 921.05 1198.03"/><polygon class="cls-10" points="1052.45 1191.04 1052.6 1204.24 1041.25 1210.96 1029.75 1204.5 1029.6 1191.3 1040.95 1184.58 1052.45 1191.04"/><polygon class="cls-10" points="1213.8 1178.11 1213.95 1191.3 1202.6 1198.03 1191.1 1191.56 1190.95 1178.37 1202.3 1171.64 1213.8 1178.11"/><polygon class="cls-10" points="1353.29 1164.76 1353.44 1177.95 1342.09 1184.67 1330.59 1178.21 1330.44 1165.01 1341.79 1158.29 1353.29 1164.76"/></g><g id="Layer_3" data-name="Layer 3"><polygon class="cls-10" points="1500 1251.65 1500 1500 725.92 1500 692.69 1327.28 1500 1251.65"/><polygon class="cls-11" points="692.69 1327.28 664.75 1375.82 692.69 1500 725.92 1500 692.69 1327.28"/><polygon class="cls-10" points="449.23 1345.52 434.71 1500 0 1500 0 1339.44 449.23 1345.52"/><polygon class="cls-11" points="449.23 1345.52 484.08 1394.18 473.15 1500 434.71 1500 449.23 1345.52"/><polygon class="cls-12" points="1208.76 1500 830.16 1500 793.73 1345.52 1150.22 1310 1208.76 1500"/><ellipse class="cls-13" cx="873.84" cy="1399.67" rx="36.38" ry="43.84" transform="translate(-313.89 254.25) rotate(-14.06)"/><ellipse class="cls-14" cx="987.07" cy="1387.95" rx="36.38" ry="43.84" transform="translate(-307.65 281.42) rotate(-14.06)"/><ellipse class="cls-15" cx="1096.52" cy="1374.93" rx="36.38" ry="43.84" transform="translate(-301.2 307.62) rotate(-14.06)"/><path class="cls-16" d="M1044.59,1500H991.82c-4.1-17.07,4-33.69,18.13-37.24s29.34,7.47,33.64,24.67A37.43,37.43,0,0,1,1044.59,1500Z"/><polygon class="cls-17" points="1359.44 1341.81 1208.14 1361.18 1192.65 1308.96 1338.07 1292.49 1359.44 1341.81"/><path class="cls-18" d="M1215.56,1340.21l-.22-1.42,1.67-2c4-4.78,5.78-7.28,5.42-9.86-.26-1.74-1.4-3.23-4.11-2.86a6.34,6.34,0,0,0-3.64,2l-1-1.53a8.22,8.22,0,0,1,4.88-2.42c3.92-.53,6,1.78,6.32,4.23.47,3.16-1.58,6-4.89,10l-1.26,1.46v0l8.16-1.09.29,1.92Z"/><path class="cls-18" d="M1240.68,1327.94c.87,5.82-.94,9.34-5,9.87-3.55.48-6.42-2.33-7.33-8s1.29-9.25,5-9.75S1239.86,1322.48,1240.68,1327.94Zm-9.83,1.58c.66,4.45,2.5,6.78,4.73,6.49,2.52-.34,3.31-3.27,2.65-7.64-.63-4.21-2.19-6.83-4.74-6.49C1231.34,1322.17,1230.15,1324.86,1230.85,1329.52Z"/><path class="cls-18" d="M1242.86,1325.71a1.58,1.58,0,0,1,1.43-1.88,1.65,1.65,0,0,1,1.9,1.44,1.56,1.56,0,0,1-1.44,1.85A1.63,1.63,0,0,1,1242.86,1325.71Zm1.4,9.3a1.59,1.59,0,0,1,1.43-1.89,1.64,1.64,0,0,1,1.89,1.44,1.56,1.56,0,0,1-1.43,1.86A1.63,1.63,0,0,1,1244.26,1335Z"/><path class="cls-18" d="M1260.82,1325.25c.88,5.82-.94,9.34-5,9.87-3.55.48-6.43-2.33-7.34-8s1.3-9.25,5-9.75S1260,1319.79,1260.82,1325.25Zm-9.83,1.58c.67,4.45,2.5,6.78,4.74,6.48,2.52-.33,3.3-3.26,2.65-7.63-.64-4.21-2.2-6.83-4.74-6.49C1251.48,1319.48,1250.29,1322.17,1251,1326.83Z"/><path class="cls-18" d="M1273.63,1315l.23,1.53-5.57,16.65-2.54.34,5.61-16.2v0l-8.89,1.19-.29-1.93Z"/><path class="cls-18" d="M1277.36,1321.1a1.58,1.58,0,0,1,1.43-1.88,1.64,1.64,0,0,1,1.89,1.44,1.56,1.56,0,0,1-1.43,1.86A1.64,1.64,0,0,1,1277.36,1321.1Zm1.39,9.3a1.59,1.59,0,0,1,1.43-1.88,1.64,1.64,0,0,1,1.9,1.44,1.56,1.56,0,0,1-1.43,1.85A1.64,1.64,0,0,1,1278.75,1330.4Z"/><path class="cls-18" d="M1284.55,1331l-.21-1.43,1.66-2c4-4.78,5.78-7.27,5.42-9.86-.26-1.73-1.39-3.22-4.11-2.86a6.34,6.34,0,0,0-3.64,2l-1-1.52a8.23,8.23,0,0,1,4.89-2.43c3.91-.52,5.94,1.79,6.31,4.23.48,3.17-1.57,6-4.88,10l-1.27,1.46v0l8.17-1.09.28,1.93Z"/><path class="cls-18" d="M1309.67,1318.72c.88,5.82-.93,9.34-5,9.88-3.55.47-6.43-2.34-7.34-8s1.3-9.26,5-9.75S1308.85,1313.27,1309.67,1318.72Zm-9.83,1.58c.67,4.45,2.5,6.79,4.74,6.49,2.52-.34,3.3-3.26,2.65-7.63s-2.2-6.83-4.74-6.49C1300.33,1313,1299.14,1315.64,1299.84,1320.3Z"/><path class="cls-18" d="M1313.45,1324.42a8.79,8.79,0,0,0,4.18.55c3.16-.43,3.86-2.45,3.61-3.87-.38-2.39-2.83-3.12-5.21-2.8l-1.37.18-.26-1.73,1.37-.19c1.79-.23,3.93-1.41,3.62-3.43-.2-1.37-1.31-2.46-3.57-2.16a6.86,6.86,0,0,0-3.47,1.62l-.9-1.6a9,9,0,0,1,4.56-2c3.58-.48,5.5,1.3,5.82,3.38.26,1.77-.63,3.42-2.76,4.48v0a4.72,4.72,0,0,1,4.72,3.86c.41,2.74-1.5,5.44-5.86,6a9.82,9.82,0,0,1-4.9-.53Z"/><path class="cls-18" d="M1336.18,1308.63l-6.93.92,0,4.49a10.15,10.15,0,0,1,1.46-.3,8.23,8.23,0,0,1,4.06.4,5,5,0,0,1,3.26,4c.5,3.34-2,6.22-5.89,6.75a9.46,9.46,0,0,1-4.69-.45l.35-1.84a8.73,8.73,0,0,0,4,.42c2.32-.31,4.09-2,3.75-4.28s-2.16-3.58-5.8-3.1a20.33,20.33,0,0,0-2.49.52l-.06-8.37,8.7-1.16Z"/><path class="cls-19" d="M1026.12,1500h-13.34l-14.2-21.49a5.59,5.59,0,0,1,1.58-7.71,5.58,5.58,0,0,1,7.7,1.58Z"/><path class="cls-16" d="M1148.91,1500h-42.06a37.06,37.06,0,0,1-6.29-13.34c-4.31-17.2,3.77-34,18-37.62s29.33,7.47,33.64,24.67C1154.65,1483.34,1153.18,1492.86,1148.91,1500Z"/><path class="cls-19" d="M1143.24,1500H1130.5l-23.27-35.21a5.59,5.59,0,0,1,1.58-7.71,5.58,5.58,0,0,1,7.7,1.58l25.89,39.16A5.32,5.32,0,0,1,1143.24,1500Z"/><path class="cls-20" d="M270.61,1382.84v36.88l-135-3.51c-3.79,0-6.86-8.26-6.86-18.44s3.07-18.44,6.86-18.44h.35Z"/><polygon class="cls-21" points="147.71 1430.49 252.87 1432.18 233.28 1500 123.24 1500 147.71 1430.49"/><ellipse class="cls-22" cx="270.61" cy="1401.28" rx="6.87" ry="18.44"/><polygon class="cls-20" points="233.28 1418.75 229.33 1470.25 236.16 1447.23 237.85 1418.87 233.28 1418.75"/><polygon class="cls-23" points="233.28 1418.75 220.33 1418.75 216.02 1470.25 229.33 1470.25 233.28 1418.75"/><polygon class="cls-20" points="171.84 1416.95 167.88 1468.45 174.71 1445.43 176.4 1417.07 171.84 1416.95"/><polygon class="cls-23" points="171.84 1416.95 158.89 1416.95 154.57 1468.45 167.88 1468.45 171.84 1416.95"/><polygon class="cls-12" points="112.85 1404.19 76.15 1500 0 1500 0 1401.28 112.85 1404.19"/><polygon class="cls-24" points="49.17 1418.75 90.6 1419.72 80.7 1442.7 37.95 1440.7 49.17 1418.75"/><polygon class="cls-25" points="37.95 1440.7 37.95 1445.48 80.18 1447.31 80.7 1442.7 37.95 1440.7"/><polygon class="cls-25" points="90.6 1419.72 89.8 1425.51 80.18 1447.31 80.7 1442.7 90.6 1419.72"/><polygon class="cls-24" points="33.09 1455.88 74.52 1456.84 64.62 1479.83 21.87 1477.83 33.09 1455.88"/><polygon class="cls-25" points="21.87 1477.83 21.87 1482.61 64.1 1484.43 64.62 1479.83 21.87 1477.83"/><polygon class="cls-25" points="74.52 1456.84 73.72 1462.63 64.1 1484.43 64.62 1479.83 74.52 1456.84"/><polygon class="cls-26" points="57.97 1495.39 55.98 1500 13.69 1500 16.54 1494.42 57.97 1495.39"/><polygon class="cls-27" points="57.97 1495.39 57.33 1500 55.98 1500 57.97 1495.39"/><polygon class="cls-28" points="30.54 1416.42 20.64 1439.4 0 1438.43 0 1415.7 30.54 1416.42"/><polygon class="cls-29" points="20.64 1439.4 20.12 1444 0 1443.13 0 1438.43 20.64 1439.4"/><polygon class="cls-30" points="30.54 1416.42 29.74 1422.2 20.12 1444.01 20.64 1439.4 30.54 1416.42"/><polygon class="cls-31" points="14.92 1454.54 5.02 1477.52 0 1477.29 0 1454.19 14.92 1454.54"/><polygon class="cls-32" points="5.02 1477.52 4.49 1482.13 0 1481.94 0 1477.29 5.02 1477.52"/><polygon class="cls-33" points="14.92 1454.54 14.11 1460.33 4.5 1482.13 5.02 1477.52 14.92 1454.54"/></g><g id="Layer_4" data-name="Layer 4"><path class="cls-34" d="M301.51,1308.82a127.18,127.18,0,0,1-.17-21.29c2.16-29.62,9.43-119.43,21.58-175.17,7.16-32.83,11-55,14.74-71.86a131.24,131.24,0,0,1,25.59-53.22c8.32-10.39,17.92-22.12,34-32.91,21-14.09,45.93-19.46,71.13-21.52,62.81-5.12,95.76-11.13,108.54-10,13.55,5.43,75.69,47.33,89,91.41,9.61,31.81,16.82,76.43,1.77,116.19s-69.74,226.51-109,238.81c-45.86,14.37-167.4,34.42-208,16.77C314.18,1370.17,304.67,1341.87,301.51,1308.82Z"/><path class="cls-35" d="M518.68,1370.83a60.09,60.09,0,0,1-24.41-4.91c-33.06-14.36-41.9-39-45-71.49a121.31,121.31,0,0,1-.16-20.12c2-26.76,9.29-118.41,21.45-174.2,3.95-18.14,6.95-33.34,9.35-45.56,2-10.08,3.7-18.79,5.37-26.27a125,125,0,0,1,24.25-50.4c7.47-9.34,16.78-21,32.46-31.49a121.75,121.75,0,0,1,67.3-20.33h1.37c43.23,0,75.76,13.52,89.65,19.3l3.4,1.4,1.73.69c7.88,3.12,24.25,9.62,40.2,20.44,19.18,13,31.44,28,36.43,44.47,9,29.63,16.55,73.06,1.92,111.73-6.65,17.57-38.49,62.88-79.22,112.73-41.75,51.08-78.66,89.62-94,98.17l-7.66,4.3C576.76,1354.07,547,1370.83,518.68,1370.83Z"/><path d="M610.65,933c41.85,0,73.48,13.15,87,18.76l3.48,1.44,1.76.7c7.64,3,23.54,9.33,38.86,19.73,17.83,12.09,29.16,25.8,33.68,40.74,15.66,51.81,9.77,86.92,2.07,107.26-6.31,16.68-38.43,62.24-78.11,110.8-40.59,49.68-77.58,88.46-92,96.5q-3.78,2.1-7.69,4.31c-25.56,14.37-54.52,30.66-81,30.66a53.23,53.23,0,0,1-21.65-4.33c-14.12-6.14-24.09-14.7-30.47-26.16-5.52-9.93-8.72-22.15-10.39-39.63a112.79,112.79,0,0,1-.15-19c2-26.64,9.24-117.89,21.31-173.22,4-18.21,7-33.46,9.38-45.71,2-10,3.67-18.69,5.33-26.08a118,118,0,0,1,22.89-47.58c7.18-9,16.12-20.14,30.91-30.06A114.87,114.87,0,0,1,609.33,933h1.32m0-13.87h-1.41a129.18,129.18,0,0,0-71.13,21.51c-16.09,10.8-25.7,22.53-34,32.92a131,131,0,0,0-25.59,53.22c-3.78,16.82-7.58,39-14.74,71.86-12.15,55.74-19.42,145.55-21.59,175.17a127.19,127.19,0,0,0,.18,21.29c3.16,33.05,12.67,61.35,49.15,77.19a67.32,67.32,0,0,0,27.17,5.49c33,0,67.28-21.08,95.41-36.72,36-20,161.33-174.76,176.38-214.52s7.84-84.38-1.77-116.19c-13.33-44.08-68.87-64.6-82.42-70-11.37-4.56-47-21.19-95.63-21.19Z"/><ellipse class="cls-36" cx="683.86" cy="1062.24" rx="73.82" ry="92.39" transform="translate(-220.04 179.64) rotate(-12.91)"/><ellipse class="cls-36" cx="621.52" cy="1211.36" rx="52.89" ry="66.19" transform="translate(-254.93 169.48) rotate(-12.91)"/><ellipse class="cls-36" cx="530.44" cy="1285.67" rx="41.62" ry="52.08" transform="translate(-273.83 151.01) rotate(-12.91)"/><path class="cls-37" d="M322.92,1112.36l24-41.14,18.49,76.56s33.41-119.67,33.53-115-2.52,68.94-2.52,68.94l29.33-48.55-1.66,68.63,31.68-48.45-1.47,35.07,11.9-21.17-43.39,129.63,2.67-60-31.32,66.55-1-70.61-25.44,59.07L350,1138.69l-10.77,38,3.07-71.53-15.89,59.21Z"/><polygon class="cls-37" points="457.82 933.94 415.2 969.19 460.6 946.04 428.76 979.91 493.29 937.32 482.97 953.66 528.95 926.91 457.82 933.94"/><ellipse class="cls-38" cx="688.46" cy="1061.19" rx="25.1" ry="34.52" transform="translate(-219.69 180.64) rotate(-12.91)"/><ellipse class="cls-38" cx="624.4" cy="1213.41" rx="21.68" ry="29.8" transform="translate(-480.98 413.18) rotate(-26.87)"/><ellipse class="cls-38" cx="531.24" cy="1289.13" rx="16.06" ry="22.08" transform="translate(-525.26 379.25) rotate(-26.87)"/><path class="cls-39" d="M228.06,809.12l212.43,23c36.27,2.81,61.2,11.08,60.84,46.14h0c-4.09,34.07-22.27,36.38-56.12,39L217.56,939.1a63.92,63.92,0,0,1-63.09-64.38h0C154.83,839.66,193,808.76,228.06,809.12Z"/><path class="cls-40" d="M244.27,810.62,465.91,831.1c36.27,2.81,38.57,82.52,4.72,85.19L243,938.09a63.92,63.92,0,0,1-63.09-64.38h0A63.92,63.92,0,0,1,244.27,810.62Z"/><path class="cls-41" d="M177.44,846.62s1.39-10.71,17.91-22.11c-20-18.93-74.64-57.36-84.56-53.76-6.74,2.45-15.31,12.09-23.08,21.47-7,8.42-4.84,20.92,5.21,25.22,30,12.84,76.92,31.28,76.92,31.28Z"/><path class="cls-42" d="M195.77,824.23c-20-18.93-68.44-62.28-78.35-58.68-6.75,2.45-16.28,11.39-24.2,19.81a15.7,15.7,0,0,0,5.21,25.22c30,12.83,76.82,37.4,79.51,36.72C180.78,834.76,188.17,828.21,195.77,824.23Z"/><path class="cls-41" d="M171.48,889.1s-5.37-9.38.89-28.45c-27.38-3-94.13-.53-99.85,8.34-3.89,6-4.88,18.88-5.39,31C66.67,911,75.93,919.63,86.52,917c31.68-7.93,80.18-21.61,80.18-21.61Z"/><path class="cls-42" d="M172.54,860.18c-27.38-3-92.17-8.21-97.89.66-3.89,6-6.07,18.91-7.29,30.41a15.7,15.7,0,0,0,19.4,16.93c31.68-7.94,83.8-16.68,85.53-18.84C167,877.62,168.89,867.94,172.54,860.18Z"/><path class="cls-41" d="M200,926.77s-10.23-3.46-18.18-21.89c-22.48,15.92-61,41.47-59.42,51.89,1.08,7.1,1,8.08,8.69,17.53,6.89,8.48,18.47,8,25.75-.17a272.38,272.38,0,0,1,43.73-39.5Z"/><path class="cls-42" d="M181.63,904.42c-22.47,15.92-64.61,34.41-63,44.84,1.08,7.1.13,8.89,6.84,18.3,6.35,8.9,18.35,7.86,25.75-.18,22.05-24,49.71-38.2,49.57-41C189,921.17,184.05,912.65,181.63,904.42Z"/><path class="cls-41" d="M220.41,809l-17.12,11.43s-6.8-.91-8.26-1.25c-8.23-1.87-40.41-60.49-28.48-66.82s29.64-11,33.31-8c.46.37,6.26,3,6.26,3S224,810.05,220.41,809Z"/><path class="cls-42" d="M228.67,810.22a43.77,43.77,0,0,0-13.89,3.23,74.92,74.92,0,0,0-11.49,7c-7.08,4.6-40.41-60.5-28.48-66.82s29-8.56,32.64-5.57S232.73,811.45,228.67,810.22Z"/><ellipse class="cls-43" cx="245.19" cy="872.74" rx="22.52" ry="24.97" transform="translate(-444.81 284.79) rotate(-33.87)"/><path class="cls-44" d="M352.86,902.88S505.62,781.18,579.66,750c0,0,204.94-58.76,386.27-88.19-17.51,20.55-181.34,137.16-205.86,148.13S423.81,897.11,352.86,902.88Z"/><path class="cls-45" d="M699.34,803.64s60.37-57,66.93-61-135.56,23.8-135.56,23.8S571.78,820.61,568.22,826,699.34,803.64,699.34,803.64Z"/><path class="cls-46" d="M968.05,660.83s84.4,291.79,79.5,371.63c-17.76,23.76-154.25,127.69-203,138.85-13.24-32.63-90.17-334.61-82.4-362.35C777,790.66,898.66,698.92,968.05,660.83Z"/><path class="cls-38" d="M352.86,902.88s29.12,152.35,60,261.95c11.92,42.23,62.54,74.3,69.83,74.31,18.92,10.74,378.9-63.16,396.87-82.42,0,0-47-22.27-60.12-81.26-16.35-73.71-37.11-177.36-57.3-266.5C747.3,805.13,414.88,878.48,352.86,902.88Z"/><path class="cls-34" d="M764.78,1262.08a126,126,0,0,1-.18-21.28c2.17-29.62,9.44-119.43,21.59-175.17,7.16-32.83,11-55.05,14.74-71.87a131.11,131.11,0,0,1,25.59-53.22c8.31-10.38,17.92-22.12,34-32.91,21-14.09,45.92-19.46,71.13-21.51,62.81-5.13,95.76-11.14,108.54-10,13.54,5.43,75.68,47.33,89,91.42,9.61,31.8,16.82,76.42,1.77,116.19s-69.74,226.5-109,238.81c-45.86,14.36-167.39,34.42-208,16.77C777.45,1323.43,767.94,1295.13,764.78,1262.08Z"/><path class="cls-35" d="M981.94,1324.09a59.88,59.88,0,0,1-24.4-4.91c-33.06-14.35-41.9-39-45-71.49a120.24,120.24,0,0,1-.16-20.12c2-26.76,9.29-118.42,21.45-174.2,3.95-18.14,6.94-33.35,9.35-45.57,2-10.07,3.69-18.78,5.37-26.25a125,125,0,0,1,24.24-50.4c7.48-9.35,16.79-21,32.46-31.49a121.71,121.71,0,0,1,67.31-20.34h1.36c43.24,0,75.76,13.52,89.66,19.29l3.4,1.4,1.73.69c7.87,3.12,24.25,9.62,40.2,20.44,19.18,13,31.44,28,36.42,44.47,9,29.63,16.56,73.06,1.93,111.73-6.66,17.58-38.49,62.88-79.23,112.73-41.74,51.09-78.65,89.62-94,98.18-2.51,1.39-5.06,2.83-7.66,4.29C1040,1307.33,1010.22,1324.09,981.94,1324.09Z"/><path d="M1073.92,886.25c41.84,0,73.48,13.15,87,18.77l3.49,1.43,1.75.7c7.64,3,23.54,9.34,38.86,19.73,17.84,12.09,29.17,25.8,33.68,40.74,15.66,51.81,9.78,86.93,2.08,107.26-6.31,16.68-38.43,62.25-78.11,110.8-40.6,49.69-77.58,88.47-92,96.51-2.52,1.39-5.09,2.84-7.69,4.3-25.56,14.38-54.52,30.67-81,30.67a53.19,53.19,0,0,1-21.64-4.34c-14.13-6.14-24.1-14.69-30.47-26.16-5.52-9.92-8.72-22.14-10.39-39.63a112.67,112.67,0,0,1-.15-19c2-26.65,9.24-117.89,21.3-173.23,4-18.21,7-33.46,9.38-45.71,2-10,3.68-18.69,5.34-26.07a117.91,117.91,0,0,1,22.89-47.59c7.18-9,16.12-20.14,30.91-30.06a114.83,114.83,0,0,1,63.49-19.16h1.32m0-13.87h-1.42a129,129,0,0,0-71.12,21.51c-16.1,10.79-25.7,22.52-34,32.91A131.13,131.13,0,0,0,941.77,980c-3.77,16.82-7.57,39-14.73,71.86-12.15,55.74-19.42,145.56-21.59,175.18a126,126,0,0,0,.18,21.28c3.15,33.05,12.66,61.35,49.14,77.2a67.55,67.55,0,0,0,27.17,5.48c33,0,67.28-21.07,95.42-36.72,36-20,161.32-174.75,176.37-214.52s7.85-84.38-1.77-116.18c-13.32-44.09-68.86-64.6-82.41-70-11.37-4.56-47-21.19-95.63-21.19Z"/><ellipse class="cls-36" cx="1147.13" cy="1015.51" rx="73.82" ry="92.39" transform="translate(-197.89 281.96) rotate(-12.91)"/><ellipse class="cls-36" cx="1084.79" cy="1164.62" rx="52.89" ry="66.19" transform="translate(-232.78 271.8) rotate(-12.91)"/><ellipse class="cls-36" cx="993.71" cy="1238.94" rx="41.62" ry="52.08" transform="translate(-251.68 253.33) rotate(-12.91)"/><path class="cls-37" d="M786.19,1065.63l24-41.14,18.5,76.56s33.41-119.68,33.52-115-2.52,69-2.52,69L889,1006.42,887.38,1075l31.67-48.44-1.47,35.06,11.9-21.17L886.1,1170.12l2.67-60-31.32,66.55-1-70.6L831,1165.15,813.31,1092l-10.78,38,3.08-71.54-15.89,59.22Z"/><polygon class="cls-37" points="921.09 887.2 878.47 922.45 923.86 899.31 892.03 933.17 956.56 890.58 946.24 906.92 992.22 880.18 921.09 887.2"/><ellipse class="cls-38" cx="1151.73" cy="1014.45" rx="25.1" ry="34.52" transform="translate(-197.53 282.96) rotate(-12.91)"/><ellipse class="cls-38" cx="1087.66" cy="1166.67" rx="21.68" ry="29.8" transform="translate(-409.85 617.51) rotate(-26.87)"/><ellipse class="cls-38" cx="994.5" cy="1242.4" rx="16.06" ry="22.08" transform="translate(-454.13 583.58) rotate(-26.87)"/><path class="cls-47" d="M949.76,1177.27s5.78-25.77,43.59-22.9c2.71-16.41,6.06-59.91,69.34-70.5-6.43-13.06-45.48-66.79-13.59-136.79-20.2-3.67-32.79-6.31-48.93,27.81S945.53,1170.86,949.76,1177.27Z"/><path class="cls-48" d="M671.89,649.7l27.62,111-97,25.18c-16.26,4-35.63-17.51-43.25-48.15s-.62-58.78,15.64-62.82c5.47-1.36,11.28.17,16.91,4Z"/><path class="cls-49" d="M237,738.2s42.93,16.29,108.6,8.52c29.18-3.44,65.38-15.86,100-29.34C558,673.55,594.65,600.25,594.65,600.25s-27.58-78-35.76-104.49-57.74-69.59-57.74-69.59Z"/><path class="cls-49" d="M978.77,557.65s-12.3,45.09-87.35,60.29-190.28,13.29-190.28,13.29L611,557.87Z"/><path class="cls-38" d="M518.11,440,556,430.55,586,555l-37,9.2S534.27,480.58,518.11,440Z"/><polygon class="cls-50" points="549 564.15 581.51 591.13 607.89 584.57 585.96 554.96 549 564.15"/><polygon class="cls-51" points="520.11 571.34 621.35 546.15 659.29 726.15 562.75 747.79 520.11 571.34"/><path class="cls-52" d="M548.89,563.06l2.63,22a3.76,3.76,0,0,1-.83,2.9l-21.25,25.69a3.78,3.78,0,0,1-6.4-1L520.69,607a3.78,3.78,0,0,1,.26-3.37l21-42A3.78,3.78,0,0,1,548.89,563.06Z"/><polygon class="cls-53" points="701.14 631.23 701.54 673.87 659.29 726.15 621.35 546.15 701.14 631.23"/><path class="cls-49" d="M588,557.74s6.8,20.12,11.89,22.3,67.47,12.55,74.4,11.79,1.8-15.88,1.8-15.88Z"/><path class="cls-54" d="M588,557.74s8.27,24.29,13.85,22.89c7.5,1.63,62.58,11,62.58,11"/><path class="cls-55" d="M807.81,580.51c-46.5,0-96.74-2.62-137.83-7.18-48.11-5.35-67.4-11.59-71.41-14.42C588.11,538.33,570.73,468.07,565,423a13.65,13.65,0,0,1,9.3-14.69c143.86-46.66,290.78-57.7,332.38-60,.25,0,.5,0,.74,0a13.89,13.89,0,0,1,12,7c16.2,28.28,29.06,64.78,38.24,108.5a665.38,665.38,0,0,1,12,86.18,13.57,13.57,0,0,1-8.35,13.59c-26.08,10.7-82,16.84-153.51,16.84Z"/><path class="cls-56" d="M907.44,358.35a3.88,3.88,0,0,1,3.31,2c15.67,27.37,28.16,62.89,37.12,105.59a656.06,656.06,0,0,1,11.84,84.84,3.6,3.6,0,0,1-2.17,3.62c-24.92,10.22-79.5,16.09-149.73,16.09a1318.8,1318.8,0,0,1-132.51-6.66c-41.68-4.43-62.16-9.53-69.16-12.34-9.36-21.35-25.54-85-31.2-129.74a3.63,3.63,0,0,1,2.47-3.91C720.12,371.57,866,360.61,907.25,358.35h.19m0-20-1.29,0c-45,2.46-190.78,13.7-334.91,60.45a23.66,23.66,0,0,0-16.14,25.45c5.7,45,23.75,118.94,35.06,140.14,7.42,13.9,116.12,26.09,217.65,26.09,64.73,0,126.53-5,157.32-17.59a23.62,23.62,0,0,0,14.53-23.55c-2.57-35.78-12.82-131.29-51.56-198.94a23.84,23.84,0,0,0-20.66-12.08Z"/><polygon class="cls-51" points="577.26 774.3 593.45 820.18 697.66 796.29 676.5 751.55 577.26 774.3"/><polygon class="cls-53" points="718 715.77 753.73 745.51 697.66 796.29 676.5 751.55 718 715.77"/><ellipse class="cls-57" cx="685.7" cy="705.18" rx="30.35" ry="57.18" transform="translate(-149.98 186.42) rotate(-13.97)"/><path class="cls-58" d="M547.6,561.23s4.93,24.54,3.09,26.76l-21.25,25.69"/><path class="cls-55" d="M250,731a13.09,13.09,0,0,1-12-8,665,665,0,0,1-28.88-82c-11.91-43-17.24-81.29-15.85-113.79A13.29,13.29,0,0,1,201,515.53c83.43-37.52,179.23-65.37,284.73-82.78a14,14,0,0,1,2.14-.17,13.17,13.17,0,0,1,12.32,8.62c15.33,41.85,32.47,113.61,32.58,136.1-3.57,8.17-39.61,40.08-113.45,83.1C348.84,701.49,286,727.86,251.14,730.92A10.87,10.87,0,0,1,250,731Z"/><path class="cls-56" d="M487.91,443.08a2.67,2.67,0,0,1,2.46,1.73c15.5,42.32,30.39,106.35,31.82,129.39-2.85,3.51-11.49,12.68-34.76,29.7-21.5,15.73-49.13,33.49-77.81,50-31.25,18-62.06,33.61-89.08,45.13-29.47,12.56-53.79,20-70.32,21.42H250a2.64,2.64,0,0,1-2.36-1.63,655.14,655.14,0,0,1-28.41-80.67C207.61,596.23,202.4,559,203.75,527.64a2.84,2.84,0,0,1,1.6-2.53c82.61-37.15,177.53-64.74,282.13-82l.43,0m0-21a24,24,0,0,0-3.85.31c-149.5,24.67-246.2,65.07-287.33,83.56a23.85,23.85,0,0,0-14,20.79c-3.34,77.87,31.42,167.43,45.57,200.39A23.64,23.64,0,0,0,250,741.47c.69,0,1.37,0,2.06-.09C337.2,733.88,543,604,543.3,578.17c.31-24-17.6-98-33.21-140.58a23.65,23.65,0,0,0-22.18-15.51Z"/><path class="cls-59" d="M704.31,555.22c-34,0-64.64-26.08-72.87-62-4.71-20.53-1.73-41.49,8.37-59,10-17.33,25.76-29.23,44.42-33.51a66.84,66.84,0,0,1,15-1.7c34,0,64.63,26.08,72.87,62a81.4,81.4,0,0,1-8.37,59c-10,17.33-25.76,29.23-44.42,33.5A66.91,66.91,0,0,1,704.31,555.22Z"/><path class="cls-60" d="M699.19,407.47a63.14,63.14,0,0,1,40.2,15.09,74.15,74.15,0,0,1,24.38,40.32c8.62,37.57-12.2,74.52-46.4,82.36a58.78,58.78,0,0,1-13.06,1.48,63.18,63.18,0,0,1-40.2-15.08,74.23,74.23,0,0,1-24.39-40.32c-4.22-18.44-1.58-37.22,7.45-52.9,8.79-15.26,22.63-25.72,39-29.46a58.14,58.14,0,0,1,13.06-1.49h0m0-17a74.87,74.87,0,0,0-16.86,1.92c-43.41,9.95-69.9,55.94-59.18,102.72,9.34,40.72,43.77,68.61,81.16,68.61a75.5,75.5,0,0,0,16.86-1.91c43.4-9.95,69.9-55.94,59.17-102.73-9.33-40.71-43.77-68.61-81.15-68.61Z"/><path class="cls-59" d="M407.74,629.32c-34,0-64.64-26.08-72.87-62-9.66-42.15,14-83.66,52.79-92.55a67.41,67.41,0,0,1,14.95-1.7c34,0,64.64,26.08,72.88,62,4.7,20.53,1.73,41.5-8.37,59-10,17.33-25.76,29.23-44.42,33.51A67.49,67.49,0,0,1,407.74,629.32Z"/><path class="cls-60" d="M402.62,481.57a63.14,63.14,0,0,1,40.2,15.09A74.21,74.21,0,0,1,467.2,537c8.62,37.58-12.2,74.52-46.4,82.36a58.78,58.78,0,0,1-13.06,1.48,63.13,63.13,0,0,1-40.2-15.08,74.23,74.23,0,0,1-24.39-40.32c-4.22-18.44-1.58-37.22,7.45-52.9,8.79-15.26,22.63-25.72,39-29.46a58.14,58.14,0,0,1,13.06-1.49h0m0-17a76,76,0,0,0-16.85,1.92c-43.41,9.95-69.9,55.94-59.18,102.72,9.33,40.72,43.77,68.61,81.16,68.61a75.5,75.5,0,0,0,16.86-1.91C468,626,494.5,580,483.77,533.18c-9.33-40.71-43.77-68.61-81.16-68.61Z"/><ellipse class="cls-61" cx="688.64" cy="707.68" rx="13.19" ry="28.54" transform="translate(-140.7 171.74) rotate(-12.91)"/><path class="cls-62" d="M565.28,756.18C523,772.65,352.86,902.88,352.86,902.88s49.31,248.25,60,261.95c7.18,17.25,12.66,39.71,62.59,71.55,14.88,3.82,21.45,15.06,291.43-45.9"/><path class="cls-62" d="M717.79,713.15S957,658.56,968.05,660.83c0,0,55.11,203.23,55.81,215.89"/><ellipse class="cls-63" cx="404.99" cy="552.05" rx="30.08" ry="35.75" transform="translate(-113.1 104.44) rotate(-12.91)"/><ellipse class="cls-63" cx="702.2" cy="479.05" rx="30.08" ry="35.75" transform="translate(-89.28 168.99) rotate(-12.91)"/><path class="cls-39" d="M1064.37,580.82,906.05,724.32c-27.69,23.59-43,44.94-22.1,73.09h0c23.35,25.15,39.41,16.33,68.36-1.41l197-116.2a63.93,63.93,0,0,0,13.19-89.17h0C1141.57,562.48,1092.52,559.92,1064.37,580.82Z"/><path class="cls-40" d="M1052.13,591.57,884.89,738.44c-27.69,23.6,17.32,89.43,46.26,71.69l197-116.21a63.92,63.92,0,0,0,13.18-89.17h0A63.93,63.93,0,0,0,1052.13,591.57Z"/><path class="cls-41" d="M1127.37,581.4s-7.43-7.84-27.5-7.36c5.06-27.07,26.66-90.27,36.8-93.19,6.9-2,19.5.78,31.3,3.8,10.58,2.71,16.21,14.07,10.61,23.46-16.75,28-43.84,70.52-43.84,70.52Z"/><path class="cls-42" d="M1099.37,574.06c5.06-27.07,18.75-90.61,28.89-93.52,6.9-2,19.86-.36,31.22,1.8a15.69,15.69,0,0,1,10.61,23.45c-16.75,28-40.16,75.42-42.73,76.45C1117.68,573.77,1107.86,572.81,1099.37,574.06Z"/><path class="cls-41" d="M1157.16,612.26s-1.17-10.74-17.45-22.49c20.4-18.5,75.84-55.77,85.67-52,6.7,2.59,15.06,12.41,22.63,22,6.79,8.56,4.39,21-5.74,25.1-30.29,12.2-77.56,29.65-77.56,29.65Z"/><path class="cls-42" d="M1139.3,589.49c20.4-18.5,69.73-60.83,79.57-57,6.7,2.59,16,11.73,23.77,20.32a15.69,15.69,0,0,1-5.73,25.09c-30.3,12.21-77.6,35.78-80.27,35C1154.06,600.32,1146.82,593.62,1139.3,589.49Z"/><path class="cls-41" d="M1156.23,659.51s6.24-8.82,1.84-28.4c27.53-.34,73.72-2.32,78.57,7,3.3,6.37,3.93,7.12,3.27,19.29-.59,10.91-10.25,17.31-20.93,15a272.69,272.69,0,0,0-58.59-6.24Z"/><path class="cls-42" d="M1158,630.62c27.54-.34,72.51-10.15,77.35-.78,3.3,6.38,5.11,7.27,5.22,18.83.1,10.92-10.22,17.15-20.93,15-31.92-6.42-62.67-1.68-64.18-4C1161.82,648.52,1160.84,638.7,1158,630.62Z"/><path class="cls-41" d="M1070.47,576.21l20.58-.81s5-4.74,6-5.87c5.55-6.36-2.88-72.69-16.26-70.79s-30.42,8.55-31.63,13.13c-.15.57-3.32,6.08-3.32,6.08S1068.23,579.17,1070.47,576.21Z"/><path class="cls-42" d="M1064.52,582.08a43.82,43.82,0,0,1,13.14-5.56,73.88,73.88,0,0,1,13.39-1.12c8.43-.44-2.88-72.7-16.25-70.8s-28.47,10.11-29.68,14.69S1062,585.46,1064.52,582.08Z"/><ellipse class="cls-43" cx="1087.91" cy="642.36" rx="22.52" ry="24.97" transform="translate(-23.18 40.99) rotate(-2.14)"/><path class="cls-64" d="M693.94,918.4,457,966.92a18,18,0,0,0-13.79,22.23l36.66,138.76a18,18,0,0,0,21,13l237.22-48.55a18,18,0,0,0,13.78-22.27L715,931.4A18,18,0,0,0,693.94,918.4Z"/><path class="cls-65" d="M699.3,924.34,461.72,972.46A14,14,0,0,0,451,989.76l36.86,139.5a14,14,0,0,0,16.3,10.15l237.63-47.78a14,14,0,0,0,10.77-17.3L715.61,934.49A14,14,0,0,0,699.3,924.34Z"/><path class="cls-66" d="M562.64,1026.31l145.89-30.94a9,9,0,0,0,6.83-10.74l-11.16-41a9,9,0,0,0-10.74-6.83L547.57,967.79a9,9,0,0,0-6.83,10.75l11.16,41A9,9,0,0,0,562.64,1026.31Z"/><ellipse class="cls-67" cx="676.78" cy="971.57" rx="17.42" ry="21.77" transform="translate(-206.89 183.46) rotate(-13.41)"/><ellipse class="cls-68" cx="625.23" cy="982.06" rx="17.42" ry="21.77" transform="translate(-210.73 171.79) rotate(-13.41)"/><ellipse class="cls-69" cx="575.08" cy="993.83" rx="17.42" ry="21.77" transform="translate(-214.82 160.48) rotate(-13.41)"/><path class="cls-70" d="M600.14,1055.51l115-23.86a9.4,9.4,0,0,0,7.08-11.19h0a9.39,9.39,0,0,0-11.2-7.08l-115,23.85a9.39,9.39,0,0,0-7.08,11.2h0A9.4,9.4,0,0,0,600.14,1055.51Z"/><path class="cls-71" d="M678.5,1097l51-10.89a9.39,9.39,0,0,0,7.08-11.2h0a9.4,9.4,0,0,0-11.19-7.08l-51,10.89a9.4,9.4,0,0,0-7.08,11.2h0A9.4,9.4,0,0,0,678.5,1097Z"/><path class="cls-71" d="M671.78,1071.57l51-10.89a9.4,9.4,0,0,0,7.08-11.2h0a9.41,9.41,0,0,0-11.2-7.08l-51,10.89a9.4,9.4,0,0,0-7.08,11.2h0A9.4,9.4,0,0,0,671.78,1071.57Z"/><polygon class="cls-72" points="522.88 974.31 452.85 988.07 490.3 1129.79 560.82 1115.04 522.88 974.31"/><ellipse class="cls-73" cx="468.69" cy="1001.55" rx="7.79" ry="9.02" transform="translate(-240.32 152.97) rotate(-14.8)"/><path class="cls-74" d="M466.38,992.83s-.48,11.65,5.09,17.31"/><path class="cls-74" d="M476.21,999.56s-9.06,4.8-15,4"/><ellipse class="cls-75" cx="547.13" cy="1105.45" rx="7.79" ry="9.02" transform="translate(-264.26 176.46) rotate(-14.8)"/><path class="cls-74" d="M544.83,1096.73s-.48,11.65,5.09,17.31"/><path class="cls-74" d="M554.66,1103.46s-9.06,4.8-15,4"/><ellipse class="cls-76" cx="497.36" cy="1115.5" rx="7.79" ry="9.02" transform="translate(-268.48 164.08) rotate(-14.8)"/><path class="cls-74" d="M495.05,1106.78s-.48,11.65,5.09,17.31"/><path class="cls-74" d="M504.88,1113.51s-9.06,4.8-15.05,4"/><ellipse class="cls-77" cx="511.89" cy="992.26" rx="7.79" ry="9.02" transform="matrix(0.97, -0.26, 0.26, 0.97, -236.51, 163.7)"/><path class="cls-74" d="M509.59,983.55s-.48,11.65,5.09,17.31"/><path class="cls-74" d="M519.42,990.28s-9.06,4.8-15.06,4"/><path class="cls-78" d="M722.2,1020.46s-21.25-1-38,10-21.93-5.17-30.39-2.71-7.15,15.47-19,17.26-9.25-3.65-14.74-2.18-4,7.21-9.32,7.9S598.94,1036,596,1037.23"/></g></svg>