<svg id="Layer_1" data-name="Layer 1" xmlns="http://www.w3.org/2000/svg" viewBox="0 0 906 603.01"><defs><style>.cls-1{fill:#757575;}.cls-2{fill:#00b1ff;}.cls-3{fill:#15bdf9;}.cls-4{fill:#fff;}.cls-5{fill:#626c72;}.cls-6{fill:#96a5b3;}.cls-7{fill:#2f3e4a;}.cls-8{fill:#222d35;}.cls-9{fill:#980c0a;}.cls-10{fill:#ca2d27;}.cls-11{fill:#b5120e;}.cls-12{fill:#ed4d47;}.cls-13,.cls-30,.cls-45,.cls-49,.cls-53,.cls-64,.cls-72,.cls-79{fill:none;}.cls-13{stroke:#730c00;stroke-width:1.18px;}.cls-13,.cls-29,.cls-30,.cls-31,.cls-32,.cls-33,.cls-34,.cls-35,.cls-40,.cls-42,.cls-44,.cls-45,.cls-49,.cls-53,.cls-64,.cls-65,.cls-66,.cls-79,.cls-80{stroke-miterlimit:10;}.cls-14{fill:#363636;}.cls-15{fill:#848484;}.cls-16{fill:#dbdbdb;}.cls-17{fill:#a9a9a9;}.cls-18{fill:#585858;}.cls-19{fill:#828f96;}.cls-20{fill:#cdcfd5;}.cls-21{fill:#7a828a;}.cls-22{fill:#e7f7fd;}.cls-23{fill:#dadbdf;}.cls-24{fill:#ced6dc;}.cls-25{fill:#353535;stroke-width:0.71px;}.cls-25,.cls-39,.cls-41,.cls-49,.cls-65,.cls-80{stroke:#000;}.cls-25,.cls-39,.cls-41{stroke-linejoin:round;}.cls-26,.cls-34,.cls-35{fill:#4d4d4d;}.cls-27{fill:#b3b3b3;}.cls-28{fill:#d3161d;}.cls-29{fill:#adadad;stroke:#080000;stroke-width:0.97px;}.cls-30,.cls-31,.cls-42,.cls-44,.cls-53,.cls-64{stroke:#070707;}.cls-30{stroke-width:1.49px;}.cls-31{fill:#77401b;}.cls-31,.cls-32,.cls-53{stroke-width:0.98px;}.cls-32,.cls-36,.cls-80{fill:#f8c946;}.cls-32{stroke:#020202;}.cls-33,.cls-50{fill:#282828;}.cls-33,.cls-34,.cls-35{stroke:#151616;}.cls-33,.cls-34{stroke-width:0.8px;}.cls-35{stroke-width:2.93px;}.cls-37{fill:#683919;}.cls-38,.cls-44{fill:#945320;}.cls-39{fill:#515051;stroke-width:0.97px;}.cls-40,.cls-43{fill:#161616;}.cls-40,.cls-45,.cls-79{stroke:#0a0a0a;}.cls-40,.cls-41,.cls-42,.cls-44,.cls-45,.cls-49{stroke-width:0.85px;}.cls-41{fill:#8e8a8b;}.cls-42{fill:#e2b647;}.cls-46{fill:#dddbd7;}.cls-47{fill:#232323;}.cls-48{fill:#3a3a3a;}.cls-51{fill:#7c7c7c;}.cls-52{fill:#666;}.cls-54{fill:#389cce;}.cls-55{fill:#7f1119;}.cls-56{fill:#5e0e18;}.cls-57{fill:#352f49;}.cls-58{fill:#e41e00;}.cls-59{fill:#848483;}.cls-60{fill:#dbdddd;}.cls-61{fill:#0fb0db;}.cls-62{fill:#303435;}.cls-63{fill:#4f5151;}.cls-64,.cls-65,.cls-79,.cls-80{stroke-width:0.49px;}.cls-65{fill:#2e0200;}.cls-66{fill:#198f3a;stroke:#161615;stroke-width:0.42px;}.cls-67{fill:#020202;opacity:0.17;}.cls-68{fill:#c7c7c7;}.cls-69{fill:#383838;}.cls-70{fill:#0a0a0a;}.cls-71{fill:#2fbe57;}.cls-73{fill:#a827de;}.cls-74{fill:#e81a1a;}.cls-75{fill:#47ed1b;}.cls-76{fill:#dd811f;}.cls-77{fill:#b5b5b5;}.cls-78{fill:#3e3e3e;}.cls-81{fill:#e71f00;}.cls-82{fill:#ffcc17;}.cls-83{opacity:0.27;}.cls-84{fill:#c3c3c3;}.cls-85{fill:#dedede;}.cls-86{fill:#5a5a5a;}.cls-87{fill:#5b5b5b;}.cls-88{fill:#a8a8a8;}</style></defs><title>condition</title><path class="cls-1" d="M41,16.17H865.24A39.84,39.84,0,0,1,905.06,56V562.47a39.84,39.84,0,0,1-39.82,39.82H41A39.84,39.84,0,0,1,1.19,562.47V56A39.84,39.84,0,0,1,41,16.17Z"/><path class="cls-2" d="M904.6,40.86V547.34a39.84,39.84,0,0,1-39.82,39.82H40.55A39.84,39.84,0,0,1,.73,547.34h0V40.86A39.84,39.84,0,0,1,40.55,1H864.78A39.84,39.84,0,0,1,904.6,40.86Z"/><path class="cls-3" d="M904.58,34.88H1.67A39.8,39.8,0,0,1,41,1.44H865.24A39.92,39.92,0,0,1,904.58,34.88Z"/><path class="cls-4" d="M865.24,14.6A26.29,26.29,0,0,1,891.5,40.86V547.34a26.29,26.29,0,0,1-26.26,26.26H41a26.29,26.29,0,0,1-26.26-26.26V40.86A26.29,26.29,0,0,1,41,14.6H865.24m0-13.56H41A39.84,39.84,0,0,0,1.19,40.86V547.34A39.84,39.84,0,0,0,41,587.16H865.24a39.84,39.84,0,0,0,39.82-39.82V40.86A39.84,39.84,0,0,0,865.24,1Z"/><circle class="cls-5" cx="859.59" cy="46.19" r="18.71"/><circle class="cls-6" cx="859.59" cy="46.19" r="16.72"/><polygon class="cls-7" points="870.26 41.41 869.06 53.04 858.39 57.82 848.91 50.97 850.03 39.34 860.78 34.56 870.26 41.41"/><path class="cls-8" d="M870.26,41.41l-.56,5.26A14.59,14.59,0,0,0,860.06,41a13.71,13.71,0,0,0-10.59,3.59l.56-5.26,10.67-4.78Z"/><circle class="cls-5" cx="46.66" cy="46.19" r="18.71"/><circle class="cls-6" cx="46.66" cy="46.19" r="16.72"/><polygon class="cls-7" points="56.86 40.3 56.86 52.08 46.66 57.9 36.55 52.08 36.55 40.3 46.66 34.48 56.86 40.3"/><path class="cls-8" d="M56.86,40.3v5.33A14.86,14.86,0,0,0,46.74,41c-6.29-.23-10.19,4.62-10.19,4.62V40.3l10.11-5.82Z"/><circle class="cls-5" cx="46.66" cy="539.22" r="18.71"/><circle class="cls-6" cx="46.66" cy="539.22" r="16.72"/><polygon class="cls-7" points="58.37 538.34 53.27 548.93 41.57 549.73 34.96 540.01 40.05 529.5 51.76 528.62 58.37 538.34"/><path class="cls-8" d="M58.37,538.34l-2.31,4.78a14.54,14.54,0,0,0-7.09-8.6,13.23,13.23,0,0,0-11.14-.24l2.3-4.78,11.71-.88Z"/><circle class="cls-5" cx="857.04" cy="539.14" r="18.71"/><circle class="cls-6" cx="857.04" cy="539.14" r="16.72"/><polygon class="cls-7" points="865.72 531.25 868.19 542.72 859.43 550.6 848.28 546.94 845.89 535.47 854.65 527.67 865.72 531.25"/><path class="cls-8" d="M865.72,531.25l1.11,5.18A14.33,14.33,0,0,0,855.92,534c-6.13,1.11-9,6.61-9,6.61l-1.11-5.18,8.76-7.8Z"/><polygon class="cls-9" points="786.58 372.62 786.58 452.12 706.25 497.47 705.94 419.04 705.94 417.27 720.5 387.26 720.78 386.67 771.51 357.1 771.52 357.1 771.58 357.15 786.58 372.62"/><polygon class="cls-10" points="720.5 387.26 705.94 417.55 517.74 311.35 532.46 279.44 720.13 387.05 720.5 387.26"/><polygon class="cls-11" points="705.94 417.55 706.25 497.47 703.78 498.88 518.2 392.1 517.65 311.56 517.65 311.55 517.74 311.35 705.94 417.55"/><polygon class="cls-12" points="720.77 387.29 771.79 357.13 584.69 248.97 532.74 279.47 720.77 387.29"/><polyline class="cls-13" points="517.94 354.15 706.25 453.52 786.58 405"/><polygon class="cls-14" points="692.21 326.16 692.38 340.05 687.7 343.08 687.34 342.86 687.34 316.2 692.07 313.95 692.21 326.16"/><polygon class="cls-15" points="692.07 313.46 692.07 313.95 687.34 316.2 687.34 315.95 606.92 270.49 612.3 266.36 692.07 313.46"/><path class="cls-16" d="M681.66,326.29l-.28,13,0,2.26q-5.7-3.66-11.76-6.75c-.45-.22-.91-.46-1.36-.7l.21-2.77a14.69,14.69,0,0,1,1.29-5.77c.95-1.74,2.9-3.11,4.86-2.73A18.39,18.39,0,0,1,681.66,326.29Z"/><path class="cls-15" d="M616.87,283.87l.07,6.33a.27.27,0,0,1-.11-.05c-.2-.1-1.21.46-1.43.56a15.69,15.69,0,0,0-1.41.73,11.19,11.19,0,0,0-1.5.94l.15-10.88Q614.75,282.65,616.87,283.87Z"/><path class="cls-17" d="M631.5,303.06l-7.84,5.23c0-1.24,0-2.49,0-3.71a7.4,7.4,0,0,1,1.8-4.73A4.87,4.87,0,0,1,628.7,298a2.7,2.7,0,0,1,2,.53,1.92,1.92,0,0,1,.59,1.54A29,29,0,0,0,631.5,303.06Z"/><path class="cls-16" d="M630.82,298.46l-.12.11a2.7,2.7,0,0,0-2-.53,4.87,4.87,0,0,0-3.24,1.81,7.4,7.4,0,0,0-1.8,4.73c0,1.22,0,2.47,0,3.71l-.15.1-11.19-5.66-1.29-2,1.33.08.13-8.48a11.19,11.19,0,0,1,1.5-.94,15.69,15.69,0,0,1,1.41-.73c.22-.1,1.23-.66,1.43-.56a.27.27,0,0,0,.11.05h0c2.46,1.26,5,2.41,7.44,3.69,1.23.65,2.43,1.32,3.6,2.07.57.36,1.16.74,1.71,1.15A6.37,6.37,0,0,1,630.82,298.46Z"/><path class="cls-18" d="M687.34,342.86v.44l-6-1.73,0-2.26.28-13,.11-6-39.12-22q-12.9-7.24-25.78-14.47-2.11-1.22-4.23-2.37l-.15,10.88-.17,10.35-6.79-4,.66-20.84v-6.81l.73-.57L687.34,316v26.91Z"/><path class="cls-19" d="M651.88,426.63h0a3,3,0,0,1,2.49-.07l12.73,5.53a3.11,3.11,0,0,1,1,.74L669.2,434a3,3,0,0,1,.75,2.1l-.42,9.15a3,3,0,0,1-.66,1.73l-.77.94a3,3,0,0,1-3.62.77l-12.12-6.12a2.93,2.93,0,0,1-1.51-1.84l-.49-1.76a2.71,2.71,0,0,1-.11-.8v-8.94A3,3,0,0,1,651.88,426.63Z"/><path class="cls-20" d="M651,427h0a2.9,2.9,0,0,1,2.49-.07l12.73,5.53a2.88,2.88,0,0,1,1,.74l1.08,1.21a2.9,2.9,0,0,1,.75,2.1l-.42,9.14a2.94,2.94,0,0,1-.66,1.73l-.77.94a2.94,2.94,0,0,1-3.61.77L651.48,443a3,3,0,0,1-1.51-1.84l-.49-1.77a2.65,2.65,0,0,1-.11-.79v-8.95A2.93,2.93,0,0,1,651,427Z"/><path class="cls-19" d="M653.3,406.14l.89-.52a3.46,3.46,0,0,1,3.37-.05L669,411.72a3.45,3.45,0,0,1,1.82,3v10.86a3.43,3.43,0,0,1-1.3,2.69l-1.08.87a3.47,3.47,0,0,1-3.68.4l-10.18-5a3.52,3.52,0,0,1-1.46-1.35l-1.38-2.34a3.43,3.43,0,0,1-.47-1.85l.28-10A3.44,3.44,0,0,1,653.3,406.14Z"/><path class="cls-20" d="M652.32,406.14l.9-.52a3.44,3.44,0,0,1,3.36-.05l11.48,6.15a3.44,3.44,0,0,1,1.81,3v10.86a3.42,3.42,0,0,1-1.29,2.69l-1.09.87a3.45,3.45,0,0,1-3.67.4l-10.18-5a3.46,3.46,0,0,1-1.46-1.35l-1.38-2.34a3.43,3.43,0,0,1-.47-1.85l.28-10A3.45,3.45,0,0,1,652.32,406.14Z"/><polygon class="cls-21" points="664.15 412.63 660.47 417.67 660.47 442.2 664.15 439.74 664.15 412.63"/><polygon class="cls-22" points="664.15 412.63 656.93 408.54 653.11 414.4 660.47 417.67 664.15 412.63"/><polygon class="cls-23" points="660.47 442.2 653.11 439.47 653.11 414.4 660.47 417.67 660.47 442.2"/><polygon class="cls-24" points="660.4 421.14 663.67 423.32 667.9 422.61 663.13 419.37 660.4 421.14"/><polygon class="cls-20" points="660.4 426.53 660.4 421.14 663.67 423.32 663.67 428.09 660.4 426.53"/><polygon class="cls-21" points="667.9 422.61 663.67 423.32 663.67 428.09 667.9 427.27 667.9 422.61"/><path class="cls-19" d="M545.22,370.52h0a3,3,0,0,1,2.5-.07L560.44,376a2.88,2.88,0,0,1,1,.74l1.09,1.21a3,3,0,0,1,.74,2.1l-.42,9.15a3,3,0,0,1-.66,1.73l-.77.94a3,3,0,0,1-3.61.77l-12.12-6.12a2.93,2.93,0,0,1-1.51-1.84l-.5-1.76a3.09,3.09,0,0,1-.11-.8v-8.94A3,3,0,0,1,545.22,370.52Z"/><path class="cls-20" d="M544.34,370.89h0a3,3,0,0,1,2.5-.06l12.72,5.53a2.88,2.88,0,0,1,1,.74l1.09,1.2a3,3,0,0,1,.75,2.11l-.43,9.14a2.9,2.9,0,0,1-.66,1.73l-.77.94A3,3,0,0,1,557,393l-12.12-6.12a2.93,2.93,0,0,1-1.51-1.83l-.5-1.77a3,3,0,0,1-.11-.79v-9A3,3,0,0,1,544.34,370.89Z"/><path class="cls-19" d="M546.64,350l.9-.52a3.46,3.46,0,0,1,3.36-.06l11.47,6.16a3.45,3.45,0,0,1,1.82,3v10.86a3.45,3.45,0,0,1-1.29,2.69l-1.09.87a3.45,3.45,0,0,1-3.67.4l-10.19-5a3.41,3.41,0,0,1-1.45-1.34l-1.38-2.34a3.53,3.53,0,0,1-.48-1.85l.29-10A3.44,3.44,0,0,1,546.64,350Z"/><path class="cls-20" d="M545.67,350l.9-.52a3.46,3.46,0,0,1,3.36-.06l11.47,6.16a3.45,3.45,0,0,1,1.82,3v10.86a3.48,3.48,0,0,1-1.29,2.69l-1.09.87a3.45,3.45,0,0,1-3.67.4l-10.19-5a3.35,3.35,0,0,1-1.45-1.34l-1.38-2.34a3.44,3.44,0,0,1-.48-1.85l.28-10A3.47,3.47,0,0,1,545.67,350Z"/><polygon class="cls-21" points="557.5 356.52 553.82 361.56 553.82 386.08 557.5 383.63 557.5 356.52"/><polygon class="cls-22" points="557.5 356.52 550.27 352.43 546.46 358.29 553.82 361.56 557.5 356.52"/><polygon class="cls-23" points="553.82 386.08 546.46 383.36 546.46 358.29 553.82 361.56 553.82 386.08"/><polygon class="cls-24" points="553.75 365.03 557.02 367.21 561.24 366.5 556.48 363.26 553.75 365.03"/><polygon class="cls-20" points="553.75 370.41 553.75 365.03 557.02 367.21 557.02 371.98 553.75 370.41"/><polygon class="cls-21" points="561.24 366.5 557.02 367.21 557.02 371.98 561.24 371.16 561.24 366.5"/><path class="cls-25" d="M610.3,490.82a62.14,62.14,0,0,0-2-10.12c-4-13.84-16.36-55.74-27.67-81-6.66-14.87-10.68-25-14.14-32.64A63.64,63.64,0,0,0,549,344.37c-5-4.1-10.7-8.71-19.42-12.23-11.36-4.6-23.72-4.67-35.89-3.14-30.32,3.82-46.55,4.25-52.51,6-5.88,3.93-31.2,30-33.14,52.24-1.4,16.05-.38,37.94,10.72,55.31s55.63,100.56,75.49,102.49c23.2,2.25,82.87-.32,100.39-12.74C610.39,521.19,612.09,506.82,610.3,490.82Z"/><path class="cls-26" d="M505.05,542.66c-11.4,0-23.85-3.93-34.83-7.39L466.16,534c-17.58-5.45-91.85-65.07-103.2-82.85-10.79-16.89-11.51-38.26-10.2-53.21,1.14-13.13,11.2-26.06,29.9-38.43l.75-.49,1.48-1c6.11-4.18,20.41-14,41.27-18.21a61.82,61.82,0,0,1,12.18-1.22,57.79,57.79,0,0,1,21.79,4.18c8.48,3.43,14.05,8,18.53,11.71A60.58,60.58,0,0,1,495.18,376c1.54,3.38,3.22,7.34,5.16,11.92,2.36,5.56,5.29,12.48,9,20.7,11.32,25.26,23.92,68,27.51,80.53a58.4,58.4,0,0,1,1.93,9.57c1.76,15.74,0,28.3-14.25,38.4-5.29,3.75-11.65,5.57-19.45,5.57Z"/><path d="M438.34,341.93a54.39,54.39,0,0,1,20.53,3.94c8,3.23,13.35,7.64,17.65,11.19a57.16,57.16,0,0,1,15.6,20.3c1.52,3.34,3.19,7.28,5.13,11.85,2.36,5.57,5.3,12.51,9,20.75C517.48,435,530,477.6,533.59,490.05a55.15,55.15,0,0,1,1.82,9c1.62,14.56.06,26.14-12.85,35.29-4.71,3.33-10.43,4.95-17.51,4.95-10.88,0-23.07-3.85-33.81-7.24l-4.08-1.28c-7.66-2.37-29.07-17.1-53.28-36.64-23.66-19.09-43.43-37.52-48.09-44.81-5.67-8.88-12-25-9.68-51.11.65-7.53,4.67-15.17,11.93-22.68a96.1,96.1,0,0,1,16.48-13.23l.76-.51c.43-.28.93-.63,1.51-1,5.94-4.07,19.84-13.59,40-17.69a58.14,58.14,0,0,1,11.51-1.16m0-6.73a64.84,64.84,0,0,0-12.85,1.3c-23.46,4.75-38.95,16.38-43.94,19.71-5.89,3.92-30.21,19.19-32.14,41.43C348,413.69,349,435.58,360.12,453s86,78.34,105.05,84.26c12.11,3.76,26.5,8.82,39.88,8.82,7.67,0,15-1.67,21.4-6.19,15.73-11.15,17.43-25.53,15.64-41.53a61.49,61.49,0,0,0-2-10.12c-4-13.84-16.36-55.73-27.68-81-6.66-14.86-10.67-25-14.14-32.63a63.44,63.44,0,0,0-17.44-22.71c-5-4.11-10.7-8.72-19.41-12.24a61.48,61.48,0,0,0-23.05-4.43Z"/><ellipse class="cls-27" cx="404.32" cy="411.84" rx="44.8" ry="35.8" transform="translate(-15 808.4) rotate(-88.93)"/><ellipse class="cls-27" cx="448.74" cy="476.4" rx="32.09" ry="25.64" transform="translate(-35.96 916.17) rotate(-88.93)"/><ellipse class="cls-27" cx="499.35" cy="502.61" rx="25.25" ry="20.18" transform="translate(-12.49 992.49) rotate(-88.93)"/><ellipse class="cls-28" cx="402.03" cy="411.8" rx="16.74" ry="12.17" transform="translate(-17.2 806.07) rotate(-88.93)"/><ellipse class="cls-28" cx="447.58" cy="477.66" rx="14.45" ry="10.51" transform="translate(-129.8 786.07) rotate(-74.97)"/><ellipse class="cls-28" cx="499.32" cy="504.33" rx="10.71" ry="7.79" transform="translate(-117.23 855.8) rotate(-74.97)"/><path class="cls-29" d="M514.07,469s-5.3-11.65-23-6.53c-2.92-7.52-8.83-27.83-39.92-26.56,1.75-6.83,14.94-36.22-7.16-66.26,9.22-3.75,14.93-6.26,26,8.33S515.45,465.51,514.07,469Z"/><line class="cls-30" x1="566.28" y1="366.73" x2="496.55" y2="371.16"/><line class="cls-30" x1="527.46" y1="331.34" x2="449.84" y2="336.26"/><polyline class="cls-30" points="438.77 336.96 418.17 338.27 418.16 338.27"/><line class="cls-30" x1="584.93" y1="410.05" x2="515.47" y2="414.45"/><line class="cls-30" x1="599.9" y1="452.95" x2="530.7" y2="457.34"/><line class="cls-30" x1="610.81" y1="497.25" x2="542.41" y2="501.6"/><path class="cls-31" d="M612.45,330.81,515.3,292.9c-16.34-6.95-29-9-36.74,6.27h0c-5.9,15.67,1.45,20.77,15.5,29.55l93.65,60.73a31.21,31.21,0,0,0,41.82-13.66h0C637.27,360.53,627.71,338.55,612.45,330.81Z"/><path class="cls-32" d="M605.09,327.8,504.52,286.74c-16.34-7-35.29,27-21.24,35.82l93.66,60.72a31.18,31.18,0,0,0,41.81-13.66h0A31.19,31.19,0,0,0,605.09,327.8Z"/><path class="cls-33" d="M625.92,358.45s1.81-4.95-2.78-13.61c12.93-3.69,45.24-8,48.72-4.23,2.37,2.59,3.91,8.69,5.16,14.5,1.12,5.21-2.62,10.15-7.94,9.74-15.89-1.2-40.35-3.78-40.35-3.78Z"/><path class="cls-34" d="M623,344.62c12.92-3.68,43.66-11.54,47.14-7.75,2.37,2.58,4.48,8.6,6,14a7.66,7.66,0,0,1-7.94,9.74c-15.89-1.21-41.68-1.11-42.69-2A16.1,16.1,0,0,0,623,344.62Z"/><path class="cls-33" d="M618.93,378.18s4.43-2.85,6-12.52c12.52,4.88,40.87,21,41.35,26.11.33,3.48-2.14,9.27-4.66,14.66-2.26,4.83-8.22,6.5-12.21,3C637.5,398.81,619.59,382,619.59,382Z"/><path class="cls-34" d="M625,365.42c12.52,4.88,41.75,17.21,42.23,22.34.32,3.49-1.63,9.56-3.7,14.81a7.66,7.66,0,0,1-12.21,3c-11.93-10.58-32.52-26.1-32.79-27.43A16,16,0,0,0,625,365.42Z"/><path class="cls-33" d="M598.09,388.06s5.21.81,12.8-5.38c6.15,12,17.07,31.7,14,35.85-2.06,2.83-2.25,3.27-7.71,5.64-4.89,2.11-9.79-.71-11.1-5.88a133.07,133.07,0,0,0-10-27Z"/><path class="cls-34" d="M611.08,382.52c6.14,12,20.22,29.46,17.18,33.62-2.06,2.83-2.06,3.81-7.08,6.38-4.75,2.42-9.72-.73-11.11-5.88-4.15-15.34-12.91-27.74-12.23-28.9A16,16,0,0,0,611.08,382.52Z"/><path class="cls-33" d="M615.79,332.47l4.84,8.81s3.15,1.13,3.86,1.32c4,1,31.12-17.09,27.38-22.52s-10.36-11.42-12.62-10.95c-.29.05-3.38-.13-3.38-.13S614,332.13,615.79,332.47Z"/><path class="cls-34" d="M611.94,331.15a21.23,21.23,0,0,1,5.28,4.53,36.21,36.21,0,0,1,3.41,5.6c2,3.58,31.13-17.09,27.38-22.52S637.4,308.53,635.14,309,609.9,330.76,611.94,331.15Z"/><ellipse class="cls-35" cx="590.7" cy="354.49" rx="12.18" ry="10.99" transform="translate(-97.63 326.45) rotate(-28.64)"/><path class="cls-36" d="M548.26,303.5s-84.51-44.1-122.89-52.17c0,0-103.66-9.09-193.27-6.32,10.3,8.21,99.64,48.84,112.41,51.82S513.73,307.33,548.26,303.5Z"/><path class="cls-37" d="M373,288.18s-34.23-21.71-37.74-23S402.44,264,402.44,264s33.28,20.48,35.48,22.71S373,288.18,373,288.18Z"/><path class="cls-38" d="M231,244.75s-13.3,147.66-3.52,185.45c10.72,9.73,85.77,46.83,110.16,47.65,3.31-16.87,12.07-168.7,5.77-181.27C334.59,289.19,267.79,256.55,231,244.75Z"/><path class="cls-28" d="M548.26,303.5s.22,75.7-4.4,131.09c-1.78,21.34-23.05,41.41-26.55,42.1-8.06,6.9-191.31,8.27-201.72.72,0,0,20.47-15.05,21.25-44.53,1-36.83,5.19-91.72,6.57-136.3C350.18,293.36,516.27,297.58,548.26,303.5Z"/><path class="cls-39" d="M382.41,210.09,368,264l47.11,13.1c7.9,2.11,17.53-8.25,21.51-23.13s.79-28.68-7.1-30.79c-2.66-.71-5.51,0-8.29,1.8Z"/><path class="cls-40" d="M564.35,287.21s-22.26,2.61-52.42-8.87c-13.4-5.1-29.06-15.28-43.83-25.77-48-34.11-56.64-73.16-56.64-73.16s22.33-33.66,29.34-45.21,35.95-25.65,35.95-25.65Z"/><path class="cls-40" d="M233.43,162.6s5.62,22.1,42.12,30.15,92.74,8.08,92.74,8.08l44.61-35Z"/><path class="cls-28" d="M463.46,115.61l-22.64-11.49-15.68,60.46,17.95,4.79S455.23,135.3,463.46,115.61Z"/><polygon class="cls-41" points="443.1 169.37 427.01 182.26 414.19 178.84 425.14 164.58 443.1 169.37"/><polygon class="cls-42" points="457.13 173.12 407.94 159.98 387.92 247.5 434.85 258.87 457.13 173.12"/><path class="cls-43" d="M443.16,168.84l-1.47,10.73a1.82,1.82,0,0,0,.38,1.42l10.16,12.71a1.84,1.84,0,0,0,3.13-.42l1.19-2.77a1.88,1.88,0,0,0-.09-1.65l-9.88-20.66A1.84,1.84,0,0,0,443.16,168.84Z"/><polygon class="cls-44" points="368.29 200.83 367.74 221.63 387.92 247.5 407.94 159.98 368.29 200.83"/><path class="cls-40" d="M424.12,165.92s-3.49,9.76-6,10.78-33,5.56-36.41,5.13-.74-7.76-.74-7.76Z"/><path class="cls-45" d="M424.12,165.92s-4.24,11.78-6.95,11.05c-3.67.73-30.63,4.85-30.63,4.85"/><path class="cls-46" d="M327.65,175.28c-40.33,0-71.59-3.5-85.76-9.6a6.61,6.61,0,0,1-4-6.7c1.59-17.91,7.33-63,26.16-94.58a6.78,6.78,0,0,1,5.79-3.34h.47c20.29,1.46,91.89,8.08,161.7,32.06a6.65,6.65,0,0,1,4.41,7.24c-3.16,21.94-12.24,56.09-17.51,66C413.73,170.16,377.08,175.28,327.65,175.28Z"/><path class="cls-47" d="M269.88,56.18v9.76H270c20.14,1.45,91.21,8,160.46,31.8a1.78,1.78,0,0,1,1.17,1.93c-3.13,21.76-11.55,52.68-16.3,63-2.45.93-9.9,3.1-29.43,5.05-17.15,1.71-37.83,2.65-58.25,2.65-39.11,0-70.45-3.44-83.83-9.2a1.75,1.75,0,0,1-1-1.79c1.56-17.57,7.17-61.77,25.49-92.51a1.87,1.87,0,0,1,1.6-1V56.18m0,0a11.64,11.64,0,0,0-10,5.72c-19.47,32.69-25.27,79.21-26.82,96.65A11.51,11.51,0,0,0,240,170.16c16.65,7.17,52.25,10,87.69,10,46.09,0,91.9-4.78,95.36-11,5.69-10.25,15.12-46.17,18.28-68.09a11.55,11.55,0,0,0-7.66-12.56c-69.94-24-141-30.73-162.93-32.3-.27,0-.55,0-.82,0Z"/><polygon class="cls-42" points="431.8 266.69 427.55 285.81 373.75 285.81 382 256.72 431.8 266.69"/><polygon class="cls-44" points="359.35 241.94 341.67 266.14 373.75 285.81 382 256.72 359.35 241.94"/><ellipse class="cls-48" cx="375.21" cy="237.05" rx="27.91" ry="14.81" transform="translate(49.36 538.36) rotate(-75.04)"/><path class="cls-49" d="M443.81,168s-2.62,11.93-1.74,13l10.16,12.71"/><path class="cls-46" d="M560.59,282.44a6.32,6.32,0,0,1-2.06-.35c-16.11-5.59-42.74-25.54-71.24-53.37-29.84-29.15-43.11-48.53-43.83-52.82,2.72-10.64,19.37-42.57,31.6-60.56a6.4,6.4,0,0,1,5.31-2.81,6.31,6.31,0,0,1,2.53.53c47.88,20.78,89.91,45.35,125,73a6.51,6.51,0,0,1,2.3,6.45c-7.42,36-33.55,73.08-44.45,87.37a6.46,6.46,0,0,1-5.11,2.54Z"/><path class="cls-47" d="M480.37,117.66a1.19,1.19,0,0,1,.49.1c47.47,20.6,89.12,44.94,123.81,72.34a1.39,1.39,0,0,1,.46,1.39c-7.2,35-32.82,71.3-43.5,85.3a1.31,1.31,0,0,1-1,.52,1.26,1.26,0,0,1-.38-.06c-14.78-5.13-40.67-24.46-67.54-50.45s-41.18-45.15-43.83-51.06c3.39-10.7,18.07-39.3,30.45-57.52a1.33,1.33,0,0,1,1.08-.56m0-10.25a11.54,11.54,0,0,0-9.55,5c-12.46,18.32-29.72,51.19-32.43,62.6-2.91,12.25,79.06,98.2,118.47,111.87a11.24,11.24,0,0,0,3.73.63,11.57,11.57,0,0,0,9.19-4.56c10.62-13.92,37.71-52.18,45.39-89.44a11.66,11.66,0,0,0-4.14-11.5c-17.28-13.64-58.25-44.26-126.09-73.7a11.49,11.49,0,0,0-4.57-1Z"/><path class="cls-50" d="M367.94,163.72a33,33,0,0,1-7.84-1c-18.85-4.66-30.05-25.12-25-45.6C339.43,99.7,354,87.5,370.64,87.5a33,33,0,0,1,7.84,1c18.84,4.66,30,25.12,25,45.6-4.32,17.46-18.92,29.66-35.52,29.66Z"/><path class="cls-51" d="M370.63,91.65a28.3,28.3,0,0,1,6.85.84,29.51,29.51,0,0,1,18.76,14.7,35.62,35.62,0,0,1,3.2,25.88c-3.8,15.35-17.05,26.5-31.5,26.5a28.36,28.36,0,0,1-6.85-.84A29.5,29.5,0,0,1,342.33,144a35.62,35.62,0,0,1-3.19-25.88c3.8-15.35,17-26.5,31.49-26.5m0-8.3c-18,0-34.71,13.25-39.55,32.81-5.62,22.74,6.92,45.41,28,50.63a36.74,36.74,0,0,0,8.84,1.08c18,0,34.71-13.25,39.55-32.81,5.63-22.74-6.92-45.41-28-50.63a36.74,36.74,0,0,0-8.84-1.08Z"/><path class="cls-50" d="M504.53,216.37a32.56,32.56,0,0,1-14.93-3.57,33.6,33.6,0,0,1-17-21.14,39.7,39.7,0,0,1,3.05-28.94c6.71-13.17,20-21.68,33.82-21.68a32.52,32.52,0,0,1,14.92,3.57,33.61,33.61,0,0,1,17,21.14,39.75,39.75,0,0,1-3,28.94c-6.72,13.17-20,21.68-33.82,21.68Z"/><path class="cls-51" d="M509.43,145.19a28.45,28.45,0,0,1,13,3.12,29.5,29.5,0,0,1,14.94,18.58,35.6,35.6,0,0,1-2.76,25.92c-6,11.79-17.83,19.41-30.12,19.41a28.38,28.38,0,0,1-13-3.11,29.5,29.5,0,0,1-14.94-18.58,35.59,35.59,0,0,1,2.76-25.92c6-11.8,17.83-19.42,30.12-19.42m0-8.3c-15,0-29.82,8.85-37.52,24-10.63,20.87-3.56,45.79,15.81,55.66a36.84,36.84,0,0,0,16.81,4c15,0,29.82-8.84,37.51-23.94,10.64-20.88,3.56-45.8-15.8-55.66a36.88,36.88,0,0,0-16.81-4Z"/><ellipse class="cls-52" cx="373.75" cy="238.24" rx="13.93" ry="6.44" transform="translate(52.73 543.85) rotate(-76.11)"/><path class="cls-53" d="M436.62,254c21.8,4,111.64,49.52,111.64,49.52s-.53,123.53-4.4,131.09c-1.84,8.93-2.37,20.2-23.33,40.1-6.78,3.22-9.69,11.9-144.71,7.81"/><path class="cls-53" d="M355.77,246.55s-119.7-3.91-124.77-1.8c0,0-7.51,102.5-6.66,108.63"/><ellipse class="cls-54" cx="508.28" cy="193.7" rx="17.45" ry="14.68" transform="translate(189.38 634.35) rotate(-74.97)"/><ellipse class="cls-54" cx="367.74" cy="109.81" rx="17.45" ry="14.68" transform="translate(245.66 473.65) rotate(-88.08)"/><path class="cls-55" d="M386.28,342.66l118,1.21a8.78,8.78,0,0,1,8.67,9.37l-4.66,69.89a8.78,8.78,0,0,1-8.85,8.2l-118.17-1.2a8.79,8.79,0,0,1-8.68-9.38l4.8-69.9A8.79,8.79,0,0,1,386.28,342.66Z"/><path class="cls-56" d="M384.27,346l118.3.95a6.85,6.85,0,0,1,6.77,7.29l-4.69,70.27a6.83,6.83,0,0,1-6.86,6.37l-118.3-.79a6.83,6.83,0,0,1-6.77-7.28l4.68-70.43A6.83,6.83,0,0,1,384.27,346Z"/><path class="cls-57" d="M459.23,382.15l-72.78-1.25a4.42,4.42,0,0,1-4.27-4.51l1.54-20.66a4.4,4.4,0,0,1,4.51-4.27L461,352.71a4.42,4.42,0,0,1,4.27,4.51l-1.54,20.66A4.4,4.4,0,0,1,459.23,382.15Z"/><ellipse class="cls-58" cx="399.45" cy="366.54" rx="10.63" ry="8.5" transform="translate(16.34 750.13) rotate(-87.58)"/><ellipse class="cls-59" cx="425.13" cy="366.77" rx="10.63" ry="8.5" transform="matrix(0.04, -1, 1, 0.04, 40.7, 776.01)"/><ellipse class="cls-59" cx="450.25" cy="367.75" rx="10.63" ry="8.5" transform="translate(63.79 802.04) rotate(-87.58)"/><path class="cls-60" d="M444,399.63l-57.31-.74a4.57,4.57,0,0,1-4.43-4.7h0a4.59,4.59,0,0,1,4.71-4.44l57.3.74a4.58,4.58,0,0,1,4.44,4.7h0A4.6,4.6,0,0,1,444,399.63Z"/><path class="cls-61" d="M410.29,426.79l-25.45-.48a4.58,4.58,0,0,1-4.43-4.7h0a4.59,4.59,0,0,1,4.71-4.44l25.45.48a4.58,4.58,0,0,1,4.43,4.7h0A4.59,4.59,0,0,1,410.29,426.79Z"/><path class="cls-61" d="M411.15,414l-25.45-.48a4.58,4.58,0,0,1-4.44-4.7h0a4.59,4.59,0,0,1,4.71-4.43l25.45.47a4.57,4.57,0,0,1,4.43,4.7h0A4.58,4.58,0,0,1,411.15,414Z"/><polygon class="cls-62" points="509.35 353.54 544.46 363.63 539.75 434.27 537.4 436 505.29 423.25 508.03 354.02 509.35 353.54"/><polygon class="cls-63" points="508.03 354.02 542.11 365.36 537.4 436 502.94 424.98 508.03 354.02"/><path class="cls-64" d="M382.24,394.19s10.08-2.46,19.14,1.27,10-4.51,14.31-4.12,4.86,6.75,10.72,6.5,4.09-2.61,6.86-2.41,2.57,3.08,5.2,2.91,4.27-8.17,5.78-7.85"/><polygon class="cls-65" points="473.44 353.54 508.27 353.62 503.52 425 468.35 424.49 473.44 353.54"/><path class="cls-25" d="M383.48,511.56a61.49,61.49,0,0,0-2-10.12c-4-13.84-16.36-55.73-27.67-81-6.66-14.86-10.68-25-14.14-32.63a63.55,63.55,0,0,0-17.44-22.71c-5-4.11-10.71-8.72-19.42-12.24-11.37-4.59-23.73-4.66-35.89-3.13-30.32,3.82-46.55,4.24-52.51,6-5.89,3.92-31.21,30-33.14,52.23-1.4,16.05-.38,38,10.72,55.32s55.62,100.55,75.49,102.48c23.19,2.25,82.86-.32,100.39-12.73C383.58,541.94,385.27,527.56,383.48,511.56Z"/><path class="cls-26" d="M278.24,563.41c-11.4,0-23.85-3.93-34.83-7.4l-4.06-1.27c-17.58-5.46-91.85-65.08-103.2-82.85-10.79-16.9-11.51-38.26-10.2-53.21,1.14-13.13,11.2-26.06,29.9-38.43l.75-.5,1.48-1c6.1-4.18,20.41-14,41.27-18.21a61.08,61.08,0,0,1,12.18-1.23,58,58,0,0,1,21.79,4.18c8.48,3.43,14.05,8,18.53,11.72a60.66,60.66,0,0,1,16.52,21.5c1.54,3.38,3.22,7.34,5.16,11.92,2.36,5.56,5.29,12.48,9,20.7,11.33,25.29,23.92,68,27.51,80.54a58.28,58.28,0,0,1,1.93,9.56c1.76,15.75,0,28.31-14.25,38.41-5.29,3.74-11.65,5.57-19.45,5.57Z"/><path d="M211.53,362.67a54.59,54.59,0,0,1,20.53,3.94c8,3.24,13.35,7.65,17.65,11.19a57.22,57.22,0,0,1,15.6,20.31c1.52,3.34,3.19,7.28,5.13,11.84,2.36,5.58,5.3,12.51,9,20.76,11.23,25.06,23.77,67.63,27.35,80.09a53.66,53.66,0,0,1,1.81,9c1.63,14.56.07,26.13-12.84,35.28C291,558.42,285.32,560,278.24,560c-10.88,0-23.07-3.84-33.82-7.23l-4.07-1.28c-7.66-2.38-29.07-17.1-53.28-36.64-23.66-19.1-43.43-37.52-48.09-44.81-5.67-8.89-12-25-9.68-51.11.65-7.54,4.67-15.17,11.93-22.69a96.33,96.33,0,0,1,16.47-13.22l.77-.51,1.51-1c5.94-4.06,19.84-13.59,40-17.68a57.42,57.42,0,0,1,11.51-1.17m0-6.72a64.83,64.83,0,0,0-12.85,1.29c-23.46,4.76-39,16.38-43.94,19.71-5.89,3.93-30.21,19.19-32.15,41.44-1.39,16-.37,37.94,10.72,55.31s86,78.34,105,84.25c12.12,3.76,26.51,8.82,39.89,8.82,7.67,0,15-1.66,21.39-6.19,15.74-11.15,17.44-25.52,15.65-41.52a60.09,60.09,0,0,0-2-10.12c-4-13.84-16.36-55.74-27.67-81-6.66-14.87-10.67-25-14.14-32.64A63.64,63.64,0,0,0,254,372.61c-5-4.1-10.7-8.71-19.41-12.23A61.28,61.28,0,0,0,211.53,356Z"/><ellipse class="cls-27" cx="177.51" cy="432.59" rx="44.8" ry="35.8" transform="translate(-258.32 601.98) rotate(-88.93)"/><ellipse class="cls-27" cx="221.93" cy="497.15" rx="32.09" ry="25.64" transform="translate(-279.28 709.75) rotate(-88.93)"/><ellipse class="cls-27" cx="272.54" cy="523.35" rx="25.25" ry="20.18" transform="translate(-255.81 786.07) rotate(-88.93)"/><ellipse class="cls-28" cx="175.22" cy="432.54" rx="16.74" ry="12.17" transform="translate(-260.52 599.65) rotate(-88.93)"/><ellipse class="cls-28" cx="220.77" cy="498.41" rx="14.45" ry="10.51" transform="translate(-317.84 582.38) rotate(-74.97)"/><ellipse class="cls-28" cx="272.51" cy="525.07" rx="10.71" ry="7.79" transform="translate(-305.27 652.11) rotate(-74.97)"/><path class="cls-29" d="M287.26,489.72s-5.3-11.66-23-6.53c-2.92-7.52-8.84-27.83-39.92-26.56,1.75-6.84,14.94-36.22-7.16-66.27,9.22-3.75,14.93-6.25,26,8.33S288.63,486.26,287.26,489.72Z"/><line class="cls-30" x1="339.47" y1="387.47" x2="269.74" y2="391.9"/><line class="cls-30" x1="300.65" y1="352.08" x2="223.02" y2="357"/><polyline class="cls-30" points="211.96 357.71 191.36 359.01 191.35 359.01"/><line class="cls-30" x1="358.12" y1="430.79" x2="288.66" y2="435.2"/><line class="cls-30" x1="373.08" y1="473.7" x2="303.88" y2="478.08"/><line class="cls-30" x1="384" y1="518" x2="315.59" y2="522.34"/><path class="cls-66" d="M500.82,416.64l-27.07-1.37a2.27,2.27,0,0,1-2-2.47l2.51-51.95a2.25,2.25,0,0,1,2.24-2.26L503.55,360a2.27,2.27,0,0,1,2,2.48l-2.5,51.95A2.26,2.26,0,0,1,500.82,416.64Z"/><path class="cls-67" d="M498.7,416.53l-27.07-1.37a2.27,2.27,0,0,1-2-2.47l2.51-51.95a2.25,2.25,0,0,1,2.24-2.26l27.07,1.37a2.26,2.26,0,0,1,2,2.47l-2.5,51.95A2.26,2.26,0,0,1,498.7,416.53Z"/><g id="Rectangle_6" data-name="Rectangle 6"><path class="cls-68" d="M501.63,370.7l.16-3-5.12-.28.29-5.67-2.74-.15-.29,5.67-2.47-.14.29-5.67-2.65-.14-.29,5.67-2.56-.14.29-5.67-2.65-.15-.29,5.67-5.21-.28-.15,3,5.21.29-.14,2.73-5.21-.28-.15,2.93,5.2.29L483,378.2l-5.21-.28-.15,2.94,5.21.28-.3,5.77,2.65.15.3-5.77,2.56.14-.3,5.77,2.65.14.3-5.77,2.46.14-.29,5.77,2.74.15.3-5.77,5.11.28.15-2.94-5.11-.28.14-2.84,5.12.29.15-2.94-5.12-.28.14-2.73Zm-15.53-.85,2.56.14-.15,2.73-2.55-.14Zm-.44,8.5.14-2.84,2.56.14-.14,2.84Zm7.67.42-2.46-.14.14-2.83,2.47.13Zm.3-5.77-2.47-.14.15-2.73,2.46.14Z"/></g><g id="Rounded_Rectangle_2" data-name="Rounded Rectangle 2"><polygon class="cls-69" points="481.63 382.51 482.52 365.17 497.9 366.01 497 383.35 481.63 382.51"/><path class="cls-70" d="M483.86,366.66l12.56.68-.75,14.52-12.56-.68.75-14.52m-1.8-2.92a1,1,0,0,0-.92,1l-.94,18.12a1,1,0,0,0,.87,1.07l16.35.89h.05a1,1,0,0,0,.92-1l.93-18.12a1,1,0,0,0-.86-1.07l-16.36-.89Z"/></g><g id="Rounded_Rectangle_3" data-name="Rounded Rectangle 3"><path class="cls-71" d="M497.46,393.74l-5.2-.29a2.32,2.32,0,0,0-2.32,2.31L489.11,412a2.32,2.32,0,0,0,2.06,2.55l5.21.29a2.31,2.31,0,0,0,2.31-2.31l.84-16.26A2.33,2.33,0,0,0,497.46,393.74Z"/></g><g id="Rectangle_8" data-name="Rectangle 8"><polygon class="cls-71" points="490.32 413 491.24 395.02 498.5 395.42 497.57 413.4 490.32 413"/><path class="cls-4" d="M491.36,395.15l7,.38-.91,17.74-7-.38.92-17.74m-.23-.26-.94,18.23,7.49.41.94-18.23-7.49-.41Z"/></g><g id="Rounded_Rectangle_3_copy" data-name="Rounded Rectangle 3 copy"><path class="cls-71" d="M481.66,389.22,478,389a1.34,1.34,0,0,0-1.35,1.34l-.94,18.29a1.37,1.37,0,0,0,1.2,1.49l3.65.2a1.35,1.35,0,0,0,1.35-1.35l.94-18.29A1.36,1.36,0,0,0,481.66,389.22Z"/></g><g id="Ellipse_1_copy_2_Rectangle_7_copy_Clipping_Path" data-name="Ellipse 1 copy 2 + Rectangle 7 copy Clipping Path"><path class="cls-72" d="M494.25,406.35a3,3,0,1,0,2.5,3.08A2.8,2.8,0,0,0,494.25,406.35Z"/></g><g id="Rounded_Rectangle_4" data-name="Rounded Rectangle 4"><path class="cls-73" d="M480.71,406.81l-3.47-.19a1,1,0,0,0-1,1l0,.92a1,1,0,0,0,.87,1.06l3.47.19a1,1,0,0,0,1-1l.05-.92A1,1,0,0,0,480.71,406.81Z"/></g><g id="Shape_5" data-name="Shape 5"><polygon class="cls-71" points="484.07 386.89 483.62 386.87 483.42 390.92 482.45 390.87 482.42 391.37 483.4 391.43 483.15 396.69 482.15 396.64 482.12 397.14 483.13 397.2 482.88 402.36 481.86 402.31 481.83 402.81 482.86 402.87 482.6 408.34 481.55 408.28 481.52 408.79 482.99 408.87 483 408.56 483.05 408.56 484.07 386.89"/></g><g id="Shape_5_copy" data-name="Shape 5 copy"><polygon class="cls-71" points="476.66 391.16 476.69 390.65 475.71 390.6 475.93 386.55 475.48 386.52 474.27 408.18 474.31 408.19 474.3 408.49 475.76 408.57 475.79 408.06 474.74 408.01 475.04 402.54 476.07 402.6 476.1 402.09 475.07 402.04 475.36 396.87 476.36 396.93 476.39 396.42 475.39 396.37 475.68 391.1 476.66 391.16"/></g><g id="Shape_5_copy_2" data-name="Shape 5 copy 2"><path class="cls-71" d="M476.82,367.51l-.45,0-.89,19,.45,0,.33-6.89,1.54.09,0-.51-1.54-.08.25-5.27,1.56.09,0-.51-1.57-.09Zm.05,0,0,.51,1.46.08,0-.51Z"/></g><g id="Shape_6" data-name="Shape 6"><polygon class="cls-71" points="502.49 369.12 500.48 409.93 500.94 409.95 502.95 369.14 502.49 369.12"/></g><g id="Shape_7" data-name="Shape 7"><polygon class="cls-71" points="498.82 409.32 498.79 409.83 500.62 409.93 500.65 409.43 498.82 409.32"/></g><g id="Shape_8" data-name="Shape 8"><polygon class="cls-71" points="499.42 399.41 499.39 399.92 501.22 400.01 501.25 399.51 499.42 399.41"/></g><g id="Shape_9" data-name="Shape 9"><polygon class="cls-71" points="501.13 380.52 501.1 381.02 502.29 381.09 502.31 380.58 501.13 380.52"/></g><g id="Shape_10" data-name="Shape 10"><polygon class="cls-71" points="501.33 374.74 501.31 375.25 502.68 375.32 502.7 374.81 501.33 374.74"/></g><g id="Shape_11" data-name="Shape 11"><polygon class="cls-71" points="501.72 369.07 501.69 369.58 502.97 369.65 503 369.15 501.72 369.07"/></g><g id="Rounded_Rectangle_5" data-name="Rounded Rectangle 5"><path class="cls-74" d="M481,401l-3.48-.19a1,1,0,0,0-1,1l-.05.91a1,1,0,0,0,.86,1.07l3.48.19a1,1,0,0,0,1-1l.05-.91A1,1,0,0,0,481,401Z"/></g><g id="Rounded_Rectangle_6" data-name="Rounded Rectangle 6"><path class="cls-75" d="M481.3,395.27l-3.47-.19a1,1,0,0,0-1,1l-.06,1a1,1,0,0,0,.87,1.07l3.47.19a1,1,0,0,0,1-1l.06-1A1,1,0,0,0,481.3,395.27Z"/></g><g id="Rounded_Rectangle_7" data-name="Rounded Rectangle 7"><path class="cls-76" d="M481.6,389.6l-3.48-.19a1,1,0,0,0-1,1l-.05.91a1,1,0,0,0,.86,1.07l3.48.19a1,1,0,0,0,1-1l0-.91A1,1,0,0,0,481.6,389.6Z"/></g><path class="cls-77" d="M494.57,402.7a2.38,2.38,0,0,1-1.11-.26,3.26,3.26,0,0,1-1.41-4.14,2.84,2.84,0,0,1,2.57-1.86,2.55,2.55,0,0,1,1.11.26,3,3,0,0,1,1.52,1.9,3.44,3.44,0,0,1-.11,2.24A2.83,2.83,0,0,1,494.57,402.7Z"/><path class="cls-78" d="M494.62,396.78h0a2.19,2.19,0,0,1,1,.23,2.68,2.68,0,0,1,1.35,1.68,3.17,3.17,0,0,1-.11,2,2.51,2.51,0,0,1-2.25,1.64,2.15,2.15,0,0,1-1-.23,2.92,2.92,0,0,1-1.25-3.71,2.52,2.52,0,0,1,2.26-1.65m0-.67a3.15,3.15,0,0,0-2.88,2.07,3.6,3.6,0,0,0,1.57,4.57,2.86,2.86,0,0,0,1.26.29,3.16,3.16,0,0,0,2.87-2.05v0a3.8,3.8,0,0,0,.13-2.46,3.34,3.34,0,0,0-1.7-2.11,2.86,2.86,0,0,0-1.26-.29Z"/><path class="cls-77" d="M497.58,398.51a3.8,3.8,0,0,1-.13,2.46v0l-.74-.07.19-2.41Z"/><path class="cls-77" d="M494.11,411.37a1.78,1.78,0,0,1-.81-.19,2.38,2.38,0,0,1-1-3,2.07,2.07,0,0,1,1.88-1.36,1.78,1.78,0,0,1,.81.19,2.2,2.2,0,0,1,1.12,1.38A2.56,2.56,0,0,1,496,410,2.08,2.08,0,0,1,494.11,411.37Z"/><path class="cls-78" d="M494.15,407h0a1.57,1.57,0,0,1,.7.17,2,2,0,0,1,1,1.23,2.31,2.31,0,0,1-.08,1.49,1.83,1.83,0,0,1-1.65,1.2,1.57,1.57,0,0,1-.7-.17,2.14,2.14,0,0,1-.91-2.71,1.83,1.83,0,0,1,1.65-1.21m0-.49a2.32,2.32,0,0,0-2.11,1.51,2.64,2.64,0,0,0,1.15,3.34,2,2,0,0,0,.92.22,2.3,2.3,0,0,0,2.1-1.5h0a2.73,2.73,0,0,0,.09-1.8,2.4,2.4,0,0,0-1.24-1.54,2,2,0,0,0-.92-.22Z"/><path class="cls-77" d="M496.31,408.31a2.73,2.73,0,0,1-.09,1.8h0l-.54-.05.14-1.76Z"/><line class="cls-79" x1="463.46" y1="115.61" x2="440.53" y2="104"/><path class="cls-31" d="M162.14,346.7l78.67-68.46c13-12.06,24.26-18.24,36.69-6.49h0c10.85,12.76,5.65,20-4.62,33l-67.67,88.77a31.2,31.2,0,0,1-44,1.25h0C148.8,383.05,150.39,359.14,162.14,346.7Z"/><path class="cls-32" d="M168.05,341.39l80.82-72.59c13-12.06,42.34,13.55,32.08,26.56l-67.68,88.76a31.19,31.19,0,0,1-44,1.25h0A31.2,31.2,0,0,1,168.05,341.39Z"/><path class="cls-33" d="M158.79,377.26s-3.38-4.05-2-13.74c-13.41.89-45.28,7.71-47.28,12.46-1.36,3.23-.75,9.49,0,15.38.71,5.29,5.89,8.67,10.76,6.5,14.56-6.5,36.71-17.18,36.71-17.18Z"/><path class="cls-34" d="M156.84,363.27c-13.41.9-45,3.87-47,8.61-1.36,3.23-1.32,9.61-.93,15.23a7.67,7.67,0,0,0,10.76,6.5c14.55-6.5,38.86-15.11,39.51-16.3A16.08,16.08,0,0,1,156.84,363.27Z"/><path class="cls-33" d="M172,393.48s-5.14-1.19-9.89-9.75c-10.14,8.82-31.4,33.54-30.12,38.52.87,3.4,5.14,8,9.33,12.23,3.76,3.79,9.93,3.35,12.5-1.33,7.66-14,18.84-35.88,18.84-35.88Z"/><path class="cls-34" d="M162,383.51c-10.14,8.83-33.49,30.29-32.21,35.28.87,3.39,4.76,8.45,8.47,12.69a7.66,7.66,0,0,0,12.5-1.33c7.66-14,21.81-35.54,21.61-36.88A16.08,16.08,0,0,1,162,383.51Z"/><path class="cls-33" d="M195,395.76s-4.63,2.51-13.87-.75c-1.75,13.32-5.37,35.6-1.11,38.48,2.9,2,3.23,2.32,9.16,2.7,5.32.35,9-4,8.47-9.28a133,133,0,0,1,.36-28.75Z"/><path class="cls-34" d="M180.88,394.92c-1.75,13.33-9.1,34.56-4.84,37.45,2.9,2,3.23,2.89,8.82,3.61,5.29.68,8.9-4,8.48-9.28-1.28-15.84,2.8-30.47,1.76-31.34A16,16,0,0,1,180.88,394.92Z"/><path class="cls-33" d="M159.55,349.39,158,359.32s-2.58,2.13-3.19,2.54c-3.4,2.33-35.06-5.59-33.37-12s5.9-14.25,8.19-14.57c.28,0,3.13-1.26,3.13-1.26S161.11,348.47,159.55,349.39Z"/><path class="cls-34" d="M162.74,346.85a21.2,21.2,0,0,0-3.45,6,35.75,35.75,0,0,0-1.32,6.43c-.7,4.06-35.07-5.59-33.37-12s6.53-13.21,8.82-13.54S164.52,345.8,162.74,346.85Z"/><ellipse class="cls-35" cx="190.6" cy="361.66" rx="10.99" ry="12.18" transform="translate(-196.23 493.88) rotate(-81.08)"/><ellipse class="cls-80" cx="507.27" cy="291.88" rx="3.58" ry="11.74" transform="translate(107.78 719.57) rotate(-76.87)"/><path class="cls-72" d="M484.71,409.31a4.2,4.2,0,0,1,1.12,1.86"/><path d="M658.21,64.25h21.86a6.59,6.59,0,0,1,6.59,6.59v7.9a0,0,0,0,1,0,0h-35a0,0,0,0,1,0,0v-7.9A6.59,6.59,0,0,1,658.21,64.25Z"/><rect x="631.11" y="82.05" width="77.52" height="166.42" rx="14.31"/><path d="M694.6,248h-44c-1.63,0-3.28.09-4.9,0a14.21,14.21,0,0,1-13.81-14c-.12-3,0-6,0-9V102.49c0-3.3-.36-7,.57-10.21,3.27-11.17,14.9-9.71,23.91-9.71h27.67c7.82,0,16.82-1.24,21.68,6.54,2.53,4,2.12,8.58,2.12,13.09v44.86c0,28.94,1,58.09,0,87-.27,7.65-5.64,13.51-13.44,13.88-.85,0-1.24,1.09-.17,1a15.46,15.46,0,0,0,15.18-15.66c.07-4.44,0-8.88,0-13.32V109.12c0-4.12.11-8.25,0-12.37-.23-8.63-6.41-14.92-15-15.22-15.7-.55-31.54-.11-47.25,0-8.89.06-16.42,5.47-16.79,14.91-.12,3,0,6.09,0,9.12V216.14c0,10.53-3,26.88,9.31,31.78,5.79,2.31,13.78,1.07,19.83,1.07H694C694.72,249,695.65,248,694.6,248Z"/><path class="cls-4" d="M705,97.23V232.75a11.46,11.46,0,0,1-11.43,11.43H646.16a11.46,11.46,0,0,1-11.43-11.43V97.23A11.46,11.46,0,0,1,646.16,85.8h47.43A11.46,11.46,0,0,1,705,97.23Z"/><path class="cls-81" d="M703.28,228.54v4.69c0,5.17-4.91,9.39-10.89,9.39H647.23c-6,0-10.89-4.22-10.89-9.39v-15.4Z"/><path class="cls-4" d="M667.54,134.45a2.7,2.7,0,0,1,4.67,0L683.49,154l11.27,19.54a2.69,2.69,0,0,1-2.33,4H647.32a2.69,2.69,0,0,1-2.33-4L656.26,154Z"/><path d="M668.25,134.4c2.4-2.64,4.31,2.22,5.13,3.64l4.92,8.52,5.2,9L692.41,171c.54.95,1.94,2.64,1.93,3.85,0,3.47-4.9,2.39-7,2.39H659.1c-3.05,0-15.28,1.81-13.23-4,1.65-4.72,5.44-9.43,7.94-13.76l14.5-25.11c.13-.22-1.31-.14-1.54.27l-15.2,26.32-5.4,9.36c-.85,1.47-2.8,3.8-2.19,5.66,1.28,3.87,12.41,2,15.11,2,10.68,0,21.72.84,32.34,0,4.1-.33,5.08-2.72,3.18-6.19-3.16-5.8-6.61-11.46-9.91-17.18l-8.49-14.7c-1.94-3.36-4.91-10.23-9.38-5.32C666.51,134.86,668,134.69,668.25,134.4Z"/><path class="cls-82" d="M667.9,140.06a2.21,2.21,0,0,1,3.82,0l9.25,16,9.25,16a2.21,2.21,0,0,1-1.92,3.31h-37a2.21,2.21,0,0,1-1.91-3.31l9.25-16Z"/><path d="M669.31,144.24q.21,8.35-.21,16.69c0,.28,1.54.08,1.56-.42q.42-8.34.2-16.69c0-.31-1.57-.06-1.55.42Z"/><path d="M669.47,167a1.23,1.23,0,0,0-.43.83c0,.35.42.34.67.32a1.78,1.78,0,0,0,1.72-1.27c.05-.27-.28-.32-.48-.34-.63,0-2,.19-1.91,1.08s1.47.49,1.9.15.71-1.22-.07-1.41c-.6-.15-1.74.17-1.7.93,0,.48,1.59.17,1.56-.42-.66-.08-1,.07-.9.46-.08.14-.07.16,0,.07l.61-.12c.12.07.17,0,.14-.08q-.72.22-.27.21l-.47-.33c0,.21-.16.25.06.23l.67.32a.55.55,0,0,1,.12-.39c.24-.22.17-.46-.14-.53a1.35,1.35,0,0,0-1.11.29Z"/><path class="cls-83" d="M572.28,451l8.05-5.16,15.35,1.94,9.18,9.52,66.49,33.91s6.39-7.23,7.79-5.75c2.52,1.23,6.29,3.66,6.29,3.66l4,9.35,9.12,4.86s5.65-4.46,9.74-2,37.46,18.32,37.46,18.32,2.76,6,.21,12S572.28,451,572.28,451Z"/><g id="Rounded_Rectangle_1_Rounded_Rectangle_4_Clipping_Path" data-name="Rounded Rectangle 1 + Rounded Rectangle 4 Clipping Path"><path class="cls-50" d="M745,526.47,704.88,505.8c-2.59-1.33-7.87,2.72-10.26,1.49l-7.18-3.7c-3-1.51-2.7-8.16-4.58-9.13l-3.63-1.87a3.73,3.73,0,0,0-5,1.61l-11.56,22.44a3.73,3.73,0,0,0,1.61,5l4,2.08c1.88,1,7.29-3.5,10.13-2l7,3.62c2.37,1.22,1.92,8.24,4.48,9.56l40.12,20.66a3.73,3.73,0,0,0,5-1.61l11.56-22.44A3.73,3.73,0,0,0,745,526.47Z"/></g><g id="Rectangle_1" data-name="Rectangle 1"><polygon class="cls-84" points="599.11 462.56 590.37 454.2 572.28 451 568.47 458.4 581.85 471.73 593.6 473.6 665.7 510.72 671.35 499.76 599.11 462.56"/></g><g id="Rectangle_1_copy" data-name="Rectangle 1 copy"><polygon class="cls-85" points="588.97 455.67 574.49 453.11 571.44 459.03 582.15 469.69 606.73 473.65 588.97 455.67"/></g><rect class="cls-86" x="713.9" y="507.23" width="9.44" height="47.94" rx="4.72" transform="translate(-82.61 926.94) rotate(-62.76)"/><path class="cls-86" d="M708.23,512.29,739,528.11a4.26,4.26,0,0,0,5.71-1.83L706.4,506.59A4.25,4.25,0,0,0,708.23,512.29Z"/><path class="cls-86" d="M697.14,533.83l30.72,15.82a4.25,4.25,0,0,1,1.83,5.7l-38.25-19.69A4.24,4.24,0,0,1,697.14,533.83Z"/><path class="cls-67" d="M687.57,331.45,681.92,333s-4.38,22,7.26,32c4,3.16,2.72,2.59,6.39,4.16,2-.09,5.8,2.95,7.91,8.18s24.68,68,27.84,87.65c0,0-10.19,6.33-5.06,18.77a127.41,127.41,0,0,0,10.63,17.13l3.7-1.44s-5.55-16-.36-21.47,10.88-7.81,17.26-4.48c4.67,4.7,8.7,10.36,9.39,20.73l3.84,0s5.9-18.78-1.51-28.57-15.38-12-18.83-10.89c-1.09-5.95-28.93-80.91-27-87.66,0-3.85,0-6.35,0-6.35s10.53-10.24,3.67-22.15S720.4,327.5,716.27,324a21.33,21.33,0,0,0-4.94,1.1S720.56,338,713.61,347c0,0-8.76,10.57-17.77,4.44S687.57,331.45,687.57,331.45Z"/><path class="cls-87" d="M688.53,330.39,685,331.65s-4.38,22,7.26,32c4,3.17,2.72,2.6,6.39,4.17,2-.09,5.8,2.95,7.9,8.18s24.69,67.94,27.84,87.65c0,0-10.19,6.33-5.06,18.77a127.41,127.41,0,0,0,10.63,17.13l3.7-1.45s-5.55-16-.35-21.46,10.88-7.81,17.26-4.48c4.66,4.69,8.7,10.36,9.38,20.73l3.85,0a19.42,19.42,0,0,0,3.54-1.26c1.09-4,1.33-18.87-5.06-27.31-7.41-9.8-15.38-12-18.83-10.9-1.09-6-28.92-80.9-27-87.65,0-3.85,0-6.35,0-6.35s10.54-10.24,3.68-22.15-8-11.3-12.17-14.81a14,14,0,0,0-3.55,1.26s9.24,12.91,2.28,21.89c0,0-8.75,10.57-17.77,4.44S688.53,330.39,688.53,330.39Z"/><path class="cls-88" d="M694.17,328.88l-5.64,1.51s-4.39,22,7.25,32c4,3.16,2.72,2.6,6.39,4.16,2-.08,5.8,3,7.91,8.19s24.68,67.94,27.84,87.65c0,0-10.19,6.32-5.06,18.77a128.26,128.26,0,0,0,10.63,17.13l3.7-1.45s-5.55-16-.35-21.47,10.87-7.81,17.26-4.48c4.66,4.7,8.69,10.36,9.38,20.74l3.84,0s5.9-18.78-1.51-28.57S760.43,451.17,757,452.23c-1.09-6-27.78-80.17-27-87.66a13.21,13.21,0,0,1,0-6.35s9.52-9.71,3.68-22.15c-3.69-7.84-6.65-11.14-10.78-14.64a21.57,21.57,0,0,0-4.94,1.09s9.23,12.91,2.28,21.9c0,0-8.76,10.56-17.77,4.43S694.17,328.88,694.17,328.88Z"/></svg>