<svg id="Layer_1" data-name="Layer 1" xmlns="http://www.w3.org/2000/svg" xmlns:xlink="http://www.w3.org/1999/xlink" viewBox="0 0 906 603.01"><defs><style>.cls-1{fill:#757575;}.cls-2{fill:#00b1ff;}.cls-3{fill:#15bdf9;}.cls-4,.cls-9{fill:#fff;}.cls-5{fill:#626c72;}.cls-6{fill:#96a5b3;}.cls-7{fill:#2f3e4a;}.cls-8{fill:#222d35;}.cls-9{opacity:0.36;}.cls-10{fill:#353535;stroke-width:0.72px;}.cls-10,.cls-24,.cls-26,.cls-34,.cls-54{stroke:#000;}.cls-10,.cls-24,.cls-26{stroke-linejoin:round;}.cls-11,.cls-19,.cls-20{fill:#4d4d4d;}.cls-12{fill:#b3b3b3;}.cls-13{fill:#d3161d;}.cls-14{fill:#adadad;stroke:#080000;stroke-width:0.98px;}.cls-14,.cls-15,.cls-16,.cls-17,.cls-18,.cls-19,.cls-20,.cls-25,.cls-27,.cls-29,.cls-30,.cls-34,.cls-38,.cls-48,.cls-49,.cls-50,.cls-51,.cls-52,.cls-53,.cls-54,.cls-56{stroke-miterlimit:10;}.cls-15,.cls-30,.cls-34,.cls-38,.cls-49,.cls-53,.cls-56{fill:none;}.cls-15,.cls-16,.cls-27,.cls-29,.cls-38,.cls-53{stroke:#070707;}.cls-15{stroke-width:1.51px;}.cls-16{fill:#77401b;}.cls-16,.cls-17,.cls-38{stroke-width:0.99px;}.cls-17,.cls-21,.cls-54,.cls-58{fill:#f8c946;}.cls-17{stroke:#020202;}.cls-18,.cls-35{fill:#282828;}.cls-18,.cls-19,.cls-20{stroke:#151616;}.cls-18,.cls-19{stroke-width:0.81px;}.cls-20{stroke-width:2.97px;}.cls-22{fill:#683919;}.cls-23,.cls-29{fill:#945320;}.cls-24{fill:#515051;stroke-width:0.99px;}.cls-25,.cls-28{fill:#161616;}.cls-25,.cls-30,.cls-48,.cls-49,.cls-50,.cls-51,.cls-52,.cls-56{stroke:#0a0a0a;}.cls-25,.cls-26,.cls-27,.cls-29,.cls-30,.cls-34{stroke-width:0.86px;}.cls-26{fill:#8e8a8b;}.cls-27{fill:#e2b647;}.cls-31{fill:#dddbd7;}.cls-32{fill:#232323;}.cls-33{fill:#3a3a3a;}.cls-36{fill:#7c7c7c;}.cls-37{fill:#666;}.cls-39{fill:#7f1119;}.cls-40{fill:#5e0e18;}.cls-41{fill:#352f49;}.cls-42,.cls-57{fill:#e41e00;}.cls-43{fill:#fffe28;}.cls-44{fill:#18ff08;}.cls-45{fill:#dbdddd;}.cls-46{fill:#0fb0db;}.cls-47{fill:#303435;}.cls-48,.cls-49,.cls-50,.cls-51,.cls-52{stroke-width:0.39px;}.cls-48{fill:url(#radial-gradient);}.cls-50{fill:url(#radial-gradient-2);}.cls-51{fill:url(#radial-gradient-3);}.cls-52{fill:url(#radial-gradient-4);}.cls-53,.cls-54,.cls-56{stroke-width:0.5px;}.cls-55{fill:#389cce;}.cls-57{opacity:0.33;}.cls-58{opacity:0.38;}.cls-59{fill:#17ff1b;opacity:0.23;}</style><radialGradient id="radial-gradient" cx="-2359.16" cy="899.26" r="3.63" gradientTransform="matrix(0, 1.66, -1.66, 0, 2043.3, 4261.44)" gradientUnits="userSpaceOnUse"><stop offset="0.2" stop-color="#666"/><stop offset="0.57" stop-color="#585858"/><stop offset="1" stop-color="#4d4d4d"/></radialGradient><radialGradient id="radial-gradient-2" cx="-2373.86" cy="935.2" r="3.63" gradientTransform="matrix(0, 1.66, -1.66, 0, 2074.63, 4343.74)" xlink:href="#radial-gradient"/><radialGradient id="radial-gradient-3" cx="-2358.74" cy="934.31" r="3.63" gradientTransform="matrix(0, 1.66, -1.66, 0, 2098.28, 4318.83)" xlink:href="#radial-gradient"/><radialGradient id="radial-gradient-4" cx="-2372.32" cy="899.88" r="3.63" gradientTransform="matrix(0, 1.66, -1.66, 0, 2022.44, 4282.86)" xlink:href="#radial-gradient"/></defs><title>lighting</title><path class="cls-1" d="M41.33,16.29H865.56a39.84,39.84,0,0,1,39.82,39.82V562.59a39.84,39.84,0,0,1-39.82,39.82H41.33A39.84,39.84,0,0,1,1.51,562.59V56.11A39.84,39.84,0,0,1,41.33,16.29Z"/><path class="cls-2" d="M904.92,41V547.46a39.84,39.84,0,0,1-39.82,39.82H40.87A39.84,39.84,0,0,1,1.05,547.46h0V41A39.84,39.84,0,0,1,40.87,1.16H865.1A39.84,39.84,0,0,1,904.92,41Z"/><path class="cls-3" d="M904.9,35H2A39.81,39.81,0,0,1,41.33,1.56H865.56A39.93,39.93,0,0,1,904.9,35Z"/><path class="cls-4" d="M865.56,14.72A26.29,26.29,0,0,1,891.82,41V547.46a26.29,26.29,0,0,1-26.26,26.26H41.33a26.29,26.29,0,0,1-26.26-26.26V41A26.29,26.29,0,0,1,41.33,14.72H865.56m0-13.56H41.33A39.84,39.84,0,0,0,1.51,41V547.46a39.84,39.84,0,0,0,39.82,39.82H865.56a39.84,39.84,0,0,0,39.82-39.82V41A39.84,39.84,0,0,0,865.56,1.16Z"/><circle class="cls-5" cx="859.91" cy="46.32" r="18.71"/><circle class="cls-6" cx="859.91" cy="46.32" r="16.72"/><polygon class="cls-7" points="870.58 41.54 869.38 53.16 858.71 57.94 849.24 51.09 850.35 39.47 861.1 34.69 870.58 41.54"/><path class="cls-8" d="M870.58,41.54,870,46.79a14.62,14.62,0,0,0-9.63-5.65,13.69,13.69,0,0,0-10.6,3.58l.56-5.25L861,34.69Z"/><circle class="cls-5" cx="46.99" cy="46.32" r="18.71"/><circle class="cls-6" cx="46.99" cy="46.32" r="16.72"/><polygon class="cls-7" points="57.18 40.42 57.18 52.21 46.99 58.02 36.87 52.21 36.87 40.42 46.99 34.61 57.18 40.42"/><path class="cls-8" d="M57.18,40.42v5.34a14.81,14.81,0,0,0-10.11-4.62c-6.29-.24-10.2,4.62-10.2,4.62V40.42L47,34.61Z"/><circle class="cls-5" cx="46.99" cy="539.34" r="18.71"/><circle class="cls-6" cx="46.99" cy="539.34" r="16.72"/><polygon class="cls-7" points="58.69 538.47 53.6 549.06 41.89 549.85 35.28 540.14 40.38 529.63 52.08 528.75 58.69 538.47"/><path class="cls-8" d="M58.69,538.47l-2.31,4.77a14.59,14.59,0,0,0-7.08-8.6,13.29,13.29,0,0,0-11.15-.24l2.31-4.77,11.7-.88Z"/><circle class="cls-5" cx="857.36" cy="539.26" r="18.71"/><circle class="cls-6" cx="857.36" cy="539.26" r="16.72"/><polygon class="cls-7" points="866.04 531.38 868.51 542.85 859.75 550.73 848.6 547.07 846.21 535.6 854.97 527.79 866.04 531.38"/><path class="cls-8" d="M866,531.38l1.11,5.17a14.37,14.37,0,0,0-10.91-2.39c-6.13,1.12-9,6.61-9,6.61l-1.12-5.17,8.76-7.81Z"/><ellipse class="cls-9" cx="411.21" cy="400.26" rx="165.65" ry="263.93" transform="translate(-61.46 725.65) rotate(-78.77)"/><path class="cls-10" d="M660,476.36A62.9,62.9,0,0,0,658,466.09c-4-14-16.6-56.54-28.07-82.15-6.76-15.08-10.83-25.39-14.35-33.11a64.6,64.6,0,0,0-17.69-23c-5.05-4.16-10.86-8.84-19.7-12.42-11.53-4.66-24.07-4.73-36.41-3.17-30.75,3.87-47.22,4.3-53.26,6.12-6,4-31.66,30.43-33.63,53-1.41,16.29-.38,38.49,10.88,56.12s56.43,102,76.58,104c23.53,2.29,84.06-.32,101.84-12.92C660.12,507.17,661.85,492.59,660,476.36Z"/><path class="cls-11" d="M553.26,529c-11.56,0-24.19-4-35.33-7.5l-4.11-1.29c-8.27-2.57-29.93-17.39-55.18-37.77C434,462.5,414.1,443.9,409.12,436.11c-10.94-17.14-11.67-38.81-10.35-54,1.16-13.32,11.37-26.43,30.34-39l.76-.51,1.5-1c6.2-4.25,20.7-14.18,41.87-18.48a62.89,62.89,0,0,1,12.36-1.24,58.75,58.75,0,0,1,22.09,4.24c8.61,3.48,14.27,8.14,18.81,11.88a61.47,61.47,0,0,1,16.75,21.82c1.57,3.43,3.27,7.44,5.24,12.09,2.39,5.65,5.37,12.67,9.1,21,11.49,25.63,24.26,69,27.91,81.7a59.11,59.11,0,0,1,2,9.7c1.79,16,0,28.71-14.45,39-5.37,3.8-11.82,5.65-19.74,5.65Z"/><path d="M485.6,325.32a55.33,55.33,0,0,1,20.82,4c8.12,3.29,13.55,7.76,17.91,11.36a58,58,0,0,1,15.82,20.6c1.54,3.38,3.24,7.38,5.2,12,2.4,5.66,5.38,12.69,9.13,21.06,11.39,25.42,24.11,68.61,27.74,81.24a55.44,55.44,0,0,1,1.84,9.14c1.65,14.77.07,26.51-13,35.8-4.77,3.38-10.59,5-17.77,5-11,0-23.39-3.9-34.3-7.34l-4.13-1.3c-7.77-2.41-29.49-17.35-54.05-37.17-24-19.37-44.06-38.06-48.78-45.46-5.76-9-12.14-25.32-9.83-51.84.67-7.65,4.74-15.39,12.1-23A99.28,99.28,0,0,1,431,346l.78-.51,1.53-1c6-4.13,20.13-13.79,40.62-17.94a59,59,0,0,1,11.68-1.18m0-6.82a65.92,65.92,0,0,0-13,1.31c-23.8,4.83-39.52,16.62-44.58,20-6,4-30.64,19.47-32.61,42C394,398.12,395,420.32,406.25,438s87.22,79.47,106.56,85.47c12.29,3.81,26.88,8.94,40.45,8.94,7.79,0,15.23-1.69,21.71-6.28,16-11.31,17.69-25.89,15.87-42.12a63,63,0,0,0-2.06-10.26c-4-14-16.6-56.55-28.07-82.15-6.76-15.09-10.84-25.4-14.35-33.11a64.54,64.54,0,0,0-17.69-23c-5-4.16-10.86-8.84-19.7-12.41a62.19,62.19,0,0,0-23.37-4.49Z"/><ellipse class="cls-12" cx="451.08" cy="396.24" rx="45.44" ry="36.31" transform="translate(46.49 839.84) rotate(-88.93)"/><ellipse class="cls-12" cx="496.14" cy="461.74" rx="32.56" ry="26.01" transform="translate(25.22 949.17) rotate(-88.93)"/><ellipse class="cls-12" cx="547.49" cy="488.32" rx="25.62" ry="20.47" transform="translate(49.03 1026.59) rotate(-88.93)"/><ellipse class="cls-13" cx="448.76" cy="396.2" rx="16.98" ry="12.35" transform="translate(44.25 837.48) rotate(-88.93)"/><ellipse class="cls-13" cx="494.96" cy="463.01" rx="14.66" ry="10.66" transform="translate(-80.56 820.98) rotate(-74.97)"/><ellipse class="cls-13" cx="547.45" cy="490.06" rx="10.86" ry="7.9" transform="translate(-67.8 891.72) rotate(-74.97)"/><path class="cls-14" d="M562.42,454.2s-5.38-11.83-23.29-6.63c-3-7.63-9-28.23-40.5-26.94,1.78-6.93,15.15-36.74-7.27-67.22,9.36-3.81,15.15-6.35,26.37,8.45S563.81,450.69,562.42,454.2Z"/><line class="cls-15" x1="615.38" y1="350.47" x2="544.65" y2="354.97"/><line class="cls-15" x1="576" y1="314.58" x2="497.25" y2="319.57"/><polyline class="cls-15" points="486.03 320.28 465.13 321.61 465.12 321.61"/><line class="cls-15" x1="634.3" y1="394.42" x2="563.84" y2="398.89"/><line class="cls-15" x1="649.48" y1="437.94" x2="579.28" y2="442.39"/><line class="cls-15" x1="660.55" y1="482.89" x2="591.16" y2="487.29"/><path class="cls-16" d="M684.5,308.34,580.12,291.08C562.45,287.6,549.46,288.24,545,305h0c-2.57,16.8,5.79,20.32,21.58,26.08l105.68,40.65a31.66,31.66,0,0,0,38.65-22.32h0C715.36,332.64,701.26,312.83,684.5,308.34Z"/><path class="cls-17" d="M676.56,306.9,568.13,287.22c-17.67-3.48-29.36,34.24-13.57,40l105.68,40.65a31.66,31.66,0,0,0,38.65-22.32h0A31.66,31.66,0,0,0,676.56,306.9Z"/><path class="cls-18" d="M703.65,333s.76-5.29-5.6-12.92c12.06-6.37,43.22-17.44,47.47-14.41,2.89,2.07,5.7,7.8,8.16,13.31,2.2,4.94-.48,10.62-5.84,11.33C731.81,332.4,707,335,707,335Z"/><path class="cls-19" d="M697.89,319.84c12.05-6.37,40.91-20.61,45.16-17.58,2.9,2.07,6.25,7.6,8.91,12.67a7.77,7.77,0,0,1-5.83,11.33c-16,2.13-41.61,7.63-42.8,6.95A16.27,16.27,0,0,0,697.89,319.84Z"/><path class="cls-18" d="M700.85,354s3.81-3.75,3.36-13.68c13.45,2.22,45,12.25,46.51,17.24,1.06,3.39-.18,9.66-1.55,15.53-1.23,5.27-6.8,8.17-11.5,5.5-14.06-8-35.37-21-35.37-21Z"/><path class="cls-19" d="M704.19,340.07c13.45,2.22,45,8.33,46.6,13.32,1.05,3.4.38,9.83-.57,15.47a7.76,7.76,0,0,1-11.5,5.5c-14.05-8-37.75-19.09-38.28-20.35A16.29,16.29,0,0,0,704.19,340.07Z"/><path class="cls-18" d="M682.24,368.18s5.34-.29,11.58-8c8.6,10.57,23.59,27.88,21.44,32.64-1.46,3.24-1.55,3.72-6.47,7.21-4.41,3.13-9.87,1.35-12.26-3.51a134.44,134.44,0,0,0-15.61-24.64Z"/><path class="cls-19" d="M694,360c8.61,10.58,26.25,25,24.11,29.76-1.46,3.25-1.25,4.22-5.7,7.82-4.21,3.4-9.8,1.32-12.26-3.5-7.33-14.36-18.63-24.83-18.2-26.13A16.26,16.26,0,0,0,694,360Z"/><path class="cls-18" d="M688.16,309.29l6.65,7.73s3.36.47,4.1.5c4.18.2,27.31-23.48,22.46-28.09s-12.67-9.16-14.82-8.22c-.27.11-3.38.58-3.38.58S686.32,309.33,688.16,309.29Z"/><path class="cls-19" d="M684.06,308.79a21.58,21.58,0,0,1,6.19,3.38,36.38,36.38,0,0,1,4.56,4.85c2.76,3.13,27.31-23.49,22.46-28.09s-12.68-7.93-14.83-7S682,308.83,684.06,308.79Z"/><ellipse class="cls-20" cx="667.87" cy="336.41" rx="12.36" ry="11.15" transform="translate(-58.28 515.11) rotate(-40.56)"/><path class="cls-21" d="M597.1,286.34s-85.73-44.74-124.67-52.93c0,0-105.15-9.22-196.06-6.41,10.45,8.33,101.08,49.55,114,52.57S562.07,290.23,597.1,286.34Z"/><path class="cls-22" d="M419.33,270.8s-34.72-22-38.29-23.34,68.14-1.22,68.14-1.22,33.75,20.77,36,23S419.33,270.8,419.33,270.8Z"/><path class="cls-23" d="M275.26,226.74s-13.49,149.79-3.57,188.13c10.87,9.87,87,47.5,111.74,48.33,3.36-17.11,12.26-171.14,5.86-183.89C380.34,271.82,312.58,238.71,275.26,226.74Z"/><path class="cls-13" d="M597.1,286.34s.22,76.79-4.47,133c-1.8,21.65-23.38,42-26.92,42.7-8.19,7-194.08,8.4-204.64.73,0,0,20.76-15.26,21.56-45.17,1-37.36,5.26-93,6.66-138.27C396.16,276.05,564.65,280.33,597.1,286.34Z"/><path class="cls-24" d="M418.14,193.39l-2.94,56.54L464.7,253c8.28.43,15.66-11.87,16.48-27.49s-5.25-28.62-13.53-29.06c-2.79-.14-5.47,1.15-7.84,3.53Z"/><path class="cls-25" d="M637.85,195.37s-19.33,12-52,14.39c-14.51,1.07-33.28-1.54-51.36-4.83-58.77-10.7-83.5-42.86-83.5-42.86s6-40.53,7.52-54.17,21.54-38.62,21.54-38.62Z"/><path class="cls-25" d="M260.31,177.61s10.23,20.75,48.14,21,93.74-11.49,93.74-11.49L439.08,143Z"/><path class="cls-13" d="M473.71,77.14l-19.89-1.2L451,139.23l18.83,1S469.68,98.4,473.71,77.14Z"/><polygon class="cls-26" points="469.8 140.21 456.55 156.39 443.11 155.69 450.97 139.23 469.8 140.21"/><polygon class="cls-27" points="484.52 140.98 432.94 138.29 431.49 229.35 480.45 230.76 484.52 140.98"/><path class="cls-28" d="M469.75,139.67l.8,11a1.89,1.89,0,0,0,.68,1.34L484,162.44a1.87,1.87,0,0,0,3-1.08l.6-3a1.88,1.88,0,0,0-.44-1.62L473,138.31A1.87,1.87,0,0,0,469.75,139.67Z"/><polygon class="cls-29" points="402.19 187.17 406.01 207.93 431.49 229.35 432.94 138.29 402.19 187.17"/><path class="cls-25" d="M450.24,140.78s-1.4,10.42-3.67,12S415,165.2,411.52,165.49s-2.37-7.55-2.37-7.55Z"/><path class="cls-30" d="M450.24,140.78s-1.72,12.58-4.57,12.43c-3.49,1.5-29.38,11.25-29.38,11.25"/><path class="cls-31" d="M283.9,180a76.66,76.66,0,0,1-14.55-1.14,6.73,6.73,0,0,1-5.34-5.82c-2.19-18.1-6-64,6.06-99.36a6.8,6.8,0,0,1,5.52-4.62,728.53,728.53,0,0,1,95.64-6.33,592.76,592.76,0,0,1,71.56,4.11,6.76,6.76,0,0,1,5.91,6.26c1.48,22.44-.34,58.23-3.49,69.22-3.17,3.43-24.73,12.44-64.08,22.31C342.76,174.29,306.41,180,283.9,180Z"/><path class="cls-32" d="M371.24,67.71a587,587,0,0,1,70.95,4.08,1.8,1.8,0,0,1,1.57,1.67c1.46,22.24-.38,54.7-2.91,66-1.88,1.2-7.07,4-19.92,8.46-11.83,4.11-27.25,8.57-43.4,12.56-37.09,9.15-72.09,14.62-93.63,14.62A71.54,71.54,0,0,1,270.32,174a1.76,1.76,0,0,1-1.39-1.55c-2.15-17.77-5.88-62.81,5.82-97.18A1.93,1.93,0,0,1,276.27,74a724.55,724.55,0,0,1,95-6.28h0m0-9.91a733.79,733.79,0,0,0-96.32,6.38,11.81,11.81,0,0,0-9.53,7.93C252.94,108.64,257,156,259.1,173.67a11.67,11.67,0,0,0,9.28,10.07A80.74,80.74,0,0,0,283.9,185c52.53,0,162.55-29.8,165.92-40.75,3.5-11.37,5.3-49,3.82-71.42A11.72,11.72,0,0,0,443.39,62a598.52,598.52,0,0,0-72.16-4.16Z"/><polygon class="cls-27" points="475.9 245.02 472.36 268.84 419.46 267.06 425.52 243.33 475.9 245.02"/><polygon class="cls-29" points="401.97 229.85 387.41 247.68 419.46 267.06 425.52 243.33 401.97 229.85"/><ellipse class="cls-33" cx="416.67" cy="221.66" rx="28.31" ry="15.02" transform="translate(173.62 626.22) rotate(-87.02)"/><path class="cls-34" d="M470.21,138.66s-.08,12.39,1,13.3L484,162.44"/><path class="cls-31" d="M624.4,193.44c-19.21,0-51.83-7.61-87.25-20.36-35.7-12.85-55.64-24.18-58.24-28-2.07-10.94-.51-47.44,3-69.23a6.5,6.5,0,0,1,6.22-5.47c6.49-.18,13-.27,19.42-.27,45.61,0,88.27,4.59,126.78,13.64a6.56,6.56,0,0,1,4.88,4.93c8.67,36.25.61,81.58-3.26,99.38a6.48,6.48,0,0,1-5.64,5.1,56.28,56.28,0,0,1-5.9.28Z"/><path class="cls-32" d="M507.56,75.3c45.21,0,87.46,4.55,125.58,13.51a1.39,1.39,0,0,1,1,1.08c8.41,35.21.5,79.61-3.29,97.07a1.29,1.29,0,0,1-1.1,1,51.68,51.68,0,0,1-5.37.25c-18.11,0-49.18-7.18-83.11-19.21a419.78,419.78,0,0,1-39.53-16.12c-11.74-5.64-16.36-9-18-10.33-1.48-11.32-.29-43.86,3.26-65.9a1.32,1.32,0,0,1,1.24-1.1c6.44-.18,12.92-.28,19.28-.28m0-10.39q-9.49,0-19.57.28A11.71,11.71,0,0,0,476.77,75c-3.57,22.18-5.29,59.81-2.88,71.46,2.48,11.91,104.46,52.15,150.51,52.15a62,62,0,0,0,6.45-.31A11.69,11.69,0,0,0,641,189.17c3.77-17.36,12.21-64.17,3.24-101.7a11.79,11.79,0,0,0-8.75-8.78c-19.79-4.65-63.67-13.78-128-13.78Z"/><path class="cls-35" d="M387.17,151.13c-.37,0-.75,0-1.13,0-19.68-.66-35.1-18.6-34.39-40,.71-21.1,16.47-37.62,35.88-37.62.37,0,.74,0,1.12,0,19.68.66,35.11,18.6,34.39,40-.71,21.1-16.46,37.62-35.87,37.62Z"/><path class="cls-36" d="M387.53,77.71h1c17.36.59,31,16.58,30.33,35.65a36.22,36.22,0,0,1-9.93,24,30.11,30.11,0,0,1-21.74,9.53h-1c-17.37-.58-31-16.58-30.33-35.65a36.17,36.17,0,0,1,9.93-24,30.07,30.07,0,0,1,21.74-9.53m0-8.42c-21.48,0-39.3,18.39-40.08,41.69-.8,23.75,16.42,43.6,38.45,44.34l1.27,0c21.48,0,39.3-18.39,40.08-41.69.79-23.75-16.42-43.6-38.46-44.34l-1.26,0Z"/><path class="cls-35" d="M538.3,159.16c-.37,0-.74,0-1.12,0-19.68-.66-35.11-18.6-34.39-40,.71-21.1,16.46-37.62,35.87-37.62.37,0,.75,0,1.12,0,19.69.66,35.11,18.6,34.4,40-.71,21.1-16.47,37.62-35.87,37.62Z"/><path class="cls-36" d="M538.66,85.74h1A30,30,0,0,1,561.36,96.4a37,37,0,0,1-1.32,49A30.07,30.07,0,0,1,538.3,155h-1a29.93,29.93,0,0,1-21.71-10.65,37,37,0,0,1,1.31-49,30.07,30.07,0,0,1,21.74-9.53m0-8.42c-21.48,0-39.3,18.39-40.08,41.69-.8,23.75,16.42,43.6,38.46,44.34l1.26,0c21.48,0,39.3-18.39,40.08-41.69.8-23.75-16.42-43.6-38.45-44.34l-1.27,0Z"/><ellipse class="cls-37" cx="415.48" cy="223.15" rx="14.13" ry="6.53" transform="translate(178.52 630.91) rotate(-88.08)"/><path class="cls-38" d="M480,235.08c22.11,4,117.09,51.26,117.09,51.26s-.54,125.31-4.47,133c-1.86,9.06-2.4,20.49-23.66,40.68-6.88,3.26-9.83,12.07-146.8,7.92"/><path class="cls-38" d="M401.83,228.56s-121.43-4-126.57-1.82c0,0-7.61,104-6.76,110.2"/><path class="cls-16" d="M218.82,194.16l92.41,51.51c16,8.28,25.76,16.87,18.83,32.78h0c-8.45,14.74-17.18,12.29-33.13,7l-108-34a31.65,31.65,0,0,1-16.33-41.54h0C179.54,194,202.91,187.23,218.82,194.16Z"/><path class="cls-17" d="M225.93,198,323,250.11c16,8.29,1.65,45.07-14.29,39.75l-108-34a31.65,31.65,0,0,1-16.33-41.53h0A31.65,31.65,0,0,1,225.93,198Z"/><path class="cls-18" d="M188.5,201.49s2.71-4.62,12.44-6.63C195.47,182.37,178,154.3,172.77,154c-3.55-.19-9.31,2.55-14.67,5.33-4.8,2.49-6.24,8.6-2.49,12.5,11.21,11.65,29,29.12,29,29.12Z"/><path class="cls-19" d="M201.18,194.82c-5.46-12.49-19.17-41.61-24.38-41.88-3.55-.19-9.63,2.05-14.86,4.36a7.77,7.77,0,0,0-2.5,12.5c11.22,11.65,27.81,31.88,29.16,32.09A16.26,16.26,0,0,1,201.18,194.82Z"/><path class="cls-18" d="M177.59,219.7s-.64-5.31,5.9-12.8c-11.91-6.64-42.82-18.41-47.14-15.48-2.93,2-5.87,7.67-8.45,13.12-2.32,4.89.23,10.63,5.57,11.46,16,2.5,40.73,5.63,40.73,5.63Z"/><path class="cls-19" d="M183.65,206.72c-11.91-6.64-40.43-21.54-44.75-18.6-2.94,2-6.42,7.45-9.2,12.46A7.77,7.77,0,0,0,135.28,212c16,2.5,41.42,8.58,42.63,7.92A16.26,16.26,0,0,1,183.65,206.72Z"/><path class="cls-18" d="M183.32,242.39s-4-3.56-4.07-13.5c-13.31,2.92-35.81,7.13-37.1,12.19-.88,3.44-1.1,3.87.58,9.67,1.5,5.19,6.87,7.2,11.77,4.89a134.43,134.43,0,0,1,27.56-9.56Z"/><path class="cls-19" d="M179.26,228.64c-13.32,2.92-36.11,3.22-37.4,8.28-.87,3.44-1.65,4.08-.41,9.66,1.17,5.28,6.85,7.13,11.77,4.89,14.68-6.66,30-7.81,30.51-9.1A16.29,16.29,0,0,1,179.26,228.64Z"/><path class="cls-18" d="M215.36,192.62l-10,1.91s-2.92-1.73-3.53-2.16c-3.39-2.45-6.73-35.39-.07-36s15.62.73,16.72,2.8c.14.26,2.28,2.56,2.28,2.56S216.78,193.8,215.36,192.62Z"/><path class="cls-19" d="M218.89,194.79a21.66,21.66,0,0,0-7-1.22,36.92,36.92,0,0,0-6.58,1c-4.12.73-6.74-35.39-.08-36s14.86,1.69,16,3.76S220.5,196.13,218.89,194.79Z"/><ellipse class="cls-20" cx="214.35" cy="226.48" rx="11.15" ry="12.36" transform="translate(-39.01 44.7) rotate(-10.92)"/><path class="cls-39" d="M432.78,326.06l119.74,1.23a8.91,8.91,0,0,1,8.81,9.5l-4.73,70.9a8.91,8.91,0,0,1-9,8.32L427.74,414.8a8.91,8.91,0,0,1-8.8-9.52l4.86-70.91A8.93,8.93,0,0,1,432.78,326.06Z"/><path class="cls-40" d="M430.74,329.46l120,1a6.92,6.92,0,0,1,6.86,7.39l-4.75,71.28a6.93,6.93,0,0,1-7,6.47l-120-.8a6.93,6.93,0,0,1-6.87-7.39l4.74-71.45A6.92,6.92,0,0,1,430.74,329.46Z"/><path class="cls-41" d="M506.78,366.12,433,364.85a4.49,4.49,0,0,1-4.34-4.58l1.57-20.95a4.47,4.47,0,0,1,4.57-4.34l73.83,1.28a4.46,4.46,0,0,1,4.33,4.57l-1.56,21A4.47,4.47,0,0,1,506.78,366.12Z"/><ellipse class="cls-42" cx="446.14" cy="350.29" rx="10.78" ry="8.63" transform="translate(77.3 781.21) rotate(-87.58)"/><ellipse class="cls-43" cx="472.19" cy="350.52" rx="10.78" ry="8.63" transform="translate(102.01 807.46) rotate(-87.58)"/><ellipse class="cls-44" cx="497.67" cy="351.51" rx="10.78" ry="8.63" transform="matrix(0.04, -1, 1, 0.04, 125.43, 833.87)"/><path class="cls-45" d="M491.31,383.85l-58.13-.74a4.66,4.66,0,0,1-4.5-4.78h0a4.65,4.65,0,0,1,4.78-4.49l58.13.74a4.66,4.66,0,0,1,4.5,4.77h0A4.66,4.66,0,0,1,491.31,383.85Z"/><path class="cls-46" d="M457.14,411.4l-25.82-.48a4.64,4.64,0,0,1-4.49-4.77h0a4.64,4.64,0,0,1,4.77-4.5l25.82.48a4.66,4.66,0,0,1,4.5,4.77h0A4.66,4.66,0,0,1,457.14,411.4Z"/><path class="cls-46" d="M458,398.42l-25.82-.48a4.66,4.66,0,0,1-4.5-4.78h0a4.65,4.65,0,0,1,4.78-4.49l25.81.48a4.64,4.64,0,0,1,4.5,4.77h0A4.66,4.66,0,0,1,458,398.42Z"/><polygon class="cls-47" points="521.2 337.1 556.54 337.18 551.71 409.59 516.04 409.08 521.2 337.1"/><ellipse class="cls-48" cx="550.11" cy="345.22" rx="4.46" ry="3.85" transform="translate(169.06 871.15) rotate(-86.19)"/><path class="cls-49" d="M550.41,340.77s1.33,5.61-.84,8.89"/><path class="cls-49" d="M546.27,345s4.85,1.47,7.69.51"/><ellipse class="cls-50" cx="521.79" cy="403.12" rx="4.46" ry="3.85" transform="translate(84.85 896.94) rotate(-86.19)"/><path class="cls-49" d="M522.09,398.67s1.33,5.61-.85,8.89"/><path class="cls-49" d="M517.94,402.86s4.86,1.48,7.69.52"/><ellipse class="cls-51" cx="546.93" cy="403.31" rx="4.46" ry="3.85" transform="matrix(0.07, -1, 1, 0.07, 108.13, 922.2)"/><path class="cls-49" d="M547.23,398.85s1.33,5.62-.85,8.9"/><path class="cls-49" d="M543.08,403.05s4.86,1.48,7.69.51"/><ellipse class="cls-52" cx="528.24" cy="344.79" rx="4.46" ry="3.85" transform="translate(149.07 848.92) rotate(-86.19)"/><path class="cls-49" d="M528.53,340.33s1.34,5.62-.84,8.89"/><path class="cls-49" d="M524.39,344.53s4.86,1.48,7.69.51"/><path class="cls-53" d="M428.68,378.33s10.23-2.49,19.42,1.3,10.17-4.58,14.51-4.19,4.94,6.85,10.88,6.6,4.15-2.65,7-2.45,2.6,3.13,5.27,3,4.33-8.29,5.87-8"/><path class="cls-10" d="M430,497.4a62,62,0,0,0-2.07-10.26c-4-14-16.59-56.55-28.07-82.15-6.76-15.08-10.83-25.39-14.35-33.11a64.43,64.43,0,0,0-17.69-23c-5-4.16-10.85-8.84-19.69-12.41-11.53-4.66-24.07-4.73-36.41-3.18-30.76,3.87-47.23,4.3-53.27,6.13-6,4-31.66,30.42-33.62,53-1.42,16.28-.39,38.49,10.87,56.11s56.43,102,76.59,104c23.52,2.29,84.06-.32,101.84-12.92C430,528.21,431.76,513.63,430,497.4Z"/><path class="cls-11" d="M323.18,550c-11.57,0-24.19-4-35.33-7.49l-4.12-1.3c-8.27-2.56-29.93-17.39-55.18-37.77C203.91,483.54,184,465,179,457.16c-10.95-17.14-11.67-38.82-10.35-54,1.16-13.32,11.36-26.44,30.33-39l.77-.5,1.49-1c6.2-4.24,20.71-14.18,41.87-18.47A62.15,62.15,0,0,1,255.51,343a58.62,58.62,0,0,1,22.1,4.25c8.61,3.48,14.26,8.13,18.8,11.88a61.41,61.41,0,0,1,16.76,21.82c1.56,3.42,3.26,7.44,5.23,12.09,2.39,5.64,5.37,12.66,9.11,21,11.48,25.63,24.26,69,27.9,81.69a59.22,59.22,0,0,1,1.95,9.71c1.79,16,0,28.71-14.45,39-5.36,3.81-11.82,5.65-19.73,5.65Z"/><path d="M255.51,346.36a55.3,55.3,0,0,1,20.82,4c8.12,3.28,13.55,7.76,17.91,11.35a57.88,57.88,0,0,1,15.82,20.6c1.55,3.39,3.24,7.39,5.2,12,2.4,5.65,5.38,12.69,9.13,21.05,11.39,25.42,24.11,68.61,27.74,81.24a55.56,55.56,0,0,1,1.84,9.15c1.66,14.77.07,26.51-13,35.79-4.77,3.38-10.58,5-17.76,5-11,0-23.4-3.9-34.3-7.34l-4.14-1.3c-7.77-2.41-29.49-17.34-54-37.16-24-19.38-44.07-38.07-48.79-45.46-5.75-9-12.13-25.33-9.82-51.85.66-7.65,4.73-15.39,12.1-23A97.86,97.86,0,0,1,200.91,367l.77-.51q.66-.43,1.53-1c6-4.12,20.13-13.78,40.62-17.94a59.11,59.11,0,0,1,11.68-1.18m0-6.82a65.75,65.75,0,0,0-13,1.31c-23.8,4.83-39.52,16.62-44.59,20-6,4-30.64,19.46-32.6,42-1.42,16.28-.38,38.49,10.87,56.11s87.22,79.47,106.56,85.47c12.29,3.82,26.89,8.95,40.46,8.95,7.78,0,15.22-1.69,21.7-6.28,16-11.31,17.69-25.89,15.87-42.12a60.86,60.86,0,0,0-2.06-10.27c-4-14-16.6-56.54-28.07-82.15-6.76-15.08-10.83-25.39-14.35-33.11a64.4,64.4,0,0,0-17.69-23c-5.05-4.17-10.86-8.85-19.69-12.42a62.43,62.43,0,0,0-23.38-4.49Z"/><ellipse class="cls-12" cx="221" cy="417.29" rx="45.44" ry="36.31" transform="translate(-200.34 630.45) rotate(-88.93)"/><ellipse class="cls-12" cx="266.06" cy="482.78" rx="32.56" ry="26.01" transform="translate(-221.61 739.77) rotate(-88.93)"/><ellipse class="cls-12" cx="317.4" cy="509.36" rx="25.62" ry="20.47" transform="translate(-197.8 817.19) rotate(-88.93)"/><ellipse class="cls-13" cx="218.67" cy="417.24" rx="16.98" ry="12.35" transform="translate(-202.58 628.08) rotate(-88.93)"/><ellipse class="cls-13" cx="264.88" cy="484.05" rx="14.66" ry="10.66" transform="translate(-271.3 614.36) rotate(-74.97)"/><ellipse class="cls-13" cx="317.37" cy="511.11" rx="10.86" ry="7.9" transform="translate(-258.55 685.09) rotate(-74.97)"/><path class="cls-14" d="M332.33,475.24S327,463.42,309,468.62c-3-7.63-9-28.23-40.5-26.95,1.78-6.93,15.16-36.74-7.26-67.22,9.35-3.8,15.15-6.35,26.36,8.45S333.73,471.73,332.33,475.24Z"/><line class="cls-15" x1="385.3" y1="371.52" x2="314.56" y2="376.01"/><line class="cls-15" x1="345.91" y1="335.62" x2="267.17" y2="340.61"/><polyline class="cls-15" points="255.94 341.33 235.04 342.65 235.04 342.65"/><line class="cls-15" x1="404.22" y1="415.47" x2="333.75" y2="419.93"/><line class="cls-15" x1="419.4" y1="458.99" x2="349.2" y2="463.44"/><line class="cls-15" x1="430.46" y1="503.93" x2="361.07" y2="508.33"/><ellipse class="cls-54" cx="555.51" cy="274.55" rx="3.64" ry="11.91" transform="translate(161.94 753.16) rotate(-76.87)"/><path class="cls-55" d="M402.38,118.37c-8.47-9.18-22-10.42-30.45-3.72-2.78,2.08-4.34,3.49-4.33,1.95h0c0-1.52,1.55-6.23,4.33-9.28,8.46-9.18,22-10.42,30.45-3.72,2.77,2.08,4.33,8.47,4.33,13h0C406.71,121.15,405.15,121.41,402.38,118.37Z"/><path class="cls-55" d="M524,125.68c8.25-9,21.43-10.16,29.68-3.63,2.7,2,4.22,3.41,4.22,1.9h0c0-1.48-1.51-6.07-4.22-9-8.25-9-21.43-10.16-29.68-3.64-2.71,2-4.22,8.26-4.22,12.67h0C519.73,128.39,521.24,128.65,524,125.68Z"/><line class="cls-56" x1="453.82" y1="75.94" x2="473.71" y2="77.14"/><polygon class="cls-57" points="446.6 339.52 544.43 216.82 615.38 553.19 445.69 361.06 446.6 339.52"/><polygon class="cls-58" points="472.64 339.75 612.22 216.82 726.25 549.58 471.73 361.29 472.64 339.75"/><polygon class="cls-59" points="498.13 340.74 700.89 150.28 759.75 436.2 497.22 362.28 498.13 340.74"/></svg>