<svg id="Layer_1" data-name="Layer 1" xmlns="http://www.w3.org/2000/svg" xmlns:xlink="http://www.w3.org/1999/xlink" viewBox="0 0 906 603.01"><defs><style>.cls-1{fill:#757575;}.cls-2{fill:#00b1ff;}.cls-3{fill:#15bdf9;}.cls-4,.cls-68{fill:#fff;}.cls-5{fill:#626c72;}.cls-6{fill:#96a5b3;}.cls-7{fill:#2f3e4a;}.cls-8{fill:#222d35;}.cls-9{opacity:0.27;}.cls-10,.cls-72{fill:#353535;}.cls-10,.cls-40,.cls-41,.cls-54,.cls-64,.cls-65,.cls-68,.cls-72,.cls-80,.cls-82,.cls-87,.cls-95{stroke:#000;}.cls-10,.cls-40,.cls-41,.cls-72,.cls-80,.cls-82{stroke-linejoin:round;}.cls-10{stroke-width:0.22px;}.cls-11,.cls-18,.cls-19,.cls-62,.cls-70,.cls-71,.cls-78,.cls-79,.cls-96{fill:#4d4d4d;}.cls-12{fill:#b3b3b3;}.cls-13{fill:#f9f7f7;opacity:0.41;}.cls-14{fill:#d3161d;}.cls-15,.cls-66,.cls-75{fill:#77401b;}.cls-15,.cls-37,.cls-38,.cls-43,.cls-44,.cls-66,.cls-74,.cls-75,.cls-83,.cls-84,.cls-88,.cls-94{stroke:#070707;}.cls-100,.cls-15,.cls-16,.cls-17,.cls-18,.cls-19,.cls-32,.cls-33,.cls-34,.cls-35,.cls-36,.cls-37,.cls-38,.cls-39,.cls-43,.cls-44,.cls-54,.cls-62,.cls-64,.cls-65,.cls-66,.cls-67,.cls-68,.cls-69,.cls-70,.cls-71,.cls-73,.cls-74,.cls-75,.cls-76,.cls-77,.cls-78,.cls-79,.cls-81,.cls-83,.cls-84,.cls-85,.cls-87,.cls-88,.cls-89,.cls-90,.cls-91,.cls-92,.cls-93,.cls-94,.cls-95,.cls-96,.cls-97,.cls-98{stroke-miterlimit:10;}.cls-15,.cls-16{stroke-width:0.27px;}.cls-16,.cls-20,.cls-67,.cls-76,.cls-95{fill:#f8c946;}.cls-16,.cls-67,.cls-76{stroke:#020202;}.cls-17,.cls-50,.cls-69,.cls-77{fill:#282828;}.cls-17,.cls-18,.cls-19,.cls-62,.cls-69,.cls-70,.cls-71,.cls-77,.cls-78,.cls-79,.cls-96{stroke:#151616;}.cls-17,.cls-18{stroke-width:0.22px;}.cls-19{stroke-width:0.8px;}.cls-21{fill:#683919;}.cls-22,.cls-44,.cls-84{fill:#945320;}.cls-23{fill:#7f1119;}.cls-24{fill:#5e0e18;}.cls-25{fill:#352f49;}.cls-26{fill:#e41e00;}.cls-27{fill:#fffe28;}.cls-28{fill:#18ff08;}.cls-29{fill:#dbdddd;}.cls-100,.cls-30,.cls-98{fill:#0fb0db;}.cls-31{fill:#303435;}.cls-32,.cls-33,.cls-34,.cls-35,.cls-36,.cls-81,.cls-85,.cls-89,.cls-90,.cls-91,.cls-92,.cls-93,.cls-97{stroke:#0a0a0a;}.cls-32,.cls-33,.cls-34,.cls-35,.cls-36{stroke-width:0.12px;}.cls-32{fill:url(#radial-gradient);}.cls-33,.cls-37,.cls-38,.cls-55,.cls-64,.cls-74,.cls-85,.cls-87,.cls-88,.cls-90,.cls-94,.cls-97{fill:none;}.cls-34{fill:url(#radial-gradient-2);}.cls-35{fill:url(#radial-gradient-3);}.cls-36{fill:url(#radial-gradient-4);}.cls-37{stroke-width:0.15px;}.cls-38,.cls-39{stroke-width:0.3px;}.cls-39,.cls-73{fill:#adadad;stroke:#080000;}.cls-40,.cls-80{fill:#515051;}.cls-40{stroke-width:0.3px;}.cls-41,.cls-82{fill:#8e8a8b;}.cls-41,.cls-43,.cls-44{stroke-width:0.26px;}.cls-42,.cls-81{fill:#161616;}.cls-43,.cls-83{fill:#e2b647;}.cls-45{fill:#3a3a3a;}.cls-46{fill:#666;}.cls-47{fill:#aa161d;}.cls-48{fill:#dddbd7;}.cls-49,.cls-54{fill:#212121;}.cls-51{fill:#7c7c7c;}.cls-52{fill:#389cce;}.cls-53{isolation:isolate;}.cls-54,.cls-64,.cls-65,.cls-68{stroke-width:0.27px;}.cls-56{fill:#292929;}.cls-57{fill:#2c2c2c;}.cls-58{fill:#2e2e2e;}.cls-59{fill:#2b2b2b;}.cls-60{fill:#272727;}.cls-61{fill:#252525;}.cls-62{stroke-width:0.34px;}.cls-63{fill:#242424;}.cls-65{fill:#5b5b5b;}.cls-66,.cls-67{stroke-width:0.42px;}.cls-68{opacity:0.74;}.cls-69,.cls-70{stroke-width:0.65px;}.cls-71{stroke-width:2.38px;}.cls-72{stroke-width:0.56px;}.cls-73{stroke-width:0.76px;}.cls-74{stroke-width:1.17px;}.cls-75,.cls-76,.cls-88{stroke-width:0.77px;}.cls-77,.cls-78{stroke-width:0.63px;}.cls-79{stroke-width:2.3px;}.cls-80{stroke-width:0.77px;}.cls-81,.cls-82,.cls-83,.cls-84,.cls-85,.cls-87{stroke-width:0.67px;}.cls-86{fill:#232323;}.cls-89,.cls-90,.cls-91,.cls-92,.cls-93{stroke-width:0.3px;}.cls-89{fill:url(#radial-gradient-5);}.cls-91{fill:url(#radial-gradient-6);}.cls-92{fill:url(#radial-gradient-7);}.cls-93{fill:url(#radial-gradient-8);}.cls-94,.cls-95{stroke-width:0.38px;}.cls-96,.cls-97{stroke-width:0.62px;}.cls-100,.cls-98{stroke:#fff;}.cls-98{stroke-width:9px;}.cls-99{fill:#0b7087;}.cls-100{stroke-width:5px;}</style><radialGradient id="radial-gradient" cx="-7383.05" cy="1080.94" r="1.32" gradientTransform="translate(10605.53 -1382.31) scale(1.39 1.39)" gradientUnits="userSpaceOnUse"><stop offset="0.2" stop-color="#666"/><stop offset="0.57" stop-color="#585858"/><stop offset="1" stop-color="#4d4d4d"/></radialGradient><radialGradient id="radial-gradient-2" cx="-7388.39" cy="1094" r="1.32" gradientTransform="translate(10614.27 -1380.9) scale(1.39 1.39)" xlink:href="#radial-gradient"/><radialGradient id="radial-gradient-3" cx="-7382.89" cy="1093.67" r="1.32" gradientTransform="translate(10613.29 -1384.21) scale(1.39 1.39)" xlink:href="#radial-gradient"/><radialGradient id="radial-gradient-4" cx="-7387.83" cy="1081.16" r="1.32" gradientTransform="translate(10606.35 -1379.42) scale(1.39)" xlink:href="#radial-gradient"/><radialGradient id="radial-gradient-5" cx="-1077.77" cy="1863.66" r="2.72" gradientTransform="matrix(0, -1.72, -1.72, 0, 3728.77, -1520.63)" xlink:href="#radial-gradient"/><radialGradient id="radial-gradient-6" cx="-1088.77" cy="1890.53" r="2.72" gradientTransform="matrix(0, -1.72, -1.72, 0, 3793.32, -1493.1)" xlink:href="#radial-gradient"/><radialGradient id="radial-gradient-7" cx="-1077.46" cy="1889.86" r="2.72" gradientTransform="matrix(0, -1.72, -1.72, 0, 3772.74, -1475.05)" xlink:href="#radial-gradient"/><radialGradient id="radial-gradient-8" cx="-1087.62" cy="1864.12" r="2.72" gradientTransform="matrix(0, -1.72, -1.72, 0, 3746.48, -1536.56)" xlink:href="#radial-gradient"/></defs><title>loop</title><path class="cls-1" d="M42.2,16.25H866.43a39.84,39.84,0,0,1,39.82,39.82V562.55a39.84,39.84,0,0,1-39.82,39.82H42.2A39.84,39.84,0,0,1,2.38,562.55V56.07A39.84,39.84,0,0,1,42.2,16.25Z"/><path class="cls-2" d="M905.79,40.94V547.42A39.84,39.84,0,0,1,866,587.24H41.74A39.84,39.84,0,0,1,1.92,547.42h0V40.94A39.84,39.84,0,0,1,41.74,1.12H866A39.84,39.84,0,0,1,905.79,40.94Z"/><path class="cls-3" d="M905.77,35H2.86A39.8,39.8,0,0,1,42.2,1.52H866.43A39.92,39.92,0,0,1,905.77,35Z"/><path class="cls-4" d="M866.43,14.68a26.29,26.29,0,0,1,26.26,26.26V547.42a26.29,26.29,0,0,1-26.26,26.26H42.2a26.29,26.29,0,0,1-26.26-26.26V40.94A26.29,26.29,0,0,1,42.2,14.68H866.43m0-13.56H42.2A39.84,39.84,0,0,0,2.38,40.94V547.42A39.84,39.84,0,0,0,42.2,587.24H866.43a39.84,39.84,0,0,0,39.82-39.82V40.94A39.84,39.84,0,0,0,866.43,1.12Z"/><circle class="cls-5" cx="860.77" cy="46.27" r="18.71"/><circle class="cls-6" cx="860.77" cy="46.27" r="16.72"/><polygon class="cls-7" points="871.45 41.49 870.25 53.12 859.58 57.9 850.1 51.05 851.22 39.42 861.97 34.65 871.45 41.49"/><path class="cls-8" d="M871.45,41.49l-.56,5.26a14.56,14.56,0,0,0-9.64-5.65,13.68,13.68,0,0,0-10.59,3.58l.56-5.26,10.67-4.77Z"/><circle class="cls-5" cx="47.85" cy="46.27" r="18.71"/><circle class="cls-6" cx="47.85" cy="46.27" r="16.72"/><polygon class="cls-7" points="58.05 40.38 58.05 52.16 47.85 57.98 37.74 52.16 37.74 40.38 47.85 34.57 58.05 40.38"/><path class="cls-8" d="M58.05,40.38v5.33A14.84,14.84,0,0,0,47.93,41.1c-6.29-.24-10.19,4.61-10.19,4.61V40.38l10.11-5.81Z"/><circle class="cls-5" cx="47.85" cy="539.3" r="18.71"/><circle class="cls-6" cx="47.85" cy="539.3" r="16.72"/><polygon class="cls-7" points="59.56 538.42 54.46 549.01 42.76 549.81 36.15 540.09 41.24 529.58 52.95 528.71 59.56 538.42"/><path class="cls-8" d="M59.56,538.42l-2.31,4.78a14.57,14.57,0,0,0-7.09-8.6A13.25,13.25,0,0,0,39,534.36l2.31-4.78L53,528.71Z"/><circle class="cls-5" cx="858.23" cy="539.22" r="18.71"/><circle class="cls-6" cx="858.23" cy="539.22" r="16.72"/><polygon class="cls-7" points="866.91 531.33 869.38 542.8 860.62 550.68 849.47 547.02 847.08 535.55 855.84 527.75 866.91 531.33"/><path class="cls-8" d="M866.91,531.33l1.11,5.18a14.34,14.34,0,0,0-10.91-2.39c-6.13,1.12-9,6.61-9,6.61L847,535.55l8.76-7.8Z"/><g class="cls-9"><path d="M339.58,134.36l1.65,17.94a461.27,461.27,0,0,1,65.24.06l.92-19.38A491.21,491.21,0,0,0,339.58,134.36Zm-68.13,12.06c-24.71,6.73-47.2,15.82-66.84,27l8.15,14.33c18.19-10.52,39.48-18.94,63.13-25Zm230.85-.55c-9.32-2.08-18.79-3.94-28.14-5.55L470.62,161q6.51,1.29,13.06,2.74c17,3.78,33.44,8.3,49.29,13.47l6.39-21.75C527.23,151.86,514.76,148.65,502.3,145.87ZM145.36,224.28a144.31,144.31,0,0,0-25.47,55,141.63,141.63,0,0,0-3.23,24.47l30.25,1.33A102.42,102.42,0,0,1,161,235.89Zm457.25-46L592.74,201a413.44,413.44,0,0,1,55.72,32.05l14.48-23.5A479.21,479.21,0,0,0,602.61,178.25ZM718.7,251l-21.2,23.47c15.84,16.72,28.19,34.3,36.45,52.2l32.22-20.6C753.92,286.92,738,268.38,718.7,251ZM171.52,364.82l-36.72,18.4c10.38,20.72,25.06,40.91,43.64,60l33.89-33C195.94,395.82,182.18,380.55,171.52,364.82Zm89.69,81-28.83,42.24a455,455,0,0,0,59.25,34l23.29-48.53A439.8,439.8,0,0,1,261.21,445.84Zm484.34-59.6a103.23,103.23,0,0,1-2.08,13.68c-5,22.48-17.43,42.22-35.69,58.77l43.43,43c21-21.17,34.68-45.63,40.71-72.71a143.15,143.15,0,0,0,2.24-48.82ZM408,503.54q-18.56-4.12-36.25-9.4l-17.57,53.07a571.84,571.84,0,0,0,55.35,15.25c3.11.7,6.26,1.37,9.36,2l11.59-56.42Q419.29,506.06,408,503.54Zm82.18,11.66-4.94,58.88a511.23,511.23,0,0,0,67.58,1.26l-3-60.36A457.5,457.5,0,0,1,490.16,515.2ZM662.3,488.12A274.69,274.69,0,0,1,608,506.42l12.89,60.21a321.14,321.14,0,0,0,67.5-22.06Z"/></g><g class="cls-9"><path d="M489.58,411.6a185.89,185.89,0,0,1-45.24,8.34l2.49,35.59a228.47,228.47,0,0,0,24.49-3h0a199,199,0,0,0,29.72-7.7Zm-111.19,2.94c-8.61-1.93-17.28-4.1-25.84-6.57l-11.46,33a276.49,276.49,0,0,0,30.48,8.65c7.1,1.58,14.32,2.89,21.45,3.9l5-35.41Q388.29,416.73,378.39,414.54Zm178.27-60.43c-4.83,14.23-14.14,26.58-26.81,36.63l22.29,25c17.15-15.29,28.66-34.38,33.3-55.21ZM268.6,364.84,249,382.72a200.41,200.41,0,0,0,43.18,35.21l16.24-26.41C293.28,384.23,279.61,375.45,268.6,364.84Zm317.15-46c-3.83-19-12.79-37.43-26.64-54.72l-17.87,14.32c10.59,14.45,17.16,30,18.77,45.57ZM244.21,275.24l-25-9a97.7,97.7,0,0,0-3.47,11.95,99.75,99.75,0,0,0-.7,39.61,107.71,107.71,0,0,0,3.37,13.61l25.29-8c-3.5-13.66-3.73-29.15.19-46.74C244,276.18,244.09,275.71,244.21,275.24Zm225.2-74.05-7.55,19.33a212,212,0,0,1,43.6,23.5l12-17.74A243.13,243.13,0,0,0,469.41,201.19Zm-105-18.51.58,20.5a234.34,234.34,0,0,1,49.37,3.74l3.59-20.16A263.38,263.38,0,0,0,364.39,182.68Zm-54.31,8.09c-20,5.69-37.55,14.1-52.22,25l13.44,18.09c12-9.88,27.16-17.65,44.52-22.9Z"/></g><path class="cls-10" d="M422.94,134.23a18.53,18.53,0,0,0-2.08-2.43c-3.16-3.15-12.83-12.62-19.69-17.74-4.05-3-6.67-5.16-8.75-6.7a19.81,19.81,0,0,0-8.14-3.51,21.86,21.86,0,0,0-7.1-.39A22.14,22.14,0,0,0,367,108c-7.63,5.6-12,8.17-13.3,9.55-1,2-3.92,12.82-1.09,19.13,2,4.55,5.62,10.32,11.24,13.35s30.21,18.82,35.88,16.34c6.61-2.88,22.37-12.58,25.24-18.58C427.54,142.43,425.84,138.29,422.94,134.23Z"/><path class="cls-11" d="M388,167.82c-9.32,0-33.1-4.41-38-7-5.47-2.95-8.88-8.62-10.78-12.86-1.67-3.73-.9-8.74,2.29-14.91l.38-.74a34.06,34.06,0,0,1,8.42-11.15,18.29,18.29,0,0,1,9.64-4.32,17.6,17.6,0,0,1,2.18-.14,24.36,24.36,0,0,1,4.6.51,18.79,18.79,0,0,1,7.71,3.33c.93.69,2,1.5,3.2,2.46,1.48,1.14,3.31,2.57,5.54,4.24,6.87,5.13,16.73,14.8,19.59,17.64a18,18,0,0,1,2,2.3c2.85,4,4.27,7.65,1.93,12.53-2.44,5.12-9.38,6.55-15,7.69l-1.29.27a12.31,12.31,0,0,1-2.43.18Z"/><path d="M362.17,117.71a23.54,23.54,0,0,1,4.41.5,17.82,17.82,0,0,1,7.28,3.14c.92.68,2,1.49,3.17,2.43,1.48,1.15,3.32,2.59,5.57,4.26,6.81,5.09,16.63,14.72,19.47,17.55a16.7,16.7,0,0,1,1.85,2.16c2.64,3.7,4,7.06,1.84,11.48-2.22,4.66-8.6,6-14.23,7.12l-1.29.27a11.11,11.11,0,0,1-2.22.16c-9,0-32.81-4.39-37.49-6.91-5.21-2.81-8.49-8.27-10.32-12.37-1.54-3.42-.77-8.13,2.27-14l.13-.25c.07-.14.16-.31.25-.51A33.34,33.34,0,0,1,351,121.92a17.32,17.32,0,0,1,9.08-4.08,17.94,17.94,0,0,1,2.06-.13m0-2.08a17.19,17.19,0,0,0-2.31.15,19.42,19.42,0,0,0-10.19,4.56,35.92,35.92,0,0,0-8.92,12c-1,1.95-5.27,9.74-2.44,16,2,4.56,5.61,10.33,11.24,13.35,5,2.71,29.1,7.16,38.47,7.16a13.26,13.26,0,0,0,2.65-.2c6.05-1.27,14.1-2.52,17-8.53,2.58-5.39.87-9.53-2-13.59a18.53,18.53,0,0,0-2.08-2.43c-3.16-3.15-12.83-12.61-19.7-17.74-4-3-6.66-5.16-8.74-6.7a19.85,19.85,0,0,0-8.15-3.51,25.27,25.27,0,0,0-4.78-.53Z"/><ellipse class="cls-12" cx="355.3" cy="143.92" rx="11.09" ry="13.88" transform="translate(-25.93 184.05) rotate(-28.06)"/><ellipse class="cls-12" cx="377.06" cy="154.69" rx="7.94" ry="9.94" transform="translate(-28.44 195.55) rotate(-28.06)"/><ellipse class="cls-12" cx="394.7" cy="154.15" rx="6.25" ry="7.82" transform="translate(-26.12 203.78) rotate(-28.06)"/><path class="cls-13" d="M401.17,114.06l-6.78-2.3,5.44,10.5s-15.57-10.28-15.12-9.74,7.07,7.57,7.07,7.57l-8.11-2.62,6.95,7.62-8.36-2.37,3.62,3.83-3.44-1.23,17.69,10.43-6.21-6.54,10.1,4.46-6.84-8.1,8.7,4.19-5.2-10,5,3.24-7.39-7.81,7.63,5.15Z"/><polygon class="cls-13" points="368.3 107.11 376.61 106.91 369.18 108.76 376.12 109.46 364.61 110.99 367.39 111.82 359.55 113.32 368.3 107.11"/><ellipse class="cls-14" cx="354.68" cy="144.25" rx="3.77" ry="5.18" transform="translate(-26.16 183.79) rotate(-28.06)"/><ellipse class="cls-14" cx="376.93" cy="155.2" rx="3.26" ry="4.48" transform="translate(-26.45 96.51) rotate(-14.1)"/><ellipse class="cls-14" cx="394.95" cy="154.62" rx="2.41" ry="3.32" transform="translate(-25.77 100.88) rotate(-14.1)"/><path class="cls-15" d="M401.51,111.37l-27.93-5c-4.78-.7-8-2-7.64-6.67h0c.85-4.47,3.28-4.61,7.79-4.66l30.36-.81a8.49,8.49,0,0,1,7.77,9.1h0C411.49,108,406.15,111.74,401.51,111.37Z"/><path class="cls-16" d="M399.38,111l-29.18-4.73c-4.78-.7-4.35-11.28.15-11.32l30.36-.82a8.48,8.48,0,0,1,7.77,9.1h0A8.48,8.48,0,0,1,399.38,111Z"/><path class="cls-17" d="M408.56,106.86s-.28,1.41-2.58,2.77c2.48,2.69,9.37,8.28,10.72,7.89.91-.26,2.13-1.46,3.25-2.64a2.11,2.11,0,0,0-.46-3.38c-3.86-2-9.91-4.85-9.91-4.85Z"/><path class="cls-18" d="M405.93,109.66c2.47,2.69,8.49,8.87,9.84,8.49a11.18,11.18,0,0,0,3.39-2.41,2.08,2.08,0,0,0-.46-3.38c-3.87-2-9.84-5.66-10.2-5.59A4.38,4.38,0,0,1,405.93,109.66Z"/><path class="cls-17" d="M409.73,101.29s.63,1.29-.37,3.76c3.6.64,12.46.93,13.3-.2.57-.76.82-2.45,1-4.06a2.11,2.11,0,0,0-2.42-2.42c-4.27.76-10.82,2.13-10.82,2.13Z"/><path class="cls-18" d="M409.33,105.11c3.6.64,12.13,1.93,13,.8a11.19,11.19,0,0,0,1.25-4,2.09,2.09,0,0,0-2.42-2.42c-4.27.77-11.25,1.45-11.5,1.72A4.37,4.37,0,0,1,409.33,105.11Z"/><path class="cls-17" d="M406.3,96s1.32.55,2.21,3.06c3.12-1.9,8.46-4.93,8.34-6.33-.08-1-.06-1.08-1-2.4a2.18,2.18,0,0,0-3.41-.21A35.7,35.7,0,0,1,406.29,95Z"/><path class="cls-18" d="M408.53,99.17c3.12-1.91,8.87-4,8.76-5.37a3.81,3.81,0,0,0-.75-2.49,2.16,2.16,0,0,0-3.41-.21c-3.14,3-6.93,4.61-6.94,5A4.39,4.39,0,0,1,408.53,99.17Z"/><path class="cls-17" d="M402.52,111.46l2.38-1.36s.89.18,1.08.24c1.07.32,4.8,8.38,3.16,9.11s-4,1.18-4.48.75c-.06,0-.8-.45-.8-.45S402.06,111.28,402.52,111.46Z"/><path class="cls-18" d="M401.44,111.22a5.88,5.88,0,0,0,1.87-.3,10,10,0,0,0,1.59-.82c1-.55,4.8,8.38,3.16,9.11s-3.92.87-4.38.44S400.91,111,401.44,111.22Z"/><ellipse class="cls-19" cx="399.82" cy="102.79" rx="2.99" ry="3.31" transform="translate(2.06 213.29) rotate(-29.94)"/><path class="cls-20" d="M377.15,93.25s-29.31,1.25-40.78,5c0,0-29,13.51-52.49,28,4,.61,34.07-2.3,37.93-3.47S368.53,99.59,377.15,93.25Z"/><path class="cls-21" d="M328.08,116.12s-12.46-.53-13.59-.33,17.71-10.65,17.71-10.65,12,.34,12.95.6S328.08,116.12,328.08,116.12Z"/><path class="cls-22" d="M283.55,126.38s19.16,41.4,27.58,50c4.35,1,30.06-.71,36.69-4.24-1.71-5-22.72-46.82-26.34-49.2C318,122.3,295.17,123.87,283.55,126.38Z"/><path class="cls-14" d="M377.15,93.25s11.7,20.15,19,35.62c2.81,6,.23,14.58-.6,15.3-1.09,3.08-49.18,30.15-53.12,29.73a18.29,18.29,0,0,0-1.18-15.13c-5.41-10-13.26-23.77-19.75-35.86C322.79,121,367.71,96.59,377.15,93.25Z"/><path class="cls-23" d="M340,128.6l31.64-17.83a2.71,2.71,0,0,1,3.76,1.16l9.5,19.35a2.71,2.71,0,0,1-1.1,3.55l-31.68,17.85a2.7,2.7,0,0,1-3.75-1.17l-9.47-19.37A2.7,2.7,0,0,1,340,128.6Z"/><path class="cls-24" d="M340,129.8l31.68-17.94a2.11,2.11,0,0,1,2.93.91l9.55,19.44a2.11,2.11,0,0,1-.85,2.76l-31.65,18a2.1,2.1,0,0,1-2.92-.9l-9.59-19.49A2.12,2.12,0,0,1,340,129.8Z"/><path class="cls-25" d="M365.51,127.91l-19.59,10.85a1.35,1.35,0,0,1-1.83-.54l-2.77-5.75a1.36,1.36,0,0,1,.55-1.83l19.59-10.85a1.35,1.35,0,0,1,1.83.54l2.77,5.75A1.36,1.36,0,0,1,365.51,127.91Z"/><ellipse class="cls-26" cx="347.18" cy="132.94" rx="2.62" ry="3.27" transform="translate(-22.11 175.71) rotate(-27.56)"/><ellipse class="cls-27" cx="354.06" cy="129.05" rx="2.62" ry="3.27" transform="translate(-19.53 178.45) rotate(-27.56)"/><ellipse class="cls-28" cx="360.9" cy="125.45" rx="2.62" ry="3.27" transform="translate(-17.09 181.21) rotate(-27.56)"/><path class="cls-29" d="M364.13,134.91l-15.38,8.62a1.43,1.43,0,0,1-1.91-.58h0a1.41,1.41,0,0,1,.57-1.9l15.39-8.62a1.41,1.41,0,0,1,1.91.57h0A1.42,1.42,0,0,1,364.13,134.91Z"/><path class="cls-30" d="M359.33,147.33l-6.85,3.79a1.42,1.42,0,0,1-1.91-.58h0a1.4,1.4,0,0,1,.57-1.9l6.86-3.79a1.4,1.4,0,0,1,1.9.57h0A1.41,1.41,0,0,1,359.33,147.33Z"/><path class="cls-30" d="M357.59,143.79l-6.85,3.78a1.41,1.41,0,0,1-1.91-.57h0a1.4,1.4,0,0,1,.57-1.9l6.86-3.79a1.4,1.4,0,0,1,1.9.57h0A1.41,1.41,0,0,1,357.59,143.79Z"/><polygon class="cls-31" points="364.9 118.09 374.2 112.76 383.9 132.52 374.45 137.79 364.9 118.09"/><ellipse class="cls-32" cx="373.73" cy="115.85" rx="1.17" ry="1.35" transform="translate(-12.78 176.69) rotate(-26.17)"/><path class="cls-33" d="M373.13,114.63a4.15,4.15,0,0,1,1.13,2.47"/><path class="cls-33" d="M372.68,116.36a4.84,4.84,0,0,0,2.1-1"/><ellipse class="cls-34" cx="375.06" cy="135.35" rx="1.17" ry="1.35" transform="translate(-21.25 179.28) rotate(-26.17)"/><path class="cls-33" d="M374.46,134.14a4.05,4.05,0,0,1,1.13,2.46"/><path class="cls-33" d="M374,135.87a5,5,0,0,0,2.1-1"/><ellipse class="cls-35" cx="381.7" cy="131.59" rx="1.17" ry="1.35" transform="translate(-18.91 181.82) rotate(-26.17)"/><path class="cls-33" d="M381.1,130.38a4.11,4.11,0,0,1,1.13,2.46"/><path class="cls-33" d="M380.65,132.11a5,5,0,0,0,2.1-1"/><ellipse class="cls-36" cx="367.91" cy="119.05" rx="1.17" ry="1.35" transform="translate(-14.79 174.45) rotate(-26.17)"/><path class="cls-33" d="M367.32,117.83a4.1,4.1,0,0,1,1.12,2.47"/><path class="cls-33" d="M366.86,119.56a4.84,4.84,0,0,0,2.1-1"/><path class="cls-37" d="M346.84,143a10.76,10.76,0,0,1,5.3-2.6c3-.4,2-2.74,3.18-3.3s2.33,1,3.86.08.69-1.32,1.45-1.69,1.16.42,1.84,0-.12-2.83.33-3"/><path class="cls-38" d="M338.61,97.54c6.42-2.3,38.54-4.29,38.54-4.29s18.85,33,19,35.62c.89,2.66,2.48,5.75-.05,14.28-1.31,1.89-.95,3.81-37.57,23.49"/><path class="cls-38" d="M317.08,107.67s-32.5,17.37-33.53,18.71c0,0,13.76,28.47,14.93,30"/><path class="cls-10" d="M365.81,174.55a19.29,19.29,0,0,0-2.08-2.44C360.57,169,350.9,159.5,344,154.38c-4-3-6.66-5.17-8.74-6.7a19.73,19.73,0,0,0-8.15-3.52,21.83,21.83,0,0,0-7.09-.38,22.16,22.16,0,0,0-10.19,4.56c-7.62,5.61-11.95,8.17-13.29,9.56-1,1.95-3.92,12.82-1.09,19.13,2,4.55,5.61,10.32,11.24,13.35s30.21,18.81,35.87,16.34c6.62-2.89,22.37-12.58,25.24-18.58C370.41,182.75,368.7,178.6,365.81,174.55Z"/><path class="cls-11" d="M330.88,208.13c-9.31,0-33.09-4.4-38-7-5.47-2.94-8.89-8.61-10.79-12.86-1.67-3.72-.9-8.74,2.3-14.9l.38-.74a34.06,34.06,0,0,1,8.42-11.15,18.15,18.15,0,0,1,9.63-4.32A16.06,16.06,0,0,1,305,157a24.36,24.36,0,0,1,4.6.51,18.73,18.73,0,0,1,7.71,3.33c.94.69,2,1.5,3.21,2.45,1.47,1.15,3.31,2.58,5.54,4.24,6.87,5.13,16.72,14.8,19.58,17.64a18,18,0,0,1,2,2.3c2.86,4,4.28,7.66,1.94,12.54-2.45,5.12-9.39,6.55-15,7.69l-1.29.27a13.36,13.36,0,0,1-2.44.17Z"/><path d="M305,158a22.75,22.75,0,0,1,4.42.5,17.68,17.68,0,0,1,7.28,3.14c.91.67,2,1.49,3.17,2.43,1.48,1.15,3.32,2.58,5.56,4.26,6.82,5.09,16.63,14.71,19.48,17.54a17.47,17.47,0,0,1,1.85,2.17c2.63,3.69,4,7.06,1.84,11.48-2.22,4.65-8.6,6-14.23,7.12l-1.3.27a11.44,11.44,0,0,1-2.22.15c-9,0-32.81-4.39-37.48-6.9-5.21-2.81-8.49-8.28-10.33-12.37-1.53-3.42-.77-8.13,2.27-14l.13-.25.26-.51a33.16,33.16,0,0,1,8.16-10.82,17.23,17.23,0,0,1,9.09-4.08,15.68,15.68,0,0,1,2-.13m0-2.08a19,19,0,0,0-2.31.14,19.37,19.37,0,0,0-10.18,4.57,35.82,35.82,0,0,0-8.92,12c-1,1.94-5.28,9.74-2.45,16,2,4.55,5.62,10.32,11.24,13.35,5,2.71,29.11,7.16,38.47,7.16a14.06,14.06,0,0,0,2.65-.2c6.05-1.28,14.11-2.53,17-8.53,2.58-5.39.87-9.53-2-13.59a19.25,19.25,0,0,0-2.07-2.43c-3.17-3.15-12.83-12.62-19.7-17.74-4-3-6.66-5.16-8.75-6.7a19.49,19.49,0,0,0-8.14-3.51A25.38,25.38,0,0,0,305,156Z"/><ellipse class="cls-12" cx="298.17" cy="184.23" rx="11.09" ry="13.88" transform="translate(-51.61 161.91) rotate(-28.06)"/><ellipse class="cls-12" cx="319.92" cy="195" rx="7.94" ry="9.94" transform="translate(-54.12 173.41) rotate(-28.06)"/><ellipse class="cls-12" cx="337.57" cy="194.46" rx="6.25" ry="7.82" transform="translate(-51.8 181.65) rotate(-28.06)"/><path class="cls-13" d="M344,154.38l-6.77-2.3,5.44,10.5s-15.57-10.28-15.13-9.74,7.08,7.57,7.08,7.57l-8.11-2.62,6.95,7.62L325.12,163l3.62,3.83-3.43-1.22L343,176.06l-6.21-6.54L346.89,174l-6.84-8.1,8.7,4.19L343.55,160l5,3.24-7.39-7.8,7.63,5.15Z"/><polygon class="cls-13" points="311.17 147.43 319.47 147.23 312.05 149.07 318.99 149.78 307.48 151.3 310.26 152.14 302.41 153.63 311.17 147.43"/><ellipse class="cls-14" cx="297.54" cy="184.57" rx="3.77" ry="5.18" transform="translate(-51.84 161.66) rotate(-28.06)"/><ellipse class="cls-14" cx="319.8" cy="195.52" rx="3.26" ry="4.48" transform="translate(-38 83.8) rotate(-14.1)"/><ellipse class="cls-14" cx="337.82" cy="194.93" rx="2.41" ry="3.32" transform="translate(-37.31 88.18) rotate(-14.1)"/><path class="cls-39" d="M336.48,183.14s-3.19-2.35-7.2,1.7c-1.92-1.6-6.59-6.2-14.8-1.17-.56-2.11-1.42-12-11.93-16.85,1.93-2.4,3.09-3.94,8.29-1.66S336.33,182,336.48,183.14Z"/><path class="cls-40" d="M316,96l7.8,15.3,13.47-6.69c2.24-1.14,2.32-5.49.16-9.72s-5.71-6.73-8-5.58A3.14,3.14,0,0,0,328,91.38Z"/><polygon class="cls-41" points="323.19 77.55 322.16 83.81 318.52 85.66 318.09 80.14 323.19 77.55"/><path class="cls-42" d="M349.39,43.53c1.9,4.18,6.53,7.54,7.59,12.43a4.4,4.4,0,0,1-1.72,4.5c-5.48,4-10.51,6.09-26.35,10.22l-.16,9.82-16.63-6.62-.86-.34h0a4.41,4.41,0,0,1-1.92-2,72.06,72.06,0,0,1-5.23-14.74,4.44,4.44,0,0,1,1.45-4.45c6.18-5.16,16.66-14.43,32.27-22.62a8.6,8.6,0,0,1,5.17-.37h0l11.08,2.94Z"/><polygon class="cls-43" points="327.17 75.52 313.21 82.63 325 103.39 338.07 96.33 327.17 75.52"/><polygon class="cls-44" points="306.07 94.25 315.06 101.62 325 103.39 313.21 82.63 306.07 94.25"/><path class="cls-42" d="M314.46,78.44a2.87,2.87,0,0,1-1.55-.28Z"/><polygon class="cls-43" points="339.04 100.77 341.72 107.56 327.55 115.12 325.55 107.96 339.04 100.77"/><polygon class="cls-44" points="317.32 107.99 316.19 114.88 327.55 115.12 325.55 107.96 317.32 107.99"/><ellipse class="cls-45" cx="319.94" cy="103.61" rx="4.56" ry="8.59" transform="translate(-12.17 156.53) rotate(-27)"/><ellipse class="cls-46" cx="319.85" cy="104.18" rx="1.98" ry="4.29" transform="translate(-11.41 162.7) rotate(-28.06)"/><path class="cls-14" d="M315,58.91s-4.12,2.74-6.28,4c4.55,5.47,8.48,9.35,9.92,19.83,5.7-4,6-3.67,6-3.67A46.3,46.3,0,0,1,315,58.91Z"/><polygon class="cls-47" points="315.04 58.91 305.9 56.59 301.27 59.55 310.07 62.11 315.04 58.91"/><line class="cls-42" x1="270.46" y1="113.27" x2="272.72" y2="113.84"/><path class="cls-42" d="M309.78,61.56,304.83,70a80.15,80.15,0,0,1,3,8.73,5,5,0,0,1-1,4.51c-11.28,13.68-15.18,19.26-22.53,24.44l.53,9.29-12.18-3.08h0l-2.26-.57a5,5,0,0,1-2-1.89,97.85,97.85,0,0,1-11.08-26.85,5,5,0,0,1,2-5.18c12.85-9.1,25.92-16.58,34.94-20.54A4.93,4.93,0,0,1,298,58.7h0Z"/><path class="cls-48" d="M285.59,115.23a3.75,3.75,0,0,1-3-1.72c-7.67-11-9.29-18.85-10.37-24.08-.16-.77-.3-1.49-.46-2.17a3.26,3.26,0,0,1,1.31-3.4c11.83-8.38,25.1-16.19,34.64-20.38A3.33,3.33,0,0,1,309,63.2,3.27,3.27,0,0,1,312,65c1.49,3,2.44,5.11,3.24,7a84.37,84.37,0,0,1,3.72,10.27,3.3,3.3,0,0,1-.62,3c-3.7,4.48-7.12,8.46-10.17,11.81-10.75,11.83-16.54,15.58-21.19,17.88a3,3,0,0,1-1.34.31Z"/><path class="cls-49" d="M309,64.91a1.56,1.56,0,0,1,1.41.86c1.47,2.92,2.41,5,3.2,6.88a83.31,83.31,0,0,1,3.64,10.06,1.57,1.57,0,0,1-.3,1.43c-3.68,4.47-7.08,8.42-10.11,11.76-10.56,11.61-16.18,15.27-20.69,17.49a1.34,1.34,0,0,1-.58.14,2.12,2.12,0,0,1-1.62-1c-7.46-10.68-9-18.06-10.09-23.45-.16-.79-.31-1.52-.47-2.21a1.57,1.57,0,0,1,.63-1.63C285.79,76.93,299,69.19,308.39,65a1.51,1.51,0,0,1,.63-.13m0-3.41a4.89,4.89,0,0,0-2,.42c-9,4-22.1,11.45-34.95,20.55a5,5,0,0,0-2,5.17c1.23,5.4,2.13,14,11.09,26.85a5.48,5.48,0,0,0,4.41,2.45,4.65,4.65,0,0,0,2.09-.5c5.33-2.62,11.27-6.77,21.7-18.25,3-3.31,6.38-7.22,10.22-11.88a5,5,0,0,0,1-4.51,87.68,87.68,0,0,0-3.8-10.48c-.94-2.21-1.9-4.33-3.29-7.08A5,5,0,0,0,309,61.5Z"/><path class="cls-50" d="M301.07,94.5A11.3,11.3,0,0,1,291.59,89a11.5,11.5,0,0,1-1.52-8.29,9.82,9.82,0,0,1,4.48-6.51,9.6,9.6,0,0,1,5.05-1.42,11.3,11.3,0,0,1,9.48,5.51c3.19,5.21,1.86,11.85-3,14.8A9.6,9.6,0,0,1,301.07,94.5Z"/><path class="cls-51" d="M299.6,74.2A9.87,9.87,0,0,1,307.86,79a10.05,10.05,0,0,1,1.34,7.26,8.43,8.43,0,0,1-3.82,5.57,8.25,8.25,0,0,1-4.31,1.21,9.87,9.87,0,0,1-8.26-4.83C290,83.71,291.15,78,295.29,75.41a8.25,8.25,0,0,1,4.31-1.21m0-2.85A11.07,11.07,0,0,0,293.8,73c-5.5,3.37-7,10.88-3.42,16.77a12.68,12.68,0,0,0,10.69,6.18,11.07,11.07,0,0,0,5.8-1.62c5.5-3.37,7-10.88,3.42-16.77a12.68,12.68,0,0,0-10.69-6.18Z"/><polygon class="cls-42" points="328.49 79.39 324.65 79.06 322.85 76.78 325.87 75.36 328.49 79.39"/><path class="cls-48" d="M329.52,77.82a3.16,3.16,0,0,1-2.58-1.73l-.56-.93c-2.51-4.19-6.3-10.51-7.46-15.62a2.7,2.7,0,0,1,.94-2.72c1.09-.88,2.31-1.92,3.72-3.13C329.7,48.46,339,40.55,351.92,34a1.93,1.93,0,0,1,.9-.22,4.7,4.7,0,0,1,2.82,1.46c4,3.75,9.82,11,14.66,24.46a2.45,2.45,0,0,1-1.17,2.51l-1.29.91c-6.76,4.79-15.18,10.76-37.92,14.65A2.69,2.69,0,0,1,329.52,77.82Z"/><path class="cls-49" d="M352.82,35.5a3.17,3.17,0,0,1,1.65,1c5.47,5.1,10.51,13.51,14.19,23.7a1.35,1.35,0,0,1-.51.62l-1.3.92c-6.62,4.69-14.86,10.54-37.21,14.36h-.12a1.61,1.61,0,0,1-1.12-.9l-.56-.93c-2.45-4.1-6.16-10.28-7.26-15.12a1.05,1.05,0,0,1,.35-1c1.11-.89,2.33-1.94,3.75-3.15,6.06-5.18,15.22-13,28-19.44a.24.24,0,0,1,.14,0m0-3.4a3.69,3.69,0,0,0-1.67.4c-16.09,8.1-26.5,18.27-32.36,23a4.43,4.43,0,0,0-1.53,4.43c1.3,5.77,5.65,12.75,8.21,17a4.85,4.85,0,0,0,4,2.55,4,4,0,0,0,.69-.06c24.58-4.2,32.79-10.85,39.9-15.84a4.05,4.05,0,0,0,1.79-4.47C367.45,46.78,361.81,38.69,356.8,34a6.17,6.17,0,0,0-4-1.91Z"/><path class="cls-50" d="M340.58,71.73a11.5,11.5,0,0,1-10.12-6.57c-2.78-5.63-.79-12.3,4.42-14.87a9.82,9.82,0,0,1,4.36-1,11.52,11.52,0,0,1,10.13,6.57c2.77,5.63.79,12.3-4.42,14.87A9.86,9.86,0,0,1,340.58,71.73Z"/><path class="cls-51" d="M339.25,50.75h0a10,10,0,0,1,8.8,5.75,10.27,10.27,0,0,1,.68,7.56,8.6,8.6,0,0,1-4.43,5.34,8.3,8.3,0,0,1-3.72.87,10,10,0,0,1-8.8-5.76,10.33,10.33,0,0,1-.69-7.56,8.61,8.61,0,0,1,4.44-5.34,8.36,8.36,0,0,1,3.72-.86m0-2.94a11.32,11.32,0,0,0-5,1.16c-6,2.93-8.23,10.47-5.09,16.84a12.94,12.94,0,0,0,11.44,7.39,11.35,11.35,0,0,0,5-1.16c5.94-2.93,8.22-10.47,5.08-16.84a12.93,12.93,0,0,0-11.43-7.39Z"/><path class="cls-52" d="M347,62.58c1.14,2.22.65,4.75-1.22,5.71s-4.4,0-5.54-2.24c-1.28-2.49-.9-4.62,1.32-5.76C343.46,59.33,345.9,60.36,347,62.58Z"/><rect class="cls-52" x="295.96" y="84.18" width="12.35" height="4.19" rx="2.09" transform="translate(-5.07 152.26) rotate(-28.06)"/><g class="cls-53"><path class="cls-54" d="M325.85,101.12a3.66,3.66,0,0,1,.53-.18c1.58-.45,3.17-.12,3.54.75s-.39,1.69-1.66,2.21a4.12,4.12,0,0,1-.53.18c-1.58.45-3.17.12-3.55-.75S324.58,101.64,325.85,101.12Z"/><path class="cls-55" d="M327.29,104.19h-.13Z"/><path class="cls-55" d="M328.26,103.9h0l-.08,0Z"/><path class="cls-55" d="M329.46,103.14v0l0,0Z"/><path class="cls-55" d="M329.75,102.8s0,0,0,0,0,0,0,0Z"/><g class="cls-53"><path class="cls-56" d="M334.22,122.06a0,0,0,0,1,0,0h0A0,0,0,0,0,334.22,122.06Z"/><path class="cls-57" d="M333.81,122.66l0,0h0Z"/><path class="cls-58" d="M333.77,122.7h0l0,0Z"/><path class="cls-57" d="M332.05,123.63h0Z"/><path class="cls-59" d="M331.62,123.73h0Z"/><path class="cls-59" d="M332,123.64h0l-.08,0Z"/><path class="cls-56" d="M331.54,123.74h0Z"/><path class="cls-50" d="M330.89,123.82h-.13A.56.56,0,0,0,330.89,123.82Z"/><path class="cls-60" d="M330.76,123.82h0Z"/><path class="cls-61" d="M330,123.77h0Z"/><path class="cls-61" d="M330.36,123.82Z"/><path class="cls-62" d="M330,101.92l.51,2.3,1.18,5.34,1.35,6.11,1,4.61c.08.35.15.7.23,1,.18.86-.54,1.51-1.22,1.89a5.08,5.08,0,0,1-2.38.62,2.55,2.55,0,0,1-2-.72,2.15,2.15,0,0,1-.32-.93l-.87-3.94-1.32-6-1.27-5.75-.71-3.22,0-.16c.15.69.93,1,1.55,1.08a4.82,4.82,0,0,0,2.1-.16,4,4,0,0,0,1.68-.93A1.42,1.42,0,0,0,330,101.92Z"/><path class="cls-63" d="M329.9,123.76h0l-.12,0Z"/></g></g><g class="cls-53"><path class="cls-64" d="M335,75.94c4.14,7.9,1.63,19.32-5.6,25.5a17.9,17.9,0,0,1-3.06,2.12,12.78,12.78,0,0,1-11.51.69,11,11,0,0,0,1.14.25c3.77.63,8-.56,11.63-3.7,7.24-6.18,9.75-17.6,5.61-25.5a12.9,12.9,0,0,0-6.05-5.92A12.58,12.58,0,0,1,335,75.94Z"/><path class="cls-64" d="M335.26,75.82c4.14,7.9,1.63,19.32-5.61,25.5a17.36,17.36,0,0,1-3.28,2.24,12.89,12.89,0,0,1-10.37.94c3.77.63,8-.56,11.63-3.7,7.24-6.18,9.75-17.6,5.61-25.5a12.9,12.9,0,0,0-6.05-5.92,13.09,13.09,0,0,0-9.48,1.23,13.4,13.4,0,0,1,8.57-1.6A12.42,12.42,0,0,1,335.26,75.82Z"/><path class="cls-64" d="M327.19,69.38a13.09,13.09,0,0,0-9.48,1.23,17.15,17.15,0,0,0-3.28,2.23c-7.24,6.18-9.75,17.6-5.61,25.5a13,13,0,0,0,6,5.91A12.54,12.54,0,0,1,307,97.7c-4.14-7.9-1.63-19.32,5.61-25.51C317,68.48,322,67.5,326.28,69,326.59,69.12,326.89,69.24,327.19,69.38Z"/><path class="cls-65" d="M327.19,69.38a12.9,12.9,0,0,1,6.05,5.92c4.14,7.9,1.63,19.32-5.61,25.5-4,3.46-8.71,4.55-12.77,3.45,4.42,2,9.91,1.18,14.57-2.81,7.23-6.18,9.74-17.6,5.6-25.5A12.58,12.58,0,0,0,327.19,69.38Zm-12.76,3.46c4-3.46,8.71-4.55,12.76-3.46-4.42-2-9.9-1.17-14.55,2.81C305.4,78.38,302.89,89.8,307,97.7a12.54,12.54,0,0,0,7.83,6.55,13,13,0,0,1-6-5.91C304.68,90.44,307.19,79,314.43,72.84Z"/><path class="cls-66" d="M328.65,127.5l-20.27,15.44-.24.17h0a11.24,11.24,0,0,1-7.52,1.61l.93-3.4s1.7-.15,3.48-.16c-.3-.44-.6-.93-.89-1.45-1.43-2.67-2.29-6.12-1.07-7.27l14.05-15.86-1.38-3.25,6.41-1.63h0c1.91-.61,4.19.39,5.93,2.67a10.74,10.74,0,0,1,1,1.52C331.26,120,331.08,125.21,328.65,127.5Z"/><path class="cls-67" d="M321.67,116a11.47,11.47,0,0,1,1,1.53c2.2,4.1,2,9.3-.41,11.59L302,144.57c-.65.62-1.46.19-2-.27a7.12,7.12,0,0,1-1.07-1.15,12.15,12.15,0,0,1-1.15-1.8c-1.43-2.66-2.29-6.11-1.07-7.26l17.57-19.85C316.34,112.27,319.44,113.1,321.67,116Z"/></g><path class="cls-62" d="M325.67,124.74a26.93,26.93,0,0,1,9.17,1.41c2.77,2.21-1.2,6.25-1.78,6.27a21.74,21.74,0,0,1-7.89-4.65C326.31,126.7,325.67,124.74,325.67,124.74Z"/><path class="cls-62" d="M325.88,119.64a13.52,13.52,0,0,1,7.88-1.47c1.9,1.25,1.41,4.08.85,4.23s-5.69,2.15-8.53.3C327,121.4,325.88,119.64,325.88,119.64Z"/><path class="cls-62" d="M320.62,112.28s5.22-5.87,9.47-8.14a4,4,0,0,1,2.09,4.8c-.29.5-5.95,4.74-9.28,5.4C322.62,112.79,320.62,112.28,320.62,112.28Z"/><path class="cls-62" d="M324.07,115.27s5-4.13,9.21-5.16c3.16.73,2.7,5.25,2.24,5.6s-6.8,3-10.13,2.33C325.72,116.5,324.07,115.27,324.07,115.27Z"/><path class="cls-68" d="M333.24,75.3c4.14,7.9,1.63,19.32-5.61,25.5-3.67,3.14-7.86,4.33-11.63,3.7a12.75,12.75,0,0,1-6.95-6.28c-4.14-7.9-1.63-19.32,5.61-25.5a16.86,16.86,0,0,1,3-2.11,13.09,13.09,0,0,1,9.48-1.23A12.9,12.9,0,0,1,333.24,75.3Z"/><path class="cls-54" d="M326.28,69c-4.24-1.51-9.3-.53-13.64,3.18C305.4,78.38,302.89,89.8,307,97.7a12.54,12.54,0,0,0,7.83,6.55,12.78,12.78,0,0,0,11.51-.69,17.36,17.36,0,0,0,3.28-2.24c7.24-6.18,9.75-17.6,5.61-25.5A12.42,12.42,0,0,0,326.28,69Zm1.35,31.79c-3.67,3.14-7.86,4.33-11.63,3.7a12.75,12.75,0,0,1-6.95-6.28c-4.14-7.9-1.63-19.32,5.61-25.5a16.86,16.86,0,0,1,3-2.11,13.09,13.09,0,0,1,9.48-1.23,12.9,12.9,0,0,1,6.05,5.92C337.38,83.2,334.87,94.62,327.63,100.8Z"/><path class="cls-69" d="M677.41,352.68s3.47,2.51,11.26.84c0,10.94-3.76,37.19-7.5,39.07-2.54,1.28-7.66,1.13-12.49.82-4.33-.28-7.36-4.3-5.86-8.37,4.47-12.17,11.91-30.74,11.91-30.74Z"/><path class="cls-70" d="M688.87,353.48c0,10.93-.65,36.73-4.39,38.61-2.55,1.29-7.73,1.6-12.31,1.6a6.24,6.24,0,0,1-5.87-8.37c4.47-12.18,10.12-32.38,11.05-33A13.08,13.08,0,0,0,688.87,353.48Z"/><path class="cls-69" d="M663.51,342.83s1.25,4.1,8.46,7.49c-6.6,8.72-25.48,27.33-29.6,26.57-2.8-.52-6.78-3.73-10.44-6.9-3.28-2.84-3.26-7.87.39-10.21,10.92-7,28.08-17.28,28.08-17.28Z"/><path class="cls-70" d="M672.15,350.4c-6.59,8.72-22.73,28.86-26.84,28.1-2.81-.52-7.12-3.4-10.77-6.18a6.22,6.22,0,0,1,.39-10.21c10.92-7,27.64-19.67,28.73-19.58A13.07,13.07,0,0,0,672.15,350.4Z"/><path class="cls-69" d="M660.4,324.33s-1.79,3.9,1.37,11.21c-10.72,2.16-28.59,6.33-31.17,3-1.76-2.24-2.06-2.49-2.7-7.28-.57-4.3,2.73-7.51,7.07-7.39A108.37,108.37,0,0,0,658.28,322Z"/><path class="cls-70" d="M661.85,335.72c-10.72,2.16-27.54,9.3-30.12,6-1.75-2.25-2.53-2.46-3.42-7-.84-4.26,2.73-7.45,7.06-7.39,12.93.15,24.58-4,25.34-3.17A13.07,13.07,0,0,0,661.85,335.72Z"/><path class="cls-69" d="M700,350.51l-8,1.84s-1.59,2.21-1.89,2.72c-1.7,2.89,6.47,28.15,11.55,26.43s11.23-5.58,11.37-7.45c0-.24.85-2.62.85-2.62S700.64,349.2,700,350.51Z"/><path class="cls-70" d="M701.87,347.79a17.43,17.43,0,0,1-4.71,3.13,30,30,0,0,1-5.14,1.43c-3.26.79,6.47,28.15,11.54,26.42s10.37-6,10.5-7.91S702.63,346.28,701.87,347.79Z"/><ellipse class="cls-71" cx="688.31" cy="325.99" rx="8.94" ry="9.91" transform="translate(-55.15 160.76) rotate(-12.81)"/><path class="cls-72" d="M430.63,427.51a47.87,47.87,0,0,1,2.22-7.8c4-10.6,16.26-42.65,26.69-61.73,6.14-11.23,9.91-18.94,13.1-24.69a50.06,50.06,0,0,1,15.06-16.71c4.16-2.9,8.93-6.16,16-8.38,9.19-2.89,18.88-2.18,28.31-.23,23.51,4.87,36.2,6.21,40.76,8,4.37,3.44,22.59,25.43,22.73,43,.1,12.66-2.06,29.75-11.82,42.67s-49.81,75.32-65.49,75.61c-18.31.32-64.89-5.38-77.85-16.2C428.67,451.3,428.23,439.93,430.63,427.51Z"/><path class="cls-11" d="M513.28,474.77c-7.72,0-13.72-1.87-18.31-5.7-10.55-8.8-11.14-18.74-8.78-31a45.29,45.29,0,0,1,2.1-7.37c3.58-9.58,16.1-42.3,26.53-61.38,3.39-6.21,6.12-11.45,8.31-15.66,1.81-3.47,3.37-6.47,4.78-9a47.55,47.55,0,0,1,14.27-15.82,52.92,52.92,0,0,1,15.25-8,45.16,45.16,0,0,1,13.62-2.08,48.1,48.1,0,0,1,13.17,1.86,86.64,86.64,0,0,1,31.2,16.82c.42.34.78.64,1.1.88l.55.44c13.89,10.84,21,21.59,21,31.95.09,11.79-1.79,28.49-11.29,41.05-10,13.22-71.86,55.33-86,58.51l-3.26.75C530,472.77,521.29,474.77,513.28,474.77Z"/><path d="M571.05,321.38h0a45.16,45.16,0,0,1,12.44,1.77,84,84,0,0,1,30.27,16.33l1.12.9.57.44c13.21,10.33,19.95,20.38,20,29.89.09,11.39-1.7,27.47-10.75,39.44-4.1,5.42-20.73,18.63-40.45,32.12-20.17,13.81-37.86,24-44,25.41l-3.27.75c-7.51,1.73-16,3.69-23.73,3.69-7.08,0-12.52-1.66-16.62-5.08-4.51-3.76-7.23-8-8.33-12.84-.95-4.22-.81-9,.45-15.6a43,43,0,0,1,2-6.94c3.57-9.54,16-42.11,26.38-61.05,3.41-6.23,6.14-11.48,8.33-15.7,1.8-3.45,3.35-6.44,4.75-9A45,45,0,0,1,543.7,331a50.81,50.81,0,0,1,14.52-7.67,42.55,42.55,0,0,1,12.83-2m0-5.28a47.87,47.87,0,0,0-14.42,2.2,55.31,55.31,0,0,0-16,8.38,50,50,0,0,0-15.07,16.71c-3.18,5.74-7,13.46-13.1,24.69-10.42,19.07-22.72,51.13-26.69,61.72a48.16,48.16,0,0,0-2.22,7.8c-2.39,12.42-1.95,23.79,9.68,33.5,5.67,4.72,12.66,6.31,20,6.31,9.48,0,19.55-2.63,28.16-4.58,15.3-3.45,77.73-46.57,87.5-59.49s11.92-30,11.82-42.67c-.14-17.54-18.24-31-22.61-34.44-3.7-2.92-15.12-13-33.2-18.17a50.56,50.56,0,0,0-13.9-2Z"/><ellipse class="cls-12" cx="596.87" cy="378.4" rx="35.2" ry="28.13" transform="translate(183.25 951.41) rotate(-86.55)"/><ellipse class="cls-12" cx="558.07" cy="426.22" rx="25.22" ry="20.15" transform="translate(99.05 957.64) rotate(-86.55)"/><ellipse class="cls-12" cx="516.8" cy="443.61" rx="19.84" ry="15.86" transform="translate(42.9 932.79) rotate(-86.55)"/><ellipse class="cls-14" cx="598.66" cy="378.5" rx="13.15" ry="9.57" transform="translate(184.83 953.31) rotate(-86.55)"/><ellipse class="cls-14" cx="558.91" cy="427.28" rx="8.26" ry="11.36" transform="translate(-68.56 109.11) rotate(-10.51)"/><ellipse class="cls-14" cx="516.72" cy="444.96" rx="6.12" ry="8.41" transform="translate(-72.49 101.71) rotate(-10.51)"/><path class="cls-73" d="M507.35,416.35s4.88-8.8,18.4-3.69c2.75-5.71,8.64-21.25,32.91-18.34-.95-5.46-9.46-29.29,9.71-51.46-7-3.51-11.31-5.83-20.87,4.92S506.49,413.56,507.35,416.35Z"/><line class="cls-74" x1="472.79" y1="333.03" x2="527.13" y2="340.81"/><line class="cls-74" x1="505.39" y1="307.71" x2="565.89" y2="316.37"/><polyline class="cls-74" points="574.52 317.61 590.58 319.91 590.58 319.91"/><line class="cls-74" x1="455.49" y1="365.81" x2="509.63" y2="373.56"/><line class="cls-74" x1="441.12" y1="398.49" x2="495.05" y2="406.21"/><line class="cls-74" x1="429.83" y1="432.52" x2="483.14" y2="440.15"/><path class="cls-75" d="M439.05,302.2l78.63-23.09c13.26-4.34,23.3-5.07,28.33,7.4h0c3.56,12.67-2.54,16.16-14.14,22.08l-77.43,41.19a24.51,24.51,0,0,1-31.81-13.53h0C417.6,323.78,426.58,307.22,439.05,302.2Z"/><path class="cls-76" d="M445,300.34,526.53,275c13.26-4.34,25.79,23.56,14.2,29.48l-77.44,41.19a24.52,24.52,0,0,1-31.81-13.54h0A24.51,24.51,0,0,1,445,300.34Z"/><path class="cls-77" d="M426.63,322.92s-1.08-4,3.1-10.47c-9.87-3.76-34.87-9.34-37.86-6.61-2,1.86-3.64,6.54-5,11-1.23,4,1.36,8.12,5.55,8.17,12.53.13,31.85-.23,31.85-.23Z"/><path class="cls-78" d="M429.83,312.29c-9.87-3.76-33.39-12-36.38-9.26-2,1.86-4.09,6.43-5.65,10.57a6,6,0,0,0,5.55,8.17c12.52.13,32.71,2,33.56,1.32A12.61,12.61,0,0,1,429.83,312.29Z"/><path class="cls-77" d="M430.77,338.84s-3.28-2.53-3.87-10.2c-10.13,3-33.42,13.65-34.14,17.63-.49,2.71,1,7.4,2.65,11.79,1.44,3.93,6,5.64,9.36,3.15,10.06-7.47,25.22-19.45,25.22-19.45Z"/><path class="cls-78" d="M426.89,328.44c-10.14,3-33.85,10.65-34.58,14.63-.49,2.71.63,7.59,1.89,11.84a6,6,0,0,0,9.36,3.15c10.06-7.47,27.23-18.23,27.53-19.25A12.62,12.62,0,0,1,426.89,328.44Z"/><path class="cls-77" d="M446.41,348s-4.13.28-9.66-5.08c-5.62,8.94-15.51,23.66-13.42,27.12,1.43,2.35,1.55,2.71,5.66,4.93,3.69,2,7.72.11,9.09-3.85a104.87,104.87,0,0,1,9.69-20.42Z"/><path class="cls-78" d="M436.61,342.78c-5.62,8.94-17.82,21.69-15.73,25.15,1.43,2.35,1.36,3.12,5.12,5.47,3.55,2.22,7.65.09,9.09-3.85,4.29-11.72,12-20.83,11.54-21.79A12.67,12.67,0,0,1,436.61,342.78Z"/><path class="cls-77" d="M436.32,303.27l-4.38,6.57s-2.55.67-3.11.77c-3.2.54-23.21-15.49-19.91-19.48s8.88-8.25,10.62-7.72c.22.06,2.66.13,2.66.13S437.74,303.13,436.32,303.27Z"/><path class="cls-78" d="M439.43,302.5a16.74,16.74,0,0,0-4.45,3.18,27.82,27.82,0,0,0-3,4.16c-1.84,2.67-23.21-15.49-19.91-19.49s9-7.29,10.74-6.77S441.05,302.33,439.43,302.5Z"/><ellipse class="cls-79" cx="454.47" cy="322.21" rx="8.64" ry="9.57" transform="translate(-65.36 522.56) rotate(-56.41)"/><path class="cls-20" d="M490.82,284.61s68.93-29.31,99.5-33.26c0,0,81.76-.7,151.79,7-8.58,5.8-81.08,32.09-91.27,33.63S517.63,289.76,490.82,284.61Z"/><path class="cls-21" d="M629,283.47s28.16-14.9,31-15.69-52.54-5.1-52.54-5.1-27.33,14-29.19,15.59S629,283.47,629,283.47Z"/><path class="cls-22" d="M743,258.24s1.28,116.49-8.72,145.49c-9,7-70.09,31.37-89.24,30.5-1.55-13.42,1-132.9,6.7-142.36C659.08,286.63,713.44,265.2,743,258.24Z"/><path class="cls-14" d="M490.82,284.61s-4.86,59.29-4.67,103c.08,16.83,15.5,33.88,18.19,34.63,5.89,5.91,149.35,18.32,158,13.05a46.68,46.68,0,0,1-13.88-36.2c1.51-28.91,1.61-72.16,3.29-107.18C646.61,288.93,516.25,282,490.82,284.61Z"/><path class="cls-80" d="M634.68,223.76l-1.17,43.84L595.09,267c-6.42-.17-11.37-10.13-11-22.23s5.79-21.79,12.22-21.62a8.09,8.09,0,0,1,5.84,3.21Z"/><path class="cls-81" d="M464.9,211.88s14.2,10.42,39.26,14.29c11.14,1.71,25.79.84,39.95-.6,46-4.67,67.1-28,67.1-28S609,165.9,608.7,155.29s-13.86-30.46-13.86-30.46Z"/><path class="cls-81" d="M757.53,221.21s-9.17,15.4-38.47,13.32-71.68-14.59-71.68-14.59l-25.79-36.36Z"/><path class="cls-14" d="M598.87,130.53l15.44.36-1.67,49.05-14.6-.39S600.68,147.2,598.87,130.53Z"/><polygon class="cls-82" points="598.04 179.55 607.28 192.85 617.71 193.13 612.64 179.94 598.04 179.55"/><polygon class="cls-83" points="586.63 179.24 626.62 180.31 622.18 250.72 584.29 248.82 586.63 179.24"/><path class="cls-42" d="M598.11,179.13l-1.29,8.41a1.43,1.43,0,0,1-.6,1l-10.49,7.31a1.44,1.44,0,0,1-2.26-1l-.28-2.36a1.44,1.44,0,0,1,.44-1.22l12-13.36A1.44,1.44,0,0,1,598.11,179.13Z"/><polygon class="cls-84" points="647.38 219.94 643.16 235.74 622.18 250.72 626.62 180.31 647.38 219.94"/><path class="cls-81" d="M613.11,181.18s.45,8.13,2.11,9.46,23.64,11.55,26.28,12,2.29-5.68,2.29-5.68Z"/><path class="cls-85" d="M613.11,181.18s.56,9.82,2.77,9.88c2.6,1.37,22,10.48,22,10.48"/><path class="cls-48" d="M745.41,221.91c-15.72,0-44.07-6.19-75.84-16.56-32.28-10.54-50.3-19.63-52.67-22.65-1.76-8.68-1-36.43,1.53-53.66a5.21,5.21,0,0,1,4.94-4.47c5.67-.25,11.55-.37,17.47-.37,50.14,0,94.68,8.59,111.51,12.28a5.28,5.28,0,0,1,4,3.9c7.14,28,1.41,63.26-1.39,77.1a5.21,5.21,0,0,1-4.47,4.17,44.79,44.79,0,0,1-5.05.26Z"/><path class="cls-86" d="M640.83,128c49.77,0,94,8.53,110.7,12.2a1.47,1.47,0,0,1,1.09,1.1c6.94,27.25,1.31,61.8-1.44,75.39a1.38,1.38,0,0,1-1.17,1.12,39.15,39.15,0,0,1-4.6.24c-14.95,0-42.17-5.9-72.8-15.78-29.46-9.5-47.75-18.09-52.16-21.55-1.27-8.83-.72-34.05,1.77-51.16a1.4,1.4,0,0,1,1.32-1.19c5.61-.24,11.43-.37,17.29-.37m0-7.67q-8.73,0-17.62.37a9.08,9.08,0,0,0-8.58,7.75c-2.51,17.23-3.41,46.39-1.41,55.39,2,9.16,94.9,41.88,132.19,41.88a48.69,48.69,0,0,0,5.51-.29,9.06,9.06,0,0,0,7.78-7.22c2.72-13.48,8.73-49.83,1.35-78.8a9.15,9.15,0,0,0-6.88-6.71c-15.17-3.33-61.08-12.37-112.34-12.37Z"/><polygon class="cls-83" points="586.93 260.11 588.21 278.72 629.17 280.58 625.94 261.88 586.93 260.11"/><polygon class="cls-84" points="644.95 252.91 655.1 267.56 629.17 280.58 625.94 261.88 644.95 252.91"/><ellipse class="cls-45" cx="634.1" cy="245.68" rx="21.93" ry="11.64" transform="translate(371.52 872.97) rotate(-88.47)"/><path class="cls-87" d="M597.82,178.32s-.69,9.58-1.6,10.21l-10.49,7.31"/><path class="cls-48" d="M481.11,211.42a57.8,57.8,0,0,1-10.25-.78,5,5,0,0,1-4-4.28c-1.9-14-5.36-49.48,3.54-77a5.1,5.1,0,0,1,4.07-3.51,393.07,393.07,0,0,1,60-4.35,502.43,502.43,0,0,1,53.68,3,5,5,0,0,1,4.48,4.6c1.38,17,.35,45.32-1.92,53.64C585.5,189.38,519.71,211.42,481.11,211.42Z"/><path class="cls-86" d="M534.47,125.57a499.59,499.59,0,0,1,53.24,2.94,1,1,0,0,1,.9.92c1.39,17.25.32,42.49-1.52,51.12-3.41,2.48-16.51,8.68-42.07,15.81-24.77,6.91-48.66,11-63.91,11a54.11,54.11,0,0,1-9.51-.72,1,1,0,0,1-.79-.87,250.45,250.45,0,0,1-2.23-32.72c0-16.69,1.9-31,5.61-42.44a1.11,1.11,0,0,1,.85-.77,390.1,390.1,0,0,1,59.43-4.31h0m0-8a395.37,395.37,0,0,0-60.64,4.4,9.16,9.16,0,0,0-7.29,6.25c-9.22,28.44-5.55,65.1-3.7,78.73a9,9,0,0,0,7.3,7.7,61.93,61.93,0,0,0,11,.85c37.93,0,110.89-22.74,113.38-31.3,2.58-8.85,3.55-38,2.14-55.36a9.07,9.07,0,0,0-8-8.29,507.92,507.92,0,0,0-54.12-3Z"/><path class="cls-50" d="M663.23,193.1c-.4,0-.79,0-1.18,0-15.24-.69-27-14.73-26.27-31.29.73-16.16,13-28.82,27.82-28.82l1.18,0c15.23.69,27,14.73,26.27,31.29C690.32,180.45,678.09,193.1,663.23,193.1Z"/><path class="cls-51" d="M663.6,129.71v6.52h0l1,0a23.2,23.2,0,0,1,16.72,8.44,28,28,0,0,1,6.44,19.44c-.65,14.42-11.44,25.71-24.57,25.71q-.51,0-1,0a23.18,23.18,0,0,1-16.72-8.44A27.94,27.94,0,0,1,639,161.93c.66-14.41,11.45-25.7,24.57-25.7v-6.52m0,0c-16.48,0-30.27,14-31.08,31.93-.83,18.39,12.32,33.92,29.38,34.7l1.32,0c16.49,0,30.27-14,31.08-31.93.84-18.39-12.32-33.92-29.38-34.7q-.66,0-1.32,0Z"/><path class="cls-50" d="M546,190.08l-1.18,0c-15.23-.69-27-14.72-26.27-31.29.73-16.16,13-28.81,27.82-28.81l1.18,0a26.44,26.44,0,0,1,19.06,9.6,31.17,31.17,0,0,1,7.21,21.7C573.12,177.43,560.9,190.08,546,190.08Z"/><path class="cls-51" d="M546.41,126.69v6.52h0l1,0c13.44.61,23.84,13.12,23.17,27.89-.66,14.41-11.45,25.7-24.57,25.7l-1,0a23.16,23.16,0,0,1-16.72-8.45,28,28,0,0,1-6.44-19.44c.65-14.41,11.44-25.7,24.56-25.7v-6.52m0,0c-16.48,0-30.26,14-31.08,31.92-.83,18.39,12.33,33.93,29.39,34.7q.66,0,1.32,0c16.48,0,30.27-14,31.08-31.92.83-18.39-12.32-33.93-29.38-34.7l-1.33,0Z"/><ellipse class="cls-46" cx="634.92" cy="246.91" rx="10.95" ry="5.06" transform="translate(359.5 869.99) rotate(-87.4)"/><path class="cls-88" d="M584.37,252.18c-17.32,1.75-93.55,32.43-93.55,32.43s-7.23,96.8-4.67,103c.89,7.12.61,16,15.8,32.86,5.1,2.94,6.84,9.93,112.87,15.08"/><path class="cls-88" d="M645.14,251.92s94,4.35,97.84,6.32c0,0-.46,80.76-1.51,85.51"/><ellipse class="cls-52" cx="537.03" cy="153.73" rx="13.71" ry="11.54" transform="translate(359.13 683.24) rotate(-87.4)"/><ellipse class="cls-52" cx="657.46" cy="155.61" rx="13.71" ry="11.54" transform="translate(472.22 805.34) rotate(-87.4)"/><path class="cls-23" d="M615.28,325.32,522.74,319a6.89,6.89,0,0,0-7.37,6.8l-.68,55a6.89,6.89,0,0,0,6.43,7l92.64,6.38a6.91,6.91,0,0,0,7.38-6.82l.57-55.05A6.9,6.9,0,0,0,615.28,325.32Z"/><path class="cls-24" d="M616.65,328.07l-92.73-6.58a5.37,5.37,0,0,0-5.75,5.29l-.68,55.33a5.36,5.36,0,0,0,5,5.42l92.71,6.71a5.37,5.37,0,0,0,5.76-5.29l.7-55.46A5.36,5.36,0,0,0,616.65,328.07Z"/><path class="cls-25" d="M555.69,351.74l57.09,3.52A3.45,3.45,0,0,0,616.4,352l.08-16.28a3.47,3.47,0,0,0-3.27-3.62l-57.09-3.52a3.45,3.45,0,0,0-3.62,3.27l-.08,16.27A3.48,3.48,0,0,0,555.69,351.74Z"/><ellipse class="cls-26" cx="603.49" cy="343.21" rx="8.35" ry="6.68" transform="translate(238.44 933.74) rotate(-87.9)"/><ellipse class="cls-27" cx="583.36" cy="341.8" rx="8.35" ry="6.68" transform="translate(220.45 912.27) rotate(-87.9)"/><ellipse class="cls-28" cx="563.62" cy="341.01" rx="8.35" ry="6.68" transform="translate(202.23 891.78) rotate(-87.9)"/><path class="cls-29" d="M566.56,366.37l44.93,3a3.61,3.61,0,0,0,3.77-3.42h0a3.61,3.61,0,0,0-3.41-3.76l-44.94-3a3.6,3.6,0,0,0-3.77,3.41h0A3.61,3.61,0,0,0,566.56,366.37Z"/><path class="cls-30" d="M591.26,389.73l20,1.21a3.61,3.61,0,0,0,3.76-3.41h0a3.6,3.6,0,0,0-3.41-3.77l-20-1.2a3.6,3.6,0,0,0-3.76,3.41h0A3.6,3.6,0,0,0,591.26,389.73Z"/><path class="cls-30" d="M591.39,379.65l20,1.21a3.61,3.61,0,0,0,3.77-3.41h0a3.61,3.61,0,0,0-3.42-3.77l-20-1.2a3.61,3.61,0,0,0-3.77,3.41h0A3.6,3.6,0,0,0,591.39,379.65Z"/><polygon class="cls-31" points="546.33 328.44 519.04 326.35 518.35 382.56 545.92 384.34 546.33 328.44"/><ellipse class="cls-89" cx="523.51" cy="332.95" rx="3.46" ry="2.99" transform="translate(184.14 852.33) rotate(-89.29)"/><path class="cls-90" d="M523.55,329.5s-1.37,4.25.11,6.91"/><path class="cls-90" d="M526.5,333s-3.85.85-6-.07"/><ellipse class="cls-91" cx="541.85" cy="379.39" rx="3.46" ry="2.99" transform="translate(155.82 916.53) rotate(-89.29)"/><path class="cls-90" d="M541.89,375.93s-1.37,4.26.11,6.92"/><path class="cls-90" d="M544.83,379.43s-3.84.84-6-.07"/><ellipse class="cls-92" cx="522.42" cy="378" rx="3.46" ry="2.99" transform="translate(138.02 895.73) rotate(-89.29)"/><path class="cls-90" d="M522.46,374.54s-1.37,4.26.11,6.92"/><path class="cls-90" d="M525.41,378s-3.84.84-6-.07"/><ellipse class="cls-93" cx="540.43" cy="333.95" rx="3.46" ry="2.99" transform="translate(199.85 870.23) rotate(-89.29)"/><path class="cls-90" d="M540.47,330.49s-1.37,4.26.11,6.92"/><path class="cls-90" d="M543.41,334s-3.84.84-6-.07"/><path class="cls-94" d="M615.26,365.93s-7.75-2.55-15.08-.18-7.57-4.16-10.95-4.12-4.23,5-8.8,4.43-3-2.3-5.22-2.32-2.21,2.26-4.26,2-2.84-6.67-4-6.51"/><path class="cls-72" d="M607,457.8a49.19,49.19,0,0,1,2.22-7.8c4-10.59,16.27-42.65,26.69-61.72,6.14-11.24,9.92-18.95,13.1-24.69a49.9,49.9,0,0,1,15.07-16.71,55,55,0,0,1,16-8.38c9.19-2.9,18.87-2.19,28.31-.24,23.51,4.87,36.2,6.21,40.75,8,4.37,3.44,22.59,25.42,22.73,43C772,401.88,769.8,419,760,431.89s-49.8,75.32-65.48,75.6c-18.31.33-64.89-5.38-77.85-16.19C605.06,481.59,604.62,470.22,607,457.8Z"/><path class="cls-11" d="M689.67,505.06c-7.73,0-13.72-1.86-18.31-5.7-10.55-8.79-11.14-18.74-8.79-31a47.19,47.19,0,0,1,2.1-7.38c3.59-9.57,16.11-42.29,26.54-61.38,3.39-6.21,6.12-11.44,8.31-15.65,1.8-3.48,3.36-6.47,4.78-9a47.65,47.65,0,0,1,14.27-15.82,53.17,53.17,0,0,1,15.25-8A45.13,45.13,0,0,1,747.43,349a47.74,47.74,0,0,1,13.18,1.86,86.42,86.42,0,0,1,31.2,16.82l1.09.88.56.43c13.88,10.85,21,21.6,21,32,.09,11.79-1.79,28.48-11.29,41.05-10,13.22-71.86,55.32-86,58.51l-3.26.75C706.34,503.06,697.67,505.06,689.67,505.06Z"/><path d="M747.43,351.68h0a45.17,45.17,0,0,1,12.45,1.76,84.22,84.22,0,0,1,30.27,16.33l1.12.9.56.45c13.22,10.32,20,20.38,20,29.89.1,11.38-1.7,27.46-10.75,39.43-4.1,5.42-20.73,18.63-40.44,32.13-20.18,13.81-37.86,24-44,25.4l-3.27.75c-7.51,1.73-16,3.7-23.72,3.7-7.08,0-12.52-1.67-16.62-5.09-4.51-3.76-7.23-7.95-8.33-12.83-1-4.22-.82-9,.45-15.6a43.15,43.15,0,0,1,2-6.95c3.57-9.53,16-42.11,26.38-61,3.4-6.23,6.14-11.49,8.33-15.71,1.8-3.45,3.35-6.43,4.75-8.95a44.91,44.91,0,0,1,13.48-14.95,50.67,50.67,0,0,1,14.52-7.67,42.79,42.79,0,0,1,12.82-1.95m0-5.29a47.86,47.86,0,0,0-14.41,2.2c-7,2.22-11.81,5.48-16,8.38A50,50,0,0,0,702,373.68c-3.19,5.75-7,13.46-13.1,24.69-10.42,19.08-22.72,51.13-26.69,61.73a47.87,47.87,0,0,0-2.22,7.8c-2.39,12.42-2,23.78,9.68,33.49,5.67,4.73,12.66,6.31,20,6.31,9.47,0,19.55-2.63,28.16-4.57,15.3-3.46,77.73-46.58,87.5-59.5s11.92-30,11.82-42.66c-.14-17.55-18.24-31-22.61-34.45-3.71-2.92-15.12-13-33.21-18.16a50.52,50.52,0,0,0-13.9-2Z"/><ellipse class="cls-12" cx="773.25" cy="408.69" rx="35.2" ry="28.13" transform="translate(318.78 1155.95) rotate(-86.55)"/><ellipse class="cls-12" cx="734.46" cy="456.51" rx="25.22" ry="20.15" transform="translate(234.59 1162.18) rotate(-86.55)"/><ellipse class="cls-12" cx="693.19" cy="473.91" rx="19.84" ry="15.86" transform="translate(178.44 1137.33) rotate(-86.55)"/><ellipse class="cls-14" cx="775.05" cy="408.8" rx="13.15" ry="9.57" transform="translate(320.36 1157.85) rotate(-86.55)"/><ellipse class="cls-14" cx="735.29" cy="457.57" rx="8.26" ry="11.36" transform="translate(-71.12 141.79) rotate(-10.51)"/><ellipse class="cls-14" cx="693.11" cy="475.26" rx="6.12" ry="8.41" transform="translate(-75.06 134.39) rotate(-10.51)"/><path class="cls-73" d="M683.74,446.65s4.88-8.8,18.39-3.7c2.76-5.71,8.65-21.25,32.92-18.33-.95-5.46-9.46-29.3,9.71-51.46-7-3.51-11.31-5.83-20.87,4.91S682.88,443.85,683.74,446.65Z"/><line class="cls-74" x1="649.17" y1="363.32" x2="703.52" y2="371.11"/><line class="cls-74" x1="681.78" y1="338" x2="742.28" y2="346.66"/><polyline class="cls-74" points="750.9 347.9 766.96 350.2 766.97 350.2"/><line class="cls-74" x1="631.88" y1="396.1" x2="686.02" y2="403.85"/><line class="cls-74" x1="617.5" y1="428.78" x2="671.44" y2="436.5"/><line class="cls-74" x1="606.21" y1="462.81" x2="659.53" y2="470.45"/><ellipse class="cls-95" cx="523.65" cy="278.05" rx="9.22" ry="2.82" transform="translate(-35.73 81.54) rotate(-8.61)"/><path class="cls-75" d="M629.52,353.27l61.8-53.81c10.24-9.47,19.06-14.34,28.84-5.1h0c8.52,10,4.44,15.74-3.63,26l-53.16,69.77a24.51,24.51,0,0,1-34.55,1h0C619,381.84,620.29,363.05,629.52,353.27Z"/><path class="cls-76" d="M634.16,349.1l63.5-57.05c10.24-9.48,33.27,10.63,25.21,20.86l-53.16,69.76a24.53,24.53,0,0,1-34.56,1h0A24.53,24.53,0,0,1,634.16,349.1Z"/><path class="cls-77" d="M626.89,377.29s-2.65-3.18-1.56-10.8c-10.54.7-35.59,6.07-37.16,9.8-1.06,2.54-.58,7.46,0,12.09.55,4.15,4.62,6.81,8.45,5.1C608.1,388.37,625.5,380,625.5,380Z"/><path class="cls-78" d="M625.36,366.3c-10.54.7-35.35,3-36.92,6.77-1.07,2.54-1,7.55-.73,12a6,6,0,0,0,8.45,5.1c11.44-5.11,30.54-11.88,31.05-12.81A12.62,12.62,0,0,1,625.36,366.3Z"/><path class="cls-77" d="M637.29,390s-4-.93-7.77-7.66c-8,6.93-24.67,26.36-23.66,30.28.68,2.67,4,6.29,7.33,9.61,3,3,7.81,2.62,9.82-1.05,6-11,14.8-28.2,14.8-28.2Z"/><path class="cls-78" d="M629.43,382.2c-8,6.94-26.32,23.81-25.31,27.73.68,2.66,3.74,6.63,6.66,10a6,6,0,0,0,9.82-1c6-11,17.13-27.93,17-29A12.62,12.62,0,0,1,629.43,382.2Z"/><path class="cls-77" d="M655.33,391.81s-3.64,2-10.9-.58c-1.37,10.47-4.22,28-.87,30.24,2.28,1.55,2.54,1.82,7.2,2.12,4.18.27,7.06-3.12,6.66-7.29a104.72,104.72,0,0,1,.27-22.6Z"/><path class="cls-78" d="M644.25,391.16c-1.37,10.48-7.14,27.16-3.79,29.43,2.28,1.54,2.53,2.27,6.93,2.83,4.16.54,7-3.11,6.66-7.29-1-12.45,2.19-23.94,1.38-24.62A12.6,12.6,0,0,1,644.25,391.16Z"/><path class="cls-77" d="M627.49,355.39l-1.25,7.8s-2,1.67-2.5,2c-2.67,1.83-27.55-4.39-26.22-9.39s4.63-11.2,6.43-11.46c.22,0,2.46-1,2.46-1S628.71,354.67,627.49,355.39Z"/><path class="cls-78" d="M630,353.39a16.7,16.7,0,0,0-2.71,4.75,29.36,29.36,0,0,0-1,5.05c-.54,3.19-27.55-4.39-26.22-9.39s5.13-10.39,6.93-10.64S631.39,352.56,630,353.39Z"/><ellipse class="cls-79" cx="651.89" cy="365.02" rx="8.64" ry="9.57" transform="translate(190.35 952.54) rotate(-81.09)"/><path d="M757.36,155.34a.53.53,0,0,0,0-1.05.53.53,0,0,0,0,1.05Z"/><ellipse class="cls-96" cx="316.08" cy="123.24" rx="2.83" ry="4.31" transform="translate(-16.85 58.05) rotate(-10.22)"/><line class="cls-97" x1="598.19" y1="130.57" x2="614.31" y2="130.89"/><path class="cls-98" d="M385.78,472.69l-.25,9.7v.32h0c-.07.13-4.94,11-7.25,16.2l-.14.31-1.51,3.29L372.75,511a3.31,3.31,0,0,0-.18.53,2.56,2.56,0,0,1-3.38,1.73c-13.52-5.15-69.92-27.44-97.63-51.46a5.2,5.2,0,0,0-7.64.92c-2.73,3.83-4.81,7.09-6.24,9.46a2.57,2.57,0,0,1-4.5-.21s-11.32-12.88-24.26-37.81c-7.27-14-12-32.9-13.34-38.83,0,0,0,0,0,0-.27-1.19-.4-1.85-.4-1.85a1.44,1.44,0,0,1-.13-.32,8.12,8.12,0,0,1-.12-1,.14.14,0,0,1,0-.09c0-2.36,5-8.34,7.4-10.64a2,2,0,0,1,2.3-.35c4,2.07,18.43,9.25,32,13.59,14.48,4.64,36.89,9.36,36.89,9.36a2.57,2.57,0,0,1,1.33,3.83l-4.21,9.22-.31.68L285,426.07a2.41,2.41,0,0,0,.52.54c7.55,5.89,42.34,32.08,98.53,42.5a2.54,2.54,0,0,1,1.05.45C386,470.26,385.76,471.29,385.78,472.69Z"/><path class="cls-99" d="M285.46,426.62C293,432.5,327.8,458.69,384,469.11a2.68,2.68,0,0,1,1.05.45c1,.71.71,1.74.73,3.13l-.26,10c-.08.18-8.39,18.7-8.44,18.89a2.56,2.56,0,0,1-3.38,1.72c-13.51-5.14-69.9-27.43-97.63-51.45a5.19,5.19,0,0,0-7.64.92c-2.72,3.83-4.8,7.08-6.24,9.45a2.56,2.56,0,0,1-4.5-.22s-11.32-12.87-24.26-37.8c-6.51-12.54-17.85-23.6-18.52-32.07-.18-2.3,5-8.41,7.41-10.74a2,2,0,0,1,2.31-.35c4,2.08,18.42,9.26,32,13.6,14.48,4.63,36.89,9.36,36.89,9.36a2.56,2.56,0,0,1,1.33,3.82l-4.52,9.9-5.43,5.45A2.57,2.57,0,0,0,285.46,426.62Z"/><path class="cls-30" d="M281,436.52c7.55,5.88,46.35,33.12,102.54,43.54a2.49,2.49,0,0,1,1.05.45,2.54,2.54,0,0,1,.73,3.12L372.74,511a3.11,3.11,0,0,0-.18.54,2.56,2.56,0,0,1-3.38,1.72c-13.52-5.14-69.92-27.44-97.64-51.45a5.18,5.18,0,0,0-7.63.91c-2.73,3.83-4.81,7.09-6.24,9.46a2.56,2.56,0,0,1-4.5-.22s-11.32-12.86-24.27-37.8c-8.73-16.82-13.74-40.7-13.74-40.7a2.56,2.56,0,0,1,3.13-3.55s17.81,9.57,33.82,14.69c14.47,4.63,36.89,9.36,36.89,9.36a2.56,2.56,0,0,1,1.32,3.82l-9.94,15.35A2.56,2.56,0,0,0,281,436.52Z"/><path class="cls-100" d="M422.66,89.91l-.84-3.4v0l0-.1h0L423,79.84l0-.13.27-1.33L424,75a1.48,1.48,0,0,0,0-.21,1.13,1.13,0,0,1,1.15-1c5.75.05,29.8.56,42.88,5.34a2.35,2.35,0,0,0,2.88-1.29c.69-1.68,1.18-3.08,1.51-4.09a1.12,1.12,0,0,1,1.77-.5,69.14,69.14,0,0,1,13.07,10c4.18,3.93,7.83,9.89,8.93,11.77h0c.22.37.34.59.34.59l.08.09c.05.11.09.21.13.32a0,0,0,0,1,0,0c.25.81-1.14,3.54-1.84,4.65a.93.93,0,0,1-.86.41,99.51,99.51,0,0,0-13.75-.62c-6.06.25-15.22,1.48-15.22,1.48a.85.85,0,0,1-.89-1.15L465,97l.06-.28,1.29-3.58a1,1,0,0,0-.26-.12c-3.5-1.07-19.54-5.71-42.37-2.12a1.13,1.13,0,0,1-.45,0C422.8,90.78,422.8,90.39,422.66,89.91Z"/><path class="cls-99" d="M466.06,93c-3.5-1.08-19.54-5.71-42.36-2.12a1.34,1.34,0,0,1-.45,0c-.45-.12-.45-.51-.59-1l-.87-3.51c0-.07,1.45-7.57,1.45-7.64a1.12,1.12,0,0,1,1.15-1c5.74,0,29.79.56,42.88,5.34a2.35,2.35,0,0,0,2.88-1.29c.69-1.68,1.18-3.08,1.51-4.08a1.11,1.11,0,0,1,1.76-.51,69.19,69.19,0,0,1,13.08,10c3.74,3.51,9.21,5.9,10.29,8.76.29.77-1.12,3.55-1.84,4.67a.91.91,0,0,1-.86.42,99.44,99.44,0,0,0-13.74-.62c-6.07.25-15.23,1.48-15.23,1.48a.85.85,0,0,1-.88-1.16l.79-4,1.58-2.59A.82.82,0,0,0,466.06,93Z"/><path class="cls-30" d="M466.86,89c-3.5-1.07-21.2-5.55-44-2a1.12,1.12,0,0,1-.45,0,.82.82,0,0,1-.58-1L424,75a.75.75,0,0,0,0-.21,1.14,1.14,0,0,1,1.15-1c5.74.06,29.79.57,42.88,5.35a2.33,2.33,0,0,0,2.87-1.3c.69-1.67,1.18-3.07,1.51-4.08a1.12,1.12,0,0,1,1.77-.5,69.36,69.36,0,0,1,13.08,10c5,4.72,9.27,12.37,9.27,12.37.58.58,0,1.61-.88,1.63a99.22,99.22,0,0,0-14.55-.76c-6.06.25-15.22,1.48-15.22,1.48a.86.86,0,0,1-.89-1.16l2.38-6.6A.84.84,0,0,0,466.86,89Z"/><path class="cls-99" d="M337.36,496.46c-.56,1.27-.92,2.08-.93,2.12a2.37,2.37,0,0,1-.47.92Z"/><path class="cls-30" d="M249.68,414.73,244.29,423a2.58,2.58,0,0,1,0-2.87Z"/><path class="cls-30" d="M250,414a2.64,2.64,0,0,1-.32.71Z"/><path class="cls-30" d="M344.86,479.71a2.55,2.55,0,0,1-.23.89l-6.87,15C340.08,490.36,344.66,480.15,344.86,479.71Z"/></svg>