<svg id="Layer_1" data-name="Layer 1" xmlns="http://www.w3.org/2000/svg" xmlns:xlink="http://www.w3.org/1999/xlink" viewBox="0 0 906 603.01"><defs><style>.cls-1,.cls-107,.cls-20,.cls-38,.cls-43,.cls-46,.cls-58,.cls-62{fill:none;}.cls-2{fill:#757575;}.cls-3{fill:#00b1ff;}.cls-4{fill:#15bdf9;}.cls-5{fill:#fff;}.cls-6{fill:#626c72;}.cls-7{fill:#96a5b3;}.cls-8{fill:#2f3e4a;}.cls-9{fill:#222d35;}.cls-10{isolation:isolate;}.cls-11{fill:#1e1e1e;}.cls-12,.cls-25,.cls-27,.cls-28{fill:#282828;}.cls-13{fill:#212121;}.cls-14{fill:#464747;}.cls-15{fill:#353535;stroke-width:0.6px;}.cls-107,.cls-15,.cls-25,.cls-32,.cls-34,.cls-43,.cls-63{stroke:#000;}.cls-15,.cls-25,.cls-27,.cls-32,.cls-34,.cls-35{stroke-linejoin:round;}.cls-16,.cls-23,.cls-26{fill:#4d4d4d;}.cls-17{fill:#b3b3b3;}.cls-18{fill:#d3161d;}.cls-19{fill:#adadad;stroke:#080000;stroke-width:0.82px;}.cls-107,.cls-19,.cls-20,.cls-21,.cls-22,.cls-23,.cls-26,.cls-28,.cls-33,.cls-37,.cls-38,.cls-41,.cls-43,.cls-46,.cls-57,.cls-58,.cls-59,.cls-60,.cls-61,.cls-62,.cls-63{stroke-miterlimit:10;}.cls-20,.cls-21,.cls-35,.cls-37,.cls-41,.cls-46,.cls-62{stroke:#070707;}.cls-20{stroke-width:1.27px;}.cls-21{fill:#77401b;}.cls-21,.cls-22,.cls-46{stroke-width:0.83px;}.cls-22,.cls-29,.cls-63{fill:#f8c946;}.cls-22{stroke:#020202;}.cls-23,.cls-26,.cls-28{stroke:#151616;}.cls-23{stroke-width:2.49px;}.cls-24{fill:#e7e7e7;}.cls-25,.cls-27{stroke-width:1.07px;}.cls-26,.cls-28{stroke-width:0.68px;}.cls-27{stroke:#282828;}.cls-30{fill:#683919;}.cls-31,.cls-37{fill:#945320;}.cls-32{fill:#515051;stroke-width:0.83px;}.cls-33,.cls-36{fill:#161616;}.cls-33,.cls-38,.cls-57,.cls-58,.cls-59,.cls-60,.cls-61{stroke:#0a0a0a;}.cls-33,.cls-34,.cls-37,.cls-38,.cls-41,.cls-43{stroke-width:0.72px;}.cls-34{fill:#8e8a8b;}.cls-35,.cls-41{fill:#e2b647;}.cls-35{stroke-width:0.72px;}.cls-39{fill:#dddbd7;}.cls-40{fill:#232323;}.cls-42{fill:#3a3a3a;}.cls-44{fill:#7c7c7c;}.cls-45{fill:#666;}.cls-47{fill:#389cce;}.cls-48{fill:#7f1119;}.cls-49{fill:#5e0e18;}.cls-50{fill:#352f49;}.cls-51{fill:#e41e00;}.cls-52{fill:#fffe28;}.cls-53{fill:#18ff08;}.cls-54{fill:#dbdddd;}.cls-55{fill:#0fb0db;}.cls-56{fill:#303435;}.cls-57,.cls-58,.cls-59,.cls-60,.cls-61{stroke-width:0.32px;}.cls-57{fill:url(#radial-gradient);}.cls-59{fill:url(#radial-gradient-2);}.cls-60{fill:url(#radial-gradient-3);}.cls-61{fill:url(#radial-gradient-4);}.cls-62,.cls-63{stroke-width:0.41px;}.cls-64{fill:#d01600;}.cls-65{fill:#a50e02;}.cls-66{clip-path:url(#clip-path);}.cls-67{clip-path:url(#clip-path-2);}.cls-68{clip-path:url(#clip-path-3);}.cls-69{clip-path:url(#clip-path-4);}.cls-70{clip-path:url(#clip-path-5);}.cls-71{clip-path:url(#clip-path-6);}.cls-72{clip-path:url(#clip-path-7);}.cls-73{clip-path:url(#clip-path-8);}.cls-74{clip-path:url(#clip-path-9);}.cls-75{clip-path:url(#clip-path-10);}.cls-76{clip-path:url(#clip-path-11);}.cls-77{clip-path:url(#clip-path-12);}.cls-78{fill:#008d0a;}.cls-79{clip-path:url(#clip-path-13);}.cls-80{clip-path:url(#clip-path-14);}.cls-81{fill:#008a0a;}.cls-82{clip-path:url(#clip-path-15);}.cls-83{clip-path:url(#clip-path-16);}.cls-84{clip-path:url(#clip-path-17);}.cls-85{clip-path:url(#clip-path-18);}.cls-86{fill:#008009;}.cls-87{fill:#00f711;}.cls-88{clip-path:url(#clip-path-19);}.cls-89{clip-path:url(#clip-path-20);}.cls-90{clip-path:url(#clip-path-21);}.cls-91{clip-path:url(#clip-path-22);}.cls-92{fill:#331080;}.cls-93{fill:#621ef7;}.cls-94{fill:#39118f;}.cls-95{clip-path:url(#clip-path-23);}.cls-96{fill:#818181;}.cls-97{clip-path:url(#clip-path-24);}.cls-98{clip-path:url(#clip-path-25);}.cls-99{clip-path:url(#clip-path-26);}.cls-100{clip-path:url(#clip-path-27);}.cls-101{clip-path:url(#clip-path-28);}.cls-102{clip-path:url(#clip-path-29);}.cls-103{clip-path:url(#clip-path-30);}.cls-104{clip-path:url(#clip-path-31);}.cls-105{clip-path:url(#clip-path-32);}.cls-106{clip-path:url(#clip-path-33);}.cls-107{stroke-width:0.67px;}</style><radialGradient id="radial-gradient" cx="738.54" cy="305.48" r="5.05" gradientTransform="translate(851.8 -340.6) rotate(90)" gradientUnits="userSpaceOnUse"><stop offset="0.2" stop-color="#666"/><stop offset="0.57" stop-color="#585858"/><stop offset="1" stop-color="#4d4d4d"/></radialGradient><radialGradient id="radial-gradient-2" cx="718.11" cy="355.4" r="5.05" gradientTransform="translate(880.53 -270.58) rotate(90)" xlink:href="#radial-gradient"/><radialGradient id="radial-gradient-3" cx="739.11" cy="354.16" r="5.05" gradientTransform="translate(900.3 -292.5) rotate(90)" xlink:href="#radial-gradient"/><radialGradient id="radial-gradient-4" cx="720.25" cy="306.34" r="5.05" gradientTransform="translate(834.36 -321.74) rotate(90)" xlink:href="#radial-gradient"/><clipPath id="clip-path"><path class="cls-1" d="M408.37,35l-2.65,7c-1.44.22-3,.49-4.5.81s-3.05.69-4.45,1.11-2.71.87-3.89,1.33-2.18.88-3,1.25l2.65-7c.79-.37,1.76-.78,3-1.25s2.49-.91,3.89-1.33,2.9-.79,4.44-1.11S406.93,35.16,408.37,35Z"/></clipPath><clipPath id="clip-path-2"><path class="cls-1" d="M381.89,54.76l2.64-7c.12-.31.26-.63.41-1a15.84,15.84,0,0,1,2.69-3.83,17.15,17.15,0,0,1,4.93-3.49l-2.65,7A16.79,16.79,0,0,0,385,50a15.59,15.59,0,0,0-2.7,3.82C382.14,54.13,382,54.45,381.89,54.76Z"/></clipPath><clipPath id="clip-path-3"><path class="cls-1" d="M441.2,72.37l-2.65,7a17.46,17.46,0,0,0-.26-9.92c-1.06-3.57-3.38-7.5-6.89-11.69a37.39,37.39,0,0,0-10.57-9.13,25,25,0,0,0-10.4-3.09q-.36,0-.72,0a26.6,26.6,0,0,0-9.61,1.52,59.86,59.86,0,0,0-10.25,4.75,8.23,8.23,0,0,0-2.08,2l-2.45,3a25.51,25.51,0,0,1-2.26,2.43,2.52,2.52,0,0,1-1.72.77l2.65-7a2.52,2.52,0,0,0,1.71-.77A25.48,25.48,0,0,0,388,49.72l2.45-3a7.88,7.88,0,0,1,2.08-2A59.86,59.86,0,0,1,402.75,40a26.81,26.81,0,0,1,9.6-1.53l.73,0a25.12,25.12,0,0,1,10.4,3.1,37.39,37.39,0,0,1,10.57,9.13c3.51,4.19,5.83,8.12,6.89,11.69A17.55,17.55,0,0,1,441.2,72.37Z"/></clipPath><clipPath id="clip-path-4"><path class="cls-1" d="M414.63,74.47c0-.13,0-.27,0-.41l.31-.82.33-.87.34-.9.35-.92.34-.92.34-.91.33-.87.31-.82c0,.14,0,.28,0,.41C416.39,69.78,415.51,72.13,414.63,74.47Z"/></clipPath><clipPath id="clip-path-5"><path class="cls-1" d="M415.23,67.42l-2.65,7a2.57,2.57,0,0,0-.06-1.54A7.9,7.9,0,0,0,411,70.44a9.21,9.21,0,0,0-2.25-2.06A4.37,4.37,0,0,0,407,67.8l2.65-7a4.22,4.22,0,0,1,1.72.58,9.19,9.19,0,0,1,2.25,2.06,8,8,0,0,1,1.55,2.46A2.6,2.6,0,0,1,415.23,67.42Z"/></clipPath><clipPath id="clip-path-6"><path class="cls-1" d="M415.21,67.46l-2.65,7,0,0,2.65-7Z"/></clipPath><clipPath id="clip-path-7"><path class="cls-1" d="M414.46,75.2a.24.24,0,0,1,0-.08l2.65-7,0,.08Z"/></clipPath><clipPath id="clip-path-8"><path class="cls-1" d="M400.55,71.5l2.65-7a2.31,2.31,0,0,1,.87-1.07A22.14,22.14,0,0,1,406,62.15a21.55,21.55,0,0,1,2-1,3.27,3.27,0,0,1,1.54-.34l-2.65,7a3.53,3.53,0,0,0-1.54.34c-.69.31-1.37.66-2,1a22.14,22.14,0,0,0-1.92,1.25A2.36,2.36,0,0,0,400.55,71.5Z"/></clipPath><clipPath id="clip-path-9"><path class="cls-1" d="M442.64,74.42l-2.65,7a22.3,22.3,0,0,1-5,7.7,46.52,46.52,0,0,1-10,7.61,49.32,49.32,0,0,1-14.45,5.75,32.72,32.72,0,0,1-7.75.71,33.65,33.65,0,0,1-6.8-.9,43,43,0,0,1-14.71-7A83,83,0,0,1,366.2,81c-5.59-6.67-9.52-12.77-11.66-18.11s-2.9-10.33-2.21-14.67a21.06,21.06,0,0,1,1.1-4.14l2.65-7a21.06,21.06,0,0,0-1.1,4.14c-.69,4.34.06,9.28,2.21,14.67s6.06,11.43,11.66,18.11a82.64,82.64,0,0,0,15,14.36,43,43,0,0,0,14.71,7,34.38,34.38,0,0,0,6.8.9,32.72,32.72,0,0,0,7.75-.71,49.43,49.43,0,0,0,14.45-5.75,46.44,46.44,0,0,0,10-7.61A22.28,22.28,0,0,0,442.64,74.42Z"/></clipPath><clipPath id="clip-path-10"><path class="cls-1" d="M291.86,213.44l2.65-7a4.16,4.16,0,0,1,1.84-2.14,4.71,4.71,0,0,1,2.62-.67,5.83,5.83,0,0,1,1.21.16,5.55,5.55,0,0,1,3.23,2,5,5,0,0,1,1.13,3.49l-2.65,7a5,5,0,0,0-1.13-3.49,5.55,5.55,0,0,0-3.23-2,6.6,6.6,0,0,0-1.21-.16,4.74,4.74,0,0,0-2.62.68A4.1,4.1,0,0,0,291.86,213.44Z"/></clipPath><clipPath id="clip-path-11"><path class="cls-1" d="M301.35,219.66l-2.65,7,.18-.48c.71-1.92,1.32-3.79,1.82-5.55s.91-3.23,1.19-4.38l2.65-7c-.28,1.15-.68,2.62-1.19,4.37s-1.11,3.64-1.82,5.55Z"/></clipPath><clipPath id="clip-path-12"><path class="cls-1" d="M328.53,228l-2.64,7c-.64,1.68-1.3,3.29-2,4.8a55.25,55.25,0,0,1-3.69,6.94,26.54,26.54,0,0,1-3.12,4.17l2.64-7a25.86,25.86,0,0,0,3.13-4.17,54.7,54.7,0,0,0,3.68-6.94C327.24,231.25,327.9,229.64,328.53,228Z"/></clipPath><clipPath id="clip-path-13"><path class="cls-1" d="M280.27,338l-2.65,7a29,29,0,0,1-5.46-7.17,22.52,22.52,0,0,1-2.27-8l2.65-7a22.26,22.26,0,0,0,2.27,8A28.61,28.61,0,0,0,280.27,338Z"/></clipPath><clipPath id="clip-path-14"><path class="cls-1" d="M302,372c.78-2.07,1.54-4.15,2.34-6.21h0Z"/></clipPath><clipPath id="clip-path-15"><path class="cls-1" d="M318.56,373.77l-2.65,7a43.34,43.34,0,0,1-6.13-6.95,32.83,32.83,0,0,1-3.85-7.57l2.64-7a33.33,33.33,0,0,0,3.86,7.58A42.87,42.87,0,0,0,318.56,373.77Z"/></clipPath><clipPath id="clip-path-16"><path class="cls-1" d="M307.19,364.19l-2.64,7q-.49,1.29-1.08,2.46a32.19,32.19,0,0,1-4.69,6.74l2.65-7a31.75,31.75,0,0,0,4.68-6.74A23.75,23.75,0,0,0,307.19,364.19Z"/></clipPath><clipPath id="clip-path-17"><path class="cls-1" d="M274.78,372.26l2.65-7a19.24,19.24,0,0,1,3.46-5.64l-2.65,7A19.37,19.37,0,0,0,274.78,372.26Z"/></clipPath><clipPath id="clip-path-18"><path class="cls-1" d="M272.88,371.57l2.65-7c-.1.27-.2.54-.28.82a19.68,19.68,0,0,0-.62,7.88l-2.65,7a19.71,19.71,0,0,1,.62-7.89C272.68,372.12,272.78,371.84,272.88,371.57Z"/></clipPath><clipPath id="clip-path-19"><path class="cls-1" d="M616.5,82.64l-2.65,7a1.77,1.77,0,0,0,.11-1,2.55,2.55,0,0,0-.66-1.22c-.47-.53-1-1.07-1.51-1.61s-1.07-1.06-1.62-1.56a3.18,3.18,0,0,0-1.28-.76,2.67,2.67,0,0,0-.64-.09,3.54,3.54,0,0,0-.89.09,7.14,7.14,0,0,0-2.3,1.18,5.89,5.89,0,0,0-1.77,1.72,3.23,3.23,0,0,0-.15.34l2.65-7a3.23,3.23,0,0,1,.15-.34,5.89,5.89,0,0,1,1.77-1.72,6.76,6.76,0,0,1,2.3-1.18,3.46,3.46,0,0,1,.88-.09,2.2,2.2,0,0,1,.64.09,3.21,3.21,0,0,1,1.29.76c.54.49,1.08,1,1.62,1.56s1,1.08,1.51,1.61a2.55,2.55,0,0,1,.66,1.22A1.88,1.88,0,0,1,616.5,82.64Z"/></clipPath><clipPath id="clip-path-20"><path class="cls-1" d="M641.87,93.6l-2.65,7c-.13.35-.27.69-.42,1-1.38,3.06-4.15,6.09-8.21,9a20.91,20.91,0,0,1-6.91,3.19,24.78,24.78,0,0,1-7.09.76l2.65-7a25.18,25.18,0,0,0,7.09-.76,21.06,21.06,0,0,0,6.9-3.19c4.07-2.9,6.84-5.93,8.21-9C641.6,94.29,641.74,93.94,641.87,93.6Z"/></clipPath><clipPath id="clip-path-21"><path class="cls-1" d="M593.24,100.65l-2.65,7a2,2,0,0,0,.11-1.16,4,4,0,0,0-.8-1.69,21.94,21.94,0,0,0-1.79-2,22.23,22.23,0,0,0-2.05-1.85,5.11,5.11,0,0,0-1.82-1,3.19,3.19,0,0,0-.82-.13,4,4,0,0,0-1.11.13,8.47,8.47,0,0,0-2.73,1.39,7.11,7.11,0,0,0-2.09,2,3.21,3.21,0,0,0-.22.46l2.65-7a2.41,2.41,0,0,1,.22-.46,7.11,7.11,0,0,1,2.09-2A8.33,8.33,0,0,1,585,92.94a4.11,4.11,0,0,1,1.12-.13,3.69,3.69,0,0,1,.82.12,5.4,5.4,0,0,1,1.82,1,22.23,22.23,0,0,1,2,1.85,21.94,21.94,0,0,1,1.79,2,4.07,4.07,0,0,1,.8,1.69A2,2,0,0,1,593.24,100.65Z"/></clipPath><clipPath id="clip-path-22"><path class="cls-1" d="M617.82,115.24l-2.65,7q-.15.42-.33.84a18.22,18.22,0,0,1-6.35,7.58,32.78,32.78,0,0,1-13.2,6,29.16,29.16,0,0,1-5.85.44,26.35,26.35,0,0,1-6.45-1,35.78,35.78,0,0,1-11.27-5.53,81,81,0,0,1-10.23-8.82A75.47,75.47,0,0,1,553,111.6a25.75,25.75,0,0,1-4.4-10.36,16.4,16.4,0,0,1,.9-8.52l2.65-7a16.38,16.38,0,0,0-.9,8.51,25.73,25.73,0,0,0,4.4,10.37,76.09,76.09,0,0,0,8.51,10.19,80.31,80.31,0,0,0,10.23,8.82,36,36,0,0,0,11.27,5.53,26.84,26.84,0,0,0,6.45,1,29.16,29.16,0,0,0,5.85-.44,32.92,32.92,0,0,0,13.2-6,18.22,18.22,0,0,0,6.35-7.58C617.6,115.8,617.72,115.52,617.82,115.24Z"/></clipPath><clipPath id="clip-path-23"><path class="cls-1" d="M467.61,396.26l-2.64,7a8,8,0,0,1-2.61,2.48,38.6,38.6,0,0,1-3.75,2c-4.41,2-9.47,4.17-15,6.58-5.41,2.34-11.16,4.82-17.08,7.35-5.76,2.46-11.45,4.92-16.91,7.33-5.27,2.31-9.95,4.45-13.93,6.36l2.64-7c4-1.91,8.67-4.05,13.94-6.37,5.46-2.4,11.15-4.86,16.91-7.33,5.92-2.52,11.66-5,17.08-7.34s10.62-4.63,15-6.58a39.79,39.79,0,0,0,3.75-2A8,8,0,0,0,467.61,396.26Z"/></clipPath><clipPath id="clip-path-24"><path class="cls-1" d="M469.36,397.25l-2.64,7a9.8,9.8,0,0,1-3.1,2.94c-1.2.71-2.53,1.41-3.93,2.06-4.43,2-9.5,4.18-15.06,6.59s-11.16,4.82-17.08,7.35c-5.76,2.46-11.45,4.92-16.9,7.32s-10.31,4.62-14.37,6.58l2.65-7c4.06-2,8.9-4.17,14.37-6.58s11.13-4.87,16.89-7.32c5.93-2.53,11.67-5,17.09-7.35s10.63-4.63,15.06-6.6a42.39,42.39,0,0,0,3.93-2.06A9.45,9.45,0,0,0,469.36,397.25Z"/></clipPath><clipPath id="clip-path-25"><path class="cls-1" d="M534.4,402.22l2.65-7a3.44,3.44,0,0,1,.5-.94,2.71,2.71,0,0,1,1.26-.95,3,3,0,0,1,1.1-.15,3.62,3.62,0,0,1,.55.05c.77.11,1.63.28,2.54.49s1.65.43,2.45.69a4,4,0,0,1,1.54.84,3.24,3.24,0,0,1,.84,1.45,6,6,0,0,1,0,2.66l-2.65,7a6,6,0,0,0,0-2.66,3.33,3.33,0,0,0-.84-1.44,4,4,0,0,0-1.54-.85c-.8-.26-1.63-.49-2.46-.68s-1.77-.39-2.54-.5a5.35,5.35,0,0,0-.55-.05,3.26,3.26,0,0,0-1.1.15,2.71,2.71,0,0,0-1.26.95A3.44,3.44,0,0,0,534.4,402.22Z"/></clipPath><clipPath id="clip-path-26"><path class="cls-1" d="M507.15,391.66l2.65-7a33.63,33.63,0,0,0-1.6,6,26.25,26.25,0,0,0,.49,12.91,21.89,21.89,0,0,0,5.94,9.3,32.45,32.45,0,0,0,9.9,6.18,84.09,84.09,0,0,0,12.36,3.89,11.28,11.28,0,0,0,2.22.26c.51,0,1.08,0,1.7,0l4.4-.2c1,0,1.91,0,2.71,0L549,423l-2.64,7-1.05-.05c-.81,0-1.72,0-2.72,0l-4.4.2c-.62,0-1.18,0-1.7,0a10.47,10.47,0,0,1-2.21-.26,83.72,83.72,0,0,1-12.36-3.89,32.19,32.19,0,0,1-9.91-6.18,22,22,0,0,1-5.94-9.3,26.37,26.37,0,0,1-.49-12.91A33.63,33.63,0,0,1,507.15,391.66Z"/></clipPath><clipPath id="clip-path-27"><path class="cls-1" d="M551.07,423.42l-2.65,7a3.87,3.87,0,0,1-1.68,1.66,13.41,13.41,0,0,1-3.94,1.5,24.49,24.49,0,0,1-5.82.59h-.57a27.67,27.67,0,0,1-6.87-1.18l2.65-7a27.67,27.67,0,0,0,6.87,1.18h.57a24.54,24.54,0,0,0,5.82-.59,13.82,13.82,0,0,0,3.94-1.5A3.93,3.93,0,0,0,551.07,423.42Z"/></clipPath><clipPath id="clip-path-28"><path class="cls-1" d="M532.19,426l-2.65,7c-1-.3-2.15-.71-3.5-1.2s-2.78-1.1-4.29-1.78-3-1.42-4.53-2.21c-1.22-.64-2.39-1.31-3.47-2l2.65-7c1.08.69,2.25,1.36,3.47,2,1.52.79,3,1.54,4.53,2.21s3,1.28,4.29,1.78S531.2,425.68,532.19,426Z"/></clipPath><clipPath id="clip-path-29"><path class="cls-1" d="M516,411.75l-2,5.34,2-5.34Z"/></clipPath><clipPath id="clip-path-30"><path class="cls-1" d="M559.3,453a29.6,29.6,0,0,1-13.62,3l.31-.82.33-.87.34-.91.34-.92.35-.92.34-.9.33-.87.31-.82a29.6,29.6,0,0,0,13.62-3A25.9,25.9,0,0,0,572,436.44l-2.64,7,2.64-7a34.94,34.94,0,0,0,3.2-6.54l-2.65,7a34.94,34.94,0,0,1-3.2,6.54A25.9,25.9,0,0,1,559.3,453Z"/></clipPath><clipPath id="clip-path-31"><path class="cls-1" d="M504.46,443.75c-1.2-.88-2.21-1.64-3.07-2.31l2.65-7c.86.66,1.87,1.42,3.07,2.31a41.48,41.48,0,0,0,5.46,3.32,74.37,74.37,0,0,0,7.93,3.45,92,92,0,0,0,10.84,3.19A78.37,78.37,0,0,0,547,448.86l1.32,0-2.64,7-1.33,0a79.26,79.26,0,0,1-15.66-2.19,93.11,93.11,0,0,1-10.84-3.19,72.39,72.39,0,0,1-7.93-3.45A41.48,41.48,0,0,1,504.46,443.75Z"/></clipPath><clipPath id="clip-path-32"><path class="cls-1" d="M545.68,455.92h0l2.64-7h0q-1.33,3.51-2.65,7Z"/></clipPath><clipPath id="clip-path-33"><path class="cls-1" d="M577.13,430.63l-2.65,7a36.58,36.58,0,0,1-3.32,6.78,27.49,27.49,0,0,1-10.72,10,31.56,31.56,0,0,1-14.53,3.16l-1.35,0a82,82,0,0,1-16.16-2.25,94.37,94.37,0,0,1-11.14-3.28,75.15,75.15,0,0,1-8.19-3.57,44.61,44.61,0,0,1-5.78-3.52c-1.56-1.14-2.81-2.09-3.83-2.9l2.65-7c1,.8,2.27,1.76,3.83,2.9a45,45,0,0,0,5.78,3.52,72.55,72.55,0,0,0,8.19,3.56,93.81,93.81,0,0,0,11.14,3.28,80.48,80.48,0,0,0,16.15,2.25l1.36,0a31.56,31.56,0,0,0,14.53-3.16,27.56,27.56,0,0,0,10.72-10A37.55,37.55,0,0,0,577.13,430.63Z"/></clipPath></defs><title>numbers</title><path class="cls-2" d="M41.13,16H865.35a39.84,39.84,0,0,1,39.82,39.82V562.29a39.84,39.84,0,0,1-39.82,39.82H41.13A39.84,39.84,0,0,1,1.31,562.29V55.81A39.84,39.84,0,0,1,41.13,16Z"/><path class="cls-3" d="M904.71,40.67V547.16A39.84,39.84,0,0,1,864.89,587H40.67A39.84,39.84,0,0,1,.85,547.16h0V40.67A39.83,39.83,0,0,1,40.67.86H864.89A39.83,39.83,0,0,1,904.71,40.67Z"/><path class="cls-4" d="M904.69,34.7H1.79A39.79,39.79,0,0,1,41.13,1.26H865.35A39.91,39.91,0,0,1,904.69,34.7Z"/><path class="cls-5" d="M865.35,14.41a26.3,26.3,0,0,1,26.26,26.26V547.16a26.29,26.29,0,0,1-26.26,26.26H41.13a26.29,26.29,0,0,1-26.26-26.26V40.67A26.3,26.3,0,0,1,41.13,14.41H865.35m0-13.55H41.13A39.83,39.83,0,0,0,1.31,40.67V547.16A39.84,39.84,0,0,0,41.13,587H865.35a39.84,39.84,0,0,0,39.82-39.82V40.67A39.83,39.83,0,0,0,865.35.86Z"/><circle class="cls-6" cx="859.7" cy="46.01" r="18.71"/><circle class="cls-7" cx="859.7" cy="46.01" r="16.72"/><polygon class="cls-8" points="870.37 41.23 869.18 52.86 858.51 57.64 849.03 50.79 850.14 39.16 860.89 34.38 870.37 41.23"/><path class="cls-9" d="M870.37,41.23l-.56,5.26a14.57,14.57,0,0,0-9.63-5.66,13.71,13.71,0,0,0-10.59,3.59l.55-5.26,10.68-4.78Z"/><circle class="cls-6" cx="46.78" cy="46.01" r="18.71"/><circle class="cls-7" cx="46.78" cy="46.01" r="16.72"/><polygon class="cls-8" points="56.97 40.12 56.97 51.9 46.78 57.72 36.67 51.9 36.67 40.12 46.78 34.3 56.97 40.12"/><path class="cls-9" d="M57,40.12v5.33a14.83,14.83,0,0,0-10.11-4.62c-6.29-.23-10.19,4.62-10.19,4.62V40.12L46.78,34.3Z"/><circle class="cls-6" cx="46.78" cy="539.03" r="18.71"/><circle class="cls-7" cx="46.78" cy="539.03" r="16.72"/><polygon class="cls-8" points="58.49 538.16 53.39 548.75 41.68 549.55 35.07 539.83 40.17 529.32 51.88 528.44 58.49 538.16"/><path class="cls-9" d="M58.49,538.16l-2.31,4.78a14.61,14.61,0,0,0-7.09-8.6,13.24,13.24,0,0,0-11.15-.24l2.31-4.78L52,528.44Z"/><circle class="cls-6" cx="857.15" cy="538.96" r="18.71"/><circle class="cls-7" cx="857.15" cy="538.96" r="16.72"/><polygon class="cls-8" points="865.83 531.07 868.3 542.54 859.54 550.42 848.39 546.76 846 535.29 854.76 527.49 865.83 531.07"/><path class="cls-9" d="M865.83,531.07l1.12,5.18A14.35,14.35,0,0,0,856,533.86c-6.13,1.11-9,6.61-9,6.61l-1.12-5.18,8.76-7.8Z"/><g class="cls-10"><polygon class="cls-11" points="406.79 161.67 303.14 116.5 475.38 41.45 579.03 86.62 406.79 161.67"/><polygon points="578.3 83.57 579.03 86.62 475.38 41.45 474.66 38.4 578.3 83.57"/><polygon points="474.66 38.4 475.38 41.45 303.14 116.5 302.42 113.45 474.66 38.4"/></g><g class="cls-10"><path class="cls-12" d="M531.42,174.8a25.76,25.76,0,0,1-1.08,6.63,10.81,10.81,0,0,0-.23-6.89c-1.58-4.24-5.88-8.1-12.76-11.22a77.24,77.24,0,0,0-17-5.1c-17-3.29-37.68-3.24-57.35-.51l-2.4.35c-18.78,2.83-36.47,8.11-48.95,15.27-13,7.46-17.9,15.54-15.28,22.58a12.36,12.36,0,0,0,.6,1.35l-.24-.45c-.21-.43-.48-1-.66-1.43a25.34,25.34,0,0,1-1-2.84,46.55,46.55,0,0,1-1.51-7.41c-.2-1.38-.46-3.27-.93-8a75.4,75.4,0,0,1-.35-11.82,53.21,53.21,0,0,0,0-6s-.18-3.15-.58-6.35a33.62,33.62,0,0,0-.9-4.57c-.26-1-.46-1.88-.66-2.83s-.45-2.28-.69-3.82-.64-4.38-1-8.14c-.21-2.55-.32-5-.35-6.33,0-1.69,0-2.39,0-3.28s.1-2.19.1-2.19c.12-1.28.12-1.28.26-2.28.06-.43.17-1,.27-1.41.2-.73.48-1.7.74-2.41a18.2,18.2,0,0,1,.76-1.69c2.24-4.36,7-8.83,14.45-13.09,13-7.45,31.65-12.87,51.31-15.6l.91-.12c19.38-2.61,39.66-2.62,56.4.62,8.61,1.66,15.46,4,20.46,6.86a24.55,24.55,0,0,1,7.17,5.81,17.57,17.57,0,0,1,1.27,1.83c.17.3.42.69.56,1,.3.64.7,1.48.94,2.13a59.79,59.79,0,0,1,2.64,12.88c.16,1.38.26,2.42.31,2.86.09,1,.31,3.39.43,6.32,0,.41,0,.83.05,1.26.08,2.52,0,4.58-.08,5.57-.08,1.48-.1,2.06-.07,3.17,0,.24,0,1.55.23,3.49a67.59,67.59,0,0,0,1.59,10.21c.64,2.72,1,4.15,1.4,7.09.13.93.31,2.37.36,2.89.25,2.36.43,4.36.5,5.34A82.14,82.14,0,0,1,531.42,174.8Z"/><path class="cls-13" d="M406.12,211.89c-17-3.28-27.13-9.28-29.75-16.32s2.26-15.12,15.27-22.58,31.68-12.87,51.35-15.61,40.34-2.78,57.35.5,27.13,9.28,29.75,16.32-2.26,15.12-15.27,22.58-31.68,12.88-51.35,15.62S423.13,215.18,406.12,211.89Z"/></g><path class="cls-14" d="M531.42,174.8a25.76,25.76,0,0,1-1.08,6.63,10.81,10.81,0,0,0-.23-6.89c-1.58-4.24-5.88-8.1-12.76-11.22a77.24,77.24,0,0,0-17-5.1c-17-3.29-37.68-3.24-57.35-.51l-2.4.35c-18.78,2.83-36.47,8.11-48.95,15.27-13,7.46-17.9,15.54-15.28,22.58a12.36,12.36,0,0,0,.6,1.35l-.24-.45c-.21-.43-.48-1-.66-1.43a25.34,25.34,0,0,1-1-2.84,46.55,46.55,0,0,1-1.51-7.41c-.2-1.38-.46-3.27-.93-8a75.4,75.4,0,0,1-.35-11.82,53.21,53.21,0,0,0,0-6s-.18-3.15-.58-6.35a33.62,33.62,0,0,0-.9-4.57c-.26-1-.46-1.88-.66-2.83,17.6-17.64,49.33-30.37,86.08-32.25,27-1.38,51.93,3.34,70.9,12.2,0,.41,0,.83.05,1.26.08,2.52,0,4.58-.08,5.57-.08,1.48-.1,2.06-.07,3.17,0,.24,0,1.55.23,3.49a67.59,67.59,0,0,0,1.59,10.21c.64,2.72,1,4.15,1.4,7.09.13.93.31,2.37.36,2.89.25,2.36.43,4.36.5,5.34A82.14,82.14,0,0,1,531.42,174.8Z"/><path class="cls-15" d="M643.38,502.64a52.86,52.86,0,0,0-2.17-8.49c-4-11.56-16.28-46.54-27-67.45-6.29-12.31-10.13-20.75-13.4-27.05a54,54,0,0,0-15.77-18.5c-4.4-3.26-9.45-6.92-17-9.53-9.84-3.4-20.32-2.92-30.57-1.1-25.53,4.55-39.28,5.62-44.25,7.4-4.82,3.58-25.15,26.78-25.83,45.72-.49,13.67,1.33,32.18,11.49,46.43s51.52,82.83,68.44,83.6c19.76.91,70.24-3.86,84.56-15.15C644.77,528.39,645.59,516.13,643.38,502.64Z"/><path class="cls-16" d="M554.1,551.22c-9,0-18.87-2.56-27.54-4.82l-3.5-.9c-15.14-3.86-80.69-51.19-91.08-65.76-9.88-13.85-11.41-31.94-11-44.67.4-11.18,8.37-22.58,23.69-33.87l.61-.46c.35-.25.75-.56,1.21-.91a93.38,93.38,0,0,1,34.2-17.23A51.62,51.62,0,0,1,493.6,381a49,49,0,0,1,16,2.67c7.34,2.54,12.26,6.19,16.22,9.13a51.42,51.42,0,0,1,14.94,17.51c1.45,2.8,3,6.08,4.89,9.88,2.24,4.61,5,10.36,8.5,17.16,10.69,20.91,23.23,56.63,26.82,67.08a49,49,0,0,1,2,8c2.18,13.27,1.24,24-10.41,33.17-4.8,3.79-10.87,5.63-18.55,5.63Z"/><path d="M493.6,383.82a46.08,46.08,0,0,1,15.12,2.51,55,55,0,0,1,15.45,8.72,48.62,48.62,0,0,1,14.1,16.54c1.44,2.76,3,6,4.86,9.82,2.25,4.62,5,10.37,8.53,17.2,10.61,20.76,23.09,56.31,26.66,66.71a48,48,0,0,1,1.93,7.56c2,12.27,1.19,22.15-9.36,30.47-4.28,3.37-9.77,5-16.79,5-8.67,0-18.32-2.51-26.82-4.72l-3.51-.91c-6.6-1.68-25.39-13.23-46.76-28.75-20.88-15.16-38.45-29.92-42.71-35.9-9.41-13.2-10.87-30.62-10.43-42.91.23-6.42,3.3-13.06,9.13-19.74a81.61,81.61,0,0,1,13.4-11.93L447,403l1.24-.93a90.6,90.6,0,0,1,33.18-16.73,48.8,48.8,0,0,1,12.16-1.55m0-5.71A54.38,54.38,0,0,0,480,379.84c-19.69,5.05-32.32,15.57-36.4,18.61C438.8,402,418.84,416,418.17,435c-.49,13.67,1.32,32.18,11.48,46.43s76.29,62.68,92.71,66.86c9.68,2.48,21.08,5.81,31.74,5.81,7.4,0,14.45-1.61,20.32-6.24,12.86-10.13,13.67-22.39,11.46-35.87a51.54,51.54,0,0,0-2.16-8.49c-4-11.57-16.29-46.55-27-67.46-6.3-12.31-10.14-20.75-13.41-27.05a53.86,53.86,0,0,0-15.77-18.49c-4.4-3.27-9.45-6.93-17-9.54a52.05,52.05,0,0,0-17-2.82Z"/><ellipse class="cls-17" cx="465.34" cy="444.63" rx="30.38" ry="38.03" transform="translate(-14.18 15.33) rotate(-1.86)"/><ellipse class="cls-17" cx="505.79" cy="497.43" rx="21.77" ry="27.24" transform="translate(-15.87 16.67) rotate(-1.86)"/><ellipse class="cls-17" cx="549.84" cy="517.45" rx="17.13" ry="21.44" transform="translate(-16.5 18.11) rotate(-1.86)"/><ellipse class="cls-18" cx="463.39" cy="444.69" rx="10.33" ry="14.21" transform="translate(-14.19 15.27) rotate(-1.86)"/><ellipse class="cls-18" cx="504.86" cy="498.55" rx="12.27" ry="8.92" transform="translate(-88.43 887.7) rotate(-77.9)"/><ellipse class="cls-18" cx="549.88" cy="518.91" rx="9.09" ry="6.61" transform="translate(-72.76 947.82) rotate(-77.9)"/><path class="cls-19" d="M560.86,488.3s-5-9.65-19.75-4.54c-2.8-6.25-8.7-23.21-35-20.79,1.19-5.87,11.1-31.35-8.94-55.86,7.65-3.58,12.39-5.95,22.39,5.93S561.87,485.3,560.86,488.3Z"/><line class="cls-20" x1="600.68" y1="399.35" x2="541.76" y2="406.13"/><line class="cls-20" x1="566.23" y1="371.04" x2="500.64" y2="378.58"/><polyline class="cls-20" points="491.29 379.65 473.88 381.65 473.88 381.65"/><line class="cls-20" x1="618.37" y1="435.27" x2="559.68" y2="442.02"/><line class="cls-20" x1="632.92" y1="470.99" x2="574.44" y2="477.71"/><line class="cls-20" x1="644.09" y1="508.07" x2="586.29" y2="514.72"/><path class="cls-21" d="M668.89,399.05c-7.86,10-22.47,16.22-32.56,13.78a6.14,6.14,0,0,1-.73-.22l-71.42-31a5.74,5.74,0,0,1-3.6-3.13v0l-8.82-18.64,10.86-1.17,4.82,2.7c.37-.54-2.6,4.14-2.19,3.61,2.58-3.29.61-1,4.61-3.62,3.77-2.5,8.24-3.64,11.68-3l62.79,12.88h0l19.7-7.14,8.34,16.53L673,382a1,1,0,0,1,.09.22C674.93,386.84,673.6,393,668.89,399.05Z"/><path class="cls-21" d="M673,382l-.66-1.3A8.35,8.35,0,0,1,673,382Z"/><path class="cls-22" d="M660,381.54c-7.86,10-22.47,16.22-32.56,13.79l-.73-.22-71.42-31a5.56,5.56,0,0,1-3.85-6.91c.73-3.2,5.52-10.65,9.52-13.31,3.77-2.5,8.24-3.64,11.68-3L655.71,358c.31.06.57.12.79.18C666.26,361,667.8,371.51,660,381.54Z"/><g class="cls-10"><ellipse class="cls-23" cx="639.44" cy="376.43" rx="14.06" ry="9.63" transform="translate(-76.25 180.55) rotate(-15.18)"/><g class="cls-10"><path d="M635.42,308.17h9l30.45,36.76-7.6,13.16h-9l-23.12-21.57-3.74,3,3.21,3a36.28,36.28,0,0,1,7.18,9.2,28.44,28.44,0,0,1,3.31,10,20.6,20.6,0,0,1-1.07,9.58,18,18,0,0,1-5.91,8,26.53,26.53,0,0,1-7.92,4.12,28.42,28.42,0,0,1-10.09,1.38l-.58,0a37.5,37.5,0,0,1-12.73-3.13A48.37,48.37,0,0,1,593,372.13a106,106,0,0,1-8.14-8.46c-2.51-2.93-4.76-5.76-6.68-8.42a74.92,74.92,0,0,1-4.66-7.17,37,37,0,0,1-2-4l21.44-5.39c.21.4,9,0,9,0s-7.07,3.15-6.34,4.2c1.26,1.82,2.65,3.66,4.14,5.5s3,3.57,4.43,5.17,2.74,2.93,3.79,3.9a8.16,8.16,0,0,0,5.18,2.26h.3a6.78,6.78,0,0,0,4.57-1.4,4.82,4.82,0,0,0,1.9-4.31,7.14,7.14,0,0,0-2.47-4.75,56.33,56.33,0,0,0-5.68-4.62c-1.89-1.36-3.65-2.53-5.24-3.48l-1.87-13.58Z"/><path class="cls-24" d="M630.09,383.62l-1,0-.56,0a36.31,36.31,0,0,1-12.34-3.05,47.1,47.1,0,0,1-13.54-9.22,107.25,107.25,0,0,1-8-8.37c-2.5-2.91-4.72-5.72-6.63-8.35a74.74,74.74,0,0,1-4.59-7.06c-.57-1-1-1.93-1.41-2.69L601.28,340c.61,1.08,1.36,2.27,2.25,3.54,1.24,1.78,2.65,3.66,4.19,5.56s3,3.62,4.47,5.22,2.8,3,3.86,4a9.22,9.22,0,0,0,5.88,2.56h.62a7.89,7.89,0,0,0,5-1.66,6,6,0,0,0,2.32-5.27,8.26,8.26,0,0,0-2.84-5.5,57.87,57.87,0,0,0-5.78-4.71c-1.74-1.25-3.37-2.34-4.86-3.25l-1.69-12.32,29.5-18.56L682,344.86l-14.77,11.73L644.16,335l-5.53,4.4,4.16,3.89a34.67,34.67,0,0,1,7,8.91,27.37,27.37,0,0,1,3.19,9.6,19.41,19.41,0,0,1-1,9.05,16.92,16.92,0,0,1-5.55,7.46,25.25,25.25,0,0,1-7.59,3.94A26.79,26.79,0,0,1,630.09,383.62Z"/><path d="M644.1,311l36.21,33.78-13,10.31-21.69-20.23-1.42-1.33-1.52,1.21-3.75,3-2.05,1.63,1.91,1.79,3.21,3a33.92,33.92,0,0,1,6.73,8.62,26.06,26.06,0,0,1,3.06,9.2,18.36,18.36,0,0,1-.94,8.53,15.84,15.84,0,0,1-5.2,7,24.3,24.3,0,0,1-7.24,3.75,25.7,25.7,0,0,1-8.34,1.28l-1,0-.55,0a35.09,35.09,0,0,1-12-3,46.34,46.34,0,0,1-13.2-9,105,105,0,0,1-8-8.28c-2.47-2.88-4.67-5.66-6.56-8.27a75,75,0,0,1-4.52-6.94c-.28-.5-.53-1-.76-1.4l17.1-4.29c.54.9,1.17,1.86,1.87,2.87,1.25,1.81,2.68,3.71,4.25,5.64s3,3.64,4.51,5.26,2.84,3,3.91,4a10.37,10.37,0,0,0,6.59,2.87h.69a9.13,9.13,0,0,0,5.73-1.9,7.08,7.08,0,0,0,2.74-6.24,9.32,9.32,0,0,0-3.19-6.25,60.09,60.09,0,0,0-5.89-4.8c-1.59-1.13-3.08-2.14-4.47-3l-1.53-11.08L644.1,311m.27-2.84-30.86,19.41,1.87,13.58c1.59.95,3.35,2.12,5.24,3.48a56.18,56.18,0,0,1,5.67,4.62,7.11,7.11,0,0,1,2.48,4.75,4.82,4.82,0,0,1-1.9,4.31,6.81,6.81,0,0,1-4.32,1.41H622a8.13,8.13,0,0,1-5.17-2.26c-1.06-1-2.32-2.29-3.79-3.9s-2.94-3.34-4.43-5.17-2.89-3.68-4.14-5.5a40.77,40.77,0,0,1-2.61-4.2l-21.45,5.39a41.19,41.19,0,0,0,2,4,75.21,75.21,0,0,0,4.67,7.17c1.92,2.66,4.17,5.49,6.68,8.42a104.1,104.1,0,0,0,8.13,8.46,48.4,48.4,0,0,0,13.87,9.45,37.39,37.39,0,0,0,12.73,3.13l.58,0,1,0a28,28,0,0,0,9.07-1.4,26.53,26.53,0,0,0,7.92-4.12,18,18,0,0,0,5.91-8,20.6,20.6,0,0,0,1.07-9.58,28.47,28.47,0,0,0-3.32-10,35.84,35.84,0,0,0-7.18-9.2l-3.2-3,3.74-3,23.12,21.57,16.55-13.16-39.4-36.76Z"/></g></g><path class="cls-25" d="M682.78,346.45c-.08,1.25-.28,2.81-.54,4.52-.54,3.47-1.35,7.55-2.06,10.85a61.18,61.18,0,0,1-2.24,8.06c-2,5.17-6,14.66-7.48,17.88-.28.62-.46.79-.53.54l0,.11-8.65-2.26,12.9-42.77,8.64,2.28,0,.11h0A2.27,2.27,0,0,1,682.78,346.45Z"/><path class="cls-26" d="M673.6,348.69c-.54,3.47-1.35,7.55-2.06,10.85a61.18,61.18,0,0,1-2.24,8.06c-2,5.17-6,14.66-7.48,17.88-.56,1.26-.72.65-.4-1.46a2,2,0,0,0,0-.24c.11-.65.23-1.4.37-2.25a70.74,70.74,0,0,1,2-8.52c2.52-8.11,7.22-22.14,9.3-27.94.67-1.87,1-2.22,1-.9S673.86,347,673.6,348.69Z"/><g class="cls-10"><path class="cls-27" d="M657.41,358.38c-.55-.55-.9-.87-.9-.87A2.1,2.1,0,0,1,657.41,358.38Z"/></g><g class="cls-10"><path class="cls-25" d="M634.5,400.13a9.65,9.65,0,0,1-1.87.21c-3.18,0-8.93-.1-14.6-.35l-6.7,8.55L603,398.27l0-.06-.08-.12a2.25,2.25,0,0,1,.47-2.48,38.39,38.39,0,0,1,12.86-10.82l.58-.31c2.5-1.32,5.28-1.9,7.09-1.48,5.65,1.3,16.07,5.33,20.17,8.18h0s.15.14.34.33l0,0c1.61,1.54,7.63,9.07,8.17,11C653,404.1,641.51,401.15,634.5,400.13Z"/><path class="cls-12" d="M644.37,391.51c-.19-.19-.32-.3-.34-.33A1.78,1.78,0,0,1,644.37,391.51Z"/><path class="cls-28" d="M650.62,406c2.21-1.76,2.82-3.64,1.5-4.56-4.1-2.85-14.52-6.88-20.17-8.18-1.82-.42-4.6.16-7.1,1.48l-.57.31a38.18,38.18,0,0,0-12.86,10.82c-1.32,1.81-.67,3.25,1.57,3.51,6.57.74,21.72,1.28,27.74,1.22a13.64,13.64,0,0,0,6-1.73,13.41,13.41,0,0,0,1.85-1.21l2.08-1.66"/><path class="cls-26" d="M624.28,395.07l.57-.31c2.5-1.32,5.28-1.9,7.1-1.48,5.65,1.3,16.07,5.33,20.17,8.18,1.32.92.71,2.8-1.5,4.56l-2.08,1.66a13.41,13.41,0,0,1-1.85,1.21,13.64,13.64,0,0,1-6,1.73c-6,.06-21.17-.48-27.74-1.22-2.24-.26-2.89-1.7-1.57-3.51A38.18,38.18,0,0,1,624.28,395.07Z"/></g><g class="cls-10"><path class="cls-25" d="M660,369.88a67.55,67.55,0,0,1,.78,11.65c-.11,2.11-1.92,4.78-4.44,6.49l-2.36,1.6-.25.16c-2.35,1.5-4.78,1.79-6,.68-3-2.85-9.93-11.1-12.53-15.48-.89-1.5,0-4.1,2.09-6.33a52.08,52.08,0,0,1,9.47-7.92,33.92,33.92,0,0,1,6.13-3.11,4.48,4.48,0,0,1,3.6-.11s.35.32.9.87h0c1.76,1.74,5.54,5.65,6.54,8.09C664.63,368.14,662.33,369.22,660,369.88Z"/><path class="cls-26" d="M653.79,369.44a33.92,33.92,0,0,1,6.13-3.11c2.29-.87,4.12-.43,4.66,1.12,1.7,4.82,3.5,16.29,3.18,22.79-.1,2.11-1.92,4.78-4.44,6.49l-2.36,1.6-.25.16c-2.35,1.49-4.78,1.79-6,.67-3-2.85-9.93-11.09-12.53-15.48-.89-1.5,0-4.09,2.09-6.32A52.08,52.08,0,0,1,653.79,369.44Z"/></g><path class="cls-29" d="M582.66,346.54s-73.56-33.72-106.45-38.9c0,0-88.26-3.21-164.11,3,9.09,6.52,86.59,37.09,97.54,39.06S553.55,351.28,582.66,346.54Z"/><path class="cls-30" d="M433.44,341.15s-30-16.92-33-17.86,56.89-3.94,56.89-3.94,29.1,15.92,31.06,17.71S433.44,341.15,433.44,341.15Z"/><path class="cls-31" d="M311.15,310.5s-4.86,125.75,5.07,157.37c9.5,7.78,74.74,36,95.45,35.61,2.07-14.45,2.92-143.54-3-153.93C400.9,343.67,342.85,318.9,311.15,310.5Z"/><path class="cls-18" d="M582.66,346.54s3.47,64.16,2,111.31C584,476,566.87,494,563.94,494.7c-6.54,6.2-161.83,15.31-171,9.36A50.43,50.43,0,0,0,409,465.39c-.77-31.27.42-78-.34-115.84C414.3,346.53,555.28,342.9,582.66,346.54Z"/><path class="cls-32" d="M429.14,276.51l-.05,47.38,41.5.47c6.94,0,12.58-10.6,12.6-23.68S477.58,277,470.64,277a8.69,8.69,0,0,0-6.41,3.28Z"/><path class="cls-33" d="M611.79,268.83S597.18,279.6,570,283c-12.08,1.52-27.88.14-43.13-1.84-49.57-6.42-71.61-32.25-71.61-32.25s3.31-34.13,4-45.58,16.28-33.74,16.28-33.74Z"/><path class="cls-33" d="M296.56,270.08S306,287,337.7,285.62,415.53,272,415.53,272l29-38.48Z"/><path class="cls-18" d="M470.08,176.85H453.92l.34,53,15.77,0S467.63,194.79,470.08,176.85Z"/><polygon class="cls-34" points="470.03 229.87 459.65 243.96 448.39 243.94 454.25 229.85 470.03 229.87"/><polygon class="cls-35" points="482.36 229.88 439.14 229.84 441.82 306 482.8 305.08 482.36 229.88"/><path class="cls-36" d="M470,229.42l1.13,9.12a1.58,1.58,0,0,0,.63,1.08l11.1,8.21a1.56,1.56,0,0,0,2.48-1l.37-2.53a1.56,1.56,0,0,0-.44-1.33l-12.61-14.8A1.56,1.56,0,0,0,470,229.42Z"/><polygon class="cls-37" points="415.53 272 419.62 289.19 441.82 306 439.14 229.84 415.53 272"/><path class="cls-33" d="M453.71,231.18s-.73,8.76-2.56,10.15-25.88,11.77-28.74,12.15-2.31-6.2-2.31-6.2Z"/><path class="cls-38" d="M453.71,231.18s-.9,10.59-3.29,10.58c-2.85,1.4-24.07,10.66-24.07,10.66"/><path class="cls-39" d="M311.58,271.23a58.47,58.47,0,0,1-6.11-.3l-1.29-.17a5.57,5.57,0,0,1-3.53-2l-.1-.12-.31-.46c-.05-.08-.09-.16-.14-.23a5.72,5.72,0,0,1-.64-1.79s-.1-.58-.14-.79c-.59-3.47-1.47-9.17-2.22-16.09-.12-1.1-.23-2.17-.34-3.27l0-.29c-.12-1.31-.24-2.66-.35-4-.49-6.06-.76-12-.81-17.73a186,186,0,0,1,.84-19.92.22.22,0,0,0,0-.08,121.37,121.37,0,0,1,3.86-21.1,5.71,5.71,0,0,1,4.41-4.1l.87-.16c7.86-1.47,16.58-2.89,25.26-4.09a601.51,601.51,0,0,1,81.12-5.85c4.22,0,8.45.06,12.57.16,6.66.17,13.32.48,19.81,1A5.64,5.64,0,0,1,449,173a5.56,5.56,0,0,1,.5,1.76c.09.8.19,1.64.27,2.5a327.89,327.89,0,0,1,1.27,38.24c-.15,5.5-.46,10.2-.89,13.63,0,.08,0,.16,0,.24a31.3,31.3,0,0,1-.56,3.35,9.53,9.53,0,0,1-.73.66c-1.33,1.06-4.33,3-10.94,6-1.07.48-2.2,1-3.39,1.48-1.91.81-4,1.68-6.71,2.72-2.92,1.14-5.95,2.27-9,3.36-26.43,9.46-67.72,20.91-95.93,23.71l-.39.05C318.48,271,314.78,271.23,311.58,271.23Z"/><path class="cls-40" d="M411.94,172.78c4.19,0,8.38.05,12.47.16,6.59.16,13.19.47,19.61.93a1.53,1.53,0,0,1,1.26.86,1.34,1.34,0,0,1,.13.45c.09.8.19,1.61.27,2.49a322.46,322.46,0,0,1,1.25,37.68c-.15,5.31-.44,9.84-.85,13.14,0,.11,0,.22-.05.33-.08.64-.16,1.19-.24,1.64a57.82,57.82,0,0,1-9.56,5.07c-1.28.57-2.33,1-3.35,1.46-1.87.8-4,1.65-6.55,2.67-2.9,1.12-5.9,2.24-8.91,3.32-26.2,9.37-67.09,20.72-94.95,23.49h-.08l-.29,0c-3.93.38-7.47.57-10.52.57a52.25,52.25,0,0,1-5.64-.27l-1.17-.15a1.4,1.4,0,0,1-.88-.51l-.13-.18a1,1,0,0,1-.08-.14,1.07,1.07,0,0,1-.13-.38l0-.12-.12-.66c-.6-3.5-1.45-9.08-2.19-15.84-.11-1-.22-2.1-.33-3.19,0-.12,0-.25,0-.4-.11-1.14-.22-2.42-.34-3.92-.48-6-.75-11.82-.8-17.43a182.19,182.19,0,0,1,.82-19.43.62.62,0,0,0,0-.13A118.05,118.05,0,0,1,304.26,184a1.59,1.59,0,0,1,1.17-1.15l.4-.07.45-.09.1,0c7.75-1.45,16.4-2.85,25-4a597.8,597.8,0,0,1,80.55-5.8h0m0-8.29a602.41,602.41,0,0,0-81.69,5.88c-11.11,1.55-19.86,3.08-25.4,4.12l-.93.17a9.87,9.87,0,0,0-7.63,7,126,126,0,0,0-4,21.82s0,0,0,0a193.15,193.15,0,0,0-.87,20.4c.06,6.33.38,12.42.83,18,.12,1.43.24,2.84.37,4.2,0,.05,0,.09,0,.13.11,1.16.23,2.29.35,3.39.73,6.73,1.59,12.4,2.27,16.42.05.24.09.48.13.71a9.68,9.68,0,0,0,1.18,3.24l0,.05.07.13c0,.08.1.16.16.24l.33.49.27.35a9.74,9.74,0,0,0,6.15,3.52l1.45.19a62.64,62.64,0,0,0,6.56.32c3.43,0,7.25-.22,11.38-.62l.33,0c27.57-2.74,68.35-13.72,96.92-23.94q4.82-1.72,9.12-3.4,3.62-1.41,6.8-2.77c1.22-.51,2.38-1,3.48-1.52,5.44-2.45,9.56-4.68,11.85-6.53a7.24,7.24,0,0,0,1.83-2l0,0a2.27,2.27,0,0,0,.2-.5,37.85,37.85,0,0,0,.74-4.22h0c.48-3.75.79-8.71.95-14.28a332.64,332.64,0,0,0-1.28-38.75c-.09-.89-.19-1.75-.29-2.6a9.64,9.64,0,0,0-.86-3,9.8,9.8,0,0,0-8.16-5.61c-6.72-.47-13.41-.79-20-.95q-6.39-.17-12.67-.16Z"/><polygon class="cls-41" points="479.61 317.19 477.67 337.25 433.38 338.03 437.43 317.93 479.61 317.19"/><polygon class="cls-37" points="417.18 307.68 405.77 323.2 433.38 338.03 437.43 317.93 417.18 307.68"/><ellipse class="cls-42" cx="429.11" cy="300.2" rx="12.57" ry="23.69"/><path class="cls-43" d="M470.31,228.55s.46,10.36,1.42,11.07l11.1,8.21"/><path class="cls-39" d="M597.84,267.83c-16.92,0-44.1-5.3-72.72-14.17-28.78-8.93-45-17.19-47.27-20.12-2.2-9-2.45-39.62-.46-58a5.44,5.44,0,0,1,5-4.84C497.21,169.55,512,169,526.31,169a443.23,443.23,0,0,1,78.8,6.69,5.52,5.52,0,0,1,4.29,3.92c8.79,29.92,4,68.14,1.52,83.19a5.41,5.41,0,0,1-4.49,4.5,56.88,56.88,0,0,1-8.59.58Z"/><path class="cls-40" d="M526.31,173.3a439.14,439.14,0,0,1,78,6.62,1.21,1.21,0,0,1,.9.86c8.54,29.07,3.82,66.51,1.4,81.26a1.08,1.08,0,0,1-.87.91,52,52,0,0,1-7.92.53c-16,0-42-5-69.43-13.36-25.95-7.91-42.4-15.56-46.59-18.84-1.73-9.36-2.12-36.65-.1-55.24a1.11,1.11,0,0,1,1-1c14.73-1.17,29.41-1.76,43.6-1.76m0-8.7c-13.41,0-28.2.51-44.29,1.79a9.8,9.8,0,0,0-8.95,8.71c-2,18.69-1.87,50.21.65,59.84s84,37.24,124.12,37.24a60.45,60.45,0,0,0,9.26-.63,9.79,9.79,0,0,0,8.12-8.1c2.41-14.66,7.46-54.14-1.65-85.12a9.86,9.86,0,0,0-7.68-7c-13.66-2.48-40.85-6.76-79.58-6.76Z"/><path class="cls-12" d="M400,242.56c-16.21,0-29.65-14.33-30-31.95a33.76,33.76,0,0,1,8.44-23.22,28.55,28.55,0,0,1,20.87-9.79h.5c16.2,0,29.64,14.33,29.95,32a33.64,33.64,0,0,1-8.44,23.21,28.54,28.54,0,0,1-20.87,9.79Z"/><path class="cls-44" d="M399.86,181.12c14.3,0,26.16,12.78,26.43,28.5a30.19,30.19,0,0,1-7.54,20.8A25,25,0,0,1,400.44,239H400c-14.3,0-26.16-12.78-26.44-28.5a30.23,30.23,0,0,1,7.54-20.8,25.11,25.11,0,0,1,18.31-8.62h.44m0-7h-.56c-18.45.33-33.12,16.71-32.77,36.59.35,19.68,15.28,35.42,33.48,35.42h.56c18.44-.32,33.11-16.7,32.76-36.59-.34-19.68-15.28-35.41-33.47-35.41Z"/><path class="cls-12" d="M526.63,241.74c-16.2,0-29.64-14.34-29.95-32a33.67,33.67,0,0,1,8.44-23.22A28.52,28.52,0,0,1,526,176.77h.49c16.21,0,29.65,14.33,30,32A33.74,33.74,0,0,1,548,231.94a28.52,28.52,0,0,1-20.87,9.79Z"/><path class="cls-44" d="M526.48,180.29c14.3,0,26.16,12.78,26.44,28.5.28,16-11.32,29.16-25.85,29.42h-.44c-14.3,0-26.16-12.78-26.43-28.49-.28-16,11.31-29.17,25.85-29.43h.43m0-7h-.56c-18.44.33-33.11,16.71-32.76,36.59.34,19.68,15.28,35.42,33.47,35.42h.56c18.45-.32,33.12-16.7,32.77-36.59-.35-19.68-15.28-35.41-33.48-35.41Z"/><ellipse class="cls-45" cx="428.18" cy="301.5" rx="5.46" ry="11.82" transform="translate(-5.23 7.57) rotate(-1.01)"/><path class="cls-46" d="M482.62,308.71c18.65,2.41,100,37.83,100,37.83s4.91,104.74,2,111.31c-1.16,7.66-1.13,17.23-18,35-5.61,3-7.7,10.51-122.34,12.9"/><path class="cls-46" d="M417,306.6s-101.64,1.89-105.85,3.9c0,0-1.91,87.22-.93,92.38"/><ellipse class="cls-47" cx="526.31" cy="195.04" rx="12.46" ry="14.81" transform="translate(-3.35 9.28) rotate(-1.01)"/><ellipse class="cls-47" cx="400.33" cy="194.44" rx="12.46" ry="14.81" transform="matrix(1, -0.02, 0.02, 1, -3.36, 7.07)"/><path class="cls-48" d="M447,386.76l100.12-4.1a7.46,7.46,0,0,1,7.76,7.57L554,449.68a7.46,7.46,0,0,1-7.15,7.34l-100.23,4.11a7.46,7.46,0,0,1-7.76-7.58l1-59.47A7.47,7.47,0,0,1,447,386.76Z"/><path class="cls-49" d="M445.48,389.68l100.34-4.32a5.79,5.79,0,0,1,6,5.89L550.94,451a5.79,5.79,0,0,1-5.54,5.7l-100.32,4.47A5.82,5.82,0,0,1,439,455.3l.91-59.91A5.81,5.81,0,0,1,445.48,389.68Z"/><path class="cls-50" d="M510.6,417.08l-61.75,2.09a3.74,3.74,0,0,1-3.82-3.64l.41-17.58a3.74,3.74,0,0,1,3.64-3.82L510.83,392a3.73,3.73,0,0,1,3.81,3.64l-.41,17.58A3.74,3.74,0,0,1,510.6,417.08Z"/><ellipse class="cls-51" cx="459.24" cy="406.43" rx="7.22" ry="9.02" transform="translate(-3.57 4.07) rotate(-0.51)"/><ellipse class="cls-52" cx="481.02" cy="405.52" rx="7.22" ry="9.02" transform="translate(-3.56 4.26) rotate(-0.51)"/><ellipse class="cls-53" cx="502.36" cy="405.25" rx="7.22" ry="9.02" transform="translate(-3.56 4.45) rotate(-0.51)"/><path class="cls-54" d="M498.43,432.55l-48.62,1.86a3.89,3.89,0,0,1-4-3.79h0a3.88,3.88,0,0,1,3.8-4l48.61-1.87a3.9,3.9,0,0,1,4,3.8h0A3.9,3.9,0,0,1,498.43,432.55Z"/><path class="cls-55" d="M471.05,457l-21.6.7a3.9,3.9,0,0,1-4-3.8h0a3.9,3.9,0,0,1,3.8-4l21.59-.7a3.89,3.89,0,0,1,4,3.79h0A3.91,3.91,0,0,1,471.05,457Z"/><path class="cls-55" d="M471.22,446.15l-21.6.7a3.89,3.89,0,0,1-4-3.8h0a3.89,3.89,0,0,1,3.8-4l21.59-.7a3.88,3.88,0,0,1,4,3.8h0A3.89,3.89,0,0,1,471.22,446.15Z"/><polygon class="cls-56" points="521.41 392.2 550.94 390.76 550 451.48 520.17 452.57 521.41 392.2"/><ellipse class="cls-57" cx="545.91" cy="397.75" rx="3.74" ry="3.23" transform="translate(139.78 937.46) rotate(-89.12)"/><path class="cls-58" d="M546,394s1.35,4.64-.32,7.47"/><path class="cls-58" d="M542.69,397.71s4.12,1,6.45.09"/><ellipse class="cls-59" cx="524.72" cy="447.35" rx="3.74" ry="3.23" transform="translate(69.32 965.1) rotate(-89.12)"/><path class="cls-58" d="M524.78,443.62s1.35,4.63-.33,7.46"/><path class="cls-58" d="M521.49,447.3s4.13,1,6.45.1"/><ellipse class="cls-60" cx="545.74" cy="446.43" rx="3.74" ry="3.23" transform="translate(90.93 985.21) rotate(-89.12)"/><path class="cls-58" d="M545.79,442.7s1.36,4.63-.32,7.46"/><path class="cls-58" d="M542.51,446.38s4.12,1,6.45.1"/><ellipse class="cls-61" cx="527.61" cy="398.33" rx="3.74" ry="3.23" transform="translate(121.19 919.73) rotate(-89.12)"/><path class="cls-58" d="M527.67,394.59s1.35,4.64-.32,7.47"/><path class="cls-58" d="M524.39,398.28s4.12,1,6.45.1"/><path class="cls-62" d="M445.85,430.62s8.44-2.52,16.28.25,8.31-4.26,11.95-4.12,4.42,5.51,9.38,5.05,3.35-2.39,5.7-2.35,2.32,2.51,4.54,2.25,3.27-7.11,4.56-6.91"/><path class="cls-15" d="M452,530.07a51.8,51.8,0,0,0-2.16-8.49c-4-11.56-16.29-46.54-27-67.45-6.29-12.32-10.13-20.76-13.4-27.06a54.06,54.06,0,0,0-15.77-18.49c-4.4-3.26-9.45-6.93-17-9.53-9.84-3.4-20.32-2.93-30.56-1.1-25.54,4.55-39.28,5.62-44.25,7.4-4.82,3.58-25.16,26.78-25.84,45.72-.48,13.66,1.33,32.18,11.49,46.43s51.52,82.83,68.45,83.6c19.76.9,70.23-3.87,84.55-15.15C453.4,555.81,454.21,543.55,452,530.07Z"/><path class="cls-16" d="M362.72,578.64c-9,0-18.87-2.56-27.54-4.81l-3.5-.91c-15.14-3.86-80.68-51.18-91.08-65.75-9.88-13.86-11.41-31.94-11-44.67.4-11.18,8.37-22.58,23.69-33.87l.61-.46c.35-.26.75-.56,1.21-.92A93.5,93.5,0,0,1,289.35,410a51.69,51.69,0,0,1,12.88-1.64,49,49,0,0,1,16,2.67c7.35,2.54,12.27,6.19,16.22,9.12a51.45,51.45,0,0,1,14.94,17.52c1.45,2.8,3.05,6.08,4.89,9.89,2.24,4.61,5,10.35,8.51,17.15,10.69,20.93,23.22,56.63,26.81,67.08a49.23,49.23,0,0,1,2.05,8c2.17,13.28,1.23,24-10.41,33.18-4.81,3.78-10.87,5.62-18.56,5.62Z"/><path d="M302.23,411.25a46,46,0,0,1,15.11,2.51c6.93,2.39,11.65,5.9,15.45,8.72A48.46,48.46,0,0,1,346.9,439c1.43,2.76,3,6,4.85,9.81,2.25,4.63,5,10.38,8.53,17.21,10.61,20.76,23.09,56.31,26.66,66.71a45.64,45.64,0,0,1,1.93,7.56c2,12.27,1.19,22.15-9.36,30.47-4.28,3.37-9.77,5-16.79,5-8.67,0-18.31-2.51-26.82-4.72l-3.51-.91c-6.59-1.68-25.38-13.24-46.75-28.75-20.89-15.16-38.45-29.93-42.72-35.9-9.41-13.2-10.86-30.62-10.42-42.91.22-6.42,3.3-13.06,9.13-19.75A82.2,82.2,0,0,1,255,430.92l.63-.46,1.23-.94a91,91,0,0,1,33.18-16.73,49.27,49.27,0,0,1,12.17-1.54m0-5.71a54.91,54.91,0,0,0-13.59,1.72c-19.68,5.05-32.31,15.58-36.4,18.62-4.82,3.58-24.77,17.57-25.45,36.52-.49,13.66,1.33,32.18,11.49,46.42s76.28,62.68,92.7,66.87c9.69,2.47,21.08,5.81,31.74,5.81,7.41,0,14.45-1.61,20.32-6.24,12.86-10.13,13.67-22.39,11.46-35.88a51.8,51.8,0,0,0-2.16-8.49c-4-11.56-16.29-46.54-27-67.45-6.3-12.31-10.14-20.75-13.41-27.05a53.89,53.89,0,0,0-15.77-18.5c-4.39-3.26-9.45-6.92-17-9.53a51.78,51.78,0,0,0-17-2.82Z"/><ellipse class="cls-17" cx="273.96" cy="472.05" rx="30.38" ry="38.03" transform="translate(-15.17 9.14) rotate(-1.86)"/><ellipse class="cls-17" cx="314.42" cy="524.86" rx="21.77" ry="27.24" transform="translate(-16.87 10.48) rotate(-1.86)"/><ellipse class="cls-17" cx="358.46" cy="544.88" rx="17.13" ry="21.44" transform="translate(-17.49 11.92) rotate(-1.86)"/><ellipse class="cls-18" cx="272.02" cy="472.12" rx="10.33" ry="14.21" transform="translate(-15.18 9.08) rotate(-1.86)"/><ellipse class="cls-18" cx="313.48" cy="525.97" rx="12.27" ry="8.92" transform="translate(-266.51 722.25) rotate(-77.9)"/><ellipse class="cls-18" cx="358.51" cy="546.34" rx="9.09" ry="6.61" transform="translate(-250.84 782.37) rotate(-77.9)"/><path class="cls-19" d="M369.48,515.72s-5-9.65-19.75-4.54c-2.8-6.25-8.7-23.21-35-20.78,1.18-5.87,11.09-31.35-8.95-55.87,7.66-3.57,12.39-5.95,22.39,5.94S370.49,512.73,369.48,515.72Z"/><line class="cls-20" x1="409.31" y1="426.78" x2="350.38" y2="433.56"/><line class="cls-20" x1="374.86" y1="398.46" x2="309.27" y2="406"/><polyline class="cls-20" points="299.92 407.08 282.51 409.08 282.5 409.08"/><line class="cls-20" x1="427" y1="462.7" x2="368.3" y2="469.44"/><line class="cls-20" x1="441.54" y1="498.42" x2="383.07" y2="505.14"/><line class="cls-20" x1="452.71" y1="535.5" x2="394.91" y2="542.15"/><ellipse class="cls-63" cx="547.4" cy="338.46" rx="3.04" ry="9.96" transform="translate(117.34 817.27) rotate(-79.8)"/><path class="cls-64" d="M427.61,58.9s-4.84,83.73,1.6,98.38l-10.7.74S414,70.41,417.73,63.2Z"/><path class="cls-65" d="M417.51,158l11.59-.72a3.22,3.22,0,0,1,3.33,2.44l4.92,20.06a3.22,3.22,0,0,1-3,4l-19.4,1a3.23,3.23,0,0,1-3.36-3.67l2.89-20.32A3.22,3.22,0,0,1,417.51,158Z"/><g class="cls-10"><path class="cls-25" d="M290.27,404.72c-.11.59-.25,1.26-.41,2-.45,2.13-2.34,2.54-4.58,1-6.94-4.75-20.5-16.45-26.73-22.68a14,14,0,0,1-3.87-7.41,20.5,20.5,0,0,1,.07-6.84,11.25,11.25,0,0,1,3.16-6.11,4.5,4.5,0,0,1,2.73-.21l5.3.85.43,4.19-.42,0c6.72,7.94,17.45,21.48,21.73,27.22C289.62,399.34,290.69,402.62,290.27,404.72Z"/><path class="cls-26" d="M261.13,372a20.59,20.59,0,0,0-.06,6.85,14,14,0,0,0,3.86,7.41c6.24,6.23,19.8,17.92,26.73,22.68,2.25,1.54,4.13,1.13,4.58-1,.16-.77.3-1.44.41-2,.42-2.1-.65-5.39-2.59-8-4.81-6.45-17.76-22.75-24-29.89-2.14-2.44-4.5-3.32-5.73-2.14A11.25,11.25,0,0,0,261.13,372Z"/></g><path class="cls-21" d="M286.73,426.43c10.9,6.61,26.75,7.25,35.33,1.41a6.9,6.9,0,0,0,.6-.47l55.9-54.17a5.78,5.78,0,0,0,2.27-4.21l0,0,1.68-20.55L372,351.2l-3.56,4.24c-.53-.38,3.9,2.95,3.33,2.6-3.58-2.17-.92-.69-5.6-1.76-4.41-1-9-.5-12,1.33l-54.21,34.21h0L279,392.1l-2,18.4-.16,1.45a2.09,2.09,0,0,0,0,.25C276.77,417.14,280.19,422.46,286.73,426.43Z"/><path class="cls-21" d="M276.85,412l.16-1.45A7.85,7.85,0,0,0,276.85,412Z"/><path class="cls-22" d="M288.92,406.89c10.9,6.62,26.75,7.26,35.33,1.41a6.8,6.8,0,0,0,.6-.46l55.9-54.18a5.58,5.58,0,0,0,1.17-7.83c-1.81-2.74-8.93-8-13.61-9.09-4.41-1-9-.5-12,1.34l-71.76,45.28c-.27.17-.49.31-.68.45C275.78,389.93,278,400.28,288.92,406.89Z"/><g class="cls-10"><ellipse class="cls-23" cx="306.31" cy="394.88" rx="14.06" ry="9.63" transform="matrix(1, -0.1, 0.1, 1, -36.33, 31.07)"/></g><path class="cls-25" d="M255.4,382.47c.58,1.1,1.4,2.45,2.34,3.91,1.89,2.95,4.3,6.34,6.28,9.07a62.18,62.18,0,0,0,5.33,6.45c3.94,3.91,11.46,11,14.1,13.3.51.45.74.53.71.27l.07.09,7-5.58L262,376.15l-7,5.59.08.09h0A2.16,2.16,0,0,0,255.4,382.47Z"/><path class="cls-26" d="M264.56,381c1.72,3.06,3.93,6.59,5.75,9.43a60.94,60.94,0,0,0,4.95,6.75c3.7,4.13,10.8,11.59,13.3,14.09,1,1,.9.35-.15-1.51l-.12-.21c-.32-.57-.7-1.23-1.13-2a72.9,72.9,0,0,0-4.93-7.26c-5.22-6.69-14.56-18.16-18.56-22.86-1.28-1.51-1.76-1.7-1.21-.5S263.71,379.47,264.56,381Z"/><g class="cls-10"><path class="cls-25" d="M284.66,396.78a67.79,67.79,0,0,0,3.77,11.05c.92,1.91,3.62,3.67,6.6,4.28l2.8.56.29.05c2.75.48,5.11-.19,5.75-1.67,1.65-3.78,4.88-14.07,5.59-19.12.24-1.72-1.55-3.79-4.37-5a52.12,52.12,0,0,0-11.8-3.66,33.82,33.82,0,0,0-6.85-.5,4.45,4.45,0,0,0-3.36,1.28s-.2.44-.5,1.15h0c-.95,2.28-2.93,7.34-2.91,10C279.69,397,282.23,397.09,284.66,396.78Z"/><path class="cls-26" d="M290.4,393.37a33.7,33.7,0,0,0-6.83-.75c-2.45,0-4,1.05-4,2.69.11,5.12,2.48,16.48,5.07,22.45.84,1.94,3.49,3.79,6.44,4.5l2.78.67.28.06c2.74.57,5.11,0,5.81-1.47,1.79-3.72,5.38-13.88,6.26-18.91.3-1.71-1.41-3.84-4.18-5.17A52.24,52.24,0,0,0,290.4,393.37Z"/></g><g class="cls-10"><path class="cls-25" d="M319.07,415.23a10,10,0,0,0,1.83-.42c3-1,8.38-3.06,13.66-5.18l9.15,5.85L348.19,403l0-.06,0-.15c.15-.73-.27-1.5-1.26-2.18a38.41,38.41,0,0,0-15.73-5.94l-.64-.1c-2.8-.41-5.61,0-7.19.95-4.9,3.11-13.39,10.37-16.31,14.41h0s-.1.18-.22.42a.05.05,0,0,1,0,0c-1,2-4.18,11.09-4.05,13.09C302.94,425.11,312.79,418.51,319.07,415.23Z"/><path class="cls-26" d="M327.07,407l-.65-.09c-2.8-.35-5.61.09-7.16,1.12-4.83,3.22-13.15,10.66-16,14.77-.92,1.34.31,2.88,3,3.75l2.54.81a12.24,12.24,0,0,0,2.15.48,13.64,13.64,0,0,0,6.19-.48c5.66-2.07,19.64-7.92,25.53-10.93,2-1,2.11-2.61.23-3.84A38.22,38.22,0,0,0,327.07,407Z"/></g><g class="cls-10"><polygon points="409.3 34.81 406.65 41.85 405.73 41.98 408.37 34.95 409.3 34.81"/><g class="cls-10"><g class="cls-66"><g class="cls-10"><path d="M408.37,35l-2.65,7c-1.44.22-3,.49-4.5.81s-3.05.69-4.45,1.11-2.71.87-3.89,1.33-2.18.88-3,1.25l2.65-7c.79-.37,1.76-.78,3-1.25s2.49-.91,3.89-1.33,2.9-.79,4.44-1.11,3.07-.6,4.51-.81"/></g></g></g><g class="cls-10"><g class="cls-67"><g class="cls-10"><path d="M392.56,39.45l-2.65,7A16.79,16.79,0,0,0,385,50a15.59,15.59,0,0,0-2.7,3.82c-.15.33-.29.65-.4,1l2.64-7c.12-.31.26-.63.41-1a15.84,15.84,0,0,1,2.69-3.83,17.15,17.15,0,0,1,4.93-3.49"/></g></g></g><polygon points="409.65 60.77 407 67.8 406.91 67.8 409.56 60.77 409.65 60.77"/><g class="cls-10"><g class="cls-68"><g class="cls-10"><path d="M441.2,72.37l-2.65,7a17.46,17.46,0,0,0-.26-9.92c-1.06-3.57-3.38-7.5-6.89-11.69a37.39,37.39,0,0,0-10.57-9.13,25,25,0,0,0-10.4-3.09q-.36,0-.72,0c-.28,0-.55,0-.82,0l2.65-7h.81l.73,0a25.12,25.12,0,0,1,10.4,3.1,37.39,37.39,0,0,1,10.57,9.13c3.51,4.19,5.83,8.12,6.89,11.69a17.55,17.55,0,0,1,.26,9.92"/><path d="M411.54,38.49l-2.65,7a26.84,26.84,0,0,0-8.79,1.53,59.86,59.86,0,0,0-10.25,4.75,8.23,8.23,0,0,0-2.08,2l-2.45,3a25.51,25.51,0,0,1-2.26,2.43,2.55,2.55,0,0,1-1.66.77l2.65-7a2.54,2.54,0,0,0,1.65-.77A25.48,25.48,0,0,0,388,49.72l2.45-3a7.88,7.88,0,0,1,2.08-2A59.86,59.86,0,0,1,402.75,40a26.85,26.85,0,0,1,8.79-1.54"/><path d="M384.05,52.92l-2.65,7h-.06l2.65-7h.06"/></g></g></g><g class="cls-10"><g class="cls-69"><g class="cls-10"><path class="cls-44" d="M417.13,68.09l-2.65,7a3.92,3.92,0,0,0-.05-2.46,9.4,9.4,0,0,0-1.91-3.11A10.87,10.87,0,0,0,409.65,67a6.29,6.29,0,0,0-2.75-.89h-.32l2.65-7h.32a6.44,6.44,0,0,1,2.75.9,11,11,0,0,1,2.87,2.56,9.47,9.47,0,0,1,1.9,3.12,3.93,3.93,0,0,1,.06,2.46"/></g></g></g><g class="cls-10"><g class="cls-70"><g class="cls-10"><path d="M415.23,67.42l-2.65,7a2.57,2.57,0,0,0-.06-1.54A7.9,7.9,0,0,0,411,70.44a9.21,9.21,0,0,0-2.25-2.06A4.37,4.37,0,0,0,407,67.8l2.65-7a4.22,4.22,0,0,1,1.72.58,9.19,9.19,0,0,1,2.25,2.06,8,8,0,0,1,1.55,2.46,2.6,2.6,0,0,1,.06,1.55"/></g></g></g><g class="cls-10"><g class="cls-71"><g class="cls-10"><path d="M415.21,67.46l-2.65,7,0,0,2.65-7,0,0"/></g></g></g><g class="cls-10"><g class="cls-72"><g class="cls-10"><path class="cls-44" d="M417.1,68.17l-2.64,7a.24.24,0,0,1,0-.08l2.65-7,0,.08"/></g></g></g><g class="cls-10"><g class="cls-73"><g class="cls-10"><path d="M409.56,60.77l-2.65,7h-.1l2.65-7h.1"/><path d="M409.46,60.77l-2.65,7a3.43,3.43,0,0,0-1.44.34c-.69.31-1.37.66-2,1a22.14,22.14,0,0,0-1.92,1.25,2.36,2.36,0,0,0-.87,1.07l2.65-7a2.31,2.31,0,0,1,.87-1.07A22.14,22.14,0,0,1,406,62.15a21.55,21.55,0,0,1,2-1,3.4,3.4,0,0,1,1.44-.34"/></g></g></g><path d="M442.85,62.21A19.08,19.08,0,0,1,443.12,73a21.71,21.71,0,0,1-5.5,9.14,46.44,46.44,0,0,1-10,7.61,49.43,49.43,0,0,1-14.45,5.75,32.72,32.72,0,0,1-7.75.71,34.38,34.38,0,0,1-6.8-.9,43,43,0,0,1-14.71-7,82.64,82.64,0,0,1-15-14.36c-5.6-6.68-9.52-12.77-11.66-18.11s-2.9-10.33-2.21-14.67a22.14,22.14,0,0,1,5.92-11.76,53.39,53.39,0,0,1,12.29-9.46,68.54,68.54,0,0,1,9.35-4.61,59.72,59.72,0,0,1,7.88-2.49,38.91,38.91,0,0,1,6.4-1c1.79-.11,3.37-.18,4.72-.21l.88,0,6.88,23.22-.93.14c-1.44.21-2.95.48-4.51.81s-3,.69-4.44,1.11-2.71.87-3.89,1.33-2.18.88-3,1.25a17.15,17.15,0,0,0-4.93,3.49,15.84,15.84,0,0,0-2.69,3.83,8.85,8.85,0,0,0-.92,3.16,4.5,4.5,0,0,0,0,1.06,21.83,21.83,0,0,0,2.25-2.39l2.44-3a9.76,9.76,0,0,1,2.51-2.32,61.53,61.53,0,0,1,10.56-4.88,28.74,28.74,0,0,1,10.4-1.64q.38,0,.75,0a27.39,27.39,0,0,1,11.39,3.37,39.55,39.55,0,0,1,11.23,9.67C439.28,54.26,441.72,58.41,442.85,62.21ZM441.2,72.37a17.55,17.55,0,0,0-.26-9.92c-1.06-3.57-3.38-7.5-6.89-11.69a37.39,37.39,0,0,0-10.57-9.13,25.12,25.12,0,0,0-10.4-3.1l-.73,0a26.81,26.81,0,0,0-9.6,1.53,59.86,59.86,0,0,0-10.25,4.75,7.88,7.88,0,0,0-2.08,2l-2.45,3a25.48,25.48,0,0,1-2.27,2.43,2.52,2.52,0,0,1-1.71.77,1.94,1.94,0,0,1-1.36-.68,3.59,3.59,0,0,1-.59-2.61A10.18,10.18,0,0,1,383.1,46,16.32,16.32,0,0,1,386,41.77a18.52,18.52,0,0,1,5.4-3.85c.84-.39,1.85-.82,3.1-1.31s2.59-.94,4-1.37,3-.83,4.61-1.16c1.26-.26,2.5-.5,3.7-.69l-5.93-20q-1.68.06-3.78.18a36,36,0,0,0-6,.94,55.77,55.77,0,0,0-7.61,2.41,66.72,66.72,0,0,0-9.11,4.49,51.65,51.65,0,0,0-11.92,9.17,20.71,20.71,0,0,0-5.56,11c-.64,4.07.07,8.73,2.11,13.84S364.93,66.51,370.4,73A80.23,80.23,0,0,0,385,87a40.42,40.42,0,0,0,13.87,6.63,31.05,31.05,0,0,0,6.32.84,30,30,0,0,0,7.24-.67,47.48,47.48,0,0,0,13.91-5.54,45.3,45.3,0,0,0,9.69-7.34,20.38,20.38,0,0,0,5.15-8.55"/><path d="M415.17,62.51a9.47,9.47,0,0,1,1.9,3.12,3.93,3.93,0,0,1,.06,2.46A3.86,3.86,0,0,1,415.66,70a22,22,0,0,1-2,1.31,24.28,24.28,0,0,1-2.24,1.16,5.37,5.37,0,0,1-2.36.48h-.19A6.29,6.29,0,0,1,406.1,72a11,11,0,0,1-2.87-2.57,9.43,9.43,0,0,1-1.91-3.12,4,4,0,0,1-.05-2.46A3.87,3.87,0,0,1,402.68,62a24.39,24.39,0,0,1,4.26-2.47,5.48,5.48,0,0,1,2.45-.51h.16a6.44,6.44,0,0,1,2.75.9A11,11,0,0,1,415.17,62.51Zm.06,4.91a2.6,2.6,0,0,0-.06-1.55,8,8,0,0,0-1.55-2.46,9.19,9.19,0,0,0-2.25-2.06,4.22,4.22,0,0,0-1.72-.58h-.09a3.27,3.27,0,0,0-1.54.34,21.55,21.55,0,0,0-2,1,22.14,22.14,0,0,0-1.92,1.25,2.25,2.25,0,0,0-.89,1.13,2.42,2.42,0,0,0,.06,1.54,7.52,7.52,0,0,0,1.54,2.46A8.77,8.77,0,0,0,407,70.59a3.9,3.9,0,0,0,1.72.58h.12a3.19,3.19,0,0,0,1.46-.32,22.86,22.86,0,0,0,2.08-1.06c.67-.39,1.3-.81,1.88-1.22a2.52,2.52,0,0,0,.94-1.16"/><path class="cls-24" d="M440.94,62.45a17.55,17.55,0,0,1,.26,9.92,20.38,20.38,0,0,1-5.15,8.55,45.3,45.3,0,0,1-9.69,7.34,47.48,47.48,0,0,1-13.91,5.54,30,30,0,0,1-7.24.67,31.05,31.05,0,0,1-6.32-.84A40.42,40.42,0,0,1,385,87,80.23,80.23,0,0,1,370.4,73c-5.47-6.51-9.28-12.43-11.35-17.59s-2.75-9.78-2.11-13.85a20.71,20.71,0,0,1,5.56-11,51.65,51.65,0,0,1,11.92-9.17,66.72,66.72,0,0,1,9.11-4.49,55.77,55.77,0,0,1,7.61-2.41,36,36,0,0,1,6-.94q2.1-.12,3.78-.18l5.93,20c-1.2.19-2.44.43-3.7.69-1.6.33-3.15.72-4.61,1.16s-2.81.89-4,1.37-2.26.92-3.1,1.31a18.52,18.52,0,0,0-5.4,3.85A16.32,16.32,0,0,0,383.1,46,10.18,10.18,0,0,0,382,49.63a3.59,3.59,0,0,0,.59,2.61,1.88,1.88,0,0,0,1.2.67,2.57,2.57,0,0,0,1.87-.76A25.48,25.48,0,0,0,388,49.72l2.45-3a7.88,7.88,0,0,1,2.08-2A59.86,59.86,0,0,1,402.75,40a26.81,26.81,0,0,1,9.6-1.53l.73,0a25.12,25.12,0,0,1,10.4,3.1,37.39,37.39,0,0,1,10.57,9.13C437.56,55,439.88,58.88,440.94,62.45Zm-23.81,5.64a3.93,3.93,0,0,0-.06-2.46,9.47,9.47,0,0,0-1.9-3.12A11,11,0,0,0,412.3,60a6.44,6.44,0,0,0-2.75-.9h-.16a5.48,5.48,0,0,0-2.45.51A24.39,24.39,0,0,0,402.68,62a3.87,3.87,0,0,0-1.41,1.82,4,4,0,0,0,.05,2.46,9.43,9.43,0,0,0,1.91,3.12A11,11,0,0,0,406.1,72a6.29,6.29,0,0,0,2.75.89H409a5.37,5.37,0,0,0,2.36-.48,24.28,24.28,0,0,0,2.24-1.16,22,22,0,0,0,2-1.31,3.86,3.86,0,0,0,1.47-1.86"/><g class="cls-10"><g class="cls-74"><g class="cls-10"><path d="M442.64,74.42l-2.65,7a22.3,22.3,0,0,1-5,7.7,46.52,46.52,0,0,1-10,7.61,49.32,49.32,0,0,1-14.45,5.75,31.78,31.78,0,0,1-6.72.72l2.65-7a33.22,33.22,0,0,0,6.72-.72,49.43,49.43,0,0,0,14.45-5.75,46.44,46.44,0,0,0,10-7.61,22.28,22.28,0,0,0,5-7.7"/><path d="M406.42,96.2l-2.65,7h-1a33.65,33.65,0,0,1-6.8-.9,43,43,0,0,1-14.71-7A83,83,0,0,1,366.2,81c-5.59-6.67-9.52-12.77-11.66-18.11s-2.9-10.33-2.21-14.67a21.06,21.06,0,0,1,1.1-4.14l2.65-7a21.06,21.06,0,0,0-1.1,4.14c-.69,4.34.06,9.28,2.21,14.67s6.06,11.43,11.66,18.11a82.64,82.64,0,0,0,15,14.36,43,43,0,0,0,14.71,7,34.38,34.38,0,0,0,6.8.9h1"/></g></g></g></g><g class="cls-10"><g class="cls-10"><g class="cls-75"><g class="cls-10"><path d="M304.54,209.25l-2.65,7a5,5,0,0,0-1.13-3.49,5.55,5.55,0,0,0-3.23-2,6.6,6.6,0,0,0-1.21-.16h-.17l2.65-7H299a5.83,5.83,0,0,1,1.21.16,5.55,5.55,0,0,1,3.23,2,5,5,0,0,1,1.13,3.49"/><path d="M298.8,203.6l-2.65,7a4.62,4.62,0,0,0-2.45.68,4.1,4.1,0,0,0-1.84,2.13l2.65-7a4.16,4.16,0,0,1,1.84-2.14,4.7,4.7,0,0,1,2.45-.67"/></g></g></g><g class="cls-10"><g class="cls-76"><g class="cls-10"><path d="M301.35,219.66l-2.65,7,.18-.48c.71-1.92,1.32-3.79,1.82-5.55s.91-3.23,1.19-4.38l2.65-7c-.28,1.15-.68,2.62-1.19,4.37s-1.11,3.64-1.82,5.55l-.18.49"/></g></g></g><polygon points="292.4 218.28 289.75 225.31 272.92 221.41 275.57 214.38 292.4 218.28"/><polygon points="275.57 214.38 272.92 221.41 266.44 213.06 269.09 206.03 275.57 214.38"/><g class="cls-10"><g class="cls-77"><g class="cls-10"><path d="M328.53,228l-2.64,7c-.64,1.68-1.3,3.29-2,4.8a55.25,55.25,0,0,1-3.69,6.94,26.54,26.54,0,0,1-3.12,4.17l2.64-7a25.86,25.86,0,0,0,3.13-4.17,54.7,54.7,0,0,0,3.68-6.94c.69-1.51,1.35-3.12,2-4.81"/></g></g></g><polygon points="319.19 244.42 316.55 251.45 293.68 236.7 296.33 229.66 319.19 244.42"/><polygon points="319.75 243.87 317.1 250.9 316.55 251.45 319.19 244.42 319.75 243.87"/><path d="M331.88,198.61a32.6,32.6,0,0,1,.6,15.13A70.07,70.07,0,0,1,330,223.8a86.25,86.25,0,0,1-3.44,9,54.7,54.7,0,0,1-3.68,6.94,25.86,25.86,0,0,1-3.13,4.17l-.55.55-22.86-14.75.49-.67a23.33,23.33,0,0,0,2.45-4.33c.8-1.75,1.56-3.61,2.26-5.5s1.32-3.78,1.82-5.55.91-3.22,1.19-4.37a5,5,0,0,0-1.13-3.49,5.55,5.55,0,0,0-3.23-2,5.83,5.83,0,0,0-1.21-.16,4.71,4.71,0,0,0-2.62.67,4.17,4.17,0,0,0-2.08,3l-1.87,11-16.83-3.9L269.09,206l-3.51,20.51-27.48-6.38,9.33-54.67L267,170l12,12.65a28.69,28.69,0,0,1,11.75-6.48,30,30,0,0,1,9.05-1.12,35.62,35.62,0,0,1,6.9.91,39.73,39.73,0,0,1,9.89,3.91,33.52,33.52,0,0,1,9.2,7.46A31.17,31.17,0,0,1,331.88,198.61Zm-1.36,14.68a31.1,31.1,0,0,0-.55-14.43,29.24,29.24,0,0,0-5.72-10.59,31.43,31.43,0,0,0-8.56-7,37.18,37.18,0,0,0-9.28-3.66,32.45,32.45,0,0,0-6.44-.85,27.32,27.32,0,0,0-8.4,1,26.78,26.78,0,0,0-11.76,6.76l-.72.72L266,171.53l-16.9-3.92L240.34,219l23.57,5.46,3.91-22.92,8.86,11.41,14,3.25,1.59-9.3a5.62,5.62,0,0,1,2.79-4.05,6.71,6.71,0,0,1,3.68-.93,8.43,8.43,0,0,1,1.68.22,7.86,7.86,0,0,1,4.54,2.81,6.73,6.73,0,0,1,1.51,4.7c-.3,1.3-.71,2.81-1.23,4.62s-1.14,3.69-1.85,5.65-1.49,3.8-2.3,5.59a29.13,29.13,0,0,1-2.13,3.91l19.7,12.7a31.69,31.69,0,0,0,2.41-3.35A53.3,53.3,0,0,0,324.7,232a88,88,0,0,0,3.38-8.81,69,69,0,0,0,2.44-9.86"/><path class="cls-24" d="M249.11,167.61l16.9,3.92,13.08,13.79.72-.72a26.78,26.78,0,0,1,11.76-6.76,27.32,27.32,0,0,1,8.4-1,32.45,32.45,0,0,1,6.44.85,37.18,37.18,0,0,1,9.28,3.66,31.43,31.43,0,0,1,8.56,7A29.24,29.24,0,0,1,330,198.86a31.1,31.1,0,0,1,.55,14.43,69,69,0,0,1-2.44,9.86A85.64,85.64,0,0,1,324.7,232a53.3,53.3,0,0,1-3.59,6.77,31.69,31.69,0,0,1-2.41,3.35L299,229.38a29.13,29.13,0,0,0,2.13-3.91c.81-1.79,1.59-3.67,2.3-5.59s1.33-3.85,1.85-5.65.93-3.32,1.21-4.5a6.75,6.75,0,0,0-1.49-4.82,7.86,7.86,0,0,0-4.54-2.81,8.43,8.43,0,0,0-1.68-.22,6.71,6.71,0,0,0-3.68.93,5.62,5.62,0,0,0-2.79,4.05l-1.59,9.3-14-3.25-8.86-11.41-3.91,22.92L240.34,219Z"/><polygon points="265.58 226.54 262.93 233.57 235.45 227.2 238.1 220.16 265.58 226.54"/><polygon points="238.1 220.16 235.45 227.2 244.78 172.52 247.43 165.49 238.1 220.16"/></g><g class="cls-10"><polygon points="272.54 322.83 269.89 329.86 269.49 326.01 272.13 318.98 272.54 322.83"/><polygon class="cls-78" points="330.79 338.31 328.14 345.34 320.31 354.6 322.95 347.57 330.79 338.31"/><g class="cls-10"><g class="cls-79"><g class="cls-10"><path d="M280.27,338l-2.65,7a29,29,0,0,1-5.46-7.17,22.52,22.52,0,0,1-2.27-8l2.65-7a22.26,22.26,0,0,0,2.27,8,28.61,28.61,0,0,0,5.46,7.17"/></g></g></g><polygon points="289.11 346.62 286.46 353.65 277.62 345 280.27 337.96 289.11 346.62"/><g class="cls-10"><g class="cls-80"><g class="cls-10"><path class="cls-81" d="M305.3,363.48l-2.65,7a24.23,24.23,0,0,1-1,2.32,30.87,30.87,0,0,1-4.47,6.41l2.65-7a30.56,30.56,0,0,0,4.47-6.4,23.36,23.36,0,0,0,1-2.33"/></g></g></g><g class="cls-10"><g class="cls-82"><g class="cls-10"><path d="M318.56,373.77l-2.65,7a43.34,43.34,0,0,1-6.13-6.95,32.83,32.83,0,0,1-3.85-7.57l2.64-7a33.33,33.33,0,0,0,3.86,7.58,42.87,42.87,0,0,0,6.13,6.94"/></g></g></g><polygon points="346.03 379.21 343.38 386.24 321.06 385.61 323.7 378.58 346.03 379.21"/><polygon points="323.7 378.58 321.06 385.61 315.91 380.81 318.56 373.77 323.7 378.58"/><g class="cls-10"><g class="cls-83"><g class="cls-10"><path d="M307.19,364.19l-2.64,7q-.49,1.29-1.08,2.46a32.19,32.19,0,0,1-4.69,6.74l2.65-7a31.75,31.75,0,0,0,4.68-6.74,23.75,23.75,0,0,0,1.08-2.46"/></g></g></g><g class="cls-10"><g class="cls-84"><g class="cls-10"><path d="M280.89,359.59l-2.65,7a19.37,19.37,0,0,0-3.46,5.64l2.65-7a19.24,19.24,0,0,1,3.46-5.64"/></g></g></g><polygon points="301.43 373.39 298.78 380.42 294.58 384.86 297.22 377.83 301.43 373.39"/><g class="cls-10"><g class="cls-85"><g class="cls-10"><path d="M274.63,373.24l-2.65,7a19.71,19.71,0,0,1,.62-7.89c.08-.27.18-.55.28-.82l2.65-7c-.1.27-.2.54-.28.82a19.68,19.68,0,0,0-.62,7.88"/></g></g></g><polygon class="cls-86" points="276.83 375.54 274.19 382.57 273.95 380.33 276.6 373.3 276.83 375.54"/><path class="cls-87" d="M334.85,322.47l.22,2.13a18.08,18.08,0,0,1-.56,7.3,18.78,18.78,0,0,1-3.72,6.41L323,347.57l13.5,13.58a30.19,30.19,0,0,1,5,6.68,19.92,19.92,0,0,1,2.15,7.37l.24,2.24-19.46-.56-4.49-4.19a40.9,40.9,0,0,1-5.83-6.6,31.43,31.43,0,0,1-3.72-7.37l-2.6-6.84-1.16,6.83a27,27,0,0,1-2.33,7.1,30.56,30.56,0,0,1-4.47,6.4l-3.66,3.87-19.33-.54-.23-2.24a18.14,18.14,0,0,1,.57-7.31,18.36,18.36,0,0,1,3.72-6.4l10.75-12.91-10-9.76a27,27,0,0,1-5.08-6.66,20.86,20.86,0,0,1-2.09-7.38l-.23-2.13,19.62.56.41.53c1.51,2.07,2.88,4.07,4.08,5.92s2.39,3.85,3.55,5.89l4.93,9.44,3-9.19c.74-2,1.53-3.94,2.34-5.75s1.77-3.7,2.86-5.7l.31-.53Z"/><path d="M343.27,367.27a21.74,21.74,0,0,1,2.34,8l.42,3.95-22.33-.63-5.14-4.81a42.87,42.87,0,0,1-6.13-6.94,33.33,33.33,0,0,1-3.86-7.58,28.36,28.36,0,0,1-2.46,7.4,31.75,31.75,0,0,1-4.68,6.74l-4.21,4.44L275,377.2l-.41-4a19.68,19.68,0,0,1,.62-7.88,20.09,20.09,0,0,1,4-6.9l9.87-11.84L280.27,338a28.61,28.61,0,0,1-5.46-7.17,22.26,22.26,0,0,1-2.27-8l-.41-3.85,22.7.64,1.1,1.41c1.55,2.12,2.95,4.15,4.16,6s2.43,3.91,3.61,6l2.66,5.07,1.59-4.92c.77-2.06,1.57-4,2.39-5.86s1.8-3.77,2.92-5.82l.82-1.37,22.56.64.4,3.85a19.69,19.69,0,0,1-.61,7.88,20.2,20.2,0,0,1-4,6.9l-6.94,8.21,12.4,12.48A32,32,0,0,1,343.27,367.27Zm.61,10.17-.24-2.24a19.92,19.92,0,0,0-2.15-7.37,30.19,30.19,0,0,0-5-6.68L323,347.57l7.84-9.26a18.78,18.78,0,0,0,3.72-6.41,18.08,18.08,0,0,0,.56-7.3l-.22-2.13-19.48-.55-.31.53c-1.09,2-2.06,3.92-2.86,5.7s-1.6,3.74-2.34,5.75l-3,9.19-4.93-9.44c-1.16-2-2.36-4-3.55-5.89s-2.57-3.85-4.08-5.92l-.41-.53-19.62-.56.23,2.13a20.86,20.86,0,0,0,2.09,7.38,27,27,0,0,0,5.08,6.66l10,9.76-10.75,12.91a18.36,18.36,0,0,0-3.72,6.4,18.14,18.14,0,0,0-.57,7.31l.23,2.24,19.33.54,3.66-3.87a30.56,30.56,0,0,0,4.47-6.4,27,27,0,0,0,2.33-7.1l1.16-6.83,2.6,6.84a31.43,31.43,0,0,0,3.72,7.37,40.9,40.9,0,0,0,5.83,6.6l4.49,4.19,19.46.56"/><polygon points="297.22 377.83 294.58 384.86 272.4 384.23 275.04 377.2 297.22 377.83"/><polygon points="275.04 377.2 272.4 384.23 271.98 380.28 274.63 373.24 275.04 377.2"/></g><g class="cls-10"><g class="cls-10"><g class="cls-88"><g class="cls-10"><path d="M616.5,82.64l-2.65,7a1.77,1.77,0,0,0,.11-1,2.55,2.55,0,0,0-.66-1.22c-.47-.53-1-1.07-1.51-1.61s-1.07-1.06-1.62-1.56a3.18,3.18,0,0,0-1.28-.76,2.67,2.67,0,0,0-.64-.09h-.1l2.64-7h.1a2.2,2.2,0,0,1,.64.09,3.21,3.21,0,0,1,1.29.76c.54.49,1.08,1,1.62,1.56s1,1.08,1.51,1.61a2.55,2.55,0,0,1,.66,1.22,1.88,1.88,0,0,1-.11,1"/><path d="M610.79,76.45l-2.64,7a3.75,3.75,0,0,0-.79.09,7.14,7.14,0,0,0-2.3,1.18,5.89,5.89,0,0,0-1.77,1.72,3.23,3.23,0,0,0-.15.34l2.65-7a3.23,3.23,0,0,1,.15-.34,5.89,5.89,0,0,1,1.77-1.72,6.76,6.76,0,0,1,2.3-1.18,3.74,3.74,0,0,1,.78-.09"/></g></g></g><g class="cls-10"><g class="cls-89"><g class="cls-10"><path d="M641.87,93.6l-2.65,7c-.13.35-.27.69-.42,1-1.38,3.06-4.15,6.09-8.21,9a20.91,20.91,0,0,1-6.91,3.19,24.2,24.2,0,0,1-6.17.77l2.65-7a24.65,24.65,0,0,0,6.17-.77,21.06,21.06,0,0,0,6.9-3.19c4.07-2.9,6.84-5.93,8.21-9,.16-.34.3-.69.43-1"/><path d="M620.16,107.58l-2.65,7h-.92l2.65-7h.92"/></g></g></g><g class="cls-10"><g class="cls-90"><g class="cls-10"><path d="M593.24,100.65l-2.65,7a2,2,0,0,0,.11-1.16,4,4,0,0,0-.8-1.69,21.94,21.94,0,0,0-1.79-2,22.23,22.23,0,0,0-2.05-1.85,5.11,5.11,0,0,0-1.82-1,3.19,3.19,0,0,0-.82-.13h-.11l2.64-7h.12a3.69,3.69,0,0,1,.82.12,5.4,5.4,0,0,1,1.82,1,22.23,22.23,0,0,1,2,1.85,21.94,21.94,0,0,1,1.79,2,4.07,4.07,0,0,1,.8,1.69,2,2,0,0,1-.11,1.16"/><path d="M586,92.81l-2.64,7a4,4,0,0,0-1,.13,8.47,8.47,0,0,0-2.73,1.39,7.11,7.11,0,0,0-2.09,2,3.21,3.21,0,0,0-.22.46l2.65-7a2.41,2.41,0,0,1,.22-.46,7.11,7.11,0,0,1,2.09-2A8.33,8.33,0,0,1,585,92.94a4,4,0,0,1,1-.13"/></g></g></g><path d="M594.16,97a5.91,5.91,0,0,1,1.15,2.44,3.79,3.79,0,0,1-.5,2.61,8.51,8.51,0,0,1-2.52,2.51,10,10,0,0,1-3.34,1.68,7.12,7.12,0,0,1-1.69.19,5.69,5.69,0,0,1-1.42-.23,7.78,7.78,0,0,1-2.63-1.39,22.88,22.88,0,0,1-2.24-2,22.42,22.42,0,0,1-2-2.24,5.67,5.67,0,0,1-1.15-2.44,3.79,3.79,0,0,1,.49-2.61A8.62,8.62,0,0,1,580.86,93a10,10,0,0,1,3.35-1.68,6.06,6.06,0,0,1,1.67-.18,5.69,5.69,0,0,1,1.43.22,7.85,7.85,0,0,1,2.63,1.39A26.66,26.66,0,0,1,594.16,97ZM593,101.11a2.33,2.33,0,0,0,.33-1.62,4.07,4.07,0,0,0-.8-1.69,21.94,21.94,0,0,0-1.79-2,22.23,22.23,0,0,0-2-1.85,5.4,5.4,0,0,0-1.82-1,3.69,3.69,0,0,0-.82-.12,4.11,4.11,0,0,0-1.12.13,8.33,8.33,0,0,0-2.72,1.39,7.11,7.11,0,0,0-2.09,2A2.27,2.27,0,0,0,579.8,98a4,4,0,0,0,.81,1.69,20.73,20.73,0,0,0,1.79,2,24.09,24.09,0,0,0,2,1.86,5.43,5.43,0,0,0,1.82,1,3.26,3.26,0,0,0,.82.13,4.11,4.11,0,0,0,1.12-.13,8.27,8.27,0,0,0,2.73-1.39,7.25,7.25,0,0,0,2.09-2"/><path class="cls-24" d="M640.62,85.45a13.4,13.4,0,0,1-1,8.39c-1.28,2.82-3.87,5.65-7.72,8.39a19.17,19.17,0,0,1-6.32,2.93,23.3,23.3,0,0,1-6.46.69l-1.1-.06-1-.07.06.88a18.51,18.51,0,0,1-1.42,8.71,16.92,16.92,0,0,1-5.84,7A31.26,31.26,0,0,1,597.32,128a27,27,0,0,1-5.41.4,24.09,24.09,0,0,1-5.88-.88,33.38,33.38,0,0,1-10.51-5.17,78,78,0,0,1-9.94-8.57,74.2,74.2,0,0,1-8.29-9.91,24,24,0,0,1-4.1-9.66,15.45,15.45,0,0,1,1.53-9.41c1.54-3.12,4.51-6.27,8.85-9.36a20.83,20.83,0,0,1,9-3.7,28.06,28.06,0,0,1,5.2-.33,31.24,31.24,0,0,1,5,.55l1,.19.09-.85a15.47,15.47,0,0,1,1.93-6,16.39,16.39,0,0,1,4.79-5,27.51,27.51,0,0,1,11-5.05,22.85,22.85,0,0,1,4.55-.35,20,20,0,0,1,5.24.85,29.91,29.91,0,0,1,9.11,4.74,79,79,0,0,1,8.87,7.79,72.8,72.8,0,0,1,7.37,8.68A23.05,23.05,0,0,1,640.62,85.45ZM594.81,102a3.79,3.79,0,0,0,.5-2.61A5.91,5.91,0,0,0,594.16,97a26.66,26.66,0,0,0-4.22-4.28,7.85,7.85,0,0,0-2.63-1.39,5.69,5.69,0,0,0-1.43-.22,6.06,6.06,0,0,0-1.67.18A10,10,0,0,0,580.86,93a8.62,8.62,0,0,0-2.52,2.51,3.79,3.79,0,0,0-.49,2.61,5.67,5.67,0,0,0,1.15,2.44,22.42,22.42,0,0,0,2,2.24,22.88,22.88,0,0,0,2.24,2,7.78,7.78,0,0,0,2.63,1.39,5.69,5.69,0,0,0,1.42.23,7.12,7.12,0,0,0,1.69-.19,10,10,0,0,0,3.34-1.68,8.51,8.51,0,0,0,2.52-2.51m23.35-18.18a3.34,3.34,0,0,0,.4-2.21,4.24,4.24,0,0,0-1.1-2.11c-.5-.56-1-1.13-1.59-1.69s-1.13-1.12-1.69-1.64a5.57,5.57,0,0,0-2.25-1.29,4.85,4.85,0,0,0-1.21-.18,5.7,5.7,0,0,0-1.41.13,8.4,8.4,0,0,0-3,1.48,7.1,7.1,0,0,0-2.22,2.23,3.37,3.37,0,0,0-.41,2.2,4.34,4.34,0,0,0,1.11,2.11c.48.54,1,1.12,1.59,1.7s1.14,1.13,1.69,1.63a5.67,5.67,0,0,0,2.24,1.29,4.92,4.92,0,0,0,1.21.18,5.35,5.35,0,0,0,1.42-.14,8.19,8.19,0,0,0,3-1.47,7.1,7.1,0,0,0,2.22-2.22"/><path d="M642.56,85.35a14.75,14.75,0,0,1-1.12,9.28c-1.37,3.06-4.14,6.09-8.21,9a21.06,21.06,0,0,1-6.9,3.19,25.18,25.18,0,0,1-7.09.76,23,23,0,0,1-1.75,8.51,18.22,18.22,0,0,1-6.35,7.58,32.92,32.92,0,0,1-13.2,6,29.16,29.16,0,0,1-5.85.44,26.84,26.84,0,0,1-6.45-1,36,36,0,0,1-11.27-5.53,80.31,80.31,0,0,1-10.23-8.82,76.09,76.09,0,0,1-8.51-10.19,25.73,25.73,0,0,1-4.4-10.37,16.77,16.77,0,0,1,1.66-10.27c1.64-3.34,4.77-6.67,9.31-9.92A22.9,22.9,0,0,1,572,70a30.81,30.81,0,0,1,5.62-.35,33.71,33.71,0,0,1,4.33.41,16.8,16.8,0,0,1,2-5.71,17.9,17.9,0,0,1,5.21-5.46,29.39,29.39,0,0,1,11.77-5.36,24.3,24.3,0,0,1,5-.38,22.57,22.57,0,0,1,5.86,1,32.27,32.27,0,0,1,9.85,5.12,80.61,80.61,0,0,1,9.12,8,75.28,75.28,0,0,1,7.59,8.94A24.68,24.68,0,0,1,642.56,85.35Zm-3,8.49a13.4,13.4,0,0,0,1-8.39,23.05,23.05,0,0,0-4-8.52,72.8,72.8,0,0,0-7.37-8.68,79,79,0,0,0-8.87-7.79,29.91,29.91,0,0,0-9.11-4.74,20,20,0,0,0-5.24-.85,22.85,22.85,0,0,0-4.55.35,27.51,27.51,0,0,0-11,5.05,16.39,16.39,0,0,0-4.79,5,15.47,15.47,0,0,0-1.93,6l-.09.85-1-.19a31.24,31.24,0,0,0-5-.55,28.06,28.06,0,0,0-5.2.33,20.83,20.83,0,0,0-9,3.7c-4.34,3.09-7.31,6.24-8.85,9.36a15.45,15.45,0,0,0-1.53,9.41,24,24,0,0,0,4.1,9.66,74.2,74.2,0,0,0,8.29,9.91,78,78,0,0,0,9.94,8.57A33.38,33.38,0,0,0,586,127.48a24.09,24.09,0,0,0,5.88.88,27,27,0,0,0,5.41-.4,31.26,31.26,0,0,0,12.46-5.68,16.92,16.92,0,0,0,5.84-7A18.51,18.51,0,0,0,617,106.6l-.06-.88,1,.07,1.1.06a23.3,23.3,0,0,0,6.46-.69,19.17,19.17,0,0,0,6.32-2.93c3.85-2.74,6.44-5.57,7.72-8.39"/><path d="M618.42,81.1a4.56,4.56,0,0,0-1-1.57c-.25-.28-.51-.57-.78-.85s-.53-.56-.81-.84c-.42-.43-.84-.84-1.27-1.24l-.42-.4a5.91,5.91,0,0,0-.8-.62,5.15,5.15,0,0,0-1.45-.67,4.85,4.85,0,0,0-1.21-.18,5.4,5.4,0,0,0-1.05.07l-.36.06-.5.14-.35.13-.36.15c-.18.09-.37.18-.56.29l-.19.11a4.11,4.11,0,0,0-.39.24l-.28.19-.33.23a10.1,10.1,0,0,0-1.53,1.29,4.24,4.24,0,0,0-.69.94,3.77,3.77,0,0,0-.44,1.34c0,.11,0,.21,0,.31a2.5,2.5,0,0,0,0,.55,3.58,3.58,0,0,0,.14.54,2.79,2.79,0,0,0,.24.53,4.92,4.92,0,0,0,.73,1l.76.83.83.87c.58.58,1.14,1.13,1.69,1.63a5.92,5.92,0,0,0,1.36,1,5.52,5.52,0,0,0,.88.34,5,5,0,0,0,.87.16l.34,0h.35a5.21,5.21,0,0,0,.67-.06l.4-.08c.16,0,.33-.08.5-.13l.24-.09.22-.08.15-.07a8.67,8.67,0,0,0,.85-.44l.19-.12q.39-.24.81-.54l.4-.29c.19-.15.37-.29.53-.43l.16-.15a2.68,2.68,0,0,0,.3-.28,3.51,3.51,0,0,0,.37-.41,3.76,3.76,0,0,0,.46-.66c.05-.1.1-.19.14-.28a4,4,0,0,0,.26-.83,3.53,3.53,0,0,0,.05-.56,2.47,2.47,0,0,0-.05-.54A2.69,2.69,0,0,0,618.42,81.1ZM616.35,83a5.73,5.73,0,0,1-1.77,1.72,6.94,6.94,0,0,1-2.3,1.18,4.18,4.18,0,0,1-.89.1,2.59,2.59,0,0,1-.63-.1,3.24,3.24,0,0,1-1.3-.76c-.51-.48-1.06-1-1.61-1.56s-1.05-1.1-1.51-1.61a2.43,2.43,0,0,1-.66-1.22,2,2,0,0,1,.26-1.28,5.89,5.89,0,0,1,1.77-1.72,6.76,6.76,0,0,1,2.3-1.18,3.46,3.46,0,0,1,.88-.09,2.2,2.2,0,0,1,.64.09,3.21,3.21,0,0,1,1.29.76q.81.75,1.62,1.56c.52.53,1,1.08,1.51,1.61a2.55,2.55,0,0,1,.66,1.22,2,2,0,0,1-.26,1.28"/><g class="cls-10"><g class="cls-91"><g class="cls-10"><path d="M617.82,115.24l-2.65,7q-.15.42-.33.84a18.22,18.22,0,0,1-6.35,7.58,32.78,32.78,0,0,1-13.2,6,30.21,30.21,0,0,1-5,.45l2.65-7a30.21,30.21,0,0,0,5-.45,32.92,32.92,0,0,0,13.2-6,18.22,18.22,0,0,0,6.35-7.58c.11-.28.23-.56.33-.84"/><path d="M593,130.1l-2.65,7h-.88a26.35,26.35,0,0,1-6.45-1,35.78,35.78,0,0,1-11.27-5.53,81,81,0,0,1-10.23-8.82A75.47,75.47,0,0,1,553,111.6a25.75,25.75,0,0,1-4.4-10.36,16.4,16.4,0,0,1,.9-8.52l2.65-7a16.38,16.38,0,0,0-.9,8.51,25.73,25.73,0,0,0,4.4,10.37,76.09,76.09,0,0,0,8.51,10.19,80.31,80.31,0,0,0,10.23,8.82,36,36,0,0,0,11.27,5.53,26.84,26.84,0,0,0,6.45,1H593"/></g></g></g></g><g class="cls-10"><polygon points="644.15 204.94 641.5 211.97 639.68 193.71 642.33 186.68 644.15 204.94"/><polygon points="690.06 223.73 687.42 230.76 685.85 215.09 688.5 208.06 690.06 223.73"/><polygon points="692.21 225.52 689.56 232.55 667.08 231.84 669.73 224.81 692.21 225.52"/><polygon class="cls-92" points="625.25 221.69 622.6 228.72 621.03 213.04 623.68 206.01 625.25 221.69"/><polygon points="646.06 224.06 643.41 231.09 620.8 230.38 623.45 223.35 646.06 224.06"/><polygon points="623.45 223.35 620.8 230.38 618.89 211.26 621.54 204.23 623.45 223.35"/><polygon class="cls-93" points="644.47 188.47 664.19 189.09 666.02 207.35 688.5 208.06 690.06 223.73 667.58 223.02 669.41 241.28 649.69 240.66 647.87 222.4 625.25 221.69 623.68 206.01 646.3 206.72 644.47 188.47"/><polygon class="cls-94" points="669.41 241.28 666.76 248.31 647.04 247.69 649.69 240.66 669.41 241.28"/><polygon class="cls-92" points="649.69 240.66 647.04 247.69 645.22 229.43 647.87 222.4 649.69 240.66"/><polygon points="647.89 242.32 645.24 249.35 643.41 231.09 646.06 224.06 647.89 242.32"/><polygon points="671.55 243.07 668.9 250.1 645.24 249.35 647.89 242.32 671.55 243.07"/><path d="M667.81,205.69l22.49.71,1.91,19.12-22.49-.71,1.83,18.26-23.66-.75-1.83-18.26-22.61-.71-1.91-19.12,22.61.71-1.82-18.26,23.66.75Zm22.25,18-1.56-15.67L666,207.35l-1.83-18.26-19.72-.62,1.83,18.25L623.68,206l1.57,15.68,22.62.71,1.82,18.26,19.72.62L667.58,223l22.48.71"/></g><g class="cls-10"><polygon points="476.05 387.22 473.4 394.25 466.71 404.29 469.36 397.25 476.05 387.22"/><polygon points="427.42 386.7 424.77 393.73 395.35 376.96 398 369.93 427.42 386.7"/><g class="cls-10"><g class="cls-95"><g class="cls-10"><path class="cls-96" d="M467.61,396.26l-2.64,7a8,8,0,0,1-2.61,2.48,38.6,38.6,0,0,1-3.75,2c-4.41,2-9.47,4.17-15,6.58-5.41,2.34-11.16,4.82-17.08,7.35-5.76,2.46-11.45,4.92-16.91,7.33-5.27,2.31-9.95,4.45-13.93,6.36l2.64-7c4-1.91,8.67-4.05,13.94-6.37,5.46-2.4,11.15-4.86,16.91-7.33,5.92-2.52,11.66-5,17.08-7.34s10.62-4.63,15-6.58a39.79,39.79,0,0,0,3.75-2,8,8,0,0,0,2.6-2.48"/></g></g></g><path d="M411.14,350.21l64.91,37-6.69,10a9.45,9.45,0,0,1-3.09,2.94,42.39,42.39,0,0,1-3.93,2.06c-4.43,2-9.5,4.19-15.06,6.6s-11.16,4.82-17.09,7.35c-5.76,2.45-11.44,4.92-16.89,7.32s-10.31,4.62-14.37,6.58l-.5.24-21.76-12.41,3.08-4.62a34.8,34.8,0,0,1,7.08-7.89,41.37,41.37,0,0,1,9.69-5.65l30.9-13.07L398,369.93Zm56.47,46.05,5.76-8.63-61.42-35-11.27,16.91L431.39,387l-33.83,14.3a40,40,0,0,0-9.29,5.41,33.42,33.42,0,0,0-6.77,7.56l-2.14,3.22,18.94,10.81c4-1.91,8.67-4.05,13.94-6.37,5.46-2.4,11.15-4.86,16.91-7.33,5.92-2.52,11.66-5,17.08-7.34s10.62-4.63,15-6.58a39.79,39.79,0,0,0,3.75-2,8,8,0,0,0,2.6-2.48"/><path class="cls-24" d="M412,352.61l61.42,35-5.76,8.63a8,8,0,0,1-2.6,2.48,39.79,39.79,0,0,1-3.75,2c-4.41,2-9.47,4.17-15,6.58s-11.16,4.82-17.08,7.34c-5.76,2.47-11.45,4.93-16.91,7.33-5.27,2.32-9.95,4.46-13.94,6.37l-18.94-10.81,2.14-3.22a33.42,33.42,0,0,1,6.77-7.56,40,40,0,0,1,9.29-5.41L431.39,387l-30.71-17.51Z"/><g class="cls-10"><g class="cls-97"><g class="cls-10"><path d="M469.36,397.25l-2.64,7a9.8,9.8,0,0,1-3.1,2.94c-1.2.71-2.53,1.41-3.93,2.06-4.43,2-9.5,4.18-15.06,6.59s-11.16,4.82-17.08,7.35c-5.76,2.46-11.45,4.92-16.9,7.32s-10.31,4.62-14.37,6.58l2.65-7c4.06-2,8.9-4.17,14.37-6.58s11.13-4.87,16.89-7.32c5.93-2.53,11.67-5,17.09-7.35s10.63-4.63,15.06-6.6a42.39,42.39,0,0,0,3.93-2.06,9.45,9.45,0,0,0,3.09-2.94"/></g></g></g><polygon points="398.43 430.34 395.78 437.37 374.03 424.97 376.67 417.93 398.43 430.34"/><polygon points="398.93 430.1 396.28 437.13 395.78 437.37 398.43 430.34 398.93 430.1"/></g><g class="cls-10"><g class="cls-10"><g class="cls-98"><g class="cls-10"><path d="M547.83,399.33l-2.65,7a6,6,0,0,0,0-2.66,3.33,3.33,0,0,0-.84-1.44,4,4,0,0,0-1.54-.85c-.8-.26-1.63-.49-2.46-.68s-1.77-.39-2.54-.5a5.35,5.35,0,0,0-.55-.05h-.13l2.65-7h.13a3.62,3.62,0,0,1,.55.05c.77.11,1.63.28,2.54.49s1.65.43,2.45.69a4,4,0,0,1,1.54.84,3.24,3.24,0,0,1,.84,1.45,6,6,0,0,1,0,2.66"/><path d="M539.78,393.15l-2.65,7a3,3,0,0,0-1,.15,2.71,2.71,0,0,0-1.26.95,3.44,3.44,0,0,0-.5.94l2.65-7a3.44,3.44,0,0,1,.5-.94,2.71,2.71,0,0,1,1.26-.95,3,3,0,0,1,1-.15"/></g></g></g><g class="cls-10"><g class="cls-99"><g class="cls-10"><path d="M549,423l-2.64,7-1.05-.05h-1l2.65-7c.36,0,.71,0,1,0L549,423"/><path d="M546.88,422.92l-2.65,7-1.67,0-4.4.2-1.09,0,2.65-7,1.09,0,4.4-.2,1.67,0"/><path d="M539.72,423.18l-2.65,7h-.61a10.47,10.47,0,0,1-2.21-.26,83.72,83.72,0,0,1-12.36-3.89,32.19,32.19,0,0,1-9.91-6.18,22,22,0,0,1-5.94-9.3,26.37,26.37,0,0,1-.49-12.91,33.63,33.63,0,0,1,1.6-6l2.65-7a33.63,33.63,0,0,0-1.6,6,26.25,26.25,0,0,0,.49,12.91,21.89,21.89,0,0,0,5.94,9.3,32.45,32.45,0,0,0,9.9,6.18,84.09,84.09,0,0,0,12.36,3.89,11.28,11.28,0,0,0,2.22.26h.61"/></g></g></g><g class="cls-10"><g class="cls-100"><g class="cls-10"><path d="M551.07,423.42l-2.65,7a3.87,3.87,0,0,1-1.68,1.66,13.41,13.41,0,0,1-3.94,1.5,24.69,24.69,0,0,1-5.71.59l2.65-7a24.69,24.69,0,0,0,5.71-.59,13.82,13.82,0,0,0,3.94-1.5,3.93,3.93,0,0,0,1.68-1.66"/><path d="M539.74,427.17l-2.65,7h-.68a27.67,27.67,0,0,1-6.87-1.18l2.65-7a27.67,27.67,0,0,0,6.87,1.18h.68"/></g></g></g><g class="cls-10"><g class="cls-101"><g class="cls-10"><path d="M532.19,426l-2.65,7c-1-.3-2.15-.71-3.5-1.2s-2.78-1.1-4.29-1.78-3-1.42-4.53-2.21c-1.22-.64-2.39-1.31-3.47-2l2.65-7c1.08.69,2.25,1.36,3.47,2,1.52.79,3,1.54,4.53,2.21s3,1.28,4.29,1.78,2.51.9,3.5,1.2"/></g></g></g><polygon points="516.4 418.79 513.75 425.82 501.39 441.44 504.04 434.41 516.4 418.79"/><path class="cls-24" d="M578.75,401.08a53.92,53.92,0,0,1-.56,17.63c-1.31,7.42-3.37,13.39-6.15,17.73A25.9,25.9,0,0,1,562,445.93a29.61,29.61,0,0,1-13.63,3l-1.32,0a78.37,78.37,0,0,1-15.66-2.18,92,92,0,0,1-10.84-3.19,74.37,74.37,0,0,1-7.93-3.45,41.48,41.48,0,0,1-5.46-3.32c-1.2-.89-2.21-1.65-3.07-2.31l12.36-15.62c1.08.69,2.25,1.36,3.47,2,1.52.79,3,1.54,4.53,2.21s3,1.28,4.29,1.78,2.51.9,3.5,1.2a27.67,27.67,0,0,0,6.87,1.18h.57a24.54,24.54,0,0,0,5.82-.59,13.82,13.82,0,0,0,3.94-1.5c1.08-.68,1.64-1.29,1.75-1.92a1.34,1.34,0,0,0-.37-1.16,3.18,3.18,0,0,0-2.09-.76l-.86,0c-.88,0-1.86,0-2.94,0-1.43.06-2.91.12-4.42.2-.56,0-1.07,0-1.53,0a8.69,8.69,0,0,1-1.74-.2,80,80,0,0,1-12-3.78,30,30,0,0,1-9.19-5.72,20.13,20.13,0,0,1-5.42-8.49,29.24,29.24,0,0,1,4.15-23.45,18.84,18.84,0,0,1,8.21-6.09A29.93,29.93,0,0,1,534.16,372h.37a67.62,67.62,0,0,1,13.34,1.86,62.63,62.63,0,0,1,15.44,5.64,30.57,30.57,0,0,1,10.33,8.79A29.58,29.58,0,0,1,578.75,401.08Zm-29-1.29a7.31,7.31,0,0,0,0-3.36,5.07,5.07,0,0,0-1.37-2.29,6.48,6.48,0,0,0-2.44-1.37c-.86-.28-1.75-.52-2.64-.73s-1.9-.41-2.74-.54a5.79,5.79,0,0,0-.82-.07,5.14,5.14,0,0,0-1.82.25,4.31,4.31,0,0,0-2,1.48,6.87,6.87,0,0,0-1.17,3.07,7.32,7.32,0,0,0,0,3.36,5.1,5.1,0,0,0,1.37,2.29,6.19,6.19,0,0,0,2.37,1.35c.8.27,1.71.52,2.71.75s1.82.4,2.67.52a7.22,7.22,0,0,0,.9.09,5,5,0,0,0,1.81-.25,4.27,4.27,0,0,0,2-1.48,6.91,6.91,0,0,0,1.18-3.07"/><g class="cls-10"><g class="cls-102"><g class="cls-10"><path class="cls-44" d="M539.48,421.45l-2.65,7h-.55a9.6,9.6,0,0,1-1.74-.19,82.42,82.42,0,0,1-12-3.78,30.07,30.07,0,0,1-9.19-5.73,20.07,20.07,0,0,1-5.42-8.49,25.1,25.1,0,0,1-.42-12.17,32.76,32.76,0,0,1,1.53-5.75l2.65-7a32.76,32.76,0,0,0-1.53,5.75,25,25,0,0,0,.42,12.17,20.13,20.13,0,0,0,5.42,8.49,30,30,0,0,0,9.19,5.72,80,80,0,0,0,12,3.78,8.69,8.69,0,0,0,1.74.2h.55"/></g></g></g><g class="cls-10"><g class="cls-103"><g class="cls-10"><path class="cls-96" d="M575.24,429.9l-2.65,7a35.14,35.14,0,0,1-3.2,6.53A25.9,25.9,0,0,1,559.3,453a29.38,29.38,0,0,1-13.27,3l2.65-7a29.55,29.55,0,0,0,13.27-3A25.9,25.9,0,0,0,572,436.44a34.94,34.94,0,0,0,3.2-6.54"/><path class="cls-44" d="M548.68,448.89l-2.65,7h-.35l-1.33,0a79.26,79.26,0,0,1-15.66-2.19,93.11,93.11,0,0,1-10.84-3.19,72.39,72.39,0,0,1-7.93-3.45,41.48,41.48,0,0,1-5.46-3.32c-1.2-.88-2.21-1.64-3.07-2.31l2.65-7c.86.66,1.87,1.42,3.07,2.31a41.48,41.48,0,0,0,5.46,3.32,74.37,74.37,0,0,0,7.93,3.45,92,92,0,0,0,10.84,3.19A78.37,78.37,0,0,0,547,448.86l1.32,0h.36"/></g></g></g><g class="cls-10"><g class="cls-104"><g class="cls-10"><path class="cls-44" d="M548.68,448.89l-2.65,7h-.35l-1.33,0a79.26,79.26,0,0,1-15.66-2.19,93.11,93.11,0,0,1-10.84-3.19,72.39,72.39,0,0,1-7.93-3.45,41.48,41.48,0,0,1-5.46-3.32c-1.2-.88-2.21-1.64-3.07-2.31l2.65-7c.86.66,1.87,1.42,3.07,2.31a41.48,41.48,0,0,0,5.46,3.32,74.37,74.37,0,0,0,7.93,3.45,92,92,0,0,0,10.84,3.19A78.37,78.37,0,0,0,547,448.86l1.32,0h.36"/></g></g></g><path d="M580.71,401a55.53,55.53,0,0,1-.56,18.13c-1.34,7.6-3.47,13.74-6.34,18.24a27.56,27.56,0,0,1-10.72,10,31.56,31.56,0,0,1-14.53,3.16l-1.36,0a80.48,80.48,0,0,1-16.15-2.25,93.81,93.81,0,0,1-11.14-3.28,72.55,72.55,0,0,1-8.19-3.56,45,45,0,0,1-5.78-3.52c-1.56-1.14-2.81-2.1-3.83-2.9l-.7-.55,14.38-18.17.85.57a42.45,42.45,0,0,0,4.09,2.42c1.48.77,3,1.49,4.41,2.15s2.84,1.24,4.13,1.71,2.43.88,3.35,1.16a25.6,25.6,0,0,0,6.32,1.08h.45a23,23,0,0,0,5.32-.53,12,12,0,0,0,3.39-1.28A4.14,4.14,0,0,0,549,423l-1.05-.05c-.8,0-1.71,0-2.71,0l-4.4.2c-.62,0-1.19,0-1.7,0a11.28,11.28,0,0,1-2.22-.26A84.09,84.09,0,0,1,524.53,419a32.45,32.45,0,0,1-9.9-6.18,21.89,21.89,0,0,1-5.94-9.3,26.25,26.25,0,0,1-.49-12.91A26.6,26.6,0,0,1,513,378.72a20.52,20.52,0,0,1,8.93-6.59,31.87,31.87,0,0,1,12-1.89h.43a69.75,69.75,0,0,1,13.77,1.92,65.58,65.58,0,0,1,16,5.87,32.89,32.89,0,0,1,11.08,9.43A31.4,31.4,0,0,1,580.71,401Zm-2.52,17.67a53.92,53.92,0,0,0,.56-17.63,29.58,29.58,0,0,0-5.11-12.82,30.57,30.57,0,0,0-10.33-8.79,62.63,62.63,0,0,0-15.44-5.64A67.62,67.62,0,0,0,534.53,372h-.37a29.93,29.93,0,0,0-11.22,1.76,18.84,18.84,0,0,0-8.21,6.09,29.24,29.24,0,0,0-4.15,23.45,20.13,20.13,0,0,0,5.42,8.49,30,30,0,0,0,9.19,5.72,80,80,0,0,0,12,3.78,8.69,8.69,0,0,0,1.74.2c.46,0,1,0,1.53,0,1.51-.08,3-.14,4.42-.2,1.08,0,2.06-.05,2.94,0l.86,0a3.18,3.18,0,0,1,2.09.76,1.34,1.34,0,0,1,.37,1.16c-.11.63-.67,1.24-1.75,1.92a13.82,13.82,0,0,1-3.94,1.5,24.54,24.54,0,0,1-5.82.59h-.57a27.67,27.67,0,0,1-6.87-1.18c-1-.3-2.16-.71-3.5-1.2s-2.78-1.1-4.29-1.78-3-1.42-4.53-2.21c-1.22-.64-2.39-1.31-3.47-2L504,434.41c.86.66,1.87,1.42,3.07,2.31a41.48,41.48,0,0,0,5.46,3.32,74.37,74.37,0,0,0,7.93,3.45,92,92,0,0,0,10.84,3.19A78.37,78.37,0,0,0,547,448.86l1.32,0a29.61,29.61,0,0,0,13.63-3A25.9,25.9,0,0,0,572,436.44c2.78-4.34,4.84-10.31,6.15-17.73"/><path d="M548.37,394.14a5.07,5.07,0,0,1,1.37,2.29,7.31,7.31,0,0,1,0,3.36,6.91,6.91,0,0,1-1.18,3.07,4.27,4.27,0,0,1-2,1.48,5,5,0,0,1-1.81.25,7.22,7.22,0,0,1-.9-.09c-.85-.12-1.76-.3-2.67-.52s-1.91-.48-2.71-.75a6.19,6.19,0,0,1-2.37-1.35,5.1,5.1,0,0,1-1.37-2.29,7.32,7.32,0,0,1,0-3.36,6.87,6.87,0,0,1,1.17-3.07,4.31,4.31,0,0,1,2-1.48,5.14,5.14,0,0,1,1.82-.25,5.79,5.79,0,0,1,.82.07c.84.13,1.76.31,2.74.54s1.78.45,2.64.73A6.48,6.48,0,0,1,548.37,394.14Zm-.54,5.19a6,6,0,0,0,0-2.66,3.24,3.24,0,0,0-.84-1.45,4,4,0,0,0-1.54-.84c-.8-.26-1.62-.49-2.45-.69s-1.77-.38-2.54-.49a3.62,3.62,0,0,0-.55-.05,3,3,0,0,0-1.1.15,2.71,2.71,0,0,0-1.26.95,5.5,5.5,0,0,0-.89,2.45,6,6,0,0,0,0,2.65,3.13,3.13,0,0,0,.84,1.45,3.92,3.92,0,0,0,1.48.83c.74.24,1.58.48,2.51.7s1.69.36,2.48.48l.62.06a3.45,3.45,0,0,0,1.1-.14,2.67,2.67,0,0,0,1.25-1,5.61,5.61,0,0,0,.9-2.44"/><g class="cls-10"><g class="cls-105"><g class="cls-10"><path class="cls-44" d="M548.68,448.89l-2.65,7h-.35l-1.33,0a79.26,79.26,0,0,1-15.66-2.19,93.11,93.11,0,0,1-10.84-3.19,72.39,72.39,0,0,1-7.93-3.45,41.48,41.48,0,0,1-5.46-3.32c-1.2-.88-2.21-1.64-3.07-2.31l2.65-7c.86.66,1.87,1.42,3.07,2.31a41.48,41.48,0,0,0,5.46,3.32,74.37,74.37,0,0,0,7.93,3.45,92,92,0,0,0,10.84,3.19A78.37,78.37,0,0,0,547,448.86l1.32,0h.36"/></g></g></g><polygon points="502.11 435.07 499.46 442.11 498.76 441.55 501.41 434.52 502.11 435.07"/><g class="cls-10"><g class="cls-106"><g class="cls-10"><path d="M577.13,430.63l-2.65,7a36.58,36.58,0,0,1-3.32,6.78,27.49,27.49,0,0,1-10.72,10,31.33,31.33,0,0,1-14.14,3.16l2.65-7a31.33,31.33,0,0,0,14.14-3.16,27.56,27.56,0,0,0,10.72-10,37.55,37.55,0,0,0,3.32-6.78"/><path d="M549,450.61l-2.65,7h-.39l-1.35,0a82,82,0,0,1-16.16-2.25,94.37,94.37,0,0,1-11.14-3.28,75.15,75.15,0,0,1-8.19-3.57,44.61,44.61,0,0,1-5.78-3.52c-1.56-1.14-2.81-2.09-3.83-2.9l2.65-7c1,.8,2.27,1.76,3.83,2.9a45,45,0,0,0,5.78,3.52,72.55,72.55,0,0,0,8.19,3.56,93.81,93.81,0,0,0,11.14,3.28,80.48,80.48,0,0,0,16.15,2.25l1.36,0H549"/></g></g></g></g><path class="cls-107" d="M655.24,260.6c3,2.8,7.64,3.49,11.64,2.43a21.53,21.53,0,0,0,10.19-6.78"/><path class="cls-107" d="M654.36,269a10.44,10.44,0,0,0,6.85,2.76,23.6,23.6,0,0,0,7.44-1.07,67.55,67.55,0,0,0,16.78-7.15"/><path class="cls-107" d="M649.31,169.73a146.67,146.67,0,0,0-10.5-43.3"/><path class="cls-107" d="M651.51,131.47a96.63,96.63,0,0,1,6.35,38.22"/><path class="cls-107" d="M665.19,157.23v10.26"/><path class="cls-107" d="M259.6,266.94a70.6,70.6,0,0,0,9.25,39.22"/><path class="cls-107" d="M268.2,271.37a53.84,53.84,0,0,0,9.86,30.16"/><path class="cls-107" d="M279.7,257.18a79.39,79.39,0,0,0,12.37,40.91"/><path class="cls-107" d="M416.76,8.6a114.84,114.84,0,0,0,4.77,25.59"/><path class="cls-107" d="M428.75,8.58a69.66,69.66,0,0,0,1.75,31.15"/><path class="cls-107" d="M371.41,401.88c.69,1.41,2.84.27,3.8-1a64.81,64.81,0,0,0,10.14-19"/><path class="cls-107" d="M361.7,401a31,31,0,0,0,11.16-15"/><path class="cls-107" d="M501.63,376.46a167.45,167.45,0,0,0-2.68,23"/><path class="cls-107" d="M496.77,371.69a51.58,51.58,0,0,0-3.32,19.82"/><path class="cls-107" d="M297.68,99.11a73.19,73.19,0,0,1,37-35.49"/><path class="cls-107" d="M311.53,94.47a34.21,34.21,0,0,1,15.28-11.72"/><path class="cls-107" d="M573.71,59a14,14,0,0,1,12.16-12.23"/><path class="cls-107" d="M559.57,58.22c-.84-4.93,2.09-9.89,6.09-12.88s8.93-4.42,13.74-5.78"/></svg>