<svg id="Layer_1" data-name="Layer 1" xmlns="http://www.w3.org/2000/svg" xmlns:xlink="http://www.w3.org/1999/xlink" viewBox="0 0 906 603.01"><defs><style>.cls-1{fill:#757575;}.cls-2{fill:#00b1ff;}.cls-3{fill:#15bdf9;}.cls-4{fill:#fff;}.cls-5{fill:#626c72;}.cls-6{fill:#96a5b3;}.cls-7{fill:#2f3e4a;}.cls-8{fill:#222d35;}.cls-9{fill:#353535;stroke-width:0.75px;}.cls-23,.cls-25,.cls-33,.cls-54,.cls-9{stroke:#000;}.cls-23,.cls-25,.cls-9{stroke-linejoin:round;}.cls-10,.cls-18,.cls-19{fill:#4d4d4d;}.cls-11{fill:#b3b3b3;}.cls-12{fill:#d3161d;}.cls-13{fill:#adadad;stroke:#080000;stroke-width:1.03px;}.cls-13,.cls-14,.cls-15,.cls-16,.cls-17,.cls-18,.cls-19,.cls-24,.cls-26,.cls-28,.cls-29,.cls-33,.cls-37,.cls-48,.cls-49,.cls-50,.cls-51,.cls-52,.cls-53,.cls-54,.cls-55{stroke-miterlimit:10;}.cls-14,.cls-29,.cls-33,.cls-37,.cls-49,.cls-53,.cls-55{fill:none;}.cls-14,.cls-15,.cls-26,.cls-28,.cls-37,.cls-53{stroke:#070707;}.cls-14{stroke-width:1.58px;}.cls-15{fill:#77401b;}.cls-15,.cls-16,.cls-37{stroke-width:1.03px;}.cls-16,.cls-20,.cls-54{fill:#f8c946;}.cls-16{stroke:#020202;}.cls-17,.cls-34{fill:#282828;}.cls-17,.cls-18,.cls-19{stroke:#151616;}.cls-17,.cls-18{stroke-width:0.85px;}.cls-19{stroke-width:3.1px;}.cls-21{fill:#683919;}.cls-22,.cls-28{fill:#945320;}.cls-23{fill:#515051;stroke-width:1.03px;}.cls-24,.cls-27{fill:#161616;}.cls-24,.cls-29,.cls-48,.cls-49,.cls-50,.cls-51,.cls-52,.cls-55{stroke:#0a0a0a;}.cls-24,.cls-25,.cls-26,.cls-28,.cls-29,.cls-33{stroke-width:0.9px;}.cls-25{fill:#8e8a8b;}.cls-26{fill:#e2b647;}.cls-30{fill:#dddbd7;}.cls-31{fill:#232323;}.cls-32{fill:#3a3a3a;}.cls-35{fill:#7c7c7c;}.cls-36{fill:#666;}.cls-38{fill:#389cce;}.cls-39{fill:#7f1119;}.cls-40{fill:#5e0e18;}.cls-41{fill:#352f49;}.cls-42{fill:#e41e00;}.cls-43{fill:#fffe28;}.cls-44{fill:#18ff08;}.cls-45{fill:#dbdddd;}.cls-46{fill:#0fb0db;}.cls-47{fill:#303435;}.cls-48,.cls-49,.cls-50,.cls-51,.cls-52{stroke-width:0.4px;}.cls-48{fill:url(#radial-gradient);}.cls-50{fill:url(#radial-gradient-2);}.cls-51{fill:url(#radial-gradient-3);}.cls-52{fill:url(#radial-gradient-4);}.cls-53{stroke-width:0.52px;}.cls-54,.cls-55{stroke-width:0.41px;}</style><radialGradient id="radial-gradient" cx="2461.72" cy="225.16" r="6.29" gradientTransform="matrix(-1, 0, 0, 1, 2802.32, 129.57)" gradientUnits="userSpaceOnUse"><stop offset="0.2" stop-color="#666"/><stop offset="0.57" stop-color="#585858"/><stop offset="1" stop-color="#4d4d4d"/></radialGradient><radialGradient id="radial-gradient-2" cx="2436.25" cy="287.4" r="6.29" gradientTransform="matrix(-1, 0, 0, 1, 2806.41, 127.73)" xlink:href="#radial-gradient"/><radialGradient id="radial-gradient-3" cx="2462.44" cy="285.85" r="6.29" gradientTransform="matrix(-1, 0, 0, 1, 2806.36, 129.48)" xlink:href="#radial-gradient"/><radialGradient id="radial-gradient-4" cx="2438.91" cy="226.22" r="6.29" gradientTransform="matrix(-1, 0, 0, 1, 2802.34, 128.05)" xlink:href="#radial-gradient"/></defs><title>sequence</title><path class="cls-1" d="M41.15,16.72H865.38A39.83,39.83,0,0,1,905.2,56.53V563a39.84,39.84,0,0,1-39.82,39.82H41.15A39.83,39.83,0,0,1,1.34,563V56.53A39.82,39.82,0,0,1,41.15,16.72Z"/><path class="cls-2" d="M904.74,41.4V547.89a39.83,39.83,0,0,1-39.82,39.81H40.69A39.82,39.82,0,0,1,.88,547.89h0V41.4A39.82,39.82,0,0,1,40.69,1.59H864.92A39.83,39.83,0,0,1,904.74,41.4Z"/><path class="cls-3" d="M904.72,35.43H1.81A39.81,39.81,0,0,1,41.15,2H865.38A39.93,39.93,0,0,1,904.72,35.43Z"/><path class="cls-4" d="M865.38,15.14A26.29,26.29,0,0,1,891.64,41.4V547.89a26.29,26.29,0,0,1-26.26,26.26H41.15a26.29,26.29,0,0,1-26.26-26.26V41.4A26.29,26.29,0,0,1,41.15,15.14H865.38m0-13.55H41.15A39.82,39.82,0,0,0,1.34,41.4V547.89A39.82,39.82,0,0,0,41.15,587.7H865.38a39.83,39.83,0,0,0,39.82-39.81V41.4A39.83,39.83,0,0,0,865.38,1.59Z"/><circle class="cls-5" cx="859.73" cy="46.74" r="18.71"/><circle class="cls-6" cx="859.73" cy="46.74" r="16.72"/><polygon class="cls-7" points="870.4 41.96 869.21 53.59 858.53 58.37 849.06 51.52 850.17 39.89 860.92 35.11 870.4 41.96"/><path class="cls-8" d="M870.4,42l-.56,5.26a14.59,14.59,0,0,0-9.63-5.66,13.71,13.71,0,0,0-10.59,3.59l.55-5.26,10.67-4.78Z"/><circle class="cls-5" cx="46.81" cy="46.74" r="18.71"/><circle class="cls-6" cx="46.81" cy="46.74" r="16.72"/><polygon class="cls-7" points="57 40.85 57 52.63 46.81 58.45 36.69 52.63 36.69 40.85 46.81 35.03 57 40.85"/><path class="cls-8" d="M57,40.85v5.33a14.81,14.81,0,0,0-10.11-4.62c-6.29-.24-10.2,4.62-10.2,4.62V40.85L46.81,35Z"/><circle class="cls-5" cx="46.81" cy="539.76" r="18.71"/><circle class="cls-6" cx="46.81" cy="539.76" r="16.72"/><polygon class="cls-7" points="58.51 538.89 53.42 549.48 41.71 550.27 35.1 540.56 40.2 530.05 51.9 529.17 58.51 538.89"/><path class="cls-8" d="M58.51,538.89l-2.31,4.78a14.56,14.56,0,0,0-7.08-8.6A13.24,13.24,0,0,0,38,534.83l2.31-4.78,11.7-.88Z"/><circle class="cls-5" cx="857.18" cy="539.68" r="18.71"/><circle class="cls-6" cx="857.18" cy="539.68" r="16.72"/><polygon class="cls-7" points="865.86 531.8 868.33 543.27 859.57 551.15 848.42 547.49 846.03 536.02 854.79 528.22 865.86 531.8"/><path class="cls-8" d="M865.86,531.8,867,537a14.35,14.35,0,0,0-10.91-2.39c-6.14,1.11-9,6.61-9,6.61L846,536l8.76-7.8Z"/><path class="cls-9" d="M226.14,492.07a66.3,66.3,0,0,1,2.15-10.72c4.21-14.65,17.32-59,29.29-85.72,7.06-15.73,11.31-26.49,15-34.54a67.34,67.34,0,0,1,18.46-24c5.27-4.34,11.33-9.23,20.56-12.95,12-4.87,25.11-4.94,38-3.32,32.09,4,49.27,4.49,55.58,6.39,6.23,4.16,33,31.75,35.08,55.3,1.48,17,.4,40.16-11.34,58.55S370,547.46,349,549.5c-24.55,2.38-87.71-.34-106.26-13.48C226,524.22,224.25,509,226.14,492.07Z"/><path class="cls-10" d="M337.55,546.94c-8.26,0-15-1.93-20.6-5.89-15.09-10.7-16.94-24-15.07-40.65a61.18,61.18,0,0,1,2-10.13C307.71,477,321.05,431.77,333,405c3.9-8.69,7-16,9.5-21.9,2.05-4.85,3.83-9.05,5.46-12.62a64.1,64.1,0,0,1,17.48-22.77c4.75-3.91,10.65-8.77,19.63-12.4a61.16,61.16,0,0,1,23-4.43,65.34,65.34,0,0,1,12.9,1.3c22.09,4.48,37.22,14.85,43.69,19.28l1.56,1.06.79.53c19.8,13.09,30.45,26.77,31.66,40.67,1.38,15.83.62,38.45-10.8,56.33-5.19,8.13-26,27.53-51.67,48.28-26.34,21.27-48.94,36.74-57.57,39.42-1.41.43-2.84.89-4.3,1.35C362.79,542.79,349.61,546.94,337.55,546.94Z"/><path d="M408.15,327.34v7.12h0a61.83,61.83,0,0,1,12.18,1.23c21.38,4.34,36.1,14.42,42.38,18.73l1.6,1.08.81.54a102,102,0,0,1,17.44,14c7.69,7.95,11.94,16,12.63,24,2.41,27.68-4.24,44.7-10.25,54.1-4.93,7.72-25.86,27.22-50.9,47.43-25.63,20.69-48.29,36.27-56.4,38.79l-4.31,1.35c-11.38,3.59-24.27,7.66-35.79,7.66-7.5,0-13.56-1.71-18.54-5.24-6.45-4.57-10.55-9.92-12.55-16.35-1.73-5.56-2-12-1-21a59.72,59.72,0,0,1,1.92-9.54c3.79-13.18,17.06-58.24,28.95-84.77,3.91-8.73,7-16.07,9.52-22,2.05-4.83,3.82-9,5.43-12.54a60.48,60.48,0,0,1,16.51-21.49c4.55-3.75,10.22-8.42,18.69-11.85a57.78,57.78,0,0,1,21.72-4.17v-7.12m0,0A65.15,65.15,0,0,0,383.76,332c-9.22,3.73-15.28,8.61-20.55,13a67.23,67.23,0,0,0-18.46,24c-3.67,8.05-7.92,18.81-15,34.55-12,26.72-25.08,71.07-29.29,85.72A64.1,64.1,0,0,0,298.34,500c-1.9,16.93-.1,32.15,16.56,44,6.76,4.79,14.53,6.55,22.65,6.55,14.16,0,29.39-5.35,42.21-9.33C399.94,534.91,479.2,470.37,491,452s12.83-41.57,11.35-58.56c-2.05-23.54-27.79-39.7-34-43.85-5.28-3.53-21.68-15.83-46.51-20.87a68.68,68.68,0,0,0-13.61-1.37Z"/><ellipse class="cls-11" cx="444.17" cy="408.47" rx="37.89" ry="47.42" transform="translate(-7.55 8.37) rotate(-1.07)"/><ellipse class="cls-11" cx="397.15" cy="476.81" rx="27.14" ry="33.97" transform="translate(-8.84 7.5) rotate(-1.07)"/><ellipse class="cls-11" cx="343.58" cy="504.54" rx="21.36" ry="26.73" transform="translate(-9.36 6.5) rotate(-1.07)"/><ellipse class="cls-12" cx="446.59" cy="408.42" rx="12.88" ry="17.72" transform="translate(-7.55 8.41) rotate(-1.07)"/><ellipse class="cls-12" cx="398.38" cy="478.14" rx="11.12" ry="15.3" transform="translate(-110.36 119.65) rotate(-15.03)"/><ellipse class="cls-12" cx="343.61" cy="506.37" rx="8.24" ry="11.33" transform="translate(-119.55 106.42) rotate(-15.03)"/><path class="cls-13" d="M328,468.94s5.62-12.34,24.31-6.91c3.09-8,9.35-29.46,42.25-28.12-1.85-7.23-15.81-38.34,7.59-70.14-9.77-4-15.81-6.62-27.52,8.82S326.54,465.28,328,468.94Z"/><line class="cls-14" x1="272.73" y1="360.71" x2="346.54" y2="365.4"/><line class="cls-14" x1="313.82" y1="323.25" x2="395.99" y2="328.46"/><polyline class="cls-14" points="407.7 329.21 429.51 330.59 429.52 330.59"/><line class="cls-14" x1="252.99" y1="406.57" x2="326.51" y2="411.23"/><line class="cls-14" x1="237.15" y1="451.98" x2="310.4" y2="456.62"/><line class="cls-14" x1="225.6" y1="498.88" x2="298" y2="503.47"/><path class="cls-15" d="M224.15,322.89l103.14-39.35c17.34-7.23,30.76-9.28,38.83,6.93h0c6.13,16.64-1.7,22-16.64,31.16l-99.61,63.53a33,33,0,0,1-44.16-14.79h0C197.64,354.15,207.94,331,224.15,322.89Z"/><path class="cls-16" d="M232,319.77l106.78-42.66c17.35-7.24,37.14,28.9,22.2,38.08l-99.62,63.53a33,33,0,0,1-44.15-14.79h0A33,33,0,0,1,232,319.77Z"/><path class="cls-17" d="M209.68,352s-1.88-5.26,3-14.38c-13.65-4-47.82-8.85-51.54-4.86-2.52,2.71-4.2,9.16-5.57,15.3-1.23,5.51,2.69,10.76,8.32,10.38,16.84-1.15,42.74-3.69,42.74-3.69Z"/><path class="cls-18" d="M212.85,337.43c-13.66-4-46.12-12.57-49.84-8.58-2.53,2.71-4.81,9.06-6.48,14.8A8.11,8.11,0,0,0,164.85,354c16.84-1.16,44.14-.85,45.21-1.79A17,17,0,0,1,212.85,337.43Z"/><path class="cls-17" d="M216.92,373s-4.68-3.05-6.28-13.29c-13.29,5.06-43.43,21.87-44,27.3-.37,3.69,2.2,9.83,4.82,15.55,2.35,5.13,8.65,6.95,12.9,3.23C197.09,394.68,216.19,377,216.19,377Z"/><path class="cls-18" d="M210.61,359.43c-13.3,5.07-44.33,17.88-44.88,23.31-.38,3.69,1.65,10.13,3.79,15.7a8.11,8.11,0,0,0,12.9,3.23c12.71-11.1,34.64-27.37,34.92-28.77A17,17,0,0,1,210.61,359.43Z"/><path class="cls-17" d="M238.9,383.61s-5.53.81-13.51-5.8c-6.6,12.61-18.33,33.42-15.14,37.84,2.16,3,2.36,3.48,8.12,6,5.16,2.28,10.37-.67,11.8-6.13A141,141,0,0,1,241,387.09Z"/><path class="cls-18" d="M225.19,377.64c-6.6,12.61-21.64,31-18.46,35.45,2.17,3,2.15,4.05,7.45,6.81,5,2.6,10.29-.7,11.8-6.13,4.52-16.21,13.9-29.26,13.18-30.5A17,17,0,0,1,225.19,377.64Z"/><path class="cls-17" d="M220.6,324.62l-5.19,9.29s-3.35,1.17-4.09,1.36c-4.23,1.08-32.81-18.33-28.81-24s11.06-12,13.45-11.49c.3.06,3.58-.11,3.58-.11S222.49,324.28,220.6,324.62Z"/><path class="cls-18" d="M224.69,323.25a22.48,22.48,0,0,0-5.63,4.76,38,38,0,0,0-3.65,5.9c-2.18,3.78-32.81-18.34-28.81-24.05s11.32-10.75,13.71-10.23S226.85,322.86,224.69,323.25Z"/><ellipse class="cls-19" cx="246.98" cy="348.13" rx="11.63" ry="12.9" transform="translate(-177.3 394.87) rotate(-60.93)"/><path class="cls-20" d="M291.81,293.79s89.46-46.68,130.08-55.23c0,0,109.72-9.62,204.58-6.69-10.91,8.7-105.48,51.7-119,54.85S328.36,297.84,291.81,293.79Z"/><path class="cls-21" d="M477.3,277.57s36.23-23,39.95-24.35-71.1-1.27-71.1-1.27-35.22,21.67-37.55,24S477.3,277.57,477.3,277.57Z"/><path class="cls-22" d="M627.63,231.6s14.08,156.29,3.73,196.3c-11.35,10.3-90.8,49.57-116.6,50.44-3.51-17.86-12.79-178.58-6.12-191.88C518,278.64,588.69,244.09,627.63,231.6Z"/><path class="cls-12" d="M291.81,293.79s-.23,80.13,4.66,138.75c1.88,22.59,24.4,43.84,28.09,44.57,8.54,7.31,202.51,8.76,213.53.76,0,0-21.66-15.93-22.49-47.13-1-39-5.5-97.09-7-144.28C501.47,283.05,325.67,287.52,291.81,293.79Z"/><path class="cls-23" d="M478.54,196.8l3.07,59L430,259c-8.64.45-16.35-12.39-17.2-28.68s5.48-29.87,14.12-30.32c2.91-.15,5.71,1.2,8.19,3.68Z"/><path class="cls-24" d="M249.28,198.87s20.17,12.48,54.24,15c15.14,1.12,34.72-1.61,53.58-5,61.33-11.16,87.13-44.72,87.13-44.72s-6.3-42.29-7.85-56.52-22.94-40.72-22.94-40.72Z"/><path class="cls-24" d="M643.23,180.33S632.55,202,593,202.31s-97.8-12-97.8-12l-38.5-46.08Z"/><path class="cls-12" d="M420.75,76l20.56-1.78,3,66.05-19.64,1S425,98.21,420.75,76Z"/><polygon class="cls-25" points="424.64 141.32 438.46 158.2 452.49 157.47 444.28 140.29 424.64 141.32"/><polygon class="cls-26" points="409.28 142.12 463.1 139.31 464.62 234.33 413.52 235.8 409.28 142.12"/><path class="cls-27" d="M424.68,140.75l-.83,11.43a2,2,0,0,1-.7,1.39L409.84,164.5a2,2,0,0,1-3.15-1.12l-.63-3.13a2,2,0,0,1,.46-1.69l14.77-19.23A2,2,0,0,1,424.68,140.75Z"/><polygon class="cls-28" points="495.19 190.31 491.19 211.98 464.62 234.33 463.1 139.31 495.19 190.31"/><path class="cls-24" d="M445,141.9s1.47,10.88,3.84,12.48,33,13,36.57,13.31,2.48-7.88,2.48-7.88Z"/><path class="cls-29" d="M445,141.9s1.81,13.13,4.78,13c3.64,1.56,30.65,11.74,30.65,11.74"/><path class="cls-30" d="M618.62,182.87c-23.5,0-61.43-6-101.46-16.05-41.06-10.3-63.56-19.69-66.87-23.28-3.28-11.46-5.18-48.81-3.64-72.22a7.06,7.06,0,0,1,6.17-6.53,618.22,618.22,0,0,1,74.67-4.3,760.73,760.73,0,0,1,99.8,6.61,7.12,7.12,0,0,1,5.76,4.82c12.55,36.87,8.6,84.79,6.32,103.68a7,7,0,0,1-5.57,6.07,80.13,80.13,0,0,1-15.17,1.2Z"/><path class="cls-31" d="M527.49,65.66a754.41,754.41,0,0,1,99.09,6.56,2,2,0,0,1,1.58,1.36c12.21,35.86,8.32,82.86,6.08,101.4a1.85,1.85,0,0,1-1.46,1.62,74.52,74.52,0,0,1-14.16,1.1c-22.48,0-59-5.71-97.7-15.26-16.86-4.17-32.94-8.82-45.29-13.1-13.41-4.65-18.82-7.58-20.78-8.84-2.64-11.76-4.57-45.63-3-68.84a1.88,1.88,0,0,1,1.64-1.74,611.9,611.9,0,0,1,74-4.26m0-10.33a623.08,623.08,0,0,0-75.3,4.33A12.22,12.22,0,0,0,441.5,71c-1.54,23.4.33,62.66,4,74.52C449,156.93,563.8,188,618.62,188a84.86,84.86,0,0,0,16.19-1.29,12.23,12.23,0,0,0,9.69-10.52c2.22-18.4,6.42-67.85-6.56-106A12.33,12.33,0,0,0,628,62a763.75,763.75,0,0,0-100.5-6.65Z"/><polygon class="cls-26" points="418.27 250.67 421.97 275.53 477.17 273.68 470.85 248.91 418.27 250.67"/><polygon class="cls-28" points="495.42 234.84 510.61 253.44 477.17 273.68 470.85 248.91 495.42 234.84"/><ellipse class="cls-32" cx="480.08" cy="226.3" rx="15.68" ry="29.54" transform="translate(-11.13 25.3) rotate(-2.98)"/><path class="cls-33" d="M424.21,139.69s.08,12.93-1.06,13.88L409.84,164.5"/><path class="cls-30" d="M263.32,196.86a58.15,58.15,0,0,1-6.16-.3,6.74,6.74,0,0,1-5.89-5.32c-4-18.57-12.45-65.87-3.41-103.7A6.89,6.89,0,0,1,253,82.39c40.19-9.44,84.7-14.23,132.29-14.23,6.68,0,13.5.1,20.27.29a6.79,6.79,0,0,1,6.5,5.71c3.65,22.73,5.28,60.8,3.12,72.23-2.25,3.2-20.06,14.56-60.77,29.22C317.4,188.91,283.36,196.86,263.32,196.86Z"/><path class="cls-31" d="M385.24,62.74V73.59c6.63,0,13.4.09,20.11.28a1.38,1.38,0,0,1,1.3,1.15c3.7,23,4.94,57,3.4,68.76-1.69,1.43-6.51,4.9-18.76,10.78a439.46,439.46,0,0,1-41.24,16.83c-35.42,12.55-67.84,20-86.73,20a55.93,55.93,0,0,1-5.6-.26,1.36,1.36,0,0,1-1.15-1.08c-4-18.21-12.21-64.55-3.43-101.29a1.45,1.45,0,0,1,1.06-1.12c39.78-9.35,83.86-14.09,131-14.09V62.74m0,0c-67.09,0-112.88,9.52-133.53,14.37a12.3,12.3,0,0,0-9.12,9.17c-9.37,39.17-.56,88,3.38,106.11A12.19,12.19,0,0,0,256.59,202a64.51,64.51,0,0,0,6.73.32c48.05,0,154.46-42,157-54.42,2.53-12.15.72-51.41-3-74.56A12.21,12.21,0,0,0,405.66,63q-10.52-.3-20.42-.29Z"/><path class="cls-34" d="M510.86,152.71c-20.25,0-36.69-17.24-37.43-39.26-.75-22.32,15.35-41,35.88-41.73l1.18,0c20.25,0,36.69,17.24,37.43,39.25a42.08,42.08,0,0,1-10.06,29.12A35.56,35.56,0,0,1,512,152.69Z"/><path class="cls-35" d="M510.49,76.09a31.39,31.39,0,0,1,22.68,10,38.63,38.63,0,0,1,1.37,51.15,31.22,31.22,0,0,1-22.66,11.11l-1,0a31.41,31.41,0,0,1-22.69-9.95,38.66,38.66,0,0,1-1.37-51.15,31.22,31.22,0,0,1,22.66-11.11l1,0h0m0-8.78-1.32,0c-23,.77-41,21.49-40.13,46.27.81,24.31,19.41,43.5,41.82,43.5l1.32,0c23-.77,41-21.49,40.13-46.27-.82-24.31-19.41-43.5-41.82-43.5Z"/><path class="cls-34" d="M353.16,161.09c-20.25,0-36.69-17.24-37.43-39.26-.75-22.32,15.34-41,35.88-41.73l1.18,0c20.25,0,36.69,17.24,37.43,39.25.75,22.33-15.35,41.05-35.89,41.74Z"/><path class="cls-35" d="M352.79,84.47a31.39,31.39,0,0,1,22.68,10,37.75,37.75,0,0,1,10.36,25.06c.66,19.9-13.53,36.59-31.65,37.2l-1,0a31.44,31.44,0,0,1-22.69-9.95,37.76,37.76,0,0,1-10.35-25.06c-.67-19.91,13.52-36.59,31.64-37.2l1,0h0m0-8.78-1.33,0c-23,.77-40.95,21.49-40.12,46.27.81,24.31,19.41,43.5,41.82,43.5l1.32,0c23-.78,41-21.49,40.12-46.27-.81-24.31-19.41-43.5-41.81-43.5Z"/><ellipse class="cls-36" cx="481.32" cy="227.85" rx="6.81" ry="14.74" transform="translate(-7.37 16.28) rotate(-1.92)"/><path class="cls-37" d="M414,240.3c-23.07,4.19-122.17,53.49-122.17,53.49s.56,130.75,4.66,138.75C298.41,442,299,453.93,321.16,475c7.18,3.41,10.25,12.6,153.18,8.27"/><path class="cls-37" d="M495.56,233.5s126.7-4.13,132.07-1.9c0,0,8,108.5,7,115"/><ellipse class="cls-38" cx="359.65" cy="120.77" rx="15.54" ry="18.47" transform="translate(-3.85 12.13) rotate(-1.92)"/><ellipse class="cls-38" cx="517.38" cy="113.01" rx="15.54" ry="18.47" transform="matrix(1, -0.03, 0.03, 1, -3.5, 17.42)"/><path class="cls-15" d="M620.29,164.46l-42,102.07c-7.69,17.15-10.09,30.5,5.9,39h0c16.47,6.56,22-1.12,31.58-15.82l66.13-97.9a33,33,0,0,0-13.63-44.53h0C652.24,138.78,628.79,148.47,620.29,164.46Z"/><path class="cls-16" d="M617,172.19,571.51,277.81C563.82,295,599.42,315.7,609,301l66.13-97.91a33,33,0,0,0-13.62-44.53h0A33,33,0,0,0,617,172.19Z"/><path class="cls-17" d="M649.81,150.76s-5.2-2-14.46,2.66c-3.64-13.75-7.58-48-3.5-51.64,2.78-2.46,9.27-4,15.44-5.17,5.54-1.08,10.69,3,10.16,8.59-1.6,16.8-4.81,42.63-4.81,42.63Z"/><path class="cls-18" d="M635.12,153.54c-3.64-13.75-11.35-46.43-7.27-50,2.78-2.46,9.19-4.57,15-6.09A8.11,8.11,0,0,1,653,106c-1.59,16.8-2,44.1-3,45.15A17,17,0,0,0,635.12,153.54Z"/><path class="cls-17" d="M670.56,158.55s-2.93-4.75-13.13-6.62c5.41-13.16,23-42.85,28.44-43.25,3.7-.28,9.78,2.45,15.43,5.22,5.07,2.49,6.71,8.83,2.89,13-11.43,12.41-29.61,31-29.61,31Z"/><path class="cls-18" d="M657.17,151.88c5.42-13.15,19.05-43.84,24.48-44.25,3.7-.27,10.09,1.92,15.6,4.21a8.11,8.11,0,0,1,2.89,13c-11.43,12.41-28.27,33.9-29.68,34.15A17,17,0,0,0,657.17,151.88Z"/><path class="cls-17" d="M680.6,180.8s1-5.5-5.44-13.66C687.93,160.87,709,149.7,713.38,153c3,2.25,3.42,2.45,5.81,8.27,2.15,5.23-.94,10.36-6.44,11.64A140.54,140.54,0,0,0,684,183Z"/><path class="cls-18" d="M675,166.94c12.77-6.27,31.58-20.82,35.91-17.52,3,2.24,4,2.26,6.62,7.62,2.47,5.08-1,10.27-6.44,11.64-16.32,4.09-29.62,13.12-30.84,12.38A17,17,0,0,0,675,166.94Z"/><path class="cls-17" d="M622.11,161l9.42-5s1.27-3.31,1.48-4c1.18-4.2-17.47-33.28-23.29-29.43s-12.29,10.74-11.84,13.14c0,.3-.2,3.57-.2,3.57S621.72,162.83,622.11,161Z"/><path class="cls-18" d="M620.64,165a22.69,22.69,0,0,1,4.9-5.5,38.49,38.49,0,0,1,6-3.5c3.84-2.07-17.46-33.28-23.28-29.42s-11,11-10.59,13.43S620.19,167.16,620.64,165Z"/><ellipse class="cls-19" cx="644.92" cy="187.95" rx="11.63" ry="12.9" transform="translate(-13.78 319.74) rotate(-27.56)"/><path class="cls-39" d="M463.26,335.24l-124.94,1.28a9.29,9.29,0,0,0-9.18,9.91l4.93,74a9.3,9.3,0,0,0,9.37,8.68l125.09-1.27a9.3,9.3,0,0,0,9.18-9.93l-5.08-74A9.29,9.29,0,0,0,463.26,335.24Z"/><path class="cls-40" d="M465.39,338.78l-125.22,1a7.24,7.24,0,0,0-7.16,7.72l5,74.37a7.22,7.22,0,0,0,7.26,6.75l125.22-.83a7.24,7.24,0,0,0,7.17-7.71l-4.95-74.56A7.24,7.24,0,0,0,465.39,338.78Z"/><path class="cls-41" d="M386.05,377l77-1.33a4.66,4.66,0,0,0,4.52-4.77L466,349.07a4.66,4.66,0,0,0-4.77-4.52l-77,1.33a4.67,4.67,0,0,0-4.52,4.77l1.63,21.87A4.66,4.66,0,0,0,386.05,377Z"/><ellipse class="cls-42" cx="449.32" cy="360.52" rx="9" ry="11.25" transform="translate(-14.84 19.32) rotate(-2.42)"/><ellipse class="cls-43" cx="422.15" cy="360.76" rx="9" ry="11.25" transform="translate(-14.88 18.18) rotate(-2.42)"/><ellipse class="cls-44" cx="395.55" cy="361.79" rx="9" ry="11.25" transform="translate(-14.95 17.05) rotate(-2.42)"/><path class="cls-45" d="M402.19,395.54l60.66-.78a4.85,4.85,0,0,0,4.69-5h0a4.85,4.85,0,0,0-5-4.69l-60.66.77a4.85,4.85,0,0,0-4.69,5h0A4.86,4.86,0,0,0,402.19,395.54Z"/><path class="cls-46" d="M437.85,424.29l26.93-.51a4.85,4.85,0,0,0,4.7-5h0a4.85,4.85,0,0,0-5-4.69l-26.94.5a4.87,4.87,0,0,0-4.7,5h0A4.87,4.87,0,0,0,437.85,424.29Z"/><path class="cls-46" d="M436.94,410.74l26.94-.5a4.85,4.85,0,0,0,4.69-5h0a4.86,4.86,0,0,0-5-4.7l-26.94.5a4.85,4.85,0,0,0-4.69,5h0A4.85,4.85,0,0,0,436.94,410.74Z"/><polygon class="cls-47" points="371 346.75 334.13 346.84 339.17 422.4 376.39 421.86 371 346.75"/><ellipse class="cls-48" cx="340.84" cy="355.23" rx="4.02" ry="4.66" transform="translate(-22.88 23.46) rotate(-3.81)"/><path class="cls-49" d="M340.53,350.58s-1.39,5.86.87,9.28"/><path class="cls-49" d="M344.85,355s-5.07,1.55-8,.54"/><ellipse class="cls-50" cx="370.39" cy="415.65" rx="4.02" ry="4.66" transform="matrix(1, -0.07, 0.07, 1, -26.83, 25.56)"/><path class="cls-49" d="M370.08,411s-1.39,5.86.88,9.28"/><path class="cls-49" d="M374.4,415.38s-5.07,1.54-8,.53"/><ellipse class="cls-51" cx="344.16" cy="415.84" rx="4.02" ry="4.66" transform="translate(-26.9 23.82) rotate(-3.81)"/><path class="cls-49" d="M343.85,411.19s-1.39,5.86.87,9.28"/><path class="cls-49" d="M348.17,415.57s-5.07,1.55-8,.54"/><ellipse class="cls-52" cx="363.66" cy="354.78" rx="4.02" ry="4.66" transform="translate(-22.8 24.98) rotate(-3.81)"/><path class="cls-49" d="M363.35,350.13s-1.39,5.86.88,9.28"/><path class="cls-49" d="M367.67,354.51s-5.06,1.54-8,.53"/><path class="cls-53" d="M467.54,389.78s-10.67-2.6-20.26,1.35-10.61-4.78-15.14-4.36-5.15,7.14-11.36,6.87-4.33-2.76-7.25-2.55-2.72,3.27-5.51,3.09-4.52-8.65-6.12-8.32"/><path class="cls-9" d="M466.22,514a65.35,65.35,0,0,1,2.16-10.71c4.2-14.65,17.31-59,29.29-85.72,7.05-15.73,11.3-26.49,15-34.54a67.23,67.23,0,0,1,18.46-24c5.27-4.34,11.33-9.23,20.55-12.95,12-4.87,25.11-4.94,38-3.32,32.09,4,49.28,4.49,55.58,6.39,6.23,4.16,33,31.75,35.09,55.3,1.47,17,.4,40.16-11.35,58.55s-58.88,106.43-79.91,108.48c-24.55,2.38-87.71-.34-106.27-13.48C466.13,546.17,464.33,531,466.22,514Z"/><path class="cls-10" d="M577.63,568.9c-8.26,0-15-1.93-20.59-5.9C542,552.31,540.09,539,542,522.35a61.33,61.33,0,0,1,2-10.12c3.8-13.24,17.13-58.51,29.11-85.25,3.9-8.69,7-16,9.5-21.9,2.06-4.86,3.83-9.05,5.46-12.62a64.13,64.13,0,0,1,17.49-22.77c4.74-3.91,10.64-8.77,19.62-12.4a61.21,61.21,0,0,1,23.06-4.43,65.32,65.32,0,0,1,12.89,1.3c22.09,4.48,37.22,14.85,43.69,19.28l1.56,1.06.8.53c19.79,13.09,30.44,26.77,31.65,40.67,1.38,15.83.63,38.45-10.8,56.33-5.19,8.13-25.95,27.53-51.66,48.28-26.35,21.27-49,36.74-57.58,39.42l-4.3,1.35C602.87,564.74,589.7,568.9,577.63,568.9Z"/><path d="M648.24,349.3v7.12h0a61.83,61.83,0,0,1,12.18,1.23c21.38,4.34,36.1,14.42,42.39,18.72.61.42,1.14.79,1.6,1.09l.8.54a102,102,0,0,1,17.45,14c7.68,7.95,11.93,16,12.63,24,2.41,27.68-4.25,44.7-10.26,54.1-4.92,7.72-25.86,27.22-50.9,47.43-25.62,20.69-48.29,36.27-56.39,38.79-1.42.43-2.85.89-4.32,1.35-11.38,3.59-24.27,7.66-35.79,7.66-7.49,0-13.56-1.71-18.53-5.24-6.45-4.57-10.56-9.92-12.56-16.35-1.72-5.57-2-12-1-21a57.6,57.6,0,0,1,1.92-9.54C551.2,500,564.48,455,576.36,428.44c3.91-8.73,7-16.07,9.53-22,2-4.83,3.81-9,5.42-12.54a60.71,60.71,0,0,1,16.51-21.49c4.55-3.75,10.22-8.42,18.69-11.85a57.64,57.64,0,0,1,21.73-4.17V349.3m0,0A64.91,64.91,0,0,0,623.85,354c-9.23,3.73-15.29,8.61-20.56,12.95a67.34,67.34,0,0,0-18.46,24c-3.66,8-7.91,18.81-15,34.55-12,26.72-25.08,71.07-29.29,85.72A66,66,0,0,0,538.42,522c-1.89,16.93-.1,32.15,16.56,43.95,6.76,4.79,14.53,6.55,22.65,6.55,14.16,0,29.39-5.35,42.22-9.33,20.18-6.27,99.44-70.8,111.18-89.19s12.83-41.56,11.35-58.55c-2-23.54-27.79-39.7-34-43.85-5.29-3.53-21.69-15.83-46.52-20.87a68.58,68.58,0,0,0-13.6-1.37Z"/><ellipse class="cls-11" cx="684.25" cy="430.43" rx="37.89" ry="47.42" transform="translate(-7.92 12.85) rotate(-1.07)"/><ellipse class="cls-11" cx="637.23" cy="498.77" rx="27.14" ry="33.97" transform="translate(-9.2 11.99) rotate(-1.07)"/><ellipse class="cls-11" cx="583.66" cy="526.5" rx="21.36" ry="26.73" transform="translate(-9.73 10.99) rotate(-1.07)"/><ellipse class="cls-12" cx="686.67" cy="430.38" rx="12.88" ry="17.72" transform="translate(-7.92 12.9) rotate(-1.07)"/><ellipse class="cls-12" cx="638.46" cy="500.1" rx="11.12" ry="15.3" transform="translate(-107.84 182.66) rotate(-15.03)"/><ellipse class="cls-12" cx="583.69" cy="528.32" rx="8.24" ry="11.33" transform="translate(-117.03 169.42) rotate(-15.03)"/><path class="cls-13" d="M568.08,490.9s5.61-12.34,24.3-6.91c3.09-8,9.36-29.46,42.26-28.12-1.86-7.23-15.81-38.34,7.58-70.14-9.76-4-15.81-6.62-27.51,8.82S566.62,487.24,568.08,490.9Z"/><line class="cls-14" x1="512.81" y1="382.67" x2="586.62" y2="387.36"/><line class="cls-14" x1="553.91" y1="345.21" x2="636.07" y2="350.42"/><polyline class="cls-14" points="647.79 351.17 669.59 352.55 669.6 352.55"/><line class="cls-14" x1="493.07" y1="428.53" x2="566.59" y2="433.19"/><line class="cls-14" x1="477.23" y1="473.94" x2="550.48" y2="478.58"/><line class="cls-14" x1="465.68" y1="520.84" x2="538.09" y2="525.43"/><ellipse class="cls-54" cx="329.11" cy="283.7" rx="9.94" ry="3.03" transform="translate(-55.85 82.19) rotate(-13.13)"/><line class="cls-55" x1="420.75" y1="76.02" x2="441.31" y2="74.24"/></svg>