<svg id="Layer_1" data-name="Layer 1" xmlns="http://www.w3.org/2000/svg" xmlns:xlink="http://www.w3.org/1999/xlink" viewBox="0 0 906 603.01"><defs><style>.cls-1{fill:#757575;}.cls-2{fill:#00b1ff;}.cls-3{fill:#15bdf9;}.cls-4{fill:#fff;}.cls-5{fill:#626c72;}.cls-6{fill:#96a5b3;}.cls-7{fill:#2f3e4a;}.cls-8{fill:#222d35;}.cls-9{fill:#353535;stroke-width:0.72px;}.cls-40,.cls-41,.cls-59,.cls-9{stroke:#000;}.cls-18,.cls-40,.cls-41,.cls-9{stroke-linejoin:round;}.cls-10{fill:#4d4d4d;}.cls-11{fill:#b3b3b3;}.cls-12{fill:#f9f7f7;opacity:0.41;}.cls-13{fill:#d3161d;}.cls-14,.cls-22,.cls-44{fill:#945320;}.cls-14,.cls-15,.cls-16,.cls-17,.cls-18,.cls-19{stroke:#050505;}.cls-14,.cls-15,.cls-16,.cls-17,.cls-19,.cls-32,.cls-33,.cls-34,.cls-35,.cls-36,.cls-37,.cls-38,.cls-39,.cls-43,.cls-44,.cls-56,.cls-57,.cls-58,.cls-59{stroke-miterlimit:10;}.cls-14,.cls-17{stroke-width:0.86px;}.cls-15{fill:#1e1e1e;}.cls-15,.cls-16,.cls-18{stroke-width:0.89px;}.cls-16,.cls-18,.cls-19,.cls-45{fill:#3a3a3a;}.cls-17,.cls-20,.cls-59{fill:#f8c946;}.cls-19{stroke-width:1.29px;}.cls-21{fill:#683919;}.cls-23{fill:#7f1119;}.cls-24{fill:#5e0e18;}.cls-25{fill:#352f49;}.cls-26{fill:#e41e00;}.cls-27{fill:#fffe28;}.cls-28{fill:#18ff08;}.cls-29{fill:#dbdddd;}.cls-30{fill:#0fb0db;}.cls-31{fill:#303435;}.cls-32,.cls-33,.cls-34,.cls-35,.cls-36,.cls-58{stroke:#0a0a0a;}.cls-32,.cls-33,.cls-34,.cls-35,.cls-36{stroke-width:0.38px;}.cls-32{fill:url(#radial-gradient);}.cls-33,.cls-37,.cls-38,.cls-58{fill:none;}.cls-34{fill:url(#radial-gradient-2);}.cls-35{fill:url(#radial-gradient-3);}.cls-36{fill:url(#radial-gradient-4);}.cls-37,.cls-38,.cls-43,.cls-44{stroke:#070707;}.cls-37{stroke-width:0.49px;}.cls-38,.cls-39{stroke-width:0.98px;}.cls-39{fill:#adadad;stroke:#080000;}.cls-40{fill:#515051;stroke-width:0.98px;}.cls-41{fill:#8e8a8b;}.cls-41,.cls-43,.cls-44{stroke-width:0.85px;}.cls-42{fill:#161616;}.cls-43{fill:#e2b647;}.cls-46{fill:#666;}.cls-47{fill:#aa161d;}.cls-48{fill:#dddbd7;}.cls-49{fill:#212121;}.cls-50{fill:#282828;}.cls-51{fill:#7c7c7c;}.cls-52{fill:#389cce;}.cls-53{fill:#bfbfbf;}.cls-54,.cls-56{fill:#f2f2f2;}.cls-55{fill:#d3d3d3;}.cls-56{stroke:#bfbfbf;}.cls-56,.cls-57,.cls-58{stroke-width:0.58px;}.cls-57{fill:#020202;stroke:#020202;}.cls-59{stroke-width:0.41px;}</style><radialGradient id="radial-gradient" cx="-7134.72" cy="-599.33" r="3.77" gradientTransform="matrix(-1.58, 0, 0, 1.58, -11027.54, 1307.03)" gradientUnits="userSpaceOnUse"><stop offset="0.2" stop-color="#666"/><stop offset="0.57" stop-color="#585858"/><stop offset="1" stop-color="#4d4d4d"/></radialGradient><radialGradient id="radial-gradient-2" cx="-7149.97" cy="-562.07" r="3.77" gradientTransform="matrix(-1.58, 0, 0, 1.58, -11025.61, 1306.2)" xlink:href="#radial-gradient"/><radialGradient id="radial-gradient-3" cx="-7134.29" cy="-562.99" r="3.77" gradientTransform="matrix(-1.58, 0, 0, 1.58, -11025.64, 1307.02)" xlink:href="#radial-gradient"/><radialGradient id="radial-gradient-4" cx="-7148.38" cy="-598.69" r="3.77" gradientTransform="matrix(-1.58, 0, 0, 1.58, -11027.52, 1306.31)" xlink:href="#radial-gradient"/></defs><title>speed</title><path class="cls-1" d="M41.94,16H866.17A39.83,39.83,0,0,1,906,55.82V562.3a39.83,39.83,0,0,1-39.81,39.82H41.94A39.84,39.84,0,0,1,2.12,562.3V55.82A39.84,39.84,0,0,1,41.94,16Z"/><path class="cls-2" d="M905.52,40.69V547.17A39.83,39.83,0,0,1,865.71,587H41.48A39.84,39.84,0,0,1,1.66,547.17h0V40.69A39.84,39.84,0,0,1,41.48.87H865.71A39.83,39.83,0,0,1,905.52,40.69Z"/><path class="cls-3" d="M905.51,34.72H2.6A39.79,39.79,0,0,1,41.94,1.27H866.17A39.92,39.92,0,0,1,905.51,34.72Z"/><path class="cls-4" d="M866.17,14.43a26.29,26.29,0,0,1,26.26,26.26V547.17a26.29,26.29,0,0,1-26.26,26.26H41.94a26.29,26.29,0,0,1-26.26-26.26V40.69A26.29,26.29,0,0,1,41.94,14.43H866.17m0-13.56H41.94A39.84,39.84,0,0,0,2.12,40.69V547.17A39.84,39.84,0,0,0,41.94,587H866.17A39.83,39.83,0,0,0,906,547.17V40.69A39.83,39.83,0,0,0,866.17.87Z"/><circle class="cls-5" cx="860.51" cy="46.02" r="18.71"/><circle class="cls-6" cx="860.51" cy="46.02" r="16.72"/><polygon class="cls-7" points="871.18 41.24 869.99 52.87 859.32 57.65 849.84 50.8 850.96 39.17 861.71 34.4 871.18 41.24"/><path class="cls-8" d="M871.18,41.25l-.55,5.25A14.6,14.6,0,0,0,861,40.85a13.68,13.68,0,0,0-10.59,3.58l.56-5.26,10.67-4.77Z"/><circle class="cls-5" cx="47.59" cy="46.02" r="18.71"/><circle class="cls-6" cx="47.59" cy="46.02" r="16.72"/><polygon class="cls-7" points="57.78 40.13 57.78 51.92 47.59 57.73 37.48 51.92 37.48 40.13 47.59 34.32 57.78 40.13"/><path class="cls-8" d="M57.79,40.13v5.34a14.83,14.83,0,0,0-10.12-4.62c-6.29-.24-10.19,4.62-10.19,4.62V40.13l10.11-5.81Z"/><circle class="cls-5" cx="47.59" cy="539.05" r="18.71"/><circle class="cls-6" cx="47.59" cy="539.05" r="16.72"/><polygon class="cls-7" points="59.3 538.17 54.2 548.76 42.49 549.56 35.88 539.84 40.98 529.33 52.69 528.46 59.3 538.17"/><path class="cls-8" d="M59.3,538.17,57,543a14.61,14.61,0,0,0-7.09-8.6,13.25,13.25,0,0,0-11.15-.24l2.31-4.78,11.71-.87Z"/><circle class="cls-5" cx="857.96" cy="538.97" r="18.71"/><circle class="cls-6" cx="857.96" cy="538.97" r="16.72"/><polygon class="cls-7" points="866.64 531.08 869.11 542.55 860.35 550.44 849.2 546.77 846.82 535.3 855.58 527.5 866.64 531.08"/><path class="cls-8" d="M866.64,531.08l1.12,5.18a14.39,14.39,0,0,0-10.91-2.39c-6.13,1.12-9,6.61-9,6.61l-1.11-5.17,8.76-7.81Z"/><path class="cls-9" d="M162.83,486.43a62.29,62.29,0,0,1,2.24-10.18c4.28-13.91,17.58-56,29.49-81.3,7-14.9,11.26-25.09,14.9-32.71a64.38,64.38,0,0,1,18-22.61c5.11-4.05,11-8.61,19.85-12,11.57-4.43,24.06-4.26,36.32-2.49,30.56,4.43,47,5.17,52.94,7.1,5.87,4.07,31,30.89,32.5,53.4,1.11,16.24-.33,38.34-11.87,55.68S299.15,541.87,279,543.44c-23.48,1.84-83.72-1.88-101.19-14.76C162.16,517.12,160.72,502.56,162.83,486.43Z"/><path class="cls-10" d="M269.15,540.81c-8.32,0-15-2-20.51-6-14.22-10.47-15.75-23.19-13.67-39.07a58.86,58.86,0,0,1,2.12-9.62c3.87-12.57,17.4-55.54,29.32-80.85,3.87-8.23,7-15.17,9.45-20.74,2.05-4.6,3.82-8.57,5.44-11.95a61.17,61.17,0,0,1,17.1-21.42c4.59-3.64,10.31-8.18,18.94-11.49a58.62,58.62,0,0,1,21-3.82,62.23,62.23,0,0,1,13.43,1.48c21,4.67,35.26,14.84,41.35,19.18l1.47,1,.75.51c18.66,12.85,28.59,26.1,29.5,39.4,1,15.13-.1,36.7-11.32,53.57-5.1,7.66-25.26,25.81-50.17,45.16-25.53,19.83-47.38,34.19-55.66,36.6L303.51,534C292.68,537.18,280.4,540.81,269.15,540.81Z"/><path d="M338.3,332.44v6.8a58.51,58.51,0,0,1,12.68,1.4c20.33,4.52,34.2,14.4,40.12,18.62l1.51,1.07.76.53a97.33,97.33,0,0,1,16.4,13.67c7.19,7.73,11.1,15.52,11.62,23.15,1.81,26.46-4.84,42.58-10.75,51.45-4.84,7.28-25.17,25.52-49.43,44.37-24.83,19.28-46.74,33.76-54.52,36l-4.14,1.22c-10.61,3.13-22.64,6.68-33.4,6.68-7.57,0-13.62-1.75-18.5-5.34-6.07-4.48-9.9-9.66-11.69-15.83-1.55-5.35-1.74-11.53-.62-20.07a55.72,55.72,0,0,1,2-9.07c3.85-12.51,17.32-55.29,29.14-80.39,3.89-8.27,7-15.22,9.48-20.81,2-4.57,3.81-8.52,5.41-11.87a57.88,57.88,0,0,1,16.14-20.22c4.41-3.5,9.9-7.85,18.05-11a55,55,0,0,1,19.74-3.6v-6.8m0,0a62,62,0,0,0-22.17,4.05c-8.87,3.39-14.74,7.95-19.85,12a64.38,64.38,0,0,0-18,22.61c-3.64,7.62-7.89,17.81-14.9,32.71-11.9,25.29-25.21,67.39-29.49,81.3a62.29,62.29,0,0,0-2.24,10.18c-2.11,16.13-.67,30.69,15,42.25,6.65,4.9,14.4,6.67,22.53,6.67,13.23,0,27.43-4.69,39.43-8.17,19.38-5.62,96.18-65.8,107.72-83.14s13-39.45,11.88-55.69c-1.54-22.51-25.82-38.39-31.7-42.46-5-3.46-20.41-15.5-44-20.75a65.62,65.62,0,0,0-14.15-1.56Z"/><ellipse class="cls-11" cx="372.43" cy="410.53" rx="36.17" ry="45.27"/><ellipse class="cls-11" cx="326.33" cy="474.92" rx="25.91" ry="32.43"/><ellipse class="cls-11" cx="274.7" cy="500.44" rx="20.39" ry="25.52"/><path class="cls-12" d="M194.56,395l16-17,.45,38.59S240,363,239.59,365.26s-8.76,32.65-8.76,32.65l19.33-20-8.3,32.6,20.43-19.68-4.54,16.59,8-8.81-34.92,57.16,7.85-28.35-22.25,28.35L223.7,422l-18.62,25.42-.45-36.9-9.3,16.95,9.3-33.83-14.07,26.54Z"/><polygon class="cls-12" points="278.52 324.5 254.31 336.67 278.52 330.59 259.61 343.28 295.09 330 288.37 336.67 313.26 328.94 278.52 324.5"/><ellipse class="cls-13" cx="374.74" cy="410.53" rx="12.3" ry="16.91"/><ellipse class="cls-13" cx="327.48" cy="476.21" rx="10.62" ry="14.6" transform="translate(-105.2 93.06) rotate(-13.96)"/><ellipse class="cls-13" cx="274.7" cy="502.18" rx="7.87" ry="10.82" transform="translate(-113.02 81.09) rotate(-13.96)"/><path class="cls-14" d="M395.18,235.8c2,5.42,3.33,15.25-4.51,30.45-4.48,5.82-11.41,11-20.59,14.42-7.27,2.72-62.86,21.11-85.77,28.67l-2.56,12.59-14.87-8.73,0,0a8.94,8.94,0,0,1-2.65-2.38c-1.79-3.36-3.8-10.8-3.13-19.06,1.34-3.32,1-3,5.73-6l93.66-59.59s14.9-8.11,25.43-2.6l1.28.75,0,0,13.63,8Z"/><path class="cls-15" d="M395.11,229.87S421.4,198.23,429.48,203s12.14,10,11.35,15.11S406.39,236.85,404,237.69,404.46,230.22,395.11,229.87Z"/><path class="cls-16" d="M398,234.41s26.3-31.64,34.37-26.84,12.14,10,11.35,15.1-34.44,18.72-36.81,19.56S407.32,234.76,398,234.41Z"/><path class="cls-15" d="M404.27,243.28c5.85-1.27,43.8-10.33,47.23-1.58,3.14,8,2.69,14.13-1.6,17.53s-41.45-4.58-44-5.23S411.63,248.61,404.27,243.28Z"/><path class="cls-16" d="M408,247.06s41.41-10.43,44.54-2.43,3.22,15.67-1.07,19.07-39.3-5.27-41.83-5.92S415.4,252.39,408,247.06Z"/><path class="cls-15" d="M405.25,259.32s31.31,2.64,31.88,10.29-.91,12.82-4.43,14.69S405.87,270.13,404.3,269,409.15,265.72,405.25,259.32Z"/><path class="cls-16" d="M405.25,263.85s31.31,2.64,31.88,10.29-.91,12.82-4.43,14.69-26.83-14.17-28.4-15.35S409.15,270.26,405.25,263.85Z"/><path class="cls-17" d="M281.75,294.51l93.66-59.59s24.17-13.16,32.68,5.41c1.79,3.14,8.28,13.88-2.46,34.7-4.48,5.82-11.41,11-20.6,14.43s-95.58,31.91-95.58,31.91-5.6,4.25-10.3-1.79c-1.79-3.36-3.81-10.81-3.13-19.06C277.36,297.19,277.06,297.49,281.75,294.51Z"/><path class="cls-15" d="M380.8,226.51s2.81-37.14,10.81-37.8S405,189.81,407,194s-14.2,31.25-15.44,33.1c-.77-.17-6.19,2.83-6.19,2.83S383.79,228.88,380.8,226.51Z"/><path class="cls-18" d="M385.34,229.91s2.82-37.14,10.82-37.8,13.41,1.1,15.35,5.27-14.19,31.24-15.43,33.1C394.6,230.15,392.05,225.29,385.34,229.91Z"/><ellipse class="cls-19" cx="388.6" cy="259.32" rx="10.37" ry="12.12"/><path class="cls-20" d="M231.79,298.18s86.28-41.4,125.06-48.21c0,0,104.31-5.63,194.13.17-10.61,7.9-101.62,45.65-114.53,48.21S266.3,303.19,231.79,298.18Z"/><path class="cls-21" d="M408.13,288.71s35.08-20.63,38.64-21.81-67.35-3.47-67.35-3.47S345.35,282.85,343.06,285,408.13,288.71,408.13,288.71Z"/><path class="cls-22" d="M552.09,249.92s8.37,148.6-2.71,186.2c-11.08,9.39-87.64,44.09-112.13,44.09-2.76-17-6.44-169.68.31-182.08C446.66,291,514.78,260.52,552.09,249.92Z"/><path class="cls-13" d="M231.79,298.18s-2.77,75.95,0,131.68c1.07,21.47,21.73,42.33,25.21,43.13,7.86,7.2,187.87,11.31,198.57,4.08,0,0-20-15.78-19.82-45.39.26-37,1.69-88.76,1.81-133.55C430.87,294.67,264.08,293.32,231.79,298.18Z"/><path class="cls-23" d="M393,342.93l-118.48-2.77a8.83,8.83,0,0,0-9,9.11l2.32,70.29a8.83,8.83,0,0,0,8.61,8.52L395,430.86a8.81,8.81,0,0,0,9-9.12l-2.45-70.3A8.83,8.83,0,0,0,393,342.93Z"/><path class="cls-24" d="M394.89,346.35l-118.73-3a6.86,6.86,0,0,0-7,7.08l2.33,70.66a6.86,6.86,0,0,0,6.68,6.63l118.72,3.19a6.86,6.86,0,0,0,7-7.08L401.57,353A6.85,6.85,0,0,0,394.89,346.35Z"/><path class="cls-25" d="M318.47,380.1l73.06,1.19A4.43,4.43,0,0,0,396,376.9l-.85-20.78a4.42,4.42,0,0,0-4.38-4.43l-73.07-1.19a4.41,4.41,0,0,0-4.43,4.38l.85,20.78A4.42,4.42,0,0,0,318.47,380.1Z"/><ellipse class="cls-26" cx="378.97" cy="366.45" rx="8.54" ry="10.67" transform="translate(-3.19 3.33) rotate(-0.5)"/><ellipse class="cls-27" cx="353.2" cy="365.81" rx="8.54" ry="10.67" transform="translate(-3.19 3.1) rotate(-0.5)"/><ellipse class="cls-28" cx="327.96" cy="365.94" rx="8.54" ry="10.67" transform="translate(-3.19 2.88) rotate(-0.5)"/><path class="cls-29" d="M333.18,398.14l57.52,1.2a4.6,4.6,0,0,0,4.61-4.58h0a4.6,4.6,0,0,0-4.57-4.6L333.21,389a4.61,4.61,0,0,0-4.61,4.58h0A4.61,4.61,0,0,0,333.18,398.14Z"/><path class="cls-30" d="M366.06,426.53l25.55.38a4.6,4.6,0,0,0,4.61-4.57h0a4.6,4.6,0,0,0-4.57-4.61l-25.55-.38a4.6,4.6,0,0,0-4.61,4.57h0A4.61,4.61,0,0,0,366.06,426.53Z"/><path class="cls-30" d="M365.64,413.66l25.55.38a4.59,4.59,0,0,0,4.6-4.57h0a4.6,4.6,0,0,0-4.57-4.61l-25.55-.38a4.59,4.59,0,0,0-4.6,4.57h0A4.6,4.6,0,0,0,365.64,413.66Z"/><polygon class="cls-31" points="305.17 350.91 270.22 349.81 272.59 421.6 307.88 422.27 305.17 350.91"/><ellipse class="cls-32" cx="276.3" cy="357.98" rx="3.81" ry="4.42" transform="translate(-11.67 9.32) rotate(-1.89)"/><path class="cls-33" d="M276.16,353.57s-1.51,5.51.54,8.82"/><path class="cls-33" d="M280.12,357.86s-4.86,1.3-7.63.25"/><ellipse class="cls-34" cx="302.4" cy="416.19" rx="3.81" ry="4.42" transform="translate(-13.57 10.21) rotate(-1.89)"/><path class="cls-33" d="M302.25,411.77s-1.5,5.52.54,8.83"/><path class="cls-33" d="M306.21,416.06s-4.85,1.31-7.63.26"/><ellipse class="cls-35" cx="277.52" cy="415.54" rx="3.81" ry="4.42" transform="translate(-13.57 9.39) rotate(-1.89)"/><path class="cls-33" d="M277.38,411.13s-1.51,5.51.53,8.82"/><path class="cls-33" d="M281.34,415.42s-4.86,1.3-7.63.25"/><ellipse class="cls-36" cx="297.96" cy="358.28" rx="3.81" ry="4.42" transform="translate(-11.66 10.03) rotate(-1.89)"/><path class="cls-33" d="M297.81,353.86s-1.5,5.51.54,8.83"/><path class="cls-33" d="M301.77,358.15s-4.86,1.3-7.63.25"/><path class="cls-37" d="M395.31,394.76s-10-2.8-19.25.64-9.91-4.87-14.21-4.62-5.11,6.61-11,6.16-4-2.76-6.8-2.65-2.69,3-5.32,2.75-4-8.34-5.54-8.08"/><path class="cls-38" d="M349.3,251.37c-22,3.24-117.51,46.81-117.51,46.81s-3.63,124,0,131.68c1.54,9,1.7,20.35,22.06,41,6.69,3.45,8.59,9.54,144.2,10"/><path class="cls-38" d="M426.84,247.52s120.23.11,125.25,2.4c0,0,4.08,103.1,3,109.22"/><path class="cls-9" d="M389.19,514.83a63.25,63.25,0,0,1,2.25-10.19c4.28-13.91,17.58-56,29.49-81.3,7-14.89,11.26-25.09,14.9-32.71A64.27,64.27,0,0,1,453.88,368c5.11-4,11-8.6,19.85-12,11.57-4.43,24.06-4.26,36.32-2.48C540.61,358,557,358.7,563,360.63c5.87,4.08,31,30.89,32.5,53.4,1.11,16.24-.34,38.34-11.87,55.69S525.51,570.26,505.4,571.83c-23.47,1.84-83.71-1.88-101.18-14.76C388.53,545.51,387.08,531,389.19,514.83Z"/><path class="cls-10" d="M495.51,569.2c-8.31,0-15-2-20.51-6-14.21-10.48-15.74-23.2-13.67-39.07a59.85,59.85,0,0,1,2.13-9.63c3.86-12.57,17.39-55.53,29.31-80.85,3.88-8.23,7-15.16,9.46-20.73,2-4.6,3.82-8.57,5.44-12a61.25,61.25,0,0,1,17.09-21.42c4.6-3.64,10.31-8.18,19-11.48a58.41,58.41,0,0,1,20.95-3.83,62.14,62.14,0,0,1,13.42,1.48c21,4.67,35.27,14.84,41.36,19.18l1.47,1,.75.52c18.66,12.85,28.59,26.1,29.49,39.39,1,15.13-.09,36.7-11.31,53.57-5.1,7.66-25.27,25.82-50.18,45.16-25.53,19.83-47.37,34.2-55.66,36.6l-4.12,1.21C519.05,565.58,506.77,569.2,495.51,569.2Z"/><path d="M564.66,360.83v6.8a58.6,58.6,0,0,1,12.69,1.4c20.33,4.52,34.2,14.41,40.12,18.63l1.5,1.06.77.53a98.23,98.23,0,0,1,16.4,13.67c7.19,7.73,11.1,15.52,11.62,23.15,1.81,26.46-4.85,42.59-10.75,51.46-4.84,7.27-25.17,25.51-49.43,44.36-24.83,19.28-46.74,33.76-54.52,36l-4.14,1.22c-10.62,3.13-22.64,6.68-33.41,6.68-7.56,0-13.61-1.75-18.49-5.34-6.08-4.48-9.9-9.66-11.69-15.83-1.55-5.34-1.74-11.53-.63-20.06a55.32,55.32,0,0,1,2-9.07c3.85-12.52,17.32-55.3,29.14-80.4,3.89-8.26,7-15.22,9.48-20.81,2-4.57,3.8-8.52,5.4-11.86a57.91,57.91,0,0,1,16.14-20.23c4.42-3.49,9.91-7.85,18.06-11a55,55,0,0,1,19.73-3.6v-6.8m0,0a61.92,61.92,0,0,0-22.16,4.05c-8.87,3.4-14.74,7.95-19.85,12a64.27,64.27,0,0,0-18,22.61c-3.64,7.62-7.89,17.82-14.9,32.71-11.91,25.29-25.21,67.39-29.49,81.3A63.25,63.25,0,0,0,458,523.69c-2.11,16.12-.66,30.68,15,42.24,6.65,4.9,14.4,6.67,22.52,6.67,13.23,0,27.44-4.69,39.44-8.17,19.37-5.61,96.18-65.8,107.72-83.14s13-39.44,11.87-55.68c-1.53-22.52-25.82-38.39-31.69-42.47-5-3.46-20.41-15.5-44-20.74a65.16,65.16,0,0,0-14.16-1.57Z"/><ellipse class="cls-11" cx="598.79" cy="438.92" rx="36.17" ry="45.27"/><ellipse class="cls-11" cx="552.7" cy="503.31" rx="25.91" ry="32.43"/><ellipse class="cls-11" cx="501.06" cy="528.83" rx="20.39" ry="25.52"/><path class="cls-12" d="M420.93,423.34l16-17,.45,38.59s29.06-53.49,28.6-51.26-8.75,32.65-8.75,32.65l19.33-20-8.31,32.6,20.43-19.67-4.54,16.58,8-8.81L457.2,484.19l7.85-28.36L442.8,484.19l7.26-33.83-18.61,25.42-.45-36.9-9.3,16.95L431,422l-14.08,26.54Z"/><polygon class="cls-12" points="504.88 352.9 480.67 365.07 504.88 358.98 485.97 371.67 521.46 358.39 514.74 365.07 539.62 357.33 504.88 352.9"/><ellipse class="cls-13" cx="601.11" cy="438.92" rx="12.3" ry="16.91"/><ellipse class="cls-13" cx="553.85" cy="504.6" rx="10.62" ry="14.6" transform="translate(-105.36 148.5) rotate(-13.96)"/><ellipse class="cls-13" cx="501.06" cy="530.57" rx="7.87" ry="10.82" transform="translate(-113.19 136.53) rotate(-13.96)"/><path class="cls-39" d="M486.82,494.57s5.59-11.68,23.33-6.17c3.09-7.54,9.45-27.95,40.83-26.08-1.64-6.94-14.41-36.87,8.49-66.81-9.25-4-15-6.61-26.42,7.92S485.5,491.05,486.82,494.57Z"/><path class="cls-40" d="M411.87,212.19l1,56-49.07,1.41c-8.2.15-15.09-12.26-15.38-27.73s6.14-28.14,14.35-28.29c2.76,0,5.36,1.32,7.64,3.75Z"/><polygon class="cls-41" points="363.03 170.15 375.6 186.59 388.92 186.34 381.68 169.8 363.03 170.15"/><path class="cls-42" d="M235.37,112.42c1,15-7.22,31.73-2.75,47.43a14.39,14.39,0,0,0,11.85,10.33c21.87,3,39.61,1.41,91.56-11l15.53,28,37.71-44.58,1.94-2.3h0a14.35,14.35,0,0,0,2.47-8.67,233.78,233.78,0,0,0-7.55-50.47,14.41,14.41,0,0,0-11-10.58C349.41,65.22,305,54.59,247.52,55c-5.1,0-10.57,3.09-15.47,6.87v0L204.62,87.33Z"/><polygon class="cls-43" points="348.45 170.42 399.55 169.47 397.48 247.32 349.01 247.09 348.45 170.42"/><polygon class="cls-44" points="437.94 191.97 423.39 226.98 397.48 247.32 399.55 169.47 437.94 191.97"/><path class="cls-42" d="M389.53,159.34a9.44,9.44,0,0,0,4-3.2Z"/><polygon class="cls-43" points="353.04 261.34 355.74 285.02 408.13 285.02 402.92 261.34 353.04 261.34"/><polygon class="cls-44" points="426.66 248.79 440.47 266.9 408.13 285.02 402.92 261.34 426.66 248.79"/><ellipse class="cls-45" cx="412.39" cy="240.2" rx="14.87" ry="28.02" transform="translate(-4.38 7.69) rotate(-1.06)"/><ellipse class="cls-46" cx="413.52" cy="241.71" rx="6.46" ry="13.98"/><path class="cls-13" d="M357.88,104s16.07,1.57,24.22,1.82c-4.71,22.73-10.08,40,1.86,72.33-22.5-2.71-22.83-1.41-22.83-1.41S369.64,142.36,357.88,104Z"/><polygon class="cls-47" points="357.88 104 380.63 83.27 398.52 84.71 377.1 105.58 357.88 104"/><line class="cls-42" x1="569.68" y1="192.08" x2="564.04" y2="197.2"/><path class="cls-42" d="M377.1,103.53l27.14,16.58a254.38,254.38,0,0,0,4.7,29.78,16.28,16.28,0,0,0,9.66,11.52c53.45,22.07,73.24,32.14,102.36,35.79l12.75,27.55L564,197.2h0l5.64-5.12a16,16,0,0,0,2.8-8.5c1.75-44-4.55-76.89-9.28-94.31A16.24,16.24,0,0,0,549.55,77.4c-51-6.48-100.1-8-132.13-5.53a16.18,16.18,0,0,0-10.92,5.42h0Z"/><path class="cls-48" d="M520.2,222.17c-21.12,0-51.63-4.54-131.28-37.43a10.73,10.73,0,0,1-6.36-7.6c-3.81-17.13-5.91-36.88-6.42-60.35A10.71,10.71,0,0,1,386,105.88c9.51-.72,20.41-1.08,32.42-1.08a808.93,808.93,0,0,1,98.6,6.58,10.67,10.67,0,0,1,9,7.81c.59,2.19,1.27,4.5,2,7,4.92,16.69,12.36,41.91,7.13,85.24-.74,6.13-5,10.54-10.38,10.71C523.23,222.14,521.69,222.17,520.2,222.17Z"/><path class="cls-49" d="M418.46,110.35a805.49,805.49,0,0,1,97.89,6.54,5.14,5.14,0,0,1,4.32,3.76c.61,2.25,1.3,4.59,2,7.06,5.08,17.22,12,40.81,6.94,83-.34,2.83-2,5.73-5,5.82-1.49.05-3,.08-4.4.08-20.54,0-50.4-4.49-129.16-37a5.16,5.16,0,0,1-3.05-3.66c-3.73-16.77-5.79-36.16-6.29-59.27a5.15,5.15,0,0,1,4.75-5.25c9.37-.71,20.13-1.07,32-1.07h0m0-11.11c-12.19,0-23.28.37-32.84,1.1a16.27,16.27,0,0,0-15,16.57c.64,29.52,3.67,48.48,6.55,61.44a16.28,16.28,0,0,0,9.67,11.52c76.4,31.56,109,37.85,133.4,37.85,1.62,0,3.2,0,4.76-.07,8.52-.28,14.7-7.14,15.72-15.61,6.12-50.68-4.56-76.89-9.28-94.31a16.26,16.26,0,0,0-13.65-11.87,811.5,811.5,0,0,0-99.3-6.62Z"/><path class="cls-50" d="M437.89,188.74q-.93,0-1.89-.06a32,32,0,0,1-22.86-11.86,37.34,37.34,0,0,1-8.35-26.22c1.15-19.14,15.93-34.13,33.66-34.13q.94,0,1.89.06a32,32,0,0,1,22.87,11.86,37.45,37.45,0,0,1,8.35,26.22c-1.15,19.14-15.94,34.13-33.66,34.13Z"/><path class="cls-51" d="M438.45,121.14c.53,0,1.08,0,1.61,0,15.84,1,27.88,15.83,26.84,33.15-1,16.68-13.74,29.75-29,29.75-.53,0-1.07,0-1.61-.05a27.43,27.43,0,0,1-19.55-10.18,32.77,32.77,0,0,1-7.29-23c1-16.68,13.75-29.74,29-29.74m0-9.33c-20.07,0-37,16.79-38.32,38.51-1.35,22.5,14.59,41.76,35.59,43,.73,0,1.46.06,2.17.06,20.08,0,37-16.79,38.32-38.51,1.35-22.49-14.58-41.75-35.59-43-.73,0-1.45-.06-2.17-.06Z"/><ellipse class="cls-52" cx="426.84" cy="156.14" rx="14.34" ry="12.07" transform="translate(245.38 572.85) rotate(-86.56)"/><polygon class="cls-42" points="350.6 183.58 361.13 176.74 362.82 167.43 351.97 167.98 350.6 183.58"/><path class="cls-48" d="M247,199.89c-13.52,0-24.24-1.37-34.61-2.69-1.73-.23-3.44-.44-5.12-.65-3.16-.39-6.76-2.42-7.2-5.42-6.69-46.08-1.15-76,4.66-92.93,2.08-6.06,5-9.18,8.81-9.27,2.79-.06,5.63-.1,8.43-.1,43.5,0,79.52,8,103.36,13.23,5.9,1.31,11,2.44,15.5,3.29a8.83,8.83,0,0,1,6.87,6.41c4.52,16.49,3.3,40.52,2.5,56.43l-.18,3.52c-.08,1.79-.77,7.73-6,9.46-38.46,12.77-69.3,18.72-97,18.72Z"/><path class="cls-49" d="M221.94,94.39c42.91,0,78.57,7.88,102.17,13.1,5.95,1.32,11.08,2.45,15.65,3.33a3.29,3.29,0,0,1,2.56,2.41c4.28,15.62,3.09,39.12,2.31,54.67-.06,1.23-.12,2.41-.18,3.55-.08,1.74-.71,4-2.19,4.45-37.89,12.57-68.16,18.43-95.28,18.43-13.17,0-23.71-1.35-33.91-2.65l-5.14-.65a4.47,4.47,0,0,1-2.42-1c-5-35-3.46-66.93,4.46-90,1.11-3.22,2.62-5.49,3.68-5.51,2.75-.07,5.54-.1,8.29-.1m0-11.12c-2.82,0-5.66,0-8.55.1-7.27.17-11.57,6.15-13.93,13-7.26,21.16-11.07,53.09-4.91,95.53.82,5.65,6.36,9.45,12,10.14,11.6,1.42,24.19,3.37,40.4,3.37,23.06,0,53.45-3.94,98.78-19,6.16-2,9.48-8,9.8-14.47.79-16.28,2.59-43.06-2.51-61.69a14.45,14.45,0,0,0-11.2-10.4c-22.94-4.38-65.28-16.62-119.91-16.62Z"/><path class="cls-50" d="M288.88,183.91c-18.71,0-33.87-15.84-34.52-36.06-.65-20.47,14.23-37.63,33.18-38.23l1,0c18.71,0,33.87,15.84,34.51,36.06a38.43,38.43,0,0,1-9.34,26.7,32.91,32.91,0,0,1-23.84,11.53Z"/><path class="cls-51" d="M288.58,114.4a28.32,28.32,0,0,1,20.4,8.9,34.51,34.51,0,0,1,1.17,45.9,28.21,28.21,0,0,1-20.39,9.9h-.88a28.33,28.33,0,0,1-20.41-8.9,34.51,34.51,0,0,1-1.17-45.9,28.19,28.19,0,0,1,20.39-9.9h.89m0-9.59c-.4,0-.79,0-1.19,0-21.63.69-38.56,20-37.82,43.17.73,22.73,18.21,40.7,39.31,40.7l1.19,0c21.62-.69,38.55-20,37.81-43.18-.72-22.73-18.21-40.69-39.3-40.69Z"/><path class="cls-52" d="M264.44,147.94c.12,8.14,5.45,14.68,12.3,14.58s12.63-6.82,12.51-15c-.14-9.12-4.52-14.68-12.63-14.55C269.77,133.11,264.31,139.8,264.44,147.94Z"/><path class="cls-14" d="M621.5,252.3c2,5.42,3.34,15.24-4.51,30.45-4.48,5.82-11.41,11-20.59,14.42-7.27,2.72-62.86,21.11-85.77,28.67l-2.56,12.59-14.87-8.74,0,0a8.94,8.94,0,0,1-2.65-2.38c-1.79-3.36-3.8-10.81-3.13-19.06,1.34-3.32,1.05-3,5.73-6l93.66-59.59s14.91-8.12,25.43-2.6l1.28.75,0,0,13.62,8Z"/><path class="cls-15" d="M621.43,246.37s26.29-31.64,34.37-26.84,12.14,10,11.35,15.1-34.44,18.72-36.81,19.56S630.78,246.72,621.43,246.37Z"/><path class="cls-16" d="M624.3,250.91s26.29-31.64,34.37-26.85,12.13,10,11.34,15.11-34.44,18.71-36.8,19.56S633.65,251.26,624.3,250.91Z"/><path class="cls-15" d="M630.6,259.78c5.84-1.27,43.8-10.33,47.22-1.59,3.14,8,2.69,14.14-1.6,17.54s-41.45-4.58-44-5.23S638,265.11,630.6,259.78Z"/><path class="cls-16" d="M634.36,263.55s41.41-10.42,44.55-2.42,3.21,15.67-1.08,19.07-39.29-5.27-41.82-5.92S641.72,268.89,634.36,263.55Z"/><path class="cls-15" d="M631.57,275.81s31.31,2.64,31.88,10.29-.91,12.83-4.42,14.69-26.84-14.16-28.41-15.35S635.47,282.22,631.57,275.81Z"/><path class="cls-16" d="M631.57,280.35s31.31,2.64,31.88,10.29-.91,12.82-4.42,14.69S632.19,291.16,630.62,290,635.47,286.75,631.57,280.35Z"/><path class="cls-17" d="M508.07,311l93.66-59.59s24.18-13.17,32.68,5.41c1.79,3.14,8.28,13.88-2.46,34.7-4.48,5.82-11.41,11-20.6,14.43s-95.58,31.91-95.58,31.91-5.6,4.25-10.3-1.79c-1.79-3.36-3.8-10.81-3.13-19.06C503.68,313.69,503.38,314,508.07,311Z"/><path class="cls-15" d="M607.12,243s2.81-37.14,10.81-37.8,13.41,1.1,15.36,5.27-14.2,31.24-15.44,33.1c-.76-.17-6.18,2.83-6.18,2.83S610.11,245.38,607.12,243Z"/><path class="cls-18" d="M611.67,246.41s2.81-37.15,10.81-37.81,13.41,1.1,15.36,5.28-14.2,31.24-15.44,33.1C620.92,246.64,618.37,241.79,611.67,246.41Z"/><ellipse class="cls-19" cx="614.92" cy="275.81" rx="10.37" ry="12.12"/><path class="cls-53" d="M692.84,379.71l.14-.13h0l-.1.06Z"/><path class="cls-53" d="M693,379.52l.06,0,0-.05Z"/><path class="cls-54" d="M651.55,396.09a6.93,6.93,0,0,0-5.1-3.94,3.64,3.64,0,0,0-3.73,2.85c-.5,2.74,1.21,6.57,4.16,7.63,3.3,1.19,6.4-1,8.4-2.84a82.71,82.71,0,0,1,9-6.91c5.61-3.88,10.48-8.66,16.06-12.57A86.22,86.22,0,0,0,697.87,364a9.52,9.52,0,0,0,1.87-2.94c1.71-4.94.59-13.85-2.23-19.58-1.43-2.9-4-4.29-6.69-5.55-.82-.39-1-.12-1.8-.08-1.09.07-2.32.55-3.38-.28s-1.62-2.11-2.62-2.28-1.32,1.26-2.27,1.38c-.87-1.59-2-3-2.69-4.62-1.26-2.78-2.95-5.18-5.79-5.26-3.71-.11-4.93,5.85-5,9.29a7.77,7.77,0,0,0-6.69,1.55c-4.63,3.83-1.09,10.4,4.27,14.72a3.81,3.81,0,0,0,4.42.47c1.18-.82.4-2.6,1-3.87a4.77,4.77,0,0,1,3.51-2.32c4.86-.43,9.68,6.7,7.86,11.12a6.17,6.17,0,0,1-4.16,3.73c1.3.2,2.38,1.25,3.67,1.45a2.6,2.6,0,0,1,1,.32c4.78,2.89-3,7-3.9,7.43a16.67,16.67,0,0,1-8.46,1.76,39.36,39.36,0,0,1-10-2c-2-.68-3.51,1.33-4.91,2.39-1.55,1.19-1.45,4.37-.69,6.73.47,1.45,1.17,2.86,1.58,4.31a55.26,55.26,0,0,1,1.62,7.22c.17,1.39-.18,2.76-1.19,3.25C655.55,394.2,653.06,395.13,651.55,396.09Z"/><path class="cls-55" d="M649.5,476.67s14.52-23.16,16.92-32.29,2.5-35.08,8.24-23.13c4.78-1.45,10.23-6.61,7.24-26.27s15.89-13.19,19.38-17.48,4.62-10.28-2.69-19.38-26-11.57-27.34-4.15c-2.51-4.55-4.51-10.24-17-7.91-4.27,5.73-4.91,10-3.51,15.13s-5.43-5.68-5.43-5.68-5.08-15.66,7.52-20.56c5.92-1.45,4-5.86,12.25,5.08,2.13,2.55,4.4,8,9.62-1.76s13.68-22.87,27.09-11.81c4.67-3.73,17.84-8.63,30.42,8.7,2.4,2.27,10.58,11.64,8.39,24.77-.25,6.27,2.93,7.12,5.6-2.31,1.72-5.42,4.16-8,7.1-6.3,4.24-.88,5-2.3,7-3.17s7.29,3.71,7.29,3.71,5.1,4.22,9.12-6.63c3.22-4,7.82-3.46,8.36-4s5.47-4.59,6.58-16.57c1-2.86,3.31-2.3,3.31-2.3s-1.15-11.4,3.9-13.13c3.43,0,6.43,2.82,6.43,2.82s.58-5.42,8.92,1.39c1.35-1.43,7.94,3.17-3.36,17.44a112.06,112.06,0,0,1-14,6.87c-6.16,2.31-30.83,33.79-31.61,35.21s4.18,9.4-6.38,20.56-15.09,17.75-18.7,19.76-35.54,42.36-40.34,37.82c1.25-4.24,5-8.86,5.92-12.86s-2.55-5.12-9.29,2.61-12.41,14.31-19.19,10.07C673.27,455.75,646.08,488.1,649.5,476.67Z"/><path class="cls-56" d="M691.93,354.24a.15.15,0,0,0-.18.09.33.33,0,0,0,0,.22c0,.18.14.38.32.42a.35.35,0,0,0,.4-.26.42.42,0,0,0-.21-.44.52.52,0,0,0-.51,0"/><path class="cls-57" d="M361.13,176.74s8.93-.82,15.78.61"/><line class="cls-58" x1="357.88" y1="104" x2="374.85" y2="105.58"/><line class="cls-58" x1="380.63" y1="83.27" x2="398.52" y2="84.71"/><ellipse class="cls-59" cx="266.78" cy="290.15" rx="8.84" ry="3.38" transform="translate(-58.94 68.19) rotate(-13.13)"/></svg>