<svg id="Layer_1" data-name="Layer 1" xmlns="http://www.w3.org/2000/svg" xmlns:xlink="http://www.w3.org/1999/xlink" viewBox="0 0 906 603.01"><defs><style>.cls-1{fill:#757575;}.cls-2{fill:#00b1ff;}.cls-3{fill:#15bdf9;}.cls-4{fill:#fff;}.cls-5{fill:#626c72;}.cls-6{fill:#96a5b3;}.cls-7{fill:#2f3e4a;}.cls-8{fill:#222d35;}.cls-9{fill:#353535;stroke-width:0.65px;}.cls-21,.cls-23,.cls-31,.cls-51,.cls-58,.cls-9{stroke:#000;}.cls-21,.cls-23,.cls-9{stroke-linejoin:round;}.cls-10,.cls-17,.cls-53,.cls-56{fill:#4d4d4d;}.cls-11{fill:#b3b3b3;}.cls-12{fill:#d3161d;}.cls-13{fill:#adadad;stroke:#080000;stroke-width:0.88px;}.cls-13,.cls-14,.cls-15,.cls-16,.cls-17,.cls-22,.cls-24,.cls-26,.cls-27,.cls-31,.cls-35,.cls-45,.cls-46,.cls-47,.cls-48,.cls-49,.cls-50,.cls-51,.cls-52,.cls-53,.cls-56,.cls-57,.cls-58,.cls-59{stroke-miterlimit:10;}.cls-14,.cls-27,.cls-31,.cls-35,.cls-46,.cls-50,.cls-59{fill:none;}.cls-14,.cls-15,.cls-24,.cls-26,.cls-35,.cls-50,.cls-57{stroke:#070707;}.cls-14{stroke-width:1.36px;}.cls-15,.cls-57{fill:#77401b;}.cls-15,.cls-16,.cls-35{stroke-width:0.89px;}.cls-16,.cls-18,.cls-51,.cls-58{fill:#f8c946;}.cls-16{stroke:#020202;}.cls-17,.cls-52,.cls-53,.cls-56{stroke:#151616;}.cls-17{stroke-width:2.67px;}.cls-19{fill:#683919;}.cls-20,.cls-26{fill:#945320;}.cls-21{fill:#515051;stroke-width:0.89px;}.cls-22,.cls-25{fill:#161616;}.cls-22,.cls-27,.cls-45,.cls-46,.cls-47,.cls-48,.cls-49,.cls-59{stroke:#0a0a0a;}.cls-22,.cls-23,.cls-24,.cls-26,.cls-27,.cls-31{stroke-width:0.77px;}.cls-23{fill:#8e8a8b;}.cls-24{fill:#e2b647;}.cls-28{fill:#dddbd7;}.cls-29{fill:#232323;}.cls-30{fill:#3a3a3a;}.cls-32,.cls-52{fill:#282828;}.cls-33{fill:#7c7c7c;}.cls-34{fill:#666;}.cls-36{fill:#7f1119;}.cls-37{fill:#5e0e18;}.cls-38{fill:#352f49;}.cls-39{fill:#e41e00;}.cls-40{fill:#fffe28;}.cls-41{fill:#18ff08;}.cls-42{fill:#dbdddd;}.cls-43{fill:#0fb0db;}.cls-44{fill:#303435;}.cls-45,.cls-46,.cls-47,.cls-48,.cls-49{stroke-width:0.35px;}.cls-45{fill:url(#radial-gradient);}.cls-47{fill:url(#radial-gradient-2);}.cls-48{fill:url(#radial-gradient-3);}.cls-49{fill:url(#radial-gradient-4);}.cls-50,.cls-51{stroke-width:0.45px;}.cls-52,.cls-53{stroke-width:0.73px;}.cls-54{fill:#afafaf;}.cls-55{fill:#cecece;}.cls-56,.cls-57,.cls-58,.cls-59{stroke-width:0.56px;}.cls-60{opacity:0.25;}.cls-61{fill:#d02c00;}.cls-62{fill:#389cce;}</style><radialGradient id="radial-gradient" cx="2412.2" cy="413.9" r="5.67" gradientTransform="matrix(-0.96, 0, 0, 0.96, 2682.88, -4.86)" gradientUnits="userSpaceOnUse"><stop offset="0.2" stop-color="#666"/><stop offset="0.57" stop-color="#585858"/><stop offset="1" stop-color="#4d4d4d"/></radialGradient><radialGradient id="radial-gradient-2" cx="2389.26" cy="469.98" r="5.67" gradientTransform="matrix(-0.96, 0, 0, 0.96, 2686.4, -6.44)" xlink:href="#radial-gradient"/><radialGradient id="radial-gradient-3" cx="2412.85" cy="468.59" r="5.67" gradientTransform="matrix(-0.96, 0, 0, 0.96, 2686.36, -4.94)" xlink:href="#radial-gradient"/><radialGradient id="radial-gradient-4" cx="2391.66" cy="414.86" r="5.67" gradientTransform="matrix(-0.96, 0, 0, 0.96, 2682.9, -6.17)" xlink:href="#radial-gradient"/></defs><title>stop</title><path class="cls-1" d="M41.3,16.39H865.53A39.82,39.82,0,0,1,905.34,56.2V562.69a39.82,39.82,0,0,1-39.81,39.81H41.3A39.83,39.83,0,0,1,1.48,562.69V56.2A39.83,39.83,0,0,1,41.3,16.39Z"/><path class="cls-2" d="M904.88,41.07V547.56a39.83,39.83,0,0,1-39.82,39.81H40.84A39.83,39.83,0,0,1,1,547.56H1V41.07A39.84,39.84,0,0,1,40.84,1.25H865.06A39.84,39.84,0,0,1,904.88,41.07Z"/><path class="cls-3" d="M904.87,35.1H2A39.8,39.8,0,0,1,41.3,1.65H865.53A39.93,39.93,0,0,1,904.87,35.1Z"/><path class="cls-4" d="M865.53,14.81a26.29,26.29,0,0,1,26.25,26.26V547.56a26.29,26.29,0,0,1-26.25,26.26H41.3A26.29,26.29,0,0,1,15,547.56V41.07A26.29,26.29,0,0,1,41.3,14.81H865.53m0-13.56H41.3A39.84,39.84,0,0,0,1.48,41.07V547.56A39.83,39.83,0,0,0,41.3,587.37H865.53a39.83,39.83,0,0,0,39.81-39.81V41.07A39.83,39.83,0,0,0,865.53,1.25Z"/><circle class="cls-5" cx="859.87" cy="46.41" r="18.71"/><circle class="cls-6" cx="859.87" cy="46.41" r="16.72"/><polygon class="cls-7" points="870.54 41.63 869.35 53.26 858.68 58.03 849.2 51.19 850.32 39.56 861.07 34.78 870.54 41.63"/><path class="cls-8" d="M870.54,41.63,870,46.89a14.57,14.57,0,0,0-9.63-5.66,13.71,13.71,0,0,0-10.59,3.59l.55-5.26L861,34.78Z"/><circle class="cls-5" cx="46.95" cy="46.41" r="18.71"/><circle class="cls-6" cx="46.95" cy="46.41" r="16.72"/><polygon class="cls-7" points="57.14 40.52 57.14 52.3 46.95 58.12 36.84 52.3 36.84 40.52 46.95 34.7 57.14 40.52"/><path class="cls-8" d="M57.14,40.52v5.33A14.79,14.79,0,0,0,47,41.23c-6.29-.24-10.19,4.62-10.19,4.62V40.52L47,34.7Z"/><circle class="cls-5" cx="46.95" cy="539.43" r="18.71"/><circle class="cls-6" cx="46.95" cy="539.43" r="16.72"/><polygon class="cls-7" points="58.66 538.56 53.56 549.15 41.85 549.95 35.24 540.23 40.34 529.72 52.05 528.84 58.66 538.56"/><path class="cls-8" d="M58.66,538.56l-2.31,4.77a14.67,14.67,0,0,0-7.09-8.6,13.27,13.27,0,0,0-11.15-.23l2.31-4.78,11.71-.88Z"/><circle class="cls-5" cx="857.32" cy="539.35" r="18.71"/><circle class="cls-6" cx="857.32" cy="539.35" r="16.72"/><polygon class="cls-7" points="866 531.47 868.47 542.94 859.71 550.82 848.56 547.16 846.17 535.69 854.93 527.89 866 531.47"/><path class="cls-8" d="M866,531.47l1.12,5.18a14.35,14.35,0,0,0-10.91-2.39c-6.13,1.11-9,6.61-9,6.61l-1.12-5.18,8.76-7.8Z"/><path class="cls-9" d="M276.91,509.4a55.91,55.91,0,0,1,1.86-9.23c3.62-12.62,14.92-50.84,25.24-73.87,6.08-13.56,9.74-22.83,12.9-29.77a58,58,0,0,1,15.91-20.71c4.54-3.75,9.76-7.95,17.71-11.17,10.37-4.19,21.64-4.25,32.74-2.85,27.65,3.48,42.46,3.87,47.89,5.5,5.37,3.59,28.47,27.36,30.24,47.66,1.27,14.63.34,34.61-9.78,50.45s-50.74,91.72-68.86,93.48c-21.16,2.06-75.59-.29-91.58-11.61C276.83,537.11,275.28,524,276.91,509.4Z"/><path class="cls-10" d="M372.92,556.69c-7.12,0-12.92-1.66-17.75-5.08-13-9.21-14.6-20.67-13-35a53.34,53.34,0,0,1,1.75-8.73c3.28-11.4,14.77-50.42,25.1-73.46,3.35-7.49,6-13.8,8.18-18.87,1.77-4.19,3.3-7.8,4.71-10.88A55.2,55.2,0,0,1,397,385c4.09-3.37,9.18-7.56,16.91-10.68a52.64,52.64,0,0,1,19.87-3.82,56.38,56.38,0,0,1,11.12,1.12,100.37,100.37,0,0,1,37.64,16.61l1.35.92.69.45c17.05,11.28,26.23,23.08,27.27,35.05,1.19,13.64.54,33.13-9.3,48.54-10.36,16.21-78.1,70.6-94.14,75.58L404.68,550C394.67,553.11,383.31,556.69,372.92,556.69Z"/><path d="M433.76,367.45v6.14h0a52.56,52.56,0,0,1,10.51,1.06c18.42,3.73,31.1,12.42,36.52,16.13l1.38.94.69.46a87.65,87.65,0,0,1,15,12.07c6.62,6.85,10.28,13.81,10.88,20.69,1.14,13.16.54,31.94-8.84,46.62-4.24,6.65-22.28,23.46-43.86,40.87-22.09,17.83-41.62,31.26-48.6,33.43-1.22.37-2.46.77-3.72,1.16-9.8,3.1-20.92,6.6-30.84,6.6-6.46,0-11.69-1.47-16-4.51-5.56-3.94-9.1-8.55-10.82-14.09-1.49-4.8-1.77-10.38-.9-18.1a49.25,49.25,0,0,1,1.65-8.22c3.26-11.36,14.7-50.19,24.94-73.05,3.38-7.52,6.06-13.85,8.21-18.94,1.77-4.16,3.29-7.75,4.68-10.8a52.09,52.09,0,0,1,14.23-18.52c3.92-3.24,8.8-7.26,16.1-10.21a49.81,49.81,0,0,1,18.72-3.59v-6.14m0,0a56.09,56.09,0,0,0-21,4c-7.94,3.21-13.17,7.42-17.71,11.16a58,58,0,0,0-15.9,20.72c-3.17,6.94-6.83,16.21-12.9,29.77-10.32,23-21.62,61.24-25.25,73.87a56.72,56.72,0,0,0-1.85,9.23c-1.63,14.59-.09,27.7,14.27,37.87,5.83,4.13,12.52,5.65,19.52,5.65,12.2,0,25.33-4.61,36.38-8,17.39-5.4,85.69-61,95.81-76.86s11.06-35.81,9.78-50.45c-1.77-20.3-23.95-34.22-29.32-37.8-4.55-3-18.68-13.64-40.09-18a59.36,59.36,0,0,0-11.72-1.18Z"/><ellipse class="cls-11" cx="464.8" cy="437.36" rx="32.65" ry="40.86" transform="translate(-8.09 8.76) rotate(-1.07)"/><ellipse class="cls-11" cx="424.28" cy="496.25" rx="23.39" ry="29.28" transform="translate(-9.19 8.01) rotate(-1.07)"/><ellipse class="cls-11" cx="378.11" cy="520.16" rx="18.41" ry="23.04" transform="translate(-9.65 7.15) rotate(-1.07)"/><ellipse class="cls-12" cx="466.89" cy="437.32" rx="11.1" ry="15.27" transform="translate(-8.09 8.8) rotate(-1.07)"/><ellipse class="cls-12" cx="425.34" cy="497.4" rx="9.59" ry="13.18" transform="translate(-114.43 127.3) rotate(-15.03)"/><ellipse class="cls-12" cx="378.14" cy="521.73" rx="7.1" ry="9.77" transform="translate(-122.35 115.9) rotate(-15.03)"/><path class="cls-13" d="M364.68,489.47s4.84-10.63,20.95-6c2.66-6.86,8.06-25.39,36.41-24.23-1.59-6.24-13.62-33,6.54-60.45-8.41-3.42-13.62-5.7-23.71,7.6S363.43,486.32,364.68,489.47Z"/><line class="cls-14" x1="317.06" y1="396.21" x2="380.66" y2="400.25"/><line class="cls-14" x1="352.47" y1="363.93" x2="423.28" y2="368.42"/><polyline class="cls-14" points="433.38 369.06 452.17 370.25 452.17 370.25"/><line class="cls-14" x1="300.05" y1="435.72" x2="363.41" y2="439.74"/><line class="cls-14" x1="286.4" y1="474.86" x2="349.52" y2="478.86"/><line class="cls-14" x1="276.45" y1="515.27" x2="338.84" y2="519.23"/><path class="cls-15" d="M255.46,316.05l94.62,9.82c16.16,1.18,27.27,4.82,27.18,20.42h0c-1.75,15.18-9.84,16.25-24.91,17.5L251,373.94a28.46,28.46,0,0,1-28.21-28.54h0C222.92,329.79,239.86,316,255.46,316.05Z"/><path class="cls-16" d="M262.69,316.69l98.71,8.68c16.15,1.18,17.33,36.67,2.27,37.92L262.36,373.44a28.45,28.45,0,0,1-28.21-28.54h0A28.45,28.45,0,0,1,262.69,316.69Z"/><ellipse class="cls-17" cx="263.22" cy="344.34" rx="10.03" ry="11.11" transform="translate(-147.85 206.95) rotate(-34.12)"/><path class="cls-18" d="M333.5,338.53s77.09-40.22,112.1-47.59c0,0,94.55-8.29,176.3-5.77-9.4,7.5-90.9,44.56-102.54,47.28S365,342,333.5,338.53Z"/><path class="cls-19" d="M493.35,324.56s31.22-19.81,34.43-21-61.27-1.1-61.27-1.1-30.35,18.67-32.36,20.71S493.35,324.56,493.35,324.56Z"/><path class="cls-20" d="M622.9,285S635,419.63,626.11,454.11c-9.78,8.87-78.24,42.71-100.48,43.46-3-15.39-11-153.89-5.27-165.35C528.41,325.48,589.34,295.71,622.9,285Z"/><path class="cls-12" d="M333.5,338.53s-.2,69.06,4,119.58c1.62,19.47,21,37.78,24.21,38.4,7.36,6.3,174.51,7.55,184,.66,0,0-18.66-13.73-19.38-40.62-.89-33.6-4.73-83.66-6-124.33C514.18,329.28,362.68,333.13,333.5,338.53Z"/><path class="cls-21" d="M494.42,255l2.65,50.85-44.52,2.77c-7.44.39-14.08-10.67-14.81-24.71s4.71-25.74,12.16-26.13c2.51-.13,4.92,1,7.05,3.17Z"/><path class="cls-22" d="M296.86,256.74s17.38,10.75,46.73,12.93c13.05,1,29.92-1.38,46.18-4.34,52.85-9.62,75.08-38.54,75.08-38.54s-5.43-36.45-6.76-48.7-19.61-35-19.61-35Z"/><path class="cls-22" d="M636.34,240.77s-9.2,18.66-43.29,18.93-84.28-10.33-84.28-10.33l-33.18-39.72Z"/><path class="cls-12" d="M445,151.09l17.34-1.75,2.56,56.92-16.93.88S448.62,170.21,445,151.09Z"/><polygon class="cls-23" points="447.97 207.14 459.88 221.69 471.97 221.06 464.9 206.26 447.97 207.14"/><polygon class="cls-24" points="434.73 207.83 481.11 205.41 482.42 287.3 438.39 288.56 434.73 207.83"/><path class="cls-25" d="M448,206.65l-.72,9.85a1.7,1.7,0,0,1-.61,1.2l-11.47,9.42a1.67,1.67,0,0,1-2.71-1l-.54-2.71a1.68,1.68,0,0,1,.4-1.45l12.72-16.57A1.68,1.68,0,0,1,448,206.65Z"/><polygon class="cls-26" points="508.77 249.37 505.32 268.03 482.42 287.3 481.11 205.41 508.77 249.37"/><path class="cls-22" d="M465.55,207.65s1.27,9.37,3.31,10.75,28.42,11.21,31.51,11.47,2.14-6.79,2.14-6.79Z"/><path class="cls-27" d="M465.55,207.65s1.56,11.31,4.12,11.18c3.13,1.34,26.41,10.12,26.41,10.12"/><path class="cls-28" d="M615.13,243c-20.24,0-52.93-5.17-87.43-13.83-35.39-8.87-54.77-17-57.62-20.06-2.83-9.88-4.47-42.07-3.14-62.24a6.08,6.08,0,0,1,5.31-5.63,534.16,534.16,0,0,1,64.35-3.7,656.62,656.62,0,0,1,86,5.69,6.15,6.15,0,0,1,5,4.16c10.82,31.77,7.41,73.07,5.44,89.35a6,6,0,0,1-4.8,5.23A69.07,69.07,0,0,1,615.13,243Z"/><path class="cls-29" d="M536.6,141.94A653.11,653.11,0,0,1,622,147.59a1.72,1.72,0,0,1,1.36,1.18c10.53,30.91,7.17,71.4,5.24,87.38a1.59,1.59,0,0,1-1.25,1.4,64.34,64.34,0,0,1-12.21.94c-19.37,0-50.85-4.91-84.19-13.15-32.2-8-51.84-15.48-56.93-18.86-2.28-10.1-3.95-39.34-2.63-59.37a1.64,1.64,0,0,1,1.41-1.5,529.3,529.3,0,0,1,63.81-3.67m0-8.9a536.91,536.91,0,0,0-64.89,3.74,10.51,10.51,0,0,0-9.21,9.75c-1.33,20.16.29,54,3.43,64.22,3,9.85,102,36.65,149.2,36.65a72.72,72.72,0,0,0,14-1.12,10.51,10.51,0,0,0,8.35-9.06c1.92-15.85,5.54-58.47-5.65-91.32a10.61,10.61,0,0,0-8.57-7.13A659.54,659.54,0,0,0,536.6,133Z"/><polygon class="cls-24" points="442.48 301.38 445.67 322.8 493.24 321.2 487.79 299.86 442.48 301.38"/><polygon class="cls-26" points="508.96 287.74 522.05 303.77 493.24 321.2 487.79 299.86 508.96 287.74"/><ellipse class="cls-30" cx="495.74" cy="280.37" rx="13.51" ry="25.46" transform="translate(-13.93 26.19) rotate(-2.98)"/><path class="cls-31" d="M447.6,205.74s.07,11.15-.92,12l-11.47,9.42"/><path class="cls-28" d="M309,255a50.89,50.89,0,0,1-5.31-.25,5.82,5.82,0,0,1-5.08-4.58c-1.12-5.16-2.73-13.38-4.05-23.25-2.41-17.95-4.17-44,1.12-66.12a5.92,5.92,0,0,1,4.39-4.44,478.62,478.62,0,0,1,87.09-11.65c8.82-.4,17.88-.61,26.92-.61,5.75,0,11.62.09,17.45.25a5.85,5.85,0,0,1,5.6,4.92c3.15,19.58,4.55,52.4,2.69,62.24-2.33,3.44-20.27,13.63-52.36,25.18C355.55,248.16,326.22,255,309,255Z"/><path class="cls-29" d="M414,148.78c5.71,0,11.53.08,17.32.24a1.18,1.18,0,0,1,1.12,1c3.19,19.84,4.26,49.16,2.92,59.3-4.49,3.93-22.7,13.47-51.7,23.74-30.52,10.82-58.46,17.28-74.74,17.28a47.28,47.28,0,0,1-4.83-.23,1.18,1.18,0,0,1-1-.93c-1.1-5.07-2.68-13.15-4-22.87-2.35-17.56-4.08-43,1-64.42a1.27,1.27,0,0,1,.91-1,474.69,474.69,0,0,1,86.23-11.53c8.76-.4,17.74-.6,26.71-.6m0-9.35c-9.55,0-18.6.22-27.13.61-43.13,2-73.1,8.28-87.95,11.77a10.63,10.63,0,0,0-7.87,7.9c-5.33,22.32-3.82,48.29-1.2,67.83,1.34,10,3,18.34,4.12,23.62a10.5,10.5,0,0,0,9.15,8.24,55.4,55.4,0,0,0,5.8.28c41.41,0,133.11-36.19,135.34-46.9,2.17-10.47.62-44.31-2.59-64.25a10.53,10.53,0,0,0-10.09-8.85q-9.06-.26-17.58-.25Z"/><path class="cls-32" d="M522.27,217c-17.45,0-31.62-14.86-32.26-33.83-.64-19.24,13.23-35.37,30.93-36l1,0c17.45,0,31.62,14.86,32.25,33.83a36.23,36.23,0,0,1-8.66,25.09,30.68,30.68,0,0,1-22.26,10.87Z"/><path class="cls-33" d="M522,143.37v7.56h0a27.1,27.1,0,0,1,19.55,8.57,33.33,33.33,0,0,1,1.18,44.09,26.94,26.94,0,0,1-19.53,9.57h-.88a27.06,27.06,0,0,1-19.55-8.57A32.49,32.49,0,0,1,493.8,183c-.58-17.15,11.65-31.53,27.26-32.05l.89,0v-7.56m0,0h-1.14c-19.81.67-35.3,18.52-34.58,39.88.7,21,16.73,37.48,36,37.48.38,0,.76,0,1.14,0,19.81-.66,35.29-18.51,34.58-39.87-.71-20.95-16.73-37.49-36-37.48Z"/><path class="cls-32" d="M386.37,224.18c-17.45,0-31.62-14.86-32.26-33.83a36.28,36.28,0,0,1,8.67-25.09A30.63,30.63,0,0,1,385,154.39l1,0c17.45,0,31.62,14.86,32.25,33.83a36.23,36.23,0,0,1-8.66,25.09,30.68,30.68,0,0,1-22.26,10.87Z"/><path class="cls-33" d="M386.05,150.59v7.56h0a27.1,27.1,0,0,1,19.55,8.57,33.33,33.33,0,0,1,1.18,44.09,26.94,26.94,0,0,1-19.53,9.57l-.88,0a27.07,27.07,0,0,1-19.55-8.58,32.48,32.48,0,0,1-8.92-21.59c-.58-17.16,11.65-31.54,27.26-32.06l.89,0v-7.56m0,0h-1.14c-19.81.67-35.3,18.52-34.58,39.88.7,21,16.73,37.48,36,37.48.38,0,.76,0,1.14,0,19.81-.66,35.29-18.51,34.58-39.87-.71-20.95-16.73-37.49-36-37.48Z"/><ellipse class="cls-34" cx="496.81" cy="281.72" rx="5.87" ry="12.71" transform="translate(-9.17 16.83) rotate(-1.92)"/><path class="cls-35" d="M438.79,292.44c-19.88,3.62-105.29,46.09-105.29,46.09s.49,112.68,4,119.58c1.67,8.15,2.16,18.43,21.28,36.58,6.18,2.93,8.83,10.86,132,7.12"/><path class="cls-35" d="M509.09,286.58S618.27,283,622.9,285c0,0,6.84,93.49,6.07,99.08"/><path class="cls-36" d="M481.25,374.26l-107.67,1.1a8,8,0,0,0-7.91,8.54l4.25,63.76a8,8,0,0,0,8.08,7.48l107.79-1.09a8,8,0,0,0,7.91-8.57l-4.37-63.76A8,8,0,0,0,481.25,374.26Z"/><path class="cls-37" d="M483.09,377.31l-107.92.87a6.23,6.23,0,0,0-6.16,6.65l4.27,64.09a6.23,6.23,0,0,0,6.26,5.82L487.45,454a6.23,6.23,0,0,0,6.17-6.65l-4.26-64.24A6.23,6.23,0,0,0,483.09,377.31Z"/><path class="cls-38" d="M414.71,410.28l66.39-1.15A4,4,0,0,0,485,405l-1.4-18.85a4,4,0,0,0-4.12-3.89l-66.38,1.14a4,4,0,0,0-3.9,4.12l1.41,18.84A4,4,0,0,0,414.71,410.28Z"/><ellipse class="cls-39" cx="469.24" cy="396.04" rx="7.76" ry="9.69" transform="translate(-16.33 20.2) rotate(-2.42)"/><ellipse class="cls-40" cx="445.82" cy="396.25" rx="7.76" ry="9.69" transform="translate(-16.36 19.21) rotate(-2.42)"/><ellipse class="cls-41" cx="422.9" cy="397.14" rx="7.76" ry="9.69" transform="translate(-16.42 18.24) rotate(-2.42)"/><path class="cls-42" d="M428.62,426.22l52.28-.67a4.18,4.18,0,0,0,4-4.29h0a4.18,4.18,0,0,0-4.29-4.05l-52.28.67a4.18,4.18,0,0,0-4,4.29h0A4.18,4.18,0,0,0,428.62,426.22Z"/><path class="cls-43" d="M459.35,451l23.21-.43a4.18,4.18,0,0,0,4.05-4.29h0a4.2,4.2,0,0,0-4.29-4l-23.22.44a4.17,4.17,0,0,0-4,4.29h0A4.18,4.18,0,0,0,459.35,451Z"/><path class="cls-43" d="M458.57,439.32l23.22-.43a4.18,4.18,0,0,0,4-4.3h0a4.18,4.18,0,0,0-4.29-4l-23.22.43a4.18,4.18,0,0,0-4,4.29h0A4.18,4.18,0,0,0,458.57,439.32Z"/><polygon class="cls-44" points="401.75 384.18 369.97 384.25 374.31 449.36 406.39 448.9 401.75 384.18"/><ellipse class="cls-45" cx="375.75" cy="391.48" rx="3.47" ry="4.01" transform="translate(-25.21 25.86) rotate(-3.81)"/><path class="cls-46" d="M375.48,387.48s-1.19,5,.76,8"/><path class="cls-46" d="M379.21,391.25s-4.37,1.33-6.92.46"/><ellipse class="cls-47" cx="401.22" cy="443.55" rx="3.47" ry="4.01" transform="translate(-28.62 27.67) rotate(-3.81)"/><path class="cls-46" d="M401,439.54s-1.2,5,.76,8"/><path class="cls-46" d="M404.68,443.32s-4.37,1.33-6.92.46"/><ellipse class="cls-48" cx="378.61" cy="443.71" rx="3.47" ry="4.01" transform="translate(-28.68 26.17) rotate(-3.81)"/><path class="cls-46" d="M378.35,439.71s-1.2,5.05.75,8"/><path class="cls-46" d="M382.07,443.48s-4.37,1.33-6.91.47"/><ellipse class="cls-49" cx="395.42" cy="391.09" rx="3.47" ry="4.01" transform="translate(-25.14 27.17) rotate(-3.81)"/><path class="cls-46" d="M395.15,387.09s-1.19,5.05.76,8"/><path class="cls-46" d="M398.88,390.86s-4.37,1.33-6.92.46"/><path class="cls-50" d="M484.94,421.26s-9.2-2.25-17.46,1.16-9.14-4.12-13.05-3.76-4.44,6.15-9.78,5.93-3.73-2.38-6.26-2.2-2.34,2.81-4.74,2.66-3.9-7.45-5.28-7.17"/><path class="cls-9" d="M483.8,528.32a56.12,56.12,0,0,1,1.86-9.23c3.63-12.62,14.92-50.84,25.24-73.86,6.08-13.57,9.74-22.84,12.9-29.78a58,58,0,0,1,15.91-20.71c4.54-3.74,9.76-7.95,17.71-11.16,10.37-4.19,21.64-4.26,32.74-2.86,27.66,3.48,42.46,3.87,47.9,5.51,5.37,3.58,28.46,27.36,30.23,47.65,1.28,14.64.35,34.61-9.78,50.46s-50.74,91.72-68.86,93.48c-21.16,2-75.59-.29-91.58-11.62C483.72,556,482.17,542.92,483.8,528.32Z"/><path class="cls-10" d="M579.81,575.62c-7.11,0-12.92-1.67-17.75-5.09-13-9.21-14.6-20.66-13-35a53.28,53.28,0,0,1,1.76-8.72c3.27-11.41,14.76-50.42,25.09-73.46,3.36-7.5,6-13.81,8.18-18.88,1.78-4.19,3.31-7.8,4.71-10.88a55.31,55.31,0,0,1,15.07-19.62c4.08-3.36,9.17-7.55,16.91-10.68a52.79,52.79,0,0,1,19.87-3.82,56.36,56.36,0,0,1,11.11,1.12,100.6,100.6,0,0,1,37.65,16.61l1.34.92.69.45c17.06,11.28,26.23,23.08,27.28,35.06,1.18,13.63.53,33.12-9.31,48.53-10.36,16.22-78.1,70.6-94.14,75.58l-3.7,1.16C601.56,572,590.21,575.62,579.81,575.62Z"/><path d="M640.66,386.37v6.14a53.21,53.21,0,0,1,10.5,1.06,97.44,97.44,0,0,1,36.52,16.13l1.38.94.7.46a88.57,88.57,0,0,1,15,12.07c6.62,6.85,10.28,13.82,10.88,20.69,1.15,13.16.55,31.94-8.83,46.62-4.25,6.65-22.29,23.46-43.87,40.88-22.08,17.82-41.61,31.25-48.6,33.42L610.65,566c-9.8,3.09-20.91,6.6-30.84,6.6-6.46,0-11.68-1.48-16-4.52-5.56-3.94-9.1-8.55-10.82-14.09-1.49-4.8-1.76-10.38-.9-18.1a50.49,50.49,0,0,1,1.65-8.22c3.27-11.35,14.7-50.19,25-73.05,3.37-7.52,6-13.85,8.21-18.93,1.76-4.17,3.28-7.76,4.67-10.81a52.09,52.09,0,0,1,14.23-18.52c3.92-3.23,8.8-7.26,16.11-10.21a49.73,49.73,0,0,1,18.72-3.59v-6.14m0,0a56,56,0,0,0-21,4c-7.95,3.22-13.17,7.42-17.71,11.17A57.87,57.87,0,0,0,586,422.29c-3.16,6.94-6.82,16.21-12.9,29.77-10.32,23-21.62,61.25-25.24,73.87a55.91,55.91,0,0,0-1.86,9.23c-1.63,14.59-.08,27.71,14.27,37.88,5.83,4.13,12.52,5.64,19.52,5.64,12.2,0,25.33-4.61,36.38-8,17.39-5.4,85.69-61,95.82-76.85s11-35.82,9.77-50.46C720,423,697.83,409.12,692.46,405.54c-4.55-3-18.68-13.64-40.08-18a58.7,58.7,0,0,0-11.72-1.19Z"/><ellipse class="cls-11" cx="671.69" cy="456.28" rx="32.65" ry="40.86" transform="translate(-8.4 12.62) rotate(-1.07)"/><ellipse class="cls-11" cx="631.17" cy="515.18" rx="23.39" ry="29.28" transform="translate(-9.51 11.88) rotate(-1.07)"/><ellipse class="cls-11" cx="585.01" cy="539.08" rx="18.41" ry="23.04" transform="translate(-9.97 11.02) rotate(-1.07)"/><ellipse class="cls-12" cx="673.78" cy="456.24" rx="11.1" ry="15.27" transform="translate(-8.4 12.66) rotate(-1.07)"/><ellipse class="cls-12" cx="632.23" cy="516.32" rx="9.59" ry="13.18" transform="translate(-112.26 181.6) rotate(-15.03)"/><ellipse class="cls-12" cx="585.04" cy="540.65" rx="7.1" ry="9.77" transform="translate(-120.18 170.19) rotate(-15.03)"/><path class="cls-13" d="M571.58,508.4s4.84-10.63,20.94-6c2.67-6.86,8.06-25.39,36.42-24.23-1.6-6.23-13.63-33,6.53-60.44-8.41-3.42-13.62-5.71-23.71,7.6S570.33,505.24,571.58,508.4Z"/><line class="cls-14" x1="523.95" y1="415.13" x2="587.56" y2="419.17"/><line class="cls-14" x1="559.37" y1="382.85" x2="630.17" y2="387.34"/><polyline class="cls-14" points="640.27 387.98 659.06 389.17 659.07 389.17"/><line class="cls-14" x1="506.94" y1="454.65" x2="570.3" y2="458.66"/><line class="cls-14" x1="493.29" y1="493.78" x2="556.41" y2="497.78"/><line class="cls-14" x1="483.34" y1="534.19" x2="545.73" y2="538.15"/><ellipse class="cls-51" cx="370.89" cy="327.93" rx="10.71" ry="3.27" transform="translate(-64.8 92.83) rotate(-13.13)"/><path class="cls-52" d="M273.72,294.1s4.83-2.48,7.79,2.15S277.74,316,277.74,316l-7.22,2Z"/><path class="cls-53" d="M271.3,294.8s4.83-2.48,7.79,2.14-3.76,19.75-3.76,19.75l-7.22,2Z"/><path class="cls-54" d="M257.81,474.71l-10.5-.41a6.14,6.14,0,0,1-5.89-6.46l13.67-261.21a6.15,6.15,0,0,1,8-5.55L274,204.47a6.15,6.15,0,0,1,4.31,6.21L264.19,468.91A6.15,6.15,0,0,1,257.81,474.71Z"/><path class="cls-55" d="M257.6,474.67l-3.21-.11a2.92,2.92,0,0,1-2.82-3.08l13.91-265.83a2.93,2.93,0,0,1,3.79-2.64l3.77,1.17a2.94,2.94,0,0,1,2.06,3L260.62,471.91A2.93,2.93,0,0,1,257.6,474.67Z"/><path class="cls-52" d="M239.47,367.62c7.38,3.83,39.22,16.46,41.94,9.22,2.18-2.08,3.77-15.42.12-21.14C279.84,353.06,247.12,350,238,354,234.31,357.24,234.62,365.56,239.47,367.62Z"/><path class="cls-53" d="M232.16,367c7.39,3.83,39.23,16.46,41.94,9.22,2.18-2.08,3.77-15.42.12-21.14-1.69-2.64-34.41-5.66-43.55-1.74C227,356.64,227.31,365,232.16,367Z"/><path class="cls-52" d="M236.67,352c7.38,3.84,39,12.34,41.69,5.1,2.17-2.08,3.77-15.43.12-21.14-1.69-2.64-34.41-5.66-43.56-1.74C231.26,337.54,231.65,351.84,236.67,352Z"/><path class="cls-53" d="M229.69,352c7.38,3.84,39,12.34,41.69,5.1,2.17-2.08,3.77-15.43.12-21.14-1.7-2.64-34.41-5.66-43.56-1.74C224.28,337.54,224.67,351.84,229.69,352Z"/><path class="cls-52" d="M245.15,332.56c7.39,3.83,29.14,11.17,31.85,3.93,2.18-2.08,3.77-15.43.12-21.14-1.69-2.65-23.34.69-32.48,4.61C241,323.24,240.14,332.35,245.15,332.56Z"/><path class="cls-53" d="M238.31,332.56c7.39,3.83,29.13,11.17,31.85,3.93,2.18-2.08,3.77-15.43.12-21.14-1.69-2.65-23.34.69-32.49,4.61C234.13,323.24,233.3,332.35,238.31,332.56Z"/><path class="cls-52" d="M456.71,360.18s-16,.36-19.5,3.2,1.15,14.72,5.68,15.67,15.62-7.15,19.88-12.18S456.71,360.18,456.71,360.18Z"/><path class="cls-56" d="M459.11,363s-15.95.36-19.49,3.2,1.15,14.72,5.68,15.67,15.61-7.15,19.87-12.19S459.11,363,459.11,363Z"/><path class="cls-57" d="M604.13,347a6.73,6.73,0,0,1-.79,2L510,371c-5.69,1.68-21.17,1.84-34.49.35A67.93,67.93,0,0,1,461,368a2.33,2.33,0,0,1-1.55-2.07c-.25-4.11-.78-15.35.54-19.65,5.17,0,144.14-20,144.14-20S605.7,340.79,604.13,347Z"/><path class="cls-58" d="M604.13,347a1.3,1.3,0,0,1-.79,2"/><path class="cls-58" d="M475.82,350.91c-13.32-1.49-19.52-4.07-13.81-5.75l110-20.85.23,0c4.15-.32,14.84-1.66,22.64-.8l.31,0c4.63.52,7.35,1.69,8.91,2.74a1.3,1.3,0,0,1-.42,2.36l-93.38,22c-5.69,1.68-21.17,1.83-34.49.34"/><path class="cls-56" d="M459.13,341.92c1.68,5.76,3.7,11.22,5.8,14.36l2,.32"/><path class="cls-56" d="M492.19,358.31a1.69,1.69,0,0,1-.77.72Z"/><path class="cls-52" d="M475.54,355.72c-.4,1.5-.76,1.59-.83,1.6s-4.89,4.73-4.89,4.73l-2.89-5.45h0l-7.79-14.68-9.25-17.41,4.19-4.34L455.2,319c1.36-1.93,4.4-3,8.27-3h.13a11,11,0,0,1,8.07,3.38C476.77,324.9,477.21,349.24,475.54,355.72Z"/><path class="cls-56" d="M458.58,320.78c-4.34,0-7.63,1.32-8.69,3.73-.78,1.75,4.4,27.86,10.15,36.5a77,77,0,0,0,9.23,1.05h.55c.07,0,.44-.11.83-1.6,1.67-6.48,1.23-30.83-3.87-36.28a10.93,10.93,0,0,0-8.06-3.39h-.14"/><path class="cls-52" d="M491.93,359.18l-.82.66-6,4.82-.23-5.33c-1.83-.62-3.29-1.49-3.36-2.19-2.56-7.2-.65-26.4,1-36.63l-4.58-1.76,6.05-4.83a10.8,10.8,0,0,1,9.35-1.49l.12,0a10.94,10.94,0,0,1,7,5.24C504.05,324.25,495.44,353.49,491.93,359.18Z"/><path class="cls-52" d="M508.65,362.69l-5,2.87,2.23-3.15c-3-.86-7.45-2.85-7.86-3.38,1.12-7,6.82-17.63,10.87-23.89l-2.06-1.53,5.84-3.46,0,0,.13-.07c2.42-1.05,5.72.22,8.92,3.16l.1.09a11,11,0,0,1,3.62,8C525.55,348.72,514.28,359.06,508.65,362.69Z"/><path class="cls-56" d="M515.77,336.78c-3.19-2.95-6.5-4.21-8.92-3.17-1.76.77-13.19,18.75-14.83,29,.59.76,9.31,4.48,10.61,3.65,5.63-3.62,16.9-14,16.86-21.43a11,11,0,0,0-3.62-8l-.1-.09"/><path class="cls-56" d="M487.27,317.27c-4.22-1.06-7.73-.59-9.35,1.49-1.18,1.51-5.94,33.43-2.47,43.21.17,1.75,8.92,4.48,10.42,2,3.52-5.7,12.13-34.93,8.52-41.47a11,11,0,0,0-7-5.25l-.12,0"/><line class="cls-59" x1="445" y1="151.09" x2="462.34" y2="149.34"/><path class="cls-60" d="M386.9,140l-2.72,33.51a16.9,16.9,0,0,1-5.9,11.52l-47.95,40.78a17,17,0,0,1-12.32,4l-28.13-2.28c-2.62-19.54-4.13-45.51,1.2-67.83a10.63,10.63,0,0,1,7.87-7.9C313.8,148.32,343.77,142,386.9,140Z"/><path class="cls-61" d="M314,28.72l-62.75-5.07a16.91,16.91,0,0,0-12.32,4L191,68.4A16.93,16.93,0,0,0,185,79.92L180,142.66a16.91,16.91,0,0,0,4,12.32l40.78,48a16.88,16.88,0,0,0,11.52,5.9L299,213.92a17,17,0,0,0,12.32-4l48-40.78a16.9,16.9,0,0,0,5.9-11.52l5.08-62.75a17,17,0,0,0-4-12.32L325.49,34.63A17,17,0,0,0,314,28.72Z"/><path class="cls-4" d="M359.62,84.64a17,17,0,0,1,4,12.47L359,154.4a17,17,0,0,1-6,11.67L309.25,203.3a17,17,0,0,1-11.07,4.08c-.47,0-.94,0-1.41,0l-57.29-4.64a17.05,17.05,0,0,1-11.67-6l-37.23-43.79a17,17,0,0,1-4-12.48l4.63-57.29a17,17,0,0,1,6-11.67L241,34.26a17,17,0,0,1,12.47-4l57.29,4.63a17,17,0,0,1,11.67,6M252,33.56a13.67,13.67,0,0,0-8.89,3.27L199.36,74.06a13.64,13.64,0,0,0-4.8,9.37l-4.64,57.29a13.7,13.7,0,0,0,3.23,10l37.23,43.79a13.68,13.68,0,0,0,9.37,4.8L297,204a13.6,13.6,0,0,0,10-3.23l43.79-37.23a13.68,13.68,0,0,0,4.8-9.37l4.63-57.29a13.65,13.65,0,0,0-3.23-10L319.82,43a13.64,13.64,0,0,0-9.37-4.8L253.16,33.6C252.78,33.57,252.41,33.56,252,33.56Z"/><rect class="cls-62" x="364.45" y="183.05" width="32.81" height="10.74" rx="5.37"/><rect class="cls-62" x="501.31" y="177.68" width="32.81" height="10.74" rx="5.37"/><path class="cls-4" d="M203.36,119.76a13.85,13.85,0,0,0,2.76,1.07c1.13.33,2.26.62,3.41.88s2.23.46,3.24.61,1.78.25,2.3.29c1,.08,1.67,0,2-.26a1.28,1.28,0,0,0,.45-.82,1.48,1.48,0,0,0-.33-1.18,2.8,2.8,0,0,0-1-.68,9.05,9.05,0,0,0-2.47-.61c-1-.14-2.15-.35-3.31-.62a20.09,20.09,0,0,1-3.5-1.19,9.63,9.63,0,0,1-3.12-2.2,9.75,9.75,0,0,1-2.12-3.67,14.79,14.79,0,0,1-.47-5.69,17.26,17.26,0,0,1,1.18-5.17,9.72,9.72,0,0,1,2.92-3.91,12.19,12.19,0,0,1,5-2.27,24.76,24.76,0,0,1,7.42-.36,43.94,43.94,0,0,1,4.76.65c1.55.31,3,.66,4.33,1.06a34.6,34.6,0,0,1,3.5,1.24,13.54,13.54,0,0,1,2.28,1.2l-4.7,9.94a15.25,15.25,0,0,0-2.68-1.06c-1.06-.33-2.15-.61-3.26-.87a30.14,30.14,0,0,0-3.22-.55,13.68,13.68,0,0,0-2.63-.1,2.59,2.59,0,0,0-1.37.39,1.16,1.16,0,0,0-.39.8,1.14,1.14,0,0,0,.34,1,3.21,3.21,0,0,0,1,.55,17.62,17.62,0,0,0,2.54.53c1.07.16,2.21.38,3.42.68a21.12,21.12,0,0,1,3.64,1.28,10.42,10.42,0,0,1,3.25,2.32,9.9,9.9,0,0,1,2.2,3.76,14.29,14.29,0,0,1,.51,5.66,16.25,16.25,0,0,1-1.25,5.23,9.94,9.94,0,0,1-3,3.89,12.39,12.39,0,0,1-5.08,2.28,25.4,25.4,0,0,1-7.45.35,42.89,42.89,0,0,1-5.34-.75c-1.75-.36-3.38-.77-4.86-1.21a34.36,34.36,0,0,1-3.84-1.38,15,15,0,0,1-2.34-1.21Z"/><path class="cls-4" d="M243.12,135.8l2.15-27.4-9.38-.74.91-11.51,31.74,2.5-.91,11.51-9.38-.74-2.16,27.4Z"/><path class="cls-4" d="M289.21,140a30.54,30.54,0,0,1-8.67-1.84,16,16,0,0,1-6.12-4.07,15.1,15.1,0,0,1-3.44-6.53,28,28,0,0,1-.61-9.23,27.77,27.77,0,0,1,2.05-9,15.13,15.13,0,0,1,4.41-5.91,16.11,16.11,0,0,1,6.68-3.06,30.37,30.37,0,0,1,8.86-.46,30,30,0,0,1,8.64,1.84,16.21,16.21,0,0,1,6.09,4.06,15.09,15.09,0,0,1,3.43,6.53,27.75,27.75,0,0,1,.61,9.23,27.83,27.83,0,0,1-2.05,9,15,15,0,0,1-4.41,5.91,16.17,16.17,0,0,1-6.65,3.06A30.42,30.42,0,0,1,289.21,140Zm.94-12a19.07,19.07,0,0,0,3.21,0,4.75,4.75,0,0,0,2.44-.88,5.21,5.21,0,0,0,1.64-2.3,19.11,19.11,0,0,0,.68-8.68,5.18,5.18,0,0,0-1.25-2.55,4.6,4.6,0,0,0-2.28-1.23,23.88,23.88,0,0,0-6.4-.51,4.57,4.57,0,0,0-2.41.86,5.18,5.18,0,0,0-1.64,2.33,15.4,15.4,0,0,0-.85,4.31,15.14,15.14,0,0,0,.16,4.37,5.16,5.16,0,0,0,1.26,2.53,4.82,4.82,0,0,0,2.25,1.25A19.64,19.64,0,0,0,290.15,128Z"/><path class="cls-4" d="M314.91,141.45l3.07-38.9L337,104c1.77.14,3.49.36,5.15.66a9.71,9.71,0,0,1,4.36,1.89,8.89,8.89,0,0,1,2.87,4.25,19.4,19.4,0,0,1,.61,7.74,19.84,19.84,0,0,1-1.82,7.6,9.13,9.13,0,0,1-3.5,3.83,10.33,10.33,0,0,1-4.65,1.26,44.39,44.39,0,0,1-5.15-.1l-6-.48-.93,11.78Zm18.9-21.39c.4,0,.78,0,1.16,0a2,2,0,0,0,1-.26,1.85,1.85,0,0,0,.68-.77,3.89,3.89,0,0,0,.36-1.52,4,4,0,0,0-.12-1.55,1.82,1.82,0,0,0-.55-.87,1.89,1.89,0,0,0-.92-.4,10.43,10.43,0,0,0-1.14-.15l-4.13-.32-.44,5.47Z"/></svg>