<svg id="Layer_1" data-name="Layer 1" xmlns="http://www.w3.org/2000/svg" xmlns:xlink="http://www.w3.org/1999/xlink" viewBox="0 0 906 603.01"><defs><style>.cls-1{fill:#0c7bea;}.cls-2{fill:#757575;}.cls-3{fill:#00b1ff;}.cls-4{fill:#15bdf9;}.cls-5{fill:#fff;}.cls-6{fill:#626c72;}.cls-7{fill:#96a5b3;}.cls-8{fill:#2f3e4a;}.cls-9{fill:#222d35;}.cls-10{fill:#353535;stroke-width:0.77px;}.cls-10,.cls-24,.cls-26,.cls-34,.cls-57,.cls-58{stroke:#000;}.cls-10,.cls-24,.cls-26{stroke-linejoin:round;}.cls-11,.cls-19,.cls-20{fill:#4d4d4d;}.cls-12{fill:#b3b3b3;}.cls-13{fill:#d3161d;}.cls-14{fill:#adadad;stroke:#080000;stroke-width:1.05px;}.cls-14,.cls-15,.cls-16,.cls-17,.cls-18,.cls-19,.cls-20,.cls-25,.cls-27,.cls-29,.cls-30,.cls-34,.cls-38,.cls-48,.cls-49,.cls-50,.cls-51,.cls-52,.cls-53,.cls-55,.cls-56,.cls-57,.cls-58,.cls-75{stroke-miterlimit:10;}.cls-15,.cls-30,.cls-34,.cls-38,.cls-49,.cls-53,.cls-57,.cls-58,.cls-75{fill:none;}.cls-15,.cls-16,.cls-27,.cls-29,.cls-38,.cls-53{stroke:#070707;}.cls-15{stroke-width:1.61px;}.cls-16{fill:#77401b;}.cls-16,.cls-17,.cls-38,.cls-55{stroke-width:1.06px;}.cls-17,.cls-21,.cls-56{fill:#f8c946;}.cls-17,.cls-55,.cls-56{stroke:#020202;}.cls-18,.cls-35{fill:#282828;}.cls-18,.cls-19,.cls-20{stroke:#151616;}.cls-18,.cls-19{stroke-width:0.86px;}.cls-20{stroke-width:3.17px;}.cls-22{fill:#683919;}.cls-23,.cls-29,.cls-55{fill:#945320;}.cls-24{fill:#515051;stroke-width:1.05px;}.cls-25,.cls-28{fill:#161616;}.cls-25,.cls-30,.cls-48,.cls-49,.cls-50,.cls-51,.cls-52,.cls-75{stroke:#0a0a0a;}.cls-25,.cls-26,.cls-27,.cls-29,.cls-30,.cls-34{stroke-width:0.92px;}.cls-26{fill:#8e8a8b;}.cls-27{fill:#e2b647;}.cls-31{fill:#dddbd7;}.cls-32{fill:#232323;}.cls-33{fill:#3a3a3a;}.cls-36{fill:#7c7c7c;}.cls-37{fill:#666;}.cls-39{fill:#7f1119;}.cls-40{fill:#5e0e18;}.cls-41{fill:#352f49;}.cls-42{fill:#e41e00;}.cls-43{fill:#fffe28;}.cls-44{fill:#18ff08;}.cls-45{fill:#dbdddd;}.cls-46{fill:#0fb0db;}.cls-47{fill:#303435;}.cls-48,.cls-49,.cls-50,.cls-51,.cls-52{stroke-width:0.41px;}.cls-48{fill:url(#radial-gradient);}.cls-50{fill:url(#radial-gradient-2);}.cls-51{fill:url(#radial-gradient-3);}.cls-52{fill:url(#radial-gradient-4);}.cls-53{stroke-width:0.53px;}.cls-54{fill:#389cce;}.cls-56{stroke-width:1.15px;}.cls-57{stroke-width:0.67px;}.cls-58{stroke-width:0.4px;}.cls-59{fill:#4f4f4f;}.cls-60{fill:#595959;}.cls-61{fill:#d1d1d1;}.cls-62{isolation:isolate;}.cls-63{clip-path:url(#clip-path);}.cls-64{clip-path:url(#clip-path-2);}.cls-65{clip-path:url(#clip-path-3);}.cls-66{clip-path:url(#clip-path-4);}.cls-67{clip-path:url(#clip-path-5);}.cls-68{clip-path:url(#clip-path-6);}.cls-69{clip-path:url(#clip-path-7);}.cls-70{clip-path:url(#clip-path-8);}.cls-71{clip-path:url(#clip-path-9);}.cls-72{clip-path:url(#clip-path-10);}.cls-73{clip-path:url(#clip-path-11);}.cls-74{clip-path:url(#clip-path-12);}.cls-75{stroke-width:0.4px;}</style><radialGradient id="radial-gradient" cx="5151.6" cy="135.65" r="6.43" gradientTransform="matrix(-1, 0, 0, 1, 5473.13, 219.77)" gradientUnits="userSpaceOnUse"><stop offset="0.2" stop-color="#666"/><stop offset="0.57" stop-color="#585858"/><stop offset="1" stop-color="#4d4d4d"/></radialGradient><radialGradient id="radial-gradient-2" cx="5125.55" cy="199.31" r="6.43" gradientTransform="matrix(-1, 0, 0, 1, 5477.31, 217.9)" xlink:href="#radial-gradient"/><radialGradient id="radial-gradient-3" cx="5152.34" cy="197.72" r="6.43" gradientTransform="matrix(-1, 0, 0, 1, 5477.26, 219.68)" xlink:href="#radial-gradient"/><radialGradient id="radial-gradient-4" cx="5128.28" cy="136.74" r="6.43" gradientTransform="matrix(-1, 0, 0, 1, 5473.15, 218.22)" xlink:href="#radial-gradient"/><clipPath id="clip-path"><path class="cls-1" d="M412.76,192l8.12-2a1,1,0,0,1,.42,0l-8.12,2A1.19,1.19,0,0,0,412.76,192Z"/></clipPath><clipPath id="clip-path-2"><path class="cls-1" d="M425.43,229.12l-8.12,2c.73-.19,1.36-1.08,1.57-2.56a77.67,77.67,0,0,0-3.11-33.27c-.61-1.92-1.67-3.17-2.59-3.32l8.12-2c.91.14,2,1.39,2.58,3.32A77.51,77.51,0,0,1,427,226.57C426.79,228,426.16,228.94,425.43,229.12Z"/></clipPath><clipPath id="clip-path-3"><path class="cls-1" d="M426.54,183.38l8.11-2a1.08,1.08,0,0,1,.44,0l-8.11,2A1.08,1.08,0,0,0,426.54,183.38Z"/></clipPath><clipPath id="clip-path-4"><path class="cls-1" d="M440.84,237.54l-8.12,2c.7-.18,1.3-1,1.52-2.33,2.61-15.56.9-33.92-4.76-50.81-.59-1.77-1.61-2.93-2.5-3.07l8.11-2c.9.14,1.92,1.3,2.51,3.07,5.65,16.89,7.37,35.25,4.76,50.81C442.13,236.55,441.54,237.36,440.84,237.54Z"/></clipPath><clipPath id="clip-path-5"><path class="cls-1" d="M440.24,171.93l8.12-2a1.14,1.14,0,0,1,.45,0l-8.11,2A1.18,1.18,0,0,0,440.24,171.93Z"/></clipPath><clipPath id="clip-path-6"><path class="cls-1" d="M456.53,247l-8.12,2c.68-.17,1.26-.93,1.49-2.19,4-21.91,1.55-48.14-6.75-72-.58-1.68-1.57-2.78-2.45-2.92l8.11-2c.89.14,1.88,1.24,2.46,2.92,8.3,23.89,10.75,50.12,6.74,72C457.78,246.09,457.21,246.85,456.53,247Z"/></clipPath><clipPath id="clip-path-7"><path class="cls-1" d="M220.58,186.32c-2.36-.6-6.13-2.44-8.53-2C214.88,185,217.77,185.61,220.58,186.32Z"/></clipPath><clipPath id="clip-path-8"><path class="cls-1" d="M207.92,223.42l8.11,2c-3.9-1-2.07-16.94-1.79-19.67.35-3.34,1.47-18.77,5.92-19.48a62.88,62.88,0,0,0-6.69-1.67c-4-.54-4.47,4.25-5.3,7.53a80.84,80.84,0,0,0-2.41,17C205.67,211.54,204.74,222.62,207.92,223.42Z"/></clipPath><clipPath id="clip-path-9"><path class="cls-1" d="M206.81,177.67c-2.37-.6-6.14-2.44-8.56-2C201.09,176.33,204,177,206.81,177.67Z"/></clipPath><clipPath id="clip-path-10"><path class="cls-1" d="M192.51,231.83l8.11,2c-2.85-.71-2.47-10-2.58-12.26a103.45,103.45,0,0,1,.42-15.74,115.06,115.06,0,0,1,2.6-15.32c.64-2.68,1.81-12.33,5.31-12.89-2.06-.51-6-2.45-8-2-2.36.53-3,4.1-3.56,6q-1.6,5.26-2.7,10.65a110.86,110.86,0,0,0-2.29,21.33C189.78,216.47,189,231,192.51,231.83Z"/></clipPath><clipPath id="clip-path-11"><path class="cls-1" d="M193.1,166.22c-2.38-.6-6.14-2.44-8.57-2.05C187.38,164.88,190.28,165.51,193.1,166.22Z"/></clipPath><clipPath id="clip-path-12"><path class="cls-1" d="M176.82,241.31l8.11,2c-3.32-.83-3.1-15-3.23-17.86a141.55,141.55,0,0,1,.58-20.38,156.1,156.1,0,0,1,3.49-20.81q1.28-5.38,2.93-10.67c.64-2,1.38-7,4-7.43-2.82-.7-7.67-3.3-9.76-.7-2.4,3-3.09,8.53-4.07,12.17q-1.84,6.86-3.07,13.85a149.15,149.15,0,0,0-2.3,26,126.57,126.57,0,0,0,.68,13.2C174.36,232.85,174.29,240.68,176.82,241.31Z"/></clipPath></defs><title>wait</title><path class="cls-2" d="M41,16.25H865.22A39.82,39.82,0,0,1,905,56.06V562.55a39.82,39.82,0,0,1-39.81,39.81H41A39.83,39.83,0,0,1,1.17,562.55V56.06A39.83,39.83,0,0,1,41,16.25Z"/><path class="cls-3" d="M904.57,40.93V547.42a39.82,39.82,0,0,1-39.81,39.81H40.53A39.83,39.83,0,0,1,.71,547.42h0V40.93A39.83,39.83,0,0,1,40.53,1.12H864.76A39.82,39.82,0,0,1,904.57,40.93Z"/><path class="cls-4" d="M904.56,35H1.65A39.8,39.8,0,0,1,41,1.51H865.22A39.93,39.93,0,0,1,904.56,35Z"/><path class="cls-5" d="M865.22,14.67a26.29,26.29,0,0,1,26.26,26.26V547.42a26.29,26.29,0,0,1-26.26,26.26H41a26.29,26.29,0,0,1-26.26-26.26V40.93A26.29,26.29,0,0,1,41,14.67H865.22m0-13.55H41A39.83,39.83,0,0,0,1.17,40.93V547.42A39.83,39.83,0,0,0,41,587.23H865.22A39.82,39.82,0,0,0,905,547.42V40.93A39.82,39.82,0,0,0,865.22,1.12Z"/><circle class="cls-6" cx="859.56" cy="46.27" r="18.71"/><circle class="cls-7" cx="859.56" cy="46.27" r="16.72"/><polygon class="cls-8" points="870.23 41.49 869.04 53.12 858.37 57.9 848.89 51.05 850.01 39.42 860.76 34.64 870.23 41.49"/><path class="cls-9" d="M870.23,41.49l-.55,5.26A14.61,14.61,0,0,0,860,41.09a13.71,13.71,0,0,0-10.59,3.59l.56-5.26,10.67-4.78Z"/><circle class="cls-6" cx="46.64" cy="46.27" r="18.71"/><circle class="cls-7" cx="46.64" cy="46.27" r="16.72"/><polygon class="cls-8" points="56.83 40.38 56.83 52.16 46.64 57.98 36.53 52.16 36.53 40.38 46.64 34.56 56.83 40.38"/><path class="cls-9" d="M56.83,40.38v5.33a14.79,14.79,0,0,0-10.11-4.62c-6.29-.24-10.19,4.62-10.19,4.62V40.38l10.11-5.82Z"/><circle class="cls-6" cx="46.64" cy="539.29" r="18.71"/><circle class="cls-7" cx="46.64" cy="539.29" r="16.72"/><polygon class="cls-8" points="58.35 538.42 53.25 549.01 41.54 549.8 34.93 540.09 40.03 529.58 51.74 528.7 58.35 538.42"/><path class="cls-9" d="M58.35,538.42,56,543.2A14.61,14.61,0,0,0,49,534.6a13.25,13.25,0,0,0-11.15-.24l2.31-4.78,11.71-.88Z"/><circle class="cls-6" cx="857.01" cy="539.21" r="18.71"/><circle class="cls-7" cx="857.01" cy="539.21" r="16.72"/><polygon class="cls-8" points="865.69 531.33 868.16 542.8 859.4 550.68 848.25 547.02 845.87 535.55 854.62 527.75 865.69 531.33"/><path class="cls-9" d="M865.69,531.33l1.12,5.18a14.35,14.35,0,0,0-10.91-2.39c-6.13,1.11-9,6.61-9,6.61l-1.12-5.18,8.76-7.8Z"/><path class="cls-10" d="M204.47,495.88a67.12,67.12,0,0,1,2.2-11c4.31-15,17.71-60.33,30-87.66,7.21-16.09,11.56-27.1,15.31-35.33a68.89,68.89,0,0,1,18.87-24.58c5.39-4.44,11.59-9.44,21-13.25,12.31-5,25.69-5.05,38.86-3.39,32.82,4.13,50.39,4.59,56.84,6.54,6.37,4.25,33.78,32.47,35.88,56.55,1.51,17.37.4,41.07-11.61,59.87s-60.22,108.85-81.72,110.94c-25.11,2.44-89.7-.34-108.67-13.79C204.37,528.76,202.53,513.19,204.47,495.88Z"/><path class="cls-11" d="M318.4,552c-8.44,0-15.33-2-21.06-6C281.91,535,280,521.44,281.92,504.4A63.21,63.21,0,0,1,284,494c3.88-13.54,17.52-59.83,29.77-87.18,4-8.89,7.16-16.38,9.72-22.4,2.1-5,3.92-9.25,5.58-12.91A65.61,65.61,0,0,1,347,348.27c4.85-4,10.88-9,20.07-12.68a62.71,62.71,0,0,1,23.58-4.53,66.77,66.77,0,0,1,13.19,1.33c22.58,4.58,38.06,15.18,44.67,19.71l1.6,1.09.82.54c20.24,13.39,31.13,27.38,32.37,41.6,1.41,16.18.64,39.31-11.05,57.6-5.31,8.31-26.54,28.16-52.83,49.38-26.95,21.75-50.06,37.57-58.88,40.3L356.1,544C344.21,547.75,330.74,552,318.4,552Z"/><path d="M390.61,327.42v7.28A63.16,63.16,0,0,1,403.07,336c21.87,4.43,36.92,14.74,43.35,19.15l1.63,1.11.83.55a104.49,104.49,0,0,1,17.84,14.32c7.86,8.13,12.2,16.39,12.91,24.55,2.47,28.3-4.34,45.71-10.48,55.33-5,7.89-26.45,27.83-52.06,48.5-26.21,21.16-49.38,37.1-57.67,39.67L355,540.52c-11.64,3.67-24.83,7.84-36.61,7.84-7.66,0-13.86-1.76-18.95-5.36-6.6-4.68-10.8-10.15-12.84-16.72-1.76-5.7-2.09-12.32-1.07-21.48a58.94,58.94,0,0,1,2-9.75c3.87-13.48,17.44-59.57,29.6-86.7,4-8.92,7.18-16.43,9.74-22.47,2.09-4.94,3.9-9.2,5.55-12.82a61.75,61.75,0,0,1,16.88-22c4.65-3.84,10.45-8.61,19.11-12.11a59,59,0,0,1,22.22-4.27v-7.28m0,0a66.41,66.41,0,0,0-24.94,4.8c-9.44,3.81-15.63,8.8-21,13.24A68.89,68.89,0,0,0,325.77,370c-3.75,8.24-8.1,19.24-15.31,35.33-12.24,27.33-25.65,72.68-29.95,87.67A66.81,66.81,0,0,0,278.3,504c-1.93,17.32-.09,32.88,16.94,45,6.91,4.9,14.86,6.7,23.16,6.7,14.48,0,30.06-5.48,43.18-9.55,20.63-6.4,101.69-72.4,113.7-91.2S488.4,412.38,486.89,395c-2.1-24.08-28.42-40.6-34.8-44.85-5.4-3.6-22.17-16.19-47.57-21.34a70.2,70.2,0,0,0-13.91-1.4Z"/><ellipse class="cls-12" cx="427.44" cy="410.38" rx="38.75" ry="48.49" transform="translate(-7.59 8.05) rotate(-1.07)"/><ellipse class="cls-12" cx="379.36" cy="480.27" rx="27.76" ry="34.74" transform="translate(-8.9 7.17) rotate(-1.07)"/><ellipse class="cls-12" cx="324.57" cy="508.64" rx="21.84" ry="27.34" transform="translate(-9.44 6.15) rotate(-1.07)"/><ellipse class="cls-13" cx="429.92" cy="410.34" rx="13.18" ry="18.12" transform="translate(-7.59 8.1) rotate(-1.07)"/><ellipse class="cls-13" cx="380.62" cy="481.63" rx="11.38" ry="15.64" transform="translate(-111.87 115.17) rotate(-15.03)"/><ellipse class="cls-13" cx="324.6" cy="510.5" rx="8.43" ry="11.59" transform="translate(-121.27 101.63) rotate(-15.03)"/><path class="cls-14" d="M308.63,472.23s5.75-12.62,24.86-7.07c3.16-8.14,9.56-30.13,43.21-28.75-1.89-7.4-16.17-39.21,7.75-71.73-10-4.06-16.16-6.78-28.13,9S307.15,468.48,308.63,472.23Z"/><line class="cls-15" x1="252.11" y1="361.55" x2="327.6" y2="366.34"/><line class="cls-15" x1="294.14" y1="323.24" x2="378.17" y2="328.57"/><polyline class="cls-15" points="390.15 329.33 412.45 330.74 412.46 330.74"/><line class="cls-15" x1="231.92" y1="408.44" x2="307.12" y2="413.21"/><line class="cls-15" x1="215.73" y1="454.88" x2="290.64" y2="459.63"/><line class="cls-15" x1="203.92" y1="502.84" x2="277.96" y2="507.54"/><path class="cls-16" d="M219.81,283.77l111.05-20.31c18.79-4,32.66-3.6,37.75,14.21h0c3.06,17.87-5.81,21.78-22.55,28.22l-112,45.29a33.78,33.78,0,0,1-41.64-23.12h0C187.32,310.25,202,288.86,219.81,283.77Z"/><path class="cls-17" d="M228.25,282.09l115.33-23c18.79-4,31.95,36,15.2,42.43l-112,45.29a33.77,33.77,0,0,1-41.64-23.12h0A33.77,33.77,0,0,1,228.25,282.09Z"/><path class="cls-18" d="M199.82,310.38s-.91-5.64,5.74-13.9c-13-6.57-46.43-17.82-50.91-14.5-3.05,2.25-5.94,8.42-8.46,14.34-2.26,5.31.7,11.32,6.43,12,17.14,2,43.66,4.27,43.66,4.27Z"/><path class="cls-19" d="M205.73,296.28c-13-6.58-44-21.25-48.51-17.93-3.05,2.25-6.53,8.21-9.27,13.67a8.29,8.29,0,0,0,6.43,12c17.14,2,44.53,7.38,45.79,6.63A17.36,17.36,0,0,1,205.73,296.28Z"/><path class="cls-18" d="M203.19,332.78s-4.13-3.94-3.83-14.54c-14.31,2.62-47.75,13.89-49.32,19.24-1.06,3.65.37,10.3,1.94,16.55,1.41,5.59,7.41,8.59,12.37,5.65,14.85-8.78,37.36-23,37.36-23Z"/><path class="cls-19" d="M199.37,318c-14.31,2.61-47.91,9.71-49.47,15.06-1.07,3.64-.23,10.49.88,16.5a8.29,8.29,0,0,0,12.37,5.65c14.85-8.78,39.93-21.05,40.48-22.41A17.39,17.39,0,0,1,199.37,318Z"/><path class="cls-18" d="M223.3,347.57s-5.7-.21-12.5-8.35c-9,11.44-24.66,30.18-22.28,35.22,1.61,3.43,1.72,3.94,7,7.57,4.76,3.26,10.55,1.26,13-4a144.09,144.09,0,0,1,16.2-26.58Z"/><path class="cls-19" d="M210.63,339c-9,11.44-27.54,27.15-25.17,32.19,1.62,3.43,1.41,4.48,6.22,8.24,4.55,3.55,10.47,1.22,13-4,7.56-15.45,19.43-26.82,18.95-28.2A17.4,17.4,0,0,1,210.63,339Z"/><path class="cls-18" d="M215.92,284.85l-7,8.36s-3.58.56-4.37.61c-4.45.29-29.56-24.56-24.47-29.55s13.36-10,15.67-9c.29.12,3.62.56,3.62.56S217.88,284.85,215.92,284.85Z"/><path class="cls-19" d="M220.29,284.24a23,23,0,0,0-6.55,3.72,39.77,39.77,0,0,0-4.78,5.25c-2.89,3.4-29.56-24.56-24.47-29.56s13.38-8.69,15.69-7.72S222.53,284.24,220.29,284.24Z"/><ellipse class="cls-20" cx="238.06" cy="313.41" rx="11.9" ry="13.19" transform="translate(-155.18 297.17) rotate(-50.42)"/><path class="cls-21" d="M271.63,293.1s91.48-47.73,133-56.47c0,0,112.2-9.85,209.21-6.85-11.15,8.9-107.86,52.88-121.68,56.1S309,297.25,271.63,293.1Z"/><path class="cls-22" d="M461.32,276.52s37.06-23.51,40.86-24.9-72.71-1.31-72.71-1.31-36,22.17-38.4,24.58S461.32,276.52,461.32,276.52Z"/><path class="cls-23" d="M615.06,229.51s14.4,159.84,3.81,200.75C607.27,440.79,526,481,499.63,481.84c-3.59-18.26-13.08-182.63-6.25-196.23C502.92,277.61,575.24,242.28,615.06,229.51Z"/><path class="cls-13" d="M271.63,293.1s-.24,81.95,4.76,141.91c1.93,23.1,24.95,44.83,28.73,45.57,8.74,7.48,207.1,9,218.37.78,0,0-22.15-16.29-23-48.2-1.06-39.88-5.62-99.29-7.11-147.55C486,282.12,306.26,286.69,271.63,293.1Z"/><path class="cls-24" d="M462.59,193.92l3.14,60.33-52.82,3.3c-8.84.46-16.72-12.67-17.59-29.33s5.6-30.55,14.44-31c3-.15,5.84,1.23,8.37,3.77Z"/><path class="cls-25" d="M228.14,195s20.63,13.82,55.46,16.41c15.48,1.15,35.51-1.65,54.8-5.16,62.72-11.41,89.11-45.73,89.11-45.73s-6.45-43.25-8-57.8S396,61.06,396,61.06Z"/><path class="cls-25" d="M631,177.08s-10.92,22.15-51.37,22.47-100-12.26-100-12.26l-39.37-47.13Z"/><path class="cls-13" d="M404,70.72l20.57-2.13,3,67.54-20.09,1.05S408.24,93.41,404,70.72Z"/><polygon class="cls-26" points="407.47 137.18 421.61 154.44 435.95 153.69 427.56 136.13 407.47 137.18"/><polygon class="cls-27" points="391.76 138 446.8 135.13 448.35 232.3 396.1 233.8 391.76 138"/><path class="cls-28" d="M407.51,136.6l-.84,11.69a2,2,0,0,1-.73,1.42l-13.61,11.18a2,2,0,0,1-3.22-1.15l-.64-3.2a2,2,0,0,1,.47-1.72L404,135.15A2,2,0,0,1,407.51,136.6Z"/><polygon class="cls-29" points="479.62 187.29 475.53 209.44 448.35 232.3 446.8 135.13 479.62 187.29"/><path class="cls-25" d="M428.33,137.78s1.5,11.12,3.93,12.76,33.73,13.3,37.4,13.61,2.53-8.06,2.53-8.06Z"/><path class="cls-30" d="M428.33,137.78s1.85,13.43,4.89,13.26c3.72,1.6,31.35,12,31.35,12"/><path class="cls-31" d="M605.84,179.67c-24,0-62.81-6.14-103.75-16.41-42-10.53-65-20.14-68.39-23.8-3.35-11.73-5.29-49.93-3.72-73.86a7.21,7.21,0,0,1,6.31-6.68,631,631,0,0,1,76.36-4.4,778.79,778.79,0,0,1,102.06,6.76,7.27,7.27,0,0,1,5.89,4.93c12.84,37.7,8.8,86.71,6.46,106a7.16,7.16,0,0,1-5.7,6.21,81.72,81.72,0,0,1-15.51,1.22Z"/><path class="cls-32" d="M512.65,59.81A774.69,774.69,0,0,1,614,66.51a2,2,0,0,1,1.61,1.4c12.49,36.68,8.51,84.73,6.22,103.7a1.91,1.91,0,0,1-1.49,1.66,76.9,76.9,0,0,1-14.49,1.12c-23,0-60.34-5.84-99.91-15.61-17.24-4.26-33.69-9-46.31-13.4-13.72-4.75-19.25-7.75-21.26-9-2.7-12-4.67-46.67-3.1-70.41a1.91,1.91,0,0,1,1.67-1.78,626.78,626.78,0,0,1,75.72-4.35m0-10.57a637.91,637.91,0,0,0-77,4.43,12.5,12.5,0,0,0-10.93,11.58c-1.57,23.92.34,64.08,4.08,76.21,3.59,11.69,121,43.49,177.05,43.49a86.7,86.7,0,0,0,16.56-1.32,12.48,12.48,0,0,0,9.91-10.76c2.27-18.81,6.57-69.38-6.71-108.37a12.58,12.58,0,0,0-10.17-8.45,780.29,780.29,0,0,0-102.78-6.81Z"/><polygon class="cls-27" points="400.96 249.01 404.74 274.44 461.19 272.54 454.72 247.21 400.96 249.01"/><polygon class="cls-29" points="479.85 232.83 495.39 251.85 461.19 272.54 454.72 247.21 479.85 232.83"/><ellipse class="cls-33" cx="464.16" cy="224.08" rx="16.03" ry="30.21" transform="translate(-11.04 24.47) rotate(-2.98)"/><path class="cls-34" d="M407,135.52s.09,13.22-1.09,14.19l-13.61,11.18"/><path class="cls-31" d="M242.49,194a60.79,60.79,0,0,1-6.3-.3,6.92,6.92,0,0,1-6-5.44c-4.13-19-12.73-67.37-3.48-106.06a7,7,0,0,1,5.2-5.26C273,67.26,318.5,62.37,367.17,62.37c6.84,0,13.81.09,20.73.29a6.94,6.94,0,0,1,6.65,5.84c3.74,23.24,5.4,62.18,3.19,73.86-2.3,3.28-20.51,14.9-62.14,29.89C297.8,185.85,263,194,242.49,194Z"/><path class="cls-32" d="M367.18,56.82V67.91c6.78,0,13.7.1,20.57.3a1.39,1.39,0,0,1,1.32,1.17c3.78,23.52,5.06,58.24,3.48,70.32-1.73,1.46-6.66,5-19.19,11a445.8,445.8,0,0,1-42.18,17.21c-36.21,12.84-69.37,20.5-88.69,20.5a55.53,55.53,0,0,1-5.73-.27,1.39,1.39,0,0,1-1.17-1.1,345.78,345.78,0,0,1-6.61-44.7c-1.8-22.92-.76-42.74,3.1-58.89a1.53,1.53,0,0,1,1.08-1.15c40.68-9.56,85.77-14.41,134-14.41V56.82m0,0c-68.61,0-115.44,9.74-136.56,14.7a12.58,12.58,0,0,0-9.33,9.37c-9.57,40.06-.57,90,3.46,108.52a12.48,12.48,0,0,0,10.86,9.79,67.5,67.5,0,0,0,6.88.32c49.14,0,158-42.94,160.61-55.65,2.58-12.42.73-52.58-3.07-76.25a12.48,12.48,0,0,0-12-10.5q-10.76-.32-20.88-.3Z"/><path class="cls-35" d="M495.64,148.83c-20.71,0-37.52-17.63-38.28-40.14a43,43,0,0,1,10.29-29.78A36.4,36.4,0,0,1,494.06,66l1.2,0c20.71,0,37.52,17.64,38.28,40.15.77,22.83-15.7,42-36.7,42.68Z"/><path class="cls-36" d="M495.26,70.48a32.12,32.12,0,0,1,23.2,10.17,39.52,39.52,0,0,1,1.4,52.31,31.94,31.94,0,0,1-23.17,11.36l-1.05,0a32.12,32.12,0,0,1-23.2-10.17A39.53,39.53,0,0,1,471,81.85a32,32,0,0,1,23.17-11.36h1.05m0-9q-.67,0-1.35,0c-23.51.79-41.89,22-41,47.32.84,24.85,19.85,44.48,42.77,44.48l1.35,0c23.52-.79,41.89-22,41-47.32-.84-24.86-19.85-44.49-42.77-44.49Z"/><path class="cls-35" d="M334.37,157.4c-20.71,0-37.53-17.64-38.28-40.15a43,43,0,0,1,10.28-29.77,36.44,36.44,0,0,1,26.42-12.91l1.2,0c20.71,0,37.52,17.64,38.27,40.15A42.94,42.94,0,0,1,362,144.47a36.4,36.4,0,0,1-26.41,12.91Z"/><path class="cls-36" d="M334,79a32.11,32.11,0,0,1,23.19,10.18,38.59,38.59,0,0,1,10.6,25.63c.68,20.35-13.84,37.42-32.36,38l-1.05,0a32.16,32.16,0,0,1-23.2-10.17,38.61,38.61,0,0,1-10.59-25.64c-.69-20.35,13.83-37.42,32.36-38L334,79h0m0-9q-.67,0-1.35,0c-23.52.78-41.89,22-41,47.31.83,24.86,19.85,44.49,42.77,44.49l1.35,0c23.51-.79,41.88-22,41-47.32C375.92,89.69,356.9,70.06,334,70.06Z"/><ellipse class="cls-37" cx="465.43" cy="225.68" rx="6.97" ry="15.08" transform="translate(-7.31 15.74) rotate(-1.92)"/><path class="cls-38" d="M396.57,238.41C373,242.69,271.63,293.1,271.63,293.1s.57,133.72,4.76,141.91c2,9.67,2.57,21.87,25.26,43.41,7.33,3.48,10.48,12.88,156.64,8.45"/><path class="cls-38" d="M480,231.45s129.57-4.23,135.06-1.94c0,0,8.13,111,7.21,117.59"/><path class="cls-39" d="M447,335.5l-127.78,1.3a9.51,9.51,0,0,0-9.39,10.14l5,75.66a9.52,9.52,0,0,0,9.59,8.88l127.92-1.29A9.51,9.51,0,0,0,461.74,420l-5.19-75.67A9.51,9.51,0,0,0,447,335.5Z"/><path class="cls-40" d="M449.14,339.12l-128.06,1a7.41,7.41,0,0,0-7.32,7.89l5.07,76.06a7.4,7.4,0,0,0,7.43,6.91l128.06-.86a7.39,7.39,0,0,0,7.33-7.88L456.58,346A7.39,7.39,0,0,0,449.14,339.12Z"/><path class="cls-41" d="M368,378.25l78.78-1.37a4.76,4.76,0,0,0,4.63-4.88l-1.67-22.36a4.76,4.76,0,0,0-4.88-4.62l-78.78,1.36a4.77,4.77,0,0,0-4.63,4.88l1.67,22.36A4.77,4.77,0,0,0,368,378.25Z"/><ellipse class="cls-42" cx="432.71" cy="361.35" rx="9.2" ry="11.5" transform="translate(-14.89 18.62) rotate(-2.42)"/><ellipse class="cls-43" cx="404.92" cy="361.6" rx="9.2" ry="11.5" transform="translate(-14.93 17.45) rotate(-2.42)"/><ellipse class="cls-44" cx="377.72" cy="362.65" rx="9.2" ry="11.5" transform="translate(-15 16.3) rotate(-2.42)"/><path class="cls-45" d="M384.51,397.16l62-.79a5,5,0,0,0,4.8-5.1h0a5,5,0,0,0-5.09-4.8l-62,.8a5,5,0,0,0-4.8,5.09h0A5,5,0,0,0,384.51,397.16Z"/><path class="cls-46" d="M421,426.56l27.55-.51a5,5,0,0,0,4.8-5.1h0a5,5,0,0,0-5.09-4.79l-27.55.51a5,5,0,0,0-4.8,5.09h0A5,5,0,0,0,421,426.56Z"/><path class="cls-46" d="M420.05,412.71l27.55-.52a5,5,0,0,0,4.8-5.09h0a5,5,0,0,0-5.1-4.8l-27.54.51a5,5,0,0,0-4.8,5.1h0A5,5,0,0,0,420.05,412.71Z"/><polygon class="cls-47" points="352.61 347.27 314.91 347.36 320.06 424.63 358.12 424.08 352.61 347.27"/><ellipse class="cls-48" cx="321.77" cy="355.94" rx="4.11" ry="4.76" transform="translate(-22.97 22.19) rotate(-3.81)"/><path class="cls-49" d="M321.45,351.19s-1.42,6,.9,9.49"/><path class="cls-49" d="M325.87,355.67s-5.18,1.58-8.21.54"/><ellipse class="cls-50" cx="351.99" cy="417.72" rx="4.11" ry="4.76" transform="translate(-27.01 24.34) rotate(-3.81)"/><path class="cls-49" d="M351.67,413s-1.42,6,.9,9.49"/><path class="cls-49" d="M356.09,417.45s-5.18,1.58-8.2.55"/><ellipse class="cls-51" cx="325.16" cy="417.92" rx="4.11" ry="4.76" transform="translate(-27.08 22.56) rotate(-3.81)"/><path class="cls-49" d="M324.85,413.17s-1.43,6,.89,9.49"/><path class="cls-49" d="M329.27,417.65s-5.19,1.58-8.21.55"/><ellipse class="cls-52" cx="345.11" cy="355.48" rx="4.11" ry="4.76" transform="translate(-22.88 23.75) rotate(-3.81)"/><path class="cls-49" d="M344.79,350.72s-1.42,6,.9,9.49"/><path class="cls-49" d="M349.21,355.2s-5.18,1.58-8.2.55"/><path class="cls-53" d="M451.34,391.27s-10.91-2.66-20.72,1.38-10.85-4.88-15.48-4.46-5.27,7.3-11.61,7-4.43-2.82-7.42-2.61-2.79,3.34-5.64,3.16-4.62-8.84-6.26-8.5"/><path class="cls-10" d="M450,518.33a66,66,0,0,1,2.2-11c4.3-15,17.71-60.34,29.95-87.66,7.21-16.1,11.56-27.1,15.31-35.33a68.84,68.84,0,0,1,18.88-24.59c5.39-4.44,11.59-9.43,21-13.24,12.3-5,25.68-5.05,38.85-3.39,32.82,4.13,50.39,4.59,56.84,6.53,6.37,4.25,33.78,32.47,35.88,56.55,1.51,17.37.41,41.07-11.6,59.88S597.11,575,575.6,577.07c-25.1,2.44-89.7-.35-108.67-13.79C449.9,551.21,448.06,535.65,450,518.33Z"/><path class="cls-11" d="M563.93,574.45c-8.45,0-15.34-2-21.06-6-15.44-10.93-17.33-24.52-15.42-41.57a61.82,61.82,0,0,1,2.08-10.35c3.89-13.54,17.52-59.83,29.78-87.18,4-8.89,7.16-16.38,9.71-22.4,2.1-5,3.92-9.25,5.59-12.91a65.5,65.5,0,0,1,17.88-23.28c4.85-4,10.88-9,20.06-12.68a62.55,62.55,0,0,1,23.58-4.53,66.69,66.69,0,0,1,13.19,1.33c22.59,4.58,38.07,15.18,44.68,19.71l1.6,1.09.81.54c20.24,13.38,31.14,27.38,32.37,41.59,1.41,16.19.64,39.32-11,57.61-5.31,8.31-26.55,28.15-52.84,49.38C638,546.51,614.84,562.33,606,565.07l-4.4,1.38C589.74,570.2,576.27,574.45,563.93,574.45Z"/><path d="M636.13,349.88v7.28a62.51,62.51,0,0,1,12.47,1.26c21.86,4.43,36.91,14.74,43.34,19.14l1.64,1.11.82.55a105,105,0,0,1,17.84,14.32c7.86,8.14,12.21,16.4,12.92,24.56,2.46,28.3-4.35,45.71-10.49,55.33-5,7.88-26.44,27.83-52.06,48.5-26.2,21.15-49.38,37.09-57.67,39.66L600.53,563c-11.64,3.67-24.82,7.83-36.6,7.83-7.67,0-13.87-1.75-19-5.36-6.59-4.67-10.79-10.14-12.83-16.72-1.77-5.69-2.1-12.31-1.08-21.47a60.1,60.1,0,0,1,2-9.76c3.87-13.48,17.44-59.57,29.6-86.69,4-8.93,7.18-16.44,9.74-22.47,2.1-4.94,3.9-9.21,5.55-12.82a62,62,0,0,1,16.88-22c4.66-3.84,10.45-8.61,19.12-12.12a59,59,0,0,1,22.21-4.26v-7.28m0,0a66.63,66.63,0,0,0-24.94,4.79c-9.43,3.81-15.63,8.81-21,13.25a68.81,68.81,0,0,0-18.88,24.58c-3.75,8.24-8.09,19.24-15.3,35.33-12.25,27.33-25.66,72.68-30,87.66a66.08,66.08,0,0,0-2.2,11c-1.94,17.31-.1,32.88,16.93,44.94,6.92,4.9,14.86,6.7,23.17,6.7,14.48,0,30.06-5.47,43.17-9.54,20.64-6.41,101.69-72.4,113.71-91.2s13.11-42.51,11.6-59.88c-2.1-24.08-28.42-40.6-34.79-44.85-5.41-3.61-22.18-16.19-47.58-21.34a70.05,70.05,0,0,0-13.91-1.4Z"/><ellipse class="cls-12" cx="672.97" cy="432.84" rx="38.75" ry="48.49" transform="translate(-7.97 12.64) rotate(-1.07)"/><ellipse class="cls-12" cx="624.88" cy="502.73" rx="27.76" ry="34.74" transform="translate(-9.28 11.76) rotate(-1.07)"/><ellipse class="cls-12" cx="570.09" cy="531.1" rx="21.84" ry="27.34" transform="translate(-9.82 10.74) rotate(-1.07)"/><ellipse class="cls-13" cx="675.44" cy="432.79" rx="13.18" ry="18.12" transform="matrix(1, -0.02, 0.02, 1, -7.97, 12.69)"/><ellipse class="cls-13" cx="626.14" cy="504.09" rx="11.38" ry="15.64" transform="translate(-109.29 179.6) rotate(-15.03)"/><ellipse class="cls-13" cx="570.13" cy="532.96" rx="8.43" ry="11.59" transform="matrix(0.97, -0.26, 0.26, 0.97, -118.7, 166.06)"/><path class="cls-14" d="M554.16,494.68s5.74-12.61,24.85-7.06c3.16-8.15,9.57-30.13,43.22-28.76-1.9-7.39-16.17-39.2,7.75-71.73-10-4.06-16.17-6.77-28.14,9S552.67,490.94,554.16,494.68Z"/><line class="cls-15" x1="497.64" y1="384" x2="573.12" y2="388.8"/><line class="cls-15" x1="539.67" y1="345.69" x2="623.69" y2="351.02"/><polyline class="cls-15" points="635.67 351.78 657.97 353.2 657.98 353.2"/><line class="cls-15" x1="477.45" y1="430.9" x2="552.64" y2="435.67"/><line class="cls-15" x1="461.25" y1="477.34" x2="536.16" y2="482.09"/><line class="cls-15" x1="449.44" y1="525.3" x2="523.49" y2="530"/><rect class="cls-54" x="465.73" y="102.88" width="49.31" height="11.31" rx="5.66"/><rect class="cls-54" x="311.5" y="110.25" width="49.31" height="11.31" rx="5.66"/><path class="cls-55" d="M555.33,100.72l-1-.25a75.42,75.42,0,0,1,2,16.43c.27,11.92,4.13,154.74,4.14,155.08a36.3,36.3,0,0,1-.34,6.12l1.63-1.45,7.56,21.93-23.8-3.32-4.07-.57c-6.22-2.28-6.45-9.4-7.3-14.95l-20-148.87a122.5,122.5,0,0,1,.69-16.25c1.15-11.09,5.69-26.87,16.91-32a13,13,0,0,1,3.73-1.06h.07l5.64.65,19.13,2.2Z"/><path class="cls-56" d="M536,133.94a124,124,0,0,1,.69-16.24c1.16-11.1,5.69-26.88,16.91-32,8-3.64,16.23,1.89,19.59,9.23,3.58,7.79,4.78,16.52,5,25,.27,11.92,4.13,154.74,4.13,155.08.18,6.46-1.28,13.88-5.84,18.87-3.12,3.41-8.6,5.51-13.18,3.83-6.22-2.27-6.45-9.39-7.3-14.94Z"/><path class="cls-18" d="M476.74,93.83a24.5,24.5,0,0,1-.34-4.36Z"/><path class="cls-18" d="M562.6,75.93l-.37,4.91a.92.92,0,0,1-.34.73c-2.9,2.31-5.71,2.74-13.68-.46-2.53-1-41-12.28-37.92-15.77s12.24-.43,13-.3,22.66,7.06,33.83,12.42Z"/><path class="cls-18" d="M547.05,76.72l-.94,3.53-1.07,4h0a7.15,7.15,0,0,1-1.46,2.12c-1.5,1.27-5.11,0-9-.43-17.16-2-48.18-9.4-49.08-12.54a8.16,8.16,0,0,1,.1-4.46l2.1-8,1.33,3a6.24,6.24,0,0,1,1.42-.75c8.67-3.22,38.42,7.72,53.29,15.14Z"/><path class="cls-19" d="M510.68,60c3-3.49,12.24-.43,13-.31s31.1,9.73,38.55,15.07a.93.93,0,0,1,0,1.47c-2.89,2.31-5.7,2.74-13.67-.47C546.07,74.77,507.65,63.5,510.68,60Z"/><path class="cls-19" d="M547.11,72.69c-14.14-7.39-46-19.41-55.06-16.06C488.41,58,486,63,487.1,66.86,488,70,519,77.39,536.17,79.4c3.85.45,7.46,1.7,9,.43S548.75,73.54,547.11,72.69Z"/><path class="cls-18" d="M535.9,90.54c.15,3.43-1.88,6.95-5.55,7.42-18.31,2.32-47.88,7.16-50.65,3.55a17.68,17.68,0,0,1-2.95-7.63.09.09,0,0,1,0,0l-.34-4.36V79.62L534.47,81l1.44,9.52Z"/><path class="cls-19" d="M529.92,76.71c-16-3.6-41.61-8.25-50.65-3.65-4.95,4.31-3.81,16.37,0,21.32,2.77,3.61,32.34-1.23,50.65-3.56C536.76,90,537.9,78.5,529.92,76.71Z"/><path class="cls-18" d="M476.75,93.88h0v0A.09.09,0,0,0,476.75,93.88Z"/><ellipse class="cls-57" cx="328.78" cy="252.41" rx="18.46" ry="18.1" transform="translate(31.03 540.76) rotate(-81.6)"/><path class="cls-58" d="M339.21,253.45a11,11,0,0,1-6.69,8.63l-1.38,9.33-10.69-1.58,1.37-9.28a11,11,0,0,1-4-10.26,10.81,10.81,0,1,1,21.38,3.16Z"/><path class="cls-59" d="M320.66,287.64c-11.72-.05-13.64-4.7-13.72-4.9l0-.15a23.88,23.88,0,0,1,.75-3.63c1.35-4.72,5.07-12.75,14.85-13.51.47,0,.92-.05,1.36-.05,7.69,0,11.49,5.22,13.32,9.6a22.42,22.42,0,0,1,1.47,5.1l0,.18c-.14.3-3.61,7.36-17.79,7.36Z"/><path d="M323.88,265.74c7.58,0,11.27,5.23,13,9.39a22,22,0,0,1,1.44,5s-3.35,7.16-17.48,7.16h-.19c-11.62-.05-13.4-4.68-13.4-4.68a21.57,21.57,0,0,1,.74-3.56c1.34-4.72,5-12.54,14.55-13.27.46,0,.9-.05,1.33-.05m0-.67h0c-.45,0-.92,0-1.38.05-10,.77-13.78,8.95-15.15,13.75a23.92,23.92,0,0,0-.76,3.69l0,.31c.08.2,2.08,5.05,14,5.1h.19c14.39,0,17.95-7.24,18.09-7.55l.06-.37a22.65,22.65,0,0,0-1.49-5.18c-1.87-4.47-5.76-9.8-13.63-9.8Z"/><path class="cls-60" d="M338.33,280.14s-3.38,7.23-17.67,7.16c-11.62-.05-13.4-4.68-13.4-4.68a21.57,21.57,0,0,1,.74-3.56c3-3.61,9.61-6.12,17.29-6.12a30,30,0,0,1,11.6,2.19A22,22,0,0,1,338.33,280.14Z"/><path class="cls-61" d="M331.66,273.28a1.75,1.75,0,0,1-1.12-.4,1.5,1.5,0,0,1-.57-1.11,1.54,1.54,0,0,1,.44-1.15l52-53.39a1.75,1.75,0,0,1,1.25-.52,1.73,1.73,0,0,1,1.12.4,1.56,1.56,0,0,1,.57,1.12,1.57,1.57,0,0,1-.44,1.15l-52,53.39a1.77,1.77,0,0,1-1.25.51Z"/><path d="M383.64,217.05a1.41,1.41,0,0,1,.91.32,1.19,1.19,0,0,1,.1,1.77l-52,53.39a1.39,1.39,0,0,1-1,.41,1.41,1.41,0,0,1-.91-.32,1.19,1.19,0,0,1-.1-1.77l52-53.39a1.43,1.43,0,0,1,1-.41m0-.67a2.08,2.08,0,0,0-1.49.61l-52,53.39a1.85,1.85,0,0,0-.53,1.41,1.87,1.87,0,0,0,.68,1.35,2.11,2.11,0,0,0,2.83-.14l52-53.39a1.84,1.84,0,0,0,.53-1.4,1.88,1.88,0,0,0-.68-1.36,2.14,2.14,0,0,0-1.34-.47Z"/><path class="cls-61" d="M314.07,271.75a1.73,1.73,0,0,1-1.31-.59L264.32,215a1.53,1.53,0,0,1-.36-1.17,1.54,1.54,0,0,1,.63-1.08,1.69,1.69,0,0,1,1.05-.34A1.73,1.73,0,0,1,267,213l48.44,56.18a1.49,1.49,0,0,1,.36,1.16,1.53,1.53,0,0,1-.63,1.09,1.78,1.78,0,0,1-1.05.34Z"/><path d="M265.64,212.73a1.4,1.4,0,0,1,1.06.47l48.43,56.17a1.2,1.2,0,0,1-.21,1.77,1.46,1.46,0,0,1-.85.27,1.4,1.4,0,0,1-1.06-.47l-48.43-56.17a1.2,1.2,0,0,1,.21-1.77,1.46,1.46,0,0,1,.85-.27m0-.67a2.06,2.06,0,0,0-1.25.41,1.86,1.86,0,0,0-.32,2.74l48.43,56.17a2.06,2.06,0,0,0,1.57.7,2.12,2.12,0,0,0,1.25-.4,1.93,1.93,0,0,0,.77-1.32,1.85,1.85,0,0,0-.45-1.42l-48.43-56.17a2.07,2.07,0,0,0-1.57-.71Z"/><g class="cls-62"><g class="cls-62"><path class="cls-1" d="M412.76,192l8.12-2a1,1,0,0,1,.42,0l-8.12,2A1.19,1.19,0,0,0,412.76,192Z"/><g class="cls-63"><g class="cls-62"><path class="cls-1" d="M412.76,192l8.12-2,.09,0-8.12,2h-.09"/><path class="cls-1" d="M412.85,192l8.12-2h.12L413,192h-.12"/><path class="cls-1" d="M413,192l8.12-2h.1l-8.11,2H413"/><path class="cls-1" d="M413.08,192l8.11-2h.1l-8.11,2h-.1"/><polyline class="cls-1" points="413.18 192.01 421.29 189.98 421.3 189.98 413.18 192.01 413.18 192.01"/></g></g></g><g class="cls-62"><path class="cls-1" d="M425.43,229.12l-8.12,2c.73-.19,1.36-1.08,1.57-2.56a77.67,77.67,0,0,0-3.11-33.27c-.61-1.92-1.67-3.17-2.59-3.32l8.12-2c.91.14,2,1.39,2.58,3.32A77.51,77.51,0,0,1,427,226.57C426.79,228,426.16,228.94,425.43,229.12Z"/><g class="cls-64"><g class="cls-62"><path class="cls-1" d="M413.18,192l8.12-2,.09,0-8.12,2-.09,0"/><path class="cls-1" d="M413.27,192l8.12-2,.09,0-8.12,2-.09,0"/><path class="cls-1" d="M413.36,192.05l8.12-2,.09,0-8.12,2-.09,0"/><path class="cls-1" d="M413.45,192.08l8.12-2,.09,0-8.12,2-.09,0"/><path class="cls-1" d="M413.54,192.12l8.12-2,.09,0-8.12,2-.09,0"/><path class="cls-1" d="M413.63,192.16l8.12-2,.09.05-8.12,2-.09-.05"/><path class="cls-1" d="M413.72,192.21l8.12-2,.09.06-8.12,2-.09-.06"/><path class="cls-1" d="M413.81,192.27l8.12-2,.09.06-8.12,2-.09-.06"/><path class="cls-1" d="M413.9,192.33l8.12-2,.09.07-8.11,2-.1-.07"/><path class="cls-1" d="M414,192.4l8.11-2,.1.08-8.12,2-.09-.08"/><path class="cls-1" d="M414.09,192.48l8.12-2,.1.09-8.12,2-.1-.09"/><path class="cls-1" d="M414.19,192.57l8.12-2,.1.1-8.12,2a.47.47,0,0,0-.1-.1"/><path class="cls-1" d="M414.29,192.67l8.12-2,.11.11-8.12,2-.11-.11"/><path class="cls-1" d="M414.4,192.78l8.12-2,.11.12-8.12,2-.11-.12"/><path class="cls-1" d="M414.51,192.9l8.12-2,.11.15-8.11,2-.12-.15"/><path class="cls-1" d="M414.63,193.05l8.11-2,.12.16-8.11,2-.12-.16"/><path class="cls-1" d="M414.75,193.21l8.11-2,.13.18-8.12,2-.12-.18"/><path class="cls-1" d="M414.87,193.39l8.12-2,.13.2-8.12,2-.13-.2"/><path class="cls-1" d="M415,193.59l8.12-2,.12.22-8.11,2c0-.07-.09-.14-.13-.22"/><path class="cls-1" d="M415.13,193.81l8.11-2c.05.08.09.16.13.24l-8.12,2-.12-.24"/><path class="cls-1" d="M415.25,194.05l8.12-2,.12.26-8.11,2-.13-.26"/><path class="cls-1" d="M415.38,194.31l8.11-2a3.09,3.09,0,0,1,.14.32l-8.11,2-.14-.32"/><path class="cls-1" d="M415.52,194.63l8.11-2a6.37,6.37,0,0,1,.25.7c.35,1.11.67,2.22,1,3.35l-8.11,2c-.3-1.12-.63-2.24-1-3.35-.08-.25-.16-.48-.25-.7"/><path class="cls-1" d="M416.74,198.68l8.11-2c.23.84.44,1.69.64,2.54l-8.12,2c-.19-.85-.41-1.7-.63-2.54"/><path class="cls-1" d="M417.37,201.22l8.12-2c.16.7.32,1.4.46,2.1l-8.11,2c-.15-.7-.3-1.4-.47-2.1"/><path class="cls-1" d="M417.84,203.32l8.11-2c.13.63.26,1.26.37,1.89l-8.11,2c-.12-.63-.24-1.26-.37-1.89"/><path class="cls-1" d="M418.21,205.21l8.11-2c.11.6.21,1.19.31,1.79l-8.12,2c-.09-.6-.2-1.19-.3-1.79"/><path class="cls-1" d="M418.51,207l8.12-2c.09.59.18,1.18.26,1.77l-8.11,2c-.09-.59-.17-1.18-.27-1.77"/><path class="cls-1" d="M418.78,208.77l8.11-2c.08.59.16,1.19.23,1.78l-8.12,2c-.07-.59-.14-1.19-.22-1.78"/><path class="cls-1" d="M419,210.55l8.12-2q.11.9.18,1.8l-8.11,2c-.06-.6-.12-1.2-.19-1.8"/><path class="cls-1" d="M419.19,212.35l8.11-2q.09.92.15,1.83l-8.11,2c0-.6-.09-1.21-.15-1.83"/><path class="cls-1" d="M419.34,214.18l8.11-2c0,.62.08,1.24.11,1.85l-8.12,2c0-.61-.06-1.23-.1-1.85"/><path class="cls-1" d="M419.44,216l8.12-2c0,.62.05,1.24.06,1.85l-8.12,2c0-.61,0-1.23-.06-1.85"/><path class="cls-1" d="M419.5,217.88l8.12-2c0,.62,0,1.23,0,1.84l-8.11,2c0-.61,0-1.22,0-1.84"/><path class="cls-1" d="M419.52,219.72l8.11-2c0,.61,0,1.22,0,1.82l-8.12,2c0-.6,0-1.21,0-1.82"/><path class="cls-1" d="M419.48,221.54l8.12-2c0,.6-.05,1.2-.08,1.79l-8.12,2c0-.59.06-1.19.08-1.79"/><path class="cls-1" d="M419.4,223.33l8.12-2c0,.59-.08,1.17-.13,1.76l-8.11,2c.05-.59.09-1.17.12-1.76"/><path class="cls-1" d="M419.28,225.09l8.11-2c0,.57-.1,1.15-.17,1.72l-8.11,2c.06-.57.12-1.14.17-1.72"/><path class="cls-1" d="M419.11,226.81l8.11-2c-.06.58-.13,1.16-.21,1.73l-8.12,2c.08-.57.15-1.15.22-1.73"/><path class="cls-1" d="M418.89,228.54l8.12-2v.06l0,.18-8.12,2,0-.19v-.06"/><path class="cls-1" d="M418.85,228.79l8.12-2c0,.07,0,.13,0,.19l-8.11,2,0-.19"/><path class="cls-1" d="M418.82,229l8.11-2c0,.07,0,.13,0,.19l-8.12,2c0-.06,0-.12.05-.18"/><path class="cls-1" d="M418.77,229.16l8.12-2c0,.06,0,.12-.05.18l-8.11,2c0-.05,0-.12,0-.18"/><path class="cls-1" d="M418.73,229.34l8.11-2c0,.07,0,.13,0,.19l-8.12,2,.06-.19"/><path class="cls-1" d="M418.67,229.53l8.12-2a1.34,1.34,0,0,1-.07.18l-8.11,2,.06-.18"/><path class="cls-1" d="M418.61,229.71l8.11-2c0,.07-.05.13-.07.19l-8.12,2c0-.06.05-.12.08-.19"/><path class="cls-1" d="M418.53,229.9l8.12-2-.09.19-8.12,2,.09-.19"/><path class="cls-1" d="M418.44,230.09l8.12-2c0,.07-.07.14-.11.2l-8.12,2a2.12,2.12,0,0,0,.11-.21"/><path class="cls-1" d="M418.33,230.3l8.12-2a2,2,0,0,1-.16.24l-8.11,2,.15-.23"/><path class="cls-1" d="M418.18,230.53l8.11-2a1.53,1.53,0,0,1-.86.62l-8.12,2a1.62,1.62,0,0,0,.87-.63"/></g></g></g></g><g class="cls-62"><g class="cls-62"><path class="cls-1" d="M426.54,183.38l8.11-2a1.08,1.08,0,0,1,.44,0l-8.11,2A1.08,1.08,0,0,0,426.54,183.38Z"/><g class="cls-65"><g class="cls-62"><path class="cls-1" d="M426.54,183.38l8.11-2h.1l-8.12,2-.09,0"/><path class="cls-1" d="M426.63,183.36l8.12-2,.12,0-8.11,2h-.13"/><path class="cls-1" d="M426.76,183.35l8.11-2H435l-8.11,2h-.11"/><path class="cls-1" d="M426.87,183.35l8.11-2h.11l-8.12,2h-.1"/><polyline class="cls-1" points="426.97 183.36 435.09 181.33 435.09 181.33 426.98 183.36 426.97 183.36"/></g></g></g><g class="cls-62"><path class="cls-1" d="M440.84,237.54l-8.12,2c.7-.18,1.3-1,1.52-2.33,2.61-15.56.9-33.92-4.76-50.81-.59-1.77-1.61-2.93-2.5-3.07l8.11-2c.9.14,1.92,1.3,2.51,3.07,5.65,16.89,7.37,35.25,4.76,50.81C442.13,236.55,441.54,237.36,440.84,237.54Z"/><g class="cls-66"><g class="cls-62"><path class="cls-1" d="M427,183.36l8.11-2,.1,0-8.12,2-.09,0"/><path class="cls-1" d="M427.07,183.38l8.12-2,.09,0-8.12,2-.09,0"/><path class="cls-1" d="M427.16,183.4l8.12-2,.09,0-8.11,2-.1,0"/><path class="cls-1" d="M427.26,183.44l8.11-2,.1,0-8.12,2-.09,0"/><path class="cls-1" d="M427.35,183.47l8.12-2,.09.05-8.12,2-.09-.05"/><path class="cls-1" d="M427.44,183.52l8.12-2,.09,0-8.12,2-.09,0"/><path class="cls-1" d="M427.53,183.57l8.12-2,.09.06-8.11,2-.1-.06"/><path class="cls-1" d="M427.63,183.63l8.11-2,.1.06-8.12,2-.09-.06"/><path class="cls-1" d="M427.72,183.69l8.12-2,.09.07-8.12,2-.09-.07"/><path class="cls-1" d="M427.81,183.76l8.12-2,.1.08-8.12,2-.1-.08"/><path class="cls-1" d="M427.91,183.84l8.12-2,.1.09-8.12,2-.1-.09"/><path class="cls-1" d="M428,183.93l8.12-2,.1.1-8.12,2-.1-.1"/><path class="cls-1" d="M428.11,184l8.12-2,.1.11-8.11,2-.11-.11"/><path class="cls-1" d="M428.22,184.14l8.11-2,.11.12-8.11,2-.11-.12"/><path class="cls-1" d="M428.33,184.26l8.11-2,.12.14-8.12,2a1.34,1.34,0,0,1-.11-.14"/><path class="cls-1" d="M428.44,184.4l8.12-2a.91.91,0,0,1,.11.16l-8.11,2-.12-.16"/><path class="cls-1" d="M428.56,184.56l8.11-2,.13.18-8.12,2-.12-.18"/><path class="cls-1" d="M428.68,184.74l8.12-2,.12.19-8.12,2-.12-.2"/><path class="cls-1" d="M428.8,184.94l8.12-2,.12.22-8.11,2a1.07,1.07,0,0,0-.13-.21"/><path class="cls-1" d="M428.93,185.15l8.11-2,.12.22-8.11,2-.12-.22"/><path class="cls-1" d="M429.05,185.37l8.11-2,.12.25-8.12,2a1.89,1.89,0,0,0-.11-.25"/><path class="cls-1" d="M429.16,185.62l8.12-2c0,.09.09.19.13.29l-8.12,2a2.55,2.55,0,0,0-.13-.29"/><path class="cls-1" d="M429.29,185.91l8.12-2c.07.17.13.34.19.52q1.11,3.32,2,6.69l-8.11,2q-.92-3.37-2-6.69c-.06-.18-.12-.35-.19-.52"/><path class="cls-1" d="M431.5,193.12l8.11-2c.34,1.24.65,2.48.94,3.72l-8.12,2c-.29-1.25-.6-2.49-.93-3.73"/><path class="cls-1" d="M432.43,196.85l8.12-2c.23,1,.44,1.95.64,2.92l-8.12,2c-.2-1-.41-1.94-.64-2.91"/><path class="cls-1" d="M433.07,199.76l8.12-2c.18.89.36,1.77.52,2.65l-8.12,2c-.16-.89-.33-1.77-.52-2.66"/><path class="cls-1" d="M433.59,202.42l8.12-2c.15.84.29,1.68.43,2.52l-8.12,2c-.13-.84-.28-1.68-.43-2.52"/><path class="cls-1" d="M434,204.94l8.12-2c.13.84.26,1.67.37,2.5l-8.12,2c-.11-.83-.23-1.66-.37-2.49"/><path class="cls-1" d="M434.39,207.43l8.12-2c.11.83.22,1.66.32,2.5l-8.12,2c-.1-.83-.2-1.67-.32-2.5"/><path class="cls-1" d="M434.71,209.93l8.12-2c.09.84.18,1.69.26,2.53l-8.12,2c-.07-.85-.16-1.69-.26-2.54"/><path class="cls-1" d="M435,212.47l8.12-2c.08.86.15,1.72.21,2.57l-8.12,2c-.06-.86-.13-1.72-.21-2.57"/><path class="cls-1" d="M435.18,215l8.12-2c.06.87.11,1.74.15,2.6l-8.12,2c0-.87-.09-1.73-.15-2.6"/><path class="cls-1" d="M435.33,217.64l8.12-2c0,.88.06,1.74.08,2.61l-8.12,2c0-.86,0-1.73-.08-2.6"/><path class="cls-1" d="M435.41,220.24l8.12-2c0,.87,0,1.73,0,2.59l-8.12,2c0-.86,0-1.72,0-2.59"/><path class="cls-1" d="M435.43,222.83l8.12-2c0,.86,0,1.71-.05,2.56l-8.11,2c0-.85,0-1.7,0-2.56"/><path class="cls-1" d="M435.39,225.39l8.11-2c0,.84-.06,1.68-.11,2.51l-8.11,2c0-.83.08-1.67.11-2.51"/><path class="cls-1" d="M435.28,227.9l8.11-2c-.05.83-.1,1.65-.17,2.47l-8.12,2c.07-.82.13-1.64.18-2.47"/><path class="cls-1" d="M435.1,230.37l8.12-2q-.11,1.22-.24,2.43l-8.12,2c.09-.81.17-1.61.24-2.43"/><path class="cls-1" d="M434.86,232.8l8.12-2c-.09.8-.2,1.61-.31,2.4l-8.11,2q.17-1.19.3-2.4"/><path class="cls-1" d="M434.56,235.2l8.11-2c-.1.69-.2,1.37-.31,2v0l-8.11,2v0c.11-.67.22-1.35.32-2"/><path class="cls-1" d="M434.24,237.27l8.11-2,0,.18-8.12,2a1.16,1.16,0,0,1,0-.18"/><path class="cls-1" d="M434.2,237.45l8.12-2a1.16,1.16,0,0,0,0,.18l-8.12,2a1.16,1.16,0,0,0,0-.18"/><path class="cls-1" d="M434.16,237.63l8.12-2c0,.06,0,.12,0,.17l-8.11,2c0-.05,0-.11,0-.17"/><path class="cls-1" d="M434.12,237.8l8.11-2a1.21,1.21,0,0,1-.05.18l-8.12,2,.06-.18"/><path class="cls-1" d="M434.06,238l8.12-2-.06.17-8.12,2,.06-.18"/><path class="cls-1" d="M434,238.16l8.12-2c0,.07-.05.12-.07.18l-8.12,2a.87.87,0,0,0,.07-.17"/><path class="cls-1" d="M433.93,238.33l8.12-2-.09.19-8.11,2c0-.06,0-.12.08-.19"/><path class="cls-1" d="M433.85,238.52l8.11-2a2,2,0,0,1-.11.2l-8.11,2,.11-.2"/><path class="cls-1" d="M433.74,238.72l8.11-2a1.64,1.64,0,0,1-.14.22l-8.12,2,.15-.22"/><path class="cls-1" d="M433.59,238.94l8.12-2a1.62,1.62,0,0,1-.87.63l-8.12,2a1.57,1.57,0,0,0,.87-.63"/></g></g></g></g><g class="cls-62"><g class="cls-62"><path class="cls-1" d="M440.24,171.93l8.12-2a1.14,1.14,0,0,1,.45,0l-8.11,2A1.18,1.18,0,0,0,440.24,171.93Z"/><g class="cls-67"><g class="cls-62"><path class="cls-1" d="M440.24,171.93l8.12-2,.1,0-8.12,2-.1,0"/><path class="cls-1" d="M440.34,171.91l8.12-2h.13l-8.12,2h-.13"/><path class="cls-1" d="M440.47,171.9l8.12-2h.11l-8.12,2h-.11"/><path class="cls-1" d="M440.58,171.9l8.12-2h.11l-8.12,2h-.11"/><polyline class="cls-1" points="440.69 171.91 448.81 169.88 448.81 169.88 440.7 171.91 440.69 171.91"/></g></g></g><g class="cls-62"><path class="cls-1" d="M456.53,247l-8.12,2c.68-.17,1.26-.93,1.49-2.19,4-21.91,1.55-48.14-6.75-72-.58-1.68-1.57-2.78-2.45-2.92l8.11-2c.89.14,1.88,1.24,2.46,2.92,8.3,23.89,10.75,50.12,6.74,72C457.78,246.09,457.21,246.85,456.53,247Z"/><g class="cls-68"><g class="cls-62"><path class="cls-1" d="M440.7,171.91l8.11-2,.1,0-8.12,2-.09,0"/><path class="cls-1" d="M440.79,171.93l8.12-2,.1,0-8.12,2-.1,0"/><path class="cls-1" d="M440.89,172l8.12-2,.09,0L441,172l-.1,0"/><path class="cls-1" d="M441,172l8.11-2,.1,0-8.12,2-.09,0"/><path class="cls-1" d="M441.08,172l8.12-2,.09,0-8.12,2-.09,0"/><path class="cls-1" d="M441.17,172.07l8.12-2,.09.05-8.11,2-.1-.06"/><path class="cls-1" d="M441.27,172.13l8.11-2,.09.06-8.11,2-.09-.05"/><path class="cls-1" d="M441.36,172.18l8.11-2,.1.07-8.12,2-.09-.07"/><path class="cls-1" d="M441.45,172.25l8.12-2,.09.07-8.11,2-.1-.07"/><path class="cls-1" d="M441.55,172.32l8.11-2a.39.39,0,0,1,.1.08l-8.12,2-.09-.08"/><path class="cls-1" d="M441.64,172.4l8.12-2,.1.08-8.12,2-.1-.09"/><path class="cls-1" d="M441.74,172.49l8.12-2a.94.94,0,0,0,.1.1l-8.12,2-.1-.09"/><path class="cls-1" d="M441.84,172.58l8.12-2,.1.11-8.11,2-.11-.11"/><path class="cls-1" d="M442,172.69l8.11-2,.11.12-8.11,2-.11-.13"/><path class="cls-1" d="M442.06,172.82l8.11-2a1.34,1.34,0,0,1,.11.14l-8.11,2-.11-.13"/><path class="cls-1" d="M442.17,173l8.11-2,.12.16-8.12,2-.11-.16"/><path class="cls-1" d="M442.28,173.11l8.12-2,.12.17-8.12,2a.88.88,0,0,0-.12-.17"/><path class="cls-1" d="M442.4,173.28l8.12-2,.12.2-8.11,2-.13-.2"/><path class="cls-1" d="M442.53,173.48l8.11-2,.12.2-8.11,2-.12-.2"/><path class="cls-1" d="M442.65,173.68l8.11-2,.12.22-8.12,2-.11-.22"/><path class="cls-1" d="M442.76,173.9l8.12-2,.11.24-8.11,2-.12-.24"/><path class="cls-1" d="M442.88,174.14l8.11-2a2.71,2.71,0,0,1,.13.3l-8.12,2-.12-.3"/><path class="cls-1" d="M443,174.44l8.12-2c.05.12.1.26.15.39,1.24,3.58,2.36,7.22,3.33,10.88l-8.11,2q-1.47-5.49-3.34-10.88a3.12,3.12,0,0,0-.15-.39"/><path class="cls-1" d="M446.49,185.71l8.11-2q.64,2.41,1.22,4.84l-8.12,2q-.57-2.43-1.21-4.84"/><path class="cls-1" d="M447.7,190.55l8.12-2c.31,1.33.6,2.66.88,4l-8.12,2c-.28-1.33-.57-2.66-.88-4"/><path class="cls-1" d="M448.58,194.54l8.12-2c.24,1.2.48,2.39.7,3.59l-8.12,2c-.22-1.2-.45-2.39-.7-3.59"/><path class="cls-1" d="M449.28,198.13l8.12-2c.2,1.15.4,2.29.58,3.44l-8.11,2c-.18-1.15-.38-2.29-.59-3.44"/><path class="cls-1" d="M449.87,201.57l8.11-2c.18,1.12.35,2.24.51,3.37l-8.12,2c-.15-1.13-.32-2.25-.5-3.37"/><path class="cls-1" d="M450.37,204.94l8.12-2c.15,1.13.3,2.26.43,3.39l-8.12,2c-.13-1.13-.27-2.26-.43-3.39"/><path class="cls-1" d="M450.8,208.33l8.12-2c.13,1.15.25,2.29.35,3.44l-8.11,2c-.11-1.15-.23-2.29-.36-3.44"/><path class="cls-1" d="M451.16,211.77l8.11-2c.11,1.16.2,2.32.28,3.48l-8.11,2c-.08-1.16-.18-2.32-.28-3.48"/><path class="cls-1" d="M451.44,215.25l8.11-2c.09,1.18.15,2.35.2,3.52l-8.11,2c-.05-1.17-.12-2.34-.2-3.52"/><path class="cls-1" d="M451.64,218.77l8.11-2q.09,1.77.12,3.54l-8.12,2c0-1.18-.06-2.35-.11-3.54"/><path class="cls-1" d="M451.75,222.31l8.12-2c0,1.17,0,2.34,0,3.5l-8.12,2q0-1.75,0-3.51"/><path class="cls-1" d="M451.78,225.82l8.12-2c0,1.17,0,2.32-.07,3.47l-8.11,2c0-1.15,0-2.3.06-3.46"/><path class="cls-1" d="M451.72,229.28l8.11-2c0,1.14-.08,2.28-.15,3.41l-8.11,2c.06-1.13.11-2.27.15-3.41"/><path class="cls-1" d="M451.57,232.69l8.11-2c-.06,1.12-.14,2.24-.24,3.34l-8.11,2c.09-1.11.17-2.23.24-3.35"/><path class="cls-1" d="M451.33,236l8.11-2c-.09,1.11-.2,2.21-.32,3.29l-8.12,2c.13-1.09.23-2.19.33-3.29"/><path class="cls-1" d="M451,239.33l8.12-2c-.12,1.1-.26,2.18-.41,3.25l-8.12,2c.15-1.07.29-2.15.41-3.24"/><path class="cls-1" d="M450.59,242.57l8.12-2c-.16,1.11-.33,2.21-.52,3.29l-8.12,2c.19-1.08.36-2.18.52-3.29"/><path class="cls-1" d="M450.07,245.86l8.12-2-.18,1s0,.08,0,.12l-8.12,2,0-.12c.06-.33.12-.66.17-1"/><path class="cls-1" d="M449.87,247l8.12-2c0,.06,0,.12,0,.17l-8.12,2a1.16,1.16,0,0,0,0-.18"/><path class="cls-1" d="M449.83,247.16l8.12-2c0,.06,0,.12,0,.17l-8.12,2a.94.94,0,0,0,0-.16"/><path class="cls-1" d="M449.79,247.32l8.12-2a1.54,1.54,0,0,0-.05.17l-8.12,2a.84.84,0,0,0,.05-.17"/><path class="cls-1" d="M449.74,247.49l8.12-2-.06.17-8.12,2,.06-.17"/><path class="cls-1" d="M449.68,247.66l8.12-2-.07.18-8.12,2a1.34,1.34,0,0,0,.07-.18"/><path class="cls-1" d="M449.61,247.84l8.12-2-.09.18-8.11,2a1.42,1.42,0,0,0,.08-.18"/><path class="cls-1" d="M449.53,248l8.11-2a1.74,1.74,0,0,1-.1.19l-8.12,2,.11-.19"/><path class="cls-1" d="M449.42,248.21l8.12-2-.15.22-8.11,2a1.64,1.64,0,0,0,.14-.22"/><path class="cls-1" d="M449.28,248.43l8.11-2a1.58,1.58,0,0,1-.86.62l-8.12,2a1.6,1.6,0,0,0,.87-.62"/></g></g></g></g><g class="cls-62"><g class="cls-62"><path class="cls-1" d="M220.58,186.32c-2.36-.6-6.13-2.44-8.53-2C214.88,185,217.77,185.61,220.58,186.32Z"/><g class="cls-69"><g class="cls-62"><path class="cls-1" d="M220.58,186.32c-2.7-.68-5.45-1.64-8.2-2l8.2,2"/><path class="cls-1" d="M220.49,186.3c-2.58-.65-5.58-2-8.23-2,2.71.67,5.47,1.62,8.23,2"/><path class="cls-1" d="M220.37,186.29c-2.41-.61-5.75-2.2-8.22-2,2.58.64,5.58,1.94,8.22,2"/><path class="cls-1" d="M220.27,186.29c-2.24-.56-6-2.37-8.22-2,2.42.6,5.75,2.18,8.22,2"/><path class="cls-1" d="M220.17,186.3c-2.18-.55-5.95-2.38-8.12-2,2.18.55,5.93,2.37,8.12,2"/></g></g></g><g class="cls-62"><path class="cls-1" d="M207.92,223.42l8.11,2c-3.9-1-2.07-16.94-1.79-19.67.35-3.34,1.47-18.77,5.92-19.48a62.88,62.88,0,0,0-6.69-1.67c-4-.54-4.47,4.25-5.3,7.53a80.84,80.84,0,0,0-2.41,17C205.67,211.54,204.74,222.62,207.92,223.42Z"/><g class="cls-70"><g class="cls-62"><path class="cls-1" d="M220.16,186.3c-2.07-.52-6.16-2.49-8.2-2,2.23.55,6,2.37,8.2,2"/><path class="cls-1" d="M220.08,186.32c-1.94-.49-6.36-2.58-8.21-2,2.08.52,6.15,2.49,8.21,2"/><path class="cls-1" d="M220,186.34c-1.8-.45-6.53-2.63-8.2-2,1.94.49,6.35,2.58,8.2,2"/><path class="cls-1" d="M219.89,186.37c-1.69-.42-6.69-2.67-8.2-2,1.81.45,6.53,2.63,8.2,2"/><path class="cls-1" d="M219.8,186.41c-1.59-.4-6.83-2.69-8.2-2,1.7.43,6.69,2.67,8.2,2"/><path class="cls-1" d="M219.71,186.45c-1.51-.37-7-2.7-8.2-2,1.6.4,6.83,2.69,8.2,2"/><path class="cls-1" d="M219.62,186.5c-1.43-.36-7.08-2.7-8.2-2,1.52.38,7,2.7,8.2,2"/><path class="cls-1" d="M219.53,186.56c-1.37-.34-7.18-2.7-8.21-2,1.45.36,7.08,2.71,8.21,2"/><path class="cls-1" d="M219.44,186.62c-1.32-.33-7.28-2.69-8.21-2,1.39.35,7.18,2.7,8.21,2"/><path class="cls-1" d="M219.35,186.69c-1.27-.31-7.36-2.68-8.22-1.95,1.34.33,7.27,2.69,8.22,1.95"/><path class="cls-1" d="M219.25,186.77c-1.23-.31-7.44-2.66-8.21-1.94,1.28.32,7.35,2.68,8.21,1.94"/><path class="cls-1" d="M219.15,186.86c-1.19-.3-7.5-2.65-8.22-1.93,1.25.31,7.43,2.66,8.22,1.93"/><path class="cls-1" d="M219.05,187c-1.17-.29-7.57-2.63-8.22-1.92,1.21.3,7.49,2.65,8.22,1.92"/><path class="cls-1" d="M218.94,187.07c-1.14-.29-7.62-2.62-8.22-1.91,1.19.3,7.56,2.64,8.22,1.91"/><path class="cls-1" d="M218.83,187.2c-1.13-.29-7.67-2.6-8.23-1.89,1.17.29,7.62,2.62,8.23,1.89"/><path class="cls-1" d="M218.72,187.34c-1.12-.28-7.73-2.58-8.24-1.87,1.16.29,7.66,2.6,8.24,1.87"/><path class="cls-1" d="M218.6,187.5c-1.12-.28-7.77-2.56-8.24-1.85,1.15.29,7.7,2.59,8.24,1.85"/><path class="cls-1" d="M218.47,187.68c-1.11-.27-7.81-2.54-8.24-1.83,1.14.29,7.75,2.58,8.24,1.83"/><path class="cls-1" d="M218.34,187.89c-1.1-.28-7.84-2.53-8.24-1.82,1.14.29,7.8,2.56,8.24,1.82"/><path class="cls-1" d="M218.22,188.11c-1.1-.28-7.88-2.51-8.24-1.8,1.12.28,7.83,2.53,8.24,1.8"/><path class="cls-1" d="M218.09,188.34c-1.1-.28-7.91-2.49-8.24-1.77,1.14.28,7.87,2.52,8.24,1.77"/><path class="cls-1" d="M218,188.6c-1.16-.29-7.93-2.52-8.26-1.71,1.19.3,7.88,2.54,8.26,1.71"/><path class="cls-1" d="M217.83,188.92l-5.64-1.41c-3.27-.82-2.78,0-3.7,3.43l5.64,1.41c3.46.87,2.37-.17,3.7-3.43"/><path class="cls-1" d="M216.61,193l-4.47-1.12c-1.85-.46-3.46-1.73-4,.36s1.49,1.72,3.35,2.18l4.46,1.12c.2-.85.41-1.7.64-2.54"/><path class="cls-1" d="M216,195.51l-8.12-2c-.65,2.79.18,2.26,2.8,2.92l4.86,1.21c.14-.7.3-1.4.46-2.1"/><path class="cls-1" d="M215.51,197.61l-8.12-2c-.54,2.6.45,2.09,2.89,2.7l4.86,1.22c.11-.63.24-1.26.37-1.89"/><path class="cls-1" d="M215.14,199.5l-8.12-2c-.45,2.5.6,2,2.95,2.6l4.86,1.22c.1-.6.2-1.19.31-1.79"/><path class="cls-1" d="M214.83,201.29l-8.11-2c-.4,2.48.66,2,3,2.58l4.86,1.22c.08-.59.17-1.18.26-1.77"/><path class="cls-1" d="M214.57,203.06l-8.12-2c-.34,2.49.7,2,3,2.59l4.86,1.22c.07-.59.15-1.19.23-1.78"/><path class="cls-1" d="M214.34,204.84l-8.11-2c-.29,2.5.72,2,3.06,2.62l4.87,1.22c.05-.61.11-1.21.18-1.81"/><path class="cls-1" d="M214.16,206.65l-8.12-2c-.23,2.53.74,2.06,3.11,2.65l4.86,1.21c0-.61.09-1.22.15-1.82"/><path class="cls-1" d="M214,208.47l-8.12-2c-.17,2.54.78,2.07,3.15,2.67l4.86,1.21c0-.61.07-1.23.11-1.85"/><path class="cls-1" d="M213.9,210.32l-8.11-2c-.12,2.53.82,2.07,3.19,2.67l4.86,1.21.06-1.85"/><path class="cls-1" d="M213.84,212.17l-8.11-2c0,2.52.88,2.07,3.24,2.66l4.86,1.22c0-.62,0-1.23,0-1.85"/><path class="cls-1" d="M213.83,214l-8.12-2c0,2.49.95,2.05,3.29,2.64l4.86,1.21c0-.6,0-1.21,0-1.81"/><path class="cls-1" d="M213.86,215.83l-8.11-2c.07,2.45,1,2,3.33,2.6l4.86,1.22c0-.59-.06-1.19-.08-1.79"/><path class="cls-1" d="M213.94,217.62l-8.11-2c.13,2.41,1.09,2,3.38,2.57l4.86,1.22c0-.59-.09-1.17-.13-1.76"/><path class="cls-1" d="M214.07,219.38l-8.12-2c.2,2.37,1.17,2,3.43,2.54l4.86,1.21c-.07-.57-.12-1.15-.17-1.72"/><path class="cls-1" d="M214.24,221.1l-8.12-2c.35,3.15,5.51,3.05,8.34,3.76-.09-.58-.16-1.15-.22-1.73"/><path class="cls-1" d="M214.46,222.83l-8.12-2c.17,1.23,8.07,1.7,8.12,2"/><path class="cls-1" d="M214.49,223.08l-8.11-2c.21,1.25,8,1.47,8.11,2"/><path class="cls-1" d="M214.53,223.27l-8.12-2c.27,1.3,8,1.4,8.12,2"/><path class="cls-1" d="M214.57,223.45l-8.11-2c.32,1.36,7.95,1.34,8.11,2"/><path class="cls-1" d="M214.62,223.64l-8.12-2c.4,1.42,7.91,1.3,8.12,2"/><path class="cls-1" d="M214.67,223.82l-8.11-2c.47,1.48,7.86,1.23,8.11,2"/><path class="cls-1" d="M214.74,224l-8.12-2c.57,1.54,7.81,1.19,8.12,2"/><path class="cls-1" d="M214.81,224.19l-8.11-2c.68,1.59,7.74,1.16,8.11,2"/><path class="cls-1" d="M214.9,224.38l-8.11-2c.82,1.64,7.67,1.15,8.11,2"/><path class="cls-1" d="M215,224.59l-8.11-2c1,1.66,7.64,1.23,8.11,2"/><path class="cls-1" d="M215.17,224.82l-8.12-2c1.41,1.89,6.81,2.12,9,2.66l-.86-.63"/></g></g></g></g><g class="cls-62"><g class="cls-62"><path class="cls-1" d="M206.81,177.67c-2.37-.6-6.14-2.44-8.56-2C201.09,176.33,204,177,206.81,177.67Z"/><g class="cls-71"><g class="cls-62"><path class="cls-1" d="M206.81,177.67c-2.7-.68-5.46-1.64-8.21-2l8.21,2"/><path class="cls-1" d="M206.71,177.65c-2.58-.65-5.58-2-8.24-2,2.72.67,5.48,1.62,8.24,2"/><path class="cls-1" d="M206.59,177.64c-2.42-.61-5.76-2.2-8.23-2,2.58.64,5.58,1.94,8.23,2"/><path class="cls-1" d="M206.48,177.64c-2.25-.56-6-2.37-8.22-2,2.41.6,5.75,2.18,8.22,2"/><path class="cls-1" d="M206.37,177.65c-2.17-.54-5.94-2.38-8.12-2,2.19.55,5.93,2.37,8.12,2"/></g></g></g><g class="cls-62"><path class="cls-1" d="M192.51,231.83l8.11,2c-2.85-.71-2.47-10-2.58-12.26a103.45,103.45,0,0,1,.42-15.74,115.06,115.06,0,0,1,2.6-15.32c.64-2.68,1.81-12.33,5.31-12.89-2.06-.51-6-2.45-8-2-2.36.53-3,4.1-3.56,6q-1.6,5.26-2.7,10.65a110.86,110.86,0,0,0-2.29,21.33C189.78,216.47,189,231,192.51,231.83Z"/><g class="cls-72"><g class="cls-62"><path class="cls-1" d="M206.37,177.65c-2.08-.52-6.17-2.49-8.21-2,2.23.56,6,2.37,8.21,2"/><path class="cls-1" d="M206.28,177.67c-1.94-.49-6.36-2.58-8.22-2,2.09.53,6.16,2.49,8.22,2"/><path class="cls-1" d="M206.18,177.7c-1.81-.46-6.53-2.64-8.21-2,1.94.48,6.35,2.57,8.21,2"/><path class="cls-1" d="M206.09,177.73c-1.7-.43-6.7-2.68-8.21-2,1.81.46,6.53,2.64,8.21,2"/><path class="cls-1" d="M206,177.77c-1.59-.4-6.83-2.7-8.2-2,1.7.43,6.68,2.67,8.2,2"/><path class="cls-1" d="M205.9,177.81c-1.51-.38-7-2.71-8.21-2,1.61.4,6.84,2.69,8.21,2"/><path class="cls-1" d="M205.81,177.86c-1.44-.36-7.08-2.71-8.21-2,1.52.38,7,2.7,8.21,2"/><path class="cls-1" d="M205.72,177.92c-1.38-.35-7.19-2.71-8.21-2,1.45.36,7.07,2.71,8.21,2"/><path class="cls-1" d="M205.62,178c-1.31-.33-7.27-2.69-8.21-2,1.39.35,7.18,2.7,8.21,2"/><path class="cls-1" d="M205.53,178.05c-1.27-.32-7.36-2.68-8.21-2,1.33.33,7.27,2.69,8.21,2"/><path class="cls-1" d="M205.43,178.13c-1.23-.31-7.43-2.67-8.21-1.94,1.28.32,7.35,2.68,8.21,1.94"/><path class="cls-1" d="M205.33,178.22c-1.19-.3-7.5-2.65-8.21-1.93,1.24.31,7.43,2.66,8.21,1.93"/><path class="cls-1" d="M205.23,178.32c-1.16-.29-7.57-2.63-8.22-1.92,1.21.3,7.5,2.65,8.22,1.92"/><path class="cls-1" d="M205.13,178.43c-1.15-.29-7.63-2.62-8.23-1.91,1.19.3,7.56,2.64,8.23,1.91"/><path class="cls-1" d="M205,178.55c-1.13-.28-7.68-2.59-8.23-1.89,1.17.29,7.61,2.62,8.23,1.89"/><path class="cls-1" d="M204.91,178.69c-1.12-.28-7.73-2.58-8.24-1.87,1.15.29,7.67,2.6,8.24,1.87"/><path class="cls-1" d="M204.79,178.85c-1.11-.28-7.78-2.56-8.24-1.85,1.14.29,7.71,2.59,8.24,1.85"/><path class="cls-1" d="M204.66,179c-1.1-.28-7.81-2.54-8.24-1.83,1.14.28,7.76,2.56,8.24,1.83"/><path class="cls-1" d="M204.54,179.23c-1.09-.28-7.85-2.52-8.24-1.82,1.13.28,7.8,2.54,8.24,1.82"/><path class="cls-1" d="M204.42,179.44c-1.09-.27-7.89-2.5-8.24-1.81,1.12.28,7.84,2.53,8.24,1.81"/><path class="cls-1" d="M204.3,179.66c-1.09-.27-7.92-2.48-8.24-1.78,1.12.28,7.87,2.51,8.24,1.78"/><path class="cls-1" d="M204.18,179.91c-1.13-.28-7.94-2.49-8.24-1.74,1.15.29,7.88,2.52,8.24,1.74"/><path class="cls-1" d="M204.05,180.21c-2.09-.53-4.22-1.25-6.35-1.59-.76-.13-1.36-.51-1.86-.19-1,.61-1.84,6-2.11,6.95,2,.51,4.28,1.44,6.35,1.59,1.45.1,1.14.68,1.95-.23,1.07-1.2,1.39-5,2-6.53"/><path class="cls-1" d="M201.85,187.41l-4.47-1.12c-2.45-.61-3.45-1.77-4.13,1s.41,2.08,2.8,2.68l4.86,1.22c.29-1.25.61-2.49.94-3.73"/><path class="cls-1" d="M200.91,191.14l-8.11-2c-.81,3.45-.55,2.94,2.61,3.73l4.86,1.21c.2-1,.42-1.94.64-2.91"/><path class="cls-1" d="M200.27,194.05l-8.12-2c-.67,3.25-.25,2.72,2.74,3.47l4.86,1.22c.17-.89.34-1.77.52-2.66"/><path class="cls-1" d="M199.75,196.71l-8.11-2c-.58,3.14-.08,2.6,2.82,3.33l4.86,1.22c.14-.84.28-1.68.43-2.52"/><path class="cls-1" d="M199.32,199.23l-8.11-2c-.5,3.11,0,2.58,2.88,3.3l4.86,1.22c.12-.83.24-1.66.37-2.49"/><path class="cls-1" d="M199,201.72l-8.12-2c-.42,3.12.07,2.59,2.94,3.31l4.86,1.22c.1-.84.21-1.67.32-2.5"/><path class="cls-1" d="M198.63,204.22l-8.11-2c-.36,3.14.1,2.63,3,3.35l4.86,1.22c.08-.85.17-1.7.26-2.54"/><path class="cls-1" d="M198.37,206.76l-8.12-2c-.29,3.16.15,2.65,3.05,3.38l4.86,1.22c.06-.86.13-1.72.21-2.57"/><path class="cls-1" d="M198.16,209.33l-8.11-2c-.22,3.18.19,2.68,3.1,3.41l4.87,1.22c0-.87.08-1.74.14-2.6"/><path class="cls-1" d="M198,211.93l-8.12-2c-.14,3.18.25,2.69,3.17,3.42l4.86,1.21c0-.87,0-1.73.09-2.6"/><path class="cls-1" d="M197.93,214.53l-8.12-2c-.06,3.16.34,2.68,3.24,3.41l4.86,1.21c0-.86,0-1.72,0-2.59"/><path class="cls-1" d="M197.91,217.12l-8.11-2c0,3.13.42,2.65,3.3,3.37l4.86,1.22c0-.85,0-1.71-.05-2.56"/><path class="cls-1" d="M198,219.68l-8.12-2c.1,3.08.52,2.62,3.37,3.33l4.86,1.21c0-.83-.09-1.67-.11-2.51"/><path class="cls-1" d="M198.07,222.19l-8.12-2c.18,3,.62,2.58,3.43,3.29l4.86,1.21c-.06-.82-.12-1.64-.17-2.47"/><path class="cls-1" d="M198.24,224.66l-8.11-2c.25,3,.71,2.55,3.49,3.24l4.86,1.22q-.14-1.22-.24-2.43"/><path class="cls-1" d="M198.48,227.09l-8.11-2c.33,2.95.79,2.53,3.56,3.22l4.86,1.22c-.11-.81-.22-1.61-.31-2.41"/><path class="cls-1" d="M198.79,229.5l-8.12-2c.37,2.57.74,2.18,3.18,2.79l5.26,1.31c-.12-.68-.22-1.37-.32-2.06"/><path class="cls-1" d="M199.11,231.56l-8.12-2c.22,1.25,8,1.45,8.12,2"/><path class="cls-1" d="M199.14,231.74l-8.11-2c.26,1.3,8,1.38,8.11,2"/><path class="cls-1" d="M199.18,231.92l-8.11-2c.32,1.36,7.94,1.32,8.11,2"/><path class="cls-1" d="M199.23,232.1l-8.12-2c.4,1.42,7.9,1.26,8.12,2"/><path class="cls-1" d="M199.28,232.27l-8.12-2c.48,1.47,7.86,1.2,8.12,2"/><path class="cls-1" d="M199.34,232.45l-8.11-2c.56,1.53,7.79,1.16,8.11,2"/><path class="cls-1" d="M199.41,232.63l-8.11-2c.68,1.59,7.73,1.14,8.11,2"/><path class="cls-1" d="M199.5,232.81l-8.12-2c.82,1.63,7.67,1.14,8.12,2"/><path class="cls-1" d="M199.61,233l-8.12-2c1,1.67,7.62,1.2,8.12,2"/><path class="cls-1" d="M199.76,233.23l-8.12-2c1.41,1.89,6.82,2.12,9,2.66l-.86-.63"/></g></g></g></g><g class="cls-62"><g class="cls-62"><path class="cls-1" d="M193.1,166.22c-2.38-.6-6.14-2.44-8.57-2.05C187.38,164.88,190.28,165.51,193.1,166.22Z"/><g class="cls-73"><g class="cls-62"><path class="cls-1" d="M193.1,166.22c-2.7-.68-5.46-1.63-8.21-2.05l8.21,2.05"/><path class="cls-1" d="M193,166.2c-2.58-.65-5.59-2-8.24-2,2.71.68,5.48,1.62,8.24,2"/><path class="cls-1" d="M192.87,166.19c-2.41-.61-5.76-2.2-8.23-2,2.59.65,5.58,1.94,8.23,2"/><path class="cls-1" d="M192.76,166.19c-2.24-.56-6-2.37-8.22-2,2.42.61,5.75,2.19,8.22,2"/><path class="cls-1" d="M192.65,166.2c-2.17-.54-5.94-2.38-8.12-2,2.19.55,5.93,2.37,8.12,2"/></g></g></g><g class="cls-62"><path class="cls-1" d="M176.82,241.31l8.11,2c-3.32-.83-3.1-15-3.23-17.86a141.55,141.55,0,0,1,.58-20.38,156.1,156.1,0,0,1,3.49-20.81q1.28-5.38,2.93-10.67c.64-2,1.38-7,4-7.43-2.82-.7-7.67-3.3-9.76-.7-2.4,3-3.09,8.53-4.07,12.17q-1.84,6.86-3.07,13.85a149.15,149.15,0,0,0-2.3,26,126.57,126.57,0,0,0,.68,13.2C174.36,232.85,174.29,240.68,176.82,241.31Z"/><g class="cls-74"><g class="cls-62"><path class="cls-1" d="M192.65,166.2c-2.08-.52-6.17-2.49-8.21-2,2.23.56,6,2.37,8.21,2"/><path class="cls-1" d="M192.55,166.22c-1.94-.48-6.35-2.58-8.21-2,2.09.52,6.16,2.48,8.21,2"/><path class="cls-1" d="M192.46,166.25c-1.82-.45-6.54-2.64-8.22-2,1.95.49,6.36,2.57,8.22,2"/><path class="cls-1" d="M192.36,166.28c-1.7-.42-6.69-2.67-8.21-2,1.82.45,6.53,2.63,8.21,2"/><path class="cls-1" d="M192.27,166.32c-1.6-.4-6.84-2.69-8.21-2,1.7.43,6.68,2.67,8.21,2"/><path class="cls-1" d="M192.17,166.37c-1.51-.38-7-2.71-8.21-2,1.61.4,6.83,2.69,8.21,2"/><path class="cls-1" d="M192.08,166.42c-1.44-.36-7.08-2.71-8.21-2,1.52.38,7,2.71,8.21,2"/><path class="cls-1" d="M192,166.47c-1.38-.34-7.19-2.7-8.21-2,1.45.36,7.07,2.7,8.21,2"/><path class="cls-1" d="M191.89,166.54c-1.32-.33-7.27-2.7-8.21-2,1.39.35,7.18,2.7,8.21,2"/><path class="cls-1" d="M191.8,166.61c-1.27-.32-7.36-2.68-8.21-2,1.33.33,7.27,2.69,8.21,2"/><path class="cls-1" d="M191.7,166.69c-1.23-.31-7.44-2.67-8.21-1.94,1.28.32,7.35,2.68,8.21,1.94"/><path class="cls-1" d="M191.6,166.78c-1.19-.3-7.5-2.65-8.22-1.94,1.25.32,7.43,2.67,8.22,1.94"/><path class="cls-1" d="M191.5,166.88c-1.16-.3-7.57-2.64-8.22-1.93,1.21.31,7.5,2.66,8.22,1.93"/><path class="cls-1" d="M191.4,167c-1.14-.29-7.63-2.62-8.23-1.91,1.19.29,7.56,2.63,8.23,1.91"/><path class="cls-1" d="M191.29,167.11c-1.12-.28-7.68-2.6-8.23-1.9,1.17.3,7.62,2.62,8.23,1.9"/><path class="cls-1" d="M191.18,167.25c-1.12-.28-7.73-2.58-8.24-1.88,1.16.29,7.67,2.6,8.24,1.88"/><path class="cls-1" d="M191.06,167.4c-1.1-.27-7.77-2.56-8.24-1.86,1.14.29,7.72,2.59,8.24,1.86"/><path class="cls-1" d="M190.94,167.58c-1.1-.28-7.81-2.54-8.24-1.84,1.13.28,7.76,2.56,8.24,1.84"/><path class="cls-1" d="M190.82,167.77c-1.09-.27-7.85-2.52-8.24-1.83,1.12.28,7.81,2.55,8.24,1.83"/><path class="cls-1" d="M190.7,168c-1.08-.27-7.89-2.49-8.23-1.81,1.1.28,7.84,2.52,8.23,1.81"/><path class="cls-1" d="M190.58,168.19c-1.08-.27-7.91-2.47-8.23-1.79,1.11.28,7.88,2.5,8.23,1.79"/><path class="cls-1" d="M190.47,168.43c-1.13-.28-7.94-2.49-8.24-1.73,1.16.29,7.88,2.52,8.24,1.73"/><path class="cls-1" d="M190.34,168.73c-2.07-.52-4.87-1.81-7-1.75-1.72.05-.86-.88-1.81,1.65-1.13,3-2,6.22-2.81,9.34,2,.51,4.92,1.86,7,1.75,1.88-.1,1.31-.43,2-2.85a79.48,79.48,0,0,1,2.61-8.14"/><path class="cls-1" d="M186.86,180l-4.47-1.11c-2.92-.74-3.45-1.79-4.27,1.5-.78,3.1-.16,2.53,2.66,3.23l4.86,1.22q.57-2.43,1.22-4.84"/><path class="cls-1" d="M185.64,184.84l-8.11-2c-.86,3.69-1.47,3.84,2,4.71l5.25,1.31c.28-1.33.57-2.66.88-4"/><path class="cls-1" d="M184.76,188.83l-8.11-2c-.73,3.53-1.11,3.49,2.16,4.31l5.26,1.31c.21-1.2.45-2.39.69-3.59"/><path class="cls-1" d="M184.07,192.42l-8.12-2c-.63,3.45-.91,3.36,2.27,4.15l5.26,1.32c.18-1.15.38-2.29.59-3.44"/><path class="cls-1" d="M183.48,195.86l-8.12-2c-.6,3.77-.63,3.34,2.75,4.18l4.86,1.22c.16-1.13.33-2.25.51-3.37"/><path class="cls-1" d="M183,199.23l-8.11-2c-.52,3.78-.56,3.36,2.82,4.2l4.86,1.22c.14-1.13.28-2.26.43-3.39"/><path class="cls-1" d="M182.54,202.62l-8.11-2c-.44,3.81-.5,3.4,2.9,4.25l4.86,1.22c.1-1.15.22-2.29.35-3.44"/><path class="cls-1" d="M182.19,206.06l-8.12-2c-.32,3.47-.58,3.41,2.58,4.2l5.26,1.31c.08-1.16.17-2.32.28-3.48"/><path class="cls-1" d="M181.91,209.54l-8.12-2c-.24,3.49-.51,3.45,2.66,4.24l5.26,1.32c0-1.18.12-2.35.2-3.53"/><path class="cls-1" d="M181.71,213.07l-8.12-2c-.16,3.49-.41,3.46,2.74,4.25l5.26,1.32c0-1.18.06-2.36.12-3.53"/><path class="cls-1" d="M181.59,216.6l-8.11-2c-.07,3.47-.31,3.44,2.83,4.22l5.26,1.32c0-1.17,0-2.34,0-3.51"/><path class="cls-1" d="M181.57,220.11l-8.12-2c0,3.43-.19,3.4,2.92,4.18l5.26,1.31c0-1.15-.06-2.31-.06-3.46"/><path class="cls-1" d="M181.63,223.57l-8.12-2c.12,3.74.08,3.39,3.41,4.22l4.86,1.22c-.07-1.14-.12-2.27-.15-3.41"/><path class="cls-1" d="M181.78,227l-8.12-2c.22,3.69.2,3.34,3.5,4.16l4.86,1.22c-.1-1.12-.18-2.23-.24-3.35"/><path class="cls-1" d="M182,230.33l-8.12-2c.31,3.63.32,3.28,3.58,4.1l4.86,1.22c-.12-1.1-.23-2.19-.32-3.29"/><path class="cls-1" d="M182.34,233.62l-8.11-2c.4,3.59.43,3.25,3.66,4.06l4.86,1.22c-.15-1.09-.29-2.17-.41-3.25"/><path class="cls-1" d="M182.75,236.87l-8.11-2c.51,3.6.52,3.3,3.77,4.11l4.86,1.22c-.19-1.1-.36-2.19-.52-3.29"/><path class="cls-1" d="M183.27,240.16l-8.12-2c.42,2.43,6.07,2.59,8.32,3.16-.07-.38-.14-.75-.2-1.12"/><path class="cls-1" d="M183.47,241.28l-8.11-2c.26,1.3,8,1.37,8.11,2"/><path class="cls-1" d="M183.51,241.45l-8.12-2c.33,1.35,7.94,1.29,8.12,2"/><path class="cls-1" d="M183.55,241.62l-8.11-2c.39,1.42,7.89,1.25,8.11,2"/><path class="cls-1" d="M183.6,241.78l-8.11-2c.47,1.47,7.84,1.19,8.11,2"/><path class="cls-1" d="M183.66,242l-8.11-2c.56,1.53,7.78,1.15,8.11,2"/><path class="cls-1" d="M183.73,242.13l-8.11-2c.68,1.58,7.72,1.11,8.11,2"/><path class="cls-1" d="M183.82,242.31l-8.12-2c.82,1.63,7.65,1.11,8.12,2"/><path class="cls-1" d="M183.92,242.5l-8.12-2c1,1.67,7.63,1.2,8.12,2"/><path class="cls-1" d="M184.07,242.72l-8.12-2c1.41,1.88,6.82,2.12,9,2.66l-.86-.63"/></g></g></g></g><ellipse class="cls-20" cx="560.27" cy="126.91" rx="9.1" ry="18.37"/><line class="cls-75" x1="403.95" y1="70.72" x2="424.52" y2="68.59"/></svg>