<svg id="Layer_1" data-name="Layer 1" xmlns="http://www.w3.org/2000/svg" viewBox="0 0 200 200"><defs><style>.cls-1{fill:#161616;stroke-width:0.15px;}.cls-1,.cls-21{stroke:#0a0a0a;}.cls-1,.cls-10,.cls-12,.cls-13,.cls-17,.cls-20,.cls-21,.cls-3,.cls-5,.cls-6,.cls-7,.cls-9{stroke-miterlimit:10;}.cls-2{fill:#353535;}.cls-10,.cls-12,.cls-13,.cls-17,.cls-20,.cls-3,.cls-5,.cls-6,.cls-7,.cls-9{stroke:#000;}.cls-3{stroke-width:2.22px;opacity:0.4;}.cls-22,.cls-23,.cls-4{fill:#fff;}.cls-4{opacity:0.15;}.cls-5{stroke-width:2.14px;opacity:0.2;}.cls-20,.cls-6,.cls-7{fill:#d3161d;}.cls-6{stroke-width:0.97px;}.cls-10,.cls-12,.cls-13,.cls-17,.cls-7,.cls-9{stroke-width:0.51px;}.cls-8{fill:#683919;}.cls-9{fill:#3f3f3f;}.cls-10{fill:#242424;}.cls-11{isolation:isolate;}.cls-12{fill:#202020;}.cls-13{fill:#393939;}.cls-14{fill:#945320;}.cls-15{fill:#f8c946;}.cls-16{fill:none;}.cls-17{fill:#232323;}.cls-18{fill:#a5a5a5;}.cls-19{fill:#e2b647;}.cls-20{stroke-width:0.91px;}.cls-21{fill:#333;stroke-width:1.21px;}.cls-22{opacity:0.3;}.cls-23{opacity:0.12;}</style></defs><title>direction_robot</title><rect class="cls-1" x="44.41" y="63.69" width="109.57" height="78.28"/><path class="cls-2" d="M198.76,99.54l-.14,2.53-.46,8.57,0,.44,0,.39-.12,2.16-.06,1.29-1,18.58-.19,3.46-1,18.58,0,.79a7.12,7.12,0,0,1-.51,2.66,6.42,6.42,0,0,1-5.91,4.16H158.91A6.43,6.43,0,0,1,153,159a7.31,7.31,0,0,1-.5-2.66l0-.79L151.8,137l-.12-3.46L151,114.92l0-1.29-.08-2.16v-.39l0-.44-.31-8.58-.08-2.52.23-6.65.13-3.46.18-5.27.47-13.31.12-3.45.66-18.58.12-3.46.1-2.6a6.63,6.63,0,0,1,6.42-6.82h30.35a6.63,6.63,0,0,1,6.42,6.82l.14,2.6.19,3.46,1,18.58.19,3.45.72,13.31.28,5.27.19,3.46Z"/><path d="M189.26,164.54H158.91a7.81,7.81,0,0,1-7.22-5,8.51,8.51,0,0,1-.61-3.17l-2-56.74,2-56.88a8,8,0,0,1,7.82-8.17h30.35a8,8,0,0,1,7.82,8.22l3.08,56.71v.15l-3.08,56.78a8.42,8.42,0,0,1-.6,3.1A7.83,7.83,0,0,1,189.26,164.54ZM158.91,37.33a5.24,5.24,0,0,0-5,5.43l-2,56.83,2,56.69a5.77,5.77,0,0,0,.41,2.19,5,5,0,0,0,4.61,3.29h30.35a5,5,0,0,0,4.61-3.28,5.78,5.78,0,0,0,.4-2.15l0-.87,3-55.92-3.08-56.7a5.28,5.28,0,0,0-5-5.51Z"/><path class="cls-3" d="M198.32,111.08l-.16,2.55H198l-.06,1.29-1,18.58-.19,3.46-1,18.58,0,.79a7.12,7.12,0,0,1-.51,2.66,6.42,6.42,0,0,1-5.91,4.16H158.91A6.43,6.43,0,0,1,153,159a7.31,7.31,0,0,1-.5-2.66l0-.79L151.8,137l-.12-3.46L151,114.92l0-1.29h-.11l-.11-2.55Z"/><polygon points="196 48.82 152.27 48.82 152.4 45.36 195.82 45.36 196 48.82"/><polygon points="197.21 70.85 151.49 70.85 151.61 67.4 197.02 67.4 197.21 70.85"/><polygon points="198.4 92.89 150.71 92.89 150.84 89.43 198.21 89.43 198.4 92.89"/><polygon points="198.11 111.47 197.99 113.63 197.93 114.92 151.03 114.92 150.98 113.63 150.9 111.47 198.11 111.47"/><polygon points="196.91 133.5 196.73 136.96 151.8 136.96 151.68 133.5 196.91 133.5"/><path d="M195.72,155.54l0,.79a7.12,7.12,0,0,1-.51,2.66H153a7.31,7.31,0,0,1-.5-2.66l0-.79Z"/><polygon class="cls-4" points="198.76 104.21 198.32 111.08 198.16 113.63 150.87 113.63 150.76 111.08 150.48 104.21 150.56 102.06 150.71 98.57 150.84 95.63 150.95 92.89 151.02 91.16 197.93 91.16 198.04 92.89 198.21 95.63 198.4 98.57 198.62 102.08 198.76 104.21"/><path class="cls-2" d="M49.85,99.54l-.14,2.53-.47,8.57,0,.44,0,.39-.12,2.16L49,114.92,48,133.5,47.82,137l-1,18.58,0,.79a7.12,7.12,0,0,1-.51,2.66,6.43,6.43,0,0,1-5.92,4.16H10A6.43,6.43,0,0,1,4.08,159a7.12,7.12,0,0,1-.51-2.66l0-.79L2.89,137l-.12-3.46-.66-18.58,0-1.29L2,111.47l0-.39v-.44l-.31-8.58-.09-2.52.24-6.65.12-3.46.19-5.27.47-13.31L2.7,67.4l.66-18.58.12-3.46.09-2.6A6.63,6.63,0,0,1,10,35.94H40.34a6.63,6.63,0,0,1,6.43,6.82l.14,2.6.18,3.46,1,18.58.19,3.45L49,84.16l.29,5.27.19,3.46Z"/><path d="M40.34,164.54H10a7.81,7.81,0,0,1-7.22-5,8.51,8.51,0,0,1-.61-3.17l-2-56.74,2-56.88A8,8,0,0,1,10,34.54H40.34a8,8,0,0,1,7.83,8.22l3.08,56.71v.15L48.17,156.4a8.43,8.43,0,0,1-.61,3.1A7.81,7.81,0,0,1,40.34,164.54ZM10,37.33a5.24,5.24,0,0,0-5,5.43L3,99.59l2,56.69a5.77,5.77,0,0,0,.4,2.19A5,5,0,0,0,10,161.76H40.34A5,5,0,0,0,45,158.48a5.6,5.6,0,0,0,.41-2.15l0-.87,3-55.92-3.07-56.7a5.28,5.28,0,0,0-5-5.51Z"/><path class="cls-3" d="M49.41,111.08l-.17,2.55h-.16L49,114.92,48,133.5,47.82,137l-1,18.58,0,.79a7.12,7.12,0,0,1-.51,2.66,6.43,6.43,0,0,1-5.92,4.16H10A6.43,6.43,0,0,1,4.08,159a7.12,7.12,0,0,1-.51-2.66l0-.79L2.89,137l-.12-3.46-.66-18.58,0-1.29H2l-.11-2.55Z"/><polygon points="47.09 48.82 3.36 48.82 3.48 45.36 46.91 45.36 47.09 48.82"/><polygon points="48.29 70.85 2.58 70.85 2.7 67.4 48.1 67.4 48.29 70.85"/><polygon points="49.48 92.89 1.8 92.89 1.92 89.43 49.3 89.43 49.48 92.89"/><polygon points="49.2 111.47 49.08 113.63 49.02 114.92 2.11 114.92 2.07 113.63 1.99 111.47 49.2 111.47"/><polygon points="48 133.5 47.82 136.96 2.89 136.96 2.77 133.5 48 133.5"/><path d="M46.81,155.54l0,.79a7.12,7.12,0,0,1-.51,2.66H4.08a7.12,7.12,0,0,1-.51-2.66l0-.79Z"/><polygon class="cls-4" points="49.85 104.21 49.41 111.08 49.24 113.63 1.96 113.63 1.85 111.08 1.56 104.21 1.65 102.06 1.8 98.57 1.92 95.63 2.04 92.89 2.11 91.16 49.02 91.16 49.13 92.89 49.3 95.63 49.48 98.57 49.71 102.08 49.85 104.21"/><path class="cls-5" d="M165.55,101.8c0,15.85-7.85,30.17-20.47,40.4a68,68,0,0,1-9.14,6.22H62.18a7.77,7.77,0,0,1-2.65-.47h0q-1.37-.8-2.67-1.65C41,136,30.73,119.9,30.73,101.8c0-17.68,9.77-33.46,25-43.78,1.75-1.18,3.58-2.3,5.47-3.33a7.42,7.42,0,0,1,.94-.06h72.76a66.5,66.5,0,0,1,10.24,6.86C157.74,71.71,165.55,86,165.55,101.8Z"/><path class="cls-6" d="M149.14,59.88v81.9a6.67,6.67,0,0,1-.16,1.49,8.31,8.31,0,0,1-8.24,6.49H58.94a8.58,8.58,0,0,1-2.88-.49h0a8.4,8.4,0,0,1-2.9-1.72,7.72,7.72,0,0,1-2.62-5.77V59.88A7.68,7.68,0,0,1,52,55.44a8.62,8.62,0,0,1,7-3.54h81.8a8.28,8.28,0,0,1,8.35,7.16A7.37,7.37,0,0,1,149.14,59.88Z"/><ellipse class="cls-7" cx="136.83" cy="62.44" rx="4.79" ry="4.74"/><rect class="cls-8" x="81.51" y="86.89" width="36.66" height="39.3" rx="3"/><path class="cls-9" d="M154.61,57.23l-1,.4-2.58.8,1-.4a1.72,1.72,0,0,0,.61-2.15l-3.35-11.31c-.31-1-1.14-1.71-1.83-1.5l2.59-.79c.69-.21,1.52.46,1.83,1.5l3.35,11.31C155.5,56.05,155.24,57,154.61,57.23Z"/><path class="cls-10" d="M147.4,43.09c.7-.27,1.57.41,1.89,1.48l3.35,11.31c.28,1,0,1.9-.62,2.15l-1,.4c-.63.25-1.41-.28-1.79-1.21l-4.47-10.87c-.42-1-.18-2.14.52-2.42Z"/><g class="cls-11"><path class="cls-12" d="M153.89,40.94c.48.15,1,1.33,1.13,2.58l1.48,14.35c.12,1.14-.13,1.92-.57,1.78l-1.26-.4c-.44-.14-.92-1.15-1.1-2.31l-2.18-14.57c-.19-1.26.06-2.2.54-2Z"/><path class="cls-13" d="M159.76,59l-3.71.71c.34-.07.52-.79.42-1.8L155,43.54c-.12-1.25-.64-2.44-1.12-2.59l-2-.62a.39.39,0,0,0-.15,0l3.71-.71a.27.27,0,0,1,.15,0l2,.61c.48.16,1,1.34,1.12,2.59l1.49,14.35C160.28,58.18,160.1,58.91,159.76,59Z"/></g><path class="cls-14" d="M151.31,112.47a1,1,0,0,1-.43-.08l-4.45-2a3.49,3.49,0,0,0,.53-.24l1.64-.93c1.69-1,3.22-3.65,3.41-6l4-47.65,5,2.2-4,47.84a7.8,7.8,0,0,1-3.16,5.61l-1.64.93A1.9,1.9,0,0,1,151.31,112.47Z"/><path d="M156.22,56l4.55,2-4,47.65a7.7,7.7,0,0,1-3,5.42l-1.64.93a1.7,1.7,0,0,1-.82.25.88.88,0,0,1-.33-.06l-3.92-1.72,0,0,1.64-.93c1.78-1,3.33-3.74,3.54-6.21L156.22,56m-.45-.75-4,48c-.19,2.29-1.66,4.89-3.28,5.81l-1.64.93a2.31,2.31,0,0,1-1.07.32,1.32,1.32,0,0,1-.53-.11l5.54,2.43a1.32,1.32,0,0,0,.53.11,2.31,2.31,0,0,0,1.07-.32l1.64-.93c1.62-.92,3.09-3.53,3.28-5.81l4-48-5.54-2.43Zm-10.54,55h0Z"/><path class="cls-15" d="M146,110.09a1,1,0,0,1-.78-.34,2.91,2.91,0,0,1-.49-2.19l4-47.88,7-4-4,47.53a7.8,7.8,0,0,1-3.15,5.61l-1.64.93A2,2,0,0,1,146,110.09Z"/><path d="M155.4,56.18l-3.92,47.06c-.18,2.1-1.56,4.58-3,5.41l-1.64.93a1.82,1.82,0,0,1-.82.25.74.74,0,0,1-.59-.26,2.68,2.68,0,0,1-.42-2l4-47.75,6.44-3.65m.59-.91-7.52,4.26-4,48c-.15,1.74.49,2.8,1.52,2.8a2.28,2.28,0,0,0,1.07-.32l1.64-.93a8.08,8.08,0,0,0,3.29-5.81l4-48Z"/><path class="cls-13" d="M164.43,45.83l-3,12.44c-.19.79-.49,1.25-.78,1.23l-3-.34c.29,0,.6-.44.79-1.22l2.95-12.45a4,4,0,0,0-.16-2.77l-1.21-1.44a.31.31,0,0,0-.2-.13l3,.34a.29.29,0,0,1,.22.13l1.2,1.44A4,4,0,0,1,164.43,45.83Z"/><path class="cls-12" d="M160.07,41.28l1.2,1.44a4,4,0,0,1,.17,2.77l-2.95,12.44c-.24,1-.68,1.48-1,1.09l-.75-.9a3.73,3.73,0,0,1-.22-2.55l2.51-13C159.25,41.46,159.72,40.86,160.07,41.28Z"/><g class="cls-11"><path class="cls-9" d="M145.83,59.74l.87-4.88c.24-1.31,1.13-2.14,2-1.81l8.94,3.67a2.37,2.37,0,0,1,.93,2.64l-.5,2.81c-.21,1.19-1,2-1.74,1.87L147,62.44C146.11,62.3,145.59,61.06,145.83,59.74Z"/><path class="cls-16" d="M143.94,62.05a1.33,1.33,0,0,0,0,.2v-.2Z"/><path class="cls-17" d="M156.45,64.06l-3.27-.33-3.78-.64-2.92-.5-1.24-.22a4.88,4.88,0,0,1-1.79-.41,1.51,1.51,0,0,1-.59-.81,5.88,5.88,0,0,1,.1-3l.46-2.51c.16-.94.41-3.06,1.85-2.93l3.22.32a1.47,1.47,0,0,0-1.24.85,5.55,5.55,0,0,0-.53,1.88c-.17.92-.33,1.83-.49,2.74a7.84,7.84,0,0,0-.25,2.36,2,2,0,0,0,.8,1.47,2.44,2.44,0,0,0,1,.27l1.77.31,4.84.83Z"/></g><path class="cls-9" d="M45,57.74l1,.4,2.59.8-1-.41c-.63-.24-.9-1.18-.61-2.15l3.35-11.31c.31-1,1.14-1.7,1.83-1.49l-2.59-.79c-.69-.22-1.51.45-1.82,1.49L44.35,55.59A1.73,1.73,0,0,0,45,57.74Z"/><path class="cls-10" d="M52.18,43.6c-.7-.28-1.57.4-1.89,1.47L46.94,56.38a1.72,1.72,0,0,0,.61,2.15l1,.4c.64.25,1.42-.28,1.8-1.2l4.46-10.87c.42-1,.19-2.15-.52-2.42Z"/><g class="cls-11"><path class="cls-12" d="M45.68,41.44c-.48.16-1,1.34-1.12,2.59L43.07,58.37c-.12,1.15.13,1.93.57,1.79l1.27-.4c.44-.14.92-1.15,1.09-2.31l2.18-14.57c.19-1.27-.06-2.21-.54-2.06Z"/><path class="cls-13" d="M39.81,59.48l3.72.7c-.35-.06-.53-.79-.43-1.79L44.59,44c.13-1.25.64-2.43,1.13-2.58l2-.62a.3.3,0,0,1,.16,0l-3.71-.71a.3.3,0,0,0-.16,0l-2,.62c-.49.15-1,1.34-1.13,2.58L39.39,57.68C39.29,58.69,39.47,59.41,39.81,59.48Z"/></g><path class="cls-14" d="M48.26,113a2,2,0,0,1-.94-.29l-1.64-.93c-1.56-.88-3-3.4-3.16-5.61l-4-47.83,5-2.21,4,47.66c.2,2.36,1.73,5,3.41,6l1.64.93a3.19,3.19,0,0,0,.54.24l-4.46,2A1.18,1.18,0,0,1,48.26,113Z"/><path d="M43.36,56.49l4,47.3c.2,2.47,1.76,5.2,3.53,6.2l1.64.93,0,0-3.92,1.72a.94.94,0,0,1-.34.07,1.69,1.69,0,0,1-.81-.26l-1.64-.93c-1.47-.83-2.86-3.31-3-5.41l-4-47.65,4.56-2m.45-.75-5.55,2.42,4,48c.19,2.29,1.66,4.89,3.28,5.81l1.64.93a2.2,2.2,0,0,0,1.07.32,1.37,1.37,0,0,0,.54-.1l5.53-2.43a1.27,1.27,0,0,1-.52.1,2.2,2.2,0,0,1-1.07-.32l-1.64-.93c-1.63-.91-3.1-3.52-3.29-5.8l-4-48Zm10.53,55h0Zm0,0h0Z"/><path class="cls-15" d="M53.58,110.59a2,2,0,0,1-.94-.29L51,109.37c-1.56-.88-3-3.39-3.16-5.61l-4-47.53,7,4,4,47.87a2.9,2.9,0,0,1-.49,2.19,1,1,0,0,1-.78.34Z"/><path d="M44.17,56.69l6.45,3.65,4,47.75a2.74,2.74,0,0,1-.42,2,.81.81,0,0,1-.6.26,1.66,1.66,0,0,1-.81-.26l-1.64-.93c-1.47-.83-2.86-3.31-3-5.41l-3.93-47m-.59-.92,4,48c.19,2.28,1.66,4.88,3.28,5.8l1.64.93a2.2,2.2,0,0,0,1.07.32c1,0,1.67-1,1.53-2.8l-4-48-7.52-4.26Z"/><path class="cls-13" d="M35.14,46.34l3,12.44c.19.78.5,1.25.78,1.22l3-.34c-.28,0-.6-.43-.78-1.22L38.13,46a4,4,0,0,1,.17-2.77l1.2-1.45a.37.37,0,0,1,.21-.13l-3,.34a.32.32,0,0,0-.22.13l-1.21,1.45A4,4,0,0,0,35.14,46.34Z"/><path class="cls-12" d="M39.5,41.79l-1.2,1.44A4,4,0,0,0,38.13,46l3,12.44c.24,1,.68,1.48,1,1.09l.75-.9a3.75,3.75,0,0,0,.21-2.55l-2.5-13C40.33,42,39.85,41.36,39.5,41.79Z"/><g class="cls-11"><path class="cls-9" d="M53.74,60.25l-.87-4.88c-.23-1.31-1.13-2.15-1.94-1.81l-9,3.67a2.39,2.39,0,0,0-.93,2.63l.51,2.82c.21,1.18,1,2,1.73,1.86L52.61,63C53.46,62.8,54,61.56,53.74,60.25Z"/><path class="cls-16" d="M55.63,62.55a.67.67,0,0,1,0,.2.17.17,0,0,0,0-.07A.57.57,0,0,0,55.63,62.55Z"/><path class="cls-17" d="M43.13,64.57l3.26-.33,3.78-.65,2.92-.5,1.24-.21a4.89,4.89,0,0,0,1.79-.42,1.5,1.5,0,0,0,.6-.8,5.88,5.88,0,0,0-.11-3l-.45-2.52c-.17-.93-.42-3.06-1.86-2.92l-3.22.32a1.43,1.43,0,0,1,1.24.84,5.94,5.94,0,0,1,.54,1.89c.16.91.33,1.83.49,2.74a7.77,7.77,0,0,1,.24,2.35,2,2,0,0,1-.79,1.48,2.66,2.66,0,0,1-1,.27l-1.77.3-4.85.84Z"/></g><rect class="cls-18" x="50.93" y="80.06" width="32.31" height="4.42" rx="0.59"/><rect class="cls-19" x="83.24" y="88.49" width="32.74" height="35.73" rx="4.17"/><polygon class="cls-20" points="108.87 120.55 107.16 120.49 92.66 120.02 91.25 119.97 92.27 108.17 93.79 90.73 105.97 90.73 107.66 108.16 108.87 120.55"/><path class="cls-21" d="M95.15,92.43l-.42,4.71-1,11.07L92.66,120l-.06.65a6.63,6.63,0,0,1-6.44,6H41.75a6.63,6.63,0,0,1-6.44-6L33.19,97.14l-.17-2-.26-2.76a6.74,6.74,0,0,1,6.44-7.75H88.7a6.64,6.64,0,0,1,6.47,6A8.07,8.07,0,0,1,95.15,92.43Z"/><rect class="cls-18" x="116.43" y="80.06" width="32.31" height="4.42" rx="0.59" transform="translate(265.17 164.55) rotate(-180)"/><rect class="cls-22" x="124.94" y="80.06" width="9.84" height="3.76" transform="translate(259.71 163.88) rotate(-180)"/><path class="cls-21" d="M104.52,92.43l.42,4.71,1,11.07L107,120l.06.65a6.63,6.63,0,0,0,6.44,6h44.41a6.63,6.63,0,0,0,6.44-6l2.12-23.53.17-2,.26-2.76a6.74,6.74,0,0,0-6.45-7.75H111a6.64,6.64,0,0,0-6.46,6A8.07,8.07,0,0,0,104.52,92.43Z"/><path class="cls-23" d="M166.91,91.74l-.33,3.59c-11,7-33,12-58.92,12.83l-1.65,0c-2,.05-4.05.08-6.11.08s-4.14,0-6.18-.08l-1.45,0c-26.17-.83-48.31-5.9-59.25-13l-.26-2.76a6.74,6.74,0,0,1,6.44-7.75H88.7a6.64,6.64,0,0,1,6.47,6h9.29A6.67,6.67,0,0,1,111,84h49.5A6.74,6.74,0,0,1,166.91,91.74Z"/><rect class="cls-22" x="64.9" y="80.06" width="9.84" height="3.76"/><rect class="cls-18" x="77.71" y="39.5" width="15.05" height="9.32"/><rect x="73.93" y="48.82" width="54.31" height="3.36"/><rect class="cls-22" x="84.41" y="39.5" width="4.84" height="9.32"/><rect class="cls-18" x="109.41" y="39.5" width="15.05" height="9.32"/><rect class="cls-22" x="116.11" y="39.5" width="4.84" height="9.32"/></svg>