<svg xmlns="http://www.w3.org/2000/svg" viewBox="0 0 70 105"><defs><style>.cls-1{fill:#ffc246;}.cls-2{fill:#00e210;}.cls-3{opacity:0.3;}.cls-4{fill:#e6e8e8;}.cls-5{fill:#8c8c8c;}</style></defs><title>left_speedometer</title><g id="Layer_3" data-name="Layer 3"><path class="cls-1" d="M67.85,31.2c.71-.3,1.43-.58,2.15-.87v6.06l-1.32-3.18Z"/><path class="cls-2" d="M70,36.39V91.66A43.78,43.78,0,0,0,66,97a8.68,8.68,0,0,1-10.62,3.38L16.93,84.42l-1.63-.68c.13-.3.25-.61.39-.91s.37-.87.56-1.3c.32-.73.65-1.46,1-2.19q1-2.16,2.16-4.26c.37-.7.75-1.4,1.15-2.1.3-.52.59-1,.9-1.54.91-1.54,1.87-3.06,2.87-4.54.43-.65.88-1.31,1.34-2q1.38-1.94,2.84-3.81t3-3.66c.51-.6,1-1.19,1.58-1.78,1-1.16,2.15-2.31,3.26-3.43a94.14,94.14,0,0,1,7-6.37q2.74-2.25,5.65-4.32c1.3-.92,2.62-1.81,4-2.65s2.7-1.67,4.08-2.46h0c1.38-.78,2.78-1.54,4.21-2.26,2.13-1.08,4.32-2.08,6.54-3l.84,2Z"/><path class="cls-3" d="M61.13,15C64,13.8,67,12.71,70,11.76V32.68l-1.32.53-.73.31A95.52,95.52,0,0,0,37.59,54,97.4,97.4,0,0,0,16.93,84.42l-1.63-.68c.13-.3.25-.61.39-.91-.14.3-.27.61-.4.91L5.35,79.61a8.63,8.63,0,0,1-3.72-2.93h0a8.61,8.61,0,0,1,.48-6.6,115.35,115.35,0,0,1,58.4-54.81Z"/><path class="cls-4" d="M60.28,12.93c3.18-1.32,6.43-2.49,9.72-3.52V30.33l-2.15.86L61.13,15l-.85-2.06Z"/><path class="cls-4" d="M67.85,31.19h0A97.2,97.2,0,0,0,36.36,52.26c-1.12,1.12-2.2,2.26-3.26,3.43-.54.58-1.07,1.18-1.58,1.78q-1.55,1.78-3,3.66t-2.83,3.81c-.47.65-.91,1.3-1.35,2-1.34,2-2.58,4-3.76,6.08-.4.69-.79,1.39-1.16,2.09q-1.12,2.12-2.16,4.27c-.34.73-.68,1.45-1,2.19s-.64,1.46-.95,2.21l-10-4.13a8.49,8.49,0,0,1-3.71-2.94h0a8.57,8.57,0,0,1-.7-8.94,116.4,116.4,0,0,1,59.34-54.8L61.14,15Z"/><path class="cls-5" d="M24.09,57.26a.93.93,0,0,0-1-.18,5.88,5.88,0,0,1-.66,1.4c-.59.86-1.44.93-2.57.2a2.31,2.31,0,0,1-1-1,1,1,0,0,1,.2-.92,7,7,0,0,1,.45-.55,5.21,5.21,0,0,0,.53-.63,1,1,0,0,0-.29-1.46,3,3,0,0,0-.94-.55A5.12,5.12,0,0,0,17,55.43a4.62,4.62,0,0,0-.91,3.39,4.2,4.2,0,0,0,2.23,2.81,4.18,4.18,0,0,0,3.18.6,4.07,4.07,0,0,0,2.46-1.84C24.9,58.94,25,57.91,24.09,57.26Z"/><path class="cls-5" d="M30,51.23l-5.05-4.56q-.55-.49-1.68.78c-.72.84-.89,1.43-.51,1.74L24.89,51l-1,1.18-2.19-1.75c-.38-.31-.92,0-1.62.89s-.8,1.48-.41,1.76l5.49,4c.41.29.91,0,1.53-.77s.73-1.35.34-1.67l-1.65-1.31.94-1.15L28,53.55c.39.32.9.08,1.56-.68S30.36,51.57,30,51.23Z"/><path class="cls-5" d="M35.72,45.09a18.06,18.06,0,0,0-5.09-3.55c-.79-.42-1.76-.12-2.83.93s-1.35,2-.95,2.77a38.31,38.31,0,0,0,3.63,5.52.55.55,0,0,0,.38.09,1.53,1.53,0,0,0,1-.56,1.3,1.3,0,0,0,.21-1.88l-.17-.24c.4-.41.81-.81,1.23-1.21l.24.18a1.41,1.41,0,0,0,.9.35,1.88,1.88,0,0,0,1-.56C36.05,46.22,36.2,45.63,35.72,45.09Zm-4.89,1.63c-.21-.29-.47-.63-.78-1s-.45-.58-.52-.7c-.25-.34-.34-.56-.25-.65s.33,0,.67.23l.69.54,1,.78ZM29,39.5a4.23,4.23,0,0,0-3.08,1.1,3.78,3.78,0,0,0-1,1.86c-.19.71-.14,1.18.08,1.4.37.34.83.22,1.41-.37q.09-.8.21-1.59a2.27,2.27,0,0,0,2.08-.67,1.58,1.58,0,0,0,.52-1A1,1,0,0,0,29,39.5Zm6.61,9c-.52-.55-1.13-.49-1.82.17s-.73,1.28-.19,1.81,1.11.45,1.77-.2S36.1,49,35.59,48.45Z"/><path class="cls-5" d="M45.38,38c-1.47-2.13-2.68-3.76-3.61-4.91-.59-.74-1.51-.73-2.7.08a3.61,3.61,0,0,0-1.38,1.4,1.47,1.47,0,0,0,.13,1.19c.66,1.48,1.35,2.95,2,4.41q-2.59-2.37-3.56-3.22a1.49,1.49,0,0,0-1.1-.48,3,3,0,0,0-1.66.81,3.37,3.37,0,0,0-1.19,1.47,1.4,1.4,0,0,0,.25,1.14c.71,1.06,2,2.78,3.93,5.15.35.22.75.13,1.23-.27s.75-1,.44-1.36L34.7,39q2.07,1.63,4.09,3.31c.66.57,1.43.49,2.37-.21s1.16-1.36.78-2.12c-.71-1.57-1.4-3.16-2.07-4.75l3.39,4.64c.33.24.82.15,1.49-.3S45.73,38.52,45.38,38Z"/></g></svg>