<svg xmlns="http://www.w3.org/2000/svg" viewBox="0 0 70 105"><defs><style>.cls-1{fill:#ffc246;}.cls-2{fill:#db2f00;}.cls-3{fill:#00e210;}.cls-4{opacity:0.3;}.cls-5{fill:#e6e8e8;}.cls-6{fill:#8c8c8c;}</style></defs><title>middle_speedometer</title><g id="Layer_4" data-name="Layer 4"><path class="cls-1" d="M70,30.34v6.07L52.24,79.28a47.62,47.62,0,0,0-34.48,0L0,36.41V30.34l2-.77q1-.37,2.07-.72c1.39-.46,2.79-.9,4.2-1.3s2.84-.78,4.28-1.12L14.75,26c.73-.16,1.46-.3,2.19-.44,1-.19,2-.37,3-.52l1.73-.25c1.38-.19,2.77-.35,4.16-.48,3-.28,6.07-.42,9.15-.42l2.26,0h.15c.73,0,1.46,0,2.19.08,1.47.08,2.92.18,4.37.31l.73.07a0,0,0,0,1,0,0c1.3.12,2.6.27,3.88.45l1.85.28c.86.14,1.72.28,2.57.45l.39.08a2.2,2.2,0,0,1,.37.07l1.43.29,1.73.38.19.05,1.41.34c1.08.26,2.15.55,3.21.86.46.12.91.26,1.36.4l.91.28c.71.21,1.41.44,2.1.68.46.15.91.31,1.36.48s.67.23,1,.36Z"/><path class="cls-2" d="M52.24,79.28,70,36.41V91.66A45.93,45.93,0,0,0,52.24,79.28Z"/><path class="cls-3" d="M17.76,79.28A45.93,45.93,0,0,0,0,91.66V36.41Z"/><path class="cls-4" d="M70,12.09v21a94.4,94.4,0,0,0-70-.4V11.76A112.58,112.58,0,0,1,70,12.09Z"/><path class="cls-5" d="M70,9.41V30.33c-.49-.19-1-.38-1.49-.55-.33-.13-.66-.25-1-.36s-.9-.33-1.36-.48c-.69-.24-1.39-.47-2.1-.68-.3-.1-.6-.2-.91-.28s-.9-.28-1.36-.4c-1.06-.31-2.13-.6-3.21-.86l-1.41-.34L57,26.33,55.24,26l-1.43-.29a2.2,2.2,0,0,0-.37-.07l-.39-.08c-.85-.17-1.71-.31-2.57-.45l-1.85-.28c-1.28-.18-2.58-.33-3.88-.45a0,0,0,0,0,0,0c-.24,0-.48-.06-.73-.07-1.45-.14-2.91-.24-4.37-.31-.73,0-1.46-.06-2.19-.08h-.15c-.75,0-1.5,0-2.26,0-3.08,0-6.14.14-9.15.43-1.39.13-2.78.29-4.16.48L20,25c-1,.15-2,.33-3,.52-.73.14-1.46.28-2.19.44l-2.16.48c-1.44.34-2.87.71-4.28,1.12s-2.81.83-4.2,1.3q-1,.34-2.07.72c-.68.24-1.36.5-2,.76V9.42a116.23,116.23,0,0,1,70,0Z"/><path class="cls-6" d="M30.64,12.17c-.05-.69-.61-1-1.68-.89s-1.49.36-1.65.77a31.56,31.56,0,0,1-.16,5.71A28,28,0,0,0,25.24,13a1.46,1.46,0,0,0-.85-.77,2.59,2.59,0,0,0-1.35,0c-.86.18-1.31.54-1.34,1,1.37,2.1,2.65,4.25,3.83,6.43a2.28,2.28,0,0,0,1.95.39,2,2,0,0,0,1.81-1.39C30.18,15.58,30.75,13.41,30.64,12.17Z"/><path class="cls-6" d="M40.56,10.6a2.31,2.31,0,0,0-1.05-.83,1,1,0,0,0-.37.24.38.38,0,0,0,0,.6,1.13,1.13,0,0,0,.27.25l.28.23a.27.27,0,0,1,0,.47.39.39,0,0,1-.3,0A2.09,2.09,0,0,0,38,11.17c-1-.05-1.53.18-1.54.67,0,1.49-.05,3-.08,4.46a1.58,1.58,0,0,1-.24.95.79.79,0,0,1-.65.25.75.75,0,0,1-.63-.26,1.53,1.53,0,0,1-.21-.91c0-1.5,0-3,0-4.5,0-.49-.58-.73-1.74-.69s-1.67.34-1.63.82l.3,4.2c.18,2.31,1.44,3.33,3.82,3.32a3.81,3.81,0,0,0,2.8-.93,3.51,3.51,0,0,0,1-2.4c.09-1.13.17-2.25.26-3.38a1.1,1.1,0,0,0,.89-.1,1.19,1.19,0,0,0,.67-1A1.6,1.6,0,0,0,40.56,10.6ZM34.47,7.47a1.9,1.9,0,0,0-.7.22,1.11,1.11,0,0,0-.69,1.07c0,.57.61,1,1.72,1.25a11,11,0,0,0,1.67.28.86.86,0,0,0,.69-.9C37.19,8.73,36.32,8.05,34.47,7.47Z"/><path class="cls-6" d="M47,13.52c-.12-.89-.95-1.51-2.46-1.76s-2.43.09-2.83.89a34.71,34.71,0,0,0-2.18,6.23.67.67,0,0,0,.16.36,1.5,1.5,0,0,0,1,.46,1.31,1.31,0,0,0,1.61-1c0-.09.05-.19.08-.28l1.67.27c0,.1,0,.2,0,.3a1.48,1.48,0,0,0,.24.93,1.71,1.71,0,0,0,1,.48c1,.21,1.55,0,1.72-.71A17.36,17.36,0,0,0,47,13.52Zm-2.89,2.09c0,.47,0,.9,0,1.29l-1.16-.18.36-1.24c.12-.43.21-.71.26-.84.13-.4.25-.6.38-.58s.2.25.2.67S44.12,15.31,44.12,15.61Z"/></g></svg>