<svg xmlns="http://www.w3.org/2000/svg" viewBox="0 0 50 200"><defs><style>.cls-1{fill:#e6e8e8;}.cls-2{fill:#fff;opacity:0.2;}</style></defs><title>pointer_1</title><g id="Layer_2" data-name="Layer 2"><path d="M50,175.24C48.63,189.16,38,200,25,200S1.36,189.16,0,175.24l.18-4.56L1.61,162,22.38,2.42a2.62,2.62,0,0,1,5.23,0L48.39,162l1.42,8.7C49.87,172.21,49.94,173.71,50,175.24Z"/><path class="cls-1" d="M50,165.16h0a.06.06,0,0,0,0-.06Z"/><path class="cls-2" d="M25,0V200c-12.95,0-23.64-10.84-25-24.76l.18-4.56L1.61,162,22.38,2.42A2.66,2.66,0,0,1,25,0Z"/><circle cx="25" cy="175.83" r="13.5" transform="translate(-151.88 159.76) rotate(-76.72)"/><path class="cls-2" d="M38.5,175.83A13.5,13.5,0,0,1,25,189.33v-27A13.51,13.51,0,0,1,38.5,175.83Z"/></g></svg>