<svg xmlns="http://www.w3.org/2000/svg" viewBox="0 0 200 100"><defs><style>.cls-1{fill:#ffc246;}.cls-2{fill:#db2f00;}.cls-3{fill:#00e210;}.cls-4{opacity:0.3;}.cls-5{fill:#e6e8e8;}.cls-6{fill:#8c8c8c;}</style></defs><title>speedometer</title><g id="Layer_2" data-name="Layer 2"><path class="cls-1" d="M135.39,29.71l-19,45.78a45.38,45.38,0,0,0-32.84,0l-19-45.79h0a92.79,92.79,0,0,1,70.76,0Z"/><path class="cls-2" d="M185.42,79.74h0l-2.36,1L147.28,95.55a8.26,8.26,0,0,1-10.11-3.22A43.53,43.53,0,0,0,116.42,75.5l18-43.53.93-2.26h0a91.85,91.85,0,0,1,8.38,4c1.22.66,2.43,1.35,3.61,2.05q2.06,1.23,4.05,2.57t3.69,2.6h0c1.21.9,2.4,1.82,3.56,2.78h0c1.74,1.43,3.43,2.93,5.06,4.48a93,93,0,0,1,14.78,18.15c.65,1,1.27,2.09,1.88,3.16.5.88,1,1.78,1.46,2.68.6,1.12,1.16,2.25,1.7,3.38C184.22,76.93,184.84,78.33,185.42,79.74Z"/><path class="cls-3" d="M83.58,75.5A43.43,43.43,0,0,0,62.85,92.33a8.26,8.26,0,0,1-10.11,3.22L16.13,80.39l-1.55-.64q.43-1.06.9-2.1c.3-.7.62-1.39.95-2.09.66-1.37,1.34-2.72,2.06-4.06.35-.67.71-1.33,1.1-2,1.12-2,2.32-3.9,3.58-5.78.42-.63.84-1.25,1.28-1.87q1.32-1.85,2.7-3.63C28.08,57,29,55.87,30,54.73c.49-.57,1-1.13,1.5-1.69,1-1.11,2.05-2.21,3.11-3.27a92.51,92.51,0,0,1,30-20.05l.79,1.91Z"/><path class="cls-4" d="M196.64,74.84a7.75,7.75,0,0,1-1.74,1l-9.48,3.92h0l-2.36,1A92,92,0,0,0,134.45,32h0l-.11,0a89.84,89.84,0,0,0-68.93-.29c-.24.09-.46.2-.69.29h0A92,92,0,0,0,16.13,80.39l-1.55-.64q.43-1.06.9-2.1c-.31.69-.62,1.39-.91,2.1L5.09,75.82A8.13,8.13,0,0,1,1.56,73h0A8.19,8.19,0,0,1,2,66.73,109.8,109.8,0,0,1,57.63,14.54h0l.6-.25a107.49,107.49,0,0,1,83.19.26h0l.2.09a109.85,109.85,0,0,1,55.42,52.13A8.25,8.25,0,0,1,196.64,74.84Z"/><path class="cls-5" d="M142.58,12.32l-7.2,17.38a92.79,92.79,0,0,0-70.76,0L57.41,12.32h0A111,111,0,0,1,142.58,12.32Z"/><path class="cls-5" d="M196.64,74.84a7.75,7.75,0,0,1-1.74,1l-9.48,3.92c-.58-1.41-1.2-2.81-1.85-4.18-.55-1.14-1.11-2.26-1.7-3.38-.47-.9-1-1.8-1.46-2.68-.61-1.07-1.23-2.12-1.88-3.16a93,93,0,0,0-14.78-18.15c-1.63-1.55-3.32-3-5.06-4.48h0q-1.74-1.44-3.56-2.78h0c-1.21-.89-2.44-1.77-3.69-2.6s-2.68-1.75-4.05-2.57c-1.18-.71-2.38-1.39-3.61-2.05a91.85,91.85,0,0,0-8.38-4h0l6.25-15.08,1-2.3a110.84,110.84,0,0,1,56.54,52.22A8.21,8.21,0,0,1,196.64,74.84Z"/><path class="cls-5" d="M64.62,29.7h0a92.43,92.43,0,0,0-30,20.06c-1.07,1.06-2.1,2.15-3.11,3.27-.51.56-1,1.12-1.5,1.69q-1.47,1.71-2.87,3.49t-2.7,3.63c-.44.62-.86,1.24-1.28,1.87q-1.91,2.82-3.58,5.78c-.39.67-.75,1.33-1.1,2q-1.08,2-2.06,4.06c-.33.7-.65,1.39-.95,2.09s-.62,1.39-.91,2.1L5.09,75.82A8.13,8.13,0,0,1,1.56,73h0a8.18,8.18,0,0,1-.67-8.51A110.94,110.94,0,0,1,57.41,12.32l.82,2Z"/><path class="cls-6" d="M18,54.94a2.18,2.18,0,0,0,.94.94c1.07.7,1.89.63,2.44-.19A5.31,5.31,0,0,0,22,54.36a.88.88,0,0,1,1,.17c.85.62.78,1.6-.15,3a3.83,3.83,0,0,1-2.34,1.75,3.92,3.92,0,0,1-3-.56A4,4,0,0,1,15.3,56a4.36,4.36,0,0,1,.87-3.22A4.64,4.64,0,0,1,17.92,51a2.74,2.74,0,0,1,.89.52.94.94,0,0,1,.28,1.39,5.64,5.64,0,0,1-.5.6,4.88,4.88,0,0,0-.43.52A1,1,0,0,0,18,54.94Z"/><path class="cls-6" d="M28.56,48.79c.35.32.21.83-.42,1.56S27,51.3,26.65,51l-1.54-1.28c-.3.37-.6.73-.89,1.1l1.56,1.25c.38.3.26.82-.32,1.58s-1.07,1-1.45.74l-5.23-3.84c-.38-.28-.26-.84.39-1.68s1.18-1.14,1.54-.85l2.08,1.66c.3-.38.61-.75.92-1.12l-2.05-1.7c-.36-.3-.2-.86.49-1.66s1.25-1.06,1.59-.75Z"/><path class="cls-6" d="M31.56,44.72l-1.17,1.16.17.22a1.25,1.25,0,0,1-.21,1.8,1.43,1.43,0,0,1-1,.52.53.53,0,0,1-.37-.08,36,36,0,0,1-3.45-5.25c-.39-.77-.1-1.67.9-2.64s1.94-1.29,2.69-.89A17.27,17.27,0,0,1,34,42.94c.45.51.3,1.08-.42,1.75a1.67,1.67,0,0,1-1,.53,1.3,1.3,0,0,1-.85-.32Zm-6.46-3.3c-.54.56-1,.68-1.33.35s-.26-.66-.08-1.34a3.63,3.63,0,0,1,1-1.77,4,4,0,0,1,2.93-1,.89.89,0,0,1,.18.71,1.52,1.52,0,0,1-.49.94,2.15,2.15,0,0,1-2,.63C25.23,40.41,25.17,40.91,25.1,41.42Zm8.57,6.42c-.62.62-1.18.68-1.69.18s-.46-1.07.19-1.71,1.23-.69,1.73-.17S34.3,47.22,33.67,47.84Zm-5.55-5c.08.12.24.34.5.68l.75,1c.26-.27.53-.53.8-.79l-1-.75-.67-.51c-.32-.24-.53-.31-.63-.22S27.89,42.51,28.12,42.83Z"/><path class="cls-6" d="M39.78,31.49c.89,1.1,2,2.65,3.44,4.68.33.51.13,1-.59,1.47s-1.11.51-1.43.28Q39.6,35.7,38,33.5q1,2.28,2,4.52c.36.73.11,1.39-.74,2s-1.63.74-2.26.19Q35,38.65,33.05,37.1l3.34,4.22c.3.39.16.81-.42,1.3s-.84.46-1.17.26C33,40.62,31.73,39,31.06,38a1.32,1.32,0,0,1-.24-1.08A3.15,3.15,0,0,1,32,35.48a3,3,0,0,1,1.59-.77,1.46,1.46,0,0,1,1,.45c.61.55,1.75,1.57,3.4,3.08-.67-1.39-1.33-2.79-2-4.2a1.41,1.41,0,0,1-.12-1.13,3.34,3.34,0,0,1,1.31-1.34C38.34,30.8,39.22,30.78,39.78,31.49Z"/><path class="cls-6" d="M92.53,16.91a30.41,30.41,0,0,0,.15-5.44c.16-.39.68-.64,1.57-.74s1.55.2,1.6.85c.1,1.19-.44,3.25-1.28,6.21a1.87,1.87,0,0,1-1.73,1.32A2.17,2.17,0,0,1,91,18.75c-1.12-2.08-2.34-4.13-3.65-6.13,0-.48.47-.82,1.29-1a2.54,2.54,0,0,1,1.28,0,1.4,1.4,0,0,1,.8.73A26.11,26.11,0,0,1,92.53,16.91Z"/><path class="cls-6" d="M104,15.37a3.41,3.41,0,0,1-1,2.29,3.7,3.7,0,0,1-2.67.89c-2.26,0-3.47-1-3.64-3.17-.1-1.33-.19-2.66-.29-4,0-.47.49-.74,1.56-.78s1.66.18,1.66.65c0,1.43,0,2.85,0,4.28a1.56,1.56,0,0,0,.2.88.9.9,0,0,0,1.22,0,1.43,1.43,0,0,0,.23-.9c0-1.42,0-2.83.08-4.25,0-.47.49-.69,1.47-.64a2,2,0,0,1,1.27.36.34.34,0,0,0,.28,0,.25.25,0,0,0,.05-.44l-.27-.22a1.46,1.46,0,0,1-.25-.24.36.36,0,0,1,0-.57.93.93,0,0,1,.35-.23,2.28,2.28,0,0,1,1,.79,1.56,1.56,0,0,1,.4,1,1.13,1.13,0,0,1-.64.93,1,1,0,0,1-.85.09ZM99.81,9.53c-1.06-.27-1.61-.65-1.63-1.19a1,1,0,0,1,.65-1,1.9,1.9,0,0,1,.67-.2c1.76.55,2.58,1.2,2.56,1.83a.82.82,0,0,1-.66.86A11.49,11.49,0,0,1,99.81,9.53Z"/><path class="cls-6" d="M108.65,17.82c-.53-.09-1.06-.18-1.59-.25a2,2,0,0,0-.08.26,1.22,1.22,0,0,1-1.53.92,1.39,1.39,0,0,1-1-.44.52.52,0,0,1-.15-.33A33.28,33.28,0,0,1,106.4,12c.38-.76,1.29-1.07,2.7-.85s2.22.83,2.34,1.67a16.75,16.75,0,0,1,0,5.92c-.16.66-.7.87-1.64.67a1.63,1.63,0,0,1-1-.46,1.38,1.38,0,0,1-.23-.88A2.81,2.81,0,0,0,108.65,17.82Zm-.51-3.89c0,.13-.12.39-.24.8s-.25.86-.35,1.19l1.11.17c0-.37,0-.78,0-1.23,0-.28,0-.56,0-.84s-.06-.62-.2-.64S108.27,13.55,108.14,13.93Z"/><path class="cls-6" d="M158.8,34.89a23,23,0,0,1,1.94-3.31c.3-.44.78-.44,1.45,0s.81.9.5,1.34l-3.3,4.62a1.34,1.34,0,0,1-.92.65,2.25,2.25,0,0,1-1.39-.53,1.67,1.67,0,0,1-.77-1,3.74,3.74,0,0,1,.08-1.4c.2-1.1.4-2.22.57-3.34a22.53,22.53,0,0,1-1.89,3.46c-.29.46-.74.48-1.38.08s-.8-.78-.52-1.24l3-5a1.1,1.1,0,0,1,1-.66,3.25,3.25,0,0,1,1.42.59,2.11,2.11,0,0,1,1,1.1,4.15,4.15,0,0,1-.1,1.43C159.24,32.78,159,33.84,158.8,34.89Z"/><path class="cls-6" d="M165.23,43.07q-.47.54-1.53-.36c-.71-.6-.92-1.08-.62-1.45l1.26-1.56-1.06-.85c-.41.53-.83,1-1.24,1.57s-.8.28-1.54-.28-1-1-.7-1.42c1.27-1.75,2.55-3.49,3.83-5.24.28-.37.82-.26,1.63.35s1.08,1.13.79,1.5l-1.64,2.09,1.08.87,1.68-2.07c.3-.36.84-.22,1.61.43s1,1.18.72,1.53Z"/><path class="cls-6" d="M169.24,45.87l-1.14-1.1a1.84,1.84,0,0,0-.22.17,1.22,1.22,0,0,1-1.77-.13,1.37,1.37,0,0,1-.52-.93.57.57,0,0,1,.08-.36,38.59,38.59,0,0,1,5.15-3.59c.74-.41,1.62-.16,2.58.76s1.26,1.83.88,2.59A18,18,0,0,1,171,48.2c-.49.47-1.06.36-1.73-.32a1.62,1.62,0,0,1-.53-.92,1.33,1.33,0,0,1,.31-.85Zm1.83-3.46-.66.52-1,.77.78.76.73-1,.5-.67c.22-.33.3-.54.21-.63S171.39,42.17,171.07,42.41Z"/><path class="cls-6" d="M176.57,51.09a22.83,22.83,0,0,1,2.79-2.62c.42-.34.88-.21,1.39.43s.52,1.09.1,1.42l-4.48,3.5a1.35,1.35,0,0,1-1.06.36,2.25,2.25,0,0,1-1.18-.9,1.68,1.68,0,0,1-.46-1.16,3.69,3.69,0,0,1,.47-1.32c.52-1,1-2,1.5-3a22.45,22.45,0,0,1-2.79,2.78c-.4.36-.85.25-1.35-.31s-.53-1-.14-1.34l4.25-4a1.1,1.1,0,0,1,1.11-.36,3.27,3.27,0,0,1,1.19,1,2.12,2.12,0,0,1,.68,1.34,4.14,4.14,0,0,1-.51,1.35C177.59,49.19,177.08,50.15,176.57,51.09Z"/><path class="cls-6" d="M180.43,60.78c-.41.25-.85,0-1.37-.79s-.58-1.3-.19-1.58l1.65-1.13c-.25-.37-.51-.75-.78-1.12l-1.63,1.16c-.39.28-.85,0-1.4-.72s-.65-1.26-.27-1.56l5.16-3.93c.37-.28.86,0,1.46.79s.72,1.4.34,1.67l-2.17,1.54.8,1.14,2.2-1.5c.38-.27.86,0,1.42.87s.65,1.43.26,1.68Z"/></g></svg>