<svg id="Layer_1" data-name="Layer 1" xmlns="http://www.w3.org/2000/svg" xmlns:xlink="http://www.w3.org/1999/xlink" viewBox="0 0 300 200"><defs><style>.cls-1{fill:none;}.cls-2{clip-path:url(#clip-path);}.cls-3{fill:#0d1d2c;}.cls-4{fill:#e2e2e2;}.cls-5{fill:#fdfeff;}.cls-6{fill:#41b9fa;}.cls-7{fill:#c4c4c4;}.cls-8{fill:#e5e5e5;}.cls-9{fill:#626c72;}.cls-10{fill:#96a5b3;}.cls-11{fill:#2f3e4a;}.cls-12{fill:#222d35;}</style><clipPath id="clip-path"><rect class="cls-1" width="300" height="200"/></clipPath></defs><title>map-board</title><g class="cls-2"><path class="cls-3" d="M26.27,192.56c-10.87,0-19.72-9.61-19.72-21.42V28.64c0-11.82,8.85-21.43,19.72-21.43H273.64c10.87,0,19.71,9.61,19.71,21.43v142.5c0,11.81-8.84,21.42-19.71,21.42Z"/><path class="cls-4" d="M273.63,10.28c9.32,0,16.9,8.23,16.9,18.36v142.5c0,10.12-7.58,18.36-16.9,18.36H26.27c-9.32,0-16.9-8.24-16.9-18.36V28.64c0-10.13,7.58-18.36,16.9-18.36H273.63m0-6.13H26.27c-12.43,0-22.54,11-22.54,24.49v142.5c0,13.5,10.11,24.49,22.54,24.49H273.63c12.43,0,22.54-11,22.54-24.49V28.64c0-13.51-10.11-24.49-22.54-24.49"/><path class="cls-5" d="M273.64,1.24H26.27C12.4,1.24,1.05,13.57,1.05,28.64v142.5c0,15.07,11.35,27.4,25.22,27.4H273.64c13.86,0,25.21-12.33,25.21-27.4V28.64c0-15.07-11.35-27.4-25.21-27.4m19.85,169.9a22.38,22.38,0,0,1-5.83,15.23,19,19,0,0,1-14,6.35H26.27a19,19,0,0,1-14-6.35,22.39,22.39,0,0,1-5.84-15.23V28.64A22.46,22.46,0,0,1,12.25,13.4a19,19,0,0,1,14-6.34H273.64a19,19,0,0,1,14,6.34,22.37,22.37,0,0,1,5.83,15.24Z"/><path class="cls-6" d="M30.72,8a2.13,2.13,0,0,1-.13.43Z"/><path class="cls-7" d="M31.75,4.7l-1,3.3-.13.43a2.74,2.74,0,0,1-2.51,1.81h-1.9C17,10.22,9.47,18.35,9.47,28.37v2.07a2.92,2.92,0,0,1-2,2.86L4,34.62l1-1.89c-.07-.06-.13-.13-.2-.2A3.15,3.15,0,0,1,4,30.44V26.5C4,14.23,13.16,4.29,24.46,4.29h3.62a2.7,2.7,0,0,1,2.31,1.39Z"/><path class="cls-8" d="M31.93,3.52h0a3.39,3.39,0,0,1-3.24,3.53H26.43c-11,0-19.88,9.67-19.88,21.6V31.1a3.37,3.37,0,0,1-3.23,3.52h0A3.39,3.39,0,0,1,.07,31.11h0V26.42C.07,11.83,11,0,24.38,0h4.31a3.38,3.38,0,0,1,3.24,3.52"/><path class="cls-9" d="M3.24,29.4a1.91,1.91,0,0,1,0,3.81,1.91,1.91,0,0,1,0-3.81"/><path class="cls-10" d="M3.24,29.6a1.71,1.71,0,0,1,0,3.41,1.71,1.71,0,0,1,0-3.41"/><polygon class="cls-11" points="4.2 30.7 4.2 31.91 3.24 32.5 2.3 31.91 2.3 30.7 3.24 30.11 4.2 30.7"/><path class="cls-12" d="M4.2,30.7v.55a1.28,1.28,0,0,0-1-.47,1.19,1.19,0,0,0-1,.47V30.7l.94-.59Z"/><path class="cls-9" d="M28.84,1.58a1.84,1.84,0,0,1,1.75,1.91A1.76,1.76,0,0,1,29,5.43a1.78,1.78,0,0,1-1.94-1.56,2.41,2.41,0,0,1,0-.38,1.85,1.85,0,0,1,1.75-1.91"/><path class="cls-10" d="M28.84,1.79a1.63,1.63,0,0,1,1.56,1.7h0a1.57,1.57,0,0,1-3.13.25V3.49a1.65,1.65,0,0,1,1.57-1.7"/><polygon class="cls-11" points="29.79 2.89 29.79 4.09 28.84 4.68 27.89 4.09 27.89 2.89 28.84 2.3 29.79 2.89"/><path class="cls-12" d="M29.79,2.89v.54A1.34,1.34,0,0,0,28.85,3a1.27,1.27,0,0,0-1,.47V2.89l1-.6Z"/><path class="cls-7" d="M268.31,4.73l1,3.28.14.43a2.74,2.74,0,0,0,2.51,1.8h1.9c9.23,0,16.71,8.13,16.71,18.16v2.06a3,3,0,0,0,2,2.87L296,34.65l-1-1.9a.91.91,0,0,0,.2-.19,3,3,0,0,0,.8-2.1V26.54c0-12.27-9.15-22.21-20.44-22.21H272a2.68,2.68,0,0,0-2.31,1.38Z"/><path class="cls-8" d="M268.12,3.56h0a3.39,3.39,0,0,0,3.25,3.52h2.26c11,0,19.87,9.67,19.87,21.6v2.46a3.26,3.26,0,0,0,6.49.63,3.31,3.31,0,0,0,0-.63V26.46C300,11.86,289.1,0,275.68,0h-4.31a3.39,3.39,0,0,0-3.25,3.52"/><path class="cls-9" d="M296.81,29.43a1.92,1.92,0,1,0,1.75,2.08v-.17a1.84,1.84,0,0,0-1.75-1.91"/><path class="cls-10" d="M296.81,29.64a1.71,1.71,0,1,0,1.57,1.84v-.14a1.62,1.62,0,0,0-1.55-1.7h0"/><polygon class="cls-11" points="295.86 30.74 295.86 31.94 296.81 32.53 297.76 31.94 297.76 30.74 296.81 30.15 295.86 30.74"/><path class="cls-12" d="M295.86,30.74v.54a1.42,1.42,0,0,1,.94-.47,1.25,1.25,0,0,1,1,.47v-.54l-.95-.6Z"/><path class="cls-9" d="M271.22,1.62a1.83,1.83,0,0,0-1.75,1.91h0a1.76,1.76,0,0,0,3.5.38,1.21,1.21,0,0,0,0-.38,1.84,1.84,0,0,0-1.75-1.91"/><path class="cls-10" d="M271.22,1.82a1.65,1.65,0,0,0-1.57,1.71h0a1.57,1.57,0,0,0,3.13.25,1,1,0,0,0,0-.25,1.63,1.63,0,0,0-1.56-1.71"/><polygon class="cls-11" points="270.26 2.92 270.26 4.13 271.22 4.72 272.16 4.13 272.16 2.92 271.22 2.33 270.26 2.92"/><path class="cls-12" d="M270.26,2.93v.54a1.31,1.31,0,0,1,1-.47,1.17,1.17,0,0,1,.95.47V2.93l-.94-.6Z"/><path class="cls-7" d="M31.67,195.3l-1-3.28-.14-.43A2.71,2.71,0,0,0,28,189.78h-1.9c-9.23,0-16.71-8.13-16.71-18.15v-2.07a2.92,2.92,0,0,0-2-2.86L4,165.37l1,1.9-.2.2a3.05,3.05,0,0,0-.8,2.09v3.94c0,12.27,9.15,22.21,20.44,22.21H28a2.69,2.69,0,0,0,2.31-1.39Z"/><path class="cls-8" d="M31.86,196.48h0A3.4,3.4,0,0,0,28.61,193H26.35c-11,0-19.87-9.67-19.87-21.6v-2.5a3.39,3.39,0,0,0-3.25-3.52A3.39,3.39,0,0,0,0,168.89H0v4.68C0,188.17,10.88,200,24.3,200h4.31a3.39,3.39,0,0,0,3.25-3.52"/><path class="cls-9" d="M3.17,170.6a1.91,1.91,0,0,0,0-3.81,1.91,1.91,0,0,0,0,3.81"/><path class="cls-10" d="M3.17,170.4a1.71,1.71,0,0,0,0-3.41,1.71,1.71,0,0,0,0,3.41"/><polygon class="cls-11" points="4.12 169.3 4.12 168.1 3.17 167.5 2.22 168.1 2.22 169.3 3.17 169.89 4.12 169.3"/><path class="cls-12" d="M4.12,169.3v-.55a1.3,1.3,0,0,1-.94.47,1.23,1.23,0,0,1-1-.47v.55l1,.59Z"/><path class="cls-9" d="M28.76,198.42A1.92,1.92,0,1,0,27,196.36s0,.1,0,.15a1.85,1.85,0,0,0,1.75,1.91"/><path class="cls-10" d="M28.76,198.21a1.71,1.71,0,1,0-1.55-1.85s0,.1,0,.15a1.65,1.65,0,0,0,1.56,1.7"/><polygon class="cls-11" points="29.72 197.11 29.72 195.91 28.76 195.32 27.82 195.91 27.82 197.11 28.76 197.7 29.72 197.11"/><path class="cls-12" d="M29.72,197.11v-.54a1.34,1.34,0,0,1-.95.47,1.23,1.23,0,0,1-1-.47v.54l.94.6Z"/><path class="cls-7" d="M268.23,195.27l1-3.28.13-.44a2.76,2.76,0,0,1,2.51-1.8h1.9c9.23,0,16.71-8.13,16.71-18.16v-2.06a3,3,0,0,1,2-2.87l3.41-1.32-1,1.9a1.21,1.21,0,0,1,.2.19,3.08,3.08,0,0,1,.8,2.1v3.93c0,12.27-9.15,22.21-20.44,22.21h-3.63a2.71,2.71,0,0,1-2.31-1.38Z"/><path class="cls-8" d="M268.05,196.44h0a3.39,3.39,0,0,1,3.24-3.52h2.26c11,0,19.88-9.67,19.88-21.6v-2.46a3.25,3.25,0,0,1,6.48-.51,2.17,2.17,0,0,1,0,.51v4.69C299.91,188.14,289,200,275.6,200h-4.31a3.39,3.39,0,0,1-3.24-3.51h0"/><path class="cls-9" d="M296.74,170.57a1.92,1.92,0,1,1,1.75-2.08v.17a1.84,1.84,0,0,1-1.75,1.91"/><path class="cls-10" d="M296.74,170.36a1.71,1.71,0,1,1,1.56-1.85v.15a1.63,1.63,0,0,1-1.56,1.7"/><polygon class="cls-11" points="295.78 169.26 295.78 168.06 296.74 167.47 297.68 168.06 297.68 169.26 296.74 169.85 295.78 169.26"/><path class="cls-12" d="M295.78,169.26v-.54a1.38,1.38,0,0,0,1,.47,1.22,1.22,0,0,0,.95-.47v.54l-.94.6Z"/><path class="cls-9" d="M271.14,198.38a1.91,1.91,0,1,1,1.75-2.06v.15a1.82,1.82,0,0,1-1.74,1.91h0"/><path class="cls-10" d="M271.14,198.18a1.71,1.71,0,1,1,1.57-1.84v.13a1.64,1.64,0,0,1-1.56,1.71h0"/><polygon class="cls-11" points="270.19 197.07 270.19 195.87 271.14 195.28 272.09 195.87 272.09 197.07 271.14 197.67 270.19 197.07"/><path class="cls-12" d="M270.19,197.08v-.55a1.3,1.3,0,0,0,.94.47,1.22,1.22,0,0,0,1-.47v.55l-1,.59Z"/></g></svg>