<svg id="Layer_1" data-name="Layer 1" xmlns="http://www.w3.org/2000/svg" xmlns:xlink="http://www.w3.org/1999/xlink" viewBox="0 0 300 200"><defs><style>.cls-1{fill:#00b1ff;}.cls-2{fill:#e2e2e2;}.cls-3{fill:#fdfeff;}.cls-4{fill:#41b9fa;}.cls-5{fill:#c4c4c4;}.cls-6{fill:#e5e5e5;}.cls-7{fill:#626c72;}.cls-8{fill:#96a5b3;}.cls-9{fill:#2f3e4a;}.cls-10{fill:#222d35;}.cls-11{fill:#262626;}.cls-12{fill:#fff;}.cls-13{fill:#77401b;}.cls-13,.cls-26,.cls-41,.cls-44,.cls-46,.cls-48,.cls-50{stroke:#070707;}.cls-13,.cls-14,.cls-15,.cls-16,.cls-17,.cls-26,.cls-36,.cls-37,.cls-38,.cls-39,.cls-40,.cls-41,.cls-42,.cls-43,.cls-44,.cls-46,.cls-48,.cls-50{stroke-miterlimit:10;}.cls-13,.cls-14{stroke-width:0.22px;}.cls-14,.cls-18,.cls-42{fill:#f8c946;}.cls-14{stroke:#020202;}.cls-15,.cls-54{fill:#282828;}.cls-15,.cls-16,.cls-17{stroke:#151616;}.cls-15,.cls-16{stroke-width:0.18px;}.cls-16,.cls-17,.cls-21{fill:#4d4d4d;}.cls-17{stroke-width:0.65px;}.cls-19{fill:#683919;}.cls-20{fill:#353535;stroke-linejoin:round;stroke-width:0.14px;}.cls-20,.cls-42{stroke:#000;}.cls-22{fill:#b3b3b3;}.cls-23{fill:#f9f7f7;opacity:0.41;}.cls-24{fill:#d3161d;}.cls-25,.cls-48{fill:#945320;}.cls-26,.cls-37,.cls-41{fill:none;}.cls-26,.cls-43{stroke-width:0.19px;}.cls-27{fill:#7f1119;}.cls-28{fill:#5e0e18;}.cls-29{fill:#352f49;}.cls-30{fill:#e41e00;}.cls-31{fill:#fffe28;}.cls-32{fill:#18ff08;}.cls-33{fill:#dbdddd;}.cls-34{fill:#0fb0db;}.cls-35{fill:#303435;}.cls-36,.cls-37,.cls-38,.cls-39,.cls-40{stroke:#0a0a0a;stroke-width:0.08px;}.cls-36{fill:url(#radial-gradient);}.cls-38{fill:url(#radial-gradient-2);}.cls-39{fill:url(#radial-gradient-3);}.cls-40{fill:url(#radial-gradient-4);}.cls-41{stroke-width:0.1px;}.cls-42{stroke-width:0.08px;}.cls-43{fill:#adadad;stroke:#080000;}.cls-44{fill:#515051;}.cls-44,.cls-46,.cls-48,.cls-50{stroke-width:0.21px;}.cls-45{fill:#161616;}.cls-46{fill:#e2b647;}.cls-47{fill:#070707;}.cls-49{fill:#aa161d;}.cls-50{fill:#3a3a3a;}.cls-51{fill:#666;}.cls-52{fill:#dddbd7;}.cls-53{fill:#212121;}.cls-55{fill:#7c7c7c;}.cls-56{fill:#389cce;}.cls-57{fill:#020202;}.cls-58{fill:#0a0a0a;}.cls-59{opacity:0.26;}.cls-60{fill:#af0c00;}.cls-61{fill:#e91900;}.cls-62{fill:#4a9e00;}.cls-63{fill:#60db00;}</style><radialGradient id="radial-gradient" cx="-5286.04" cy="-1394.52" r="0.62" gradientTransform="matrix(0, -1.89, -1.89, 0, -2555.55, -9909.67)" gradientUnits="userSpaceOnUse"><stop offset="0.2" stop-color="#666"/><stop offset="0.57" stop-color="#585858"/><stop offset="1" stop-color="#4d4d4d"/></radialGradient><radialGradient id="radial-gradient-2" cx="-5288.56" cy="-1388.35" r="0.62" gradientTransform="matrix(0, -1.89, -1.89, 0, -2541.46, -9902.09)" xlink:href="#radial-gradient"/><radialGradient id="radial-gradient-3" cx="-5285.97" cy="-1388.51" r="0.62" gradientTransform="matrix(0, -1.89, -1.89, 0, -2546.5, -9898.41)" xlink:href="#radial-gradient"/><radialGradient id="radial-gradient-4" cx="-5288.3" cy="-1394.41" r="0.62" gradientTransform="matrix(0, -1.89, -1.89, 0, -2551.2, -9912.92)" xlink:href="#radial-gradient"/></defs><title>branch</title><path class="cls-1" d="M26.28,192.56c-10.87,0-19.72-9.61-19.72-21.42V28.64c0-11.82,8.85-21.43,19.72-21.43H273.65c10.87,0,19.71,9.61,19.71,21.43v142.5c0,11.81-8.84,21.42-19.71,21.42Z"/><path class="cls-2" d="M273.64,10.28c9.32,0,16.9,8.23,16.9,18.36v142.5c0,10.12-7.58,18.36-16.9,18.36H26.28c-9.32,0-16.9-8.24-16.9-18.36V28.64c0-10.13,7.58-18.36,16.9-18.36H273.64m0-6.13H26.28c-12.43,0-22.54,11-22.54,24.49v142.5c0,13.5,10.11,24.49,22.54,24.49H273.64c12.43,0,22.54-11,22.54-24.49V28.64c0-13.51-10.11-24.49-22.54-24.49"/><path class="cls-3" d="M273.65,1.24H26.28c-13.87,0-25.22,12.33-25.22,27.4v142.5c0,15.07,11.35,27.4,25.22,27.4H273.65c13.86,0,25.21-12.33,25.21-27.4V28.64c0-15.07-11.35-27.4-25.21-27.4m19.85,169.9a22.4,22.4,0,0,1-5.83,15.23,19,19,0,0,1-14,6.35H26.28a19,19,0,0,1-14-6.35,22.36,22.36,0,0,1-5.84-15.23V28.64A22.37,22.37,0,0,1,12.26,13.4a18.94,18.94,0,0,1,14-6.34H273.65a19,19,0,0,1,14,6.34,22.41,22.41,0,0,1,5.83,15.24Z"/><path class="cls-4" d="M30.73,8a3.52,3.52,0,0,1-.13.43Z"/><path class="cls-5" d="M31.76,4.7,30.73,8l-.13.43h0a2.74,2.74,0,0,1-2.51,1.81h-1.9C17,10.22,9.48,18.35,9.48,28.37v2.07a2.92,2.92,0,0,1-2,2.86h0L4,34.62l1-1.89a1.89,1.89,0,0,1-.2-.2A3.1,3.1,0,0,1,4,30.44V26.5C4,14.23,13.17,4.29,24.47,4.29h3.62A2.71,2.71,0,0,1,30.4,5.68Z"/><path class="cls-6" d="M31.94,3.52h0A3.39,3.39,0,0,1,28.7,7.05H26.44c-11,0-19.88,9.67-19.88,21.6V31.1a3.38,3.38,0,0,1-3.24,3.52A3.38,3.38,0,0,1,.08,31.1V26.42C.08,11.83,11,0,24.39,0H28.7a3.39,3.39,0,0,1,3.24,3.52"/><path class="cls-7" d="M3.25,29.4a1.91,1.91,0,0,1,0,3.81,1.91,1.91,0,0,1,0-3.81"/><path class="cls-8" d="M3.25,29.6a1.71,1.71,0,0,1,0,3.41,1.71,1.71,0,0,1,0-3.41"/><polygon class="cls-9" points="4.21 30.7 4.21 31.91 3.25 32.5 2.31 31.91 2.31 30.7 3.25 30.11 4.21 30.7"/><path class="cls-10" d="M4.21,30.7v.55a1.31,1.31,0,0,0-1-.47,1.2,1.2,0,0,0-.95.47V30.7l.94-.59Z"/><path class="cls-7" d="M28.85,1.58A1.84,1.84,0,0,1,30.6,3.49a1.76,1.76,0,1,1-3.5,0,1.84,1.84,0,0,1,1.75-1.91"/><path class="cls-8" d="M28.85,1.79a1.63,1.63,0,0,1,1.56,1.7,1.57,1.57,0,1,1-3.13,0,1.64,1.64,0,0,1,1.57-1.7"/><polygon class="cls-9" points="29.8 2.89 29.8 4.09 28.85 4.68 27.9 4.09 27.9 2.89 28.85 2.3 29.8 2.89"/><path class="cls-10" d="M29.8,2.89v.54A1.34,1.34,0,0,0,28.86,3a1.26,1.26,0,0,0-1,.47V2.89l1-.6Z"/><path class="cls-5" d="M268.32,4.73l1,3.28.14.43h0a2.72,2.72,0,0,0,2.51,1.8h1.9c9.23,0,16.71,8.13,16.71,18.16v2.06a2.94,2.94,0,0,0,2,2.87h0l3.41,1.32-1-1.9a1.21,1.21,0,0,0,.2-.19,3.07,3.07,0,0,0,.8-2.1V26.54c0-12.27-9.15-22.21-20.44-22.21H272a2.68,2.68,0,0,0-2.31,1.38Z"/><path class="cls-6" d="M268.13,3.56h0a3.39,3.39,0,0,0,3.25,3.52h2.26c11,0,19.87,9.67,19.87,21.6v2.46a3.26,3.26,0,1,0,6.49,0V26.46C300,11.86,289.11,0,275.69,0h-4.31a3.39,3.39,0,0,0-3.25,3.52"/><path class="cls-7" d="M296.82,29.43a1.92,1.92,0,1,0,1.75,1.91,1.84,1.84,0,0,0-1.75-1.91"/><path class="cls-8" d="M296.82,29.64a1.71,1.71,0,1,0,1.57,1.7,1.63,1.63,0,0,0-1.57-1.7"/><polygon class="cls-9" points="295.87 30.74 295.87 31.94 296.82 32.53 297.77 31.94 297.77 30.74 296.82 30.15 295.87 30.74"/><path class="cls-10" d="M295.87,30.74v.54a1.38,1.38,0,0,1,.94-.47,1.26,1.26,0,0,1,1,.47v-.54l-.95-.6Z"/><path class="cls-7" d="M271.23,1.62a1.83,1.83,0,0,0-1.75,1.91,1.76,1.76,0,1,0,3.5,0,1.84,1.84,0,0,0-1.75-1.91"/><path class="cls-8" d="M271.23,1.82a1.64,1.64,0,0,0-1.57,1.71,1.57,1.57,0,1,0,3.13,0,1.64,1.64,0,0,0-1.56-1.71"/><polygon class="cls-9" points="270.27 2.92 270.27 4.13 271.23 4.72 272.17 4.13 272.17 2.92 271.23 2.33 270.27 2.92"/><path class="cls-10" d="M270.27,2.93v.54a1.31,1.31,0,0,1,1-.47,1.2,1.2,0,0,1,.95.47V2.93l-.94-.6Z"/><path class="cls-5" d="M31.68,195.3l-1-3.28-.14-.43h0A2.73,2.73,0,0,0,28,189.78h-1.9c-9.23,0-16.71-8.13-16.71-18.15v-2.07a2.92,2.92,0,0,0-2-2.86h0L4,165.37l1,1.9a1.26,1.26,0,0,0-.2.2,3,3,0,0,0-.8,2.09v3.94c0,12.27,9.15,22.21,20.44,22.21H28a2.69,2.69,0,0,0,2.31-1.39Z"/><path class="cls-6" d="M31.87,196.48h0A3.4,3.4,0,0,0,28.62,193H26.36c-11,0-19.87-9.67-19.87-21.6V168.9a3.39,3.39,0,0,0-3.25-3.52A3.38,3.38,0,0,0,0,168.9v4.68C0,188.17,10.89,200,24.31,200h4.31a3.4,3.4,0,0,0,3.25-3.52"/><path class="cls-7" d="M3.18,170.6a1.91,1.91,0,0,0,0-3.81,1.91,1.91,0,0,0,0,3.81"/><path class="cls-8" d="M3.18,170.4a1.71,1.71,0,0,0,0-3.41,1.71,1.71,0,0,0,0,3.41"/><polygon class="cls-9" points="4.13 169.3 4.13 168.1 3.18 167.5 2.23 168.1 2.23 169.3 3.18 169.89 4.13 169.3"/><path class="cls-10" d="M4.13,169.3v-.55a1.28,1.28,0,0,1-.94.47,1.22,1.22,0,0,1-1-.47v.55l1,.59Z"/><path class="cls-7" d="M28.77,198.42A1.92,1.92,0,1,0,27,196.51a1.84,1.84,0,0,0,1.75,1.91"/><path class="cls-8" d="M28.77,198.21a1.71,1.71,0,1,0-1.56-1.7,1.64,1.64,0,0,0,1.56,1.7"/><polygon class="cls-9" points="29.73 197.11 29.73 195.91 28.77 195.32 27.83 195.91 27.83 197.11 28.77 197.7 29.73 197.11"/><path class="cls-10" d="M29.73,197.11v-.54a1.38,1.38,0,0,1-.95.47,1.23,1.23,0,0,1-1-.47v.54l.94.6Z"/><path class="cls-5" d="M268.24,195.27l1-3.28.13-.44h0a2.74,2.74,0,0,1,2.51-1.8h1.9c9.23,0,16.71-8.13,16.71-18.16v-2.06a3,3,0,0,1,2-2.87h0l3.41-1.32-1,1.9a1.8,1.8,0,0,1,.2.19,3.12,3.12,0,0,1,.8,2.1v3.93c0,12.27-9.15,22.21-20.44,22.21h-3.63a2.7,2.7,0,0,1-2.31-1.38Z"/><path class="cls-6" d="M268.06,196.44h0a3.38,3.38,0,0,1,3.24-3.52h2.26c11,0,19.88-9.67,19.88-21.6v-2.46a3.25,3.25,0,1,1,6.48,0v4.69c0,14.59-10.88,26.41-24.31,26.41H271.3a3.38,3.38,0,0,1-3.24-3.52"/><path class="cls-7" d="M296.75,170.57a1.92,1.92,0,1,1,1.75-1.91,1.84,1.84,0,0,1-1.75,1.91"/><path class="cls-8" d="M296.75,170.36a1.71,1.71,0,1,1,1.56-1.7,1.64,1.64,0,0,1-1.56,1.7"/><polygon class="cls-9" points="295.79 169.26 295.79 168.06 296.75 167.47 297.69 168.06 297.69 169.26 296.75 169.85 295.79 169.26"/><path class="cls-10" d="M295.79,169.26v-.54a1.38,1.38,0,0,0,.95.47,1.23,1.23,0,0,0,.95-.47v.54l-.94.6Z"/><path class="cls-7" d="M271.15,198.38a1.91,1.91,0,1,1,1.75-1.91,1.83,1.83,0,0,1-1.75,1.91"/><path class="cls-8" d="M271.15,198.18a1.71,1.71,0,1,1,1.57-1.71,1.64,1.64,0,0,1-1.57,1.71"/><polygon class="cls-9" points="270.2 197.07 270.2 195.87 271.15 195.28 272.1 195.87 272.1 197.07 271.15 197.67 270.2 197.07"/><path class="cls-10" d="M270.2,197.08v-.55a1.28,1.28,0,0,0,.94.47,1.22,1.22,0,0,0,1-.47v.55l-1,.59Z"/><path class="cls-11" d="M135.52,45.79c-34.29,32.45-72.59,54.78-110.66,66L70.78,159.6c40.45-17.86,81.62-45.82,114.82-85.36C173.28,68.33,148.41,53.55,135.52,45.79Zm-67,91.52q-4.26-3.56-8.52-7.2a266.76,266.76,0,0,0,27-13.82c2.81,2.15,5.6,4.27,8.4,6.36A271.19,271.19,0,0,1,68.49,137.31Zm52.67-32.65q-4.08-2.73-8.21-5.56a316.1,316.1,0,0,0,25.4-21q4,2.43,8,4.76A319.8,319.8,0,0,1,121.16,104.66Z"/><path class="cls-12" d="M138.35,78.14a316.1,316.1,0,0,1-25.4,21q4.13,2.84,8.22,5.56A323.63,323.63,0,0,0,146.3,82.9q-4-2.34-8-4.76"/><path class="cls-12" d="M87,116.29a263.68,263.68,0,0,1-27,13.82c2.84,2.43,4.58,5.14,7.42,7.51a288.23,288.23,0,0,0,28-15c-2.79-2.09-5.6-4.21-8.4-6.36"/><path class="cls-11" d="M195.84,47l-63.16-.17L138.26,30l49.65,1.56a115.45,115.45,0,0,0,7.83,15.14Z"/><path class="cls-11" d="M274.86,130.52l-58.09,31.91C183.5,133.3,152.56,94.32,132.68,46.66c13.53-1.95,45.91.93,63.16.17C218.88,88,241.89,108.43,274.86,130.52Z"/><path class="cls-12" d="M189.6,76.19a314,314,0,0,0,21.16,25.24q-4.57,2-9.1,4a321.93,321.93,0,0,1-20.74-26c2.87-1.05,5.77-2.13,8.68-3.24Z"/><path class="cls-12" d="M225.5,117.15a246.77,246.77,0,0,0,20.84,20.62c-3.44,1.47-6.08,3.54-9.49,4.95a269.63,269.63,0,0,1-21.28-22c3.3-1.16,6.6-2.35,9.93-3.56Z"/><path class="cls-13" d="M56.72,70.31,77.44,60.23c3.47-1.82,6.23-2.5,8.2.73h0c1.58,3.34.06,4.6-2.88,6.78L63.21,82.79a6.88,6.88,0,0,1-9.45-2.27h0C51.78,77.3,53.49,72.29,56.72,70.31Z"/><path class="cls-14" d="M58.28,69.52,79.7,58.68C83.18,56.86,88,64,85,66.19l-19.55,15A6.88,6.88,0,0,1,56,79h0A6.89,6.89,0,0,1,58.28,69.52Z"/><path class="cls-15" d="M54.24,76.64a4.06,4.06,0,0,1,.37-3c-2.91-.58-10.11-1-10.81-.06a8.18,8.18,0,0,0-.87,3.29,1.71,1.71,0,0,0,1.92,2c3.48-.55,8.82-1.55,8.82-1.55Z"/><path class="cls-16" d="M54.63,73.54c-2.91-.58-9.82-1.76-10.52-.86A8.92,8.92,0,0,0,43,75.87a1.69,1.69,0,0,0,1.92,2c3.48-.55,9.16-1,9.37-1.21A3.57,3.57,0,0,1,54.63,73.54Z"/><path class="cls-15" d="M56.13,80.86a4.05,4.05,0,0,1-1.55-2.65c-2.67,1.3-8.63,5.35-8.64,6.49a8.16,8.16,0,0,0,1.29,3.15,1.71,1.71,0,0,0,2.74.43c2.44-2.54,6.09-6.57,6.09-6.57Z"/><path class="cls-16" d="M54.57,78.16c-2.67,1.3-8.89,4.54-8.9,5.67A9,9,0,0,0,46.75,87a1.69,1.69,0,0,0,2.74.43c2.44-2.54,6.7-6.33,6.73-6.62A3.55,3.55,0,0,1,54.57,78.16Z"/><path class="cls-15" d="M60.9,82.67a4,4,0,0,1-2.92-1c-1.14,2.74-3.19,7.29-2.45,8.15.51.58.56.68,1.8,1.1a1.76,1.76,0,0,0,2.34-1.49,30.09,30.09,0,0,1,1.73-6.12Z"/><path class="cls-16" d="M57.94,81.68c-1.14,2.74-3.93,6.85-3.19,7.71a3.14,3.14,0,0,0,1.68,1.28,1.74,1.74,0,0,0,2.34-1.49c.64-3.46,2.35-6.34,2.18-6.59A3.54,3.54,0,0,1,57.94,81.68Z"/><path class="cls-15" d="M56,70.74l-.91,2s-.67.31-.83.36c-.86.3-7.16-3.21-6.43-4.47S49.92,66,50.43,66c.06,0,.74-.08.74-.08S56.39,70.63,56,70.74Z"/><path class="cls-16" d="M56.83,70.38a4.73,4.73,0,0,0-1.08,1.09,7.65,7.65,0,0,0-.65,1.29c-.38.83-7.16-3.21-6.43-4.47s2.15-2.44,2.66-2.38S57.28,70.26,56.83,70.38Z"/><ellipse class="cls-17" cx="61.93" cy="75.14" rx="2.43" ry="2.69" transform="translate(-31.91 101.14) rotate(-65.99)"/><path class="cls-18" d="M71.59,58.16S90,54,97.76,54.4A381,381,0,0,1,135.07,63c-2.39,1.05-21.54,4.3-24.14,4.22S78,60.64,71.59,58.16Z"/><path class="cls-19" d="M105.91,64.1s7.65-2.42,8.39-2.49S101.51,58,101.51,58s-7.41,2.23-7.94,2.55S105.91,64.1,105.91,64.1Z"/><path class="cls-20" d="M47.26,97.11a11.76,11.76,0,0,1,.93-1.84,145.9,145.9,0,0,1,9.6-14.09c2.07-2.51,3.38-4.25,4.45-5.52a12.52,12.52,0,0,1,4.55-3.44,14,14,0,0,1,4.38-1.33,14.19,14.19,0,0,1,7.06,1.3C83.85,74.53,87,75.47,88,76.13c.92,1.07,4.41,7.42,3.6,11.8-.58,3.15-1.94,7.31-5,10.06s-16,16.37-19.93,15.69c-4.58-.8-15.91-4.45-18.62-7.77C45.63,102.94,46.07,100.09,47.26,97.11Z"/><path class="cls-21" d="M69.25,113.13c-2.72,0-6.08-.29-8-2.59-2.2-2.69-1.87-5.2-.7-8.13a11.77,11.77,0,0,1,.87-1.74,151.67,151.67,0,0,1,9.55-14c1.15-1.39,2.06-2.54,2.83-3.51.62-.78,1.14-1.44,1.62-2a12,12,0,0,1,4.31-3.26A13.55,13.55,0,0,1,84,76.61a11.33,11.33,0,0,1,1.3-.07,12,12,0,0,1,5.38,1.3,21.88,21.88,0,0,1,7,5.69l.35.4c2.94,3.37,4.18,6.39,3.71,9-.54,2.94-1.81,7-4.78,9.69S76.33,112.92,72.66,113l-.84,0C71,113.1,70.12,113.13,69.25,113.13Z"/><path d="M85.25,77.21a11.26,11.26,0,0,1,5.08,1.23A21.31,21.31,0,0,1,97.09,84l.23.28.12.14c2.8,3.2,4,6,3.56,8.4-.52,2.84-1.74,6.76-4.57,9.31s-20.31,10.17-23.79,10.28l-.85,0c-.83,0-1.68.06-2.54.06-2.73,0-5.75-.28-7.44-2.34-2-2.44-1.68-4.75-.6-7.46A11,11,0,0,1,62,101a147.61,147.61,0,0,1,9.49-13.94c1.15-1.38,2.08-2.56,2.83-3.51.61-.77,1.14-1.44,1.61-2A11.51,11.51,0,0,1,80,78.49a13.12,13.12,0,0,1,4-1.21,9.87,9.87,0,0,1,1.22-.07m0-1.34a10.39,10.39,0,0,0-1.37.08,13.7,13.7,0,0,0-4.38,1.32,12.75,12.75,0,0,0-4.56,3.44c-1.07,1.28-2.37,3-4.44,5.52a149.44,149.44,0,0,0-9.61,14.09,11.71,11.71,0,0,0-.92,1.84c-1.2,3-1.63,5.83.8,8.81,2,2.41,5.29,2.83,8.48,2.83,1.19,0,2.36-.06,3.44-.09,4-.13,21.59-7.88,24.64-10.63s4.41-6.9,5-10.06c.8-4.37-3.06-8.59-4-9.66a23.23,23.23,0,0,0-7.4-6.11,12.57,12.57,0,0,0-5.69-1.38Z"/><ellipse class="cls-22" cx="91.02" cy="92.84" rx="8.93" ry="7.13" transform="translate(-21.48 158.03) rotate(-75.66)"/><ellipse class="cls-22" cx="79.06" cy="102.89" rx="6.4" ry="5.11" transform="translate(-40.21 154.01) rotate(-75.66)"/><ellipse class="cls-22" cx="67.95" cy="105.25" rx="5.03" ry="4.02" transform="translate(-50.85 145.01) rotate(-75.66)"/><path class="cls-23" d="M57.79,81.18l3.88-2.47L59.88,86.1s8.16-8.8,8-8.4-3.26,5.82-3.26,5.82l4.67-2.88-3.18,5.82,4.86-2.76-1.68,3,2-1.29-9.46,9.22,2.88-5L59,93.87l3-6.11-4.8,3.95L59,84.64l-2.61,2.78,3.43-6-4,4.39Z"/><polygon class="cls-23" points="77.27 71.82 72.05 72.96 76.98 72.98 72.74 74.48 80.17 73.68 78.56 74.63 83.69 74.36 77.27 71.82"/><ellipse class="cls-24" cx="91.46" cy="92.96" rx="3.34" ry="2.43" transform="translate(-21.25 158.54) rotate(-75.66)"/><ellipse class="cls-24" cx="79.22" cy="103.2" rx="2.88" ry="2.09" transform="translate(-24.51 181.73) rotate(-89.62)"/><ellipse class="cls-24" cx="67.86" cy="105.58" rx="2.13" ry="1.55" transform="translate(-38.17 172.74) rotate(-89.62)"/><path class="cls-25" d="M135.3,63s-4.94,28.93-8.73,35.67c-2.54,1.32-18.79,4.62-23.49,3.54.22-3.4,6.23-32.9,8.07-35C113.22,66.24,127.66,63.38,135.3,63Z"/><path class="cls-24" d="M71.59,58.16S67.72,72.64,65.8,83.47c-.74,4.18,2.31,9.1,2.94,9.41,1.2,1.73,35.62,10.44,38,9.52a11.72,11.72,0,0,1-1.81-9.59c1.67-7.1,4.23-17,6.22-25.6C110,66.25,78,58.65,71.59,58.16Z"/><path class="cls-26" d="M98.12,54.46c-5.45-.82-26.53,3.7-26.53,3.7S65.44,81.83,65.8,83.47c-.11,1.81-.57,4,2.43,8.86.39,1.56,30.8,10.25,38.51,10.07"/><path class="cls-26" d="M111.32,57s23.11,5.32,24,6c0,0-3.76,20-4.23,21.13"/><path class="cls-27" d="M100.61,73.86,78,68.11a1.75,1.75,0,0,0-2.14,1.35L73.18,83.08a1.74,1.74,0,0,0,1.28,2l22.67,5.75a1.74,1.74,0,0,0,2.14-1.35l2.62-13.62A1.73,1.73,0,0,0,100.61,73.86Z"/><path class="cls-28" d="M100.83,74.6,78.14,68.79a1.36,1.36,0,0,0-1.67,1L73.81,83.53a1.36,1.36,0,0,0,1,1.57l22.68,5.84a1.35,1.35,0,0,0,1.67-1l2.67-13.72A1.36,1.36,0,0,0,100.83,74.6Z"/><path class="cls-29" d="M84.65,77.72l14,3.45a.87.87,0,0,0,1-.65l.75-4a.87.87,0,0,0-.65-1L85.8,72a.87.87,0,0,0-1,.65l-.76,4A.87.87,0,0,0,84.65,77.72Z"/><ellipse class="cls-30" cx="96.88" cy="77.76" rx="2.1" ry="1.68" transform="translate(0.13 155.69) rotate(-77.6)"/><ellipse class="cls-31" cx="91.96" cy="76.51" rx="2.1" ry="1.68" transform="translate(-2.51 149.89) rotate(-77.6)"/><ellipse class="cls-32" cx="87.1" cy="75.42" rx="2.1" ry="1.68" transform="translate(-5.27 144.29) rotate(-77.6)"/><path class="cls-33" d="M86.68,81.84l11,2.76a.91.91,0,0,0,1.09-.67h0a.91.91,0,0,0-.68-1.09l-11-2.76a.9.9,0,0,0-1.08.67h0A.9.9,0,0,0,86.68,81.84Z"/><path class="cls-34" d="M91.76,88.75l4.89,1.19a.9.9,0,0,0,1.09-.67h0a.91.91,0,0,0-.68-1.09L92.17,87a.91.91,0,0,0-1.09.68h0A.92.92,0,0,0,91.76,88.75Z"/><path class="cls-34" d="M92.24,86.25l4.9,1.2a.9.9,0,0,0,1.08-.68h0a.9.9,0,0,0-.67-1.08l-4.9-1.2a.92.92,0,0,0-1.09.68h0A.91.91,0,0,0,92.24,86.25Z"/><polygon class="cls-35" points="83.38 71.53 76.71 69.78 74 83.68 80.76 85.36 83.38 71.53"/><ellipse class="cls-36" cx="77.52" cy="71.62" rx="0.87" ry="0.75" transform="translate(-7.58 134.03) rotate(-78.99)"/><path class="cls-37" d="M77.69,70.76a2.6,2.6,0,0,0-.29,1.72"/><path class="cls-37" d="M78.26,71.76a3.11,3.11,0,0,1-1.48-.29"/><ellipse class="cls-38" cx="79.97" cy="83.95" rx="0.87" ry="0.75" transform="translate(-17.71 146.42) rotate(-78.99)"/><path class="cls-37" d="M80.14,83.1a2.67,2.67,0,0,0-.29,1.72"/><path class="cls-37" d="M80.71,84.1a3.25,3.25,0,0,1-1.48-.29"/><ellipse class="cls-39" cx="75.22" cy="82.73" rx="0.87" ry="0.75" transform="translate(-20.36 140.77) rotate(-78.99)"/><path class="cls-37" d="M75.39,81.88a2.6,2.6,0,0,0-.29,1.72"/><path class="cls-37" d="M76,82.88a3.25,3.25,0,0,1-1.48-.29"/><ellipse class="cls-40" cx="81.67" cy="72.63" rx="0.87" ry="0.75" transform="translate(-5.22 138.92) rotate(-78.99)"/><path class="cls-37" d="M81.83,71.77a2.62,2.62,0,0,0-.28,1.72"/><path class="cls-37" d="M82.41,72.77a3.11,3.11,0,0,1-1.48-.29"/><path class="cls-41" d="M98.78,83.93a7,7,0,0,0-3.73-.73c-1.92.26-1.69-1.37-2.53-1.51s-1.27,1-2.38.7-.65-.71-1.19-.81-.65.46-1.15.29-.4-1.78-.71-1.79"/><ellipse class="cls-42" cx="78.68" cy="58.16" rx="1.74" ry="0.67" transform="translate(-0.23 0.31) rotate(-0.23)"/><path class="cls-20" d="M89.09,112.58a12.71,12.71,0,0,1,.87-1.87A147.81,147.81,0,0,1,99.08,96.3c2-2.57,3.23-4.35,4.26-5.67A12.67,12.67,0,0,1,107.77,87a12.51,12.51,0,0,1,11.44-.41c5.69,2.15,8.82,3,9.89,3.61,1,1,4.66,7.26,4,11.66-.47,3.18-1.69,7.38-4.65,10.23S113,129,109.06,128.48c-4.6-.64-16-3.91-18.86-7.13C87.67,118.46,88,115.6,89.09,112.58Z"/><path class="cls-21" d="M110.61,127.87c-3.41,0-5.64-.75-7-2.34-2.29-2.62-2-5.13-1-8.1a11.59,11.59,0,0,1,.81-1.77,151.29,151.29,0,0,1,9.07-14.33c1.1-1.42,2-2.6,2.7-3.59.6-.8,1.1-1.49,1.56-2.07a12,12,0,0,1,4.2-3.41,13.65,13.65,0,0,1,4.13-1.4,10.6,10.6,0,0,1,1.69-.13,12,12,0,0,1,5,1.13A21.91,21.91,0,0,1,139,97.31l.36.39c3.05,3.26,4.4,6.24,4,8.84-.44,2.95-1.57,7.06-4.45,9.84s-20.18,11-23.85,11.26l-.84.06C113,127.78,111.81,127.87,110.61,127.87Z"/><path d="M126.76,91.4h0a11.31,11.31,0,0,1,4.75,1.07,21.28,21.28,0,0,1,6.94,5.28l.25.27.12.14c2.9,3.11,4.2,5.89,3.84,8.28-.43,2.85-1.51,6.81-4.25,9.45S118.45,126.74,115,127l-.85.06c-1.15.08-2.34.17-3.53.17-3.23,0-5.25-.65-6.52-2.11-2.08-2.37-1.85-4.69-.85-7.44A10.27,10.27,0,0,1,104,116a147.12,147.12,0,0,1,9-14.25q1.64-2.14,2.7-3.6c.59-.8,1.1-1.49,1.55-2.06a11.33,11.33,0,0,1,4-3.21,12.68,12.68,0,0,1,3.94-1.35,10.54,10.54,0,0,1,1.59-.12m0-1.34a11.75,11.75,0,0,0-1.78.13,14.26,14.26,0,0,0-4.34,1.47,12.76,12.76,0,0,0-4.43,3.59c-1,1.32-2.28,3.1-4.26,5.67a147.81,147.81,0,0,0-9.12,14.41,11.71,11.71,0,0,0-.86,1.87c-1.09,3-1.43,5.88,1.1,8.77,1.83,2.1,4.68,2.57,7.53,2.57,1.54,0,3.08-.14,4.47-.23,4-.26,21.31-8.6,24.27-11.45s4.17-7,4.64-10.23c.66-4.4-3.34-8.48-4.3-9.52a23.19,23.19,0,0,0-7.6-5.86,12.63,12.63,0,0,0-5.32-1.19Z"/><ellipse class="cls-22" cx="132.68" cy="106.84" rx="8.93" ry="7.13" transform="translate(-0.16 213.48) rotate(-77.6)"/><ellipse class="cls-22" cx="121.08" cy="117.29" rx="6.4" ry="5.11" transform="translate(-19.48 210.34) rotate(-77.6)"/><ellipse class="cls-22" cx="110.05" cy="120.02" rx="5.03" ry="4.02" transform="translate(-30.8 201.72) rotate(-77.6)"/><path class="cls-23" d="M99.08,96.3l3.8-2.6-1.55,7.45s7.86-9.07,7.68-8.66-3.07,5.92-3.07,5.92l4.57-3-3,5.93,4.77-2.93-1.58,3,1.92-1.36-9.15,9.53,2.71-5.13L100.72,109l2.83-6.21-4.66,4.11,1.47-7.13-2.51,2.87,3.23-6.12L97.24,101Z"/><polygon class="cls-23" points="118.24 86.29 113.06 87.61 117.98 87.46 113.8 89.11 121.2 88.05 119.62 89.05 124.74 88.61 118.24 86.29"/><ellipse class="cls-24" cx="133.13" cy="106.94" rx="3.34" ry="2.43" transform="translate(0.09 213.99) rotate(-77.6)"/><ellipse class="cls-24" cx="121.24" cy="117.59" rx="2.09" ry="2.88" transform="translate(-3.15 3.33) rotate(-1.56)"/><ellipse class="cls-24" cx="109.98" cy="120.35" rx="1.55" ry="2.13" transform="translate(-3.23 3.03) rotate(-1.56)"/><path class="cls-43" d="M108.76,112.81s1.57-2,4.75-.2c.92-1.32,3-5,9-3.29,0-1.41-1.21-7.71,4.47-12.51-1.62-1.15-2.61-1.91-5.43.41S108.65,112.08,108.76,112.81Z"/><path class="cls-13" d="M106.32,90.48l14-18.35c2.28-3.2,4.43-5,7.65-3h0c2.92,2.27,2.12,4.08.49,7.35L117.75,98.68a6.89,6.89,0,0,1-9.46,2.24h0C105.07,98.94,104.34,93.69,106.32,90.48Z"/><path class="cls-14" d="M107.37,89.06l14.22-19.34c2.28-3.19,9.77,1,8.14,4.31L119.07,96.28a6.9,6.9,0,0,1-9.46,2.24h0A6.89,6.89,0,0,1,107.37,89.06Z"/><path class="cls-15" d="M107,97.24a4,4,0,0,1-1-2.89c-2.87.8-9.46,3.71-9.68,4.82a8.18,8.18,0,0,0,.7,3.33,1.72,1.72,0,0,0,2.62.92c2.86-2.06,7.17-5.36,7.17-5.36Z"/><path class="cls-16" d="M105.92,94.3c-2.86.79-9.56,2.85-9.78,4a9.16,9.16,0,0,0,.48,3.34,1.7,1.7,0,0,0,2.62.92c2.86-2.06,7.73-5,7.82-5.3A3.57,3.57,0,0,1,105.92,94.3Z"/><path class="cls-15" d="M110.56,100.15A4,4,0,0,1,108,98.49c-1.8,2.36-5.29,8.66-4.79,9.69a8.06,8.06,0,0,0,2.57,2.22,1.71,1.71,0,0,0,2.64-.85c1-3.36,2.47-8.61,2.47-8.61Z"/><path class="cls-16" d="M108,98.45c-1.8,2.36-5.89,8-5.39,9.08a9,9,0,0,0,2.41,2.36,1.69,1.69,0,0,0,2.64-.85c1-3.37,3.12-8.67,3-9A3.53,3.53,0,0,1,108,98.45Z"/><path class="cls-15" d="M115.63,99.62a4,4,0,0,1-3,.46c.22,3,.43,7.94,1.48,8.37a2.84,2.84,0,0,0,2.11.18,1.77,1.77,0,0,0,1.41-2.39,29.63,29.63,0,0,1-1.21-6.24Z"/><path class="cls-16" d="M112.54,100.07c.22,3-.41,7.88.64,8.32a3.1,3.1,0,0,0,2.07.38,1.74,1.74,0,0,0,1.42-2.38c-1-3.38-.77-6.72-1-6.86A3.58,3.58,0,0,1,112.54,100.07Z"/><path class="cls-15" d="M105.89,91.17l.1,2.22s-.46.58-.58.7c-.63.65-7.83.36-7.75-1.09s.63-3.35,1.11-3.52c.06,0,.62-.42.62-.42S106.18,90.9,105.89,91.17Z"/><path class="cls-16" d="M106.46,90.48a4.58,4.58,0,0,0-.47,1.46,7.55,7.55,0,0,0,0,1.45c0,.91-7.84.37-7.76-1.09s.82-3.15,1.3-3.32S106.8,90.17,106.46,90.48Z"/><ellipse class="cls-17" cx="113.16" cy="92.43" rx="2.69" ry="2.43" transform="translate(-4.39 5.65) rotate(-2.8)"/><path class="cls-44" d="M113,55a2.3,2.3,0,0,1-2.09,2.45v0L101,57.25l.11-5,9.92.22A2.31,2.31,0,0,1,113,55Z"/><path class="cls-45" d="M111.18,40.41l0,.26h0c0-.08,0-.17,0-.26m-1.62-12.55h0M136,20.79a6.79,6.79,0,0,1,1.84,1.36h0l4.5,5.21a2.43,2.43,0,0,0-.7-.5,2.25,2.25,0,0,0-.64-.18c-10.59-1.28-21,.19-25.42.67a2.53,2.53,0,0,0-2.11,1.85c-1,3.27-1,8-1,11.21l-1.26-.19a32.15,32.15,0,0,1,1.45-12.28h0v-.06h0v-.06h0l-3.86-4.39v-.05h-1.1c0-.15.08-.3.13-.44A2.54,2.54,0,0,1,109.83,21a116.4,116.4,0,0,1,25.26-.5,2.92,2.92,0,0,1,.88.25"/><path class="cls-46" d="M112.15,40.7l2,1.64a2.91,2.91,0,0,0,.31.3l-1.71,11-8.4.67.26-4.75.13-5.8L107,43a3.19,3.19,0,0,0,2-2.25c0-.07,0-.14,0-.21v.06l.42,0,2.06.11.58.09V40.7M112,39.38l.15,1.26h0c0-.16-.1-.59-.16-1.26h0"/><path class="cls-47" d="M104.08,55.3l0,0h0v0m7.13-14.63,0,.17h0c0-.05,0-.11,0-.17h0"/><path class="cls-25" d="M104.3,54.67v.06h0v0m.34-10.84-.17,7.45c-.24-1.94-1.08-3.45-2.08-3.91a1.86,1.86,0,0,0-.46-.13c-1-.11-2.59,2.72-3.21,4.17l-.49-5.58c1.9-.56,4-1.21,6.31-2"/><path class="cls-47" d="M98.46,46.83,99,52.17l-.09.22-.58-5.52.15,0"/><polygon class="cls-46" points="112.7 56.12 103.72 57.16 104.29 63.45 113.06 61.21 112.7 56.12"/><path class="cls-48" d="M98.48,53.71,95.18,61l9.06,2.45-.56-6.29c-.55.74-1.84,2-2.51,1.88a1.32,1.32,0,0,1-.47-.13C99.68,58.44,98.48,53.71,98.48,53.71Z"/><path class="cls-24" d="M109.56,27.87v0l0,0h0m3,.07a32.15,32.15,0,0,0-1.45,12.28h0l0,.19c0,.09,0,.18,0,.26s0,.12,0,.17c.06.62.12,1,.14,1.17a10.72,10.72,0,0,0-2.82-.15,65,65,0,0,0,1.68-11.67A3.44,3.44,0,0,0,109.6,28l3,0m0-.06h0"/><path class="cls-49" d="M112.63,27.88h0m-3.91-4.45,3.86,4.39-3,0v0h0a3.42,3.42,0,0,0-.36-.4h0l-3.58-4,3.13,0v-.06"/><path class="cls-50" d="M101,56.46a.76.76,0,0,0,.2.06c.72.07,1.37-1.25,1.45-2.94.07-1.54-.35-2.85-1-3.14a.59.59,0,0,0-.19,0c-.72-.07-1.37,1.25-1.45,2.94-.07,1.53.35,2.85,1,3.13m1.47-9.31c1,.48,1.8,2.05,2,4.07a11.65,11.65,0,0,1-.08,3.51v.05l0,.21a8.45,8.45,0,0,1-1.06,2.88h0c-.06.1-.13.2-.19.28a2.22,2.22,0,0,1-1.95,1.11,1.33,1.33,0,0,1-.48-.14c-1.06-.49-1.85-2.14-2.08-4.25a1.94,1.94,0,0,1,0-.24,12.49,12.49,0,0,1,0-1.84,10.92,10.92,0,0,1,.68-3.23l.1-.25c.64-1.5,1.6-2.42,2.61-2.3a1.43,1.43,0,0,1,.49.13"/><path class="cls-51" d="M101.69,50.12c.68.31,1.14,1.76,1.07,3.46-.09,1.87-.81,3.32-1.61,3.25a.83.83,0,0,1-.21-.06c-.68-.31-1.15-1.77-1.07-3.47.09-1.87.81-3.32,1.6-3.24a.43.43,0,0,1,.22.06"/><path class="cls-45" d="M102.88,20.79a3.06,3.06,0,0,1,1.23,1l1.37,1.53h0v.11h.11l3.58,4a2.81,2.81,0,0,0-.82-.55,2.53,2.53,0,0,0-.69-.22,145.45,145.45,0,0,0-26.49-1.38A2.84,2.84,0,0,0,78.6,27.4a42.11,42.11,0,0,0-2.54,18.31,3.83,3.83,0,0,0,1.15,2.58v0c-2.16-2.45-6.41-5.77-6.65-9.16-.42-5.73.9-12.38,2.58-17.87a2.83,2.83,0,0,1,2.57-2.09,145.56,145.56,0,0,1,26.49,1.38,2.78,2.78,0,0,1,.69.22"/><path class="cls-52" d="M95.36,43.46a6.18,6.18,0,0,0,2.4.58c3.81.11,6.86-3.39,6.82-7.82A8.44,8.44,0,0,0,100,28.57a6.26,6.26,0,0,0-2.4-.57c-3.8-.11-6.85,3.38-6.81,7.81a8.41,8.41,0,0,0,4.54,7.65m12.27-14.55a1.07,1.07,0,0,1,.59,1,64.74,64.74,0,0,1-1.68,11.5.92.92,0,0,1-.59.66c-15.74,5.44-23.47,5.22-27,4.75a.79.79,0,0,1-.22-.06,1.34,1.34,0,0,1-.63-1.17,38.1,38.1,0,0,1,2-16.13c.15-.47.3-.92.43-1.35a.91.91,0,0,1,.81-.66,147,147,0,0,1,26.09,1.35l.22.07"/><path class="cls-53" d="M78.69,46.8a.79.79,0,0,0,.22.06c3.57.47,11.3.69,27-4.75a.92.92,0,0,0,.59-.66A64.74,64.74,0,0,0,108.22,30a1.07,1.07,0,0,0-.59-1l-.22-.07a147,147,0,0,0-26.09-1.35.91.91,0,0,0-.81.66c-.13.43-.28.88-.43,1.35a38.1,38.1,0,0,0-2,16.13,1.34,1.34,0,0,0,.63,1.17m29.66-19.89a2.81,2.81,0,0,1,.82.55,3.42,3.42,0,0,1,.36.4h0l0,0V28h0a3.44,3.44,0,0,1,.62,2.23,65,65,0,0,1-1.68,11.67h0v.06h0c0,.06,0,.12,0,.19a2.92,2.92,0,0,1-1.85,2.09l-2.15.73-.15,0c-2.15.72-4.09,1.33-5.86,1.85l-.15,0c-9.06,2.65-16,2.62-19.56,2.16A2.66,2.66,0,0,1,78,48.8a2.69,2.69,0,0,1-.75-.51,3.83,3.83,0,0,1-1.15-2.58A42.11,42.11,0,0,1,78.6,27.4a2.84,2.84,0,0,1,2.57-2.09,145.45,145.45,0,0,1,26.49,1.38,2.53,2.53,0,0,1,.69.22"/><path class="cls-54" d="M102.9,36.17a6.57,6.57,0,0,1-1.53,4.38,4.58,4.58,0,0,1-3.62,1.65A4.64,4.64,0,0,1,96,41.78a6.56,6.56,0,0,1-3.47-5.92c0-3.41,2.28-6.11,5.15-6a4.48,4.48,0,0,1,1.78.43A6.53,6.53,0,0,1,102.9,36.17Z"/><path class="cls-54" d="M130.29,37.61a7,7,0,0,1-1.64,4.69,4.83,4.83,0,0,1-5.79,1.33,7,7,0,0,1-3.73-6.36c0-3.66,2.45-6.56,5.53-6.46a4.69,4.69,0,0,1,1.9.45A7,7,0,0,1,130.29,37.61Z"/><path class="cls-55" d="M96,41.78a4.64,4.64,0,0,0,1.78.42,4.59,4.59,0,0,0,3.62-1.65,6.87,6.87,0,0,0-1.94-10.29,4.48,4.48,0,0,0-1.78-.43c-2.87-.08-5.18,2.62-5.15,6A6.56,6.56,0,0,0,96,41.78M100,28.57a8.44,8.44,0,0,1,4.55,7.65c0,4.43-3,7.93-6.82,7.82a6.18,6.18,0,0,1-2.4-.58,8.41,8.41,0,0,1-4.54-7.65c0-4.43,3-7.92,6.81-7.81a6.26,6.26,0,0,1,2.4.57"/><path class="cls-45" d="M112.42,40.41v.82a3.57,3.57,0,0,0,.79,2.35l-1.84-1.51V42h0l-.14-1.17,0-.17,0-.26,0-.19h0l1.26.19"/><path class="cls-52" d="M122.23,45.09a6.47,6.47,0,0,0,1.85.54c3.9.51,7.33-2.75,7.68-7.27a8.65,8.65,0,0,0-4.57-8.57,6.45,6.45,0,0,0-1.85-.53c-3.89-.51-7.33,2.74-7.68,7.26a8.65,8.65,0,0,0,4.57,8.57m18.66-16.22c.08,0,.34.31.55,1.13,1.22,4.65.54,10.69-.69,17.45a5.62,5.62,0,0,1-1,.09l-.93,0c-4.74.2-11.49.42-23.81-5.26l-.2-.09c-.26-.12-.35-.57-.35-.91v-.7c0-3.06,0-7.68.92-10.66a.58.58,0,0,1,.49-.43c.83-.09,1.77-.23,2.85-.38a93.23,93.23,0,0,1,22.14-.3l.06,0"/><path class="cls-53" d="M115,42.32c6.6,4.12,16.68,5.38,24.3,5.26,1.16,0,1.46-1.7,1.68-2.58a22.68,22.68,0,0,0,1-5.73,41.27,41.27,0,0,0-.78-10.08c-.2-.74-2-.52-2.67-.58-1.08-.09-2.17-.16-3.25-.21-2.15-.09-4.31-.1-6.46,0a86.85,86.85,0,0,0-10.07.79c-1.08.15-2,.29-2.85.38a.58.58,0,0,0-.49.43c-.91,3-.92,7.6-.92,10.66v.7c0,.34.09.79.35.91l.2.09m26.64-15.46a2.43,2.43,0,0,1,.7.5,4.83,4.83,0,0,1,1.05,2.11A32.79,32.79,0,0,1,142.13,48a2.92,2.92,0,0,1-2.26,1.78c-5.19,1-19.3-.41-25.61-5.4a1.86,1.86,0,0,0-.2-.1,2.86,2.86,0,0,1-.42-.24l-.15-.12a1.92,1.92,0,0,1-.28-.29,3.57,3.57,0,0,1-.79-2.35v-.82c0-3.23,0-7.94,1-11.21a2.53,2.53,0,0,1,2.11-1.85c4.4-.48,14.83-2,25.42-.67a2.25,2.25,0,0,1,.64.18"/><path class="cls-55" d="M122.85,43.36a4.75,4.75,0,0,0,1.38.4c2.93.38,5.54-2.14,5.81-5.62a6.68,6.68,0,0,0-3.47-6.61,4.48,4.48,0,0,0-1.37-.4,4.68,4.68,0,0,0-3.87,1.32,6.56,6.56,0,0,0-1.94,4.3,6.67,6.67,0,0,0,3.46,6.61m4.34-13.57a8.65,8.65,0,0,1,4.57,8.57c-.35,4.52-3.78,7.78-7.68,7.27a6.47,6.47,0,0,1-1.85-.54,8.65,8.65,0,0,1-4.57-8.57c.35-4.52,3.79-7.77,7.68-7.26a6.45,6.45,0,0,1,1.85.53"/><path class="cls-56" d="M128.19,34.46a3,3,0,0,1,1.49,3c-.09,1.59-1.12,2.78-2.35,2.64a2,2,0,0,1-.58-.16,3.09,3.09,0,0,1-1.54-3c.11-1.79,1-2.8,2.41-2.63a1.85,1.85,0,0,1,.57.15"/><path class="cls-56" d="M100.68,33.25a3,3,0,0,1,1.5,3c-.1,1.59-1.12,2.78-2.36,2.64a1.86,1.86,0,0,1-.57-.16,3.08,3.08,0,0,1-1.55-3c.11-1.78,1-2.8,2.42-2.63a1.63,1.63,0,0,1,.56.16"/><path class="cls-57" d="M108.52,41.92h0m2.31.12-1.92-.1a10.11,10.11,0,0,1,1.92.1"/><path class="cls-57" d="M111.38,42v.11l-.53-.08a10.11,10.11,0,0,0-1.92-.1c-.13,0-.26,0-.38,0v0h0v-.06h0a10.72,10.72,0,0,1,2.82.15h0"/><polyline class="cls-58" points="112.63 27.82 112.63 27.88 112.63 27.88 112.63 27.88 112.63 27.94 112.61 27.94 109.6 27.95 109.56 27.95 109.56 27.9 109.56 27.87 109.56 27.86 109.56 27.84 112.58 27.82 112.63 27.82"/><polyline class="cls-58" points="108.72 23.38 108.72 23.43 108.72 23.49 105.59 23.46 105.48 23.46 105.48 23.35 105.48 23.35 107.62 23.37 108.72 23.38"/><g class="cls-59"><polygon points="208.51 104.61 200.24 102.95 200.09 102.78 198.2 102.4 181.69 83.54 163.61 147.11 158.77 150.58 153.88 147.26 175.14 64.77 136.76 60.02 130.93 51.22 141 44.08 141.1 44.09 142.17 43.34 178.56 51.56 181.41 40.5 188.16 38.19 192.85 43.57 185.41 70.23 205.43 91.9 208.51 104.61"/></g><polygon class="cls-12" points="158.77 150.58 153.88 147.26 152.85 37.93 158.77 33.95 158.77 150.58"/><polygon class="cls-6" points="163.61 147.11 158.77 150.75 158.77 34.12 164.69 38.1 163.61 147.11"/><polygon class="cls-60" points="156.41 49.38 156.43 61.82 155.5 62.84 114.78 68.53 106.88 61.55 114.75 52.03 156.41 49.38"/><polygon class="cls-61" points="156.41 49.38 156.43 61.82 115.72 67.52 107.81 60.53 115.69 51.02 156.41 49.38"/><polygon class="cls-62" points="189.37 81.52 195.64 92.99 187.22 93.53 162.79 77.19 160.98 64.94 163.09 64.94 189.37 81.52"/><polygon class="cls-63" points="187.26 81.52 193.53 92.99 185.11 93.53 160.68 77.19 160.93 64.94 187.26 81.52"/><path class="cls-12" d="M167,72.13a1,1,0,0,0-.48.62A1,1,0,0,0,166.9,74l.5.34-1.28,3.6c-.12.34.11.71.68,1.1a1.45,1.45,0,0,0,.73.31.33.33,0,0,0,.31-.25l1.28-3.59.85.58c.23,0,.43-.2.56-.57a1,1,0,0,0-.3-1.22L167,72.13Z"/><path class="cls-12" d="M172.38,79.3a.64.64,0,0,1-.36-.13l-.14-.1.55-1.54a1,1,0,0,1,.47,1.22c-.13.36-.3.54-.52.55Zm-.93-4c-.24,0-.4.15-.5.44l-1.57,4.4c-.12.34.1.71.68,1.1a1.46,1.46,0,0,0,.72.31.35.35,0,0,0,.32-.25l.36-1c.1.07.21.16.34.24a4.54,4.54,0,0,0,0,1.61,1.53,1.53,0,0,0,.65.75,1.19,1.19,0,0,0,.63.24.51.51,0,0,0,.21-.06.38.38,0,0,0,.24-.22l0-1.88a1.66,1.66,0,0,0,1-1.15,2.65,2.65,0,0,0,0-2,3.69,3.69,0,0,0-1.5-1.77,4.63,4.63,0,0,0-1.44-.76Z"/><path class="cls-12" d="M176.66,83l-.65-.44c.12-.22.25-.49.41-.81s.23-.47.28-.55.21-.35.27-.35h0c.08.05.08.24,0,.54l-.14.65c-.08.34-.15.66-.21.95Zm0-4.07a.84.84,0,0,0-.64.35,37,37,0,0,0-2.4,3.84.58.58,0,0,0,0,.31,1.24,1.24,0,0,0,.53.66,1.06,1.06,0,0,0,.58.22.66.66,0,0,0,.55-.44l.1-.18.95.65,0,.23a1.42,1.42,0,0,0,0,.75,1.44,1.44,0,0,0,.56.62,1.21,1.21,0,0,0,.68.26c.21,0,.37-.14.46-.4a19.28,19.28,0,0,0,.72-4.66,2,2,0,0,0-1.07-1.82,2,2,0,0,0-1-.39Zm1.5-1.48c-.55,0-.88.18-1,.47a.84.84,0,0,0,.1.85,4.34,4.34,0,0,0,.89.38,2,2,0,0,0,.54.08.59.59,0,0,0,.6-.4,1.13,1.13,0,0,0-.07-1,1.33,1.33,0,0,0-.3-.38,5,5,0,0,0-.78,0Z"/><path class="cls-12" d="M180.43,81.4a.3.3,0,0,0-.3.24l-1.66,4.67c-.13.35.1.72.67,1.1a1.45,1.45,0,0,0,.73.31.32.32,0,0,0,.31-.25l1.67-4.67c.12-.34-.11-.7-.69-1.09a1.45,1.45,0,0,0-.73-.31Z"/><path class="cls-12" d="M124,56.7c0-.42.37-.65,1.18-.71s1.23.13,1.26.55l0,.32a1.28,1.28,0,0,1,1.35-1c1.31-.09,2,.92,2.19,3a3.7,3.7,0,0,1-.62,2.61,2.29,2.29,0,0,1-1.74.9,1.92,1.92,0,0,1-.81-.09l.07,1.13c0,.41-.36.63-1.17.69s-1.24-.12-1.27-.52Zm3.43,1.4a.71.71,0,0,0-.62-.22.6.6,0,0,0-.27.06l.2,3a.71.71,0,0,0,.78-.48,2.8,2.8,0,0,0,.18-1.29A2.28,2.28,0,0,0,127.46,58.1Z"/><path class="cls-12" d="M133,56.28a1.31,1.31,0,0,1,1.32-.91c1.24-.08,1.92.66,2,2.25l.24,3.5c0,.42-.36.66-1.18.71s-1.23-.12-1.26-.54l-.22-3.22a.9.9,0,0,0-.15-.53.61.61,0,0,0-.47-.1,1,1,0,0,0-.23.05l.27,3.85c0,.42-.37.66-1.18.71s-1.23-.12-1.26-.54l-.49-7.2c0-.41.36-.64,1.16-.69s1.25.11,1.28.52Z"/><path class="cls-12" d="M140.32,61a2.16,2.16,0,0,1-2.7.21,1.51,1.51,0,0,1-.52-1.09,1.36,1.36,0,0,1,.51-1.27,4.64,4.64,0,0,1,2.34-.61l0-.59c0-.35-.22-.51-.58-.49a1.9,1.9,0,0,0-.71.24,2.07,2.07,0,0,1-.72.24c-.64,0-1-.28-1-1a1.76,1.76,0,0,1,.14-.94,5.84,5.84,0,0,1,2.37-.7,3.34,3.34,0,0,1,2.07.35,2.36,2.36,0,0,1,.83,1.9c0,.34,0,.78,0,1.31a9,9,0,0,0,0,1c0,.2.18.28.5.22a1.3,1.3,0,0,1,.12.77c-.07.53-.51.81-1.29.87A1.49,1.49,0,0,1,140.32,61Zm-.09-8.76a1.14,1.14,0,0,1,.34.8,1.07,1.07,0,0,1-.33.87,1.47,1.47,0,0,1-1,.46c-.09,0-.17,0-.2-.07a.19.19,0,0,1,0-.19.93.93,0,0,0,.52-.84c0-.38-.33-.48-.9-.26a.5.5,0,0,1-.19-.37c0-.41.27-.64.89-.68A1.15,1.15,0,0,1,140.23,52.24Zm-1.14,7.6c0,.29.18.42.49.4a.61.61,0,0,0,.41-.19V60c0-.15,0-.38,0-.67a5.47,5.47,0,0,0-.83.18A.8.8,0,0,0,139.09,59.84Z"/><path class="cls-12" d="M142.83,53.43c-.05-.75.37-1.15,1.25-1.21s1.35.28,1.4,1-.36,1.14-1.25,1.2S142.88,54.16,142.83,53.43Zm3,7c0,.42-.36.66-1.18.72s-1.23-.13-1.26-.55l-.35-5.12c0-.41.37-.63,1.17-.69s1.24.11,1.27.52Z"/></svg>