<svg id="Layer_1" data-name="Layer 1" xmlns="http://www.w3.org/2000/svg" xmlns:xlink="http://www.w3.org/1999/xlink" viewBox="0 0 300 200"><defs><style>.cls-1,.cls-17,.cls-37,.cls-41,.cls-48,.cls-52,.cls-56{fill:none;}.cls-2{fill:#00b1ff;}.cls-3{fill:#e2e2e2;}.cls-4{fill:#fdfeff;}.cls-5{fill:#41b9fa;}.cls-6{fill:#c4c4c4;}.cls-7{fill:#e5e5e5;}.cls-8{fill:#626c72;}.cls-9{fill:#96a5b3;}.cls-10{fill:#2f3e4a;}.cls-11{fill:#222d35;}.cls-12{fill:#212121;}.cls-13,.cls-21,.cls-22{fill:#4d4d4d;}.cls-14,.cls-16{fill:#b3b3b3;}.cls-15{fill:#d3161d;}.cls-16{stroke:#080000;stroke-width:0.19px;}.cls-16,.cls-17,.cls-18,.cls-19,.cls-20,.cls-21,.cls-22,.cls-36,.cls-37,.cls-38,.cls-39,.cls-40,.cls-41,.cls-43,.cls-45,.cls-47,.cls-48,.cls-52,.cls-56{stroke-miterlimit:10;}.cls-17,.cls-42,.cls-44,.cls-52{stroke:#000;}.cls-17{stroke-width:0.38px;}.cls-18{fill:#77401b;}.cls-18,.cls-41,.cls-45,.cls-47{stroke:#070707;}.cls-18,.cls-19{stroke-width:0.21px;}.cls-19,.cls-25{fill:#f8c946;}.cls-19{stroke:#020202;}.cls-20,.cls-53{fill:#282828;}.cls-20,.cls-21,.cls-22{stroke:#151616;}.cls-20,.cls-21{stroke-width:0.17px;}.cls-22{stroke-width:0.62px;}.cls-23,.cls-47{fill:#945320;}.cls-24{fill:#070707;}.cls-26{fill:#683919;}.cls-27{fill:#7f1119;}.cls-28{fill:#5e0e18;}.cls-29{fill:#352f49;}.cls-30{fill:#e41e00;}.cls-31{fill:#fffe28;}.cls-32{fill:#18ff08;}.cls-33{fill:#dbdddd;}.cls-34{fill:#0fb0db;}.cls-35{fill:#303435;}.cls-36,.cls-37,.cls-38,.cls-39,.cls-40,.cls-43,.cls-48,.cls-56{stroke:#0a0a0a;}.cls-36,.cls-37,.cls-38,.cls-39,.cls-40{stroke-width:0.06px;}.cls-36{fill:url(#radial-gradient);}.cls-38{fill:url(#radial-gradient-2);}.cls-39{fill:url(#radial-gradient-3);}.cls-40{fill:url(#radial-gradient-4);}.cls-41{stroke-width:0.08px;}.cls-42{fill:#515051;stroke-width:0.16px;}.cls-42,.cls-44{stroke-linejoin:round;}.cls-43,.cls-46{fill:#161616;}.cls-43,.cls-44,.cls-45,.cls-47,.cls-48,.cls-52{stroke-width:0.14px;}.cls-44{fill:#8e8a8b;}.cls-45{fill:#e2b647;}.cls-49{fill:#dddbd7;}.cls-50{fill:#232323;}.cls-51{fill:#3a3a3a;}.cls-54{fill:#7c7c7c;}.cls-55{fill:#666;}.cls-56{stroke-width:0.06px;}.cls-57{fill:#389cce;}.cls-58{fill:#5b5b5b;}.cls-59{fill:#a8a8a8;}.cls-60{fill:#383838;}.cls-61{fill:#4c4c4c;}.cls-62,.cls-69{fill:#fff;}.cls-63{fill:#23637c;}.cls-64{opacity:0.29;}.cls-65{fill:#734c2b;}.cls-66{fill:#ea4e1b;}.cls-67{fill:#e0e0e0;}.cls-68{fill:#3e2119;}.cls-69{opacity:0.15;}.cls-70{opacity:0.7;}.cls-71{fill:#e78d00;}.cls-72{fill:#facb03;}.cls-73{fill:#ccc;}.cls-74{fill:#fefefe;}.cls-75{fill:#f7b808;}.cls-76{fill:#703500;}.cls-77{fill:#220b00;}.cls-78{opacity:0.8;}.cls-79{clip-path:url(#clip-path);}.cls-80{clip-path:url(#clip-path-2);}.cls-81{clip-path:url(#clip-path-3);}.cls-82{clip-path:url(#clip-path-4);}</style><radialGradient id="radial-gradient" cx="869" cy="5455.92" r="2.52" gradientTransform="matrix(0, -0.4, -0.4, 0, 2370.8, 409.94)" gradientUnits="userSpaceOnUse"><stop offset="0.2" stop-color="#666"/><stop offset="0.57" stop-color="#585858"/><stop offset="1" stop-color="#4d4d4d"/></radialGradient><radialGradient id="radial-gradient-2" cx="858.79" cy="5480.86" r="2.52" gradientTransform="matrix(0, -0.4, -0.4, 0, 2383.4, 416.25)" xlink:href="#radial-gradient"/><radialGradient id="radial-gradient-3" cx="869.28" cy="5480.24" r="2.52" gradientTransform="matrix(0, -0.4, -0.4, 0, 2379.05, 419.62)" xlink:href="#radial-gradient"/><radialGradient id="radial-gradient-4" cx="859.86" cy="5456.35" r="2.52" gradientTransform="matrix(0, -0.4, -0.4, 0, 2374.54, 406.97)" xlink:href="#radial-gradient"/><clipPath id="clip-path"><rect class="cls-1" x="114.46" y="141.75" width="4.01" height="4.01"/></clipPath><clipPath id="clip-path-2"><rect class="cls-1" x="114.46" y="141.75" width="4.01" height="4.01"/></clipPath><clipPath id="clip-path-3"><rect class="cls-1" x="117.82" y="145.79" width="15.6" height="11.48"/></clipPath><clipPath id="clip-path-4"><rect class="cls-1" x="117.82" y="145.79" width="15.58" height="11.48"/></clipPath></defs><title>compare-locked</title><path class="cls-2" d="M26.28,192.56c-10.87,0-19.72-9.61-19.72-21.42V28.64c0-11.82,8.85-21.43,19.72-21.43H273.65c10.87,0,19.71,9.61,19.71,21.43v142.5c0,11.81-8.84,21.42-19.71,21.42Z"/><path class="cls-3" d="M273.64,10.28c9.32,0,16.9,8.23,16.9,18.36v142.5c0,10.12-7.58,18.36-16.9,18.36H26.28c-9.32,0-16.9-8.24-16.9-18.36V28.64c0-10.13,7.58-18.36,16.9-18.36H273.64m0-6.13H26.28c-12.43,0-22.54,11-22.54,24.49v142.5c0,13.5,10.11,24.49,22.54,24.49H273.64c12.43,0,22.54-11,22.54-24.49V28.64c0-13.51-10.11-24.49-22.54-24.49"/><path class="cls-4" d="M273.65,1.24H26.28c-13.87,0-25.22,12.33-25.22,27.4v142.5c0,15.07,11.35,27.4,25.22,27.4H273.65c13.86,0,25.21-12.33,25.21-27.4V28.64c0-15.07-11.35-27.4-25.21-27.4m19.85,169.9a22.4,22.4,0,0,1-5.83,15.23,19,19,0,0,1-14,6.35H26.28a19,19,0,0,1-14-6.35,22.36,22.36,0,0,1-5.84-15.23V28.64A22.37,22.37,0,0,1,12.26,13.4a18.94,18.94,0,0,1,14-6.34H273.65a19,19,0,0,1,14,6.34,22.41,22.41,0,0,1,5.83,15.24Z"/><path class="cls-5" d="M30.73,8a3.52,3.52,0,0,1-.13.43Z"/><path class="cls-6" d="M31.76,4.7,30.73,8l-.13.43h0a2.74,2.74,0,0,1-2.51,1.81h-1.9C17,10.22,9.48,18.35,9.48,28.37v2.07a2.92,2.92,0,0,1-2,2.86h0L4,34.62l1-1.89a1.89,1.89,0,0,1-.2-.2A3.1,3.1,0,0,1,4,30.44V26.5C4,14.23,13.17,4.29,24.47,4.29h3.62A2.71,2.71,0,0,1,30.4,5.68Z"/><path class="cls-7" d="M31.94,3.52h0A3.39,3.39,0,0,1,28.7,7.05H26.44c-11,0-19.88,9.67-19.88,21.6V31.1a3.38,3.38,0,0,1-3.24,3.52A3.38,3.38,0,0,1,.08,31.1V26.42C.08,11.83,11,0,24.39,0H28.7a3.39,3.39,0,0,1,3.24,3.52"/><path class="cls-8" d="M3.25,29.4a1.91,1.91,0,0,1,0,3.81,1.91,1.91,0,0,1,0-3.81"/><path class="cls-9" d="M3.25,29.6a1.71,1.71,0,0,1,0,3.41,1.71,1.71,0,0,1,0-3.41"/><polygon class="cls-10" points="4.21 30.7 4.21 31.91 3.25 32.5 2.31 31.91 2.31 30.7 3.25 30.11 4.21 30.7"/><path class="cls-11" d="M4.21,30.7v.55a1.31,1.31,0,0,0-1-.47,1.2,1.2,0,0,0-.95.47V30.7l.94-.59Z"/><path class="cls-8" d="M28.85,1.58A1.84,1.84,0,0,1,30.6,3.49a1.76,1.76,0,1,1-3.5,0,1.84,1.84,0,0,1,1.75-1.91"/><path class="cls-9" d="M28.85,1.79a1.63,1.63,0,0,1,1.56,1.7,1.57,1.57,0,1,1-3.13,0,1.64,1.64,0,0,1,1.57-1.7"/><polygon class="cls-10" points="29.8 2.89 29.8 4.09 28.85 4.68 27.9 4.09 27.9 2.89 28.85 2.3 29.8 2.89"/><path class="cls-11" d="M29.8,2.89v.54A1.34,1.34,0,0,0,28.86,3a1.26,1.26,0,0,0-1,.47V2.89l1-.6Z"/><path class="cls-6" d="M268.32,4.73l1,3.28.14.43h0a2.72,2.72,0,0,0,2.51,1.8h1.9c9.23,0,16.71,8.13,16.71,18.16v2.06a2.94,2.94,0,0,0,2,2.87h0l3.41,1.32-1-1.9a1.21,1.21,0,0,0,.2-.19,3.07,3.07,0,0,0,.8-2.1V26.54c0-12.27-9.15-22.21-20.44-22.21H272a2.68,2.68,0,0,0-2.31,1.38Z"/><path class="cls-7" d="M268.13,3.56h0a3.39,3.39,0,0,0,3.25,3.52h2.26c11,0,19.87,9.67,19.87,21.6v2.46a3.26,3.26,0,1,0,6.49,0V26.46C300,11.86,289.11,0,275.69,0h-4.31a3.39,3.39,0,0,0-3.25,3.52"/><path class="cls-8" d="M296.82,29.43a1.92,1.92,0,1,0,1.75,1.91,1.84,1.84,0,0,0-1.75-1.91"/><path class="cls-9" d="M296.82,29.64a1.71,1.71,0,1,0,1.57,1.7,1.63,1.63,0,0,0-1.57-1.7"/><polygon class="cls-10" points="295.87 30.74 295.87 31.94 296.82 32.53 297.77 31.94 297.77 30.74 296.82 30.15 295.87 30.74"/><path class="cls-11" d="M295.87,30.74v.54a1.38,1.38,0,0,1,.94-.47,1.26,1.26,0,0,1,1,.47v-.54l-.95-.6Z"/><path class="cls-8" d="M271.23,1.62a1.83,1.83,0,0,0-1.75,1.91,1.76,1.76,0,1,0,3.5,0,1.84,1.84,0,0,0-1.75-1.91"/><path class="cls-9" d="M271.23,1.82a1.64,1.64,0,0,0-1.57,1.71,1.57,1.57,0,1,0,3.13,0,1.64,1.64,0,0,0-1.56-1.71"/><polygon class="cls-10" points="270.27 2.92 270.27 4.13 271.23 4.72 272.17 4.13 272.17 2.92 271.23 2.33 270.27 2.92"/><path class="cls-11" d="M270.27,2.93v.54a1.31,1.31,0,0,1,1-.47,1.2,1.2,0,0,1,.95.47V2.93l-.94-.6Z"/><path class="cls-6" d="M31.68,195.3l-1-3.28-.14-.43h0A2.73,2.73,0,0,0,28,189.78h-1.9c-9.23,0-16.71-8.13-16.71-18.15v-2.07a2.92,2.92,0,0,0-2-2.86h0L4,165.37l1,1.9a1.26,1.26,0,0,0-.2.2,3,3,0,0,0-.8,2.09v3.94c0,12.27,9.15,22.21,20.44,22.21H28a2.69,2.69,0,0,0,2.31-1.39Z"/><path class="cls-7" d="M31.87,196.48h0A3.4,3.4,0,0,0,28.62,193H26.36c-11,0-19.87-9.67-19.87-21.6V168.9a3.39,3.39,0,0,0-3.25-3.52A3.38,3.38,0,0,0,0,168.9v4.68C0,188.17,10.89,200,24.31,200h4.31a3.4,3.4,0,0,0,3.25-3.52"/><path class="cls-8" d="M3.18,170.6a1.91,1.91,0,0,0,0-3.81,1.91,1.91,0,0,0,0,3.81"/><path class="cls-9" d="M3.18,170.4a1.71,1.71,0,0,0,0-3.41,1.71,1.71,0,0,0,0,3.41"/><polygon class="cls-10" points="4.13 169.3 4.13 168.1 3.18 167.5 2.23 168.1 2.23 169.3 3.18 169.89 4.13 169.3"/><path class="cls-11" d="M4.13,169.3v-.55a1.28,1.28,0,0,1-.94.47,1.22,1.22,0,0,1-1-.47v.55l1,.59Z"/><path class="cls-8" d="M28.77,198.42A1.92,1.92,0,1,0,27,196.51a1.84,1.84,0,0,0,1.75,1.91"/><path class="cls-9" d="M28.77,198.21a1.71,1.71,0,1,0-1.56-1.7,1.64,1.64,0,0,0,1.56,1.7"/><polygon class="cls-10" points="29.73 197.11 29.73 195.91 28.77 195.32 27.83 195.91 27.83 197.11 28.77 197.7 29.73 197.11"/><path class="cls-11" d="M29.73,197.11v-.54a1.38,1.38,0,0,1-.95.47,1.23,1.23,0,0,1-1-.47v.54l.94.6Z"/><path class="cls-6" d="M268.24,195.27l1-3.28.13-.44h0a2.74,2.74,0,0,1,2.51-1.8h1.9c9.23,0,16.71-8.13,16.71-18.16v-2.06a3,3,0,0,1,2-2.87h0l3.41-1.32-1,1.9a1.8,1.8,0,0,1,.2.19,3.12,3.12,0,0,1,.8,2.1v3.93c0,12.27-9.15,22.21-20.44,22.21h-3.63a2.7,2.7,0,0,1-2.31-1.38Z"/><path class="cls-7" d="M268.06,196.44h0a3.38,3.38,0,0,1,3.24-3.52h2.26c11,0,19.88-9.67,19.88-21.6v-2.46a3.25,3.25,0,1,1,6.48,0v4.69c0,14.59-10.88,26.41-24.31,26.41H271.3a3.38,3.38,0,0,1-3.24-3.52"/><path class="cls-8" d="M296.75,170.57a1.92,1.92,0,1,1,1.75-1.91,1.84,1.84,0,0,1-1.75,1.91"/><path class="cls-9" d="M296.75,170.36a1.71,1.71,0,1,1,1.56-1.7,1.64,1.64,0,0,1-1.56,1.7"/><polygon class="cls-10" points="295.79 169.26 295.79 168.06 296.75 167.47 297.69 168.06 297.69 169.26 296.75 169.85 295.79 169.26"/><path class="cls-11" d="M295.79,169.26v-.54a1.38,1.38,0,0,0,.95.47,1.23,1.23,0,0,0,.95-.47v.54l-.94.6Z"/><path class="cls-8" d="M271.15,198.38a1.91,1.91,0,1,1,1.75-1.91,1.83,1.83,0,0,1-1.75,1.91"/><path class="cls-9" d="M271.15,198.18a1.71,1.71,0,1,1,1.57-1.71,1.64,1.64,0,0,1-1.57,1.71"/><polygon class="cls-10" points="270.2 197.07 270.2 195.87 271.15 195.28 272.1 195.87 272.1 197.07 271.15 197.67 270.2 197.07"/><path class="cls-11" d="M270.2,197.08v-.55a1.28,1.28,0,0,0,.94.47,1.22,1.22,0,0,0,1-.47v.55l-1,.59Z"/><path class="cls-12" d="M189.79,99.84c-2-.19-10-1-13.11-1.89a5,5,0,0,1-3.61-2.48c-1.33-2.3-4.43-18.14-4.08-22.14l.07-.83a42.39,42.39,0,0,1,1-7.34A12.93,12.93,0,0,1,171.91,61c1.72-2.48,3-2.77,3.87-2.77H176v0h.19c2.22.06,9.71.39,13.68,1.9.4,1.1.84,4.33.8,13.19,0,1.74,0,3.54-.07,5.36C190.43,87.94,189.92,97.57,189.79,99.84Z"/><path d="M175.78,58.72h.08l0,0h.3c4.43.13,10.15.67,13.3,1.79.32,1.1.74,4.2.7,12.82,0,1.66,0,3.46-.07,5.35-.17,8.65-.63,17.66-.79,20.6-2.6-.24-9.62-1-12.53-1.82h-.09a4.56,4.56,0,0,1-3.24-2.24c-1.25-2.17-4.34-18-4-21.86l.07-.83a43.27,43.27,0,0,1,1-7.26,12.66,12.66,0,0,1,1.74-4c1.6-2.29,2.75-2.56,3.48-2.56m0-1c-1.32,0-2.69.71-4.27,3A13.84,13.84,0,0,0,169.63,65a48.49,48.49,0,0,0-1.12,8.25c-.34,4,2.72,20,4.14,22.42a5.47,5.47,0,0,0,3.89,2.7c3.72,1.09,13.71,2,13.71,2s.63-11,.84-21.63c0-1.82.07-3.63.07-5.37,0-6.46-.18-12-.91-13.57-4-1.59-11.8-1.94-14-2h0l-.41,0Z"/><path class="cls-13" d="M203.57,82.94a20,20,0,0,0,.65-4.24,15.41,15.41,0,0,0-.35-3.74,7.32,7.32,0,0,0-1.53-3.42c-.3-.35-.67-.73-1.1-1.18s-1.17-1.22-1.93-2.07a53.7,53.7,0,0,0-7.86-6.5,3.65,3.65,0,0,0-.95-.47,3.44,3.44,0,0,0-2.37,0,5.81,5.81,0,0,0-2.44,2.25,11,11,0,0,0-1.52,3.52,42,42,0,0,0-1,7c0,.29,0,.57-.07.85-.13,1.59.43,6.13,1.4,11.3s2,9.3,2.62,10.34c.73,1.26,2.26,2.72,5.43,2.55.92,0,2-.78,3.29-2.18a27.11,27.11,0,0,0,2.43-3.22l.1-.15c.06-.09.13-.18.2-.3a37.62,37.62,0,0,0,4.23-8c.29-.77.55-1.56.76-2.34"/><path d="M184.17,67.07a11,11,0,0,1,1.52-3.52,5.81,5.81,0,0,1,2.44-2.25,3.44,3.44,0,0,1,2.37,0,3.65,3.65,0,0,1,.95.47,53.7,53.7,0,0,1,7.86,6.5c.76.85,1.41,1.52,1.93,2.07s.8.83,1.1,1.18A7.32,7.32,0,0,1,203.87,75a15.41,15.41,0,0,1,.35,3.74,20,20,0,0,1-.65,4.24c-.21.78-.47,1.57-.76,2.34a37.62,37.62,0,0,1-4.23,8c-.07.12-.14.21-.2.3l-.1.15a27.11,27.11,0,0,1-2.43,3.22c-1.27,1.4-2.37,2.13-3.29,2.18-3.17.17-4.7-1.29-5.43-2.55-.6-1-1.68-5.29-2.62-10.34s-1.53-9.71-1.4-11.3c0-.28,0-.56.07-.85a42,42,0,0,1,1-7ZM204.35,83a21.24,21.24,0,0,0,.73-4.76,16.58,16.58,0,0,0-.38-4.11,8.09,8.09,0,0,0-1.7-3.82c-.7-.79-1.67-1.73-3-3.26A53.8,53.8,0,0,0,192,60.49,4.11,4.11,0,0,0,191,60c-1.77-.54-3.54-.36-5.69,2.73A13.84,13.84,0,0,0,183.38,67a48.49,48.49,0,0,0-1.12,8.25c-.34,4,2.72,20,4.14,22.42a6,6,0,0,0,5.87,2.82c2.7-.15,5.79-4.94,6.56-6.1a41,41,0,0,0,4.68-8.77,24,24,0,0,0,.84-2.61Z"/><path class="cls-14" d="M193.3,97.59c-3,1.37-5.81-.4-6.38-4s1.37-7.58,4.33-8.95,5.81.4,6.38,4-1.37,7.58-4.33,9"/><path class="cls-15" d="M192.71,93.82c-1.27.59-2.51-.17-2.75-1.71a3.76,3.76,0,0,1,1.86-3.85c1.27-.6,2.51.17,2.75,1.7a3.77,3.77,0,0,1-1.86,3.86"/><path class="cls-14" d="M189.76,84.14c-2.44,1.14-4.81-.33-5.28-3.28s1.14-6.27,3.58-7.4,4.81.33,5.28,3.28-1.13,6.26-3.58,7.4"/><path class="cls-15" d="M189.26,81a1.54,1.54,0,0,1-2.2-1.36,3,3,0,0,1,1.5-3.09,1.54,1.54,0,0,1,2.2,1.37,3,3,0,0,1-1.5,3.08"/><path class="cls-14" d="M189.27,71.35c-1.88.88-3.71-.26-4.07-2.53A5.59,5.59,0,0,1,188,63.11c1.88-.87,3.71.26,4.07,2.53a5.6,5.6,0,0,1-2.76,5.71"/><path class="cls-15" d="M188.88,68.9a1.15,1.15,0,0,1-1.65-1,2.26,2.26,0,0,1,1.12-2.32,1.16,1.16,0,0,1,1.65,1,2.27,2.27,0,0,1-1.12,2.31"/><path class="cls-16" d="M193.25,65.83s.58,3.48-1.24,5c2,1.37,4.81,5.55,1.6,11.83,2.32.35,5.3.77,5.17,7.81,0-.27.37-.77.48-1s.32-.74.46-1.11a22,22,0,0,0,1.22-7.21,27.52,27.52,0,0,0-.14-4.8c-.54-3.59-3.33-6.29-5.79-8.72C194.49,67.07,193.71,66.39,193.25,65.83Z"/><line class="cls-17" x1="228.3" y1="72.84" x2="214.28" y2="70.61"/><line class="cls-17" x1="225.48" y1="82.44" x2="211.79" y2="80.27"/><line class="cls-17" x1="225.56" y1="94.33" x2="212.14" y2="92.2"/><line class="cls-17" x1="226.82" y1="104.06" x2="213.56" y2="101.95"/><path class="cls-18" d="M186.81,41.84,206,53c3.32,1.8,5.33,3.64,3.81,7h0c-1.83,3.06-3.65,2.5-7,1.32l-22.49-7.56a6.64,6.64,0,0,1-3.25-8.78h0C178.58,41.64,183.51,40.32,186.81,41.84Z"/><path class="cls-19" d="M188.29,42.67,208.42,54c3.32,1.8.17,9.45-3.15,8.27l-22.5-7.56a6.64,6.64,0,0,1-3.25-8.78h0A6.63,6.63,0,0,1,188.29,42.67Z"/><path class="cls-20" d="M180.43,43.25a3.88,3.88,0,0,1,2.63-1.33c-1.09-2.64-4.64-8.6-5.73-8.68a7.84,7.84,0,0,0-3.1,1.06,1.65,1.65,0,0,0-.57,2.61c2.3,2.49,6,6.22,6,6.22Z"/><path class="cls-21" d="M183.12,41.91c-1.1-2.64-3.85-8.8-5-8.88a8.83,8.83,0,0,0-3.13.85,1.63,1.63,0,0,0-.57,2.61c2.3,2.49,5.7,6.8,6,6.85A3.4,3.4,0,0,1,183.12,41.91Z"/><path class="cls-20" d="M178.07,47a3.87,3.87,0,0,1,1.29-2.66c-2.47-1.44-8.9-4-9.82-3.44a7.88,7.88,0,0,0-1.82,2.72,1.64,1.64,0,0,0,1.12,2.42c3.34.59,8.51,1.35,8.51,1.35Z"/><path class="cls-21" d="M179.39,44.33c-2.47-1.44-8.38-4.68-9.3-4.08a8.87,8.87,0,0,0-2,2.57,1.64,1.64,0,0,0,1.12,2.43c3.34.59,8.65,2,8.91,1.83A3.42,3.42,0,0,1,179.39,44.33Z"/><path class="cls-20" d="M179.18,51.8a3.82,3.82,0,0,1-.8-2.84c-2.8.56-7.53,1.35-7.83,2.4a2.76,2.76,0,0,0,.09,2,1.69,1.69,0,0,0,2.44,1.07,28.67,28.67,0,0,1,5.82-1.89Z"/><path class="cls-21" d="M178.38,48.91c-2.8.55-7.58.52-7.87,1.58a3,3,0,0,0-.12,2,1.68,1.68,0,0,0,2.44,1.08c3.11-1.34,6.33-1.52,6.43-1.79A3.4,3.4,0,0,1,178.38,48.91Z"/><path class="cls-20" d="M186.1,41.51l-2.11.35s-.61-.37-.73-.46c-.7-.53-1.27-7.45.13-7.54s3.27.21,3.49.65c0,.06.47.55.47.55S186.39,41.76,186.1,41.51Z"/><path class="cls-21" d="M186.83,42a4.69,4.69,0,0,0-1.46-.28,7.82,7.82,0,0,0-1.38.17c-.87.14-1.27-7.44.13-7.53s3.11.41,3.33.85S187.16,42.26,186.83,42Z"/><ellipse class="cls-22" cx="185.75" cy="48.6" rx="2.34" ry="2.59" transform="translate(-5.56 32.34) rotate(-9.8)"/><path class="cls-23" d="M228.68,90.25c-5.08,0-31.64-5.74-32.67-7-.55-.22-3.43-4.28-3-8,1.09-9.2,3.67-21.68,3.69-21.8a.14.14,0,0,1,.1-.11c.16,0,15.54-4.44,22.09-4.48.19,0,17.61,2,32.16,5.46h0l.14,0a.16.16,0,0,1,.1.05.15.15,0,0,1,0,.11c0,.25-2.81,24.92-5.68,30.79-2.12,1.29-12.63,4-16.23,4.91A2.26,2.26,0,0,1,228.68,90.25Z"/><path class="cls-24" d="M218.89,49A325.76,325.76,0,0,1,251,54.45l-.05,0,.24,0s-2.78,24.82-5.67,30.74c-2.09,1.24-12.94,4.06-16.14,4.83a2.22,2.22,0,0,1-.72.08c-5.05,0-31.53-5.68-32.56-7-.55-.23-3.39-4.27-3-7.85,1.1-9.3,3.68-21.79,3.68-21.79s15.44-4.44,22-4.48m12,10.23h0m-12-10.52h0c-6.57,0-21.49,4.31-22.13,4.49a.28.28,0,0,0-.2.22c0,.12-2.6,12.61-3.69,21.82-.41,3.49,2.23,7.6,3.08,8.11,1.79,1.65,28.19,7,32.73,7a2.34,2.34,0,0,0,.82-.1c2.27-.55,13.94-3.52,16.19-4.85a.28.28,0,0,0,.11-.13c2.88-5.89,5.58-29.81,5.69-30.83a.27.27,0,0,0-.08-.23.27.27,0,0,0-.2-.09h-.13c-14.55-3.44-32-5.45-32.16-5.47Z"/><path class="cls-25" d="M196.85,53.5s15.43-4.44,22-4.48A325.76,325.76,0,0,1,251,54.48c-2,1-18.1,4.71-20.31,4.77S202.42,55.29,196.85,53.5Z"/><path class="cls-26" d="M226.29,56.87s6.39-2.44,7-2.53-11.05-2.46-11.05-2.46-6.18,2.26-6.62,2.55S226.29,56.87,226.29,56.87Z"/><path class="cls-23" d="M251.21,54.48s-2.78,24.82-5.66,30.74c-2.1,1.24-15.74,4.84-19.8,4.15,0-2.89,3.69-28.26,5.15-30.12C232.61,58.33,244.74,55.19,251.21,54.48Z"/><path class="cls-15" d="M196.85,53.5S194.26,66,193.16,75.29c-.43,3.58,2.41,7.61,3,7.84,1.1,1.42,31.31,7.81,33.29,6.91a10,10,0,0,1-2-8.06c1.08-6.12,2.23-15.32,3.5-22.73C229.89,58.49,202.33,53.6,196.85,53.5Z"/><path class="cls-27" d="M222.27,65.42l-19.53-3.78A1.49,1.49,0,0,0,201,62.9l-1.58,11.69a1.49,1.49,0,0,0,1.19,1.66L220.15,80a1.49,1.49,0,0,0,1.75-1.26l1.56-11.7A1.49,1.49,0,0,0,222.27,65.42Z"/><path class="cls-28" d="M222.49,66l-19.56-3.83a1.16,1.16,0,0,0-1.37,1L200,75a1.15,1.15,0,0,0,.92,1.28l19.56,3.85a1.15,1.15,0,0,0,1.36-1l1.6-11.79A1.15,1.15,0,0,0,222.49,66Z"/><path class="cls-29" d="M208.9,69.48,221,71.72a.74.74,0,0,0,.85-.6l.44-3.46a.75.75,0,0,0-.6-.86l-12.06-2.24a.74.74,0,0,0-.85.6l-.44,3.46A.75.75,0,0,0,208.9,69.48Z"/><ellipse class="cls-30" cx="219.29" cy="68.92" rx="1.79" ry="1.43" transform="translate(116.56 274.55) rotate(-80.9)"/><ellipse class="cls-31" cx="215.05" cy="68.09" rx="1.79" ry="1.43" transform="translate(113.8 269.66) rotate(-80.9)"/><ellipse class="cls-32" cx="210.87" cy="67.4" rx="1.79" ry="1.43" transform="translate(110.96 264.96) rotate(-80.9)"/><path class="cls-33" d="M210.83,72.88l9.48,1.81a.77.77,0,0,0,.89-.63h0a.76.76,0,0,0-.62-.89l-9.49-1.81a.77.77,0,0,0-.89.63h0A.77.77,0,0,0,210.83,72.88Z"/><path class="cls-34" d="M215.48,78.5l4.21.78a.77.77,0,0,0,.89-.63h0a.76.76,0,0,0-.62-.89L215.74,77a.77.77,0,0,0-.89.63h0A.78.78,0,0,0,215.48,78.5Z"/><path class="cls-34" d="M215.76,76.36l4.22.77a.76.76,0,0,0,.89-.62h0a.76.76,0,0,0-.62-.89L216,74.84a.77.77,0,0,0-.89.63h0A.78.78,0,0,0,215.76,76.36Z"/><polygon class="cls-35" points="207.51 64.28 201.76 63.12 200.14 75.06 205.97 76.17 207.51 64.28"/><ellipse class="cls-36" cx="202.54" cy="64.64" rx="0.74" ry="0.64" transform="translate(111.31 256.68) rotate(-82.29)"/><path class="cls-37" d="M202.64,63.91a2.27,2.27,0,0,0-.16,1.47"/><path class="cls-37" d="M203.17,64.73a2.7,2.7,0,0,1-1.27-.17"/><ellipse class="cls-38" cx="205.23" cy="75" rx="0.74" ry="0.64" transform="translate(103.37 268.32) rotate(-82.29)"/><path class="cls-37" d="M205.33,74.27a2.22,2.22,0,0,0-.16,1.48"/><path class="cls-37" d="M205.86,75.09a2.7,2.7,0,0,1-1.27-.17"/><ellipse class="cls-39" cx="201.13" cy="74.2" rx="0.74" ry="0.64" transform="matrix(0.13, -0.99, 0.99, 0.13, 100.62, 263.56)"/><path class="cls-37" d="M201.23,73.47a2.27,2.27,0,0,0-.16,1.47"/><path class="cls-37" d="M201.76,74.29a2.7,2.7,0,0,1-1.27-.17"/><ellipse class="cls-40" cx="206.11" cy="65.3" rx="0.74" ry="0.64" transform="translate(113.76 260.79) rotate(-82.29)"/><path class="cls-37" d="M206.21,64.56a2.24,2.24,0,0,0-.15,1.48"/><path class="cls-37" d="M206.75,65.38a2.7,2.7,0,0,1-1.27-.17"/><path class="cls-41" d="M221.2,74.06a5.79,5.79,0,0,0-3.2-.43c-1.62.31-1.5-1.09-2.22-1.17s-1,1-2,.72-.59-.57-1-.63-.53.42-1,.3-.43-1.49-.69-1.49"/><path class="cls-42" d="M229.06,44.31l-1.4,9.3-8.16-1.14c-1.36-.21-2.16-2.45-1.77-5s1.8-4.49,3.17-4.28a1.75,1.75,0,0,1,1.16.83Z"/><path class="cls-43" d="M193.26,37.18a19.22,19.22,0,0,0,8,4.23,36.91,36.91,0,0,0,8.52.91c9.92.21,15-4.2,15-4.2s.36-6.8.57-9.07S223,22,223,22Z"/><path class="cls-43" d="M255.27,47s-2.35,3-8.53,1.83-14.88-5-14.88-5l-4.54-8.41Z"/><path class="cls-15" d="M223.94,23.69l3.21.32L225.51,34.4l-3.1-.46A69.42,69.42,0,0,0,223.94,23.69Z"/><polygon class="cls-44" points="222.41 33.94 224.03 37.01 226.24 37.34 225.51 34.4 222.41 33.94"/><polygon class="cls-45" points="219.99 33.58 228.48 34.85 225.69 49.72 217.68 48.32 219.99 33.58"/><path class="cls-46" d="M222.44,33.85,222,35.61a.33.33,0,0,1-.16.19l-2.42,1.28a.31.31,0,0,1-.46-.27V36.3a.31.31,0,0,1,.13-.25L222,33.52A.32.32,0,0,1,222.44,33.85Z"/><polygon class="cls-47" points="231.86 43.83 230.55 47.08 225.69 49.72 228.48 34.85 231.86 43.83"/><path class="cls-43" d="M225.58,34.68s-.12,1.74.2,2.07A51.59,51.59,0,0,0,231.06,40c.55.16.64-1.15.64-1.15Z"/><path class="cls-48" d="M225.58,34.68s-.14,2.1.33,2.17c.52.36,4.41,2.81,4.41,2.81"/><path class="cls-49" d="M253.76,46.88c-6.75,0-26.26-9.81-27.42-11.78-.14-1.89.75-7.78,1.73-11.38a1.13,1.13,0,0,1,1.08-.83,115.55,115.55,0,0,1,27.23,5.92,1.13,1.13,0,0,1,.75.93c.79,6.15-1.35,13.5-2.31,16.38a1.11,1.11,0,0,1-1.06.76Z"/><path class="cls-50" d="M229.15,23.72h0a114.61,114.61,0,0,1,26.93,5.86.31.31,0,0,1,.2.27c.77,6-1.33,13.18-2.27,16a.29.29,0,0,1-.28.2c-6.21,0-24.35-8.89-26.61-11.27a53.25,53.25,0,0,1,1.72-10.85.29.29,0,0,1,.28-.22m0-1.65a1.94,1.94,0,0,0-1.87,1.43c-1,3.6-1.94,9.79-1.75,11.75.21,2.12,21.19,12.43,28.22,12.46h0a1.94,1.94,0,0,0,1.84-1.34c.93-2.79,3.16-10.37,2.35-16.73A2,2,0,0,0,256.66,28a115.87,115.87,0,0,0-27.35-6Z"/><polygon class="cls-45" points="217.94 50.79 217.73 54.79 226.4 56.26 226.2 52.19 217.94 50.79"/><polygon class="cls-47" points="230.48 50.78 232.26 54.16 226.4 56.26 226.2 52.19 230.48 50.78"/><ellipse class="cls-51" cx="228.36" cy="48.96" rx="4.7" ry="2.5" transform="translate(146.04 267.52) rotate(-81.46)"/><path class="cls-52" d="M222.4,33.67a9.54,9.54,0,0,1-.61,2.13l-2.42,1.28"/><path class="cls-49" d="M200.36,37.86a21,21,0,0,1-5.83-.63,1.09,1.09,0,0,1-.75-1c0-3,.15-10.67,2.77-16.28a1.09,1.09,0,0,1,1-.64c.62,0,1.39,0,2.3,0A97.1,97.1,0,0,1,221.75,22a1.09,1.09,0,0,1,.83,1.1c-.16,3.78-1.12,9.76-1.83,11.42C219.83,35.49,209,37.86,200.36,37.86Z"/><path class="cls-50" d="M199.81,20.12a96.45,96.45,0,0,1,21.74,2.68.23.23,0,0,1,.17.22,53.67,53.67,0,0,1-1.66,10.85c-1.82,1.07-11.68,3.12-19.7,3.12a20.42,20.42,0,0,1-5.57-.58.22.22,0,0,1-.14-.21c0-3,.14-10.46,2.68-15.91a.24.24,0,0,1,.2-.14l2.28,0m0-1.73c-.92,0-1.69,0-2.33,0a2,2,0,0,0-1.71,1.14c-2.71,5.82-2.89,13.71-2.85,16.66a1.93,1.93,0,0,0,1.35,1.83,21.81,21.81,0,0,0,6.09.67c8.48,0,20.53-2.38,21.18-3.9.78-1.81,1.75-8,1.9-11.72a2,2,0,0,0-1.5-2,97.26,97.26,0,0,0-22.13-2.73Z"/><path class="cls-53" d="M236.6,38.57a5.82,5.82,0,0,1-.92-.08,6.22,6.22,0,0,1-4.77-7.35,6.36,6.36,0,0,1,6-5.44,4.84,4.84,0,0,1,.92.08,6.21,6.21,0,0,1,4.77,7.34A6.36,6.36,0,0,1,236.6,38.57Z"/><path class="cls-54" d="M236.92,26.4h0a5.19,5.19,0,0,1,5,6.61,5.64,5.64,0,0,1-5.32,4.86,4.4,4.4,0,0,1-.8-.07,5.51,5.51,0,0,1-4.2-6.54,5.64,5.64,0,0,1,5.32-4.86m0-1.4a7,7,0,0,0-6.7,6,6.9,6.9,0,0,0,5.35,8.15,6.06,6.06,0,0,0,1,.09,7,7,0,0,0,6.7-6A6.9,6.9,0,0,0,238,25.09a6.06,6.06,0,0,0-1-.09Z"/><path class="cls-53" d="M211.74,34.86a5.62,5.62,0,0,1-.92-.08A6.21,6.21,0,0,1,206,27.44a6.36,6.36,0,0,1,6-5.45,5.62,5.62,0,0,1,.92.08,6.2,6.2,0,0,1,4.77,7.34A6.34,6.34,0,0,1,211.74,34.86Z"/><path class="cls-54" d="M212.05,22.69h0a4.25,4.25,0,0,1,.8.07A5,5,0,0,1,216.19,25a6,6,0,0,1,.86,4.31,5.63,5.63,0,0,1-5.31,4.86,4.25,4.25,0,0,1-.8-.07,5,5,0,0,1-3.34-2.23,6,6,0,0,1-.87-4.31,5.65,5.65,0,0,1,5.32-4.86m0-1.4a7,7,0,0,0-6.69,6,6.9,6.9,0,0,0,5.34,8.15,6.18,6.18,0,0,0,1,.09,7,7,0,0,0,6.69-6,6.9,6.9,0,0,0-5.34-8.15,6.18,6.18,0,0,0-1-.09Z"/><ellipse class="cls-55" cx="228.5" cy="49.24" rx="2.35" ry="1.08" transform="translate(141.84 266.33) rotate(-80.4)"/><line class="cls-56" x1="223.94" y1="23.69" x2="227.15" y2="24.01"/><ellipse class="cls-57" cx="211.69" cy="27.08" rx="1.94" ry="2.54"/><ellipse class="cls-57" cx="236.52" cy="30.7" rx="1.94" ry="2.54"/><path class="cls-18" d="M262.39,49.64l-20.57,8.27c-3.55,1.3-5.8,2.83-4.78,6.32h0c1.37,3.29,3.25,3,6.7,2.32l23.36-4.23a6.63,6.63,0,0,0,4.49-8.2h0C270.56,50.63,265.88,48.61,262.39,49.64Z"/><path class="cls-19" d="M260.81,50.24l-21.56,8.29c-3.54,1.3-1.53,9.32,1.93,8.64l23.35-4.23A6.64,6.64,0,0,0,269,54.73h0A6.64,6.64,0,0,0,260.81,50.24Z"/><path class="cls-20" d="M268.5,52a3.87,3.87,0,0,0-2.41-1.71c1.47-2.45,5.84-7.83,6.93-7.75a7.83,7.83,0,0,1,2.91,1.5,1.64,1.64,0,0,1,.19,2.66c-2.64,2.13-6.8,5.29-6.8,5.29Z"/><path class="cls-21" d="M266,50.24c1.47-2.46,5.08-8.15,6.18-8.07a8.6,8.6,0,0,1,3,1.3,1.63,1.63,0,0,1,.19,2.66c-2.64,2.13-6.62,5.9-6.91,5.91A3.41,3.41,0,0,0,266,50.24Z"/><path class="cls-20" d="M270.29,56a3.8,3.8,0,0,0-.89-2.81c2.65-1.07,9.39-2.71,10.21-2A7.71,7.71,0,0,1,281,54.19a1.65,1.65,0,0,1-1.46,2.24c-3.38.09-8.61.09-8.61.09Z"/><path class="cls-21" d="M269.37,53.17c2.65-1.06,9-3.41,9.8-2.69a8.64,8.64,0,0,1,1.58,2.84,1.62,1.62,0,0,1-1.46,2.23c-3.39.1-8.84.7-9.07.53A3.42,3.42,0,0,0,269.37,53.17Z"/><path class="cls-20" d="M268.5,60.6a3.86,3.86,0,0,0,1.2-2.7c2.7,1,7.26,2.42,7.4,3.51a2.71,2.71,0,0,1-.38,2,1.7,1.7,0,0,1-2.57.7,28.41,28.41,0,0,0-5.48-2.71Z"/><path class="cls-21" d="M269.71,57.85c2.69,1,7.42,1.62,7.56,2.7a3,3,0,0,1-.17,2,1.68,1.68,0,0,1-2.58.71c-2.87-1.77-6-2.42-6.1-2.7A3.41,3.41,0,0,0,269.71,57.85Z"/><path class="cls-20" d="M263.15,49.41l2,.66s.66-.29.79-.36c.77-.42,2.34-7.18,1-7.48s-3.27-.26-3.56.14c0,.05-.54.48-.54.48S262.82,49.61,263.15,49.41Z"/><path class="cls-21" d="M262.36,49.76a4.78,4.78,0,0,1,1.48-.07,6.77,6.77,0,0,1,1.34.38c.84.26,2.34-7.18,1-7.48s-3.14,0-3.42.36S262,50,262.36,49.76Z"/><ellipse class="cls-22" cx="262.47" cy="56.47" rx="2.59" ry="2.34" transform="translate(127.1 288.32) rotate(-71.86)"/><path class="cls-58" d="M135.79,59l.91,1.37s-4.23,8.83-10.94,9.3c-2.23,0-1.63.19-3.33-.22-.67-.55-2.8-.49-4.91.78S91.06,87.5,84.79,93.56a6.5,6.5,0,0,1-3.16,7.89,55.83,55.83,0,0,1-8.21,3.19l-.92-1.47s6.15-4.15,5.76-7.42-1.75-5.58-4.86-6.09a13,13,0,0,0-8.72,4.79l-1.35-1a9.17,9.17,0,0,1-.91-1.36c.67-1.69,4.49-7,8.94-8.22,5.16-1.48,8.51-.15,9.44,1.13,1.94-1.8,31.34-20.69,32.45-23.56,1-1.35,1.66-2.21,1.66-2.21s-1-6.35,4.53-8.71,5.78-1.84,8.14-2a6.16,6.16,0,0,1,.91,1.37S121.87,52,122,57c0,0,.28,6,5,6.21S135.79,59,135.79,59Z"/><path class="cls-59" d="M134.22,57l1.57,2s-4.23,8.83-10.94,9.3c-2.23,0-1.63.19-3.33-.22-.67-.55-2.8-.49-4.91.78S90.15,86.13,83.88,92.19a6.5,6.5,0,0,1-3.16,7.89,56.77,56.77,0,0,1-8.21,3.2l-.92-1.48s6.15-4.15,5.76-7.42-1.75-5.58-4.86-6.09a13,13,0,0,0-8.72,4.79l-1.35-1s2.87-8.12,8-9.59,8.51-.15,9.44,1.13c1.94-1.8,30.75-20.73,32.45-23.56A5.85,5.85,0,0,0,114,57.85s-.78-5.9,4.53-8.71a16.22,16.22,0,0,1,7.61-2.29,9.49,9.49,0,0,1,1.43,1.67S121,50.61,121,55.58c0,0,.29,6,5,6.21S134.22,57,134.22,57Z"/><path class="cls-60" d="M78.87,41.72a5.47,5.47,0,0,1-.8-.1,5,5,0,0,1-.78-.21Z"/><path class="cls-60" d="M94.06,71.59l.72-22.33a5.13,5.13,0,0,0-4.13-5.2L85,42.93a8.94,8.94,0,1,0-13.79-2.74l-4.92-1a5.12,5.12,0,0,0-3.69.66,5,5,0,0,0-2.1,2.53l-8,20.88a5.13,5.13,0,0,0,3.79,6.87l31.66,6.29a5.14,5.14,0,0,0,6.13-4.86ZM73.69,35.06a5.58,5.58,0,1,1,5.18,6.66,5.47,5.47,0,0,1-.8-.1,5,5,0,0,1-.78-.21A5.58,5.58,0,0,1,73.69,35.06Z"/><path class="cls-61" d="M92.21,75.36,62.58,39.88a5.12,5.12,0,0,1,3.69-.66l24.38,4.84a5.13,5.13,0,0,1,4.13,5.2l-.72,22.33A5.11,5.11,0,0,1,92.21,75.36Z"/><circle class="cls-62" cx="75.25" cy="57.46" r="8.96"/><path d="M72.11,56.49l1.34-1.69a1.24,1.24,0,0,1,1.33-.4c.57.11.83.33.77.67a3.43,3.43,0,0,1-.7,1.07c-.15.18-.44.5-.85,1l.75,2.69a.73.73,0,0,1-.2.4,1,1,0,0,1-1,.25,1.75,1.75,0,0,1-.94-.43,1.7,1.7,0,0,1-.34-.74c-.06-.21-.19-.77-.38-1.67l-.37,1.82c-.07.38-.49.5-1.24.35s-1.1-.42-1-.8l1.33-6.68c.07-.38.49-.49,1.23-.34s1.11.41,1,.79Z"/><path d="M80.67,55.87c.34.26.48.5.44.74h0l0,0L80.24,61c-.3,1.48-1.41,2-3.35,1.64a3.48,3.48,0,0,1-1.64-.69,1.06,1.06,0,0,1-.42-1c.09-.44.29-.67.61-.69a3,3,0,0,0,1.48.76,1.29,1.29,0,0,0,.89-.05.71.71,0,0,0,.22-.5,1.68,1.68,0,0,1-1,0,2.33,2.33,0,0,1-1.51-.89,2.54,2.54,0,0,1-.27-1.95,2.92,2.92,0,0,1,1.24-2,3.51,3.51,0,0,1,2.57-.29A3.87,3.87,0,0,1,80.67,55.87Zm-2.42,3.27L78.68,57c-.66-.1-1.06.24-1.21,1s0,1,.47,1.13Z"/><path class="cls-63" d="M108.6,74.63l-1,2.4c-.49,1.21-2.27,2.33-4.16,2.63l-2.6.42a24.71,24.71,0,0,1-3.44,3.53l1,1.1c.76.84.09,2.21-1.56,3.17L93.6,89.8c-1.65,1-3.75,1.23-4.88.6l-1.47-.79a43.25,43.25,0,0,1-5.58,1.82L80.81,93a6,6,0,0,1-4.44,2.41l-3.67.32a3.23,3.23,0,0,1-2.3-.49,1.48,1.48,0,0,1-.25-.25h0l-.1-.16h0l-1.58-2.51a17.2,17.2,0,0,1-2.93-.73l-2.16,1.09c-1.74.87-3.79,1-4.74.24l-1.9-1.47,0,0a1.31,1.31,0,0,1-.33-.38h0l-3-4.8,6.08.94.21-.14a7.06,7.06,0,0,1-.77-3.38l-2.26,0a3,3,0,0,1-1.89-.51,1.31,1.31,0,0,1-.33-.38l-3-4.65h4.69a6.64,6.64,0,0,1,3.39-1.57l2.59-.41a24.47,24.47,0,0,1,3.5-3.47l-1-1.17c-.76-.84-.09-2.21,1.55-3.17l3.28-1.92c1.64-1,3.74-1.23,4.88-.6l1.68.91A41.09,41.09,0,0,1,81.09,65l1-1.82a6,6,0,0,1,4.44-2.41l3.66-.32a3.3,3.3,0,0,1,2.31.49,1.24,1.24,0,0,1,.44,1.3L92.58,64a20.47,20.47,0,0,1,4.34.86l2.65-1.32a7.84,7.84,0,0,1,1.18-.47l2.81-2.62L106.42,65l.2.32h0c.31.75-.2,1.76-1.41,2.59L103,69.41a6.14,6.14,0,0,1,.5,1.19l1.74-2.22,3.48,5.18h-.1A1.35,1.35,0,0,1,108.6,74.63Z"/><path class="cls-57" d="M86.92,68.6l0,0C84.14,66.45,78.1,67,73.39,69.74s-6.27,6.65-3.62,8.77l.06,0c2.73,2.11,8.77,1.58,13.47-1.18s6.27-6.65,3.62-8.77M53.71,86.68c-.92-.74-.49-2.07,1-3.1l1.89-1.29a7.18,7.18,0,0,1-.78-3.38l-2.25,0a3,3,0,0,1-1.89-.51,1.25,1.25,0,0,1-.36-1.56l1-2.41c.49-1.21,2.27-2.33,4.16-2.63l2.59-.41A24.47,24.47,0,0,1,62.57,68l-1-1.17c-.76-.84-.09-2.21,1.55-3.17l3.28-1.92c1.64-1,3.74-1.23,4.88-.6l1.68.91a41.09,41.09,0,0,1,5.19-1.65l1-1.82a6,6,0,0,1,4.44-2.41l3.67-.32a3.34,3.34,0,0,1,2.3.49,1.22,1.22,0,0,1,.44,1.3l-.4,1.74a19.85,19.85,0,0,1,4.34.87l2.65-1.33c1.74-.87,3.78-1,4.73-.24l1.91,1.47,0,0c.92.73.49,2.06-1,3.09L100,64.72a7,7,0,0,1,.83,3.18l2.51,0a3.09,3.09,0,0,1,1.89.51,1.25,1.25,0,0,1,.36,1.56l-1,2.4c-.49,1.21-2.27,2.33-4.16,2.63l-2.6.42a24.71,24.71,0,0,1-3.44,3.53l1,1.1c.76.84.09,2.21-1.56,3.17L90.6,85.11c-1.64,1-3.74,1.23-4.87.6l-1.47-.79a43.62,43.62,0,0,1-5.57,1.82l-.88,1.53a6,6,0,0,1-4.43,2.41L69.71,91a3.29,3.29,0,0,1-2.3-.49,1.23,1.23,0,0,1-.45-1.3l.32-1.41a19.6,19.6,0,0,1-4.74-1l-2.16,1.09c-1.74.87-3.79,1-4.74.24l-1.9-1.47,0,0"/><ellipse class="cls-64" cx="148.3" cy="163.11" rx="52.32" ry="7.26"/><path class="cls-65" d="M225.24,117.51a7.89,7.89,0,0,1-7.89,7.9,8.15,8.15,0,0,1-1.22-.09,11.31,11.31,0,0,0-4.22.13l-42.32,9.48-19.09,4.28a20.14,20.14,0,0,1-4.39,0L127,134.93,84.7,125.45a11.31,11.31,0,0,0-4.22-.13,8.25,8.25,0,0,1-1.22.09,7.9,7.9,0,1,1,3.16-15.14,13.13,13.13,0,0,0,5.25,1.18H208.93a13.14,13.14,0,0,0,5.26-1.18,7.89,7.89,0,0,1,11.05,7.24Z"/><path class="cls-66" d="M185.77,163.92a6.83,6.83,0,0,1-4.85,2H115.8a6.94,6.94,0,0,1-7-6.68,6.87,6.87,0,0,1,6.86-7.06h.7a4.69,4.69,0,0,0,4.29-2.8L127,134.93l10.31-23.48,3.31-7.55a8.38,8.38,0,0,1,15.34,0l3.31,7.55,10.3,23.48L176,149.5a4.49,4.49,0,0,0,4.12,2.69h.71a6.94,6.94,0,0,1,7,6.68A6.82,6.82,0,0,1,185.77,163.92Z"/><path class="cls-67" d="M246.61,86.91a2,2,0,0,1-.6,1.42,1.6,1.6,0,0,1-.35.28,29,29,0,0,1-55.81,0,2,2,0,0,1-.95-1.7,2,2,0,0,1,2-2h53.67A2,2,0,0,1,246.61,86.91Z"/><path class="cls-67" d="M108.82,86.91a2,2,0,0,1-.59,1.42,1.93,1.93,0,0,1-.36.28,29,29,0,0,1-55.8,0,2,2,0,0,1,1.06-3.72h53.68A2,2,0,0,1,108.82,86.91Z"/><circle class="cls-68" cx="148.3" cy="124.49" r="5.87"/><path class="cls-12" d="M230.55,108.55c-2-.38-9.82-1.88-12.88-3.09a5.06,5.06,0,0,1-3.37-2.8c-1.11-2.41-2.73-18.48-2-22.42l.15-.82a43.11,43.11,0,0,1,1.71-7.22,13.18,13.18,0,0,1,2.18-4c1.39-1.64,2.6-2.4,3.83-2.4a3.12,3.12,0,0,1,.52,0l0,0h.19c2.16.27,9.58,1.29,13.4,3.15.3,1.14.43,4.4-.42,13.21-.17,1.73-.36,3.53-.56,5.33C232.28,96.76,230.89,106.3,230.55,108.55Z"/><path d="M220.15,66.31a1.83,1.83,0,0,1,.33,0l.07.06h.29c4.4.54,10,1.6,13,3,.21,1.13.34,4.25-.49,12.83-.16,1.65-.35,3.44-.56,5.32-1,8.59-2.26,17.52-2.69,20.44-2.56-.48-9.49-1.85-12.31-3l0,0h-.05a4.53,4.53,0,0,1-3-2.52c-1.05-2.28-2.67-18.34-2-22.14l.15-.82a42.33,42.33,0,0,1,1.69-7.13,12.56,12.56,0,0,1,2.1-3.83c1.69-2,2.78-2.23,3.46-2.23m0-1c-1.22,0-2.56.65-4.19,2.58A13.5,13.5,0,0,0,213.69,72a48.4,48.4,0,0,0-1.88,8.11c-.71,3.92.86,20.13,2.06,22.71a5.49,5.49,0,0,0,3.62,3c3.6,1.42,13.47,3.2,13.47,3.2s1.64-10.91,2.84-21.46c.2-1.81.39-3.61.56-5.34.62-6.43.92-11.94.34-13.6-3.83-1.95-11.57-3-13.8-3.29h0a3.55,3.55,0,0,0-.73-.08Z"/><path class="cls-13" d="M245.83,93a19.19,19.19,0,0,0,1-4.16,15.33,15.33,0,0,0,0-3.76,7.31,7.31,0,0,0-1.2-3.54c-.27-.38-.61-.79-1-1.28s-1-1.33-1.73-2.24a53.07,53.07,0,0,0-7.23-7.19,3.62,3.62,0,0,0-.9-.56,3.44,3.44,0,0,0-2.36-.24,5.77,5.77,0,0,0-2.63,2A11.06,11.06,0,0,0,228,75.4a41.62,41.62,0,0,0-1.62,6.88l-.15.84c-.28,1.57-.14,6.14.34,11.38S227.7,104,228.2,105c.61,1.33,2,2.93,5.18,3,.91,0,2.08-.59,3.48-1.87a28.08,28.08,0,0,0,2.71-3l.12-.14.22-.28a37.78,37.78,0,0,0,5-7.56c.36-.74.69-1.5,1-2.26"/><path d="M228,75.4A11.06,11.06,0,0,1,229.82,72a5.77,5.77,0,0,1,2.63-2,3.44,3.44,0,0,1,2.36.24,3.62,3.62,0,0,1,.9.56A53.07,53.07,0,0,1,242.94,78c.68.91,1.26,1.65,1.73,2.24s.72.9,1,1.28a7.31,7.31,0,0,1,1.2,3.54,15.33,15.33,0,0,1,0,3.76,19.19,19.19,0,0,1-1,4.16c-.28.76-.61,1.52-1,2.26a37.78,37.78,0,0,1-5,7.56l-.22.28-.12.14a28.08,28.08,0,0,1-2.71,3c-1.4,1.28-2.57,1.91-3.48,1.87-3.17-.12-4.57-1.72-5.18-3-.5-1.08-1.18-5.41-1.66-10.53s-.62-9.81-.34-11.38l.15-.84A41.62,41.62,0,0,1,228,75.4M246.6,93.14a22.27,22.27,0,0,0,1.17-4.68,16.91,16.91,0,0,0,0-4.12,8.09,8.09,0,0,0-1.35-4c-.62-.85-1.5-1.87-2.72-3.52a52.92,52.92,0,0,0-7.31-7.28,3.76,3.76,0,0,0-1-.62c-1.71-.71-3.49-.69-5.91,2.19a13.5,13.5,0,0,0-2.27,4.12,48.17,48.17,0,0,0-1.88,8.11c-.71,3.92.86,20.13,2.06,22.71a6,6,0,0,0,5.58,3.34c2.7.11,6.22-4.38,7.1-5.47a40.57,40.57,0,0,0,5.46-8.29,25.13,25.13,0,0,0,1.08-2.52Z"/><path class="cls-14" d="M234.26,106.63c-3.07,1.1-5.76-.93-6-4.53s2.06-7.42,5.13-8.51,5.75.94,6,4.53-2.07,7.42-5.13,8.51"/><path class="cls-15" d="M234,102.82c-1.32.48-2.48-.4-2.58-1.95a3.78,3.78,0,0,1,2.21-3.67c1.32-.47,2.48.41,2.58,2a3.75,3.75,0,0,1-2.21,3.66"/><path class="cls-14" d="M232,92.91c-2.54.91-4.76-.77-5-3.75s1.71-6.13,4.25-7,4.76.77,5,3.75-1.71,6.14-4.25,7"/><path class="cls-15" d="M231.76,89.76a1.54,1.54,0,0,1-2.06-1.57,3,3,0,0,1,1.77-2.93c1.05-.38,2,.32,2.06,1.56a3,3,0,0,1-1.77,2.94"/><path class="cls-14" d="M232.66,80.13c-2,.7-3.67-.59-3.82-2.89a5.58,5.58,0,0,1,3.27-5.43c2-.7,3.67.6,3.82,2.89a5.59,5.59,0,0,1-3.27,5.43"/><path class="cls-15" d="M232.5,77.66A1.15,1.15,0,0,1,231,76.49a2.26,2.26,0,0,1,1.32-2.2c.8-.29,1.49.24,1.55,1.17a2.26,2.26,0,0,1-1.32,2.2"/><path class="cls-16" d="M237.13,75s.26,3.53-1.69,4.84c1.87,1.55,4.27,6,.5,11.93,2.28.56,5.21,1.25,4.43,8.24,0-.26.44-.73.57-1s.39-.7.56-1.06a21.78,21.78,0,0,0,1.88-7.06,27.48,27.48,0,0,0,.31-4.79c-.21-3.63-2.74-6.58-5-9.23C238.26,76.35,237.54,75.61,237.13,75Z"/><polyline class="cls-17" points="170.57 62.39 184.64 63.7 185.53 63.79"/><polyline class="cls-17" points="168.6 72.18 182.41 73.47 183.23 73.55"/><polyline class="cls-17" points="169.73 84.07 169.73 84.07 183.36 85.34 184.36 85.43"/><polyline class="cls-17" points="171.9 93.72 185.45 94.98 186.56 95.09"/><path class="cls-69" d="M225.24,117.51a7.89,7.89,0,0,1-7.89,7.9,8.15,8.15,0,0,1-1.22-.09,11.31,11.31,0,0,0-4.22.13l-42.32,9.48L176,149.5a4.49,4.49,0,0,0,4.12,2.69h.71a6.94,6.94,0,0,1,7,6.68,6.87,6.87,0,0,1-6.86,7.06H148.3v-67a8.27,8.27,0,0,1,7.68,5l3.31,7.55h49.64a13.14,13.14,0,0,0,5.26-1.18,7.89,7.89,0,0,1,11.05,7.24Z"/><path class="cls-70" d="M298.82,33.85V166.29a3.66,3.66,0,0,1,1.06,2.6v4.69c0,14.59-10.88,26.41-24.31,26.41h-4.31a3.16,3.16,0,0,1-2.6-1.42H31.21A3.18,3.18,0,0,1,28.58,200H24.27C10.85,200,0,188.2,0,173.61v-4.68A3.65,3.65,0,0,1,1,166.33V33.65a3.63,3.63,0,0,1-1-2.52V26.45C0,11.86,10.92,0,24.35,0h4.31a3.14,3.14,0,0,1,2.47,1.24H268.9a3.1,3.1,0,0,1,2.44-1.2h4.31C289.07.07,300,11.89,300,26.49v4.68A3.65,3.65,0,0,1,298.82,33.85Z"/><path class="cls-71" d="M189.56,141.3h0c-.18,0-.18,0-.27-.1L182.92,139l6.64.82a1.39,1.39,0,0,1,.64.09l-.09,1.37Z"/><path class="cls-62" d="M189.47,140.65a1.54,1.54,0,0,1,.64.1h-.55c0-.1,0-.1-.09-.1m.18-1.45-.63,2.73c.09,0,.18.09.27.09h.7l.19-2.73a1.28,1.28,0,0,1-.55-.09"/><path class="cls-72" d="M191.39,141.48a6.83,6.83,0,0,1-1.28-.09l.09-1.37,1,.09h.37Z"/><path class="cls-62" d="M190.2,140.65l.91.1h.28a4.75,4.75,0,0,1-1.19-.1m0-1.36L190,142c.45,0,.91.09,1.37.09l.26-2.73h-.47Z"/><path class="cls-62" d="M156.68,164.05l-5.56-.36-9.64-.64h-.71l-.9-.09a1.72,1.72,0,0,1-.71-.09,39,39,0,0,1-25.85-13.11,41.79,41.79,0,0,1-10.14-31.5L104.35,96c.91-8.83,1.72-11.11,7.65-11.47l1.45-16.2A35.22,35.22,0,0,1,148,36.06h11.65c.45,0,.91.1,1.37.1a35.39,35.39,0,0,1,32,38.32l-1.09,12.75a4,4,0,0,1,1.09.18,11.17,11.17,0,0,1,8.83,12.19l-1.09,21.31a48.31,48.31,0,0,1-7.28,21.58c-8.37,13.2-22.39,21.39-36.78,21.57m-10-78.57,21.48.7.91-10.56a20.76,20.76,0,0,0-4.73-15.11,21,21,0,0,0-11.27-6.92,18.49,18.49,0,0,0-3.55,1.18A20.7,20.7,0,0,0,137,72l-1.18,13.2Z"/><path class="cls-62" d="M148.78,36.87h10.65c.45,0,.91.09,1.37.09a34.81,34.81,0,0,1,31.49,37.61l-1.18,13.56a9,9,0,0,1,1.64.18A10.43,10.43,0,0,1,201,99.78L200,121.09a46.15,46.15,0,0,1-7.19,21.2c-7.91,12.48-21.29,21-36,21h-.11l-5.46-.37-9.65-.64h-.7l-.91-.09a1.71,1.71,0,0,1-.64-.09,38,38,0,0,1-25.4-12.83,41.06,41.06,0,0,1-9.92-31L105.18,96c.91-9.1,1.73-10.65,7.56-10.92l1.45-16.75A34.72,34.72,0,0,1,148,36.76h.82m20,50.16,1-11.2a21.77,21.77,0,0,0-4.93-15.66,21.38,21.38,0,0,0-11.83-7.19,20.66,20.66,0,0,0-3.82,1.28A21.38,21.38,0,0,0,136.33,71.9l-1.27,13.92,11.56.37h.27l21.94.7m-20-51.4h-.91a36.43,36.43,0,0,0-23.76,9.65,35.66,35.66,0,0,0-11.38,23.24L111.45,84c-6.18.63-6.82,3.82-7.64,12l-1.19,22.31a42.42,42.42,0,0,0,10.29,32,40.11,40.11,0,0,0,26.32,13.38,1.69,1.69,0,0,1,.63.09l.91.09h.91l9.56.65,5.46.35h.09c14.56-.17,28.77-8.44,37.15-21.66a48.28,48.28,0,0,0,7.37-21.83L202.4,99.9a11.85,11.85,0,0,0-9.47-12.84c-.18,0-.27-.09-.45-.09l1.09-12.1a36.22,36.22,0,0,0-32.66-39.18c-.46,0-.92-.09-1.37-.09h-9.12Zm-12.19,49L137.67,72a20,20,0,0,1,12.1-16.66,22.52,22.52,0,0,1,3.28-1.09,20.07,20.07,0,0,1,10.74,6.64,19.8,19.8,0,0,1,4.65,14.56l-.92,9.92L147,84.76h-.27Z"/><path class="cls-71" d="M156.68,163.33h-1.62c-1.27,0-2.55-.19-3.82-.28Z"/><path class="cls-73" d="M192.29,74.57,191.11,88l-.81,9.47-2.46-.19-6.56-.54-4.18-.37.82-8.73v-.46l1-11.56A21.78,21.78,0,0,0,174,60a21.2,21.2,0,0,0-14.49-7.56,22,22,0,0,0-6.47.46,21.8,21.8,0,0,0-16.75,19L135,85.85v.46l-.55,6.37-9-.82-4.1-.36.12-1.21.46-4.93,1.46-16.84a34.69,34.69,0,0,1,25.4-30.32l-.71-1.28H159.5c.45,0,.91.09,1.36.09a34.64,34.64,0,0,1,31.41,37.51"/><path class="cls-71" d="M201.12,99.69,200,121c-1.91,23.23-21.21,42.05-43.15,42.24h-.09l-5.46-.36-9.65-.64H141l-1.46-.09h-.18L140.8,160a38.43,38.43,0,0,1-13.47-9.86,41,41,0,0,1-9.93-31l1.19-22.3a11.34,11.34,0,0,1,2.73-6.75,11.67,11.67,0,0,1,4.46-3.37,10.11,10.11,0,0,1,4.64-.81l4.55.18,11.93.36,21.83.71,9.1.27,4.19.09,1.37.1,7.74.26a10.59,10.59,0,0,1,10,11.66"/><path class="cls-74" d="M183.19,74.57l-1.16,13v.19l-.82,9-.09.82L168,96.32l.82-9v-.46l1-11.19A21.7,21.7,0,0,0,164.9,60a22.42,22.42,0,0,0-14.47-7.65c-.36,0-.7-.09-1-.09a21.49,21.49,0,0,0-22.21,19.48L126,85.31,126,86.76l-.46,4.83-.09.82L120.11,92l-7.91-.7.54-6.19,1.46-16.75A34.72,34.72,0,0,1,148,36.72h2.55c.45,0,.91.09,1.27.09A34.51,34.51,0,0,1,175.3,49.1a35.7,35.7,0,0,1,7.93,25.49"/><path class="cls-72" d="M187.84,97.33a11.51,11.51,0,0,1-.19,1.55l-1.09,21.3c-2,23.4-21.58,42.42-43.79,42.25h-1.09a23.62,23.62,0,0,1-2.37-.18,38,38,0,0,1-25.4-12.82,41,41,0,0,1-9.92-31l1.18-22.3c.91-9.11,1.74-10.66,7.56-10.92,1.18-.1,2.64-.1,4.28-.1l4.82.19,4.23.17,9.1.28,11.56.36H147l21.83.71,8.83.27h.14c1.64.19,3,.28,4.19.46a6.35,6.35,0,0,0,1.37.18c4,.91,5.1,2.82,4.46,9.56"/><path class="cls-75" d="M187.84,97.33a11.51,11.51,0,0,1-.19,1.55l-1.09,21.3c-2,23.4-21.58,42.42-43.79,42.25h-.88l4.83-76.29H147l21.83.71,8.83.27h.14c1.64.18,3,.27,4.19.46a7.91,7.91,0,0,0,1.37.18c4,.91,5.1,2.82,4.46,9.56"/><path class="cls-76" d="M155.15,113.8a10.22,10.22,0,0,1-5.46,8.29l-.64,9.28a5.29,5.29,0,0,1-10.58-.38c0-.11,0-.22,0-.32l.64-9.38a10.3,10.3,0,0,1-4.22-8.92,10.13,10.13,0,0,1,20.21,1.46"/><path class="cls-76" d="M155.15,113.8a10.22,10.22,0,0,1-5.46,8.29l-.64,9.28a5.37,5.37,0,0,1-3.19,4.46,5.32,5.32,0,0,1-3.18-5.19l.62-9.37a10.27,10.27,0,0,1-4.18-8.83,10.07,10.07,0,0,1,7.91-9.15,10,10,0,0,1,8.11,10.56"/><path class="cls-77" d="M155.15,113.8a10.22,10.22,0,0,1-5.46,8.29l-.64,9.28a5.37,5.37,0,0,1-3.19,4.46,5.32,5.32,0,0,1-3.18-5.19l.62-9.37a10.27,10.27,0,0,1-4.18-8.83,10.07,10.07,0,0,1,7.91-9.15,10,10,0,0,1,8.11,10.56"/><g class="cls-78"><g class="cls-79"><g class="cls-80"><path class="cls-62" d="M116.46,141.75a2,2,0,1,1-2,2h0a2,2,0,0,1,2-2"/></g></g></g><g class="cls-78"><g class="cls-81"><g class="cls-82"><path class="cls-62" d="M121.65,146.84a17.13,17.13,0,0,0,9.86,6.38,2.39,2.39,0,0,1,1.91,2.37,2.22,2.22,0,0,1-2.81,1.63,20.41,20.41,0,0,1-12.2-7.92,2.19,2.19,0,0,1,.36-3.27,2.33,2.33,0,0,1,2.92.81"/></g></g></g></svg>