<svg id="Layer_1" data-name="Layer 1" xmlns="http://www.w3.org/2000/svg" viewBox="0 0 300 200"><defs><style>.cls-1{fill:#00b1ff;}.cls-2{fill:#e2e2e2;}.cls-3{fill:#fdfeff;}.cls-4{fill:#41b9fa;}.cls-5{fill:#c4c4c4;}.cls-6{fill:#e5e5e5;}.cls-7{fill:#626c72;}.cls-8{fill:#96a5b3;}.cls-9{fill:#2f3e4a;}.cls-10{fill:#222d35;}.cls-11{fill:#980c0a;}.cls-12{fill:#ed4d47;}.cls-13{fill:#ca2d27;}.cls-14{fill:#b5120e;}.cls-15,.cls-32,.cls-47,.cls-51,.cls-55,.cls-66,.cls-75,.cls-82{fill:none;}.cls-15{stroke:#730c00;stroke-width:0.37px;}.cls-15,.cls-31,.cls-32,.cls-33,.cls-34,.cls-35,.cls-36,.cls-37,.cls-42,.cls-44,.cls-46,.cls-47,.cls-51,.cls-55,.cls-66,.cls-67,.cls-68,.cls-82,.cls-83{stroke-miterlimit:10;}.cls-16{fill:#363636;}.cls-17{fill:#848484;}.cls-18{fill:#dbdbdb;}.cls-19{fill:#a9a9a9;}.cls-20{fill:#585858;}.cls-21{fill:#828f96;}.cls-22{fill:#cdcfd5;}.cls-23{fill:#7a828a;}.cls-24{fill:#e7f7fd;}.cls-25{fill:#dadbdf;}.cls-26{fill:#ced6dc;}.cls-27{fill:#353535;stroke-width:0.22px;}.cls-27,.cls-41,.cls-43,.cls-51,.cls-67,.cls-83{stroke:#000;}.cls-27,.cls-41,.cls-43{stroke-linejoin:round;}.cls-28,.cls-36,.cls-37{fill:#4d4d4d;}.cls-29{fill:#b3b3b3;}.cls-30{fill:#d3161d;}.cls-31{fill:#adadad;stroke:#080000;stroke-width:0.3px;}.cls-32,.cls-33,.cls-44,.cls-46,.cls-55,.cls-66{stroke:#070707;}.cls-32{stroke-width:0.46px;}.cls-33{fill:#77401b;}.cls-33,.cls-34,.cls-55{stroke-width:0.3px;}.cls-34,.cls-38,.cls-83{fill:#f8c946;}.cls-34{stroke:#020202;}.cls-35,.cls-52{fill:#282828;}.cls-35,.cls-36,.cls-37{stroke:#151616;}.cls-35,.cls-36{stroke-width:0.25px;}.cls-37{stroke-width:0.91px;}.cls-39{fill:#683919;}.cls-40,.cls-46{fill:#945320;}.cls-41{fill:#515051;stroke-width:0.3px;}.cls-42,.cls-45{fill:#161616;}.cls-42,.cls-47,.cls-82{stroke:#0a0a0a;}.cls-42,.cls-43,.cls-44,.cls-46,.cls-47,.cls-51{stroke-width:0.26px;}.cls-43{fill:#8e8a8b;}.cls-44{fill:#e2b647;}.cls-48{fill:#dddbd7;}.cls-49{fill:#232323;}.cls-50{fill:#3a3a3a;}.cls-53{fill:#7c7c7c;}.cls-54{fill:#666;}.cls-56{fill:#389cce;}.cls-57{fill:#7f1119;}.cls-58{fill:#5e0e18;}.cls-59{fill:#352f49;}.cls-60{fill:#e41e00;}.cls-61{fill:#848483;}.cls-62{fill:#dbdddd;}.cls-63{fill:#0fb0db;}.cls-64{fill:#303435;}.cls-65{fill:#4f5151;}.cls-66,.cls-67,.cls-82,.cls-83{stroke-width:0.15px;}.cls-67{fill:#2e0200;}.cls-68{fill:#198f3a;stroke:#161615;stroke-width:0.13px;}.cls-69{fill:#020202;opacity:0.17;}.cls-70{fill:#c7c7c7;}.cls-71{fill:#383838;}.cls-72{fill:#0a0a0a;}.cls-73{fill:#2fbe57;}.cls-74{fill:#fff;}.cls-76{fill:#a827de;}.cls-77{fill:#e81a1a;}.cls-78{fill:#47ed1b;}.cls-79{fill:#dd811f;}.cls-80{fill:#b5b5b5;}.cls-81{fill:#3e3e3e;}.cls-84{fill:#e71f00;}.cls-85{fill:#ffcc17;}.cls-86{opacity:0.27;}.cls-87{fill:#c3c3c3;}.cls-88{fill:#dedede;}.cls-89{fill:#5a5a5a;}.cls-90{fill:#5b5b5b;}.cls-91{fill:#a8a8a8;}</style></defs><title>condition</title><path class="cls-1" d="M26.28,192.56c-10.87,0-19.72-9.61-19.72-21.42V28.64c0-11.82,8.85-21.43,19.72-21.43H273.65c10.87,0,19.71,9.61,19.71,21.43v142.5c0,11.81-8.84,21.42-19.71,21.42Z"/><path class="cls-2" d="M273.64,10.28c9.32,0,16.9,8.23,16.9,18.36v142.5c0,10.12-7.58,18.36-16.9,18.36H26.28c-9.32,0-16.9-8.24-16.9-18.36V28.64c0-10.13,7.58-18.36,16.9-18.36H273.64m0-6.13H26.28c-12.43,0-22.54,11-22.54,24.49v142.5c0,13.5,10.11,24.49,22.54,24.49H273.64c12.43,0,22.54-11,22.54-24.49V28.64c0-13.51-10.11-24.49-22.54-24.49"/><path class="cls-3" d="M273.65,1.24H26.28c-13.87,0-25.22,12.33-25.22,27.4v142.5c0,15.07,11.35,27.4,25.22,27.4H273.65c13.86,0,25.21-12.33,25.21-27.4V28.64c0-15.07-11.35-27.4-25.21-27.4m19.85,169.9a22.4,22.4,0,0,1-5.83,15.23,19,19,0,0,1-14,6.35H26.28a19,19,0,0,1-14-6.35,22.36,22.36,0,0,1-5.84-15.23V28.64A22.37,22.37,0,0,1,12.26,13.4a18.94,18.94,0,0,1,14-6.34H273.65a19,19,0,0,1,14,6.34,22.41,22.41,0,0,1,5.83,15.24Z"/><path class="cls-4" d="M30.73,8a3.52,3.52,0,0,1-.13.43Z"/><path class="cls-5" d="M31.76,4.7,30.73,8l-.13.43h0a2.74,2.74,0,0,1-2.51,1.81h-1.9C17,10.22,9.48,18.35,9.48,28.37v2.07a2.92,2.92,0,0,1-2,2.86h0L4,34.62l1-1.89a1.89,1.89,0,0,1-.2-.2A3.1,3.1,0,0,1,4,30.44V26.5C4,14.23,13.17,4.29,24.47,4.29h3.62A2.71,2.71,0,0,1,30.4,5.68Z"/><path class="cls-6" d="M31.94,3.52h0A3.39,3.39,0,0,1,28.7,7.05H26.44c-11,0-19.88,9.67-19.88,21.6V31.1a3.38,3.38,0,0,1-3.24,3.52A3.38,3.38,0,0,1,.08,31.1V26.42C.08,11.83,11,0,24.39,0H28.7a3.39,3.39,0,0,1,3.24,3.52"/><path class="cls-7" d="M3.25,29.4a1.91,1.91,0,0,1,0,3.81,1.91,1.91,0,0,1,0-3.81"/><path class="cls-8" d="M3.25,29.6a1.71,1.71,0,0,1,0,3.41,1.71,1.71,0,0,1,0-3.41"/><polygon class="cls-9" points="4.21 30.7 4.21 31.91 3.25 32.5 2.31 31.91 2.31 30.7 3.25 30.11 4.21 30.7"/><path class="cls-10" d="M4.21,30.7v.55a1.31,1.31,0,0,0-1-.47,1.2,1.2,0,0,0-.95.47V30.7l.94-.59Z"/><path class="cls-7" d="M28.85,1.58A1.84,1.84,0,0,1,30.6,3.49a1.76,1.76,0,1,1-3.5,0,1.84,1.84,0,0,1,1.75-1.91"/><path class="cls-8" d="M28.85,1.79a1.63,1.63,0,0,1,1.56,1.7,1.57,1.57,0,1,1-3.13,0,1.64,1.64,0,0,1,1.57-1.7"/><polygon class="cls-9" points="29.8 2.89 29.8 4.09 28.85 4.68 27.9 4.09 27.9 2.89 28.85 2.3 29.8 2.89"/><path class="cls-10" d="M29.8,2.89v.54A1.34,1.34,0,0,0,28.86,3a1.26,1.26,0,0,0-1,.47V2.89l1-.6Z"/><path class="cls-5" d="M268.32,4.73l1,3.28.14.43h0a2.72,2.72,0,0,0,2.51,1.8h1.9c9.23,0,16.71,8.13,16.71,18.16v2.06a2.94,2.94,0,0,0,2,2.87h0l3.41,1.32-1-1.9a1.21,1.21,0,0,0,.2-.19,3.07,3.07,0,0,0,.8-2.1V26.54c0-12.27-9.15-22.21-20.44-22.21H272a2.68,2.68,0,0,0-2.31,1.38Z"/><path class="cls-6" d="M268.13,3.56h0a3.39,3.39,0,0,0,3.25,3.52h2.26c11,0,19.87,9.67,19.87,21.6v2.46a3.26,3.26,0,1,0,6.49,0V26.46C300,11.86,289.11,0,275.69,0h-4.31a3.39,3.39,0,0,0-3.25,3.52"/><path class="cls-7" d="M296.82,29.43a1.92,1.92,0,1,0,1.75,1.91,1.84,1.84,0,0,0-1.75-1.91"/><path class="cls-8" d="M296.82,29.64a1.71,1.71,0,1,0,1.57,1.7,1.63,1.63,0,0,0-1.57-1.7"/><polygon class="cls-9" points="295.87 30.74 295.87 31.94 296.82 32.53 297.77 31.94 297.77 30.74 296.82 30.15 295.87 30.74"/><path class="cls-10" d="M295.87,30.74v.54a1.38,1.38,0,0,1,.94-.47,1.26,1.26,0,0,1,1,.47v-.54l-.95-.6Z"/><path class="cls-7" d="M271.23,1.62a1.83,1.83,0,0,0-1.75,1.91,1.76,1.76,0,1,0,3.5,0,1.84,1.84,0,0,0-1.75-1.91"/><path class="cls-8" d="M271.23,1.82a1.64,1.64,0,0,0-1.57,1.71,1.57,1.57,0,1,0,3.13,0,1.64,1.64,0,0,0-1.56-1.71"/><polygon class="cls-9" points="270.27 2.92 270.27 4.13 271.23 4.72 272.17 4.13 272.17 2.92 271.23 2.33 270.27 2.92"/><path class="cls-10" d="M270.27,2.93v.54a1.31,1.31,0,0,1,1-.47,1.2,1.2,0,0,1,.95.47V2.93l-.94-.6Z"/><path class="cls-5" d="M31.68,195.3l-1-3.28-.14-.43h0A2.73,2.73,0,0,0,28,189.78h-1.9c-9.23,0-16.71-8.13-16.71-18.15v-2.07a2.92,2.92,0,0,0-2-2.86h0L4,165.37l1,1.9a1.26,1.26,0,0,0-.2.2,3,3,0,0,0-.8,2.09v3.94c0,12.27,9.15,22.21,20.44,22.21H28a2.69,2.69,0,0,0,2.31-1.39Z"/><path class="cls-6" d="M31.87,196.48h0A3.4,3.4,0,0,0,28.62,193H26.36c-11,0-19.87-9.67-19.87-21.6V168.9a3.39,3.39,0,0,0-3.25-3.52A3.38,3.38,0,0,0,0,168.9v4.68C0,188.17,10.89,200,24.31,200h4.31a3.4,3.4,0,0,0,3.25-3.52"/><path class="cls-7" d="M3.18,170.6a1.91,1.91,0,0,0,0-3.81,1.91,1.91,0,0,0,0,3.81"/><path class="cls-8" d="M3.18,170.4a1.71,1.71,0,0,0,0-3.41,1.71,1.71,0,0,0,0,3.41"/><polygon class="cls-9" points="4.13 169.3 4.13 168.1 3.18 167.5 2.23 168.1 2.23 169.3 3.18 169.89 4.13 169.3"/><path class="cls-10" d="M4.13,169.3v-.55a1.28,1.28,0,0,1-.94.47,1.22,1.22,0,0,1-1-.47v.55l1,.59Z"/><path class="cls-7" d="M28.77,198.42A1.92,1.92,0,1,0,27,196.51a1.84,1.84,0,0,0,1.75,1.91"/><path class="cls-8" d="M28.77,198.21a1.71,1.71,0,1,0-1.56-1.7,1.64,1.64,0,0,0,1.56,1.7"/><polygon class="cls-9" points="29.73 197.11 29.73 195.91 28.77 195.32 27.83 195.91 27.83 197.11 28.77 197.7 29.73 197.11"/><path class="cls-10" d="M29.73,197.11v-.54a1.38,1.38,0,0,1-.95.47,1.23,1.23,0,0,1-1-.47v.54l.94.6Z"/><path class="cls-5" d="M268.24,195.27l1-3.28.13-.44h0a2.74,2.74,0,0,1,2.51-1.8h1.9c9.23,0,16.71-8.13,16.71-18.16v-2.06a3,3,0,0,1,2-2.87h0l3.41-1.32-1,1.9a1.8,1.8,0,0,1,.2.19,3.12,3.12,0,0,1,.8,2.1v3.93c0,12.27-9.15,22.21-20.44,22.21h-3.63a2.7,2.7,0,0,1-2.31-1.38Z"/><path class="cls-6" d="M268.06,196.44h0a3.38,3.38,0,0,1,3.24-3.52h2.26c11,0,19.88-9.67,19.88-21.6v-2.46a3.25,3.25,0,1,1,6.48,0v4.69c0,14.59-10.88,26.41-24.31,26.41H271.3a3.38,3.38,0,0,1-3.24-3.52"/><path class="cls-7" d="M296.75,170.57a1.92,1.92,0,1,1,1.75-1.91,1.84,1.84,0,0,1-1.75,1.91"/><path class="cls-8" d="M296.75,170.36a1.71,1.71,0,1,1,1.56-1.7,1.64,1.64,0,0,1-1.56,1.7"/><polygon class="cls-9" points="295.79 169.26 295.79 168.06 296.75 167.47 297.69 168.06 297.69 169.26 296.75 169.85 295.79 169.26"/><path class="cls-10" d="M295.79,169.26v-.54a1.38,1.38,0,0,0,.95.47,1.23,1.23,0,0,0,.95-.47v.54l-.94.6Z"/><path class="cls-7" d="M271.15,198.38a1.91,1.91,0,1,1,1.75-1.91,1.83,1.83,0,0,1-1.75,1.91"/><path class="cls-8" d="M271.15,198.18a1.71,1.71,0,1,1,1.57-1.71,1.64,1.64,0,0,1-1.57,1.71"/><polygon class="cls-9" points="270.2 197.07 270.2 195.87 271.15 195.28 272.1 195.87 272.1 197.07 271.15 197.67 270.2 197.07"/><path class="cls-10" d="M270.2,197.08v-.55a1.28,1.28,0,0,0,.94.47,1.22,1.22,0,0,0,1-.47v.55l-1,.59Z"/><polygon class="cls-11" points="255.71 111.25 255.71 135.88 230.82 149.93 230.73 125.63 230.73 125.08 235.23 115.79 235.32 115.61 251.04 106.44 251.04 106.44 251.06 106.46 255.71 111.25"/><path class="cls-12" d="M202,78.11l24.41,14.1.83.48L251,106.44l-15.72,9.16-.2.12L177,82.39l0,0,16.07-9.4Zm-.29,11.49,3.47,1.75.05,0v0l2.43-1.63a6.84,6.84,0,0,1-.07-.91.64.64,0,0,0-.18-.48l0,0a1.74,1.74,0,0,0-.35-.42c-.16-.12-.35-.24-.53-.35-.36-.23-.73-.44-1.11-.64-.76-.4-1.54-.76-2.31-1.15h0l0-2,8,4.48L223.24,95l0,1.86A5.67,5.67,0,0,0,221,95.83a1.53,1.53,0,0,0-1.51.85,4.49,4.49,0,0,0-.39,1.79c0,.29-.05.57-.07.86l.42.21c1.25.64,2.47,1.34,3.64,2.09l1.86.54.11-.07,1.45-.94-.05-4.3,0-3.78.14-.07-.14-.08L201.72,78.34l-1.67,1.27-.23-.12v8.79l1.5.72"/><polygon class="cls-13" points="235.23 115.79 230.72 125.17 172.43 92.27 176.99 82.39 235.12 115.72 235.23 115.79"/><polygon class="cls-14" points="230.72 125.17 230.82 149.93 230.06 150.36 172.57 117.29 172.4 92.34 172.4 92.33 172.43 92.27 230.72 125.17"/><polyline class="cls-15" points="172.49 105.53 230.82 136.31 255.71 121.28"/><polygon class="cls-16" points="226.47 96.86 226.52 101.16 225.07 102.1 224.96 102.03 224.96 93.77 226.43 93.08 226.47 96.86"/><polygon class="cls-17" points="226.43 92.92 226.43 93.08 224.96 93.77 224.96 93.7 200.05 79.61 201.72 78.34 226.43 92.92"/><path class="cls-18" d="M223.2,96.9l-.08,4,0,.7c-1.17-.75-2.39-1.45-3.64-2.09l-.42-.21c0-.29,0-.57.07-.86a4.49,4.49,0,0,1,.39-1.79,1.53,1.53,0,0,1,1.51-.85A5.67,5.67,0,0,1,223.2,96.9Z"/><path class="cls-17" d="M203.13,83.76l0,2h0c-.06,0-.38.14-.44.17s-.3.14-.44.22-.31.18-.46.3l0-3.38Z"/><path class="cls-19" d="M207.67,89.7l-2.43,1.63c0-.39,0-.78,0-1.16a2.25,2.25,0,0,1,.56-1.46,1.49,1.49,0,0,1,1-.56.86.86,0,0,1,.62.16.64.64,0,0,1,.18.48A6.84,6.84,0,0,0,207.67,89.7Z"/><path class="cls-18" d="M207.45,88.28l0,0a.86.86,0,0,0-.62-.16,1.49,1.49,0,0,0-1,.56,2.25,2.25,0,0,0-.56,1.46c0,.38,0,.77,0,1.16l-.05,0-3.47-1.75-.4-.6.42,0,0-2.62c.15-.12.34-.22.46-.3s.29-.15.44-.22.38-.21.44-.17h0c.77.39,1.55.75,2.31,1.15.38.2.75.41,1.11.64.18.11.37.23.53.35A1.74,1.74,0,0,1,207.45,88.28Z"/><path class="cls-20" d="M225,102v.14l-1.86-.54,0-.7.08-4,0-1.86-12.12-6.8-8-4.48L201.82,83l0,3.38-.06,3.2-2.1-1.24.2-6.46V79.79l.23-.18L225,93.7V102Z"/><path class="cls-21" d="M214,128h0a.94.94,0,0,1,.77,0l3.94,1.72a1,1,0,0,1,.32.22l.33.38a.92.92,0,0,1,.24.65l-.13,2.83a1,1,0,0,1-.21.54l-.24.29a.92.92,0,0,1-1.12.24l-3.75-1.9a.9.9,0,0,1-.47-.56l-.15-.55a.69.69,0,0,1,0-.25V128.8A.92.92,0,0,1,214,128Z"/><path class="cls-22" d="M213.7,128.1h0a.93.93,0,0,1,.78,0l3.94,1.71a.9.9,0,0,1,.32.23l.33.38a.9.9,0,0,1,.23.65l-.13,2.83a1,1,0,0,1-.2.54l-.24.29a.91.91,0,0,1-1.12.23l-3.76-1.89a.94.94,0,0,1-.46-.57l-.16-.55a1,1,0,0,1,0-.24v-2.77A.92.92,0,0,1,213.7,128.1Z"/><path class="cls-21" d="M214.42,121.64l.27-.16a1.06,1.06,0,0,1,1.05,0l3.55,1.9a1.07,1.07,0,0,1,.56,1v3.36a1,1,0,0,1-.4.83l-.33.27a1.08,1.08,0,0,1-1.14.13l-3.16-1.55a1.11,1.11,0,0,1-.45-.41l-.42-.73a1,1,0,0,1-.15-.57l.09-3.11A1.05,1.05,0,0,1,214.42,121.64Z"/><path class="cls-22" d="M214.12,121.64l.27-.16a1.06,1.06,0,0,1,1.05,0l3.55,1.9a1.07,1.07,0,0,1,.56,1v3.36a1,1,0,0,1-.4.83l-.33.27a1.08,1.08,0,0,1-1.14.13l-3.16-1.55a1,1,0,0,1-.45-.41l-.43-.73a1,1,0,0,1-.14-.57l.08-3.11A1.06,1.06,0,0,1,214.12,121.64Z"/><polygon class="cls-23" points="217.78 123.65 216.64 125.21 216.64 132.81 217.78 132.05 217.78 123.65"/><polygon class="cls-24" points="217.78 123.65 215.54 122.38 214.36 124.19 216.64 125.21 217.78 123.65"/><polygon class="cls-25" points="216.64 132.81 214.36 131.96 214.36 124.19 216.64 125.21 216.64 132.81"/><polygon class="cls-26" points="216.62 126.28 217.63 126.96 218.94 126.74 217.46 125.73 216.62 126.28"/><polygon class="cls-22" points="216.62 127.95 216.62 126.28 217.63 126.96 217.63 128.44 216.62 127.95"/><polygon class="cls-23" points="218.94 126.74 217.63 126.96 217.63 128.44 218.94 128.18 218.94 126.74"/><path class="cls-21" d="M180.94,110.6h0a.9.9,0,0,1,.77,0l3.94,1.71a1,1,0,0,1,.32.23l.33.38a.92.92,0,0,1,.24.65l-.13,2.83a1,1,0,0,1-.21.54l-.24.29a.92.92,0,0,1-1.12.24l-3.75-1.9a.9.9,0,0,1-.47-.57l-.15-.54a.73.73,0,0,1,0-.25v-2.77A.92.92,0,0,1,180.94,110.6Z"/><path class="cls-22" d="M180.67,110.72h0a.9.9,0,0,1,.77,0l3.94,1.71a.9.9,0,0,1,.32.23l.33.37a.93.93,0,0,1,.23.65l-.13,2.84a.94.94,0,0,1-.2.53l-.24.29a.9.9,0,0,1-1.12.24l-3.75-1.89a.92.92,0,0,1-.47-.57l-.16-.55a1,1,0,0,1,0-.24v-2.78A.91.91,0,0,1,180.67,110.72Z"/><path class="cls-21" d="M181.38,104.25l.28-.16a1.07,1.07,0,0,1,1,0l3.55,1.9a1.07,1.07,0,0,1,.56.94v3.37a1,1,0,0,1-.4.83l-.33.27a1.08,1.08,0,0,1-1.14.13L181.78,110a1.13,1.13,0,0,1-.45-.42l-.42-.72a1,1,0,0,1-.15-.57l.09-3.11A1.08,1.08,0,0,1,181.38,104.25Z"/><path class="cls-22" d="M181.08,104.25l.27-.16a1.09,1.09,0,0,1,1.05,0L186,106a1.07,1.07,0,0,1,.56.94v3.37a1,1,0,0,1-.4.83l-.33.27a1.08,1.08,0,0,1-1.14.13L181.48,110a1.07,1.07,0,0,1-.45-.42l-.43-.72a1,1,0,0,1-.14-.57l.08-3.11A1.12,1.12,0,0,1,181.08,104.25Z"/><polygon class="cls-23" points="184.74 106.26 183.6 107.83 183.6 115.42 184.74 114.66 184.74 106.26"/><polygon class="cls-24" points="184.74 106.26 182.5 105 181.32 106.81 183.6 107.83 184.74 106.26"/><polygon class="cls-25" points="183.6 115.42 181.32 114.58 181.32 106.81 183.6 107.83 183.6 115.42"/><polygon class="cls-26" points="183.58 108.9 184.59 109.58 185.9 109.36 184.42 108.35 183.58 108.9"/><polygon class="cls-22" points="183.58 110.57 183.58 108.9 184.59 109.58 184.59 111.05 183.58 110.57"/><polygon class="cls-23" points="185.9 109.36 184.59 109.58 184.59 111.05 185.9 110.8 185.9 109.36"/><path class="cls-27" d="M201.1,147.87a19.84,19.84,0,0,0-.63-3.14c-1.24-4.28-5.07-17.26-8.58-25.08-2.06-4.61-3.3-7.76-4.38-10.11a19.72,19.72,0,0,0-5.4-7,21.78,21.78,0,0,0-6-3.79,22.17,22.17,0,0,0-11.12-1c-9.39,1.18-14.42,1.31-16.27,1.87-1.82,1.22-9.67,9.29-10.27,16.18-.43,5-.11,11.76,3.32,17.14s17.24,31.15,23.39,31.75c7.19.69,25.67-.1,31.1-4C201.12,157.28,201.65,152.82,201.1,147.87Z"/><path class="cls-28" d="M168.49,163.93c-3.53,0-7.39-1.22-10.79-2.29l-1.25-.4c-5.45-1.69-28.46-20.16-32-25.66-3.35-5.24-3.57-11.86-3.16-16.49.53-6.13,7.1-10.47,9.26-11.9l.69-.46a34,34,0,0,1,12.79-5.65,19.13,19.13,0,0,1,3.77-.38,17.94,17.94,0,0,1,6.75,1.3,20.85,20.85,0,0,1,5.74,3.63,18.76,18.76,0,0,1,5.12,6.66c.48,1,1,2.26,1.6,3.7.73,1.72,1.63,3.86,2.77,6.4,3.51,7.82,7.41,21.07,8.53,25a19.25,19.25,0,0,1,.59,3c.55,4.87,0,8.76-4.41,11.89a10.09,10.09,0,0,1-6,1.73Z"/><path d="M147.83,101.74a17.13,17.13,0,0,1,6.36,1.22,20.27,20.27,0,0,1,5.47,3.47,17.7,17.7,0,0,1,4.83,6.29c.47,1,1,2.26,1.59,3.67.73,1.73,1.64,3.88,2.78,6.43,3.48,7.76,7.37,21,8.47,24.81a16.27,16.27,0,0,1,.57,2.79c.5,4.51,0,8.1-4,10.93a9.1,9.1,0,0,1-5.43,1.54c-3.37,0-7.14-1.19-10.47-2.25l-1.26-.39c-5.17-1.61-28.06-20-31.41-25.23-3.18-5-3.39-11.37-3-15.84.33-3.73,3.29-7.47,8.8-11.12l.24-.16.47-.32a33.19,33.19,0,0,1,12.4-5.48,18.71,18.71,0,0,1,3.57-.36m0-2.08a20.51,20.51,0,0,0-4,.4,36.06,36.06,0,0,0-13.62,6.11c-1.82,1.21-9.35,5.94-9.95,12.83-.44,5-.12,11.76,3.32,17.14s26.63,24.27,32.54,26.1c3.75,1.16,8.21,2.73,12.35,2.73a11.18,11.18,0,0,0,6.63-1.92c4.88-3.45,5.4-7.9,4.85-12.86a19.5,19.5,0,0,0-.63-3.13c-1.23-4.29-5.07-17.27-8.57-25.09-2.07-4.61-3.31-7.76-4.39-10.11a19.72,19.72,0,0,0-5.4-7,21.78,21.78,0,0,0-6-3.79,19,19,0,0,0-7.14-1.37Z"/><ellipse class="cls-29" cx="137.29" cy="123.4" rx="13.88" ry="11.09" transform="translate(11.34 258.36) rotate(-88.93)"/><ellipse class="cls-29" cx="151.05" cy="143.4" rx="9.94" ry="7.94" transform="translate(4.85 291.75) rotate(-88.93)"/><ellipse class="cls-29" cx="166.73" cy="151.52" rx="7.82" ry="6.25" transform="translate(12.12 315.39) rotate(-88.93)"/><ellipse class="cls-30" cx="136.58" cy="123.39" rx="5.18" ry="3.77" transform="translate(10.66 257.64) rotate(-88.93)"/><ellipse class="cls-30" cx="150.69" cy="143.79" rx="4.48" ry="3.26" transform="translate(-27.26 252.04) rotate(-74.97)"/><ellipse class="cls-30" cx="166.72" cy="152.05" rx="3.32" ry="2.41" transform="translate(-23.36 273.64) rotate(-74.97)"/><path class="cls-31" d="M171.29,141.1s-1.65-3.61-7.11-2c-.91-2.33-2.74-8.62-12.37-8.23.54-2.12,4.63-11.22-2.22-20.53,2.86-1.16,4.63-1.94,8,2.58S171.71,140,171.29,141.1Z"/><line class="cls-32" x1="187.46" y1="109.43" x2="165.86" y2="110.8"/><line class="cls-32" x1="175.44" y1="98.46" x2="151.39" y2="99.99"/><polyline class="cls-32" points="147.96 100.21 141.58 100.61 141.58 100.61"/><line class="cls-32" x1="193.24" y1="122.85" x2="171.72" y2="124.21"/><line class="cls-32" x1="197.87" y1="136.14" x2="176.44" y2="137.5"/><line class="cls-32" x1="201.25" y1="149.86" x2="180.07" y2="151.21"/><path class="cls-33" d="M201.76,98.3,171.67,86.56c-5.06-2.16-9-2.79-11.38,1.94h0c-1.83,4.85.45,6.43,4.8,9.15l29,18.82a9.68,9.68,0,0,0,13-4.24h0C209.45,107.51,206.49,100.7,201.76,98.3Z"/><path class="cls-34" d="M199.48,97.37,168.33,84.65c-5.06-2.16-10.93,8.37-6.58,11.09l29,18.82a9.68,9.68,0,0,0,13-4.24h0A9.66,9.66,0,0,0,199.48,97.37Z"/><path class="cls-35" d="M205.94,106.86s.56-1.53-.86-4.21c4-1.15,14-2.49,15.09-1.31.73.8,1.21,2.69,1.6,4.49a2.42,2.42,0,0,1-2.46,3c-4.93-.38-12.5-1.18-12.5-1.18Z"/><path class="cls-36" d="M205,102.58c4-1.14,13.52-3.58,14.6-2.4a12.64,12.64,0,0,1,1.87,4.34,2.38,2.38,0,0,1-2.46,3c-4.93-.37-12.92-.34-13.23-.62A5,5,0,0,0,205,102.58Z"/><path class="cls-35" d="M203.77,113s1.37-.88,1.87-3.87c3.88,1.51,12.66,6.5,12.81,8.08.1,1.08-.67,2.88-1.45,4.55a2.4,2.4,0,0,1-3.78.91c-3.7-3.27-9.25-8.49-9.25-8.49Z"/><path class="cls-36" d="M205.65,109c3.88,1.51,12.93,5.33,13.08,6.92a12.73,12.73,0,0,1-1.15,4.59,2.37,2.37,0,0,1-3.78.92c-3.69-3.28-10.07-8.09-10.15-8.5A5,5,0,0,0,205.65,109Z"/><path class="cls-35" d="M197.31,116s1.62.25,4-1.67c1.9,3.7,5.29,9.82,4.35,11.11-.64.87-.7,1-2.39,1.74a2.48,2.48,0,0,1-3.44-1.82,41,41,0,0,0-3.11-8.35Z"/><path class="cls-36" d="M201.34,114.32c1.9,3.7,6.26,9.13,5.32,10.41a4.32,4.32,0,0,1-2.19,2,2.45,2.45,0,0,1-3.44-1.82c-1.29-4.75-4-8.59-3.79-9A5,5,0,0,0,201.34,114.32Z"/><path class="cls-35" d="M202.8,98.81l1.5,2.73s1,.35,1.19.41c1.24.32,9.64-5.29,8.49-7s-3.21-3.54-3.92-3.4c-.08,0-1,0-1,0S202.25,98.71,202.8,98.81Z"/><path class="cls-36" d="M201.6,98.4a6.66,6.66,0,0,1,1.64,1.41,11,11,0,0,1,1.06,1.73c.63,1.11,9.64-5.29,8.48-7s-3.29-3.17-4-3S201,98.29,201.6,98.4Z"/><ellipse class="cls-37" cx="195.03" cy="105.64" rx="3.77" ry="3.4" transform="translate(-26.77 106.39) rotate(-28.64)"/><path class="cls-38" d="M181.88,89.84S155.7,76.18,143.81,73.68c0,0-32.11-2.82-59.87-2,3.19,2.55,30.87,15.13,34.82,16S171.18,91,181.88,89.84Z"/><path class="cls-39" d="M127.59,85.1S117,78.37,115.9,78s20.81-.37,20.81-.37,10.31,6.34,11,7S127.59,85.1,127.59,85.1Z"/><path class="cls-40" d="M83.6,71.64s-4.12,45.74-1.09,57.45c3.32,3,26.57,14.51,34.12,14.76,1-5.22,3.74-52.26,1.79-56.15C115.69,85.41,95,75.3,83.6,71.64Z"/><path class="cls-30" d="M181.88,89.84s.07,23.45-1.37,40.61c-.55,6.61-7.14,12.83-8.22,13-2.5,2.14-59.26,2.56-62.49.22a18.4,18.4,0,0,0,6.58-13.79c.31-11.41,1.61-28.41,2-42.22C120.52,86.7,172,88,181.88,89.84Z"/><path class="cls-41" d="M130.5,60.9,126,77.61l14.59,4.06c2.45.65,5.43-2.56,6.67-7.17s.24-8.89-2.21-9.54a3.17,3.17,0,0,0-2.56.56Z"/><path class="cls-42" d="M186.86,84.79s-6.89.81-16.24-2.74c-4.15-1.58-9-4.74-13.57-8C142.18,63.5,139.5,51.4,139.5,51.4s6.92-10.43,9.09-14,11.13-7.94,11.13-7.94Z"/><path class="cls-42" d="M84.35,46.19S86.09,53,97.4,55.53,126.13,58,126.13,58L140,47.18Z"/><path class="cls-30" d="M155.61,31.64l-7-3.56L143.74,46.8l5.56,1.49S153.06,37.73,155.61,31.64Z"/><polygon class="cls-43" points="149.3 48.29 144.32 52.28 140.35 51.22 143.74 46.8 149.3 48.29"/><polygon class="cls-44" points="153.65 49.45 138.41 45.38 132.21 72.49 146.75 76.02 153.65 49.45"/><path class="cls-45" d="M149.32,48.12l-.45,3.33a.55.55,0,0,0,.11.44l3.15,3.94a.58.58,0,0,0,1-.13l.37-.86a.57.57,0,0,0,0-.51l-3.06-6.4A.57.57,0,0,0,149.32,48.12Z"/><polygon class="cls-46" points="126.13 58.03 125.96 64.48 132.21 72.49 138.41 45.38 126.13 58.03"/><path class="cls-42" d="M143.42,47.22s-1.08,3-1.85,3.34a89.58,89.58,0,0,1-11.28,1.59c-1-.13-.23-2.41-.23-2.41Z"/><path class="cls-47" d="M143.42,47.22s-1.31,3.65-2.15,3.42c-1.14.23-9.49,1.5-9.49,1.5"/><path class="cls-48" d="M113.54,50.12c-12.5,0-22.18-1.08-26.57-3a2.07,2.07,0,0,1-1.23-2.08c.5-5.55,2.27-19.51,8.11-29.3a2.09,2.09,0,0,1,1.79-1h.15c6.28.45,28.46,2.5,50.09,9.93a2.07,2.07,0,0,1,1.37,2.24c-1,6.8-3.79,17.38-5.43,20.46C140.2,48.53,128.85,50.12,113.54,50.12Z"/><path class="cls-49" d="M95.64,13.22l0,3c6.24.45,28.25,2.48,49.71,9.85a.56.56,0,0,1,.36.6c-1,6.75-3.59,16.35-5.06,19.54-2.57,1-13.48,2.37-27.15,2.37-12.12,0-21.83-1.07-26-2.85a.56.56,0,0,1-.32-.56c.48-5.44,2.22-19.13,7.9-28.66a.58.58,0,0,1,.49-.29v-3m0,0A3.61,3.61,0,0,0,92.55,15c-6,10.12-7.83,24.54-8.31,29.94a3.57,3.57,0,0,0,2.13,3.6c5.16,2.22,16.19,3.09,27.17,3.09,14.28,0,28.47-1.48,29.54-3.41,1.76-3.17,4.68-14.3,5.66-21.09a3.57,3.57,0,0,0-2.37-3.89c-21.67-7.44-43.67-9.52-50.47-10Z"/><polygon class="cls-44" points="145.8 78.44 144.48 84.36 127.82 84.36 130.37 75.35 145.8 78.44"/><polygon class="cls-46" points="123.36 70.77 117.88 78.27 127.82 84.36 130.37 75.35 123.36 70.77"/><ellipse class="cls-50" cx="128.27" cy="69.25" rx="8.65" ry="4.59" transform="translate(28.26 175.31) rotate(-75.04)"/><path class="cls-51" d="M149.52,47.85s-.81,3.7-.54,4l3.15,3.94"/><path class="cls-48" d="M185.7,83.32a2,2,0,0,1-.64-.11c-11.56-4-35.07-28.73-35.65-32.9.84-3.29,6-13.18,9.79-18.76a2,2,0,0,1,1.65-.87,1.92,1.92,0,0,1,.78.17,174.08,174.08,0,0,1,38.71,22.62,2,2,0,0,1,.71,2c-2.3,11.15-10.39,22.64-13.77,27.07a2,2,0,0,1-1.58.79Z"/><path class="cls-49" d="M160.85,32.27l.15,0a172.62,172.62,0,0,1,38.35,22.41.43.43,0,0,1,.15.43C197.27,66,189.33,77.23,186,81.57a.42.42,0,0,1-.32.16l-.12,0C181,80.12,173,74.13,164.66,66.08c-7.79-7.53-12.69-13.76-13.58-15.81,1-3.31,5.6-12.18,9.43-17.82a.4.4,0,0,1,.34-.18m0-3.17a3.57,3.57,0,0,0-3,1.56c-3.86,5.67-9.21,15.86-10,19.39-.9,3.8,24.49,30.42,36.7,34.66a3.58,3.58,0,0,0,4-1.22c3.29-4.31,11.69-16.16,14.06-27.71a3.6,3.6,0,0,0-1.28-3.56c-5.35-4.23-18-13.71-39.06-22.83a3.49,3.49,0,0,0-1.41-.29Z"/><path class="cls-52" d="M126,46.54a10,10,0,0,1-2.43-.3A10.4,10.4,0,0,1,117,41.06a12.29,12.29,0,0,1-1.11-9c1.34-5.4,5.86-9.18,11-9.18a9.92,9.92,0,0,1,2.43.3,10.38,10.38,0,0,1,6.63,5.18A12.27,12.27,0,0,1,137,37.35,11.62,11.62,0,0,1,126,46.54Z"/><path class="cls-53" d="M126.85,24.21a8.85,8.85,0,0,1,2.12.26A9.17,9.17,0,0,1,134.79,29a11.07,11.07,0,0,1,1,8c-1.18,4.76-5.28,8.21-9.76,8.21A8.43,8.43,0,0,1,123.9,45a9.1,9.1,0,0,1-5.81-4.55,11,11,0,0,1-1-8c1.17-4.75,5.28-8.21,9.75-8.21m0-2.57c-5.57,0-10.75,4.11-12.25,10.17-1.74,7,2.15,14.06,8.68,15.68a11.66,11.66,0,0,0,2.74.33c5.58,0,10.75-4.1,12.25-10.16,1.74-7-2.14-14.07-8.68-15.68a11.17,11.17,0,0,0-2.74-.34Z"/><path class="cls-52" d="M168.33,62.85a10,10,0,0,1-4.62-1.11,10.39,10.39,0,0,1-5.28-6.54,12.32,12.32,0,0,1,.94-9,12,12,0,0,1,10.48-6.72,10.12,10.12,0,0,1,4.62,1.11c5.36,2.73,7.31,9.69,4.34,15.51a12,12,0,0,1-10.48,6.72Z"/><path class="cls-53" d="M169.85,40.8a8.84,8.84,0,0,1,4,1c4.73,2.41,6.42,8.6,3.77,13.79a10.72,10.72,0,0,1-9.33,6,8.84,8.84,0,0,1-4-1c-4.73-2.41-6.42-8.59-3.77-13.79a10.72,10.72,0,0,1,9.33-6m0-2.57a13.23,13.23,0,0,0-11.62,7.42c-3.3,6.46-1.1,14.18,4.89,17.24a11.5,11.5,0,0,0,5.21,1.24A13.22,13.22,0,0,0,180,56.72c3.3-6.47,1.11-14.19-4.89-17.25a11.5,11.5,0,0,0-5.21-1.24Z"/><ellipse class="cls-54" cx="127.82" cy="69.62" rx="4.32" ry="1.99" transform="translate(29.54 176.99) rotate(-76.11)"/><path class="cls-55" d="M147.3,74.5c6.75,1.22,34.58,15.34,34.58,15.34s-.17,38.27-1.37,40.61c-.56,2.77-.73,6.26-7.22,12.42-2.1,1-3,3.69-44.83,2.42"/><path class="cls-55" d="M122.25,72.2S85.17,71,83.6,71.64c0,0-2.33,31.75-2.07,33.65"/><ellipse class="cls-56" cx="169.49" cy="55.83" rx="5.4" ry="4.55" transform="matrix(0.26, -0.97, 0.97, 0.26, 71.62, 205.04)"/><ellipse class="cls-56" cx="125.96" cy="29.84" rx="5.4" ry="4.55" transform="translate(91.91 154.72) rotate(-88.08)"/><path class="cls-57" d="M131.7,102l36.57.38a2.71,2.71,0,0,1,2.68,2.9l-1.44,21.65a2.73,2.73,0,0,1-2.74,2.54l-36.61-.37a2.74,2.74,0,0,1-2.69-2.91L129,104.51A2.73,2.73,0,0,1,131.7,102Z"/><path class="cls-58" d="M131.08,103l36.65.29a2.12,2.12,0,0,1,2.09,2.26l-1.45,21.77a2.11,2.11,0,0,1-2.13,2l-36.64-.24a2.12,2.12,0,0,1-2.1-2.26L129,105A2.12,2.12,0,0,1,131.08,103Z"/><path class="cls-59" d="M154.3,114.21l-22.55-.39a1.37,1.37,0,0,1-1.32-1.4l.48-6.4a1.36,1.36,0,0,1,1.4-1.32l22.54.39a1.35,1.35,0,0,1,1.32,1.39l-.47,6.4A1.37,1.37,0,0,1,154.3,114.21Z"/><ellipse class="cls-60" cx="135.78" cy="109.37" rx="3.29" ry="2.63" transform="translate(20.77 240.4) rotate(-87.58)"/><ellipse class="cls-61" cx="143.73" cy="109.44" rx="3.29" ry="2.63" transform="translate(28.31 248.42) rotate(-87.58)"/><ellipse class="cls-61" cx="151.52" cy="109.74" rx="3.29" ry="2.63" transform="translate(35.46 256.48) rotate(-87.58)"/><path class="cls-62" d="M149.58,119.62l-17.76-.23a1.42,1.42,0,0,1-1.37-1.46h0a1.42,1.42,0,0,1,1.46-1.37l17.75.23a1.41,1.41,0,0,1,1.37,1.46h0A1.42,1.42,0,0,1,149.58,119.62Z"/><path class="cls-63" d="M139.14,128l-7.88-.14a1.43,1.43,0,0,1-1.38-1.46h0a1.43,1.43,0,0,1,1.46-1.38l7.88.15a1.43,1.43,0,0,1,1.38,1.46h0A1.42,1.42,0,0,1,139.14,128Z"/><path class="cls-63" d="M139.4,124.07l-7.88-.15a1.41,1.41,0,0,1-1.37-1.46h0a1.42,1.42,0,0,1,1.45-1.37l7.89.15a1.42,1.42,0,0,1,1.37,1.45h0A1.43,1.43,0,0,1,139.4,124.07Z"/><polygon class="cls-64" points="169.83 105.34 180.7 108.47 179.24 130.35 178.51 130.88 168.57 126.94 169.42 105.49 169.83 105.34"/><polygon class="cls-65" points="169.42 105.49 179.97 109 178.51 130.88 167.84 127.47 169.42 105.49"/><path class="cls-66" d="M130.45,117.93a10.79,10.79,0,0,1,5.93.4c2.8,1.16,3.1-1.4,4.43-1.28s1.51,2.09,3.32,2,1.27-.8,2.13-.74.79,1,1.61.9,1.32-2.53,1.79-2.43"/><polygon class="cls-67" points="158.7 105.34 169.49 105.37 168.02 127.48 157.13 127.32 158.7 105.34"/><path class="cls-27" d="M130.83,154.29a17.72,17.72,0,0,0-.63-3.13c-1.23-4.29-5.06-17.27-8.57-25.09-2.06-4.6-3.31-7.75-4.38-10.11a19.68,19.68,0,0,0-5.4-7,21.85,21.85,0,0,0-6-3.79,21.91,21.91,0,0,0-11.11-1c-9.4,1.18-14.43,1.31-16.27,1.87-1.82,1.21-9.67,9.29-10.27,16.18-.43,5-.11,11.75,3.32,17.14S88.74,170.5,94.89,171.1c7.18.7,25.67-.1,31.1-3.94C130.86,163.7,131.39,159.25,130.83,154.29Z"/><path class="cls-28" d="M98.23,170.35c-3.53,0-7.38-1.21-10.79-2.28l-1.26-.4c-5.44-1.69-28.45-20.16-32-25.67-3.34-5.23-3.56-11.85-3.16-16.48.36-4.07,3.48-8.07,9.27-11.9l.69-.47a34,34,0,0,1,12.78-5.64,19.31,19.31,0,0,1,3.78-.38,18.13,18.13,0,0,1,6.75,1.29,21.33,21.33,0,0,1,5.74,3.63,18.74,18.74,0,0,1,5.11,6.67c.48,1,1,2.26,1.6,3.69.73,1.72,1.64,3.86,2.78,6.41,3.51,7.84,7.41,21.08,8.52,25a18.07,18.07,0,0,1,.6,3c.55,4.88,0,8.77-4.41,11.9a10.08,10.08,0,0,1-6,1.72Z"/><path d="M77.57,108.17a16.85,16.85,0,0,1,6.35,1.22,19.88,19.88,0,0,1,5.47,3.47,17.84,17.84,0,0,1,4.84,6.29c.47,1,1,2.25,1.58,3.67.74,1.72,1.65,3.87,2.79,6.43,3.48,7.76,7.36,20.95,8.47,24.81a16.81,16.81,0,0,1,.56,2.79c.51,4.51,0,8.09-4,10.93a9.06,9.06,0,0,1-5.42,1.53c-3.37,0-7.14-1.19-10.47-2.24l-1.27-.4c-5.16-1.6-28-20-31.4-25.23-3.18-5-3.39-11.36-3-15.83.33-3.73,3.29-7.48,8.8-11.13l.24-.15.47-.32A33.11,33.11,0,0,1,74,108.53a17.94,17.94,0,0,1,3.57-.36m0-2.08a19.76,19.76,0,0,0-4,.4A35.93,35.93,0,0,0,60,112.59c-1.82,1.22-9.35,6-9.95,12.84-.44,5-.12,11.75,3.32,17.13S80,166.83,85.88,168.66c3.75,1.17,8.21,2.74,12.35,2.74a11.18,11.18,0,0,0,6.63-1.92c4.87-3.45,5.4-7.91,4.85-12.86a19.62,19.62,0,0,0-.63-3.14c-1.24-4.29-5.07-17.27-8.58-25.08-2.06-4.61-3.3-7.76-4.38-10.12a19.77,19.77,0,0,0-5.4-7,21.94,21.94,0,0,0-6-3.79,19.08,19.08,0,0,0-7.14-1.37Z"/><ellipse class="cls-29" cx="67.03" cy="129.83" rx="13.88" ry="11.09" transform="translate(-64.03 194.42) rotate(-88.93)"/><ellipse class="cls-29" cx="80.79" cy="149.83" rx="9.94" ry="7.94" transform="translate(-70.52 227.8) rotate(-88.93)"/><ellipse class="cls-29" cx="96.47" cy="157.95" rx="7.82" ry="6.25" transform="translate(-63.25 251.45) rotate(-88.93)"/><ellipse class="cls-30" cx="66.32" cy="129.82" rx="5.18" ry="3.77" transform="translate(-64.71 193.7) rotate(-88.93)"/><ellipse class="cls-30" cx="80.43" cy="150.22" rx="4.48" ry="3.26" transform="translate(-85.51 188.94) rotate(-74.97)"/><ellipse class="cls-30" cx="96.46" cy="158.48" rx="3.32" ry="2.41" transform="matrix(0.26, -0.97, 0.97, 0.26, -81.61, 210.54)"/><path class="cls-31" d="M101,147.53s-1.65-3.61-7.12-2c-.9-2.33-2.73-8.62-12.36-8.22.54-2.12,4.62-11.22-2.22-20.53,2.86-1.16,4.62-1.94,8,2.58S101.45,146.45,101,147.53Z"/><line class="cls-32" x1="117.2" y1="115.85" x2="95.6" y2="117.22"/><line class="cls-32" x1="105.17" y1="104.89" x2="81.13" y2="106.42"/><polyline class="cls-32" points="77.7 106.63 71.32 107.04 71.31 107.04"/><line class="cls-32" x1="122.98" y1="129.27" x2="101.46" y2="130.64"/><line class="cls-32" x1="127.61" y1="142.56" x2="106.18" y2="143.92"/><line class="cls-32" x1="130.99" y1="156.29" x2="109.8" y2="157.63"/><path class="cls-68" d="M167.18,124.89l-8.38-.43a.69.69,0,0,1-.63-.76l.78-16.09a.69.69,0,0,1,.69-.7l8.39.42a.7.7,0,0,1,.62.77l-.77,16.09A.7.7,0,0,1,167.18,124.89Z"/><path class="cls-69" d="M166.52,124.85l-8.38-.42a.7.7,0,0,1-.62-.77l.77-16.09a.7.7,0,0,1,.7-.7l8.38.43a.71.71,0,0,1,.63.76l-.78,16.1A.69.69,0,0,1,166.52,124.85Z"/><g id="Rectangle_6" data-name="Rectangle 6"><path class="cls-70" d="M167.43,110.66l0-.94-1.58-.09.09-1.76-.85,0-.09,1.75-.77,0,.09-1.76-.82,0-.09,1.76-.79,0,.09-1.75-.82,0-.09,1.76-1.61-.09-.05.94,1.61.09,0,.84-1.62-.08,0,.91,1.61.08,0,.88-1.62-.09-.05.91,1.62.09-.09,1.79.82,0,.09-1.78.79,0-.09,1.79.82,0,.09-1.78.77,0-.09,1.78.84.05.1-1.79,1.58.09.05-.91-1.59-.09,0-.87,1.58.08,0-.91-1.58-.08,0-.85Zm-4.81-.27.79,0,0,.84-.79,0Zm-.13,2.64,0-.88.79,0,0,.88Zm2.37.13-.76,0,0-.88.77,0Zm.1-1.79-.77,0,.05-.85.76,0Z"/></g><g id="Rounded_Rectangle_2" data-name="Rounded Rectangle 2"><polygon class="cls-71" points="161.24 114.31 161.52 108.94 166.28 109.21 166 114.58 161.24 114.31"/><path class="cls-72" d="M161.93,109.4l3.89.22-.23,4.5-3.89-.22.23-4.5m-.56-.9a.29.29,0,0,0-.28.3l-.29,5.61a.3.3,0,0,0,.26.33l5.07.28h0a.3.3,0,0,0,.28-.3l.29-5.61a.3.3,0,0,0-.27-.33l-5.07-.28Z"/></g><g id="Rounded_Rectangle_3" data-name="Rounded Rectangle 3"><path class="cls-73" d="M166.14,117.79l-1.61-.08a.72.72,0,0,0-.72.71l-.26,5a.73.73,0,0,0,.64.79l1.62.09a.71.71,0,0,0,.71-.72l.26-5A.72.72,0,0,0,166.14,117.79Z"/></g><g id="Rectangle_8" data-name="Rectangle 8"><polygon class="cls-73" points="163.89 123.76 164.22 118.15 166.5 118.32 166.18 123.89 163.89 123.76"/><path class="cls-74" d="M164.25,118.23l2.17.12-.28,5.5-2.17-.12.28-5.5m-.07-.08-.29,5.65,2.32.12.29-5.64-2.32-.13Z"/></g><g id="Rounded_Rectangle_3_copy" data-name="Rounded Rectangle 3 copy"><path class="cls-73" d="M161.25,116.39l-1.13-.06a.42.42,0,0,0-.42.42l-.29,5.66a.41.41,0,0,0,.37.46l1.13.07a.42.42,0,0,0,.42-.42l.29-5.67A.43.43,0,0,0,161.25,116.39Z"/></g><g id="Ellipse_1_copy_2_Rectangle_7_copy_Clipping_Path" data-name="Ellipse 1 copy 2 + Rectangle 7 copy Clipping Path"><path class="cls-75" d="M165.15,121.7a.88.88,0,0,0-.87.87.83.83,0,1,0,.87-.87Z"/></g><g id="Rounded_Rectangle_4" data-name="Rounded Rectangle 4"><path class="cls-76" d="M161,121.84l-1.07,0a.29.29,0,0,0-.3.29l0,.29a.29.29,0,0,0,.27.32l1.08.06a.3.3,0,0,0,.3-.29v-.29A.3.3,0,0,0,161,121.84Z"/></g><g id="Shape_5" data-name="Shape 5"><polygon class="cls-73" points="162 115.67 161.85 115.67 161.79 116.92 161.49 116.9 161.48 117.06 161.79 117.08 161.71 118.71 161.4 118.69 161.39 118.85 161.7 118.87 161.63 120.47 161.31 120.45 161.3 120.61 161.62 120.62 161.54 122.32 161.21 122.3 161.21 122.46 161.66 122.48 161.66 122.39 161.68 122.39 162 115.67"/></g><g id="Shape_5_copy" data-name="Shape 5 copy"><polygon class="cls-73" points="159.7 117 159.71 116.84 159.4 116.82 159.47 115.57 159.33 115.56 158.96 122.27 158.97 122.27 158.97 122.36 159.42 122.39 159.43 122.23 159.1 122.22 159.2 120.52 159.52 120.54 159.52 120.38 159.21 120.36 159.29 118.77 159.61 118.78 159.61 118.63 159.3 118.61 159.4 116.98 159.7 117"/></g><g id="Shape_5_copy_2" data-name="Shape 5 copy 2"><path class="cls-73" d="M159.75,109.67h-.14l-.28,5.9h.14l.1-2.14.48,0v-.16l-.48,0,.08-1.63.48,0v-.15l-.49,0Zm0,0v.16l.45,0v-.16Z"/></g><g id="Shape_6" data-name="Shape 6"><polygon class="cls-73" points="167.7 110.17 167.08 122.81 167.22 122.82 167.84 110.17 167.7 110.17"/></g><g id="Shape_7" data-name="Shape 7"><polygon class="cls-73" points="166.56 122.62 166.56 122.78 167.12 122.81 167.13 122.65 166.56 122.62"/></g><g id="Shape_8" data-name="Shape 8"><polygon class="cls-73" points="166.75 119.55 166.74 119.71 167.31 119.74 167.31 119.58 166.75 119.55"/></g><g id="Shape_9" data-name="Shape 9"><polygon class="cls-73" points="167.28 113.7 167.27 113.86 167.64 113.88 167.65 113.72 167.28 113.7"/></g><g id="Shape_10" data-name="Shape 10"><polygon class="cls-73" points="167.34 111.91 167.33 112.07 167.76 112.09 167.77 111.93 167.34 111.91"/></g><g id="Shape_11" data-name="Shape 11"><polygon class="cls-73" points="167.46 110.15 167.45 110.31 167.85 110.33 167.86 110.18 167.46 110.15"/></g><g id="Rounded_Rectangle_5" data-name="Rounded Rectangle 5"><path class="cls-77" d="M161.05,120.06,160,120a.29.29,0,0,0-.3.3v.28a.3.3,0,0,0,.26.33L161,121a.31.31,0,0,0,.3-.3v-.28A.3.3,0,0,0,161.05,120.06Z"/></g><g id="Rounded_Rectangle_6" data-name="Rounded Rectangle 6"><path class="cls-78" d="M161.14,118.27l-1.08-.06a.3.3,0,0,0-.3.3v.31a.3.3,0,0,0,.26.33l1.08.06a.3.3,0,0,0,.3-.3v-.31A.3.3,0,0,0,161.14,118.27Z"/></g><g id="Rounded_Rectangle_7" data-name="Rounded Rectangle 7"><path class="cls-79" d="M161.23,116.51l-1.08-.06a.31.31,0,0,0-.3.3V117a.3.3,0,0,0,.27.33l1.07.06a.29.29,0,0,0,.3-.3v-.28A.3.3,0,0,0,161.23,116.51Z"/></g><path class="cls-80" d="M165.25,120.57a.85.85,0,0,1-.35-.08,1,1,0,0,1-.43-1.28.87.87,0,0,1,.79-.58.85.85,0,0,1,.35.08,1,1,0,0,1,.47.59,1.12,1.12,0,0,1,0,.7A.86.86,0,0,1,165.25,120.57Z"/><path class="cls-81" d="M165.26,118.74h0a.63.63,0,0,1,.3.07.8.8,0,0,1,.42.52,1,1,0,0,1,0,.63.77.77,0,0,1-.69.51.73.73,0,0,1-.3-.07.91.91,0,0,1-.39-1.15.78.78,0,0,1,.7-.51m0-.21a1,1,0,0,0-.89.64,1.11,1.11,0,0,0,.49,1.41.78.78,0,0,0,.39.1,1,1,0,0,0,.89-.64h0a1.21,1.21,0,0,0,0-.77,1,1,0,0,0-.53-.65.89.89,0,0,0-.39-.09Z"/><path class="cls-80" d="M166.18,119.27a1.21,1.21,0,0,1,0,.77h0l-.23,0,.05-.75Z"/><path class="cls-80" d="M165.1,123.26a.57.57,0,0,1-.25-.06.74.74,0,0,1-.31-.94.63.63,0,0,1,.58-.42.57.57,0,0,1,.25.06.68.68,0,0,1,.34.43.81.81,0,0,1,0,.51A.67.67,0,0,1,165.1,123.26Z"/><path class="cls-81" d="M165.12,121.92h0a.41.41,0,0,1,.21,0,.6.6,0,0,1,.31.38.73.73,0,0,1,0,.46.55.55,0,0,1-.51.37.54.54,0,0,1-.21-.05.65.65,0,0,1-.28-.84.55.55,0,0,1,.51-.37m0-.16a.73.73,0,0,0-.66.47.82.82,0,0,0,.36,1,.71.71,0,0,0,.28.06.72.72,0,0,0,.66-.46h0a.87.87,0,0,0,0-.55.76.76,0,0,0-.39-.48.58.58,0,0,0-.28-.07Z"/><path class="cls-80" d="M165.79,122.31a.87.87,0,0,1,0,.55h0l-.17,0,0-.54Z"/><line class="cls-82" x1="155.61" y1="31.64" x2="148.51" y2="28.04"/><path class="cls-33" d="M62.27,103.22,86.64,82c4-3.74,7.51-5.66,11.36-2h0c3.36,4,1.75,6.21-1.43,10.24l-21,27.5a9.65,9.65,0,0,1-13.62.38h0C58.13,114.48,58.62,107.08,62.27,103.22Z"/><path class="cls-34" d="M64.1,101.58l25-22.49c4-3.73,13.12,4.2,9.94,8.23l-21,27.49a9.67,9.67,0,0,1-13.63.39h0A9.66,9.66,0,0,1,64.1,101.58Z"/><path class="cls-35" d="M61.23,112.69s-1-1.25-.62-4.26c-4.15.28-14,2.39-14.65,3.86-.42,1-.23,2.94,0,4.77a2.4,2.4,0,0,0,3.33,2c4.51-2,11.37-5.32,11.37-5.32Z"/><path class="cls-36" d="M60.63,108.36c-4.16.27-13.94,1.19-14.56,2.66a12.71,12.71,0,0,0-.29,4.72,2.36,2.36,0,0,0,3.33,2c4.51-2,12-4.68,12.24-5A5,5,0,0,1,60.63,108.36Z"/><path class="cls-35" d="M65.33,117.71s-1.59-.36-3.07-3c-3.14,2.74-9.72,10.39-9.33,11.94.27,1.05,1.6,2.48,2.89,3.79a2.4,2.4,0,0,0,3.87-.42c2.38-4.33,5.84-11.11,5.84-11.11Z"/><path class="cls-36" d="M62.23,114.63c-3.14,2.73-10.38,9.38-10,10.92a12.63,12.63,0,0,0,2.62,3.94,2.37,2.37,0,0,0,3.87-.42c2.38-4.33,6.76-11,6.7-11.42A4.94,4.94,0,0,1,62.23,114.63Z"/><path class="cls-35" d="M72.44,118.42s-1.44.78-4.3-.23c-.54,4.13-1.66,11-.34,11.92.89.61,1,.72,2.83.84a2.49,2.49,0,0,0,2.63-2.88,41.39,41.39,0,0,1,.11-8.91Z"/><path class="cls-36" d="M68.07,118.16c-.54,4.13-2.82,10.71-1.5,11.6a4.33,4.33,0,0,0,2.74,1.12A2.45,2.45,0,0,0,71.93,128c-.39-4.91.87-9.44.55-9.71A5,5,0,0,1,68.07,118.16Z"/><path class="cls-35" d="M61.46,104.06,61,107.13s-.8.66-1,.79c-1.06.72-10.87-1.73-10.34-3.71s1.83-4.41,2.54-4.51c.08,0,1-.39,1-.39S62,103.77,61.46,104.06Z"/><path class="cls-36" d="M62.45,103.27a6.73,6.73,0,0,0-1.07,1.87,11.62,11.62,0,0,0-.41,2c-.21,1.26-10.86-1.73-10.33-3.7s2-4.1,2.73-4.2S63,102.94,62.45,103.27Z"/><ellipse class="cls-37" cx="71.08" cy="107.86" rx="3.4" ry="3.77" transform="translate(-46.49 161.36) rotate(-81.08)"/><ellipse class="cls-83" cx="169.18" cy="86.24" rx="1.11" ry="3.64" transform="translate(46.76 231.4) rotate(-76.87)"/><path class="cls-75" d="M162.19,122.62a1.25,1.25,0,0,1,.35.58"/><path d="M215.94,15.73h6.77a2,2,0,0,1,2,2v2.45a0,0,0,0,1,0,0H213.9a0,0,0,0,1,0,0V17.77A2,2,0,0,1,215.94,15.73Z"/><rect x="207.54" y="21.24" width="24.02" height="51.55" rx="4.43"/><path d="M227.21,72.63h-13c-2.94,0-5.82-.74-6.47-4.41a18.29,18.29,0,0,1,0-3.14V34.46c0-2.45-.76-6.33,0-8.69.29-.9,3.77-4.15,4.62-4.37a11.06,11.06,0,0,1,2.44,0h8.83c2.7,0,6.23-.6,7.48,3.16a11.47,11.47,0,0,1,.16,3.36V59.57c0,3.49,1.61,12.28-4.17,13.06-.25,0-.38.37-.05.32,4.29-.58,4.7-3.73,4.7-7.34V29.19c0-3.11.36-6.85-3.41-8-2-.6-4.73-.16-6.8-.16-3,0-6.19-.29-9.2,0-3.57.34-5,2.38-5.09,5.82-.35,11.88,0,23.82,0,35.71,0,3.51-1,8.82,3.36,10.17,2.19.69,5.11.17,7.33.17h9C227.25,73,227.54,72.63,227.21,72.63Z"/><rect class="cls-74" x="208.66" y="22.4" width="21.78" height="49.06" rx="3.54"/><path class="cls-84" d="M229.9,66.62v1.45A3.18,3.18,0,0,1,226.53,71h-14a3.18,3.18,0,0,1-3.38-2.91V63.3Z"/><path class="cls-74" d="M218.83,37.47a.84.84,0,0,1,1.45,0l3.49,6.05,3.49,6a.84.84,0,0,1-.72,1.26h-14a.84.84,0,0,1-.73-1.26l3.5-6Z"/><path d="M219.05,37.46c1-.87,3.59,4.59,4,5.28l2.23,3.87c.41.71,1.5,2,1.62,2.8.18,1.27-.29,1.09-1.17,1.31-1.75.45-4.19,0-6,0a46.28,46.28,0,0,1-5.77,0c-2.87-.36-1.29-2.18-.27-3.95l5.4-9.34c0-.07-.41,0-.48.08l-5.39,9.35c-.47.81-2.33,2.91-1.38,3.86s4.49.21,5.58.21H222c1.28,0,3.34.4,4.58,0,2.61-.9-1.72-6-2.57-7.48-1-1.71-1.92-4.46-3.34-5.79-.78-.73-1.19-.86-2-.15C218.51,37.58,219,37.53,219.05,37.46Z"/><path class="cls-85" d="M218.94,39.21a.69.69,0,0,1,1.19,0l2.86,5,2.86,5a.68.68,0,0,1-.59,1H213.8a.69.69,0,0,1-.59-1l2.86-5Z"/><path d="M219.38,40.5c0,1.73,0,3.45-.07,5.17,0,.11.48,0,.49-.13q.12-2.58.06-5.16c0-.12-.49,0-.48.12Z"/><path d="M219.4,47.57a.34.34,0,0,0-.1.23c0,.13.21.1.27.08a.55.55,0,0,0,.46-.38c0-.08-.1-.1-.14-.1s-.6.05-.59.31.36.2.51.11c.6-.33-.28-.76-.48-.22-.05.15.43.09.49-.07l0-.07-.21.15-.07,0,.26,0h-.12l-.15-.11-.05.09.28.09.07-.16c.13-.17-.36-.13-.45,0Z"/><path class="cls-86" d="M189.32,135.53l2.49-1.6,4.76.61,2.84,2.94L220,148s2-2.24,2.41-1.78c.78.38,2,1.13,2,1.13l1.24,2.9,2.82,1.51s1.75-1.39,3-.64,11.6,5.68,11.6,5.68a5,5,0,0,1,.07,3.73C242.32,162.39,189.32,135.53,189.32,135.53Z"/><g id="Rounded_Rectangle_1_Rounded_Rectangle_4_Clipping_Path" data-name="Rounded Rectangle 1 + Rounded Rectangle 4 Clipping Path"><path class="cls-52" d="M242.83,158.91l-12.43-6.4c-.81-.41-2.44.84-3.18.46L225,151.83c-.91-.47-.83-2.53-1.41-2.83l-1.13-.58a1.16,1.16,0,0,0-1.56.5l-3.58,7a1.16,1.16,0,0,0,.5,1.55l1.26.65c.58.3,2.25-1.09,3.13-.63l2.18,1.11c.73.38.59,2.56,1.39,3l12.42,6.4a1.16,1.16,0,0,0,1.56-.5l3.58-6.95A1.16,1.16,0,0,0,242.83,158.91Z"/></g><g id="Rectangle_1" data-name="Rectangle 1"><polygon class="cls-87" points="197.63 139.12 194.93 136.53 189.32 135.53 188.14 137.83 192.28 141.96 195.92 142.53 218.26 154.03 220.01 150.64 197.63 139.12"/></g><g id="Rectangle_1_copy" data-name="Rectangle 1 copy"><polygon class="cls-88" points="194.49 136.98 190 136.19 189.06 138.02 192.38 141.32 199.99 142.55 194.49 136.98"/></g><rect class="cls-89" x="233.19" y="152.95" width="2.93" height="14.85" rx="1.46" transform="translate(-15.35 295.58) rotate(-62.76)"/><path class="cls-89" d="M231.43,154.52l9.52,4.9a1.32,1.32,0,0,0,1.77-.57l-11.85-6.1A1.32,1.32,0,0,0,231.43,154.52Z"/><path class="cls-89" d="M228,161.19l9.52,4.9a1.32,1.32,0,0,1,.56,1.77l-11.85-6.1A1.32,1.32,0,0,1,228,161.19Z"/><path class="cls-69" d="M225,98.5l-1.74.47s-1.36,6.8,2.24,9.92c1.25,1,.85.81,2,1.29.62,0,1.8.91,2.45,2.54s7.65,21,8.63,27.15a4.6,4.6,0,0,0-1.57,5.81,39.38,39.38,0,0,0,3.29,5.31l1.15-.45s-1.72-5-.11-6.65,3.37-2.42,5.35-1.39a9.22,9.22,0,0,1,2.9,6.43h1.19s1.83-5.81-.47-8.85-4.76-3.7-5.83-3.37c-.34-1.84-9-25.07-8.37-27.16,0-1.19,0-2,0-2s3.27-3.17,1.14-6.86-2.06-3.45-3.34-4.54a6.92,6.92,0,0,0-1.53.34s2.87,4,.71,6.78c0,0-2.71,3.27-5.5,1.37S225,98.5,225,98.5Z"/><path class="cls-90" d="M225.33,98.17l-1.1.39s-1.36,6.8,2.25,9.92c1.24,1,.84.81,2,1.29.62,0,1.8.92,2.45,2.54s7.65,21.05,8.62,27.15a4.61,4.61,0,0,0-1.56,5.82,39.6,39.6,0,0,0,3.29,5.3l1.15-.45s-1.72-5-.11-6.65,3.37-2.41,5.34-1.38a9.16,9.16,0,0,1,2.91,6.42h1.19a6.52,6.52,0,0,0,1.1-.39c.33-1.24.41-5.85-1.57-8.46-2.29-3-4.76-3.71-5.83-3.38-.34-1.84-9-25.06-8.37-27.15,0-1.19,0-2,0-2s3.26-3.17,1.14-6.86-2.49-3.5-3.77-4.59a4.27,4.27,0,0,0-1.1.39s2.86,4,.71,6.78c0,0-2.72,3.28-5.51,1.38S225.33,98.17,225.33,98.17Z"/><path class="cls-91" d="M227.08,97.7l-1.75.47S224,105,227.58,108.1c1.24,1,.84.8,2,1.28.61,0,1.79.92,2.45,2.54s7.64,21,8.62,27.15a4.6,4.6,0,0,0-1.57,5.82,40.17,40.17,0,0,0,3.3,5.3l1.14-.44s-1.72-5-.11-6.66,3.37-2.41,5.35-1.38a9.2,9.2,0,0,1,2.91,6.42h1.19s1.82-5.82-.47-8.85-4.77-3.71-5.83-3.38c-.34-1.84-8.61-24.83-8.37-27.15a4.06,4.06,0,0,1,0-2,6.31,6.31,0,0,0,1.14-6.86A11.65,11.65,0,0,0,236,95.39a6.76,6.76,0,0,0-1.53.34s2.86,4,.71,6.79c0,0-2.72,3.27-5.51,1.37S227.08,97.7,227.08,97.7Z"/></svg>