<svg id="Layer_1" data-name="Layer 1" xmlns="http://www.w3.org/2000/svg" viewBox="0 0 300 200"><defs><style>.cls-1{fill:#00b1ff;}.cls-2{fill:#e2e2e2;}.cls-3{fill:#fdfeff;}.cls-4{fill:#41b9fa;}.cls-5{fill:#c4c4c4;}.cls-6{fill:#e5e5e5;}.cls-7{fill:#626c72;}.cls-8{fill:#96a5b3;}.cls-9{fill:#2f3e4a;}.cls-10{fill:#222d35;}.cls-11{fill:#fff;}.cls-12{fill:#ffcd34;}.cls-13{fill:#008fcf;}.cls-14{fill:#226c8a;}.cls-15{fill:#4d4d4d;}.cls-16{fill:#53a2ab;}.cls-17{fill:#e2c675;}.cls-18{fill:#fbcc34;}</style></defs><title>function</title><path class="cls-1" d="M26.27,192.56c-10.87,0-19.72-9.61-19.72-21.42V28.64c0-11.82,8.85-21.43,19.72-21.43H273.64c10.87,0,19.71,9.61,19.71,21.43v142.5c0,11.81-8.84,21.42-19.71,21.42Z"/><path class="cls-2" d="M273.63,10.28c9.32,0,16.9,8.23,16.9,18.36v142.5c0,10.12-7.58,18.36-16.9,18.36H26.27c-9.32,0-16.9-8.24-16.9-18.36V28.64c0-10.13,7.58-18.36,16.9-18.36H273.63m0-6.13H26.27c-12.43,0-22.54,11-22.54,24.49v142.5c0,13.5,10.11,24.49,22.54,24.49H273.63c12.43,0,22.54-11,22.54-24.49V28.64c0-13.51-10.11-24.49-22.54-24.49"/><path class="cls-3" d="M273.64,1.24H26.27C12.4,1.24,1.05,13.57,1.05,28.64v142.5c0,15.07,11.35,27.4,25.22,27.4H273.64c13.86,0,25.21-12.33,25.21-27.4V28.64c0-15.07-11.35-27.4-25.21-27.4m19.85,169.9a22.38,22.38,0,0,1-5.83,15.23,19,19,0,0,1-14,6.35H26.27a19,19,0,0,1-14-6.35,22.39,22.39,0,0,1-5.84-15.23V28.64A22.41,22.41,0,0,1,12.25,13.4a19,19,0,0,1,14-6.34H273.64a19,19,0,0,1,14,6.34,22.42,22.42,0,0,1,5.83,15.24Z"/><path class="cls-4" d="M30.72,8a2.13,2.13,0,0,1-.13.43Z"/><path class="cls-5" d="M31.75,4.7l-1,3.3-.13.43h0a2.74,2.74,0,0,1-2.51,1.81h-1.9C17,10.22,9.47,18.35,9.47,28.37v2.07a2.92,2.92,0,0,1-2,2.86h0L4,34.62l1-1.89c-.07-.06-.13-.13-.2-.2A3.15,3.15,0,0,1,4,30.44V26.5C4,14.23,13.16,4.29,24.46,4.29h3.62a2.69,2.69,0,0,1,2.31,1.39Z"/><path class="cls-6" d="M31.93,3.52h0a3.39,3.39,0,0,1-3.24,3.53H26.43c-11,0-19.88,9.67-19.88,21.6V31.1a3.38,3.38,0,0,1-3.23,3.52h0A3.39,3.39,0,0,1,.07,31.11h0V26.42C.07,11.83,11,0,24.38,0h4.31a3.38,3.38,0,0,1,3.24,3.52"/><path class="cls-7" d="M3.24,29.4a1.91,1.91,0,0,1,0,3.81,1.91,1.91,0,0,1,0-3.81"/><path class="cls-8" d="M3.24,29.6a1.71,1.71,0,0,1,0,3.41,1.71,1.71,0,0,1,0-3.41"/><polygon class="cls-9" points="4.2 30.7 4.2 31.91 3.24 32.5 2.3 31.91 2.3 30.7 3.24 30.11 4.2 30.7"/><path class="cls-10" d="M4.2,30.7v.55a1.28,1.28,0,0,0-1-.47,1.19,1.19,0,0,0-1,.47V30.7l.94-.59Z"/><path class="cls-7" d="M28.84,1.58a1.84,1.84,0,0,1,1.75,1.91,1.76,1.76,0,1,1-3.5.37,2.29,2.29,0,0,1,0-.37,1.85,1.85,0,0,1,1.75-1.91"/><path class="cls-8" d="M28.84,1.79a1.63,1.63,0,0,1,1.56,1.7h0a1.57,1.57,0,0,1-3.13.25V3.49a1.65,1.65,0,0,1,1.57-1.7"/><polygon class="cls-9" points="29.79 2.89 29.79 4.09 28.84 4.68 27.89 4.09 27.89 2.89 28.84 2.3 29.79 2.89"/><path class="cls-10" d="M29.79,2.89v.54A1.34,1.34,0,0,0,28.85,3a1.27,1.27,0,0,0-1,.47V2.89l1-.6Z"/><path class="cls-5" d="M268.31,4.73l1,3.28.14.43h0a2.73,2.73,0,0,0,2.51,1.8h1.9c9.23,0,16.71,8.13,16.71,18.16v2.06a3,3,0,0,0,2,2.87h0L296,34.65l-1-1.9a1.21,1.21,0,0,0,.2-.19,3,3,0,0,0,.8-2.1V26.54c0-12.27-9.15-22.21-20.44-22.21H272a2.68,2.68,0,0,0-2.31,1.38Z"/><path class="cls-6" d="M268.12,3.56h0a3.4,3.4,0,0,0,3.25,3.52h2.26c11,0,19.87,9.67,19.87,21.6v2.46a3.26,3.26,0,1,0,6.49.62,3.21,3.21,0,0,0,0-.62V26.46C300,11.86,289.1,0,275.68,0h-4.31a3.4,3.4,0,0,0-3.25,3.52"/><path class="cls-7" d="M296.81,29.43a1.92,1.92,0,1,0,1.75,2.08v-.17a1.84,1.84,0,0,0-1.75-1.91"/><path class="cls-8" d="M296.81,29.64a1.71,1.71,0,1,0,1.57,1.84v-.14a1.62,1.62,0,0,0-1.55-1.7h0"/><polygon class="cls-9" points="295.86 30.74 295.86 31.94 296.81 32.53 297.76 31.94 297.76 30.74 296.81 30.15 295.86 30.74"/><path class="cls-10" d="M295.86,30.74v.54a1.42,1.42,0,0,1,.94-.47,1.25,1.25,0,0,1,1,.47v-.54l-.95-.6Z"/><path class="cls-7" d="M271.22,1.62a1.83,1.83,0,0,0-1.75,1.91h0a1.76,1.76,0,1,0,3.5.37,1.15,1.15,0,0,0,0-.37,1.84,1.84,0,0,0-1.75-1.91"/><path class="cls-8" d="M271.22,1.82a1.65,1.65,0,0,0-1.57,1.71h0a1.57,1.57,0,0,0,3.13.25,1,1,0,0,0,0-.25,1.63,1.63,0,0,0-1.56-1.71"/><polygon class="cls-9" points="270.26 2.92 270.26 4.13 271.22 4.72 272.16 4.13 272.16 2.92 271.22 2.33 270.26 2.92"/><path class="cls-10" d="M270.26,2.93v.54a1.31,1.31,0,0,1,1-.47,1.17,1.17,0,0,1,.95.47V2.93l-.94-.6Z"/><path class="cls-5" d="M31.67,195.3l-1-3.28-.14-.43h0A2.71,2.71,0,0,0,28,189.78h-1.9c-9.23,0-16.71-8.13-16.71-18.15v-2.07a2.92,2.92,0,0,0-2-2.86h0L4,165.37l1,1.9-.2.2a3.05,3.05,0,0,0-.8,2.09v3.94c0,12.27,9.15,22.21,20.44,22.21H28a2.69,2.69,0,0,0,2.31-1.39Z"/><path class="cls-6" d="M31.86,196.48h0A3.4,3.4,0,0,0,28.61,193H26.35c-11,0-19.87-9.67-19.87-21.6v-2.5a3.39,3.39,0,0,0-3.25-3.52A3.39,3.39,0,0,0,0,168.89H0v4.68C0,188.17,10.88,200,24.3,200h4.31a3.39,3.39,0,0,0,3.25-3.52"/><path class="cls-7" d="M3.17,170.6a1.91,1.91,0,0,0,0-3.81,1.91,1.91,0,0,0,0,3.81"/><path class="cls-8" d="M3.17,170.4a1.71,1.71,0,0,0,0-3.41,1.71,1.71,0,0,0,0,3.41"/><polygon class="cls-9" points="4.12 169.3 4.12 168.1 3.17 167.5 2.22 168.1 2.22 169.3 3.17 169.89 4.12 169.3"/><path class="cls-10" d="M4.12,169.3v-.55a1.27,1.27,0,0,1-.94.47,1.22,1.22,0,0,1-1-.47v.55l1,.59Z"/><path class="cls-7" d="M28.76,198.42A1.92,1.92,0,1,0,27,196.36s0,.1,0,.15a1.85,1.85,0,0,0,1.75,1.91"/><path class="cls-8" d="M28.76,198.21a1.71,1.71,0,1,0-1.55-1.85s0,.1,0,.15a1.65,1.65,0,0,0,1.56,1.7"/><polygon class="cls-9" points="29.72 197.11 29.72 195.91 28.76 195.32 27.82 195.91 27.82 197.11 28.76 197.7 29.72 197.11"/><path class="cls-10" d="M29.72,197.11v-.54a1.34,1.34,0,0,1-.95.47,1.23,1.23,0,0,1-1-.47v.54l.94.6Z"/><path class="cls-5" d="M268.23,195.27l1-3.28.13-.44h0a2.76,2.76,0,0,1,2.51-1.8h1.9c9.23,0,16.71-8.13,16.71-18.16v-2.06a3,3,0,0,1,2-2.87h0l3.41-1.32-1,1.9a1.21,1.21,0,0,1,.2.19,3.08,3.08,0,0,1,.8,2.1v3.93c0,12.27-9.15,22.21-20.44,22.21h-3.63a2.71,2.71,0,0,1-2.31-1.38Z"/><path class="cls-6" d="M268.05,196.44h0a3.39,3.39,0,0,1,3.24-3.52h2.26c11,0,19.88-9.67,19.88-21.6v-2.46a3.25,3.25,0,0,1,6.48-.51,2.17,2.17,0,0,1,0,.51v4.69C299.91,188.14,289,200,275.6,200h-4.31a3.39,3.39,0,0,1-3.24-3.51h0"/><path class="cls-7" d="M296.74,170.57a1.92,1.92,0,1,1,1.75-2.08v.17a1.84,1.84,0,0,1-1.75,1.91"/><path class="cls-8" d="M296.74,170.36a1.71,1.71,0,0,1-.3-3.41,1.73,1.73,0,0,1,1.86,1.56v.15a1.63,1.63,0,0,1-1.56,1.7"/><polygon class="cls-9" points="295.78 169.26 295.78 168.06 296.74 167.47 297.68 168.06 297.68 169.26 296.74 169.85 295.78 169.26"/><path class="cls-10" d="M295.78,169.26v-.54a1.38,1.38,0,0,0,1,.47,1.24,1.24,0,0,0,.95-.47v.54l-.94.6Z"/><path class="cls-7" d="M271.14,198.38a1.91,1.91,0,1,1,1.75-2.06v.15a1.82,1.82,0,0,1-1.74,1.91h0"/><path class="cls-8" d="M271.14,198.18a1.71,1.71,0,1,1,1.57-1.84v.13a1.64,1.64,0,0,1-1.56,1.71h0"/><polygon class="cls-9" points="270.19 197.07 270.19 195.87 271.14 195.28 272.09 195.87 272.09 197.07 271.14 197.67 270.19 197.07"/><path class="cls-10" d="M270.19,197.08v-.55a1.3,1.3,0,0,0,.94.47,1.22,1.22,0,0,0,1-.47v.55l-1,.59Z"/><path class="cls-11" d="M109.67,17.36l6.8,2.82.59,4.75.88.88,41.9,2.52.25-1.93,7.07-2.29,8,8.46h6l8-8.46,7.06,2.29L197.75,38l4.83,3.51,11.47-2.14,4.37,6-5.58,10.23,1.84,5.68,10.53,5v7.43l-10.53,5-1.84,5.68,5.57,10.25-1.81,2.5.94,32.65,5.68,1.62,1.76,5.29-5.1,6.68-.59,2.87,2,8.17-3.69,4.16-8.34-1.07-2.78.93-6,5.86L195,163.19l-.6-1.44-96.7,5.13h-.15c-12.58-.8-15.39-10.45-15.13-15.43a15.43,15.43,0,0,1,8.82-13.72L121.63,128a12.74,12.74,0,0,1-8.6-12.06,12.59,12.59,0,0,1,1.77-6.48l-18.54,7.73a15.3,15.3,0,0,1-21.47-14l4.08-52.82-.64-1.54,3-3.77V39.8l-3-3.78,2.83-6.82,4.75-.57,3.68-3.7.59-4.75,6.81-2.82,3.79,2.94h5.22l3.77-2.94m-12.78-2a2.06,2.06,0,0,0-.76.15l-6.81,2.82a2,2,0,0,0-1.22,1.6L87.59,24l-2.71,2.72-4.06.49a2,2,0,0,0-1.61,1.22l-2.82,6.81a2,2,0,0,0,.26,2l2.53,3.24v3.84l-2.52,3.23a2,2,0,0,0-.28,2l.45,1.1-4,52.35v.2a17.92,17.92,0,0,0,6.87,13.73l.07.06A18.06,18.06,0,0,0,97,119l14.29-6a14.44,14.44,0,0,0-.28,2.86,14.77,14.77,0,0,0,5.59,11.57l-26,8.36-.25.1a17.33,17.33,0,0,0-10,15.46c-.28,5.68,2.91,16.6,17,17.5h.39l95.28-5.06.06.14a2,2,0,0,0,1.45,1.19l5.47,1.12a1.81,1.81,0,0,0,.4,0,2,2,0,0,0,1.39-.56l5.7-5.55,1.92-.64,7.88,1,.26,0a2,2,0,0,0,1.49-.67l3.7-4.17a2,2,0,0,0,.44-1.81l-1.93-7.72.41-2,4.82-6.32a2,2,0,0,0,.31-1.85l-1.77-5.3a2,2,0,0,0-1.35-1.29l-4.27-1.21-.87-30.51,1.41-2a2,2,0,0,0,.14-2.13L215,84.2l1.31-4,9.75-4.63a2,2,0,0,0,1.14-1.81V66.29a2,2,0,0,0-1.14-1.81l-9.75-4.64-1.31-4,5.17-9.48a2,2,0,0,0-.14-2.14l-4.37-6a2,2,0,0,0-1.62-.83,1.61,1.61,0,0,0-.37,0l-10.62,2-3.43-2.49-1.41-10.72a2,2,0,0,0-1.36-1.64l-7.07-2.29a2.16,2.16,0,0,0-.61-.1,2,2,0,0,0-1.46.63l-7.43,7.83H176l-7.43-7.83a2,2,0,0,0-1.45-.63,2.17,2.17,0,0,0-.62.1l-7.06,2.29a2,2,0,0,0-1.37,1.65v.07l-39.16-2.35-.48-3.94a2,2,0,0,0-1.22-1.6l-6.8-2.82a2.07,2.07,0,0,0-.77-.15,2,2,0,0,0-1.23.42l-3.23,2.52h-3.85l-3.24-2.52a2,2,0,0,0-1.23-.42Z"/><path class="cls-12" d="M102.83,103.15A12.75,12.75,0,1,1,90.09,90.4,12.74,12.74,0,0,1,102.83,103.15Z"/><path class="cls-12" d="M138.52,115.89a12.75,12.75,0,0,1-12.74,12.76,12.38,12.38,0,0,1-4.15-.7,12.74,12.74,0,0,1-8.6-12.06,12.59,12.59,0,0,1,1.77-6.48,12.75,12.75,0,0,1,23.72,6.48Z"/><path class="cls-13" d="M110.48,151.59a12.75,12.75,0,1,1-12.75-12.75A12.75,12.75,0,0,1,110.48,151.59Z"/><path class="cls-14" d="M92.64,103.15a2.55,2.55,0,1,1-2.55-2.55A2.56,2.56,0,0,1,92.64,103.15Z"/><path class="cls-14" d="M128.33,115.89a2.55,2.55,0,1,1-2.55-2.55A2.55,2.55,0,0,1,128.33,115.89Z"/><path class="cls-14" d="M100.28,151.59A2.55,2.55,0,1,1,97.73,149,2.55,2.55,0,0,1,100.28,151.59Z"/><path class="cls-15" d="M195.32,161.71l-.9,0-96.7,5.13h-.15c-12.58-.8-15.39-10.45-15.13-15.43a15.43,15.43,0,0,1,8.82-13.72L121.63,128l7.27-2.34a11.23,11.23,0,0,0,6.41-6,11.82,11.82,0,0,0-.4-8.2,10.26,10.26,0,0,0-13-4.92l-7.11,3-18.54,7.73a15.3,15.3,0,0,1-21.47-14l4.08-52.82.07-.93,5.08.4-.47,6.11-3,38.78-.66,8.66a11.1,11.1,0,0,0,4,7.92,11,11,0,0,0,10.39,1.17l6.77-2.82,18.93-7.9a15.44,15.44,0,0,1,19.45,7.33,16.92,16.92,0,0,1,.63,12.32,16.19,16.19,0,0,1-9.38,9l-28.64,9.21-8.85,2.86a10.43,10.43,0,0,0-5.68,9.17c0,1-.09,9.43,10.23,10.16l8.17-.43,86.42-4.59,2.71-.14Z"/><polygon class="cls-15" points="160.75 28.39 160.44 33.48 159.18 33.4 126.43 31.44 115.75 30.8 116.06 25.71 117.94 25.82 159.84 28.33 160.75 28.39"/><polygon class="cls-15" points="217.56 130.48 212.47 130.66 212.33 125.66 211.59 100.2 211.5 97.05 216.59 96.85 216.6 97.15 217.54 129.8 217.56 130.48"/><polygon class="cls-16" points="125.38 45.02 128.33 48.79 125.51 55.6 120.74 56.18 117.06 59.88 116.47 64.63 109.67 67.45 105.9 64.5 100.68 64.5 96.89 67.45 90.08 64.63 89.5 59.88 85.81 56.18 83.55 55.91 81.06 55.6 78.86 50.33 78.23 48.79 81.18 45.02 81.18 39.8 78.23 36.02 81.06 29.2 85.81 28.63 89.49 24.93 90.08 20.18 96.89 17.36 100.68 20.3 105.9 20.3 109.67 17.36 116.47 20.18 117.06 24.93 117.94 25.82 120.74 28.62 125.51 29.2 126.43 31.44 128.33 36.02 125.38 39.8 125.38 45.02"/><path class="cls-12" d="M113.87,42.4a10.59,10.59,0,1,1-10.59-10.59A10.59,10.59,0,0,1,113.87,42.4Z"/><polygon class="cls-13" points="214.68 78.72 212.84 84.4 218.41 94.65 216.6 97.15 214.05 100.66 211.59 100.2 202.57 98.53 197.74 102.04 196.24 113.61 189.18 115.89 181.15 107.44 175.18 107.44 167.16 115.89 160.09 113.61 158.58 102.04 153.75 98.53 142.28 100.66 137.91 94.65 143.48 84.4 141.64 78.72 131.11 73.72 131.11 66.29 141.64 61.27 143.48 55.59 137.91 45.36 142.28 39.34 153.75 41.48 158.58 37.97 159.18 33.4 159.84 28.33 160.09 26.4 167.16 24.11 175.18 32.57 181.15 32.57 189.18 24.11 196.24 26.4 197.75 37.97 202.58 41.48 214.05 39.34 218.42 45.36 212.84 55.59 214.68 61.27 225.21 66.29 225.21 73.72 214.68 78.72"/><polygon class="cls-17" points="219.29 146.26 221.33 154.43 217.64 158.59 209.3 157.52 206.52 158.45 200.49 164.31 195.02 163.19 194.42 161.75 192.35 156.76 191.78 155.41 189.59 153.47 181.5 151.17 179.74 145.87 184.84 139.19 185.43 136.32 183.39 128.16 187.09 123.98 195.43 125.06 198.21 124.13 204.24 118.27 209.71 119.39 212.33 125.66 212.95 127.15 215.13 129.12 217.54 129.8 223.22 131.42 224.98 136.71 219.88 143.4 219.29 146.26"/><path class="cls-16" d="M212.46,141.39a10.2,10.2,0,1,1-10.19-10.2A10.2,10.2,0,0,1,212.46,141.39Z"/><path class="cls-12" d="M199.72,70a23,23,0,1,1-22.95-22.94A22.95,22.95,0,0,1,199.72,70Z"/><path class="cls-16" d="M189.52,70a12.75,12.75,0,1,1-12.75-12.74A12.75,12.75,0,0,1,189.52,70Z"/><path class="cls-18" d="M170.4,128.64a5.1,5.1,0,1,1-5.1-5.1A5.1,5.1,0,0,1,170.4,128.64Z"/><path class="cls-18" d="M105.83,78.93a2.55,2.55,0,1,1-2.55-2.55A2.55,2.55,0,0,1,105.83,78.93Z"/></svg>