<svg id="Layer_1" data-name="Layer 1" xmlns="http://www.w3.org/2000/svg" viewBox="0 0 300 200"><defs><style>.cls-1{opacity:0.7;isolation:isolate;}.cls-2{fill:#e78d00;}.cls-3{fill:#fff;}.cls-4{fill:#facb03;}.cls-5{fill:#ccc;}.cls-6{fill:#fefefe;}.cls-7{fill:#f7b808;}.cls-8{fill:#703500;}.cls-9{fill:#220b00;}</style></defs><title>guide-locked</title><path class="cls-1" d="M298.82,33.85V166.29a3.63,3.63,0,0,1,1.06,2.6v4.69c0,14.59-10.88,26.41-24.31,26.41h-4.31a3.14,3.14,0,0,1-2.6-1.42H31.21A3.17,3.17,0,0,1,28.58,200H24.27C10.85,200,0,188.2,0,173.61v-4.68a3.69,3.69,0,0,1,1-2.6V33.65a3.63,3.63,0,0,1-1-2.52V26.45C0,11.86,10.92,0,24.35,0h4.31a3.16,3.16,0,0,1,2.47,1.24H268.9A3.12,3.12,0,0,1,271.34,0h4.31C289.07.07,300,11.89,300,26.49v4.68A3.64,3.64,0,0,1,298.82,33.85Z"/><path class="cls-2" d="M189.56,141.3h0c-.18,0-.18,0-.27-.1l-6.37-2.2,6.64.82a1.39,1.39,0,0,1,.64.09l-.09,1.37Z"/><path class="cls-3" d="M189.47,140.65a1.54,1.54,0,0,1,.64.1h-.55c0-.1,0-.1-.09-.1m.18-1.45-.63,2.73c.09,0,.18.09.27.09h.7l.19-2.73a1.3,1.3,0,0,1-.55-.09"/><path class="cls-4" d="M191.39,141.48a6.83,6.83,0,0,1-1.28-.09l.09-1.37,1,.09h.37Z"/><path class="cls-3" d="M190.2,140.65l.91.1h.28a4.75,4.75,0,0,1-1.19-.1m0-1.36L190,142c.45,0,.91.09,1.37.09l.26-2.73h-.47Z"/><path class="cls-3" d="M156.68,164.05l-5.56-.36-9.64-.64h-.71l-.9-.09a1.72,1.72,0,0,1-.71-.09,39,39,0,0,1-25.85-13.11,41.79,41.79,0,0,1-10.14-31.5L104.35,96c.91-8.83,1.72-11.11,7.65-11.47l1.45-16.2A35.21,35.21,0,0,1,148,36.06h11.65c.45,0,.91.1,1.37.1a35.39,35.39,0,0,1,32,38.32l-1.09,12.75a4,4,0,0,1,1.09.18,11.17,11.17,0,0,1,8.83,12.19l-1.09,21.31a48.31,48.31,0,0,1-7.28,21.58c-8.37,13.2-22.39,21.39-36.78,21.57m-10-78.57,21.48.7.91-10.56a20.77,20.77,0,0,0-4.73-15.11,21,21,0,0,0-11.27-6.92,18.49,18.49,0,0,0-3.55,1.18A20.69,20.69,0,0,0,137,72l-1.18,13.2Z"/><path class="cls-3" d="M148.78,36.87h10.65c.45,0,.91.09,1.37.09a34.81,34.81,0,0,1,31.49,37.61l-1.18,13.56a9,9,0,0,1,1.64.18A10.42,10.42,0,0,1,201,99.78l-1,21.31a46.15,46.15,0,0,1-7.19,21.2c-7.91,12.48-21.29,21-36,21h-.11l-5.46-.37-9.65-.64h-.7l-.91-.09a1.74,1.74,0,0,1-.64-.09,38,38,0,0,1-25.4-12.83,41.07,41.07,0,0,1-9.92-31L105.18,96c.91-9.1,1.73-10.65,7.56-10.92l1.45-16.75A34.72,34.72,0,0,1,148,36.76h.82m20,50.16,1-11.2a21.81,21.81,0,0,0-4.93-15.66,21.42,21.42,0,0,0-11.83-7.19,20.66,20.66,0,0,0-3.82,1.28A21.4,21.4,0,0,0,136.33,71.9l-1.27,13.92,11.56.37h.27l21.94.7m-20-51.4h-.91a36.43,36.43,0,0,0-23.76,9.65,35.66,35.66,0,0,0-11.38,23.24L111.45,84c-6.18.63-6.82,3.82-7.64,12l-1.19,22.31a42.42,42.42,0,0,0,10.29,32,40.13,40.13,0,0,0,26.32,13.38,1.69,1.69,0,0,1,.63.09l.91.09h.91l9.56.65,5.46.35h.09c14.56-.17,28.77-8.44,37.15-21.66a48.36,48.36,0,0,0,7.37-21.83L202.4,99.9a11.85,11.85,0,0,0-9.47-12.84c-.18,0-.27-.09-.45-.09l1.09-12.1a36.22,36.22,0,0,0-32.66-39.18c-.46,0-.92-.09-1.37-.09h-9.12Zm-12.19,49,1-12.49a20,20,0,0,1,12.1-16.66,22.13,22.13,0,0,1,3.28-1.09,20.07,20.07,0,0,1,10.74,6.64,19.8,19.8,0,0,1,4.65,14.56l-.92,9.92L147,84.76h-.27Z"/><path class="cls-2" d="M156.68,163.33h-1.62c-1.27,0-2.55-.19-3.82-.28Z"/><path class="cls-5" d="M192.29,74.57,191.11,88l-.81,9.47-2.46-.19-6.56-.54-4.18-.37.82-8.73v-.46l1-11.56A21.8,21.8,0,0,0,174,60a21.15,21.15,0,0,0-14.49-7.56A21.6,21.6,0,0,0,136.29,71.9L135,85.85v.46l-.55,6.37-9-.82-4.1-.36.12-1.21.46-4.93,1.46-16.84a34.69,34.69,0,0,1,25.4-30.32l-.71-1.28H159.5c.45,0,.91.09,1.36.09a34.64,34.64,0,0,1,31.41,37.51"/><path class="cls-2" d="M201.12,99.69,200,121c-1.91,23.23-21.21,42.05-43.15,42.24h-.09l-5.46-.36-9.65-.64H141l-1.46-.09h-.18L140.8,160a38.43,38.43,0,0,1-13.47-9.86,41,41,0,0,1-9.93-31l1.19-22.3a11.3,11.3,0,0,1,2.73-6.75,11.67,11.67,0,0,1,4.46-3.37,10.11,10.11,0,0,1,4.64-.81l4.55.18,11.93.36,21.83.71,9.1.27,4.19.09,1.37.1,7.74.26a10.59,10.59,0,0,1,10,11.11c0,.18,0,.37,0,.55"/><path class="cls-6" d="M183.19,74.57l-1.16,13v.19l-.82,9-.09.82L168,96.32l.82-9v-.46l1-11.19A21.68,21.68,0,0,0,164.9,60a22.45,22.45,0,0,0-14.47-7.65c-.36,0-.7-.09-1-.09a21.49,21.49,0,0,0-22.21,19.48L126,85.31v1.45l-.46,4.83-.09.82L120.11,92l-7.91-.7.54-6.19,1.46-16.75A34.71,34.71,0,0,1,148,36.72h2.55c.45,0,.91.09,1.27.09A34.51,34.51,0,0,1,175.3,49.1a35.71,35.71,0,0,1,7.93,25.49"/><path class="cls-4" d="M187.84,97.33a11.51,11.51,0,0,1-.19,1.55l-1.09,21.3c-2,23.4-21.58,42.42-43.79,42.25h-1.09a23.62,23.62,0,0,1-2.37-.18,38,38,0,0,1-25.4-12.82,41,41,0,0,1-9.92-31l1.18-22.3c.91-9.11,1.74-10.66,7.56-10.92,1.18-.1,2.64-.1,4.28-.1l4.82.19,4.23.17,9.1.28,11.56.36H147l21.83.71,8.83.27h.14c1.64.19,3,.28,4.19.46a6.35,6.35,0,0,0,1.37.18c4,.91,5.1,2.82,4.46,9.56"/><path class="cls-7" d="M187.84,97.33a11.51,11.51,0,0,1-.19,1.55l-1.09,21.3c-2,23.4-21.58,42.42-43.79,42.25h-.88l4.83-76.29H147l21.83.71,8.83.27h.14c1.64.18,3,.27,4.19.46a7.91,7.91,0,0,0,1.37.18c4,.91,5.1,2.82,4.46,9.56"/><path class="cls-8" d="M155.15,113.8a10.22,10.22,0,0,1-5.46,8.29l-.64,9.28a5.29,5.29,0,0,1-10.58-.38v-.32l.64-9.38a10.3,10.3,0,0,1-4.22-8.92,10.13,10.13,0,0,1,20.21,1.46"/><path class="cls-8" d="M155.15,113.8a10.22,10.22,0,0,1-5.46,8.29l-.64,9.28a5.37,5.37,0,0,1-3.19,4.46,5.32,5.32,0,0,1-3.18-5.19l.62-9.37a10.29,10.29,0,0,1-4.18-8.83,10.07,10.07,0,0,1,7.91-9.15,10,10,0,0,1,8.11,10.56"/><path class="cls-9" d="M155.15,113.8a10.22,10.22,0,0,1-5.46,8.29l-.64,9.28a5.37,5.37,0,0,1-3.19,4.46,5.32,5.32,0,0,1-3.18-5.19l.62-9.37a10.29,10.29,0,0,1-4.18-8.83,10.07,10.07,0,0,1,7.91-9.15,10,10,0,0,1,8.11,10.56"/></svg>