<svg id="Layer_1" data-name="Layer 1" xmlns="http://www.w3.org/2000/svg" xmlns:xlink="http://www.w3.org/1999/xlink" viewBox="0 0 300 200"><defs><style>.cls-1,.cls-18,.cls-33,.cls-37,.cls-41,.cls-52,.cls-56,.cls-59{fill:none;}.cls-2{fill:#00b1ff;}.cls-3{fill:#e2e2e2;}.cls-4{fill:#fdfeff;}.cls-5{fill:#41b9fa;}.cls-6{fill:#c4c4c4;}.cls-7{fill:#e5e5e5;}.cls-8{fill:#626c72;}.cls-9{fill:#96a5b3;}.cls-10{fill:#2f3e4a;}.cls-11{fill:#222d35;}.cls-12,.cls-65{fill:#fff;}.cls-12{opacity:0.36;}.cls-13{fill:#353535;stroke-width:0.22px;}.cls-13,.cls-27,.cls-29,.cls-37,.cls-57{stroke:#000;}.cls-13,.cls-27,.cls-29{stroke-linejoin:round;}.cls-14,.cls-22,.cls-23{fill:#4d4d4d;}.cls-15{fill:#b3b3b3;}.cls-16{fill:#d3161d;}.cls-17{fill:#adadad;stroke:#080000;stroke-width:0.3px;}.cls-17,.cls-18,.cls-19,.cls-20,.cls-21,.cls-22,.cls-23,.cls-28,.cls-30,.cls-32,.cls-33,.cls-37,.cls-41,.cls-51,.cls-52,.cls-53,.cls-54,.cls-55,.cls-56,.cls-57,.cls-59{stroke-miterlimit:10;}.cls-18,.cls-19,.cls-30,.cls-32,.cls-41,.cls-56{stroke:#070707;}.cls-18{stroke-width:0.47px;}.cls-19{fill:#77401b;}.cls-19,.cls-20,.cls-41{stroke-width:0.31px;}.cls-20,.cls-24,.cls-57,.cls-61{fill:#f8c946;}.cls-20{stroke:#020202;}.cls-21,.cls-38{fill:#282828;}.cls-21,.cls-22,.cls-23{stroke:#151616;}.cls-21,.cls-22{stroke-width:0.25px;}.cls-23{stroke-width:0.92px;}.cls-25{fill:#683919;}.cls-26,.cls-32{fill:#945320;}.cls-27{fill:#515051;stroke-width:0.3px;}.cls-28,.cls-31{fill:#161616;}.cls-28,.cls-33,.cls-51,.cls-52,.cls-53,.cls-54,.cls-55,.cls-59{stroke:#0a0a0a;}.cls-28,.cls-29,.cls-30,.cls-32,.cls-33,.cls-37{stroke-width:0.26px;}.cls-29{fill:#8e8a8b;}.cls-30{fill:#e2b647;}.cls-34{fill:#dddbd7;}.cls-35{fill:#232323;}.cls-36{fill:#3a3a3a;}.cls-39{fill:#7c7c7c;}.cls-40{fill:#666;}.cls-42{fill:#7f1119;}.cls-43{fill:#5e0e18;}.cls-44{fill:#352f49;}.cls-45,.cls-60{fill:#e41e00;}.cls-46{fill:#fffe28;}.cls-47{fill:#18ff08;}.cls-48{fill:#dbdddd;}.cls-49{fill:#0fb0db;}.cls-50{fill:#303435;}.cls-51,.cls-52,.cls-53,.cls-54,.cls-55{stroke-width:0.12px;}.cls-51{fill:url(#radial-gradient);}.cls-53{fill:url(#radial-gradient-2);}.cls-54{fill:url(#radial-gradient-3);}.cls-55{fill:url(#radial-gradient-4);}.cls-56,.cls-57,.cls-59{stroke-width:0.15px;}.cls-58{fill:#389cce;}.cls-60{opacity:0.33;}.cls-61{opacity:0.38;}.cls-62{fill:#17ff1b;opacity:0.23;}.cls-63{opacity:0.7;}.cls-64{fill:#e78d00;}.cls-66{fill:#facb03;}.cls-67{fill:#ccc;}.cls-68{fill:#fefefe;}.cls-69{fill:#f7b808;}.cls-70{fill:#703500;}.cls-71{fill:#220b00;}.cls-72{opacity:0.8;}.cls-73{clip-path:url(#clip-path);}.cls-74{clip-path:url(#clip-path-2);}.cls-75{clip-path:url(#clip-path-3);}.cls-76{clip-path:url(#clip-path-4);}</style><radialGradient id="radial-gradient" cx="-3595.33" cy="329.81" r="1.15" gradientTransform="matrix(0, 1.62, -1.62, 0, 715.98, 5919.87)" gradientUnits="userSpaceOnUse"><stop offset="0.2" stop-color="#666"/><stop offset="0.57" stop-color="#585858"/><stop offset="1" stop-color="#4d4d4d"/></radialGradient><radialGradient id="radial-gradient-2" cx="-3599.98" cy="341.17" r="1.15" gradientTransform="matrix(0, 1.62, -1.62, 0, 725.64, 5945.24)" xlink:href="#radial-gradient"/><radialGradient id="radial-gradient-3" cx="-3595.2" cy="340.89" r="1.15" gradientTransform="matrix(0, 1.62, -1.62, 0, 732.93, 5937.56)" xlink:href="#radial-gradient"/><radialGradient id="radial-gradient-4" cx="-3599.49" cy="330" r="1.15" gradientTransform="matrix(0, 1.62, -1.62, 0, 709.56, 5926.47)" xlink:href="#radial-gradient"/><clipPath id="clip-path"><rect class="cls-1" x="114.46" y="141.75" width="4.01" height="4.01"/></clipPath><clipPath id="clip-path-2"><rect class="cls-1" x="114.46" y="141.75" width="4.01" height="4.01"/></clipPath><clipPath id="clip-path-3"><rect class="cls-1" x="117.82" y="145.79" width="15.6" height="11.48"/></clipPath><clipPath id="clip-path-4"><rect class="cls-1" x="117.82" y="145.79" width="15.58" height="11.48"/></clipPath></defs><title>lighting-locked</title><path class="cls-2" d="M26.28,192.56c-10.87,0-19.72-9.61-19.72-21.42V28.64c0-11.82,8.85-21.43,19.72-21.43H273.65c10.87,0,19.71,9.61,19.71,21.43v142.5c0,11.81-8.84,21.42-19.71,21.42Z"/><path class="cls-3" d="M273.64,10.28c9.32,0,16.9,8.23,16.9,18.36v142.5c0,10.12-7.58,18.36-16.9,18.36H26.28c-9.32,0-16.9-8.24-16.9-18.36V28.64c0-10.13,7.58-18.36,16.9-18.36H273.64m0-6.13H26.28c-12.43,0-22.54,11-22.54,24.49v142.5c0,13.5,10.11,24.49,22.54,24.49H273.64c12.43,0,22.54-11,22.54-24.49V28.64c0-13.51-10.11-24.49-22.54-24.49"/><path class="cls-4" d="M273.65,1.24H26.28c-13.87,0-25.22,12.33-25.22,27.4v142.5c0,15.07,11.35,27.4,25.22,27.4H273.65c13.86,0,25.21-12.33,25.21-27.4V28.64c0-15.07-11.35-27.4-25.21-27.4m19.85,169.9a22.4,22.4,0,0,1-5.83,15.23,19,19,0,0,1-14,6.35H26.28a19,19,0,0,1-14-6.35,22.36,22.36,0,0,1-5.84-15.23V28.64A22.37,22.37,0,0,1,12.26,13.4a18.94,18.94,0,0,1,14-6.34H273.65a19,19,0,0,1,14,6.34,22.41,22.41,0,0,1,5.83,15.24Z"/><path class="cls-5" d="M30.73,8a3.52,3.52,0,0,1-.13.43Z"/><path class="cls-6" d="M31.76,4.7,30.73,8l-.13.43h0a2.74,2.74,0,0,1-2.51,1.81h-1.9C17,10.22,9.48,18.35,9.48,28.37v2.07a2.92,2.92,0,0,1-2,2.86h0L4,34.62l1-1.89a1.89,1.89,0,0,1-.2-.2A3.1,3.1,0,0,1,4,30.44V26.5C4,14.23,13.17,4.29,24.47,4.29h3.62A2.71,2.71,0,0,1,30.4,5.68Z"/><path class="cls-7" d="M31.94,3.52h0A3.39,3.39,0,0,1,28.7,7.05H26.44c-11,0-19.88,9.67-19.88,21.6V31.1a3.38,3.38,0,0,1-3.24,3.52A3.38,3.38,0,0,1,.08,31.1V26.42C.08,11.83,11,0,24.39,0H28.7a3.39,3.39,0,0,1,3.24,3.52"/><path class="cls-8" d="M3.25,29.4a1.91,1.91,0,0,1,0,3.81,1.91,1.91,0,0,1,0-3.81"/><path class="cls-9" d="M3.25,29.6a1.71,1.71,0,0,1,0,3.41,1.71,1.71,0,0,1,0-3.41"/><polygon class="cls-10" points="4.21 30.7 4.21 31.91 3.25 32.5 2.31 31.91 2.31 30.7 3.25 30.11 4.21 30.7"/><path class="cls-11" d="M4.21,30.7v.55a1.31,1.31,0,0,0-1-.47,1.2,1.2,0,0,0-.95.47V30.7l.94-.59Z"/><path class="cls-8" d="M28.85,1.58A1.84,1.84,0,0,1,30.6,3.49a1.76,1.76,0,1,1-3.5,0,1.84,1.84,0,0,1,1.75-1.91"/><path class="cls-9" d="M28.85,1.79a1.63,1.63,0,0,1,1.56,1.7,1.57,1.57,0,1,1-3.13,0,1.64,1.64,0,0,1,1.57-1.7"/><polygon class="cls-10" points="29.8 2.89 29.8 4.09 28.85 4.68 27.9 4.09 27.9 2.89 28.85 2.3 29.8 2.89"/><path class="cls-11" d="M29.8,2.89v.54A1.34,1.34,0,0,0,28.86,3a1.26,1.26,0,0,0-1,.47V2.89l1-.6Z"/><path class="cls-6" d="M268.32,4.73l1,3.28.14.43h0a2.72,2.72,0,0,0,2.51,1.8h1.9c9.23,0,16.71,8.13,16.71,18.16v2.06a2.94,2.94,0,0,0,2,2.87h0l3.41,1.32-1-1.9a1.21,1.21,0,0,0,.2-.19,3.07,3.07,0,0,0,.8-2.1V26.54c0-12.27-9.15-22.21-20.44-22.21H272a2.68,2.68,0,0,0-2.31,1.38Z"/><path class="cls-7" d="M268.13,3.56h0a3.39,3.39,0,0,0,3.25,3.52h2.26c11,0,19.87,9.67,19.87,21.6v2.46a3.26,3.26,0,1,0,6.49,0V26.46C300,11.86,289.11,0,275.69,0h-4.31a3.39,3.39,0,0,0-3.25,3.52"/><path class="cls-8" d="M296.82,29.43a1.92,1.92,0,1,0,1.75,1.91,1.84,1.84,0,0,0-1.75-1.91"/><path class="cls-9" d="M296.82,29.64a1.71,1.71,0,1,0,1.57,1.7,1.63,1.63,0,0,0-1.57-1.7"/><polygon class="cls-10" points="295.87 30.74 295.87 31.94 296.82 32.53 297.77 31.94 297.77 30.74 296.82 30.15 295.87 30.74"/><path class="cls-11" d="M295.87,30.74v.54a1.38,1.38,0,0,1,.94-.47,1.26,1.26,0,0,1,1,.47v-.54l-.95-.6Z"/><path class="cls-8" d="M271.23,1.62a1.83,1.83,0,0,0-1.75,1.91,1.76,1.76,0,1,0,3.5,0,1.84,1.84,0,0,0-1.75-1.91"/><path class="cls-9" d="M271.23,1.82a1.64,1.64,0,0,0-1.57,1.71,1.57,1.57,0,1,0,3.13,0,1.64,1.64,0,0,0-1.56-1.71"/><polygon class="cls-10" points="270.27 2.92 270.27 4.13 271.23 4.72 272.17 4.13 272.17 2.92 271.23 2.33 270.27 2.92"/><path class="cls-11" d="M270.27,2.93v.54a1.31,1.31,0,0,1,1-.47,1.2,1.2,0,0,1,.95.47V2.93l-.94-.6Z"/><path class="cls-6" d="M31.68,195.3l-1-3.28-.14-.43h0A2.73,2.73,0,0,0,28,189.78h-1.9c-9.23,0-16.71-8.13-16.71-18.15v-2.07a2.92,2.92,0,0,0-2-2.86h0L4,165.37l1,1.9a1.26,1.26,0,0,0-.2.2,3,3,0,0,0-.8,2.09v3.94c0,12.27,9.15,22.21,20.44,22.21H28a2.69,2.69,0,0,0,2.31-1.39Z"/><path class="cls-7" d="M31.87,196.48h0A3.4,3.4,0,0,0,28.62,193H26.36c-11,0-19.87-9.67-19.87-21.6V168.9a3.39,3.39,0,0,0-3.25-3.52A3.38,3.38,0,0,0,0,168.9v4.68C0,188.17,10.89,200,24.31,200h4.31a3.4,3.4,0,0,0,3.25-3.52"/><path class="cls-8" d="M3.18,170.6a1.91,1.91,0,0,0,0-3.81,1.91,1.91,0,0,0,0,3.81"/><path class="cls-9" d="M3.18,170.4a1.71,1.71,0,0,0,0-3.41,1.71,1.71,0,0,0,0,3.41"/><polygon class="cls-10" points="4.13 169.3 4.13 168.1 3.18 167.5 2.23 168.1 2.23 169.3 3.18 169.89 4.13 169.3"/><path class="cls-11" d="M4.13,169.3v-.55a1.28,1.28,0,0,1-.94.47,1.22,1.22,0,0,1-1-.47v.55l1,.59Z"/><path class="cls-8" d="M28.77,198.42A1.92,1.92,0,1,0,27,196.51a1.84,1.84,0,0,0,1.75,1.91"/><path class="cls-9" d="M28.77,198.21a1.71,1.71,0,1,0-1.56-1.7,1.64,1.64,0,0,0,1.56,1.7"/><polygon class="cls-10" points="29.73 197.11 29.73 195.91 28.77 195.32 27.83 195.91 27.83 197.11 28.77 197.7 29.73 197.11"/><path class="cls-11" d="M29.73,197.11v-.54a1.38,1.38,0,0,1-.95.47,1.23,1.23,0,0,1-1-.47v.54l.94.6Z"/><path class="cls-6" d="M268.24,195.27l1-3.28.13-.44h0a2.74,2.74,0,0,1,2.51-1.8h1.9c9.23,0,16.71-8.13,16.71-18.16v-2.06a3,3,0,0,1,2-2.87h0l3.41-1.32-1,1.9a1.8,1.8,0,0,1,.2.19,3.12,3.12,0,0,1,.8,2.1v3.93c0,12.27-9.15,22.21-20.44,22.21h-3.63a2.7,2.7,0,0,1-2.31-1.38Z"/><path class="cls-7" d="M268.06,196.44h0a3.38,3.38,0,0,1,3.24-3.52h2.26c11,0,19.88-9.67,19.88-21.6v-2.46a3.25,3.25,0,1,1,6.48,0v4.69c0,14.59-10.88,26.41-24.31,26.41H271.3a3.38,3.38,0,0,1-3.24-3.52"/><path class="cls-8" d="M296.75,170.57a1.92,1.92,0,1,1,1.75-1.91,1.84,1.84,0,0,1-1.75,1.91"/><path class="cls-9" d="M296.75,170.36a1.71,1.71,0,1,1,1.56-1.7,1.64,1.64,0,0,1-1.56,1.7"/><polygon class="cls-10" points="295.79 169.26 295.79 168.06 296.75 167.47 297.69 168.06 297.69 169.26 296.75 169.85 295.79 169.26"/><path class="cls-11" d="M295.79,169.26v-.54a1.38,1.38,0,0,0,.95.47,1.23,1.23,0,0,0,.95-.47v.54l-.94.6Z"/><path class="cls-8" d="M271.15,198.38a1.91,1.91,0,1,1,1.75-1.91,1.83,1.83,0,0,1-1.75,1.91"/><path class="cls-9" d="M271.15,198.18a1.71,1.71,0,1,1,1.57-1.71,1.64,1.64,0,0,1-1.57,1.71"/><polygon class="cls-10" points="270.2 197.07 270.2 195.87 271.15 195.28 272.1 195.87 272.1 197.07 271.15 197.67 270.2 197.07"/><path class="cls-11" d="M270.2,197.08v-.55a1.28,1.28,0,0,0,.94.47,1.22,1.22,0,0,0,1-.47v.55l-1,.59Z"/><ellipse class="cls-12" cx="139.26" cy="118.03" rx="51.05" ry="81.34" transform="translate(-3.63 231.64) rotate(-78.77)"/><path class="cls-13" d="M215.94,141.48a20.09,20.09,0,0,0-.63-3.16c-1.25-4.33-5.12-17.43-8.65-25.32-2.09-4.65-3.34-7.82-4.43-10.2a19.86,19.86,0,0,0-5.45-7.1,21.83,21.83,0,0,0-6.07-3.83,22.33,22.33,0,0,0-11.22-1c-9.48,1.2-14.55,1.33-16.42,1.89-1.84,1.23-9.75,9.38-10.36,16.33-.44,5-.12,11.87,3.35,17.3s17.39,31.43,23.61,32c7.25.7,25.9-.1,31.38-4C216,151,216.5,146.49,215.94,141.48Z"/><path class="cls-14" d="M183,157.69c-3.57,0-7.46-1.23-10.89-2.31l-1.27-.4c-5.5-1.7-28.72-20.34-32.27-25.9-3.37-5.28-3.59-12-3.19-16.64.54-6.18,7.17-10.57,9.35-12l.7-.47a34.37,34.37,0,0,1,12.9-5.69,18.88,18.88,0,0,1,3.81-.39A18,18,0,0,1,169,95.19a21.06,21.06,0,0,1,5.8,3.66,18.88,18.88,0,0,1,5.16,6.73c.49,1.06,1,2.29,1.62,3.73.74,1.74,1.65,3.9,2.8,6.47,3.54,7.88,7.48,21.26,8.6,25.17a18.52,18.52,0,0,1,.6,3c.55,4.92,0,8.84-4.45,12a10.16,10.16,0,0,1-6.08,1.74Z"/><path d="M162.18,94.93a17,17,0,0,1,6.42,1.24,20.49,20.49,0,0,1,5.52,3.49A18,18,0,0,1,179,106c.47,1,1,2.28,1.6,3.71.74,1.74,1.66,3.91,2.81,6.49,3.51,7.83,7.43,21.14,8.55,25a16.59,16.59,0,0,1,.57,2.82c.51,4.55,0,8.17-4,11a9.09,9.09,0,0,1-5.47,1.55c-3.4,0-7.21-1.2-10.57-2.26l-1.28-.4c-5.21-1.62-28.32-20.18-31.69-25.47-3.22-5-3.42-11.46-3-16,.33-3.77,3.32-7.54,8.88-11.22l.24-.16.47-.32a33.54,33.54,0,0,1,12.52-5.53,18.25,18.25,0,0,1,3.6-.37m0-2.1a20.24,20.24,0,0,0-4,.41,36.25,36.25,0,0,0-13.74,6.16c-1.84,1.23-9.44,6-10,12.95-.44,5-.12,11.86,3.35,17.3s26.88,24.49,32.84,26.34c3.79,1.17,8.28,2.75,12.47,2.75a11.3,11.3,0,0,0,6.69-1.93c4.92-3.49,5.45-8,4.89-13a19.15,19.15,0,0,0-.64-3.17c-1.24-4.32-5.11-17.42-8.65-25.31-2.08-4.65-3.34-7.83-4.42-10.21a19.86,19.86,0,0,0-5.45-7.1,22.22,22.22,0,0,0-6.07-3.82,19.23,19.23,0,0,0-7.21-1.39Z"/><ellipse class="cls-15" cx="151.54" cy="116.79" rx="14.01" ry="11.19" transform="translate(31.94 266.13) rotate(-88.93)"/><ellipse class="cls-15" cx="165.43" cy="136.98" rx="10.03" ry="8.02" transform="translate(25.39 299.82) rotate(-88.93)"/><ellipse class="cls-15" cx="181.26" cy="145.17" rx="7.9" ry="6.31" transform="translate(32.73 323.68) rotate(-88.93)"/><ellipse class="cls-16" cx="150.83" cy="116.78" rx="5.23" ry="3.81" transform="translate(31.25 265.4) rotate(-88.93)"/><ellipse class="cls-16" cx="165.07" cy="137.37" rx="4.52" ry="3.29" transform="translate(-10.41 261.17) rotate(-74.97)"/><ellipse class="cls-16" cx="181.25" cy="145.71" rx="3.35" ry="2.43" transform="translate(-6.48 282.97) rotate(-74.97)"/><path class="cls-17" d="M185.86,134.65s-1.66-3.64-7.18-2c-.91-2.35-2.76-8.7-12.48-8.3.55-2.14,4.67-11.33-2.24-20.72,2.88-1.17,4.67-2,8.13,2.6S186.29,133.57,185.86,134.65Z"/><line class="cls-18" x1="202.18" y1="102.69" x2="180.38" y2="104.07"/><line class="cls-18" x1="190.04" y1="91.62" x2="165.78" y2="93.16"/><polyline class="cls-18" points="162.31 93.38 155.87 93.79 155.87 93.79"/><line class="cls-18" x1="208.01" y1="116.23" x2="186.3" y2="117.61"/><line class="cls-18" x1="212.69" y1="129.64" x2="191.06" y2="131.02"/><line class="cls-18" x1="216.1" y1="143.5" x2="194.72" y2="144.85"/><path class="cls-19" d="M223.48,89.7l-32.17-5.32c-5.44-1.07-9.44-.88-10.83,4.29h0c-.79,5.18,1.79,6.26,6.65,8l32.57,12.53a9.75,9.75,0,0,0,11.91-6.88h0C233,97.19,228.65,91.08,223.48,89.7Z"/><path class="cls-20" d="M221,89.26l-33.42-6.07c-5.45-1.07-9.05,10.55-4.18,12.33L216,108.05a9.75,9.75,0,0,0,11.91-6.88h0A9.75,9.75,0,0,0,221,89.26Z"/><path class="cls-21" d="M229.39,97.29s.23-1.63-1.73-4c3.72-2,13.32-5.37,14.63-4.44.89.64,1.76,2.41,2.51,4.11A2.42,2.42,0,0,1,243,96.46c-4.94.66-12.59,1.45-12.59,1.45Z"/><path class="cls-22" d="M227.61,93.24c3.72-2,12.61-6.35,13.92-5.41a12.75,12.75,0,0,1,2.75,3.9,2.4,2.4,0,0,1-1.8,3.49c-4.94.66-12.83,2.36-13.19,2.15A5.07,5.07,0,0,0,227.61,93.24Z"/><path class="cls-21" d="M228.52,103.77s1.18-1.15,1-4.21c4.14.68,13.86,3.77,14.33,5.31.33,1,0,3-.47,4.79a2.43,2.43,0,0,1-3.55,1.69c-4.33-2.46-10.9-6.46-10.9-6.46Z"/><path class="cls-22" d="M229.55,99.48c4.15.69,13.89,2.57,14.36,4.11a12.67,12.67,0,0,1-.17,4.76,2.39,2.39,0,0,1-3.54,1.7c-4.34-2.47-11.64-5.88-11.8-6.27A5,5,0,0,0,229.55,99.48Z"/><path class="cls-21" d="M222.79,108.14s1.64-.09,3.57-2.47c2.65,3.26,7.27,8.59,6.61,10.06-.45,1-.48,1.15-2,2.22a2.5,2.5,0,0,1-3.78-1.08,41.64,41.64,0,0,0-4.81-7.59Z"/><path class="cls-22" d="M226.4,105.61c2.66,3.26,8.09,7.71,7.43,9.17a4.37,4.37,0,0,1-1.75,2.41,2.47,2.47,0,0,1-3.78-1.08c-2.26-4.42-5.74-7.65-5.61-8A5,5,0,0,0,226.4,105.61Z"/><path class="cls-21" d="M224.61,90l2,2.39s1,.14,1.27.15c1.28.06,8.41-7.24,6.92-8.66s-3.91-2.82-4.57-2.53c-.08,0-1,.18-1,.18S224.05,90,224.61,90Z"/><path class="cls-22" d="M223.35,89.84a6.74,6.74,0,0,1,1.91,1,11.16,11.16,0,0,1,1.4,1.5c.85,1,8.42-7.24,6.92-8.66s-3.9-2.44-4.57-2.16S222.7,89.85,223.35,89.84Z"/><ellipse class="cls-23" cx="218.36" cy="98.35" rx="3.81" ry="3.44" transform="translate(-11.49 165.62) rotate(-40.56)"/><path class="cls-24" d="M196.55,82.92s-26.43-13.79-38.43-16.31c0,0-32.4-2.85-60.42-2,3.22,2.57,31.15,15.27,35.14,16.2S185.75,84.12,196.55,82.92Z"/><path class="cls-25" d="M141.76,78.13s-10.7-6.79-11.8-7.19,21-.38,21-.38,10.4,6.4,11.09,7.1S141.76,78.13,141.76,78.13Z"/><path class="cls-26" d="M97.36,64.55s-4.16,46.17-1.11,58c3.36,3,26.82,14.64,34.45,14.9,1-5.27,3.77-52.75,1.8-56.68C129.74,78.44,108.86,68.24,97.36,64.55Z"/><path class="cls-16" d="M196.55,82.92s.07,23.67-1.38,41c-.56,6.68-7.21,12.95-8.3,13.17-2.52,2.16-59.81,2.58-63.07.22a18.58,18.58,0,0,0,6.65-13.92c.3-11.52,1.62-28.68,2.05-42.62C134.62,79.75,186.55,81.07,196.55,82.92Z"/><path class="cls-27" d="M141.39,54.27l-.91,17.43,15.26,1c2.55.13,4.83-3.66,5.08-8.47s-1.62-8.82-4.17-9a3.26,3.26,0,0,0-2.42,1.09Z"/><path class="cls-28" d="M209.11,54.88s-6,3.69-16,4.44c-4.47.33-10.26-.48-15.83-1.49-18.11-3.3-25.73-13.21-25.73-13.21s1.86-12.49,2.31-16.69S160.48,16,160.48,16Z"/><path class="cls-28" d="M92.75,49.41s3.15,6.4,14.84,6.49,28.89-3.54,28.89-3.54l11.37-13.61Z"/><path class="cls-16" d="M158.52,18.44l-6.13-.37-.88,19.51,5.8.3S157.28,25,158.52,18.44Z"/><polygon class="cls-29" points="157.31 37.88 153.23 42.87 149.09 42.65 151.51 37.58 157.31 37.88"/><polygon class="cls-30" points="161.85 38.12 145.95 37.29 145.5 65.36 160.6 65.79 161.85 38.12"/><path class="cls-31" d="M157.3,37.72l.25,3.37a.54.54,0,0,0,.2.41l3.94,3.23a.57.57,0,0,0,.93-.33l.18-.92a.54.54,0,0,0-.14-.5L158.3,37.3A.57.57,0,0,0,157.3,37.72Z"/><polygon class="cls-32" points="136.47 52.36 137.66 58.76 145.5 65.36 145.95 37.29 136.47 52.36"/><path class="cls-28" d="M151.29,38.06s-.44,3.21-1.14,3.68a88.31,88.31,0,0,1-10.8,3.93c-1.06.09-.73-2.32-.73-2.32Z"/><path class="cls-33" d="M151.29,38.06s-.54,3.88-1.41,3.83c-1.08.46-9.06,3.47-9.06,3.47"/><path class="cls-34" d="M100,50.16a23,23,0,0,1-4.48-.36A2.06,2.06,0,0,1,93.89,48c-.67-5.58-1.84-19.73,1.87-30.62A2.1,2.1,0,0,1,97.46,16a226.12,226.12,0,0,1,29.47-2A183.06,183.06,0,0,1,149,15.28a2.08,2.08,0,0,1,1.82,1.93c.46,6.92-.11,17.95-1.07,21.33C147.19,41.4,116.38,50.16,100,50.16Z"/><path class="cls-35" d="M126.94,15.54A179.74,179.74,0,0,1,148.8,16.8a.55.55,0,0,1,.49.51c.45,6.87-.12,16.89-.9,20.35-1.75,1.16-8.48,3.74-19.52,6.46C117.45,47,106.66,48.63,100,48.63a22.65,22.65,0,0,1-4.19-.32.57.57,0,0,1-.43-.48c-.66-5.48-1.81-19.36,1.8-29.95a.57.57,0,0,1,.47-.4,221.62,221.62,0,0,1,29.27-1.94h0m0-3a226.89,226.89,0,0,0-29.68,2,3.64,3.64,0,0,0-2.94,2.45c-3.83,11.25-2.59,25.86-1.94,31.29a3.6,3.6,0,0,0,2.87,3.11,25.27,25.27,0,0,0,4.78.38c16.19,0,50.1-9.18,51.14-12.56s1.63-15.1,1.17-22a3.6,3.6,0,0,0-3.15-3.34,184.6,184.6,0,0,0-22.25-1.28Z"/><polygon class="cls-30" points="159.19 70.19 158.1 77.53 141.8 76.98 143.66 69.66 159.19 70.19"/><polygon class="cls-32" points="136.41 65.51 131.92 71 141.8 76.98 143.66 69.66 136.41 65.51"/><ellipse class="cls-36" cx="140.94" cy="62.98" rx="8.73" ry="4.63" transform="translate(70.7 200.45) rotate(-87.02)"/><path class="cls-37" d="M157.44,37.41s0,3.81.31,4.09l3.94,3.23"/><path class="cls-34" d="M205,54.29c-13.49,0-42.71-11.65-44.84-14.9-.64-3.37-.16-14.62.92-21.34A2,2,0,0,1,163,16.36c2-.05,4-.08,6-.08A171.45,171.45,0,0,1,208,20.48,2,2,0,0,1,209.53,22c2.67,11.18.18,25.14-1,30.63a2,2,0,0,1-1.74,1.57,16.91,16.91,0,0,1-1.82.09Z"/><path class="cls-35" d="M169,17.88A170.05,170.05,0,0,1,207.66,22a.44.44,0,0,1,.31.33c2.59,10.86.15,24.54-1,29.92a.42.42,0,0,1-.34.32c-.5,0-1.06.08-1.66.08-13.11,0-39.65-10.76-43.33-14.06-.47-3.47-.1-13.52,1-20.33A.41.41,0,0,1,163,18c2-.05,4-.08,5.94-.08m0-3.21q-2.92,0-6,.09a3.62,3.62,0,0,0-3.46,3c-1.1,6.84-1.63,18.44-.88,22S190.77,55.89,205,55.89c.71,0,1.37,0,2-.09A3.61,3.61,0,0,0,210.09,53c1.16-5.35,3.76-19.77,1-31.34a3.65,3.65,0,0,0-2.7-2.71A170.29,170.29,0,0,0,169,14.67Z"/><path class="cls-38" d="M131.5,41.24c-6.07-.2-10.82-5.73-10.6-12.32S126,17.32,132,17.32h.34a10.51,10.51,0,0,1,7.63,3.73,12.36,12.36,0,0,1,3,8.6c-.22,6.5-5.07,11.59-11.05,11.59Z"/><path class="cls-39" d="M132,18.62h.3A9.26,9.26,0,0,1,139,21.91a11.14,11.14,0,0,1,2.66,7.7c-.2,5.8-4.49,10.34-9.76,10.34h-.31c-5.35-.18-9.54-5.11-9.34-11s4.48-10.34,9.76-10.34M132,16c-6.62,0-12.11,5.66-12.36,12.84s5.07,13.44,11.86,13.67h.39c6.62,0,12.11-5.67,12.35-12.85S139.14,16.26,132.35,16Z"/><path class="cls-38" d="M178.08,43.72A10.51,10.51,0,0,1,170.45,40a12.42,12.42,0,0,1-3-8.6c.22-6.5,5.07-11.59,11.06-11.59h.34a10.54,10.54,0,0,1,7.63,3.73,12.38,12.38,0,0,1,3,8.6c-.22,6.5-5.07,11.59-11,11.59Z"/><path class="cls-39" d="M178.54,21.09h.3a9.25,9.25,0,0,1,6.69,3.28,11.16,11.16,0,0,1,2.66,7.71c-.2,5.8-4.49,10.34-9.76,10.34h-.31c-5.35-.18-9.54-5.11-9.34-11s4.48-10.35,9.76-10.35m0-2.59c-6.62,0-12.11,5.67-12.36,12.85S171.25,44.79,178,45h.39c6.62,0,12.11-5.67,12.35-12.85s-5.06-13.44-11.85-13.66Z"/><ellipse class="cls-40" cx="140.57" cy="63.45" rx="4.36" ry="2.01" transform="translate(72.45 201.81) rotate(-88.08)"/><path class="cls-41" d="M160.46,67.12c6.81,1.24,36.09,15.8,36.09,15.8s-.17,38.62-1.38,41c-.57,2.8-.74,6.32-7.29,12.54-2.12,1-3,3.72-45.25,2.44"/><path class="cls-41" d="M136.36,65.11s-37.42-1.22-39-.56c0,0-2.35,32.05-2.09,34"/><path class="cls-19" d="M80,54.51l28.48,15.88c4.93,2.55,7.94,5.19,5.81,10.1h0C111.64,85,109,84.28,104,82.64L70.75,72.15a9.76,9.76,0,0,1-5-12.8h0C67.86,54.44,75.06,52.38,80,54.51Z"/><path class="cls-20" d="M82.15,55.69l29.92,16.07c4.93,2.55.51,13.89-4.4,12.25L74.38,73.52a9.76,9.76,0,0,1-5-12.8h0A9.76,9.76,0,0,1,82.15,55.69Z"/><path class="cls-21" d="M70.62,56.77s.83-1.42,3.83-2c-1.68-3.85-7.07-12.5-8.68-12.59-1.09-.06-2.87.79-4.52,1.65a2.42,2.42,0,0,0-.77,3.85c3.46,3.59,9,9,9,9Z"/><path class="cls-22" d="M74.53,54.71c-1.69-3.85-5.91-12.82-7.52-12.9a12.75,12.75,0,0,0-4.58,1.34A2.4,2.4,0,0,0,61.66,47c3.46,3.59,8.57,9.83,9,9.89A5,5,0,0,1,74.53,54.71Z"/><path class="cls-21" d="M67.25,62.38s-.19-1.63,1.82-3.94c-3.67-2-13.19-5.68-14.52-4.77-.91.61-1.81,2.36-2.61,4a2.42,2.42,0,0,0,1.72,3.53C58.58,62,66.21,63,66.21,63Z"/><path class="cls-22" d="M69.12,58.38c-3.67-2.05-12.46-6.64-13.79-5.73a12.47,12.47,0,0,0-2.83,3.84A2.39,2.39,0,0,0,54.21,60c4.93.77,12.77,2.64,13.14,2.44A5,5,0,0,1,69.12,58.38Z"/><path class="cls-21" d="M69,69.37s-1.23-1.09-1.25-4.15c-4.11.89-11,2.19-11.44,3.75-.27,1.06-.34,1.2.18,3a2.51,2.51,0,0,0,3.63,1.51,41.81,41.81,0,0,1,8.49-2.95Z"/><path class="cls-22" d="M67.77,65.14c-4.11.9-11.13,1-11.53,2.55a4.35,4.35,0,0,0-.12,3,2.47,2.47,0,0,0,3.62,1.5c4.53-2,9.26-2.4,9.41-2.8A5,5,0,0,1,67.77,65.14Z"/><path class="cls-21" d="M78.9,54l-3.09.58s-.9-.53-1.09-.66c-1-.76-2.07-10.91,0-11.09s4.82.23,5.15.87c.05.08.71.78.71.78S79.33,54.4,78.9,54Z"/><path class="cls-22" d="M80,54.7a6.57,6.57,0,0,0-2.14-.37,11.46,11.46,0,0,0-2,.29c-1.27.23-2.08-10.9,0-11.08s4.57.52,4.91,1.16S80.48,55.12,80,54.7Z"/><ellipse class="cls-23" cx="78.58" cy="64.47" rx="3.44" ry="3.81" transform="translate(-10.79 16.05) rotate(-10.92)"/><path class="cls-42" d="M145.91,95.16l36.9.38a2.74,2.74,0,0,1,2.71,2.93l-1.46,21.85a2.74,2.74,0,0,1-2.76,2.57l-37-.38a2.74,2.74,0,0,1-2.71-2.93l1.5-21.86A2.75,2.75,0,0,1,145.91,95.16Z"/><path class="cls-43" d="M145.28,96.21l37,.3a2.14,2.14,0,0,1,2.12,2.28l-1.47,22a2.13,2.13,0,0,1-2.14,2l-37-.25a2.13,2.13,0,0,1-2.11-2.28l1.46-22A2.12,2.12,0,0,1,145.28,96.21Z"/><path class="cls-44" d="M168.71,107.51,146,107.12a1.38,1.38,0,0,1-1.34-1.41l.48-6.46a1.39,1.39,0,0,1,1.41-1.34l22.76.4a1.37,1.37,0,0,1,1.33,1.41l-.48,6.45A1.37,1.37,0,0,1,168.71,107.51Z"/><ellipse class="cls-45" cx="150.02" cy="102.63" rx="3.32" ry="2.66" transform="translate(41.14 248.18) rotate(-87.58)"/><ellipse class="cls-46" cx="158.05" cy="102.7" rx="3.32" ry="2.66" transform="translate(48.76 256.27) rotate(-87.58)"/><ellipse class="cls-47" cx="165.9" cy="103.01" rx="3.32" ry="2.66" transform="translate(55.97 264.41) rotate(-87.58)"/><path class="cls-48" d="M163.94,113,146,112.74a1.43,1.43,0,0,1-1.39-1.47h0a1.43,1.43,0,0,1,1.47-1.38l17.92.23a1.43,1.43,0,0,1,1.39,1.47h0A1.44,1.44,0,0,1,163.94,113Z"/><path class="cls-49" d="M153.41,121.46l-7.95-.14a1.44,1.44,0,0,1-1.39-1.47h0a1.44,1.44,0,0,1,1.47-1.39l8,.15a1.42,1.42,0,0,1,1.38,1.47h0A1.42,1.42,0,0,1,153.41,121.46Z"/><path class="cls-49" d="M153.68,117.46l-8-.15a1.42,1.42,0,0,1-1.38-1.47h0a1.42,1.42,0,0,1,1.47-1.38l7.95.15a1.43,1.43,0,0,1,1.39,1.47h0A1.43,1.43,0,0,1,153.68,117.46Z"/><polygon class="cls-50" points="173.16 98.56 184.05 98.59 182.56 120.91 171.56 120.75 173.16 98.56"/><ellipse class="cls-51" cx="182.07" cy="101.07" rx="1.38" ry="1.19" transform="matrix(0.07, -1, 1, 0.07, 69.11, 276.01)"/><path class="cls-52" d="M182.16,99.69a4.2,4.2,0,0,1-.26,2.75"/><path class="cls-52" d="M180.88,101a5.09,5.09,0,0,0,2.37.16"/><ellipse class="cls-53" cx="173.34" cy="118.91" rx="1.38" ry="1.19" transform="translate(43.16 283.95) rotate(-86.19)"/><path class="cls-52" d="M173.43,117.54a4.17,4.17,0,0,1-.26,2.74"/><path class="cls-52" d="M172.15,118.83a5,5,0,0,0,2.37.16"/><ellipse class="cls-54" cx="181.08" cy="118.97" rx="1.38" ry="1.19" transform="translate(50.33 291.74) rotate(-86.19)"/><path class="cls-52" d="M181.18,117.6a4.17,4.17,0,0,1-.26,2.74"/><path class="cls-52" d="M179.9,118.89a5,5,0,0,0,2.37.16"/><ellipse class="cls-55" cx="175.32" cy="100.93" rx="1.38" ry="1.19" transform="translate(62.95 269.15) rotate(-86.19)"/><path class="cls-52" d="M175.42,99.56a4.17,4.17,0,0,1-.26,2.74"/><path class="cls-52" d="M174.14,100.85a5,5,0,0,0,2.37.16"/><path class="cls-56" d="M144.64,111.27a10.89,10.89,0,0,1,6,.4c2.83,1.17,3.13-1.41,4.47-1.29s1.52,2.11,3.35,2,1.28-.81,2.14-.75.81,1,1.63.91,1.34-2.55,1.81-2.45"/><path class="cls-13" d="M145,148a18.83,18.83,0,0,0-.64-3.16c-1.24-4.33-5.11-17.43-8.65-25.32-2.08-4.65-3.34-7.83-4.42-10.21a20,20,0,0,0-5.45-7.1,22.22,22.22,0,0,0-6.07-3.82,22.23,22.23,0,0,0-11.22-1C99.1,98.57,94,98.7,92.16,99.27c-1.84,1.22-9.76,9.37-10.36,16.33-.44,5-.12,11.86,3.35,17.29s17.39,31.44,23.6,32c7.25.71,25.91-.1,31.39-4C145.06,157.47,145.59,153,145,148Z"/><path class="cls-14" d="M112.12,164.18c-3.56,0-7.45-1.23-10.88-2.31l-1.27-.4c-5.5-1.71-28.72-20.35-32.27-25.9-3.37-5.29-3.6-12-3.19-16.64.54-6.19,7.17-10.57,9.35-12l.7-.48a34.53,34.53,0,0,1,12.9-5.69,19.61,19.61,0,0,1,3.81-.38,18.06,18.06,0,0,1,6.81,1.31,21.22,21.22,0,0,1,5.8,3.66,19,19,0,0,1,5.16,6.72c.48,1.06,1,2.28,1.61,3.72.74,1.74,1.66,3.91,2.81,6.48,3.54,7.9,7.48,21.27,8.6,25.18a18.41,18.41,0,0,1,.6,3c.55,4.92,0,8.85-4.45,12a10.21,10.21,0,0,1-6.09,1.74Z"/><path d="M91.27,101.42a17,17,0,0,1,6.42,1.23,20.24,20.24,0,0,1,5.52,3.5,17.81,17.81,0,0,1,4.87,6.35c.48,1,1,2.27,1.61,3.7.73,1.74,1.65,3.91,2.81,6.49,3.51,7.84,7.43,21.15,8.55,25a18.55,18.55,0,0,1,.57,2.82c.51,4.55,0,8.17-4,11a9.17,9.17,0,0,1-5.48,1.55c-3.4,0-7.21-1.2-10.57-2.26-.43-.14-.85-.28-1.27-.4C95.06,158.85,72,140.28,68.59,135c-3.22-5-3.42-11.47-3-16,.33-3.77,3.31-7.55,8.88-11.23l.24-.16.47-.32a33.54,33.54,0,0,1,12.52-5.53,18.24,18.24,0,0,1,3.6-.36m0-2.1a20.22,20.22,0,0,0-4,.4,36.33,36.33,0,0,0-13.74,6.16c-1.84,1.23-9.44,6-10.05,13-.43,5-.11,11.86,3.35,17.29s26.89,24.49,32.85,26.34c3.78,1.18,8.28,2.76,12.46,2.76a11.28,11.28,0,0,0,6.69-1.93c4.92-3.49,5.46-8,4.9-13a19,19,0,0,0-.64-3.16c-1.24-4.33-5.12-17.43-8.65-25.32-2.08-4.65-3.34-7.82-4.42-10.2a19.89,19.89,0,0,0-5.46-7.1,21.69,21.69,0,0,0-6.07-3.83,19.13,19.13,0,0,0-7.2-1.38Z"/><ellipse class="cls-15" cx="80.63" cy="123.28" rx="14.01" ry="11.19" transform="translate(-44.13 201.59) rotate(-88.93)"/><ellipse class="cls-15" cx="94.52" cy="143.46" rx="10.03" ry="8.02" transform="translate(-50.68 235.29) rotate(-88.93)"/><ellipse class="cls-15" cx="110.34" cy="151.66" rx="7.9" ry="6.31" transform="translate(-43.35 259.15) rotate(-88.93)"/><ellipse class="cls-16" cx="79.92" cy="123.26" rx="5.23" ry="3.81" transform="translate(-44.82 200.86) rotate(-88.93)"/><ellipse class="cls-16" cx="94.16" cy="143.86" rx="4.52" ry="3.29" transform="translate(-69.19 197.49) rotate(-74.97)"/><ellipse class="cls-16" cx="110.33" cy="152.19" rx="3.35" ry="2.43" transform="translate(-65.26 219.29) rotate(-74.97)"/><path class="cls-17" d="M115,141.14s-1.66-3.64-7.18-2c-.92-2.35-2.77-8.7-12.48-8.31.54-2.13,4.67-11.32-2.24-20.71,2.88-1.18,4.67-2,8.12,2.6S115.38,140.06,115,141.14Z"/><line class="cls-18" x1="131.27" y1="109.17" x2="109.47" y2="110.56"/><line class="cls-18" x1="119.13" y1="98.11" x2="94.86" y2="99.65"/><polyline class="cls-18" points="91.4 99.87 84.96 100.28 84.96 100.28"/><line class="cls-18" x1="137.1" y1="122.72" x2="115.38" y2="124.09"/><line class="cls-18" x1="141.78" y1="136.13" x2="120.14" y2="137.5"/><line class="cls-18" x1="145.19" y1="149.98" x2="123.8" y2="151.34"/><ellipse class="cls-57" cx="183.73" cy="79.29" rx="1.12" ry="3.67" transform="translate(64.78 240.2) rotate(-76.87)"/><path class="cls-58" d="M136.53,31.15A7,7,0,0,0,127.15,30c-.86.65-1.34,1.08-1.34.61h0a5.65,5.65,0,0,1,1.34-2.86,7,7,0,0,1,9.38-1.15c.86.64,1.34,2.61,1.34,4h0C137.87,32,137.39,32.09,136.53,31.15Z"/><path class="cls-58" d="M174,33.41c2.55-2.76,6.61-3.14,9.15-1.12.83.62,1.3,1.05,1.3.58h0a5.55,5.55,0,0,0-1.3-2.78A6.86,6.86,0,0,0,174,29c-.83.62-1.3,2.54-1.3,3.9h0C172.7,34.24,173.17,34.32,174,33.41Z"/><line class="cls-59" x1="152.39" y1="18.07" x2="158.52" y2="18.44"/><polygon class="cls-60" points="150.16 99.31 180.32 61.49 202.18 165.16 149.88 105.95 150.16 99.31"/><polygon class="cls-61" points="158.19 99.38 201.21 61.49 236.35 164.05 157.91 106.02 158.19 99.38"/><polygon class="cls-62" points="166.04 99.69 228.54 40.98 246.68 129.11 165.76 106.33 166.04 99.69"/><path class="cls-63" d="M298.82,33.85V166.29a3.66,3.66,0,0,1,1.06,2.6v4.69c0,14.59-10.88,26.41-24.31,26.41h-4.31a3.16,3.16,0,0,1-2.6-1.42H31.21A3.18,3.18,0,0,1,28.58,200H24.27C10.85,200,0,188.2,0,173.61v-4.68A3.65,3.65,0,0,1,1,166.33V33.65a3.63,3.63,0,0,1-1-2.52V26.45C0,11.86,10.92,0,24.35,0h4.31a3.14,3.14,0,0,1,2.47,1.24H268.9a3.1,3.1,0,0,1,2.44-1.2h4.31C289.07.07,300,11.89,300,26.49v4.68A3.65,3.65,0,0,1,298.82,33.85Z"/><path class="cls-64" d="M189.56,141.3h0c-.18,0-.18,0-.27-.1L182.92,139l6.64.82a1.39,1.39,0,0,1,.64.09l-.09,1.37Z"/><path class="cls-65" d="M189.47,140.65a1.54,1.54,0,0,1,.64.1h-.55c0-.1,0-.1-.09-.1m.18-1.45-.63,2.73c.09,0,.18.09.27.09h.7l.19-2.73a1.28,1.28,0,0,1-.55-.09"/><path class="cls-66" d="M191.39,141.48a6.83,6.83,0,0,1-1.28-.09l.09-1.37,1,.09h.37Z"/><path class="cls-65" d="M190.2,140.65l.91.1h.28a4.75,4.75,0,0,1-1.19-.1m0-1.36L190,142c.45,0,.91.09,1.37.09l.26-2.73h-.47Z"/><path class="cls-65" d="M156.68,164.05l-5.56-.36-9.64-.64h-.71l-.9-.09a1.72,1.72,0,0,1-.71-.09,39,39,0,0,1-25.85-13.11,41.79,41.79,0,0,1-10.14-31.5L104.35,96c.91-8.83,1.72-11.11,7.65-11.47l1.45-16.2A35.22,35.22,0,0,1,148,36.06h11.65c.45,0,.91.1,1.37.1a35.39,35.39,0,0,1,32,38.32l-1.09,12.75a4,4,0,0,1,1.09.18,11.17,11.17,0,0,1,8.83,12.19l-1.09,21.31a48.31,48.31,0,0,1-7.28,21.58c-8.37,13.2-22.39,21.39-36.78,21.57m-10-78.57,21.48.7.91-10.56a20.76,20.76,0,0,0-4.73-15.11,21,21,0,0,0-11.27-6.92,18.49,18.49,0,0,0-3.55,1.18A20.7,20.7,0,0,0,137,72l-1.18,13.2Z"/><path class="cls-65" d="M148.78,36.87h10.65c.45,0,.91.09,1.37.09a34.81,34.81,0,0,1,31.49,37.61l-1.18,13.56a9,9,0,0,1,1.64.18A10.43,10.43,0,0,1,201,99.78L200,121.09a46.15,46.15,0,0,1-7.19,21.2c-7.91,12.48-21.29,21-36,21h-.11l-5.46-.37-9.65-.64h-.7l-.91-.09a1.71,1.71,0,0,1-.64-.09,38,38,0,0,1-25.4-12.83,41.06,41.06,0,0,1-9.92-31L105.18,96c.91-9.1,1.73-10.65,7.56-10.92l1.45-16.75A34.72,34.72,0,0,1,148,36.76h.82m20,50.16,1-11.2a21.77,21.77,0,0,0-4.93-15.66,21.38,21.38,0,0,0-11.83-7.19,20.66,20.66,0,0,0-3.82,1.28A21.38,21.38,0,0,0,136.33,71.9l-1.27,13.92,11.56.37h.27l21.94.7m-20-51.4h-.91a36.43,36.43,0,0,0-23.76,9.65,35.66,35.66,0,0,0-11.38,23.24L111.45,84c-6.18.63-6.82,3.82-7.64,12l-1.19,22.31a42.42,42.42,0,0,0,10.29,32,40.11,40.11,0,0,0,26.32,13.38,1.69,1.69,0,0,1,.63.09l.91.09h.91l9.56.65,5.46.35h.09c14.56-.17,28.77-8.44,37.15-21.66a48.28,48.28,0,0,0,7.37-21.83L202.4,99.9a11.85,11.85,0,0,0-9.47-12.84c-.18,0-.27-.09-.45-.09l1.09-12.1a36.22,36.22,0,0,0-32.66-39.18c-.46,0-.92-.09-1.37-.09h-9.12Zm-12.19,49L137.67,72a20,20,0,0,1,12.1-16.66,22.52,22.52,0,0,1,3.28-1.09,20.07,20.07,0,0,1,10.74,6.64,19.8,19.8,0,0,1,4.65,14.56l-.92,9.92L147,84.76h-.27Z"/><path class="cls-64" d="M156.68,163.33h-1.62c-1.27,0-2.55-.19-3.82-.28Z"/><path class="cls-67" d="M192.29,74.57,191.11,88l-.81,9.47-2.46-.19-6.56-.54-4.18-.37.82-8.73v-.46l1-11.56A21.78,21.78,0,0,0,174,60a21.2,21.2,0,0,0-14.49-7.56,22,22,0,0,0-6.47.46,21.8,21.8,0,0,0-16.75,19L135,85.85v.46l-.55,6.37-9-.82-4.1-.36.12-1.21.46-4.93,1.46-16.84a34.69,34.69,0,0,1,25.4-30.32l-.71-1.28H159.5c.45,0,.91.09,1.36.09a34.64,34.64,0,0,1,31.41,37.51"/><path class="cls-64" d="M201.12,99.69,200,121c-1.91,23.23-21.21,42.05-43.15,42.24h-.09l-5.46-.36-9.65-.64H141l-1.46-.09h-.18L140.8,160a38.43,38.43,0,0,1-13.47-9.86,41,41,0,0,1-9.93-31l1.19-22.3a11.34,11.34,0,0,1,2.73-6.75,11.67,11.67,0,0,1,4.46-3.37,10.11,10.11,0,0,1,4.64-.81l4.55.18,11.93.36,21.83.71,9.1.27,4.19.09,1.37.1,7.74.26a10.59,10.59,0,0,1,10,11.66"/><path class="cls-68" d="M183.19,74.57l-1.16,13v.19l-.82,9-.09.82L168,96.32l.82-9v-.46l1-11.19A21.7,21.7,0,0,0,164.9,60a22.42,22.42,0,0,0-14.47-7.65c-.36,0-.7-.09-1-.09a21.49,21.49,0,0,0-22.21,19.48L126,85.31,126,86.76l-.46,4.83-.09.82L120.11,92l-7.91-.7.54-6.19,1.46-16.75A34.72,34.72,0,0,1,148,36.72h2.55c.45,0,.91.09,1.27.09A34.51,34.51,0,0,1,175.3,49.1a35.7,35.7,0,0,1,7.93,25.49"/><path class="cls-66" d="M187.84,97.33a11.51,11.51,0,0,1-.19,1.55l-1.09,21.3c-2,23.4-21.58,42.42-43.79,42.25h-1.09a23.62,23.62,0,0,1-2.37-.18,38,38,0,0,1-25.4-12.82,41,41,0,0,1-9.92-31l1.18-22.3c.91-9.11,1.74-10.66,7.56-10.92,1.18-.1,2.64-.1,4.28-.1l4.82.19,4.23.17,9.1.28,11.56.36H147l21.83.71,8.83.27h.14c1.64.19,3,.28,4.19.46a6.35,6.35,0,0,0,1.37.18c4,.91,5.1,2.82,4.46,9.56"/><path class="cls-69" d="M187.84,97.33a11.51,11.51,0,0,1-.19,1.55l-1.09,21.3c-2,23.4-21.58,42.42-43.79,42.25h-.88l4.83-76.29H147l21.83.71,8.83.27h.14c1.64.18,3,.27,4.19.46a7.91,7.91,0,0,0,1.37.18c4,.91,5.1,2.82,4.46,9.56"/><path class="cls-70" d="M155.15,113.8a10.22,10.22,0,0,1-5.46,8.29l-.64,9.28a5.29,5.29,0,0,1-10.58-.38c0-.11,0-.22,0-.32l.64-9.38a10.3,10.3,0,0,1-4.22-8.92,10.13,10.13,0,0,1,20.21,1.46"/><path class="cls-70" d="M155.15,113.8a10.22,10.22,0,0,1-5.46,8.29l-.64,9.28a5.37,5.37,0,0,1-3.19,4.46,5.32,5.32,0,0,1-3.18-5.19l.62-9.37a10.27,10.27,0,0,1-4.18-8.83,10.07,10.07,0,0,1,7.91-9.15,10,10,0,0,1,8.11,10.56"/><path class="cls-71" d="M155.15,113.8a10.22,10.22,0,0,1-5.46,8.29l-.64,9.28a5.37,5.37,0,0,1-3.19,4.46,5.32,5.32,0,0,1-3.18-5.19l.62-9.37a10.27,10.27,0,0,1-4.18-8.83,10.07,10.07,0,0,1,7.91-9.15,10,10,0,0,1,8.11,10.56"/><g class="cls-72"><g class="cls-73"><g class="cls-74"><path class="cls-65" d="M116.46,141.75a2,2,0,1,1-2,2h0a2,2,0,0,1,2-2"/></g></g></g><g class="cls-72"><g class="cls-75"><g class="cls-76"><path class="cls-65" d="M121.65,146.84a17.13,17.13,0,0,0,9.86,6.38,2.39,2.39,0,0,1,1.91,2.37,2.22,2.22,0,0,1-2.81,1.63,20.41,20.41,0,0,1-12.2-7.92,2.19,2.19,0,0,1,.36-3.27,2.33,2.33,0,0,1,2.92.81"/></g></g></g></svg>