<?xml version="1.0" encoding="utf-8"?>
<!-- Generator: Adobe Illustrator 23.0.2, SVG Export Plug-In . SVG Version: 6.00 Build 0)  -->
<svg version="1.1" id="Layer_1" xmlns="http://www.w3.org/2000/svg" xmlns:xlink="http://www.w3.org/1999/xlink" x="0px" y="0px"
	 viewBox="0 0 300 200" style="enable-background:new 0 0 300 200;" xml:space="preserve">
<style type="text/css">
	.st0{fill:#00B1FF;}
	.st1{fill:#E2E2E2;}
	.st2{fill:#FDFEFF;}
	.st3{fill:#41B9FA;}
	.st4{fill:#C4C4C4;}
	.st5{fill:#E5E5E5;}
	.st6{fill:#626C72;}
	.st7{fill:#96A5B3;}
	.st8{fill:#2F3E4A;}
	.st9{fill:#222D35;}
	.st10{opacity:0.27;}
	.st11{fill:#353535;stroke:#000000;stroke-width:6.000000e-02;stroke-linejoin:round;}
	.st12{fill:#4D4D4D;}
	.st13{fill:#B3B3B3;}
	.st14{opacity:0.41;fill:#F9F7F7;enable-background:new    ;}
	.st15{fill:#D3161D;}
	.st16{fill:#77401B;stroke:#070707;stroke-width:8.000000e-02;stroke-miterlimit:10;}
	.st17{fill:#F8C946;stroke:#020202;stroke-width:8.000000e-02;stroke-miterlimit:10;}
	.st18{fill:#282828;stroke:#151616;stroke-width:6.000000e-02;stroke-miterlimit:10;}
	.st19{fill:#4D4D4D;stroke:#151616;stroke-width:6.000000e-02;stroke-miterlimit:10;}
	.st20{fill:#4D4D4D;stroke:#151616;stroke-width:0.23;stroke-miterlimit:10;}
	.st21{fill:#F8C946;}
	.st22{fill:#683919;}
	.st23{fill:#945320;}
	.st24{fill:#7F1119;}
	.st25{fill:#5E0E18;}
	.st26{fill:#352F49;}
	.st27{fill:#E41E00;}
	.st28{fill:#FFFE28;}
	.st29{fill:#18FF08;}
	.st30{fill:#DBDDDD;}
	.st31{fill:#0FB0DB;}
	.st32{fill:#303435;}
	.st33{fill:url(#SVGID_1_);stroke:#0A0A0A;stroke-width:3.000000e-02;stroke-miterlimit:10;}
	.st34{fill:none;stroke:#0A0A0A;stroke-width:3.000000e-02;stroke-miterlimit:10;}
	.st35{fill:url(#SVGID_2_);stroke:#0A0A0A;stroke-width:3.000000e-02;stroke-miterlimit:10;}
	.st36{fill:url(#SVGID_3_);stroke:#0A0A0A;stroke-width:3.000000e-02;stroke-miterlimit:10;}
	.st37{fill:url(#SVGID_4_);stroke:#0A0A0A;stroke-width:3.000000e-02;stroke-miterlimit:10;}
	.st38{fill:none;stroke:#070707;stroke-width:4.000000e-02;stroke-miterlimit:10;}
	.st39{fill:none;stroke:#070707;stroke-width:9.000000e-02;stroke-miterlimit:10;}
	.st40{fill:#ADADAD;stroke:#080000;stroke-width:9.000000e-02;stroke-miterlimit:10;}
	.st41{fill:#515051;stroke:#000000;stroke-width:9.000000e-02;stroke-linejoin:round;}
	.st42{fill:#8E8A8B;stroke:#000000;stroke-width:7.000000e-02;stroke-linejoin:round;}
	.st43{fill:#161616;}
	.st44{fill:#E2B647;stroke:#070707;stroke-width:7.000000e-02;stroke-miterlimit:10;}
	.st45{fill:#945320;stroke:#070707;stroke-width:7.000000e-02;stroke-miterlimit:10;}
	.st46{fill:#3A3A3A;}
	.st47{fill:#666666;}
	.st48{fill:#AA161D;}
	.st49{fill:none;}
	.st50{fill:#DDDBD7;}
	.st51{fill:#212121;}
	.st52{fill:#282828;}
	.st53{fill:#7C7C7C;}
	.st54{fill:#389CCE;}
	.st55{fill:#212121;stroke:#000000;stroke-width:8.000000e-02;stroke-miterlimit:10;}
	.st56{fill:#292929;}
	.st57{fill:#2C2C2C;}
	.st58{fill:#2E2E2E;}
	.st59{fill:#2B2B2B;}
	.st60{fill:#272727;}
	.st61{fill:#252525;}
	.st62{fill:#4D4D4D;stroke:#151616;stroke-width:0.1;stroke-miterlimit:10;}
	.st63{fill:#242424;}
	.st64{fill:none;stroke:#000000;stroke-width:8.000000e-02;stroke-miterlimit:10;}
	.st65{fill:#5B5B5B;stroke:#000000;stroke-width:8.000000e-02;stroke-miterlimit:10;}
	.st66{fill:#77401B;stroke:#070707;stroke-width:0.12;stroke-miterlimit:10;}
	.st67{fill:#F8C946;stroke:#020202;stroke-width:0.12;stroke-miterlimit:10;}
	.st68{opacity:0.74;fill:#FFFFFF;stroke:#000000;stroke-width:8.000000e-02;stroke-miterlimit:10;enable-background:new    ;}
	.st69{fill:#282828;stroke:#151616;stroke-width:0.19;stroke-miterlimit:10;}
	.st70{fill:#4D4D4D;stroke:#151616;stroke-width:0.19;stroke-miterlimit:10;}
	.st71{fill:#4D4D4D;stroke:#151616;stroke-width:0.68;stroke-miterlimit:10;}
	.st72{fill:#353535;stroke:#000000;stroke-width:0.16;stroke-linejoin:round;}
	.st73{fill:#ADADAD;stroke:#080000;stroke-width:0.22;stroke-miterlimit:10;}
	.st74{fill:none;stroke:#070707;stroke-width:0.33;stroke-miterlimit:10;}
	.st75{fill:#77401B;stroke:#070707;stroke-width:0.22;stroke-miterlimit:10;}
	.st76{fill:#F8C946;stroke:#020202;stroke-width:0.22;stroke-miterlimit:10;}
	.st77{fill:#282828;stroke:#151616;stroke-width:0.18;stroke-miterlimit:10;}
	.st78{fill:#4D4D4D;stroke:#151616;stroke-width:0.18;stroke-miterlimit:10;}
	.st79{fill:#4D4D4D;stroke:#151616;stroke-width:0.66;stroke-miterlimit:10;}
	.st80{fill:#515051;stroke:#000000;stroke-width:0.22;stroke-linejoin:round;}
	.st81{fill:#161616;stroke:#0A0A0A;stroke-width:0.19;stroke-miterlimit:10;}
	.st82{fill:#8E8A8B;stroke:#000000;stroke-width:0.19;stroke-linejoin:round;}
	.st83{fill:#E2B647;stroke:#070707;stroke-width:0.19;stroke-miterlimit:10;}
	.st84{fill:#945320;stroke:#070707;stroke-width:0.19;stroke-miterlimit:10;}
	.st85{fill:none;stroke:#0A0A0A;stroke-width:0.19;stroke-miterlimit:10;}
	.st86{fill:#232323;}
	.st87{fill:none;stroke:#000000;stroke-width:0.19;stroke-miterlimit:10;}
	.st88{fill:none;stroke:#070707;stroke-width:0.22;stroke-miterlimit:10;}
	.st89{fill:url(#SVGID_5_);stroke:#0A0A0A;stroke-width:9.000000e-02;stroke-miterlimit:10;}
	.st90{fill:none;stroke:#0A0A0A;stroke-width:9.000000e-02;stroke-miterlimit:10;}
	.st91{fill:url(#SVGID_6_);stroke:#0A0A0A;stroke-width:9.000000e-02;stroke-miterlimit:10;}
	.st92{fill:url(#SVGID_7_);stroke:#0A0A0A;stroke-width:9.000000e-02;stroke-miterlimit:10;}
	.st93{fill:url(#SVGID_8_);stroke:#0A0A0A;stroke-width:9.000000e-02;stroke-miterlimit:10;}
	.st94{fill:none;stroke:#070707;stroke-width:0.11;stroke-miterlimit:10;}
	.st95{fill:#F8C946;stroke:#000000;stroke-width:0.11;stroke-miterlimit:10;}
	.st96{fill:none;stroke:#0A0A0A;stroke-width:0.18;stroke-miterlimit:10;}
	.st97{fill:#0FB0DB;stroke:#000000;stroke-width:0.53;stroke-miterlimit:10;}
	.st98{fill:#0B7087;}
	.st99{fill:#0FB0DB;stroke:#000000;stroke-width:0.21;stroke-miterlimit:10;}
	.st100{opacity:0.7;enable-background:new    ;}
	.st101{fill:#E78D00;}
	.st102{fill:#FFFFFF;}
	.st103{fill:#FACB03;}
	.st104{fill:#CCCCCC;}
	.st105{fill:#FEFEFE;}
	.st106{fill:#F7B808;}
	.st107{fill:#703500;}
	.st108{fill:#220B00;}
	.st109{opacity:0.8;}
	.st110{clip-path:url(#SVGID_10_);}
	.st111{clip-path:url(#SVGID_12_);}
	.st112{clip-path:url(#SVGID_14_);}
	.st113{clip-path:url(#SVGID_16_);}
</style>
<title>loop-locked</title>
<path class="st0" d="M26.3,192.6c-10.9,0-19.7-9.6-19.7-21.4V28.6c0-11.8,8.9-21.4,19.7-21.4h247.4c10.9,0,19.7,9.6,19.7,21.4v142.5
	c0,11.8-8.8,21.4-19.7,21.4H26.3z"/>
<path class="st1" d="M273.6,10.3c9.3,0,16.9,8.2,16.9,18.4v142.5c0,10.1-7.6,18.4-16.9,18.4H26.3c-9.3,0-16.9-8.2-16.9-18.4V28.6
	c0-10.1,7.6-18.4,16.9-18.4L273.6,10.3 M273.6,4.1H26.3c-12.4,0-22.5,11-22.5,24.5v142.5c0,13.5,10.1,24.5,22.5,24.5h247.4
	c12.4,0,22.5-11,22.5-24.5V28.6C296.2,15.1,286.1,4.1,273.6,4.1"/>
<path class="st2" d="M273.6,1.2H26.3C12.4,1.2,1.1,13.6,1.1,28.6v142.5c0,15.1,11.4,27.4,25.2,27.4h247.4
	c13.9,0,25.2-12.3,25.2-27.4V28.6C298.9,13.6,287.5,1.2,273.6,1.2 M293.5,171.1c0,5.6-2,11.1-5.8,15.2c-3.6,4-8.6,6.3-14,6.4H26.3
	c-5.4,0-10.4-2.4-14-6.4c-3.8-4.2-5.9-9.6-5.8-15.2V28.6c0-5.6,2-11.1,5.8-15.2c3.6-4,8.6-6.3,14-6.3h247.4c5.4,0,10.4,2.3,14,6.3
	c3.8,4.2,5.9,9.6,5.8,15.2L293.5,171.1z"/>
<path class="st3" d="M30.7,8c0,0.1-0.1,0.3-0.1,0.4L30.7,8z"/>
<path class="st4" d="M31.8,4.7l-1,3.3l-0.1,0.4l0,0c-0.4,1.1-1.4,1.8-2.5,1.8h-1.9c-9.2,0-16.7,8.1-16.7,18.1v2.1
	c0,1.3-0.8,2.5-2,2.9l0,0L4,34.6l1-1.9c-0.1-0.1-0.1-0.1-0.2-0.2C4.3,32,4,31.2,4,30.4v-3.9C4,14.2,13.2,4.3,24.5,4.3h3.6
	c1,0,1.8,0.5,2.3,1.4L31.8,4.7z"/>
<path class="st5" d="M31.9,3.5L31.9,3.5C32,5.4,30.6,7,28.7,7.1h-2.3c-11,0-19.9,9.7-19.9,21.6v2.4c0.1,1.9-1.4,3.4-3.2,3.5
	c0,0,0,0,0,0C1.5,34.5,0,33,0.1,31.1c0,0,0,0,0,0v-4.7C0.1,11.8,11,0,24.4,0h4.3C30.6,0.1,32,1.7,31.9,3.5"/>
<path class="st6" d="M3.2,29.4c1.1,0.1,1.8,1,1.8,2c-0.1,0.9-0.8,1.7-1.8,1.8c-1.1-0.1-1.8-1-1.8-2C1.6,30.2,2.3,29.5,3.2,29.4"/>
<path class="st7" d="M3.2,29.6c0.9,0.1,1.6,0.9,1.6,1.8c-0.1,0.8-0.7,1.5-1.6,1.6c-0.9-0.1-1.6-0.9-1.6-1.8
	C1.7,30.3,2.4,29.7,3.2,29.6"/>
<polygon class="st8" points="4.2,30.7 4.2,31.9 3.2,32.5 2.3,31.9 2.3,30.7 3.2,30.1 "/>
<path class="st9" d="M4.2,30.7v0.5c-0.2-0.3-0.6-0.5-1-0.5c-0.4,0-0.7,0.2-1,0.5v-0.5l0.9-0.6L4.2,30.7z"/>
<path class="st6" d="M28.9,1.6c1,0,1.8,0.9,1.8,1.9c0.1,1-0.6,1.8-1.6,1.9c-1,0.1-1.8-0.6-1.9-1.6c0-0.1,0-0.3,0-0.4
	C27.1,2.5,27.8,1.6,28.9,1.6"/>
<path class="st7" d="M28.9,1.8c0.9,0,1.6,0.8,1.6,1.7c0,0,0,0,0,0c0.1,0.9-0.6,1.6-1.4,1.7s-1.6-0.6-1.7-1.4c0-0.1,0-0.2,0-0.3
	C27.2,2.6,27.9,1.8,28.9,1.8"/>
<polygon class="st8" points="29.8,2.9 29.8,4.1 28.9,4.7 27.9,4.1 27.9,2.9 28.9,2.3 "/>
<path class="st9" d="M29.8,2.9v0.5C29.6,3.2,29.2,3,28.9,3c-0.4,0-0.8,0.2-1,0.5V2.9l1-0.6L29.8,2.9z"/>
<path class="st4" d="M268.3,4.7l1,3.3l0.1,0.4l0,0c0.4,1.1,1.4,1.8,2.5,1.8h1.9c9.2,0,16.7,8.1,16.7,18.2v2.1c0,1.3,0.8,2.5,2,2.9
	l0,0l3.4,1.3l-1-1.9c0.1-0.1,0.1-0.1,0.2-0.2c0.5-0.6,0.8-1.3,0.8-2.1v-3.9c0-12.3-9.1-22.2-20.4-22.2H272c-1,0-1.8,0.5-2.3,1.4
	L268.3,4.7z"/>
<path class="st5" d="M268.1,3.6L268.1,3.6c-0.1,1.9,1.4,3.4,3.2,3.5h2.3c11,0,19.9,9.7,19.9,21.6v2.5c-0.2,1.8,1.1,3.4,2.9,3.6
	c1.8,0.2,3.4-1.1,3.6-2.9c0-0.2,0-0.4,0-0.6v-4.7C300,11.9,289.1,0,275.7,0h-4.3C269.5,0.1,268.1,1.7,268.1,3.6"/>
<path class="st6" d="M296.8,29.4c-1.1-0.1-2,0.7-2.1,1.7c-0.1,1.1,0.7,2,1.7,2.1s2-0.7,2.1-1.7c0-0.1,0-0.1,0-0.2
	C298.6,30.3,297.8,29.5,296.8,29.4"/>
<path class="st7" d="M296.8,29.6c-0.9-0.1-1.8,0.6-1.8,1.6c-0.1,0.9,0.6,1.8,1.6,1.8c0.9,0.1,1.8-0.6,1.8-1.6c0,0,0-0.1,0-0.1
	C298.4,30.4,297.7,29.7,296.8,29.6C296.8,29.6,296.8,29.6,296.8,29.6"/>
<polygon class="st8" points="295.9,30.7 295.9,31.9 296.8,32.5 297.8,31.9 297.8,30.7 296.8,30.1 "/>
<path class="st9" d="M295.9,30.7v0.5c0.2-0.3,0.6-0.4,0.9-0.5c0.4,0,0.8,0.2,1,0.5v-0.5l-1-0.6L295.9,30.7z"/>
<path class="st6" d="M271.2,1.6c-1,0-1.8,0.9-1.8,1.9c0,0,0,0,0,0c-0.1,1,0.6,1.8,1.6,1.9c1,0.1,1.8-0.6,1.9-1.6c0-0.1,0-0.3,0-0.4
	C273,2.5,272.2,1.7,271.2,1.6"/>
<path class="st7" d="M271.2,1.8c-0.9,0-1.6,0.8-1.6,1.7c0,0,0,0,0,0c-0.1,0.9,0.6,1.6,1.4,1.7c0.9,0.1,1.6-0.6,1.7-1.4
	c0-0.1,0-0.2,0-0.3C272.8,2.6,272.1,1.9,271.2,1.8"/>
<polygon class="st8" points="270.3,2.9 270.3,4.1 271.2,4.7 272.2,4.1 272.2,2.9 271.2,2.3 "/>
<path class="st9" d="M270.3,2.9v0.5c0.2-0.3,0.6-0.5,1-0.5c0.4,0,0.7,0.2,1,0.5V2.9l-0.9-0.6L270.3,2.9z"/>
<path class="st4" d="M31.7,195.3l-1-3.3l-0.1-0.4l0,0c-0.4-1.1-1.4-1.8-2.5-1.8h-1.9c-9.2,0-16.7-8.1-16.7-18.1v-2.1
	c0-1.3-0.8-2.5-2-2.9l0,0L4,165.4l1,1.9c-0.1,0.1-0.1,0.1-0.2,0.2C4.3,168,4,168.8,4,169.6v3.9c0,12.3,9.1,22.2,20.4,22.2H28
	c1,0,1.8-0.5,2.3-1.4L31.7,195.3z"/>
<path class="st5" d="M31.9,196.5L31.9,196.5c0-1.9-1.4-3.4-3.2-3.5h-2.3c-11,0-19.9-9.7-19.9-21.6v-2.5c0.1-1.9-1.4-3.4-3.2-3.5
	c-1.9,0.1-3.3,1.6-3.2,3.5c0,0,0,0,0,0v4.7C0,188.2,10.9,200,24.3,200h4.3C30.5,199.9,31.9,198.3,31.9,196.5"/>
<path class="st6" d="M3.2,170.6c1.1-0.1,1.8-1,1.8-2c-0.1-0.9-0.8-1.7-1.8-1.8c-1.1,0.1-1.8,1-1.8,2C1.5,169.8,2.2,170.5,3.2,170.6"
	/>
<path class="st7" d="M3.2,170.4c0.9-0.1,1.6-0.9,1.6-1.8c-0.1-0.8-0.7-1.5-1.6-1.6c-0.9,0.1-1.6,0.9-1.6,1.8
	C1.7,169.7,2.3,170.3,3.2,170.4"/>
<polygon class="st8" points="4.1,169.3 4.1,168.1 3.2,167.5 2.2,168.1 2.2,169.3 3.2,169.9 "/>
<path class="st9" d="M4.1,169.3v-0.6c-0.2,0.3-0.6,0.5-0.9,0.5c-0.4,0-0.8-0.2-1-0.5v0.6l1,0.6L4.1,169.3z"/>
<path class="st6" d="M28.8,198.4c1.1,0.1,2-0.7,2.1-1.8c0.1-1.1-0.7-2-1.8-2.1s-2,0.7-2.1,1.8c0,0.1,0,0.1,0,0.2
	C27,197.5,27.7,198.4,28.8,198.4"/>
<path class="st7" d="M28.8,198.2c0.9,0.1,1.8-0.6,1.9-1.6c0.1-0.9-0.6-1.8-1.6-1.9c-0.9-0.1-1.8,0.6-1.9,1.6c0,0.1,0,0.1,0,0.2
	C27.2,197.4,27.9,198.2,28.8,198.2"/>
<polygon class="st8" points="29.7,197.1 29.7,195.9 28.8,195.3 27.8,195.9 27.8,197.1 28.8,197.7 "/>
<path class="st9" d="M29.7,197.1v-0.5c-0.2,0.3-0.6,0.4-1,0.5c-0.4,0-0.8-0.2-1-0.5v0.5l0.9,0.6L29.7,197.1z"/>
<path class="st4" d="M268.2,195.3l1-3.3l0.1-0.4l0,0c0.4-1.1,1.4-1.8,2.5-1.8h1.9c9.2,0,16.7-8.1,16.7-18.2v-2.1
	c0-1.3,0.8-2.4,2-2.9l0,0l3.4-1.3l-1,1.9c0.1,0.1,0.1,0.1,0.2,0.2c0.5,0.6,0.8,1.3,0.8,2.1v3.9c0,12.3-9.1,22.2-20.4,22.2h-3.6
	c-1,0-1.8-0.5-2.3-1.4L268.2,195.3z"/>
<path class="st5" d="M268.1,196.4L268.1,196.4c-0.1-1.9,1.4-3.4,3.2-3.5c0,0,0,0,0,0h2.3c11,0,19.9-9.7,19.9-21.6v-2.5
	c-0.1-1.8,1.2-3.4,3-3.5s3.4,1.2,3.5,3c0,0.2,0,0.3,0,0.5v4.7c0,14.6-10.9,26.4-24.3,26.4h-4.3C269.4,199.9,268,198.3,268.1,196.4
	C268.1,196.4,268.1,196.4,268.1,196.4"/>
<path class="st6" d="M296.8,170.6c-1.1,0.1-2-0.7-2.1-1.7c-0.1-1.1,0.7-2,1.7-2.1s2,0.7,2.1,1.7c0,0.1,0,0.1,0,0.2
	C298.5,169.7,297.8,170.5,296.8,170.6"/>
<path class="st7" d="M296.8,170.4c-0.9,0.1-1.8-0.6-1.9-1.6c-0.1-0.9,0.6-1.8,1.6-1.9s1.8,0.6,1.9,1.6c0,0.1,0,0.1,0,0.2
	C298.3,169.6,297.6,170.3,296.8,170.4"/>
<polygon class="st8" points="295.8,169.3 295.8,168.1 296.8,167.5 297.7,168.1 297.7,169.3 296.8,169.9 "/>
<path class="st9" d="M295.8,169.3v-0.5c0.2,0.3,0.6,0.4,1,0.5c0.4,0,0.7-0.2,1-0.5v0.5l-0.9,0.6L295.8,169.3z"/>
<path class="st6" d="M271.1,198.4c-1.1,0.1-2-0.7-2.1-1.7c-0.1-1.1,0.7-2,1.7-2.1c1.1-0.1,2,0.7,2.1,1.7c0,0.1,0,0.1,0,0.2
	C272.9,197.5,272.2,198.3,271.1,198.4C271.2,198.4,271.2,198.4,271.1,198.4"/>
<path class="st7" d="M271.1,198.2c-0.9,0.1-1.8-0.6-1.8-1.6c-0.1-0.9,0.6-1.8,1.6-1.8c0.9-0.1,1.8,0.6,1.8,1.6c0,0,0,0.1,0,0.1
	C272.8,197.4,272.1,198.1,271.1,198.2C271.2,198.2,271.2,198.2,271.1,198.2"/>
<polygon class="st8" points="270.2,197.1 270.2,195.9 271.1,195.3 272.1,195.9 272.1,197.1 271.1,197.7 "/>
<path class="st9" d="M270.2,197.1v-0.6c0.2,0.3,0.6,0.5,0.9,0.5c0.4,0,0.8-0.2,1-0.5v0.6l-1,0.6L270.2,197.1z"/>
<g class="st10">
	<path d="M112.6,44.2l0.5,5.1c6.2-0.4,12.4-0.4,18.6,0l0.3-5.5C125.5,43.5,119,43.6,112.6,44.2z M93.1,47.7C86.4,49.4,80,52,74,55.3
		l2.3,4.1c5.6-3.2,11.7-5.6,18-7.2L93.1,47.7z M159,47.5c-2.7-0.6-5.4-1.1-8-1.6l-1,5.9c1.2,0.2,2.5,0.5,3.7,0.8
		c4.8,1.1,9.5,2.4,14.1,3.8l1.8-6.2C166.1,49.2,162.6,48.3,159,47.5z M57.1,69.9c-3.5,4.7-6,10-7.3,15.7c-0.5,2.3-0.8,4.6-0.9,7
		l8.6,0.4c-1.1-6.9,0.4-13.9,4-19.8L57.1,69.9z M187.7,56.7l-2.8,6.5c5.5,2.6,10.9,5.7,15.9,9.1l4.1-6.7
		C199.4,62.3,193.6,59.3,187.7,56.7z M220.8,77.5l-6.1,6.7c4.3,4.4,7.8,9.4,10.4,14.9l9.2-5.9C230.6,87.4,226,82.1,220.8,77.5z
		 M64.6,110l-10.5,5.3c3.2,6.3,7.4,12.1,12.5,17.1l9.7-9.4C71.8,119.2,67.9,114.8,64.6,110z M90.2,133.1L82,145.2
		c5.4,3.7,11,6.9,16.9,9.7l6.7-13.9C100.3,138.8,95.1,136.1,90.2,133.1L90.2,133.1z M228.5,116.1c-0.1,1.3-0.3,2.6-0.6,3.9
		c-1.6,6.5-5.1,12.4-10.2,16.8l12.4,12.3c5.8-5.7,9.8-12.9,11.6-20.8c1-4.6,1.2-9.3,0.6-13.9L228.5,116.1z M132.1,149.6
		c-3.5-0.8-7-1.7-10.3-2.7l-5,15.1c5.1,1.7,10.4,3.2,15.8,4.4l2.7,0.6l3.3-16.1C136.4,150.5,134.2,150.1,132.1,149.6L132.1,149.6z
		 M155.6,153l-1.4,16.8c6.4,0.5,12.9,0.7,19.3,0.4l-0.9-17.2C166.9,153.3,161.2,153.3,155.6,153L155.6,153z M204.7,145.2
		c-5,2.3-10.2,4-15.5,5.2l3.7,17.2c6.6-1.4,13.1-3.5,19.3-6.3L204.7,145.2z"/>
</g>
<g class="st10">
	<path d="M155.4,123.4c-4.2,1.3-8.5,2.1-12.9,2.4l0.7,10.2c2.3-0.2,4.7-0.5,7-0.9l0,0c2.9-0.5,5.7-1.2,8.5-2.2L155.4,123.4z
		 M123.7,124.2c-2.5-0.6-4.9-1.2-7.4-1.9l-3.3,9.4c2.8,1,5.8,1.8,8.7,2.5c2,0.5,4.1,0.8,6.1,1.1l1.4-10.1
		C127.4,125,125.5,124.6,123.7,124.2z M174.5,107c-1.5,4.2-4.1,7.8-7.6,10.5l6.4,7.1c4.8-4.1,8.1-9.6,9.5-15.8L174.5,107z M92.3,110
		l-5.6,5.1c3.6,3.9,7.8,7.3,12.3,10l4.6-7.5C99.5,115.7,95.7,113.1,92.3,110z M182.9,96.9c-1.2-5.7-3.9-11.1-7.6-15.6l-5.1,4.1
		c2.9,3.8,4.8,8.3,5.4,13L182.9,96.9z M85.3,84.4l-7.1-2.6c-0.4,1.1-0.7,2.3-1,3.4c-0.8,3.7-0.9,7.6-0.2,11.3c0.3,1.3,0.6,2.6,1,3.9
		l7.2-2.3c-1.1-4.4-1.1-9,0-13.3C85.3,84.7,85.3,84.6,85.3,84.4z M149.6,63.3l-2.1,5.5c4.4,1.7,8.6,4,12.4,6.7l3.4-5.1
		C159.1,67.6,154.5,65.2,149.6,63.3z M119.6,58l0.2,5.9c4.7-0.1,9.5,0.2,14.1,1.1l1-5.8C129.9,58.3,124.8,57.9,119.6,58L119.6,58z
		 M104.1,60.3c-5.4,1.5-10.4,3.9-14.9,7.1l3.8,5.2c3.8-3,8.1-5.2,12.7-6.5L104.1,60.3z"/>
</g>
<path class="st11" d="M136.4,44.2c-0.2-0.2-0.4-0.5-0.6-0.7c-1.8-1.8-3.7-3.5-5.6-5.1c-1.2-0.9-1.9-1.5-2.5-1.9
	c-0.7-0.5-1.5-0.9-2.3-1c-0.7-0.2-1.3-0.2-2-0.1c-1.1,0.2-2.1,0.6-2.9,1.3c-2.2,1.6-3.4,2.3-3.8,2.7s-1.1,3.7-0.3,5.5
	c0.6,1.6,1.8,2.9,3.2,3.8c1.6,0.9,8.6,5.4,10.2,4.7c1.9-0.8,6.4-3.6,7.2-5.3C137.6,46.8,137.3,45.2,136.4,44.2z"/>
<path class="st12" d="M126.4,53.8c-2.7,0-9.4-1.3-10.8-2c-1.4-0.9-2.5-2.2-3.1-3.7c-0.5-1.1-0.2-2.5,0.7-4.2l0.1-0.2
	c0.6-1.2,1.4-2.3,2.4-3.2c0.8-0.7,1.7-1.1,2.8-1.2c0.2,0,0.4,0,0.6,0c0.4,0,0.9,0.1,1.3,0.1c0.8,0.2,1.5,0.5,2.2,1
	c0.3,0.2,0.6,0.4,0.9,0.7l1.6,1.1c2,1.6,3.8,3.2,5.6,5c0.2,0.2,0.4,0.4,0.6,0.7c0.9,1,1.1,2.4,0.6,3.6c-0.7,1.5-2.7,1.9-4.3,2.2
	l-0.4,0.1C126.8,53.7,126.6,53.7,126.4,53.8L126.4,53.8z"/>
<path d="M119,39.5c0.4,0,0.8,0.1,1.3,0.1c0.8,0.1,1.5,0.4,2.1,0.9l0.9,0.7c0.4,0.3,0.9,0.7,1.6,1.2c1.9,1.6,3.8,3.2,5.6,5
	c0.2,0.2,0.4,0.4,0.5,0.6c0.8,0.9,1,2.2,0.5,3.3c-0.6,1.3-2.4,1.7-4.1,2l-0.4,0.1c-0.2,0-0.4,0-0.6,0c-2.6,0-9.4-1.2-10.7-2
	c-1.3-0.8-2.4-2.1-3-3.5c-0.4-1-0.2-2.3,0.7-4v-0.1l0.1-0.1c0.6-1.2,1.4-2.2,2.3-3.1c0.7-0.6,1.6-1,2.6-1.2L119,39.5 M118.9,38.8
	c-0.2,0-0.4,0-0.7,0c-1.1,0.1-2.1,0.6-2.9,1.3c-1.1,0.9-2,2.1-2.6,3.4c-0.3,0.6-1.5,2.8-0.7,4.6c0.6,1.6,1.8,3,3.3,3.9
	c1.4,0.8,8.3,2,11,2c0.3,0,0.5,0,0.8-0.1c1.7-0.4,4-0.7,4.9-2.4c0.6-1.3,0.4-2.8-0.6-3.9c-0.2-0.2-0.4-0.5-0.6-0.7
	c-1.8-1.8-3.7-3.5-5.6-5.1c-1.2-0.9-1.9-1.5-2.5-1.9c-0.7-0.5-1.5-0.8-2.3-1c-0.5-0.1-0.9-0.1-1.4-0.2L118.9,38.8z"/>
<ellipse transform="matrix(0.8825 -0.4704 0.4704 0.8825 -8.3196 60.5821)" class="st13" cx="117.1" cy="46.9" rx="3.2" ry="4"/>
<ellipse transform="matrix(0.8825 -0.4704 0.4704 0.8825 -9.0335 63.8612)" class="st13" cx="123.3" cy="50" rx="2.3" ry="2.8"/>
<ellipse transform="matrix(0.8825 -0.4704 0.4704 0.8825 -8.3714 66.2137)" class="st13" cx="128.3" cy="49.9" rx="1.8" ry="2.2"/>
<path class="st14" d="M130.1,38.4l-1.9-0.7l1.6,3c0,0-4.4-2.9-4.3-2.8s2,2.2,2,2.2l-2.3-0.7l2,2.2l-2.4-0.7l1,1.1l-1-0.3l5,3
	l-1.8-1.9l3,1.2l-2-2.3l2.5,1.2L130,40l1.4,0.9l-2.1-2.2l2.2,1.5L130.1,38.4z"/>
<polygon class="st14" points="120.8,36.4 123.1,36.4 121,36.9 123,37.1 119.7,37.5 120.5,37.8 118.3,38.2 "/>
<ellipse transform="matrix(0.8825 -0.4704 0.4704 0.8825 -8.3858 60.5055)" class="st15" cx="116.9" cy="47" rx="1.1" ry="1.5"/>
<ellipse transform="matrix(0.9699 -0.2436 0.2436 0.9699 -8.5067 31.5311)" class="st15" cx="123.2" cy="50.2" rx="0.9" ry="1.3"/>
<ellipse transform="matrix(0.9699 -0.2436 0.2436 0.9699 -8.311 32.7792)" class="st15" cx="128.4" cy="50" rx="0.7" ry="1"/>
<path class="st16" d="M130.2,37.6l-8-1.4c-1.4-0.2-2.3-0.6-2.2-1.9l0,0c0.3-1.3,0.9-1.3,2.2-1.3l8.7-0.2c1.3,0.1,2.3,1.3,2.2,2.6
	c0,0,0,0,0,0l0,0C132.9,36.8,131.7,37.7,130.2,37.6z"/>
<path class="st17" d="M129.6,37.5l-8.3-1.3c-1.4-0.2-1.2-3.2,0-3.2l8.7-0.2c1.3,0.1,2.3,1.3,2.2,2.6l0,0
	C132.1,36.6,131,37.6,129.6,37.5z"/>
<path class="st18" d="M132.3,36.4c0,0-0.1,0.4-0.7,0.8c0.7,0.8,2.7,2.4,3.1,2.2c0.4-0.2,0.7-0.4,0.9-0.8c0.3-0.2,0.3-0.6,0.1-0.8
	c-0.1-0.1-0.1-0.1-0.2-0.2c-1.1-0.6-2.8-1.4-2.8-1.4L132.3,36.4z"/>
<path class="st19" d="M131.5,37.2c0.7,0.8,2.4,2.5,2.8,2.4c0.4-0.2,0.7-0.4,1-0.7c0.3-0.2,0.3-0.6,0.1-0.8c-0.1-0.1-0.1-0.1-0.2-0.2
	c-1.1-0.6-2.8-1.6-2.9-1.6C132.2,36.7,131.9,37,131.5,37.2z"/>
<path class="st18" d="M132.6,34.8c0.1,0.4,0.1,0.7-0.1,1.1c1,0.2,3.6,0.3,3.8-0.1c0.2-0.4,0.3-0.8,0.3-1.2c0.1-0.3-0.2-0.6-0.5-0.7
	c-0.1,0-0.1,0-0.2,0c-1.2,0.2-3.1,0.6-3.1,0.6L132.6,34.8z"/>
<path class="st19" d="M132.5,35.9c1,0.2,3.5,0.5,3.7,0.2c0.2-0.4,0.3-0.7,0.4-1.1c0.1-0.3-0.1-0.6-0.5-0.7c-0.1,0-0.1,0-0.2,0
	c-1.2,0.2-3.2,0.4-3.3,0.5C132.7,35.1,132.7,35.5,132.5,35.9z"/>
<path class="st18" d="M131.6,33.3c0.3,0.2,0.5,0.5,0.6,0.9c0.9-0.5,2.4-1.4,2.4-1.8c0-0.3-0.1-0.5-0.3-0.7c-0.2-0.3-0.6-0.4-0.9-0.2
	c-0.1,0-0.1,0.1-0.1,0.1c-0.5,0.5-1.1,1-1.7,1.4V33.3z"/>
<path class="st19" d="M132.2,34.2c0.9-0.5,2.5-1.1,2.5-1.5c0-0.3-0.1-0.5-0.2-0.7c-0.2-0.3-0.6-0.4-0.8-0.2c-0.1,0-0.1,0.1-0.2,0.1
	c-0.6,0.5-1.3,1-2,1.4C131.9,33.4,132.2,33.8,132.2,34.2z"/>
<path class="st18" d="M130.5,37.7l0.7-0.4l0.3,0.1c0.3,0.1,1.4,2.4,0.9,2.6s-1.1,0.3-1.3,0.2l-0.2-0.1
	C130.7,39.3,130.6,38.5,130.5,37.7z"/>
<path class="st19" d="M130.2,37.6c0.2,0,0.4,0,0.5-0.1c0.2-0.1,0.3-0.1,0.4-0.2c0.3-0.2,1.4,2.4,0.9,2.6c-0.4,0.2-0.8,0.2-1.2,0.1
	C130.5,39.2,130.3,38.4,130.2,37.6z"/>
<ellipse transform="matrix(0.8665 -0.4991 0.4991 0.8665 -0.249 69.4619)" class="st20" cx="129.8" cy="35.2" rx="0.9" ry="1"/>
<path class="st21" d="M123.3,32.5c0,0-8.4,0.4-11.6,1.4c0,0-8.3,3.9-15,8c3.6-0.1,7.2-0.4,10.8-1C108.6,40.6,120.8,34.3,123.3,32.5z
	"/>
<path class="st22" d="M109.3,39c0,0-3.6-0.2-3.9-0.1s5.1-3,5.1-3s3.4,0.1,3.7,0.2S109.3,39,109.3,39z"/>
<path class="st23" d="M96.6,41.9c0,0,5.4,11.8,7.9,14.3c1.2,0.3,8.6-0.2,10.5-1.2c-0.5-1.4-6.5-13.4-7.5-14
	C103.8,40.9,100.1,41.3,96.6,41.9z"/>
<path class="st15" d="M123.3,32.5c0,0,3.3,5.8,5.4,10.2c0.5,1.4,0.5,3-0.2,4.4c-0.3,0.9-14,8.6-15.2,8.5c0.5-1.4,0.4-3-0.3-4.3
	c-1.6-2.8-3.8-6.8-5.6-10.2C107.8,40.4,120.6,33.4,123.3,32.5z"/>
<path class="st24" d="M112.7,42.6l9-5.1c0.4-0.2,0.8-0.1,1,0.3c0,0,0,0,0,0l2.7,5.5c0.2,0.4,0,0.8-0.3,1l-9,5.1
	c-0.4,0.2-0.9,0.1-1.1-0.3c0,0,0,0,0,0l-2.7-5.5C112.2,43.2,112.3,42.8,112.7,42.6z"/>
<path class="st25" d="M112.7,42.9l9-5.1c0.3-0.2,0.7-0.1,0.8,0.2c0,0,0,0,0,0l2.7,5.6c0.1,0.3,0,0.6-0.2,0.8l-9,5.1
	c-0.3,0.2-0.7,0.1-0.8-0.2c0,0,0,0,0,0l-2.7-5.6C112.3,43.4,112.4,43.1,112.7,42.9z"/>
<path class="st26" d="M120,42.4l-5.6,3.1c-0.2,0.1-0.4,0-0.5-0.2c0,0,0,0,0,0l-0.8-1.6c-0.1-0.2,0-0.4,0.2-0.5c0,0,0,0,0,0l5.6-3.1
	c0.2-0.1,0.4,0,0.5,0.2l0.8,1.6C120.3,42,120.2,42.3,120,42.4C120,42.4,120,42.4,120,42.4z"/>
<ellipse transform="matrix(0.8865 -0.4627 0.4627 0.8865 -7.2455 58.0511)" class="st27" cx="114.7" cy="43.8" rx="0.8" ry="0.9"/>
<ellipse transform="matrix(0.8865 -0.4627 0.4627 0.8865 -6.5101 58.8385)" class="st28" cx="116.7" cy="42.7" rx="0.8" ry="0.9"/>
<ellipse transform="matrix(0.8865 -0.4627 0.4627 0.8865 -5.8095 59.6242)" class="st29" cx="118.7" cy="41.7" rx="0.8" ry="0.9"/>
<path class="st30" d="M119.6,44.4l-4.4,2.5c-0.2,0.1-0.4,0-0.5-0.2c0,0,0,0,0,0l0,0c-0.1-0.2,0-0.4,0.2-0.5l4.4-2.5
	c0.2-0.1,0.4,0,0.5,0.2l0,0C119.8,44,119.8,44.3,119.6,44.4z"/>
<path class="st31" d="M118.2,47.9l-2,1.1c-0.2,0.1-0.4,0-0.6-0.2l0,0c-0.1-0.2,0-0.4,0.2-0.5c0,0,0,0,0,0l1.9-1.1
	c0.2-0.1,0.4,0,0.6,0.2l0,0C118.4,47.6,118.4,47.8,118.2,47.9z"/>
<path class="st31" d="M117.7,46.9l-2,1.1c-0.2,0.1-0.4,0-0.5-0.2l0,0c-0.1-0.2,0-0.4,0.2-0.5l2-1.1c0.2-0.1,0.4,0,0.5,0.2
	c0,0,0,0,0,0l0,0C118,46.6,117.9,46.8,117.7,46.9z"/>
<polygon class="st32" points="119.8,39.6 122.4,38 125.2,43.7 122.5,45.2 "/>
<radialGradient id="SVGID_1_" cx="-8167.9756" cy="-513.1148" r="0.4" gradientTransform="matrix(1.1847 -0.5822 -0.5822 -1.1847 9499.0703 -5323.5479)" gradientUnits="userSpaceOnUse">
	<stop  offset="0.2" style="stop-color:#666666"/>
	<stop  offset="0.57" style="stop-color:#585858"/>
	<stop  offset="1" style="stop-color:#4D4D4D"/>
</radialGradient>
<path class="st33" d="M122.1,38.6c0.2-0.1,0.4,0,0.5,0.2s0,0.4-0.1,0.5s-0.4,0-0.5-0.2S122,38.6,122.1,38.6z"/>
<path class="st34" d="M122.1,38.6c0.2,0.2,0.3,0.4,0.3,0.7"/>
<path class="st34" d="M122,39.1c0.2,0,0.4-0.1,0.6-0.3"/>
<radialGradient id="SVGID_2_" cx="-8169.5757" cy="-517.0348" r="0.4" gradientTransform="matrix(1.1847 -0.5822 -0.5822 -1.1847 9499.0615 -5323.5474)" gradientUnits="userSpaceOnUse">
	<stop  offset="0.2" style="stop-color:#666666"/>
	<stop  offset="0.57" style="stop-color:#585858"/>
	<stop  offset="1" style="stop-color:#4D4D4D"/>
</radialGradient>
<path class="st35" d="M122.5,44.1c0.2-0.1,0.4,0,0.5,0.2s0,0.4-0.1,0.5s-0.4,0-0.5-0.2S122.4,44.2,122.5,44.1z"/>
<path class="st34" d="M122.5,44.2c0.2,0.2,0.3,0.4,0.3,0.7"/>
<path class="st34" d="M122.4,44.6c0.2,0,0.4-0.2,0.6-0.3"/>
<radialGradient id="SVGID_3_" cx="-8167.9253" cy="-516.9348" r="0.4" gradientTransform="matrix(1.1847 -0.5822 -0.5822 -1.1847 9499.0654 -5323.5474)" gradientUnits="userSpaceOnUse">
	<stop  offset="0.2" style="stop-color:#666666"/>
	<stop  offset="0.57" style="stop-color:#585858"/>
	<stop  offset="1" style="stop-color:#4D4D4D"/>
</radialGradient>
<path class="st36" d="M124.4,43.1c0.2-0.1,0.4,0,0.5,0.2c0.1,0.2,0,0.4-0.1,0.5c-0.2,0.1-0.4,0-0.5-0.2
	C124.2,43.4,124.3,43.1,124.4,43.1z"/>
<path class="st34" d="M124.4,43.1c0.2,0.2,0.3,0.4,0.3,0.7"/>
<path class="st34" d="M124.3,43.6c0.2,0,0.4-0.2,0.6-0.3"/>
<radialGradient id="SVGID_4_" cx="-8169.4053" cy="-513.1848" r="0.4" gradientTransform="matrix(1.1847 -0.5822 -0.5822 -1.1847 9499.0684 -5323.5537)" gradientUnits="userSpaceOnUse">
	<stop  offset="0.2" style="stop-color:#666666"/>
	<stop  offset="0.57" style="stop-color:#585858"/>
	<stop  offset="1" style="stop-color:#4D4D4D"/>
</radialGradient>
<path class="st37" d="M120.5,39.5c0.2-0.1,0.4,0,0.5,0.2s0,0.4-0.1,0.5s-0.4,0-0.5-0.2S120.3,39.6,120.5,39.5z"/>
<path class="st34" d="M120.5,39.5c0.2,0.2,0.3,0.4,0.3,0.7"/>
<path class="st34" d="M120.4,40c0.2,0,0.4-0.1,0.6-0.3"/>
<path class="st38" d="M114.6,46.7c0.4-0.4,0.9-0.6,1.5-0.7c0.8-0.1,0.6-0.8,0.9-0.9s0.7,0.3,1.1,0s0.2-0.4,0.4-0.5s0.3,0.1,0.5,0
	s0-0.8,0.1-0.8"/>
<path class="st39" d="M112.3,33.7c1.8-0.7,11-1.2,11-1.2s5.4,9.4,5.4,10.2c0.5,1.3,0.5,2.8,0,4.1c-0.4,0.5-0.3,1.1-10.7,6.7"/>
<path class="st39" d="M106.1,36.6c0,0-9.3,5-9.6,5.3c0,0,3.9,8.1,4.3,8.6"/>
<path class="st11" d="M120.1,55.7c-0.2-0.3-0.4-0.5-0.6-0.7c-1.8-1.8-3.7-3.5-5.6-5.1c-1.2-0.9-1.9-1.5-2.5-1.9
	c-0.7-0.5-1.5-0.9-2.3-1c-0.7-0.1-1.3-0.2-2-0.1c-1.1,0.2-2.1,0.6-2.9,1.3c-2.2,1.6-3.4,2.3-3.8,2.7c-0.3,0.6-1.1,3.7-0.3,5.5
	c0.6,1.6,1.8,2.9,3.2,3.8c1.6,0.9,8.6,5.4,10.2,4.7c1.9-0.8,6.4-3.6,7.2-5.3C121.3,58.3,121,56.7,120.1,55.7z"/>
<path class="st12" d="M110.1,65.3c-2.7,0-9.4-1.3-10.8-2c-1.4-0.9-2.5-2.1-3.1-3.7c-0.5-1.1-0.3-2.5,0.7-4.2l0.1-0.2
	c0.6-1.2,1.4-2.3,2.4-3.2c0.8-0.7,1.7-1.1,2.8-1.2c0.2,0,0.4,0,0.6,0c0.4,0,0.9,0.1,1.3,0.2c0.8,0.2,1.6,0.5,2.2,1
	c0.3,0.2,0.6,0.4,0.9,0.7l1.6,1.2c2,1.6,3.8,3.2,5.6,5c0.2,0.2,0.4,0.4,0.6,0.7c0.9,1,1.1,2.4,0.6,3.6c-0.7,1.5-2.7,1.9-4.3,2.2
	l-0.4,0.1C110.5,65.3,110.3,65.3,110.1,65.3L110.1,65.3z"/>
<path d="M102.7,51c0.4,0,0.8,0.1,1.3,0.1c0.7,0.1,1.4,0.4,2,0.9l0.9,0.7c0.4,0.3,1,0.7,1.6,1.2c1.9,1.6,3.8,3.2,5.6,5
	c0.2,0.2,0.4,0.4,0.5,0.6c0.8,0.9,1.1,2.2,0.5,3.3c-0.6,1.3-2.5,1.7-4.1,2l-0.4,0.1c-0.2,0-0.4,0-0.6,0c-2.6,0-9.4-1.2-10.7-2
	c-1.3-0.8-2.4-2.1-2.9-3.5c-0.4-1-0.2-2.3,0.7-4v-0.1l0.1-0.1c0.6-1.2,1.3-2.2,2.3-3.1c0.7-0.6,1.6-1,2.6-1.2c0.2,0,0.4,0,0.6,0
	 M102.6,50.3c-0.2,0-0.4,0-0.7,0c-1.1,0.1-2.1,0.6-2.9,1.3c-1.1,0.9-1.9,2.1-2.5,3.4c-0.3,0.6-1.5,2.8-0.7,4.6
	c0.6,1.6,1.8,2.9,3.2,3.8c1.4,0.8,8.3,2,11,2c0.3,0,0.5,0,0.8-0.1c1.7-0.4,4-0.7,4.8-2.4c0.6-1.3,0.4-2.8-0.6-3.9
	c-0.2-0.2-0.4-0.5-0.6-0.7c-1.8-1.8-3.7-3.5-5.6-5.1c-1.2-0.9-1.9-1.5-2.5-1.9c-0.7-0.5-1.5-0.8-2.3-1
	C103.6,50.3,103.1,50.2,102.6,50.3L102.6,50.3z"/>
<ellipse transform="matrix(0.8825 -0.4704 0.4704 0.8825 -15.6537 54.2599)" class="st13" cx="100.7" cy="58.5" rx="3.2" ry="4"/>
<ellipse transform="matrix(0.8825 -0.4704 0.4704 0.8825 -16.3676 57.5389)" class="st13" cx="106.9" cy="61.5" rx="2.3" ry="2.8"/>
<ellipse transform="matrix(0.8825 -0.4704 0.4704 0.8825 -15.7023 59.895)" class="st13" cx="112" cy="61.4" rx="1.8" ry="2.2"/>
<path class="st14" d="M113.8,49.9l-1.9-0.7l1.6,3c0,0-4.4-2.9-4.3-2.8s2,2.2,2,2.2l-2.3-0.8l2,2.2l-2.4-0.7l1,1.1l-1-0.3l5.1,3
	l-1.8-1.9l2.9,1.3l-2-2.3l2.5,1.2l-1.5-2.9l1.4,0.9l-2-2.2l2.2,1.5L113.8,49.9z"/>
<polygon class="st14" points="104.4,47.9 106.8,47.9 104.7,48.4 106.7,48.6 103.4,49 104.2,49.3 101.9,49.7 "/>
<ellipse transform="matrix(0.8825 -0.4704 0.4704 0.8825 -15.7199 54.1832)" class="st15" cx="100.6" cy="58.5" rx="1.1" ry="1.5"/>
<ellipse transform="matrix(0.9699 -0.2436 0.2436 0.9699 -11.8035 27.906)" class="st15" cx="106.9" cy="61.7" rx="0.9" ry="1.3"/>
<ellipse transform="matrix(0.9699 -0.2436 0.2436 0.9699 -11.6082 29.1517)" class="st15" cx="112.1" cy="61.5" rx="0.7" ry="1"/>
<path class="st40" d="M111.7,58.1c0,0-0.9-0.7-2.1,0.5c-1.1-1.2-2.9-1.3-4.2-0.3c-0.2-2.1-1.5-3.9-3.4-4.8c0.6-0.7,0.9-1.1,2.4-0.5
	S111.6,57.8,111.7,58.1z"/>
<path class="st41" d="M105.8,33.2l2.2,4.4l3.8-1.9c0.6-0.3,0.7-1.6,0-2.8s-1.6-1.9-2.3-1.6c-0.2,0.1-0.4,0.4-0.4,0.6L105.8,33.2z"/>
<polygon class="st42" points="107.9,28 107.6,29.8 106.6,30.3 106.4,28.7 "/>
<path class="st43" d="M115.4,18.3c0.5,1.2,1.9,2.2,2.2,3.5c0.1,0.5-0.1,1-0.5,1.3c-1.6,1.1-3,1.7-7.5,2.9v2.8l-4.7-1.9l-0.2-0.1l0,0
	c-0.2-0.1-0.4-0.3-0.6-0.6c-0.6-1.3-1.1-2.8-1.5-4.2c-0.1-0.5,0-1,0.4-1.3c2.8-2.5,5.9-4.7,9.2-6.5c0.5-0.2,1-0.2,1.5-0.1l0,0
	l3.2,0.8L115.4,18.3z"/>
<polygon class="st44" points="109,27.4 105,29.4 108.4,35.4 112.1,33.3 "/>
<polygon class="st45" points="103,32.8 105.6,34.9 108.4,35.4 105,29.4 "/>
<path class="st43" d="M105.4,28.2c-0.2,0-0.3,0-0.4-0.1L105.4,28.2z"/>
<polygon class="st44" points="112.4,34.6 113.2,36.6 109.1,38.7 108.6,36.7 "/>
<polygon class="st45" points="106.2,36.7 105.9,38.7 109.1,38.7 108.6,36.7 "/>
<ellipse transform="matrix(0.891 -0.454 0.454 0.891 -4.4225 52.4179)" class="st46" cx="107" cy="35.4" rx="1.3" ry="2.5"/>
<ellipse transform="matrix(0.8825 -0.4704 0.4704 0.8825 -4.1707 54.4836)" class="st47" cx="106.9" cy="35.6" rx="0.6" ry="1.2"/>
<path class="st15" d="M105.6,22.7c0,0-1.2,0.8-1.8,1.1c1.3,1.6,2.4,2.7,2.8,5.7c1.6-1.1,1.7-1,1.7-1C106.9,26.8,106,24.8,105.6,22.7
	z"/>
<polygon class="st48" points="105.6,22.7 102.9,22 101.6,22.9 104.1,23.6 "/>
<line class="st49" x1="92.8" y1="38.2" x2="93.5" y2="38.3"/>
<path class="st43" d="M104.1,23.4l-1.4,2.4c0.3,0.8,0.6,1.6,0.9,2.5c0.1,0.4,0,0.9-0.3,1.3c-3.2,3.9-4.3,5.5-6.4,7l0.2,2.6l-3.5-0.9
	l0,0l-0.7-0.2c-0.2-0.1-0.4-0.3-0.6-0.5c-1.4-2.4-2.5-5-3.2-7.6c-0.1-0.6,0.1-1.1,0.6-1.5c3.1-2.3,6.5-4.2,10-5.9
	c0.3-0.1,0.7-0.1,1.1,0l0,0L104.1,23.4z"/>
<path class="st50" d="M97.2,38.8c-0.3,0-0.7-0.2-0.9-0.5c-1.5-2-2.5-4.4-3-6.9c0-0.2-0.1-0.4-0.1-0.6c-0.1-0.4,0.1-0.8,0.4-1
	c3.1-2.2,6.5-4.1,9.9-5.8c0.1-0.1,0.2-0.1,0.4-0.1c0.4,0,0.7,0.2,0.8,0.5c0.4,0.8,0.7,1.5,0.9,2c0.4,1,0.8,1.9,1.1,2.9
	c0.1,0.3,0,0.6-0.2,0.9c-1.1,1.3-2,2.4-2.9,3.4c-3.1,3.4-4.7,4.5-6,5.1C97.5,38.8,97.3,38.8,97.2,38.8L97.2,38.8z"/>
<path class="st51" d="M103.8,24.4c0.2,0,0.3,0.1,0.4,0.2c0.4,0.8,0.7,1.4,0.9,2c0.4,0.9,0.7,1.9,1,2.9c0,0.1,0,0.3-0.1,0.4
	c-1,1.3-2,2.4-2.9,3.4c-3,3.3-4.6,4.4-5.9,5c-0.1,0-0.1,0-0.2,0c-0.2,0-0.4-0.1-0.5-0.3c-1.5-2-2.4-4.3-2.9-6.7
	c0-0.2-0.1-0.4-0.1-0.6c0-0.2,0-0.4,0.2-0.5c3.1-2.2,6.4-4.2,9.8-5.8C103.7,24.4,103.7,24.4,103.8,24.4 M103.8,23.4
	c-0.2,0-0.4,0-0.6,0.1c-3.5,1.6-6.9,3.6-10,5.9c-0.5,0.3-0.7,0.9-0.6,1.5c0.4,2.8,1.5,5.4,3.2,7.7c0.3,0.4,0.8,0.7,1.3,0.7
	c0.2,0,0.4,0,0.6-0.1c1.5-0.8,3.2-1.9,6.2-5.2c0.9-0.9,1.8-2.1,2.9-3.4c0.3-0.4,0.4-0.8,0.3-1.3c-0.3-1-0.7-2-1.1-3
	c-0.3-0.6-0.5-1.2-0.9-2C104.8,23.7,104.3,23.4,103.8,23.4L103.8,23.4z"/>
<path class="st52" d="M101.6,32.8c-1.1,0-2.1-0.6-2.7-1.6c-1-1.4-0.6-3.2,0.7-4.2c0,0,0.1,0,0.1-0.1c0.4-0.3,0.9-0.4,1.4-0.4
	c1.1,0,2.1,0.6,2.7,1.6c0.4,0.7,0.6,1.6,0.4,2.4c-0.1,0.8-0.6,1.5-1.3,1.9C102.6,32.7,102.1,32.8,101.6,32.8z"/>
<path class="st53" d="M101.2,27L101.2,27c1,0,1.9,0.5,2.4,1.4c0.8,1.2,0.5,2.8-0.7,3.7c-0.4,0.2-0.8,0.4-1.2,0.3
	c-1,0-1.9-0.6-2.4-1.4c-0.4-0.6-0.5-1.3-0.4-2c0.1-0.7,0.5-1.2,1.1-1.6C100.3,27.2,100.7,27.1,101.2,27 M101.2,26.2
	c-0.6,0-1.2,0.2-1.7,0.5c-1.6,1-2,3.2-1,4.8c0,0,0,0,0,0c0.6,1.1,1.8,1.7,3,1.8c0.6,0,1.2-0.2,1.7-0.5c1.6-1,2-3.2,1-4.8
	c0,0,0,0,0,0C103.5,26.9,102.4,26.3,101.2,26.2L101.2,26.2z"/>
<polygon class="st43" points="109.4,28.5 108.3,28.4 107.8,27.8 108.7,27.4 "/>
<path class="st50" d="M109.7,28.1c-0.3,0-0.6-0.2-0.7-0.5l-0.2-0.3c-0.9-1.4-1.6-2.9-2.1-4.5c-0.1-0.3,0-0.6,0.3-0.8l1.1-0.9
	c2.4-2.2,5.2-4.1,8.1-5.6c0.1,0,0.2-0.1,0.3-0.1c0.3,0,0.6,0.2,0.8,0.4c1.9,2,3.4,4.4,4.2,7c0,0.3-0.1,0.6-0.3,0.7l-0.4,0.3
	c-1.9,1.4-4.3,3.1-10.8,4.2L109.7,28.1z"/>
<path class="st51" d="M116.3,16c0.2,0,0.3,0.1,0.5,0.3c1.8,1.9,3.2,4.2,4.1,6.7c0,0.1-0.1,0.1-0.2,0.2l-0.4,0.3
	c-1.9,1.3-4.2,3-10.7,4.1c-0.1,0-0.2-0.1-0.3-0.3l-0.2-0.3c-0.9-1.3-1.6-2.8-2.1-4.3c0-0.1,0-0.2,0.1-0.3c0.3-0.2,0.7-0.6,1.1-0.9
	C110.7,19.3,113.4,17.5,116.3,16L116.3,16 M116.3,15c-0.2,0-0.3,0-0.5,0.1c-3.3,1.8-6.4,4-9.2,6.6c-0.4,0.3-0.5,0.8-0.4,1.3
	c0.6,1.7,1.3,3.4,2.3,4.9c0.2,0.4,0.7,0.7,1.2,0.7h0.2c7-1.2,9.4-3.1,11.4-4.5c0.4-0.3,0.6-0.8,0.5-1.3c-0.9-2.7-2.3-5.1-4.3-7.2
	C117.1,15.2,116.7,15,116.3,15L116.3,15z"/>
<path class="st52" d="M112.8,26.3c-1.2,0-2.3-0.8-2.8-1.9c-0.4-0.8-0.5-1.6-0.2-2.5c0.2-0.8,0.8-1.4,1.5-1.8
	c0.4-0.2,0.8-0.3,1.2-0.3c1.2,0,2.4,0.8,2.9,1.9c0.4,0.8,0.5,1.6,0.2,2.5c-0.2,0.8-0.8,1.4-1.5,1.7
	C113.7,26.2,113.3,26.3,112.8,26.3z"/>
<path class="st53" d="M112.5,20.3L112.5,20.3c1.1,0,2.1,0.7,2.5,1.7c0.3,0.7,0.4,1.4,0.2,2.2c-0.2,0.7-0.7,1.2-1.3,1.5
	c-0.3,0.2-0.7,0.3-1.1,0.2c-1.1,0-2-0.7-2.5-1.6c-0.7-1.3-0.2-3,1.1-3.7C111.8,20.4,112.1,20.4,112.5,20.3 M112.5,19.5
	c-0.5,0-1,0.1-1.4,0.3c-1.7,0.9-2.4,3.1-1.5,4.8c0,0,0,0,0,0c0.6,1.3,1.9,2.1,3.3,2.1c0.5,0,1-0.1,1.4-0.3c1.7-0.9,2.4-3.1,1.5-4.8
	C115.2,20.4,113.9,19.5,112.5,19.5z"/>
<path class="st54" d="M114.7,23.7c0.3,0.6,0.2,1.3-0.3,1.6c-0.6,0.2-1.3,0-1.6-0.6c-0.4-0.7-0.2-1.3,0.4-1.6
	C113.8,22.8,114.4,23.1,114.7,23.7z"/>
<path class="st54" d="M100.6,30.5l2-1.1c0.3-0.2,0.7,0,0.8,0.2l0,0c0.2,0.3,0,0.7-0.2,0.8l-2,1.1c-0.3,0.2-0.7,0-0.8-0.2l0,0
	C100.2,31,100.3,30.7,100.6,30.5z"/>
<g>
	<path class="st55" d="M108.6,34.7h0.2c0.4-0.1,0.9,0,1,0.2s-0.1,0.5-0.5,0.6l-0.2,0c-0.4,0.1-0.9,0-1-0.2S108.3,34.9,108.6,34.7z"
		/>
	<path class="st49" d="M109.1,35.6L109.1,35.6z"/>
	<path class="st49" d="M109.3,35.5L109.3,35.5z"/>
	<path class="st49" d="M109.7,35.3L109.7,35.3z"/>
	<polygon class="st49" points="109.8,35.2 109.8,35.2 109.8,35.2 	"/>
	<g>
		<polygon class="st56" points="111,40.7 111,40.7 111,40.7 		"/>
		<path class="st57" d="M110.9,40.9L110.9,40.9z"/>
		<polygon class="st58" points="110.9,40.9 110.9,40.9 110.9,40.9 		"/>
		<path class="st57" d="M110.4,41.1L110.4,41.1z"/>
		<path class="st59" d="M110.3,41.2L110.3,41.2z"/>
		<path class="st59" d="M110.4,41.2"/>
		<path class="st56" d="M110.3,41.2"/>
		<path class="st52" d="M110.1,41.2L110.1,41.2z"/>
		<path class="st60" d="M110.1,41.2"/>
		<path class="st61" d="M109.8,41.2L109.8,41.2z"/>
		<path class="st61" d="M109.9,41.2"/>
		<path class="st62" d="M109.8,35l0.1,0.7l0.3,1.5l0.4,1.7l0.3,1.3l0.1,0.3c0,0.2-0.2,0.4-0.3,0.5c-0.2,0.1-0.4,0.2-0.7,0.2
			c-0.2,0-0.4-0.1-0.6-0.2c0-0.1-0.1-0.2-0.1-0.3l-0.2-1.1l-0.4-1.7l-0.4-1.6l-0.2-0.9l0,0c0,0.2,0.3,0.3,0.4,0.3c0.2,0,0.4,0,0.6,0
			c0.2,0,0.3-0.1,0.5-0.3C109.8,35.3,109.9,35.2,109.8,35z"/>
		<path class="st63" d="M109.8,41.2"/>
	</g>
</g>
<g>
	<path class="st64" d="M111.3,27.5c1.1,2.5,0.5,5.5-1.6,7.3c-0.3,0.2-0.6,0.4-0.9,0.6c-1,0.6-2.2,0.7-3.3,0.2c0.1,0,0.2,0.1,0.3,0.1
		c1.2,0.2,2.4-0.2,3.3-1c2.1-1.8,2.7-4.8,1.6-7.3c-0.4-0.8-1-1.4-1.8-1.7C110,25.9,110.8,26.6,111.3,27.5z"/>
	<path class="st64" d="M111.3,27.5c1.1,2.5,0.5,5.5-1.6,7.3c-0.3,0.2-0.6,0.5-0.9,0.6c-0.9,0.5-2,0.6-3,0.3c1.2,0.2,2.4-0.2,3.3-1
		c2.1-1.8,2.7-4.8,1.6-7.3c-0.4-0.8-1-1.4-1.7-1.7c-0.9-0.2-1.9-0.1-2.7,0.4c0.7-0.4,1.6-0.6,2.4-0.5
		C109.9,25.7,110.8,26.5,111.3,27.5z"/>
	<path class="st64" d="M109,25.7c-0.9-0.2-1.9-0.1-2.7,0.4c-0.3,0.2-0.6,0.4-0.9,0.6c-2.1,1.8-2.7,4.8-1.6,7.3
		c0.4,0.7,1,1.3,1.7,1.7c-1-0.3-1.8-1-2.2-1.9c-1.1-2.5-0.5-5.5,1.6-7.3c1-1,2.5-1.3,3.9-0.9L109,25.7z"/>
	<path class="st65" d="M109,25.7c0.8,0.4,1.4,0.9,1.7,1.7c1.1,2.5,0.5,5.5-1.6,7.3c-1,0.9-2.3,1.3-3.6,1c1.4,0.6,3.1,0.3,4.2-0.8
		c2.1-1.8,2.7-4.8,1.6-7.3C110.8,26.6,110,25.9,109,25.7z M105.3,26.7c1-0.9,2.3-1.3,3.7-1c-1.4-0.6-3.1-0.3-4.2,0.8
		c-2.1,1.8-2.7,4.8-1.6,7.3c0.4,0.9,1.3,1.6,2.2,1.9c-0.8-0.4-1.4-0.9-1.7-1.7C102.6,31.4,103.3,28.4,105.3,26.7L105.3,26.7z"/>
	<path class="st66" d="M109.4,42.2l-5.8,4.4l-0.1,0l0,0c-0.6,0.4-1.4,0.6-2.2,0.5l0.3-1c0,0,0.5,0,1,0c-0.1-0.1-0.2-0.3-0.2-0.4
		c-0.4-0.8-0.7-1.8-0.3-2.1l4-4.5l-0.4-0.9l1.8-0.5l0,0c0.7-0.1,1.3,0.2,1.7,0.8c0.1,0.1,0.2,0.3,0.3,0.4
		C110.2,39.9,110.2,41.3,109.4,42.2z"/>
	<path class="st67" d="M107.4,39c0.1,0.1,0.2,0.3,0.3,0.4c0.6,1,0.6,2.3-0.1,3.3l-5.8,4.4c-0.2,0.2-0.4,0.1-0.6-0.1
		c-0.1-0.1-0.2-0.2-0.3-0.3c-0.1-0.2-0.2-0.3-0.3-0.5c-0.4-0.8-0.7-1.7-0.3-2.1l5-5.7C105.9,37.9,106.8,38.1,107.4,39z"/>
</g>
<path class="st62" d="M108.6,41.5c0.9,0,1.8,0.1,2.6,0.4c0.8,0.6-0.3,1.8-0.5,1.8c-0.8-0.3-1.6-0.7-2.2-1.3
	C108.6,42.1,108.7,41.8,108.6,41.5z"/>
<path class="st62" d="M108.7,40c0.7-0.4,1.5-0.5,2.2-0.4c0.6,0.3,0.4,1.2,0.2,1.2s-1.6,0.6-2.4,0.1C108.8,40.6,108.8,40.3,108.7,40z
	"/>
<path class="st62" d="M107.2,37.9c0.8-0.9,1.7-1.7,2.7-2.3c0.5,0.2,0.8,0.8,0.6,1.4c-0.8,0.7-1.7,1.2-2.7,1.5
	C107.7,38,107.2,37.9,107.2,37.9z"/>
<path class="st62" d="M108.1,38.8c0.8-0.6,1.7-1.1,2.6-1.5c0.9,0.2,0.8,1.5,0.6,1.6c-0.9,0.5-1.9,0.7-2.9,0.7
	C108.6,39.1,108.1,38.8,108.1,38.8z"/>
<path class="st68" d="M110.8,27.4c1.1,2.5,0.5,5.5-1.6,7.3c-0.9,0.8-2.1,1.2-3.3,1c-0.9-0.3-1.6-1-2-1.8c-1.1-2.5-0.5-5.5,1.6-7.3
	c0.3-0.2,0.6-0.4,0.9-0.6c0.8-0.5,1.8-0.6,2.7-0.4C109.8,26,110.4,26.6,110.8,27.4z"/>
<path class="st55" d="M108.8,25.5c-1.4-0.4-2.9-0.1-3.9,0.9c-2.1,1.8-2.7,4.8-1.6,7.3c1.1,1.9,3.5,2.7,5.5,1.7
	c0.3-0.2,0.7-0.4,0.9-0.6c2.1-1.8,2.7-4.8,1.6-7.3C110.8,26.5,109.9,25.7,108.8,25.5z M109.1,34.6c-0.9,0.8-2.1,1.2-3.3,1
	c-0.9-0.3-1.6-1-2-1.8c-1.1-2.5-0.5-5.5,1.6-7.3c0.3-0.2,0.6-0.4,0.9-0.6c0.8-0.5,1.8-0.6,2.7-0.4c0.8,0.4,1.4,0.9,1.7,1.7
	C111.9,29.8,111.2,32.8,109.1,34.6z"/>
<path class="st69" d="M209,106.5c0,0,1,0.7,3.2,0.2c0,3.1-1.1,10.6-2.1,11.2c-1.2,0.3-2.4,0.4-3.6,0.2c-1,0-1.8-0.8-1.8-1.8
	c0-0.2,0-0.4,0.1-0.5c1.3-3.5,3.4-8.8,3.4-8.8L209,106.5z"/>
<path class="st70" d="M212.3,106.8c0,3.1-0.2,10.5-1.2,11c-1.1,0.4-2.3,0.5-3.5,0.5c-1,0-1.8-0.8-1.8-1.8c0-0.2,0-0.4,0.1-0.6
	c1.3-3.5,2.9-9.2,3.1-9.4C210,107.1,211.2,107.2,212.3,106.8z"/>
<path class="st69" d="M205.1,103.7c0,0,0.4,1.2,2.4,2.1c-1.9,2.5-7.3,7.8-8.4,7.6c-1.1-0.4-2.2-1.1-3-2c-0.8-0.6-0.9-1.7-0.3-2.5
	c0.1-0.2,0.3-0.3,0.4-0.4c3.1-2,8-4.9,8-4.9L205.1,103.7z"/>
<path class="st70" d="M207.5,105.9c-1.9,2.5-6.5,8.2-7.7,8c-1.1-0.4-2.2-1-3.1-1.8c-0.8-0.6-0.9-1.7-0.4-2.5
	c0.1-0.2,0.3-0.3,0.5-0.4c3.1-2,7.9-5.6,8.2-5.6C205.5,104.7,206.4,105.6,207.5,105.9z"/>
<path class="st69" d="M204.2,98.4c0,0-0.5,1.1,0.4,3.2c-3.1,0.6-8.2,1.8-8.9,0.9c-0.5-0.6-0.6-0.7-0.8-2.1c-0.1-1,0.6-2,1.6-2.1
	c0.1,0,0.3,0,0.4,0c2.2,0.1,4.5-0.1,6.7-0.5L204.2,98.4z"/>
<path class="st70" d="M204.6,101.7c-3.1,0.6-7.9,2.7-8.6,1.7c-0.6-0.5-0.9-1.2-1-2c-0.2-1,0.5-1.9,1.5-2.1c0.2,0,0.3,0,0.5,0
	c3.7,0,7-1.1,7.2-0.9C203.8,99.5,203.9,100.7,204.6,101.7z"/>
<path class="st69" d="M215.5,105.9l-2.3,0.5c0,0-0.4,0.6-0.5,0.8c-0.5,0.8,1.9,8,3.3,7.6s3.2-1.6,3.2-2.1c0-0.1,0.2-0.7,0.2-0.7
	S215.6,105.6,215.5,105.9z"/>
<path class="st70" d="M216,105.2c-0.4,0.4-0.8,0.7-1.3,0.9c-0.5,0.2-1,0.3-1.5,0.4c-0.9,0.2,1.9,8,3.3,7.5s3-1.7,3-2.3
	S216.2,104.7,216,105.2z"/>
<ellipse transform="matrix(0.9751 -0.2217 0.2217 0.9751 -16.6561 49.494)" class="st71" cx="212.1" cy="98.9" rx="2.6" ry="2.8"/>
<path class="st72" d="M138.6,127.9c0.1-0.8,0.4-1.5,0.6-2.2c2.2-6,4.7-11.9,7.6-17.6c1.8-3.2,2.8-5.4,3.7-7c1.1-1.9,2.5-3.5,4.3-4.8
	c1.4-1,2.9-1.9,4.6-2.4c2.6-0.7,5.4-0.7,8.1-0.1c6.7,1.4,10.3,1.8,11.6,2.3c1.2,1,6.4,7.3,6.5,12.3c0,3.6-0.6,8.5-3.4,12.2
	S168,142,163.6,142.1c-5.2,0.1-18.5-1.5-22.2-4.6C138,134.7,137.9,131.4,138.6,127.9z"/>
<path class="st12" d="M162.2,141.4c-1.9,0.1-3.7-0.5-5.2-1.6c-3-2.5-3.2-5.4-2.5-8.8c0.1-0.7,0.3-1.4,0.6-2.1
	c2.2-6,4.7-11.8,7.6-17.5c1-1.8,1.7-3.2,2.4-4.5c0.5-1,1-1.8,1.4-2.6c1-1.8,2.4-3.3,4.1-4.5c1.3-1,2.8-1.8,4.4-2.3
	c1.3-0.4,2.6-0.6,3.9-0.6c1.3,0,2.5,0.2,3.8,0.5c3.3,1,6.3,2.6,8.9,4.8l0.5,0.4c4,3.1,6,6.2,6,9.1c0,3.4-0.5,8.1-3.2,11.7
	c-2.9,3.8-20.5,15.8-24.6,16.7l-0.9,0.2C166.8,140.9,164.5,141.3,162.2,141.4z"/>
<path d="M178.6,97.6L178.6,97.6c1.2,0,2.4,0.2,3.6,0.5c3.2,0.9,6.1,2.5,8.6,4.7l0.3,0.3l0.2,0.1c3.8,2.9,5.7,5.8,5.7,8.5
	c0,3.2-0.5,7.8-3.1,11.3c-2.7,3.6-20.3,15.6-24.1,16.4l-0.9,0.2c-2.2,0.6-4.5,0.9-6.8,1c-1.7,0.1-3.4-0.4-4.8-1.4
	c-2.7-2.3-2.9-4.9-2.2-8.1c0.1-0.7,0.3-1.3,0.6-2c2.2-5.9,4.7-11.8,7.5-17.4c1-1.8,1.8-3.3,2.4-4.5c0.5-1,1-1.8,1.4-2.6
	c0.9-1.7,2.3-3.2,3.8-4.3c1.3-0.9,2.7-1.6,4.2-2.1C176.2,97.8,177.4,97.6,178.6,97.6 M178.7,96.1c-1.4,0-2.8,0.2-4.1,0.6
	c-1.6,0.5-3.2,1.4-4.6,2.4c-1.8,1.2-3.3,2.9-4.3,4.8c-0.9,1.6-2,3.8-3.7,7c-2.9,5.7-5.4,11.6-7.6,17.6c-0.3,0.7-0.5,1.5-0.6,2.2
	c-0.7,3.5-0.6,6.8,2.8,9.6c1.6,1.3,3.7,1.9,5.7,1.8c2.7-0.1,5.4-0.6,8-1.3c4.4-1,22.2-13.3,25-17s3.4-8.6,3.4-12.2
	c0-5-5.2-8.8-6.5-9.8c-2.8-2.4-6-4.1-9.5-5.2C181.3,96.2,180,96,178.7,96.1L178.7,96.1z"/>
<ellipse transform="matrix(6.017743e-02 -0.9982 0.9982 6.017743e-02 61.14 292.7172)" class="st13" cx="186" cy="113.9" rx="10.1" ry="8"/>
<ellipse transform="matrix(6.017743e-02 -0.9982 0.9982 6.017743e-02 37.1175 294.5068)" class="st13" cx="175" cy="127.5" rx="7.2" ry="5.8"/>
<ellipse transform="matrix(6.017743e-02 -0.9982 0.9982 6.017743e-02 21.0814 287.3891)" class="st13" cx="163.2" cy="132.5" rx="5.7" ry="4.5"/>
<ellipse transform="matrix(6.017743e-02 -0.9982 0.9982 6.017743e-02 61.6072 293.2589)" class="st15" cx="186.5" cy="113.9" rx="3.8" ry="2.7"/>
<ellipse transform="matrix(0.9832 -0.1824 0.1824 0.9832 -20.3797 34.1006)" class="st15" cx="175.2" cy="127.8" rx="2.4" ry="3.2"/>
<ellipse transform="matrix(0.9832 -0.1824 0.1824 0.9832 -21.5035 31.988)" class="st15" cx="163.1" cy="132.9" rx="1.8" ry="2.4"/>
<path class="st73" d="M160.5,124.7c0,0,1.4-2.5,5.2-1c0.8-1.6,2.5-6.1,9.4-5.2c-0.3-1.6-2.7-8.4,2.8-14.7c-2-1-3.2-1.7-6,1.4
	S160.2,123.9,160.5,124.7z"/>
<line class="st74" x1="150.6" y1="100.9" x2="166.1" y2="103.2"/>
<line class="st74" x1="159.9" y1="93.7" x2="177.2" y2="96.2"/>
<polyline class="st74" points="179.6,96.5 184.2,97.2 184.2,97.2 "/>
<line class="st74" x1="145.7" y1="110.3" x2="161.1" y2="112.5"/>
<line class="st74" x1="141.6" y1="119.6" x2="157" y2="121.8"/>
<line class="st74" x1="138.3" y1="129.3" x2="153.6" y2="131.5"/>
<path class="st75" d="M141,92.1l22.4-6.6c3.8-1.2,6.7-1.4,8.1,2.1l0,0c1,3.6-0.7,4.6-4,6.3l-22.1,11.8c-3.6,1.4-7.6-0.3-9.1-3.9l0,0
	C134.8,98.3,137.4,93.6,141,92.1z"/>
<path class="st76" d="M142.7,91.6l23.3-7.2c3.8-1.2,7.4,6.7,4.1,8.4l-22.1,11.8c-3.6,1.4-7.6-0.3-9.1-3.9l0,0
	C137.4,97.1,139.1,93,142.7,91.6z"/>
<path class="st77" d="M137.4,98.1c-0.1-1.1,0.2-2.2,0.9-3c-2.8-1.1-10-2.7-10.8-1.9c-0.7,0.9-1.2,2-1.4,3.1c-0.3,0.9,0.1,1.9,1,2.2
	c0.2,0.1,0.4,0.1,0.5,0.1c3.6,0,9.1-0.1,9.1-0.1L137.4,98.1z"/>
<path class="st78" d="M138.3,95c-2.8-1.1-9.5-3.4-10.4-2.6c-0.7,0.9-1.3,1.9-1.6,3c-0.3,0.9,0.1,1.9,1,2.2c0.2,0.1,0.4,0.1,0.6,0.1
	c3.6,0,9.3,0.6,9.6,0.4C137.3,97,137.6,95.8,138.3,95z"/>
<path class="st77" d="M138.6,102.6c-0.7-0.8-1.1-1.8-1.1-2.9c-2.9,0.8-9.6,3.9-9.8,5c0,1.2,0.3,2.3,0.8,3.4c0.3,0.9,1.3,1.4,2.2,1.1
	c0.2-0.1,0.3-0.1,0.5-0.2c2.9-2.1,7.2-5.6,7.2-5.6L138.6,102.6z"/>
<path class="st78" d="M137.5,99.6c-2.9,0.8-9.7,3-9.9,4.2c0,1.2,0.2,2.3,0.5,3.4c0.3,0.9,1.2,1.4,2.1,1.2c0.2-0.1,0.4-0.1,0.5-0.3
	c2.9-2.1,7.8-5.2,7.9-5.5C137.9,101.8,137.4,100.7,137.5,99.6z"/>
<path class="st77" d="M143.1,105.2c-1.1-0.1-2.1-0.6-2.8-1.4c-1.6,2.6-4.4,6.8-3.8,7.7c0.4,0.7,0.4,0.8,1.6,1.4
	c0.9,0.5,2,0.2,2.4-0.7c0.1-0.1,0.1-0.3,0.2-0.4c0.7-2,1.6-4,2.8-5.8L143.1,105.2z"/>
<path class="st78" d="M140.3,103.7c-1.6,2.6-5.1,6.2-4.5,7.2c0.3,0.7,0.8,1.2,1.5,1.6c0.9,0.5,2,0.2,2.4-0.7
	c0.1-0.1,0.1-0.3,0.2-0.4c1.2-3.3,3.4-6,3.3-6.2C142,105.1,140.9,104.6,140.3,103.7z"/>
<path class="st77" d="M140.2,92.4l-1.3,1.9l-0.9,0.2c-0.9,0.2-6.6-4.4-5.7-5.6s2.5-2.4,3-2.2c0.1,0,0.8,0,0.8,0
	S140.6,92.4,140.2,92.4z"/>
<path class="st78" d="M141.1,92.2c-0.5,0.2-0.9,0.5-1.3,0.9c-0.3,0.4-0.6,0.8-0.9,1.2c-0.5,0.8-6.6-4.4-5.7-5.6s2.6-2.1,3.1-1.9
	S141.5,92.2,141.1,92.2z"/>
<ellipse transform="matrix(0.5532 -0.833 0.833 0.5532 -16.562 164.8061)" class="st79" cx="145.4" cy="97.8" rx="2.5" ry="2.7"/>
<path class="st21" d="M155.8,87.1c0,0,19.7-8.4,28.4-9.5c14.5-0.1,28.9,0.6,43.3,2c-2.4,1.7-23.1,9.2-26.1,9.6
	S163.4,88.6,155.8,87.1z"/>
<path class="st22" d="M195.2,86.8c0,0,8-4.2,8.9-4.5s-15-1.4-15-1.4s-7.8,4-8.3,4.4S195.2,86.8,195.2,86.8z"/>
<path class="st23" d="M227.7,79.6c0,0,0.4,33.3-2.5,41.5c-2.6,2-20,9-25.5,8.7c-0.4-3.8,0.3-38,1.9-40.7
	C203.8,87.7,219.3,81.6,227.7,79.6z"/>
<path class="st15" d="M155.8,87.1c0,0-1.4,16.9-1.3,29.4c0,4.8,4.4,9.7,5.2,9.9c1.7,1.7,42.6,5.2,45.1,3.7c-2.8-2.7-4.2-6.5-4-10.3
	c0.4-8.2,0.5-20.6,0.9-30.6C200.2,88.3,163,86.3,155.8,87.1z"/>
<path class="st80" d="M196.8,69.7l-0.3,12.5l-11-0.2c-1.8,0-3.2-2.9-3.2-6.3s1.7-6.2,3.5-6.2c0.7,0.1,1.3,0.4,1.7,0.9L196.8,69.7z"
	/>
<path class="st81" d="M148.4,66.3c3.4,2.2,7.2,3.6,11.2,4.1c3.8,0.4,7.6,0.3,11.4-0.2c13.1-1.3,19.2-8,19.2-8s-0.6-9-0.7-12.1
	s-4-8.7-4-8.7L148.4,66.3z"/>
<path class="st81" d="M231.9,69c0,0-2.6,4.4-11,3.8s-20.5-4.2-20.5-4.2l-7.4-10.4L231.9,69z"/>
<path class="st15" d="M186.6,43.1l4.4,0.1l-0.5,14l-4.2-0.1C186.4,57.1,187.1,47.9,186.6,43.1z"/>
<polygon class="st82" points="186.4,57.1 189,60.9 192,61 190.5,57.2 "/>
<polygon class="st83" points="183.1,57 194.5,57.3 193.2,77.4 182.4,76.9 "/>
<path class="st43" d="M186.4,57l-0.4,2.4c0,0.1-0.1,0.2-0.2,0.3l-3,2.1c-0.2,0.1-0.4,0.1-0.6-0.1c0-0.1-0.1-0.1-0.1-0.2l-0.1-0.7
	c0-0.1,0-0.3,0.1-0.3l3.4-3.8c0.2-0.2,0.4-0.2,0.6,0C186.4,56.7,186.4,56.9,186.4,57z"/>
<polygon class="st84" points="200.4,68.6 199.2,73.2 193.2,77.4 194.5,57.3 "/>
<path class="st81" d="M190.7,57.6c0,0,0.1,2.3,0.6,2.7c2.4,1.3,4.9,2.4,7.5,3.4c0.8,0.1,0.6-1.6,0.6-1.6L190.7,57.6z"/>
<path class="st85" d="M190.7,57.6c0,0,0.2,2.8,0.8,2.8c0.8,0.4,6.3,3,6.3,3"/>
<path class="st50" d="M228.4,69.2c-10.5,0-34.9-8.8-36.7-11.2c-0.5-2.5-0.3-10.4,0.4-15.3c0.1-0.7,0.7-1.2,1.4-1.3
	c1.6-0.1,3.3-0.1,5-0.1c10.7,0.1,21.4,1.3,31.8,3.5c0.6,0.1,1,0.6,1.1,1.1c2,8,0.4,18.1-0.4,22c-0.1,0.6-0.6,1.1-1.3,1.2
	C229.4,69.2,228.9,69.2,228.4,69.2L228.4,69.2z"/>
<path class="st86" d="M198.6,42.4c10.6,0.1,21.2,1.2,31.6,3.5c0.2,0,0.3,0.2,0.3,0.3c2,7.8,0.4,17.6-0.4,21.5c0,0.2-0.2,0.3-0.3,0.3
	c-0.4,0.1-0.9,0.1-1.3,0.1c-10.1,0-32.7-8.2-35.7-10.7c-0.3-4.9-0.2-9.8,0.5-14.6c0-0.2,0.2-0.3,0.4-0.3
	C195.2,42.4,196.9,42.4,198.6,42.4 M198.6,40.2c-1.7,0-3.3,0-5,0.1c-1.2,0.1-2.3,1-2.4,2.2c-0.7,4.9-1,13.2-0.4,15.8
	s27.1,12,37.7,12c0.5,0,1.1,0,1.6-0.1c1.1-0.1,2-1,2.2-2.1c0.8-3.8,2.5-14.2,0.4-22.5c-0.2-1-1-1.7-2-1.9
	C220.1,41.5,209.4,40.3,198.6,40.2L198.6,40.2z"/>
<polygon class="st83" points="183.2,80.1 183.6,85.4 195.2,85.9 194.3,80.6 "/>
<polygon class="st84" points="199.8,78.1 202.6,82.2 195.2,85.9 194.3,80.6 "/>
<ellipse transform="matrix(2.670034e-02 -0.9996 0.9996 2.670034e-02 115.4214 270.5236)" class="st46" cx="196.6" cy="76" rx="6.3" ry="3.3"/>
<path class="st87" d="M186.3,56.8c0,1-0.2,2-0.5,2.9l-3,2.1"/>
<path class="st50" d="M153,66.2c-1,0-2-0.1-2.9-0.2c-0.6-0.1-1.1-0.6-1.2-1.2c-0.5-4-1.5-14.1,1-22c0.2-0.5,0.6-0.9,1.2-1
	c5.7-0.8,11.4-1.3,17.1-1.2c5.1,0,10.2,0.3,15.3,0.8c0.7,0.1,1.2,0.6,1.3,1.3c0.4,4.9,0.1,12.9-0.6,15.3
	C182.8,59.9,164,66.2,153,66.2z"/>
<path class="st86" d="M168.2,39.4v2.3l0,0c5.1,0,10.2,0.3,15.2,0.8c0.1,0,0.2,0.1,0.3,0.3c0.4,4.9,0.2,9.8-0.4,14.6
	c-2.6,2-20.2,7.7-30.2,7.7c-0.9,0-1.8-0.1-2.7-0.2c-0.1,0-0.2-0.1-0.2-0.2c-0.5-3.9-1.5-13.8,1-21.5c0-0.1,0.1-0.2,0.2-0.2
	c5.6-0.8,11.3-1.3,17-1.2L168.2,39.4 M168.3,39.4c-5.8,0-11.6,0.4-17.3,1.3c-1,0.2-1.8,0.8-2.1,1.8c-2.6,8.1-1.6,18.6-1.1,22.5
	c0.2,1.1,1,2,2.1,2.2c1,0.2,2.1,0.3,3.1,0.2c10.8,0,31.6-6.5,32.4-8.9s1-10.9,0.6-15.8c-0.1-1.2-1.1-2.2-2.3-2.4
	C178.6,39.7,173.4,39.4,168.3,39.4z"/>
<path class="st52" d="M204.6,61c-2.1-0.1-4.1-1.1-5.4-2.7c-1.5-1.7-2.2-4-2.1-6.3c0.2-4.6,3.7-8.2,8-8.2h0.3
	c4.4,0.2,7.7,4.2,7.5,8.9s-3.8,8.3-8,8.3H204.6z"/>
<path class="st53" d="M205.1,44.7h0.3c1.9,0.1,3.6,1,4.8,2.4c1.3,1.6,2,3.5,1.9,5.6c-0.2,4.1-3.3,7.3-7,7.3h-0.3
	c-1.9-0.1-3.6-1-4.8-2.4c-1.3-1.6-1.9-3.5-1.8-5.5C198.3,48,201.4,44.8,205.1,44.7 M205.1,42.9c-4.7,0-8.6,4-8.9,9.1
	s3.5,9.7,8.4,9.9h0.4c4.7,0,8.6-4,8.9-9.1s-3.5-9.7-8.4-9.9L205.1,42.9z"/>
<path class="st52" d="M171.2,60.1c-4.4-0.2-7.7-4.2-7.5-8.9s3.7-8.2,8-8.2h0.3c4.4,0.2,7.7,4.2,7.5,8.9s-3.7,8.2-7.9,8.2H171.2z"/>
<path class="st53" d="M171.6,43.9h0.3c3.8,0.2,6.8,3.7,6.6,8s-3.3,7.3-7,7.3h-0.3c-1.9-0.1-3.6-1-4.8-2.4c-1.3-1.6-1.9-3.5-1.8-5.5
	C164.8,47.1,167.9,43.9,171.6,43.9 M171.6,42.1c-4.7,0-8.6,4-8.9,9.1s3.5,9.7,8.4,9.9h0.4c4.7,0,8.6-4,8.9-9.1s-3.5-9.7-8.4-10
	L171.6,42.1z"/>
<ellipse transform="matrix(4.536296e-02 -0.999 0.999 4.536296e-02 111.7037 269.5827)" class="st47" cx="196.9" cy="76.3" rx="3.1" ry="1.4"/>
<path class="st88" d="M182.5,77.8c-5,0.5-26.7,9.3-26.7,9.3s-2.1,27.6-1.3,29.4c0.3,2,0.2,4.6,4.5,9.4c1.5,0.8,2,2.8,32.2,4.3"/>
<path class="st88" d="M199.8,77.8c0,0,26.8,1.2,27.9,1.8c0,0-0.1,23.1-0.4,24.4"/>
<ellipse transform="matrix(4.536296e-02 -0.999 0.999 4.536296e-02 111.5992 216.2624)" class="st54" cx="169" cy="49.7" rx="3.9" ry="3.3"/>
<ellipse transform="matrix(4.536296e-02 -0.999 0.999 4.536296e-02 143.8798 251.121)" class="st54" cx="203.3" cy="50.3" rx="3.9" ry="3.3"/>
<path class="st24" d="M191.3,98.7l-26.4-1.8c-1.1-0.1-2,0.8-2.1,1.9c0,0,0,0.1,0,0.1l-0.2,15.7c0,1,0.8,1.9,1.8,2l26.4,1.8
	c1.1,0.1,2-0.8,2.1-1.9c0,0,0,0,0,0l0.2-15.7C193.1,99.7,192.3,98.8,191.3,98.7z"/>
<path class="st25" d="M191.7,99.5l-26.5-1.9c-0.8-0.1-1.6,0.6-1.6,1.4c0,0,0,0.1,0,0.1l-0.2,15.8c0,0.8,0.6,1.5,1.4,1.6l26.5,1.9
	c0.8,0.1,1.6-0.6,1.6-1.4c0,0,0-0.1,0-0.1l0.2-15.8C193.1,100.2,192.5,99.6,191.7,99.5z"/>
<path class="st26" d="M174.3,106.3l16.3,1c0.5,0,1-0.4,1-0.9v-4.7c0-0.5-0.4-1-0.9-1l-16.3-1c-0.5,0-1,0.4-1,0.9v4.7
	C173.3,105.8,173.7,106.2,174.3,106.3z"/>
<ellipse transform="matrix(3.664368e-02 -0.9993 0.9993 3.664368e-02 77.2581 287.8455)" class="st27" cx="187.9" cy="103.9" rx="2.4" ry="1.9"/>
<ellipse transform="matrix(3.664368e-02 -0.9993 0.9993 3.664368e-02 72.1366 281.7158)" class="st28" cx="182.2" cy="103.4" rx="2.4" ry="1.9"/>
<ellipse transform="matrix(3.996804e-02 -0.9992 0.9992 3.996804e-02 66.7627 276.3834)" class="st29" cx="177.2" cy="103.4" rx="2.4" ry="1.9"/>
<path class="st30" d="M177.4,110.4l12.8,0.8c0.6,0,1-0.4,1.1-0.9c0,0,0,0,0-0.1l0,0c0-0.6-0.4-1-0.9-1.1c0,0-0.1,0-0.1,0l-12.8-0.8
	c-0.6,0-1,0.4-1.1,0.9c0,0,0,0,0,0.1l0,0C176.3,109.9,176.7,110.4,177.4,110.4C177.3,110.4,177.3,110.5,177.4,110.4z"/>
<path class="st31" d="M184.4,117.1l5.7,0.3c0.6,0,1-0.4,1.1-0.9c0,0,0-0.1,0-0.1l0,0c0-0.6-0.4-1-0.9-1.1c0,0,0,0-0.1,0l-5.7-0.3
	c-0.6,0-1,0.4-1.1,0.9c0,0,0,0,0,0.1l0,0C183.4,116.6,183.8,117.1,184.4,117.1C184.4,117.1,184.4,117.1,184.4,117.1z"/>
<path class="st31" d="M184.5,114.2l5.7,0.3c0.6,0,1-0.4,1.1-0.9c0,0,0,0,0-0.1l0,0c0-0.6-0.4-1-0.9-1.1c0,0,0,0-0.1,0l-5.7-0.3
	c-0.6,0-1,0.4-1.1,0.9c0,0,0,0,0,0.1l0,0C183.4,113.7,183.8,114.2,184.5,114.2C184.4,114.2,184.4,114.2,184.5,114.2z"/>
<polygon class="st32" points="171.6,99.6 163.8,99 163.6,115.1 171.5,115.6 "/>
<radialGradient id="SVGID_5_" cx="-1963.0818" cy="-973.0798" r="0.81" gradientTransform="matrix(-1.6399 -2.032207e-02 2.032207e-02 -1.6399 -3032.9636 -1531.7927)" gradientUnits="userSpaceOnUse">
	<stop  offset="0.2" style="stop-color:#666666"/>
	<stop  offset="0.57" style="stop-color:#585858"/>
	<stop  offset="1" style="stop-color:#4D4D4D"/>
</radialGradient>
<path class="st89" d="M164.2,100.9c0-0.5,0.4-1,0.9-1c0.5,0,0.8,0.5,0.8,1c0,0.5-0.4,1-0.9,1C164.6,101.9,164.2,101.5,164.2,100.9z"
	/>
<path class="st90" d="M165.1,99.9c-0.2,0.6-0.2,1.4,0,2"/>
<path class="st90" d="M165.9,100.9c-0.6,0.1-1.1,0.1-1.7,0"/>
<radialGradient id="SVGID_6_" cx="-1966.3818" cy="-981.1397" r="0.81" gradientTransform="matrix(-1.6399 -2.032207e-02 2.032207e-02 -1.6399 -3032.9658 -1531.7938)" gradientUnits="userSpaceOnUse">
	<stop  offset="0.2" style="stop-color:#666666"/>
	<stop  offset="0.57" style="stop-color:#585858"/>
	<stop  offset="1" style="stop-color:#4D4D4D"/>
</radialGradient>
<path class="st91" d="M169.5,114.2c0-0.5,0.4-1,0.9-1c0.5,0,0.8,0.5,0.8,1c0,0.5-0.4,1-0.9,1C169.9,115.2,169.5,114.7,169.5,114.2z"
	/>
<path class="st90" d="M170.3,113.2c-0.2,0.6-0.2,1.4,0,2"/>
<path class="st90" d="M171.2,114.2c-0.6,0.1-1.1,0.1-1.7,0"/>
<radialGradient id="SVGID_7_" cx="-1962.9918" cy="-980.9398" r="0.81" gradientTransform="matrix(-1.6399 -2.032207e-02 2.032207e-02 -1.6399 -3032.959 -1531.8002)" gradientUnits="userSpaceOnUse">
	<stop  offset="0.2" style="stop-color:#666666"/>
	<stop  offset="0.57" style="stop-color:#585858"/>
	<stop  offset="1" style="stop-color:#4D4D4D"/>
</radialGradient>
<path class="st92" d="M163.9,113.8c0-0.5,0.4-1,0.9-1c0.5,0,0.8,0.5,0.8,1c0,0.5-0.4,1-0.9,1C164.3,114.8,163.9,114.3,163.9,113.8z"
	/>
<path class="st90" d="M164.8,112.8c-0.2,0.6-0.2,1.4,0,2"/>
<path class="st90" d="M165.6,113.8c-0.6,0.1-1.1,0.1-1.7,0"/>
<radialGradient id="SVGID_8_" cx="-1966.0319" cy="-973.2198" r="0.81" gradientTransform="matrix(-1.6399 -2.032207e-02 2.032207e-02 -1.6399 -3032.9707 -1531.7986)" gradientUnits="userSpaceOnUse">
	<stop  offset="0.2" style="stop-color:#666666"/>
	<stop  offset="0.57" style="stop-color:#585858"/>
	<stop  offset="1" style="stop-color:#4D4D4D"/>
</radialGradient>
<path class="st93" d="M169.1,101.2c0-0.5,0.4-1,0.9-1c0.5,0,0.8,0.5,0.8,1c0,0.5-0.4,1-0.9,1C169.4,102.2,169.1,101.7,169.1,101.2z"
	/>
<path class="st90" d="M169.9,100.2c-0.2,0.6-0.2,1.4,0,2"/>
<path class="st90" d="M170.8,101.2c-0.6,0.1-1.1,0.1-1.7,0"/>
<path class="st94" d="M191.3,110.3c-1.4-0.4-2.9-0.4-4.3-0.1c-2.1,0.7-2.2-1.2-3.1-1.2s-1.2,1.4-2.5,1.3s-0.9-0.7-1.5-0.7
	s-0.6,0.7-1.2,0.6s-0.8-1.9-1.2-1.9"/>
<path class="st72" d="M188.9,136.6c0.1-0.8,0.4-1.5,0.6-2.2c2.2-6,4.7-11.9,7.6-17.6c1.8-3.2,2.8-5.4,3.7-7c1-1.9,2.5-3.5,4.3-4.8
	c3.6-2.8,8.3-3.7,12.6-2.5c6.7,1.4,10.3,1.8,11.6,2.3c1.2,1,6.4,7.3,6.5,12.3c0,3.6-0.6,8.5-3.4,12.2s-14.2,21.5-18.7,21.6
	c-5.2,0.1-18.5-1.5-22.2-4.6C188.4,143.4,188.2,140.1,188.9,136.6z"/>
<path class="st12" d="M212.5,150.1c-1.9,0.1-3.7-0.5-5.2-1.6c-3-2.5-3.2-5.4-2.5-8.8c0.1-0.7,0.3-1.4,0.6-2.1
	c1-2.7,4.6-12.1,7.6-17.5c1-1.8,1.7-3.2,2.4-4.5c0.5-1,1-1.8,1.4-2.6c1-1.8,2.4-3.3,4.1-4.5c1.3-1,2.8-1.8,4.4-2.3
	c1.3-0.4,2.6-0.6,3.9-0.6c1.3,0,2.5,0.2,3.8,0.5c3.3,1,6.3,2.6,8.9,4.8l0.5,0.4c1.5,1.2,6,4.7,6,9.1c0,3.4-0.5,8.1-3.2,11.7
	c-2.9,3.8-20.5,15.8-24.6,16.7l-0.9,0.2C217.2,149.6,214.9,149.9,212.5,150.1z"/>
<path d="M229,106.3L229,106.3c1.2,0,2.4,0.2,3.6,0.5c3.2,0.9,6.1,2.5,8.6,4.7l0.3,0.3l0.2,0.1c3.8,2.9,5.7,5.8,5.7,8.5
	c0,3.2-0.5,7.8-3.1,11.3c-2.7,3.6-20.3,15.6-24.1,16.4l-0.9,0.2c-2.2,0.6-4.5,0.9-6.8,1c-1.7,0.1-3.4-0.4-4.8-1.4
	c-2.7-2.3-2.9-4.9-2.2-8.1c0.1-0.7,0.3-1.4,0.6-2c2.2-5.9,4.7-11.8,7.5-17.4c1-1.8,1.8-3.3,2.4-4.5c0.5-1,1-1.8,1.4-2.6
	c1-1.7,2.3-3.1,3.9-4.2c1.3-0.9,2.7-1.7,4.1-2.2C226.5,106.4,227.8,106.3,229,106.3 M229,104.7c-1.4,0-2.8,0.2-4.1,0.6
	c-1.6,0.5-3.2,1.4-4.6,2.4c-1.8,1.2-3.3,2.9-4.3,4.8c-0.9,1.6-2,3.8-3.7,7c-2.9,5.7-5.4,11.6-7.6,17.6c-0.3,0.7-0.5,1.5-0.6,2.2
	c-0.7,3.5-0.6,6.8,2.8,9.6c1.6,1.3,3.7,1.9,5.7,1.8c2.7-0.1,5.4-0.6,8-1.3c4.4-1,22.2-13.3,25-17s3.4-8.6,3.4-12.2
	c0-5-5.2-8.8-6.5-9.8c-2.8-2.4-6-4.1-9.5-5.2C231.7,104.9,230.3,104.7,229,104.7L229,104.7z"/>
<ellipse transform="matrix(6.017743e-02 -0.9982 0.9982 6.017743e-02 99.8485 351.1132)" class="st13" cx="236.4" cy="122.5" rx="10.1" ry="8"/>
<ellipse transform="matrix(6.017743e-02 -0.9982 0.9982 6.017743e-02 75.816 352.8922)" class="st13" cx="225.3" cy="136.2" rx="7.2" ry="5.8"/>
<ellipse transform="matrix(6.017743e-02 -0.9982 0.9982 6.017743e-02 59.7794 345.7938)" class="st13" cx="213.5" cy="141.2" rx="5.7" ry="4.5"/>
<ellipse transform="matrix(6.017743e-02 -0.9982 0.9982 6.017743e-02 100.2957 351.6537)" class="st15" cx="236.9" cy="122.6" rx="3.8" ry="2.7"/>
<ellipse transform="matrix(0.9835 -0.1807 0.1807 0.9835 -20.9818 42.8031)" class="st15" cx="224.5" cy="136.6" rx="2.4" ry="3.2"/>
<ellipse transform="matrix(0.9832 -0.1824 0.1824 0.9832 -22.2362 41.3197)" class="st15" cx="213.5" cy="141.5" rx="1.8" ry="2.4"/>
<path class="st73" d="M210.8,133.4c0,0,1.4-2.5,5.2-1.1c0.8-1.6,2.5-6.1,9.4-5.2c-0.3-1.6-2.7-8.4,2.8-14.7c-2-1-3.2-1.7-6,1.4
	S210.6,132.6,210.8,133.4z"/>
<line class="st74" x1="201" y1="109.6" x2="216.5" y2="111.8"/>
<line class="st74" x1="210.3" y1="102.3" x2="227.5" y2="104.8"/>
<polyline class="st74" points="230,105.2 234.6,105.8 234.6,105.8 "/>
<line class="st74" x1="196" y1="118.9" x2="211.5" y2="121.2"/>
<line class="st74" x1="191.9" y1="128.3" x2="207.3" y2="130.5"/>
<line class="st74" x1="188.7" y1="138" x2="203.9" y2="140.2"/>
<ellipse transform="matrix(0.9887 -0.1497 0.1497 0.9887 -10.9002 25.6802)" class="st95" cx="165.1" cy="85.2" rx="2.6" ry="0.8"/>
<path class="st75" d="M195.4,106.7L213,91.3c2.9-2.7,5.4-4.1,8.2-1.5l0,0c2.4,2.9,1.3,4.5-1,7.4L205,117.2c-2.7,2.8-7.1,2.9-9.9,0.3
	l0,0C192.4,114.9,192.7,109.5,195.4,106.7z"/>
<path class="st76" d="M196.7,105.5l18.1-16.3c2.9-2.7,9.5,3,7.2,6l-15.2,19.9c-2.6,2.8-7.1,2.9-9.9,0.3l0,0
	C194.2,112.7,194,108.3,196.7,105.5z"/>
<path class="st77" d="M194.6,113.6c-0.6-0.9-0.7-2-0.4-3.1c-3,0.2-10.2,1.7-10.6,2.8c-0.2,1.1-0.2,2.3,0,3.4c0.1,1,0.9,1.7,1.9,1.6
	c0.2,0,0.4-0.1,0.5-0.1c3.3-1.5,8.2-3.9,8.2-3.9L194.6,113.6z"/>
<path class="st78" d="M194.2,110.4c-3,0.2-10.1,0.9-10.5,1.9c-0.3,1.1-0.4,2.3-0.2,3.4c0.1,0.9,0.9,1.7,1.8,1.6
	c0.2,0,0.4-0.1,0.6-0.1c3.3-1.5,8.7-3.4,8.9-3.7C194,112.7,193.8,111.5,194.2,110.4z"/>
<path class="st77" d="M197.6,117.2c0,0-1.2-0.3-2.2-2.2c-2.3,2-7,7.5-6.8,8.6c0.5,1.1,1.2,2,2.1,2.8c0.6,0.7,1.7,0.8,2.5,0.1
	c0.1-0.1,0.3-0.3,0.3-0.4c1.7-3.1,4.2-8,4.2-8L197.6,117.2z"/>
<path class="st78" d="M195.3,115c-2.3,2-7.5,6.8-7.2,7.9c0.5,1.1,1.1,2,1.9,2.8c0.6,0.7,1.7,0.8,2.4,0.2c0.2-0.1,0.3-0.3,0.4-0.5
	c1.7-3.1,4.9-8,4.9-8.3C196.6,116.9,195.7,116.1,195.3,115z"/>
<path class="st77" d="M202.7,117.7c-1,0.4-2.1,0.3-3.1-0.2c-0.4,3-1.2,8-0.2,8.6c0.6,0.4,1.3,0.7,2,0.6c1,0.1,1.8-0.7,1.9-1.7
	c0-0.1,0-0.3,0-0.4c-0.2-2.1-0.2-4.3,0.1-6.5L202.7,117.7z"/>
<path class="st78" d="M199.6,117.5c-0.4,3-2,7.8-1.1,8.4c0.5,0.5,1.3,0.8,2,0.8c1,0.1,1.8-0.6,1.9-1.6c0-0.2,0-0.3,0-0.5
	c-0.3-3.6,0.6-6.8,0.4-7C201.7,118.1,200.5,118.1,199.6,117.5z"/>
<path class="st77" d="M194.8,107.3l-0.4,2.2c0,0-0.6,0.5-0.7,0.6c-0.8,0.5-7.9-1.2-7.5-2.7s1.3-3.2,1.8-3.3c0.1,0,0.7-0.3,0.7-0.3
	S195.1,107.1,194.8,107.3z"/>
<path class="st78" d="M195.5,106.7c-0.3,0.4-0.6,0.9-0.8,1.4c-0.1,0.5-0.2,1-0.3,1.4c-0.1,0.9-7.9-1.2-7.5-2.7s1.5-3,2-3
	S195.9,106.5,195.5,106.7z"/>
<ellipse transform="matrix(0.1549 -0.9879 0.9879 0.1549 61.7454 292.3442)" class="st79" cx="201.7" cy="110.1" rx="2.5" ry="2.7"/>
<path d="M231.9,50.2c0.1,0,0.1-0.1,0.1-0.2c0-0.1-0.1-0.1-0.1-0.1c-0.1,0-0.2,0.1-0.2,0.1C231.7,50.1,231.8,50.2,231.9,50.2
	C231.8,50.2,231.8,50.2,231.9,50.2z"/>
<ellipse transform="matrix(0.9841 -0.1774 0.1774 0.9841 -5.6014 19.4337)" class="st78" cx="105.9" cy="41" rx="0.8" ry="1.2"/>
<line class="st96" x1="186.4" y1="43.1" x2="191" y2="43.2"/>
<path class="st97" d="M125.8,140.8l-0.1,2.8l0,0v0.1l0,0l-2.1,4.6v0.1l-0.4,0.9l-1.1,2.4c0,0,0,0.1-0.1,0.2
	c-0.1,0.4-0.5,0.6-0.9,0.5c0,0-0.1,0-0.1,0c-3.9-1.5-20-7.8-27.9-14.7c-0.6-0.5-1.6-0.4-2.1,0.2c0,0,0,0.1-0.1,0.1
	c-0.8,1.1-1.4,2-1.8,2.7c-0.2,0.3-0.7,0.5-1,0.2c-0.1-0.1-0.2-0.2-0.3-0.3c-2.7-3.3-5-7-6.9-10.8c-1.7-3.5-3-7.3-3.8-11.1l0,0
	c-0.1-0.3-0.1-0.5-0.1-0.5v-0.1c0-0.1,0-0.2,0-0.3l0,0c0-0.7,1.4-2.4,2.1-3c0.2-0.2,0.4-0.2,0.7-0.1c2.9,1.5,6,2.8,9.1,3.9
	c4.1,1.3,10.5,2.7,10.5,2.7c0.4,0.1,0.6,0.5,0.4,0.9c0,0.1,0,0.1-0.1,0.2l-1.2,2.6l-0.1,0.2l-1.6,2.3c0,0.1,0.1,0.1,0.2,0.2
	c8.3,6.2,17.9,10.4,28.1,12.1c0.1,0,0.2,0.1,0.3,0.1C125.8,140.1,125.8,140.4,125.8,140.8z"/>
<path class="st98" d="M97.1,127.7c8.3,6.2,17.9,10.4,28.1,12.1c0.1,0,0.2,0.1,0.3,0.1c0.3,0.2,0.2,0.5,0.2,0.9l-0.1,2.9l-2.4,5.4
	c-0.1,0.4-0.5,0.6-0.9,0.5c0,0-0.1,0-0.1,0c-3.8-1.5-20-7.8-27.9-14.7c-0.6-0.5-1.5-0.5-2.1,0.1c0,0-0.1,0.1-0.1,0.1
	c-0.8,1.1-1.4,2-1.8,2.7c-0.2,0.3-0.7,0.4-1,0.2c-0.1-0.1-0.2-0.2-0.3-0.3c-2.7-3.3-5-6.9-6.9-10.8c-1.8-3.6-5.1-6.7-5.3-9.2
	c0-0.7,1.4-2.4,2.1-3.1c0.2-0.2,0.4-0.2,0.7-0.1c2.9,1.5,6,2.8,9.1,3.9c4.1,1.3,10.5,2.7,10.5,2.7c0.4,0.1,0.6,0.5,0.5,0.9
	c0,0.1,0,0.1-0.1,0.2l-1.3,2.8l-1.5,1.5C96.8,127,96.8,127.4,97.1,127.7z"/>
<path class="st31" d="M95.8,130.5c8.7,6.2,18.7,10.5,29.3,12.4c0.1,0,0.2,0.1,0.3,0.1c0.3,0.2,0.4,0.6,0.2,0.9l-3.6,7.8
	c0,0.1,0,0.1,0,0.2c-0.1,0.4-0.5,0.6-0.9,0.5c0,0-0.1,0-0.1,0c-3.9-1.5-20-7.8-27.9-14.7c-0.6-0.5-1.6-0.4-2.1,0.2c0,0,0,0-0.1,0.1
	c-0.8,1.1-1.4,2-1.8,2.7c-0.2,0.3-0.7,0.5-1,0.2c-0.1-0.1-0.2-0.2-0.3-0.3c-2.7-3.3-5-7-6.9-10.8c-1.8-3.7-3.1-7.6-4-11.6
	c-0.2-0.4,0-0.8,0.4-1c0.2-0.1,0.3-0.1,0.5,0c3.1,1.6,6.3,3.1,9.7,4.2c4.1,1.3,10.5,2.7,10.5,2.7c0.4,0.1,0.6,0.5,0.5,0.9
	c0,0.1,0,0.1-0.1,0.2l-2.8,4.4C95.4,129.8,95.5,130.3,95.8,130.5z"/>
<path class="st99" d="M136.3,31.5l-0.2-1l0,0l0,0l0,0c0,0,0.2-1.3,0.4-1.9l0,0l0.1-0.4l0.2-1c0,0,0,0,0-0.1c0-0.2,0.2-0.3,0.3-0.3
	c1.6,0,8.5,0.2,12.2,1.5c0.3,0.1,0.7-0.1,0.8-0.4c0.2-0.5,0.3-0.9,0.4-1.2c0.1-0.2,0.2-0.3,0.4-0.2c0,0,0.1,0,0.1,0.1
	c1.4,0.8,2.6,1.8,3.7,2.9c1,1,1.9,2.2,2.6,3.4l0,0l0.1,0.2l0,0c0,0,0,0.1,0,0.1l0,0c-0.1,0.5-0.2,0.9-0.5,1.3
	c-0.1,0.1-0.2,0.1-0.2,0.1c-1.3-0.1-2.6-0.2-3.9-0.2c-1.7,0.1-4.4,0.4-4.4,0.4c-0.1,0-0.3-0.1-0.3-0.2c0,0,0-0.1,0-0.1l0.2-1.1v-0.1
	l0.4-1h-0.1c-3.9-1.1-8.1-1.3-12.1-0.6h-0.1C136.3,31.8,136.3,31.6,136.3,31.5z"/>
<path class="st98" d="M148.7,32.4c-3.9-1.1-8.1-1.3-12.1-0.6h-0.1c-0.1,0-0.1-0.1-0.2-0.3l-0.2-1c0,0,0.4-2.2,0.4-2.2
	c0-0.2,0.2-0.3,0.3-0.3c1.6,0,8.5,0.2,12.2,1.5c0.3,0.1,0.7,0,0.8-0.4c0.2-0.5,0.3-0.9,0.4-1.2c0.1-0.2,0.2-0.3,0.4-0.2
	c0,0,0.1,0,0.1,0.1c1.4,0.8,2.6,1.8,3.7,2.9c1.1,1,2.6,1.7,2.9,2.5c0.1,0.2-0.3,1-0.5,1.3c-0.1,0.1-0.2,0.1-0.2,0.1
	c-1.3-0.1-2.6-0.2-3.9-0.2c-1.7,0.1-4.4,0.4-4.4,0.4c-0.1,0-0.3-0.1-0.3-0.2c0,0,0-0.1,0-0.1l0.2-1.1l0.5-0.7
	C148.9,32.6,148.8,32.5,148.7,32.4C148.7,32.4,148.7,32.4,148.7,32.4z"/>
<path class="st31" d="M148.9,31.3c-4.1-1.1-8.4-1.2-12.6-0.6c0,0-0.1,0-0.1,0c-0.1,0-0.2-0.2-0.2-0.3l0.6-3.2c0,0,0,0,0-0.1
	c0-0.2,0.2-0.3,0.3-0.3c1.6,0,8.5,0.2,12.2,1.5c0.3,0.1,0.7-0.1,0.8-0.4c0.2-0.5,0.3-0.9,0.4-1.2c0.1-0.2,0.2-0.3,0.4-0.2
	c0,0,0.1,0,0.1,0.1c1.4,0.8,2.6,1.8,3.7,2.9c1,1.1,1.9,2.2,2.6,3.5c0.2,0.2,0,0.5-0.2,0.5c-1.4-0.2-2.8-0.2-4.2-0.2
	c-1.7,0.1-4.3,0.4-4.3,0.4c-0.1,0-0.3-0.1-0.3-0.2c0,0,0-0.1,0-0.1l0.7-1.9C149.1,31.5,149,31.3,148.9,31.3z"/>
<path class="st98" d="M65.6,117.8c-0.1-0.2-0.1-0.4-0.2-0.6c0,0,0,0.1,0,0.1C65.4,117.3,65.5,117.5,65.6,117.8z"/>
<path class="st98" d="M111.9,147.6l-0.3,0.6c0,0.1-0.1,0.2-0.1,0.3L111.9,147.6z"/>
<path class="st31" d="M65.4,117c0,0.1,0,0.2,0,0.3C65.4,117.2,65.4,117.1,65.4,117z"/>
<path class="st31" d="M86.9,124.3l-1.5,2.4c-0.2-0.2-0.2-0.6,0-0.8L86.9,124.3z"/>
<path class="st31" d="M87,124.1c0,0.1-0.1,0.1-0.1,0.2L87,124.1z"/>
<path class="st31" d="M114.1,142.8c0,0.1,0,0.2-0.1,0.2l-2,4.3L114.1,142.8z"/>
<path class="st100" d="M298.8,33.8v132.4c0.7,0.7,1.1,1.6,1.1,2.6v4.7c0,14.6-10.9,26.4-24.3,26.4h-4.3c-1,0-2-0.5-2.6-1.4H31.2
	c-0.6,0.9-1.6,1.4-2.6,1.4h-4.3C10.9,200,0,188.2,0,173.6v-4.7c0-1,0.3-1.9,1-2.6V33.7c-0.6-0.7-1-1.6-1-2.5v-4.7
	C0,11.9,10.9,0,24.4,0h4.3c1,0,1.9,0.5,2.5,1.2h237.8c0.6-0.8,1.5-1.2,2.4-1.2h4.3c13.4,0,24.4,11.9,24.4,26.5v4.7
	C300,32.2,299.6,33.2,298.8,33.8z"/>
<path class="st101" d="M189.6,141.3L189.6,141.3c-0.2,0-0.2,0-0.3-0.1l-6.4-2.2l6.6,0.8c0.2,0,0.4,0,0.6,0.1l-0.1,1.4L189.6,141.3z"
	/>
<path class="st102" d="M189.5,140.6c0.2,0,0.4,0,0.6,0.1h-0.6C189.6,140.6,189.6,140.6,189.5,140.6 M189.6,139.2l-0.6,2.7
	c0.1,0,0.2,0.1,0.3,0.1h0.7l0.2-2.7C190,139.3,189.8,139.3,189.6,139.2"/>
<path class="st103" d="M191.4,141.5c-0.4,0-0.9,0-1.3-0.1l0.1-1.4l1,0.1h0.4L191.4,141.5z"/>
<path class="st102" d="M190.2,140.6l0.9,0.1h0.3C191,140.8,190.6,140.7,190.2,140.6 M190.2,139.3L190,142c0.4,0,0.9,0.1,1.4,0.1
	l0.3-2.7h-0.5L190.2,139.3z"/>
<path class="st102" d="M156.7,164.1l-5.6-0.4l-9.6-0.6h-0.7l-0.9-0.1c-0.2,0-0.5,0-0.7-0.1c-10-0.9-19.2-5.6-25.8-13.1
	c-7.6-8.7-11.2-20.1-10.1-31.5l1.2-22.3c0.9-8.8,1.7-11.1,7.7-11.5l1.4-16.2c1.5-18,16.5-32,34.6-32.3h11.6c0.4,0,0.9,0.1,1.4,0.1
	c19.4,1.8,33.7,18.9,32,38.3l-1.1,12.8c0.4,0,0.7,0.1,1.1,0.2c5.7,1.2,9.5,6.5,8.8,12.2l-1.1,21.3c-0.7,7.7-3.2,15.1-7.3,21.6
	C185.1,155.7,171.1,163.9,156.7,164.1 M146.7,85.5l21.5,0.7l0.9-10.6c0.5-5.5-1.2-10.9-4.7-15.1c-2.9-3.5-6.9-5.9-11.3-6.9
	c-1.2,0.3-2.4,0.7-3.6,1.2c-7,3-11.9,9.6-12.5,17.2l-1.2,13.2L146.7,85.5z"/>
<path class="st102" d="M148.8,36.9h10.6c0.4,0,0.9,0.1,1.4,0.1c19,1.8,33.1,18.6,31.5,37.6l-1.2,13.6c0.6,0,1.1,0.1,1.6,0.2
	c5.3,1.1,8.9,6.1,8.2,11.5l-1,21.3c-0.6,7.5-3.1,14.8-7.2,21.2c-7.9,12.5-21.3,21-36,21h-0.1l-5.5-0.4l-9.6-0.6h-0.7l-0.9-0.1
	c-0.2,0-0.4,0-0.6-0.1c-9.8-0.8-18.9-5.4-25.4-12.8c-7.4-8.5-11-19.7-9.9-31l1.2-22.3c0.9-9.1,1.7-10.7,7.6-10.9l1.4-16.8
	c1.6-17.6,16.2-31.2,33.8-31.6h0.8 M168.8,86.9l1-11.2c0.5-5.7-1.3-11.3-4.9-15.7c-3-3.6-7.2-6.2-11.8-7.2c-1.3,0.3-2.6,0.7-3.8,1.3
	c-7.2,3.1-12.2,9.9-12.9,17.8l-1.3,13.9l11.6,0.4h0.3L168.8,86.9 M148.8,35.5h-0.9c-8.8,0.2-17.3,3.7-23.8,9.7
	c-6.6,6-10.6,14.3-11.4,23.2L111.4,84c-6.2,0.6-6.8,3.8-7.6,12l-1.2,22.3c-1.1,11.6,2.6,23.2,10.3,32c6.8,7.6,16.2,12.4,26.3,13.4
	c0.2,0,0.4,0,0.6,0.1l0.9,0.1h0.9l9.6,0.6l5.5,0.4h0.1c14.6-0.2,28.8-8.4,37.1-21.7c4.2-6.6,6.7-14.1,7.4-21.8l1.1-21.5
	c0.6-6.1-3.5-11.6-9.5-12.8c-0.2,0-0.3-0.1-0.4-0.1l1.1-12.1c1.7-19.8-12.9-37.3-32.7-39.2c-0.5,0-0.9-0.1-1.4-0.1h-9.1L148.8,35.5z
	 M136.6,84.5l1-12.5c0.6-7.4,5.3-13.8,12.1-16.7c1.1-0.4,2.2-0.8,3.3-1.1c4.2,1,8,3.3,10.7,6.6c3.4,4,5.1,9.3,4.6,14.6l-0.9,9.9
	L147,84.8h-0.3L136.6,84.5z"/>
<path class="st101" d="M156.7,163.3h-1.6c-1.3,0-2.6-0.2-3.8-0.3L156.7,163.3z"/>
<path class="st104" d="M192.3,74.6L191.1,88l-0.8,9.5l-2.5-0.2l-6.6-0.5l-4.2-0.4l0.8-8.7v-0.5l1-11.6c0.5-5.6-1.3-11.3-4.9-15.6
	c-3.6-4.4-8.8-7.1-14.5-7.6c-2.2-0.2-4.3,0-6.5,0.5c-9.1,2.1-15.8,9.7-16.8,19l-1.3,14v0.5l-0.6,6.4l-9-0.8l-4.1-0.4l0.1-1.2
	l0.5-4.9l1.5-16.8c1.3-14.4,11.4-26.5,25.4-30.3l-0.7-1.3h11.4c0.4,0,0.9,0.1,1.4,0.1C179.9,38.7,193.9,55.5,192.3,74.6"/>
<path class="st101" d="M201.1,99.7L200,121c-1.9,23.2-21.2,42.1-43.1,42.2h-0.1l-5.5-0.4l-9.6-0.6H141l-1.5-0.1h-0.2l1.4-2.2
	c-5.2-2.3-9.8-5.6-13.5-9.9c-7.4-8.5-11-19.7-9.9-31l1.2-22.3c0.1-2.5,1.1-4.9,2.7-6.8c1.2-1.5,2.7-2.6,4.5-3.4
	c1.5-0.6,3.1-0.9,4.6-0.8l4.6,0.2l11.9,0.4l21.8,0.7l9.1,0.3l4.2,0.1l1.4,0.1l7.7,0.3c5.8,0.3,10.3,5.3,10,11.1c0,0.2,0,0.4,0,0.5"
	/>
<path class="st105" d="M183.2,74.6l-1.2,13v0.2l-0.8,9l-0.1,0.8L168,96.3l0.8-9v-0.5l1-11.2c0.5-5.7-1.3-11.3-4.9-15.7
	c-3.7-4.3-8.9-7-14.5-7.7c-0.4,0-0.7-0.1-1-0.1c-11.4-0.4-21.2,8.1-22.2,19.5L126,85.3v1.5l-0.5,4.8l-0.1,0.8l-5.3-0.4l-7.9-0.7
	l0.5-6.2l1.5-16.8c1.6-17.6,16.1-31.2,33.8-31.6h2.6c0.4,0,0.9,0.1,1.3,0.1c9.2,0.8,17.6,5.2,23.5,12.3
	C181.1,56.3,184,65.4,183.2,74.6"/>
<path class="st103" d="M187.8,97.3c0,0.5-0.1,1-0.2,1.6l-1.1,21.3c-2,23.4-21.6,42.4-43.8,42.2h-1.1c-0.8,0-1.6-0.1-2.4-0.2
	c-9.8-0.8-18.9-5.4-25.4-12.8c-7.4-8.5-11-19.7-9.9-31l1.2-22.3c0.9-9.1,1.7-10.7,7.6-10.9c1.2-0.1,2.6-0.1,4.3-0.1l4.8,0.2l4.2,0.2
	l9.1,0.3l11.6,0.4h0.3l21.8,0.7l8.8,0.3h0.1c1.6,0.2,3,0.3,4.2,0.5c0.4,0.1,0.9,0.2,1.4,0.2C187.4,88.6,188.5,90.6,187.8,97.3"/>
<path class="st106" d="M187.8,97.3c0,0.5-0.1,1-0.2,1.6l-1.1,21.3c-2,23.4-21.6,42.4-43.8,42.2h-0.9l4.8-76.3h0.3l21.8,0.7l8.8,0.3
	h0.1c1.6,0.2,3,0.3,4.2,0.5c0.5,0.1,0.9,0.2,1.4,0.2C187.4,88.7,188.5,90.6,187.8,97.3"/>
<path class="st107" d="M155.1,113.8c-0.3,3.5-2.3,6.7-5.5,8.3l-0.6,9.3c-0.1,2.9-2.6,5.2-5.5,5.1c-2.9-0.1-5.2-2.6-5.1-5.5
	c0-0.1,0-0.2,0-0.3l0.6-9.4c-2.8-2.1-4.4-5.4-4.2-8.9c0.4-5.6,5.3-9.8,10.8-9.4C151.3,103.4,155.5,108.2,155.1,113.8"/>
<path class="st107" d="M155.1,113.8c-0.3,3.5-2.3,6.7-5.5,8.3l-0.6,9.3c-0.2,2-1.4,3.7-3.2,4.5c-2-0.9-3.3-3-3.2-5.2l0.6-9.4
	c-2.8-2-4.4-5.4-4.2-8.8c0.3-4.5,3.5-8.2,7.9-9.2C152,104.2,155.5,108.8,155.1,113.8"/>
<path class="st108" d="M155.1,113.8c-0.3,3.5-2.3,6.7-5.5,8.3l-0.6,9.3c-0.2,2-1.4,3.7-3.2,4.5c-2-0.9-3.3-3-3.2-5.2l0.6-9.4
	c-2.8-2-4.4-5.4-4.2-8.8c0.3-4.5,3.5-8.2,7.9-9.2C152,104.2,155.5,108.8,155.1,113.8"/>
<g class="st109">
	<g>
		<defs>
			<rect id="SVGID_9_" x="114.5" y="141.8" width="4" height="4"/>
		</defs>
		<clipPath id="SVGID_10_">
			<use xlink:href="#SVGID_9_"  style="overflow:visible;"/>
		</clipPath>
		<g class="st110">
			<g>
				<defs>
					<rect id="SVGID_11_" x="114.5" y="141.8" width="4" height="4"/>
				</defs>
				<clipPath id="SVGID_12_">
					<use xlink:href="#SVGID_11_"  style="overflow:visible;"/>
				</clipPath>
				<g class="st111">
					<path class="st102" d="M116.5,141.8c1.1,0,2,0.9,2,2s-0.9,2-2,2s-2-0.9-2-2l0,0C114.5,142.6,115.4,141.8,116.5,141.8"/>
				</g>
			</g>
		</g>
	</g>
</g>
<g class="st109">
	<g>
		<defs>
			<rect id="SVGID_13_" x="117.8" y="145.8" width="15.6" height="11.5"/>
		</defs>
		<clipPath id="SVGID_14_">
			<use xlink:href="#SVGID_13_"  style="overflow:visible;"/>
		</clipPath>
		<g class="st112">
			<g>
				<defs>
					<rect id="SVGID_15_" x="117.8" y="145.8" width="15.6" height="11.5"/>
				</defs>
				<clipPath id="SVGID_16_">
					<use xlink:href="#SVGID_15_"  style="overflow:visible;"/>
				</clipPath>
				<g class="st113">
					<path class="st102" d="M121.7,146.8c2.4,3.2,5.9,5.5,9.9,6.4c1.1,0.2,1.9,1.2,1.9,2.4c-0.3,1.2-1.5,1.9-2.7,1.7
						c-0.1,0-0.1,0-0.2,0c-4.9-1.1-9.2-3.9-12.2-7.9c-0.8-0.9-0.8-2.3,0.1-3.1c0.1-0.1,0.1-0.1,0.2-0.2
						C119.8,145.5,121,145.9,121.7,146.8"/>
				</g>
			</g>
		</g>
	</g>
</g>
</svg>
