<svg id="Layer_1" data-name="Layer 1" xmlns="http://www.w3.org/2000/svg" xmlns:xlink="http://www.w3.org/1999/xlink" viewBox="0 0 300 200"><defs><style>.cls-1,.cls-107,.cls-22,.cls-42,.cls-47,.cls-50,.cls-62,.cls-66{fill:none;}.cls-2{fill:#00b1ff;}.cls-3{fill:#e2e2e2;}.cls-4{fill:#fdfeff;}.cls-5{fill:#41b9fa;}.cls-6{fill:#c4c4c4;}.cls-7{fill:#e5e5e5;}.cls-8{fill:#626c72;}.cls-9{fill:#96a5b3;}.cls-10{fill:#2f3e4a;}.cls-11{fill:#222d35;}.cls-12{isolation:isolate;}.cls-13{fill:#1e1e1e;}.cls-14,.cls-29,.cls-31,.cls-32{fill:#282828;}.cls-15{fill:#212121;}.cls-16{fill:#464747;}.cls-17{fill:#353535;stroke-width:0.17px;}.cls-107,.cls-17,.cls-29,.cls-36,.cls-38,.cls-47,.cls-67{stroke:#000;}.cls-17,.cls-29,.cls-31,.cls-36,.cls-38,.cls-39{stroke-linejoin:round;}.cls-18,.cls-25,.cls-30{fill:#4d4d4d;}.cls-19{fill:#b3b3b3;}.cls-20{fill:#d3161d;}.cls-21{fill:#adadad;stroke:#080000;stroke-width:0.23px;}.cls-107,.cls-21,.cls-22,.cls-23,.cls-24,.cls-25,.cls-30,.cls-32,.cls-37,.cls-41,.cls-42,.cls-45,.cls-47,.cls-50,.cls-61,.cls-62,.cls-63,.cls-64,.cls-65,.cls-66,.cls-67{stroke-miterlimit:10;}.cls-22,.cls-23,.cls-39,.cls-41,.cls-45,.cls-50,.cls-66{stroke:#070707;}.cls-22{stroke-width:0.35px;}.cls-23{fill:#77401b;}.cls-23,.cls-24,.cls-50{stroke-width:0.23px;}.cls-24,.cls-33,.cls-67{fill:#f8c946;}.cls-24{stroke:#020202;}.cls-25,.cls-30,.cls-32{stroke:#151616;}.cls-25{stroke-width:0.69px;}.cls-26{fill:#7b7b7b;}.cls-27{clip-path:url(#clip-path);}.cls-28{fill:#e7e7e7;}.cls-29,.cls-31{stroke-width:0.3px;}.cls-30,.cls-32{stroke-width:0.19px;}.cls-31{stroke:#282828;}.cls-34{fill:#683919;}.cls-35,.cls-41{fill:#945320;}.cls-36{fill:#515051;stroke-width:0.23px;}.cls-37,.cls-40{fill:#161616;}.cls-37,.cls-42,.cls-61,.cls-62,.cls-63,.cls-64,.cls-65{stroke:#0a0a0a;}.cls-37,.cls-38,.cls-41,.cls-42,.cls-45,.cls-47{stroke-width:0.2px;}.cls-38{fill:#8e8a8b;}.cls-39,.cls-45{fill:#e2b647;}.cls-39{stroke-width:0.2px;}.cls-43{fill:#dddbd7;}.cls-44{fill:#232323;}.cls-46{fill:#3a3a3a;}.cls-48{fill:#7c7c7c;}.cls-49{fill:#666;}.cls-51{fill:#389cce;}.cls-52{fill:#7f1119;}.cls-53{fill:#5e0e18;}.cls-54{fill:#352f49;}.cls-55{fill:#e41e00;}.cls-56{fill:#fffe28;}.cls-57{fill:#18ff08;}.cls-58{fill:#dbdddd;}.cls-59{fill:#0fb0db;}.cls-60{fill:#303435;}.cls-61,.cls-62,.cls-63,.cls-64,.cls-65{stroke-width:0.09px;}.cls-61{fill:url(#radial-gradient);}.cls-63{fill:url(#radial-gradient-2);}.cls-64{fill:url(#radial-gradient-3);}.cls-65{fill:url(#radial-gradient-4);}.cls-66,.cls-67{stroke-width:0.12px;}.cls-68{fill:#d01600;}.cls-69{fill:#a50e02;}.cls-70{clip-path:url(#clip-path-2);}.cls-71{clip-path:url(#clip-path-3);}.cls-72{clip-path:url(#clip-path-4);}.cls-73{clip-path:url(#clip-path-5);}.cls-74{clip-path:url(#clip-path-6);}.cls-75{clip-path:url(#clip-path-7);}.cls-76{clip-path:url(#clip-path-8);}.cls-77{clip-path:url(#clip-path-9);}.cls-78{clip-path:url(#clip-path-10);}.cls-79{clip-path:url(#clip-path-11);}.cls-80{clip-path:url(#clip-path-12);}.cls-81{clip-path:url(#clip-path-13);}.cls-82{fill:#008d0a;}.cls-83{clip-path:url(#clip-path-14);}.cls-84{clip-path:url(#clip-path-15);}.cls-85{fill:#008a0a;}.cls-86{clip-path:url(#clip-path-16);}.cls-87{clip-path:url(#clip-path-17);}.cls-88{clip-path:url(#clip-path-18);}.cls-89{clip-path:url(#clip-path-19);}.cls-90{fill:#008009;}.cls-91{fill:#00f711;}.cls-92{clip-path:url(#clip-path-20);}.cls-93{clip-path:url(#clip-path-21);}.cls-94{clip-path:url(#clip-path-22);}.cls-95{clip-path:url(#clip-path-23);}.cls-96{fill:#331080;}.cls-97{fill:#621ef7;}.cls-98{fill:#39118f;}.cls-99{clip-path:url(#clip-path-24);}.cls-100{fill:#818181;}.cls-101{clip-path:url(#clip-path-25);}.cls-102{clip-path:url(#clip-path-26);}.cls-103{clip-path:url(#clip-path-27);}.cls-104{clip-path:url(#clip-path-28);}.cls-105{clip-path:url(#clip-path-29);}.cls-106{clip-path:url(#clip-path-30);}.cls-107{stroke-width:0.19px;}</style><clipPath id="clip-path"><path class="cls-1" d="M196,108.34l-.74,2a1,1,0,0,0,.06-.43,1.54,1.54,0,0,0-.52-1,16.47,16.47,0,0,0-1.53-1.24c-.56-.4-1.07-.74-1.53-1l.74-2c.46.27,1,.61,1.53,1a16.47,16.47,0,0,1,1.53,1.24,1.51,1.51,0,0,1,.52,1A1,1,0,0,1,196,108.34Z"/></clipPath><radialGradient id="radial-gradient" cx="378.61" cy="63.92" r="1.63" gradientTransform="matrix(0, 0.87, -0.87, 0, 228.74, -207.22)" gradientUnits="userSpaceOnUse"><stop offset="0.2" stop-color="#666"/><stop offset="0.57" stop-color="#585858"/><stop offset="1" stop-color="#4d4d4d"/></radialGradient><radialGradient id="radial-gradient-2" cx="372.03" cy="80.01" r="1.63" gradientTransform="matrix(0, 0.87, -0.87, 0, 236.76, -187.67)" xlink:href="#radial-gradient"/><radialGradient id="radial-gradient-3" cx="378.8" cy="79.61" r="1.63" gradientTransform="matrix(0, 0.87, -0.87, 0, 242.28, -193.79)" xlink:href="#radial-gradient"/><radialGradient id="radial-gradient-4" cx="372.72" cy="64.2" r="1.63" gradientTransform="matrix(0, 0.87, -0.87, 0, 223.86, -201.96)" xlink:href="#radial-gradient"/><clipPath id="clip-path-2"><path class="cls-1" d="M134.81,19.53l-.74,2c-.4.06-.83.13-1.26.22s-.85.2-1.24.31-.76.25-1.09.37-.61.25-.83.36l.74-2c.22-.1.49-.22.83-.35s.7-.25,1.09-.37.81-.22,1.24-.31S134.41,19.59,134.81,19.53Z"/></clipPath><clipPath id="clip-path-3"><path class="cls-1" d="M127.41,25.07l.74-2a2.86,2.86,0,0,1,.12-.27,4.16,4.16,0,0,1,.75-1.06,4.83,4.83,0,0,1,1.37-1l-.74,2a4.62,4.62,0,0,0-1.37,1,4.37,4.37,0,0,0-.75,1.07C127.48,24.89,127.45,25,127.41,25.07Z"/></clipPath><clipPath id="clip-path-4"><path class="cls-1" d="M144,30l-.74,2a5,5,0,0,0-.07-2.77,9.63,9.63,0,0,0-1.93-3.27,10.49,10.49,0,0,0-3-2.55,6.93,6.93,0,0,0-2.9-.86h-.21a7.53,7.53,0,0,0-2.68.43,16.71,16.71,0,0,0-2.86,1.32,2.2,2.2,0,0,0-.58.55l-.69.83a7.37,7.37,0,0,1-.63.68.72.72,0,0,1-.48.22l.74-2a.72.72,0,0,0,.48-.21,9,9,0,0,0,.63-.68l.69-.83a2.2,2.2,0,0,1,.58-.55A16.76,16.76,0,0,1,133.24,21a7.3,7.3,0,0,1,2.68-.42h.2a6.93,6.93,0,0,1,2.91.86A10.33,10.33,0,0,1,142,24a9.48,9.48,0,0,1,1.92,3.26A4.9,4.9,0,0,1,144,30Z"/></clipPath><clipPath id="clip-path-5"><path class="cls-1" d="M136.56,30.57v-.11l.09-.23.09-.25.1-.25.09-.25.1-.26.1-.25.09-.25.08-.23v.12Z"/></clipPath><clipPath id="clip-path-6"><path class="cls-1" d="M136.72,28.6l-.74,2a.71.71,0,0,0,0-.43,2.22,2.22,0,0,0-.43-.68,2.65,2.65,0,0,0-.63-.58,1.18,1.18,0,0,0-.48-.16l.74-2a1.18,1.18,0,0,1,.48.16,2.77,2.77,0,0,1,.63.57,2.37,2.37,0,0,1,.43.69A.71.71,0,0,1,136.72,28.6Z"/></clipPath><clipPath id="clip-path-7"><polygon class="cls-1" points="136.72 28.61 135.98 30.58 135.98 30.57 136.72 28.6 136.72 28.61"/></clipPath><clipPath id="clip-path-8"><path class="cls-1" d="M136.51,30.77v0l.74-2v0Z"/></clipPath><clipPath id="clip-path-9"><path class="cls-1" d="M132.63,29.74l.74-2a.67.67,0,0,1,.24-.3,4.87,4.87,0,0,1,.53-.35l.57-.29a1,1,0,0,1,.43-.1l-.74,2a1,1,0,0,0-.43.09l-.57.29c-.2.12-.38.24-.53.35A.67.67,0,0,0,132.63,29.74Z"/></clipPath><clipPath id="clip-path-10"><path class="cls-1" d="M144.38,30.56l-.74,2a6.27,6.27,0,0,1-1.4,2.15,13.19,13.19,0,0,1-2.8,2.13,13.83,13.83,0,0,1-4,1.6,8.78,8.78,0,0,1-2.16.2,9.43,9.43,0,0,1-1.9-.25,11.94,11.94,0,0,1-4.11-2,23.1,23.1,0,0,1-4.2-4,19.31,19.31,0,0,1-3.25-5.06,7.73,7.73,0,0,1-.62-4.09,5.65,5.65,0,0,1,.3-1.16l.74-2a5.73,5.73,0,0,0-.3,1.15,7.78,7.78,0,0,0,.62,4.1,19.64,19.64,0,0,0,3.25,5.06,23.1,23.1,0,0,0,4.2,4,11.9,11.9,0,0,0,4.11,2,9.44,9.44,0,0,0,1.9.26,9.3,9.3,0,0,0,2.16-.2,13.59,13.59,0,0,0,4-1.61,13.17,13.17,0,0,0,2.8-2.12A6.27,6.27,0,0,0,144.38,30.56Z"/></clipPath><clipPath id="clip-path-11"><path class="cls-1" d="M102.27,69.38l.74-2a1.24,1.24,0,0,1,.51-.6,1.46,1.46,0,0,1,.74-.19,2,2,0,0,1,.33.05,1.58,1.58,0,0,1,.91.56,1.38,1.38,0,0,1,.31,1l-.74,2a1.39,1.39,0,0,0-.31-1,1.58,1.58,0,0,0-.91-.56,2,2,0,0,0-.33,0,1.23,1.23,0,0,0-.73.19A1.15,1.15,0,0,0,102.27,69.38Z"/></clipPath><clipPath id="clip-path-12"><path class="cls-1" d="M104.92,71.12l-.74,2s0-.09,0-.13c.2-.54.37-1.06.51-1.55s.25-.9.33-1.22l.74-2c-.08.32-.19.73-.33,1.22s-.31,1-.51,1.55Z"/></clipPath><clipPath id="clip-path-13"><path class="cls-1" d="M112.51,73.44l-.74,2c-.17.47-.36.92-.55,1.34a14.86,14.86,0,0,1-1,1.94,7.45,7.45,0,0,1-.87,1.16l.74-2a7.45,7.45,0,0,0,.87-1.16,15.54,15.54,0,0,0,1-1.94C112.15,74.36,112.34,73.91,112.51,73.44Z"/></clipPath><clipPath id="clip-path-14"><path class="cls-1" d="M99,104.16l-.74,2a8.21,8.21,0,0,1-1.52-2,6.36,6.36,0,0,1-.64-2.22l.74-2a6.36,6.36,0,0,0,.64,2.23A8.15,8.15,0,0,0,99,104.16Z"/></clipPath><clipPath id="clip-path-15"><path class="cls-1" d="M105.09,113.67c.22-.58.43-1.16.65-1.73h0Z"/></clipPath><clipPath id="clip-path-16"><path class="cls-1" d="M109.73,114.16l-.74,2a11.49,11.49,0,0,1-1.71-1.94,8.73,8.73,0,0,1-1.08-2.11l.74-2a9,9,0,0,0,1.08,2.12A11.89,11.89,0,0,0,109.73,114.16Z"/></clipPath><clipPath id="clip-path-17"><path class="cls-1" d="M106.55,111.48l-.74,2a6.06,6.06,0,0,1-.3.68A8.84,8.84,0,0,1,104.2,116l.74-2a8.79,8.79,0,0,0,1.31-1.88A7.17,7.17,0,0,0,106.55,111.48Z"/></clipPath><clipPath id="clip-path-18"><path class="cls-1" d="M97.5,113.74l.74-2a5.36,5.36,0,0,1,1-1.57l-.74,2A5.53,5.53,0,0,0,97.5,113.74Z"/></clipPath><clipPath id="clip-path-19"><path class="cls-1" d="M97,113.54l.74-2-.08.23a5.4,5.4,0,0,0-.17,2.2l-.74,2a5.45,5.45,0,0,1,.17-2.21C96.92,113.7,96.94,113.62,97,113.54Z"/></clipPath><clipPath id="clip-path-20"><path class="cls-1" d="M192.93,32.85l-.74,2a.53.53,0,0,0,0-.27.69.69,0,0,0-.19-.34q-.19-.23-.42-.45c-.15-.15-.3-.3-.45-.43a1,1,0,0,0-.36-.22l-.18,0a1.1,1.1,0,0,0-.25,0,2,2,0,0,0-.64.33,1.7,1.7,0,0,0-.49.48l-.05.1.74-2A.41.41,0,0,1,190,32a1.58,1.58,0,0,1,.49-.48,2,2,0,0,1,.64-.33l.25,0a.83.83,0,0,1,.54.24l.45.44q.22.22.42.45a.65.65,0,0,1,.19.34A.49.49,0,0,1,192.93,32.85Z"/></clipPath><clipPath id="clip-path-21"><path class="cls-1" d="M200,35.91l-.74,2-.12.29a6.73,6.73,0,0,1-2.29,2.51,6.08,6.08,0,0,1-1.93.89,7.08,7.08,0,0,1-2,.21l.74-2a6.76,6.76,0,0,0,2-.22,5.68,5.68,0,0,0,1.93-.89,6.59,6.59,0,0,0,2.29-2.51Z"/></clipPath><clipPath id="clip-path-22"><path class="cls-1" d="M186.44,37.88l-.74,2a.62.62,0,0,0,0-.33,1.17,1.17,0,0,0-.22-.47c-.14-.18-.31-.37-.5-.57a6.62,6.62,0,0,0-.58-.52,1.53,1.53,0,0,0-.5-.27.91.91,0,0,0-.23,0,1.09,1.09,0,0,0-.31,0,2.65,2.65,0,0,0-.77.39,2.08,2.08,0,0,0-.58.57.49.49,0,0,0-.06.13l.74-2a.38.38,0,0,1,.06-.13,2,2,0,0,1,.58-.57,2.28,2.28,0,0,1,.76-.39,1.22,1.22,0,0,1,.32,0,.85.85,0,0,1,.22,0,1.33,1.33,0,0,1,.51.27,6.62,6.62,0,0,1,.58.52c.19.2.36.39.5.57a1.18,1.18,0,0,1,.22.47A.59.59,0,0,1,186.44,37.88Z"/></clipPath><clipPath id="clip-path-23"><path class="cls-1" d="M193.3,42l-.74,2-.09.24a5.07,5.07,0,0,1-1.77,2.11A9.21,9.21,0,0,1,187,48a9.08,9.08,0,0,1-1.63.12,7.19,7.19,0,0,1-1.8-.28,9.9,9.9,0,0,1-3.15-1.54,22.48,22.48,0,0,1-2.86-2.46,20.78,20.78,0,0,1-2.38-2.85A7.17,7.17,0,0,1,174,38.05a4.52,4.52,0,0,1,.25-2.38l.74-2a4.54,4.54,0,0,0-.25,2.38,7.15,7.15,0,0,0,1.22,2.9,20.72,20.72,0,0,0,2.38,2.84,22.57,22.57,0,0,0,2.86,2.47,9.9,9.9,0,0,0,3.15,1.54,7.19,7.19,0,0,0,1.8.27,7.55,7.55,0,0,0,1.63-.12,9.18,9.18,0,0,0,3.69-1.67,5.09,5.09,0,0,0,1.77-2.12Z"/></clipPath><clipPath id="clip-path-24"><path class="cls-1" d="M151.35,120.44l-.73,2a2.44,2.44,0,0,1-.73.7,11.43,11.43,0,0,1-1,.54c-1.23.55-2.64,1.17-4.2,1.84s-3.11,1.35-4.77,2l-4.72,2.05c-1.47.65-2.78,1.25-3.89,1.78l.74-2c1.11-.54,2.42-1.14,3.89-1.78l4.72-2.05,4.77-2c1.55-.67,3-1.29,4.2-1.84a11.45,11.45,0,0,0,1-.55A2.26,2.26,0,0,0,151.35,120.44Z"/></clipPath><clipPath id="clip-path-25"><path class="cls-1" d="M151.84,120.72l-.74,2a2.7,2.7,0,0,1-.86.82c-.34.2-.71.4-1.1.58l-4.2,1.84c-1.52.65-3.12,1.35-4.78,2L135.44,130c-1.52.67-2.87,1.29-4,1.83l.74-2c1.14-.55,2.49-1.17,4-1.84s3.12-1.36,4.72-2l4.78-2.06,4.2-1.84c.39-.18.76-.37,1.1-.57A2.7,2.7,0,0,0,151.84,120.72Z"/></clipPath><clipPath id="clip-path-26"><path class="cls-1" d="M170,122.1l.74-2a.71.71,0,0,1,.14-.26.68.68,0,0,1,.35-.27,1,1,0,0,1,.3,0h.16l.71.14.68.19a1,1,0,0,1,.43.24.9.9,0,0,1,.24.4,1.86,1.86,0,0,1,0,.75l-.74,2a1.81,1.81,0,0,0,0-.74.88.88,0,0,0-.24-.41,1,1,0,0,0-.43-.23,5.27,5.27,0,0,0-.68-.19c-.26-.06-.5-.11-.71-.14l-.16,0a.73.73,0,0,0-.3,0,.72.72,0,0,0-.35.26A.92.92,0,0,0,170,122.1Z"/></clipPath><clipPath id="clip-path-27"><path class="cls-1" d="M162.4,119.16l.74-2a9.78,9.78,0,0,0-.45,1.68,7.36,7.36,0,0,0,.13,3.6,6.11,6.11,0,0,0,1.67,2.6,8.82,8.82,0,0,0,2.76,1.73,23.64,23.64,0,0,0,3.45,1.08,2.79,2.79,0,0,0,.62.07h.47l1.23-.06c.28,0,.54,0,.76,0h.3l-.74,2-.3,0c-.22,0-.48,0-.76,0l-1.22,0h-.48a3.54,3.54,0,0,1-.62-.07,23.64,23.64,0,0,1-3.45-1.09,8.82,8.82,0,0,1-2.76-1.73,6.14,6.14,0,0,1-1.67-2.59,7.4,7.4,0,0,1-.13-3.61A9.43,9.43,0,0,1,162.4,119.16Z"/></clipPath><clipPath id="clip-path-28"><path class="cls-1" d="M174.66,128l-.74,2a1.08,1.08,0,0,1-.47.46,3.51,3.51,0,0,1-1.1.42,7,7,0,0,1-1.62.17h-.16a7.44,7.44,0,0,1-1.92-.33l.74-2a7.89,7.89,0,0,0,1.92.33h.16a7,7,0,0,0,1.62-.16,4.08,4.08,0,0,0,1.1-.42A1.15,1.15,0,0,0,174.66,128Z"/></clipPath><clipPath id="clip-path-29"><path class="cls-1" d="M169.39,128.74l-.74,2c-.28-.08-.6-.19-1-.33s-.77-.31-1.2-.5-.84-.39-1.26-.62a9.1,9.1,0,0,1-1-.56l.74-2c.3.19.63.38,1,.56s.85.43,1.26.62.83.35,1.2.49Z"/></clipPath><clipPath id="clip-path-30"><path class="cls-1" d="M164.87,124.77l-.56,1.49c.18-.5.37-1,.56-1.49Z"/></clipPath></defs><title>numbers</title><path class="cls-2" d="M26.28,192.56c-10.87,0-19.72-9.61-19.72-21.42V28.64c0-11.82,8.85-21.43,19.72-21.43H273.65c10.87,0,19.71,9.61,19.71,21.43v142.5c0,11.81-8.84,21.42-19.71,21.42Z"/><path class="cls-3" d="M273.64,10.28c9.32,0,16.9,8.23,16.9,18.36v142.5c0,10.12-7.58,18.36-16.9,18.36H26.28c-9.32,0-16.9-8.24-16.9-18.36V28.64c0-10.13,7.58-18.36,16.9-18.36H273.64m0-6.13H26.28c-12.43,0-22.54,11-22.54,24.49v142.5c0,13.5,10.11,24.49,22.54,24.49H273.64c12.43,0,22.54-11,22.54-24.49V28.64c0-13.51-10.11-24.49-22.54-24.49"/><path class="cls-4" d="M273.65,1.24H26.28c-13.87,0-25.22,12.33-25.22,27.4v142.5c0,15.07,11.35,27.4,25.22,27.4H273.65c13.86,0,25.21-12.33,25.21-27.4V28.64c0-15.07-11.35-27.4-25.21-27.4m19.85,169.9a22.4,22.4,0,0,1-5.83,15.23,19,19,0,0,1-14,6.35H26.28a19,19,0,0,1-14-6.35,22.36,22.36,0,0,1-5.84-15.23V28.64A22.37,22.37,0,0,1,12.26,13.4a18.94,18.94,0,0,1,14-6.34H273.65a19,19,0,0,1,14,6.34,22.41,22.41,0,0,1,5.83,15.24Z"/><path class="cls-5" d="M30.73,8a3.52,3.52,0,0,1-.13.43Z"/><path class="cls-6" d="M31.76,4.7,30.73,8l-.13.43h0a2.74,2.74,0,0,1-2.51,1.81h-1.9C17,10.22,9.48,18.35,9.48,28.37v2.07a2.92,2.92,0,0,1-2,2.86h0L4,34.62l1-1.89a1.89,1.89,0,0,1-.2-.2A3.1,3.1,0,0,1,4,30.44V26.5C4,14.23,13.17,4.29,24.47,4.29h3.62A2.71,2.71,0,0,1,30.4,5.68Z"/><path class="cls-7" d="M31.94,3.52h0A3.39,3.39,0,0,1,28.7,7.05H26.44c-11,0-19.88,9.67-19.88,21.6V31.1a3.38,3.38,0,0,1-3.24,3.52A3.38,3.38,0,0,1,.08,31.1V26.42C.08,11.83,11,0,24.39,0H28.7a3.39,3.39,0,0,1,3.24,3.52"/><path class="cls-8" d="M3.25,29.4a1.91,1.91,0,0,1,0,3.81,1.91,1.91,0,0,1,0-3.81"/><path class="cls-9" d="M3.25,29.6a1.71,1.71,0,0,1,0,3.41,1.71,1.71,0,0,1,0-3.41"/><polygon class="cls-10" points="4.21 30.7 4.21 31.91 3.25 32.5 2.31 31.91 2.31 30.7 3.25 30.11 4.21 30.7"/><path class="cls-11" d="M4.21,30.7v.55a1.31,1.31,0,0,0-1-.47,1.2,1.2,0,0,0-.95.47V30.7l.94-.59Z"/><path class="cls-8" d="M28.85,1.58A1.84,1.84,0,0,1,30.6,3.49a1.76,1.76,0,1,1-3.5,0,1.84,1.84,0,0,1,1.75-1.91"/><path class="cls-9" d="M28.85,1.79a1.63,1.63,0,0,1,1.56,1.7,1.57,1.57,0,1,1-3.13,0,1.64,1.64,0,0,1,1.57-1.7"/><polygon class="cls-10" points="29.8 2.89 29.8 4.09 28.85 4.68 27.9 4.09 27.9 2.89 28.85 2.3 29.8 2.89"/><path class="cls-11" d="M29.8,2.89v.54A1.34,1.34,0,0,0,28.86,3a1.26,1.26,0,0,0-1,.47V2.89l1-.6Z"/><path class="cls-6" d="M268.32,4.73l1,3.28.14.43h0a2.72,2.72,0,0,0,2.51,1.8h1.9c9.23,0,16.71,8.13,16.71,18.16v2.06a2.94,2.94,0,0,0,2,2.87h0l3.41,1.32-1-1.9a1.21,1.21,0,0,0,.2-.19,3.07,3.07,0,0,0,.8-2.1V26.54c0-12.27-9.15-22.21-20.44-22.21H272a2.68,2.68,0,0,0-2.31,1.38Z"/><path class="cls-7" d="M268.13,3.56h0a3.39,3.39,0,0,0,3.25,3.52h2.26c11,0,19.87,9.67,19.87,21.6v2.46a3.26,3.26,0,1,0,6.49,0V26.46C300,11.86,289.11,0,275.69,0h-4.31a3.39,3.39,0,0,0-3.25,3.52"/><path class="cls-8" d="M296.82,29.43a1.92,1.92,0,1,0,1.75,1.91,1.84,1.84,0,0,0-1.75-1.91"/><path class="cls-9" d="M296.82,29.64a1.71,1.71,0,1,0,1.57,1.7,1.63,1.63,0,0,0-1.57-1.7"/><polygon class="cls-10" points="295.87 30.74 295.87 31.94 296.82 32.53 297.77 31.94 297.77 30.74 296.82 30.15 295.87 30.74"/><path class="cls-11" d="M295.87,30.74v.54a1.38,1.38,0,0,1,.94-.47,1.26,1.26,0,0,1,1,.47v-.54l-.95-.6Z"/><path class="cls-8" d="M271.23,1.62a1.83,1.83,0,0,0-1.75,1.91,1.76,1.76,0,1,0,3.5,0,1.84,1.84,0,0,0-1.75-1.91"/><path class="cls-9" d="M271.23,1.82a1.64,1.64,0,0,0-1.57,1.71,1.57,1.57,0,1,0,3.13,0,1.64,1.64,0,0,0-1.56-1.71"/><polygon class="cls-10" points="270.27 2.92 270.27 4.13 271.23 4.72 272.17 4.13 272.17 2.92 271.23 2.33 270.27 2.92"/><path class="cls-11" d="M270.27,2.93v.54a1.31,1.31,0,0,1,1-.47,1.2,1.2,0,0,1,.95.47V2.93l-.94-.6Z"/><path class="cls-6" d="M31.68,195.3l-1-3.28-.14-.43h0A2.73,2.73,0,0,0,28,189.78h-1.9c-9.23,0-16.71-8.13-16.71-18.15v-2.07a2.92,2.92,0,0,0-2-2.86h0L4,165.37l1,1.9a1.26,1.26,0,0,0-.2.2,3,3,0,0,0-.8,2.09v3.94c0,12.27,9.15,22.21,20.44,22.21H28a2.69,2.69,0,0,0,2.31-1.39Z"/><path class="cls-7" d="M31.87,196.48h0A3.4,3.4,0,0,0,28.62,193H26.36c-11,0-19.87-9.67-19.87-21.6V168.9a3.39,3.39,0,0,0-3.25-3.52A3.38,3.38,0,0,0,0,168.9v4.68C0,188.17,10.89,200,24.31,200h4.31a3.4,3.4,0,0,0,3.25-3.52"/><path class="cls-8" d="M3.18,170.6a1.91,1.91,0,0,0,0-3.81,1.91,1.91,0,0,0,0,3.81"/><path class="cls-9" d="M3.18,170.4a1.71,1.71,0,0,0,0-3.41,1.71,1.71,0,0,0,0,3.41"/><polygon class="cls-10" points="4.13 169.3 4.13 168.1 3.18 167.5 2.23 168.1 2.23 169.3 3.18 169.89 4.13 169.3"/><path class="cls-11" d="M4.13,169.3v-.55a1.28,1.28,0,0,1-.94.47,1.22,1.22,0,0,1-1-.47v.55l1,.59Z"/><path class="cls-8" d="M28.77,198.42A1.92,1.92,0,1,0,27,196.51a1.84,1.84,0,0,0,1.75,1.91"/><path class="cls-9" d="M28.77,198.21a1.71,1.71,0,1,0-1.56-1.7,1.64,1.64,0,0,0,1.56,1.7"/><polygon class="cls-10" points="29.73 197.11 29.73 195.91 28.77 195.32 27.83 195.91 27.83 197.11 28.77 197.7 29.73 197.11"/><path class="cls-11" d="M29.73,197.11v-.54a1.38,1.38,0,0,1-.95.47,1.23,1.23,0,0,1-1-.47v.54l.94.6Z"/><path class="cls-6" d="M268.24,195.27l1-3.28.13-.44h0a2.74,2.74,0,0,1,2.51-1.8h1.9c9.23,0,16.71-8.13,16.71-18.16v-2.06a3,3,0,0,1,2-2.87h0l3.41-1.32-1,1.9a1.8,1.8,0,0,1,.2.19,3.12,3.12,0,0,1,.8,2.1v3.93c0,12.27-9.15,22.21-20.44,22.21h-3.63a2.7,2.7,0,0,1-2.31-1.38Z"/><path class="cls-7" d="M268.06,196.44h0a3.38,3.38,0,0,1,3.24-3.52h2.26c11,0,19.88-9.67,19.88-21.6v-2.46a3.25,3.25,0,1,1,6.48,0v4.69c0,14.59-10.88,26.41-24.31,26.41H271.3a3.38,3.38,0,0,1-3.24-3.52"/><path class="cls-8" d="M296.75,170.57a1.92,1.92,0,1,1,1.75-1.91,1.84,1.84,0,0,1-1.75,1.91"/><path class="cls-9" d="M296.75,170.36a1.71,1.71,0,1,1,1.56-1.7,1.64,1.64,0,0,1-1.56,1.7"/><polygon class="cls-10" points="295.79 169.26 295.79 168.06 296.75 167.47 297.69 168.06 297.69 169.26 296.75 169.85 295.79 169.26"/><path class="cls-11" d="M295.79,169.26v-.54a1.38,1.38,0,0,0,.95.47,1.23,1.23,0,0,0,.95-.47v.54l-.94.6Z"/><path class="cls-8" d="M271.15,198.38a1.91,1.91,0,1,1,1.75-1.91,1.83,1.83,0,0,1-1.75,1.91"/><path class="cls-9" d="M271.15,198.18a1.71,1.71,0,1,1,1.57-1.71,1.64,1.64,0,0,1-1.57,1.71"/><polygon class="cls-10" points="270.2 197.07 270.2 195.87 271.15 195.28 272.1 195.87 272.1 197.07 271.15 197.67 270.2 197.07"/><path class="cls-11" d="M270.2,197.08v-.55a1.28,1.28,0,0,0,.94.47,1.22,1.22,0,0,0,1-.47v.55l-1,.59Z"/><g class="cls-12"><polygon class="cls-13" points="134.37 54.92 105.42 42.31 153.52 21.35 182.47 33.96 134.37 54.92"/><polygon points="182.27 33.11 182.47 33.96 153.52 21.35 153.32 20.5 182.27 33.11"/><polygon points="153.32 20.5 153.52 21.35 105.42 42.31 105.22 41.46 153.32 20.5"/></g><g class="cls-12"><path class="cls-14" d="M169.17,58.59a7.09,7.09,0,0,1-.3,1.85,3,3,0,0,0-.06-1.92c-.44-1.19-1.64-2.26-3.56-3.13A21.7,21.7,0,0,0,160.5,54a51,51,0,0,0-16-.14l-.67.1a40.9,40.9,0,0,0-13.67,4.26c-3.63,2.08-5,4.34-4.26,6.31a3,3,0,0,0,.16.37l-.06-.12c-.06-.12-.14-.28-.19-.4a7.51,7.51,0,0,1-.28-.8,11.8,11.8,0,0,1-.43-2.06c0-.39-.12-.92-.25-2.24a21.1,21.1,0,0,1-.1-3.3,15.07,15.07,0,0,0,0-1.67s0-.88-.16-1.77a9.38,9.38,0,0,0-.25-1.28c-.07-.28-.13-.53-.18-.79s-.13-.64-.2-1.07-.18-1.22-.26-2.27c-.06-.71-.09-1.4-.1-1.77s0-.67,0-.92,0-.61,0-.61c0-.36,0-.36.07-.63a2.79,2.79,0,0,1,.07-.4c.06-.2.14-.47.21-.67a4,4,0,0,1,.21-.47,9.93,9.93,0,0,1,4-3.66c3.63-2.08,8.84-3.59,14.33-4.36l.25,0a50.74,50.74,0,0,1,15.75.17,19.32,19.32,0,0,1,5.72,1.92,6.76,6.76,0,0,1,2,1.62,5.76,5.76,0,0,1,.35.51c0,.09.12.2.16.28s.19.42.26.6a16.28,16.28,0,0,1,.74,3.59c.05.39.07.68.09.8,0,.28.08.95.12,1.77,0,.11,0,.23,0,.35,0,.7,0,1.28,0,1.55,0,.42,0,.58,0,.89,0,.07,0,.43.06,1a18.58,18.58,0,0,0,.45,2.85,19.27,19.27,0,0,1,.39,2c0,.26.08.66.1.8.07.66.12,1.22.14,1.49A24.51,24.51,0,0,1,169.17,58.59Z"/><path class="cls-15" d="M134.18,69c-4.75-.92-7.58-2.59-8.31-4.56s.63-4.22,4.27-6.3,8.84-3.6,14.34-4.36a50.63,50.63,0,0,1,16,.14c4.75.91,7.58,2.59,8.31,4.55s-.63,4.23-4.26,6.31-8.85,3.6-14.34,4.36A51,51,0,0,1,134.18,69Z"/></g><path class="cls-16" d="M169.17,58.59a7.09,7.09,0,0,1-.3,1.85,3,3,0,0,0-.06-1.92c-.44-1.19-1.64-2.26-3.56-3.13A21.7,21.7,0,0,0,160.5,54a51,51,0,0,0-16-.14l-.67.1a40.9,40.9,0,0,0-13.67,4.26c-3.63,2.08-5,4.34-4.26,6.31a3,3,0,0,0,.16.37l-.06-.12c-.06-.12-.14-.28-.19-.4a7.51,7.51,0,0,1-.28-.8,11.8,11.8,0,0,1-.43-2.06c0-.39-.12-.92-.25-2.24a21.1,21.1,0,0,1-.1-3.3,15.07,15.07,0,0,0,0-1.67s0-.88-.16-1.77a9.38,9.38,0,0,0-.25-1.28c-.07-.28-.13-.53-.18-.79,4.91-4.93,13.77-8.48,24-9A42.5,42.5,0,0,1,168,44.83c0,.11,0,.23,0,.35,0,.7,0,1.28,0,1.55,0,.42,0,.58,0,.89,0,.07,0,.43.06,1a18.58,18.58,0,0,0,.45,2.85,19.27,19.27,0,0,1,.39,2c0,.26.08.66.1.8.07.66.12,1.22.14,1.49A24.51,24.51,0,0,1,169.17,58.59Z"/><path class="cls-17" d="M200.44,150.15a14.69,14.69,0,0,0-.6-2.37c-1.11-3.23-4.55-13-7.54-18.84-1.75-3.44-2.83-5.8-3.74-7.55a15.13,15.13,0,0,0-4.4-5.17,14.9,14.9,0,0,0-13.28-3c-7.14,1.27-11,1.57-12.36,2.07-1.35,1-7,7.48-7.22,12.77-.13,3.81.37,9,3.21,13s14.39,23.13,19.12,23.35c5.52.25,19.61-1.08,23.61-4.23C200.83,157.34,201.06,153.92,200.44,150.15Z"/><path class="cls-18" d="M175.51,163.71a32,32,0,0,1-7.69-1.34l-1-.25c-4.23-1.08-22.53-14.3-25.44-18.37-2.76-3.87-3.19-8.92-3.06-12.47.11-3.12,2.34-6.31,6.62-9.46l.51-.39a26.21,26.21,0,0,1,9.55-4.81,14.59,14.59,0,0,1,3.59-.45,13.76,13.76,0,0,1,4.48.74,15.94,15.94,0,0,1,4.53,2.55,14.33,14.33,0,0,1,4.17,4.89c.41.79.86,1.7,1.38,2.77.64,1.32,1.4,2.89,2.37,4.79,3,5.84,6.48,15.81,7.49,18.73a14.44,14.44,0,0,1,.57,2.24c.6,3.71.34,6.7-2.91,9.26a8,8,0,0,1-5.18,1.57Z"/><path d="M158.61,117a12.72,12.72,0,0,1,4.22.71,15.21,15.21,0,0,1,4.32,2.43,13.69,13.69,0,0,1,3.94,4.62c.4.77.84,1.69,1.35,2.74.63,1.29,1.41,2.9,2.39,4.81,3,5.79,6.44,15.72,7.44,18.63a12.12,12.12,0,0,1,.54,2.11c.56,3.43.33,6.19-2.61,8.51a7.32,7.32,0,0,1-4.69,1.4A31.25,31.25,0,0,1,168,161.6l-1-.25c-4-1-22.23-14.19-25-18.06-2.63-3.69-3-8.55-2.91-12,.1-2.87,2.22-5.85,6.29-8.85l.17-.13.35-.26a25.23,25.23,0,0,1,9.26-4.67,13.62,13.62,0,0,1,3.4-.44m0-1.59a15.2,15.2,0,0,0-3.79.48,27.42,27.42,0,0,0-10.17,5.2c-1.34,1-6.92,4.91-7.1,10.2-.14,3.82.37,9,3.2,13s21.31,17.5,25.89,18.67a37.39,37.39,0,0,0,8.87,1.62,8.88,8.88,0,0,0,5.67-1.74c3.59-2.83,3.82-6.25,3.2-10a14.69,14.69,0,0,0-.6-2.37c-1.11-3.23-4.55-13-7.53-18.84-1.76-3.44-2.83-5.79-3.75-7.55a15,15,0,0,0-4.4-5.17,16.79,16.79,0,0,0-4.75-2.66,14.46,14.46,0,0,0-4.74-.79Z"/><ellipse class="cls-19" cx="150.72" cy="133.95" rx="8.49" ry="10.62" transform="translate(-4.27 4.96) rotate(-1.86)"/><ellipse class="cls-19" cx="162.02" cy="148.69" rx="6.08" ry="7.61" transform="translate(-4.74 5.34) rotate(-1.86)"/><ellipse class="cls-19" cx="174.32" cy="154.28" rx="4.78" ry="5.99" transform="translate(-4.91 5.74) rotate(-1.86)"/><ellipse class="cls-20" cx="150.18" cy="133.96" rx="2.89" ry="3.97" transform="translate(-4.27 4.94) rotate(-1.86)"/><ellipse class="cls-20" cx="161.76" cy="149.01" rx="3.43" ry="2.49" transform="translate(-17.84 275.94) rotate(-77.9)"/><ellipse class="cls-20" cx="174.33" cy="154.69" rx="2.54" ry="1.85" transform="translate(-13.47 292.73) rotate(-77.9)"/><path class="cls-21" d="M177.4,146.14s-1.4-2.69-5.52-1.26c-.78-1.75-2.43-6.49-9.77-5.81.33-1.64,3.09-8.76-2.5-15.6,2.14-1,3.46-1.66,6.25,1.66S177.68,145.31,177.4,146.14Z"/><line class="cls-22" x1="188.52" y1="121.3" x2="172.06" y2="123.2"/><line class="cls-22" x1="178.9" y1="113.4" x2="160.58" y2="115.5"/><polyline class="cls-22" points="157.97 115.8 153.1 116.36 153.1 116.36"/><line class="cls-22" x1="193.46" y1="131.33" x2="177.07" y2="133.22"/><line class="cls-22" x1="197.52" y1="141.31" x2="181.19" y2="143.19"/><line class="cls-22" x1="200.64" y1="151.67" x2="184.5" y2="153.52"/><path class="cls-23" d="M207.57,121.22c-2.2,2.8-6.28,4.53-9.1,3.85l-.2-.06-20-8.65a1.61,1.61,0,0,1-1-.88h0l-2.46-5.2,3-.33,1.34.75c.1-.15-.73,1.16-.61,1,.72-.92.17-.27,1.29-1a4.63,4.63,0,0,1,3.26-.83l17.54,3.6h0l5.5-2,2.33,4.62.18.36,0,.06C209.25,117.81,208.88,119.54,207.57,121.22Z"/><path class="cls-23" d="M208.72,116.46l-.18-.36A2,2,0,0,1,208.72,116.46Z"/><path class="cls-24" d="M205.07,116.33c-2.2,2.8-6.28,4.53-9.09,3.85l-.21-.06-19.94-8.65a1.56,1.56,0,0,1-1.08-1.93,8.41,8.41,0,0,1,2.66-3.72,4.63,4.63,0,0,1,3.26-.83l23.22,4.76.22,0C206.83,110.6,207.26,113.53,205.07,116.33Z"/><ellipse class="cls-25" cx="199.34" cy="114.9" rx="3.93" ry="2.69" transform="translate(-23.13 56.2) rotate(-15.18)"/><polygon class="cls-26" points="207.31 109.07 206.57 111.03 200.11 105.01 200.85 103.05 207.31 109.07"/><polygon points="207.32 109.75 206.58 111.71 200.13 105.69 200.87 103.72 207.32 109.75"/><polygon points="192.31 104.59 191.57 106.55 190.98 102.25 191.72 100.29 192.31 104.59"/><polygon points="192.44 104.66 191.7 106.62 191.57 106.55 192.31 104.59 192.44 104.66"/><g class="cls-12"><g class="cls-27"><g class="cls-12"><path d="M196,108.34l-.74,2a1,1,0,0,0,.06-.43,1.54,1.54,0,0,0-.52-1,16.47,16.47,0,0,0-1.53-1.24c-.56-.4-1.07-.74-1.53-1l.74-2c.46.27,1,.61,1.53,1a16.47,16.47,0,0,1,1.53,1.24,1.51,1.51,0,0,1,.52,1,1,1,0,0,1-.06.44"/></g></g></g><path class="cls-28" d="M200.93,95.13l11,10.27-4.62,3.67-6.46-6-1,.83.89.83a10.36,10.36,0,0,1,2,2.57,7.88,7.88,0,0,1,.92,2.8,5.74,5.74,0,0,1-.3,2.67,4.9,4.9,0,0,1-1.65,2.22,7.17,7.17,0,0,1-2.21,1.15,7.9,7.9,0,0,1-2.82.39h-.16a10.54,10.54,0,0,1-3.55-.88,13.44,13.44,0,0,1-3.88-2.64,29.59,29.59,0,0,1-2.27-2.36c-.7-.82-1.33-1.61-1.86-2.35a21.54,21.54,0,0,1-1.31-2c-.25-.46-.44-.84-.56-1.12l6-1.51a10.27,10.27,0,0,0,.73,1.17c.35.51.74,1,1.16,1.54s.83,1,1.23,1.44.77.82,1.06,1.09a2.23,2.23,0,0,0,1.45.63h.08a1.92,1.92,0,0,0,1.28-.4,1.35,1.35,0,0,0,.53-1.2,2,2,0,0,0-.69-1.33,16.48,16.48,0,0,0-1.59-1.29c-.52-.37-1-.7-1.46-1l-.52-3.79Z"/><path d="M196.53,117l-.74,2A10.93,10.93,0,0,1,192,118a14,14,0,0,1-4.07-2.76,32.84,32.84,0,0,1-2.32-2.41c-.71-.83-1.35-1.63-1.89-2.39a21.26,21.26,0,0,1-1.34-2.06,9.78,9.78,0,0,1-.68-1.41l.74-2a9.3,9.3,0,0,0,.68,1.42,21.26,21.26,0,0,0,1.34,2.06c.54.75,1.18,1.56,1.89,2.39s1.5,1.64,2.32,2.41a14.24,14.24,0,0,0,4.07,2.76,11.4,11.4,0,0,0,3.78.93"/><path d="M207.32,109.75l-6.45-6-.28.23.49.46a10.61,10.61,0,0,1,2.12,2.71,8.44,8.44,0,0,1,1,3,6.11,6.11,0,0,1-.32,2.85,5.44,5.44,0,0,1-1.78,2.41,8.11,8.11,0,0,1-2.35,1.23,8.8,8.8,0,0,1-3,.41h-.18a11.4,11.4,0,0,1-3.78-.93,14.24,14.24,0,0,1-4.07-2.76c-.82-.77-1.6-1.59-2.32-2.41s-1.35-1.64-1.89-2.39a21.26,21.26,0,0,1-1.34-2.06,9.3,9.3,0,0,1-.68-1.42l-.07-.21,7-1.75.11.23a11.08,11.08,0,0,0,.8,1.32c.35.5.73,1,1.14,1.51s.81,1,1.21,1.42.74.79,1,1a1.61,1.61,0,0,0,1,.45,1.39,1.39,0,0,0,1-.28,1,1,0,0,0,.38-.86,1.51,1.51,0,0,0-.52-1,16.47,16.47,0,0,0-1.53-1.24c-.56-.4-1.07-.74-1.53-1l-.13-.07-.59-4.3.11-.07L201,94.49l11.76,11Zm-6.62-5-.89-.83,1-.83,6.46,6,4.62-3.67-11-10.27-8.62,5.42.52,3.79c.44.27.94.6,1.46,1a16.48,16.48,0,0,1,1.59,1.29,2,2,0,0,1,.69,1.33,1.35,1.35,0,0,1-.53,1.2,1.92,1.92,0,0,1-1.28.4h-.08a2.23,2.23,0,0,1-1.45-.63c-.29-.27-.65-.64-1.06-1.09s-.82-.93-1.23-1.44-.81-1-1.16-1.54a10.27,10.27,0,0,1-.73-1.17l-6,1.51c.12.28.31.66.56,1.12a21.54,21.54,0,0,0,1.31,2c.53.74,1.16,1.53,1.86,2.35a29.59,29.59,0,0,0,2.27,2.36,13.44,13.44,0,0,0,3.88,2.64,10.54,10.54,0,0,0,3.55.88h.16a7.9,7.9,0,0,0,2.82-.39,7.17,7.17,0,0,0,2.21-1.15,4.9,4.9,0,0,0,1.65-2.22,5.74,5.74,0,0,0,.3-2.67,7.88,7.88,0,0,0-.92-2.8,10.36,10.36,0,0,0-2-2.57"/><path class="cls-29" d="M211.44,106.53a12.07,12.07,0,0,1-.15,1.26c-.15,1-.37,2.11-.57,3a17.79,17.79,0,0,1-.63,2.25c-.56,1.45-1.68,4.1-2.09,5-.07.17-.12.21-.14.15v0l-2.42-.63,3.6-12,2.42.64v0h0A.57.57,0,0,1,211.44,106.53Z"/><path class="cls-30" d="M208.88,107.16c-.15,1-.38,2.1-.57,3a18,18,0,0,1-.63,2.26c-.56,1.44-1.68,4.09-2.09,5-.16.35-.2.18-.11-.41V117c0-.18.06-.39.1-.62a20.14,20.14,0,0,1,.58-2.39c.7-2.26,2-6.18,2.59-7.8.19-.52.3-.62.27-.25S209,106.68,208.88,107.16Z"/><g class="cls-12"><path class="cls-31" d="M204.36,109.86l-.25-.24A.53.53,0,0,1,204.36,109.86Z"/></g><g class="cls-12"><path class="cls-29" d="M198,121.52a2.44,2.44,0,0,1-.52.06c-.89,0-2.49,0-4.08-.1l-1.87,2.39L189.16,121v0l0,0a.65.65,0,0,1,.13-.69,10.81,10.81,0,0,1,3.6-3l.16-.09a3.13,3.13,0,0,1,2-.41,21.9,21.9,0,0,1,5.63,2.28h0l.1.09h0a16.27,16.27,0,0,1,2.28,3.07C203.13,122.63,199.92,121.8,198,121.52Z"/><path class="cls-14" d="M200.72,119.11l-.1-.09Z"/><path class="cls-32" d="M202.46,123.16c.62-.49.79-1,.42-1.27a21.9,21.9,0,0,0-5.63-2.28,3.14,3.14,0,0,0-2,.41l-.16.09a10.64,10.64,0,0,0-3.59,3c-.37.5-.19.91.43,1,1.84.21,6.07.36,7.75.34a3.9,3.9,0,0,0,1.67-.48,5,5,0,0,0,.51-.34l.58-.47"/><path class="cls-30" d="M195.11,120.11l.16-.09a3.14,3.14,0,0,1,2-.41,21.9,21.9,0,0,1,5.63,2.28c.37.26.2.78-.42,1.27l-.58.47a5,5,0,0,1-.51.34,3.9,3.9,0,0,1-1.67.48c-1.68,0-5.91-.13-7.75-.34-.62-.07-.8-.48-.44-1A10.81,10.81,0,0,1,195.11,120.11Z"/></g><g class="cls-12"><path class="cls-29" d="M205.07,113.07a18.62,18.62,0,0,1,.22,3.26,2.7,2.7,0,0,1-1.24,1.81l-.66.45-.07,0c-.65.42-1.33.5-1.66.19a30.15,30.15,0,0,1-3.5-4.32c-.25-.42,0-1.15.59-1.77a14.29,14.29,0,0,1,2.64-2.21,9.48,9.48,0,0,1,1.71-.87,1.23,1.23,0,0,1,1,0l.25.24h0a9.72,9.72,0,0,1,1.82,2.26C206.38,112.59,205.73,112.89,205.07,113.07Z"/><path class="cls-30" d="M203.35,113a9.48,9.48,0,0,1,1.71-.87c.64-.24,1.15-.12,1.3.31a22,22,0,0,1,.89,6.37,2.7,2.7,0,0,1-1.24,1.81l-.66.45-.07,0c-.66.42-1.33.5-1.66.19a30.15,30.15,0,0,1-3.5-4.32c-.25-.42,0-1.15.58-1.77A15.16,15.16,0,0,1,203.35,113Z"/></g><path class="cls-33" d="M183.48,106.55s-20.54-9.41-29.72-10.86c0,0-24.65-.9-45.84.84,2.54,1.83,24.19,10.36,27.24,10.91S175.35,107.88,183.48,106.55Z"/><path class="cls-34" d="M141.81,105.05s-8.37-4.73-9.21-5S148.48,99,148.48,99s8.13,4.45,8.68,5S141.81,105.05,141.81,105.05Z"/><path class="cls-35" d="M107.66,96.49s-1.36,35.12,1.41,44c2.66,2.17,20.88,10,26.66,9.94.58-4,.82-40.09-.83-43C132.72,105.75,116.51,98.84,107.66,96.49Z"/><path class="cls-20" d="M183.48,106.55s1,17.92.55,31.09c-.16,5.08-5,10.09-5.77,10.29-1.83,1.73-45.2,4.28-47.75,2.61A14.09,14.09,0,0,0,135,139.75c-.22-8.74.11-21.78-.1-32.35C136.47,106.55,175.84,105.54,183.48,106.55Z"/><path class="cls-36" d="M140.61,87v13.23l11.59.13c1.93,0,3.51-3,3.51-6.61s-1.56-6.62-3.5-6.62a2.45,2.45,0,0,0-1.79.91Z"/><path class="cls-37" d="M191.62,84.85s-4.08,3-11.67,4a51.42,51.42,0,0,1-12-.51c-13.85-1.79-20-9-20-9s.92-9.53,1.11-12.73,4.54-9.42,4.54-9.42Z"/><path class="cls-37" d="M103.58,85.2s2.64,4.72,11.49,4.34,21.74-3.8,21.74-3.8L144.89,75Z"/><path class="cls-20" d="M152,59.16h-4.51L147.62,74H152S151.36,64.18,152,59.16Z"/><polygon class="cls-38" points="152.03 73.97 149.13 77.9 145.99 77.9 147.62 73.97 152.03 73.97"/><polygon class="cls-39" points="155.47 73.97 143.4 73.96 144.15 95.23 155.6 94.98 155.47 73.97"/><path class="cls-40" d="M152,73.84l.32,2.55a.44.44,0,0,0,.17.3l3.1,2.3a.44.44,0,0,0,.7-.29l.1-.71a.46.46,0,0,0-.12-.37l-3.52-4.13A.44.44,0,0,0,152,73.84Z"/><polygon class="cls-41" points="136.81 85.74 137.95 90.54 144.15 95.23 143.4 73.96 136.81 85.74"/><path class="cls-37" d="M147.47,74.34s-.2,2.44-.71,2.83a69.12,69.12,0,0,1-8,3.4c-.8.1-.64-1.74-.64-1.74Z"/><path class="cls-42" d="M147.47,74.34s-.25,3-.92,3c-.79.39-6.72,3-6.72,3"/><path class="cls-43" d="M107.78,85.52c-.63,0-1.21,0-1.71-.08l-.36,0a1.57,1.57,0,0,1-1-.57l-.11-.15,0-.07a1.43,1.43,0,0,1-.18-.5l0-.22c-.16-1-.41-2.57-.62-4.49,0,0-.1-1-.1-1h0c0-.38-.07-.76-.1-1.16-.13-1.69-.21-3.35-.22-5a52.07,52.07,0,0,1,.23-5.57v0a35,35,0,0,1,1.08-5.89,1.59,1.59,0,0,1,1.23-1.14l.25,0c2.23-.42,4.6-.8,7.05-1.14a169,169,0,0,1,22.65-1.63c1.16,0,2.33,0,3.52,0,1.86.05,3.72.14,5.53.27a1.58,1.58,0,0,1,1.32.9,1.61,1.61,0,0,1,.13.49c0,.26.06.47.08.7A89.8,89.8,0,0,1,146.73,70c0,1.57-.13,2.9-.25,3.87,0,.37-.1.69-.16.94l-.2.18a15.46,15.46,0,0,1-3.06,1.67l-.95.41c-.58.25-1.21.5-1.87.76s-1.63.62-2.51.94c-7.39,2.64-18.92,5.84-26.8,6.62l-.11,0C109.7,85.46,108.67,85.52,107.78,85.52Z"/><path class="cls-44" d="M135.81,58h0c1.16,0,2.34,0,3.48,0,1.84,0,3.68.13,5.48.26a.41.41,0,0,1,.35.24.31.31,0,0,1,0,.13c0,.22.06.45.08.69a91.65,91.65,0,0,1,.35,10.53c0,1.48-.13,2.75-.24,3.67,0,0,0,.06,0,.09s-.05.33-.07.46a16.41,16.41,0,0,1-2.67,1.41l-.94.41c-.57.24-1.18.49-1.83.74s-1.64.63-2.48.93C130,80.25,118.6,83.42,110.8,84.2h-.07c-1.1.11-2.1.16-3,.16a14.92,14.92,0,0,1-1.58-.07l-.32,0a.37.37,0,0,1-.25-.15l0,0,0,0a.34.34,0,0,1,0-.14l0-.16c-.17-1-.41-2.54-.62-4.44q0-.45-.09-.93h0v0c0-.37-.07-.75-.1-1.14-.14-1.67-.21-3.3-.23-4.87a52,52,0,0,1,.23-5.43v0a32.65,32.65,0,0,1,1-5.69.45.45,0,0,1,.33-.32l.11,0,.16,0c2.16-.41,4.58-.8,7-1.13A167,167,0,0,1,135.81,58m0-2.32A168.28,168.28,0,0,0,113,57.35c-3.1.44-5.55.86-7.09,1.15l-.26,0a2.75,2.75,0,0,0-2.13,2,34.82,34.82,0,0,0-1.12,6.09h0a52.48,52.48,0,0,0-.24,5.7c0,1.77.1,3.47.23,5,0,.4.07.79.1,1.17a.08.08,0,0,0,0,0l.09.94c.21,1.88.45,3.46.64,4.59l0,.2a2.78,2.78,0,0,0,.33.9h0s0,0,0,0l0,.07.09.13a.86.86,0,0,0,.07.1,2.71,2.71,0,0,0,1.72,1l.41.06a17,17,0,0,0,1.83.09c1,0,2-.06,3.17-.17h.1c7.7-.77,19.09-3.83,27.07-6.69.89-.32,1.74-.64,2.54-1s1.31-.52,1.9-.77l1-.43a16.85,16.85,0,0,0,3.31-1.82,1.92,1.92,0,0,0,.51-.55h0a.35.35,0,0,0,0-.13,10.76,10.76,0,0,0,.21-1.18h0c.13-1,.22-2.44.26-4a93.57,93.57,0,0,0-.36-10.82c0-.25-.05-.49-.08-.73a2.63,2.63,0,0,0-.24-.84A2.74,2.74,0,0,0,144.93,56c-1.87-.13-3.74-.22-5.58-.26-1.2,0-2.38,0-3.54,0Z"/><polygon class="cls-45" points="154.7 98.36 154.16 103.96 141.79 104.18 142.93 98.56 154.7 98.36"/><polygon class="cls-41" points="137.27 95.7 134.08 100.03 141.79 104.18 142.93 98.56 137.27 95.7"/><ellipse class="cls-46" cx="140.6" cy="93.61" rx="3.51" ry="6.62"/><path class="cls-47" d="M152.11,73.6s.12,2.9.39,3.09l3.1,2.3"/><path class="cls-43" d="M187.72,84.57c-11,0-31.81-7.23-33.51-9.57-.61-2.53-.68-11.07-.12-16.2a1.51,1.51,0,0,1,1.38-1.35c4.15-.33,8.28-.49,12.28-.49a123.71,123.71,0,0,1,22,1.87,1.52,1.52,0,0,1,1.2,1.09c2.46,8.36,1.12,19,.43,23.23a1.52,1.52,0,0,1-1.26,1.26,15.37,15.37,0,0,1-2.4.16Z"/><path class="cls-44" d="M167.75,58.17A122.29,122.29,0,0,1,189.54,60a.35.35,0,0,1,.25.24c2.38,8.12,1.07,18.58.39,22.7a.3.3,0,0,1-.25.25,14.12,14.12,0,0,1-2.21.15c-10.38,0-29.56-6.69-32.4-9a75,75,0,0,1,0-15.43.33.33,0,0,1,.28-.28c4.12-.32,8.21-.49,12.18-.49m0-2.43c-3.75,0-7.88.15-12.37.5a2.74,2.74,0,0,0-2.5,2.43c-.57,5.22-.52,14,.18,16.72s23.45,10.4,34.66,10.4a16.89,16.89,0,0,0,2.59-.18,2.74,2.74,0,0,0,2.27-2.26c.67-4.1,2.08-15.12-.46-23.77A2.76,2.76,0,0,0,190,57.63a122.69,122.69,0,0,0-22.22-1.89Z"/><path class="cls-14" d="M132.47,77.52c-4.52,0-8.28-4-8.36-8.93s3.58-9.14,8.18-9.22h.14c4.53,0,8.28,4,8.37,8.93a9.44,9.44,0,0,1-2.36,6.48,7.9,7.9,0,0,1-5.83,2.73Z"/><path class="cls-48" d="M132.43,60.36c4,0,7.31,3.57,7.38,8a8.48,8.48,0,0,1-2.1,5.82,7,7,0,0,1-5.12,2.4h-.12c-4,0-7.3-3.57-7.38-8s3.16-8.14,7.22-8.21h.12m0-2h-.15c-5.16.09-9.25,4.67-9.16,10.22s4.27,9.89,9.35,9.89h.16c5.15-.09,9.25-4.67,9.15-10.22s-4.27-9.89-9.35-9.89Z"/><path class="cls-14" d="M167.84,77.28c-4.53,0-8.28-4-8.37-8.92a9.37,9.37,0,0,1,2.36-6.48,8,8,0,0,1,5.83-2.74h.13c4.53,0,8.28,4,8.37,8.93s-3.58,9.13-8.19,9.21Z"/><path class="cls-48" d="M167.79,60.12c4,0,7.31,3.57,7.39,8S172,76.23,168,76.3h-.12c-4,0-7.31-3.57-7.39-8s3.16-8.14,7.22-8.21h.12m0-2h-.15c-5.15.09-9.25,4.66-9.15,10.22s4.27,9.89,9.35,9.89H168c5.15-.09,9.25-4.67,9.15-10.22s-4.26-9.89-9.35-9.89Z"/><ellipse class="cls-49" cx="140.34" cy="93.98" rx="1.53" ry="3.3" transform="matrix(1, -0.02, 0.02, 1, -1.63, 2.48)"/><path class="cls-50" d="M155.54,96c5.21.67,27.94,10.56,27.94,10.56s1.37,29.25.55,31.09c-.33,2.14-.32,4.81-5,9.78-1.56.84-2.15,2.93-34.16,3.6"/><path class="cls-50" d="M137.22,95.4s-28.39.53-29.56,1.09c0,0-.54,24.36-.26,25.8"/><ellipse class="cls-51" cx="167.75" cy="64.24" rx="3.48" ry="4.14" transform="translate(-1.1 2.96) rotate(-1.01)"/><ellipse class="cls-51" cx="132.56" cy="64.08" rx="3.48" ry="4.14" transform="translate(-1.11 2.34) rotate(-1.01)"/><path class="cls-52" d="M145.61,117.79l28-1.15a2.08,2.08,0,0,1,2.17,2.12l-.26,16.6a2.09,2.09,0,0,1-2,2l-28,1.15a2.09,2.09,0,0,1-2.17-2.12l.29-16.61A2.08,2.08,0,0,1,145.61,117.79Z"/><path class="cls-53" d="M145.17,118.6l28-1.2a1.61,1.61,0,0,1,1.69,1.64l-.25,16.69a1.64,1.64,0,0,1-1.55,1.6l-28,1.24a1.62,1.62,0,0,1-1.69-1.64l.25-16.73A1.64,1.64,0,0,1,145.17,118.6Z"/><path class="cls-54" d="M163.36,126.25l-17.25.59a1,1,0,0,1-1.06-1l.11-4.91a1,1,0,0,1,1-1.06l17.24-.59a1,1,0,0,1,1.07,1l-.12,4.91A1,1,0,0,1,163.36,126.25Z"/><ellipse class="cls-55" cx="149.02" cy="123.28" rx="2.02" ry="2.52" transform="translate(-1.08 1.32) rotate(-0.51)"/><ellipse class="cls-56" cx="155.1" cy="123.02" rx="2.02" ry="2.52" transform="matrix(1, -0.01, 0.01, 1, -1.08, 1.37)"/><ellipse class="cls-57" cx="161.06" cy="122.95" rx="2.02" ry="2.52" transform="translate(-1.08 1.43) rotate(-0.51)"/><path class="cls-58" d="M160,130.57l-13.58.53a1.09,1.09,0,0,1-1.1-1.07h0a1.08,1.08,0,0,1,1.06-1.1l13.57-.52a1.08,1.08,0,0,1,1.11,1.06h0A1.08,1.08,0,0,1,160,130.57Z"/><path class="cls-59" d="M152.31,137.41l-6,.2a1.09,1.09,0,0,1-1.1-1.06h0a1.08,1.08,0,0,1,1.06-1.11l6-.19a1.08,1.08,0,0,1,1.1,1.06h0A1.08,1.08,0,0,1,152.31,137.41Z"/><path class="cls-59" d="M152.36,134.37l-6,.2a1.1,1.1,0,0,1-1.11-1.06h0a1.09,1.09,0,0,1,1.06-1.11l6-.19a1.08,1.08,0,0,1,1.11,1.06h0A1.08,1.08,0,0,1,152.36,134.37Z"/><polygon class="cls-60" points="166.38 119.31 174.63 118.9 174.36 135.86 166.03 136.17 166.38 119.31"/><ellipse class="cls-61" cx="173.22" cy="120.86" rx="1.04" ry="0.9" transform="translate(49.7 292.19) rotate(-89.12)"/><path class="cls-62" d="M173.24,119.81a3.16,3.16,0,0,1-.09,2.09"/><path class="cls-62" d="M172.32,120.84a3.76,3.76,0,0,0,1.8,0"/><ellipse class="cls-63" cx="167.3" cy="134.71" rx="1.04" ry="0.9" transform="translate(30.03 299.91) rotate(-89.12)"/><path class="cls-62" d="M167.32,133.66a3.16,3.16,0,0,1-.09,2.09"/><path class="cls-62" d="M166.4,134.69a3.76,3.76,0,0,0,1.8,0"/><ellipse class="cls-64" cx="173.17" cy="134.45" rx="1.04" ry="0.9" transform="translate(36.06 305.53) rotate(-89.12)"/><path class="cls-62" d="M173.19,133.41a3.13,3.13,0,0,1-.09,2.08"/><path class="cls-62" d="M172.27,134.44a3.9,3.9,0,0,0,1.8,0"/><ellipse class="cls-65" cx="168.11" cy="121.02" rx="1.04" ry="0.9" transform="translate(44.51 287.24) rotate(-89.12)"/><path class="cls-62" d="M168.13,120a3.23,3.23,0,0,1-.09,2.09"/><path class="cls-62" d="M167.21,121a3.76,3.76,0,0,0,1.8,0"/><path class="cls-66" d="M145.28,130a8.28,8.28,0,0,1,4.54.07c2.19.78,2.32-1.19,3.34-1.14s1.23,1.53,2.62,1.4.94-.66,1.59-.65.65.7,1.27.63.91-2,1.27-1.93"/><path class="cls-17" d="M147,157.81a14.69,14.69,0,0,0-.6-2.37c-1.11-3.23-4.55-13-7.53-18.84-1.76-3.44-2.83-5.8-3.75-7.56a15.08,15.08,0,0,0-4.4-5.16,14.9,14.9,0,0,0-13.28-3c-7.13,1.27-11,1.57-12.36,2.07-1.35,1-7,7.48-7.21,12.77-.14,3.81.37,9,3.2,13s14.39,23.13,19.12,23.35c5.52.25,19.61-1.08,23.61-4.23C147.38,165,147.61,161.57,147,157.81Z"/><path class="cls-18" d="M122.06,171.37a32,32,0,0,1-7.69-1.34l-1-.25c-4.23-1.08-22.53-14.3-25.43-18.37-2.76-3.87-3.19-8.92-3.06-12.47.16-4.71,5-8.29,6.61-9.46l.51-.38a26,26,0,0,1,9.55-4.82,14.61,14.61,0,0,1,3.6-.45,13.8,13.8,0,0,1,4.48.74,16.08,16.08,0,0,1,4.53,2.55,14.44,14.44,0,0,1,4.17,4.89c.41.79.85,1.69,1.37,2.76.64,1.33,1.4,2.9,2.37,4.79,3,5.86,6.49,15.82,7.49,18.74a13.64,13.64,0,0,1,.57,2.24c.61,3.71.35,6.7-2.91,9.26a8,8,0,0,1-5.18,1.57Z"/><path d="M105.17,124.62a12.8,12.8,0,0,1,4.22.71,15,15,0,0,1,4.31,2.43,13.6,13.6,0,0,1,3.94,4.62c.4.77.84,1.68,1.36,2.74.62,1.29,1.4,2.9,2.38,4.81,3,5.79,6.45,15.72,7.44,18.63a12.12,12.12,0,0,1,.54,2.11c.56,3.43.34,6.18-2.61,8.51a7.32,7.32,0,0,1-4.69,1.4,31.34,31.34,0,0,1-7.49-1.32l-1-.26c-4-1-22.23-14.18-25-18.05-2.63-3.69-3-8.55-2.91-12,.1-2.87,2.22-5.85,6.29-8.85l.18-.13.34-.26a25.3,25.3,0,0,1,9.27-4.67,13.56,13.56,0,0,1,3.4-.44m0-1.59a15.28,15.28,0,0,0-3.8.48,27.35,27.35,0,0,0-10.16,5.2c-1.35,1-6.92,4.91-7.11,10.2-.14,3.82.37,9,3.21,13s21.3,17.5,25.89,18.67a37.22,37.22,0,0,0,8.86,1.62,8.91,8.91,0,0,0,5.68-1.74c3.59-2.83,3.81-6.25,3.2-10a14.72,14.72,0,0,0-.61-2.37c-1.11-3.23-4.55-13-7.53-18.84-1.76-3.44-2.83-5.8-3.74-7.55a15.16,15.16,0,0,0-4.41-5.17,16.87,16.87,0,0,0-4.74-2.66,14.55,14.55,0,0,0-4.74-.79Z"/><ellipse class="cls-19" cx="97.27" cy="141.61" rx="8.49" ry="10.62" transform="translate(-4.54 3.23) rotate(-1.86)"/><ellipse class="cls-19" cx="108.57" cy="156.35" rx="6.08" ry="7.61" transform="matrix(1, -0.03, 0.03, 1, -5.02, 3.61)"/><ellipse class="cls-19" cx="120.87" cy="161.94" rx="4.78" ry="5.99" transform="matrix(1, -0.03, 0.03, 1, -5.19, 4.01)"/><ellipse class="cls-20" cx="96.73" cy="141.62" rx="2.89" ry="3.97" transform="translate(-4.54 3.21) rotate(-1.86)"/><ellipse class="cls-20" cx="108.31" cy="156.67" rx="3.43" ry="2.49" transform="translate(-67.58 229.73) rotate(-77.9)"/><ellipse class="cls-20" cx="120.88" cy="162.35" rx="2.54" ry="1.85" transform="translate(-63.2 246.52) rotate(-77.9)"/><path class="cls-21" d="M124,153.8s-1.4-2.69-5.52-1.27c-.78-1.74-2.43-6.48-9.77-5.8.33-1.64,3.1-8.76-2.5-15.6,2.14-1,3.46-1.66,6.26,1.66S124.23,153,124,153.8Z"/><line class="cls-22" x1="135.07" y1="128.96" x2="118.62" y2="130.86"/><line class="cls-22" x1="125.45" y1="121.05" x2="107.13" y2="123.16"/><polyline class="cls-22" points="104.52 123.46 99.66 124.02 99.66 124.02"/><line class="cls-22" x1="140.01" y1="138.99" x2="123.62" y2="140.88"/><line class="cls-22" x1="144.07" y1="148.97" x2="127.74" y2="150.85"/><line class="cls-22" x1="147.19" y1="159.33" x2="131.05" y2="161.18"/><ellipse class="cls-67" cx="173.64" cy="104.3" rx="0.85" ry="2.78" transform="translate(40.24 256.72) rotate(-79.8)"/><path class="cls-68" d="M140.18,26.22s-1.35,23.39.45,27.48l-3,.21s-1.27-24.47-.22-26.48Z"/><path class="cls-69" d="M137.36,53.91l3.24-.2a.9.9,0,0,1,.93.68L142.9,60a.9.9,0,0,1-.82,1.12l-5.42.27a.9.9,0,0,1-.94-1l.81-5.68A.9.9,0,0,1,137.36,53.91Z"/><g class="cls-12"><path class="cls-29" d="M101.83,122.8c0,.17-.07.35-.12.57-.12.59-.65.71-1.28.28A74.64,74.64,0,0,1,93,117.32a4,4,0,0,1-1.08-2.07,5.51,5.51,0,0,1,0-1.92,3.08,3.08,0,0,1,.88-1.7,1.19,1.19,0,0,1,.76-.06l1.48.24.12,1.17H95c1.88,2.22,4.88,6,6.07,7.6A3.23,3.23,0,0,1,101.83,122.8Z"/><path class="cls-30" d="M93.69,113.65a5.77,5.77,0,0,0,0,1.92,3.9,3.9,0,0,0,1.08,2.06,73.44,73.44,0,0,0,7.46,6.34c.63.43,1.16.31,1.28-.28.05-.22.09-.4.12-.57a3.22,3.22,0,0,0-.72-2.23c-1.35-1.8-5-6.35-6.72-8.35-.59-.68-1.25-.92-1.6-.59A3.08,3.08,0,0,0,93.69,113.65Z"/></g><path class="cls-23" d="M100.84,128.86c3,1.85,7.47,2,9.87.4l.16-.13L126.48,114a1.59,1.59,0,0,0,.64-1.18h0l.47-5.74-3,.77-1,1.18c-.15-.11,1.09.82.93.73-1-.61-.25-.2-1.56-.5a4.62,4.62,0,0,0-3.34.38l-15.14,9.55h0l-5.85.08-.55,5.14,0,.4s0,.05,0,.07C98.06,126.27,99,127.76,100.84,128.86Z"/><path class="cls-23" d="M98.08,124.82l0-.4A2.58,2.58,0,0,0,98.08,124.82Z"/><path class="cls-24" d="M101.45,123.41c3,1.85,7.47,2,9.87.39l.16-.13,15.62-15.13a1.55,1.55,0,0,0,.32-2.18,8.4,8.4,0,0,0-3.8-2.54,4.67,4.67,0,0,0-3.34.37l-20,12.65a1,1,0,0,0-.19.12C97.78,118.67,98.41,121.56,101.45,123.41Z"/><g class="cls-12"><ellipse class="cls-25" cx="106.31" cy="120.05" rx="3.93" ry="2.69" transform="translate(-10.98 10.71) rotate(-5.48)"/></g><path class="cls-29" d="M92.09,116.59c.16.31.39.68.65,1.09.53.82,1.2,1.77,1.76,2.53A17.39,17.39,0,0,0,96,122c1.1,1.09,3.19,3,3.93,3.71.14.13.21.15.2.08l0,0,2-1.56-8.15-9.45L92,116.38l0,0h0A.53.53,0,0,0,92.09,116.59Z"/><path class="cls-30" d="M94.65,116.17c.48.85,1.09,1.84,1.6,2.63a18.1,18.1,0,0,0,1.38,1.89c1,1.15,3,3.23,3.72,3.93.27.28.25.1,0-.42l0-.06-.31-.55a20.77,20.77,0,0,0-1.38-2c-1.46-1.87-4.07-5.08-5.18-6.39-.36-.42-.49-.48-.34-.14A12.71,12.71,0,0,0,94.65,116.17Z"/><g class="cls-12"><path class="cls-29" d="M100.26,120.58a19.12,19.12,0,0,0,1,3.09,2.71,2.71,0,0,0,1.85,1.19l.78.16.08,0c.77.13,1.42-.06,1.61-.47a29.7,29.7,0,0,0,1.56-5.34c.06-.48-.44-1.06-1.23-1.4a14.06,14.06,0,0,0-3.29-1,8.69,8.69,0,0,0-1.91-.14,1.22,1.22,0,0,0-.94.35s-.06.13-.14.33h0a9.47,9.47,0,0,0-.81,2.78C98.87,120.64,99.58,120.67,100.26,120.58Z"/><path class="cls-30" d="M101.86,119.63a9.31,9.31,0,0,0-1.91-.21c-.68,0-1.11.3-1.1.76a22.2,22.2,0,0,0,1.41,6.26,2.73,2.73,0,0,0,1.8,1.26l.78.19h.08c.76.16,1.42,0,1.62-.41a28.93,28.93,0,0,0,1.75-5.28c.08-.47-.4-1.07-1.17-1.44A14.33,14.33,0,0,0,101.86,119.63Z"/></g><g class="cls-12"><path class="cls-29" d="M109.87,125.74a3.81,3.81,0,0,0,.51-.12c.84-.29,2.34-.86,3.81-1.45l2.56,1.64,1.25-3.49h0v0c0-.2-.08-.41-.36-.6a10.54,10.54,0,0,0-4.39-1.66l-.18,0a3.17,3.17,0,0,0-2,.27,22,22,0,0,0-4.55,4h0a.59.59,0,0,0-.06.12h0a16,16,0,0,0-1.13,3.66C105.36,128.5,108.12,126.65,109.87,125.74Z"/><path class="cls-30" d="M112.1,123.43l-.18,0a3.24,3.24,0,0,0-2,.32,21.61,21.61,0,0,0-4.46,4.12c-.26.37.09.8.84,1l.71.22a3.82,3.82,0,0,0,2.33,0c1.58-.58,5.48-2.21,7.13-3.05.56-.29.58-.73.06-1.07A10.72,10.72,0,0,0,112.1,123.43Z"/></g><g class="cls-12"><polygon points="135.07 19.5 134.33 21.46 134.07 21.5 134.81 19.53 135.07 19.5"/><g class="cls-12"><g class="cls-70"><g class="cls-12"><path d="M134.81,19.53l-.74,2c-.4.06-.83.13-1.26.22s-.85.2-1.24.31-.76.25-1.09.37-.61.25-.83.36l.74-2c.22-.1.49-.22.83-.35s.7-.25,1.09-.37.81-.22,1.24-.31.86-.17,1.26-.23"/></g></g></g><g class="cls-12"><g class="cls-71"><g class="cls-12"><path d="M130.39,20.79l-.74,2a4.62,4.62,0,0,0-1.37,1,4.37,4.37,0,0,0-.75,1.07c0,.09-.08.18-.12.27l.74-2a2.86,2.86,0,0,1,.12-.27,4.16,4.16,0,0,1,.75-1.06,4.83,4.83,0,0,1,1.37-1"/></g></g></g><polygon points="135.17 26.75 134.43 28.71 134.4 28.71 135.14 26.75 135.17 26.75"/><g class="cls-12"><g class="cls-72"><g class="cls-12"><path d="M144,30l-.74,2a5,5,0,0,0-.07-2.77,9.63,9.63,0,0,0-1.93-3.27,10.49,10.49,0,0,0-3-2.55,6.93,6.93,0,0,0-2.9-.86H135l.74-2h.43a6.93,6.93,0,0,1,2.91.86A10.33,10.33,0,0,1,142,24a9.48,9.48,0,0,1,1.92,3.26A4.9,4.9,0,0,1,144,30"/><path d="M135.69,20.52l-.74,2a7.23,7.23,0,0,0-2.45.43,16.71,16.71,0,0,0-2.86,1.32,2.2,2.2,0,0,0-.58.55l-.69.83a7.37,7.37,0,0,1-.63.68.67.67,0,0,1-.46.22l.74-2a.71.71,0,0,0,.46-.21,9,9,0,0,0,.63-.68l.69-.83a2.2,2.2,0,0,1,.58-.55A16.76,16.76,0,0,1,133.24,21a7.75,7.75,0,0,1,2.45-.43"/><path d="M128,24.55l-.74,2h0l.74-2h0"/></g></g></g><g class="cls-12"><g class="cls-73"><g class="cls-12"><path class="cls-48" d="M137.26,28.79l-.74,2a1.14,1.14,0,0,0,0-.68,2.66,2.66,0,0,0-.53-.87,3.18,3.18,0,0,0-.8-.72,1.88,1.88,0,0,0-.77-.25h-.09l.74-2h.09a1.78,1.78,0,0,1,.77.25,3.11,3.11,0,0,1,.8.71,2.76,2.76,0,0,1,.53.87,1.17,1.17,0,0,1,0,.69"/></g></g></g><g class="cls-12"><g class="cls-74"><g class="cls-12"><path d="M136.72,28.6l-.74,2a.71.71,0,0,0,0-.43,2.22,2.22,0,0,0-.43-.68,2.65,2.65,0,0,0-.63-.58,1.18,1.18,0,0,0-.48-.16l.74-2a1.18,1.18,0,0,1,.48.16,2.77,2.77,0,0,1,.63.57,2.37,2.37,0,0,1,.43.69.71.71,0,0,1,0,.43"/></g></g></g><g class="cls-12"><g class="cls-75"><g class="cls-12"><polyline points="136.72 28.61 135.98 30.58 135.98 30.57 136.72 28.6 136.72 28.61"/></g></g></g><g class="cls-12"><g class="cls-76"><g class="cls-12"><path class="cls-48" d="M137.25,28.81l-.74,2v0l.74-2v0"/></g></g></g><g class="cls-12"><g class="cls-77"><g class="cls-12"><path d="M135.14,26.74l-.74,2h0l.74-2h0"/><path d="M135.11,26.74l-.74,2a1,1,0,0,0-.4.09l-.57.29c-.2.12-.38.24-.53.35a.67.67,0,0,0-.24.3l.74-2a.67.67,0,0,1,.24-.3,4.87,4.87,0,0,1,.53-.35l.57-.29a1.24,1.24,0,0,1,.4-.1"/></g></g></g><path d="M144.44,27.15a5.22,5.22,0,0,1,.07,3A6,6,0,0,1,143,32.71a13.17,13.17,0,0,1-2.8,2.12,13.59,13.59,0,0,1-4,1.61,9.3,9.3,0,0,1-2.16.2,9.44,9.44,0,0,1-1.9-.26,11.9,11.9,0,0,1-4.11-2,23.1,23.1,0,0,1-4.2-4,19.64,19.64,0,0,1-3.25-5.06,7.78,7.78,0,0,1-.62-4.1A6.16,6.16,0,0,1,121.55,18,15,15,0,0,1,125,15.34a18.49,18.49,0,0,1,2.62-1.29,17.64,17.64,0,0,1,2.2-.7,11,11,0,0,1,1.78-.27L132.9,13h.25l1.92,6.49-.26,0c-.4.06-.83.14-1.26.23s-.85.19-1.24.31-.76.24-1.09.37-.61.25-.83.35a4.83,4.83,0,0,0-1.37,1,4.16,4.16,0,0,0-.75,1.06,2.41,2.41,0,0,0-.26.89,1.19,1.19,0,0,0,0,.29,6.74,6.74,0,0,0,.63-.66l.68-.83a2.71,2.71,0,0,1,.7-.65A16.28,16.28,0,0,1,133,20.51a7.87,7.87,0,0,1,2.9-.46h.21a7.62,7.62,0,0,1,3.19.94,11.11,11.11,0,0,1,3.13,2.7A10.17,10.17,0,0,1,144.44,27.15ZM144,30a4.9,4.9,0,0,0-.08-2.78A9.48,9.48,0,0,0,142,24,10.33,10.33,0,0,0,139,21.4a6.93,6.93,0,0,0-2.91-.86h-.2a7.3,7.3,0,0,0-2.68.42,16.76,16.76,0,0,0-2.86,1.33,2.2,2.2,0,0,0-.58.55l-.69.83a9,9,0,0,1-.63.68.72.72,0,0,1-.48.21.54.54,0,0,1-.38-.19,1,1,0,0,1-.16-.73,2.7,2.7,0,0,1,.29-1,4.81,4.81,0,0,1,.82-1.17,5.33,5.33,0,0,1,1.51-1.08c.24-.11.52-.23.87-.36s.72-.27,1.12-.39.85-.23,1.29-.32.7-.14,1-.19l-1.66-5.59c-.31,0-.67,0-1.06.05a10,10,0,0,0-1.68.26,16.4,16.4,0,0,0-2.13.67,19.83,19.83,0,0,0-2.54,1.26A14.39,14.39,0,0,0,122,18.31a5.75,5.75,0,0,0-1.55,3.07,7.31,7.31,0,0,0,.59,3.87,18.89,18.89,0,0,0,3.17,4.92,22.48,22.48,0,0,0,4.08,3.9,11.2,11.2,0,0,0,3.87,1.85,9,9,0,0,0,1.77.24,8.64,8.64,0,0,0,2-.19,13.17,13.17,0,0,0,3.88-1.55,12.33,12.33,0,0,0,2.71-2.05A5.68,5.68,0,0,0,144,30"/><path d="M136.71,27.23a2.76,2.76,0,0,1,.53.87,1.17,1.17,0,0,1,0,.69,1.12,1.12,0,0,1-.41.52c-.18.13-.37.25-.57.37l-.62.32a1.56,1.56,0,0,1-.66.13h-.06a1.92,1.92,0,0,1-.77-.25,3.15,3.15,0,0,1-.8-.72,2.66,2.66,0,0,1-.53-.87,1.06,1.06,0,0,1,0-.68,1,1,0,0,1,.39-.51,5.29,5.29,0,0,1,.58-.38c.2-.11.4-.22.61-.31a1.65,1.65,0,0,1,.69-.15h0a1.78,1.78,0,0,1,.77.25A3.11,3.11,0,0,1,136.71,27.23Zm0,1.37a.71.71,0,0,0,0-.43,2.37,2.37,0,0,0-.43-.69,2.77,2.77,0,0,0-.63-.57,1.18,1.18,0,0,0-.48-.16h0a1,1,0,0,0-.43.1l-.57.29a4.87,4.87,0,0,0-.53.35.63.63,0,0,0-.25.32.65.65,0,0,0,0,.43,2,2,0,0,0,.43.68,2.64,2.64,0,0,0,.62.58,1.18,1.18,0,0,0,.48.16h0a.77.77,0,0,0,.41-.09,4.47,4.47,0,0,0,.58-.29l.52-.34a.66.66,0,0,0,.26-.33"/><path class="cls-28" d="M143.9,27.21A4.9,4.9,0,0,1,144,30a5.68,5.68,0,0,1-1.44,2.38,12.33,12.33,0,0,1-2.71,2.05A13.17,13.17,0,0,1,136,36a8.64,8.64,0,0,1-2,.19,9,9,0,0,1-1.77-.24,11.2,11.2,0,0,1-3.87-1.85,22.48,22.48,0,0,1-4.08-3.9A18.89,18.89,0,0,1,121,25.25a7.31,7.31,0,0,1-.59-3.87A5.75,5.75,0,0,1,122,18.31a14.39,14.39,0,0,1,3.33-2.56,19.83,19.83,0,0,1,2.54-1.26,16.4,16.4,0,0,1,2.13-.67,10,10,0,0,1,1.68-.26c.39,0,.75,0,1.06-.05l1.66,5.59c-.34,0-.69.12-1,.19s-.88.2-1.29.32-.78.25-1.12.39-.63.25-.87.36a5.33,5.33,0,0,0-1.51,1.08,4.81,4.81,0,0,0-.82,1.17,2.7,2.7,0,0,0-.29,1,1,1,0,0,0,.16.73.53.53,0,0,0,.34.19.74.74,0,0,0,.52-.21,9,9,0,0,0,.63-.68l.69-.83a2.2,2.2,0,0,1,.58-.55A16.76,16.76,0,0,1,133.24,21a7.3,7.3,0,0,1,2.68-.42h.2a6.93,6.93,0,0,1,2.91.86A10.33,10.33,0,0,1,142,24,9.48,9.48,0,0,1,143.9,27.21Zm-6.64,1.58a1.17,1.17,0,0,0,0-.69,2.76,2.76,0,0,0-.53-.87,3.11,3.11,0,0,0-.8-.71,1.78,1.78,0,0,0-.77-.25h0a1.65,1.65,0,0,0-.69.15c-.21.09-.41.2-.61.31a5.29,5.29,0,0,0-.58.38,1,1,0,0,0-.39.51,1.06,1.06,0,0,0,0,.68,2.66,2.66,0,0,0,.53.87,3.15,3.15,0,0,0,.8.72,1.92,1.92,0,0,0,.77.25H135a1.56,1.56,0,0,0,.66-.13l.62-.32c.2-.12.39-.24.57-.37a1.12,1.12,0,0,0,.41-.52"/><g class="cls-12"><g class="cls-78"><g class="cls-12"><path d="M144.38,30.56l-.74,2a6.27,6.27,0,0,1-1.4,2.15,13.19,13.19,0,0,1-2.8,2.13,13.83,13.83,0,0,1-4,1.6,8.5,8.5,0,0,1-1.87.2l.73-2a9.17,9.17,0,0,0,1.88-.2,13.59,13.59,0,0,0,4-1.61,13.17,13.17,0,0,0,2.8-2.12,6.27,6.27,0,0,0,1.4-2.15"/><path d="M134.26,36.64l-.73,2h-.29a9.43,9.43,0,0,1-1.9-.25,11.94,11.94,0,0,1-4.11-2,23.1,23.1,0,0,1-4.2-4,19.31,19.31,0,0,1-3.25-5.06,7.73,7.73,0,0,1-.62-4.09,5.65,5.65,0,0,1,.3-1.16l.74-2a5.73,5.73,0,0,0-.3,1.15,7.78,7.78,0,0,0,.62,4.1,19.64,19.64,0,0,0,3.25,5.06,23.1,23.1,0,0,0,4.2,4,11.9,11.9,0,0,0,4.11,2,9.44,9.44,0,0,0,1.9.26h.28"/></g></g></g></g><g class="cls-12"><g class="cls-12"><g class="cls-79"><g class="cls-12"><path d="M105.81,68.21l-.74,2a1.39,1.39,0,0,0-.31-1,1.58,1.58,0,0,0-.91-.56,2,2,0,0,0-.33,0h0l.74-2h.05a2,2,0,0,1,.33.05,1.58,1.58,0,0,1,.91.56,1.38,1.38,0,0,1,.31,1"/><path d="M104.21,66.63l-.74,2a1.25,1.25,0,0,0-.68.19,1.15,1.15,0,0,0-.52.59l.74-2a1.24,1.24,0,0,1,.51-.6,1.4,1.4,0,0,1,.69-.19"/></g></g></g><g class="cls-12"><g class="cls-80"><g class="cls-12"><path d="M104.92,71.12l-.74,2s0-.09,0-.13c.2-.54.37-1.06.51-1.55s.25-.9.33-1.22l.74-2c-.08.32-.19.73-.33,1.22s-.31,1-.51,1.55l0,.14"/></g></g></g><polygon points="102.42 70.73 101.68 72.7 96.98 71.61 97.72 69.64 102.42 70.73"/><polygon points="97.72 69.64 96.98 71.61 95.17 69.28 95.91 67.31 97.72 69.64"/><g class="cls-12"><g class="cls-81"><g class="cls-12"><path d="M112.51,73.44l-.74,2c-.17.47-.36.92-.55,1.34a14.86,14.86,0,0,1-1,1.94,7.45,7.45,0,0,1-.87,1.16l.74-2a7.45,7.45,0,0,0,.87-1.16,15.54,15.54,0,0,0,1-1.94c.19-.42.38-.87.55-1.34"/></g></g></g><polygon points="109.91 78.03 109.17 80 102.78 75.88 103.52 73.91 109.91 78.03"/><polygon points="110.06 77.88 109.32 79.84 109.17 80 109.91 78.03 110.06 77.88"/><path d="M113.45,65.24a9.1,9.1,0,0,1,.16,4.23,19.21,19.21,0,0,1-.69,2.81c-.3.9-.62,1.74-1,2.5a15.54,15.54,0,0,1-1,1.94,7.45,7.45,0,0,1-.87,1.16l-.16.15-6.38-4.12.14-.18a7.35,7.35,0,0,0,.68-1.21c.22-.49.44-1,.63-1.54s.37-1,.51-1.55.25-.9.33-1.22a1.38,1.38,0,0,0-.31-1,1.58,1.58,0,0,0-.91-.56,2,2,0,0,0-.33-.05,1.46,1.46,0,0,0-.74.19,1.2,1.2,0,0,0-.58.85l-.52,3.06-4.7-1.09-1.81-2.33-1,5.73-7.67-1.78L89.86,56l5.47,1.27,3.35,3.53A8,8,0,0,1,102,59a8.17,8.17,0,0,1,2.53-.31,10,10,0,0,1,1.92.25A11.11,11.11,0,0,1,109.18,60a9.41,9.41,0,0,1,2.56,2.09A8.66,8.66,0,0,1,113.45,65.24Zm-.38,4.1a8.78,8.78,0,0,0-.16-4,8.17,8.17,0,0,0-1.59-3,9,9,0,0,0-2.39-1.94,10.27,10.27,0,0,0-2.6-1,9.48,9.48,0,0,0-1.79-.24,7.66,7.66,0,0,0-2.35.29,7.39,7.39,0,0,0-3.28,1.89l-.2.2-3.66-3.85-4.72-1.1L87.88,70.92l6.59,1.53,1.09-6.4L98,69.23l3.92.91.45-2.59a1.55,1.55,0,0,1,.78-1.14,1.89,1.89,0,0,1,1-.26,2.67,2.67,0,0,1,.47.07,2.19,2.19,0,0,1,1.27.78,1.86,1.86,0,0,1,.42,1.31c-.08.37-.2.79-.34,1.29s-.32,1-.52,1.58-.41,1.06-.64,1.56a7.75,7.75,0,0,1-.59,1.09l5.5,3.55a8.21,8.21,0,0,0,.67-.94,14.12,14.12,0,0,0,1-1.89,24.39,24.39,0,0,0,1-2.46,19.05,19.05,0,0,0,.68-2.75"/><path class="cls-28" d="M90.33,56.58l4.72,1.1,3.66,3.85.2-.2a7.39,7.39,0,0,1,3.28-1.89,7.66,7.66,0,0,1,2.35-.29,9.48,9.48,0,0,1,1.79.24,10.27,10.27,0,0,1,2.6,1,9,9,0,0,1,2.39,1.94,8.17,8.17,0,0,1,1.59,3,8.78,8.78,0,0,1,.16,4,19.05,19.05,0,0,1-.68,2.75,24.39,24.39,0,0,1-1,2.46,14.12,14.12,0,0,1-1,1.89,8.21,8.21,0,0,1-.67.94l-5.5-3.55a7.75,7.75,0,0,0,.59-1.09c.23-.5.44-1,.64-1.56s.37-1.08.52-1.58.26-.92.34-1.25a1.9,1.9,0,0,0-.42-1.35,2.19,2.19,0,0,0-1.27-.78,2.67,2.67,0,0,0-.47-.07,1.89,1.89,0,0,0-1,.26,1.55,1.55,0,0,0-.78,1.14L102,70.14,98,69.23l-2.47-3.18-1.09,6.4-6.59-1.53Z"/><polygon points="94.93 73.04 94.19 75 86.52 73.22 87.26 71.26 94.93 73.04"/><polygon points="87.26 71.26 86.52 73.22 89.12 57.95 89.86 55.99 87.26 71.26"/></g><g class="cls-12"><polygon points="96.87 99.93 96.13 101.89 96.02 100.82 96.76 98.86 96.87 99.93"/><polygon class="cls-82" points="113.14 104.26 112.4 106.22 110.22 108.81 110.95 106.84 113.14 104.26"/><g class="cls-12"><g class="cls-83"><g class="cls-12"><path d="M99,104.16l-.74,2a8.21,8.21,0,0,1-1.52-2,6.36,6.36,0,0,1-.64-2.22l.74-2a6.36,6.36,0,0,0,.64,2.23,8.15,8.15,0,0,0,1.52,2"/></g></g></g><polygon points="101.5 106.58 100.76 108.54 98.29 106.12 99.03 104.16 101.5 106.58"/><g class="cls-12"><g class="cls-84"><g class="cls-12"><path class="cls-85" d="M106,111.29l-.74,2a4.71,4.71,0,0,1-.28.65,8.33,8.33,0,0,1-1.25,1.79l.74-2a8.7,8.7,0,0,0,1.25-1.79,6.18,6.18,0,0,0,.28-.64"/></g></g></g><g class="cls-12"><g class="cls-86"><g class="cls-12"><path d="M109.73,114.16l-.74,2a11.49,11.49,0,0,1-1.71-1.94,8.73,8.73,0,0,1-1.08-2.11l.74-2a9,9,0,0,0,1.08,2.12,11.89,11.89,0,0,0,1.71,1.94"/></g></g></g><polygon points="117.4 115.68 116.66 117.64 110.42 117.47 111.16 115.5 117.4 115.68"/><polygon points="111.16 115.5 110.42 117.47 108.99 116.12 109.73 114.16 111.16 115.5"/><g class="cls-12"><g class="cls-87"><g class="cls-12"><path d="M106.55,111.48l-.74,2a6.06,6.06,0,0,1-.3.68A8.84,8.84,0,0,1,104.2,116l.74-2a8.79,8.79,0,0,0,1.31-1.88,7.17,7.17,0,0,0,.3-.69"/></g></g></g><g class="cls-12"><g class="cls-88"><g class="cls-12"><path d="M99.21,110.2l-.74,2a5.53,5.53,0,0,0-1,1.58l.74-2a5.36,5.36,0,0,1,1-1.57"/></g></g></g><polygon points="104.94 114.05 104.2 116.02 103.03 117.26 103.77 115.29 104.94 114.05"/><g class="cls-12"><g class="cls-89"><g class="cls-12"><path d="M97.46,114l-.74,2a5.45,5.45,0,0,1,.17-2.21c0-.07,0-.15.08-.23l.74-2-.08.23a5.4,5.4,0,0,0-.17,2.2"/></g></g></g><polygon class="cls-90" points="98.07 114.65 97.33 116.61 97.27 115.99 98.01 114.03 98.07 114.65"/><path class="cls-91" d="M114.28,99.83l.06.6a4.63,4.63,0,0,1-1.2,3.83L111,106.84l3.77,3.79a8,8,0,0,1,1.41,1.87,5.62,5.62,0,0,1,.6,2.06l.07.62-5.43-.15-1.26-1.17a11.69,11.69,0,0,1-1.63-1.85,8.58,8.58,0,0,1-1-2.05l-.72-1.91-.33,1.9a7,7,0,0,1-.65,2,8.7,8.7,0,0,1-1.25,1.79l-1,1.08-5.4-.15L98,114a5,5,0,0,1,.16-2,5,5,0,0,1,1-1.79l3-3.61-2.78-2.72A7.74,7.74,0,0,1,98,102a5.88,5.88,0,0,1-.59-2.06l-.06-.6,5.48.16.11.15c.43.57.81,1.13,1.14,1.65s.67,1.07,1,1.64l1.38,2.64.84-2.57c.2-.56.42-1.1.65-1.6s.49-1,.8-1.59l.09-.15Z"/><path d="M116.63,112.34a6,6,0,0,1,.65,2.23l.12,1.11-6.24-.18-1.43-1.34a11.89,11.89,0,0,1-1.71-1.94,9,9,0,0,1-1.08-2.12,8,8,0,0,1-.69,2.07,8.79,8.79,0,0,1-1.31,1.88l-1.17,1.24-6.2-.17L97.46,114a5.4,5.4,0,0,1,.17-2.2,5.68,5.68,0,0,1,1.12-1.93l2.75-3.3L99,104.16a8.15,8.15,0,0,1-1.52-2,6.36,6.36,0,0,1-.64-2.23l-.11-1.07,6.34.18.31.39c.43.59.82,1.16,1.16,1.69s.68,1.09,1,1.67l.74,1.42.45-1.38c.21-.57.43-1.12.66-1.63s.5-1.06.82-1.63l.22-.38,6.31.18.11,1.07a5,5,0,0,1-1.29,4.13l-1.94,2.29,3.47,3.49A9.11,9.11,0,0,1,116.63,112.34Zm.17,2.84-.07-.62a5.62,5.62,0,0,0-.6-2.06,8,8,0,0,0-1.41-1.87L111,106.84l2.19-2.58a4.63,4.63,0,0,0,1.2-3.83l-.06-.6-5.44-.15-.09.15c-.31.55-.58,1.09-.8,1.59s-.45,1-.65,1.6l-.84,2.57L105.08,103c-.32-.57-.65-1.12-1-1.64s-.71-1.08-1.14-1.65l-.11-.15-5.48-.16.06.6A5.88,5.88,0,0,0,98,102a7.74,7.74,0,0,0,1.42,1.86l2.78,2.72-3,3.61a5,5,0,0,0-1,1.79,5,5,0,0,0-.16,2l.06.62,5.4.15,1-1.08a8.7,8.7,0,0,0,1.25-1.79,7,7,0,0,0,.65-2l.33-1.9.72,1.91a8.58,8.58,0,0,0,1,2.05,11.69,11.69,0,0,0,1.63,1.85l1.26,1.17,5.43.15"/><polygon points="103.77 115.29 103.03 117.26 96.83 117.08 97.57 115.12 103.77 115.29"/><polygon points="97.57 115.12 96.83 117.08 96.72 115.97 97.46 114.01 97.57 115.12"/></g><g class="cls-12"><g class="cls-12"><g class="cls-92"><g class="cls-12"><path d="M192.93,32.85l-.74,2a.53.53,0,0,0,0-.27.69.69,0,0,0-.19-.34q-.19-.23-.42-.45c-.15-.15-.3-.3-.45-.43a1,1,0,0,0-.36-.22l-.18,0h0l.74-2h0a.83.83,0,0,1,.54.24l.45.44q.22.22.42.45a.65.65,0,0,1,.19.34.49.49,0,0,1,0,.26"/><path d="M191.34,31.12l-.74,2-.22,0a2,2,0,0,0-.64.33,1.7,1.7,0,0,0-.49.48l-.05.1.74-2A.41.41,0,0,1,190,32a1.58,1.58,0,0,1,.49-.48,2,2,0,0,1,.64-.33l.22,0"/></g></g></g><g class="cls-12"><g class="cls-93"><g class="cls-12"><path d="M200,35.91l-.74,2-.12.29a6.73,6.73,0,0,1-2.29,2.51,6.08,6.08,0,0,1-1.93.89,6.87,6.87,0,0,1-1.72.21l.74-2a6.44,6.44,0,0,0,1.72-.22,5.68,5.68,0,0,0,1.93-.89,6.59,6.59,0,0,0,2.29-2.51l.12-.29"/><path d="M194,39.82l-.74,2H193l.74-2H194"/></g></g></g><g class="cls-12"><g class="cls-94"><g class="cls-12"><path d="M186.44,37.88l-.74,2a.62.62,0,0,0,0-.33,1.17,1.17,0,0,0-.22-.47c-.14-.18-.31-.37-.5-.57a6.62,6.62,0,0,0-.58-.52,1.53,1.53,0,0,0-.5-.27.91.91,0,0,0-.23,0h0l.74-2h0a.85.85,0,0,1,.22,0,1.33,1.33,0,0,1,.51.27,6.62,6.62,0,0,1,.58.52c.19.2.36.39.5.57a1.18,1.18,0,0,1,.22.47.59.59,0,0,1,0,.32"/><path d="M184.4,35.69l-.74,2-.27,0a2.65,2.65,0,0,0-.77.39,2.08,2.08,0,0,0-.58.57.49.49,0,0,0-.06.13l.74-2a.38.38,0,0,1,.06-.13,2,2,0,0,1,.58-.57,2.28,2.28,0,0,1,.76-.39,1,1,0,0,1,.28,0"/></g></g></g><path d="M186.69,36.86a1.71,1.71,0,0,1,.33.68,1.13,1.13,0,0,1-.14.73,2.24,2.24,0,0,1-.71.7,2.81,2.81,0,0,1-.93.47,1.93,1.93,0,0,1-.47.05,1.34,1.34,0,0,1-.4-.06,2.25,2.25,0,0,1-.73-.39,6.49,6.49,0,0,1-.63-.57,7.26,7.26,0,0,1-.55-.63,1.56,1.56,0,0,1-.32-.68,1,1,0,0,1,.14-.73,2.55,2.55,0,0,1,.7-.7,2.94,2.94,0,0,1,.94-.47,2.49,2.49,0,0,1,.46,0,1.76,1.76,0,0,1,.4.07,2.09,2.09,0,0,1,.74.38c.2.16.41.36.63.57A7,7,0,0,1,186.69,36.86ZM186.38,38a.63.63,0,0,0,.09-.45,1.18,1.18,0,0,0-.22-.47c-.14-.18-.31-.37-.5-.57a6.62,6.62,0,0,0-.58-.52,1.33,1.33,0,0,0-.51-.27.85.85,0,0,0-.22,0,1.22,1.22,0,0,0-.32,0,2.28,2.28,0,0,0-.76.39,2,2,0,0,0-.58.57.64.64,0,0,0-.09.45,1.06,1.06,0,0,0,.22.47,5.1,5.1,0,0,0,.5.57,5.28,5.28,0,0,0,.57.52,1.4,1.4,0,0,0,.51.27.85.85,0,0,0,.23,0,1.15,1.15,0,0,0,.31,0,2.19,2.19,0,0,0,.76-.39,1.89,1.89,0,0,0,.59-.57"/><path class="cls-28" d="M199.67,33.64a3.69,3.69,0,0,1-.29,2.34,6.24,6.24,0,0,1-2.15,2.35,5.4,5.4,0,0,1-1.77.81,6.18,6.18,0,0,1-1.8.19h-.31l-.28,0,0,.24a5.28,5.28,0,0,1-.4,2.44,4.69,4.69,0,0,1-1.63,1.94,8.72,8.72,0,0,1-3.48,1.59,7.08,7.08,0,0,1-1.51.11,7,7,0,0,1-1.65-.24,9.43,9.43,0,0,1-2.93-1.45,21.9,21.9,0,0,1-2.78-2.39,20.92,20.92,0,0,1-2.31-2.77,6.76,6.76,0,0,1-1.15-2.7,4.34,4.34,0,0,1,.43-2.62,7.46,7.46,0,0,1,2.47-2.62,5.88,5.88,0,0,1,2.51-1,7.08,7.08,0,0,1,1.46-.09,8.31,8.31,0,0,1,1.38.15l.27.05,0-.23a4.31,4.31,0,0,1,.54-1.68,4.48,4.48,0,0,1,1.34-1.39,7.7,7.7,0,0,1,3.07-1.42A7,7,0,0,1,190,25.1a5.14,5.14,0,0,1,1.47.24A8.35,8.35,0,0,1,194,26.66a22.39,22.39,0,0,1,2.48,2.17,21.44,21.44,0,0,1,2.06,2.43A6.51,6.51,0,0,1,199.67,33.64Zm-12.79,4.63a1.13,1.13,0,0,0,.14-.73,1.71,1.71,0,0,0-.33-.68,7,7,0,0,0-.54-.63c-.22-.21-.43-.41-.63-.57a2.09,2.09,0,0,0-.74-.38,1.76,1.76,0,0,0-.4-.07,2.49,2.49,0,0,0-.46,0,2.94,2.94,0,0,0-.94.47,2.55,2.55,0,0,0-.7.7,1,1,0,0,0-.14.73,1.56,1.56,0,0,0,.32.68,7.26,7.26,0,0,0,.55.63,6.49,6.49,0,0,0,.63.57,2.25,2.25,0,0,0,.73.39,1.34,1.34,0,0,0,.4.06,1.93,1.93,0,0,0,.47-.05,2.81,2.81,0,0,0,.93-.47,2.24,2.24,0,0,0,.71-.7m6.52-5.08a.92.92,0,0,0,.11-.62,1.17,1.17,0,0,0-.31-.59l-.44-.47-.47-.45a1.57,1.57,0,0,0-.63-.37,1.86,1.86,0,0,0-.34-.05,1.72,1.72,0,0,0-.39,0,2.27,2.27,0,0,0-.83.41,2,2,0,0,0-.62.63.89.89,0,0,0-.11.61,1.17,1.17,0,0,0,.31.59c.13.15.28.31.44.47s.32.32.47.46a1.54,1.54,0,0,0,.63.36,1.27,1.27,0,0,0,.34,0,1.33,1.33,0,0,0,.39,0,2.27,2.27,0,0,0,.83-.41,2,2,0,0,0,.62-.62"/><path d="M200.21,33.61a4.11,4.11,0,0,1-.31,2.59,6.59,6.59,0,0,1-2.29,2.51,5.68,5.68,0,0,1-1.93.89,6.76,6.76,0,0,1-2,.22,6.32,6.32,0,0,1-.49,2.37,5.09,5.09,0,0,1-1.77,2.12A9.18,9.18,0,0,1,187.75,46a7.55,7.55,0,0,1-1.63.12,7.19,7.19,0,0,1-1.8-.27,9.9,9.9,0,0,1-3.15-1.54,22.57,22.57,0,0,1-2.86-2.47A20.72,20.72,0,0,1,175.93,39a7.15,7.15,0,0,1-1.22-2.9,4.69,4.69,0,0,1,.46-2.87,8,8,0,0,1,2.6-2.77,6.49,6.49,0,0,1,2.73-1.12,9.07,9.07,0,0,1,1.57-.1,10.11,10.11,0,0,1,1.21.12,4.57,4.57,0,0,1,.56-1.59,5,5,0,0,1,1.45-1.53,8.39,8.39,0,0,1,3.29-1.5,6.6,6.6,0,0,1,1.39-.1,6,6,0,0,1,1.64.26,9.06,9.06,0,0,1,2.75,1.43,21.87,21.87,0,0,1,2.55,2.24A19.9,19.9,0,0,1,199,31,6.79,6.79,0,0,1,200.21,33.61ZM199.38,36a3.69,3.69,0,0,0,.29-2.34,6.51,6.51,0,0,0-1.1-2.38,21.44,21.44,0,0,0-2.06-2.43A22.39,22.39,0,0,0,194,26.66a8.35,8.35,0,0,0-2.54-1.32A5.14,5.14,0,0,0,190,25.1a7,7,0,0,0-1.27.09,7.7,7.7,0,0,0-3.07,1.42A4.48,4.48,0,0,0,184.34,28a4.31,4.31,0,0,0-.54,1.68l0,.23-.27-.05a8.31,8.31,0,0,0-1.38-.15,7.08,7.08,0,0,0-1.46.09,5.88,5.88,0,0,0-2.51,1,7.46,7.46,0,0,0-2.47,2.62,4.34,4.34,0,0,0-.43,2.62,6.76,6.76,0,0,0,1.15,2.7,20.92,20.92,0,0,0,2.31,2.77,21.9,21.9,0,0,0,2.78,2.39,9.43,9.43,0,0,0,2.93,1.45,7,7,0,0,0,1.65.24,7.08,7.08,0,0,0,1.51-.11,8.72,8.72,0,0,0,3.48-1.59A4.69,4.69,0,0,0,192.69,42a5.28,5.28,0,0,0,.4-2.44l0-.24.28,0h.31a6.18,6.18,0,0,0,1.8-.19,5.4,5.4,0,0,0,1.77-.81A6.24,6.24,0,0,0,199.38,36"/><path d="M193.47,32.42a1.31,1.31,0,0,0-.27-.44l-.21-.23-.23-.24-.35-.34-.12-.11a1.3,1.3,0,0,0-.23-.18,1.47,1.47,0,0,0-.4-.19,1.86,1.86,0,0,0-.34-.05l-.29,0-.1,0-.14,0-.1,0-.1,0-.16.08-.05,0-.11.07-.08.05-.09.06a3.52,3.52,0,0,0-.43.36,1.11,1.11,0,0,0-.19.27.89.89,0,0,0-.12.37s0,.06,0,.09a.77.77,0,0,0,0,.15.8.8,0,0,0,0,.15,1,1,0,0,0,.07.15,1.12,1.12,0,0,0,.21.29,2.19,2.19,0,0,0,.21.23l.23.24c.16.17.32.32.47.46l.22.17a.65.65,0,0,0,.16.09,1.09,1.09,0,0,0,.25.1l.24,0h.19l.19,0,.11,0,.14,0,.07,0,.06,0,0,0,.24-.13.05,0a1.5,1.5,0,0,0,.23-.15l.11-.08.15-.12,0,0,.09-.08.1-.11a1.62,1.62,0,0,0,.13-.19s0,0,0-.08a1,1,0,0,0,.07-.23.76.76,0,0,0,0-.15.81.81,0,0,0,0-.16A.83.83,0,0,0,193.47,32.42Zm-.58.52a1.61,1.61,0,0,1-.49.49,2,2,0,0,1-.64.33,1.14,1.14,0,0,1-.25,0,.52.52,0,0,1-.18,0,.79.79,0,0,1-.36-.21c-.15-.13-.3-.28-.45-.43s-.3-.31-.42-.45a.69.69,0,0,1-.19-.34A.56.56,0,0,1,190,32a1.58,1.58,0,0,1,.49-.48,2,2,0,0,1,.64-.33l.25,0a.83.83,0,0,1,.54.24l.45.44q.22.22.42.45a.73.73,0,0,1,.19.34.58.58,0,0,1-.08.35"/><g class="cls-12"><g class="cls-95"><g class="cls-12"><path d="M193.3,42l-.74,2-.09.24a5.07,5.07,0,0,1-1.77,2.11A9.21,9.21,0,0,1,187,48a8.24,8.24,0,0,1-1.39.12l.74-2a8.27,8.27,0,0,0,1.39-.13,9.18,9.18,0,0,0,3.69-1.67,5.09,5.09,0,0,0,1.77-2.12l.09-.23"/><path d="M186.36,46.11l-.74,2h-.24a7.19,7.19,0,0,1-1.8-.28,9.9,9.9,0,0,1-3.15-1.54,22.48,22.48,0,0,1-2.86-2.46,20.78,20.78,0,0,1-2.38-2.85A7.17,7.17,0,0,1,174,38.05a4.52,4.52,0,0,1,.25-2.38l.74-2a4.54,4.54,0,0,0-.25,2.38,7.15,7.15,0,0,0,1.22,2.9,20.72,20.72,0,0,0,2.38,2.84,22.57,22.57,0,0,0,2.86,2.47,9.9,9.9,0,0,0,3.15,1.54,7.19,7.19,0,0,0,1.8.27h.24"/></g></g></g></g><g class="cls-12"><polygon points="200.66 67.01 199.92 68.97 199.41 63.87 200.15 61.91 200.66 67.01"/><polygon points="213.48 72.26 212.74 74.22 212.3 69.84 213.04 67.88 213.48 72.26"/><polygon points="214.08 72.75 213.34 74.72 207.06 74.52 207.8 72.56 214.08 72.75"/><polygon class="cls-96" points="195.38 71.69 194.64 73.65 194.2 69.27 194.94 67.31 195.38 71.69"/><polygon points="201.19 72.35 200.45 74.31 194.14 74.11 194.88 72.15 201.19 72.35"/><polygon points="194.88 72.15 194.14 74.11 193.6 68.77 194.34 66.81 194.88 72.15"/><polygon class="cls-97" points="200.75 62.41 206.25 62.58 206.76 67.68 213.04 67.88 213.48 72.26 207.2 72.06 207.71 77.16 202.21 76.98 201.69 71.89 195.38 71.69 194.94 67.31 201.26 67.51 200.75 62.41"/><polygon class="cls-98" points="207.71 77.16 206.97 79.12 201.47 78.95 202.21 76.98 207.71 77.16"/><polygon class="cls-96" points="202.21 76.98 201.47 78.95 200.96 73.85 201.69 71.89 202.21 76.98"/><polygon points="201.7 77.45 200.96 79.41 200.45 74.31 201.19 72.35 201.7 77.45"/><polygon points="208.31 77.66 207.57 79.62 200.96 79.41 201.7 77.45 208.31 77.66"/><path d="M207.27,67.22l6.27.2.54,5.34-6.28-.2.51,5.1-6.61-.21-.51-5.1-6.31-.2-.54-5.34,6.32.2-.51-5.1,6.6.21Zm6.21,5L213,67.88l-6.28-.2-.51-5.1-5.5-.17.51,5.1-6.32-.2.44,4.38,6.31.2L202.2,77l5.51.18-.51-5.1,6.28.2"/></g><g class="cls-12"><polygon points="153.71 117.92 152.97 119.88 151.1 122.68 151.84 120.72 153.71 117.92"/><polygon points="140.13 117.77 139.39 119.73 131.17 115.05 131.91 113.09 140.13 117.77"/><g class="cls-12"><g class="cls-99"><g class="cls-12"><path class="cls-100" d="M151.35,120.44l-.73,2a2.44,2.44,0,0,1-.73.7,11.43,11.43,0,0,1-1,.54c-1.23.55-2.64,1.17-4.2,1.84s-3.11,1.35-4.77,2l-4.72,2.05c-1.47.65-2.78,1.25-3.89,1.78l.74-2c1.11-.54,2.42-1.14,3.89-1.78l4.72-2.05,4.77-2c1.55-.67,3-1.29,4.2-1.84a11.45,11.45,0,0,0,1-.55,2.26,2.26,0,0,0,.72-.69"/></g></g></g><path d="M135.58,107.58l18.13,10.34-1.87,2.8a2.7,2.7,0,0,1-.86.82c-.34.2-.71.39-1.1.57l-4.2,1.84L140.9,126c-1.6.68-3.19,1.37-4.72,2s-2.87,1.29-4,1.84L132,130,126,126.49l.86-1.29a9.81,9.81,0,0,1,2-2.2,11.59,11.59,0,0,1,2.71-1.58l8.63-3.65-8.22-4.68Zm15.77,12.86L153,118l-17.15-9.78L132.66,113l8.58,4.89-9.45,4a11.13,11.13,0,0,0-2.59,1.52,9.27,9.27,0,0,0-1.9,2.11l-.59.9,5.29,3c1.11-.54,2.42-1.14,3.89-1.78l4.72-2.05,4.77-2c1.55-.67,3-1.29,4.2-1.84a11.45,11.45,0,0,0,1-.55,2.26,2.26,0,0,0,.72-.69"/><path class="cls-28" d="M135.81,108.25,153,118l-1.61,2.41a2.26,2.26,0,0,1-.72.69,11.45,11.45,0,0,1-1,.55c-1.23.55-2.65,1.17-4.2,1.84l-4.77,2-4.72,2.05c-1.47.64-2.78,1.24-3.89,1.78l-5.29-3,.59-.9a9.27,9.27,0,0,1,1.9-2.11,11.13,11.13,0,0,1,2.59-1.52l9.45-4L132.66,113Z"/><g class="cls-12"><g class="cls-101"><g class="cls-12"><path d="M151.84,120.72l-.74,2a2.7,2.7,0,0,1-.86.82c-.34.2-.71.4-1.1.58l-4.2,1.84c-1.52.65-3.12,1.35-4.78,2L135.44,130c-1.52.67-2.87,1.29-4,1.83l.74-2c1.14-.55,2.49-1.17,4-1.84s3.12-1.36,4.72-2l4.78-2.06,4.2-1.84c.39-.18.76-.37,1.1-.57a2.7,2.7,0,0,0,.86-.82"/></g></g></g><polygon points="132.03 129.96 131.29 131.92 125.22 128.46 125.96 126.49 132.03 129.96"/><polygon points="132.17 129.89 131.43 131.85 131.29 131.92 132.03 129.96 132.17 129.89"/></g><g class="cls-12"><g class="cls-12"><g class="cls-102"><g class="cls-12"><path d="M173.76,121.3l-.74,2a1.81,1.81,0,0,0,0-.74.88.88,0,0,0-.24-.41,1,1,0,0,0-.43-.23,5.27,5.27,0,0,0-.68-.19c-.26-.06-.5-.11-.71-.14l-.16,0h0l.74-2h.19l.71.14.68.19a1,1,0,0,1,.43.24.9.9,0,0,1,.24.4,1.86,1.86,0,0,1,0,.75"/><path d="M171.51,119.57l-.74,2a.76.76,0,0,0-.27,0,.72.72,0,0,0-.35.26.92.92,0,0,0-.14.26l.74-2a.71.71,0,0,1,.14-.26.68.68,0,0,1,.35-.27.77.77,0,0,1,.27,0"/></g></g></g><g class="cls-12"><g class="cls-103"><g class="cls-12"><path d="M174.08,127.9l-.74,2-.3,0h-.29l.74-2h.59"/><path d="M173.49,127.88l-.74,2h-.47l-1.22,0h-.31l.74-2h.3l1.23-.06h.47"/><path d="M171.49,128l-.74,2h-.17a3.54,3.54,0,0,1-.62-.07,23.64,23.64,0,0,1-3.45-1.09,8.82,8.82,0,0,1-2.76-1.73,6.14,6.14,0,0,1-1.67-2.59,7.4,7.4,0,0,1-.13-3.61,9.43,9.43,0,0,1,.45-1.67l.74-2a9.78,9.78,0,0,0-.45,1.68,7.36,7.36,0,0,0,.13,3.6,6.11,6.11,0,0,0,1.67,2.6,8.82,8.82,0,0,0,2.76,1.73,23.64,23.64,0,0,0,3.45,1.08,2.79,2.79,0,0,0,.62.07h.17"/></g></g></g><g class="cls-12"><g class="cls-104"><g class="cls-12"><path d="M174.66,128l-.74,2a1.08,1.08,0,0,1-.47.46,3.51,3.51,0,0,1-1.1.42,6.8,6.8,0,0,1-1.59.17l.74-2a6.83,6.83,0,0,0,1.59-.16,4.08,4.08,0,0,0,1.1-.42,1.15,1.15,0,0,0,.47-.47"/><path d="M171.5,129.07l-.74,2h-.19a7.44,7.44,0,0,1-1.92-.33l.74-2a7.89,7.89,0,0,0,1.92.33h.19"/></g></g></g><g class="cls-12"><g class="cls-105"><g class="cls-12"><path d="M169.39,128.74l-.74,2c-.28-.08-.6-.19-1-.33s-.77-.31-1.2-.5-.84-.39-1.26-.62a9.1,9.1,0,0,1-1-.56l.74-2c.3.19.63.38,1,.56s.85.43,1.26.62.83.35,1.2.49l1,.34"/></g></g></g><path class="cls-28" d="M182.39,121.78a14.88,14.88,0,0,1-.15,4.93,13.86,13.86,0,0,1-1.72,5,7.33,7.33,0,0,1-2.82,2.65,8.19,8.19,0,0,1-3.81.83h-.36a21.9,21.9,0,0,1-4.38-.61,25.55,25.55,0,0,1-3-.89,22.29,22.29,0,0,1-2.21-1,12.74,12.74,0,0,1-1.53-.93l-.85-.65,3.45-4.36c.3.19.63.38,1,.56s.85.43,1.26.62.83.35,1.2.49l1,.34a7.89,7.89,0,0,0,1.92.33h.16a7,7,0,0,0,1.62-.16,4.08,4.08,0,0,0,1.1-.42c.3-.19.46-.36.49-.54a.38.38,0,0,0-.1-.32.86.86,0,0,0-.59-.21h-1.06l-1.23.06a3.08,3.08,0,0,1-.43,0,2.24,2.24,0,0,1-.49,0,22.29,22.29,0,0,1-3.35-1.06,8.42,8.42,0,0,1-2.56-1.59,5.63,5.63,0,0,1-1.52-2.38,8.26,8.26,0,0,1,1.16-6.55,5.36,5.36,0,0,1,2.3-1.7,8.54,8.54,0,0,1,3.13-.49h.1a17.94,17.94,0,0,1,3.73.52,17,17,0,0,1,4.31,1.57,8.52,8.52,0,0,1,2.89,2.46A8.14,8.14,0,0,1,182.39,121.78Zm-8.09-.35a2,2,0,0,0,0-.94,1.34,1.34,0,0,0-.38-.64,1.81,1.81,0,0,0-.68-.39l-.74-.2-.77-.15-.23,0a1.35,1.35,0,0,0-.5.07,1.15,1.15,0,0,0-.57.41,1.91,1.91,0,0,0-.33.86,2.09,2.09,0,0,0,0,.94,1.52,1.52,0,0,0,.38.64,1.89,1.89,0,0,0,.67.38l.75.21a7.51,7.51,0,0,0,.75.14l.25,0a1.59,1.59,0,0,0,.5-.07,1.26,1.26,0,0,0,.58-.42,1.91,1.91,0,0,0,.32-.85"/><g class="cls-12"><g class="cls-106"><g class="cls-12"><path class="cls-48" d="M171.42,127.48l-.73,2h-.16a3,3,0,0,1-.49-.06,22.29,22.29,0,0,1-3.35-1,8.44,8.44,0,0,1-2.56-1.6,5.6,5.6,0,0,1-1.52-2.37,6.93,6.93,0,0,1-.11-3.4,9,9,0,0,1,.42-1.61l.74-2a8.78,8.78,0,0,0-.42,1.61,6.89,6.89,0,0,0,.11,3.39,5.63,5.63,0,0,0,1.52,2.38,8.42,8.42,0,0,0,2.56,1.59,22.29,22.29,0,0,0,3.35,1.06,2.24,2.24,0,0,0,.49,0h.15"/></g></g></g><path d="M182.94,121.78a15.42,15.42,0,0,1-.16,5.06,14.07,14.07,0,0,1-1.77,5.09,7.6,7.6,0,0,1-3,2.8,8.75,8.75,0,0,1-4.06.89h-.38a22.58,22.58,0,0,1-4.51-.63,26.39,26.39,0,0,1-3.11-.91,21.59,21.59,0,0,1-2.29-1,13.27,13.27,0,0,1-1.61-1c-.44-.32-.79-.59-1.07-.81h0l3.82-5.23.24.16a13.21,13.21,0,0,0,1.14.68l1.23.6c.41.18.79.34,1.15.47s.68.25.94.33a7.62,7.62,0,0,0,1.77.3h.12a6.52,6.52,0,0,0,1.49-.15,3.65,3.65,0,0,0,.94-.35,1.29,1.29,0,0,0,.25-.19h-.3c-.22,0-.48,0-.76,0l-1.23.06h-.47a2.79,2.79,0,0,1-.62-.07,23.64,23.64,0,0,1-3.45-1.08,8.82,8.82,0,0,1-2.76-1.73,6.11,6.11,0,0,1-1.67-2.6,8.6,8.6,0,0,1,1.22-6.93,5.75,5.75,0,0,1,2.49-1.84,9.14,9.14,0,0,1,3.35-.53H170a19.08,19.08,0,0,1,3.85.53,18.77,18.77,0,0,1,4.48,1.64,9.18,9.18,0,0,1,3.09,2.63A8.78,8.78,0,0,1,182.94,121.78Zm-.7,4.93a14.88,14.88,0,0,0,.15-4.93,8.14,8.14,0,0,0-1.42-3.57,8.52,8.52,0,0,0-2.89-2.46,17,17,0,0,0-4.31-1.57,17.94,17.94,0,0,0-3.73-.52h-.1a8.54,8.54,0,0,0-3.13.49,5.36,5.36,0,0,0-2.3,1.7,8.26,8.26,0,0,0-1.16,6.55,5.63,5.63,0,0,0,1.52,2.38,8.42,8.42,0,0,0,2.56,1.59,22.29,22.29,0,0,0,3.35,1.06,2.24,2.24,0,0,0,.49,0,3.08,3.08,0,0,0,.43,0l1.23-.06H174a.86.86,0,0,1,.59.21.38.38,0,0,1,.1.32c0,.18-.19.35-.49.54a4.08,4.08,0,0,1-1.1.42,7,7,0,0,1-1.62.16h-.16a7.89,7.89,0,0,1-1.92-.33l-1-.34c-.37-.14-.77-.3-1.2-.49s-.84-.4-1.26-.62-.67-.37-1-.56l-3.45,4.36.85.65a12.74,12.74,0,0,0,1.53.93,22.29,22.29,0,0,0,2.21,1,25.55,25.55,0,0,0,3,.89,21.9,21.9,0,0,0,4.38.61h.36a8.19,8.19,0,0,0,3.81-.83,7.33,7.33,0,0,0,2.82-2.65,13.86,13.86,0,0,0,1.72-5"/><path d="M173.91,119.85a1.34,1.34,0,0,1,.38.64,2,2,0,0,1,0,.94,1.91,1.91,0,0,1-.32.85,1.26,1.26,0,0,1-.58.42,1.59,1.59,0,0,1-.5.07l-.25,0a7.51,7.51,0,0,1-.75-.14l-.75-.21a1.89,1.89,0,0,1-.67-.38,1.52,1.52,0,0,1-.38-.64,2.09,2.09,0,0,1,0-.94,1.91,1.91,0,0,1,.33-.86,1.15,1.15,0,0,1,.57-.41,1.35,1.35,0,0,1,.5-.07l.23,0,.77.15.74.2A1.81,1.81,0,0,1,173.91,119.85Zm-.15,1.45a1.86,1.86,0,0,0,0-.75.9.9,0,0,0-.24-.4,1,1,0,0,0-.43-.24l-.68-.19-.71-.14h-.16a1,1,0,0,0-.3,0,.68.68,0,0,0-.35.27,1.51,1.51,0,0,0-.25.68,1.68,1.68,0,0,0,0,.74.88.88,0,0,0,.24.41,1.16,1.16,0,0,0,.41.23c.21.07.44.13.7.19a6.19,6.19,0,0,0,.7.14l.17,0a1.55,1.55,0,0,0,.31,0,1,1,0,0,0,.35-.27,1.64,1.64,0,0,0,.25-.68"/></g><g class="cls-12"><path d="M181.94,130l-.74,2a10.19,10.19,0,0,1-.93,1.9,7.67,7.67,0,0,1-3,2.8,8.7,8.7,0,0,1-3.95.88l.74-2a8.83,8.83,0,0,0,4-.89,7.6,7.6,0,0,0,3-2.8,10.08,10.08,0,0,0,.93-1.89"/><path d="M174.07,135.62l-.74,2h-.49a22.53,22.53,0,0,1-4.51-.62,26.27,26.27,0,0,1-3.11-.92,19.72,19.72,0,0,1-2.29-1,11.72,11.72,0,0,1-1.61-1c-.44-.32-.79-.58-1.07-.81l.74-2c.28.22.63.49,1.07.81a13.27,13.27,0,0,0,1.61,1,21.59,21.59,0,0,0,2.29,1,26.39,26.39,0,0,0,3.11.91,22.58,22.58,0,0,0,4.51.63h.49"/></g><path class="cls-107" d="M203.75,82.55a3.52,3.52,0,0,0,3.25.68,6,6,0,0,0,2.85-1.89"/><path class="cls-107" d="M203.51,84.89a2.9,2.9,0,0,0,1.91.76,6.7,6.7,0,0,0,2.08-.29,19,19,0,0,0,4.68-2"/><path class="cls-107" d="M202.1,57.17a41.37,41.37,0,0,0-2.93-12.09"/><path class="cls-107" d="M202.71,46.49a26.81,26.81,0,0,1,1.77,10.67"/><path class="cls-107" d="M206.53,53.68v2.87"/><path class="cls-107" d="M93.26,84.32a19.73,19.73,0,0,0,2.58,11"/><path class="cls-107" d="M95.66,85.56A15,15,0,0,0,98.42,94"/><path class="cls-107" d="M98.88,81.6A22,22,0,0,0,102.33,93"/><path class="cls-107" d="M137.15,12.17a31.56,31.56,0,0,0,1.34,7.15"/><path class="cls-107" d="M140.5,12.17a19.39,19.39,0,0,0,.49,8.7"/><path class="cls-107" d="M124.49,122c.19.39.79.08,1.06-.27a18.23,18.23,0,0,0,2.83-5.31"/><path class="cls-107" d="M121.77,121.76a8.61,8.61,0,0,0,3.12-4.2"/><path class="cls-107" d="M160.85,114.91a47.62,47.62,0,0,0-.74,6.42"/><path class="cls-107" d="M159.5,113.58a14.31,14.31,0,0,0-.93,5.53"/><path class="cls-107" d="M103.9,37.45a20.46,20.46,0,0,1,10.34-9.91"/><path class="cls-107" d="M107.76,36.16A9.67,9.67,0,0,1,112,32.88"/><path class="cls-107" d="M181,26.24a3.9,3.9,0,0,1,3.39-3.41"/><path class="cls-107" d="M177,26a3.87,3.87,0,0,1,1.7-3.59,11.41,11.41,0,0,1,3.83-1.62"/></svg>