<svg id="Layer_1" data-name="Layer 1" xmlns="http://www.w3.org/2000/svg" xmlns:xlink="http://www.w3.org/1999/xlink" viewBox="0 0 200 200"><defs><style>.cls-1{fill:#353535;stroke-width:0.16px;}.cls-1,.cls-27,.cls-29,.cls-37,.cls-8{stroke:#000;}.cls-1,.cls-27,.cls-29,.cls-57{stroke-linejoin:round;}.cls-2,.cls-21,.cls-22{fill:#4d4d4d;}.cls-3{fill:#b3b3b3;}.cls-4{fill:#f9f7f7;opacity:0.41;isolation:isolate;}.cls-5{fill:#d3161d;}.cls-6{fill:#c6c6c6;}.cls-7{fill:#d8d8d8;}.cls-8{fill:#f4d487;stroke-width:0.09px;}.cls-18,.cls-19,.cls-20,.cls-21,.cls-22,.cls-26,.cls-28,.cls-30,.cls-32,.cls-33,.cls-37,.cls-41,.cls-51,.cls-52,.cls-53,.cls-54,.cls-55,.cls-56,.cls-8{stroke-miterlimit:10;}.cls-9{fill:#efc86f;}.cls-10{fill:#f4dcb3;}.cls-11{fill:#af2323;}.cls-12{fill:#ff1e00;}.cls-13{fill:#ff3600;}.cls-14{fill:#ff4800;}.cls-15{fill:#f47245;}.cls-16{fill:#449193;}.cls-17{fill:#ce3a00;}.cls-18{fill:#77401b;}.cls-18,.cls-30,.cls-32,.cls-41,.cls-56{stroke:#070707;}.cls-18,.cls-19,.cls-26,.cls-27,.cls-41{stroke-width:0.22px;}.cls-19,.cls-23{fill:#f8c946;}.cls-19{stroke:#020202;}.cls-20,.cls-38{fill:#282828;}.cls-20,.cls-21,.cls-22{stroke:#151616;}.cls-20,.cls-21{stroke-width:0.18px;}.cls-22{stroke-width:0.67px;}.cls-24{fill:#683919;}.cls-25,.cls-32{fill:#945320;}.cls-26{fill:#adadad;stroke:#080000;}.cls-27{fill:#515051;}.cls-28,.cls-31{fill:#161616;}.cls-28,.cls-33,.cls-51,.cls-52,.cls-53,.cls-54,.cls-55{stroke:#0a0a0a;}.cls-28,.cls-29,.cls-30,.cls-32,.cls-33,.cls-37{stroke-width:0.19px;}.cls-29{fill:#8e8a8b;}.cls-30{fill:#e2b647;}.cls-33,.cls-37,.cls-41,.cls-52,.cls-56,.cls-57{fill:none;}.cls-34{fill:#dddbd7;}.cls-35{fill:#232323;}.cls-36{fill:#3a3a3a;}.cls-39{fill:#7c7c7c;}.cls-40{fill:#666;}.cls-42{fill:#7f1119;}.cls-43{fill:#5e0e18;}.cls-44{fill:#352f49;}.cls-45{fill:#e41e00;}.cls-46{fill:#fffe28;}.cls-47{fill:#18ff08;}.cls-48{fill:#dbdddd;}.cls-49{fill:#0fb0db;}.cls-50{fill:#303435;}.cls-51,.cls-52,.cls-53,.cls-54,.cls-55{stroke-width:0.09px;}.cls-51{fill:url(#radial-gradient);}.cls-53{fill:url(#radial-gradient-2);}.cls-54{fill:url(#radial-gradient-3);}.cls-55{fill:url(#radial-gradient-4);}.cls-56{stroke-width:0.11px;}.cls-57{stroke:#389cce;stroke-linecap:round;stroke-width:2.53px;}</style><radialGradient id="radial-gradient" cx="-4390.63" cy="-78.28" r="2.77" gradientTransform="matrix(0.49, 0, 0, -0.49, 2253.32, 54.62)" gradientUnits="userSpaceOnUse"><stop offset="0.2" stop-color="#666"/><stop offset="0.57" stop-color="#585858"/><stop offset="1" stop-color="#4d4d4d"/></radialGradient><radialGradient id="radial-gradient-2" cx="-4401.87" cy="-105.72" r="2.77" gradientTransform="matrix(0.49, 0, 0, -0.49, 2259.44, 55.68)" xlink:href="#radial-gradient"/><radialGradient id="radial-gradient-3" cx="-4390.32" cy="-105.03" r="2.77" gradientTransform="matrix(0.49, 0, 0, -0.49, 2258.78, 53.35)" xlink:href="#radial-gradient"/><radialGradient id="radial-gradient-4" cx="-4400.69" cy="-78.75" r="2.77" gradientTransform="matrix(0.49, 0, 0, -0.49, 2253.87, 56.65)" xlink:href="#radial-gradient"/></defs><title>rocket_robot</title><g id="Layer_4" data-name="Layer 4"><path class="cls-1" d="M155.48,101.79a14.24,14.24,0,0,0-2-1.31c-2.87-1.6-11.62-6.4-17.52-8.66-3.47-1.34-5.75-2.34-7.54-3a14.6,14.6,0,0,0-6.48-.88,14.37,14.37,0,0,0-11.43,6.42c-4.3,5.49-6.86,8.18-7.53,9.43-.33,1.58-.23,9.88,3,13.79,2.35,2.83,6,6.21,10.63,7.23s25.2,7.34,28.73,4.45c4.11-3.36,13.37-13.38,14.21-18.21C160.38,106.7,158.34,104.1,155.48,101.79Z"/><path class="cls-2" d="M112.71,135.42a18.41,18.41,0,0,1-3.68-.25c-4.47-1-8-4.34-10.22-7-1.92-2.32-2.37-6-1.34-11l0-.2c0-.11,0-.24.08-.4a25.27,25.27,0,0,1,3.76-9.59,13.37,13.37,0,0,1,6-5,14.85,14.85,0,0,1,4.89-1.09c.43,0,.86-.06,1.28-.06a13.94,13.94,0,0,1,4.87.88c.79.3,1.7.67,2.75,1.1,1.28.52,2.87,1.17,4.78,1.91,5.9,2.27,14.83,7.17,17.42,8.62a13.57,13.57,0,0,1,1.85,1.24c2.82,2.26,4.56,4.58,3.88,8.51-.72,4.12-5.36,6.52-9.09,8.44l-.86.45c-3.11,1.62-18.37,3.43-26.37,3.43Z"/><path d="M113.49,101.6a13.08,13.08,0,0,1,4.59.83c.77.3,1.69.67,2.73,1.1q1.92.78,4.8,1.91c5.85,2.25,14.74,7.13,17.32,8.57a12.7,12.7,0,0,1,1.75,1.17c2.61,2.1,4.22,4.22,3.6,7.78-.65,3.74-4.92,5.94-8.68,7.89l-.87.44c-2.75,1.44-17.58,3.35-26,3.35a18.5,18.5,0,0,1-3.52-.22c-2.35-.53-6-2.12-9.8-6.72a8.73,8.73,0,0,1-1.71-5.59,22.2,22.2,0,0,1,.53-4.8l0-.2c0-.12,0-.25.08-.41a24.24,24.24,0,0,1,3.64-9.31,12.65,12.65,0,0,1,5.63-4.7,14.75,14.75,0,0,1,4.67-1c.4,0,.81-.05,1.21-.05m0-1.54a12.52,12.52,0,0,0-1.36.07,15.94,15.94,0,0,0-5.11,1.14,14.25,14.25,0,0,0-6.32,5.27,26.66,26.66,0,0,0-3.95,10.26c-.32,1.59-1.8,8,1.47,11.89,2.35,2.82,6,6.2,10.63,7.23a20.29,20.29,0,0,0,3.86.26c7.91,0,23.39-1.78,26.72-3.52,4-2.11,9.51-4.6,10.35-9.43.75-4.34-1.29-6.94-4.15-9.25a14.24,14.24,0,0,0-2-1.31A170.15,170.15,0,0,0,126.17,104c-3.48-1.34-5.76-2.34-7.55-3a14.48,14.48,0,0,0-5.13-.94Z"/><ellipse class="cls-3" cx="109.4" cy="122.14" rx="8.17" ry="10.23" transform="translate(-54.09 109.56) rotate(-43.75)"/><ellipse class="cls-3" cx="126.99" cy="125.45" rx="5.85" ry="7.33" transform="translate(-51.49 122.64) rotate(-43.75)"/><ellipse class="cls-3" cx="139.4" cy="121.55" rx="4.61" ry="5.77" transform="translate(-45.35 130.15) rotate(-43.75)"/><path class="cls-4" d="M136,91.82l-5.26-.29,6,6.37S123.6,93.71,124,94s6.53,4,6.53,4l-6.28-.25,6.45,4-6.42,0,3.33,2-2.68-.2,14.63,3.88-5.71-3.4,8.08,1.16-6.47-4.39,7,1.24-5.69-6.09L141,97.24l-6.8-4.07,6.44,2.14Z"/><polygon class="cls-4" points="111.29 93.44 117.15 91.64 112.24 94.43 117.31 93.54 109.45 96.92 111.58 96.96 106.32 99.59 111.29 93.44"/><ellipse class="cls-5" cx="109.03" cy="122.51" rx="2.78" ry="3.82" transform="translate(-54.44 109.41) rotate(-43.75)"/><ellipse class="cls-5" cx="127" cy="125.85" rx="2.4" ry="3.3" transform="translate(-45.74 79.73) rotate(-29.79)"/><ellipse class="cls-5" cx="139.68" cy="121.84" rx="1.78" ry="2.44" transform="translate(-42.07 85.49) rotate(-29.79)"/><path class="cls-6" d="M58.42,125.83a7.7,7.7,0,0,0-.83-3.41,5.65,5.65,0,0,0-.87-3,6.48,6.48,0,0,0-3.88-3l-.86-.15a7.37,7.37,0,0,0-.88-2.82,6.5,6.5,0,0,0-8.91-2.34,7.17,7.17,0,0,0-2.72,3.22A10.52,10.52,0,0,0,37,114a5.34,5.34,0,0,0-1.94-.88,6.66,6.66,0,0,0-8,4.55,9,9,0,0,0-.31,4.43,10.57,10.57,0,0,0-3.6,8,5.67,5.67,0,0,0,0,.92,7.16,7.16,0,0,0,1.11,3.51,6.69,6.69,0,0,0,3,3.54,5.61,5.61,0,0,0-.62,2.81,6.52,6.52,0,0,0,13,.23,6.33,6.33,0,0,0,3.12.8h1.54a4.81,4.81,0,0,0,2.52-.56,5.84,5.84,0,0,0,3.44-3.44,4.87,4.87,0,0,0,.56-2.51c-.07-.58-.15-1.15-.23-1.73a6.92,6.92,0,0,0-.7-1.63,5.6,5.6,0,0,0,2,.31,6.59,6.59,0,0,0,4.6-1.91A6.4,6.4,0,0,0,58.42,125.83Z"/><path class="cls-6" d="M23.6,118.36a7.75,7.75,0,0,0-1.36-2.55l-.09-.44a7.75,7.75,0,0,0-2.22-3.93,8.87,8.87,0,0,0-5.5-2.24l-1.73.23a4.84,4.84,0,0,0-2.21,1.17A6.2,6.2,0,0,0,8.15,114a24.45,24.45,0,0,1-.7,2.64l-.15.27-.52.32C4.53,118,2.24,119,1,121.08a7.12,7.12,0,0,0,0,7.18,6.92,6.92,0,0,0-.14.77,4.79,4.79,0,0,0,0,.85,6.66,6.66,0,0,0,1.9,4.6,7.22,7.22,0,0,0,.68.56,6.25,6.25,0,0,0,6.22,1,5.33,5.33,0,0,0,1.61.69,6.57,6.57,0,0,0,5-.66,7.44,7.44,0,0,0,3-3.89,26.25,26.25,0,0,0,1.32-4.86,11.54,11.54,0,0,0,.18-1.66A6.46,6.46,0,0,0,23.6,118.36Z"/><path class="cls-7" d="M57.08,130.2a6.32,6.32,0,0,0-3-3.89,12.68,12.68,0,0,0-2.59-.92l0-.19a6.35,6.35,0,0,0-.89-3.29l-1.17-1.7a4.9,4.9,0,0,0-1.68-1.82A5.83,5.83,0,0,0,43,117.1a4.89,4.89,0,0,0-2.43.78,6.59,6.59,0,0,0-3,3.89l-.23,1.73a6.81,6.81,0,0,0,0,.78,3.32,3.32,0,0,0-1.68-.46,3.46,3.46,0,0,0-2.41,1,3.56,3.56,0,0,0-1,2.41v1.36a3.44,3.44,0,0,0,.54,1.84,4.66,4.66,0,0,0-1.36,3.41,5.48,5.48,0,0,0,1.45,3.49,2.91,2.91,0,0,0-.3,1.42,3.46,3.46,0,0,0,3.4,3.4,3.54,3.54,0,0,0,3.2-2.21h.19a3.54,3.54,0,0,0,3.15-2.07,7.71,7.71,0,0,0,1.26.14c1.75,0,3.53,0,5.29.13a6.21,6.21,0,0,0,3.42.06,6.62,6.62,0,0,0,3.89-3A6.51,6.51,0,0,0,57.08,130.2Z"/><path class="cls-7" d="M21.19,119.36a4.59,4.59,0,0,0-.5-.24,1.22,1.22,0,0,0-.06-.26l-.22-1.52a2.63,2.63,0,0,0-.62-1.19,2.65,2.65,0,0,0-1-.9A3.48,3.48,0,0,0,14,116.5l-.36.84a3.66,3.66,0,0,0,0,1.86l.11.78a3.56,3.56,0,0,0-2.13,2l-.23,0a3.91,3.91,0,0,0-2,.53q-.24.17-.48.36a3.29,3.29,0,0,0-.49.26,2.88,2.88,0,0,0-1.09,1,2.82,2.82,0,0,0-.7,1.32l-.14,1a3.87,3.87,0,0,0,.53,2l.6.79a4,4,0,0,0,1.72,1c.33.06.67.11,1,.14a4.69,4.69,0,0,0,2.34,3.22,5.13,5.13,0,0,0,6.91-1.81c1.06-1.87,2.18-3.71,3.34-5.52A5.08,5.08,0,0,0,21.19,119.36Z"/></g><path class="cls-8" d="M173,163.72a5.07,5.07,0,0,1-.44.37c-1.12.86-4.53,3-11.63,4-7.59,1.1-19.39.95-37.1-3.37a273.87,273.87,0,0,1-37.14-12.28l-.25-.1,0,0a11.63,11.63,0,0,1-5.3-4.75l-.39-.7a11.53,11.53,0,0,1-1.25-6.65,8.18,8.18,0,0,1,3.8-6.14,6.77,6.77,0,0,1,.85-.43h0a180.67,180.67,0,0,1,30.44-11.52l1.63-.45c2.22-.59,4.5-1.15,6.82-1.66,3.63-.79,7.39-1.46,11.18-1.94l1.53-.19a87.53,87.53,0,0,1,19.08.09l1.62.19.52,1.43.09.25,11.28,30.89Z"/><path class="cls-9" d="M156.92,119.63c-5.5,2.65-12.83,5.83-18.75,8.51-29-.73-58.73,12.11-58.73,12.11a8.18,8.18,0,0,1,3.8-6.14,8.53,8.53,0,0,1,.85-.44h0a182.19,182.19,0,0,1,30.44-11.51l1.63-.45c2.22-.59,4.5-1.15,6.82-1.66,3.63-.79,7.39-1.46,11.18-1.94l1.53-.19a87.53,87.53,0,0,1,19.08.09l1.62.19Z"/><path class="cls-10" d="M172.53,164.09c-1.12.86-4.53,3-11.63,4-7.59,1.1-19.39.95-37.1-3.37a273.87,273.87,0,0,1-37.14-12.28l-.25-.1,0,0a11.63,11.63,0,0,1-5.3-4.75l-.39-.7c9.66,3.13,54.73,17.13,77.52,13.89C170.73,159,173.23,161.3,172.53,164.09Z"/><path class="cls-11" d="M200,142.36a74,74,0,0,1-14.07,15.07,59.85,59.85,0,0,1-5.31,3.76,44.46,44.46,0,0,1-11.26,5.16l-.49.15a18,18,0,0,1-3,1,17.65,17.65,0,0,1-2,.37,19.86,19.86,0,0,1-4.75,0H159l-.68-.09c-7.62-1.15-15.09-6.48-19.41-14.76-6-11.6-3.81-24.95,4.78-31.35a18.47,18.47,0,0,1,10-3.63c.46,0,.92,0,1.38,0a21.54,21.54,0,0,1,2.78.21,24.91,24.91,0,0,1,2.7.57v0c1.75.33,3.46.73,5.1,1.17a68,68,0,0,1,20,9.14A58.71,58.71,0,0,1,200,142.36Z"/><path class="cls-12" d="M200,142.36a74,74,0,0,1-14.07,15.07,59.85,59.85,0,0,1-5.31,3.76,44.46,44.46,0,0,1-11.26,5.16l-.49.15a18,18,0,0,1-3,1,20.1,20.1,0,0,1-3.47-.09l-.11,0h0c-.23,0-.45,0-.68-.09-7.62-1.15-15.09-6.47-19.41-14.76-6-11.6-3.81-25,4.77-31.35a18.41,18.41,0,0,1,6.67-3.13c.46,0,.92,0,1.38,0a21.54,21.54,0,0,1,2.78.21,24.91,24.91,0,0,1,2.7.57v0c1.75.33,3.46.73,5.1,1.17a68,68,0,0,1,20,9.14A58.71,58.71,0,0,1,200,142.36Z"/><path class="cls-13" d="M188.44,136.65a29,29,0,0,1-2.52,20.78,61.19,61.19,0,0,1-5.3,3.76,44.62,44.62,0,0,1-11.27,5.16l-.49.15a18.55,18.55,0,0,1-5.06,1.39c-8.89-2-16.7-9.95-19.28-20.77C141.64,135,146.2,123.2,155,118.05a21.69,21.69,0,0,1,2.79.21,24.91,24.91,0,0,1,2.7.57v0c1.75.33,3.46.73,5.1,1.17a68.08,68.08,0,0,1,20,9.14A31.17,31.17,0,0,1,188.44,136.65Z"/><path class="cls-14" d="M200,142.36a74,74,0,0,1-14.07,15.07,59.85,59.85,0,0,1-5.31,3.76,44.46,44.46,0,0,1-11.26,5.16,28.77,28.77,0,0,1-12.88-18.21c-2.72-11.45,1.21-22.66,9.08-28.19a67.57,67.57,0,0,1,20,9.14A58.66,58.66,0,0,1,200,142.36Z"/><path class="cls-15" d="M200,142.36a74,74,0,0,1-14.07,15.07,59.85,59.85,0,0,1-5.31,3.76,30,30,0,0,1-8.13-14.57c-2-8.45-.39-16.77,3.76-22.77a66.6,66.6,0,0,1,9.32,5.24A58.66,58.66,0,0,1,200,142.36Z"/><polygon class="cls-11" points="124.69 164.97 106.92 168.78 103.61 158.79 124.69 164.97"/><path class="cls-16" d="M134.79,119.24c.6,2.49-3.18,5.53-8.43,6.78s-10,.24-10.6-2.24a2.8,2.8,0,0,1,.4-2.06c2.22-.6,4.5-1.15,6.82-1.66,3.64-.8,7.39-1.47,11.18-2A2.35,2.35,0,0,1,134.79,119.24Z"/><path class="cls-17" d="M135.7,117.92l-1.54.18c-3.79.48-7.54,1.15-11.18,2q-3.49.77-6.82,1.66l-1.63.44a3.88,3.88,0,0,0-.08,2c.8,3.33,6.06,4.73,12.24,3.25s10.24-5.09,9.44-8.42A3.64,3.64,0,0,0,135.7,117.92Zm-9.34,8.17c-5.25,1.25-10,.24-10.59-2.25a2.84,2.84,0,0,1,.4-2.07c1.34-.35,2.71-.7,4.09-1,.9-.22,1.81-.43,2.73-.62,3.63-.8,7.38-1.47,11.17-2a2.51,2.51,0,0,1,.64,1.13c.6,2.49-3.17,5.53-8.43,6.78Z"/><g id="Layer_3" data-name="Layer 3"><path class="cls-18" d="M141.08,78.09l-23.63,1.18c-4,.08-6.84.83-7,4.71h0c.23,3.79,2.22,4.16,5.95,4.68l25,3.87a7.08,7.08,0,0,0,7.39-6.71h0C149,81.94,145,78.28,141.08,78.09Z"/><path class="cls-19" d="M139.27,78.16,114.65,79c-4,.08-4.79,8.87-1.07,9.38l25,3.87A7.08,7.08,0,0,0,146,85.54h0A7.07,7.07,0,0,0,139.27,78.16Z"/><path class="cls-20" d="M146.43,82.56s-.08-1.2-1.84-2.56c2.34-2,8.62-5.86,9.69-5.4a8.2,8.2,0,0,1,2.42,2.53,1.76,1.76,0,0,1-.74,2.75c-3.4,1.23-8.7,3-8.7,3Z"/><path class="cls-21" d="M144.55,80c2.33-2,8-6.44,9-6a9.17,9.17,0,0,1,2.54,2.34,1.73,1.73,0,0,1-.21,2.45,1.65,1.65,0,0,1-.53.31c-3.4,1.22-8.73,3.64-9,3.55A3.65,3.65,0,0,0,144.55,80Z"/><path class="cls-20" d="M146.82,87.3s.65-1,.08-3.15c3-.16,10.41.54,11,1.55a8.23,8.23,0,0,1,.39,3.47A1.76,1.76,0,0,1,156,90.92c-3.45-1.08-8.72-2.9-8.72-2.9Z"/><path class="cls-21" d="M146.89,84.09c3-.15,10.24-.31,10.81.7a9.33,9.33,0,0,1,.61,3.41A1.74,1.74,0,0,1,156.67,90a1.8,1.8,0,0,1-.61-.08c-3.45-1.08-9.16-2.38-9.33-2.63A3.67,3.67,0,0,0,146.89,84.09Z"/><path class="cls-20" d="M143.42,91.28s1.16-.32,2.15-2.31c2.39,1.91,6.48,5,6.24,6.12-.17.78-.17.89-1.08,1.88a1.81,1.81,0,0,1-2.84-.18,30.51,30.51,0,0,0-4.58-4.65Z"/><path class="cls-21" d="M145.6,88.92c2.38,1.91,6.92,4.22,6.68,5.37a3.21,3.21,0,0,1-.88,2,1.78,1.78,0,0,1-2.84-.18c-2.29-2.79-5.25-4.54-5.22-4.85A3.63,3.63,0,0,0,145.6,88.92Z"/><path class="cls-20" d="M141.92,78.13l1.82,1.37.92-.08c.92-.16,4.86-6.43,3.58-7.2s-3.21-1.4-3.63-1.09c-.05,0-.71.28-.71.28S141.52,78.22,141.92,78.13Z"/><path class="cls-21" d="M141,78.21a5,5,0,0,1,1.52.45,7.78,7.78,0,0,1,1.22.84c.76.56,4.86-6.43,3.58-7.19s-3.15-1.14-3.57-.83S140.55,78.32,141,78.21Z"/><ellipse class="cls-22" cx="138.78" cy="85.03" rx="2.76" ry="2.49" transform="translate(-12.85 144.16) rotate(-52.8)"/><path class="cls-23" d="M121.76,76.18s-21.62.42-30.14,3c0,0-21.61,9.47-39.15,19.78,3,.51,25.16-1.13,28-1.93S115.31,80.7,121.76,76.18Z"/><path class="cls-24" d="M85.22,92.21s-9.17-.59-10-.47,13.23-7.55,13.23-7.55,8.85.45,9.53.65S85.22,92.21,85.22,92.21Z"/><path class="cls-25" d="M52.23,99s13.44,30.83,19.5,37.29c3.19.78,22.16,0,27.11-2.51-1.18-3.72-16-34.89-18.59-36.71C77.68,96.6,60.84,97.37,52.23,99Z"/><path class="cls-5" d="M121.76,76.18s8.29,15,13.4,26.56c2,4.44-.08,10.75-.7,11.27-.85,2.25-36.75,21.39-39.64,21a13.51,13.51,0,0,0-.62-11.18c-3.82-7.43-9.37-17.73-14-26.76C81.24,95.73,114.75,78.47,121.76,76.18Z"/><path class="cls-1" d="M103.52,152.56a14.73,14.73,0,0,0-.75-2.24,170.46,170.46,0,0,0-8.56-17.56c-1.93-3.18-3.13-5.37-4.13-7a14.46,14.46,0,0,0-4.59-4.65,16,16,0,0,0-4.75-2.22,16.17,16.17,0,0,0-8.22.31c-6.76,1.72-10.42,2.28-11.72,2.85-1.22,1.06-6.22,7.68-6,12.78.14,3.67,1,8.6,4,12.23s15.45,21.2,20,21.08c5.31-.15,18.76-2.43,22.38-5.73C104.4,159.44,104.37,156.13,103.52,152.56Z"/><path class="cls-2" d="M79.46,167.38a37.56,37.56,0,0,1-6.42-.77l-1-.18c-1.92-.34-7.17-3-13.38-6.89s-11-7.35-12.35-8.95c-2.92-3.52-3.69-8.34-3.82-11.76-.11-3,1.8-6.22,5.69-9.56l.16-.13.3-.27a25,25,0,0,1,8.83-5.29,13.61,13.61,0,0,1,4.42-.73,12.69,12.69,0,0,1,3.36.43,15.54,15.54,0,0,1,4.54,2.13,13.85,13.85,0,0,1,4.35,4.4c.44.72.94,1.57,1.51,2.55.69,1.2,1.55,2.68,2.62,4.44,3.28,5.4,7.34,14.73,8.51,17.47a13.08,13.08,0,0,1,.71,2.11c.84,3.51.8,6.42-2.14,9.1A8.49,8.49,0,0,1,79.46,167.38Z"/><path d="M61.93,123.6a12.53,12.53,0,0,1,3.17.41,14.91,14.91,0,0,1,4.32,2,13.17,13.17,0,0,1,4.11,4.16c.43.71.92,1.55,1.49,2.54.7,1.19,1.56,2.68,2.63,4.44,3.25,5.36,7.3,14.65,8.47,17.37a12.89,12.89,0,0,1,.66,2c.78,3.26.76,5.92-1.91,8.37a7.69,7.69,0,0,1-5.41,1.71,35.47,35.47,0,0,1-6.28-.78l-1-.17c-1.8-.33-7.07-3-13.11-6.8s-10.9-7.27-12.17-8.79c-1.53-1.85-3.41-5.31-3.64-11.3a8.77,8.77,0,0,1,2.06-5.48,22.44,22.44,0,0,1,3.36-3.46l.16-.14.31-.28a24.42,24.42,0,0,1,8.57-5.14,13.16,13.16,0,0,1,4.17-.69m0-1.54a15,15,0,0,0-4.65.77,26.5,26.5,0,0,0-9.4,5.71c-1.23,1.06-6.3,5.21-6.11,10.31.14,3.68,1,8.61,4,12.23s21.71,15.31,26.18,16.11a43.9,43.9,0,0,0,7.51,1A9.2,9.2,0,0,0,85.9,166c3.26-3,3.23-6.29,2.38-9.85a14.73,14.73,0,0,0-.75-2.24A170.46,170.46,0,0,0,79,136.39c-1.93-3.18-3.13-5.37-4.13-7a14.66,14.66,0,0,0-4.6-4.64,16.08,16.08,0,0,0-4.75-2.22,13.8,13.8,0,0,0-3.56-.46Z"/><ellipse class="cls-3" cx="54.61" cy="140.5" rx="8.17" ry="10.23" transform="translate(-14.53 6.55) rotate(-6.06)"/><ellipse class="cls-3" cx="66.5" cy="153.87" rx="5.85" ry="7.33" transform="translate(-15.87 7.88) rotate(-6.06)"/><ellipse class="cls-3" cx="78.71" cy="158.37" rx="4.61" ry="5.77" transform="translate(-16.28 9.19) rotate(-6.06)"/><path class="cls-4" d="M94.2,132.76l-4-3.44L91,138s-7.81-11.33-7.65-10.84,2.74,7.12,2.74,7.12l-4.81-4L84,137.39l-5.06-3.93,1.42,3.62-2-1.79,9.2,12-2.44-6.19,5.68,5.83-2.44-7.41,4.79,5.27-.78-8.3,2.5,3.59-2.9-7.38,3.8,5.62Z"/><polygon class="cls-4" points="73.66 118.93 79.39 121.09 73.8 120.3 78.36 122.7 70.07 120.56 71.74 121.9 65.96 120.76 73.66 118.93"/><ellipse class="cls-5" cx="54.09" cy="140.56" rx="2.78" ry="3.82" transform="translate(-14.54 6.5) rotate(-6.06)"/><ellipse class="cls-5" cx="66.28" cy="154.19" rx="3.3" ry="2.4" transform="translate(-95.56 198.65) rotate(-82.1)"/><ellipse class="cls-5" cx="78.75" cy="158.77" rx="2.44" ry="1.78" transform="translate(-89.33 214.95) rotate(-82.1)"/><path class="cls-26" d="M81.1,150.34s-1.54-2.5-5.39-.83c-.88-1.62-2.79-6.06-9.79-4.89.19-1.6,2.36-8.63-3.5-14.81,2-1.11,3.2-1.84,6.12,1.15S81.31,149.51,81.1,150.34Z"/><path class="cls-27" d="M76.68,77.15l5.49,11.41,10-4.71c1.68-.8,1.8-4,.29-7.16s-4.11-5-5.78-4.24A2.33,2.33,0,0,0,85.56,74Z"/><path class="cls-28" d="M120,54a27.68,27.68,0,0,1-8.65,8.4,48.83,48.83,0,0,1-10.59,4.56c-12.68,4.21-21,.56-21,.56s-3.17-8.6-4.34-11.43,0-10,0-10Z"/><path class="cls-28" d="M44,91s4.23,3,11.7-1S72.88,77.65,72.88,77.65L75.38,65Z"/><path class="cls-5" d="M75,48.41l-3.89,1.87L77.31,63l3.8-1.84S76.45,53,75,48.41Z"/><polygon class="cls-29" points="81.11 61.18 80.24 65.77 77.53 67.08 77.31 63.01 81.11 61.18"/><polygon class="cls-30" points="84.08 59.75 73.67 64.76 83.16 82.78 92.92 77.8 84.08 59.75"/><path class="cls-31" d="M81,61.07l1.33,2.07a.4.4,0,0,0,.28.19l3.62.69a.41.41,0,0,0,.49-.33.38.38,0,0,0,0-.21l-.2-.65a.44.44,0,0,0-.26-.27l-4.76-2.1a.41.41,0,0,0-.53.26A.39.39,0,0,0,81,61.07Z"/><polygon class="cls-32" points="72.88 77.65 75.86 81.31 83.16 82.78 73.67 64.76 72.88 77.65"/><path class="cls-28" d="M77.33,63.39s.84,2.19.56,2.74a67.52,67.52,0,0,1-5.5,6.26c-.65.43-1.28-1.23-1.28-1.23Z"/><path class="cls-33" d="M77.33,63.39s1,2.65.44,2.93c-.53.66-4.56,5.36-4.56,5.36"/><path class="cls-34" d="M45.5,90.35a1.5,1.5,0,0,1-1.23-.64c-7.12-9.95-9-17.4-9.48-20.14a1.55,1.55,0,0,1,.58-1.5A156.19,156.19,0,0,1,67.93,49.69a1.52,1.52,0,0,1,1.84.58c2.69,4.25,6.18,11.46,6.74,13.95-.29,1.23-4.63,6.36-12.22,13.13S49.6,89.13,45.94,90.28A1.31,1.31,0,0,1,45.5,90.35Z"/><path class="cls-35" d="M68.49,50.69a.39.39,0,0,1,.34.19,71.1,71.1,0,0,1,6.51,13.26,26.28,26.28,0,0,1-3.69,4.56c-2.31,2.48-5.34,5.39-8.52,8.21-7.36,6.52-14.07,11.24-17.52,12.32l-.11,0a.41.41,0,0,1-.33-.18c-2.33-3.25-7.89-11.68-9.28-19.68A.4.4,0,0,1,36,69,155.43,155.43,0,0,1,68.35,50.72l.15,0m0-2.22a2.53,2.53,0,0,0-1,.2A156.33,156.33,0,0,0,34.71,67.2a2.65,2.65,0,0,0-1,2.58c1.49,8.5,7.36,17.36,9.67,20.59a2.64,2.64,0,0,0,2.14,1.1,2.59,2.59,0,0,0,.78-.12c9-2.82,31.92-24.43,31.35-27.22C77.1,61.52,73.41,54,70.71,49.71A2.6,2.6,0,0,0,68.5,48.5Z"/><polygon class="cls-30" points="93.55 81.08 95.42 86.13 84.85 91.46 83.49 86.16 93.55 81.08"/><polygon class="cls-32" points="77.42 86.04 76.48 91.1 84.85 91.46 83.49 86.16 77.42 86.04"/><ellipse class="cls-36" cx="79.43" cy="82.86" rx="3.36" ry="6.33" transform="translate(-28.08 42.64) rotate(-25.7)"/><path class="cls-37" d="M81,60.83a12.62,12.62,0,0,0,1.63,2.5l3.62.68"/><path class="cls-34" d="M86.53,61.46a8.82,8.82,0,0,1-3.11-.31c-1.59-1.93-5.19-9.25-6.85-13.9a1.46,1.46,0,0,1,.64-1.75,128.21,128.21,0,0,1,30.11-13.06,1.31,1.31,0,0,1,.39,0,1.48,1.48,0,0,1,1.1.49c5.59,6.18,8.88,15.95,10,19.85a1.44,1.44,0,0,1-.56,1.6C112.58,58.27,95,61.46,86.53,61.46Z"/><path class="cls-35" d="M107.7,33.56a.34.34,0,0,1,.25.11,40.69,40.69,0,0,1,6.49,10.51,73.84,73.84,0,0,1,3.28,8.88.3.3,0,0,1-.1.32c-2.49,1.72-7.81,3.5-14.62,4.91a92.26,92.26,0,0,1-16.47,2,13.18,13.18,0,0,1-2.43-.16,72.14,72.14,0,0,1-6.43-13.28.29.29,0,0,1,.12-.35,126.19,126.19,0,0,1,29.84-13,.09.09,0,0,1,.07,0m0-2.34a2.35,2.35,0,0,0-.69.1,126.75,126.75,0,0,0-30.4,13.19,2.61,2.61,0,0,0-1.14,3.13c1.68,4.74,5.38,12.3,7.11,14.33.38.45,1.82.65,3.94.65,8.14,0,26.23-3.06,32.41-7.33a2.62,2.62,0,0,0,1-2.89c-1.11-3.81-4.48-13.9-10.27-20.3A2.65,2.65,0,0,0,107.7,31.22Z"/><path class="cls-38" d="M62.49,73.1a8.78,8.78,0,0,1-7.68-4.95,9,9,0,0,1-.67-6.57A7.65,7.65,0,0,1,58,56.8,7.38,7.38,0,0,1,61.39,56a7,7,0,0,1,1.12.08A8.88,8.88,0,0,1,69.07,61a8.57,8.57,0,0,1-2.15,10.7,7.41,7.41,0,0,1-4.43,1.45Z"/><path class="cls-39" d="M61.39,57h0a6.37,6.37,0,0,1,1,.07,7.93,7.93,0,0,1,5.86,4.36A8.16,8.16,0,0,1,69,66.72a6.9,6.9,0,0,1-2.61,4.17,5.52,5.52,0,0,1-.93.57,6.48,6.48,0,0,1-2.93.7,7.84,7.84,0,0,1-6.84-4.43A8.09,8.09,0,0,1,55,61.84a6.76,6.76,0,0,1,3.41-4.2A6.52,6.52,0,0,1,61.39,57m0-1.88a8.24,8.24,0,0,0-3.78.89c-4.41,2.22-6,7.87-3.64,12.61A9.7,9.7,0,0,0,62.49,74a8.25,8.25,0,0,0,3.78-.9,7.83,7.83,0,0,0,1.21-.74,9.43,9.43,0,0,0,2.43-11.86,9.82,9.82,0,0,0-7.27-5.38,8.66,8.66,0,0,0-1.25-.09Z"/><path class="cls-38" d="M93,58.45a8.82,8.82,0,0,1-7.69-5,9,9,0,0,1-.66-6.57,7.63,7.63,0,0,1,3.89-4.78,7.39,7.39,0,0,1,3.36-.8,8.81,8.81,0,0,1,7.68,4.95,9,9,0,0,1,.66,6.57,7.6,7.6,0,0,1-3.89,4.78,7.38,7.38,0,0,1-3.35.8Z"/><path class="cls-39" d="M91.89,42.31a7.88,7.88,0,0,1,6.85,4.43c1.92,3.81.66,8.33-2.81,10.08a6.48,6.48,0,0,1-2.93.7,7.85,7.85,0,0,1-6.85-4.44C84.23,49.27,85.49,44.75,89,43a6.35,6.35,0,0,1,2.93-.69m0-1.89a8.44,8.44,0,0,0-3.78.9c-4.4,2.22-6,7.87-3.64,12.61A9.7,9.7,0,0,0,93,59.4a8.41,8.41,0,0,0,3.78-.9c4.4-2.22,6-7.86,3.64-12.61a9.72,9.72,0,0,0-8.53-5.47Z"/><ellipse class="cls-40" cx="79.35" cy="83.27" rx="1.46" ry="3.16" transform="translate(-29 44.67) rotate(-26.77)"/><path class="cls-41" d="M93.29,78.69c4.77-1.58,28.47-2.51,28.47-2.51s13.35,24.63,13.4,26.56c.61,2,1.73,4.28-.27,10.52-1,1.38-.77,2.8-28.08,16.69,0,0-9.46,4.77-11.34,5"/><path class="cls-41" d="M77.25,85.8S53,98.05,52.23,99c0,0,9.67,21.21,10.5,22.34"/><path class="cls-18" d="M47.05,88.25l21,11c3.62,1.77,5.85,3.63,4.39,7.23h0c-1.8,3.34-3.77,2.84-7.36,1.75l-24.34-7A7.08,7.08,0,0,1,36.81,92h0C38.28,88.42,43.47,86.79,47.05,88.25Z"/><path class="cls-19" d="M48.67,89.06l22,11.11c3.63,1.76.63,10.07-3,9l-24.33-7A7.07,7.07,0,0,1,39.47,93h0A7.08,7.08,0,0,1,48.67,89.06Z"/><path class="cls-20" d="M40.32,90.06a4.18,4.18,0,0,1,2.75-1.56c-1.29-2.76-5.36-8.94-6.53-9a8.37,8.37,0,0,0-3.25,1.27,1.76,1.76,0,0,0-.48,2.81C35.38,86.15,39.46,90,39.46,90Z"/><path class="cls-21" d="M43.12,88.49c-1.29-2.76-4.52-9.19-5.68-9.22a9.33,9.33,0,0,0-3.31,1.06,1.74,1.74,0,0,0-.84,2.31,2.15,2.15,0,0,0,.35.5c2.58,2.53,6.41,7,6.71,7A3.65,3.65,0,0,1,43.12,88.49Z"/><path class="cls-20" d="M38,94.19s-.18-1.18,1.24-2.9c-2.7-1.41-9.68-3.87-10.62-3.19a8.3,8.3,0,0,0-1.82,3,1.76,1.76,0,0,0,1.31,2.53c3.59.47,9.14,1,9.14,1Z"/><path class="cls-21" d="M39.28,91.25c-2.7-1.41-9.16-4.59-10.11-3.9a9.15,9.15,0,0,0-2,2.83,1.75,1.75,0,0,0,.74,2.35,1.9,1.9,0,0,0,.57.18c3.59.47,9.31,1.68,9.58,1.53A3.62,3.62,0,0,1,39.28,91.25Z"/><path class="cls-20" d="M39.39,99.23a4.16,4.16,0,0,1-1-3c-3,.73-8,1.8-8.23,2.94a2.91,2.91,0,0,0,.19,2.15,1.81,1.81,0,0,0,2.66,1,30.09,30.09,0,0,1,6.1-2.29Z"/><path class="cls-21" d="M38.41,96.18c-3,.73-8,.92-8.31,2.06a3.14,3.14,0,0,0,0,2.16,1.8,1.8,0,0,0,2.66,1c3.24-1.57,6.67-1.92,6.77-2.21A3.6,3.6,0,0,1,38.41,96.18Z"/><path class="cls-20" d="M46.28,87.92l-2.23.49s-.66-.37-.8-.47c-.78-.52-1.71-7.87-.22-8s3.5.08,3.75.53c0,.06.53.56.53.56S46.6,88.18,46.28,87.92Z"/><path class="cls-21" d="M47.08,88.39a4.84,4.84,0,0,0-1.56-.23,8.11,8.11,0,0,0-1.46.25c-.92.2-1.71-7.87-.22-8s3.33.3,3.59.75S47.44,88.68,47.08,88.39Z"/><ellipse class="cls-22" cx="46.24" cy="95.5" rx="2.49" ry="2.76" transform="translate(-19.36 12.1) rotate(-12.35)"/><path class="cls-42" d="M93.79,101.61,117.41,89a2,2,0,0,1,2.71.81l0,.1,6.68,14.43a2,2,0,0,1-.87,2.59l-23.65,12.63a2,2,0,0,1-2.7-.82.93.93,0,0,0,0-.1L92.92,104.2A2,2,0,0,1,93.79,101.61Z"/><path class="cls-43" d="M93.76,102.49,117.41,89.8a1.55,1.55,0,0,1,2.1.64l0,.07,6.72,14.5a1.54,1.54,0,0,1-.67,2L102,119.75a1.57,1.57,0,0,1-2.11-.65l0-.07-6.74-14.52A1.55,1.55,0,0,1,93.76,102.49Z"/><path class="cls-44" d="M112.61,101.52,98,109.2a1,1,0,0,1-1.34-.44l-2-4.27a1,1,0,0,1,.44-1.35l14.62-7.67a1,1,0,0,1,1.34.43l1.94,4.28A1,1,0,0,1,112.61,101.52Z"/><ellipse class="cls-45" cx="99.02" cy="104.92" rx="1.93" ry="2.41" transform="translate(-36.21 54.66) rotate(-26.27)"/><ellipse class="cls-46" cx="104.15" cy="102.16" rx="1.93" ry="2.41" transform="translate(-34.46 56.65) rotate(-26.27)"/><ellipse class="cls-47" cx="109.26" cy="99.62" rx="1.93" ry="2.41" transform="translate(-32.81 58.65) rotate(-26.27)"/><path class="cls-48" d="M111.48,106.67,100,112.76a1,1,0,0,1-1.4-.45h0a1.05,1.05,0,0,1,.45-1.4l11.49-6.09a1,1,0,0,1,1.39.45h0A1,1,0,0,1,111.48,106.67Z"/><path class="cls-49" d="M107.73,115.73l-5.11,2.68a1.05,1.05,0,0,1-1.4-.45h0a1.05,1.05,0,0,1,.46-1.4l5.11-2.68a1.05,1.05,0,0,1,1.4.46h0A1,1,0,0,1,107.73,115.73Z"/><path class="cls-49" d="M106.51,113.09l-5.12,2.68a1,1,0,0,1-1.39-.46h0a1,1,0,0,1,.45-1.39l5.12-2.68a1,1,0,0,1,1.39.46h0A1,1,0,0,1,106.51,113.09Z"/><polygon class="cls-50" points="112.32 94.28 119.26 90.5 126.09 105.22 119.04 108.95 112.32 94.28"/><ellipse class="cls-51" cx="118.87" cy="92.78" rx="0.86" ry="1" transform="translate(-28 58.59) rotate(-24.87)"/><path class="cls-52" d="M118.45,91.86a3.06,3.06,0,0,1,.79,1.84"/><path class="cls-52" d="M118.09,93.13a3.55,3.55,0,0,0,1.55-.72"/><ellipse class="cls-53" cx="119.52" cy="107.18" rx="0.86" ry="1" transform="translate(-33.99 60.21) rotate(-24.87)"/><path class="cls-52" d="M119.11,106.26a3.06,3.06,0,0,1,.79,1.84"/><path class="cls-52" d="M118.74,107.53a3.57,3.57,0,0,0,1.56-.72"/><ellipse class="cls-54" cx="124.48" cy="104.52" rx="0.86" ry="1" transform="translate(-32.41 62.04) rotate(-24.87)"/><path class="cls-52" d="M124.06,103.6a3.06,3.06,0,0,1,.79,1.83"/><path class="cls-52" d="M123.7,104.87a3.55,3.55,0,0,0,1.56-.73"/><ellipse class="cls-55" cx="114.53" cy="95.04" rx="0.86" ry="1" transform="translate(-29.35 56.98) rotate(-24.87)"/><path class="cls-52" d="M114.11,94.13A3.06,3.06,0,0,1,114.9,96"/><path class="cls-52" d="M113.75,95.39a3.62,3.62,0,0,0,1.56-.72"/><path class="cls-56" d="M98.6,112.31a7.89,7.89,0,0,1,4-1.83c2.21-.25,1.5-2,2.4-2.38s1.7.81,2.84.12.53-1,1.1-1.22.85.33,1.36,0,0-2.09.3-2.19"/><polygon class="cls-11" points="116.1 144.64 81.35 151.21 100.31 144.76 116.1 144.64"/><polygon class="cls-13" points="116.1 144.64 117.74 151.55 82.14 154.51 81.35 151.21 116.1 144.64"/><line class="cls-57" x1="58.98" y1="68.15" x2="59.81" y2="62.02"/><line class="cls-57" x1="89.69" y1="52.77" x2="90.52" y2="46.65"/><line class="cls-57" x1="59.93" y1="61.9" x2="65.98" y2="63.19"/><line class="cls-57" x1="90.61" y1="46.63" x2="96.65" y2="47.92"/></g></svg>