<svg id="Layer_1" data-name="Layer 1" xmlns="http://www.w3.org/2000/svg" xmlns:xlink="http://www.w3.org/1999/xlink" viewBox="0 0 300 200"><defs><style>.cls-1{fill:#00b1ff;}.cls-2{fill:#e2e2e2;}.cls-3{fill:#fdfeff;}.cls-4{fill:#41b9fa;}.cls-5{fill:#c4c4c4;}.cls-6{fill:#e5e5e5;}.cls-7{fill:#626c72;}.cls-8{fill:#96a5b3;}.cls-9{fill:#2f3e4a;}.cls-10{fill:#222d35;}.cls-11{fill:#353535;stroke-width:0.23px;}.cls-11,.cls-25,.cls-27,.cls-35,.cls-57{stroke:#000;}.cls-11,.cls-25,.cls-27{stroke-linejoin:round;}.cls-12,.cls-20,.cls-21{fill:#4d4d4d;}.cls-13{fill:#b3b3b3;}.cls-14{fill:#d3161d;}.cls-15{fill:#adadad;stroke:#080000;stroke-width:0.31px;}.cls-15,.cls-16,.cls-17,.cls-18,.cls-19,.cls-20,.cls-21,.cls-26,.cls-28,.cls-30,.cls-31,.cls-35,.cls-39,.cls-50,.cls-51,.cls-52,.cls-53,.cls-54,.cls-55,.cls-56,.cls-57{stroke-miterlimit:10;}.cls-16,.cls-31,.cls-35,.cls-39,.cls-51,.cls-55,.cls-56{fill:none;}.cls-16,.cls-17,.cls-28,.cls-30,.cls-39,.cls-55{stroke:#070707;}.cls-16{stroke-width:0.48px;}.cls-17{fill:#77401b;}.cls-17,.cls-18,.cls-39{stroke-width:0.32px;}.cls-18,.cls-22,.cls-57{fill:#f8c946;}.cls-18{stroke:#020202;}.cls-19,.cls-36{fill:#282828;}.cls-19,.cls-20,.cls-21{stroke:#151616;}.cls-19,.cls-20{stroke-width:0.26px;}.cls-21{stroke-width:0.95px;}.cls-23{fill:#683919;}.cls-24,.cls-30{fill:#945320;}.cls-25{fill:#515051;stroke-width:0.32px;}.cls-26,.cls-29{fill:#161616;}.cls-26,.cls-31,.cls-50,.cls-51,.cls-52,.cls-53,.cls-54,.cls-56{stroke:#0a0a0a;}.cls-26,.cls-27,.cls-28,.cls-30,.cls-31,.cls-35{stroke-width:0.27px;}.cls-27{fill:#8e8a8b;}.cls-28{fill:#e2b647;}.cls-32{fill:#dddbd7;}.cls-33{fill:#232323;}.cls-34{fill:#3a3a3a;}.cls-37{fill:#7c7c7c;}.cls-38{fill:#666;}.cls-40{fill:#389cce;}.cls-41{fill:#7f1119;}.cls-42{fill:#5e0e18;}.cls-43{fill:#352f49;}.cls-44{fill:#e41e00;}.cls-45{fill:#fffe28;}.cls-46{fill:#18ff08;}.cls-47{fill:#dbdddd;}.cls-48{fill:#0fb0db;}.cls-49{fill:#303435;}.cls-50,.cls-51,.cls-52,.cls-53,.cls-54{stroke-width:0.12px;}.cls-50{fill:url(#radial-gradient);}.cls-52{fill:url(#radial-gradient-2);}.cls-53{fill:url(#radial-gradient-3);}.cls-54{fill:url(#radial-gradient-4);}.cls-55{stroke-width:0.16px;}.cls-56,.cls-57{stroke-width:0.12px;}</style><radialGradient id="radial-gradient" cx="147.39" cy="13.27" r="1.39" gradientTransform="matrix(-1.38, 0, 0, 1.38, 321.49, 86.36)" gradientUnits="userSpaceOnUse"><stop offset="0.2" stop-color="#666"/><stop offset="0.57" stop-color="#585858"/><stop offset="1" stop-color="#4d4d4d"/></radialGradient><radialGradient id="radial-gradient-2" cx="141.75" cy="27.05" r="1.39" gradientTransform="matrix(-1.38, 0, 0, 1.38, 322.74, 85.8)" xlink:href="#radial-gradient"/><radialGradient id="radial-gradient-3" cx="147.55" cy="26.71" r="1.39" gradientTransform="matrix(-1.38, 0, 0, 1.38, 322.73, 86.33)" xlink:href="#radial-gradient"/><radialGradient id="radial-gradient-4" cx="142.34" cy="13.5" r="1.39" gradientTransform="matrix(-1.38, 0, 0, 1.38, 321.5, 85.9)" xlink:href="#radial-gradient"/></defs><title>sequence</title><path class="cls-1" d="M26.28,192.56c-10.87,0-19.72-9.61-19.72-21.42V28.64c0-11.82,8.85-21.43,19.72-21.43H273.65c10.87,0,19.71,9.61,19.71,21.43v142.5c0,11.81-8.84,21.42-19.71,21.42Z"/><path class="cls-2" d="M273.64,10.28c9.32,0,16.9,8.23,16.9,18.36v142.5c0,10.12-7.58,18.36-16.9,18.36H26.28c-9.32,0-16.9-8.24-16.9-18.36V28.64c0-10.13,7.58-18.36,16.9-18.36H273.64m0-6.13H26.28c-12.43,0-22.54,11-22.54,24.49v142.5c0,13.5,10.11,24.49,22.54,24.49H273.64c12.43,0,22.54-11,22.54-24.49V28.64c0-13.51-10.11-24.49-22.54-24.49"/><path class="cls-3" d="M273.65,1.24H26.28c-13.87,0-25.22,12.33-25.22,27.4v142.5c0,15.07,11.35,27.4,25.22,27.4H273.65c13.86,0,25.21-12.33,25.21-27.4V28.64c0-15.07-11.35-27.4-25.21-27.4m19.85,169.9a22.4,22.4,0,0,1-5.83,15.23,19,19,0,0,1-14,6.35H26.28a19,19,0,0,1-14-6.35,22.36,22.36,0,0,1-5.84-15.23V28.64A22.37,22.37,0,0,1,12.26,13.4a18.94,18.94,0,0,1,14-6.34H273.65a19,19,0,0,1,14,6.34,22.41,22.41,0,0,1,5.83,15.24Z"/><path class="cls-4" d="M30.73,8a3.52,3.52,0,0,1-.13.43Z"/><path class="cls-5" d="M31.76,4.7,30.73,8l-.13.43h0a2.74,2.74,0,0,1-2.51,1.81h-1.9C17,10.22,9.48,18.35,9.48,28.37v2.07a2.92,2.92,0,0,1-2,2.86h0L4,34.62l1-1.89a1.89,1.89,0,0,1-.2-.2A3.1,3.1,0,0,1,4,30.44V26.5C4,14.23,13.17,4.29,24.47,4.29h3.62A2.71,2.71,0,0,1,30.4,5.68Z"/><path class="cls-6" d="M31.94,3.52h0A3.39,3.39,0,0,1,28.7,7.05H26.44c-11,0-19.88,9.67-19.88,21.6V31.1a3.38,3.38,0,0,1-3.24,3.52A3.38,3.38,0,0,1,.08,31.1V26.42C.08,11.83,11,0,24.39,0H28.7a3.39,3.39,0,0,1,3.24,3.52"/><path class="cls-7" d="M3.25,29.4a1.91,1.91,0,0,1,0,3.81,1.91,1.91,0,0,1,0-3.81"/><path class="cls-8" d="M3.25,29.6a1.71,1.71,0,0,1,0,3.41,1.71,1.71,0,0,1,0-3.41"/><polygon class="cls-9" points="4.21 30.7 4.21 31.91 3.25 32.5 2.31 31.91 2.31 30.7 3.25 30.11 4.21 30.7"/><path class="cls-10" d="M4.21,30.7v.55a1.31,1.31,0,0,0-1-.47,1.2,1.2,0,0,0-.95.47V30.7l.94-.59Z"/><path class="cls-7" d="M28.85,1.58A1.84,1.84,0,0,1,30.6,3.49a1.76,1.76,0,1,1-3.5,0,1.84,1.84,0,0,1,1.75-1.91"/><path class="cls-8" d="M28.85,1.79a1.63,1.63,0,0,1,1.56,1.7,1.57,1.57,0,1,1-3.13,0,1.64,1.64,0,0,1,1.57-1.7"/><polygon class="cls-9" points="29.8 2.89 29.8 4.09 28.85 4.68 27.9 4.09 27.9 2.89 28.85 2.3 29.8 2.89"/><path class="cls-10" d="M29.8,2.89v.54A1.34,1.34,0,0,0,28.86,3a1.26,1.26,0,0,0-1,.47V2.89l1-.6Z"/><path class="cls-5" d="M268.32,4.73l1,3.28.14.43h0a2.72,2.72,0,0,0,2.51,1.8h1.9c9.23,0,16.71,8.13,16.71,18.16v2.06a2.94,2.94,0,0,0,2,2.87h0l3.41,1.32-1-1.9a1.21,1.21,0,0,0,.2-.19,3.07,3.07,0,0,0,.8-2.1V26.54c0-12.27-9.15-22.21-20.44-22.21H272a2.68,2.68,0,0,0-2.31,1.38Z"/><path class="cls-6" d="M268.13,3.56h0a3.39,3.39,0,0,0,3.25,3.52h2.26c11,0,19.87,9.67,19.87,21.6v2.46a3.26,3.26,0,1,0,6.49,0V26.46C300,11.86,289.11,0,275.69,0h-4.31a3.39,3.39,0,0,0-3.25,3.52"/><path class="cls-7" d="M296.82,29.43a1.92,1.92,0,1,0,1.75,1.91,1.84,1.84,0,0,0-1.75-1.91"/><path class="cls-8" d="M296.82,29.64a1.71,1.71,0,1,0,1.57,1.7,1.63,1.63,0,0,0-1.57-1.7"/><polygon class="cls-9" points="295.87 30.74 295.87 31.94 296.82 32.53 297.77 31.94 297.77 30.74 296.82 30.15 295.87 30.74"/><path class="cls-10" d="M295.87,30.74v.54a1.38,1.38,0,0,1,.94-.47,1.26,1.26,0,0,1,1,.47v-.54l-.95-.6Z"/><path class="cls-7" d="M271.23,1.62a1.83,1.83,0,0,0-1.75,1.91,1.76,1.76,0,1,0,3.5,0,1.84,1.84,0,0,0-1.75-1.91"/><path class="cls-8" d="M271.23,1.82a1.64,1.64,0,0,0-1.57,1.71,1.57,1.57,0,1,0,3.13,0,1.64,1.64,0,0,0-1.56-1.71"/><polygon class="cls-9" points="270.27 2.92 270.27 4.13 271.23 4.72 272.17 4.13 272.17 2.92 271.23 2.33 270.27 2.92"/><path class="cls-10" d="M270.27,2.93v.54a1.31,1.31,0,0,1,1-.47,1.2,1.2,0,0,1,.95.47V2.93l-.94-.6Z"/><path class="cls-5" d="M31.68,195.3l-1-3.28-.14-.43h0A2.73,2.73,0,0,0,28,189.78h-1.9c-9.23,0-16.71-8.13-16.71-18.15v-2.07a2.92,2.92,0,0,0-2-2.86h0L4,165.37l1,1.9a1.26,1.26,0,0,0-.2.2,3,3,0,0,0-.8,2.09v3.94c0,12.27,9.15,22.21,20.44,22.21H28a2.69,2.69,0,0,0,2.31-1.39Z"/><path class="cls-6" d="M31.87,196.48h0A3.4,3.4,0,0,0,28.62,193H26.36c-11,0-19.87-9.67-19.87-21.6V168.9a3.39,3.39,0,0,0-3.25-3.52A3.38,3.38,0,0,0,0,168.9v4.68C0,188.17,10.89,200,24.31,200h4.31a3.4,3.4,0,0,0,3.25-3.52"/><path class="cls-7" d="M3.18,170.6a1.91,1.91,0,0,0,0-3.81,1.91,1.91,0,0,0,0,3.81"/><path class="cls-8" d="M3.18,170.4a1.71,1.71,0,0,0,0-3.41,1.71,1.71,0,0,0,0,3.41"/><polygon class="cls-9" points="4.13 169.3 4.13 168.1 3.18 167.5 2.23 168.1 2.23 169.3 3.18 169.89 4.13 169.3"/><path class="cls-10" d="M4.13,169.3v-.55a1.28,1.28,0,0,1-.94.47,1.22,1.22,0,0,1-1-.47v.55l1,.59Z"/><path class="cls-7" d="M28.77,198.42A1.92,1.92,0,1,0,27,196.51a1.84,1.84,0,0,0,1.75,1.91"/><path class="cls-8" d="M28.77,198.21a1.71,1.71,0,1,0-1.56-1.7,1.64,1.64,0,0,0,1.56,1.7"/><polygon class="cls-9" points="29.73 197.11 29.73 195.91 28.77 195.32 27.83 195.91 27.83 197.11 28.77 197.7 29.73 197.11"/><path class="cls-10" d="M29.73,197.11v-.54a1.38,1.38,0,0,1-.95.47,1.23,1.23,0,0,1-1-.47v.54l.94.6Z"/><path class="cls-5" d="M268.24,195.27l1-3.28.13-.44h0a2.74,2.74,0,0,1,2.51-1.8h1.9c9.23,0,16.71-8.13,16.71-18.16v-2.06a3,3,0,0,1,2-2.87h0l3.41-1.32-1,1.9a1.8,1.8,0,0,1,.2.19,3.12,3.12,0,0,1,.8,2.1v3.93c0,12.27-9.15,22.21-20.44,22.21h-3.63a2.7,2.7,0,0,1-2.31-1.38Z"/><path class="cls-6" d="M268.06,196.44h0a3.38,3.38,0,0,1,3.24-3.52h2.26c11,0,19.88-9.67,19.88-21.6v-2.46a3.25,3.25,0,1,1,6.48,0v4.69c0,14.59-10.88,26.41-24.31,26.41H271.3a3.38,3.38,0,0,1-3.24-3.52"/><path class="cls-7" d="M296.75,170.57a1.92,1.92,0,1,1,1.75-1.91,1.84,1.84,0,0,1-1.75,1.91"/><path class="cls-8" d="M296.75,170.36a1.71,1.71,0,1,1,1.56-1.7,1.64,1.64,0,0,1-1.56,1.7"/><polygon class="cls-9" points="295.79 169.26 295.79 168.06 296.75 167.47 297.69 168.06 297.69 169.26 296.75 169.85 295.79 169.26"/><path class="cls-10" d="M295.79,169.26v-.54a1.38,1.38,0,0,0,.95.47,1.23,1.23,0,0,0,.95-.47v.54l-.94.6Z"/><path class="cls-7" d="M271.15,198.38a1.91,1.91,0,1,1,1.75-1.91,1.83,1.83,0,0,1-1.75,1.91"/><path class="cls-8" d="M271.15,198.18a1.71,1.71,0,1,1,1.57-1.71,1.64,1.64,0,0,1-1.57,1.71"/><polygon class="cls-9" points="270.2 197.07 270.2 195.87 271.15 195.28 272.1 195.87 272.1 197.07 271.15 197.67 270.2 197.07"/><path class="cls-10" d="M270.2,197.08v-.55a1.28,1.28,0,0,0,.94.47,1.22,1.22,0,0,0,1-.47v.55l-1,.59Z"/><path class="cls-11" d="M82.46,146.88a21.54,21.54,0,0,1,.66-3.29c1.29-4.49,5.31-18.08,9-26.27,2.16-4.83,3.46-8.12,4.58-10.59a20.65,20.65,0,0,1,5.66-7.37,22.89,22.89,0,0,1,6.3-4c3.68-1.49,7.69-1.51,11.64-1,9.83,1.24,15.09,1.38,17,2,1.9,1.28,10.12,9.73,10.74,17,.46,5.21.13,12.31-3.47,17.95s-18,32.62-24.48,33.25c-7.53.73-26.88-.1-32.56-4.13C82.44,156.73,81.88,152.07,82.46,146.88Z"/><path class="cls-12" d="M116.6,163.7a10.57,10.57,0,0,1-6.31-1.81c-4.63-3.28-5.19-7.35-4.62-12.46a18.81,18.81,0,0,1,.62-3.11c1.17-4,5.25-17.93,8.92-26.12,1.2-2.67,2.15-4.91,2.91-6.71.64-1.5,1.17-2.77,1.68-3.88a19.75,19.75,0,0,1,5.35-7,22.46,22.46,0,0,1,6-3.8,18.71,18.71,0,0,1,7.06-1.35,20.19,20.19,0,0,1,4,.39,36,36,0,0,1,13.39,5.91l.71.49c6.07,4,9.33,8.2,9.71,12.47.42,4.85.19,11.78-3.31,17.26-3.68,5.77-27.77,25.11-33.47,26.88l-1.32.42C124.33,162.42,120.3,163.7,116.6,163.7Z"/><path d="M138.23,98.57h0a18.8,18.8,0,0,1,3.73.37,34.76,34.76,0,0,1,13,5.74l.49.34.25.16c5.77,3.82,8.87,7.74,9.21,11.65.41,4.68.19,11.36-3.14,16.59-3.5,5.48-27.47,24.74-32.88,26.42l-1.32.42c-3.48,1.1-7.43,2.35-11,2.35a9.49,9.49,0,0,1-5.68-1.61c-4.19-3-4.7-6.73-4.17-11.45a18.66,18.66,0,0,1,.59-2.92c1.16-4,5.23-17.86,8.87-26,1.2-2.67,2.15-4.93,2.92-6.73.63-1.48,1.17-2.76,1.66-3.85a18.41,18.41,0,0,1,5.06-6.58,20.93,20.93,0,0,1,5.72-3.64,17.85,17.85,0,0,1,6.66-1.27m0-2.19a20,20,0,0,0-7.47,1.44,22.74,22.74,0,0,0-6.3,4,20.65,20.65,0,0,0-5.66,7.37c-1.12,2.47-2.42,5.77-4.58,10.59-3.67,8.19-7.69,21.78-9,26.27a21.78,21.78,0,0,0-.66,3.29c-.58,5.19,0,9.85,5.08,13.47a11.67,11.67,0,0,0,6.94,2c4.34,0,9-1.64,12.93-2.86,6.18-1.92,30.47-21.7,34.07-27.34s3.93-12.74,3.47-18c-.63-7.21-8.51-12.17-10.42-13.44a37.52,37.52,0,0,0-14.25-6.39,21,21,0,0,0-4.17-.43Z"/><ellipse class="cls-13" cx="149.26" cy="121.25" rx="11.61" ry="14.53" transform="translate(-2.23 2.8) rotate(-1.07)"/><ellipse class="cls-13" cx="134.86" cy="142.2" rx="8.32" ry="10.41" transform="translate(-2.63 2.54) rotate(-1.07)"/><ellipse class="cls-13" cx="118.44" cy="150.7" rx="6.54" ry="8.19" transform="translate(-2.79 2.23) rotate(-1.07)"/><ellipse class="cls-14" cx="150.01" cy="121.24" rx="3.95" ry="5.43" transform="translate(-2.23 2.82) rotate(-1.07)"/><ellipse class="cls-14" cx="135.24" cy="142.61" rx="3.41" ry="4.69" transform="translate(-32.31 39.88) rotate(-15.01)"/><ellipse class="cls-14" cx="118.46" cy="151.26" rx="2.53" ry="3.47" transform="translate(-35.13 35.83) rotate(-15.01)"/><path class="cls-15" d="M113.67,139.79s1.72-3.78,7.45-2.12c.94-2.44,2.86-9,12.94-8.62-.56-2.22-4.84-11.75,2.33-21.5-3-1.22-4.85-2-8.43,2.7S113.23,138.66,113.67,139.79Z"/><line class="cls-16" x1="96.74" y1="106.61" x2="119.35" y2="108.05"/><line class="cls-16" x1="109.33" y1="95.13" x2="134.5" y2="96.73"/><polyline class="cls-16" points="138.09 96.96 144.77 97.38 144.78 97.38"/><line class="cls-16" x1="90.69" y1="120.67" x2="113.22" y2="122.1"/><line class="cls-16" x1="85.84" y1="134.59" x2="108.28" y2="136.01"/><line class="cls-16" x1="82.3" y1="148.96" x2="104.48" y2="150.37"/><path class="cls-17" d="M81.85,95,113.45,83c5.32-2.22,9.43-2.85,11.9,2.12h0c1.88,5.1-.52,6.74-5.1,9.55L89.73,114.11a10.11,10.11,0,0,1-13.52-4.54h0C73.73,104.6,76.89,97.5,81.85,95Z"/><path class="cls-18" d="M84.25,94.06,117,81c5.32-2.22,11.38,8.85,6.8,11.67L93.24,112.13a10.1,10.1,0,0,1-13.52-4.53h0A10.12,10.12,0,0,1,84.25,94.06Z"/><path class="cls-19" d="M77.42,104s-.57-1.62.93-4.41c-4.18-1.23-14.65-2.72-15.79-1.49-.77.83-1.28,2.8-1.7,4.69a2.51,2.51,0,0,0,2.55,3.18c5.15-.35,13.09-1.13,13.09-1.13Z"/><path class="cls-20" d="M78.39,99.48c-4.18-1.23-14.13-3.86-15.27-2.63a13.38,13.38,0,0,0-2,4.53,2.48,2.48,0,0,0,2.55,3.18c5.16-.35,13.52-.26,13.85-.55A5.22,5.22,0,0,1,78.39,99.48Z"/><path class="cls-19" d="M79.64,110.37s-1.43-.93-1.92-4.07c-4.08,1.55-13.31,6.7-13.48,8.37-.11,1.13.67,3,1.48,4.76a2.51,2.51,0,0,0,4,1c3.9-3.4,9.75-8.82,9.75-8.82Z"/><path class="cls-20" d="M77.71,106.22c-4.08,1.55-13.59,5.48-13.75,7.14a13.07,13.07,0,0,0,1.16,4.82,2.48,2.48,0,0,0,3.95,1c3.9-3.4,10.61-8.39,10.7-8.82A5.2,5.2,0,0,1,77.71,106.22Z"/><path class="cls-19" d="M86.37,113.63s-1.69.25-4.14-1.78c-2,3.87-5.61,10.25-4.63,11.6.66.93.72,1.07,2.48,1.85a2.6,2.6,0,0,0,3.62-1.88A43.32,43.32,0,0,1,87,114.7Z"/><path class="cls-20" d="M82.17,111.8c-2,3.87-6.63,9.51-5.65,10.87a4.52,4.52,0,0,0,2.28,2.08,2.57,2.57,0,0,0,3.62-1.87c1.38-5,4.25-9,4-9.35A5.23,5.23,0,0,1,82.17,111.8Z"/><path class="cls-19" d="M80.77,95.55,79.18,98.4s-1,.36-1.26.42c-1.29.32-10-5.62-8.82-7.38s3.39-3.68,4.12-3.52c.09,0,1.09,0,1.09,0S81.35,95.45,80.77,95.55Z"/><path class="cls-20" d="M82,95.13a7.07,7.07,0,0,0-1.73,1.46,11.79,11.79,0,0,0-1.11,1.81c-.67,1.16-10.05-5.62-8.83-7.38s3.47-3.29,4.2-3.13S82.68,95,82,95.13Z"/><ellipse class="cls-21" cx="88.85" cy="102.76" rx="3.57" ry="3.95" transform="translate(-44.18 130.24) rotate(-60.82)"/><path class="cls-22" d="M102.58,86.1S130,71.79,142.44,69.17c0,0,33.61-3,62.68-2C201.78,69.79,172.8,83,168.66,83.93S113.78,87.34,102.58,86.1Z"/><path class="cls-23" d="M159.41,81.13s11.11-7,12.24-7.46-21.78-.4-21.78-.4-10.79,6.65-11.5,7.37S159.41,81.13,159.41,81.13Z"/><path class="cls-24" d="M205.47,67s4.31,47.9,1.14,60.17c-3.47,3.15-27.81,15.19-35.72,15.46-1.07-5.48-3.92-54.74-1.87-58.82C171.88,81.46,193.54,70.87,205.47,67Z"/><path class="cls-14" d="M102.58,86.1s-.07,24.56,1.43,42.53c.58,6.93,7.48,13.44,8.61,13.66,2.62,2.24,62,2.69,65.42.23a19.26,19.26,0,0,1-6.89-14.44c-.32-12-1.69-29.76-2.13-44.23C166.82,82.81,113,84.18,102.58,86.1Z"/><path class="cls-25" d="M159.79,56.37l1,18.09-15.83,1c-2.65.14-5-3.79-5.27-8.79s1.68-9.15,4.33-9.29a3.29,3.29,0,0,1,2.5,1.13Z"/><path class="cls-26" d="M89.56,57s6.17,3.83,16.61,4.61c4.64.34,10.64-.5,16.42-1.55,18.79-3.42,26.69-13.71,26.69-13.71s-1.93-13-2.4-17.32-7-12.48-7-12.48Z"/><path class="cls-26" d="M210.25,51.32S207,58,194.86,58.06s-30-3.68-30-3.68L153.1,40.26Z"/><path class="cls-14" d="M142.09,19.35l6.3-.54.91,20.24-6,.31S143.38,26.15,142.09,19.35Z"/><polygon class="cls-27" points="143.28 39.36 147.52 44.54 151.81 44.31 149.3 39.05 143.28 39.36"/><polygon class="cls-28" points="138.57 39.61 155.06 38.75 155.53 67.88 139.88 68.33 138.57 39.61"/><path class="cls-29" d="M143.29,39.19l-.25,3.5a.6.6,0,0,1-.22.43l-4.07,3.35a.6.6,0,0,1-1-.34l-.19-1a.58.58,0,0,1,.14-.52l4.52-5.89A.6.6,0,0,1,143.29,39.19Z"/><polygon class="cls-30" points="164.9 54.38 163.67 61.02 155.53 67.88 155.06 38.75 164.9 54.38"/><path class="cls-26" d="M149.53,39.54s.45,3.34,1.18,3.83a93.7,93.7,0,0,0,11.2,4.08c1.1.09.76-2.42.76-2.42Z"/><path class="cls-31" d="M149.53,39.54s.55,4,1.46,4c1.12.48,9.4,3.6,9.4,3.6"/><path class="cls-32" d="M202.71,52.1c-17,0-48.93-9.09-51.57-12.05-1-3.51-1.59-15-1.11-22.14a2.15,2.15,0,0,1,1.88-2,188.21,188.21,0,0,1,22.88-1.32,232.77,232.77,0,0,1,30.58,2,2.17,2.17,0,0,1,1.76,1.47c3.85,11.31,2.64,26,1.94,31.78a2.16,2.16,0,0,1-1.71,1.86,23.86,23.86,0,0,1-4.65.37Z"/><path class="cls-33" d="M174.79,16.17a232.42,232.42,0,0,1,30.36,2,.59.59,0,0,1,.48.42c3.74,11,2.55,25.4,1.87,31.08a.57.57,0,0,1-.45.5,23.09,23.09,0,0,1-4.34.34c-6.89,0-18.08-1.75-29.93-4.68-11.45-2.83-18.43-5.51-20.24-6.71-.81-3.59-1.4-14-.93-21.12a.56.56,0,0,1,.5-.53,186.81,186.81,0,0,1,22.68-1.31m0-3.16a190.38,190.38,0,0,0-23.07,1.33,3.72,3.72,0,0,0-3.27,3.46c-.48,7.18.1,19.21,1.22,22.85s36.25,13,53,13a26.24,26.24,0,0,0,5-.39,3.75,3.75,0,0,0,3-3.23c.68-5.64,2-20.79-2-32.48a3.76,3.76,0,0,0-3-2.53,233.73,233.73,0,0,0-30.79-2Z"/><polygon class="cls-28" points="141.33 72.88 142.46 80.5 159.37 79.94 157.44 72.34 141.33 72.88"/><polygon class="cls-30" points="164.97 68.03 169.62 73.73 159.37 79.94 157.44 72.34 164.97 68.03"/><ellipse class="cls-34" cx="160.27" cy="65.41" rx="4.8" ry="9.05" transform="translate(-3.19 8.43) rotate(-2.98)"/><path class="cls-35" d="M143.15,38.87s0,4-.33,4.25l-4.07,3.35"/><path class="cls-32" d="M93.86,56.39A18.15,18.15,0,0,1,92,56.3a2.08,2.08,0,0,1-1.81-1.63c-1.23-5.7-3.81-20.2-1-31.79a2.11,2.11,0,0,1,1.56-1.58,178.1,178.1,0,0,1,40.53-4.36c2,0,4.14,0,6.21.09a2.08,2.08,0,0,1,2,1.75c1.12,7,1.62,18.64,1,22.14C138.16,44.3,107.85,56.39,93.86,56.39Z"/><path class="cls-33" d="M131.21,15.28V18.6c2,0,4.1,0,6.16.09a.43.43,0,0,1,.4.35c1.13,7.07,1.51,17.5,1,21.1C135,43.57,107.46,54.73,93.86,54.73c-.63,0-1.21,0-1.72-.08a.43.43,0,0,1-.35-.33c-1.21-5.59-3.74-19.79-1.05-31a.44.44,0,0,1,.32-.35,176.53,176.53,0,0,1,40.15-4.32V15.28m0,0A176.23,176.23,0,0,0,90.3,19.69a3.77,3.77,0,0,0-2.8,2.8c-2.86,12-.17,27,1,32.53A3.72,3.72,0,0,0,91.79,58a19.14,19.14,0,0,0,2.07.1c14.72,0,47.32-12.87,48.11-16.68s.22-15.76-.92-22.86a3.73,3.73,0,0,0-3.58-3.14q-3.22-.09-6.26-.09Z"/><path class="cls-36" d="M169.7,42.86c-6.21,0-11.24-5.29-11.47-12s4.7-12.58,11-12.79h.36c6.21,0,11.24,5.28,11.47,12A12.89,12.89,0,0,1,178,39a10.89,10.89,0,0,1-7.91,3.87Z"/><path class="cls-37" d="M169.58,19.37h0c5.48,0,9.92,4.72,10.12,10.73S175.56,41.32,170,41.51h-.31c-5.48,0-9.92-4.71-10.13-10.73s4.15-11.22,9.7-11.4h.31m0-2.69h-.4c-7.05.23-12.55,6.58-12.3,14.18s6,13.33,12.82,13.33h.4c7-.24,12.55-6.59,12.29-14.19s-5.94-13.33-12.81-13.33Z"/><path class="cls-36" d="M121.38,45.42c-6.2,0-11.24-5.28-11.47-12A12.93,12.93,0,0,1,113,24.47a10.93,10.93,0,0,1,7.92-3.87h.36c6.2,0,11.24,5.29,11.46,12a12.84,12.84,0,0,1-3.08,8.92,10.89,10.89,0,0,1-7.91,3.87Z"/><path class="cls-37" d="M121.27,21.94h0c5.47,0,9.92,4.71,10.12,10.73s-4.15,11.22-9.7,11.4h-.31c-5.47,0-9.92-4.71-10.12-10.73S115.4,22.13,121,21.94h.32m0-2.69h-.41c-7,.24-12.55,6.59-12.29,14.19s5.94,13.33,12.81,13.33h.4c7.05-.23,12.55-6.58,12.3-14.18-.25-7.45-6-13.33-12.81-13.33Z"/><ellipse class="cls-38" cx="160.65" cy="65.89" rx="2.09" ry="4.52" transform="translate(-2.12 5.42) rotate(-1.92)"/><path class="cls-39" d="M140,69.71C133,71,102.58,86.1,102.58,86.1s.18,40.08,1.43,42.53c.6,2.9.77,6.56,7.57,13,2.2,1.05,3.14,3.86,46.93,2.54"/><path class="cls-39" d="M165,67.62s38.82-1.27,40.46-.58c0,0,2.44,33.26,2.16,35.24"/><ellipse class="cls-40" cx="123.37" cy="33.07" rx="4.76" ry="5.66" transform="translate(-1.04 4.15) rotate(-1.92)"/><ellipse class="cls-40" cx="171.7" cy="30.69" rx="4.76" ry="5.66" transform="translate(-0.93 5.76) rotate(-1.92)"/><path class="cls-17" d="M203.22,46.46,190.34,77.74c-2.35,5.26-3.09,9.35,1.81,12h0c5,2,6.74-.34,9.68-4.85l20.26-30a10.13,10.13,0,0,0-4.18-13.65h0C213,38.59,205.83,41.56,203.22,46.46Z"/><path class="cls-18" d="M202.2,48.83,188.28,81.2c-2.36,5.26,8.55,11.61,11.48,7.11L220,58.3a10.12,10.12,0,0,0-4.17-13.65h0A10.12,10.12,0,0,0,202.2,48.83Z"/><path class="cls-19" d="M212.27,42.26s-1.6-.62-4.43.82c-1.12-4.22-2.33-14.73-1.08-15.83.86-.76,2.84-1.22,4.74-1.59a2.52,2.52,0,0,1,3.11,2.63c-.49,5.15-1.48,13.07-1.48,13.07Z"/><path class="cls-20" d="M207.77,43.11c-1.12-4.21-3.48-14.23-2.23-15.34a13.26,13.26,0,0,1,4.59-1.86,2.48,2.48,0,0,1,3.11,2.63c-.49,5.15-.62,13.52-.92,13.84A5.22,5.22,0,0,0,207.77,43.11Z"/><path class="cls-19" d="M218.62,44.65s-.89-1.46-4-2c1.66-4,7.05-13.14,8.72-13.26,1.13-.08,3,.75,4.72,1.6a2.52,2.52,0,0,1,.89,4c-3.5,3.81-9.07,9.52-9.07,9.52Z"/><path class="cls-20" d="M214.52,42.6c1.66-4,5.84-13.44,7.5-13.56a13.15,13.15,0,0,1,4.78,1.29,2.49,2.49,0,0,1,.89,4c-3.5,3.8-8.66,10.39-9.09,10.47A5.22,5.22,0,0,0,214.52,42.6Z"/><path class="cls-19" d="M221.7,51.47s.29-1.69-1.67-4.19c3.92-1.92,10.39-5.34,11.71-4.33.91.68,1,.75,1.78,2.53a2.6,2.6,0,0,1-2,3.57,42.76,42.76,0,0,0-8.8,3.09Z"/><path class="cls-20" d="M220,47.22c3.92-1.92,9.68-6.38,11-5.37a4.55,4.55,0,0,1,2,2.34,2.56,2.56,0,0,1-2,3.56c-5,1.25-9.07,4-9.45,3.8A5.18,5.18,0,0,0,220,47.22Z"/><path class="cls-19" d="M203.78,45.38l2.89-1.51s.39-1,.45-1.24c.36-1.29-5.35-10.2-7.13-9s-3.77,3.29-3.63,4c0,.1-.07,1.1-.07,1.1S203.66,46,203.78,45.38Z"/><path class="cls-20" d="M203.33,46.63a7,7,0,0,1,1.5-1.69,11.71,11.71,0,0,1,1.84-1.07c1.17-.64-5.35-10.2-7.14-9s-3.38,3.38-3.24,4.12S203.19,47.28,203.33,46.63Z"/><ellipse class="cls-21" cx="210.77" cy="53.66" rx="3.56" ry="3.95" transform="translate(-1 103.22) rotate(-27.46)"/><path class="cls-41" d="M155.11,98.81l-38.28.39a2.84,2.84,0,0,0-2.81,3l1.51,22.67a2.84,2.84,0,0,0,2.87,2.66l38.33-.38a2.85,2.85,0,0,0,2.81-3L158,101.46A2.83,2.83,0,0,0,155.11,98.81Z"/><path class="cls-42" d="M155.77,99.89l-38.37.31a2.21,2.21,0,0,0-2.19,2.37l1.52,22.79a2.21,2.21,0,0,0,2.22,2.07l38.37-.25a2.21,2.21,0,0,0,2.19-2.37L158,102A2.21,2.21,0,0,0,155.77,99.89Z"/><path class="cls-43" d="M131.46,111.62l23.6-.41a1.43,1.43,0,0,0,1.38-1.46l-.5-6.71a1.43,1.43,0,0,0-1.46-1.38l-23.6.41a1.43,1.43,0,0,0-1.39,1.46l.5,6.7A1.44,1.44,0,0,0,131.46,111.62Z"/><ellipse class="cls-44" cx="150.84" cy="106.55" rx="2.76" ry="3.45" transform="translate(-4.36 6.46) rotate(-2.42)"/><ellipse class="cls-45" cx="142.52" cy="106.63" rx="2.76" ry="3.45" transform="translate(-4.37 6.11) rotate(-2.42)"/><ellipse class="cls-46" cx="134.37" cy="106.94" rx="2.76" ry="3.45" transform="translate(-4.39 5.77) rotate(-2.42)"/><path class="cls-47" d="M136.4,117.29l18.59-.24a1.48,1.48,0,0,0,1.43-1.53h0a1.49,1.49,0,0,0-1.52-1.44l-18.59.24a1.48,1.48,0,0,0-1.43,1.53h0A1.49,1.49,0,0,0,136.4,117.29Z"/><path class="cls-48" d="M147.33,126.1l8.25-.15a1.51,1.51,0,0,0,1.44-1.53h0a1.49,1.49,0,0,0-1.53-1.44l-8.25.15a1.5,1.5,0,0,0-1.44,1.53h0A1.49,1.49,0,0,0,147.33,126.1Z"/><path class="cls-48" d="M147.05,122l8.25-.16a1.48,1.48,0,0,0,1.44-1.52h0a1.48,1.48,0,0,0-1.53-1.44L147,119a1.5,1.5,0,0,0-1.44,1.53h0A1.5,1.5,0,0,0,147.05,122Z"/><polygon class="cls-49" points="126.85 102.33 115.55 102.36 117.09 125.52 128.5 125.36 126.85 102.33"/><ellipse class="cls-50" cx="117.6" cy="104.93" rx="1.23" ry="1.43" transform="translate(-6.7 8.03) rotate(-3.8)"/><path class="cls-51" d="M117.51,103.51a4.29,4.29,0,0,0,.27,2.84"/><path class="cls-51" d="M118.83,104.85a5.15,5.15,0,0,1-2.45.16"/><ellipse class="cls-52" cx="126.66" cy="123.45" rx="1.23" ry="1.43" transform="translate(-7.91 8.67) rotate(-3.8)"/><path class="cls-51" d="M126.56,122a4.35,4.35,0,0,0,.27,2.84"/><path class="cls-51" d="M127.89,123.37a5.18,5.18,0,0,1-2.46.16"/><ellipse class="cls-53" cx="118.62" cy="123.51" rx="1.23" ry="1.43" transform="matrix(1, -0.07, 0.07, 1, -7.93, 8.14)"/><path class="cls-51" d="M118.53,122.09a4.29,4.29,0,0,0,.27,2.84"/><path class="cls-51" d="M119.85,123.43a5.18,5.18,0,0,1-2.46.16"/><ellipse class="cls-54" cx="124.6" cy="104.79" rx="1.23" ry="1.43" transform="translate(-6.68 8.49) rotate(-3.8)"/><path class="cls-51" d="M124.5,103.37a4.35,4.35,0,0,0,.27,2.84"/><path class="cls-51" d="M125.83,104.71a5.29,5.29,0,0,1-2.46.17"/><path class="cls-55" d="M156.42,115.52a11.32,11.32,0,0,0-6.2.42c-2.94,1.21-3.25-1.47-4.64-1.34s-1.58,2.19-3.48,2.11-1.33-.85-2.22-.79-.84,1-1.69,1-1.39-2.65-1.88-2.55"/><path class="cls-11" d="M156,153.61a20.39,20.39,0,0,1,.66-3.29c1.29-4.49,5.31-18.08,9-26.27,2.17-4.83,3.47-8.12,4.59-10.59a20.65,20.65,0,0,1,5.66-7.37,22.82,22.82,0,0,1,6.29-4c3.69-1.49,7.7-1.51,11.64-1,9.84,1.24,15.1,1.38,17,2,1.91,1.28,10.12,9.73,10.75,17,.45,5.21.12,12.31-3.48,18s-18,32.62-24.48,33.25c-7.52.73-26.87-.1-32.56-4.13C156,163.46,155.44,158.8,156,153.61Z"/><path class="cls-12" d="M190.15,170.43a10.53,10.53,0,0,1-6.31-1.81c-4.62-3.28-5.19-7.35-4.62-12.46a19.83,19.83,0,0,1,.63-3.1c1.16-4.06,5.25-17.94,8.92-26.13,1.19-2.66,2.14-4.9,2.9-6.7.64-1.51,1.18-2.78,1.68-3.89a19.78,19.78,0,0,1,5.36-7,22.22,22.22,0,0,1,6-3.8,18.76,18.76,0,0,1,7.07-1.35,19.61,19.61,0,0,1,4,.4,35.82,35.82,0,0,1,13.38,5.9l.73.49c2.26,1.5,9.13,6,9.69,12.47.42,4.85.19,11.78-3.31,17.26-3.68,5.77-27.76,25.11-33.47,26.89l-1.31.41C197.88,169.15,193.85,170.43,190.15,170.43Z"/><path d="M211.79,105.3h0a18.8,18.8,0,0,1,3.73.37,34.61,34.61,0,0,1,13,5.74l.49.34.25.16c5.77,3.82,8.87,7.74,9.21,11.65.41,4.69.2,11.36-3.14,16.59-3.5,5.48-27.46,24.74-32.87,26.42l-1.32.42c-3.49,1.1-7.44,2.35-11,2.35a9.48,9.48,0,0,1-5.67-1.61c-4.19-3-4.7-6.72-4.17-11.45a16.62,16.62,0,0,1,.59-2.92c1.16-4,5.22-17.86,8.87-26,1.19-2.67,2.15-4.92,2.91-6.73.63-1.48,1.17-2.76,1.67-3.85a18.49,18.49,0,0,1,5.05-6.58,21,21,0,0,1,5.73-3.63,17.66,17.66,0,0,1,6.66-1.28m0-2.18a20.05,20.05,0,0,0-7.48,1.43,23.06,23.06,0,0,0-6.29,4,20.65,20.65,0,0,0-5.66,7.37c-1.12,2.47-2.43,5.77-4.59,10.59-3.66,8.19-7.68,21.78-9,26.27a19.56,19.56,0,0,0-.66,3.29c-.58,5.19,0,9.85,5.07,13.47a11.71,11.71,0,0,0,6.94,2c4.34,0,9-1.64,12.94-2.86,6.18-1.92,30.46-21.7,34.06-27.34s3.93-12.74,3.48-17.95c-.63-7.21-8.52-12.17-10.43-13.44A37.43,37.43,0,0,0,216,103.54a20.82,20.82,0,0,0-4.16-.42Z"/><ellipse class="cls-13" cx="222.82" cy="127.98" rx="11.61" ry="14.53" transform="translate(-2.35 4.18) rotate(-1.07)"/><ellipse class="cls-13" cx="208.41" cy="148.93" rx="8.32" ry="10.41" transform="translate(-2.74 3.91) rotate(-1.07)"/><ellipse class="cls-13" cx="192" cy="157.43" rx="6.54" ry="8.19" transform="translate(-2.9 3.61) rotate(-1.07)"/><ellipse class="cls-14" cx="223.56" cy="127.97" rx="3.95" ry="5.43" transform="translate(-2.35 4.19) rotate(-1.07)"/><ellipse class="cls-14" cx="208.79" cy="149.34" rx="3.41" ry="4.69" transform="translate(-31.55 59.16) rotate(-15.01)"/><ellipse class="cls-14" cx="192.01" cy="157.99" rx="2.53" ry="3.47" transform="translate(-34.36 55.11) rotate(-15.01)"/><path class="cls-15" d="M187.23,146.52s1.72-3.78,7.44-2.12c1-2.44,2.87-9,13-8.62-.57-2.22-4.85-11.75,2.32-21.5-3-1.21-4.84-2-8.43,2.7S186.78,145.39,187.23,146.52Z"/><line class="cls-16" x1="170.29" y1="113.34" x2="192.91" y2="114.78"/><line class="cls-16" x1="182.88" y1="101.86" x2="208.06" y2="103.46"/><polyline class="cls-16" points="211.65 103.69 218.33 104.11 218.33 104.11"/><line class="cls-16" x1="164.25" y1="127.4" x2="186.77" y2="128.83"/><line class="cls-16" x1="159.39" y1="141.32" x2="181.84" y2="142.74"/><line class="cls-16" x1="155.86" y1="155.69" x2="178.04" y2="157.1"/><line class="cls-56" x1="144.42" y1="38.88" x2="149.03" y2="38.48"/><ellipse class="cls-57" cx="113.66" cy="82.96" rx="2.79" ry="0.85" transform="translate(-15.88 28.01) rotate(-13.14)"/></svg>