<svg id="Layer_1" data-name="Layer 1" xmlns="http://www.w3.org/2000/svg" xmlns:xlink="http://www.w3.org/1999/xlink" viewBox="0 0 300 200"><defs><style>.cls-1,.cls-36,.cls-40,.cls-41,.cls-61{fill:none;}.cls-2{fill:#00b1ff;}.cls-3{fill:#e2e2e2;}.cls-4{fill:#fdfeff;}.cls-5{fill:#41b9fa;}.cls-6{fill:#c4c4c4;}.cls-7{fill:#e5e5e5;}.cls-8{fill:#626c72;}.cls-9{fill:#96a5b3;}.cls-10{fill:#2f3e4a;}.cls-11{fill:#222d35;}.cls-12{fill:#353535;stroke-width:0.22px;}.cls-12,.cls-43,.cls-44,.cls-62{stroke:#000;}.cls-12,.cls-21,.cls-43,.cls-44{stroke-linejoin:round;}.cls-13{fill:#4d4d4d;}.cls-14{fill:#b3b3b3;}.cls-15{fill:#f9f7f7;opacity:0.41;}.cls-16{fill:#d3161d;}.cls-17,.cls-25,.cls-47{fill:#945320;}.cls-17,.cls-18,.cls-19,.cls-20,.cls-21,.cls-22{stroke:#050505;}.cls-17,.cls-18,.cls-19,.cls-20,.cls-22,.cls-35,.cls-36,.cls-37,.cls-38,.cls-39,.cls-40,.cls-41,.cls-42,.cls-46,.cls-47,.cls-59,.cls-60,.cls-61,.cls-62{stroke-miterlimit:10;}.cls-17,.cls-20{stroke-width:0.26px;}.cls-18{fill:#1e1e1e;}.cls-18,.cls-19,.cls-21{stroke-width:0.27px;}.cls-19,.cls-21,.cls-22,.cls-48{fill:#3a3a3a;}.cls-20,.cls-23,.cls-62{fill:#f8c946;}.cls-22{stroke-width:0.39px;}.cls-24{fill:#683919;}.cls-26{fill:#7f1119;}.cls-27{fill:#5e0e18;}.cls-28{fill:#352f49;}.cls-29{fill:#e41e00;}.cls-30{fill:#fffe28;}.cls-31{fill:#18ff08;}.cls-32{fill:#dbdddd;}.cls-33{fill:#0fb0db;}.cls-34{fill:#303435;}.cls-35,.cls-36,.cls-37,.cls-38,.cls-39,.cls-61{stroke:#0a0a0a;}.cls-35,.cls-36,.cls-37,.cls-38,.cls-39{stroke-width:0.12px;}.cls-35{fill:url(#radial-gradient);}.cls-37{fill:url(#radial-gradient-2);}.cls-38{fill:url(#radial-gradient-3);}.cls-39{fill:url(#radial-gradient-4);}.cls-40,.cls-41,.cls-46,.cls-47{stroke:#070707;}.cls-40{stroke-width:0.15px;}.cls-41,.cls-42{stroke-width:0.3px;}.cls-42{fill:#adadad;stroke:#080000;}.cls-43{fill:#515051;stroke-width:0.3px;}.cls-44{fill:#8e8a8b;}.cls-44,.cls-46,.cls-47{stroke-width:0.26px;}.cls-45{fill:#161616;}.cls-46{fill:#e2b647;}.cls-49{fill:#666;}.cls-50{fill:#aa161d;}.cls-51{fill:#dddbd7;}.cls-52{fill:#212121;}.cls-53{fill:#282828;}.cls-54{fill:#7c7c7c;}.cls-55{fill:#389cce;}.cls-56{fill:#bfbfbf;}.cls-57,.cls-59{fill:#f2f2f2;}.cls-58{fill:#d3d3d3;}.cls-59{stroke:#bfbfbf;}.cls-59,.cls-60,.cls-61{stroke-width:0.18px;}.cls-60{fill:#020202;stroke:#020202;}.cls-62{stroke-width:0.13px;}.cls-63{opacity:0.7;}.cls-64{fill:#e78d00;}.cls-65{fill:#fff;}.cls-66{fill:#facb03;}.cls-67{fill:#ccc;}.cls-68{fill:#fefefe;}.cls-69{fill:#f7b808;}.cls-70{fill:#703500;}.cls-71{fill:#220b00;}.cls-72{opacity:0.8;}.cls-73{clip-path:url(#clip-path);}.cls-74{clip-path:url(#clip-path-2);}.cls-75{clip-path:url(#clip-path-3);}.cls-76{clip-path:url(#clip-path-4);}</style><radialGradient id="radial-gradient" cx="-4597.67" cy="-778.12" r="1.21" gradientTransform="matrix(-1.51, 0, 0, 1.51, -6817.03, 1275.5)" gradientUnits="userSpaceOnUse"><stop offset="0.2" stop-color="#666"/><stop offset="0.57" stop-color="#585858"/><stop offset="1" stop-color="#4d4d4d"/></radialGradient><radialGradient id="radial-gradient-2" cx="-4602.57" cy="-766.14" r="1.21" gradientTransform="matrix(-1.51, 0, 0, 1.51, -6816.44, 1275.25)" xlink:href="#radial-gradient"/><radialGradient id="radial-gradient-3" cx="-4597.53" cy="-766.44" r="1.21" gradientTransform="matrix(-1.51, 0, 0, 1.51, -6816.45, 1275.5)" xlink:href="#radial-gradient"/><radialGradient id="radial-gradient-4" cx="-4602.06" cy="-777.91" r="1.21" gradientTransform="matrix(-1.51, 0, 0, 1.51, -6817.03, 1275.29)" xlink:href="#radial-gradient"/><clipPath id="clip-path"><rect class="cls-1" x="114.46" y="141.75" width="4.01" height="4.01"/></clipPath><clipPath id="clip-path-2"><rect class="cls-1" x="114.46" y="141.75" width="4.01" height="4.01"/></clipPath><clipPath id="clip-path-3"><rect class="cls-1" x="117.82" y="145.79" width="15.6" height="11.48"/></clipPath><clipPath id="clip-path-4"><rect class="cls-1" x="117.82" y="145.79" width="15.58" height="11.48"/></clipPath></defs><title>speed-locked</title><path class="cls-2" d="M26.28,192.56c-10.87,0-19.72-9.61-19.72-21.42V28.64c0-11.82,8.85-21.43,19.72-21.43H273.65c10.87,0,19.71,9.61,19.71,21.43v142.5c0,11.81-8.84,21.42-19.71,21.42Z"/><path class="cls-3" d="M273.64,10.28c9.32,0,16.9,8.23,16.9,18.36v142.5c0,10.12-7.58,18.36-16.9,18.36H26.28c-9.32,0-16.9-8.24-16.9-18.36V28.64c0-10.13,7.58-18.36,16.9-18.36H273.64m0-6.13H26.28c-12.43,0-22.54,11-22.54,24.49v142.5c0,13.5,10.11,24.49,22.54,24.49H273.64c12.43,0,22.54-11,22.54-24.49V28.64c0-13.51-10.11-24.49-22.54-24.49"/><path class="cls-4" d="M273.65,1.24H26.28c-13.87,0-25.22,12.33-25.22,27.4v142.5c0,15.07,11.35,27.4,25.22,27.4H273.65c13.86,0,25.21-12.33,25.21-27.4V28.64c0-15.07-11.35-27.4-25.21-27.4m19.85,169.9a22.4,22.4,0,0,1-5.83,15.23,19,19,0,0,1-14,6.35H26.28a19,19,0,0,1-14-6.35,22.36,22.36,0,0,1-5.84-15.23V28.64A22.37,22.37,0,0,1,12.26,13.4a18.94,18.94,0,0,1,14-6.34H273.65a19,19,0,0,1,14,6.34,22.41,22.41,0,0,1,5.83,15.24Z"/><path class="cls-5" d="M30.73,8a3.52,3.52,0,0,1-.13.43Z"/><path class="cls-6" d="M31.76,4.7,30.73,8l-.13.43h0a2.74,2.74,0,0,1-2.51,1.81h-1.9C17,10.22,9.48,18.35,9.48,28.37v2.07a2.92,2.92,0,0,1-2,2.86h0L4,34.62l1-1.89a1.89,1.89,0,0,1-.2-.2A3.1,3.1,0,0,1,4,30.44V26.5C4,14.23,13.17,4.29,24.47,4.29h3.62A2.71,2.71,0,0,1,30.4,5.68Z"/><path class="cls-7" d="M31.94,3.52h0A3.39,3.39,0,0,1,28.7,7.05H26.44c-11,0-19.88,9.67-19.88,21.6V31.1a3.38,3.38,0,0,1-3.24,3.52A3.38,3.38,0,0,1,.08,31.1V26.42C.08,11.83,11,0,24.39,0H28.7a3.39,3.39,0,0,1,3.24,3.52"/><path class="cls-8" d="M3.25,29.4a1.91,1.91,0,0,1,0,3.81,1.91,1.91,0,0,1,0-3.81"/><path class="cls-9" d="M3.25,29.6a1.71,1.71,0,0,1,0,3.41,1.71,1.71,0,0,1,0-3.41"/><polygon class="cls-10" points="4.21 30.7 4.21 31.91 3.25 32.5 2.31 31.91 2.31 30.7 3.25 30.11 4.21 30.7"/><path class="cls-11" d="M4.21,30.7v.55a1.31,1.31,0,0,0-1-.47,1.2,1.2,0,0,0-.95.47V30.7l.94-.59Z"/><path class="cls-8" d="M28.85,1.58A1.84,1.84,0,0,1,30.6,3.49a1.76,1.76,0,1,1-3.5,0,1.84,1.84,0,0,1,1.75-1.91"/><path class="cls-9" d="M28.85,1.79a1.63,1.63,0,0,1,1.56,1.7,1.57,1.57,0,1,1-3.13,0,1.64,1.64,0,0,1,1.57-1.7"/><polygon class="cls-10" points="29.8 2.89 29.8 4.09 28.85 4.68 27.9 4.09 27.9 2.89 28.85 2.3 29.8 2.89"/><path class="cls-11" d="M29.8,2.89v.54A1.34,1.34,0,0,0,28.86,3a1.26,1.26,0,0,0-1,.47V2.89l1-.6Z"/><path class="cls-6" d="M268.32,4.73l1,3.28.14.43h0a2.72,2.72,0,0,0,2.51,1.8h1.9c9.23,0,16.71,8.13,16.71,18.16v2.06a2.94,2.94,0,0,0,2,2.87h0l3.41,1.32-1-1.9a1.21,1.21,0,0,0,.2-.19,3.07,3.07,0,0,0,.8-2.1V26.54c0-12.27-9.15-22.21-20.44-22.21H272a2.68,2.68,0,0,0-2.31,1.38Z"/><path class="cls-7" d="M268.13,3.56h0a3.39,3.39,0,0,0,3.25,3.52h2.26c11,0,19.87,9.67,19.87,21.6v2.46a3.26,3.26,0,1,0,6.49,0V26.46C300,11.86,289.11,0,275.69,0h-4.31a3.39,3.39,0,0,0-3.25,3.52"/><path class="cls-8" d="M296.82,29.43a1.92,1.92,0,1,0,1.75,1.91,1.84,1.84,0,0,0-1.75-1.91"/><path class="cls-9" d="M296.82,29.64a1.71,1.71,0,1,0,1.57,1.7,1.63,1.63,0,0,0-1.57-1.7"/><polygon class="cls-10" points="295.87 30.74 295.87 31.94 296.82 32.53 297.77 31.94 297.77 30.74 296.82 30.15 295.87 30.74"/><path class="cls-11" d="M295.87,30.74v.54a1.38,1.38,0,0,1,.94-.47,1.26,1.26,0,0,1,1,.47v-.54l-.95-.6Z"/><path class="cls-8" d="M271.23,1.62a1.83,1.83,0,0,0-1.75,1.91,1.76,1.76,0,1,0,3.5,0,1.84,1.84,0,0,0-1.75-1.91"/><path class="cls-9" d="M271.23,1.82a1.64,1.64,0,0,0-1.57,1.71,1.57,1.57,0,1,0,3.13,0,1.64,1.64,0,0,0-1.56-1.71"/><polygon class="cls-10" points="270.27 2.92 270.27 4.13 271.23 4.72 272.17 4.13 272.17 2.92 271.23 2.33 270.27 2.92"/><path class="cls-11" d="M270.27,2.93v.54a1.31,1.31,0,0,1,1-.47,1.2,1.2,0,0,1,.95.47V2.93l-.94-.6Z"/><path class="cls-6" d="M31.68,195.3l-1-3.28-.14-.43h0A2.73,2.73,0,0,0,28,189.78h-1.9c-9.23,0-16.71-8.13-16.71-18.15v-2.07a2.92,2.92,0,0,0-2-2.86h0L4,165.37l1,1.9a1.26,1.26,0,0,0-.2.2,3,3,0,0,0-.8,2.09v3.94c0,12.27,9.15,22.21,20.44,22.21H28a2.69,2.69,0,0,0,2.31-1.39Z"/><path class="cls-7" d="M31.87,196.48h0A3.4,3.4,0,0,0,28.62,193H26.36c-11,0-19.87-9.67-19.87-21.6V168.9a3.39,3.39,0,0,0-3.25-3.52A3.38,3.38,0,0,0,0,168.9v4.68C0,188.17,10.89,200,24.31,200h4.31a3.4,3.4,0,0,0,3.25-3.52"/><path class="cls-8" d="M3.18,170.6a1.91,1.91,0,0,0,0-3.81,1.91,1.91,0,0,0,0,3.81"/><path class="cls-9" d="M3.18,170.4a1.71,1.71,0,0,0,0-3.41,1.71,1.71,0,0,0,0,3.41"/><polygon class="cls-10" points="4.13 169.3 4.13 168.1 3.18 167.5 2.23 168.1 2.23 169.3 3.18 169.89 4.13 169.3"/><path class="cls-11" d="M4.13,169.3v-.55a1.28,1.28,0,0,1-.94.47,1.22,1.22,0,0,1-1-.47v.55l1,.59Z"/><path class="cls-8" d="M28.77,198.42A1.92,1.92,0,1,0,27,196.51a1.84,1.84,0,0,0,1.75,1.91"/><path class="cls-9" d="M28.77,198.21a1.71,1.71,0,1,0-1.56-1.7,1.64,1.64,0,0,0,1.56,1.7"/><polygon class="cls-10" points="29.73 197.11 29.73 195.91 28.77 195.32 27.83 195.91 27.83 197.11 28.77 197.7 29.73 197.11"/><path class="cls-11" d="M29.73,197.11v-.54a1.38,1.38,0,0,1-.95.47,1.23,1.23,0,0,1-1-.47v.54l.94.6Z"/><path class="cls-6" d="M268.24,195.27l1-3.28.13-.44h0a2.74,2.74,0,0,1,2.51-1.8h1.9c9.23,0,16.71-8.13,16.71-18.16v-2.06a3,3,0,0,1,2-2.87h0l3.41-1.32-1,1.9a1.8,1.8,0,0,1,.2.19,3.12,3.12,0,0,1,.8,2.1v3.93c0,12.27-9.15,22.21-20.44,22.21h-3.63a2.7,2.7,0,0,1-2.31-1.38Z"/><path class="cls-7" d="M268.06,196.44h0a3.38,3.38,0,0,1,3.24-3.52h2.26c11,0,19.88-9.67,19.88-21.6v-2.46a3.25,3.25,0,1,1,6.48,0v4.69c0,14.59-10.88,26.41-24.31,26.41H271.3a3.38,3.38,0,0,1-3.24-3.52"/><path class="cls-8" d="M296.75,170.57a1.92,1.92,0,1,1,1.75-1.91,1.84,1.84,0,0,1-1.75,1.91"/><path class="cls-9" d="M296.75,170.36a1.71,1.71,0,1,1,1.56-1.7,1.64,1.64,0,0,1-1.56,1.7"/><polygon class="cls-10" points="295.79 169.26 295.79 168.06 296.75 167.47 297.69 168.06 297.69 169.26 296.75 169.85 295.79 169.26"/><path class="cls-11" d="M295.79,169.26v-.54a1.38,1.38,0,0,0,.95.47,1.23,1.23,0,0,0,.95-.47v.54l-.94.6Z"/><path class="cls-8" d="M271.15,198.38a1.91,1.91,0,1,1,1.75-1.91,1.83,1.83,0,0,1-1.75,1.91"/><path class="cls-9" d="M271.15,198.18a1.71,1.71,0,1,1,1.57-1.71,1.64,1.64,0,0,1-1.57,1.71"/><polygon class="cls-10" points="270.2 197.07 270.2 195.87 271.15 195.28 272.1 195.87 272.1 197.07 271.15 197.67 270.2 197.07"/><path class="cls-11" d="M270.2,197.08v-.55a1.28,1.28,0,0,0,.94.47,1.22,1.22,0,0,0,1-.47v.55l-1,.59Z"/><path class="cls-12" d="M68.34,143.72a18.17,18.17,0,0,1,.69-3.11c1.3-4.25,5.36-17.1,9-24.81,2.14-4.55,3.44-7.66,4.55-10a19.69,19.69,0,0,1,5.51-6.9,21.77,21.77,0,0,1,6.06-3.66,22,22,0,0,1,11.09-.76c9.32,1.35,14.33,1.58,16.15,2.17,1.79,1.24,9.45,9.42,9.92,16.29.34,5-.1,11.71-3.62,17s-17.74,30.69-23.87,31.17c-7.17.56-25.55-.58-30.89-4.51C68.14,153.08,67.7,148.64,68.34,143.72Z"/><path class="cls-13" d="M100.79,160.31a10.19,10.19,0,0,1-6.26-1.83c-4.34-3.2-4.81-7.08-4.17-11.92a16.91,16.91,0,0,1,.65-2.94c1.18-3.84,5.31-17,8.94-24.68,1.18-2.51,2.13-4.62,2.89-6.32.63-1.42,1.16-2.62,1.66-3.66a18.7,18.7,0,0,1,5.22-6.53,20.79,20.79,0,0,1,5.78-3.51,17.92,17.92,0,0,1,6.39-1.17,19,19,0,0,1,4.1.46,33.81,33.81,0,0,1,12.62,5.85l.68.48c2.12,1.46,8.58,5.91,9,12,.31,4.62,0,11.2-3.45,16.35-3.61,5.41-26.85,23.37-32.3,25l-1.27.37C108,159.21,104.22,160.31,100.79,160.31Z"/><path d="M121.89,98.79h0a18,18,0,0,1,3.87.43A33.16,33.16,0,0,1,138,104.9l.46.33.23.16c5.42,3.73,8.3,7.51,8.56,11.24.3,4.46,0,10.8-3.29,15.7-3.42,5.15-26.55,23-31.72,24.53l-1.27.38c-3.24.95-6.91,2-10.19,2a9.18,9.18,0,0,1-5.65-1.63c-3.93-2.89-4.34-6.47-3.75-10.95a16.06,16.06,0,0,1,.61-2.77c1.17-3.82,5.28-16.87,8.89-24.54,1.19-2.52,2.13-4.64,2.9-6.35.62-1.39,1.16-2.6,1.64-3.62a17.81,17.81,0,0,1,4.93-6.17,19.86,19.86,0,0,1,5.51-3.35,16.77,16.77,0,0,1,6-1.1m0-2.07A18.89,18.89,0,0,0,115.13,98a21.78,21.78,0,0,0-6.06,3.67,19.58,19.58,0,0,0-5.51,6.9c-1.11,2.32-2.41,5.43-4.55,10-3.63,7.72-7.69,20.57-9,24.81a19.62,19.62,0,0,0-.68,3.11c-.65,4.92-.2,9.37,4.58,12.89a11.25,11.25,0,0,0,6.88,2c4,0,8.37-1.43,12-2.49,5.91-1.72,29.35-20.09,32.87-25.38s4-12,3.62-17c-.46-6.87-7.88-11.72-9.67-13a35.74,35.74,0,0,0-13.44-6.34,20.27,20.27,0,0,0-4.32-.47Z"/><ellipse class="cls-14" cx="132.31" cy="120.55" rx="11.04" ry="13.82"/><ellipse class="cls-14" cx="118.24" cy="140.2" rx="7.91" ry="9.9"/><ellipse class="cls-14" cx="102.48" cy="147.99" rx="6.22" ry="7.79"/><path class="cls-15" d="M78,115.8l4.88-5.2L83,122.38s8.87-16.33,8.73-15.65-2.67,10-2.67,10L95,110.6l-2.53,10,6.23-6-1.38,5.06,2.44-2.69L89.1,134.37l2.39-8.66-6.79,8.66L86.92,124l-5.68,7.76-.14-11.26-2.84,5.17,2.84-10.32-4.3,8.1Z"/><polygon class="cls-15" points="103.65 94.3 96.26 98.01 103.65 96.15 97.88 100.03 108.71 95.97 106.66 98.01 114.25 95.65 103.65 94.3"/><ellipse class="cls-16" cx="133.02" cy="120.55" rx="3.75" ry="5.16"/><ellipse class="cls-16" cx="118.59" cy="140.6" rx="3.24" ry="4.46" transform="translate(-30.41 32.76) rotate(-13.96)"/><ellipse class="cls-16" cx="102.48" cy="148.52" rx="2.4" ry="3.3" transform="translate(-32.8 29.11) rotate(-13.96)"/><path class="cls-17" d="M139.25,67.22c.61,1.66,1,4.66-1.37,9.3a14.12,14.12,0,0,1-6.29,4.4c-2.22.83-19.18,6.44-26.17,8.75l-.79,3.84-4.53-2.67h0a2.81,2.81,0,0,1-.8-.73,11.63,11.63,0,0,1-1-5.82c.41-1,.32-.92,1.75-1.83l28.58-18.19s4.55-2.47,7.76-.79l.4.23h0L141,66.16Z"/><path class="cls-18" d="M139.23,65.41s8-9.65,10.49-8.19,3.71,3.06,3.47,4.61-10.52,5.71-11.24,6S142.09,65.52,139.23,65.41Z"/><path class="cls-19" d="M140.11,66.8s8-9.66,10.49-8.19,3.7,3.06,3.46,4.61-10.51,5.71-11.23,6S143,66.91,140.11,66.8Z"/><path class="cls-18" d="M142,69.5c1.78-.38,13.37-3.15,14.41-.48,1,2.44.82,4.32-.48,5.35S143.3,73,142.53,72.78,144.28,71.13,142,69.5Z"/><path class="cls-19" d="M143.18,70.66s12.64-3.18,13.59-.74,1,4.78-.32,5.82-12-1.61-12.77-1.81S145.43,72.29,143.18,70.66Z"/><path class="cls-18" d="M142.33,74.4s9.55.81,9.73,3.14-.28,3.91-1.35,4.48-8.19-4.32-8.67-4.68S143.52,76.35,142.33,74.4Z"/><path class="cls-19" d="M142.33,75.78s9.55.81,9.73,3.14-.28,3.92-1.35,4.49-8.19-4.33-8.67-4.69S143.52,77.74,142.33,75.78Z"/><path class="cls-20" d="M104.63,85.14,133.22,67s7.38-4,10,1.66c.55,1,2.53,4.23-.75,10.59a14,14,0,0,1-6.28,4.4C133.35,84.65,107,93.34,107,93.34a2.19,2.19,0,0,1-3.14-.55,11.52,11.52,0,0,1-1-5.81C103.29,86,103.2,86.05,104.63,85.14Z"/><path class="cls-18" d="M134.86,64.39s.86-11.34,3.3-11.54,4.1.34,4.69,1.61-4.33,9.54-4.71,10.1a10.19,10.19,0,0,0-1.89.86S135.78,65.11,134.86,64.39Z"/><path class="cls-21" d="M136.25,65.42s.86-11.33,3.3-11.53,4.1.33,4.69,1.61-4.33,9.53-4.71,10.1C139.08,65.5,138.3,64,136.25,65.42Z"/><ellipse class="cls-22" cx="137.25" cy="74.4" rx="3.17" ry="3.7"/><path class="cls-23" d="M89.39,86.26s26.33-12.63,38.17-14.71c0,0,31.83-1.72,59.25,0-3.24,2.41-31,13.93-35,14.71S99.92,87.79,89.39,86.26Z"/><path class="cls-24" d="M143.21,83.37s10.7-6.3,11.79-6.65-20.55-1.06-20.55-1.06-10.4,5.92-11.1,6.58S143.21,83.37,143.21,83.37Z"/><path class="cls-25" d="M187.14,71.53s2.56,45.36-.82,56.83c-3.39,2.87-26.75,13.46-34.23,13.46-.84-5.2-2-51.79.1-55.57C155,84.08,175.76,74.77,187.14,71.53Z"/><path class="cls-16" d="M89.39,86.26s-.85,23.18,0,40.19c.32,6.55,6.63,12.92,7.69,13.16,2.4,2.2,57.34,3.46,60.61,1.25A18.19,18.19,0,0,1,151.64,127c.08-11.29.51-27.09.55-40.76C150.15,85.19,99.24,84.78,89.39,86.26Z"/><path class="cls-26" d="M138.59,99.92l-36.16-.85a2.7,2.7,0,0,0-2.76,2.78l.71,21.46a2.69,2.69,0,0,0,2.63,2.6l36.2.85A2.69,2.69,0,0,0,142,124l-.75-21.45A2.69,2.69,0,0,0,138.59,99.92Z"/><path class="cls-27" d="M139.17,101,102.93,100a2.1,2.1,0,0,0-2.15,2.16l.72,21.57a2.08,2.08,0,0,0,2,2l36.24,1a2.09,2.09,0,0,0,2.14-2.17l-.7-21.61A2.1,2.1,0,0,0,139.17,101Z"/><path class="cls-28" d="M115.84,111.26l22.3.37a1.35,1.35,0,0,0,1.35-1.34l-.25-6.34a1.36,1.36,0,0,0-1.34-1.36l-22.3-.36a1.36,1.36,0,0,0-1.36,1.34l.26,6.34A1.35,1.35,0,0,0,115.84,111.26Z"/><ellipse class="cls-29" cx="134.31" cy="107.1" rx="2.61" ry="3.26" transform="translate(-0.93 1.18) rotate(-0.5)"/><ellipse class="cls-30" cx="126.44" cy="106.9" rx="2.61" ry="3.26" transform="translate(-0.93 1.11) rotate(-0.5)"/><ellipse class="cls-31" cx="118.74" cy="106.94" rx="2.61" ry="3.26" transform="matrix(1, -0.01, 0.01, 1, -0.93, 1.04)"/><path class="cls-32" d="M120.33,116.77l17.56.36a1.39,1.39,0,0,0,1.4-1.39h0a1.4,1.4,0,0,0-1.39-1.41L120.34,114a1.4,1.4,0,0,0-1.4,1.39h0A1.4,1.4,0,0,0,120.33,116.77Z"/><path class="cls-33" d="M130.37,125.43l7.8.12a1.4,1.4,0,0,0,1.4-1.4h0a1.4,1.4,0,0,0-1.39-1.4l-7.8-.12A1.42,1.42,0,0,0,129,124h0A1.4,1.4,0,0,0,130.37,125.43Z"/><path class="cls-33" d="M130.24,121.51l7.8.11a1.4,1.4,0,0,0,1.4-1.39h0a1.4,1.4,0,0,0-1.39-1.41l-7.8-.12a1.42,1.42,0,0,0-1.41,1.4h0A1.42,1.42,0,0,0,130.24,121.51Z"/><polygon class="cls-34" points="111.78 102.35 101.11 102.02 101.84 123.93 112.61 124.14 111.78 102.35"/><ellipse class="cls-35" cx="102.97" cy="104.51" rx="1.16" ry="1.35" transform="matrix(1, -0.03, 0.03, 1, -3.39, 3.46)"/><path class="cls-36" d="M102.93,103.17a4.09,4.09,0,0,0,.16,2.69"/><path class="cls-36" d="M104.14,104.48a4.94,4.94,0,0,1-2.33.07"/><ellipse class="cls-37" cx="110.94" cy="122.28" rx="1.16" ry="1.35" transform="translate(-3.98 3.73) rotate(-1.89)"/><path class="cls-36" d="M110.89,120.93a4,4,0,0,0,.17,2.69"/><path class="cls-36" d="M112.1,122.24a4.89,4.89,0,0,1-2.33.08"/><ellipse class="cls-38" cx="103.35" cy="122.08" rx="1.16" ry="1.35" transform="translate(-3.97 3.48) rotate(-1.89)"/><path class="cls-36" d="M103.3,120.73a4.12,4.12,0,0,0,.16,2.7"/><path class="cls-36" d="M104.51,122a4.89,4.89,0,0,1-2.33.08"/><ellipse class="cls-39" cx="109.58" cy="104.6" rx="1.16" ry="1.35" transform="translate(-3.39 3.67) rotate(-1.89)"/><path class="cls-36" d="M109.54,103.26a4.09,4.09,0,0,0,.16,2.69"/><path class="cls-36" d="M110.74,104.57a4.9,4.9,0,0,1-2.32.07"/><path class="cls-40" d="M139.29,115.74a10.65,10.65,0,0,0-5.87.19c-2.81,1-3-1.48-4.34-1.41s-1.56,2-3.35,1.88-1.23-.84-2.07-.81-.82.92-1.63.84-1.22-2.54-1.69-2.46"/><path class="cls-41" d="M125.25,72c-6.71,1-35.86,14.28-35.86,14.28s-1.11,37.83,0,40.19c.47,2.75.51,6.21,6.73,12.52,2,1.05,2.62,2.91,44,3.05"/><path class="cls-41" d="M148.92,70.8s36.69,0,38.22.73c0,0,1.25,31.47.93,33.34"/><path class="cls-12" d="M137.43,152.38a19.62,19.62,0,0,1,.68-3.11c1.31-4.24,5.37-17.09,9-24.81,2.14-4.54,3.44-7.66,4.55-10a19.58,19.58,0,0,1,5.51-6.9,21.54,21.54,0,0,1,6.06-3.66,21.77,21.77,0,0,1,11.08-.76c9.33,1.35,14.33,1.57,16.16,2.16,1.79,1.25,9.45,9.43,9.92,16.3.34,5-.1,11.7-3.62,17S179,169.3,172.9,169.78c-7.17.56-25.55-.57-30.89-4.5C137.22,161.75,136.78,157.3,137.43,152.38Z"/><path class="cls-13" d="M169.88,169a10.19,10.19,0,0,1-6.26-1.83c-4.34-3.2-4.81-7.08-4.17-11.93a18.05,18.05,0,0,1,.64-2.94c1.18-3.83,5.31-16.94,8.95-24.67,1.18-2.52,2.13-4.64,2.89-6.34.63-1.41,1.16-2.6,1.66-3.64a18.73,18.73,0,0,1,5.21-6.54,20.86,20.86,0,0,1,5.79-3.5,17.66,17.66,0,0,1,6.39-1.17,18.93,18.93,0,0,1,4.1.45,33.94,33.94,0,0,1,12.62,5.86l.68.47c5.69,3.92,8.72,8,9,12,.31,4.62,0,11.21-3.45,16.35-3.61,5.42-26.85,23.38-32.31,25l-1.25.37C177.06,167.87,173.31,169,169.88,169Z"/><path d="M191,107.46h0a17.46,17.46,0,0,1,3.87.43,32.84,32.84,0,0,1,12.25,5.68l.46.33.23.16c5.42,3.73,8.3,7.51,8.55,11.23.31,4.46,0,10.8-3.28,15.71-3.42,5.15-26.55,23-31.72,24.53l-1.27.37c-3.24,1-6.91,2-10.19,2a9.18,9.18,0,0,1-5.65-1.63c-3.93-2.9-4.34-6.47-3.76-10.95a16.88,16.88,0,0,1,.62-2.77c1.17-3.82,5.28-16.88,8.89-24.54,1.19-2.52,2.13-4.64,2.89-6.35.63-1.4,1.16-2.6,1.65-3.62a17.6,17.6,0,0,1,4.93-6.17,19.71,19.71,0,0,1,5.51-3.35,16.73,16.73,0,0,1,6-1.1m0-2.08a18.87,18.87,0,0,0-6.76,1.24,21.77,21.77,0,0,0-6.06,3.66,19.58,19.58,0,0,0-5.51,6.9c-1.11,2.33-2.41,5.44-4.55,10-3.63,7.71-7.69,20.56-9,24.81a18.15,18.15,0,0,0-.68,3.11c-.65,4.92-.21,9.36,4.58,12.89a11.25,11.25,0,0,0,6.88,2c4,0,8.37-1.43,12-2.49,5.92-1.71,29.36-20.08,32.88-25.37s4-12,3.62-17c-.47-6.87-7.88-11.71-9.67-13a35.78,35.78,0,0,0-13.44-6.33,19.66,19.66,0,0,0-4.32-.48Z"/><ellipse class="cls-14" cx="201.4" cy="129.21" rx="11.04" ry="13.82"/><ellipse class="cls-14" cx="187.33" cy="148.87" rx="7.91" ry="9.9"/><ellipse class="cls-14" cx="171.57" cy="156.66" rx="6.22" ry="7.79"/><path class="cls-15" d="M147.11,124.46l4.88-5.19.14,11.77s8.86-16.32,8.72-15.64-2.67,10-2.67,10l5.9-6.09-2.53,9.94,6.23-6-1.38,5.06,2.44-2.69L158.18,143l2.4-8.65L153.79,143,156,132.71l-5.69,7.76-.13-11.27-2.84,5.18,2.84-10.33-4.3,8.1Z"/><polygon class="cls-15" points="172.74 102.96 165.35 106.67 172.74 104.82 166.97 108.69 177.79 104.64 175.74 106.67 183.34 104.31 172.74 102.96"/><ellipse class="cls-16" cx="202.1" cy="129.21" rx="3.75" ry="5.16"/><ellipse class="cls-16" cx="187.68" cy="149.26" rx="3.24" ry="4.46" transform="translate(-30.46 49.68) rotate(-13.96)"/><ellipse class="cls-16" cx="171.57" cy="157.19" rx="2.4" ry="3.3" transform="translate(-32.85 46.03) rotate(-13.96)"/><path class="cls-42" d="M167.22,146.2s1.71-3.56,7.12-1.88c.95-2.3,2.89-8.53,12.47-8-.5-2.12-4.4-11.26,2.59-20.39-2.83-1.21-4.57-2-8.07,2.41S166.82,145.12,167.22,146.2Z"/><path class="cls-43" d="M144.35,60l.32,17.09-15,.44c-2.5,0-4.61-3.75-4.7-8.47s1.88-8.59,4.38-8.63a3.15,3.15,0,0,1,2.34,1.14Z"/><polygon class="cls-44" points="129.44 47.19 133.28 52.2 137.34 52.13 135.14 47.08 129.44 47.19"/><path class="cls-45" d="M90.48,29.57c.29,4.57-2.2,9.68-.84,14.47a4.39,4.39,0,0,0,3.62,3.16c6.67.93,12.09.42,27.94-3.37l4.74,8.56,11.51-13.61.59-.7h0a4.42,4.42,0,0,0,.75-2.65A71.87,71.87,0,0,0,136.5,20a4.41,4.41,0,0,0-3.37-3.23c-7.84-1.64-21.4-4.88-38.94-4.76a8.47,8.47,0,0,0-4.72,2.09h0L81.1,21.91Z"/><polygon class="cls-46" points="124.99 47.27 140.59 46.98 139.96 70.74 125.16 70.67 124.99 47.27"/><polygon class="cls-47" points="152.3 53.85 147.86 64.53 139.96 70.74 140.59 46.98 152.3 53.85"/><path class="cls-45" d="M137.53,43.89a2.89,2.89,0,0,0,1.23-1Z"/><polygon class="cls-46" points="126.39 75.02 127.22 82.24 143.21 82.24 141.62 75.02 126.39 75.02"/><polygon class="cls-47" points="148.86 71.19 153.08 76.72 143.21 82.24 141.62 75.02 148.86 71.19"/><ellipse class="cls-48" cx="144.51" cy="68.56" rx="4.54" ry="8.55" transform="matrix(1, -0.02, 0.02, 1, -1.25, 2.69)"/><ellipse class="cls-49" cx="144.85" cy="69.03" rx="1.97" ry="4.27"/><path class="cls-16" d="M127.87,27s4.9.48,7.39.55c-1.43,6.94-3.07,12.2.57,22.08-6.87-.83-7-.43-7-.43A45.9,45.9,0,0,0,127.87,27Z"/><polygon class="cls-50" points="127.87 27 134.81 20.67 140.28 21.11 133.74 27.48 127.87 27"/><line class="cls-45" x1="192.51" y1="53.88" x2="190.79" y2="55.44"/><path class="cls-45" d="M133.74,26.85,142,31.91A78.11,78.11,0,0,0,143.45,41a5,5,0,0,0,3,3.52c16.31,6.73,22.36,9.81,31.24,10.92l3.89,8.41,9.26-8.41h0l1.72-1.56a4.91,4.91,0,0,0,.86-2.59,97.58,97.58,0,0,0-2.83-28.79,5,5,0,0,0-4.17-3.62c-15.55-2-30.55-2.43-40.33-1.69a4.93,4.93,0,0,0-3.33,1.65h0Z"/><path class="cls-51" d="M177.41,63.06c-6.44,0-15.76-1.38-40.07-11.42a3.28,3.28,0,0,1-1.94-2.32,95.05,95.05,0,0,1-2-18.42,3.27,3.27,0,0,1,3-3.33c2.9-.22,6.23-.33,9.9-.33a246.29,246.29,0,0,1,30.09,2,3.25,3.25,0,0,1,2.74,2.38c.18.67.39,1.37.61,2.12,1.5,5.09,3.77,12.79,2.18,26A3.45,3.45,0,0,1,178.81,63Z"/><path class="cls-52" d="M146.36,28.94h0a246.81,246.81,0,0,1,29.88,2,1.55,1.55,0,0,1,1.31,1.15c.19.67.4,1.39.62,2.15,1.55,5.26,3.68,12.46,2.12,25.34a1.79,1.79,0,0,1-1.54,1.77c-.44,0-.88,0-1.34,0C171.14,61.36,162,60,138,50.07a1.58,1.58,0,0,1-.93-1.12,92.46,92.46,0,0,1-1.92-18.09,1.58,1.58,0,0,1,1.45-1.6c2.86-.21,6.14-.32,9.77-.32m0-3.4c-3.73,0-7.11.12-10,.34a5,5,0,0,0-4.58,5.06,93.5,93.5,0,0,0,2,18.75,5,5,0,0,0,2.95,3.52C160,62.84,170,64.76,177.41,64.76c.49,0,1,0,1.45,0a5.13,5.13,0,0,0,4.8-4.76c1.87-15.47-1.39-23.47-2.83-28.78a5,5,0,0,0-4.17-3.62,246.88,246.88,0,0,0-30.3-2Z"/><path class="cls-53" d="M152.29,52.86l-.58,0a9.78,9.78,0,0,1-7-3.62,11.39,11.39,0,0,1-2.54-8c.35-5.84,4.86-10.42,10.27-10.42l.58,0a9.78,9.78,0,0,1,7,3.62,11.39,11.39,0,0,1,2.54,8c-.35,5.84-4.86,10.42-10.27,10.42Z"/><path class="cls-54" d="M152.46,32.23H153a8.34,8.34,0,0,1,6,3.11,10,10,0,0,1,2.22,7c-.3,5.09-4.19,9.08-8.85,9.08l-.49,0a8.34,8.34,0,0,1-6-3.11,10,10,0,0,1-2.22-7c.3-5.09,4.19-9.07,8.85-9.07m0-2.85c-6.13,0-11.3,5.13-11.69,11.75-.42,6.87,4.45,12.75,10.86,13.13.22,0,.44,0,.66,0,6.13,0,11.3-5.12,11.7-11.75.41-6.87-4.46-12.74-10.87-13.13l-.66,0Z"/><ellipse class="cls-55" cx="148.92" cy="42.91" rx="4.38" ry="3.68" transform="translate(97.15 188.99) rotate(-86.56)"/><polygon class="cls-45" points="125.65 51.29 128.86 49.2 129.38 46.35 126.07 46.52 125.65 51.29"/><path class="cls-51" d="M94,56.26a78.79,78.79,0,0,1-10.56-.82l-1.56-.2c-1-.11-2.07-.73-2.2-1.65-2-14.06-.35-23.19,1.42-28.36.64-1.85,1.54-2.81,2.69-2.83l2.57,0c13.28,0,24.28,2.43,31.55,4,1.8.39,3.36.74,4.73,1a2.7,2.7,0,0,1,2.1,2c1.38,5,1,12.36.76,17.22l0,1.07c0,.55-.24,2.36-1.83,2.89-11.74,3.9-21.15,5.71-29.61,5.71Z"/><path class="cls-52" d="M86.38,24.06c13.1,0,24,2.41,31.18,4,1.82.4,3.39.75,4.78,1a1,1,0,0,1,.78.73c1.31,4.77.95,11.94.71,16.69l-.06,1.08c0,.53-.21,1.21-.67,1.36-11.56,3.84-20.8,5.62-29.08,5.62a78.17,78.17,0,0,1-10.35-.8l-1.57-.2a1.35,1.35,0,0,1-.73-.31c-1.54-10.67-1.06-20.43,1.36-27.47.34-1,.8-1.68,1.12-1.69l2.53,0m0-3.39-2.61,0c-2.22.05-3.53,1.88-4.25,4-2.22,6.46-3.38,16.2-1.5,29.15a4,4,0,0,0,3.67,3.1A93.09,93.09,0,0,0,94,58c7,0,16.32-1.21,30.15-5.8a4.64,4.64,0,0,0,3-4.41c.24-5,.79-13.15-.76-18.83A4.43,4.43,0,0,0,123,25.74c-7-1.33-19.93-5.07-36.6-5.07Z"/><path class="cls-53" d="M106.81,51.38c-5.71,0-10.34-4.83-10.53-11s4.34-11.48,10.12-11.67h.32c5.71,0,10.34,4.83,10.53,11a11.69,11.69,0,0,1-2.85,8.15,10,10,0,0,1-7.27,3.52Z"/><path class="cls-54" d="M106.72,30.17c4.91,0,8.9,4.21,9.07,9.59s-3.73,10-8.71,10.16h-.27c-4.91,0-8.9-4.21-9.07-9.59s3.73-10,8.71-10.16h.27m0-2.93h-.36c-6.6.21-11.77,6.11-11.55,13.18s5.56,12.42,12,12.42h.36c6.6-.21,11.77-6.11,11.54-13.18s-5.55-12.42-12-12.42Z"/><path class="cls-55" d="M99.35,40.41c0,2.48,1.67,4.48,3.76,4.45s3.85-2.08,3.81-4.57c0-2.78-1.38-4.48-3.85-4.44C101,35.88,99.31,37.92,99.35,40.41Z"/><path class="cls-17" d="M208.33,72.26c.61,1.65,1,4.65-1.38,9.29a14,14,0,0,1-6.28,4.4c-2.22.83-19.19,6.45-26.18,8.75l-.78,3.85-4.54-2.67h0a2.64,2.64,0,0,1-.81-.72,11.65,11.65,0,0,1-1-5.82c.41-1,.32-.93,1.75-1.84l28.59-18.18s4.55-2.48,7.76-.8l.39.23h0l4.16,2.44Z"/><path class="cls-18" d="M208.31,70.45s8-9.66,10.49-8.19,3.7,3.06,3.46,4.61-10.51,5.71-11.23,6S211.16,70.56,208.31,70.45Z"/><path class="cls-19" d="M209.18,71.83s8-9.65,10.49-8.19,3.71,3.06,3.46,4.61-10.51,5.71-11.23,6S212,71.94,209.18,71.83Z"/><path class="cls-18" d="M211.1,74.54c1.79-.39,13.37-3.15,14.42-.48,1,2.44.82,4.31-.49,5.35s-12.65-1.4-13.42-1.6S213.35,76.17,211.1,74.54Z"/><path class="cls-19" d="M212.25,75.69s12.64-3.18,13.6-.74,1,4.79-.33,5.82-12-1.61-12.76-1.8S214.5,77.32,212.25,75.69Z"/><path class="cls-18" d="M211.4,79.44s9.56.8,9.73,3.14-.28,3.91-1.35,4.48-8.19-4.33-8.67-4.69S212.59,81.39,211.4,79.44Z"/><path class="cls-19" d="M211.4,80.82s9.56.8,9.73,3.14-.28,3.91-1.35,4.48-8.19-4.32-8.67-4.68S212.59,82.77,211.4,80.82Z"/><path class="cls-20" d="M173.71,90.18,202.29,72s7.38-4,10,1.65c.55,1,2.53,4.24-.75,10.59a14,14,0,0,1-6.29,4.4c-2.8,1.05-29.17,9.74-29.17,9.74a2.19,2.19,0,0,1-3.14-.54A11.54,11.54,0,0,1,172,92C172.37,91,172.28,91.09,173.71,90.18Z"/><path class="cls-18" d="M203.94,69.42s.86-11.33,3.3-11.53,4.09.33,4.69,1.61-4.34,9.53-4.72,10.1a9.47,9.47,0,0,0-1.88.86S204.85,70.15,203.94,69.42Z"/><path class="cls-21" d="M205.33,70.46s.85-11.34,3.3-11.54,4.09.34,4.68,1.61-4.33,9.54-4.71,10.1C208.15,70.53,207.37,69.05,205.33,70.46Z"/><ellipse class="cls-22" cx="206.32" cy="79.44" rx="3.17" ry="3.7"/><path class="cls-56" d="M230.1,111.14l0,0h0l0,0Z"/><path class="cls-56" d="M230.14,111.09h0v0Z"/><path class="cls-57" d="M217.5,116.14a2.11,2.11,0,0,0-1.56-1.2,1.13,1.13,0,0,0-1.14.87,2.22,2.22,0,0,0,1.27,2.33,2.64,2.64,0,0,0,2.57-.87,24.76,24.76,0,0,1,2.76-2.1c1.71-1.19,3.19-2.65,4.9-3.84a26.46,26.46,0,0,0,5.34-5,3.21,3.21,0,0,0,.57-.9,9.22,9.22,0,0,0-.68-6,3.88,3.88,0,0,0-2-1.69c-.26-.12-.32,0-.56,0s-.7.16-1-.09-.49-.64-.8-.7-.4.39-.69.42c-.26-.48-.6-.91-.82-1.4-.38-.85-.9-1.59-1.77-1.61-1.13,0-1.5,1.78-1.54,2.83a2.38,2.38,0,0,0-2,.48c-1.41,1.17-.33,3.17,1.3,4.49a1.17,1.17,0,0,0,1.35.14c.36-.25.12-.79.3-1.18a1.5,1.5,0,0,1,1.07-.71c1.49-.13,3,2,2.4,3.4a1.9,1.9,0,0,1-1.27,1.14c.4.06.73.38,1.12.44a.75.75,0,0,1,.32.1c1.46.88-.92,2.12-1.19,2.26a4.94,4.94,0,0,1-2.58.54,12,12,0,0,1-3.06-.62c-.61-.2-1.07.41-1.5.73s-.44,1.34-.21,2.06c.14.44.36.87.48,1.31a16.65,16.65,0,0,1,.5,2.21.94.94,0,0,1-.37,1C218.72,115.57,218,115.85,217.5,116.14Z"/><path class="cls-58" d="M216.87,140.74s4.44-7.07,5.17-9.86.76-10.71,2.51-7.06c1.46-.44,3.13-2,2.21-8s4.85-4,5.92-5.34,1.41-3.14-.83-5.91-7.93-3.54-8.34-1.27c-.76-1.39-1.38-3.13-5.17-2.41a4.82,4.82,0,0,0-1.08,4.61c.43,1.57-1.65-1.73-1.65-1.73s-1.55-4.78,2.29-6.28c1.81-.44,1.21-1.78,3.74,1.55.65.78,1.34,2.43,2.94-.53s4.17-7,8.27-3.61c1.42-1.14,5.44-2.63,9.28,2.66a8.82,8.82,0,0,1,2.56,7.56c-.08,1.91.9,2.17,1.71-.71.52-1.65,1.27-2.44,2.17-1.92a6.18,6.18,0,0,0,2.13-1c.59-.26,2.22,1.13,2.22,1.13s1.56,1.29,2.78-2a4.23,4.23,0,0,1,2.56-1.23c.16-.17,1.67-1.4,2-5.06a.89.89,0,0,1,1-.7s-.35-3.48,1.2-4a3.33,3.33,0,0,1,2,.87s.17-1.66,2.72.42c.41-.44,2.42,1-1,5.32a34.86,34.86,0,0,1-4.26,2.1c-1.88.7-9.41,10.31-9.65,10.75s1.28,2.86-2,6.27-4.6,5.42-5.7,6-10.85,12.93-12.31,11.54c.38-1.29,1.52-2.7,1.8-3.92s-.77-1.56-2.83.8-3.79,4.36-5.86,3.07C224.13,134.35,215.83,144.22,216.87,140.74Z"/><path class="cls-59" d="M229.82,103.37s0,0,0,0a.08.08,0,0,0,0,.07s0,.11.09.12a.09.09,0,0,0,.12-.07.12.12,0,0,0-.06-.14.14.14,0,0,0-.15,0"/><path class="cls-60" d="M128.86,49.2a19.77,19.77,0,0,1,4.82.18"/><line class="cls-61" x1="127.87" y1="27" x2="133.05" y2="27.48"/><line class="cls-61" x1="134.82" y1="20.67" x2="140.28" y2="21.11"/><ellipse class="cls-62" cx="100.07" cy="83.81" rx="2.7" ry="1.03" transform="translate(-16.42 24.92) rotate(-13.13)"/><path class="cls-63" d="M298.82,33.85V166.29a3.66,3.66,0,0,1,1.06,2.6v4.69c0,14.59-10.88,26.41-24.31,26.41h-4.31a3.16,3.16,0,0,1-2.6-1.42H31.21A3.18,3.18,0,0,1,28.58,200H24.27C10.85,200,0,188.2,0,173.61v-4.68A3.65,3.65,0,0,1,1,166.33V33.65a3.63,3.63,0,0,1-1-2.52V26.45C0,11.86,10.92,0,24.35,0h4.31a3.14,3.14,0,0,1,2.47,1.24H268.9a3.1,3.1,0,0,1,2.44-1.2h4.31C289.07.07,300,11.89,300,26.49v4.68A3.65,3.65,0,0,1,298.82,33.85Z"/><path class="cls-64" d="M189.56,141.3h0c-.18,0-.18,0-.27-.1L182.92,139l6.64.82a1.39,1.39,0,0,1,.64.09l-.09,1.37Z"/><path class="cls-65" d="M189.47,140.65a1.54,1.54,0,0,1,.64.1h-.55c0-.1,0-.1-.09-.1m.18-1.45-.63,2.73c.09,0,.18.09.27.09h.7l.19-2.73a1.28,1.28,0,0,1-.55-.09"/><path class="cls-66" d="M191.39,141.48a6.83,6.83,0,0,1-1.28-.09l.09-1.37,1,.09h.37Z"/><path class="cls-65" d="M190.2,140.65l.91.1h.28a4.75,4.75,0,0,1-1.19-.1m0-1.36L190,142c.45,0,.91.09,1.37.09l.26-2.73h-.47Z"/><path class="cls-65" d="M156.68,164.05l-5.56-.36-9.64-.64h-.71l-.9-.09a1.72,1.72,0,0,1-.71-.09,39,39,0,0,1-25.85-13.11,41.79,41.79,0,0,1-10.14-31.5L104.35,96c.91-8.83,1.72-11.11,7.65-11.47l1.45-16.2A35.22,35.22,0,0,1,148,36.06h11.65c.45,0,.91.1,1.37.1a35.39,35.39,0,0,1,32,38.32l-1.09,12.75a4,4,0,0,1,1.09.18,11.17,11.17,0,0,1,8.83,12.19l-1.09,21.31a48.31,48.31,0,0,1-7.28,21.58c-8.37,13.2-22.39,21.39-36.78,21.57m-10-78.57,21.48.7.91-10.56a20.76,20.76,0,0,0-4.73-15.11,21,21,0,0,0-11.27-6.92,18.49,18.49,0,0,0-3.55,1.18A20.7,20.7,0,0,0,137,72l-1.18,13.2Z"/><path class="cls-65" d="M148.78,36.87h10.65c.45,0,.91.09,1.37.09a34.81,34.81,0,0,1,31.49,37.61l-1.18,13.56a9,9,0,0,1,1.64.18A10.43,10.43,0,0,1,201,99.78L200,121.09a46.15,46.15,0,0,1-7.19,21.2c-7.91,12.48-21.29,21-36,21h-.11l-5.46-.37-9.65-.64h-.7l-.91-.09a1.71,1.71,0,0,1-.64-.09,38,38,0,0,1-25.4-12.83,41.06,41.06,0,0,1-9.92-31L105.18,96c.91-9.1,1.73-10.65,7.56-10.92l1.45-16.75A34.72,34.72,0,0,1,148,36.76h.82m20,50.16,1-11.2a21.77,21.77,0,0,0-4.93-15.66,21.38,21.38,0,0,0-11.83-7.19,20.66,20.66,0,0,0-3.82,1.28A21.38,21.38,0,0,0,136.33,71.9l-1.27,13.92,11.56.37h.27l21.94.7m-20-51.4h-.91a36.43,36.43,0,0,0-23.76,9.65,35.66,35.66,0,0,0-11.38,23.24L111.45,84c-6.18.63-6.82,3.82-7.64,12l-1.19,22.31a42.42,42.42,0,0,0,10.29,32,40.11,40.11,0,0,0,26.32,13.38,1.69,1.69,0,0,1,.63.09l.91.09h.91l9.56.65,5.46.35h.09c14.56-.17,28.77-8.44,37.15-21.66a48.28,48.28,0,0,0,7.37-21.83L202.4,99.9a11.85,11.85,0,0,0-9.47-12.84c-.18,0-.27-.09-.45-.09l1.09-12.1a36.22,36.22,0,0,0-32.66-39.18c-.46,0-.92-.09-1.37-.09h-9.12Zm-12.19,49L137.67,72a20,20,0,0,1,12.1-16.66,22.52,22.52,0,0,1,3.28-1.09,20.07,20.07,0,0,1,10.74,6.64,19.8,19.8,0,0,1,4.65,14.56l-.92,9.92L147,84.76h-.27Z"/><path class="cls-64" d="M156.68,163.33h-1.62c-1.27,0-2.55-.19-3.82-.28Z"/><path class="cls-67" d="M192.29,74.57,191.11,88l-.81,9.47-2.46-.19-6.56-.54-4.18-.37.82-8.73v-.46l1-11.56A21.78,21.78,0,0,0,174,60a21.2,21.2,0,0,0-14.49-7.56,22,22,0,0,0-6.47.46,21.8,21.8,0,0,0-16.75,19L135,85.85v.46l-.55,6.37-9-.82-4.1-.36.12-1.21.46-4.93,1.46-16.84a34.69,34.69,0,0,1,25.4-30.32l-.71-1.28H159.5c.45,0,.91.09,1.36.09a34.64,34.64,0,0,1,31.41,37.51"/><path class="cls-64" d="M201.12,99.69,200,121c-1.91,23.23-21.21,42.05-43.15,42.24h-.09l-5.46-.36-9.65-.64H141l-1.46-.09h-.18L140.8,160a38.43,38.43,0,0,1-13.47-9.86,41,41,0,0,1-9.93-31l1.19-22.3a11.34,11.34,0,0,1,2.73-6.75,11.67,11.67,0,0,1,4.46-3.37,10.11,10.11,0,0,1,4.64-.81l4.55.18,11.93.36,21.83.71,9.1.27,4.19.09,1.37.1,7.74.26a10.59,10.59,0,0,1,10,11.66"/><path class="cls-68" d="M183.19,74.57l-1.16,13v.19l-.82,9-.09.82L168,96.32l.82-9v-.46l1-11.19A21.7,21.7,0,0,0,164.9,60a22.42,22.42,0,0,0-14.47-7.65c-.36,0-.7-.09-1-.09a21.49,21.49,0,0,0-22.21,19.48L126,85.31,126,86.76l-.46,4.83-.09.82L120.11,92l-7.91-.7.54-6.19,1.46-16.75A34.72,34.72,0,0,1,148,36.72h2.55c.45,0,.91.09,1.27.09A34.51,34.51,0,0,1,175.3,49.1a35.7,35.7,0,0,1,7.93,25.49"/><path class="cls-66" d="M187.84,97.33a11.51,11.51,0,0,1-.19,1.55l-1.09,21.3c-2,23.4-21.58,42.42-43.79,42.25h-1.09a23.62,23.62,0,0,1-2.37-.18,38,38,0,0,1-25.4-12.82,41,41,0,0,1-9.92-31l1.18-22.3c.91-9.11,1.74-10.66,7.56-10.92,1.18-.1,2.64-.1,4.28-.1l4.82.19,4.23.17,9.1.28,11.56.36H147l21.83.71,8.83.27h.14c1.64.19,3,.28,4.19.46a6.35,6.35,0,0,0,1.37.18c4,.91,5.1,2.82,4.46,9.56"/><path class="cls-69" d="M187.84,97.33a11.51,11.51,0,0,1-.19,1.55l-1.09,21.3c-2,23.4-21.58,42.42-43.79,42.25h-.88l4.83-76.29H147l21.83.71,8.83.27h.14c1.64.18,3,.27,4.19.46a7.91,7.91,0,0,0,1.37.18c4,.91,5.1,2.82,4.46,9.56"/><path class="cls-70" d="M155.15,113.8a10.22,10.22,0,0,1-5.46,8.29l-.64,9.28a5.29,5.29,0,0,1-10.58-.38c0-.11,0-.22,0-.32l.64-9.38a10.3,10.3,0,0,1-4.22-8.92,10.13,10.13,0,0,1,20.21,1.46"/><path class="cls-70" d="M155.15,113.8a10.22,10.22,0,0,1-5.46,8.29l-.64,9.28a5.37,5.37,0,0,1-3.19,4.46,5.32,5.32,0,0,1-3.18-5.19l.62-9.37a10.27,10.27,0,0,1-4.18-8.83,10.07,10.07,0,0,1,7.91-9.15,10,10,0,0,1,8.11,10.56"/><path class="cls-71" d="M155.15,113.8a10.22,10.22,0,0,1-5.46,8.29l-.64,9.28a5.37,5.37,0,0,1-3.19,4.46,5.32,5.32,0,0,1-3.18-5.19l.62-9.37a10.27,10.27,0,0,1-4.18-8.83,10.07,10.07,0,0,1,7.91-9.15,10,10,0,0,1,8.11,10.56"/><g class="cls-72"><g class="cls-73"><g class="cls-74"><path class="cls-65" d="M116.46,141.75a2,2,0,1,1-2,2h0a2,2,0,0,1,2-2"/></g></g></g><g class="cls-72"><g class="cls-75"><g class="cls-76"><path class="cls-65" d="M121.65,146.84a17.13,17.13,0,0,0,9.86,6.38,2.39,2.39,0,0,1,1.91,2.37,2.22,2.22,0,0,1-2.81,1.63,20.41,20.41,0,0,1-12.2-7.92,2.19,2.19,0,0,1,.36-3.27,2.33,2.33,0,0,1,2.92.81"/></g></g></g></svg>