<svg id="Layer_1" data-name="Layer 1" xmlns="http://www.w3.org/2000/svg" xmlns:xlink="http://www.w3.org/1999/xlink" viewBox="0 0 300 200"><defs><style>.cls-1{fill:#00b1ff;}.cls-2{fill:#e2e2e2;}.cls-3{fill:#fdfeff;}.cls-4{fill:#41b9fa;}.cls-5{fill:#c4c4c4;}.cls-6{fill:#e5e5e5;}.cls-7{fill:#626c72;}.cls-8{fill:#96a5b3;}.cls-9{fill:#2f3e4a;}.cls-10{fill:#222d35;}.cls-11{fill:#353535;stroke-width:0.19px;}.cls-11,.cls-23,.cls-25,.cls-33,.cls-53,.cls-61{stroke:#000;}.cls-11,.cls-23,.cls-25{stroke-linejoin:round;}.cls-12,.cls-19,.cls-56,.cls-59{fill:#4d4d4d;}.cls-13{fill:#b3b3b3;}.cls-14{fill:#d3161d;}.cls-15{fill:#adadad;stroke:#080000;stroke-width:0.25px;}.cls-15,.cls-16,.cls-17,.cls-18,.cls-19,.cls-24,.cls-26,.cls-28,.cls-29,.cls-33,.cls-37,.cls-47,.cls-48,.cls-49,.cls-50,.cls-51,.cls-52,.cls-53,.cls-55,.cls-56,.cls-59,.cls-60,.cls-61,.cls-62,.cls-65{stroke-miterlimit:10;}.cls-16,.cls-29,.cls-33,.cls-37,.cls-48,.cls-52,.cls-62,.cls-65{fill:none;}.cls-16,.cls-17,.cls-26,.cls-28,.cls-37,.cls-52,.cls-60{stroke:#070707;}.cls-16{stroke-width:0.39px;}.cls-17,.cls-60{fill:#77401b;}.cls-17,.cls-18,.cls-37{stroke-width:0.25px;}.cls-18,.cls-20,.cls-53,.cls-61{fill:#f8c946;}.cls-18{stroke:#020202;}.cls-19,.cls-55,.cls-56,.cls-59{stroke:#151616;}.cls-19{stroke-width:0.76px;}.cls-21{fill:#683919;}.cls-22,.cls-28{fill:#945320;}.cls-23{fill:#515051;stroke-width:0.25px;}.cls-24,.cls-27{fill:#161616;}.cls-24,.cls-29,.cls-47,.cls-48,.cls-49,.cls-50,.cls-51,.cls-62{stroke:#0a0a0a;}.cls-24,.cls-25,.cls-26,.cls-28,.cls-29,.cls-33{stroke-width:0.22px;}.cls-25{fill:#8e8a8b;}.cls-26{fill:#e2b647;}.cls-30{fill:#dddbd7;}.cls-31{fill:#232323;}.cls-32{fill:#3a3a3a;}.cls-34,.cls-55{fill:#282828;}.cls-35{fill:#7c7c7c;}.cls-36{fill:#666;}.cls-38{fill:#7f1119;}.cls-39{fill:#5e0e18;}.cls-40{fill:#352f49;}.cls-41{fill:#e41e00;}.cls-42{fill:#fffe28;}.cls-43{fill:#18ff08;}.cls-44{fill:#dbdddd;}.cls-45{fill:#0fb0db;}.cls-46{fill:#303435;}.cls-47,.cls-48,.cls-49,.cls-50,.cls-51{stroke-width:0.1px;}.cls-47{fill:url(#radial-gradient);}.cls-49{fill:url(#radial-gradient-2);}.cls-50{fill:url(#radial-gradient-3);}.cls-51{fill:url(#radial-gradient-4);}.cls-52,.cls-53{stroke-width:0.13px;}.cls-54{fill:#389cce;}.cls-55,.cls-56{stroke-width:0.21px;}.cls-57{fill:#afafaf;}.cls-58{fill:#cecece;}.cls-59,.cls-60,.cls-61,.cls-62{stroke-width:0.16px;}.cls-63{opacity:0.25;}.cls-64{fill:#d02c00;}.cls-65{stroke:#fff;stroke-width:0.96px;}.cls-66{fill:#fff;}</style><radialGradient id="radial-gradient" cx="-1.43" cy="199.86" r="1.62" gradientTransform="matrix(-0.96, 0, 0, 0.96, 126.18, -73.56)" gradientUnits="userSpaceOnUse"><stop offset="0.2" stop-color="#666"/><stop offset="0.57" stop-color="#585858"/><stop offset="1" stop-color="#4d4d4d"/></radialGradient><radialGradient id="radial-gradient-2" cx="-7.99" cy="215.89" r="1.62" gradientTransform="matrix(-0.96, 0, 0, 0.96, 127.18, -74.01)" xlink:href="#radial-gradient"/><radialGradient id="radial-gradient-3" cx="-1.25" cy="215.49" r="1.62" gradientTransform="matrix(-0.96, 0, 0, 0.96, 127.17, -73.58)" xlink:href="#radial-gradient"/><radialGradient id="radial-gradient-4" cx="-7.3" cy="200.14" r="1.62" gradientTransform="matrix(-0.96, 0, 0, 0.96, 126.18, -73.93)" xlink:href="#radial-gradient"/></defs><title>stop</title><path class="cls-1" d="M26.28,192.56c-10.87,0-19.72-9.61-19.72-21.42V28.64c0-11.82,8.85-21.43,19.72-21.43H273.65c10.87,0,19.71,9.61,19.71,21.43v142.5c0,11.81-8.84,21.42-19.71,21.42Z"/><path class="cls-2" d="M273.64,10.28c9.32,0,16.9,8.23,16.9,18.36v142.5c0,10.12-7.58,18.36-16.9,18.36H26.28c-9.32,0-16.9-8.24-16.9-18.36V28.64c0-10.13,7.58-18.36,16.9-18.36H273.64m0-6.13H26.28c-12.43,0-22.54,11-22.54,24.49v142.5c0,13.5,10.11,24.49,22.54,24.49H273.64c12.43,0,22.54-11,22.54-24.49V28.64c0-13.51-10.11-24.49-22.54-24.49"/><path class="cls-3" d="M273.65,1.24H26.28c-13.87,0-25.22,12.33-25.22,27.4v142.5c0,15.07,11.35,27.4,25.22,27.4H273.65c13.86,0,25.21-12.33,25.21-27.4V28.64c0-15.07-11.35-27.4-25.21-27.4m19.85,169.9a22.4,22.4,0,0,1-5.83,15.23,19,19,0,0,1-14,6.35H26.28a19,19,0,0,1-14-6.35,22.36,22.36,0,0,1-5.84-15.23V28.64A22.37,22.37,0,0,1,12.26,13.4a18.94,18.94,0,0,1,14-6.34H273.65a19,19,0,0,1,14,6.34,22.41,22.41,0,0,1,5.83,15.24Z"/><path class="cls-4" d="M30.73,8a3.52,3.52,0,0,1-.13.43Z"/><path class="cls-5" d="M31.76,4.7,30.73,8l-.13.43h0a2.74,2.74,0,0,1-2.51,1.81h-1.9C17,10.22,9.48,18.35,9.48,28.37v2.07a2.92,2.92,0,0,1-2,2.86h0L4,34.62l1-1.89a1.89,1.89,0,0,1-.2-.2A3.1,3.1,0,0,1,4,30.44V26.5C4,14.23,13.17,4.29,24.47,4.29h3.62A2.71,2.71,0,0,1,30.4,5.68Z"/><path class="cls-6" d="M31.94,3.52h0A3.39,3.39,0,0,1,28.7,7.05H26.44c-11,0-19.88,9.67-19.88,21.6V31.1a3.38,3.38,0,0,1-3.24,3.52A3.38,3.38,0,0,1,.08,31.1V26.42C.08,11.83,11,0,24.39,0H28.7a3.39,3.39,0,0,1,3.24,3.52"/><path class="cls-7" d="M3.25,29.4a1.91,1.91,0,0,1,0,3.81,1.91,1.91,0,0,1,0-3.81"/><path class="cls-8" d="M3.25,29.6a1.71,1.71,0,0,1,0,3.41,1.71,1.71,0,0,1,0-3.41"/><polygon class="cls-9" points="4.21 30.7 4.21 31.91 3.25 32.5 2.31 31.91 2.31 30.7 3.25 30.11 4.21 30.7"/><path class="cls-10" d="M4.21,30.7v.55a1.31,1.31,0,0,0-1-.47,1.2,1.2,0,0,0-.95.47V30.7l.94-.59Z"/><path class="cls-7" d="M28.85,1.58A1.84,1.84,0,0,1,30.6,3.49a1.76,1.76,0,1,1-3.5,0,1.84,1.84,0,0,1,1.75-1.91"/><path class="cls-8" d="M28.85,1.79a1.63,1.63,0,0,1,1.56,1.7,1.57,1.57,0,1,1-3.13,0,1.64,1.64,0,0,1,1.57-1.7"/><polygon class="cls-9" points="29.8 2.89 29.8 4.09 28.85 4.68 27.9 4.09 27.9 2.89 28.85 2.3 29.8 2.89"/><path class="cls-10" d="M29.8,2.89v.54A1.34,1.34,0,0,0,28.86,3a1.26,1.26,0,0,0-1,.47V2.89l1-.6Z"/><path class="cls-5" d="M268.32,4.73l1,3.28.14.43h0a2.72,2.72,0,0,0,2.51,1.8h1.9c9.23,0,16.71,8.13,16.71,18.16v2.06a2.94,2.94,0,0,0,2,2.87h0l3.41,1.32-1-1.9a1.21,1.21,0,0,0,.2-.19,3.07,3.07,0,0,0,.8-2.1V26.54c0-12.27-9.15-22.21-20.44-22.21H272a2.68,2.68,0,0,0-2.31,1.38Z"/><path class="cls-6" d="M268.13,3.56h0a3.39,3.39,0,0,0,3.25,3.52h2.26c11,0,19.87,9.67,19.87,21.6v2.46a3.26,3.26,0,1,0,6.49,0V26.46C300,11.86,289.11,0,275.69,0h-4.31a3.39,3.39,0,0,0-3.25,3.52"/><path class="cls-7" d="M296.82,29.43a1.92,1.92,0,1,0,1.75,1.91,1.84,1.84,0,0,0-1.75-1.91"/><path class="cls-8" d="M296.82,29.64a1.71,1.71,0,1,0,1.57,1.7,1.63,1.63,0,0,0-1.57-1.7"/><polygon class="cls-9" points="295.87 30.74 295.87 31.94 296.82 32.53 297.77 31.94 297.77 30.74 296.82 30.15 295.87 30.74"/><path class="cls-10" d="M295.87,30.74v.54a1.38,1.38,0,0,1,.94-.47,1.26,1.26,0,0,1,1,.47v-.54l-.95-.6Z"/><path class="cls-7" d="M271.23,1.62a1.83,1.83,0,0,0-1.75,1.91,1.76,1.76,0,1,0,3.5,0,1.84,1.84,0,0,0-1.75-1.91"/><path class="cls-8" d="M271.23,1.82a1.64,1.64,0,0,0-1.57,1.71,1.57,1.57,0,1,0,3.13,0,1.64,1.64,0,0,0-1.56-1.71"/><polygon class="cls-9" points="270.27 2.92 270.27 4.13 271.23 4.72 272.17 4.13 272.17 2.92 271.23 2.33 270.27 2.92"/><path class="cls-10" d="M270.27,2.93v.54a1.31,1.31,0,0,1,1-.47,1.2,1.2,0,0,1,.95.47V2.93l-.94-.6Z"/><path class="cls-5" d="M31.68,195.3l-1-3.28-.14-.43h0A2.73,2.73,0,0,0,28,189.78h-1.9c-9.23,0-16.71-8.13-16.71-18.15v-2.07a2.92,2.92,0,0,0-2-2.86h0L4,165.37l1,1.9a1.26,1.26,0,0,0-.2.2,3,3,0,0,0-.8,2.09v3.94c0,12.27,9.15,22.21,20.44,22.21H28a2.69,2.69,0,0,0,2.31-1.39Z"/><path class="cls-6" d="M31.87,196.48h0A3.4,3.4,0,0,0,28.62,193H26.36c-11,0-19.87-9.67-19.87-21.6V168.9a3.39,3.39,0,0,0-3.25-3.52A3.38,3.38,0,0,0,0,168.9v4.68C0,188.17,10.89,200,24.31,200h4.31a3.4,3.4,0,0,0,3.25-3.52"/><path class="cls-7" d="M3.18,170.6a1.91,1.91,0,0,0,0-3.81,1.91,1.91,0,0,0,0,3.81"/><path class="cls-8" d="M3.18,170.4a1.71,1.71,0,0,0,0-3.41,1.71,1.71,0,0,0,0,3.41"/><polygon class="cls-9" points="4.13 169.3 4.13 168.1 3.18 167.5 2.23 168.1 2.23 169.3 3.18 169.89 4.13 169.3"/><path class="cls-10" d="M4.13,169.3v-.55a1.28,1.28,0,0,1-.94.47,1.22,1.22,0,0,1-1-.47v.55l1,.59Z"/><path class="cls-7" d="M28.77,198.42A1.92,1.92,0,1,0,27,196.51a1.84,1.84,0,0,0,1.75,1.91"/><path class="cls-8" d="M28.77,198.21a1.71,1.71,0,1,0-1.56-1.7,1.64,1.64,0,0,0,1.56,1.7"/><polygon class="cls-9" points="29.73 197.11 29.73 195.91 28.77 195.32 27.83 195.91 27.83 197.11 28.77 197.7 29.73 197.11"/><path class="cls-10" d="M29.73,197.11v-.54a1.38,1.38,0,0,1-.95.47,1.23,1.23,0,0,1-1-.47v.54l.94.6Z"/><path class="cls-5" d="M268.24,195.27l1-3.28.13-.44h0a2.74,2.74,0,0,1,2.51-1.8h1.9c9.23,0,16.71-8.13,16.71-18.16v-2.06a3,3,0,0,1,2-2.87h0l3.41-1.32-1,1.9a1.8,1.8,0,0,1,.2.19,3.12,3.12,0,0,1,.8,2.1v3.93c0,12.27-9.15,22.21-20.44,22.21h-3.63a2.7,2.7,0,0,1-2.31-1.38Z"/><path class="cls-6" d="M268.06,196.44h0a3.38,3.38,0,0,1,3.24-3.52h2.26c11,0,19.88-9.67,19.88-21.6v-2.46a3.25,3.25,0,1,1,6.48,0v4.69c0,14.59-10.88,26.41-24.31,26.41H271.3a3.38,3.38,0,0,1-3.24-3.52"/><path class="cls-7" d="M296.75,170.57a1.92,1.92,0,1,1,1.75-1.91,1.84,1.84,0,0,1-1.75,1.91"/><path class="cls-8" d="M296.75,170.36a1.71,1.71,0,1,1,1.56-1.7,1.64,1.64,0,0,1-1.56,1.7"/><polygon class="cls-9" points="295.79 169.26 295.79 168.06 296.75 167.47 297.69 168.06 297.69 169.26 296.75 169.85 295.79 169.26"/><path class="cls-10" d="M295.79,169.26v-.54a1.38,1.38,0,0,0,.95.47,1.23,1.23,0,0,0,.95-.47v.54l-.94.6Z"/><path class="cls-7" d="M271.15,198.38a1.91,1.91,0,1,1,1.75-1.91,1.83,1.83,0,0,1-1.75,1.91"/><path class="cls-8" d="M271.15,198.18a1.71,1.71,0,1,1,1.57-1.71,1.64,1.64,0,0,1-1.57,1.71"/><polygon class="cls-9" points="270.2 197.07 270.2 195.87 271.15 195.28 272.1 195.87 272.1 197.07 271.15 197.67 270.2 197.07"/><path class="cls-10" d="M270.2,197.08v-.55a1.28,1.28,0,0,0,.94.47,1.22,1.22,0,0,0,1-.47v.55l-1,.59Z"/><path class="cls-11" d="M99.35,151.44a15.71,15.71,0,0,1,.53-2.63c1-3.61,4.27-14.54,7.22-21.12,1.73-3.87,2.78-6.52,3.68-8.51a16.69,16.69,0,0,1,4.55-5.92,18.48,18.48,0,0,1,5.06-3.19,18.67,18.67,0,0,1,9.36-.81c7.9,1,12.14,1.1,13.69,1.57,1.53,1,8.14,7.82,8.64,13.62.36,4.18.1,9.89-2.79,14.42s-14.51,26.22-19.69,26.72c-6,.59-21.6-.08-26.17-3.32C99.33,159.36,98.89,155.61,99.35,151.44Z"/><path class="cls-12" d="M126.79,165a8.46,8.46,0,0,1-5.07-1.45c-3.72-2.64-4.17-5.91-3.71-10a15.58,15.58,0,0,1,.5-2.5c.93-3.26,4.22-14.41,7.17-21,1-2.14,1.71-3.91,2.34-5.4.51-1.2.94-2.22,1.34-3.11a16.09,16.09,0,0,1,4.31-5.61,17.84,17.84,0,0,1,4.83-3,15.15,15.15,0,0,1,5.68-1.09,16.26,16.26,0,0,1,3.18.32,28.65,28.65,0,0,1,10.76,4.75l.58.39c4.87,3.22,7.5,6.59,7.8,10,.33,3.89.15,9.47-2.67,13.87-3,4.63-22.32,20.18-26.9,21.6l-1.06.33C133,163.94,129.76,165,126.79,165Z"/><path d="M144.18,112.63h0a15.19,15.19,0,0,1,3,.3,27.92,27.92,0,0,1,10.44,4.61l.4.27.2.13c4.64,3.07,7.13,6.22,7.4,9.36.33,3.77.16,9.13-2.52,13.33-2.82,4.4-22.08,19.88-26.43,21.23l-1.06.34c-2.81.88-6,1.88-8.82,1.88a7.61,7.61,0,0,1-4.56-1.29c-3.37-2.38-3.78-5.4-3.35-9.2a13.77,13.77,0,0,1,.47-2.35c.93-3.24,4.2-14.34,7.13-20.88,1-2.15,1.73-4,2.35-5.41.5-1.19.94-2.21,1.33-3.08a14.87,14.87,0,0,1,4.07-5.3,17,17,0,0,1,4.6-2.92,14.26,14.26,0,0,1,5.35-1m0-1.76a16,16,0,0,0-6,1.16,18.48,18.48,0,0,0-5.06,3.19,16.49,16.49,0,0,0-4.54,5.92c-.91,2-1.95,4.63-3.69,8.51-2.95,6.58-6.18,17.5-7.22,21.11a16.68,16.68,0,0,0-.53,2.64c-.46,4.17,0,7.92,4.08,10.82a9.41,9.41,0,0,0,5.58,1.62c3.49,0,7.24-1.32,10.4-2.3,5-1.54,24.49-17.44,27.38-22s3.16-10.23,2.8-14.42c-.51-5.8-6.85-9.78-8.38-10.8a30.14,30.14,0,0,0-11.46-5.14,17.15,17.15,0,0,0-3.35-.34Z"/><ellipse class="cls-13" cx="153.05" cy="130.85" rx="9.33" ry="11.68" transform="translate(-2.42 2.88) rotate(-1.07)"/><ellipse class="cls-13" cx="141.47" cy="147.69" rx="6.69" ry="8.37" transform="translate(-2.73 2.67) rotate(-1.07)"/><ellipse class="cls-13" cx="128.28" cy="154.52" rx="5.26" ry="6.58" transform="translate(-2.86 2.42) rotate(-1.07)"/><ellipse class="cls-14" cx="153.65" cy="130.84" rx="3.17" ry="4.36" transform="translate(-2.42 2.89) rotate(-1.07)"/><ellipse class="cls-14" cx="141.78" cy="148.01" rx="2.74" ry="3.77" transform="translate(-33.53 41.83) rotate(-15.03)"/><ellipse class="cls-14" cx="128.29" cy="154.97" rx="2.03" ry="2.79" transform="translate(-35.8 38.56) rotate(-15.03)"/><path class="cls-15" d="M124.44,145.75s1.38-3,6-1.7c.76-2,2.3-7.26,10.4-6.93-.45-1.78-3.89-9.44,1.87-17.27-2.4-1-3.89-1.64-6.78,2.17S124.08,144.85,124.44,145.75Z"/><line class="cls-16" x1="110.83" y1="119.09" x2="129.01" y2="120.25"/><line class="cls-16" x1="120.95" y1="109.87" x2="141.19" y2="111.15"/><polyline class="cls-16" points="144.07 111.33 149.44 111.67 149.44 111.67"/><line class="cls-16" x1="105.96" y1="130.39" x2="124.07" y2="131.53"/><line class="cls-16" x1="102.06" y1="141.57" x2="120.1" y2="142.72"/><line class="cls-16" x1="99.22" y1="153.12" x2="117.05" y2="154.25"/><path class="cls-17" d="M93.22,96.18,120.27,99c4.61.34,7.79,1.38,7.76,5.84h0c-.5,4.33-2.81,4.64-7.12,5L92,112.73a8.13,8.13,0,0,1-8.06-8.16h0C83.92,100.11,88.76,96.16,93.22,96.18Z"/><path class="cls-18" d="M95.29,96.36l28.21,2.49c4.62.33,4.95,10.48.65,10.83l-29,2.91a8.13,8.13,0,0,1-8.06-8.16h0A8.15,8.15,0,0,1,95.29,96.36Z"/><ellipse class="cls-19" cx="95.44" cy="104.27" rx="2.87" ry="3.18" transform="translate(-42.06 71.49) rotate(-34.12)"/><path class="cls-20" d="M115.53,102.61s22-11.5,32-13.6c0,0,27-2.37,50.38-1.65-2.68,2.14-26,12.73-29.3,13.51S124.53,103.61,115.53,102.61Z"/><path class="cls-21" d="M161.21,98.62s8.93-5.67,9.84-6-17.51-.32-17.51-.32-8.67,5.34-9.25,5.92S161.21,98.62,161.21,98.62Z"/><path class="cls-22" d="M198.24,87.29s3.47,38.5.92,48.35c-2.8,2.54-22.37,12.21-28.72,12.42-.87-4.39-3.15-44-1.51-47.26C171.23,98.88,188.65,90.37,198.24,87.29Z"/><path class="cls-14" d="M115.53,102.61s-.06,19.73,1.14,34.17c.47,5.57,6,10.8,6.92,11,2.11,1.8,49.88,2.16,52.59.19a15.51,15.51,0,0,1-5.53-11.61c-.26-9.6-1.36-23.91-1.72-35.54C167.17,100,123.87,101.06,115.53,102.61Z"/><path class="cls-23" d="M161.52,78.72l.75,14.53-12.72.8c-2.13.11-4-3.06-4.23-7.07s1.35-7.36,3.47-7.47a2.71,2.71,0,0,1,2,.91Z"/><path class="cls-24" d="M105.05,79.23s5,3.07,13.36,3.7c3.73.27,8.55-.4,13.2-1.24,15.1-2.75,21.46-11,21.46-11s-1.55-10.42-1.94-13.92-5.6-10-5.6-10Z"/><path class="cls-24" d="M202.08,74.67s-2.63,5.33-12.37,5.41-24.09-3-24.09-3l-9.48-11.35Z"/><path class="cls-14" d="M147.39,49l5-.5.73,16.26-4.84.25S148.43,54.5,147.39,49Z"/><polygon class="cls-25" points="148.24 65.06 151.65 69.21 155.1 69.03 153.08 64.8 148.24 65.06"/><polygon class="cls-26" points="144.46 65.25 157.72 64.56 158.09 87.96 145.5 88.33 144.46 65.25"/><path class="cls-27" d="M148.25,64.92l-.2,2.81a.46.46,0,0,1-.18.34l-3.27,2.7a.49.49,0,0,1-.78-.28l-.15-.77a.5.5,0,0,1,.11-.42l3.64-4.73A.47.47,0,0,1,148.25,64.92Z"/><polygon class="cls-28" points="165.62 77.12 164.63 82.46 158.09 87.96 157.72 64.56 165.62 77.12"/><path class="cls-24" d="M153.27,65.2s.36,2.68.94,3.07a74.94,74.94,0,0,0,9,3.28c.88.07.61-1.94.61-1.94Z"/><path class="cls-29" d="M153.27,65.2s.44,3.23,1.17,3.19c.9.39,7.55,2.9,7.55,2.9"/><path class="cls-30" d="M196,75.29c-13.65,0-39.34-7.31-41.46-9.68-.81-2.83-1.27-12-.89-17.8a1.72,1.72,0,0,1,1.51-1.6,150.83,150.83,0,0,1,18.4-1.06,187,187,0,0,1,24.57,1.63A1.75,1.75,0,0,1,199.57,48c3.1,9.08,2.12,20.89,1.56,25.54A1.71,1.71,0,0,1,199.76,75a19.33,19.33,0,0,1-3.74.3Z"/><path class="cls-31" d="M173.57,46.42A185.16,185.16,0,0,1,198,48a.47.47,0,0,1,.39.33c3,8.84,2,20.41,1.5,25a.47.47,0,0,1-.36.4A18.43,18.43,0,0,1,196,74c-12.48,0-36.65-6.56-40.33-9.14-.65-2.88-1.13-11.25-.76-17a.48.48,0,0,1,.41-.43,150,150,0,0,1,18.23-1m0-2.54A154.56,154.56,0,0,0,155,44.94a3,3,0,0,0-2.63,2.79c-.38,5.76.08,15.43,1,18.36S182.52,76.56,196,76.56a20.91,20.91,0,0,0,4-.32,3,3,0,0,0,2.38-2.59c.55-4.53,1.59-16.71-1.61-26.1a3,3,0,0,0-2.45-2,186.7,186.7,0,0,0-24.76-1.64Z"/><polygon class="cls-26" points="146.68 91.99 147.58 98.11 161.18 97.66 159.62 91.56 146.68 91.99"/><polygon class="cls-28" points="165.68 88.09 169.42 92.67 161.18 97.66 159.62 91.56 165.68 88.09"/><ellipse class="cls-32" cx="161.9" cy="85.99" rx="3.86" ry="7.28" transform="translate(-4.26 8.55) rotate(-2.98)"/><path class="cls-33" d="M148.14,64.66s0,3.18-.27,3.41l-3.27,2.7"/><path class="cls-30" d="M108.51,78.73a14.25,14.25,0,0,1-1.52-.07,1.66,1.66,0,0,1-1.45-1.31c-.32-1.47-.78-3.82-1.16-6.64-.69-5.13-1.19-12.58.32-18.9A1.68,1.68,0,0,1,106,50.54a137.42,137.42,0,0,1,24.89-3.33c2.52-.11,5.11-.17,7.69-.17,1.65,0,3.33,0,5,.07a1.67,1.67,0,0,1,1.6,1.41c.9,5.59,1.3,15,.77,17.79C144.12,69,119.76,78.73,108.51,78.73Z"/><path class="cls-31" d="M138.54,48.37h0c1.63,0,3.3,0,5,.07a.34.34,0,0,1,.32.29c.91,5.67,1.22,14.05.84,17-3.07,2.75-25.2,11.72-36.14,11.72a11.66,11.66,0,0,1-1.38-.07.32.32,0,0,1-.28-.26c-.32-1.45-.77-3.76-1.14-6.54-.68-5-1.17-12.29.29-18.41a.39.39,0,0,1,.26-.28,135.8,135.8,0,0,1,24.65-3.29c2.5-.12,5.07-.18,7.63-.18m0-2.67c-2.73,0-5.31.07-7.75.18a134.79,134.79,0,0,0-25.14,3.36,3,3,0,0,0-2.25,2.26c-1.52,6.38-1.09,13.8-.34,19.39.38,2.86.85,5.24,1.18,6.75A3,3,0,0,0,106.85,80c.52.05,1.07.08,1.66.08,11.83,0,38-10.34,38.68-13.4s.18-12.67-.74-18.37a3,3,0,0,0-2.88-2.53c-1.73-.05-3.4-.07-5-.07Z"/><path class="cls-34" d="M169.48,67.86c-5,0-9-4.25-9.22-9.67A10.35,10.35,0,0,1,162.74,51a8.78,8.78,0,0,1,6.36-3.11h.29c5,0,9,4.25,9.22,9.67a10.35,10.35,0,0,1-2.48,7.17,8.82,8.82,0,0,1-6.36,3.11Z"/><path class="cls-35" d="M169.39,49c4.4,0,8,3.79,8.13,8.62s-3.33,9-7.79,9.17h-.25c-4.4,0-8-3.79-8.14-8.62s3.33-9,7.79-9.17h.26m0-2.16h-.33c-5.66.19-10.09,5.3-9.88,11.4s4.78,10.71,10.3,10.71h.32c5.67-.19,10.09-5.3,9.89-11.4s-4.78-10.71-10.3-10.71Z"/><path class="cls-34" d="M130.64,69.92c-5,0-9-4.24-9.22-9.66a10.37,10.37,0,0,1,2.47-7.17A8.75,8.75,0,0,1,130.26,50h.28c5,0,9,4.25,9.22,9.67S136,69.75,130.93,69.92Z"/><path class="cls-35" d="M130.55,51.05c4.4,0,8,3.79,8.13,8.63s-3.33,9-7.79,9.16h-.25c-4.4,0-8-3.78-8.14-8.62s3.33-9,7.79-9.16h.26m0-2.16h-.32c-5.66.19-10.09,5.29-9.88,11.39S125.12,71,130.64,71H131c5.66-.19,10.09-5.29,9.88-11.4s-4.78-10.71-10.3-10.71Z"/><ellipse class="cls-36" cx="162.2" cy="86.37" rx="1.68" ry="3.63" transform="translate(-2.81 5.49) rotate(-1.92)"/><path class="cls-37" d="M145.62,89.44c-5.68,1-30.09,13.17-30.09,13.17s.14,32.2,1.14,34.17c.48,2.33.62,5.27,6.09,10.46,1.76.84,2.52,3.1,37.72,2"/><path class="cls-37" d="M165.71,87.76s31.21-1,32.53-.47c0,0,2,26.73,1.73,28.32"/><path class="cls-38" d="M157.75,112.82l-30.77.31a2.29,2.29,0,0,0-2.26,2.44l1.21,18.23a2.31,2.31,0,0,0,2.31,2.14l30.81-.32a2.28,2.28,0,0,0,2.26-2.44L160.06,115A2.28,2.28,0,0,0,157.75,112.82Z"/><path class="cls-39" d="M158.28,113.69l-30.84.25a1.79,1.79,0,0,0-1.77,1.9l1.22,18.32a1.78,1.78,0,0,0,1.79,1.66l30.85-.2a1.78,1.78,0,0,0,1.76-1.9l-1.22-18.37A1.78,1.78,0,0,0,158.28,113.69Z"/><path class="cls-40" d="M138.74,123.11l19-.32a1.15,1.15,0,0,0,1.11-1.18l-.4-5.39a1.13,1.13,0,0,0-1.17-1.11l-19,.33a1.14,1.14,0,0,0-1.11,1.17l.4,5.39A1.15,1.15,0,0,0,138.74,123.11Z"/><ellipse class="cls-41" cx="154.32" cy="119.04" rx="2.22" ry="2.77" transform="matrix(1, -0.04, 0.04, 1, -4.9, 6.63)"/><ellipse class="cls-42" cx="147.63" cy="119.1" rx="2.22" ry="2.77" transform="translate(-4.9 6.35) rotate(-2.42)"/><ellipse class="cls-43" cx="141.08" cy="119.36" rx="2.22" ry="2.77" transform="translate(-4.92 6.07) rotate(-2.42)"/><path class="cls-44" d="M142.71,127.67l14.94-.19a1.2,1.2,0,0,0,1.16-1.23h0a1.19,1.19,0,0,0-1.23-1.15l-14.94.19a1.19,1.19,0,0,0-1.15,1.22h0A1.19,1.19,0,0,0,142.71,127.67Z"/><path class="cls-45" d="M151.5,134.75l6.63-.12a1.2,1.2,0,0,0,1.16-1.23h0a1.2,1.2,0,0,0-1.23-1.16l-6.64.13a1.19,1.19,0,0,0-1.15,1.22h0A1.2,1.2,0,0,0,151.5,134.75Z"/><path class="cls-45" d="M151.27,131.41l6.64-.12a1.19,1.19,0,0,0,1.15-1.23h0a1.19,1.19,0,0,0-1.22-1.15l-6.64.12a1.19,1.19,0,0,0-1.15,1.23h0A1.19,1.19,0,0,0,151.27,131.41Z"/><polygon class="cls-46" points="135.03 115.65 125.95 115.67 127.19 134.28 136.36 134.15 135.03 115.65"/><ellipse class="cls-47" cx="127.6" cy="117.74" rx="0.99" ry="1.15" transform="translate(-7.55 8.75) rotate(-3.81)"/><path class="cls-48" d="M127.53,116.6a3.43,3.43,0,0,0,.21,2.28"/><path class="cls-48" d="M128.59,117.68a4.16,4.16,0,0,1-2,.13"/><ellipse class="cls-49" cx="134.88" cy="132.62" rx="0.99" ry="1.15" transform="translate(-8.52 9.27) rotate(-3.81)"/><path class="cls-48" d="M134.8,131.48a3.46,3.46,0,0,0,.22,2.28"/><path class="cls-48" d="M135.87,132.56a4.16,4.16,0,0,1-2,.13"/><ellipse class="cls-50" cx="128.42" cy="132.67" rx="0.99" ry="1.15" transform="translate(-8.54 8.84) rotate(-3.81)"/><path class="cls-48" d="M128.34,131.53a3.46,3.46,0,0,0,.22,2.28"/><path class="cls-48" d="M129.41,132.6a4.25,4.25,0,0,1-2,.14"/><ellipse class="cls-51" cx="133.22" cy="117.63" rx="0.99" ry="1.15" transform="matrix(1, -0.07, 0.07, 1, -7.53, 9.12)"/><path class="cls-48" d="M133.15,116.48a3.46,3.46,0,0,0,.21,2.29"/><path class="cls-48" d="M134.21,117.56a4.22,4.22,0,0,1-2,.14"/><path class="cls-52" d="M158.81,126.25a9.11,9.11,0,0,0-5,.33c-2.36,1-2.61-1.17-3.73-1.07s-1.27,1.76-2.8,1.69-1.06-.68-1.78-.63-.67.81-1.36.76-1.11-2.12-1.51-2"/><path class="cls-11" d="M158.48,156.85a17.14,17.14,0,0,1,.53-2.64c1-3.6,4.27-14.53,7.22-21.11,1.74-3.87,2.78-6.52,3.69-8.51a16.66,16.66,0,0,1,4.54-5.92,16.32,16.32,0,0,1,14.42-4c7.91,1,12.14,1.1,13.69,1.57,1.54,1,8.14,7.82,8.64,13.62.37,4.18.1,9.89-2.79,14.42s-14.5,26.21-19.68,26.72c-6.05.59-21.61-.09-26.18-3.32C158.46,164.77,158,161,158.48,156.85Z"/><path class="cls-12" d="M185.92,170.37a8.53,8.53,0,0,1-5.07-1.45c-3.72-2.64-4.17-5.91-3.71-10a15.25,15.25,0,0,1,.5-2.49c.94-3.26,4.22-14.41,7.17-21,1-2.14,1.71-3.91,2.34-5.4.51-1.2.94-2.22,1.35-3.1a15.85,15.85,0,0,1,4.3-5.61,17.6,17.6,0,0,1,4.83-3,15.24,15.24,0,0,1,5.69-1.09,16.23,16.23,0,0,1,3.17.32,28.67,28.67,0,0,1,10.76,4.74l.58.4c4.88,3.22,7.5,6.59,7.8,10,.34,3.89.15,9.47-2.66,13.87-3,4.63-22.33,20.18-26.91,21.6l-1.06.33C192.14,169.34,188.89,170.37,185.92,170.37Z"/><path d="M203.31,118h0a15.36,15.36,0,0,1,3,.3A27.85,27.85,0,0,1,216.75,123l.4.27.2.13c4.64,3.07,7.13,6.22,7.4,9.36.33,3.76.16,9.13-2.52,13.33-2.82,4.4-22.08,19.88-26.43,21.23l-1.06.34c-2.8.88-6,1.88-8.82,1.88a7.61,7.61,0,0,1-4.56-1.29c-3.37-2.38-3.78-5.4-3.35-9.2a13.77,13.77,0,0,1,.47-2.35c.93-3.24,4.2-14.34,7.13-20.88,1-2.15,1.73-4,2.35-5.41.5-1.19.94-2.22,1.33-3.09a15,15,0,0,1,4.07-5.29,17.17,17.17,0,0,1,4.6-2.92,14.26,14.26,0,0,1,5.35-1m0-1.76a15.86,15.86,0,0,0-6,1.16,18.31,18.31,0,0,0-5.07,3.19,16.49,16.49,0,0,0-4.54,5.92c-.91,2-1.95,4.63-3.69,8.51-2.95,6.58-6.18,17.5-7.21,21.11a15.63,15.63,0,0,0-.53,2.64c-.47,4.17,0,7.92,4.07,10.82a9.41,9.41,0,0,0,5.58,1.62c3.49,0,7.24-1.32,10.4-2.3,5-1.55,24.49-17.44,27.39-22s3.16-10.24,2.79-14.42c-.5-5.8-6.84-9.78-8.38-10.8a30.14,30.14,0,0,0-11.46-5.14,17.15,17.15,0,0,0-3.35-.34Z"/><ellipse class="cls-13" cx="212.18" cy="136.26" rx="9.33" ry="11.68" transform="translate(-2.51 3.99) rotate(-1.07)"/><ellipse class="cls-13" cx="200.6" cy="153.09" rx="6.69" ry="8.37" transform="translate(-2.82 3.77) rotate(-1.07)"/><ellipse class="cls-13" cx="187.41" cy="159.93" rx="5.26" ry="6.58" transform="translate(-2.95 3.53) rotate(-1.07)"/><ellipse class="cls-14" cx="212.78" cy="136.25" rx="3.17" ry="4.36" transform="translate(-2.51 4) rotate(-1.07)"/><ellipse class="cls-14" cx="200.91" cy="153.42" rx="2.74" ry="3.77" transform="translate(-32.91 57.34) rotate(-15.03)"/><ellipse class="cls-14" cx="187.42" cy="160.37" rx="2.03" ry="2.79" transform="translate(-35.18 54.08) rotate(-15.03)"/><path class="cls-15" d="M183.57,151.16s1.38-3,6-1.71c.76-2,2.3-7.25,10.4-6.92-.45-1.78-3.89-9.44,1.87-17.28-2.4-1-3.89-1.63-6.77,2.18S183.21,150.25,183.57,151.16Z"/><line class="cls-16" x1="169.96" y1="124.5" x2="188.14" y2="125.65"/><line class="cls-16" x1="180.08" y1="115.27" x2="200.32" y2="116.56"/><polyline class="cls-16" points="203.2 116.74 208.57 117.08 208.58 117.08"/><line class="cls-16" x1="165.1" y1="135.79" x2="183.21" y2="136.94"/><line class="cls-16" x1="161.2" y1="146.98" x2="179.24" y2="148.12"/><line class="cls-16" x1="158.35" y1="158.53" x2="176.18" y2="159.66"/><ellipse class="cls-53" cx="126.21" cy="99.58" rx="3.06" ry="0.93" transform="translate(-19.32 31.28) rotate(-13.13)"/><rect class="cls-54" x="162.75" y="55.6" width="9.49" height="4.64" rx="2.32"/><rect class="cls-54" x="123.82" y="57.7" width="9.49" height="4.64" rx="2.32"/><path class="cls-55" d="M98.44,89.91a1.71,1.71,0,0,1,2.23.61c.84,1.32-1.08,5.65-1.08,5.65l-2.06.56Z"/><path class="cls-56" d="M97.75,90.11a1.71,1.71,0,0,1,2.23.61c.84,1.32-1.08,5.64-1.08,5.64l-2.06.57Z"/><path class="cls-57" d="M93.89,141.53l-3-.12a1.75,1.75,0,0,1-1.68-1.85l3.91-74.65a1.76,1.76,0,0,1,2.27-1.59l3.13,1a1.76,1.76,0,0,1,1.23,1.78l-4,73.8A1.76,1.76,0,0,1,93.89,141.53Z"/><path class="cls-58" d="M93.83,141.52l-.91,0a.84.84,0,0,1-.81-.88l4-76a.85.85,0,0,1,1.09-.76l1.08.34a.83.83,0,0,1,.58.84L94.7,140.73A.85.85,0,0,1,93.83,141.52Z"/><path class="cls-55" d="M88.65,110.92c2.11,1.1,11.21,4.71,12,2.64.62-.6,1.07-4.41,0-6-.48-.76-9.83-1.62-12.45-.5C87.18,108,87.26,110.33,88.65,110.92Z"/><path class="cls-56" d="M86.56,110.75c2.11,1.1,11.21,4.7,12,2.64.62-.6,1.08-4.41,0-6-.48-.75-9.83-1.61-12.44-.49C85.09,107.78,85.18,110.16,86.56,110.75Z"/><path class="cls-55" d="M87.85,106.47C90,107.56,99,110,99.77,107.93c.62-.6,1.07-4.41,0-6.05-.48-.75-9.83-1.61-12.45-.49C86.3,102.32,86.42,106.41,87.85,106.47Z"/><path class="cls-56" d="M85.85,106.47C88,107.56,97,110,97.77,107.93c.62-.6,1.08-4.41,0-6.05-.48-.75-9.83-1.61-12.44-.49C84.31,102.32,84.42,106.41,85.85,106.47Z"/><path class="cls-55" d="M90.28,100.9c2.11,1.09,8.32,3.19,9.1,1.12.62-.59,1.08-4.41,0-6-.48-.75-6.67.2-9.28,1.32C89.08,98.24,88.84,100.84,90.28,100.9Z"/><path class="cls-56" d="M88.32,100.9c2.11,1.09,8.33,3.19,9.1,1.12.62-.59,1.08-4.41,0-6-.49-.75-6.67.2-9.29,1.32C87.12,98.24,86.89,100.84,88.32,100.9Z"/><path class="cls-55" d="M150.74,108.79s-4.56.11-5.57.92.33,4.21,1.62,4.48,4.47-2,5.68-3.48S150.74,108.79,150.74,108.79Z"/><path class="cls-59" d="M151.43,109.59s-4.56.11-5.57.92.32,4.2,1.62,4.48,4.46-2,5.68-3.49S151.43,109.59,151.43,109.59Z"/><path class="cls-60" d="M192.87,105a2.06,2.06,0,0,1-.22.57L166,111.88c-1.63.48-6.05.52-9.86.1a19.58,19.58,0,0,1-4.14-1,.66.66,0,0,1-.44-.59,23.57,23.57,0,0,1,.15-5.62c1.48,0,41.2-5.72,41.2-5.72S193.32,103.25,192.87,105Z"/><path class="cls-61" d="M192.87,105a.37.37,0,0,1-.22.57"/><path class="cls-61" d="M156.2,106.15c-3.8-.43-5.58-1.17-3.95-1.65l31.45-6h.06a35.69,35.69,0,0,1,6.47-.23h.09a5.67,5.67,0,0,1,2.55.79.37.37,0,0,1-.12.67l-26.69,6.28c-1.63.48-6.05.52-9.86.1"/><path class="cls-59" d="M151.43,103.58a16.64,16.64,0,0,0,1.66,4.1l.57.09"/><path class="cls-59" d="M160.88,108.26a.45.45,0,0,1-.22.21Z"/><path class="cls-55" d="M156.12,107.52c-.11.43-.22.45-.24.46s-1.39,1.35-1.39,1.35l-.83-1.56h0l-2.23-4.19-2.64-5,1.2-1.24.32-.32a2.83,2.83,0,0,1,2.36-.86h0a3.11,3.11,0,0,1,2.3,1C156.47,98.71,156.6,105.67,156.12,107.52Z"/><path class="cls-59" d="M151.28,97.53c-1.25,0-2.19.38-2.49,1.07-.22.5,1.26,8,2.9,10.43a21.28,21.28,0,0,0,2.64.3h.16s.12,0,.23-.46c.48-1.85.36-8.81-1.1-10.37a3.19,3.19,0,0,0-2.31-1h0"/><path class="cls-55" d="M160.81,108.51l-.24.19-1.72,1.38-.07-1.53c-.52-.18-.93-.42-.95-.62-.73-2.06-.19-7.55.28-10.47L156.8,97l1.73-1.39a3.1,3.1,0,0,1,2.67-.42h0a3.14,3.14,0,0,1,2,1.5C164.27,98.53,161.81,106.88,160.81,108.51Z"/><path class="cls-55" d="M165.58,109.51l-1.42.82.64-.9a9,9,0,0,1-2.25-1,22.1,22.1,0,0,1,3.11-6.83l-.59-.44,1.67-1h0l0,0c.69-.3,1.64.06,2.55.9l0,0a3.1,3.1,0,0,1,1,2.27C170.42,105.52,167.19,108.48,165.58,109.51Z"/><path class="cls-59" d="M167.62,102.11c-.91-.85-1.86-1.21-2.55-.91-.5.22-3.77,5.36-4.24,8.29.17.22,2.66,1.28,3,1,1.61-1,4.84-4,4.82-6.12a3.13,3.13,0,0,0-1-2.28l0,0"/><path class="cls-59" d="M159.47,96.53c-1.2-.3-2.2-.17-2.67.43-.33.43-1.7,9.55-.7,12.35,0,.5,2.55,1.28,3,.58,1-1.63,3.46-10,2.43-11.85a3.14,3.14,0,0,0-2-1.5h0"/><line class="cls-62" x1="147.39" y1="49.04" x2="152.35" y2="48.54"/><path class="cls-63" d="M130.79,45.88,130,55.45a4.85,4.85,0,0,1-1.68,3.3L114.62,70.4a4.85,4.85,0,0,1-3.52,1.14l-8-.65c-.75-5.59-1.18-13,.34-19.39a3,3,0,0,1,2.25-2.26A134.79,134.79,0,0,1,130.79,45.88Z"/><path class="cls-64" d="M109.94,14.06,92,12.61a4.85,4.85,0,0,0-3.52,1.14L74.78,25.4a4.85,4.85,0,0,0-1.68,3.29L71.64,46.63a4.87,4.87,0,0,0,1.14,3.52l11.65,13.7a4.84,4.84,0,0,0,3.3,1.69L105.66,67a4.8,4.8,0,0,0,3.52-1.13L122.89,54.2a4.83,4.83,0,0,0,1.68-3.29L126,33a4.84,4.84,0,0,0-1.14-3.52L113.24,15.75A4.86,4.86,0,0,0,109.94,14.06Z"/><path class="cls-65" d="M109,16.3,92.6,15a4.42,4.42,0,0,0-3.21,1L76.87,26.65a4.45,4.45,0,0,0-1.54,3L74,46a4.39,4.39,0,0,0,1,3.22L85.69,61.76a4.41,4.41,0,0,0,3,1.54l16.38,1.33a4.42,4.42,0,0,0,3.21-1L120.8,53a4.45,4.45,0,0,0,1.54-3l1.32-16.37a4.4,4.4,0,0,0-1-3.22L112,17.84A4.39,4.39,0,0,0,109,16.3Z"/><path class="cls-66" d="M78.86,40.32a4.06,4.06,0,0,0,.8.35l1,.28c.33.08.65.14.94.19l.67.08c.3,0,.48,0,.57-.09a.46.46,0,0,0,.13-.27.61.61,0,0,0-.09-.4.82.82,0,0,0-.29-.22,2.33,2.33,0,0,0-.72-.19c-.3,0-.62-.11-1-.2a4.7,4.7,0,0,1-1-.38,2.89,2.89,0,0,1-.9-.72,3.27,3.27,0,0,1-.6-1.21,5.52,5.52,0,0,1-.12-1.89,6.1,6.1,0,0,1,.35-1.73,3.29,3.29,0,0,1,.86-1.31,3.4,3.4,0,0,1,1.47-.78,6.58,6.58,0,0,1,2.16-.15,10.93,10.93,0,0,1,1.38.2,12.73,12.73,0,0,1,1.26.34,9.34,9.34,0,0,1,1,.39,3.58,3.58,0,0,1,.66.39L86,36.33a4,4,0,0,0-.77-.34c-.31-.1-.62-.2-.95-.28a8.34,8.34,0,0,0-.93-.17,4.13,4.13,0,0,0-.77,0,.77.77,0,0,0-.4.13.47.47,0,0,0-.11.27.38.38,0,0,0,.1.33.9.9,0,0,0,.29.18,4.88,4.88,0,0,0,.74.17,8.4,8.4,0,0,1,1,.21,5.37,5.37,0,0,1,1.06.41,3.21,3.21,0,0,1,.94.76,3.53,3.53,0,0,1,.63,1.24A5.51,5.51,0,0,1,87,41.11a6.17,6.17,0,0,1-.38,1.74,3.33,3.33,0,0,1-.88,1.31,3.48,3.48,0,0,1-1.49.78,6.6,6.6,0,0,1-2.16.15,13.15,13.15,0,0,1-1.55-.23q-.77-.18-1.41-.39A8.46,8.46,0,0,1,78,44a4.61,4.61,0,0,1-.67-.39Z"/><path class="cls-66" d="M90.38,45.5l.7-9.13-2.73-.21.3-3.83,9.22.71-.29,3.83-2.73-.21-.7,9.13Z"/><path class="cls-66" d="M103.77,46.72a8,8,0,0,1-2.52-.58,4.63,4.63,0,0,1-1.77-1.33,5.24,5.24,0,0,1-1-2.16,10.68,10.68,0,0,1-.15-3.07,10.57,10.57,0,0,1,.62-3,5.22,5.22,0,0,1,1.3-2,4.49,4.49,0,0,1,2-1,7.83,7.83,0,0,1,2.57-.19,7.66,7.66,0,0,1,2.51.58,4.5,4.5,0,0,1,1.76,1.33,5.13,5.13,0,0,1,1,2.16,10.63,10.63,0,0,1,.16,3.07,11,11,0,0,1-.62,3,5.22,5.22,0,0,1-1.3,2,4.62,4.62,0,0,1-2,1.05A7.74,7.74,0,0,1,103.77,46.72Zm.3-4a5.8,5.8,0,0,0,.94,0,1.39,1.39,0,0,0,.71-.31,1.7,1.7,0,0,0,.48-.77,5.48,5.48,0,0,0,.26-1.43,5.54,5.54,0,0,0,0-1.46,1.91,1.91,0,0,0-.35-.85,1.31,1.31,0,0,0-.66-.4,4.81,4.81,0,0,0-.92-.14,4.89,4.89,0,0,0-.94,0,1.36,1.36,0,0,0-.71.29,1.93,1.93,0,0,0-.48.78,6.33,6.33,0,0,0-.26,1.45,6,6,0,0,0,0,1.45,1.81,1.81,0,0,0,.36.84,1.28,1.28,0,0,0,.65.4A4.49,4.49,0,0,0,104.07,42.72Z"/><path class="cls-66" d="M111.24,47.11l1-13,5.52.42a13.92,13.92,0,0,1,1.5.2,2.66,2.66,0,0,1,1.26.61,2.93,2.93,0,0,1,.82,1.41,7.33,7.33,0,0,1,.16,2.57,7.41,7.41,0,0,1-.55,2.54,2.93,2.93,0,0,1-1,1.29,2.77,2.77,0,0,1-1.35.44,10.73,10.73,0,0,1-1.5,0l-1.75-.13L115,47.4Zm5.55-7.2h.34a.62.62,0,0,0,.28-.09.69.69,0,0,0,.2-.26,1.49,1.49,0,0,0,.11-.51,1.54,1.54,0,0,0,0-.51.67.67,0,0,0-.16-.29.49.49,0,0,0-.27-.13l-.33-.05-1.2-.09-.14,1.83Z"/></svg>