<svg id="Layer_1" data-name="Layer 1" xmlns="http://www.w3.org/2000/svg" xmlns:xlink="http://www.w3.org/1999/xlink" viewBox="0 0 300 200"><defs><style>.cls-1{fill:#00b1ff;}.cls-2{fill:#e2e2e2;}.cls-3{fill:#fdfeff;}.cls-4{fill:#41b9fa;}.cls-5{fill:#c4c4c4;}.cls-6{fill:#e5e5e5;}.cls-7{fill:#626c72;}.cls-8{fill:#96a5b3;}.cls-9{fill:#2f3e4a;}.cls-10{fill:#222d35;}.cls-11{fill:#353535;stroke-width:0.23px;}.cls-11,.cls-25,.cls-27,.cls-35,.cls-58,.cls-59{stroke:#000;}.cls-11,.cls-25,.cls-27{stroke-linejoin:round;}.cls-12,.cls-20,.cls-21{fill:#4d4d4d;}.cls-13{fill:#b3b3b3;}.cls-14{fill:#d3161d;}.cls-15{fill:#adadad;stroke:#080000;stroke-width:0.31px;}.cls-15,.cls-16,.cls-17,.cls-18,.cls-19,.cls-20,.cls-21,.cls-26,.cls-28,.cls-30,.cls-31,.cls-35,.cls-39,.cls-49,.cls-50,.cls-51,.cls-52,.cls-53,.cls-54,.cls-56,.cls-57,.cls-58,.cls-59,.cls-63{stroke-miterlimit:10;}.cls-16,.cls-31,.cls-35,.cls-39,.cls-50,.cls-54,.cls-58,.cls-59,.cls-63{fill:none;}.cls-16,.cls-17,.cls-28,.cls-30,.cls-39,.cls-54{stroke:#070707;}.cls-16{stroke-width:0.48px;}.cls-17{fill:#77401b;}.cls-17,.cls-18,.cls-39,.cls-56{stroke-width:0.31px;}.cls-18,.cls-22,.cls-57{fill:#f8c946;}.cls-18,.cls-56,.cls-57{stroke:#020202;}.cls-19,.cls-36{fill:#282828;}.cls-19,.cls-20,.cls-21{stroke:#151616;}.cls-19,.cls-20{stroke-width:0.26px;}.cls-21{stroke-width:0.94px;}.cls-23{fill:#683919;}.cls-24,.cls-30,.cls-56{fill:#945320;}.cls-25{fill:#515051;stroke-width:0.31px;}.cls-26,.cls-29{fill:#161616;}.cls-26,.cls-31,.cls-49,.cls-50,.cls-51,.cls-52,.cls-53,.cls-63{stroke:#0a0a0a;}.cls-26,.cls-27,.cls-28,.cls-30,.cls-31,.cls-35{stroke-width:0.27px;}.cls-27{fill:#8e8a8b;}.cls-28{fill:#e2b647;}.cls-32{fill:#dddbd7;}.cls-33{fill:#232323;}.cls-34{fill:#3a3a3a;}.cls-37{fill:#7c7c7c;}.cls-38{fill:#666;}.cls-40{fill:#7f1119;}.cls-41{fill:#5e0e18;}.cls-42{fill:#352f49;}.cls-43{fill:#e41e00;}.cls-44{fill:#fffe28;}.cls-45{fill:#18ff08;}.cls-46{fill:#dbdddd;}.cls-47{fill:#0fb0db;}.cls-48{fill:#303435;}.cls-49,.cls-50,.cls-51,.cls-52,.cls-53{stroke-width:0.12px;}.cls-49{fill:url(#radial-gradient);}.cls-51{fill:url(#radial-gradient-2);}.cls-52{fill:url(#radial-gradient-3);}.cls-53{fill:url(#radial-gradient-4);}.cls-54{stroke-width:0.16px;}.cls-55{fill:#389cce;}.cls-57{stroke-width:0.34px;}.cls-58{stroke-width:0.2px;}.cls-59{stroke-width:0.12px;}.cls-60{fill:#4f4f4f;}.cls-61{fill:#595959;}.cls-62{fill:#d1d1d1;}.cls-63{stroke-width:0.12px;}.cls-64{fill:#2689c6;}</style><radialGradient id="radial-gradient" cx="135.79" cy="44.41" r="1.97" gradientTransform="matrix(-0.97, 0, 0, 0.97, 246.29, 60.6)" gradientUnits="userSpaceOnUse"><stop offset="0.2" stop-color="#666"/><stop offset="0.57" stop-color="#585858"/><stop offset="1" stop-color="#4d4d4d"/></radialGradient><radialGradient id="radial-gradient-2" cx="127.81" cy="63.91" r="1.97" gradientTransform="matrix(-0.97, 0, 0, 0.97, 247.53, 60.04)" xlink:href="#radial-gradient"/><radialGradient id="radial-gradient-3" cx="136.02" cy="63.43" r="1.97" gradientTransform="matrix(-0.97, 0, 0, 0.97, 247.52, 60.58)" xlink:href="#radial-gradient"/><radialGradient id="radial-gradient-4" cx="128.65" cy="44.74" r="1.97" gradientTransform="matrix(-0.97, 0, 0, 0.97, 246.29, 60.14)" xlink:href="#radial-gradient"/></defs><title>wait</title><path class="cls-1" d="M26.28,192.56c-10.87,0-19.72-9.61-19.72-21.42V28.64c0-11.82,8.85-21.43,19.72-21.43H273.65c10.87,0,19.71,9.61,19.71,21.43v142.5c0,11.81-8.84,21.42-19.71,21.42Z"/><path class="cls-2" d="M273.64,10.28c9.32,0,16.9,8.23,16.9,18.36v142.5c0,10.12-7.58,18.36-16.9,18.36H26.28c-9.32,0-16.9-8.24-16.9-18.36V28.64c0-10.13,7.58-18.36,16.9-18.36H273.64m0-6.13H26.28c-12.43,0-22.54,11-22.54,24.49v142.5c0,13.5,10.11,24.49,22.54,24.49H273.64c12.43,0,22.54-11,22.54-24.49V28.64c0-13.51-10.11-24.49-22.54-24.49"/><path class="cls-3" d="M273.65,1.24H26.28c-13.87,0-25.22,12.33-25.22,27.4v142.5c0,15.07,11.35,27.4,25.22,27.4H273.65c13.86,0,25.21-12.33,25.21-27.4V28.64c0-15.07-11.35-27.4-25.21-27.4m19.85,169.9a22.4,22.4,0,0,1-5.83,15.23,19,19,0,0,1-14,6.35H26.28a19,19,0,0,1-14-6.35,22.36,22.36,0,0,1-5.84-15.23V28.64A22.37,22.37,0,0,1,12.26,13.4a18.94,18.94,0,0,1,14-6.34H273.65a19,19,0,0,1,14,6.34,22.41,22.41,0,0,1,5.83,15.24Z"/><path class="cls-4" d="M30.73,8a3.52,3.52,0,0,1-.13.43Z"/><path class="cls-5" d="M31.76,4.7,30.73,8l-.13.43h0a2.74,2.74,0,0,1-2.51,1.81h-1.9C17,10.22,9.48,18.35,9.48,28.37v2.07a2.92,2.92,0,0,1-2,2.86h0L4,34.62l1-1.89a1.89,1.89,0,0,1-.2-.2A3.1,3.1,0,0,1,4,30.44V26.5C4,14.23,13.17,4.29,24.47,4.29h3.62A2.71,2.71,0,0,1,30.4,5.68Z"/><path class="cls-6" d="M31.94,3.52h0A3.39,3.39,0,0,1,28.7,7.05H26.44c-11,0-19.88,9.67-19.88,21.6V31.1a3.38,3.38,0,0,1-3.24,3.52A3.38,3.38,0,0,1,.08,31.1V26.42C.08,11.83,11,0,24.39,0H28.7a3.39,3.39,0,0,1,3.24,3.52"/><path class="cls-7" d="M3.25,29.4a1.91,1.91,0,0,1,0,3.81,1.91,1.91,0,0,1,0-3.81"/><path class="cls-8" d="M3.25,29.6a1.71,1.71,0,0,1,0,3.41,1.71,1.71,0,0,1,0-3.41"/><polygon class="cls-9" points="4.21 30.7 4.21 31.91 3.25 32.5 2.31 31.91 2.31 30.7 3.25 30.11 4.21 30.7"/><path class="cls-10" d="M4.21,30.7v.55a1.31,1.31,0,0,0-1-.47,1.2,1.2,0,0,0-.95.47V30.7l.94-.59Z"/><path class="cls-7" d="M28.85,1.58A1.84,1.84,0,0,1,30.6,3.49a1.76,1.76,0,1,1-3.5,0,1.84,1.84,0,0,1,1.75-1.91"/><path class="cls-8" d="M28.85,1.79a1.63,1.63,0,0,1,1.56,1.7,1.57,1.57,0,1,1-3.13,0,1.64,1.64,0,0,1,1.57-1.7"/><polygon class="cls-9" points="29.8 2.89 29.8 4.09 28.85 4.68 27.9 4.09 27.9 2.89 28.85 2.3 29.8 2.89"/><path class="cls-10" d="M29.8,2.89v.54A1.34,1.34,0,0,0,28.86,3a1.26,1.26,0,0,0-1,.47V2.89l1-.6Z"/><path class="cls-5" d="M268.32,4.73l1,3.28.14.43h0a2.72,2.72,0,0,0,2.51,1.8h1.9c9.23,0,16.71,8.13,16.71,18.16v2.06a2.94,2.94,0,0,0,2,2.87h0l3.41,1.32-1-1.9a1.21,1.21,0,0,0,.2-.19,3.07,3.07,0,0,0,.8-2.1V26.54c0-12.27-9.15-22.21-20.44-22.21H272a2.68,2.68,0,0,0-2.31,1.38Z"/><path class="cls-6" d="M268.13,3.56h0a3.39,3.39,0,0,0,3.25,3.52h2.26c11,0,19.87,9.67,19.87,21.6v2.46a3.26,3.26,0,1,0,6.49,0V26.46C300,11.86,289.11,0,275.69,0h-4.31a3.39,3.39,0,0,0-3.25,3.52"/><path class="cls-7" d="M296.82,29.43a1.92,1.92,0,1,0,1.75,1.91,1.84,1.84,0,0,0-1.75-1.91"/><path class="cls-8" d="M296.82,29.64a1.71,1.71,0,1,0,1.57,1.7,1.63,1.63,0,0,0-1.57-1.7"/><polygon class="cls-9" points="295.87 30.74 295.87 31.94 296.82 32.53 297.77 31.94 297.77 30.74 296.82 30.15 295.87 30.74"/><path class="cls-10" d="M295.87,30.74v.54a1.38,1.38,0,0,1,.94-.47,1.26,1.26,0,0,1,1,.47v-.54l-.95-.6Z"/><path class="cls-7" d="M271.23,1.62a1.83,1.83,0,0,0-1.75,1.91,1.76,1.76,0,1,0,3.5,0,1.84,1.84,0,0,0-1.75-1.91"/><path class="cls-8" d="M271.23,1.82a1.64,1.64,0,0,0-1.57,1.71,1.57,1.57,0,1,0,3.13,0,1.64,1.64,0,0,0-1.56-1.71"/><polygon class="cls-9" points="270.27 2.92 270.27 4.13 271.23 4.72 272.17 4.13 272.17 2.92 271.23 2.33 270.27 2.92"/><path class="cls-10" d="M270.27,2.93v.54a1.31,1.31,0,0,1,1-.47,1.2,1.2,0,0,1,.95.47V2.93l-.94-.6Z"/><path class="cls-5" d="M31.68,195.3l-1-3.28-.14-.43h0A2.73,2.73,0,0,0,28,189.78h-1.9c-9.23,0-16.71-8.13-16.71-18.15v-2.07a2.92,2.92,0,0,0-2-2.86h0L4,165.37l1,1.9a1.26,1.26,0,0,0-.2.2,3,3,0,0,0-.8,2.09v3.94c0,12.27,9.15,22.21,20.44,22.21H28a2.69,2.69,0,0,0,2.31-1.39Z"/><path class="cls-6" d="M31.87,196.48h0A3.4,3.4,0,0,0,28.62,193H26.36c-11,0-19.87-9.67-19.87-21.6V168.9a3.39,3.39,0,0,0-3.25-3.52A3.38,3.38,0,0,0,0,168.9v4.68C0,188.17,10.89,200,24.31,200h4.31a3.4,3.4,0,0,0,3.25-3.52"/><path class="cls-7" d="M3.18,170.6a1.91,1.91,0,0,0,0-3.81,1.91,1.91,0,0,0,0,3.81"/><path class="cls-8" d="M3.18,170.4a1.71,1.71,0,0,0,0-3.41,1.71,1.71,0,0,0,0,3.41"/><polygon class="cls-9" points="4.13 169.3 4.13 168.1 3.18 167.5 2.23 168.1 2.23 169.3 3.18 169.89 4.13 169.3"/><path class="cls-10" d="M4.13,169.3v-.55a1.28,1.28,0,0,1-.94.47,1.22,1.22,0,0,1-1-.47v.55l1,.59Z"/><path class="cls-7" d="M28.77,198.42A1.92,1.92,0,1,0,27,196.51a1.84,1.84,0,0,0,1.75,1.91"/><path class="cls-8" d="M28.77,198.21a1.71,1.71,0,1,0-1.56-1.7,1.64,1.64,0,0,0,1.56,1.7"/><polygon class="cls-9" points="29.73 197.11 29.73 195.91 28.77 195.32 27.83 195.91 27.83 197.11 28.77 197.7 29.73 197.11"/><path class="cls-10" d="M29.73,197.11v-.54a1.38,1.38,0,0,1-.95.47,1.23,1.23,0,0,1-1-.47v.54l.94.6Z"/><path class="cls-5" d="M268.24,195.27l1-3.28.13-.44h0a2.74,2.74,0,0,1,2.51-1.8h1.9c9.23,0,16.71-8.13,16.71-18.16v-2.06a3,3,0,0,1,2-2.87h0l3.41-1.32-1,1.9a1.8,1.8,0,0,1,.2.19,3.12,3.12,0,0,1,.8,2.1v3.93c0,12.27-9.15,22.21-20.44,22.21h-3.63a2.7,2.7,0,0,1-2.31-1.38Z"/><path class="cls-6" d="M268.06,196.44h0a3.38,3.38,0,0,1,3.24-3.52h2.26c11,0,19.88-9.67,19.88-21.6v-2.46a3.25,3.25,0,1,1,6.48,0v4.69c0,14.59-10.88,26.41-24.31,26.41H271.3a3.38,3.38,0,0,1-3.24-3.52"/><path class="cls-7" d="M296.75,170.57a1.92,1.92,0,1,1,1.75-1.91,1.84,1.84,0,0,1-1.75,1.91"/><path class="cls-8" d="M296.75,170.36a1.71,1.71,0,1,1,1.56-1.7,1.64,1.64,0,0,1-1.56,1.7"/><polygon class="cls-9" points="295.79 169.26 295.79 168.06 296.75 167.47 297.69 168.06 297.69 169.26 296.75 169.85 295.79 169.26"/><path class="cls-10" d="M295.79,169.26v-.54a1.38,1.38,0,0,0,.95.47,1.23,1.23,0,0,0,.95-.47v.54l-.94.6Z"/><path class="cls-7" d="M271.15,198.38a1.91,1.91,0,1,1,1.75-1.91,1.83,1.83,0,0,1-1.75,1.91"/><path class="cls-8" d="M271.15,198.18a1.71,1.71,0,1,1,1.57-1.71,1.64,1.64,0,0,1-1.57,1.71"/><polygon class="cls-9" points="270.2 197.07 270.2 195.87 271.15 195.28 272.1 195.87 272.1 197.07 271.15 197.67 270.2 197.07"/><path class="cls-10" d="M270.2,197.08v-.55a1.28,1.28,0,0,0,.94.47,1.22,1.22,0,0,0,1-.47v.55l-1,.59Z"/><path class="cls-11" d="M79.4,145.61a19.23,19.23,0,0,1,.66-3.26c1.28-4.46,5.27-18,8.92-26.11,2.15-4.79,3.44-8.07,4.56-10.52a20.49,20.49,0,0,1,5.62-7.33,20.24,20.24,0,0,1,17.83-5c9.78,1.23,15,1.37,16.94,2,1.89,1.26,10.06,9.67,10.68,16.84.45,5.17.12,12.23-3.45,17.83s-17.94,32.43-24.35,33.05c-7.47.73-26.71-.1-32.37-4.11C79.37,155.41,78.82,150.77,79.4,145.61Z"/><path class="cls-12" d="M113.34,162.33a10.5,10.5,0,0,1-6.28-1.8c-4.59-3.25-5.16-7.3-4.59-12.38a18.47,18.47,0,0,1,.62-3.08c1.16-4,5.22-17.82,8.87-26,1.19-2.65,2.13-4.88,2.89-6.68.64-1.48,1.17-2.74,1.67-3.84a19.5,19.5,0,0,1,5.32-6.93,21.92,21.92,0,0,1,6-3.78,18.74,18.74,0,0,1,7-1.35,19.27,19.27,0,0,1,3.93.4,35.43,35.43,0,0,1,13.31,5.87l.72.48c6,4,9.27,8.16,9.64,12.39.42,4.82.19,11.72-3.29,17.16-3.66,5.73-27.61,25-33.28,26.72l-1.3.41C121,161.06,117,162.33,113.34,162.33Z"/><path d="M134.84,97.61h0a18.7,18.7,0,0,1,3.72.37,34.57,34.57,0,0,1,12.91,5.7l.48.33.25.17c5.74,3.79,8.82,7.69,9.16,11.58.41,4.65.19,11.29-3.12,16.48-3.48,5.45-27.31,24.59-32.69,26.26l-1.31.41c-3.47,1.1-7.4,2.34-10.9,2.34a9.48,9.48,0,0,1-5.65-1.6c-4.16-3-4.67-6.68-4.14-11.38a17.31,17.31,0,0,1,.58-2.9c1.16-4,5.2-17.75,8.82-25.83,1.19-2.66,2.14-4.89,2.9-6.69.63-1.47,1.16-2.74,1.65-3.82a18.54,18.54,0,0,1,5-6.55,20.94,20.94,0,0,1,5.7-3.6,17.4,17.4,0,0,1,6.61-1.27m0-2.17a20,20,0,0,0-7.43,1.42,23,23,0,0,0-6.26,4,20.48,20.48,0,0,0-5.62,7.32c-1.12,2.46-2.41,5.73-4.56,10.53-3.65,8.14-7.64,21.65-8.92,26.11a20.25,20.25,0,0,0-.66,3.26c-.57,5.16,0,9.79,5,13.39a11.6,11.6,0,0,0,6.9,2c4.31,0,9-1.63,12.86-2.84,6.14-1.91,30.29-21.56,33.87-27.16s3.9-12.67,3.45-17.84c-.62-7.17-8.46-12.09-10.36-13.36A37.54,37.54,0,0,0,139,95.85a21.47,21.47,0,0,0-4.15-.41Z"/><ellipse class="cls-13" cx="145.81" cy="120.15" rx="11.54" ry="14.44" transform="translate(-2.22 2.74) rotate(-1.07)"/><ellipse class="cls-13" cx="131.49" cy="140.97" rx="8.27" ry="10.35" transform="translate(-2.61 2.48) rotate(-1.07)"/><ellipse class="cls-13" cx="115.17" cy="149.42" rx="6.51" ry="8.14" transform="translate(-2.77 2.18) rotate(-1.07)"/><ellipse class="cls-14" cx="146.55" cy="120.13" rx="3.92" ry="5.4" transform="translate(-2.22 2.76) rotate(-1.07)"/><ellipse class="cls-14" cx="131.87" cy="141.37" rx="3.39" ry="4.66" transform="translate(-32.15 39.03) rotate(-15.03)"/><ellipse class="cls-14" cx="115.18" cy="149.97" rx="2.51" ry="3.45" transform="translate(-34.95 35) rotate(-15.03)"/><path class="cls-15" d="M110.43,138.57s1.71-3.76,7.4-2.11c.94-2.42,2.85-9,12.87-8.56-.56-2.2-4.81-11.68,2.31-21.37-3-1.21-4.81-2-8.38,2.69S110,137.45,110.43,138.57Z"/><line class="cls-16" x1="93.59" y1="105.6" x2="116.07" y2="107.03"/><line class="cls-16" x1="106.11" y1="94.19" x2="131.14" y2="95.78"/><polyline class="cls-16" points="134.71 96 141.35 96.43 141.35 96.43"/><line class="cls-16" x1="87.58" y1="119.57" x2="109.97" y2="120.99"/><line class="cls-16" x1="82.75" y1="133.4" x2="105.07" y2="134.82"/><line class="cls-16" x1="79.23" y1="147.69" x2="101.29" y2="149.09"/><path class="cls-17" d="M84,82.43l33.08-6.05c5.59-1.2,9.72-1.07,11.24,4.24h0c.91,5.32-1.73,6.49-6.71,8.4L88.21,102.51a10,10,0,0,1-12.4-6.88h0C74.29,90.32,78.66,84,84,82.43Z"/><path class="cls-18" d="M86.48,81.93l34.36-6.84c5.59-1.2,9.51,10.72,4.52,12.64L92,101.22a10,10,0,0,1-12.4-6.88h0A10.06,10.06,0,0,1,86.48,81.93Z"/><path class="cls-19" d="M78,90.36s-.27-1.68,1.71-4.14c-3.86-2-13.83-5.31-15.16-4.32-.91.67-1.77,2.51-2.52,4.27A2.5,2.5,0,0,0,64,89.74c5.1.6,13,1.28,13,1.28Z"/><path class="cls-20" d="M79.77,86.16c-3.86-2-13.11-6.33-14.44-5.34a13.22,13.22,0,0,0-2.77,4.07,2.47,2.47,0,0,0,1.92,3.57c5.1.59,13.26,2.2,13.64,2A5.21,5.21,0,0,1,79.77,86.16Z"/><path class="cls-19" d="M79,97s-1.23-1.17-1.14-4.33c-4.27.78-14.23,4.14-14.69,5.73-.32,1.09.11,3.07.58,4.93a2.5,2.5,0,0,0,3.68,1.69c4.42-2.62,11.13-6.86,11.13-6.86Z"/><path class="cls-20" d="M77.88,92.62c-4.26.78-14.27,2.9-14.74,4.49a13.15,13.15,0,0,0,.27,4.91,2.47,2.47,0,0,0,3.68,1.69C71.52,101.09,79,97.44,79.15,97A5.17,5.17,0,0,1,77.88,92.62Z"/><path class="cls-19" d="M85,101.44s-1.7-.06-3.72-2.49c-2.68,3.41-7.35,9-6.64,10.49.48,1,.51,1.18,2.09,2.26a2.59,2.59,0,0,0,3.88-1.18,42.64,42.64,0,0,1,4.83-7.92Z"/><path class="cls-20" d="M81.24,98.89c-2.68,3.41-8.21,8.09-7.5,9.59a4.52,4.52,0,0,0,1.85,2.45,2.55,2.55,0,0,0,3.88-1.18c2.25-4.6,5.78-8,5.64-8.4A5.16,5.16,0,0,1,81.24,98.89Z"/><path class="cls-19" d="M82.81,82.76l-2.07,2.49s-1.07.16-1.3.18c-1.33.09-8.81-7.32-7.29-8.81s4-3,4.66-2.69c.09,0,1.08.17,1.08.17S83.39,82.76,82.81,82.76Z"/><path class="cls-20" d="M84.11,82.57a7.13,7.13,0,0,0-2,1.11,11.74,11.74,0,0,0-1.42,1.57c-.86,1-8.81-7.32-7.29-8.81s4-2.59,4.67-2.3S84.78,82.58,84.11,82.57Z"/><ellipse class="cls-21" cx="89.4" cy="91.26" rx="3.54" ry="3.93" transform="translate(-37.9 102.01) rotate(-50.42)"/><path class="cls-22" d="M99.4,85.21S126.65,71,139,68.39c0,0,33.42-2.93,62.32-2C198,69,169.22,82.1,165.1,83.06S110.54,86.45,99.4,85.21Z"/><path class="cls-23" d="M155.91,80.28s11-7,12.17-7.42-21.66-.39-21.66-.39-10.73,6.6-11.44,7.32S155.91,80.28,155.91,80.28Z"/><path class="cls-24" d="M201.7,66.27s4.29,47.61,1.14,59.8c-3.46,3.14-27.66,15.1-35.52,15.36C166.25,136,163.42,87,165.45,83,168.3,80.6,189.84,70.08,201.7,66.27Z"/><path class="cls-14" d="M99.4,85.21s-.07,24.41,1.42,42.27c.58,6.88,7.43,13.36,8.56,13.58,2.6,2.22,61.69,2.67,65,.23a19.19,19.19,0,0,1-6.85-14.36c-.31-11.87-1.67-29.57-2.12-43.95C163.27,81.94,109.72,83.31,99.4,85.21Z"/><path class="cls-25" d="M156.28,55.67l.94,18-15.73,1c-2.64.14-5-3.77-5.24-8.73s1.67-9.1,4.3-9.24A3.35,3.35,0,0,1,143,57.77Z"/><path class="cls-26" d="M86.45,56S92.59,60.1,103,60.87c4.61.35,10.58-.49,16.32-1.53,18.68-3.4,26.54-13.62,26.54-13.62s-1.92-12.89-2.39-17.22-7-12.4-7-12.4Z"/><path class="cls-26" d="M206.45,50.66s-3.25,6.59-15.3,6.69-29.79-3.65-29.79-3.65l-11.73-14Z"/><path class="cls-14" d="M138.82,19l6.13-.63.9,20.12-6,.31S140.09,25.73,138.82,19Z"/><polygon class="cls-27" points="139.87 38.77 144.08 43.91 148.35 43.69 145.85 38.46 139.87 38.77"/><polygon class="cls-28" points="135.19 39.01 151.58 38.16 152.04 67.1 136.48 67.55 135.19 39.01"/><path class="cls-29" d="M139.88,38.6l-.25,3.48a.58.58,0,0,1-.22.42l-4,3.33a.59.59,0,0,1-1-.34l-.19-1a.58.58,0,0,1,.14-.52l4.49-5.85A.6.6,0,0,1,139.88,38.6Z"/><polygon class="cls-30" points="161.36 53.7 160.14 60.29 152.04 67.1 151.58 38.16 161.36 53.7"/><path class="cls-26" d="M146.08,39s.45,3.31,1.17,3.8a93.31,93.31,0,0,0,11.14,4c1.09.1.75-2.4.75-2.4Z"/><path class="cls-31" d="M146.08,39s.55,4,1.46,3.95c1.1.48,9.33,3.58,9.33,3.58"/><path class="cls-32" d="M199,51.43c-16.87,0-48.65-9-51.27-12-1-3.49-1.58-14.87-1.11-22a2.15,2.15,0,0,1,1.88-2,188,188,0,0,1,22.75-1.31,233.07,233.07,0,0,1,30.4,2,2.17,2.17,0,0,1,1.75,1.47c3.82,11.23,2.62,25.83,1.93,31.58a2.15,2.15,0,0,1-1.7,1.85,24.4,24.4,0,0,1-4.62.37Z"/><path class="cls-33" d="M171.2,15.72a230.15,230.15,0,0,1,30.18,2,.6.6,0,0,1,.48.42c3.72,10.92,2.54,25.24,1.85,30.88a.58.58,0,0,1-.44.5,23,23,0,0,1-4.32.33c-6.84,0-18-1.74-29.76-4.65-11.38-2.81-18.32-5.47-20.12-6.66-.8-3.57-1.39-13.91-.93-21a.58.58,0,0,1,.5-.53,186.88,186.88,0,0,1,22.56-1.3m0-3.14a190.13,190.13,0,0,0-22.94,1.32A3.71,3.71,0,0,0,145,17.34c-.47,7.13.1,19.09,1.22,22.7s36,13,52.73,13a26.09,26.09,0,0,0,4.94-.39,3.73,3.73,0,0,0,3-3.21c.67-5.6,2-20.67-2-32.28a3.77,3.77,0,0,0-3-2.52,234,234,0,0,0-30.61-2Z"/><polygon class="cls-28" points="137.93 72.08 139.05 79.65 155.87 79.09 153.94 71.54 137.93 72.08"/><polygon class="cls-30" points="161.43 67.26 166.05 72.93 155.87 79.09 153.94 71.54 161.43 67.26"/><ellipse class="cls-34" cx="156.75" cy="64.66" rx="4.78" ry="9" transform="translate(-3.15 8.25) rotate(-2.98)"/><path class="cls-35" d="M139.73,38.28s0,3.93-.32,4.22l-4,3.33"/><path class="cls-32" d="M90.72,55.69a17.89,17.89,0,0,1-1.87-.09A2,2,0,0,1,87.05,54c-1.23-5.66-3.79-20.07-1-31.59a2.07,2.07,0,0,1,1.55-1.57,176.7,176.7,0,0,1,40.29-4.33c2,0,4.12,0,6.18.08a2.07,2.07,0,0,1,2,1.74c1.11,6.93,1.61,18.53.95,22C134.77,43.68,104.63,55.69,90.72,55.69Z"/><path class="cls-33" d="M127.86,14.83v3.31c2,0,4.08,0,6.13.09a.42.42,0,0,1,.4.34c1.12,7,1.5,17.39,1,21C131.62,43,104.25,54,90.72,54c-.62,0-1.19,0-1.7-.08a.43.43,0,0,1-.35-.33C87.46,48.08,85,34,87.62,22.77a.47.47,0,0,1,.33-.34,175,175,0,0,1,39.91-4.29V14.83m0,0a175.32,175.32,0,0,0-40.67,4.38A3.76,3.76,0,0,0,84.41,22c-2.85,11.94-.17,26.81,1,32.33a3.7,3.7,0,0,0,3.24,2.91,18.7,18.7,0,0,0,2,.1c14.64,0,47.06-12.79,47.84-16.58s.22-15.66-.91-22.71a3.72,3.72,0,0,0-3.57-3.13c-2.13-.06-4.21-.09-6.22-.09Z"/><path class="cls-36" d="M166.13,42.24c-6.17,0-11.18-5.25-11.4-12a12.81,12.81,0,0,1,3.06-8.87,10.86,10.86,0,0,1,7.87-3.84H166c6.16,0,11.17,5.26,11.4,12a12.82,12.82,0,0,1-3.07,8.87,10.81,10.81,0,0,1-7.86,3.84Z"/><path class="cls-37" d="M166,18.9h0c5.44,0,9.86,4.69,10.06,10.67a11.44,11.44,0,0,1-2.74,7.94,9.48,9.48,0,0,1-6.9,3.39h-.31c-5.44,0-9.86-4.68-10.07-10.66s4.12-11.15,9.64-11.33H166m0-2.67h-.41c-7,.24-12.47,6.55-12.22,14.1s5.91,13.25,12.74,13.25h.4c7-.23,12.48-6.54,12.22-14.09S172.84,16.23,166,16.23Z"/><path class="cls-36" d="M118.09,44.79c-6.17,0-11.18-5.25-11.4-11.95s4.67-12.51,10.93-12.72H118c6.17,0,11.17,5.25,11.4,12a12.82,12.82,0,0,1-3.06,8.87,10.86,10.86,0,0,1-7.87,3.85Z"/><path class="cls-37" d="M118,21.45h0c5.44,0,9.86,4.69,10.06,10.67s-4.12,11.14-9.64,11.33h-.31c-5.44,0-9.86-4.69-10.06-10.67a11.5,11.5,0,0,1,2.73-7.95,9.55,9.55,0,0,1,6.91-3.38H118m0-2.67h-.4c-7,.23-12.48,6.54-12.23,14.09.25,7.4,5.91,13.25,12.74,13.25h.4c7-.23,12.48-6.54,12.23-14.09S124.8,18.78,118,18.78Z"/><ellipse class="cls-38" cx="157.13" cy="65.13" rx="2.08" ry="4.49" transform="matrix(1, -0.03, 0.03, 1, -2.1, 5.31)"/><path class="cls-39" d="M136.62,68.92c-7,1.28-37.22,16.29-37.22,16.29s.17,39.84,1.42,42.27c.59,2.88.77,6.52,7.53,12.93,2.18,1,3.12,3.84,46.65,2.52"/><path class="cls-39" d="M161.47,66.85s38.6-1.26,40.23-.58c0,0,2.42,33.05,2.15,35"/><path class="cls-40" d="M151.63,97.84l-38.06.39a2.84,2.84,0,0,0-2.8,3l1.51,22.54a2.82,2.82,0,0,0,2.85,2.64l38.1-.38a2.84,2.84,0,0,0,2.8-3l-1.54-22.54A2.85,2.85,0,0,0,151.63,97.84Z"/><path class="cls-41" d="M152.28,98.92l-38.15.31a2.21,2.21,0,0,0-2.18,2.35l1.51,22.66a2.2,2.2,0,0,0,2.22,2.05l38.14-.25a2.2,2.2,0,0,0,2.18-2.35L154.5,101A2.2,2.2,0,0,0,152.28,98.92Z"/><path class="cls-42" d="M128.11,110.58l23.47-.41a1.42,1.42,0,0,0,1.37-1.45l-.49-6.67a1.42,1.42,0,0,0-1.46-1.37l-23.46.4a1.43,1.43,0,0,0-1.38,1.46l.5,6.66A1.42,1.42,0,0,0,128.11,110.58Z"/><ellipse class="cls-43" cx="147.39" cy="105.54" rx="2.74" ry="3.43" transform="translate(-4.33 6.33) rotate(-2.42)"/><ellipse class="cls-44" cx="139.11" cy="105.62" rx="2.74" ry="3.43" transform="translate(-4.34 5.98) rotate(-2.42)"/><ellipse class="cls-45" cx="131.01" cy="105.93" rx="2.74" ry="3.43" transform="translate(-4.36 5.64) rotate(-2.42)"/><path class="cls-46" d="M133,116.21,151.5,116a1.46,1.46,0,0,0,1.43-1.51h0a1.47,1.47,0,0,0-1.51-1.43l-18.48.23a1.49,1.49,0,0,0-1.43,1.52h0A1.48,1.48,0,0,0,133,116.21Z"/><path class="cls-47" d="M143.89,125l8.2-.16a1.47,1.47,0,0,0,1.43-1.51h0a1.47,1.47,0,0,0-1.51-1.43l-8.21.15a1.48,1.48,0,0,0-1.43,1.52h0A1.49,1.49,0,0,0,143.89,125Z"/><path class="cls-47" d="M143.61,120.84l8.21-.15a1.49,1.49,0,0,0,1.43-1.52h0a1.49,1.49,0,0,0-1.52-1.43l-8.2.15a1.48,1.48,0,0,0-1.43,1.52h0A1.47,1.47,0,0,0,143.61,120.84Z"/><polygon class="cls-48" points="123.53 101.35 112.3 101.38 113.83 124.39 125.17 124.23 123.53 101.35"/><ellipse class="cls-49" cx="114.34" cy="103.93" rx="1.23" ry="1.42" transform="translate(-6.66 7.84) rotate(-3.81)"/><path class="cls-50" d="M114.24,102.52a4.29,4.29,0,0,0,.27,2.82"/><path class="cls-50" d="M115.56,103.85a5.1,5.1,0,0,1-2.44.16"/><ellipse class="cls-51" cx="123.34" cy="122.34" rx="1.23" ry="1.42" transform="translate(-7.86 8.48) rotate(-3.81)"/><path class="cls-50" d="M123.25,120.92a4.3,4.3,0,0,0,.26,2.83"/><path class="cls-50" d="M124.56,122.25a5.19,5.19,0,0,1-2.44.17"/><ellipse class="cls-52" cx="115.35" cy="122.39" rx="1.23" ry="1.42" transform="translate(-7.89 7.94) rotate(-3.81)"/><path class="cls-50" d="M115.25,121a4.32,4.32,0,0,0,.27,2.83"/><path class="cls-50" d="M116.57,122.31a5.19,5.19,0,0,1-2.44.17"/><ellipse class="cls-53" cx="121.29" cy="103.79" rx="1.23" ry="1.42" transform="translate(-6.64 8.3) rotate(-3.81)"/><path class="cls-50" d="M121.2,102.38a4.27,4.27,0,0,0,.26,2.82"/><path class="cls-50" d="M122.51,103.71a5.1,5.1,0,0,1-2.44.16"/><path class="cls-54" d="M152.93,114.46a11.16,11.16,0,0,0-6.17.41c-2.92,1.2-3.23-1.46-4.61-1.33s-1.57,2.17-3.46,2.09-1.32-.84-2.21-.77-.83,1-1.68.94-1.37-2.64-1.86-2.54"/><path class="cls-11" d="M152.53,152.3a20.25,20.25,0,0,1,.66-3.26c1.28-4.46,5.27-18,8.92-26.11,2.15-4.8,3.44-8.07,4.56-10.53a20.66,20.66,0,0,1,5.62-7.32,20.25,20.25,0,0,1,17.84-5c9.77,1.23,15,1.37,16.93,1.94,1.9,1.27,10.06,9.68,10.69,16.85.45,5.17.12,12.23-3.46,17.83S196.35,169.18,190,169.8c-7.48.72-26.72-.1-32.37-4.11C152.5,162.1,152,157.46,152.53,152.3Z"/><path class="cls-12" d="M186.47,169a10.44,10.44,0,0,1-6.27-1.8c-4.6-3.25-5.16-7.3-4.6-12.38a19.54,19.54,0,0,1,.62-3.08c1.16-4,5.22-17.82,8.87-26,1.19-2.64,2.13-4.87,2.89-6.66.63-1.5,1.17-2.76,1.67-3.86a19.52,19.52,0,0,1,5.33-6.93,21.84,21.84,0,0,1,6-3.78,18.59,18.59,0,0,1,7-1.35,19.34,19.34,0,0,1,3.93.4,35.44,35.44,0,0,1,13.3,5.87l.72.48c6,4,9.28,8.16,9.64,12.39.42,4.82.19,11.71-3.29,17.16-3.66,5.73-27.6,25-33.27,26.71l-1.31.42C194.16,167.75,190.14,169,186.47,169Z"/><path d="M208,104.29h0a18.69,18.69,0,0,1,3.71.38,34.49,34.49,0,0,1,12.91,5.7l.49.33.24.17c5.74,3.79,8.83,7.69,9.16,11.58.41,4.65.2,11.29-3.12,16.48-3.48,5.45-27.31,24.59-32.68,26.26l-1.32.41c-3.46,1.1-7.39,2.34-10.9,2.34a9.5,9.5,0,0,1-5.65-1.6c-4.16-3-4.66-6.68-4.14-11.38a17.36,17.36,0,0,1,.59-2.9c1.15-4,5.19-17.75,8.81-25.83,1.19-2.66,2.14-4.89,2.9-6.69.63-1.47,1.17-2.74,1.66-3.82a18.31,18.31,0,0,1,5-6.55,21,21,0,0,1,5.69-3.61,17.61,17.61,0,0,1,6.62-1.27m0-2.16a20,20,0,0,0-7.43,1.42,22.84,22.84,0,0,0-6.26,4,20.51,20.51,0,0,0-5.63,7.32c-1.11,2.45-2.41,5.73-4.56,10.53-3.64,8.13-7.64,21.64-8.92,26.11a19.2,19.2,0,0,0-.65,3.26c-.58,5.16,0,9.79,5,13.39a11.62,11.62,0,0,0,6.9,2c4.31,0,8.95-1.63,12.86-2.84,6.15-1.91,30.29-21.56,33.87-27.17s3.91-12.66,3.45-17.83c-.62-7.17-8.46-12.1-10.36-13.36a37.45,37.45,0,0,0-14.17-6.36,21.44,21.44,0,0,0-4.14-.41Z"/><ellipse class="cls-13" cx="218.95" cy="126.84" rx="11.54" ry="14.44" transform="translate(-2.33 4.11) rotate(-1.07)"/><ellipse class="cls-13" cx="204.63" cy="147.66" rx="8.27" ry="10.35" transform="translate(-2.72 3.85) rotate(-1.07)"/><ellipse class="cls-13" cx="188.31" cy="156.1" rx="6.51" ry="8.14" transform="translate(-2.88 3.54) rotate(-1.07)"/><ellipse class="cls-14" cx="219.69" cy="126.82" rx="3.92" ry="5.4" transform="translate(-2.33 4.13) rotate(-1.07)"/><ellipse class="cls-14" cx="205" cy="148.06" rx="3.39" ry="4.66" transform="translate(-31.38 58.22) rotate(-15.03)"/><ellipse class="cls-14" cx="188.32" cy="156.66" rx="2.51" ry="3.45" transform="translate(-34.18 54.19) rotate(-15.03)"/><path class="cls-15" d="M183.56,145.26s1.71-3.76,7.4-2.11c.94-2.42,2.85-9,12.87-8.56-.56-2.2-4.81-11.68,2.31-21.37-3-1.21-4.81-2-8.38,2.69S183.12,144.14,183.56,145.26Z"/><line class="cls-16" x1="166.72" y1="112.29" x2="189.21" y2="113.72"/><line class="cls-16" x1="179.24" y1="100.88" x2="204.27" y2="102.47"/><polyline class="cls-16" points="207.84 102.69 214.48 103.11 214.49 103.11"/><line class="cls-16" x1="160.71" y1="126.26" x2="183.11" y2="127.68"/><line class="cls-16" x1="155.89" y1="140.09" x2="178.2" y2="141.51"/><line class="cls-16" x1="152.37" y1="154.38" x2="174.42" y2="155.78"/><rect class="cls-55" x="157.22" y="28.55" width="14.69" height="3.37" rx="1.68"/><rect class="cls-55" x="111.28" y="30.75" width="14.69" height="3.37" rx="1.68"/><path class="cls-56" d="M183.91,27.91l-.29-.07a22.48,22.48,0,0,1,.6,4.89c.08,3.55,1.23,46.09,1.23,46.19a10.37,10.37,0,0,1-.1,1.83l.49-.44,2.25,6.54-7.09-1-1.21-.17c-1.86-.68-1.92-2.8-2.18-4.45l-6-44.35a39.1,39.1,0,0,1,.2-4.84c.35-3.3,1.7-8,5-9.52a4,4,0,0,1,1.11-.32h0l1.67.19,5.7.66Z"/><path class="cls-57" d="M178.14,37.81a35.49,35.49,0,0,1,.2-4.84c.35-3.31,1.7-8,5-9.53,2.39-1.08,4.83.57,5.83,2.75a18.93,18.93,0,0,1,1.49,7.46c.08,3.55,1.23,46.09,1.23,46.19a8.07,8.07,0,0,1-1.74,5.62,3.82,3.82,0,0,1-3.93,1.14c-1.85-.68-1.92-2.8-2.17-4.45Z"/><path class="cls-19" d="M160.5,25.86a7.12,7.12,0,0,1-.1-1.3Z"/><path class="cls-19" d="M186.07,20.53,186,22a.28.28,0,0,1-.1.22c-.86.69-1.7.81-4.07-.14-.75-.3-12.2-3.66-11.3-4.7s3.65-.13,3.87-.09A93.12,93.12,0,0,1,184.44,21Z"/><path class="cls-19" d="M181.44,20.76l-.28,1-.32,1.2h0a1.85,1.85,0,0,1-.43.63c-.45.38-1.52,0-2.67-.12-5.11-.6-14.35-2.8-14.62-3.74a2.41,2.41,0,0,1,0-1.33l.63-2.39.39.9a2.12,2.12,0,0,1,.42-.22c2.59-1,11.45,2.3,15.88,4.51Z"/><path class="cls-20" d="M170.61,15.79c.9-1,3.65-.13,3.87-.09s9.26,2.89,11.48,4.48a.28.28,0,0,1,0,.44c-.87.69-1.7.82-4.08-.14C181.15,20.18,169.71,16.82,170.61,15.79Z"/><path class="cls-20" d="M181.46,19.56c-4.21-2.2-13.71-5.78-16.4-4.78a2.69,2.69,0,0,0-1.47,3c.26.94,9.5,3.14,14.61,3.74,1.15.13,2.22.51,2.67.13S182,19.82,181.46,19.56Z"/><path class="cls-19" d="M178.12,24.88a2,2,0,0,1-1.65,2.21c-5.46.69-14.26,2.13-15.09,1.06a5.31,5.31,0,0,1-.88-2.28h0l-.1-1.3V21.62l17.29.42.44,2.84Z"/><path class="cls-20" d="M176.34,20.76c-4.77-1.07-12.4-2.46-15.09-1.09-1.47,1.29-1.13,4.88,0,6.35.83,1.08,9.64-.36,15.09-1.06C178.38,24.7,178.72,21.29,176.34,20.76Z"/><path class="cls-19" d="M160.5,25.87Z"/><ellipse class="cls-58" cx="116.43" cy="73.09" rx="5.5" ry="5.39" transform="translate(27.1 177.59) rotate(-81.6)"/><path class="cls-59" d="M119.53,73.4a3.26,3.26,0,0,1-2,2.57l-.41,2.78L114,78.28l.4-2.76a3.33,3.33,0,0,1-1.19-3.06,3.22,3.22,0,1,1,6.37.94Z"/><path class="cls-60" d="M114,83.59c-3.49,0-4.06-1.4-4.09-1.46a5.56,5.56,0,0,1,.22-1.13,5.06,5.06,0,0,1,4.42-4l.41,0a4.21,4.21,0,0,1,4,2.86,6.23,6.23,0,0,1,.43,1.52c-.05.15-1.08,2.25-5.31,2.25Z"/><path d="M115,77.06a4.1,4.1,0,0,1,3.87,2.8,6.63,6.63,0,0,1,.43,1.49s-1,2.14-5.21,2.14h0c-3.46,0-4-1.4-4-1.4a6.24,6.24,0,0,1,.22-1.06,5,5,0,0,1,4.33-4l.4,0m0-.2-.41,0A5.16,5.16,0,0,0,110,81a6.24,6.24,0,0,0-.22,1.09v.1c0,.06.62,1.5,4.18,1.52h0c4.29,0,5.35-2.16,5.39-2.25l0-.11a6.71,6.71,0,0,0-.44-1.55A4.3,4.3,0,0,0,115,76.86Z"/><path class="cls-61" d="M119.27,81.35s-1,2.16-5.26,2.14c-3.46,0-4-1.4-4-1.4a6.24,6.24,0,0,1,.22-1.06c.89-1.07,2.86-1.82,5.15-1.82a8.84,8.84,0,0,1,3.45.65A6.63,6.63,0,0,1,119.27,81.35Z"/><path class="cls-62" d="M117.28,79.31a.5.5,0,0,1-.33-.12.45.45,0,0,1,0-.67L132.4,62.61a.54.54,0,0,1,.37-.15.5.5,0,0,1,.33.12.47.47,0,0,1,.17.33.43.43,0,0,1-.13.34L117.66,79.16A.56.56,0,0,1,117.28,79.31Z"/><path d="M132.77,62.56a.41.41,0,0,1,.27.1.35.35,0,0,1,0,.52L117.59,79.09a.43.43,0,0,1-.31.12.41.41,0,0,1-.27-.1.36.36,0,0,1,0-.52l15.49-15.91a.42.42,0,0,1,.3-.12m0-.2a.67.67,0,0,0-.45.18L116.84,78.45a.53.53,0,0,0-.16.41.57.57,0,0,0,.21.41.62.62,0,0,0,.39.14.67.67,0,0,0,.45-.18l15.48-15.91a.53.53,0,0,0,.16-.41.6.6,0,0,0-.2-.41.65.65,0,0,0-.4-.14Z"/><path class="cls-62" d="M112.05,78.85a.53.53,0,0,1-.4-.17L97.23,62a.42.42,0,0,1-.11-.35.43.43,0,0,1,.19-.32.48.48,0,0,1,.31-.1.51.51,0,0,1,.39.17l14.43,16.73a.49.49,0,0,1,.11.35.51.51,0,0,1-.19.32A.5.5,0,0,1,112.05,78.85Z"/><path d="M97.62,61.27a.41.41,0,0,1,.32.15l14.42,16.73a.35.35,0,0,1-.06.52.39.39,0,0,1-.25.08.4.4,0,0,1-.32-.14L97.3,61.88a.35.35,0,0,1,.07-.52.38.38,0,0,1,.25-.09m0-.19a.61.61,0,0,0-.37.12.55.55,0,0,0-.1.81l14.43,16.73a.58.58,0,0,0,.47.21.63.63,0,0,0,.37-.12.54.54,0,0,0,.09-.81L98.09,61.28a.63.63,0,0,0-.47-.2Z"/><ellipse class="cls-21" cx="185.38" cy="35.71" rx="2.71" ry="5.47"/><line class="cls-63" x1="138.82" y1="18.97" x2="144.95" y2="18.34"/><path class="cls-64" d="M68,73.51h0A1.86,1.86,0,0,1,65.08,73a26.4,26.4,0,0,1,4.69-29.27,1.85,1.85,0,0,1,2.88.42h0a2.57,2.57,0,0,1,.21,3A21.14,21.14,0,0,0,69.1,70.68,2.54,2.54,0,0,1,68,73.51Z"/><path class="cls-64" d="M74.29,71.89h0a2,2,0,0,1-2.81-.79,21.77,21.77,0,0,1,3.77-23.54,2,2,0,0,1,2.92.13h0a2.16,2.16,0,0,1,.26,2.77,17.45,17.45,0,0,0-3,18.88A2.16,2.16,0,0,1,74.29,71.89Z"/><path class="cls-64" d="M80.52,70.94h0a2,2,0,0,1-2.75-1,18.33,18.33,0,0,1,3.09-19.31,2,2,0,0,1,2.93-.09h0a1.89,1.89,0,0,1,.31,2.57,14.71,14.71,0,0,0-2.48,15.48A1.89,1.89,0,0,1,80.52,70.94Z"/><path class="cls-64" d="M160.63,78.26h0a1.85,1.85,0,0,0,2.85-.59,26.37,26.37,0,0,0-5.59-29.1,1.86,1.86,0,0,0-2.87.51h0a2.55,2.55,0,0,0-.11,3.05,21.15,21.15,0,0,1,4.48,23.34A2.55,2.55,0,0,0,160.63,78.26Z"/><path class="cls-64" d="M154.24,76.83h0A1.94,1.94,0,0,0,157,76a21.74,21.74,0,0,0-4.49-23.41,2,2,0,0,0-2.91.22h0a2.16,2.16,0,0,0-.18,2.78,17.43,17.43,0,0,1,3.61,18.77A2.14,2.14,0,0,0,154.24,76.83Z"/><path class="cls-64" d="M148,76.08h0A2.06,2.06,0,0,0,150.71,75,18.36,18.36,0,0,0,147,55.79a2.05,2.05,0,0,0-2.93,0h0a1.89,1.89,0,0,0-.24,2.58,14.69,14.69,0,0,1,3,15.4A1.9,1.9,0,0,0,148,76.08Z"/></svg>