<svg id="Layer_1" data-name="Layer 1" xmlns="http://www.w3.org/2000/svg" viewBox="0 0 500 500"><defs><style>.cls-1{fill:#161616;stroke-width:0.15px;}.cls-1,.cls-20{stroke:#0a0a0a;}.cls-1,.cls-10,.cls-11,.cls-12,.cls-16,.cls-19,.cls-20,.cls-3,.cls-5,.cls-6,.cls-7,.cls-9{stroke-miterlimit:10;}.cls-2{fill:#353535;}.cls-10,.cls-11,.cls-12,.cls-16,.cls-19,.cls-3,.cls-5,.cls-6,.cls-7,.cls-9{stroke:#000;}.cls-3{stroke-width:2.22px;opacity:0.4;}.cls-21,.cls-22,.cls-3,.cls-4,.cls-5{isolation:isolate;}.cls-21,.cls-22,.cls-4{fill:#fff;}.cls-4{opacity:0.15;}.cls-5{stroke-width:2.14px;opacity:0.2;}.cls-19,.cls-6,.cls-7{fill:#d3161d;}.cls-6{stroke-width:0.97px;}.cls-10,.cls-11,.cls-12,.cls-16,.cls-7,.cls-9{stroke-width:0.51px;}.cls-8{fill:#683919;}.cls-9{fill:#3f3f3f;}.cls-10{fill:#242424;}.cls-11{fill:#202020;}.cls-12{fill:#393939;}.cls-13{fill:#945320;}.cls-14{fill:#f8c946;}.cls-15{fill:none;}.cls-16{fill:#232323;}.cls-17{fill:#a5a5a5;}.cls-18{fill:#e2b647;}.cls-19{stroke-width:0.91px;}.cls-20{fill:#333;stroke-width:1.21px;}.cls-21{opacity:0.3;}.cls-22{opacity:0.12;}.cls-23{fill:#ffc131;opacity:0.2;}.cls-24{fill:#444;}</style></defs><title>cirle_detector</title><rect class="cls-1" x="179.89" y="204.97" width="147.46" height="105.35"/><path class="cls-2" d="M387.61,253.21l-.18,3.41-.62,11.53v1.12l-.17,2.9-.08,1.74-1.34,25-.26,4.66-1.34,25v1.07a9.58,9.58,0,0,1-.69,3.58,8.65,8.65,0,0,1-7.95,5.6H334a8.66,8.66,0,0,1-8-5.59,9.93,9.93,0,0,1-.67-3.58v-1.06l-.94-25-.17-4.65-.91-25.06v-1.74l-.11-2.9v-1.12l-.42-11.55-.1-3.39.31-9,.17-4.65.24-7.1.64-17.91.16-4.64.89-25,.16-4.65.13-3.5a8.92,8.92,0,0,1,8.64-9.18H374.9a8.93,8.93,0,0,1,8.64,9.18l.18,3.5L384,185l1.35,25,.25,4.64,1,17.91.38,7.1.25,4.65Z"/><path d="M374.83,340.69H334a10.51,10.51,0,0,1-9.71-6.73,11.58,11.58,0,0,1-.82-4.27l-2.69-76.36,2.69-76.55a10.76,10.76,0,0,1,10.52-11h40.85a10.77,10.77,0,0,1,10.52,11v.06l4.14,76.32v.2l-4.14,76.42a11.25,11.25,0,0,1-.81,4.17A10.54,10.54,0,0,1,374.83,340.69ZM334,169.49a7.05,7.05,0,0,0-6.72,7.31l-2.7,76.48,2.7,76.29a7.65,7.65,0,0,0,.55,2.95A6.73,6.73,0,0,0,334,337h40.85a6.74,6.74,0,0,0,6.2-4.42,7.93,7.93,0,0,0,.54-2.89v-1.17l4-75.26-4.15-76.3a7.11,7.11,0,0,0-6.73-7.42Z"/><path class="cls-3" d="M387,268.74l-.21,3.43h-.22l-.08,1.74-1.35,25-.25,4.66-1.35,25v1.07a9.57,9.57,0,0,1-.68,3.58,8.66,8.66,0,0,1-8,5.6H334a8.66,8.66,0,0,1-8-5.59,9.93,9.93,0,0,1-.67-3.58v-1.06l-.94-25-.17-4.65-.91-25.06v-1.74h-.15l-.15-3.43Z"/><polygon points="383.9 184.95 325.05 184.95 325.22 180.3 383.66 180.3 383.9 184.95"/><polygon points="385.53 214.6 324 214.6 324.16 209.96 385.27 209.96 385.53 214.6"/><polygon points="387.13 244.26 322.95 244.26 323.12 239.61 386.87 239.61 387.13 244.26"/><polygon points="386.74 269.27 386.58 272.17 386.5 273.91 323.38 273.91 323.31 272.17 323.2 269.27 386.74 269.27"/><polygon points="385.12 298.91 384.88 303.57 324.42 303.57 324.25 298.91 385.12 298.91"/><path d="M383.52,328.57v1.07a9.57,9.57,0,0,1-.68,3.58H326a10,10,0,0,1-.67-3.58v-1.07Z"/><polygon class="cls-4" points="387.61 259.5 387.02 268.74 386.81 272.17 323.17 272.17 323.02 268.74 322.64 259.5 322.75 256.6 322.95 251.91 323.12 247.95 323.27 244.26 323.37 241.93 386.5 241.93 386.64 244.26 386.87 247.95 387.13 251.91 387.43 256.63 387.61 259.5"/><path class="cls-2" d="M187.21,253.21l-.18,3.41-.64,11.53v1.12l-.16,2.9-.16,1.74-1.34,25-.25,4.71-1.34,25v1.06a9.54,9.54,0,0,1-.69,3.58,8.64,8.64,0,0,1-8,5.6H133.59a8.65,8.65,0,0,1-8-5.64,9.54,9.54,0,0,1-.69-3.58v-1.06l-.91-25-.16-4.65L123,274v-1.73l-.15-3v-1.12l-.42-11.55-.12-3.39.32-9,.17-4.65.25-7.1.63-17.91.11-4.64.89-25,.16-4.65.12-3.5a8.93,8.93,0,0,1,8.66-9.18h40.83a8.93,8.93,0,0,1,8.65,9.18l.19,3.5.24,4.65,1.35,25,.25,4.64,1,17.91.39,7.1.26,4.65Z"/><path d="M174.42,340.69H133.59a10.52,10.52,0,0,1-9.72-6.73,11.58,11.58,0,0,1-.82-4.27l-2.69-76.36,2.69-76.55a10.75,10.75,0,0,1,10.48-11h40.89a10.77,10.77,0,0,1,10.54,11v.08l4.15,76.32v.2L185,329.73a11,11,0,0,1-.82,4.17A10.51,10.51,0,0,1,174.42,340.69Zm-40.83-171.2a7.05,7.05,0,0,0-6.73,7.31l-2.69,76.48,2.69,76.29a7.64,7.64,0,0,0,.54,2.95,6.74,6.74,0,0,0,6.19,4.43h40.83a6.74,6.74,0,0,0,6.27-4.42,7.54,7.54,0,0,0,.55-2.89v-1.17l4-75.26-4.13-76.3a7.11,7.11,0,0,0-6.73-7.42Z"/><path class="cls-3" d="M186.62,268.74l-.23,3.43h-.21l-.11,1.74-1.34,25-.25,4.71-1.34,25v1.06a9.54,9.54,0,0,1-.69,3.58,8.64,8.64,0,0,1-8,5.6H133.59a8.65,8.65,0,0,1-8-5.64,9.54,9.54,0,0,1-.69-3.58v-1.06l-.91-25-.16-4.65L123,274v-1.73h-.15l-.15-3.43Z"/><polygon points="183.5 184.95 124.65 184.95 124.81 180.3 183.26 180.3 183.5 184.95"/><polygon points="185.12 214.6 123.6 214.6 123.76 209.96 184.86 209.96 185.12 214.6"/><polygon points="186.72 244.26 122.55 244.26 122.71 239.61 186.47 239.61 186.72 244.26"/><polygon points="186.34 269.27 186.18 272.17 186.1 273.91 122.97 273.91 122.91 272.17 122.81 269.27 186.34 269.27"/><polygon points="184.72 298.91 184.48 303.57 124.02 303.57 123.86 298.91 184.72 298.91"/><path d="M183.12,328.57v1.07a9.57,9.57,0,0,1-.68,3.58H125.62a9.58,9.58,0,0,1-.69-3.58v-1.07Z"/><polygon class="cls-4" points="187.22 259.5 186.62 268.74 186.39 272.17 122.77 272.17 122.62 268.74 122.23 259.5 122.35 256.6 122.55 251.91 122.71 247.95 122.87 244.26 122.97 241.93 186.1 241.93 186.25 244.26 186.47 247.95 186.72 251.91 187.03 256.63 187.22 259.5"/><path class="cls-5" d="M342.92,256.25c0,21.33-10.56,40.6-27.55,54.37a90.94,90.94,0,0,1-12.3,8.37H203.81a10.33,10.33,0,0,1-3.57-.63h0c-1.23-.72-2.42-1.46-3.59-2.22-21.35-13.86-35.17-35.53-35.17-59.89,0-23.79,13.15-45,33.65-58.92,2.35-1.58,4.82-3.09,7.36-4.48a10.66,10.66,0,0,1,1.26-.08h97.92A90,90,0,0,1,315.45,202C332.41,215.76,342.92,235,342.92,256.25Z"/><path class="cls-6" d="M320.84,199.84V310.06a9,9,0,0,1-.22,2,11.19,11.19,0,0,1-11.09,8.74H199.45a11.67,11.67,0,0,1-3.88-.66h0a11.29,11.29,0,0,1-3.9-2.32,10.39,10.39,0,0,1-3.53-7.76V199.84a10.36,10.36,0,0,1,2-6,11.6,11.6,0,0,1,9.42-4.76H309.61a11.14,11.14,0,0,1,11.24,9.63A10.28,10.28,0,0,1,320.84,199.84Z"/><ellipse class="cls-7" cx="304.27" cy="203.28" rx="6.45" ry="6.38"/><rect class="cls-8" x="229.82" y="236.19" width="49.34" height="52.89" rx="4.04"/><path class="cls-9" d="M328.2,196.27l-1.35.54-3.47,1.08,1.35-.54a2.34,2.34,0,0,0,.82-2.9L321,179.23c-.42-1.34-1.54-2.3-2.46-2l3.48-1.07c.93-.28,2.05.62,2.46,2L329,193.39C329.4,194.68,329.05,196,328.2,196.27Z"/><path class="cls-10" d="M318.49,177.24c.95-.36,2.12.55,2.55,2l4.51,15.23c.37,1.34,0,2.55-.84,2.89l-1.34.54c-.85.33-1.9-.38-2.41-1.63l-6-14.63c-.56-1.35-.24-2.88.7-3.26Z"/><path class="cls-11" d="M327.23,174.35c.65.2,1.34,1.79,1.52,3.47l2,19.31c.16,1.54-.17,2.59-.77,2.4l-1.69-.54c-.59-.19-1.24-1.55-1.48-3.11l-2.94-19.61c-.25-1.69.09-3,.73-2.69Z"/><path class="cls-12" d="M335.13,198.65l-5,1c.45-.09.7-1.06.56-2.42l-2-19.34c-.16-1.68-.86-3.29-1.5-3.49l-2.7-.83h-.2l5-1a.34.34,0,0,1,.2,0l2.69.82c.64.22,1.34,1.81,1.51,3.49l2,19.31C335.83,197.55,335.59,198.53,335.13,198.65Z"/><path class="cls-13" d="M323.76,270.61a1.28,1.28,0,0,1-.58-.11l-6-2.69a3.77,3.77,0,0,0,.71-.32l2.21-1.25c2.27-1.35,4.33-4.91,4.59-8.08L330.08,194l6.73,3-5.38,64.38a10.55,10.55,0,0,1-4.25,7.55L325,270.18A2.53,2.53,0,0,1,323.76,270.61Z"/><path d="M330.36,194.62l6.13,2.69-5.39,64.12a10.34,10.34,0,0,1-4,7.3L324.86,270a2.36,2.36,0,0,1-1.1.34,1.38,1.38,0,0,1-.45-.08L318,267.92h0l2.2-1.25c2.4-1.35,4.49-5,4.77-8.36l5.35-63.69m-.6-1-5.38,64.59c-.26,3.09-2.24,6.59-4.42,7.82l-2.21,1.25a3.15,3.15,0,0,1-1.44.44,1.78,1.78,0,0,1-.71-.15l7.46,3.27a1.71,1.71,0,0,0,.71.15,3.19,3.19,0,0,0,1.44-.44l2.21-1.25c2.18-1.23,4.16-4.75,4.41-7.82l5.38-64.59Zm-14.19,74"/><path class="cls-14" d="M316.61,267.41a1.37,1.37,0,0,1-1.05-.46,4,4,0,0,1-.66-2.95l5.38-64.43,9.43-5.38-5.39,64a10.47,10.47,0,0,1-4.24,7.55l-2.2,1.25A2.68,2.68,0,0,1,316.61,267.41Z"/><path d="M329.26,194.86,324,258.19c-.25,2.83-2.1,6.16-4,7.28l-2.21,1.25a2.36,2.36,0,0,1-1.1.34,1,1,0,0,1-.8-.35,3.61,3.61,0,0,1-.56-2.69l5.38-64.26,8.67-4.91m.79-1.23L320,199.35,314.62,264c-.2,2.34.66,3.77,2,3.77a3,3,0,0,0,1.44-.43l2.21-1.25a10.87,10.87,0,0,0,4.43-7.82Z"/><path class="cls-12" d="M341.41,180.93l-4,16.74c-.26,1.06-.66,1.68-1.05,1.66l-4-.46c.39,0,.81-.59,1.06-1.64l4-16.76a5.39,5.39,0,0,0-.21-3.73l-1.63-1.93a.39.39,0,0,0-.27-.18l4,.46a.37.37,0,0,1,.29.17l1.62,1.94A5.33,5.33,0,0,1,341.41,180.93Z"/><path class="cls-11" d="M335.55,174.81l1.61,1.93a5.39,5.39,0,0,1,.23,3.73l-4,16.74c-.32,1.35-.92,2-1.35,1.47l-1-1.21a5,5,0,0,1-.29-3.43l3.38-17.5C334.44,175.05,335.07,174.24,335.55,174.81Z"/><path class="cls-9" d="M316.38,199.65l1.17-6.57c.33-1.76,1.52-2.88,2.69-2.43l12,4.94a3.19,3.19,0,0,1,1.25,3.55l-.68,3.78c-.28,1.6-1.34,2.69-2.34,2.52L318,203.28C316.76,203.09,316.06,201.43,316.38,199.65Z"/><path class="cls-15" d="M313.84,202.76a1.22,1.22,0,0,0,0,.27Z"/><path class="cls-16" d="M330.67,205.46l-4.4-.44-5.08-.86-3.93-.67-1.67-.3a6.67,6.67,0,0,1-2.41-.55,2.06,2.06,0,0,1-.79-1.09,7.9,7.9,0,0,1,.13-4l.62-3.38c.21-1.26.55-4.12,2.49-3.94l4.33.43a2,2,0,0,0-1.67,1.14,7.71,7.71,0,0,0-.71,2.53c-.23,1.24-.44,2.47-.66,3.69a10.67,10.67,0,0,0-.34,3.18,2.75,2.75,0,0,0,1.08,2,3.35,3.35,0,0,0,1.35.36l2.38.42L327.9,205Z"/><path class="cls-9" d="M180.69,197l1.34.54,3.49,1.07-1.35-.55c-.84-.32-1.21-1.59-.82-2.89l4.51-15.22c.42-1.35,1.53-2.29,2.46-2l-3.48-1.06c-.93-.3-2,.6-2.45,2l-4.58,15.22A2.33,2.33,0,0,0,180.69,197Z"/><path class="cls-10" d="M190.35,177.93c-.94-.38-2.11.54-2.54,2l-4.51,15.22a2.3,2.3,0,0,0,.82,2.89l1.35.54c.86.34,1.91-.38,2.42-1.62l6-14.62c.57-1.35.26-2.9-.7-3.26Z"/><path class="cls-11" d="M181.6,175c-.64.22-1.34,1.81-1.5,3.49l-2,19.3c-.16,1.54.18,2.59.77,2.4l1.71-.53c.59-.19,1.23-1.55,1.46-3.11L185,177c.25-1.71-.08-3-.73-2.77Z"/><path class="cls-12" d="M173.7,199.3l5,.94c-.47-.08-.71-1.06-.58-2.41l2-19.36c.17-1.68.86-3.27,1.52-3.47l2.69-.84a.38.38,0,0,1,.21,0l-5-.95a.37.37,0,0,0-.21,0l-2.7.83c-.66.2-1.34,1.8-1.52,3.47l-2,19.37C173,198.24,173.25,199.21,173.7,199.3Z"/><path class="cls-13" d="M185.08,271.33a2.82,2.82,0,0,1-1.27-.39l-2.21-1.26c-2.1-1.18-4-4.57-4.25-7.55L172,197.77l6.73-3,5.38,64.14c.27,3.18,2.33,6.73,4.59,8.08l2.21,1.25a3.86,3.86,0,0,0,.72.32l-6,2.69A1.54,1.54,0,0,1,185.08,271.33Z"/><path d="M178.48,195.28l5.38,63.65c.27,3.33,2.37,7,4.75,8.34l2.21,1.26h0l-5.27,2.31a1.46,1.46,0,0,1-.46.1,2.46,2.46,0,0,1-1.09-.35l-2.21-1.26c-2-1.11-3.85-4.45-4-7.28l-5.38-64.12,6.14-2.69m.6-1-7.47,3.25,5.39,64.6c.25,3.08,2.23,6.58,4.41,7.82l2.21,1.25a2.92,2.92,0,0,0,1.44.43,1.85,1.85,0,0,0,.73-.13l7.44-3.27a1.68,1.68,0,0,1-.7.13,2.92,2.92,0,0,1-1.44-.43l-2.21-1.25c-2.19-1.23-4.17-4.74-4.43-7.81l-5.38-64.59Zm14.17,74,0,0"/><path class="cls-14" d="M192.23,268.08a2.59,2.59,0,0,1-1.26-.39l-2.21-1.25c-2.1-1.18-4-4.56-4.25-7.55l-5.38-64,9.42,5.38,5.38,64.42a3.92,3.92,0,0,1-.66,2.95,1.35,1.35,0,0,1-1.05.46Z"/><path d="M179.57,195.55l8.68,4.91,5.38,64.26a3.66,3.66,0,0,1-.56,2.69,1.12,1.12,0,0,1-.81.35,2.23,2.23,0,0,1-1.09-.35L189,266.16c-2-1.12-3.84-4.46-4-7.28l-5.29-63.25m-.8-1.24L184.23,259c.25,3.07,2.23,6.57,4.41,7.81l2.21,1.25a2.82,2.82,0,0,0,1.44.43c1.34,0,2.25-1.34,2.06-3.77L189,200.11l-10.12-5.74Z"/><path class="cls-12" d="M167.42,181.62l4,16.74c.25,1,.67,1.68,1,1.64l4-.46c-.37,0-.8-.58-1-1.64l-4.05-16.74a5.39,5.39,0,0,1,.23-3.73l1.62-2a.53.53,0,0,1,.28-.18l-4,.46a.43.43,0,0,0-.29.18l-1.63,1.95A5.33,5.33,0,0,0,167.42,181.62Z"/><path class="cls-11" d="M173.29,175.49l-1.62,1.94a5.39,5.39,0,0,0-.23,3.73l4,16.74c.32,1.35.91,2,1.35,1.47l1-1.21a5,5,0,0,0,.29-3.44l-3.37-17.49C174.4,175.78,173.76,174.91,173.29,175.49Z"/><path class="cls-9" d="M192.45,200.34l-1.17-6.57c-.31-1.76-1.52-2.89-2.61-2.44l-12.11,4.94a3.23,3.23,0,0,0-1.26,3.54l.69,3.8c.28,1.58,1.35,2.69,2.33,2.5L190.93,204C192.07,203.77,192.8,202.1,192.45,200.34Z"/><path class="cls-15" d="M195,203.43a.61.61,0,0,1,0,.27.14.14,0,0,0,0-.09A.54.54,0,0,0,195,203.43Z"/><path class="cls-16" d="M178.17,206.15l4.39-.44,5.09-.88,3.93-.67,1.66-.28a6.65,6.65,0,0,0,2.41-.57,2,2,0,0,0,.81-1.08,7.87,7.87,0,0,0-.15-4l-.6-3.4c-.23-1.25-.57-4.11-2.51-3.92l-4.33.43a1.92,1.92,0,0,1,1.67,1.13,8,8,0,0,1,.73,2.54c.21,1.22.44,2.46.66,3.69a10.86,10.86,0,0,1,.32,3.16,2.69,2.69,0,0,1-1.07,2,3.47,3.47,0,0,1-1.34.36l-2.38.41-6.53,1.13Z"/><rect class="cls-17" x="188.67" y="227" width="43.48" height="5.95" rx="0.79"/><rect class="cls-18" x="232.15" y="238.34" width="44.06" height="48.08" rx="5.61"/><polygon class="cls-19" points="266.64 281.49 264.34 281.4 244.83 280.77 242.93 280.71 244.3 264.82 246.35 241.35 262.74 241.35 265.01 264.81 266.64 281.49"/><path class="cls-20" d="M248.18,243.64l-.57,6.34-1.34,14.9-1.44,15.87-.08.87a8.93,8.93,0,0,1-8.67,8.08H176.31a8.93,8.93,0,0,1-8.66-8.08L164.79,250l-.22-2.69-.35-3.71a9.07,9.07,0,0,1,7.6-10.34,9.47,9.47,0,0,1,1.06-.09H239.5a8.93,8.93,0,0,1,8.71,8.07A10.87,10.87,0,0,1,248.18,243.64Z"/><rect class="cls-17" x="276.82" y="227.01" width="43.48" height="5.95" rx="0.79"/><rect class="cls-21" x="288.26" y="227" width="13.24" height="5.06"/><path class="cls-20" d="M260.79,243.64l.56,6.34,1.35,14.9,1.43,15.87.08.87a8.92,8.92,0,0,0,8.66,8.08h59.77a8.93,8.93,0,0,0,8.67-8.08L344.16,250l.23-2.69.35-3.71a9.07,9.07,0,0,0-7.61-10.33,7.6,7.6,0,0,0-1.07-.1H269.51a8.92,8.92,0,0,0-8.69,8.07A10,10,0,0,0,260.79,243.64Z"/><path class="cls-22" d="M344.75,242.71l-.44,4.84C329.5,257,299.9,263.7,265,264.81h-2.22c-2.69.07-5.45.11-8.22.11s-5.57,0-8.32-.11H244.3c-35.22-1.11-65-7.94-79.73-17.49l-.35-3.72a9.06,9.06,0,0,1,7.6-10.33,9.5,9.5,0,0,1,1.06-.1H239.5a9,9,0,0,1,8.71,8.08h12.5a9,9,0,0,1,8.8-8.95h66.61a9.07,9.07,0,0,1,8.73,9.4C344.83,242,344.8,242.38,344.75,242.71Z"/><rect class="cls-21" x="207.47" y="227" width="13.24" height="5.06"/><rect class="cls-17" x="224.71" y="172.41" width="20.25" height="12.54"/><rect x="219.62" y="184.95" width="73.09" height="4.52"/><rect class="cls-21" x="233.72" y="172.41" width="6.51" height="12.54"/><rect class="cls-17" x="267.37" y="172.41" width="20.25" height="12.54"/><rect class="cls-21" x="276.39" y="172.41" width="6.51" height="12.54"/><polygon class="cls-23" points="224.71 172.41 138.33 -0.31 374.19 -0.31 287.62 172.41 224.71 172.41"/><path class="cls-24" d="M249.68,494.55A245,245,0,0,1,76.44,76.31,245,245,0,1,1,422.92,422.79,243.38,243.38,0,0,1,249.68,494.55Zm0-468.17c-123.06,0-223.17,100.11-223.17,223.17S126.62,472.72,249.68,472.72,472.85,372.61,472.85,249.55,372.73,26.38,249.68,26.38Z"/></svg>