<svg id="Layer_1" data-name="Layer 1" xmlns="http://www.w3.org/2000/svg" viewBox="0 0 500 500"><defs><style>.cls-1{fill:#161616;stroke-width:0.15px;}.cls-1,.cls-20{stroke:#0a0a0a;}.cls-1,.cls-10,.cls-11,.cls-12,.cls-16,.cls-19,.cls-20,.cls-3,.cls-5,.cls-6,.cls-7,.cls-9{stroke-miterlimit:10;}.cls-2{fill:#353535;}.cls-10,.cls-11,.cls-12,.cls-16,.cls-19,.cls-3,.cls-5,.cls-6,.cls-7,.cls-9{stroke:#000;}.cls-3{stroke-width:2.22px;opacity:0.4;}.cls-21,.cls-22,.cls-3,.cls-4,.cls-5{isolation:isolate;}.cls-21,.cls-22,.cls-4{fill:#fff;}.cls-4{opacity:0.15;}.cls-5{stroke-width:2.14px;opacity:0.2;}.cls-19,.cls-6,.cls-7{fill:#d3161d;}.cls-6{stroke-width:0.97px;}.cls-10,.cls-11,.cls-12,.cls-16,.cls-7,.cls-9{stroke-width:0.51px;}.cls-8{fill:#683919;}.cls-9{fill:#3f3f3f;}.cls-10{fill:#242424;}.cls-11{fill:#202020;}.cls-12{fill:#393939;}.cls-13{fill:#945320;}.cls-14{fill:#f8c946;}.cls-15{fill:none;}.cls-16{fill:#232323;}.cls-17{fill:#a5a5a5;}.cls-18{fill:#e2b647;}.cls-19{stroke-width:0.91px;}.cls-20{fill:#333;stroke-width:1.21px;}.cls-21{opacity:0.3;}.cls-22{opacity:0.12;}.cls-23{fill:#444;}.cls-24{fill:#ffc131;opacity:0.2;}</style></defs><title>line_tracker</title><g id="line-tracing"><rect class="cls-1" x="40.84" y="166.41" width="116.75" height="163.41"/><path class="cls-2" d="M104.12,396.6l-3.78-.2-12.78-.69H86.32l-3.22-.18-1.92-.09L53.47,394l-5.16-.28-27.71-1.5H19.42a10.38,10.38,0,0,1-4-.76,9.57,9.57,0,0,1-6.2-8.81V337.17a9.57,9.57,0,0,1,6.19-8.81,10.75,10.75,0,0,1,4-.75h1.18l27.67-1,5.16-.18,27.77-1H83.1l3.22-.11h1.24l12.8-.47,3.76-.12L114,325l5.16.19,7.86.27,19.85.7,5.15.18,27.71,1,5.16.18,3.88.15A9.89,9.89,0,0,1,199,337.25v45.26a9.9,9.9,0,0,1-10.17,9.58l-3.88.2-5.16.29-27.71,1.49-5.15.28-19.85,1.08-7.86.41-5.16.29Z"/><path d="M7.17,382.44V337.17a11.67,11.67,0,0,1,7.46-10.77,12.75,12.75,0,0,1,4.73-.91l84.62-3,84.83,3A11.94,11.94,0,0,1,201,337.16v45.26a11.94,11.94,0,0,1-12.19,11.67h-.07l-84.58,4.6h-.22l-84.69-4.6a12.41,12.41,0,0,1-4.62-.89A11.69,11.69,0,0,1,7.17,382.44ZM196.9,337.17a7.82,7.82,0,0,0-8.1-7.46l-84.76-3-84.55,3a8.51,8.51,0,0,0-3.26.62,7.46,7.46,0,0,0-4.91,6.87v45.27a7.45,7.45,0,0,0,4.89,6.87,8.79,8.79,0,0,0,3.21.6h1.3l83.4,4.47,84.56-4.59a7.89,7.89,0,0,0,8.22-7.46Z"/><path class="cls-3" d="M86.91,396l-3.81-.24v-.24l-1.92-.09-27.71-1.49-5.16-.28L20.6,392.12H19.42a10.59,10.59,0,0,1-4-.77,9.57,9.57,0,0,1-6.2-8.81V337.17a9.57,9.57,0,0,1,6.19-8.81,10.75,10.75,0,0,1,4-.75h1.18l27.67-1,5.16-.18,27.77-1H83.1v-.16l3.81-.16Z"/><polygon points="179.76 392.49 179.76 327.27 184.92 327.46 184.92 392.22 179.76 392.49"/><polygon points="146.9 394.29 146.9 326.11 152.05 326.29 152.05 394.01 146.9 394.29"/><polygon points="114.03 396.07 114.03 324.94 119.19 325.14 119.19 395.78 114.03 396.07"/><polygon points="86.32 395.63 83.1 395.46 81.18 395.37 81.18 325.42 83.1 325.35 86.32 325.23 86.32 395.63"/><polygon points="53.47 393.85 48.31 393.58 48.31 326.57 53.47 326.39 53.47 393.85"/><path d="M20.6,392.07H19.42a10.78,10.78,0,0,1-4-.76V328.36a10.81,10.81,0,0,1,4-.75H20.6Z"/><polygon class="cls-4" points="97.15 396.6 86.91 395.95 83.1 395.71 83.1 325.18 86.91 325.02 97.15 324.6 100.36 324.72 105.56 324.94 109.95 325.14 114.03 325.3 116.61 325.4 116.61 395.37 114.03 395.53 109.95 395.78 105.56 396.07 100.33 396.4 97.15 396.6"/><path class="cls-2" d="M104.12,174.52l-3.78-.21-12.78-.7H86.32l-3.22-.18-1.92-.18-27.71-1.49-5.22-.27L20.54,170H19.36a10.78,10.78,0,0,1-4-.76,9.59,9.59,0,0,1-6.2-8.83V115.09a9.57,9.57,0,0,1,6.25-8.83,10.37,10.37,0,0,1,4-.76h1.18l27.67-1,5.16-.18,27.71-1H83l3.28-.16h1.24l12.8-.47,3.76-.13,9.91.36,5.16.18,7.86.28,19.85.7,5.15.12,27.71,1,5.16.18,3.88.14A9.89,9.89,0,0,1,199,115.09v45.25a9.9,9.9,0,0,1-10.17,9.59l-3.88.2-5.16.27-27.71,1.49-5.15.29-19.85,1.07-7.86.43L114,174Z"/><path d="M7.17,160.34V115.09a11.67,11.67,0,0,1,7.46-10.77,12.75,12.75,0,0,1,4.73-.91l84.62-3,84.83,3A11.93,11.93,0,0,1,201.06,115v45.32A11.94,11.94,0,0,1,188.88,172h-.08l-84.58,4.6H104L19.31,172a12.43,12.43,0,0,1-4.62-.91A11.66,11.66,0,0,1,7.17,160.34ZM196.9,115.09a7.82,7.82,0,0,0-8.1-7.46l-84.76-3-84.55,3a8.49,8.49,0,0,0-3.26.6,7.45,7.45,0,0,0-4.91,6.86v45.25a7.45,7.45,0,0,0,4.89,6.95,8.4,8.4,0,0,0,3.21.61h1.3l83.4,4.47,84.56-4.58a7.87,7.87,0,0,0,8.22-7.45Z"/><path class="cls-3" d="M86.91,173.86l-3.81-.25v-.24l-1.92-.12-27.71-1.49-5.22-.27L20.54,170H19.36a10.78,10.78,0,0,1-4-.76,9.59,9.59,0,0,1-6.2-8.83V115.09a9.57,9.57,0,0,1,6.25-8.83,10.37,10.37,0,0,1,4-.76h1.18l27.67-1,5.16-.18,27.71-1H83v-.16l3.81-.17Z"/><polygon points="179.76 170.4 179.76 105.18 184.92 105.36 184.92 170.13 179.76 170.4"/><polygon points="146.9 172.19 146.9 104.02 152.05 104.2 152.05 171.91 146.9 172.19"/><polygon points="114.03 173.97 114.03 102.86 119.19 103.04 119.19 173.7 114.03 173.97"/><polygon points="86.32 173.55 83.1 173.37 81.18 173.28 81.18 103.32 83.1 103.26 86.32 103.14 86.32 173.55"/><polygon points="53.47 171.76 48.31 171.49 48.31 104.48 53.47 104.3 53.47 171.76"/><path d="M20.6,170H19.42a10.59,10.59,0,0,1-4-.77v-63a10.38,10.38,0,0,1,4-.76H20.6Z"/><polygon class="cls-4" points="97.15 174.52 86.91 173.86 83.1 173.61 83.1 103.09 86.91 102.93 97.15 102.5 100.36 102.63 105.56 102.86 109.95 103.04 114.03 103.22 116.61 103.32 116.61 173.28 114.03 173.44 109.95 173.7 105.56 173.97 100.33 174.31 97.15 174.52"/><path class="cls-5" d="M100.75,347.07c-23.64,0-45-11.7-60.26-30.52a101.68,101.68,0,0,1-9.27-13.64v-110a11.53,11.53,0,0,1,.7-3.95h0c.79-1.37,1.61-2.69,2.46-4,15.36-23.65,39.37-39,66.37-39,26.36,0,49.9,14.57,65.29,37.29,1.76,2.61,3.43,5.34,5,8.16a13,13,0,0,1,.09,1.4V301.36a99.88,99.88,0,0,1-10.24,15.28C145.62,335.43,124.31,347.07,100.75,347.07Z"/><path class="cls-6" d="M163.27,322.6H41.12a10.34,10.34,0,0,1-2.22-.24,12.38,12.38,0,0,1-9.68-12.29v-122a12.58,12.58,0,0,1,.73-4.3h0a12.38,12.38,0,0,1,2.56-4.32,11.5,11.5,0,0,1,8.61-3.91H163.27a11.43,11.43,0,0,1,6.62,2.18,12.88,12.88,0,0,1,5.28,10.44v122a12.36,12.36,0,0,1-10.68,12.46C164.08,322.63,163.67,322.63,163.27,322.6Z"/><ellipse class="cls-7" cx="159.45" cy="304.24" rx="7.07" ry="7.14"/><rect class="cls-8" x="64.37" y="221.74" width="58.61" height="54.67" rx="4.47"/><path class="cls-9" d="M167.22,330.76l-.6-1.49-1.19-3.85.59,1.49a2.57,2.57,0,0,0,3.21.91l16.87-5c1.49-.46,2.55-1.7,2.24-2.72l1.17,3.86c.32,1-.68,2.26-2.23,2.73l-16.87,5C169,332.09,167.56,331.7,167.22,330.76Z"/><path class="cls-10" d="M188.31,320c.4,1-.62,2.34-2.21,2.81l-16.87,5c-1.49.42-2.83,0-3.21-.92l-.59-1.5c-.38-.93.42-2.1,1.8-2.66l16.21-6.67c1.5-.63,3.2-.27,3.61.77Z"/><path class="cls-11" d="M191.51,329.68c-.22.72-2,1.5-3.85,1.69l-21.4,2.21c-1.7.18-2.86-.2-2.65-.85l.59-1.88c.21-.66,1.72-1.37,3.45-1.64L189.38,326c1.88-.29,3.28.09,3,.8Z"/><path class="cls-12" d="M164.58,338.44l-1.06-5.53c.1.5,1.18.77,2.68.62l21.43-2.19c1.87-.18,3.64-.95,3.87-1.67l.92-3a.45.45,0,0,0,0-.23l1.06,5.54a.41.41,0,0,1,0,.22l-.91,3c-.24.72-2,1.49-3.86,1.67l-21.4,2.23C165.8,339.22,164.71,339,164.58,338.44Z"/><path class="cls-13" d="M84.83,325.84a1.41,1.41,0,0,1,.12-.64l3-6.64a5.63,5.63,0,0,0,.36.79l1.39,2.45c1.49,2.52,5.44,4.8,8.95,5.08l71.06,6-3.28,7.45-71.35-6a11.63,11.63,0,0,1-8.36-4.71l-1.39-2.45A2.82,2.82,0,0,1,84.83,325.84Z"/><path d="M169.05,333.16l-3,6.79L95,334a11.49,11.49,0,0,1-8.08-4.47l-1.39-2.45a2.63,2.63,0,0,1-.37-1.22,1.43,1.43,0,0,1,.09-.5l2.56-5.84h0l1.39,2.44c1.49,2.66,5.58,5,9.26,5.28l70.59,5.94m1.12-.67-71.59-6c-3.41-.28-7.29-2.47-8.66-4.89l-1.39-2.44a3.51,3.51,0,0,1-.48-1.6,2,2,0,0,1,.17-.79l-3.63,8.26a2,2,0,0,0-.16.79,3.51,3.51,0,0,0,.48,1.6l1.38,2.44c1.38,2.42,5.27,4.61,8.67,4.9l71.59,6Zm-82-15.72"/><path class="cls-14" d="M88.38,317.92a1.5,1.5,0,0,1,.51-1.17,4.34,4.34,0,0,1,3.26-.73l71.41,6,6,10.44-70.89-6a11.64,11.64,0,0,1-8.36-4.69l-1.39-2.45A3,3,0,0,1,88.38,317.92Z"/><path d="M168.78,331.94,98.6,326.09c-3.13-.27-6.83-2.33-8.07-4.47l-1.39-2.45a2.63,2.63,0,0,1-.37-1.22,1.1,1.1,0,0,1,.39-.88,4,4,0,0,1,3-.63l71.21,6,5.45,9.6m1.36.88-6.36-11.21-71.59-6c-2.59-.22-4.17.73-4.17,2.27a3.32,3.32,0,0,0,.48,1.59L89.9,322a12.07,12.07,0,0,0,8.67,4.91Z"/><path class="cls-12" d="M184.22,345.4l-18.55-4.47c-1.18-.28-1.87-.73-1.84-1.16l.51-4.48c0,.44.66.9,1.82,1.18l18.57,4.4a5.94,5.94,0,0,0,4.13-.24l2.15-1.8a.46.46,0,0,0,.19-.3l-.51,4.47a.42.42,0,0,1-.19.33l-2.15,1.79A5.89,5.89,0,0,1,184.22,345.4Z"/><path class="cls-11" d="M191,338.9l-2.15,1.79a5.94,5.94,0,0,1-4.13.26l-18.56-4.4c-1.49-.36-2.2-1-1.62-1.5l1.34-1.11a5.48,5.48,0,0,1,3.8-.33l19.39,3.74C190.74,337.68,191.63,338.38,191,338.9Z"/><path class="cls-9" d="M163.47,317.66l7.28,1.3c2,.36,3.19,1.69,2.7,3L168,335.28a3.53,3.53,0,0,1-3.94,1.38l-4.19-.74c-1.77-.31-3-1.49-2.79-2.6l2.39-13.91C159.66,318.08,161.51,317.31,163.47,317.66Z"/><path class="cls-15" d="M160,314.85a1.5,1.5,0,0,0-.3,0Z"/><path class="cls-16" d="M157,333.5l.49-4.87,1-5.64.74-4.36.33-1.85a7.27,7.27,0,0,1,.61-2.67,2.28,2.28,0,0,1,1.21-.88,9,9,0,0,1,4.48.15l3.74.69c1.4.24,4.56.61,4.37,2.76l-.48,4.8a2.2,2.2,0,0,0-1.27-1.85,8.31,8.31,0,0,0-2.8-.79l-4.09-.73a11.56,11.56,0,0,0-3.52-.37,3,3,0,0,0-2.19,1.19,3.52,3.52,0,0,0-.4,1.49l-.46,2.64-1.24,7.22Z"/><path class="cls-9" d="M166.46,167.29l-.6,1.49-1.19,3.86.61-1.49c.36-.94,1.76-1.34,3.21-.91l16.86,5c1.49.47,2.54,1.71,2.23,2.73l1.17-3.86c.33-1-.67-2.25-2.22-2.71l-16.87-5.07A2.57,2.57,0,0,0,166.46,167.29Z"/><path class="cls-10" d="M187.55,178c.41-1-.6-2.34-2.2-2.81l-16.86-5a2.57,2.57,0,0,0-3.21.91l-.6,1.49c-.37.95.42,2.12,1.79,2.68l16.21,6.66c1.49.62,3.21.28,3.61-.78Z"/><path class="cls-11" d="M190.77,168.3c-.24-.72-2-1.49-3.87-1.67l-21.38-2.22c-1.72-.18-2.88.19-2.67.85l.59,1.89c.21.66,1.72,1.37,3.45,1.63L188.62,172c1.89.28,3.3-.09,3.07-.81Z"/><path class="cls-12" d="M163.86,159.55l-1,5.54c.09-.52,1.18-.79,2.67-.64L187,166.67c1.86.2,3.62,1,3.85,1.69l.92,3a.49.49,0,0,1,0,.24l1.06-5.53a.49.49,0,0,0,0-.24l-.92-3c-.23-.73-2-1.5-3.85-1.69l-21.46-2.22C165,158.77,164,159,163.86,159.55Z"/><path class="cls-13" d="M84,172.15a3.1,3.1,0,0,1,.43-1.4l1.39-2.45c1.31-2.33,5.07-4.47,8.37-4.71l71.33-6,3.3,7.46-71.08,6c-3.52.3-7.46,2.58-9,5.09l-1.39,2.45a5.27,5.27,0,0,0-.36.8l-3-6.65A1.91,1.91,0,0,1,84,172.15Z"/><path d="M168.32,164.84l-70.54,6c-3.69.29-7.76,2.62-9.25,5.26l-1.39,2.45h0l-2.56-5.85a1.45,1.45,0,0,1-.11-.51,2.62,2.62,0,0,1,.39-1.21l1.39-2.44c1.24-2.19,4.94-4.27,8.07-4.48l71.06-6,3,6.8m1.11.67-3.6-8.28-71.59,6c-3.42.28-7.3,2.47-8.67,4.89l-1.38,2.45a3.21,3.21,0,0,0-.48,1.59,1.88,1.88,0,0,0,.15.81l3.62,8.25a2.08,2.08,0,0,1-.15-.78,3.39,3.39,0,0,1,.48-1.6l1.39-2.44c1.35-2.43,5.25-4.63,8.65-4.91l71.58-6Zm-82,15.71,0,0"/><path class="cls-14" d="M87.64,180.08a2.91,2.91,0,0,1,.43-1.4l1.39-2.45c1.31-2.32,5.05-4.47,8.36-4.71l70.89-6-6,10.44-71.39,6a4.33,4.33,0,0,1-3.27-.73,1.47,1.47,0,0,1-.5-1.16Z"/><path d="M168,166.05l-5.44,9.62-71.22,6a4.08,4.08,0,0,1-3-.62,1.23,1.23,0,0,1-.39-.9,2.62,2.62,0,0,1,.39-1.21l1.39-2.44c1.24-2.19,4.94-4.27,8.07-4.48l70.09-5.86m1.38-.88-71.59,6c-3.4.28-7.28,2.47-8.65,4.89l-1.39,2.45a3.32,3.32,0,0,0-.48,1.59c0,1.49,1.49,2.49,4.18,2.28l71.59-6,6.35-11.22Z"/><path class="cls-12" d="M183.46,152.58l-18.55,4.47c-1.17.29-1.87.75-1.82,1.17l.5,4.47c0-.42.64-.89,1.82-1.16L184,157a6,6,0,0,1,4.13.25l2.16,1.79a.51.51,0,0,1,.19.32l-.5-4.48a.5.5,0,0,0-.2-.33l-2.16-1.8A6,6,0,0,0,183.46,152.58Z"/><path class="cls-11" d="M190.24,159.08l-2.14-1.79A6,6,0,0,0,184,157l-18.56,4.47c-1.49.36-2.2,1-1.62,1.5l1.34,1.11a5.6,5.6,0,0,0,3.8.32l19.39-3.73C189.93,160.32,190.89,159.6,190.24,159.08Z"/><path class="cls-9" d="M162.71,180.32,170,179c2-.34,3.21-1.68,2.7-2.89l-5.47-13.42a3.57,3.57,0,0,0-3.93-1.39l-4.2.76c-1.76.31-3,1.49-2.77,2.58l2.29,14C158.91,179.9,160.76,180.71,162.71,180.32Z"/><path class="cls-15" d="M159.28,183.14a1.5,1.5,0,0,1-.3,0,.21.21,0,0,0,.11,0A.61.61,0,0,0,159.28,183.14Z"/><path class="cls-16" d="M156.27,164.5l.49,4.86,1,5.64.75,4.35.31,1.85a7.25,7.25,0,0,0,.63,2.67,2.17,2.17,0,0,0,1.19.89,8.69,8.69,0,0,0,4.47-.16l3.76-.67c1.39-.25,4.57-.63,4.36-2.77l-.48-4.81a2.12,2.12,0,0,1-1.25,1.85,8.69,8.69,0,0,1-2.82.81l-4.09.73a11.46,11.46,0,0,1-3.5.36,3,3,0,0,1-2.21-1.18,3.89,3.89,0,0,1-.4-1.49l-.45-2.64-1.25-7.24Z"/><rect class="cls-17" x="126.58" y="176.13" width="6.59" height="48.19" rx="0.88"/><rect class="cls-18" x="67.31" y="224.32" width="53.29" height="48.83" rx="6.22"/><polygon class="cls-19" points="72.78 262.54 72.87 259.99 73.57 238.37 73.65 236.26 91.25 237.78 117.25 240.05 117.25 258.22 91.26 260.74 72.78 262.54"/><path class="cls-20" d="M114.72,242.08l-7-.63L91.19,240,73.6,238.37l-1-.09a9.9,9.9,0,0,1-8.95-9.61V162.44a9.9,9.9,0,0,1,8.95-9.61l35.07-3.16,3-.25,4.11-.39a10.05,10.05,0,0,1,11.45,8.43,9.24,9.24,0,0,1,.11,1.18v73.82a9.9,9.9,0,0,1-8.95,9.65A12,12,0,0,1,114.72,242.08Z"/><rect class="cls-17" x="126.56" y="273.82" width="6.59" height="48.19" rx="0.88"/><rect class="cls-21" x="127.56" y="286.49" width="5.61" height="14.68"/><path class="cls-20" d="M114.72,256.05l-7,.63-16.51,1.49L73.6,259.75l-1,.09a9.9,9.9,0,0,0-8.95,9.61v66.23a9.9,9.9,0,0,0,8.95,9.61l35.1,3.16,3,.25,4.11.39a10.05,10.05,0,0,0,11.45-8.43,9.4,9.4,0,0,0,.11-1.19V265.72a9.9,9.9,0,0,0-8.95-9.64A12.28,12.28,0,0,0,114.72,256.05Z"/><path class="cls-22" d="M115.75,349.1l-5.36-.49C100,332.21,92.5,299.39,91.26,260.74v-2.46c-.07-3-.12-6-.12-9.12s0-6.17.12-9.21v-2.17c1.24-39,8.8-72.05,19.39-88.36l4.11-.39a10.05,10.05,0,0,1,11.45,8.43,9.24,9.24,0,0,1,.11,1.18v73.82a9.9,9.9,0,0,1-8.95,9.65V256a10,10,0,0,1,9.92,9.76v73.82a10,10,0,0,1-10.42,9.67A10.36,10.36,0,0,1,115.75,349.1Z"/><rect class="cls-21" x="127.56" y="196.96" width="5.61" height="14.68"/><rect class="cls-17" x="179.76" y="216.07" width="13.9" height="22.45"/><rect x="174.75" y="210.43" width="5.01" height="81"/><rect class="cls-21" x="179.76" y="226.06" width="13.9" height="7.22"/><rect class="cls-17" x="179.76" y="263.35" width="13.9" height="22.45"/><rect class="cls-21" x="179.76" y="273.34" width="13.9" height="7.22"/><path class="cls-23" d="M495.2,299.28l-51.94-.17.3-88.75,51.94.18Z"/><path class="cls-23" d="M432,299.49,380,299.32l.3-88.75,51.94.18Z"/><path class="cls-23" d="M368.6,299.38l-51.94-.17.29-88.74,51.94.17Z"/><path class="cls-23" d="M305.36,299.6l-51.94-.18.29-88.74,51.94.17Z"/><polygon class="cls-24" points="193.66 216.07 358.17 105.5 358.17 394.41 193.66 285.79 193.66 216.07"/></g></svg>