<svg id="Layer_1" data-name="Layer 1" xmlns="http://www.w3.org/2000/svg" viewBox="0 0 500 500"><defs><style>.cls-1{fill:#4dcfe0;}.cls-2{fill:#1185e0;}.cls-3{fill:#161616;stroke-width:0.15px;}.cls-22,.cls-3{stroke:#0a0a0a;}.cls-11,.cls-12,.cls-13,.cls-14,.cls-18,.cls-21,.cls-22,.cls-3,.cls-5,.cls-7,.cls-8,.cls-9{stroke-miterlimit:10;}.cls-4{fill:#353535;}.cls-11,.cls-12,.cls-13,.cls-14,.cls-18,.cls-21,.cls-5,.cls-7,.cls-8,.cls-9{stroke:#000;}.cls-5{stroke-width:2.22px;opacity:0.4;}.cls-23,.cls-24,.cls-5,.cls-6,.cls-7{isolation:isolate;}.cls-23,.cls-24,.cls-6{fill:#fff;}.cls-6{opacity:0.15;}.cls-7{stroke-width:2.14px;opacity:0.2;}.cls-21,.cls-8,.cls-9{fill:#d3161d;}.cls-8{stroke-width:0.97px;}.cls-11,.cls-12,.cls-13,.cls-14,.cls-18,.cls-9{stroke-width:0.51px;}.cls-10{fill:#683919;}.cls-11{fill:#3f3f3f;}.cls-12{fill:#242424;}.cls-13{fill:#202020;}.cls-14{fill:#393939;}.cls-15{fill:#945320;}.cls-16{fill:#f8c946;}.cls-17{fill:none;}.cls-18{fill:#232323;}.cls-19{fill:#a5a5a5;}.cls-20{fill:#e2b647;}.cls-21{stroke-width:0.91px;}.cls-22{fill:#333;stroke-width:1.21px;}.cls-23{opacity:0.3;}.cls-24{opacity:0.12;}</style></defs><title>sound_detector</title><path class="cls-1" d="M97.46,318.44a9.07,9.07,0,0,1-9.23-9.23V197.82a9.23,9.23,0,0,1,18.46,0V309.21A9.07,9.07,0,0,1,97.46,318.44Z"/><path class="cls-1" d="M68.53,345.22A9.07,9.07,0,0,1,59.3,336V171.05a9.23,9.23,0,0,1,18.46,0V336A9.07,9.07,0,0,1,68.53,345.22Z"/><path class="cls-1" d="M39.91,318.44a9.07,9.07,0,0,1-9.23-9.23V197.82a9.24,9.24,0,0,1,18.47,0V309.21A9.07,9.07,0,0,1,39.91,318.44Z"/><path class="cls-1" d="M11,291.67a9.07,9.07,0,0,1-9.23-9.23V224.59A9.07,9.07,0,0,1,11,215.36a9.07,9.07,0,0,1,9.23,9.23v57.85A9.07,9.07,0,0,1,11,291.67Z"/><path class="cls-2" d="M459.3,339a9.07,9.07,0,0,1-9.23-9.23V164.82a9.23,9.23,0,1,1,18.46,0V329.75A9.07,9.07,0,0,1,459.3,339Z"/><path class="cls-2" d="M431.41,326.63c-5.23,0-9.23-4.58-9.23-10.56V188.71c0-6,4-10.55,9.23-10.55s9.23,4.57,9.23,10.55V316.07C440.64,322.05,436.64,326.63,431.41,326.63Z"/><path class="cls-2" d="M488.53,318.44a9.07,9.07,0,0,1-9.23-9.23V197.82a9.23,9.23,0,0,1,18.46,0V309.21A9.07,9.07,0,0,1,488.53,318.44Z"/><path class="cls-2" d="M402.07,291.67a9.07,9.07,0,0,1-9.23-9.23V224.59a9.23,9.23,0,0,1,18.46,0v57.85A9.07,9.07,0,0,1,402.07,291.67Z"/><rect class="cls-3" x="174.52" y="201.17" width="148.34" height="105.98"/><path class="cls-4" d="M383.49,249.71l-.19,3.42-.62,11.6v1.13l-.17,2.92-.08,1.75-1.35,25.15-.26,4.69-1.35,25.15v1.07a9.61,9.61,0,0,1-.69,3.6,8.7,8.7,0,0,1-8,5.64H329.54a8.71,8.71,0,0,1-8-5.62,9.88,9.88,0,0,1-.68-3.6v-1.07l-.95-25.12-.16-4.68-.92-25.21v-1.75l-.11-2.92v-1.13l-.42-11.61-.11-3.41.31-9,.18-4.68.24-7.14.64-18,.16-4.68.9-25.15.16-4.68.13-3.52a9,9,0,0,1,8.7-9.24H370.7a9,9,0,0,1,8.69,9.24l.19,3.52.25,4.68,1.36,25.15.25,4.68,1,18,.38,7.14.26,4.68Z"/><path d="M370.63,337.71H329.54a10.58,10.58,0,0,1-9.78-6.77,11.68,11.68,0,0,1-.82-4.29l-2.71-76.82,2.71-77a10.82,10.82,0,0,1,10.58-11.06h41.09a10.83,10.83,0,0,1,10.59,11.07v.06l4.17,76.78v.2l-4.17,76.87a11.41,11.41,0,0,1-.81,4.2A10.6,10.6,0,0,1,370.63,337.71ZM329.54,165.48a7.1,7.1,0,0,0-6.77,7.36l-2.71,76.93,2.71,76.75a7.91,7.91,0,0,0,.55,3,6.78,6.78,0,0,0,6.25,4.45h41.08a6.77,6.77,0,0,0,6.25-4.44,8,8,0,0,0,.54-2.91v-1.18l4.06-75.7-4.17-76.77a7.15,7.15,0,0,0-6.77-7.46Z"/><path class="cls-5" d="M382.89,265.33l-.21,3.45h-.22l-.08,1.75L381,295.68l-.26,4.69-1.36,25.15v1.07a9.41,9.41,0,0,1-.69,3.6,8.69,8.69,0,0,1-8,5.64H329.54a8.71,8.71,0,0,1-8-5.62,9.88,9.88,0,0,1-.68-3.6v-1.07l-.95-25.12-.16-4.68-.92-25.21v-1.75h-.15l-.15-3.45Z"/><polygon points="379.75 181.04 320.55 181.04 320.73 176.35 379.51 176.35 379.75 181.04"/><polygon points="381.39 210.87 319.49 210.87 319.65 206.19 381.13 206.19 381.39 210.87"/><polygon points="383 240.7 318.44 240.7 318.61 236.02 382.75 236.02 383 240.7"/><polygon points="382.61 265.86 382.45 268.78 382.37 270.53 318.87 270.53 318.8 268.78 318.69 265.86 382.61 265.86"/><polygon points="380.99 295.68 380.74 300.37 319.91 300.37 319.75 295.68 380.99 295.68"/><path d="M379.37,325.52v1.07a9.41,9.41,0,0,1-.69,3.6H321.54a9.84,9.84,0,0,1-.68-3.6v-1.07Z"/><polygon class="cls-6" points="383.49 256.03 382.89 265.33 382.68 268.78 318.65 268.78 318.5 265.33 318.13 256.03 318.23 253.12 318.44 248.39 318.61 244.41 318.76 240.7 318.86 238.36 382.37 238.36 382.51 240.7 382.75 244.41 383 248.39 383.3 253.15 383.49 256.03"/><path class="cls-4" d="M181.89,249.71l-.19,3.42-.64,11.6v1.13l-.16,2.92-.16,1.75-1.36,25.15-.24,4.74-1.35,25.16v1.07a9.89,9.89,0,0,1-.69,3.6,8.72,8.72,0,0,1-8,5.63H127.94a8.71,8.71,0,0,1-8-5.67,9.68,9.68,0,0,1-.69-3.6v-1.07l-.92-25.12-.16-4.68-.89-25.16v-1.74l-.15-3v-1.13l-.42-11.61-.13-3.41.33-9,.16-4.68.26-7.14.64-18,.1-4.68L119,181l.16-4.68.12-3.52a9,9,0,0,1,8.71-9.24H169a9,9,0,0,1,8.71,9.24l.19,3.52.24,4.68,1.36,25.15.25,4.68,1,18,.39,7.14.26,4.68Z"/><path d="M169,337.71H127.94a10.58,10.58,0,0,1-9.78-6.77,11.68,11.68,0,0,1-.82-4.29l-2.71-76.82,2.71-77a10.83,10.83,0,0,1,10.54-11.11H169a10.83,10.83,0,0,1,10.61,11v.08l4.17,76.77v.21l-4.17,76.87a11.33,11.33,0,0,1-.82,4.19A10.6,10.6,0,0,1,169,337.71ZM127.94,165.48a7.09,7.09,0,0,0-6.77,7.36l-2.71,76.93,2.71,76.75a7.71,7.71,0,0,0,.54,3,6.76,6.76,0,0,0,6.23,4.45H169a6.76,6.76,0,0,0,6.31-4.44,7.43,7.43,0,0,0,.56-2.91v-1.18l4.06-75.7-4.16-76.77a7.15,7.15,0,0,0-6.77-7.46Z"/><path class="cls-5" d="M181.29,265.33l-.23,3.45h-.21l-.11,1.75-1.36,25.15-.24,4.74-1.35,25.16v1.07a9.89,9.89,0,0,1-.69,3.6,8.72,8.72,0,0,1-8,5.63H127.94a8.71,8.71,0,0,1-8-5.67,9.68,9.68,0,0,1-.69-3.6v-1.07l-.92-25.12-.16-4.68-.89-25.16v-1.74h-.15l-.15-3.46Z"/><polygon points="178.15 181.04 118.95 181.04 119.11 176.35 177.91 176.35 178.15 181.04"/><polygon points="179.78 210.87 117.89 210.87 118.05 206.19 179.52 206.19 179.78 210.87"/><polygon points="181.39 240.7 116.84 240.7 117 236.02 181.14 236.02 181.39 240.7"/><polygon points="181.01 265.86 180.85 268.78 180.76 270.53 117.25 270.53 117.2 268.78 117.09 265.86 181.01 265.86"/><polygon points="179.38 295.68 179.14 300.37 118.31 300.37 118.15 295.68 179.38 295.68"/><path d="M177.77,325.52v1.07a9.61,9.61,0,0,1-.69,3.6H119.92a9.61,9.61,0,0,1-.69-3.6v-1.07Z"/><polygon class="cls-6" points="181.89 256.03 181.29 265.33 181.06 268.78 117.05 268.78 116.9 265.33 116.51 256.03 116.63 253.12 116.84 248.39 117 244.41 117.16 240.7 117.25 238.36 180.76 238.36 180.91 240.7 181.14 244.41 181.39 248.39 181.7 253.15 181.89 256.03"/><path class="cls-7" d="M338.53,252.77c0,21.46-10.63,40.84-27.72,54.69a90.45,90.45,0,0,1-12.37,8.42H198.58a10.48,10.48,0,0,1-3.59-.63h0c-1.23-.73-2.44-1.47-3.61-2.24C169.91,299.07,156,277.27,156,252.77c0-23.94,13.23-45.3,33.85-59.27,2.37-1.6,4.85-3.12,7.4-4.51a9.17,9.17,0,0,1,1.28-.08H297a90.17,90.17,0,0,1,13.87,9.28C328,212,338.53,231.38,338.53,252.77Z"/><path class="cls-8" d="M316.31,196V306.89a8.57,8.57,0,0,1-.22,2,11.25,11.25,0,0,1-11.15,8.79H194.19a11.49,11.49,0,0,1-3.89-.67h0a11.33,11.33,0,0,1-3.93-2.32,10.47,10.47,0,0,1-3.55-7.82V196a10.39,10.39,0,0,1,2-6,11.67,11.67,0,0,1,9.48-4.79H305a11.2,11.2,0,0,1,11.3,9.69A8.22,8.22,0,0,1,316.31,196Z"/><ellipse class="cls-9" cx="299.65" cy="199.48" rx="6.48" ry="6.42"/><rect class="cls-10" x="224.75" y="232.58" width="49.63" height="53.21" rx="4.06"/><path class="cls-11" d="M323.72,192.43l-1.36.54-3.49,1.08,1.35-.54a2.32,2.32,0,0,0,.83-2.91l-4.54-15.31c-.42-1.36-1.54-2.32-2.47-2l3.5-1.07c.94-.29,2.06.62,2.48,2l4.54,15.31C324.92,190.83,324.57,192.11,323.72,192.43Z"/><path class="cls-12" d="M314,173.28c.94-.36,2.12.56,2.55,2l4.54,15.31c.38,1.35,0,2.57-.84,2.91l-1.35.54c-.86.34-1.91-.38-2.43-1.64l-6.05-14.71c-.57-1.36-.24-2.9.71-3.28Z"/><path class="cls-13" d="M322.74,170.37c.65.2,1.36,1.8,1.53,3.49l2,19.43c.16,1.55-.18,2.6-.78,2.41l-1.7-.54c-.6-.19-1.25-1.56-1.49-3.13l-2.95-19.72c-.26-1.71.08-3,.73-2.71Z"/><path class="cls-14" d="M330.69,194.82l-5,1c.46-.09.7-1.07.57-2.43l-2-19.46c-.16-1.69-.86-3.3-1.51-3.5l-2.71-.84a.34.34,0,0,0-.2,0l5-1a.67.67,0,0,1,.2,0l2.71.83c.65.22,1.36,1.81,1.52,3.51l2,19.42C331.39,193.71,331.15,194.7,330.69,194.82Z"/><path class="cls-15" d="M319.25,267.21a1.28,1.28,0,0,1-.58-.11l-6-2.7a4.69,4.69,0,0,0,.72-.33l2.22-1.26c2.29-1.35,4.36-4.94,4.62-8.12l5.41-64.51,6.77,3L327,257.92a10.6,10.6,0,0,1-4.28,7.6l-2.22,1.26A2.63,2.63,0,0,1,319.25,267.21Z"/><path d="M325.9,190.76l6.16,2.71L326.64,258a10.44,10.44,0,0,1-4.06,7.34l-2.22,1.26a2.31,2.31,0,0,1-1.11.33,1,1,0,0,1-.45-.08l-5.3-2.33h0l2.22-1.25c2.41-1.36,4.5-5.07,4.79-8.41l5.39-64.08m-.61-1-5.42,65c-.26,3.1-2.25,6.62-4.44,7.87l-2.22,1.25a3.11,3.11,0,0,1-1.45.44,1.82,1.82,0,0,1-.72-.15l7.51,3.29a1.74,1.74,0,0,0,.71.15,3.11,3.11,0,0,0,1.45-.44l2.22-1.25c2.19-1.25,4.19-4.78,4.44-7.87l5.42-65ZM311,264.21"/><path class="cls-16" d="M312.06,264a1.39,1.39,0,0,1-1.06-.46,4,4,0,0,1-.66-3l5.42-64.82,9.47-5.41-5.41,64.35a10.55,10.55,0,0,1-4.27,7.59l-2.22,1.26A2.64,2.64,0,0,1,312.06,264Z"/><path d="M324.79,191l-5.31,63.72c-.24,2.84-2.11,6.2-4.06,7.32l-2.22,1.26a2.44,2.44,0,0,1-1.11.34,1,1,0,0,1-.8-.35,3.62,3.62,0,0,1-.57-2.71l5.42-64.65,8.71-4.94m.8-1.23-10.18,5.77-5.41,65c-.21,2.36.66,3.79,2.05,3.79a3.06,3.06,0,0,0,1.45-.43l2.22-1.26a11,11,0,0,0,4.46-7.87Z"/><path class="cls-14" d="M337,177,333,193.83c-.26,1.07-.66,1.7-1.06,1.67l-4.06-.46c.4,0,.81-.6,1.07-1.65l4-16.86a5.45,5.45,0,0,0-.22-3.75L331,170.83a.41.41,0,0,0-.27-.17l4.06.46a.4.4,0,0,1,.3.17l1.62,2A5.34,5.34,0,0,1,337,177Z"/><path class="cls-13" d="M331.11,170.83l1.62,1.95a5.33,5.33,0,0,1,.23,3.75l-4,16.84c-.33,1.36-.92,2-1.35,1.48l-1-1.22a5.07,5.07,0,0,1-.3-3.45l3.4-17.6C330,171.08,330.64,170.26,331.11,170.83Z"/><path class="cls-11" d="M311.83,195.82l1.18-6.6c.32-1.78,1.53-2.9,2.71-2.45l12.1,5a3.21,3.21,0,0,1,1.26,3.57l-.68,3.8c-.28,1.61-1.35,2.71-2.35,2.54l-12.64-2.17C312.21,199.29,311.51,197.61,311.83,195.82Z"/><path class="cls-17" d="M309.27,199a1.22,1.22,0,0,0,0,.27Z"/><path class="cls-18" d="M326.21,201.67l-4.43-.44-5.12-.87-4-.68-1.68-.3a6.52,6.52,0,0,1-2.42-.55,2,2,0,0,1-.8-1.1,8,8,0,0,1,.13-4.06l.63-3.4c.21-1.27.55-4.14,2.5-4l4.36.43a2,2,0,0,0-1.68,1.15,7.3,7.3,0,0,0-.71,2.55c-.24,1.24-.45,2.47-.67,3.71a10.7,10.7,0,0,0-.34,3.19,2.71,2.71,0,0,0,1.09,2,3.36,3.36,0,0,0,1.35.37l2.4.42,6.55,1.12Z"/><path class="cls-11" d="M175.32,193.12l1.36.54,3.5,1.08-1.35-.55c-.85-.33-1.22-1.6-.83-2.92L182.54,176c.42-1.35,1.54-2.3,2.48-2l-3.51-1.07c-.94-.3-2,.61-2.47,2l-4.6,15.32A2.35,2.35,0,0,0,175.32,193.12Z"/><path class="cls-12" d="M185,174c-.95-.38-2.12.54-2.56,2L178,191.27a2.34,2.34,0,0,0,.82,2.92l1.36.54c.86.34,1.92-.38,2.43-1.63l6-14.71c.57-1.36.26-2.91-.7-3.28Z"/><path class="cls-13" d="M176.24,171.05c-.65.22-1.35,1.81-1.51,3.5l-2,19.42c-.16,1.56.17,2.61.77,2.42l1.72-.54c.6-.19,1.25-1.56,1.48-3.13L179.63,173c.25-1.72-.08-3-.73-2.79Z"/><path class="cls-14" d="M168.3,195.47l5,.95c-.47-.08-.72-1.07-.58-2.42l2-19.49c.17-1.69.86-3.29,1.53-3.49l2.7-.84a.41.41,0,0,1,.22,0l-5-1a.41.41,0,0,0-.22,0l-2.71.84c-.66.2-1.35,1.81-1.53,3.49l-2,19.48C167.59,194.4,167.84,195.38,168.3,195.47Z"/><path class="cls-15" d="M179.74,267.93a2.77,2.77,0,0,1-1.28-.39l-2.22-1.26c-2.11-1.19-4.06-4.61-4.28-7.6l-5.41-64.75,6.77-3,5.41,64.52c.27,3.2,2.35,6.77,4.62,8.12l2.22,1.26a4.8,4.8,0,0,0,.73.33l-6,2.71A1.84,1.84,0,0,1,179.74,267.93Z"/><path d="M173.1,191.42l5.42,64c.27,3.34,2.38,7,4.78,8.39l2.22,1.26h0l-5.31,2.33a1.46,1.46,0,0,1-.46.1,2.38,2.38,0,0,1-1.1-.35l-2.22-1.26c-2-1.13-3.87-4.49-4.06-7.33L167,194.09l6.17-2.71m.61-1-7.52,3.27,5.42,65c.26,3.1,2.25,6.62,4.44,7.86l2.22,1.26a3,3,0,0,0,1.45.44,1.83,1.83,0,0,0,.73-.14l7.49-3.29a1.76,1.76,0,0,1-.71.14,3,3,0,0,1-1.45-.44l-2.22-1.26c-2.2-1.23-4.19-4.76-4.45-7.85l-5.42-65ZM188,264.83m0,0"/><path class="cls-16" d="M186.94,264.67a2.71,2.71,0,0,1-1.27-.4L183.44,263c-2.11-1.2-4.06-4.59-4.27-7.6l-5.42-64.35,9.48,5.42,5.41,64.81a3.9,3.9,0,0,1-.66,3,1.37,1.37,0,0,1-1.06.46Z"/><path d="M174.2,191.69l8.73,4.95,5.42,64.64a3.76,3.76,0,0,1-.57,2.71,1.1,1.1,0,0,1-.82.35,2.23,2.23,0,0,1-1.09-.35l-2.22-1.26c-2-1.12-3.87-4.48-4.06-7.32l-5.32-63.63m-.8-1.25,5.41,65c.26,3.09,2.25,6.61,4.44,7.86l2.22,1.26a3.1,3.1,0,0,0,1.45.43c1.36,0,2.26-1.35,2.07-3.79l-5.41-65-10.18-5.76Z"/><path class="cls-14" d="M162,177.68,166,194.52c.26,1.06.68,1.7,1.06,1.66l4.06-.46c-.38,0-.81-.59-1.05-1.66L166,177.22a5.44,5.44,0,0,1,.23-3.75l1.63-2a.53.53,0,0,1,.28-.18l-4.06.46a.45.45,0,0,0-.3.18l-1.64,2A5.44,5.44,0,0,0,162,177.68Z"/><path class="cls-13" d="M167.88,171.52l-1.63,1.95a5.44,5.44,0,0,0-.23,3.75l4.06,16.84c.33,1.36.92,2,1.36,1.48l1-1.22a5.07,5.07,0,0,0,.29-3.45l-3.39-17.6C169,171.81,168.35,170.94,167.88,171.52Z"/><path class="cls-11" d="M187.15,196.51l-1.17-6.6c-.31-1.78-1.53-2.91-2.63-2.45l-12.18,5a3.21,3.21,0,0,0-1.26,3.56l.69,3.81c.28,1.6,1.35,2.71,2.34,2.52l12.68-2.08C186.78,200,187.51,198.29,187.15,196.51Z"/><path class="cls-17" d="M189.71,199.63a.62.62,0,0,1,0,.27.17.17,0,0,0,0-.1A.48.48,0,0,0,189.71,199.63Z"/><path class="cls-18" d="M172.79,202.36l4.41-.44,5.12-.88,4-.68,1.68-.29a6.58,6.58,0,0,0,2.43-.56,2.07,2.07,0,0,0,.81-1.09,8,8,0,0,0-.15-4.06l-.61-3.41c-.23-1.26-.57-4.14-2.52-3.95l-4.36.43a1.93,1.93,0,0,1,1.68,1.14,7.84,7.84,0,0,1,.73,2.56c.22,1.23.45,2.47.67,3.71A10.31,10.31,0,0,1,187,198a2.7,2.7,0,0,1-1.07,2,3.72,3.72,0,0,1-1.35.37l-2.4.4-6.56,1.14Z"/><rect class="cls-19" x="183.35" y="223.33" width="43.74" height="5.98" rx="0.8"/><rect class="cls-20" x="227.09" y="234.75" width="44.32" height="48.37" rx="5.65"/><polygon class="cls-21" points="261.79 278.15 259.48 278.07 239.85 277.43 237.94 277.37 239.32 261.39 241.38 237.78 257.87 237.78 260.15 261.38 261.79 278.15"/><path class="cls-22" d="M243.22,240.08l-.57,6.38-1.36,15-1.44,16-.09.88a9,9,0,0,1-8.71,8.12H170.92a9,9,0,0,1-8.72-8.12l-2.87-31.83-.23-2.71-.35-3.74a9.12,9.12,0,0,1,7.65-10.39,9.45,9.45,0,0,1,1.07-.1h67a9,9,0,0,1,8.76,8.12A10.48,10.48,0,0,1,243.22,240.08Z"/><rect class="cls-19" x="272.03" y="223.35" width="43.74" height="5.98" rx="0.8"/><rect class="cls-23" x="283.53" y="223.33" width="13.32" height="5.09"/><path class="cls-22" d="M255.9,240.08l.57,6.38,1.36,15,1.43,16,.08.88a9,9,0,0,0,8.72,8.12h60.12a9,9,0,0,0,8.72-8.12l2.87-31.86.23-2.71.36-3.73a9.14,9.14,0,0,0-7.65-10.4c-.36-.05-.72-.08-1.09-.1H264.68a9,9,0,0,0-8.75,8.13A11.24,11.24,0,0,0,255.9,240.08Z"/><path class="cls-24" d="M340.37,239.15l-.45,4.86c-14.89,9.47-44.67,16.24-79.77,17.37h-2.23c-2.71.06-5.48.11-8.27.11s-5.61,0-8.37-.11h-2c-35.43-1.13-65.41-8-80.22-17.6l-.35-3.74a9.12,9.12,0,0,1,7.65-10.39,7.6,7.6,0,0,1,1.07-.1h67a9,9,0,0,1,8.76,8.12h12.58a9,9,0,0,1,8.86-9h67a9.11,9.11,0,0,1,8.77,9.46A8.78,8.78,0,0,1,340.37,239.15Z"/><rect class="cls-23" x="202.26" y="223.33" width="13.32" height="5.09"/><rect class="cls-19" x="219.61" y="168.42" width="20.38" height="12.62"/><rect x="214.49" y="181.04" width="73.53" height="4.55"/><rect class="cls-23" x="228.68" y="168.42" width="6.55" height="12.62"/><rect class="cls-19" x="262.52" y="168.42" width="20.38" height="12.62"/><rect class="cls-23" x="271.59" y="168.42" width="6.55" height="12.62"/></svg>