<?xml version="1.0" encoding="utf-8"?>
<!-- Generator: Adobe Illustrator 23.0.2, SVG Export Plug-In . SVG Version: 6.00 Build 0)  -->
<svg version="1.1" id="Layer_1" xmlns="http://www.w3.org/2000/svg" xmlns:xlink="http://www.w3.org/1999/xlink" x="0px" y="0px"
	 viewBox="0 0 1266.9 1267.5" style="enable-background:new 0 0 1266.9 1267.5;" xml:space="preserve">
<style type="text/css">
	.st0{opacity:0.55;enable-background:new    ;}
	.st1{fill:#00C4FF;}
</style>
<title>control_big_circle</title>
<circle class="st0" cx="633.4" cy="631.7" r="146.1"/>
<path class="st1" d="M649.6,0.2v200.9c107,3.9,204.2,46.7,277.7,114.7l142-142C959.3,69.5,812,4.3,649.6,0.2z M1094,198.6l-142,142
	c66.9,72.6,109.2,168.2,113.9,273.6h200.6C1261.8,453.4,1197.1,307.7,1094,198.6z M198.3,173.2l142,142
	c72.8-67,168.6-109.4,274.2-113.9V0.3C453.4,5,307.5,69.8,198.3,173.2z M0.3,614.2h200.6c4.7-105.7,47.3-201.5,114.5-274.2l-142-142
	C70,307.2,5.1,453.1,0.3,614.2z M927.3,951.8c-73.5,68-170.6,110.7-277.7,114.7v200.2c162.3-4.1,309.4-69.2,419.3-173.2L927.3,951.8
	z M200.7,649.3H0.2c4,162.6,69.2,310,173.5,419.9l141.6-141.6C247.3,853.9,204.5,756.6,200.7,649.3z M340.2,952.4L198.6,1094
	c109.2,103.1,255,167.8,415.8,172.5v-200.2C508.8,1061.8,413,1019.4,340.2,952.4z M1066.2,649.3c-3.8,107-46.3,204.1-114.1,277.7
	l141.6,141.6c104-109.9,169-257,172.9-419.3H1066.2z"/>
</svg>
