<svg id="Layer_1" data-name="Layer 1" xmlns="http://www.w3.org/2000/svg" viewBox="0 0 1500 1500"><defs><style>.cls-1{fill:#a0a0a0;}.cls-2{fill:#c6c6c6;}.cls-3{fill:#7f7f7f;}.cls-4{fill:#fff;stroke:#adadad;stroke-miterlimit:10;stroke-width:9.69px;}.cls-5{fill:#939392;}.cls-6{fill:#adadad;}.cls-7{fill:#fcfcfc;opacity:0.76;}</style></defs><title>control_light_icon_inactive</title><path class="cls-1" d="M748,1480.07A732.23,732.23,0,0,1,463.1,73.52a732.23,732.23,0,0,1,569.87,1349A727.6,727.6,0,0,1,748,1480.07Z"/><path class="cls-2" d="M748,32a712.54,712.54,0,0,1,400.32,122.27,718.09,718.09,0,0,1,259.46,315.06,715,715,0,0,1-66,679,718.24,718.24,0,0,1-315.06,259.46,715.09,715.09,0,0,1-679-66A718.29,718.29,0,0,1,88.26,1026.74a715.09,715.09,0,0,1,66-679A718.14,718.14,0,0,1,469.33,88.26,711.54,711.54,0,0,1,748,32m0-32C334.91,0,0,334.91,0,748s334.91,748,748,748,748-334.91,748-748S1161.16,0,748,0Z"/><circle class="cls-3" cx="748.03" cy="748.03" r="564"/><path class="cls-4" d="M1108.66,568.82a337.94,337.94,0,0,1-42.35,149.32c-64.47,116-185.78,246.34-185.78,378.12h0c0,16-13.36,28.92-29.85,28.92H652c-16.49,0-29.85-12.94-29.85-28.92v-3.83c0-130.19-123.8-258.87-187.88-373.29A337.91,337.91,0,0,1,391,553.47c0-184.28,147.87-335.09,334.89-347.11C938.65,192.69,1117.91,362.4,1108.66,568.82Z"/><rect class="cls-1" x="648.05" y="1150.04" width="203.9" height="21.02" rx="9.37"/><path class="cls-2" d="M842.58,1134H657.42a25.44,25.44,0,0,0-25.37,25.37v2.29a25.44,25.44,0,0,0,25.37,25.37H842.58A25.44,25.44,0,0,0,868,1161.7v-2.29A25.44,25.44,0,0,0,842.58,1134Z"/><rect class="cls-1" x="668.87" y="1211.04" width="162.26" height="21.02" rx="9.37"/><path class="cls-2" d="M821.76,1195H678.24a25.44,25.44,0,0,0-25.37,25.36v2.29a25.44,25.44,0,0,0,25.37,25.37H821.76a25.44,25.44,0,0,0,25.37-25.37v-2.29A25.44,25.44,0,0,0,821.76,1195Z"/><polygon class="cls-1" points="725.58 1272.03 774.42 1272.03 750 1289.77 725.58 1272.03"/><path class="cls-2" d="M792.7,1256H707.3c-10.08,0-14.44,12-6.46,17.81l42.7,31a11.07,11.07,0,0,0,12.92,0l42.7-31c8-5.8,3.62-17.81-6.46-17.81Z"/><path class="cls-5" d="M815.55,576.21C831.46,537.53,855,492.43,872.81,454,816,433.57,732.94,404.28,732.94,404.28L659.58,684.06l70.7-7.92L679.5,789.82l90.61-5s-59.06,120.9-77.7,178.58C731.23,892.24,797.13,801.25,836,730.11c-16.22-.86-32.71-1.2-50.67-2.32,32.2-48.38,73.11-97.78,105.3-146.16C876.75,580.29,829.12,575.44,815.55,576.21Z"/><polygon class="cls-6" points="797.38 574.45 855.29 449.47 732.94 404.28 683.81 598.93 666.28 668.38 727.46 662.44 736.43 661.57 705.14 735.66 687.23 778.07 727.46 774.17 756.9 771.31 700.99 944.35 803.57 756.36 817.45 730.92 785.29 727.79 772.48 726.55 833.73 634.51 869.06 581.41 799.01 574.61 797.38 574.45"/><path class="cls-7" d="M508.9,149.88a305.38,305.38,0,0,0-137.83,72.17c-11.77,10.7-29.88,14-41.58,5.91h0c-11.66-8-10.43-27.06,4.39-40.61a371.59,371.59,0,0,1,167.69-87.8c19.58-4.46,35.93,5.37,35.87,19.53h0C537.4,133.28,524.4,146.31,508.9,149.88Z"/><circle class="cls-7" cx="299.83" cy="244.26" r="21.81"/></svg>