<svg id="Layer_1" data-name="Layer 1" xmlns="http://www.w3.org/2000/svg" viewBox="0 0 339.12 667.4"><defs><style>.cls-1{fill:#2896e0;}</style></defs><title>speed_meter</title><path class="cls-1" d="M12.67,664.9a2.34,2.34,0,0,0-2.36-2.29H8.21c-1.61,0-3.22,0-4.82,0A2.34,2.34,0,0,0,1,664.88V665a2.35,2.35,0,0,0,2.32,2.37H5.42c1.65,0,3.3,0,4.95,0a2.33,2.33,0,0,0,2.3-2.39Zm27.63-4.08c-2.29.26-4.58.49-6.89.69a2.33,2.33,0,0,0-2.13,2.5h0a2.34,2.34,0,0,0,2.52,2.16c2.34-.2,4.69-.42,7-.66a2.36,2.36,0,0,0,2.08-2.6v0A2.33,2.33,0,0,0,40.3,660.82Zm29.66-5q-3.36.75-6.77,1.43A2.34,2.34,0,0,0,61.33,660l.06.34a2.34,2.34,0,0,0,2.72,1.91c2.3-.41,4.62-.84,6.92-1.3a2.34,2.34,0,0,0,1.83-2.78l-.1-.47A2.34,2.34,0,0,0,70,655.85Zm28.94-8.1q-3.25,1.11-6.56,2.13a2.34,2.34,0,0,0-1.57,2.83l.29,1.12a2.35,2.35,0,0,0,2.88,1.66q3.41-.93,6.8-2a2.34,2.34,0,0,0,1.56-2.93l-.4-1.34A2.34,2.34,0,0,0,98.9,647.75Zm27.9-11.16c-2.09,1-4.18,1.91-6.3,2.83a2.35,2.35,0,0,0-1.27,3l.84,2.26a2.34,2.34,0,0,0,3,1.39c2.21-.84,4.43-1.7,6.62-2.58a2.34,2.34,0,0,0,1.29-3.06L130,637.82A2.34,2.34,0,0,0,126.8,636.59Zm26.39-14c-1.94,1.17-3.91,2.32-5.88,3.44a2.34,2.34,0,0,0-1,3l1.77,3.69a2.33,2.33,0,0,0,3.13,1.1c2.11-1,4.23-2.09,6.33-3.16a2.35,2.35,0,0,0,1-3.17l-2.1-4A2.34,2.34,0,0,0,153.19,622.62Zm24.64-16.57q-2.69,2-5.43,4a2.33,2.33,0,0,0-.66,3.1l3.17,5.31a2.33,2.33,0,0,0,3.21.81q3-1.83,6-3.73a2.34,2.34,0,0,0,.7-3.24l-3.63-5.63A2.34,2.34,0,0,0,177.83,606.05Zm22.61-18.92c-1.62,1.51-3.27,3-4.92,4.47a2.32,2.32,0,0,0-.35,3.12l5.09,7a2.33,2.33,0,0,0,3.27.51q2.85-2.1,5.64-4.26a2.34,2.34,0,0,0,.4-3.29l-5.7-7.27A2.34,2.34,0,0,0,200.44,587.13Zm20.37-21q-2.16,2.46-4.37,4.88a2.33,2.33,0,0,0,0,3.12l7.54,8.59a2.33,2.33,0,0,0,3.31.21c1.75-1.56,3.5-3.14,5.22-4.74a2.34,2.34,0,0,0,.11-3.32l-8.31-8.82A2.32,2.32,0,0,0,220.81,566.16Zm18-22.76Q236.9,546,235,548.62a2.33,2.33,0,0,0,.26,3.09l10.56,10a2.33,2.33,0,0,0,3.31-.09q2.41-2.58,4.77-5.21a2.34,2.34,0,0,0-.2-3.31L242.23,543A2.34,2.34,0,0,0,238.77,543.4Zm15.4-24.22c-1,1.83-2.1,3.66-3.18,5.47a2.34,2.34,0,0,0,.55,3l14.1,11.13a2.35,2.35,0,0,0,3.3-.39c1.44-1.86,2.87-3.73,4.26-5.61a2.33,2.33,0,0,0-.5-3.28l-15.11-11.1A2.33,2.33,0,0,0,254.17,519.18Zm12.74-25.39c-.83,1.89-1.69,3.77-2.56,5.64a2.33,2.33,0,0,0,.84,2.95l18.13,11.8a2.34,2.34,0,0,0,3.25-.69c1.26-2,2.51-4,3.73-6a2.33,2.33,0,0,0-.79-3.22l-19.25-11.59A2.34,2.34,0,0,0,266.91,493.79Zm10-26.24c-.62,1.93-1.27,3.84-1.94,5.75a2.34,2.34,0,0,0,1.11,2.84l22.58,11.91a2.34,2.34,0,0,0,3.17-1q1.62-3.13,3.17-6.3a2.34,2.34,0,0,0-1.08-3.13l-23.77-11.48A2.34,2.34,0,0,0,276.92,467.55Zm7.26-26.76c-.42,1.93-.87,3.85-1.33,5.77a2.34,2.34,0,0,0,1.38,2.71l27.33,11.35a2.35,2.35,0,0,0,3.07-1.28c.88-2.16,1.74-4.35,2.58-6.53a2.36,2.36,0,0,0-1.37-3l-28.56-10.69A2.34,2.34,0,0,0,284.18,440.79Zm4.55-27.05q-.35,2.88-.75,5.75a2.34,2.34,0,0,0,1.62,2.56l32.29,10a2.34,2.34,0,0,0,2.94-1.55c.68-2.25,1.34-4.52,2-6.79a2.34,2.34,0,0,0-1.65-2.88l-33.5-9.11A2.33,2.33,0,0,0,288.73,413.74Zm1.91-27c-.05,1.89-.11,3.78-.19,5.66a2.32,2.32,0,0,0,1.84,2.39l37.27,7.9a2.34,2.34,0,0,0,2.78-1.81c.47-2.31.92-4.63,1.34-6.94a2.34,2.34,0,0,0-1.9-2.73l-38.4-6.73A2.34,2.34,0,0,0,290.64,386.74ZM290,360.09c.13,1.82.24,3.65.33,5.48a2.33,2.33,0,0,0,2.06,2.21l42.08,5a2.34,2.34,0,0,0,2.61-2.06c.26-2.33.49-4.68.7-7a2.34,2.34,0,0,0-2.15-2.53l-43.11-3.54A2.35,2.35,0,0,0,290,360.09Zm46.75-29.24-47.52.41A2.33,2.33,0,0,0,287,334q.44,2.64.81,5.28a2.34,2.34,0,0,0,2.25,2l46.63,1.23a2.35,2.35,0,0,0,2.41-2.29c0-2.17.06-4.36.06-6.53v-.5A2.33,2.33,0,0,0,336.76,330.85Zm-1.63-30.24-51.51,5.11a2.34,2.34,0,0,0-2,2.93q.66,2.5,1.27,5a2.32,2.32,0,0,0,2.42,1.79l50.8-3.25a2.34,2.34,0,0,0,2.19-2.5c-.17-2.33-.36-4.67-.57-7A2.35,2.35,0,0,0,335.13,300.61Zm-4.38-30-55,10.61a2.34,2.34,0,0,0-1.76,3.1c.58,1.58,1.13,3.17,1.67,4.76a2.35,2.35,0,0,0,2.58,1.57l54.48-8.53a2.33,2.33,0,0,0,2-2.68c-.38-2.32-.79-4.65-1.22-7A2.34,2.34,0,0,0,330.75,270.57ZM323.63,241l-57.7,16.77a2.34,2.34,0,0,0-1.46,3.25c.69,1.48,1.36,3,2,4.45a2.33,2.33,0,0,0,2.7,1.33l57.49-14.53a2.33,2.33,0,0,0,1.7-2.84c-.59-2.28-1.21-4.57-1.85-6.83A2.34,2.34,0,0,0,323.63,241Zm-9.82-28.78L254.2,235.74A2.34,2.34,0,0,0,253,239.1c.8,1.37,1.59,2.76,2.36,4.15a2.33,2.33,0,0,0,2.82,1.08l59.69-21.1a2.33,2.33,0,0,0,1.42-3c-.8-2.22-1.63-4.45-2.49-6.65A2.33,2.33,0,0,0,313.81,212.26Zm-12.46-27.77L240.8,215.07a2.34,2.34,0,0,0-.86,3.43q1.34,1.91,2.62,3.82a2.32,2.32,0,0,0,2.92.82l61-28.11a2.34,2.34,0,0,0,1.14-3.11c-1-2.14-2-4.28-3.09-6.39A2.34,2.34,0,0,0,301.35,184.49ZM286.42,158l-60.52,37.9a2.33,2.33,0,0,0-.55,3.48c1,1.16,1.92,2.33,2.87,3.5a2.33,2.33,0,0,0,3,.56L292.45,168a2.33,2.33,0,0,0,.85-3.21c-1.19-2-2.41-4.06-3.65-6.07A2.34,2.34,0,0,0,286.42,158Zm-17.27-25-59.46,45.29a2.35,2.35,0,0,0-.24,3.51q1.53,1.56,3.05,3.15a2.34,2.34,0,0,0,3,.29l60.52-42.82a2.34,2.34,0,0,0,.56-3.27c-1.38-1.91-2.77-3.82-4.18-5.7A2.35,2.35,0,0,0,269.15,133.05Zm-19.46-23.26L192.31,162.4a2.33,2.33,0,0,0,.06,3.49q1.62,1.4,3.22,2.81a2.33,2.33,0,0,0,3.07,0l58.76-50.22a2.34,2.34,0,0,0,.26-3.31c-1.54-1.77-3.1-3.54-4.68-5.28A2.33,2.33,0,0,0,249.69,109.79ZM228.2,88.39l-54.27,59.72a2.34,2.34,0,0,0,.37,3.47c1.12.81,2.22,1.63,3.33,2.46a2.33,2.33,0,0,0,3.08-.23l56-57.43a2.33,2.33,0,0,0-.05-3.31q-2.53-2.44-5.13-4.83A2.33,2.33,0,0,0,228.2,88.39ZM204.85,69.05,154.7,135.51a2.34,2.34,0,0,0,.66,3.42c1.15.7,2.29,1.41,3.43,2.12a2.32,2.32,0,0,0,3.07-.5L214,76.23a2.32,2.32,0,0,0-.35-3.29c-1.83-1.47-3.69-2.92-5.55-4.35A2.34,2.34,0,0,0,204.85,69.05Zm-62.63,60,47.43-70.79A2.33,2.33,0,0,0,189,55c-2-1.29-3.94-2.57-5.92-3.82a2.33,2.33,0,0,0-3.23.76l-45.12,72.73a2.34,2.34,0,0,0,.91,3.31l3.56,1.83A2.33,2.33,0,0,0,142.22,129ZM122,119.17l41.75-76.64a2.35,2.35,0,0,0-.94-3.19q-3.09-1.65-6.23-3.25a2.34,2.34,0,0,0-3.15,1l-39.19,78.36a2.34,2.34,0,0,0,1.19,3.21l3.61,1.51A2.35,2.35,0,0,0,122,119.17ZM101.23,111l35.24-81.77a2.33,2.33,0,0,0-1.23-3.08c-2.16-.92-4.34-1.81-6.51-2.68a2.34,2.34,0,0,0-3,1.33L93.27,108.07a2.33,2.33,0,0,0,1.45,3.07l3.63,1.19A2.34,2.34,0,0,0,101.23,111ZM80.06,104.6l28-86a2.34,2.34,0,0,0-1.51-3c-2.24-.71-4.5-1.41-6.76-2.07a2.34,2.34,0,0,0-2.91,1.6l-25,87.21a2.34,2.34,0,0,0,1.7,2.91l3.68.9A2.34,2.34,0,0,0,80.06,104.6ZM58.57,99.86,78.79,10.49A2.33,2.33,0,0,0,77,7.69c-2.3-.51-4.62-1-6.93-1.44a2.35,2.35,0,0,0-2.75,1.86L50.28,98.31a2.33,2.33,0,0,0,1.92,2.74l3.71.61A2.35,2.35,0,0,0,58.57,99.86Zm-21.7-3,12-91.65a2.34,2.34,0,0,0-2-2.63c-2.33-.29-4.67-.56-7-.8a2.34,2.34,0,0,0-2.56,2.11L28.49,96a2.33,2.33,0,0,0,2.13,2.55l3.73.32A2.34,2.34,0,0,0,36.87,96.81ZM15,95.43,18.69,2.59A2.34,2.34,0,0,0,16.43.16C14.09.08,11.74,0,9.4,0A2.34,2.34,0,0,0,7,2.33l-.43,93a2.33,2.33,0,0,0,2.32,2.35l3.74,0A2.34,2.34,0,0,0,15,95.43Z"/></svg>