<svg id="Layer_1" data-name="Layer 1" xmlns="http://www.w3.org/2000/svg" viewBox="0 0 390 390"><defs><style>.cls-1{fill:#003860;}.cls-2{fill:#1b84cd;}.cls-3{fill:#015fa1;}.cls-4,.cls-9{fill:#fff;}.cls-4{opacity:0.1;}.cls-5{fill:#353f45;}.cls-6{fill:#8fa8b5;}.cls-7{fill:#6c808c;}.cls-8{fill:#d4d4d4;}.cls-10{fill:#003152;}.cls-11{fill:#00487a;}.cls-12{fill:#922;}</style></defs><title>numpad-palette</title><path class="cls-1" d="M390,324.1V383a7.08,7.08,0,0,1-7.17,7H52.74l-2.58-8.13L43.5,390H7.28A7.09,7.09,0,0,1,.1,383V324.1Z"/><path class="cls-2" d="M389.9,30V373.56a7.07,7.07,0,0,1-7.16,7h0l-329,.18-2.07-6.4-6.28,6.22H7.18a7.08,7.08,0,0,1-7.18-7V30a7,7,0,0,1,6.53-6.94,6,6,0,0,1,.74,0H40.66a7.22,7.22,0,0,0,5.27-2.72L59.77,2.73A7.16,7.16,0,0,1,65.13,0H96a7.22,7.22,0,0,1,5.48,2.48l15.62,18.05A7.24,7.24,0,0,0,122.56,23h30.88a7.19,7.19,0,0,0,5.68-2.73L173,2.73A7.22,7.22,0,0,1,178.64,0h30.61a7.21,7.21,0,0,1,5.48,2.48l15.11,17.46.51.59A7.17,7.17,0,0,0,235.52,23h32.41a7.22,7.22,0,0,0,5.27-2.72L287,2.73A7.2,7.2,0,0,1,292.72,0h31a7.22,7.22,0,0,1,5.08,2.47l15.62,18.05A7.19,7.19,0,0,0,349.6,23h33.13A7.08,7.08,0,0,1,389.9,30Z"/><path class="cls-3" d="M390,373.56a5.6,5.6,0,0,1-.1,1.09,7.09,7.09,0,0,1-7.07,5.88h-.1L115.92,378l-6-4-1,3.94-54.07-.51-1-11.33-8.23,11-36-.36a7.07,7.07,0,0,1-7.16-7l-.38-44.52L.1,85.42l24,23.62L.92,76V30c0-3.61,2-6.59,5.61-6.94a6,6,0,0,1,.74,0s34.36,2.75,34.66,1.84c2.12-.09,2.8-2.92,4.09-4.57L59.86,2.73A7.23,7.23,0,0,1,65.13,0H78.92L69.79,12.52l-.93,1.28,2.23-1.28,19.14-11,4.56.76a7.27,7.27,0,0,1,5.48,2.47l15.62,18.06c1.34,1.54,4.56.26,6.67.22h.09l8,.66,22.69,1.87A7.27,7.27,0,0,0,159,22.81L172.86,5.26a7.22,7.22,0,0,1,5.68-2.73h30.61A7.21,7.21,0,0,1,214.63,5l15.21,14.93.6.59A7.2,7.2,0,0,0,235.52,23h32.41a7.16,7.16,0,0,0,5.36-2.72L288.36,5.67A7.23,7.23,0,0,1,294,2.94L323.41,0h.32a7.21,7.21,0,0,1,5.17,2.47l15.62,18.05A7.22,7.22,0,0,0,349.6,23h.4l29.94,1.84a7.06,7.06,0,0,1,7.16,7l0,5.18,2.76,324.72Z"/><path class="cls-4" d="M131.06,23.53l-.28.66-5,11.82-3.64,8.53-1.73,4-22,51.51-1.72,4L68,171.27,14.59,296.54,2.5,324.87.42,329.75V30.49a7,7,0,0,1,6.52-6.92,5.85,5.85,0,0,1,.73,0H41a7.22,7.22,0,0,0,5.26-2.71L60.06,3.31A7.17,7.17,0,0,1,65.41.6H96.19a7.23,7.23,0,0,1,5.47,2.47l15.59,18a7.23,7.23,0,0,0,5.47,2.47Z"/><path class="cls-5" d="M371.27,142.72v39.75a5.26,5.26,0,0,1-5.34,5.19H86.36A5.26,5.26,0,0,1,81,182.47V142.72a5.27,5.27,0,0,1,5.33-5.2H111a5.38,5.38,0,0,0,4.23-2L126,125.08a5.38,5.38,0,0,1,4.23-2H153A5.38,5.38,0,0,1,157,124.9l11.14,10.78a5.38,5.38,0,0,0,4.08,1.84h23a5.38,5.38,0,0,0,4.23-2l10.8-10.41a5.38,5.38,0,0,1,4.23-2h22.79a5.38,5.38,0,0,1,4.07,1.85l11.13,10.77a5.37,5.37,0,0,0,4.08,1.85h23.59a5.38,5.38,0,0,0,4.23-2l10.8-10.41a5.38,5.38,0,0,1,4.23-2H322.2a5.39,5.39,0,0,1,4.08,1.85l11.14,10.78a5.37,5.37,0,0,0,4.07,1.84h24.44A5.27,5.27,0,0,1,371.27,142.72Z"/><path class="cls-6" d="M371.27,142.72v36.07a5.27,5.27,0,0,1-5.34,5.2H86.36a5.27,5.27,0,0,1-5.33-5.2V142.72a5.27,5.27,0,0,1,5.33-5.2H111a5.38,5.38,0,0,0,4.23-2L126,125.08a5.38,5.38,0,0,1,4.23-2H153A5.38,5.38,0,0,1,157,124.9l11.14,10.78a5.38,5.38,0,0,0,4.08,1.84h23a5.38,5.38,0,0,0,4.23-2l10.8-10.41a5.38,5.38,0,0,1,4.23-2h22.79a5.38,5.38,0,0,1,4.07,1.85l11.13,10.77a5.37,5.37,0,0,0,4.08,1.85h23.59a5.38,5.38,0,0,0,4.23-2l10.8-10.41a5.38,5.38,0,0,1,4.23-2H322.2a5.39,5.39,0,0,1,4.08,1.85l11.14,10.78a5.37,5.37,0,0,0,4.07,1.84h24.44A5.27,5.27,0,0,1,371.27,142.72Z"/><path class="cls-7" d="M371.27,142.72v15.61l-8-6.64,8,14.19v12.91a5.27,5.27,0,0,1-5.34,5.2l-178.31-.83,6.07-2-15.62,2-90.48-.42a5.26,5.26,0,0,1-5.34-5.19L81,142.72a5.27,5.27,0,0,1,5.33-5.2H111a5.38,5.38,0,0,0,4.23-2L126,125.08a5.38,5.38,0,0,1,4.23-2h11.35L137,129.67l10-6.12h6A5.38,5.38,0,0,1,157,125.4l11.14,10.28a5.38,5.38,0,0,0,4.08,1.84h23c1.66,0,3.61.54,4.62-.74l10.8-10.41a5.38,5.38,0,0,1,4.23-2l22.4-1.29a5.38,5.38,0,0,1,4.07,1.85l11.13,10.77a5.37,5.37,0,0,0,4.08,1.85h23.59a5.38,5.38,0,0,0,4.23-2l10.8-10.41a5.38,5.38,0,0,1,4.23-2H322.2a5.39,5.39,0,0,1,4.08,1.85l11.14,10.78a5.37,5.37,0,0,0,4.07,1.84h24.44A5.27,5.27,0,0,1,371.27,142.72Z"/><path class="cls-5" d="M371.27,228.56v39.75a5.27,5.27,0,0,1-5.34,5.2H86.36a5.27,5.27,0,0,1-5.33-5.2V228.56a5.27,5.27,0,0,1,5.33-5.2H111a5.38,5.38,0,0,0,4.23-2L126,210.92a5.38,5.38,0,0,1,4.23-2H153a5.38,5.38,0,0,1,4.07,1.85l11.14,10.78a5.38,5.38,0,0,0,4.08,1.84h23a5.38,5.38,0,0,0,4.23-2l10.8-10.41a5.38,5.38,0,0,1,4.23-2h22.79a5.38,5.38,0,0,1,4.07,1.85l11.13,10.78a5.39,5.39,0,0,0,4.08,1.84h23.59a5.38,5.38,0,0,0,4.23-2l10.8-10.41a5.38,5.38,0,0,1,4.23-2H322.2a5.39,5.39,0,0,1,4.08,1.85l11.14,10.78a5.37,5.37,0,0,0,4.07,1.84h24.44A5.27,5.27,0,0,1,371.27,228.56Z"/><path class="cls-6" d="M371.27,228.56v36.07a5.27,5.27,0,0,1-5.34,5.2H86.36a5.27,5.27,0,0,1-5.33-5.2V228.56a5.27,5.27,0,0,1,5.33-5.2H111a5.38,5.38,0,0,0,4.23-2L126,210.92a5.38,5.38,0,0,1,4.23-2H153a5.38,5.38,0,0,1,4.07,1.85l11.14,10.78a5.38,5.38,0,0,0,4.08,1.84h23a5.38,5.38,0,0,0,4.23-2l10.8-10.41a5.38,5.38,0,0,1,4.23-2h22.79a5.38,5.38,0,0,1,4.07,1.85l11.13,10.78a5.39,5.39,0,0,0,4.08,1.84h23.59a5.38,5.38,0,0,0,4.23-2l10.8-10.41a5.38,5.38,0,0,1,4.23-2H322.2a5.39,5.39,0,0,1,4.08,1.85l11.14,10.78a5.37,5.37,0,0,0,4.07,1.84h24.44A5.27,5.27,0,0,1,371.27,228.56Z"/><path class="cls-7" d="M371.27,229.68v34.95a5.14,5.14,0,0,1-1.88,4c-.93.77-3.23-.34-4.55-.34L357,269.83H206.56l.4-3.6-8.67,3.6H86.36a5.27,5.27,0,0,1-5.33-5.2V228.56a5.27,5.27,0,0,1,5.33-5.2h6.21L89.93,229,96,224.11,97.53,226l8.69-2.6H111a5.38,5.38,0,0,0,4.23-2L126,210.92a5.38,5.38,0,0,1,4.23-2H153a5.38,5.38,0,0,1,4.07,1.85l11.14,10.78a5.38,5.38,0,0,0,4.08,1.84h12.55l-4.32,1.91,14.56-1.11a5.38,5.38,0,0,0,4.23-2l11-11.21a5.38,5.38,0,0,1,4.23-2h22.79a5.38,5.38,0,0,1,4.07,1.85l10.45,11.86a5.4,5.4,0,0,0,4.08,1.85h23.59c1.66,0,3.9-1.84,4.91-3.12l10.8-10.41a5.38,5.38,0,0,1,4.23-2H322.2a5.39,5.39,0,0,1,4.08,1.85l11.14,11.9a5.38,5.38,0,0,0,4.07,1.85h24.44A5.27,5.27,0,0,1,371.27,229.68Z"/><path class="cls-5" d="M371.27,314.4v39.75a5.27,5.27,0,0,1-5.34,5.2H86.36a5.27,5.27,0,0,1-5.33-5.2V314.4a5.26,5.26,0,0,1,5.33-5.19H111a5.39,5.39,0,0,0,4.23-2l10.8-10.4a5.36,5.36,0,0,1,4.23-2H153a5.38,5.38,0,0,1,4.07,1.85l11.14,10.78a5.39,5.39,0,0,0,4.08,1.85h23a5.39,5.39,0,0,0,4.23-2l10.8-10.4a5.36,5.36,0,0,1,4.23-2h22.79a5.38,5.38,0,0,1,4.07,1.85l11.13,10.78a5.4,5.4,0,0,0,4.08,1.85h23.59a5.39,5.39,0,0,0,4.23-2l10.8-10.4a5.36,5.36,0,0,1,4.23-2H322.2a5.39,5.39,0,0,1,4.08,1.85l11.14,10.78a5.38,5.38,0,0,0,4.07,1.85h24.44A5.26,5.26,0,0,1,371.27,314.4Z"/><path class="cls-6" d="M371.27,314.4v36.07a5.27,5.27,0,0,1-5.34,5.2H86.36a5.27,5.27,0,0,1-5.33-5.2V314.4a5.26,5.26,0,0,1,5.33-5.19H111a5.39,5.39,0,0,0,4.23-2l10.8-10.4a5.36,5.36,0,0,1,4.23-2H153a5.38,5.38,0,0,1,4.07,1.85l11.14,10.78a5.39,5.39,0,0,0,4.08,1.85h23a5.39,5.39,0,0,0,4.23-2l10.8-10.4a5.36,5.36,0,0,1,4.23-2h22.79a5.38,5.38,0,0,1,4.07,1.85l11.13,10.78a5.4,5.4,0,0,0,4.08,1.85h23.59a5.39,5.39,0,0,0,4.23-2l10.8-10.4a5.36,5.36,0,0,1,4.23-2H322.2a5.39,5.39,0,0,1,4.08,1.85l11.14,10.78a5.38,5.38,0,0,0,4.07,1.85h24.44A5.26,5.26,0,0,1,371.27,314.4Z"/><path class="cls-7" d="M371.27,314.4v8.16L362.44,327h8.83v23.43a5.27,5.27,0,0,1-5.34,5.2H318.21L310,352.39l-3.31,3.28H86.36a5.27,5.27,0,0,1-5.33-5.2l1.15-34.93a5.27,5.27,0,0,1,5.33-5.19h24.62a5.38,5.38,0,0,0,4.23-2L126,296.77a5.36,5.36,0,0,1,4.23-2H153a5.38,5.38,0,0,1,4.07,1.85l10.57,12a5.4,5.4,0,0,0,4.08,1.85l23.55-1.19a5.39,5.39,0,0,0,4.23-2l10.8-10.4a5.36,5.36,0,0,1,4.23-2h22.79a5.38,5.38,0,0,1,4.07,1.85l2.4,2.32-5.62-.31,7.41,3.32-3.68-.06,8,3,2.58,2.51c1,1.17,2.67,2.61,4.25,2.61l23.42-.76a5.39,5.39,0,0,0,4.23-2l10.8-10.4a5.36,5.36,0,0,1,4.23-2H322.2a5.39,5.39,0,0,1,4.08,1.85l11.14,10.78a5.38,5.38,0,0,0,4.07,1.85h24.44A5.26,5.26,0,0,1,371.27,314.4Z"/><rect class="cls-8" x="81.03" y="44.09" width="290.24" height="55.71" rx="3.88"/><rect class="cls-9" x="81.03" y="48.14" width="290.24" height="55.71" rx="3.88"/><rect class="cls-10" x="14.2" y="131.73" width="53.56" height="227.62" rx="26.37"/><rect class="cls-11" x="14.2" y="126.71" width="53.56" height="229.34" rx="26.58"/><path class="cls-12" d="M65,155.83c0-.16,0-.33,0-.5v.5Z"/><path class="cls-12" d="M16.94,156h0v-.73C16.92,155.48,16.92,155.72,16.94,156Z"/></svg>