<svg xmlns="http://www.w3.org/2000/svg" viewBox="0 0 20 120"><defs><style>.cls-1{fill:#3a3a3a;}.cls-2{fill:#fff;opacity:0.2;}</style></defs><title>pointer</title><g id="Layer_2" data-name="Layer 2"><path d="M20,110.37a8.33,8.33,0,0,1-.1,1.33h0a6.52,6.52,0,0,1-.19,1A9.94,9.94,0,0,1,10,120.08q-.39,0-.78,0a9.9,9.9,0,0,1-8.93-7.38,6.94,6.94,0,0,1-.2-1A9.11,9.11,0,0,1,0,110.37v-.2l.08-1v0a8.89,8.89,0,0,1,.38-1.64c.05-.14.09-.28.15-.41A10,10,0,0,1,10,100.67a9.93,9.93,0,0,1,9.37,6.39c.06.14.11.28.16.43a9.31,9.31,0,0,1,.37,1.6L20,110.2Z"/><path d="M20,110.11h0s0,0,0,.08a6.25,6.25,0,0,1-.18.86H.2a6.71,6.71,0,0,1-.19-.89s0-.06,0-.09l.09-1v0l.19-2L.38,106,8.18,1.6A1.72,1.72,0,0,1,10,0h0a1.75,1.75,0,0,1,1.81,1.6L19.63,106l.09,1Z"/><path class="cls-1" d="M15.44,110.37A5.36,5.36,0,0,1,10,115.65a5.28,5.28,0,1,1,0-10.56A5.36,5.36,0,0,1,15.44,110.37Z"/><path class="cls-2" d="M10,0V120.08q-.39,0-.78,0a9.9,9.9,0,0,1-8.93-7.38,6.94,6.94,0,0,1-.2-1A9.11,9.11,0,0,1,0,110.37v-.2s0-.06,0-.09l.09-1v0l.19-2L.38,106,8.18,1.6A1.72,1.72,0,0,1,10,0Z"/><path d="M10,105.09v10.56a5.28,5.28,0,1,1,0-10.56Z"/></g></svg>