<svg xmlns="http://www.w3.org/2000/svg" viewBox="0 0 70 105"><defs><style>.cls-1{fill:#ffc246;}.cls-2{fill:#db2f00;}.cls-3{opacity:0.3;}.cls-4{fill:#e6e8e8;}.cls-5{fill:#8c8c8c;}</style></defs><title>right_speedometer</title><g id="Layer_5" data-name="Layer 5"><path class="cls-1" d="M2.16,31.2l-1,2.37L0,36.41V30.33c.72.29,1.44.57,2.15.87Z"/><path class="cls-2" d="M54.69,83.73h0l-2.48,1L14.64,100.33A8.7,8.7,0,0,1,4,97a44.92,44.92,0,0,0-4-5.29V36.39l1.17-2.82,1-2.37h0A94.53,94.53,0,0,1,11,35.38c1.28.69,2.55,1.41,3.79,2.15q2.16,1.29,4.25,2.7c1.31.87,2.6,1.79,3.87,2.73h0c1.26.94,2.51,1.92,3.73,2.93h0c1.82,1.51,3.6,3.08,5.32,4.71A97.57,97.57,0,0,1,47.45,69.66c.69,1.09,1.34,2.2,2,3.31.53.93,1,1.87,1.54,2.82.62,1.18,1.21,2.36,1.77,3.55C53.43,80.78,54.08,82.25,54.69,83.73Z"/><path class="cls-3" d="M66.47,78.58a8.31,8.31,0,0,1-1.82,1l-10,4.12h0l-2.48,1a96.54,96.54,0,0,0-51-51.2h0l-.12,0-1-.43v-21q4.28,1.41,8.49,3.18h0l.21.09A115.42,115.42,0,0,1,66.9,70.09,8.66,8.66,0,0,1,66.47,78.58Z"/><path class="cls-4" d="M9.71,12.94l-1,2.41L2.15,31.19,0,30.33V9.41Q4.89,10.94,9.71,12.94Z"/><path class="cls-4" d="M66.48,78.58a8.82,8.82,0,0,1-1.83,1l-10,4.12c-.61-1.48-1.26-3-1.94-4.39-.58-1.2-1.17-2.38-1.78-3.55-.5-1-1-1.89-1.54-2.82-.63-1.12-1.29-2.22-2-3.31A97,97,0,0,0,31.94,50.6c-1.72-1.63-3.49-3.21-5.32-4.71h0c-1.22-1-2.47-2-3.73-2.92h0C21.6,42,20.31,41.1,19,40.22s-2.81-1.83-4.25-2.69c-1.24-.75-2.5-1.46-3.79-2.15a95.84,95.84,0,0,0-8.8-4.19h0L8.71,15.35l1-2.42A117.11,117.11,0,0,1,43.88,34.64,116.34,116.34,0,0,1,69.07,67.76,8.62,8.62,0,0,1,66.48,78.58Z"/><path class="cls-5" d="M30.29,33.18c-.7-.48-1.2-.48-1.52,0a23.45,23.45,0,0,0-2,3.47c.23-1.11.46-2.22.67-3.34a4.1,4.1,0,0,0,.1-1.51,2.19,2.19,0,0,0-1.08-1.15,3.4,3.4,0,0,0-1.5-.61,1.15,1.15,0,0,0-1,.68q-1.55,2.63-3.1,5.25c-.29.49-.1.92.55,1.31s1.15.39,1.45-.09a23.72,23.72,0,0,0,2-3.63c-.19,1.18-.39,2.35-.61,3.51a4.11,4.11,0,0,0-.08,1.47,1.83,1.83,0,0,0,.81,1,2.36,2.36,0,0,0,1.46.55,1.4,1.4,0,0,0,1-.68l3.47-4.85C31.15,34.13,31,33.65,30.29,33.18Z"/><path class="cls-5" d="M37.21,38.48c-.81-.68-1.37-.82-1.68-.44L33.77,40.2l-1.14-.91c.57-.73,1.15-1.46,1.72-2.2.31-.38,0-.91-.83-1.57s-1.42-.75-1.71-.36c-1.34,1.83-2.68,3.67-4,5.5-.29.41,0,.9.74,1.49s1.31.69,1.62.3l1.3-1.65c.38.29.75.59,1.12.89l-1.33,1.63c-.32.39-.09.9.66,1.53s1.27.76,1.6.38L38,40.09C38.29,39.73,38.05,39.18,37.21,38.48Z"/><path class="cls-5" d="M42.06,42.73c-1-1-1.92-1.23-2.7-.81A41.3,41.3,0,0,0,34,45.7a.62.62,0,0,0-.08.38,1.42,1.42,0,0,0,.55,1,1.26,1.26,0,0,0,1.85.14L36.5,47l1.2,1.15-.18.25a1.45,1.45,0,0,0-.33.9,1.66,1.66,0,0,0,.57,1c.7.72,1.29.84,1.81.34A18.76,18.76,0,0,0,43,45.45C43.39,44.65,43.09,43.73,42.06,42.73Zm-2,2.2c-.18.23-.35.47-.52.7l-.77,1-.82-.79,1-.81.69-.55c.33-.25.54-.35.63-.26S40.27,44.58,40,44.93Z"/><path class="cls-5" d="M49.78,51.34c-.53-.66-1-.81-1.45-.44a24,24,0,0,0-2.94,2.75c.54-1,1.07-2,1.59-3a4,4,0,0,0,.53-1.41,2.17,2.17,0,0,0-.71-1.41,3.51,3.51,0,0,0-1.25-1,1.14,1.14,0,0,0-1.16.38l-4.46,4.15c-.42.39-.36.85.14,1.41s1,.69,1.42.32a24,24,0,0,0,2.93-2.92c-.51,1.07-1,2.14-1.57,3.19a3.82,3.82,0,0,0-.5,1.38A1.8,1.8,0,0,0,42.83,56a2.37,2.37,0,0,0,1.25.94,1.42,1.42,0,0,0,1.11-.38l4.7-3.67C50.33,52.49,50.3,52,49.78,51.34Z"/><path class="cls-5" d="M54.93,58.4c-.59-.89-1.09-1.19-1.5-.91l-2.3,1.58-.84-1.21,2.28-1.61c.4-.28.28-.87-.36-1.75s-1.15-1.13-1.54-.83L45.26,57.8c-.4.31-.3.85.28,1.64s1.06,1,1.47.75L48.73,59c.27.39.55.78.82,1.18l-1.74,1.19c-.41.28-.34.83.2,1.65s1,1.1,1.44.83l5.75-3.65C55.62,59.91,55.53,59.31,54.93,58.4Z"/></g></svg>