<svg xmlns="http://www.w3.org/2000/svg" viewBox="0 0 70 105"><defs><style>.cls-1{fill:#ffc246;}.cls-2{fill:#db2f00;}.cls-3{fill:#00e210;}.cls-4{opacity:0.3;}.cls-5{fill:#e6e8e8;}.cls-6{fill:#8c8c8c;}</style></defs><title>speed_medium</title><g id="Layer_2" data-name="Layer 2"><path class="cls-1" d="M0,36.29H0L17.76,79.17a47.62,47.62,0,0,1,34.48,0L70,36.3V30.23c-2.9-1.12-5.86-2.11-8.89-2.95q-2.47-.69-5-1.25c-1-.22-1.94-.42-2.91-.6l-1.8-.32-1.54-.25q-.84-.13-1.68-.24l-.26,0-1.27-.16-.52-.06c-.63-.08-1.27-.14-1.91-.2S42.7,24,41.94,24s-1.32-.09-2-.12c-.49,0-1-.05-1.48-.06-.69,0-1.39-.05-2.08-.05-.24,0-.47,0-.7,0H34.3c-.23,0-.46,0-.7,0-.69,0-1.39,0-2.08.05-.49,0-1,0-1.48.06q-1,0-2,.12c-.76.05-1.52.11-2.28.19s-1.28.12-1.91.2c-.18,0-.35,0-.52.06-.4,0-.79.09-1.18.15l-.35.05q-.84.11-1.68.24c-.52.07-1,.16-1.54.25l-1.8.32c-1.07.21-2.14.43-3.2.66-1.58.36-3.15.75-4.71,1.19-3,.84-6,1.83-8.89,2.95v6.06Z"/><path class="cls-2" d="M52.24,79.17,70,36.3V91.55A45.93,45.93,0,0,0,52.24,79.17Z"/><path class="cls-3" d="M17.76,79.17h0A45.8,45.8,0,0,0,0,91.55V36.3Z"/><path class="cls-4" d="M70,12V33a94.4,94.4,0,0,0-70-.4V11.65A112.65,112.65,0,0,1,70,12Z"/><path class="cls-5" d="M70,9.32V30.23c-2.9-1.12-5.86-2.11-8.89-2.95q-2.47-.69-5-1.25c-1-.22-1.94-.42-2.91-.6l-1.8-.32-1.54-.25q-.84-.13-1.68-.24l-.26,0-1.27-.16-.52-.06c-.63-.08-1.27-.14-1.91-.2S42.7,24,41.94,24s-1.32-.09-2-.12c-.49,0-1-.05-1.48-.06-.69,0-1.39-.05-2.08-.05-.24,0-.47,0-.7,0H34.3c-.23,0-.46,0-.7,0-.69,0-1.39,0-2.08.05-.49,0-1,0-1.48.06q-1,0-2,.12c-.76.05-1.52.11-2.28.19s-1.28.12-1.91.2c-.18,0-.35,0-.52.06-.4,0-.79.09-1.18.15l-.35.05q-.84.11-1.68.24c-.52.07-1,.16-1.54.25l-1.8.32c-1.07.2-2.14.42-3.2.66-1.58.36-3.15.75-4.71,1.19-3,.84-6,1.83-8.89,2.95V9.31A116.11,116.11,0,0,1,70,9.32Z"/><path class="cls-6" d="M30.64,12.06c-.05-.69-.61-1-1.68-.89s-1.49.37-1.65.77a31.53,31.53,0,0,1-.16,5.71,28,28,0,0,0-1.91-4.8,1.46,1.46,0,0,0-.85-.77,2.82,2.82,0,0,0-1.35,0c-.86.18-1.31.54-1.34,1,1.37,2.1,2.65,4.25,3.83,6.43a2.28,2.28,0,0,0,1.95.39,2,2,0,0,0,1.81-1.39C30.18,15.47,30.75,13.3,30.64,12.06Z"/><path class="cls-6" d="M34.47,7.37a1.71,1.71,0,0,0-.7.21,1.11,1.11,0,0,0-.69,1.08c0,.56.61,1,1.72,1.25a12.39,12.39,0,0,0,1.67.28.86.86,0,0,0,.69-.9C37.19,8.62,36.32,7.94,34.47,7.37Zm6.09,3.13a2.41,2.41,0,0,0-1.05-.84,1.31,1.31,0,0,0-.37.24.38.38,0,0,0,0,.6,1.13,1.13,0,0,0,.27.25l.28.24a.26.26,0,0,1,0,.46.39.39,0,0,1-.3,0A2.09,2.09,0,0,0,38,11.06c-1-.05-1.53.18-1.54.67,0,1.49-.05,3-.08,4.46a1.58,1.58,0,0,1-.24.95.79.79,0,0,1-.65.25.74.74,0,0,1-.63-.25,1.59,1.59,0,0,1-.21-.92c0-1.5,0-3,0-4.5,0-.49-.58-.73-1.74-.68s-1.67.33-1.63.82l.3,4.19c.18,2.31,1.44,3.33,3.82,3.33a3.86,3.86,0,0,0,2.8-.94,3.51,3.51,0,0,0,1-2.4c.09-1.13.17-2.25.26-3.38a1.1,1.1,0,0,0,.89-.1,1.19,1.19,0,0,0,.67-1A1.57,1.57,0,0,0,40.56,10.5Z"/><path class="cls-6" d="M47,13.41c-.12-.89-.95-1.51-2.46-1.76s-2.43.09-2.83.89a34.71,34.71,0,0,0-2.18,6.23.64.64,0,0,0,.16.36,1.46,1.46,0,0,0,1,.46,1.3,1.3,0,0,0,1.61-1c0-.09.05-.18.08-.28l1.67.27c0,.1,0,.2,0,.31a1.43,1.43,0,0,0,.24.92,1.71,1.71,0,0,0,1,.48c1,.21,1.55,0,1.72-.71A17.36,17.36,0,0,0,47,13.41ZM44.12,15.5c0,.47,0,.9,0,1.3l-1.16-.19.36-1.24c.12-.43.21-.71.26-.84.13-.4.25-.6.38-.58s.2.25.2.67S44.12,15.21,44.12,15.5Z"/></g></svg>