<svg id="Layer_1" data-name="Layer 1" xmlns="http://www.w3.org/2000/svg" viewBox="0 0 48 51.42"><defs><style>.cls-1{opacity:0.5;}.cls-2{opacity:0.3;}.cls-3{fill:#922;}.cls-4{fill:#a7381f;}.cls-5{fill:#e44e2d;}.cls-6{fill:#fff;opacity:0.2;}</style></defs><title>numpad-red</title><g class="cls-1"><path d="M46.28,27.35V28c0,.16,0,.32,0,.47a22.52,22.52,0,0,1-45,.11c0-.21,0-.44,0-.66V23.77l.28.66a22.54,22.54,0,0,1,44.4-.52l.34-.25Z"/><path d="M46.23,26.25c0,.4-.06.79-.11,1.18a22.42,22.42,0,0,1-1.65,6.07c-1.17,2.7-5.57,8.14-5.57,8.14L32.68,46S26,47,23.76,47c-5.05,0-13.39-3.76-13.39-3.76L4.11,35.6A45.47,45.47,0,0,1,1.33,26a11.69,11.69,0,0,1-.08-1.27v-.07a22.53,22.53,0,0,1,45-1.31A23.83,23.83,0,0,1,46.23,26.25Z"/><path class="cls-2" d="M46.23,26.25c0,.4,0,.79.05,1.2l-.16,0L1.48,24.65l-.23,0a22.53,22.53,0,0,1,45-1.31A23.83,23.83,0,0,1,46.23,26.25Z"/></g><path class="cls-3" d="M46.75,27.35c0-.16,0-.32,0-.48v.48Z"/><path class="cls-4" d="M46.28,26.19v.63c0,.16,0,.31,0,.46a22.52,22.52,0,0,1-45,.11c0-.21,0-.43,0-.66V22.61l.29.66a22.55,22.55,0,0,1,44.4-.52l.33-.24Z"/><path class="cls-5" d="M46.23,25.09c0,.4-.06.8-.11,1.19a22.35,22.35,0,0,1-1.65,6.06C43.3,35,38.9,40.49,38.9,40.49l-6.21,4.34S26,45.88,23.76,45.88c-5.05,0-13.39-3.76-13.39-3.76L4.11,34.45a45.68,45.68,0,0,1-2.78-9.63,11.87,11.87,0,0,1-.08-1.28v-.07a22.53,22.53,0,0,1,45-1.3A23.67,23.67,0,0,1,46.23,25.09Z"/><path class="cls-6" d="M46.23,25.09c0,.4,0,.8.05,1.2h-.16L1.49,23.49l-.24,0a22.53,22.53,0,0,1,45-1.3A23.67,23.67,0,0,1,46.23,25.09Z"/></svg>