<svg id="Layer_1" data-name="Layer 1" xmlns="http://www.w3.org/2000/svg" viewBox="0 0 48 51.42"><defs><style>.cls-1{opacity:0.5;}.cls-2,.cls-6{opacity:0.3;}.cls-3{fill:#922;}.cls-4{fill:#c6c5b6;}.cls-5{fill:#f4f3e1;}.cls-6{fill:#fff;}</style></defs><title>numpad-number</title><g class="cls-1"><path d="M46.52,27.45v.63c0,.15,0,.31,0,.46a22.52,22.52,0,0,1-45,.11c0-.21,0-.44,0-.66V23.87l.28.66A22.55,22.55,0,0,1,46.16,24l.34-.24Z"/><path d="M46.46,26.35c0,.4-.06.79-.11,1.19a22.08,22.08,0,0,1-1.64,6.06c-1.18,2.7-5.58,8.15-5.58,8.15l-6.21,4.34s-6.67,1-8.92,1c-5.05,0-13.39-3.77-13.39-3.77L4.34,35.71a46.34,46.34,0,0,1-2.78-9.63,12,12,0,0,1-.08-1.28v-.07a22.53,22.53,0,0,1,45-1.3A21.86,21.86,0,0,1,46.46,26.35Z"/><path class="cls-2" d="M46.46,26.35c0,.4,0,.79,0,1.2h-.16L1.72,24.75l-.24,0a22.53,22.53,0,0,1,45-1.3A21.86,21.86,0,0,1,46.46,26.35Z"/></g><path class="cls-3" d="M47,27.45c0-.16,0-.32,0-.48v.48Z"/><path class="cls-4" d="M46.52,26.3v.62c0,.16,0,.32,0,.46a22.52,22.52,0,0,1-45,.12c0-.22,0-.44,0-.66V22.71l.28.66a22.55,22.55,0,0,1,44.4-.52l.34-.24Z"/><path class="cls-5" d="M46.47,25.19c0,.4-.07.8-.12,1.19a22,22,0,0,1-1.64,6.06c-1.17,2.71-5.57,8.15-5.57,8.15l-6.22,4.34S26.25,46,24,46C19,46,10.61,42.22,10.61,42.22L4.34,34.55a45.91,45.91,0,0,1-2.77-9.63,11.83,11.83,0,0,1-.09-1.28v-.07a22.53,22.53,0,0,1,45-1.3A23.68,23.68,0,0,1,46.47,25.19Z"/><path class="cls-6" d="M46.47,25.19c0,.4,0,.8.05,1.2h-.17L1.72,23.59l-.24,0a22.53,22.53,0,0,1,45-1.3A23.68,23.68,0,0,1,46.47,25.19Z"/></svg>