<svg id="Layer_1" data-name="Layer 1" xmlns="http://www.w3.org/2000/svg" viewBox="0 0 48 24"><defs><style>.cls-1{fill:#b65301;}.cls-2{fill:#ef6c00;}.cls-3{fill:#ef8228;}.cls-4{fill:#fff;}</style></defs><title>numpad-backspace</title><g id="Rectangle_2_copy" data-name="Rectangle 2 copy"><polygon class="cls-1" points="47.97 13.42 47.97 9.61 -0.01 9.66 -0.01 13.48 0.07 13.48 19.29 24 47.99 24 47.99 13.42 47.97 13.42"/></g><g id="Rectangle_1" data-name="Rectangle 1"><polygon class="cls-2" points="19.27 20.19 0.01 9.65 19.29 0.03 47.97 0.04 47.93 20.19 19.27 20.19"/><path class="cls-3" d="M47.89.08V20.15H19.29L.16,9.68,19.29.08h28.6M48,0H19.27L0,9.68,19.27,20.23H48V0Z"/></g><g id="Rectangle_2_copy_3" data-name="Rectangle 2 copy 3"><polygon class="cls-4" points="36.41 9.77 37.78 8.35 37.56 7.79 38.28 7.83 37.21 7.41 38.77 7.33 40.77 5.25 36.2 1.38 31.89 5.85 27.12 1.71 23.04 6.03 26.37 8.93 28.04 8.93 26.87 9.37 27.76 10.13 23.39 14.65 27.96 18.52 32.27 14.05 34.05 15.6 34.83 15.3 34.83 16.28 35.15 16.1 35.34 16.71 37.03 18.19 41.11 13.86 36.41 9.77"/></g></svg>