<svg id="Layer_1" data-name="Layer 1" xmlns="http://www.w3.org/2000/svg" viewBox="0 0 543.02 597.8"><defs><style>.cls-1{fill:#0ecc8f;}.cls-2{opacity:0.56;}.cls-3{fill:#2af531;}.cls-4{fill:#7af22c;}</style></defs><title>green_ink</title><path class="cls-1" d="M251.77,157.69c13.37,1.59,19,19.77,1.43,18.79C257.47,176.76,251.75,157.74,251.77,157.69Z"/><path class="cls-1" d="M179,148.6c2.41,1.77-16.77-16.57-6.13-15.39C184.27,134.51,199.79,163.91,179,148.6Z"/><path class="cls-1" d="M117.94,304.61c-2.65,6.57-55.72,39.49-59.49,38.39C25.54,333.37,129.35,276.38,117.94,304.61Z"/><path class="cls-1" d="M113.16,226.87c-4.32,5.4-21.5-11.7-22.44-11.19C100.45,210.77,108.47,219.05,113.16,226.87Z"/><path class="cls-1" d="M372.54,108.11c4.07-8,28.63-3.85,31.5,2.3C395.44,119.66,358.8,134.59,372.54,108.11Z"/><path class="cls-1" d="M153,239.23c-10.51-14.43,23.29-5.82,20.79,3.25C173.06,244.8,154.82,241.77,153,239.23Z"/><path class="cls-1" d="M312.75,132.88c12,1.72,58.87,24.7,56.08,40.24C364,200.76,288.48,129.32,312.75,132.88Z"/><path class="cls-1" d="M159.29,418c5,2.3-13.23-16.52-11.9-12.06,2.53-1.53,5.18-8.34,8.75-8C166,398.93,176.54,425.88,159.29,418Z"/><path class="cls-1" d="M154.71,335.77c-.1,2-20.9,11.33-21.53,11-1.52-.78-3.05-5.6-3.55-5.74C124.79,340.92,155.47,316,154.71,335.77Z"/><path class="cls-1" d="M424.59,210.75c4.8-11.86,21.83,15.73,1.08,27.68C415.71,233,420.82,220,424.59,210.75Z"/><path class="cls-1" d="M384.72,548.69c-15.25,16.08-16.18-32.51-13.32-32.51C374.72,521.73,390.64,542.55,384.72,548.69Z"/><path class="cls-1" d="M147.55,463.54c-1.34,1.1-30.05-13.55-26.94-16.44C125.57,442.46,164.58,449.45,147.55,463.54Z"/><path class="cls-1" d="M329.71,516c-5.63,8.42-21.72,21.13-31.55,24.92C285.25,545.83,349.81,486.11,329.71,516Z"/><path class="cls-1" d="M457.87,236.28c11.86-7.7,46.83,46.72-1.3,33.25C456,265.57,458.87,235.63,457.87,236.28Z"/><path class="cls-1" d="M493.57,468.55c-4.08-6.52-22.11-7.33-23.87-12-.19-.49.63-.9.37-1.64C465.19,440.46,503,483.88,493.57,468.55Z"/><path class="cls-1" d="M476.18,431.74c4.35-3.59,21.36-4.06,24.41,2.35-.09-.2-4.12,9.47-4.28,9.59C494.88,444.79,471.94,435.25,476.18,431.74Z"/><path class="cls-1" d="M230.34,533.55c-5.54,4.58-10.8,2.74-16.19.73-1.46-.54,36.71-35,41.38-28.77C247.69,515.07,240,525.57,230.34,533.55Z"/><path class="cls-1" d="M413.91,485.79c-33.23,11.34-58.62-6.94-84.65-8.05-31.74-1.36-50.67,10.58-85.68,3.36-50.24-10.36-74.89-67.87-85.92-108.74.39,1.45,4.45-43.57,4.11-51.93-.67-16.61-30.31-23.07-24-43,4.93-15.57,25.47-14.93,28.55-20.59-3.2,5.87,41.36-15.4,43.74-17.47-37.18,32.52,25.95-74.57,17.26-45.61a26.91,26.91,0,0,1-4.56-18.8c6.7-14.43,25.29,19.28,25.58,23.59C301,119,397.54,250.81,416.59,274.18c54.23,66.53,15.6,11.25,6.36,70.84-1.27,8.23-24.32-7.84-22,12.08,2.25,19.57,42.73.88,46.44,8.64,8.23,17.22,13.53,8.12,27.77,17.6-18.88,25.1-32.53,38.47-43.48,58.92C420.91,462.34,445.87,474.91,413.91,485.79Z"/><path class="cls-1" d="M489.72,382.29c1.66-4-26.06-15-27.41-16.67C472.36,346.22,497.28,364.36,489.72,382.29Z"/><path class="cls-1" d="M464.47,560.52c-18.2,15.05-39.39-23-39-37.7C431.19,525.26,477.84,549.46,464.47,560.52Z"/><path class="cls-1" d="M129.63,341a1.11,1.11,0,0,1-.34-.06A.76.76,0,0,1,129.63,341Z"/><path class="cls-1" d="M55,332.06a2.62,2.62,0,0,1-.74.07A1.65,1.65,0,0,1,55,332.06Z"/><g class="cls-2"><path class="cls-1" d="M289.73,529.61c1.77,3.11-3.2,35.9-4.35,36.35C266.73,573.26,280.29,512.9,289.73,529.61Z"/><path class="cls-1" d="M293.09,360c-2.34-5,9.76-10.83,13.06-9.41C307.64,359.64,300,375,293.09,360Z"/><path class="cls-1" d="M282.14,390.51c6.71-4,34.31-8.45,40.43-1C332.57,401.56,270.78,397.25,282.14,390.51Z"/><path class="cls-1" d="M359.31,565.28c-.64.14-16.17-4-10.72-7.69C352.82,554.78,369.86,563,359.31,565.28Z"/><path class="cls-1" d="M318.52,531c5.22,5.17-7,10.58-7,10.58C309.11,543.54,309.42,522.18,318.52,531Z"/><path class="cls-1" d="M361.64,387.45c-2.8-5,15.84-.77,13.56,11.69C368.72,400.06,364.56,392.65,361.64,387.45Z"/><path class="cls-1" d="M507.1,547.7c1.75,11.41-21.86-8.57-20.51-9.75C490.74,539.36,506.36,542.59,507.1,547.7Z"/><path class="cls-1" d="M376.52,589c0,.13-17.75,5.22-18,1.75C358.2,587.7,376.27,576.11,376.52,589Z"/><path class="cls-1" d="M470.66,551.65c1.6,4.75,1.8,16.34-.15,21.27C466.9,581.91,463.11,529.07,470.66,551.65Z"/><path class="cls-1" d="M499.27,436.41c.7-4.94,5.63-18.58,9.79-18C515.47,430,519.45,446.45,499.27,436.41Z"/><path class="cls-1" d="M442.07,369.5c-6,.6,37.24,11.34,32.15,7.76,4.75,3.32-24.36,25-26,25q-4-7.87-5-3.89C444.15,398.5,429.69,370.72,442.07,369.5Z"/><path class="cls-1" d="M386.42,387.57c.82-7.09,40.43,4.68,15.3,14.9C399.66,401,386.39,387.77,386.42,387.57Z"/><path class="cls-1" d="M510.37,476.86c-2.86-.91-15.57,3.45-15.61,1.26C503.54,467.84,510.14,476.79,510.37,476.86Z"/><path class="cls-1" d="M441.24,592.11c.4,21.15-17.24-23.83-3.75-20.52C439,578.23,441.11,585.2,441.24,592.11Z"/><path class="cls-1" d="M488.29,510.68c-6.48,14.26-61,53-66.94,54.23-34,6.78-53.8-3.78-84.33-18.94C283.11,519.2,289,480.14,267.94,438.55c-3.46-6.8,19.5.64,20.93,1.82-16.36-47.8,116.72-33.2,133.74-21.81,7.85,5.25-4.07,32.52-3.82,36.45.49,7.83,36.73-8.71,44.07-9.14C464.6,452.13,488.47,510.3,488.29,510.68Z"/><path class="cls-1" d="M467.91,440.59c-2.35-4.28-15.77,2.35-18.34,1.8-.44-.95-3.13-3.89-2.76-5.35C448.81,428.38,465.54,436.27,467.91,440.59Z"/><path class="cls-1" d="M543,526.5c.27,14.34-27.61,1.37-32.71-3.54C515,521.81,542.83,516.82,543,526.5Z"/><path class="cls-1" d="M311.49,541.6a.48.48,0,0,1-.16.08A.35.35,0,0,1,311.49,541.6Z"/><path class="cls-1" d="M278.88,562.34a1.07,1.07,0,0,1-.25.27A.6.6,0,0,1,278.88,562.34Z"/></g><g class="cls-2"><path class="cls-3" d="M75.25,333.8c-2.79,4.31-29.81,13.4-31.57,10.83q2.64-2.47.93-3.33C39.41,341.63,82.66,322.35,75.25,333.8Z"/><path class="cls-3" d="M206.3,266c2.67-3.44,16.89.91,12.25,5S199.3,274.81,206.3,266Z"/><path class="cls-3" d="M177.29,272.51c5.14,1.58,24.47,15.11,22,21.69C194.69,306.17,166.7,269.22,177.29,272.51Z"/><path class="cls-3" d="M221.26,314.72c6.15-9.49.39,10,.12,10.75C220,329.53,217.94,319.81,221.26,314.72Z"/><path class="cls-3" d="M175.29,460.06c-6.85,5-6.35-12.89-4.52-14.45S178.44,457.81,175.29,460.06Z"/><path class="cls-3" d="M75.43,405.63c-.74.42-12.35-8.15-10.78-9.15C67.28,394.79,84.2,400.72,75.43,405.63Z"/><path class="cls-3" d="M153.2,441.76c-3.31,3.36-11.5,7.69-16.29,8.66C130,451.78,165,429.82,153.2,441.76Z"/><path class="cls-3" d="M256,410.07c3.82-1.53,16.75-5.07,18.84-2C269.88,415.54,259.1,426.09,256,410.07Z"/><path class="cls-3" d="M277.06,351.31c-6-5,10.8,28.57,10.93,20.77-.05,4.42-31.7-2.9-32.66-4q3.24-5.31.38-4.31C256.79,365.53,270,345.38,277.06,351.31Z"/><path class="cls-3" d="M234.14,328.31c3.56-1.5,11.7,10.89,9.41,14.55-.84,1.35-7.25,1.85-8.63,2.06C227.25,346.05,235,327.93,234.14,328.31Z"/><path class="cls-3" d="M107,442.3c-16.31,9.13,8.69-20.06,13.68-10.49C116.29,435.45,111.94,439.5,107,442.3Z"/><path class="cls-3" d="M193.66,434.57c-49.81,8.08-99.19-20-106.12-68.2-6.09-42.39,25.89-54.55,45.7-81.89,4.28-6,9.82,10.15,9.57,12.19,27.22-27.91,86.35,44.82,86.66,64.16.12,6.6-27.11,11.25-29.78,12.88-4.22,2.57,25.78,16.41,30.05,20.34C224.58,398.75,195.85,434.22,193.66,434.57Z"/><path class="cls-3" d="M236.4,394.64c1.31-1.95-11.19-8.65-10.14-11a14.6,14.6,0,0,1,1.8-2C234.27,379.65,239.45,390.09,236.4,394.64Z"/><path class="cls-3" d="M210.26,471c-9.33,5.22-15.8-13.16-14.44-19.34C198.12,453.09,217.17,467.12,210.26,471Z"/><path class="cls-3" d="M77.5,350.62l-.15-.06A.34.34,0,0,1,77.5,350.62Z"/><path class="cls-3" d="M44.61,341.3a1.3,1.3,0,0,1-.34,0A.9.9,0,0,1,44.61,341.3Z"/></g><g class="cls-2"><path class="cls-3" d="M388.8,347.83c.43,2.69-5.91,23.43-7.35,24-1.8.7-2.38-2.87-2.47-2.8C377.67,370.93,387.47,339.66,388.8,347.83Z"/><path class="cls-3" d="M405.73,254.62c3.9-2.43,13.47-2,17.92-.22a12.26,12.26,0,0,1-1.7,6.39C418.18,265.87,401.75,257.06,405.73,254.62Z"/><path class="cls-3" d="M468.93,373.09c0,2.92-3.25,18.92-3.38,10.51C465.5,381.09,468.83,363.71,468.93,373.09Z"/><path class="cls-3" d="M482.51,249.93c-6.46.12,17.35,12.49,13.68,7.06,2.15,3.15-15.11,15.23-15.66,15.13q-.86-5.14-1.71-2.88C479.35,269.45,477.93,250,482.51,249.93Z"/><path class="cls-3" d="M454.21,258.74c.88-2.91,12.55.64,8.16,7.81C458.52,272.81,453.41,261.38,454.21,258.74Z"/><path class="cls-3" d="M449.43,398.36c-2.15,10.38-1.08-7.69-.43-11.66C450,380.83,449.92,396,449.43,398.36Z"/><path class="cls-3" d="M483.07,346.8C422.09,456.4,384.83,284,394,284c5.4,0,4.75-.65,7.52,4.29-.49-30.5,55.6-19.59,64.83-6.74,3.2,4.46-11.38,27.65-3.46,27.92,6,.22,11.23-7.63,18-7.36C480.69,308.54,485.37,342.68,483.07,346.8Z"/><path class="cls-3" d="M506,360.54c-1.88,9.11-12.67-.16-14.55-4.27C494.06,355.71,507.22,354.46,506,360.54Z"/><path class="cls-3" d="M397.06,357.1a.19.19,0,0,1-.09,0A.14.14,0,0,1,397.06,357.1Z"/><path class="cls-3" d="M379,369a.61.61,0,0,1-.15.17A.52.52,0,0,1,379,369Z"/></g><g class="cls-2"><path class="cls-4" d="M262,482.84c.44,2.68-5.9,23.43-7.35,24-1.8.71-2.37-2.86-2.46-2.8C250.85,505.94,260.65,474.66,262,482.84Z"/><path class="cls-4" d="M278.9,389.62c3.91-2.42,13.47-2,17.93-.22a12.29,12.29,0,0,1-1.7,6.4C291.36,400.88,274.93,392.07,278.9,389.62Z"/><path class="cls-4" d="M342.1,508.1c0,2.91-3.24,18.92-3.37,10.51C338.68,516.09,342,498.72,342.1,508.1Z"/><path class="cls-4" d="M355.68,384.94c-6.45.12,17.36,12.49,13.68,7.05,2.16,3.16-15.1,15.23-15.65,15.14-.57-3.43-1.14-4.4-1.71-2.88C352.52,404.46,351.11,385,355.68,384.94Z"/><path class="cls-4" d="M327.39,393.75c.88-2.92,12.54.64,8.16,7.8C331.69,407.82,326.59,396.39,327.39,393.75Z"/><path class="cls-4" d="M322.61,533.37c-2.15,10.38-1.08-7.69-.43-11.67C323.13,515.84,323.09,531,322.61,533.37Z"/><path class="cls-4" d="M356.25,481.8C295.27,591.41,258,419,267.17,419c5.39,0,4.75-.66,7.51,4.29-.48-30.51,55.6-19.59,64.83-6.74,3.21,4.45-11.38,27.64-3.45,27.92,6,.22,11.23-7.64,18-7.36C353.87,443.54,358.54,477.69,356.25,481.8Z"/><path class="cls-4" d="M379.14,495.55c-1.88,9.11-12.67-.16-14.55-4.27C367.24,490.71,380.4,489.47,379.14,495.55Z"/><path class="cls-4" d="M270.24,492.11l-.09,0A.18.18,0,0,1,270.24,492.11Z"/><path class="cls-4" d="M252.16,504a.9.9,0,0,1-.15.18A.47.47,0,0,1,252.16,504Z"/></g><g class="cls-2"><path class="cls-3" d="M215.7,230.68c.44,2.69-5.9,23.43-7.35,24-1.8.7-2.37-2.87-2.46-2.8C204.58,253.78,214.38,222.51,215.7,230.68Z"/><path class="cls-3" d="M232.63,137.47c3.91-2.43,13.47-2,17.93-.22a12.26,12.26,0,0,1-1.7,6.39C245.09,148.72,228.66,139.91,232.63,137.47Z"/><path class="cls-3" d="M295.83,255.94c0,2.92-3.24,18.92-3.37,10.51C292.41,263.93,295.74,246.56,295.83,255.94Z"/><path class="cls-3" d="M309.42,132.78c-6.46.12,17.35,12.49,13.67,7.05C325.25,143,308,155.06,307.44,155q-.85-5.15-1.71-2.88C306.25,152.3,304.84,132.86,309.42,132.78Z"/><path class="cls-3" d="M281.12,141.59c.88-2.92,12.54.64,8.16,7.81C285.43,155.66,280.32,144.23,281.12,141.59Z"/><path class="cls-3" d="M276.34,281.21c-2.15,10.38-1.08-7.69-.43-11.66C276.86,263.68,276.82,278.85,276.34,281.21Z"/><path class="cls-3" d="M310,229.64c-61,109.61-98.24-62.8-89.08-62.82,5.39,0,4.75-.65,7.51,4.29-.48-30.5,55.6-19.59,64.83-6.74,3.21,4.46-11.38,27.65-3.45,27.92,6,.22,11.23-7.63,18-7.36C307.6,191.38,312.27,225.53,310,229.64Z"/><path class="cls-3" d="M332.87,243.39c-1.88,9.11-12.67-.16-14.55-4.27C321,238.56,334.13,237.31,332.87,243.39Z"/><path class="cls-3" d="M224,240l-.09.05A.14.14,0,0,1,224,240Z"/><path class="cls-3" d="M205.89,251.88a1.22,1.22,0,0,1-.15.17A.52.52,0,0,1,205.89,251.88Z"/></g><g class="cls-2"><path class="cls-1" d="M165.07,251c1.11,2-2,22.57-2.73,22.85-1.67.65-3.92-2.39-4.09-2.28C155.6,275.85,158.34,239.12,165.07,251Z"/><path class="cls-1" d="M160.3,163.58c4.22-2.52,21.56-5.31,25.41-.64-1.73-2.09-2.5,5-2.08,4.42C179.25,173.73,158.14,164.86,160.3,163.58Z"/><path class="cls-1" d="M278.79,264.88c.88,2.6,1.26,17.82-1.41,10C276.05,271.08,275.76,255.8,278.79,264.88Z"/><path class="cls-1" d="M296.77,192.43c.38-2.66,4.63-15.4,7.86-9.61C309.05,190.9,306.49,197.27,296.77,192.43Z"/><path class="cls-1" d="M260.82,150.37c-3.76.38,23.41,7.13,20.21,4.88,3.73,2.6-15.82,15.71-16.34,15.7q-2.51-4.95-3.12-2.45C262.13,168.6,253,151.14,260.82,150.37Z"/><path class="cls-1" d="M225.84,161.73c.38-3.22,13.42,0,14.88,2.46.55.95-1.59,5-2,5.77C236.61,174.44,225.88,161.38,225.84,161.73Z"/><path class="cls-1" d="M289.88,239.13C273.57,275,227.78,280,194.8,261.31c-33.79-19.14-29.6-40.17-43.42-67.53-2.18-4.28,12.25.4,13.15,1.14-7.14-20.88,78.87-34.65,81.66,9.21.31,4.92,23.09-5.48,27.7-5.75C275,202.32,290,238.88,289.88,239.13Z"/><path class="cls-1" d="M324.27,249.07c.17,9-17.35.86-20.56-2.22C306.65,246.13,324.16,243,324.27,249.07Z"/><path class="cls-1" d="M178.75,258.57l-.1.05A.14.14,0,0,1,178.75,258.57Z"/><path class="cls-1" d="M158.25,271.6a.55.55,0,0,1-.16.18A.57.57,0,0,1,158.25,271.6Z"/></g><path class="cls-1" d="M208.28,55.71c13.36,1.59,19,19.77,1.42,18.79C214,74.78,208.25,55.76,208.28,55.71Z"/><path class="cls-1" d="M135.49,46.62c2.4,1.77-16.78-16.56-6.14-15.39C140.77,32.53,156.3,61.94,135.49,46.62Z"/><path class="cls-1" d="M74.44,202.63C71.79,209.2,18.72,242.12,15,241-18,231.39,85.86,174.4,74.44,202.63Z"/><path class="cls-1" d="M69.67,124.9c-4.33,5.39-21.51-11.7-22.44-11.2C57,108.79,65,117.08,69.67,124.9Z"/><path class="cls-1" d="M329.05,6.14c4.07-8,28.62-3.86,31.5,2.29C351.94,17.68,315.3,32.61,329.05,6.14Z"/><path class="cls-1" d="M109.45,137.25c-10.5-14.42,23.3-5.81,20.79,3.26C129.56,142.82,111.32,139.8,109.45,137.25Z"/><path class="cls-1" d="M269.25,30.91c12,1.71,58.87,24.69,56.09,40.23C320.49,98.78,245,27.35,269.25,30.91Z"/><path class="cls-1" d="M115.79,316c5,2.31-13.23-16.52-11.9-12.06,2.53-1.52,5.19-8.34,8.76-8C122.48,297,133,323.9,115.79,316Z"/><path class="cls-1" d="M111.21,233.8c-.09,1.95-20.89,11.33-21.53,11-1.52-.78-3-5.59-3.55-5.74C81.29,238.94,112,214,111.21,233.8Z"/><path class="cls-1" d="M381.1,108.78c4.79-11.86,21.82,15.72,1.07,27.67C372.22,131,377.32,118,381.1,108.78Z"/><path class="cls-1" d="M341.23,446.72C326,462.8,325,414.21,327.91,414.2,331.22,419.75,347.14,440.57,341.23,446.72Z"/><path class="cls-1" d="M104.05,361.56c-1.34,1.11-30-13.54-26.94-16.44C82.07,340.48,121.08,347.48,104.05,361.56Z"/><path class="cls-1" d="M286.21,414c-5.63,8.42-21.72,21.12-31.55,24.92C241.75,443.85,306.31,384.13,286.21,414Z"/><path class="cls-1" d="M494.73,307.52c7.74-4.8,34.15-17,39.74-11.17C526.6,315.23,507.74,341.52,494.73,307.52Z"/><path class="cls-1" d="M414.37,134.3c11.86-7.7,46.83,46.72-1.3,33.25C412.47,163.59,415.37,133.66,414.37,134.3Z"/><path class="cls-1" d="M450.07,366.58c-4.08-6.52-22.1-7.34-23.86-12-.19-.48.62-.9.36-1.63C421.7,338.49,459.51,381.91,450.07,366.58Z"/><path class="cls-1" d="M432.68,329.77c4.35-3.6,21.37-4.06,24.41,2.34-.09-.19-4.12,9.47-4.27,9.6C451.39,342.81,428.45,333.27,432.68,329.77Z"/><path class="cls-1" d="M186.84,431.57c-5.54,4.58-10.8,2.75-16.19.74-1.46-.55,36.71-35,41.38-28.78C204.19,413.09,196.48,423.59,186.84,431.57Z"/><path class="cls-1" d="M370.41,383.81c-33.23,11.35-58.62-6.93-84.65-8.05-31.74-1.36-50.67,10.58-85.67,3.37-50.25-10.36-74.9-67.87-85.93-108.75.39,1.45,4.45-43.57,4.11-51.93-.66-16.6-30.31-23.07-24-43,4.93-15.56,25.46-14.92,28.54-20.58-3.19,5.87,41.37-15.4,43.74-17.48-37.17,32.53,26-74.56,17.26-45.6A26.93,26.93,0,0,1,179.26,73c6.7-14.43,25.29,19.29,25.58,23.6C257.48,17,354,148.84,373.09,172.21c54.23,66.52,15.61,11.24,6.37,70.83-1.28,8.23-24.33-7.83-22,12.09,2.25,19.56,42.74.87,46.44,8.63,8.24,17.23,13.53,8.13,27.77,17.6-18.88,25.11-32.52,38.48-43.47,58.93C377.41,360.36,402.38,372.94,370.41,383.81Z"/><path class="cls-1" d="M446.22,280.32c1.67-4-26.06-15-27.41-16.68C428.86,244.25,453.79,262.38,446.22,280.32Z"/><path class="cls-1" d="M421,458.54c-18.19,15-39.39-23.05-39-37.69C387.69,423.28,434.35,447.48,421,458.54Z"/><path class="cls-1" d="M86.13,239.06a1.16,1.16,0,0,1-.34-.06A.93.93,0,0,1,86.13,239.06Z"/><path class="cls-1" d="M11.53,230.08a3.19,3.19,0,0,1-.75.08A1.72,1.72,0,0,1,11.53,230.08Z"/><g class="cls-2"><path class="cls-1" d="M246.24,427.63c1.76,3.12-3.21,35.91-4.36,36.36C223.23,471.28,236.79,410.92,246.24,427.63Z"/><path class="cls-1" d="M249.59,258c-2.34-5,9.76-10.82,13.06-9.41C264.14,257.67,256.49,273.06,249.59,258Z"/><path class="cls-1" d="M238.64,288.54c6.71-4,34.31-8.46,40.43-1C289.07,299.59,227.28,295.27,238.64,288.54Z"/><path class="cls-1" d="M315.82,463.3c-.65.14-16.18-4-10.72-7.68C309.33,452.8,326.36,461,315.82,463.3Z"/><path class="cls-1" d="M275,429.05c5.22,5.16-7,10.57-7,10.57C265.61,441.56,265.92,420.2,275,429.05Z"/><path class="cls-1" d="M318.14,285.48c-2.8-5,15.84-.78,13.56,11.69C325.22,298.09,321.06,290.67,318.14,285.48Z"/><path class="cls-1" d="M463.6,445.72c1.75,11.41-21.86-8.57-20.51-9.75C447.24,437.38,462.86,440.62,463.6,445.72Z"/><path class="cls-1" d="M333,487c0,.13-17.75,5.21-18,1.74C314.7,485.72,332.77,474.13,333,487Z"/><path class="cls-1" d="M427.16,449.67c1.61,4.76,1.8,16.34-.14,21.27C423.4,479.94,419.62,427.1,427.16,449.67Z"/><path class="cls-1" d="M455.77,334.43c.7-4.94,5.63-18.57,9.79-18C472,328,476,344.48,455.77,334.43Z"/><path class="cls-1" d="M398.57,267.52c-6,.6,37.24,11.34,32.16,7.76,4.75,3.32-24.37,25-26,25-2.65-5.26-4.3-6.55-5-3.9C400.65,296.52,386.19,268.75,398.57,267.52Z"/><path class="cls-1" d="M342.92,285.59c.82-7.09,40.43,4.69,15.3,14.9C356.17,299,342.9,285.8,342.92,285.59Z"/><path class="cls-1" d="M466.87,374.89c-2.86-.92-15.57,3.44-15.61,1.26C460,365.86,466.65,374.82,466.87,374.89Z"/><path class="cls-1" d="M397.75,490.14c.4,21.14-17.25-23.83-3.76-20.53C395.53,476.26,397.61,483.23,397.75,490.14Z"/><path class="cls-1" d="M444.8,408.7c-6.49,14.26-61,53-66.95,54.23-34,6.78-53.8-3.78-84.32-18.94-53.92-26.77-48.07-65.82-69.09-107.42-3.45-6.8,19.5.64,20.93,1.82-16.36-47.79,116.72-33.2,133.75-21.8C387,321.83,375,349.1,375.29,353c.5,7.83,36.73-8.71,44.07-9.14C421.1,350.16,445,408.32,444.8,408.7Z"/><path class="cls-1" d="M424.41,338.62c-2.35-4.28-15.77,2.34-18.34,1.8-.44-1-3.13-3.9-2.76-5.36C405.31,326.41,422,334.3,424.41,338.62Z"/><path class="cls-1" d="M499.52,424.52c.27,14.34-27.6,1.37-32.71-3.53C471.48,419.84,499.34,414.85,499.52,424.52Z"/><path class="cls-1" d="M268,439.62a.38.38,0,0,1-.15.09A.29.29,0,0,1,268,439.62Z"/><path class="cls-1" d="M235.38,460.36a1.12,1.12,0,0,1-.25.28A.63.63,0,0,1,235.38,460.36Z"/></g><g class="cls-2"><path class="cls-3" d="M31.75,231.82C29,236.13,1.94,245.22.18,242.66q2.64-2.49.93-3.33C-4.09,239.66,39.16,220.37,31.75,231.82Z"/><path class="cls-3" d="M162.8,164c2.67-3.44,16.89.91,12.25,5S155.8,172.84,162.8,164Z"/><path class="cls-3" d="M133.79,170.54c5.14,1.57,24.48,15.11,22,21.68C151.19,204.19,123.2,167.24,133.79,170.54Z"/><path class="cls-3" d="M177.76,212.74c6.15-9.49.39,10,.12,10.75C176.47,227.55,174.44,217.83,177.76,212.74Z"/><path class="cls-3" d="M131.79,358.08c-6.84,5-6.34-12.89-4.52-14.44S135,355.83,131.79,358.08Z"/><path class="cls-3" d="M31.93,303.66c-.74.41-12.35-8.15-10.78-9.15C23.78,292.82,40.7,298.75,31.93,303.66Z"/><path class="cls-3" d="M109.7,339.78c-3.3,3.36-11.5,7.7-16.29,8.66C86.47,349.8,121.51,327.84,109.7,339.78Z"/><path class="cls-3" d="M212.52,308.09c3.83-1.52,16.75-5.06,18.84-2C226.38,313.57,215.6,324.11,212.52,308.09Z"/><path class="cls-3" d="M233.57,249.34c-6-5,10.79,28.57,10.92,20.76-.05,4.42-31.7-2.9-32.66-4q3.25-5.29.38-4.3C213.29,263.56,226.54,243.4,233.57,249.34Z"/><path class="cls-3" d="M190.65,226.34c3.56-1.51,11.69,10.88,9.4,14.54-.84,1.36-7.24,1.86-8.62,2.06C183.75,244.07,191.54,226,190.65,226.34Z"/><path class="cls-3" d="M63.45,340.32c-16.31,9.13,8.69-20.06,13.68-10.48C72.8,333.48,68.45,337.53,63.45,340.32Z"/><path class="cls-3" d="M150.16,332.6C100.35,340.68,51,312.61,44,264.39,38,222,69.93,209.85,89.74,182.5c4.29-5.94,9.82,10.15,9.58,12.19,27.21-27.91,86.34,44.82,86.66,64.16.11,6.6-27.12,11.25-29.78,12.88-4.22,2.58,25.77,16.41,30,20.34C181.08,296.78,152.35,332.24,150.16,332.6Z"/><path class="cls-3" d="M192.91,292.67c1.3-1.95-11.2-8.65-10.15-11a14.52,14.52,0,0,1,1.81-2C190.77,277.67,196,288.12,192.91,292.67Z"/><path class="cls-3" d="M166.76,369c-9.33,5.23-15.8-13.15-14.43-19.33C154.62,351.12,173.67,365.15,166.76,369Z"/><path class="cls-3" d="M34,248.64a.53.53,0,0,1-.15,0A.33.33,0,0,1,34,248.64Z"/><path class="cls-3" d="M1.11,239.33a1.3,1.3,0,0,1-.34,0A.73.73,0,0,1,1.11,239.33Z"/></g><g class="cls-2"><path class="cls-3" d="M345.3,245.85c.44,2.69-5.9,23.43-7.35,24-1.8.7-2.37-2.86-2.46-2.8C334.17,269,344,237.68,345.3,245.85Z"/><path class="cls-3" d="M362.23,152.64c3.9-2.43,13.47-2,17.92-.22a12.19,12.19,0,0,1-1.7,6.4C374.69,163.9,358.25,155.09,362.23,152.64Z"/><path class="cls-3" d="M425.43,271.11c0,2.92-3.25,18.93-3.38,10.52C422,279.11,425.33,261.74,425.43,271.11Z"/><path class="cls-3" d="M439,148c-6.45.12,17.35,12.48,13.68,7,2.15,3.15-15.11,15.23-15.65,15.14q-.87-5.16-1.71-2.89C435.85,167.48,434.44,148,439,148Z"/><path class="cls-3" d="M410.71,156.76c.89-2.91,12.55.65,8.17,7.81C415,170.83,409.91,159.41,410.71,156.76Z"/><path class="cls-3" d="M405.93,296.39c-2.14,10.37-1.08-7.69-.43-11.67C406.46,278.85,406.42,294,405.93,296.39Z"/><path class="cls-3" d="M439.57,244.82c-61,109.61-98.24-62.8-89.07-62.83,5.39,0,4.75-.65,7.51,4.29-.48-30.5,55.6-19.59,64.83-6.73,3.21,4.45-11.38,27.64-3.45,27.91,6,.22,11.22-7.63,18-7.35C437.19,206.56,441.87,240.7,439.57,244.82Z"/><path class="cls-3" d="M462.47,258.56c-1.89,9.12-12.68-.15-14.56-4.26C450.57,253.73,463.72,252.49,462.47,258.56Z"/><path class="cls-3" d="M353.56,255.12l-.08,0Z"/><path class="cls-3" d="M335.49,267.05a.66.66,0,0,1-.16.17A.44.44,0,0,1,335.49,267.05Z"/></g><g class="cls-2"><path class="cls-4" d="M218.48,380.86c.43,2.69-5.91,23.43-7.35,24-1.8.7-2.38-2.87-2.47-2.8C207.35,404,217.15,372.69,218.48,380.86Z"/><path class="cls-4" d="M235.41,287.65c3.9-2.43,13.46-2,17.92-.22a12.26,12.26,0,0,1-1.7,6.39C247.86,298.9,231.43,290.09,235.41,287.65Z"/><path class="cls-4" d="M298.61,406.12c0,2.92-3.25,18.92-3.38,10.51C295.18,414.12,298.51,396.74,298.61,406.12Z"/><path class="cls-4" d="M312.19,283c-6.46.13,17.35,12.49,13.68,7.06,2.15,3.15-15.11,15.23-15.66,15.14q-.85-5.16-1.71-2.89C309,302.48,307.61,283,312.19,283Z"/><path class="cls-4" d="M283.89,291.77c.88-2.91,12.55.64,8.16,7.81C288.2,305.84,283.09,294.41,283.89,291.77Z"/><path class="cls-4" d="M279.11,431.39c-2.15,10.38-1.08-7.69-.43-11.66C279.63,413.86,279.6,429,279.11,431.39Z"/><path class="cls-4" d="M312.75,379.83c-61,109.6-98.24-62.81-89.08-62.83,5.4,0,4.75-.65,7.52,4.29-.49-30.5,55.6-19.59,64.83-6.74,3.2,4.46-11.38,27.65-3.46,27.92,6,.22,11.23-7.63,18-7.36C310.37,341.57,315.05,375.71,312.75,379.83Z"/><path class="cls-4" d="M335.64,393.57c-1.88,9.11-12.67-.16-14.55-4.27C323.74,388.74,336.9,387.49,335.64,393.57Z"/><path class="cls-4" d="M226.74,390.13a.19.19,0,0,1-.09.05A.14.14,0,0,1,226.74,390.13Z"/><path class="cls-4" d="M208.66,402.06a.61.61,0,0,1-.15.17A.52.52,0,0,1,208.66,402.06Z"/></g><g class="cls-2"><path class="cls-3" d="M172.21,128.7c.43,2.69-5.91,23.43-7.35,24-1.8.7-2.38-2.86-2.47-2.8C161.08,151.81,170.88,120.53,172.21,128.7Z"/><path class="cls-3" d="M189.14,35.49c3.9-2.43,13.47-2,17.92-.22a12.29,12.29,0,0,1-1.7,6.4C201.6,46.75,185.16,37.94,189.14,35.49Z"/><path class="cls-3" d="M252.34,154c0,2.92-3.25,18.93-3.38,10.51C248.91,162,252.24,144.59,252.34,154Z"/><path class="cls-3" d="M265.92,30.81c-6.46.12,17.35,12.48,13.68,7.05C281.75,41,264.49,53.09,263.94,53q-.85-5.16-1.71-2.89C262.76,50.33,261.34,30.88,265.92,30.81Z"/><path class="cls-3" d="M237.62,39.61c.88-2.91,12.55.65,8.16,7.81C241.93,53.68,236.82,42.26,237.62,39.61Z"/><path class="cls-3" d="M232.84,179.23c-2.15,10.38-1.08-7.68-.43-11.66C233.36,161.7,233.33,176.87,232.84,179.23Z"/><path class="cls-3" d="M266.48,127.67c-61,109.6-98.24-62.8-89.08-62.83,5.4,0,4.75-.65,7.52,4.29-.49-30.5,55.6-19.59,64.83-6.73,3.2,4.45-11.38,27.64-3.46,27.91,6,.22,11.23-7.63,18-7.35C264.1,89.41,268.78,123.55,266.48,127.67Z"/><path class="cls-3" d="M289.37,141.41c-1.88,9.11-12.67-.16-14.55-4.26C277.47,136.58,290.63,135.33,289.37,141.41Z"/><path class="cls-3" d="M180.47,138a.19.19,0,0,1-.09.05Z"/><path class="cls-3" d="M162.39,149.9a.61.61,0,0,1-.15.17A.52.52,0,0,1,162.39,149.9Z"/></g><g class="cls-2"><path class="cls-1" d="M121.58,149.05c1.11,2-2,22.57-2.74,22.86-1.66.65-3.92-2.4-4.09-2.28C112.1,173.88,114.85,137.14,121.58,149.05Z"/><path class="cls-1" d="M116.8,61.6c4.22-2.52,21.57-5.31,25.41-.64-1.73-2.09-2.5,5.05-2.07,4.42C135.75,71.75,114.64,62.89,116.8,61.6Z"/><path class="cls-1" d="M235.3,162.91c.87,2.59,1.25,17.81-1.42,10C232.55,169.1,232.26,153.83,235.3,162.91Z"/><path class="cls-1" d="M253.28,90.46c.38-2.67,4.63-15.4,7.85-9.62C265.56,88.92,263,95.29,253.28,90.46Z"/><path class="cls-1" d="M217.32,48.39c-3.75.38,23.41,7.13,20.22,4.88C241.27,55.88,221.72,69,221.19,69c-1.67-3.3-2.7-4.12-3.11-2.45C218.63,66.62,209.55,49.16,217.32,48.39Z"/><path class="cls-1" d="M182.35,59.75c.37-3.22,13.41,0,14.87,2.47.56.94-1.59,5-2,5.76C193.11,72.47,182.39,59.41,182.35,59.75Z"/><path class="cls-1" d="M246.38,137.15C230.07,173,184.28,178,151.3,159.34c-33.78-19.14-29.6-40.17-43.42-67.54-2.17-4.27,12.25.41,13.15,1.15-7.14-20.88,78.87-34.65,81.66,9.2.31,4.92,23.09-5.47,27.7-5.74C231.49,100.34,246.49,136.91,246.38,137.15Z"/><path class="cls-1" d="M280.78,147.1c.17,9-17.36.86-20.57-2.23C263.15,144.15,280.66,141,280.78,147.1Z"/><path class="cls-1" d="M135.25,156.59a.23.23,0,0,1-.1,0Z"/><path class="cls-1" d="M114.75,169.63a.61.61,0,0,1-.15.17A.36.36,0,0,1,114.75,169.63Z"/></g></svg>