<svg id="Layer_1" data-name="Layer 1" xmlns="http://www.w3.org/2000/svg" viewBox="0 0 175.97 164.65"><defs><style>.cls-1{fill:#b10e0e;}.cls-2{fill:#e90f0f;}</style></defs><title>music_note1</title><g id="Forma_1_copy" data-name="Forma 1 copy"><path class="cls-1" d="M159,.62,81.42,22.24c-9.4,2.44-17,11.37-17,19.93v74.52s-5.62-3.45-18.13-1.84C27.9,117.23,13,130.08,13,143.57s14.9,21.74,33.28,19.36,31.86-14.83,31.86-28.3V71c0-6,7.89-8.53,7.89-8.53l68.56-19.59s7.58-2.32,7.58,4.08V98.06s-7-3.66-19.49-2.28c-18.38,2-33.28,14.63-33.28,28.09s14.9,22,33.28,20S176,129.26,176,115.77V11.7C176,3.14,168.35-1.82,159,.62Z"/></g><g id="Forma_1" data-name="Forma 1"><path class="cls-2" d="M146,1.93,68.42,23.55c-9.4,2.44-17,11.37-17,19.93V118s-5.62-3.45-18.13-1.84C14.9,118.54,0,131.39,0,144.88s14.9,21.74,33.28,19.37,31.87-14.84,31.87-28.31V72.3c0-6,7.88-8.53,7.88-8.53l68.56-19.59s7.58-2.31,7.58,4.08V99.37s-7-3.66-19.49-2.28c-18.37,2-33.28,14.63-33.28,28.09s14.91,22,33.28,20,33.3-14.61,33.3-28.1V13C163,4.45,155.35-.51,146,1.93Z"/></g></svg>