<svg id="Layer_1" data-name="Layer 1" xmlns="http://www.w3.org/2000/svg" viewBox="0 0 142.06 207.55"><defs><style>.cls-1{fill:#e90f0f;}</style></defs><title>music_note3</title><path class="cls-1" d="M60.33,149.59c-4-4-9.61-5.85-15.08-6.59a50.74,50.74,0,0,0-18.45,1.13c-8.89,2.15-17.69,7-22.95,14.89A23.2,23.2,0,0,0,.23,169.94c-.78,7.6.38,15.52,4.36,22.13A30.47,30.47,0,0,0,18.2,204c6.28,2.85,13.13,3.5,20,3.56,17.12.16,36.58-11.64,40.56-29.26a16.74,16.74,0,0,0,.4-3.74V100.63c0-3.7.1-7.41-.18-11.1-.12-1.67-.55-4.71,1.4-5.54a4.91,4.91,0,0,1,3.34.24A18.48,18.48,0,0,1,88.83,87c10.88,8.24,24.38,21.59,26.64,35.89.62,3.93-2.31,5.14-4,8.14-2.86,5.22,1.93,12.45,7.86,11.46,5.63-.95,9.38-7.13,12-11.64,12.22-21.05,15.16-48.08,2.51-69.51-3.69-6.27-9.66-10.63-15.43-14.83-7.37-5.38-15.3-10.1-22.56-15.54a51.88,51.88,0,0,1-15.14-18.5,35,35,0,0,1-2-5.13,17.69,17.69,0,0,0-1.61-4.08C75.33.4,71.92-.51,68.76.26c-7.71,1.89-6,8.62-6,15.11V35.45l0,25.83,0,28.22,0,26.58v32.4l-2.46,1.13Z"/></svg>