<svg id="Layer_1" data-name="Layer 1" xmlns="http://www.w3.org/2000/svg" viewBox="0 0 142.06 207.55"><defs><style>.cls-1{fill:#f9c25a;}</style></defs><title>music_note4</title><path class="cls-1" d="M45.25,143a50.74,50.74,0,0,0-18.45,1.13c-8.89,2.15-17.69,7-22.95,14.89A23.2,23.2,0,0,0,.23,169.94c-.78,7.6.38,15.52,4.36,22.13A30.47,30.47,0,0,0,18.2,204c6.28,2.85,13.13,3.5,20,3.56,17.81.17,38.15-12.61,41-31.42v-75.5c0-3.7.1-7.41-.18-11.1-.12-1.67-.55-4.71,1.4-5.54,1.76-.75,4.22.72,5.19.86a1.72,1.72,0,0,1,.7.24c11.21,8,26.8,22.34,29.24,37.81.62,3.93-2.31,5.14-4,8.14-2.86,5.22,1.93,12.45,7.86,11.46,5.63-.95,9.38-7.13,12-11.64,12.22-21.05,15.16-48.08,2.51-69.51-3.69-6.27-9.66-10.63-15.43-14.83-7.37-5.38-15.3-10.1-22.56-15.54a51.88,51.88,0,0,1-15.14-18.5,35,35,0,0,1-2-5.13,17.69,17.69,0,0,0-1.61-4.08C75.33.4,71.92-.51,68.76.26c-7.71,1.89-6,8.62-6,15.11V35.45l0,25.83,0,28.22,0,26.58v32.4l-2.46,1.13C56.35,145.64,50.73,143.74,45.25,143Z"/></svg>