<svg id="Layer_1" data-name="Layer 1" xmlns="http://www.w3.org/2000/svg" viewBox="0 0 207.77 214.21"><defs><style>.cls-1{fill:#16a5a1;}.cls-2{fill:#10e8e8;}</style></defs><title>music_note2</title><g id="Forma_1_copy" data-name="Forma 1 copy"><path class="cls-1" d="M153.13,149.42c-14.77-2.1-21.41,2.39-21.41,2.39V54.86c0-11.14-9-22.75-20.08-25.93L20.09.81C9-2.37,0,4.09,0,15.22v135.4c0,17.55,17.59,33.91,39.31,36.55s39.3-8.47,39.3-26-17.6-33.9-39.3-36.54c-14.77-1.8-23,3-23,3V61.08c0-8.32,8.94-5.3,8.94-5.3l81,25.47s9.31,3.34,9.31,11.11v82.79c0,17.53,15.91,33.74,37.62,36.82s39.29-7.66,39.29-25.19S174.83,152.52,153.13,149.42Z"/></g><g id="Forma_1" data-name="Forma 1"><path class="cls-2" d="M168.48,151.13c-14.77-2.1-21.41,2.39-21.41,2.39v-97c0-11.14-9-22.76-20.08-25.94L35.44,2.51C24.35-.66,15.36,5.79,15.35,16.93V152.32c0,17.55,17.59,33.91,39.31,36.56S94,180.41,94,162.86,76.35,129,54.66,126.32c-14.78-1.81-23,3-23,3V62.79c0-8.32,9-5.31,9-5.31l81,25.48s9.32,3.33,9.32,11.11v82.78c0,17.54,15.91,33.74,37.62,36.83s39.29-7.66,39.29-25.19S190.18,154.22,168.48,151.13Z"/></g></svg>