<svg id="Layer_1" data-name="Layer 1" xmlns="http://www.w3.org/2000/svg" viewBox="0 0 50 50"><defs><style>.cls-1{fill:#c1c1c1;}.cls-2{fill:#77401b;stroke:#070707;stroke-width:0.51px;}.cls-2,.cls-8{stroke-miterlimit:10;}.cls-3{fill:#f8c946;}.cls-4{fill:#020202;}.cls-5,.cls-8,.cls-9{fill:#282828;}.cls-6{fill:#151616;}.cls-7{fill:#4d4d4d;}.cls-8,.cls-9{stroke:#151616;stroke-width:0.41px;}.cls-9{stroke-linejoin:round;}</style></defs><title>note_pointer</title><ellipse class="cls-1" cx="28.67" cy="45.77" rx="5.63" ry="3.92"/><path class="cls-2" d="M20.61,37.67l-2.35-8.35a11,11,0,0,1,5.49-10.94,10.23,10.23,0,0,1,4.84-1.19h0a10.43,10.43,0,0,1,6.8,2.51C38,22,39.48,27.54,39.1,31L36.57,37.2a7,7,0,0,1-2.2,4c-3.8,3-7.67,3.25-11.39.52C21.66,40.77,21.14,39.26,20.61,37.67Z"/><path class="cls-3" d="M28.61,45.91a8.62,8.62,0,0,1-5.13-1.85c-1.28-.93-1.78-2.45-2.27-3.93l-2.34-8.67a10.17,10.17,0,1,1,20.19-.14l-2.37,8.35h0c-.6,2.45-1.5,3.38-2.12,3.87A9.74,9.74,0,0,1,28.61,45.91Z"/><path class="cls-4" d="M29,20.23a10,10,0,0,1,6.46,2.39,9.79,9.79,0,0,1,2.77,3.92,10,10,0,0,1,.63,4.73L36.44,39.6v0a9.87,9.87,0,0,1-.74,2.09,4.69,4.69,0,0,1-1.29,1.64,9.42,9.42,0,0,1-5.8,2.3,8.41,8.41,0,0,1-5-1.79,7.26,7.26,0,0,1-2.18-3.8l-2.33-8.65a10.07,10.07,0,0,1,1-5.83A9.85,9.85,0,0,1,29,20.23m0-.51h0a10.32,10.32,0,0,0-4.84,1.2,10.46,10.46,0,0,0-5.49,10.59L21,40.21c.52,1.58,1,3.1,2.36,4.06a8.9,8.9,0,0,0,5.28,1.89,9.91,9.91,0,0,0,6.11-2.41,7,7,0,0,0,2.21-4l2.38-8.37A10.43,10.43,0,0,0,29,19.73Z"/><path class="cls-5" d="M11,27.06c-.92,0-2.18-.07-2.6-.61a7.12,7.12,0,0,1-1.37-4.16A5.63,5.63,0,0,1,8.39,18.4,2.16,2.16,0,0,1,10,17.93c3.08,0,8.74,2.65,9.79,4a.42.42,0,0,1,.07.13l.28,1.2c-.18.18-.59.59-1,1.08a4.8,4.8,0,0,0-1.24,2.17c0,.17-.06.38-.18.38h0c-.39,0-.8,0-1.26,0-.95,0-1.95,0-2.91.11S11.77,27.06,11,27.06Z"/><path class="cls-6" d="M10,18.16a15.87,15.87,0,0,1,5.58,1.48,12.81,12.81,0,0,1,4,2.43s0,0,0,.05h0l.25,1.07c-.21.2-.57.57-.94,1a4.74,4.74,0,0,0-1.29,2.29l0,.17c-.37,0-.76,0-1.19,0-1,0-2,.05-2.93.11s-1.72.1-2.46.1c-.5,0-2,0-2.42-.52a6.89,6.89,0,0,1-1.32-4,6.62,6.62,0,0,1,.31-2.07,4.47,4.47,0,0,1,1-1.66A2,2,0,0,1,10,18.16h0m0-.46a2.35,2.35,0,0,0-1.74.54c-1.93,2-1.81,6,0,8.35.42.54,1.45.69,2.78.69,1.57,0,3.55-.21,5.39-.21.42,0,.83,0,1.23,0h0c.28,0,.38-.28.41-.58.13-1.18,2.29-3.2,2.29-3.2L20.05,22h0a.55.55,0,0,0-.1-.22c-1.1-1.42-6.83-4.09-10-4.09Z"/><path class="cls-7" d="M18,28.19l-1.74-.11c-3-.17-6.83-.39-7.64-1.43a6.17,6.17,0,0,1-1-3.25,4.86,4.86,0,0,1,1.15-3.66,2.11,2.11,0,0,1,1.55-.45c3.08,0,8.73,2.63,9.78,4a.31.31,0,0,1,.06.21,11.36,11.36,0,0,0-2,4.35c0,.11-.05.35-.16.35Z"/><path class="cls-6" d="M10.28,19.54A16,16,0,0,1,15.84,21a12.8,12.8,0,0,1,4,2.41,11.48,11.48,0,0,0-2,4.38s0,.09,0,.13l-1.62-.1c-1.66-.09-3.36-.19-4.78-.41-1.84-.28-2.48-.66-2.68-.93a4.43,4.43,0,0,1-.64-1.29,7.48,7.48,0,0,1-.32-1.81A5.72,5.72,0,0,1,8,21.5a3.76,3.76,0,0,1,.88-1.58,1.9,1.9,0,0,1,1.37-.38m0-.5a2.35,2.35,0,0,0-1.74.53c-1.93,2-1.26,5.8-.16,7.23s6,1.4,9.57,1.64h0c.28,0,.38-.27.41-.58a11.31,11.31,0,0,1,1.94-4.24.45.45,0,0,0-.08-.5c-1.1-1.42-6.82-4.09-10-4.09Z"/><path class="cls-8" d="M21.73,20.31a10.15,10.15,0,0,1,4.5-2.1.44.44,0,0,0,.33-.38C26.6,16.48,25.7,2,23.22,1c-6-2.53-8.72,3-8.63,4.69.27,4.86,3.83,10.74,5.43,14.27a1.1,1.1,0,0,0,1.45.55A1.17,1.17,0,0,0,21.73,20.31Z"/><path class="cls-7" d="M21.48,21.76a.86.86,0,0,1-.78-.5c-.35-.79-.81-1.71-1.3-2.68-1.73-3.46-3.89-7.77-4.1-11.49a5.44,5.44,0,0,1,1.6-3.4A5.17,5.17,0,0,1,20.73,2a7.4,7.4,0,0,1,2.85.63c.54.23,1.57,1.59,2.46,8.12a81.65,81.65,0,0,1,.72,8.49.19.19,0,0,1-.14.15A10.52,10.52,0,0,0,22,21.56a.82.82,0,0,1-.54.2Z"/><path class="cls-6" d="M20.73,2.26a7.1,7.1,0,0,1,2.75.62c.15.06.68.43,1.28,2.55a40.74,40.74,0,0,1,1,5.36c.5,3.71.72,7.51.72,8.38a10.65,10.65,0,0,0-4.65,2.19.54.54,0,0,1-.38.14.58.58,0,0,1-.55-.34c-.36-.8-.82-1.72-1.3-2.69C17.9,15,15.76,10.74,15.55,7.07a5.33,5.33,0,0,1,1.53-3.21,5,5,0,0,1,3.65-1.6m0-.51A5.93,5.93,0,0,0,15.05,7.1c.27,4.85,3.83,10.73,5.42,14.26a1.1,1.1,0,0,0,1.46.55,1,1,0,0,0,.26-.16,10.05,10.05,0,0,1,4.49-2.1.44.44,0,0,0,.33-.38c0-1.35-.85-15.82-3.33-16.86a7.63,7.63,0,0,0-2.95-.66Z"/><path class="cls-5" d="M33.73,18.52c-.21-.07-.41-.16-.65-.26a9.08,9.08,0,0,0-4-.82h-.35c-.5,0-.51-.16-.51-.24-.07-1.66-.13-2.66-.17-3.39a16.52,16.52,0,0,1,0-2.72c.09-1.39,2.14-2.21,4.07-2.21,1.5,0,3.34.5,4,1.94.92,2,.16,3.9-.45,5.43l-.22.55A10.31,10.31,0,0,1,33.73,18.52Z"/><path class="cls-6" d="M32.11,9.13a5.65,5.65,0,0,1,2.32.45,2.81,2.81,0,0,1,1.45,1.34c.87,1.9.13,3.75-.46,5.24-.07.18-.14.34-.2.51s-.38.45-.7.8a7,7,0,0,1-.82.77L33.18,18a9.23,9.23,0,0,0-4.09-.85h-.35a1.07,1.07,0,0,1-.25,0c-.08-1.64-.14-2.64-.18-3.36a17.46,17.46,0,0,1,0-2.7c0-.37.24-.91,1.13-1.38a6.09,6.09,0,0,1,2.69-.59m0-.51c-2.13,0-4.23.92-4.32,2.45-.12,1.87,0,1.54.19,6.14,0,.39.37.48.76.48h.35a10.4,10.4,0,0,1,4.59,1.08h0c.41,0,1.94-1.83,2-1.86.6-1.6,1.75-3.85.67-6.21-.67-1.45-2.46-2.09-4.23-2.09Z"/><path class="cls-7" d="M33.81,20h-.05c-.21-.07-.43-.16-.68-.27a9.23,9.23,0,0,0-4-.82h-.35c-.5,0-.51-.16-.51-.24-.07-1.66-.13-2.66-.17-3.39a16.51,16.51,0,0,1,0-2.72c.09-1.38,2.14-2.21,4.07-2.21,1.5,0,3.34.5,4,1.94.78,1.7-.55,4.36-1.43,6.11-.29.56-.53,1.05-.68,1.43C34,19.86,33.9,20,33.81,20Z"/><path class="cls-6" d="M32.11,10.59a5.65,5.65,0,0,1,2.32.46,2.74,2.74,0,0,1,1.45,1.34c.73,1.59-.57,4.18-1.43,5.89-.28.56-.53,1-.68,1.44h0a6.13,6.13,0,0,1-.59-.24,9.4,9.4,0,0,0-4.09-.84h-.35a.72.72,0,0,1-.25,0c-.07-1.64-.13-2.63-.18-3.36a16.14,16.14,0,0,1,0-2.69c0-.37.23-.92,1.12-1.38a6,6,0,0,1,2.69-.6m0-.5c-2.13,0-4.22.92-4.32,2.45-.12,1.86,0,1.53.19,6.13,0,.39.38.49.76.49h.35a10.64,10.64,0,0,1,4.6,1.08.25.25,0,0,0,.12,0c.28,0,.42-.31.43-.33.6-1.61,3.18-5.39,2.1-7.75-.67-1.45-2.46-2.08-4.23-2.08Z"/><path class="cls-9" d="M34.94,20.88s2.58,1.49,3,2.39c.24.52.92.23.95.21a11.18,11.18,0,0,0,3.86-3.16,2,2,0,0,0,.32-1.62c-.69-2.91-4.24-4.55-6.08-3.37a22.38,22.38,0,0,0-2.06,4.07Z"/><path class="cls-7" d="M38.5,24.34a.27.27,0,0,1-.28-.17,7.92,7.92,0,0,0-2.77-3.06c-.34-.25-.32-.43-.24-.58s.29-.62.47-1.05a14.55,14.55,0,0,1,1.54-2.95,2.41,2.41,0,0,1,1.26-.32,4.51,4.51,0,0,1,2.66,1,4.63,4.63,0,0,1,1.74,2.58,1.77,1.77,0,0,1-.28,1.41A9.58,9.58,0,0,1,39.32,24l-.5.3a1.14,1.14,0,0,1-.32.07Z"/><path class="cls-6" d="M38.48,16.46a4.57,4.57,0,0,1,4.15,3.37,1.46,1.46,0,0,1-.24,1.2,9.33,9.33,0,0,1-3.2,2.72l-.48.29a.52.52,0,0,1-.21,0h0a7.87,7.87,0,0,0-2.85-3.16c-.13-.1-.17-.16-.18-.19s0,0,0-.08c.13-.26.29-.63.47-1.06a15.14,15.14,0,0,1,1.47-2.85,2.16,2.16,0,0,1,1.1-.27m0-.51a2.64,2.64,0,0,0-1.43.39A23,23,0,0,0,35,20.41c-.2.4,0,.69.32.91a7.54,7.54,0,0,1,2.69,3,.53.53,0,0,0,.51.31,1.34,1.34,0,0,0,.44-.1,11.18,11.18,0,0,0,3.86-3.16,2,2,0,0,0,.32-1.62A5.08,5.08,0,0,0,38.48,16Z"/><circle class="cls-7" cx="28.96" cy="31.35" r="3.33"/><path class="cls-6" d="M29,28.28a3.08,3.08,0,1,1-3.08,3.07h0A3.07,3.07,0,0,1,29,28.28m0-.51a3.58,3.58,0,1,0,3.58,3.58h0A3.58,3.58,0,0,0,29,27.77Z"/></svg>