<svg id="Layer_1" data-name="Layer 1" xmlns="http://www.w3.org/2000/svg" viewBox="0 0 647.73 566.53"><defs><style>.cls-1{fill:#cc001b;}.cls-2{opacity:0.56;}.cls-3{fill:#f500bf;}.cls-4{fill:#b100f2;}</style></defs><title>red_ink</title><path class="cls-1" d="M537.43,112.85c4.66,12.33-8.73,25-15.74,9.5C523.38,126.19,537.31,112.86,537.43,112.85Z"/><path class="cls-1" d="M512.77,46.34c-.44,2.72,6.92-21.75,10.68-12.05C527.43,44.68,508.74,70.93,512.77,46.34Z"/><path class="cls-1" d="M349.38,62.7c-6.92.61-59.37-30.39-60.11-34.16C282.93-4,378.8,60.08,349.38,62.7Z"/><path class="cls-1" d="M415,24.33c-6.58-1.32.51-23.67-.29-24.2C423.38,6.3,419.77,16.83,415,24.33Z"/><path class="cls-1" d="M634.74,194.7c8.7,0,16.23,22.82,12.1,28.06C634.92,219.45,605.57,194.57,634.74,194.7Z"/><path class="cls-1" d="M422.07,63.94c7.88-15.38,15.5,17.44,6.47,19.28C426.23,83.66,420.68,66.69,422.07,63.94Z"/><path class="cls-1" d="M586.37,154.27c3.89,11.11,4.7,61.47-10,65.89C550,228.21,578.56,131.74,586.37,154.27Z"/><path class="cls-1" d="M269,148.17c.24,5.43,8.57-18.73,5.19-15.54,2.45,1.5,9.6.78,10.88,4C288.63,145.53,269.86,166.53,269,148.17Z"/><path class="cls-1" d="M338.67,108c-1.77.78-19.24-13-19.24-13.64,0-1.65,3.51-5.1,3.42-5.58C320.73,84.48,356.19,100,338.67,108Z"/><path class="cls-1" d="M568.53,284.63c12.52-1.11-4.08,25.59-23.65,13.13C545.2,286.72,558.92,285.45,568.53,284.63Z"/><path class="cls-1" d="M256,399.37c-20.78-6,21-28.33,22.39-25.77C275,379,264,401.74,256,399.37Z"/><path class="cls-1" d="M224,158.18c-1.49-.63-1.72-31.8,2.28-30.38C232.54,130,244,166.63,224,158.18Z"/><path class="cls-1" d="M259.84,337.72c-9.89-1.13-28.09-9.29-35.86-16.11C214.05,312.81,294.77,341.79,259.84,337.72Z"/><path class="cls-1" d="M446.08,469.82c7.57,4.48,30.11,21.84,27.54,29.19C453.94,500.55,422.14,496.09,446.08,469.82Z"/><path class="cls-1" d="M561.17,324.46c11.92,6.73-19.76,60.86-29.58,13.54C534.8,335.72,562.06,325,561.17,324.46Z"/><path class="cls-1" d="M374.58,457.5c3.84-6.34-3.42-22.29-.21-25.79.35-.38,1.07.15,1.6-.4C386.57,420.55,365.49,472.28,374.58,457.5Z"/><path class="cls-1" d="M398.9,426.34c5,2.12,13.13,16.53,8.89,22C396.9,462.72,392,423.45,398.9,426.34Z"/><path class="cls-1" d="M200,260.13c-6.45-2.73-7.22-8-7.89-13.58-.18-1.54,46.91,16.16,43.63,22.84C223.93,266.88,211.34,264.9,200,260.13Z"/><path class="cls-1" d="M323.89,396.7c-25.07-23.81-20.31-54.25-30.88-76.24-13.7-28.47-33.82-43.69-40.08-78.17-11-60.84,33.25-82.39,64.82-113-6.17,6,56.11-48.27,49.48-46.17,39.15-12.4,26.48,14.91,49.62,16.18,37.84,2.08,57.14-2.44,92.54-3.75,15.56-.61-5.5,30.22-9.12,32.37,70.59,7.7,35.54,105.68,26.54,132.49-3.86,11.49-19.57,89.11-26.71,92.54-10.38,5-68.79-25.43-69.8-24.12-4.95,6.41,12,60.91,10.34,75.28-30.16-5.11-48.1-11-70.85-11.35C347.55,392.38,347.6,419.27,323.89,396.7Z"/><path class="cls-1" d="M448.09,416.17c4.16-.31,1.45-29.06,2.27-30.89C471.7,385.36,467.13,414.76,448.09,416.17Z"/><path class="cls-1" d="M281.35,473.06c-21.46-9.07,3.24-44.35,15.44-50.06C297.21,429.08,297,479.67,281.35,473.06Z"/><path class="cls-1" d="M322.85,88.79a.76.76,0,0,1-.1-.31A.94.94,0,0,1,322.85,88.79Z"/><path class="cls-1" d="M297.27,20.77a2.57,2.57,0,0,1-.39-.6A1.61,1.61,0,0,1,297.27,20.77Z"/><g class="cls-2"><path class="cls-1" d="M230.08,309.39c-2,2.91-32.72,13.11-33.66,12.29C181.75,308.92,240.39,294,230.08,309.39Z"/><path class="cls-1" d="M379.51,237.49c3.31-4.2,13.81,3.56,14.05,7.07C386.43,249.76,369.42,250.12,379.51,237.49Z"/><path class="cls-1" d="M348,241.55c6.43,3.95,22.74,25.73,19,34.27C360.87,289.85,337,234.76,348,241.55Z"/><path class="cls-1" d="M230.12,384.86c-.39-.46-3.8-15.71,1.9-12.59C236.37,374.66,236.85,392.9,230.12,384.86Z"/><path class="cls-1" d="M241.73,334.73c-2.17,6.77-12.38-1.37-12.37-1.37C226.62,332.18,245.37,323,241.73,334.73Z"/><path class="cls-1" d="M386.24,308.47c3.14-4.68,7.74,13.27-4.12,16.8C378.42,320.11,383,313.25,386.24,308.47Z"/><path class="cls-1" d="M311.62,504c-9.2,6.55-2.31-22.55-.69-21.91C311.57,486.28,315.71,501.14,311.62,504Z"/><path class="cls-1" d="M217.14,410.09c-.15.07-12.45-13-9.61-14.73C210.11,393.76,228.22,404.22,217.14,410.09Z"/><path class="cls-1" d="M291.86,474.46c-3.47,3.51-13.45,8.75-18.62,9.25C263.88,484.56,308.08,458.12,291.86,474.46Z"/><path class="cls-1" d="M405.17,448.23c4.59-1.57,18.71-3.38,20.07.47C418.05,459.25,405.45,470.06,405.17,448.23Z"/><path class="cls-1" d="M437.91,369.62c-3.34-5.08,6.74,37.24,7.63,31-1,6.89-33.05-10.55-33.42-11.32q5-6.88,1.18-6C413.58,384.26,431.32,359.55,437.91,369.62Z"/><path class="cls-1" d="M397.24,329.8c6.54-2.42,14,36.78-6.15,19.71C391.47,347.08,397.08,329.85,397.24,329.8Z"/><path class="cls-1" d="M374.86,475.59c-.45-2.67-8.49-13.23-7.69-12.62C376.4,470.32,374.41,472.82,374.86,475.59Z"/><path class="cls-1" d="M243.4,467c-18.29,9.68,13-25.37,16.22-12.28C254.51,459,249.35,463.89,243.4,467Z"/><path class="cls-1" d="M335.48,471.54c-15.32.72-73.41-28.77-77.27-33.57-21.28-26.5-20.2-47.43-21.23-80.76-1.79-57.62,36.4-71,62.75-106.67,4.46-6.07,8.18,17,7.79,18.77,34.39-35.15,81.25,85.25,78.89,105.23-1.06,9.08-30.17,10.83-33.49,12.78-6.54,3.83,24,27.7,27.7,33.82C375.87,425.45,336,471.52,335.48,471.54Z"/><path class="cls-1" d="M387.48,423.15c2.66-3.88-9.12-12.55-9.78-15,.64-.81,2-4.41,3.43-4.73C389.52,401.38,390.24,419.12,387.48,423.15Z"/><path class="cls-1" d="M346.18,525.51c-12.32,6.52-13.57-23-11.56-29.65C337.68,499.32,354.52,521.09,346.18,525.51Z"/><path class="cls-1" d="M229.36,333.36a.44.44,0,0,1-.15-.1A.31.31,0,0,1,229.36,333.36Z"/><path class="cls-1" d="M196.67,314.5a1.06,1.06,0,0,1-.35-.09A.56.56,0,0,1,196.67,314.5Z"/></g><g class="cls-2"><path class="cls-3" d="M304.81,38.9c-5-.49-25-19.69-23.58-22.32q3.34,1.19,3.32-.67C281.93,11.59,318,40.21,304.81,38.9Z"/><path class="cls-3" d="M422.65,121.52c4.18.78,6.78,14.91,1.12,12.73S411.82,119.43,422.65,121.52Z"/><path class="cls-3" d="M404,99.51c.93,5.16-2.27,27.68-9.09,28.4C382.38,129.29,402.06,88.9,404,99.51Z"/><path class="cls-3" d="M239.49,180.47c-7.38-3.69,8.38-11.14,10.57-10.26C252.08,171,242.87,182.18,239.49,180.47Z"/><path class="cls-3" d="M242.24,70.73c-2-1.31,3.2-16.8,4.38-11.43C247.2,61.89,250.12,75.87,242.24,70.73Z"/><path class="cls-3" d="M245.56,153.43c-4.4-1.36-11.84-6.46-14.85-10.17C226.43,137.92,261.25,158.3,245.56,153.43Z"/><path class="cls-3" d="M319.23,227.74c3,2.6,11.91,12.18,10.21,15.28C320.77,242.07,306.6,237.48,319.23,227.74Z"/><path class="cls-3" d="M379.9,219.92c1.73-7.45-20.1,21.87-13.22,18.53-3.93,1.93-11.65-28.53-11.17-29.78,4.06.3,5.36-.22,3.92-1.58C358.45,208.71,381.93,211.25,379.9,219.92Z"/><path class="cls-3" d="M380.74,172.92c2.93,2.42-4.3,14.84-8.48,14.49-1.55-.12-4.85-5.39-5.66-6.49C362.2,174.85,381.43,173.49,380.74,172.92Z"/><path class="cls-3" d="M224.38,114c-15.22-10,21.36-1.34,15.27,7.13C234.54,119,229.06,117,224.38,114Z"/><path class="cls-3" d="M269.94,185c-29-38.71-27.42-94.68,12-121.18,34.92-23.5,58.65-1.89,91.88,3.14,7.07,1.05-4.48,12.91-6.35,13.6,36.49,11-.45,93.91-17.15,102.69-5.75,3-21.88-18.28-24.57-19.9-4.22-2.53-2.77,29.36-4.28,34.77C315.05,195.77,271.31,186.83,269.94,185Z"/><path class="cls-3" d="M323.9,204.1c3.37.39,1.22-19.37,7.61-12.89C336.07,195.71,329.15,204.7,323.9,204.1Z"/><path class="cls-3" d="M245.61,215.31c-8.79-5.75,4.45-19.38,10.4-20.92C255.78,197.07,252.09,219.55,245.61,215.31Z"/><path class="cls-3" d="M291.15,48.25a.61.61,0,0,1,0-.15A.27.27,0,0,1,291.15,48.25Z"/><path class="cls-3" d="M284.55,15.91a1.3,1.3,0,0,1-.13-.3A.76.76,0,0,1,284.55,15.91Z"/></g><g class="cls-2"><path class="cls-3" d="M433,314.32c-3.06,2.22-24.43,4.61-24.66,3,1.89-.67,2.48-1.35,1.78-2C408,315,439.33,309.7,433,314.32Z"/><path class="cls-3" d="M521.83,287.77c3.31,2,10.34,13.5,6.94,16.86,1.19-1.17-5.56-.29-5.06-.21C517.65,303.44,517.86,285.4,521.83,287.77Z"/><path class="cls-3" d="M446.8,394.26c-2.53,1.32-17.95,5.55-10.68,1.73C438.26,394.87,454.91,390.06,446.8,394.26Z"/><path class="cls-3" d="M560.29,351.63c-3-5.6-3.18,20.51,0,14.86-1.78,3.23-20-6.23-20.22-6.77,2.73-2,3.32-2.92,1.75-2.74C541.86,357.54,558.18,347.74,560.29,351.63Z"/><path class="cls-3" d="M539.94,331.22c4.47-.8,3.73,13.09-2.12,10.9C532.33,340.1,533.69,332.34,539.94,331.22Z"/><path class="cls-3" d="M476.07,394.81c-122.7-4,10.63-112.33,14.91-104.18,2.42,4.65,2.7,3.78-.38,8.35,26.22-13.78,42.09,38.88,34.9,52.69-2.63,5.08-20.43,3.36-24.19,4.51-4.66,1.42,11.17,13.63,12.77,17C508.28,376,480.81,395,476.07,394.81Z"/><path class="cls-3" d="M474.33,420.53c-10.76,2.94-1.62-7.33-3.1-13.09C471.54,404.67,480.9,418.74,474.33,420.53Z"/><path class="cls-3" d="M428.57,325.5l-.08-.05A.12.12,0,0,1,428.57,325.5Z"/><path class="cls-3" d="M410.08,315.24a.79.79,0,0,1-.22-.06A.58.58,0,0,1,410.08,315.24Z"/></g><g class="cls-2"><path class="cls-4" d="M258.43,264.94c-3.05,2.21-24.42,4.61-24.65,2.95,1.88-.67,2.48-1.35,1.77-2C233.43,265.58,264.8,260.31,258.43,264.94Z"/><path class="cls-4" d="M347.31,238.38c3.31,2,10.34,13.5,6.94,16.87,1.18-1.18-5.57-.29-5.06-.21C343.12,254.05,343.34,236,347.31,238.38Z"/><path class="cls-4" d="M272.28,344.88c-2.53,1.32-17.95,5.55-10.68,1.73C263.73,345.48,280.39,340.67,272.28,344.88Z"/><path class="cls-4" d="M385.77,302.25c-3.06-5.6-3.18,20.51,0,14.85-1.78,3.23-20-6.23-20.21-6.76q4.1-3,1.75-2.74C367.33,308.15,383.66,298.36,385.77,302.25Z"/><path class="cls-4" d="M365.42,281.83c4.47-.8,3.73,13.09-2.12,10.9C357.81,290.71,359.17,283,365.42,281.83Z"/><path class="cls-4" d="M301.55,345.43c-122.7-4,10.63-112.33,14.91-104.18,2.41,4.65,2.7,3.78-.38,8.34,26.22-13.77,42.09,38.89,34.9,52.7-2.64,5.07-20.43,3.36-24.19,4.51-4.66,1.42,11.16,13.63,12.76,17C333.76,326.56,306.29,345.59,301.55,345.43Z"/><path class="cls-4" d="M299.81,371.15c-10.76,2.93-1.62-7.33-3.1-13.09C297,355.29,306.37,369.35,299.81,371.15Z"/><path class="cls-4" d="M254.05,276.12l-.08-.05A.14.14,0,0,1,254.05,276.12Z"/><path class="cls-4" d="M235.55,265.86a.65.65,0,0,1-.21-.06A.37.37,0,0,1,235.55,265.86Z"/></g><g class="cls-2"><path class="cls-3" d="M457.63,114.05c-3.05,2.22-24.43,4.61-24.66,3,1.89-.67,2.48-1.35,1.78-2C432.63,114.7,464,109.43,457.63,114.05Z"/><path class="cls-3" d="M546.5,87.5c3.31,2,10.34,13.5,7,16.87,1.18-1.18-5.57-.3-5.07-.22C542.32,103.17,542.53,85.13,546.5,87.5Z"/><path class="cls-3" d="M471.48,194c-2.54,1.32-18,5.56-10.68,1.73C462.93,194.6,479.58,189.79,471.48,194Z"/><path class="cls-3" d="M585,151.36c-3.05-5.59-3.18,20.51,0,14.86-1.78,3.23-20-6.23-20.21-6.77,2.72-2,3.31-2.92,1.75-2.74C566.53,157.27,582.85,147.47,585,151.36Z"/><path class="cls-3" d="M564.61,131c4.47-.8,3.74,13.09-2.12,10.9C557,139.83,558.36,132.07,564.61,131Z"/><path class="cls-3" d="M500.74,194.55c-122.7-4,10.63-112.34,14.91-104.19,2.42,4.65,2.7,3.78-.38,8.35,26.22-13.78,42.1,38.88,34.9,52.69-2.63,5.08-20.43,3.36-24.19,4.51-4.66,1.42,11.17,13.63,12.77,17C533,175.68,505.49,194.71,500.74,194.55Z"/><path class="cls-3" d="M499,220.26c-10.75,2.94-1.62-7.33-3.09-13.09C496.21,204.4,505.57,218.47,499,220.26Z"/><path class="cls-3" d="M453.24,125.23a.25.25,0,0,1-.08,0A.12.12,0,0,1,453.24,125.23Z"/><path class="cls-3" d="M434.75,115a.79.79,0,0,1-.22-.06A.53.53,0,0,1,434.75,115Z"/></g><g class="cls-2"><path class="cls-1" d="M417.22,79.55c-1.23,1.83-20.57,8.24-21.16,7.72-1.33-1.15.33-4.42.16-4.51C391.39,82.36,424.53,68.61,417.22,79.55Z"/><path class="cls-1" d="M491.34,36.9c4,2.48,14.29,16.17,11.94,21.54,1-2.39-5.5.08-4.79.16C491.05,57.65,489.19,35.57,491.34,36.9Z"/><path class="cls-1" d="M547.87,117.39c-2.1-3.19,4.24,23.42,4.8,19.51-.61,4.33-20.78-6.63-21-7.12q3.18-4.32.74-3.75C532.57,126.6,543.72,111.07,547.87,117.39Z"/><path class="cls-1" d="M522.3,92.37c3-1.1,6.06,11.47,4.51,13.85-.58.91-5.06.84-5.9.86C516,107.21,522.63,92.24,522.3,92.37Z"/><path class="cls-1" d="M483.47,181.46c-38.3,1.81-63.45-35-61.92-71.86,1.56-37.49,21.84-43.2,39.46-67,2.8-3.82,5.14,10.69,4.89,11.8,21.9-22.38,51,54.18,49.59,66.14-.66,5.7-19,6.81-21.05,8-4.11,2.4,15.11,17.41,17.41,21.25C508.86,152.49,483.81,181.45,483.47,181.46Z"/><path class="cls-1" d="M490.2,215.38c-7.75,4.1-8.54-14.46-7.27-18.63C484.85,198.92,495.44,212.61,490.2,215.38Z"/><path class="cls-1" d="M416.76,94.61a.24.24,0,0,1-.09-.06A.2.2,0,0,1,416.76,94.61Z"/><path class="cls-1" d="M396.22,82.76a.86.86,0,0,1-.23-.06A.52.52,0,0,1,396.22,82.76Z"/></g><path class="cls-1" d="M184.1,141.74c13.07,1.52,18.68,19.08,1.39,18.13C189.66,160.14,184.1,141.72,184.1,141.74Z"/><path class="cls-1" d="M112.74,133c2.41,1.75-16.44-16-6-14.85C117.9,119.36,133.22,147.8,112.74,133Z"/><path class="cls-1" d="M48.21,208.51c-4.27,5.25-21-11.33-22-10.8C35.71,193,43.56,200.89,48.21,208.51Z"/><path class="cls-1" d="M302.49,93.88c4-7.73,28.05-3.74,30.88,2.22C325.05,104.91,289,119.5,302.49,93.88Z"/><path class="cls-1" d="M87.21,220.44c-10.34-14,22.83-5.58,20.38,3.14C106.93,225.81,89.06,222.9,87.21,220.44Z"/><path class="cls-1" d="M243.87,117.79c11.6,1.64,57.72,23.78,55,38.84C294.09,183.41,220.22,114.38,243.87,117.79Z"/><path class="cls-1" d="M93.43,393c4.93,2.23-13-16-11.67-11.64,2.51-1.49,5.08-8.06,8.59-7.71C100,374.58,110.29,400.57,93.43,393Z"/><path class="cls-1" d="M88.94,313.62c-.09,1.89-20.47,10.94-21.11,10.62-1.48-.75-3-5.4-3.47-5.53C59.71,318.59,89.69,294.46,88.94,313.62Z"/><path class="cls-1" d="M353.52,193c4.76-11.59,21.41,15.17,1.05,26.71C344.84,214.4,349.79,201.92,353.52,193Z"/><path class="cls-1" d="M314.43,519.13c-15,15.57-15.79-31.38-13.06-31.38C304.6,493.06,320.21,513.23,314.43,519.13Z"/><path class="cls-1" d="M81.92,436.94c-1.39,1.13-29.34-13.17-26.41-15.86C60.4,416.57,98.51,423.43,81.92,436.94Z"/><path class="cls-1" d="M260.5,487.58c-5.56,8.18-21.32,20.4-30.93,24.05C217,516.33,280.11,458.86,260.5,487.58Z"/><path class="cls-1" d="M464.91,384.78c7.61-4.65,33.43-16.46,39-10.79C496.13,392.28,477.67,417.6,464.91,384.78Z"/><path class="cls-1" d="M485.91,252.08C472,243.81,520,308.61,517.26,292.72c1.19,6.8-66.74,5.67-70.52,2.68q4.8-12.45-.92-9.32C448.72,289.32,468.66,241.77,485.91,252.08Z"/><path class="cls-1" d="M386.14,217.59c11.71-7.49,45.81,45.07-1.28,32.09C384.27,245.86,387.21,216.91,386.14,217.59Z"/><path class="cls-1" d="M421.14,441.78c-4-6.33-21.66-7-23.4-11.59-.19-.47.62-.87.36-1.58C393.29,414.6,430.55,456.84,421.14,441.78Z"/><path class="cls-1" d="M404.09,406.26c4.26-3.48,20.93-3.95,23.93,2.25C436,424.48,398.29,411,404.09,406.26Z"/><path class="cls-1" d="M163.08,504.51c-5.43,4.43-10.59,2.65-15.87.71-1.23-.45,35.88-33.89,40.56-27.77C180.09,486.69,172.52,496.83,163.08,504.51Z"/><path class="cls-1" d="M343,458.42c-32.45,10.91-57.44-6.71-83-7.77-31-1.3-49.83,10.2-84,3.24-49-10-73.32-65.13-84.24-105,.51,1.88,4.35-42.3,4-50.12-.65-16.08-29.63-22.14-23.52-41.51,4.82-15.29,24.87-14.23,28-19.87-2.69,4.88,39.94-14.11,42.88-16.87-34.21,32.17,25.52-72.2,16.92-44a25.65,25.65,0,0,1-4.47-18.14c6.62-14,24.78,18.51,25.08,22.77,39.31-58.49,111.8,17.22,131.83,37.26,8.5,8.5,71.61,57.85,71.42,65.66-.26,11.05-54.09,49.26-53.67,50.12,6.82,14,56.7,14.81,72.75,25.32-18.51,24.23-31.93,37.21-42.62,56.88C349.85,435.89,374.37,447.93,343,458.42Z"/><path class="cls-1" d="M417.36,358.52c1.61-3.77-25.55-14.49-26.87-16.09C400.28,323.82,424.82,341.11,417.36,358.52Z"/><path class="cls-1" d="M392.61,530.54C374.85,545,354,507.69,354.43,494.16,359.83,496.45,405.67,519.91,392.61,530.54Z"/><path class="cls-1" d="M64.36,318.71a1.06,1.06,0,0,1-.34-.06A.76.76,0,0,1,64.36,318.71Z"/><g class="cls-2"><path class="cls-1" d="M221.31,500.71c1.72,3-3.18,34.67-4.27,35.09C198.76,542.84,212,484.43,221.31,500.71Z"/><path class="cls-1" d="M224.6,337c-2.32-4.87,9.63-10.41,12.8-9.08C238.87,336.76,231.35,351.5,224.6,337Z"/><path class="cls-1" d="M213.86,366.46c6.59-3.89,33.59-8.21,39.64-1C263.21,377,202.81,372.91,213.86,366.46Z"/><path class="cls-1" d="M289.52,535.14c-.66.14-15.79-3.94-10.51-7.42C283.16,525,299.82,532.93,289.52,535.14Z"/><path class="cls-1" d="M249.53,502.08c5.1,5-6.9,10.21-6.89,10.21C240.33,514.14,240.58,493.51,249.53,502.08Z"/><path class="cls-1" d="M291.8,363.5c-2.71-4.72,15.55-.84,13.3,11.29C298.77,375.67,294.69,368.57,291.8,363.5Z"/><path class="cls-1" d="M434.4,518.17c1.72,11-21.4-8.3-20.11-9.41C418.33,510.11,433.67,513.23,434.4,518.17Z"/><path class="cls-1" d="M306.38,558c0,.12-17.4,5.05-17.69,1.69C288.43,556.8,306.14,545.57,306.38,558Z"/><path class="cls-1" d="M398.68,522c1.56,4.55,1.74,15.81-.15,20.52C394.94,551.32,391.23,500.05,398.68,522Z"/><path class="cls-1" d="M426.72,410.76c.7-4.83,5.54-17.93,9.6-17.37C442.7,404.76,446.39,420.39,426.72,410.76Z"/><path class="cls-1" d="M370.65,346.17c-5.59.56,36.3,10.81,31.52,7.49,4.62,3.18-23.85,24.15-25.49,24.11-2.6-5.08-4.21-6.33-4.86-3.76C372.7,374.16,358.49,347.36,370.65,346.17Z"/><path class="cls-1" d="M316.09,363.62c.59-5,20.93-.05,23.2,3.78,2.48,4.14-6.71,10-8.2,10.6C329.1,376.58,316.07,363.77,316.09,363.62Z"/><path class="cls-1" d="M437.6,449.8c-2.41-.76-15.83,2.74-15.24,1.06C428,451.24,437.41,449.74,437.6,449.8Z"/><path class="cls-1" d="M414,439.89c-.18-9.06,9.83-4.48,11.63-3.16C430.05,439.93,414,442.49,414,439.89Z"/><path class="cls-1" d="M369.84,561c.39,20.46-16.92-23-3.68-19.81C367.67,547.64,369.71,554.37,369.84,561Z"/><path class="cls-1" d="M416,482.44c-6.42,13.91-59.7,51.17-65.62,52.35-33.51,6.62-52.31-4.07-82.67-18.29-52.79-24.71-47.36-64-67.73-103.68-3.35-6.49,19.12.62,20.52,1.76-16-46.14,114.68-31.88,131.12-21.05,7.64,5-4,31.48-3.75,35.18.48,7.56,36-8.41,43.2-8.82C392.71,425.86,416,482.31,416,482.44Z"/><path class="cls-1" d="M396,414.8c-2.33-4.17-15.4,2.27-18,1.73-.42-.9-3.07-3.77-2.71-5.17C377.26,403,393.66,410.63,396,414.8Z"/><path class="cls-1" d="M469.61,497.71c.27,13.85-27.08,1.3-32.07-3.41C442.08,493.2,469.43,488.35,469.61,497.71Z"/><path class="cls-1" d="M242.64,512.29a.48.48,0,0,1-.16.08A.35.35,0,0,1,242.64,512.29Z"/><path class="cls-1" d="M210.66,532.3a.88.88,0,0,1-.24.27A.71.71,0,0,1,210.66,532.3Z"/></g><g class="cls-2"><path class="cls-3" d="M139.51,246.23c2.63-3.32,16.55.89,12,4.84S132.62,254.82,139.51,246.23Z"/><path class="cls-3" d="M111.08,252.56c5,1.51,24,14.58,21.51,20.93C128.11,285.11,100.75,249.4,111.08,252.56Z"/><path class="cls-3" d="M109.12,433.58c-6.72,4.8-6.22-12.44-4.44-13.94S112.18,431.43,109.12,433.58Z"/><path class="cls-3" d="M11.22,381.05C9.12,382.21-2.5,370.58,2.89,372,5.4,372.65,19.44,376.52,11.22,381.05Z"/><path class="cls-3" d="M87.46,415.92c-3.26,3.27-11.27,7.43-16,8.36C64.78,425.58,99,404.47,87.46,415.92Z"/><path class="cls-3" d="M188.25,385.33c3.75-1.47,16.41-4.92,18.48-2C201.86,390.6,191.28,400.83,188.25,385.33Z"/><path class="cls-3" d="M208.89,328.62c-5.95-4.93,10.58,27.73,10.71,20.05,0,4.23-31-2.77-32-3.83q3.15-5.11.37-4.15C189.05,342.42,202,322.91,208.89,328.62Z"/><path class="cls-3" d="M166.81,306.42c3.45-1.43,11.49,10.47,9.22,14C169.32,331.16,157.31,310.39,166.81,306.42Z"/><path class="cls-3" d="M42.12,416.44c-16,8.83,8.5-19.4,13.41-10.12C51.28,409.84,47,413.75,42.12,416.44Z"/><path class="cls-3" d="M127.12,409c-47.73,7.63-98.05-18.74-104-65.83-5.26-41.38,25.15-52.33,44.8-79,4.24-5.78,9.63,9.75,9.39,11.77,26.58-26.83,84.64,42.94,85,61.93.11,6.36-26.61,10.87-29.2,12.43-4,2.43,25.26,15.83,29.46,19.63C157.36,374.48,129.35,408.63,127.12,409Z"/><path class="cls-3" d="M169,370.44c1.83-2.69-16.87-9.94-8.18-12.54C166.85,356,172.06,366,169,370.44Z"/><path class="cls-3" d="M143.4,444.13c-9.06,5-15.51-12.62-14.15-18.66C131.44,426.83,150.15,440.41,143.4,444.13Z"/><path class="cls-3" d="M13.25,328a.53.53,0,0,1-.15-.05A.33.33,0,0,1,13.25,328Z"/></g><g class="cls-2"><path class="cls-3" d="M318.42,325.26c.43,2.58-5.81,22.63-7.2,23.16-1.75.67-2.33-2.76-2.42-2.7C307.45,347.66,317.09,317.19,318.42,325.26Z"/><path class="cls-3" d="M335,235.29c3.28-2,16.91-2.93,18.41,1.62-.54-1.63-2.82,4.76-2.51,4.34C347.21,246.18,331.19,237.61,335,235.29Z"/><path class="cls-3" d="M397,349.64c0,2.82-3.18,18.26-3.31,10.15C393.62,357.31,396.88,340.6,397,349.64Z"/><path class="cls-3" d="M410.29,230.77c-6.22.12,17,12,13.41,6.81,2.11,3-14.8,14.7-15.34,14.61-.57-3.32-1.13-4.24-1.68-2.79C407.24,249.63,405.77,230.84,410.29,230.77Z"/><path class="cls-3" d="M382.55,239.27c1.33-4.31,13.52,2.71,8.88,6.84C387.21,249.89,380.69,245.34,382.55,239.27Z"/><path class="cls-3" d="M410.84,324.26c-59.79,105.82-96.16-60.62-87.32-60.64,5.25,0,4.65-.64,7.36,4.14-.47-29.55,54.58-18.81,63.56-6.5,3.33,4.56-6.31,19.52-7,23.25-.84,4.73,17.46-3.56,21.23-3.4C408.51,287.25,413,320.45,410.84,324.26Z"/><path class="cls-3" d="M433.29,337.53c-1.85,8.77-12.43-.15-14.27-4.12C421.57,332.87,434.52,331.65,433.29,337.53Z"/><path class="cls-3" d="M326.52,334.21a.2.2,0,0,1-.08,0S326.49,334.21,326.52,334.21Z"/><path class="cls-3" d="M308.8,345.72a.61.61,0,0,1-.15.17A.52.52,0,0,1,308.8,345.72Z"/></g><g class="cls-2"><path class="cls-4" d="M194.09,455.57c.43,2.58-5.81,22.63-7.2,23.16-1.75.67-2.33-2.76-2.41-2.7C183.12,478,192.76,447.5,194.09,455.57Z"/><path class="cls-4" d="M210.69,365.6c3.29-2,16.91-2.93,18.41,1.62-.54-1.63-2.82,4.76-2.5,4.34C222.89,376.49,206.86,367.92,210.69,365.6Z"/><path class="cls-4" d="M272.65,480c0,2.82-3.18,18.26-3.31,10.14C269.29,487.62,272.55,470.91,272.65,480Z"/><path class="cls-4" d="M286,361.08c-6.22.11,17,12,13.41,6.81,2.11,3-14.8,14.7-15.34,14.61q-.84-5-1.68-2.79C282.91,379.94,281.45,361.15,286,361.08Z"/><path class="cls-4" d="M258.22,369.58c1.33-4.31,13.53,2.71,8.88,6.84C262.88,380.2,256.36,375.65,258.22,369.58Z"/><path class="cls-4" d="M286.51,454.57c-59.79,105.82-96.16-60.62-87.32-60.64,5.26,0,4.65-.64,7.36,4.14-.47-29.55,54.58-18.81,63.56-6.5,3.33,4.56-6.31,19.52-7,23.25-.84,4.73,17.46-3.56,21.23-3.41C284.18,417.56,288.68,450.75,286.51,454.57Z"/><path class="cls-4" d="M309,467.84c-1.84,8.77-12.42-.15-14.27-4.12C297.24,463.18,310.19,462,309,467.84Z"/><path class="cls-4" d="M202.19,464.52a.2.2,0,0,1-.08,0Z"/><path class="cls-4" d="M184.48,476a.81.81,0,0,1-.16.16A.41.41,0,0,1,184.48,476Z"/></g><g class="cls-2"><path class="cls-3" d="M148.73,212.19c.43,2.58-5.81,22.62-7.2,23.16-1.75.67-2.33-2.76-2.41-2.7C137.76,234.58,147.4,204.12,148.73,212.19Z"/><path class="cls-3" d="M165.33,122.22c3.29-2,16.91-2.93,18.41,1.62-.54-1.64-2.82,4.76-2.5,4.34C177.53,133.11,161.51,124.53,165.33,122.22Z"/><path class="cls-3" d="M227.29,236.57c0,2.81-3.18,18.26-3.31,10.14C223.93,244.24,227.19,227.52,227.29,236.57Z"/><path class="cls-3" d="M240.6,117.7c-6.22.11,17,12,13.41,6.8,2.11,3-14.8,14.7-15.34,14.61q-.84-5-1.68-2.78C237.55,136.56,236.09,117.77,240.6,117.7Z"/><path class="cls-3" d="M212.86,126.2c1.33-4.31,13.53,2.71,8.88,6.83C217.52,136.82,211,132.26,212.86,126.2Z"/><path class="cls-3" d="M241.15,211.19C181.36,317,145,150.57,153.83,150.55c5.26,0,4.65-.64,7.36,4.14-.47-29.55,54.58-18.81,63.56-6.5,3.33,4.55-6.31,19.51-7,23.24-.84,4.73,17.46-3.55,21.23-3.4C238.82,174.17,243.32,207.37,241.15,211.19Z"/><path class="cls-3" d="M263.6,224.45c-1.84,8.78-12.42-.14-14.27-4.11C251.88,219.8,264.83,218.57,263.6,224.45Z"/><path class="cls-3" d="M156.84,221.13l-.09.05Z"/><path class="cls-3" d="M139.12,232.65a.81.81,0,0,1-.16.16C139,232.73,139.06,232.67,139.12,232.65Z"/></g><g class="cls-2"><path class="cls-1" d="M99.1,231.82c1.08,1.89-2,21.8-2.68,22.07-1.62.62-3.83-2.32-4-2.2C89.78,255.83,92.42,220.18,99.1,231.82Z"/><path class="cls-1" d="M94.42,147.42c4.14-2.44,21.11-5.16,24.91-.62-1.71-2-2.45,4.87-2,4.27C113,157.26,92.4,148.6,94.42,147.42Z"/><path class="cls-1" d="M193,134.67c-3.52.35,22.82,6.79,19.81,4.71,3.63,2.5-15.49,15.17-16,15.15q-2.43-4.78-3.05-2.36C194.25,152.27,185.32,135.42,193,134.67Z"/><path class="cls-1" d="M158.68,145.64c.36-3.12,13.15,0,14.58,2.38.54.9-1.57,4.82-1.93,5.56C169.22,157.93,158.72,145.28,158.68,145.64Z"/><path class="cls-1" d="M221.45,220.34c-16,34.74-61.07,39.46-93.21,21.41-33.1-18.58-28.94-38.62-42.57-65.18-2.1-4.08,12,.39,12.9,1.1-6.86-19.74,77.29-33.8,80.05,8.89.31,4.75,22.65-5.29,27.16-5.55C206.84,184.77,221.49,220.25,221.45,220.34Z"/><path class="cls-1" d="M255.17,229.94c.17,8.7-17,.82-20.16-2.15C237.86,227.1,255.06,224.05,255.17,229.94Z"/><path class="cls-1" d="M112.51,239.1l-.1.05Z"/><path class="cls-1" d="M92.41,251.69a.57.57,0,0,1-.15.16A.39.39,0,0,1,92.41,251.69Z"/></g></svg>