<svg id="Layer_1" data-name="Layer 1" xmlns="http://www.w3.org/2000/svg" viewBox="0 0 572.48 547.01"><defs><style>.cls-1{fill:#ffdb45;}.cls-2{opacity:0.56;}.cls-3{fill:#f2a52a;}.cls-4{fill:#ef7f2b;}</style></defs><title>yellow_ink</title><path class="cls-1" d="M73.48,166.23c11.82-10.68,28.19,3.25,16.18,15.83C93.23,178.41,74,167.4,73.48,166.23Z"/><path class="cls-1" d="M17.32,216.21c1.14-.12-25-1.26-16.58-9,.94-.86,26.79-2.65,27.16-2.14C31.16,209.54,20.7,215.85,17.32,216.21Z"/><path class="cls-1" d="M102.84,406c3.45,7.84-4.91,80-8.77,82.24C59.83,508.4,89,374.54,102.84,406Z"/><path class="cls-1" d="M36.64,339.55c1.31,7.45-24.13,7.91-24.12,7.83C15.06,335.19,27.21,336.26,36.64,339.55Z"/><path class="cls-1" d="M114.25,24.88c-3.22-9,15.23-26.76,23-23.11C139,17.56,126.09,58.64,114.25,24.88Z"/><path class="cls-1" d="M73.32,318.91C55,314.37,84.2,295,89.89,305.23,91.23,307.72,76.9,319.77,73.32,318.91Z"/><path class="cls-1" d="M94.25,95.07c10.6-9,60.54-23.14,70.2-8.49C183.84,115.79,73.42,112.67,94.25,95.07Z"/><path class="cls-1" d="M222.41,475.32c6.34-2.34-23.39-5.1-17.75-1.38.43-3.17-3.31-11.66-.6-14.21C211.29,453,241.46,468.29,222.41,475.32Z"/><path class="cls-1" d="M152.74,404.73c1.63,2-4.85,26.95-5.52,27.15C128.05,437.79,140.25,389.86,152.74,404.73Z"/><path class="cls-1" d="M232.33,76c-6.4-14.55,27-.63,23.14,24.15C243.43,103.41,236.49,85.57,232.33,76Z"/><path class="cls-1" d="M479.47,413.2c2.66,25.34-38.24-15.18-35.28-18.72C452.17,397.28,478.45,402.82,479.47,413.2Z"/><path class="cls-1" d="M251.48,525.89c0,1-31,13.26-31.38,6.68C219.69,524.78,251.48,498.35,251.48,525.89Z"/><path class="cls-1" d="M416.1,427.66c3.07,12.17,2.91,35.33-1,47.73C411.15,488,405.69,385.94,416.1,427.66Z"/><path class="cls-1" d="M469.56,164.72c1.14-9.28,9.61-42.61,17.58-41.87C495.45,142.21,507.4,185.91,469.56,164.72Z"/><path class="cls-1" d="M372.5,23.37c-7,1.52,59.92,36.94,56.27,16.24,1.06,6-42.4,56-46.68,56.26C374.89,96.27,352,27.8,372.5,23.37Z"/><path class="cls-1" d="M275.32,72.46c1.52-14.67,70.07,4.27,26.07,31.08C297.26,100,275.22,73.46,275.32,72.46Z"/><path class="cls-1" d="M487.48,253.78c-7.44-2.44-22.12,10.27-25.73,8.23-.58-.32-.34-1.34-1.08-1.77C443.11,249.51,503.57,259.19,487.48,253.78Z"/><path class="cls-1" d="M446,234.43c0-5.55,10.64-20.93,18.26-17.4C484.25,226,446,242.66,446,234.43Z"/><path class="cls-1" d="M363.71,523c0,8.21-4.66,10.95-10.26,13.61-2.68,1.28-2.11-60.58,4.42-59.08C360.37,492.37,363.71,507.73,363.71,523Z"/><path class="cls-1" d="M448.05,333c-13,36.58-47.33,42.5-63.26,60.41-21.75,24.44-29.4,52.55-61.31,72-58,35.3-101.38-16.42-140.59-42.33-5.84-3.86-58.94-36.91-67.17-44.7-40.52-38.37.39-31.79-4.79-64.18C103.43,267.33,84,246.12,68,205c-6.88-17.55,32.86-2.51,36.27.87-27.4-107,133.92-76,173.38-70.26,82.12,12,30.74,9.13,58.15,68.24,17.36,37.41,28.6-5.51,70.24-12.34,7.14,35.07,9.88,60.72,18.62,88C432.82,304.93,460.25,298.82,448.05,333Z"/><path class="cls-1" d="M415,178.92c-2-4.59-30.71,7.07-31.89,6.85C374.25,160.57,405.66,157,415,178.92Z"/><path class="cls-1" d="M542.51,360.13c0,30.11-46.12,9.46-56.66-2.91C494.12,353.87,542.51,339.33,542.51,360.13Z"/><path class="cls-1" d="M140.2,429.53a.78.78,0,0,1-.28.22A.74.74,0,0,1,140.2,429.53Z"/><path class="cls-1" d="M82.91,481.07a2.81,2.81,0,0,1-.44.66A1.65,1.65,0,0,1,82.91,481.07Z"/><g class="cls-2"><path class="cls-1" d="M300,389.36c.7-6.25,5.17-11.66,10.5-4.08C313.83,390.06,302.71,390.51,300,389.36Z"/><path class="cls-1" d="M400.33,471.9c4.23,1.61,27.22,34.15,26.55,36.34C420.63,528.6,382,464.94,400.33,471.9Z"/><path class="cls-1" d="M348.21,473.75c3.44,2.5-7.32,13.19-7.22,13.36C337.5,481.07,343.26,476.35,348.21,473.75Z"/><path class="cls-1" d="M265.11,316c-5.15-2.42-3.05-17.25,1.13-18.94C273,302.68,282.66,324.4,265.11,316Z"/><path class="cls-1" d="M282.52,352.31c1.08-7.86,16.31-35,26.27-33.25C327.22,322.31,280.34,367.6,282.52,352.31Z"/><path class="cls-1" d="M475.88,448.5s-14.23,10.64-13.41,1.63C463,444.26,481.11,437.93,475.88,448.5Z"/><path class="cls-1" d="M420.77,450.17c3,.2,7.87,13.15,6.3,14.59-1.21-.37-2-.18-2.44.59C424.61,468.81,407.83,449.47,420.77,450.17Z"/><path class="cls-1" d="M333.33,286c-7.61-2.89,10.53-12.53,18.56-.28C348.21,291.85,339.12,288.2,333.33,286Z"/><path class="cls-1" d="M560.69,314.47c10.67,9.13-21.6,9.78-21.65,7.59C543.05,320,556.4,310.75,560.69,314.47Z"/><path class="cls-1" d="M506.63,456.18c.46.5-8.25,18.35-10.69,16C492.91,469.27,496.57,445.33,506.63,456.18Z"/><path class="cls-1" d="M539.47,347.17c5.59,3.42,14.35,13.11,17.14,19.33C560,374.2,519,334.57,539.47,347.17Z"/><path class="cls-1" d="M465.26,220.18c-3.18-4.51-11.66-21-8-24.08C469.19,200.77,488.21,212.7,465.26,220.18Z"/><path class="cls-1" d="M372.69,205.46c-5.7,8.61,38.24-20.06,27.84-18.7,5.57-.76,4.27,41.72,2.81,43.36q-8.82-3.37-6.48.44C398.31,229.42,365.61,216.11,372.69,205.46Z"/><path class="cls-1" d="M350,266.28c-5-6.83,30.86-28,22.33,1.22C369.61,267.83,350,266.24,350,266.28Z"/><path class="cls-1" d="M505.48,247.86c-2.43,1.33-8.56,13.76-8.17,14-.22-.28-.44-.3-.69,0C486.72,264.66,514.53,243,505.48,247.86Z"/><path class="cls-1" d="M481,257.84c-2.32-2.5-1.68-16.14,2.29-14.65,1.61.57,2.54,1.43,4.63,2.06C489.63,245.78,483.8,260.87,481,257.84Z"/><path class="cls-1" d="M552.54,407.25c17.47,18.85-31.41-7.38-19.15-15.54C539.89,396.54,547,401.24,552.54,407.25Z"/><path class="cls-1" d="M518.09,296.06c7,17.45,3.73,94.13-.93,102.52-18.39,33.11-36.62,38.77-71.87,50.3-58.72,19.22-88.35-22.25-133.36-41.82-9.33-4,12.95-15,15.5-15.09-48.8-29.56,45.52-122.38,72-126.63,10-1.62,23.3,32.32,27,36,5.84,5.84,17.43-37.06,22.14-43.49C456.18,263.08,516.82,292.88,518.09,296.06Z"/><path class="cls-1" d="M447.63,249c-4.49-1.77-9.24,15.14-10.84,16.29-1.29-.62-5.27-1-6.19-2.63C425.51,254.24,441.26,246.52,447.63,249Z"/><path class="cls-1" d="M567.59,266.6c11,11.87-16.21,23.36-24.79,23C544.74,285.34,559.88,258.28,567.59,266.6Z"/><path class="cls-1" d="M424.63,465.35a.75.75,0,0,1,0,.2A.33.33,0,0,1,424.63,465.35Z"/><path class="cls-1" d="M419.58,510.16a1.74,1.74,0,0,1,.06.45A.85.85,0,0,1,419.58,510.16Z"/></g><g class="cls-2"><path class="cls-3" d="M97.87,466.47c1,3.63-8.17,34.69-9.93,35.32-2.69,1-4.38-4.14-4.52-4.05C80.18,502.24,93.84,451.24,97.87,466.47Z"/><path class="cls-3" d="M130.74,300.4c-1-4.95,12-12.75,12.27-5.26C143.2,303.22,133.11,313.36,130.74,300.4Z"/><path class="cls-3" d="M116.61,329.52c5.52-3.14,29-5.21,32.28,2C155.43,345.77,105.91,335.53,116.61,329.52Z"/><path class="cls-3" d="M146.77,506.68s-13.1-4.55-7.14-8.34C143.4,496,155.86,505.17,146.77,506.68Z"/><path class="cls-3" d="M180.28,332.5c-1.75-6.64,12.28,1.75,8.69,12.48C183.34,345.42,181.49,337.13,180.28,332.5Z"/><path class="cls-3" d="M267.26,500.57c-.64,11.32-16.12-9.83-14.56-11.11C256.06,491.32,267.55,495.88,267.26,500.57Z"/><path class="cls-3" d="M156.21,531.23c-.07.41-15,3.33-14.64.35C141.94,528.17,158.23,519.09,156.21,531.23Z"/><path class="cls-3" d="M237.62,501.7c.49,5.48-1.28,15.76-3.9,20.84C230.24,529.18,235.85,481.39,237.62,501.7Z"/><path class="cls-3" d="M280.85,390.86c1.22-4.06,7.49-17.87,11-16.91C294.25,383.42,296.24,403.14,280.85,390.86Z"/><path class="cls-3" d="M247.35,321c-8.63.25,29.94,16.66,24.15,10,4,4.59-24.26,22.64-25.1,22.53q-2-7.63-3.24-4.18C244.12,349.63,237.62,321.21,247.35,321Z"/><path class="cls-3" d="M199.94,334.48c1.76-6.36,31.34,7.61,9.5,15.76C207.87,348.39,199.82,334.9,199.94,334.48Z"/><path class="cls-3" d="M207.05,539.16c-3.38,20.41-9.56-24.71.68-20.41C207.77,525.47,208.16,532.47,207.05,539.16Z"/><path class="cls-3" d="M258.91,462.85c-28.31,49.72-84.51,58.39-126.4,23.22C94,453.77,105.69,416.2,96.78,375.55c-1.8-8.13,15.09,1.71,16.3,3.36-4.38-47,95.25-27.39,110.08-11.32,6.71,7.26-17.52,40.74-2.84,41,9.85.18,19-11.42,29.94-11.18C250.6,405.38,261,459.28,258.91,462.85Z"/><path class="cls-3" d="M255.21,392.6c-1.28-5.06-20.19,5.24-16.13-5.08C242,379.87,253.92,387.49,255.21,392.6Z"/><path class="cls-3" d="M299.55,482.48c-2.23,13.47-21.77-.1-25.34-5.93C278.21,475.76,301.07,473.32,299.55,482.48Z"/><path class="cls-3" d="M113,479.86a.27.27,0,0,1-.14.08A.34.34,0,0,1,113,479.86Z"/><path class="cls-3" d="M83.42,497.74a1,1,0,0,1-.24.26A.88.88,0,0,1,83.42,497.74Z"/></g><g class="cls-2"><path class="cls-3" d="M319.42,228.47c3.4,2.87,15,27.67,13.39,28.49q-2.18-3.12-2.79-1.49C330.12,255.9,314.61,224.43,319.42,228.47Z"/><path class="cls-3" d="M255.22,130.72c.58-4.73,7.26-12.47,11.84-14.53C279.38,127.32,254.67,135.11,255.22,130.72Z"/><path class="cls-3" d="M393.6,187.23A52,52,0,0,1,403,202.59C404.22,206.18,384.05,176.76,393.6,187.23Z"/><path class="cls-3" d="M352.85,95.22c-1.3-2.54-6.51-15-4.47-16C352.32,82.54,366.26,96.21,352.85,95.22Z"/><path class="cls-3" d="M302.9,65.1c-5.34,6.65,23.11-2.2,14.88-4.56,3.8,1.07,2.51,25.6,1.78,26.19q-4.71-3.78-3.49-1.24C316.65,85.24,299.23,69.65,302.9,65.1Z"/><path class="cls-3" d="M291.06,95.68c-2.39-4.51,9.93-7.2,13.11,2.94C305.88,104.13,291.25,96,291.06,95.68Z"/><path class="cls-3" d="M401,225.65c9.05,14.4-16.47-11.77-10.41-13.59C394.17,216.46,398,220.83,401,225.65Z"/><path class="cls-3" d="M381.77,152.17c17.87,55.06-5.15,74.14-48.21,64-27.09-6.38-57-52.87-53.9-51.69-22.76-24.69,18.19-63,38-57.92,4.71,1.2,15.58,33.19,20.31,28,5-5.44.7-15.18,6.09-21C350.33,120.85,379.21,144.26,381.77,152.17Z"/><path class="cls-3" d="M408.26,146.28c5.86,9.33-8.33,10.14-13.22,7.78C396.38,151.39,404.28,140,408.26,146.28Z"/><path class="cls-3" d="M332.47,230.24a.36.36,0,0,1,0,.11A.2.2,0,0,1,332.47,230.24Z"/><path class="cls-3" d="M330,255.47a1.41,1.41,0,0,1,0,.28A.76.76,0,0,1,330,255.47Z"/></g><g class="cls-2"><path class="cls-4" d="M343.82,451.84c3.41,2.87,15,27.67,13.39,28.49q-2.18-3.12-2.79-1.49C354.53,479.27,339,447.8,343.82,451.84Z"/><path class="cls-4" d="M279.63,354.09c.58-4.73,7.25-12.46,11.83-14.53C303.78,350.69,279.07,358.48,279.63,354.09Z"/><path class="cls-4" d="M418,410.6A52,52,0,0,1,427.35,426C428.62,429.55,408.45,400.14,418,410.6Z"/><path class="cls-4" d="M377.25,318.6c-1.3-2.55-6.51-15-4.47-16.05C376.73,305.91,390.66,319.59,377.25,318.6Z"/><path class="cls-4" d="M327.3,288.47c-5.33,6.65,23.12-2.2,14.88-4.56,3.8,1.07,2.52,25.6,1.78,26.19q-4.69-3.78-3.49-1.24C341.05,308.61,323.63,293,327.3,288.47Z"/><path class="cls-4" d="M315.47,319.05c-2.4-4.51,9.92-7.2,13.1,2.94C330.29,327.5,315.65,319.39,315.47,319.05Z"/><path class="cls-4" d="M425.41,449c9,14.4-16.46-11.77-10.41-13.59C418.57,439.83,422.38,444.2,425.41,449Z"/><path class="cls-4" d="M406.17,375.54C424,430.6,401,449.68,358,439.55c-27.09-6.38-57-52.87-53.9-51.69-22.75-24.69,18.19-63,38-57.92,4.71,1.2,15.58,33.19,20.31,28,5-5.43.7-15.18,6.1-21C374.73,344.23,403.62,367.63,406.17,375.54Z"/><path class="cls-4" d="M432.66,369.65c5.86,9.33-8.33,10.14-13.22,7.78C420.79,374.76,428.68,363.32,432.66,369.65Z"/><path class="cls-4" d="M356.87,453.61a.2.2,0,0,1,0,.11A.2.2,0,0,1,356.87,453.61Z"/><path class="cls-4" d="M354.42,478.84a1,1,0,0,1,0,.28A.62.62,0,0,1,354.42,478.84Z"/></g><g class="cls-2"><path class="cls-3" d="M108.45,261c3.41,2.87,15,27.67,13.4,28.49q-2.17-3.12-2.79-1.49C119.16,288.44,103.65,257,108.45,261Z"/><path class="cls-3" d="M44.26,163.26c.58-4.73,7.25-12.47,11.84-14.53C68.42,159.86,43.7,167.65,44.26,163.26Z"/><path class="cls-3" d="M182.64,219.77A52,52,0,0,1,192,235.13C193.25,238.71,173.08,209.3,182.64,219.77Z"/><path class="cls-3" d="M141.89,127.76c-1.31-2.54-6.51-15-4.47-16C141.36,115.08,155.29,128.75,141.89,127.76Z"/><path class="cls-3" d="M91.93,97.64c-5.33,6.65,23.12-2.2,14.89-4.56,3.8,1.07,2.51,25.59,1.77,26.19q-4.7-3.78-3.48-1.24C105.68,117.78,88.26,102.18,91.93,97.64Z"/><path class="cls-3" d="M80.1,128.22c-2.39-4.52,9.93-7.2,13.1,2.94C94.92,136.66,80.28,128.56,80.1,128.22Z"/><path class="cls-3" d="M190.05,258.19c9,14.4-16.47-11.77-10.41-13.59C183.21,249,187,253.37,190.05,258.19Z"/><path class="cls-3" d="M170.81,184.7c17.86,55.07-5.15,74.15-48.22,64-27.08-6.38-57-52.88-53.89-51.69-22.76-24.7,18.19-63,38-57.92,4.72,1.2,15.58,33.19,20.31,28,5-5.44.7-15.18,6.1-21C139.36,153.39,168.25,176.8,170.81,184.7Z"/><path class="cls-3" d="M197.29,178.82c5.87,9.33-8.32,10.14-13.21,7.78C185.42,183.93,193.31,172.49,197.29,178.82Z"/><path class="cls-3" d="M121.5,262.78a.21.21,0,0,1,0,.11A.2.2,0,0,1,121.5,262.78Z"/><path class="cls-3" d="M119.06,288a1.41,1.41,0,0,1,0,.28A.59.59,0,0,1,119.06,288Z"/></g><g class="cls-2"><path class="cls-1" d="M91,319.87c4.31,1.64,17.31,22.69,15.35,24.36-1.78-1.32-2.86-1.43-3.25-.31C104.4,348.53,79,315.31,91,319.87Z"/><path class="cls-1" d="M16.94,244.68c.68-4.93,10.25-22,16.51-20.89C45,225.83,15.57,254.3,16.94,244.68Z"/><path class="cls-1" d="M191.8,220.92c6,5.11-9.12,5.16-11.19,5.85C176.18,228.24,187.86,217.5,191.8,220.92Z"/><path class="cls-1" d="M178.46,241.47c2.78,1.7,15.18,15,7.18,10.2C182.36,249.69,169.61,236,178.46,241.47Z"/><path class="cls-1" d="M131.8,161.64c-2-2.83-7.33-13.18-5-15.14C134.27,149.44,146.23,156.94,131.8,161.64Z"/><path class="cls-1" d="M73.61,152.38c-3.58,5.42,24-12.61,17.5-11.75,4.49-.61,2.35,26.6,1.77,27.25-3.7-1.41-5-1.32-4.07.28C89.72,167.45,69.17,159.08,73.61,152.38Z"/><path class="cls-1" d="M59.37,190.61c-2.18-3,8.56-10.91,12-9.67,1.31.47,2.93,5.66,3.36,6.78C76.93,193.57,59.07,190.2,59.37,190.61Z"/><path class="cls-1" d="M186.68,279.24c7.5,8.09-11.72,2.39-12.17-8.24C174.41,267.79,185.5,278,186.68,279.24Z"/><path class="cls-1" d="M165,209.34c16.5,41.34-4.16,84.63-45.75,96.06C81,315.93,64.91,291.92,35.43,279.1c-5.86-2.53,8.14-9.42,9.75-9.48-30.89-18.71,28.88-77,45.23-79.6,6.32-1,14.65,20.32,17,22.63,3.67,3.67,11-23.3,13.91-27.34C126.1,188.61,164.22,207.34,165,209.34Z"/><path class="cls-1" d="M196.13,190.83c6.92,7.46-10.18,14.68-15.58,14.43C181.77,202.61,191.28,185.6,196.13,190.83Z"/><path class="cls-1" d="M106.28,315.75a.32.32,0,0,1,0,.13A.27.27,0,0,1,106.28,315.75Z"/><path class="cls-1" d="M103.11,343.92a.9.9,0,0,1,0,.28A.49.49,0,0,1,103.11,343.92Z"/></g></svg>