<svg id="Layer_1" data-name="Layer 1" xmlns="http://www.w3.org/2000/svg" xmlns:xlink="http://www.w3.org/1999/xlink" viewBox="0 0 105 226"><defs><style>.cls-1{fill:none;}.cls-2{clip-path:url(#clip-path);}.cls-3{isolation:isolate;}.cls-4{clip-path:url(#clip-path-2);}.cls-5{fill:#19242e;}.cls-6{fill:#23313f;}</style><clipPath id="clip-path"><rect class="cls-1" width="105" height="226"/></clipPath><clipPath id="clip-path-2"><rect class="cls-1" x="-380.36" y="-53.5" width="631.73" height="333"/></clipPath></defs><title>black_key</title><g class="cls-2"><g class="cls-3"><g class="cls-4"><path class="cls-5" d="M105,7.51v211A7.53,7.53,0,0,1,97.49,226h-90A7.53,7.53,0,0,1,0,218.49V7.51A7.53,7.53,0,0,1,7.51,0h90A7.53,7.53,0,0,1,105,7.51"/><path class="cls-6" d="M86.72,195.61H18.28a5.89,5.89,0,0,1-5.88-5.87V20.55a5.89,5.89,0,0,1,5.88-5.87H86.72a5.89,5.89,0,0,1,5.88,5.87V189.74a5.89,5.89,0,0,1-5.88,5.87"/></g></g></g></svg>