<svg id="Layer_1" data-name="Layer 1" xmlns="http://www.w3.org/2000/svg" viewBox="0 0 900 900"><defs><style>.cls-1{fill:#eeb331;}.cls-2{fill:#febe21;}.cls-3{fill:#fad24f;}.cls-4{fill:#c98628;}.cls-5{fill:#ffce4d;}.cls-6{fill:#f9f8f7;opacity:0.32;}.cls-10,.cls-12,.cls-6{isolation:isolate;}.cls-7{fill:#5c473e;}.cls-8{fill:#6a5a52;}.cls-9{fill:#ffe294;}.cls-10{opacity:0.08;}.cls-11{fill:#e5b548;}.cls-12{opacity:0.15;}.cls-13{fill:#f7deaa;}.cls-14{fill:#ffdb45;}.cls-15{fill:#ffb845;}.cls-16{fill:#00b949;}.cls-17{fill:#f7fcf9;}</style></defs><title>champion_cup</title><path class="cls-1" d="M853.32,36.7c-1.06-6.8-7.88-11.9-16-11.9H750.61c-8.7,0-15.88,5.8-16.11,13.2-.59,17.2-7.53,43.5-39.41,67-37.77,27.9-110.24,52-247.77,52.9h-7.53c-132.23,0-203.06-23.4-240.71-51C166.5,83,158.85,55.9,158,38c-.36-7.4-7.42-13.2-16.12-13.2H55.67c-8.23,0-15.17,5.2-16,12.2C30.73,105.1,5.91,437.5,357.09,487.6c15.88,2.3,32.47,4,50,5,12.94.8,26.23,1.2,40.11,1.3h4.47q22.07,0,42.71-1.2c20.35-1.2,39.53-3.2,57.76-6C895.91,433.5,863.56,103.9,853.32,36.7Zm-34,117.5c-3.06,39.9-10.71,76.9-22.94,110.1-14.82,40.4-36.47,75-64.12,103.1-28.47,28.9-64.35,51.3-106.35,66.8-4.35,1.6-8.71,3.1-13.18,4.6-46.12,15-100.23,22.5-161.29,22.5H447c-60.71-.4-114.71-8.3-160.83-23.7-3.41-1.1-6.82-2.3-10.11-3.5-42.59-15.6-78.94-38.2-108.24-67.3-28.35-28.1-50.59-62.9-66.35-103.3C88.5,230.3,80,193.3,76.14,153.4a517.52,517.52,0,0,1-1.29-83.1c.47-7.3,7.53-13,16.12-13h18.59c7.29,0,13.53,4.1,15.53,10,5.17,15.9,15,33.7,32.94,50.8q17.11,16.35,41.06,28.9c54.47,28.8,135,43.3,240.7,43.3h7.77c109.41-.7,192.35-15.9,247.53-45.1,16.7-8.9,30.94-19,42.47-30.5,16.23-16,25.29-32.5,30.11-47.4,1.89-5.9,8.24-10,15.53-10h19.06c8.59,0,15.65,5.7,16.12,12.9C819.67,89.5,821.44,126.2,819.32,154.2Z"/><path class="cls-2" d="M570.61,723.5v24H335.32V722.4s114.59-6.8,77.18-168.9c-.47-2.1-1.06-4.3-1.53-6.5h82.59s-.71,1.9-1.77,5.3c-8.7,26.9-40.94,148.7,74.71,170.6Z"/><path class="cls-3" d="M570.61,723.5v24H335.32V722.8H566.5C567.91,723.1,569.2,723.3,570.61,723.5Z"/><path class="cls-1" d="M520.14,521.9c0,12.4-11.17,23.4-28.35,30.3-11.53,4.6-25.76,7.3-41.29,7.3h-3.41a114.67,114.67,0,0,1-34.59-6c-19.06-6.7-31.65-18.3-31.65-31.5a25.31,25.31,0,0,1,.24-3.1c.94-6.1,4.58-11.8,10.23-16.8a61.17,61.17,0,0,1,15.53-9.5c11.06-4.8,24.94-7.8,40.12-8.2h3.41c16.59,0,31.76,3.1,43.76,8.4a56,56,0,0,1,17.18,11.1c4.82,4.7,7.88,10.1,8.47,15.7A5.06,5.06,0,0,1,520.14,521.9Z"/><path class="cls-4" d="M520,519.5c-17.53,5.7-41.65,9.2-68.36,9.2H447.2c-26-.4-49.29-4.1-66-9.9.94-6.1,4.59-11.8,10.24-16.8A61.17,61.17,0,0,1,407,492.5c11.06-4.8,24.94-7.8,40.12-8.2h3.41c16.59,0,31.76,3.1,43.76,8.4a56.15,56.15,0,0,1,17.18,11.1C516.26,508.5,519.32,513.8,520,519.5Z"/><path class="cls-5" d="M695.09,24.8V264.2s-11.77,99.3-82.36,174.6a249.12,249.12,0,0,1-60.82,47.8c-1.41.8-2.94,1.6-4.47,2.4a184,184,0,0,1-36.12,14.7A202.14,202.14,0,0,1,447,511.6a210.69,210.69,0,0,1-55.65-9.6,204.14,204.14,0,0,1-26.12-10.3c-2.82-1.4-5.53-2.7-8.35-4.1A311.56,311.56,0,0,1,286,437.7c-61.65-57.9-86.94-128.9-86.94-165.6V24.8Z"/><path class="cls-6" d="M383.32,494.2c3.06,2.9,6.24,5.7,9.41,8.5a8.18,8.18,0,0,1-1.29-.7c-89.53-43.4-142.35-181.4-142.35-218.2V24.8h47V283.9C296.14,320.6,321.56,436.4,383.32,494.2Z"/><rect class="cls-7" x="287.44" y="747.7" width="321.06" height="125.7"/><rect class="cls-8" x="270.97" y="873.4" width="352.12" height="24.9"/><path class="cls-9" d="M550.38,788.2v45.4c-9.41,1.3-16.94,7.3-19.06,15.1H362.85c-2.12-7.8-9.65-13.8-19.06-15.1V788.3c9.88-1.2,17.77-7.6,19.65-15.9H531.56C533.44,780.4,540.85,786.7,550.38,788.2Z"/><polygon class="cls-10" points="608.5 873.4 623.2 873.4 623.2 898.3 447.08 898.3 447.08 747.7 608.5 747.7 608.5 873.4"/><path class="cls-10" d="M853.32,36.7c-1.06-6.8-7.88-11.9-16-11.9H750.61c-8.7,0-15.88,5.8-16.11,13.2-.59,17.2-7.53,43.5-39.41,67V24.8h-248V747.5H570.61v-24c-1.41-.2-2.82-.5-4.11-.7-115.65-21.9-83.41-143.7-74.71-170.6,17.18-6.8,28.35-17.9,28.35-30.3a17.53,17.53,0,0,0-.11-2.4c-.71-5.7-3.65-11-8.47-15.7a183.93,183.93,0,0,0,36.11-14.7c1.53-.8,2.94-1.6,4.47-2.4C895.91,433.5,863.56,103.9,853.32,36.7Zm-34,117.5c-3.06,39.9-10.71,76.9-22.94,110.1-14.82,40.4-36.47,75-64.12,103.1-28.47,28.9-64.35,51.3-106.35,66.8-4.35,1.6-8.71,3.1-13.18,4.6,70.59-75.3,82.36-174.6,82.36-174.6V145.3c16.7-8.9,30.94-19,42.47-30.5,16.23-16,25.29-32.5,30.11-47.4,1.89-5.9,8.24-10,15.53-10h19.06c8.59,0,15.65,5.7,16.12,12.9C819.67,89.5,821.44,126.2,819.32,154.2Z"/><path class="cls-11" d="M710.61,24.8H184a3.15,3.15,0,0,1-3.3-2.8V4.5A3.15,3.15,0,0,1,184,1.7H710.61a3.15,3.15,0,0,1,3.3,2.8V22.1C713.91,23.6,712.38,24.8,710.61,24.8Z"/><path class="cls-12" d="M695.32,24.8V38.6h-496V24.8Z"/><path class="cls-13" d="M564.73,169.2v.4A21.06,21.06,0,0,1,561,181.4a25.88,25.88,0,0,1-9.88,8.4,20.45,20.45,0,0,1,2,23.2,24.84,24.84,0,0,1-9.42,9.2,29.64,29.64,0,0,1-13.17,3.9,15.94,15.94,0,0,1,.23,3.3c0,6.9-3.53,13.7-10.35,18.3a31.42,31.42,0,0,1-27.06,3.5,24.13,24.13,0,0,1-7.41,10.1A28.9,28.9,0,0,1,473.2,267a31.64,31.64,0,0,1-6.11.6,30,30,0,0,1-20-7.4,29.48,29.48,0,0,1-9.06,5.5,31,31,0,0,1-10.94,2,32.68,32.68,0,0,1-6.12-.6c-9.88-1.9-17.3-8.1-20.12-15.8a33.58,33.58,0,0,1-10,1.6,30.63,30.63,0,0,1-17.06-5.1c-6.82-4.6-10.35-11.4-10.35-18.3,0-1.1.12-2.2.23-3.3a31,31,0,0,1-13.17-3.9,25.48,25.48,0,0,1-9.41-9.2,20.54,20.54,0,0,1-2.83-10.2,20.82,20.82,0,0,1,4.71-13,24.91,24.91,0,0,1-9.88-8.4,21,21,0,0,1-3.77-11.8h0c0-8.6,5.41-16.1,13.53-20.1a21.09,21.09,0,0,1-4.71-13.1,21.43,21.43,0,0,1,2.71-10.1,25,25,0,0,1,9.41-9.3,31,31,0,0,1,13.18-3.9,16.22,16.22,0,0,1-.24-3.4c0-6.8,3.53-13.6,10.24-18.2a30.3,30.3,0,0,1,17.17-5.2,32.74,32.74,0,0,1,9.89,1.5,24.13,24.13,0,0,1,7.41-10.1,30.15,30.15,0,0,1,12.7-5.8,33,33,0,0,1,6.24-.6,30.19,30.19,0,0,1,20,7.3A30.12,30.12,0,0,1,467,71.3a30.53,30.53,0,0,1,6,.6,28.86,28.86,0,0,1,12.7,5.7,23.27,23.27,0,0,1,7.42,10,33.48,33.48,0,0,1,10-1.6,30.57,30.57,0,0,1,17.05,5.1c6.83,4.6,10.47,11.4,10.47,18.3a27.06,27.06,0,0,1-.23,3.2,29.68,29.68,0,0,1,13.18,3.9,24.88,24.88,0,0,1,9.41,9.2,20.63,20.63,0,0,1,2.82,10.2,21.42,21.42,0,0,1-4.59,13,25.61,25.61,0,0,1,9.89,8.3A23.14,23.14,0,0,1,564.73,169.2Z"/><path class="cls-1" d="M447.09,246.6c-50,0-90.59-34.5-90.59-77s40.59-77,90.59-77,90.58,34.5,90.58,77S497.09,246.6,447.09,246.6Zm0-147.4c-45.65,0-82.71,31.6-82.71,70.3s37.18,70.3,82.71,70.3,82.7-31.6,82.7-70.3S492.73,99.2,447.09,99.2Z"/><path class="cls-1" d="M384.5,155.9l-9.3-.9v-2.3h19.18V155l-8.47.9Zm24.35-3.2h2.24l12.82,32.8h-1.77l11.06-32.8h3.53l-12.94,39.6H421l-13.65-33.4h2.24l-12.83,33.4h-2.82L380,152.7h6.58l10.71,32.8h-2Zm.59,3.2-9.06-.9v-2.3h19.18V155l-8.71.9Zm23.53,0-7.41-.9v-2.3h16.23V155l-7.29.9Z"/><path class="cls-1" d="M445.67,155v-2.3h19.89V155l-9.18.9H455Zm10.71,33.6,9.18.9v2.3H445.67v-2.3l9.18-.9Zm-4-17.8c0-6,0-12.1-.24-18.1H459c-.24,5.9-.24,12-.24,18.1v2.9c0,6,0,12.1.24,18.1h-6.83c.24-5.9.24-12,.24-18.1Z"/><path class="cls-1" d="M471.56,189.5l7.41-.9h1.41l8.12.9v2.3H471.44v-2.3Zm4.58-35,4.36,1.4L472,155v-2.3h10.7l29.53,33.4v6.2H510Zm1.53-1.8,3.53,2.3v36.8h-3.53Zm23.42,0h17.05V155l-7.05.9h-1.42l-8.47-.9v-2.3Zm7.41,0H512v39.6l-3.53-2.9Z"/><path class="cls-14" d="M25.18,222.4c12.7,0,12.7-16.7,0-16.7s-12.71,16.7,0,16.7Z"/><path class="cls-14" d="M432.47,95.5c12.71,0,12.71-16.7,0-16.7s-12.71,16.7,0,16.7Z"/><path class="cls-14" d="M805.88,654.6c12.71,0,12.71-16.7,0-16.7s-12.7,16.7,0,16.7Z"/><path class="cls-14" d="M662.59,715.6c12.7,0,12.7-16.7,0-16.7s-12.59,16.7,0,16.7Z"/><path class="cls-15" d="M25.18,146.2c7.06,0,7.06-9.3,0-9.3s-7.06,9.3,0,9.3Z"/><path class="cls-15" d="M100.82,466.7c7.06,0,7.06-9.3,0-9.3s-7.06,9.3,0,9.3Z"/><path class="cls-15" d="M194.24,687.2c7,0,7-9.3,0-9.3s-7.06,9.3,0,9.3Z"/><path class="cls-16" d="M195.06,712.3v47c0-13-11.65-23.5-26.12-23.5C183.41,735.8,195.06,725.2,195.06,712.3Z"/><path class="cls-16" d="M219.53,735.7c-13.53.9-24.12,11.1-24.12,23.4V712.3C195.41,724.6,206,734.8,219.53,735.7Z"/><path class="cls-14" d="M738.12,622.8v46.9c0-13-11.65-23.5-26.12-23.5C726.35,646.2,738.12,635.7,738.12,622.8Z"/><path class="cls-14" d="M762.47,646.2c-13.53.9-24.12,11.1-24.12,23.4V622.8C738.35,635.1,749.06,645.2,762.47,646.2Z"/><path class="cls-14" d="M26.12,338.4v47c0-13-11.65-23.5-26.12-23.5C14.35,361.8,26.12,351.3,26.12,338.4Z"/><path class="cls-14" d="M50.47,361.8c-13.53.9-24.12,11.1-24.12,23.4V338.4C26.35,350.7,36.94,360.8,50.47,361.8Z"/><path class="cls-16" d="M875.53,190.6v47c0-13-11.65-23.5-26.12-23.5C863.88,214.1,875.53,203.6,875.53,190.6Z"/><path class="cls-16" d="M900,214c-13.53.9-24.12,11.1-24.12,23.4V190.6C875.88,203,886.47,213.1,900,214Z"/><path class="cls-17" d="M590.12,47.9v47c0-13-11.65-23.5-26.12-23.5C578.47,71.4,590.12,60.9,590.12,47.9Z"/><path class="cls-17" d="M614.59,71.3c-13.53.9-24.12,11.1-24.12,23.4V47.9C590.47,60.3,601.06,70.4,614.59,71.3Z"/><path class="cls-14" d="M712.82,40.2v47c0-13-11.64-23.5-26.11-23.5C701.06,63.6,712.82,53.1,712.82,40.2Z"/><path class="cls-14" d="M737.18,63.6c-13.53.9-24.12,11.1-24.12,23.4V40.2C713.18,52.5,723.76,62.6,737.18,63.6Z"/><path class="cls-14" d="M288.94,63.5v47c0-13-11.65-23.5-26.12-23.5C277.18,87,288.94,76.4,288.94,63.5Z"/><path class="cls-14" d="M313.29,86.9c-13.53.9-24.11,11.1-24.11,23.4V63.5C289.18,75.8,299.88,86,313.29,86.9Z"/><path class="cls-15" d="M850.35,438.6v46.9c0-13-11.64-23.5-26.11-23.5C838.59,462,850.35,451.5,850.35,438.6Z"/><path class="cls-15" d="M874.71,462c-13.53.9-24.12,11.1-24.12,23.4V438.6C850.59,450.9,861.18,461,874.71,462Z"/></svg>