<svg id="Layer_1" data-name="Layer 1" xmlns="http://www.w3.org/2000/svg" xmlns:xlink="http://www.w3.org/1999/xlink" viewBox="0 0 1500 1500"><defs><style>.cls-1{fill:#37515e;}.cls-2{fill:#fbd9ad;}.cls-3{fill:#fad5a5;}.cls-4{fill:#f5ca93;}.cls-5{fill:#303030;}.cls-6{fill:#232323;}.cls-7{fill:#424242;}.cls-8{fill:#020202;opacity:0.17;}.cls-22,.cls-51,.cls-8{isolation:isolate;}.cls-9{fill:#198f3a;stroke:#161615;stroke-width:1.92px;}.cls-29,.cls-31,.cls-32,.cls-33,.cls-34,.cls-37,.cls-49,.cls-52,.cls-53,.cls-54,.cls-55,.cls-56,.cls-60,.cls-62,.cls-63,.cls-64,.cls-66,.cls-69,.cls-76,.cls-77,.cls-78,.cls-79,.cls-80,.cls-9{stroke-miterlimit:10;}.cls-10{fill:#c7c7c7;}.cls-11{fill:#383838;}.cls-12{fill:#0a0a0a;}.cls-13{fill:#2fbe57;}.cls-14{fill:#fff;}.cls-15,.cls-31,.cls-34,.cls-37,.cls-49,.cls-64,.cls-66,.cls-69,.cls-77{fill:none;}.cls-16{fill:#a827de;}.cls-17{fill:#e81a1a;}.cls-18{fill:#47ed1b;}.cls-19{fill:#dd811f;}.cls-20{fill:#b5b5b5;}.cls-21{fill:#3e3e3e;}.cls-22,.cls-42{opacity:0.27;}.cls-23,.cls-54{fill:#282828;}.cls-24{fill:#c3c3c3;}.cls-25{fill:#dedede;}.cls-26{fill:#5a5a5a;}.cls-27{fill:#5b5b5b;}.cls-28{fill:#a8a8a8;}.cls-29,.cls-32,.cls-33{fill:#2b58a0;}.cls-29,.cls-48,.cls-59,.cls-61,.cls-66{stroke:#000;}.cls-29{stroke-width:0.68px;}.cls-30{opacity:0.3;}.cls-31{stroke:#f9f7f4;}.cls-31,.cls-48{stroke-width:1.36px;}.cls-32{stroke:#f7f9f9;}.cls-32,.cls-33{stroke-width:1.89px;}.cls-33{stroke:#f4f8f9;}.cls-34,.cls-52,.cls-62,.cls-63,.cls-69{stroke:#070707;}.cls-34{stroke-width:1.3px;}.cls-35,.cls-48{fill:#353535;}.cls-36{fill:#171300;}.cls-37{stroke:#171300;stroke-width:4px;}.cls-38,.cls-55,.cls-56{fill:#4d4d4d;}.cls-39,.cls-52{fill:#77401b;}.cls-40,.cls-53{fill:#f8c946;}.cls-41{fill:#d3161d;}.cls-43,.cls-60{fill:#161616;}.cls-44,.cls-61{fill:#8e8a8b;}.cls-45,.cls-62{fill:#e2b647;}.cls-46,.cls-63{fill:#945320;}.cls-47{fill:#dddbd7;}.cls-48,.cls-59,.cls-61{stroke-linejoin:round;}.cls-49{stroke:#171000;stroke-width:5.41px;}.cls-50{fill:#b3b3b3;}.cls-51{fill:#f9f7f7;opacity:0.41;}.cls-52,.cls-53,.cls-59,.cls-69{stroke-width:1.86px;}.cls-53{stroke:#020202;}.cls-54,.cls-55,.cls-56{stroke:#151616;}.cls-54,.cls-55{stroke-width:1.52px;}.cls-56{stroke-width:5.59px;}.cls-57{fill:#683919;}.cls-58{fill:#434444;}.cls-59{fill:#515051;}.cls-60,.cls-64,.cls-76,.cls-77,.cls-78,.cls-79,.cls-80{stroke:#0a0a0a;}.cls-60,.cls-61,.cls-62,.cls-63,.cls-64,.cls-66{stroke-width:1.62px;}.cls-65{fill:#3a3a3a;}.cls-67{fill:#7c7c7c;}.cls-68{fill:#666;}.cls-70{fill:#7f1119;}.cls-71{fill:#5e0e18;}.cls-72{fill:#352f49;}.cls-73{fill:#999;}.cls-74{fill:#dbdddd;}.cls-75{fill:#303435;}.cls-76,.cls-77,.cls-78,.cls-79,.cls-80{stroke-width:0.73px;}.cls-76{fill:url(#radial-gradient);}.cls-78{fill:url(#radial-gradient-2);}.cls-79{fill:url(#radial-gradient-3);}.cls-80{fill:url(#radial-gradient-4);}</style><radialGradient id="radial-gradient" cx="-3028.3" cy="543.48" r="11.52" gradientTransform="matrix(0.98, 0, 0, -0.98, 4187.03, 1329.03)" gradientUnits="userSpaceOnUse"><stop offset="0.2" stop-color="#666"/><stop offset="0.57" stop-color="#585858"/><stop offset="1" stop-color="#4d4d4d"/></radialGradient><radialGradient id="radial-gradient-2" cx="-3074.94" cy="429.49" r="11.52" gradientTransform="matrix(0.98, 0, 0, -0.98, 4217.58, 1337.08)" xlink:href="#radial-gradient"/><radialGradient id="radial-gradient-3" cx="-3026.99" cy="432.33" r="11.52" gradientTransform="matrix(0.98, 0, 0, -0.98, 4215.26, 1324.98)" xlink:href="#radial-gradient"/><radialGradient id="radial-gradient-4" cx="-3070.06" cy="541.53" r="11.52" gradientTransform="matrix(0.98, 0, 0, -0.98, 4188.92, 1339.59)" xlink:href="#radial-gradient"/></defs><title>craft</title><g id="Layer_4" data-name="Layer 4"><rect class="cls-1" x="-0.73" y="0.5" width="1500" height="1500"/></g><g id="Layer_5" data-name="Layer 5"><polygon class="cls-2" points="0 750 1500 546.44 1500 1500 0 1500 0 750"/><path class="cls-3" d="M0,750,1500,546.44v462.19L1382.67,886.09a293.91,293.91,0,0,0-58.51,7c-18.89,4.23-223.06,135.88-242.27,138.31-900.59,113.77-51.11,215.39-648.35,309.2-45.38,7.12,49,138.13,348.15,102.49l718.31,4.45V1500H0V1222.52L1122,964.07c369.82-172.3,137.88-303.32-92.94-249.19L0,847Z"/><polygon class="cls-4" points="0 780.69 1299.87 622.75 0 807.01 0 780.69"/><polygon class="cls-4" points="0 1107.83 783.6 1023.22 0 1134.15 0 1107.83"/><polygon class="cls-5" points="299.46 805.61 634.49 742.29 645.86 762.54 306.06 820.54 299.46 805.61"/><polygon class="cls-5" points="329.21 871.78 664.23 808.46 675.6 828.71 335.8 886.71 329.21 871.78"/><polygon class="cls-6" points="197.69 809.5 198.19 793.74 317.85 789.15 384.39 921.24 383.89 937.01 261.22 959.25 197.69 809.5"/><polygon class="cls-7" points="198.19 793.74 318.35 773.38 384.39 921.24 261.72 943.48 198.19 793.74"/><polygon class="cls-5" points="198.19 793.74 197.69 809.5 261.22 959.25 261.72 943.48 198.19 793.74"/><polygon class="cls-6" points="334.25 782.89 334.75 767.12 454.41 762.54 520.95 894.63 520.45 910.4 397.78 932.63 334.25 782.89"/><polygon class="cls-7" points="334.75 767.12 454.91 746.77 520.95 894.63 398.28 916.87 334.75 767.12"/><polygon class="cls-5" points="334.75 767.12 334.25 782.89 397.78 932.63 398.28 916.87 334.75 767.12"/><polygon class="cls-6" points="470.39 758.06 470.89 742.29 590.55 737.71 657.09 869.8 656.59 885.57 533.92 907.8 470.39 758.06"/><polygon class="cls-7" points="470.89 742.29 591.05 721.94 657.09 869.8 534.42 892.04 470.89 742.29"/><polygon class="cls-6" points="603.33 735.27 603.83 719.5 723.49 714.92 790.03 847.01 789.53 862.78 666.86 885.01 603.33 735.27"/><polygon class="cls-7" points="603.83 719.5 723.99 699.15 790.03 847.01 667.36 869.25 603.83 719.5"/><polygon class="cls-5" points="470.89 742.29 470.39 758.06 533.92 907.8 534.42 892.04 470.89 742.29"/><polygon class="cls-6" points="1002.61 661.09 1003.11 645.32 1122.78 640.74 1189.32 772.83 1188.82 788.6 1066.14 810.83 1002.61 661.09"/><polygon class="cls-7" points="1003.11 645.32 1123.28 624.97 1189.32 772.83 1066.64 795.07 1003.11 645.32"/><polygon class="cls-5" points="1003.11 645.32 1002.61 661.09 1066.14 810.83 1066.64 795.07 1003.11 645.32"/><polygon class="cls-4" points="0 1292.08 1499.28 1133.23 0 1318.41 0 1292.08"/><rect class="cls-8" x="16.63" y="1011.47" width="247.49" height="151.53" rx="10.31" transform="translate(-789.99 507.4) rotate(-50.71)"/><rect class="cls-9" x="18.84" y="1021.05" width="248.76" height="152.31" rx="10.36" transform="translate(-795.33 511.12) rotate(-50.58)"/><g id="Rectangle_6" data-name="Rectangle 6"><path class="cls-10" d="M237.75,1075.27l8.51-10.27-19.17-15.87L243,1030l-10.27-8.5-15.87,19.17-9.25-7.65,15.87-19.17-9.92-8.22-15.88,19.17-9.58-7.94L204,997.69l-10-8.27-15.87,19.17-19.51-16.15-8.51,10.27,19.52,16.15-7.65,9.25L142.46,1012l-8.22,9.93L153.76,1038l-7.94,9.58-19.51-16.15-8.22,9.92,19.51,16.16L121.44,1077l9.93,8.22,16.16-19.51,9.58,7.93L141,1093.22l9.93,8.22L167,1081.92l9.24,7.66-16.15,19.51,10.27,8.5,16.15-19.51L205.73,1114l8.27-10-19.18-15.87,7.94-9.58,19.17,15.87,8.22-9.93L211,1068.62l7.65-9.24Zm-58.19-48.19,9.58,7.94-7.65,9.24-9.59-7.93Zm-23.81,28.76,7.93-9.58,9.59,7.93-7.94,9.59Zm28.75,23.81-9.24-7.65,7.94-9.59,9.24,7.65Zm16.16-19.51-9.24-7.66,7.65-9.24,9.24,7.65Z"/></g><g id="Rounded_Rectangle_2" data-name="Rounded Rectangle 2"><rect class="cls-11" x="144.64" y="1015.57" width="75.45" height="75.44" transform="translate(-745.27 522.09) rotate(-50.38)"/><path class="cls-12" d="M178.21,1009.38l48.09,39.82-39.82,48.1-48.1-39.82,39.83-48.1m-1.14-16.49a4.44,4.44,0,0,0-3.42,1.61l-50.74,61.27a4.45,4.45,0,0,0,.59,6.26l61.28,50.74a4.45,4.45,0,0,0,6.26-.59l50.73-61.28a4.43,4.43,0,0,0-.58-6.25h0l-61.27-50.73a4.45,4.45,0,0,0-2.84-1Z"/></g><g id="Rounded_Rectangle_3" data-name="Rounded Rectangle 3"><rect class="cls-13" x="76.01" y="1148.78" width="92.72" height="46.63" rx="10.67" transform="translate(-858.52 518.92) rotate(-50.38)"/></g><g id="Rectangle_8" data-name="Rectangle 8"><rect class="cls-13" x="83.13" y="1154.91" width="78.88" height="35.33" transform="translate(-858.81 519.24) rotate(-50.38)"/><path class="cls-14" d="M134.17,1131.74l26.35,21.82-49.59,59.9-26.36-21.81,49.6-59.91m-.15-1.57-51,61.62L111.07,1215l51-61.62L134,1130.17Z"/></g><g id="Rounded_Rectangle_3_copy" data-name="Rounded Rectangle 3 copy"><rect class="cls-13" x="29.22" y="1097.5" width="92.72" height="30.19" rx="6.22" transform="translate(-829.64 461.32) rotate(-50.38)"/></g><g id="Ellipse_1_copy_2_Rectangle_7_copy_Clipping_Path" data-name="Ellipse 1 copy 2 Rectangle 7 copy Clipping Path"><circle class="cls-15" cx="108.17" cy="1189.66" r="12.89" transform="translate(-1082.35 1287.86) rotate(-89.52)"/></g><g id="Rounded_Rectangle_4" data-name="Rounded Rectangle 4"><rect class="cls-16" x="45.5" y="1128.6" width="12.89" height="25.78" rx="4.44" transform="translate(-860.46 453.58) rotate(-50.38)"/></g><g id="Shape_5" data-name="Shape 5"><polygon class="cls-13" points="127.38 1081.39 125.66 1079.98 114.39 1093.73 110.73 1090.7 109.32 1092.41 112.98 1095.44 98.33 1113.32 94.58 1110.21 93.16 1111.92 96.92 1115.03 82.54 1132.56 78.7 1129.38 77.29 1131.09 81.14 1134.28 65.92 1152.84 61.98 1149.58 60.56 1151.29 66.04 1155.83 66.89 1154.8 67.07 1154.94 127.38 1081.39"/></g><g id="Shape_5_copy" data-name="Shape 5 copy"><polygon class="cls-13" points="96.62 1056.52 94.92 1055.09 33.92 1128.07 34.09 1128.21 33.24 1129.24 38.71 1133.78 40.13 1132.07 36.2 1128.81 51.59 1110.39 55.44 1113.58 56.85 1111.87 53.02 1108.69 67.55 1091.3 71.31 1094.41 72.73 1092.7 68.98 1089.59 83.8 1071.86 87.47 1074.89 88.88 1073.18 85.22 1070.15 96.62 1056.52"/></g><g id="Shape_5_copy_2" data-name="Shape 5 copy 2"><path class="cls-13" d="M149.57,991.87l-1.72-1.41L94.91,1055.1l1.72,1.41,19.14-23.38,5.78,4.78,1.41-1.71-5.78-4.79,14.65-17.88,5.87,4.87,1.42-1.71-5.89-4.88Zm.17.14-1.42,1.71,5.48,4.54,1.42-1.71Z"/></g><g id="Shape_6" data-name="Shape 6"><rect class="cls-13" x="99.56" y="1140.92" width="179.11" height="2.22" transform="translate(-812.59 561.88) rotate(-50.52)"/></g><g id="Shape_7" data-name="Shape 7"><rect class="cls-13" x="128.01" y="1202.75" width="2.22" height="8.89" transform="translate(-883.11 536.83) rotate(-50.38)"/></g><g id="Shape_8" data-name="Shape 8"><rect class="cls-13" x="156.15" y="1169.42" width="2.22" height="8.89" transform="translate(-847.24 546.44) rotate(-50.38)"/></g><g id="Shape_9" data-name="Shape 9"><rect class="cls-13" x="210.69" y="1108.22" width="2.22" height="5.78" transform="translate(-779.14 565.72) rotate(-50.38)"/></g><g id="Shape_10" data-name="Shape 10"><rect class="cls-13" x="226.85" y="1088.28" width="2.22" height="6.67" transform="translate(-758.27 571.09) rotate(-50.38)"/></g><g id="Shape_11" data-name="Shape 11"><rect class="cls-13" x="242.88" y="1069.5" width="2.22" height="6.22" transform="translate(-737.82 576.56) rotate(-50.38)"/></g><g id="Rounded_Rectangle_5" data-name="Rounded Rectangle 5"><rect class="cls-17" x="61.65" y="1109.09" width="12.89" height="25.78" rx="4.44" transform="translate(-839.58 458.96) rotate(-50.38)"/></g><g id="Rounded_Rectangle_6" data-name="Rounded Rectangle 6"><rect class="cls-18" x="77.45" y="1089.74" width="13.33" height="25.78" rx="4.44" transform="translate(-818.87 464.28) rotate(-50.38)"/></g><g id="Rounded_Rectangle_7" data-name="Rounded Rectangle 7"><rect class="cls-19" x="93.67" y="1070.4" width="12.89" height="25.78" rx="4.44" transform="translate(-798.17 469.6) rotate(-50.38)"/></g><path class="cls-20" d="M135.34,1170.42a13.69,13.69,0,1,1,6.68-1.77A13.69,13.69,0,0,1,135.34,1170.42Z"/><path class="cls-21" d="M135.31,1141.57v3.11a12.09,12.09,0,0,1,5.95,22.62h0a12.08,12.08,0,1,1-5.9-22.64v-3.11m0,0a15.2,15.2,0,1,0,7.42,28.47h.06a15.2,15.2,0,0,0-7.48-28.44Z"/><path class="cls-20" d="M149.7,1161.69a15.14,15.14,0,0,1-6.91,8.32h-.06l-2.73-2.39,7-8Z"/><path class="cls-20" d="M108.81,1199a10,10,0,1,1,4.89-1.29A10,10,0,0,1,108.81,1199Z"/><path class="cls-21" d="M108.79,1177.9v2.27a8.83,8.83,0,1,1-4.33,1.14,8.85,8.85,0,0,1,4.33-1.14v-2.27m0,0a11.11,11.11,0,1,0,5.42,20.81h.05a11.11,11.11,0,0,0-5.47-20.78Z"/><path class="cls-20" d="M119.31,1192.6a11,11,0,0,1-5,6.08h0l-2-1.75,5.12-5.83Z"/><path class="cls-22" d="M675.49,1236l-19.64-12.61-37.47,4.76L596,1251.37l-162.27,82.76s-15.61-17.65-19-14c-6.17,3-15.35,8.93-15.35,8.93l-9.73,22.8-22.26,11.89s-13.77-10.9-23.76-5-91.41,44.72-91.41,44.72-6.75,14.63-.52,29.36S675.49,1236,675.49,1236Z"/><g id="Rounded_Rectangle_1_Rounded_Rectangle_4_Clipping_Path" data-name="Rounded Rectangle 1 Rounded Rectangle 4 Clipping Path"><path class="cls-23" d="M454.94,1396.2l-28.19-54.77a9.11,9.11,0,0,0-12.26-3.92l-8.87,4.57c-4.58,2.35-4,18.58-11.17,22.28l-17.53,9c-5.83,3-18.72-6.9-25-3.65l-98,50.44a9.11,9.11,0,0,0-3.92,12.26l28.2,54.77a9.1,9.1,0,0,0,12.25,3.92l97.92-50.42c6.25-3.21,5.14-20.36,10.93-23.34l17.12-8.82c6.94-3.57,20.14,7.35,24.74,5l9.86-5.08A9.09,9.09,0,0,0,454.94,1396.2Z"/></g><g id="Rectangle_1" data-name="Rectangle 1"><polygon class="cls-24" points="675.5 1236.01 631.34 1243.82 610.02 1264.22 433.73 1354.99 447.51 1381.75 623.46 1291.16 652.13 1286.61 684.8 1254.08 675.5 1236.01"/></g><g id="Rectangle_1_copy" data-name="Rectangle 1 copy"><polygon class="cls-25" points="670.1 1241.15 634.77 1247.4 591.43 1291.28 651.41 1281.63 677.54 1255.6 670.1 1241.15"/></g><path class="cls-26" d="M271.25,1443l83.53-43a11.51,11.51,0,0,1,15.51,5h0a11.53,11.53,0,0,1-5,15.52l-83.53,43a11.51,11.51,0,0,1-15.51-5h0A11.52,11.52,0,0,1,271.25,1443Z"/><path class="cls-26" d="M343.7,1385.58l-75,38.6a10.37,10.37,0,0,1-13.93-4.45l93.35-48.07A10.36,10.36,0,0,1,343.7,1385.58Z"/><path class="cls-26" d="M370.77,1438.15l-75,38.6a10.37,10.37,0,0,0-4.46,13.92l93.35-48.06A10.36,10.36,0,0,0,370.77,1438.15Z"/><path class="cls-8" d="M373.54,1021.41l-9.88-8.88s-47.27,18.91-52,53.57c-1.05,11.55-1.58,8.4,0,17.33,2.62,3.68,1.57,14.71-5.78,25.21s-98.73,131.29-132.35,161.76c0,0-24.68-11.56-42,13.65-13.66,24.68-19.43,41.49-19.43,41.49l7.35,5.25s23.63-30.46,40.44-27.31,28.36,11,29.93,27.31c-3.15,14.71-8.92,29.41-27.83,43.59l4.73,7.35s43.06-12.07,52.52-38.33,3.67-44.12-2.63-49.37c10-9.45,118.17-155.46,133.4-160.18,7.35-4.73,12.07-7.88,12.07-7.88s32.57,7.35,46.75-20.48,13-26.48,14.51-38.69a49.32,49.32,0,0,0-8.21-8s-13.13,33.61-38.87,31.51c0,0-31-3.56-30.48-28.34S373.54,1021.41,373.54,1021.41Z"/><path class="cls-27" d="M376.74,1021.91l-6.79-5.19s-47.27,18.91-52,53.57c-1,11.56-1.58,8.4,0,17.33,2.62,3.68,1.57,14.71-5.78,25.21s-98.74,131.3-132.35,161.76c0,0-24.68-11.56-42,13.65-13.66,24.69-19.43,41.49-19.43,41.49l7.35,5.25s23.63-30.46,40.44-27.31,28.36,11,29.93,27.31c-3.15,14.71-8.92,29.41-27.83,43.59l4.73,7.36s5,4.46,6.78,5.19c9-2.9,37.58-20.88,45.73-43.53,9.46-26.26,3.68-44.12-2.62-49.37,10-9.45,118.16-155.45,133.39-160.18,7.36-4.73,12.08-7.88,12.08-7.88s32.56,7.35,46.74-20.48,11.54-29.33,13.1-41.55a31.44,31.44,0,0,0-6.79-5.19s-13.13,33.61-38.87,31.51c0,0-31-3.56-30.48-28.33S376.74,1021.91,376.74,1021.91Z"/><path class="cls-28" d="M386.62,1030.79l-9.88-8.88s-47.27,18.91-52,53.57c-1.06,11.56-1.58,8.41,0,17.33,2.62,3.68,1.57,14.71-5.78,25.21s-98.74,131.3-132.35,161.76c0,0-24.68-11.55-42,13.65-13.66,24.69-19.43,41.49-19.43,41.49l7.35,5.26s23.63-30.47,40.44-27.31,28.36,11,29.93,27.31c-3.15,14.7-8.93,29.41-27.83,43.59l4.72,7.35s43.07-12.08,52.52-38.34,3.68-44.12-2.62-49.37c10-9.45,118.16-152.35,133.39-160.18,6.16-6.25,12.08-7.88,12.08-7.88s30.31,6.09,46.74-20.48c10.36-16.74,13-26.47,14.52-38.69a49.32,49.32,0,0,0-8.21-8s-13.13,33.61-38.87,31.51c0,0-31-3.56-30.48-28.33S386.62,1030.79,386.62,1030.79Z"/><rect class="cls-29" x="-242.14" y="-95.12" width="1307.41" height="735.42" transform="translate(-35.08 62.35) rotate(-8.31)"/><g class="cls-30"><line class="cls-31" x1="-281.67" y1="49.43" x2="1012.3" y2="-137.56"/><line class="cls-31" x1="-274.71" y1="97.1" x2="1019.26" y2="-89.88"/><line class="cls-31" x1="-266.64" y1="146.24" x2="1027.33" y2="-40.74"/><line class="cls-31" x1="-259.67" y1="193.92" x2="1034.3" y2="6.94"/><line class="cls-31" x1="-250.79" y1="243.59" x2="1043.18" y2="56.61"/><line class="cls-31" x1="-243.82" y1="291.27" x2="1050.15" y2="104.28"/><line class="cls-31" x1="-239.5" y1="340.6" x2="1054.47" y2="153.62"/><line class="cls-31" x1="-232.53" y1="388.27" x2="1061.44" y2="201.29"/><line class="cls-31" x1="-224.46" y1="437.42" x2="1069.51" y2="250.43"/><line class="cls-31" x1="-217.49" y1="485.09" x2="1076.48" y2="298.11"/><line class="cls-31" x1="-208.61" y1="534.77" x2="1085.36" y2="347.78"/><line class="cls-31" x1="-201.64" y1="582.44" x2="1092.33" y2="395.46"/><line class="cls-31" x1="-193.48" y1="630.39" x2="1100.49" y2="443.41"/><line class="cls-31" x1="-186.52" y1="678.06" x2="1107.45" y2="491.08"/><polyline class="cls-31" points="8.47 703.08 0.94 650.98 -5.95 603.29 -12.9 555.16 -19.8 507.48 -27.01 457.57 -33.9 409.88 -41.02 360.6 -47.91 312.91 -54.98 263.98 -61.87 216.29 -69.09 166.38 -75.97 118.7 -83.1 69.41 -89.99 21.72 -96.71 -24.78"/><polyline class="cls-31" points="58.38 695.79 50.86 643.77 43.96 596.08 37.01 547.95 30.12 500.27 22.91 450.35 16.01 402.66 8.89 353.39 2 305.7 -5.07 256.77 -11.96 209.08 -19.18 159.17 -26.06 111.48 -33.19 62.2 -40.08 14.51 -46.81 -32.07"/><polyline class="cls-31" points="106.05 688.82 98.54 636.87 91.64 589.19 84.7 541.06 77.8 493.38 70.59 443.47 63.7 395.78 56.58 346.5 49.69 298.81 42.62 249.88 35.72 202.19 28.51 152.28 21.62 104.59 14.5 55.31 7.61 7.62 0.87 -39.04"/><polyline class="cls-31" points="154.98 681.67 147.48 629.8 140.59 582.11 133.63 533.99 126.75 486.31 119.53 436.39 112.64 388.7 105.52 339.42 98.63 291.74 91.56 242.81 84.67 195.12 77.45 145.2 70.56 97.52 63.44 48.23 56.55 0.55 49.8 -46.19"/><polyline class="cls-31" points="202.65 674.71 195.16 622.91 188.28 575.23 181.32 527.1 174.43 479.42 167.22 429.5 160.32 381.81 153.2 332.54 146.31 284.85 139.24 235.92 132.35 188.23 125.14 138.31 118.24 90.63 111.13 41.35 104.23 -6.34 97.47 -53.15"/><polyline class="cls-31" points="251.91 667.51 244.45 615.79 237.55 568.1 230.6 519.98 223.71 472.29 216.5 422.38 209.6 374.69 202.49 325.41 195.59 277.73 188.52 228.8 181.63 181.11 174.41 131.19 167.53 83.51 160.4 34.22 153.51 -13.46 146.74 -60.35"/><polyline class="cls-31" points="299.59 660.54 292.13 608.9 285.24 561.21 278.29 513.09 271.39 465.4 264.18 415.49 257.29 367.8 250.17 318.52 243.27 270.83 236.21 221.91 229.31 174.22 222.1 124.3 215.21 76.62 208.09 27.33 201.2 -20.36 194.41 -67.32"/><polyline class="cls-31" points="349.49 653.25 342.04 601.69 335.15 554 328.2 505.87 321.31 458.19 314.1 408.28 307.2 360.59 300.08 311.31 293.19 263.62 286.12 214.69 279.23 167.01 272.01 117.09 265.12 69.41 258 20.12 251.11 -27.57 244.31 -74.61"/><polyline class="cls-31" points="397.17 646.28 389.73 594.79 382.83 547.11 375.89 498.99 368.99 451.3 361.78 401.38 354.89 353.7 347.77 304.42 340.88 256.73 333.81 207.8 326.92 160.11 319.7 110.19 312.81 62.51 305.69 13.23 298.8 -34.46 291.99 -81.58"/><polyline class="cls-31" points="445.28 639.25 437.86 587.84 430.96 540.16 424.01 492.03 417.12 444.35 409.9 394.43 403.01 346.74 395.89 297.47 389 249.78 381.93 200.85 375.04 153.16 367.83 103.24 360.94 55.56 353.81 6.28 346.93 -41.41 340.11 -88.61"/><polyline class="cls-31" points="492.95 632.29 485.54 580.95 478.65 533.26 471.69 485.14 464.8 437.46 457.59 387.54 450.7 339.86 443.58 290.58 436.69 242.89 429.61 193.95 422.72 146.27 415.51 96.35 408.62 48.67 401.5 -0.61 394.61 -48.3 387.78 -95.57"/><polyline class="cls-31" points="542.68 625.02 535.27 573.77 528.39 526.08 521.43 477.95 514.54 430.26 507.33 380.35 500.44 332.66 493.32 283.39 486.43 235.7 479.35 186.77 472.47 139.08 465.25 89.16 458.36 41.48 451.24 -7.8 444.35 -55.49 437.5 -102.84"/><polyline class="cls-31" points="590.36 618.05 582.96 566.88 576.08 519.19 569.12 471.06 562.23 423.38 555.02 373.46 548.13 325.78 541.01 276.5 534.11 228.81 527.04 179.88 520.15 132.19 512.94 82.28 506.05 34.59 498.93 -14.69 492.03 -62.38 485.18 -109.8"/><polyline class="cls-31" points="639.63 610.85 632.25 559.75 625.35 512.06 618.4 463.94 611.51 416.25 604.29 366.34 597.4 318.65 590.28 269.38 583.39 221.69 576.33 172.76 569.43 125.07 562.22 75.15 555.33 27.46 548.2 -21.82 541.31 -69.5 534.45 -117"/><polyline class="cls-31" points="687.3 603.89 679.93 552.87 673.04 505.18 666.09 457.05 659.19 409.36 651.98 359.45 645.09 311.76 637.97 262.49 631.08 214.8 624.01 165.87 617.11 118.18 609.9 68.26 603.01 20.58 595.89 -28.7 589 -76.39 582.12 -123.97"/><polyline class="cls-31" points="737.21 596.6 729.85 545.65 722.95 497.96 716 449.84 709.11 402.15 701.9 352.24 695 304.55 687.88 255.27 680.99 207.58 673.93 158.66 667.03 110.97 659.82 61.05 652.93 13.36 645.8 -35.92 638.92 -83.61 632.03 -131.26"/><polyline class="cls-31" points="784.89 589.63 777.53 538.75 770.64 491.07 763.69 442.95 756.8 395.26 749.58 345.35 742.69 297.66 735.57 248.38 728.68 200.69 721.61 151.76 714.72 104.08 707.51 54.16 700.62 6.47 693.49 -42.81 686.61 -90.5 679.71 -138.23"/><polyline class="cls-31" points="833.81 582.48 826.46 531.69 819.58 484 812.62 435.87 805.73 388.19 798.52 338.28 791.63 290.59 784.51 241.31 777.62 193.62 770.54 144.69 763.66 97 756.44 47.09 749.55 -0.6 742.43 -49.88 735.54 -97.57 728.63 -145.38"/><polyline class="cls-31" points="881.49 575.51 874.15 524.79 867.27 477.11 860.31 428.98 853.42 381.3 846.21 331.39 839.32 283.7 832.2 234.42 825.3 186.73 818.23 137.8 811.35 90.11 804.13 40.2 797.23 -7.49 790.12 -56.77 783.22 -104.46 776.31 -152.34"/><polyline class="cls-31" points="930.75 568.32 923.43 517.68 916.54 469.99 909.59 421.86 902.7 374.17 895.49 324.26 888.59 276.57 881.47 227.3 874.58 179.61 867.51 130.68 860.62 82.99 853.41 33.08 846.51 -14.61 839.39 -63.89 832.5 -111.58 825.57 -159.54"/><polyline class="cls-31" points="978.42 561.35 971.12 510.78 964.23 463.1 957.28 414.97 950.38 367.28 943.17 317.38 936.28 269.69 929.16 220.41 922.27 172.72 915.2 123.79 908.3 76.1 901.09 26.19 894.2 -21.5 887.08 -70.78 880.19 -118.47 873.25 -166.51"/><polyline class="cls-31" points="1028.33 554.06 1021.04 503.57 1014.14 455.88 1007.19 407.76 1000.3 360.07 993.09 310.16 986.19 262.47 979.08 213.2 972.18 165.51 965.12 116.57 958.22 68.89 951.01 18.97 944.12 -28.71 937 -77.99 930.11 -125.68 923.15 -173.8"/><polyline class="cls-31" points="1076.01 547.09 1068.72 496.68 1061.83 448.99 1054.88 400.87 1047.98 353.18 1040.78 303.27 1033.88 255.59 1026.76 206.31 1019.87 158.62 1012.8 109.68 1005.9 61.99 998.69 12.08 991.8 -35.6 984.68 -84.88 977.79 -132.57 970.83 -180.77"/></g></g><g id="Layer_3" data-name="Layer 3"><path class="cls-32" d="M728.08,441.56a78.49,78.49,0,0,0-5-12.07c-8.3-16.21-33.88-65.22-54.07-93.81-11.89-16.83-19.35-28.47-25.5-37.08a80.55,80.55,0,0,0-27.18-24c-7.18-3.88-15.41-8.21-27.09-10.46-15.23-2.94-30.6,0-45.33,4.85-36.71,12.12-56.76,16.6-63.72,20.28-6.35,6.3-31.45,44.83-28.44,72.92,2.18,20.27,8.77,47.21,26.78,66.07s93.54,111.31,118.68,108.87c29.35-2.85,102.81-20.57,121.55-40.25C735.59,479.25,734.2,461,728.08,441.56Z"/><path class="cls-32" d="M645.22,467.47a78.49,78.49,0,0,0-5-12.07c-8.3-16.21-33.88-65.22-54.07-93.8-11.89-16.84-19.35-28.48-25.5-37.09a80.49,80.49,0,0,0-27.18-23.95c-7.19-3.88-15.42-8.21-27.09-10.46a79.22,79.22,0,0,0-45.32,4.9c-28,11.61-44.38,29.82-49.76,35.17-6.36,6.3-32.84,31.17-29.83,59.26,2.18,20.27,8.77,47.2,26.78,66.07s125.82,76.34,150.93,79,58,8,76.73-11.65C652.73,505.16,651.34,486.9,645.22,467.47Z"/><ellipse class="cls-32" cx="453.09" cy="393.68" rx="45.29" ry="56.68" transform="translate(-61.59 84.84) rotate(-10.02)"/><ellipse class="cls-32" cx="523.97" cy="463.03" rx="32.45" ry="40.61" transform="translate(-72.57 98.23) rotate(-10.02)"/><ellipse class="cls-32" cx="593.18" cy="483.25" rx="25.53" ry="31.95" transform="translate(-75.03 110.58) rotate(-10.02)"/><path class="cls-32" d="M669,335.68l-23.4-17.5,7.85,47.68S606,306.23,607,308.88s17.91,38.35,17.91,38.35l-28.18-20.41,17.34,38.37-29.48-19.8,9.22,19.46L582,355.74l55.5,62.87L621.7,385.35l33.61,30.12L639,375.35l28.49,27.29L660,357l15.16,18.87-18.84-39.68,23.14,29.65Z"/><polygon class="cls-32" points="550.15 267.12 582.66 276.85 551.48 274.62 577.56 286.15 530.92 277.51 540.66 284.27 508.29 280.16 550.15 267.12"/><ellipse class="cls-32" cx="450.24" cy="394.18" rx="15.4" ry="21.18" transform="translate(-61.72 84.35) rotate(-10.02)"/><ellipse class="cls-32" cx="522.89" cy="464.89" rx="18.28" ry="13.3" transform="translate(23.17 954.59) rotate(-86.06)"/><ellipse class="cls-32" cx="593.62" cy="485.39" rx="13.55" ry="9.85" transform="translate(68.59 1044.26) rotate(-86.06)"/><path class="cls-32" d="M650.13,141.68,535.6,205.45c-19.82,10.25-31.92,20.89-23.34,40.61h0c10.45,18.27,21.28,15.23,41,8.65l133.84-42.1a39.22,39.22,0,0,0,20.25-51.46h0C698.81,141.43,669.85,133.09,650.13,141.68Z"/><path class="cls-32" d="M641.33,146.4,521,211c-19.82,10.26-2.06,55.85,17.7,49.26l133.83-42.1a39.21,39.21,0,0,0,20.26-51.46h0A39.22,39.22,0,0,0,641.33,146.4Z"/><path class="cls-32" d="M687.7,150.76s-3.35-5.72-15.41-8.21c6.78-15.47,28.46-50.25,34.92-50.58,4.4-.23,11.54,3.17,18.18,6.61,5.94,3.09,7.73,10.66,3.08,15.49-13.9,14.43-36,36.06-36,36.06Z"/><path class="cls-32" d="M672,142.49C678.77,127,695.76,91,702.23,90.61c4.4-.23,11.92,2.55,18.4,5.41a9.62,9.62,0,0,1,3.09,15.49c-13.9,14.43-34.47,39.5-36.14,39.76A20.18,20.18,0,0,0,672,142.49Z"/><path class="cls-32" d="M701.21,173.34s.8-6.58-7.3-15.86c14.76-8.22,53.06-22.8,58.41-19.16,3.64,2.48,7.27,9.5,10.47,16.26,2.87,6.06-.29,13.17-6.91,14.2-19.8,3.09-50.47,6.95-50.47,6.95Z"/><path class="cls-32" d="M693.71,157.25c14.76-8.22,50.11-26.67,55.46-23,3.64,2.47,8,9.23,11.38,15.43a9.64,9.64,0,0,1-6.91,14.21c-19.79,3.08-51.33,10.6-52.82,9.8A20.22,20.22,0,0,0,693.71,157.25Z"/><path class="cls-32" d="M694.1,201.45s5-4.41,5-16.72c16.5,3.62,44.38,8.84,46,15.12,1.08,4.27,1.35,4.8-.73,12-1.86,6.44-8.52,8.92-14.58,6A167.66,167.66,0,0,0,695.66,206Z"/><path class="cls-32" d="M699.14,184.42c16.5,3.62,44.74,4,46.33,10.27,1.09,4.27,2,5.05.51,12-1.46,6.54-8.49,8.83-14.59,6.05-18.19-8.27-37.22-9.7-37.8-11.29A20.17,20.17,0,0,0,699.14,184.42Z"/><path class="cls-32" d="M654.42,139.77l12.41,2.36s3.62-2.14,4.36-2.67c4.21-3,8.37-43.84.12-44.56s-19.37.88-20.73,3.45c-.17.32-2.82,3.17-2.82,3.17S652.66,141.22,654.42,139.77Z"/><path class="cls-32" d="M650.05,142.45a26.89,26.89,0,0,1,8.62-1.5,46.8,46.8,0,0,1,8.16,1.18c5.09.91,8.36-43.84.11-44.56s-18.41,2.09-19.77,4.66S648.05,144.11,650.05,142.45Z"/><ellipse class="cls-32" cx="655.66" cy="181.71" rx="15.32" ry="13.82" transform="translate(352.82 790.97) rotate(-79.06)"/><path class="cls-32" d="M600.47,224.35s-115.4-32.24-164.7-32.19c0,0-129.83,15.79-239.32,42.51,14.81,7.43,135.25,34.15,151.72,34.48S559,238.05,600.47,224.35Z"/><path class="cls-32" d="M382.55,251.24s-47.75-17.8-52.4-18.47,82.28-19,82.28-19S458.68,230.33,462,232.5,382.55,251.24,382.55,251.24Z"/><path class="cls-32" d="M196.59,234.78s22.07,185,43.92,229c15.72,9.17,117.67,35.27,147.87,29.93-.32-21.6-29-210.61-40.06-224.43C335.55,262.47,244.9,239.72,196.59,234.78Z"/><path class="cls-32" d="M602,224.48s20,93,28.7,162.35c3.36,26.71-17.57,56.94-21.69,58.68-8.12,10.6-229.17,54.89-243.94,48.31,0,0,21.25-23.83,14.54-60.29-8.38-45.55-21.42-109.07-31.32-164.27C355.81,263.54,561.15,225.52,602,224.48Z"/><path class="cls-33" d="M455.17,525.9a78.49,78.49,0,0,0-5-12.07c-8.31-16.22-33.88-65.22-54.07-93.81-11.9-16.84-19.35-28.48-25.51-37.08A80.43,80.43,0,0,0,343.42,359c-7.18-3.88-15.41-8.22-27.08-10.47-15.24-2.94-30.6,0-45.33,4.85-36.72,12.12-56.77,16.6-63.73,20.28-6.35,6.31-31.44,44.84-28.43,72.93,2.17,20.27,8.77,47.2,26.77,66.07S299.17,624,324.31,621.51c29.34-2.84,102.8-20.56,121.54-40.25C462.67,563.59,461.28,545.33,455.17,525.9Z"/><path class="cls-33" d="M372.31,551.81a78.49,78.49,0,0,0-5-12.07c-8.31-16.22-33.89-65.22-54.08-93.81-11.89-16.84-19.34-28.48-25.5-37.08a80.55,80.55,0,0,0-27.18-24c-7.18-3.88-15.41-8.22-27.09-10.47a79.21,79.21,0,0,0-45.32,4.85c-28,11.62-44.38,29.82-49.77,35.17-6.35,6.31-32.83,31.18-29.82,59.27,2.17,20.27,8.77,47.2,26.77,66.07s125.82,76.33,150.93,79,58,8,76.73-11.66C379.81,589.5,378.42,571.24,372.31,551.81Z"/><ellipse class="cls-33" cx="180.18" cy="478" rx="45.29" ry="56.68" transform="translate(-80.42 38.64) rotate(-10.02)"/><ellipse class="cls-33" cx="251.04" cy="547.35" rx="32.45" ry="40.61" transform="translate(-91.41 52.03) rotate(-10.02)"/><ellipse class="cls-33" cx="320.26" cy="567.58" rx="25.53" ry="31.95" transform="translate(-93.87 64.38) rotate(-10.02)"/><path class="cls-33" d="M396.11,420l-23.4-17.5,7.84,47.67s-47.48-59.62-46.43-57S352,431.57,352,431.57l-28.18-20.42,17.34,38.38-29.47-19.8,9.21,19.46-11.78-9.12,55.5,62.87-15.85-33.25L382.4,499.8l-16.33-40.12L394.56,487l-7.48-45.59,15.16,18.86L383.4,420.56l23.13,29.66Z"/><polygon class="cls-33" points="277.24 351.46 309.74 361.19 278.56 358.96 304.65 370.48 258 361.85 267.74 368.61 235.37 364.49 277.24 351.46"/><ellipse class="cls-33" cx="177.33" cy="478.5" rx="15.4" ry="21.18" transform="translate(-80.55 38.15) rotate(-10.02)"/><ellipse class="cls-33" cx="249.95" cy="549.22" rx="18.28" ry="13.3" transform="matrix(0.07, -1, 1, 0.07, -315.15, 760.83)"/><ellipse class="cls-33" cx="320.69" cy="569.73" rx="13.55" ry="9.85" transform="translate(-269.73 850.51) rotate(-86.06)"/><path class="cls-33" d="M330.38,522.2s-9.38-13.2-30.1-2.52c-5.46-8.63-17.75-32.4-56-23.26.51-8.91,9.73-48.61-25-80.53,10.54-6.9,17-11.4,34.3,4S331.24,517.57,330.38,522.2Z"/><path class="cls-32" d="M361.26,157.7,372.18,227,433,218.05c10.15-1.6,15.94-18.41,12.93-37.55s-13.71-33.35-23.86-31.75c-3.41.54-6.33,2.79-8.6,6.29Z"/><path class="cls-32" d="M628.11,103.76s-20.37,19.46-59.32,30.77c-17.31,5-40.73,6.67-63.5,7.31-74,2.11-112.21-30.54-112.21-30.54S390,60.62,388.31,43.71s16-53.12,16-53.12Z"/><path class="cls-32" d="M165.87,179.05s17.73,22.54,63.77,13.18,110.68-38,110.68-38l33.39-63Z"/><path class="cls-32" d="M398,2.44,374.38,6.17l12.79,77.46L410.24,80S398.59,29.25,398,2.44Z"/><polygon class="cls-32" points="410.24 79.99 398.32 103 381.85 105.6 387.17 83.63 410.24 79.99"/><polygon class="cls-32" points="428.28 77.15 365.06 87.12 386.65 197.88 446.37 187.03 428.28 77.15"/><path class="cls-32" d="M410.05,79.35l3.77,13.07A2.29,2.29,0,0,0,415,93.86l18.15,9.44a2.32,2.32,0,0,0,3.13-1,2.35,2.35,0,0,0,.26-1.07v-3.8a2.3,2.3,0,0,0-1-1.84l-21.9-18.71a2.31,2.31,0,0,0-3.59,2.48Z"/><polygon class="cls-32" points="340.32 154.26 350.28 178.44 386.65 197.88 365.06 87.12 340.32 154.26"/><path class="cls-32" d="M386.68,85.69s1,13-1.39,15.44-35.12,23.22-39.22,24.45-4.81-8.54-4.81-8.54Z"/><path class="cls-32" d="M386.68,85.69s1.13,15.7-2.36,16.25c-3.85,2.7-32.73,21.17-32.73,21.17"/><path class="cls-32" d="M154.48,37.81c26-9.38,111.07-37.87,203.68-45.91a14.51,14.51,0,0,1,15.2,10.52c7.54,26.81,15,72.88,13.69,87.56-1.42,15.76-157.39,93.86-209.82,94.44a14.49,14.49,0,0,1-13.84-9.84c-7.1-20.82-24.14-77.24-18.43-124.72A14.59,14.59,0,0,1,154.48,37.81Z"/><polygon class="cls-32" points="444.51 205.48 446.33 235.27 381.74 246.68 383 216.35 444.51 205.48"/><polygon class="cls-32" points="351 206.05 337.92 231.4 381.74 246.68 383 216.35 351 206.05"/><ellipse class="cls-32" cx="366.72" cy="192.36" rx="18.62" ry="35.08" transform="matrix(0.99, -0.16, 0.16, 0.99, -25.48, 59.46)"/><path class="cls-32" d="M410.34,78s3.08,15,4.64,15.86l18.15,9.44"/><path class="cls-32" d="M595.36-37.1c-27.66-.62-91.95-.33-182.32,21.47A14.52,14.52,0,0,0,402-.82c1.37,27.81,8.92,73.87,14.84,87.37,6.36,14.49,153.67,38.71,203.57,22.59a14.47,14.47,0,0,0,10-13.72c.12-22-1.65-80.91-22.15-124.11A14.63,14.63,0,0,0,595.36-37.1Z"/><ellipse class="cls-32" cx="303.13" cy="67.34" rx="49.47" ry="53.32" transform="matrix(0.98, -0.17, 0.17, 0.98, -7.09, 53.77)"/><ellipse class="cls-32" cx="485.93" cy="40.09" rx="49.2" ry="53.03" transform="translate(0.3 83.64) rotate(-9.84)"/><ellipse class="cls-32" cx="363.15" cy="195.02" rx="8.05" ry="17.42" transform="translate(-27.99 64.94) rotate(-9.84)"/><path class="cls-34" d="M151.2,216s18.5,135.77,21.29,143.53"/><ellipse class="cls-32" cx="488.72" cy="38.76" rx="18.45" ry="21.93" transform="translate(0.71 85.63) rotate(-10.02)"/><ellipse class="cls-32" cx="303.34" cy="68.55" rx="18.45" ry="21.93" transform="translate(-7.3 53.82) rotate(-10.02)"/><path class="cls-32" d="M123,212.61l123.8,43.22c21.28,6.71,35,15.12,29.95,36h0c-7.17,19.79-18.36,18.65-38.95,15.54L98.73,288.83A39.21,39.21,0,0,1,70,241.59h0C75.05,220.69,102.15,207.53,123,212.61Z"/><path class="cls-32" d="M132.53,215.75l129.6,43c21.28,6.71,11.59,54.66-9,51.56L114.06,291.75A39.2,39.2,0,0,1,85.3,244.52h0A39.21,39.21,0,0,1,132.53,215.75Z"/><path class="cls-32" d="M87.59,228s2.32-6.21,13.78-10.73C92,203.18,64.72,172.63,58.3,173.41c-4.38.52-10.83,5.09-16.78,9.62-5.33,4.06-5.79,11.83-.38,15.79,16.16,11.84,41.62,29.37,41.62,29.37Z"/><path class="cls-32" d="M101.65,217.15C92.32,203.07,69.4,170.44,63,171.22c-4.38.52-11.31,4.54-17.21,8.48a9.64,9.64,0,0,0-2.72,13.35,9.83,9.83,0,0,0,2.33,2.44c16.16,11.84,40.72,33,42.42,33A20.2,20.2,0,0,1,101.65,217.15Z"/><path class="cls-32" d="M78.14,252.55s-1.91-6.35,4.48-16.88c-16-5.57-56.18-13.38-60.83-8.88-3.16,3.07-5.54,10.61-7.53,17.81-1.79,6.46,2.54,12.93,9.24,12.81,20-.34,50.91-1.78,50.91-1.78Z"/><path class="cls-32" d="M82.78,235.41c-16-5.57-53.94-17.69-58.58-13.19-3.17,3.07-6.26,10.46-8.58,17.16a9.63,9.63,0,0,0,5.91,12.27,9.46,9.46,0,0,0,3.33.54c20-.35,52.39,1.66,53.73.61A20.18,20.18,0,0,1,82.78,235.41Z"/><path class="cls-32" d="M90,279s-5.63-3.49-7.82-15.61c-15.64,6.4-42.21,16.32-42.71,22.77-.34,4.39-.51,5,2.76,11.68,2.94,6,9.93,7.33,15.41,3.47A167.17,167.17,0,0,1,89.2,283.8Z"/><path class="cls-32" d="M82.08,263.11c-15.64,6.39-43.39,11.6-43.89,18.05-.34,4.39-1.15,5.33,1.55,11.89,2.56,6.19,9.87,7.24,15.41,3.46,16.5-11.25,35-15.92,35.31-17.6A20.17,20.17,0,0,1,82.08,263.11Z"/><path class="cls-32" d="M118.5,211.46l-11.82,4.46s-3.94-1.49-4.77-1.89c-4.66-2.27-15.75-41.77-7.74-43.89s19.23-2.44,21-.14c.23.29,3.33,2.64,3.33,2.64S120.47,212.59,118.5,211.46Z"/><path class="cls-32" d="M123.26,213.35a26.76,26.76,0,0,0-8.75,0,46,46,0,0,0-7.83,2.57c-4.87,1.76-15.75-41.76-7.74-43.89s18.49-1.09,20.27,1.21S125.52,214.65,123.26,213.35Z"/><ellipse class="cls-32" cx="124.46" cy="252.99" rx="13.82" ry="15.32" transform="translate(-81.73 60.69) rotate(-20.8)"/><path class="cls-32" d="M413,314.79l145.5-29.23a11,11,0,0,1,13,8.56c0,.23.09.47.12.7L584.06,382a11,11,0,0,1-8.75,12.39L429.67,423.65a11,11,0,0,1-13-8.67,6.17,6.17,0,0,1-.11-.62l-12.29-87.21A11,11,0,0,1,413,314.79Z"/><path class="cls-32" d="M411.43,319.42l145.73-29.6a8.6,8.6,0,0,1,10.13,6.71c0,.16.06.33.08.49l12.52,87.63a8.58,8.58,0,0,1-6.78,9.63L427.43,424.09a8.58,8.58,0,0,1-10.13-6.7,4.37,4.37,0,0,1-.09-.5l-12.58-87.83A8.6,8.6,0,0,1,411.43,319.42Z"/><path class="cls-32" d="M513,344.37l-89.82,17.39a5.54,5.54,0,0,1-6.43-4.44l-3.48-25.8a5.54,5.54,0,0,1,4.44-6.43l89.82-17.39a5.55,5.55,0,0,1,6.43,4.44L517.45,338A5.55,5.55,0,0,1,513,344.37Z"/><ellipse class="cls-32" cx="435.44" cy="340.75" rx="10.69" ry="13.36" transform="translate(-50.36 76.71) rotate(-9.52)"/><ellipse class="cls-32" cx="467.06" cy="334.35" rx="10.69" ry="13.36" transform="translate(-48.87 81.85) rotate(-9.52)"/><ellipse class="cls-32" cx="498.21" cy="329.01" rx="10.69" ry="13.36" transform="translate(-47.55 86.93) rotate(-9.52)"/><path class="cls-32" d="M498.81,369.83l-70.67,14a5.76,5.76,0,0,1-6.68-4.63h0a5.76,5.76,0,0,1,4.64-6.67l70.66-14a5.77,5.77,0,0,1,6.68,4.63h0A5.77,5.77,0,0,1,498.81,369.83Z"/><path class="cls-32" d="M464.45,412,433,418a5.77,5.77,0,0,1-6.68-4.63h0a5.77,5.77,0,0,1,4.63-6.68l31.42-6a5.77,5.77,0,0,1,6.68,4.63h0A5.78,5.78,0,0,1,464.45,412Z"/><path class="cls-32" d="M462.17,396l-31.42,6a5.77,5.77,0,0,1-6.68-4.64h0a5.76,5.76,0,0,1,4.63-6.67l31.42-6a5.77,5.77,0,0,1,6.68,4.63h0A5.77,5.77,0,0,1,462.17,396Z"/><polygon class="cls-32" points="523.05 305.48 565.9 296.52 578.62 385.54 535.25 394.07 523.05 305.48"/><ellipse class="cls-32" cx="560.18" cy="307.93" rx="4.78" ry="5.53" transform="translate(-37.92 82.31) rotate(-8.13)"/><path class="cls-32" d="M559.39,302.44s3.06,6.47,1.27,11"/><path class="cls-32" d="M555.45,308.59s6.27.55,9.45-1.35"/><ellipse class="cls-32" cx="540.68" cy="385.38" rx="4.78" ry="5.53" transform="translate(-49.07 80.34) rotate(-8.13)"/><path class="cls-32" d="M539.91,379.9s3.05,6.46,1.26,11"/><path class="cls-32" d="M536,386.05s6.27.54,9.46-1.35"/><ellipse class="cls-32" cx="570.71" cy="380" rx="4.78" ry="5.53" transform="translate(-47.59 83.65) rotate(-8.05)"/><path class="cls-32" d="M570.43,373.67s3.06,6.47,1.27,11"/><path class="cls-32" d="M566.49,379.83s6.27.54,9.45-1.35"/><ellipse class="cls-32" cx="533.54" cy="313.01" rx="4.78" ry="5.53" transform="matrix(0.99, -0.14, 0.14, 0.99, -38.9, 78.6)"/><path class="cls-32" d="M532.76,307.52s3.06,6.47,1.27,11"/><path class="cls-32" d="M528.82,313.68s6.27.54,9.45-1.35"/><path class="cls-32" d="M421.46,379.2s11.77-5.64,23.87-3.41,11.16-8.16,16.53-8.79,7.73,7,14.88,5.2,4.35-4.28,7.8-4.75,4,3.12,7.16,2.23,3.12-11.15,5.06-11.16"/><path class="cls-35" d="M1298.09,1144.4c-.93,0-1.86-.05-2.78-.14l-18.16-1.85,18.13-2.13a147,147,0,0,0,18.27-3.2l1,3.87c-4.3,1.17-8.41,2.18-12.22,3A20.09,20.09,0,0,1,1298.09,1144.4Z"/><path class="cls-36" d="M1314,1139c-4.42,1.2-8.49,2.2-12.12,3a17.57,17.57,0,0,1-3.82.39,24.78,24.78,0,0,1-2.58-.14A151.07,151.07,0,0,0,1314,1139m-1-3.89a146.43,146.43,0,0,1-18,3.17l-36.26,4.25,36.32,3.7c1,.1,2,.16,3,.16a21.72,21.72,0,0,0,4.69-.49c3.83-.84,8-1.87,12.3-3l-2-7.75Z"/><line class="cls-37" x1="1393.39" y1="848.05" x2="1393.18" y2="848.15"/><line class="cls-37" x1="1486.4" y1="984.82" x2="1486.37" y2="984.83"/><line class="cls-37" x1="1445" y1="917.12" x2="1444.82" y2="917.2"/><line class="cls-37" x1="1339.35" y1="785.71" x2="1339.12" y2="785.82"/><path class="cls-38" d="M1313.52,1137.08c2.65-.7,5.36-1.47,8-2.26l1.18,3.82c-2.7.88-5.47,1.66-8.25,2.32Z"/><path class="cls-36" d="M1322.13,1136.74q-4,1.29-8.1,2.28c2.58-.69,5.29-1.45,8.1-2.28m-1.13-3.84c-2.67.79-5.36,1.55-8,2.25l2,7.76c2.83-.68,5.66-1.48,8.4-2.37l-2.37-7.64Z"/><path class="cls-39" d="M1310,538.89a2.9,2.9,0,0,1-2.4-1.66l-.91-1.56,2.41-1.74h.09a62.06,62.06,0,0,1,7.51-3.67l.43-.17,11.44.84-.21,4h-1.49c-1.32,0-2.54.06-3.74.17a38.39,38.39,0,0,0-11.85,3.47A2.31,2.31,0,0,1,1310,538.89Z"/><path class="cls-36" d="M1317.43,532.07l11,.81h-1.56a29.54,29.54,0,0,0-3.92.18,40.86,40.86,0,0,0-12.74,3.76.26.26,0,0,1-.2.1c-.19,0-.42-.23-.67-.66l.86-.62a57.28,57.28,0,0,1,7.26-3.54m-.63-4.06-.87.35a62.46,62.46,0,0,0-7.76,3.78l-.17.11-.17.11-.86.62-2.94,2.13,1.83,3.13a4.65,4.65,0,0,0,4.12,2.65,4.23,4.23,0,0,0,2.24-.65,36.9,36.9,0,0,1,11.07-3.23c1.14-.1,2.31-.16,3.55-.16h1.44l.42-8-11-.81-.93-.07Z"/><path class="cls-39" d="M1335.32,535.38l-5.4-.3,4.3-3.28,1.81-1.4,7.6-5.91-4.61,8.45c-1.11,2-2.52,2.45-3.51,2.45Z"/><path class="cls-36" d="M1337.26,532c-.5.91-1.08,1.41-1.75,1.41h-.08l1.83-1.41M1350,517l-15.2,11.81-1.8,1.39-8.6,6.55,10.79.62h.31c1.25,0,3.6-.45,5.26-3.49Z"/><path class="cls-39" d="M1392.51,577.06a2.84,2.84,0,0,1-1-.17l-1.17-.45-.11-1.25a32.06,32.06,0,0,0-1.81-8.32l3.67-1.57a25.76,25.76,0,0,1,2.55,7.78l5.95,2.54-6.42,1.23A9.31,9.31,0,0,1,1392.51,577.06Z"/><path class="cls-36" d="M1390.29,566.18c2.45,5,2.47,8.19,2.47,8.27l1,.44a7.75,7.75,0,0,1-1.27.17,1.5,1.5,0,0,1-.3,0,34.33,34.33,0,0,0-1.93-8.84m3.59-1.76-7.34,3.14a30.29,30.29,0,0,1,1.7,7.81l.22,2.49,2.34.9a4.79,4.79,0,0,0,1.72.3,11.26,11.26,0,0,0,2-.24l12.83-2.48-11-4.67a29.63,29.63,0,0,0-2.55-7.25Z"/><path class="cls-40" d="M1154.85,737.68a22.83,22.83,0,0,1-6.56-1L1136.13,733l12.7-.24c9.23-.18,19.52-4.69,34.17-11.54l77.5-34.62.68,2.13c.12.4.26.8.4,1.21l.61,1.73-98.59,44A20.39,20.39,0,0,1,1154.85,737.68Z"/><path class="cls-36" d="M1259.27,689.35q.2.61.42,1.26l-96.91,43.29a18.6,18.6,0,0,1-7.93,1.78,21.08,21.08,0,0,1-6-.91c9.81-.19,20.83-5.11,35-11.73l75.42-33.69m2.46-5.48-4.09,1.83-75.42,33.69h-.06c-14.43,6.75-24.54,11.19-33.37,11.36l-25.4.49,24.33,7.34a24.6,24.6,0,0,0,7.13,1.08,22.56,22.56,0,0,0,9.59-2.14l96.88-43.28,3.36-1.5-1.21-3.47c-.14-.39-.27-.78-.39-1.15l-1.35-4.27Z"/><path class="cls-38" d="M1392.51,577.06a2.84,2.84,0,0,1-1-.17l-1.17-.45-.11-1.25a32.06,32.06,0,0,0-1.81-8.32l3.67-1.57a25.76,25.76,0,0,1,2.55,7.78l5.95,2.54-6.42,1.23A9.31,9.31,0,0,1,1392.51,577.06Z"/><path class="cls-36" d="M1390.29,566.18c2.45,5,2.47,8.19,2.47,8.27l1,.44a7.75,7.75,0,0,1-1.27.17,1.5,1.5,0,0,1-.3,0,34.33,34.33,0,0,0-1.93-8.84m3.59-1.76-7.34,3.14a30.29,30.29,0,0,1,1.7,7.81l.22,2.49,2.34.9a4.79,4.79,0,0,0,1.72.3,11.26,11.26,0,0,0,2-.24l12.83-2.48-11-4.67a29.63,29.63,0,0,0-2.55-7.25Z"/><path class="cls-38" d="M1310,538.89a2.9,2.9,0,0,1-2.4-1.66l-.91-1.56,2.41-1.74h.09a62.06,62.06,0,0,1,7.51-3.67l.43-.17,11.44.84-.21,4h-1.49c-1.32,0-2.54.06-3.74.17a38.39,38.39,0,0,0-11.85,3.47A2.31,2.31,0,0,1,1310,538.89Z"/><path class="cls-36" d="M1317.43,532.07l11,.81h-1.56a29.54,29.54,0,0,0-3.92.18,40.86,40.86,0,0,0-12.74,3.76.26.26,0,0,1-.2.1c-.19,0-.42-.23-.67-.66l.86-.62a57.28,57.28,0,0,1,7.26-3.54m-.63-4.06-.87.35a62.46,62.46,0,0,0-7.76,3.78l-.17.11-.17.11-.86.62-2.94,2.13,1.83,3.13a4.65,4.65,0,0,0,4.12,2.65,4.23,4.23,0,0,0,2.24-.65,36.9,36.9,0,0,1,11.07-3.23c1.14-.1,2.31-.16,3.55-.16h1.44l.42-8-11-.81-.93-.07Z"/><path class="cls-38" d="M1335.32,535.38l-5.4-.3,4.3-3.28,1.81-1.4,7.6-5.91-4.61,8.45c-1.11,2-2.52,2.45-3.51,2.45Z"/><path class="cls-36" d="M1337.26,532c-.5.91-1.08,1.41-1.75,1.41h-.08l1.83-1.41M1350,517l-15.2,11.81-1.8,1.39-8.6,6.55,10.79.62h.31c1.25,0,3.6-.45,5.26-3.49Z"/><path class="cls-41" d="M947.16,1120.39a13.45,13.45,0,0,1-3.84-.44l-3.18-1,2.19-2.15.53-.85,1.09-.07c5.48-.16,10.54-.45,15-.85l.52,4A78.33,78.33,0,0,1,947.16,1120.39Z"/><path class="cls-36" d="M959.14,1117a75.63,75.63,0,0,1-12,1.36,11.49,11.49,0,0,1-3.25-.35l.1-.15c5.39-.16,10.46-.44,15.13-.86m-.36-4c-4.44.4-9.45.69-14.89.85l-2.18.06-1,1.68-4.33,4.57,6.36,1.66a15.07,15.07,0,0,0,4.43.53,78.26,78.26,0,0,0,12.67-1.42l-1.05-7.93Z"/><path class="cls-41" d="M1154.85,737.68a22.83,22.83,0,0,1-6.56-1L1136.13,733l12.7-.24c9.23-.18,19.52-4.69,34.17-11.54l77.5-34.62.68,2.13c.12.4.26.8.4,1.21l.61,1.73-98.59,44A20.39,20.39,0,0,1,1154.85,737.68Z"/><path class="cls-36" d="M1259.27,689.35q.2.61.42,1.26l-96.91,43.29a18.6,18.6,0,0,1-7.93,1.78,21.08,21.08,0,0,1-6-.91c9.81-.19,20.83-5.11,35-11.73l75.42-33.69m2.46-5.48-4.09,1.83-75.42,33.69h-.06c-14.43,6.75-24.54,11.19-33.37,11.36l-25.4.49,24.33,7.34a24.6,24.6,0,0,0,7.13,1.08,22.56,22.56,0,0,0,9.59-2.14l96.88-43.28,3.36-1.5-1.21-3.47c-.14-.39-.27-.78-.39-1.15l-1.35-4.27Z"/><g class="cls-42"><path d="M915.85,738.88h-.07l-.21,0,.21,0Z"/><path d="M1232.58,717.48s-.65.47-2,1.31a14.19,14.19,0,0,0,1.49-1.41Z"/><path d="M1465,1031.35c-1.44-2.21-3-4.43-4.77-6.65a75,75,0,0,0-10.43-10.8c-6-5.21-16.59-14.23-29.42-24.79-16.33-13.45-36.37-29.4-55.45-43.13-7.19-5.17-14.23-10-20.9-14.33-15.78-10.16-27.54-18.17-37.16-24.6-4.12-2.76-7.85-5.22-11.34-7.44-13.45-8.56-30.1-15.21-48.65-19.48-2.59-.59-5.25-1.2-8-1.8-6.83-12.39-12.86-23-17.28-30.75l-104.07,27a34.25,34.25,0,0,1-14.94.54c10.54-.12,22.37-3.19,37.57-7.33l81-21c.14.26.29.52.45.79l104.84-27.24q3.63-1.23,6.89-2.69l15.72-4.09a68.75,68.75,0,0,0,15-7,461.71,461.71,0,0,1,55.18,7.31c10.35,2,20.68-1,22.48-7.29.32-1.13.59-2.09.79-2.92a6.22,6.22,0,0,0,.81-2.12c1.19-6.69-.5-7.32-3.07-11.23-3-4.65-33.82-3.73-60-4.08a21.73,21.73,0,0,0-.23-10.6c15.3-2.21,48.64-7.08,72.2-10.87,10.53-1.69,14.31-8.74,8.52-14.14l-2.8-2.57a9.62,9.62,0,0,0-1.74-1.81c-6.72-5.47-15-11.37-21.34-13.3-7.88-2.4-47.38,12.31-73,22.6a70.78,70.78,0,0,0-11.38-4.65c9.43-6.82,31.78-23,47-34.68,6.62-5.06,2.32-12-7.91-14.26-1.63-.36-3.28-.73-4.94-1.07a21.36,21.36,0,0,0-3.24-.82c-11-2-23.74-3.79-30.83-3.1-9.63.95-28.14,31.74-37.25,48.46h-2.84c5.07-6.84,3.51-41.26-9.19-41-13.51.22-31.21,3-32.92,5.51-.21.31-3.53,2.94-3.94,3.27h0a3,3,0,0,0-.81.73c-1.58,2.35,7.48,33.3,11.27,37.23l.93-.39q3.74-1.24,7.79-2.21l11.78.51c-1.81,0-3.79,0-5.88.09a68.23,68.23,0,0,0-13.68,2.35c-.25.16-.56,0-.94-.35l-10.54,4.41h0c-.64.19-1.27.4-1.89.61l-170.71,69.06c-47.46-2.76-99.09-4.79-135.66-3.58a38.46,38.46,0,0,0-3.58-11.31,48.32,48.32,0,0,0-5.22-8.38l-17.59-35.24c29.42,3.1,66.87,4.36,111.45.5,36.72-3.18,74.33-7.37,101.38-14.06,43.25-10.7,70.51-24.21,82.66-31.13,2.39-1.36,4.19-2.46,5.4-3.25a14.19,14.19,0,0,0,1.49-1.41,9.1,9.1,0,0,0,2.56-8c-4.08-20.73-18.39-76-60-114.38-4.81-4.45-13.46-7-22.45-6.47-44.9,2.55-148.94,10.08-291,40.83-8,1.72-13.55,5.77-15,10.43h0c-1.37,2.49-3.29,6.12-5.28,10.34-.2-.71-.38-1.39-.54-2.07l-37.55,6.18c-.79-1.18-1.58-2.31-2.37-3.41-4.35-6.1-15.56-9.55-26.66-8.2-148.39,18-280.53,54.48-320.86,66.25-8.07,2.36-13.07,7.18-13.08,12.43,0,45.36,38.52,96.56,54.07,115.38a17.5,17.5,0,0,0,4.89,3.92l.2.12.12.07.16.08.3.15c.34.17.78.4,1.34.65l.39.18h.11c9.1,4.06,42.21,15.67,103.18,3.92,72.72-14,171.83-48.27,171.83-48.27l17.34,18c-.91,5.84.19,12.66,3.6,19.67a48,48,0,0,0,5.52,8.76c-71.3,11.87-160.16,27.79-241.23,45.47l.57.11h-2.87S631,1061.41,675,1100.32c22.17,5.59,139.17,15.29,207.67,14.14,5.79-.1,11.24-.28,16.25-.54a183.49,183.49,0,0,0,21.31-2.12,2.32,2.32,0,0,0-.12-.47c24.91-3.42,59.58-9.14,97.46-15.9,67.81,17.09,159.65,35.69,187.13,35.5,17.19-.12,36.66,0,55.43-1.24,6.77-.47,13.45-1.11,19.89-2,2.77-.43,5.68-.91,8.7-1.43h.26c54.1-9.22,144-30.39,167-48.3C1476.73,1061.69,1474.93,1046.63,1465,1031.35ZM1364.51,775l1.11.28a7.37,7.37,0,0,1-1.69.08,14,14,0,0,0-2.07-5.52C1364.49,773,1364.51,775,1364.51,775Zm-59.59-26.52a2.56,2.56,0,0,1-2,.88Zm-504.45,12.8h0l.17-.08ZM811.71,905l-.22,0h.31Zm23-160.14v-.1l2.63-1.32c-.71.36-1.6.84-2.66,1.39Zm40.53-25.1,40.57,19.13-.21,0,.21,0h0Z"/><path d="M837.33,743.41c-.7.39-1.59.87-2.65,1.42v-.1Z"/><path d="M837.33,743.41c-.7.39-1.59.87-2.65,1.42v-.1Z"/><path d="M915.78,738.86h0l-.21-.05Z"/><path d="M800.66,761.19l-.19.09h0Z"/><path d="M837.33,743.41c-.7.39-1.59.87-2.65,1.42v-.1Z"/><path d="M789,766.77l-.4.19"/><path d="M500.91,841.69c-.46-.2-.91-.41-1.34-.65C499.91,841.21,500.35,841.44,500.91,841.69Z"/><path d="M876,719.59c-.65-1.07-1-1.75-1-1.75"/><path d="M1230.58,718.79a21.21,21.21,0,0,1-5.4,3.25C1227.57,720.68,1229.37,719.58,1230.58,718.79Z"/></g><polygon class="cls-43" points="935.72 487.37 932.11 483.92 939.1 483.92 939.11 485.92 939.11 490.59 935.72 487.37"/><path class="cls-36" d="M937.11,485.92h0m0-4h-9.66l6.82,6.83,6.83,6.82V481.93Z"/><path class="cls-43" d="M974.41,518.56l-.42-.22.27-.69,1-3.09.24.08.18.06.12.06-1.3,2.7-.06.15.52-1-.06,2Z"/><path class="cls-36" d="M974.69,516.48h0m.11,0h0m.15.06h0"/><path class="cls-43" d="M1266.4,483.28a18.05,18.05,0,0,0,1.25-2l.81-1.53,4.79,1.69-1.8,2.2s-.66.82-1.94,2.2Z"/><path class="cls-36" d="M1269.42,482.16l.48.17s-.61.75-1.86,2.1a21.13,21.13,0,0,0,1.38-2.27m-1.93-4.93-1.61,3.07a16.41,16.41,0,0,1-1.12,1.84l6.22,5a21.42,21.42,0,0,0,2-2.3l3.57-4.4-5.34-1.89-.48-.17-3.27-1.16Z"/><path class="cls-4" d="M1243.49,1146.26c-26.5,0-110.76-29.38-174-56.7-36,11-66.49,19.6-88.41,24.85l.08.65-1.62.49A104.53,104.53,0,0,1,959.3,1119c-4.56.41-9.69.7-15.25.87-3.49.1-7.2.15-11,.15-65.89,0-163.76-14.53-183.2-23l-.55-.23-.33-.5c-17.08-26-40.43-90.79-69.42-192.56C658,828.09,641.2,759.11,641,758.42h0l-1.74-.62,1.46-.55-.3-1.25,3.77,0,.2-.08c63-23.61,137.86-47.91,222.58-72.21a101.47,101.47,0,0,1-4.3-12.2,90.18,90.18,0,0,1-3.47-31.59L844.36,613.3c-13.15,7.69-96.62,55.87-158.63,76.42-16.61,5.5-32.46,8.29-47.12,8.29-28.26,0-44.88-10.35-50.77-14.85l-.14-.1c-.13-.1-.28-.21-.43-.34-.38-.3-.74-.6-1-.85l-.22-.19c-.09-.08-.21-.18-.32-.29l-.08-.07a3.45,3.45,0,0,1-.28-.26l-.17-.17a24,24,0,0,1-4.94-6.83C565,642.43,529.65,561,529.67,488.47A24.13,24.13,0,0,1,543,466.78c35-17.56,160-77.13,299.28-106.23a24,24,0,0,1,27.09,14.31c.51,1.24,1,2.51,1.55,3.81l33.71-9.53c1.08-3.76,2.25-7.61,3.48-11.49v-.52l.16-.17a24.1,24.1,0,0,1,15.13-17.6c94.33-35.09,185.68-57.12,271.51-65.47a22.58,22.58,0,0,1,2.33-.12,24.06,24.06,0,0,1,20.45,11.39c38.71,61.39,52.17,149.11,56.16,184a24,24,0,0,1-2.61,14,21.58,21.58,0,0,1-1.51,2.48l-.07.11-.08.09c-1,1.09-2.68,2.89-5.12,5.28-11.63,11.39-37.17,33.07-77.6,50.25C1159.55,553,1121.8,559.58,1092,564a348.25,348.25,0,0,1-51,3.86,301.32,301.32,0,0,1-50.27-4.13L1006.14,617a100.68,100.68,0,0,1,4.91,13.56,98.27,98.27,0,0,1,3.21,16.56c6.23-.32,13.11-.48,20.5-.48,27.11,0,61.93,2.1,103.49,6.24l158.42-110.19h.07c.53-.31,1.07-.61,1.61-.9l.39-.35h.14l8-5.76c-3.94-10.81-11.53-55.48-9.9-59.64a5.84,5.84,0,0,1,.94-1.55v-.07l.15-.15c1.72-2.34,3.11-4.31,3.39-4.78,2.4-5.63,20.74-9.68,32.43-10h.16c2.3,0,4.33,1.31,6,3.91,6.06,9.2,8,36,6.52,52.8,3.6-10.86,8.58-25.14,13.85-38,10.64-26,15.76-30,19-30.53a22,22,0,0,1,3.63-.28c6,0,14.71,1.78,26,5.29a17.75,17.75,0,0,1,3.27,1.39c1.5.55,3,1.11,4.48,1.68a18,18,0,0,1,11,11.68,16,16,0,0,1-2.73,14.23c-12.94,17-31.53,40.25-42.37,53.74a59,59,0,0,1,7.72,5.49c20.17-13.88,54.22-36.08,65.73-36.08a6.35,6.35,0,0,1,3,.65c5.21,2.72,12.13,10.1,20.57,21.91a17.78,17.78,0,0,1,1.77,3.12c.85,1.33,1.69,2.67,2.53,4a18,18,0,0,1,1.67,16A16,16,0,0,1,1475,560c-22.68,6.27-54,14.11-65.52,17a61.64,61.64,0,0,1,.21,13.51c3.8.07,7.7.1,11.5.13,25.53.19,41.3.66,44,7.66.4,1,.77,1.93,1.12,2.75,1.77,4.21,2.84,6.75,1.86,16.14a17,17,0,0,1-.79,3.66c-.19,1.32-.43,2.83-.72,4.52a16.73,16.73,0,0,1-17,14.36,20.47,20.47,0,0,1-6.58-1.11,262.9,262.9,0,0,0-50-11.49,60.81,60.81,0,0,1-13.7,10.83h-.09l-14.52,6.49a62.82,62.82,0,0,1-6.44,4.31h-.1l-96.07,42.92c5.1,15.33,10.22,31,15.23,46.61,2.18.82,4.29,1.65,6.34,2.46l.26.1a125,125,0,0,1,46,31.7c3.58,3.9,7.36,8.22,10.59,11.93l5.79,6.68c7.63,8.81,17.13,19.78,28.79,32.7,5.86,6.48,12.43,14.23,19.53,23,15.11,18.7,32.51,42,51.72,69.15,9.11,12.91,18.34,26.27,27.42,39.73a120.78,120.78,0,0,1,9.87,17.58c1.69,3.72,3.2,7.35,4.49,10.77,7.54,20,13.36,46.81-8.74,76.41-12.33,16.52-43.6,33.32-67.66,44.51a674.46,674.46,0,0,1-88.91,33.55l-.3.09c-2.65.78-5.39,1.55-8.08,2.27a151.52,151.52,0,0,1-18.8,3.3c-14.71,1.73-30.15,1.84-43.77,1.94l-8.06.07Z"/><path class="cls-36" d="M1197.19,275.77A22.22,22.22,0,0,1,1216,286.23c38.73,61.43,52.06,149.93,55.86,183.13a22,22,0,0,1-2.39,12.8,21.13,21.13,0,0,1-1.38,2.27c-1.13,1.25-2.81,3-5,5.19-11.32,11.09-36.7,32.72-77,49.84-25.19,10.71-60.21,17.42-94.41,22.52a344,344,0,0,1-50.69,3.84,297.16,297.16,0,0,1-53.09-4.65l16.38,56.42a98.8,98.8,0,0,1,8.19,31.53c6.91-.4,14.39-.58,22.31-.58,31.1,0,68.8,2.78,104,6.31l159-110.57c.58-.34,1.17-.67,1.76-1h0l9.82-7.06c.25.43.48.66.67.66a.26.26,0,0,0,.2-.1A40.86,40.86,0,0,1,1323,533c1.37-.13,2.68-.18,3.92-.18h1.56l-11-.81a57.28,57.28,0,0,0-7.26,3.54l-.86.62c-3.53-6.29-12-55.84-10.5-59.6a3.93,3.93,0,0,1,.76-1.17h0c.39-.53,3.48-4.74,3.67-5.23,1.6-4.11,18.08-8.48,30.66-8.83h.11c11.73,0,13.16,54.8,8.45,65.72h2.69c8.49-26.77,25.72-76.06,34.69-77.58a19.15,19.15,0,0,1,3.3-.25c6.81,0,16.67,2.49,25.41,5.2a14.83,14.83,0,0,1,3,1.31c1.54.56,3.08,1.14,4.6,1.72,9.52,3.62,13.53,14.73,7.36,22.83-14.22,18.66-35,44.61-43.81,55.52a56.68,56.68,0,0,1,10.6,7.45c22.09-15.26,55.29-36.61,65.88-36.61a4.51,4.51,0,0,1,2.08.42c5.92,3.1,13.61,12.54,19.87,21.3a15.25,15.25,0,0,1,1.62,2.9c.88,1.37,1.75,2.75,2.61,4.12,5.39,8.64,1.87,19.92-7.94,22.63-21.94,6.07-53,13.87-67.23,17.4a59.05,59.05,0,0,1,.21,17c24.35.56,53-.91,55.84,6.54,2.39,6.25,4,7.27,2.86,18a14.6,14.6,0,0,1-.76,3.39c-.18,1.33-.43,2.86-.73,4.67a14.78,14.78,0,0,1-15,12.68,18.47,18.47,0,0,1-5.94-1A260.9,260.9,0,0,0,1392.3,625a58.77,58.77,0,0,1-13.92,11.2l-14.64,6.54a57.56,57.56,0,0,1-6.42,4.31l-97.63,43.61q-.23-.64-.42-1.26L1183.85,723c-14.15,6.62-25.17,11.54-35,11.73a21.08,21.08,0,0,0,6,.91,18.6,18.6,0,0,0,7.93-1.78l96.91-43.29c4.12,12.37,9.73,29.4,16.09,49.24,2.58,1,5.06,1.93,7.47,2.88a122.29,122.29,0,0,1,45.31,31.19c3.25,3.55,6.72,7.49,10.56,11.9,9,10.3,19.91,23.12,34.6,39.4,6.21,6.87,12.77,14.65,19.46,22.93,17.77,22,36.43,47.52,51.64,69,12,16.91,21.78,31.36,27.4,39.69a116.85,116.85,0,0,1,9.71,17.29c1.61,3.56,3.1,7.11,4.44,10.65,9.21,24.47,10.89,48.57-8.47,74.51-21.42,28.68-105.15,62.57-155.53,77.33l-.24.07c-2.81.83-5.52,1.59-8.1,2.28a151.07,151.07,0,0,1-18.52,3.25c-17.48,2-35.61,1.8-51.62,2h-.4c-26.07,0-111-29.62-173.86-56.83-35.28,10.82-67.56,20-90.76,25.45a5.79,5.79,0,0,0,.11.76,103.44,103.44,0,0,1-19.84,3.39c-4.67.42-9.74.7-15.13.86-3.53.1-7.19.15-11,.15-64.6,0-162.92-14.34-182.42-22.79C709.71,1033,643,758,643,758h2.67l-.53-.18C720.63,729.51,803.38,704,869.78,685a97,97,0,0,1-5.14-14,88.2,88.2,0,0,1-3.35-31.49l-16.15-28.87s-92.29,54.84-160,77.28c-18.09,6-33.55,8.19-46.49,8.19-27.67,0-43.82-10-49.6-14.47l-.1-.07-.36-.28c-.52-.41-.93-.77-1.25-1l-.28-.25-.15-.13a.52.52,0,0,1-.11-.1l-.19-.19a21.91,21.91,0,0,1-4.55-6.29c-14.48-30.12-50.37-112.1-50.35-184.72a22.22,22.22,0,0,1,12.18-19.9c37.55-18.84,160.61-77.18,298.79-106.06a22,22,0,0,1,24.83,13.12q1.1,2.64,2.21,5.46l35-9.89c.15,1.08.32,2.18.51,3.31,1.85-6.76,3.64-12.56,4.91-16.55h0a22,22,0,0,1,14-16.7c132.31-49.22,229.19-61.29,271-65.36.72-.07,1.43-.11,2.14-.11m-260.17,210h0m37.69,30.58h0m-75.44,9.6c1-.88,1.82-1.64,2.47-2.27-.54.48-1.38,1.2-2.45,2.11v.16m436.15,7.28c.67,0,1.25-.5,1.75-1.41l-1.83,1.41h.08m-468,19.06.17-.14-.16.12h0m525,22.61a7.75,7.75,0,0,0,1.27-.17l-1-.44c0-.08,0-3.27-2.47-8.27a33.92,33.92,0,0,1,1.93,8.84h.3M878,782.5l.09-.09h-.29l.2.08m319.22-510.73h0a23.82,23.82,0,0,0-2.53.13c-86,8.37-177.51,30.43-272,65.59A26.07,26.07,0,0,0,906.4,356l-.33.33v1c-1.11,3.49-2.14,6.86-3.1,10.18l-30.91,8.75c-.29-.7-.59-1.42-.89-2.16a25.94,25.94,0,0,0-24-16.06,26.39,26.39,0,0,0-5.32.55c-59.45,12.43-122.62,31.6-187.76,57-52.64,20.51-92.77,39.76-112,49.41a26.14,26.14,0,0,0-14.39,23.47c0,31.76,6.7,68.61,19.93,109.54a635,635,0,0,0,30.82,76.92,25.79,25.79,0,0,0,5.35,7.41l.13.13a3.88,3.88,0,0,0,.42.39h0a4.4,4.4,0,0,0,.39.35l.19.16c.3.26.67.57,1.1.91l.47.37.16.11C592.74,689.4,609.79,700,638.6,700c14.87,0,30.94-2.83,47.75-8.4C746.23,671.78,826,626.3,843.61,616.05l13.57,24.25a92.8,92.8,0,0,0,3.58,31.7,101.54,101.54,0,0,0,3.53,10.34c-83.84,24.1-158,48.19-220.46,71.61h-.9l-5,.06.48,2-5,1.86,5.92,2.09c2.18,8.93,18.14,73.74,38.27,144.4,29,102,52.48,166.94,69.67,193.11l.65,1,1.1.48c21.54,9.34,122.16,23.12,184,23.12,3.85,0,7.58,0,11.09-.15,5.59-.17,10.77-.46,15.37-.88a107,107,0,0,0,20.64-3.54l3.23-1-.07-.56c21.68-5.25,51.31-13.6,86.1-24.25,63.32,27.33,147.43,56.58,174.09,56.58h.45l8.06-.07c13.67-.1,29.16-.21,44-2a154.77,154.77,0,0,0,19-3.34h.08c2.68-.72,5.43-1.49,8.15-2.29l.19-.06h.08c48.88-14.33,134.9-48.38,157.61-78.78s16.72-57.81,9-78.31c-1.32-3.48-2.85-7.14-4.54-10.89a123.21,123.21,0,0,0-10-17.88c-9.08-13.46-18.32-26.83-27.45-39.76-19.23-27.22-36.66-50.52-51.8-69.26-7.12-8.81-13.72-16.58-19.6-23.09-11.64-12.9-21.13-23.86-28.75-32.66l-5.8-6.69c-3.24-3.71-7-8-10.63-12a126.77,126.77,0,0,0-46.8-32.19l-.24-.1c-1.78-.7-3.6-1.42-5.48-2.13-4.72-14.7-9.55-29.48-14.37-44L1359,650.65l.2-.09.18-.1a63.22,63.22,0,0,0,6.47-4.31L1380,639.8l.2-.09.18-.1a62.71,62.71,0,0,0,13.43-10.45,261.11,261.11,0,0,1,48.58,11.28,22.74,22.74,0,0,0,7.22,1.21,18.7,18.7,0,0,0,19-16c.27-1.63.51-3.1.69-4.4a19.12,19.12,0,0,0,.83-3.89c1-9.48,0-12.4-2-17.15-.35-.83-.71-1.69-1.09-2.69-3.14-8.23-18.66-8.74-45.82-8.94-3.09,0-6.25,0-9.36-.09a63,63,0,0,0-.19-10c12.68-3.15,42.23-10.58,63.88-16.57a18,18,0,0,0,12-10.92,20,20,0,0,0-1.83-17.74q-1.23-1.95-2.47-3.89a19.22,19.22,0,0,0-1.9-3.33c-8.63-12.07-15.78-19.65-21.27-22.53a8.49,8.49,0,0,0-3.93-.87c-11.3,0-41.39,18.94-65.64,35.58q-2.31-1.85-4.85-3.5c11-13.69,28.6-35.75,41-52a18,18,0,0,0,3.07-16,20,20,0,0,0-12.19-13c-1.68-.64-3.07-1.16-4.35-1.63a19.47,19.47,0,0,0-3.52-1.49c-11.47-3.56-20.42-5.37-26.58-5.37a24.32,24.32,0,0,0-4,.3c-4.23.72-9.64,5.06-20.57,31.75-3.42,8.37-6.72,17.32-9.6,25.54,0-2.23-.07-4.41-.16-6.44-.41-9.39-1.88-26.31-7.08-34.22-2.61-4-5.63-4.81-7.71-4.81h-.22c-8,.22-30.53,3.25-34.14,11.06-.37.59-1.73,2.49-3.22,4.51a7.93,7.93,0,0,0-1.36,2.2v.05c-.38,1-1.54,3.93,3.16,31,.91,5.29,3.73,20.92,6.21,28.63l-6.26,4.5h-.36l-.77.76q-.68.36-1.38.78l-.13.08-.13.08L1137.67,650.72c-41.3-4.1-75.93-6.18-103-6.18-6.69,0-13,.13-18.72.39a103.94,103.94,0,0,0-8-28.72l-14.53-50a305.45,305.45,0,0,0,47.47,3.64,350.6,350.6,0,0,0,51.28-3.89c30-4.46,67.87-11.09,95.39-22.79,40.72-17.31,66.48-39.17,78.21-50.66,2.47-2.42,4.19-4.26,5.2-5.37l.17-.19.14-.2A23.83,23.83,0,0,0,1273,484a26,26,0,0,0,2.83-15.12c-4-35-17.53-123.07-56.45-184.81a26.1,26.1,0,0,0-22.15-12.32Z"/><path class="cls-44" d="M897.49,524.93l.6-.51c1-.89,1.88-1.6,2.41-2.08l2.72,2.93c-.64.63-1.47,1.39-2.53,2.33l-4,3.52Z"/><path class="cls-36" d="M901.83,523.84c-.65.63-1.48,1.39-2.47,2.27V526c1.07-.91,1.91-1.63,2.45-2.11m-2.66-3c-.45.41-1.17,1-2.38,2l-1.18,1-.2,1.54v.16l-1.32,10.55,7.93-7c1.08-1,1.93-1.75,2.6-2.39l-5.45-5.86Z"/><polygon class="cls-44" points="935.72 487.37 932.11 483.92 939.1 483.92 939.11 485.92 939.11 490.59 935.72 487.37"/><path class="cls-36" d="M937.11,485.92h0m0-4h-9.66l6.82,6.83,6.83,6.82V481.93Z"/><path class="cls-45" d="M897.49,524.93l.6-.51c1-.89,1.88-1.6,2.41-2.08l2.72,2.93c-.64.63-1.47,1.39-2.53,2.33l-4,3.52Z"/><path class="cls-36" d="M901.83,523.84c-.65.63-1.48,1.39-2.47,2.27V526c1.07-.91,1.91-1.63,2.45-2.11m-2.66-3c-.45.41-1.17,1-2.38,2l-1.18,1-.2,1.54v.16l-1.32,10.55,7.93-7c1.08-1,1.93-1.75,2.6-2.39l-5.45-5.86Z"/><polygon class="cls-45" points="935.72 487.37 932.11 483.92 939.1 483.92 939.11 485.92 939.11 490.59 935.72 487.37"/><path class="cls-36" d="M937.11,485.92h0m0-4h-9.66l6.82,6.83,6.83,6.82V481.93Z"/><path class="cls-45" d="M974,518.34h0l1.22-3.8.24.08,1.4.49v4.68Z"/><path class="cls-36" d="M974.69,516.48h0m.11,0h0m1-3.88-1.9,6-.61,1.6-.18-.08L978.9,523V513.7l-2.68-1h0l-.39-.13Z"/><polygon class="cls-43" points="935.72 487.37 932.11 483.92 939.1 483.92 939.11 485.92 939.11 490.59 935.72 487.37"/><path class="cls-36" d="M937.11,485.92h0m0-4h-9.66l6.82,6.83,6.83,6.82V481.93Z"/><path class="cls-46" d="M866,551.12l.31-.25a2.32,2.32,0,0,1,.3-.22l2.53,3.07a3.88,3.88,0,0,1-.31.26l-7.59,5.87Z"/><path class="cls-36" d="M867.68,552.31l-.17.14h0l.16-.12M865.46,549l-.44.33-.68.54-.39.78-8.6,17.15L870,555.55a4.69,4.69,0,0,0,.47-.42l-5-6.15Z"/><path class="cls-43" d="M897.49,524.93l.6-.51c1-.89,1.88-1.6,2.41-2.08l2.72,2.93c-.64.63-1.47,1.39-2.53,2.33l-4,3.52Z"/><path class="cls-36" d="M901.83,523.84c-.65.63-1.48,1.39-2.47,2.27V526c1.07-.91,1.91-1.63,2.45-2.11m-2.66-3c-.45.41-1.17,1-2.38,2l-1.18,1-.2,1.54v.16l-1.32,10.55,7.93-7c1.08-1,1.93-1.75,2.6-2.39l-5.45-5.86Z"/><path class="cls-37" d="M856.85,561.24l-.37.3"/><path class="cls-47" d="M587.36,682.79a12.64,12.64,0,0,1-1.44-1.19l2.67-3,.24.2c.27.23.58.5,1,.8Z"/><path class="cls-36" d="M587.3,680.15c.32.27.73.63,1.25,1a13.35,13.35,0,0,1-1.25-1m2.58-3.06-5.33,6a18.86,18.86,0,0,0,1.61,1.35l4.87-6.35c-.35-.28-.65-.53-.89-.74l-.26-.22Z"/><path class="cls-37" d="M937.85,485.7c-.6-1.71-1-2.8-1-2.8"/><path class="cls-47" d="M1261.61,488.19c2.37-2.32,4-4.05,5-5.1l3.13,2.47a23.33,23.33,0,0,1-5.5,5.67Z"/><path class="cls-36" d="M1268,484.43a21.44,21.44,0,0,1-5,5.19c2.22-2.17,3.9-3.94,5-5.19m-3-2.68c-.93,1-2.52,2.73-4.85,5l5.16,6.09a25.63,25.63,0,0,0,6-6.16l-6.27-4.94Z"/><path class="cls-48" d="M1481.56,973.33a118.28,118.28,0,0,0-9.71-17.29c-15.46-22.95-62.88-92.21-98.5-131.67-21-23.23-34.32-39.44-45.16-51.29a122.12,122.12,0,0,0-45.31-31.2c-11.53-4.55-24.73-9.6-42.74-10.88-23.5-1.67-46.13,5.51-67.46,15.51-53.17,24.92-82.59,35.3-92.42,42.11-8.44,10.66-39.3,73.29-29.68,115.1,6.94,30.16,21.76,69.58,52.32,94.78s161.18,150.9,198.64,142.67c43.73-9.6,151.29-49.61,176-82.68C1499.69,1028.8,1494.29,1001.52,1481.56,973.33Z"/><line class="cls-49" x1="1393.02" y1="847.2" x2="1273.72" y2="902.43"/><line class="cls-49" x1="1486.02" y1="983.97" x2="1364.39" y2="1034.43"/><line class="cls-49" x1="1444.63" y1="916.28" x2="1324.39" y2="970.33"/><line class="cls-49" x1="1338.98" y1="784.87" x2="1221.28" y2="841.85"/><path class="cls-38" d="M1243.12,1137c-16.79,0-64.55-14.17-121.68-36.09-55.74-21.4-102.23-43.22-115.68-54.3-29.72-24.5-43.67-63.14-50.13-91.24-3.6-15.65-.61-33.42,8.88-52.82,7.89-16.13,18.13-29,23-35.12l1.08-1.36c.6-.76,1.3-1.67,2.1-2.71,8.69-11.26,29-37.62,64.68-57.7a114.72,114.72,0,0,1,56.12-15c2.57,0,5.16.09,7.72.27,17.54,1.25,30.44,6.35,40.81,10.45a116.44,116.44,0,0,1,43,29.52c4.82,5.27,10.23,11.52,16.49,18.75,7.6,8.77,17.06,19.68,28.65,32.52,35.65,39.5,84,110.21,97.93,131a112.44,112.44,0,0,1,9.18,16.34c12.53,27.74,16.77,51.73-3.32,78.63-21.06,28.21-65,28.53-100.3,28.79l-8.18.07Z"/><path d="M1111.54,797.1c2.42,0,4.86.09,7.26.26,16.55,1.18,28.94,6.08,38.9,10a110,110,0,0,1,40.52,27.89c4.76,5.21,10.14,11.42,16.38,18.62,7.62,8.79,17.1,19.74,28.73,32.62,35.36,39.17,83.47,109.58,97.37,130.23a105.67,105.67,0,0,1,8.65,15.39c6.74,14.91,9.8,26.28,9.93,36.86.15,12.22-4,23.75-12.54,35.25-8.26,11.06-21.25,18.33-39.73,22.21-17.58,3.7-37.69,3.85-55.44,4l-8.21.07h-.24c-15.82,0-63.78-14.33-119.36-35.66-54.29-20.84-101.13-42.74-113.89-53.26-15.63-12.89-36.64-38.56-48-87.7-3.26-14.17-.43-30.5,8.39-48.53,7.58-15.49,17.52-27.94,22.3-33.93l1.1-1.38c.61-.78,1.33-1.7,2.15-2.77,8.45-11,28.23-36.59,62.73-56a108.15,108.15,0,0,1,53-14.14m0-12.92a121,121,0,0,0-59.29,15.8c-40.08,22.58-61.52,53-68.68,62-8.44,10.66-43.86,53-34.24,94.76,6.94,30.16,21.76,69.58,52.32,94.77s202.32,91.88,241.47,91.88h.4c38.35-.46,88.88,1.62,113.58-31.45,22.17-29.69,16.76-57,4-85.16a116.85,116.85,0,0,0-9.71-17.29c-15.45-23-62.88-92.22-98.5-131.67-21-23.23-34.32-39.44-45.16-51.29a122.12,122.12,0,0,0-45.31-31.2c-11.53-4.55-24.72-9.6-42.73-10.88q-4.1-.29-8.18-.29Z"/><ellipse class="cls-50" cx="1058.08" cy="950.33" rx="68.78" ry="86.07" transform="translate(-230.15 347.73) rotate(-16.86)"/><ellipse class="cls-50" cx="1177.47" cy="1042.08" rx="49.27" ry="61.67" transform="translate(-251.63 386.3) rotate(-16.86)"/><ellipse class="cls-50" cx="1285.49" cy="1060.05" rx="38.77" ry="48.52" transform="translate(-252.2 418.4) rotate(-16.86)"/><polygon class="cls-51" points="1181.55 741.91 1232.31 750.7 1184.9 752.98 1226.31 765.64 1154.42 761.05 1170.33 769.49 1120.78 769.14 1181.55 741.91"/><ellipse class="cls-41" cx="1053.87" cy="951.6" rx="23.39" ry="32.16" transform="translate(-230.7 346.56) rotate(-16.86)"/><ellipse class="cls-41" cx="1176.2" cy="1044.86" rx="20.19" ry="27.77" transform="translate(-51.53 61.06) rotate(-2.91)"/><ellipse class="cls-41" cx="1286.57" cy="1063" rx="14.96" ry="20.57" transform="translate(-52.31 66.69) rotate(-2.91)"/><path class="cls-52" d="M1309.8,534.77,1148.17,651c-28.1,18.94-44.51,37.09-28.12,65.34h0c19,25.74,34.77,19.26,63.42,5.88L1378,635.3a59.54,59.54,0,0,0,21.56-81.16h0C1383.18,525.89,1338.05,518.38,1309.8,534.77Z"/><path class="cls-53" d="M1297.34,543.43,1127.11,661.84c-28.11,18.93,6.64,84.6,35.3,71.21L1357,646.16A59.56,59.56,0,0,0,1378.51,565h0A59.56,59.56,0,0,0,1297.34,543.43Z"/><path class="cls-54" d="M1368.05,541.92s-6-8-24.68-9.7c7.53-24.53,34.16-80.77,43.85-82.41,6.6-1.11,18,2.77,28.57,6.8,9.51,3.62,13.53,14.73,7.36,22.83-18.44,24.2-48,60.68-48,60.68Z"/><path class="cls-55" d="M1342.91,532.18c7.52-24.53,26.86-81.91,36.55-83.54,6.6-1.12,18.43,1.75,28.71,4.94a14.62,14.62,0,0,1,7.36,22.83c-18.44,24.2-45.08,65.6-47.57,66.28C1359.89,533.83,1350.9,531.91,1342.91,532.18Z"/><path class="cls-54" d="M1392.39,573.61s0-10.07-13.79-22.65c20.83-15,76.05-43.67,84.76-39.11,5.93,3.1,12.63,13.07,18.64,22.7,5.39,8.63,1.87,19.91-7.94,22.63-29.33,8.11-74.92,19.31-74.92,19.31Z"/><path class="cls-55" d="M1378.25,550.65c20.83-15,70.94-49,79.64-44.43,5.93,3.11,13.62,12.54,19.88,21.31a14.63,14.63,0,0,1-8,22.63c-29.32,8.11-75.58,25-78,24C1390.78,562.23,1384.78,555.27,1378.25,550.65Z"/><path class="cls-54" d="M1386.57,617.25s6.71-7.51,4.68-26.1c25.53,2.58,68.5,5.59,72,14.77,2.38,6.25,2.89,7,1,18.2-1.68,10-11.3,15-20.94,11.69a254.18,254.18,0,0,0-53.59-11.93Z"/><path class="cls-55" d="M1391.2,590.69c25.53,2.58,68.18-1.79,71.68,7.4,2.38,6.25,4,7.26,2.86,18-1.06,10.12-11.26,14.8-21,11.68-28.88-9.29-57.84-8.13-59-10.43C1392.9,607.66,1393,598.47,1391.2,590.69Z"/><path class="cls-54" d="M1315.93,531.14l19.13,1.4s5.09-3.86,6.12-4.8c5.81-5.3,5-67.6-7.61-67.24s-29.06,4.72-30.66,8.83c-.2.52-3.71,5.28-3.71,5.28S1313.54,533.64,1315.93,531.14Z"/><path class="cls-55" d="M1309.81,535.94a40.86,40.86,0,0,1,12.74-3.76,70.67,70.67,0,0,1,12.51.36c7.85.48,5-67.59-7.61-67.24s-27.41,6.37-29,10.48S1307.08,538.8,1309.81,535.94Z"/><ellipse class="cls-56" cx="1325.05" cy="594.16" rx="23.26" ry="20.98" transform="translate(632.54 1870.58) rotate(-85.67)"/><path class="cls-40" d="M1252.06,668.24S1072.22,640.5,997.9,649.5c0,0-192.91,47.29-353.16,107.38,23.67,8.52,210.1,27,235,24.55S1192,696.39,1252.06,668.24Z"/><path class="cls-57" d="M926,748.28s-75.21-18.2-82.35-18.37,120.64-43.47,120.64-43.47,72.71,16.56,78,19.23S926,748.28,926,748.28Z"/><path class="cls-46" d="M642.6,757.1s66.74,275,107.65,337.31c25.34,11,183.79,31.89,228.36,18.38-4.39-32.52-81.89-312.3-101-331.14C857.13,773.72,716.34,755.81,642.6,757.1Z"/><path class="cls-41" d="M1252.06,668.24s46.93,136.67,72.63,239.6c9.9,39.66-16.2,89-22.09,92.4-10.33,17.43-335.61,124.21-359.06,117,0,0,27.72-39.77,11-93.53-20.88-67.16-52-160.58-77-242C887.87,771.67,1190.61,677.2,1252.06,668.24Z"/><path class="cls-58" d="M787.65,1171.59l-35.25,25.34-10.29-20.22-59-115.93-8-15.62,29.68-21.39,8.91-6.41a54.77,54.77,0,0,1,12-5.25c36.36-11,77,17,90.76,62.47C828.6,1114.7,815.79,1155.07,787.65,1171.59Z"/><path class="cls-22" d="M787.3,1156.11c.3,20.27-24,37.25-56.53,41.06l-27,4.44-15,2.48h-.06c-3.56.33-7.21.51-10.93.53-39,.13-70.88-18.4-71.22-41.39-.28-18.92,20.89-35,50.12-40.11h.11l2.22-.37h.1l33-5.46,10.64-1.76a118.76,118.76,0,0,1,13.33-.79C755.09,1114.59,787,1133.12,787.3,1156.11Z"/><ellipse class="cls-50" cx="718.81" cy="1117.03" rx="68.78" ry="86.07" transform="translate(-254.27 212.83) rotate(-14.34)"/><ellipse class="cls-41" cx="714.28" cy="1124.34" rx="23.39" ry="32.16" transform="translate(-298.42 259.02) rotate(-17.06)"/><path class="cls-22" d="M592.26,1112.06c.22,12.26-17.29,22.51-40.66,24.81l-19.42,2.69-10.79,1.5h0q-3.84.32-7.86.32c-28,.08-51-11.11-51.22-25-.21-11.43,15-21.12,36-24.24h.08l1.6-.22h.07l23.74-3.3,7.65-1.06c3.11-.31,6.3-.47,9.59-.48C569.09,1087,592,1098.17,592.26,1112.06Z"/><path class="cls-22" d="M483.8,1216.69c.19,10.66-14.92,19.58-35.09,21.59L432,1240.62l-9.31,1.3h0q-3.31.27-6.78.28c-24.2.07-44-9.67-44.2-21.76-.18-10,13-18.39,31.1-21.1h.07l1.38-.19h.06l20.48-2.87,6.61-.92c2.67-.27,5.42-.41,8.27-.42C463.81,1194.85,483.59,1204.6,483.8,1216.69Z"/><path class="cls-58" d="M571.15,1132.25l-27.67,9.68-2.81-15.06-16.09-86.37-2.17-11.63,23.31-8.19,7-2.45a37,37,0,0,1,8.77-1.11c25.66-.18,46.63,25.7,46.85,57.81C608.54,1103.23,592.53,1126.93,571.15,1132.25Z"/><path class="cls-22" d="M532.18,1139.56a93.32,93.32,0,0,1-10.79,1.5Z"/><ellipse class="cls-50" cx="535.86" cy="1084.56" rx="46.44" ry="58.12" transform="translate(-7.56 3.77) rotate(-0.4)"/><ellipse class="cls-41" cx="535.12" cy="1084.56" rx="15.79" ry="21.72" transform="translate(-58.24 30.73) rotate(-3.12)"/><path class="cls-58" d="M459.09,1240.25l-24.19,6.36-1.37-13-7.84-74.54-1.06-10,20.39-5.38,6.11-1.61a31.21,31.21,0,0,1,7.54-.35c21.83,1.58,37.92,25,35.94,52.33C492.86,1218.1,477.63,1237.18,459.09,1240.25Z"/><ellipse class="cls-50" cx="432.33" cy="1197.3" rx="49.59" ry="39.63" transform="translate(-793.12 1541.85) rotate(-85.85)"/><ellipse class="cls-41" cx="432.06" cy="1198.73" rx="18.53" ry="13.48" transform="translate(-777.08 1600.74) rotate(-88.57)"/><path class="cls-59" d="M876.94,611.09l29,102.52L996,689.11c15-4.25,20.71-30.64,12.7-59S982,582.35,967,586.6c-5.06,1.43-9,5.36-11.84,11Z"/><path class="cls-60" d="M1269.53,481.49s-27.18,33-83.87,57.13c-25.19,10.71-60.21,17.42-94.41,22.51-111.18,16.56-174.73-25.75-174.73-25.75s-13.8-75.87-19.42-101.05,14.5-83,14.5-83Z"/><path class="cls-60" d="M586.2,678.63S617,709.4,684.73,687s160-77.27,160-77.27l39-101Z"/><path class="cls-41" d="M904.27,370.35l-35,9.9L902.6,494.73l34.14-9.66S910,410.67,904.27,370.35Z"/><polygon class="cls-61" points="936.74 485.07 922.93 521.92 898.57 528.82 902.6 494.73 936.74 485.07"/><polygon class="cls-62" points="963.42 477.52 869.91 503.98 922.5 667.09 1010.58 639.93 963.42 477.52"/><path class="cls-43" d="M936.32,484.13l8.06,19a3.46,3.46,0,0,0,2,2l29.07,10.94a3.51,3.51,0,0,0,4.52-2,3.4,3.4,0,0,0,.2-1.7l-.75-5.72a3.5,3.5,0,0,0-1.76-2.6L941.3,479.74a3.52,3.52,0,0,0-5,4.39Z"/><polygon class="cls-63" points="844.74 609.7 864.14 644.36 922.5 667.09 869.91 503.98 844.74 609.7"/><path class="cls-60" d="M902.24,497.92s3.81,19.42.69,23.54-48.75,41.35-54.7,43.95-8.8-12-8.8-12Z"/><path class="cls-64" d="M902.24,497.92s4.55,23.47-.62,24.92c-5.3,4.78-45.51,37.85-45.51,37.85"/><path class="cls-47" d="M601.46,675.54a12.75,12.75,0,0,1-11.41-7.23,620.87,620.87,0,0,1-30.15-75.25c-12.8-39.61-19.29-75.08-19.28-105.43a12.85,12.85,0,0,1,7-11.58c34.69-17.41,158.6-76.44,296.52-105.26a12.51,12.51,0,0,1,2.59-.27,12.65,12.65,0,0,1,11.72,7.83c16.22,39,34.66,103.87,35.74,125.38-.94,1.86-6.59,10.8-36.87,34.09-22.5,17.32-52.15,37.56-83.47,57C700.54,640.34,635.1,671.22,603,675.43A11.87,11.87,0,0,1,601.46,675.54Z"/><path class="cls-6" d="M846.77,361.2v18.63a3.41,3.41,0,0,1,3.12,2.1c16.09,38.74,32.47,97.68,34.79,119.3-2.89,3.63-11.83,13.24-37.28,32.47-22.75,17.19-52,37-82.48,55.72-70.49,43.41-133,72.83-163,76.78h-.41a3.4,3.4,0,0,1-3-2,611,611,0,0,1-29.67-74.08C556.33,551.45,550,516.94,550,487.56a3.55,3.55,0,0,1,1.9-3.25C586.34,467,709.34,408.43,846.15,379.84a3.25,3.25,0,0,1,.69-.08V361.2m0,0a22,22,0,0,0-4.5.47C704.09,390.54,581,448.88,543.48,467.73a22.19,22.19,0,0,0-12.18,19.89c0,72.62,35.87,154.61,50.35,184.72a22,22,0,0,0,19.81,12.52,20.59,20.59,0,0,0,2.83-.19c79-10.35,300-156.33,299.29-180.35-.66-22.37-20.26-90.49-36.48-129.54a22,22,0,0,0-20.33-13.58Z"/><polygon class="cls-62" points="1011.11 668.08 1019.24 712.66 923.92 741.56 920.33 695.59 1011.11 668.08"/><polygon class="cls-63" points="870.22 685.85 855.08 726.43 923.92 741.56 920.33 695.59 870.22 685.85"/><ellipse class="cls-65" cx="891.42" cy="662.38" rx="28.27" ry="53.27" transform="translate(-146.67 267.74) rotate(-15.8)"/><path class="cls-66" d="M936.52,482.05s7.37,22.13,9.88,23.07l29.07,10.94"/><path class="cls-47" d="M1093.88,503c-33.41,0-66.31-1.71-92.63-4.8-35.13-4.14-43.82-8.93-45.35-10-10.33-18.28-29.65-84.19-36.6-125.1a12.24,12.24,0,0,1,7.78-13.52c93.36-34.73,183.71-56.53,268.54-64.79a11.85,11.85,0,0,1,1.19-.06,12.42,12.42,0,0,1,10.5,5.89c16.16,25.63,29.56,59.06,39.82,99.35a620.39,620.39,0,0,1,14.59,79.67,12.19,12.19,0,0,1-7,12.51c-28.31,13-88.44,20.82-160.87,20.82Z"/><path class="cls-6" d="M1196.81,294.49a2.68,2.68,0,0,1,2.22,1.32c15.62,24.77,28.61,57.26,38.62,96.55A609.57,609.57,0,0,1,1252,470.74a2.45,2.45,0,0,1-1.34,2.5c-27.08,12.48-85.69,19.93-156.78,19.93-31.35,0-62.55-1.54-87.86-4.32-27.49-3-39-6.53-43-8.06-9.5-19.3-27.08-78-34.12-119.35a2.47,2.47,0,0,1,1.55-2.71c92.57-34.44,182.09-56.05,266.08-64.22h.24m0-19.56a15.19,15.19,0,0,0-2.13.1c-41.82,4.08-138.7,16.14-271,65.36a22,22,0,0,0-14,24.33c7.09,41.68,26.82,109.77,38.18,129,6.5,11,73.7,19,146,19,63.59,0,131.14-6.13,165-21.72a22,22,0,0,0,12.59-22.5c-3.8-33.2-17.13-121.7-55.86-183.13a22.22,22.22,0,0,0-18.77-10.45Z"/><path class="cls-23" d="M776.05,557.93c-30.22,0-57.94-21.84-67.42-53.1-11.68-38.55,7.66-78.65,43.12-89.4a62.27,62.27,0,0,1,18.09-2.69c30.22,0,57.94,21.84,67.42,53.1,11.68,38.55-7.66,78.65-43.12,89.4A62.32,62.32,0,0,1,776.05,557.93Z"/><path class="cls-67" d="M769.84,420.66c26.76,0,51.36,19.52,59.84,47.48,10.42,34.36-6.56,70-37.84,79.52A54.5,54.5,0,0,1,776.05,550c-26.76,0-51.37-19.52-59.84-47.48-10.42-34.37,6.56-70,37.84-79.52a54.17,54.17,0,0,1,15.79-2.35m0-15.84a70,70,0,0,0-20.38,3c-39.71,12-61.38,56.48-48.41,99.28,10.77,35.5,42,58.72,75,58.72a70,70,0,0,0,20.38-3c39.71-12,61.38-56.48,48.4-99.28-10.76-35.51-42-58.72-75-58.72Z"/><path class="cls-23" d="M1050.16,480.65c-30.22,0-58-21.84-67.43-53.1a75.87,75.87,0,0,1,4-55.41c8.17-16.75,22.07-28.82,39.14-34a61.86,61.86,0,0,1,18.08-2.69c30.22,0,57.94,21.83,67.42,53.1,11.68,38.54-7.66,78.65-43.12,89.4a62.2,62.2,0,0,1-18.08,2.69Z"/><path class="cls-67" d="M1043.94,343.38c26.76,0,51.37,19.52,59.84,47.48a68,68,0,0,1-3.52,49.63c-7.19,14.75-19.38,25.36-34.32,29.89a54.1,54.1,0,0,1-15.78,2.35c-26.76,0-51.37-19.53-59.85-47.48a67.92,67.92,0,0,1,3.53-49.64c7.19-14.74,19.38-25.36,34.31-29.89a54.5,54.5,0,0,1,15.79-2.34m0-15.84a70,70,0,0,0-20.38,3c-39.71,12-61.38,56.48-48.4,99.28,10.76,35.5,42,58.72,75,58.72a70,70,0,0,0,20.38-3c39.7-12,61.37-56.49,48.4-99.28C1108.18,350.75,1076.94,327.54,1043.94,327.54Z"/><ellipse class="cls-68" cx="890.19" cy="665.8" rx="12.29" ry="26.59" transform="translate(-154.84 286.8) rotate(-16.86)"/><path class="cls-69" d="M1012.41,647.88c41.82-6.24,239.65,20.36,239.65,20.36s75,223.56,72.63,239.6c2.18,17.27,8.13,38-17.51,86.81-10.27,10-10.38,22.1-256.9,97.71"/><path class="cls-69" d="M869.18,683.64S650.47,750.17,642.6,757.1c0,0,49.45,189.85,54.75,200.4"/><g class="cls-42"><path d="M1226,1431.53a37.32,37.32,0,0,1-23,14.07,33.61,33.61,0,0,1-13,2.38l-195.45-2.12q-3.49-.25-6.7-.76l-14.73-.16a74.4,74.4,0,0,1-14.89-2.51,417.25,417.25,0,0,0-45.32,15.88c-8.31,3.49-18.08,3.09-21.47-1.34-.61-.8-1.11-1.47-1.51-2.07a5.53,5.53,0,0,1-1.32-1.45c-3-4.86-1.7-5.66-.63-9.11,1.27-4.11,28-9.17,50.37-14.32a16.45,16.45,0,0,1-2.89-8.09c-13.79,1.18-43.89,3.72-65.25,5.25-9.55.69-14.85-4-11.45-9.14.54-.83,1.1-1.66,1.67-2.5a6.08,6.08,0,0,1,1-1.68c4.19-5.42,9.57-11.44,14.48-14.1,6.08-3.3,44.32.49,69.33,3.51a58.44,58.44,0,0,1,8.44-5.67c-10.11-3.41-34-11.54-50.56-17.53-7.18-2.6-5.49-8.69,2.65-12.32l3.87-1.71h0a20.64,20.64,0,0,1,2.59-1.26c8.92-3.57,19.32-7.31,25.62-8.11,8.56-1.09,33.44,18.84,46.14,29.83l2.43-.53c-6.34-4.24-15-30.68-4-32.9,11.68-2.36,27.69-3.6,29.92-2,.25.19,3.89,1.57,4.34,1.74h0a3.08,3.08,0,0,1,.91.4c2,1.49,3.27,26.71,1.14,30.39L1029,1385c.61,0,1.22.06,1.82.11l178.74,22c6.93.79,11.11,3.51,13.07,7.2C1229,1418.1,1230.76,1423.5,1226,1431.53Z"/></g><path class="cls-52" d="M1100,1316.08l186.58,69.39c32.11,10.84,52.73,24,44.39,55.59h0c-11.5,29.83-28.45,27.76-59.62,22.42l-210.58-32.41a59.55,59.55,0,0,1-42.24-72.59h0C1026.88,1326.91,1068.43,1307.74,1100,1316.08Z"/><path class="cls-53" d="M1114.31,1321.15l195.47,69.22c32.11,10.84,15.94,83.35-15.23,78L1084,1436a59.56,59.56,0,0,1-42.24-72.58h0A59.56,59.56,0,0,1,1114.31,1321.15Z"/><path class="cls-54" d="M1045.71,1338.37s3.71-9.36,21.24-15.87c-13.74-21.67-54.28-68.88-64.06-67.9-6.66.67-16.59,7.41-25.76,14.11-8.22,6-9.16,17.78-1.07,24,24.19,18.47,62.31,45.85,62.31,45.85Z"/><path class="cls-55" d="M1067.39,1322.34c-13.74-21.67-47.55-71.9-57.33-70.92-6.65.67-17.31,6.56-26.38,12.35a14.62,14.62,0,0,0-1.07,24c24.18,18.47,60.82,51.36,63.4,51.36A30.59,30.59,0,0,1,1067.39,1322.34Z"/><path class="cls-54" d="M1030.61,1375.36s-2.7-9.69,7.32-25.48c-24.05-9-84.89-22-92.09-15.33-4.89,4.56-8.73,15.94-12,26.81-2.91,9.76,3.47,19.7,13.65,19.73,30.42.08,77.35-1.17,77.35-1.17Z"/><path class="cls-55" d="M1038.18,1349.49c-24.05-9-81.35-28.51-88.55-21.81-4.89,4.56-9.81,15.69-13.54,25.79a14.62,14.62,0,0,0,13.64,19.73c30.43.08,79.5,4.12,81.55,2.56A30.68,30.68,0,0,1,1038.18,1349.49Z"/><path class="cls-54" d="M1047.75,1415.92s-8.45-5.47-11.41-23.94c-23.94,9.23-64.58,23.49-65.53,33.27-.65,6.66-.94,7.52,3.84,17.82,4.28,9.23,14.85,11.43,23.28,5.73a254.19,254.19,0,0,1,48.53-25.66Z"/><path class="cls-55" d="M1036.27,1391.52c-23.94,9.23-66.23,16.29-67.18,26.08-.65,6.65-1.91,8.05,2,18.08,3.7,9.49,14.77,11.31,23.29,5.74,25.4-16.59,53.64-23.12,54.15-25.65C1039.11,1408.34,1036.57,1399.51,1036.27,1391.52Z"/><path class="cls-54" d="M1093.14,1314.21l-18.09,6.4s-5.93-2.38-7.17-3c-7-3.58-22.65-63.89-10.42-66.87s29.27-3.12,31.9.43c.33.44,5,4.11,5,4.11S1096.1,1316,1093.14,1314.21Z"/><path class="cls-55" d="M1100.31,1317.22A41,41,0,0,0,1087,1317a70.69,70.69,0,0,0-12,3.65c-7.44,2.54-22.64-63.88-10.42-66.86s28.12-1.1,30.75,2.44S1103.7,1319.26,1100.31,1317.22Z"/><ellipse class="cls-56" cx="1100.89" cy="1377.51" rx="20.98" ry="23.26" transform="translate(-399.11 450.42) rotate(-19.65)"/><path class="cls-70" d="M983.42,838.58l214.05-70.38a16.77,16.77,0,0,1,21.17,10.69q.15.45.27.9L1253.45,909a16.76,16.76,0,0,1-11,20.26L1028.2,999.71A16.76,16.76,0,0,1,1007,989c-.1-.3-.2-.62-.28-.93l-34.3-129.28A16.76,16.76,0,0,1,983.42,838.58Z"/><path class="cls-71" d="M981.84,845.86l214.38-71a13,13,0,0,1,16.46,8.19q.13.41.24.81l34.73,129.86a13,13,0,0,1-8.49,15.74l-214.26,71.3a13,13,0,0,1-16.47-8.17c-.09-.27-.18-.55-.25-.83L973.34,861.62A13,13,0,0,1,981.84,845.86Z"/><path class="cls-72" d="M1139.52,865.1l-132.29,42.47a8.41,8.41,0,0,1-10.5-5.53l-9.91-38.28a8.41,8.41,0,0,1,5.52-10.49l132.29-42.46a8.42,8.42,0,0,1,10.5,5.52l9.91,38.28A8.4,8.4,0,0,1,1139.52,865.1Z"/><ellipse class="cls-73" cx="1021.86" cy="873.7" rx="16.23" ry="20.28" transform="translate(-204.72 323.21) rotate(-16.36)"/><ellipse class="cls-73" cx="1068.4" cy="858.33" rx="16.23" ry="20.28" transform="translate(-198.51 335.69) rotate(-16.36)"/><ellipse class="cls-73" cx="1113.54" cy="846.94" rx="16.23" ry="20.28" transform="translate(-192.6 345.67) rotate(-16.26)"/><path class="cls-74" d="M1122.7,906.06l-104,33.9a8.76,8.76,0,0,1-10.91-5.78h0a8.75,8.75,0,0,1,5.78-10.9l104-33.91a8.75,8.75,0,0,1,10.9,5.78h0A8.76,8.76,0,0,1,1122.7,906.06Z"/><path class="cls-73" d="M1078.52,975.84l-46.28,14.79a8.74,8.74,0,0,1-10.9-5.77h0a8.76,8.76,0,0,1,5.77-10.91l46.29-14.79a8.75,8.75,0,0,1,10.9,5.78h0A8.75,8.75,0,0,1,1078.52,975.84Z"/><path class="cls-73" d="M1072.2,952.19,1025.91,967a8.75,8.75,0,0,1-10.9-5.78h0a8.75,8.75,0,0,1,5.78-10.9l46.28-14.79a8.75,8.75,0,0,1,10.9,5.78h0A8.75,8.75,0,0,1,1072.2,952.19Z"/><polygon class="cls-75" points="1147.62 804.65 1210.61 783.39 1245.89 915.31 1182.04 936.01 1147.62 804.65"/><ellipse class="cls-76" cx="1204.02" cy="801.66" rx="7.25" ry="8.4" transform="matrix(0.97, -0.26, 0.26, 0.97, -166.22, 338.22)"/><path class="cls-77" d="M1201.87,793.49s5.78,9.21,3.89,16.36"/><path class="cls-77" d="M1197,803.48s9.55-.3,14-3.74"/><ellipse class="cls-78" cx="1188.64" cy="921.97" rx="7.25" ry="8.4" transform="translate(-197.82 338.33) rotate(-14.97)"/><path class="cls-77" d="M1186.5,913.8s5.78,9.2,3.89,16.35"/><path class="cls-77" d="M1181.66,923.79s9.55-.31,14-3.75"/><ellipse class="cls-79" cx="1233.55" cy="907.08" rx="7.25" ry="8.4" transform="translate(-192.45 349.43) rotate(-14.97)"/><path class="cls-77" d="M1231.4,898.9s5.78,9.2,3.89,16.35"/><path class="cls-77" d="M1226.56,908.89s9.55-.31,14-3.75"/><ellipse class="cls-80" cx="1164.78" cy="814.15" rx="7.25" ry="8.4" transform="translate(-170.77 328.51) rotate(-14.97)"/><path class="cls-77" d="M1162.63,806s5.78,9.2,3.9,16.36"/><path class="cls-77" d="M1157.8,816s9.55-.3,14-3.74"/></g></svg>