<svg id="Layer_1" data-name="Layer 1" xmlns="http://www.w3.org/2000/svg" viewBox="0 0 500 500"><defs><style>.cls-1{fill:#00a79d;}</style></defs><title>green_ink</title><path class="cls-1" d="M425.07,271.47c-18.68-5.11-31.64-16.4-46.38-30.16-8.77-8.18-32.75-16.49-37.77-29,.81-6.55,4.72-12.94,10.51-14.93,6.27-2.15,15.29-2.7,21.57-.06,7,2.94,14.28,6.69,21.82,5.25,4.31-.84,7.7-5.16,7-10.58-1.39-11.44-6.4-16.35-15.7-13.91-9,2.37-15.64,9.71-25.48,2-4.09-3.2-7.46-2.85-12.19-2.12q-4.12-6.9-8.24-13.82a42,42,0,0,1,10.15-13c3-2.84,6.6-5.07,9.86-7.51a34.33,34.33,0,0,0,12.92-18.55c3-9.68,8.27-11,13.54-18,2.13-2.83,5-8.75,4.7-12.86-.76-10-9.83-6.22-14.88-3.09-3.71,2.3-6.86,6.31-9.19,10.36s-4.52,8.18-7.14,12c-5.92,8.7-15.87,8.62-24.06,9.37-6.42.59-11.59,2.88-17.22,6.52-16.92,10.92-20.79-2.63-24.64-17.13C287,85,302.67,59.34,312.21,35.69c2.86-7.11,11.31-32.21-4.15-24.73-9.15,4.42-11.34,13.42-11.76,24.4C295.49,55.59,284,102.06,261,99.08c-5.6-.73-9.39-2.07-14.88-.11-1,.36-3,1.85-1.95,3.4,2.76,4.09,10.5,12.22-5.56,6.48-6.41-2.3-12.14-8.19-15.92-14.58-7.17-12.15-2.85-29.1-9.06-42.08-1.08-2.25-5.33-.31-5,2.19,1.12,9.82,3.72,18.12,2.7,27.56-14.19-14.24-12.9-38.88-22.06-57.14C186.54,19.48,175,3.67,170,15.87c-3.25,7.91-.25,13.19,4.47,19.4,7.72,10.17,15.4,18.06,20.65,30.74,5,12.06,6.28,28.05,5.4,41.22-.35,5.12-3.11,9.58-3.73,14.55-1,7.88-.92,15.73-1.86,23.53a5.37,5.37,0,0,0-3.27,1.28c-13.29-7.45-23-34.06-38.69-25.74-.82.42-2.17,2-1.27,3.1,4.4,5.62,42.36,27,33.19,34.42l-.19-.14c-.87-.61-5.22.33-5.11,1.89a1.93,1.93,0,0,1,0,.24c-1.11.24-3.22,1.23-2.73,3a36,36,0,0,1,1.49,12.12c-.07.21-.16.42-.24.64a14.3,14.3,0,0,0-5.49-.69c-4.73-1.92-9.83-.35-13,6-.28.58.62.63.86.65-3.85,2.92-7.74,5.88-8,5.66-.91-.72-2.5-.34-3.6.45-.47,0-.95.07-1.43.07-3.08.1-6.17-.08-9.25-.23-5.86-.28-11.71-1-17.54-1.68-8.28-1-16.52-2.12-24.86-1.41-4.78.4-10.92.74-15,4.18-6.93,5.83,5.26,13.56,8.81,16,6.88,4.76,16.85,8.27,24.77,5.75a6.84,6.84,0,0,0,3.94-3.09c1.5-3,4.68-13.07,9.93-7.68,1.94,2,2.73,3.94,5.52,4.58,13.12,3,26.13-3.93,39.38,1.71,7.86,3.35,10.07,13.17,11.32,21.88,2.21,15.5-4.57,23.21-16.61,26-10.71,2.5-17.55,10.94-25.33,19.7-11.77,13.26-32.42,14.15-41.27,31.09-8.55,16.38,15.57,22.08,23.85,14.13,4.45-4.27,7-9.79,9.9-15.61,3.58-7.24,6.71-10.05,12.37-15.15,4.23-3.81,8.07-9.5,14-7.86a12.35,12.35,0,0,0,4.16.67A17.59,17.59,0,0,0,174,278c6.55-4.65,19.94-34.34,24.63-12.17,2.84,13.38-6,28.35-12.91,37.75-4.4,6-18.51,28.23-1.93,26.32,12.76-1.47,11.79-18.16,16.4-29.34a57.24,57.24,0,0,1-.42,11.15c-4.77,6.81-5.42,19.89-8.34,27.28-.34.85,4.55.37,5.17-1.14,3.59-8.68,6.81-17.19,8.22-26.13,2.72-4,7.48-5.89,12.22-7.52-1.74,7.84-6.57,11-12.08,19-3.56,5.18-.48,8.25,4.33,8.26,6.21,0,9.58-6.48,12.37-12.12.4-.8,4.82-11.2,7.09-4.61,1.1,3.21-.48,8.55-1.19,11.71a67.8,67.8,0,0,1-9.07,22c-5.49,8.31-13.67,14.05-16.48,23.39a1.45,1.45,0,0,0-.65.88,27.85,27.85,0,0,0-.28,4.44,26.44,26.44,0,0,0,.08,4.51,8.06,8.06,0,0,0,3.3,5.89c5,5.8,14.14,4.39,18-4.69,2.9-3.47,3.61-7.54,3-13.35a163.61,163.61,0,0,1,12.33-39,119.63,119.63,0,0,0,7.89-21.66,1.52,1.52,0,0,1,1.44-1.2c2.23,3.86,5.32,6.26,9.82,3.19.2-.13.39-.29.58-.43,9.65-1.29,16.14-11.55,24.89-8.8,2.89,1.82,5.35,4,7.91,5.86,4.85,5.75,8.66,15.29,12.57,21.66,3.32,5.41,4.82,10.9,5.84,17.42,2.53,16.17,4,26.58,16.08,35.95,4.82,3.73,10.23,5.59,15.46,1.89,20.69-14.68-17.75-53.95-24.4-64.87-6-9.89-12.53-27.53-6.94-39.22a22.74,22.74,0,0,1,4.33-6.39,31.22,31.22,0,0,1,10.36-2.4c4.31,1.58,8.28,5.56,11,8.85a50,50,0,0,0,5.44,6c3.08,2.73,8.77,3.73,12.51,3.11,5.09-.84,10.35-1.79,11.39-8.64.59-3.86-5.53-5.82-7.46-6.8-3.16-1.6-2.58-6.34-2-9.43,1.2-5.84,10.32-3.15,13.66-2.34,28,6.78,49.29,32.29,79.5,28.8.48-.06,4.51-1.11,3.64-2.23C443.48,278.79,436,274.45,425.07,271.47Z"/><path class="cls-1" d="M494.32,302.82c-4.36-.37-8.75,1.23-13.12.39-3.22-.63-6.3-3.79-8.89-6-3-2.52-6.39-3.8-9.66-5.7-.94-.56-3,.19-4.1,1.15-1.64.5-3.15,1.78-2.24,2.69A169.8,169.8,0,0,0,469.22,307c4.32,3.52,10.92,5.86,14.15,10.73,3.66,5.5,9.61,5.57,14.09.72C501.73,313.85,500.57,303.35,494.32,302.82Z"/><path class="cls-1" d="M273.67,87.21A40.85,40.85,0,0,0,277,84.1a18.3,18.3,0,0,0,2-3.3,1.66,1.66,0,0,0-.08-1.63c-1.47-1.63-3.28-2.57-5.3-1.71a6.31,6.31,0,0,0-2.1,1.48,2.67,2.67,0,0,0-1.1,1.21,2.39,2.39,0,0,0-1.1,1.72,1.48,1.48,0,0,0,.49,1.35,14.62,14.62,0,0,0-.49,3C269.21,88.8,272.55,88.21,273.67,87.21Z"/><path class="cls-1" d="M390.44,320.08a6.45,6.45,0,0,0-5.08.17,28.22,28.22,0,0,0-3,2.25c-.84.54-1.85,1.71-1.39,2.9a6.83,6.83,0,0,0-1,3.51,2,2,0,0,0,2.44,2.07c2.08-.4,4.32-.2,6.14-1.64s2.23-4.74,2.95-6.77A1.88,1.88,0,0,0,390.44,320.08Z"/><path class="cls-1" d="M185.38,349.08a7.58,7.58,0,0,0-3.06,1.16,4.6,4.6,0,0,0-1.09,1.41,2.81,2.81,0,0,0-1.64,1.3c-.26.65.48.75,1.17.73l-.06,0c-3.81,3.58-5.42,8.22-3,13.56.58,1.26,3.41.05,4.14-.41,5.68-3.61,9.43-10.12,5.65-17.45C187.14,348.66,186,349,185.38,349.08Z"/><path class="cls-1" d="M213.82,405.93a1.13,1.13,0,0,0-.76-1.15c-.05-.1-.09-.23-.15-.34-1-2-6,.15-5.25,1.68.29.6.54,1.23.8,1.87-1.88,14.43-24.72,95.47-7.73,91.9,11.88-2.5,12.64-26.12,13.88-37,1.81-15.89,5.15-41.26-.84-56.38C213.78,406.3,213.8,406.12,213.82,405.93Z"/><path class="cls-1" d="M89.59,333.38a3.63,3.63,0,0,0-1.44,1.49c0,.08-.14.29-.24.5-.33,0-.66,0-1,.09-2.4.38-4.15,2-5.27,4.51-.18.4.2.72.47.81,2.88,1,5.52,2,8.46.71,2.55-1.15,3.32-4.15,4.44-6.84a.57.57,0,0,0-.14-.62C93.6,331.93,91.39,332.3,89.59,333.38Z"/><path class="cls-1" d="M67,330a17.34,17.34,0,0,0-2.91,1.76c-1.31,1-.08,1.18,1.38,1,0,.13,0,.24,0,.38a6.62,6.62,0,0,0-2.7.43c-18.55,9.73-33.33,26.75-51.48,37.21-11.4-9.63-18.63,21.45.83,22.44,7.71.39,12.45-8.92,16.49-15.12C40.39,360,58.23,349.52,71.22,332.8a.82.82,0,0,0,.24-.65c-.31-.73-.61-1.46-.91-2.19C70.07,328.79,67.68,329.67,67,330Z"/><path class="cls-1" d="M67.79,181.38a.38.38,0,0,0-.11-.5,12.25,12.25,0,0,0-3.53-1C56,176.6,47.22,173.44,38.91,177c-.4.17-2.19.93-1.58,1.73C45.2,188.89,59.82,194.74,67.79,181.38Z"/><path class="cls-1" d="M116.53,177.7c8.76,1.37,17.25,5.24,26.14,3.14.36-.09,3.84-1.19,3-2.09-5.27-5.63-13-6.56-19.81-6.64-.9,0-4.82,1.82-4,2.29a24.93,24.93,0,0,0-4.61,1.82C116.88,176.39,115.33,177.52,116.53,177.7Z"/><path class="cls-1" d="M132,12a18,18,0,0,0,3.72,3.33c1.24.78,4,.35,4.54-1.45.64-2,1.17-4.07-.44-5.6a4.34,4.34,0,0,0-1.7-.79c-.1,0-.76-.35-.29-.09-.39-.21-.13,0-.35-.45a1.67,1.67,0,0,0-1.61-.84,5.05,5.05,0,0,0-4.92,2.37C130.11,10.05,131,10.92,132,12Z"/><path class="cls-1" d="M87.59,14.54a30.35,30.35,0,0,0-2.76-4,1.36,1.36,0,0,0,0-1.43A25.26,25.26,0,0,0,76.35.21c-1-.64-5.36.18-4.71,2.38A25.05,25.05,0,0,0,83.06,17.32C84.33,18.09,88.74,16.91,87.59,14.54Z"/><path class="cls-1" d="M136.64,87.76a19.54,19.54,0,0,1,3.73,4.37c.37.57.71,1.22,1,1.87v4a2.11,2.11,0,0,0,2.46,2.16,9.86,9.86,0,0,0,5-3c1.2-1.17,2-2.89,1.18-4l0,0a3.58,3.58,0,0,0-3.66-2.31,1.08,1.08,0,0,0-.31.07,3.77,3.77,0,0,1-.22-.33c-.5-.84-1-1.65-1.57-2.45a20.49,20.49,0,0,0-3.69-4.06C138.69,82.4,134.13,85.66,136.64,87.76Z"/><path class="cls-1" d="M184.81,119.6c-1.16-2.5-3.39-4-4.54-6.47,0-.13-.12-.21-.3-.27a5.72,5.72,0,0,0-4.79,1.5c-.14.17-.22.33-.16.44v5.4l.15.2a10.09,10.09,0,0,0,5.29,1.26C180.92,121.66,185.33,120.74,184.81,119.6Z"/></svg>