<svg id="Group_1" data-name="Group 1" xmlns="http://www.w3.org/2000/svg" viewBox="0 0 1200 600"><defs><style>.cls-1{fill:#344755;}.cls-2{fill:#48657c;}.cls-3{fill:#212f3a;}.cls-4{fill:#2e414f;}.cls-5{opacity:0.23;}.cls-6{fill:#a0a0a0;}.cls-7{fill:#b8b8b8;}.cls-8{fill:#6e6e6e;}.cls-9{fill:#4b4b4b;}</style></defs><title>piano_holder</title><rect class="cls-1" y="47.08" width="1200" height="552.92" rx="57.34"/><rect class="cls-2" width="1200" height="552.92" rx="57.34"/><path class="cls-3" d="M114.32,64.4h971.36a64,64,0,0,1,64,64v352.9a0,0,0,0,1,0,0H50.31a0,0,0,0,1,0,0V128.41A64,64,0,0,1,114.32,64.4Z"/><path class="cls-4" d="M120.31,80.89h961a64,64,0,0,1,64,64V476.12a0,0,0,0,1,0,0H56.31a0,0,0,0,1,0,0V144.9A64,64,0,0,1,120.31,80.89Z"/><g id="Group_2" data-name="Group 2"><g id="Ellipse_2" data-name="Ellipse 2" class="cls-5"><ellipse cx="1160.03" cy="46.06" rx="18.81" ry="20.88"/></g><g id="Ellipse_1" data-name="Ellipse 1"><ellipse class="cls-6" cx="1159.47" cy="39.42" rx="20.33" ry="20.86"/></g><g id="Ellipse_1_copy" data-name="Ellipse 1 copy"><path class="cls-7" d="M1159.4,18.73a20.5,20.5,0,0,0-20.31,20.84c8.89,19.81,39.22,12.06,40.49.14A20.29,20.29,0,0,0,1159.4,18.73Z"/></g><g id="Polygon_1" data-name="Polygon 1"><polygon class="cls-8" points="1159.12 28.54 1149.17 36.3 1153.25 48.47 1165.71 48.22 1169.34 35.91 1159.12 28.54"/></g><g id="Polygon_1_copy" data-name="Polygon 1 copy"><polygon class="cls-9" points="1159.28 34.39 1150.83 40.78 1153.58 48.34 1165.4 48.15 1167.72 40.78 1159.28 34.39"/></g></g><g id="Group_2_copy" data-name="Group 2 copy"><g id="Ellipse_2-2" data-name="Ellipse 2" class="cls-5"><ellipse cx="40.47" cy="47.54" rx="18.81" ry="20.88"/></g><g id="Ellipse_1-2" data-name="Ellipse 1"><ellipse class="cls-6" cx="39.91" cy="40.9" rx="20.33" ry="20.86"/></g><g id="Ellipse_1_copy-2" data-name="Ellipse 1 copy"><path class="cls-7" d="M39.84,20.21A20.5,20.5,0,0,0,19.53,41.05c8.9,19.81,39.23,12.06,40.49.14A20.29,20.29,0,0,0,39.84,20.21Z"/></g><g id="Polygon_1-2" data-name="Polygon 1"><polygon class="cls-8" points="39.56 30.02 29.61 37.78 33.69 49.95 46.15 49.7 49.78 37.39 39.56 30.02"/></g><g id="Polygon_1_copy-2" data-name="Polygon 1 copy"><polygon class="cls-9" points="39.72 35.87 31.28 42.26 34.02 49.82 45.85 49.63 48.16 42.26 39.72 35.87"/></g></g><g id="Group_2_copy_2" data-name="Group 2 copy 2"><g id="Ellipse_2-3" data-name="Ellipse 2" class="cls-5"><ellipse cx="1160.6" cy="517.27" rx="18.81" ry="20.88"/></g><g id="Ellipse_1-3" data-name="Ellipse 1"><ellipse class="cls-6" cx="1160.04" cy="510.63" rx="20.33" ry="20.86"/></g><g id="Ellipse_1_copy-3" data-name="Ellipse 1 copy"><path class="cls-7" d="M1160,489.94a20.52,20.52,0,0,0-20.32,20.84c8.9,19.81,39.23,12.06,40.5.14A20.3,20.3,0,0,0,1160,489.94Z"/></g><g id="Polygon_1-3" data-name="Polygon 1"><polygon class="cls-8" points="1159.68 499.75 1149.74 507.51 1153.81 519.68 1166.28 519.44 1169.91 507.12 1159.68 499.75"/></g><g id="Polygon_1_copy-3" data-name="Polygon 1 copy"><polygon class="cls-9" points="1159.85 505.6 1151.4 511.99 1154.14 519.55 1165.97 519.36 1168.29 511.99 1159.85 505.6"/></g></g><g id="Group_2_copy_3" data-name="Group 2 copy 3"><g id="Ellipse_2-4" data-name="Ellipse 2" class="cls-5"><ellipse cx="42.15" cy="519.15" rx="18.81" ry="20.88"/></g><g id="Ellipse_1-4" data-name="Ellipse 1"><ellipse class="cls-6" cx="41.59" cy="512.51" rx="20.33" ry="20.86"/></g><g id="Ellipse_1_copy-4" data-name="Ellipse 1 copy"><path class="cls-7" d="M41.52,491.82a20.5,20.5,0,0,0-20.31,20.84c8.89,19.81,39.22,12.06,40.49.14A20.29,20.29,0,0,0,41.52,491.82Z"/></g><g id="Polygon_1-4" data-name="Polygon 1"><polygon class="cls-8" points="41.24 501.63 31.29 509.39 35.37 521.56 47.83 521.31 51.46 509 41.24 501.63"/></g><g id="Polygon_1_copy-4" data-name="Polygon 1 copy"><polygon class="cls-9" points="41.4 507.47 32.95 513.87 35.7 521.43 47.53 521.24 49.84 513.87 41.4 507.47"/></g></g></svg>