<svg id="Layer_1" data-name="Layer 1" xmlns="http://www.w3.org/2000/svg" viewBox="0 0 780 832"><defs><style>.cls-1{fill:#2e1b00;}.cls-2{fill:#1ba1b2;}.cls-3{fill:#21d8ff;}.cls-4{fill:#fffdfa;}</style></defs><title>previous_button_pressed</title><path d="M390.35,55.14c-207.26,0-375.29,168-375.29,375.29q0,3.33.06,6.64t-.06,6.64C15.06,651,183.09,819,390.35,819S765.64,651,765.64,443.71q0-3.33-.06-6.64t.06-6.64c0-207.27-168-375.29-375.29-375.29m0-10C603,45,775.48,217.22,775.64,429.85v.58c0,2.2,0,4.44-.06,6.64s.06,4.43.06,6.64C775.52,656.55,602.88,829,390,828.89a384.8,384.8,0,0,1-385-385.18c0-2.21,0-4.44.06-6.64s-.06-4.44-.06-6.64C4.9,217.8,177.14,45.3,389.77,45.14Z"/><path class="cls-1" d="M388.59,59.1c-77.61.14-154.1,24.23-217.27,69.44-61.46,44-108.85,106.67-133.52,178.18A370,370,0,0,0,17.7,423.24c-.45,40.3,2.91,79.93,13.87,118.86A375,375,0,0,0,362.72,813.91c77.76,6,156.44-12.37,223.16-52.83,64.6-39.17,116.58-98.08,146.77-167.36a367.73,367.73,0,0,0,28.84-112.9c3.72-40.35,2.22-82.08-5.84-121.82A375,375,0,0,0,446.08,63.47a383,383,0,0,0-57.49-4.37c-2.24,0,1.08-7.92,3.52-7.92,79.12.15,157,25.12,221,71.71A375.47,375.47,0,0,1,768.23,423.24c.45,40.86-3.06,81-14.1,120.47A386.88,386.88,0,0,1,631,734.51a378.15,378.15,0,0,1-213,87.31c-79.17,6.14-159.4-13-227-54.81A375.66,375.66,0,0,1,14,481.59c-3.77-40.86-2.27-83,5.82-123.27A387.5,387.5,0,0,1,129.29,158.07a378.71,378.71,0,0,1,203.3-102.2,384,384,0,0,1,59.52-4.69c2.23,0-1.08,7.91-3.52,7.92Z"/><path class="cls-1" d="M392.11,41.18c81.71.19,162.19,26.06,228.13,74.46a385.61,385.61,0,0,1,158,310c.2,41.07-3.39,81.31-14.52,121a397.57,397.57,0,0,1-125.51,194.9,387.66,387.66,0,0,1-219.16,90.24c-82.22,6.39-165.43-13.71-235.36-57.51A385.81,385.81,0,0,1,3.85,479.87C.38,439.06,1.92,397,9.94,356.87c15.45-77.48,54.69-149.27,111-204.59,56.95-56,130.9-93.65,209.78-106.28a395.55,395.55,0,0,1,61.39-4.84c2.23,0-1.08,7.91-3.52,7.92-80.22.18-159.32,25.18-224.43,72.23C101.46,166.63,53.31,230.8,28.16,304A379.67,379.67,0,0,0,7.7,425.6c-.19,40.91,3.33,81,14.61,120.49A384.93,384.93,0,0,0,362.57,823.93c80.18,6.07,161.18-13.11,229.78-55.07,65.74-40.16,118.6-100.35,149.38-171a376.27,376.27,0,0,0,30-119.9c3.24-40,1.72-81.27-6.25-120.71A385.16,385.16,0,0,0,448.86,53.77a392.34,392.34,0,0,0-60.27-4.67C386.35,49.09,389.67,41.17,392.11,41.18Z"/><circle class="cls-2" cx="390.35" cy="443.71" r="375.29"/><circle class="cls-3" cx="390.35" cy="430.43" r="375.29"/><path class="cls-4" d="M456.72,687.45a72.33,72.33,0,0,0,51.49-21.33l9.65-9.65a72.91,72.91,0,0,0,0-103l-87-87a57.89,57.89,0,0,1,0-81.77l87-87a72.91,72.91,0,0,0,0-103l-9.65-9.65a72.81,72.81,0,0,0-103,0l0,0-189.06,189a72.81,72.81,0,0,0,0,103l0,0L405.23,666.12A72.29,72.29,0,0,0,456.72,687.45Z"/><path class="cls-1" d="M456.72,171.2c-20.66.09-36.08,1-51.49,13.83-16.19,13.48-43.8,44.36-58.45,59.42-39.91,41-69.1,77.35-109,118.36-15.5,15.92-35,27.9-37.55,51.14-2.73,24.67-1.74,38.91,13.87,55.64,38.16,40.91,95.49,92.59,135.25,131.89,9.83,9.7,10.68,14.76,20.59,24.38,9,8.72,26.92,22.16,36.6,30.11,17.42,14.3,38.86,26.42,62.2,22.63,22.59-3.68,40.12-6.19,50.91-25.81,5.75-10.48,15.58-29.08,15.41-41.09-.15-10.13-5.77-26.08-10.28-35.1-18.27-36.61-51.88-65.75-79.61-94.17-15.05-15.41-27.33-30.22-31.09-52-3.73-22-1.64-30.43,12.27-46.43,14.37-16.54,32.78-39,49.31-53.25C492,316.7,514,298.41,524.79,279.56s8.36-37.41.82-58a78.77,78.77,0,0,0-40.19-43.8,68.33,68.33,0,0,0-28.74-6.51m0-15h0a79.78,79.78,0,0,1,56.8,23.53l9.64,9.65a80.39,80.39,0,0,1,0,113.58l-87,87a50.37,50.37,0,0,0,0,71.16l87,87a80.41,80.41,0,0,1,0,113.58l-9.65,9.65a80.33,80.33,0,0,1-113.6,0l-189-189a80.31,80.31,0,0,1,0-113.59h0l189-189.06a79.79,79.79,0,0,1,56.8-23.52Z"/></svg>