<svg id="Layer_1" data-name="Layer 1" xmlns="http://www.w3.org/2000/svg" viewBox="0 0 780 832"><defs><style>.cls-1{fill:#2e1b00;}.cls-2{fill:#1ba1b2;}.cls-3{fill:#21d8ff;}.cls-4{fill:#fffdfa;}</style></defs><title>previous_button</title><path class="cls-1" d="M389.81,11.75c-207.26,0-375.28,168-375.28,375.29q0,14.67,1.1,29-1.1,14.37-1.1,29c0,207.27,168,375.29,375.28,375.29S765.1,652.4,765.1,445.13q0-14.65-1.1-29,1.1-14.37,1.1-29c0-207.27-168-375.29-375.29-375.29m0-10C602.44,1.68,774.94,173.92,775.1,386.55V387c0,9.7-.36,19.47-1.07,29,.71,9.59,1.07,19.36,1.07,29C775,657.83,602.4,830.3,389.57,830.21A384.87,384.87,0,0,1,4.53,445c0-9.68.36-19.45,1.08-29-.72-9.58-1.08-19.35-1.08-29C4.39,174.37,176.65,1.89,389.28,1.75h.53Z"/><path class="cls-1" d="M388.78,13.29A369.63,369.63,0,0,0,166.59,88.64,373.42,373.42,0,0,0,18.91,398.49c.2,6.4,1,12.88.78,19.27-.24,7.42-.83,14.81-.92,22.25q-.21,16.11.94,32.19a377,377,0,0,0,9,58.93c17.86,76,60.05,145.36,118.94,196.6,59.47,51.74,135.16,83.93,213.82,90a369.19,369.19,0,0,0,227.94-57.64A377,377,0,0,0,734.32,584.28a373.16,373.16,0,0,0,25.92-116.45q1-17,.49-34.13c-.22-7.05-1.12-14.17-.66-21.2s.74-14.19.81-21.3a379.48,379.48,0,0,0-4.46-62.08A375.51,375.51,0,0,0,653,124.17C598.07,68.48,525.91,30.71,448.64,18.1a376.41,376.41,0,0,0-59.87-4.81c-1,0-3.45-.24-3-1.7s4.18-1.37,5.1-1.37C471.53,10.37,551.12,36,616.1,84A375.31,375.31,0,0,1,769.18,396.55c-.18,7.05-1.07,14.18-.83,21.21.25,7.75.86,15.46.94,23.22q.15,16-1,31.91a375.18,375.18,0,0,1-131.55,258.6c-60.9,51.88-137.72,83.15-217.43,89.32-80.91,6.27-163-13.24-231.87-56.33A379.44,379.44,0,0,1,38.3,587.78,374.54,374.54,0,0,1,11.09,469.22Q10,451.49,10.52,433.7c.21-7.06,1.11-14.16.65-21.2s-.73-14.19-.81-21.3A375.3,375.3,0,0,1,122.23,119.66,381.33,381.33,0,0,1,330.44,14.83a397.88,397.88,0,0,1,60.4-4.61c1,0,3.46.24,3.05,1.7s-4.18,1.36-5.11,1.37Z"/><path class="cls-1" d="M390.84.22c83.8.2,166.53,27.06,233.65,77.48A385.27,385.27,0,0,1,779,401.36c-.2,5.44-.9,11-.66,16.41.27,5.8.67,11.6.82,17.41q.4,16.88-.62,33.74a383.58,383.58,0,0,1-9.4,64.23A388.58,388.58,0,0,1,644.53,738C581.72,792.06,502,824.61,419.45,830.85c-83.81,6.32-168.81-14.26-239.81-59.43A389.48,389.48,0,0,1,28.5,590.26,384.1,384.1,0,0,1,.76,463.89q-.78-17-.12-34c.21-5.44.92-11,.56-16.39q-.57-8.7-.77-17.43a384.89,384.89,0,0,1,114.1-282.81A391,391,0,0,1,329,4.91,410,410,0,0,1,390.84.22c1,0,3.46.24,3.05,1.7s-4.18,1.36-5.11,1.37A382.53,382.53,0,0,0,9,402.34c.2,5.13.86,10.32.63,15.44-.26,5.8-.67,11.6-.82,17.41q-.39,15.94.51,31.9a386.68,386.68,0,0,0,8.49,61.63C35.33,607.45,78,679.35,138.29,732.86c61.36,54.5,140.21,88.5,222.1,94.86A379.65,379.65,0,0,0,598.46,766.2,387.28,387.28,0,0,0,744.57,585.58a382.86,382.86,0,0,0,26-123.58q.68-16,.09-32.15c-.22-5.44-.93-11-.57-16.39s.57-11,.71-16.46a390.91,390.91,0,0,0-3.64-63.87A385.22,385.22,0,0,0,662.46,119.54C605.91,61.24,531.2,21.54,451,8.33a387.85,387.85,0,0,0-62.19-5c-1,0-3.45-.24-3-1.7S389.92.22,390.84.22Z"/><circle class="cls-2" cx="389.82" cy="444.49" r="375.29"/><circle class="cls-3" cx="389.82" cy="386.39" r="375.29"/><path class="cls-4" d="M456.19,643.42a72.36,72.36,0,0,0,51.45-21.33l9.65-9.65a72.89,72.89,0,0,0,0-103l-87-87a57.89,57.89,0,0,1,0-81.77l87-87a72.89,72.89,0,0,0,0-103L507.64,141A72.8,72.8,0,0,0,404.69,141l-.05.05-189,189a72.82,72.82,0,0,0,0,103l0,0L404.7,622.09A72.37,72.37,0,0,0,456.19,643.42Z"/><path class="cls-1" d="M456.19,127.16c-20.66.09-36.08,1-51.49,13.83-16.19,13.49-43.8,44.37-58.46,59.43-39.91,41-69.09,77.35-109,118.35-15.5,15.93-35,27.91-37.56,51.14-2.72,24.67-1.73,38.92,13.88,55.65,38.17,40.9,95.5,92.58,135.31,131.89,9.83,9.7,10.68,14.76,20.58,24.37,9,8.73,26.92,22.17,36.61,30.12,17.42,14.3,38.86,26.41,62.2,22.62,22.59-3.67,40.12-6.19,50.91-25.81,5.75-10.47,15.58-29.07,15.4-41.09-.14-10.13-5.77-26.08-10.27-35.1C506,496,472.42,466.81,444.64,438.4c-15-15.4-27.28-30.23-31-52C409.85,364.39,412,356,425.9,340c14.37-16.54,32.78-39,49.31-53.24,16.33-14,38.34-32.35,49.13-51.2s8.36-37.4.82-58A78.73,78.73,0,0,0,485,133.71a68.19,68.19,0,0,0-28.74-6.52m0-15h0A79.84,79.84,0,0,1,513,135.72l9.62,9.62a80.41,80.41,0,0,1,0,113.59l-87,87a50.37,50.37,0,0,0,0,71.16l87,87a80.41,80.41,0,0,1,0,113.59L513,627.33a80.32,80.32,0,0,1-113.59,0h0l-189.07-189a80.33,80.33,0,0,1,0-113.59l189.06-189a79.8,79.8,0,0,1,56.79-23.53Z"/></svg>