<svg id="Layer_1" data-name="Layer 1" xmlns="http://www.w3.org/2000/svg" viewBox="0 0 500 500"><defs><style>.cls-1{fill:#e8158e;}</style></defs><title>red_ink</title><path class="cls-1" d="M194.71,68.81a1.6,1.6,0,0,0,.94.26l.23,0a7.24,7.24,0,0,0,6-1.58c1.56-1.42,1.52-4.13,1.53-6.26,0-.21-.49-.26-1.11-.2.27-.19.46-.41.41-.64-.16-.66-1.89-.08-2.19,0s-.34.13-.52.18a4.23,4.23,0,0,0-.25-.47C199,59,196.44,59.93,196,61s-1.17,2.21-1.63,3.39a3.7,3.7,0,0,0-.21,1.21,9.91,9.91,0,0,0-.41,2.79.37.37,0,0,0,.35.24C194.27,68.7,194.49,68.75,194.71,68.81Z"/><path class="cls-1" d="M285.13,14.45a4.84,4.84,0,0,0,2.34-2.23,1.69,1.69,0,0,0-.09-2.09c.11-.3.21-.6.33-.88a1.56,1.56,0,0,0-1.26-2.13,2.5,2.5,0,0,0-2.65,1.51,11.32,11.32,0,0,0-1.22,4.14A1.82,1.82,0,0,0,285.13,14.45Z"/><path class="cls-1" d="M401.73,31.55c7.91,1.07,14.35-6,15-15.2.89-11.64-7.53-17-16.14-16.28a2.69,2.69,0,0,0-1.1.39c-3.31.78-6.44,3.22-8.72,7.29C384.7,18.68,391.84,30.2,401.73,31.55Z"/><path class="cls-1" d="M113.23,178.79l.73.3a2.59,2.59,0,0,0,.11.37,3.31,3.31,0,0,0,2.32,1.6c1.44.39,3.16.53,4.32-.71a3.85,3.85,0,0,0,2.22-2,2,2,0,0,0-.38-2.73,5.37,5.37,0,0,0-1.46-2.95,3.46,3.46,0,0,0-2.75-.94,8.63,8.63,0,0,0-1,.14l-.55,0c.43,0-.23-.12,0,0a2.48,2.48,0,0,0-2.88.92,1.89,1.89,0,0,0-.3,1.37,1.57,1.57,0,0,0,0,.89,3.62,3.62,0,0,1,.13.91,3.71,3.71,0,0,0-.83,2.44A.52.52,0,0,0,113.23,178.79Z"/><path class="cls-1" d="M279.35,433.37a57,57,0,0,1,.68-10.69c.23-1.17-3.78-.42-4,.83-.07.36-.11.72-.16,1.09a1.25,1.25,0,0,0-.55.59,39.51,39.51,0,0,0-.72,9.48c0,.33.56.43,1.27.36C277,435.16,279.35,434.48,279.35,433.37Z"/><path class="cls-1" d="M276.81,449a13.31,13.31,0,0,0-.75,3.47,1.38,1.38,0,0,0-.08.27c-.11,2.14-.43,4,.86,5.75.9,1.24,3.61.27,3.93-1.26a22.75,22.75,0,0,0,0-8.78C280.47,446.73,277.24,447.9,276.81,449Z"/><path class="cls-1" d="M345.73,106.86l.08,0h0a4.89,4.89,0,0,0-1,.53,1.78,1.78,0,0,0-.69,1.72v0c.41,1.15,1.5,1.19,2.4,1a2.9,2.9,0,0,0,.41-.16,1.4,1.4,0,0,1,.49-.1,2.42,2.42,0,0,0,2.25-1.93c.15-1.24-1.09-1.57-1.86-1.53l-.15,0a2.75,2.75,0,0,0-1.64.32Z"/><path class="cls-1" d="M444,124.21c5.42,1.27,11.35-3.57,13.57-9.17A11.51,11.51,0,0,0,458,107c-.22-6.68-4.89-8.37-9.64-7.36-6.73-1-14.37,3.09-14.47,12.26A12.16,12.16,0,0,0,444,124.21Z"/><path class="cls-1" d="M445.26,335a1.67,1.67,0,0,0-1.84-1.1c-1.82.36-4.67.36-5.94,2.26-1.75,2.62,2.56,4.6,3.9,5.4a2.41,2.41,0,0,0,2.87-.92c.72-1,.75-2.43,1.41-3.36A1.53,1.53,0,0,0,445.26,335Z"/><path class="cls-1" d="M490.67,179.3c-4.81,1.08-9.4,3.28-14,5.27-7.93,3.43-16.27,4.67-24.6,6-18.49,3-35.38,7.91-53.86,5.58-6.93-2.31-11.83-7.89-17.69-13-5.32-4.67-11.33-6.24-17.78-6.91-3.1-.32-6.3-.35-9.07-2.38-5-3.68-2.33-16.56-.93-21.44,2.83-9.86,11.17-16.4,17-23.51,13.78-16.73,22.47-37.7,38.59-51.9,5.95-5.25,20.94-14.19,19.76-26-.92-9-12.82.33-15.32,2.81-7.16,7.08-10.83,18-18.92,24-6.14,4.54-10.84,6.1-14.22,14.14-3.06,7.29-5.44,10.93-11.31,14.84-1.77,1.18-4.09,3-5.09,5.16-1.86,4.07-3.17,8.28-4.64,12.57-6.42,18.76-20,5.06-24.41-6.17-3.55-9.07-4.62-23.44-2.3-32.85,1.74-7.09,5.58-13,7.55-19.85,3.8-3.46,7.46-7,7.4-12-.07-6.16-1.56-9.28-6.67-8-3.83.94-6.68,4.42-8.62,8.26-1.81,3.55-1.27,9-1.47,13.31-2.11,2.41-4.27,4.77-6.45,7.1-4.75.28-10.86-1.69-13.61-1.64-12,.25-18.46,11.08-23.95,22.31-6.3,12.9-18.6,22.62-30.32,11.29-6-5.8-2-18,.2-24.77,3.89-12.18,13.23-31.52,4.2-43.69-1.85-2.51-6.74-1.34-8.78.09-5.12,3.61-4.37,10.7-3.9,17,1,13.69-3.48,26.63-7.33,39.35-2,6.57-6.11,10.86-9.45,16.35-2.71,4.46-3.58,9.77-5.27,14.76-6.46,6.23-15,19.47-18.5,9-.63-1.9-4.46-.72-4.07,1.3,1.58,8.22,1.29,12.56-5.33,16.61-4.24,2.6-8.45,5.28-12.68,7.91-16.94,10.53-32.77,4.25-48.54-5.59-22.25-13.89-44-28.17-63.93-46.45-9.53-8.74-19.2-17-29.14-25-8.57-7-13.65-17-21.61-24.56C16.58,53.69-4.32,56.29.8,67.3c2.79,6,8.53,9,13.75,11.17,11.74,4.78,20,11.29,29.76,20.18,9.15,8.31,19.88,14.08,29.93,20.64,10.86,7.08,20,16.59,31.27,22.91,10.58,6,15.29,16,21.93,26.69s13.2,10.91,23.3,13.11c7.16,1.56,6.7,7.74,7.26,13.75.51,5.41,2.77,9.53,3.68,14.52-1.55,3.38-2.92,6.9-4.24,10.44-1,2.73-2.93,6.65-2.39,9.82,1,5.84,4.86,10.61,1.24,16.43-5.18,8.32-21.42,6.75-29.27,7.42-5,.42-9.94,1.26-14.93,1.71-15.34,1.37-50.79.21-57.57,22.06a.44.44,0,0,0,.11.48c3.37,2,6,2.92,9.79,2.19,9.77-1.9,14-8.76,25.58-8.28a197,197,0,0,0,47.81-4.25,89.53,89.53,0,0,0,15.95-5.21c4.17-1.72,19-7.43,15,2.76-1.25,3.21-3.63,6.07-5.55,8.71-4.71,6.45-10.5,18.61-16.18,22.62-6.15,4.33-12.25,6.78-18.22,11.81-9.91,8.35-21.25,12.31-31.3,20-7.31,5.58-7.3,10.38,1.64,12.82,7.34,2,12.94-4.6,17.58-10.25,6.92-8.41,16.7-8.62,24.33-14.95,3.65-3,7.28-6.57,11.06-9.64,2.06.76,5.23-.2,7.14-.65,7.41-1.78,15.34-6.52,20.08,3.65,3,6.48,4.31,14.07,6.92,20.81,4.08,10.52,13.08,12.78,21.73,12.7,5.84-.05,15.31-.95,17.5,7.18,1.68,6.23,1.87,12.13,4.33,18.19,3.48,8.6,4.3,15.65,1,24.46a36.55,36.55,0,0,0-2.2,16.14c.44,6.74,4.13,14.19,10.62,12.51,7.23-1.87,12.66-7,13.46-16.05.41-4.64-.51-9.5-.82-14.11-.76-11.41,6.54-16.37,14.29-20.12.49,11.51-4.91,17,2.87,27.2,4.09,5.38,9.23,6.58,11.8,14,1.34,3.83.11,10.31-.13,14.43-.27,4.32.93,8.66,1.74,12.81,3.31,17.05,7,32.86,7.67,50.45.17,4.64,1.6,11.91,6.73,8.67,9.53-6,8.13-18.12,4.71-28.18-5.82-17.08-4.57-34.91-7.66-52.75-1.28-7.37-3.48-14.57-5.14-21.84-.6-2.62-3.13-20.83,1.37-13.42,2.36,3.88,5.33,4.18,8.3,2.75-.22,8.84-3,25.8,5,29.34,4.62,2.06,7.17-1.74,8.05-6.87,1.52-8.94-.34-18.43-3.17-26.67a88.77,88.77,0,0,1-3-10.52c-1.44-6.79,7.7-14.56,7-4-.31,4.65-1.72,9.21-1.14,13.9.18,1.48,2.76.5,3.3.09,6.21-4.64,9.16-14.87,12.11-22.42,2.46-6.33,4.82-16,10-19.19,5.43,3.11,8.75,1.7,12.68-1.37q-.76,4.89-1.54,9.78c-.18,1.08,1.19,1.17,1.76,1.07a10.17,10.17,0,0,0,7.43-4.62c4.07-5.51,7.88-9.1,14.9-8.73a51.74,51.74,0,0,0,9.38-.45c8.66-1.1,19.73-4.15,23.35-15,4.24-12.7,9.08-34.76,1.35-46.71-3.05-4.72-6.65-9-9.95-13.42-.7-1-2.25-3-3.74-5.27a54.1,54.1,0,0,1-.16-7.15,26.29,26.29,0,0,1,.64-3.78c1.11-.36,2.71-1.2,1.86-2.19a8.77,8.77,0,0,0-2.38-1.86c-1.71-3.1-5.27-4.14-8.06-4.57-13.49-2.05-4.87-12,2-17.86.2-.16.4-.32.59-.49a41.26,41.26,0,0,1,4.7-3.42c15-8.66,32.67-11.34,48.91-13.75,15.16-2.26,30.21-4.41,45.39-6.1,4-.45,12-.91,14-6.17C501.61,182.28,493.83,178.58,490.67,179.3Z"/></svg>