<svg id="Layer_1" data-name="Layer 1" xmlns="http://www.w3.org/2000/svg" xmlns:xlink="http://www.w3.org/1999/xlink" viewBox="0 0 152 333"><defs><style>.cls-1{fill:none;}.cls-2{clip-path:url(#clip-path);}.cls-3{isolation:isolate;}.cls-4{clip-path:url(#clip-path-3);}.cls-5{fill:#cecece;}.cls-6{fill:#fff;}.cls-7{opacity:0.05;}.cls-8{clip-path:url(#clip-path-4);}.cls-9{opacity:0.3;}.cls-10{clip-path:url(#clip-path-5);}</style><clipPath id="clip-path"><rect class="cls-1" width="152" height="333"/></clipPath><clipPath id="clip-path-3"><rect class="cls-1" x="-171.97" width="631.73" height="333"/></clipPath><clipPath id="clip-path-4"><rect class="cls-1" width="8.73" height="8.73"/></clipPath><clipPath id="clip-path-5"><rect class="cls-1" width="152" height="333"/></clipPath></defs><title>white-key-pressed</title><g class="cls-2"><g class="cls-2"><g class="cls-3"><g class="cls-4"><path class="cls-5" d="M152,8.73V324.27a8.73,8.73,0,0,1-8.73,8.73H8.73A8.73,8.73,0,0,1,0,324.27V8.73c0-.19,0-.38,0-.56a4.87,4.87,0,0,1,.06-.55,1.1,1.1,0,0,1,0-.18c0-.1,0-.19,0-.28A1.29,1.29,0,0,1,.18,7a6.85,6.85,0,0,1,.2-.81,0,0,0,0,0,0,0A8.74,8.74,0,0,1,8.73,0H143.27a8.74,8.74,0,0,1,8.34,6.14,0,0,0,0,0,0,0,6.85,6.85,0,0,1,.2.81,1.29,1.29,0,0,1,0,.19,2.7,2.7,0,0,1,0,.28,1.1,1.1,0,0,1,0,.18,4.87,4.87,0,0,1,.06.55c0,.18,0,.37,0,.56"/><path class="cls-6" d="M152,8.73V314a8.6,8.6,0,0,1-8.42,8.77H8.42A8.6,8.6,0,0,1,0,314V8.73c0-.19,0-.38,0-.56a4.87,4.87,0,0,1,.06-.55,1.1,1.1,0,0,1,0-.18c0-.1,0-.19,0-.28A1.29,1.29,0,0,1,.18,7a6.85,6.85,0,0,1,.2-.81,0,0,0,0,0,0,0,8.36,8.36,0,0,1,.32-.83A8.46,8.46,0,0,1,7.14.1C7.41.06,7.7,0,8,0H144c.29,0,.58,0,.85.09a8.49,8.49,0,0,1,6.44,5.21c.11.27.22.55.31.83a0,0,0,0,0,0,0,8,8,0,0,1,.2.81,1.29,1.29,0,0,1,0,.19c0,.09,0,.18,0,.28a1.1,1.1,0,0,1,0,.18,4.87,4.87,0,0,1,.06.55c0,.18,0,.37,0,.56"/><path class="cls-6" d="M.71,5.31a7.5,7.5,0,0,0-.32.83,0,0,0,0,1,0,0A6.85,6.85,0,0,0,.18,7a1.29,1.29,0,0,0,0,.19,2.7,2.7,0,0,0,0,.28,1.1,1.1,0,0,0,0,.18A4.87,4.87,0,0,0,0,8.17c0,.18,0,.37,0,.56V8.42A8.42,8.42,0,0,1,7.14.1,7.63,7.63,0,0,1,8,0h.74a8.72,8.72,0,0,0-8,5.31"/><path class="cls-6" d="M152,8.42v.31c0-.19,0-.38,0-.56a4.87,4.87,0,0,0-.06-.55,1.1,1.1,0,0,0,0-.18,2.7,2.7,0,0,0,0-.28,1.29,1.29,0,0,0,0-.19,8,8,0,0,0-.2-.81,0,0,0,0,1,0,0,7.46,7.46,0,0,0-.31-.83,8.74,8.74,0,0,0-8-5.31H144a7.63,7.63,0,0,1,.85.09A8.42,8.42,0,0,1,152,8.42"/><g class="cls-7"><g class="cls-8"><path d="M.71,5.31a7.5,7.5,0,0,0-.32.83,0,0,0,0,1,0,0A6.85,6.85,0,0,0,.18,7a1.29,1.29,0,0,0,0,.19,2.7,2.7,0,0,0,0,.28,1.1,1.1,0,0,0,0,.18A4.87,4.87,0,0,0,0,8.17c0,.18,0,.37,0,.56V8.42A8.42,8.42,0,0,1,7.14.1,7.63,7.63,0,0,1,8,0h.74a8.72,8.72,0,0,0-8,5.31"/></g></g><g class="cls-9"><g class="cls-10"><path d="M152,8.42V324.27a8.73,8.73,0,0,1-8.73,8.73H8.73A8.73,8.73,0,0,1,0,324.27V8.42A8.42,8.42,0,0,1,7.14.1,7.63,7.63,0,0,1,8,0H144a7.63,7.63,0,0,1,.85.09A8.42,8.42,0,0,1,152,8.42"/></g></g></g></g></g></g></svg>