<svg id="Layer_1" data-name="Layer 1" xmlns="http://www.w3.org/2000/svg" xmlns:xlink="http://www.w3.org/1999/xlink" viewBox="0 0 152 333"><defs><style>.cls-1{fill:none;}.cls-2{clip-path:url(#clip-path);}.cls-3{isolation:isolate;}.cls-4{clip-path:url(#clip-path-3);}.cls-5{fill:#cecece;}.cls-6{fill:#fff;}.cls-7{opacity:0.05;}.cls-8{clip-path:url(#clip-path-4);}</style><clipPath id="clip-path"><rect class="cls-1" width="152" height="333"/></clipPath><clipPath id="clip-path-3"><rect class="cls-1" width="631.73" height="333"/></clipPath><clipPath id="clip-path-4"><rect class="cls-1" width="8.73" height="8.73"/></clipPath></defs><title>white_key</title><g class="cls-2"><g class="cls-2"><g class="cls-3"><g class="cls-4"><path class="cls-5" d="M152,8.73V324.27a8.73,8.73,0,0,1-8.73,8.73H8.73A8.73,8.73,0,0,1,0,324.27V8.73A8.73,8.73,0,0,1,8.73,0H143.27A8.73,8.73,0,0,1,152,8.73"/><path class="cls-6" d="M152,8.42v293a8.42,8.42,0,0,1-8.42,8.42H8.42A8.42,8.42,0,0,1,0,301.37V8.42A8.42,8.42,0,0,1,8.42,0H143.58A8.42,8.42,0,0,1,152,8.42"/><path class="cls-5" d="M27,309.79,24.35,333H8.73A8.73,8.73,0,0,1,0,324.27v-22.9a8.42,8.42,0,0,0,8.42,8.42Z"/><path class="cls-6" d="M8.42,0h.31A8.73,8.73,0,0,0,0,8.73V8.42A8.42,8.42,0,0,1,8.42,0"/><path class="cls-6" d="M152,8.42v.31A8.73,8.73,0,0,0,143.27,0h.31A8.42,8.42,0,0,1,152,8.42"/><g class="cls-7"><g class="cls-8"><path d="M0,8.73V8.42A8.42,8.42,0,0,1,8.42,0h.31A8.73,8.73,0,0,0,0,8.73"/></g></g></g></g></g></g></svg>