<svg id="Layer_1" data-name="Layer 1" xmlns="http://www.w3.org/2000/svg" viewBox="0 0 500 500"><defs><style>.cls-1{fill:#d7df23;}</style></defs><title>yellow_ink</title><path class="cls-1" d="M41.34,39.62c4.79.66,12.42-1.07,12.38-6.86,0-5-4.11-7.21-8.61-8.23.17-.21.21-.43,0-.6C41.21,20.86,34.41,22.29,32,26.48,28.33,32.88,35.09,38.76,41.34,39.62Z"/><path class="cls-1" d="M260.76,89c9.92-1.88,6.47-12.39,10.21-18.74.69-1.16-1-1.41-2.38-1,1.31-4,2.39-7.86-.67-11.63-.76-.94-3.28-.33-3.75.67a62.8,62.8,0,0,0-5.72,30.17C258.5,89.26,260.29,89,260.76,89Z"/><path class="cls-1" d="M491.26,166.51a3.77,3.77,0,0,0-.34-.54c.37-.36.36-.7-.47-.85-.16,0-.32,0-.48-.05a6.46,6.46,0,0,0-7.63.94,13.35,13.35,0,0,0-5.5,3.87c-1.33,1.63-3.12,4.78-.94,6.42,1.77,1.34,5.08,1,7.09.51C487.31,175.83,493.59,171.48,491.26,166.51Z"/><path class="cls-1" d="M366,228.11l-.07,0c-1.23.54-1.68,2.29.14,2.31a75.73,75.73,0,0,0,36.47-8.64c1.66-.88,1.3-2.38-.66-2.31-11.88.45-23.1,3.56-34.39,6.92C366.29,226.78,365.85,227.52,366,228.11Z"/><path class="cls-1" d="M394.94,340.35c-.79-.06-3.1.93-3.17,1.46-1.63.69-2.68,2.17-.91,4.11,5.19,5.7,16.55,6.32,23.7,5.28.38-.05,3-.78,2.21-1.54A35.58,35.58,0,0,0,394.94,340.35Z"/><path class="cls-1" d="M440.77,383.11a14.06,14.06,0,0,0-11.13,4c-5.9,6.35,1.08,15.27,8.75,15.61,7,.3,14.89-4.14,16.46-10.95C456.77,383.48,447.23,382.54,440.77,383.11Z"/><path class="cls-1" d="M496.85,419c-4.58-3-12.19-1-14.92,3.45-.39.63.21.87,1,.87a5.73,5.73,0,0,0-.55,5c1.74,5.12,9,6,13.39,3.69C500.67,429.38,501.67,422.14,496.85,419Z"/><path class="cls-1" d="M390.77,406a6.16,6.16,0,0,0-4.28,4.73c-1,5.16,6.35,7.21,10.39,6.1,4.2-1.16,7.48-5.76,5.07-9.78C399.67,403.25,394,403.47,390.77,406Z"/><path class="cls-1" d="M340.46,432.38a5.06,5.06,0,0,0-1,.38,4.38,4.38,0,0,0-.79.33c-2.5,1.43-3.92,4.36-2.69,7,1.39,3,5.15,3.32,8.07,2.38s5.71-3.42,4.64-6.55C347.55,432.63,343.71,431.59,340.46,432.38Z"/><path class="cls-1" d="M270.38,463.88c-3.82.27-7.77,2.5-8.38,6a7.11,7.11,0,0,0,3.53,7c2.46,1.47,5.59,1.34,8.28.56,5.14-1.48,9.6-7.29,5.31-12C277.1,463.23,273.48,462.92,270.38,463.88Z"/><path class="cls-1" d="M185.76,439.32a21.81,21.81,0,0,0-1.76,4.32c-4.5.85-5.62,6.67-6.4,10.23-1.77,8-.38,16.63-3.24,24.46-1.94,5.32-12.33,12.71-8.8,19.1,1.28,2.33,3.36,2.87,5.88,2.43,4.67-.81,4.94-3.87,5.49-7.6.94-6.46,2.08-9.47,5.66-14.85a23.83,23.83,0,0,0,4.06-9.57c1.28-7.39-.46-14.74.67-21.91.22-.15.38-.32.37-.52a3.46,3.46,0,0,0-.12-.79,22.11,22.11,0,0,1,2.14-6C190,438.14,186.28,438.35,185.76,439.32Z"/><path class="cls-1" d="M69.61,373.3A27.14,27.14,0,0,0,76,360.86c.43-1.91-3.68-1.46-4.07.28a1.33,1.33,0,0,0,0,.19,36.12,36.12,0,0,0-12.14,8.38c-2.11,2.28-4.66,7-.11,8.38C63.58,379.26,67.28,375.83,69.61,373.3Z"/><path class="cls-1" d="M118.35,397a5.51,5.51,0,0,0-2.69,1.54c-.16.17-.17.29-.13.4a55,55,0,0,0-18.82,24.31c-.17.43.43.63.75.68,12.18,1.63,19.25-11.73,22.82-21.81.88-.17,1.76-.54,1.93-1.06a3.57,3.57,0,0,0-1-4.2C120.56,396.28,119.25,396.63,118.35,397Z"/><path class="cls-1" d="M17.79,344.58a8,8,0,0,0-1.72-.1h-.3c-2.63.14-5.45,1.37-6.06,3.87-.1.42.2.64.65.74-.39,1.32-.46,3.27.52,4.27,1.17,1.18,3.8.94,5.25.58A8.24,8.24,0,0,0,20.82,351C22.82,348.24,21.08,345.18,17.79,344.58Z"/><path class="cls-1" d="M14.74,291.26a7.8,7.8,0,0,0-2.6-.6c-.28-.34-1.12-.22-1.49-.16a8.75,8.75,0,0,0-2.18.62,7,7,0,0,0-3.87,2.7c-.15.24,0,.36.32.41a4.72,4.72,0,0,0-.34,3.44c1.13,4.2,6.9,3.39,9.85,1.64C17.68,297.39,18.78,293,14.74,291.26Z"/><path class="cls-1" d="M397.11,292.36c8.85-7.91-.58-18.05-9.18-20.88-8-2.63-19.29-2-18.63-12.7.28-4.5,2.53-9.54.66-14-1.69-4.06-5.2-5.39-9.51-5.66-3-.19-14.86,2.65-20.45,1.45.14-1.52.29-3,.43-4.56a31.69,31.69,0,0,0,3.31-1.88c1.82-1.73,3.29-2.52,4.64-4.77.45-.74-.38-1.08-1.08-1.08H331.66c-5.17,0-10.77,1.3-10.77-5.81,0-8.44,13.42-16.35,19.53-21l23.38-17.62c5.7-4.31,12.76-8.41,17.4-13.84,5-5.89,5.72-17.07-4.62-17.59-4-.2-7.71,2.13-10.9,4.09-9.24,5.67-18.24,4.21-28,7.1a26.22,26.22,0,0,0-11.58,7.38c-2.8,2.85-5.06,6.83-8.27,9.25-10.43,7.88-18,3.5-19.86-6.05-1.6-8.09,3.5-15.38,6.65-22.48,1.65-3.73,4.43-9.58-.54-12.12a6.38,6.38,0,0,0-5.93.13c-1.14.65-1.82,2.77-2.71,3.11-4.53,1.73-6.59-7.78-7.42-11.77-1.81-8.66-1.8-17.1-1.92-25.89-.08-6.16-.63-13.55-7.23-16.68-7.21-3.42-13.6,1.35-15.81,7.75-1.11,3.17-1.35,6.55-2.35,9.75-1.85,5.91-5.83,8.82-11,12.53a45.39,45.39,0,0,0-5.46,4,35.88,35.88,0,0,0-3.9,4.76L238.68,130q-4,8.09-15.33,1.19c.05-.5-.32-.66-.77-.78a8.18,8.18,0,0,0-6.85.71c-5.57,3.19-3.81,7.87-3.09,13a15.06,15.06,0,0,1,.91,7.66q-6.11,4.35-9.64-.33c-3.86-2-7.66-7.38-10.78-10.38l-16-15.48c-3.43-8.27-6.62-16.4-10.9-22a105.2,105.2,0,0,0-7.68-8.82c-7.12-13.82-14.22-27.69-20.42-41.9q-4-9.06-7.18-18.38c-.05-2.21-.05-4.44,0-6.67.19-4.06,1-8.5-.46-12.45-1.49-4.16-5-7.76-9.77-8.06a19.43,19.43,0,0,0-3-3.23c-6.11-5.12-16.74-5.79-22.39.41-8.71,9.55,0,24.87,7.9,34.21a40.5,40.5,0,0,0,1.13,7.1c5.69,21.63,20.58,41,30.24,61.17,6.61,13.78,28.81,65.22-2.2,65.85-12.06.24-26.54-15.43-35.1-22.11-11.5-9-22.8-18.26-34.53-26.94-4.74-3.51-9.9-7.34-16.26-6.6-4.71.56-9.3,3.68-9.6,8.43-1.18,17.91,30.66,28.51,42.49,36.54,3,2,15.9,11,23.53,19.13a16.65,16.65,0,0,0,1,4.08c.68,1.88,2.71,4.13,2.8,6.13a3.71,3.71,0,0,1,.62,1.74c-3.13,1.61-13.56-1.82-16.06-2.07a78.85,78.85,0,0,0-18.42.49c-.92.13-2.06.58-2.19,1.6-.63,4.83,2,7.88,6.64,9.83,2.78,1.18,5.67,1.35,8.69,1.57l1,.08,1.51.81c2.2,1.2,6.62,2.75,8.21,4.46L98.55,211a4.45,4.45,0,0,1-.07.79,5.2,5.2,0,0,1,.06.68l-3.27,5.91a15.33,15.33,0,0,1-2.81,1.38,2.5,2.5,0,0,0-1.44.74c-4.66.2-11.68-1.28-14.92-1.47-5.38-.32-10.78-.75-16.12-1.49-11.84-1.65-22-5.86-33.19-9.47-5.52-1.78-11.3-2.93-16.95-1.07C-1,210.57-3.74,221.83,5.92,228.43c6,4.11,13.91,4.86,21.1,5.22,4.65.23,9.33.3,14,.33,3.38.62,6.8.81,10.46,1.23,8.4,1,13.14,6.3,20.71,8.33s14.24.74,21.28,5.15a50,50,0,0,1,8.56,6.55c1.43,1.42,2.91,2.75,3.65,4.66,1.83,4.75-1.76,6.24-6.5,6.66-6.18.54-12.22-1.36-18.5-.47-5,.72-9.17,3.1-13.83,4.86-6.92,2.62-13.36.71-20,2.54-2.07.56-4.38,1.47-5.49,3.37-3.45,5.88,4.18,10.35,9.49,10.28,3.71-.05,7.16-1.85,10.28-3.54,10.62-5.72,22-14.25,34.84-10.73,8.23,2.26,5.43,6.38-1.06,9.84-4.92,2.62-7.07,3-12,4.05a54.28,54.28,0,0,0-13.93,4.84c-6.64,3.48-20,14.52-13.08,22.8,4.43,5.32,9.37,2,13.49-1,8.5-6.12,11-10,15-1.59,3.33,6.91.38,5.18-5.7,7a57.34,57.34,0,0,0-6,1.93c-5,2.13-8.51,4.95-10.59,9.8-.19.44.44.59.73.65,9.19,1.9,15-4.09,22.18-8.72,8.4-5.45,17.38-6.87,26.49-8.23-.45,1,.42,2.23,2.16,1.76,3.44-.92,7.09-1.62,9.21,1.15,1.17,1.54,1.09,3.91.8,5.72-.89,5.52-5.37,6.69-9.76,9-2.82,1.49-5.7,4.19-4.92,7.58.68,2.9,3.63,3.91,6.48,3.3,2.42-.53,3.33-2.09,5.31-3.22.59-.34.9-1.39,1.51-1.59q6.35-.06,5.94,2.54c-17.1,15.2-35.83,27.85-54,41.8-9.88,7.6-22.2,24.93-8.57,35.29,10.67,8.12,24.91.69,33-7a132.23,132.23,0,0,0,17.93-22c5.86-8.75,11.12-18.46,21-23.38l-3.09,14.93c-.33,1.59,3.42.78,3.89-.15a76.6,76.6,0,0,1,16.16-22.13,47.83,47.83,0,0,1,6.4-5.29l4.1-2.2,13.53,3.49c1.64,1.36,3.66,5.4,5.12,7,4.18,4.63,4.63,8.09,3.5,14a102.94,102.94,0,0,0-2,14A82,82,0,0,0,188.47,416c.41,1.4,3.79.41,4-.74l5.19-25.7c3.31,8.48,6.83,19.83,18,16.55,3.56-1,5.32-3.57,6.12-6.88s-1.25-7.77.49-10.59c3.11-5.07,10.45-5.39,15.7-6.54,3.82-.84,7.06-2.24,9.55-5.2,3.67-4.37,3-13.69,7.1-17,2-1.64,6.4-1.75,10-1a21.6,21.6,0,0,1,4.84,4.5c2.06,2.46,3.22,4.48,6,6.42,4.34,3,8.69,4.47,12.17,8.57,3.77,4.45,6.61,9.87,9.67,14.76,7.78,12.46,15.29,29.63,33,29.13.85,0,2.45-.35,2.82-1.23,2.79-6.7-1.37-11.29-5.23-16.58-7-9.6-7.22-17.66-8.46-28.71-.94-8.44-7-11.87-10-19.37-2.56-6.32-2.16-12.8-7.6-17.76l-.06,0a15.15,15.15,0,0,1-1.68-5.14c-1-9.64,14.05-13.72,20.5-6.86,6.3,6.68,10.28,12.15,20.81,10.92,5.43-.63,13.91-4,14.24-10.31.13-2.72-1.08-4.39-3.48-5.59-1.12-.55-3.82-.14-4.75-.8q-1.77-10.72,6.17-9.78a15.5,15.5,0,0,0,3.57-.6c.69-.12,2.4-.51,2.3-1.49C357.28,288,386.47,301.85,397.11,292.36Z"/><path class="cls-1" d="M388.63,382.34c-2.25-3.54-7.62-2.18-11.06-.71-2.74-.17-5.79,1.21-6.56,3.73-1.64,5.41,5.44,7.62,9.69,6.7C384.57,391.23,391.57,387,388.63,382.34Z"/></svg>