<svg id="Layer_1" data-name="Layer 1" xmlns="http://www.w3.org/2000/svg" viewBox="0 0 100 100"><defs><style>.cls-1{fill:#f2f2f2;}.cls-2{fill:#3e3e3e;}.cls-3{fill:#585a5c;}.cls-4{fill:#bdbfc1;}</style></defs><title>port_input</title><rect class="cls-1" x="2.09" y="2.06" width="95.81" height="95.88" rx="3.98" transform="translate(100 100) rotate(180)"/><path class="cls-2" d="M93.89,100H6.11A6.07,6.07,0,0,1,0,94V6A6.07,6.07,0,0,1,6.11,0H93.89A6.07,6.07,0,0,1,100,6V94A6.07,6.07,0,0,1,93.89,100ZM6.11,4.12A1.91,1.91,0,0,0,4.19,6V94a1.91,1.91,0,0,0,1.92,1.89H93.89A1.91,1.91,0,0,0,95.81,94V6a1.91,1.91,0,0,0-1.92-1.89Z"/><path class="cls-2" d="M9.44,74V33a2.08,2.08,0,0,1,2.08-2.09H22a2.09,2.09,0,0,0,2.09-2.09V21.21a2.09,2.09,0,0,1,2.09-2.09h6.84A2.08,2.08,0,0,0,35.13,17V10.56a2.1,2.1,0,0,1,2.09-2.09H62.41a2.09,2.09,0,0,1,2.09,2.09V17a2.08,2.08,0,0,0,2.09,2.08h6.84a2.09,2.09,0,0,1,2.08,2.09v7.58a2.1,2.1,0,0,0,2.09,2.09H88.48A2.08,2.08,0,0,1,90.56,33V74a2.08,2.08,0,0,1-2.08,2.09h-77A2.08,2.08,0,0,1,9.44,74Z"/><path class="cls-3" d="M9.44,69.8V35.68a2,2,0,0,1,2.08-1.85H22A2,2,0,0,0,24.12,32V23.8A2,2,0,0,1,26.21,22h6.84a2,2,0,0,0,2.08-1.85V13.63a2,2,0,0,1,2.09-1.85H62.41a2,2,0,0,1,2.09,1.85V20.1A2,2,0,0,0,66.59,22h6.84a2,2,0,0,1,2.08,1.85V32a2,2,0,0,0,2.09,1.85H88.48a2,2,0,0,1,2.08,1.85V69.8a2,2,0,0,1-2.08,1.85h-77A2,2,0,0,1,9.44,69.8Z"/><rect class="cls-4" x="35.71" y="61.74" width="5.12" height="14.33" transform="translate(76.53 137.8) rotate(180)"/><rect class="cls-4" x="43.39" y="61.74" width="5.12" height="14.33" transform="translate(91.9 137.8) rotate(180)"/><rect class="cls-4" x="20.34" y="61.74" width="5.12" height="14.33" transform="translate(45.81 137.8) rotate(180)"/><rect class="cls-4" x="28.03" y="61.74" width="5.12" height="14.33" transform="translate(61.17 137.8) rotate(180)"/><rect class="cls-4" x="66.75" y="61.74" width="5.12" height="14.33" transform="translate(138.62 137.8) rotate(180)"/><rect class="cls-4" x="74.43" y="61.74" width="5.12" height="14.33" transform="translate(153.98 137.8) rotate(180)"/><rect class="cls-4" x="51.39" y="61.74" width="5.12" height="14.33" transform="translate(107.9 137.8) rotate(180)"/><rect class="cls-4" x="59.07" y="61.74" width="5.12" height="14.33" transform="translate(123.26 137.8) rotate(180)"/></svg>