<svg id="Layer_1" data-name="Layer 1" xmlns="http://www.w3.org/2000/svg" viewBox="0 0 100 100"><defs><style>.cls-1{fill:#fff;}</style></defs><title>port_sensor</title><path class="cls-1" d="M85.36,14.64a2.93,2.93,0,1,0-4.14,4.15,44.16,44.16,0,0,1,0,62.42,2.93,2.93,0,1,0,4.14,4.15,50,50,0,0,0,0-70.72Z"/><path class="cls-1" d="M76.49,23.52a2.93,2.93,0,1,0-4.14,4.14,31.6,31.6,0,0,1,0,44.68,2.93,2.93,0,0,0,4.14,4.14,37.44,37.44,0,0,0,0-53Z"/><path class="cls-1" d="M67.62,32.39a2.93,2.93,0,0,0-4.15,4.15,19,19,0,0,1,0,26.92,2.93,2.93,0,0,0,4.15,4.15,24.94,24.94,0,0,0,0-35.22Z"/><path class="cls-1" d="M5.86,50A43.84,43.84,0,0,1,18.78,18.79a2.93,2.93,0,0,0-4.14-4.15,50,50,0,0,0,0,70.72,2.93,2.93,0,1,0,4.14-4.15A43.84,43.84,0,0,1,5.86,50Z"/><path class="cls-1" d="M18.4,50a31.4,31.4,0,0,1,9.25-22.34,2.93,2.93,0,0,0-4.14-4.14,37.44,37.44,0,0,0,0,53,2.93,2.93,0,0,0,4.14-4.14A31.4,31.4,0,0,1,18.4,50Z"/><path class="cls-1" d="M36.53,32.39a3,3,0,0,0-4.15,0,24.94,24.94,0,0,0,0,35.22,2.93,2.93,0,0,0,4.15-4.15,19,19,0,0,1,0-26.92,3,3,0,0,0,0-4.15Z"/><path class="cls-1" d="M50,37.66A12.34,12.34,0,1,0,62.34,50,12.35,12.35,0,0,0,50,37.66Z"/></svg>