<?xml version="1.0" encoding="utf-8"?>
<!-- Generator: Adobe Illustrator 23.0.2, SVG Export Plug-In . SVG Version: 6.00 Build 0)  -->
<svg version="1.1" id="Layer_1" xmlns="http://www.w3.org/2000/svg" xmlns:xlink="http://www.w3.org/1999/xlink" x="0px" y="0px"
	 viewBox="0 0 1920 1080" style="enable-background:new 0 0 1920 1080;" xml:space="preserve">
<style type="text/css">
	.st0{fill:#49637E;}
	.st1{fill:#FFFFFF;}
	.st2{fill:#506E89;}
	.st3{fill:#6B2424;}
	.st4{fill:#2E1717;}
	.st5{fill:#BC886C;}
	.st6{fill:#A07665;}
	.st7{fill:#9B532F;}
	.st8{fill:#B26231;}
	.st9{fill:#E78900;}
	.st10{fill:#CCB027;}
	.st11{fill:#FFE12E;}
	.st12{opacity:0.45;enable-background:new    ;}
	.st13{fill:#E7E7E7;}
	.st14{fill:#BEBEBE;}
	.st15{opacity:0.28;}
	.st16{clip-path:url(#SVGID_2_);}
	.st17{fill:#273426;}
	.st18{fill:#D73A27;}
	.st19{clip-path:url(#SVGID_4_);}
	.st20{clip-path:url(#SVGID_6_);}
	.st21{fill:#F3D386;}
	.st22{fill:#DF3B36;}
	.st23{fill:#E74538;}
	.st24{clip-path:url(#SVGID_8_);}
	.st25{fill:#85BAC8;}
	.st26{fill:#E41200;}
	.st27{opacity:0.31;fill:#FFFFFF;enable-background:new    ;}
	.st28{opacity:0.16;}
	.st29{clip-path:url(#SVGID_10_);}
	.st30{opacity:8.000000e-02;}
	.st31{clip-path:url(#SVGID_12_);}
	.st32{fill:#894B28;}
	.st33{fill:#8E6654;}
	.st34{opacity:0.17;}
	.st35{fill:#353535;stroke:#000000;stroke-width:0.18;stroke-linejoin:round;}
	.st36{fill:#4D4D4D;}
	.st37{fill:#B3B3B3;}
	.st38{opacity:0.41;fill:#F9F7F7;enable-background:new    ;}
	.st39{fill:#D3161D;}
	.st40{fill:#FF3E12;}
	.st41{fill:#77401B;stroke:#070707;stroke-width:0.26;stroke-miterlimit:10;}
	.st42{fill:#F8C946;stroke:#020202;stroke-width:0.26;stroke-miterlimit:10;}
	.st43{fill:#4D4D4D;stroke:#151616;stroke-width:0.78;stroke-miterlimit:10;}
	.st44{fill:#282828;stroke:#000000;stroke-width:0.34;stroke-linejoin:round;}
	.st45{fill:#4D4D4D;stroke:#151616;stroke-width:0.22;stroke-miterlimit:10;}
	.st46{fill:#F8C946;}
	.st47{fill:#683919;}
	.st48{fill:#945320;}
	.st49{fill:none;stroke:#070707;stroke-width:0.25;stroke-miterlimit:10;}
	.st50{fill:#ADADAD;stroke:#080000;stroke-width:0.25;stroke-miterlimit:10;}
	.st51{fill:#515051;stroke:#000000;stroke-width:0.25;stroke-linejoin:round;}
	.st52{fill:#161616;stroke:#0A0A0A;stroke-width:0.22;stroke-miterlimit:10;}
	.st53{fill:#8E8A8B;stroke:#000000;stroke-width:0.22;stroke-linejoin:round;}
	.st54{fill:#E2B647;stroke:#070707;stroke-width:0.22;stroke-miterlimit:10;}
	.st55{fill:#161616;}
	.st56{fill:#945320;stroke:#070707;stroke-width:0.22;stroke-miterlimit:10;}
	.st57{fill:none;stroke:#0A0A0A;stroke-width:0.22;stroke-miterlimit:10;}
	.st58{fill:#DDDBD7;}
	.st59{fill:#232323;}
	.st60{fill:#3A3A3A;}
	.st61{fill:none;stroke:#000000;stroke-width:0.22;stroke-miterlimit:10;}
	.st62{fill:#282828;}
	.st63{fill:#7C7C7C;}
	.st64{fill:#666666;}
	.st65{fill:none;stroke:#0A0A0A;stroke-width:0.25;stroke-miterlimit:10;}
	.st66{fill:#77401B;stroke:#070707;stroke-width:0.25;stroke-miterlimit:10;}
	.st67{fill:#F8C946;stroke:#020202;stroke-width:0.25;stroke-miterlimit:10;}
	.st68{fill:#282828;stroke:#151616;stroke-width:0.21;stroke-miterlimit:10;}
	.st69{fill:#4D4D4D;stroke:#151616;stroke-width:0.21;stroke-miterlimit:10;}
	.st70{fill:#4D4D4D;stroke:#151616;stroke-width:0.75;stroke-miterlimit:10;}
	.st71{fill:#7F1119;}
	.st72{fill:#5E0E18;}
	.st73{fill:#352F49;}
	.st74{fill:#E41E00;}
	.st75{fill:#FFFE28;}
	.st76{fill:#18FF08;}
	.st77{fill:#DBDDDD;}
	.st78{fill:#0FB0DB;}
	.st79{fill:#303435;}
	.st80{fill:url(#SVGID_13_);stroke:#0A0A0A;stroke-width:0.1;stroke-miterlimit:10;}
	.st81{fill:none;stroke:#0A0A0A;stroke-width:0.1;stroke-miterlimit:10;}
	.st82{fill:url(#SVGID_14_);stroke:#0A0A0A;stroke-width:0.1;stroke-miterlimit:10;}
	.st83{fill:url(#SVGID_15_);stroke:#0A0A0A;stroke-width:0.1;stroke-miterlimit:10;}
	.st84{fill:url(#SVGID_16_);stroke:#0A0A0A;stroke-width:0.1;stroke-miterlimit:10;}
	.st85{fill:none;stroke:#070707;stroke-width:0.13;stroke-miterlimit:10;}
	.st86{fill:#ABCEEF;}
	.st87{fill:#008AD0;}
	.st88{fill:#00D00E;}
</style>
<title>chapters-background</title>
<g>
	<rect class="st0" width="1920" height="1080"/>
	<path class="st1" d="M1920,479.2V1080H0V500.9c23.9-6.2,49.2-8.9,74.9-9.4c53.5-1.2,106.3,10.2,158,24.4c5.8,1.6,11.7,3.2,17.5,4.9
		c40.1,11.5,82.1,24.1,122.8,17.5c3.3-0.5,6.6-1.2,9.9-2c5.8-1.4,11.4-3.2,17-5.3c1.3-0.5,2.5-1,3.8-1.5c17-6.9,33.2-16.2,49.7-24.4
		c100.2-49.3,215.5-58.3,322.1-25.3c27.6,8.7,54.6,20.2,83.2,24.9c64.2,10.5,128.1-14,192.1-25.7c24.4-4.4,49.1-7.1,73.8-8.2
		c77.9-3.7,156.7,6.4,234.6,14.9c13,1.4,26,2.8,39.1,3.8c18.7,1.6,37.4,2.2,56.1,1.7c16.7-0.5,33.4-2.4,49.8-5.9
		c35.2-7.6,68-23.1,102.2-34.3c71.1-23.3,146.9-28.1,220.3-13.9C1860.8,443.5,1895.7,455.3,1920,479.2z"/>
	<path class="st2" d="M1920,0v394.9c-197.9-31-398.2-44.4-598.5-40c-94.1,2.1-189.5,8-281.2-13.1c-73-16.7-141.5-50.1-214.9-65
		c-208.2-42.4-414.1,67.2-624,100.9c-47.6,7.6-95.7,11.4-143.9,13.2c-18.7,0.7-38.7-1-57.5-0.1V24.9c234,28.6,482.8-43,701,46.1
		c40.4,16.5,79.3,38.4,122.3,45.6c59.8,10,120.1-9.4,179-24.1c132.4-33.1,271-42.8,406.3-25c52,6.8,103.9,17.7,156.3,16.8
		c80-1.7,157-30.4,218.4-81.6l3.2-2.7C1786.5,0,1920,0,1920,0z"/>
	<path class="st3" d="M1447.6,484.6c-13.8-11.9-29.9-20.9-44.6-31.8c-36.6-27.3-63.3-66.4-101-92.1c-52.4-35.6-117.2-41-176.6-58.1
		c-24.2-7-104.6-55.7-123.2-23.6c-2,3.4-2.5,7.6-4.4,11c-2.6,4.5-7.5,7.2-12.6,8.3c-16.9,3.7-34.3,0.2-51.3,5.9
		c-14.7,4.9-28.4,16-31.6,31.2c-4.1,19.4,9.7,37.9,24.3,51.3c69.8,64.2,169.8,80.7,263.7,94.4l148.4,21.6l72.1,10.5
		C1435.9,516.8,1491,521.9,1447.6,484.6z"/>
	<path class="st4" d="M457.3,394.5c56.2-11.1,116.3-11.5,166.4-39.3c15.2-8.4,29-19.1,44.5-26.9c34.6-17.3,74.7-18.9,113.3-20.1
		c94.5-2.9,193.3-4.9,278.3,36.4c17.7,8.6,34.9,19.1,54.2,23.3c37.1,8,75.9-8.5,113.2-1.8c31.8,5.7,58.1,27.4,82.7,48.3l100.7,85.4
		c5.1,4.4,10.7,9.5,10.9,16.2c0.2,5.6-3.4,10.5-7.2,14.7c-19.6,21.8-46.8,35.2-73.8,46.7c-49,20.8-100.2,37.2-153,44.2
		c-72.8,9.6-146.6,1-219.9-3.7c-243.2-15.6-487.8,11.7-730.9-6.2c-9.6-0.7-19.6-1.6-27.9-6.6c-50.3-30.8,43-109.3,64.5-126.1
		C327.2,437.1,390.6,407.6,457.3,394.5z"/>
	<path class="st5" d="M1920,479.2V1080H0V500.9c23.9-6.2,49.2-8.9,74.9-9.4c53.5-1.2,106.3,10.2,158,24.4c5.8,1.6,11.7,3.2,17.5,4.9
		c40.1,11.5,82.1,24.1,122.8,17.5c3.3-0.5,6.6-1.2,9.9-2c5.8-1.4,11.4-3.2,17-5.3c1.3-0.5,2.5-1,3.8-1.5c17-6.9,33.2-16.2,49.7-24.4
		c100.2-49.3,215.5-58.3,322.1-25.3c27.6,8.7,54.6,20.2,83.2,24.9c64.2,10.5,128.1-14,192.1-25.7c24.4-4.4,49.1-7.1,73.8-8.2
		c77.9-3.7,156.7,6.4,234.6,14.9c13,1.4,26,2.8,39.1,3.8c18.7,1.6,37.4,2.2,56.1,1.7c16.7-0.5,33.4-2.4,49.8-5.9
		c35.2-7.6,68-23.1,102.2-34.3c71.1-23.3,146.9-28.1,220.3-13.9C1860.8,443.5,1895.7,455.3,1920,479.2z"/>
	<path class="st6" d="M1920,477.7c-24.3-23.9-59.2-35.7-93.2-42.3c-73.4-14.2-149.2-9.4-220.3,13.9c-34.2,11.2-67,26.7-102.2,34.3
		c-47.5,10.2-96.8,5.6-145,0.4c-102.6-11.2-206.9-25.2-308.4-6.6c-64,11.7-127.9,36.3-192.1,25.7c-28.6-4.7-55.5-16.2-83.2-24.9
		c-105.4-33.2-223.3-23.8-322.2,25.3C430.3,515,408,528.6,383,534.7c-43.8,10.7-89.3-3.1-132.7-15.5
		c-57.2-16.4-115.9-30.6-175.4-29.3c-25.8,0.5-51,3.2-74.9,9.4v46.2c46.9-9.4,95.4-6.3,142.6-0.7c34.8,4.1,67.4,17.3,100.8,27.2
		c36.4,10.8,69.2,11.3,107.1,11.6c18.9,0.2,38,0.3,56.6-3.6c34.2-7.3,82.4-17.3,112-36.2c82.1-52.5,174.9-33.2,263.9-13.4
		c44,9.8,88.7,19.6,134,18.6c50.8-1,101.7-11.5,151.6-20.4c72.3-12.9,150.1-7.4,222.8,1.1c65.4,7.6,138.5,55.3,204,36.8
		c59.4-16.8,101.2-68.3,161.4-85.6c53.9-15.5,111.3-13.5,165.6-1.3c28.1,6.4,55.5,15.2,82,26.5c5.4,2.3,10.6,4.7,15.6,6.7V477.7z"/>
	<path class="st7" d="M1920,760.4c0,7.5,0,17.8,0,30c0,3.6,0,7.4,0,11.3c0,11.5,0,24.2,0,37.4c0,4.4,0,8.8,0,13.2
		c0,35.6-0.1,72.7-0.1,98c0,4.2,0,8,0,11.5c0,12,0,19.3,0,19.5c0,7.8,0,12.4,0,12.6c-3.4,0.7-135.3-1.8-147.2-2.3
		c-96.5-4.3-191.1,14.3-287.4,16.3c-54.3,1.1-108.6,2.9-162.8,6.3c-50.6,3.3-100.1,20.6-150.9,25.8c-119.3,12.2-241.2,2.1-361,4.6
		c-68.5,1.4-136.1,20.6-204.5,20.6c-107.3,6.3-212-2.4-318.9-8.6c-93.3-5.4-186.7-7.2-280.2-5.6c-2.1,0-4.5,0.2-7,0.4V778
		c48.7-8.7,110.4-1.4,154.5,4.1c52.4,6.5,105.1,10.6,158,12.3c51,1.7,107.8,6.6,158.3-2.2c40.4-7,80.2-23.9,120.4-33.2
		c125-28.9,254.4-38.5,382.4-32.9c64.1,2.8,128,9.7,191.3,20.6c81.8,14.2,164.9,17.6,247.6,22.9c79.6,5,159.6,15.9,238.1-1.3
		c88.7-19.4,118.2-7.5,228.5-9.8C1891.8,758.2,1886.8,754.5,1920,760.4z"/>
	<path class="st8" d="M1920,760.4c0,7.5,0,17.8,0,30c0,3.6,0,7.4,0,11.3c0,11.5,0,24.2,0,37.4c0,4.4,0,8.8,0,13.2
		c0,35.6-0.1,72.7-0.1,98c0,4.2,0,8,0,11.5c0,12,0,19.3,0,19.5c-3.4,0.7-135.3-1.8-147.2-2.3c-96.5-4.3-191.1,14.3-287.4,16.3
		c-54.3,1.1-108.6,2.9-162.8,6.3c-50.6,3.3-100,20.6-150.9,25.8c-119.3,12.2-241.2,2.1-361,4.6c-68.5,1.4-136.1,20.6-204.5,20.6
		c-107.3,6.3-212-2.4-318.9-8.6c-93.2-5.4-186.6-7.3-280.1-5.6c-2.1,0-4.5,0.2-7,0.4V778c48.7-8.7,110.4-1.4,154.5,4.1
		c52.4,6.5,105.1,10.6,158,12.3c51,1.7,107.8,6.6,158.3-2.2c40.4-7,80.2-23.9,120.4-33.2c125-28.9,254.4-38.5,382.4-32.9
		c64.1,2.8,128,9.7,191.3,20.6c81.8,14.2,164.9,17.6,247.6,22.9c79.6,5,159.6,15.9,238.1-1.3c88.7-19.4,118.2-7.5,228.5-9.8
		C1891.8,758.2,1886.8,754.5,1920,760.4z"/>
	<path class="st9" d="M1721.8,63.2c9.3-12.8,17.3-26.5,23.8-40.9c6.3,15.3,14.6,28.1,26.6,39.5c16.2-1.9,31.1-9.3,43.9-19.5
		c-1.8,14-0.4,28.2,4.1,41.5c13.5,2.6,27.3,2.6,40.8-0.1c-10.1,13.4-8.4,29.6-8.4,45.4c12.5,3.3,24.6,6.4,37.6,7
		c-6,2.8-23.8,13.4-24.6,20.7c-1,8.9,15.3,16.8,22,17.9c-9.7,4.3-17.9,10.8-25.7,18c1.4,13.2,5.9,26,17.2,32.9
		c-7.6,5.4-19.5,10.3-28.5,7.8c1.1,10.2,0.3,20.6,5.3,29.6c-8.6,0.8-18.8,1.7-26-3.2c-5.3,12-10.3,23.6-13.6,36.2
		c-9.2-5.4-19.3-9.7-28.4-15c-10.7,13.2-23.8,27-34.6,40.2c-4.3-14-14.8-24.8-27.7-31.8c-3.3,9.5-4,19-6.1,28.6
		c-7.5-5.6-13.7-15.4-19.9-22.4c-6.9-7.6-12.3-17-20.7-23.1c-5.1,9.6-12.6,14.9-22.1,19.3l-20.3,9.3c7.4-10.2,15-33.7,17.5-46
		c-19.4-0.3-41.4,2.2-54.5-12.1c12.3-4,28.2-17.3,37.7-26c-8.2,1-40-10.1-47.1-14.4c13.3-10.3,26.5-22.1,39.9-32.5
		c-13-15.7-22.3-36.8-20.9-57.1c11.2,5,25.3,1.8,33.7-7.1c9.7-10.3-2.7-29.4-14.4-37.3c18.8-0.1,37.9,1.3,56.4,5
		c-1-14.5,0.9-30.6,4.1-44.8C1696.7,43.2,1708.4,53.6,1721.8,63.2z"/>
	<path class="st10" d="M1843.8,173.5c-0.1,56-45.6,101.4-101.6,101.3s-101.4-45.6-101.3-101.6s45.6-101.4,101.6-101.3
		c41.8,0.1,79.3,25.8,94.4,64.8C1841.5,148.4,1843.8,160.9,1843.8,173.5z"/>
	<path class="st11" d="M1811.5,140.5c0,56.3-46.9,102-104.8,102c-16.8,0-33.4-3.9-48.4-11.5c-31.7-46.3-19.9-109.6,26.4-141.3
		c33.4-22.9,77.3-23.8,111.6-2.2C1806.2,103.3,1811.5,121.7,1811.5,140.5z"/>
	<path class="st2" d="M1758.4,222.5c-13.3,5.4-39.7,11.7-51.7-15.6c-0.4-1.1,0.2-2.3,1.3-2.7c0.6-0.2,1.3-0.1,1.9,0.2
		c19.6,11.9,24.8,13.8,47.7,14.2c1.1-0.2,2.2,0.5,2.4,1.6S1759.5,222.3,1758.4,222.5L1758.4,222.5z"/>
	<path class="st2" d="M1728.5,128.1c0,0-29.9,31.9-31.7-11.4C1704.8,132.4,1703.2,143.8,1728.5,128.1z"/>
	<path class="st2" d="M1826.9,161.1c0,0-29.9,31.9-31.7-11.4C1803.2,165.4,1801.6,176.7,1826.9,161.1z"/>
	
		<ellipse transform="matrix(0.9993 -3.751564e-02 3.751564e-02 0.9993 -24.8797 7.9089)" class="st12" cx="198.3" cy="666.9" rx="124" ry="22.8"/>
	<polygon class="st13" points="129.7,571.2 94.4,584.5 70.5,666.9 83.7,666.6 106.2,593.1 134.4,586.6 	"/>
	<path class="st14" d="M90.6,674.2l-29.2,0.7c-4.1,0.1-7.5-3.1-7.5-7.2s3.1-7.5,7.2-7.5l0,0l29.2-0.7c4.1-0.1,7.5,3.1,7.6,7.2
		C97.9,670.7,94.7,674.1,90.6,674.2L90.6,674.2z"/>
	<g class="st15">
		<g>
			<g>
				<defs>
					
						<rect id="SVGID_1_" x="270.6" y="568.1" transform="matrix(0.9997 -2.356030e-02 2.356030e-02 0.9997 -14.4097 7.3212)" width="65.8" height="94.2"/>
				</defs>
				<clipPath id="SVGID_2_">
					<use xlink:href="#SVGID_1_"  style="overflow:visible;"/>
				</clipPath>
				<g class="st16">
					<polygon points="273.8,568.8 309.7,580.4 337.5,661.5 324.3,661.8 298.3,589.5 269.9,584.4 					"/>
				</g>
			</g>
		</g>
	</g>
	<polygon class="st13" points="265.5,569 301.4,580.6 329.1,661.7 315.9,662 290,589.8 261.5,584.6 	"/>
	<path class="st14" d="M309.4,670l29.2-0.7c4.1-0.1,7.3-3.5,7.2-7.6c-0.1-4.1-3.5-7.3-7.6-7.2l-29.2,0.7c-4.1,0.1-7.3,3.5-7.2,7.6
		C302,666.9,305.3,670.1,309.4,670z"/>
	<path class="st17" d="M252.2,612.9c0,0-3.7,7.7-11.2,20.3c-17.2-7.4-34.9-9.1-50.6-8.4c-17,0.8-33.7,4.5-49.5,10.8l-6.9-21.4
		l-0.4-15.8l55.9-8.7l22.1-3.5L252.2,612.9z"/>
	<path class="st18" d="M337.8,534.6l-55.7,1.3l0.5-6.9l7.6-109l0.2-2.9L345.3,523c1.8,4.3-0.2,9.2-4.5,10.9
		C339.9,534.3,338.8,534.6,337.8,534.6L337.8,534.6z"/>
	<path class="st18" d="M81,422L33.2,532c-1.5,3.5,0.1,7.6,3.6,9.1c0.9,0.4,1.9,0.6,2.9,0.6l57.7-1.4L81,422z"/>
	<g class="st15">
		<g>
			<g>
				<defs>
					
						<rect id="SVGID_3_" x="272.9" y="418.3" transform="matrix(0.9998 -1.999600e-02 1.999600e-02 0.9998 -9.4949 5.8104)" width="25.8" height="118.8"/>
				</defs>
				<clipPath id="SVGID_4_">
					<use xlink:href="#SVGID_3_"  style="overflow:visible;"/>
				</clipPath>
				<g class="st19">
					<path d="M299.6,535.5c-9.4,0.3-15.1,0.5-18.5,0.6c-6.4,0.2-5.1,0-5.1,0l14.1-117l0.2-2C290.4,417.1,305.6,490.4,299.6,535.5"/>
				</g>
			</g>
		</g>
	</g>
	<g class="st15">
		<g>
			<g>
				<defs>
					
						<rect id="SVGID_5_" x="73.1" y="421.9" transform="matrix(0.9997 -2.356030e-02 2.356030e-02 0.9997 -11.3143 2.1609)" width="25.9" height="118.7"/>
				</defs>
				<clipPath id="SVGID_6_">
					<use xlink:href="#SVGID_5_"  style="overflow:visible;"/>
				</clipPath>
				<g class="st20">
					<path d="M81,422c0,0-19.2,58.8,2.6,118.6c19.2-0.2,16.8-0.4,16.8-0.4L81,422z"/>
				</g>
			</g>
		</g>
	</g>
	<path class="st21" d="M285,515.8c-0.6,4-1.5,8.5-2.5,13.3c-0.5,2.3-1,4.7-1.5,7c-7.6,34.7-20.4,79.2-20.4,79.2s-3.2-1-8.4-2.4
		c-13.4-3.6-40.2-9.8-61.6-9.1h-0.7c-19.7,0.8-42.2,6.3-55.9,10.3c-7.8,2.2-12.8,3.9-12.8,3.9s-13.7-41.3-23.7-77.6
		c-0.1-0.3-0.2-0.7-0.3-1c-3.7-13.5-6.8-26.2-8.6-35.8c-2.1-11.5-3.9-23.2-5.2-34.8c-1.2-10.6-2-21.1-2.4-31.8c-0.2-5-0.2-10-0.2-15
		c0.6-46.5,10.6-94.5,27.4-139.6c12.1-32.7,27.8-63.9,46.7-93.1c5.5-8.4,14.7-13.7,24.8-14.2c0.3,0,0.5,0,0.8,0
		c10.3-0.3,20.1,4.6,26.2,13c20.3,28.2,36.4,59.5,49.9,91.7c2.7,6.5,5.2,12.9,7.7,19.4c12.6,33.2,20.9,68,24.4,103.3
		c0.6,5.5,1,11.1,1.4,16.7c0,0.3,0,0.5,0,0.8C292,452,290.3,484.1,285,515.8L285,515.8z"/>
	<path class="st18" d="M256.6,279.8c-23.5,9.6-48.6,14.7-74,15c-25.3,0.3-50.4-3.9-74.3-12.3c3.7-10,7.7-19.7,12-29.4
		c6.2-13.9,13-27.3,20.4-40.3c4.6-8,9.3-15.9,14.2-23.5c5.5-8.4,14.7-13.7,24.7-14.2h0.8c10.3-0.2,20.1,4.6,26.2,13
		c5.9,8.3,11.5,16.8,16.8,25.5c7.5,12.4,14.4,25.3,20.7,38.4C248.6,261.2,252.7,270.5,256.6,279.8L256.6,279.8z"/>
	<path class="st22" d="M244.2,252c-19.4,6.3-39.7,9.7-60.2,9.9c-21.5,0.2-43-2.8-63.6-8.9c6.2-13.9,13-27.3,20.4-40.3
		c4.6-8,9.3-15.9,14.2-23.5c5.5-8.4,14.7-13.7,24.7-14.2h0.8c10.3-0.3,20.1,4.6,26.2,13c5.9,8.3,11.5,16.8,16.8,25.5
		C231.1,226,237.9,238.8,244.2,252L244.2,252z"/>
	<path class="st23" d="M223.6,213.6c-12,2.3-24.2,3.6-36.4,3.7c-15.6,0.2-31.1-1.3-46.4-4.5c4.6-8,9.3-15.8,14.2-23.5
		c5.5-8.4,14.7-13.7,24.7-14.2h0.8c10.3-0.3,20.1,4.6,26.2,13C212.7,196.3,218.3,204.8,223.6,213.6L223.6,213.6z"/>
	<g class="st15">
		<g>
			<g>
				<defs>
					
						<rect id="SVGID_7_" x="179.9" y="442.4" transform="matrix(0.9997 -2.356030e-02 2.356030e-02 0.9997 -11.8111 4.8895)" width="43.4" height="122.6"/>
				</defs>
				<clipPath id="SVGID_8_">
					<use xlink:href="#SVGID_7_"  style="overflow:visible;"/>
				</clipPath>
				<g class="st24">
					<path d="M188.9,443.7l-7.6,118.1c-0.1,1.9,1.4,3.5,3.3,3.5c0.1,0,0.2,0,0.3,0l36.2-0.9c1.9,0,3.4-1.5,3.5-3.4
						c0-0.2,0-0.3,0-0.5l-21.6-90c-0.3-1.6-11.1-27.9-11.1-27.9C190.1,442.9,189,442,188.9,443.7"/>
				</g>
			</g>
		</g>
	</g>
	<path class="st18" d="M182.9,445.9l-10.5,116c-0.1,2,1.4,3.6,3.3,3.8c0.1,0,0.2,0,0.3,0l29.1-0.7c2,0,3.5-1.7,3.5-3.6
		c0-0.2,0-0.3,0-0.5L190,445.5c-0.4-1.9-2.3-3.1-4.2-2.7C184.3,443.1,183.2,444.3,182.9,445.9L182.9,445.9z"/>
	<path class="st25" d="M224.7,366.1c0.5,22.2-17,40.6-39.2,41.1s-40.6-17-41.1-39.2s17-40.6,39.2-41.1S224.2,343.9,224.7,366.1
		L224.7,366.1z"/>
	<path class="st26" d="M197.4,325.1c-4.5-1.4-9.2-2-13.9-1.9c-8.3,0.2-16.4,2.8-23.3,7.4C140,344,134.6,371.2,148,391.4
		c7.4,11.2,19.6,18.3,33,19.4c1.5,0.1,3.1,0.2,4.6,0.1c24.2-0.6,43.4-20.7,42.8-44.9C228,347.1,215.5,330.7,197.4,325.1L197.4,325.1
		z M180.8,403.3c-20-2.1-34.6-20-32.5-40c1.7-16.5,14.4-29.8,30.8-32.3c1.5-0.2,3-0.4,4.6-0.4c20.1-0.5,36.8,15.5,37.3,35.6
		s-15.5,36.8-35.6,37.3C183.9,403.5,182.3,403.5,180.8,403.3z"/>
	<path class="st27" d="M163,379.1L163,379.1c-2.4-1.6-3-4.8-1.5-7.2l19.5-29.3c1.6-2.4,4.8-3,7.2-1.5s3,4.8,1.5,7.2l0,0l-19.4,29.3
		C168.6,380,165.4,380.6,163,379.1L163,379.1z"/>
	<g class="st28">
		<g>
			<g>
				<defs>
					
						<rect id="SVGID_9_" x="195.3" y="346.1" transform="matrix(0.9997 -2.356030e-02 2.356030e-02 0.9997 -8.3751 4.935)" width="19.9" height="23.6"/>
				</defs>
				<clipPath id="SVGID_10_">
					<use xlink:href="#SVGID_9_"  style="overflow:visible;"/>
				</clipPath>
				<g class="st29">
					<path class="st1" d="M199.1,369.1l-1.7-1.1c-1.9-1.3-2.4-3.9-1.2-5.8l9.5-14.4c1.3-1.9,3.9-2.4,5.8-1.2l1.7,1.1
						c1.9,1.3,2.4,3.9,1.2,5.8l-9.5,14.4C203.6,369.9,201,370.4,199.1,369.1"/>
				</g>
			</g>
		</g>
	</g>
	<g class="st30">
		<g>
			<g>
				<defs>
					
						<rect id="SVGID_11_" x="185.2" y="173.1" transform="matrix(0.9997 -2.356030e-02 2.356030e-02 0.9997 -9.4166 6.3339)" width="157.8" height="459.4"/>
				</defs>
				<clipPath id="SVGID_12_">
					<use xlink:href="#SVGID_11_"  style="overflow:visible;"/>
				</clipPath>
				<g class="st31">
					<path d="M337.8,534.6l-38.2,0.9c-9.4,0.3-15.1,0.5-18.5,0.6c-7.6,34.8-20.4,79.2-20.4,79.2s-3.2-1-8.4-2.4
						c0,0-3.7,7.7-11.2,20.3c-17.2-7.4-34.9-9.1-50.6-8.4l-10.6-449.7h0.8c10.3-0.2,20.1,4.6,26.2,13c20.3,28.2,36.5,59.5,49.9,91.7
						c2.7,6.5,5.2,12.9,7.7,19.4c12.6,33.2,20.9,67.9,24.4,103.2c0.6,5.5,1,11.1,1.4,16.7l0.2-2L345.3,523c1.8,4.3-0.2,9.2-4.5,10.9
						C339.9,534.3,338.8,534.6,337.8,534.6"/>
				</g>
			</g>
		</g>
	</g>
	
		<rect x="185" y="576.5" transform="matrix(0.9997 -2.356030e-02 2.356030e-02 0.9997 -14.5316 4.6741)" class="st13" width="12.2" height="85.1"/>
	<ellipse class="st32" cx="421.3" cy="877.4" rx="76.5" ry="27.2"/>
	<ellipse class="st8" cx="413.7" cy="874.4" rx="69" ry="24.5"/>
	<ellipse class="st32" cx="409.5" cy="874.4" rx="60.5" ry="21.5"/>
	<ellipse class="st32" cx="723.9" cy="817.6" rx="44.7" ry="19.2"/>
	<ellipse class="st8" cx="719.5" cy="815.5" rx="40.3" ry="17.4"/>
	<ellipse class="st32" cx="717" cy="815.5" rx="35.4" ry="15.2"/>
	<ellipse class="st32" cx="1069.8" cy="763.3" rx="29.8" ry="16.2"/>
	<ellipse class="st8" cx="1066.8" cy="761.5" rx="26.9" ry="14.6"/>
	<ellipse class="st32" cx="1065.2" cy="761.5" rx="23.6" ry="12.8"/>
	<ellipse class="st32" cx="1665.6" cy="880" rx="118.6" ry="40.7"/>
	<ellipse class="st8" cx="1653.8" cy="875.5" rx="106.9" ry="36.7"/>
	<ellipse class="st32" cx="1647.3" cy="875.5" rx="93.8" ry="32.2"/>
	<ellipse class="st33" cx="1254.8" cy="606.3" rx="50.2" ry="15.3"/>
	<ellipse class="st5" cx="1249.8" cy="604.6" rx="45.2" ry="13.8"/>
	<ellipse class="st33" cx="1247.1" cy="604.6" rx="39.7" ry="12.1"/>
	<ellipse class="st33" cx="1474.3" cy="707.5" rx="21.2" ry="7.7"/>
	<ellipse class="st5" cx="1472.2" cy="706.6" rx="19.2" ry="6.9"/>
	<ellipse class="st33" cx="1471" cy="706.6" rx="16.8" ry="6.1"/>
	<ellipse class="st33" cx="1697" cy="510.9" rx="31.4" ry="10.6"/>
	<ellipse class="st5" cx="1693.9" cy="509.8" rx="28.3" ry="9.6"/>
	<ellipse class="st33" cx="1692.2" cy="509.8" rx="24.9" ry="8.4"/>
	<path class="st32" d="M0,850.2c39,4.2,68,20.4,68,39.7s-29,35.4-68,39.7v-78.4"/>
	<path class="st8" d="M50.6,885.4c0,15.6-21,28.9-50.6,34.2v-68.4C29.6,856.5,50.6,869.8,50.6,885.4z"/>
	<path class="st32" d="M36,885.4c0,12.1-14.5,22.7-36,28.2v-56.4C21.5,862.7,36,873.3,36,885.4z"/>
	<g class="st34">
		<path d="M1660.6,773.5c1.8-9,1.7-9.5,4.9-14.4c3.3,6.3,8.6,4.3,12.5,6.7s18.3,12,23.2,11.8c4.6-0.2,6.7,2.7,7.8,3.9l37.9-100.4
			c0.5-1.3,1.4-2.1,2.1-1.9s0.8,1.5,0.4,2.8L1695,826.4c-0.5,1.3-1.4,2.1-2.1,1.9c-0.4-0.2-0.6-0.6-0.6-1c-0.1-0.6,0-1.2,0.3-1.8
			l0.5-1.4c-3-1.7-5.9-3.7-8.8-5.7c-2.9-2.1-4.8-6.2-7.8-7.7c-5.2-2.5-8.7-7.2-14.9-6.8c-3.5,0.2-7.2,1-10.6,0.6
			c-1.5-0.3-3-0.7-4.5-1.2C1646.4,803.3,1658.8,782.5,1660.6,773.5z"/>
	</g>
	<path class="st35" d="M1803.8,629.2c-0.6-0.6-1.2-1.3-1.7-2c-2.2-3-8.8-12.2-12.2-18.5c-2-3.7-3.4-6.1-4.4-8
		c-1.2-2.2-1.8-4.7-1.9-7.2c-0.5-5.2,1.6-10.3,5.6-13.7c5.6-5.6,8.2-8.8,9.5-9.8c1.7-0.6,11.1-1.6,15.9,1.5c3.5,2.3,7.8,5.9,9.6,11
		s11.8,27.3,9,31.7c-3.2,5.1-13.2,16.9-18.5,18.5C1810,634,1806.8,632.1,1803.8,629.2z"/>
	<path class="st36" d="M1824,619.4c-2.5,0-4.6-1.1-7.2-3.6c-0.6-0.6-1.2-1.2-1.7-1.9c-2-2.7-8.7-12.1-12.1-18.4
		c-1.1-2-2-3.7-2.8-5.1c-0.6-1.1-1.2-2.1-1.6-3c-1.1-2.1-1.7-4.4-1.8-6.8c-0.1-1.9,0.1-3.8,0.5-5.7c0.8-2.9,2.5-5.5,4.8-7.4
		c3-2.5,6.5-4.4,10.3-5.6l0.7-0.2c2.3-0.9,4.8-1.3,7.3-1.4c1.9-0.1,3.7,0.4,5.3,1.4c3.3,2.1,7.5,5.6,9.3,10.5
		c1.8,5.1,2.3,29.8,0.6,34.2l-0.4,1c-1.6,4.5-3.7,10-8.2,11.4C1825.9,619.2,1825,619.4,1824,619.4z"/>
	<path d="M1820.2,561.3L1820.2,561.3c1.7-0.1,3.4,0.4,4.9,1.2c3.2,2,7.2,5.4,8.9,10.1c1.8,4.9,2.2,29.4,0.6,33.6
		c-0.1,0.3-0.3,0.7-0.4,1c-1.7,4.5-3.5,9.6-7.7,10.8c-0.8,0.3-1.7,0.4-2.6,0.4c-2.2,0-4.2-1-6.6-3.4c-0.6-0.6-1.1-1.1-1.6-1.8
		c-2-2.7-8.7-12-12-18.3c-1.1-2.1-2.1-3.8-2.8-5.1c-0.6-1.1-1.2-2.1-1.6-2.9c-1-2-1.6-4.2-1.7-6.4c-0.1-1.8,0-3.6,0.5-5.4
		c0.8-2.7,2.3-5.2,4.5-7c2.9-2.5,6.3-4.3,10-5.4l0.4-0.1l0.2-0.1c2.2-0.8,4.6-1.3,7-1.4 M1820.3,559.5c-2.7,0.1-5.3,0.6-7.8,1.5
		c-4,1.2-7.8,3.2-11,5.9c-2.4,2.1-4.1,4.8-5,7.8c-0.5,1.9-0.7,3.9-0.6,5.9c0.1,2.5,0.7,4.9,1.9,7.2c1,1.9,2.4,4.3,4.4,8
		c3.4,6.3,10,15.5,12.2,18.5c0.5,0.7,1.1,1.4,1.8,2c2.3,2.2,4.7,3.9,7.8,3.9c1.1,0,2.1-0.2,3.1-0.5c5.3-1.6,7.3-8.1,9.2-13
		s1.2-29.8-0.6-34.8s-6.1-8.7-9.6-11C1824.4,559.9,1822.4,559.4,1820.3,559.5L1820.3,559.5z"/>
	
		<ellipse transform="matrix(0.5972 -0.8021 0.8021 0.5972 272.2836 1691.5642)" class="st37" cx="1820.3" cy="574.7" rx="9.3" ry="11.6"/>
	
		<ellipse transform="matrix(0.5972 -0.8021 0.8021 0.5972 259.3081 1704.2919)" class="st37" cx="1826.5" cy="594" rx="6.6" ry="8.3"/>
	
		<ellipse transform="matrix(0.5972 -0.8021 0.8021 0.5972 246.5782 1707.9979)" class="st37" cx="1823.8" cy="608.5" rx="5.2" ry="6.5"/>
	<path class="st38" d="M1789.9,608.7l-1.1-5.9l8,5.8c0,0-6.5-14.1-6.2-13.7s5.4,6.8,5.4,6.8l-1.2-7l5.4,6.7l-0.9-7.2l2.7,3.5l-0.6-3
		l6.4,15.9l-4.6-5.9l2.4,8.9l-5.8-6.7l2.4,7.7l-7.7-5.5l2.1,4.5l-5.5-7.1l3.3,7L1789.9,608.7z"/>
	<polygon class="st38" points="1788.2,580.7 1787,587.5 1789.5,581.6 1789.2,587.4 1791.9,578.1 1792.2,580.5 1794.4,574.2 	"/>
	
		<ellipse transform="matrix(0.5972 -0.8021 0.8021 0.5972 272.8531 1691.6431)" class="st39" cx="1820.7" cy="574.2" rx="3.2" ry="4.3"/>
	
		<ellipse transform="matrix(0.3861 -0.9225 0.9225 0.3861 573.8048 2049.948)" class="st39" cx="1827" cy="593.9" rx="2.7" ry="3.7"/>
	
		<ellipse transform="matrix(0.3861 -0.9225 0.9225 0.3861 558.507 2056.5076)" class="st39" cx="1824.3" cy="608.7" rx="2" ry="2.8"/>
	<path class="st40" d="M1748.9,526c-7.6,0.6-15.2,1.5-22.8,2.5c-6.5,0.9-12.7,4.2-19,4.5c-10.8,0.5-20.1,3.7-30.9,1.1
		c-6.1-1.5-12-3.5-18.3-4.3c-2.9-0.3-5.8-0.4-8.7-0.4c0,0,8.1,23.9,5.2,33s-3.3,9.5-1,15.2c10-4.8,18-1,26.6-1.9s40.4-4.8,48.9-2.8
		s14.4-0.5,17-1L1748.9,526z"/>
	<path class="st41" d="M1752.1,580.9l27.4-5c4.7-1,8.1-0.9,9.3,3.5l0,0c0.8,4.4-1.4,5.4-5.6,7l-27.7,11.2c-4.4,1.2-9-1.3-10.3-5.7
		l0,0C1744.1,587.4,1747.7,582.2,1752.1,580.9z"/>
	<path class="st42" d="M1754.2,580.5l28.5-5.7c4.6-1,7.9,8.9,3.8,10.5l-27.7,11.2c-4.4,1.2-9-1.3-10.3-5.7l0,0
		C1747.3,586.4,1749.8,581.8,1754.2,580.5z"/>
	
		<ellipse transform="matrix(0.6373 -0.7706 0.7706 0.6373 183.8402 1566.9602)" class="st43" cx="1756.6" cy="588.2" rx="2.9" ry="3.3"/>
	<path class="st13" d="M1748,682L1748,682c-1.4,0-2.5-1.1-2.5-2.5V524.8c0-1.4,1.1-2.5,2.5-2.5l0,0c1.4,0,2.5,1.1,2.5,2.5v154.7
		C1750.5,680.9,1749.4,682,1748,682z"/>
	<path class="st44" d="M1745.3,597.3c1.4-1.4,5.7-5.8,8.2-5.8c0.2,0,0.4,0.1,0.5,0.2c2.4,1.8,3.3,4,3.2,4.3s-4.1,3.6-9.6,4.7
		c-0.3,0-0.5,0-0.7-0.2c-0.7-0.6-1.3-1.3-1.8-2.1C1745,598,1745.1,597.6,1745.3,597.3z"/>
	<path class="st45" d="M1743.9,598.5c1.4-1.4,5.7-5.8,8.2-5.8c0.2,0,0.4,0.1,0.5,0.2c2.4,1.8,3.3,4,3.2,4.3s-4.1,3.6-9.6,4.7
		c-0.3,0-0.5,0-0.7-0.2c-0.7-0.6-1.3-1.3-1.8-2.1C1743.6,599.2,1743.7,598.8,1743.9,598.5z"/>
	<path class="st44" d="M1740.2,594.2c1.6-1.5,6.3-5.9,8.9-6.2c0.2,0,0.5,0,0.7,0.2c2.3,1.8,3.3,4,3.2,4.3s-5,4-10.4,5.1
		c-0.3,0.1-0.6,0-0.8-0.2c-0.6-0.6-1.2-1.2-1.7-1.9C1739.9,595,1739.9,594.5,1740.2,594.2z"/>
	<path class="st45" d="M1738.6,595.3c1.6-1.5,6.3-5.9,8.9-6.2c0.2,0,0.5,0,0.7,0.2c2.3,1.8,3.3,4,3.2,4.3s-5,4-10.4,5.1
		c-0.3,0.1-0.6,0-0.8-0.2c-0.6-0.6-1.2-1.2-1.7-1.9C1738.2,596.2,1738.3,595.7,1738.6,595.3z"/>
	<path class="st44" d="M1737.2,589.3c1.5-1.5,5.7-5.4,8.2-5.6c0.3,0,0.5,0,0.7,0.2c2.3,1.8,3.2,4,3.2,4.3s-4.3,3.5-9.7,4.6
		c-0.3,0.1-0.7,0-0.9-0.3c-0.6-0.5-1.1-1.2-1.6-1.8C1736.8,590.2,1736.9,589.7,1737.2,589.3z"/>
	<path class="st45" d="M1735.1,590.9c1.5-1.5,5.7-5.4,8.2-5.6c0.3,0,0.5,0.1,0.7,0.2c2.3,1.8,3.2,4,3.1,4.3s-4.3,3.5-9.7,4.6
		c-0.3,0.1-0.7,0-0.9-0.3c-0.6-0.5-1.1-1.1-1.6-1.8C1734.7,591.8,1734.7,591.2,1735.1,590.9z"/>
	<path class="st44" d="M1749.2,584.1c0,0-8.7,4.6-11.4,3.4c-1.8-2.5-2.1-5-1.9-5.3s6.3-2.4,12-1.6
		C1748.6,581.7,1749.1,582.9,1749.2,584.1z"/>
	<path class="st45" d="M1750.1,584c-2,1-7.6,3.6-10.1,3.1c-0.3-0.1-0.6-0.2-0.8-0.5c-1.6-2.3-1.8-4.7-1.7-5s5.8-2.2,11.4-1.7
		c0.4,0,0.7,0.2,0.9,0.6c0.4,0.7,0.7,1.4,0.9,2.1C1750.9,583.2,1750.6,583.8,1750.1,584z"/>
	<path class="st46" d="M1775.7,586.2c0,0,4.7-24,9.2-33c0,0,14.8-22.3,29.7-39.8c0,3.4-6.2,27.8-7.6,30.9S1782,579.9,1775.7,586.2z"
		/>
	<path class="st47" d="M1800.7,548.6c0,0,1.1-10.4,1.4-11.3s-11,13.3-11,13.3s-1.2,10-1.1,10.8S1800.7,548.6,1800.7,548.6z"/>
	<path class="st48" d="M1814.7,513.1c0,0,31.8,21,37.8,29c0.2,3.7-4.3,24.7-8.1,29.8c-3.9-2-35.8-24.6-37.3-27.9
		C1807.1,541,1811.2,522.4,1814.7,513.1z"/>
	<path class="st39" d="M1775.7,586.2c0,0,15.2,12.2,27,20.1c4.6,3.1,12,2,12.7,1.4c2.7-0.5,31-36.8,31.2-40.1
		c-4.3,0.9-8.8-0.2-12.3-2.9c-7.6-5.7-18-13.9-27.1-20.8C1805.4,544.8,1779.6,578.9,1775.7,586.2z"/>
	<path class="st49" d="M1784,555c-2.7,5-8.3,31.3-8.3,31.3s24.9,19.7,27,20.1c2.1,1.1,4.4,2.8,11.8,1.7c1.7-0.8,3.3-0.3,24.1-28.1"
		/>
	<path class="st49" d="M1795.1,538.5c0,0,18.4-24.7,19.6-25.3c0,0,21.8,14.9,22.9,16.1"/>
	<path class="st35" d="M1844.2,587c-0.6-0.6-1.2-1.3-1.8-2c-2.2-3-8.8-12.2-12.2-18.5c-2-3.7-3.4-6.1-4.4-8.1
		c-1.2-2.2-1.8-4.7-1.9-7.2c-0.1-2,0.1-4,0.6-5.9c1-3,2.7-5.7,5-7.8c5.6-5.6,8.2-8.8,9.6-9.8c1.7-0.6,11.1-1.6,15.9,1.5
		c3.5,2.2,7.8,5.9,9.6,11s11.8,27.3,9,31.7c-3.2,5.1-13.2,16.9-18.5,18.5C1850.4,591.9,1847.2,589.9,1844.2,587z"/>
	<path class="st36" d="M1864.4,577.3c-2.5,0-4.6-1.1-7.2-3.6c-0.6-0.6-1.2-1.2-1.7-1.9c-2-2.7-8.7-12-12.1-18.4
		c-1.1-2-2-3.7-2.8-5.1c-0.6-1.1-1.2-2.1-1.6-2.9c-1.1-2.1-1.7-4.4-1.8-6.8c-0.1-1.9,0-3.8,0.5-5.7c0.8-2.9,2.5-5.5,4.8-7.4
		c3-2.5,6.5-4.4,10.2-5.6l0.7-0.2c2.3-0.9,4.8-1.3,7.3-1.4c1.9-0.1,3.7,0.4,5.3,1.4c3.3,2.1,7.5,5.6,9.3,10.5
		c1.8,5.1,2.3,29.8,0.6,34.2l-0.4,1c-1.7,4.5-3.7,10-8.2,11.4C1866.3,577.1,1865.4,577.3,1864.4,577.3z"/>
	<path d="M1860.7,519.2L1860.7,519.2c1.7-0.1,3.4,0.4,4.8,1.2c3.2,2,7.2,5.4,8.9,10.1c1.8,4.9,2.2,29.4,0.6,33.6l-0.4,1
		c-1.7,4.5-3.5,9.6-7.7,10.9c-0.8,0.3-1.7,0.4-2.6,0.4c-2.2,0-4.2-1-6.6-3.4c-0.6-0.6-1.1-1.2-1.6-1.8c-2-2.7-8.7-12-12-18.3
		c-1.1-2.1-2.1-3.8-2.8-5.1c-0.6-1.1-1.2-2.1-1.6-2.9c-1-2-1.6-4.2-1.7-6.4c-0.1-1.8,0-3.6,0.5-5.4c0.8-2.7,2.3-5.2,4.5-7
		c2.9-2.5,6.3-4.3,10-5.4l0.4-0.2l0.2-0.1C1856,519.7,1858.4,519.2,1860.7,519.2 M1860.7,517.4c-2.7,0.1-5.3,0.6-7.8,1.5
		c-4,1.2-7.8,3.2-11,5.9c-2.4,2.1-4.1,4.8-5,7.8c-0.5,1.9-0.7,3.9-0.6,5.9c0.1,2.5,0.7,4.9,1.9,7.2c1,1.9,2.4,4.3,4.4,8.1
		c3.4,6.3,10,15.5,12.2,18.5c0.5,0.7,1.1,1.4,1.8,2c2.3,2.2,4.7,3.9,7.8,3.9c1.1,0,2.1-0.2,3.1-0.5c5.3-1.6,7.4-8.1,9.2-12.9
		s1.2-29.8-0.6-34.8s-6.1-8.7-9.6-10.9C1864.8,517.8,1862.8,517.3,1860.7,517.4L1860.7,517.4z"/>
	
		<ellipse transform="matrix(0.5972 -0.8021 0.8021 0.5972 322.3522 1706.9476)" class="st37" cx="1860.7" cy="532.5" rx="9.3" ry="11.6"/>
	<ellipse transform="matrix(0.6 -0.8 0.8 0.6 304.6566 1713.9227)" class="st37" cx="1866.3" cy="552.3" rx="6.6" ry="8.3"/>
	
		<ellipse transform="matrix(0.5972 -0.8021 0.8021 0.5972 296.7276 1723.3992)" class="st37" cx="1864.2" cy="566.3" rx="5.2" ry="6.5"/>
	<path class="st38" d="M1830.3,566.5l-1-5.9l8,5.8c0,0-6.5-14.1-6.2-13.7s5.4,6.8,5.4,6.8l-1.2-7l5.4,6.7l-0.9-7.2l2.7,3.5l-0.6-3
		l6.4,15.9l-4.6-5.9l2.4,8.9l-5.8-6.7l2.4,7.7l-7.6-5.5l2.1,4.5l-5.5-7.1l3.3,6.9L1830.3,566.5z"/>
	<polygon class="st38" points="1828.7,538.5 1827.4,545.4 1829.9,539.5 1829.6,545.3 1832.3,536 1832.7,538.4 1834.9,532.1 	"/>
	
		<ellipse transform="matrix(0.5972 -0.8021 0.8021 0.5972 322.8985 1707.1172)" class="st39" cx="1861.1" cy="532.1" rx="3.2" ry="4.3"/>
	
		<ellipse transform="matrix(0.3861 -0.9225 0.9225 0.3861 636.3344 2060.6733)" class="st39" cx="1866.3" cy="552.3" rx="2.7" ry="3.7"/>
	
		<ellipse transform="matrix(0.3861 -0.9225 0.9225 0.3861 622.1597 2067.9551)" class="st39" cx="1864.7" cy="566.6" rx="2" ry="2.8"/>
	<path class="st50" d="M1855,563.9c0,0-1.5-2.9,2.3-5.7c-1.1-1.8-4.3-6.2,0.9-12.4c-1.7-0.7-9.8-2.7-12.4-12
		c-2.2,1.3-3.7,2.1-2.4,6.6S1854,563.6,1855,563.9z"/>
	<path class="st51" d="M1785.6,536.2l11.7,8.3l-7.2,10.3c-1.2,1.7-4.8,1.2-8-1.1s-4.8-5.6-3.6-7.3c0.5-0.6,1.2-1,1.9-1L1785.6,536.2
		z"/>
	<path class="st52" d="M1751.2,580c0,0,5.4-1.9,11.1-8c2.5-2.7,5-6.8,7.2-10.9c7.2-13.3,4.7-23.3,4.7-23.3s-9-5.2-11.9-7.1
		s-11.2-1.8-11.2-1.8L1751.2,580z"/>
	<path class="st52" d="M1807.4,502.4c0,0,2.5,5.3-3.4,12.9c-5.9,7.6-17.1,16.7-17.1,16.7l-14.6,0.3L1807.4,502.4z"/>
	<path class="st39" d="M1753.7,528.8l3-4.1l13,9.4l-2.8,3.9C1766.9,538,1758.5,531.4,1753.7,528.8z"/>
	<polygon class="st53" points="1766.9,538 1772.2,537.9 1774.2,535.1 1769.7,534.1 	"/>
	<polygon class="st54" points="1764.7,541 1772.3,530.4 1790.6,544.5 1783.1,554.4 	"/>
	<path class="st55" d="M1766.8,537.9l2,1.9c0.1,0.1,0.2,0.2,0.2,0.3l0.1,4.2c0,0.3-0.2,0.5-0.5,0.5c-0.1,0-0.1,0-0.2,0l-0.7-0.4
		c-0.1-0.1-0.2-0.2-0.2-0.3l-1.4-5.7c-0.1-0.3,0.1-0.5,0.3-0.6C1766.5,537.7,1766.7,537.7,1766.8,537.9z"/>
	<polygon class="st56" points="1786.8,532 1790.4,536 1790.6,544.5 1772.3,530.4 	"/>
	<path class="st52" d="M1770.1,534.2c0,0,2.3,1.4,2.9,1.2c2.8-1.5,5.5-3.1,8.1-4.9c0.6-0.6-1.1-1.7-1.1-1.7L1770.1,534.2z"/>
	<path class="st57" d="M1770.1,534.2c0,0,2.8,1.7,3.2,1.1c0.8-0.5,6.9-4,6.9-4"/>
	<path class="st58" d="M1771.2,533.4c-2.7-1.1-10-6.4-14.2-10.2c-0.6-0.6-0.7-1.5-0.3-2.2c9.9-16.1,23.1-29.1,26.8-32.7
		c0.3-0.3,0.7-0.5,1.2-0.5c0.2,0,0.4,0,0.6,0.1c8.9,3.2,17.4,11.2,20.6,14.5c0.5,0.5,0.7,1.3,0.3,2
		C1801.3,513.8,1774.8,533.2,1771.2,533.4z"/>
	<path class="st59" d="M1784.7,489.1c0.1,0,0.1,0,0.2,0c8.7,3.1,17,11,20.2,14.2c0.1,0.1,0.2,0.3,0.1,0.5
		c-4.3,8.4-29,26.9-33.8,28.3c-2.6-1.3-9.4-6-13.5-9.9c-0.2-0.1-0.2-0.4-0.1-0.6c9.9-16,22.9-28.9,26.7-32.5
		C1784.4,489.1,1784.5,489,1784.7,489.1 M1784.7,486.5c-0.8,0-1.5,0.3-2.1,0.8c-4.1,3.9-17.1,16.8-27,33c-0.7,1.2-0.5,2.8,0.5,3.7
		c4.2,3.8,11.9,9.4,14.7,10.5c0.1,0,0.2,0.1,0.3,0c4.2,0,31.4-20.5,36.2-29.7c0.6-1.1,0.4-2.5-0.5-3.4c-3.2-3.2-11.9-11.5-21.1-14.8
		C1785.4,486.6,1785.1,486.5,1784.7,486.5L1784.7,486.5z"/>
	<polygon class="st54" points="1786.7,555.7 1791.9,558.8 1799.9,548 1794.3,545.5 	"/>
	<polygon class="st56" points="1795.3,538.7 1801.2,538.6 1799.9,548 1794.3,545.5 	"/>
	
		<ellipse transform="matrix(0.5822 -0.8131 0.8131 0.5822 309.1929 1683.4974)" class="st60" cx="1792.6" cy="540.9" rx="3.8" ry="7.1"/>
	<path class="st61" d="M1766.5,537.8c0,0,2.5,1.9,2.5,2.3l0.1,4.2"/>
	<path class="st58" d="M1750.8,578.6c-0.3,0-0.5-0.1-0.7-0.2c-4.1-2-14.4-7.6-20.2-15c-0.4-0.5-0.5-1.2-0.2-1.8
		c5.5-11.2,12.3-21.6,20.4-31c0.3-0.4,0.8-0.6,1.3-0.6c0.3,0,0.6,0.1,0.8,0.2c4.9,2.8,12.3,8.2,14.2,10.3
		c1.1,3.3-7.3,30.3-14.4,37.5C1751.7,578.5,1751.3,578.6,1750.8,578.6z"/>
	<path class="st59" d="M1751.4,531.3c0.1,0,0.1,0,0.2,0c4.9,2.8,11.6,7.7,13.6,9.8c0.2,4.3-7.2,29.1-14.1,36
		c-0.1,0.1-0.1,0.1-0.2,0.1h-0.2c-4-2-14.1-7.5-19.7-14.7c-0.1-0.1-0.1-0.3-0.1-0.4c5.4-11.1,12.2-21.4,20.3-30.8
		C1751.2,531.3,1751.3,531.2,1751.4,531.3 M1751.4,528.6c-0.9,0-1.7,0.4-2.3,1c-12.3,14.5-18.2,26.2-20.6,31.3
		c-0.5,1-0.3,2.2,0.4,3.1c6,7.7,16.6,13.4,20.6,15.4c0.4,0.2,0.9,0.3,1.3,0.3c0.8,0,1.5-0.3,2.1-0.9c7.5-7.6,16.6-36.8,14.5-39.3
		c-1.9-2.3-9.6-7.9-14.6-10.7C1752.4,528.7,1751.9,528.6,1751.4,528.6L1751.4,528.6z"/>
	<path class="st62" d="M1775.1,526.6c-4.9-0.1-9.2-3.6-10.2-8.4c-0.5-2.4,0.1-4.9,1.5-6.8c1.7-2.2,4.3-3.5,7.1-3.5
		c4.9,0,9.2,3.5,10.2,8.4c0.5,2.4-0.1,4.9-1.5,6.8C1780.6,525.3,1777.9,526.6,1775.1,526.6z"/>
	<path class="st63" d="M1773.6,509L1773.6,509c2,0,3.9,0.7,5.5,1.9c3.9,2.9,4.9,8.1,2.3,11.6c-1.5,1.9-3.8,3.1-6.3,3
		c-2,0-3.9-0.7-5.5-1.9c-3.9-2.9-4.9-8.1-2.3-11.6C1768.8,510.1,1771.2,508.9,1773.6,509 M1773.6,506.9c-3.1-0.1-6.1,1.4-8,3.9
		c-3.3,4.5-2.1,11,2.7,14.6c2,1.5,4.3,2.3,6.8,2.3c3.1,0,6.1-1.4,8-3.9c3.3-4.5,2.1-11-2.7-14.6
		C1778.4,507.7,1776.1,506.9,1773.6,506.9L1773.6,506.9z"/>
	<path class="st62" d="M1752.8,557.8c-4.9-0.1-9.2-3.6-10.2-8.4c-0.5-2.4,0.1-4.9,1.5-6.8c1.7-2.2,4.3-3.5,7.1-3.5
		c4.9,0,9.2,3.5,10.2,8.4c0.5,2.4-0.1,4.9-1.5,6.8C1758.3,556.5,1755.6,557.8,1752.8,557.8z"/>
	<path class="st63" d="M1751.3,540.2L1751.3,540.2c2,0,3.9,0.7,5.5,1.9c3.9,2.9,4.9,8.1,2.3,11.6c-1.5,1.9-3.8,3.1-6.3,3
		c-4.4,0-8.2-3.2-9.1-7.5c-0.4-2.1,0.1-4.3,1.3-6C1746.6,541.2,1748.9,540.1,1751.3,540.2 M1751.3,538c-3.1-0.1-6.1,1.4-8,3.9
		c-3.3,4.5-2.1,11,2.7,14.6c2,1.5,4.3,2.3,6.8,2.3c3.1,0,6.1-1.4,8-3.9c3.3-4.5,2.1-11-2.7-14.6C1756.2,538.8,1753.8,538,1751.3,538
		L1751.3,538z"/>
	
		<ellipse transform="matrix(0.5972 -0.8021 0.8021 0.5972 288.3812 1654.9696)" class="st64" cx="1791.9" cy="540.4" rx="1.7" ry="3.6"/>
	<line class="st65" x1="1753.8" y1="528.9" x2="1756.8" y2="524.7"/>
	<path class="st66" d="M1843.3,509.9l-22.6,14.4c-3.9,2.3-6.3,4.7-4.3,8.6l0,0c2.4,3.6,4.5,2.8,8.5,1.2l26.8-10.2
		c3.9-2,5.5-6.8,3.5-10.8l0,0C1853.2,509.2,1847.2,507.9,1843.3,509.9z"/>
	<path class="st67" d="M1841.6,511l-23.7,14.7c-3.9,2.3,0.3,11.4,4.2,9.8l26.8-10.3c3.9-2,5.5-6.8,3.5-10.8l0,0
		C1850.3,510.6,1845.5,509,1841.6,511z"/>
	<path class="st68" d="M1851.1,511.3c0,0-0.8-1.1-3.2-1.5c1.2-3.2,5.2-10.6,6.5-10.8c1.3,0.1,2.6,0.5,3.8,1.1c1,0.4,1.5,1.6,1.1,2.6
		c-0.1,0.2-0.2,0.4-0.3,0.5c-2.7,3.1-6.9,7.8-6.9,7.8L1851.1,511.3z"/>
	<path class="st69" d="M1847.8,509.8c1.2-3.2,4.2-10.8,5.5-11c1.3,0,2.6,0.3,3.8,0.9c1,0.4,1.5,1.6,1.1,2.6
		c-0.1,0.2-0.2,0.4-0.3,0.5c-2.7,3.1-6.5,8.5-6.9,8.6C1850.3,510.4,1849.1,509.8,1847.8,509.8z"/>
	<path class="st68" d="M1854.1,515.7c0,0,0.1-1.3-1.7-3.1c2.9-1.9,10.5-5.3,11.7-4.6c1,0.9,1.8,2,2.3,3.2c0.6,0.9,0.3,2.2-0.6,2.8
		c-0.2,0.1-0.4,0.2-0.6,0.2c-4,0.9-10.2,2-10.2,2L1854.1,515.7z"/>
	<path class="st69" d="M1852.4,512.5c2.9-1.9,9.9-6.1,11-5.4c1,0.8,1.9,1.9,2.5,3c0.6,0.9,0.3,2.2-0.6,2.8c-0.2,0.1-0.4,0.2-0.6,0.2
		c-4,0.9-10.3,2.8-10.7,2.7C1854,514.5,1853.4,513.3,1852.4,512.5z"/>
	<path class="st68" d="M1853,521.5c0,0,1-1,0.8-3.5c3.4,0.5,9.2,1.2,9.6,2.5c0.3,0.8,0.3,1.7,0,2.5c-0.2,1.1-1.3,1.8-2.5,1.6
		c-0.2,0-0.3-0.1-0.4-0.2c-2.3-0.9-4.7-1.6-7.1-2L1853,521.5z"/>
	<path class="st69" d="M1853.8,518c3.4,0.5,9.2,0.2,9.6,1.5c0.4,0.8,0.5,1.6,0.2,2.4c-0.2,1.1-1.2,1.8-2.3,1.6
		c-0.2,0-0.4-0.1-0.6-0.2c-3.8-1.5-7.7-1.5-7.8-1.8C1853.8,520.6,1854.1,519.3,1853.8,518z"/>
	<path class="st68" d="M1844.2,509.5l2.6,0.3c0,0,0.7-0.5,0.9-0.6c0.8-0.7,1.2-9-0.5-9.1s-3.9,0.4-4.2,1c0,0.1-0.5,0.7-0.5,0.7
		S1843.8,509.8,1844.2,509.5z"/>
	<path class="st69" d="M1843.3,510.1c0.6-0.2,1.1-0.4,1.7-0.4s1.1,0.1,1.7,0.1c1.1,0.1,1.2-9-0.5-9.1s-3.7,0.7-4,1.2
		S1842.9,510.4,1843.3,510.1z"/>
	
		<ellipse transform="matrix(0.1295 -0.9916 0.9916 0.1295 1092.4457 2280.2935)" class="st70" cx="1845" cy="518" rx="3.1" ry="2.8"/>
	<path class="st71" d="M1809.5,560l-18.7,23.9c-0.8,1-0.6,2.4,0.4,3.2c0,0,0.1,0,0.1,0.1l14.8,10.3c1,0.7,2.3,0.5,3.1-0.5l18.7-23.9
		c0.8-1,0.6-2.4-0.4-3.2l-0.1-0.1l-14.8-10.2C1811.6,558.8,1810.2,559.1,1809.5,560z"/>
	<path class="st72" d="M1810.5,560.1l-18.8,23.9c-0.6,0.8-0.5,1.9,0.3,2.5c0,0,0.1,0,0.1,0.1L1807,597c0.8,0.5,1.8,0.4,2.4-0.4
		l18.8-23.9c0.6-0.8,0.5-1.9-0.3-2.5c0,0-0.1,0-0.1-0.1l-14.9-10.3C1812.1,559.2,1811.1,559.4,1810.5,560.1z"/>
	<path class="st73" d="M1805.8,581l11.4-14.8c0.4-0.5,0.3-1.2-0.2-1.6l-4.4-3c-0.5-0.4-1.2-0.3-1.6,0.2l0,0l-11.4,14.8
		c-0.4,0.5-0.3,1.2,0.2,1.6l4.4,3C1804.7,581.6,1805.4,581.5,1805.8,581C1805.7,581,1805.7,581,1805.8,581z"/>
	
		<ellipse transform="matrix(0.59 -0.8074 0.8074 0.59 285.7023 1695.2642)" class="st74" cx="1812.1" cy="566.3" rx="2.2" ry="2.7"/>
	
		<ellipse transform="matrix(0.59 -0.8074 0.8074 0.59 279.8339 1694.0292)" class="st75" cx="1807.9" cy="571.5" rx="2.2" ry="2.7"/>
	
		<ellipse transform="matrix(0.59 -0.8074 0.8074 0.59 274.0925 1693.0723)" class="st76" cx="1804.1" cy="576.7" rx="2.2" ry="2.7"/>
	<path class="st77" d="M1811.7,580.7l9-11.6c0.4-0.5,0.3-1.3-0.2-1.7l0,0c-0.5-0.4-1.3-0.3-1.6,0.2l0,0l-9,11.6
		c-0.4,0.5-0.3,1.3,0.2,1.7l0,0C1810.6,581.3,1811.3,581.2,1811.7,580.7z"/>
	<path class="st78" d="M1822.6,578.3l4-5.2c0.4-0.5,0.3-1.2-0.2-1.6l0,0l0,0c-0.5-0.4-1.2-0.3-1.6,0.2l0,0l-4,5.2
		c-0.4,0.5-0.3,1.3,0.2,1.6l0,0C1821.4,578.9,1822.2,578.8,1822.6,578.3z"/>
	<path class="st78" d="M1819.8,576.4l4-5.2c0.4-0.5,0.3-1.3-0.2-1.6l0,0l0,0c-0.5-0.4-1.2-0.3-1.6,0.2l-4,5.2
		c-0.4,0.5-0.3,1.2,0.2,1.6l0,0l0,0C1818.7,577,1819.5,576.9,1819.8,576.4z"/>
	<path class="st78" d="M1751.7,554.4l5.3-7.1c0.5-0.7,0.4-1.7-0.3-2.2l0,0l0,0c-0.7-0.5-1.6-0.4-2.2,0.3l-5.3,7.1
		c-0.5,0.7-0.4,1.7,0.3,2.2l0,0l0,0C1750.2,555.3,1751.2,555.1,1751.7,554.4z"/>
	<path class="st78" d="M1774.3,523.8l5.3-7.1c0.5-0.7,0.4-1.7-0.3-2.2l0,0l0,0c-0.7-0.5-1.6-0.4-2.2,0.3l-5.3,7.1
		c-0.5,0.7-0.4,1.7,0.3,2.2l0,0l0,0C1772.8,524.7,1773.7,524.5,1774.3,523.8z"/>
	<polygon class="st79" points="1797.7,579.2 1792.2,586.2 1807.3,596.7 1812.8,589.6 	"/>
	
		<radialGradient id="SVGID_13_" cx="1509.0122" cy="937.1152" r="1.53" gradientTransform="matrix(-0.5703 0.8214 0.8214 0.5703 1885.3942 -1187.8845)" gradientUnits="userSpaceOnUse">
		<stop  offset="0.2" style="stop-color:#666666"/>
		<stop  offset="0.57" style="stop-color:#585858"/>
		<stop  offset="1" style="stop-color:#4D4D4D"/>
	</radialGradient>
	<path class="st80" d="M1793.8,585.5c0.3-0.4,1-0.5,1.5-0.2s0.7,1,0.4,1.4c-0.3,0.4-1,0.5-1.5,0.2
		C1793.6,586.6,1793.5,585.9,1793.8,585.5z"/>
	<path class="st81" d="M1793.8,585.6c0.5,0.6,1.1,1.1,1.9,1.2"/>
	<path class="st81" d="M1795.3,585.5c-0.2,0.6-0.6,1.2-1.1,1.6"/>
	
		<radialGradient id="SVGID_14_" cx="1502.8322" cy="952.2152" r="1.53" gradientTransform="matrix(-0.5703 0.8214 0.8214 0.5703 1885.3959 -1187.8901)" gradientUnits="userSpaceOnUse">
		<stop  offset="0.2" style="stop-color:#666666"/>
		<stop  offset="0.57" style="stop-color:#585858"/>
		<stop  offset="1" style="stop-color:#4D4D4D"/>
	</radialGradient>
	<path class="st82" d="M1809.7,589c0.3-0.4,1-0.5,1.5-0.2c0.5,0.4,0.7,1,0.4,1.4c-0.3,0.4-1,0.5-1.5,0.2
		C1809.6,590.1,1809.4,589.5,1809.7,589z"/>
	<path class="st81" d="M1809.8,589.1c0.5,0.6,1.1,1.1,1.9,1.2"/>
	<path class="st81" d="M1811.3,589c-0.2,0.6-0.6,1.2-1.1,1.6"/>
	
		<radialGradient id="SVGID_15_" cx="1509.1821" cy="951.8452" r="1.53" gradientTransform="matrix(-0.5703 0.8214 0.8214 0.5703 1885.3854 -1187.8898)" gradientUnits="userSpaceOnUse">
		<stop  offset="0.2" style="stop-color:#666666"/>
		<stop  offset="0.57" style="stop-color:#585858"/>
		<stop  offset="1" style="stop-color:#4D4D4D"/>
	</radialGradient>
	<path class="st83" d="M1805.8,594c0.3-0.4,1-0.5,1.5-0.2c0.5,0.4,0.7,1,0.4,1.4s-1,0.5-1.5,0.2
		C1805.6,595.1,1805.5,594.5,1805.8,594z"/>
	<path class="st81" d="M1805.8,594.2c0.5,0.6,1.1,1,1.9,1.2"/>
	<path class="st81" d="M1807.3,594c-0.2,0.6-0.6,1.2-1.1,1.6"/>
	
		<radialGradient id="SVGID_16_" cx="1503.4822" cy="937.3751" r="1.53" gradientTransform="matrix(-0.5703 0.8214 0.8214 0.5703 1885.3944 -1187.8878)" gradientUnits="userSpaceOnUse">
		<stop  offset="0.2" style="stop-color:#666666"/>
		<stop  offset="0.57" style="stop-color:#585858"/>
		<stop  offset="1" style="stop-color:#4D4D4D"/>
	</radialGradient>
	<path class="st84" d="M1797.1,581.1c0.3-0.4,1-0.5,1.5-0.2c0.5,0.4,0.7,1,0.4,1.4c-0.3,0.4-1,0.5-1.5,0.2
		S1796.8,581.6,1797.1,581.1z"/>
	<path class="st81" d="M1797.2,581.2c0.5,0.6,1.1,1.1,1.9,1.2"/>
	<path class="st81" d="M1798.7,581c-0.2,0.6-0.6,1.2-1.1,1.6"/>
	<path class="st85" d="M1820.5,567.4c-1.3,1-2.3,2.4-2.8,4c-0.7,2.4-2.5,1.3-3.1,2.2s0.6,2.1-0.4,3.2s-1.2,0.4-1.6,1s0.2,1-0.2,1.5
		s-2.3-0.5-2.5-0.1"/>
	<path class="st86" d="M878.1,153.1c3.2,0,3.2-5,0-5S874.9,153.1,878.1,153.1z"/>
	<g id="Earth">
		<path class="st87" d="M666,106.8c0,8-4.8,15.3-12.2,18.4c-0.3,0.2-0.7,0.3-1,0.4c-2.2,0.8-4.5,1.2-6.8,1.2h-0.8
			c-1.7-0.1-3.4-0.3-5-0.8c-0.2-0.1-0.4-0.1-0.6-0.2c-2.8-1-5.4-2.6-7.6-4.7l0,0c-0.7-0.7-1.4-1.4-2-2.2c-6.7-8.8-4.9-21.4,3.9-28
			c3.5-2.6,7.7-4.1,12.1-4h0.2C657.2,86.9,666,95.8,666,106.8L666,106.8z"/>
		<path class="st88" d="M664.9,100.2c-0.2,0.3-0.3,0.6-0.4,0.9c0,0.3-0.1,0.6-0.2,0.9c-0.1,0.3-0.3,0.6-0.5,1
			c-0.2,0.6-0.2,1.3,0,1.9c0.1,0.4,0.4,1.2,0.1,1.6s-1.6,0.1-2,0c-0.2,0-0.4-0.2-0.4-0.4c-0.2-0.9-0.1-1.2-0.8-1.9
			c-0.5-0.5-0.8-1.1-1.5-1.4c-0.1-0.1-0.2-0.1-0.3-0.1s-0.3,0.1-0.4,0.2c-1,0.7-2.2,1.2-3.4,1.3c-0.2,0-0.3,0-0.5,0l0,0
			c-0.7-0.2-1.3-0.8-1.2-1.5l0,0c0-0.1,0.1-0.2,0.1-0.3c0.3-0.5,2.2-1.9,1.4-2.7c-0.5-0.4-1.8,0-2.2,0.3s-1.2,1.2-1.7,0.5
			s0.3-1.6-0.5-2.1c-0.2-0.1-0.3-0.2-0.5-0.2c-1.3-0.2-2.7,0.1-3.8,0.9c-0.4,0.4-0.9,0.7-1.4,1c-0.4,0.1-0.8,0.3-1.2,0.5
			c-0.3,0.2-0.5,0.6-0.8,0.8c-1.2,0.6-2.5,0.6-3.7,0.1c0.6-0.8,1.1-1.7,1.6-2.6c0.1-0.2,0.1-0.4,0.1-0.6c-0.1-0.5-0.9-0.6-0.8-1.1
			c0.1-0.2,0.2-0.3,0.3-0.4c0.9-0.6,1.9-1,2.9-1.4c0.9-0.2,1.6-0.6,2.2-1.3c0.1-0.1,0.1-0.2,0.1-0.4c-0.1-0.3-0.4-0.3-0.7-0.3
			c-0.3,0.1-0.5,0.2-0.8,0.2c-0.4-0.1-0.6-0.5-0.5-0.9s0.4-0.7,0.8-0.9c0.3-0.2,0.8-0.3,1.1-0.4c1.1-0.5,2-1.3,2.7-2.3
			c0.4-0.5,0.8-1,1.2-1.4l0.5-0.6c6.1,1.2,11.3,5.1,14,10.6C664.2,98.6,664.6,99.4,664.9,100.2z"/>
		<path class="st88" d="M649.8,109.5c0.4,0.5,1,0.8,1.6,1c0.5,0.2,1,0.6,1.3,1c0.7,0.7,1.5,1.3,2.4,1.7c1.1,0.4,1.7-0.3,2.4-1
			c0.4-0.3,0.7-0.8,1.1-0.4s0.4,1.3,0.4,1.9c0,0.8-0.1,1.6-0.4,2.4c-0.8,1.8-1.3,3.6-1.5,5.6c0,0.9-0.2,1-0.8,1.5
			c-0.8,0.7-1.6,1.4-2.5,2c-0.3,0.1-0.7,0.3-1,0.4c-2.2,0.8-4.5,1.2-6.8,1.2h-0.8c0.4-1.6,1.9-4.6,0.7-6c-0.5-0.5-1.3-0.7-1.9-1
			c-0.4-0.2-0.7-0.6-1-0.9c-0.2-0.3-0.5-0.5-0.8-0.7c-1.1-0.7-1-2.6-2.5-2.6c-0.8,0-1.3,0.2-2.1-0.2c-0.6-0.2-1.1-0.6-1.4-1.2
			c-0.6-0.9-1-1.9-1.2-3c-0.1-1.8,0.2-3.6,1-5.2c0.3-0.7,0.9-1.3,1.7-1.6c1.2-0.3,2.5-0.5,3.8-0.5c0.6-0.1,1.2-0.1,1.8,0
			c1.7,0.5,3.4,0.8,5.2,0.7c0.8-0.1,1.6-0.4,2.3-0.8s1.5-0.6,2.2-1c0.2-0.1,0.3-0.2,0.5-0.2c0.1-0.1,0.3-0.1,0.5,0
			c0.3,0.2,0.3,0.6,0.4,0.9c0.1,0.2,0.2,0.3,0.3,0.5c0.1,0.1,0.2,0.2,0.2,0.3c0.7,0.6,1.5,0.8,2.4,0.8c1.1-0.1,2,1.5,2.1,2.4
			s-1.1,1.3-1.8,1.6c-1.2,0.4-2.6,0.2-3.7-0.5c-0.7-0.6-1.8-1.7-2.8-1.7c-0.9,0-1.6,0.8-1.6,1.7
			C649.5,108.9,649.6,109.3,649.8,109.5z"/>
		<path class="st88" d="M632,121L632,121c-0.7-0.7-1.4-1.4-2-2.2c-1.8-2.4-3.1-5.3-3.7-8.3c0.8,0.2,1.5,0.7,2.1,1.2
			c0.7,0.7,1.3,1.6,2.3,1.7c0.2,0,0.4,0,0.7,0c0.2,0.1,0.3,0.2,0.4,0.4c0.4,0.6,0.6,1.3,0.7,2c0.1,0.7-0.2,1.4-0.7,1.9
			c-0.2,0.2-0.6,0.4-0.7,0.7C630.8,119.3,632.2,120.1,632,121z"/>
		<path class="st88" d="M628.5,103.4l0.2-1.5c0-0.2,0.1-0.4,0.1-0.6c0.2-0.2,0.4-0.5,0.6-0.7c0.2-0.3,0.4-0.6,0.4-1
			c0,0,0-0.1,0.1-0.1c0.1-0.1,0.2,0,0.3,0c0.3,0.3,0.4,0.6,0.2,1c-0.1,0.3-0.2,0.7-0.3,1c-0.1,0.4,0.1,0.7,0.4,0.9
			c0.1,0.1,0.3,0.1,0.4,0.2c0.1,0.1,0.1,0.3,0,0.5s-0.2,0.3-0.3,0.4c-0.2,0.2-0.4,0.3-0.6,0.5c-0.4,0.3-0.9,0.6-1.4,0.7
			s-1.1-0.1-1.4-0.6c-0.1-0.2-0.1-0.5,0-0.7s0.4-0.3,0.6-0.2l0,0c0.1,0.1,0.2,0.2,0.2,0.4c0.1,0.1,0.2,0.2,0.4,0.1
			c0,0,0.1-0.1,0.1-0.2c0.1-0.1,0.1-0.3,0-0.5"/>
		<path class="st88" d="M628.8,100.2c0,0.1,0,0.2-0.1,0.2c-0.1,0.1-0.1,0.1-0.2,0.1s-0.3,0.1-0.3-0.1c0-0.1,0-0.3,0-0.4
			c0-0.3,0-0.5,0-0.8c0-0.1,0.1-0.3,0.2-0.3c0.1,0,0.1,0.1,0.2,0.1c0.1,0.1,0.2,0.3,0.2,0.4s0,0.2,0,0.3S628.8,100,628.8,100.2z"/>
	</g>
	<path class="st14" d="M177.7,671.7L207,671c4.1-0.1,7.3-3.5,7.2-7.6s-3.5-7.3-7.6-7.2l-29.2,0.7c-4.1,0.1-7.3,3.5-7.2,7.6
		S173.6,671.8,177.7,671.7L177.7,671.7z"/>
</g>
<g>
	<path class="st86" d="M203.4,136.6c7.7,0,7.7-12,0-12S195.7,136.6,203.4,136.6z"/>
	<path class="st86" d="M747.9,57.7c4.5,0,4.5-7,0-7S743.4,57.7,747.9,57.7z"/>
	<path class="st86" d="M613,314.5c4.5,0,4.5-7,0-7S608.5,314.5,613,314.5z"/>
	<path class="st86" d="M29.5,462.4c4.5,0,4.5-7,0-7S25,462.4,29.5,462.4z"/>
	<path class="st86" d="M1165.6,199.1c4.5,0,4.5-7,0-7S1161.1,199.1,1165.6,199.1z"/>
	<path class="st86" d="M1196.5,86.9c4.5,0,4.5-7,0-7S1192,86.9,1196.5,86.9z"/>
	<path class="st86" d="M1601.4,350.3c9,0,9-14,0-14S1592.4,350.3,1601.4,350.3z"/>
	<path class="st86" d="M1824.4,30.2c3.2,0,3.2-5,0-5S1821.2,30.2,1824.4,30.2z"/>
	<path class="st86" d="M1826.4,398.8c3.2,0,3.2-5,0-5S1823.1,398.8,1826.4,398.8z"/>
	<path class="st86" d="M1469.3,423.8c3.2,0,3.2-5,0-5S1466.1,423.8,1469.3,423.8z"/>
	<path class="st86" d="M1655.5,406.5c3.2,0,3.2-5,0-5S1652.3,406.5,1655.5,406.5z"/>
	<path class="st86" d="M718.8,262.5c3.2,0,3.2-5,0-5S715.6,262.5,718.8,262.5z"/>
	<path class="st86" d="M876.2,297.1c3.2,0,3.2-5,0-5S873,297.1,876.2,297.1z"/>
	<path class="st86" d="M12.4,41.8c3.2,0,3.2-5,0-5S9.2,41.8,12.4,41.8z"/>
	<path class="st86" d="M169.8,64.8c3.2,0,3.2-5,0-5S166.6,64.8,169.8,64.8z"/>
	<path class="st86" d="M344.5,181.9c3.2,0,3.2-5,0-5S341.3,181.9,344.5,181.9z"/>
	<path class="st86" d="M548,203c3.2,0,3.2-5,0-5S544.8,203,548,203z"/>
	<path class="st86" d="M93,137.8c3.2,0,3.2-5,0-5S89.8,137.8,93,137.8z"/>
</g>
</svg>
