<svg id="Layer_1" data-name="Layer 1" xmlns="http://www.w3.org/2000/svg" viewBox="0 0 350 350"><defs><style>.cls-1{opacity:0.25;}.cls-2,.cls-3{fill:#c6c6c6;}.cls-2,.cls-3,.cls-4,.cls-5{stroke:#000;}.cls-2{stroke-linejoin:round;stroke-width:0.57px;}.cls-3,.cls-4,.cls-5{stroke-miterlimit:10;}.cls-3{stroke-width:0.5px;}.cls-4,.cls-5{fill:#ff3e12;}.cls-5{stroke-width:0.75px;}</style></defs><title>flag</title><g class="cls-1"><path d="M327.29,176.25c1.55-1.7.8-5.37.57-6.52-.88-4.49-5.18-6.83-10.34-7.85a29,29,0,0,0-11.4,0c-9.05,1.73-15.14-1.5-16.35-7.28-.84-4,1.18-9.34,3.82-14.57,1.52-3,3.1-5,2.39-7.19-2.27-7.21-14.47-5.85-25.45-2.79l-.35.1c1.46-1,2.82-2,4.06-2.84,0,0,0,0,0,0L270,130.16l.16,0a1,1,0,0,1-.18.13c-25.1,17.62-80.34,55.93-102.07,70,0,0,0,0,0,0a3.26,3.26,0,0,1-1-1.3,2.74,2.74,0,0,1-.1-1.33c21.52-14.48,77.55-53,102.48-70.1a1.18,1.18,0,0,1,.72-.64c.22,0,.49-.38.26-.36h-.07q12.36-8.62,24.71-17.26c7.77-5.44,15.74-10.84,23.49-16.41,1.63-1.17,3.25-2.36,4.88-3.54a3.75,3.75,0,0,0-.24.79,2.15,2.15,0,0,0,1.67,2.49c-1.81,1.15-3.61,2.33-5.41,3.51L319,96l-.19.13a1.4,1.4,0,0,0,.31.09l.16-.1c7.34,3,14.74,9.83,9.21,20.34-3,5.66-5.52,11.6-4.1,15.71,1.57,4.52,5.48,8.11,10.77,9.71a6.92,6.92,0,0,1,5.12,7.13C340,156.44,335.43,167.32,327.29,176.25Z"/></g><path class="cls-2" d="M174.22,5.63a1.05,1.05,0,0,0-.06.21h0a15.5,15.5,0,0,1-3.9.56,38.77,38.77,0,0,1-4-1.12.16.16,0,0,0,.05-.1,13.84,13.84,0,0,1,7.89.43Z"/><path class="cls-3" d="M173.35,68.73c.38,28.09.43,103.72-1.4,131.77h0a13.59,13.59,0,0,1-3.43.08,8.87,8.87,0,0,1-2.42-.69c.82-27.91,1.56-103.46,1.79-131.47Z"/><path class="cls-3" d="M173.91,6.13c-.21,2.66-.37,5.32-.51,8-1.88,0-3.76.08-5.64.14a.67.67,0,0,0-.67.7H167c-.14-3.18-.29-6.35-.45-9.53a7.36,7.36,0,0,0,1.09.66A8.25,8.25,0,0,0,173.91,6.13Z"/><path class="cls-4" d="M172.94,12.87c14-4.5,35-6.93,46.64,4,6.19,5.79,13.38,11.4,22.17,12.6A62,62,0,0,0,271.38,26a27.29,27.29,0,0,1,18.42-.14c12.49,4.63,25.8,14.79,31.45,26.82-1.08-2.29-8.29-3.79-10.56-4.27-8.78-1.88-18,.36-25.9,4.1a42.55,42.55,0,0,0-13.71,9.56c-7.84,8.6-20.71,11.83-32.11,9.47-8-1.64-14.69-6.42-20.56-11.68-3.41-3.06-4.81-5.5-9.52-6.2-15.39-2.33-27.8,9.08-35.61,20.25C173.32,53,172.9,33.88,172.94,12.87Z"/><path class="cls-5" d="M173.53,12.88c-.72,20.27,0,40.78.11,61.05a5.72,5.72,0,0,1-3.3.51c-.51-.12-3.53-1.47-2.78-2.41.18-.22-.06-.63-.3-.43,0,0,0,0-.08.06q-.06-15.39-.19-30.8c-.08-9.69.15-19.54-.18-29.28C168.69,13,171.44,13.93,173.53,12.88Z"/></svg>