<svg id="Layer_1" data-name="Layer 1" xmlns="http://www.w3.org/2000/svg" viewBox="0 0 350 350"><defs><style>.cls-1{fill:#2e6fff;}.cls-2{fill:#6296f4;}.cls-3{fill:#2a66d1;}.cls-4{fill:#2a6fd3;}.cls-5{fill:#fff;stroke:#000;stroke-miterlimit:10;stroke-width:3.5px;}</style></defs><title>map_neptune</title><g id="Neptune"><path class="cls-1" d="M350.05,175a87,87,0,0,1-.4,10.2c-.4,4.2-.7,8.4-1.1,12.6a176,176,0,0,1-34.3,83.3,181.22,181.22,0,0,1-18.5,20.6A175,175,0,0,1,0,175a171.49,171.49,0,0,1,2.4-29.4A174.23,174.23,0,0,1,21,91.74a180.39,180.39,0,0,1,47.9-56,174.92,174.92,0,0,1,211.8,0,223.79,223.79,0,0,1,17.5,15,159.87,159.87,0,0,1,18.6,22.1,163.41,163.41,0,0,1,11.9,18.9,174.23,174.23,0,0,1,18.6,53.9A139.46,139.46,0,0,1,350.05,175Z"/><path class="cls-2" d="M298.65,50.74H51.85a146.87,146.87,0,0,1,17.5-15.1,174.92,174.92,0,0,1,211.8,0A195.53,195.53,0,0,1,298.65,50.74Z"/><path class="cls-3" d="M329.05,91.74H21.35a179.58,179.58,0,0,1,48-56h211.8a180.57,180.57,0,0,1,17.5,15.1,164.38,164.38,0,0,1,18.5,22A122.77,122.77,0,0,1,329.05,91.74Z"/><path class="cls-4" d="M347.65,145.64H2.55a171.67,171.67,0,0,1,18.6-53.9,145.55,145.55,0,0,1,11.9-18.9h284.2a172.42,172.42,0,0,1,11.9,18.9A176.67,176.67,0,0,1,347.65,145.64Z"/><path class="cls-3" d="M333,251.34c-42,87.2-146.6,123.2-233.8,81.2-24.9-11.9-46.2-29.8-63-51.4A172.25,172.25,0,0,1,18,251.34Z"/><path class="cls-2" d="M314.35,281a181.22,181.22,0,0,1-18.5,20.6,175.33,175.33,0,0,1-247.5-5.9A183,183,0,0,1,35.75,281Z"/><path class="cls-3" d="M295.85,301.74c-67.6,64.4-173.6,64.4-241.5,0Z"/><path class="cls-2" d="M350.05,185.14c-.4,4.2-.7,8.4-1,12.6H193.25v-12.6Z"/><ellipse class="cls-4" cx="200.95" cy="187.64" rx="68.9" ry="26.6"/><ellipse class="cls-3" cx="195.35" cy="188.64" rx="35.7" ry="13.7"/><ellipse class="cls-2" cx="165.65" cy="204.44" rx="19.9" ry="2.1"/><path class="cls-5" d="M199.55,225.44c-7.4,15.8-13.7,26.2-18.6,31.2-6.3,5.9-14.7,8.8-25.9,8.8-10.9,0-18.2-3.2-21.7-10.2-1.8-3.2-2.1-6.7-2.1-10.2l55.3-102.2h-48.3c-14.4,0-21.7-7.7-21.7-22.8,0-8.8,2.5-15.8,7.4-21h92.4c14.4,0,21.4,9.5,21.4,29C237.35,139.34,224.75,171.54,199.55,225.44Z"/></g></svg>