<svg id="Layer_1" data-name="Layer 1" xmlns="http://www.w3.org/2000/svg" viewBox="0 0 350 350"><defs><style>.cls-1{fill:#a5a5a5;}.cls-2{fill:#ccc;}.cls-3{fill:#aaa;}.cls-4{fill:#939393;}.cls-5{fill:#fff;stroke:#000;stroke-miterlimit:10;stroke-width:3.5px;}</style></defs><title>map_moon</title><path class="cls-1" d="M350,175.16c0,96.5-78.3,174.9-174.9,174.9A174.89,174.89,0,0,1,.15,175.16c0-80.8,55.6-151.4,134.3-170a174.15,174.15,0,0,1,87.8,1.7c1.7.3,3.1,1,4.9,1.4,73.1,22.4,122.8,90.3,122.8,166.9Z"/><path class="cls-2" d="M350,175.16a173.14,173.14,0,0,1-39.2,110.2c-3.8.3-8,.3-11.9.3-106.3,0-192.4-82.9-192.4-185a178.73,178.73,0,0,1,28-95.8,174.15,174.15,0,0,1,87.8,1.7c1.7.3,3.1,1,4.9,1.4,73.1,22.7,122.8,90.6,122.8,167.2Z"/><path class="cls-3" d="M157.25,149.26c0,19.6-14.3,35.3-32.2,35.3a31.5,31.5,0,0,1-24.8-12.6,37.07,37.07,0,0,1-7.3-22.4c0-19.6,14.3-35.3,32.2-35.3,12.6,0,23.4,8,29,19.6A46.41,46.41,0,0,1,157.25,149.26Z"/><path class="cls-4" d="M157.25,149.26c0,19.6-14.3,35.3-32.2,35.3a31.5,31.5,0,0,1-24.8-12.6,36.27,36.27,0,0,1-3.5-15.7c0-19.6,14.3-35.3,32.2-35.3a31.5,31.5,0,0,1,24.8,12.6A41.17,41.17,0,0,1,157.25,149.26Z"/><path class="cls-3" d="M69.45,166.36c0,11.5-7.7,21-17.1,21a16,16,0,0,1-13.3-7.3,25.71,25.71,0,0,1-3.8-13.3c0-11.5,7.7-21,17.1-21,6.6,0,12.6,4.5,15.4,11.5A26.31,26.31,0,0,1,69.45,166.36Z"/><path class="cls-4" d="M69.45,166.36c0,11.5-7.7,21-17.1,21a16,16,0,0,1-13.3-7.3,31.09,31.09,0,0,1-1.7-9.4c0-11.5,7.7-21,17.1-21a16.16,16.16,0,0,1,13.3,7.7A25.3,25.3,0,0,1,69.45,166.36Z"/><path class="cls-3" d="M319.45,180.06c0,10.1-7.7,18.5-17.5,18.5a17.69,17.69,0,0,1-13.6-6.6,19,19,0,0,1-4.2-11.9c0-10.1,7.7-18.5,17.5-18.5a17.56,17.56,0,0,1,15.7,10.5C319.15,174.46,319.45,177.26,319.45,180.06Z"/><path class="cls-4" d="M319.45,180.06c0,10.1-7.7,18.5-17.5,18.5a17.69,17.69,0,0,1-13.6-6.6c-1.4-2.4-1.7-5.6-1.7-8.4,0-10.1,7.7-18.5,17.5-18.5a16.92,16.92,0,0,1,13.6,7A15.62,15.62,0,0,1,319.45,180.06Z"/><path class="cls-3" d="M242.15,91.56c0,12.2-9.1,22.4-20.6,22.4a19.41,19.41,0,0,1-15.7-8,24,24,0,0,1-4.9-14.3c0-12.2,9.1-22.4,20.6-22.4a20,20,0,0,1,18.2,12.2A22.91,22.91,0,0,1,242.15,91.56Z"/><path class="cls-4" d="M242.15,91.56c0,12.2-9.1,22.4-20.6,22.4a19.41,19.41,0,0,1-15.7-8,24.7,24.7,0,0,1-2.1-10.1c0-12.2,9.1-22.4,20.6-22.4a19.41,19.41,0,0,1,15.7,8A27.29,27.29,0,0,1,242.15,91.56Z"/><path class="cls-3" d="M226.85,303.86c0,5.9-3.8,10.8-8.4,10.8a7.63,7.63,0,0,1-6.3-3.8,9.73,9.73,0,0,1-1.7-7c0-5.9,3.8-10.8,8.4-10.8,3.1,0,5.9,2.4,7.3,5.9A11,11,0,0,1,226.85,303.86Z"/><path class="cls-4" d="M226.85,303.86c0,5.9-3.8,10.8-8.4,10.8a7.63,7.63,0,0,1-6.3-3.8,11,11,0,0,1-1-4.9c0-5.9,3.8-10.8,8.4-10.8a7.63,7.63,0,0,1,6.3,3.8C226.85,300.36,226.85,302.06,226.85,303.86Z"/><path class="cls-3" d="M222.25,201.36a5.85,5.85,0,0,1-5.9,5.6h0a5.55,5.55,0,0,1-4.5-2.1,4.6,4.6,0,0,1-1.4-3.5,5.85,5.85,0,0,1,5.9-5.6,5.6,5.6,0,0,1,5.2,3.1A6.32,6.32,0,0,1,222.25,201.36Z"/><path class="cls-4" d="M222.25,201.36a5.85,5.85,0,0,1-5.9,5.6h0a5.55,5.55,0,0,1-4.5-2.1,7.28,7.28,0,0,1-.7-2.4,5.85,5.85,0,0,1,5.9-5.6,5.55,5.55,0,0,1,4.5,2.1A5.49,5.49,0,0,1,222.25,201.36Z"/><path class="cls-3" d="M151.25,34.86c0,4.9-4.9,8.7-11.2,8.7a12,12,0,0,1-8.4-3.1,7.08,7.08,0,0,1-2.4-5.6c0-4.9,4.9-8.7,11.2-8.7a11.73,11.73,0,0,1,9.8,4.9A6.74,6.74,0,0,1,151.25,34.86Z"/><path class="cls-4" d="M151.25,34.86c0,4.9-4.9,8.7-11.2,8.7a12,12,0,0,1-8.4-3.1,6.74,6.74,0,0,1-1-3.8c0-4.9,4.9-8.7,11.2-8.7a12,12,0,0,1,8.4,3.1A6.74,6.74,0,0,1,151.25,34.86Z"/><path class="cls-5" d="M141.85,142.26c-5.2,1.7-9.4,2.8-12.9,2.8-5.2,0-9.4-2.4-12.2-7.7a34.31,34.31,0,0,1-3.5-15.4c0-8.4,1.4-14.7,4.2-18.5,11.9-8,31.1-12.2,57-12.2,38.8,0,58.1,17.8,58.1,53.5,0,17.5-8.4,34.6-25.9,50.7-9.4,8.7-18.9,15.7-28,20.3h54.2c3.1,3.8,4.5,9.4,4.5,16.8,0,17.5-11.2,25.9-33.6,25.9h-65.1c-12.9,0-20.3-6.6-22.4-20.3a51.65,51.65,0,0,1,1-20.3c38.5-27.3,58.1-48.6,58.1-64,0-9.4-5.9-14.3-17.8-14.3A48,48,0,0,0,141.85,142.26Z"/></svg>