<svg id="Layer_1" data-name="Layer 1" xmlns="http://www.w3.org/2000/svg" viewBox="0 0 350 350"><defs><style>.cls-1{fill:#dac3a3;}.cls-2{fill:#c0ac87;}.cls-3{fill:#c3a573;}.cls-4{fill:#cda96f;}.cls-5{fill:#b79869;}.cls-6{fill:#dfbb7d;}.cls-7{fill:#9d845d;}.cls-8{opacity:0.59;isolation:isolate;}.cls-9{fill:#c6ac89;}.cls-10{fill:#998665;}.cls-11{fill:#857353;}.cls-12{fill:#a58d66;}.cls-13{fill:#6d5d45;}.cls-14{fill:#fff;stroke:#000;stroke-miterlimit:10;stroke-width:3.5px;}</style></defs><title>map_saturn</title><g id="Layer_3" data-name="Layer 3"><g id="Saturn"><path class="cls-1" d="M281.34,56.57c2.4,2.4,4.5,4.9,7,7.3a158,158,0,0,1-6.6,216.4l-3.5,3.5A158.15,158.15,0,0,1,84.94,302a189,189,0,0,1-19.6-14.7c-2.4-2.1-4.9-4.5-7.3-7a147,147,0,0,1-19.9-24.5,57.6,57.6,0,0,1-4.5-7.7,60.33,60.33,0,0,1-4.2-8,152.7,152.7,0,0,1-10.8-26.9,129.65,129.65,0,0,1-3.8-16.1,158.11,158.11,0,0,1,126.5-184.6,169.94,169.94,0,0,1,41.6-2.1,105.75,105.75,0,0,1,16.1,2.1,156.32,156.32,0,0,1,43,14.7c2.8,1.4,5.2,2.8,8,4.2,2.4,1.4,4.9,3.1,7.7,4.5C265.54,42.57,273.94,49.27,281.34,56.57Z"/><path class="cls-2" d="M198.44,13.57,13.84,198.17a144.67,144.67,0,0,1-2.1-16.1l170.2-170.6C187.64,12.17,192.84,12.87,198.44,13.57Z"/><path class="cls-3" d="M281.34,57.27c2.4,2.4,4.5,4.9,7,7.3,55.2,62.6,52.1,157.3-7,216.4l-3.5,3.5a158.58,158.58,0,0,1-193.3,18.2A189,189,0,0,1,64.94,288c-2.4-2.1-4.9-4.5-7.3-7a147,147,0,0,1-19.9-24.5,57.6,57.6,0,0,1-4.5-7.7,60.33,60.33,0,0,1-4.2-8,152.7,152.7,0,0,1-10.8-26.9l196.7-196.8a152.7,152.7,0,0,1,26.9,10.8c2.8,1.4,5.2,2.8,8,4.2,2.4,1.4,4.9,3.1,7.7,4.5C265.54,43.27,273.94,50,281.34,57.27Z"/><path class="cls-4" d="M281.34,57.27c2.4,2.4,4.5,4.9,7,7.3L64.94,288c-2.4-2.1-4.9-4.5-7.3-7a147,147,0,0,1-19.9-24.5,57.6,57.6,0,0,1-4.5-7.7,60.33,60.33,0,0,1-4.2-8l212.9-213.2c2.8,1.4,5.2,2.8,8,4.2,2.4,1.4,4.9,3.1,7.7,4.5C265.54,43.27,273.94,50,281.34,57.27Z"/><path class="cls-5" d="M256.84,37.37,37.64,256.87a57.6,57.6,0,0,1-4.5-7.7l216.4-216.7C251.94,34.17,254.44,35.57,256.84,37.37Z"/><path class="cls-6" d="M302.94,84.17A158,158,0,0,1,281.24,281l-3.5,3.5a158.58,158.58,0,0,1-193.3,18.2Z"/><path class="cls-7" d="M326,145.37a158.26,158.26,0,0,1-44.4,136l-3.5,3.5A157,157,0,0,1,146,325.77Z"/><path class="cls-8" d="M281.34,57.27c2.4,2.4,4.5,4.9,7,7.3,55.2,62.6,52.1,157.3-7,216.4l-3.5,3.5a222.37,222.37,0,0,0-19.6-71.7,272.06,272.06,0,0,0-31.8-52.1c-4.9-6.3-10.1-12.6-15.7-18.5a387.32,387.32,0,0,0-29.7-29c-2.1-1.7-4.5-3.8-6.6-5.6s-4.5-3.8-6.6-5.6c-7.3-5.6-14.3-11.2-21.7-16.1-4.2-2.8-8-5.6-11.9-8s-7.7-4.9-11.2-7A463,463,0,0,0,73,44a158,158,0,0,1,109.4-32.5,105.75,105.75,0,0,1,16.1,2.1,156.32,156.32,0,0,1,43,14.7c2.8,1.4,5.2,2.8,8,4.2s4.9,3.1,7.7,4.5A246.39,246.39,0,0,1,281.34,57.27Z"/><path class="cls-9" d="M291.44,147.07a791.72,791.72,0,0,1-67.8,76.6,822.81,822.81,0,0,1-76.6,67.8,35.62,35.62,0,0,1-6.3-1.4,25.09,25.09,0,0,1-5.2-1.4,85.67,85.67,0,0,1-9.1-2.8c-1.7-.7-3.8-1.4-5.6-2.1a26.77,26.77,0,0,1-5.9-2.8c-1-.3-1.7-1-2.8-1.4a10.84,10.84,0,0,1-2.4-1.4c-1.4-.7-3.1-1.7-4.5-2.4-1-.7-2.1-1.4-3.1-2.1,27.6-18.5,60.5-46.1,92.6-78.7s60.1-65,78.7-92.6c.7,1,1.4,2.1,2.1,3.1a32.79,32.79,0,0,1,2.4,4.5c.3.7,1,1.7,1.4,2.4s1,1.7,1.4,2.8c1,2.1,1.7,3.8,2.8,5.9.7,1.7,1.4,3.8,2.1,5.6,1,3.1,2.1,5.9,2.8,9.1.3,1.7,1,3.5,1.4,5.2A21.12,21.12,0,0,1,291.44,147.07Z"/><path class="cls-9" d="M341.44,8.37c-10.5-10.5-35-16.4-90.5,16.8-2.1,1.4-4.5,2.8-6.6,4.2a30,30,0,0,1,4.2,2.4l1,.7c1,.7,2.4,1.4,3.5,2.1a31.46,31.46,0,0,1,3.8,2.4,22.66,22.66,0,0,1,2.8,2.1,42.84,42.84,0,0,1,5.2,3.8c1.7,1.4,3.5,2.4,4.9,3.8,18.2-9.8,31.1-14.3,39.2-14.7,3.5-.3,5.9.3,7.3,1.7s1.7,3.8,1.7,7.7c-.7,8-5.2,22-16.1,41.2-1,2.1-2.4,4.2-3.5,6.3-5.2,8.4-10.8,17.5-17.5,26.6-19.9,28.3-46.5,59.1-76.6,89.1s-60.8,56.6-89.1,76.6c-9.1,6.6-18.2,12.2-26.6,17.5-1.7,1-3.5,2.1-5.2,3.1-19.6,11.2-33.6,15.7-41.9,16.4-3.8.3-6.3-.3-7.7-1.7s-1.7-3.8-1.7-7.3c.3-8,4.9-21.3,15-39.9-1.4-1.7-2.8-3.5-3.8-4.9-1.4-1.7-2.4-3.5-3.8-5.2a9.15,9.15,0,0,1-1.7-2.8c-1-1.4-1.7-2.8-2.8-4.2-.7-1-1.4-2.1-2.1-3.1-.3-.3-.3-.7-.7-1a30,30,0,0,0-2.4-4.2c-1.7,2.4-3.1,4.9-4.5,7.3-33.2,55.6-27.3,80.1-16.8,90.5s35,16.4,90.5-16.8c4.2-2.4,8.7-5.2,13.3-8.4,11.2-7.3,23.1-15.7,35-24.8a849.29,849.29,0,0,0,76.6-67.8,808.57,808.57,0,0,0,67.8-76.6c9.4-12.2,17.8-24.1,25.5-35.7,2.8-4.2,5.2-8.4,7.7-12.6C357.84,43.27,352.24,18.77,341.44,8.37Z"/><path class="cls-10" d="M338.64,10.77c-9.8-9.8-32.9-14.7-87,18.5l-3.1,2.1,1,.7c1,.7,2.4,1.4,3.5,2.1a31.46,31.46,0,0,1,3.8,2.4,22.66,22.66,0,0,1,2.8,2.1,42.84,42.84,0,0,1,5.2,3.8c1.7,1.4,3.5,2.4,4.9,3.8.7.3,1,1,1.7,1.4,24.1-13.3,38.5-15.7,42.3-12.2,3.5,3.5.7,18.9-13.3,44.4-1.7,2.8-3.1,5.9-5.2,8.7a265.89,265.89,0,0,1-15.7,23.4c-20.3,28.3-46.8,59.4-77.3,89.8s-61.5,57.3-89.8,77.6c-8,5.9-16.1,11.2-23.4,15.7-2.8,1.7-5.6,3.1-8,4.9-25.9,14.7-41.2,17.8-45.1,14s-1-18.5,12.6-43c-.3-.7-1-1-1.4-1.7-1.4-1.7-2.8-3.5-3.8-4.9-1.4-1.7-2.4-3.5-3.8-5.2a9.15,9.15,0,0,1-1.7-2.8c-1-1.4-1.7-2.8-2.8-4.2-.7-1-1.4-2.1-2.1-3.1-.3-.3-.3-.7-.7-1a31.46,31.46,0,0,1-2.4,3.8c-33.2,54.2-28.3,77.3-18.5,87s32.9,14.7,87-18.5c3.1-1.7,5.9-3.8,9.1-5.9,10.8-7,22.4-15,33.9-24.1a835.78,835.78,0,0,0,79-69.9c25.2-24.8,48.2-51.4,69.9-79,9.1-11.9,17.5-23.4,24.5-34.6,1.7-2.8,3.5-5.6,5.2-8.4C353.34,44,348.44,20.57,338.64,10.77Z"/><path class="cls-11" d="M332.74,17.07c-9.1-9.1-30.1-13.3-80.1,17.1a31.46,31.46,0,0,1,3.8,2.4,22.66,22.66,0,0,1,2.8,2.1,42.84,42.84,0,0,1,5.2,3.8c1.7,1.4,3.5,2.4,4.9,3.8.7.3,1,1,1.7,1.4.7.7,1.7,1.4,2.4,2.1,19.6-10.5,31.5-12.2,34.6-9.4,3.1,3.1,1,15.7-10.1,36.4-2.4,4.2-5.2,9.1-8.4,14.3-3.8,5.9-7.7,11.9-12.2,18.2-19.9,28.3-46.8,59.8-77.6,90.5s-62.2,57.7-90.5,77.6c-6.3,4.5-12.2,8.4-18.2,12.2a152.61,152.61,0,0,1-13.3,7.7c-21.3,11.5-33.9,14-37.4,10.8s-1-15.4,9.8-35.3c-.7-.7-1.4-1.7-2.1-2.4-.3-.7-1-1-1.4-1.7-1.4-1.7-2.8-3.5-3.8-4.9-1.4-1.7-2.4-3.5-3.8-5.2a9.15,9.15,0,0,1-1.7-2.8c-1-1.4-1.7-2.8-2.8-4.2-30.8,50.3-26.6,71.7-17.5,80.7s31.1,13.3,82.8-18.9a8.86,8.86,0,0,0,2.4-1.7c10.8-6.6,22-14.7,33.6-23.4a801.48,801.48,0,0,0,81.4-71.7,838.47,838.47,0,0,0,71.7-81.4,414.09,414.09,0,0,0,23.8-34.3c.3-.7.7-1,1-1.7C346.34,48.17,342.14,26.17,332.74,17.07Z"/><path class="cls-12" d="M323.94,25.77c-7.3-7.3-24.5-10.5-64,12.9a42.84,42.84,0,0,1,5.2,3.8c1.7,1.4,3.5,2.4,4.9,3.8.7.3,1,1,1.7,1.4.7.7,1.7,1.4,2.4,2.1a30.25,30.25,0,0,1,3.8,3.5c13.3-6.3,21-7.7,23.4-5.2s1,10.8-5.9,24.5a205.79,205.79,0,0,1-12.6,22c-2.1,3.5-4.5,7-7,10.5-19.6,28-46.8,60.1-78.7,91.6-31.5,31.5-63.6,59.1-91.6,78.7-3.5,2.4-7,4.9-10.5,7a184.7,184.7,0,0,1-21,12.2c-14.3,7.3-23.1,8.7-25.5,6.3s-1-10.5,5.6-24.1a45,45,0,0,1-3.5-3.8c-.7-.7-1.4-1.7-2.1-2.4-.3-.7-1-1-1.4-1.7-1.4-1.7-2.8-3.5-3.8-4.9-1.4-1.7-2.4-3.5-3.8-5.2-23.8,40.2-21,57.7-13.6,65,7.7,7.7,25.5,10.5,68.5-15.7,2.4-1.4,4.9-3.1,7.3-4.5,8-5.2,16.4-11.2,25.2-17.5,26.9-19.9,55.9-45.8,84.6-74.5A860.59,860.59,0,0,0,286,127c6.6-8.7,12.2-17.1,17.5-25.2,1.7-2.8,3.5-5.6,5.2-8C334.44,51,331.34,33.17,323.94,25.77Z"/><path class="cls-13" d="M318,41.17a14.88,14.88,0,0,0-9.1-9.4c-7.7-2.8-21-1.7-44,10.8,1.7,1.4,3.5,2.4,4.9,3.8.7.3,1,1,1.7,1.4.7.7,1.7,1.4,2.4,2.1a30.25,30.25,0,0,1,3.8,3.5l3.1,3.1.3.3c6.3-2.1,10.1-2.4,11.5-1s1.4,5.6-1,12.2c-2.8,7.3-8,17.8-16.8,30.8l-1.7,2.8c-18.5,27.6-46.1,60.5-78.7,92.6s-64.7,60.8-92.3,79.4l-2.8,1.7c-12.6,8.4-22.7,13.6-30.1,16.4s-11.9,3.1-13.3,1.4c-1.4-1.4-1.4-5.6,1.4-12.6l-.3-.3a38.43,38.43,0,0,0-3.5-3.5,45,45,0,0,1-3.5-3.8c-.7-.7-1.4-1.7-2.1-2.4-.3-.7-1-1-1.4-1.7-1.4-1.7-2.8-3.5-3.8-4.9-12.9,23.8-14,37.1-11.2,45.1a14.47,14.47,0,0,0,9.4,9.1c8,2.8,22.4,1,47.5-12.9,5.2-2.8,10.8-6.3,16.8-10.1,5.2-3.5,10.5-7,15.7-10.8,26.9-19.6,57.3-45.8,87-75.5s55.9-59.8,75.5-87c3.8-5.2,7.3-10.5,10.8-15.7,4.2-6.3,7.7-12.2,10.8-17.8C319,63.17,320.84,49.27,318,41.17Z"/></g><path class="cls-14" d="M160.34,152a89.53,89.53,0,0,1,34.6.3q34.65,7.8,34.6,43.3c0,16.8-5.9,30.4-17.5,40.9-12.2,10.5-28.3,15.7-49.3,15.7q-53.55,0-53.5-28.3c0-11.2,4.2-17.5,12.9-19.9a88.24,88.24,0,0,0,35,7.3c14.3,0,21.7-4.2,21.7-12.9,0-5.6-4.2-9.4-12.2-11.9-8.4-2.1-25.5-4.2-51.7-5.9l3.1-85.3a11.17,11.17,0,0,1,11.5-10.8h84.2a11.23,11.23,0,0,1,10.8,7.7c1.4,4.2,1.7,9.1,1.7,14.7,0,15.4-7.7,23.1-23.4,23.1-13.3,0-27.3-.3-41.9-1.4Z"/></g></svg>