<svg id="Layer_1" data-name="Layer 1" xmlns="http://www.w3.org/2000/svg" viewBox="0 0 350 350"><defs><style>.cls-1{fill:#bc3a06;}.cls-2{fill:#ff5200;}.cls-3{fill:#bc3004;}.cls-4{fill:#d03800;}.cls-5{fill:#fff;stroke:#000;stroke-miterlimit:10;stroke-width:3.5px;}</style></defs><title>map_mars</title><g id="Mars"><path class="cls-1" d="M350.28,175.2c0,96.7-78.5,174.8-175.2,174.8S.28,271.5.28,174.8,78.78,0,175.48,0a177.84,177.84,0,0,1,46.9,6.3c1.8.4,3.2,1.1,4.9,1.4a175.77,175.77,0,0,1,123,167.5Z"/><path class="cls-2" d="M348.48,152.5c-11.9,102-94.6,182.9-199.3,196.2-95.7-14.4-161.9-103.4-147.5-199s103.4-161.9,199-147.5a150.61,150.61,0,0,1,21.4,4.6c1.8.4,3.2,1.1,4.9,1.4a174.08,174.08,0,0,1,121.5,144.3Z"/><path class="cls-3" d="M185.28,110.4c0,19.6-14.4,35.4-32.2,35.4a31.84,31.84,0,0,1-24.9-12.6,37.6,37.6,0,0,1-7.4-22.4c0-19.6,14.4-35.4,32.2-35.4,12.6,0,23.5,8.1,29.1,19.6A36.9,36.9,0,0,1,185.28,110.4Z"/><path class="cls-4" d="M185.28,110.4c0,19.6-14.4,35.4-32.2,35.4a31.84,31.84,0,0,1-24.9-12.6,35,35,0,0,1-3.5-15.8c0-19.6,14.4-35.4,32.2-35.4a31.84,31.84,0,0,1,24.9,12.6A35.76,35.76,0,0,1,185.28,110.4Z"/><path class="cls-3" d="M101.18,262.1c0,15.1-9.8,27.3-22.4,27.3-7,0-13-3.9-17.2-9.8a31.3,31.3,0,0,1-5.3-17.5c0-15.1,9.8-27.3,22.4-27.3,8.8,0,16.1,6.3,20,15.1A28.39,28.39,0,0,1,101.18,262.1Z"/><path class="cls-4" d="M101.18,262.1c0,15.1-9.8,27.3-22.4,27.3-7,0-13-3.9-17.2-9.8a29.14,29.14,0,0,1-2.5-12.3c0-15.1,9.8-27.3,22.4-27.3,7,0,13,3.9,17.2,9.8A29.14,29.14,0,0,1,101.18,262.1Z"/><path class="cls-3" d="M69,166.5c0,11.6-7.7,21-17.2,21a15.73,15.73,0,0,1-13.3-7.4,23,23,0,0,1-3.9-13.3c0-11.6,7.7-21,17.2-21,6.7,0,12.6,4.6,15.4,11.6A25,25,0,0,1,69,166.5Z"/><path class="cls-4" d="M69,166.5c0,11.6-7.7,21-17.2,21a15.73,15.73,0,0,1-13.3-7.4,29,29,0,0,1-1.8-9.5c0-11.6,7.7-21,17.2-21a16.26,16.26,0,0,1,13.3,7.7A26,26,0,0,1,69,166.5Z"/><path class="cls-3" d="M334.88,153.2c0,23.8-12.6,43.1-28.4,43.1-8.8,0-16.5-6-21.7-15.4a56.85,56.85,0,0,1-6.7-27.3c0-23.8,12.6-43.1,28.4-43.1,11.2,0,20.7,9.5,25.2,23.8A56,56,0,0,1,334.88,153.2Z"/><path class="cls-4" d="M334.88,153.2c0,23.8-12.6,43.1-28.4,43.1-8.8,0-16.5-6-21.7-15.4a60.1,60.1,0,0,1-3.2-19.3c0-23.8,12.6-43.1,28.4-43.1,8.8,0,16.5,6,21.7,15.4A60.1,60.1,0,0,1,334.88,153.2Z"/><path class="cls-3" d="M232.58,298.6c0,9.1-4.9,16.5-11.2,16.5-3.5,0-6.7-2.5-8.4-6a18.78,18.78,0,0,1-2.5-10.5c0-9.1,4.9-16.5,11.2-16.5,4.2,0,8.1,3.9,9.8,9.1A27.07,27.07,0,0,1,232.58,298.6Z"/><path class="cls-4" d="M232.58,298.6c0,9.1-4.9,16.5-11.2,16.5-3.5,0-6.7-2.5-8.4-6a27.07,27.07,0,0,1-1.1-7.4c0-9.1,4.9-16.5,11.2-16.5,3.5,0,6.7,2.5,8.4,6A27.07,27.07,0,0,1,232.58,298.6Z"/><path class="cls-3" d="M179.28,254.1c0,20-13,36.4-29.4,36.4-9.1,0-17.2-5.3-22.4-13a40,40,0,0,1-6.7-23.5c0-20.3,13-36.4,29.4-36.4,11.6,0,21.4,8.1,26.3,20A52.93,52.93,0,0,1,179.28,254.1Z"/><path class="cls-4" d="M179.28,254.1c0,20-13,36.4-29.4,36.4-9.1,0-17.2-5.3-22.4-13a44.84,44.84,0,0,1-3.2-16.5c0-20.3,13-36.4,29.4-36.4,9.1,0,17.2,5.3,22.4,13.3A41.42,41.42,0,0,1,179.28,254.1Z"/><path class="cls-3" d="M249.68,222.2c0,14.4-8.8,25.9-19.6,25.9-6,0-11.6-3.5-15.1-9.5a30.81,30.81,0,0,1-4.6-16.8c0-14.4,8.8-25.9,19.6-25.9,7.7,0,14.4,6,17.5,14.4A33,33,0,0,1,249.68,222.2Z"/><path class="cls-4" d="M249.68,222.2c0,14.4-8.8,25.9-19.6,25.9-6,0-11.6-3.5-15.1-9.5a33.88,33.88,0,0,1-2.1-11.6c0-14.4,8.8-25.9,19.6-25.9,6,0,11.6,3.5,15.1,9.5A32.24,32.24,0,0,1,249.68,222.2Z"/><path class="cls-3" d="M227.28,8.1a180.71,180.71,0,0,1,29.4,12.3c-.4,10.9-9.1,19.6-20,19.3s-19.6-9.1-19.3-20a18.14,18.14,0,0,1,5.3-13Z"/><path class="cls-4" d="M256.68,20c1.8,10.2-5.3,19.6-15.4,21.4s-19.6-5.3-21.4-15.4a18.58,18.58,0,0,1,7.4-17.9A179.1,179.1,0,0,1,256.68,20Z"/><path class="cls-3" d="M97.68,39.6c0,3.9-4.2,7-9.1,7a10.4,10.4,0,0,1-7-2.5,5.74,5.74,0,0,1-2.1-4.6c0-3.9,4.2-7,9.1-7a10,10,0,0,1,8.1,3.9A7,7,0,0,1,97.68,39.6Z"/><path class="cls-4" d="M97.68,39.6c0,3.9-4.2,7-9.1,7a10.4,10.4,0,0,1-7-2.5,5.88,5.88,0,0,1-1.1-3.2c0-3.9,4.2-7,9.1-7,2.5,0,5.3.7,7,2.5A6.15,6.15,0,0,1,97.68,39.6Z"/><path class="cls-5" d="M126.78,172.4c0-7,3.2-12.6,9.5-16.8,6-3.9,22.4-11.6,49.4-23.1h-50.8c-14.4,0-21.7-7.7-21.7-22.8,0-5.3.7-9.8,2.5-13.7a12.73,12.73,0,0,1,11.6-7.4h84.1c5.3,0,10.2,2.5,14.4,7.7,4.6,6,6.7,13,7,21.7q0,16.8-8.4,27.3c-6.3,7.7-17.5,14.7-33.6,21.4,15.4,1.8,26.6,5.6,33.3,11.6s10.2,15.1,10.2,27.3c0,16.5-6,29.1-18.6,37.8-12.3,8.8-29.1,13-50.8,13-16.1,0-28.7-2.5-38.2-7.7s-14-12.6-14-22.1c0-11.9,3.9-18.9,11.2-21,12.3,6.7,24.5,10.2,36.1,10.2,15.8,0,23.8-4.2,23.8-13,0-4.6-3.5-7.7-10.9-9.5-6.7-1.4-18.9-2.1-36.4-2.1C129.88,187.5,126.78,181.2,126.78,172.4Z"/></g></svg>