<svg id="Layer_1" data-name="Layer 1" xmlns="http://www.w3.org/2000/svg" viewBox="0 0 350 350"><defs><style>.cls-1{fill:#ff4217;}.cls-2{fill:#ff6217;}.cls-3{fill:#ff8117;}.cls-4{fill:#f9a62d;}.cls-5{fill:#992516;}.cls-6{fill:#d83419;}.cls-7{opacity:0.4;isolation:isolate;}.cls-8{fill:#fff;stroke:#000;stroke-miterlimit:10;stroke-width:3.5px;}</style></defs><title>map_venus</title><g id="Venus"><path class="cls-1" d="M350,175c0,96.6-78.4,175-175,175A175.38,175.38,0,0,1,35,280h0a195.18,195.18,0,0,1-16.4-26.3c-2.4-4.9-4.6-9.8-6.7-14.7-2.4-6.7-4.9-13.3-6.7-20.3a107.63,107.63,0,0,1-3.1-15.4A192.53,192.53,0,0,1,0,175v-.4a197.84,197.84,0,0,1,2.8-31.8A175.24,175.24,0,0,1,172.9,0h1.8C271.6,0,350,78.4,350,175Z"/><path class="cls-2" d="M329.4,205.8c0,5.6-2.8,11.6-7.7,13.7-2.5,1-4.9,1-7.4,2.1-6.6,2.8-8,10.9-11.2,17.5-1.8,3.5-3.5,6.3-7,8.1-8.4,4.2-17.9-4.2-27.3-4.2-10.8,0-20.3,10.8-30.8,8.4-4.2-1.1-7.7-3.9-11.9-5.6-4.9-1.8-10.5-1.1-15.8-2.1-5.2-.7-11.2-3.5-12.2-8.8-.4-2.1,0-4.2-.7-5.9a10,10,0,0,0-3.8-4.6,21.91,21.91,0,0,0-30.8,4.6,22.58,22.58,0,0,0-3.1,20.6c4.6,12.6,18.9,18.2,32.2,21a168,168,0,0,0,44.1,2.8c7-.4,14.3-1.4,21,1.8,3.1,1.4,6,3.9,9.1,4.9,5.2,1.4,10.5-.7,15.4-3.1a17.62,17.62,0,0,1-8.8,21c-8.4,3.8-18.2.7-27.3,3.1-6,1.4-10.9,5.6-15.8,9.1-12.6,9.1-27.3,17.1-43.1,16.4s-31.5-12.2-32.2-28c0-3.5.3-7.3-1.8-10.1-3.9-4.9-11.6-1.8-17.2,1.1a48.7,48.7,0,0,1-37.1,1,6.35,6.35,0,0,1-3.5-2.4,4.13,4.13,0,0,1-.7-3.5c.7-10.5,12.6-15.4,20.3-22.8,3.8-3.9,7-10.5,3.2-14.7-3.2-3.5-8.8-2.8-12.9-.7-4.2,2.4-7.3,5.6-11.9,7.3s-10.5.4-11.9-4.2c-4.2.7-7.3,4.6-8.4,8.8s-.3,8.4.3,12.6c2.1,12.9,5.6,27.6,16.8,34.6,5.9,3.5,13.3,4.6,19.9,6.6s13.7,6.3,15.1,13.3a49.69,49.69,0,0,1-30.8-7.4c-4.2-2.4-8.8-5.9-13.3-4.5-2.1.7-3.8,2.1-5.9,3.1-.3.4-1.1.4-1.4.7a170.44,170.44,0,0,1-38.5-37.8h0a195.18,195.18,0,0,1-16.4-26.3c-2.4-4.9-4.6-9.8-6.7-14.7a18.48,18.48,0,0,1,1.4-1.4,169.85,169.85,0,0,1,27.3-21.3c4.2-2.8,8.8-6.3,8.1-11.2-.7-4.2-5.2-6.3-9.4-5.9s-7.7,2.8-10.8,5.2c-5.6,3.8-11.6,8.1-17.2,11.9A13.19,13.19,0,0,1,6,218.3H5.6a110.48,110.48,0,0,1-3.1-15.4A192.86,192.86,0,0,1,.4,174.5v-.3a197.84,197.84,0,0,1,2.8-31.8H4.3a5.42,5.42,0,0,1,3.5,1.1c1.8,1,2.4,3.5,3.5,5.6,3.5,5.9,11.2,7.3,17.8,7s13.7-2.1,19.9-.4a7.68,7.68,0,0,1,4.9,3.5c1.1,2.1,0,4.6,0,6.7,0,4.2,3.5,8.1,7.7,9.5s8.4,1,12.9,1c2.8-.3,5.9-.7,7.7-2.8,3.2-3.9-.3-9.5-4.2-12.6s-8.4-7-7.7-11.5c1.1-7,11.9-9.1,12.6-16.1.7-8.8-14-9.1-18.2-16.8-2.1-3.8-.7-8.8,2.1-12.2s7-5.2,10.8-7a48.65,48.65,0,0,1,22.8,48.7c-.3,2.4-1.1,4.9-.3,7.3a12.74,12.74,0,0,0,3.8,5.6c14,12.6,38.8,10.5,50.1-4.6a14,14,0,0,0,2.8-5.9c.7-5.9-4.9-10.2-10.5-12.2-3.1-1-6.3-2.1-9.4-3.2a14.13,14.13,0,0,1-5.2-3.1h0a11.41,11.41,0,0,0-1.1-1.1c-5.9-6.7-3.2-17.1.7-25.2s7.7-17.5,3.8-25.2c-3.2-6.3-10.8-9.8-11.9-16.8-1.1-5.9,5.2-12.2,11.2-11.2,6.7,1,10.5,8.7,11.2,15.7,0,1.4.4,2.8.4,3.8.3,5.6,0,11.2,2.4,16.4.7,1,1.4,2.5,2.1,3.5,2.1,3.5,4.6,6.7,4.2,10.5-.3,3.2-2.1,7-.7,9.5,0,.3.4.3.4.3a8.91,8.91,0,0,0,3.8,1.8l1.8.3c6.3,1.1,13.3,2.1,18.9-1,3.5-1.8,5.9-5.2,9.1-7.7,7.7-5.9,17.8-7.3,27.3-6.3,9.4,1.4,18.6,5.2,27.3,9.1a12.15,12.15,0,0,1,5.6,3.5c1.8,1.8,2.4,4.2,3.5,6.6,5.2,11.2,16.8,17.8,27.7,23.8a12.39,12.39,0,0,0,6,1.8,2,2,0,0,0,1.4-.4c1.8-.7,3.5-2.1,5.2-2.8,4.9-2.5,10.5-.3,13,4.5,2.1,4.6.7,10.2-3.9,12.6a16.94,16.94,0,0,1-9.1,1.8h-1.4c-12.9-1.4-25.2-7-38.1-10.2-.7,0-1.4-.3-2.1-.3h0c-12.2-2.5-26.2-1.8-35.3,7.3-4.9,4.9-9.1,11.9-15.8,11.5a18.19,18.19,0,0,0,10.5,23.5,19.73,19.73,0,0,0,9.1,1,23.53,23.53,0,0,0,5.2-1.4c4.6-2.1,8.1-6,12.6-8.1a23.29,23.29,0,0,0,2.8-1.1c9.8-2.4,20.7,2.5,30.8,2.5,9.1,0,18.5-4.2,26.9-3.5a14.27,14.27,0,0,1,6.7,2.1c6.6,3.5,12.2,11.9,19.2,9.4A26,26,0,0,1,329.4,205.8Z"/><path class="cls-3" d="M309.8,205.4a46.41,46.41,0,0,1-6.6,9.4,59,59,0,0,1-24.5,15.1c-13,4.2-27,4.6-40.2,4.6-4.9,0-10.2,0-14.7-2.1-4.9-2.4-8.4-7-12.2-10.8-13.3-12.2-35.3-13.7-50.1-3.5a62.82,62.82,0,0,0-6.7,5.9c-4.6,5.9-5.2,14.3-3.8,21.7s4.9,14.3,8.4,21.3a18.52,18.52,0,0,0,4.2,6,19.18,19.18,0,0,0,7.7,2.8l26.2,5.2c12.6,2.5,26.2,5.6,34.3,15.4a23.27,23.27,0,0,1-19.9,8c-3.9-.3-7.7-1.8-10.9-.3-4.2,1.8-6.3,6.3-10.1,8.8-4.2,2.4-9.4,1.4-13.7-1.1a23.27,23.27,0,0,1-10.8-13.6c-1.1-3.5-1.4-7-2.8-10.2-3.8-8-14.3-10.1-23.4-9.4-8.8.7-17.8,3.5-26.6,1.4,5.6-5.6,11.2-11.2,14.7-18.2s4.6-15.7.3-22.4c-15.1-7-32.6-14.3-48.3-8.4-2.1.7-4.6,2.1-7,1.8-5.2-.3-9.1-5.9-14.3-5.6a57.13,57.13,0,0,0-3.8,19.9A54.91,54.91,0,0,0,65,279.7c2.1,2.8,4.2,5.2,5.2,8.4a8.63,8.63,0,0,1-2.1,9.1,7.85,7.85,0,0,1-5.6,1.1C51.4,297.2,44.1,286.7,36,279h0a195.18,195.18,0,0,1-16.4-26.3A37.53,37.53,0,0,1,29.8,245c5.3-2.8,11.6-5.2,13.7-11.2,1.1-2.4,1.1-4.9,1.8-7.3,1.8-4.5,5.9-7,9.1-10.5s5.2-9.1,2.1-12.6c-1.4-1.1-2.8-2.1-4.2-3.2-2.1-1.8-3.2-3.8-4.6-5.9a24.48,24.48,0,0,0-2.4-2.8,17.94,17.94,0,0,0-17.2-3.8c-5.2,1.4-9.1,5.2-13.3,8.4-.7.7-1.4,1-2.1,1.8a29.75,29.75,0,0,1-9.1,4.5A192.86,192.86,0,0,1,1.5,174v-.3c.4-1.4.7-2.4,1.1-3.8,1.4-5.6,2.8-11.2,4.2-16.5a32.5,32.5,0,0,0,23.8,9.5,10.5,10.5,0,0,1,5.6.7c1.8.7,2.8,3.5,1.4,4.9-1.1,1.1-2.8.7-3.8.7-4.2-.7-8.8-1-12.9.4-3.8,1.4-7.3,4.5-7.3,8.8,5.9-4.2,11.9-4.2,18.9-2.8a103.33,103.33,0,0,1,11.9,3.2A28.91,28.91,0,0,1,57,187.2a21.69,21.69,0,0,0,3.5,3.9,10.06,10.06,0,0,0,6.3,1h6.3l10.5-.3a14.11,14.11,0,0,0,5.9-1.1c3.2-1.8,3.8-5.6,4.2-9.1.3-3.8,1.1-7.7-.3-11.2-2.1-5.2-8.4-8.1-9.8-13.7-1.1-4.9,2.1-9.4,4.9-13.7s4.6-9.8,1.4-13.6c3.8-.7,6.3,4.5,5.9,8.4-.7,3.9-2.8,7.7-3.2,11.6,0,4.6,3.2,8.8,6.7,11.9a61,61,0,0,0,44.8,16.8,45.39,45.39,0,0,0,13.6-2.1c3.5-1.1,6.7-2.4,8.8-5.2,0-.3.4-.3.4-.7a21,21,0,0,0,2.1-7c1.4-8.1,2.8-17.5-1.8-24.2h0c0-.3-.3-.3-.3-.7a20.66,20.66,0,0,0-7.4-6h0a40.59,40.59,0,0,0-6.3-2.4c-4.2-1.4-8.1-2.8-11.9-4.5a8,8,0,0,1-3.8-3.2c-1.1-2.5.3-5.2,1.4-7.7a21.16,21.16,0,0,1,1.1-2.1,47.11,47.11,0,0,0,2.1-29.4c-1.1-3.8-2.1-8,0-10.8a8.12,8.12,0,0,1,6.7-2.5,4,4,0,0,1,2.1.4c3.9.7,7.7,1.8,9.8,4.9,2.4,2.8,2.4,6.3,2.1,10.2-1.1,5.6-3.8,11.9-3.8,17.5h0a11.32,11.32,0,0,0,1.4,6,9.25,9.25,0,0,0,2.8,3.5c3.5,3.1,8.8,4.6,13.7,5.6,9.1,1.8,18.6,3.8,27.6,2.1,5.2-1,10.2-2.8,15.4-3.5a28,28,0,0,1,14,1.4h0a11.67,11.67,0,0,1,3.5,1.4h0a38.92,38.92,0,0,1,10.5,7.3c2.8,3.2,5.2,7,8.8,9.4,4.9,3.5,10.8,3.9,16.4,6,7.7,3.1,14,10.5,20.7,15.4a8.53,8.53,0,0,1,2.1,1.4,23.17,23.17,0,0,0,9.8,3.2c-.3,3.8-3.1,6.7-6.6,8a18.77,18.77,0,0,1-13-.3c-7.3-3.5-12.9-10.2-20.3-14a28,28,0,0,0-33.2,7.7c-3.1,3.8-4.5,10.5-.3,12.9,1.8,1.1,4.2,1.1,6.3,1.4a15.22,15.22,0,0,1,4.2,1.8c4.9,3.8,7,11.9,3.5,17.1-3.2,4.6-9.1,6.7-10.8,11.9-1.8,4.9,1.4,10.5,6.3,12.6a22.41,22.41,0,0,0,15.1.7,42,42,0,0,0,16.4-8.1c3.2-2.4,6-5.2,9.5-7,6.6-3.2,16.8-2.1,19.6-9.1l2.1,1.1,6.6,2.8a3.56,3.56,0,0,1,1.8,1.4C310.5,203.7,310.5,204.7,309.8,205.4Z"/><path class="cls-4" d="M45.2,250.6c2.8-3.2,5.9-6.7,6.7-10.9,1.1-4.9-.7-11.2,3.5-14,1.8-1.1,3.8-1.1,5.9-1.1a131.49,131.49,0,0,0,48.3-6.7,15.78,15.78,0,0,1,5.6-1c7,.3,9.4,10.1,15.7,12.6,2.1,1.1,5.2,1.1,6.7,2.8a6.06,6.06,0,0,1,1.1,3.5,51.58,51.58,0,0,1-4.6,26.2c-1.4,3.1-3.2,7.4-.3,9.8,4.2,3.8,11.2-4.6,16.1-2.1-3.2-8.8-6.3-17.8-7-27.3s1.4-19.2,7.7-26.2c5.9-6.7,15.1-9.8,23.8-12.2,8.1-2.1,17.8-3.8,24.2,1.4a53.31,53.31,0,0,0,4.9,4.2c2.4,1.4,4.9,1.4,7.7,1.8a23,23,0,0,1,13.7,8.4c0-6,.7-13,5.6-15.8a5,5,0,0,0,2.4-1.8c1.4-2.1-1-4.6-3.1-5.6A131.45,131.45,0,0,1,214.7,185c-3.5-3.2-6.7-6.7-7-11.2-.3-5.6,3.5-10.2,7.3-14.4,4.2-4.2,8.4-8.8,14-10.5,7.7-2.5,16.5.3,24.5-2.1-6.7-4.2-14-9.8-14.7-17.5-.3-2.4.3-5.2-.7-7.3-1.8-3.5-6.6-4.2-10.5-3.2-3.8,1.4-6.6,4.2-9.8,6.3-6.7,4.6-14.7,6.7-22.8,7a51.2,51.2,0,0,1-28.7-7.7c-5.9-3.5-11.9-10.2-10.2-16.8,1.1-4.2,4.6-7,6.7-10.5s2.8-9.1-1.1-11.2c-3.5-2.1-8.1,1.4-9.8,5.2-1.4,3.9-1.4,8.4-3.2,12.2-2.4,5.2-7.7,8.4-11.9,12.2s-7,10.8-3.5,15.4c2.8,3.5,8.4,3.5,12.6,2.1,2.4-.7,4.9-2.1,7.7-1.4a11.28,11.28,0,0,1,5.9,3.5c6.3,5.6,14,11.9,22.4,10.8,2.8,11.9-6.7,24.8-18.6,26.2-4.2.3-8.8-.3-12.9,1.1-10.8,3.8-11.9,20.6-22.8,24.5-3.2,1-6.3,1-9.4,1.4-8.4,1.1-15.8,5.2-24.2,6.7-8.1,1.4-18.6-1.1-21.3-8.8-1.1-2.4-1.1-5.2-1.8-7.7-1.8-5.2-7-8.8-12.6-10.2-5.6-1.1-11.2,0-16.4,1.4a108.73,108.73,0,0,0-29.4,12.2,3.34,3.34,0,0,0-1.7,1.8c-1.1,1.8,0,4.2,1.7,5.6,3.8,2.4,9.1,1.4,13.3-.7s8.1-5.2,12.6-6c7-1.4,13.7,2.5,19.6,6.3,4.6,2.8,9.4,6.6,8.8,11.9-1.1,8.4-15.1,8.4-18.6,16.1-1.1,2.4-1.1,4.9-1.4,7.7-.7,5.9-4.6,8.4-6.7,13.7C36.8,253.4,40.6,255.5,45.2,250.6Z"/><path class="cls-5" d="M81.9,55.6c3.5-1.4,6.7-2.8,9.1-5.6a21.69,21.69,0,0,1,3.5-3.9,8.1,8.1,0,0,1,4.9-.7,34.9,34.9,0,0,1,11.9,3.1,9.16,9.16,0,0,1,3.5,2.4,6.7,6.7,0,0,1,0,5.2C112,62.6,105,66.1,98,67.2c-3.2.3-6.3.3-9.1,2.1A30.1,30.1,0,0,0,84,73.8c-1.8,1.8-3.5,3.5-5.2,4.9-2.1,1.8-4.9,3.1-7.3,2.1-5.2-1.8-3.8-9.5-2.4-13.6C71.1,60.9,75.6,58.5,81.9,55.6Z"/><path class="cls-5" d="M265,67.5c3.5,1.8,6.3,4.9,9.4,7.3,4.6,3.5,10.5,4.5,15.1,8,3.8,3.2,6.6,7.4,10.8,9.5,3.2,1.4,6.7,1.4,9.5,2.8,3.1,1.4,5.6,4.9,4.2,7.7-1.4,2.5-4.6,2.8-7.4,2.8a30.53,30.53,0,0,1-13.6-4.2c-7-4.2-13-11.2-20.7-13-5.6-1.4-11.5,0-17.1-1-7.7-1.4-13.7-6.7-19.2-11.9-2.1-1.8-4.2-4.5-3.2-7,1.1-2.1,3.9-2.5,6.3-2.1a7.93,7.93,0,0,1,3.2.7c1,1,1.4,2.8,2.1,3.8C249.2,80.5,258,64.4,265,67.5Z"/><path class="cls-5" d="M289.1,264.2a4,4,0,0,1,2.1-.4c3.9,0,8.4,1.1,11.2-2.1,1-1,1.8-2.8,3.1-2.8a2.67,2.67,0,0,1,1.8.7c2.5,2.1,1.8,5.9,0,8.8s-4.5,4.2-6.6,6.6c-.7,1.1-1.8,2.1-2.5,3.2a3.46,3.46,0,0,1-3.5,1C291.5,278.2,284.9,266.3,289.1,264.2Z"/><path class="cls-6" d="M209.6,254.8a5.8,5.8,0,0,1,3.2,0c4.6,1.1,9.1,3.2,13.7,4.6,5.6,1.8,11.9,2.1,17.8,1.8a10.62,10.62,0,0,0,4.9-1.1c1-.3,1.8-.7,2.8-1a5.52,5.52,0,0,1,6,4.5v2.1c-1.1,2.8-4.6,4.2-7.7,4.2-8.4.4-16.4-4.2-24.5-2.4a31.56,31.56,0,0,1-5.9,1.4c-3.8,0-7-1-9.1-3.8C209.3,262.8,206.9,256.5,209.6,254.8Z"/><path class="cls-6" d="M131.2,314.3a13.9,13.9,0,0,1-1.8-6.6c-.4-2.4,1.1-4.6,2.8-5.9,3.2-2.1,7.3.3,10.5,2.8l3.8,2.8a6.09,6.09,0,0,1,1.4,1.4,5.53,5.53,0,0,1-.3,3.1,17.26,17.26,0,0,0,11.6,20.6c5.9,1.8,12.9,0,18.6,2.8a2.73,2.73,0,0,1,1.4,1.4c1.4,2.1-1.4,4.6-3.9,5.2C153.6,350,139.3,332.1,131.2,314.3Z"/><path class="cls-5" d="M138.2,311.8a3.85,3.85,0,0,1,4.2,2.4c.7,1.8,0,3.9.7,5.6a6.18,6.18,0,0,0,1.4,2.8l5.6,8.4a8.44,8.44,0,0,0,3.5,3.5,11.91,11.91,0,0,0,4.9.7,6.59,6.59,0,0,1,4.6,1.8,3.25,3.25,0,0,1,.3,1.8c-.3.7-1.1.7-1.8.7a10.49,10.49,0,0,1-6.3-1.4,13.43,13.43,0,0,1-2.4-1.8l-4.6-3.5a36.06,36.06,0,0,1-4.2-3.8c-.7-1.1-1.1-1.8-1.8-2.8a25.52,25.52,0,0,0-7.3-8.4c-1.8-1.4-.7-1.8.3-2.8S136.1,312.2,138.2,311.8Z"/><path class="cls-7" d="M350,175a175.39,175.39,0,0,1-59.1,131.2c2.8-9.5,5.2-18.9,7-27.7,1-5.2,2.1-10.1,2.8-15,1.1-8.4,2.1-16.4,2.5-24.2a236.13,236.13,0,0,0,0-23.8c-.4-5.6-.7-11.2-1.4-16.4a186.89,186.89,0,0,0-3.2-20.3c-.7-3.2-1.4-5.9-2.1-8.8-1.1-3.8-1.8-7.3-2.8-10.8,0-.4-.3-.7-.3-1.1-1.8-5.2-3.5-10.5-5.2-15.8a267.82,267.82,0,0,0-28-53.9c-3.2-4.9-6.7-9.5-10.2-14C224.4,40.5,194.7,15.9,173,.6h1.8C271.6,0,350,78.4,350,175Z"/><path class="cls-8" d="M119,201.2c-8.4-9.4-12.9-22.4-12.9-39.2,0-19.9,5.9-35.4,18.6-46.5s30.1-17.1,52.5-17.1c22.1,0,39.2,6.6,50.7,19.9,11.2,12.2,16.8,28.7,16.8,49.3,0,25.2-7.7,48.3-23.8,69-16.8,22.1-36.4,32.9-59.8,32.9-9.4,0-16.4-2.8-20.3-8.4a14,14,0,0,1-3.2-8.4c12.9-9.4,24.5-22.1,34.3-38.2a136.37,136.37,0,0,1-17.5,1.4C139.6,215.2,127.7,210.7,119,201.2Zm56-63c-8.8,0-12.9,7.3-12.9,21.7,0,16.4,7.7,23.8,23.1,21.7a93,93,0,0,0,2.4-21.7C187.6,145.6,183.4,138.2,175,138.2Z"/></g></svg>