<svg id="Layer_1" data-name="Layer 1" xmlns="http://www.w3.org/2000/svg" viewBox="0 0 350 350"><defs><style>.cls-1{fill:#008ad0;}.cls-2{fill:#00d00e;}.cls-3{fill:#fff;stroke:#000;stroke-miterlimit:10;stroke-width:3.5px;}</style></defs><title>map_earth</title><path class="cls-1" d="M349.94,174.8a175.56,175.56,0,0,1-106.4,161c-3.1,1.4-5.9,2.4-9.1,3.5a171.84,171.84,0,0,1-59.5,10.5h-7a181.63,181.63,0,0,1-43.4-7.3c-1.7-.7-3.8-1-5.6-1.7a166.08,166.08,0,0,1-43.7-22,169.83,169.83,0,0,1-22.7-18.9h0a173.35,173.35,0,0,1-49.3-91.7C-15,113.4,46.94,21.7,141.84,3.1A174.55,174.55,0,0,1,175,0h1.8C272.64.8,349.94,78.9,349.94,174.8Z"/><path class="cls-2" d="M340.14,117a23.81,23.81,0,0,0-3.5,8,54.4,54.4,0,0,1-1.4,7.7c-1,2.8-3.1,5.6-4.2,8.4-2.4,5.9-1,10.8.3,16.8.7,3.5,3.1,10.8.7,14-2.8,3.5-14,1-17.8,0a4,4,0,0,1-3.8-3.5c-1.7-8-1-10.8-7-16.4-4.2-4.2-7.3-9.4-12.9-12.2a7.18,7.18,0,0,0-2.8-.7,6.36,6.36,0,0,0-3.5,1.4c-9.1,6.3-18.5,10.5-29.7,11.9a19.81,19.81,0,0,1-4.2-.3h0c-6.3-1.4-11.5-6.6-10.1-12.9h0c.3-1,.7-1.7,1-2.8,2.4-4.5,19.6-17.1,11.9-23.4-4.2-3.5-15.4.3-19.6,2.4-3.5,2.1-10.5,10.1-14.7,4.5-3.8-5.2,2.4-13.6-4.2-18.2a11.19,11.19,0,0,0-4.9-1.4,46.8,46.8,0,0,0-33.2,7.7c-4.2,2.8-7.7,6.3-12.2,8.4-3.5,1.7-7.3,2.4-10.5,4.9-2.8,2.1-4.5,4.9-7,7-4.2,3.1-9.4,3.5-14.7,3.8-6.3.3-12.9.7-17.8-2.8a149.66,149.66,0,0,0,13.3-22,6,6,0,0,0,1-4.9c-1-4.2-8-5.6-7.3-9.4a7.56,7.56,0,0,1,3.1-3.5,127.32,127.32,0,0,1,25.5-12.2c7.3-2.4,15.4-4.9,19.6-11.2a5.78,5.78,0,0,0,1-3.5c-.3-2.4-3.5-3.1-5.9-2.4-2.4.3-4.5,1.7-7,1.4a6.39,6.39,0,0,1-4.5-8,15.31,15.31,0,0,1,7-7.7c3.1-1.7,6.6-2.4,9.8-3.8,9.8-3.8,16.8-11.9,23.4-19.9,3.5-4.2,6.6-8.4,10.1-12.2a45.25,45.25,0,0,0,4.5-5.2C269.44,15.2,319.54,58.2,340.14,117Z"/><path class="cls-2" d="M207.84,198.9c3.8,4.5,8.7,6.6,14,9.1,5.9,2.4,7,4.5,11.2,9.1a60.33,60.33,0,0,0,21.3,14.7c9.4,3.8,14.7-2.8,20.6-8.7,3.1-3.1,5.9-6.6,10.1-3.1,4.5,3.5,3.8,11.2,3.5,16.1-.4,7.3-.7,14.3-3.1,21.3-5.9,16.1-12.6,31.5-13.3,48.6-.3,8-1.4,8.4-7.3,12.9-7.3,5.6-13.3,12.6-21.3,17.1-3.1,1.4-5.9,2.4-9.1,3.5a171.84,171.84,0,0,1-59.5,10.5h-7c3.5-14,16.8-40.2,5.9-52.5-4.2-4.5-11.5-5.9-16.8-9.1a39.62,39.62,0,0,1-8.4-8c-2.8-3.5-3.8-3.8-7.3-5.9-9.1-5.9-8.7-22.4-21.7-22.4-7,0-11.5,2.1-18.5-1.4-4.9-2.4-10.1-5.2-12.6-10.5-3.8-8.4-10.5-17.5-10.5-26.6,0-15.4,1.4-31.5,9.1-45.1,3.8-7,7.3-11.2,14.7-13.6,10.5-3.5,21.7-4.2,32.9-4.5,4.9,0,10.8-1,15.4.3,14.7,3.5,30.1,7.7,45.5,6.3,7.7-.7,13.3-3.8,20.3-7.3,6.3-3.1,12.9-5.6,19.6-8.4a27.43,27.43,0,0,1,4.2-2.1,3.89,3.89,0,0,1,3.8.3c2.4,2.1,2.8,5.6,3.8,8.4a30,30,0,0,0,2.4,4.2c.7.7,1.4,1.7,2.1,2.4a28.16,28.16,0,0,0,21,6.6c9.4-.7,17.8,12.9,18.9,21.3.7,9.4-9.4,11.2-16.1,14-9.4,3.8-24.1,2.1-31.8-4.5-6.3-5.6-15.4-14.7-24.5-15C208.94,176.5,200.54,190.2,207.84,198.9Z"/><path class="cls-2" d="M52.84,299.4v.3A173.35,173.35,0,0,1,3.54,208,43.34,43.34,0,0,1,22,218.8c5.9,5.9,11.5,14.3,19.9,14.3,2.1,0,3.8-.3,5.6.3a6.66,6.66,0,0,1,3.1,3.1,37.37,37.37,0,0,1,6.3,17.1c.3,5.9-1.4,12.6-5.9,16.8-2.1,2.1-4.9,3.5-5.9,6.3C42.34,285,54.54,291.7,52.84,299.4Z"/><path class="cls-2" d="M21.64,145.7l1.7-13.3a12.63,12.63,0,0,1,1-4.9c1-2.1,3.5-3.8,4.9-5.6,2.1-2.4,2.8-5.9,3.8-9.1a1.55,1.55,0,0,1,.7-1,1.74,1.74,0,0,1,2.4.3c2.4,2.1,2.8,5.6,2.1,8.4-.7,3.1-1.7,5.9-2.1,9.1s.3,6.6,3.1,8a11.93,11.93,0,0,1,3.1,1.7,3.74,3.74,0,0,1,.3,4.2,13.49,13.49,0,0,1-2.8,3.5c-1.7,1.4-3.5,2.8-5.2,4.2-3.8,2.8-7.7,5.6-12.6,6.3s-9.8-1-12.2-4.9c-1-1.7-1.4-4.2-.3-5.9a4,4,0,0,1,5.2-1.4H15c.7,1,1.4,2.1,2.1,3.1s2.1,2.1,3.1,1a1.89,1.89,0,0,0,.7-1.4,8.59,8.59,0,0,0,.3-4.2"/><path class="cls-2" d="M24.84,117a4.37,4.37,0,0,1-.7,2.1c-.7.7-1,.7-2.1.7s-2.4.7-2.8-1v-3.5a35,35,0,0,1,.4-6.6c0-1,.7-2.8,1.7-2.8.7,0,1,.7,1.4,1a8.88,8.88,0,0,1,2.1,3.8v2.8A10.21,10.21,0,0,0,24.84,117Z"/><path class="cls-3" d="M124.24,238.1c0-14,8-22.4,24.1-25.2V147.8c-16.4,0-24.8-7.3-24.8-21.7q0-13.65,4.2-16.8c24.5-11.5,40.9-17.5,49-17.5q29.4,0,29.4,14.7V213.9l9.8,1a10.32,10.32,0,0,1,9.4,8.7,64.58,64.58,0,0,1,.7,8.4c0,9.1-2.8,15.4-8.4,19.2-6.6,4.5-18.5,6.6-36,6.6-9.1,0-25.2-1.4-47.9-3.8a11.27,11.27,0,0,1-9.8-10.1A34.48,34.48,0,0,0,124.24,238.1Z"/></svg>