<svg id="Layer_1" data-name="Layer 1" xmlns="http://www.w3.org/2000/svg" viewBox="0 0 350 350.12"><defs><style>.cls-1{fill:#ffcd73;}.cls-2{fill:#edaa3e;}.cls-3{fill:#ea971f;}.cls-4{fill:#fff;stroke:#000;stroke-miterlimit:10;stroke-width:3.5px;}</style></defs><title>map_pluto</title><g id="Pluto"><path class="cls-1" d="M350,175.1a182.42,182.42,0,0,1-4.9,41A175,175,0,0,1,79.4,321.7l-6.3-4.2A181.7,181.7,0,0,1,29,272,173.68,173.68,0,0,1,0,180.6H0v-5.2A173.69,173.69,0,0,1,32.2,74.3Q36,69.05,40.3,63.8A174.29,174.29,0,0,1,255.2,19.7c1.8,1.1,3.5,1.8,5.2,2.8A174.64,174.64,0,0,1,350,175.1Z"/><path class="cls-2" d="M297.9,50.5c-31.5,33.9-76,53.6-121.4,63-48,9.8-97,9.1-146,8.4-6.3,0-14.4-1.4-22-1.4A181.38,181.38,0,0,0,.1,175.1v5.2h0l49,4.6c14.3,1.4,29.8,2.4,43.4-2.4,8.8-3.2,16.1-8.8,24.5-13,23.5-11.5,51.1-11.2,76.3-18.2,14.3-4.2,28-10.8,41.6-17.5l43.8-21.3c9.4-4.5,18.9-9.4,26.9-16.4,6.3-5.6,11.6-13,13.3-21Z"/><path class="cls-2" d="M334.6,247.2A173.5,173.5,0,0,1,315,280.4c-24.8,15.4-50.1,29.4-75.6,43.8-8.8,4.9-17.8,10.2-28,11.9-22.8,4.2-48.3-8.8-67.9,3.1a53.48,53.48,0,0,0-8.1,6.3,171.41,171.41,0,0,1-55.6-23.8h2.8c10.2-.7,20.3-1.8,30.5-2.8,42-4.5,84.4-10.5,124.9-22.8C272.3,285,305.9,269.2,334.6,247.2Z"/><path class="cls-2" d="M255.2,19.3C245,21.1,235.6,28.4,226.5,34c-18.6,11.6-40.3,15.8-62,18.9-27.7,4.2-55.3,7-83,8.8-13.6.7-27.6,1.4-41.3,1.4-2.8,3.5-5.6,6.7-8.1,10.5a195.48,195.48,0,0,0,55,2.5c25.9-2.1,51.4-7.7,77-13.7,15.4-3.5,31.1-7,45.5-13.3,8.4-3.9,16.8-8.1,24.9-12.6l25.9-14.4Z"/><path class="cls-2" d="M350,175.1c0,3.2,0,6.3-.3,9.5a191.63,191.63,0,0,1-4.6,31.9c-4.9,3.2-10.5,5.9-15.8,8.8-23.4,12.6-43.4,31.8-67.9,42.3-27.3,11.6-57.4,11.6-86.5,16.8-35,6.3-68.2,19.9-101.1,33.6h-.4a181.61,181.61,0,0,1-30.1-27.3,179.22,179.22,0,0,1-14-18.2l44.1-1c24.8-.4,50.8-1.1,73.5-10.9,7-3.1,13.6-7,21-9.8,11.5-4.2,23.8-4.6,35.7-6.7,12.9-2.1,25.2-6.3,37.8-10.2,12.6-4.2,25.2-8.4,34.7-17.5,6.3-5.9,10.8-13.3,16.8-19.6,7.3-7.7,16.8-12.6,24.8-19.9,11.9-10.5,19.6-24.9,28-38.5A157.92,157.92,0,0,1,350,175.1Z"/><path class="cls-2" d="M281.8,181a42.85,42.85,0,0,1-10.5,11.9,28.17,28.17,0,0,1-19.2,6.3c-4.9.3-8.8-.3-12.6-3.5a18.2,18.2,0,0,1-5.6-12.9,17.61,17.61,0,0,1,.3-5.6,38.34,38.34,0,0,1,6.7-10.5,77.13,77.13,0,0,1,7.7-7.4C263.6,147.8,294.7,159.7,281.8,181Z"/><path class="cls-3" d="M350,175.1c0,3.2,0,6.3-.3,9.5-51.4,48.6-122.5,70.7-191.8,85.7-13.7,3.1-27.7,5.9-41.6,8.4-24.1,4.6-48.6,8.4-73.1,11.6h0a179.22,179.22,0,0,1-14-18.2l44.4-.7c24.8-.4,50.8-1.1,73.5-10.9,7-3.1,13.6-7,21-9.8,11.5-4.2,23.8-4.6,35.7-6.7,12.9-2.1,25.2-6.3,37.8-10.2,12.6-4.2,25.2-8.4,34.7-17.5,6.3-5.9,10.8-13.3,16.8-19.6,7.3-7.7,16.8-12.6,24.8-19.9,11.9-10.5,19.6-24.9,28-38.5A170.81,170.81,0,0,1,350,175.1Z"/><path class="cls-3" d="M271.3,192.9a28.17,28.17,0,0,1-19.2,6.3c-4.9.4-8.8-.3-12.6-3.5a18.2,18.2,0,0,1-5.6-12.9,17.61,17.61,0,0,1,.3-5.6,38.34,38.34,0,0,1,6.7-10.5c9.4-3.9,21-2.5,28.3,4.9C275.8,178.2,275.5,186.3,271.3,192.9Z"/><path class="cls-4" d="M220.5,182.1c14.7,8.4,22.1,20.3,22.1,35.7,0,33.2-23.1,50.1-68.9,50.1-19.2,0-34.6-4.6-45.5-13.3s-16.1-20.3-16.1-34.7c0-17.2,8-30.1,24.1-38.5-14.7-10.2-22-22-22-35.7,0-14.7,5.6-26.2,16.5-35,11.2-8.8,26.6-13.3,46.2-13.3,19.2,0,34.6,4.9,45.8,14,10.9,8.8,16.4,20,16.4,33.2C239.1,159.3,233.1,171.9,220.5,182.1Zm-51.8,17.1c-5.6,6.7-8.4,13.3-8.4,19.2,0,9.4,4.9,14.3,14,14.3,8.8,0,13.3-4.2,13.3-12.9C188,213.2,181.7,206.2,168.7,199.2Zm18.6-31.1c3.9-5.9,5.6-11.5,5.6-16.4,0-10.5-4.6-15.8-14-15.8-9.1,0-13.7,4.6-13.7,13.3C165.6,156.2,172.6,162.5,187.3,168.1Z"/></g></svg>