<svg id="Layer_1" data-name="Layer 1" xmlns="http://www.w3.org/2000/svg" viewBox="0 0 350 350"><defs><style>.cls-1{fill:#c2e4ff;}.cls-2{fill:#f4e4d9;}.cls-3{fill:#eaa271;}.cls-4{fill:#683818;}.cls-5{fill:#fff;stroke:#000;stroke-miterlimit:10;stroke-width:3.49px;}</style></defs><title>map_jupiter</title><g id="Jupiter"><path class="cls-1" d="M349.85,175.34c0,3.8,0,7.3-.3,11.2s-.7,7-1,10.5-1,6.6-1.4,9.8a150.71,150.71,0,0,1-7,26.2h0C308,324.24,208,372,116.75,339.94a174.21,174.21,0,0,1-102.1-95q-3.6-8.4-6.3-16.8c-.7-1.7-1-3.5-1.7-5.2a220,220,0,0,1-5.9-33.5c-.3-4.5-.7-9.1-.7-13.6v-1.7a177,177,0,0,1,2.1-27.2c.7-4.5,1.7-9.4,2.8-14a155.64,155.64,0,0,1,9.8-28.6c39.2-88.4,142.3-128.2,230.4-89.1A175.23,175.23,0,0,1,323.85,84a182.69,182.69,0,0,1,12.9,25.8c2.1,5.2,3.8,10.1,5.6,15.7h0a28.65,28.65,0,0,1,1.4,5.6,107.63,107.63,0,0,1,3.1,15.4c.3,1,.3,2.4.7,3.5A131.57,131.57,0,0,1,349.85,175.34Z"/><path class="cls-2" d="M297.05,50.34l-161.9,18.9c-12.9,1.4-26.6,2.8-38.5-2.4-4.9-2.1-9.1-5.2-14-6.6-6.3-1.7-13.3,0-19.9-.7-4.9-.3-10.1-2.8-12.6-7a176.62,176.62,0,0,1,39.2-30c1,0,2.4-.3,3.5-.3a34.08,34.08,0,0,1,8.4-.7,37.55,37.55,0,0,1,8.7,3.1c29,12.6,62.6,5.9,93.7-1,9.1-2.1,18.2-4.2,26.6-8,2.4-1,4.9-2.4,7.3-3.5A180.23,180.23,0,0,1,297.05,50.34Z"/><path class="cls-3" d="M342.45,125.84h0c-2.4,1.7-4.9,3.5-7.3,4.9-8,3.8-16.8,4.9-25.5,7a105.59,105.59,0,0,0-14.7,4.9c-28.7,11.5-54.2,32.5-85,32.8-10.5,0-20.6-2.1-31.1-2.8a98.55,98.55,0,0,0-42.7,6.3c-15,5.6-31.1,15-46.2,9.1-5.2-2.1-9.8-6.3-15.4-8.4-10.1-4.2-21.7-1-32.5-.3-7,.3-14.7-.7-20.3-4.2a15.21,15.21,0,0,1-7-9.1c-1.4-4.5-.7-9.4-2.8-12.9s-5.6-4.9-9.4-5.6c.7-4.5,1.7-9.4,2.8-14a155.64,155.64,0,0,1,9.8-28.6c4.2,2.1,8,4.9,11.9,7,4.9,2.8,10.1,5.6,15.7,5.9,10.8,1.4,21.3-5.2,31.8-4.5,11.5.3,21,8.4,31.8,12.2,10.5,3.5,21.7,3.1,32.9,2.8l20.3-.7c19.9-.7,39.9-1.7,59.1-7.7s36.7-16.8,56.3-22c15-4.2,31.1-4.9,45.5-11.2a18.51,18.51,0,0,1,4.2-1.7,174.21,174.21,0,0,1,12.9,25.5C339.05,115.34,341.05,120.24,342.45,125.84Z"/><path class="cls-2" d="M347.75,149.94a138.17,138.17,0,0,1-23.4,6.6c-6.6,1.4-13.6,2.4-20.6,3.8a179.22,179.22,0,0,0-22,5.9c-42.7,12.9-85,27.9-129,32.8-32.9,3.5-66.1,1-99.3-1.4-7-.3-14-1-20.3-4.2a60.53,60.53,0,0,1-7.7-5.6c-1.7-1.4-3.5-2.8-5.2-4.2-5.9-4.2-13.3-5.9-20.3-8v-1.4A177,177,0,0,1,2.05,147c.7-4.5,1.7-9.4,2.8-14,6.6,2.4,12.6,4.9,16.4,5.9a425.85,425.85,0,0,0,46.5,6.3l107.7,10.5c6.6.7,13.6,1.4,20.3-1,9.1-3.5,15-12.6,23.4-17.1,8-4.2,17.5-4.2,26.6-3.8a13.76,13.76,0,0,1-1.4,12.2c18.5,3.1,31.8-17.5,49.7-24.1,7.7-2.8,16.4-2.8,24.5-4.9a82.46,82.46,0,0,0,18.2-7.3c2.1,5.2,3.8,10.1,5.6,15.7h0a28.65,28.65,0,0,1,1.4,5.6,107.63,107.63,0,0,1,3.1,15.4A8.65,8.65,0,0,1,347.75,149.94Z"/><path class="cls-4" d="M347.35,146.44c-42,1.7-81.8,26.5-124.5,30-19.9,1.7-40.2-1.4-59.8,1.4-15.7,2.1-30.8,8-46.5,11.2-30.1,5.6-60.5,0-90.6-1-3.5,0-7.3-.3-10.8-.3-2.8,0-8.7,1-14.3,1.7-.3-4.5-.7-9.1-.7-13.6v-1.7c7-1,15.4-.3,22,.3a54,54,0,0,0,6.6.3c18.5-.3,36.4-6.6,54.9-9.1,22-3.1,44.8-1.4,67.1-2.4,25.2-1,50-5.2,74.5-9.1l58.4-9.8a104.29,104.29,0,0,1,11.2-1.7c11.5-2.1,22.7-4.2,33.9-7.3,4.9-1.4,10.1-3.1,15-4.2A137,137,0,0,1,347.35,146.44Z"/><path class="cls-2" d="M348.45,197c-.3,3.5-1,6.6-1.4,9.8a150.71,150.71,0,0,1-7,26.2h0a46.11,46.11,0,0,0-6.3,7.7c-2.8,4.5-4.5,9.8-9.1,12.6-6.6,4.2-15.4.7-23.1,2.8-9.8,2.8-14,14-19.2,22.4a63.36,63.36,0,0,1-24.8,23.1c-14.3-7.7-31.8-1.4-47.9-2.4-15.4-1-30.1-8.7-45.5-9.1-9.4-.3-18.5,2.4-28,1.4-14.3-1.4-26.6-11.5-40.6-15.4-19.6-5.6-40.2,1-60.8,3.5A170.51,170.51,0,0,1,14.85,245q-3.6-8.4-6.3-16.8a43.61,43.61,0,0,1,9.4-1.4c9.8,0,18.9,5.9,29,5.6,3.8-.3,8.7-1.4,11.2,1.7,1.4,1.7,1.7,4.2,3.1,6.3,2.1,2.8,5.9,3.5,9.8,3.5l78.3,5.6c4.5.3,9.4.7,13.6-.7a7.83,7.83,0,0,1,1.4-.3,25.18,25.18,0,0,0,8.7-6.3l2.8-2.8c12.2-14,24.1-31.1,42.7-34.9,10.1-2.1,20.6.3,31.1-.7,8.4-.7,17.1-3.8,25.5-1.4,5.6,1.7,10.1,5.6,15.4,7.3,7,2.1,14.3.7,21.7-1C323.65,204.74,336.25,200.84,348.45,197Z"/><path class="cls-3" d="M349.45,186.24c-.3,3.5-.7,7-1,10.5s-1,6.6-1.4,9.8l-22.4,4.2c-8,1.4-15.7,2.8-23.8,2.4-7.3-.3-14.7-2.8-21.7-4.2a117.69,117.69,0,0,0-92.3,21c-4.9,3.5-9.4,7.7-14,11.2a66.47,66.47,0,0,1-10.5,7.3,28.61,28.61,0,0,1-5.6,2.4c-13.3,5.2-28.3,3.5-42.7,1.4-10.5-1.4-20.6-3.1-31.1-4.5a448.91,448.91,0,0,0-68.5-3.1,127.43,127.43,0,0,1-6.3-16.8c-.7-1.7-1-3.5-1.7-5.2a108.7,108.7,0,0,1,24.1-1.7c11.9.3,24.1,2.4,36,3.8a403.64,403.64,0,0,0,82.2,2.1c8.4-.7,16.8-1.7,24.8-4.9,11.9-4.5,21.3-14,32.5-19.9,13.3-7.3,28.3-9.8,43.4-12.2,13.3-2.1,26.6-4.5,39.5-1,5.2,1.4,10.1,3.5,15,4.5C319.05,196,334.45,190.44,349.45,186.24Z"/><path class="cls-4" d="M267,323.84a175.36,175.36,0,0,1-205.2-15l2.1.3c12.6,1.7,24.8,5.6,37.8,7,26.6,2.8,54.5-5.9,79.4,3.5,6.3,2.4,11.9,5.6,18.2,7.7,10.8,3.1,22.4,2.4,33.6,1.4C244.25,327.34,255.75,325.94,267,323.84Z"/><path class="cls-1" d="M191.45,281.54c11.9,3.1,24.1,3.5,36,4.2,11.2.3,23.4.7,33.2-5.2,6.3-3.5,10.8-9.1,15-14.7a44.7,44.7,0,0,1,8.7-9.8c4.9-3.5,10.8-5.2,14.7-9.8,4.2-4.9,4.5-12.6,0-17.1a25.12,25.12,0,0,0-8.4-4.9c-11.9-4.2-24.8-5.6-37.4-7a59,59,0,0,0-15.7-.3,52.45,52.45,0,0,0-12.9,3.5c-9.8,3.1-19.9,6.6-28,13.3a87.57,87.57,0,0,0-10.1,10.1l-11.2,11.9c-5.2,5.9-10.8,11.9-14.3,18.9-.3.3-.3.7-.3,1.4-.3,4.2,9.4.7,11.9.7C179.25,277.34,185.15,279.84,191.45,281.54Z"/><path class="cls-2" d="M188.35,255c4.9-6.3,11.5-10.5,17.8-15,3.8-2.4,7.7-5.2,11.9-5.9,3.5-.7,7.3-.3,10.8-.3,7.3,0,14.3-2.1,21.3-3.1a84.42,84.42,0,0,1,30.8,1.7,2.63,2.63,0,0,1,1.4.7c.3.3.3,1,.3,1.7.3,3.8.7,8-1.4,11.2s-5.6,4.9-8.4,7.3c-4.5,3.8-7.3,9.4-12.2,12.6-8,5.6-18.5,3.5-28.3,3.5-8.7,0-17.5,2.4-26.2,3.1-6.6.7-13.6.3-19.9-2.4-3.8-1.7-5.6-2.1-3.8-5.9A44.17,44.17,0,0,1,188.35,255Z"/><path class="cls-3" d="M224,244.84c6.3-1,12.6-.3,18.5-1,5.6-.7,10.8-2.8,16.4-2.8,2.8,0,5.9,1,7,3.5a6.92,6.92,0,0,1,0,3.5,13,13,0,0,1-7.3,9.1,17.78,17.78,0,0,1-8.7,2.1l-47.2,3.8a9.23,9.23,0,0,1-2.8-.3c-7-3.1,5.2-8.7,7.3-9.8C212.75,250.44,217,245.94,224,244.84Z"/><path class="cls-4" d="M228.15,249.74c3.8-.7,7.7-.3,11.5-.7a38.44,38.44,0,0,0,9.1-1.4c1.4-.3,2.8-.7,3.8.3a2.57,2.57,0,0,1,.7,2.1,5,5,0,0,1-3.1,3.8,9.44,9.44,0,0,1-5.2.7l-7,.3a33.76,33.76,0,0,0-6.3.7c-2.4.3-4.9,1.4-7.7,1.7-3.1.3-7,.3-5.2-2.8C220.45,252.24,225.35,250.44,228.15,249.74Z"/><path class="cls-5" d="M234.45,154.74c8.4,9.4,12.9,22.4,12.9,39.1,0,19.9-5.9,35.3-18.5,46.5-12.2,11.2-30.1,17.1-52.4,17.1-22,0-39.2-6.6-50.7-19.9q-16.8-18.3-16.8-49.2a109,109,0,0,1,23.8-68.8c16.8-22,36.4-32.8,59.8-32.8,9.4,0,16.4,2.8,20.3,8.4a13.77,13.77,0,0,1,2.1,4.2c1,2.4,0,4.9-2.1,6.6-11.9,9.1-22.4,21.3-31.5,36.3a89.82,89.82,0,0,1,17.5-1.4C213.85,141.14,225.75,145.74,234.45,154.74Zm-55.9,62.9c8.7,0,12.9-7.3,12.9-21.7,0-16.4-7.7-23.4-23.4-21.3a104.69,104.69,0,0,0-2.1,21.3C166,210.64,170.15,217.64,178.55,217.64Z"/></g></svg>