<svg id="Layer_1" data-name="Layer 1" xmlns="http://www.w3.org/2000/svg" viewBox="0 0 350 350"><defs><style>.cls-1{fill:#12c8cc;}.cls-2{fill:#16bfbf;}.cls-3{fill:#16d8d8;}.cls-4{fill:#159e9a;}.cls-5{fill:#78efef;}.cls-6{fill:#40d3d3;}.cls-7{fill:#13847e;}.cls-8{fill:#6fefe6;}.cls-9{fill:#fff;stroke:#000;stroke-miterlimit:10;stroke-width:3.5px;}</style></defs><title>map_urenus</title><g id="Urenus"><path class="cls-1" d="M349.8,175.29a179.29,179.29,0,0,1-2.1,27.3l-.3,2.4c-16.4,95.1-107,158.7-202.1,142.3a175.64,175.64,0,0,1-95.8-50.7A158.61,158.61,0,0,1,37.6,283a177,177,0,0,1-33.9-73.1,184.92,184.92,0,0,1-2.8-19.6c-.3-4.9-.7-10.1-.7-15a171.88,171.88,0,0,1,11.5-62.2,98.09,98.09,0,0,1,3.8-9.1c39.2-88.1,142.7-128,230.8-88.5a173.7,173.7,0,0,1,39.2,24.1,90.38,90.38,0,0,1,8.7,7.7,175.64,175.64,0,0,1,31.1,38.8,144.14,144.14,0,0,1,7.7,14.7,178.57,178.57,0,0,1,9.8,26.2,17.23,17.23,0,0,0,.7,2.1A171.61,171.61,0,0,1,349.8,175.29Z"/><path class="cls-2" d="M294.2,47.29c-3.1.7-6.6,1-10.1,1.7a460.65,460.65,0,0,0-89.2,22.4c-44.4,16.1-88.8,39.2-136,36.4-12.9-.7-25.9-3.5-38.1.7a39.83,39.83,0,0,0-9.4,4.9,98.09,98.09,0,0,1,3.8-9.1c39.2-88.1,142.7-128,230.8-88.5a173.7,173.7,0,0,1,39.2,24.1C288.3,42.09,291.4,44.89,294.2,47.29Z"/><path class="cls-3" d="M333.4,100.79c-9.8,4.9-21,4.5-32.2,4.2l-58.4-2.1c-10.8-.3-22-.7-32.5,2.4s-20.3,10.5-23.4,21c-2.8,9.4,0,19.6-1.7,29-2.4,12.2-12.2,22.4-23.4,28s-23.8,7.3-36.4,9.4L20.5,208.49a130.28,130.28,0,0,1-16.4,1.7,184.92,184.92,0,0,1-2.8-19.6c-.3-4.9-.7-10.1-.7-15a171.88,171.88,0,0,1,11.5-62.2,98.09,98.09,0,0,1,3.8-9.1c5.6-.3,11.5-.3,17.1-.3,16.1.3,31.8,2.4,47.9,1.4,45.5-3.1,85.3-29.4,127.3-45.8A313.47,313.47,0,0,1,285.8,40a90.38,90.38,0,0,1,8.7,7.7,175.64,175.64,0,0,1,31.1,38.8C328.5,91,330.9,95.89,333.4,100.79Z"/><path class="cls-4" d="M347.7,202.59l-.3,2.4c-16.4,95.1-106.6,159.1-201.7,142.7a168.9,168.9,0,0,1-60.1-22.4c13.3-15.7,31.8-25.9,51.4-32.5s40.2-10.1,60.1-15.4c19.9-4.9,40.2-11.9,57-23.8,13.6-10.1,24.8-23.4,37.4-34.3s29-19.9,45.8-18.9A26.83,26.83,0,0,1,347.7,202.59Z"/><path class="cls-5" d="M349.8,175.29a179.29,179.29,0,0,1-2.1,27.3l-.3,2.4a78.13,78.13,0,0,0-40.6,23.8c-14.7,16.4-25.2,36-40.2,52.4-38.1,41.3-44.4,14-67.8,14.3s-56.6,29-66.1,18.9c-7-7.3-12.2,16.8-18.5,24.8a189.35,189.35,0,0,1-28.3-13.6,174.77,174.77,0,0,1-36-28.7A158.61,158.61,0,0,1,38,283.29c5.9-7.7,29.7-16.8,21-21-40.6-18.9,42.7-23.1,62.9-36,111.2-71.7,110.1-82.2,147.2-72.7,28,7,42-9.8,68.5-21.3l7-3.1A202.39,202.39,0,0,1,349.8,175.29Z"/><path class="cls-6" d="M343.2,127.09c-2.1,1.7-4.2,3.5-6.3,4.9-10.5,8-21.7,15.7-32.5,23.1-15.7,10.8-29,28-47.6,30.8-60.1,9.1-63.3,35.3-95.8,48.6-18.9,7.7-38.1,10.5-57.3,18.2-10.5,4.2-22,9.4-26.9,19.9-2.1,4.5-2.4,9.4-4.9,13.6-4.5,7.7-13.3,10.1-22.4,10.5a158.61,158.61,0,0,1-11.9-13.6A177,177,0,0,1,3.7,210a184.92,184.92,0,0,1-2.8-19.6,107.52,107.52,0,0,1,16.1-7c22-8,45.5-10.8,68.2-15.7s42-18.5,64-19.6c17.5-.7,21.7-36,36.4-45.1,15.7-9.8,25.5-1,44.1-2.1,28.7-1.4-32.9-19.6,95.8-14.7a144.14,144.14,0,0,1,7.7,14.7A155.73,155.73,0,0,1,343.2,127.09Z"/><circle class="cls-7" cx="267.7" cy="150.79" r="3.1"/><ellipse class="cls-7" cx="305.8" cy="195.59" rx="3.8" ry="0.7"/><ellipse class="cls-7" cx="177.1" cy="265.19" rx="4.9" ry="3.1"/><circle class="cls-7" cx="183" cy="329.19" r="1"/><ellipse class="cls-7" cx="277.8" cy="294.49" rx="4.9" ry="2.1"/><ellipse class="cls-7" cx="58.2" cy="206.09" rx="3.5" ry="1.4"/><ellipse class="cls-7" cx="45.6" cy="134.09" rx="3.1" ry="0.3"/><ellipse class="cls-7" cx="112.8" cy="45.19" rx="1.7" ry="4.5"/><circle class="cls-7" cx="145.3" cy="53.29" r="1.7"/><ellipse class="cls-7" cx="122.2" cy="115.19" rx="3.5" ry="2.1"/><ellipse class="cls-7" cx="222.6" cy="65.89" rx="5.9" ry="1.4"/><ellipse class="cls-8" cx="94.6" cy="293.49" rx="4.2" ry="1"/><ellipse class="cls-8" cx="222.6" cy="224.59" rx="3.1" ry="1.4"/><ellipse class="cls-8" cx="154.4" cy="181.99" rx="5.6" ry="0.3"/><circle class="cls-8" cx="108.9" cy="218.29" r="1"/><circle class="cls-8" cx="55.8" cy="125.99" r="1"/><circle class="cls-8" cx="65.2" cy="79.19" r="3.8"/><circle class="cls-8" cx="170.8" cy="91.69" r="1.4"/><ellipse class="cls-8" cx="214.5" cy="123.89" rx="4.9" ry="1"/><ellipse class="cls-8" cx="191.1" cy="202.59" rx="1.4" ry="0.3"/><ellipse class="cls-8" cx="257.5" cy="242.79" rx="4.5" ry="2.8"/><circle class="cls-8" cx="305.1" cy="259.19" r="2.8"/><circle class="cls-8" cx="181.3" cy="315.89" r="1.7"/><path class="cls-9" d="M220.1,242.39c0,11.2-8.7,16.8-26.6,16.8-18.9,0-28.3-5.6-28.3-16.8v-17.1H129.5c-24.8,0-37.1-7.7-37.1-23.8,0-5.2.3-9.4,1.7-13.3l40.2-71.3c4.9-8.7,10.5-14.7,16.4-18.5,7.3-4.5,17.8-6.6,31.5-6.6,11.5,0,20.6,1.4,27.6,3.8a15.47,15.47,0,0,1,10.1,14.3v78.3h16.4c2.4,4.2,3.8,9.8,3.8,16.8s-1.4,12.2-3.5,14.7c-2.8,3.8-8.4,5.6-16.8,5.6v17.1Zm-55.2-106.6-27.6,53.5h27.6Z"/></g></svg>