<?xml version="1.0" encoding="utf-8"?>
<!-- Generator: Adobe Illustrator 23.0.2, SVG Export Plug-In . SVG Version: 6.00 Build 0)  -->
<svg version="1.1" id="Layer_1" xmlns="http://www.w3.org/2000/svg" xmlns:xlink="http://www.w3.org/1999/xlink" x="0px" y="0px"
	 viewBox="0 0 350 350" style="enable-background:new 0 0 350 350;" xml:space="preserve">
<style type="text/css">
	.st0{fill:#353535;stroke:#000000;stroke-width:0.16;stroke-linejoin:round;}
	.st1{fill:#4D4D4D;}
	.st2{fill:#B3B3B3;}
	.st3{opacity:0.41;fill:#F9F7F7;enable-background:new    ;}
	.st4{fill:#D3161D;}
	.st5{fill:#C6C6C6;}
	.st6{fill:#D8D8D8;}
	.st7{fill:#F4D487;stroke:#000000;stroke-width:9.000000e-02;stroke-miterlimit:10;}
	.st8{fill:#EFC86F;}
	.st9{fill:#F4DCB3;}
	.st10{fill:#AF2323;}
	.st11{fill:#FF1E00;}
	.st12{fill:#FF3600;}
	.st13{fill:#FF4800;}
	.st14{fill:#F47245;}
	.st15{fill:#449193;}
	.st16{fill:#CE3A00;}
	.st17{fill:#77401B;stroke:#070707;stroke-width:0.22;stroke-miterlimit:10;}
	.st18{fill:#F8C946;stroke:#020202;stroke-width:0.22;stroke-miterlimit:10;}
	.st19{fill:#282828;stroke:#151616;stroke-width:0.18;stroke-miterlimit:10;}
	.st20{fill:#4D4D4D;stroke:#151616;stroke-width:0.18;stroke-miterlimit:10;}
	.st21{fill:#4D4D4D;stroke:#151616;stroke-width:0.67;stroke-miterlimit:10;}
	.st22{fill:#F8C946;}
	.st23{fill:#683919;}
	.st24{fill:#945320;}
	.st25{fill:#ADADAD;stroke:#080000;stroke-width:0.22;stroke-miterlimit:10;}
	.st26{fill:#515051;stroke:#000000;stroke-width:0.22;stroke-linejoin:round;}
	.st27{fill:#161616;stroke:#0A0A0A;stroke-width:0.19;stroke-miterlimit:10;}
	.st28{fill:#8E8A8B;stroke:#000000;stroke-width:0.19;stroke-linejoin:round;}
	.st29{fill:#E2B647;stroke:#070707;stroke-width:0.19;stroke-miterlimit:10;}
	.st30{fill:#161616;}
	.st31{fill:#945320;stroke:#070707;stroke-width:0.19;stroke-miterlimit:10;}
	.st32{fill:none;stroke:#0A0A0A;stroke-width:0.19;stroke-miterlimit:10;}
	.st33{fill:#DDDBD7;}
	.st34{fill:#232323;}
	.st35{fill:#3A3A3A;}
	.st36{fill:none;stroke:#000000;stroke-width:0.19;stroke-miterlimit:10;}
	.st37{fill:#282828;}
	.st38{fill:#7C7C7C;}
	.st39{fill:#666666;}
	.st40{fill:none;stroke:#070707;stroke-width:0.22;stroke-miterlimit:10;}
	.st41{fill:#7F1119;}
	.st42{fill:#5E0E18;}
	.st43{fill:#352F49;}
	.st44{fill:#E41E00;}
	.st45{fill:#FFFE28;}
	.st46{fill:#18FF08;}
	.st47{fill:#DBDDDD;}
	.st48{fill:#0FB0DB;}
	.st49{fill:#303435;}
	.st50{fill:url(#SVGID_1_);stroke:#0A0A0A;stroke-width:9.000000e-02;stroke-miterlimit:10;}
	.st51{fill:none;stroke:#0A0A0A;stroke-width:9.000000e-02;stroke-miterlimit:10;}
	.st52{fill:url(#SVGID_2_);stroke:#0A0A0A;stroke-width:9.000000e-02;stroke-miterlimit:10;}
	.st53{fill:url(#SVGID_3_);stroke:#0A0A0A;stroke-width:9.000000e-02;stroke-miterlimit:10;}
	.st54{fill:url(#SVGID_4_);stroke:#0A0A0A;stroke-width:9.000000e-02;stroke-miterlimit:10;}
	.st55{fill:none;stroke:#070707;stroke-width:0.11;stroke-miterlimit:10;}
	.st56{fill:none;stroke:#389CCE;stroke-width:2.53;stroke-linecap:round;stroke-linejoin:round;}
</style>
<title>rocket-robot</title>
<g>
	<g id="Layer_4">
		<path class="st0" d="M241.6,75.8c-0.6-0.5-1.3-0.9-2-1.3c-2.9-1.6-11.6-6.4-17.5-8.7c-3.5-1.3-5.8-2.3-7.5-3
			c-2.1-0.8-4.3-1.1-6.5-0.9c-1.8,0.1-3.5,0.5-5.1,1.2c-2.5,1.2-4.7,3-6.3,5.3c-4.3,5.5-6.9,8.2-7.5,9.4c-0.3,1.6-0.2,9.9,3,13.8
			c2.4,2.8,6.1,6.2,10.6,7.2c4.6,1,25.2,7.3,28.7,4.4c4.1-3.4,13.4-13.4,14.2-18.2C246.6,80.6,244.5,78.1,241.6,75.8z"/>
		<path class="st1" d="M198.9,109.4c-1.2,0-2.5,0-3.7-0.2c-4.5-1-8-4.3-10.2-7c-1.9-2.3-2.4-6-1.3-11v-0.2c0-0.1,0.1-0.2,0.1-0.4
			c0.6-3.4,1.9-6.7,3.8-9.6c1.5-2.2,3.5-4,6-5c1.6-0.6,3.2-1,4.9-1.1c0.4,0,0.9-0.1,1.3-0.1c1.7,0,3.3,0.3,4.9,0.9
			c0.8,0.3,1.7,0.7,2.8,1.1c1.3,0.5,2.9,1.2,4.8,1.9c5.9,2.3,14.8,7.2,17.4,8.6c0.7,0.4,1.3,0.8,1.9,1.2c2.8,2.3,4.6,4.6,3.9,8.5
			c-0.7,4.1-5.4,6.5-9.1,8.4l-0.9,0.4C222.1,107.6,206.9,109.4,198.9,109.4L198.9,109.4z"/>
		<path d="M199.6,75.6c1.6,0,3.1,0.3,4.6,0.8c0.8,0.3,1.7,0.7,2.7,1.1c1.3,0.5,2.9,1.2,4.8,1.9c5.9,2.2,14.7,7.1,17.3,8.6
			c0.6,0.3,1.2,0.7,1.8,1.2c2.6,2.1,4.2,4.2,3.6,7.8c-0.6,3.7-4.9,5.9-8.7,7.9l-0.9,0.4c-2.8,1.4-17.6,3.3-26,3.3
			c-1.2,0-2.4,0-3.5-0.2c-2.4-0.5-5.9-2.1-9.8-6.7c-1.2-1.6-1.8-3.6-1.7-5.6c0-1.6,0.2-3.2,0.5-4.8l0.1-0.2c0-0.1,0-0.2,0.1-0.4
			c0.5-3.3,1.8-6.5,3.6-9.3c1.4-2.1,3.3-3.7,5.6-4.7c1.5-0.6,3.1-0.9,4.7-1C198.8,75.6,199.2,75.6,199.6,75.6 M199.6,74.1
			c-0.5,0-0.9,0-1.4,0.1c-1.8,0.1-3.5,0.5-5.1,1.1c-2.6,1.1-4.8,2.9-6.3,5.3c-2,3.1-3.4,6.6-4,10.3c-0.3,1.6-1.8,8,1.5,11.9
			c2.4,2.8,6,6.2,10.6,7.2c1.3,0.2,2.6,0.3,3.9,0.3c7.9,0,23.4-1.8,26.7-3.5c4-2.1,9.5-4.6,10.4-9.4c0.8-4.3-1.3-6.9-4.1-9.2
			c-0.6-0.5-1.3-0.9-2-1.3c-5.7-3.2-11.5-6.1-17.5-8.7c-3.5-1.3-5.8-2.3-7.5-3C203,74.4,201.3,74.1,199.6,74.1L199.6,74.1z"/>
		
			<ellipse transform="matrix(0.7224 -0.6915 0.6915 0.7224 -12.1667 161.9031)" class="st2" cx="195.5" cy="96.1" rx="8.2" ry="10.2"/>
		
			<ellipse transform="matrix(0.7224 -0.6915 0.6915 0.7224 -9.5687 174.9887)" class="st2" cx="213.1" cy="99.4" rx="5.9" ry="7.3"/>
		
			<ellipse transform="matrix(0.7224 -0.6915 0.6915 0.7224 -3.4277 182.4863)" class="st2" cx="225.5" cy="95.5" rx="4.6" ry="5.8"/>
		<path class="st3" d="M222.1,65.8l-5.3-0.3l6,6.4c0,0-13.1-4.2-12.7-3.9s6.5,4,6.5,4l-6.3-0.2l6.5,4h-6.4l3.3,2l-2.7-0.2l14.6,3.9
			l-5.7-3.4l8.1,1.2l-6.5-4.4l7,1.2l-5.7-6.1l4.2,1.3l-6.8-4.1l6.4,2.1L222.1,65.8z"/>
		<polygon class="st3" points="197.4,67.4 203.3,65.6 198.4,68.4 203.5,67.5 195.6,70.9 197.7,70.9 192.5,73.6 		"/>
		
			<ellipse transform="matrix(0.7224 -0.6915 0.6915 0.7224 -12.5151 161.7472)" class="st4" cx="195.2" cy="96.5" rx="2.8" ry="3.8"/>
		
			<ellipse transform="matrix(0.8679 -0.4968 0.4968 0.8679 -21.4194 119.0838)" class="st4" cx="213.1" cy="99.8" rx="2.4" ry="3.3"/>
		<ellipse transform="matrix(0.8679 -0.4968 0.4968 0.8679 -17.75 124.8569)" class="st4" cx="225.8" cy="95.8" rx="1.8" ry="2.4"/>
		<path class="st5" d="M144.6,99.8c0-1.2-0.3-2.4-0.8-3.4c0-1.1-0.3-2.1-0.9-3c-0.9-1.5-2.3-2.5-3.9-3l-0.9-0.2
			c-0.1-1-0.4-1.9-0.9-2.8c-0.9-1.5-2.3-2.5-3.9-3c-1.7-0.4-3.5-0.2-5,0.7c-1.2,0.8-2.2,1.9-2.7,3.2c-0.8-0.2-1.6-0.3-2.4-0.4
			c-0.6-0.4-1.2-0.7-1.9-0.9c-3.5-0.9-7,1.1-8,4.6c-0.5,1.4-0.6,2.9-0.3,4.4c-2.3,2-3.6,4.9-3.6,8c0,0.3,0,0.6,0,0.9
			c0.1,1.2,0.4,2.5,1.1,3.5c0.5,1.5,1.6,2.8,3,3.5c-0.4,0.9-0.6,1.8-0.6,2.8c0.2,3.6,3.3,6.3,6.9,6.1c3.2-0.2,5.8-2.7,6.1-5.9
			c1,0.5,2,0.8,3.1,0.8h1.5c0.9,0,1.7-0.1,2.5-0.6c1.6-0.6,2.8-1.8,3.4-3.4c0.4-0.8,0.6-1.6,0.6-2.5c-0.1-0.6-0.1-1.2-0.2-1.7
			c-0.2-0.6-0.4-1.1-0.7-1.6c0.6,0.2,1.3,0.3,2,0.3c1.7,0,3.4-0.7,4.6-1.9C143.9,103.1,144.6,101.5,144.6,99.8z"/>
		<path class="st5" d="M109.7,92.3c-0.3-0.9-0.8-1.8-1.4-2.6l-0.1-0.4c-0.3-1.5-1.1-2.9-2.2-3.9c-1.5-1.4-3.5-2.2-5.5-2.2l-1.7,0.2
			c-0.8,0.2-1.6,0.6-2.2,1.2c-1.1,0.8-2,2-2.3,3.4c-0.2,0.9-0.4,1.8-0.7,2.7l-0.1,0.3l-0.5,0.3c-2.2,0.8-4.5,1.8-5.8,3.9
			c-1.3,2.2-1.3,5,0,7.2c-0.1,0.3-0.1,0.5-0.1,0.8c0,0.3-0.1,0.6-0.1,0.8c0,1.7,0.7,3.4,1.9,4.6c0.2,0.2,0.4,0.4,0.7,0.6
			c1.8,1.4,4.1,1.8,6.2,0.9c0.5,0.3,1,0.6,1.6,0.7c1.7,0.5,3.5,0.2,5-0.7c1.4-0.9,2.5-2.3,3-3.9c0.6-1.6,1-3.2,1.3-4.9
			c0.1-0.5,0.2-1.1,0.2-1.7C109.3,98.1,110.5,95.1,109.7,92.3z"/>
		<path class="st6" d="M143.2,104.2c-0.4-1.6-1.5-3.1-3-3.9c-0.8-0.4-1.7-0.7-2.6-0.9v-0.2c0-1.2-0.3-2.3-0.9-3.3l-1.2-1.7
			c-0.4-0.7-1-1.4-1.7-1.8c-1.3-1.1-3.1-1.6-4.8-1.3c-0.9,0-1.7,0.3-2.4,0.8c-1.5,0.9-2.5,2.3-3,3.9l-0.2,1.7c0,0.3,0,0.5,0.1,0.8
			c-0.5-0.3-1.1-0.5-1.7-0.5c-0.9,0-1.8,0.4-2.4,1c-0.6,0.7-1,1.5-1,2.4v1.4c0,0.6,0.2,1.3,0.6,1.8c-0.9,0.9-1.4,2.1-1.4,3.4
			c0.1,1.3,0.6,2.5,1.4,3.5c-0.2,0.4-0.3,0.9-0.3,1.4c0,1.9,1.5,3.4,3.4,3.4c1.4,0,2.7-0.9,3.2-2.2h0.2c1.4,0,2.6-0.8,3.1-2.1
			c0.4,0.1,0.8,0.1,1.3,0.2c1.8,0.1,3.5,0,5.3,0.1c1.1,0.3,2.3,0.4,3.4,0.1c1.6-0.5,3-1.5,3.9-3
			C143.4,107.6,143.7,105.8,143.2,104.2z"/>
		<path class="st6" d="M107.3,93.3l-0.5-0.2l-0.1-0.3l-0.2-1.5c-0.3-0.9-0.8-1.6-1.6-2.1c-0.8-0.5-1.8-0.6-2.7-0.4
			c-0.9,0.2-1.6,0.8-2.1,1.6l-0.4,0.8c-0.2,0.6-0.2,1.3,0,1.9l0.1,0.8c-1,0.3-1.7,1.1-2.1,2h-0.2c-0.7,0-1.4,0.2-2,0.5
			c-0.2,0.1-0.3,0.2-0.5,0.4c-0.2,0.1-0.3,0.2-0.5,0.2c-0.4,0.2-0.8,0.6-1.1,1c-0.3,0.4-0.6,0.8-0.7,1.3l-0.1,1c0,0.7,0.2,1.4,0.5,2
			l0.6,0.8c0.5,0.5,1.1,0.8,1.7,1c0.3,0.1,0.7,0.1,1,0.1c0.3,1.4,1.1,2.6,2.3,3.2c2.4,1.4,5.5,0.6,6.9-1.8c1.1-1.9,2.2-3.7,3.3-5.5
			C110.5,97.8,109.7,94.8,107.3,93.3z"/>
	</g>
	<path class="st7" d="M259.1,137.7c-0.1,0.1-0.3,0.3-0.4,0.4c-1.1,0.9-4.5,3-11.6,4c-7.6,1.1-19.4,1-37.1-3.4
		c-12.7-3.2-25.1-7.3-37.1-12.3l-0.2-0.1l0,0c-2.2-1-4.1-2.7-5.3-4.8c-0.1-0.2-0.3-0.5-0.4-0.7c-1.1-2-1.5-4.4-1.2-6.7
		c0.2-2.5,1.6-4.8,3.8-6.1c0.3-0.2,0.6-0.3,0.9-0.4l0,0c9.8-4.7,20-8.6,30.4-11.5l1.6-0.4c2.2-0.6,4.5-1.2,6.8-1.7
		c3.6-0.8,7.4-1.5,11.2-1.9l1.5-0.2c6.3-0.7,12.7-0.6,19.1,0.1l1.6,0.2l0.5,1.5l0.1,0.3l11.3,30.9L259.1,137.7z"/>
	<path class="st8" d="M243.1,93.6c-5.5,2.7-12.8,5.8-18.8,8.5c-29-0.7-58.7,12.1-58.7,12.1c0.2-2.5,1.6-4.8,3.8-6.1
		c0.3-0.2,0.6-0.3,0.9-0.4l0,0c9.8-4.7,20-8.6,30.4-11.5l1.6-0.4c2.2-0.6,4.5-1.2,6.8-1.7c3.6-0.8,7.4-1.5,11.2-1.9l1.5-0.2
		c6.3-0.7,12.7-0.6,19.1,0.1l1.6,0.2L243.1,93.6z"/>
	<path class="st9" d="M258.7,138.1c-1.1,0.9-4.5,3-11.6,4c-7.6,1.1-19.4,1-37.1-3.4c-12.7-3.2-25.1-7.3-37.1-12.3l-0.2-0.1l0,0
		c-2.2-1-4.1-2.7-5.3-4.8c-0.1-0.2-0.3-0.5-0.4-0.7c9.7,3.1,54.7,17.1,77.5,13.9C256.9,133,259.4,135.3,258.7,138.1z"/>
	<path class="st10" d="M286.1,116.3c-4,5.7-8.7,10.7-14.1,15.1c-1.7,1.4-3.5,2.6-5.3,3.8c-3.5,2.2-7.3,4-11.2,5.2l-0.5,0.1
		c-1,0.4-2,0.8-3,1c-2.2,0.5-4.5,0.7-6.8,0.4h-0.1l-0.7-0.1c-7.6-1.1-15.1-6.5-19.4-14.8c-6-11.6-3.8-24.9,4.8-31.3
		c2.9-2.2,6.4-3.4,10-3.6c0.5,0,0.9,0,1.4,0c0.9,0,1.9,0.1,2.8,0.2c0.9,0.1,1.8,0.3,2.7,0.6l0,0c1.8,0.3,3.5,0.7,5.1,1.2
		c7.1,1.9,13.9,5,20,9.1C277.3,106.7,282.1,111.2,286.1,116.3z"/>
	<path class="st11" d="M286.1,116.3c-4,5.7-8.7,10.7-14.1,15.1c-1.7,1.4-3.5,2.6-5.3,3.8c-3.5,2.2-7.3,4-11.2,5.2l-0.5,0.1
		c-1,0.4-2,0.8-3,1c-1.2,0.1-2.3,0-3.5-0.1h-0.1l0,0c-0.2,0-0.5-0.1-0.7-0.1c-7.6-1.1-15.1-6.5-19.4-14.8c-6-11.6-3.8-25,4.8-31.3
		c2-1.5,4.3-2.5,6.7-3.1c0.5,0,0.9,0,1.4,0c0.9,0,1.9,0.1,2.8,0.2c0.9,0.1,1.8,0.3,2.7,0.6l0,0c1.8,0.3,3.5,0.7,5.1,1.2
		c7.1,1.9,13.9,5,20,9.1C277.3,106.7,282.1,111.2,286.1,116.3z"/>
	<path class="st12" d="M274.6,110.6c1.8,7,0.9,14.4-2.5,20.8c-1.7,1.4-3.5,2.6-5.3,3.8c-3.5,2.2-7.3,4-11.3,5.2l-0.5,0.1
		c-1.6,0.7-3.3,1.2-5.1,1.4c-8.9-2-16.7-9.9-19.3-20.8c-2.9-12.1,1.7-23.9,10.5-29.1c0.9,0,1.9,0.1,2.8,0.2c0.9,0.1,1.8,0.3,2.7,0.6
		l0,0c1.8,0.3,3.5,0.7,5.1,1.2c7.1,1.9,13.9,5,20,9.1C273,105.5,273.9,108,274.6,110.6z"/>
	<path class="st13" d="M286.1,116.3c-4,5.7-8.7,10.7-14.1,15.1c-1.7,1.4-3.5,2.6-5.3,3.8c-3.5,2.2-7.3,4-11.2,5.2
		c-6.6-4.1-11.2-10.7-12.9-18.2c-2.7-11.4,1.2-22.7,9.1-28.2c7.1,1.9,13.9,5,20,9.1C277.3,106.6,282.1,111.1,286.1,116.3z"/>
	<path class="st14" d="M286.1,116.3c-4,5.7-8.7,10.7-14.1,15.1c-1.7,1.4-3.5,2.6-5.3,3.8c-4-4-6.8-9-8.1-14.5
		c-2-8.4-0.4-16.8,3.8-22.8c3.2,1.5,6.4,3.3,9.3,5.2C277.2,106.7,282.1,111.1,286.1,116.3z"/>
	<polygon class="st10" points="210.8,138.9 193.1,142.7 189.8,132.8 	"/>
	<path class="st15" d="M220.9,93.2c0.6,2.5-3.2,5.5-8.4,6.8s-10,0.2-10.6-2.2c-0.1-0.7,0-1.5,0.4-2.1c2.2-0.6,4.5-1.2,6.8-1.7
		c3.6-0.8,7.4-1.5,11.2-2C220.6,92.3,220.8,92.7,220.9,93.2z"/>
	<path class="st16" d="M221.8,91.9l-1.5,0.2c-3.8,0.5-7.5,1.2-11.2,1.9c-2.3,0.5-4.6,1.1-6.8,1.7l-1.6,0.4c-0.2,0.6-0.2,1.3-0.1,2
		c0.8,3.3,6.1,4.7,12.2,3.2s10.2-5.1,9.5-8.4C222.2,92.6,222,92.2,221.8,91.9z M212.6,100c-5.2,1.3-10,0.2-10.6-2.2
		c-0.1-0.7,0-1.5,0.4-2.1c1.3-0.4,2.7-0.7,4.1-1c0.9-0.2,1.8-0.4,2.7-0.6c3.6-0.8,7.4-1.5,11.2-1.9c0.3,0.3,0.5,0.7,0.6,1.1
		C221.6,95.8,217.8,98.8,212.6,100L212.6,100z"/>
	<g id="Layer_3">
		<path class="st17" d="M227.2,52l-23.7,1.2c-4,0.1-6.8,0.8-7,4.7l0,0c0.2,3.8,2.2,4.2,5.9,4.7l25,3.9c3.9,0.2,7.2-2.8,7.4-6.7l0,0
			C235.1,55.9,231.1,52.2,227.2,52z"/>
		<path class="st18" d="M225.4,52.1L200.8,53c-4,0.1-4.8,8.9-1.1,9.4l25,3.9c3.9,0.2,7.2-2.8,7.4-6.7l0,0
			C232.3,55.6,229.3,52.3,225.4,52.1z"/>
		<path class="st19" d="M232.6,56.5c0,0-0.1-1.2-1.8-2.6c2.3-2,8.6-5.9,9.7-5.4c1,0.7,1.8,1.5,2.4,2.5c0.6,0.8,0.5,1.9-0.3,2.5
			c-0.1,0.1-0.3,0.2-0.5,0.3c-3.4,1.2-8.7,3-8.7,3L232.6,56.5z"/>
		<path class="st20" d="M230.7,53.9c2.3-2,8-6.4,9-6c1,0.6,1.8,1.4,2.5,2.3c0.6,0.7,0.5,1.8-0.2,2.4c0,0,0,0,0,0
			c-0.2,0.1-0.3,0.2-0.5,0.3c-3.4,1.2-8.7,3.6-9,3.5C232.3,55.5,231.7,54.5,230.7,53.9z"/>
		<path class="st19" d="M233,61.3c0.4-1,0.5-2.1,0.1-3.2c3-0.2,10.4,0.5,11,1.5c0.4,1.1,0.5,2.3,0.4,3.5c0,1-0.7,1.8-1.7,1.8
			c-0.2,0-0.4,0-0.6-0.1c-3.5-1.1-8.7-2.9-8.7-2.9L233,61.3z"/>
		<path class="st20" d="M233,58.1c3-0.2,10.2-0.3,10.8,0.7c0.4,1.1,0.6,2.2,0.6,3.4c0.1,1-0.7,1.8-1.6,1.8c-0.2,0-0.4,0-0.6-0.1
			c-3.5-1.1-9.2-2.4-9.3-2.6C233.4,60.3,233.5,59.1,233,58.1z"/>
		<path class="st19" d="M229.6,65.2c0,0,1.1-0.3,2.1-2.3c2.4,1.9,6.5,5,6.2,6.1c-0.2,0.8-0.2,0.9-1.1,1.9c-0.7,0.7-1.8,0.8-2.6,0.1
			c-0.1-0.1-0.2-0.2-0.3-0.3c-1.4-1.7-2.9-3.3-4.6-4.7L229.6,65.2z"/>
		<path class="st20" d="M231.7,62.9c2.4,1.9,6.9,4.2,6.7,5.4c0,0.7-0.3,1.5-0.9,2c-0.7,0.7-1.8,0.8-2.5,0.2
			c-0.1-0.1-0.2-0.2-0.3-0.3c-2.3-2.8-5.2-4.5-5.2-4.8C230.6,64.8,231.4,64,231.7,62.9z"/>
		<path class="st19" d="M228.1,52.1l1.8,1.4c0,0,0.8-0.1,0.9-0.1c0.9-0.2,4.9-6.4,3.6-7.2s-3.2-1.4-3.6-1.1c0,0-0.7,0.3-0.7,0.3
			S227.7,52.2,228.1,52.1z"/>
		<path class="st20" d="M227.1,52.2c0.5,0.1,1,0.2,1.5,0.5c0.4,0.2,0.8,0.5,1.2,0.8c0.8,0.5,4.9-6.4,3.6-7.2s-3.1-1.1-3.6-0.8
			S226.7,52.3,227.1,52.2z"/>
		<ellipse transform="matrix(0.6046 -0.7965 0.7965 0.6046 41.9565 202.4815)" class="st21" cx="224.9" cy="59" rx="2.8" ry="2.5"/>
		<path class="st22" d="M207.9,50.1c0,0-21.6,0.4-30.1,3c0,0-21.6,9.5-39.2,19.8c2.9,0.5,25.2-1.1,28-1.9S201.5,54.6,207.9,50.1z"/>
		<path class="st23" d="M171.4,66.2c0,0-9.2-0.6-10-0.5s13.2-7.5,13.2-7.5s8.9,0.5,9.5,0.7S171.4,66.2,171.4,66.2z"/>
		<path class="st24" d="M138.4,73c0,0,13.4,30.8,19.5,37.3c3.2,0.8,22.2,0,27.1-2.5c-1.2-3.7-16-34.9-18.6-36.7
			C163.8,70.6,147,71.3,138.4,73z"/>
		<path class="st4" d="M207.9,50.1c0,0,8.3,15,13.4,26.6c2,4.4-0.1,10.8-0.7,11.3c-0.9,2.2-36.8,21.4-39.6,21
			c1.4-3.6,1.2-7.7-0.6-11.2c-3.8-7.4-9.4-17.7-14-26.8C167.4,69.7,200.9,52.4,207.9,50.1z"/>
		<path class="st0" d="M189.7,126.5c-0.2-0.8-0.4-1.5-0.7-2.2c-1.3-3-5.3-12.2-8.6-17.6c-1.9-3.2-3.1-5.4-4.1-7
			c-1.2-1.9-2.7-3.5-4.6-4.7c-3.8-2.7-8.6-3.4-13-1.9c-6.8,1.7-10.4,2.3-11.7,2.8c-1.2,1.1-6.2,7.7-6,12.8c0.1,3.7,1,8.6,4,12.2
			s15.4,21.2,20,21.1c5.3-0.1,18.8-2.4,22.4-5.7C190.6,133.4,190.6,130.1,189.7,126.5z"/>
		<path class="st1" d="M165.6,141.3c-2.2-0.1-4.3-0.3-6.4-0.8l-1-0.2c-1.9-0.3-7.2-3-13.4-6.9c-6.1-3.8-11-7.3-12.4-9
			c-2.9-3.5-3.7-8.3-3.8-11.8c-0.1-3,1.8-6.2,5.7-9.6l0.1-0.1l0.3-0.3c2.5-2.4,5.6-4.2,8.8-5.3c1.4-0.5,2.9-0.7,4.4-0.7
			c1.1,0,2.3,0.1,3.4,0.4c1.6,0.5,3.2,1.2,4.5,2.1c1.8,1.1,3.3,2.6,4.4,4.4c0.4,0.7,0.9,1.6,1.5,2.6c0.7,1.2,1.6,2.7,2.6,4.4
			c3.3,5.4,7.3,14.7,8.5,17.5c0.3,0.7,0.5,1.4,0.7,2.1c0.8,3.5,0.8,6.4-2.1,9.1C169.8,140.8,167.7,141.5,165.6,141.3z"/>
		<path d="M148.1,97.6c1.1,0,2.1,0.1,3.2,0.4c1.5,0.4,3,1.1,4.3,2c1.7,1.1,3.1,2.5,4.1,4.2c0.4,0.7,0.9,1.6,1.5,2.5
			c0.7,1.2,1.6,2.7,2.6,4.4c3.1,5.6,6,11.4,8.5,17.4c0.3,0.6,0.5,1.3,0.7,2c0.8,3.3,0.8,5.9-1.9,8.4c-1.5,1.3-3.5,1.9-5.5,1.8
			c-2.1-0.1-4.2-0.3-6.3-0.8l-1-0.2c-1.8-0.3-7.1-3.1-13.1-6.8s-10.9-7.3-12.2-8.8c-1.5-1.8-3.4-5.3-3.6-11.3c0-2,0.8-3.9,2.1-5.5
			c1-1.3,2.1-2.4,3.4-3.5l0.2-0.1l0.3-0.3c2.5-2.3,5.4-4,8.6-5.1C145.2,97.8,146.6,97.6,148.1,97.6 M148,96.1
			c-1.6,0-3.2,0.3-4.7,0.8c-3.5,1.2-6.7,3.2-9.4,5.7c-1.2,1.1-6.3,5.2-6.1,10.3c0.1,3.7,1,8.6,4,12.2s21.7,15.3,26.2,16.1
			c2.5,0.5,5,0.9,7.5,1c2.3,0.1,4.6-0.6,6.4-2.1c3.3-3,3.2-6.3,2.4-9.9c-0.2-0.8-0.4-1.5-0.8-2.2c-2.5-6-5.4-11.9-8.6-17.6
			c-1.9-3.2-3.1-5.4-4.1-7c-1.2-1.9-2.7-3.5-4.6-4.6c-1.5-1-3.1-1.7-4.8-2.2C150.4,96.3,149.2,96.1,148,96.1L148,96.1z"/>
		
			<ellipse transform="matrix(0.9944 -0.1056 0.1056 0.9944 -11.2973 15.4996)" class="st2" cx="140.8" cy="114.5" rx="8.2" ry="10.2"/>
		
			<ellipse transform="matrix(0.9944 -0.1056 0.1056 0.9944 -12.6424 16.829)" class="st2" cx="152.6" cy="127.8" rx="5.9" ry="7.3"/>
		
			<ellipse transform="matrix(0.9944 -0.1056 0.1056 0.9944 -13.0487 18.1439)" class="st2" cx="164.9" cy="132.3" rx="4.6" ry="5.8"/>
		<path class="st3" d="M180.3,106.7l-4-3.4l0.8,8.7c0,0-7.8-11.3-7.6-10.8s2.7,7.1,2.7,7.1l-4.8-4l2.6,7.1l-5.1-3.9l1.4,3.6l-2-1.8
			l9.2,12l-2.4-6.2l5.7,5.8l-2.4-7.4l4.8,5.3l-0.8-8.3l2.5,3.6l-2.9-7.4l3.8,5.6L180.3,106.7z"/>
		<polygon class="st3" points="159.8,92.9 165.5,95.1 159.9,94.3 164.5,96.7 156.2,94.5 157.9,95.9 152.1,94.7 		"/>
		
			<ellipse transform="matrix(0.9944 -0.1056 0.1056 0.9944 -11.306 15.4449)" class="st4" cx="140.2" cy="114.5" rx="2.8" ry="3.8"/>
		
			<ellipse transform="matrix(0.1374 -0.9905 0.9905 0.1374 4.5476 261.5099)" class="st4" cx="152.4" cy="128.1" rx="3.3" ry="2.4"/>
		<ellipse transform="matrix(0.14 -0.9901 0.9901 0.14 10.3632 278.2838)" class="st4" cx="165.4" cy="133.2" rx="2.4" ry="1.8"/>
		<path class="st25" d="M167.2,124.3c0,0-1.5-2.5-5.4-0.8c-0.9-1.6-2.8-6.1-9.8-4.9c0.2-1.6,2.4-8.6-3.5-14.8c2-1.1,3.2-1.8,6.1,1.2
			S167.5,123.5,167.2,124.3z"/>
		<path class="st26" d="M162.8,51.1l5.5,11.4l10-4.7c1.7-0.8,1.8-4,0.3-7.2s-4-5-5.7-4.2c-0.6,0.3-1,0.9-1.2,1.5L162.8,51.1z"/>
		<path class="st27" d="M206.1,27.9c-2.2,3.4-5.2,6.3-8.6,8.4c-3.3,1.9-6.9,3.5-10.6,4.6c-12.7,4.2-21,0.6-21,0.6s-3.2-8.6-4.3-11.4
			s0-10,0-10L206.1,27.9z"/>
		<path class="st27" d="M130.2,65c0,0,4.2,3,11.7-1S159,51.6,159,51.6l2.5-12.7L130.2,65z"/>
		<path class="st4" d="M161.1,22.4l-3.9,1.9l6.2,12.7l3.8-1.8C167.3,35.1,162.6,27,161.1,22.4z"/>
		<polygon class="st28" points="167.3,35.1 166.4,39.7 163.7,41 163.5,37 		"/>
		<polygon class="st29" points="170.2,33.7 159.8,38.7 169.3,56.7 179.1,51.8 		"/>
		<path class="st30" d="M167.2,35l1.4,2.1c0.1,0.1,0.2,0.2,0.3,0.2l3.6,0.7c0.2,0,0.4-0.1,0.5-0.3c0-0.1,0-0.1,0-0.2l-0.2-0.7
			c0-0.1-0.1-0.2-0.3-0.3l-4.8-2.1c-0.2-0.1-0.4,0-0.5,0.2C167.1,34.8,167.2,34.9,167.2,35L167.2,35z"/>
		<polygon class="st31" points="159,51.6 162,55.3 169.3,56.7 159.8,38.7 		"/>
		<path class="st27" d="M163.5,37.4c0,0,0.8,2.2,0.6,2.7c-1.7,2.2-3.5,4.3-5.5,6.3c-0.6,0.4-1.3-1.2-1.3-1.2L163.5,37.4z"/>
		<path class="st32" d="M163.5,37.4c0,0,1,2.7,0.4,2.9c-0.5,0.7-4.6,5.4-4.6,5.4"/>
		<path class="st33" d="M131.6,64.3c-0.5,0-0.9-0.2-1.2-0.6c-7.1-10-9-17.4-9.5-20.1c-0.1-0.6,0.1-1.2,0.6-1.5
			c10.1-7.4,21-13.6,32.6-18.4c0.7-0.3,1.4,0,1.8,0.6c2.7,4.2,6.2,11.5,6.7,13.9c-0.3,1.2-4.6,6.4-12.2,13.1s-14.7,11.8-18.3,12.9
			C131.9,64.3,131.8,64.3,131.6,64.3z"/>
		<path class="st34" d="M154.6,24.6c0.1,0,0.3,0.1,0.3,0.2c2.6,4.2,4.8,8.6,6.5,13.3c-1.1,1.6-2.3,3.2-3.7,4.5
			c-2.3,2.5-5.3,5.4-8.5,8.2c-7.4,6.5-14.1,11.2-17.5,12.3h-0.1c-0.1,0-0.3-0.1-0.3-0.2c-2.3-3.2-7.9-11.7-9.3-19.7
			c0-0.2,0-0.3,0.2-0.4c10-7.4,20.8-13.5,32.3-18.2C154.5,24.6,154.6,24.6,154.6,24.6 M154.6,22.4c-0.3,0-0.7,0.1-1,0.2
			C142,27.5,131,33.7,120.9,41.2c-0.8,0.6-1.2,1.6-1,2.6c1.5,8.5,7.4,17.4,9.7,20.6c0.5,0.7,1.3,1.1,2.1,1.1c0.3,0,0.5,0,0.8-0.1
			c9-2.8,31.9-24.4,31.4-27.2c-0.6-2.6-4.2-10.2-6.9-14.5C156.4,22.9,155.5,22.4,154.6,22.4z"/>
		<polygon class="st29" points="179.7,55 181.6,60.1 171,65.4 169.6,60.1 		"/>
		<polygon class="st31" points="163.6,60 162.6,65.1 171,65.4 169.6,60.1 		"/>
		
			<ellipse transform="matrix(0.9011 -0.4337 0.4337 0.9011 -8.2616 77.4195)" class="st35" cx="165.6" cy="56.8" rx="3.4" ry="6.3"/>
		<path class="st36" d="M167.2,34.8c0.4,0.9,1,1.7,1.6,2.5l3.6,0.7"/>
		<path class="st33" d="M172.7,35.4c-1,0.1-2.1,0-3.1-0.3c-1.6-1.9-5.2-9.2-6.9-13.9c-0.2-0.7,0-1.4,0.6-1.8
			c9.4-5.6,19.6-10,30.1-13.1c0.1,0,0.3-0.1,0.4-0.1c0.4,0,0.8,0.2,1.1,0.5c5.6,6.2,8.9,16,10,19.9c0.2,0.6,0,1.2-0.6,1.6
			C198.7,32.2,181.1,35.4,172.7,35.4z"/>
		<path class="st34" d="M193.8,7.5c0.1,0,0.2,0,0.2,0.1c2.7,3.2,4.9,6.7,6.5,10.5c1.3,2.9,2.4,5.9,3.3,8.9c0,0.1,0,0.3-0.1,0.3
			c-2.5,1.7-7.8,3.5-14.6,4.9c-5.4,1.2-10.9,1.8-16.5,2c-0.8,0-1.6,0-2.4-0.2c-2.6-4.2-4.7-8.6-6.4-13.3c0-0.1,0-0.3,0.1-0.4
			C173.3,14.9,183.3,10.5,193.8,7.5L193.8,7.5 M193.8,5.1c-0.2,0-0.5,0-0.7,0.1c-10.7,3-20.9,7.5-30.4,13.2c-1.1,0.7-1.6,2-1.1,3.2
			c1.7,4.7,5.4,12.3,7.1,14.3c0.4,0.5,1.8,0.7,4,0.7c8.1,0,26.2-3.1,32.4-7.3c0.9-0.7,1.3-1.8,1-2.9c-1.1-3.8-4.5-13.9-10.3-20.3
			C195.4,5.5,194.6,5.2,193.8,5.1L193.8,5.1z"/>
		<path class="st37" d="M148.6,47.1c-3.3-0.1-6.3-2-7.7-5c-1-2-1.3-4.4-0.7-6.6c0.6-2.1,2-3.8,3.9-4.8c1-0.5,2.2-0.8,3.4-0.8
			c0.4,0,0.7,0,1.1,0.1c2.8,0.5,5.3,2.3,6.6,4.9c2,3.6,1.1,8.2-2.1,10.8C151.8,46.6,150.2,47.1,148.6,47.1L148.6,47.1z"/>
		<path class="st38" d="M147.6,30.9L147.6,30.9c0.3,0,0.7,0,1,0.1c2.5,0.4,4.7,2,5.9,4.4c0.8,1.6,1.1,3.5,0.7,5.3
			c-0.3,1.7-1.3,3.1-2.6,4.2c-0.3,0.2-0.6,0.4-0.9,0.6c-0.9,0.5-1.9,0.7-2.9,0.7c-2.9-0.1-5.6-1.8-6.8-4.4c-0.9-1.8-1.2-3.9-0.6-5.9
			c0.5-1.8,1.7-3.3,3.3-4.2C145.5,31.2,146.5,30.9,147.6,30.9 M147.5,29.1c-1.3,0-2.6,0.3-3.8,0.9c-4.4,2.2-6,7.9-3.6,12.6
			c1.6,3.3,4.9,5.4,8.5,5.5c1.8,0,3.5-0.6,5-1.6c3.6-2.8,4.6-7.8,2.4-11.9c-1.4-2.9-4.1-4.9-7.3-5.4C148.4,29.1,148,29,147.5,29.1
			L147.5,29.1z"/>
		<path class="st37" d="M179.1,32.4c-3.3-0.1-6.2-2-7.7-4.9c-1-2-1.3-4.4-0.7-6.6c0.6-2.1,2-3.8,3.9-4.8c1-0.5,2.2-0.8,3.4-0.8
			c3.3,0.1,6.2,2,7.7,4.9c1,2,1.3,4.4,0.7,6.6c-0.6,2.1-2,3.8-3.9,4.8C181.5,32.2,180.3,32.4,179.1,32.4L179.1,32.4z"/>
		<path class="st38" d="M178,16.3c2.9,0.1,5.6,1.8,6.8,4.4c1.9,3.8,0.7,8.3-2.8,10.1c-0.9,0.5-1.9,0.7-2.9,0.7
			c-2.9-0.1-5.6-1.8-6.9-4.4c-1.9-3.8-0.7-8.3,2.8-10.1C176,16.5,177,16.3,178,16.3 M178,14.4c-1.3,0-2.6,0.3-3.8,0.9
			c-4.4,2.2-6,7.9-3.6,12.6c1.6,3.3,4.9,5.4,8.5,5.5c1.3,0,2.6-0.3,3.8-0.9c4.4-2.2,6-7.9,3.6-12.6C185,16.6,181.7,14.5,178,14.4z"
			/>
		
			<ellipse transform="matrix(0.8928 -0.4504 0.4504 0.8928 -8.0381 80.6775)" class="st39" cx="165.5" cy="57.2" rx="1.5" ry="3.2"/>
		<path class="st40" d="M179.4,52.6c4.8-1.6,28.5-2.5,28.5-2.5s13.4,24.6,13.4,26.6c0.6,2,1.7,4.3-0.3,10.5
			c-1,1.4-0.8,2.8-28.1,16.7c0,0-9.5,4.8-11.3,5"/>
		<path class="st40" d="M163.4,59.8c0,0-24.2,12.3-25,13.2c0,0,9.7,21.2,10.5,22.3"/>
		<path class="st17" d="M133.2,62.2l21,11c3.6,1.8,5.9,3.6,4.4,7.2l0,0c-1.8,3.3-3.8,2.8-7.4,1.8l-24.3-7c-3.6-1.5-5.3-5.6-3.9-9.2
			l0,0C124.4,62.4,129.6,60.8,133.2,62.2z"/>
		<path class="st18" d="M134.8,63l22,11.1c3.6,1.8,0.6,10.1-3,9l-24.3-7c-3.6-1.5-5.3-5.6-3.9-9.2l0,0
			C127.1,63.3,131.2,61.6,134.8,63C134.8,63,134.8,63,134.8,63z"/>
		<path class="st19" d="M126.5,64c0.7-0.9,1.7-1.4,2.8-1.6c-1.3-2.8-5.4-9-6.5-9c-1.2,0.2-2.3,0.6-3.2,1.3c-0.9,0.4-1.2,1.5-0.8,2.4
			c0.1,0.2,0.2,0.3,0.3,0.5c2.6,2.5,6.7,6.3,6.7,6.3L126.5,64z"/>
		<path class="st20" d="M129.3,62.5c-1.3-2.8-4.5-9.2-5.7-9.2c-1.2,0.1-2.3,0.5-3.3,1.1c-0.9,0.4-1.2,1.4-0.8,2.3c0,0,0,0,0,0
			c0.1,0.2,0.2,0.4,0.4,0.5c2.6,2.5,6.4,7,6.7,7C127.1,63.1,128.1,62.5,129.3,62.5z"/>
		<path class="st19" d="M124.1,68.2c0-1.1,0.5-2.1,1.2-2.9c-2.7-1.4-9.7-3.9-10.6-3.2c-0.8,0.9-1.4,1.9-1.8,3
			c-0.4,0.9-0.1,1.9,0.8,2.4c0.2,0.1,0.3,0.1,0.5,0.2c3.6,0.5,9.1,1,9.1,1L124.1,68.2z"/>
		<path class="st20" d="M125.4,65.2c-2.7-1.4-9.2-4.6-10.1-3.9c-0.8,0.8-1.5,1.8-2,2.8c-0.4,0.9-0.1,1.9,0.7,2.3c0,0,0,0,0,0
			c0.2,0.1,0.4,0.1,0.6,0.2c3.6,0.5,9.3,1.7,9.6,1.5C124.1,67.1,124.6,66,125.4,65.2z"/>
		<path class="st19" d="M125.6,73.2c-0.7-0.8-1.1-1.9-1-3c-3,0.7-8,1.8-8.2,2.9c-0.2,0.7-0.1,1.5,0.2,2.2c0.3,0.9,1.3,1.5,2.3,1.2
			c0.1,0,0.3-0.1,0.4-0.2c1.9-1,4-1.7,6.1-2.3L125.6,73.2z"/>
		<path class="st20" d="M124.6,70.1c-3,0.7-8.1,0.9-8.3,2.1c-0.3,0.7-0.3,1.5,0,2.2c0.3,0.9,1.3,1.5,2.3,1.2c0.1,0,0.3-0.1,0.4-0.2
			c3.2-1.6,6.7-1.9,6.8-2.2C124.9,72.4,124.4,71.3,124.6,70.1z"/>
		<path class="st19" d="M132.4,61.9l-2.2,0.5c0,0-0.7-0.4-0.8-0.5c-0.8-0.5-1.7-7.9-0.2-8s3.5,0.1,3.8,0.5c0,0.1,0.5,0.6,0.5,0.6
			S132.7,62.1,132.4,61.9z"/>
		<path class="st20" d="M133.2,62.4c-0.5-0.2-1-0.2-1.6-0.2c-0.5,0-1,0.1-1.5,0.2c-0.9,0.2-1.7-7.9-0.2-8s3.3,0.3,3.6,0.8
			S133.6,62.6,133.2,62.4z"/>
		
			<ellipse transform="matrix(0.9769 -0.2139 0.2139 0.9769 -11.7924 29.9229)" class="st21" cx="132.4" cy="69.5" rx="2.5" ry="2.8"/>
		<path class="st41" d="M179.9,75.6L203.6,63c1-0.5,2.2-0.2,2.7,0.8c0,0,0,0,0,0l0,0.1l6.7,14.4c0.4,1,0.1,2.1-0.9,2.6l-23.7,12.6
			c-1,0.5-2.2,0.1-2.7-0.8c0,0,0-0.1-0.1-0.1l-6.7-14.4C178.6,77.2,179,76.1,179.9,75.6z"/>
		<path class="st42" d="M179.9,76.5l23.6-12.7c0.8-0.4,1.7-0.1,2.1,0.6v0.1l6.7,14.5c0.3,0.7,0,1.6-0.7,2l-23.6,12.8
			c-0.8,0.4-1.7,0.1-2.1-0.7V93l-6.7-14.5C178.9,77.7,179.2,76.8,179.9,76.5z"/>
		<path class="st43" d="M198.8,75.5l-14.6,7.7c-0.5,0.2-1.1,0.1-1.3-0.4l-1.9-4.3c-0.2-0.5-0.1-1.1,0.4-1.3l14.6-7.7
			c0.5-0.3,1.1-0.1,1.3,0.4c0,0,0,0,0,0l1.9,4.3C199.4,74.6,199.2,75.2,198.8,75.5z"/>
		
			<ellipse transform="matrix(0.8967 -0.4426 0.4426 0.8967 -15.7822 90.0992)" class="st44" cx="185.2" cy="78.9" rx="1.9" ry="2.4"/>
		
			<ellipse transform="matrix(0.8967 -0.4426 0.4426 0.8967 -14.0364 92.0874)" class="st45" cx="190.3" cy="76.1" rx="1.9" ry="2.4"/>
		
			<ellipse transform="matrix(0.8967 -0.4426 0.4426 0.8967 -12.3849 94.0859)" class="st46" cx="195.4" cy="73.6" rx="1.9" ry="2.4"/>
		<path class="st47" d="M197.6,80.6l-11.5,6.1c-0.5,0.3-1.1,0.1-1.4-0.4c0,0,0,0,0-0.1l0,0c-0.3-0.5-0.1-1.1,0.4-1.4c0,0,0,0,0.1,0
			l11.5-6.1c0.5-0.3,1.1-0.1,1.4,0.4c0,0,0,0,0,0.1l0,0C198.3,79.7,198.2,80.3,197.6,80.6C197.7,80.6,197.7,80.6,197.6,80.6z"/>
		<path class="st48" d="M193.9,89.7l-5.1,2.7c-0.5,0.3-1.1,0.1-1.4-0.4c0,0,0-0.1,0-0.1l0,0c-0.3-0.5-0.1-1.1,0.4-1.4c0,0,0,0,0.1,0
			l5.1-2.7c0.5-0.3,1.1-0.1,1.4,0.5l0,0C194.6,88.8,194.4,89.4,193.9,89.7C193.9,89.7,193.9,89.7,193.9,89.7z"/>
		<path class="st48" d="M192.7,87.1l-5.1,2.7c-0.5,0.3-1.1,0.1-1.4-0.4c0,0,0,0,0-0.1l0,0c-0.3-0.5-0.1-1.1,0.4-1.4c0,0,0,0,0.1,0
			l5.1-2.7c0.5-0.3,1.1-0.1,1.4,0.4c0,0,0,0,0,0.1l0,0C193.4,86.1,193.2,86.8,192.7,87.1C192.7,87,192.7,87,192.7,87.1z"/>
		<polygon class="st49" points="198.5,68.2 205.4,64.5 212.2,79.2 205.2,82.9 		"/>
		
			<radialGradient id="SVGID_1_" cx="-1932.4601" cy="3502.5183" r="6.93" gradientTransform="matrix(0.1724 -7.990656e-02 7.990656e-02 0.1724 274.8173 -696.3991)" gradientUnits="userSpaceOnUse">
			<stop  offset="0.2" style="stop-color:#666666"/>
			<stop  offset="0.57" style="stop-color:#585858"/>
			<stop  offset="1" style="stop-color:#4D4D4D"/>
		</radialGradient>
		<path class="st50" d="M204.6,65.8c0.4-0.2,1,0,1.2,0.5s0.1,1.1-0.4,1.3c-0.4,0.2-1,0-1.2-0.5S204.2,66,204.6,65.8z"/>
		<path class="st51" d="M204.6,65.8c0.5,0.5,0.7,1.2,0.8,1.8"/>
		<path class="st51" d="M204.2,67.1c0.6-0.1,1.1-0.4,1.6-0.7"/>
		
			<radialGradient id="SVGID_2_" cx="-1960.5302" cy="3571.1182" r="6.93" gradientTransform="matrix(0.1724 -7.990656e-02 7.990656e-02 0.1724 274.8165 -696.387)" gradientUnits="userSpaceOnUse">
			<stop  offset="0.2" style="stop-color:#666666"/>
			<stop  offset="0.57" style="stop-color:#585858"/>
			<stop  offset="1" style="stop-color:#4D4D4D"/>
		</radialGradient>
		<path class="st52" d="M205.3,80.2c0.4-0.2,1,0,1.2,0.5s0.1,1.1-0.4,1.3c-0.4,0.2-1,0-1.2-0.5C204.7,81,204.8,80.4,205.3,80.2z"/>
		<path class="st51" d="M205.3,80.2c0.5,0.5,0.7,1.2,0.8,1.8"/>
		<path class="st51" d="M204.9,81.5c0.6-0.1,1.1-0.4,1.6-0.7"/>
		
			<radialGradient id="SVGID_3_" cx="-1931.6703" cy="3569.4082" r="6.93" gradientTransform="matrix(0.1724 -7.990656e-02 7.990656e-02 0.1724 274.8177 -696.3934)" gradientUnits="userSpaceOnUse">
			<stop  offset="0.2" style="stop-color:#666666"/>
			<stop  offset="0.57" style="stop-color:#585858"/>
			<stop  offset="1" style="stop-color:#4D4D4D"/>
		</radialGradient>
		<path class="st53" d="M210.2,77.6c0.4-0.2,1,0,1.2,0.5c0.2,0.5,0.1,1.1-0.4,1.3c-0.4,0.2-1,0-1.2-0.5S209.8,77.8,210.2,77.6z"/>
		<path class="st51" d="M210.2,77.6c0.5,0.5,0.7,1.1,0.8,1.8"/>
		<path class="st51" d="M209.8,78.8c0.6-0.1,1.1-0.4,1.6-0.7"/>
		
			<radialGradient id="SVGID_4_" cx="-1957.6002" cy="3503.6882" r="6.93" gradientTransform="matrix(0.1724 -7.990656e-02 7.990656e-02 0.1724 274.82 -696.3987)" gradientUnits="userSpaceOnUse">
			<stop  offset="0.2" style="stop-color:#666666"/>
			<stop  offset="0.57" style="stop-color:#585858"/>
			<stop  offset="1" style="stop-color:#4D4D4D"/>
		</radialGradient>
		<path class="st54" d="M200.3,68.1c0.4-0.2,1,0,1.2,0.5s0.1,1.1-0.4,1.3c-0.4,0.2-1,0-1.2-0.5S199.8,68.3,200.3,68.1z"/>
		<path class="st51" d="M200.3,68.1c0.5,0.5,0.7,1.1,0.8,1.8"/>
		<path class="st51" d="M199.9,69.4c0.6-0.1,1.1-0.4,1.6-0.7"/>
		<path class="st55" d="M184.7,86.3c1.1-1,2.5-1.6,3.9-1.8c2.2-0.2,1.5-2,2.4-2.4s1.7,0.8,2.8,0.1s0.5-1,1.1-1.2s0.9,0.3,1.4,0
			s0-2.1,0.3-2.2"/>
		<polygon class="st10" points="202.2,118.6 167.5,125.2 186.5,118.7 		"/>
		<polygon class="st12" points="202.2,118.6 203.9,125.5 168.3,128.5 167.5,125.2 		"/>
		<line class="st56" x1="145.1" y1="42.1" x2="146" y2="36"/>
		<line class="st56" x1="175.8" y1="26.7" x2="176.7" y2="20.6"/>
		<line class="st56" x1="146.1" y1="35.9" x2="152.1" y2="37.2"/>
		<line class="st56" x1="176.7" y1="20.6" x2="182.8" y2="21.9"/>
	</g>
</g>
</svg>
