<svg id="Layer_1" data-name="Layer 1" xmlns="http://www.w3.org/2000/svg" viewBox="0 0 704 704"><defs><style>.cls-1{fill:#38b900;}.cls-2{fill:#fff;}.cls-3{fill:#e7bb00;stroke-width:9px;}.cls-3,.cls-5,.cls-6{stroke:#fff;}.cls-3,.cls-5{stroke-miterlimit:10;}.cls-4{opacity:0.6;}.cls-5,.cls-6{fill:none;}.cls-5{stroke-width:3px;}.cls-6{stroke-linecap:round;stroke-linejoin:round;stroke-width:6px;stroke-dasharray:7 13;}</style></defs><title>distance</title><circle class="cls-1" cx="352" cy="352" r="352"/><rect class="cls-2" x="443.3" y="248.24" width="196" height="196" rx="10.49"/><circle class="cls-3" cx="157.05" cy="346.24" r="78"/><g class="cls-4"><line class="cls-5" x1="251.65" y1="344.46" x2="262.1" y2="354.91"/><line class="cls-5" x1="283.94" y1="336.97" x2="312.48" y2="365.52"/><line class="cls-5" x1="314.45" y1="329.9" x2="360.11" y2="375.56"/><line class="cls-5" x1="346.74" y1="322.42" x2="410.51" y2="386.18"/><line class="cls-5" x1="377.26" y1="315.34" x2="430.64" y2="368.72"/><line class="cls-5" x1="409.54" y1="307.86" x2="430.64" y2="328.95"/><line class="cls-5" x1="268.24" y1="340.62" x2="287.98" y2="360.36"/><line class="cls-5" x1="298.75" y1="333.54" x2="335.6" y2="370.4"/><line class="cls-5" x1="331.04" y1="326.06" x2="386" y2="381.02"/><line class="cls-5" x1="361.55" y1="318.98" x2="430.64" y2="388.06"/><line class="cls-5" x1="393.84" y1="311.5" x2="430.64" y2="348.29"/><line class="cls-5" x1="424.35" y1="304.42" x2="430.64" y2="310.7"/></g><line class="cls-6" x1="432.21" y1="275.1" x2="432.19" y2="417.39"/><line class="cls-6" x1="255.78" y1="319.89" x2="255.75" y2="379.48"/><path class="cls-2" d="M399.4,450.26a4.54,4.54,0,0,1-.6,2.12,7.29,7.29,0,0,1-1.81,2.16,9.57,9.57,0,0,1-3.08,1.65,13,13,0,0,1-4.18.63,10.2,10.2,0,0,1-7.71-2.88,10.67,10.67,0,0,1-2.77-7.73,12.62,12.62,0,0,1,1.27-5.79,9.1,9.1,0,0,1,3.67-3.9,11.32,11.32,0,0,1,5.74-1.38,11.56,11.56,0,0,1,3.8.61,9.75,9.75,0,0,1,2.92,1.56,7.53,7.53,0,0,1,1.84,2,4.07,4.07,0,0,1,.63,2,2.1,2.1,0,0,1-.71,1.62,2.45,2.45,0,0,1-1.73.67,1.72,1.72,0,0,1-1.1-.35,5.35,5.35,0,0,1-1-1.1,7.94,7.94,0,0,0-2-2.22,5,5,0,0,0-6.51,1.1,8,8,0,0,0-1.44,5.05,9.65,9.65,0,0,0,.37,2.76,6.37,6.37,0,0,0,1.07,2.15,4.59,4.59,0,0,0,1.7,1.34,5.08,5.08,0,0,0,2.19.46,4.94,4.94,0,0,0,2.74-.74,6.43,6.43,0,0,0,2-2.26,5.29,5.29,0,0,1,1.06-1.41,2,2,0,0,1,1.38-.51,2.07,2.07,0,0,1,1.62.74A2.41,2.41,0,0,1,399.4,450.26Z"/><path class="cls-2" d="M421.77,446.41v7.09A3.61,3.61,0,0,1,421,456a2.59,2.59,0,0,1-2,.84,2.5,2.5,0,0,1-2-.84,3.66,3.66,0,0,1-.76-2.51V445a27.73,27.73,0,0,0-.13-3.12,3.44,3.44,0,0,0-.74-1.83,2.42,2.42,0,0,0-1.92-.71c-1.74,0-2.89.6-3.44,1.8a12.51,12.51,0,0,0-.83,5.15v7.21a3.66,3.66,0,0,1-.75,2.5,2.74,2.74,0,0,1-4,0,3.61,3.61,0,0,1-.77-2.5V438.25a3.37,3.37,0,0,1,.69-2.29,2.34,2.34,0,0,1,1.83-.78,2.48,2.48,0,0,1,1.82.73,2.75,2.75,0,0,1,.74,2v.5a9.33,9.33,0,0,1,3-2.44,7.87,7.87,0,0,1,3.52-.78,7,7,0,0,1,3.45.8,6.32,6.32,0,0,1,2.39,2.42A9.24,9.24,0,0,1,424,436a7.41,7.41,0,0,1,3.41-.79,7.8,7.8,0,0,1,3.77.86,5.45,5.45,0,0,1,2.36,2.46,11.17,11.17,0,0,1,.69,4.55V453.5a3.61,3.61,0,0,1-.77,2.51,2.78,2.78,0,0,1-4,0,3.61,3.61,0,0,1-.77-2.5v-9a20.06,20.06,0,0,0-.15-2.75,3.11,3.11,0,0,0-.79-1.74,2.55,2.55,0,0,0-1.95-.7,3.55,3.55,0,0,0-2,.63,4.14,4.14,0,0,0-1.47,1.68A13.26,13.26,0,0,0,421.77,446.41Z"/></svg>