<svg id="Layer_1" data-name="Layer 1" xmlns="http://www.w3.org/2000/svg" viewBox="0 0 704 704"><defs><style>.cls-1{fill:#45acff;}.cls-2{opacity:0.2;}.cls-3{fill:#6d6e71;}.cls-4{fill:#ab2300;}.cls-5{fill:#cd2a00;}.cls-6{fill:#ff5023;}.cls-7{fill:#e6e7e8;}</style></defs><title>emergency</title><circle class="cls-1" cx="352" cy="352" r="352"/><g class="cls-2"><path d="M219.62,314.51,111.76,252.23a7.79,7.79,0,1,1,7.74-13.53l.06.06L227.42,301a7.76,7.76,0,0,1-3.9,14.48A8,8,0,0,1,219.62,314.51Z"/><path d="M205.81,152.52a7.77,7.77,0,0,1,13.4-7.88l.07.07,62.28,107.86a7.81,7.81,0,0,1-2.83,10.64,8.07,8.07,0,0,1-3.9,1,7.74,7.74,0,0,1-6.74-3.91Z"/><path d="M337,237.69V113.2a7.81,7.81,0,1,1,15.62,0V237.69a7.81,7.81,0,1,1-15.62,0Z"/><path d="M469.34,486.74h38.91v77.83H181.44V486.74h38.91V408.9a124.5,124.5,0,0,1,249,0Z"/><path d="M407.13,256.4a8,8,0,0,1,1-3.9l62.27-107.86a7.79,7.79,0,0,1,13.47,7.81L421.6,260.31a7.53,7.53,0,0,1-6.73,3.91A7.71,7.71,0,0,1,407.13,256.4Z"/><path d="M578,252.1l-.07.06L470.08,314.51a8.08,8.08,0,0,1-3.91,1,7.79,7.79,0,0,1-3.9-14.54L570.13,238.7A7.77,7.77,0,1,1,578,252.1Z"/></g><g id="surface1"><rect class="cls-3" x="191.44" y="476.74" width="326.81" height="77.83"/><path class="cls-4" d="M354.85,274.41V476.74H230.35V398.9A124.51,124.51,0,0,1,354.85,274.41Z"/><path class="cls-5" d="M479.34,398.9v77.84H354.85V274.41A124.51,124.51,0,0,1,479.34,398.9Z"/><path class="cls-6" d="M362.66,103.2V227.69a7.81,7.81,0,1,1-15.62,0V103.2a7.81,7.81,0,1,1,15.62,0Z"/><path class="cls-6" d="M288.73,253.21a8.07,8.07,0,0,1-3.9,1,7.74,7.74,0,0,1-6.74-3.91L215.81,142.52a7.77,7.77,0,0,1,13.4-7.88l.07.07,62.28,107.86A7.81,7.81,0,0,1,288.73,253.21Z"/><path class="cls-6" d="M240.25,301.68a7.87,7.87,0,0,1-6.73,3.84,8,8,0,0,1-3.9-1L121.76,242.23a7.79,7.79,0,1,1,7.74-13.53l.06.06L237.42,291A7.8,7.8,0,0,1,240.25,301.68Z"/><path class="cls-6" d="M588,242.1l-.07.06L480.08,304.51a8.08,8.08,0,0,1-3.91,1,7.79,7.79,0,0,1-3.9-14.54L580.13,228.7A7.77,7.77,0,1,1,588,242.1Z"/><path class="cls-6" d="M493.88,142.45,431.6,250.31a7.53,7.53,0,0,1-6.73,3.91,7.71,7.71,0,0,1-7.74-7.82,8,8,0,0,1,1-3.9l62.27-107.86a7.79,7.79,0,0,1,13.47,7.81Z"/><path class="cls-7" d="M448.23,406.71a7.81,7.81,0,0,1-7.81-7.81,85.78,85.78,0,0,0-85.64-85.64,7.81,7.81,0,1,1,0-15.62A101.3,101.3,0,0,1,456,398.84,7.72,7.72,0,0,1,448.23,406.71Z"/></g></svg>