<svg id="Layer_1" data-name="Layer 1" xmlns="http://www.w3.org/2000/svg" xmlns:xlink="http://www.w3.org/1999/xlink" viewBox="0 0 1500 1500"><defs><style>.cls-1{fill:#5cffef;}.cls-2{opacity:0.2;}.cls-3{fill:#353535;stroke-width:1.46px;}.cls-22,.cls-24,.cls-3,.cls-32{stroke:#000;}.cls-22,.cls-24,.cls-3{stroke-linejoin:round;}.cls-11,.cls-12,.cls-16,.cls-17,.cls-4,.cls-41,.cls-42,.cls-46,.cls-47{fill:#4d4d4d;}.cls-5{fill:#b3b3b3;}.cls-6{fill:#f9f7f7;opacity:0.41;isolation:isolate;}.cls-7{fill:#d3161d;}.cls-13,.cls-38,.cls-43,.cls-8{fill:#77401b;}.cls-13,.cls-25,.cls-27,.cls-36,.cls-38,.cls-43,.cls-62,.cls-8{stroke:#070707;}.cls-10,.cls-11,.cls-12,.cls-13,.cls-14,.cls-15,.cls-16,.cls-17,.cls-21,.cls-23,.cls-25,.cls-27,.cls-28,.cls-32,.cls-36,.cls-38,.cls-39,.cls-40,.cls-41,.cls-42,.cls-43,.cls-44,.cls-45,.cls-46,.cls-47,.cls-57,.cls-58,.cls-59,.cls-60,.cls-61,.cls-62,.cls-8,.cls-9{stroke-miterlimit:10;}.cls-13,.cls-14,.cls-21,.cls-22,.cls-36,.cls-38,.cls-39,.cls-43,.cls-44,.cls-8,.cls-9{stroke-width:2px;}.cls-10,.cls-11,.cls-12,.cls-8,.cls-9{opacity:0.11;}.cls-14,.cls-18,.cls-39,.cls-44,.cls-9{fill:#f8c946;}.cls-14,.cls-39,.cls-44,.cls-9{stroke:#020202;}.cls-10,.cls-15,.cls-33,.cls-40,.cls-45{fill:#282828;}.cls-10,.cls-11,.cls-12,.cls-15,.cls-16,.cls-17,.cls-40,.cls-41,.cls-42,.cls-45,.cls-46,.cls-47{stroke:#151616;}.cls-10,.cls-11,.cls-15,.cls-16,.cls-40,.cls-41,.cls-45,.cls-46{stroke-width:1.64px;}.cls-12,.cls-17,.cls-42,.cls-47{stroke-width:6px;}.cls-19{fill:#683919;}.cls-20,.cls-27{fill:#945320;}.cls-21{fill:#adadad;stroke:#080000;}.cls-22{fill:#515051;}.cls-23,.cls-26{fill:#161616;}.cls-23,.cls-28,.cls-57,.cls-58,.cls-59,.cls-60,.cls-61{stroke:#0a0a0a;}.cls-23,.cls-24,.cls-25,.cls-27,.cls-28,.cls-32{stroke-width:1.73px;}.cls-24{fill:#8e8a8b;}.cls-25{fill:#e2b647;}.cls-28,.cls-32,.cls-36,.cls-58,.cls-62{fill:none;}.cls-29{fill:#dddbd7;}.cls-30{fill:#232323;}.cls-31{fill:#3a3a3a;}.cls-34{fill:#7c7c7c;}.cls-35{fill:#666;}.cls-37{fill:#389cce;}.cls-38,.cls-39,.cls-40,.cls-41,.cls-42{opacity:0.06;}.cls-43,.cls-44,.cls-45,.cls-46,.cls-47{opacity:0.16;}.cls-48{fill:#7f1119;}.cls-49{fill:#5e0e18;}.cls-50{fill:#352f49;}.cls-51{fill:#e41e00;}.cls-52{fill:#fffe28;}.cls-53{fill:#18ff08;}.cls-54{fill:#dbdddd;}.cls-55{fill:#0fb0db;}.cls-56{fill:#303435;}.cls-57,.cls-58,.cls-59,.cls-60,.cls-61{stroke-width:0.78px;}.cls-57{fill:url(#radial-gradient);}.cls-59{fill:url(#radial-gradient-2);}.cls-60{fill:url(#radial-gradient-3);}.cls-61{fill:url(#radial-gradient-4);}</style><radialGradient id="radial-gradient" cx="466.26" cy="827.38" r="10.75" gradientTransform="matrix(0, -0.96, 0.96, 0, -252.2, 1114.53)" gradientUnits="userSpaceOnUse"><stop offset="0.2" stop-color="#666"/><stop offset="0.57" stop-color="#585858"/><stop offset="1" stop-color="#4d4d4d"/></radialGradient><radialGradient id="radial-gradient-2" cx="422.74" cy="721.05" r="10.75" gradientTransform="matrix(0, -0.96, 0.96, 0, -115.29, 1176.93)" xlink:href="#radial-gradient"/><radialGradient id="radial-gradient-3" cx="467.49" cy="723.7" r="10.75" gradientTransform="matrix(0, -0.96, 0.96, 0, -160.34, 1214.55)" xlink:href="#radial-gradient"/><radialGradient id="radial-gradient-4" cx="428.07" cy="822.85" r="10.75" gradientTransform="matrix(0, -0.96, 0.96, 0, -209.44, 1086.07)" xlink:href="#radial-gradient"/></defs><title>lifted</title><circle class="cls-1" cx="750" cy="750" r="750"/><ellipse class="cls-2" cx="728.56" cy="1245.36" rx="461.55" ry="81.47"/><g id="Layer_4" data-name="Layer 4"><path class="cls-3" d="M322.5,871A106.73,106.73,0,0,1,328,853.92c9.57-23.15,39.19-93.14,63.69-134.56,14.44-24.39,23.39-41.12,30.85-53.63a110.71,110.71,0,0,1,34.59-35.84c9.42-6.12,20.22-13,35.95-17.34,20.55-5.72,41.94-3.42,62.66,1.61,51.66,12.55,79.63,16.46,89.57,20.76,9.41,7.93,48.07,58,47,96.78-.74,28-6.79,65.66-29.38,93.51S547.12,988.11,512.43,987.56c-40.53-.65-143.17-16.8-171-41.69C316.39,923.49,316.27,898.31,322.5,871Z"/><path class="cls-4" d="M480,978.21a50.5,50.5,0,0,1-18.24-10.4c-22.67-20.26-23.22-42.33-17.09-69.17a101.66,101.66,0,0,1,5.2-16.15c8.69-20.9,38.82-92.36,63.34-133.81,8-13.48,14.4-24.86,19.56-34,4.27-7.54,7.94-14.06,11.26-19.61a105.62,105.62,0,0,1,32.77-33.94c8.46-5.49,19-12.36,34.34-16.61a102.77,102.77,0,0,1,59.28,1.55l1.1.37c34.61,11.45,57.08,30.9,66.67,39.21l2.35,2,1.21,1c5.48,4.59,16.87,14.13,26.77,27,11.91,15.49,17.76,30.75,17.39,45.27-.65,26.11-6.11,62.89-28.07,90-10,12.3-47.49,40.15-93.31,69.27-47,29.84-86.74,50.92-101.29,53.71l-7.27,1.41C530.92,980.18,502.65,985.72,480,978.21Z"/><path d="M669.64,652c33.51,11.09,55.36,30,64.7,38.08l2.4,2.07,1.22,1c5.33,4.43,16.38,13.71,25.89,26.1,11.08,14.4,16.52,28.38,16.18,41.55-1.19,45.63-15.21,72.19-26.77,86.44-9.47,11.68-47.26,39.65-91.91,68-45.66,29-85.56,50.28-99.24,52.9q-3.58.68-7.3,1.41c-24.27,4.74-51.78,10.11-73,3.09a45,45,0,0,1-16.19-9.2c-9.67-8.66-15.39-18.16-17.46-29-1.79-9.41-1.12-20.05,2.18-34.49a96.1,96.1,0,0,1,4.91-15.25c8.66-20.8,38.64-92,63-133.06,8-13.52,14.47-24.94,19.62-34.12,4.26-7.48,7.9-14,11.18-19.47A99.58,99.58,0,0,1,580,666c8.14-5.3,18.25-11.85,32.72-15.88a96.92,96.92,0,0,1,55.89,1.5l1.06.35m3.68-11.1-1.13-.38a108.92,108.92,0,0,0-62.66-1.62c-15.75,4.38-26.55,11.23-35.95,17.35A110.54,110.54,0,0,0,539,692.07c-7.48,12.46-16.4,29.22-30.84,53.63-24.5,41.42-54.12,111.41-63.71,134.55a107.13,107.13,0,0,0-5.5,17.1c-6.22,27.3-6.11,52.48,18.91,74.84a56.7,56.7,0,0,0,20.3,11.59c26.42,8.75,59.46,1,86.13-4.12,34.13-6.48,175.5-97.19,198.09-125s28.63-65.49,29.37-93.51c1-38.83-38-70-47.45-77.9-7.9-6.66-32-29.42-71-42.31Z"/><ellipse class="cls-5" cx="694.02" cy="774.87" rx="77.93" ry="62.27" transform="translate(-142.74 1392.88) rotate(-84.6)"/><ellipse class="cls-5" cx="604.58" cy="877.77" rx="55.83" ry="44.61" transform="translate(-326.19 1397.06) rotate(-84.6)"/><ellipse class="cls-5" cx="511.96" cy="913.14" rx="43.93" ry="35.11" transform="translate(-445.31 1336.89) rotate(-84.6)"/><path class="cls-6" d="M391.7,719.36l30.12-26.58L416.34,759s58.47-87,57.33-83.21-20.29,54.54-20.29,54.54l36.35-31.11-19.51,54.52,38.2-30.4L498,751l15.14-13.8L444,829.53l18-47.34-42.71,45,17.91-56.8-36,40.56,5.21-63.32L387.72,775.2l21.41-56.47-28.41,43.21Z"/><polygon class="cls-6" points="547.01 612.24 503.54 629.17 546.03 622.66 511.56 641.35 574.52 624.34 561.92 634.69 605.83 625.46 547.01 612.24"/><ellipse class="cls-7" cx="697.98" cy="775.25" rx="29.12" ry="21.17" transform="translate(-139.52 1397.17) rotate(-84.6)"/><ellipse class="cls-7" cx="606.38" cy="880.15" rx="18.29" ry="25.14" transform="translate(-124.25 100.06) rotate(-8.56)"/><ellipse class="cls-7" cx="511.71" cy="916.1" rx="13.55" ry="18.62" transform="translate(-130.65 86.37) rotate(-8.56)"/><path class="cls-8" d="M418.62,680.6l160.62-81.75c27.76-13.07,45-27.06,34.17-54.6h0c-13.44-25.64-28.46-22-55.95-14l-186.07,51a53.92,53.92,0,0,0-30.47,69.65h0C351.72,678.44,391.08,691.38,418.62,680.6Z"/><path class="cls-9" d="M431,674.56,599.59,592c27.76-13.08,5.7-76.62-21.78-68.59l-186.07,51a53.91,53.91,0,0,0-30.46,69.66h0A53.92,53.92,0,0,0,431,674.56Z"/><path class="cls-10" d="M367.47,666.18s4.31,8,20.75,12.08c-10.11,20.91-41.68,67.57-50.58,67.7-6.06.1-15.7-5-24.63-10-8-4.55-10.08-15-3.44-21.44,19.83-19.08,51.29-47.69,51.29-47.69Z"/><path class="cls-11" d="M388.63,678.36c-10.11,20.91-35.31,69.59-44.21,69.72-6.06.1-16.24-4.11-25-8.38A13.23,13.23,0,0,1,316,718.27c19.83-19.08,49.38-52.5,51.7-52.77A27.81,27.81,0,0,0,388.63,678.36Z"/><path class="cls-10" d="M350.05,634.47s-1.42,9,9.23,22.17c-20.7,10.54-74.07,28.6-81.24,23.36-4.88-3.59-9.51-13.44-13.55-22.92-3.63-8.47,1.08-18.06,10.23-19.16,27.35-3.22,69.69-7,69.69-7Z"/><path class="cls-11" d="M359.55,657c-20.7,10.54-70.22,34.07-77.38,28.78-4.88-3.59-10.43-13.09-14.85-21.8a13.25,13.25,0,0,1,5.78-17.81,13.53,13.53,0,0,1,4.44-1.35c27.36-3.23,71.08-11.94,73.08-10.71A27.68,27.68,0,0,0,359.55,657Z"/><path class="cls-10" d="M361.27,596.22s-7,5.8-7.78,22.71C331,613.11,293,604.5,291.09,595.84c-1.28-5.92-1.63-6.67,1.61-16.43,2.89-8.75,12.17-11.82,20.35-7.57a230.43,230.43,0,0,0,46.31,18Z"/><path class="cls-11" d="M353.44,619.34c-22.5-5.82-61.27-7.79-63.13-16.49-1.28-5.92-2.55-7-.08-16.48,2.33-8.91,12.11-11.69,20.35-7.57,24.56,12.29,50.64,15.24,51.35,17.46A28,28,0,0,0,353.44,619.34Z"/><path class="cls-10" d="M412.63,683l-16.93-3.89s-5.12,2.75-6.18,3.45c-5.92,3.94-13.75,59.8-2.44,61.21s26.66-.22,28.66-3.68c.24-.43,4-4.22,4-4.22S415.11,681.09,412.63,683Z"/><path class="cls-11" d="M418.77,679.54a36.73,36.73,0,0,1-11.92,1.62,63.07,63.07,0,0,1-11.15-2c-7-1.51-13.75,59.81-2.44,61.22s25.41-1.93,27.41-5.39S421.57,677.35,418.77,679.54Z"/><ellipse class="cls-12" cx="413.02" cy="625.36" rx="21.06" ry="19" transform="translate(-289.56 886.21) rotate(-76.93)"/><path class="cls-8" d="M543.7,781.65l103.14-147.8c18.33-24.61,26.9-45,4.41-64.25h0c-23.93-16.28-35.48-6-55.94,14L455.22,716.27a53.91,53.91,0,0,0,5.95,75.79h0C483.68,811.27,524.49,804.14,543.7,781.65Z"/><path class="cls-9" d="M551.74,770.51,661.58,618.26C679.91,593.64,630.5,548,610.05,568L470,700.67a53.92,53.92,0,0,0,6,75.8h0A53.93,53.93,0,0,0,551.74,770.51Z"/><path class="cls-10" d="M491.79,793s7.59,5.05,24,.87c.93,23.21-4.93,79.24-12.71,83.55-5.3,2.94-16.18,3-26.45,2.77-9.21-.24-16-8.52-13.14-17.29,8.5-26.18,22.76-66.24,22.76-66.24Z"/><path class="cls-11" d="M516.19,793.8c.94,23.21,1.65,78-6.14,82.33-5.3,3-16.26,4-26,4.4a13.25,13.25,0,0,1-13.14-17.28c8.5-26.18,18.82-69.57,20.74-70.9A27.75,27.75,0,0,0,516.19,793.8Z"/><path class="cls-10" d="M461.49,773.28s3,8.61,18.58,15.2c-13.29,19-51.86,60.14-60.65,58.89-6-.87-14.72-7.37-22.75-13.83-7.19-5.76-7.56-16.44,0-21.72,22.6-15.73,58.18-39,58.18-39Z"/><path class="cls-11" d="M480.46,788.63c-13.29,19.06-45.88,63.15-54.69,61.85-6-.87-15.36-6.63-23.37-12.23a13.25,13.25,0,0,1,0-21.71c22.61-15.74,57.06-44,59.4-43.89A27.7,27.7,0,0,0,480.46,788.63Z"/><path class="cls-10" d="M453.35,734.25s-3.47,8.43,3.84,23.7c-22.57,5.46-60.18,15.79-65.92,9-3.91-4.62-4.57-5.12-6.32-15.25-1.57-9.08,5.17-16.16,14.38-16.27a230.3,230.3,0,0,0,49.35-5.9Z"/><path class="cls-11" d="M457.34,758.34c-22.58,5.46-57.71,22-63.45,15.21-3.92-4.63-5.57-5-7.84-14.5-2.14-9,5.17-16,14.38-16.28C427.89,742,452.28,732.35,454,734A28,28,0,0,0,457.34,758.34Z"/><path class="cls-10" d="M539.55,786.59l-16.77,4.54s-3.22,4.84-3.83,6c-3.36,6.27,16.06,59.22,26.7,55.14s23.4-12.76,23.54-16.75c0-.5,1.58-5.63,1.58-5.63S540.83,783.74,539.55,786.59Z"/><path class="cls-11" d="M543.34,780.64a36.9,36.9,0,0,1-9.76,7.05,62,62,0,0,1-10.8,3.44c-6.85,2,16.06,59.23,26.69,55.15s21.51-13.67,21.64-17.66S544.77,777.39,543.34,780.64Z"/><ellipse class="cls-12" cx="512.73" cy="735.56" rx="19" ry="21.06" transform="translate(-173.31 158.25) rotate(-15.04)"/><path class="cls-13" d="M396.1,451.4l164,74.71c28.3,11.86,46.07,25.09,36.49,53.07h0c-12.3,26.2-27.47,23.23-55.27,16.36L353.25,552.7a53.9,53.9,0,0,1-33.46-68.27h0C329.37,456.45,368.12,441.82,396.1,451.4Z"/><path class="cls-14" d="M408.68,456.9,580.74,532c28.3,11.86,9,76.3-18.8,69.47L373.89,558.63a53.9,53.9,0,0,1-33.46-68.27h0A53.91,53.91,0,0,1,408.68,456.9Z"/><path class="cls-15" d="M345.63,468s3.95-8.2,20.2-12.95c-11-20.46-44.57-65.72-53.47-65.46-6.05.17-15.46,5.62-24.17,11.08-7.84,4.88-9.42,15.46-2.51,21.57,20.62,18.23,53.3,45.43,53.3,45.43Z"/><path class="cls-16" d="M366.24,454.94c-11-20.46-38.3-68-47.19-67.75-6.06.17-16.06,4.81-24.63,9.45a13.25,13.25,0,0,0-2.51,21.58c20.62,18.22,51.6,50.3,53.94,50.47A27.75,27.75,0,0,1,366.24,454.94Z"/><path class="cls-15" d="M329.6,500.45s-1.82-8.93,8.25-22.54c-21.13-9.66-75.24-25.37-82.17-19.78-4.7,3.77-8.91,13.82-12.53,23.39-3.29,8.7,1.84,18.06,11,18.76,27.47,2.05,69.93,3.94,69.93,3.94Z"/><path class="cls-16" d="M338.11,477.57c-21.13-9.65-71.63-31-78.56-25.41-4.71,3.78-9.87,13.54-13.9,22.42a13.25,13.25,0,0,0,6.56,17.55,13.46,13.46,0,0,0,4.49,1.15c27.47,2,71.52,8.85,73.48,7.58A27.84,27.84,0,0,1,338.11,477.57Z"/><path class="cls-15" d="M342.45,538.17s-7.27-5.48-8.75-22.34c-22.22,6.79-59.84,17-61.34,25.8-1,6-1.34,6.74,2.32,16.35,3.27,8.61,12.67,11.3,20.66,6.68a230.09,230.09,0,0,1,45.49-20Z"/><path class="cls-16" d="M333.67,515.41c-22.22,6.79-60.86,10.43-62.34,19.21-1,6-2.25,7.16.63,16.47,2.73,8.81,12.61,11.16,20.67,6.68,24-13.38,49.93-17.42,50.56-19.7A27.56,27.56,0,0,1,333.67,515.41Z"/><path class="cls-15" d="M390,449.28l-16.73,4.61s-5.21-2.53-6.29-3.19c-6.09-3.68-16.33-59.14-5.1-61.05s26.65-1,28.8,2.42c.27.42,4.22,4.06,4.22,4.06S392.6,451.07,390,449.28Z"/><path class="cls-16" d="M396.3,452.44a36.94,36.94,0,0,0-12-1.09,63.39,63.39,0,0,0-11.06,2.56c-6.89,1.81-16.33-59.16-5.1-61.06s25.49.83,27.62,4.19S399.22,454.5,396.3,452.44Z"/><ellipse class="cls-17" cx="392.92" cy="506.91" rx="19" ry="21.06" transform="translate(-121.57 123.98) rotate(-15.56)"/><path class="cls-18" d="M471.19,559.55s154.58-57,222.13-62.32c0,0,179.68,7.25,332.68,31.74-19.47,11.81-181.56,61.78-204.1,64.06S529.53,573.73,471.19,559.55Z"/><path class="cls-19" d="M774.94,571.9s63.45-29.65,69.76-31.12-114.86-16.86-114.86-16.86S668.3,551.68,664,555.06,774.94,571.9,774.94,571.9Z"/><path class="cls-20" d="M1028,528.74s-9.74,256-34.82,318.66c-20.52,14.32-157.35,61.38-199.35,57.4-1.95-29.64,16.46-291.85,30-312C840.57,582.08,962.3,540.86,1028,528.74Z"/><path class="cls-7" d="M471.19,559.55s-17.05,129.72-21.37,225.66c-1.64,37,30.39,76.07,36.23,78,12.3,13.62,320.15,49.83,339.64,39.17,0,0-31.73-30.29-26.61-81,6.44-63.36,17.28-151.86,24.74-228.59C813,585.8,527.32,556.45,471.19,559.55Z"/><path class="cls-3" d="M705.86,956.34a106.54,106.54,0,0,1,5.49-17.08c9.59-23.15,39.21-93.14,63.71-134.56,14.44-24.39,23.4-41.16,30.85-53.64a110.71,110.71,0,0,1,34.59-35.84c9.41-6.11,20.22-13,36-17.34,20.55-5.72,41.93-3.42,62.66,1.62,51.66,12.54,79.63,16.46,89.57,20.76,9.4,7.93,48.06,58,47,96.79-.73,28-6.78,65.65-29.37,93.51s-115.87,162.89-150.57,162.35c-40.53-.65-143.16-16.8-171-41.69C699.75,1008.83,699.63,983.65,705.86,956.34Z"/><path class="cls-4" d="M863.32,1063.54a50.5,50.5,0,0,1-18.23-10.39C822.42,1032.9,821.87,1010.81,828,984a101.44,101.44,0,0,1,5.2-16.16c8.69-20.9,38.82-92.36,63.34-133.81,8-13.48,14.39-24.87,19.56-34,4.27-7.54,7.93-14.06,11.26-19.6a105.48,105.48,0,0,1,32.76-33.94c8.47-5.5,19-12.36,34.34-16.61a102.63,102.63,0,0,1,59.29,1.55l1.09.36c34.62,11.46,57.08,30.9,66.68,39.2l2.36,2,1.2,1c5.47,4.58,16.87,14.13,26.77,27,11.92,15.49,17.76,30.75,17.38,45.26-.64,26.11-6.1,62.89-28.06,90-10,12.31-47.48,40.15-93.32,69.28-47,29.85-86.73,50.92-101.29,53.71l-7.27,1.4C914.26,1065.51,886,1071,863.32,1063.54Z"/><path d="M1053,737.31c33.51,11.09,55.36,30,64.7,38.08l2.41,2.07,1.22,1c5.32,4.42,16.37,13.71,25.89,26.09,11.08,14.41,16.52,28.39,16.17,41.55-1.19,45.64-15.2,72.2-26.76,86.44-9.47,11.69-47.27,39.67-91.9,68-45.68,29-85.57,50.29-99.25,52.91-2.39.44-4.83.92-7.3,1.4-24.28,4.74-51.78,10.11-73,3.1A45,45,0,0,1,849,1048.8c-9.68-8.66-15.4-18.15-17.46-29-1.8-9.4-1.12-20,2.18-34.48A94.88,94.88,0,0,1,838.64,970c8.67-20.81,38.64-91.95,63-133.07,8-13.52,14.48-24.94,19.63-34.12,4.25-7.48,7.9-14,11.18-19.46a99.48,99.48,0,0,1,30.94-32c8.14-5.31,18.25-11.86,32.72-15.88a96.77,96.77,0,0,1,55.92,1.48l1.06.35m3.67-11.11-1.14-.38a108.88,108.88,0,0,0-62.65-1.62c-15.75,4.38-26.55,11.23-35.94,17.35a110.55,110.55,0,0,0-34.65,35.83c-7.48,12.47-16.4,29.23-30.84,53.64-24.5,41.42-54.12,111.42-63.71,134.56a105.66,105.66,0,0,0-5.49,17.09c-6.24,27.3-6.12,52.48,18.89,74.84a57.08,57.08,0,0,0,20.3,11.59c26.43,8.74,59.46,1,86.14-4.12,34.13-6.48,175.49-97.19,198.08-125.05s28.65-65.49,29.37-93.5c1-38.84-38-70-47.44-77.89-7.9-6.67-32-29.42-71-42.31Z"/><ellipse class="cls-5" cx="1077.37" cy="860.21" rx="77.93" ry="62.27" transform="translate(119.58 1851.85) rotate(-84.6)"/><ellipse class="cls-5" cx="987.94" cy="963.1" rx="55.83" ry="44.61" transform="translate(-63.86 1856.01) rotate(-84.6)"/><ellipse class="cls-5" cx="895.32" cy="998.48" rx="43.93" ry="35.11" transform="translate(-182.99 1795.85) rotate(-84.6)"/><path class="cls-6" d="M775.06,804.71l30.12-26.59-5.47,66.21s58.47-87,57.31-83.21-20.3,54.59-20.3,54.59l36.36-31.18L853.61,839l38.2-30.39-10.47,27.68,15.14-13.8-69.1,92.34,18-47.34-42.72,45,17.91-56.8-36,40.56L789.79,833l-18.7,27.57,21.42-56.47L764.1,847.32Z"/><polygon class="cls-6" points="930.37 697.57 886.9 714.5 929.38 708 894.92 726.68 957.88 709.68 945.28 720.03 989.19 710.8 930.37 697.57"/><ellipse class="cls-7" cx="1081.34" cy="860.59" rx="29.12" ry="21.17" transform="translate(122.81 1856.14) rotate(-84.6)"/><ellipse class="cls-7" cx="989.72" cy="965.48" rx="18.29" ry="25.14" transform="translate(-132.68 158.06) rotate(-8.56)"/><ellipse class="cls-7" cx="895.06" cy="1001.43" rx="13.55" ry="18.62" transform="matrix(0.99, -0.15, 0.15, 0.99, -139.08, 144.37)"/><path class="cls-21" d="M876.46,937.45s11.46-19.11,41-6.79c6.52-12.42,20.73-46.37,74.21-38.08C990,880.42,972.92,827.05,1017,779.44c-15.21-8.29-24.59-13.74-46.55,9.31S874.77,931.19,876.46,937.45Z"/><path class="cls-22" d="M793.75,441.35l-7.3,96.21L702.11,532c-14.08-1.11-23.89-23.47-21.88-50s15.08-47.24,29.17-46.16c4.74.36,9,3.12,12.48,7.68Z"/><path class="cls-23" d="M422.05,397s30.06,24.42,84.71,35.6c24.28,5,56.55,4.62,87.85,3C696.23,430.27,745,381.28,745,381.28s-1.41-69.76-.94-93.14-27.8-71-27.8-71Z"/><path class="cls-23" d="M1063.88,449s-21.79,32.85-85.92,25.13-155.89-39.78-155.89-39.78l-52.74-82.63Z"/><path class="cls-7" d="M726.18,232.68,759,235.15l-8.95,107.61L718,340.32S728.36,269.46,726.18,232.68Z"/><polygon class="cls-24" points="718.01 340.28 736.9 370.5 759.76 372.24 750.05 342.71 718.01 340.28"/><polygon class="cls-25" points="692.97 338.38 780.72 345.04 763.4 499.23 680.36 490.98 692.97 338.38"/><path class="cls-26" d="M718.21,339.38l-3.72,18.31a3.15,3.15,0,0,1-1.43,2.1l-23.83,14.95a3.2,3.2,0,0,1-4.39-1,3.27,3.27,0,0,1-.47-1.46l-.38-5.15a3.19,3.19,0,0,1,1.1-2.63L713,336.39a3.18,3.18,0,0,1,5.17,3Z"/><polygon class="cls-27" points="822.07 434.31 811.09 468.56 763.4 499.23 780.72 345.04 822.07 434.31"/><path class="cls-23" d="M750.94,345.48s.12,17.92,3.61,21,50.71,27.93,56.46,29.16,5.65-12.24,5.65-12.24Z"/><path class="cls-28" d="M750.94,345.48s.19,21.64,5,22c5.57,3.29,47.2,25.39,47.2,25.39"/><path class="cls-29" d="M920.93,422a1106.13,1106.13,0,0,1-108.47-42.27c-37.11-17-50.9-27.14-53.36-30.47-2.93-19.25,1.77-80.12,9.13-117.73a11.51,11.51,0,0,1,11.34-9.3c127.56.76,248.14,30.85,282.06,40l.59.2a11.72,11.72,0,0,1,7.76,8.78c5.48,26.94,6.1,59.58,1.87,97a561.17,561.17,0,0,1-13.23,72.19,11.45,11.45,0,0,1-10.29,8.67c-23.72,1.66-70.12-8.24-127.39-27.19Z"/><path class="cls-30" d="M1059.58,270.46a3.29,3.29,0,0,1,2.12,2.48c5.29,26.07,5.88,57.83,1.74,94.39a553.09,553.09,0,0,1-13,71.08,3,3,0,0,1-2.69,2.32c-22.67,1.58-67.93-8.18-124.17-26.79a1109.65,1109.65,0,0,1-104.34-40.45C787,358.9,772,349.39,767.12,345.28c-1.83-19.57,2.08-74.83,9.4-112.16a3.05,3.05,0,0,1,3-2.47c126.54.76,246.27,30.64,279.9,39.76l.15,0m5.3-16-1-.34c-36.68-10-156.4-39.59-284.2-40.34A20,20,0,0,0,760,229.87c-7.36,37.54-12.5,101.54-9.06,121.51C753.17,364.48,837,403,918.28,430c51.84,17.15,102.65,29.52,130.64,27.6a19.91,19.91,0,0,0,17.88-15c7.42-29.33,24.52-108.53,11.43-173a20.12,20.12,0,0,0-13.34-15.15Z"/><polygon class="cls-25" points="684.96 516.05 685.76 557.08 775.54 565.57 770.45 524.13 684.96 516.05"/><polygon class="cls-27" points="813.17 506.48 833.9 539.76 775.54 565.57 770.45 524.13 813.17 506.48"/><ellipse class="cls-31" cx="790.08" cy="489.45" rx="48.23" ry="25.6" transform="translate(242.24 1240.23) rotate(-85.66)"/><path class="cls-32" d="M717.67,337.57s-2.56,21-4.62,22.25l-23.82,14.94"/><path class="cls-29" d="M434.37,394.66a11,11,0,0,1-7.49-9.59,560.65,560.65,0,0,1-1.4-73.32c1.86-37.58,7.74-69.66,17.46-95.32a11.21,11.21,0,0,1,9.29-7.3c76.75-7.94,160.84-4.85,249.94,9.16a12.2,12.2,0,0,1,1.76.43,11.13,11.13,0,0,1,7.58,10.17c1.18,37.58-4.11,99.58-10,117.62-5,5.6-42.34,21.6-112.87,36.48C521.34,397.22,464,401.68,435.3,394.89,435,394.83,434.68,394.75,434.37,394.66Z"/><path class="cls-30" d="M701.18,227.14a2.27,2.27,0,0,1,1.51,2c1.2,38-3.85,93.21-8.81,112-3.21,2.06-12.56,7.11-35.7,14.58a749.46,749.46,0,0,1-75.56,19.42c-29.8,6.13-58.6,10.46-83.29,12.53-26.93,2.25-48.38,1.76-62-1.48l-.18-.06a2.22,2.22,0,0,1-1.45-1.93,553,553,0,0,1-1.38-72.13c1.81-36.65,7.5-67.84,16.89-92.59a2.39,2.39,0,0,1,1.95-1.61c76-7.85,159.32-4.79,247.65,9.1l.35.12m5.56-16.82a20.22,20.22,0,0,0-3.16-.77c-126.25-19.86-214.39-13.14-252.23-9.23a20.11,20.11,0,0,0-16.72,12.94c-23.31,61.47-19.21,142.4-16.61,172.54A19.94,19.94,0,0,0,431.59,403a14,14,0,0,0,1.68.47C503.43,420.07,702.65,370.6,709.73,350c6.61-19.14,11.88-83.14,10.66-121.38a19.93,19.93,0,0,0-13.65-18.29Z"/><path class="cls-33" d="M844.75,374.28c-27.23-9-44.85-38-41.92-68.95a68.49,68.49,0,0,1,22.33-45c12.6-11.23,28.38-16.58,44.45-15.06a55.83,55.83,0,0,1,12.46,2.61c27.23,9,44.85,38,41.93,69a68.7,68.7,0,0,1-22.34,45c-12.6,11.22-28.37,16.58-44.45,15.05A56.39,56.39,0,0,1,844.75,374.28Z"/><path class="cls-34" d="M879.8,254.61A53.26,53.26,0,0,1,908,277.35a62.51,62.51,0,0,1,8.84,38.75c-3.05,32.37-29.52,56.44-59,53.65A49.64,49.64,0,0,1,847,367.48a53.24,53.24,0,0,1-28.19-22.73A62.6,62.6,0,0,1,810,306a61.61,61.61,0,0,1,20-40.39c11.09-9.89,24.94-14.6,39-13.25a49,49,0,0,1,10.85,2.26h0M884.34,241a63.4,63.4,0,0,0-14-2.93c-37.4-3.53-70.8,26.27-74.61,66.57-3.31,35.09,16.87,66.54,46.81,76.45a63.79,63.79,0,0,0,14,2.94c37.4,3.53,70.8-26.27,74.61-66.58,3.32-35.08-16.87-66.54-46.8-76.45Z"/><path class="cls-33" d="M587.63,355c-27.23-9-44.85-38-41.93-68.95,3.44-36.32,33.38-63.29,66.8-60.13a57.19,57.19,0,0,1,12.42,2.6c27.23,9,44.85,38,41.93,69a68.58,68.58,0,0,1-22.33,45c-12.6,11.23-28.38,16.58-44.45,15.06A56.72,56.72,0,0,1,587.63,355Z"/><path class="cls-34" d="M622.68,235.36a53.3,53.3,0,0,1,28.19,22.74,62.56,62.56,0,0,1,8.83,38.76c-3.05,32.38-29.51,56.44-59,53.66a49.08,49.08,0,0,1-10.85-2.28,53.26,53.26,0,0,1-28.19-22.72,62.63,62.63,0,0,1-8.85-38.76,61.53,61.53,0,0,1,20-40.38c11.08-9.89,24.93-14.6,39-13.26a49.15,49.15,0,0,1,10.86,2.27h0m4.5-13.61a63.77,63.77,0,0,0-14-2.93c-37.4-3.54-70.8,26.27-74.61,66.57-3.32,35.08,16.87,66.54,46.81,76.45a63.75,63.75,0,0,0,14,2.94c37.34,3.53,70.75-26.28,74.57-66.62,3.31-35.07-16.87-66.53-46.81-76.44Z"/><ellipse class="cls-35" cx="791.8" cy="492.22" rx="24.07" ry="11.13" transform="translate(227.25 1234.18) rotate(-84.6)"/><path class="cls-36" d="M680.16,498.37c-38.22,2-209,61.18-209,61.18s-26.3,211.86-21.37,225.66c1.18,15.72-.38,35.16,31.16,73.88,10.91,7,13.19,17.75,245.53,40.47"/><path class="cls-36" d="M813.69,504.32s206,19.68,214.27,24.42c0,0-9.72,177.35-12.52,187.67"/><ellipse class="cls-37" cx="605.9" cy="292.43" rx="30.15" ry="25.37" transform="translate(257.74 868.12) rotate(-84.6)"/><ellipse class="cls-37" cx="863.24" cy="312.73" rx="30.15" ry="25.37" transform="translate(470.66 1142.71) rotate(-84.6)"/><path class="cls-13" d="M1126.29,490.2l-164.8,72.95c-28.43,11.56-46.35,24.6-37.07,52.68h0c12,26.32,27.23,23.52,55.12,17L1168.08,592a53.93,53.93,0,0,0,34.19-67.91h0C1193,496,1154.37,480.92,1126.29,490.2Z"/><path class="cls-14" d="M1113.64,495.56,940.8,568.85c-28.43,11.57-9.83,76.21,18.05,69.67l188.54-40.85a53.93,53.93,0,0,0,34.19-67.92h0A53.93,53.93,0,0,0,1113.64,495.56Z"/><path class="cls-15" d="M1176.59,507.36s-3.88-8.25-20.07-13.19c11.22-20.33,45.26-65.22,54.16-64.87,6,.23,15.41,5.79,24.06,11.34,7.75,5,9.25,15.56,2.27,21.6-20.83,18-53.79,44.85-53.79,44.85Z"/><path class="cls-16" d="M1156.11,494.06c11.22-20.34,39-67.59,47.92-67.23,6,.22,16,5,24.52,9.71a13.24,13.24,0,0,1,2.28,21.59c-20.83,18-52.14,49.75-54.47,49.9A27.78,27.78,0,0,0,1156.11,494.06Z"/><path class="cls-15" d="M1192.26,540s1.91-8.91-8-22.63c21.24-9.41,75.51-24.56,82.38-18.94,4.68,3.85,8.77,13.93,12.29,23.61,3.17,8.66-2.05,18-11.24,18.58-27.49,1.74-70,3.19-70,3.19Z"/><path class="cls-16" d="M1184,517c21.23-9.41,72-30.24,78.82-24.56,4.68,3.85,9.7,13.63,13.65,22.57a13.23,13.23,0,0,1-11.24,18.57c-27.5,1.75-71.62,8.09-73.55,6.76A27.71,27.71,0,0,0,1184,517Z"/><path class="cls-15" d="M1179,577.55s7.33-5.41,9-22.25c22.13,7,59.64,17.67,61.06,26.42,1,6,1.26,6.75-2.49,16.32-3.37,8.58-12.8,11.14-20.74,6.46A230.6,230.6,0,0,0,1180.57,584Z"/><path class="cls-16" d="M1188.07,554.89c22.14,7,60.75,11.08,62.15,19.87,1,6,2.16,7.17-.81,16.46-2.82,8.77-12.73,11-20.74,6.47-23.86-13.6-49.74-18-50.33-20.21A28.05,28.05,0,0,0,1188.07,554.89Z"/><path class="cls-15" d="M1132.4,488.12l16.69,4.81s5.26-2.47,6.36-3.11c6.13-3.63,17-59,5.74-61s-26.63-1.21-28.81,2.13c-.27.42-4.27,4-4.27,4S1129.82,489.9,1132.4,488.12Z"/><path class="cls-16" d="M1126.08,491.25a36.68,36.68,0,0,1,12-1,61.23,61.23,0,0,1,11,2.65c6.87,1.88,17-59,5.75-61s-25.48.55-27.66,3.89S1123.16,493.28,1126.08,491.25Z"/><ellipse class="cls-17" cx="1128.89" cy="545.66" rx="21.06" ry="19" transform="translate(290.43 1477.93) rotate(-73.83)"/><path class="cls-38" d="M1156.43,616.15l-174.86-43.7c-29.52-8.35-51.67-9.07-61.6,18.78h0c-6.69,28.16,7,35.29,33,47.26l173.86,83.63a53.92,53.92,0,0,0,68.7-32.57h0C1205.49,661.67,1184.28,626.08,1156.43,616.15Z"/><path class="cls-39" d="M1143.15,612.61l-181.4-48.38c-29.53-8.34-54.58,54.09-28.57,66.06L1107,713.9a53.91,53.91,0,0,0,68.7-32.57h0A53.92,53.92,0,0,0,1143.15,612.61Z"/><path class="cls-40" d="M1185.56,660.59s2-8.89-7.73-22.73c21.35-9.15,75.79-23.65,82.59-17.91,4.64,3.9,8.6,14,12,23.73,3.06,8.69-2.27,18-11.48,18.44-27.48,1.39-70,2.34-70,2.34Z"/><path class="cls-41" d="M1177.58,637.51c21.35-9.14,72.32-29.34,79.11-23.6,4.64,3.9,9.57,13.76,13.38,22.73a13.23,13.23,0,0,1-11.46,18.44c-27.49,1.39-71.71,7.21-73.64,5.89A27.77,27.77,0,0,0,1177.58,637.51Z"/><path class="cls-40" d="M1177.9,696s7-5.86,7.58-22.79c22.54,5.63,74.67,27,76.64,35.68,1.32,5.91-1.64,16.38-4.81,26.18-2.82,8.78-12.67,12.93-20.29,7.75-22.76-15.51-57.16-40.47-57.16-40.47Z"/><path class="cls-41" d="M1185.49,672.75c22.53,5.62,75.35,20.36,77.28,29,1.32,5.91-.73,16.72-3.1,26.19a13.22,13.22,0,0,1-20.28,7.75c-22.77-15.51-61.48-37.62-62.18-39.86A27.71,27.71,0,0,0,1185.49,672.75Z"/><path class="cls-40" d="M1144.34,717.45s9.11.24,20.77-12c13.15,19.15,36.2,50.6,31.94,58.37-2.92,5.3-3.15,6.1-12,11.34-7.93,4.7-16.94.93-20.33-7.64a230.43,230.43,0,0,0-23.1-44Z"/><path class="cls-41" d="M1165.42,705.14c13.15,19.15,41.12,46.08,36.82,53.87-2.92,5.3-2.7,7-10.75,12.49-7.61,5.19-16.82.88-20.33-7.64-10.47-25.39-28.22-44.73-27.3-46.87A28,28,0,0,0,1165.42,705.14Z"/><path class="cls-40" d="M1162.52,618.26l10.22,14s5.67,1.28,6.93,1.45c7.06.91,49.61-36.1,42-44.59s-20.26-17.32-24-16c-.47.16-5.82.52-5.82.52S1159.39,618.08,1162.52,618.26Z"/><path class="cls-41" d="M1155.61,616.84a36.83,36.83,0,0,1,10.06,6.61,62.17,62.17,0,0,1,7.07,8.86c4.26,5.7,49.62-36.11,42-44.6s-20.43-15.21-24.21-13.91S1152.06,616.66,1155.61,616.84Z"/><ellipse class="cls-42" cx="1124.4" cy="661.51" rx="21.06" ry="19" transform="translate(-174.26 785.4) rotate(-35.92)"/><path class="cls-43" d="M1160.39,617.49l-174.85-43.7c-29.53-8.35-51.68-9.07-61.61,18.78h0c-6.68,28.17,7,35.29,33.05,47.27l173.85,83.62a53.92,53.92,0,0,0,68.7-32.57h0C1209.45,663,1188.24,627.43,1160.39,617.49Z"/><path class="cls-44" d="M1147.11,614l-181.4-48.37c-29.53-8.35-54.57,54.08-28.56,66L1111,715.25a53.91,53.91,0,0,0,68.69-32.58h0A53.92,53.92,0,0,0,1147.11,614Z"/><path class="cls-45" d="M1189.53,661.93s2-8.88-7.74-22.73c21.35-9.15,75.79-23.64,82.59-17.9,4.64,3.9,8.6,14,12,23.72,3.06,8.69-2.26,18-11.47,18.44-27.49,1.39-70,2.34-70,2.34Z"/><path class="cls-46" d="M1181.54,638.86c21.35-9.15,72.32-29.35,79.12-23.6,4.64,3.9,9.56,13.75,13.38,22.73a13.23,13.23,0,0,1-7,17.38,13,13,0,0,1-4.52,1c-27.48,1.39-71.71,7.22-73.64,5.9A27.76,27.76,0,0,0,1181.54,638.86Z"/><path class="cls-45" d="M1181.86,697.29s7-5.86,7.59-22.78c22.53,5.63,74.66,27,76.63,35.68,1.33,5.91-1.64,16.37-4.81,26.18-2.82,8.77-12.67,12.92-20.29,7.75-22.76-15.52-57.16-40.48-57.16-40.48Z"/><path class="cls-46" d="M1189.45,674.09c22.54,5.63,75.35,20.36,77.28,29.06,1.32,5.91-.72,16.71-3.1,26.19a13.25,13.25,0,0,1-20.28,7.75c-22.77-15.52-61.47-37.63-62.18-39.86A27.72,27.72,0,0,0,1189.45,674.09Z"/><path class="cls-45" d="M1148.3,718.8s9.11.24,20.77-12c13.15,19.14,36.2,50.59,31.94,58.37-2.92,5.3-3.15,6.09-12,11.33-7.92,4.71-16.94.94-20.33-7.63a229.94,229.94,0,0,0-23.1-44Z"/><path class="cls-46" d="M1169.38,706.49c13.16,19.15,41.13,46.08,36.83,53.86-2.93,5.31-2.7,7-10.76,12.49-7.61,5.19-16.81.88-20.33-7.64-10.47-25.39-28.21-44.72-27.29-46.87A28,28,0,0,0,1169.38,706.49Z"/><path class="cls-45" d="M1166.48,619.61l10.22,14s5.67,1.29,6.93,1.46c7.06.91,49.61-36.11,42-44.6s-20.26-17.32-24-16c-.47.16-5.82.53-5.82.53S1163.36,619.42,1166.48,619.61Z"/><path class="cls-46" d="M1159.58,618.19a37,37,0,0,1,10.06,6.6,62.67,62.67,0,0,1,7.06,8.86c4.26,5.71,49.62-36.11,42-44.59s-20.44-15.22-24.22-13.92S1156,618,1159.58,618.19Z"/><ellipse class="cls-47" cx="1128.36" cy="662.85" rx="21.06" ry="19" transform="matrix(0.81, -0.59, 0.59, 0.81, -174.29, 787.98)"/><path class="cls-8" d="M1125.92,718.87,996.69,593.24c-21.33-22.06-40.12-33.81-62.7-14.71h0c-19.93,21-11.65,34,4.82,57.47l108.31,159.64a53.92,53.92,0,0,0,75.76,6.36h0C1145.47,782.88,1145,741.46,1125.92,718.87Z"/><path class="cls-9" d="M1116.22,709.14l-132.54-133c-21.34-22.06-74.36,19.34-57.89,42.76l108.32,159.64a53.91,53.91,0,0,0,75.76,6.35h0A53.92,53.92,0,0,0,1116.22,709.14Z"/><path class="cls-10" d="M1128.78,771.94s6.21-6.68,4.74-23.55c23,2.82,77.4,17.64,80.4,26,2,5.7.38,16.46-1.53,26.55-1.72,9-11,14.4-19.18,10.18-24.47-12.61-61.7-33.15-61.7-33.15Z"/><path class="cls-11" d="M1133.47,748c23.06,2.82,77.28,11,80.27,19.35,2,5.7,1.36,16.69.14,26.37a13.23,13.23,0,0,1-19.17,10.18c-24.47-12.61-65.63-29.79-66.63-31.9A27.76,27.76,0,0,0,1133.47,748Z"/><path class="cls-10" d="M1104.39,798.66s9-1.56,18-15.89c16.65,16.19,51,60.87,48.33,69.35-1.82,5.78-9.65,13.34-17.32,20.22-6.84,6.17-17.44,4.81-21.43-3.5-11.88-24.85-29.09-63.71-29.09-63.71Z"/><path class="cls-11" d="M1122.61,782.41c16.66,16.19,54.92,55.46,52.22,64-1.83,5.77-9,14.09-15.84,21.09a13.25,13.25,0,0,1-18.72.28,13.51,13.51,0,0,1-2.71-3.77c-11.89-24.86-34.25-63.42-33.73-65.71A27.71,27.71,0,0,0,1122.61,782.41Z"/><path class="cls-10" d="M1064.57,800.39s7.75,4.78,24,0c1.75,23.15,5.88,61.93-1.71,66.51-5.18,3.12-5.78,3.69-16.06,3.78-9.22.08-15.12-7.71-13.74-16.82a229.88,229.88,0,0,0,2.13-49.66Z"/><path class="cls-11" d="M1089,800.34c1.75,23.17,12.41,60.5,4.78,65.07-5.2,3.12-5.85,4.69-15.58,5.4-9.18.66-15-7.69-13.74-16.82,3.71-27.21-1.92-52.85,0-54.24A28,28,0,0,0,1089,800.34Z"/><path class="cls-10" d="M1130.12,723.76,1131.9,741s4.26,4,5.26,4.74c5.65,4.33,61-6.29,58.73-17.46s-8.82-25.15-12.74-25.92c-.49-.1-5.29-2.47-5.29-2.47S1127.51,722,1130.12,723.76Z"/><path class="cls-11" d="M1124.87,719.06a37.49,37.49,0,0,1,5.38,10.77A62.39,62.39,0,0,1,1131.9,741c.82,7.08,61-6.29,58.74-17.45s-10-23.42-14-24.2S1121.89,717.12,1124.87,719.06Z"/><ellipse class="cls-12" cx="1075.44" cy="742" rx="21.06" ry="19" transform="translate(-69.03 111.66) rotate(-5.76)"/><path class="cls-48" d="M740.21,662.36l-202.6-23.93a15.18,15.18,0,0,0-16.85,13.3c0,.28-.06.56-.08.85l-7.41,120.83a15.17,15.17,0,0,0,13.37,16l202.82,24a15.18,15.18,0,0,0,16.86-13.29c0-.3.06-.59.08-.89l7.22-120.83A15.17,15.17,0,0,0,740.21,662.36Z"/><path class="cls-49" d="M742.92,668.54l-203-24.42a11.81,11.81,0,0,0-13.11,10.34c0,.22,0,.45,0,.67L519.31,776.6a11.8,11.8,0,0,0,10.36,12.45l203,24.71a11.8,11.8,0,0,0,13.14-10.3c0-.23,0-.47.07-.7L753.29,681A11.8,11.8,0,0,0,742.92,668.54Z"/><path class="cls-50" d="M606.47,714l125,13.88a7.6,7.6,0,0,0,8.32-6.79l1.93-35.79a7.59,7.59,0,0,0-6.8-8.31l-125-13.84a7.58,7.58,0,0,0-8.32,6.78h0l-1.93,35.79A7.59,7.59,0,0,0,606.47,714Z"/><ellipse class="cls-51" cx="712.36" cy="700.4" rx="18.36" ry="14.69" transform="translate(-46.33 1350.32) rotate(-85.1)"/><ellipse class="cls-52" cx="668.3" cy="695.14" rx="18.36" ry="14.69" transform="translate(-81.39 1301.61) rotate(-85.1)"/><ellipse class="cls-53" cx="625.02" cy="691.27" rx="18.36" ry="14.69" transform="translate(-117.11 1254.96) rotate(-85.1)"/><path class="cls-54" d="M628.76,747.3l98.41,11.37a7.94,7.94,0,0,0,8.64-7.09h0a7.92,7.92,0,0,0-7.1-8.63L630.3,731.57a7.91,7.91,0,0,0-8.63,7.09h0A7.93,7.93,0,0,0,628.76,747.3Z"/><path class="cls-55" d="M680.51,801.29l43.73,4.79a7.92,7.92,0,0,0,8.64-7.09h0a7.93,7.93,0,0,0-7.09-8.63l-43.72-4.8a7.93,7.93,0,0,0-8.64,7.09h0A7.93,7.93,0,0,0,680.51,801.29Z"/><path class="cls-55" d="M681.87,779.14l43.73,4.8a7.93,7.93,0,0,0,8.63-7.09h0a7.93,7.93,0,0,0-7.09-8.64l-43.72-4.8a7.94,7.94,0,0,0-8.64,7.1h0A7.92,7.92,0,0,0,681.87,779.14Z"/><polygon class="cls-56" points="588.41 661.8 528.68 654.26 521.12 777.67 581.5 784.55 588.41 661.8"/><ellipse class="cls-57" cx="537.77" cy="669.26" rx="7.61" ry="6.57" transform="translate(-163.16 1165.05) rotate(-86.49)"/><path class="cls-58" d="M538.26,661.66s-3.47,9.2-.51,15.21"/><path class="cls-58" d="M544.35,669.66s-8.53,1.44-13.08-.78"/><ellipse class="cls-59" cx="573.05" cy="773.25" rx="7.61" ry="6.57" transform="translate(-233.84 1297.88) rotate(-86.49)"/><path class="cls-58" d="M573.55,765.65s-3.48,9.2-.52,15.21"/><path class="cls-58" d="M579.63,773.65s-8.52,1.44-13.07-.78"/><ellipse class="cls-60" cx="530.53" cy="768.11" rx="7.61" ry="6.57" transform="translate(-268.63 1250.62) rotate(-86.49)"/><path class="cls-58" d="M531,760.51s-3.47,9.2-.51,15.21"/><path class="cls-58" d="M537.11,768.5s-8.53,1.44-13.11-.78"/><ellipse class="cls-61" cx="579.53" cy="675.56" rx="7.64" ry="6.6" transform="translate(-128.32 1215.17) rotate(-86.69)"/><path class="cls-58" d="M575.32,665.68s-3.47,9.2-.51,15.21"/><path class="cls-58" d="M581.41,673.68s-8.53,1.44-13.12-.79"/><path class="cls-62" d="M735.79,751.58s-16.75-6.43-33.08-2.06-16.19-10-23.62-10.23-9.82,10.5-19.79,8.79-6.44-5.38-11.22-5.65-5.11,4.71-9.56,3.85-5.55-14.92-8.23-14.72"/></g></svg>