<svg id="Layer_1" data-name="Layer 1" xmlns="http://www.w3.org/2000/svg" viewBox="0 0 300 300"><defs><style>.cls-1{fill:#eb45ff;}.cls-2{fill:#1590ff;}.cls-3{fill:#ffbe55;}.cls-4{fill:#fff;opacity:0.2;}</style></defs><title>light_sensor</title><circle class="cls-1" cx="150" cy="150" r="150"/><path class="cls-2" d="M237.93,160.23a9.17,9.17,0,0,1-.08,1.16q-.37,3.08-1,6.08a88.57,88.57,0,0,1-19.7,40.68c-1.63,1.9-3.34,3.74-5.13,5.5a88.33,88.33,0,0,1-38.36,22.18q-2.49.67-5,1.22A43.82,43.82,0,0,1,160,238.4a9.52,9.52,0,0,1-2.54-18.66,69.43,69.43,0,0,0,60.22-52.94,76.36,76.36,0,0,0,1.39-7.78,10.08,10.08,0,0,1,.3-1.45,9.49,9.49,0,0,1,18.58,2.66Z"/><path class="cls-2" d="M258.83,149.94a9.66,9.66,0,0,1,9.63,10.47,118.91,118.91,0,0,1-34.72,74L232,236.07q-1.64,1.58-3.35,3.07c-.64.57-1.29,1.14-2,1.69s-1.46,1.22-2.2,1.82a118.11,118.11,0,0,1-64.15,25.81,8.89,8.89,0,0,1-3.29-.29,9.7,9.7,0,0,1,.57-18.72,99,99,0,0,0,61-27.2,100.17,100.17,0,0,0,30.54-63.47A9.67,9.67,0,0,1,258.83,149.94Z"/><path class="cls-3" d="M208.91,150.55a58.71,58.71,0,1,1-58.7-58.87A58.78,58.78,0,0,1,208.91,150.55Z"/><path class="cls-4" d="M208.91,150.55a58.78,58.78,0,0,1-58.7,58.87V91.68A58.79,58.79,0,0,1,208.91,150.55Z"/><rect class="cls-3" x="142.05" y="31.5" width="16.33" height="47.02" rx="8.16"/><rect class="cls-3" x="46.75" y="127.11" width="16.38" height="46.88" rx="8.18" transform="translate(-95.61 205.49) rotate(-90)"/><path class="cls-3" d="M99.42,99.61h0a8.15,8.15,0,0,1-11.54,0L66.27,78a8.24,8.24,0,0,1,0-11.58h0a8.18,8.18,0,0,1,11.55,0L99.42,88A8.21,8.21,0,0,1,99.42,99.61Z"/><path class="cls-3" d="M99.42,201.48h0a8.22,8.22,0,0,1,0,11.58l-21.6,21.66a8.17,8.17,0,0,1-11.55,0h0a8.24,8.24,0,0,1,0-11.58l21.6-21.66A8.17,8.17,0,0,1,99.42,201.48Z"/><path class="cls-3" d="M234.15,66.36h0a8.22,8.22,0,0,1,0,11.58l-21.6,21.67a8.18,8.18,0,0,1-11.55,0h0A8.24,8.24,0,0,1,201,88l21.6-21.67A8.18,8.18,0,0,1,234.15,66.36Z"/></svg>