<svg id="Layer_1" data-name="Layer 1" xmlns="http://www.w3.org/2000/svg" viewBox="0 0 300 300"><defs><style>.cls-1{fill:#faff45;}.cls-2{fill:#1590ff;}.cls-3{fill:#e97100;}.cls-4{fill:#bcbcbc;}.cls-5{fill:#d6d6d6;}.cls-6{fill:#545454;}</style></defs><title>obstacle</title><circle class="cls-1" cx="150" cy="150" r="150"/><path class="cls-2" d="M191.54,202.68a82.75,82.75,0,0,0,10-14.55h15.61a95.86,95.86,0,0,1-14.91,23.65,7,7,0,0,1-10.67-9.1Z"/><path class="cls-2" d="M202.21,86.38A96,96,0,0,1,217.12,110h-15.6a83.29,83.29,0,0,0-10-14.55,7,7,0,0,1,10.67-9.1Z"/><path class="cls-2" d="M181,162.33l9.33,16.16a68.61,68.61,0,0,1-7.93,12.73,7.18,7.18,0,1,1-11.64-8.41c.1-.14.21-.28.32-.41A53.29,53.29,0,0,0,181,162.33Z"/><path class="cls-2" d="M182.39,106.93a68.36,68.36,0,0,1,7.93,12.74L181,135.83a53.29,53.29,0,0,0-9.92-20.07,7.18,7.18,0,0,1,11.32-8.83Z"/><path class="cls-2" d="M151.1,126.83a7.13,7.13,0,0,0-1,8.82,25.1,25.1,0,0,1,0,26.85,7,7,0,0,0-1.08,3.74,7.19,7.19,0,0,0,13.2,3.94,39.47,39.47,0,0,0,0-42.2,7,7,0,0,0-6-3.26A7.18,7.18,0,0,0,151.1,126.83Z"/><path class="cls-2" d="M128.85,138.32a10.75,10.75,0,1,0,7.61,3.15A10.74,10.74,0,0,0,128.85,138.32Z"/><polygon class="cls-3" points="219.55 152.3 258.5 152.3 258.43 152.42 239.42 185.35 201.03 185.35 207.61 173.62 207.62 173.6 217.94 155.19 219.55 152.3"/><polygon class="cls-3" points="196.02 116.07 211.1 143 214.42 148.91 211.13 154.78 195.83 182.09 195.63 181.74 194.73 180.18 191.81 175.14 186.98 166.76 181.9 157.95 176.87 149.24 181.94 140.45 186.98 131.71 191.9 123.21 194.74 118.29 195.92 116.22 196.02 116.07"/><polygon class="cls-3" points="201.39 113.13 239.42 113.13 258.25 145.74 258.5 146.17 219.9 146.17 207.38 123.82 201.39 113.13"/><rect class="cls-4" x="63.92" y="166.82" width="37.05" height="37.05" rx="2.96"/><rect class="cls-5" x="63.92" y="173.44" width="37.05" height="14.68"/><rect class="cls-4" x="62.46" y="91.51" width="37.05" height="37.05" rx="2.96"/><rect class="cls-5" x="62.46" y="98.13" width="37.05" height="14.68"/><rect class="cls-6" x="41.5" y="78.47" width="25.9" height="141.23"/></svg>