<svg id="Layer_1" data-name="Layer 1" xmlns="http://www.w3.org/2000/svg" viewBox="0 0 1366 185"><defs><style>.cls-1,.cls-8{fill:#3d3d3d;}.cls-2{fill:#5e5e5e;}.cls-3{opacity:0.24;}.cls-4{fill:#848484;}.cls-5{fill:#494949;}.cls-6{fill:#4b4b4c;}.cls-7{fill:#282828;}.cls-8{stroke:#282828;stroke-miterlimit:10;stroke-width:8.4px;}</style></defs><title>button-bar</title><rect class="cls-1" y="49" width="1366" height="136"/><polygon class="cls-2" points="1366 49 1366 68 738.75 68 719 83 710.75 68 0 68 0 49 1366 49"/><polygon class="cls-3" points="1366 164 1366 185 0 185 0 164 1030.52 164 1029 145 1061.63 164 1366 164"/><polygon class="cls-4" points="315 59 305.49 68 322 81 315 59"/><polygon class="cls-5" points="315 59 333.95 68 322 81 315 59"/><path class="cls-2" d="M396,50a55,55,0,0,1-110,0c0-.34,0-.7,0-1H396C396,49.32,396,49.68,396,50Z"/><circle class="cls-6" cx="341" cy="50" r="45"/><path class="cls-7" d="M341,10a40,40,0,1,1-40,40,40,40,0,0,1,40-40m0-10a50,50,0,1,0,50,50A50,50,0,0,0,341,0Z"/><path class="cls-2" d="M1079,50a55,55,0,0,1-110,0c0-.34,0-.7,0-1h110C1079,49.32,1079,49.68,1079,50Z"/><circle class="cls-6" cx="1024" cy="50" r="45"/><path class="cls-7" d="M1024,10a40,40,0,1,1-40,40,40,40,0,0,1,40-40m0-10a50,50,0,1,0,50,50,50,50,0,0,0-50-50Z"/><rect class="cls-8" x="611" y="90.36" width="148" height="53.28" rx="9.71"/></svg>