<svg id="Layer_1" data-name="Layer 1" xmlns="http://www.w3.org/2000/svg" viewBox="0 0 110 106.12"><defs><style>.cls-1{fill:#5e5e5e;}.cls-2{fill:#4b4b4c;}.cls-3{fill:#282828;}</style></defs><title>craft_button_coaster</title><path class="cls-1" d="M110,50.54c0,30.7-24.62,55.58-55,55.58S0,81.24,0,50.54v-1H110v1"/><path class="cls-2" d="M55,96C30.19,96,10,75.61,10,50.53S30.19,5.05,55,5.05s45,20.4,45,45.47S79.81,96,55,96"/><path class="cls-3" d="M55,10.1c22.06,0,40,18.14,40,40.42S77.06,90.94,55,90.94,15,72.81,15,50.52,32.94,10.1,55,10.1M55,0C27.39,0,5,22.62,5,50.52s22.39,50.53,50,50.53,50-22.62,50-50.53S82.61,0,55,0"/></svg>