<svg id="Layer_1" data-name="Layer 1" xmlns="http://www.w3.org/2000/svg" viewBox="0 0 1135 756"><defs><style>.cls-1{opacity:0.63;}.cls-2{fill:#070707;}.cls-3{fill:#00b1ff;}.cls-4{fill:#15bdf9;}.cls-5{fill:#fff;}.cls-6{fill:#626c72;}.cls-7{fill:#96a5b3;}.cls-8{fill:#2f3e4a;}.cls-9{fill:#222d35;}</style></defs><title>board_clear</title><g class="cls-1"><path class="cls-2" d="M50,19H1085a50,50,0,0,1,50,50V705a50,50,0,0,1-50,50H50A50,50,0,0,1,0,705V69A50,50,0,0,1,50,19Z"/></g><path class="cls-3" d="M1135,50V686a50,50,0,0,1-50,50H50A50,50,0,0,1,0,686H0V50A50,50,0,0,1,50,0H1085A50,50,0,0,1,1135,50Z"/><path class="cls-4" d="M1134.36,42.5H.64A50,50,0,0,1,50,.5H1085A50,50,0,0,1,1134.36,42.5Z"/><path class="cls-5" d="M1085,5a45.07,45.07,0,0,1,45,45V686a45.07,45.07,0,0,1-45,45H50A45.07,45.07,0,0,1,5,686V50A45.07,45.07,0,0,1,50,5H1085m0-5H50A50,50,0,0,0,0,50V686a50,50,0,0,0,50,50H1085a50,50,0,0,0,50-50h0V50A50,50,0,0,0,1085,0Z"/><circle class="cls-6" cx="1077.9" cy="56.7" r="23.5"/><circle class="cls-7" cx="1077.9" cy="56.7" r="21"/><polygon class="cls-8" points="1091.3 50.7 1089.8 65.3 1076.4 71.3 1064.5 62.7 1065.9 48.1 1079.4 42.1 1091.3 50.7"/><path class="cls-9" d="M1091.3,50.7l-.7,6.6a18.33,18.33,0,0,0-12.1-7.1c-7.8-1-13.3,4.5-13.3,4.5l.7-6.6,13.4-6Z"/><circle class="cls-6" cx="57.1" cy="56.7" r="23.5"/><circle class="cls-7" cx="57.1" cy="56.7" r="21"/><polygon class="cls-8" points="69.9 49.3 69.9 64.1 57.1 71.4 44.4 64.1 44.4 49.3 57.1 42 69.9 49.3"/><path class="cls-9" d="M69.9,49.3V56a18.6,18.6,0,0,0-12.7-5.8C49.3,49.9,44.4,56,44.4,56V49.3L57.1,42Z"/><circle class="cls-6" cx="57.1" cy="675.8" r="23.5"/><circle class="cls-7" cx="57.1" cy="675.8" r="21"/><polygon class="cls-8" points="71.8 674.7 65.4 688 50.7 689 42.4 676.8 48.8 663.6 63.5 662.5 71.8 674.7"/><path class="cls-9" d="M71.8,674.7l-2.9,6A18.33,18.33,0,0,0,60,669.9c-7-3.7-14-.3-14-.3l2.9-6,14.7-1.1Z"/><circle class="cls-6" cx="1074.7" cy="675.7" r="23.5"/><circle class="cls-7" cx="1074.7" cy="675.7" r="21"/><polygon class="cls-8" points="1085.6 665.8 1088.7 680.2 1077.7 690.1 1063.7 685.5 1060.7 671.1 1071.7 661.3 1085.6 665.8"/><path class="cls-9" d="M1085.6,665.8l1.4,6.5a18,18,0,0,0-13.7-3c-7.7,1.4-11.3,8.3-11.3,8.3l-1.4-6.5,11-9.8Z"/></svg>