<svg id="Layer_1" data-name="Layer 1" xmlns="http://www.w3.org/2000/svg" viewBox="0 0 350 350"><defs><style>.cls-1{fill:#008ad0;}.cls-2{fill:#00d00e;}</style></defs><title>earth</title><g id="Earth"><path class="cls-1" d="M350,175A175.09,175.09,0,0,1,243.59,336c-3,1.3-6.06,2.49-9.15,3.61A174.76,174.76,0,0,1,175,350c-2.34,0-4.69,0-7-.15a173.74,173.74,0,0,1-43.54-7.28c-1.86-.54-3.69-1.13-5.51-1.75A174.71,174.71,0,0,1,52.49,300s0,0,0,0A174.52,174.52,0,0,1,3.14,208.13,174.94,174.94,0,0,1,175,0h1.75A174.76,174.76,0,0,1,331.33,96.29a172.74,172.74,0,0,1,8.85,20.77A174.74,174.74,0,0,1,350,175Z"/><path class="cls-2" d="M340.18,117.06a23.92,23.92,0,0,0-3.45,8.09c-.54,2.55-.61,5.22-1.45,7.71-1,2.94-3,5.44-4.19,8.32-2.47,6-1,11,.41,16.76.87,3.5,3.19,10.82.68,14.07-2.79,3.62-14.08.89-18,0a5.08,5.08,0,0,1-2.79-1.36,5.27,5.27,0,0,1-.93-2.29c-1.81-8.21-1-10.8-7-16.49-4.3-4.11-7.32-9.56-12.81-12.33a5.94,5.94,0,0,0-2.83-.79,6.81,6.81,0,0,0-3.44,1.46c-9.15,6.32-18.65,10.66-29.74,11.75a13.9,13.9,0,0,1-4.35-.28h0c-6.18-1.39-11.65-6.7-10.22-12.94h0a10.24,10.24,0,0,1,1-2.68c2.56-4.72,19.57-17.09,11.87-23.33-4.21-3.4-15.54.29-19.55,2.55-3.44,2-10.52,10.11-14.54,4.57-3.68-5.11,2.48-13.8-4.13-18.31a11.5,11.5,0,0,0-4.73-1.59,46.31,46.31,0,0,0-33.16,7.55c-4.14,2.84-7.84,6.41-12.38,8.55-3.48,1.66-7.39,2.45-10.47,4.77-2.65,2-4.47,5-7.11,7-4.07,3.12-9.52,3.54-14.64,3.87-6.14.38-12.82.62-17.83-2.95a152.19,152.19,0,0,0,13.4-22.16c.78-1.57,1.55-3.32,1.12-5-1-4.08-8.06-5.46-7.27-9.59.32-1.58,1.78-2.64,3.14-3.5A124.31,124.31,0,0,1,150.28,76.2c7.2-2.48,15.27-4.74,19.46-11.11a4.77,4.77,0,0,0,1-3.39c-.45-2.35-3.57-3.06-5.92-2.54s-4.63,1.77-7,1.37c-3.47-.59-5.47-4.76-4.64-8.18s3.71-6,6.85-7.59,6.59-2.43,9.85-3.74c9.83-4,17-12,23.52-20,3.4-4.15,6.64-8.42,10.22-12.41.24-.27,2.7-3,4.72-5.42a175.17,175.17,0,0,1,123,93.11A172.74,172.74,0,0,1,340.18,117.06Z"/><path class="cls-2" d="M207.84,199c3.72,4.52,8.83,6.8,14.1,9,5.91,2.42,7.13,4.46,11.34,9.08a58.6,58.6,0,0,0,21.25,14.81c9.3,3.71,14.73-3,20.77-8.84,3.23-3.14,5.85-6.62,10-3.3,4.58,3.64,3.72,11.17,3.47,16.27-.38,7.37-.58,14.3-3.16,21.28-5.9,16-12.64,31.43-13.29,48.69-.31,8.17-1.3,8.47-7.28,13-7.44,5.61-13.39,12.6-21.46,17.12-3,1.3-6.06,2.49-9.15,3.61A174.76,174.76,0,0,1,175,350c-2.34,0-4.69,0-7-.15,3.59-14.1,16.87-40.26,5.82-52.6-4.11-4.6-11.63-6-16.8-9.05-3.32-2-5.88-5-8.33-7.92-2.78-3.34-3.77-3.68-7.26-5.92-9.23-5.91-8.88-22.57-21.58-22.56-7,0-11.6,2-18.4-1.42-5.07-2.54-10-5.26-12.47-10.33-4-8.26-10.5-17.36-10.59-26.47-.16-15.49,1.4-31.46,9.21-45.17,3.91-6.89,7.32-11.17,14.74-13.51,10.64-3.33,21.74-4.27,32.81-4.59,5-.15,10.71-.94,15.55.19,14.78,3.4,30.1,7.83,45.42,6.2,7.86-.84,13.3-3.93,20.15-7.35,6.38-3.17,13.09-5.62,19.6-8.5,1.45-.64,2.87-1.63,4.25-2.16a3.78,3.78,0,0,1,4,.36c2.6,2,2.82,5.47,3.85,8.31a14.44,14.44,0,0,0,2.37,4.27,19.06,19.06,0,0,0,2.21,2.42c5.56,5.22,13.32,7.23,20.82,6.67,9.52-.71,18,13.07,18.73,21.44.86,9.39-9.52,11.32-16.2,14-9.56,3.87-24.12,2.16-32-4.6-6.39-5.5-15.32-14.81-24.36-14.9C208.75,176.54,200.6,190.2,207.84,199Z"/><path class="cls-2" d="M52.59,299.57c0,.12-.06.25-.1.37A174.52,174.52,0,0,1,3.14,208.13a43,43,0,0,1,18.56,10.7c6.05,6,11.58,14.4,20.08,14.51,1.94,0,4-.41,5.74.42A8.1,8.1,0,0,1,50.67,237c3.29,5.19,5.89,11,6.4,17.09s-1.33,12.63-5.8,16.84c-2.17,2-5,3.66-6.07,6.43C42.24,284.94,54.39,291.67,52.59,299.57Z"/><path class="cls-2" d="M21.51,145.91l1.68-13.35a14.46,14.46,0,0,1,1.19-4.84c1.17-2.25,3.43-3.71,5-5.7,2-2.54,2.86-5.82,3.77-9a2.21,2.21,0,0,1,.55-1.1c.66-.58,1.72-.21,2.4.35,2.39,2,2.78,5.5,2.21,8.54s-1.88,5.9-2.27,9,.48,6.62,3.18,8.12c1.09.6,2.41.84,3.27,1.74a3.88,3.88,0,0,1,.44,4.24A10.71,10.71,0,0,1,40,147.34q-2.6,2.24-5.32,4.31c-3.74,2.84-7.84,5.48-12.47,6.21S12.32,157,10,152.93a6.16,6.16,0,0,1-.38-6.05c1-1.84,3.8-2.66,5.42-1.29,1,.83,1.32,2.18,2,3.27s2.18,2,3.22,1.21a2.57,2.57,0,0,0,.8-1.23,8.62,8.62,0,0,0,.44-4.12"/><path class="cls-2" d="M24.73,117.21a3.67,3.67,0,0,1-.74,2.14c-.62.76-1.09.59-1.95.66-1.07.09-2.57.71-2.73-.91a32.1,32.1,0,0,1-.06-3.4c0-2.27.09-4.55.25-6.81.09-1.22.64-2.84,1.85-2.69a2.33,2.33,0,0,1,1.41,1,8,8,0,0,1,2,3.72,18.87,18.87,0,0,1-.16,2.9C24.54,115,24.79,116.1,24.73,117.21Z"/></g></svg>