<svg id="Layer_1" data-name="Layer 1" xmlns="http://www.w3.org/2000/svg" viewBox="0 0 350 350"><defs><style>.cls-1{fill:#c2e4ff;}.cls-2{fill:#f4e4d9;}.cls-3{fill:#eaa271;}.cls-4{fill:#683818;}</style></defs><title>jupiter</title><g id="Jupiter"><path class="cls-1" d="M350,175q0,5.58-.35,11.07c-.22,3.56-.55,7.1-1,10.6q-.62,5-1.52,9.93a172.37,172.37,0,0,1-7,26.41h0A175.11,175.11,0,0,1,14.41,244.64a170.21,170.21,0,0,1-6.29-16.82c-.57-1.78-1.1-3.57-1.61-5.37A174.75,174.75,0,0,1,.57,189.24Q0,182.51,0,175.61V174a175.76,175.76,0,0,1,2.25-27.13q1.14-7,2.83-13.91a172.67,172.67,0,0,1,9.84-28.77A175.08,175.08,0,0,1,324.4,83.83a172.77,172.77,0,0,1,13,25.86q3.08,7.62,5.43,15.58h0c.54,1.81,1,3.62,1.52,5.45q2,7.52,3.26,15.27c.2,1.2.38,2.4.55,3.6A174.37,174.37,0,0,1,350,175Z"/><path class="cls-2" d="M297.44,50l-162,18.92c-13,1.52-26.64,2.93-38.57-2.37-4.74-2.1-9.07-5.23-14.09-6.54-6.45-1.67-13.29-.16-19.93-.84-4.88-.49-10.15-3-12.58-6.9a175.64,175.64,0,0,1,39.19-30c1.12-.07,2.28-.19,3.47-.37,2.79-.41,5.59-1,8.39-.72,3.12.34,6,1.79,8.87,3,29.15,12.67,62.66,6,93.69-1,9.1-2,18.28-4.08,26.76-8,2.47-1.14,4.87-2.43,7.33-3.6A175.19,175.19,0,0,1,297.44,50Z"/><path class="cls-3" d="M342.83,125.27h0a45.78,45.78,0,0,1-7.42,4.82c-7.88,4-16.89,5-25.47,7.1a113.62,113.62,0,0,0-14.85,4.89C266.48,153.59,240.67,174.6,210,175c-10.41.15-20.69-2.14-31.07-2.84a101.86,101.86,0,0,0-42.84,6.34c-15.07,5.69-31.23,15.09-46.13,9-5.41-2.21-9.89-6.3-15.3-8.51-10.14-4.15-21.57-1.12-32.51-.44-6.84.43-14.58-.79-20.19-4.32a16.19,16.19,0,0,1-7.15-9c-1.27-4.16-.72-8.9-2.95-12.63-2-3.39-5.62-5-9.59-5.76q1.14-7,2.83-13.91a172.67,172.67,0,0,1,9.84-28.77c4.14,2.24,8.13,5,11.77,7,5,2.69,10.17,5.44,15.82,6.11,10.76,1.3,21.18-5.08,32-4.6,11.44.5,21.07,8.43,31.91,12.16,10.48,3.6,21.85,3.19,32.93,2.73l20.21-.84c19.88-.82,40-1.69,59.05-7.53C237.94,113.27,255.49,102.38,275,97c15-4.16,31-5,45.34-11.23,1.38-.6,2.74-1.25,4.09-1.92a172.77,172.77,0,0,1,13,25.86Q340.48,117.31,342.83,125.27Z"/><path class="cls-2" d="M348.16,149.6a161,161,0,0,1-23.32,6.82c-6.79,1.41-13.68,2.29-20.48,3.68-7.45,1.52-14.76,3.64-22,5.83-42.6,12.83-84.9,28.13-129.13,32.89-33,3.55-66.31,1.14-99.41-1.27-6.91-.51-14-1.07-20.16-4.32a49.36,49.36,0,0,1-7.86-5.58c-1.75-1.42-3.51-2.84-5.38-4.08-6.12-4.06-13.22-6.07-20.38-8V174a175.76,175.76,0,0,1,2.25-27.13q1.14-7,2.83-13.91c6.54,2.56,12.63,5.08,16.47,6,15.3,3.21,30.9,4.74,46.45,6.27l107.69,10.6c6.75.66,13.79,1.29,20.13-1.13,9.12-3.47,15-12.52,23.62-17,8.05-4.22,17.6-4.09,26.68-3.86A13.07,13.07,0,0,1,244.77,146c18.61,3.09,32-17.67,49.66-24.22,7.86-2.91,16.48-2.91,24.63-4.87,6.42-1.55,12.41-4.28,18.34-7.23q3.08,7.62,5.43,15.58h0c.54,1.81,1,3.62,1.52,5.45q2,7.52,3.26,15.27C347.81,147.2,348,148.4,348.16,149.6Z"/><path class="cls-4" d="M347.61,146c-42.06,1.6-82,26.54-124.63,30.15-19.95,1.69-40.16-1.33-60,1.48-15.81,2.25-30.89,8.15-46.59,11.07-30.07,5.6-60.42.11-90.65-1q-5.43-.21-10.85-.2c-2.89,0-8.65,1.14-14.34,1.79Q0,182.51,0,175.61V174c7.11-.93,15.45-.21,21.94.24,2.62.18,4.95.32,6.77.28,18.56-.36,36.48-6.48,54.84-9.19,22.15-3.26,44.71-1.52,67.09-2.34,25.1-.92,50-5.08,74.71-9.22L283.9,144q5.6-.93,11.19-1.9c11.46-2,22.88-4.21,34.08-7.32,5-1.4,10.06-3,15.18-4Q346.32,138.25,347.61,146Z"/><path class="cls-2" d="M348.67,196.67q-.62,5-1.52,9.93a172.37,172.37,0,0,1-7,26.41h0a43.42,43.42,0,0,0-6.47,7.78c-2.77,4.42-4.63,9.79-9,12.59-6.6,4.2-15.49.65-23,2.86-9.71,2.87-13.87,13.9-19.09,22.58a60.21,60.21,0,0,1-24.94,22.87c-14.32-7.67-31.85-1.53-48-2.61-15.5-1-30.05-8.81-45.57-9.1-9.37-.18-18.71,2.39-28,1.37-14.49-1.58-26.68-11.54-40.7-15.55-19.67-5.62-40.35.92-60.83,3.47a174.25,174.25,0,0,1-20-34.64,170.21,170.21,0,0,1-6.29-16.82,33.59,33.59,0,0,1,9.48-1.24c9.85.07,19,6.1,28.88,5.5,4-.24,8.66-1.3,11.32,1.63,1.58,1.74,1.8,4.34,3.17,6.25,2.09,2.89,6.12,3.39,9.68,3.64l78.23,5.47c4.6.33,9.37.62,13.74-.74.43-.13.86-.28,1.28-.45a25.56,25.56,0,0,0,8.68-6.27c.91-.93,1.78-1.9,2.64-2.88,12.37-14.09,24.25-31.16,42.6-35.06,10.2-2.17,20.82.24,31.2-.78,8.52-.83,17.2-3.95,25.41-1.54,5.46,1.59,10,5.47,15.42,7.21,6.94,2.22,14.48.7,21.56-1Q330.27,203,348.67,196.67Z"/><path class="cls-3" d="M349.65,186.07c-.22,3.56-.55,7.1-1,10.6q-.62,5-1.52,9.93l-22.5,4.21c-7.9,1.48-15.9,3-23.92,2.46-7.41-.47-14.58-2.63-21.86-4.08a117.18,117.18,0,0,0-92.23,21.14c-4.78,3.6-9.32,7.61-14.06,11.28a78.65,78.65,0,0,1-10,6.72,46.65,46.65,0,0,1-5.48,2.61c-13.42,5.34-28.5,3.56-42.79,1.45-10.42-1.53-20.82-3.18-31.27-4.48a455.43,455.43,0,0,0-68.67-3.27,170.21,170.21,0,0,1-6.29-16.82c-.57-1.78-1.1-3.57-1.61-5.37a120,120,0,0,1,24.16-1.77c12.07.33,24,2.45,36,4a394.17,394.17,0,0,0,82.19,2.09c8.42-.67,16.94-1.63,24.8-4.73,11.91-4.69,21.45-13.92,32.71-20,13.29-7.21,28.52-9.84,43.43-12.36,13.15-2.23,26.76-4.44,39.7-1.21,5.13,1.29,10,3.4,15.22,4.45C319.46,195.9,334.73,190.05,349.65,186.07Z"/><path class="cls-4" d="M267.28,323.72A175.07,175.07,0,0,1,61.92,308.56c.69.07,1.37.15,2,.24,12.66,1.68,25,5.57,37.68,6.87,26.53,2.7,54.45-5.85,79.45,3.45,6.22,2.32,12,5.69,18.37,7.65,10.75,3.32,22.3,2.39,33.51,1.43S256,326.08,267.28,323.72Z"/><path class="cls-1" d="M191.42,281.57c11.74,3.23,24,3.67,36.21,4.07,11.32.38,23.32.6,33.11-5.09,6.14-3.57,10.82-9.15,15.12-14.8,2.65-3.47,5.25-7.07,8.73-9.71,4.74-3.59,10.94-5.26,14.82-9.77,4.08-4.75,4.38-12.58.11-17.17-2.23-2.41-5.37-3.75-8.47-4.84-12-4.23-24.77-5.64-37.41-7-5.26-.57-10.58-1.15-15.83-.48a67.24,67.24,0,0,0-13.11,3.47c-9.81,3.31-19.83,6.74-27.94,13.18a89.3,89.3,0,0,0-10.28,10.12l-10.94,12c-5.34,5.85-10.75,11.81-14.2,18.94a3.71,3.71,0,0,0-.43,1.29c-.29,4.34,9.48.86,11.78,1.05C179.14,277.33,185.24,279.87,191.42,281.57Z"/><path class="cls-2" d="M188.27,255c4.82-6.12,11.39-10.57,17.86-14.92,3.75-2.52,7.63-5.1,12.06-6,3.55-.71,7.21-.27,10.82-.32,7.18-.1,14.18-2.15,21.29-3.19a76.26,76.26,0,0,1,30.81,1.85,2.55,2.55,0,0,1,1.33.66,2.62,2.62,0,0,1,.48,1.58c.32,3.86.57,8-1.38,11.33s-5.56,5.08-8.45,7.53c-4.48,3.8-7.33,9.33-12.16,12.67-8,5.5-18.65,3.48-28.34,3.67-8.87.17-17.56,2.39-26.39,3.15-6.71.59-13.78.28-20.06-2.34-3.83-1.6-5.53-2-3.92-5.86A43.85,43.85,0,0,1,188.27,255Z"/><path class="cls-3" d="M224.08,244.69c6.16-.94,12.48-.34,18.65-1.21,5.56-.78,11-2.75,16.61-2.64,2.8.06,6,1,7,3.6a6.35,6.35,0,0,1,.11,3.59,13.47,13.47,0,0,1-7.26,9.25c-2.88,1.37-6.14,1.66-9.32,1.93l-47.34,4a5.66,5.66,0,0,1-2.78-.23c-7.16-3.22,5.24-8.66,7.21-9.65C213,250.26,217,245.77,224.08,244.69Z"/><path class="cls-4" d="M228.38,249.86c3.77-.7,7.65-.43,11.48-.62a48.07,48.07,0,0,0,9.24-1.38c1.27-.33,2.8-.64,3.76.26a2.55,2.55,0,0,1,.69,2,5,5,0,0,1-3.17,4,14.89,14.89,0,0,1-5.24.86l-6.84.27a42.54,42.54,0,0,0-6.48.59c-2.58.51-5.06,1.5-7.68,1.78-3.11.32-7.16.48-5.22-2.74C220.53,252.17,225.55,250.38,228.38,249.86Z"/></g></svg>