<?xml version="1.0" encoding="utf-8"?>
<!-- Generator: Adobe Illustrator 23.0.2, SVG Export Plug-In . SVG Version: 6.00 Build 0)  -->
<svg version="1.1" id="Layer_1" xmlns="http://www.w3.org/2000/svg" xmlns:xlink="http://www.w3.org/1999/xlink" x="0px" y="0px"
	 viewBox="0 0 1135 756" style="enable-background:new 0 0 1135 756;" xml:space="preserve">
<style type="text/css">
	.st0{opacity:0.63;}
	.st1{fill:#070707;}
	.st2{fill:#00B1FF;}
	.st3{fill:#15BDF9;}
	.st4{fill:#FFFFFF;}
	.st5{fill:#626C72;}
	.st6{fill:#96A5B3;}
	.st7{fill:#2F3E4A;}
	.st8{fill:#222D35;}
</style>
<title>map_board</title>
<g class="st0">
	<path class="st1" d="M50,19h1035c27.6,0,50,22.4,50,50v636c0,27.6-22.4,50-50,50H50c-27.6,0-50-22.4-50-50V69C0,41.4,22.4,19,50,19
		z"/>
</g>
<path class="st2" d="M1135,50v636c0,27.6-22.4,50-50,50l0,0H50c-27.6,0-50-22.4-50-50l0,0l0,0V50C0,22.4,22.4,0,50,0h1035
	C1112.6,0,1135,22.4,1135,50z"/>
<path class="st3" d="M1134.4,42.5H0.6c3.9-24.2,24.8-42,49.4-42h1035C1109.5,0.5,1130.4,18.3,1134.4,42.5z"/>
<path class="st4" d="M1085,5c24.8,0,45,20.2,45,45v636c0,24.8-20.2,45-45,45H50c-24.8,0-45-20.2-45-45V50C5,25.2,25.2,5,50,5H1085
	 M1085,0H50C22.4,0,0,22.4,0,50v636c0,27.6,22.4,50,50,50l0,0h1035c27.6,0,50-22.4,50-50l0,0l0,0V50C1135,22.4,1112.6,0,1085,0z"/>
<circle class="st5" cx="1077.9" cy="56.7" r="23.5"/>
<circle class="st6" cx="1077.9" cy="56.7" r="21"/>
<polygon class="st7" points="1091.3,50.7 1089.8,65.3 1076.4,71.3 1064.5,62.7 1065.9,48.1 1079.4,42.1 "/>
<path class="st8" d="M1091.3,50.7l-0.7,6.6c-2.9-3.9-7.3-6.4-12.1-7.1c-7.8-1-13.3,4.5-13.3,4.5l0.7-6.6l13.4-6L1091.3,50.7z"/>
<circle class="st5" cx="57.1" cy="56.7" r="23.5"/>
<circle class="st6" cx="57.1" cy="56.7" r="21"/>
<polygon class="st7" points="69.9,49.3 69.9,64.1 57.1,71.4 44.4,64.1 44.4,49.3 57.1,42 "/>
<path class="st8" d="M69.9,49.3V56c-3.3-3.5-7.9-5.6-12.7-5.8C49.3,49.9,44.4,56,44.4,56v-6.7L57.1,42L69.9,49.3z"/>
<circle class="st5" cx="57.1" cy="675.8" r="23.5"/>
<circle class="st6" cx="57.1" cy="675.8" r="21"/>
<polygon class="st7" points="71.8,674.7 65.4,688 50.7,689 42.4,676.8 48.8,663.6 63.5,662.5 "/>
<path class="st8" d="M71.8,674.7l-2.9,6c-1.4-4.6-4.6-8.5-8.9-10.8c-7-3.7-14-0.3-14-0.3l2.9-6l14.7-1.1L71.8,674.7z"/>
<circle class="st5" cx="1074.7" cy="675.7" r="23.5"/>
<circle class="st6" cx="1074.7" cy="675.7" r="21"/>
<polygon class="st7" points="1085.6,665.8 1088.7,680.2 1077.7,690.1 1063.7,685.5 1060.7,671.1 1071.7,661.3 "/>
<path class="st8" d="M1085.6,665.8l1.4,6.5c-4-2.8-8.9-3.9-13.7-3c-7.7,1.4-11.3,8.3-11.3,8.3l-1.4-6.5l11-9.8L1085.6,665.8z"/>
</svg>
