<svg id="Layer_1" data-name="Layer 1" xmlns="http://www.w3.org/2000/svg" viewBox="0 0 350 350"><defs><style>.cls-1{fill:#bc3a06;}.cls-2{fill:#ff5200;}.cls-3{fill:#bc3004;}.cls-4{fill:#d03800;}</style></defs><title>mars</title><g id="Mars"><path class="cls-1" d="M350,175A174.81,174.81,0,1,1,222.31,6.47q2.48.69,4.92,1.46A175,175,0,0,1,350,175Z"/><path class="cls-2" d="M348.52,152.21C336.61,254,254,335,149.31,348.12a175,175,0,1,1,73-341.65q2.48.69,4.92,1.46A175,175,0,0,1,348.52,152.21Z"/><path class="cls-3" d="M185.32,110.12c0,19.48-14.48,35.27-32.34,35.27a31.32,31.32,0,0,1-24.87-12.71,37.15,37.15,0,0,1-7.47-22.56c0-19.49,14.48-35.28,32.34-35.28,12.64,0,23.6,7.91,28.91,19.45A37.68,37.68,0,0,1,185.32,110.12Z"/><path class="cls-4" d="M185.32,110.12c0,19.48-14.48,35.27-32.34,35.27a31.32,31.32,0,0,1-24.87-12.71,37.69,37.69,0,0,1-3.45-15.87c0-19.49,14.48-35.28,32.34-35.28a31.28,31.28,0,0,1,24.89,12.76A37.68,37.68,0,0,1,185.32,110.12Z"/><path class="cls-3" d="M101.44,261.77c0,15.1-10,27.33-22.23,27.33-6.87,0-13-3.83-17.1-9.85A31.27,31.27,0,0,1,57,261.77c0-15.11,10-27.35,22.24-27.35,8.68,0,16.22,6.13,19.87,15.08A32.43,32.43,0,0,1,101.44,261.77Z"/><path class="cls-4" d="M101.44,261.77c0,15.1-10,27.33-22.23,27.33-6.87,0-13-3.83-17.1-9.85A32.32,32.32,0,0,1,59.74,267c0-15.1,9.95-27.34,22.23-27.34,6.88,0,13,3.84,17.11,9.89A32.43,32.43,0,0,1,101.44,261.77Z"/><path class="cls-3" d="M69.1,166.25c0,11.52-7.69,20.86-17.18,20.86-5.3,0-10.05-2.92-13.21-7.51a23.71,23.71,0,0,1-4-13.35c0-11.52,7.69-20.86,17.17-20.86,6.71,0,12.54,4.68,15.36,11.5A24.63,24.63,0,0,1,69.1,166.25Z"/><path class="cls-4" d="M69.1,166.25c0,11.52-7.69,20.86-17.18,20.86-5.3,0-10.05-2.92-13.21-7.51a24.56,24.56,0,0,1-1.83-9.39c0-11.53,7.69-20.86,17.18-20.86,5.31,0,10.07,2.93,13.22,7.54A24.63,24.63,0,0,1,69.1,166.25Z"/><path class="cls-3" d="M334.69,153c0,23.68-12.68,42.87-28.33,42.87-8.75,0-16.59-6-21.79-15.45A57.51,57.51,0,0,1,278,153c0-23.69,12.69-42.88,28.34-42.88,11.07,0,20.68,9.62,25.33,23.64A61.11,61.11,0,0,1,334.69,153Z"/><path class="cls-4" d="M334.69,153c0,23.68-12.68,42.87-28.33,42.87-8.75,0-16.59-6-21.79-15.45a61,61,0,0,1-3-19.29c0-23.68,12.68-42.87,28.33-42.87,8.77,0,16.61,6,21.81,15.5A61.11,61.11,0,0,1,334.69,153Z"/><path class="cls-3" d="M232.63,298.19c0,9.13-5,16.53-11.14,16.53-3.44,0-6.52-2.32-8.57-6a21.86,21.86,0,0,1-2.57-10.57c0-9.13,5-16.53,11.14-16.53,4.36,0,8.13,3.71,10,9.11A23.09,23.09,0,0,1,232.63,298.19Z"/><path class="cls-4" d="M232.63,298.19c0,9.13-5,16.53-11.14,16.53-3.44,0-6.52-2.32-8.57-6a23.15,23.15,0,0,1-1.19-7.43c0-9.14,5-16.53,11.15-16.53,3.45,0,6.53,2.32,8.57,6A23.09,23.09,0,0,1,232.63,298.19Z"/><path class="cls-3" d="M179.18,253.83c0,20.12-13.11,36.43-29.27,36.43-9,0-17.13-5.1-22.51-13.13a42,42,0,0,1-6.76-23.3c0-20.13,13.1-36.43,29.27-36.43,11.44,0,21.36,8.17,26.16,20.08A43.67,43.67,0,0,1,179.18,253.83Z"/><path class="cls-4" d="M179.18,253.83c0,20.12-13.11,36.43-29.27,36.43-9,0-17.13-5.1-22.51-13.13a43.57,43.57,0,0,1-3.12-16.39c0-20.13,13.1-36.43,29.27-36.43,9,0,17.15,5.12,22.52,13.17A43.67,43.67,0,0,1,179.18,253.83Z"/><path class="cls-3" d="M249.7,221.86c0,14.36-8.81,26-19.68,26-6.08,0-11.51-3.64-15.13-9.37a31.38,31.38,0,0,1-4.54-16.63c0-14.36,8.81-26,19.67-26,7.69,0,14.36,5.83,17.59,14.33A32.81,32.81,0,0,1,249.7,221.86Z"/><path class="cls-4" d="M249.7,221.86c0,14.36-8.81,26-19.68,26-6.08,0-11.51-3.64-15.13-9.37a32.89,32.89,0,0,1-2.1-11.7c0-14.36,8.81-26,19.68-26,6.09,0,11.53,3.65,15.14,9.4A32.81,32.81,0,0,1,249.7,221.86Z"/><path class="cls-3" d="M227.23,7.93A174,174,0,0,1,256.51,20.1a19.67,19.67,0,1,1-34.2-13.63Z"/><path class="cls-4" d="M256.51,20.1a19.64,19.64,0,0,1-34.79,12.41,19.94,19.94,0,0,1,5.51-24.58A174,174,0,0,1,256.51,20.1Z"/><path class="cls-3" d="M97.85,39.65c0,3.94-4.07,7.13-9.08,7.13a10.22,10.22,0,0,1-7-2.57,6.25,6.25,0,0,1-2.1-4.56c0-3.94,4.07-7.13,9.08-7.13a9.58,9.58,0,0,1,8.12,3.93A5.94,5.94,0,0,1,97.85,39.65Z"/><path class="cls-4" d="M97.85,39.65c0,3.94-4.07,7.13-9.08,7.13a10.22,10.22,0,0,1-7-2.57,5.88,5.88,0,0,1-1-3.21c0-3.94,4.06-7.13,9.08-7.13a10.19,10.19,0,0,1,7,2.58A5.94,5.94,0,0,1,97.85,39.65Z"/></g></svg>