<svg id="Layer_1" data-name="Layer 1" xmlns="http://www.w3.org/2000/svg" viewBox="0 0 350 350"><defs><style>.cls-1{fill:#a5a5a5;}.cls-2{fill:#ccc;}.cls-3{fill:#aaa;}.cls-4{fill:#939393;}</style></defs><title>moon</title><path class="cls-1" d="M350,175A174.81,174.81,0,1,1,222.31,6.47q2.48.69,4.92,1.46A175,175,0,0,1,350,175Z"/><path class="cls-2" d="M350,175a174.26,174.26,0,0,1-39.21,110.39q-5.9.35-11.89.35c-106.27,0-192.41-82.83-192.41-185a178.84,178.84,0,0,1,27.91-96,176.39,176.39,0,0,1,87.91,1.74q2.48.69,4.92,1.46A175,175,0,0,1,350,175Z"/><path class="cls-3" d="M157,149.35c0,19.48-14.48,35.27-32.34,35.27a31.32,31.32,0,0,1-24.87-12.71,37.15,37.15,0,0,1-7.47-22.56c0-19.49,14.48-35.28,32.34-35.28,12.64,0,23.6,7.91,28.91,19.45A37.68,37.68,0,0,1,157,149.35Z"/><path class="cls-4" d="M157,149.35c0,19.48-14.48,35.27-32.34,35.27a31.32,31.32,0,0,1-24.87-12.71A37.69,37.69,0,0,1,96.34,156c0-19.49,14.48-35.28,32.34-35.28a31.28,31.28,0,0,1,24.89,12.76A37.68,37.68,0,0,1,157,149.35Z"/><path class="cls-3" d="M69.1,166.25c0,11.52-7.69,20.86-17.18,20.86-5.3,0-10.05-2.92-13.21-7.51a23.71,23.71,0,0,1-4-13.35c0-11.52,7.69-20.86,17.17-20.86,6.71,0,12.53,4.68,15.35,11.5A24.44,24.44,0,0,1,69.1,166.25Z"/><path class="cls-4" d="M69.1,166.25c0,11.52-7.69,20.86-17.18,20.86-5.3,0-10.05-2.92-13.21-7.51a24.56,24.56,0,0,1-1.83-9.39c0-11.53,7.69-20.86,17.18-20.86,5.31,0,10.06,2.93,13.21,7.54A24.44,24.44,0,0,1,69.1,166.25Z"/><path class="cls-3" d="M319.65,180.19c0,10.29-7.86,18.63-17.54,18.63a17.12,17.12,0,0,1-13.49-6.72,19.25,19.25,0,0,1-4.06-11.91c0-10.3,7.86-18.64,17.55-18.64a17.47,17.47,0,0,1,15.68,10.27A19.56,19.56,0,0,1,319.65,180.19Z"/><path class="cls-4" d="M319.65,180.19c0,10.29-7.86,18.63-17.54,18.63a17.12,17.12,0,0,1-13.49-6.72,19.44,19.44,0,0,1-1.88-8.38c0-10.3,7.86-18.64,17.55-18.64a17.12,17.12,0,0,1,13.5,6.74A19.56,19.56,0,0,1,319.65,180.19Z"/><path class="cls-3" d="M242.17,91.69c0,12.36-9.2,22.38-20.54,22.38a19.87,19.87,0,0,1-15.8-8.07,23.54,23.54,0,0,1-4.75-14.31c0-12.37,9.2-22.4,20.55-22.4,8,0,15,5,18.36,12.35A23.84,23.84,0,0,1,242.17,91.69Z"/><path class="cls-4" d="M242.17,91.69c0,12.36-9.2,22.38-20.54,22.38a19.87,19.87,0,0,1-15.8-8.07,23.91,23.91,0,0,1-2.19-10.07c0-12.37,9.19-22.39,20.54-22.39A19.88,19.88,0,0,1,240,81.64,23.84,23.84,0,0,1,242.17,91.69Z"/><path class="cls-3" d="M226.91,303.88c0,6-3.71,10.84-8.28,10.84a7.69,7.69,0,0,1-6.37-3.91,13,13,0,0,1-1.91-6.93c0-6,3.7-10.85,8.28-10.85,3.23,0,6,2.44,7.4,6A13.65,13.65,0,0,1,226.91,303.88Z"/><path class="cls-4" d="M226.91,303.88c0,6-3.71,10.84-8.28,10.84a7.69,7.69,0,0,1-6.37-3.91,13.49,13.49,0,0,1-.88-4.88c0-6,3.7-10.84,8.28-10.84A7.68,7.68,0,0,1,226,299,13.65,13.65,0,0,1,226.91,303.88Z"/><path class="cls-3" d="M222.18,201.46a5.77,5.77,0,0,1-5.92,5.61,6.08,6.08,0,0,1-4.55-2,5.42,5.42,0,0,1-1.36-3.59,5.77,5.77,0,0,1,5.91-5.6,5.93,5.93,0,0,1,5.29,3.09A5.22,5.22,0,0,1,222.18,201.46Z"/><path class="cls-4" d="M222.18,201.46a5.77,5.77,0,0,1-5.92,5.61,6.08,6.08,0,0,1-4.55-2,5.41,5.41,0,0,1-.63-2.52,5.77,5.77,0,0,1,5.92-5.61,6,6,0,0,1,4.55,2A5.22,5.22,0,0,1,222.18,201.46Z"/><path class="cls-3" d="M151.26,34.94c0,4.91-5,8.88-11.14,8.88a12.37,12.37,0,0,1-8.55-3.2A7.85,7.85,0,0,1,129,34.94c0-4.91,5-8.88,11.13-8.88,4.36,0,8.13,2,9.95,4.9A7.37,7.37,0,0,1,151.26,34.94Z"/><path class="cls-4" d="M151.26,34.94c0,4.91-5,8.88-11.14,8.88a12.37,12.37,0,0,1-8.55-3.2,7.43,7.43,0,0,1-1.19-4c0-4.91,5-8.89,11.13-8.89A12.34,12.34,0,0,1,150.07,31,7.37,7.37,0,0,1,151.26,34.94Z"/></svg>