<svg id="Layer_1" data-name="Layer 1" xmlns="http://www.w3.org/2000/svg" viewBox="0 0 350 350"><defs><style>.cls-1{fill:#2e6fff;}.cls-2{fill:#6296f4;}.cls-3{fill:#2a66d1;}.cls-4{fill:#2a6fd3;}</style></defs><title>neptune</title><g id="Neptune"><path class="cls-1" d="M350,174.83q0,5.1-.29,10.12-.36,6.45-1.2,12.76a175.08,175.08,0,0,1-331,53.45A174.3,174.3,0,0,1,0,174.83a176.52,176.52,0,0,1,2.45-29.36A174,174,0,0,1,21.12,91.41a175.17,175.17,0,0,1,307.76,0,174,174,0,0,1,18.67,54.06A176.52,176.52,0,0,1,350,174.83Z"/><path class="cls-2" d="M298.36,50.71H51.64A176.34,176.34,0,0,1,69.08,35.52a175,175,0,0,1,211.84,0A176.34,176.34,0,0,1,298.36,50.71Z"/><path class="cls-3" d="M328.88,91.41H21.12a176,176,0,0,1,48-55.89H280.92a176.05,176.05,0,0,1,48,55.89Z"/><path class="cls-4" d="M347.55,145.47H2.45A174,174,0,0,1,21.12,91.41,175.83,175.83,0,0,1,33,72.58H317a175.83,175.83,0,0,1,11.85,18.83A174,174,0,0,1,347.55,145.47Z"/><path class="cls-3" d="M332.52,251.16a175.13,175.13,0,0,1-315,0Z"/><path class="cls-2" d="M314.18,280.92a175,175,0,0,1-278.36,0Z"/><path class="cls-3" d="M295.67,301.57a175,175,0,0,1-241.34,0Z"/><path class="cls-2" d="M349.71,185q-.36,6.45-1.2,12.76H192.66V185Z"/><ellipse class="cls-4" cx="200.86" cy="187.38" rx="68.94" ry="26.73"/><ellipse class="cls-3" cx="195.09" cy="188.4" rx="35.84" ry="13.57"/><ellipse class="cls-2" cx="165.43" cy="204.09" rx="19.95" ry="2.13"/></g></svg>