<svg id="Layer_1" data-name="Layer 1" xmlns="http://www.w3.org/2000/svg" viewBox="0 0 350 350"><defs><style>.cls-1{fill:#ffcd73;}.cls-2{fill:#edaa3e;}.cls-3{fill:#ea971f;}</style></defs><title>pluto</title><g id="Pluto"><path class="cls-1" d="M350,173.83a175.55,175.55,0,0,1-4.84,41A175.13,175.13,0,0,1,175,348.83a174.23,174.23,0,0,1-95.53-28.35q-3.21-2.1-6.31-4.32a175.92,175.92,0,0,1-44-45.55A173.88,173.88,0,0,1,.09,179.18h0Q0,176.52,0,173.83A174.23,174.23,0,0,1,32.25,72.58q3.8-5.33,8-10.37a175.11,175.11,0,0,1,215-43.95c1.81.93,3.6,1.9,5.37,2.89a175.66,175.66,0,0,1,58,52.58A174.37,174.37,0,0,1,350,173.83Z"/><path class="cls-2" d="M297.74,49.09c-31.55,33.79-76.12,53.71-121.53,63.13-47.71,9.89-96.9,9.23-145.62,8.52-6.18,0-14.36-1.32-22-1.27A174.78,174.78,0,0,0,0,173.83q0,2.68.09,5.34h0L49,183.56c14.5,1.31,29.58,2.54,43.24-2.52,8.67-3.22,16.24-8.8,24.52-12.93,23.49-11.72,51.08-11.13,76.34-18.29,14.52-4.12,28.18-10.79,41.75-17.42l43.62-21.31c9.44-4.62,19-9.32,26.86-16.32,6.28-5.6,11.39-12.94,13.27-21Z"/><path class="cls-2" d="M334.53,245.88a174.93,174.93,0,0,1-19.71,33.19c-24.75,15.35-50.21,29.55-75.65,43.74-8.89,5-18,10-28,11.79-22.63,4-48.17-8.61-67.85,3.29a58.49,58.49,0,0,0-8.22,6.37,174.17,174.17,0,0,1-55.62-23.78c1,0,2-.08,3-.16q15.16-1.31,30.32-2.91c42.17-4.44,84.41-10.41,124.93-22.9C272.39,283.81,306,268.13,334.53,245.88Z"/><path class="cls-2" d="M255.22,18.26c-10,1.65-19.62,9.18-28.79,14.77-18.52,11.3-40.38,15.55-61.82,18.83q-41.29,6.3-83,8.81Q60.92,61.9,40.22,62.21q-4.19,5-8,10.37c18,3.53,36.69,4,55,2.52,26-2.07,51.55-7.83,77-13.57,15.44-3.49,31-7,45.56-13.21a265.64,265.64,0,0,0,24.91-12.76l25.83-14.41Z"/><path class="cls-2" d="M350,173.83c0,3.14-.08,6.25-.25,9.35a174.81,174.81,0,0,1-4.59,31.68c-5,3.31-10.58,5.86-15.9,8.69-23.6,12.55-43.43,31.75-68,42.23-27.13,11.57-57.57,11.52-86.62,16.64-35,6.17-68.21,19.93-101.06,33.57l-.41.17a176.38,176.38,0,0,1-44-45.55l44.5-.74c24.95-.41,50.66-1,73.52-11,7.09-3.11,13.8-7.09,21.09-9.68,11.43-4.07,23.78-4.57,35.75-6.62,12.87-2.2,25.34-6.2,37.75-10.27S267,223.86,276.53,215c6.33-5.88,10.89-13.43,17-19.59,7.4-7.53,16.81-12.76,24.68-19.81,11.83-10.61,19.65-24.79,28-38.35A175.14,175.14,0,0,1,350,173.83Z"/><path class="cls-2" d="M281.7,179.88a43.51,43.51,0,0,1-10.5,12c-5.59,4.31-12.23,6.87-19.4,6.31-4.85.43-8.92-.24-12.49-3.55a17.7,17.7,0,0,1-5.57-13.05c0-1.88-.22-4,.49-5.69a38.61,38.61,0,0,1,6.68-10.67,53.42,53.42,0,0,1,7.74-7.18C263.7,146.43,294.73,158.28,281.7,179.88Z"/><path class="cls-3" d="M350,173.83c0,3.14-.08,6.25-.25,9.35C298.4,231.86,227.31,253.71,158,268.75q-20.73,4.5-41.59,8.38Q80,283.93,43.28,288.82l-.17,0a174.92,174.92,0,0,1-13.93-18.23l44.5-.74c24.95-.41,50.66-1,73.52-11,7.09-3.11,13.8-7.09,21.09-9.68,11.43-4.07,23.78-4.57,35.75-6.62,12.87-2.2,25.34-6.2,37.75-10.27S267,223.86,276.53,215c6.33-5.88,10.89-13.43,17-19.59,7.4-7.53,16.81-12.76,24.68-19.81,11.83-10.61,19.65-24.79,28-38.35A175.14,175.14,0,0,1,350,173.83Z"/><path class="cls-3" d="M271.2,191.83c-5.59,4.31-12.23,6.87-19.4,6.31-4.85.43-8.92-.24-12.49-3.55a17.7,17.7,0,0,1-5.57-13.05c0-1.88-.22-4,.49-5.69a38.61,38.61,0,0,1,6.68-10.67c9.28-3.9,20.93-2.39,28.18,4.94C275.91,177,275.31,185,271.2,191.83Z"/></g></svg>