<?xml version="1.0" encoding="utf-8"?>
<!-- Generator: Adobe Illustrator 23.0.2, SVG Export Plug-In . SVG Version: 6.00 Build 0)  -->
<svg version="1.1" id="Layer_1" xmlns="http://www.w3.org/2000/svg" xmlns:xlink="http://www.w3.org/1999/xlink" x="0px" y="0px"
	 viewBox="0 0 350 350" style="enable-background:new 0 0 350 350;" xml:space="preserve">
<style type="text/css">
	.st0{fill:#BC3A06;}
	.st1{fill:#FF5200;}
	.st2{fill:#BC3004;}
	.st3{fill:#D03800;}
	.st4{fill:#FFFFFF;stroke:#000000;stroke-width:3.5035;stroke-miterlimit:10;}
	.st5{fill:#A5A5A5;}
	.st6{fill:#CCCCCC;}
	.st7{fill:#AAAAAA;}
	.st8{fill:#939393;}
	.st9{fill:#FFFFFF;stroke:#000000;stroke-width:3.4974;stroke-miterlimit:10;}
	.st10{fill:#FFCD73;}
	.st11{fill:#EDAA3E;}
	.st12{fill:#EA971F;}
	.st13{fill:#FFFFFF;stroke:#000000;stroke-width:3.5;stroke-miterlimit:10;}
	.st14{fill:#12C8CC;}
	.st15{fill:#16BFBF;}
	.st16{fill:#16D8D8;}
	.st17{fill:#159E9A;}
	.st18{fill:#78EFEF;}
	.st19{fill:#40D3D3;}
	.st20{fill:#13847E;}
	.st21{fill:#6FEFE6;}
	.st22{fill:#FFFFFF;stroke:#000000;stroke-width:3.4964;stroke-miterlimit:10;}
	.st23{fill:#C2E4FF;}
	.st24{fill:#F4E4D9;}
	.st25{fill:#EAA271;}
	.st26{fill:#683818;}
	.st27{fill:#FFFFFF;stroke:#000000;stroke-width:3.4945;stroke-miterlimit:10;}
	.st28{fill:#FF4217;}
	.st29{fill:#FF6217;}
	.st30{fill:#FF8117;}
	.st31{fill:#F9A62D;}
	.st32{fill:#992516;}
	.st33{fill:#D83419;}
	.st34{opacity:0.4;enable-background:new    ;}
	.st35{fill:#2E6FFF;}
	.st36{fill:#6296F4;}
	.st37{fill:#2A66D1;}
	.st38{fill:#2A6FD3;}
	.st39{fill:#DAC3A3;}
	.st40{fill:#C0AC87;}
	.st41{fill:#C3A573;}
	.st42{fill:#CDA96F;}
	.st43{fill:#B79869;}
	.st44{fill:#DFBB7D;}
	.st45{fill:#9D845D;}
	.st46{opacity:0.59;enable-background:new    ;}
	.st47{fill:#C6AC89;}
	.st48{fill:#998665;}
	.st49{fill:#857353;}
	.st50{fill:#A58D66;}
	.st51{fill:#6D5D45;}
	.st52{fill:#FFFFFF;stroke:#000000;stroke-width:3.4957;stroke-miterlimit:10;}
	.st53{fill:#008AD0;}
	.st54{fill:#00D00E;}
	.st55{fill:#FFFFFF;stroke:#000000;stroke-width:3.4998;stroke-miterlimit:10;}
</style>
<title>roadmapsample</title>
<g id="Mars">
	<path class="st0" d="M-494.2-247.1c0,96.7-78.5,174.8-175.2,174.8s-174.8-78.5-174.8-175.2s78.5-174.8,175.2-174.8
		c15.8,0,31.5,2.1,46.9,6.3c1.8,0.4,3.2,1.1,4.9,1.4C-544-391.4-494.2-323.8-494.2-247.1L-494.2-247.1z"/>
	<path class="st1" d="M-496-269.8c-11.9,102-94.6,182.9-199.3,196.2C-791-88-857.2-177-842.8-272.6c14.4-95.6,103.4-161.9,199-147.5
		c7.4,1.1,14.4,2.5,21.4,4.6c1.8,0.4,3.2,1.1,4.9,1.4C-552-393.9-504.7-337.5-496-269.8L-496-269.8z"/>
	<path class="st2" d="M-659.2-311.9c0,19.6-14.4,35.4-32.2,35.4c-9.8,0-18.9-4.9-24.9-12.6c-4.9-6.7-7.4-14.4-7.4-22.4
		c0-19.6,14.4-35.4,32.2-35.4c12.6,0,23.5,8.1,29.1,19.6C-660.3-322.7-659.2-317.5-659.2-311.9z"/>
	<path class="st3" d="M-659.2-311.9c0,19.6-14.4,35.4-32.2,35.4c-9.8,0-18.9-4.9-24.9-12.6c-2.5-4.9-3.5-10.5-3.5-15.8
		c0-19.6,14.4-35.4,32.2-35.4c9.8,0,18.9,4.9,24.9,12.6C-660.3-322.7-659.2-317.5-659.2-311.9z"/>
	<path class="st2" d="M-743.3-160.2c0,15.1-9.8,27.3-22.4,27.3c-7,0-13-3.9-17.2-9.8c-3.5-5.3-5.3-11.2-5.3-17.5
		c0-15.1,9.8-27.3,22.4-27.3c8.8,0,16.1,6.3,20,15.1C-744-168.6-743.3-164.4-743.3-160.2z"/>
	<path class="st3" d="M-743.3-160.2c0,15.1-9.8,27.3-22.4,27.3c-7,0-13-3.9-17.2-9.8c-1.8-3.9-2.5-8.1-2.5-12.3
		c0-15.1,9.8-27.3,22.4-27.3c7,0,13,3.9,17.2,9.8C-744-168.6-743.3-164.4-743.3-160.2z"/>
	<path class="st2" d="M-775.5-255.8c0,11.6-7.7,21-17.2,21c-5.3,0-10.5-2.8-13.3-7.4c-2.8-3.9-3.9-8.8-3.9-13.3
		c0-11.6,7.7-21,17.2-21c6.7,0,12.6,4.6,15.4,11.6C-776.2-262.1-775.5-259-775.5-255.8z"/>
	<path class="st3" d="M-775.5-255.8c0,11.6-7.7,21-17.2,21c-5.3,0-10.5-2.8-13.3-7.4c-1.1-3.2-1.8-6.3-1.8-9.5
		c0-11.6,7.7-21,17.2-21c5.3,0,10.5,3.2,13.3,7.7C-776.2-262.1-775.5-259-775.5-255.8z"/>
	<path class="st2" d="M-509.6-269.1c0,23.8-12.6,43.1-28.4,43.1c-8.8,0-16.5-6-21.7-15.4c-4.6-8.4-6.7-17.9-6.7-27.3
		c0-23.8,12.6-43.1,28.4-43.1c11.2,0,20.7,9.5,25.2,23.8C-510.7-282.1-509.6-275.8-509.6-269.1z"/>
	<path class="st3" d="M-509.6-269.1c0,23.8-12.6,43.1-28.4,43.1c-8.8,0-16.5-6-21.7-15.4c-2.1-6.3-3.2-12.6-3.2-19.3
		c0-23.8,12.6-43.1,28.4-43.1c8.8,0,16.5,6,21.7,15.4C-510.7-282.1-509.6-275.8-509.6-269.1z"/>
	<path class="st2" d="M-611.9-123.7c0,9.1-4.9,16.5-11.2,16.5c-3.5,0-6.7-2.5-8.4-6c-1.8-3.2-2.8-7-2.5-10.5
		c0-9.1,4.9-16.5,11.2-16.5c4.2,0,8.1,3.9,9.8,9.1C-612.3-128.6-611.9-126.2-611.9-123.7z"/>
	<path class="st3" d="M-611.9-123.7c0,9.1-4.9,16.5-11.2,16.5c-3.5,0-6.7-2.5-8.4-6c-0.7-2.5-1.1-4.9-1.1-7.4
		c0-9.1,4.9-16.5,11.2-16.5c3.5,0,6.7,2.5,8.4,6C-612.3-128.6-611.9-126.2-611.9-123.7z"/>
	<path class="st2" d="M-665.2-168.2c0,20-13,36.4-29.4,36.4c-9.1,0-17.2-5.3-22.4-13c-4.6-7-7-15.1-6.7-23.5
		c0-20.3,13-36.4,29.4-36.4c11.6,0,21.4,8.1,26.3,20C-666.2-179.1-665.2-173.8-665.2-168.2z"/>
	<path class="st3" d="M-665.2-168.2c0,20-13,36.4-29.4,36.4c-9.1,0-17.2-5.3-22.4-13c-2.1-5.3-3.2-10.9-3.2-16.5
		c0-20.3,13-36.4,29.4-36.4c9.1,0,17.2,5.3,22.4,13.3C-666.2-179.1-665.2-173.8-665.2-168.2z"/>
	<path class="st2" d="M-594.8-200.1c0,14.4-8.8,25.9-19.6,25.9c-6,0-11.6-3.5-15.1-9.5c-3.2-4.9-4.6-10.9-4.6-16.8
		c0-14.4,8.8-25.9,19.6-25.9c7.7,0,14.4,6,17.5,14.4C-595.5-208.2-594.8-204-594.8-200.1z"/>
	<path class="st3" d="M-594.8-200.1c0,14.4-8.8,25.9-19.6,25.9c-6,0-11.6-3.5-15.1-9.5c-1.4-3.9-2.1-7.7-2.1-11.6
		c0-14.4,8.8-25.9,19.6-25.9c6,0,11.6,3.5,15.1,9.5C-595.5-208.2-594.8-204-594.8-200.1z"/>
	<path class="st2" d="M-617.2-414.2c10.2,3.2,20,7.4,29.4,12.3c-0.4,10.9-9.1,19.6-20,19.3c-10.9-0.4-19.6-9.1-19.3-20
		c0-4.9,1.8-9.5,5.3-13L-617.2-414.2z"/>
	<path class="st3" d="M-587.8-402.3c1.8,10.2-5.3,19.6-15.4,21.4c-10.2,1.8-19.6-5.3-21.4-15.4c-1.1-7,1.8-13.7,7.4-17.9
		C-607-411-597.2-407.2-587.8-402.3z"/>
	<path class="st2" d="M-746.8-382.7c0,3.9-4.2,7-9.1,7c-2.5,0-4.9-0.7-7-2.5c-1.4-1.1-2.1-2.8-2.1-4.6c0-3.9,4.2-7,9.1-7
		c3.2,0,6.3,1.4,8.1,3.9C-747.2-384.8-746.8-383.7-746.8-382.7z"/>
	<path class="st3" d="M-746.8-382.7c0,3.9-4.2,7-9.1,7c-2.5,0-4.9-0.7-7-2.5c-0.7-1.1-1.1-2.1-1.1-3.2c0-3.9,4.2-7,9.1-7
		c2.5,0,5.3,0.7,7,2.5C-747.2-384.8-746.8-383.7-746.8-382.7z"/>
	<path class="st4" d="M-717.7-249.9c0-7,3.2-12.6,9.5-16.8c6-3.9,22.4-11.6,49.4-23.1h-50.8c-14.4,0-21.7-7.7-21.7-22.8
		c0-5.3,0.7-9.8,2.5-13.7c2.1-4.6,6.7-7.4,11.6-7.4h84.1c5.3,0,10.2,2.5,14.4,7.7c4.6,6,6.7,13,7,21.7c0,11.2-2.8,20.3-8.4,27.3
		c-6.3,7.7-17.5,14.7-33.6,21.4c15.4,1.8,26.6,5.6,33.3,11.6c6.7,6,10.2,15.1,10.2,27.3c0,16.5-6,29.1-18.6,37.8
		c-12.3,8.8-29.1,13-50.8,13c-16.1,0-28.7-2.5-38.2-7.7c-9.5-5.3-14-12.6-14-22.1c0-11.9,3.9-18.9,11.2-21
		c12.3,6.7,24.5,10.2,36.1,10.2c15.8,0,23.8-4.2,23.8-13c0-4.6-3.5-7.7-10.9-9.5c-6.7-1.4-18.9-2.1-36.4-2.1
		C-714.6-234.8-717.7-241.1-717.7-249.9z"/>
</g>
<g>
	<path class="st5" d="M-908.9-247.1c0,96.5-78.3,174.9-174.9,174.9s-174.9-78.3-174.9-174.9c0-80.8,55.6-151.4,134.3-170
		c29-7,59.1-6.3,87.8,1.7c1.7,0.3,3.1,1,4.9,1.4C-958.6-391.6-908.9-323.7-908.9-247.1L-908.9-247.1z"/>
	<path class="st6" d="M-908.9-247.1c0,40.2-13.6,79-39.2,110.2c-3.8,0.3-8,0.3-11.9,0.3c-106.3,0-192.4-82.9-192.4-185
		c0-33.9,9.8-67.2,28-95.8c29-7,59.1-6.3,87.8,1.7c1.7,0.3,3.1,1,4.9,1.4C-958.6-391.6-908.9-323.7-908.9-247.1L-908.9-247.1z"/>
	<path class="st7" d="M-1101.6-273c0,19.6-14.3,35.3-32.2,35.3c-9.8,0-18.9-4.9-24.8-12.6c-4.9-6.6-7.3-14.3-7.3-22.4
		c0-19.6,14.3-35.3,32.2-35.3c12.6,0,23.4,8,29,19.6C-1103-283.8-1101.6-278.2-1101.6-273z"/>
	<path class="st8" d="M-1101.6-273c0,19.6-14.3,35.3-32.2,35.3c-9.8,0-18.9-4.9-24.8-12.6c-2.4-4.9-3.5-10.5-3.5-15.7
		c0-19.6,14.3-35.3,32.2-35.3c9.8,0,18.9,4.9,24.8,12.6C-1103-283.8-1101.6-278.2-1101.6-273z"/>
	<path class="st7" d="M-1189.4-255.9c0,11.5-7.7,21-17.1,21c-5.2,0-10.5-2.8-13.3-7.3c-2.4-3.8-3.8-8.7-3.8-13.3
		c0-11.5,7.7-21,17.1-21c6.6,0,12.6,4.5,15.4,11.5C-1190.1-262.5-1189.4-259-1189.4-255.9z"/>
	<path class="st8" d="M-1189.4-255.9c0,11.5-7.7,21-17.1,21c-5.2,0-10.5-2.8-13.3-7.3c-1-3.1-1.7-6.3-1.7-9.4c0-11.5,7.7-21,17.1-21
		c5.2,0,10.5,3.1,13.3,7.7C-1190.1-262.5-1189.4-259-1189.4-255.9z"/>
	<path class="st7" d="M-939.4-242.2c0,10.1-7.7,18.5-17.5,18.5c-5.2,0-10.1-2.4-13.6-6.6c-2.8-3.5-4.2-7.7-4.2-11.9
		c0-10.1,7.7-18.5,17.5-18.5c6.6,0,12.9,4.2,15.7,10.5C-939.7-247.8-939.4-245-939.4-242.2z"/>
	<path class="st8" d="M-939.4-242.2c0,10.1-7.7,18.5-17.5,18.5c-5.2,0-10.1-2.4-13.6-6.6c-1.4-2.4-1.7-5.6-1.7-8.4
		c0-10.1,7.7-18.5,17.5-18.5c5.2,0,10.1,2.4,13.6,7C-939.7-247.8-939.4-245-939.4-242.2z"/>
	<path class="st7" d="M-1016.7-330.7c0,12.2-9.1,22.4-20.6,22.4c-6.3,0-12.2-3.1-15.7-8c-3.1-4.2-4.9-9.1-4.9-14.3
		c0-12.2,9.1-22.4,20.6-22.4c8,0,15,4.9,18.2,12.2C-1017.4-337.3-1016.7-333.9-1016.7-330.7z"/>
	<path class="st8" d="M-1016.7-330.7c0,12.2-9.1,22.4-20.6,22.4c-6.3,0-12.2-3.1-15.7-8c-1.4-3.1-2.1-6.6-2.1-10.1
		c0-12.2,9.1-22.4,20.6-22.4c6.3,0,12.2,3.1,15.7,8C-1017.4-337.3-1016.7-333.9-1016.7-330.7z"/>
	<path class="st7" d="M-1032-118.4c0,5.9-3.8,10.8-8.4,10.8c-2.8,0-4.9-1.7-6.3-3.8c-1.4-2.1-2.1-4.5-1.7-7c0-5.9,3.8-10.8,8.4-10.8
		c3.1,0,5.9,2.4,7.3,5.9C-1032-121.9-1032-120.2-1032-118.4z"/>
	<path class="st8" d="M-1032-118.4c0,5.9-3.8,10.8-8.4,10.8c-2.8,0-4.9-1.7-6.3-3.8c-0.7-1.4-1-3.1-1-4.9c0-5.9,3.8-10.8,8.4-10.8
		c2.8,0,4.9,1.7,6.3,3.8C-1032-121.9-1032-120.2-1032-118.4z"/>
	<path class="st7" d="M-1036.6-220.9c0,3.1-2.8,5.6-5.9,5.6l0,0c-1.7,0-3.5-0.7-4.5-2.1c-1-1-1.4-2.1-1.4-3.5c0-3.1,2.8-5.6,5.9-5.6
		c2.1,0,4.2,1,5.2,3.1C-1036.9-222.6-1036.6-221.6-1036.6-220.9z"/>
	<path class="st8" d="M-1036.6-220.9c0,3.1-2.8,5.6-5.9,5.6l0,0c-1.7,0-3.5-0.7-4.5-2.1c-0.3-0.7-0.7-1.7-0.7-2.4
		c0-3.1,2.8-5.6,5.9-5.6c1.7,0,3.5,0.7,4.5,2.1C-1036.9-222.6-1036.6-221.6-1036.6-220.9z"/>
	<path class="st7" d="M-1107.6-387.4c0,4.9-4.9,8.7-11.2,8.7c-3.1,0-6.3-1-8.4-3.1c-1.7-1.4-2.4-3.5-2.4-5.6c0-4.9,4.9-8.7,11.2-8.7
		c3.8,0,7.7,1.7,9.8,4.9C-1107.9-390.2-1107.6-388.8-1107.6-387.4z"/>
	<path class="st8" d="M-1107.6-387.4c0,4.9-4.9,8.7-11.2,8.7c-3.1,0-6.3-1-8.4-3.1c-0.7-1-1-2.4-1-3.8c0-4.9,4.9-8.7,11.2-8.7
		c3.1,0,6.3,1,8.4,3.1C-1107.9-390.2-1107.6-388.8-1107.6-387.4z"/>
	<path class="st9" d="M-1117-280c-5.2,1.7-9.4,2.8-12.9,2.8c-5.2,0-9.4-2.4-12.2-7.7c-2.1-4.2-3.5-9.4-3.5-15.4
		c0-8.4,1.4-14.7,4.2-18.5c11.9-8,31.1-12.2,57-12.2c38.8,0,58.1,17.8,58.1,53.5c0,17.5-8.4,34.6-25.9,50.7
		c-9.4,8.7-18.9,15.7-28,20.3h54.2c3.1,3.8,4.5,9.4,4.5,16.8c0,17.5-11.2,25.9-33.6,25.9h-65.1c-12.9,0-20.3-6.6-22.4-20.3
		c-1-6.6-0.7-13.6,1-20.3c38.5-27.3,58.1-48.6,58.1-64c0-9.4-5.9-14.3-17.8-14.3C-1106.5-282.8-1111.8-281.7-1117-280z"/>
</g>
<g id="Pluto">
	<path class="st10" d="M-82.8,175c0,13.7-1.8,27.7-4.9,41C-106.6,294.7-176.9,350-257.8,350c-34,0-67.2-9.8-95.6-28.4
		c-2.1-1.4-4.2-2.8-6.3-4.2c-17.1-12.2-32.2-28-44.1-45.5c-18.2-27.3-28-58.8-29-91.4l0,0c0-1.8,0-3.5,0-5.2
		c0-36.4,11.2-71.7,32.2-101.1c2.5-3.5,5.2-7,8.1-10.5C-340,0-250.8-18.2-177.6,19.6c1.8,1.1,3.5,1.8,5.2,2.8
		C-117.1,53.2-82.8,111.6-82.8,175z"/>
	<path class="st11" d="M-134.9,50.4c-31.5,33.9-76,53.6-121.4,63c-48,9.8-97,9.1-146,8.4c-6.3,0-14.4-1.4-22-1.4
		c-5.6,17.8-8.4,36.1-8.4,54.6c0,1.8,0,3.5,0,5.2l0,0l49,4.6c14.3,1.4,29.8,2.4,43.4-2.4c8.8-3.2,16.1-8.8,24.5-13
		c23.5-11.5,51.1-11.2,76.3-18.2c14.3-4.2,28-10.8,41.6-17.5l43.8-21.3c9.4-4.5,18.9-9.4,26.9-16.4c6.3-5.6,11.6-13,13.3-21
		L-134.9,50.4z"/>
	<path class="st11" d="M-98.2,247.1c-5.2,11.9-11.9,22.7-19.6,33.2c-24.8,15.4-50.1,29.4-75.6,43.8c-8.8,4.9-17.8,10.2-28,11.9
		c-22.8,4.2-48.3-8.8-67.9,3.1c-2.8,1.8-5.6,3.9-8.1,6.3c-19.9-4.6-38.5-12.6-55.6-23.8c1,0,2.1,0,2.8,0c10.2-0.7,20.3-1.8,30.5-2.8
		c42-4.5,84.4-10.5,124.9-22.8C-160.5,284.9-126.9,269.1-98.2,247.1z"/>
	<path class="st11" d="M-177.6,19.2c-10.2,1.8-19.6,9.1-28.7,14.7c-18.6,11.6-40.3,15.8-62,18.9c-27.7,4.2-55.3,7-83,8.8
		c-13.6,0.7-27.6,1.4-41.3,1.4c-2.8,3.5-5.6,6.7-8.1,10.5c18.2,3.5,36.8,4.2,55,2.5c25.9-2.1,51.4-7.7,77-13.7
		c15.4-3.5,31.1-7,45.5-13.3c8.4-3.9,16.8-8.1,24.9-12.6l25.9-14.4L-177.6,19.2z"/>
	<path class="st11" d="M-82.8,175c0,3.2,0,6.3-0.3,9.5c-0.7,10.8-2.1,21.3-4.6,31.9c-4.9,3.2-10.5,5.9-15.8,8.8
		c-23.4,12.6-43.4,31.8-67.9,42.3c-27.3,11.6-57.4,11.6-86.5,16.8c-35,6.3-68.2,19.9-101.1,33.6h-0.4c-11.2-8-21-17.1-30.1-27.3
		c-4.9-5.6-9.8-11.9-14-18.2l44.1-1c24.8-0.4,50.8-1.1,73.5-10.9c7-3.1,13.6-7,21-9.8c11.5-4.2,23.8-4.6,35.7-6.7
		c12.9-2.1,25.2-6.3,37.8-10.2c12.6-4.2,25.2-8.4,34.7-17.5c6.3-5.9,10.8-13.3,16.8-19.6c7.3-7.7,16.8-12.6,24.8-19.9
		c11.9-10.5,19.6-24.9,28-38.5C-84.2,150.5-82.8,162.7-82.8,175z"/>
	<path class="st11" d="M-151,180.9c-2.8,4.5-6.3,8.8-10.5,11.9c-5.6,4.5-12.2,6.6-19.2,6.3c-4.9,0.3-8.8-0.3-12.6-3.5
		c-3.5-3.5-5.6-8-5.6-12.9c-0.3-1.8,0-3.8,0.3-5.6c1.8-3.9,3.8-7.4,6.7-10.5c2.4-2.8,4.9-4.9,7.7-7.4
		C-169.2,147.7-138.1,159.6-151,180.9z"/>
	<path class="st12" d="M-82.8,175c0,3.2,0,6.3-0.3,9.5c-51.4,48.6-122.5,70.7-191.8,85.7c-13.7,3.1-27.7,5.9-41.6,8.4
		c-24.1,4.6-48.6,8.4-73.1,11.6l0,0c-4.9-5.6-9.8-11.9-14-18.2l44.4-0.7c24.8-0.4,50.8-1.1,73.5-10.9c7-3.1,13.6-7,21-9.8
		c11.5-4.2,23.8-4.6,35.7-6.7c12.9-2.1,25.2-6.3,37.8-10.2c12.6-4.2,25.2-8.4,34.7-17.5c6.3-5.9,10.8-13.3,16.8-19.6
		c7.3-7.7,16.8-12.6,24.8-19.9c11.9-10.5,19.6-24.9,28-38.5C-84.2,150.5-82.8,162.7-82.8,175z"/>
	<path class="st12" d="M-161.5,192.8c-5.6,4.5-12.2,6.6-19.2,6.3c-4.9,0.4-8.8-0.3-12.6-3.5c-3.5-3.5-5.6-8-5.6-12.9
		c-0.3-1.8,0-3.8,0.3-5.6c1.8-3.9,3.8-7.4,6.7-10.5c9.4-3.9,21-2.5,28.3,4.9C-157,178.1-157.3,186.2-161.5,192.8z"/>
	<path class="st13" d="M-212.3,182c14.7,8.4,22.1,20.3,22.1,35.7c0,33.2-23.1,50.1-68.9,50.1c-19.2,0-34.6-4.6-45.5-13.3
		s-16.1-20.3-16.1-34.7c0-17.2,8-30.1,24.1-38.5c-14.7-10.2-22-22-22-35.7c0-14.7,5.6-26.2,16.5-35c11.2-8.8,26.6-13.3,46.2-13.3
		c19.2,0,34.6,4.9,45.8,14c10.9,8.8,16.4,20,16.4,33.2C-193.7,159.2-199.7,171.8-212.3,182z M-264.1,199.1
		c-5.6,6.7-8.4,13.3-8.4,19.2c0,9.4,4.9,14.3,14,14.3c8.8,0,13.3-4.2,13.3-12.9C-244.8,213.1-251.1,206.1-264.1,199.1z M-245.5,168
		c3.9-5.9,5.6-11.5,5.6-16.4c0-10.5-4.6-15.8-14-15.8c-9.1,0-13.7,4.6-13.7,13.3C-267.2,156.1-260.2,162.4-245.5,168z"/>
</g>
<g id="Urenus">
	<path class="st14" d="M-83-247.2c0,9.1-0.7,18.2-2.1,27.3l-0.3,2.4c-16.4,95.1-107,158.7-202.1,142.3
		c-36.4-6.3-69.9-24.1-95.8-50.7c-4.2-4.2-8-8.7-11.9-13.6c-16.8-21.3-28.3-46.5-33.9-73.1c-1.4-6.6-2.1-12.9-2.8-19.6
		c-0.3-4.9-0.7-10.1-0.7-15c0-21.3,3.8-42.3,11.5-62.2c1-3.1,2.4-5.9,3.8-9.1c39.2-88.1,142.7-128,230.8-88.5
		c14,6.3,27.3,14.3,39.2,24.1c3.1,2.4,5.9,4.9,8.7,7.7c12.2,11.5,22.7,24.5,31.1,38.8c2.8,4.5,5.2,9.4,7.7,14.7
		c3.8,8.4,7.3,17.1,9.8,26.2c0.3,0.7,0.3,1.4,0.7,2.1C-85.1-278.3-83-262.9-83-247.2z"/>
	<path class="st15" d="M-138.6-375.2c-3.1,0.7-6.6,1-10.1,1.7c-30.4,4.5-60.1,11.9-89.2,22.4c-44.4,16.1-88.8,39.2-136,36.4
		c-12.9-0.7-25.9-3.5-38.1,0.7c-3.5,1.4-6.6,2.8-9.4,4.9c1-3.1,2.4-5.9,3.8-9.1c39.2-88.1,142.7-128,230.8-88.5
		c14,6.3,27.3,14.3,39.2,24.1C-144.5-380.4-141.4-377.6-138.6-375.2z"/>
	<path class="st16" d="M-99.4-321.7c-9.8,4.9-21,4.5-32.2,4.2l-58.4-2.1c-10.8-0.3-22-0.7-32.5,2.4c-10.5,3.1-20.3,10.5-23.4,21
		c-2.8,9.4,0,19.6-1.7,29c-2.4,12.2-12.2,22.4-23.4,28c-11.2,5.6-23.8,7.3-36.4,9.4L-412.3-214c-5.6,1-10.8,1.4-16.4,1.7
		c-1.4-6.6-2.1-12.9-2.8-19.6c-0.3-4.9-0.7-10.1-0.7-15c0-21.3,3.8-42.3,11.5-62.2c1-3.1,2.4-5.9,3.8-9.1c5.6-0.3,11.5-0.3,17.1-0.3
		c16.1,0.3,31.8,2.4,47.9,1.4c45.5-3.1,85.3-29.4,127.3-45.8c24.8-9.8,51-16.4,77.6-19.6c3.1,2.4,5.9,4.9,8.7,7.7
		c12.2,11.5,22.7,24.5,31.1,38.8C-104.3-331.5-101.9-326.6-99.4-321.7z"/>
	<path class="st17" d="M-85.1-219.9l-0.3,2.4c-16.4,95.1-106.6,159.1-201.7,142.7c-21.3-3.5-41.6-11.2-60.1-22.4
		c13.3-15.7,31.8-25.9,51.4-32.5c19.6-6.6,40.2-10.1,60.1-15.4c19.9-4.9,40.2-11.9,57-23.8c13.6-10.1,24.8-23.4,37.4-34.3
		c12.6-10.8,29-19.9,45.8-18.9C-91.7-222-88.2-221.3-85.1-219.9z"/>
	<path class="st18" d="M-83-247.2c0,9.1-0.7,18.2-2.1,27.3l-0.3,2.4c-15.7,3.5-29.7,11.9-40.6,23.8c-14.7,16.4-25.2,36-40.2,52.4
		c-38.1,41.3-44.4,14-67.8,14.3c-23.4,0.3-56.6,29-66.1,18.9c-7-7.3-12.2,16.8-18.5,24.8c-9.8-3.8-19.6-8.4-28.3-13.6
		c-13.3-8-25.2-17.5-36-28.7c-4.2-4.2-8-8.7-11.9-13.6c5.9-7.7,29.7-16.8,21-21c-40.6-18.9,42.7-23.1,62.9-36
		c111.2-71.7,110.1-82.2,147.2-72.7c28,7,42-9.8,68.5-21.3l7-3.1C-84.7-278.3-83-262.9-83-247.2z"/>
	<path class="st19" d="M-89.6-295.4c-2.1,1.7-4.2,3.5-6.3,4.9c-10.5,8-21.7,15.7-32.5,23.1c-15.7,10.8-29,28-47.6,30.8
		c-60.1,9.1-63.3,35.3-95.8,48.6c-18.9,7.7-38.1,10.5-57.3,18.2c-10.5,4.2-22,9.4-26.9,19.9c-2.1,4.5-2.4,9.4-4.9,13.6
		c-4.5,7.7-13.3,10.1-22.4,10.5c-4.2-4.2-8-8.7-11.9-13.6c-16.8-21.3-28.3-46.5-33.9-73.1c-1.4-6.6-2.1-12.9-2.8-19.6
		c5.2-2.8,10.8-5.2,16.1-7c22-8,45.5-10.8,68.2-15.7c22.7-4.9,42-18.5,64-19.6c17.5-0.7,21.7-36,36.4-45.1c15.7-9.8,25.5-1,44.1-2.1
		c28.7-1.4-32.9-19.6,95.8-14.7c2.8,4.5,5.2,9.4,7.7,14.7C-95.6-313.3-92.1-304.5-89.6-295.4z"/>
	<circle class="st20" cx="-165.1" cy="-271.7" r="3.1"/>
	<ellipse class="st20" cx="-127" cy="-226.9" rx="3.8" ry="0.7"/>
	<ellipse class="st20" cx="-255.7" cy="-157.3" rx="4.9" ry="3.1"/>
	<circle class="st20" cx="-249.8" cy="-93.3" r="1"/>
	<ellipse class="st20" cx="-155" cy="-128" rx="4.9" ry="2.1"/>
	<ellipse class="st20" cx="-374.6" cy="-216.4" rx="3.5" ry="1.4"/>
	<ellipse class="st20" cx="-387.2" cy="-288.4" rx="3.1" ry="0.3"/>
	<ellipse class="st20" cx="-320" cy="-377.3" rx="1.7" ry="4.5"/>
	<circle class="st20" cx="-287.5" cy="-369.2" r="1.7"/>
	<ellipse class="st20" cx="-310.6" cy="-307.3" rx="3.5" ry="2.1"/>
	<ellipse class="st20" cx="-210.2" cy="-356.6" rx="5.9" ry="1.4"/>
	<ellipse class="st21" cx="-338.2" cy="-129" rx="4.2" ry="1"/>
	<ellipse class="st21" cx="-210.2" cy="-197.9" rx="3.1" ry="1.4"/>
	<ellipse class="st21" cx="-278.4" cy="-240.5" rx="5.6" ry="0.3"/>
	<circle class="st21" cx="-323.9" cy="-204.2" r="1"/>
	<circle class="st21" cx="-377" cy="-296.5" r="1"/>
	<circle class="st21" cx="-367.6" cy="-343.3" r="3.8"/>
	<circle class="st21" cx="-262" cy="-330.8" r="1.4"/>
	<ellipse class="st21" cx="-218.3" cy="-298.6" rx="4.9" ry="1"/>
	<ellipse class="st21" cx="-241.7" cy="-219.9" rx="1.4" ry="0.3"/>
	<ellipse class="st21" cx="-175.3" cy="-179.7" rx="4.5" ry="2.8"/>
	<circle class="st21" cx="-127.7" cy="-163.3" r="2.8"/>
	<circle class="st21" cx="-251.5" cy="-106.6" r="1.7"/>
	<path class="st22" d="M-212.7-180.1c0,11.2-8.7,16.8-26.6,16.8c-18.9,0-28.3-5.6-28.3-16.8v-17.1h-35.7c-24.8,0-37.1-7.7-37.1-23.8
		c0-5.2,0.3-9.4,1.7-13.3l40.2-71.3c4.9-8.7,10.5-14.7,16.4-18.5c7.3-4.5,17.8-6.6,31.5-6.6c11.5,0,20.6,1.4,27.6,3.8
		c5.9,2.1,10.1,8,10.1,14.3v78.3h16.4c2.4,4.2,3.8,9.8,3.8,16.8c0,7-1.4,12.2-3.5,14.7c-2.8,3.8-8.4,5.6-16.8,5.6V-180.1z
		 M-267.9-286.7l-27.6,53.5h27.6V-286.7z"/>
</g>
<g id="Jupiter">
	<path class="st23" d="M-908.8,175.3c0,3.8,0,7.3-0.3,11.2c-0.3,3.8-0.7,7-1,10.5c-0.3,3.5-1,6.6-1.4,9.8c-1.7,9.1-3.8,17.8-7,26.2
		l0,0c-32.2,91.2-132.2,139-223.4,106.9c-45.8-16.1-82.9-50.6-102.1-95c-2.4-5.6-4.5-11.2-6.3-16.8c-0.7-1.7-1-3.5-1.7-5.2
		c-2.8-11.2-4.9-22.4-5.9-33.5c-0.3-4.5-0.7-9.1-0.7-13.6v-1.7c0-9.1,0.7-18.2,2.1-27.2c0.7-4.5,1.7-9.4,2.8-14
		c2.4-9.8,5.6-19.6,9.8-28.6c39.2-88.4,142.3-128.2,230.4-89.1c32.5,14.3,60.1,38.4,78.7,68.8c4.9,8.4,9.4,16.8,12.9,25.8
		c2.1,5.2,3.8,10.1,5.6,15.7l0,0c0.7,1.7,1,3.5,1.4,5.6c1.4,4.9,2.4,10.1,3.1,15.4c0.3,1,0.3,2.4,0.7,3.5
		C-909.5,158.2-908.8,166.6-908.8,175.3z"/>
	<path class="st24" d="M-961.6,50.3l-161.9,18.9c-12.9,1.4-26.6,2.8-38.5-2.4c-4.9-2.1-9.1-5.2-14-6.6c-6.3-1.7-13.3,0-19.9-0.7
		c-4.9-0.3-10.1-2.8-12.6-7c11.5-11.9,24.8-21.7,39.2-30c1,0,2.4-0.3,3.5-0.3c2.8-0.7,5.6-0.7,8.4-0.7c3.1,0.7,5.9,1.7,8.7,3.1
		c29,12.6,62.6,5.9,93.7-1c9.1-2.1,18.2-4.2,26.6-8c2.4-1,4.9-2.4,7.3-3.5C-998.7,21-978.4,33.9-961.6,50.3z"/>
	<path class="st25" d="M-916.2,125.8L-916.2,125.8c-2.4,1.7-4.9,3.5-7.3,4.9c-8,3.8-16.8,4.9-25.5,7c-4.9,1.4-10.1,2.8-14.7,4.9
		c-28.7,11.5-54.2,32.5-85,32.8c-10.5,0-20.6-2.1-31.1-2.8c-14.7-1-29,1-42.7,6.3c-15,5.6-31.1,15-46.2,9.1
		c-5.2-2.1-9.8-6.3-15.4-8.4c-10.1-4.2-21.7-1-32.5-0.3c-7,0.3-14.7-0.7-20.3-4.2c-3.5-2.1-5.9-5.2-7-9.1c-1.4-4.5-0.7-9.4-2.8-12.9
		c-2.1-3.5-5.6-4.9-9.4-5.6c0.7-4.5,1.7-9.4,2.8-14c2.4-9.8,5.6-19.6,9.8-28.6c4.2,2.1,8,4.9,11.9,7c4.9,2.8,10.1,5.6,15.7,5.9
		c10.8,1.4,21.3-5.2,31.8-4.5c11.5,0.3,21,8.4,31.8,12.2c10.5,3.5,21.7,3.1,32.9,2.8l20.3-0.7c19.9-0.7,39.9-1.7,59.1-7.7
		c19.2-5.9,36.7-16.8,56.3-22c15-4.2,31.1-4.9,45.5-11.2c1.4-0.7,2.8-1.4,4.2-1.7c4.9,8,9.4,16.8,12.9,25.5
		C-919.6,115.3-917.6,120.2-916.2,125.8z"/>
	<path class="st24" d="M-910.9,149.9c-7.7,2.8-15.4,5.2-23.4,6.6c-6.6,1.4-13.6,2.4-20.6,3.8c-7.3,1.4-14.7,3.5-22,5.9
		c-42.7,12.9-85,27.9-129,32.8c-32.9,3.5-66.1,1-99.3-1.4c-7-0.3-14-1-20.3-4.2c-2.8-1.7-5.2-3.5-7.7-5.6c-1.7-1.4-3.5-2.8-5.2-4.2
		c-5.9-4.2-13.3-5.9-20.3-8v-1.4c0-9.1,0.7-18.2,2.1-27.2c0.7-4.5,1.7-9.4,2.8-14c6.6,2.4,12.6,4.9,16.4,5.9
		c15.4,3.1,30.8,4.9,46.5,6.3l107.7,10.5c6.6,0.7,13.6,1.4,20.3-1c9.1-3.5,15-12.6,23.4-17.1c8-4.2,17.5-4.2,26.6-3.8
		c1.4,4.2,1,8.7-1.4,12.2c18.5,3.1,31.8-17.5,49.7-24.1c7.7-2.8,16.4-2.8,24.5-4.9c6.3-1.7,12.6-4.2,18.2-7.3
		c2.1,5.2,3.8,10.1,5.6,15.7l0,0c0.7,1.7,1,3.5,1.4,5.6c1.4,4.9,2.4,10.1,3.1,15.4C-911.3,147.4-910.9,148.8-910.9,149.9z"/>
	<path class="st26" d="M-911.3,146.4c-42,1.7-81.8,26.5-124.5,30c-19.9,1.7-40.2-1.4-59.8,1.4c-15.7,2.1-30.8,8-46.5,11.2
		c-30.1,5.6-60.5,0-90.6-1c-3.5,0-7.3-0.3-10.8-0.3c-2.8,0-8.7,1-14.3,1.7c-0.3-4.5-0.7-9.1-0.7-13.6v-1.7c7-1,15.4-0.3,22,0.3
		c2.4,0.3,4.9,0.3,6.6,0.3c18.5-0.3,36.4-6.6,54.9-9.1c22-3.1,44.8-1.4,67.1-2.4c25.2-1,50-5.2,74.5-9.1l58.4-9.8
		c3.8-0.7,7.3-1.4,11.2-1.7c11.5-2.1,22.7-4.2,33.9-7.3c4.9-1.4,10.1-3.1,15-4.2C-913.4,135.9-912.3,141.1-911.3,146.4z"/>
	<path class="st24" d="M-910.2,197c-0.3,3.5-1,6.6-1.4,9.8c-1.7,9.1-3.8,17.8-7,26.2l0,0c-2.4,2.4-4.5,4.9-6.3,7.7
		c-2.8,4.5-4.5,9.8-9.1,12.6c-6.6,4.2-15.4,0.7-23.1,2.8c-9.8,2.8-14,14-19.2,22.4c-5.9,9.8-14.7,17.8-24.8,23.1
		c-14.3-7.7-31.8-1.4-47.9-2.4c-15.4-1-30.1-8.7-45.5-9.1c-9.4-0.3-18.5,2.4-28,1.4c-14.3-1.4-26.6-11.5-40.6-15.4
		c-19.6-5.6-40.2,1-60.8,3.5c-8-10.8-14.7-22.4-19.9-34.6c-2.4-5.6-4.5-11.2-6.3-16.8c3.1-0.7,6.3-1.4,9.4-1.4
		c9.8,0,18.9,5.9,29,5.6c3.8-0.3,8.7-1.4,11.2,1.7c1.4,1.7,1.7,4.2,3.1,6.3c2.1,2.8,5.9,3.5,9.8,3.5l78.3,5.6
		c4.5,0.3,9.4,0.7,13.6-0.7c0.3,0,0.7-0.3,1.4-0.3c3.1-1.4,6.3-3.5,8.7-6.3c1-1,1.7-1.7,2.8-2.8c12.2-14,24.1-31.1,42.7-34.9
		c10.1-2.1,20.6,0.3,31.1-0.7c8.4-0.7,17.1-3.8,25.5-1.4c5.6,1.7,10.1,5.6,15.4,7.3c7,2.1,14.3,0.7,21.7-1
		C-935,204.7-922.4,200.8-910.2,197z"/>
	<path class="st25" d="M-909.2,186.2c-0.3,3.5-0.7,7-1,10.5c-0.3,3.5-1,6.6-1.4,9.8l-22.4,4.2c-8,1.4-15.7,2.8-23.8,2.4
		c-7.3-0.3-14.7-2.8-21.7-4.2c-32.2-6.3-65.7,1.4-92.3,21c-4.9,3.5-9.4,7.7-14,11.2c-3.5,3.1-7,5.2-10.5,7.3c-1.7,1-3.5,1.7-5.6,2.4
		c-13.3,5.2-28.3,3.5-42.7,1.4c-10.5-1.4-20.6-3.1-31.1-4.5c-22.7-2.8-45.8-3.8-68.5-3.1c-2.4-5.2-4.5-10.8-6.3-16.8
		c-0.7-1.7-1-3.5-1.7-5.2c8-1.4,16.1-2.1,24.1-1.7c11.9,0.3,24.1,2.4,36,3.8c27.3,3.5,54.9,4.2,82.2,2.1c8.4-0.7,16.8-1.7,24.8-4.9
		c11.9-4.5,21.3-14,32.5-19.9c13.3-7.3,28.3-9.8,43.4-12.2c13.3-2.1,26.6-4.5,39.5-1c5.2,1.4,10.1,3.5,15,4.5
		C-939.6,196-924.2,190.4-909.2,186.2z"/>
	<path class="st26" d="M-991.7,323.8c-64.3,39.8-147.2,33.9-205.2-15l2.1,0.3c12.6,1.7,24.8,5.6,37.8,7c26.6,2.8,54.5-5.9,79.4,3.5
		c6.3,2.4,11.9,5.6,18.2,7.7c10.8,3.1,22.4,2.4,33.6,1.4C-1014.4,327.3-1002.9,325.9-991.7,323.8z"/>
	<path class="st23" d="M-1067.2,281.5c11.9,3.1,24.1,3.5,36,4.2c11.2,0.3,23.4,0.7,33.2-5.2c6.3-3.5,10.8-9.1,15-14.7
		c2.4-3.5,5.2-7,8.7-9.8c4.9-3.5,10.8-5.2,14.7-9.8c4.2-4.9,4.5-12.6,0-17.1c-2.4-2.1-5.2-3.8-8.4-4.9c-11.9-4.2-24.8-5.6-37.4-7
		c-5.2-0.7-10.5-1-15.7-0.3c-4.5,0.7-8.7,1.7-12.9,3.5c-9.8,3.1-19.9,6.6-28,13.3c-3.8,3.1-7,6.6-10.1,10.1l-11.2,11.9
		c-5.2,5.9-10.8,11.9-14.3,18.9c-0.3,0.3-0.3,0.7-0.3,1.4c-0.3,4.2,9.4,0.7,11.9,0.7C-1079.4,277.3-1073.5,279.8-1067.2,281.5z"/>
	<path class="st24" d="M-1070.3,255c4.9-6.3,11.5-10.5,17.8-15c3.8-2.4,7.7-5.2,11.9-5.9c3.5-0.7,7.3-0.3,10.8-0.3
		c7.3,0,14.3-2.1,21.3-3.1c10.1-1.4,20.6-0.7,30.8,1.7c0.3,0,1,0.3,1.4,0.7c0.3,0.3,0.3,1,0.3,1.7c0.3,3.8,0.7,8-1.4,11.2
		c-2.1,3.1-5.6,4.9-8.4,7.3c-4.5,3.8-7.3,9.4-12.2,12.6c-8,5.6-18.5,3.5-28.3,3.5c-8.7,0-17.5,2.4-26.2,3.1
		c-6.6,0.7-13.6,0.3-19.9-2.4c-3.8-1.7-5.6-2.1-3.8-5.9C-1074.9,261.3-1072.8,258.1-1070.3,255z"/>
	<path class="st25" d="M-1034.7,244.8c6.3-1,12.6-0.3,18.5-1c5.6-0.7,10.8-2.8,16.4-2.8c2.8,0,5.9,1,7,3.5c0.3,1,0.3,2.4,0,3.5
		c-1,4.2-3.5,7.3-7.3,9.1c-2.4,1.4-5.6,2.1-8.7,2.1l-47.2,3.8c-1,0-1.7,0-2.8-0.3c-7-3.1,5.2-8.7,7.3-9.8
		C-1045.9,250.4-1041.7,245.9-1034.7,244.8z"/>
	<path class="st26" d="M-1030.5,249.7c3.8-0.7,7.7-0.3,11.5-0.7c3.1,0,6.3-0.7,9.1-1.4c1.4-0.3,2.8-0.7,3.8,0.3
		c0.7,0.7,0.7,1.4,0.7,2.1c-0.3,1.7-1.4,3.1-3.1,3.8c-1.7,0.7-3.5,1-5.2,0.7l-7,0.3c-2.1,0-4.2,0.3-6.3,0.7
		c-2.4,0.3-4.9,1.4-7.7,1.7c-3.1,0.3-7,0.3-5.2-2.8C-1038.2,252.2-1033.3,250.4-1030.5,249.7z"/>
	<path class="st27" d="M-1024.2,154.7c8.4,9.4,12.9,22.4,12.9,39.1c0,19.9-5.9,35.3-18.5,46.5c-12.2,11.2-30.1,17.1-52.4,17.1
		c-22,0-39.2-6.6-50.7-19.9c-11.2-12.2-16.8-28.6-16.8-49.2c0-25.1,7.7-48.2,23.8-68.8c16.8-22,36.4-32.8,59.8-32.8
		c9.4,0,16.4,2.8,20.3,8.4c1,1.4,1.7,2.8,2.1,4.2c1,2.4,0,4.9-2.1,6.6c-11.9,9.1-22.4,21.3-31.5,36.3c4.9-1,10.8-1.4,17.5-1.4
		C-1044.8,141.1-1032.9,145.7-1024.2,154.7z M-1080.1,217.6c8.7,0,12.9-7.3,12.9-21.7c0-16.4-7.7-23.4-23.4-21.3
		c-1.4,6.6-2.1,14-2.1,21.3C-1092.7,210.6-1088.5,217.6-1080.1,217.6z"/>
</g>
<g id="Venus">
	<path class="st28" d="M350,175c0,96.6-78.4,175-175,175c-54.9,0-106.8-25.9-140-70l0,0c-6.3-8.4-11.6-17.2-16.4-26.3
		c-2.4-4.9-4.6-9.8-6.7-14.7c-2.4-6.7-4.9-13.3-6.7-20.3c-1.4-4.9-2.4-10.1-3.1-15.4C0.7,193.9,0,184.4,0,175v-0.4
		c0-10.8,1.1-21.3,2.8-31.8C18.2,60.9,89.2,1.1,172.9,0h1.8C271.6,0,350,78.4,350,175z"/>
	<path class="st29" d="M329.4,205.8c0,5.6-2.8,11.6-7.7,13.7c-2.5,1-4.9,1-7.4,2.1c-6.6,2.8-8,10.9-11.2,17.5
		c-1.8,3.5-3.5,6.3-7,8.1c-8.4,4.2-17.9-4.2-27.3-4.2c-10.8,0-20.3,10.8-30.8,8.4c-4.2-1.1-7.7-3.9-11.9-5.6
		c-4.9-1.8-10.5-1.1-15.8-2.1c-5.2-0.7-11.2-3.5-12.2-8.8c-0.4-2.1,0-4.2-0.7-5.9c-0.7-1.8-2.1-3.5-3.8-4.6
		c-9.8-7.3-23.8-5.2-30.8,4.6c-4.2,5.9-5.6,13.6-3.1,20.6c4.6,12.6,18.9,18.2,32.2,21c14.7,2.8,29.4,3.9,44.1,2.8
		c7-0.4,14.3-1.4,21,1.8c3.1,1.4,6,3.9,9.1,4.9c5.2,1.4,10.5-0.7,15.4-3.1c2.5,8.1-1,17.1-8.8,21c-8.4,3.8-18.2,0.7-27.3,3.1
		c-6,1.4-10.9,5.6-15.8,9.1c-12.6,9.1-27.3,17.1-43.1,16.4c-15.8-0.7-31.5-12.2-32.2-28c0-3.5,0.3-7.3-1.8-10.1
		c-3.9-4.9-11.6-1.8-17.2,1.1c-11.9,5.2-25.2,5.6-37.1,1c-1.4-0.3-2.8-1.4-3.5-2.4c-0.7-1.1-1.1-2.4-0.7-3.5
		c0.7-10.5,12.6-15.4,20.3-22.8c3.8-3.9,7-10.5,3.2-14.7c-3.2-3.5-8.8-2.8-12.9-0.7c-4.2,2.4-7.3,5.6-11.9,7.3s-10.5,0.4-11.9-4.2
		c-4.2,0.7-7.3,4.6-8.4,8.8c-1.1,4.2-0.3,8.4,0.3,12.6c2.1,12.9,5.6,27.6,16.8,34.6c5.9,3.5,13.3,4.6,19.9,6.6
		c6.7,2.1,13.7,6.3,15.1,13.3c-10.8,1.1-21.7-1.8-30.8-7.4c-4.2-2.4-8.8-5.9-13.3-4.5c-2.1,0.7-3.8,2.1-5.9,3.1
		c-0.3,0.4-1.1,0.4-1.4,0.7c-14.7-10.5-27.7-23.1-38.5-37.8l0,0c-6.3-8.4-11.6-17.2-16.4-26.3c-2.4-4.9-4.6-9.8-6.7-14.7
		c0.3-0.4,1.1-1.1,1.4-1.4c8.4-8.1,17.5-15.1,27.3-21.3c4.2-2.8,8.8-6.3,8.1-11.2c-0.7-4.2-5.2-6.3-9.4-5.9s-7.7,2.8-10.8,5.2
		c-5.6,3.8-11.6,8.1-17.2,11.9c-1.4,1-3.2,2.1-4.9,2.4H5.6c-1.4-4.9-2.4-10.2-3.1-15.4c-1.4-9.4-2.1-18.9-2.1-28.4v-0.3
		c0-10.8,1.1-21.3,2.8-31.8h1.1c1.4,0,2.4,0.3,3.5,1.1c1.8,1,2.4,3.5,3.5,5.6c3.5,5.9,11.2,7.3,17.8,7c6.7-0.4,13.7-2.1,19.9-0.4
		c2.1,0.4,3.8,1.8,4.9,3.5c1.1,2.1,0,4.6,0,6.7c0,4.2,3.5,8.1,7.7,9.5c4.2,1.4,8.4,1,12.9,1c2.8-0.3,5.9-0.7,7.7-2.8
		c3.2-3.9-0.3-9.5-4.2-12.6c-3.8-3.1-8.4-7-7.7-11.5c1.1-7,11.9-9.1,12.6-16.1c0.7-8.8-14-9.1-18.2-16.8c-2.1-3.8-0.7-8.8,2.1-12.2
		c2.8-3.5,7-5.2,10.8-7c16.8,10.2,25.6,29.4,22.8,48.7c-0.3,2.4-1.1,4.9-0.3,7.3c0.7,2.1,2.1,4.2,3.8,5.6
		c14,12.6,38.8,10.5,50.1-4.6c1.4-1.8,2.4-3.8,2.8-5.9c0.7-5.9-4.9-10.2-10.5-12.2c-3.1-1-6.3-2.1-9.4-3.2c-2.1-0.7-3.8-1.8-5.2-3.1
		l0,0c-0.3-0.4-0.7-0.7-1.1-1.1c-5.9-6.7-3.2-17.1,0.7-25.2c3.8-8,7.7-17.5,3.8-25.2c-3.2-6.3-10.8-9.8-11.9-16.8
		c-1.1-5.9,5.2-12.2,11.2-11.2c6.7,1,10.5,8.7,11.2,15.7c0,1.4,0.4,2.8,0.4,3.8c0.3,5.6,0,11.2,2.4,16.4c0.7,1,1.4,2.5,2.1,3.5
		c2.1,3.5,4.6,6.7,4.2,10.5c-0.3,3.2-2.1,7-0.7,9.5c0,0.3,0.4,0.3,0.4,0.3c1.1,1,2.4,1.4,3.8,1.8l1.8,0.3c6.3,1.1,13.3,2.1,18.9-1
		c3.5-1.8,5.9-5.2,9.1-7.7c7.7-5.9,17.8-7.3,27.3-6.3c9.4,1.4,18.6,5.2,27.3,9.1c2.1,0.7,4.2,1.8,5.6,3.5c1.8,1.8,2.4,4.2,3.5,6.6
		c5.2,11.2,16.8,17.8,27.7,23.8c1.8,1,3.8,1.8,6,1.8c0.3,0,1,0,1.4-0.4c1.8-0.7,3.5-2.1,5.2-2.8c4.9-2.5,10.5-0.3,13,4.5
		c2.1,4.6,0.7,10.2-3.9,12.6c-2.8,1.4-6,2.1-9.1,1.8c-0.3,0-0.7,0-1,0h-0.4c-12.9-1.4-25.2-7-38.1-10.2c-0.7,0-1.4-0.3-2.1-0.3l0,0
		c-12.2-2.5-26.2-1.8-35.3,7.3c-4.9,4.9-9.1,11.9-15.8,11.5c-3.5,9.5,1.1,20,10.5,23.5c2.8,1,5.9,1.4,9.1,1c1.8-0.3,3.5-0.7,5.2-1.4
		c4.6-2.1,8.1-6,12.6-8.1c1.1-0.3,1.8-0.7,2.8-1.1c9.8-2.4,20.7,2.5,30.8,2.5c9.1,0,18.5-4.2,26.9-3.5c2.5,0.3,4.6,0.7,6.7,2.1
		c6.6,3.5,12.2,11.9,19.2,9.4C326.9,194.9,329,200.2,329.4,205.8z"/>
	<path class="st30" d="M309.8,205.4c-1.8,3.5-4.2,6.7-6.6,9.4c-6.7,7-15.4,12.2-24.5,15.1c-13,4.2-27,4.6-40.2,4.6
		c-4.9,0-10.2,0-14.7-2.1c-4.9-2.4-8.4-7-12.2-10.8c-13.3-12.2-35.3-13.7-50.1-3.5c-2.4,1.8-4.6,3.8-6.7,5.9
		c-4.6,5.9-5.2,14.3-3.8,21.7c1.4,7.3,4.9,14.3,8.4,21.3c1.1,2.5,2.4,4.2,4.2,6c2.1,1.4,4.9,2.4,7.7,2.8l26.2,5.2
		c12.6,2.5,26.2,5.6,34.3,15.4c-4.9,5.6-12.2,8.8-19.9,8c-3.9-0.3-7.7-1.8-10.9-0.3c-4.2,1.8-6.3,6.3-10.1,8.8
		c-4.2,2.4-9.4,1.4-13.7-1.1c-5.2-3.1-9.1-7.7-10.8-13.6c-1.1-3.5-1.4-7-2.8-10.2c-3.8-8-14.3-10.1-23.4-9.4
		c-8.8,0.7-17.8,3.5-26.6,1.4c5.6-5.6,11.2-11.2,14.7-18.2c3.5-7,4.6-15.7,0.3-22.4c-15.1-7-32.6-14.3-48.3-8.4
		c-2.1,0.7-4.6,2.1-7,1.8c-5.2-0.3-9.1-5.9-14.3-5.6c-2.4,6.3-3.8,13.3-3.8,19.9c-0.3,11.6,3.2,23.1,9.8,32.6
		c2.1,2.8,4.2,5.2,5.2,8.4c1.1,3.2,0.3,7-2.1,9.1c-1.8,1.1-3.5,1.4-5.6,1.1C51.4,297.2,44.1,286.7,36,279l0,0
		c-6.3-8.4-11.6-17.2-16.4-26.3c2.8-3.1,6.3-5.6,10.2-7.7c5.3-2.8,11.6-5.2,13.7-11.2c1.1-2.4,1.1-4.9,1.8-7.3
		c1.8-4.5,5.9-7,9.1-10.5s5.2-9.1,2.1-12.6c-1.4-1.1-2.8-2.1-4.2-3.2c-2.1-1.8-3.2-3.8-4.6-5.9c-0.7-1.1-1.8-2.1-2.4-2.8
		c-4.6-4.2-11.2-5.6-17.2-3.8c-5.2,1.4-9.1,5.2-13.3,8.4c-0.7,0.7-1.4,1-2.1,1.8c-2.8,2.1-5.9,3.5-9.1,4.5
		c-1.4-9.4-2.1-18.9-2.1-28.4v-0.3c0.4-1.4,0.7-2.4,1.1-3.8c1.4-5.6,2.8-11.2,4.2-16.5c6.3,6.3,15.1,9.8,23.8,9.5
		c2.1-0.3,3.8,0,5.6,0.7c1.8,0.7,2.8,3.5,1.4,4.9c-1.1,1.1-2.8,0.7-3.8,0.7c-4.2-0.7-8.8-1-12.9,0.4c-3.8,1.4-7.3,4.5-7.3,8.8
		c5.9-4.2,11.9-4.2,18.9-2.8c4.2,0.7,8.1,2.1,11.9,3.2c4.9,1.8,9.4,4.5,12.6,8.4c1.1,1.4,2.1,2.8,3.5,3.9c2.1,1,4.2,1.4,6.3,1h6.3
		l10.5-0.3c2.1,0,4.2-0.3,5.9-1.1c3.2-1.8,3.8-5.6,4.2-9.1c0.3-3.8,1.1-7.7-0.3-11.2c-2.1-5.2-8.4-8.1-9.8-13.7
		c-1.1-4.9,2.1-9.4,4.9-13.7c2.8-4.2,4.6-9.8,1.4-13.6c3.8-0.7,6.3,4.5,5.9,8.4c-0.7,3.9-2.8,7.7-3.2,11.6c0,4.6,3.2,8.8,6.7,11.9
		c11.9,11.5,28.3,17.5,44.8,16.8c4.6,0,9.1-0.7,13.6-2.1c3.5-1.1,6.7-2.4,8.8-5.2c0-0.3,0.4-0.3,0.4-0.7c1.1-2.1,1.8-4.6,2.1-7
		c1.4-8.1,2.8-17.5-1.8-24.2l0,0c0-0.3-0.3-0.3-0.3-0.7c-1.8-2.5-4.6-4.6-7.4-6l0,0c-2.1-1-4.2-1.8-6.3-2.4
		c-4.2-1.4-8.1-2.8-11.9-4.5c-1.8-0.7-2.8-1.8-3.8-3.2c-1.1-2.5,0.3-5.2,1.4-7.7c0.3-0.7,0.7-1.4,1.1-2.1c3.8-9.5,4.6-19.6,2.1-29.4
		c-1.1-3.8-2.1-8,0-10.8c1.8-1.8,4.2-2.8,6.7-2.5c0.7,0,1.4,0,2.1,0.4c3.9,0.7,7.7,1.8,9.8,4.9c2.4,2.8,2.4,6.3,2.1,10.2
		c-1.1,5.6-3.8,11.9-3.8,17.5l0,0c0,2.1,0.3,4.2,1.4,6c0.7,1.4,1.4,2.4,2.8,3.5c3.5,3.1,8.8,4.6,13.7,5.6c9.1,1.8,18.6,3.8,27.6,2.1
		c5.2-1,10.2-2.8,15.4-3.5c4.6-0.7,9.5-0.3,14,1.4l0,0c1.1,0.3,2.5,0.7,3.5,1.4l0,0c3.8,1.8,7.3,4.2,10.5,7.3c2.8,3.2,5.2,7,8.8,9.4
		c4.9,3.5,10.8,3.9,16.4,6c7.7,3.1,14,10.5,20.7,15.4c0.7,0.4,1.4,0.7,2.1,1.4c2.8,1.8,6.3,2.8,9.8,3.2c-0.3,3.8-3.1,6.7-6.6,8
		c-4.2,1.4-8.8,1.4-13-0.3c-7.3-3.5-12.9-10.2-20.3-14c-11.5-5.2-25.2-2.1-33.2,7.7c-3.1,3.8-4.5,10.5-0.3,12.9
		c1.8,1.1,4.2,1.1,6.3,1.4c1.4,0.3,2.8,1,4.2,1.8c4.9,3.8,7,11.9,3.5,17.1c-3.2,4.6-9.1,6.7-10.8,11.9c-1.8,4.9,1.4,10.5,6.3,12.6
		c4.9,2.1,10.1,2.1,15.1,0.7c5.9-1.4,11.5-4.2,16.4-8.1c3.2-2.4,6-5.2,9.5-7c6.6-3.2,16.8-2.1,19.6-9.1l2.1,1.1l6.6,2.8
		c0.7,0.3,1.4,0.7,1.8,1.4C310.5,203.7,310.5,204.7,309.8,205.4z"/>
	<path class="st31" d="M45.2,250.6c2.8-3.2,5.9-6.7,6.7-10.9c1.1-4.9-0.7-11.2,3.5-14c1.8-1.1,3.8-1.1,5.9-1.1
		c16.4,0.7,32.9-1.4,48.3-6.7c1.8-0.7,3.8-1,5.6-1c7,0.3,9.4,10.1,15.7,12.6c2.1,1.1,5.2,1.1,6.7,2.8c0.7,1.1,1.1,2.1,1.1,3.5
		c0.7,9.1-0.7,17.8-4.6,26.2c-1.4,3.1-3.2,7.4-0.3,9.8c4.2,3.8,11.2-4.6,16.1-2.1c-3.2-8.8-6.3-17.8-7-27.3
		c-0.7-9.4,1.4-19.2,7.7-26.2c5.9-6.7,15.1-9.8,23.8-12.2c8.1-2.1,17.8-3.8,24.2,1.4c1.4,1.4,3.1,2.8,4.9,4.2
		c2.4,1.4,4.9,1.4,7.7,1.8c5.2,1.1,10.2,3.8,13.7,8.4c0-6,0.7-13,5.6-15.8c1.1-0.3,1.8-1.1,2.4-1.8c1.4-2.1-1-4.6-3.1-5.6
		c-5.2-3.5-10.5-7.4-15.1-11.6c-3.5-3.2-6.7-6.7-7-11.2c-0.3-5.6,3.5-10.2,7.3-14.4c4.2-4.2,8.4-8.8,14-10.5
		c7.7-2.5,16.5,0.3,24.5-2.1c-6.7-4.2-14-9.8-14.7-17.5c-0.3-2.4,0.3-5.2-0.7-7.3c-1.8-3.5-6.6-4.2-10.5-3.2
		c-3.8,1.4-6.6,4.2-9.8,6.3c-6.7,4.6-14.7,6.7-22.8,7c-10.2,0.3-20.3-2.4-28.7-7.7c-5.9-3.5-11.9-10.2-10.2-16.8
		c1.1-4.2,4.6-7,6.7-10.5c2.1-3.5,2.8-9.1-1.1-11.2c-3.5-2.1-8.1,1.4-9.8,5.2c-1.4,3.9-1.4,8.4-3.2,12.2c-2.4,5.2-7.7,8.4-11.9,12.2
		c-4.2,3.8-7,10.8-3.5,15.4c2.8,3.5,8.4,3.5,12.6,2.1c2.4-0.7,4.9-2.1,7.7-1.4c2.4,0.7,4.6,1.8,5.9,3.5c6.3,5.6,14,11.9,22.4,10.8
		c2.8,11.9-6.7,24.8-18.6,26.2c-4.2,0.3-8.8-0.3-12.9,1.1c-10.8,3.8-11.9,20.6-22.8,24.5c-3.2,1-6.3,1-9.4,1.4
		c-8.4,1.1-15.8,5.2-24.2,6.7c-8.1,1.4-18.6-1.1-21.3-8.8c-1.1-2.4-1.1-5.2-1.8-7.7c-1.8-5.2-7-8.8-12.6-10.2
		c-5.6-1.1-11.2,0-16.4,1.4c-10.5,2.8-20.3,6.6-29.4,12.2c-0.7,0.3-1.4,1-1.7,1.8c-1.1,1.8,0,4.2,1.7,5.6c3.8,2.4,9.1,1.4,13.3-0.7
		c4.2-2.1,8.1-5.2,12.6-6c7-1.4,13.7,2.5,19.6,6.3c4.6,2.8,9.4,6.6,8.8,11.9c-1.1,8.4-15.1,8.4-18.6,16.1c-1.1,2.4-1.1,4.9-1.4,7.7
		c-0.7,5.9-4.6,8.4-6.7,13.7C36.8,253.4,40.6,255.5,45.2,250.6z"/>
	<path class="st32" d="M81.9,55.6c3.5-1.4,6.7-2.8,9.1-5.6c1.1-1.4,2.1-2.8,3.5-3.9c1.4-0.7,3.2-1,4.9-0.7c4.2,0.3,8.1,1.4,11.9,3.1
		c1.4,0.4,2.4,1.4,3.5,2.4c0.7,1.8,0.7,3.5,0,5.2C112,62.6,105,66.1,98,67.2c-3.2,0.3-6.3,0.3-9.1,2.1c-1.8,1.4-3.5,2.8-4.9,4.5
		c-1.8,1.8-3.5,3.5-5.2,4.9c-2.1,1.8-4.9,3.1-7.3,2.1c-5.2-1.8-3.8-9.5-2.4-13.6C71.1,60.9,75.6,58.5,81.9,55.6z"/>
	<path class="st32" d="M265,67.5c3.5,1.8,6.3,4.9,9.4,7.3c4.6,3.5,10.5,4.5,15.1,8c3.8,3.2,6.6,7.4,10.8,9.5
		c3.2,1.4,6.7,1.4,9.5,2.8c3.1,1.4,5.6,4.9,4.2,7.7c-1.4,2.5-4.6,2.8-7.4,2.8c-4.9-0.3-9.5-1.8-13.6-4.2c-7-4.2-13-11.2-20.7-13
		c-5.6-1.4-11.5,0-17.1-1c-7.7-1.4-13.7-6.7-19.2-11.9c-2.1-1.8-4.2-4.5-3.2-7c1.1-2.1,3.9-2.5,6.3-2.1c1.1,0,2.4,0.3,3.2,0.7
		c1,1,1.4,2.8,2.1,3.8C249.2,80.5,258,64.4,265,67.5z"/>
	<path class="st32" d="M289.1,264.2c0.7-0.4,1.4-0.4,2.1-0.4c3.9,0,8.4,1.1,11.2-2.1c1-1,1.8-2.8,3.1-2.8c0.7,0,1.4,0.3,1.8,0.7
		c2.5,2.1,1.8,5.9,0,8.8s-4.5,4.2-6.6,6.6c-0.7,1.1-1.8,2.1-2.5,3.2c-1,1-2.4,1.4-3.5,1C291.5,278.2,284.9,266.3,289.1,264.2z"/>
	<path class="st33" d="M209.6,254.8c1.1-0.3,2.1-0.3,3.2,0c4.6,1.1,9.1,3.2,13.7,4.6c5.6,1.8,11.9,2.1,17.8,1.8
		c1.8,0,3.2-0.3,4.9-1.1c1-0.3,1.8-0.7,2.8-1c2.8-0.4,5.6,1.8,6,4.5c0,0.7,0,1.4,0,2.1c-1.1,2.8-4.6,4.2-7.7,4.2
		c-8.4,0.4-16.4-4.2-24.5-2.4c-2.1,0.7-3.8,1.1-5.9,1.4c-3.8,0-7-1-9.1-3.8C209.3,262.8,206.9,256.5,209.6,254.8z"/>
	<path class="st33" d="M131.2,314.3c-1.1-2.1-1.8-4.2-1.8-6.6c-0.4-2.4,1.1-4.6,2.8-5.9c3.2-2.1,7.3,0.3,10.5,2.8l3.8,2.8
		c0.7,0.4,1.1,1.1,1.4,1.4c0.3,1,0,2.1-0.3,3.1c-2.1,8.8,2.8,17.9,11.6,20.6c5.9,1.8,12.9,0,18.6,2.8c0.7,0.4,1.1,0.7,1.4,1.4
		c1.4,2.1-1.4,4.6-3.9,5.2C153.6,350,139.3,332.1,131.2,314.3z"/>
	<path class="st32" d="M138.2,311.8c1.8-0.3,3.5,0.7,4.2,2.4c0.7,1.8,0,3.9,0.7,5.6c0.3,1.1,0.7,2.1,1.4,2.8l5.6,8.4
		c0.7,1.4,2.1,2.8,3.5,3.5c1.8,0.7,3.1,0.7,4.9,0.7s3.5,0.7,4.6,1.8c0.3,0.4,0.3,1.1,0.3,1.8c-0.3,0.7-1.1,0.7-1.8,0.7
		c-2.1,0.3-4.6-0.4-6.3-1.4c-0.7-0.3-1.4-1-2.4-1.8l-4.6-3.5c-1.4-1-2.8-2.4-4.2-3.8c-0.7-1.1-1.1-1.8-1.8-2.8
		c-1.8-3.1-4.2-6.3-7.3-8.4c-1.8-1.4-0.7-1.8,0.3-2.8S136.1,312.2,138.2,311.8z"/>
	<path class="st34" d="M350,175c0,50.4-21.7,98-59.1,131.2c2.8-9.5,5.2-18.9,7-27.7c1-5.2,2.1-10.1,2.8-15
		c1.1-8.4,2.1-16.4,2.5-24.2c0.4-8.1,0.4-16.1,0-23.8c-0.4-5.6-0.7-11.2-1.4-16.4c-0.7-7-1.8-13.7-3.2-20.3
		c-0.7-3.2-1.4-5.9-2.1-8.8c-1.1-3.8-1.8-7.3-2.8-10.8c0-0.4-0.3-0.7-0.3-1.1c-1.8-5.2-3.5-10.5-5.2-15.8
		c-7.4-18.9-16.5-37.1-28-53.9c-3.2-4.9-6.7-9.5-10.2-14c-25.6-33.9-55.3-58.5-77-73.8h1.8C271.6,0,350,78.4,350,175L350,175z"/>
	<path class="st13" d="M119,201.2c-8.4-9.4-12.9-22.4-12.9-39.2c0-19.9,5.9-35.4,18.6-46.5s30.1-17.1,52.5-17.1
		c22.1,0,39.2,6.6,50.7,19.9c11.2,12.2,16.8,28.7,16.8,49.3c0,25.2-7.7,48.3-23.8,69c-16.8,22.1-36.4,32.9-59.8,32.9
		c-9.4,0-16.4-2.8-20.3-8.4c-2.1-2.8-3.2-5.6-3.2-8.4c12.9-9.4,24.5-22.1,34.3-38.2c-5.6,0.7-11.2,1.4-17.5,1.4
		C139.6,215.2,127.7,210.7,119,201.2z M175,138.2c-8.8,0-12.9,7.3-12.9,21.7c0,16.4,7.7,23.8,23.1,21.7c1.8-7.7,2.4-14.7,2.4-21.7
		C187.6,145.6,183.4,138.2,175,138.2z"/>
</g>
<g id="Neptune">
	<path class="st35" d="M-494.5,175c0,3.5,0,6.7-0.4,10.2c-0.4,4.2-0.7,8.4-1.1,12.6c-3.9,30.1-15.8,58.8-34.3,83.3
		c-5.6,7.3-11.9,14.3-18.5,20.6c-70,66.5-180.6,64-247.5-5.9c-31.1-32.6-48.3-75.6-48.3-120.8c0-9.8,0.7-19.6,2.4-29.4
		c3.2-18.9,9.5-37.1,18.6-53.9c11.9-21.7,28.3-40.9,47.9-56c62.7-47.6,149.1-47.6,211.8,0c6,4.5,11.9,9.8,17.5,15
		c6.7,6.7,13,14,18.6,22.1c4.2,5.9,8.4,12.2,11.9,18.9c9.1,16.8,15.4,35,18.6,53.9C-495.2,155.4-494.5,165.2-494.5,175z"/>
	<path class="st36" d="M-545.9,50.7h-246.8c5.6-5.6,11.2-10.5,17.5-15.1c62.6-47.6,149.1-47.6,211.8,0
		C-557.1,40.2-551.5,45.5-545.9,50.7z"/>
	<path class="st37" d="M-515.5,91.7h-307.7c11.9-21.7,28.4-41,48-56h211.8c6.3,4.6,11.9,9.8,17.5,15.1c6.6,6.7,13,14,18.5,22
		C-522.8,78.7-519,85-515.5,91.7z"/>
	<path class="st38" d="M-496.9,145.6H-842c3.1-18.9,9.5-37.1,18.6-53.9c3.5-6.7,7.3-12.6,11.9-18.9h284.2c4.2,6,8.4,12.2,11.9,18.9
		C-506.4,108.5-500.1,126.7-496.9,145.6z"/>
	<path class="st37" d="M-511.6,251.3c-42,87.2-146.6,123.2-233.8,81.2c-24.9-11.9-46.2-29.8-63-51.4c-7-9.5-13.3-19.2-18.2-29.8
		H-511.6z"/>
	<path class="st36" d="M-530.2,281c-5.6,7.3-11.9,14.3-18.5,20.6c-70,66.5-180.6,64-247.5-5.9c-4.5-4.6-8.4-9.4-12.6-14.7
		C-808.8,281-530.2,281-530.2,281z"/>
	<path class="st37" d="M-548.7,301.7c-67.6,64.4-173.6,64.4-241.5,0H-548.7z"/>
	<path class="st36" d="M-494.5,185.1c-0.4,4.2-0.7,8.4-1,12.6h-155.8v-12.6H-494.5z"/>
	<ellipse class="st38" cx="-643.6" cy="187.6" rx="68.9" ry="26.6"/>
	<ellipse class="st37" cx="-649.2" cy="188.6" rx="35.7" ry="13.7"/>
	<ellipse class="st36" cx="-678.9" cy="204.4" rx="19.9" ry="2.1"/>
	<path class="st13" d="M-645,225.4c-7.4,15.8-13.7,26.2-18.6,31.2c-6.3,5.9-14.7,8.8-25.9,8.8c-10.9,0-18.2-3.2-21.7-10.2
		c-1.8-3.2-2.1-6.7-2.1-10.2l55.3-102.2h-48.3c-14.4,0-21.7-7.7-21.7-22.8c0-8.8,2.5-15.8,7.4-21h92.4c14.4,0,21.4,9.5,21.4,29
		C-607.2,139.3-619.8,171.5-645,225.4z"/>
</g>
<title>saturn</title>
<g id="Layer_3">
	<g id="Saturn">
		<path class="st39" d="M-1389.1,56.5c2.4,2.4,4.5,4.9,7,7.3c19.9,22.7,33.2,50.7,37.8,80.4c7.7,49.6-8.7,100.3-44.4,136
			c-1,1-2.4,2.4-3.5,3.5c-52.8,49.6-132.1,57-193.3,18.2c-7-4.5-13.3-9.4-19.6-14.7c-2.4-2.1-4.9-4.5-7.3-7
			c-7.3-7.3-14.3-15.7-19.9-24.5c-1.7-2.4-3.1-4.9-4.5-7.7c-1.4-2.4-3.1-5.2-4.2-8c-4.5-8.7-8-17.5-10.8-26.9
			c-1.7-5.2-2.8-10.8-3.8-16.1c-16.1-86,40.5-168.5,126.5-184.6c13.6-2.4,27.6-3.1,41.6-2.1c5.6,0.3,10.8,1,16.1,2.1
			c15,2.8,29.4,7.7,43,14.7c2.8,1.4,5.2,2.8,8,4.2c2.4,1.4,4.9,3.1,7.7,4.5C-1404.9,42.5-1396.5,49.2-1389.1,56.5z"/>
		<path class="st40" d="M-1472,13.5l-184.6,184.6c-1-5.2-1.7-10.8-2.1-16.1l170.2-170.6C-1482.8,12.1-1477.6,12.8-1472,13.5z"/>
		<path class="st41" d="M-1389.1,57.2c2.4,2.4,4.5,4.9,7,7.3c55.2,62.6,52.1,157.3-7,216.4c-1,1-2.4,2.4-3.5,3.5
			c-52.8,49.3-132.1,57-193.3,18.2c-7-4.5-13.3-9.4-19.6-14.7c-2.4-2.1-4.9-4.5-7.3-7c-7.3-7.3-14.3-15.7-19.9-24.5
			c-1.7-2.4-3.1-4.9-4.5-7.7c-1.4-2.4-3.1-5.2-4.2-8c-4.5-8.7-8-17.5-10.8-26.9L-1455.5,17c9.4,2.8,18.2,6.3,26.9,10.8
			c2.8,1.4,5.2,2.8,8,4.2c2.4,1.4,4.9,3.1,7.7,4.5C-1404.9,43.2-1396.5,49.9-1389.1,57.2z"/>
		<path class="st42" d="M-1389.1,57.2c2.4,2.4,4.5,4.9,7,7.3l-223.4,223.4c-2.4-2.1-4.9-4.5-7.3-7c-7.3-7.3-14.3-15.7-19.9-24.5
			c-1.7-2.4-3.1-4.9-4.5-7.7c-1.4-2.4-3.1-5.2-4.2-8l212.9-213.2c2.8,1.4,5.2,2.8,8,4.2c2.4,1.4,4.9,3.1,7.7,4.5
			C-1404.9,43.2-1396.5,49.9-1389.1,57.2z"/>
		<path class="st43" d="M-1413.6,37.3l-219.2,219.5c-1.7-2.4-3.1-4.9-4.5-7.7l216.4-216.7C-1418.5,34.1-1416,35.5-1413.6,37.3z"/>
		<path class="st44" d="M-1367.5,84.1c39.9,62.6,30.8,144.4-21.7,196.8c-1,1-2.4,2.4-3.5,3.5c-52.8,49.3-132.1,57-193.3,18.2
			L-1367.5,84.1z"/>
		<path class="st45" d="M-1344.4,145.3c7.7,49.6-8.7,100.3-44.4,136c-1,1-2.4,2.4-3.5,3.5c-35.3,33.2-84.2,48.6-132.1,40.9
			L-1344.4,145.3z"/>
		<path class="st46" d="M-1389.1,57.2c2.4,2.4,4.5,4.9,7,7.3c55.2,62.6,52.1,157.3-7,216.4c-1,1-2.4,2.4-3.5,3.5
			c-2.4-24.8-9.1-48.9-19.6-71.7c-8.7-18.5-19.2-36-31.8-52.1c-4.9-6.3-10.1-12.6-15.7-18.5c-9.4-10.1-19.2-19.9-29.7-29
			c-2.1-1.7-4.5-3.8-6.6-5.6c-2.1-1.7-4.5-3.8-6.6-5.6c-7.3-5.6-14.3-11.2-21.7-16.1c-4.2-2.8-8-5.6-11.9-8c-3.8-2.4-7.7-4.9-11.2-7
			c-16.1-10.1-32.9-18.9-50-26.9c31.1-24.1,70.3-35.7,109.4-32.5c5.6,0.3,10.8,1,16.1,2.1c15,2.8,29.4,7.7,43,14.7
			c2.8,1.4,5.2,2.8,8,4.2c2.8,1.4,4.9,3.1,7.7,4.5C-1404.9,43.2-1396.5,49.9-1389.1,57.2z"/>
		<path class="st47" d="M-1379,147c-21,26.9-43.3,52.4-67.8,76.6c-24.1,24.1-49.6,46.8-76.6,67.8c-2.1-0.3-4.2-0.7-6.3-1.4
			c-1.7-0.3-3.5-0.7-5.2-1.4c-3.1-0.7-5.9-1.7-9.1-2.8c-1.7-0.7-3.8-1.4-5.6-2.1c-2.1-0.7-4.2-1.7-5.9-2.8c-1-0.3-1.7-1-2.8-1.4
			c-1-0.3-1.7-1-2.4-1.4c-1.4-0.7-3.1-1.7-4.5-2.4c-1-0.7-2.1-1.4-3.1-2.1c27.6-18.5,60.5-46.1,92.6-78.7s60.1-65,78.7-92.6
			c0.7,1,1.4,2.1,2.1,3.1c1,1.4,1.7,3.1,2.4,4.5c0.3,0.7,1,1.7,1.4,2.4c0.3,0.7,1,1.7,1.4,2.8c1,2.1,1.7,3.8,2.8,5.9
			c0.7,1.7,1.4,3.8,2.1,5.6c1,3.1,2.1,5.9,2.8,9.1c0.3,1.7,1,3.5,1.4,5.2C-1379.7,142.8-1379.3,144.9-1379,147z"/>
		<path class="st47" d="M-1329,8.3c-10.5-10.5-35-16.4-90.5,16.8c-2.1,1.4-4.5,2.8-6.6,4.2c1.4,0.7,2.8,1.4,4.2,2.4l1,0.7
			c1,0.7,2.4,1.4,3.5,2.1c1.4,0.7,2.8,1.7,3.8,2.4c1,0.7,2.1,1.4,2.8,2.1c1.7,1,3.5,2.4,5.2,3.8c1.7,1.4,3.5,2.4,4.9,3.8
			c18.2-9.8,31.1-14.3,39.2-14.7c3.5-0.3,5.9,0.3,7.3,1.7c1.4,1.4,1.7,3.8,1.7,7.7c-0.7,8-5.2,22-16.1,41.2c-1,2.1-2.4,4.2-3.5,6.3
			c-5.2,8.4-10.8,17.5-17.5,26.6c-19.9,28.3-46.5,59.1-76.6,89.1s-60.8,56.6-89.1,76.6c-9.1,6.6-18.2,12.2-26.6,17.5
			c-1.7,1-3.5,2.1-5.2,3.1c-19.6,11.2-33.6,15.7-41.9,16.4c-3.8,0.3-6.3-0.3-7.7-1.7c-1.4-1.4-1.7-3.8-1.7-7.3
			c0.3-8,4.9-21.3,15-39.9c-1.4-1.7-2.8-3.5-3.8-4.9c-1.4-1.7-2.4-3.5-3.8-5.2c-0.7-1-1.4-1.7-1.7-2.8c-1-1.4-1.7-2.8-2.8-4.2
			c-0.7-1-1.4-2.1-2.1-3.1c-0.3-0.3-0.3-0.7-0.7-1c-0.7-1.4-1.4-2.8-2.4-4.2c-1.7,2.4-3.1,4.9-4.5,7.3
			c-33.2,55.6-27.3,80.1-16.8,90.5s35,16.4,90.5-16.8c4.2-2.4,8.7-5.2,13.3-8.4c11.2-7.3,23.1-15.7,35-24.8
			c26.9-21,52.4-43.7,76.6-67.8s46.8-49.6,67.8-76.6c9.4-12.2,17.8-24.1,25.5-35.7c2.8-4.2,5.2-8.4,7.7-12.6
			C-1312.6,43.2-1318.2,18.7-1329,8.3z"/>
		<path class="st48" d="M-1331.8,10.7c-9.8-9.8-32.9-14.7-87,18.5l-3.1,2.1l1,0.7c1,0.7,2.4,1.4,3.5,2.1c1.4,0.7,2.8,1.7,3.8,2.4
			c1,0.7,2.1,1.4,2.8,2.1c1.7,1,3.5,2.4,5.2,3.8c1.7,1.4,3.5,2.4,4.9,3.8c0.7,0.3,1,1,1.7,1.4c24.1-13.3,38.5-15.7,42.3-12.2
			c3.5,3.5,0.7,18.9-13.3,44.4c-1.7,2.8-3.1,5.9-5.2,8.7c-4.5,7.7-9.8,15.4-15.7,23.4c-20.3,28.3-46.8,59.4-77.3,89.8
			c-30.4,30.4-61.5,57.3-89.8,77.6c-8,5.9-16.1,11.2-23.4,15.7c-2.8,1.7-5.6,3.1-8,4.9c-25.9,14.7-41.2,17.8-45.1,14
			s-1-18.5,12.6-43c-0.3-0.7-1-1-1.4-1.7c-1.4-1.7-2.8-3.5-3.8-4.9c-1.4-1.7-2.4-3.5-3.8-5.2c-0.7-1-1.4-1.7-1.7-2.8
			c-1-1.4-1.7-2.8-2.8-4.2c-0.7-1-1.4-2.1-2.1-3.1c-0.3-0.3-0.3-0.7-0.7-1c-0.7,1.4-1.7,2.8-2.4,3.8c-33.2,54.2-28.3,77.3-18.5,87
			s32.9,14.7,87-18.5c3.1-1.7,5.9-3.8,9.1-5.9c10.8-7,22.4-15,33.9-24.1c28-21.7,54.2-45.1,79-69.9c25.2-24.8,48.2-51.4,69.9-79
			c9.1-11.9,17.5-23.4,24.5-34.6c1.7-2.8,3.5-5.6,5.2-8.4C-1317.1,43.9-1322,20.5-1331.8,10.7z"/>
		<path class="st49" d="M-1337.7,17c-9.1-9.1-30.1-13.3-80.1,17.1c1.4,0.7,2.8,1.7,3.8,2.4c1,0.7,2.1,1.4,2.8,2.1
			c1.7,1,3.5,2.4,5.2,3.8c1.7,1.4,3.5,2.4,4.9,3.8c0.7,0.3,1,1,1.7,1.4c0.7,0.7,1.7,1.4,2.4,2.1c19.6-10.5,31.5-12.2,34.6-9.4
			c3.1,3.1,1,15.7-10.1,36.4c-2.4,4.2-5.2,9.1-8.4,14.3c-3.8,5.9-7.7,11.9-12.2,18.2c-19.9,28.3-46.8,59.8-77.6,90.5
			c-30.8,30.8-62.2,57.7-90.5,77.6c-6.3,4.5-12.2,8.4-18.2,12.2c-4.9,3.1-9.1,5.6-13.3,7.7c-21.3,11.5-33.9,14-37.4,10.8
			c-3.5-3.1-1-15.4,9.8-35.3c-0.7-0.7-1.4-1.7-2.1-2.4c-0.3-0.7-1-1-1.4-1.7c-1.4-1.7-2.8-3.5-3.8-4.9c-1.4-1.7-2.4-3.5-3.8-5.2
			c-0.7-1-1.4-1.7-1.7-2.8c-1-1.4-1.7-2.8-2.8-4.2c-30.8,50.3-26.6,71.7-17.5,80.7s31.1,13.3,82.8-18.9c0.7-0.3,1.7-1,2.4-1.7
			c10.8-6.6,22-14.7,33.6-23.4c26.2-19.9,54.2-44.4,81.4-71.7s51.7-55.2,71.7-81.4c9.1-11.9,17.1-23.4,23.8-34.3
			c0.3-0.7,0.7-1,1-1.7C-1324.1,48.1-1328.3,26.1-1337.7,17z"/>
		<path class="st50" d="M-1346.5,25.7c-7.3-7.3-24.5-10.5-64,12.9c1.7,1,3.5,2.4,5.2,3.8s3.5,2.4,4.9,3.8c0.7,0.3,1,1,1.7,1.4
			c0.7,0.7,1.7,1.4,2.4,2.1c1.4,1,2.4,2.1,3.8,3.5c13.3-6.3,21-7.7,23.4-5.2c2.4,2.4,1,10.8-5.9,24.5c-3.8,7.7-8,15-12.6,22
			c-2.1,3.5-4.5,7-7,10.5c-19.6,28-46.8,60.1-78.7,91.6c-31.5,31.5-63.6,59.1-91.6,78.7c-3.5,2.4-7,4.9-10.5,7
			c-6.6,4.5-14,8.7-21,12.2c-14.3,7.3-23.1,8.7-25.5,6.3c-2.4-2.4-1-10.5,5.6-24.1c-1-1-2.4-2.4-3.5-3.8c-0.7-0.7-1.4-1.7-2.1-2.4
			c-0.3-0.7-1-1-1.4-1.7c-1.4-1.7-2.8-3.5-3.8-4.9c-1.4-1.7-2.4-3.5-3.8-5.2c-23.8,40.2-21,57.7-13.6,65
			c7.7,7.7,25.5,10.5,68.5-15.7c2.4-1.4,4.9-3.1,7.3-4.5c8-5.2,16.4-11.2,25.2-17.5c26.9-19.9,55.9-45.8,84.6-74.5
			c28.7-28.7,54.2-58,74.5-84.6c6.6-8.7,12.2-17.1,17.5-25.2c1.7-2.8,3.5-5.6,5.2-8C-1336,50.9-1339.1,33.1-1346.5,25.7z"/>
		<path class="st51" d="M-1352.4,41.1c-1.4-4.2-4.5-7.7-9.1-9.4c-7.7-2.8-21-1.7-44,10.8c1.7,1.4,3.5,2.4,4.9,3.8
			c0.7,0.3,1,1,1.7,1.4c0.7,0.7,1.7,1.4,2.4,2.1c1.4,1,2.4,2.1,3.8,3.5c1,1,2.1,2.1,3.1,3.1l0.3,0.3c6.3-2.1,10.1-2.4,11.5-1
			c1.4,1.4,1.4,5.6-1,12.2c-2.8,7.3-8,17.8-16.8,30.8l-1.7,2.8c-18.5,27.6-46.1,60.5-78.7,92.6s-64.7,60.8-92.3,79.4l-2.8,1.7
			c-12.6,8.4-22.7,13.6-30.1,16.4c-7.3,2.8-11.9,3.1-13.3,1.4c-1.4-1.4-1.4-5.6,1.4-12.6l-0.3-0.3c-1-1-2.1-2.4-3.5-3.5
			c-1-1-2.4-2.4-3.5-3.8c-0.7-0.7-1.4-1.7-2.1-2.4c-0.3-0.7-1-1-1.4-1.7c-1.4-1.7-2.8-3.5-3.8-4.9c-12.9,23.8-14,37.1-11.2,45.1
			c1.4,4.2,4.9,7.7,9.4,9.1c8,2.8,22.4,1,47.5-12.9c5.2-2.8,10.8-6.3,16.8-10.1c5.2-3.5,10.5-7,15.7-10.8
			c26.9-19.6,57.3-45.8,87-75.5s55.9-59.8,75.5-87c3.8-5.2,7.3-10.5,10.8-15.7c4.2-6.3,7.7-12.2,10.8-17.8
			C-1351.4,63.1-1349.6,49.2-1352.4,41.1z"/>
	</g>
	<path class="st52" d="M-1510.1,151.9c11.5-2.1,23.1-2.1,34.6,0.3c23.1,5.2,34.6,19.6,34.6,43.3c0,16.8-5.9,30.4-17.5,40.9
		c-12.2,10.5-28.3,15.7-49.3,15.7c-35.7,0-53.5-9.4-53.5-28.3c0-11.2,4.2-17.5,12.9-19.9c11.5,4.9,23.1,7.3,35,7.3
		c14.3,0,21.7-4.2,21.7-12.9c0-5.6-4.2-9.4-12.2-11.9c-8.4-2.1-25.5-4.2-51.7-5.9l3.1-85.3c0.3-6.3,5.2-10.8,11.5-10.8h84.2
		c4.9,0,9.4,3.1,10.8,7.7c1.4,4.2,1.7,9.1,1.7,14.7c0,15.4-7.7,23.1-23.4,23.1c-13.3,0-27.3-0.3-41.9-1.4L-1510.1,151.9z"/>
</g>
<g>
	<g>
		<path class="st53" d="M-1320.5-247.4c0,70-42,133.3-106.4,161c-3.1,1.4-5.9,2.4-9.1,3.5c-18.9,7-39.2,10.5-59.5,10.5
			c-2.4,0-4.5,0-7,0c-14.7-0.7-29.4-3.1-43.4-7.3c-1.7-0.7-3.8-1-5.6-1.7c-15.7-5.2-30.4-12.6-43.7-22c-8-5.6-15.7-11.9-22.7-18.9
			l0,0c-25.5-24.8-42.7-57-49.3-91.7c-18.2-94.8,43.7-186.5,138.6-205.1c10.8-2.1,22-3.1,33.2-3.1h1.8
			C-1397.8-421.4-1320.5-343.3-1320.5-247.4z"/>
		<path class="st54" d="M-1330.3-305.2c-1.7,2.4-2.8,5.2-3.5,8c-0.3,2.4-0.7,5.2-1.4,7.7c-1,2.8-3.1,5.6-4.2,8.4
			c-2.4,5.9-1,10.8,0.3,16.8c0.7,3.5,3.1,10.8,0.7,14c-2.8,3.5-14,1-17.8,0c-2.1,0-3.5-1.7-3.8-3.5c-1.7-8-1-10.8-7-16.4
			c-4.2-4.2-7.3-9.4-12.9-12.2c-0.7-0.3-1.7-0.7-2.8-0.7c-1.4,0-2.4,0.7-3.5,1.4c-9.1,6.3-18.5,10.5-29.7,11.9c-1.4,0-2.8,0-4.2-0.3
			l0,0c-6.3-1.4-11.5-6.6-10.1-12.9l0,0c0.3-1,0.7-1.7,1-2.8c2.4-4.5,19.6-17.1,11.9-23.4c-4.2-3.5-15.4,0.3-19.6,2.4
			c-3.5,2.1-10.5,10.1-14.7,4.5c-3.8-5.2,2.4-13.6-4.2-18.2c-1.4-0.7-3.1-1.4-4.9-1.4c-11.5-1.7-23.4,1-33.2,7.7
			c-4.2,2.8-7.7,6.3-12.2,8.4c-3.5,1.7-7.3,2.4-10.5,4.9c-2.8,2.1-4.5,4.9-7,7c-4.2,3.1-9.4,3.5-14.7,3.8
			c-6.3,0.3-12.9,0.7-17.8-2.8c5.2-7,9.4-14.3,13.3-22c1-1.4,1.4-3.1,1-4.9c-1-4.2-8-5.6-7.3-9.4c0.7-1.4,1.7-2.8,3.1-3.5
			c8-4.9,16.4-9.1,25.5-12.2c7.3-2.4,15.4-4.9,19.6-11.2c0.7-1,1-2.1,1-3.5c-0.3-2.4-3.5-3.1-5.9-2.4c-2.4,0.3-4.5,1.7-7,1.4
			c-3.5-0.7-5.6-4.9-4.5-8c1.1-3.1,3.8-5.9,7-7.7c3.1-1.7,6.6-2.4,9.8-3.8c9.8-3.8,16.8-11.9,23.4-19.9c3.5-4.2,6.6-8.4,10.1-12.2
			c0.4-0.4,2.8-2.8,4.5-5.2C-1401-407-1350.9-364-1330.3-305.2z"/>
		<path class="st54" d="M-1462.6-223.3c3.8,4.5,8.7,6.6,14,9.1c5.9,2.4,7,4.5,11.2,9.1c5.9,6.3,13.3,11.5,21.3,14.7
			c9.4,3.8,14.7-2.8,20.6-8.7c3.1-3.1,5.9-6.6,10.1-3.1c4.5,3.5,3.8,11.2,3.5,16.1c-0.4,7.3-0.7,14.3-3.1,21.3
			c-5.9,16.1-12.6,31.5-13.3,48.6c-0.3,8-1.4,8.4-7.3,12.9c-7.3,5.6-13.3,12.6-21.3,17.1c-3.1,1.4-5.9,2.4-9.1,3.5
			c-18.9,7-39.2,10.5-59.5,10.5c-2.4,0-4.5,0-7,0c3.5-14,16.8-40.2,5.9-52.5c-4.2-4.5-11.5-5.9-16.8-9.1c-3.1-2.1-5.9-4.9-8.4-8
			c-2.8-3.5-3.8-3.8-7.3-5.9c-9.1-5.9-8.7-22.4-21.7-22.4c-7,0-11.5,2.1-18.5-1.4c-4.9-2.4-10.1-5.2-12.6-10.5
			c-3.8-8.4-10.5-17.5-10.5-26.6c0-15.4,1.4-31.5,9.1-45.1c3.8-7,7.3-11.2,14.7-13.6c10.5-3.5,21.7-4.2,32.9-4.5
			c4.9,0,10.8-1,15.4,0.3c14.7,3.5,30.1,7.7,45.5,6.3c7.7-0.7,13.3-3.8,20.3-7.3c6.3-3.1,12.9-5.6,19.6-8.4c1.4-0.7,2.8-1.7,4.2-2.1
			c1.4-0.7,2.8-0.3,3.8,0.3c2.4,2.1,2.8,5.6,3.8,8.4c0.7,1.4,1.4,2.8,2.4,4.2c0.7,0.7,1.4,1.7,2.1,2.4c5.6,4.9,13.3,7.3,21,6.6
			c9.4-0.7,17.8,12.9,18.9,21.3c0.7,9.4-9.4,11.2-16.1,14c-9.4,3.8-24.1,2.1-31.8-4.5c-6.3-5.6-15.4-14.7-24.5-15
			C-1461.5-245.7-1469.9-232-1462.6-223.3z"/>
		<path class="st54" d="M-1617.6-122.8v0.3c-25.5-24.8-42.7-57-49.3-91.7c7,2.1,13.3,5.6,18.5,10.8c5.9,5.9,11.5,14.3,19.9,14.3
			c2.1,0,3.8-0.3,5.6,0.3c1.4,0.7,2.4,1.7,3.1,3.1c3.5,5.2,5.6,10.8,6.3,17.1c0.3,5.9-1.4,12.6-5.9,16.8c-2.1,2.1-4.9,3.5-5.9,6.3
			C-1628.1-137.2-1615.9-130.5-1617.6-122.8z"/>
		<path class="st54" d="M-1648.8-276.5l1.7-13.3c0-1.7,0.3-3.1,1-4.9c1-2.1,3.5-3.8,4.9-5.6c2.1-2.4,2.8-5.9,3.8-9.1
			c0-0.3,0.3-0.7,0.7-1c0.7-0.7,1.8-0.3,2.4,0.3c2.4,2.1,2.8,5.6,2.1,8.4c-0.7,3.1-1.7,5.9-2.1,9.1s0.3,6.6,3.1,8
			c1,0.3,2.1,1,3.1,1.7c1,1,1,2.8,0.3,4.2s-1.7,2.4-2.8,3.5c-1.7,1.4-3.5,2.8-5.2,4.2c-3.8,2.8-7.7,5.6-12.6,6.3s-9.8-1-12.2-4.9
			c-1-1.7-1.4-4.2-0.3-5.9c1-1.7,3.5-2.4,5.2-1.4c0,0,0,0,0.3,0c0.7,1,1.4,2.1,2.1,3.1c0.7,1,2.1,2.1,3.1,1c0.3-0.3,0.7-0.7,0.7-1.4
			c0.3-1.4,0.7-2.8,0.3-4.2"/>
		<path class="st54" d="M-1645.6-305.2c0,0.7-0.3,1.4-0.7,2.1c-0.7,0.7-1,0.7-2.1,0.7c-1,0-2.4,0.7-2.8-1c0-1,0-2.4,0-3.5
			c0-2.4,0-4.5,0.4-6.6c0-1,0.7-2.8,1.7-2.8c0.7,0,1,0.7,1.4,1c1,1,1.7,2.4,2.1,3.8c0,1,0,2.1,0,2.8
			C-1646-307.3-1645.6-306.2-1645.6-305.2z"/>
	</g>
	<path class="st55" d="M-1546.2-184.1c0-14,8-22.4,24.1-25.2v-65.1c-16.4,0-24.8-7.3-24.8-21.7c0-9.1,1.4-14.7,4.2-16.8
		c24.5-11.5,40.9-17.5,49-17.5c19.6,0,29.4,4.9,29.4,14.7v107.4l9.8,1c4.9,0.3,8.7,4.2,9.4,8.7c0.3,2.4,0.7,5.2,0.7,8.4
		c0,9.1-2.8,15.4-8.4,19.2c-6.6,4.5-18.5,6.6-36,6.6c-9.1,0-25.2-1.4-47.9-3.8c-5.2-0.7-9.4-4.9-9.8-10.1
		C-1546.2-179.9-1546.2-182-1546.2-184.1z"/>
</g>
</svg>
