<svg id="Layer_1" data-name="Layer 1" xmlns="http://www.w3.org/2000/svg" viewBox="0 0 1080 1920"><defs><style>.cls-1{fill:#fff;}.cls-2{fill:#101d2d;}.cls-3{fill:#e56915;}.cls-4{fill:#eddc0f;}.cls-5{fill:#1fdce5;}.cls-6{fill:#686868;}.cls-7{fill:#4f4f4f;}.cls-8{fill:#424242;}</style></defs><title>roadmap</title><rect class="cls-1" x="-420" y="420" width="1920" height="1080" transform="translate(1500 420) rotate(90)"/><rect class="cls-2" width="1080" height="1920"/><path class="cls-1" d="M379.12,1539.64c-4.63-.25-9.59-.67-15.62-1.35l-4.85-.57,2-15.88c1.56.19,3.12.38,4.68.55,5.71.64,10.37,1,14.68,1.27Zm21.23-.4-1.68-15.92a78.45,78.45,0,0,0,8.51-1.34,86.62,86.62,0,0,0,9.3-2.57l5,15.18a105.3,105.3,0,0,1-11,3A97.67,97.67,0,0,1,400.35,1539.24Zm-61.88-4.5c-6.84-1.19-13.59-2.55-20.05-4.06l3.64-15.58c6.16,1.44,12.61,2.74,19.15,3.88Zm381.18-6.52c-2.19,0-4.44,0-6.7-.07l.34-16c6.73.14,13.24.06,19.43-.25l.8,16C729,1528.11,724.36,1528.22,719.65,1528.22Zm-27.13-1.11c-6.42-.5-13-1.16-20.23-2l1.89-15.89c7,.84,13.39,1.47,19.59,2Zm-251.72-.25-6.49-14.62,2.88-1.28c5.14-2.29,10.45-4.66,15.87-6.75l5.76,14.92c-5,1.95-10.16,4.23-15.11,6.44Zm313.32-.89-2.19-15.85c6-.83,12-1.94,17.72-3.29l1.14-.27,3.75,15.55-1.21.29C767.13,1523.87,760.66,1525.07,754.12,1526Zm-455.52-.61c-6.68-2-13.23-4.29-19.47-6.72l5.8-14.91c5.87,2.28,12,4.41,18.33,6.33Zm353.65-3c-5.75-.84-11.88-1.79-19.88-3.07l2.53-15.8c7.93,1.27,14,2.21,19.67,3Zm142-5.7-4.53-15.35,3.59-1.06c5.16-1.53,10.5-3.11,15.79-4.55l4.2,15.44c-5.12,1.39-10.36,2.94-15.44,4.45Zm-181.59-.56c-8-1.29-14-2.23-19.66-3.06l2.34-15.83c5.7.85,11.82,1.8,19.86,3.09ZM477,1513.34l-4-15.5a199.17,199.17,0,0,1,20.44-4.07l2.3,15.83A183.08,183.08,0,0,0,477,1513.34Zm396.46-2.8a51.81,51.81,0,0,0-5.75-2.3l5.05-15.18a68.53,68.53,0,0,1,7.52,3Zm-300.07-.11c-7-.84-13.37-1.49-19.56-2l1.25-16c6.42.5,13,1.17,20.22,2Zm-313.17-.08c-5.61-2.76-11.12-5.74-16.35-8.87-.62-.37-1.23-.74-1.83-1.12l8.36-13.63,1.7,1c4.84,2.89,9.95,5.66,15.17,8.22Zm254.71-2.62-.84-16c4.58-.24,9.35-.36,14.17-.36,2.07,0,4.23,0,6.4.07l-.34,16C527.72,1507.31,521.13,1507.4,514.9,1507.73Zm317.1-.84-2.69-15.77a111.22,111.22,0,0,1,21.43-1.75l-.36,16c-.59,0-1.18,0-1.77,0A98,98,0,0,0,832,1506.89Zm-607.16-18.34A189.82,189.82,0,0,1,209,1475l11.08-11.54a175.87,175.87,0,0,0,14.5,12.46Zm-30.06-28.93a165.81,165.81,0,0,1-12.32-17l13.53-8.54a151.21,151.21,0,0,0,11.14,15.37Zm-22.34-35.55a143.39,143.39,0,0,1-7.29-19.87l15.4-4.37a126,126,0,0,0,6.47,17.64Zm-11.65-40.4c-.92-6-1.65-12.52-2.31-20.42l16-1.31c.62,7.52,1.31,13.66,2.17,19.32Zm-3.72-40.49c-.43-6.31-.92-13.06-1.62-19.62l15.91-1.7c.73,6.83,1.23,13.77,1.67,20.24Zm-4.47-38.63a122.48,122.48,0,0,0-5.06-18.07l15-5.54a138.65,138.65,0,0,1,5.72,20.4Zm-12.91-35.41c-1.37-2.67-2.78-5.34-4.19-8-1.68-3.19-3.42-6.49-5.08-9.77l14.27-7.22c1.6,3.15,3.31,6.38,5,9.51,1.44,2.72,2.88,5.45,4.28,8.18ZM122,1232.06a77,77,0,0,1-4.39-21.78l16-.71a61,61,0,0,0,3.54,17.27Zm13.86-39.65L120.47,1188a154.43,154.43,0,0,1,7.56-19.69l14.61,6.53A138.13,138.13,0,0,0,135.84,1192.41Zm15-36-14.72-6.27c2.56-6,5.06-12.17,7.44-18.29l14.91,5.8C156,1143.91,153.42,1150.22,150.8,1156.39Zm14.66-37.76-15.09-5.31c2.17-6.18,4.27-12.48,6.25-18.73l15.25,4.82C169.85,1105.82,167.69,1112.29,165.46,1118.63Zm12.2-38.63-15.4-4.33c1.77-6.31,3.46-12.74,5-19.09l15.54,3.83C181.22,1066.92,179.48,1073.52,177.66,1080Zm9.71-39.48-15.69-3.13.07-.31c.51-2.43,1-4.88,1.52-7.33.82-3.94,1.66-8,2.54-12l15.63,3.41c-.86,3.94-1.69,8-2.5,11.85q-.76,3.72-1.54,7.41Zm8.77-38.25-15.35-4.5A149,149,0,0,1,188,977.94l14.57,6.61A134.26,134.26,0,0,0,196.14,1002.27ZM486.57,991.5c-6.38,0-12.83-.24-19.19-.71l1.18-16c6,.44,12,.67,18,.67h1.34l.09,16Zm22-.94-1.36-15.95c6.42-.54,12.88-1.36,19.2-2.42L529.09,988C522.35,989.1,515.46,990,508.61,990.56Zm-61.72-2.11c-6.79-1.05-13.6-2.38-20.25-4l3.69-15.56c6.24,1.48,12.64,2.73,19,3.71Zm102.32-4.6-3.71-15.57c5.8-1.38,12-3,19-5l4.38,15.39C561.67,980.71,555.24,982.41,549.21,983.85Zm-142.44-4.93c-5.88-1.9-12.17-4.14-19.24-6.85l5.73-14.94c6.79,2.61,12.82,4.76,18.43,6.57Zm181.43-6-4.66-15.31,4.94-1.51q7.13-2.18,14.24-4.32l4.57,15.34c-4.71,1.4-9.42,2.84-14.14,4.28Zm-376.44-4.09L199,959.2a81.36,81.36,0,0,1,6.15-7.25,78.89,78.89,0,0,1,9.43-8.44l9.69,12.73a64.53,64.53,0,0,0-7.54,6.74A70.63,70.63,0,0,0,211.76,968.84Zm571.33-3.19h-.77l.09-16h.68a78.64,78.64,0,0,0,17.38-1.77L804,963.49A94.51,94.51,0,0,1,783.09,965.65Zm-414.29-1-2.19-.89c-5.34-2.17-10.85-4.42-16.27-6.54l5.84-14.9c5.52,2.16,11.08,4.43,16.46,6.62l2.19.89Zm392.56-.6c-7.19-1-14.22-2.27-20.14-3.41l3-15.71c5.71,1.1,12.48,2.34,19.29,3.27ZM626.3,961.72l-4.11-15.46c7.16-1.9,13.67-3.45,19.89-4.74l3.23,15.67C639.39,958.42,633.17,959.9,626.3,961.72Zm95.32-4.91c-7.64-1.41-13.75-2.37-19.23-3l1.86-15.89c5.83.68,12.28,1.69,20.29,3.17Zm103.22-1.51-8.15-13.77c1.11-.65,2.21-1.36,3.27-2.09a53.49,53.49,0,0,0,10-9l12.07,10.5a70,70,0,0,1-13,11.67C827.69,953.54,826.27,954.46,824.84,955.3ZM664.38,954l-1.91-15.89a188.93,188.93,0,0,1,20.82-1.38l.15,16A171.91,171.91,0,0,0,664.38,954Zm-332.46-3.66c-6.61-2.24-12.67-4.06-18.54-5.54l3.92-15.51c6.28,1.59,12.75,3.52,19.77,5.9Zm-92.11-3-6.17-14.77a104.54,104.54,0,0,1,20.74-6.14l3,15.73A87.64,87.64,0,0,0,239.81,947.36Zm54.92-6.05a133.53,133.53,0,0,0-18.83-1l-.31-16a150.66,150.66,0,0,1,21.09,1.12Zm559.41-18.7-14.3-7.18a133,133,0,0,0,7.1-17.47l15.16,5.09A148.73,148.73,0,0,1,854.14,922.61ZM868,883.48l-15.42-4.28,1.13-4.09c1.39-5,2.82-10.23,4.35-15.32l15.33,4.59c-1.48,4.93-2.89,10-4.25,15Zm11.65-37.26-14.81-6.07c.39-.94.78-1.87,1.18-2.8,2.14-4.94,4.75-10.17,8-16l14,7.74c-3,5.38-5.36,10.17-7.3,14.63C880.3,844.54,880,845.38,879.61,846.22Zm18.31-34.12-13.68-8.29.87-1.44c3.1-5.11,6.31-10.4,9.24-15.56l13.91,7.9c-3,5.36-6.31,10.75-9.47,16Zm19.79-36L903,769.75a84.7,84.7,0,0,0,5.65-17.36l15.69,3.13A101.28,101.28,0,0,1,917.71,776.13Zm-8.26-41.08a47.71,47.71,0,0,0-1.06-5.78,57.42,57.42,0,0,0-3.95-10.86l14.48-6.81a72.62,72.62,0,0,1,5,13.86,64.12,64.12,0,0,1,1.4,7.64ZM895,701.9l-.91-1.45c-3.31-5.24-6.72-10.66-9.65-16.33l14.22-7.34c2.61,5.07,5.7,10,9,15.14l.92,1.46Zm-18-38.78A68.11,68.11,0,0,1,875.93,651a81.77,81.77,0,0,1,.66-10.2l15.87,2a67.23,67.23,0,0,0-.53,8.21,52,52,0,0,0,.81,9.29Zm19.57-38.52L881.25,620c1.87-6.18,4.07-12.35,6.19-18.32l.36-1L902.87,606l-.36,1C900.45,612.81,898.32,618.79,896.56,624.6Zm12.77-38L894,582.15a157.78,157.78,0,0,0,4.14-18.56l15.8,2.53A172.9,172.9,0,0,1,909.33,586.57Zm6.6-41.32-16-.57c.07-1.77.1-3.55.1-5.32,0-4.57-.22-9.15-.64-13.63l15.93-1.5c.47,5,.71,10.07.71,15.13C916,541.32,916,543.3,915.93,545.25ZM896.36,507.1a127.3,127.3,0,0,0-5.64-17.94l14.86-5.92a141.89,141.89,0,0,1,6.35,20.19Zm-13.91-34.7a116.29,116.29,0,0,0-10.88-15.2l12.22-10.32a132.53,132.53,0,0,1,12.38,17.29ZM858.4,444a111.53,111.53,0,0,0-15.12-10.88l8.21-13.74a126.91,126.91,0,0,1,17.31,12.46Zm-551.9-8.88h-.38v-16h.41c6.3,0,12.71-.23,19-.67l1.11,16C320,434.83,313.2,435.07,306.5,435.07Zm-20.94-.76c-6.81-.49-13.68-1.23-20.44-2.2l2.27-15.84c6.39.92,12.89,1.62,19.32,2.08Zm61.56-2.11-2.26-15.84c6.4-.92,12.83-2.07,19.1-3.44l3.41,15.63C360.72,430,353.91,431.23,347.12,432.2Zm-102.24-3.74c-6.68-1.45-13.39-3.16-19.93-5.08L229.46,408c6.17,1.81,12.5,3.43,18.81,4.8Zm465.64-3h-.13c-3.61,0-7.14-.12-10.5-.35s-6.93-.63-10.44-1.14l2.29-15.83c3.13.45,6.25.79,9.28,1s6.14.31,9.37.31h.13ZM826.59,425A94.05,94.05,0,0,0,809,420.29l-.17,0,2.59-15.79.21,0A112,112,0,0,1,832.2,410Zm-95.35-.65-1.51-15.93c6.45-.61,13.08-1.44,19.48-2.24l.15,0,2,15.87-.15,0C744.68,422.89,737.93,423.73,731.24,424.37Zm-343.93-.94-4.56-15.34c5.78-1.72,11.85-3.72,18.57-6.13l5.4,15.06C399.73,419.53,393.38,421.62,387.31,423.43ZM771,419.8l-1.49-15.93c7.58-.71,14.23-1.06,20.34-1.06h.4l-.06,16h-.34C784.21,418.81,778.05,419.14,771,419.8Zm-102-.13c-6.15-1.67-12.58-3.71-19.66-6.24l5.39-15.06c6.67,2.38,12.71,4.3,18.45,5.85Zm-463.52-2.8c-6.43-2.41-12.82-5.08-19-7.94l6.71-14.52c5.83,2.69,11.85,5.21,17.9,7.48Zm220.22-7L419.82,395q5.94-2.33,11.88-4.7l6.69-2.65,5.88,14.87-6.66,2.65C433.63,406.72,429.64,408.31,425.65,409.87Zm204.67-3.73c-3.53-1.42-7.05-2.87-10.57-4.31l-8-3.26,6-14.82c2.67,1.08,5.34,2.18,8,3.28l10.49,4.28ZM462.77,395.36l-5.56-15c7-2.61,13.34-4.79,19.27-6.66L481.31,389C475.62,390.75,469.56,392.85,462.77,395.36Zm130.64-4c-6.71-2.46-12.74-4.44-18.43-6.07L579.36,370c6.07,1.73,12.47,3.83,19.56,6.43ZM500,383.79l-3.63-15.59a191.05,191.05,0,0,1,20.53-3.66l1.92,15.88A176.74,176.74,0,0,0,500,383.79Zm56.41-2.69c-4-.65-7.89-1.12-11.69-1.39-2.32-.17-4.69-.27-7-.31l.26-16c2.65,0,5.32.16,7.93.35,4.28.31,8.7.83,13.13,1.56Z"/><g id="Layer_2" data-name="Layer 2"><ellipse class="cls-1" cx="132.71" cy="1601.02" rx="3.32" ry="3.32"/><ellipse class="cls-3" cx="159.96" cy="1673.66" rx="3.32" ry="3.32"/><ellipse class="cls-1" cx="220.65" cy="1482.36" rx="3.32" ry="3.32"/><circle class="cls-1" cx="182.18" cy="1228.48" r="2.66"/><ellipse class="cls-4" cx="87.03" cy="1089.3" rx="3.32" ry="3.32"/><ellipse class="cls-1" cx="115.3" cy="1852.79" rx="3.32" ry="3.32"/><ellipse class="cls-5" cx="258.97" cy="1856.11" rx="3.32" ry="3.32"/><ellipse class="cls-5" cx="347.49" cy="1868.09" rx="3.32" ry="3.32"/><ellipse class="cls-5" cx="383.7" cy="1787.41" rx="3.32" ry="3.32"/><ellipse class="cls-5" cx="272.9" cy="1673.66" rx="3.32" ry="3.32"/><ellipse class="cls-5" cx="702" cy="1575.28" rx="3.32" ry="3.32" transform="translate(-972.24 1161.45) rotate(-52.1)"/><ellipse class="cls-5" cx="358.52" cy="698.19" rx="3.32" ry="3.32"/><ellipse class="cls-5" cx="623.24" cy="1681.84" rx="3.32" ry="3.32" transform="translate(-1086.69 1140.4) rotate(-52.1)"/><ellipse class="cls-5" cx="751.27" cy="1667.56" rx="3.32" ry="3.32" transform="translate(-1026.05 1235.91) rotate(-52.1)"/><ellipse class="cls-1" cx="328.04" cy="1821.41" rx="3.32" ry="3.32"/><ellipse class="cls-1" cx="339.69" cy="1619.58" rx="3.32" ry="3.32"/><circle class="cls-1" cx="68.83" cy="1194.98" r="1.99"/><ellipse class="cls-1" cx="95.82" cy="1266.94" rx="3.29" ry="3.29"/><ellipse class="cls-1" cx="166.57" cy="1089.02" rx="3.29" ry="3.29"/><ellipse class="cls-1" cx="684.57" cy="1499.76" rx="3.29" ry="3.29" transform="matrix(0.61, -0.79, 0.79, 0.61, -919.37, 1118.57)"/><ellipse class="cls-1" cx="789.78" cy="1559.11" rx="3.29" ry="3.29" transform="translate(-925.62 1224.47) rotate(-52.1)"/><ellipse class="cls-1" cx="732.63" cy="1603.35" rx="3.29" ry="3.29" transform="translate(-982.56 1196.44) rotate(-52.1)"/><ellipse class="cls-1" cx="321.43" cy="1296.92" rx="3.29" ry="3.29"/><ellipse class="cls-1" cx="76.03" cy="1705.43" rx="3.29" ry="3.29"/><ellipse class="cls-3" cx="155.95" cy="1077.42" rx="3.29" ry="3.29"/><ellipse class="cls-1" cx="118.18" cy="821.48" rx="3.32" ry="3.32"/><ellipse class="cls-1" cx="22.56" cy="682.62" rx="3.32" ry="3.32"/><ellipse class="cls-3" cx="50.83" cy="1446.11" rx="3.32" ry="3.32"/><ellipse class="cls-3" cx="193.91" cy="1447.69" rx="3.29" ry="3.29"/><circle class="cls-1" cx="263.57" cy="1414.73" r="1.66"/><circle class="cls-1" cx="275.22" cy="1212.9" r="0.66"/><path class="cls-1" d="M640.47,1727.12a2,2,0,0,1,2.84-.36l2.47,1.93,2.09-2.69a2.15,2.15,0,1,1,3.39,2.64l-2.09,2.68,2.47,1.93a2,2,0,0,1-1,3.6,2,2,0,0,1-1.49-.41l-2.47-1.92-2.2,2.83a2.15,2.15,0,1,1-3.39-2.64l2.2-2.83-2.47-1.92A2,2,0,0,1,640.47,1727.12Z"/><path class="cls-1" d="M83.8,969.42a2,2,0,0,1,2,2v3.13h3.41a2.15,2.15,0,1,1,0,4.29H85.82V982a2,2,0,0,1-2,2,2,2,0,0,1-2-2v-3.14H78.18A2.15,2.15,0,0,1,76,976.72a2.17,2.17,0,0,1,2.15-2.15h3.59v-3.13A2,2,0,0,1,83.8,969.42Z"/><ellipse class="cls-1" cx="864.49" cy="962.49" rx="3.65" ry="3.78"/><ellipse class="cls-3" cx="894.44" cy="1045.34" rx="3.65" ry="3.78"/><ellipse class="cls-1" cx="961.14" cy="827.16" rx="3.65" ry="3.78"/><ellipse class="cls-1" cx="918.86" cy="537.62" rx="2.92" ry="3.03"/><ellipse class="cls-4" cx="814.28" cy="378.89" rx="3.65" ry="3.78"/><ellipse class="cls-4" cx="708.09" cy="449.83" rx="3.65" ry="3.78"/><ellipse class="cls-3" cx="649.79" cy="607.44" rx="3.65" ry="3.78"/><ellipse class="cls-1" cx="686.44" cy="730.46" rx="3.65" ry="3.78"/><ellipse class="cls-1" cx="845.36" cy="1249.63" rx="3.65" ry="3.78"/><ellipse class="cls-5" cx="1003.27" cy="1253.41" rx="3.65" ry="3.78"/><ellipse class="cls-5" cx="1018.58" cy="1045.34" rx="3.65" ry="3.78"/><ellipse class="cls-5" cx="1037.88" cy="100.19" rx="3.65" ry="3.78"/><ellipse class="cls-1" cx="1079.18" cy="1213.84" rx="3.65" ry="3.78"/><ellipse class="cls-1" cx="794.28" cy="499.41" rx="2.19" ry="2.27"/><ellipse class="cls-1" cx="253.91" cy="1422.36" rx="4.59" ry="5.05"/><ellipse class="cls-1" cx="901.71" cy="378.57" rx="3.62" ry="3.75"/><ellipse class="cls-1" cx="1071.91" cy="615.67" rx="3.62" ry="3.75"/><ellipse class="cls-1" cx="802.2" cy="1081.57" rx="3.62" ry="3.75"/><ellipse class="cls-3" cx="890.03" cy="365.34" rx="3.62" ry="3.75"/><ellipse class="cls-1" cx="848.53" cy="73.45" rx="3.65" ry="3.78"/><ellipse class="cls-1" cx="578.93" cy="143.63" rx="3.65" ry="3.78"/><ellipse class="cls-1" cx="615.58" cy="266.65" rx="3.65" ry="3.78"/><ellipse class="cls-3" cx="873.96" cy="1263.6" rx="3.65" ry="3.78" transform="translate(-659.99 1176.93) rotate(-52.1)"/><ellipse class="cls-3" cx="931.76" cy="787.62" rx="3.62" ry="3.75"/><ellipse class="cls-1" cx="1008.32" cy="750.03" rx="1.83" ry="1.89"/><ellipse class="cls-1" cx="1021.12" cy="519.85" rx="0.73" ry="0.76"/><path class="cls-1" d="M1007.81,1453.06a2.2,2.2,0,0,1,1.5-.82,2.35,2.35,0,0,1,1.69.48l2.82,2.19,2.3-3a2.45,2.45,0,0,1,3.86,3l-2.3,3,2.82,2.2a2.27,2.27,0,0,1,.45,3.17,2.18,2.18,0,0,1-1.5.82,2.36,2.36,0,0,1-1.69-.48l-2.81-2.2-2.43,3.12a2.42,2.42,0,0,1-3.38.36,2.52,2.52,0,0,1-.94-1.61,2.34,2.34,0,0,1,.46-1.76l2.42-3.12-2.81-2.19A2.27,2.27,0,0,1,1007.81,1453.06Z"/><path class="cls-1" d="M1010.24,147.42a2.18,2.18,0,0,1,1.57.67,2.31,2.31,0,0,1,.66,1.63v3.57h3.74a2.45,2.45,0,0,1,0,4.9h-3.74v3.57a2.27,2.27,0,0,1-2.23,2.3,2.22,2.22,0,0,1-1.57-.67,2.37,2.37,0,0,1-.65-1.63v-3.57h-3.94a2.42,2.42,0,0,1-2.37-2.45,2.5,2.5,0,0,1,.7-1.73,2.34,2.34,0,0,1,1.67-.72H1008v-3.57A2.27,2.27,0,0,1,1010.24,147.42Z"/><path class="cls-1" d="M810.73,242.17a2.2,2.2,0,0,1,1.57.67,2.31,2.31,0,0,1,.66,1.63V248h3.74a2.45,2.45,0,0,1,0,4.9H813v3.57a2.27,2.27,0,0,1-2.23,2.3,2.2,2.2,0,0,1-1.57-.67,2.37,2.37,0,0,1-.65-1.63v-3.57h-4a2.41,2.41,0,0,1-2.36-2.45,2.49,2.49,0,0,1,.69-1.73,2.34,2.34,0,0,1,1.67-.72h4v-3.57A2.27,2.27,0,0,1,810.73,242.17Z"/><ellipse class="cls-1" cx="344.68" cy="1235.28" rx="11.47" ry="9.7"/><ellipse class="cls-3" cx="438.8" cy="1447.61" rx="11.47" ry="9.7"/><ellipse class="cls-1" cx="877.49" cy="1426.11" rx="11.47" ry="9.7" transform="translate(-786.85 1242.39) rotate(-52.1)"/><ellipse class="cls-1" cx="515.55" cy="146.37" rx="9.18" ry="7.76"/><ellipse class="cls-5" cx="828.95" cy="1447.61" rx="11.47" ry="9.7"/><ellipse class="cls-1" cx="1019.41" cy="1879.46" rx="11.47" ry="9.7"/><ellipse class="cls-1" cx="1059.64" cy="1289.54" rx="11.47" ry="9.7"/><ellipse class="cls-1" cx="124.02" cy="48.43" rx="6.88" ry="5.82"/><ellipse class="cls-1" cx="217.25" cy="258.78" rx="11.37" ry="9.61"/><ellipse class="cls-1" cx="996.57" cy="346.4" rx="11.37" ry="9.61"/><ellipse class="cls-1" cx="148.9" cy="1540.46" rx="11.37" ry="9.61"/><ellipse class="cls-3" cx="61.83" cy="782.49" rx="11.47" ry="9.7"/><ellipse class="cls-3" cx="740.79" cy="1436.71" rx="11.37" ry="9.61" transform="translate(-847.94 1138.61) rotate(-52.1)"/><ellipse class="cls-1" cx="836.94" cy="100.83" rx="2.29" ry="1.94"/></g><path class="cls-6" d="M377.3,1468.11a10,10,0,0,1,3-5c3.09-2.38,7.39-.71,10.75,1.19,3.92,2.23,8.11,5.31,8.72,10,.36,2.72-.6,5.51-.09,8.2,1.23,6.44,10.25,10,9,16.47-1,5.22-7.57,6-11.82,8.83-3.68,2.45-5.81,6.83-9,9.91s-9,4.4-11.5.63a27.54,27.54,0,0,1-1.49-3.26c-3.14-6.46-11.74-6.44-17.69-10a5.26,5.26,0,0,1-2.51-2.73,4.71,4.71,0,0,1,0-2.5c1.95-8.51,10.45-2.73,14.53-7.45C374.69,1485.84,374.79,1476,377.3,1468.11Z"/><path class="cls-6" d="M912.48,1260.3c-1.38-4.06,4-4.53,6.69-5.75,1.75-.8,4.4-3.32,5.06-5.2.76-2.12.69-3.23,2.73-4.63,2.34-1.61,6.3-1.75,7.82.75a16.38,16.38,0,0,1,1.14,3.76c.52,1.66,1.81,3.08,1.78,4.92-.06,4-4.78,6.49-6.11,10.11-1.11,3-1.24,7.06-4.5,8.79s-4.66-2.86-7.79-2c-1.38.36-2.14.86-3.24-.15a7.62,7.62,0,0,1-1.72-3.16C913.49,1265.3,913.29,1262.69,912.48,1260.3Z"/><path class="cls-6" d="M721.81,1571.19v0h0v0Z"/><path class="cls-7" d="M378.67,1560.64a8.56,8.56,0,0,1,4.91-4c2-.75,4.11-1.07,6.12-1.77a18.12,18.12,0,0,0,6.66-4.16c2.5-2.44,4.37-5.65,7.24-7.59s7.4-2,9,1.22c.45.89.61,1.92,1,2.83,1.57,3.33,5.85,3.73,8.65,6a2.74,2.74,0,0,1,1.07,1.46,3.49,3.49,0,0,1-.75,2.52l-4,6.48a12.67,12.67,0,0,1-3.73,4.36,9.31,9.31,0,0,1-4.7,1.13c-5.44.13-11-1.66-16.23,0-2.07.67-4,1.88-6.18,2C383.51,1571.26,376.19,1565.79,378.67,1560.64Z"/><path class="cls-8" d="M707.91,1648.18c-1.06-3.5-1.17-7.5-3-10.53-2.18-3.6-6.35-5.15-9.78-7.46a3.47,3.47,0,0,1-1.83-2.44,5.43,5.43,0,0,1,.82-2.64c2.17-4.26,5.12-9.14,9.5-9.93,2.19-.39,4.22.38,6.32.64a15.84,15.84,0,0,0,12-4.07,11.16,11.16,0,0,1,2.79-2.11,6.31,6.31,0,0,1,4.16.13c2.72.74,5.49,1.5,7.72,3.13a8.27,8.27,0,0,1,3.54,7.39c-.5,5-5.79,9.39-5.88,14.37,0,1.15.25,2.24.28,3.38.11,4.1-2.8,8-5.53,11.49-2.95,3.72-6.3,10.73-11.11,9.58C712.64,1657.84,710.1,1652.66,707.91,1648.18Z"/><path class="cls-8" d="M393.52,1528.13a1.59,1.59,0,0,1,.64-.62c.72-.32,1.52.5,1.56,1.33a3.7,3.7,0,0,1-.93,2.23c-.57.76-2.91,3.37-3.48,1.33C391.13,1531.78,393.14,1528.7,393.52,1528.13Z"/><path class="cls-8" d="M368.89,1531.45a11.71,11.71,0,0,0-.55,2.68.57.57,0,0,0,.08.45.54.54,0,0,0,.3.15,3.9,3.9,0,0,0,2.59,0,4.45,4.45,0,0,0,1.86-2.73,5,5,0,0,0,.42-2.4,2.87,2.87,0,0,0-1.77-2.12,1.28,1.28,0,0,0-.66-.13c-.72.09-1,1.05-1.56,1.51a5.73,5.73,0,0,1-1.39.6c-.46.22-.89.73-.72,1.23a2.86,2.86,0,0,1,1.31.66"/><path class="cls-7" d="M713.6,619.21a2.08,2.08,0,0,0-.34-1.74c-.3-.28-.77-.35-1-.67-.45-.54,0-1.41.67-1.7a2.31,2.31,0,0,1,3.11,1.64,7.23,7.23,0,0,0,.21,1.75,2.45,2.45,0,0,0,.57.71,11.6,11.6,0,0,0,4,2.47.64.64,0,0,1,.37.24.59.59,0,0,1-.11.52,5,5,0,0,1-2.23,1.88c.16.75-.65,1.3-1.34,1.63l-2,.95a2.12,2.12,0,0,1-.94.27.7.7,0,0,1-.69-.59c0-.51.47-.88.47-1.4,0-.1-.38-1.07-.42-1.28A19.65,19.65,0,0,1,713.6,619.21Z"/><path class="cls-7" d="M922.82,1260.08a5.5,5.5,0,0,0,.75-.85l1.55-2a1,1,0,0,1,.33-.32,1,1,0,0,1,.54-.08l1.33,0a.67.67,0,0,1,.37.08.62.62,0,0,1,.24.33c.91,2.15.05,4.7-1.47,6.47a1.6,1.6,0,0,1-.52.45,2.29,2.29,0,0,1-.69.14c-.73.11-1.4.48-2.12.63-1.48.3-2.26-.76-2.33-2.13S921.78,1261,922.82,1260.08Z"/><path class="cls-8" d="M923.45,1260.8a3.32,3.32,0,0,0,2.1-1.21c.17-.29.23-.64.4-.93a.78.78,0,0,1,.81-.46.81.81,0,0,1,.52.63c.41,1.5-1.47,4.06-2.87,4.63a2.76,2.76,0,0,1-2.53-.29C920.8,1262.06,922.48,1261.09,923.45,1260.8Z"/><path class="cls-6" d="M929.08,610.22c2.36-3.58,6.07.41,8.65,1.75a11.77,11.77,0,0,0,7.22.8c2.13-.71,3-1.44,5.33-.69,2.71.85,5.24,3.89,4.21,6.63a16.4,16.4,0,0,1-2.27,3.21c-1,1.43-1.31,3.32-2.79,4.43-3.23,2.43-8.06.21-11.73,1.39-3.08,1-6.33,3.35-9.7,1.84s-.61-5.43-3.17-7.4c-1.13-.87-2-1.16-1.87-2.65a7.71,7.71,0,0,1,1.43-3.3C925.76,614.1,927.69,612.33,929.08,610.22Z"/><path class="cls-7" d="M935.61,618.24a4.81,4.81,0,0,0,1.13.07l2.55,0a1.08,1.08,0,0,1,.47.07,1.15,1.15,0,0,1,.39.37l.79,1.07a.65.65,0,0,1,.17.34.69.69,0,0,1-.12.39c-1.13,2-3.68,2.93-6,2.82a1.52,1.52,0,0,1-.67-.14,2.31,2.31,0,0,1-.54-.45c-.53-.51-1.23-.81-1.79-1.29-1.15-1-.79-2.25.24-3.15S934.27,618,935.61,618.24Z"/><path class="cls-8" d="M935.43,619.19a3.34,3.34,0,0,0,2.25.91c.33-.05.64-.2,1-.26a.79.79,0,0,1,.87.36.85.85,0,0,1-.18.8c-.94,1.24-4.11,1.33-5.42.58a2.76,2.76,0,0,1-1.32-2.17C932.81,617.87,934.61,618.6,935.43,619.19Z"/><path class="cls-7" d="M384.12,1469.47c.86.65,1.81,1.4,2.85,1.24.42-.07.81-.28,1.23-.35a1,1,0,0,1,1.1.48,1.16,1.16,0,0,1-.22,1.07c-1.19,1.68-5.21,1.8-6.88.79a3.77,3.77,0,0,1-1.67-2.93C380.79,1467.7,383.07,1468.69,384.12,1469.47Z"/><path class="cls-7" d="M398.45,1486.06c1.13,1.56,2.84,2.57,3.91,4.17s1.43,3.52,2.85,4.61a3.29,3.29,0,0,1,.78.66,1.64,1.64,0,0,1-.21,1.89,3.55,3.55,0,0,1-1.67,1,1.19,1.19,0,0,1-.72.08,1.32,1.32,0,0,1-.62-.53,22.89,22.89,0,0,1-3.29-6,16.68,16.68,0,0,0-1.64-3.82,23.08,23.08,0,0,1-2.21-2.92c-.37-.8-.53-4.33,1-4.21.75,0,.56,1.78.67,2.31A7.18,7.18,0,0,0,398.45,1486.06Z"/><path class="cls-6" d="M812.73,641.51a10,10,0,0,1-2.66-5.21c-.35-3.88,3.36-6.62,6.77-8.43,4-2.12,8.83-4,13.1-2,2.49,1.16,4.33,3.47,6.88,4.48,6.09,2.41,14-3.27,18.72,1.24,3.85,3.66,1,9.61,1.12,14.71.09,4.42,2.65,8.56,3.52,12.94s-1.11,9.95-5.64,10a27,27,0,0,1-3.55-.49c-7.14-.81-11.73,6.46-18,9.55a5.31,5.31,0,0,1-3.65.66,4.84,4.84,0,0,1-2.12-1.33c-6.14-6.21,3.29-10.28,1.5-16.26C826.29,653.22,818.06,647.87,812.73,641.51Z"/><path class="cls-7" d="M817.54,636.49c1-.38,2.14-.78,2.57-1.75.17-.39.2-.83.37-1.23a1,1,0,0,1,1-.67,1.16,1.16,0,0,1,.78.77c.78,1.9-1.27,5.36-3,6.23a3.78,3.78,0,0,1-3.37-.16C814.26,638.34,816.31,637,817.54,636.49Z"/><path class="cls-7" d="M839.22,633.28c1.92-.11,3.69-1,5.62-1.06s3.74.68,5.41.06a4,4,0,0,1,1-.3,1.65,1.65,0,0,1,1.48,1.19,3.55,3.55,0,0,1-.06,1.94,1.26,1.26,0,0,1-.32.64,1.3,1.3,0,0,1-.78.25,22.84,22.84,0,0,1-6.79-.42,17.11,17.11,0,0,0-4.1-.66,22.47,22.47,0,0,1-3.65.3c-.88-.11-3.94-1.88-3-3.08.45-.6,1.8.49,2.32.68A7.21,7.21,0,0,0,839.22,633.28Z"/><path class="cls-6" d="M874.35,800.82a4.48,4.48,0,0,1-.19,2.86c-.9,1.88-3.4,2.61-5.5,2.94-2.45.39-5.24.54-6.7-1-.85-.93-1.08-2.29-2-3.16-2.19-2.06-7.45-.58-8.44-3.43-.8-2.3,2.17-4.68,3.53-7.09,1.17-2.1,1.11-4.44,1.91-6.64s3.27-4.51,5.42-3.87a11,11,0,0,1,1.53.77c3.13,1.47,7.29-1.26,11.06-1.77a2.74,2.74,0,0,1,1.9.25,1.69,1.69,0,0,1,.63,1c1.17,3.85-4.38,4.34-5.19,7.42C871.21,793.24,873.6,797,874.35,800.82Z"/><path class="cls-6" d="M780.94,1695c2.7,2.6-1.4,6.63-3,9.45a17.12,17.12,0,0,0-1.93,7.89c.24,2.34.74,3.26-.32,5.83-1.2,3-4.27,5.72-6.47,4.57-1-.52-1.59-1.68-2.39-2.49-1.07-1.1-2.65-1.46-3.37-3.09-1.55-3.54,1.21-8.81.81-12.83-.33-3.37-1.82-6.95.07-10.62,2-3.83,4.81-.64,7-3.43,1-1.22,1.35-2.17,2.62-2a5,5,0,0,1,2.61,1.59C778.15,1691.36,779.35,1693.48,780.94,1695Z"/><path class="cls-6" d="M750.11,1584.07h0Z"/><path class="cls-7" d="M750.74,1557.83A6.73,6.73,0,0,1,749,1562c-1,1.23-2.19,2.3-3.21,3.52a15.49,15.49,0,0,0-2.78,5c-.76,2.32-.9,4.77-2,7s-3.92,4.16-5.91,3.2c-.56-.26-1-.72-1.53-1-2-1-4.77.58-7.19.63a1.62,1.62,0,0,1-1.12-.29,1.93,1.93,0,0,1-.33-1.62l.43-5a9.19,9.19,0,0,1,.91-3.82,8.56,8.56,0,0,1,2.53-2.59c3.3-2.38,7.3-3.85,10-6.93a22.22,22.22,0,0,1,3.17-3.65C744.42,1554.44,750.64,1554.13,750.74,1557.83Z"/><path class="cls-8" d="M301.09,1421.68c-.09,2.27-.81,4.64-.39,6.78.51,2.55,2.52,4.28,4,6.32a2.2,2.2,0,0,1,.53,1.79,3.42,3.42,0,0,1-1,1.39c-2,2.08-4.62,4.36-7.2,4-1.28-.2-2.25-1.05-3.37-1.62a8.82,8.82,0,0,0-7.45,0,6.42,6.42,0,0,1-2,.69,3.58,3.58,0,0,1-2.28-.9,13.36,13.36,0,0,1-3.66-3.36,5.33,5.33,0,0,1-.52-5c1.25-2.86,5-4.38,6.05-7.29.23-.67.3-1.36.5-2,.74-2.43,3.12-4.17,5.3-5.66,2.36-1.61,5.58-5.06,8-3.44C300.36,1415.07,300.75,1418.61,301.09,1421.68Z"/><path class="cls-8" d="M729.91,1573.87a1.3,1.3,0,0,1-.2.59.89.89,0,0,1-1.38,0,2.16,2.16,0,0,1-.13-1.54c.11-.63.72-3,1.72-2.17C730.22,1571,730,1573.42,729.91,1573.87Z"/><path class="cls-8" d="M744,1561.67a5.81,5.81,0,0,0-.5-1.61c0-.09-.09-.18-.19-.2a.46.46,0,0,0-.23.05,3.7,3.7,0,0,0-1.6,1.11,3,3,0,0,0-.28,2.19,2.58,2.58,0,0,0,.5,1.41,1.74,1.74,0,0,0,1.75.34,1,1,0,0,0,.45-.22c.41-.35.28-1,.48-1.44a5.68,5.68,0,0,1,.67-.9c.21-.31.31-.75.05-.94a2.16,2.16,0,0,1-1,.23"/><path class="cls-7" d="M289.74,1430.84c.22.45.47,1,1,1,.36,0,.75-.18,1.09-.1.58.13.57,1,.2,1.54a2.16,2.16,0,0,1-3.12.55c-.32-.35-.49-.86-.91-1.1a2,2,0,0,0-.74-.19,10.58,10.58,0,0,0-4.18.47.57.57,0,0,1-.38,0c-.14-.07-.15-.26-.14-.42a4.94,4.94,0,0,1,.94-2.51c-.45-.43-.05-1.25.34-1.84l1.16-1.74a2.32,2.32,0,0,1,.62-.7c.27-.17.64-.18.78,0s0,.86.24,1.22c0,.07.75.53.87.66A13.75,13.75,0,0,1,289.74,1430.84Z"/><path class="cls-8" d="M964,1363.64c1.28,1.09,2.32,2.62,3.78,3.33,1.74.84,3.73.38,5.62.41a1.54,1.54,0,0,1,1.31.49,2.45,2.45,0,0,1,.34,1.23c.23,2.21.32,4.86-1.16,6.28a9.58,9.58,0,0,1-2.59,1.36,7.4,7.4,0,0,0-3.6,4.64,5.05,5.05,0,0,1-.54,1.53,2.8,2.8,0,0,1-1.63,1,10.27,10.27,0,0,1-3.74.75,3.76,3.76,0,0,1-3.2-2c-1.07-2.08-.12-5.13-1.34-7.09-.28-.45-.65-.81-.95-1.24-1.06-1.57-.93-3.84-.74-5.88.2-2.2-.26-5.78,1.87-6.55C959.8,1361.08,962.06,1362.45,964,1363.64Z"/><path class="cls-7" d="M963.88,1374.88c.37.06.8.15,1.09-.16s.26-.55.47-.72.86.09,1,.58a1.78,1.78,0,0,1-1.19,2.19c-.37,0-.74-.09-1.09.06a1.67,1.67,0,0,0-.47.38,9.07,9.07,0,0,0-1.75,2.81.48.48,0,0,1-.17.26c-.11,0-.22,0-.31-.11a3.67,3.67,0,0,1-1-1.73c-.46.08-.75-.54-.9-1l-.46-1.52a1.66,1.66,0,0,1-.11-.7c0-.24.2-.48.4-.47s.51.39.83.41c.06,0,.68-.22.81-.24A10.22,10.22,0,0,1,963.88,1374.88Z"/><path class="cls-7" d="M772.86,1702.11a7.45,7.45,0,0,0-.25,1.23l-.42,2.79a1.55,1.55,0,0,1-.14.51,1.34,1.34,0,0,1-.39.43l-1.06.86a.83.83,0,0,1-.33.18.5.5,0,0,1-.32-.13c-1.57-1.26-1.91-4-1.41-6.59a2.47,2.47,0,0,1,.24-.74,3.29,3.29,0,0,1,.48-.58c.53-.58.91-1.35,1.43-2,1-1.25,2.08-.85,2.69.29S773.32,1700.64,772.86,1702.11Z"/><path class="cls-8" d="M772.07,1701.9a4.85,4.85,0,0,0-1.17,2.46c0,.36.07.7.05,1.06a1.09,1.09,0,0,1-.46.95.54.54,0,0,1-.65-.2c-.92-1-.46-4.5.42-5.94.42-.68,1.48-1.54,2.11-1.42C773.67,1699,772.72,1701,772.07,1701.9Z"/><path class="cls-7" d="M870.71,802.46a2.7,2.7,0,0,0-1.69.43c-.18.16-.32.36-.51.52s-.47.27-.65.16a.44.44,0,0,1-.16-.48c.16-1,2.08-2.33,3.14-2.47.5-.07,1.35.16,1.53.59C872.76,802.08,871.41,802.43,870.71,802.46Z"/><path class="cls-7" d="M859.65,800.67c-.94-.24-2-.08-2.93-.35s-1.57-.89-2.53-.86a2,2,0,0,1-.54,0,.63.63,0,0,1-.37-.79,2.18,2.18,0,0,1,.57-.9.85.85,0,0,1,.33-.26.79.79,0,0,1,.43,0,10,10,0,0,1,3.07,1.23,7.46,7.46,0,0,0,1.74.93,10.28,10.28,0,0,1,1.8.42c.38.18,1.33,1.48.58,1.91-.38.21-.72-.51-.9-.68A3,3,0,0,0,859.65,800.67Z"/><path class="cls-6" d="M873.65,746.52a1.05,1.05,0,0,1-.12.66,2.33,2.33,0,0,1-1.46.82c-.63.15-1.33.25-1.66-.08s-.22-.5-.43-.67c-.5-.42-1.86,0-2-.59s.67-1.12,1.07-1.71a11.13,11.13,0,0,0,.64-1.58c.26-.52.94-1.12,1.46-1a1.66,1.66,0,0,1,.37.14c.75.26,1.86-.47,2.83-.68a.68.68,0,0,1,.47,0,.31.31,0,0,1,.13.2c.2.86-1.21,1.11-1.49,1.84C873,744.86,873.55,745.67,873.65,746.52Z"/><path class="cls-6" d="M868.52,742.09c-.14.64-1,.6-1.55.73a3.5,3.5,0,0,0-1.25.69,1.89,1.89,0,0,1-.82.65c-.51.19-1.14.13-1.17-.28a2.65,2.65,0,0,1,.14-.59c.06-.27,0-.51.14-.79.36-.61,1.31-.89,1.83-1.41s.8-1.05,1.47-1.24.49.53,1.05.47c.25,0,.41-.09.5.09a1,1,0,0,1,0,.51C868.78,741.31,868.59,741.71,868.52,742.09Z"/><polygon class="cls-6" points="863.85 739.62 863.85 739.62 863.85 739.62 863.85 739.62 863.85 739.62"/><path class="cls-7" d="M697.79,1707.46a1.76,1.76,0,0,1,.38,1.14c0,.46,0,1,0,1.41a4.64,4.64,0,0,0,.33,1.55,10.37,10.37,0,0,1,.78,1.68,2.28,2.28,0,0,1-.49,2.07c-.14.11-.29.14-.43.24-.51.36-.73,1.35-1.13,2a.58.58,0,0,1-.24.25c-.13,0-.24-.07-.32-.18l-.75-.93a2,2,0,0,1-.46-.87,3.27,3.27,0,0,1,0-1.08,23.12,23.12,0,0,0,.59-3.75,7.55,7.55,0,0,1-.05-1.43C696.15,1708.57,697.17,1706.88,697.79,1707.46Z"/><path class="cls-8" d="M704.65,1696.75c.35.39.62,1,1,1.21s1.13,0,1.71,0a.35.35,0,0,1,.38.16,1.17,1.17,0,0,1,.06.48,4.27,4.27,0,0,1-.59,2.54,3.76,3.76,0,0,1-.85.62,3.76,3.76,0,0,0-1.27,2,3.14,3.14,0,0,1-.23.63,1.18,1.18,0,0,1-.53.45,2.93,2.93,0,0,1-1.18.41.89.89,0,0,1-.91-.68c-.25-.8.16-2-.14-2.78-.07-.17-.17-.3-.25-.47a4.49,4.49,0,0,1,0-2.31c.15-.89.14-2.3.82-2.67S704.1,1696.34,704.65,1696.75Z"/><path class="cls-8" d="M696.82,1715.56a.3.3,0,0,1,.06.15c0,.16-.12.35-.24.35s-.2-.1-.27-.21-.36-.68-.06-.81C696.4,1715,696.76,1715.47,696.82,1715.56Z"/><path class="cls-8" d="M697.25,1709.86a1,1,0,0,0-.34-.13.08.08,0,0,0-.07,0l0,.07a1.44,1.44,0,0,0-.09.6.57.57,0,0,0,.3.43.39.39,0,0,0,.32.1c.14,0,.27-.2.36-.4a.94.94,0,0,0,0-.16c0-.16-.11-.23-.16-.36a2.91,2.91,0,0,1,0-.32c0-.11-.07-.21-.14-.17a.92.92,0,0,1-.14.3"/><path class="cls-7" d="M704.19,1701.23a.3.3,0,0,0,.34-.1c.07-.08.1-.22.17-.3s.26,0,.29.2a.92.92,0,0,1-.45.91c-.11,0-.22,0-.33.06a.66.66,0,0,0-.16.17,4.54,4.54,0,0,0-.65,1.17.2.2,0,0,1-.06.11s-.06,0-.09,0a1.33,1.33,0,0,1-.25-.65c-.14,0-.21-.19-.23-.39l-.09-.59a1.29,1.29,0,0,1,0-.28c0-.1.08-.2.15-.2s.14.14.23.14l.26-.12A2.43,2.43,0,0,1,704.19,1701.23Z"/><path class="cls-7" d="M866.87,741.91a1.18,1.18,0,0,0-.19.11l-.42.28-.08,0h-.09l-.21,0,0,0s0,0,0-.06a1.56,1.56,0,0,1,.78-1,.52.52,0,0,1,.13-.06h.12c.12,0,.26,0,.38-.05s.29.17.19.38S867.11,741.79,866.87,741.91Z"/><path class="cls-8" d="M866.83,741.78a.8.8,0,0,0-.44.15l-.14.13a.19.19,0,0,1-.17.05s0-.06,0-.1a1.46,1.46,0,0,1,.85-.65c.12,0,.33,0,.37.1S867,741.76,866.83,741.78Z"/><path class="cls-7" d="M872.69,747a.88.88,0,0,0-.44.14l-.14.13c-.05,0-.12.08-.17.06a.09.09,0,0,1,0-.11,1.46,1.46,0,0,1,.85-.65c.12,0,.33,0,.37.1S872.87,747,872.69,747Z"/><path class="cls-7" d="M870,746.85c-.23,0-.51,0-.73,0a1.76,1.76,0,0,0-.62-.13.57.57,0,0,1-.13,0c-.08,0-.1-.09-.07-.17a.54.54,0,0,1,.16-.22s.05-.06.09-.07a.21.21,0,0,1,.11,0,2.19,2.19,0,0,1,.74.21,1.76,1.76,0,0,0,.42.17,2.12,2.12,0,0,1,.44,0c.09,0,.3.31.1.42s-.17-.09-.21-.13A.68.68,0,0,0,870,746.85Z"/><path class="cls-6" d="M976.65,1445.06a1,1,0,0,1,.44.5,2.28,2.28,0,0,1-.25,1.65c-.27.58-.62,1.21-1.08,1.26-.27,0-.53-.14-.79-.08-.64.14-1.11,1.5-1.72,1.26s-.48-1.22-.7-1.9a11.82,11.82,0,0,0-.84-1.48,1.71,1.71,0,0,1,.09-1.78,2.23,2.23,0,0,1,.33-.2c.67-.43.78-1.76,1.2-2.65a.69.69,0,0,1,.3-.36.29.29,0,0,1,.24,0c.8.37.13,1.64.54,2.31C975,1444.51,975.91,1444.61,976.65,1445.06Z"/><path class="cls-6" d="M970,1446.38c.43.5-.15,1.18-.37,1.67a3.51,3.51,0,0,0-.22,1.41,1.87,1.87,0,0,1,0,1c-.15.52-.59,1-.93.75a2.37,2.37,0,0,1-.38-.48c-.17-.21-.41-.29-.54-.59-.26-.66.11-1.58,0-2.31a3.79,3.79,0,0,1-.09-1.92c.27-.67.72-.06,1-.54.13-.21.19-.38.38-.34a.87.87,0,0,1,.41.32C969.54,1445.69,969.74,1446.09,970,1446.38Z"/><polygon class="cls-6" points="965.18 1448.55 965.19 1448.55 965.19 1448.55 965.18 1448.55 965.18 1448.55"/><path class="cls-7" d="M968.84,1447.57a1.66,1.66,0,0,0,0,.22l0,.5a.28.28,0,0,1,0,.09l-.06.07-.15.15s0,0,0,0,0,0,0,0a1.56,1.56,0,0,1-.27-1.21.61.61,0,0,1,0-.13.86.86,0,0,1,.07-.1c.07-.1.13-.23.2-.33s.3-.13.4.08S968.9,1447.31,968.84,1447.57Z"/><path class="cls-8" d="M968.72,1447.53a.86.86,0,0,0-.16.43c0,.06,0,.12,0,.19a.22.22,0,0,1-.06.17s-.07,0-.1,0a1.46,1.46,0,0,1,0-1.07c.06-.11.21-.26.31-.23S968.81,1447.37,968.72,1447.53Z"/><path class="cls-7" d="M976.42,1446.1a.92.92,0,0,0-.15.43,1.11,1.11,0,0,0,0,.19c0,.07,0,.15-.06.17s-.08,0-.11-.05a1.49,1.49,0,0,1,0-1.06c.05-.12.21-.26.3-.24S976.51,1445.94,976.42,1446.1Z"/><path class="cls-7" d="M974.63,1448.18c-.16.16-.28.41-.45.57s-.36.19-.49.4a.3.3,0,0,1-.07.11.11.11,0,0,1-.18,0,.71.71,0,0,1-.07-.27.21.21,0,0,1,0-.11.15.15,0,0,1,.06-.09,2,2,0,0,1,.62-.46,1.69,1.69,0,0,0,.39-.22c.11-.1.19-.25.31-.32s.43,0,.4.18-.18.07-.24.09A.62.62,0,0,0,974.63,1448.18Z"/><path class="cls-6" d="M992.88,853.39a1,1,0,0,1-.11.66,2.33,2.33,0,0,1-1.46.82c-.63.15-1.33.25-1.66-.08s-.22-.5-.43-.67c-.5-.42-1.86,0-2-.58s.67-1.13,1.07-1.72a10.67,10.67,0,0,0,.64-1.58c.26-.52.93-1.12,1.46-1a2.35,2.35,0,0,1,.37.14c.75.26,1.86-.47,2.82-.68a.71.71,0,0,1,.48,0,.31.31,0,0,1,.13.2c.2.86-1.21,1.11-1.49,1.84C992.28,851.73,992.79,852.54,992.88,853.39Z"/><path class="cls-6" d="M987.75,849c-.13.64-1,.6-1.54.73a3.5,3.5,0,0,0-1.25.69,1.89,1.89,0,0,1-.82.65c-.51.19-1.15.13-1.17-.28a2.65,2.65,0,0,1,.14-.59c.06-.27,0-.51.14-.79.36-.61,1.31-.89,1.83-1.41s.8-1.05,1.47-1.24.48.53,1.05.47c.24,0,.41-.09.49.09a.84.84,0,0,1,0,.52C988,848.18,987.83,848.58,987.75,849Z"/><polygon class="cls-6" points="983.09 846.49 983.09 846.49 983.09 846.49 983.09 846.49 983.09 846.49"/><path class="cls-7" d="M986.11,848.78l-.2.11-.41.28-.08,0h-.1l-.2,0,0,0s0,0,0-.06a1.56,1.56,0,0,1,.78-1l.12-.06h.12c.13,0,.27,0,.39-.05s.29.17.19.38S986.35,848.66,986.11,848.78Z"/><path class="cls-8" d="M986.07,848.65a.8.8,0,0,0-.44.15l-.14.13a.19.19,0,0,1-.17.05s0-.06,0-.1a1.46,1.46,0,0,1,.85-.65c.12,0,.33,0,.37.1S986.25,848.63,986.07,848.65Z"/><path class="cls-7" d="M991.93,853.86a.88.88,0,0,0-.44.14l-.14.13c-.05,0-.12.08-.17.06s0-.07,0-.11a1.49,1.49,0,0,1,.85-.65c.13,0,.34,0,.38.1S992.1,853.83,991.93,853.86Z"/><path class="cls-7" d="M989.19,853.72c-.23,0-.51,0-.73,0a1.8,1.8,0,0,0-.62-.13.57.57,0,0,1-.13,0c-.08,0-.1-.09-.08-.17a.69.69,0,0,1,.17-.22.16.16,0,0,1,.09-.07.21.21,0,0,1,.11,0,2.19,2.19,0,0,1,.74.21,1.6,1.6,0,0,0,.42.17,2.12,2.12,0,0,1,.44,0c.09,0,.3.31.09.43s-.16-.1-.21-.14A.64.64,0,0,0,989.19,853.72Z"/></svg>