<svg xmlns="http://www.w3.org/2000/svg" xmlns:xlink="http://www.w3.org/1999/xlink" viewBox="0 0 1028.53 707.4"><defs><style>.cls-1{fill:#353535;stroke-width:0.83px;}.cls-1,.cls-13,.cls-28,.cls-30,.cls-38,.cls-8{stroke:#000;}.cls-1,.cls-28,.cls-30,.cls-58{stroke-linejoin:round;}.cls-2,.cls-22,.cls-23{fill:#4d4d4d;}.cls-3{fill:#b3b3b3;}.cls-4{fill:#f9f7f7;opacity:0.41;}.cls-5{fill:#d3161d;}.cls-6{fill:#c6c6c6;}.cls-7{fill:#d8d8d8;}.cls-8{fill:#f4d487;}.cls-13,.cls-19,.cls-20,.cls-21,.cls-22,.cls-23,.cls-27,.cls-29,.cls-31,.cls-33,.cls-34,.cls-38,.cls-42,.cls-52,.cls-53,.cls-54,.cls-55,.cls-56,.cls-57,.cls-8{stroke-miterlimit:10;}.cls-13,.cls-8{stroke-width:0.47px;}.cls-9{fill:#efc86f;}.cls-10{fill:#f4dcb3;}.cls-11{fill:#af2323;}.cls-12{fill:#ff1e00;}.cls-13{fill:#fff;}.cls-14{fill:#ff3600;}.cls-15{fill:#ff4800;}.cls-16{fill:#f47245;}.cls-17{fill:#449193;}.cls-18{fill:#ce3a00;}.cls-19{fill:#77401b;}.cls-19,.cls-31,.cls-33,.cls-42,.cls-57{stroke:#070707;}.cls-19,.cls-20,.cls-27,.cls-42{stroke-width:1.14px;}.cls-20,.cls-24{fill:#f8c946;}.cls-20{stroke:#020202;}.cls-21,.cls-39{fill:#282828;}.cls-21,.cls-22,.cls-23{stroke:#151616;}.cls-21,.cls-22{stroke-width:0.93px;}.cls-23{stroke-width:3.42px;}.cls-25{fill:#683919;}.cls-26,.cls-33{fill:#945320;}.cls-27{fill:#adadad;stroke:#080000;}.cls-28{fill:#515051;stroke-width:1.14px;}.cls-29,.cls-32{fill:#161616;}.cls-29,.cls-34,.cls-52,.cls-53,.cls-54,.cls-55,.cls-56{stroke:#0a0a0a;}.cls-29,.cls-30,.cls-31,.cls-33,.cls-34,.cls-38{stroke-width:0.99px;}.cls-30{fill:#8e8a8b;}.cls-31{fill:#e2b647;}.cls-34,.cls-38,.cls-42,.cls-53,.cls-57,.cls-58{fill:none;}.cls-35{fill:#dddbd7;}.cls-36{fill:#232323;}.cls-37{fill:#3a3a3a;}.cls-40{fill:#7c7c7c;}.cls-41{fill:#666;}.cls-43{fill:#7f1119;}.cls-44{fill:#5e0e18;}.cls-45{fill:#352f49;}.cls-46{fill:#e41e00;}.cls-47{fill:#fffe28;}.cls-48{fill:#18ff08;}.cls-49{fill:#dbdddd;}.cls-50{fill:#0fb0db;}.cls-51{fill:#303435;}.cls-52,.cls-53,.cls-54,.cls-55,.cls-56{stroke-width:0.45px;}.cls-52{fill:url(#radial-gradient);}.cls-54{fill:url(#radial-gradient-2);}.cls-55{fill:url(#radial-gradient-3);}.cls-56{fill:url(#radial-gradient-4);}.cls-57{stroke-width:0.57px;}.cls-58{stroke:#389cce;stroke-linecap:round;stroke-width:13px;}</style><radialGradient id="radial-gradient" cx="-3726.11" cy="476.32" r="6.93" gradientTransform="translate(4337.67 -160.36)" gradientUnits="userSpaceOnUse"><stop offset="0.2" stop-color="#666"/><stop offset="0.57" stop-color="#585858"/><stop offset="1" stop-color="#4d4d4d"/></radialGradient><radialGradient id="radial-gradient-2" cx="-3754.18" cy="544.92" r="6.93" gradientTransform="translate(4369.14 -154.92)" xlink:href="#radial-gradient"/><radialGradient id="radial-gradient-3" cx="-3725.32" cy="543.21" r="6.93" gradientTransform="translate(4365.74 -166.9)" xlink:href="#radial-gradient"/><radialGradient id="radial-gradient-4" cx="-3751.25" cy="477.49" r="6.93" gradientTransform="translate(4340.5 -149.9)" xlink:href="#radial-gradient"/></defs><title>rocke_robot</title><g id="Layer_4" data-name="Layer 4"><path class="cls-1" d="M799.58,362.91a71.86,71.86,0,0,0-10.07-6.74c-14.77-8.24-59.76-32.89-90.07-44.55-17.86-6.87-29.61-12-38.8-15.49a74.73,74.73,0,0,0-33.32-4.48c-7.54.71-16.13,1.6-26.3,5.88-13.27,5.58-23.62,15.75-32.49,27.1-22.09,28.27-35.26,42.06-38.74,48.49-1.65,8.14-1.17,50.81,15.63,70.94,12.12,14.53,31.09,31.92,54.71,37.2S729.69,519,747.84,504.14c21.18-17.31,68.76-68.84,73.08-93.69C824.8,388.14,814.31,374.76,799.58,362.91Z"/><path class="cls-2" d="M579.67,535.83c-11,0-16.39-.68-18.95-1.25-23-5.14-41.25-22.35-52.54-35.88-9.91-11.89-12.23-31-6.89-56.76l.21-1c.12-.58.25-1.27.4-2.06,1.62-8.54,5.43-28.53,19.31-49.32a69.21,69.21,0,0,1,30.73-25.65c9.91-4.17,18.35-5,25.14-5.59,2.19-.2,4.41-.31,6.6-.31a70.35,70.35,0,0,1,25,4.55c4.08,1.55,8.75,3.45,14.17,5.66,6.56,2.68,14.73,6,24.6,9.82,30.34,11.67,76.23,36.87,89.57,44.31a68.66,68.66,0,0,1,9.52,6.38c14.5,11.65,23.43,23.56,19.92,43.77-3.69,21.2-27.55,33.51-46.72,43.41l-4.44,2.3c-16,8.36-94.48,17.66-135.59,17.66Z"/><path d="M583.68,361.92a66.42,66.42,0,0,1,23.56,4.3c4,1.52,8.69,3.42,14.07,5.62,6.59,2.69,14.78,6,24.68,9.84,30.1,11.58,75.78,36.67,89.06,44.08a64.84,64.84,0,0,1,9,6c13.41,10.78,21.69,21.72,18.51,40-3.35,19.26-25.29,30.58-44.64,40.57l-4.46,2.31c-14.17,7.4-90.43,17.21-133.76,17.21-11.22,0-16.15-.72-18.09-1.16C549.5,528,531,519.83,511.21,496.17c-5.69-6.82-8.66-16.5-8.83-28.77a113.5,113.5,0,0,1,2.77-24.66l.22-1.05c.12-.6.26-1.3.41-2.11,1.58-8.3,5.28-27.74,18.71-47.87a65.4,65.4,0,0,1,29-24.2c9.35-3.93,17.46-4.69,24-5.3,2.06-.19,4.16-.29,6.23-.29m0-7.9c-2.32,0-4.65.11-7,.33-7.54.7-16.13,1.6-26.3,5.88a73.57,73.57,0,0,0-32.49,27.09c-15.6,23.38-18.89,45.89-20.29,52.79-1.65,8.15-9.28,41,7.52,61.12,12.12,14.52,31.09,31.92,54.71,37.2,4.16.93,11.1,1.35,19.81,1.35,40.72,0,120.3-9.17,137.42-18.11,20.77-10.85,48.9-23.68,53.22-48.53,3.88-22.31-6.61-35.69-21.34-47.53a71.93,71.93,0,0,0-10.07-6.75c-14.76-8.24-59.76-32.88-90.07-44.55-17.86-6.87-29.61-12-38.8-15.48A74.53,74.53,0,0,0,583.68,354Z"/><ellipse class="cls-3" cx="562.64" cy="467.61" rx="42.03" ry="52.6" transform="translate(-167.15 518.86) rotate(-43.75)"/><ellipse class="cls-3" cx="653.08" cy="484.62" rx="30.11" ry="37.69" transform="translate(-153.81 586.12) rotate(-43.75)"/><ellipse class="cls-3" cx="716.93" cy="464.56" rx="23.7" ry="29.65" transform="translate(-122.21 624.7) rotate(-43.75)"/><path class="cls-4" d="M699.44,311.62l-27.09-1.46L703,342.92s-67.37-21.56-65.2-20.05,33.58,20.37,33.58,20.37L639.09,342l33.16,20.69-33-.09,17.14,10.27-13.79-1,75.23,19.93-29.36-17.5L730,380.27l-33.27-22.56,36,6.38-29.27-31.34,21.43,6.76-35-20.93,33.14,11Z"/><polygon class="cls-4" points="572.36 319.94 602.46 310.7 577.25 325.05 603.32 320.5 562.86 337.87 573.86 338.07 546.76 351.57 572.36 319.94"/><ellipse class="cls-5" cx="560.7" cy="469.47" rx="14.29" ry="19.65" transform="translate(-168.97 518.04) rotate(-43.75)"/><ellipse class="cls-5" cx="653.15" cy="486.63" rx="12.34" ry="16.97" transform="translate(-155.45 388.79) rotate(-29.79)"/><ellipse class="cls-5" cx="718.32" cy="466.02" rx="9.14" ry="12.57" transform="translate(-136.6 418.44) rotate(-29.79)"/><path class="cls-6" d="M300.47,486.52c-.54-7.33-1.21-11.33-4.3-17.53a29.53,29.53,0,0,0-4.44-15.22c-4.57-7.09-11.5-13.6-20-15.4-1.53-.32-3-.59-4.42-.8a37.29,37.29,0,0,0-4.52-14.5c-4.07-6.95-12-13.58-20-15.4-8.58-1.95-18.2-1.53-25.82,3.38A36.65,36.65,0,0,0,203,427.58a58,58,0,0,0-12.48-1.95,28.39,28.39,0,0,0-10-4.52c-18.54-4.22-35.21,5.6-41.21,23.4a47.08,47.08,0,0,0-1.6,22.77c-11.69,9.76-18.46,25.55-18.49,41.18a28.3,28.3,0,0,0-.19,4.71,36.49,36.49,0,0,0,5.68,18.06,34.45,34.45,0,0,0,15.52,18.21,29.07,29.07,0,0,0-3.17,14.44c.81,18.15,14.72,33.5,33.5,33.5,17.13,0,33.55-14.73,33.52-32.3a33.18,33.18,0,0,0,16.06,4.12h7.89A25.13,25.13,0,0,0,241,566.32a30.16,30.16,0,0,0,17.71-17.71,25.13,25.13,0,0,0,2.88-12.91c-.4-3-.79-5.93-1.19-8.9a33.88,33.88,0,0,0-3.63-8.4A28.28,28.28,0,0,0,267,520c8.67-.39,17.65-3.23,23.69-9.81C296.42,503.94,301.12,495.33,300.47,486.52Z"/><path class="cls-6" d="M121.38,448.13a39.37,39.37,0,0,0-7-13.1c-.13-.77-.28-1.53-.45-2.3-1.67-7.31-5.79-15.14-11.42-20.2C94.15,405,85.38,402.09,74.24,401l-8.9,1.2a25.13,25.13,0,0,0-11.39,6c-5.52,4.27-10.44,10.4-12,17.4a133.33,133.33,0,0,1-3.62,13.56c-.25.47-.5.93-.76,1.39l-2.67,1.68C23.3,446.36,11.53,451.35,5,462.12-2.1,473.92-1.24,488,5,499.05A27.37,27.37,0,0,0,4.29,503,30.47,30.47,0,0,0,4,507.34c0,8.22,3.65,18,9.81,23.69a43.67,43.67,0,0,0,3.47,2.87,32.21,32.21,0,0,0,32,4.9,27.89,27.89,0,0,0,8.29,3.54c8.58,1.95,18.21,1.53,25.82-3.38s12.16-11.45,15.39-20a137,137,0,0,0,6.83-25,58.33,58.33,0,0,0,.9-8.56C118.54,477.58,126.07,462.59,121.38,448.13Z"/><path class="cls-7" d="M293.57,509c-2.52-7.8-7.6-16.49-15.39-20a64.45,64.45,0,0,0-13.33-4.71l.13-1a33.3,33.3,0,0,0-4.57-16.91l-6.05-8.74a25.32,25.32,0,0,0-8.63-9.39,30.07,30.07,0,0,0-24.75-6.6,24.92,24.92,0,0,0-12.46,4c-7.15,4.61-13.45,11.47-15.39,20l-1.2,8.9a35.91,35.91,0,0,0,.26,4,16.77,16.77,0,0,0-8.64-2.33c-4.53.21-9.22,1.69-12.37,5.13a18.14,18.14,0,0,0-5.13,12.37v7a18,18,0,0,0,2.82,9.45,24,24,0,0,0-7,17.55,28,28,0,0,0,7.45,17.94,15.24,15.24,0,0,0-1.57,7.32c.43,9.48,7.69,17.5,17.5,17.5a18.24,18.24,0,0,0,16.46-11.37c.32,0,.64.05,1,.05a18.29,18.29,0,0,0,16.19-10.68,36.7,36.7,0,0,0,6.46.76c9,.25,18.16.19,27.21.66a31.57,31.57,0,0,0,17.61.29c7.77-2.14,16.19-8.15,20-15.4C294.3,527.07,296.36,517.65,293.57,509Z"/><path class="cls-7" d="M109,453.24c-.85-.45-1.71-.85-2.58-1.21q-.12-.67-.3-1.35L105,442.87a13.63,13.63,0,0,0-3.23-6.12,13.59,13.59,0,0,0-5-4.64c-3.85-2.26-9.54-3.21-13.87-1.81s-8.55,4.11-10.75,8.27l-1.82,4.3a18.07,18.07,0,0,0,0,9.57l.55,4a18.34,18.34,0,0,0-10.93,10.53l-1.23-.17a19.87,19.87,0,0,0-10.09,2.73,26.52,26.52,0,0,0-2.48,1.84,15.59,15.59,0,0,0-2.53,1.31A15.11,15.11,0,0,0,38,477.79a15,15,0,0,0-3.58,6.8l-.72,5.32A19.87,19.87,0,0,0,36.4,500l3.13,4.05a20,20,0,0,0,8.82,5.14,46.47,46.47,0,0,0,5.17.72,24.1,24.1,0,0,0,12,16.6c12.32,6.52,28.4,3.31,35.57-9.32q8.17-14.43,17.16-28.38C125.67,477.35,121,459.6,109,453.24Z"/></g><g id="Layer_1" data-name="Layer 1"><path class="cls-8" d="M889.54,681.41a25.88,25.88,0,0,1-2.25,1.9c-5.78,4.39-23.33,15.38-59.84,20.7-39,5.68-99.68,4.89-190.78-17.31-52.85-12.88-115.94-33-191-63.17-.42-.17-.84-.36-1.28-.53l-.16-.07A59.84,59.84,0,0,1,417,598.5c-.71-1.19-1.38-2.39-2-3.6a59,59,0,0,1-6.43-34.22c1.67-13.23,8.35-24.87,19.51-31.55a38.55,38.55,0,0,1,4.38-2.25l0,0c2-1,68.58-34.76,156.54-59.24q4.17-1.15,8.4-2.29c11.39-3.05,23.11-5.92,35.06-8.53,18.69-4.09,38-7.53,57.47-10,2.64-.34,5.28-.65,7.91-.95,32.64-3.7,66-3,98.1.45,2.79.31,5.58.64,8.35,1l2.65,7.31.48,1.33,58,158.85Z"/><path class="cls-9" d="M807,454.63c-28.3,13.64-66,30-96.43,43.8-149.39-3.76-302,62.25-302,62.25,1.67-13.23,8.35-24.87,19.51-31.55a38.55,38.55,0,0,1,4.38-2.25l0,0c2-1,68.58-34.76,156.54-59.24q4.17-1.15,8.4-2.29c11.39-3.05,23.11-5.92,35.06-8.53,18.69-4.09,38-7.53,57.47-10,2.64-.34,5.28-.65,7.91-.95,32.64-3.7,66-3,98.1.45,2.79.31,5.58.64,8.35,1Z"/><path class="cls-10" d="M887.29,683.31c-5.78,4.39-23.33,15.38-59.84,20.7-39,5.68-99.68,4.89-190.78-17.31-52.85-12.88-115.94-33-191-63.17-.42-.17-.84-.36-1.28-.53l-.16-.07A59.84,59.84,0,0,1,417,598.5c-.71-1.19-1.38-2.39-2-3.6C464.65,611,696.41,683,813.63,666.33,878,657.21,890.9,668.93,887.29,683.31Z"/><path class="cls-11" d="M1028.53,571.55C1003.9,606,978.91,631,956.17,649.05a297.78,297.78,0,0,1-27.26,19.31c-28,17.5-49.58,24.08-57.92,26.55-1.06.32-1.9.56-2.52.76a94.44,94.44,0,0,1-15.62,5.27,100.6,100.6,0,0,1-10.43,1.92A101.84,101.84,0,0,1,818,703l-.57-.07h0c-1.17-.13-2.31-.28-3.49-.46-39.18-5.9-77.59-33.33-99.79-75.92-31.08-59.65-19.61-128.29,24.54-161.21A94.84,94.84,0,0,1,790,446.7q3.53-.22,7.07-.19a107.59,107.59,0,0,1,14.3,1.11,113.14,113.14,0,0,1,13.9,2.94l0-.3c9,1.73,17.78,3.77,26.21,6.06a348,348,0,0,1,102.93,47C1004.05,536.63,1028.53,571.55,1028.53,571.55Z"/><path class="cls-12" d="M1028.53,571.55C1003.9,606,978.91,631,956.17,649.05a297.78,297.78,0,0,1-27.26,19.31c-28,17.5-49.58,24.08-57.92,26.55-1.06.32-1.9.56-2.52.76a94.44,94.44,0,0,1-15.62,5.27,103.41,103.41,0,0,1-17.84-.48l-.56-.07h0c-1.18-.13-2.32-.28-3.5-.46C791.76,694,753.35,666.61,731.16,624c-31.08-59.65-19.62-128.29,24.53-161.2A94.17,94.17,0,0,1,790,446.7q3.53-.22,7.07-.19a107.59,107.59,0,0,1,14.3,1.11,113.14,113.14,0,0,1,13.9,2.94l0-.3c9,1.73,17.78,3.77,26.21,6.06a348,348,0,0,1,102.93,47C1004.05,536.63,1028.53,571.55,1028.53,571.55Z"/><path class="cls-13" d="M432.47,526.86l0,0h0Z"/><path class="cls-14" d="M969.12,542.18c9.25,38.82,3.58,77.12-13,106.87a297.78,297.78,0,0,1-27.26,19.31c-28,17.5-49.58,24.08-57.92,26.55-1.06.32-1.9.56-2.52.76a95.13,95.13,0,0,1-26.05,7.19c-45.71-10.32-85.86-51.18-99.13-106.84-14.83-62.2,8.65-123,53.76-149.51a107.59,107.59,0,0,1,14.3,1.11,113.14,113.14,0,0,1,13.9,2.94l0-.3c9,1.73,17.78,3.77,26.21,6.06a348,348,0,0,1,102.93,47A160.36,160.36,0,0,1,969.12,542.18Z"/><path class="cls-15" d="M1028.53,571.55C1003.9,606,978.91,631,956.17,649.05a297.78,297.78,0,0,1-27.26,19.31c-28,17.5-49.58,24.08-57.92,26.55-31.2-18.44-56.3-51.87-66.26-93.63-14-58.87,6.24-116.52,46.69-145a348,348,0,0,1,102.93,47C1004.05,536.63,1028.53,571.55,1028.53,571.55Z"/><path class="cls-16" d="M1028.53,571.55C1003.9,606,978.91,631,956.17,649.05a297.78,297.78,0,0,1-27.26,19.31c-19.57-19-34.64-44.76-41.83-74.9-10.36-43.47-2-86.27,19.34-117.13a347.75,347.75,0,0,1,47.93,26.95C1004.05,536.63,1028.53,571.55,1028.53,571.55Z"/><polygon class="cls-11" points="641.28 687.81 549.85 707.4 532.86 656.04 641.28 687.81"/><path class="cls-17" d="M693.22,452.62c3.06,12.82-16.37,28.44-43.4,34.88S598.4,488.77,595.35,476c-.82-3.41,0-7,2.06-10.62,11.39-3.05,23.11-5.92,35.06-8.53,18.69-4.09,38-7.53,57.47-10A12.43,12.43,0,0,1,693.22,452.62Z"/><path class="cls-18" d="M697.85,445.85c-2.63.3-5.27.61-7.91.95-19.5,2.47-38.78,5.91-57.47,10-12,2.61-23.67,5.48-35.06,8.53q-4.23,1.14-8.4,2.29a19.65,19.65,0,0,0-.4,10.27c4.08,17.12,31.13,24.31,62.91,16.73s52.67-26.2,48.59-43.32A18.83,18.83,0,0,0,697.85,445.85Zm-48,42c-27,6.45-51.42,1.27-54.48-11.55-.81-3.41,0-7,2.06-10.62q10.37-2.77,21.06-5.33,6.94-1.67,14-3.2c18.69-4.08,38-7.53,57.48-10a12.6,12.6,0,0,1,3.28,5.82C696.35,465.75,676.93,481.37,649.9,487.81Z"/></g><g id="Layer_3" data-name="Layer 3"><path class="cls-19" d="M725.53,241,604,247.1c-20.7.4-35.15,4.28-36.1,24.22h0c1.2,19.5,11.46,21.41,30.61,24.05l128.68,19.9a36.39,36.39,0,0,0,38-34.51h0C766.15,260.82,745.47,242,725.53,241Z"/><path class="cls-20" d="M716.26,241.36l-126.65,4.33c-20.71.4-24.64,45.63-5.49,48.26L712.8,313.86a36.4,36.4,0,0,0,38-34.52h0A36.4,36.4,0,0,0,716.26,241.36Z"/><path class="cls-21" d="M753.07,264s-.44-6.14-9.46-13.16c12-10.1,44.32-30.14,49.84-27.77,3.75,1.62,8.3,7.38,12.41,13,3.68,5,2.06,12.05-3.79,14.16-17.5,6.31-44.76,15.24-44.76,15.24Z"/><path class="cls-22" d="M743.39,250.7c12-10.1,41-33.14,46.47-30.77,3.75,1.61,8.87,7,13.1,12.06a8.94,8.94,0,0,1-3.8,14.16c-17.49,6.3-44.9,18.72-46.4,18.25A18.69,18.69,0,0,0,743.39,250.7Z"/><path class="cls-21" d="M755.05,288.37s3.36-5.15.43-16.2c15.66-.78,53.52,2.8,56.48,8,2,3.56,2.15,10.9,2,17.83-.1,6.22-5.64,10.85-11.58,9-17.75-5.56-44.86-14.93-44.86-14.93Z"/><path class="cls-22" d="M755.4,271.9c15.67-.79,52.66-1.63,55.62,3.6,2,3.56,2.83,10.95,3.14,17.53a8.94,8.94,0,0,1-11.58,9c-17.75-5.56-47.09-12.25-48-13.53A18.72,18.72,0,0,0,755.4,271.9Z"/><path class="cls-21" d="M737.59,308.84s5.93-1.63,11.06-11.84c12.25,9.79,33.31,25.58,32.06,31.46-.85,4-.84,4.55-5.52,9.67-4.2,4.59-10.76,3.93-14.63-.95A155.53,155.53,0,0,0,737,313.29Z"/><path class="cls-22" d="M748.77,296.74c12.25,9.79,35.6,21.7,34.35,27.57-.85,4-.37,5.05-4.5,10.17-3.9,4.85-10.68,3.87-14.62-.94-11.75-14.35-27-23.36-26.83-24.93A18.7,18.7,0,0,0,748.77,296.74Z"/><path class="cls-21" d="M729.88,241.21l9.36,7.07s3.89-.3,4.73-.44c4.74-.79,25-33.05,18.39-37s-16.48-7.21-18.67-5.63c-.27.2-3.65,1.48-3.65,1.48S727.83,241.7,729.88,241.21Z"/><path class="cls-22" d="M725.15,241.65a25,25,0,0,1,7.79,2.29,42.79,42.79,0,0,1,6.3,4.34c3.87,2.85,25-33.06,18.39-37s-16.18-5.83-18.37-4.24S722.8,242.21,725.15,241.65Z"/><ellipse class="cls-23" cx="713.69" cy="276.64" rx="14.21" ry="12.82" transform="translate(61.87 677.91) rotate(-52.8)"/><path class="cls-24" d="M626.2,231.18s-111.18,2.2-155,15.43c0,0-111.17,48.74-201.33,101.76C285,351,399.22,342.56,414,338.45S593,254.44,626.2,231.18Z"/><path class="cls-25" d="M438.29,313.64s-47.19-3.06-51.51-2.41,68.06-38.85,68.06-38.85,45.52,2.32,49,3.37S438.29,313.64,438.29,313.64Z"/><path class="cls-26" d="M268.63,348.73s69.08,158.55,100.25,191.76c16.42,4,114-.12,139.42-12.94-6.06-19.11-82.12-179.41-95.61-188.74C399.52,336.19,312.88,340.2,268.63,348.73Z"/><path class="cls-5" d="M626.2,231.18s42.62,77.34,68.91,136.61c10.13,22.84-.4,55.29-3.59,57.95-4.38,11.58-189,110-203.88,108.15,0,0,12.52-26.86-3.19-57.47-19.63-38.24-48.2-91.21-71.76-137.61C417.82,331.72,590.15,243,626.2,231.18Z"/><path class="cls-1" d="M532.36,624a71.86,71.86,0,0,0-3.84-11.5c-6.65-15.54-27.19-62.56-44-90.32-9.93-16.35-16.09-27.61-21.23-36a74.74,74.74,0,0,0-23.63-23.91c-6.4-4.06-13.74-8.6-24.41-11.43-13.91-3.7-28.32-2-42.27,1.58-34.78,8.87-53.63,11.73-60.3,14.69-6.29,5.43-32,39.49-31,65.69.71,18.91,5.09,44.27,20.55,62.89s79.47,109.06,102.9,108.41c27.35-.76,96.5-12.45,115.12-29.47C536.9,659.37,536.78,642.37,532.36,624Z"/><path class="cls-2" d="M408.63,700.24c-10.93,0-22.65-2.15-33-4l-4.93-.9c-9.86-1.76-36.87-15.67-68.8-35.45-31.16-19.31-56.68-37.81-63.52-46-15-18.11-19-42.91-19.64-60.51-.58-15.47,9.26-32,29.24-49.14l.81-.69,1.57-1.38c6.5-5.76,21.74-19.26,45.43-27.23a71.07,71.07,0,0,1,22.7-3.75,67.37,67.37,0,0,1,17.31,2.24c10.39,2.76,17.55,7.3,23.31,10.95A71.18,71.18,0,0,1,381.5,507c2.28,3.71,4.81,8.08,7.75,13.14,3.55,6.13,8,13.77,13.47,22.81,16.87,27.79,37.78,75.77,43.79,89.82a69,69,0,0,1,3.63,10.87c4.35,18.08,4.14,33-11,46.82C431.91,697,421.93,700.24,408.63,700.24Z"/><path d="M318.5,475.06a63.54,63.54,0,0,1,16.3,2.11c9.8,2.6,16.67,7,22.2,10.46A67.12,67.12,0,0,1,378.13,509c2.26,3.67,4.78,8,7.7,13.05,3.57,6.15,8,13.81,13.51,22.88,16.74,27.56,37.55,75.34,43.54,89.32a64.77,64.77,0,0,1,3.42,10.24c4,16.73,3.89,30.44-9.82,43-6.48,5.92-15.59,8.8-27.85,8.8-10.57,0-22.11-2.11-32.28-4-1.68-.31-3.33-.61-4.94-.89-9.27-1.66-36.36-15.69-67.42-34.93-30.35-18.8-56.07-37.39-62.56-45.2-7.91-9.53-17.58-27.35-18.74-58.14-.33-8.88,3.24-18.36,10.6-28.17a113.73,113.73,0,0,1,17.27-17.82l.82-.7L253,505c6.32-5.6,21.14-18.73,44.07-26.44a67.25,67.25,0,0,1,21.44-3.54m0-7.9a75.39,75.39,0,0,0-23.95,3.95c-26.65,9-43,24.77-48.34,29.37-6.28,5.44-32.39,26.76-31.41,53,.71,18.91,5.09,44.27,20.55,62.89S347,695.08,370,699.19c11.85,2.11,25.56,5,38.61,5,12.35,0,24.12-2.59,33.18-10.87C458.52,678,458.4,661,454,642.66a71.75,71.75,0,0,0-3.84-11.49c-6.65-15.55-27.19-62.56-44.05-90.32-9.93-16.36-16.08-27.61-21.23-36A74.67,74.67,0,0,0,361.23,481c-6.4-4.06-13.74-8.59-24.41-11.43a71.51,71.51,0,0,0-18.32-2.37Z"/><ellipse class="cls-3" cx="280.86" cy="561.99" rx="42.03" ry="52.6" transform="translate(-57.76 32.79) rotate(-6.06)"/><ellipse class="cls-3" cx="342.02" cy="630.74" rx="30.11" ry="37.69" transform="translate(-64.67 39.63) rotate(-6.06)"/><ellipse class="cls-3" cx="404.81" cy="653.89" rx="23.7" ry="29.65" transform="translate(-66.77 46.39) rotate(-6.06)"/><path class="cls-4" d="M484.47,522.17l-20.54-17.71,4.21,44.65S428,490.86,428.8,493.38,442.92,530,442.92,530l-24.78-20.72L431.73,546l-26-20.22,7.28,18.6-10.32-9.19L450,596.93l-12.54-31.81,29.18,30L454.12,557l24.63,27.1-4-42.7,12.83,18.45-14.9-37.95,19.52,28.94Z"/><polygon class="cls-4" points="378.82 451.07 408.29 462.16 379.56 458.1 402.97 470.44 360.34 459.45 368.93 466.34 339.22 460.45 378.82 451.07"/><ellipse class="cls-5" cx="278.18" cy="562.27" rx="14.29" ry="19.65" transform="translate(-57.8 32.51) rotate(-6.06)"/><ellipse class="cls-5" cx="340.85" cy="632.37" rx="16.97" ry="12.34" transform="translate(-332.36 883.08) rotate(-82.1)"/><ellipse class="cls-5" cx="405.03" cy="655.9" rx="12.57" ry="9.14" transform="translate(-300.32 966.95) rotate(-82.1)"/><path class="cls-27" d="M417.06,612.56s-7.88-12.81-27.7-4.26C384.86,600,375,577.16,339,583.17c1-8.22,12.13-44.38-18-76.17,10.2-5.71,16.49-9.47,31.5,5.92S418.16,608.32,417.06,612.56Z"/><path class="cls-28" d="M394.36,236.2l28.24,58.67,51.64-24.21c8.6-4.14,9.25-20.63,1.45-36.83S454.6,207.85,446,212c-2.89,1.39-4.88,4.18-6,7.89Z"/><path class="cls-29" d="M617.09,116.91s-12.89,22.74-44.49,43.21c-14,9.09-34.41,16.82-54.47,23.48-65.19,21.65-107.9,2.86-107.9,2.86s-16.28-44.23-22.31-58.8,0-51.48,0-51.48Z"/><path class="cls-29" d="M226.42,307.42s21.78,15.28,60.2-5.34,88.21-63.34,88.21-63.34l12.84-64.92Z"/><path class="cls-5" d="M385.51,88.39l-20,9.63,32.07,65.43L417.12,154S393.19,112.06,385.51,88.39Z"/><polygon class="cls-30" points="417.12 154.04 412.68 177.68 398.73 184.39 397.58 163.45 417.12 154.04"/><polygon class="cls-31" points="432.39 146.69 378.87 172.45 427.67 265.12 477.85 239.51 432.39 146.69"/><path class="cls-32" d="M416.77,153.52l6.85,10.61a2.13,2.13,0,0,0,1.42,1l18.65,3.53a2.14,2.14,0,0,0,2.45-2.75l-1.05-3.36a2.12,2.12,0,0,0-1.34-1.38L419.3,150.35A2.15,2.15,0,0,0,416.77,153.52Z"/><polygon class="cls-33" points="374.83 238.74 390.15 257.57 427.67 265.12 378.87 172.45 374.83 238.74"/><path class="cls-29" d="M397.7,165.41s4.33,11.29,2.89,14.09-25,30-28.32,32.22-6.56-6.31-6.56-6.31Z"/><path class="cls-34" d="M397.7,165.41s5.2,13.65,2.24,15.06c-2.69,3.44-23.42,27.58-23.42,27.58"/><path class="cls-35" d="M234,304.07a7.83,7.83,0,0,1-6.33-3.27c-36.63-51.21-46.29-89.5-48.74-103.59a7.84,7.84,0,0,1,3-7.7c19-14.13,87.45-62.69,167.45-94.54a7.76,7.76,0,0,1,9.42,3c13.87,21.82,31.8,58.94,34.69,71.75C392,176,369.66,202.4,330.61,237.24c-39.35,35.11-75.5,60.58-94.36,66.48A7.63,7.63,0,0,1,234,304.07Z"/><path class="cls-36" d="M352.23,100.11a2.06,2.06,0,0,1,1.76,1c13.76,21.63,29.81,55.39,33.49,68.16-1.36,2.5-5.73,9.22-19,23.47-11.89,12.74-27.44,27.73-43.79,42.21-37.88,33.55-72.4,57.83-90.1,63.36a1.88,1.88,0,0,1-.57.09,2.07,2.07,0,0,1-1.69-.89c-12-16.74-40.61-60.11-47.77-101.24a2.19,2.19,0,0,1,.8-2.16c18.92-14,86.81-62.23,166.17-93.82a1.92,1.92,0,0,1,.74-.15m0-11.38a13.39,13.39,0,0,0-5,1c-80.16,31.91-148.12,80-168.74,95.25a13.57,13.57,0,0,0-5.24,13.26c7.62,43.72,37.84,89.31,49.72,105.92a13.5,13.5,0,0,0,11,5.65,13.3,13.3,0,0,0,4-.61c46.44-14.53,164.18-125.64,161.23-140-2.75-13.4-21.71-52.35-35.58-74.16a13.48,13.48,0,0,0-11.37-6.23Z"/><polygon class="cls-31" points="481.12 256.4 490.71 282.39 436.36 309.8 429.37 282.51 481.12 256.4"/><polygon class="cls-33" points="398.17 281.91 393.32 307.93 436.36 309.8 429.37 282.51 398.17 281.91"/><ellipse class="cls-37" cx="408.48" cy="265.53" rx="17.28" ry="32.56" transform="translate(-74.75 203.45) rotate(-25.7)"/><path class="cls-38" d="M416.67,152.25s6.76,12.55,8.37,12.85l18.65,3.53"/><path class="cls-35" d="M445,155.52c-11.61,0-15.23-1.26-16-1.62-8.14-9.92-26.7-47.57-35.19-71.47a7.48,7.48,0,0,1,3.27-9C449.62,42.76,501.72,20.14,551.92,6.25a7.39,7.39,0,0,1,2-.27,7.68,7.68,0,0,1,5.67,2.55c28.75,31.79,45.65,82,51.57,102.06a7.45,7.45,0,0,1-2.88,8.26C579,139.09,488.53,155.52,445,155.52Z"/><path class="cls-36" d="M553.9,12a1.71,1.71,0,0,1,1.24.58c12,13.27,23.24,31.46,33.39,54.06a372.35,372.35,0,0,1,16.88,45.68,1.51,1.51,0,0,1-.54,1.65c-12.76,8.81-40.16,18-75.17,25.22-30.63,6.31-63.88,10.39-84.7,10.39a67.39,67.39,0,0,1-12.48-.83c-7.74-10.61-24.5-44.09-33.09-68.28a1.5,1.5,0,0,1,.65-1.79C452.19,48.18,503.81,25.76,553.52,12a1.2,1.2,0,0,1,.38,0m0-12a13.25,13.25,0,0,0-3.57.49C525.58,7.33,468.52,24.78,394,68.31a13.47,13.47,0,0,0-5.88,16.12c8.65,24.35,27.68,63.27,36.55,73.68,2,2.31,9.4,3.38,20.29,3.38,41.84,0,134.9-15.78,166.66-37.72a13.46,13.46,0,0,0,5.22-14.87C611.1,89.31,593.77,37.43,564,4.52A13.61,13.61,0,0,0,553.9,0Z"/><path class="cls-39" d="M321.38,215.36c-16.21,0-31.71-10-39.52-25.45a46.35,46.35,0,0,1-3.42-33.77,39.24,39.24,0,0,1,20-24.59,38.12,38.12,0,0,1,17.28-4.09,39.86,39.86,0,0,1,5.76.42c14.26,2.07,26.87,11.43,33.73,25,9.81,19.44,5.06,43.06-11.05,55a38.08,38.08,0,0,1-22.77,7.49Z"/><path class="cls-40" d="M315.71,132.3h0a36,36,0,0,1,5.06.37c12.71,1.85,24,10.23,30.11,22.43a42.09,42.09,0,0,1,3.79,27.47A35.48,35.48,0,0,1,341.24,204a32.19,32.19,0,0,1-4.77,2.95,33.26,33.26,0,0,1-15.09,3.58c-14.4,0-28.21-8.95-35.19-22.8a41.52,41.52,0,0,1-3.1-30.25,34.4,34.4,0,0,1,17.52-21.6,33.24,33.24,0,0,1,15.1-3.58m0-9.68a43,43,0,0,0-19.45,4.61c-22.64,11.42-31,40.46-18.71,64.86,8.94,17.72,26.32,28.11,43.84,28.11a43,43,0,0,0,19.44-4.61,42,42,0,0,0,6.2-3.83c17.87-13.19,23.61-39,12.5-61-7.83-15.53-22.15-25.44-37.36-27.65a45,45,0,0,0-6.46-.47Z"/><path class="cls-39" d="M478.27,140c-16.2,0-31.71-10-39.51-25.45a46.37,46.37,0,0,1-3.42-33.78,39.22,39.22,0,0,1,20-24.58,38,38,0,0,1,17.26-4.09c16.2,0,31.71,10,39.51,25.46a46.3,46.3,0,0,1,3.42,33.77,39.21,39.21,0,0,1-20,24.58A37.94,37.94,0,0,1,478.28,140Z"/><path class="cls-40" d="M472.59,57c14.39,0,28.21,9,35.19,22.8,9.88,19.59,3.41,42.85-14.42,51.85a33.22,33.22,0,0,1-15.09,3.57c-14.39,0-28.2-8.94-35.19-22.79-9.88-19.6-3.41-42.86,14.43-51.85A33.06,33.06,0,0,1,472.59,57m0-9.68a43,43,0,0,0-19.44,4.61c-22.64,11.42-31,40.46-18.71,64.86,8.94,17.71,26.32,28.11,43.83,28.11a43,43,0,0,0,19.45-4.61c22.64-11.42,31-40.45,18.7-64.85-8.93-17.72-26.31-28.12-43.83-28.12Z"/><ellipse class="cls-41" cx="408.1" cy="267.7" rx="7.51" ry="16.25" transform="translate(-76.83 212.47) rotate(-26.77)"/><path class="cls-42" d="M479.78,244.11C504.31,236,626.2,231.18,626.2,231.18s68.63,126.71,68.91,136.61c3.13,10.17,8.89,22-1.42,54.1-5.13,7.09-3.92,14.4-144.39,85.83,0,0-48.67,24.53-58.32,25.75"/><path class="cls-42" d="M397.31,280.69s-124.68,63-128.68,68c0,0,49.72,109.1,54,114.89"/><path class="cls-19" d="M242,293.27l107.72,56.54c18.62,9.07,30.1,18.65,22.59,37.15h0c-9.28,17.19-19.4,14.62-37.88,9l-125.14-36a36.4,36.4,0,0,1-20-47.28h0C196.86,294.15,223.54,285.76,242,293.27Z"/><path class="cls-20" d="M250.31,297.45l113.11,57.14c18.63,9.06,3.2,51.76-15.29,46.1L223,364.7a36.39,36.39,0,0,1-20-47.28h0A36.4,36.4,0,0,1,250.31,297.45Z"/><path class="cls-21" d="M207.39,302.56s3-5.38,14.1-8c-6.64-14.2-27.55-46-33.56-46.13-4.08-.11-10.63,3.2-16.71,6.55-5.45,3-6.93,10.07-2.5,14.44,13.22,13.07,34.21,32.64,34.21,32.64Z"/><path class="cls-22" d="M221.77,294.53c-6.64-14.2-23.24-47.28-29.24-47.44-4.09-.12-11,2.63-17,5.44a8.93,8.93,0,0,0-2.5,14.44C186.29,280,206,302.82,207.51,303A18.73,18.73,0,0,1,221.77,294.53Z"/><path class="cls-21" d="M195.36,323.82s-.89-6.09,6.41-14.89C187.89,301.64,152,289,147.15,292.5c-3.33,2.38-6.53,9-9.35,15.32-2.52,5.69.57,12.21,6.74,13,18.44,2.41,47,5.29,47,5.29Z"/><path class="cls-22" d="M202,308.72c-13.88-7.29-47.1-23.6-52-20.1-3.32,2.39-7.16,8.75-10.21,14.59a8.94,8.94,0,0,0,6.74,13c18.44,2.41,47.87,8.66,49.24,7.88A18.72,18.72,0,0,1,202,308.72Z"/><path class="cls-21" d="M202.6,349.73s-4.69-4-5.06-15.4c-15.22,3.74-41,9.23-42.3,15.08-.91,4-1.15,4.49.94,11.1,1.88,5.93,8.12,8.09,13.67,5.29A155.35,155.35,0,0,1,201.26,354Z"/><path class="cls-22" d="M197.54,334.05c-15.23,3.74-41.41,4.73-42.75,10.59-.91,4-1.78,4.73-.2,11.12,1.51,6,8.08,8,13.68,5.29,16.68-8.09,34.31-9.86,34.81-11.35A18.72,18.72,0,0,1,197.54,334.05Z"/><path class="cls-21" d="M238,291.6l-11.46,2.48s-3.41-1.91-4.11-2.39c-4-2.71-8.77-40.48-1.13-41.34s18,.38,19.31,2.73c.16.3,2.69,2.88,2.69,2.88S239.67,292.91,238,291.6Z"/><path class="cls-22" d="M242.13,294a25.17,25.17,0,0,0-8-1.19,42.43,42.43,0,0,0-7.54,1.29c-4.71,1-8.77-40.49-1.12-41.34s17.12,1.51,18.45,3.87S244,295.48,242.13,294Z"/><ellipse class="cls-23" cx="237.82" cy="330.55" rx="12.82" ry="14.21" transform="translate(-65.21 58.54) rotate(-12.35)"/><path class="cls-43" d="M482.37,362l121.47-64.87A10.26,10.26,0,0,1,618,301.82L652.34,376a10.24,10.24,0,0,1-4.47,13.35l-121.6,64.95a10.25,10.25,0,0,1-14.14-4.74L477.89,375.3A10.26,10.26,0,0,1,482.37,362Z"/><path class="cls-44" d="M482.19,366.51l121.6-65.27a8,8,0,0,1,11,3.67l34.56,74.53a8,8,0,0,1-3.46,10.37l-121.5,65.44a8,8,0,0,1-11-3.66l-34.66-74.7A8,8,0,0,1,482.19,366.51Z"/><path class="cls-45" d="M579.14,361.53,504,401a5.15,5.15,0,0,1-6.9-2.23l-10-22a5.14,5.14,0,0,1,2.22-6.9l75.18-39.47a5.15,5.15,0,0,1,6.9,2.22l10,22A5.15,5.15,0,0,1,579.14,361.53Z"/><ellipse class="cls-46" cx="509.22" cy="379.03" rx="9.92" ry="12.4" transform="translate(-115.16 264.48) rotate(-26.27)"/><ellipse class="cls-47" cx="535.62" cy="364.88" rx="9.92" ry="12.4" transform="translate(-106.17 274.7) rotate(-26.27)"/><ellipse class="cls-48" cx="561.88" cy="351.81" rx="9.92" ry="12.4" transform="translate(-97.67 284.97) rotate(-26.27)"/><path class="cls-49" d="M573.32,388l-59.06,31.34a5.35,5.35,0,0,1-7.17-2.33h0a5.36,5.36,0,0,1,2.33-7.18l59.06-31.34a5.35,5.35,0,0,1,7.17,2.33h0A5.36,5.36,0,0,1,573.32,388Z"/><path class="cls-50" d="M554.05,434.6l-26.3,13.77a5.36,5.36,0,0,1-7.18-2.33h0a5.35,5.35,0,0,1,2.34-7.17l26.31-13.77a5.35,5.35,0,0,1,7.17,2.33h0A5.34,5.34,0,0,1,554.05,434.6Z"/><path class="cls-50" d="M547.76,421,521.45,434.8a5.35,5.35,0,0,1-7.17-2.34h0a5.35,5.35,0,0,1,2.33-7.17l26.31-13.77a5.34,5.34,0,0,1,7.17,2.34h0A5.35,5.35,0,0,1,547.76,421Z"/><polygon class="cls-51" points="577.66 324.28 613.35 304.86 648.46 380.57 612.19 399.75 577.66 324.28"/><ellipse class="cls-52" cx="611.31" cy="316.52" rx="4.43" ry="5.13" transform="translate(-76.43 286.5) rotate(-24.87)"/><path class="cls-53" d="M609.15,311.86s4.44,4.93,4.06,9.44"/><path class="cls-53" d="M607.29,318.38s5.71-1.19,8-3.73"/><ellipse class="cls-54" cx="614.7" cy="390.56" rx="4.43" ry="5.13" transform="translate(-107.26 294.8) rotate(-24.87)"/><path class="cls-53" d="M612.54,385.91s4.45,4.93,4.06,9.43"/><path class="cls-53" d="M610.68,392.43s5.71-1.19,8-3.73"/><ellipse class="cls-55" cx="640.16" cy="376.87" rx="4.43" ry="5.13" transform="translate(-99.14 304.24) rotate(-24.87)"/><path class="cls-53" d="M638,372.22s4.44,4.93,4.06,9.43"/><path class="cls-53" d="M636.14,378.74s5.72-1.19,8.05-3.73"/><ellipse class="cls-56" cx="589" cy="328.16" rx="4.43" ry="5.13" transform="translate(-83.39 278.2) rotate(-24.87)"/><path class="cls-53" d="M586.84,323.5s4.45,4.93,4.06,9.43"/><path class="cls-53" d="M585,330s5.72-1.19,8-3.73"/><path class="cls-57" d="M507.09,417s8.94-8.17,20.3-9.42,7.73-10.23,12.33-12.23,8.76,4.18,14.62.64,2.72-5,5.66-6.3,4.36,1.72,7,.07-.21-10.75,1.52-11.28"/><polygon class="cls-11" points="597.06 583.29 418.35 617.03 515.88 583.91 597.06 583.29"/><polygon class="cls-14" points="597.06 583.29 605.52 618.8 422.41 634.02 418.35 617.03 597.06 583.29"/><line class="cls-58" x1="303.32" y1="189.88" x2="307.59" y2="158.39"/><line class="cls-58" x1="461.27" y1="110.82" x2="465.54" y2="79.34"/><line class="cls-58" x1="308.23" y1="157.77" x2="339.31" y2="164.39"/><line class="cls-58" x1="465.97" y1="79.25" x2="497.04" y2="85.87"/></g></svg>