<svg xmlns="http://www.w3.org/2000/svg" viewBox="0 0 350 350"><defs><style>.cls-1{fill:#dac3a3;}.cls-2{fill:#c0ac87;}.cls-3{fill:#c3a573;}.cls-4{fill:#cda96f;}.cls-5{fill:#b79869;}.cls-6{fill:#dfbb7d;}.cls-7{fill:#9d845d;}.cls-8{opacity:0.59;}.cls-9{fill:#c6ac89;}.cls-10{fill:#998665;}.cls-11{fill:#857353;}.cls-12{fill:#a58d66;}.cls-13{fill:#6d5d45;}</style></defs><title>saturn</title><g id="Layer_3" data-name="Layer 3"><g id="Saturn"><path class="cls-1" d="M281.11,57q3.58,3.59,6.9,7.35a157.14,157.14,0,0,1,37.58,80.38,157.75,157.75,0,0,1-44.4,135.72q-1.8,1.78-3.63,3.51a158.09,158.09,0,0,1-193,18.1,156.22,156.22,0,0,1-19.44-14.64q-3.77-3.3-7.35-6.89a158.09,158.09,0,0,1-20-24.34c-1.64-2.47-3.22-5-4.7-7.52s-3-5.23-4.34-7.9A157.8,157.8,0,0,1,18,214a160.48,160.48,0,0,1-3.89-16.21,158,158,0,0,1,168-186.47,155.64,155.64,0,0,1,16.21,2.14,156.58,156.58,0,0,1,43.05,14.62c2.66,1.36,5.3,2.8,7.89,4.33s5.06,3.05,7.53,4.69A158.09,158.09,0,0,1,281.11,57Z"/><path class="cls-2" d="M198.29,14.07,14.09,198.4a157.85,157.85,0,0,1-2.15-16.2L182.08,11.93A161.22,161.22,0,0,1,198.29,14.07Z"/><path class="cls-3" d="M281.11,57.66c2.39,2.39,4.69,4.85,6.9,7.35a158,158,0,0,1-6.82,216.1q-1.8,1.8-3.63,3.52a158.11,158.11,0,0,1-193,18.09,155.24,155.24,0,0,1-19.44-14.64q-3.77-3.3-7.35-6.89a158,158,0,0,1-20-24.33c-1.64-2.47-3.22-5-4.7-7.52s-3-5.23-4.34-7.9A157.57,157.57,0,0,1,18,214.61L214.5,18a157.87,157.87,0,0,1,26.84,10.73c2.66,1.37,5.3,2.81,7.89,4.33s5.06,3.06,7.53,4.7A158.61,158.61,0,0,1,281.11,57.66Z"/><path class="cls-4" d="M281.11,57.66c2.39,2.39,4.69,4.85,6.9,7.35L65.09,288.08q-3.77-3.3-7.35-6.89a158,158,0,0,1-20-24.33c-1.64-2.47-3.22-5-4.7-7.52s-3-5.23-4.34-7.9L241.34,28.69c2.66,1.37,5.3,2.81,7.89,4.33s5.06,3.06,7.53,4.7A158.61,158.61,0,0,1,281.11,57.66Z"/><path class="cls-5" d="M256.76,37.72l-219,219.14c-1.64-2.47-3.22-5-4.7-7.52L249.23,33Q253.06,35.25,256.76,37.72Z"/><path class="cls-6" d="M302.66,84.44a158.11,158.11,0,0,1-21.47,196.67q-1.8,1.8-3.63,3.52a158.11,158.11,0,0,1-193,18.09Z"/><path class="cls-7" d="M325.59,145.4a157.73,157.73,0,0,1-44.4,135.71q-1.8,1.8-3.63,3.52a157.77,157.77,0,0,1-132,41Z"/><path class="cls-8" d="M281.11,57.66c2.39,2.39,4.69,4.85,6.9,7.35a158,158,0,0,1-6.82,216.1q-1.8,1.8-3.63,3.52a223.37,223.37,0,0,0-19.62-71.53,264,264,0,0,0-31.93-52c-5-6.41-10.23-12.56-15.62-18.46a357.33,357.33,0,0,0-29.66-28.88q-3.28-2.86-6.61-5.61t-6.73-5.5C160.18,96.94,153,91.58,145.9,86.61q-6.06-4.26-12-8.13-5.7-3.75-11.21-7.14a486.28,486.28,0,0,0-49.83-27,157.69,157.69,0,0,1,109.19-32.4,161.22,161.22,0,0,1,16.21,2.14,157.55,157.55,0,0,1,43.05,14.62c2.66,1.37,5.3,2.81,7.89,4.33s5.06,3.06,7.53,4.7A158.61,158.61,0,0,1,281.11,57.66Z"/><path class="cls-9" d="M291.38,147.35a797.49,797.49,0,0,1-67.58,76.41,799.52,799.52,0,0,1-76.36,67.64c-2.07-.38-4.13-.82-6.19-1.3-1.72-.4-3.44-.85-5.15-1.33q-4.57-1.29-9-2.94-2.79-1-5.53-2.19c-2.06-.86-4.08-1.79-6.09-2.77-.94-.46-1.87-.93-2.8-1.41s-1.67-.88-2.5-1.34c-1.51-.84-3-1.71-4.51-2.61-1-.63-2.07-1.28-3.09-1.95,27.58-18.47,60.32-46.23,92.56-78.49s60-65,78.42-92.61c.67,1,1.32,2.05,1.95,3.09.9,1.49,1.78,3,2.61,4.5.46.83.91,1.67,1.35,2.5s.95,1.86,1.41,2.8c1,2,1.91,4,2.78,6.09.78,1.82,1.51,3.67,2.19,5.53,1.1,3,2.08,6,2.95,9,.47,1.72.92,3.43,1.33,5.16C290.56,143.22,291,145.28,291.38,147.35Z"/><path class="cls-9" d="M341.26,8.62C330.68-2,306.4-7.61,250.78,25.47c-2.2,1.31-4.43,2.66-6.67,4.05q2.08,1.11,4.14,2.3l1,.57c1.18.69,2.34,1.39,3.5,2.11,1.36.84,2.7,1.71,4,2.59,1,.64,1.93,1.3,2.89,2,1.73,1.2,3.45,2.45,5.14,3.74s3.38,2.61,5,4c18-9.85,31.18-14.19,39-14.66,3.59-.21,6,.4,7.3,1.67s1.91,3.86,1.64,7.62c-.58,8.2-5.3,22.1-15.94,41.08-1.13,2-2.32,4.08-3.58,6.21-5.07,8.55-10.9,17.47-17.39,26.64-20,28.29-46.34,59.09-76.34,89.11s-60.78,56.38-89.06,76.41c-9.17,6.49-18.08,12.33-26.63,17.41-1.82,1.09-3.61,2.12-5.35,3.1-19.41,11-33.61,15.86-41.93,16.45-3.75.27-6.32-.33-7.62-1.63s-1.87-3.71-1.67-7.3c.47-7.92,4.93-21.39,15.09-39.82q-2.07-2.49-4-5.05t-3.71-5.13c-.63-.88-1.23-1.78-1.83-2.67q-1.39-2.1-2.72-4.23c-.68-1.09-1.34-2.19-2-3.29-.23-.39-.46-.79-.68-1.19-.8-1.37-1.56-2.74-2.31-4.13q-2.37,3.78-4.57,7.49c-33,55.65-27.36,79.92-16.78,90.5s34.86,16.23,90.48-16.85q6.54-3.88,13.31-8.29c11.26-7.31,23-15.64,34.91-24.84a799.52,799.52,0,0,0,76.36-67.64,797.49,797.49,0,0,0,67.58-76.41c9.42-12.25,17.93-24.24,25.36-35.76q4.11-6.34,7.74-12.48C357.51,43.47,351.84,19.19,341.26,8.62Z"/><path class="cls-10" d="M338.41,11.25c-9.82-9.82-32.88-14.57-87,18.59l-3.2,2,1,.57c1.18.69,2.34,1.39,3.5,2.11,1.36.84,2.7,1.71,4,2.59,1,.64,1.93,1.3,2.89,2,1.73,1.2,3.45,2.45,5.14,3.74s3.38,2.61,5,4c.6.48,1.2,1,1.79,1.49,24-13.22,38.44-15.88,42.06-12.27s.8,18.93-13.41,44.16q-2.37,4.23-5.19,8.84c-4.63,7.56-9.87,15.44-15.65,23.54-20.12,28.26-46.78,59.31-77.15,89.7s-61.4,57.08-89.64,77.21c-8.1,5.79-16,11-23.53,15.66q-4.14,2.53-8,4.72c-25.73,14.65-41.24,17.68-45,13.92s-.91-18.43,12.7-42.9c-.51-.59-1-1.18-1.49-1.78q-2.07-2.49-4-5.05t-3.71-5.13c-.63-.88-1.23-1.78-1.83-2.67q-1.39-2.1-2.72-4.23c-.68-1.09-1.34-2.19-2-3.29-.23-.39-.46-.79-.68-1.19q-1.27,2-2.5,4c-33.12,54.1-28.36,77.16-18.53,87s32.88,14.56,87-18.59q4.5-2.76,9.12-5.76c10.86-7.08,22.19-15.15,33.8-24.08a821,821,0,0,0,79-69.92,820.29,820.29,0,0,0,69.87-79c9.16-11.92,17.41-23.55,24.59-34.67q2.71-4.19,5.21-8.27C353,44.12,348.23,21.06,338.41,11.25Z"/><path class="cls-11" d="M332.51,17.37c-9-9-30.12-13.14-79.78,17.13,1.36.84,2.7,1.71,4,2.59,1,.64,1.93,1.3,2.89,2,1.73,1.2,3.45,2.45,5.14,3.74s3.38,2.61,5,4c.6.48,1.2,1,1.79,1.49.86.72,1.71,1.46,2.55,2.21,19.6-10.31,31.42-12.35,34.51-9.26s.93,15.65-10.2,36.36q-3.51,6.54-8.24,14.16c-3.68,5.91-7.74,12-12.16,18.3-19.83,28.2-46.74,59.66-77.53,90.47s-62.23,57.75-90.41,77.6c-6.27,4.41-12.39,8.48-18.3,12.17-4.74,3-9.18,5.54-13.29,7.78-21.22,11.54-34,13.92-37.21,10.7s-1-15.25,9.67-35.37c-.75-.84-1.48-1.69-2.19-2.54-.51-.59-1-1.18-1.49-1.78q-2.07-2.49-4-5.05t-3.71-5.13c-.63-.88-1.23-1.78-1.83-2.67q-1.39-2.1-2.72-4.23c-30.78,50.27-26.6,71.6-17.57,80.62s31,13.3,82.73-18.94q1.26-.78,2.52-1.59c10.65-6.76,21.83-14.58,33.36-23.32,26.13-19.82,54-44.32,81.18-71.53s51.66-55.08,71.47-81.23c8.95-11.83,16.95-23.3,23.81-34.2.37-.57.72-1.14,1.07-1.7C345.84,48.32,341.67,26.53,332.51,17.37Z"/><path class="cls-12" d="M323.63,26c-7.29-7.28-24.3-10.36-64,13,1.73,1.2,3.45,2.45,5.14,3.74s3.38,2.61,5,4c.6.48,1.2,1,1.79,1.49.86.72,1.71,1.46,2.55,2.21q1.88,1.66,3.71,3.4c13.11-6.33,21-7.56,23.25-5.32s.93,10.65-5.94,24.55a223.08,223.08,0,0,1-12.68,22c-2.21,3.42-4.55,6.9-7,10.47-19.42,27.91-46.84,60-78.37,91.52s-63.57,59-91.47,78.44q-5.34,3.72-10.46,7a225.87,225.87,0,0,1-21.08,12.26c-14.42,7.26-23.06,8.75-25.42,6.39s-1-10.47,5.72-24.1c-1.16-1.22-2.28-2.45-3.38-3.7-.75-.84-1.48-1.69-2.19-2.54-.51-.59-1-1.18-1.49-1.78q-2.07-2.49-4-5.05t-3.71-5.13c-23.88,40.3-20.8,57.5-13.46,64.83,7.55,7.55,25.57,10.58,68.47-15.72,2.34-1.43,4.76-3,7.25-4.57,8.06-5.22,16.49-11.12,25.18-17.61,26.75-20,56-45.59,84.59-74.22S265.82,153.74,285.8,127c6.48-8.7,12.38-17.13,17.59-25.19q2.72-4.2,5.08-8.1C334.19,51.36,331.13,33.54,323.63,26Z"/><path class="cls-13" d="M317.74,41.42a14.73,14.73,0,0,0-8.94-9.29c-7.61-2.86-20.88-1.68-44,10.67q2.55,1.92,5,4c.6.48,1.2,1,1.79,1.49.86.72,1.71,1.46,2.55,2.21q1.88,1.66,3.71,3.4,1.63,1.53,3.24,3.14l.5.5c6.21-2.16,10.06-2.3,11.46-.9s1.24,5.6-1.2,12.3c-2.65,7.31-7.95,17.66-16.6,30.87l-1.76,2.66c-18.45,27.58-46.19,60.35-78.42,92.61s-65,60-92.56,78.49l-2.66,1.76C87.24,283.6,77.22,288.82,70,291.59s-11.74,3.08-13.27,1.56-1.24-5.64,1.23-12.4l-.2-.19q-1.71-1.71-3.36-3.46c-1.16-1.22-2.28-2.45-3.38-3.7-.75-.84-1.48-1.69-2.19-2.54-.51-.59-1-1.18-1.49-1.78q-2.07-2.49-4-5.05c-12.76,23.67-14,37.17-11.09,44.87a14.68,14.68,0,0,0,9.29,8.93c8.13,2.76,22.4,1,47.43-13,5.15-2.88,10.75-6.29,16.84-10.29q7.65-5,15.73-10.87c27-19.54,57.22-45.75,86.8-75.35s55.76-59.85,75.29-86.85q5.83-8.09,10.85-15.73c4.23-6.45,7.79-12.35,10.77-17.74C318.82,63.48,320.48,49.44,317.74,41.42Z"/></g></g></svg>