<svg id="Layer_1" data-name="Layer 1" xmlns="http://www.w3.org/2000/svg" viewBox="0 0 350 350"><defs><style>.cls-1{fill:#12c8cc;}.cls-2{fill:#16bfbf;}.cls-3{fill:#16d8d8;}.cls-4{fill:#159e9a;}.cls-5{fill:#78efef;}.cls-6{fill:#40d3d3;}.cls-7{fill:#13847e;}.cls-8{fill:#6fefe6;}</style></defs><title>urenus</title><g id="Urenus"><path class="cls-1" d="M350,175a176.07,176.07,0,0,1-2.13,27.35c-.13.86-.27,1.71-.42,2.56A175,175,0,0,1,49.2,296.65,174.19,174.19,0,0,1,.65,190.14Q0,182.66,0,175a174.62,174.62,0,0,1,11.38-62.2q1.72-4.55,3.71-9A175,175,0,0,1,285.48,39.29Q290,43,294.35,47a175.72,175.72,0,0,1,31.31,38.9q4.18,7.06,7.72,14.55a173.63,173.63,0,0,1,9.89,26.3c.19.66.37,1.32.55,2A175,175,0,0,1,350,175Z"/><path class="cls-2" d="M294.35,47c-3.32.71-6.72,1.17-10.07,1.66A459.83,459.83,0,0,0,195,71c-44.51,16-88.78,39.36-136,36.25-12.79-.84-26-3.59-38.12.66a47.1,47.1,0,0,0-9.53,4.86q1.72-4.55,3.71-9A175,175,0,0,1,285.48,39.29Q290,43,294.35,47Z"/><path class="cls-3" d="M333.38,100.47c-9.72,4.85-21.16,4.6-32.06,4.23l-58.45-2c-10.9-.37-22-.71-32.48,2.45s-20.25,10.5-23.4,20.94c-2.82,9.33,0,19.5-1.81,29.07-2.32,12.41-12.24,22.32-23.56,27.89s-24,7.52-36.51,9.39L20,208.16a129.7,129.7,0,0,1-16.55,1.73A173.24,173.24,0,0,1,.65,190.14Q0,182.66,0,175a174.62,174.62,0,0,1,11.38-62.2q1.72-4.55,3.71-9c5.75-.37,11.55-.37,17.29-.19,15.95.5,31.91,2.34,47.83,1.24,45.31-3.14,85.21-29.34,127.46-46a312.31,312.31,0,0,1,77.81-19.59Q290,43,294.35,47a175.72,175.72,0,0,1,31.31,38.9Q329.85,93,333.38,100.47Z"/><path class="cls-4" d="M347.87,202.35c-.13.86-.27,1.71-.42,2.56A174.92,174.92,0,0,1,85.2,325.23c13.14-15.81,32-26,51.45-32.64,19.63-6.72,40.18-10.27,60.3-15.31s40.24-11.76,57-24c13.73-10,24.71-23.28,37.62-34.33s29-20.12,45.91-19A33.53,33.53,0,0,1,347.87,202.35Z"/><path class="cls-5" d="M350,175a176.07,176.07,0,0,1-2.13,27.35c-.13.86-.27,1.71-.42,2.56a79.2,79.2,0,0,0-40.73,23.84c-14.82,16.49-25.35,36.17-40.42,52.44-38.24,41.3-44.32,14-67.84,14.27s-56.69,28.93-66.15,18.82c-7-7.51-12.24,16.7-18.62,24.68A175.39,175.39,0,0,1,37.32,283c6.09-7.81,29.84-16.91,20.88-21.07-40.74-18.91,42.53-23,62.93-36.12C232.54,154.18,231.36,143.56,268.32,153c27.89,7.12,42.08-9.91,68.53-21.26l7-3A175,175,0,0,1,350,175Z"/><path class="cls-6" d="M343.27,126.77c-2.12,1.69-4.26,3.34-6.42,5-10.64,8.06-21.67,15.64-32.68,23.19-15.61,10.72-28.91,28.1-47.63,30.92-60.08,9.05-63.2,35.46-96,48.57-19,7.62-38.26,10.61-57.29,18.22-10.61,4.25-22.2,9.4-26.86,19.83-2,4.44-2.5,9.48-4.94,13.68-4.41,7.58-13.14,10.07-22.3,10.5A174.19,174.19,0,0,1,.65,190.14,126.37,126.37,0,0,1,16.91,183c22-7.93,45.42-10.74,68.25-15.72s42.16-18.38,64.06-19.44c17.34-.84,21.57-35.92,36.25-45.2,15.69-9.93,25.72-1.15,44.26-2.12,28.84-1.52-32.84-19.77,95.93-14.58q4.18,7.06,7.72,14.55A173.63,173.63,0,0,1,343.27,126.77Z"/><circle class="cls-7" cx="267.82" cy="150.57" r="3.01"/><ellipse class="cls-7" cx="305.96" cy="195.25" rx="3.7" ry="0.65"/><ellipse class="cls-7" cx="177.01" cy="264.98" rx="5.05" ry="3.22"/><circle class="cls-7" cx="183.04" cy="328.85" r="0.98"/><ellipse class="cls-7" cx="277.87" cy="294.4" rx="4.79" ry="2.25"/><ellipse class="cls-7" cx="57.94" cy="205.92" rx="3.48" ry="1.31"/><ellipse class="cls-7" cx="45.52" cy="133.62" rx="3.27" ry="0.44"/><ellipse class="cls-7" cx="112.81" cy="44.95" rx="1.74" ry="4.62"/><circle class="cls-7" cx="145.04" cy="53.05" r="1.74"/><ellipse class="cls-7" cx="121.96" cy="114.94" rx="3.48" ry="2.14"/><ellipse class="cls-7" cx="222.6" cy="65.43" rx="6.06" ry="1.56"/><ellipse class="cls-8" cx="94.3" cy="293.28" rx="4.14" ry="1.12"/><ellipse class="cls-8" cx="222.56" cy="224.43" rx="3.05" ry="1.52"/><ellipse class="cls-8" cx="154.4" cy="181.75" rx="5.44" ry="0.22"/><circle class="cls-8" cx="108.67" cy="217.9" r="1.09"/><circle class="cls-8" cx="55.51" cy="125.65" r="1.06"/><circle class="cls-8" cx="65.23" cy="78.64" r="3.81"/><circle class="cls-8" cx="170.69" cy="91.34" r="1.27"/><ellipse class="cls-8" cx="214.5" cy="123.45" rx="5.01" ry="1.14"/><ellipse class="cls-8" cx="190.99" cy="202.22" rx="1.52" ry="0.22"/><ellipse class="cls-8" cx="257.62" cy="242.58" rx="4.57" ry="2.97"/><circle class="cls-8" cx="305.14" cy="258.88" r="2.88"/><circle class="cls-8" cx="181.24" cy="315.73" r="1.8"/></g></svg>