<svg id="Layer_1" data-name="Layer 1" xmlns="http://www.w3.org/2000/svg" viewBox="0 0 350 350"><defs><style>.cls-1{fill:#ff4217;}.cls-2{fill:#ff6217;}.cls-3{fill:#ff8117;}.cls-4{fill:#f9a62d;}.cls-5{fill:#992516;}.cls-6{fill:#d83419;}.cls-7{opacity:0.4;}</style></defs><title>venus</title><g id="Venus"><path class="cls-1" d="M350,175A175,175,0,0,1,35,279.94h0a173,173,0,0,1-16.37-26.39q-3.6-7.12-6.53-14.61a172.63,172.63,0,0,1-6.57-20.32q-1.93-7.55-3.21-15.35A176.68,176.68,0,0,1,0,175v-.3A174.82,174.82,0,0,1,173.1,0H175A175,175,0,0,1,350,175Z"/><path class="cls-2" d="M329.15,205.94c.07,5.56-2.64,11.54-7.8,13.61-2.33.93-4.93,1-7.25,2-6.48,2.71-8.08,10.81-11.15,17.38-1.6,3.41-3.58,6.41-6.85,8-8.45,4.2-17.91-4.08-27.34-4.1-10.83,0-20.23,10.86-30.8,8.52-4.29-.95-7.81-4-11.94-5.45-5-1.81-10.59-1.21-15.9-1.93s-11.1-3.56-12.25-8.8c-.44-2-.13-4.16-.79-6.11a10.08,10.08,0,0,0-3.75-4.56,22.13,22.13,0,0,0-33.92,25.37c4.56,12.57,19,18.27,32.15,20.87a167.34,167.34,0,0,0,44.22,2.8c7-.49,14.49-1.35,20.83,1.76,3.13,1.54,5.83,4,9.18,5,5.2,1.52,10.66-.82,15.56-3.1a17.62,17.62,0,0,1-8.78,20.92c-8.29,4-18.3.74-27.17,3.12-5.89,1.58-10.82,5.49-15.75,9.07-12.65,9.18-27.37,17-43,16.4S155,314.45,154.35,298.84c-.15-3.52.33-7.44-1.89-10.17-3.88-4.78-11.4-1.59-17,.91a49.73,49.73,0,0,1-37.24,1.08,7.15,7.15,0,0,1-3.61-2.38,5.87,5.87,0,0,1-.76-3.64c.61-10.44,12.62-15.51,20.16-22.77,4-3.83,6.86-10.44,3.26-14.63-3-3.57-8.86-2.9-13-.63s-7.53,5.78-11.93,7.4-10.56.28-11.74-4.26c-4.23.64-7.32,4.62-8.29,8.78s-.24,8.51.48,12.73C75,284.34,78.31,299,89.65,305.92c6,3.67,13.33,4.42,20.07,6.51s13.7,6.47,15,13.39a50,50,0,0,1-30.91-7.52c-4-2.57-8.57-5.89-13.16-4.48-2.11.65-3.81,2.23-5.8,3.19a11.8,11.8,0,0,1-1.41.56A175.93,175.93,0,0,1,35,279.94h0a173,173,0,0,1-16.37-26.39q-3.6-7.12-6.53-14.61c.45-.46.9-.9,1.36-1.34a181.06,181.06,0,0,1,27.14-21.51c4.11-2.66,8.92-6.36,8.09-11.19-.68-4-5.35-6.34-9.41-5.91s-7.6,2.84-10.95,5.18L11,216.2a11.33,11.33,0,0,1-5,2.39,3.85,3.85,0,0,1-.48,0q-1.93-7.55-3.21-15.35A176.68,176.68,0,0,1,0,175v-.3a176,176,0,0,1,3-31.86l1.16,0a7.41,7.41,0,0,1,3.65,1c1.86,1.22,2.49,3.61,3.61,5.54,3.36,5.82,11.1,7.37,17.81,7s13.56-2.08,20.06-.35c2,.53,4,1.52,4.79,3.38.89,2.1-.09,4.47-.12,6.75,0,4.33,3.55,8,7.63,9.51s8.55,1.22,12.88.95c2.84-.18,6-.53,7.83-2.74,3.1-3.79-.32-9.39-4-12.56s-8.34-6.86-7.69-11.71c.94-7,12.06-9.17,12.52-16.19.57-8.67-14.15-9.16-18.2-16.85-2-3.88-.69-8.87,2.19-12.18s7-5.29,11-7c16.41,9.64,25.88,29.87,22.76,48.65-.41,2.47-1,5-.35,7.45a12.13,12.13,0,0,0,3.87,5.53c14,12.72,38.72,10.44,50.12-4.6a12.54,12.54,0,0,0,2.77-5.85c.73-5.77-5-10.27-10.47-12.25-3.08-1.12-6.4-1.94-9.4-3.22a17.62,17.62,0,0,1-5.26-3.27h0a12.62,12.62,0,0,1-.89-.9c-5.85-6.65-3-17,.68-25.06s7.88-17.42,3.88-25.32c-3.13-6.2-10.77-9.94-11.82-16.79-.93-6,5.15-12.08,11.19-11.11,6.82,1.09,10.43,8.81,11.17,15.68.14,1.32.23,2.66.3,4,.26,5.62.17,11.34,2.57,16.37a33.08,33.08,0,0,0,2,3.49c2.14,3.36,4.49,6.64,4.18,10.49-.25,3.18-2.22,6.85-.55,9.33a3.27,3.27,0,0,0,.41.51,7.08,7.08,0,0,0,3.87,1.61l1.78.33c6.42,1.18,13.26,2,18.91-1.15,3.5-1.91,6.1-5.1,9.23-7.57,7.55-6,17.89-7.47,27.43-6.16s18.53,5.16,27.37,9a16.77,16.77,0,0,1,5.73,3.44c1.74,1.84,2.55,4.34,3.61,6.64,5.2,11.24,16.79,17.86,27.68,23.76,1.8,1,3.74,2,5.78,1.76a5.54,5.54,0,0,0,1.35-.32c1.8-.65,3.35-2,5.11-2.89a9.69,9.69,0,0,1,9.19,17c-2.64,1.59-5.86,1.82-9,1.62-.39,0-.77,0-1.15-.08l-.47-.05c-13.06-1.29-25.25-7-38-10-.74-.17-1.46-.33-2.21-.48h0c-12.42-2.47-26.42-1.6-35.33,7.21-4.8,4.75-9,12-15.71,11.56A18.17,18.17,0,0,0,220,190.19a17.22,17.22,0,0,0,5.15-1.5c4.52-2.13,8-6.05,12.59-8.09a17.91,17.91,0,0,1,2.82-1c9.72-2.6,20.54,2.62,30.93,2.45,9-.16,18.45-4.35,27-3.53a17.82,17.82,0,0,1,6.73,1.93c6.62,3.46,12.18,11.8,19.31,9.56C326.81,195.11,329.09,200.38,329.15,205.94Z"/><path class="cls-3" d="M309.8,205.58A41.53,41.53,0,0,1,303,215.1c-6.56,7-15.41,12-24.64,14.91-13,4.12-26.79,4.62-40.41,4.72-5,0-10.14,0-14.62-2.18-4.94-2.38-8.35-7-12.4-10.68-13.36-12.19-35.25-13.69-50.15-3.43a27.46,27.46,0,0,0-6.5,6c-4.55,6.09-5.39,14.33-4,21.8s4.86,14.38,8.25,21.18c1.12,2.23,2.29,4.53,4.23,6.08,2.13,1.7,4.91,2.29,7.57,2.83l26.2,5.29c12.54,2.53,26.09,5.65,34.26,15.49a23.57,23.57,0,0,1-19.91,8c-3.69-.37-7.55-1.61-11-.26-4.14,1.62-6.2,6.37-10,8.62-4.11,2.41-9.46,1.43-13.61-.91a23.91,23.91,0,0,1-11-13.62c-1-3.33-1.33-6.92-2.89-10-4-8-14.49-10.12-23.39-9.3s-17.88,3.59-26.58,1.57c5.62-5.49,11.34-11.12,14.83-18.15s4.4-15.85.31-22.56c-15.22-7.15-32.54-14.43-48.3-8.56-2.27.84-4.54,2-7,1.87-5.18-.22-9.06-5.9-14.24-5.65a59.31,59.31,0,0,0-3.95,20A54.49,54.49,0,0,0,64,280.8c1.94,2.71,4.18,5.29,5.23,8.45s.52,7.14-2.24,9a8.48,8.48,0,0,1-5.63,1.05C50.39,298.18,43.17,287.62,35,279.94h0a173,173,0,0,1-16.37-26.39,39.46,39.46,0,0,1,10-7.76c5.29-2.91,11.67-5.4,13.82-11,.88-2.33.9-4.9,1.75-7.23,1.61-4.38,5.83-7.13,9-10.57s5.21-9.1,2-12.53c-1.16-1.27-2.82-1.95-4.14-3-1.93-1.62-3-4-4.46-6.08A16.24,16.24,0,0,0,44,192.47a18.36,18.36,0,0,0-17.11-3.91c-5.09,1.53-9.19,5.22-13.36,8.53-.71.57-1.45,1.13-2.2,1.67a25,25,0,0,1-9.09,4.5A176.68,176.68,0,0,1,0,175v-.3c.38-1.3.71-2.62,1-3.92l4.11-16.56a32.45,32.45,0,0,0,23.91,9.47c1.95-.07,4-.29,5.75.6s2.75,3.45,1.36,4.82c-1,1-2.63.83-4,.62-4.36-.64-8.92-1.09-13.08.36-3.71,1.29-7.36,4.63-7.34,8.69,5.79-4.07,11.78-4.29,18.81-2.7a92.74,92.74,0,0,1,11.94,3.31c4.94,1.83,9.45,4.39,12.73,8.45a16.09,16.09,0,0,0,3.47,3.74c1.88,1.18,4.24,1.18,6.46,1.13l6.13-.13,10.4-.21c2-.05,4.19-.12,5.94-1.17,3-1.81,3.77-5.74,4.24-9.22.51-3.71,1-7.63-.49-11.07-2.24-5.2-8.51-8.2-9.67-13.74-1-4.8,2.23-9.32,4.79-13.5S91,133.72,87.76,130c3.94-.62,6.44,4.51,5.81,8.45s-3,7.56-3,11.55c0,4.7,3.13,8.8,6.51,12.07A61.8,61.8,0,0,0,141.84,179a57.91,57.91,0,0,0,13.59-2.08c3.35-.93,6.81-2.29,8.86-5.1.15-.21.29-.42.42-.64a19.64,19.64,0,0,0,2.19-6.9c1.53-8.19,2.83-17.43-1.75-24.29l0,0a5.13,5.13,0,0,0-.38-.57,19.93,19.93,0,0,0-7.28-5.93h0a50.71,50.71,0,0,0-6.18-2.56,119,119,0,0,1-12.05-4.42,7.5,7.5,0,0,1-3.82-3.22c-1.15-2.44.24-5.24,1.39-7.67.34-.72.66-1.45,1-2.18a47.27,47.27,0,0,0,2-29.57c-.95-3.67-2.24-8,.13-10.94,1.55-1.93,4.12-2.52,6.68-2.48a16.65,16.65,0,0,1,2.25.19c3.74.54,7.6,1.89,9.92,4.87s2.52,6.4,2,10.08c-.89,5.67-3.68,11.87-3.74,17.55h0a12.94,12.94,0,0,0,1.25,6,11.66,11.66,0,0,0,2.64,3.47c3.53,3.23,8.9,4.62,13.78,5.64,9.11,1.92,18.49,3.84,27.67,2.26,5.19-.9,10.15-2.9,15.37-3.63a32.12,32.12,0,0,1,14,1.24h0a31.31,31.31,0,0,1,3.49,1.33h0a31.85,31.85,0,0,1,10.44,7.42c2.93,3.17,5.27,7,8.82,9.43,4.78,3.33,11,3.69,16.36,6,7.82,3.31,13.87,10.64,20.78,15.34.64.44,1.29.85,1.95,1.24a20.25,20.25,0,0,0,9.62,3c-.29,3.9-3.05,6.56-6.67,7.9a17.64,17.64,0,0,1-12.92-.4c-7.48-3.39-12.93-10.24-20.31-13.85-11-5.38-25.61-2-33.09,7.76-3,3.9-4.39,10.47-.2,13,1.87,1.16,4.22,1,6.38,1.48a10.4,10.4,0,0,1,4.18,1.89c5.05,3.76,7.08,11.75,3.35,17.05-3.12,4.43-9.12,6.72-10.89,11.84-1.69,4.87,1.53,10.44,6.14,12.74s10.11,2,15.1.68a43.64,43.64,0,0,0,16.33-8.14c3-2.42,5.81-5.28,9.35-6.88,6.81-3.08,16.93-2.15,19.49-9.18l2.26,1,6.66,2.93a3.18,3.18,0,0,1,1.85,1.46A3.12,3.12,0,0,1,309.8,205.58Z"/><path class="cls-4" d="M44.92,250.61c2.85-3.16,5.82-6.55,6.62-10.74.92-4.87-.72-11.25,3.51-13.82,1.77-1.08,4-1,6.06-.88a133.77,133.77,0,0,0,48.42-6.75,14.7,14.7,0,0,1,5.63-1.13c6.86.53,9.28,10.16,15.69,12.67,2.26.88,5.11.95,6.5,2.93a6.78,6.78,0,0,1,.94,3.35,51.81,51.81,0,0,1-4.52,26.14c-1.45,3.16-3.05,7.38-.43,9.67,4.3,3.75,11.08-4.65,16.12-2-3.2-8.83-6.43-17.79-7.16-27.15s1.34-19.34,7.61-26.33c6-6.73,15-9.84,23.73-12.27,8.13-2.26,17.72-3.87,24.28,1.44,1.65,1.34,3,3.07,4.88,4.09,2.28,1.25,5,1.28,7.55,1.75A22.17,22.17,0,0,1,224,220c-.05-5.93.54-13,5.72-15.91a6.33,6.33,0,0,0,2.42-1.67c1.35-2-1-4.45-3.11-5.77a110.22,110.22,0,0,1-15.1-11.68c-3.33-3.07-6.66-6.73-7-11.24-.46-5.54,3.61-10.31,7.41-14.36,4-4.3,8.31-8.76,13.91-10.62,7.79-2.59,16.58.38,24.43-2C246,142.36,238.67,137,238,129.07c-.22-2.53.27-5.23-.84-7.52-1.74-3.53-6.63-4.35-10.35-3.06s-6.67,4.08-9.93,6.29a42.8,42.8,0,0,1-22.8,6.9A53.21,53.21,0,0,1,165.21,124c-6-3.66-11.82-10.07-10.12-16.9,1-4,4.39-7,6.57-10.56s2.62-9.12-1-11.12-8.16,1.42-9.69,5.3-1.42,8.3-3.18,12.08c-2.41,5.2-7.78,8.24-11.89,12.23s-7,10.78-3.45,15.25c2.87,3.58,8.39,3.58,12.76,2.16,2.49-.81,5-2,7.6-1.55,2.36.39,4.27,2.06,6,3.67,6.35,5.77,13.91,12.05,22.39,10.75,2.8,11.8-6.6,25-18.66,26.13-4.32.42-8.83-.46-12.92,1-10.77,3.81-12,20.69-22.73,24.59-3,1.09-6.28.93-9.45,1.27-8.3.88-15.88,5.12-24.08,6.66s-18.4-.9-21.24-8.75c-.9-2.49-.93-5.23-1.77-7.74-1.78-5.31-7-8.9-12.53-10s-11.19-.15-16.61,1.23A109.78,109.78,0,0,0,11.8,192a5.51,5.51,0,0,0-1.91,1.6c-1.16,1.81.11,4.3,1.89,5.5,3.88,2.62,9.19,1.36,13.34-.79s8-5.15,12.63-6c6.88-1.23,13.53,2.63,19.46,6.34,4.48,2.8,9.56,6.82,8.83,12.05-1.19,8.4-15,8.34-18.62,16-1.12,2.33-1.09,5-1.46,7.59-.83,5.85-4.53,8.54-6.71,13.49C36.78,253.34,40.36,255.66,44.92,250.61Z"/><path class="cls-5" d="M81.74,55.83c3.37-1.38,6.83-2.94,9.2-5.7,1.13-1.32,2-2.93,3.56-3.78a8.33,8.33,0,0,1,5-.58,40.43,40.43,0,0,1,12,3.24,7.07,7.07,0,0,1,3.42,2.59c.9,1.57.56,3.57-.13,5.24C112,63.24,104.9,66.73,98,67.56c-3.12.37-6.44.36-9.15,2-1.94,1.13-3.35,3-4.86,4.62A39.48,39.48,0,0,1,78.68,79c-2.18,1.63-5,3.09-7.52,2.17-5.34-1.91-3.92-9.55-2.54-13.62C70.86,60.88,75.57,58.36,81.74,55.83Z"/><path class="cls-5" d="M264.94,67.58c3.68,1.64,6.25,5,9.51,7.37,4.62,3.33,10.51,4.56,15,8,3.85,3,6.53,7.5,10.94,9.56,3,1.41,6.48,1.5,9.51,2.84s5.62,4.93,4.08,7.86c-1.29,2.47-4.62,2.93-7.4,2.7a31.82,31.82,0,0,1-13.51-4.26c-7.12-4.18-12.77-11.21-20.8-13.12-5.55-1.31-11.43.06-17-.92-7.57-1.32-13.69-6.7-19.39-11.85-2-1.83-4.23-4.53-3-7,1.08-2.1,4-2.29,6.33-2.19a5.49,5.49,0,0,1,3.25.82c1.2.94,1.4,2.65,2.1,4C249.24,80.62,257.86,64.43,264.94,67.58Z"/><path class="cls-5" d="M289.15,264.21a4.72,4.72,0,0,1,2.14-.39c3.87,0,8.46.95,11-1.94,1-1.13,1.73-2.86,3.24-3a2.63,2.63,0,0,1,1.8.65c2.47,2,1.89,6.05,0,8.62s-4.68,4.3-6.65,6.79a27,27,0,0,1-2.49,3.14,4,4,0,0,1-3.65,1.17C291.35,278.32,284.72,266.48,289.15,264.21Z"/><path class="cls-6" d="M209.69,255a4.38,4.38,0,0,1,3.09-.07c4.7,1.1,9.14,3.1,13.78,4.42a49.53,49.53,0,0,0,17.76,1.68,17.37,17.37,0,0,0,4.9-1,18.92,18.92,0,0,1,2.84-1.1c3.48-.76,7,3.29,5.71,6.62-1.11,2.91-4.61,4.12-7.72,4.24-8.23.31-16.36-4.34-24.39-2.56-2,.44-3.91,1.27-5.95,1.26-3.76,0-6.92-1-9.09-3.76C209.2,263,206.79,256.59,209.69,255Z"/><path class="cls-6" d="M131.12,314.54a17.73,17.73,0,0,1-1.91-6.57A6.63,6.63,0,0,1,132,302c3.33-2,7.47.4,10.58,2.72l3.8,2.82a4.08,4.08,0,0,1,1.42,1.5,4.56,4.56,0,0,1-.26,3c-2.41,8.4,3.07,18.23,11.48,20.59,6.06,1.7,13-.05,18.53,2.9a3.86,3.86,0,0,1,1.56,1.29c1.29,2.12-1.36,4.47-3.69,5.32C153.36,350.26,139.1,332.32,131.12,314.54Z"/><path class="cls-5" d="M138,312a3.83,3.83,0,0,1,4.24,2.45c.68,1.8.12,3.86.62,5.72a10.47,10.47,0,0,0,1.54,2.94l5.53,8.23a9.47,9.47,0,0,0,3.35,3.5c1.51.76,3.29.66,5,.74s3.56.45,4.57,1.81a1.62,1.62,0,0,1,.3,1.63,1.91,1.91,0,0,1-1.66.81,10.9,10.9,0,0,1-6.32-1.44,21.56,21.56,0,0,1-2.28-1.59l-4.73-3.61a19,19,0,0,1-4.1-3.84,27.55,27.55,0,0,1-1.64-2.84,31.32,31.32,0,0,0-7.24-8.53c-1.72-1.45-.62-1.65.2-2.79S136.23,312.43,138,312Z"/><path class="cls-7" d="M350,175a174.53,174.53,0,0,1-59.27,131.26q4.36-14.22,7.12-27.83,1.57-7.71,2.68-15.23c1.22-8.28,2-16.38,2.42-24.3q.63-12.18.09-23.8-.37-8.34-1.31-16.4c-.78-6.89-1.86-13.61-3.19-20.18q-.92-4.47-2-8.85-1.35-5.55-2.95-10.92-.15-.56-.33-1.11c-1.6-5.38-3.39-10.64-5.33-15.77A264,264,0,0,0,260.05,88Q255.18,80.73,250,74C224.41,40.08,194.66,15.37,173.1,0H175A175,175,0,0,1,350,175Z"/></g></svg>