<svg id="Layer_1" data-name="Layer 1" xmlns="http://www.w3.org/2000/svg" viewBox="0 0 100 100"><defs><style>.cls-1{fill:#26eaff;}.cls-2{isolation:isolate;}.cls-3{fill:#bcbcbc;}.cls-4{fill:#fff;stroke:#bcbcbc;stroke-miterlimit:10;}.cls-5{fill:#1ebec6;}</style></defs><title>blank</title><path class="cls-1" d="M99.63,50A49.82,49.82,0,0,1,98,62.54l0,.13c-.14.53-.29,1.07-.45,1.59A50,50,0,1,1,99.63,50Z"/><g class="cls-2"><path class="cls-3" d="M98,62.67c-.14.53-.29,1.07-.45,1.59L66,70.81l.18-1.49,0-.06Z"/><path class="cls-3" d="M65.42,75.76l-.12.15L64,77.57,52.33,80.36l-.12.14a37.39,37.39,0,0,0-4.51-5.89l-13,2.7a4.92,4.92,0,0,1-1,.1,5.12,5.12,0,0,1-4.86-3.65L16.64,32.71a4.66,4.66,0,0,1,.8-4.28l1.45-1.8a4.69,4.69,0,0,0-.81,4.28L30.27,72a5.15,5.15,0,0,0,4.87,3.65,5.54,5.54,0,0,0,1-.1l13-2.7a37.35,37.35,0,0,1,4.5,5.85l.07-.09Z"/><path class="cls-4" d="M99.63,50A49.82,49.82,0,0,1,98,62.54L66.2,69.15l0,.17L66,70.81l-.58,5L53.71,78.57a38.48,38.48,0,0,0-4.49-5.84L36.11,75.39a4.59,4.59,0,0,1-1,.1,5,5,0,0,1-4.75-3.56L18.2,30.88a4.5,4.5,0,0,1,4-5.85l67.4-5a49.29,49.29,0,0,1,9,20A50.12,50.12,0,0,1,99.63,50Z"/></g><path class="cls-3" d="M98.63,40.05,37.46,48.2a4.41,4.41,0,0,1-5.07-3.59,4.62,4.62,0,0,1-.06-.74A4.42,4.42,0,0,1,36,39.54l60.09-8A49.88,49.88,0,0,1,98.63,40.05Z"/><path class="cls-5" d="M50,100A50,50,0,0,1,14.64,14.64a50.06,50.06,0,0,1,58-9.24A50.4,50.4,0,0,1,89.89,19.85,49.71,49.71,0,0,1,96.42,31.4,48.3,48.3,0,0,1,99,40a50.37,50.37,0,0,1-.6,22.67.65.65,0,0,1,0,.13c-.13.51-.28,1-.45,1.6A50,50,0,0,1,50,100ZM50,.74A49.26,49.26,0,0,0,15.17,84.83a49.25,49.25,0,0,0,64.5,4.49A49.79,49.79,0,0,0,90.39,78.21a49.11,49.11,0,0,0,6.8-14q.24-.82.45-1.59l0-.11a49.48,49.48,0,0,0,.59-22.34,48,48,0,0,0-2.53-8.45A49.1,49.1,0,0,0,89.3,20.3a49.8,49.8,0,0,0-17-14.23A48.79,48.79,0,0,0,50,.74Z"/></svg>