<svg xmlns="http://www.w3.org/2000/svg" viewBox="0 0 1920 1080"><defs><style>.cls-1,.cls-8,.cls-9{fill:#59b3d5;}.cls-2{fill:#4c9bb9;}.cls-3,.cls-4,.cls-6,.cls-7{fill:none;}.cls-3,.cls-4{stroke:#fff7e8;}.cls-3,.cls-4,.cls-7,.cls-8{stroke-linecap:round;stroke-linejoin:round;}.cls-3,.cls-6,.cls-7,.cls-8,.cls-9{stroke-width:2px;}.cls-4{stroke-width:1.5px;}.cls-5{fill:#fff7e8;}.cls-6,.cls-7,.cls-8,.cls-9{stroke:#fff;}.cls-6,.cls-9{stroke-miterlimit:10;}</style></defs><title>project_background</title><g id="Background"><rect class="cls-1" width="1920" height="1080"/><rect class="cls-2" y="810.71" width="1920" height="269.29"/></g><g id="Objects"><path class="cls-3" d="M1686.4,318.71H1391.93a17.5,17.5,0,0,0-17.5,17.49V527.89a17.5,17.5,0,0,0,17.5,17.49h134.19v60.5l60.5-60.5h99.78a17.49,17.49,0,0,0,17.49-17.49V336.2A17.49,17.49,0,0,0,1686.4,318.71Z"/><path class="cls-4" d="M1440.32,388.37a8.68,8.68,0,0,1-8.68,8.68h0a8.68,8.68,0,0,1-8.67-8.68V370a8.68,8.68,0,0,1,8.67-8.68h0a8.68,8.68,0,0,1,8.68,8.68Z"/><line class="cls-4" x1="1461.53" y1="363.14" x2="1461.53" y2="395.26"/><path class="cls-4" d="M1496.43,388.37a8.68,8.68,0,0,1-8.68,8.68h0a8.68,8.68,0,0,1-8.67-8.68V370a8.68,8.68,0,0,1,8.67-8.68h0a8.68,8.68,0,0,1,8.68,8.68Z"/><path class="cls-4" d="M1552.81,388.37a8.68,8.68,0,0,1-8.68,8.68h0a8.68,8.68,0,0,1-8.67-8.68V370a8.68,8.68,0,0,1,8.67-8.68h0a8.68,8.68,0,0,1,8.68,8.68Z"/><path class="cls-4" d="M1591.1,388.37a8.68,8.68,0,0,1-8.67,8.68h0a8.68,8.68,0,0,1-8.68-8.68V370a8.68,8.68,0,0,1,8.68-8.68h0a8.68,8.68,0,0,1,8.67,8.68Z"/><path class="cls-4" d="M1629.4,388.37a8.68,8.68,0,0,1-8.68,8.68h0a8.68,8.68,0,0,1-8.68-8.68V370a8.68,8.68,0,0,1,8.68-8.68h0a8.68,8.68,0,0,1,8.68,8.68Z"/><line class="cls-4" x1="1514.08" y1="363.14" x2="1514.08" y2="395.26"/><line class="cls-4" x1="1655.36" y1="363.14" x2="1655.36" y2="395.26"/><path class="cls-4" d="M1638,424.91a8.68,8.68,0,0,1,8.68-8.68h0a8.68,8.68,0,0,1,8.68,8.68v18.34a8.68,8.68,0,0,1-8.68,8.68h0a8.68,8.68,0,0,1-8.68-8.68Z"/><line class="cls-4" x1="1616.8" y1="450.14" x2="1616.8" y2="418.02"/><path class="cls-4" d="M1581.89,424.91a8.68,8.68,0,0,1,8.68-8.68h0a8.68,8.68,0,0,1,8.68,8.68v18.34a8.68,8.68,0,0,1-8.68,8.68h0a8.68,8.68,0,0,1-8.68-8.68Z"/><path class="cls-4" d="M1525.51,424.91a8.68,8.68,0,0,1,8.68-8.68h0a8.68,8.68,0,0,1,8.68,8.68v18.34a8.68,8.68,0,0,1-8.68,8.68h0a8.68,8.68,0,0,1-8.68-8.68Z"/><path class="cls-4" d="M1487.22,424.91a8.68,8.68,0,0,1,8.68-8.68h0a8.68,8.68,0,0,1,8.67,8.68v18.34a8.68,8.68,0,0,1-8.67,8.68h0a8.68,8.68,0,0,1-8.68-8.68Z"/><path class="cls-4" d="M1448.93,424.91a8.68,8.68,0,0,1,8.67-8.68h0a8.68,8.68,0,0,1,8.68,8.68v18.34a8.68,8.68,0,0,1-8.68,8.68h0a8.68,8.68,0,0,1-8.67-8.68Z"/><line class="cls-4" x1="1564.24" y1="450.14" x2="1564.24" y2="418.02"/><line class="cls-4" x1="1422.97" y1="450.14" x2="1422.97" y2="418.02"/><path class="cls-4" d="M1440.32,479.79a8.68,8.68,0,0,0-8.68-8.68h0a8.68,8.68,0,0,0-8.67,8.68v18.34a8.68,8.68,0,0,0,8.67,8.68h0a8.68,8.68,0,0,0,8.68-8.68Z"/><line class="cls-4" x1="1461.53" y1="505.02" x2="1461.53" y2="472.9"/><path class="cls-4" d="M1496.43,479.79a8.68,8.68,0,0,0-8.68-8.68h0a8.68,8.68,0,0,0-8.67,8.68v18.34a8.68,8.68,0,0,0,8.67,8.68h0a8.68,8.68,0,0,0,8.68-8.68Z"/><path class="cls-4" d="M1552.81,479.79a8.68,8.68,0,0,0-8.68-8.68h0a8.68,8.68,0,0,0-8.67,8.68v18.34a8.68,8.68,0,0,0,8.67,8.68h0a8.68,8.68,0,0,0,8.68-8.68Z"/><path class="cls-4" d="M1591.1,479.79a8.68,8.68,0,0,0-8.67-8.68h0a8.68,8.68,0,0,0-8.68,8.68v18.34a8.68,8.68,0,0,0,8.68,8.68h0a8.68,8.68,0,0,0,8.67-8.68Z"/><path class="cls-4" d="M1629.4,479.79a8.68,8.68,0,0,0-8.68-8.68h0a8.68,8.68,0,0,0-8.68,8.68v18.34a8.68,8.68,0,0,0,8.68,8.68h0a8.68,8.68,0,0,0,8.68-8.68Z"/><line class="cls-4" x1="1514.08" y1="505.02" x2="1514.08" y2="472.9"/><line class="cls-4" x1="1655.36" y1="505.02" x2="1655.36" y2="472.9"/><rect class="cls-1" x="269.36" y="402.5" width="128.41" height="128.41" rx="11.67"/><rect class="cls-4" x="287.08" y="420.22" width="92.97" height="92.97" rx="8.45"/><polyline class="cls-3" points="398.82 436.57 428.2 436.57 453.93 415.82"/><polyline class="cls-3" points="398.82 458.65 428.2 458.65 453.93 440.42"/><polyline class="cls-3" points="398.82 496.83 428.2 496.83 453.93 517.59"/><polyline class="cls-3" points="398.82 474.76 428.2 474.76 453.93 492.99"/><path class="cls-4" d="M465.94,412.81a5.73,5.73,0,1,1-5.72-5.73A5.72,5.72,0,0,1,465.94,412.81Z"/><path class="cls-4" d="M465.94,437.81a5.73,5.73,0,1,1-5.72-5.72A5.73,5.73,0,0,1,465.94,437.81Z"/><path class="cls-4" d="M465.94,495.6a5.73,5.73,0,1,1-5.72-5.73A5.72,5.72,0,0,1,465.94,495.6Z"/><circle class="cls-4" cx="460.22" cy="520.6" r="5.72"/><polyline class="cls-3" points="268.32 436.57 238.93 436.57 213.2 415.82"/><polyline class="cls-3" points="268.32 458.65 238.93 458.65 213.2 440.42"/><polyline class="cls-3" points="268.32 496.83 238.93 496.83 213.2 517.59"/><polyline class="cls-3" points="268.32 474.76 238.93 474.76 213.2 492.99"/><path class="cls-4" d="M201.19,412.81a5.73,5.73,0,1,0,5.73-5.73A5.72,5.72,0,0,0,201.19,412.81Z"/><path class="cls-4" d="M201.19,437.81a5.73,5.73,0,1,0,5.73-5.72A5.73,5.73,0,0,0,201.19,437.81Z"/><path class="cls-4" d="M201.19,495.6a5.73,5.73,0,1,0,5.73-5.73A5.72,5.72,0,0,0,201.19,495.6Z"/><path class="cls-4" d="M201.19,520.6a5.73,5.73,0,1,0,5.73-5.72A5.73,5.73,0,0,0,201.19,520.6Z"/><polyline class="cls-3" points="303.44 401.45 303.44 372.07 282.68 346.34"/><polyline class="cls-3" points="325.51 401.45 325.51 372.07 307.28 346.34"/><polyline class="cls-3" points="363.69 401.45 363.69 372.07 384.45 346.34"/><polyline class="cls-3" points="341.63 401.45 341.63 372.07 359.85 346.34"/><path class="cls-4" d="M279.67,334.33a5.73,5.73,0,1,1-5.73,5.72A5.72,5.72,0,0,1,279.67,334.33Z"/><path class="cls-4" d="M304.68,334.33a5.73,5.73,0,1,1-5.73,5.72A5.72,5.72,0,0,1,304.68,334.33Z"/><path class="cls-4" d="M362.46,334.33a5.73,5.73,0,1,1-5.73,5.72A5.72,5.72,0,0,1,362.46,334.33Z"/><path class="cls-4" d="M387.46,334.33a5.73,5.73,0,1,1-5.72,5.72A5.72,5.72,0,0,1,387.46,334.33Z"/><polyline class="cls-3" points="303.44 531.95 303.44 561.34 282.68 587.07"/><polyline class="cls-3" points="325.51 531.95 325.51 561.34 307.28 587.07"/><polyline class="cls-3" points="363.69 531.95 363.69 561.34 384.45 587.07"/><polyline class="cls-3" points="341.63 531.95 341.63 561.34 359.85 587.07"/><circle class="cls-4" cx="279.67" cy="593.36" r="5.72"/><path class="cls-4" d="M304.68,599.08a5.73,5.73,0,1,0-5.73-5.72A5.72,5.72,0,0,0,304.68,599.08Z"/><path class="cls-4" d="M362.46,599.08a5.73,5.73,0,1,0-5.73-5.72A5.72,5.72,0,0,0,362.46,599.08Z"/><path class="cls-4" d="M387.46,599.08a5.73,5.73,0,1,0-5.72-5.72A5.72,5.72,0,0,0,387.46,599.08Z"/><path class="cls-5" d="M324,460.56a3.84,3.84,0,0,1-4,3.7h0a3.84,3.84,0,0,1-4-3.7V449.91a3.84,3.84,0,0,1,4-3.7h0a3.84,3.84,0,0,1,4,3.7Z"/><path class="cls-5" d="M351,460.56a3.84,3.84,0,0,1-4,3.7h0a3.84,3.84,0,0,1-4-3.7V449.91a3.84,3.84,0,0,1,4-3.7h0a3.84,3.84,0,0,1,4,3.7Z"/><path class="cls-4" d="M346.11,478.05c0,5.05-5.62,9.15-12.54,9.15S321,483.1,321,478.05"/><line class="cls-4" x1="344.05" y1="421.17" x2="344.05" y2="431.03"/><line class="cls-4" x1="344.05" y1="502.38" x2="344.05" y2="512.24"/><line class="cls-4" x1="333.57" y1="421.17" x2="333.57" y2="431.03"/><line class="cls-4" x1="333.57" y1="502.38" x2="333.57" y2="512.24"/><line class="cls-4" x1="323.09" y1="421.17" x2="323.09" y2="431.03"/><line class="cls-4" x1="323.09" y1="502.38" x2="323.09" y2="512.24"/><line class="cls-4" x1="288.03" y1="466.7" x2="297.89" y2="466.7"/><line class="cls-4" x1="369.24" y1="466.7" x2="379.1" y2="466.7"/><path class="cls-6" d="M1316.08,255l-53-58.67c-10.43-11.55-15.94-21.21-13.42-29l3.79-11.74L1227.61,127l-20.78,4.45L1232.64,160l-5.31,16.43-16.88,3.62-25.83-28.59-6.53,20.22,25.82,28.59,12.07-2.59c8-1.72,17.07,4.75,27.5,16.3l53,58.69a11.59,11.59,0,0,0,16.38.83l2.38-2.14A11.6,11.6,0,0,0,1316.08,255Zm-9.09,9.83-.18.17a4.39,4.39,0,0,1-6.21-.12l-3.89-4a4.39,4.39,0,0,1,.12-6.22l.17-.17a4.4,4.4,0,0,1,6.22.12l3.89,4A4.39,4.39,0,0,1,1307,264.85Z"/><path class="cls-7" d="M889.61,169.33v-14l-15.84-1.86a32.38,32.38,0,0,0-3-7.21l9.87-12.5-9.87-9.87-12.5,9.87a32.86,32.86,0,0,0-7.21-3L849.24,115h-14l-1.86,15.83a32.41,32.41,0,0,0-7.21,3l-12.49-9.88-9.88,9.87,9.87,12.5a32.86,32.86,0,0,0-3,7.21l-15.83,1.85v14l15.83,1.85a32.48,32.48,0,0,0,3,7.22l-9.88,12.49,9.87,9.87,12.5-9.87a32.89,32.89,0,0,0,7.21,3l1.86,15.82h14l1.85-15.82a32.77,32.77,0,0,0,7.22-3l12.49,9.87,9.87-9.87-9.87-12.5a32.38,32.38,0,0,0,3-7.21Zm-47.35,8.77A15.76,15.76,0,1,1,858,162.35,15.76,15.76,0,0,1,842.26,178.1Z"/><path class="cls-7" d="M970.34,203.3V191.4l-8.14-1a32.82,32.82,0,0,0-4.57-11l5.1-6.44-8.42-8.42-6.45,5.09a32.51,32.51,0,0,0-11-4.56l-1-8.14H924l-.95,8.13a32.87,32.87,0,0,0-11,4.57l-6.44-5.09L897.22,173l5.09,6.44a32.79,32.79,0,0,0-4.57,11l-8.13,1v11.9l8.13,1a32.87,32.87,0,0,0,4.57,11l-5.09,6.44,8.42,8.41,6.44-5.09a32.67,32.67,0,0,0,11,4.57l.95,8.14h11.9l1-8.14a32.87,32.87,0,0,0,11-4.57l6.44,5.09,8.42-8.41-5.1-6.45a32.62,32.62,0,0,0,4.57-11ZM930,212.05a14.7,14.7,0,1,1,14.71-14.7A14.7,14.7,0,0,1,930,212.05Z"/><path class="cls-7" d="M976.28,105.24V90.53l-10.06-1.18a40.67,40.67,0,0,0-5.64-13.58l6.29-8-10.4-10.4-8,6.29a40.41,40.41,0,0,0-13.57-5.64L933.75,48H919l-1.18,10.06a40.18,40.18,0,0,0-13.58,5.64l-8-6.29-10.4,10.4,6.29,8a40.48,40.48,0,0,0-5.65,13.58l-10,1.18v14.71l10,1.18A40.48,40.48,0,0,0,892.21,120l-6.3,8,10.41,10.41,8-6.29a40.38,40.38,0,0,0,13.58,5.64L919,147.77h14.7l1.19-10.06a40.67,40.67,0,0,0,13.58-5.64l8,6.29,10.4-10.4-6.29-8a40.76,40.76,0,0,0,5.64-13.58Zm-49.89,5a12.37,12.37,0,1,1,12.36-12.37A12.36,12.36,0,0,1,926.39,110.25Z"/><rect class="cls-8" x="510.98" y="211.1" width="30.42" height="22.43" transform="translate(-42.15 279.66) rotate(-28.67)"/><path class="cls-8" d="M525.51,201.26a3.75,3.75,0,0,0-1.49,5.07l14.45,26.43a3.75,3.75,0,0,0,5.07,1.49l10-5.48a3.74,3.74,0,0,0,1.49-5.08l-14.44-26.42a3.76,3.76,0,0,0-5.08-1.49Z"/><path class="cls-8" d="M469.15,236.69a3.75,3.75,0,0,0-1.49,5.08l10.56,19.31a3.73,3.73,0,0,0,5.07,1.49l44.64-24.41a3.73,3.73,0,0,0,1.49-5.07l-10.56-19.31a3.73,3.73,0,0,0-5.07-1.49Z"/><path class="cls-8" d="M479.85,242.2a3.76,3.76,0,0,0-1.49,5.08l1,1.82a3.75,3.75,0,0,0,5.08,1.49l32.38-17.71a3.74,3.74,0,0,0,1.49-5.07l-1-1.83a3.73,3.73,0,0,0-5.07-1.48Z"/><polygon class="cls-8" points="636.07 156.36 641.02 165.41 621.97 182.31 610.02 184.02 551 216.28 544.66 204.68 603.67 172.41 611.57 163.28 636.07 156.36"/><line class="cls-7" x1="609.28" y1="184.42" x2="602.94" y2="172.82"/><g id="Flat"><g id="Color_copy" data-name="Color copy"><path class="cls-6" d="M753.5,481.16h364.83V695H791.24a37.74,37.74,0,0,1-37.74-37.74h0V481.16Z"/><path class="cls-9" d="M791.24,418.26A37.74,37.74,0,0,0,753.5,456V657.29a37.74,37.74,0,0,1,75.48,0V456A37.74,37.74,0,0,0,791.24,418.26Z"/><path class="cls-6" d="M1005.11,594.39a39.77,39.77,0,0,0-.63-6.89l12.78-7.38-12.58-21.79-12.78,7.39A37.56,37.56,0,0,0,980,558.84V544.07H954.79v14.77a37.5,37.5,0,0,0-12,6.88l-12.78-7.39-12.58,21.79,12.78,7.38a36.65,36.65,0,0,0,0,13.77l-12.78,7.38,12.58,21.79,12.78-7.38a37.47,37.47,0,0,0,12,6.87v14.78H980V629.93a37.54,37.54,0,0,0,11.95-6.87l12.78,7.38,12.58-21.79-12.78-7.38a39.75,39.75,0,0,0,.63-6.88ZM967.37,607A12.58,12.58,0,1,1,980,594.39,12.58,12.58,0,0,1,967.37,607Z"/><path class="cls-6" d="M1049.14,676.16H973.66a6.29,6.29,0,0,1,0-12.58h75.48A12.59,12.59,0,0,0,1061.72,651V638.42a6.29,6.29,0,1,1,12.58,0V651A25.17,25.17,0,0,1,1049.14,676.16Z"/><path class="cls-6" d="M898.17,600.68h-13a31,31,0,0,1-7.54-61.11l9.59-2.4a52.28,52.28,0,0,0,30.88-21.76,6.29,6.29,0,1,1,10.46,7h0a64.84,64.84,0,0,1-38.28,27l-9.6,2.4a18.44,18.44,0,0,0,4.49,36.32h13a6.29,6.29,0,1,1,0,12.58Z"/><path class="cls-6" d="M973.66,412a50.33,50.33,0,1,0-81.78,39.25v11.07h62.91V451.22A50.22,50.22,0,0,0,973.66,412Z"/><path class="cls-9" d="M891.88,462.29h62.91a12.59,12.59,0,0,1,12.58,12.58h0a12.58,12.58,0,0,1-12.58,12.58H891.88a12.58,12.58,0,0,1-12.58-12.58h0A12.59,12.59,0,0,1,891.88,462.29Z"/><path class="cls-6" d="M891.88,487.45h62.91v6.29a31.46,31.46,0,1,1-62.91,0v-6.29Z"/><circle class="cls-6" cx="847.85" cy="411.97" r="6.29"/><circle class="cls-6" cx="998.82" cy="411.97" r="6.29"/><circle class="cls-6" cx="923.33" cy="336.49" r="6.29"/><circle class="cls-6" cx="857.97" cy="374.23" r="6.29"/><circle class="cls-6" cx="988.7" cy="449.71" r="6.29"/><circle class="cls-6" cx="961.08" cy="346.61" r="6.29"/><circle class="cls-6" cx="988.7" cy="374.23" r="6.29"/><circle class="cls-6" cx="857.97" cy="449.71" r="6.29"/><circle class="cls-6" cx="885.59" cy="346.61" r="6.29"/><path class="cls-6" d="M916.94,462.29a5.2,5.2,0,0,0,.07-.69l-5.2-46.84,9.54,3.18a6.27,6.27,0,0,0,4,0l9.54-3.18-5.2,46.84a5.2,5.2,0,0,0,.07.69h12.51l6.22-55.91a6.29,6.29,0,0,0-5.56-6.95,6.41,6.41,0,0,0-2.68.28l-16.89,5.63-16.88-5.63a6.3,6.3,0,0,0-8.24,6.67l6.22,55.91Z"/><path class="cls-9" d="M1093.17,550.36h-50.32V393.1h50.32Z"/><path class="cls-6" d="M1068,613.26l25.16-62.9h-50.32Z"/><path class="cls-6" d="M1093.17,367.94h-50.32V355.36a25.16,25.16,0,0,1,50.32,0v12.58Z"/><path class="cls-6" d="M1093.17,393.1h-50.32V367.94h50.32Z"/><path class="cls-6" d="M1052.91,575.52h30.19L1068,613.26Z"/><path class="cls-9" d="M1058.57,393.1h18.87V550.36h-18.87Z"/></g></g></g></svg>