<?xml version="1.0" encoding="utf-8"?>
<!-- Generator: Adobe Illustrator 23.0.2, SVG Export Plug-In . SVG Version: 6.00 Build 0)  -->
<svg version="1.1" id="Capa_1" xmlns="http://www.w3.org/2000/svg" xmlns:xlink="http://www.w3.org/1999/xlink" x="0px" y="0px"
	 viewBox="0 0 553 553" style="enable-background:new 0 0 553 553;" xml:space="preserve">
<g>
	<g>
		<path d="M-89.1,193.1c-9.5,0-17.6,3.3-24.3,10c-6.6,6.6-10,14.6-10,23.9V370c0,9.5,3.3,17.6,10,24.3c6.6,6.6,14.7,10,24.3,10
			c9.5,0,17.6-3.3,24.1-10c6.5-6.6,9.8-14.7,9.8-24.3V227c0-9.3-3.3-17.3-10-23.9S-79.8,193.1-89.1,193.1z"/>
		<path d="M186.1,64.8l23.6-43.5c1.5-2.9,1-5.1-1.7-6.6c-2.9-1.3-5.1-0.7-6.6,2l-23.9,43.9c-21.1-9.3-43.3-14-66.8-14
			c-23.5,0-45.8,4.7-66.8,14L20,16.7c-1.6-2.6-3.8-3.3-6.6-2c-2.7,1.6-3.2,3.8-1.7,6.6l23.6,43.5c-23.9,12.2-43,29.2-57.2,51
			c-14.2,21.8-21.3,45.7-21.3,71.6h307.4c0-25.9-7.1-49.8-21.3-71.6C228.8,94,209.8,77.1,186.1,64.8z M49.7,128.2
			c-2.6,2.6-5.6,3.8-9.1,3.8c-3.6,0-6.5-1.3-9-3.8c-2.4-2.5-3.7-5.6-3.7-9.1c0-3.5,1.2-6.6,3.7-9.1c2.4-2.5,5.4-3.8,9-3.8
			s6.6,1.3,9.1,3.8c2.5,2.6,3.8,5.6,3.8,9.1C53.5,122.6,52.2,125.6,49.7,128.2z M189.8,128.2c-2.4,2.6-5.4,3.8-9,3.8
			c-3.6,0-6.6-1.3-9.1-3.8c-2.6-2.5-3.8-5.6-3.8-9.1c0-3.5,1.3-6.6,3.8-9.1c2.5-2.5,5.6-3.8,9.1-3.8c3.5,0,6.5,1.3,9,3.8
			c2.4,2.6,3.7,5.6,3.7,9.1C193.4,122.6,192.2,125.6,189.8,128.2z"/>
		<path d="M-41.9,420.8c0,10.2,3.5,18.8,10.6,25.9c7.1,7.1,15.7,10.6,25.9,10.6h24.6l0.3,75.5c0,9.5,3.3,17.6,10,24.3
			s14.6,10,23.9,10c9.5,0,17.6-3.3,24.3-10s10-14.7,10-24.3v-75.4h45.9v75.4c0,9.5,3.3,17.6,10,24.3s14.7,10,24.3,10
			c9.5,0,17.6-3.3,24.3-10s10-14.7,10-24.3v-75.4H227c10,0,18.5-3.5,25.6-10.6c7.1-7.1,10.6-15.7,10.6-25.9V199.4H-41.9V420.8z"/>
		<path d="M310.4,193.1c-9.3,0-17.3,3.3-23.9,9.8c-6.6,6.5-10,14.6-10,24.1V370c0,9.5,3.3,17.6,10,24.3s14.6,10,23.9,10
			c9.5,0,17.6-3.3,24.3-10s10-14.7,10-24.3V227c0-9.5-3.3-17.6-10-24.1C328,196.4,320,193.1,310.4,193.1z"/>
	</g>
</g>
</svg>
