<svg xmlns="http://www.w3.org/2000/svg" viewBox="0 0 100 100"><defs><style>.cls-1{fill:#fff;}.cls-2{fill:#00e676;}.cls-3{fill:#828282;}</style></defs><title>logo</title><g id="Layer_3" data-name="Layer 3"><path class="cls-1" d="M50,90.74A40.74,40.74,0,1,1,90.74,50,40.79,40.79,0,0,1,50,90.74Z"/><path class="cls-2" d="M50,18.52A31.48,31.48,0,1,1,18.52,50,31.51,31.51,0,0,1,50,18.52M50,0a50,50,0,1,0,50,50A50,50,0,0,0,50,0Z"/><path class="cls-3" d="M74.56,49.92l-11.11-.05C63.49,41,57,37,50.6,36.93h-.07c-6.4,0-12.85,4-12.89,12.82l-11.11,0c.07-15.7,12.11-23.88,24-23.88h.11C62.58,25.87,74.63,34.17,74.56,49.92Z"/></g></svg>