<svg id="Layer_1" data-name="Layer 1" xmlns="http://www.w3.org/2000/svg" viewBox="0 0 100 100"><defs><style>.cls-1,.cls-5{fill:#cddcf0;}.cls-1{stroke:#000;stroke-linejoin:bevel;stroke-width:3px;}.cls-2{fill:#0f2689;}.cls-3{fill:#1f55ba;}.cls-4{fill:#0f2486;}.cls-6{fill:#fff;}.cls-7{fill:#2055bb;}</style></defs><title>save</title><path class="cls-1" d="M98.12,36.49,85,96.51a2.08,2.08,0,0,1-2.34,1.62C60.76,94.8,33.92,88.4,5.89,81.3a2.09,2.09,0,0,1-1.32-1h0L2.7,77.05h0a2.12,2.12,0,0,1-.4-.72h0a1.86,1.86,0,0,1-.1-1C6.45,50.05,11.71,26.13,17.68,3.9a2.08,2.08,0,0,1,2.47-1.47L33.79,5.38l6,1.29,41,8.94.59.13,5.18,1.13a2.1,2.1,0,0,1,1.35,1l2.07,3.54a1,1,0,0,1,.13.16L97.83,35A2,2,0,0,1,98.12,36.49Z"/><path class="cls-2" d="M98.12,36.49,85,96.51a2.08,2.08,0,0,1-2.34,1.62C60.76,94.8,33.92,88.4,5.89,81.3a2.09,2.09,0,0,1-1.32-1h0L2.7,77.05h0l-.4-.72h0l2.57.12c4.18-24.2,9.28-47.17,15.06-68.73a2.13,2.13,0,0,1,2.48-1.47L33,8.43l6,1.3,26.09,5.68,9.67,2.11,5.38,1.17.7.16,7.92,1.72a2.21,2.21,0,0,1,1.22.83.65.65,0,0,1,.13.16L97.83,35A2,2,0,0,1,98.12,36.49Z"/><path class="cls-3" d="M95.93,32.79l-13.09,60a2.11,2.11,0,0,1-2.35,1.63C58.56,91.14,31.72,84.7,3.69,77.58a2,2,0,0,1-1-.56h0a2,2,0,0,1-.4-.72h0a1.77,1.77,0,0,1-.1-1C6.45,50.05,11.71,26.13,17.68,3.9a2.08,2.08,0,0,1,2.47-1.47L33.79,5.38l6,1.29,41,8.94.59.13,5.18,1.13a2.1,2.1,0,0,1,1.35,1l2.07,3.54,5.77,9.9A2.22,2.22,0,0,1,95.93,32.79Z"/><path class="cls-4" d="M81.33,15.74c-.14.88-.32,1.93-.54,3.11-1.34,7.37-3.76,19.31-4.08,20a1.31,1.31,0,0,1-1.39.62c-.21,0-.41,0-.62-.09h0l-3.87-.52-3.22-.5c-.85-.13-1.69-.26-2.56-.42q-13.53-2.32-26.77-6l-1.88-.52c-2.24-.6-4.43-1.24-6.74-1.92a1.34,1.34,0,0,1-1.06-1.47C29.93,21.68,31.25,15,33,8.35c.27-1,.55-2,.83-3l6,1.3,41,8.93Z"/><path class="cls-5" d="M39.76,6.67c-.28,1-.55,2.05-.81,3.06-1.67,6.54-3,13.22-4.1,19.51a2,2,0,0,0,1.47,2.23C46.05,34,55.61,36.33,64.94,38c.87.17,1.71.3,2.57.43l3.21.5c1.18.21,2.36.36,3.51.5a.77.77,0,0,0,.37,0h0c.51,0,1-.19,1.06-.56C76.1,35.92,78.12,27.47,80,18.7c.23-1,.44-2.06.66-3.08ZM70.46,37,59,34.47l6-19.06.25-.79,9.6,2.09-.18.81Z"/><path class="cls-6" d="M74.24,86.72c-22.69-3.54-43.09-7.6-61.6-13.09-.55-.16-1.09-.66-1-1.21,1-4.27,3.36-18.12,7.54-35.81a1.3,1.3,0,0,1,1.57-.89L82.34,49.15a1.31,1.31,0,0,1,1,1.48L75.72,85.78A1.32,1.32,0,0,1,74.24,86.72Z"/><ellipse class="cls-7" cx="30.27" cy="48.86" rx="4.79" ry="3.46" transform="translate(-23.92 68.01) rotate(-77.69)"/><ellipse class="cls-7" cx="69.19" cy="57.36" rx="4.79" ry="3.46" transform="translate(-1.6 112.73) rotate(-77.69)"/><path class="cls-7" d="M36.69,70.32c4.13,7.9,9.6,9.28,16.52,3.59Z"/></svg>