<svg xmlns="http://www.w3.org/2000/svg" viewBox="0 0 420.73 83.27"><defs><style>.cls-1{fill:#fff;}.cls-2{fill:#00e676;}.cls-3{fill:#828282;}.cls-4{fill:#ffb051;}</style></defs><title>vrobox</title><g id="Layer_3" data-name="Layer 3"><path class="cls-1" d="M168.79,75.55a33.42,33.42,0,1,1,33.44-33.44A33.46,33.46,0,0,1,168.79,75.55Z"/><path class="cls-2" d="M168.79,16.3A25.83,25.83,0,1,1,143,42.11,25.85,25.85,0,0,1,168.79,16.3m0-15.19a41,41,0,1,0,41,41,41.06,41.06,0,0,0-41-41Z"/><path class="cls-3" d="M189,42.06l-9.11,0c0-7.3-5.27-10.59-10.54-10.61h-.06c-5.25,0-10.54,3.24-10.57,10.52l-9.12,0c.06-12.88,9.94-19.6,19.7-19.6h.09C179.13,22.34,189,29.14,189,42.06Z"/><path class="cls-1" d="M313.6,75.67A33.42,33.42,0,1,1,347,42.24,33.45,33.45,0,0,1,313.6,75.67Z"/><path class="cls-2" d="M313.6,16.43a25.83,25.83,0,1,1-25.8,25.81,25.86,25.86,0,0,1,25.8-25.81m0-15.19a41,41,0,1,0,41,41,41,41,0,0,0-41-41Z"/><path class="cls-3" d="M333.77,42.19l-9.12,0c0-5.21-2.56-7.82-4.74-9.09a12,12,0,0,0-11.61,0c-2.19,1.25-4.8,3.84-4.82,9l-9.11,0c0-7.35,3.46-13.52,9.41-16.92a21,21,0,0,1,20.72.09C330.42,28.63,333.8,34.83,333.77,42.19Z"/><path class="cls-4" d="M21.89,14.41l17.56,21.2L51,13.53l22.59,6L39.79,75.39,4.36,25.86Z"/><path class="cls-4" d="M267.52,49.73c1,5.74-.23,10.49-3.6,14.26-3.12,3.54-7.5,5.54-13.11,6.05-2.55.24-5.54.34-8.9.37h-4.45l-4.45,0,0,0H219.46L216.6,14.64l18.55-.55a88.13,88.13,0,0,1,12,.78,35.38,35.38,0,0,1,10.91,3q10.59,5.34,1.39,17.08A17.83,17.83,0,0,1,257,37.53C263,39.6,266.54,43.68,267.52,49.73ZM236.78,36.28a8.23,8.23,0,0,0,5-1.67,4.8,4.8,0,0,0,2-3.43,3.68,3.68,0,0,0-1.67-3.36,9.54,9.54,0,0,0-5.94-1.5Zm8.7,22.35a6.71,6.71,0,0,0,2-1.77,3.38,3.38,0,0,0,.61-2.51c-.37-1.94-1.8-3.37-4.31-4.32a14.36,14.36,0,0,0-3.3-.81,25.74,25.74,0,0,0-3-.34c.44,6.93.65,10.39.65,10.39s.61.21,1.86.27c.45,0,.89,0,1.33.07h.78A6.59,6.59,0,0,0,245,58.9Z"/><path class="cls-4" d="M399,71.65l-9.48-10.77L378.72,75.83,358.3,66.22l16.58-22L357.42,24.37,377,13.12l11.24,13.32,10.06-13.35,21.84,5.54L402.39,43.15l18,21.23Z"/><path class="cls-4" d="M112.84,75.59l-15.74-22,.83,18.39-18.6.34-.49-55.19a61.7,61.7,0,0,1,21.31-2.32c6.33.43,11.4,2,15.25,4.67q7.2,5,8.22,15.22a16.56,16.56,0,0,1-.24,6.33,15.17,15.17,0,0,1-2.25,5.4,14.43,14.43,0,0,1-5.34,4.67l12,12.2Zm-8.48-41.13a6.16,6.16,0,0,0-1.36-4,7.38,7.38,0,0,0-3-2,11.39,11.39,0,0,0-4.35-.76l.77,13.36a9.07,9.07,0,0,0,4-.67A5.81,5.81,0,0,0,104.36,34.46Z"/></g></svg>