<svg id="Layer_1" data-name="Layer 1" xmlns="http://www.w3.org/2000/svg" xmlns:xlink="http://www.w3.org/1999/xlink" viewBox="0 0 349.95 233.3"><defs><style>.cls-1,.cls-3{fill:none;}.cls-2{fill:#34c5ff;}.cls-3{stroke:#fff;stroke-miterlimit:10;}.cls-4{opacity:0.18;}.cls-5{fill:#fff;}.cls-6{fill:#f9e5bd;}.cls-7{fill:#ffdc8b;}.cls-8{fill:#75c400;}.cls-9{fill:#24ff00;}.cls-10{fill:#282828;}.cls-11{fill:#151616;}.cls-12{fill:#4d4d4d;}.cls-13{fill:#353535;}.cls-14{opacity:0.23;}.cls-15{fill:#b3b3b3;}.cls-16{fill:#d3161d;}.cls-17{fill:#adadad;}.cls-18{fill:#080000;}.cls-19{fill:#070707;}.cls-20{fill:#77401b;}.cls-21{fill:#f8c946;}.cls-22{fill:#020202;}.cls-23{fill:#683919;}.cls-24{fill:#945320;}.cls-25{fill:#515051;}.cls-26{fill:#161616;}.cls-27{fill:#0a0a0a;}.cls-28{fill:#8e8a8b;}.cls-29{fill:#e2b647;}.cls-30{fill:#dddbd7;}.cls-31{fill:#232323;}.cls-32{fill:#3a3a3a;}.cls-33{fill:#7c7c7c;}.cls-34{fill:#666;}.cls-35{fill:#389cce;}.cls-36{fill:#7f1119;}.cls-37{fill:#5e0e18;}.cls-38{fill:#352f49;}.cls-39{fill:#e41e00;}.cls-40{fill:#fffe28;}.cls-41{fill:#18ff08;}.cls-42{fill:#dbdddd;}.cls-43{fill:#0fb0db;}.cls-44{fill:#303435;}.cls-45{clip-path:url(#clip-path);}.cls-46{fill:#4e4e4e;}.cls-47{fill:#4f4f4f;}.cls-48{fill:#505050;}.cls-49{fill:#515151;}.cls-50{fill:#535353;}.cls-51{fill:#545454;}.cls-52{fill:#555;}.cls-53{clip-path:url(#clip-path-2);}.cls-54{clip-path:url(#clip-path-3);}.cls-55{clip-path:url(#clip-path-4);}.cls-56{opacity:0.3;}.cls-57{fill:#3fa300;}.cls-58{fill:#208200;}.cls-59{fill:#9a8917;}.cls-60{fill:#e56800;}.cls-61{fill:#c15200;}.cls-62{fill:#4c6800;}.cls-63{fill:#5a9600;}.cls-64{fill:#448200;}.cls-65{fill:#6e9600;}.cls-66{fill:#528200;}.cls-67{fill:#55b700;}.cls-68{fill:#4e8900;}.cls-69{fill:#ff8a33;}.cls-70{fill:#025d9b;}.cls-71{fill:#00406f;}.cls-72{fill:#f1ff47;}</style><clipPath id="clip-path"><path class="cls-1" d="M143.13,149.31a.5.5,0,0,1,.45-.51.46.46,0,0,1,.41.51.5.5,0,0,1-.46.51A.47.47,0,0,1,143.13,149.31Z"/></clipPath><clipPath id="clip-path-2"><path class="cls-1" d="M145.82,156.07a.51.51,0,0,1,.46-.51.47.47,0,0,1,.41.51.44.44,0,1,1-.87,0Z"/></clipPath><clipPath id="clip-path-3"><path class="cls-1" d="M143,155.87a.5.5,0,0,1,.46-.51.46.46,0,0,1,.41.51.44.44,0,1,1-.87,0Z"/></clipPath><clipPath id="clip-path-4"><path class="cls-1" d="M145.62,149.46a.5.5,0,0,1,.46-.51c.25,0,.4.26.4.51a.5.5,0,0,1-.45.51A.46.46,0,0,1,145.62,149.46Z"/></clipPath></defs><title>invention_ranzor_trap</title><rect class="cls-2" width="349.95" height="233.3"/><path class="cls-3" d="M61.2,209.55a5.35,5.35,0,0,1,4.3-6"/><path class="cls-3" d="M54.7,210.32a12,12,0,0,1,13.11-11.45"/><g class="cls-4"><path class="cls-5" d="M129.4,211c14.42,2.88,29.3,1.41,43.93-.08l52.08-5.3c10.81-1.1,22-2.31,31.41-7.74,8.87-5.11,15.41-13.6,19.84-22.83s6.93-19.24,9.3-29.2c3.4-14.26,6.34-30.28-1.33-42.78-5.83-9.5-16.57-14.73-27-18.62A213.19,213.19,0,0,0,99.38,89c-11.53,5.07-22.86,11.38-31.1,20.9a54.13,54.13,0,0,0-12.82,39.55c1,11.71,6.86,28.17,17.5,34.64,4.52,2.75,9.5,4.28,14.05,7.26a188.32,188.32,0,0,0,19.24,11.33A93.07,93.07,0,0,0,129.4,211Z"/></g><ellipse class="cls-5" cx="173.45" cy="140.88" rx="101.77" ry="53.64"/><ellipse class="cls-6" cx="173.45" cy="139.62" rx="93.11" ry="47.97"/><ellipse class="cls-7" cx="174.21" cy="138.39" rx="80.35" ry="39.03"/><path class="cls-8" d="M186.36,97.49c-6.25,1.52-12,4.84-18.29,6.17-8.63,1.83-17.56-.17-26.38-.54s-18.72,1.51-23.82,8.71c-3.44,4.87-4,11.3-3,17.17,1.2,6.94,5.21,14.19,12,15.94,5.72,1.46,12.28-1.23,17.45,1.62,6.33,3.49,6.62,13,12.31,17.47,5.44,4.25,13.52,2.15,19.32-1.58s10.84-8.92,17.41-11c5.66-1.81,11.81-1.1,17.63.13s11.59,2.95,17.53,3.1,12.27-1.53,16.17-6c3.76-4.34,4.61-10.62,3.57-16.27s-3.76-10.83-6.48-15.89c-2.37-4.42-4.88-8.94-8.8-12.08-6.83-5.47-16.14-5.49-24.43-4.74-1.48.14-4.29,1.16-5.64.88-1.54-.32-3.18-2.15-4.78-2.73A20.73,20.73,0,0,0,186.36,97.49Z"/><polyline class="cls-9" points="196.71 133.06 176.68 138.75 183.15 139.73 171.54 149.62 181.25 151.09 192.86 141.2 199.34 142.18 196.71 133.06"/><path class="cls-10" d="M165.91,152.16a2.18,2.18,0,0,0,1.63.1c0,1.57-.56,5.39-1.07,5.69a4.2,4.2,0,0,1-1.83.1.91.91,0,0,1-.92-.91.42.42,0,0,1,.05-.26c.66-1.78,1.73-4.47,1.73-4.47Z"/><path class="cls-11" d="M165.29,158.16a3.6,3.6,0,0,1-.66-.06h0a1,1,0,0,1-1-1,.42.42,0,0,1,.06-.28c.66-1.76,1.72-4.44,1.73-4.47h0l.43-.27,0,0a2.13,2.13,0,0,0,1.59.09h.06v.06c0,1.55-.56,5.41-1.1,5.73h0A5.14,5.14,0,0,1,165.29,158.16Zm.25-5.72c-.08.22-1.09,2.77-1.72,4.46v0s0,.13,0,.22a.87.87,0,0,0,.87.87,4.51,4.51,0,0,0,1.81-.1c.46-.31,1-3.91,1-5.59a2.25,2.25,0,0,1-1.58-.11Z"/><path class="cls-12" d="M167.59,152.31c0,1.57-.1,5.34-.61,5.59a5.06,5.06,0,0,1-1.78.26.92.92,0,0,1-.92-.92.63.63,0,0,1,.05-.3c.66-1.78,1.48-4.68,1.58-4.78A2,2,0,0,0,167.59,152.31Z"/><path class="cls-11" d="M165.2,158.2a1,1,0,0,1-1-1,.68.68,0,0,1,.06-.33c.36-1,.78-2.33,1.09-3.31a10.5,10.5,0,0,1,.5-1.48l0,0,0,0a1.89,1.89,0,0,0,1.64.15l.07,0v.07c0,.54,0,5.33-.64,5.63A4.89,4.89,0,0,1,165.2,158.2Zm.73-6c-.07.15-.26.76-.46,1.41-.3,1-.72,2.33-1.09,3.32a.59.59,0,0,0,0,.29.87.87,0,0,0,.87.87,5.13,5.13,0,0,0,1.76-.25c.42-.21.58-3.37.58-5.48A2,2,0,0,1,165.93,152.22Z"/><path class="cls-10" d="M163.93,150.73a2.13,2.13,0,0,0,1.22,1.07c-1,1.27-3.72,4-4.27,3.86a3.9,3.9,0,0,1-1.53-1,.89.89,0,0,1-.15-1.27.68.68,0,0,1,.2-.21c1.58-1,4.07-2.49,4.07-2.49Z"/><path class="cls-11" d="M160.9,155.72h0a4,4,0,0,1-1.56-1,.94.94,0,0,1-.15-1.33.42.42,0,0,1,.15-.17l.06,0c1.56-1,4-2.49,4.07-2.5h0l.49.06v0a2.13,2.13,0,0,0,1.2,1l.05,0,0,.05C164.22,153.09,161.57,155.72,160.9,155.72Zm2.58-5c-.2.12-2.56,1.52-4,2.48l-.06,0a.35.35,0,0,0-.13.14.85.85,0,0,0,.14,1.21,3.94,3.94,0,0,0,1.51,1h0c.56,0,3.12-2.47,4.15-3.8a2.35,2.35,0,0,1-1.18-1Z"/><path class="cls-12" d="M165.15,151.85c-1,1.27-3.31,4.17-3.92,4.07a4.85,4.85,0,0,1-1.58-.92,1,1,0,0,1-.2-1.27.48.48,0,0,1,.26-.2c1.57-1,4-2.85,4.17-2.85A2,2,0,0,0,165.15,151.85Z"/><path class="cls-11" d="M161.26,156h0a5.11,5.11,0,0,1-1.6-.93,1,1,0,0,1-.21-1.33.52.52,0,0,1,.27-.22c.77-.5,1.76-1.2,2.56-1.77a11.4,11.4,0,0,1,1.64-1.09h0v0a2,2,0,0,0,1.24,1.14l.07,0,0,.06C164.86,152.3,162.05,156,161.26,156Zm2.59-5.23c-.16.08-.84.56-1.56,1.06s-1.79,1.27-2.56,1.77a.56.56,0,0,0-.24.18.91.91,0,0,0,.19,1.21,5,5,0,0,0,1.57.91h0c.51,0,2.31-2,3.8-4A2.12,2.12,0,0,1,163.85,150.74Z"/><path class="cls-10" d="M163.47,148a2.12,2.12,0,0,0,.2,1.62c-1.57.31-4.17.92-4.52.46-.26-.3-.31-.35-.41-1.07a1,1,0,0,1,.81-1.06h.21a15.6,15.6,0,0,0,3.4-.26Z"/><path class="cls-11" d="M159.81,150.34c-.36,0-.6-.06-.7-.19h0c-.25-.3-.31-.37-.41-1.08a1,1,0,0,1,.86-1.12h.21a14.89,14.89,0,0,0,3.39-.26h0l.35.35,0,0a2.12,2.12,0,0,0,.21,1.58l0,.06h-.06l-.71.14A19.57,19.57,0,0,1,159.81,150.34Zm-.06-2.31h-.2a.92.92,0,0,0-.76,1c.1.68.14.74.38,1h0c.29.37,2.3,0,3.77-.33l.65-.13a2.36,2.36,0,0,1-.19-1.58l-.26-.27A15,15,0,0,1,159.75,148Z"/><path class="cls-12" d="M163.67,149.71c-1.57.31-4,1.38-4.37.87a1.5,1.5,0,0,1-.51-1,.92.92,0,0,1,.76-1.07h.26a36.48,36.48,0,0,0,3.66-.45A1.81,1.81,0,0,0,163.67,149.71Z"/><path class="cls-11" d="M159.7,150.76a.51.51,0,0,1-.44-.15,1.56,1.56,0,0,1-.52-1,1,1,0,0,1,.8-1.12h.27a14.73,14.73,0,0,0,3-.37c.5-.1.65-.13.7-.08l0,0v0a1.79,1.79,0,0,0,.2,1.64l0,.06h-.07a18.84,18.84,0,0,0-1.82.5A9.72,9.72,0,0,1,159.7,150.76Zm-.15-2.22a.86.86,0,0,0-.71,1,1.47,1.47,0,0,0,.49,1h0c.21.3,1.37-.05,2.49-.39.6-.18,1.23-.37,1.76-.48a1.85,1.85,0,0,1-.18-1.61,5.07,5.07,0,0,0-.59.1,15,15,0,0,1-3,.37Z"/><path class="cls-10" d="M169.22,151.85l-1.17.25s-.21.31-.26.41c-.25.41,1,4.07,1.68,3.87s1.63-.82,1.63-1.07a3.45,3.45,0,0,1,.1-.36A36.71,36.71,0,0,0,169.22,151.85Z"/><path class="cls-11" d="M169.41,156.43c-.14,0-.31-.11-.48-.35-.68-.9-1.39-3.25-1.18-3.59.05-.1.25-.4.26-.41v0h0l1.18-.26s.15,0,2,3.13v0c0,.14-.09.31-.09.34,0,.3-1,.92-1.67,1.11Zm-1.33-4.28c-.05.06-.2.3-.25.38A7.32,7.32,0,0,0,169,156c.12.17.3.35.45.31.7-.2,1.59-.81,1.59-1a2.45,2.45,0,0,1,.1-.35c-.67-1.12-1.75-2.9-1.93-3.06Z"/><path class="cls-12" d="M169.47,151.49a1.84,1.84,0,0,1-.66.46,5.78,5.78,0,0,1-.76.21c-.46.1,1,4.06,1.67,3.81s1.53-.87,1.53-1.17S169.57,151.24,169.47,151.49Z"/><path class="cls-11" d="M169.66,156a.45.45,0,0,1-.31-.16,7.07,7.07,0,0,1-1.43-3.64.16.16,0,0,1,.12-.12,4.4,4.4,0,0,0,.75-.2,1.94,1.94,0,0,0,.64-.44.07.07,0,0,1,.07,0,6.79,6.79,0,0,1,1,1.59,10.51,10.51,0,0,1,.8,1.78c0,.35-.87,1-1.56,1.21Zm-.16-4.49a2.24,2.24,0,0,1-.67.46,4.6,4.6,0,0,1-.77.2.08.08,0,0,0,0,.06,4.4,4.4,0,0,0,.4,1.73,5.48,5.48,0,0,0,1,1.81q.18.16.3.12c.7-.25,1.49-.84,1.49-1.12A16.31,16.31,0,0,0,169.5,151.54Z"/><ellipse class="cls-12" cx="167.48" cy="148.29" rx="1.32" ry="1.42" transform="translate(-28.71 40.82) rotate(-12.81)"/><path class="cls-11" d="M167.52,149.89a1.5,1.5,0,0,1-.83-.26,1.74,1.74,0,0,1-.67-1,1.55,1.55,0,0,1,1.11-1.89,1.46,1.46,0,0,1,1.14.22,1.67,1.67,0,0,1,.67,1,1.55,1.55,0,0,1-1.11,1.89A1.1,1.1,0,0,1,167.52,149.89Zm-.32-2.82a1.22,1.22,0,0,0-.84,1.48,1.26,1.26,0,0,0,.53.79,1.08,1.08,0,0,0,.87.17,1.2,1.2,0,0,0,.84-1.47,1.26,1.26,0,0,0-.53-.79,1.13,1.13,0,0,0-.87-.18Z"/><path class="cls-13" d="M154,153.12a10.46,10.46,0,0,1-1.73,6.21c-1.12,1.49-5,7.43-7.66,9.87a4.62,4.62,0,0,1-1.43,1h0a.81.81,0,0,1-.36.08,5.22,5.22,0,0,1-.56,0l-.89,0h0c-3.14-.19-8.23-1-9.82-2.31s-1.78-3.1-1.42-4.88a7.33,7.33,0,0,1,.3-1.12c.44-1.2.91-2.4,1.41-3.59s.91-2.14,1.4-3.19h0c.34-.73.7-1.44,1.06-2.16.91-1.63,1.42-2.75,1.88-3.56a8.29,8.29,0,0,1,4.53-3.66,8.52,8.52,0,0,1,4.11-.05c3.37.7,5.2.91,5.88,1.16h0a5.91,5.91,0,0,1,.79.85C152.49,149,154,151.23,154,153.12Z"/><path d="M142.59,170.31h-.34l-.87,0h0c-3.06-.18-8.2-1-9.83-2.32-1.84-1.51-1.76-3.33-1.44-4.92a4.07,4.07,0,0,1,.2-.8c0-.11.07-.21.1-.32.46-1.23.93-2.44,1.41-3.6s.94-2.19,1.41-3.18v0c.34-.74.71-1.47,1.05-2.16.54-.95.94-1.74,1.26-2.38.23-.45.43-.84.62-1.18a7.75,7.75,0,0,1,2.2-2.45,7.86,7.86,0,0,1,2.35-1.23,8.64,8.64,0,0,1,4.14-.05c1.6.33,2.86.56,3.79.72a15.76,15.76,0,0,1,2.09.44v0h0a6.4,6.4,0,0,1,.8.87c.58.72,2.49,3.25,2.53,5.42h0a10.48,10.48,0,0,1-1.74,6.23c-.25.34-.64.9-1.14,1.61-1.67,2.39-4.45,6.38-6.52,8.27a4.46,4.46,0,0,1-1.45,1h0a1.16,1.16,0,0,1-.37.07Zm-1.22-.13h0l.89,0h.56a1.36,1.36,0,0,0,.35-.07h0a4.26,4.26,0,0,0,1.41-1c2.06-1.88,4.85-5.87,6.51-8.25.5-.72.89-1.28,1.15-1.62a10.43,10.43,0,0,0,1.72-6.18c0-2.15-1.94-4.65-2.51-5.37a7.77,7.77,0,0,0-.78-.85h0a17.19,17.19,0,0,0-2.07-.43c-.93-.16-2.2-.39-3.79-.72a8.59,8.59,0,0,0-4.1,0,7.56,7.56,0,0,0-2.33,1.21,7.73,7.73,0,0,0-2.18,2.43l-.61,1.18c-.33.63-.73,1.42-1.27,2.38-.34.68-.7,1.41-1.05,2.15h0c-.47,1-.94,2.07-1.41,3.2s-.95,2.36-1.4,3.58c0,.11-.06.22-.1.33a3.88,3.88,0,0,0-.2.78c-.33,1.65-.39,3.37,1.41,4.85,1.61,1.36,6.74,2.12,9.79,2.3h0Z"/><g class="cls-14"><path class="cls-5" d="M140.15,153.3a32.17,32.17,0,0,1-2.13,2.88c0-.22.08-2.17.08-2.17l-1.78,2.57.53-4.58-2,4.11v-2.52l-2.28,3.78.62-2.23c-.49,1.05-.68,1.48-1.12,2.55l-.2,2.4,1.64-2.72-.45,4.85,1.94-3.05.68,2.24,1.7-3.2.25,3.16,2.1-3.16Z"/></g><path class="cls-12" d="M142.11,169.9a4.11,4.11,0,0,1-2.65-.81c-1.52-1.27-1.62-2.75-1.27-4.48a4.25,4.25,0,0,1,.31-1.06,82.45,82.45,0,0,1,3.86-8.9c.51-.92.87-1.63,1.22-2.29s.51-.92.72-1.32a6.81,6.81,0,0,1,2.08-2.29,7.15,7.15,0,0,1,2.24-1.17,6.49,6.49,0,0,1,2-.31,8,8,0,0,1,1.93.26,12.6,12.6,0,0,1,4.53,2.44l.26.2c2,1.58,3.05,3.15,3.05,4.63a10,10,0,0,1-1.63,5.95c-1.48,1.93-10.43,8-12.51,8.49l-.46.1A19.52,19.52,0,0,1,142.11,169.9Z"/><path d="M157.37,149.77a13.73,13.73,0,0,0-4.84-2.65,6.08,6.08,0,0,0-1.85-.26h-.18a7.22,7.22,0,0,0-2.08.3,8.57,8.57,0,0,0-2.34,1.22,6.75,6.75,0,0,0-2.19,2.44c-.46.82-1,1.94-1.88,3.56-.42.83-.83,1.66-1.21,2.51-.54,1.16-1.05,2.33-1.52,3.51-.4,1-.78,2-1.14,2.93a4.78,4.78,0,0,0-.3,1.12c-.36,1.78-.31,3.46,1.42,4.89a4.33,4.33,0,0,0,2.09.88h0a3.49,3.49,0,0,0,.79,0h.1c.31,0,.62,0,.92-.08h0a18.53,18.53,0,0,0,3-.58c2.24-.51,11.29-6.76,12.71-8.65a10.36,10.36,0,0,0,1.73-6.2C160.67,152.21,158,150.27,157.37,149.77Zm.86,10.78c-1.37,1.83-10.32,7.93-12.26,8.34l-.45.1-.9.21a16.87,16.87,0,0,1-2.56.3,3.87,3.87,0,0,1-2.44-.71c-1.38-1.17-1.48-2.5-1.12-4.12a3.94,3.94,0,0,1,.3-1c.48-1.27,1-2.54,1.51-3.8.23-.56.47-1.12.72-1.67.5-1.15,1-2.28,1.59-3.38.51-.91.91-1.68,1.22-2.29s.51-.91.71-1.32a6.79,6.79,0,0,1,1.93-2.19,8.54,8.54,0,0,1,2.14-1.06,5.58,5.58,0,0,1,1.83-.31,6.09,6.09,0,0,1,1,.09c.26,0,.53.1.79.16a11.27,11.27,0,0,1,4.37,2.39l.16.16.1,0c1.93,1.47,2.9,3,2.9,4.32A9.81,9.81,0,0,1,158.23,160.55Z"/><ellipse class="cls-15" cx="154.23" cy="155.92" rx="5.14" ry="4.07" transform="translate(-10.69 300.49) rotate(-86.55)"/><ellipse class="cls-15" cx="148.58" cy="162.83" rx="3.66" ry="2.95" transform="translate(-22.9 301.34) rotate(-86.55)"/><ellipse class="cls-15" cx="142.6" cy="165.36" rx="2.9" ry="2.29" transform="translate(-31.04 297.75) rotate(-86.55)"/><ellipse class="cls-16" cx="154.48" cy="155.94" rx="1.93" ry="1.37" transform="translate(-10.48 300.76) rotate(-86.55)"/><ellipse class="cls-16" cx="148.71" cy="162.99" rx="1.22" ry="1.63" transform="translate(-27.23 29.86) rotate(-10.51)"/><ellipse class="cls-16" cx="142.57" cy="165.58" rx="0.92" ry="1.22" transform="matrix(0.98, -0.18, 0.18, 0.98, -27.81, 28.78)"/><path class="cls-17" d="M141.24,161.41s.72-1.27,2.65-.51c.41-.81,1.27-3.1,4.78-2.64a7.8,7.8,0,0,1,1.42-7.48c-1-.51-1.62-.86-3.05.71S141.09,161,141.24,161.41Z"/><path class="cls-18" d="M141.23,161.54l0-.11c-.18-.49,4.49-8.51,5.81-10s2.07-1.25,3.05-.76l.13.06,0,.06a7.49,7.49,0,0,0-1.49,7.11c0,.13.06.24.07.32l0,.07h-.08c-3.26-.43-4.19,1.52-4.64,2.46a1.19,1.19,0,0,0-.08.16l0,0,0,0c-1.87-.73-2.57.48-2.58.49Zm7.61-11.13c-.48,0-1,.28-1.76,1.12a45.5,45.5,0,0,0-3.46,5.36,41,41,0,0,0-2.27,4.29,1.59,1.59,0,0,1,.47-.36,2.4,2.4,0,0,1,2,0l.06-.11a4.06,4.06,0,0,1,4.68-2.53c0-.06,0-.14-.06-.23A7.63,7.63,0,0,1,150,150.8h0A2.58,2.58,0,0,0,148.84,150.41Z"/><rect class="cls-19" x="145.25" y="141.84" width="0.17" height="8.89" transform="translate(-20.23 269.2) rotate(-81.78)"/><polygon class="cls-19" points="141.42 153.53 141.27 151.17 141.44 151.16 141.58 153.52 141.42 153.53"/><path class="cls-20" d="M139.42,131.5l5.68,10.43c1,1.77,1.41,3.19-.18,4.26h0c-1.69.88-2.36.14-3.56-1.32l-8.23-9.73a3.58,3.58,0,0,1,1-4.94h0C135.68,129.08,138.29,129.87,139.42,131.5Z"/><path class="cls-19" d="M143.65,146.62c-.87,0-1.48-.67-2.34-1.71l-8.22-9.73a3.64,3.64,0,0,1,1-5,3.28,3.28,0,0,1,2.5-.46,4.53,4.53,0,0,1,2.9,1.78h0l5.68,10.44c1,1.82,1.39,3.25-.2,4.32A2.82,2.82,0,0,1,143.65,146.62Zm-7.79-16.89a3,3,0,0,0-1.73.52,3.52,3.52,0,0,0-.95,4.86l8.22,9.72c1.21,1.48,1.87,2.16,3.49,1.31,1.53-1,1.19-2.36.16-4.18l-5.67-10.43a4.44,4.44,0,0,0-2.82-1.73A3.39,3.39,0,0,0,135.86,129.73Z"/><path class="cls-21" d="M139.85,132.29l6.07,10.82c1,1.76-2.54,4.39-3.74,2.94L134,136.32a3.57,3.57,0,0,1,1-4.94h0A3.5,3.5,0,0,1,139.85,132.29Z"/><path class="cls-22" d="M143.14,146.52a1.25,1.25,0,0,1-1-.44l-8.23-9.73a3.64,3.64,0,0,1,1-5,3.56,3.56,0,0,1,2.74-.58,3.51,3.51,0,0,1,2.27,1.51h0L146,143.08c.54,1-.2,2.17-1.23,2.87A3,3,0,0,1,143.14,146.52ZM137,130.79a3.55,3.55,0,0,0-2.95,5.5l8.23,9.72c.55.68,1.63.41,2.45-.15,1-.67,1.7-1.83,1.19-2.72l-6.06-10.82a3.36,3.36,0,0,0-2.2-1.46A3,3,0,0,0,137,130.79Z"/><path class="cls-10" d="M136.06,130.35a2.06,2.06,0,0,1,1.58.13c.25-1.51.28-5.26-.21-5.57a3.56,3.56,0,0,0-1.69-.37.86.86,0,0,0-1,.73.55.55,0,0,0,0,.26c.38,1.79,1,4.52,1,4.52Z"/><path class="cls-11" d="M137.68,130.55l-.06,0a2,2,0,0,0-1.55-.12h0l-.3-.33h0s-.64-2.75-1-4.52a.49.49,0,0,1,0-.28.91.91,0,0,1,1-.76,3.66,3.66,0,0,1,1.7.37c.52.33.49,4.1.24,5.62Zm-1-.35a1.94,1.94,0,0,1,.89.21c.25-1.61.23-5.19-.2-5.47a3.72,3.72,0,0,0-1.67-.35.81.81,0,0,0-.94.69.63.63,0,0,0,0,.24c.37,1.71,1,4.31,1,4.51l.25.27A2.44,2.44,0,0,1,136.72,130.2Z"/><path class="cls-12" d="M137.69,130.47c.25-1.51.68-5.09.18-5.45a4.39,4.39,0,0,0-1.66-.47.85.85,0,0,0-1,.73.65.65,0,0,0,0,.31c.38,1.79.69,4.68.83,4.81A2,2,0,0,1,137.69,130.47Z"/><path class="cls-11" d="M137.73,130.54l-.06,0a1.88,1.88,0,0,0-1.59-.07l0,0,0,0a8.44,8.44,0,0,1-.32-1.77c-.14-1-.32-2.17-.52-3.07a.73.73,0,0,1,0-.33.9.9,0,0,1,1-.77,4.44,4.44,0,0,1,1.67.48c.55.4.06,4.2-.15,5.5Zm-.91-.33a1.82,1.82,0,0,1,.84.19c.32-2,.6-5,.19-5.34a4.28,4.28,0,0,0-1.64-.47.82.82,0,0,0-.94.69.61.61,0,0,0,0,.3c.2.91.38,2.11.52,3.08.12.78.23,1.53.29,1.69A1.83,1.83,0,0,1,136.82,130.21Z"/><path class="cls-10" d="M134,131.43a2.22,2.22,0,0,1,1.32-.86c-.71-1.35-3-4.35-3.53-4.34a4.14,4.14,0,0,0-1.61.77.9.9,0,0,0-.31,1.21c.07.09.08.13.15.22,1.36,1.22,3.56,3,3.56,3Z"/><path class="cls-11" d="M134,131.48l-.46,0h0s-2.22-1.78-3.56-3a.66.66,0,0,1-.08-.13l-.08-.1a1,1,0,0,1-.1-.71.93.93,0,0,1,.43-.57,4,4,0,0,1,1.62-.77h0c.63,0,2.9,3.05,3.58,4.36l0,.06h-.06a2.17,2.17,0,0,0-1.3.84Zm-.43-.11h.38a2.35,2.35,0,0,1,1.28-.84c-.74-1.38-2.93-4.26-3.46-4.26h0a4.15,4.15,0,0,0-1.58.75.89.89,0,0,0-.39.52.86.86,0,0,0,.09.63l.08.12.07.1C131.29,129.56,133.37,131.23,133.54,131.37Z"/><path class="cls-12" d="M135.32,130.56c-.71-1.35-2.53-4.5-3.15-4.47a6.37,6.37,0,0,0-1.63.61.9.9,0,0,0-.37,1.17c.07.09.09.19.2.22,1.35,1.22,3.42,3.32,3.58,3.34A2.11,2.11,0,0,1,135.32,130.56Z"/><path class="cls-11" d="M134,131.48h0a13.18,13.18,0,0,1-1.59-1.46c-.66-.63-1.4-1.35-2-1.89a.32.32,0,0,1-.17-.15.35.35,0,0,0-.05-.08,1,1,0,0,1,.38-1.24,6.62,6.62,0,0,1,1.65-.62h0c.69,0,2.58,3.33,3.19,4.5l0,.06h-.06a2,2,0,0,0-1.35.85Zm-1.79-5.35h0a6.79,6.79,0,0,0-1.62.61.86.86,0,0,0-.35,1.11l0,.08c0,.06.06.1.12.11h0c.6.55,1.35,1.27,2,1.91s1.36,1.32,1.52,1.41a2.16,2.16,0,0,1,1.32-.84C134.31,128.73,132.71,126.13,132.18,126.13Z"/><path class="cls-10" d="M133.13,133.94a2.21,2.21,0,0,1,.4-1.54c-1.46-.51-3.85-1.46-4.23-1.06s-.36.28-.53.94a.86.86,0,0,0,.61,1.12c.06,0,.16,0,.22.06a12.73,12.73,0,0,1,3.18.77Z"/><path class="cls-11" d="M132.79,134.28h0a13,13,0,0,0-3.17-.77h0l-.09,0a.27.27,0,0,1-.12,0,.85.85,0,0,1-.55-.39,1,1,0,0,1-.08-.78c.16-.63.22-.69.48-.92l.06,0c.32-.33,1.78.16,3.66.84l.62.22,0,0,0,.05a2.07,2.07,0,0,0-.39,1.51v0Zm-3.18-.87a12.61,12.61,0,0,1,3.16.77l.32-.25a2.16,2.16,0,0,1,.37-1.5l-.56-.2c-1.37-.5-3.26-1.18-3.57-.86l-.06,0c-.25.23-.3.27-.45.87a.87.87,0,0,0,.07.71.75.75,0,0,0,.5.35h0l.09,0Z"/><path class="cls-12" d="M133.58,132.39c-1.46-.52-3.63-1.87-4.06-1.47a1.74,1.74,0,0,0-.64.92.86.86,0,0,0,.61,1.12c.06,0,.16,0,.22.06a24.28,24.28,0,0,1,3.43,1A2,2,0,0,1,133.58,132.39Z"/><path class="cls-11" d="M133.13,134a2,2,0,0,1-.53-.17,13.6,13.6,0,0,0-2.9-.81h0l-.09,0a.27.27,0,0,1-.12,0,.87.87,0,0,1-.55-.39,1,1,0,0,1-.08-.78,1.71,1.71,0,0,1,.65-.94c.3-.28,1.28.18,2.42.72a17.84,17.84,0,0,0,1.69.74l.06,0,0,0a1.91,1.91,0,0,0-.42,1.57v0l0,0Zm0-.09Zm-3.41-1a13.47,13.47,0,0,1,2.91.82l.46.16a2,2,0,0,1,.41-1.54c-.5-.18-1.07-.45-1.63-.72-1-.48-2.06-1-2.32-.73a1.62,1.62,0,0,0-.62.89.87.87,0,0,0,.07.71.75.75,0,0,0,.5.35h0l.09,0A.35.35,0,0,1,129.72,133Z"/><path class="cls-10" d="M139.19,131.14l-1.09-.45-.19-.42c-.2-.43,1.48-3.76,2.17-3.44s1.47,1,1.42,1.26l.08.4A27.06,27.06,0,0,1,139.19,131.14Z"/><path class="cls-11" d="M139.19,131.19h0s0,0,0,0l-1.09-.44-.2-.44c-.16-.36.81-2.44,1.6-3.22.26-.26.47-.35.63-.28.68.31,1.48,1,1.45,1.3l.08.41v0A20.51,20.51,0,0,1,139.19,131.19Zm-1.05-.53,1.07.44a33.48,33.48,0,0,0,2.33-2.62l-.09-.39h0c0-.22-.65-.87-1.38-1.2-.16-.08-.38.09-.54.25a6.79,6.79,0,0,0-1.58,3.12Z"/><path class="cls-12" d="M139.38,131.56a1.91,1.91,0,0,0-.58-.55l-.7-.32c-.45-.16,1.49-3.75,2.18-3.43s1.32,1.07,1.28,1.34A16.12,16.12,0,0,1,139.38,131.56Z"/><path class="cls-11" d="M139.39,131.62a.07.07,0,0,1,0,0,1.84,1.84,0,0,0-.57-.53l-.68-.32s-.08,0-.09-.13a6.69,6.69,0,0,1,1.84-3.26c.18-.14.34-.18.46-.12.69.32,1.35,1.08,1.3,1.39a17.9,17.9,0,0,1-2.2,3Zm.79-4.33a.54.54,0,0,0-.29.13,6.68,6.68,0,0,0-1.8,3.17.06.06,0,0,0,0,.06l.7.32a2,2,0,0,1,.59.55,20.63,20.63,0,0,0,2.1-2.93c0-.24-.56-1-1.25-1.29Z"/><ellipse class="cls-12" cx="137.06" cy="134.27" rx="1.37" ry="1.27" transform="translate(-38.05 212.68) rotate(-68.53)"/><path class="cls-11" d="M137,135.8a1.24,1.24,0,0,1-.5-.1,1.55,1.55,0,0,1,1.13-2.87h0a1.44,1.44,0,0,1,.79.8,1.6,1.6,0,0,1,0,1.16A1.56,1.56,0,0,1,137,135.8Zm.14-2.72a1.21,1.21,0,0,0-1.1.78,1.11,1.11,0,1,0,2.05.81,1.22,1.22,0,0,0,0-.92,1,1,0,0,0-.59-.6A1,1,0,0,0,137.13,133.08Z"/><path class="cls-21" d="M138.85,142.29s10-4.27,14.45-4.83a210.22,210.22,0,0,1,22,1c-1.22.86-11.75,4.67-13.28,4.88S142.72,143.05,138.85,142.29Z"/><path class="cls-23" d="M158.89,142.14s4.07-2.14,4.53-2.29-7.63-.71-7.63-.71-4,2-4.22,2.23S158.89,142.14,158.89,142.14Z"/><path class="cls-24" d="M175.42,138.48s.2,16.93-1.27,21.1c-1.32,1-10.17,4.58-13,4.42-.2-1.93.15-19.32,1-20.69A80.57,80.57,0,0,1,175.42,138.48Z"/><path class="cls-16" d="M138.85,142.29s-.71,8.59-.66,15a7.32,7.32,0,0,0,2.65,5c.86.86,21.66,2.64,22.93,1.88a6.82,6.82,0,0,1-2-5.24c.2-4.17.25-10.48.46-15.56C161.43,142.9,142.52,141.88,138.85,142.29Z"/><path class="cls-25" d="M159.71,133.44l-.16,6.36-5.59-.1c-.92,0-1.63-1.48-1.63-3.21s.87-3.15,1.78-3.15a1.31,1.31,0,0,1,.87.46Z"/><path d="M159.55,139.85h0l-5.59-.1c-.93,0-1.68-1.46-1.68-3.26s.85-3.21,1.83-3.21a1.4,1.4,0,0,1,.89.46l4.7-.36,0,0a0,0,0,0,1,0,0l-.15,6.36A.06.06,0,0,1,159.55,139.85Zm-5.45-6.46c-.91,0-1.71,1.45-1.71,3.1s.7,3.15,1.57,3.15l5.54.1.15-6.24-4.67.35a0,0,0,0,1,0,0A1.27,1.27,0,0,0,154.1,133.39Z"/><path class="cls-26" d="M135.09,131.71a13.61,13.61,0,0,0,5.7,2.09,24.39,24.39,0,0,0,5.79-.11c6.67-.66,9.77-4.06,9.77-4.06s-.31-4.58-.36-6.16-2-4.42-2-4.42Z"/><path class="cls-27" d="M143.2,134a21.42,21.42,0,0,1-2.42-.13,13.44,13.44,0,0,1-5.72-2.09l-.06,0,.06,0L154,119l0,0c.08.12,2,2.88,2,4.45s.35,6.11.36,6.15v0l0,0s-3.19,3.43-9.79,4.08A26.21,26.21,0,0,1,143.2,134Zm-8-2.26a13.45,13.45,0,0,0,5.61,2,25.05,25.05,0,0,0,5.79-.1c6.34-.63,9.49-3.8,9.72-4,0-.34-.31-4.63-.36-6.14s-1.76-4-2-4.36Z"/><path class="cls-26" d="M177.56,133.08s-1.33,2.24-5.6,1.94a62,62,0,0,1-10.42-2.14l-3.77-5.29Z"/><path class="cls-27" d="M172.73,135.09l-.77,0a62,62,0,0,1-10.44-2.13h0l-3.85-5.4.14,0,19.84,5.5,0,.06S176.38,135.09,172.73,135.09Zm-11.16-2.25A61.46,61.46,0,0,0,172,135c3.82.27,5.28-1.52,5.52-1.86l-19.59-5.44Z"/><path class="cls-16" d="M154.52,119.91l2.24,0-.26,7.12-2.13,0A45,45,0,0,0,154.52,119.91Z"/><polygon class="cls-28" points="154.42 127.03 155.74 128.97 157.26 129.02 156.5 127.08 154.42 127.03"/><path d="M157.26,129.06h0l-1.52-.05,0,0-1.32-1.93a.07.07,0,0,1,0,0,.05.05,0,0,1,0,0h0l2.08.06a.05.05,0,0,1,.05,0l.76,1.93s0,0,0,0S157.28,129.06,157.26,129.06Zm-1.5-.14,1.43.05-.72-1.84-2,0Z"/><polygon class="cls-29" points="152.74 126.98 158.54 127.13 157.88 137.36 152.38 137.1 152.74 126.98"/><path class="cls-19" d="M157.92,137.41h0l-5.54-.25v-.05l.36-10.17h.05l5.85.16Zm-5.49-.35,5.4.25.65-10.13-5.7-.15Z"/><path class="cls-26" d="M154.42,127l-.21,1.22c0,.05-.05.1-.1.15l-1.52,1.07a.25.25,0,0,1-.31,0c0-.05-.05-.05-.05-.1l0-.36s0-.15,0-.15l1.73-1.93a.19.19,0,0,1,.3,0C154.42,126.83,154.42,126.93,154.42,127Z"/><polygon class="cls-24" points="161.54 132.88 160.93 135.22 157.88 137.36 158.54 127.13 161.54 132.88"/><path class="cls-19" d="M157.82,137.45,158.5,127l3.09,5.92h0l-.61,2.36h0Zm.75-10.14-.64,9.95,2.95-2.07.6-2.3Z"/><path class="cls-26" d="M156.6,127.29s.05,1.17.31,1.37a32.83,32.83,0,0,0,3.81,1.73c.41.05.31-.81.31-.81Z"/><path class="cls-27" d="M160.76,130.44h0a31.64,31.64,0,0,1-3.83-1.74c-.28-.21-.33-1.29-.33-1.41v-.08l.08,0,4.44,2.3v0s.06.59-.14.79A.25.25,0,0,1,160.76,130.44Zm-4.1-3.07c0,.36.1,1.11.28,1.25a31.88,31.88,0,0,0,3.8,1.72.16.16,0,0,0,.13,0,1.1,1.1,0,0,0,.11-.69Z"/><path class="cls-27" d="M160.19,130.28,157,128.76c-.33,0-.43-1.23-.44-1.47h.09c0,.67.2,1.38.36,1.38h0c.4.2,3.18,1.51,3.2,1.52Z"/><path class="cls-30" d="M175.78,133.19c-5.34,0-17.75-4.48-18.67-5.7a34.62,34.62,0,0,1,.21-7.78.8.8,0,0,1,.71-.66c.81,0,1.68,0,2.54,0a81.88,81.88,0,0,1,16.17,1.78.69.69,0,0,1,.56.56c1,4.07.2,9.2-.2,11.18a.78.78,0,0,1-.66.62,2.56,2.56,0,0,1-.66.05Z"/><path class="cls-31" d="M160.62,119.56a77.72,77.72,0,0,1,16.07,1.78.16.16,0,0,1,.15.15c1,4,.21,9-.2,10.93a.17.17,0,0,1-.15.16,3,3,0,0,1-.66,0c-5.14,0-16.63-4.17-18.16-5.44a36.1,36.1,0,0,1,.26-7.43c0-.1.1-.15.2-.15.76,0,1.63,0,2.49,0Zm0-1.12c-.86,0-1.68,0-2.54,0a1.3,1.3,0,0,0-1.22,1.12,33.89,33.89,0,0,0-.21,8c.31,1.33,13.79,6.11,19.18,6.11a3.69,3.69,0,0,0,.81-.06,1.28,1.28,0,0,0,1.12-1.06c.41-1.94,1.27-7.22.2-11.45a1.25,1.25,0,0,0-1-1,84,84,0,0,0-16.33-1.78Z"/><polygon class="cls-29" points="152.79 138.73 152.99 141.43 158.89 141.68 158.43 138.98 152.79 138.73"/><path class="cls-19" d="M159,141.73h-.06l-5.94-.26-.21-2.79,5.74.26v0Zm-5.91-.35,5.79.25-.44-2.6-5.55-.25Z"/><polygon class="cls-24" points="161.23 137.71 162.66 139.8 158.89 141.68 158.43 138.98 161.23 137.71"/><path class="cls-19" d="M158.85,141.75l-.47-2.79,2.87-1.31,0,0,1.46,2.13,0,0Zm-.36-2.74.44,2.6,3.65-1.83-1.37-2Z"/><ellipse class="cls-32" cx="159.62" cy="136.66" rx="3.2" ry="1.68" transform="translate(18.75 292.58) rotate(-88.47)"/><path d="M152.61,129.46l-.05-.08,1.51-1.06a4.69,4.69,0,0,0,.25-1.44h.09a4.7,4.7,0,0,1-.25,1.49v0h0Z"/><path class="cls-30" d="M137.43,131.66a13.41,13.41,0,0,1-1.47-.1.76.76,0,0,1-.61-.61c-.26-2-.77-7.17.5-11.19a.82.82,0,0,1,.61-.51,55.34,55.34,0,0,1,8.7-.61c2.59,0,5.19.15,7.78.41a.74.74,0,0,1,.66.66,32.84,32.84,0,0,1-.3,7.78C152.59,128.46,143,131.66,137.43,131.66Z"/><path class="cls-31" d="M145.16,118v1.17h0a76.2,76.2,0,0,1,7.73.41q.08,0,.15.15a36.14,36.14,0,0,1-.2,7.43c-1.32,1-10.27,3.91-15.36,3.91a12.62,12.62,0,0,1-1.37-.1.11.11,0,0,1-.1-.1c-.26-2-.77-7,.51-10.94a.11.11,0,0,1,.1-.1,55.28,55.28,0,0,1,8.64-.61l-.1-1.22Zm.05,0a56.22,56.22,0,0,0-8.8.66,1.31,1.31,0,0,0-1.06.92c-1.33,4.12-.82,9.46-.56,11.44a1.34,1.34,0,0,0,1.06,1.12,5.61,5.61,0,0,0,1.58.1c5.49,0,16.07-3.3,16.48-4.53a32.44,32.44,0,0,0,.3-8,1.4,1.4,0,0,0-1.17-1.22A66.2,66.2,0,0,0,145.21,118Z"/><path class="cls-10" d="M163.67,129a3.76,3.76,0,0,1-2.74-1.38,4.5,4.5,0,0,1-1.07-3.2,4.2,4.2,0,0,1,4.07-4.17h.15a4.18,4.18,0,0,1,3.81,4.52,4.25,4.25,0,0,1-4.07,4.23Z"/><path class="cls-33" d="M163.93,120.73h.15a3.44,3.44,0,0,1,2.44,1.22,4.13,4.13,0,0,1,1,2.84,3.75,3.75,0,0,1-3.56,3.72h-.16a3.46,3.46,0,0,1-2.44-1.22,4.06,4.06,0,0,1-.91-2.8,3.73,3.73,0,0,1,3.51-3.76Zm0-.92a4.74,4.74,0,0,0-4.53,4.63,4.68,4.68,0,0,0,4.27,5h.21a4.85,4.85,0,0,0,.25-9.66Z"/><path class="cls-10" d="M146.69,128.56a4.37,4.37,0,0,1,.25-8.7h.15a4.37,4.37,0,0,1-.2,8.7Z"/><path class="cls-33" d="M146.89,120.32H147a3.74,3.74,0,0,1,3.36,4.07,3.67,3.67,0,0,1-3.56,3.71h-.15a3.44,3.44,0,0,1-2.44-1.22,4,4,0,0,1-.92-2.8,3.75,3.75,0,0,1,3.56-3.76Zm0-.92a4.74,4.74,0,0,0-4.53,4.63,4.69,4.69,0,0,0,4.28,5h.2a4.88,4.88,0,0,0,.25-9.72Z"/><ellipse class="cls-34" cx="159.74" cy="136.82" rx="1.58" ry="0.71" transform="translate(15.81 290.18) rotate(-87.4)"/><path class="cls-19" d="M156.85,164.26c-14-.69-15.45-1.59-16.2-2.07l-.19-.12h0c-2-2.2-2.14-3.52-2.26-4.49,0-.11,0-.21,0-.31-.4-1,.62-14.4.66-15v0h0c.11-.05,11.08-4.48,13.6-4.74v.12c-2.44.24-12.87,4.44-13.53,4.71-.06.78-1,14-.67,14.89h0c0,.11,0,.22,0,.33.12.95.28,2.25,2.23,4.42l.19.11c.69.44,2.13,1.37,16.15,2.06Z"/><path class="cls-19" d="M175.27,150.9l-.11,0c.15-.63.2-11.63.2-12.36-.7-.24-9.5-.69-14.13-.89v-.12c.56,0,13.65.62,14.22.93h0v0C175.47,139,175.42,150.24,175.27,150.9Z"/><ellipse class="cls-35" cx="146.48" cy="125.67" rx="1.98" ry="1.68" transform="translate(14.3 266.3) rotate(-87.4)"/><ellipse class="cls-35" cx="163.6" cy="126.09" rx="1.98" ry="1.68" transform="translate(30.22 283.81) rotate(-87.4)"/><path class="cls-36" d="M156.91,148.19l-13.43-.92a1,1,0,0,0-1.07,1v0l-.1,8a1,1,0,0,0,.92,1l13.42.92a1,1,0,0,0,1.07-1h0l.1-8A1,1,0,0,0,156.91,148.19Z"/><path class="cls-37" d="M157.11,148.6l-13.48-1a.75.75,0,0,0-.81.71v0l-.1,8a.82.82,0,0,0,.71.81l13.48,1a.75.75,0,0,0,.81-.71v-.06l.1-8A.78.78,0,0,0,157.11,148.6Z"/><path class="cls-38" d="M148.26,152.05l8.29.51a.5.5,0,0,0,.51-.46v-2.39a.49.49,0,0,0-.46-.5l-8.29-.51a.49.49,0,0,0-.5.45v2.39C147.75,151.8,148,152,148.26,152.05Z"/><ellipse class="cls-39" cx="155.22" cy="150.83" rx="1.22" ry="0.97" transform="matrix(0.04, -1, 1, 0.04, -1.2, 300.41)"/><ellipse class="cls-40" cx="152.38" cy="150.63" rx="1.22" ry="0.97" transform="translate(-3.73 297.39) rotate(-87.9)"/><ellipse class="cls-41" cx="149.54" cy="150.48" rx="1.22" ry="0.97" transform="translate(-6.79 293.89) rotate(-87.71)"/><path class="cls-42" d="M149.84,154.14l6.51.41a.56.56,0,0,0,.56-.46V154h0a.56.56,0,0,0-.46-.56h0l-6.51-.41a.55.55,0,0,0-.56.46v.05h0a.47.47,0,0,0,.51.56C149.79,154.14,149.79,154.19,149.84,154.14Z"/><path class="cls-43" d="M153.4,157.55l2.9.15a.55.55,0,0,0,.56-.46v-.05h0a.56.56,0,0,0-.46-.56h-.05l-2.9-.15a.55.55,0,0,0-.56.46V157h0a.52.52,0,0,0,.51.56Z"/><path class="cls-43" d="M153.45,156.07l2.9.15a.55.55,0,0,0,.56-.45v-.05h0a.56.56,0,0,0-.46-.56h0l-2.9-.16a.56.56,0,0,0-.56.46v0h0a.47.47,0,0,0,.51.56Z"/><polygon class="cls-44" points="146.89 148.65 142.92 148.34 142.82 156.53 146.84 156.78 146.89 148.65"/><g class="cls-45"><rect class="cls-12" x="143.13" y="148.8" width="0.86" height="1.02"/><path class="cls-12" d="M143.63,150.32h.87l.48.5a.68.68,0,1,0-1.35,0Z"/><path class="cls-46" d="M143.66,150.32h.84l.45.5a.65.65,0,1,0-1.29,0Z"/><path class="cls-47" d="M143.68,150.32h.82l.43.5a.63.63,0,0,0-1.25,0Z"/><path class="cls-48" d="M143.71,150.32h.79l.4.5a.6.6,0,0,0-.59-.61.59.59,0,0,0-.6.59Z"/><path class="cls-49" d="M143.74,150.32h.76l.38.5a.57.57,0,0,0-1.14,0Z"/><path class="cls-50" d="M143.76,150.32h.74l.35.5a.55.55,0,0,0-.54-.55.54.54,0,0,0-.55.53Z"/><path class="cls-51" d="M143.79,150.32h.71l.32.5a.52.52,0,1,0-1,0Z"/><path class="cls-52" d="M143.82,150.32h.68l.3.5a.5.5,0,0,0-.49-.5.48.48,0,0,0-.49.48Z"/></g><path class="cls-27" d="M143.53,149.84a.49.49,0,0,1-.43-.53.52.52,0,0,1,.48-.53.49.49,0,0,1,.43.53A.52.52,0,0,1,143.53,149.84Zm.05-1a.49.49,0,0,0-.43.49.44.44,0,0,0,.38.48.48.48,0,0,0,.44-.48A.45.45,0,0,0,143.58,148.82Z"/><path class="cls-27" d="M143.56,149.82a1.81,1.81,0,0,1,0-1l.05,0a1.7,1.7,0,0,0,0,1Z"/><path class="cls-27" d="M143.56,149.37a2.32,2.32,0,0,1-.44,0v0a3.1,3.1,0,0,0,.86,0v0A2.15,2.15,0,0,1,143.56,149.37Z"/><g class="cls-53"><rect class="cls-12" x="145.82" y="155.56" width="0.86" height="1.02"/><path class="cls-12" d="M146.3,157.09h.89l.46.48a.68.68,0,1,0-1.35,0Z"/><path class="cls-46" d="M146.32,157.09h.87l.43.48a.63.63,0,0,0-.64-.65.65.65,0,0,0-.66.64Z"/><path class="cls-47" d="M146.35,157.09h.84l.41.48a.63.63,0,0,0-1.25,0Z"/><path class="cls-48" d="M146.38,157.09h.81l.38.48a.59.59,0,0,0-.59-.6.59.59,0,0,0-.6.59Z"/><path class="cls-49" d="M146.4,157.09h.79l.35.48A.56.56,0,0,0,147,157a.57.57,0,0,0-.58.56Z"/><path class="cls-50" d="M146.43,157.09h.76l.33.48A.55.55,0,0,0,147,157a.55.55,0,0,0-.55.54Z"/><path class="cls-51" d="M146.46,157.09h.73l.3.48a.51.51,0,0,0-.51-.52.5.5,0,0,0-.52.51Z"/><path class="cls-52" d="M146.48,157.09h.71l.27.48a.49.49,0,0,0-.48-.5.51.51,0,0,0-.5.49Z"/></g><path class="cls-27" d="M146.23,156.6a.54.54,0,0,1,.05-1.06.49.49,0,0,1,.43.53A.53.53,0,0,1,146.23,156.6Zm.05-1a.48.48,0,0,0-.44.48c0,.24.2.49.39.49a.48.48,0,0,0,.43-.49A.43.43,0,0,0,146.28,155.59Z"/><path class="cls-27" d="M146.21,156.59a1.65,1.65,0,0,1,0-1h0a1.7,1.7,0,0,0,0,1Z"/><path class="cls-27" d="M146.25,156.13a2.15,2.15,0,0,1-.43,0v0a2.43,2.43,0,0,0,.85,0v0A2.18,2.18,0,0,1,146.25,156.13Z"/><g class="cls-54"><rect class="cls-12" x="142.97" y="155.36" width="0.86" height="1.02"/><path class="cls-12" d="M143.48,156.88h.87l.48.49a.69.69,0,0,0-.67-.69.68.68,0,0,0-.68.67Z"/><path class="cls-46" d="M143.5,156.88h.85l.45.49a.65.65,0,0,0-.64-.66.66.66,0,0,0-.66.64Z"/><path class="cls-47" d="M143.53,156.88h.82l.42.49a.62.62,0,0,0-1.24,0Z"/><path class="cls-48" d="M143.56,156.88h.79l.4.49a.61.61,0,0,0-.59-.61.59.59,0,0,0-.6.59Z"/><path class="cls-49" d="M143.58,156.88h.77l.37.49a.56.56,0,0,0-.56-.58.58.58,0,0,0-.58.56Z"/><path class="cls-50" d="M143.61,156.88h.74l.35.49a.55.55,0,0,0-.54-.55.53.53,0,0,0-.55.53Z"/><path class="cls-51" d="M143.63,156.88h.72l.32.49a.52.52,0,1,0-1,0Z"/><path class="cls-52" d="M143.66,156.88h.69l.29.49a.48.48,0,0,0-.48-.5.49.49,0,0,0-.5.48Z"/></g><path class="cls-27" d="M143.38,156.4a.54.54,0,0,1,.05-1.06.49.49,0,0,1,.43.53A.52.52,0,0,1,143.38,156.4Zm.05-1a.48.48,0,0,0-.43.49c0,.24.19.48.38.48a.48.48,0,0,0,.44-.48A.45.45,0,0,0,143.43,155.38Z"/><path class="cls-27" d="M143.41,156.38a1.81,1.81,0,0,1,0-1l0,0a1.7,1.7,0,0,0,0,1Z"/><path class="cls-27" d="M143.41,155.93a2.18,2.18,0,0,1-.44,0v0a2.43,2.43,0,0,0,.85,0v0A2.15,2.15,0,0,1,143.41,155.93Z"/><g class="cls-55"><rect class="cls-12" x="145.62" y="148.95" width="0.86" height="1.02"/><path class="cls-12" d="M146.09,150.48h.9l.45.48a.68.68,0,0,0-.67-.68.67.67,0,0,0-.68.67Z"/><path class="cls-46" d="M146.11,150.48H147l.42.48a.64.64,0,0,0-.64-.65.65.65,0,0,0-.66.64Z"/><path class="cls-47" d="M146.14,150.48H147l.39.48a.62.62,0,1,0-1.24,0Z"/><path class="cls-48" d="M146.16,150.48H147l.37.48a.59.59,0,0,0-.59-.6.6.6,0,0,0-.61.59Z"/><path class="cls-49" d="M146.19,150.48h.8l.34.48a.57.57,0,1,0-1.14,0Z"/><path class="cls-50" d="M146.22,150.48H147l.31.48a.53.53,0,0,0-.53-.55.55.55,0,0,0-.55.54Z"/><path class="cls-51" d="M146.24,150.48H147l.29.48a.52.52,0,0,0-1,0Z"/><path class="cls-52" d="M146.27,150.48H147l.26.48a.49.49,0,0,0-.48-.5.5.5,0,0,0-.5.49Z"/></g><path class="cls-27" d="M146,150a.49.49,0,0,1-.43-.53.52.52,0,0,1,.48-.53.49.49,0,0,1,.43.53A.53.53,0,0,1,146,150Zm.05-1a.49.49,0,0,0-.44.49.44.44,0,0,0,.39.49.49.49,0,0,0,.43-.49C146.46,149.22,146.32,149,146.08,149Z"/><path class="cls-27" d="M146,150a1.84,1.84,0,0,1,0-1l.05,0a1.7,1.7,0,0,0,0,1Z"/><path class="cls-27" d="M146.05,149.52a2.32,2.32,0,0,1-.44,0v0a2.48,2.48,0,0,0,.86,0v0A2.32,2.32,0,0,1,146.05,149.52Z"/><path class="cls-19" d="M154.29,154.14a1,1,0,0,1-.76-.42c-.12-.14-.23-.27-.39-.27s-.32.14-.48.29a1,1,0,0,1-.79.38c-.4,0-.5-.16-.57-.25a.19.19,0,0,0-.19-.11.37.37,0,0,0-.28.15.33.33,0,0,1-.33.15c-.19,0-.29-.32-.39-.58s-.15-.38-.22-.38V153c.11,0,.18.19.27.42s.2.52.35.55.21,0,.28-.13a.43.43,0,0,1,.32-.18.27.27,0,0,1,.24.13c.06.09.15.2.53.23a.89.89,0,0,0,.74-.36.76.76,0,0,1,.52-.3.61.61,0,0,1,.43.28.9.9,0,0,0,1.14.33,4.7,4.7,0,0,1,2.21.05l0,.05a4.53,4.53,0,0,0-2.17-.05A1.29,1.29,0,0,1,154.29,154.14Z"/><path class="cls-13" d="M155.69,167.46a7.65,7.65,0,0,1,.3-1.12,81.34,81.34,0,0,1,3.87-9c.91-1.62,1.42-2.74,1.88-3.56a7.18,7.18,0,0,1,2.19-2.44,7.28,7.28,0,0,1,6.4-1.27c3.41.71,5.24.92,5.9,1.17.61.51,3.26,3.71,3.31,6.26a10.43,10.43,0,0,1-1.73,6.2c-1.42,1.88-7.22,10.93-9.51,11-2.64,0-9.41-.77-11.29-2.34A4.83,4.83,0,0,1,155.69,167.46Z"/><path d="M168.08,174.78c-2.59,0-9.21-.77-11.1-2.35-.91-.86-1.89-2.2-1.33-5a4.17,4.17,0,0,1,.2-.81,3,3,0,0,0,.1-.32,84,84,0,0,1,3.87-9c.54-1,.94-1.74,1.26-2.37.23-.46.43-.85.62-1.19a7.85,7.85,0,0,1,8.65-3.73c1.59.34,2.87.56,3.79.73a15.54,15.54,0,0,1,2.11.44h0c.55.46,3.27,3.68,3.32,6.29a10.45,10.45,0,0,1-1.74,6.22c-.26.35-.66.93-1.17,1.66-2.27,3.25-6.48,9.3-8.37,9.35Zm.33-24.88a7.33,7.33,0,0,0-4.46,1.52,7.19,7.19,0,0,0-2.17,2.43c-.19.34-.39.73-.62,1.18-.33.64-.73,1.43-1.27,2.38a83,83,0,0,0-3.86,9c0,.1-.06.21-.1.32a4,4,0,0,0-.2.79h0c-.55,2.74.41,4.06,1.31,4.9,1.81,1.51,8.41,2.38,11.26,2.32,1.85,0,6-6.07,8.3-9.3.51-.74.92-1.32,1.18-1.66a10.45,10.45,0,0,0,1.72-6.18c-.05-2.57-2.73-5.75-3.29-6.22a13.71,13.71,0,0,0-2.08-.44c-.93-.17-2.2-.39-3.8-.73A7,7,0,0,0,168.41,149.9Z"/><g class="cls-14"><polygon class="cls-5" points="157.72 161.37 160 160.3 160.16 163.02 161.92 160.89 160.79 165.84 163.96 159.98 163.06 164.6 165.63 160.3 165.94 163.29 167.96 158.41 166.4 160.32 166.48 155.36 163.67 158.56 163.96 155.56 161.04 158.41 160.15 156.32 157.72 161.37"/></g><path class="cls-12" d="M167.69,174.33a4.07,4.07,0,0,1-2.64-.82c-1.53-1.27-1.63-2.74-1.28-4.47a4.32,4.32,0,0,1,.31-1.07,81.79,81.79,0,0,1,3.86-8.9c.51-.91.87-1.63,1.22-2.29.26-.51.51-.91.72-1.32a7,7,0,0,1,2.08-2.29A7.37,7.37,0,0,1,174.2,152a6.8,6.8,0,0,1,2-.3,8.67,8.67,0,0,1,1.94.25,12.64,12.64,0,0,1,4.52,2.44l.26.21c.76.61,3,2.39,3,4.62a10,10,0,0,1-1.63,5.95c-1.48,1.94-10.43,8-12.51,8.5l-.46.1A24.06,24.06,0,0,1,167.69,174.33Z"/><path d="M176.08,152.05h0a7.7,7.7,0,0,1,1.83.26,11.25,11.25,0,0,1,4.38,2.39l.15.15.1.05c1.93,1.48,2.9,2.95,2.9,4.32a9.81,9.81,0,0,1-1.58,5.75c-1.37,1.83-10.32,7.93-12.25,8.34l-.46.1a15.46,15.46,0,0,1-3.46.51,3.82,3.82,0,0,1-2.44-.71c-1.37-1.17-1.48-2.49-1.12-4.12a3.44,3.44,0,0,1,.3-1,92.55,92.55,0,0,1,3.82-8.85c.51-.91.91-1.67,1.22-2.28s.51-.92.71-1.33a6.73,6.73,0,0,1,2-2.13,9.22,9.22,0,0,1,2.09-1.12,4.39,4.39,0,0,1,1.83-.31Zm0-.81a7.22,7.22,0,0,0-2.08.3,8.6,8.6,0,0,0-2.34,1.23,6.67,6.67,0,0,0-2.19,2.44c-.46.81-1,1.93-1.88,3.56a81.34,81.34,0,0,0-3.87,8.95,4.54,4.54,0,0,0-.3,1.12c-.36,1.78-.31,3.45,1.42,4.88a4.31,4.31,0,0,0,2.9.91,18.11,18.11,0,0,0,4.07-.66c2.24-.51,11.29-6.76,12.71-8.64a10.39,10.39,0,0,0,1.73-6.21c0-2.54-2.64-4.47-3.3-5a13.68,13.68,0,0,0-4.83-2.65,9.56,9.56,0,0,0-2-.25Z"/><ellipse class="cls-15" cx="179.82" cy="160.3" rx="5.14" ry="4.07" transform="translate(8.99 330.15) rotate(-86.55)"/><ellipse class="cls-15" cx="174.21" cy="167.26" rx="3.66" ry="2.95" transform="translate(-3.22 331.09) rotate(-86.55)"/><ellipse class="cls-15" cx="168.24" cy="169.79" rx="2.9" ry="2.29" transform="translate(-11.37 327.5) rotate(-86.55)"/><ellipse class="cls-16" cx="180.11" cy="160.32" rx="1.93" ry="1.37" transform="translate(9.24 330.46) rotate(-86.55)"/><ellipse class="cls-16" cx="173.79" cy="167.45" rx="1.22" ry="1.63" transform="matrix(0.98, -0.18, 0.18, 0.98, -27.4, 34.16)"/><ellipse class="cls-16" cx="168.19" cy="169.95" rx="0.92" ry="1.22" transform="translate(-28.18 33.53) rotate(-10.51)"/><path class="cls-17" d="M166.83,165.84s.71-1.28,2.64-.56c.41-.82,1.27-3.11,4.78-2.65a7.78,7.78,0,0,1,1.42-7.47c-1-.51-1.62-.87-3,.71S166.72,165.43,166.83,165.84Z"/><path class="cls-18" d="M166.81,166l0-.14c-.11-.45,4.43-8.5,5.81-10s2.07-1.25,3-.76l.13.07,0,.05a7.49,7.49,0,0,0-1.49,7.11c0,.13.06.24.07.32l0,.08h-.08c-3.26-.43-4.19,1.52-4.64,2.45,0,.06-.06.11-.08.16l0,0-.05,0c-1.87-.69-2.57.52-2.58.53Zm7.61-11.21c-.48,0-1,.28-1.76,1.12a66.92,66.92,0,0,0-5.71,9.68,2,2,0,0,1,.45-.34,2.4,2.4,0,0,1,2,0l.06-.12a4,4,0,0,1,4.68-2.52,1.4,1.4,0,0,0-.06-.24,7.63,7.63,0,0,1,1.46-7.16h0A2.7,2.7,0,0,0,174.42,154.78Z"/><rect class="cls-19" x="177.67" y="150.47" width="0.17" height="2.36" transform="translate(4.41 308.31) rotate(-82.57)"/><ellipse class="cls-21" cx="143.58" cy="141.32" rx="1.32" ry="0.41" transform="translate(-19.54 23.09) rotate(-8.61)"/><path d="M143.06,141.8c-.46,0-.79-.1-.82-.27s.52-.52,1.27-.64a3.42,3.42,0,0,1,1,0c.28,0,.44.13.45.25s-.1.25-.35.37a4.07,4.07,0,0,1-1.5.31Zm.46-.85c-.76.12-1.25.39-1.22.57s.57.29,1.34.18a2.93,2.93,0,0,0,.89-.26c.22-.1.34-.22.33-.31s-.16-.17-.4-.2a3.34,3.34,0,0,0-.94,0Z"/><path class="cls-20" d="M176.27,133.88l-3.72,11.3c-.57,1.93-1.3,3.19-3.2,2.78h0c-1.8-.65-1.73-1.63-1.48-3.5l1.47-12.69a3.61,3.61,0,0,1,4.26-2.7h0C175.45,129.51,176.72,132,176.27,133.88Z"/><path class="cls-19" d="M170,148.09a2.79,2.79,0,0,1-.68-.08c-1.83-.65-1.78-1.67-1.52-3.56l1.47-12.69a3.67,3.67,0,0,1,4.32-2.74,3.6,3.6,0,0,1,2.24,1.87,4.36,4.36,0,0,1,.47,3h0l-3.71,11.3a5.5,5.5,0,0,1-1.12,2.29A2,2,0,0,1,170,148.09Zm2.83-19a3.56,3.56,0,0,0-3.45,2.73l-1.47,12.69c-.26,1.88-.31,2.81,1.44,3.44,1.81.39,2.54-.76,3.13-2.75l3.71-11.3a4.17,4.17,0,0,0-.46-2.91,3.46,3.46,0,0,0-2.16-1.82A3.81,3.81,0,0,0,172.85,129.05Z"/><path class="cls-21" d="M176,134.74l-3.7,11.82c-.57,1.94-4.94,1.15-4.71-.76l1.5-12.64a3.6,3.6,0,0,1,4.26-2.7h0A3.6,3.6,0,0,1,176,134.74Z"/><path class="cls-22" d="M170.33,147.74a3.68,3.68,0,0,1-.82-.09c-1.06-.22-2.08-.87-2-1.85l1.5-12.65a3.5,3.5,0,0,1,1.59-2.26,3.58,3.58,0,0,1,5.42,3.86h0l-3.7,11.82A1.92,1.92,0,0,1,170.33,147.74Zm2.27-17.31a3.53,3.53,0,0,0-1.9.56,3.39,3.39,0,0,0-1.54,2.18l-1.5,12.64c-.11.91.86,1.52,1.87,1.73s2.44,0,2.72-1l3.7-11.82a3.56,3.56,0,0,0-2.61-4.22A3.65,3.65,0,0,0,172.6,130.43Z"/><path class="cls-10" d="M174.83,130.65a1.94,1.94,0,0,1,1,1.26c1.26-.87,4-3.39,3.91-4a5,5,0,0,0-.88-1.48.87.87,0,0,0-1.25-.21c-.08.05-.15.15-.19.17-1.05,1.51-2.58,3.83-2.58,3.83Z"/><path class="cls-11" d="M175.78,132l0-.06a1.87,1.87,0,0,0-.95-1.23h0v-.45h0s1.54-2.34,2.58-3.83l0,0,.05-.05a.55.55,0,0,1,.14-.12.92.92,0,0,1,.7-.17,1,1,0,0,1,.61.39,5,5,0,0,1,.88,1.5c.13.64-2.79,3.24-3.93,4Zm-.91-1.36a1.92,1.92,0,0,1,1,1.21c1.31-.91,3.95-3.34,3.85-3.89a5.14,5.14,0,0,0-.87-1.46.84.84,0,0,0-1.19-.21.65.65,0,0,0-.12.11.19.19,0,0,1-.07.06c-1,1.44-2.44,3.63-2.56,3.82Z"/><path class="cls-12" d="M175.83,132c1.26-.87,4.19-3,4.11-3.55a4,4,0,0,0-.8-1.54.89.89,0,0,0-1.2-.24c-.09.06-.15.15-.24.2-1,1.51-2.92,3.74-2.93,3.93A1.48,1.48,0,0,1,175.83,132Z"/><path class="cls-11" d="M175.8,132V132a1.45,1.45,0,0,0-1-1.17h0v0a9.57,9.57,0,0,1,1.12-1.53c.58-.75,1.31-1.68,1.83-2.42v0a.44.44,0,0,0,.11-.09.69.69,0,0,1,.13-.11.85.85,0,0,1,.67-.13,1,1,0,0,1,.59.38,4,4,0,0,1,.8,1.56c.11.69-3.95,3.48-4.12,3.6Zm-1-1.31a1.52,1.52,0,0,1,1,1.15c1.62-1.11,4.1-3,4-3.47a3.87,3.87,0,0,0-.78-1.51.93.93,0,0,0-.54-.35.76.76,0,0,0-.6.12l-.12.1-.11.1c-.52.74-1.25,1.67-1.83,2.42A17.92,17.92,0,0,0,174.83,130.72Z"/><path class="cls-10" d="M172.58,129.85a2,2,0,0,1,1.54.4c.48-1.47,1.12-5.1.74-5.53a4.24,4.24,0,0,0-1.64-.68.89.89,0,0,0-1.12.6.61.61,0,0,0,0,.26c.06,1.79.24,4.59.24,4.59Z"/><path class="cls-11" d="M174.14,130.32l0,0a2,2,0,0,0-1.49-.39h0l-.31-.41h0s-.17-2.8-.23-4.58a.5.5,0,0,1,0-.28,1,1,0,0,1,.49-.58.85.85,0,0,1,.68,0,4.23,4.23,0,0,1,1.66.68c.41.47-.25,4.12-.73,5.58Zm-1.3-.54a2.5,2.5,0,0,1,1.25.4c.5-1.55,1.08-5,.74-5.43a4.44,4.44,0,0,0-1.62-.67.83.83,0,0,0-.62,0,.88.88,0,0,0-.45.53c0,.15,0,.2,0,.21v0c0,1.71.22,4.35.23,4.57l.25.33A1.1,1.1,0,0,1,172.84,129.78Z"/><path class="cls-12" d="M174.16,130.22c.49-1.47,1.52-4.92,1.1-5.32a4.58,4.58,0,0,0-1.55-.73.87.87,0,0,0-1.1.53.44.44,0,0,0-.05.32c.06,1.8-.07,4.77,0,4.9A1.63,1.63,0,0,1,174.16,130.22Z"/><path class="cls-11" d="M174.18,130.3l-.05,0a1.55,1.55,0,0,0-1.55-.29h0l0,0a11,11,0,0,1,0-1.78c0-1,0-2.23,0-3.15a.62.62,0,0,1,.06-.35.92.92,0,0,1,1.15-.55,4.78,4.78,0,0,1,1.57.74c.51.5-.92,4.88-1.09,5.38Zm-1.08-.52a1.77,1.77,0,0,1,1,.36c.64-1.93,1.44-4.87,1.09-5.21a4.64,4.64,0,0,0-1.53-.72.83.83,0,0,0-1,.5.47.47,0,0,0,0,.31c0,.92,0,2.16,0,3.15,0,.77,0,1.51,0,1.69A1.69,1.69,0,0,1,173.1,129.78Z"/><path class="cls-10" d="M170.22,131a1.9,1.9,0,0,1,1.41-.72c-.6-1.42-1.55-3.81-2.14-3.82a1.58,1.58,0,0,0-1,.26.91.91,0,0,0-.39,1.24l.1.17a14.65,14.65,0,0,1,1.64,2.87Z"/><path class="cls-11" d="M169.78,131v0a14.74,14.74,0,0,0-1.63-2.86l-.11-.18a1,1,0,0,1,.41-1.3,1.51,1.51,0,0,1,1.05-.26c.53,0,1.22,1.55,2,3.42q.1.22.18.42l0,.06h-.07a1.84,1.84,0,0,0-1.37.69l0,0Zm-.43-4.54a1.3,1.3,0,0,0-.86.25.86.86,0,0,0-.38,1.18l.1.17a14.38,14.38,0,0,1,1.63,2.85h.36a2,2,0,0,1,1.36-.71l-.15-.37c-.56-1.33-1.41-3.36-1.92-3.36Z"/><path class="cls-12" d="M171.63,130.24c-.6-1.42-1.14-3.93-1.69-4a1.54,1.54,0,0,0-1.09.17.86.86,0,0,0-.41,1.19l.13.22A24.49,24.49,0,0,1,170.2,131,1.68,1.68,0,0,1,171.63,130.24Z"/><path class="cls-11" d="M170.22,131.08h0c-.06,0-.12-.14-.29-.56a12.91,12.91,0,0,0-1.37-2.63l-.13-.22a1,1,0,0,1-.05-.72.87.87,0,0,1,.48-.53,1.53,1.53,0,0,1,1.12-.17c.38,0,.73,1.08,1.13,2.31.19.59.39,1.2.59,1.67l0,.07h-.14a1.68,1.68,0,0,0-1.32.77Zm-.6-4.79a1.44,1.44,0,0,0-.74.2.85.85,0,0,0-.45.48.87.87,0,0,0,0,.65l.13.21a13.2,13.2,0,0,1,1.37,2.64c.09.21.17.41.22.49a1.7,1.7,0,0,1,1.36-.77h0c-.19-.47-.38-1.05-.57-1.61-.35-1.1-.72-2.24-1.06-2.25A1.06,1.06,0,0,0,169.62,126.29Z"/><path class="cls-10" d="M176.37,133.46l-.39-1.07s.13-.37.15-.44c.22-.43,3.77-1.52,4-.76a3.12,3.12,0,0,1,.07,1.91,2.21,2.21,0,0,0-.23.31A25.33,25.33,0,0,1,176.37,133.46Z"/><path class="cls-11" d="M177.12,133.57a2,2,0,0,1-.78-.07,0,0,0,0,1,0,0l-.4-1.07v0c0-.13.13-.39.14-.44.21-.4,2.59-1.15,3.58-1.05.28,0,.45.13.5.29.2.74.27,1.75.05,1.95a2.69,2.69,0,0,0-.22.31v0h0C179.11,133.51,177.9,133.57,177.12,133.57Zm-.7-.12a30.83,30.83,0,0,0,3.5-.08,3.1,3.1,0,0,1,.23-.31,3.14,3.14,0,0,0-.08-1.86c0-.12-.18-.19-.42-.22a6.87,6.87,0,0,0-3.48,1c0,.06-.12.35-.14.42Z"/><path class="cls-12" d="M176.22,133.91a3.22,3.22,0,0,0,0-.82c-.09-.25-.17-.49-.23-.7-.19-.42,3.77-1.52,4-.76s.12,1.71-.1,1.83A16.21,16.21,0,0,1,176.22,133.91Z"/><path class="cls-11" d="M176.43,134a.53.53,0,0,1-.24,0,.06.06,0,0,1,0-.07,3,3,0,0,0,0-.8c-.08-.23-.17-.48-.23-.68a.17.17,0,0,1,0-.15,6.7,6.7,0,0,1,3.66-.9c.21,0,.34.13.37.26.21.73.14,1.73-.11,1.88a13.28,13.28,0,0,1-1.87.34A14.8,14.8,0,0,1,176.43,134Zm-.16-.1a21,21,0,0,0,3.57-.46,2.44,2.44,0,0,0,.08-1.78c0-.1-.13-.16-.31-.2a6.87,6.87,0,0,0-3.57.86s0,.05,0,.07c.06.2.15.45.23.69A3.21,3.21,0,0,1,176.27,133.89Z"/><ellipse class="cls-12" cx="172.59" cy="134.02" rx="1.37" ry="1.27" transform="translate(-37.33 73.34) rotate(-21.71)"/><path class="cls-11" d="M172.52,135.47a1.44,1.44,0,0,1-1.36-.88,1.37,1.37,0,0,1,.05-1.12,1.57,1.57,0,0,1,.85-.79,1.6,1.6,0,0,1,1.16,0,1.34,1.34,0,0,1,.8.78,1.37,1.37,0,0,1,0,1.12,1.57,1.57,0,0,1-.85.79A1.64,1.64,0,0,1,172.52,135.47Zm.14-2.57a1.18,1.18,0,0,0-.48.1,1.24,1.24,0,0,0-.67.62,1.09,1.09,0,0,0,0,.85,1.17,1.17,0,0,0,1.53.58,1.27,1.27,0,0,0,.68-.63,1,1,0,0,0,0-.85h0a1,1,0,0,0-.61-.59A1.32,1.32,0,0,0,172.66,132.9Z"/><rect class="cls-27" x="155.54" y="118.77" width="0.09" height="2.34" transform="translate(32.31 272.89) rotate(-88.76)"/><g class="cls-56"><polygon class="cls-39" points="156.09 150.69 155.06 186.66 123.26 180.03 154.16 150.62 156.09 150.69"/></g><path class="cls-57" d="M212,112.85a4.36,4.36,0,0,0-3.8-1l-.34.07a4.69,4.69,0,0,1,1.17,1,2.83,2.83,0,0,1,.77,1.92c0,.27-.11.6-.37.65a.49.49,0,0,1-.49-.29,1.78,1.78,0,0,1-.12-.6,2.79,2.79,0,0,0-.32-1.34,2,2,0,0,0-1.07-.75c-1-.3-2.12.42-3,.88l-.88.45a9.65,9.65,0,0,1,.68,1.17.65.65,0,0,1,.07.21.26.26,0,0,1-.08.2.25.25,0,0,1-.25,0,.62.62,0,0,1-.16-.2,3.7,3.7,0,0,0-.77-.76.66.66,0,0,0-.5-.15,1.69,1.69,0,0,0-.36.17,4.76,4.76,0,0,1-1.54.37c.09,0,.44.44.51.52s.36.43.53.66.42.87.82,1.11c.55.31,1.1,0,1.68,0a.82.82,0,0,1,.43.09.32.32,0,0,1,.17.37c-.06.21-.32.26-.54.28l-1.42.1c.47.91.88,2.13,1.81,2.68a1.64,1.64,0,0,0,1.06.24,1.77,1.77,0,0,0,1-.64.82.82,0,0,1,.37-.24c.15,0,.33.08.33.23a.44.44,0,0,1-.12.22,3.15,3.15,0,0,1-2.35,1,5.29,5.29,0,0,0,2.68,1.78,3.19,3.19,0,0,0,3.33-1.1c1.12-1.6-1-3.19,0-4.59.59-.9,1.66-1,1.89-2.2A2.86,2.86,0,0,0,212,112.85Zm-2,7.47c.07.74-1,1.27-1.12.36a.77.77,0,0,1,.23-.75A.55.55,0,0,1,209.93,120.32Zm-2-5.47a1.19,1.19,0,0,1,0,.46.48.48,0,0,1-.89.16c-.3-.38-.48-1.23.23-1.31a.51.51,0,0,1,.45.22A1,1,0,0,1,207.92,114.85Z"/><path class="cls-58" d="M220.11,123.65a.24.24,0,0,1-.13-.05c-1.89-1.71-4-3.65-6.59-4.56a20.56,20.56,0,0,0-2.88-.72l-1.27-.26a24,24,0,0,1-6.73-2.65.19.19,0,0,1,.19-.33,23.66,23.66,0,0,0,6.63,2.6c.41.1.84.18,1.26.27a20.57,20.57,0,0,1,2.93.73c2.63.94,4.8,2.9,6.72,4.64a.19.19,0,0,1,0,.27A.18.18,0,0,1,220.11,123.65Z"/><path class="cls-57" d="M198.92,113.85A2.68,2.68,0,0,0,197.4,112l-.19-.09a3.5,3.5,0,0,1,.23.9,1.81,1.81,0,0,1-.33,1.24c-.1.13-.28.26-.43.18a.28.28,0,0,1-.13-.32.89.89,0,0,1,.16-.34,1.68,1.68,0,0,0,.33-.78,1.19,1.19,0,0,0-.25-.77c-.41-.54-1.2-.57-1.82-.67l-.6-.11a5.7,5.7,0,0,1-.09.83.35.35,0,0,1-.05.13.12.12,0,0,1-.11.07c-.05,0-.09,0-.11-.1a.43.43,0,0,1,0-.16,2.45,2.45,0,0,0-.1-.66.38.38,0,0,0-.2-.26,1.55,1.55,0,0,0-.23,0,3,3,0,0,1-.91-.38c.06,0,.06.38.07.45s0,.34,0,.51a1.92,1.92,0,0,0,0,.86c.15.36.55.39.84.59a.45.45,0,0,1,.18.21.2.2,0,0,1,0,.25c-.1.08-.26,0-.37-.07l-.74-.47a3.89,3.89,0,0,0-.1,2,1.09,1.09,0,0,0,.44.51,1.11,1.11,0,0,0,.74.05.53.53,0,0,1,.28,0,.17.17,0,0,1,.07.24.2.2,0,0,1-.13.06,1.93,1.93,0,0,1-1.56-.35,3.3,3.3,0,0,0,.67,1.88,2,2,0,0,0,2.06.69c1.15-.39.7-1.94,1.67-2.3.63-.23,1.19.12,1.75-.39A1.77,1.77,0,0,0,198.92,113.85Zm-3.77,3c-.24.39-.94.27-.69-.24a.48.48,0,0,1,.39-.29A.35.35,0,0,1,195.15,116.8Zm1-3.46a.55.55,0,0,1-.17.23.29.29,0,0,1-.26.08.33.33,0,0,1-.23-.33c0-.29.21-.79.59-.56a.34.34,0,0,1,.15.27A.65.65,0,0,1,196.17,113.34Z"/><path class="cls-58" d="M199,122.3a.17.17,0,0,1-.18-.15,9.51,9.51,0,0,0-2.73-6.08l-.53-.6a15.11,15.11,0,0,1-2.38-3.82.2.2,0,0,1,.1-.25.2.2,0,0,1,.26.1,14.47,14.47,0,0,0,2.31,3.72l.53.6a12,12,0,0,1,1.18,1.45,13,13,0,0,1,1.63,4.8.2.2,0,0,1-.15.23Z"/><path class="cls-57" d="M213.61,100.32a6,6,0,0,0-4.82-2.45h-.47a7.42,7.42,0,0,1,1.29,1.62,4.06,4.06,0,0,1,.47,2.82c-.09.37-.32.78-.7.77a.67.67,0,0,1-.57-.54,2.16,2.16,0,0,1,0-.84,3.93,3.93,0,0,0,0-1.9,2.77,2.77,0,0,0-1.22-1.33c-1.32-.71-3,0-4.31.3l-1.32.34a14,14,0,0,1,.57,1.77,1.05,1.05,0,0,1,0,.31.29.29,0,0,1-.17.24.31.31,0,0,1-.32-.1,1.17,1.17,0,0,1-.17-.31,5.07,5.07,0,0,0-.8-1.26.87.87,0,0,0-.63-.34,2,2,0,0,0-.54.12,6.64,6.64,0,0,1-2.18,0c.13,0,.47.73.54.85a11.1,11.1,0,0,1,.51,1,4.82,4.82,0,0,0,.78,1.74c.64.59,1.49.29,2.27.44a1,1,0,0,1,.55.24.48.48,0,0,1,.13.56c-.14.26-.51.25-.81.21l-1.95-.28c.37,1.36.56,3.12,1.64,4.14a2.34,2.34,0,0,0,1.36.64,2.46,2.46,0,0,0,1.56-.57,1.12,1.12,0,0,1,.57-.2c.21,0,.42.19.38.39a.53.53,0,0,1-.22.27,4.34,4.34,0,0,1-3.48.71,7.2,7.2,0,0,0,3.08,3.19,4.38,4.38,0,0,0,4.81-.48c2-1.83-.35-4.59,1.3-6.2,1.05-1,2.52-.83,3.18-2.4A3.89,3.89,0,0,0,213.61,100.32Zm-5,9.45c-.13,1-1.67,1.42-1.62.14a1.05,1.05,0,0,1,.52-.93A.77.77,0,0,1,208.65,109.77Zm-1.09-8a1.47,1.47,0,0,1-.13.62.72.72,0,0,1-.47.4.76.76,0,0,1-.77-.46c-.29-.59-.28-1.8.7-1.68a.72.72,0,0,1,.55.42A1.64,1.64,0,0,1,207.56,101.81Z"/><path class="cls-58" d="M221.42,117.2a.21.21,0,0,1-.16-.08c-2-2.87-4.35-6.12-7.54-8.11a27.29,27.29,0,0,0-3.67-1.83l-1.63-.73a33.39,33.39,0,0,1-8.26-5.54.19.19,0,0,1,.26-.29,32.8,32.8,0,0,0,8.16,5.48l1.62.73a30,30,0,0,1,3.72,1.85c3.26,2,5.59,5.32,7.65,8.22a.18.18,0,0,1,0,.27A.2.2,0,0,1,221.42,117.2Z"/><path class="cls-57" d="M227.86,109.69c.75,1.53,2.21,1.24,3.32,2.21,1.74,1.51-.42,4.4,1.66,6.11a4.4,4.4,0,0,0,4.84.2,7.25,7.25,0,0,0,2.88-3.37,4.34,4.34,0,0,1-3.51-.51.53.53,0,0,1-.24-.25c-.05-.2.14-.39.35-.42a1.07,1.07,0,0,1,.59.18,2.48,2.48,0,0,0,1.59.47,2.37,2.37,0,0,0,1.32-.72c1-1.08,1.1-2.85,1.39-4.23l-1.93.4c-.29.06-.67.08-.82-.17a.48.48,0,0,1,.09-.56,1.08,1.08,0,0,1,.54-.28c.77-.19,1.63.06,2.23-.57.45-.46.47-1.2.69-1.78.13-.36.28-.72.44-1.07.07-.12.36-.86.49-.88a6.67,6.67,0,0,1-2.18.09,2,2,0,0,0-.54-.09.9.9,0,0,0-.62.38,5,5,0,0,0-.72,1.3,1.17,1.17,0,0,1-.15.32.29.29,0,0,1-.31.12.3.3,0,0,1-.19-.23.81.81,0,0,1,0-.31,14,14,0,0,1,.46-1.8l-1.34-.26c-1.35-.27-3-.83-4.32,0a2.8,2.8,0,0,0-1.14,1.4,3.91,3.91,0,0,0,.07,1.89,2.19,2.19,0,0,1,.08.84.68.68,0,0,1-.54.58c-.38,0-.64-.37-.75-.73a4,4,0,0,1,.31-2.84,6.39,6.39,0,0,1,1.19-1.69l-.47,0a6,6,0,0,0-4.67,2.73A3.93,3.93,0,0,0,227.86,109.69Zm6.67,4.74a1.06,1.06,0,0,1,.58.9c.12,1.27-1.44,1-1.62,0A.76.76,0,0,1,234.53,114.43Zm-.35-7.87a.75.75,0,0,1,.52-.45c1-.17,1.06,1,.8,1.64a.75.75,0,0,1-.74.5.72.72,0,0,1-.5-.37,1.58,1.58,0,0,1-.16-.61A1.55,1.55,0,0,1,234.18,106.56Z"/><path class="cls-58" d="M221.17,123.46a.17.17,0,0,1-.1,0,.18.18,0,0,1-.06-.26c1.88-3,4-6.44,7.15-8.66a27.47,27.47,0,0,1,3.6-2.07c.53-.27,1.05-.54,1.58-.83a32.83,32.83,0,0,0,7.82-6,.19.19,0,0,1,.28.27,33.44,33.44,0,0,1-7.92,6c-.53.29-1.06.56-1.59.83a27.85,27.85,0,0,0-3.55,2c-3.07,2.18-5.18,5.56-7,8.55A.19.19,0,0,1,221.17,123.46Z"/><path class="cls-57" d="M214.55,106.28c1.24,0,1.54-1,2.54-1.39,1.56-.61,2.68,1.75,4.48,1a3.19,3.19,0,0,0,1.76-3,5.3,5.3,0,0,0-1.19-3,3.18,3.18,0,0,1-1.51,2.09.36.36,0,0,1-.24.06.27.27,0,0,1-.16-.36.86.86,0,0,1,.31-.32c.36-.25.7-.43.84-.86a1.7,1.7,0,0,0,0-1.09c-.36-1-1.46-1.67-2.25-2.32l-.4,1.37c-.06.21-.17.46-.38.47a.32.32,0,0,1-.33-.24.86.86,0,0,1,0-.45c.14-.55.59-1,.39-1.62-.15-.44-.62-.71-.92-1a6.54,6.54,0,0,1-.53-.65c-.06-.08-.44-.52-.41-.61a4.74,4.74,0,0,1-.67,1.44,1.18,1.18,0,0,0-.24.31.7.7,0,0,0,0,.53,3.82,3.82,0,0,0,.6.9.59.59,0,0,1,.15.2.21.21,0,0,1,0,.24.2.2,0,0,1-.21,0,.52.52,0,0,1-.19-.11,9.56,9.56,0,0,1-1-.9c-.21.26-.41.52-.62.77-.63.78-1.56,1.68-1.48,2.76a2,2,0,0,0,.52,1.2,2.72,2.72,0,0,0,1.24.6,1.45,1.45,0,0,1,.56.23.49.49,0,0,1,.19.54c-.11.25-.45.29-.72.24a2.92,2.92,0,0,1-1.72-1.16,5.1,5.1,0,0,1-.69-1.33c0,.1-.09.2-.14.31a4.36,4.36,0,0,0,.19,3.92A2.82,2.82,0,0,0,214.55,106.28Zm5.29-2.7a.76.76,0,0,1,.77-.06c.86.35.13,1.24-.58,1A.56.56,0,0,1,219.84,103.58Zm-5.17-2.42a.55.55,0,0,1-.12-.49c.22-.68,1-.33,1.33,0a.58.58,0,0,1,.07.65.52.52,0,0,1-.41.19,1,1,0,0,1-.44-.1A1.17,1.17,0,0,1,214.67,101.16Z"/><path class="cls-59" d="M221,115.34a.19.19,0,0,1-.17-.1c-1.3-2.23-2.78-4.76-3.16-7.53a21.7,21.7,0,0,1-.11-3v-1.29a23.6,23.6,0,0,0-1.19-7,.19.19,0,0,1,.36-.12A24,24,0,0,1,218,103.4c0,.43,0,.87,0,1.3a20.88,20.88,0,0,0,.11,3c.37,2.7,1.83,5.19,3.11,7.39a.18.18,0,0,1-.06.26Z"/><path class="cls-57" d="M217.33,115.34a2.7,2.7,0,0,0-1.51-1.91l-.18-.09a3.66,3.66,0,0,1,.22.91,1.79,1.79,0,0,1-.34,1.23c-.1.13-.28.26-.43.18a.3.3,0,0,1-.13-.32.84.84,0,0,1,.17-.34,1.68,1.68,0,0,0,.33-.78,1.24,1.24,0,0,0-.24-.77c-.41-.54-1.2-.58-1.81-.69l-.6-.11a5.71,5.71,0,0,1-.11.83.2.2,0,0,1,0,.13.14.14,0,0,1-.11.07.15.15,0,0,1-.12-.1.86.86,0,0,1,0-.16,2.1,2.1,0,0,0-.09-.66.39.39,0,0,0-.19-.26.69.69,0,0,0-.24,0,3.14,3.14,0,0,1-.9-.4c.05,0,.06.39.06.45a4.61,4.61,0,0,1,0,.52,2.08,2.08,0,0,0,0,.86c.15.36.55.39.84.6a.49.49,0,0,1,.18.2.21.21,0,0,1-.05.25c-.11.08-.26,0-.37-.06l-.74-.48a3.76,3.76,0,0,0-.11,2,1.09,1.09,0,0,0,.43.52,1.11,1.11,0,0,0,.74.06.53.53,0,0,1,.28,0,.16.16,0,0,1,.07.23.21.21,0,0,1-.13.07,2,2,0,0,1-1.56-.36,3.25,3.25,0,0,0,.66,1.88,2,2,0,0,0,2.05.7c1.15-.37.72-1.93,1.69-2.28.63-.23,1.19.13,1.75-.38A1.76,1.76,0,0,0,217.33,115.34Zm-3.79,2.91c-.24.39-.95.27-.69-.24a.49.49,0,0,1,.39-.28A.34.34,0,0,1,213.54,118.25Zm1.05-3.44a1,1,0,0,1-.17.23.3.3,0,0,1-.5-.26c0-.29.22-.78.6-.55a.32.32,0,0,1,.15.27A.84.84,0,0,1,214.59,114.81Z"/><path class="cls-58" d="M217.38,123.79a.18.18,0,0,1-.18-.16,9.39,9.39,0,0,0-2.69-6.1l-.52-.6a15.42,15.42,0,0,1-2.35-3.83A.2.2,0,0,1,212,113a14.43,14.43,0,0,0,2.28,3.73l.52.6a13,13,0,0,1,1.18,1.46,13.29,13.29,0,0,1,1.59,4.82.18.18,0,0,1-.15.22Z"/><path class="cls-57" d="M222.81,109.77a3.7,3.7,0,0,0-1.46-3l-.23-.17a4.16,4.16,0,0,1,0,1.27,2.47,2.47,0,0,1-.82,1.57c-.18.15-.45.26-.63.12a.41.41,0,0,1-.08-.48,1.3,1.3,0,0,1,.33-.41,2.38,2.38,0,0,0,.68-1,1.7,1.7,0,0,0-.1-1.11c-.39-.84-1.45-1.14-2.24-1.46-.26-.11-.52-.21-.77-.33a8.31,8.31,0,0,1-.39,1.09.42.42,0,0,1-.09.16.19.19,0,0,1-.18.06.2.2,0,0,1-.12-.17.83.83,0,0,1,0-.22,3.09,3.09,0,0,0,.08-.91.55.55,0,0,0-.19-.41,1.17,1.17,0,0,0-.3-.14,4.08,4.08,0,0,1-1.1-.8c.07.06,0,.54,0,.63s-.08.47-.13.7a2.92,2.92,0,0,0-.26,1.15c.09.53.62.7,1,1.06a.68.68,0,0,1,.18.32.32.32,0,0,1-.14.33c-.17.07-.35-.07-.48-.2l-.86-.87a5.29,5.29,0,0,0-.74,2.66,1.38,1.38,0,0,0,.44.82,1.52,1.52,0,0,0,1,.3.76.76,0,0,1,.36.11c.09.09.13.26,0,.34a.33.33,0,0,1-.2.05,2.69,2.69,0,0,1-2-1,4.51,4.51,0,0,0,.33,2.72,2.72,2.72,0,0,0,2.55,1.56c1.66-.16,1.54-2.39,3-2.57.9-.12,1.55.53,2.46,0A2.43,2.43,0,0,0,222.81,109.77Zm-6,2.8c-.44.45-1.35.08-.85-.53a.65.65,0,0,1,.61-.26A.47.47,0,0,1,216.84,112.57Zm2.43-4.33a.72.72,0,0,1-.29.26.43.43,0,0,1-.38,0,.45.45,0,0,1-.21-.51c.07-.4.53-1,1-.57a.44.44,0,0,1,.11.41A.81.81,0,0,1,219.27,108.24Z"/><path class="cls-58" d="M220.43,121.1h0a.19.19,0,0,1-.19-.2,17.62,17.62,0,0,0-.68-6.78,19,19,0,0,0-1.12-2.26c-.18-.32-.37-.65-.54-1a20.84,20.84,0,0,1-2-5.84.19.19,0,0,1,.15-.22.2.2,0,0,1,.23.15,20.06,20.06,0,0,0,2,5.73l.53,1a16.41,16.41,0,0,1,1.14,2.3,17.9,17.9,0,0,1,.71,6.93A.18.18,0,0,1,220.43,121.1Z"/><path class="cls-57" d="M221.05,113.06c.6.47,1.13.08,1.77.26,1,.28.67,1.86,1.84,2.16a2,2,0,0,0,2-.85,3.27,3.27,0,0,0,.53-1.91,1.93,1.93,0,0,1-1.53.46.24.24,0,0,1-.14-.05.17.17,0,0,1,.06-.24.42.42,0,0,1,.27,0,1.1,1.1,0,0,0,.74-.11,1.06,1.06,0,0,0,.4-.55,3.87,3.87,0,0,0-.25-2l-.7.53c-.11.08-.26.16-.37.09a.21.21,0,0,1-.07-.25.56.56,0,0,1,.17-.21c.27-.23.67-.29.8-.66a2,2,0,0,0-.07-.85c0-.17,0-.35,0-.52s0-.42,0-.45a2.88,2.88,0,0,1-.87.45.88.88,0,0,0-.23.07.37.37,0,0,0-.18.27,2.53,2.53,0,0,0,0,.67.29.29,0,0,1,0,.16.12.12,0,0,1-.1.1.12.12,0,0,1-.12-.06.26.26,0,0,1-.05-.12,5.93,5.93,0,0,1-.16-.82l-.59.15c-.6.14-1.4.24-1.76.81a1.27,1.27,0,0,0-.2.78,1.8,1.8,0,0,0,.39.75,1,1,0,0,1,.19.33.29.29,0,0,1-.11.34c-.14.08-.32,0-.44-.15a1.84,1.84,0,0,1-.42-1.21,3.55,3.55,0,0,1,.16-.92l-.18.1a2.7,2.7,0,0,0-1.37,2A1.79,1.79,0,0,0,221.05,113.06Zm3.61.64a.48.48,0,0,1,.41.26c.29.49-.4.66-.67.29A.35.35,0,0,1,224.66,113.7ZM223,110.58a.33.33,0,0,1,.12-.29c.37-.25.63.22.64.52a.3.3,0,0,1-.48.29,1,1,0,0,1-.18-.22A.67.67,0,0,1,223,110.58Z"/><path class="cls-58" d="M220.93,120h0a.19.19,0,0,1-.17-.21A13.16,13.16,0,0,1,222,114.9a12.87,12.87,0,0,1,1.08-1.54l.48-.63a14.93,14.93,0,0,0,2-3.88.18.18,0,0,1,.24-.12.19.19,0,0,1,.12.24,14.81,14.81,0,0,1-2.08,4c-.15.22-.32.43-.48.64a9.4,9.4,0,0,0-2.26,6.27A.19.19,0,0,1,220.93,120Z"/><path class="cls-60" d="M203,33.14l-2.93,1.62c-.26.15,6.32,18.94,6.68,20.11,3.92,13,8.25,26.34,9.84,39.83,1.2,10.17.59,20.12-.58,30.25a3.54,3.54,0,0,0,0,1.52,2.41,2.41,0,0,0,1.87,1.45,11.25,11.25,0,0,0,3.75-.11c2.05-.43,4.21-1.39,4.82-3.61C226.92,122.81,223.86,81.85,203,33.14Z"/><path class="cls-61" d="M221.9,122.71c-2.09-.89-2.75-3.4-2.4-6,2.7-29.1-8.13-55.91-17.79-82.28l-1,.58c.46,1.76,3.45,10.46,5.1,15.28.82,2.36,1.4,4.07,1.51,4.41.37,1.24.75,2.48,1.13,3.72,3.58,11.77,7.29,23.94,8.73,36.19,1.29,11,.43,21.55-.58,30.37a3.1,3.1,0,0,0,0,1.29,1.89,1.89,0,0,0,1.49,1.12,8.61,8.61,0,0,0,2,.08h0a10.71,10.71,0,0,0,1.51-.19c2.49-.52,4-1.61,4.42-3.23a13.26,13.26,0,0,0,0-2.08C224.71,123.05,223.3,123.52,221.9,122.71Z"/><path class="cls-62" d="M199.36,30.84c2.89-5,6.45-9.78,11.25-13s11-4.66,16.5-2.74,9.62,7.72,8.66,13.42a35.44,35.44,0,0,0-33.06,5.82"/><path class="cls-62" d="M192.14,17.82a17.94,17.94,0,0,0-7.88-5.59c-1.39-.56-8.59-3.1-9.79-1.69,3.7-4.35,10.22-5.81,15.64-4a19,19,0,0,1,11.51,11.87A24.5,24.5,0,0,1,202.7,28.7a16.58,16.58,0,0,1-1.6,5.61c-.44.9-2.84,3.34-2.86,4.11C198.38,31.34,196.37,23.58,192.14,17.82Z"/><path class="cls-63" d="M180.5,20.84c-9.45,1-17.77,7.62-22.1,16.07s-5,18.44-3.36,27.79c11.14-14.29,30.45-26.3,48.12-30.32C200.07,25.4,190,19.87,180.5,20.84Z"/><path class="cls-63" d="M195,30.48a31.53,31.53,0,0,1,34.08,7.42,31.54,31.54,0,0,1,5.2,34.5C227.66,54.54,212.69,37.46,195,30.48Z"/><path class="cls-63" d="M204.85,36.07c-.57-1.23-1.11-2.46-1.76-3.64a15.64,15.64,0,0,0-7.3.87c-5.58,2.31-11.5,5.32-16,9.45q-.6.54-1.14,1.11c-5.85,6.08-7.58,17-6.93,25,.84,10.39,6.67,20.21,14.89,26.5A125,125,0,0,1,200,45.11,23.49,23.49,0,0,1,204.82,38c.19-.17.38-.33.58-.48-.12-.29-.23-.58-.34-.86Z"/><path class="cls-64" d="M204.88,32.51a17.27,17.27,0,0,0-24.52,2.17,42.86,42.86,0,0,1,10.93-1.86,17.82,17.82,0,0,1,10.53,3"/><path class="cls-65" d="M198.51,28.29A23.29,23.29,0,0,0,195.6,17a24.27,24.27,0,0,1,5.7,12.56"/><path class="cls-65" d="M203.14,29.55A19.71,19.71,0,0,1,220.2,19.16c-4.62,2.87-9.32,5.82-12.85,10"/><path class="cls-66" d="M182.92,60.35a47.4,47.4,0,0,0,.83,28,101.91,101.91,0,0,1,4.79-26.12c1.3-4.28,2.8-8.5,4.37-12.68a112.27,112.27,0,0,1,7.9-16.2q-1,.74-2,1.53C190.82,41.37,185.67,50.49,182.92,60.35Z"/><path class="cls-65" d="M200,28.86a30.73,30.73,0,0,1,1.52-13c1.58-4.09,4.69-7.76,8.84-9.19a61.45,61.45,0,0,0-5.12,23"/><path class="cls-65" d="M207.76,35.47a19.54,19.54,0,0,0-3.37-3.83,9.39,9.39,0,0,0-4.56-2.17c1.45,2.67,3.56,5.56,4.36,8.47a28.33,28.33,0,0,1,.84,9c-.3,5.19-1.68,10.24-3.05,15.26a16.81,16.81,0,0,0,11.22-16,16.42,16.42,0,0,0-3.88-9.9c-1.68-2-5.58-5.66-8.43-5.26a6.31,6.31,0,0,0,1.31,2.2,15.06,15.06,0,0,1,1.76,3.9l.11.35"/><path class="cls-67" d="M214.76,59.55a20.32,20.32,0,0,0,1.42-17.87c-2.78-6.86-9.57-12.39-16.68-14.16C207.92,37,214.52,46.43,214.76,59.55Z"/><path class="cls-67" d="M199.35,29.43a27.33,27.33,0,0,0-19.58,23A136.94,136.94,0,0,0,199.35,29.43Z"/><path class="cls-67" d="M204.31,14.67a17.74,17.74,0,0,0-3.1,10.61C203.58,22.28,203.69,18.44,204.31,14.67Z"/><path class="cls-67" d="M232.66,57.69A36.68,36.68,0,0,0,216.32,35C221.57,36.49,227.15,39.3,230,44S233.79,52.37,232.66,57.69Z"/><path class="cls-68" d="M184.63,23.87A32.64,32.64,0,0,0,158,52.09C167,43.09,175.66,32.88,184.63,23.87Z"/><path class="cls-64" d="M200.16,29.26A16.89,16.89,0,0,0,194,40.94s.17.2.17.24a42.2,42.2,0,0,0,4.29-5.54C199.83,33.87,199.9,31.46,200.16,29.26Z"/><path class="cls-64" d="M196.18,46.56a14.13,14.13,0,0,0,5.76-9,11.73,11.73,0,0,0-.28-5.65,15.54,15.54,0,0,0-1-2.56c-.27-.51-1.47-1.64-1.52-2.12.46,4.85-.57,9.67-1.66,14.37-.19.84-.4,1.67-.62,2.49C196.76,44.56,196.55,46.31,196.18,46.56Z"/><path class="cls-64" d="M190,33.27a18,18,0,0,0-14,9A47.15,47.15,0,0,0,190,33.27Z"/><path class="cls-69" d="M215.68,88.34c0,.18.07.36.1.53a17.29,17.29,0,0,1,4.88-2c0-.17-.07-.33-.11-.5A17.89,17.89,0,0,0,215.68,88.34Z"/><path class="cls-69" d="M216.72,95.57A25.69,25.69,0,0,1,222,92.73c0-.17-.08-.34-.11-.51A26.56,26.56,0,0,0,216.66,95Z"/><path class="cls-69" d="M210.11,65.86l.15.51a26.76,26.76,0,0,1,4.19-2.24l-.15-.49A26.65,26.65,0,0,0,210.11,65.86Z"/><path class="cls-69" d="M215.86,68.76a17.67,17.67,0,0,1-3.92,3.45c.19.68.37,1.36.55,2a19.79,19.79,0,0,0,4-3.19C216.31,70.3,216.09,69.53,215.86,68.76Z"/><path class="cls-69" d="M217.66,75.08c0-.2-.11-.39-.16-.59a41.62,41.62,0,0,0-3.7,4.87c0,.22.1.45.16.68A40.45,40.45,0,0,1,217.66,75.08Z"/><path class="cls-69" d="M223.28,99.16a17.65,17.65,0,0,1-6.07,3.06c0,.17,0,.35,0,.52a18.11,18.11,0,0,0,6.17-3C223.35,99.54,223.32,99.35,223.28,99.16Z"/><path class="cls-69" d="M217.28,106.81l0,2.13a27.49,27.49,0,0,0,7.22-3.1c-.11-.71-.24-1.43-.37-2.17A25.28,25.28,0,0,1,217.28,106.81Z"/><path class="cls-69" d="M216.63,119.37c0,.19,0,.39,0,.58a21.27,21.27,0,0,0,9-6.84c0-.23-.07-.47-.1-.72A20.66,20.66,0,0,1,216.63,119.37Z"/><path class="cls-5" d="M73.67,72.4,73.4,72A140.72,140.72,0,0,1,144,51v.51A140.16,140.16,0,0,0,73.67,72.4Z"/><path class="cls-5" d="M91.58,83.41,91.3,83a103,103,0,0,1,47.75-17.42l0,.51A102.52,102.52,0,0,0,91.58,83.41Z"/><path class="cls-5" d="M298.74,147.63a83.34,83.34,0,0,0-30.83-58.57l.31-.4a83.87,83.87,0,0,1,31,58.94Z"/><path class="cls-5" d="M285.66,135.32A53.67,53.67,0,0,0,271.81,111l.36-.36a54.16,54.16,0,0,1,14,24.56Z"/><path class="cls-5" d="M217,208.37l-.05-.5a79.88,79.88,0,0,0,30-9l.24.44A80.11,80.11,0,0,1,217,208.37Z"/><path class="cls-5" d="M239.2,193.83l-.1-.5A34.3,34.3,0,0,0,258,182l.39.32A34.8,34.8,0,0,1,239.2,193.83Z"/><ellipse class="cls-70" cx="96.41" cy="218.84" rx="6.56" ry="32.31" transform="translate(-141.21 245.74) rotate(-72.68)"/><path class="cls-71" d="M81.49,214.92c4.68.72,9.27-1.89,12.76-5.09s6.36-7.11,10.16-9.94a23.91,23.91,0,0,1,15.23-4.62c1.21.06,2.68.44,3,1.61s-.85,2.16-1.78,2.94a17.23,17.23,0,0,0,1.61,27.59Z"/><path class="cls-72" d="M75.63,172.24a1.44,1.44,0,0,1,2.49,0l7.25,12.55,7.25,12.56a1.43,1.43,0,0,1-1.25,2.15h-29a1.43,1.43,0,0,1-1.25-2.15l7.25-12.56Z"/><path d="M91.37,200h-29a1.92,1.92,0,0,1-1.69-1,1.94,1.94,0,0,1,0-1.95L75.19,172a1.95,1.95,0,0,1,3.37,0l14.5,25.11a1.94,1.94,0,0,1,0,1.95A1.92,1.92,0,0,1,91.37,200Zm-15.3-27.52L61.57,197.6a.91.91,0,0,0,0,.93.93.93,0,0,0,.81.47h29a.93.93,0,0,0,.81-.47,1,1,0,0,0,0-.93l-14.5-25.11a.93.93,0,0,0-1.61,0Z"/><path d="M76.79,192.57h0a.89.89,0,0,1-.88-.85l-.48-12a1.35,1.35,0,0,1,1.36-1.35h0a1.35,1.35,0,0,1,1.36,1.35l-.48,12A.88.88,0,0,1,76.79,192.57Z"/><rect x="75.43" y="194.17" width="2.72" height="2.72" rx="1.36"/></svg>