<svg id="Layer_1" data-name="Layer 1" xmlns="http://www.w3.org/2000/svg" xmlns:xlink="http://www.w3.org/1999/xlink" viewBox="0 0 300 200"><defs><style>.cls-1{fill:none;}.cls-2{fill:#5288c7;}.cls-3{fill:#fff;}.cls-4{fill:#ea6603;}.cls-5{fill:#ff7300;}.cls-6{fill:#e5e4e3;}.cls-7{fill:#d85b05;}.cls-8{fill:#f2f2f2;}.cls-9{fill:#d3d3d3;}.cls-10{fill:#353535;}.cls-11{fill:#4d4d4d;}.cls-12{fill:#b3b3b3;}.cls-13{opacity:0.41;isolation:isolate;}.cls-14{fill:#f9f7f7;}.cls-15{fill:#d3161d;}.cls-16{fill:#945320;}.cls-17{fill:#050505;}.cls-18{fill:#1e1e1e;}.cls-19{fill:#3a3a3a;}.cls-20{fill:#f8c946;}.cls-21{fill:#683919;}.cls-22{fill:#7f1119;}.cls-23{fill:#5e0e18;}.cls-24{fill:#352f49;}.cls-25{fill:#e41e00;}.cls-26{fill:#fffe28;}.cls-27{fill:#18ff08;}.cls-28{fill:#dbdddd;}.cls-29{fill:#0fb0db;}.cls-30{fill:#303435;}.cls-31{clip-path:url(#clip-path);}.cls-32{fill:#4e4e4e;}.cls-33{fill:#4f4f4f;}.cls-34{fill:#505050;}.cls-35{fill:#515151;}.cls-36{fill:#535353;}.cls-37{fill:#545454;}.cls-38{fill:#555;}.cls-39{fill:#565656;}.cls-40{fill:#575757;}.cls-41{fill:#585858;}.cls-42{fill:#595959;}.cls-43{fill:#5a5a5a;}.cls-44{fill:#5b5b5b;}.cls-45{fill:#5c5c5c;}.cls-46{fill:#5d5d5d;}.cls-47{fill:#5e5e5e;}.cls-48{fill:#606060;}.cls-49{fill:#616161;}.cls-50{fill:#626262;}.cls-51{fill:#636363;}.cls-52{fill:#646464;}.cls-53{fill:#656565;}.cls-54{fill:#666;}.cls-55{fill:#0a0a0a;}.cls-56{clip-path:url(#clip-path-2);}.cls-57{clip-path:url(#clip-path-3);}.cls-58{clip-path:url(#clip-path-4);}.cls-59{fill:#070707;}.cls-60{fill:#adadad;}.cls-61{fill:#080000;}.cls-62{fill:#515051;}.cls-63{fill:#8e8a8b;}.cls-64{fill:#161616;}.cls-65{fill:#e2b647;}.cls-66{fill:#aa161d;}.cls-67{fill:#dddbd7;}.cls-68{fill:#212121;}.cls-69{fill:#282828;}.cls-70{fill:#7c7c7c;}.cls-71{fill:#389cce;}</style><clipPath id="clip-path"><ellipse class="cls-1" cx="111.62" cy="109.69" rx="0.69" ry="0.8" transform="translate(-8.62 9.53) rotate(-4.71)"/></clipPath><clipPath id="clip-path-2"><ellipse class="cls-1" cx="116.85" cy="119.99" rx="0.69" ry="0.8" transform="translate(-9.45 9.99) rotate(-4.71)"/></clipPath><clipPath id="clip-path-3"><ellipse class="cls-1" cx="112.35" cy="120.1" rx="0.69" ry="0.8" transform="translate(-9.47 9.62) rotate(-4.71)"/></clipPath><clipPath id="clip-path-4"><ellipse class="cls-1" cx="115.54" cy="109.55" rx="0.69" ry="0.8" transform="translate(-8.6 9.85) rotate(-4.71)"/></clipPath></defs><title>obstacle</title><rect class="cls-2" width="300" height="200"/><path class="cls-3" d="M64.94,196.21,64.33,190a73.56,73.56,0,0,0,14-2.71l.91-.28,1.87,6-1,.3A81,81,0,0,1,64.94,196.21Zm-16.41,0a88.67,88.67,0,0,1-16.1-3.08l1.75-6a82,82,0,0,0,15,2.86Zm-31.35-9.09A84.11,84.11,0,0,1,3.32,178.3l3.88-4.94A77.82,77.82,0,0,0,20,181.51Zm79-.63-3-5.49a80.15,80.15,0,0,0,12.53-8.62l4,4.82A86.54,86.54,0,0,1,96.17,186.48Zm25-20.94-4.86-4a81.12,81.12,0,0,0,8.52-12.61l5.51,3A88,88,0,0,1,121.22,165.54Zm15.59-28.71-6-1.86a74.62,74.62,0,0,0,1.91-7.52c.43-2.17.81-4.53,1.19-7.44l6.23.82c-.4,3-.8,5.53-1.26,7.84A80.57,80.57,0,0,1,136.81,136.83Zm5.29-31.64-6.21-1a66,66,0,0,1,4.22-16l5.78,2.46A60.11,60.11,0,0,0,142.1,105.19ZM154.16,79,150,74.3a45.49,45.49,0,0,1,14.56-8.58l2.2,5.89A39,39,0,0,0,154.16,79Zm74-8.44c-5.24-.29-10.55-.85-15.69-1.38l-.23,0,.66-6.24.22,0c5.07.53,10.3,1.08,15.39,1.36Zm16.3-.19-.62-6.25a60.59,60.59,0,0,0,10.92-2c1.23-.35,2.46-.77,3.68-1.23l2.22,5.88c-1.37.52-2.77,1-4.16,1.39A67.62,67.62,0,0,1,244.48,70.35Zm-63.1-2.13L180.65,62a97.61,97.61,0,0,1,11-.61c1.74,0,3.53,0,5.31.13l-.3,6.27c-1.68-.08-3.37-.12-5-.12A89.26,89.26,0,0,0,181.38,68.22Zm93.86-9.66-3.81-5A55.31,55.31,0,0,0,282,43l5,3.79A61.5,61.5,0,0,1,275.24,58.56Zm19.89-26.28L289.28,30a49.67,49.67,0,0,0,3.36-14.45l6.27.48A56.66,56.66,0,0,1,295.13,32.28Z"/><path class="cls-4" d="M31.1,158.8l30.43-11.48a16.6,16.6,0,0,1,4-.7,13.1,13.1,0,0,1,5,1l30.69,11.62s1.52.63,1.51,1.83v1.38s0,.88-1.35,1.5L70.54,178.67a13.24,13.24,0,0,1-10,0L29.74,164s-1.36-.6-1.35-1.31v-1.57a1.47,1.47,0,0,1,.61-1.33A19.41,19.41,0,0,1,31.1,158.8Z"/><path class="cls-5" d="M102.59,160.47s.06.85-1.78,1.71L70.05,176.61a12.42,12.42,0,0,1-4.18.86,10.93,10.93,0,0,1-4.67-.81L29.66,161.8s-1.12-.54-1.19-1.33l-.08,2.22s-.08.64,1.35,1.31l30.85,14.67a13.83,13.83,0,0,0,5.27,1,14.13,14.13,0,0,0,4.68-1L101.39,164s1.21-.58,1.35-1.5C102.74,162.5,102.85,160.51,102.59,160.47Z"/><path class="cls-5" d="M69.81,98.9l16.91,58.92a8.1,8.1,0,0,1-3.1,7.88s-7.3,5.34-19.61,5-18.29-5-18.29-5a8.12,8.12,0,0,1-3.11-7.88L59.52,98.9s.27-2,5.07-2S69.81,98.9,69.81,98.9Z"/><path class="cls-6" d="M51.71,126.21c1.33,5.29,12.91,5.29,12.91,5.29h.12s11.58,0,12.91-5.29l-3-10.58c-1,3.63-9.91,3.69-9.91,3.69h-.12s-8.88-.06-9.91-3.69Z"/><path class="cls-6" d="M83.69,147.23c-.89,8.72-18.14,9-18.14,9-.82,0-1.74,0-1.74,0s-17.24-.31-18.13-9l2.83-9.89c.93,6.68,15.29,7.08,15.29,7.08h1.76s14.36-.4,15.29-7.08Z"/><path class="cls-4" d="M69.67,98.82c0,1.06-2.24,1.93-5,1.93s-5-.87-5-1.93,2.24-1.93,5-1.93S69.67,97.75,69.67,98.82Z"/><ellipse class="cls-7" cx="64.59" cy="98.58" rx="3.97" ry="1.38"/><path class="cls-4" d="M158.86,95.68l20.6-7.77a11.45,11.45,0,0,1,2.74-.47,8.86,8.86,0,0,1,3.37.71L206.34,96s1,.42,1,1.24v.93s0,.6-.92,1l-20.88,9.92a8.93,8.93,0,0,1-6.74,0l-20.89-9.92s-.91-.41-.91-.89V97.26a1,1,0,0,1,.41-.9A13.64,13.64,0,0,1,158.86,95.68Z"/><path class="cls-5" d="M207.26,96.82s0,.57-1.2,1.15l-20.83,9.77a8.4,8.4,0,0,1-2.83.58,7.43,7.43,0,0,1-3.15-.54L157.89,97.72s-.75-.37-.8-.9l-.06,1.5s-.05.43.91.89l20.89,9.92a9.22,9.22,0,0,0,3.57.66,9.38,9.38,0,0,0,3.17-.66l20.88-9.92s.82-.4.92-1C207.37,98.19,207.44,96.84,207.26,96.82Z"/><path class="cls-5" d="M185.07,55.13,196.52,95a5.5,5.5,0,0,1-2.1,5.34s-4.94,3.61-13.27,3.38-12.39-3.38-12.39-3.38a5.5,5.5,0,0,1-2.1-5.34l11.45-39.89s.18-1.34,3.43-1.36S185.07,55.13,185.07,55.13Z"/><path class="cls-6" d="M172.82,73.62c.9,3.58,8.74,3.58,8.74,3.58h.08s7.84,0,8.74-3.58l-2-7.16c-.7,2.46-6.71,2.5-6.71,2.5h-.08s-6,0-6.71-2.5Z"/><path class="cls-6" d="M194.47,87.85c-.61,5.9-12.28,6.11-12.28,6.11-.56,0-1.18,0-1.18,0s-11.67-.21-12.28-6.11l1.93-6.69C171.29,85.68,181,86,181,86h1.2s9.71-.27,10.34-4.79Z"/><path class="cls-4" d="M185,55.08c0,.72-1.52,1.3-3.39,1.3s-3.38-.58-3.38-1.3,1.51-1.31,3.38-1.31S185,54.35,185,55.08Z"/><ellipse class="cls-7" cx="181.54" cy="54.91" rx="2.69" ry="0.93"/><path class="cls-4" d="M237.42,38.68l14-5.26a7.68,7.68,0,0,1,1.85-.32,6,6,0,0,1,2.28.48l14.06,5.33s.7.28.7.84v.63s0,.4-.62.69L255.5,47.79a6,6,0,0,1-4.57,0l-14.14-6.72s-.62-.28-.61-.6v-.72a.66.66,0,0,1,.28-.61A7.86,7.86,0,0,1,237.42,38.68Z"/><path class="cls-5" d="M270.19,39.45s0,.39-.81.78l-14.11,6.62a5.7,5.7,0,0,1-1.91.39,5,5,0,0,1-2.14-.37l-14.46-6.81s-.51-.25-.55-.61l0,1s0,.29.61.6l14.14,6.72a6.22,6.22,0,0,0,2.42.44,6.51,6.51,0,0,0,2.15-.44l14.14-6.72s.56-.27.62-.69C270.26,40.38,270.31,39.47,270.19,39.45Z"/><path class="cls-5" d="M255.16,11.22l7.76,27a3.73,3.73,0,0,1-1.43,3.62,15.35,15.35,0,0,1-9,2.29c-5.65-.16-8.39-2.29-8.39-2.29a3.73,3.73,0,0,1-1.42-3.62l7.75-27s.12-.91,2.32-.92S255.16,11.22,255.16,11.22Z"/><path class="cls-6" d="M246.87,23.75c.61,2.42,5.92,2.42,5.92,2.42h.05s5.31,0,5.92-2.42l-1.38-4.86c-.47,1.67-4.54,1.7-4.54,1.7h-.05s-4.08,0-4.55-1.7Z"/><path class="cls-6" d="M261.52,33.38c-.4,4-8.31,4.14-8.31,4.14h-.8s-7.9-.15-8.31-4.14l1.3-4.53c.43,3.06,7,3.24,7,3.24h.81s6.58-.18,7-3.24Z"/><path class="cls-4" d="M255.1,11.19c0,.48-1,.88-2.29.88s-2.3-.4-2.3-.88,1-.89,2.3-.89S255.1,10.7,255.1,11.19Z"/><ellipse class="cls-7" cx="252.77" cy="11.08" rx="1.82" ry="0.63"/><path class="cls-8" d="M178.39,108.65a1.6,1.6,0,0,0-1.18-.91.88.88,0,0,0-.87.66,1.69,1.69,0,0,0,1,1.77,2,2,0,0,0,1.95-.66,18.87,18.87,0,0,1,2.09-1.59c1.3-.91,2.42-2,3.72-2.92a20.29,20.29,0,0,0,4.06-3.79,2.58,2.58,0,0,0,.43-.69A7,7,0,0,0,189,96a2.94,2.94,0,0,0-1.52-1.28c-.19-.09-.24,0-.42,0s-.53.12-.76-.07-.37-.49-.61-.53-.3.29-.52.32c-.2-.37-.46-.7-.62-1.07-.29-.64-.69-1.2-1.35-1.22-.85,0-1.14,1.35-1.17,2.15a1.79,1.79,0,0,0-1.51.36c-1.07.89-.25,2.41,1,3.41a.91.91,0,0,0,1,.11c.27-.19.09-.6.23-.9a1.13,1.13,0,0,1,.81-.54,2.06,2.06,0,0,1,1.82,2.58,1.44,1.44,0,0,1-1,.87c.3,0,.55.29.85.33a.75.75,0,0,1,.24.08c1.11.67-.7,1.61-.9,1.72a3.83,3.83,0,0,1-2,.41,9.29,9.29,0,0,1-2.33-.48c-.46-.15-.81.32-1.14.56s-.33,1-.15,1.56c.1.34.27.66.36,1a13.89,13.89,0,0,1,.38,1.67.72.72,0,0,1-.28.76C179.32,108.22,178.77,108.43,178.39,108.65Z"/><path class="cls-9" d="M177.91,127.33s3.37-5.37,3.93-7.49.58-8.13,1.9-5.36c1.11-.33,2.38-1.51,1.68-6.07s3.68-3,4.5-4,1.07-2.39-.63-4.49-6-2.69-6.34-1c-.57-1.06-1-2.38-3.92-1.83a3.65,3.65,0,0,0-.82,3.5c.33,1.19-1.25-1.32-1.25-1.32s-1.18-3.62,1.74-4.76c1.37-.34.91-1.35,2.84,1.17.49.6,1,1.85,2.23-.4S186.93,90,190,92.53c1.08-.86,4.13-2,7.05,2a6.67,6.67,0,0,1,1.94,5.74c-.06,1.45.69,1.65,1.3-.54.4-1.25,1-1.85,1.65-1.46a4.54,4.54,0,0,0,1.62-.76c.44-.19,1.68.86,1.68.86s1.18,1,2.11-1.52a3.26,3.26,0,0,1,1.94-.93c.13-.13,1.27-1.06,1.52-3.84a.67.67,0,0,1,.76-.53s-.26-2.65.91-3a2.53,2.53,0,0,1,1.52.66s.13-1.26,2.07.32c.31-.33,1.83.76-.76,4a27,27,0,0,1-3.24,1.59c-1.42.53-7.14,7.83-7.32,8.16s1,2.17-1.52,4.76-3.49,4.12-4.33,4.56-8.23,9.81-9.34,8.76c.29-1,1.15-2,1.36-3s-.58-1.18-2.14.61-2.88,3.31-4.45,2.33C183.43,122.48,177.12,130,177.91,127.33Z"/><g id="Layer_8" data-name="Layer 8"><path class="cls-10" d="M92.23,133.94a10.64,10.64,0,0,1,.32-1.86,134.76,134.76,0,0,1,4.61-15c1.13-2.76,1.81-4.64,2.4-6a11.57,11.57,0,0,1,3.07-4.25,12.73,12.73,0,0,1,3.48-2.35,13,13,0,0,1,6.55-.78c5.57.53,8.54.52,9.64.82,1.1.68,5.88,5.31,6.36,9.37.34,2.93.28,6.94-1.66,10.18s-9.61,18.71-13.24,19.17c-4.23.55-15.16.41-18.44-1.77C92.38,139.5,92,136.88,92.23,133.94Z"/><path d="M111.26,143.5c-5.19.25-13.27-.2-16-2-3.12-2.07-3.35-4.86-3.13-7.57h0a12.11,12.11,0,0,1,.32-1.88,136.78,136.78,0,0,1,4.62-15c.62-1.51,1.1-2.74,1.52-3.82.33-.85.62-1.59.88-2.23a11.79,11.79,0,0,1,3.08-4.27,11.54,11.54,0,0,1,10.09-3.14c2.61.25,4.68.38,6.2.47a25.06,25.06,0,0,1,3.45.34h0c1.17.73,5.92,5.37,6.39,9.42.33,2.83.32,6.91-1.66,10.22-.35.59-.89,1.58-1.57,2.82-3,5.59-8.72,16-11.72,16.39C113.06,143.38,112.21,143.45,111.26,143.5Zm-19-9.55c-.21,2.67,0,5.42,3.07,7.45s13.86,2.34,18.39,1.76c2.94-.38,8.59-10.75,11.63-16.32.68-1.25,1.21-2.23,1.57-2.82,2-3.29,2-7.33,1.64-10.14-.47-4-5.15-8.58-6.32-9.32a22.77,22.77,0,0,0-3.41-.34c-1.51-.09-3.59-.22-6.21-.47a12.81,12.81,0,0,0-6.51.77,13.05,13.05,0,0,0-3.47,2.33,11.73,11.73,0,0,0-3,4.23c-.26.64-.55,1.38-.88,2.23-.4,1-.9,2.31-1.52,3.82a135.64,135.64,0,0,0-4.61,15,11.36,11.36,0,0,0-.32,1.85Z"/><path class="cls-11" d="M112,142.83a6,6,0,0,1-3.76-.9c-2.67-1.77-3.06-4.06-2.83-7a10.44,10.44,0,0,1,.3-1.76,136.79,136.79,0,0,1,4.59-14.89c.62-1.52,1.12-2.81,1.52-3.84.33-.85.62-1.58.88-2.21a11.18,11.18,0,0,1,2.91-4,12.12,12.12,0,0,1,3.32-2.24,10.6,10.6,0,0,1,3.76-.88,11.12,11.12,0,0,1,2.44.15,20.21,20.21,0,0,1,7.65,3.1l.28.17.14.09a18.45,18.45,0,0,1,3.19,2.41,7.58,7.58,0,0,1,2.49,4.46c.32,2.72.31,6.64-1.57,9.79-.85,1.43-4.34,4.9-8.67,8.62s-8.27,6.61-9.75,7.11l-.74.26A22.84,22.84,0,0,1,112,142.83Z"/><path d="M122.67,105.75a10.42,10.42,0,0,1,2.3.14,19.52,19.52,0,0,1,7.43,3l.28.18.14.09a17.12,17.12,0,0,1,3.09,2.33,7,7,0,0,1,2.31,4.08c.56,4.77-.5,7.75-1.49,9.41-.81,1.36-4.32,4.84-8.55,8.46s-8.15,6.53-9.54,7l-.74.25a22.94,22.94,0,0,1-6,1.51,5.51,5.51,0,0,1-3.4-.8,5.35,5.35,0,0,1-2.25-2.76A8.86,8.86,0,0,1,106,135a10.49,10.49,0,0,1,.29-1.66,136.15,136.15,0,0,1,4.55-14.8c.63-1.53,1.13-2.82,1.53-3.85.33-.85.61-1.58.87-2.2a10.64,10.64,0,0,1,2.74-3.8,12,12,0,0,1,3.17-2.15,9.84,9.84,0,0,1,3.54-.82h0m-.06-1.23a11.08,11.08,0,0,0-4,.93,13,13,0,0,0-3.49,2.34,11.81,11.81,0,0,0-3.07,4.26c-.59,1.41-1.27,3.29-2.4,6a134.76,134.76,0,0,0-4.61,15,10.64,10.64,0,0,0-.32,1.86c-.24,2.94.15,5.56,3.09,7.51a6.71,6.71,0,0,0,4.14,1,26.87,26.87,0,0,0,7.06-1.83c3.46-1.19,16.82-12.76,18.75-16s2-7.26,1.65-10.19c-.47-4.05-5-6.71-6.11-7.4a21.22,21.22,0,0,0-8.15-3.36,12.29,12.29,0,0,0-2.57-.16Z"/><ellipse class="cls-12" cx="129.48" cy="118.34" rx="6.55" ry="8.2" transform="translate(-5.66 6.5) rotate(-2.82)"/><ellipse class="cls-12" cx="121.71" cy="130.4" rx="4.69" ry="5.87" transform="translate(-6.26 6.14) rotate(-2.82)"/><ellipse class="cls-12" cx="112.59" cy="135.48" rx="3.69" ry="4.62" transform="translate(-6.52 5.7) rotate(-2.82)"/><g class="cls-13"><path class="cls-14" d="M97.16,117.11l2.73-3.22.43,7s4.78-9.94,4.72-9.53-1.29,6-1.29,6l3.32-3.79-1.21,6,3.52-3.74-.68,3,1.37-1.66-5.81,10.65,1.17-5.2-3.77,5.33,1-6.18-3.15,4.76-.41-6.67L97.58,123,99,116.77l-2.31,4.93Z"/></g><g class="cls-13"><polygon class="cls-14" points="111.72 103.61 107.45 106.03 111.77 104.72 108.47 107.18 114.77 104.46 113.61 105.73 118.05 104.11 111.72 103.61"/></g><ellipse class="cls-15" cx="129.89" cy="118.32" rx="2.23" ry="3.06" transform="translate(-5.66 6.53) rotate(-2.82)"/><ellipse class="cls-15" cx="121.93" cy="130.63" rx="1.92" ry="2.65" transform="translate(-32.51 40.75) rotate(-16.78)"/><ellipse class="cls-15" cx="112.61" cy="135.79" rx="1.43" ry="1.96" transform="translate(-34.4 38.28) rotate(-16.78)"/><path class="cls-16" d="M132,86.53c.41,1,.74,2.72-.55,5.55a8.31,8.31,0,0,1-3.59,2.79c-1.29.55-11.19,4.38-15.27,5.95l-.35,2.3-2.77-1.45h0a1.64,1.64,0,0,1-.5-.41,6.92,6.92,0,0,1-.73-3.42c.21-.61.16-.55,1-1.14l16.42-11.61s2.62-1.61,4.58-.7l.24.13h0L133,85.85Z"/><path class="cls-17" d="M112.34,103.24l-2.87-1.5a1.7,1.7,0,0,1-.53-.43h0a6.89,6.89,0,0,1-.75-3.46v0l0-.08c.18-.52.2-.53.87-1l.11-.08L125.62,85a9.18,9.18,0,0,1,1.58-.7,4.4,4.4,0,0,1,3.08,0l.25.13,2.65,1.39-1.05.71c.61,1.49.41,3.41-.57,5.56h0a8.38,8.38,0,0,1-3.63,2.82c-1.4.6-12.83,5-15.23,5.94Zm-3.27-2a1.74,1.74,0,0,0,.47.38h0l2.68,1.4.34-2.24h0c2.3-.89,13.85-5.35,15.26-6A8.4,8.4,0,0,0,131.43,92c1-2.14,1.15-4,.54-5.48l0-.06.94-.64-2.67-1.4c-1.89-.88-4.47.68-4.5.69L109.29,96.76l-.11.08c-.65.47-.65.47-.81.94l0,.07A6.88,6.88,0,0,0,109.07,101.22Z"/><path class="cls-18" d="M132,85.45s4.48-6,6-5.16,2.29,1.71,2.19,2.63-6.06,3.7-6.49,3.87S133.67,85.43,132,85.45Z"/><path class="cls-17" d="M133.6,86.88a.11.11,0,0,1-.08,0c-.11-.05-.15-.18-.2-.35a1.17,1.17,0,0,0-1.35-1h-.16l.1-.13c.18-.25,4.53-6,6.08-5.19s2.33,1.76,2.23,2.71-6.47,3.91-6.53,3.93A.15.15,0,0,1,133.6,86.88Zm-1.47-1.5a1.31,1.31,0,0,1,1.35,1.09.69.69,0,0,0,.1.25s0,0,0,0c.74-.3,6.35-3,6.44-3.8s-.65-1.77-2.14-2.56C136.76,79.75,133.44,83.66,132.13,85.38Z"/><path class="cls-19" d="M132.53,86.25s4.48-6,6-5.16,2.29,1.7,2.19,2.63-6.06,3.69-6.49,3.87S134.23,86.23,132.53,86.25Z"/><path class="cls-17" d="M134.16,87.68a.15.15,0,0,1-.09,0c-.1,0-.14-.18-.19-.35a1.19,1.19,0,0,0-1.35-1h-.16l.1-.13c.18-.24,4.53-6,6.08-5.18s2.33,1.76,2.23,2.71-6.47,3.9-6.54,3.93Zm-1.47-1.51A1.32,1.32,0,0,1,134,87.26a.77.77,0,0,0,.1.26h0c.73-.3,6.35-3,6.44-3.8S140,82,138.47,81.16C137.32,80.55,134,84.45,132.69,86.17Z"/><path class="cls-18" d="M133.75,87.8c1.05-.29,7.83-2.26,8.53-.71s.61,2.54-.13,3.19-7.54-.46-8-.56S135.13,88.7,133.75,87.8Z"/><path class="cls-17" d="M141.26,90.55a21.63,21.63,0,0,1-3.23-.19c-1.8-.2-3.64-.5-3.9-.56a.18.18,0,0,1-.15-.1c0-.09,0-.21.1-.37a.94.94,0,0,0-.37-1.46l-.15-.1.17,0,.19,0c5.14-1.43,8-1.63,8.43-.61.67,1.48.62,2.61-.15,3.28A1.68,1.68,0,0,1,141.26,90.55Zm-7.13-.91h0c.84.18,7.26,1.17,7.93.58s.75-1.69.12-3.09c-.55-1.23-5.4-.1-8.24.69h0a1.09,1.09,0,0,1,.28,1.57.66.66,0,0,0-.09.24Z"/><path class="cls-19" d="M134.47,88.45s7.39-2.26,8-.84.72,2.81,0,3.46-7.16-.6-7.62-.7S135.84,89.35,134.47,88.45Z"/><path class="cls-17" d="M141.71,91.33a41.46,41.46,0,0,1-6.87-.88.16.16,0,0,1-.14-.09c0-.1,0-.22.1-.38a1,1,0,0,0-.38-1.46l-.14-.1.16,0s1.88-.57,3.79-1c2.6-.52,4.06-.47,4.35.16.7,1.55.68,2.92-.05,3.55A1.44,1.44,0,0,1,141.71,91.33Zm-6.87-1h0c1.77.35,6.94,1.26,7.56.71s.67-1.88,0-3.36c-.49-1.09-5.64.19-7.78.83a1.08,1.08,0,0,1,.29,1.57c0,.08-.11.2-.1.24Z"/><path class="cls-18" d="M134.07,90.69s5.69.2,5.86,1.58-.05,2.33-.67,2.7-5-2.33-5.27-2.53S134.83,91.82,134.07,90.69Z"/><path class="cls-17" d="M139.14,95.08c-1.06,0-5.16-2.54-5.2-2.57a.16.16,0,0,1-.08-.12c0-.1,0-.19.13-.3a1,1,0,0,0,0-1.35l-.09-.14h.15c.24,0,5.76.22,5.94,1.65s-.07,2.39-.71,2.78Zm-4.92-4.3a1.12,1.12,0,0,1-.1,1.4c0,.07-.11.15-.1.18a0,0,0,0,0,0,0c.48.32,4.23,2.59,5.08,2.55l.11,0c.58-.35.8-1.25.63-2.62C139.72,91.24,135.88,90.85,134.22,90.78Z"/><path class="cls-19" d="M134.11,91.51s5.69.2,5.86,1.58-.05,2.33-.67,2.7-5-2.33-5.27-2.53S134.87,92.64,134.11,91.51Z"/><path class="cls-17" d="M139.18,95.9c-1.06,0-5.16-2.54-5.2-2.57a.2.2,0,0,1-.08-.12c0-.1,0-.19.13-.3a1,1,0,0,0,0-1.35l-.09-.13h.16c.23,0,5.75.22,5.93,1.65s-.07,2.39-.71,2.78Zm-4.92-4.3a1.12,1.12,0,0,1-.1,1.4c0,.07-.11.15-.1.18v0c.48.33,4.23,2.59,5.08,2.55l.11,0c.58-.35.8-1.25.63-2.62C139.76,92.06,135.92,91.67,134.26,91.6Z"/><path class="cls-20" d="M112,98.16l16.41-11.62s4.26-2.59,6,.69c.35.55,1.62,2.44-.14,6.3a8.28,8.28,0,0,1-3.6,2.79c-1.63.71-17,6.63-17,6.63a1.3,1.3,0,0,1-1.88-.23,6.92,6.92,0,0,1-.73-3.42C111.27,98.68,111.22,98.74,112,98.16Z"/><path class="cls-17" d="M112.88,103.33a1.37,1.37,0,0,1-1.14-.56h0a7,7,0,0,1-.75-3.47v0l0-.08c.18-.53.19-.54.88-1l.11-.08,16.41-11.61c.1-.06,2.32-1.4,4.22-.87a3,3,0,0,1,1.86,1.59h0a4.51,4.51,0,0,1,.72,2,8.1,8.1,0,0,1-.87,4.39v0a8.52,8.52,0,0,1-3.63,2.82c-1.6.68-16.52,6.43-17,6.62A1.52,1.52,0,0,1,112.88,103.33Zm-1-.66a1.2,1.2,0,0,0,1.76.22h0c.15-.06,15.39-5.93,17-6.63a8.13,8.13,0,0,0,3.56-2.76c1.72-3.76.54-5.59.16-6.19l0,0a2.83,2.83,0,0,0-1.77-1.51,4.83,4.83,0,0,0-2.73.23,8,8,0,0,0-1.36.62l-16.4,11.61-.11.08c-.66.46-.66.46-.82.94l0,.07A6.76,6.76,0,0,0,111.86,102.67Z"/><path class="cls-18" d="M129.35,85s.18-6.74,1.62-6.93,2.44.08,2.83.82-2.29,5.77-2.5,6.12a6.09,6.09,0,0,0-1.09.57S129.92,85.38,129.35,85Z"/><path class="cls-17" d="M130.21,85.64l0,0s-.3-.18-.86-.58l0,0v0s0-1.71.27-3.4c.31-2.31.78-3.53,1.42-3.61,1.5-.2,2.51.1,2.91.86S131.4,85,131.37,85l0,0h-.06a6.45,6.45,0,0,0-1,.56Zm-.77-.71c.41.3.67.46.77.52a5.23,5.23,0,0,1,1-.54c.4-.7,2.82-5.36,2.48-6s-1.32-1-2.75-.77C129.87,78.27,129.49,83.05,129.44,84.93Z"/><path class="cls-19" d="M130.21,85.55s.17-6.75,1.62-6.94,2.43.08,2.82.82-2.29,5.78-2.5,6.13C131.88,85.51,131.38,84.65,130.21,85.55Z"/><path class="cls-17" d="M132.16,85.64h0a.84.84,0,0,1-.26-.14c-.3-.22-.76-.55-1.62.11a.1.1,0,0,1-.09,0,.06.06,0,0,1,0-.07s0-1.71.27-3.41c.3-2.31.78-3.52,1.42-3.61,1.5-.2,2.5.1,2.9.86.07.13.27.51-1,3.28-.65,1.4-1.37,2.74-1.48,2.93A.08.08,0,0,1,132.16,85.64Zm-1-.58a1.34,1.34,0,0,1,.85.31l.14.09c.44-.78,2.8-5.35,2.46-6s-1.31-1-2.74-.78c-1.1.15-1.48,4.73-1.55,6.7A1.71,1.71,0,0,1,131.13,85.06Z"/><ellipse class="cls-19" cx="131.06" cy="90.84" rx="1.88" ry="2.2" transform="translate(-4.3 6.55) rotate(-2.82)"/><path class="cls-17" d="M131.17,93.15a2.34,2.34,0,1,1,1.88-2.41A2.18,2.18,0,0,1,131.17,93.15ZM131,88.76a2.11,2.11,0,1,0,1.87,2A1.94,1.94,0,0,0,131,88.76Z"/><path class="cls-20" d="M103,99.27s15.24-8.26,22.2-9.84a351.15,351.15,0,0,1,35.13-1.69c-1.85,1.51-18,9.16-20.3,9.74S109.32,99.87,103,99.27Z"/><path class="cls-21" d="M134.85,96s6.16-4,6.8-4.3-12.21,0-12.21,0-6,3.81-6.39,4.23S134.85,96,134.85,96Z"/><path class="cls-16" d="M160.55,87.68s2.84,26.82,1.17,33.72c-1.92,1.8-15.46,8.76-19.9,9-.64-3.05-2.67-30.64-1.56-32.94C141.84,96.06,153.9,89.94,160.55,87.68Z"/><path class="cls-15" d="M103,99.27s.18,13.76,1.17,23.82c.39,3.88,4.31,7.47,5,7.58,1.49,1.23,34.09.38,36-1a10.8,10.8,0,0,1-4-8c-.29-6.7-.49-16.08-.87-24.18C139,96.86,108.83,98.1,103,99.27Z"/><path class="cls-22" d="M132.6,105.93l-21.46.55a1.6,1.6,0,0,0-1.56,1.64v.09l1,12.7a1.59,1.59,0,0,0,1.63,1.46l21.49-.55a1.58,1.58,0,0,0,1.55-1.64v-.09l-1.07-12.7A1.6,1.6,0,0,0,132.6,105.93Z"/><path class="cls-23" d="M133,106.53l-21.51.51a1.24,1.24,0,0,0-1.21,1.28v.07l1,12.76a1.24,1.24,0,0,0,1.27,1.14l21.51-.48a1.24,1.24,0,0,0,1.21-1.28v-.06l-1-12.8A1.26,1.26,0,0,0,133,106.53Z"/><path class="cls-24" d="M119.44,113.32l13.23-.44a.81.81,0,0,0,.77-.83l-.34-3.75a.82.82,0,0,0-.84-.77L119,108a.79.79,0,0,0-.76.83l.34,3.75A.81.81,0,0,0,119.44,113.32Z"/><ellipse class="cls-25" cx="130.27" cy="110.31" rx="1.55" ry="1.93" transform="translate(-6.16 7.72) rotate(-3.32)"/><ellipse class="cls-26" cx="125.6" cy="110.42" rx="1.55" ry="1.93" transform="translate(-6.18 7.45) rotate(-3.32)"/><ellipse class="cls-27" cx="121.03" cy="110.67" rx="1.55" ry="1.93" transform="translate(-6.2 7.19) rotate(-3.32)"/><path class="cls-28" d="M122.26,116.45l10.42-.29a.84.84,0,0,0,.8-.87h0a.84.84,0,0,0-.87-.8l-10.42.3a.83.83,0,0,0-.79.87h0A.83.83,0,0,0,122.26,116.45Z"/><path class="cls-29" d="M128.47,121.29l4.62-.15a.84.84,0,0,0,.8-.87h0a.83.83,0,0,0-.87-.79l-4.63.15a.84.84,0,0,0-.79.87h0A.83.83,0,0,0,128.47,121.29Z"/><path class="cls-29" d="M128.28,119l4.62-.16a.84.84,0,0,0,.8-.86h0a.84.84,0,0,0-.87-.8l-4.63.16a.83.83,0,0,0-.79.87h0A.84.84,0,0,0,128.28,119Z"/><polygon class="cls-30" points="116.78 108.15 110.44 108.27 111.51 121.23 117.9 121.04 116.78 108.15"/><g class="cls-31"><rect class="cls-11" x="110.91" y="108.88" width="1.41" height="1.63" transform="translate(-5.25 5.62) rotate(-2.82)"/><circle class="cls-11" cx="111.57" cy="109.61" r="1.08"/><circle class="cls-32" cx="111.57" cy="109.61" r="1.04"/><circle class="cls-33" cx="111.57" cy="109.61" r="1"/><circle class="cls-34" cx="111.57" cy="109.61" r="0.95"/><circle class="cls-35" cx="111.57" cy="109.61" r="0.91"/><circle class="cls-36" cx="111.57" cy="109.61" r="0.87"/><circle class="cls-37" cx="111.57" cy="109.61" r="0.83"/><circle class="cls-38" cx="111.57" cy="109.61" r="0.79"/><circle class="cls-39" cx="111.57" cy="109.61" r="0.74"/><circle class="cls-40" cx="111.57" cy="109.61" r="0.7"/><circle class="cls-41" cx="111.57" cy="109.61" r="0.66"/><circle class="cls-41" cx="111.57" cy="109.61" r="0.62"/><circle class="cls-42" cx="111.57" cy="109.61" r="0.59"/><circle class="cls-43" cx="111.57" cy="109.61" r="0.56"/><circle class="cls-44" cx="111.57" cy="109.61" r="0.53"/><circle class="cls-45" cx="111.57" cy="109.61" r="0.5"/><circle class="cls-46" cx="111.57" cy="109.61" r="0.47"/><circle class="cls-47" cx="111.57" cy="109.61" r="0.44"/><circle class="cls-48" cx="111.57" cy="109.61" r="0.42"/><circle class="cls-49" cx="111.57" cy="109.61" r="0.39"/><circle class="cls-50" cx="111.57" cy="109.61" r="0.36"/><circle class="cls-51" cx="111.57" cy="109.61" r="0.33"/><circle class="cls-52" cx="111.57" cy="109.61" r="0.3"/><circle class="cls-53" cx="111.57" cy="109.61" r="0.27"/><circle class="cls-54" cx="111.57" cy="109.61" r="0.24"/></g><path class="cls-55" d="M111.66,110.53a.8.8,0,0,1-.77-.78.9.9,0,0,1,.16-.6.71.71,0,0,1,.5-.29h0a.68.68,0,0,1,.53.2.92.92,0,0,1,.26.57.78.78,0,0,1-.66.89Zm-.11-1.6a.6.6,0,0,0-.44.26.88.88,0,0,0-.15.56.67.67,0,1,0,1.31-.11.84.84,0,0,0-.24-.53.58.58,0,0,0-.48-.18Z"/><path class="cls-55" d="M111.7,110.5a2.41,2.41,0,0,1-.18-1.61h.07a2.41,2.41,0,0,0,.17,1.57Z"/><path class="cls-55" d="M111.43,109.83a1.41,1.41,0,0,1-.51,0l0-.07a3,3,0,0,0,1.36-.11l0,.07A4.77,4.77,0,0,1,111.43,109.83Z"/><g class="cls-56"><rect class="cls-11" x="116.15" y="119.18" width="1.41" height="1.63" transform="translate(-5.75 5.89) rotate(-2.82)"/><circle class="cls-11" cx="116.81" cy="119.91" r="1.08"/><circle class="cls-32" cx="116.81" cy="119.91" r="1.04"/><circle class="cls-33" cx="116.81" cy="119.91" r="1"/><circle class="cls-34" cx="116.81" cy="119.91" r="0.95"/><circle class="cls-35" cx="116.81" cy="119.91" r="0.91"/><circle class="cls-36" cx="116.81" cy="119.91" r="0.87"/><circle class="cls-37" cx="116.81" cy="119.91" r="0.83"/><circle class="cls-38" cx="116.81" cy="119.91" r="0.79"/><circle class="cls-39" cx="116.81" cy="119.91" r="0.74"/><circle class="cls-40" cx="116.81" cy="119.91" r="0.7"/><circle class="cls-41" cx="116.81" cy="119.91" r="0.66"/><circle class="cls-41" cx="116.81" cy="119.91" r="0.62"/><circle class="cls-42" cx="116.81" cy="119.91" r="0.59"/><circle class="cls-43" cx="116.81" cy="119.91" r="0.56"/><circle class="cls-44" cx="116.81" cy="119.91" r="0.53"/><circle class="cls-45" cx="116.81" cy="119.91" r="0.5"/><circle class="cls-46" cx="116.81" cy="119.91" r="0.47"/><circle class="cls-47" cx="116.81" cy="119.91" r="0.44"/><circle class="cls-48" cx="116.81" cy="119.91" r="0.42"/><circle class="cls-49" cx="116.81" cy="119.91" r="0.39"/><circle class="cls-50" cx="116.81" cy="119.91" r="0.36"/><circle class="cls-51" cx="116.81" cy="119.91" r="0.33"/><circle class="cls-52" cx="116.81" cy="119.91" r="0.3"/><circle class="cls-53" cx="116.81" cy="119.91" r="0.27"/><circle class="cls-54" cx="116.81" cy="119.91" r="0.24"/></g><path class="cls-55" d="M116.9,120.83a.67.67,0,0,1-.51-.21.89.89,0,0,1-.26-.57.78.78,0,0,1,.66-.89h0a.79.79,0,0,1,.79.77.92.92,0,0,1-.16.61.66.66,0,0,1-.5.28Zm-.11-1.6a.73.73,0,0,0-.59.82.82.82,0,0,0,.24.52.63.63,0,0,0,.48.19.64.64,0,0,0,.44-.26.91.91,0,0,0,.15-.56.73.73,0,0,0-.72-.71Z"/><path class="cls-55" d="M116.94,120.8a2.35,2.35,0,0,1-.18-1.61h.06a2.43,2.43,0,0,0,.18,1.57Z"/><path class="cls-55" d="M116.67,120.13a1.41,1.41,0,0,1-.51,0l0-.07a2.9,2.9,0,0,0,1.35-.11l0,.07A4.77,4.77,0,0,1,116.67,120.13Z"/><g class="cls-57"><rect class="cls-11" x="111.64" y="119.28" width="1.41" height="1.63" transform="translate(-5.76 5.67) rotate(-2.82)"/><circle class="cls-11" cx="112.3" cy="120.01" r="1.08"/><circle class="cls-32" cx="112.3" cy="120.01" r="1.04"/><circle class="cls-33" cx="112.3" cy="120.01" r="1"/><circle class="cls-34" cx="112.3" cy="120.01" r="0.95"/><circle class="cls-35" cx="112.3" cy="120.01" r="0.91"/><circle class="cls-36" cx="112.3" cy="120.01" r="0.87"/><circle class="cls-37" cx="112.3" cy="120.01" r="0.83"/><circle class="cls-38" cx="112.3" cy="120.01" r="0.79"/><circle class="cls-39" cx="112.3" cy="120.01" r="0.74"/><circle class="cls-40" cx="112.3" cy="120.01" r="0.7"/><circle class="cls-41" cx="112.3" cy="120.01" r="0.66"/><circle class="cls-41" cx="112.3" cy="120.01" r="0.62"/><circle class="cls-42" cx="112.3" cy="120.01" r="0.59"/><circle class="cls-43" cx="112.3" cy="120.01" r="0.56"/><circle class="cls-44" cx="112.3" cy="120.01" r="0.53"/><circle class="cls-45" cx="112.3" cy="120.01" r="0.5"/><circle class="cls-46" cx="112.3" cy="120.01" r="0.47"/><circle class="cls-47" cx="112.3" cy="120.01" r="0.44"/><circle class="cls-48" cx="112.3" cy="120.01" r="0.42"/><circle class="cls-49" cx="112.3" cy="120.01" r="0.39"/><circle class="cls-50" cx="112.3" cy="120.01" r="0.36"/><circle class="cls-51" cx="112.3" cy="120.01" r="0.33"/><circle class="cls-52" cx="112.3" cy="120.01" r="0.3"/><circle class="cls-53" cx="112.3" cy="120.01" r="0.27"/><circle class="cls-54" cx="112.3" cy="120.01" r="0.24"/></g><path class="cls-55" d="M112.4,120.93a.78.78,0,0,1-.77-.77.86.86,0,0,1,.16-.61.69.69,0,0,1,.49-.29h0a.69.69,0,0,1,.53.21.89.89,0,0,1,.26.57.78.78,0,0,1-.65.89Zm-.11-1.6a.64.64,0,0,0-.45.26.91.91,0,0,0-.15.56.73.73,0,0,0,.72.71A.72.72,0,0,0,113,120a.82.82,0,0,0-.24-.52.58.58,0,0,0-.47-.19Z"/><path class="cls-55" d="M112.43,120.91a2.44,2.44,0,0,1-.18-1.62h.07a2.4,2.4,0,0,0,.17,1.57Z"/><path class="cls-55" d="M112.16,120.24a1.66,1.66,0,0,1-.51-.06l0-.06A2.77,2.77,0,0,0,113,120l0,.07A4.25,4.25,0,0,1,112.16,120.24Z"/><g class="cls-58"><rect class="cls-11" x="114.83" y="108.74" width="1.41" height="1.63" transform="translate(-5.24 5.81) rotate(-2.82)"/><circle class="cls-11" cx="115.49" cy="109.47" r="1.08"/><circle class="cls-32" cx="115.49" cy="109.47" r="1.04"/><circle class="cls-33" cx="115.49" cy="109.47" r="1"/><circle class="cls-34" cx="115.49" cy="109.47" r="0.95"/><circle class="cls-35" cx="115.49" cy="109.47" r="0.91"/><circle class="cls-36" cx="115.49" cy="109.47" r="0.87"/><circle class="cls-37" cx="115.49" cy="109.47" r="0.83"/><circle class="cls-38" cx="115.49" cy="109.47" r="0.79"/><circle class="cls-39" cx="115.49" cy="109.47" r="0.74"/><circle class="cls-40" cx="115.49" cy="109.47" r="0.7"/><circle class="cls-41" cx="115.49" cy="109.47" r="0.66"/><circle class="cls-41" cx="115.49" cy="109.47" r="0.62"/><circle class="cls-42" cx="115.49" cy="109.47" r="0.59"/><circle class="cls-43" cx="115.49" cy="109.47" r="0.56"/><circle class="cls-44" cx="115.49" cy="109.47" r="0.53"/><circle class="cls-45" cx="115.49" cy="109.47" r="0.5"/><circle class="cls-46" cx="115.49" cy="109.47" r="0.47"/><circle class="cls-47" cx="115.49" cy="109.47" r="0.44"/><circle class="cls-48" cx="115.49" cy="109.47" r="0.42"/><circle class="cls-49" cx="115.49" cy="109.47" r="0.39"/><circle class="cls-50" cx="115.49" cy="109.47" r="0.36"/><circle class="cls-51" cx="115.49" cy="109.47" r="0.33"/><circle class="cls-52" cx="115.49" cy="109.47" r="0.3"/><circle class="cls-53" cx="115.49" cy="109.47" r="0.27"/><circle class="cls-54" cx="115.49" cy="109.47" r="0.24"/></g><path class="cls-55" d="M115.58,110.39a.8.8,0,0,1-.77-.78.9.9,0,0,1,.16-.6.71.71,0,0,1,.5-.29h0a.68.68,0,0,1,.53.2.92.92,0,0,1,.26.57.8.8,0,0,1-.66.9Zm-.11-1.6a.6.6,0,0,0-.44.26.88.88,0,0,0-.15.56.67.67,0,1,0,1.31-.11A.84.84,0,0,0,116,109a.62.62,0,0,0-.48-.18Z"/><path class="cls-55" d="M115.62,110.37a2.44,2.44,0,0,1-.18-1.62h.07a2.34,2.34,0,0,0,.17,1.57Z"/><path class="cls-55" d="M115.35,109.69a1.41,1.41,0,0,1-.51,0l0-.06a3.07,3.07,0,0,0,1.36-.12l0,.07A4,4,0,0,1,115.35,109.69Z"/><path class="cls-59" d="M123.33,116.25h-.06c-.3,0-.52-.48-.71-.88s-.27-.56-.36-.54l0-.08c.16,0,.29.24.46.58s.39.82.63.83a.49.49,0,0,0,.43-.24.71.71,0,0,1,.5-.31.42.42,0,0,1,.4.15c.11.11.26.26.86.27a1.33,1.33,0,0,0,1.12-.64,1.27,1.27,0,0,1,.81-.57,1,1,0,0,1,.77.38,1.42,1.42,0,0,0,1.82.33,6.54,6.54,0,0,1,3.51-.29l0,.09a6.38,6.38,0,0,0-3.45.28,1.5,1.5,0,0,1-1.92-.34c-.24-.21-.43-.39-.71-.36a1.18,1.18,0,0,0-.74.53,1.41,1.41,0,0,1-1.19.68c-.64,0-.8-.18-.92-.3a.34.34,0,0,0-.33-.12.58.58,0,0,0-.44.28A.61.61,0,0,1,123.33,116.25Z"/><path class="cls-59" d="M134.74,130.93c-23,1.06-24.82.17-26-.42l-.23-.11h0c-3.56-3.28-4-5.26-4.3-6.85,0-.14,0-.28-.08-.41-.72-1.47-1.16-22.94-1.18-23.85v-.06l0,0c.17-.09,17-8.75,20.87-9.53l0,.18c-3.79.75-19.76,9-20.77,9.48,0,1.25.47,22.43,1.16,23.73v0l.09.42c.32,1.57.72,3.52,4.23,6.75l.22.11c1.16.58,2.91,1.46,25.91.4Z"/><path class="cls-59" d="M162.16,107.43l-.18,0c.14-1.07-1.4-18.49-1.51-19.66-1.17-.25-15.21.35-22.59.7v-.17c.89,0,21.78-1,22.72-.68l0,0v.06C160.71,88.44,162.3,106.32,162.16,107.43Z"/><path class="cls-10" d="M133.44,137.06a11.84,11.84,0,0,1,.31-1.86,135.79,135.79,0,0,1,4.62-15c1.13-2.76,1.81-4.64,2.4-6a11.69,11.69,0,0,1,3.07-4.25,11.44,11.44,0,0,1,10-3.12c5.57.53,8.54.51,9.64.81,1.1.69,5.88,5.31,6.36,9.37.34,2.93.28,6.94-1.66,10.18S158.6,145.88,155,146.35c-4.23.54-15.16.4-18.44-1.77C133.59,142.62,133.2,140,133.44,137.06Z"/><path d="M152.47,146.62c-5.18.25-13.27-.19-16-2-3.11-2.07-3.34-4.86-3.12-7.57h0a11.79,11.79,0,0,1,.32-1.87,136.12,136.12,0,0,1,4.62-15c.62-1.51,1.09-2.73,1.51-3.81.33-.86.62-1.61.89-2.24a11.65,11.65,0,0,1,3.09-4.28,11.54,11.54,0,0,1,10.08-3.14c2.61.25,4.69.38,6.2.48a23.52,23.52,0,0,1,3.45.34h0c1.17.72,5.92,5.37,6.39,9.42.33,2.83.32,6.9-1.66,10.22-.35.59-.89,1.57-1.57,2.82-3,5.59-8.72,16-11.72,16.38C154.27,146.5,153.42,146.57,152.47,146.62Zm-19-9.55c-.21,2.67,0,5.42,3.07,7.45s13.86,2.34,18.39,1.76c2.94-.37,8.59-10.74,11.63-16.31.68-1.25,1.21-2.24,1.57-2.83,2-3.28,2-7.32,1.64-10.14-.47-4-5.15-8.58-6.32-9.32a24.76,24.76,0,0,0-3.41-.33c-1.51-.1-3.59-.23-6.21-.48a11.42,11.42,0,0,0-10,3.11,11.68,11.68,0,0,0-3,4.23c-.27.63-.55,1.38-.89,2.24-.42,1.07-.89,2.3-1.51,3.8a135.64,135.64,0,0,0-4.61,15,11.54,11.54,0,0,0-.32,1.85Z"/><path class="cls-11" d="M153.16,146a6.1,6.1,0,0,1-3.77-.91c-2.66-1.77-3-4.06-2.82-7a10.62,10.62,0,0,1,.3-1.76,137.47,137.47,0,0,1,4.59-14.89c.62-1.52,1.12-2.8,1.53-3.84.33-.85.61-1.58.87-2.21a11.06,11.06,0,0,1,2.91-4,12.35,12.35,0,0,1,3.32-2.25,10.6,10.6,0,0,1,3.76-.88,11.12,11.12,0,0,1,2.44.15,20.21,20.21,0,0,1,7.65,3.1l.28.18.14.08a18.11,18.11,0,0,1,3.19,2.42,7.53,7.53,0,0,1,2.49,4.45c.32,2.73.31,6.64-1.57,9.79-.85,1.43-4.34,4.9-8.67,8.62s-8.27,6.61-9.75,7.12l-.73.25A22.93,22.93,0,0,1,153.16,146Z"/><path d="M163.88,108.87a10.42,10.42,0,0,1,2.3.14,19.69,19.69,0,0,1,7.43,3l.28.18.14.09a17.62,17.62,0,0,1,3.09,2.33,7,7,0,0,1,2.31,4.08c.56,4.78-.5,7.75-1.49,9.41-.81,1.36-4.32,4.84-8.55,8.47s-8.15,6.52-9.54,7l-.74.26a22.43,22.43,0,0,1-6,1.5,5.48,5.48,0,0,1-5.65-3.56,8.81,8.81,0,0,1-.3-3.62,10.29,10.29,0,0,1,.29-1.66A135.54,135.54,0,0,1,152,121.69c.63-1.53,1.13-2.81,1.53-3.85.33-.84.61-1.57.87-2.19a10.59,10.59,0,0,1,2.74-3.81,11.74,11.74,0,0,1,3.17-2.14,10.06,10.06,0,0,1,3.54-.83h0m-.06-1.23a11.35,11.35,0,0,0-4,.93,12.58,12.58,0,0,0-3.48,2.35,11.46,11.46,0,0,0-3.07,4.25c-.59,1.41-1.27,3.29-2.41,6a135.41,135.41,0,0,0-4.61,15,11.86,11.86,0,0,0-.32,1.86c-.23,2.94.16,5.56,3.1,7.51a6.66,6.66,0,0,0,4.13,1,26.84,26.84,0,0,0,7.07-1.83c3.45-1.19,16.81-12.76,18.75-16s2-7.25,1.65-10.18c-.48-4.06-5-6.72-6.11-7.41a21.54,21.54,0,0,0-8.15-3.36,11.77,11.77,0,0,0-2.58-.15Z"/><ellipse class="cls-12" cx="170.69" cy="121.46" rx="6.55" ry="8.2" transform="translate(-5.76 8.53) rotate(-2.82)"/><ellipse class="cls-12" cx="162.92" cy="133.53" rx="4.69" ry="5.87" transform="translate(-6.36 8.17) rotate(-2.82)"/><ellipse class="cls-12" cx="153.8" cy="138.6" rx="3.69" ry="4.62" transform="translate(-6.62 7.72) rotate(-2.82)"/><g class="cls-13"><path class="cls-14" d="M138.37,120.23,141.1,117l.43,7s4.78-9.94,4.72-9.53-1.29,6-1.29,6l3.32-3.78-1.22,6,3.52-3.74-.67,3,1.37-1.67-5.81,10.66,1.17-5.2L142.87,131l1-6.18-3.14,4.76-.41-6.67-1.54,3.15,1.39-6.2-2.31,4.93Z"/></g><g class="cls-13"><polygon class="cls-14" points="152.93 106.74 148.66 109.15 152.98 107.84 149.68 110.3 155.98 107.58 154.82 108.85 159.25 107.23 152.93 106.74"/></g><ellipse class="cls-15" cx="171.11" cy="121.44" rx="2.23" ry="3.06" transform="translate(-5.76 8.55) rotate(-2.82)"/><ellipse class="cls-15" cx="163.14" cy="133.75" rx="1.92" ry="2.65" transform="translate(-31.66 52.78) rotate(-16.78)"/><ellipse class="cls-15" cx="153.82" cy="138.92" rx="1.43" ry="1.96" transform="translate(-33.55 50.31) rotate(-16.78)"/><path class="cls-60" d="M150.92,132.53s.91-2.16,4.17-1.32c.49-1.39,1.46-5.15,7.15-5.08-.35-1.25-2.93-6.55.95-12.17-1.71-.63-2.77-1.06-4.71,1.67S150.65,131.9,150.92,132.53Z"/><path class="cls-61" d="M150.92,132.76l-.08-.19c-.22-.52,2.62-7,2.95-7.74a76.06,76.06,0,0,1,4.61-9.25c2-2.76,3.08-2.35,4.77-1.72l.15.06-.06.09a12.11,12.11,0,0,0-1.11,11.56c.08.22.14.4.18.53l0,.12h-.12c-5.33,0-6.45,3.22-7,4.79l-.08.24,0,.07-.08,0a3.92,3.92,0,0,0-3.24.34,2.59,2.59,0,0,0-.83.93Zm10.33-19.18c-.8,0-1.6.56-2.7,2.1a76.26,76.26,0,0,0-4.58,9.18,75.46,75.46,0,0,0-2.91,7.27c.44-.58,1.58-1.61,4-1l.06-.15a7.35,7.35,0,0,1,1.73-3.06,7.17,7.17,0,0,1,5.3-1.85,4,4,0,0,0-.14-.41,15.14,15.14,0,0,1-1-4.65,11.58,11.58,0,0,1,2.06-7A4.81,4.81,0,0,0,161.25,113.58Z"/><path class="cls-62" d="M134.85,82.1l.69,10.13-8.87.69c-1.48.11-2.84-2.08-3-4.88s.86-5.14,2.35-5.24a1.83,1.83,0,0,1,1.41.61Z"/><path d="M126.65,93c-1.52.08-2.9-2.14-3.1-5s.9-5.24,2.43-5.34a1.89,1.89,0,0,1,1.45.6l7.4-1.29a.06.06,0,0,1,.07,0,.09.09,0,0,1,0,.06l.68,10.13a.08.08,0,0,1-.08.09l-8.86.69ZM126,82.88h0c-1.43.09-2.44,2.4-2.26,5.15s1.49,4.87,2.91,4.8h0l8.77-.69-.67-9.94-7.35,1.28a.08.08,0,0,1-.08,0A1.8,1.8,0,0,0,126,82.88Z"/><polygon class="cls-63" points="125.64 74.93 128.06 77.8 130.47 77.63 129.01 74.7 125.64 74.93"/><path d="M128.06,77.87l-.06,0L125.58,75a.08.08,0,0,1,0-.08.07.07,0,0,1,.06,0l3.37-.23a.08.08,0,0,1,.08,0l1.45,2.93s0,.05,0,.07a.07.07,0,0,1-.06,0l-2.41.16ZM125.79,75l2.3,2.72,2.26-.16L129,74.79Z"/><path class="cls-64" d="M102,65.62c.3,2.7-1,5.81-.08,8.61A2.6,2.6,0,0,0,104.19,76c4,.36,7.17-.09,16.46-2.81l3.06,4.94,6.43-8.4.33-.43h0a2.62,2.62,0,0,0,.37-1.59A42.31,42.31,0,0,0,129,58.63a2.62,2.62,0,0,0-2.09-1.82,101,101,0,0,0-23.23-1.68A5,5,0,0,0,101,56.51h0l-4.74,4.85Z"/><polygon class="cls-65" points="123 75.11 132.24 74.49 132.56 88.59 123.78 88.98 123 75.11"/><path class="cls-59" d="M132.64,88.66l-8.93.4-.79-14,9.39-.64Zm-8.78.24,8.62-.38-.32-14-9.08.61Z"/><polygon class="cls-16" points="139.38 78.22 137.06 84.68 132.56 88.59 132.24 74.49 139.38 78.22"/><path class="cls-59" d="M132.48,88.76l-.32-14.4,7.32,3.82-2.35,6.54,0,0Zm-.16-14.15.31,13.82,4.37-3.8,2.29-6.38Z"/><path class="cls-64" d="M130.34,72.74a1.79,1.79,0,0,0,.7-.61Z"/><polygon class="cls-65" points="124.64 91.52 125.34 95.78 134.82 95.32 133.67 91.08 124.64 91.52"/><path class="cls-59" d="M134.92,95.39l-9.64.47-.73-4.41,9.17-.45Zm-9.51.31,9.31-.46-1.11-4.08-8.88.43Z"/><polygon class="cls-16" points="137.85 88.6 140.51 91.75 134.82 95.32 133.67 91.08 137.85 88.6"/><path class="cls-59" d="M134.77,95.44,133.58,91l4.29-2.54,2.76,3.27Zm-1-4.33,1.11,4.09,5.52-3.47-2.56-3Z"/><ellipse class="cls-19" cx="135.19" cy="87.17" rx="2.69" ry="5.08" transform="translate(-5.58 9.34) rotate(-3.88)"/><ellipse class="cls-54" cx="135.41" cy="87.43" rx="1.17" ry="2.53" transform="translate(-4.13 6.76) rotate(-2.82)"/><path class="cls-15" d="M124.12,63s2.92.14,4.39.11c-.64,4.16-1.46,7.32,1,13.07-4.1-.29-4.15,0-4.15,0A27.2,27.2,0,0,0,124.12,63Z"/><polygon class="cls-66" points="124.12 63.01 128.05 59.06 131.3 59.16 127.61 63.13 124.12 63.01"/><line class="cls-1" x1="163.22" y1="77.06" x2="162.25" y2="78.04"/><path class="cls-64" d="M127.59,62.76l5.06,2.76a46.43,46.43,0,0,0,1.11,5.34,3,3,0,0,0,1.85,2c9.87,3.52,13.54,5.16,18.84,5.56L157,83.29,162.25,78h0l1-1a2.87,2.87,0,0,0,.43-1.56,58,58,0,0,0-2.51-17,3,3,0,0,0-2.58-2,129.24,129.24,0,0,0-24,.18,2.87,2.87,0,0,0-1.92,1.08h0Z"/><path class="cls-67" d="M154.54,83c-3.82.18-9.39-.36-24.09-5.61A1.92,1.92,0,0,1,129.23,76a56.86,56.86,0,0,1-1.7-10.86,2,2,0,0,1,1.7-2.06c1.71-.22,3.68-.38,5.85-.49a146.63,146.63,0,0,1,17.9.32,1.93,1.93,0,0,1,1.7,1.33c.12.39.27.8.42,1.24a34.45,34.45,0,0,1,2.05,15.36,2,2,0,0,1-1.78,2Z"/><path class="cls-68" d="M135.13,63.62a148.52,148.52,0,0,1,17.77.31,1,1,0,0,1,.82.64c.13.41.27.82.43,1.26a33.14,33.14,0,0,1,2,15,1.08,1.08,0,0,1-.86,1.1l-.8,0c-3.71.18-9.15-.36-23.69-5.54a1,1,0,0,1-.59-.64,55,55,0,0,1-1.66-10.67.93.93,0,0,1,.81-1c1.68-.21,3.63-.37,5.78-.48h0m-.1-2c-2.21.11-4.21.28-5.93.49a3,3,0,0,0-2.58,3.14,55.45,55.45,0,0,0,1.74,11.05,2.92,2.92,0,0,0,1.85,2c14.1,5,20.06,5.88,24.47,5.67l.86-.06a3,3,0,0,0,2.7-3,36.62,36.62,0,0,0-2.51-17,3,3,0,0,0-2.58-2,146.68,146.68,0,0,0-18-.32Z"/><path class="cls-69" d="M139.35,77.63H139a6.58,6.58,0,0,1-.2-13.09h.34a5.74,5.74,0,0,1,4.24,1.94,6.73,6.73,0,0,1,1.74,4.67A6.34,6.34,0,0,1,139.35,77.63Z"/><path class="cls-70" d="M138.85,65.39h.29a5.73,5.73,0,0,1,.17,11.39H139a4.94,4.94,0,0,1-3.62-1.67A6,6,0,0,1,133.86,71a5.52,5.52,0,0,1,5-5.64m-.09-1.69A7.43,7.43,0,0,0,139,78.48h.39a7.42,7.42,0,0,0-.24-14.77C139,63.69,138.89,63.7,138.76,63.7Z"/><ellipse class="cls-71" cx="137.06" cy="71.83" rx="2.6" ry="2.19" transform="translate(63.74 208.1) rotate(-89.38)"/><polygon class="cls-64" points="123.51 77.47 125.35 76.14 125.58 74.44 123.62 74.64 123.51 77.47"/><path class="cls-67" d="M104.9,81.35a45.92,45.92,0,0,1-6.28-.18l-.93-.07c-.58,0-1.25-.38-1.35-.92-1.62-8.28-.89-13.73,0-16.86.32-1.11.83-1.7,1.51-1.75l1.53-.1A84.06,84.06,0,0,1,118.21,63c1.08.18,2,.34,2.83.46a1.59,1.59,0,0,1,1.3,1.09c1,3,1,7.31,1,10.19v.64a1.72,1.72,0,0,1-1,1.77c-6.84,2.65-12.36,4-17.39,4.25Z"/><path class="cls-68" d="M99.44,62.48A83.08,83.08,0,0,1,118,63.94c1.09.18,2,.35,2.86.47a.59.59,0,0,1,.49.41c.91,2.79.91,7.05.91,9.87,0,.22,0,.44,0,.64s-.09.73-.35.83a74.65,74.65,0,0,1-10,3.17,40.6,40.6,0,0,1-7,1,44.18,44.18,0,0,1-6.16-.18l-.94-.07a.79.79,0,0,1-.45-.16,46.57,46.57,0,0,1-.92-9.58,25.93,25.93,0,0,1,.93-6.74,2.24,2.24,0,0,1,.43-.92c.09-.11.13-.11.18-.12l1.5-.09m-.1-2-1.54.1c-1.32.09-2,1.21-2.41,2.48-1.12,3.89-1.53,9.7,0,17.32a2.39,2.39,0,0,0,2.27,1.73,54.61,54.61,0,0,0,7.34.25c4.18-.2,9.64-1.19,17.71-4.32a2.76,2.76,0,0,0,1.64-2.7c0-3,.08-7.81-1-11.14a2.61,2.61,0,0,0-2.12-1.78c-4.19-.59-12-2.43-21.84-1.94Z"/><path class="cls-69" d="M112.34,78.08a6,6,0,0,1-4.4-1.66,7.11,7.11,0,0,1-.71-9.46,5.94,5.94,0,0,1,4.21-2.3h.19a6,6,0,0,1,4.4,1.66,7.11,7.11,0,0,1,.71,9.46,6,6,0,0,1-4.21,2.3Z"/><path class="cls-70" d="M111.67,65.51a5.13,5.13,0,0,1,3.77,1.43,6.13,6.13,0,0,1,1.89,4,6.06,6.06,0,0,1-1.27,4.3,5.09,5.09,0,0,1-3.6,2h-.16a5.13,5.13,0,0,1-3.77-1.43,6.13,6.13,0,0,1-1.89-4,6.06,6.06,0,0,1,1.27-4.3,5.09,5.09,0,0,1,3.6-2h.16m-.09-1.74-.21,0a7.62,7.62,0,0,0,1,15.16h.21a7.63,7.63,0,0,0-1-15.17Z"/><path class="cls-71" d="M107.6,71.79A2.46,2.46,0,0,0,110,74.32a2.54,2.54,0,0,0,2.13-2.82c-.11-1.64-1-2.61-2.42-2.52A2.49,2.49,0,0,0,107.6,71.79Z"/><path class="cls-16" d="M173.13,87.5c.41,1,.74,2.73-.54,5.55a8.33,8.33,0,0,1-3.6,2.79c-1.29.56-11.18,4.38-15.26,6l-.36,2.3-2.76-1.45h0a1.61,1.61,0,0,1-.5-.4,6.9,6.9,0,0,1-.74-3.42c.22-.62.17-.56,1-1.14l16.41-11.62s2.63-1.6,4.58-.7l.24.13h0l2.54,1.33Z"/><path class="cls-17" d="M153.43,104.21l-2.87-1.5a1.63,1.63,0,0,1-.52-.42h0a7.12,7.12,0,0,1-.75-3.47v0l0-.08c.18-.53.19-.53.87-1l.11-.08L166.72,86a8.09,8.09,0,0,1,1.57-.7,4.35,4.35,0,0,1,3.08,0l.26.14,2.65,1.38-1.05.72c.61,1.48.41,3.4-.57,5.55h0A8.32,8.32,0,0,1,169,95.91c-1.39.6-12.82,5-15.22,5.94Zm-2.81-1.64h0l2.67,1.39.35-2.23,0,0c2.3-.89,13.86-5.35,15.26-6A8.2,8.2,0,0,0,172.52,93c1-2.14,1.16-4,.54-5.48l0-.06.93-.64-2.67-1.4c-1.89-.87-4.47.68-4.5.7L150.39,97.74l-.11.08c-.65.46-.65.46-.82.94l0,.07a6.88,6.88,0,0,0,.72,3.36A1.53,1.53,0,0,0,150.62,102.57Z"/><path class="cls-18" d="M173.07,86.43s4.47-6,6-5.17,2.28,1.71,2.19,2.63-6.07,3.7-6.49,3.87S174.76,86.41,173.07,86.43Z"/><path class="cls-17" d="M174.7,87.86l-.09,0c-.1,0-.14-.18-.19-.35a1.17,1.17,0,0,0-1.35-1h-.16l.09-.13c.19-.25,4.54-6,6.09-5.19s2.33,1.76,2.23,2.71-6.47,3.91-6.54,3.94Zm-1.47-1.51a1.32,1.32,0,0,1,1.35,1.09c0,.11.07.24.1.25s0,0,0,0c.76-.32,6.35-3,6.44-3.8s-.65-1.77-2.15-2.56C177.86,80.72,174.54,84.63,173.23,86.35Z"/><path class="cls-19" d="M173.63,87.22s4.47-6,6-5.16,2.28,1.7,2.18,2.63-6.06,3.69-6.48,3.87S175.32,87.2,173.63,87.22Z"/><path class="cls-17" d="M175.26,88.65a.15.15,0,0,1-.09,0c-.1,0-.14-.18-.19-.35a1.19,1.19,0,0,0-1.35-1h-.16l.09-.13c.19-.24,4.54-6,6.09-5.18s2.33,1.76,2.23,2.71-6.48,3.9-6.54,3.93Zm-1.47-1.51a1.3,1.3,0,0,1,1.34,1.1c0,.11.07.23.11.25h0c.73-.3,6.35-3,6.43-3.8s-.64-1.76-2.14-2.55C178.41,81.52,175.1,85.43,173.79,87.14Z"/><path class="cls-18" d="M174.85,88.77c1-.29,7.83-2.26,8.53-.71s.61,2.54-.14,3.19-7.54-.46-8-.55S176.23,89.67,174.85,88.77Z"/><path class="cls-17" d="M182.35,91.52a46.69,46.69,0,0,1-7.13-.75.16.16,0,0,1-.14-.09c-.05-.1,0-.22.1-.38a1,1,0,0,0-.38-1.46l-.15-.1.17,0,.2,0c5.14-1.43,8-1.63,8.43-.61.67,1.48.61,2.61-.15,3.28A1.74,1.74,0,0,1,182.35,91.52Zm-7.13-.91h0c1,.19,7.26,1.16,7.93.57s.75-1.69.11-3.09c-.55-1.23-5.4-.1-8.24.69h0a1.08,1.08,0,0,1,.29,1.57c0,.08-.11.2-.1.24Z"/><path class="cls-19" d="M175.56,89.42s7.4-2.26,8-.84.72,2.81,0,3.46-7.16-.6-7.63-.69S176.94,90.32,175.56,89.42Z"/><path class="cls-17" d="M182.81,92.3a41.46,41.46,0,0,1-6.87-.88.2.2,0,0,1-.15-.09c0-.1,0-.22.1-.38a.94.94,0,0,0-.37-1.46l-.15-.1.17,0s1.87-.57,3.79-1c2.6-.52,4.06-.47,4.34.16.7,1.55.69,2.92,0,3.55A1.44,1.44,0,0,1,182.81,92.3Zm-6.87-1h0c1.43.29,6.91,1.27,7.55.71s.68-1.88,0-3.36c-.49-1.09-5.64.19-7.79.83A1.09,1.09,0,0,1,176,91a.55.55,0,0,0-.1.24Z"/><path class="cls-18" d="M175.17,91.66s5.69.2,5.86,1.58-.05,2.33-.67,2.7-5-2.33-5.28-2.53S175.93,92.79,175.17,91.66Z"/><path class="cls-17" d="M180.24,96.05c-1.06,0-5.16-2.54-5.2-2.57a.14.14,0,0,1-.08-.12c0-.09,0-.19.13-.3a1,1,0,0,0,0-1.35l-.09-.13h.16c.24,0,5.76.22,5.94,1.65S181,95.62,180.4,96A.53.53,0,0,1,180.24,96.05Zm-4.92-4.3a1.12,1.12,0,0,1-.1,1.4c-.05.07-.11.16-.1.18a0,0,0,0,0,0,0c.68.46,4.27,2.58,5.08,2.55l.11,0c.58-.35.8-1.25.63-2.62C180.82,92.21,177,91.82,175.32,91.75Z"/><path class="cls-19" d="M175.21,92.48s5.68.2,5.85,1.58-.05,2.33-.67,2.7-5-2.33-5.27-2.53S176,93.61,175.21,92.48Z"/><path class="cls-17" d="M180.28,96.87c-1.06,0-5.16-2.54-5.21-2.57a.2.2,0,0,1-.08-.12c0-.09,0-.18.14-.3a1,1,0,0,0,0-1.35l-.09-.13h.16c.24,0,5.76.22,5.93,1.65s-.07,2.4-.7,2.78Zm-4.92-4.3a1.12,1.12,0,0,1-.1,1.4.84.84,0,0,0-.11.18v0c.68.46,4.27,2.59,5.08,2.55l.11,0c.58-.35.8-1.25.63-2.62C180.86,93,177,92.64,175.36,92.57Z"/><path class="cls-20" d="M153.13,99.13l16.42-11.62s4.26-2.59,6,.69c.36.55,1.63,2.44-.13,6.3a8.35,8.35,0,0,1-3.6,2.8c-1.63.7-17,6.62-17,6.62a1.3,1.3,0,0,1-1.88-.23,7,7,0,0,1-.74-3.42C152.36,99.65,152.31,99.71,153.13,99.13Z"/><path class="cls-17" d="M154,104.3a1.37,1.37,0,0,1-1.15-.56h0a7,7,0,0,1-.74-3.47v0l0-.09c.18-.52.19-.53.89-1l.09-.07L169.5,87.45c.1-.06,2.32-1.4,4.22-.87a3,3,0,0,1,1.86,1.59l0,0a4.46,4.46,0,0,1,.72,2,8.17,8.17,0,0,1-.87,4.38v0a8.4,8.4,0,0,1-3.63,2.82c-1.59.69-16.51,6.43-17,6.62A1.6,1.6,0,0,1,154,104.3Zm-1-.66a1.22,1.22,0,0,0,1.77.22h0c.16-.06,15.4-5.93,17-6.63a8.19,8.19,0,0,0,3.56-2.76c1.71-3.76.54-5.59.16-6.19l0,0a2.85,2.85,0,0,0-1.77-1.51c-1.83-.51-4.07.84-4.09.85l-16.5,11.67c-.67.48-.67.48-.83,1l0,.08A6.88,6.88,0,0,0,153,103.64Z"/><path class="cls-18" d="M170.45,85.94s.18-6.74,1.62-6.93,2.44.08,2.82.82S172.6,85.61,172.4,86a6.21,6.21,0,0,0-1.1.57S171,86.35,170.45,85.94Z"/><path class="cls-17" d="M171.3,86.61l0,0s-.3-.18-.86-.58l0,0v0s0-1.71.27-3.4c.3-2.31.78-3.53,1.42-3.61,1.5-.2,2.51.1,2.91.86s-2.47,6.15-2.5,6.2l0,.05h-.06a6.39,6.39,0,0,0-1,.56Zm-.77-.71c.42.3.68.46.77.52a5.26,5.26,0,0,1,1-.54c.4-.7,2.82-5.36,2.47-6s-1.31-1-2.74-.77C171,79.24,170.58,84,170.53,85.9Z"/><path class="cls-19" d="M171.3,86.52s.18-6.75,1.62-6.94,2.44.08,2.83.82-2.29,5.78-2.5,6.13C173,86.48,172.47,85.62,171.3,86.52Z"/><path class="cls-17" d="M173.25,86.61h0a.84.84,0,0,1-.26-.14c-.31-.22-.77-.54-1.63.11a.08.08,0,0,1-.08,0,.08.08,0,0,1-.05-.07s.05-1.71.27-3.41c.31-2.31.78-3.52,1.42-3.61,1.5-.2,2.51.1,2.91.86s-2.47,6.16-2.5,6.21A.1.1,0,0,1,173.25,86.61Zm-1-.57a1.27,1.27,0,0,1,.84.3l.14.09c.18-.32.85-1.58,1.44-2.85,1.09-2.36,1.11-3,1-3.14-.37-.7-1.32-1-2.75-.78-1.09.15-1.48,4.73-1.54,6.7A1.56,1.56,0,0,1,172.23,86Z"/><ellipse class="cls-19" cx="172.15" cy="91.81" rx="1.88" ry="2.2" transform="translate(-4.3 8.57) rotate(-2.82)"/><path class="cls-17" d="M172.27,94.12a2.34,2.34,0,1,1,1.88-2.41A2.18,2.18,0,0,1,172.27,94.12Zm-.22-4.39a2.11,2.11,0,1,0,1.86,2A2,2,0,0,0,172.05,89.73Z"/></g></svg>