<?xml version="1.0" encoding="utf-8"?>
<!-- Generator: Adobe Illustrator 23.0.2, SVG Export Plug-In . SVG Version: 6.00 Build 0)  -->
<svg version="1.1" xmlns="http://www.w3.org/2000/svg" xmlns:xlink="http://www.w3.org/1999/xlink" x="0px" y="0px"
	 viewBox="0 0 300 200" style="enable-background:new 0 0 300 200;" xml:space="preserve">
<style type="text/css">
	.st0{fill:#FFFFFF;}
	.st1{fill:#DEDFE1;}
	.st2{fill:none;stroke:#728193;stroke-width:2;stroke-miterlimit:10;}
	.st3{fill:#B8C941;}
	.st4{fill:#999292;}
	.st5{fill:#728193;}
	.st6{fill:#B8E85B;}
	.st7{fill:#F3999B;}
	.st8{fill:#E2616B;}
	.st9{fill:#C65242;}
	.st10{fill:#FDAEB1;}
	.st11{fill:#E17C80;}
	.st12{opacity:0.89;}
	.st13{fill:#CBCCCE;}
	.st14{fill:#EBFBFF;}
	.st15{fill:#ADADAD;}
	.st16{opacity:0.2;}
	.st17{fill:#050505;}
	.st18{fill:#62871B;}
	.st19{fill:#78AA21;}
	.st20{fill:#E5AB6B;}
	.st21{fill:#CE9454;}
	.st22{fill:#F7BD7D;}
	.st23{fill:none;stroke:#B8E85B;stroke-miterlimit:10;}
	.st24{fill:none;}
	.st25{fill:#161616;}
	.st26{fill:#0A0A0A;}
	.st27{fill:#353535;}
	.st28{opacity:0.4;}
	.st29{opacity:0.15;}
	.st30{fill:#D3161D;}
	.st31{fill:#683919;}
	.st32{fill:#3F3F3F;}
	.st33{fill:#242424;}
	.st34{fill:#202020;}
	.st35{fill:#393939;}
	.st36{fill:#945320;}
	.st37{fill:#F8C946;}
	.st38{fill:#232323;}
	.st39{fill:#A5A5A5;}
	.st40{fill:#E2B647;}
	.st41{fill:#333333;}
	.st42{opacity:0.3;}
	.st43{opacity:0.12;}
	.st44{fill:#5CC8FF;}
	.st45{fill:#4D4D4D;}
	.st46{fill:#B3B3B3;}
	.st47{fill:#080000;}
	.st48{fill:#070707;}
	.st49{fill:#77401B;}
	.st50{fill:#020202;}
	.st51{fill:#282828;}
	.st52{fill:#151616;}
	.st53{fill:#515051;}
	.st54{fill:#8E8A8B;}
	.st55{fill:#DDDBD7;}
	.st56{fill:#3A3A3A;}
	.st57{fill:#7C7C7C;}
	.st58{fill:#666666;}
	.st59{fill:#389CCE;}
	.st60{fill:#7F1119;}
	.st61{fill:#5E0E18;}
	.st62{fill:#352F49;}
	.st63{fill:#E41E00;}
	.st64{fill:#FFFE28;}
	.st65{fill:#18FF08;}
	.st66{fill:#DBDDDD;}
	.st67{fill:#0FB0DB;}
	.st68{fill:#303435;}
	.st69{clip-path:url(#SVGID_2_);}
	.st70{clip-path:url(#SVGID_4_);}
	.st71{fill:#4E4E4E;}
	.st72{fill:#4F4F4F;}
	.st73{fill:#505050;}
	.st74{fill:#515151;}
	.st75{fill:#525252;}
	.st76{fill:#535353;}
	.st77{fill:#545454;}
	.st78{fill:#555555;}
	.st79{fill:#565656;}
	.st80{fill:#575757;}
	.st81{fill:#585858;}
	.st82{fill:#595959;}
	.st83{fill:#5B5B5B;}
	.st84{fill:#5C5C5C;}
	.st85{fill:#5D5D5D;}
	.st86{fill:#5E5E5E;}
	.st87{fill:#5F5F5F;}
	.st88{fill:#616161;}
	.st89{fill:#626262;}
	.st90{fill:#636363;}
	.st91{fill:#656565;}
	.st92{clip-path:url(#SVGID_6_);}
	.st93{clip-path:url(#SVGID_8_);}
	.st94{clip-path:url(#SVGID_10_);}
	.st95{clip-path:url(#SVGID_12_);}
	.st96{clip-path:url(#SVGID_14_);}
	.st97{clip-path:url(#SVGID_16_);}
</style>
<g id="Layer_1">
	<title>pathfinding</title>
	<g id="DESIGNED_BY_FREEPIK">
		<g>
			<g>
				<line class="st0" x1="98.9" y1="100.6" x2="96.2" y2="104.6"/>
				<line class="st0" x1="94.5" y1="103.5" x2="97.3" y2="99.5"/>
			</g>
		</g>
	</g>
</g>
<g id="Layer_4">
</g>
<g id="Layer_3">
</g>
<g id="Layer_2">
	<polygon class="st1" points="233,63 229.7,62.5 229.7,200 225.7,200 225.7,166.8 72.2,182.9 79.6,200 75,200 66.4,179.4 
		147.9,49.4 	"/>
	<path class="st2" d="M124.8,86.2c21.2,0,38.3,17.2,38.3,38.5"/>
	<polygon class="st3" points="72.2,182.9 225.7,166.8 225.7,200 79.6,200 	"/>
	<rect x="199.9" y="175.4" class="st4" width="22" height="22"/>
	<polygon class="st3" points="24.2,181.4 24.2,181.4 12.9,199.6 0.2,199.6 0.2,181.8 20.8,173.2 	"/>
	<polygon class="st3" points="300,0 300,200 229.7,200 229.7,62.5 233,63 147.9,49.4 66.4,179.4 75,200 17.9,200 34,174.3 34,174.3 
		29.1,162.6 0,174.8 0,0 	"/>
	<line class="st2" x1="76.5" y1="80" x2="66.7" y2="95.8"/>
	<g>
		<polygon class="st5" points="259.9,66.6 259.9,200 229.7,200 229.7,62.5 233,63 233.6,63 233.6,63 243.3,64.4 246.3,64.8 		"/>
		<polygon class="st5" points="275.7,0 259.9,68.3 259.7,69.1 246.3,66 243.3,65.3 233.8,63.1 233.6,63 230.3,62.3 237.1,33.1 
			244.7,0 		"/>
		<polygon class="st5" points="264.7,37.5 259.9,67.2 259.9,67.2 246.3,65.1 243.3,64.6 233.9,63.1 233.8,63.1 233,63 147.9,49.4 
			128.2,46.2 132.9,16.5 132.9,16.4 237.1,33.1 248.9,34.9 251.9,35.4 		"/>
		<polygon class="st5" points="159.3,31.2 157.2,34.5 155.4,37.3 147.9,49.4 66.4,179.4 66.4,179.5 53.8,199.5 53.5,200 17.9,200 
			34,174.3 34,174.3 43.6,159.1 44,158.4 45.7,155.6 52.1,145.4 87.9,88.4 132.9,16.5 132.9,16.5 		"/>
		<g>
			<g>
				<rect x="243.3" y="62.5" class="st0" width="3" height="8.6"/>
			</g>
			<g>
				<rect x="242" y="49.6" transform="matrix(0.2433 -0.97 0.97 0.2433 136.791 277.5824)" class="st0" width="8.6" height="3"/>
			</g>
			<g>
				<polygon class="st0" points="260.6,0 259.1,5.7 256.2,4.9 257.5,0 				"/>
			</g>
			<g>
				
					<rect x="241.6" y="45.5" transform="matrix(0.1728 -0.985 0.985 0.1728 151.9753 280.639)" class="st0" width="3" height="8.6"/>
			</g>
			<g>
				<path class="st0" d="M243.3,176.4v9.6h3v-9.6H243.3z M243.3,157.2v9.6h3v-9.6H243.3z M243.3,138.1v9.6h3v-9.6H243.3z M243.3,119
					v9.6h3V119H243.3z M243.3,99.8v9.6h3v-9.6H243.3z M243.3,80.7v9.6h3v-9.6H243.3z"/>
			</g>
			<g>
				<rect x="243.3" y="195.5" class="st0" width="3" height="4.5"/>
			</g>
		</g>
	</g>
	<g>
		<polygon class="st5" points="75,200 44.8,200 42.3,194.1 40.9,190.7 34,174.3 29.1,162.6 18.4,136.9 0,93.1 0,21.1 42.6,122.7 
			44,126.2 47.3,134 52.1,145.4 54.8,151.8 58.7,161.2 60.1,164.6 66.4,179.4 		"/>
		<polygon class="st5" points="54.8,151.8 45.7,155.6 43.3,156.7 40.5,157.8 29.1,162.6 0,174.8 0,144.6 18.4,136.9 41.7,127.1 
			44,126.2 47.3,134 52.1,145.4 		"/>
		<g>
			<g>
				<polygon class="st0" points="0,62.8 0.4,63.7 3.1,62.5 1.4,58.4 0,59 				"/>
			</g>
			<g>
				<path class="st0" d="M54.4,182.9l-2.8,1.2l3.4,8l2.8-1.2L54.4,182.9z M50.8,174.3l-3.2-7.5l-2.8,1.2l3.4,8l2-0.9l0.8-0.3
					L50.8,174.3z M44,158.4l-0.7-1.7l-2.5-5.9L38,152l2.5,5.9l0.9,2.2l2.1-0.9l0.6-0.3L44,158.4z M33.9,134.7l-2.8,1.2l3.4,8
					l2.8-1.2L33.9,134.7z M27.1,118.7l-2.8,1.2l3.4,8l2.8-1.2L27.1,118.7z M20.2,102.7l-2.8,1.2l3.4,8l2.8-1.2L20.2,102.7z
					 M13.4,86.6l-2.8,1.2l3.4,8l2.8-1.2L13.4,86.6z M6.6,70.6l-2.8,1.2l3.4,8l2.8-1.2L6.6,70.6z"/>
			</g>
		</g>
	</g>
	<g>
		<path class="st0" d="M15.7,151.9l-8.2,3.6l1.2,2.8l8.2-3.6L15.7,151.9z"/>
	</g>
	<g>
		<path class="st0" d="M249.7,31.8l-0.8,3.2l-1.4,5.6l2.9,0.7l1.4-5.8l0.7-2.9L249.7,31.8z M254,14.3l-2.2,8.7l2.9,0.7L257,15
			L254,14.3z"/>
	</g>
	<g>
		<path class="st0" d="M221.5,44.6l-0.5,3l8.9,1.4l0.5-3L221.5,44.6z M203.7,41.8l-0.5,3l8.9,1.4l0.5-3L203.7,41.8z M185.9,39
			l-0.5,3l8.9,1.4l0.5-3L185.9,39z M168.1,36.3l-0.5,3l8.9,1.4l0.5-3L168.1,36.3z M157.2,34.5l-6.8-1.1l-0.5,3l5.5,0.9l3.4,0.5
			l0.5-3L157.2,34.5z M138,31.5l-0.2,1.5l-0.2,1.5l1,0.2L141,35l0.5-3L138,31.5z"/>
	</g>
	<g>
		<path class="st0" d="M43.5,186.4l-2.6,4.3l0,0l-2,3.4l2.6,1.5l0.9-1.5l0,0l3.7-6.2L43.5,186.4z M52.8,170.9l-2,3.4l-0.5,0.9
			l-2.1,3.5l2.6,1.6l4.7-7.7L52.8,170.9z M62.1,155.5l-3.4,5.6l-1.2,2.1l2.6,1.5l0.1-0.2l0,0l4.5-7.5L62.1,155.5z M71.4,140.1
			l-4.6,7.7l2.6,1.5l4.7-7.7L71.4,140.1z M80.7,124.7l-4.6,7.7l2.6,1.5l4.6-7.7L80.7,124.7z M90,109.3l-4.6,7.7l2.6,1.5l4.7-7.7
			L90,109.3z M99.3,93.9l-4.7,7.7l2.6,1.5l4.7-7.7L99.3,93.9z M108.6,78.5l-4.6,7.7l2.6,1.5l4.6-7.7L108.6,78.5z M117.9,63l-4.7,7.7
			l2.6,1.5l4.6-7.7L117.9,63z M127.2,47.6l-4.6,7.7l2.6,1.5l4.6-7.7L127.2,47.6z M137.7,33l-1.3-0.8l-4.7,7.7l2.6,1.5l4.1-6.8
			l0.5-0.9L137.7,33z"/>
	</g>
	<path class="st6" d="M236.2,13.4c-1.5,4.5-4.9,8.6-9.5,9.6c-4,0.8-8-0.7-11.7-2.2c-6.1-2.5-12.4-5.1-17.1-9.6
		c-3.2-3-5.5-7-6.3-11.2h45.9C237.6,4.5,237.6,9.1,236.2,13.4z"/>
	
		<rect x="70.4" y="151.9" transform="matrix(0.5477 -0.8367 0.8367 0.5477 -93.08 156.5397)" class="st4" width="55.8" height="25"/>
	
		<rect x="67.5" y="151.1" transform="matrix(0.5477 -0.8367 0.8367 0.5477 -93.6903 153.7956)" class="st7" width="55.8" height="25"/>
	
		<rect x="72.7" y="160.7" transform="matrix(0.5477 -0.8367 0.8367 0.5477 -94.1954 159.7129)" class="st8" width="55.8" height="12.5"/>
	<polygon class="st9" points="69.7,180 90.6,193.7 85.4,178.8 	"/>
	<polygon class="st10" points="100.2,133.4 121.1,147.1 105.3,148.4 	"/>
	<polygon class="st11" points="98.1,141.9 96.2,144.7 100.2,145.3 	"/>
	<polygon class="st11" points="93.2,149.4 91.3,152.2 95.3,152.8 	"/>
	<polygon class="st11" points="88.3,156.9 86.4,159.7 90.4,160.3 	"/>
	<polygon class="st11" points="83.4,164.4 81.5,167.2 85.5,167.8 	"/>
	<polygon class="st11" points="78.5,171.9 76.6,174.7 80.6,175.3 	"/>
	<polygon class="st7" points="113.5,152 111.7,154.8 109.5,151.4 	"/>
	<polygon class="st7" points="108.6,159.5 106.8,162.3 104.6,158.9 	"/>
	<polygon class="st7" points="103.7,167 101.9,169.8 99.7,166.4 	"/>
	<polygon class="st7" points="98.8,174.5 97,177.3 94.8,173.9 	"/>
	<polygon class="st7" points="93.9,182 92.1,184.8 89.9,181.4 	"/>
	<rect x="201.6" y="173.8" class="st7" width="22" height="22"/>
	<rect x="206.5" y="178.7" class="st10" width="12.2" height="12.2"/>
	<polygon class="st8" points="201.6,173.8 223.6,173.8 218.7,178.7 206.5,178.7 	"/>
	<polygon class="st8" points="223.6,195.8 201.6,195.8 206.5,190.9 218.7,190.9 	"/>
	<polygon class="st9" points="223.6,173.8 223.6,195.8 218.7,190.9 218.7,178.7 	"/>
	<g class="st12">
		<polygon class="st13" points="198.9,110.3 173.6,158.5 156.5,145.3 192.5,96.3 		"/>
	</g>
	
		<rect x="142.2" y="113.8" transform="matrix(0.4349 -0.9005 0.9005 0.4349 -12.0781 225.8715)" class="st14" width="63.4" height="17.6"/>
	
		<rect x="162" y="141.5" transform="matrix(0.4349 -0.9005 0.9005 0.4349 -36.6799 229.2578)" class="st15" width="4.7" height="4.7"/>
	
		<rect x="161.1" y="141.8" transform="matrix(0.4349 -0.9005 0.9005 0.4349 -37.3786 228.6694)" class="st13" width="4.7" height="4.7"/>
	
		<rect x="171.2" y="121.7" transform="matrix(0.4349 -0.9005 0.9005 0.4349 -13.5861 226.3733)" class="st15" width="4.7" height="4.7"/>
	
		<rect x="170.4" y="121.9" transform="matrix(0.4349 -0.9005 0.9005 0.4349 -14.2701 225.7882)" class="st13" width="4.7" height="4.7"/>
	
		<rect x="180.4" y="101.9" transform="matrix(0.4349 -0.9005 0.9005 0.4349 9.3447 223.5036)" class="st15" width="4.7" height="4.7"/>
	
		<rect x="179.6" y="102.2" transform="matrix(0.4349 -0.9005 0.9005 0.4349 8.646 222.9151)" class="st13" width="4.7" height="4.7"/>
	
		<rect x="197.7" y="53.9" transform="matrix(0.1791 -0.9838 0.9838 0.1791 99.9547 258.0623)" class="st4" width="13.9" height="30.6"/>
	
		<rect x="194.9" y="52.7" transform="matrix(0.1753 -0.9845 0.9845 0.1753 99.5928 254.7305)" class="st7" width="13.9" height="30.5"/>
	<rect x="198" y="59.4" transform="matrix(0.1753 -0.9845 0.9845 0.1753 99.5929 254.7305)" class="st10" width="7.7" height="17"/>
	<polygon class="st8" points="188,58.4 218,63.8 210.8,65.6 194.1,62.6 	"/>
	<polygon class="st8" points="215.6,77.4 185.6,72.1 192.8,70.2 209.5,73.2 	"/>
	<polygon class="st9" points="218,63.8 215.6,77.4 209.5,73.2 210.8,65.6 	"/>
	<g>
		<g class="st16">
			<polygon class="st17" points="61.7,112.8 68,112.7 68,112.7 67.5,80 67.5,80 67.5,80 67.5,80 54.5,80.2 41.6,80.4 42,113.1 
				55,112.9 55,112.9 			"/>
		</g>
		
			<rect x="40.4" y="78.3" transform="matrix(0.9999 -1.413670e-02 1.413670e-02 0.9999 -1.3331 0.7633)" class="st7" width="25.9" height="32.7"/>
		
			<rect x="53.3" y="78.2" transform="matrix(0.9999 -1.413670e-02 1.413670e-02 0.9999 -1.3313 0.8548)" class="st8" width="13" height="32.7"/>
		<polygon class="st10" points="66.1,78.2 40.1,78.5 53.2,88.4 		"/>
		<polygon class="st9" points="66.5,110.8 40.6,111.2 53.4,100.9 		"/>
		<polygon class="st11" points="45.1,100.4 45,97.3 48.4,98.8 		"/>
		<polygon class="st11" points="44.9,92.3 44.9,89.2 48.2,90.7 		"/>
		<polygon class="st7" points="61.8,100.1 61.7,97.1 58.4,98.7 		"/>
		<polygon class="st7" points="61.7,92 61.6,89 58.3,90.5 		"/>
	</g>
	<g>
		<g class="st16">
			<polygon class="st17" points="93.7,61.9 102.3,61.8 102.2,61.8 101.6,17.2 101.6,17.1 101.6,17.1 101.6,17.1 83.9,17.4 
				66.2,17.6 66.9,62.3 84.5,62 84.5,62 			"/>
		</g>
		
			<rect x="64.6" y="14.9" transform="matrix(0.9999 -1.413670e-02 1.413670e-02 0.9999 -0.5173 1.1666)" class="st7" width="35.4" height="44.6"/>
		
			<rect x="82.3" y="14.7" transform="matrix(0.9999 -1.413670e-02 1.413670e-02 0.9999 -0.5149 1.2915)" class="st8" width="17.7" height="44.6"/>
		<polygon class="st10" points="99.7,14.6 64.3,15.1 82.1,28.6 		"/>
		<polygon class="st9" points="100.3,59.2 64.9,59.7 82.4,45.7 		"/>
		<polygon class="st11" points="71,45 70.9,40.8 75.5,42.8 		"/>
		<polygon class="st11" points="70.8,33.9 70.8,29.7 75.3,31.7 		"/>
		<polygon class="st7" points="93.8,44.6 93.7,40.5 89.2,42.6 		"/>
		<polygon class="st7" points="93.6,33.6 93.6,29.4 89.1,31.5 		"/>
	</g>
	<path class="st18" d="M61.3,125.9c0,2.6,0,4.9-2.3,6.8c-3.2,2.6-1,0-3.7,0.8c-0.7,0.2-0.9,1.6-1.7,1.7c-0.5-0.3-0.9-0.6-1.1-1.2
		c-0.4-0.7-1-0.7-1.7-0.1c-0.4,0.1-0.7,0.2-1.1,0.3c-0.4-0.6-0.7-1.3-1-2c-1.8-1.7-0.9,0.3-2.8-2.5c-1-1.5-1.5-2.2-1.4-4.2
		c0-1.5,1.2-3,1.8-4.1c0.2-0.3,1.4-2.5,1.6-2.7c-0.1,0.1,4.4-1.1,3.9-1.1c0.7,0.1,1.3,0.3,1.9,0.6c0.5-0.3,1-0.5,1.5-0.7
		c1.7,0.2,4.6,0.9,5.7,2.7C61.5,121.3,61.3,124.7,61.3,125.9z"/>
	<path class="st19" d="M58.5,125.9c0,2.6,0,4.9-2.3,6.8c-3.2,2.6-0.9,0-3.7,0.8c-0.7,0.2-0.9,1.6-1.8,1.6c-0.5-0.2-0.9-0.6-1.2-1.2
		c-0.4-0.7-1-0.7-1.7-0.1c-0.4,0.1-0.7,0.2-1.1,0.3c-0.4-0.6-0.7-1.3-1-2c-1.8-1.7-0.9,0.3-2.8-2.5c-1-1.5-1.5-2.2-1.4-4.2
		c0-1.5,1.2-3,1.8-4.1c0.2-0.3,1.4-2.6,1.6-2.7c-0.1,0.1,4.4-1.1,3.9-1.1c0.7,0.1,1.3,0.3,1.9,0.6c0.5-0.3,1-0.5,1.5-0.7
		c1.7,0.2,4.6,0.9,5.7,2.7C58.7,121.3,58.5,124.7,58.5,125.9z"/>
	<path class="st18" d="M60.1,13.7c-1.9,3.5-5.3,3.7-8.6,2.1c-1.1-0.6-4-1.7-4.1-3.3c-0.1-0.7,1-1.4,1.2-2C49,9.3,48.2,8.9,49,7.6
		c0.6-1.1,3.2-2.8,4.4-3c0.9-0.2,4,0.7,4.7,1.2c0.7,0.4,1.5,1,1.7,2c0.1,0.8-0.9,1.5-0.7,2.2C59.6,12.1,61.6,10.7,60.1,13.7z"/>
	<path class="st19" d="M59.1,13.2c-1.9,3.5-5.3,3.7-8.6,2.1c-1.1-0.6-4-1.7-4.1-3.3c-0.1-0.7,1-1.4,1.2-2C48,8.8,47.2,8.4,48,7.2
		c0.6-1.1,3.2-2.8,4.4-3c0.9-0.2,4,0.7,4.7,1.2c0.7,0.4,1.5,1,1.7,2c0.1,0.8-0.9,1.5-0.7,2.2C58.6,11.7,60.6,10.2,59.1,13.2z"/>
	<path class="st18" d="M43.3,23c-1.7,3.6-5.1,3.9-8.4,2.4c-1.2-0.5-4-1.4-4.2-3.1c-0.1-0.7,0.9-1.5,1-2.1c0.3-1.2-0.5-1.5,0.2-2.8
		c0.6-1.1,3.1-2.9,4.2-3.2c0.9-0.2,4,0.6,4.8,1c0.7,0.4,1.6,0.9,1.8,1.9c0.1,0.8-0.8,1.5-0.6,2.2C42.7,21.4,44.6,19.9,43.3,23z"/>
	<path class="st19" d="M42.3,22.6c-1.7,3.6-5.1,4-8.4,2.4c-1.1-0.5-4-1.5-4.2-3.1c-0.1-0.7,0.9-1.4,1.1-2.1c0.4-1.2-0.5-1.5,0.2-2.8
		c0.6-1.1,3.1-2.9,4.2-3.2c0.9-0.2,4,0.5,4.7,0.9c0.7,0.4,1.6,0.9,1.7,1.9c0.1,0.8-0.8,1.5-0.6,2.2C41.7,21,43.7,19.5,42.3,22.6z"/>
	<path class="st18" d="M274.3,139.6c-1.7,3.6-5.1,3.9-8.4,2.4c-1.2-0.5-4-1.4-4.2-3.1c-0.1-0.7,0.9-1.5,1-2.1
		c0.3-1.2-0.5-1.5,0.2-2.8c0.6-1.1,3.1-2.9,4.2-3.2c0.9-0.2,4,0.6,4.8,1c0.7,0.4,1.6,0.9,1.8,1.9c0.1,0.8-0.8,1.5-0.6,2.2
		C273.7,138.1,275.6,136.6,274.3,139.6z"/>
	<path class="st19" d="M273.2,139.2c-1.7,3.6-5.1,4-8.4,2.4c-1.1-0.5-4-1.5-4.2-3.1c-0.1-0.7,0.9-1.4,1.1-2.1
		c0.4-1.2-0.5-1.5,0.2-2.8c0.6-1.1,3.1-2.9,4.2-3.2c0.9-0.2,4,0.5,4.7,0.9c0.7,0.4,1.6,0.9,1.7,1.9c0.1,0.8-0.8,1.5-0.6,2.2
		C272.7,137.7,274.6,136.1,273.2,139.2z"/>
	<path class="st18" d="M293.3,181.3c-4.9,1.8-8.3-1.1-10-5.5c-0.6-1.6-2.4-5-1.1-6.7c0.5-0.7,2.1-0.6,2.9-1c1.4-0.8,1-1.8,2.8-2.4
		c1.6-0.5,5.5,0.2,6.8,1c1,0.7,3.2,4.2,3.5,5.3c0.3,1,0.6,2.3-0.1,3.4c-0.6,0.8-2.1,0.6-2.6,1.5
		C294.1,179.4,297.3,179.8,293.3,181.3z"/>
	<path class="st19" d="M292.7,180c-4.9,1.7-8.4-1.1-10-5.5c-0.6-1.5-2.3-5.1-1-6.8c0.6-0.8,2.1-0.5,2.9-0.9c1.5-0.8,1-1.8,2.8-2.4
		c1.6-0.5,5.5,0.2,6.8,1c1,0.7,3.2,4.2,3.5,5.2c0.3,1.1,0.6,2.3-0.2,3.4c-0.6,0.8-2.1,0.6-2.6,1.5
		C293.6,178.1,296.8,178.5,292.7,180z"/>
	<g class="st16">
		<polygon class="st17" points="34.2,36.2 28.1,38.7 28,38.7 24.2,40.3 14.1,44.5 13.2,42.3 12.7,41 10,34.3 8.1,29.9 4.9,22 
			3.1,17.6 0,10 0,0 19.4,0 30.8,28 31.1,28.6 		"/>
	</g>
	<polygon class="st20" points="31.7,34.7 31.7,34.7 31.7,34.7 26,37 25.5,37.2 21.7,38.8 13.2,42.3 11.6,42.9 0,14.6 0,0 17.5,0 
		29.2,28.5 29.5,29.3 	"/>
	<polygon class="st21" points="31.7,34.7 31.7,34.7 31.7,34.7 26,37 25.5,37.2 21.7,38.8 18.5,31 18.5,31 5.8,0 17.5,0 29.2,28.5 
		29.5,29.3 	"/>
	<polygon class="st22" points="11.6,42.9 31.7,34.7 18.5,31 	"/>
	<polygon class="st20" points="20.3,10.5 22.2,15.1 13.7,15.9 	"/>
	<polygon class="st20" points="25.3,22.7 27.2,27.3 18.7,28.1 	"/>
	<polygon class="st21" points="2.8,17.7 4.7,22.3 11.3,16.9 	"/>
	<polygon class="st21" points="7.8,29.9 9.7,34.5 16.3,29.1 	"/>
	<polyline class="st2" points="88.9,89.2 87.9,88.4 76.5,80 53.1,62.6 52.3,43.6 51.7,26.2 38,5.4 34.4,0 	"/>
	<line class="st2" x1="38" y1="5.4" x2="22.2" y2="10.7"/>
	<line class="st2" x1="52.3" y1="43.6" x2="64.3" y2="42.9"/>
	<polygon class="st6" points="19,180.2 9.7,199.6 0.2,199.6 0.2,186.7 	"/>
	<polyline class="st23" points="282.4,200 282.4,173.9 282.4,173.7 282.4,168.8 282.4,167.3 282.4,47.6 287.3,0 	"/>
	<g>
		<line class="st24" x1="95.8" y1="99.8" x2="97.9" y2="101.2"/>
		
			<rect x="95.9" y="92.8" transform="matrix(0.5261 -0.8504 0.8504 0.5261 -35.6839 130.188)" class="st25" width="6.2" height="8.6"/>
		<path class="st26" d="M93.7,97.5l3.2-5.3l7.4,4.5L101,102L93.7,97.5z M96.9,92.2l-3.2,5.2l7.3,4.5l3.2-5.3L96.9,92.2z"/>
		<path class="st27" d="M92.2,93.2l0.1-0.2l0.4-0.6l0,0l0.1-0.1v-0.1l0.8-1.3l0.3-0.2l0.8-1.3l0,0c0-0.1,0.1-0.1,0.2-0.2
			c0.2-0.1,0.4-0.1,0.6,0l2,1.3c0.2,0.1,0.3,0.3,0.2,0.5c0,0.1,0,0.1-0.1,0.2l0,0l-0.7,1.3l-0.1,0.2L96,94.1v0.1l-0.1,0.2l0,0l0,0
			l-0.3,0.6l-0.1,0.2l-0.3,0.4l-0.2,0.2l-0.2,0.3L94.3,97l-0.1,0.2l-0.8,1.3l-0.2,0.2L93,98.8c-0.1,0.2-0.4,0.3-0.7,0.2c0,0,0,0,0,0
			l-2-1.3C90,97.6,90,97.3,90.1,97c0,0,0,0,0,0l0.1-0.2l0.1-0.2l0.7-1.3l0.1-0.2l0.5-0.9l0.2-0.4l0.1-0.2L92.2,93.2z"/>
		<path d="M95.5,89.2l2,1.3c0.2,0.1,0.3,0.4,0.3,0.6c0,0.1,0,0.2-0.1,0.2l-2.2,3.9L93,99.1c-0.2,0.3-0.6,0.4-0.9,0.2l-2-1.3
			c-0.3-0.2-0.4-0.6-0.2-0.9l0,0l2.1-3.9l0,0l2.5-3.7c0-0.1,0.1-0.1,0.2-0.2C94.9,89.1,95.3,89.1,95.5,89.2z M92.2,99
			c0.2,0.1,0.4,0,0.6-0.2l2.5-3.7l2.2-3.9c0-0.1,0-0.1,0-0.2c0-0.2,0-0.3-0.2-0.4l-2-1.3c-0.1-0.1-0.3-0.1-0.5,0
			c0,0-0.1,0.1-0.1,0.1l0,0l-2.5,3.6l-2.2,4c-0.1,0.2-0.1,0.4,0.1,0.6L92.2,99z"/>
		<g class="st28">
			<path d="M92.7,92.4l0.1-0.2l0,0v-0.1l0.8-1.3l0.3-0.2l0.8-1.3l0,0c0-0.1,0.1-0.1,0.2-0.2c0.2-0.1,0.4-0.1,0.6,0l2,1.3
				c0.2,0.1,0.3,0.3,0.2,0.5c0,0.1,0,0.1-0.1,0.2l0,0l-0.7,1.3l-0.1,0.2L96,94.1v0.1l0,0l-0.1,0.2L92.7,92.4z"/>
			<path d="M92.6,92.5l0.2-0.3l0,0l0,0l1.8-2.6l0,0l0,0c0-0.1,0.1-0.1,0.2-0.2c0.2-0.1,0.4-0.1,0.6,0l2,1.3c0.2,0.1,0.3,0.4,0.3,0.6
				c0,0.1-0.1,0.1-0.1,0.2l0,0L96,94.2l0,0l-0.2,0.3L92.6,92.5z M92.8,92.4L92.8,92.4l3.1,1.9v-0.1l0,0L96,94l1.6-2.8l0,0
				c0-0.1,0-0.1,0-0.2c0-0.2,0-0.4-0.2-0.5l-2-1.3c-0.1-0.1-0.3-0.1-0.5,0l-0.1,0.1l0,0l0,0L92.8,92.4L92.8,92.4z"/>
		</g>
		<polygon points="90.2,96.7 93.2,98.5 93,98.7 90.1,96.9 		"/>
		<polygon points="91.1,95.2 94.1,97.1 94,97.3 90.9,95.4 		"/>
		<polygon points="91.9,93.7 95.1,95.6 94.9,95.9 91.8,93.9 		"/>
		<polygon points="92.7,92.4 92.8,92.3 92.8,92.2 96,94.1 95.9,94.2 95.9,94.4 		"/>
		<polygon points="93.7,91 93.8,90.8 96.9,92.6 96.7,92.9 		"/>
		<path d="M94.7,89.6L94.7,89.6c0-0.1,0.1-0.1,0.1-0.2l2.8,1.7c0,0.1,0,0.1-0.1,0.2l0,0L94.7,89.6z"/>
		<g class="st29">
			<polygon class="st0" points="92.3,92.9 92.7,92.4 92.8,92.3 95.9,94.2 95.9,94.4 95.6,94.9 95.5,95 95.3,95.2 95.2,95.4 
				95.1,95.6 95,95.7 91.9,93.8 91.9,93.7 92,93.5 92.1,93.3 92.3,93 			"/>
		</g>
		<path class="st27" d="M102.1,99.4l0.1-0.2l0.4-0.6l0,0l0,0l0.1-0.1v-0.1l0.8-1.2l0.2-0.2l0.8-1.3l0,0c0-0.1,0.1-0.1,0.1-0.2
			c0.2-0.1,0.4-0.1,0.6,0l2,1.3c0.2,0.1,0.3,0.3,0.2,0.5c0,0.1,0,0.1-0.1,0.2l0,0l-0.7,1.3l-0.1,0.2l-0.7,1.3v0.1l-0.1,0.2l0,0
			l-0.3,0.6l-0.1,0.2l-0.3,0.4l-0.2,0.2l-0.2,0.3l-0.6,0.9l-0.2,0.2l-0.8,1.3l-0.2,0.2l-0.1,0.2c-0.1,0.2-0.4,0.3-0.7,0.2
			c0,0,0,0,0,0l-2-1.3c-0.2-0.2-0.3-0.5-0.2-0.7l0.1-0.2l0.1-0.2l0.7-1.3l0.1-0.2l0.5-0.9l0.2-0.4l0.1-0.2L102.1,99.4z"/>
		<path d="M105.5,95.4l2,1.3c0.2,0.1,0.3,0.4,0.3,0.6c0,0.1,0,0.2-0.1,0.2l-2.2,3.9l-2.5,3.8c-0.2,0.3-0.6,0.4-0.9,0.2l0,0l-2-1.3
			c-0.3-0.2-0.4-0.6-0.2-0.9l0,0l2.1-3.9l0,0l2.5-3.7c0-0.1,0.1-0.1,0.2-0.2C104.9,95.3,105.2,95.3,105.5,95.4z M102.2,105.2
			c0.2,0.1,0.4,0,0.6-0.2l2.5-3.7l2.2-3.9c0,0,0.1-0.1,0.1-0.2c0-0.2,0-0.3-0.2-0.4l-2-1.3c-0.1-0.1-0.3-0.1-0.5,0l-0.1,0.1v0.1
			l-2.5,3.6l-2.1,3.9c-0.1,0.2-0.1,0.4,0.1,0.6c0,0,0,0,0,0L102.2,105.2z"/>
		<g class="st28">
			<path d="M102.7,98.6l0.1-0.2l0,0v-0.1l0.8-1.2l0.2-0.2l0.8-1.3l0,0c0-0.1,0.1-0.1,0.1-0.2c0.2-0.1,0.4-0.1,0.6,0l2,1.3
				c0.2,0.1,0.3,0.3,0.2,0.5c0,0.1,0,0.1-0.1,0.2l0,0l-0.7,1.3l-0.1,0.2l-0.7,1.3v0.1l0,0l-0.1,0.2L102.7,98.6z"/>
			<path d="M102.6,98.6l0.2-0.3l0,0l0,0l1.8-2.6l0,0l0,0c0-0.1,0.1-0.1,0.2-0.2c0.2-0.1,0.4-0.1,0.6,0l2,1.3
				c0.2,0.1,0.3,0.4,0.3,0.6c0,0.1,0,0.1-0.1,0.2l0,0l-1.6,2.8l0,0l-0.2,0.3L102.6,98.6z M102.8,98.5L102.8,98.5l3,2v-0.1l0,0
				l0.1-0.1l1.6-2.8l0,0l0,0c0-0.1,0.1-0.1,0.1-0.2c0-0.2,0-0.4-0.2-0.5l-2-1.3c-0.2-0.1-0.4-0.1-0.5,0c-0.1,0-0.1,0.1-0.1,0.1l0,0
				l0,0L102.8,98.5L102.8,98.5z"/>
		</g>
		<polygon points="100.2,102.9 103.2,104.7 103,104.9 100.1,103.1 		"/>
		<polygon points="101,101.4 104.1,103.2 104,103.5 100.9,101.6 		"/>
		<polygon points="101.9,99.8 105.1,101.8 104.9,102 101.8,100.1 		"/>
		<polygon points="102.7,98.6 102.8,98.5 102.8,98.4 106,100.3 105.9,100.4 105.8,100.6 		"/>
		<polygon points="103.7,97.2 103.8,96.9 106.8,98.8 106.7,99 		"/>
		<path d="M104.7,95.7L104.7,95.7c0-0.1,0.1-0.1,0.1-0.2l2.8,1.8c0,0.1,0,0.1-0.1,0.2l0,0L104.7,95.7z"/>
		<g class="st29">
			<polygon class="st0" points="102.3,99.1 102.6,98.6 102.8,98.4 105.9,100.4 105.8,100.6 105.6,101.1 105.5,101.2 105.3,101.4 
				105.2,101.6 105.1,101.8 105,101.9 101.8,100 101.9,99.8 102,99.7 102.1,99.4 102.2,99.2 			"/>
		</g>
		<g class="st16">
			<path d="M94.5,94.4c0.7-1.1,1.8-1.7,3-1.9c0.3,0,0.6,0,0.9,0l4.9,3.1c0.1,0,0.1,0.1,0.2,0.1l0,0l0.1,0.2c1.1,1.9,0.4,4.4-1.6,5.5
				c-0.6,0.3-1.3,0.5-2,0.5h-0.5l0,0l-4.9-3.1c-0.2-0.3-0.3-0.6-0.4-0.9C93.7,96.8,93.8,95.5,94.5,94.4z"/>
			<path d="M94.4,94.4c0.7-1.1,1.8-1.8,3.1-1.9c0.3,0,0.6,0,0.9,0l0,0l5,3.1c0.1,0,0.1,0.1,0.2,0.2l0,0l0.1,0.2
				c1.1,2,0.4,4.5-1.6,5.5c-0.6,0.3-1.3,0.5-2,0.5h-0.5h-0.1l-4.9-3l0,0c-0.2-0.3-0.3-0.6-0.4-0.9C93.6,96.9,93.7,95.5,94.4,94.4z
				 M98.4,92.6c-0.3,0-0.6,0-0.9,0c-1.2,0.1-2.3,0.8-3,1.8c-0.6,1.1-0.8,2.4-0.3,3.5c0.1,0.3,0.2,0.6,0.4,0.9l4.9,3l0,0h0.5
				c2.2,0,4-1.7,4-3.9c0-0.7-0.2-1.4-0.5-2c0-0.1-0.1-0.1-0.1-0.2c0,0-0.1-0.1-0.1-0.1L98.4,92.6z"/>
		</g>
		<path class="st30" d="M93.9,98l3.4-5.5l0.1-0.1c0.2-0.2,0.6-0.3,0.8-0.1l5.5,3.4c0.1,0,0.1,0.1,0.2,0.2l0,0
			c0.1,0.1,0.1,0.1,0.1,0.2c0.1,0.2,0.1,0.3,0,0.5l-3.4,5.5c-0.1,0.1-0.2,0.2-0.3,0.2c-0.2,0.1-0.4,0.1-0.6,0l-5.5-3.4
			C93.8,98.7,93.7,98.3,93.9,98C93.8,98,93.9,98,93.9,98z"/>
		<path d="M93.9,98L93.9,98l3.4-5.5l0.1-0.1c0.2-0.2,0.6-0.3,0.9-0.1l5.5,3.4c0.1,0,0.1,0.1,0.2,0.2c0.1,0.1,0.1,0.2,0.1,0.2
			c0.1,0.2,0.1,0.4,0,0.5l-3.5,5.4c-0.1,0.1-0.2,0.2-0.3,0.3c-0.2,0.1-0.4,0.1-0.6,0L94,98.9C93.8,98.7,93.6,98.3,93.9,98L93.9,98z
			 M93.9,98L93.9,98L93.9,98c-0.1,0.3,0,0.6,0.3,0.8l5.5,3.4c0.2,0.1,0.4,0.1,0.6,0c0.1,0,0.2-0.1,0.3-0.2l3.4-5.5
			c0.1-0.2,0.1-0.5,0-0.7c0-0.1-0.1-0.1-0.2-0.2l-5.5-3.4c-0.3-0.2-0.6-0.1-0.8,0.1v0.1L93.9,98z"/>
		<path class="st30" d="M94.6,98.6c-0.2-0.1-0.2-0.4-0.1-0.5c0.1-0.1,0.3-0.2,0.5-0.1c0.2,0.1,0.2,0.3,0.1,0.5c0,0,0,0,0,0
			C95,98.6,94.7,98.7,94.6,98.6z"/>
		<path d="M94.4,98c0.1-0.2,0.3-0.3,0.5-0.2c0.2,0.1,0.3,0.3,0.2,0.5c0,0,0,0.1,0,0.1c-0.1,0.2-0.3,0.2-0.5,0.1
			C94.4,98.5,94.3,98.2,94.4,98C94.4,98,94.4,98,94.4,98z M95.1,98.4c0.1-0.2,0.1-0.4-0.1-0.5c-0.2-0.1-0.4-0.1-0.5,0.1
			c-0.1,0.2,0,0.4,0.1,0.5c0,0,0,0,0,0C94.7,98.7,95,98.7,95.1,98.4C95.1,98.5,95.1,98.5,95.1,98.4L95.1,98.4z"/>
		<path class="st31" d="M97.2,97.2l1.4-2.2c0.1-0.1,0.2-0.1,0.3-0.1l2.1,1.3c0.1,0.1,0.1,0.2,0.1,0.3l-1.4,2.2
			c-0.1,0.1-0.2,0.1-0.3,0.1l-2.1-1.3C97.1,97.4,97.1,97.3,97.2,97.2z"/>
		<path class="st32" d="M93.4,97.9L93.4,97.9h0.3h-0.1c-0.1,0-0.1,0-0.1,0.1l-0.3,0.9c0,0.1,0,0.2,0,0.2H93c0,0-0.1-0.1,0-0.2
			l0.2-0.9C93.3,98,93.3,97.9,93.4,97.9z"/>
		<path d="M93.2,98c0,0,0.1-0.1,0.1,0h0.1h0.2l0,0h-0.1c-0.1,0-0.1,0.1-0.1,0.1L93.2,99c0,0,0,0.1,0,0.2l0,0l0,0l0,0H93l0,0
			c0,0,0-0.1,0-0.1l0.2-0.9L93.2,98z M93.5,98L93.5,98h-0.2c0,0-0.1,0-0.1,0.1L93,99c0,0,0,0.1,0,0.1l0,0h0.1c0,0,0-0.1,0-0.2
			l0.2-0.9C93.4,98,93.5,98,93.5,98z"/>
		<path class="st33" d="M93.3,99.1c0,0-0.1-0.1,0-0.2l0.3-0.9c0-0.1,0.1-0.1,0.1-0.1h0.1c0,0,0.1,0.1,0.1,0.2L93.6,99
			c0,0.1-0.1,0.2-0.1,0.1L93.3,99.1z"/>
		<path d="M93.5,98c0,0,0.1-0.1,0.1,0h0.1c0,0,0.1,0.1,0.1,0.2l-0.2,0.9c0,0,0,0.1-0.1,0.1c0,0-0.1,0-0.1,0h-0.2l0,0
			c0,0,0-0.1,0-0.2l0.2-0.9L93.5,98z M93.5,99.1C93.5,99,93.5,99,93.5,99.1l0.2-1c0,0,0-0.1,0-0.1h-0.1c0,0-0.1,0-0.1,0.1L93.2,99
			c0,0,0,0.1,0,0.1l0,0h0.2l0,0L93.5,99.1z"/>
		<path class="st34" d="M92.7,99c0-0.1,0-0.2,0-0.2l0.5-1c0-0.1,0.1-0.1,0.1-0.1l0.1,0.1c0,0,0,0.1,0,0.2L93,99
			c0,0.1-0.1,0.2-0.1,0.1L92.7,99z"/>
		<path d="M93.3,97.7C93.3,97.7,93.3,97.6,93.3,97.7L93.3,97.7h0.2c0,0.1,0,0.1,0,0.2L93,99c0,0.1-0.1,0.1-0.1,0.1l0,0L92.8,99
			c0,0,0-0.2,0-0.2L93.3,97.7L93.3,97.7z M92.9,99L92.9,99l0.5-1.1c0-0.1,0-0.1,0-0.2v-0.1l0,0c0,0,0,0-0.1,0.1l-0.5,1
			c0,0.1,0,0.2,0,0.2l0.1,0.1l0,0C92.9,99.1,92.9,99.1,92.9,99z"/>
		<path class="st35" d="M93.1,97.5l0.3,0.1c0,0,0,0-0.1,0.1l-0.5,1c0,0.1,0,0.2,0,0.2l0.1,0.1l0,0L92.6,99l0,0l-0.1-0.1
			c0,0,0-0.1,0-0.2l0.5-1C93,97.6,93.1,97.5,93.1,97.5z"/>
		<path d="M93,97.6c0,0,0.1-0.1,0.1-0.1l0,0l0.3,0.1l0,0c0,0,0,0-0.1,0.1l-0.5,1c0,0.1,0,0.2,0,0.2l0.1,0.1l0,0l0,0l0,0L92.6,99l0,0
			l-0.1-0.1c0,0,0-0.2,0-0.2L93,97.6L93,97.6z M93.1,97.6c0,0,0,0-0.1,0.1l-0.5,1c0,0.1,0,0.2,0,0.2l0.1,0.1l0,0l0.2,0.1l-0.1-0.1
			c0,0,0-0.2,0-0.2l0.5-1c0,0,0-0.1,0.1-0.1L93.1,97.6z"/>
		<path class="st36" d="M95.9,94.3L95.9,94.3l0.2,0.3h-0.2c-0.2,0-0.4,0.1-0.5,0.3L93.2,98L93,97.6l2.3-3c0.1-0.1,0.3-0.2,0.4-0.2
			L95.9,94.3L95.9,94.3z"/>
		<path d="M93.2,97.9L93,97.5l2.2-3c0.1-0.1,0.3-0.2,0.4-0.2h0.1h0.1l0,0l0.2,0.3h-0.1c-0.2,0-0.4,0.1-0.5,0.3L93.2,97.9L93.2,97.9z
			 M93.2,97.8l2.3-3c0.1-0.2,0.3-0.2,0.5-0.3h0.2h0.1l0,0l-0.3-0.4l0,0h-0.1h-0.1c-0.2,0-0.4,0.1-0.5,0.3l-2.3,3L93.2,97.8z"/>
		<path class="st37" d="M96.1,94.7L96.1,94.7c0,0.1,0,0.1,0,0.2L93.9,98h-0.6l2.2-3c0.1-0.1,0.3-0.2,0.4-0.2L96.1,94.7L96.1,94.7z"
			/>
		<path d="M93.3,98l2.2-3c0.1-0.1,0.3-0.2,0.4-0.2h0.2h0.1l0,0c0,0,0,0.1,0,0.2L93.9,98H93.3L93.3,98z M93.2,98h0.7l2.3-3.1
			c0.1-0.1,0.1-0.2,0-0.3H96h-0.1c-0.2,0-0.4,0.1-0.5,0.3L93.2,98z"/>
		<path class="st35" d="M92.2,98.2l0.7-0.7c0,0,0.1,0,0.1,0l0.2,0.2c0,0-0.1,0-0.1,0l-0.7,0.7c-0.1,0-0.1,0.1-0.1,0.2v0.2l0,0
			l-0.2-0.2l0,0v-0.2C92.1,98.3,92.2,98.3,92.2,98.2z"/>
		<path d="M92.2,98.3L92.2,98.3l0.7-0.8c0,0,0.1,0,0.1,0l0.2,0.2l0,0h-0.1l-0.7,0.7c-0.1,0-0.1,0.1-0.1,0.2v0.1l0,0l0,0l-0.2-0.2
			l0,0v-0.2C92.1,98.3,92.1,98.3,92.2,98.3z M93.2,97.6L93,97.5c0,0,0,0-0.1,0l-0.7,0.7c-0.1,0-0.1,0.1-0.1,0.2v0.2l0,0l0.2,0.1
			v-0.1c0-0.1,0-0.1,0.1-0.2L93.2,97.6L93.2,97.6z"/>
		<path class="st34" d="M92.3,98.7v-0.1c0-0.1,0-0.1,0.1-0.2l0.7-0.7h0.1v0.1c0,0.1,0,0.1-0.1,0.2l-0.7,0.8
			C92.5,98.7,92.3,98.7,92.3,98.7z"/>
		<path d="M92.3,98.4C92.3,98.4,92.3,98.4,92.3,98.4l0.7-0.8c0,0,0.1-0.1,0.1,0c0,0.1,0,0,0,0v0.1c0,0.1,0,0.1-0.1,0.2l-0.7,0.8
			c0,0-0.1,0.1-0.1,0l0,0v-0.2C92.3,98.5,92.3,98.5,92.3,98.4z M93.2,97.7L93.2,97.7L93.2,97.7C93.2,97.6,93.2,97.6,93.2,97.7
			l-0.8,0.6c-0.1,0-0.1,0.1-0.1,0.2v0.1l0,0c0,0,0,0,0.1,0l0.7-0.8C93.2,97.9,93.2,97.8,93.2,97.7z"/>
		<path class="st32" d="M94,98.1l-0.3,0.3c-0.1,0.1-0.2,0.1-0.2,0l-0.4-0.6c0-0.1,0-0.1,0-0.2l0.2-0.2c0-0.1,0.2-0.1,0.2,0l0.6,0.5
			C94.1,97.9,94.1,98,94,98.1z"/>
		<path d="M93.1,97.6L93.1,97.6l0.2-0.2c0.1-0.1,0.1-0.1,0.2,0l0.6,0.5V98c0,0.1,0,0.1-0.1,0.2l-0.3,0.3c0,0-0.1,0.1-0.2,0.1h-0.1
			l-0.4-0.6C93,97.8,93,97.7,93.1,97.6C93.1,97.6,93.1,97.6,93.1,97.6z M94.1,98c0,0,0-0.1,0-0.1l0,0l-0.6-0.5c0,0-0.1,0-0.2,0
			l-0.2,0.2c0,0.1,0,0.1,0,0.2l0.4,0.6l0,0c0,0,0.1,0,0.1,0l0.3-0.3L94.1,98z"/>
		<path class="st38" d="M93.5,97.3l0.2,0.2l0.2,0.2l0.2,0.2h0.1c0,0,0.1,0.1,0.1,0.1c0,0,0,0.1,0,0.1c0,0.1-0.1,0.2-0.1,0.2L94,98.4
			c0,0-0.2,0.2-0.3,0.1l-0.2-0.2c0,0,0.1,0,0.1,0c0,0,0.1-0.1,0.1-0.1l0.1-0.2c0,0,0.1-0.1,0.1-0.2c0,0,0-0.1,0-0.1l0,0L94,97.7
			l-0.3-0.3L93.5,97.3z"/>
		<path d="M93.5,97.3L93.5,97.3l0.2,0.2l0.5,0.4c0,0,0.1,0.1,0.1,0.1c0,0,0,0.1,0,0.1c0,0.1-0.1,0.1-0.1,0.2L94,98.5
			c-0.1,0-0.2,0.2-0.3,0.1l-0.2-0.2l0,0c0,0,0,0,0.1,0l0.1-0.1l0.1-0.2c0,0,0.1-0.1,0.1-0.2c0,0,0-0.1,0-0.1l0,0l-0.4-0.4L93.5,97.3
			z M94.1,98c0,0-0.1,0.1-0.1,0.1l-0.2,0.2c0,0-0.1,0.1-0.1,0.1l0,0l0.2,0.1c0.1,0,0.2,0,0.2-0.1l0,0l0.1-0.2
			c0.1-0.1,0.1-0.1,0.1-0.2l0,0c0,0-0.1-0.1-0.1-0.1l-0.1-0.1C94.2,97.9,94.2,98,94.1,98L94.1,98z"/>
		<path class="st32" d="M100.7,102.4L100.7,102.4l-0.1-0.2l0,0c0,0.1,0,0.1,0,0.2l-0.7,0.6c0,0-0.2,0.1-0.2,0l0.1,0.2
			c0,0,0.1,0,0.2,0l0.7-0.6C100.7,102.5,100.7,102.4,100.7,102.4z"/>
		<path d="M99.7,103L99.7,103c0,0,0.1,0,0.2,0l0.7-0.6c0,0,0.1-0.1,0-0.2v-0.1l0,0l0.2,0.2l0,0c0,0.1,0,0.1,0,0.2l-0.7,0.6
			c0,0-0.1,0-0.1,0l0,0L99.7,103z M100.6,102.3L100.6,102.3l-0.7,0.6c0,0-0.1,0-0.2,0l0.1,0.1l0,0c0,0,0.1,0,0.1,0l0.7-0.6
			C100.7,102.4,100.7,102.3,100.6,102.3L100.6,102.3L100.6,102.3C100.6,102.3,100.6,102.3,100.6,102.3L100.6,102.3z"/>
		<path class="st33" d="M99.7,103c0,0,0.1,0,0.2,0l0.7-0.6c0-0.1,0-0.1,0-0.2l0,0c0,0-0.1,0-0.2,0l-0.7,0.5
			C99.6,102.8,99.5,102.9,99.7,103L99.7,103z"/>
		<path d="M99.6,102.8C99.6,102.7,99.6,102.7,99.6,102.8l0.8-0.6c0.1,0,0.1,0,0.2,0v0.1c0,0.1,0,0.1,0,0.2l-0.7,0.6
			c0,0-0.1,0.1-0.1,0.1h-0.1l-0.1-0.1c0,0,0-0.1,0-0.1C99.5,102.8,99.5,102.8,99.6,102.8z M100.6,102.3c0,0,0-0.1,0-0.1v-0.1
			c0,0-0.1,0-0.2,0l-0.7,0.5c0,0-0.1,0.1-0.1,0.1l0,0l0.1,0.2l0,0c0,0,0.1,0,0.1,0L100.6,102.3C100.5,102.3,100.6,102.3,100.6,102.3
			z"/>
		<path class="st34" d="M100,103.4c0,0,0.1,0,0.2-0.1l0.7-0.9c0-0.1,0.1-0.1,0-0.2h-0.1c-0.1,0-0.1,0.1-0.2,0.1l-0.8,0.9
			c0,0.1-0.1,0.2,0,0.2L100,103.4z"/>
		<path d="M99.8,103.3L99.8,103.3l0.8-0.9c0,0,0.1-0.1,0.2-0.1h0.1l0,0c0,0,0,0.1,0,0.1l-0.7,0.9c0,0.1-0.2,0.1-0.2,0.1l0,0h-0.2
			l0,0C99.8,103.4,99.8,103.3,99.8,103.3C99.8,103.3,99.8,103.3,99.8,103.3z M100.9,102.4C100.9,102.4,100.9,102.4,100.9,102.4
			L100.9,102.4l-0.1-0.1c-0.1,0-0.1,0.1-0.2,0.1l-0.7,0.9c0,0-0.1,0.1-0.1,0.1l0,0h0.2c0,0,0.1,0,0.2-0.1L100.9,102.4L100.9,102.4z"
			/>
		<path class="st35" d="M101.1,102.5l-0.2-0.2c0,0,0,0.1,0,0.1l-0.7,0.9c-0.1,0.1-0.1,0.1-0.2,0.1h-0.2l0,0l0.2,0.2l0,0h0.2
			c0,0,0.1,0,0.2-0.1l0.7-0.9C101.1,102.5,101.2,102.5,101.1,102.5z"/>
		<path d="M99.8,103.4L99.8,103.4L99.8,103.4h0.2c0,0,0.1,0,0.2-0.1l0.7-0.9c0-0.1,0-0.1,0-0.1l0,0l0.2,0.2c0,0,0,0.1,0,0.2
			l-0.7,0.9c0,0.1-0.2,0.1-0.2,0.1H100l0,0L99.8,103.4L99.8,103.4z M100.9,102.4L100.9,102.4l-0.7,0.9c0,0.1-0.2,0.1-0.2,0.1h-0.1
			l0.2,0.2l0,0h0.2c0,0,0.1,0,0.2-0.1l0.7-0.9c0,0,0-0.1,0-0.1l-0.2-0.2C100.9,102.3,100.9,102.3,100.9,102.4z"/>
		<path class="st36" d="M102.8,98.5L102.8,98.5l0.1,0.1c0.1,0.2,0.1,0.3,0,0.5l-1.7,3.4h-0.4l1.7-3.4c0.1-0.2,0.1-0.4,0-0.5v-0.1
			l0,0L102.8,98.5L102.8,98.5z"/>
		<path class="st24" d="M100.8,102.5l1.7-3.3c0.1-0.2,0.1-0.4,0-0.6l-0.1-0.1l0,0h0.3l0,0l0,0l0.1,0.1c0.1,0.2,0.1,0.3,0,0.5
			l-1.7,3.4L100.8,102.5 M100.7,102.5l0.5,0.1l1.7-3.4c0.1-0.2,0.1-0.4,0-0.5l-0.1-0.1l0,0l0,0l-0.5-0.1l0,0l0.1,0.1v0.1
			c0.1,0.2,0.1,0.4,0,0.5L100.7,102.5L100.7,102.5z M102.3,98.4L102.3,98.4"/>
		<path class="st37" d="M102.3,98.5L102.3,98.5v0.1c0.1,0.2,0.1,0.3,0,0.5l-1.7,3.4l-0.3-0.6l1.7-3.4c0-0.1,0.1-0.1,0.1-0.1
			L102.3,98.5z"/>
		<path d="M100.7,102.5l-0.3-0.5l1.7-3.4c0,0,0.1-0.1,0.1-0.1l0,0l0,0l0.1,0.1c0.1,0.2,0.1,0.3,0,0.5L100.7,102.5L100.7,102.5z
			 M100.7,102.5l1.8-3.3c0.1-0.2,0.1-0.4,0-0.5l-0.1-0.1l0,0c0,0-0.2,0-0.2,0.1l-1.7,3.4l0.3,0.6L100.7,102.5z"/>
		<path class="st35" d="M100.9,103.5l0.3-1c0,0,0-0.1,0-0.1l-0.2-0.1c0,0,0,0,0,0.1l-0.3,1c0,0.1-0.1,0.1-0.1,0.2h-0.1l0,0l0.2,0.1
			l0,0h0.1C100.9,103.7,100.9,103.6,100.9,103.5z"/>
		<path d="M101,102.4l0.2,0.1c0,0,0,0,0,0.1l-0.3,1c0,0.1-0.1,0.1-0.1,0.2l0,0h-0.1l0,0l-0.2-0.1l0,0h0.1c0.1,0,0.1-0.1,0.1-0.2
			l0.3-1L101,102.4L101,102.4z M100.9,103.6L100.9,103.6L100.9,103.6l0.3-1v-0.1l-0.2-0.1c0,0,0,0.1,0,0.1l-0.3,1
			c0,0.1-0.1,0.1-0.1,0.2l0,0h-0.1l0.2,0.1l0,0h0.1C100.8,103.7,100.8,103.7,100.9,103.6z"/>
		<path class="st34" d="M100.4,103.7h0.1c0.1,0,0.1-0.1,0.1-0.2l0.3-1c0-0.1,0-0.1,0-0.1h-0.1c-0.1,0-0.1,0.1-0.1,0.2l-0.4,1
			C100.4,103.6,100.4,103.7,100.4,103.7z"/>
		<path d="M100.8,102.5c0,0,0.1-0.1,0.1-0.1l0,0h0.1l0,0c0,0,0,0.1,0,0.1l-0.3,1c0,0.1-0.1,0.1-0.1,0.2l0,0h-0.1l0,0
			c0,0,0-0.1,0-0.1L100.8,102.5L100.8,102.5z M100.9,102.4c-0.1,0-0.1,0.1-0.1,0.2l-0.4,1c0,0,0,0.1,0,0.1l0,0l0,0h0.1
			c0.1,0,0.1-0.1,0.1-0.2l0.3-1v-0.1l0,0L100.9,102.4z"/>
		<path class="st32" d="M100.3,101.8l-0.2,0.4c0,0.1,0,0.2,0,0.2l0.7,0.1c0.1,0,0.2-0.1,0.2-0.1l0.1-0.2c0-0.1,0-0.2,0-0.2l-0.7-0.2
			C100.4,101.8,100.3,101.8,100.3,101.8z"/>
		<path d="M100.3,101.8c0-0.1,0.1-0.1,0.2-0.1l0.7,0.3l0,0c0,0,0,0.1,0,0.2l-0.1,0.2c0,0.1-0.1,0.1-0.2,0.2l-0.8-0.1l0,0
			c0-0.1,0-0.1,0-0.2L100.3,101.8C100.3,101.8,100.3,101.8,100.3,101.8z M101,102.4L101,102.4l0.1-0.2c0,0,0-0.1,0-0.1l0,0l-0.7-0.3
			c0,0-0.1,0-0.2,0.1l0,0l-0.2,0.4c0,0,0,0.1,0,0.2l0,0l0.8,0.1C100.9,102.5,101,102.5,101,102.4L101,102.4z"/>
		<path class="st38" d="M101.1,102l-0.2-0.1l-0.3-0.1l-0.2-0.1h-0.1h-0.1c0,0-0.1,0-0.1,0c-0.1,0.1-0.1,0.1-0.1,0.2l-0.1,0.2
			c0,0.1-0.1,0.2,0,0.3l0.2,0.1c0,0,0-0.1,0-0.1c0-0.1,0-0.1,0-0.2c0-0.1,0-0.1,0.1-0.2c0-0.1,0-0.2,0.1-0.2c0,0,0.1-0.1,0.1-0.1
			h0.1h0.1l0.4,0.2L101.1,102z"/>
		<path d="M100,101.8L100,101.8C100.1,101.7,100.1,101.7,100,101.8l0.2-0.1l0.6,0.2l0.2,0.1l0,0h-0.2l-0.4-0.3h-0.1c0,0-0.1,0-0.1,0
			c0,0-0.1,0.1-0.1,0.2v0.1v0.1c0,0.1,0,0.1,0,0.2c0,0,0,0.1,0,0.1l0,0l-0.2-0.1c-0.1,0,0-0.2,0-0.3L100,101.8
			C100.1,101.8,100.1,101.8,100,101.8z M100.4,101.8h-0.1h-0.1l0,0c0,0.1-0.1,0.1-0.1,0.2l-0.1,0.2c0,0.1-0.1,0.2,0,0.2l0.2,0.1
			c0,0,0-0.1,0-0.1c0,0,0-0.1,0-0.2v-0.1v-0.1c0-0.1,0-0.1,0.1-0.2C100.3,101.8,100.3,101.8,100.4,101.8z"/>
		<path class="st39" d="M101.2,100.6l-2.1-1.3l0,0l0.1-0.2l0,0l2.1,1.3L101.2,100.6z M101.4,100.5l-0.1,0.2c0,0,0,0,0-0.1
			L101.4,100.5z"/>
		<path class="st40" d="M97.4,97.1l1.1-1.8c0.1-0.2,0.3-0.2,0.5-0.1l1.6,1c0.2,0.1,0.2,0.3,0.1,0.5l-1.1,1.8
			c-0.1,0.2-0.3,0.2-0.5,0.1l-1.6-1C97.4,97.5,97.3,97.3,97.4,97.1z"/>
		<polygon class="st30" points="99.1,95.5 99.2,95.6 100.1,96.2 100.2,96.3 99.6,97 98.8,98.1 98,97.6 98.6,96.4 		"/>
		<path d="M99,95.4l1.3,0.8l-1.4,1.9L98,97.6L99,95.4z M100.2,96.2L100.2,96.2l-1.1-0.7l-1,2.1l0.8,0.5L100.2,96.2z"/>
		<path class="st41" d="M98.8,98l0.2-0.3l0.5-0.7l0.6-0.7l0,0c0.2-0.2,0.5-0.3,0.7-0.1l3,1.8c0.2,0.1,0.3,0.4,0.2,0.7l-0.8,1.7
			l-0.1,0.2l-0.1,0.2c-0.1,0.3-0.4,0.4-0.7,0.3c0,0,0,0,0,0l0,0l-3.3-2.1c-0.2-0.1-0.3-0.4-0.2-0.7C98.7,98,98.8,98,98.8,98z"/>
		<path class="st26" d="M98.7,98C98.7,97.9,98.7,97.9,98.7,98l1.4-1.8c0.2-0.2,0.5-0.3,0.7-0.1l3,1.8c0.2,0.2,0.3,0.5,0.2,0.7l-1,2
			c-0.1,0.1-0.2,0.2-0.3,0.3c-0.1,0.1-0.3,0.1-0.4,0l0,0l-3.4-2.1c-0.2-0.2-0.3-0.5-0.2-0.7L98.7,98z M102.9,100.5L102.9,100.5
			l0.2-0.3l0.9-1.6c0.1-0.2,0-0.5-0.2-0.6l-3-1.8c-0.2-0.1-0.5-0.1-0.6,0.1L98.8,98c0,0-0.1,0.1-0.1,0.1c-0.1,0.2,0,0.5,0.2,0.6
			l3.3,2l0,0c0.2,0.1,0.5,0.1,0.7-0.2V100.5z"/>
		<path class="st39" d="M94.7,96.5l0.1-0.2c0,0,0,0,0.1,0l2.1,1.3c0,0,0,0,0,0.1l-0.1,0.2c0,0,0,0-0.1,0L94.7,96.5
			C94.7,96.6,94.7,96.6,94.7,96.5z"/>
		<g class="st42">
			
				<rect x="95.9" y="96.8" transform="matrix(0.5261 -0.8504 0.8504 0.5261 -37.1771 127.758)" class="st0" width="0.3" height="0.8"/>
		</g>
		<path class="st41" d="M98.2,97.6l0.2-0.3l0.4-0.8l0.4-0.8l0,0c0.1-0.2,0-0.5-0.2-0.7l-3-1.8c-0.2-0.1-0.5-0.1-0.7,0.1l-1.1,1.5
			l-0.1,0.1L94,95c-0.2,0.2-0.2,0.5,0,0.7l0,0l3.3,2.1c0.2,0.1,0.5,0.1,0.7-0.1L98.2,97.6z"/>
		<path class="st26" d="M93.9,95C93.9,95,93.9,95,93.9,95l0.2-0.4l1.1-1.5c0.2-0.2,0.5-0.3,0.7-0.2l3,1.8c0.2,0.2,0.3,0.5,0.2,0.7
			l-1,2l-0.1,0.1c-0.2,0.2-0.5,0.3-0.7,0.1L94,95.8l0,0c-0.1-0.1-0.2-0.2-0.2-0.4C93.8,95.3,93.9,95.2,93.9,95z M98.1,97.6
			L98.1,97.6L98.1,97.6l1-2c0.1-0.2,0-0.5-0.2-0.6l-3-1.8c-0.2-0.1-0.5-0.1-0.6,0.1L94,95c-0.1,0.1-0.2,0.3-0.1,0.4
			c0,0.1,0.1,0.3,0.2,0.3l0,0l3.3,2c0.2,0.1,0.5,0.1,0.6-0.1L98.1,97.6z"/>
		<g class="st43">
			<path class="st0" d="M94,95l0.2-0.2c1.6,0.2,3.1,0.7,4.5,1.6h0.1l0.4,0.3l0.4,0.3l0.1,0.1c1.4,0.8,2.6,2,3.4,3.4l-0.1,0.2
				c-0.1,0.3-0.4,0.4-0.7,0.3l0,0l-3.4-2.1c-0.2-0.1-0.3-0.4-0.2-0.7l-0.6-0.4c-0.2,0.2-0.5,0.3-0.7,0.2l-3.3-2.1
				C93.8,95.7,93.8,95.3,94,95C93.9,95.1,93.9,95,94,95z"/>
		</g>
		<g class="st42">
			
				<rect x="99.9" y="99.3" transform="matrix(0.5261 -0.8504 0.8504 0.5261 -37.3805 132.3534)" class="st0" width="0.3" height="0.8"/>
		</g>
		
			<rect x="97.1" y="101" transform="matrix(0.5261 -0.8504 0.8504 0.5261 -40.2239 131.0643)" class="st39" width="0.7" height="1.2"/>
		<rect x="96.5" y="98.4" transform="matrix(0.5261 -0.8504 0.8504 0.5261 -39.6842 129.8607)" width="0.3" height="4.3"/>
		<g class="st42">
			
				<rect x="97" y="101.4" transform="matrix(0.5258 -0.8506 0.8506 0.5258 -40.2122 130.9627)" class="st0" width="0.7" height="0.4"/>
		</g>
		
			<rect x="95" y="99.7" transform="matrix(0.5261 -0.8504 0.8504 0.5261 -40.1207 128.6225)" class="st39" width="0.7" height="1.2"/>
		<g class="st42">
			
				<rect x="94.9" y="100" transform="matrix(0.5262 -0.8504 0.8504 0.5262 -40.1189 128.4689)" class="st0" width="0.7" height="0.4"/>
		</g>
	</g>
	<g>
		<path class="st44" d="M119.1,62.7c0,12.6-16.5,31.1-17.2,31.8c-0.6,0.7-1.7,0.7-2.3,0.1c0,0-0.1-0.1-0.1-0.1
			c-0.7-0.8-17.2-19.2-17.2-31.8c0.2-10.2,8.7-18.2,18.8-18C110.9,45,118.8,52.9,119.1,62.7L119.1,62.7z"/>
		<path class="st27" d="M89.8,71.2c0-0.2,0.1-0.3,0.1-0.5c0.4-1.4,0.8-2.7,1.4-4c0.3-0.7,0.5-1.2,0.7-1.6c0.2-0.4,0.5-0.8,0.9-1.1
			c0.3-0.3,0.6-0.5,1-0.6c0.6-0.2,1.2-0.3,1.8-0.2c1.5,0.2,2.3,0.2,2.6,0.3c0.8,0.7,1.4,1.6,1.6,2.6c0.1,0.9-0.1,1.9-0.5,2.7
			c-0.6,0.9-2.7,4.9-3.7,5c-1,0.1-4.1,0-4.9-0.6C90,72.7,89.7,71.9,89.8,71.2L89.8,71.2z"/>
		<path d="M94.5,73.9c-1.4,0-3.3-0.2-4-0.7c-0.6-0.5-0.9-1.2-0.8-2l0,0c0-0.2,0.1-0.3,0.1-0.5c0.4-1.4,0.8-2.7,1.4-4
			c0.2-0.4,0.3-0.7,0.4-1s0.2-0.4,0.3-0.6c0.2-0.4,0.5-0.8,0.9-1.1c0.3-0.3,0.6-0.5,1-0.6c0.6-0.2,1.2-0.3,1.8-0.2
			c0.7,0.1,1.3,0.1,1.7,0.2c0.3,0,0.6,0.1,0.9,0.1l0,0c0.8,0.7,1.4,1.6,1.6,2.6c0.1,0.9-0.1,1.9-0.5,2.7c-0.1,0.2-0.2,0.4-0.4,0.8
			c-0.9,1.5-2.5,4.2-3.3,4.3C95.2,73.9,94.9,73.9,94.5,73.9z M89.8,71.2c-0.2,0.8,0.1,1.5,0.8,2c0.8,0.6,3.7,0.7,4.9,0.6
			c0.8-0.1,2.4-2.8,3.2-4.3c0.2-0.3,0.3-0.6,0.4-0.8c0.5-0.8,0.6-1.8,0.5-2.7c-0.2-1-0.8-1.9-1.6-2.5c-0.3-0.1-0.7-0.1-1-0.1
			c-0.4,0-1-0.1-1.7-0.2c-0.6-0.1-1.2-0.1-1.8,0.2c-0.3,0.1-0.7,0.3-0.9,0.6c-0.4,0.3-0.7,0.7-0.8,1.1c-0.1,0.2-0.2,0.4-0.3,0.6
			s-0.3,0.6-0.4,1c-0.5,1.3-1,2.6-1.3,4C89.8,70.9,89.8,71.1,89.8,71.2L89.8,71.2z"/>
		<path class="st45" d="M94.9,73.8c-0.3,0-0.7-0.1-0.9-0.3c-0.6-0.4-0.9-1.2-0.7-1.9c0-0.2,0.1-0.3,0.1-0.5c0.4-1.4,0.8-2.7,1.3-4
			c0.2-0.4,0.3-0.7,0.4-1c0.1-0.3,0.2-0.4,0.3-0.6c0.2-0.4,0.5-0.8,0.8-1.1c0.3-0.2,0.6-0.4,0.9-0.6c0.3-0.1,0.7-0.2,1.1-0.2
			c0.2,0,0.4,0,0.6,0.1c0.7,0.2,1.4,0.5,2,0.9l0.1,0.1c0.7,0.4,1.3,1.1,1.5,1.9c0.1,0.9-0.1,1.8-0.5,2.6c-1.5,1.6-3.2,3-5.1,4.1
			l-0.2,0.1C96.1,73.6,95.5,73.7,94.9,73.8L94.9,73.8z"/>
		<path d="M98.2,63.9L98.2,63.9c0.2,0,0.4,0,0.6,0.1c0.7,0.1,1.4,0.4,2,0.9h0.1l0,0c0.7,0.4,1.2,1,1.4,1.8c0.1,0.9-0.1,1.7-0.5,2.5
			c-1.5,1.6-3.1,2.9-5,4l-0.2,0.1c-0.5,0.2-1.1,0.3-1.7,0.3c-0.3,0-0.6-0.1-0.8-0.2c-0.6-0.4-0.8-1.1-0.6-1.7c0-0.2,0.1-0.3,0.1-0.4
			c0.4-1.3,0.8-2.6,1.3-3.9c0.2-0.4,0.3-0.7,0.4-1c0.1-0.3,0.2-0.4,0.2-0.6c0.2-0.4,0.4-0.7,0.8-1c0.3-0.2,0.5-0.4,0.9-0.6
			C97.5,63.9,97.8,63.8,98.2,63.9L98.2,63.9z M98.2,63.5c-0.4,0-0.8,0.1-1.1,0.2c-0.4,0.1-0.7,0.3-1,0.6c-0.3,0.3-0.6,0.7-0.8,1.1
			c-0.2,0.4-0.4,0.9-0.7,1.6c-0.5,1.3-1,2.6-1.3,4c0,0.2-0.1,0.3-0.1,0.5c-0.2,0.8,0.1,1.5,0.8,2c0.3,0.2,0.6,0.3,1,0.3
			c0.7,0,1.4-0.2,2-0.4c1.9-1.1,3.7-2.5,5.2-4.1c0.5-0.8,0.7-1.8,0.5-2.7c-0.1-1.1-1.3-1.8-1.6-2c-0.6-0.5-1.4-0.8-2.2-1
			C98.6,63.5,98.4,63.5,98.2,63.5L98.2,63.5z"/>
		<path class="st46" d="M101.6,67.3c0.2,1-0.4,1.9-1.3,2.2c-1,0.2-1.9-0.4-2.2-1.3c-0.1-0.2-0.1-0.5,0-0.8c-0.2-1,0.3-1.9,1.3-2.2
			c1-0.2,1.9,0.3,2.2,1.3C101.7,66.8,101.7,67,101.6,67.3L101.6,67.3z"/>
		<path class="st46" d="M99,70.5c-0.1,0.7-0.8,1.1-1.5,1c-0.7-0.1-1.1-0.8-1-1.5c0.1-0.6,0.6-1,1.2-1C98.5,69,99,69.7,99,70.5
			L99,70.5z"/>
		<path class="st46" d="M96.2,71.8c0.1,0.6-0.4,1.2-1,1.3c0,0,0,0,0,0c-0.7-0.2-1.1-0.8-1-1.5c0.1-0.5,0.5-0.9,1-1
			C95.8,70.6,96.3,71.2,96.2,71.8L96.2,71.8z"/>
		<path class="st30" d="M100.6,67.3c0,0.4-0.3,0.8-0.6,0.8s-0.6-0.3-0.6-0.8c0-0.5,0.2-0.8,0.6-0.8S100.6,66.9,100.6,67.3
			L100.6,67.3z"/>
		<path class="st30" d="M98.3,70.5c0.1,0.4,0,0.8-0.3,0.8s-0.6-0.2-0.7-0.6c-0.1-0.3,0-0.7,0.3-0.8C97.9,69.9,98.2,70.1,98.3,70.5
			L98.3,70.5z"/>
		<path class="st30" d="M95.6,71.8c0.1,0.3,0,0.6-0.2,0.6c-0.2,0.1-0.4-0.1-0.5-0.4c-0.1-0.2,0-0.5,0.2-0.6
			C95.3,71.3,95.5,71.5,95.6,71.8L95.6,71.8z"/>
		<path class="st15" d="M94.5,70.1c0,0,0.3-0.6,1.1-0.3c0.2-0.9,1.1-1.5,2-1.3c-0.5-1.1-0.3-2.3,0.3-3.2c-0.4-0.2-0.7-0.3-1.3,0.4
			C95.8,67.1,95.1,68.6,94.5,70.1L94.5,70.1z"/>
		<path class="st47" d="M94.5,70.2L94.5,70.2c0.6-1.6,1.3-3.1,2.2-4.5c0.6-0.7,0.8-0.6,1.3-0.4l0,0l0,0c-0.7,0.9-0.8,2.1-0.4,3.1
			v0.1l0,0l0,0c-0.9-0.1-1.7,0.4-1.9,1.2v0.1l0,0l0,0C94.8,69.6,94.6,70.1,94.5,70.2L94.5,70.2z M97.4,65.1c-0.2,0-0.4,0.1-0.8,0.5
			c-0.8,1.4-1.5,2.8-2.1,4.3c0.3-0.3,0.7-0.4,1.1-0.2l0,0c0.1-0.3,0.3-0.6,0.5-0.8c0.4-0.4,0.9-0.6,1.5-0.5c0,0,0-0.1,0-0.1
			c-0.4-1-0.3-2.2,0.4-3.1C97.8,65.2,97.6,65.1,97.4,65.1z"/>
		
			<rect x="93.6" y="63.5" transform="matrix(6.331303e-02 -0.998 0.998 6.331303e-02 22.6149 154.5636)" class="st48" width="0.1" height="3.4"/>
		
			<rect x="95.7" y="61.6" transform="matrix(6.331303e-02 -0.998 0.998 6.331303e-02 26.3229 155.0656)" class="st48" width="0.1" height="3.8"/>
		<polygon class="st48" points="99.2,63.8 98.2,63.7 98.2,63.6 99.2,63.7 		"/>
		
			<rect x="92.7" y="65.7" transform="matrix(6.331303e-02 -0.998 0.998 6.331303e-02 19.6414 155.6415)" class="st48" width="0.1" height="3.4"/>
		
			<rect x="92" y="67.8" transform="matrix(6.331303e-02 -0.998 0.998 6.331303e-02 16.8444 156.885)" class="st48" width="0.1" height="3.4"/>
		
			<rect x="91.3" y="69.7" transform="matrix(5.989229e-02 -0.9982 0.9982 5.989229e-02 14.6027 158.2344)" class="st48" width="0.1" height="3.4"/>
		<path class="st49" d="M89.7,63.4l4.8-1.8c0.8-0.3,1.4-0.4,1.8,0.3s-0.1,1-0.8,1.5l-4.6,2.9c-0.8,0.4-1.7,0.1-2-0.7
			C88.5,64.7,88.9,63.8,89.7,63.4L89.7,63.4z"/>
		<path class="st48" d="M90.2,66.5c-0.2,0-0.3,0-0.5-0.1c-0.4-0.1-0.7-0.4-0.9-0.8c-0.3-0.9,0.1-1.8,0.9-2.2l0,0l4.8-1.8
			c1.1-0.5,1.6-0.2,1.8,0.3c0.3,0.8-0.1,1-0.8,1.5l-4.6,2.9C90.7,66.4,90.5,66.5,90.2,66.5z M89.7,63.5c-0.8,0.4-1.2,1.3-0.8,2.2
			c0.2,0.4,0.5,0.6,0.9,0.8c0.4,0.1,0.8,0.1,1.1-0.1l4.6-2.9c0.7-0.4,1-0.7,0.8-1.4s-0.9-0.6-1.8-0.3L89.7,63.5z"/>
		<path class="st37" d="M90.1,63.2l4.9-2c0.8-0.3,1.7,1.3,1,1.8l-4.6,3c-0.8,0.4-1.7,0-2-0.7C89,64.5,89.3,63.6,90.1,63.2L90.1,63.2
			z"/>
		<path class="st50" d="M90.7,66.1c-0.2,0-0.3,0-0.5-0.1c-0.8-0.3-1.3-1.1-1-2c0.1-0.4,0.4-0.7,0.8-0.9l0,0l5-2
			c0.4-0.2,0.9,0.2,1.1,0.7s0.3,0.9-0.1,1.1l-4.7,3C91.2,66.1,91,66.1,90.7,66.1z M90.1,63.2c-0.7,0.4-1,1.3-0.7,2
			c0.2,0.4,0.5,0.6,0.9,0.8c0.4,0.1,0.8,0.1,1.2-0.1L96,63c0.3-0.2,0.3-0.7,0.1-1.1s-0.7-0.8-1.1-0.6L90.1,63.2z"/>
		<path class="st51" d="M89,64.7c0-0.2,0-0.5,0.1-0.7c-0.8-0.2-1.6-0.3-2.4-0.2c-0.1,0.2-0.2,0.5-0.3,0.7c0,0.2,0.1,0.4,0.3,0.5
			c0,0,0.1,0,0.1,0l2-0.2L89,64.7z"/>
		<path class="st52" d="M86.9,65c-0.1,0-0.2-0.1-0.3-0.1c-0.1-0.1-0.1-0.2-0.1-0.4c0-0.3,0.1-0.5,0.3-0.7c0.1-0.1,0.7-0.1,1,0
			c0.5,0.1,0.9,0.1,1.4,0.2l0,0l0,0c-0.2,0.4-0.2,0.7-0.1,0.7l0,0l-0.2,0.1l0,0L86.9,65L86.9,65z M87.1,63.8c-0.2,0-0.3,0-0.4,0.1
			c-0.1,0.2-0.2,0.5-0.2,0.7c0,0.1,0,0.2,0.1,0.3c0.1,0.1,0.2,0.1,0.3,0.1c0.7,0,1.9-0.2,2-0.2l0.1-0.1c0-0.2,0-0.5,0.1-0.7
			C88.5,63.9,87.8,63.8,87.1,63.8z"/>
		<path class="st45" d="M89.1,64c-0.6-0.2-2.1-0.6-2.3-0.4c-0.1,0.2-0.2,0.4-0.3,0.7c-0.1,0.2,0.1,0.4,0.3,0.5c0,0,0.1,0,0.1,0
			c0.8-0.1,2,0,2.1-0.1C88.9,64.5,89,64.2,89.1,64L89.1,64z"/>
		<path class="st52" d="M86.9,64.8c-0.1,0-0.2-0.1-0.3-0.2c-0.1-0.1-0.1-0.2-0.1-0.4c0.1-0.2,0.2-0.5,0.3-0.7
			c0.2-0.2,2.1,0.3,2.3,0.4l0,0l0,0C89,64.2,89,64.5,89,64.7l0,0c-0.3,0-0.6,0-0.8,0c-0.4,0-0.9,0-1.3,0L86.9,64.8z M87.1,63.6
			c-0.1,0-0.1,0-0.2,0c-0.1,0.2-0.2,0.4-0.3,0.7c0,0.1,0,0.2,0.1,0.3c0.1,0.1,0.2,0.1,0.3,0.1c0.4,0,0.9,0,1.3,0H89
			c-0.1-0.2,0-0.5,0.1-0.7C88.5,63.8,87.8,63.7,87.1,63.6z"/>
		<path class="st51" d="M89.4,65.7c-0.2-0.2-0.3-0.4-0.3-0.6c-0.6,0.2-2,1-2,1.3c0,0.3,0.1,0.5,0.2,0.7c0.1,0.2,0.3,0.3,0.5,0.2
			c0,0,0.1,0,0.1-0.1c0.6-0.5,1.5-1.3,1.5-1.3L89.4,65.7z"/>
		<path class="st52" d="M87.6,67.3L87.6,67.3c-0.2,0-0.3-0.1-0.4-0.2c-0.1-0.2-0.2-0.5-0.2-0.7c0-0.2,0.5-0.5,0.8-0.7
			c0.4-0.2,0.8-0.5,1.2-0.6l0,0l0,0c0,0.2,0.1,0.4,0.3,0.6l0,0v0.2l0,0c0,0-0.9,0.8-1.5,1.3C87.8,67.3,87.7,67.3,87.6,67.3z
			 M89.1,65.1c-0.4,0.2-0.8,0.4-1.2,0.6c-0.5,0.3-0.8,0.5-0.8,0.6c0,0.2,0.1,0.5,0.2,0.7c0.1,0.1,0.2,0.2,0.3,0.2
			c0.1,0,0.2,0,0.3-0.1c0.6-0.5,1.4-1.3,1.5-1.3v-0.2C89.2,65.5,89.1,65.3,89.1,65.1z"/>
		<path class="st45" d="M89.1,65.1c-0.6,0.2-2,0.8-2.1,1.1c0,0.3,0.1,0.5,0.2,0.7c0.1,0.2,0.3,0.3,0.5,0.2c0,0,0.1,0,0.1-0.1
			c0.6-0.5,1.6-1.3,1.6-1.3C89.2,65.5,89.1,65.3,89.1,65.1L89.1,65.1z"/>
		<path class="st52" d="M87.5,67.1L87.5,67.1c-0.2,0-0.3-0.1-0.4-0.2C87,66.7,87,66.4,87,66.2c0-0.3,1.9-1,2.1-1.1l0,0l0,0
			c0,0.2,0.1,0.5,0.3,0.6l0,0c-0.2,0.2-0.4,0.4-0.6,0.5c-0.3,0.2-0.7,0.6-1,0.8C87.7,67.1,87.6,67.1,87.5,67.1z M89,65.1
			c-0.7,0.2-1.4,0.6-2,1.1c0,0.2,0.1,0.5,0.2,0.7c0,0.1,0.1,0.2,0.2,0.2c0.1,0,0.2,0,0.3-0.1l1-0.8c0.2-0.2,0.4-0.3,0.6-0.5
			C89.2,65.6,89.1,65.3,89,65.1L89,65.1z"/>
		<path class="st51" d="M90.4,66.2c-0.2,0-0.5-0.1-0.6-0.3c-0.3,0.6-0.8,1.6-0.7,1.8s0.1,0.2,0.4,0.3c0.2,0.1,0.4,0,0.5-0.2
			c0,0,0-0.1,0-0.1c0.1-0.5,0.3-0.9,0.5-1.3L90.4,66.2z"/>
		<path class="st52" d="M89.6,68c-0.1,0-0.1,0-0.2,0c-0.3-0.1-0.3-0.1-0.4-0.3l0,0c-0.1-0.2,0.3-1,0.6-1.6l0.1-0.2l0,0l0,0
			c0.2,0.2,0.4,0.3,0.6,0.3l0,0l0.1,0.2l0,0c-0.2,0.4-0.4,0.9-0.5,1.3c0,0.1-0.1,0.2-0.2,0.3C89.7,68,89.6,68,89.6,68z M89.8,65.9
			l-0.1,0.2c-0.3,0.5-0.7,1.3-0.6,1.5l0,0c0.1,0.1,0.1,0.2,0.4,0.3c0.2,0.1,0.4,0,0.5-0.2c0,0,0-0.1,0-0.1c0.1-0.5,0.3-0.9,0.5-1.3
			l-0.1-0.1C90.1,66.2,89.9,66.1,89.8,65.9z"/>
		<path class="st45" d="M89.7,65.9c-0.3,0.6-1,1.4-0.9,1.6c0.1,0.1,0.2,0.3,0.3,0.3c0.2,0.1,0.4,0,0.5-0.2c0,0,0-0.1,0-0.1
			c0.2-0.5,0.4-1,0.6-1.4C90.1,66.2,89.9,66.1,89.7,65.9L89.7,65.9z"/>
		<path class="st52" d="M89.4,67.9c-0.1,0-0.1,0-0.2-0.1c-0.2-0.1-0.2-0.2-0.3-0.3v-0.1c-0.1-0.2,0.2-0.5,0.5-1
			c0.1-0.2,0.3-0.4,0.4-0.6l0,0l0,0c0.2,0.2,0.4,0.3,0.6,0.3l0,0c0,0,0,0.1-0.1,0.3c-0.2,0.4-0.4,0.7-0.5,1.2c0,0.1-0.1,0.2-0.2,0.3
			C89.5,67.9,89.4,67.9,89.4,67.9z M89.7,65.9c-0.1,0.2-0.2,0.4-0.4,0.6c-0.3,0.4-0.5,0.8-0.5,1v0.1c0.1,0.1,0.1,0.1,0.3,0.2
			c0.1,0,0.2,0,0.3,0c0.1-0.1,0.2-0.2,0.2-0.3c0.1-0.4,0.3-0.8,0.5-1.2l0.1-0.2C90.1,66.2,89.9,66.1,89.7,65.9L89.7,65.9z"/>
		<path class="st51" d="M89.5,63.5l-0.2,0.4L89.1,64c-0.2,0.1-1.5-0.8-1.3-1.1c0.2-0.3,0.5-0.6,0.6-0.5h0.2
			C88.9,62.7,89.3,63.1,89.5,63.5L89.5,63.5z"/>
		<path class="st52" d="M89.1,64c-0.5-0.2-0.9-0.5-1.3-0.9c-0.1-0.1-0.1-0.2,0-0.2c0.2-0.3,0.5-0.6,0.7-0.5c0.1,0,0.1,0,0.2,0l0,0
			c0.4,0.4,0.7,0.8,1,1.2l0,0l-0.2,0.4l0,0L89.1,64L89.1,64z M88.4,62.3c-0.1,0-0.4,0.3-0.6,0.5c0,0,0,0.1,0.1,0.2
			c0.3,0.4,0.8,0.7,1.2,0.9l0,0l0.2-0.1l0.2-0.4c-0.3-0.4-0.6-0.8-1-1.1H88.4L88.4,62.3z"/>
		<path class="st45" d="M89.7,63.4c-0.1,0.1-0.2,0.1-0.3,0.2c-0.1,0.1-0.1,0.2-0.2,0.3c-0.1,0.2-1.5-0.8-1.3-1.1
			c0.2-0.3,0.5-0.5,0.6-0.5C89,62.6,89.4,63,89.7,63.4L89.7,63.4z"/>
		<path class="st52" d="M89.2,63.9L89.2,63.9c-0.5-0.2-1-0.6-1.3-1c0-0.1,0-0.1,0-0.2c0.2-0.2,0.5-0.5,0.7-0.5
			c0.4,0.3,0.8,0.7,1.2,1.1l0,0c-0.1,0.1-0.2,0.1-0.2,0.2c-0.1,0.1-0.1,0.1-0.2,0.2v0C89.4,63.9,89.3,63.9,89.2,63.9
			C89.3,63.9,89.3,63.9,89.2,63.9z M88.6,62.3c-0.2,0.1-0.5,0.2-0.6,0.5c0,0,0,0.1,0,0.1c0.2,0.2,0.4,0.5,0.6,0.6
			c0.2,0.2,0.4,0.3,0.6,0.4l0,0l0,0c0-0.1,0.1-0.2,0.2-0.2c0.1-0.1,0.2-0.2,0.3-0.2C89.3,63,88.9,62.7,88.6,62.3L88.6,62.3z"/>
		<path class="st45" d="M90.5,65c0.3,0.2,0.6,0.1,0.8-0.2c0.2-0.3,0-0.7-0.3-0.8c-0.3-0.1-0.6,0-0.8,0.2
			C90.1,64.5,90.2,64.9,90.5,65L90.5,65z"/>
		<path class="st52" d="M90.8,65.2c-0.1,0-0.2,0-0.3-0.1l0,0c-0.3-0.2-0.4-0.5-0.3-0.9c0.1-0.1,0.2-0.2,0.4-0.3c0.2,0,0.3,0,0.5,0.1
			c0.3,0.1,0.4,0.5,0.3,0.8c0,0,0,0,0,0C91.2,65.1,91,65.2,90.8,65.2z M90.5,65c0.2,0.1,0.5,0.1,0.7-0.2c0,0,0,0,0,0
			c0.1-0.2,0-0.5-0.2-0.7c-0.1-0.1-0.3-0.1-0.4-0.1c-0.1,0-0.2,0.1-0.3,0.2C90.2,64.5,90.3,64.8,90.5,65z"/>
		<path class="st37" d="M92.8,62c1.9-1,3.9-1.9,6-2.6c3.2-0.3,6.3-0.4,9.5-0.3c-1.8,1-3.6,1.8-5.5,2.5C99.5,62,96.1,62.1,92.8,62
			L92.8,62z"/>
		<path class="st31" d="M101.4,61.3c0,0,1.7-1.1,1.8-1.1s-3.3-0.1-3.3-0.1s-1.6,1-1.7,1.1C99.3,61.3,100.4,61.3,101.4,61.3
			L101.4,61.3z"/>
		<path class="st36" d="M108.4,59.1c0,0,0.7,7.2,0.2,9.1c-0.5,0.5-4.2,2.3-5.4,2.3c-0.2-0.8-0.6-8.3-0.3-8.9
			C104.6,60.7,106.5,59.8,108.4,59.1L108.4,59.1z"/>
		<path class="st30" d="M92.8,62c0,0,0,3.7,0.2,6.4c0.1,0.8,0.6,1.6,1.3,2.1c0.4,0.3,9.4,0.4,9.9,0c-0.6-0.5-1-1.3-1-2.2
			c0-1.8-0.3-4.5-0.3-6.7C99.6,61.6,96.2,61.7,92.8,62L92.8,62z"/>
		<path class="st53" d="M101.5,57.5l0.1,2.7l-2.4,0.2c-0.4,0-0.8-0.6-0.8-1.3c0-0.8,0.2-1.4,0.7-1.4c0.1,0,0.3,0.1,0.4,0.2
			L101.5,57.5z"/>
		<path d="M99.2,60.5c-0.4,0-0.8-0.6-0.8-1.3c0-0.3,0-0.7,0.2-1c0.1-0.2,0.3-0.4,0.5-0.5c0.1,0,0.3,0.1,0.4,0.2l2-0.3l0,0l0,0
			l0.2,2.7l0,0L99.2,60.5L99.2,60.5z M99.1,57.7L99.1,57.7c-0.2,0-0.4,0.2-0.5,0.4c-0.1,0.3-0.2,0.7-0.2,1c0,0.7,0.4,1.3,0.8,1.3
			l0,0l2.4-0.2l-0.1-2.7l-2,0.3l0,0C99.4,57.8,99.3,57.7,99.1,57.7z"/>
		<path class="st25" d="M90.9,57.6c0.8,0.4,1.6,0.7,2.5,0.7c0.8,0,1.7-0.1,2.5-0.2c1.5-0.2,2.9-0.9,4-2.1c0,0-0.3-2-0.4-2.6
			c-0.2-0.7-0.6-1.3-1-1.9L90.9,57.6z"/>
		<path class="st26" d="M93.7,58.3h-0.3c-0.9,0-1.7-0.3-2.5-0.7l0,0l0,0l7.6-6.2l0,0c0.5,0.6,0.8,1.2,1.1,1.9
			c0.1,0.6,0.4,2.6,0.4,2.6l0,0c-1.1,1.1-2.5,1.9-4.1,2.1C95.1,58.2,94.4,58.3,93.7,58.3z M90.9,57.6c0.8,0.4,1.6,0.6,2.5,0.7
			c0.8,0,1.7-0.1,2.5-0.2c1.5-0.2,2.9-0.9,4-2.1c0-0.1-0.3-2-0.4-2.6c-0.2-0.7-0.5-1.3-1-1.9L90.9,57.6z"/>
		<path class="st25" d="M109.1,56.8c0,0-0.5,1-2.3,1c-1.5-0.1-3-0.2-4.5-0.5l-1.8-2.1L109.1,56.8z"/>
		<path class="st26" d="M106.7,57.8c-1.5-0.1-3-0.3-4.5-0.6l0,0l-1.8-2.2h0.1l8.6,1.7l0,0c-0.1,0.2-0.3,0.4-0.5,0.5
			C108.1,57.6,107.4,57.8,106.7,57.8L106.7,57.8z M102.3,57.2c1.5,0.3,3,0.5,4.5,0.5h0.1c0.7,0,1.3-0.1,1.8-0.5
			c0.2-0.1,0.4-0.3,0.5-0.5l-8.6-1.7L102.3,57.2z"/>
		<path class="st30" d="M98.8,51.9l0.9-0.1l0.1,3.1L99,55C99,53.9,98.9,52.9,98.8,51.9L98.8,51.9z"/>
		<polygon class="st54" points="99,55 99.6,55.7 100.3,55.7 99.9,54.9 		"/>
		<path d="M99.6,55.8L99.6,55.8L99,55l0,0l0,0l0.9,0l0,0l0.4,0.8l0,0l0,0L99.6,55.8L99.6,55.8z M99,55l0.6,0.8h0.6L99.9,55L99,55z"
			/>
		<polygon class="st40" points="98.3,55 100.8,54.9 100.8,59.3 98.5,59.3 		"/>
		<path class="st48" d="M98.5,59.4L98.5,59.4L98.3,55l0,0l2.5-0.1l0,0l0.1,4.4L98.5,59.4z M98.3,55l0.2,4.3l2.3-0.1l-0.1-4.4
			L98.3,55z"/>
		<path class="st25" d="M99,54.9v0.5c0,0,0,0,0,0.1L98.4,56c0,0.1-0.1,0.1-0.1,0.1c-0.1,0-0.1-0.1-0.1-0.1v-0.1c0,0,0,0,0-0.1
			l0.7-0.9C98.9,54.8,98.9,54.8,99,54.9C99,54.9,99,54.9,99,54.9L99,54.9z"/>
		<polygon class="st36" points="102.3,57.2 102.1,58.2 100.8,59.3 100.8,54.9 		"/>
		<path class="st48" d="M100.8,59.3L100.8,59.3l-0.1-4.5l1.5,2.4l-0.2,1l0,0L100.8,59.3z M100.8,54.9l0.1,4.3l1.2-1l0.2-1
			L100.8,54.9z"/>
		<path class="st25" d="M99.9,55c0,0,0.1,0.5,0.2,0.6c0.6,0.2,1.1,0.5,1.7,0.6c0.2,0,0.1-0.4,0.1-0.4L99.9,55z"/>
		<path class="st26" d="M101.8,56.2L101.8,56.2c-0.6-0.2-1.1-0.4-1.7-0.6c-0.1-0.1-0.2-0.5-0.2-0.6l0,0l0,0l2,0.8l0,0
			C101.9,55.8,101.9,56.1,101.8,56.2C101.9,56.2,101.8,56.2,101.8,56.2z M100,55c0,0.1,0.1,0.5,0.2,0.5c0.5,0.2,1.1,0.4,1.7,0.6l0,0
			c0.1-0.1,0-0.2,0-0.3L100,55z"/>
		<path class="st26" d="M101.6,56.1l-1.4-0.5c-0.1,0-0.2-0.5-0.2-0.6l0,0c0,0.2,0.1,0.6,0.2,0.6l0,0L101.6,56.1L101.6,56.1z"/>
		<path class="st55" d="M108,56.9c-2.6,0-7.4-1.4-7.8-1.8c-0.2-1.1-0.2-2.2-0.2-3.4c0-0.2,0.1-0.3,0.3-0.3c1.1-0.1,2.3-0.2,3.5-0.2
			c1.5,0,3.1,0.1,4.6,0.3c0.1,0,0.2,0.1,0.3,0.2c0.4,1.6,0.5,3.2,0.3,4.8c0,0.1-0.1,0.3-0.2,0.3C108.5,56.8,108.2,56.8,108,56.9
			L108,56.9z"/>
		<path class="st38" d="M103.8,51.5c1.5,0,3.1,0.1,4.6,0.3c0,0,0.1,0,0.1,0.1c0.4,1.5,0.5,3.1,0.3,4.7c0,0,0,0.1-0.1,0.1
			c-0.2,0-0.4,0.1-0.7,0c-1.5-0.1-3-0.3-4.5-0.7c-1.1-0.2-2.1-0.5-3.1-1c-0.2-1.1-0.2-2.1-0.1-3.2c0,0,0-0.1,0.1-0.1l0,0
			C101.5,51.5,102.6,51.5,103.8,51.5L103.8,51.5z M103.8,51c-1.2,0-2.3,0.1-3.5,0.2c-0.3,0-0.5,0.2-0.5,0.5c-0.1,1.2,0,2.3,0.2,3.5
			c0.2,0.5,5.5,2,8,2c0.3,0,0.5,0,0.8-0.1c0.2,0,0.4-0.2,0.4-0.5c0.2-1.6,0.1-3.3-0.3-4.9c-0.1-0.2-0.2-0.3-0.5-0.4
			C106.9,51.1,105.3,51,103.8,51L103.8,51z"/>
		<polygon class="st40" points="98.7,60 98.9,61.2 101.4,61.1 101.1,59.9 		"/>
		<path class="st48" d="M98.8,61.2L98.8,61.2L98.7,60l0,0l2.5-0.1l0.3,1.2L98.8,61.2z M98.7,60l0.2,1.1l2.5-0.1l-0.3-1.1L98.7,60z"
			/>
		<polygon class="st36" points="102.3,59.3 103,60.2 101.4,61.1 101.1,59.9 		"/>
		<path class="st48" d="M101.4,61.1l-0.3-1.2l0,0l1.2-0.7l0.7,0.9l0,0L101.4,61.1z M101.1,60l0.3,1.1l1.5-0.9l-0.7-0.8L101.1,60z"/>
		<path class="st56" d="M102.3,58.9c0,0.8-0.3,1.4-0.7,1.4s-0.8-0.6-0.8-1.3c0-0.8,0.3-1.4,0.7-1.4S102.2,58.1,102.3,58.9
			L102.3,58.9z"/>
		<path d="M98.3,56L98.3,56l0.6-0.5c0-0.2,0-0.4,0-0.6l0,0c0,0.2,0,0.4,0,0.7L98.3,56z"/>
		<path class="st55" d="M91.5,57.5h-0.3c-0.1,0-0.2-0.1-0.3-0.2c-0.4-1.6-0.4-3.2-0.2-4.8c0-0.1,0.1-0.2,0.2-0.2
			c2-0.5,4-0.7,6.1-0.7h0.9c0.2,0,0.3,0.1,0.3,0.3c0.2,1.1,0.2,2.2,0.1,3.4C98.2,55.7,93.6,57.5,91.5,57.5L91.5,57.5z"/>
		<path class="st38" d="M97.1,51.3v0.5h1c0,0,0,0,0.1,0c0.2,1.1,0.2,2.1,0.2,3.2c-2.1,1.2-4.4,1.9-6.8,2.2h-0.3c0,0,0,0-0.1,0
			c-0.4-1.5-0.4-3.1-0.2-4.7v0c2-0.4,4-0.6,6.1-0.6V51.3L97.1,51.3z M97.1,51.3c-2.1,0-4.2,0.2-6.2,0.7c-0.2,0-0.4,0.2-0.4,0.4
			c-0.3,1.6-0.2,3.3,0.2,4.9c0,0.2,0.2,0.4,0.5,0.5h0.3c2.2,0,7.2-1.9,7.3-2.5c0.1-1.2,0-2.3-0.1-3.5c0-0.3-0.3-0.5-0.5-0.5
			L97.1,51.3L97.1,51.3z"/>
		<path class="st51" d="M103,55.5c-1-0.1-1.8-0.9-1.8-2c0-0.9,0.8-1.7,1.7-1.8l0,0c1,0,1.7,0.8,1.7,1.8c0,0.5-0.1,1-0.5,1.4
			C103.9,55.2,103.5,55.5,103,55.5L103,55.5L103,55.5z"/>
		<path class="st57" d="M103,51.9L103,51.9c0.9,0.1,1.6,0.9,1.5,1.9c-0.1,0.8-0.7,1.4-1.4,1.5l0,0c-0.9-0.1-1.6-0.9-1.5-1.9
			C101.6,52.6,102.2,52,103,51.9L103,51.9L103,51.9z M103,51.5L103,51.5c-1.2,0.1-2,1-1.9,2.1c0,0,0,0,0,0c0,1.1,0.9,2,1.9,2h0.1
			c1.2,0,2.1-1,2.1-2.1C105.1,52.4,104.1,51.5,103,51.5L103,51.5z"/>
		<path class="st51" d="M95.7,55.9c-1,0-1.7-0.8-1.7-1.8c0-0.5,0.2-1,0.5-1.3c0.3-0.4,0.7-0.6,1.2-0.6l0,0c1,0,1.7,0.8,1.7,1.8
			c0,0.5-0.2,1-0.5,1.4C96.6,55.6,96.1,55.8,95.7,55.9L95.7,55.9L95.7,55.9z"/>
		<path class="st57" d="M95.7,52.3L95.7,52.3c0.9,0.1,1.6,0.9,1.5,1.9c-0.1,0.8-0.7,1.4-1.4,1.5l0,0c-0.9-0.1-1.6-0.9-1.5-1.9
			C94.3,53,94.9,52.4,95.7,52.3L95.7,52.3L95.7,52.3z M95.7,51.9L95.7,51.9c-1.2,0.1-2.1,1.1-2,2.3c0.1,1,0.9,1.9,2,1.9h0.1
			c1.2-0.1,2-1.1,1.9-2.3C97.6,52.8,96.7,51.9,95.7,51.9L95.7,51.9z"/>
		<path class="st58" d="M101.9,59c0,0.4-0.1,0.7-0.3,0.7s-0.3-0.3-0.3-0.7c0-0.4,0.1-0.7,0.3-0.7S101.9,58.6,101.9,59L101.9,59z"/>
		<path class="st48" d="M98.2,70.9c-3.3,0-3.7-0.2-4-0.4h-0.1l0,0c-0.6-0.5-1-1.1-1.1-1.9c0,0,0-0.1,0-0.1c-0.2-0.4-0.2-6.2-0.2-6.4
			l0,0l0,0c1.8-1,3.7-1.8,5.7-2.6v0c-1.9,0.7-3.8,1.5-5.6,2.5c0,0.3,0,6.1,0.2,6.4l0,0v0.1c0.1,0.7,0.5,1.4,1.1,1.8h0.1
			c0.3,0.2,0.9,0.5,7,0.3l0,0C100.1,70.9,99.1,70.9,98.2,70.9z"/>
		<path class="st48" d="M108.7,64.5L108.7,64.5c-0.1-0.3-0.4-5-0.4-5.3c-0.3-0.1-4.1,0-6.1,0.1l0,0c0.2,0,5.9-0.2,6.1-0.1l0,0
			C108.4,59.3,108.8,64.2,108.7,64.5z"/>
		<path class="st59" d="M96.7,54c0,0.4-0.3,0.8-0.7,0.9c-0.4,0-0.8-0.4-0.8-0.8c-0.1-0.4,0.3-0.8,0.7-0.9c0,0,0,0,0,0
			C96.4,53.2,96.7,53.5,96.7,54L96.7,54z"/>
		<path class="st59" d="M104,53.6c0.1,0.4-0.3,0.8-0.7,0.9c0,0,0,0,0,0c-0.4,0-0.8-0.4-0.8-0.8c-0.1-0.4,0.3-0.8,0.7-0.9
			c0,0,0,0,0,0C103.7,52.8,104,53,104,53.6L104,53.6z"/>
		<path class="st49" d="M108.1,56l-2,4.7c-0.4,0.8-0.5,1.4,0.3,1.8s1,0,1.5-0.7l3.1-4.5c0.4-0.7,0.1-1.7-0.6-2.1
			C109.4,54.9,108.4,55.2,108.1,56L108.1,56z"/>
		<path class="st48" d="M106.9,62.7c-0.2,0-0.3,0-0.5-0.1c-0.8-0.4-0.7-1-0.3-1.8l2-4.7c0.2-0.4,0.6-0.7,1-0.8
			c0.4-0.2,0.9-0.2,1.3,0c0.8,0.4,1,1.3,0.7,2.1c0,0,0,0,0,0l-3.1,4.5C107.5,62.4,107.3,62.7,106.9,62.7z M108.1,56l-2,4.7
			c-0.4,0.8-0.4,1.4,0.3,1.8s1,0,1.4-0.7l3.1-4.5c0.4-0.7,0.1-1.6-0.6-2c-0.4-0.2-0.8-0.2-1.2,0C108.7,55.4,108.3,55.7,108.1,56z"/>
		<path class="st37" d="M107.9,56.4l-2.1,4.9c-0.4,0.8,1.3,1.7,1.7,1.1l3.1-4.5c0.4-0.7,0.1-1.7-0.6-2.1
			C109.2,55.4,108.3,55.6,107.9,56.4L107.9,56.4z"/>
		<path class="st50" d="M107.1,62.6c-0.2,0-0.4-0.1-0.6-0.2c-0.5-0.2-0.8-0.7-0.6-1.1l2.1-4.9c0.4-0.8,1.3-1,2.1-0.6s1,1.3,0.6,2.1
			l0,0l-3.1,4.5C107.4,62.5,107.3,62.6,107.1,62.6z M107.9,56.4l-2.1,4.9c-0.2,0.4,0.2,0.8,0.6,1.1s0.9,0.3,1.1,0l3.1-4.5
			c0.4-0.7,0.1-1.6-0.6-2C109.2,55.5,108.3,55.7,107.9,56.4L107.9,56.4z"/>
		<path class="st51" d="M109.4,55.4c-0.2,0-0.5,0-0.7,0.1c-0.2-0.8-0.3-1.6-0.2-2.4c0.2-0.1,0.5-0.2,0.7-0.2
			c0.2-0.1,0.4,0.1,0.5,0.3c0,0,0,0.1,0,0.1c-0.1,0.8-0.2,2-0.2,2L109.4,55.4z"/>
		<path class="st52" d="M108.7,55.5L108.7,55.5c-0.1-0.5-0.2-0.9-0.2-1.4c0-0.4-0.1-0.9,0.1-1c0.2-0.1,0.5-0.2,0.7-0.2
			c0.1,0,0.3,0,0.4,0.1c0.1,0.1,0.1,0.2,0.1,0.3c-0.1,0.8-0.2,2-0.2,2l0,0l-0.2,0.2l0,0C109.2,55.5,109,55.5,108.7,55.5L108.7,55.5z
			 M109.4,52.9L109.4,52.9c-0.3,0-0.6,0.1-0.8,0.2c-0.1,0.8-0.1,1.6,0.2,2.3c0.2-0.1,0.4-0.2,0.7-0.1l0.1-0.1c0-0.1,0.2-1.2,0.2-2
			c0-0.1,0-0.2-0.1-0.3C109.6,52.9,109.5,52.9,109.4,52.9z"/>
		<path class="st45" d="M108.7,55.5c-0.2-0.6-0.5-2.1-0.3-2.3c0.2-0.1,0.4-0.2,0.7-0.3c0.2-0.1,0.4,0.1,0.5,0.3c0,0,0,0.1,0,0.1
			c-0.1,0.8-0.1,2-0.1,2.1C109.2,55.3,109,55.3,108.7,55.5L108.7,55.5z"/>
		<path class="st52" d="M108.7,55.5L108.7,55.5c-0.1-0.2-0.6-2.1-0.3-2.3c0.2-0.1,0.4-0.2,0.7-0.3c0.1,0,0.3,0,0.4,0.1
			c0.1,0.1,0.1,0.2,0.1,0.3c0,0.4-0.1,0.9-0.1,1.3c0,0.3,0,0.6-0.1,0.8l0,0C109.2,55.4,109,55.4,108.7,55.5L108.7,55.5z M109.2,52.9
			L109.2,52.9c-0.3,0-0.5,0.1-0.8,0.3c0,0.8,0.1,1.5,0.3,2.3c0.2-0.1,0.4-0.2,0.7-0.1c0-0.1,0-0.4,0-0.8c0-0.4,0-0.9,0.1-1.3
			c0-0.1,0-0.2-0.1-0.3C109.3,53,109.3,52.9,109.2,52.9z"/>
		<path class="st51" d="M110.4,55.8c-0.2-0.2-0.4-0.3-0.6-0.3c0.2-0.6,1.1-2,1.3-2c0.2,0,0.5,0.1,0.7,0.2c0.2,0.1,0.3,0.3,0.2,0.5
			c0,0,0,0.1-0.1,0.1c-0.5,0.6-1.4,1.4-1.4,1.4L110.4,55.8z"/>
		<path class="st52" d="M110.4,55.8L110.4,55.8c0,0-0.1-0.2-0.6-0.3l0,0l0,0c0.2-0.4,0.4-0.8,0.7-1.2c0.2-0.3,0.5-0.8,0.7-0.8
			c0.3,0,0.5,0.1,0.7,0.2c0.1,0.1,0.2,0.2,0.2,0.3c0,0.1,0,0.2-0.1,0.3c-0.5,0.6-1.4,1.4-1.4,1.4l0,0H110.4z M109.8,55.5
			c0.2,0,0.4,0.1,0.6,0.3h0.2c0.1-0.1,0.9-0.9,1.4-1.4c0.1-0.1,0.1-0.2,0.1-0.3c0-0.1-0.1-0.2-0.2-0.3c-0.2-0.1-0.4-0.2-0.7-0.3
			c-0.1,0-0.3,0.3-0.6,0.8C110.2,54.6,110,55,109.8,55.5z"/>
		<path class="st45" d="M109.8,55.5c0.2-0.6,0.9-2,1.1-2.1c0.3,0,0.5,0.1,0.7,0.2c0.2,0.1,0.3,0.3,0.2,0.5c0,0,0,0.1-0.1,0.1
			c-0.5,0.6-1.3,1.6-1.4,1.6C110.2,55.6,110,55.5,109.8,55.5L109.8,55.5z"/>
		<path class="st52" d="M110.4,55.8L110.4,55.8c-0.1-0.2-0.4-0.3-0.6-0.3l0,0l0,0c0.1-0.2,0.8-2,1.2-2.1c0.3,0,0.5,0.1,0.7,0.2
			c0.1,0,0.2,0.2,0.2,0.3c0,0.1,0,0.3-0.1,0.3c-0.3,0.3-0.6,0.7-0.8,1C110.6,55.7,110.5,55.9,110.4,55.8L110.4,55.8z M109.8,55.5
			c0.2,0,0.5,0.1,0.6,0.3c0.1,0,0.3-0.3,0.5-0.6c0.2-0.3,0.6-0.7,0.8-1c0.1-0.1,0.1-0.2,0.1-0.3c0-0.1-0.1-0.2-0.2-0.2
			c-0.2-0.1-0.5-0.2-0.7-0.2l0,0C110.4,54,110,54.7,109.8,55.5z"/>
		<path class="st51" d="M110.9,56.8c0-0.2-0.1-0.5-0.3-0.6c0.6-0.3,1.6-0.8,1.8-0.7c0.2,0.2,0.2,0.1,0.3,0.4c0.1,0.2,0,0.4-0.2,0.5
			c0,0-0.1,0-0.1,0c-0.5,0.1-0.9,0.3-1.3,0.5L110.9,56.8z"/>
		<path class="st52" d="M111,56.9l-0.2-0.1l0,0c0-0.2-0.1-0.4-0.2-0.6l0,0l0,0l0.2-0.1c0.6-0.3,1.4-0.7,1.6-0.5l0,0
			c0.1,0.1,0.2,0.1,0.3,0.4c0.1,0.1,0.1,0.2,0,0.3c-0.1,0.1-0.2,0.2-0.3,0.2C111.9,56.6,111.4,56.7,111,56.9L111,56.9z M110.9,56.8
			l0.1,0.1c0.4-0.2,0.9-0.4,1.3-0.5c0.1,0,0.2-0.1,0.3-0.2c0-0.1,0-0.2,0-0.3c-0.1-0.3-0.1-0.3-0.2-0.4l0,0c-0.2-0.1-1,0.3-1.5,0.6
			l-0.2,0.1C110.8,56.3,110.9,56.5,110.9,56.8z"/>
		<path class="st45" d="M110.6,56.1c0.6-0.3,1.5-1,1.7-0.8c0.1,0.1,0.3,0.2,0.3,0.4c0.1,0.2,0,0.4-0.2,0.5c0,0,0,0-0.1,0
			c-0.5,0.2-1,0.3-1.4,0.6C110.9,56.5,110.8,56.3,110.6,56.1L110.6,56.1z"/>
		<path class="st52" d="M110.8,56.8L110.8,56.8c0-0.2-0.1-0.5-0.2-0.6l0,0l0,0c0.2-0.1,0.4-0.2,0.7-0.4c0.5-0.3,0.9-0.5,1-0.4h0.1
			c0.1,0.1,0.2,0.2,0.2,0.3c0.1,0.1,0.1,0.2,0,0.3c-0.1,0.1-0.2,0.2-0.3,0.2c-0.4,0.1-0.8,0.3-1.2,0.5
			C111,56.8,110.9,56.8,110.8,56.8z M110.6,56.1c0.2,0.2,0.2,0.4,0.2,0.6l0.2-0.1c0.4-0.2,0.8-0.4,1.2-0.5c0.1,0,0.2-0.1,0.3-0.2
			c0-0.1,0-0.2,0-0.3c0-0.1-0.1-0.2-0.2-0.3h-0.1c-0.1-0.1-0.6,0.2-1,0.4L110.6,56.1z"/>
		<path class="st51" d="M108.1,55.9l0.4-0.2l0.1-0.2c0-0.2-0.8-1.5-1.1-1.4c-0.3,0.2-0.6,0.5-0.6,0.6s0,0.2,0,0.2
			C107.4,55.2,107.7,55.5,108.1,55.9L108.1,55.9z"/>
		<path class="st52" d="M108.1,55.9c-0.4-0.3-0.8-0.6-1.1-1l0,0c0-0.1,0-0.1,0-0.2c0-0.1,0.3-0.5,0.6-0.6c0.1,0,0.1,0,0.2,0
			c0.4,0.4,0.7,0.8,0.9,1.3l-0.1,0.2l0,0L108.1,55.9L108.1,55.9L108.1,55.9z M107,54.9c0.3,0.4,0.7,0.7,1.1,1l0.4-0.2
			c0-0.1,0.1-0.1,0.1-0.2c-0.2-0.5-0.5-0.9-0.8-1.3c-0.1,0-0.2-0.1-0.2-0.1c-0.3,0.2-0.6,0.5-0.5,0.6C107,54.8,107,54.8,107,54.9
			L107,54.9z"/>
		<path class="st45" d="M108.1,56.1c0.1-0.1,0.1-0.2,0.2-0.3c0.1-0.1,0.2-0.1,0.3-0.2c0.2-0.1-0.8-1.5-1.1-1.4
			c-0.3,0.2-0.5,0.5-0.5,0.6C107.4,55.3,107.7,55.7,108.1,56.1L108.1,56.1z"/>
		<path class="st52" d="M108.1,56.1L108.1,56.1c-0.4-0.3-0.8-0.7-1.1-1.2c0-0.1,0.2-0.5,0.5-0.6c0.1,0,0.1,0,0.2,0
			c0.4,0.3,0.8,0.8,0.9,1.3v0.1l0,0c-0.1,0-0.2,0.1-0.2,0.1C108.3,55.8,108.2,55.9,108.1,56.1L108.1,56.1z M107.6,54.3L107.6,54.3
			c-0.3,0.2-0.6,0.5-0.5,0.6c0.3,0.4,0.6,0.8,1,1.2c0.1-0.1,0.1-0.2,0.2-0.3l0.2-0.1l0,0l0,0C108.3,55.1,108,54.7,107.6,54.3
			L107.6,54.3z"/>
		<path class="st45" d="M109.7,56.9c0.1,0.3,0,0.6-0.3,0.7s-0.6,0-0.7-0.3c-0.1-0.3,0-0.5,0.2-0.7C109.2,56.5,109.5,56.6,109.7,56.9
			L109.7,56.9z"/>
		<path class="st52" d="M109.2,57.8c-0.1,0-0.1,0-0.2,0c-0.2-0.1-0.3-0.2-0.4-0.3c-0.2-0.3-0.1-0.7,0.2-0.9c0,0,0,0,0,0
			c0.2-0.1,0.3-0.1,0.5,0c0.2,0.1,0.3,0.2,0.4,0.3l0,0c0.2,0.3,0.1,0.7-0.2,0.9C109.4,57.8,109.3,57.8,109.2,57.8z M109.1,56.6
			c-0.1,0-0.1,0-0.2,0c-0.2,0.1-0.3,0.4-0.2,0.7c0,0,0,0,0,0c0.1,0.1,0.2,0.2,0.3,0.3c0.1,0.1,0.2,0.1,0.4,0
			c0.2-0.1,0.3-0.4,0.2-0.7l0,0c-0.1-0.1-0.2-0.2-0.3-0.3C109.2,56.6,109.2,56.6,109.1,56.6z"/>
		<path class="st60" d="M100.8,63.9L95,64c-0.2,0-0.4,0.2-0.4,0.4c0,0,0,0,0,0l0.2,3.4c0,0.2,0.2,0.4,0.4,0.4l5.8-0.1
			c0.2,0,0.4-0.2,0.4-0.4c0,0,0,0,0,0l-0.2-3.4C101.2,64.1,101,63.9,100.8,63.9L100.8,63.9z"/>
		<path class="st61" d="M100.9,64.1h-5.8c-0.2,0-0.3,0.2-0.3,0.3c0,0,0,0,0,0l0.2,3.5c0,0.2,0.2,0.3,0.3,0.3h5.8
			c0.2,0,0.3-0.2,0.3-0.3c0,0,0,0,0,0l-0.2-3.4C101.2,64.3,101.1,64.1,100.9,64.1L100.9,64.1z"/>
		<path class="st62" d="M97.2,65.9l3.6-0.1c0.1,0,0.2-0.1,0.2-0.2c0,0,0,0,0,0l-0.1-1c0-0.1-0.1-0.2-0.2-0.2l-3.6,0.1
			c-0.1,0-0.2,0.1-0.2,0.2l0.1,1C97,65.8,97.1,65.9,97.2,65.9C97.2,65.9,97.2,65.9,97.2,65.9L97.2,65.9z"/>
		<path class="st63" d="M99.7,65.1c-0.1,0.2,0.1,0.5,0.3,0.5c0.2,0.1,0.5-0.1,0.5-0.3c0-0.1,0-0.2,0-0.2c0.1-0.2-0.1-0.5-0.3-0.5
			c-0.2-0.1-0.5,0.1-0.5,0.3C99.7,65,99.7,65.1,99.7,65.1L99.7,65.1z"/>
		<path class="st64" d="M98.5,65.1c-0.1,0.2,0.1,0.5,0.3,0.5c0.2,0.1,0.5-0.1,0.5-0.3c0-0.1,0-0.2,0-0.2c0.1-0.2-0.1-0.5-0.3-0.5
			c-0.2-0.1-0.5,0.1-0.5,0.3C98.4,65,98.4,65.1,98.5,65.1L98.5,65.1z"/>
		<path class="st65" d="M97.2,65.2c0,0.3,0.2,0.5,0.4,0.5c0.3-0.1,0.4-0.4,0.3-0.7c-0.1-0.2-0.2-0.3-0.3-0.3
			C97.4,64.7,97.2,65,97.2,65.2C97.3,65.2,97.3,65.2,97.2,65.2L97.2,65.2z"/>
		<path class="st66" d="M97.9,66.7h2.8c0.1,0,0.2-0.1,0.2-0.3c0-0.1-0.1-0.2-0.2-0.2h-2.8c-0.1,0-0.2,0.1-0.2,0.2c0,0,0,0,0,0
			C97.7,66.6,97.8,66.7,97.9,66.7C98,66.7,98,66.7,97.9,66.7L97.9,66.7z"/>
		<path class="st67" d="M99.6,68.1h1.2c0.1,0,0.2-0.1,0.2-0.2c0,0,0,0,0,0c0-0.1-0.1-0.2-0.2-0.2c0,0,0,0,0,0h-1.2
			c-0.1,0-0.2,0.1-0.2,0.2C99.4,68,99.5,68.1,99.6,68.1L99.6,68.1z"/>
		<path class="st67" d="M99.6,67.5h1.2c0.1,0,0.2-0.1,0.2-0.2c0-0.1-0.1-0.2-0.2-0.2c0,0,0,0,0,0h-1.2c-0.1,0-0.2,0.1-0.3,0.2
			c0,0.1,0.1,0.2,0.2,0.3C99.5,67.5,99.5,67.5,99.6,67.5L99.6,67.5z"/>
		<polygon class="st68" points="96.5,64.5 94.8,64.5 95,68 96.8,68 		"/>
		<g>
			<defs>
				<path id="SVGID_1_" d="M95.1,64.7c-0.1,0-0.2,0.1-0.2,0.2c0,0.1,0.1,0.2,0.2,0.2c0.1,0,0.2-0.1,0.2-0.2
					C95.3,64.7,95.2,64.7,95.1,64.7L95.1,64.7"/>
			</defs>
			<clipPath id="SVGID_2_">
				<use xlink:href="#SVGID_1_"  style="overflow:visible;"/>
			</clipPath>
			<g class="st69">
				<g>
					<defs>
						
							<rect id="SVGID_3_" x="94.8" y="64.6" transform="matrix(0.6039 -0.7971 0.7971 0.6039 -14.0373 101.4974)" width="0.6" height="0.6"/>
					</defs>
					<clipPath id="SVGID_4_">
						<use xlink:href="#SVGID_3_"  style="overflow:visible;"/>
					</clipPath>
					<g class="st70">
						<rect x="94.7" y="64.5" class="st45" width="0.8" height="0.8"/>
						<path class="st45" d="M94.9,65.1c-0.1-0.1-0.2-0.3-0.1-0.4c0.1-0.1,0.3-0.2,0.4-0.1s0.2,0.3,0.1,0.4
							C95.2,65.1,95,65.2,94.9,65.1z"/>
						<path class="st45" d="M94.9,65.1c-0.1-0.1-0.1-0.3-0.1-0.4c0.1-0.1,0.3-0.1,0.4-0.1c0.1,0.1,0.1,0.3,0.1,0.4
							C95.2,65.1,95,65.2,94.9,65.1z"/>
						<path class="st71" d="M94.9,65.1c-0.1-0.1-0.1-0.3,0-0.4c0.1-0.1,0.2-0.1,0.4-0.1c0,0,0,0,0,0c0.1,0.1,0.1,0.3,0.1,0.4
							C95.3,65.1,95.1,65.2,94.9,65.1L94.9,65.1z"/>
						<path class="st72" d="M94.9,65.1c-0.1-0.1-0.1-0.3-0.1-0.4c0.1-0.1,0.3-0.1,0.4,0c0.1,0.1,0.1,0.3,0,0.4c0,0,0,0,0,0
							C95.2,65.1,95,65.1,94.9,65.1z"/>
						<path class="st72" d="M94.9,65.1c-0.1-0.1-0.1-0.3,0-0.4c0.1-0.1,0.3-0.1,0.4,0s0.1,0.3,0,0.4c0,0,0,0,0,0
							C95.2,65.1,95,65.1,94.9,65.1z"/>
						<path class="st73" d="M94.9,65c-0.1-0.1-0.1-0.2,0-0.3c0.1-0.1,0.2-0.1,0.3,0c0.1,0.1,0.1,0.2,0,0.3
							C95.2,65.1,95,65.1,94.9,65C94.9,65,94.9,65,94.9,65z"/>
						<path class="st74" d="M94.9,65c-0.1-0.1-0.1-0.3,0-0.3c0.1-0.1,0.2-0.1,0.3,0c0.1,0.1,0.2,0.2,0.1,0.3
							C95.3,65.1,95.1,65.1,94.9,65C95,65.1,95,65.1,94.9,65z"/>
						<path class="st75" d="M95,65c-0.1-0.1-0.1-0.2,0-0.3c0.1-0.1,0.2-0.1,0.3-0.1c0.1,0.1,0.1,0.2,0,0.3
							C95.2,65.1,95.1,65.1,95,65C95,65,95,65,95,65z"/>
						<path class="st76" d="M95,65c-0.1-0.1-0.1-0.2,0-0.3s0.2-0.1,0.3,0c0.1,0.1,0.1,0.2,0,0.3C95.2,65,95,65.1,95,65z"/>
						<path class="st77" d="M95,65c-0.1-0.1-0.1-0.2,0-0.3c0.1-0.1,0.2-0.1,0.3,0s0.1,0.2,0,0.3c0,0,0,0,0,0
							C95.2,65.1,95.1,65.1,95,65z"/>
						<path class="st78" d="M95,65c-0.1-0.1-0.1-0.2,0-0.3c0.1-0.1,0.2-0.1,0.3,0c0,0,0,0,0,0c0.1,0.1,0.1,0.2,0,0.3
							C95.2,65.1,95.1,65.1,95,65L95,65z"/>
						<path class="st79" d="M95,65c-0.1-0.1-0.1-0.2,0-0.3c0.1-0.1,0.2-0.1,0.3,0c0.1,0.1,0.1,0.2,0,0.3c0,0,0,0,0,0
							C95.2,65.1,95.1,65.1,95,65C95,65,95,65,95,65z"/>
						<path class="st80" d="M95,65c-0.1-0.1-0.1-0.2,0-0.3c0.1-0.1,0.2-0.1,0.2,0c0.1,0.1,0.1,0.2,0,0.3C95.2,65,95.1,65.1,95,65
							L95,65z"/>
						<path class="st81" d="M95,65c-0.1-0.1-0.1-0.2,0-0.2c0.1-0.1,0.2-0.1,0.2,0c0.1,0.1,0.1,0.2,0,0.2c0,0,0,0,0,0
							C95.2,65,95.1,65,95,65z"/>
						<path class="st82" d="M95,65c-0.1-0.1-0.1-0.2,0-0.2c0.1-0.1,0.2-0.1,0.2,0c0.1,0.1,0.1,0.2,0,0.2c0,0,0,0,0,0
							C95.2,65,95.1,65,95,65z"/>
						<path class="st83" d="M95,65c-0.1-0.1-0.1-0.1,0-0.2c0.1-0.1,0.2-0.1,0.2,0c0.1,0.1,0.1,0.1,0,0.2S95.1,65,95,65L95,65z"/>
						<path class="st84" d="M95,65c-0.1,0-0.1-0.1,0-0.2s0.1-0.1,0.2,0l0,0c0.1,0,0.1,0.1,0,0.2S95.1,65,95,65z"/>
						<path class="st85" d="M95,65c0-0.1,0-0.1,0-0.2c0-0.1,0.1-0.1,0.2,0s0.1,0.1,0,0.2C95.2,65,95.1,65,95,65C95,65,95,65,95,65z"
							/>
						<path class="st86" d="M95,64.9c0,0,0-0.1,0-0.2c0,0,0,0,0,0c0,0,0.1-0.1,0.2,0c0,0,0,0,0,0c0,0,0,0.1,0,0.2c0,0,0,0,0,0
							C95.1,65,95.1,65,95,64.9C95,64.9,95,64.9,95,64.9z"/>
						<path class="st87" d="M95,64.9c0,0,0-0.1,0-0.2c0,0,0.1-0.1,0.2,0c0,0,0.1,0.1,0,0.2l0,0C95.2,65,95.1,65,95,64.9
							C95.1,65,95,64.9,95,64.9z"/>
						<path class="st88" d="M95,64.9c0,0,0-0.1,0-0.2c0,0,0.1,0,0.2,0c0,0,0,0.1,0,0.2C95.1,65,95.1,65,95,64.9z"/>
						<path class="st89" d="M95,64.9c0,0,0-0.1,0-0.1c0,0,0,0,0,0c0,0,0.1,0,0.1,0c0,0,0,0,0,0c0,0,0.1,0.1,0,0.1
							C95.2,65,95.1,65,95,64.9L95,64.9z"/>
						<path class="st90" d="M95,64.9c0,0,0-0.1,0-0.1c0,0,0.1,0,0.1,0c0,0,0,0,0,0c0,0,0,0.1,0,0.1C95.1,64.9,95.1,64.9,95,64.9
							C95,64.9,95,64.9,95,64.9z"/>
						<path class="st91" d="M95,64.9C95,64.9,95,64.8,95,64.9c0-0.1,0.1-0.1,0.1-0.1c0,0,0,0.1,0,0.1C95.1,64.9,95.1,64.9,95,64.9
							C95.1,64.9,95.1,64.9,95,64.9z"/>
						<path class="st58" d="M95,64.9C95,64.9,95,64.8,95,64.9c0-0.1,0.1-0.1,0.1-0.1C95.1,64.8,95.1,64.8,95,64.9
							C95.2,64.8,95.2,64.9,95,64.9C95.1,64.9,95.1,64.9,95,64.9z"/>
						<path class="st58" d="M95.1,64.9C95,64.9,95,64.8,95.1,64.9C95.1,64.8,95.1,64.8,95.1,64.9C95.1,64.8,95.1,64.8,95.1,64.9
							c0.1-0.1,0.1,0,0.1,0C95.2,64.9,95.1,64.9,95.1,64.9C95.1,64.9,95.1,64.9,95.1,64.9L95.1,64.9z"/>
						<path class="st58" d="M95.1,64.9L95.1,64.9L95.1,64.9L95.1,64.9C95.1,64.9,95.1,64.9,95.1,64.9z"/>
					</g>
				</g>
			</g>
		</g>
		<path class="st26" d="M95.1,65.1c0,0-0.1,0-0.1,0c0,0-0.1-0.1-0.1-0.2l0,0c0-0.1,0.1-0.2,0.2-0.2l0,0c0.1,0,0.2,0.1,0.2,0.3
			C95.3,65.1,95.2,65.1,95.1,65.1L95.1,65.1z M95.1,64.7L95.1,64.7c-0.1,0-0.2,0.1-0.2,0.2l0,0c0,0.1,0,0.1,0.1,0.2c0,0,0.1,0,0.1,0
			c0.1,0,0.2-0.1,0.2-0.2c0,0,0,0,0,0C95.3,64.7,95.2,64.7,95.1,64.7z"/>
		<path class="st26" d="M95.1,65.1c0-0.1,0-0.3,0-0.4l0,0C95.1,64.8,95.1,64.9,95.1,65.1L95.1,65.1z"/>
		<path class="st26" d="M95,64.9h-0.1l0,0c0.1,0,0.2,0,0.4,0l0,0C95.2,64.9,95.1,64.9,95,64.9z"/>
		<g>
			<defs>
				<path id="SVGID_5_" d="M96.5,67.5c-0.1,0-0.2,0.1-0.2,0.2c0,0.1,0,0.2,0.1,0.2c0.1,0,0.2,0,0.2-0.1c0,0,0-0.1,0-0.1
					C96.7,67.6,96.6,67.5,96.5,67.5L96.5,67.5"/>
			</defs>
			<clipPath id="SVGID_6_">
				<use xlink:href="#SVGID_5_"  style="overflow:visible;"/>
			</clipPath>
			<g class="st92">
				<g>
					<defs>
						
							<rect id="SVGID_7_" x="96.2" y="67.4" transform="matrix(0.6039 -0.7971 0.7971 0.6039 -15.7259 103.6973)" width="0.6" height="0.6"/>
					</defs>
					<clipPath id="SVGID_8_">
						<use xlink:href="#SVGID_7_"  style="overflow:visible;"/>
					</clipPath>
					<g class="st93">
						<rect x="96.1" y="67.3" class="st45" width="0.8" height="0.8"/>
						<path class="st45" d="M96.3,67.9c-0.1-0.1-0.2-0.3-0.1-0.4c0.1-0.1,0.3-0.2,0.4-0.1l0,0c0.1,0.1,0.2,0.3,0.1,0.4
							C96.6,67.9,96.4,68,96.3,67.9z"/>
						<path class="st45" d="M96.3,67.9c-0.1-0.1-0.1-0.3,0-0.4c0.1-0.1,0.3-0.1,0.4,0c0.1,0.1,0.2,0.3,0.1,0.4
							C96.6,68,96.5,68,96.3,67.9C96.3,67.9,96.3,67.9,96.3,67.9z"/>
						<path class="st71" d="M96.3,67.9c-0.1-0.1-0.1-0.3,0-0.4c0.1-0.1,0.3-0.1,0.4,0s0.1,0.3,0,0.4c0,0,0,0,0,0
							C96.6,68,96.4,68,96.3,67.9z"/>
						<path class="st72" d="M96.3,67.9c-0.1-0.1-0.1-0.2-0.1-0.4c0.1-0.1,0.3-0.1,0.4-0.1c0.1,0.1,0.1,0.2,0.1,0.4c0,0,0,0,0,0
							C96.6,67.9,96.4,67.9,96.3,67.9C96.3,67.9,96.3,67.9,96.3,67.9z"/>
						<path class="st72" d="M96.3,67.9c-0.1-0.1-0.1-0.2-0.1-0.4c0.1-0.1,0.2-0.1,0.4-0.1c0.1,0.1,0.1,0.2,0.1,0.4c0,0,0,0,0,0
							C96.6,67.9,96.4,67.9,96.3,67.9z"/>
						<path class="st73" d="M96.3,67.8c-0.1-0.1-0.1-0.2,0-0.3c0.1-0.1,0.2-0.1,0.3,0c0.1,0.1,0.1,0.2,0,0.3
							C96.6,67.9,96.4,67.9,96.3,67.8C96.3,67.8,96.3,67.8,96.3,67.8z"/>
						<path class="st74" d="M96.3,67.8c-0.1-0.1-0.1-0.2,0-0.3c0.1-0.1,0.2-0.1,0.3,0s0.1,0.2,0,0.3c0,0,0,0,0,0
							C96.6,67.9,96.4,67.9,96.3,67.8z"/>
						<path class="st75" d="M96.3,67.8c-0.1-0.1-0.1-0.2,0-0.3c0.1-0.1,0.2-0.1,0.3,0c0.1,0.1,0.1,0.2,0,0.3
							C96.6,67.9,96.4,67.9,96.3,67.8C96.3,67.8,96.3,67.8,96.3,67.8z"/>
						<path class="st76" d="M96.3,67.8c-0.1-0.1-0.1-0.2,0-0.3c0.1-0.1,0.2-0.1,0.3,0c0.1,0.1,0.1,0.2,0,0.3c0,0,0,0,0,0
							C96.6,67.9,96.4,67.9,96.3,67.8z"/>
						<path class="st77" d="M96.3,67.8c-0.1-0.1-0.1-0.2,0-0.3c0.1-0.1,0.2-0.1,0.3,0s0.1,0.2,0,0.3c0,0,0,0,0,0
							C96.5,67.9,96.4,67.9,96.3,67.8z"/>
						<path class="st78" d="M96.3,67.8c-0.1-0.1-0.1-0.2,0-0.3c0,0,0,0,0,0c0.1-0.1,0.2-0.1,0.3,0s0.1,0.2,0,0.3l0,0
							C96.6,67.9,96.5,67.9,96.3,67.8C96.4,67.8,96.4,67.8,96.3,67.8z"/>
						<path class="st79" d="M96.3,67.8c-0.1-0.1-0.1-0.2,0-0.3c0.1-0.1,0.2-0.1,0.3,0c0.1,0.1,0.1,0.2,0,0.3c0,0,0,0,0,0
							C96.6,67.9,96.4,67.9,96.3,67.8C96.4,67.8,96.4,67.8,96.3,67.8z"/>
						<path class="st80" d="M96.4,67.8c-0.1-0.1-0.1-0.2,0-0.3c0.1-0.1,0.2-0.1,0.3,0c0.1,0.1,0.1,0.2,0,0.3c0,0,0,0,0,0
							C96.5,67.9,96.4,67.9,96.4,67.8z"/>
						<path class="st81" d="M96.4,67.8c-0.1-0.1-0.1-0.2,0-0.2c0.1-0.1,0.2-0.1,0.2,0c0.1,0.1,0.1,0.2,0,0.2c0,0,0,0,0,0
							C96.5,67.8,96.4,67.8,96.4,67.8z"/>
						<path class="st82" d="M96.4,67.8c-0.1-0.1-0.1-0.2,0-0.2c0.1-0.1,0.2-0.1,0.2,0c0.1,0.1,0.1,0.2,0,0.2c0,0,0,0,0,0
							C96.5,67.8,96.4,67.8,96.4,67.8C96.4,67.8,96.4,67.8,96.4,67.8z"/>
						<path class="st83" d="M96.4,67.8c-0.1-0.1-0.1-0.1,0-0.2c0.1-0.1,0.1-0.1,0.2,0c0.1,0.1,0.1,0.1,0,0.2
							C96.6,67.8,96.5,67.8,96.4,67.8C96.4,67.8,96.4,67.8,96.4,67.8z"/>
						<path class="st84" d="M96.4,67.8c-0.1,0-0.1-0.1,0-0.2s0.1-0.1,0.2,0l0,0c0.1,0,0.1,0.1,0,0.2S96.4,67.8,96.4,67.8z"/>
						<path class="st85" d="M96.4,67.8c0-0.1,0-0.1,0-0.2c0.1,0,0.1,0,0.2,0c0,0.1,0,0.1,0,0.2C96.5,67.8,96.4,67.8,96.4,67.8z"/>
						<path class="st86" d="M96.4,67.7c0,0,0-0.1,0-0.2c0,0,0,0,0,0c0-0.1,0.1-0.1,0.2,0c0.1,0,0.1,0.1,0,0.2
							C96.5,67.8,96.5,67.8,96.4,67.7C96.4,67.8,96.4,67.7,96.4,67.7z"/>
						<path class="st87" d="M96.4,67.7c0,0,0-0.1,0-0.2c0,0,0.1,0,0.2,0c0,0,0,0.1,0,0.2c0,0,0,0,0,0C96.5,67.8,96.5,67.8,96.4,67.7
							C96.4,67.7,96.4,67.7,96.4,67.7z"/>
						<path class="st88" d="M96.4,67.7c0,0,0-0.1,0-0.2c0,0,0.1,0,0.2,0s0,0.1,0,0.2c0,0,0,0,0,0C96.5,67.8,96.4,67.8,96.4,67.7z"/>
						<path class="st89" d="M96.4,67.7c0,0,0-0.1,0-0.1c0,0,0.1,0,0.1,0c0,0,0,0.1,0,0.1C96.5,67.8,96.4,67.8,96.4,67.7
							C96.4,67.7,96.4,67.7,96.4,67.7z"/>
						<path class="st90" d="M96.4,67.7c0,0,0-0.1,0-0.1c0,0,0.1,0,0.1,0C96.6,67.6,96.5,67.7,96.4,67.7
							C96.5,67.7,96.4,67.7,96.4,67.7L96.4,67.7z"/>
						<path class="st91" d="M96.4,67.7C96.4,67.7,96.4,67.6,96.4,67.7c0-0.1,0.1-0.1,0.1-0.1c0,0,0,0.1,0,0.1
							C96.5,67.7,96.5,67.7,96.4,67.7C96.4,67.7,96.4,67.7,96.4,67.7z"/>
						<path class="st58" d="M96.4,67.7C96.4,67.7,96.4,67.6,96.4,67.7C96.4,67.6,96.5,67.6,96.4,67.7C96.5,67.6,96.5,67.7,96.4,67.7
							C96.5,67.7,96.4,67.7,96.4,67.7z"/>
						<path class="st58" d="M96.4,67.7C96.4,67.7,96.4,67.6,96.4,67.7C96.4,67.6,96.4,67.6,96.4,67.7C96.5,67.6,96.5,67.6,96.4,67.7
							C96.5,67.6,96.5,67.7,96.4,67.7C96.5,67.7,96.5,67.7,96.4,67.7C96.4,67.7,96.4,67.7,96.4,67.7z"/>
						<path class="st58" d="M96.4,67.6L96.4,67.6C96.4,67.6,96.5,67.7,96.4,67.6L96.4,67.6z"/>
					</g>
				</g>
			</g>
		</g>
		<path class="st26" d="M96.5,67.9c0,0-0.1,0-0.1-0.1c0,0-0.1-0.1-0.1-0.2l0,0c0-0.1,0-0.1,0-0.2c0,0,0.1-0.1,0.1-0.1
			c0.1,0,0.1,0,0.1,0.1c0,0,0.1,0.1,0.1,0.2C96.6,67.8,96.6,67.9,96.5,67.9C96.5,67.9,96.4,67.9,96.5,67.9L96.5,67.9z M96.5,67.5
			L96.5,67.5c0,0-0.1,0-0.1,0.1c0,0,0,0.1,0,0.2l0,0c0,0.1,0,0.1,0.1,0.1c0,0,0.1,0,0.1,0c0.1,0,0.2-0.1,0.2-0.2c0,0,0,0,0,0
			c0-0.1,0-0.1-0.1-0.2C96.6,67.4,96.5,67.4,96.5,67.5L96.5,67.5z"/>
		<path class="st26" d="M96.5,67.9c-0.1-0.1-0.1-0.3-0.1-0.4l0,0C96.4,67.6,96.4,67.7,96.5,67.9L96.5,67.9z"/>
		<path class="st26" d="M96.4,67.7h-0.1l0,0c0.1,0,0.2,0,0.4,0l0,0C96.6,67.7,96.5,67.7,96.4,67.7z"/>
		<g>
			<defs>
				<path id="SVGID_9_" d="M95.2,67.5c-0.1,0-0.2,0.1-0.2,0.2c0,0.1,0.1,0.2,0.2,0.2c0.1,0,0.2-0.1,0.2-0.3
					C95.4,67.6,95.4,67.5,95.2,67.5L95.2,67.5"/>
			</defs>
			<clipPath id="SVGID_10_">
				<use xlink:href="#SVGID_9_"  style="overflow:visible;"/>
			</clipPath>
			<g class="st94">
				<g>
					<defs>
						
							<rect id="SVGID_11_" x="95" y="67.4" transform="matrix(0.6038 -0.7972 0.7972 0.6038 -16.2007 102.7448)" width="0.6" height="0.6"/>
					</defs>
					<clipPath id="SVGID_12_">
						<use xlink:href="#SVGID_11_"  style="overflow:visible;"/>
					</clipPath>
					<g class="st95">
						<rect x="94.9" y="67.3" class="st45" width="0.8" height="0.8"/>
						<path class="st45" d="M95.1,67.9c-0.1-0.1-0.1-0.3,0-0.4c0.1-0.1,0.3-0.2,0.4-0.1c0,0,0,0,0,0c0.1,0.1,0.2,0.3,0.1,0.4
							c0,0,0,0,0,0C95.4,68,95.3,68,95.1,67.9C95.1,67.9,95.1,67.9,95.1,67.9z"/>
						<path class="st45" d="M95.1,67.9c-0.1-0.1-0.1-0.3-0.1-0.4c0.1-0.1,0.3-0.1,0.4-0.1l0,0c0.1,0.1,0.1,0.3,0.1,0.4
							C95.4,67.9,95.3,68,95.1,67.9z"/>
						<path class="st71" d="M95.1,67.9c-0.1-0.1-0.1-0.3,0-0.4c0.1-0.1,0.3-0.1,0.4,0c0.1,0.1,0.1,0.3,0,0.4
							C95.4,68,95.2,68,95.1,67.9z"/>
						<path class="st72" d="M95.1,67.9c-0.1-0.1-0.1-0.3,0-0.4c0,0,0,0,0,0c0.1-0.1,0.3-0.1,0.4-0.1c0.1,0.1,0.1,0.3,0,0.4
							C95.4,67.9,95.3,68,95.1,67.9C95.1,67.9,95.1,67.9,95.1,67.9z"/>
						<path class="st72" d="M95.1,67.9c-0.1-0.1-0.1-0.3,0-0.4c0.1-0.1,0.2-0.1,0.3,0c0.1,0.1,0.1,0.3,0,0.4
							C95.4,67.9,95.2,67.9,95.1,67.9z"/>
						<path class="st73" d="M95.1,67.9c-0.1-0.1-0.1-0.2,0-0.3c0,0,0,0,0,0c0.1-0.1,0.3-0.1,0.3,0c0.1,0.1,0.1,0.3,0,0.4
							C95.4,67.9,95.3,67.9,95.1,67.9L95.1,67.9z"/>
						<path class="st74" d="M95.1,67.8c-0.1-0.1-0.1-0.2,0-0.3c0,0,0,0,0,0c0.1-0.1,0.2-0.1,0.3,0c0.1,0.1,0.1,0.2,0,0.3
							C95.4,67.9,95.2,67.9,95.1,67.8z"/>
						<path class="st75" d="M95.1,67.8c-0.1-0.1-0.1-0.2,0-0.3c0,0,0,0,0,0c0.1-0.1,0.2-0.1,0.3,0c0.1,0.1,0.1,0.2,0,0.3
							C95.3,67.9,95.2,67.9,95.1,67.8z"/>
						<path class="st76" d="M95.1,67.8c-0.1-0.1-0.1-0.2,0-0.3c0,0,0,0,0,0c0.1-0.1,0.2-0.1,0.3,0s0.1,0.2,0,0.3
							C95.4,67.9,95.3,67.9,95.1,67.8C95.2,67.9,95.1,67.8,95.1,67.8z"/>
						<path class="st77" d="M95.1,67.8c-0.1-0.1-0.1-0.2,0-0.3c0.1-0.1,0.2-0.1,0.3,0c0.1,0.1,0.1,0.2,0,0.3c0,0,0,0,0,0
							C95.3,67.9,95.2,67.9,95.1,67.8z"/>
						<path class="st78" d="M95.1,67.8c-0.1-0.1-0.1-0.2,0-0.3c0,0,0,0,0,0c0.1-0.1,0.2-0.1,0.3,0s0.1,0.2,0,0.3
							C95.4,67.9,95.3,67.9,95.1,67.8C95.2,67.8,95.1,67.8,95.1,67.8z"/>
						<path class="st79" d="M95.1,67.8c-0.1-0.1-0.1-0.2,0-0.3c0.1-0.1,0.2-0.1,0.2,0c0.1,0.1,0.1,0.2,0,0.3c0,0,0,0,0,0
							C95.3,67.8,95.2,67.8,95.1,67.8z"/>
						<path class="st80" d="M95.1,67.8c-0.1-0.1-0.1-0.2,0-0.3c0.1-0.1,0.2-0.1,0.3,0c0.1,0.1,0.1,0.2,0,0.3c0,0,0,0,0,0
							C95.3,67.9,95.2,67.9,95.1,67.8z"/>
						<path class="st81" d="M95.1,67.8c-0.1,0-0.1-0.1-0.1-0.2s0.1-0.1,0.2-0.1c0,0,0,0,0,0c0.1,0.1,0.1,0.2,0,0.2c0,0,0,0,0,0
							C95.3,67.8,95.2,67.8,95.1,67.8z"/>
						<path class="st82" d="M95.1,67.8c-0.1-0.1-0.1-0.2,0-0.2c0.1-0.1,0.2-0.1,0.2,0c0,0,0,0,0,0c0.1,0.1,0.1,0.2,0,0.2
							C95.3,67.8,95.2,67.8,95.1,67.8z"/>
						<path class="st83" d="M95.1,67.8c-0.1-0.1-0.1-0.2,0-0.2c0.1-0.1,0.1-0.1,0.2,0c0.1,0,0.1,0.1,0,0.2S95.2,67.8,95.1,67.8
							L95.1,67.8L95.1,67.8z"/>
						<path class="st84" d="M95.1,67.8c-0.1-0.1-0.1-0.1,0-0.2c0,0,0,0,0,0c0-0.1,0.1-0.1,0.2,0c0,0,0,0,0,0c0.1,0.1,0.1,0.1,0,0.2
							c0,0,0,0,0,0C95.3,67.8,95.2,67.8,95.1,67.8z"/>
						<path class="st85" d="M95.1,67.8c0-0.1,0-0.1,0-0.2c0.1,0,0.1,0,0.2,0c0,0,0.1,0.1,0,0.2c0,0,0,0,0,0
							C95.3,67.8,95.2,67.8,95.1,67.8C95.1,67.8,95.1,67.8,95.1,67.8z"/>
						<path class="st86" d="M95.1,67.8c-0.1,0-0.1-0.1,0-0.2s0.1-0.1,0.2,0c0,0,0,0.1,0,0.2c0,0,0,0,0,0
							C95.2,67.8,95.2,67.8,95.1,67.8z"/>
						<path class="st87" d="M95.2,67.7c0,0,0-0.1,0-0.1c0,0,0,0,0,0c0,0,0.1,0,0.2,0c0,0,0.1,0.1,0,0.2
							C95.3,67.8,95.2,67.8,95.2,67.7L95.2,67.7z"/>
						<path class="st88" d="M95.2,67.7c0,0,0-0.1,0-0.1c0,0,0,0,0,0c0,0,0.1,0,0.1,0c0,0,0,0.1,0,0.1c0,0,0,0,0,0
							C95.3,67.8,95.2,67.8,95.2,67.7z"/>
						<path class="st89" d="M95.2,67.7c0,0,0-0.1,0-0.1c0,0,0,0,0,0c0,0,0.1,0,0.1,0c0,0,0,0.1,0,0.1c0,0,0,0,0,0
							C95.3,67.8,95.2,67.8,95.2,67.7C95.2,67.7,95.2,67.7,95.2,67.7z"/>
						<path class="st90" d="M95.2,67.7c0,0,0-0.1,0-0.1c0,0,0,0,0,0c0,0,0.1,0,0.1,0c0,0,0,0,0,0c0,0,0,0.1,0,0.1
							C95.3,67.8,95.2,67.8,95.2,67.7z"/>
						<path class="st91" d="M95.2,67.7C95.2,67.7,95.2,67.6,95.2,67.7C95.2,67.6,95.2,67.6,95.2,67.7c0-0.1,0.1-0.1,0.1-0.1
							C95.3,67.6,95.3,67.6,95.2,67.7C95.3,67.6,95.3,67.7,95.2,67.7C95.3,67.7,95.2,67.7,95.2,67.7z"/>
						<path class="st58" d="M95.2,67.7C95.2,67.7,95.2,67.6,95.2,67.7C95.2,67.6,95.2,67.6,95.2,67.7c0-0.1,0.1-0.1,0.1-0.1
							C95.3,67.6,95.3,67.7,95.2,67.7L95.2,67.7C95.3,67.7,95.2,67.7,95.2,67.7C95.2,67.7,95.2,67.7,95.2,67.7z"/>
						<path class="st58" d="M95.2,67.7C95.2,67.7,95.2,67.6,95.2,67.7C95.2,67.6,95.3,67.6,95.2,67.7C95.3,67.6,95.3,67.6,95.2,67.7
							C95.3,67.6,95.3,67.7,95.2,67.7C95.3,67.7,95.3,67.7,95.2,67.7C95.3,67.7,95.2,67.7,95.2,67.7z"/>
						<path class="st58" d="M95.2,67.7L95.2,67.7L95.2,67.7L95.2,67.7C95.2,67.7,95.2,67.7,95.2,67.7z"/>
					</g>
				</g>
			</g>
		</g>
		<path class="st26" d="M95.3,67.9c0,0-0.1,0-0.1,0c0,0-0.1-0.1-0.1-0.2c0-0.1,0-0.1,0-0.2c0,0,0.1-0.1,0.1-0.1l0,0
			c0.1,0,0.2,0.1,0.2,0.2C95.4,67.8,95.3,67.9,95.3,67.9L95.3,67.9z M95.3,67.5L95.3,67.5c0,0-0.1,0-0.1,0.1c0,0,0,0.1,0,0.2l0,0
			c0,0.1,0,0.1,0.1,0.2c0,0,0.1,0,0.1,0c0.1,0,0.2-0.1,0.2-0.2C95.5,67.5,95.4,67.4,95.3,67.5C95.3,67.5,95.3,67.5,95.3,67.5z"/>
		<path class="st26" d="M95.3,67.9c-0.1-0.1-0.1-0.3,0-0.4l0,0C95.2,67.6,95.2,67.8,95.3,67.9L95.3,67.9z"/>
		<path class="st26" d="M95.2,67.7h-0.1l0,0c0.1,0,0.2,0,0.4,0l0,0C95.3,67.7,95.3,67.7,95.2,67.7z"/>
		<g>
			<defs>
				<path id="SVGID_13_" d="M96.1,64.6c-0.1,0-0.2,0.1-0.2,0.2c0,0.1,0.1,0.2,0.2,0.2c0.1,0,0.2-0.1,0.2-0.3
					C96.3,64.7,96.2,64.6,96.1,64.6L96.1,64.6"/>
			</defs>
			<clipPath id="SVGID_14_">
				<use xlink:href="#SVGID_13_"  style="overflow:visible;"/>
			</clipPath>
			<g class="st96">
				<g>
					<defs>
						
							<rect id="SVGID_15_" x="95.9" y="64.6" transform="matrix(0.6039 -0.7971 0.7971 0.6039 -13.6062 102.3309)" width="0.6" height="0.6"/>
					</defs>
					<clipPath id="SVGID_16_">
						<use xlink:href="#SVGID_15_"  style="overflow:visible;"/>
					</clipPath>
					<g class="st97">
						<rect x="95.8" y="64.4" class="st45" width="0.8" height="0.8"/>
						<path class="st45" d="M96,65.1c-0.1-0.1-0.2-0.3-0.1-0.4c0,0,0,0,0,0c0.1-0.1,0.3-0.2,0.4-0.1c0,0,0,0,0,0
							c0.1,0.1,0.2,0.3,0.1,0.4C96.3,65.1,96.1,65.2,96,65.1C96,65.1,96,65.1,96,65.1z"/>
						<path class="st45" d="M96,65.1c-0.1-0.1-0.1-0.3,0-0.4c0.1-0.1,0.3-0.1,0.4-0.1c0.1,0.1,0.1,0.3,0.1,0.4l0,0
							C96.3,65.1,96.2,65.2,96,65.1C96,65.1,96,65.1,96,65.1z"/>
						<path class="st71" d="M96,65c-0.1-0.1-0.1-0.3-0.1-0.4c0,0,0,0,0,0c0.1-0.1,0.2-0.2,0.4-0.1c0.1,0.1,0.2,0.2,0.1,0.4
							c0,0,0,0.1-0.1,0.1C96.3,65.1,96.1,65.1,96,65C96,65,96,65,96,65z"/>
						<path class="st72" d="M96,65c-0.1-0.1-0.1-0.3-0.1-0.4c0.1-0.1,0.3-0.1,0.4,0s0.1,0.3,0.1,0.4C96.3,65.1,96.1,65.1,96,65
							L96,65z"/>
						<path class="st72" d="M96,65c-0.1-0.1-0.1-0.2,0-0.4c0.1-0.1,0.2-0.1,0.4,0c0.1,0.1,0.1,0.3,0,0.4C96.2,65.1,96.1,65.1,96,65z
							"/>
						<path class="st73" d="M96,65c-0.1-0.1-0.1-0.3,0-0.3c0.1-0.1,0.2-0.1,0.3,0c0.1,0.1,0.1,0.2,0,0.3c0,0,0,0,0,0
							C96.2,65.1,96.1,65.1,96,65z"/>
						<path class="st74" d="M96,65c-0.1-0.1-0.1-0.2,0-0.3c0.1-0.1,0.2-0.1,0.3,0c0.1,0.1,0.1,0.2,0,0.3C96.2,65,96.1,65.1,96,65z"
							/>
						<path class="st75" d="M96,65c-0.1-0.1-0.1-0.2,0-0.3c0.1-0.1,0.2-0.1,0.3,0c0.1,0.1,0.1,0.2,0,0.3C96.3,65.1,96.1,65.1,96,65
							C96,65,96,65,96,65z"/>
						<path class="st76" d="M96,65c-0.1-0.1-0.1-0.2,0-0.3c0.1-0.1,0.2-0.1,0.3,0c0.1,0.1,0.1,0.2,0,0.3C96.2,65,96.1,65.1,96,65z"
							/>
						<path class="st77" d="M96,65c-0.1-0.1-0.1-0.2,0-0.3c0.1-0.1,0.2-0.1,0.3,0s0.1,0.2,0,0.3c0,0,0,0,0,0
							C96.2,65.1,96.1,65.1,96,65z"/>
						<path class="st78" d="M96,65c-0.1-0.1-0.1-0.2,0-0.3c0.1-0.1,0.2-0.1,0.3,0c0,0,0,0,0,0c0.1,0.1,0.1,0.2,0,0.3
							C96.2,65,96.1,65,96,65z"/>
						<path class="st79" d="M96,65c-0.1-0.1-0.1-0.2,0-0.3c0.1-0.1,0.2-0.1,0.3,0c0.1,0.1,0.1,0.2,0,0.3C96.3,65,96.2,65.1,96,65
							L96,65z"/>
						<path class="st80" d="M96,65c-0.1-0.1-0.1-0.2,0-0.3c0.1-0.1,0.2-0.1,0.3,0c0.1,0.1,0.1,0.2,0,0.2C96.2,65,96.1,65,96,65z"/>
						<path class="st81" d="M96,65c-0.1-0.1-0.1-0.2,0-0.2c0.1-0.1,0.1-0.1,0.2,0c0,0,0,0,0,0c0.1,0.1,0.1,0.2,0,0.2c0,0,0,0,0,0
							C96.2,65,96.1,65,96,65z"/>
						<path class="st82" d="M96.1,65c-0.1-0.1-0.1-0.2,0-0.2c0.1-0.1,0.2-0.1,0.2,0c0,0,0,0,0,0c0.1,0.1,0.1,0.2,0,0.2
							C96.2,65,96.1,65,96.1,65C96.1,65,96.1,65,96.1,65z"/>
						<path class="st83" d="M96.1,64.9c-0.1-0.1-0.1-0.2,0-0.2c0.1-0.1,0.2-0.1,0.2,0s0.1,0.2,0,0.2c0,0,0,0,0,0
							C96.2,65,96.1,65,96.1,64.9z"/>
						<path class="st84" d="M96.1,64.9c-0.1,0-0.1-0.1,0-0.2c0,0,0,0,0,0c0.1-0.1,0.1-0.1,0.2,0c0,0,0,0,0,0c0.1,0.1,0.1,0.1,0,0.2
							C96.2,65,96.1,65,96.1,64.9C96.1,64.9,96.1,64.9,96.1,64.9z"/>
						<path class="st85" d="M96.1,64.9c-0.1,0-0.1-0.1,0-0.2c0,0,0,0,0,0c0,0,0.1-0.1,0.2,0c0,0,0,0,0,0c0,0.1,0,0.1,0,0.2
							C96.2,65,96.1,65,96.1,64.9z"/>
						<path class="st86" d="M96.1,64.9c0,0,0-0.1,0-0.2c0,0,0,0,0,0c0.1,0,0.1,0,0.2,0c0,0.1,0,0.1,0,0.2C96.3,65,96.2,65,96.1,64.9
							C96.1,64.9,96.1,64.9,96.1,64.9z"/>
						<path class="st87" d="M96.1,64.9c0,0,0-0.1,0-0.2c0,0,0.1,0,0.2,0c0,0,0,0.1,0,0.2C96.2,65,96.2,65,96.1,64.9
							C96.1,64.9,96.1,64.9,96.1,64.9z"/>
						<path class="st88" d="M96.1,64.9c0,0,0-0.1,0-0.1c0,0,0,0,0,0c0,0,0.1,0,0.1,0c0,0,0,0,0,0c0,0,0,0.1,0,0.1
							C96.2,64.9,96.2,64.9,96.1,64.9C96.1,64.9,96.1,64.9,96.1,64.9z"/>
						<path class="st89" d="M96.1,64.9c0,0,0-0.1,0-0.1c0,0,0.1,0,0.1,0c0,0,0,0,0,0c0,0,0.1,0.1,0,0.1
							C96.2,64.9,96.2,64.9,96.1,64.9L96.1,64.9z"/>
						<path class="st90" d="M96.1,64.9c0,0,0-0.1,0-0.1c0,0,0.1,0,0.1,0c0,0,0,0.1,0,0.1c0,0,0,0,0,0C96.2,64.9,96.2,64.9,96.1,64.9
							C96.1,64.9,96.1,64.9,96.1,64.9z"/>
						<path class="st91" d="M96.1,64.9C96.1,64.9,96.1,64.8,96.1,64.9C96.1,64.8,96.1,64.8,96.1,64.9c0-0.1,0.1-0.1,0.1-0.1
							c0,0,0,0.1,0,0.1C96.2,64.9,96.2,64.9,96.1,64.9C96.1,64.9,96.1,64.9,96.1,64.9z"/>
						<path class="st58" d="M96.1,64.9C96.1,64.8,96.1,64.8,96.1,64.9C96.1,64.8,96.2,64.7,96.1,64.9L96.1,64.9
							C96.2,64.8,96.2,64.8,96.1,64.9C96.2,64.9,96.2,64.9,96.1,64.9z"/>
						<path class="st58" d="M96.1,64.9C96.1,64.9,96.1,64.8,96.1,64.9C96.1,64.8,96.1,64.8,96.1,64.9C96.1,64.8,96.2,64.8,96.1,64.9
							C96.2,64.8,96.2,64.8,96.1,64.9C96.2,64.8,96.2,64.8,96.1,64.9C96.2,64.9,96.2,64.9,96.1,64.9z"/>
						<path class="st58" d="M96.1,64.8L96.1,64.8L96.1,64.8L96.1,64.8L96.1,64.8z"/>
					</g>
				</g>
			</g>
		</g>
		<path class="st26" d="M96.1,65.1c-0.1,0-0.1,0-0.1-0.1c0,0-0.1-0.1-0.1-0.2c0-0.1,0.1-0.2,0.2-0.2c0,0,0,0,0,0l0,0
			c0.1,0,0.2,0.1,0.2,0.2c0,0.1,0,0.1,0,0.2C96.3,65,96.2,65.1,96.1,65.1L96.1,65.1z M96.1,64.6L96.1,64.6c-0.1,0-0.2,0.1-0.2,0.2
			c0,0,0,0,0,0c0,0.1,0,0.1,0.1,0.1c0,0,0.1,0,0.1,0l0,0c0,0,0.1,0,0.1-0.1c0,0,0-0.1,0-0.2C96.3,64.7,96.2,64.7,96.1,64.6z"/>
		<path class="st26" d="M96.2,65.1c0-0.1,0-0.3,0-0.4l0,0C96.1,64.8,96.1,64.9,96.2,65.1L96.2,65.1z"/>
		<path class="st26" d="M96.1,64.9H96l0,0c0.1,0,0.2,0,0.4,0l0,0C96.3,64.9,96.2,64.9,96.1,64.9z"/>
		<path class="st48" d="M98.2,66.7L98.2,66.7c-0.1,0-0.1-0.1-0.2-0.2s-0.1-0.1-0.1-0.1l0,0l0,0l0,0c0,0,0.1,0.1,0.1,0.2
			C98.1,66.5,98.2,66.7,98.2,66.7L98.2,66.7c0,0,0.1,0,0.1-0.1c0,0,0.1-0.1,0.1-0.1c0,0,0.1,0,0.1,0c0,0,0.1,0.1,0.2,0.1l0,0
			c0.1,0,0.2-0.1,0.3-0.2c0-0.1,0.1-0.1,0.2-0.2c0.1,0,0.2,0,0.2,0.1c0.1,0.1,0.3,0.2,0.5,0.1c0.3-0.1,0.6-0.1,0.9-0.1l0,0
			c-0.3-0.1-0.6,0-0.9,0.1c-0.2,0.1-0.4,0.1-0.5-0.1c-0.1-0.1-0.1-0.1-0.2-0.1c-0.1,0-0.2,0.1-0.2,0.2c-0.1,0.1-0.2,0.2-0.3,0.2l0,0
			c-0.2,0-0.2,0-0.2-0.1c0,0-0.1,0-0.1,0c0,0-0.1,0-0.1,0.1C98.3,66.7,98.3,66.7,98.2,66.7z"/>
		<path class="st27" d="M100.9,72.2c0-0.2,0.1-0.3,0.1-0.5c0.4-1.4,0.8-2.7,1.4-4c0.3-0.7,0.5-1.2,0.7-1.6c0.2-0.4,0.5-0.8,0.9-1.1
			c0.3-0.3,0.6-0.5,1-0.6c0.6-0.2,1.2-0.3,1.8-0.2c1.5,0.2,2.3,0.2,2.6,0.3c0.8,0.7,1.4,1.6,1.6,2.6c0.1,0.9-0.1,1.9-0.5,2.7
			c-0.6,0.8-2.7,4.9-3.7,5c-1.1,0.1-4.1,0-4.9-0.6C101.1,73.8,100.8,73,100.9,72.2L100.9,72.2z"/>
		<path d="M105.7,75c-1.4,0.1-2.7-0.2-4-0.7c-0.6-0.5-1-1.3-0.8-2l0,0c0-0.2,0.1-0.3,0.1-0.5c0.4-1.4,0.8-2.7,1.4-4
			c0.2-0.4,0.3-0.7,0.4-1l0.2-0.6c0.2-0.4,0.5-0.8,0.9-1.1c0.7-0.7,1.8-1,2.7-0.8c0.7,0.1,1.2,0.1,1.7,0.2c0.3,0,0.6,0.1,0.9,0.1
			l0,0c0.8,0.7,1.4,1.6,1.6,2.6c0.1,0.9-0.1,1.9-0.5,2.7c-0.1,0.2-0.2,0.4-0.4,0.7c-0.9,1.5-2.5,4.2-3.3,4.3
			C106.4,74.9,106,75,105.7,75z M100.9,72.2c-0.2,0.8,0.1,1.6,0.8,2c0.8,0.6,3.7,0.7,4.9,0.6c0.8-0.1,2.4-2.8,3.2-4.3l0.4-0.7
			c0.5-0.8,0.6-1.8,0.5-2.7c-0.2-1-0.8-1.9-1.6-2.6c-0.3-0.1-0.6-0.1-0.9-0.1c-0.4,0-1-0.1-1.7-0.2c-1-0.2-2,0.1-2.7,0.8
			c-0.4,0.3-0.6,0.7-0.8,1.1c-0.1,0.2-0.2,0.4-0.3,0.6c-0.1,0.2-0.3,0.6-0.4,1c-0.5,1.3-1,2.6-1.4,4C101,71.9,101,72.1,100.9,72.2
			L100.9,72.2z"/>
		<path class="st45" d="M106.1,74.8c-0.4,0-0.7-0.1-1-0.3c-0.6-0.4-0.9-1.2-0.7-1.9c0-0.2,0.1-0.3,0.1-0.5c0.4-1.4,0.8-2.7,1.3-4
			c0.2-0.4,0.3-0.7,0.4-1c0.1-0.3,0.2-0.4,0.3-0.6c0.2-0.4,0.5-0.7,0.8-1c0.3-0.2,0.6-0.4,0.9-0.6c0.3-0.1,0.7-0.2,1.1-0.2
			c0.2,0,0.4,0,0.6,0.1c0.7,0.2,1.4,0.5,2,0.9l0.1,0.1c0.3,0.2,1.4,0.9,1.5,1.9c0.1,0.9-0.1,1.8-0.5,2.6c-1.5,1.6-3.2,3-5.1,4.1
			l-0.2,0.1C107.2,74.6,106.7,74.7,106.1,74.8L106.1,74.8z"/>
		<path d="M109.4,64.9L109.4,64.9c0.2,0,0.4,0,0.6,0.1c0.7,0.1,1.4,0.4,2,0.9h0.1l0,0c0.9,0.6,1.3,1.2,1.4,1.8
			c0.1,0.9-0.1,1.7-0.5,2.5c-1.5,1.6-3.1,2.9-5,4l-0.2,0.1c-0.5,0.2-1.1,0.3-1.7,0.4c-0.3,0-0.6-0.1-0.9-0.2
			c-0.5-0.4-0.8-1.1-0.6-1.7c0-0.1,0.1-0.3,0.1-0.4c0.4-1.3,0.8-2.6,1.3-3.9c0.2-0.4,0.3-0.7,0.4-1c0.1-0.3,0.2-0.4,0.3-0.6
			c0.2-0.4,0.4-0.7,0.8-1c0.3-0.2,0.6-0.4,0.9-0.5C108.6,64.9,109,64.9,109.4,64.9L109.4,64.9z M109.3,64.5c-0.4,0-0.8,0.1-1.1,0.2
			c-0.4,0.1-0.7,0.3-1,0.6c-0.4,0.3-0.7,0.7-0.8,1.1c-0.2,0.4-0.4,0.9-0.7,1.6c-0.5,1.3-1,2.6-1.4,4c0,0.2-0.1,0.3-0.1,0.5
			c-0.2,0.8,0.1,1.5,0.8,2c0.3,0.2,0.6,0.3,1,0.3c0.7,0,1.4-0.2,2-0.4c1.9-1.1,3.7-2.5,5.2-4.1c0.5-0.8,0.7-1.8,0.5-2.7
			c-0.1-1.1-1.3-1.8-1.6-2c-0.6-0.5-1.4-0.8-2.2-1C109.7,64.6,109.5,64.5,109.3,64.5L109.3,64.5z"/>
		<path class="st46" d="M112.8,68.3c0.2,1-0.3,1.9-1.3,2.2s-1.9-0.3-2.2-1.3c-0.1-0.3-0.1-0.5,0-0.8c-0.2-1,0.3-1.9,1.3-2.2
			c1-0.2,1.9,0.3,2.2,1.3C112.8,67.8,112.8,68.1,112.8,68.3L112.8,68.3z"/>
		<path class="st46" d="M110.1,71.5c-0.1,0.7-0.8,1.1-1.5,1c-0.7-0.1-1.1-0.8-1-1.5c0.1-0.6,0.6-1,1.2-1
			C109.6,70,110.2,70.7,110.1,71.5L110.1,71.5z"/>
		<path class="st46" d="M107.3,72.8c-0.1,0.5-0.7,0.9-1.2,0.8c-0.5-0.1-0.9-0.7-0.8-1.2c0.1-0.4,0.5-0.8,1-0.8
			C107,71.6,107.4,72.2,107.3,72.8L107.3,72.8z"/>
		<path class="st30" d="M111.7,68.3c0,0.5-0.2,0.8-0.6,0.8s-0.6-0.3-0.6-0.8c0-0.5,0.2-0.8,0.6-0.8S111.7,67.9,111.7,68.3
			L111.7,68.3z"/>
		<path class="st30" d="M109.4,71.5c0.1,0.3,0,0.7-0.3,0.8c-0.3,0.1-0.6-0.2-0.7-0.6c-0.1-0.4,0-0.8,0.3-0.8S109.3,71.1,109.4,71.5
			L109.4,71.5z"/>
		<path class="st30" d="M106.7,72.8c0.1,0.3,0,0.6-0.2,0.6c-0.2,0-0.4-0.1-0.5-0.4s0-0.5,0.2-0.6C106.5,72.3,106.7,72.5,106.7,72.8
			L106.7,72.8z"/>
		<path class="st15" d="M105.6,71.2c0,0,0.3-0.6,1.1-0.3c0.2-0.9,1.1-1.5,2-1.3c-0.4-1.1-0.3-2.3,0.4-3.2c-0.5-0.2-0.7-0.3-1.3,0.4
			C107,68.1,106.3,69.6,105.6,71.2L105.6,71.2z"/>
		<path class="st47" d="M105.6,71.2L105.6,71.2c0.6-1.6,1.3-3.1,2.2-4.5c0.6-0.7,0.8-0.6,1.3-0.4l0,0l0,0c-0.6,0.9-0.8,2.1-0.4,3.1
			l0.1,0.2l0,0l0,0c-0.9-0.1-1.7,0.4-1.9,1.2v0.1l0,0l0,0C106,70.6,105.7,71.1,105.6,71.2L105.6,71.2z M108.6,66.2
			c-0.2,0-0.4,0.1-0.8,0.5c-0.8,1.4-1.5,2.8-2.1,4.3c0.3-0.3,0.7-0.4,1.1-0.2l0,0c0.1-0.3,0.3-0.6,0.5-0.8c0.4-0.4,0.9-0.6,1.4-0.5
			v-0.1c-0.4-1-0.3-2.2,0.4-3.1C108.9,66.2,108.7,66.2,108.6,66.2z"/>
		<polygon class="st48" points="106.5,66.4 103.1,66.2 103.1,66.1 106.5,66.3 		"/>
		<polygon class="st48" points="108.8,64.7 105,64.4 105,64.4 108.8,64.6 		"/>
		
			<rect x="109.8" y="64.2" transform="matrix(6.313894e-02 -0.998 0.998 6.313894e-02 38.316 170.2501)" class="st48" width="0.1" height="1"/>
		
			<rect x="103.8" y="66.7" transform="matrix(6.331303e-02 -0.998 0.998 6.331303e-02 29.0544 167.7043)" class="st48" width="0.1" height="3.4"/>
		
			<rect x="103.1" y="68.8" transform="matrix(6.331303e-02 -0.998 0.998 6.331303e-02 26.2673 168.9385)" class="st48" width="0.1" height="3.4"/>
		
			<rect x="102.5" y="71" transform="matrix(6.331303e-02 -0.998 0.998 6.331303e-02 23.5617 170.4083)" class="st48" width="0.1" height="3.4"/>
		
			<rect x="99.2" y="54.8" transform="matrix(0.9963 -8.593860e-02 8.593860e-02 0.9963 -4.3447 8.7544)" class="st26" width="0.7" height="0"/>
		<path class="st37" d="M94.9,61.5c0-0.1-0.2-0.1-0.4,0s-0.4,0.2-0.4,0.2s0.2,0.1,0.4,0S94.9,61.5,94.9,61.5L94.9,61.5z"/>
		<path d="M94.3,61.7c-0.1,0-0.2,0-0.2-0.1s0.2-0.2,0.4-0.2c0.1,0,0.2,0,0.3,0c0.1,0,0.1,0,0.2,0.1s-0.2,0.2-0.4,0.2L94.3,61.7z
			 M94.7,61.4h-0.2c-0.2,0.1-0.4,0.2-0.4,0.2s0.2,0.1,0.4,0s0.4-0.2,0.4-0.2S94.9,61.4,94.7,61.4L94.7,61.4z"/>
	</g>
</g>
</svg>
