<?xml version="1.0" encoding="utf-8"?>
<!-- Generator: Adobe Illustrator 23.0.2, SVG Export Plug-In . SVG Version: 6.00 Build 0)  -->
<svg version="1.1" id="Layer_1" xmlns="http://www.w3.org/2000/svg" xmlns:xlink="http://www.w3.org/1999/xlink" x="0px" y="0px"
	 viewBox="0 0 1500 1500" style="enable-background:new 0 0 1500 1500;" xml:space="preserve">
<style type="text/css">
	.st0{fill:#01BAFF;}
	.st1{opacity:0.23;}
	.st2{fill:#FFFFFF;}
</style>
<title>bluetooth_active</title>
<g id="Ellipse_1">
	<circle class="st0" cx="749.8" cy="750" r="750"/>
</g>
<g id="Ellipse_1_copy" class="st1">
	<path class="st2" d="M1398.8,372.3C619.4,285.8,580.7,966.8,99.1,1121.2c206.8,358.9,665.4,482.2,1024.3,275.4
		S1605.6,731.2,1398.8,372.3z"/>
</g>
<g id="Ellipse_2" class="st1">
	<path class="st2" d="M630,27.9c-1-6.3-145.4,8.2-283.6,102.4c-140.3,91.1-226.4,229.2-221,232.5c3.1,9.5,96.2-118.2,236.5-209.3
		C500,59.3,637.5,34.5,630,27.9z"/>
</g>
<path class="st2" d="M1090.7,925.1L838.3,756.8c-4.6-2.9-6-9-3-13.6c0.2-0.3,0.3-0.5,0.5-0.8c0.7-0.9,1.6-1.8,2.6-2.4l79.4-51.7
	l16.5-28.2l27.9-0.9l-30.9-15.2l42.9,2c2.4,0.1,4.8-0.5,6.8-1.7l111.3-70c2.9-1.9,4.7-5.1,4.8-8.5l0.3-81.4
	c-0.1-3.4-1.8-6.5-4.7-8.4l-372.9-247c-2-1.1-4.2-1.6-6.4-1.4l-64.8-0.2c-6.1-0.1-11.1,4.5-11.2,10.2v0.3l-0.9,218.5l21.5,24.1
	l-21.3,6.3l-1.2,116.2c0,5.6-4.8,10.2-10.9,10.2c-2.3,0-4.6-0.7-6.5-2L456.9,504.1c-3.8-2.5-8.8-2.5-12.6,0l-92.2,60.1
	c-4.6,2.8-6.2,8.7-3.4,13.4c0.2,0.3,0.3,0.5,0.5,0.8c0.8,1,1.7,1.9,2.8,2.6l239.2,158.3c4.6,2.9,6,9,3,13.6
	c-0.2,0.3-0.3,0.5-0.5,0.8c-0.7,0.9-1.6,1.7-2.6,2.4L362.5,905.5c-4.6,2.9-6,9-3.1,13.6c0.2,0.3,0.3,0.5,0.5,0.8
	c0.7,0.9,1.6,1.7,2.5,2.4l91.8,60.7c3.8,2.5,8.8,2.5,12.6,0l35.4-23.1c1.6-1.1,2.9-2.7,3.7-4.5l20-44.3l8.2,13.9
	c3.2,5.1,9.7,6.8,15,4.1c0.3-0.2,0.7-0.4,1-0.6l67.6-44.1c4.9-3.3,11.5-2.2,15.2,2.4c1.3,1.7,2,3.9,2,6.1l-1,169.4l25.8,16.4
	l-26.1,19.7l17.2,10.9l-17.4,31l-0.5,117.8c0,5.7,4.9,10.3,11,10.3h0.2l64.8,0.2c2.2,0,4.4-0.7,6.3-1.9l376.8-245.3
	c2.9-1.8,4.7-5.1,4.8-8.5l-1.3-79.6C1095.3,930,1093.5,926.9,1090.7,925.1z M794.5,604.3l0.6-158.5c0.1-5.7,5.2-10.2,11.3-10.1
	c2.2,0,4.3,0.7,6.1,1.9l120.2,79.6c4.6,2.9,6,9,3,13.6c-0.2,0.3-0.3,0.5-0.5,0.8c-0.7,0.9-1.6,1.7-2.6,2.4l-120.9,78.8
	c-5,3.2-11.7,2-15.3-2.7C795.2,608.3,794.5,606.3,794.5,604.3z M792.8,1052.3l0.6-158.5c0.1-5.7,5.2-10.2,11.3-10.1
	c2.2,0,4.3,0.7,6.1,1.9L931,965.1c4.6,2.9,6,9,3,13.7c-0.2,0.3-0.3,0.5-0.5,0.7c-0.7,0.9-1.6,1.7-2.6,2.4l-121.1,78.5
	c-5,3.2-11.7,2.1-15.3-2.6c-1.2-1.6-1.9-3.5-2-5.6L792.8,1052.3z"/>
</svg>
