<svg id="Group_2" data-name="Group 2" xmlns="http://www.w3.org/2000/svg" viewBox="0 0 643 693"><defs><style>.cls-1{fill-rule:evenodd;}.cls-2{fill:#004673;}.cls-3{fill:#179eff;}.cls-4{fill:#006ed0;}.cls-5{fill:#fff;}</style></defs><title>back</title><path class="cls-1" d="M640.8,321.81c0,11.65-.62,73.59-1.83,84.92A320.08,320.08,0,0,1,633,443C600.79,586,473.11,691.94,320.5,691.94,155.57,691.94,19.75,567.1,2.14,406.63.86,395,.2,333.79.2,321.81.2,144.67,143.61,1.06,320.5,1.06c140.45,0,259.79,90.53,303,216.5A320.77,320.77,0,0,1,640.8,321.81Z"/><g id="Ellipse_1_copy_8" data-name="Ellipse 1 copy 8"><path class="cls-2" d="M320.5,17.7c-96.37,0-182.29,44.78-238.16,114.69C80.3,134.93,113,173,113,173s-40.75-27.29-42.74-24.44A304.24,304.24,0,0,0,15.63,323c0,11.4.62,69.66,1.84,80.73C25.86,480.18,68.75,556,126,606c1.67,1.46,0-48,0-48l31-22-13,36s-1.1,44.72,2,47c49.58,36.41,106.07,56.3,174.5,56.3,151.77,0,277.64-110.13,301-255.46C621.81,417.87,575,395,575,395s47.78,14.78,48,13c.19-1.58.46-2.59.63-4.17,1.15-10.79,1.74-69.74,1.74-80.83C625.37,154.39,488.87,17.7,320.5,17.7Z"/></g><g id="Ellipse_1_copy_2" data-name="Ellipse 1 copy 2"><path class="cls-3" d="M320.5,17.09C224,17.09,138,61.89,82,131.85c-1.92,2.4,30,41.15,30,41.15s-39.88-28.17-41.91-25.27a306.31,306.31,0,0,0,52.79,408.56c4,3.4,31.27-14,31.27-14s-10.3,30.42-5.81,33.5A303.83,303.83,0,0,0,320.5,628.91C457.2,628.91,572.93,539,611.93,415c.8-2.54-34.93-19-34.93-19s37.28,11.84,38,9c6.18-24.26,11-55.81,11-82C626,154.05,489.21,17.09,320.5,17.09Z"/></g><g id="Ellipse_1_copy_3" data-name="Ellipse 1 copy 3"><path class="cls-4" d="M320.5,42.55A279.42,279.42,0,0,0,100.68,149.22C98.79,151.61,126,183,126,183s-36.75-18.32-39.53-14.1a280.81,280.81,0,0,0,52.86,368C154.77,530.19,168,524,168,524s-3.33,18.39-5.33,30.71A278.54,278.54,0,0,0,320.5,603.45c125.23,0,231.26-82.31,267.09-195.85C588.49,404.73,570,394,570,394s22.27-2.88,23.19-6.82A281.58,281.58,0,0,0,600.55,323C600.55,168.11,475.17,42.55,320.5,42.55Z"/></g><path class="cls-5" d="M641.3,321.81c0,11.65-.62,73.59-1.83,84.92a320.08,320.08,0,0,1-6,36.27H547.15l3.77-14.32L515.48,443H392.07c-10.33,0-18.71,9.65-18.71,21.55v46.89c0,18.38-18.69,28.33-30.84,16.42L251.86,439l-.29-12-19.94-7.81-74-72.5c-8.78-8.61-8.78-24.24,0-32.84l65.74-64.42,9.37,7.3-3.49-13.06L242,241l-7.54-2.38L342.52,132.7c12.15-11.91,30.84-2,30.84,16.42V196c0,11.9,8.38,21.56,18.71,21.56h68.16l28.55,10.32-17.23-10.32H624A320.77,320.77,0,0,1,641.3,321.81Z"/></svg>