<svg id="Group_2" data-name="Group 2" xmlns="http://www.w3.org/2000/svg" viewBox="0 0 643 693"><defs><style>.cls-1,.cls-2,.cls-3{fill-rule:evenodd;}.cls-2{fill:#179eff;}.cls-3{fill:#004673;}.cls-4{fill:#006ed0;}.cls-5{fill:#fff;}</style></defs><title>back-pressed</title><path class="cls-1" d="M640.82,360.35a334.46,334.46,0,0,1-19.52,113c-44.92,125.46-162.51,215-300.48,215-176.74,0-320-146.85-320-328s143.26-328,320-328c138.17,0,255.88,89.75,300.67,215.49A334.52,334.52,0,0,1,640.82,360.35Z"/><path class="cls-2" d="M626,353.47c0,8.47-.5,17.49-1.39,26.64v0c-.89,9.13-2.15,18.4-3.69,27.37-9.1-1.58-44.76-12.6-45.87-12.94,1,.51,34.63,16.94,44,22.86,1.58,1,2.48,1.69,2.43,2a303.77,303.77,0,0,1-301,255.46c-68.43,0-129.84-23.37-179.42-59.78,1.25-6.1,4.13-27.64,4.13-27.64S129.33,603,126,605.55c-57.25-50-100.14-125.82-108.53-202.27-.35-3.17-.65-10.22-.91-18.93,0,0,0,0,0,0A308.1,308.1,0,0,1,15,353.47,304.8,304.8,0,0,1,70.09,178.2c2-2.9,41.91,25.27,41.91,25.27s-31.94-38.75-30-41.15c56-70,142-114.77,238.52-114.77,131.71,0,244,83.48,286.85,200.48A305.76,305.76,0,0,1,626,353.47Z"/><path class="cls-3" d="M625.08,353.92c-.12,8.86-.28,18.29-.49,26.64v0c-.26,10.73-.58,19.66-1,23.25-.17,1.58-.44,2.59-.63,4.17,0,.22-.79.19-2.1-.05C611.66,406.34,575,395,575,395s34.51,16.86,44.06,22.87c1.58,1,2.48,1.69,2.43,2a303.77,303.77,0,0,1-301,255.46c-68.43,0-129.84-23.37-179.42-59.78,1.25-6.1,4.13-27.64,4.13-27.64S129.33,603.42,126,606C68.75,556,25.86,480.18,17.47,403.73c-.35-3.17-.65-10.22-.91-18.93,0,0,0,0,0,0-.26-9.29-.48-20.46-.63-30.84Z"/><path class="cls-2" d="M626,353.92c0,8.47-.5,17.49-1.39,26.64v0c-.89,9.13-2.15,18.4-3.69,27.37q-.87,5-1.84,9.92c-1.24,6.31-2.61,12.38-4.06,18.05-.71,2.79-36.67-8.58-38-9,1.34.62,35.67,16.49,34.89,19q-4.5,14.31-10.35,28C555,583.22,446.68,659.83,320.5,659.83a303.76,303.76,0,0,1-172.16-53.17c-4.43-3,5.55-32.71,5.8-33.48-.65.41-27.31,17.39-31.26,14A305.45,305.45,0,0,1,16.56,384.8s0,0,0,0A308.1,308.1,0,0,1,15,353.92,304.8,304.8,0,0,1,70.09,178.65c2-2.9,41.91,25.27,41.91,25.27s-31.94-38.75-30-41.15C138,92.8,224,48,320.5,48c131.71,0,244,83.48,286.85,200.48A305.76,305.76,0,0,1,626,353.92Z"/><path class="cls-2" d="M620.9,407.5q-.87,5-1.84,9.92c-9.4-5.92-43-22.35-44-22.86C576.14,394.9,611.8,405.92,620.9,407.5Z"/><g id="Ellipse_1_copy_3" data-name="Ellipse 1 copy 3"><path class="cls-4" d="M320.5,73.47A279.39,279.39,0,0,0,100.68,180.14C98.79,182.53,126,213.92,126,213.92s-36.75-18.32-39.53-14.1a280.81,280.81,0,0,0,52.86,368c15.44-6.68,28.67-12.87,28.67-12.87s-3.33,18.39-5.33,30.71A278.54,278.54,0,0,0,320.5,634.37c125.23,0,231.26-82.31,267.09-195.85.9-2.87-17.59-13.6-17.59-13.6s22.27-2.88,23.19-6.82a281.58,281.58,0,0,0,7.36-64.18C600.55,199,475.17,73.47,320.5,73.47Z"/></g><path class="cls-5" d="M640.82,360.35a334.46,334.46,0,0,1-19.52,113l-74.15.53,3.77-14.32-35.44,14.32H392.07c-10.33,0-18.71,9.65-18.71,21.55v46.89c0,18.38-18.69,28.33-30.84,16.42l-90.66-88.84-.29-12-19.94-7.81-74-72.5c-6.18-6.06-8-15.59-5.49-23.7a21.76,21.76,0,0,1,5.49-9.14l65.74-64.42,9.37,7.3-3.49-13.06L242,271.89l-7.54-2.38L342.52,163.62c12.15-11.91,30.84-2,30.84,16.42v46.88c0,11.9,8.38,21.56,18.71,21.56h68.16l28.55,10.32-17.23-10.32,149.94-.65A334.52,334.52,0,0,1,640.82,360.35Z"/></svg>