<svg id="Layer_1" data-name="Layer 1" xmlns="http://www.w3.org/2000/svg" viewBox="0 0 1266.87 1267.54"><defs><style>.cls-1{fill:#00c4ff;}</style></defs><title>big_circle1</title><path class="cls-1" d="M606.68,1267.05l-.39,0a631.9,631.9,0,0,1-409.7-173.88L335.13,947.52a430.77,430.77,0,0,0,279.79,118.69l1.75.08-7.74,200.85Zm41.35.41-4.49-201A432,432,0,0,0,926.78,952L1063,1099.75A632.91,632.91,0,0,1,648,1267.46Zm-479-202.17A632.81,632.81,0,0,1-.33,651l200.93-5.3A432,432,0,0,0,316.28,928.45Zm921.94,7L945.92,933.2a430.81,430.81,0,0,0,119.91-281.05c.1-2.34.19-4.71.25-7L1267,650.48c-.09,3.4-.21,6.84-.36,10.22A633.29,633.29,0,0,1,1091,1072.32ZM-.17,611.84c.06-1.7.13-3.4.2-5.1A631.8,631.8,0,0,1,172.15,198.83L318.34,336.78A430.77,430.77,0,0,0,200.85,615.3c0,1.18-.1,2.35-.14,3.53ZM1066,618.26A431.92,431.92,0,0,0,948,336.44l146.12-138a632.8,632.8,0,0,1,172.74,412.94ZM337.33,317.86,199.9,171.18A632.83,632.83,0,0,1,613.53.12L619.63,201A431.93,431.93,0,0,0,337.33,317.86ZM929,317.52A430.75,430.75,0,0,0,651.76,201.23c-1.75-.08-3.51-.14-5.26-.19L652.64.13q3.84.12,7.68.28a631.79,631.79,0,0,1,406,170.37Z"/></svg>