<svg id="Layer_1" data-name="Layer 1" xmlns="http://www.w3.org/2000/svg" viewBox="0 0 1920 1080"><defs><style>.cls-1{fill:#fff;}.cls-2{fill:#0a2332;}.cls-26,.cls-3{fill:#ffe12e;}.cls-4{fill:#ff3978;}.cls-5{fill:#0d2b3a;}.cls-6{fill:#194c60;}.cls-7{fill:#0e2830;}.cls-8{fill:#dac3a3;}.cls-9{fill:#c0ac87;}.cls-10{fill:#c3a573;}.cls-11{fill:#cda96f;}.cls-12{fill:#b79869;}.cls-13{fill:#dfbb7d;}.cls-14{fill:#9d845d;}.cls-15{opacity:0.59;}.cls-16{fill:#c6ac89;}.cls-17{fill:#998665;}.cls-18{fill:#857353;}.cls-19{fill:#a58d66;}.cls-20{fill:#6d5d45;}.cls-21,.cls-22,.cls-23{fill:#fe7f4a;stroke:#170600;}.cls-21,.cls-22,.cls-23,.cls-30,.cls-32,.cls-33,.cls-40,.cls-41,.cls-42{stroke-miterlimit:10;}.cls-21{stroke-width:3px;}.cls-22{stroke-width:2.13px;}.cls-23{stroke-width:1.07px;}.cls-24{fill:#008ad0;}.cls-25{fill:#00d00e;}.cls-26{opacity:0.1;}.cls-27{fill:#e78900;}.cls-28{fill:#ccb027;}.cls-29,.cls-30,.cls-32,.cls-33{fill:#00e7ac;}.cls-30,.cls-40,.cls-41,.cls-42{stroke:#fff;}.cls-30,.cls-32{stroke-width:0.5px;}.cls-31{fill:#bababa;}.cls-32{stroke:#ff4545;}.cls-33{stroke:#bababa;stroke-width:2px;}.cls-34{fill:#ff9e2e;}.cls-35{fill:#bc3a06;}.cls-36{fill:#ff5200;}.cls-37{fill:#bc3004;}.cls-38{fill:#d03800;}.cls-39{fill:#a5a5a5;}.cls-40{fill:#ccc;}.cls-40,.cls-41,.cls-42{stroke-width:0.1px;}.cls-41{fill:#aaa;}.cls-42{fill:#939393;}.cls-43{fill:#ffcd73;}.cls-44{fill:#edaa3e;}.cls-45{fill:#ea971f;}.cls-46{fill:#12c8cc;}.cls-47{fill:#16bfbf;}.cls-48{fill:#16d8d8;}.cls-49{fill:#159e9a;}.cls-50{fill:#78efef;}.cls-51{fill:#40d3d3;}.cls-52{fill:#13847e;}.cls-53{fill:#6fefe6;}.cls-54{fill:#c2e4ff;}.cls-55{fill:#f4e4d9;}.cls-56{fill:#eaa271;}.cls-57{fill:#683818;}.cls-58{fill:#ff4217;}.cls-59{fill:#ff6217;}.cls-60{fill:#ff8117;}.cls-61{fill:#f9a62d;}.cls-62{fill:#992516;}.cls-63{fill:#d83419;}.cls-64{opacity:0.4;}.cls-65{fill:#2e6fff;}.cls-66{fill:#6296f4;}.cls-67{fill:#2a66d1;}.cls-68{fill:#2a6fd3;}</style></defs><title>menu_background</title><path class="cls-1" d="M1037.49,243.37c-7.66-11.88-20.29-24.74-35-26.88-53.32-7.77-107.41-14.59-161.34-16.09A156.76,156.76,0,0,0,811.78,202a53.84,53.84,0,0,0-25.95-6.28,285.09,285.09,0,0,0-126.32,32.73,213.88,213.88,0,0,0-22.14,13.31c-10.15,7-20.43,14.39-29.19,23.1-5.73,5.7-10.5,12.35-15.3,18.8a55.16,55.16,0,0,0-6.21,10.46c-3.5,7.72-7.24,15.38-8.71,23.76s-3.05,17.42-2.31,26.07c1.59,18.58,5.93,33.14,14.35,49.89,5.84,11.62,14.32,21.86,22.33,32a491.91,491.91,0,0,0,34.33,38.41c26.72,27.33,56.15,51.73,87,74.31a606.32,606.32,0,0,0,98.42,58.67,43.43,43.43,0,0,0,21.75,6.94,44.28,44.28,0,0,0,23.32-1c13.57-3.74,28.28-14.23,35-26.89,7.18-13.57,10.77-30,5.9-45.07-4.46-13.79-13.29-28.51-26.88-35a609.32,609.32,0,0,1-88.4-51.54l5.11-6.61a58.35,58.35,0,0,0,8-29.53q.78-10.49,2-20.93c3.35-22.81,7.89-46.22,15.84-67.89.39-.78.8-1.55,1.21-2.32,7.28-.11,14.56.36,21.82.78q19,1.1,38,2.67,32.74,2.73,65.37,6.9c3.78.52,7.56,1,11.33,1.59a44.32,44.32,0,0,0,23.33,1.05,43.6,43.6,0,0,0,21.75-6.95c12.13-7.1,23.7-21,26.88-35C1046.8,273.48,1046.06,256.67,1037.49,243.37ZM708.83,334.92q-2.07,10.14-3.76,20.38-2.77-3.27-5.48-6.57c-1.29-1.82-2.52-3.67-3.71-5.55C700.09,340.26,704.42,337.52,708.83,334.92Z"/><rect class="cls-2" width="1920" height="1080"/><g id="Layer_2" data-name="Layer 2"><path class="cls-3" d="M1051.69,149.71c3.86,0,3.86-6,0-6s-3.87,6,0,6Z"/><path class="cls-3" d="M1467.78,421c5.79,0,5.8-9,0-9s-5.8,9,0,9Z"/><path class="cls-3" d="M760.15,892.34c5.79,0,5.8-9,0-9s-5.81,9,0,9Z"/><path class="cls-3" d="M68.34,736.34c5.79,0,5.8-9,0-9s-5.8,9,0,9Z"/><path class="cls-3" d="M1355.63,824.11c5.79,0,5.8-9,0-9s-5.8,9,0,9Z"/><path class="cls-3" d="M1808.12,977.91l1.62-3.25a4.74,4.74,0,0,0,.46-3.46,4.59,4.59,0,0,0-2.07-2.69c-2-1.08-5-.64-6.16,1.61l-1.62,3.25a4.77,4.77,0,0,0-.46,3.47,4.65,4.65,0,0,0,2.07,2.69c2,1.08,5,.63,6.16-1.62Z"/><path class="cls-3" d="M1830.24,752.59c5.79,0,5.8-9,0-9s-5.8,9,0,9Z"/><path class="cls-4" d="M1324.75,564.3a1.5,1.5,0,0,0,0-3,1.5,1.5,0,0,0,0,3Z"/><path class="cls-4" d="M1614,741.15l-1.66-4.87c-.62-1.81-3.52-1-2.89.8l1.66,4.87c.62,1.81,3.51,1,2.89-.8Z"/><path class="cls-4" d="M1404.39,226.23a1.5,1.5,0,0,0,0-3,1.5,1.5,0,0,0,0,3Z"/><path class="cls-4" d="M577.08,570.8a1.5,1.5,0,0,0,0-3,1.5,1.5,0,0,0,0,3Z"/><path class="cls-4" d="M196.75,362.76a1.5,1.5,0,0,0,0-3,1.5,1.5,0,0,0,0,3Z"/><path class="cls-4" d="M52.09,79.94a1.5,1.5,0,0,0,0-3,1.5,1.5,0,0,0,0,3Z"/><path class="cls-4" d="M193.49,42.56h1.63a1.5,1.5,0,0,0,0-3h-1.63a1.5,1.5,0,0,0,0,3Z"/><path class="cls-4" d="M261.76,91.32a1.5,1.5,0,0,0,0-3,1.5,1.5,0,0,0,0,3Z"/><path class="cls-5" d="M417.15,860.27c4.51,0,4.52-7,0-7s-4.51,7,0,7Z"/><path class="cls-5" d="M815.71,1033.61c8.37,0,8.38-13,0-13s-8.38,13,0,13Z"/><path class="cls-6" d="M334.46,580.47c8.37,0,8.38-13,0-13s-8.37,13,0,13Z"/><path class="cls-6" d="M1255.62,891.38c8.36,0,8.38-13,0-13s-8.38,13,0,13Z"/><path class="cls-6" d="M1518.57,942.65c8.36,0,8.38-13,0-13s-8.38,13,0,13Z"/><path class="cls-6" d="M410.54,922.8c8.36,0,8.38-13,0-13s-8.38,13,0,13Z"/><path class="cls-6" d="M231.93,545.74c8.37,0,8.38-13,0-13s-8.38,13,0,13Z"/><path class="cls-6" d="M566,797.12c8.37,0,8.38-13,0-13s-8.38,13,0,13Z"/><path class="cls-6" d="M612.3,1005.49c8.36,0,8.38-13,0-13s-8.38,13,0,13Z"/><path class="cls-6" d="M1321.77,319.33c6.43,0,6.44-10,0-10s-6.45,10,0,10Z"/><path class="cls-6" d="M1469,661.66c6.44,0,6.45-10,0-10s-6.44,10,0,10Z"/><path class="cls-6" d="M1717,671.58c6.44,0,6.45-10,0-10s-6.44,10,0,10Z"/><path class="cls-6" d="M1363.11,962.65c6.44,0,6.45-10,0-10s-6.44,10,0,10Z"/><path class="cls-7" d="M1358,675.52c6.43,0,6.44-10,0-10s-6.45,10,0,10Z"/><path class="cls-7" d="M1621.29,868c6.44,0,6.45-10,0-10s-6.44,10,0,10Z"/><path class="cls-7" d="M1059.28,903.42c6.44,0,6.45-10,0-10s-6.44,10,0,10Z"/><path class="cls-7" d="M439.75,704.29c6.43,0,6.44-10,0-10s-6.45,10,0,10Z"/><path class="cls-7" d="M189.72,904.63c5.15,0,5.16-8,0-8s-5.16,8,0,8Z"/><path class="cls-7" d="M331.33,464.82c5.79,0,5.8-9,0-9s-5.8,9,0,9Z"/><path class="cls-7" d="M391.07,387.17c8.36,0,8.38-13,0-13s-8.38,13,0,13Z"/><path class="cls-7" d="M714.11,221.22c8.37,0,8.38-13,0-13s-8.38,13,0,13Z"/><path class="cls-7" d="M844.66,190.24c8.36,0,8.38-13,0-13s-8.38,13,0,13Z"/><path class="cls-7" d="M1285,424.78c8.37,0,8.38-13,0-13s-8.38,13,0,13Z"/><path class="cls-7" d="M1377.73,537.93l2.21,2.22a6.52,6.52,0,0,0,9.2,0,6.57,6.57,0,0,0,1.9-4.6,6.83,6.83,0,0,0-1.9-4.6l-2.22-2.21a6.51,6.51,0,0,0-9.19,0,6.53,6.53,0,0,0-1.9,4.6,6.79,6.79,0,0,0,1.9,4.59Z"/><path class="cls-7" d="M1400,632.77c8.36,0,8.38-13,0-13s-8.38,13,0,13Z"/><path class="cls-7" d="M1545.89,763.62l2.21,2.22a6.75,6.75,0,0,0,4.6,1.9,6.66,6.66,0,0,0,4.6-1.9,6.57,6.57,0,0,0,1.9-4.6,6.81,6.81,0,0,0-1.9-4.6l-2.22-2.21a6.68,6.68,0,0,0-4.59-1.9,6.6,6.6,0,0,0-4.6,1.9,6.53,6.53,0,0,0-1.9,4.6,6.79,6.79,0,0,0,1.9,4.59Z"/><path class="cls-7" d="M1800.52,843c8.36,0,8.37-13,0-13s-8.38,13,0,13Z"/><path class="cls-1" d="M296.79,803.17a1.5,1.5,0,0,0,0-3,1.5,1.5,0,0,0,0,3Z"/><path class="cls-1" d="M759.71,141.3a1.5,1.5,0,0,0,0-3,1.5,1.5,0,0,0,0,3Z"/><path class="cls-1" d="M273.84,403.37a1.5,1.5,0,0,0,0-3,1.5,1.5,0,0,0,0,3Z"/><path class="cls-1" d="M975.87,990.63a1.5,1.5,0,0,0,0-3,1.5,1.5,0,0,0,0,3Z"/><path class="cls-1" d="M1400.54,706.61c3.21,0,3.22-5,0-5s-3.23,5,0,5Z"/><path class="cls-1" d="M1674.08,809.91c3.22,0,3.22-5,0-5s-3.22,5,0,5Z"/><path class="cls-1" d="M585.64,695.13c3.22,0,3.22-5,0-5s-3.22,5,0,5Z"/><path class="cls-1" d="M1383.32,98.31c3.22,0,3.22-5,0-5s-3.22,5,0,5Z"/><path class="cls-1" d="M1697,69.61c3.21,0,3.22-5,0-5s-3.23,5,0,5Z"/><path class="cls-1" d="M1762.08,230.3c3.21,0,3.22-5,0-5s-3.23,5,0,5Z"/><path class="cls-1" d="M80.63,486.63c3.22,0,3.23-5,0-5s-3.22,5,0,5Z"/><path class="cls-1" d="M86.37,953.38c3.22,0,3.23-5,0-5s-3.22,5,0,5Z"/></g><g id="Saturn"><path class="cls-8" d="M1808.9,58.89c1,1.06,2.07,2.14,3,3.25a69.69,69.69,0,0,1-3,95.35c-.52.53-1.06,1-1.6,1.55a69.74,69.74,0,0,1-85.17,8,68.54,68.54,0,0,1-8.58-6.46c-1.11-1-2.19-2-3.25-3a70.61,70.61,0,0,1-8.81-10.74c-.72-1.09-1.41-2.2-2.07-3.32s-1.31-2.31-1.91-3.48a69.87,69.87,0,0,1-4.75-11.84,71.46,71.46,0,0,1-1.72-7.15c-.44-2.37-.75-4.76-1-7.15a69.72,69.72,0,0,1,75.08-75.14,71.23,71.23,0,0,1,14.31,2.66,69.83,69.83,0,0,1,11.84,4.74c1.18.6,2.34,1.24,3.48,1.91s2.23,1.35,3.32,2.07A70.13,70.13,0,0,1,1808.9,58.89Z"/><path class="cls-9" d="M1772.35,39.93l-81.28,81.34a71.36,71.36,0,0,1-1-7.15L1765.2,39A71.34,71.34,0,0,1,1772.35,39.93Z"/><path class="cls-10" d="M1808.9,59.17c1,1,2.07,2.14,3,3.24a68.62,68.62,0,0,1,6.47,8.58,69.74,69.74,0,0,1-9.48,86.78c-.52.53-1.06,1-1.6,1.55a69.71,69.71,0,0,1-85.17,8,67.58,67.58,0,0,1-8.58-6.46q-1.66-1.46-3.25-3a69.65,69.65,0,0,1-8.81-10.74c-.72-1.09-1.41-2.19-2.07-3.31s-1.31-2.31-1.91-3.49a69.54,69.54,0,0,1-4.75-11.84l86.72-86.77a69.78,69.78,0,0,1,11.84,4.73c1.18.61,2.34,1.24,3.48,1.92s2.23,1.34,3.32,2.07A69.55,69.55,0,0,1,1808.9,59.17Z"/><path class="cls-11" d="M1808.9,59.17c1,1,2.07,2.14,3,3.24l-98.36,98.43q-1.66-1.46-3.25-3a69.65,69.65,0,0,1-8.81-10.74c-.72-1.09-1.41-2.19-2.07-3.31s-1.31-2.31-1.91-3.49l93.81-93.88c1.18.61,2.34,1.24,3.48,1.92s2.23,1.34,3.32,2.07A69.55,69.55,0,0,1,1808.9,59.17Z"/><path class="cls-12" d="M1798.15,50.37l-96.63,96.69c-.72-1.09-1.41-2.19-2.07-3.31l95.38-95.45C1796,49,1797.06,49.64,1798.15,50.37Z"/><path class="cls-13" d="M1818.41,71a69.74,69.74,0,0,1-9.48,86.78c-.52.53-1.06,1-1.6,1.55a69.71,69.71,0,0,1-85.17,8Z"/><path class="cls-14" d="M1828.53,97.88a69.63,69.63,0,0,1-19.6,59.89c-.52.53-1.06,1-1.6,1.55a69.63,69.63,0,0,1-58.27,18.09Z"/><path class="cls-15" d="M1808.9,59.17c1,1,2.07,2.14,3,3.24a68.62,68.62,0,0,1,6.47,8.58,69.74,69.74,0,0,1-9.48,86.78c-.52.53-1.06,1-1.6,1.55a98.67,98.67,0,0,0-8.65-31.56,116.36,116.36,0,0,0-14.1-22.93c-2.2-2.83-4.51-5.54-6.89-8.15a158.11,158.11,0,0,0-13.09-12.74c-1-.84-1.94-1.67-2.91-2.48s-2-1.63-3-2.42c-3.18-2.54-6.36-4.9-9.49-7.1q-2.67-1.87-5.28-3.59T1739,65.2a216.91,216.91,0,0,0-22-11.92A69.61,69.61,0,0,1,1765.2,39a69.41,69.41,0,0,1,14.31,2.66,69.78,69.78,0,0,1,11.84,4.73c1.18.61,2.34,1.24,3.48,1.92s2.23,1.34,3.32,2.07A69.55,69.55,0,0,1,1808.9,59.17Z"/><path class="cls-16" d="M1813.43,98.75a353.4,353.4,0,0,1-29.82,33.71,351.24,351.24,0,0,1-33.7,29.85q-1.37-.26-2.73-.57c-.76-.18-1.51-.38-2.27-.59-1.35-.38-2.67-.81-4-1.3-.82-.3-1.64-.62-2.44-1s-1.8-.79-2.69-1.23c-.42-.2-.83-.41-1.24-.62l-1.1-.59c-.67-.37-1.33-.75-2-1.15l-1.36-.86c12.17-8.15,26.61-20.4,40.84-34.64s26.46-28.69,34.6-40.86c.3.44.59.9.87,1.36.39.66.78,1.32,1.15,2,.2.36.4.73.59,1.1s.42.82.62,1.24c.44.88.85,1.77,1.23,2.68s.67,1.62,1,2.44c.48,1.32.92,2.65,1.3,4,.21.76.41,1.52.59,2.28S1813.26,97.83,1813.43,98.75Z"/><path class="cls-16" d="M1835.44,37.53c-4.67-4.67-15.38-7.16-39.93,7.43-1,.58-2,1.18-2.94,1.79q.92.49,1.83,1l.43.25c.52.3,1,.61,1.55.93s1.19.75,1.77,1.14c.43.28.86.58,1.28.87.76.53,1.52,1.08,2.27,1.65s1.49,1.15,2.22,1.76c7.93-4.34,13.75-6.26,17.2-6.47,1.58-.09,2.66.18,3.22.74s.84,1.7.72,3.36c-.25,3.62-2.34,9.75-7,18.13-.5.89-1,1.8-1.58,2.74-2.24,3.77-4.81,7.71-7.68,11.76A312.6,312.6,0,0,1,1775.09,124a313,313,0,0,1-39.3,33.71c-4,2.87-8,5.44-11.75,7.69-.8.48-1.59.93-2.36,1.36-8.57,4.85-14.83,7-18.5,7.26-1.66.12-2.79-.14-3.37-.72s-.82-1.63-.73-3.22c.2-3.49,2.17-9.44,6.66-17.57-.61-.73-1.2-1.47-1.77-2.23s-1.11-1.5-1.64-2.26c-.28-.39-.54-.79-.8-1.18-.42-.62-.82-1.24-1.2-1.87-.3-.48-.6-1-.88-1.45l-.3-.52c-.35-.61-.69-1.21-1-1.83-.7,1.12-1.37,2.22-2,3.31-14.58,24.56-12.08,35.27-7.41,39.93s15.38,7.17,39.93-7.43q2.88-1.71,5.87-3.66c5-3.22,10.13-6.9,15.4-11a351.24,351.24,0,0,0,33.7-29.85,353.4,353.4,0,0,0,29.82-33.71c4.16-5.41,7.91-10.7,11.19-15.78q1.82-2.81,3.42-5.51C1842.61,52.91,1840.11,42.19,1835.44,37.53Z"/><path class="cls-17" d="M1834.18,38.69c-4.33-4.33-14.51-6.43-38.37,8.2l-1.41.88.43.25c.52.3,1,.61,1.55.93s1.19.75,1.77,1.14c.43.28.86.58,1.28.87.76.53,1.52,1.08,2.27,1.65s1.49,1.15,2.22,1.76c.26.21.53.43.79.66,10.57-5.83,17-7,18.56-5.41s.35,8.35-5.92,19.48q-1,1.88-2.29,3.9c-2,3.34-4.36,6.82-6.91,10.39a322.46,322.46,0,0,1-34,39.58A321.2,321.2,0,0,1,1734.55,157c-3.57,2.56-7,4.87-10.38,6.91-1.22.75-2.4,1.44-3.52,2.08-11.36,6.47-18.2,7.81-19.86,6.15s-.4-8.14,5.6-18.93c-.22-.26-.44-.52-.65-.79-.61-.73-1.2-1.47-1.77-2.23s-1.11-1.5-1.64-2.26c-.28-.39-.54-.79-.8-1.18-.42-.62-.82-1.24-1.2-1.87-.3-.48-.6-1-.88-1.45l-.3-.52c-.37.59-.74,1.18-1.1,1.78-14.62,23.87-12.52,34-8.18,38.38s14.51,6.42,38.37-8.21q2-1.22,4-2.54c4.79-3.12,9.79-6.68,14.91-10.62A364.45,364.45,0,0,0,1782,130.88,364,364,0,0,0,1812.86,96c4-5.26,7.68-10.39,10.85-15.3.8-1.23,1.56-2.45,2.3-3.65C1840.62,53.19,1838.52,43,1834.18,38.69Z"/><path class="cls-18" d="M1831.58,41.39c-4-4-13.29-5.8-35.2,7.56q.9.55,1.77,1.14c.43.28.86.58,1.28.87.76.53,1.52,1.08,2.27,1.65s1.49,1.15,2.22,1.76c.26.21.53.43.79.66l1.12,1c8.65-4.54,13.87-5.44,15.23-4.08s.41,6.9-4.5,16q-1.55,2.9-3.64,6.25-2.43,3.92-5.36,8.08c-8.75,12.44-20.63,26.32-34.21,39.92s-27.46,25.48-39.9,34.24c-2.77,2-5.47,3.74-8.07,5.37-2.1,1.31-4.06,2.44-5.87,3.43-9.36,5.1-15,6.15-16.42,4.72s-.44-6.72,4.27-15.6c-.33-.37-.65-.75-1-1.12s-.44-.52-.65-.79c-.61-.73-1.2-1.47-1.77-2.23s-1.11-1.5-1.64-2.26c-.28-.39-.54-.79-.8-1.18-.42-.62-.82-1.24-1.2-1.87-13.59,22.19-11.74,31.6-7.76,35.58s13.66,5.87,36.51-8.36l1.11-.7c4.7-3,9.63-6.43,14.72-10.29a356.88,356.88,0,0,0,35.82-31.56,355.46,355.46,0,0,0,31.54-35.85c4-5.22,7.48-10.28,10.51-15.09l.47-.75C1837.46,55.05,1835.62,45.43,1831.58,41.39Z"/><path class="cls-19" d="M1827.66,45.22c-3.22-3.22-10.72-4.58-28.23,5.74.76.53,1.52,1.08,2.27,1.65s1.49,1.15,2.22,1.76c.26.21.53.43.79.66l1.12,1c.55.49,1.1,1,1.64,1.51,5.78-2.8,9.27-3.34,10.26-2.35s.41,4.7-2.62,10.83a98.65,98.65,0,0,1-5.6,9.69c-1,1.51-2,3-3.1,4.62-8.57,12.32-20.67,26.46-34.59,40.39s-28,26-40.36,34.61c-1.57,1.09-3.11,2.13-4.61,3.1a99,99,0,0,1-9.31,5.41c-6.36,3.21-10.17,3.87-11.21,2.82s-.43-4.62,2.52-10.63c-.51-.54-1-1.08-1.49-1.63-.33-.37-.65-.75-1-1.12s-.44-.52-.65-.79c-.61-.73-1.2-1.47-1.77-2.23s-1.11-1.5-1.64-2.26c-10.53,17.78-9.18,25.37-5.94,28.61s11.29,4.66,30.22-6.94c1-.63,2.1-1.31,3.2-2,3.55-2.3,7.27-4.9,11.11-7.77a353.43,353.43,0,0,0,37.32-32.75A353.38,353.38,0,0,0,1811,89.75c2.86-3.84,5.46-7.56,7.76-11.11.8-1.24,1.54-2.43,2.24-3.58C1832.32,56.39,1831,48.53,1827.66,45.22Z"/><path class="cls-20" d="M1825.06,52a6.45,6.45,0,0,0-1.59-2.59,6.58,6.58,0,0,0-2.35-1.51c-3.36-1.26-9.22-.74-19.42,4.71.75.57,1.49,1.15,2.22,1.76.26.21.53.43.79.66l1.12,1c.55.49,1.1,1,1.64,1.51s1,.91,1.43,1.38l.22.22c2.74-1,4.44-1,5.06-.4s.54,2.48-.53,5.43a70.48,70.48,0,0,1-7.33,13.62c-.25.39-.52.78-.78,1.18-8.14,12.17-20.38,26.63-34.6,40.86s-28.67,26.49-40.84,34.64l-1.18.77a72.68,72.68,0,0,1-13.19,7.18c-3.2,1.23-5.18,1.36-5.85.69s-.55-2.49.54-5.47l-.09-.08c-.5-.51-1-1-1.48-1.53s-1-1.08-1.49-1.63c-.33-.37-.65-.75-1-1.12s-.44-.52-.65-.79c-.61-.73-1.2-1.47-1.77-2.23-5.63,10.45-6.18,16.4-4.89,19.8a6.52,6.52,0,0,0,1.5,2.36,6.59,6.59,0,0,0,2.6,1.58c3.58,1.22,9.88.45,20.92-5.75,2.28-1.27,4.75-2.77,7.44-4.54q3.38-2.2,6.94-4.79a329.53,329.53,0,0,0,38.3-33.25A330,330,0,0,0,1810,87.31q2.58-3.57,4.79-6.94c1.87-2.84,3.44-5.45,4.75-7.83C1825.54,61.74,1826.27,55.54,1825.06,52Z"/></g><path class="cls-4" d="M1547,234.36l-6-6.46s45.91,4.3,67.67,21.28c7.23,6.38,17.11,15.41,13.32,34.16a27.31,27.31,0,0,1-5.64,11.85c-5.7,7-11.72,12.62-28.55,12a28.26,28.26,0,0,1-10.5-2.47c-10.37-4.61-22.94-11.34-49.93-46l9.57-.47-24.87-20.81s-5.5-6.93,3.35-7.65C1524.28,231,1547,234.36,1547,234.36Z"/><circle class="cls-21" cx="1591.83" cy="277.26" r="23.34"/><path class="cls-4" d="M1541.2,162.36l-4.25-4.6s32.66,3.07,48.14,15.14c5.15,4.54,12.18,11,9.48,24.3a19.48,19.48,0,0,1-4,8.44c-4,5-8.34,9-20.31,8.56a20.11,20.11,0,0,1-7.47-1.75c-7.38-3.29-16.32-8.07-35.52-32.74l6.8-.34-17.69-14.8s-3.91-4.94,2.38-5.45C1525,160,1541.2,162.36,1541.2,162.36Z"/><circle class="cls-22" cx="1573.1" cy="192.88" r="16.61"/><path class="cls-4" d="M1435.6,187.82l-2.13-2.3s16.33,1.53,24.07,7.57c2.58,2.27,6.09,5.49,4.74,12.15a9.65,9.65,0,0,1-2,4.22c-2,2.48-4.17,4.49-10.16,4.28a10,10,0,0,1-3.73-.87c-3.69-1.65-8.16-4-17.77-16.37l3.41-.17-8.85-7.4s-2-2.47,1.19-2.73C1427.52,186.63,1435.6,187.82,1435.6,187.82Z"/><circle class="cls-23" cx="1451.54" cy="203.08" r="8.3"/><g id="Earth"><path class="cls-24" d="M420.53,627.77a58.86,58.86,0,0,1-2.16,15.8,58.61,58.61,0,0,1-33.42,38c-1,.43-2,.83-3.06,1.21A58.36,58.36,0,0,1,362,686.27c-.78,0-1.56,0-2.34,0a58.82,58.82,0,0,1-14.56-2.43c-.62-.18-1.23-.38-1.84-.59a58.49,58.49,0,0,1-22.21-13.66h0a59,59,0,0,1-5.72-6.5A58.49,58.49,0,0,1,362,569.27h.59a58.5,58.5,0,0,1,54.63,39.13A58.31,58.31,0,0,1,420.53,627.77Z"/><path class="cls-25" d="M417.24,608.4a8.08,8.08,0,0,0-1.15,2.7,22.13,22.13,0,0,1-.48,2.58c-.34,1-1,1.82-1.4,2.79-.83,2-.35,3.67.13,5.6.29,1.17,1.07,3.61.23,4.7s-4.71.3-6,0a1.31,1.31,0,0,1-1.24-1.22c-.6-2.75-.34-3.61-2.34-5.52-1.44-1.37-2.44-3.19-4.28-4.12a2,2,0,0,0-.95-.26,2.31,2.31,0,0,0-1.15.49,20.74,20.74,0,0,1-9.94,3.92,4.73,4.73,0,0,1-1.45-.09h0c-2.06-.47-3.89-2.24-3.41-4.33h0a3.42,3.42,0,0,1,.35-.89c.85-1.58,6.54-5.72,4-7.8-1.4-1.14-5.19.09-6.53.85-1.15.65-3.52,3.38-4.86,1.53s.83-4.62-1.38-6.12a3.71,3.71,0,0,0-1.58-.53,15.44,15.44,0,0,0-11.09,2.52,31.45,31.45,0,0,1-4.14,2.86,19.44,19.44,0,0,0-3.5,1.59c-.88.67-1.49,1.66-2.37,2.33-1.36,1-3.19,1.18-4.9,1.29-2.05.13-4.28.21-6-1a50.59,50.59,0,0,0,4.48-7.4,2.55,2.55,0,0,0,.38-1.68c-.34-1.36-2.7-1.82-2.43-3.2a2,2,0,0,1,1-1.17,41.2,41.2,0,0,1,8.49-4.08c2.41-.83,5.11-1.58,6.51-3.71a1.59,1.59,0,0,0,.33-1.13c-.15-.79-1.19-1-2-.85a6.18,6.18,0,0,1-2.33.45,2.24,2.24,0,0,1-1.56-2.73,4.13,4.13,0,0,1,2.29-2.54c1.05-.53,2.21-.81,3.3-1.25,3.28-1.33,5.66-4,7.86-6.69,1.14-1.38,2.22-2.81,3.42-4.15.08-.09.9-1,1.57-1.81a58.61,58.61,0,0,1,41.12,31.13A59.24,59.24,0,0,1,417.24,608.4Z"/><path class="cls-25" d="M373,635.79a11.24,11.24,0,0,0,4.72,3c2,.81,2.38,1.49,3.79,3a19.77,19.77,0,0,0,7.1,4.95c3.11,1.24,4.93-1,6.94-3,1.09-1,2-2.21,3.35-1.1s1.24,3.73,1.16,5.44a23.37,23.37,0,0,1-1.05,7.11c-2,5.34-4.23,10.51-4.45,16.28-.1,2.73-.43,2.83-2.43,4.34-2.49,1.87-4.48,4.21-7.18,5.72-1,.43-2,.83-3.06,1.21A58.36,58.36,0,0,1,362,686.27c-.78,0-1.56,0-2.34,0,1.2-4.71,5.64-13.46,1.94-17.58-1.37-1.54-3.88-2-5.61-3a11.33,11.33,0,0,1-2.79-2.65,7.59,7.59,0,0,0-2.42-2c-3.09-2-3-7.55-7.22-7.55-2.35,0-3.87.67-6.15-.47-1.69-.85-3.34-1.76-4.17-3.45-1.34-2.77-3.51-5.81-3.54-8.85-.05-5.18.47-10.52,3.08-15.1,1.31-2.3,2.45-3.74,4.93-4.52a40.3,40.3,0,0,1,11-1.53,21,21,0,0,1,5.2.06c4.94,1.14,10.06,2.62,15.18,2.07,2.63-.28,4.45-1.31,6.74-2.45,2.13-1.06,4.37-1.88,6.55-2.85.48-.21,1-.54,1.42-.72a1.28,1.28,0,0,1,1.34.12c.86.66.94,1.83,1.28,2.78a5.09,5.09,0,0,0,.79,1.43,7,7,0,0,0,.74.81,9.18,9.18,0,0,0,7,2.23c3.19-.24,6,4.37,6.26,7.16.29,3.14-3.18,3.79-5.41,4.69-3.2,1.29-8.06.72-10.7-1.54-2.14-1.84-5.12-4.95-8.14-5C373.31,628.29,370.59,632.85,373,635.79Z"/><path class="cls-25" d="M321.11,669.41a.93.93,0,0,1,0,.13,59,59,0,0,1-5.72-6.5,58.07,58.07,0,0,1-10.77-24.2,14.46,14.46,0,0,1,6.2,3.58c2,2,3.87,4.82,6.71,4.85a4.55,4.55,0,0,1,1.92.14,2.81,2.81,0,0,1,1.06,1.1,13,13,0,0,1,2.14,5.71,7,7,0,0,1-1.94,5.63c-.73.69-1.67,1.22-2,2.15C317.65,664.52,321.71,666.77,321.11,669.41Z"/><path class="cls-25" d="M310.72,618.05l.56-4.47a4.76,4.76,0,0,1,.4-1.62,13,13,0,0,1,1.67-1.9,8.36,8.36,0,0,0,1.26-3,.69.69,0,0,1,.19-.37c.22-.2.57-.07.8.12a3,3,0,0,1,.74,2.85c-.19,1-.63,2-.76,3a2.67,2.67,0,0,0,1.06,2.71,4.22,4.22,0,0,1,1.09.58,1.31,1.31,0,0,1,.15,1.42,3.53,3.53,0,0,1-1,1.14c-.58.5-1.17,1-1.78,1.45A9.75,9.75,0,0,1,311,622a4,4,0,0,1-4.11-1.65,2.06,2.06,0,0,1-.13-2,1.28,1.28,0,0,1,1.82-.43,4.62,4.62,0,0,1,.67,1.09c.23.36.72.66,1.07.41a.85.85,0,0,0,.27-.42,2.89,2.89,0,0,0,.15-1.37"/><path class="cls-25" d="M311.79,608.45a1.24,1.24,0,0,1-.24.72c-.21.25-.37.19-.66.22s-.86.23-.91-.31a10.65,10.65,0,0,1,0-1.13c0-.76,0-1.52.08-2.28,0-.41.22-.95.62-.9a.74.74,0,0,1,.47.35,2.59,2.59,0,0,1,.66,1.24,6.24,6.24,0,0,1-.05,1C311.73,607.71,311.81,608.08,311.79,608.45Z"/></g><circle class="cls-26" cx="956.76" cy="540" r="253.07"/><circle class="cls-26" cx="956.76" cy="537.47" r="299"/><path class="cls-27" d="M929.32,374a346.91,346.91,0,0,0,35.82-61.54c9.55,23.07,22,42.24,40,59.47,24.38-2.82,46.77-14.07,66-29.35a140.67,140.67,0,0,0,6.11,62.49c20,3.74,41.53,4.05,61.4-.09-15.26,20.11-12.65,44.58-12.65,68.29,18.83,5,37.06,9.58,56.52,10.59-9,4.26-35.77,20.2-37,31.11-1.48,13.35,23.08,25.27,33.18,26.95-14.59,6.45-27,16.27-38.71,27.15,2.14,19.84,8.89,39.05,25.84,49.57-11.38,8.13-29.34,15.45-42.82,11.72,1.69,15.33.46,31.09,8,44.55-13,1.24-28.35,2.61-39.09-4.8-7.95,18-15.44,35.57-20.45,54.56-13.8-8.1-29-14.56-42.74-22.65-16.16,19.88-35.81,40.62-52,60.5-6.52-21.06-22.22-37.3-41.63-47.78-5,14.22-6,28.64-9.23,43-11.32-8.36-20.6-23.19-30-33.65-10.34-11.48-18.49-25.57-31.1-34.83-7.62,14.47-18.88,22.42-33.3,29l-30.58,14c11.1-15.31,22.61-50.72,26.3-69.26-29.24-.4-62.34,3.3-82.07-18.29,18.46-5.94,42.42-26.09,56.79-39.11-12.41,1.57-60.21-15.19-70.87-21.74,20.1-15.54,39.89-33.33,60-48.87-19.6-23.61-33.53-55.42-31.43-86,16.82,7.54,38.06,2.71,50.69-10.72,14.61-15.53-4-44.2-21.72-56.08,28.36-.14,57,1.9,84.82,7.57-1.46-21.85,1.32-46.07,6.15-67.43C891.57,343.89,909.24,359.45,929.32,374Z"/><path class="cls-28" d="M1113,540a152.73,152.73,0,1,1-10.35-55.44A153,153,0,0,1,1113,540Z"/><path class="cls-3" d="M1064.32,490.23c0,84.76-70.62,153.47-157.73,153.47a160.59,160.59,0,0,1-72.91-17.35,153,153,0,0,1,207.63-216A149.67,149.67,0,0,1,1064.32,490.23Z"/><polygon class="cls-29" points="373.83 527.42 362.26 532.15 347.76 510.96 358.63 507.74 373.83 527.42"/><polygon class="cls-29" points="385.86 542.99 372.65 547.34 363.8 534.4 375.99 530.21 385.86 542.99"/><line class="cls-30" x1="365.24" y1="536.61" x2="377.93" y2="532.73"/><rect class="cls-1" x="348.31" y="519.78" width="29.26" height="13.38" transform="translate(-154.42 150.65) rotate(-19.42)"/><ellipse class="cls-1" cx="376.74" cy="521.6" rx="3.24" ry="6.69" transform="translate(-152.01 154.97) rotate(-19.42)"/><ellipse class="cls-31" cx="349.14" cy="531.33" rx="3.24" ry="6.69" transform="translate(-156.82 146.34) rotate(-19.42)"/><path class="cls-31" d="M364.93,532.79a1.33,1.33,0,0,0,.44-.09l-.42.15Z"/><path class="cls-31" d="M360.5,520.23l.42-.15a1.31,1.31,0,0,0-.4.22Z"/><line class="cls-30" x1="353.37" y1="509.3" x2="361.82" y2="520.95"/><path class="cls-29" d="M368.07,524.66a10,10,0,0,1,.53,5.58,2.36,2.36,0,0,1-1.36,1.8l-1.87.66a1.7,1.7,0,0,0,.83-.63c.95-1.26,1-3.94,0-6.76s-2.72-4.87-4.24-5.25a1.79,1.79,0,0,0-1.05,0l1.87-.66A2.39,2.39,0,0,1,365,520,9.89,9.89,0,0,1,368.07,524.66Z"/><line class="cls-30" x1="370.14" y1="532.15" x2="379.16" y2="545.19"/><line class="cls-30" x1="367.52" y1="540" x2="380.6" y2="536.19"/><line class="cls-30" x1="370.14" y1="543.66" x2="383.32" y2="539.69"/><line class="cls-30" x1="353.91" y1="519.94" x2="365.15" y2="516.18"/><line class="cls-30" x1="351.66" y1="516.65" x2="362.94" y2="513.31"/><line class="cls-30" x1="349.67" y1="513.75" x2="360.5" y2="510.16"/><line class="cls-32" x1="372.72" y1="531.33" x2="371.97" y2="530.38"/><line class="cls-32" x1="366.06" y1="533.62" x2="365.37" y2="532.7"/><ellipse class="cls-1" cx="343.37" cy="533.9" rx="7.93" ry="13.84" transform="translate(-176.91 170.22) rotate(-22.3)"/><line class="cls-33" x1="340.24" y1="526.02" x2="326.57" y2="538.09"/><line class="cls-33" x1="343.37" y1="533.9" x2="327.14" y2="539.46"/><line class="cls-33" x1="345.53" y1="542.48" x2="326.57" y2="539.46"/><ellipse class="cls-34" cx="326.41" cy="539.46" rx="4.41" ry="2.83" transform="translate(-116.12 90.32) rotate(-13.4)"/><path class="cls-1" d="M318.15,538.47c0,2.72-.2,4.93,1.71,7.09.11.12.29-.06.18-.18-1.85-2.1-1.66-4.31-1.63-6.91a.13.13,0,0,0-.26,0Z"/><path class="cls-1" d="M314.55,537.26c-.18,4.13-.05,8.11,3.05,11.17.12.11.3-.07.18-.18-3.06-3-3.15-7-3-11a.13.13,0,0,0-.26,0Z"/><path class="cls-1" d="M310.82,535.21c.06,5.75.59,12.74,4.94,17a.13.13,0,1,0,.18-.18c-4.29-4.2-4.8-11.14-4.86-16.81a.13.13,0,0,0-.26,0Z"/><g id="Mars"><path class="cls-35" d="M318.89,221.47a72.88,72.88,0,1,1-53.26-70.31l2.05.61a73,73,0,0,1,51.21,69.7Z"/><path class="cls-36" d="M318.27,212c-5,42.44-39.44,76.23-83.1,81.72a73,73,0,1,1,30.46-142.52l2.05.61A73.06,73.06,0,0,1,318.27,212Z"/><path class="cls-37" d="M250.2,194.4c0,8.13-6,14.71-13.5,14.71a13.07,13.07,0,0,1-10.37-5.3,15.52,15.52,0,0,1-3.12-9.41c0-8.13,6-14.72,13.49-14.72a13.4,13.4,0,0,1,12.06,8.12A15.67,15.67,0,0,1,250.2,194.4Z"/><path class="cls-38" d="M250.2,194.4c0,8.13-6,14.71-13.5,14.71a13.07,13.07,0,0,1-10.37-5.3,15.76,15.76,0,0,1-1.44-6.62c0-8.13,6-14.71,13.49-14.71a13,13,0,0,1,10.38,5.32A15.67,15.67,0,0,1,250.2,194.4Z"/><path class="cls-37" d="M215.2,257.66c0,6.3-4.15,11.4-9.27,11.4A8.69,8.69,0,0,1,198.8,265a13,13,0,0,1-2.14-7.29c0-6.3,4.15-11.41,9.27-11.41,3.62,0,6.77,2.56,8.29,6.29A13.53,13.53,0,0,1,215.2,257.66Z"/><path class="cls-38" d="M215.2,257.66c0,6.3-4.15,11.4-9.27,11.4A8.69,8.69,0,0,1,198.8,265a13.55,13.55,0,0,1-1-5.13c0-6.3,4.15-11.4,9.27-11.4a8.7,8.7,0,0,1,7.14,4.12A13.53,13.53,0,0,1,215.2,257.66Z"/><path class="cls-37" d="M201.71,217.82c0,4.8-3.2,8.7-7.16,8.7a6.75,6.75,0,0,1-5.51-3.14,9.87,9.87,0,0,1-1.66-5.56c0-4.81,3.21-8.71,7.17-8.71,2.8,0,5.23,2,6.4,4.8A10.17,10.17,0,0,1,201.71,217.82Z"/><path class="cls-38" d="M201.71,217.82c0,4.8-3.2,8.7-7.16,8.7a6.75,6.75,0,0,1-5.51-3.14,10.13,10.13,0,0,1-.76-3.91c0-4.81,3.2-8.71,7.16-8.71a6.73,6.73,0,0,1,5.51,3.15A10.17,10.17,0,0,1,201.71,217.82Z"/><path class="cls-37" d="M312.51,212.28c0,9.88-5.3,17.89-11.82,17.89-3.66,0-6.92-2.51-9.09-6.45a23.91,23.91,0,0,1-2.73-11.44c0-9.88,5.29-17.88,11.82-17.88,4.62,0,8.62,4,10.56,9.86A25.3,25.3,0,0,1,312.51,212.28Z"/><path class="cls-38" d="M312.51,212.28c0,9.88-5.3,17.89-11.82,17.89-3.66,0-6.92-2.51-9.09-6.45a25.43,25.43,0,0,1-1.26-8c0-9.88,5.29-17.89,11.81-17.89,3.66,0,6.93,2.52,9.1,6.47A25.3,25.3,0,0,1,312.51,212.28Z"/><path class="cls-37" d="M269.93,272.85c0,3.81-2.08,6.9-4.65,6.9a4.28,4.28,0,0,1-3.57-2.49,9.07,9.07,0,0,1-1.07-4.41c0-3.81,2.08-6.89,4.64-6.89,1.82,0,3.4,1.54,4.16,3.8A9.81,9.81,0,0,1,269.93,272.85Z"/><path class="cls-38" d="M269.93,272.85c0,3.81-2.08,6.9-4.65,6.9a4.28,4.28,0,0,1-3.57-2.49,9.55,9.55,0,0,1-.5-3.1c0-3.81,2.08-6.89,4.65-6.89a4.28,4.28,0,0,1,3.58,2.49A9.81,9.81,0,0,1,269.93,272.85Z"/><path class="cls-37" d="M247.63,254.35c0,8.39-5.46,15.2-12.21,15.2a11.45,11.45,0,0,1-9.39-5.48,17.6,17.6,0,0,1-2.82-9.72c0-8.4,5.47-15.2,12.21-15.2,4.77,0,8.91,3.41,10.92,8.38A18.2,18.2,0,0,1,247.63,254.35Z"/><path class="cls-38" d="M247.63,254.35c0,8.39-5.46,15.2-12.21,15.2a11.45,11.45,0,0,1-9.39-5.48,18.27,18.27,0,0,1-1.3-6.84c0-8.39,5.47-15.2,12.21-15.2a11.43,11.43,0,0,1,9.4,5.5A18.2,18.2,0,0,1,247.63,254.35Z"/><path class="cls-37" d="M277.05,241c0,6-3.68,10.85-8.21,10.85a7.62,7.62,0,0,1-6.31-3.91,13.11,13.11,0,0,1-1.89-6.94c0-6,3.67-10.84,8.2-10.84,3.21,0,6,2.43,7.34,6A13.59,13.59,0,0,1,277.05,241Z"/><path class="cls-38" d="M277.05,241c0,6-3.68,10.85-8.21,10.85a7.62,7.62,0,0,1-6.31-3.91,13.7,13.7,0,0,1-.87-4.88c0-6,3.67-10.85,8.2-10.85a7.62,7.62,0,0,1,6.32,3.93A13.59,13.59,0,0,1,277.05,241Z"/><path class="cls-37" d="M267.68,151.77a73.23,73.23,0,0,1,12.21,5.08,8.21,8.21,0,1,1-14.26-5.69Z"/><path class="cls-38" d="M279.89,156.85a7.74,7.74,0,1,1-12.21-5.08A73.23,73.23,0,0,1,279.89,156.85Z"/><path class="cls-37" d="M213.71,165c0,1.64-1.7,3-3.79,3a4.26,4.26,0,0,1-2.91-1.07,2.61,2.61,0,0,1-.88-1.9c0-1.65,1.7-3,3.79-3a4,4,0,0,1,3.39,1.64A2.53,2.53,0,0,1,213.71,165Z"/><path class="cls-38" d="M213.71,165c0,1.64-1.7,3-3.79,3a4.26,4.26,0,0,1-2.91-1.07,2.46,2.46,0,0,1-.41-1.34c0-1.64,1.7-3,3.79-3a4.27,4.27,0,0,1,2.92,1.08A2.53,2.53,0,0,1,213.71,165Z"/></g><path class="cls-39" d="M255.24,516.65a25,25,0,1,1-30.8-24.33,25.36,25.36,0,0,1,12.56.25l.7.21a25,25,0,0,1,17.54,23.87Z"/><path class="cls-40" d="M255.24,516.65a24.9,24.9,0,0,1-5.6,15.77c-.56,0-1.13.05-1.7.05-15.18,0-27.49-11.83-27.49-26.43a25.58,25.58,0,0,1,4-13.72,25.36,25.36,0,0,1,12.56.25l.7.21a25,25,0,0,1,17.54,23.87Z"/><path class="cls-41" d="M227.67,513a4.84,4.84,0,0,1-4.62,5,4.48,4.48,0,0,1-3.56-1.81,5.37,5.37,0,0,1-1.06-3.23,4.85,4.85,0,0,1,4.62-5,4.6,4.6,0,0,1,4.13,2.78A5.45,5.45,0,0,1,227.67,513Z"/><path class="cls-42" d="M227.67,513a4.84,4.84,0,0,1-4.62,5,4.48,4.48,0,0,1-3.56-1.81,5.47,5.47,0,0,1-.49-2.27,4.85,4.85,0,0,1,4.62-5,4.49,4.49,0,0,1,3.56,1.82A5.45,5.45,0,0,1,227.67,513Z"/><path class="cls-41" d="M215.11,515.4a2.76,2.76,0,0,1-2.45,3,2.32,2.32,0,0,1-1.89-1.07,3.44,3.44,0,0,1-.57-1.91,2.75,2.75,0,0,1,2.46-3,2.46,2.46,0,0,1,2.19,1.64A3.44,3.44,0,0,1,215.11,515.4Z"/><path class="cls-42" d="M215.11,515.4a2.76,2.76,0,0,1-2.45,3,2.32,2.32,0,0,1-1.89-1.07,3.49,3.49,0,0,1-.26-1.35,2.76,2.76,0,0,1,2.45-3,2.31,2.31,0,0,1,1.89,1.08A3.44,3.44,0,0,1,215.11,515.4Z"/><path class="cls-41" d="M250.9,517.39a2.58,2.58,0,0,1-2.5,2.66,2.43,2.43,0,0,1-1.93-1,2.75,2.75,0,0,1-.58-1.7,2.59,2.59,0,0,1,2.51-2.66,2.49,2.49,0,0,1,2.24,1.46A2.81,2.81,0,0,1,250.9,517.39Z"/><path class="cls-42" d="M250.9,517.39a2.58,2.58,0,0,1-2.5,2.66,2.43,2.43,0,0,1-1.93-1,2.78,2.78,0,0,1-.27-1.2,2.59,2.59,0,0,1,2.51-2.66,2.48,2.48,0,0,1,1.93,1A2.81,2.81,0,0,1,250.9,517.39Z"/><path class="cls-41" d="M239.83,504.75a3.07,3.07,0,0,1-2.93,3.19,2.83,2.83,0,0,1-2.26-1.15,3.38,3.38,0,0,1-.68-2,3.08,3.08,0,0,1,2.94-3.2,2.9,2.9,0,0,1,2.62,1.76A3.41,3.41,0,0,1,239.83,504.75Z"/><path class="cls-42" d="M239.83,504.75a3.07,3.07,0,0,1-2.93,3.19,2.83,2.83,0,0,1-2.26-1.15,3.41,3.41,0,0,1-.31-1.44,3.08,3.08,0,0,1,2.93-3.2,2.84,2.84,0,0,1,2.26,1.16A3.41,3.41,0,0,1,239.83,504.75Z"/><path class="cls-41" d="M237.65,535.06a1.41,1.41,0,0,1-1.18,1.55,1.12,1.12,0,0,1-.91-.56,1.85,1.85,0,0,1-.27-1,1.4,1.4,0,0,1,1.18-1.55,1.21,1.21,0,0,1,1.06.85A2,2,0,0,1,237.65,535.06Z"/><path class="cls-42" d="M237.65,535.06a1.41,1.41,0,0,1-1.18,1.55,1.12,1.12,0,0,1-.91-.56,2,2,0,0,1-.13-.7,1.41,1.41,0,0,1,1.19-1.55,1.12,1.12,0,0,1,.91.56A2,2,0,0,1,237.65,535.06Z"/><path class="cls-41" d="M237,520.43a.83.83,0,0,1-.85.8.86.86,0,0,1-.65-.29.78.78,0,0,1-.19-.51.82.82,0,0,1,.84-.8.86.86,0,0,1,.76.44A.74.74,0,0,1,237,520.43Z"/><path class="cls-42" d="M237,520.43a.83.83,0,0,1-.85.8.63.63,0,0,1-.74-.65.83.83,0,0,1,.85-.8.86.86,0,0,1,.65.29A.74.74,0,0,1,237,520.43Z"/><path class="cls-41" d="M226.85,496.64a1.46,1.46,0,0,1-1.59,1.27,1.79,1.79,0,0,1-1.23-.46,1.11,1.11,0,0,1-.36-.81,1.46,1.46,0,0,1,1.59-1.27,1.68,1.68,0,0,1,1.42.7A1.06,1.06,0,0,1,226.85,496.64Z"/><path class="cls-42" d="M226.85,496.64a1.46,1.46,0,0,1-1.59,1.27,1.79,1.79,0,0,1-1.23-.46,1,1,0,0,1-.17-.57,1.46,1.46,0,0,1,1.59-1.27,1.77,1.77,0,0,1,1.23.46A1.06,1.06,0,0,1,226.85,496.64Z"/><g id="Pluto"><path class="cls-43" d="M1403,950.88a45.18,45.18,0,0,1-1.24,10.54,44.17,44.17,0,0,1-2.73,8,45,45,0,0,1-65.58,19.18c-.55-.36-1.09-.73-1.63-1.11a45.27,45.27,0,0,1-11.3-11.71,44.6,44.6,0,0,1-7.48-23.51h0c0-.46,0-.91,0-1.37a44.87,44.87,0,0,1,8.3-26c.65-.91,1.33-1.8,2-2.66a45,45,0,0,1,55.27-11.3c.47.24.93.48,1.39.74a45.69,45.69,0,0,1,9.55,7.18A45.12,45.12,0,0,1,1402,941.46,45.68,45.68,0,0,1,1403,950.88Z"/><path class="cls-44" d="M1389.55,918.8c-8.12,8.69-19.57,13.81-31.25,16.23-12.27,2.55-24.91,2.38-37.44,2.2-1.59,0-3.69-.34-5.65-.33a44.88,44.88,0,0,0-2.22,14c0,.46,0,.91,0,1.37h0l12.56,1.13c3.73.33,7.61.65,11.12-.65,2.23-.83,4.17-2.26,6.3-3.33,6-3,13.14-2.86,19.63-4.7a64.87,64.87,0,0,0,10.73-4.48l11.22-5.48a29.45,29.45,0,0,0,6.91-4.19,10.82,10.82,0,0,0,3.41-5.41Z"/><path class="cls-44" d="M1399,969.4a44.86,44.86,0,0,1-5.07,8.53c-6.37,4-12.91,7.6-19.45,11.25a23.69,23.69,0,0,1-7.2,3c-5.82,1-12.39-2.21-17.45.85a15,15,0,0,0-2.11,1.63,44.67,44.67,0,0,1-14.3-6.11l.76,0q3.9-.33,7.8-.75c10.84-1.14,21.7-2.68,32.12-5.89A77.67,77.67,0,0,0,1399,969.4Z"/><path class="cls-44" d="M1378.61,910.88c-2.58.42-5,2.36-7.4,3.79-4.76,2.91-10.38,4-15.89,4.85-7.08,1.08-14.21,1.83-21.35,2.26-3.54.21-7.09.34-10.63.4-.72.86-1.4,1.75-2,2.66a52.38,52.38,0,0,0,14.15.65,140.81,140.81,0,0,0,19.8-3.49,50.31,50.31,0,0,0,18.11-6.68l6.65-3.7Z"/><path class="cls-44" d="M1403,950.88q0,1.2-.06,2.4a45.37,45.37,0,0,1-1.18,8.14,46.12,46.12,0,0,1-4.09,2.24c-6.07,3.23-11.17,8.16-17.49,10.86-7,3-14.8,3-22.27,4.28-9,1.58-17.53,5.12-26,8.63l-.11,0a45.56,45.56,0,0,1-7.72-7,46.47,46.47,0,0,1-3.58-4.69l11.44-.19c6.41-.11,13-.25,18.9-2.83,1.82-.8,3.55-1.82,5.42-2.49,2.94-1,6.12-1.17,9.2-1.7a67.24,67.24,0,0,0,9.7-2.64c3.19-1,6.48-2.17,8.93-4.45,1.63-1.52,2.8-3.46,4.36-5,1.9-1.94,4.32-3.28,6.35-5.09,3-2.73,5-6.38,7.2-9.87A45.68,45.68,0,0,1,1403,950.88Z"/><path class="cls-44" d="M1385.42,952.43a11.06,11.06,0,0,1-2.7,3.07,7.2,7.2,0,0,1-5,1.63,3.88,3.88,0,0,1-3.22-.92,4.56,4.56,0,0,1-1.43-3.35,4.23,4.23,0,0,1,.13-1.47,9.69,9.69,0,0,1,1.72-2.74,13.44,13.44,0,0,1,2-1.84C1380.79,943.83,1388.77,946.88,1385.42,952.43Z"/><path class="cls-45" d="M1403,950.88q0,1.2-.06,2.4c-13.2,12.52-31.48,18.13-49.29,22q-5.34,1.15-10.7,2.15-9.36,1.76-18.81,3h0a46.47,46.47,0,0,1-3.58-4.69l11.44-.19c6.41-.11,13-.25,18.9-2.83,1.82-.8,3.55-1.82,5.42-2.49,2.94-1,6.12-1.17,9.2-1.7a67.24,67.24,0,0,0,9.7-2.64c3.19-1,6.48-2.17,8.93-4.45,1.63-1.52,2.8-3.46,4.36-5,1.9-1.94,4.32-3.28,6.35-5.09,3-2.73,5-6.38,7.2-9.87A45.68,45.68,0,0,1,1403,950.88Z"/><path class="cls-45" d="M1382.72,955.5a7.2,7.2,0,0,1-5,1.63,3.88,3.88,0,0,1-3.22-.92,4.56,4.56,0,0,1-1.43-3.35,4.23,4.23,0,0,1,.13-1.47,9.69,9.69,0,0,1,1.72-2.74,6.7,6.7,0,0,1,7.24,1.27A4.27,4.27,0,0,1,1382.72,955.5Z"/></g><g id="Urenus"><path class="cls-46" d="M585.57,371.21a30.19,30.19,0,0,1-.36,4.69c0,.15-.05.29-.08.44a30,30,0,0,1-40.07,23,29.29,29.29,0,0,1-4.88-2.36,29.9,29.9,0,0,1-6.18-4.9c-.71-.74-1.39-1.52-2-2.33a29.79,29.79,0,0,1-5.8-12.54,29.27,29.27,0,0,1-.49-3.38c-.07-.86-.11-1.73-.11-2.6a29.89,29.89,0,0,1,1.95-10.66c.2-.52.41-1,.64-1.54A30,30,0,0,1,574.51,348c.52.42,1,.86,1.52,1.32a30.36,30.36,0,0,1,5.37,6.67q.72,1.21,1.32,2.49a30.53,30.53,0,0,1,1.7,4.51l.09.34A30.11,30.11,0,0,1,585.57,371.21Z"/><path class="cls-47" d="M576,349.27c-.57.12-1.15.2-1.73.29a78.43,78.43,0,0,0-15.3,3.83c-7.63,2.75-15.22,6.74-23.31,6.21-2.19-.14-4.46-.61-6.54.11a8.13,8.13,0,0,0-1.63.84c.2-.52.41-1,.64-1.54A30,30,0,0,1,574.51,348C575,348.37,575.54,348.81,576,349.27Z"/><path class="cls-48" d="M582.72,358.43a11.44,11.44,0,0,1-5.49.73l-10-.34a16.78,16.78,0,0,0-5.57.42,5.8,5.8,0,0,0-4,3.59c-.49,1.59,0,3.34-.31,5a7.1,7.1,0,0,1-4,4.78A20.92,20.92,0,0,1,547,374.2l-18,2.69a20.74,20.74,0,0,1-2.83.3,29.27,29.27,0,0,1-.49-3.38c-.07-.86-.11-1.73-.11-2.6a29.89,29.89,0,0,1,1.95-10.66c.2-.52.41-1,.64-1.54a26.58,26.58,0,0,1,3,0c2.74.08,5.47.4,8.2.21,7.77-.54,14.61-5,21.85-7.89A53.83,53.83,0,0,1,574.51,348c.52.42,1,.86,1.52,1.32a30.36,30.36,0,0,1,5.37,6.67Q582.12,357.16,582.72,358.43Z"/><path class="cls-49" d="M585.21,375.9c0,.15-.05.29-.08.44a30,30,0,0,1-40.07,23,29.29,29.29,0,0,1-4.88-2.36,19.39,19.39,0,0,1,8.82-5.59c3.36-1.15,6.88-1.76,10.33-2.63a27.76,27.76,0,0,0,9.78-4.11c2.35-1.71,4.23-4,6.45-5.88s5-3.45,7.87-3.25A5.82,5.82,0,0,1,585.21,375.9Z"/><path class="cls-50" d="M585.57,371.21a30.19,30.19,0,0,1-.36,4.69c0,.15-.05.29-.08.44a13.62,13.62,0,0,0-7,4.08c-2.54,2.83-4.35,6.2-6.93,9-6.55,7.08-7.6,2.41-11.63,2.45s-9.72,5-11.34,3.23c-1.2-1.29-2.1,2.86-3.19,4.23a29.29,29.29,0,0,1-4.88-2.36,29.9,29.9,0,0,1-6.18-4.9c-.71-.74-1.39-1.52-2-2.33,1-1.34,5.11-2.9,3.58-3.61-7-3.25,7.29-3.95,10.79-6.2,19.09-12.28,18.89-14.1,25.23-12.48,4.78,1.22,7.21-1.7,11.75-3.65l1.19-.51A30.11,30.11,0,0,1,585.57,371.21Z"/><path class="cls-51" d="M584.42,362.94l-1.1.85c-1.83,1.39-3.72,2.69-5.61,4-2.67,1.84-5,4.82-8.16,5.3-10.3,1.55-10.84,6.08-16.45,8.33-3.26,1.3-6.56,1.82-9.82,3.12-1.82.73-3.81,1.61-4.61,3.4a23.22,23.22,0,0,1-.84,2.34c-.76,1.3-2.26,1.73-3.83,1.8-.71-.74-1.39-1.52-2-2.33a29.79,29.79,0,0,1-5.8-12.54,29.27,29.27,0,0,1-.49-3.38,20.93,20.93,0,0,1,2.79-1.23c3.77-1.36,7.79-1.84,11.7-2.7s7.23-3.15,11-3.33c3-.14,3.7-6.16,6.22-7.75,2.68-1.7,4.4-.19,7.58-.36,4.95-.26-5.63-3.39,16.45-2.5q.72,1.21,1.32,2.49A30.53,30.53,0,0,1,584.42,362.94Z"/><circle class="cls-52" cx="571.48" cy="367.02" r="0.52"/><ellipse class="cls-52" cx="578.02" cy="374.68" rx="0.63" ry="0.11"/><ellipse class="cls-52" cx="555.91" cy="386.64" rx="0.87" ry="0.55"/><circle class="cls-52" cx="556.95" cy="397.58" r="0.17"/><ellipse class="cls-52" cx="573.21" cy="391.68" rx="0.82" ry="0.39"/><ellipse class="cls-52" cx="535.5" cy="376.51" rx="0.6" ry="0.22"/><ellipse class="cls-52" cx="533.37" cy="364.12" rx="0.56" ry="0.07"/><ellipse class="cls-52" cx="544.91" cy="348.92" rx="0.3" ry="0.79"/><circle class="cls-52" cx="550.43" cy="350.31" r="0.3"/><ellipse class="cls-52" cx="546.48" cy="360.91" rx="0.6" ry="0.37"/><ellipse class="cls-52" cx="563.73" cy="352.43" rx="1.04" ry="0.27"/><ellipse class="cls-53" cx="541.74" cy="391.49" rx="0.71" ry="0.19"/><ellipse class="cls-53" cx="563.72" cy="379.68" rx="0.52" ry="0.26"/><ellipse class="cls-53" cx="552.04" cy="372.37" rx="0.93" ry="0.04"/><circle class="cls-53" cx="544.2" cy="378.56" r="0.19"/><circle class="cls-53" cx="535.09" cy="362.75" r="0.18"/><circle class="cls-53" cx="536.75" cy="354.69" r="0.65"/><circle class="cls-53" cx="554.83" cy="356.87" r="0.22"/><ellipse class="cls-53" cx="562.34" cy="362.37" rx="0.86" ry="0.2"/><ellipse class="cls-53" cx="558.31" cy="375.88" rx="0.26" ry="0.04"/><ellipse class="cls-53" cx="569.73" cy="382.8" rx="0.78" ry="0.51"/><circle class="cls-53" cx="577.88" cy="385.59" r="0.49"/><circle class="cls-53" cx="556.64" cy="395.33" r="0.31"/></g><g id="Jupiter"><path class="cls-54" d="M1330,301.54q0,1.44-.09,2.85c-.06.91-.14,1.82-.26,2.72s-.23,1.71-.39,2.56a42.92,42.92,0,0,1-1.8,6.79h0a45,45,0,0,1-71.53,19.42,44.18,44.18,0,0,1-7.06-7.53,45,45,0,0,1-5.16-8.9,43.15,43.15,0,0,1-1.61-4.33q-.22-.67-.42-1.38a45.29,45.29,0,0,1-1.53-8.54c-.09-1.15-.14-2.32-.14-3.5v-.41a44.49,44.49,0,0,1,.58-7c.19-1.21.43-2.41.72-3.58a45.05,45.05,0,0,1,59.89-31.19,45,45,0,0,1,15.28,9.85,44.48,44.48,0,0,1,6.93,8.7,43.57,43.57,0,0,1,3.35,6.65c.52,1.31,1,2.64,1.39,4h0c.14.46.27.93.39,1.4q.51,1.93.84,3.93c.05.31.1.61.14.92A43.93,43.93,0,0,1,1330,301.54Z"/><path class="cls-55" d="M1316.45,269.4l-41.64,4.86c-3.33.39-6.85.75-9.92-.61a25.21,25.21,0,0,0-3.62-1.68c-1.66-.43-3.42,0-5.13-.22a4.38,4.38,0,0,1-3.23-1.77,44.78,44.78,0,0,1,10.07-7.7c.29,0,.59,0,.9-.1A8.64,8.64,0,0,1,1266,262a7.8,7.8,0,0,1,2.28.78c7.5,3.25,16.11,1.53,24.09-.25a34.07,34.07,0,0,0,6.88-2c.64-.3,1.26-.63,1.89-.93A45,45,0,0,1,1316.45,269.4Z"/><path class="cls-56" d="M1328.12,288.76h0a12.39,12.39,0,0,1-1.9,1.24c-2,1-4.35,1.27-6.55,1.82a30.49,30.49,0,0,0-3.82,1.26c-7.36,3-14,8.36-21.88,8.47-2.68,0-5.32-.55-8-.73a26.34,26.34,0,0,0-11,1.63c-3.87,1.47-8,3.88-11.86,2.31-1.39-.56-2.54-1.62-3.93-2.18-2.61-1.07-5.55-.29-8.36-.12a9,9,0,0,1-5.19-1.11,4.16,4.16,0,0,1-1.84-2.31c-.33-1.07-.19-2.28-.76-3.24a3.43,3.43,0,0,0-2.46-1.48c.19-1.21.43-2.41.72-3.58a44.51,44.51,0,0,1,2.53-7.4c1.07.58,2.09,1.28,3,1.79a11.71,11.71,0,0,0,4.07,1.57c2.76.34,5.44-1.3,8.23-1.18s5.41,2.17,8.2,3.13,5.62.82,8.47.7l5.19-.22c5.12-.21,10.29-.43,15.19-1.93s9.48-4.33,14.49-5.72c3.86-1.07,8-1.29,11.65-2.88.36-.16.71-.33,1.05-.5a43.57,43.57,0,0,1,3.35,6.65C1327.25,286.06,1327.72,287.39,1328.12,288.76Z"/><path class="cls-55" d="M1329.49,295a41.54,41.54,0,0,1-6,1.76c-1.75.36-3.52.58-5.27.94-1.91.39-3.79.94-5.66,1.5-11,3.3-21.83,7.23-33.21,8.46-8.48.91-17,.29-25.56-.33a12.88,12.88,0,0,1-5.18-1.11,13.43,13.43,0,0,1-2-1.43,13.34,13.34,0,0,0-6.62-3.1v-.41a44.49,44.49,0,0,1,.58-7c.19-1.21.43-2.41.72-3.58a43.32,43.32,0,0,0,4.24,1.55,108.71,108.71,0,0,0,11.94,1.61l27.69,2.73a11.44,11.44,0,0,0,5.18-.29c2.34-.89,3.85-3.22,6.07-4.38,2.07-1.09,4.52-1.06,6.86-1a3.35,3.35,0,0,1-.35,3.13c4.79.79,8.22-4.54,12.77-6.23,2-.75,4.24-.75,6.33-1.25a22.71,22.71,0,0,0,4.72-1.86c.52,1.31,1,2.64,1.39,4h0c.14.46.27.93.39,1.4q.51,1.93.84,3.93C1329.4,294.4,1329.45,294.7,1329.49,295Z"/><path class="cls-57" d="M1329.35,294.09c-10.81.41-21.07,6.82-32,7.75-5.13.43-10.33-.34-15.42.38-4.07.58-8,2.09-12,2.85-7.73,1.44-15.54,0-23.31-.27q-1.39-.06-2.79-.06c-.74,0-2.22.3-3.69.46-.09-1.15-.14-2.32-.14-3.5v-.41a30.21,30.21,0,0,1,5.64.06c.67,0,1.27.08,1.74.07,4.77-.09,9.38-1.66,14.1-2.36,5.69-.84,11.49-.39,17.25-.6a151.78,151.78,0,0,0,19.21-2.37l15-2.52,2.88-.49c3-.51,5.88-1.08,8.76-1.88,1.3-.36,2.59-.77,3.9-1Q1329,292.09,1329.35,294.09Z"/><path class="cls-55" d="M1329.62,307.11c-.1.86-.23,1.71-.39,2.56a42.92,42.92,0,0,1-1.8,6.79h0a11.38,11.38,0,0,0-1.66,2c-.71,1.14-1.19,2.52-2.32,3.24-1.7,1.08-4,.17-5.91.73-2.5.74-3.57,3.58-4.91,5.81a15.41,15.41,0,0,1-6.41,5.88c-3.68-2-8.19-.39-12.35-.67-4-.27-7.73-2.27-11.72-2.34-2.41-.05-4.81.61-7.21.35-3.72-.41-6.86-3-10.46-4-5.06-1.44-10.38.24-15.64.89a45,45,0,0,1-5.16-8.9,43.15,43.15,0,0,1-1.61-4.33,9,9,0,0,1,2.43-.32c2.54,0,4.9,1.57,7.43,1.42,1-.06,2.22-.34,2.91.42.4.45.46,1.11.81,1.6a3.19,3.19,0,0,0,2.49.94l20.12,1.41a9.71,9.71,0,0,0,3.53-.19l.33-.12a6.53,6.53,0,0,0,2.23-1.61c.23-.24.46-.49.68-.74,3.18-3.62,6.23-8,11-9,2.62-.55,5.35.07,8-.2,2.19-.21,4.43-1,6.54-.39,1.4.41,2.57,1.4,4,1.85a10.36,10.36,0,0,0,5.54-.26Q1324.9,308.73,1329.62,307.11Z"/><path class="cls-56" d="M1329.88,304.39c-.06.91-.14,1.82-.26,2.72s-.23,1.71-.39,2.56l-5.78,1.08a25.06,25.06,0,0,1-6.15.63,41.49,41.49,0,0,1-5.62-1.05,30.13,30.13,0,0,0-23.72,5.44c-1.22.92-2.39,2-3.61,2.9a20.89,20.89,0,0,1-2.56,1.73,11.4,11.4,0,0,1-1.41.67c-3.45,1.37-7.33.91-11,.37-2.68-.39-5.35-.82-8-1.15a115.77,115.77,0,0,0-17.66-.84,43.15,43.15,0,0,1-1.61-4.33q-.22-.67-.42-1.38a30.77,30.77,0,0,1,6.21-.45,89.6,89.6,0,0,1,9.25,1,101,101,0,0,0,21.14.54,21.86,21.86,0,0,0,6.37-1.22c3.06-1.2,5.52-3.58,8.41-5.14,3.42-1.86,7.34-2.53,11.17-3.18,3.38-.58,6.88-1.14,10.21-.31,1.32.33,2.58.87,3.91,1.14C1322.11,306.92,1326,305.41,1329.88,304.39Z"/><path class="cls-57" d="M1308.7,339.78a45,45,0,0,1-52.8-3.9l.52.06c3.25.44,6.42,1.44,9.69,1.77,6.82.7,14-1.5,20.43.89,1.59.59,3.09,1.46,4.72,2,2.76.86,5.73.62,8.61.37A73.57,73.57,0,0,0,1308.7,339.78Z"/><path class="cls-54" d="M1289.19,328.94a39.86,39.86,0,0,0,9.31,1.05c2.91.1,6,.15,8.52-1.31a13.89,13.89,0,0,0,3.88-3.8,12.49,12.49,0,0,1,2.25-2.5c1.22-.92,2.81-1.35,3.81-2.51a3.43,3.43,0,0,0,0-4.42,5.26,5.26,0,0,0-2.18-1.24,42.79,42.79,0,0,0-9.62-1.81,17.89,17.89,0,0,0-4.07-.12,17.27,17.27,0,0,0-3.37.89,23.23,23.23,0,0,0-7.18,3.39,24.09,24.09,0,0,0-2.65,2.6l-2.81,3.09a21.27,21.27,0,0,0-3.65,4.86,1,1,0,0,0-.11.34c-.08,1.11,2.44.22,3,.27A26.71,26.71,0,0,1,1289.19,328.94Z"/><path class="cls-55" d="M1288.38,322.12a19.15,19.15,0,0,1,4.6-3.84,8.84,8.84,0,0,1,3.1-1.54,16.09,16.09,0,0,1,2.78-.08,40.8,40.8,0,0,0,5.47-.82,19.65,19.65,0,0,1,7.93.48.65.65,0,0,1,.34.17.71.71,0,0,1,.12.41,4.88,4.88,0,0,1-.36,2.91,8.59,8.59,0,0,1-2.17,1.93c-1.15,1-1.88,2.4-3.12,3.26-2.06,1.42-4.8.9-7.29.94-2.28.05-4.52.62-6.79.82a10.87,10.87,0,0,1-5.15-.61c-1-.41-1.42-.51-1-1.5A11.3,11.3,0,0,1,1288.38,322.12Z"/><path class="cls-56" d="M1297.59,319.46c1.58-.24,3.21-.09,4.8-.31a27.1,27.1,0,0,1,4.27-.68,1.88,1.88,0,0,1,1.8.93,1.69,1.69,0,0,1,0,.92,3.44,3.44,0,0,1-1.87,2.38,6.89,6.89,0,0,1-2.39.49l-12.17,1a1.57,1.57,0,0,1-.72-.06c-1.84-.83,1.35-2.23,1.86-2.49C1294.75,320.89,1295.76,319.74,1297.59,319.46Z"/><path class="cls-57" d="M1298.7,320.79a22.25,22.25,0,0,1,3-.16,12.55,12.55,0,0,0,2.37-.35c.33-.09.73-.17,1,.06a.66.66,0,0,1,.18.52,1.28,1.28,0,0,1-.82,1,3.6,3.6,0,0,1-1.34.23l-1.76.07a10.37,10.37,0,0,0-1.67.15c-.66.13-1.3.38-2,.45s-1.84.13-1.35-.7A4.07,4.07,0,0,1,1298.7,320.79Z"/></g><g id="Venus"><path class="cls-58" d="M654.3,587.16a21,21,0,0,1-37.81,12.59h0a21,21,0,0,1-2-3.17,18.27,18.27,0,0,1-.78-1.75,21.33,21.33,0,0,1-1.18-4.28,21.14,21.14,0,0,1-.27-3.39v0a21,21,0,0,1,20.77-21h.23A21,21,0,0,1,654.3,587.16Z"/><path class="cls-59" d="M651.8,590.87a1.7,1.7,0,0,1-.94,1.63c-.28.11-.59.12-.87.24-.78.32-1,1.3-1.34,2.08a1.92,1.92,0,0,1-.82,1c-1,.5-2.15-.49-3.28-.49-1.3,0-2.43,1.3-3.7,1a14.1,14.1,0,0,1-1.43-.66,10,10,0,0,0-1.91-.23,1.62,1.62,0,0,1-1.47-1,6.23,6.23,0,0,0-.09-.74,1.24,1.24,0,0,0-.45-.54,2.65,2.65,0,0,0-4.07,3c.55,1.51,2.28,2.19,3.86,2.51a20,20,0,0,0,5.3.33,4.89,4.89,0,0,1,2.5.21,7.38,7.38,0,0,0,1.1.6,2.78,2.78,0,0,0,1.87-.37,2.11,2.11,0,0,1-1,2.51c-1,.47-2.2.09-3.26.37a6,6,0,0,0-1.89,1.09,8.58,8.58,0,0,1-5.16,2c-1.88-.07-3.8-1.47-3.88-3.34a2,2,0,0,0-.23-1.22c-.46-.58-1.36-.19-2,.11a6,6,0,0,1-4.47.13.92.92,0,0,1-.43-.29.68.68,0,0,1-.09-.44c.07-1.25,1.51-1.86,2.42-2.73.47-.46.82-1.25.39-1.75a1.28,1.28,0,0,0-1.56-.08,11.75,11.75,0,0,1-1.43.89c-.53.19-1.27,0-1.41-.51a1.29,1.29,0,0,0-1,1,4,4,0,0,0,0,1.53c.27,1.57.67,3.33,2,4.16a10.3,10.3,0,0,0,2.41.78,2.4,2.4,0,0,1,1.8,1.61,6,6,0,0,1-3.71-.91c-.48-.31-1-.7-1.58-.53a4.26,4.26,0,0,0-.69.38l-.17.07a21.12,21.12,0,0,1-4.63-4.52h0a21,21,0,0,1-2-3.17,18.27,18.27,0,0,1-.78-1.75,1.21,1.21,0,0,1,.16-.16,21.38,21.38,0,0,1,3.26-2.58c.49-.32,1.07-.77,1-1.35A1,1,0,0,0,617,590a3,3,0,0,0-1.32.63l-2.07,1.44a1.43,1.43,0,0,1-.61.29h0a18.78,18.78,0,0,1-.39-1.84,21.14,21.14,0,0,1-.27-3.39v0a21,21,0,0,1,.35-3.82h.14a1,1,0,0,1,.44.12,1.76,1.76,0,0,1,.43.66,2.25,2.25,0,0,0,2.14.84,7.81,7.81,0,0,1,2.41,0,.82.82,0,0,1,.57.41c.11.25,0,.53,0,.81a1.29,1.29,0,0,0,.91,1.14,3.84,3.84,0,0,0,1.55.11,1.25,1.25,0,0,0,.94-.33c.37-.45,0-1.12-.49-1.5s-1-.83-.92-1.41c.11-.84,1.45-1.1,1.5-1.94.07-1-1.69-1.1-2.18-2a1.38,1.38,0,0,1,.26-1.47,3.53,3.53,0,0,1,1.33-.83,5.86,5.86,0,0,1,2.73,5.84,2.23,2.23,0,0,0,0,.89,1.55,1.55,0,0,0,.47.66,4.25,4.25,0,0,0,6-.55,1.58,1.58,0,0,0,.34-.7c.08-.69-.6-1.23-1.26-1.47-.37-.13-.77-.23-1.13-.39a2,2,0,0,1-.63-.39h0l-.11-.11c-.7-.8-.36-2,.08-3s1-2.09.47-3c-.38-.75-1.29-1.2-1.42-2a1.23,1.23,0,0,1,1.34-1.33c.82.13,1.26,1.06,1.34,1.88,0,.16,0,.32,0,.48a5,5,0,0,0,.31,2,3.38,3.38,0,0,0,.24.41,2.11,2.11,0,0,1,.5,1.26c0,.38-.27.83-.06,1.12l0,.06a.87.87,0,0,0,.47.2l.21,0a3.45,3.45,0,0,0,2.27-.14,8.65,8.65,0,0,0,1.11-.91,4.34,4.34,0,0,1,3.29-.74,13,13,0,0,1,3.29,1.08,1.82,1.82,0,0,1,.68.41,2.82,2.82,0,0,1,.44.8A7,7,0,0,0,646,583a1.24,1.24,0,0,0,.69.21l.16,0a5.45,5.45,0,0,0,.62-.35,1.22,1.22,0,0,1,1.53.5,1.21,1.21,0,0,1-.43,1.55,1.81,1.81,0,0,1-1.08.19h-.19a37.1,37.1,0,0,1-4.57-1.21l-.26-.05h0a4.67,4.67,0,0,0-4.24.86c-.58.57-1.08,1.45-1.89,1.39a2.26,2.26,0,0,0,.56,2.38,2.24,2.24,0,0,0,1.8.55,2.12,2.12,0,0,0,.62-.18c.54-.26,1-.73,1.51-1a2.3,2.3,0,0,1,.34-.12c1.17-.31,2.47.31,3.71.29s2.22-.52,3.24-.42a2.14,2.14,0,0,1,.81.23c.8.42,1.46,1.42,2.32,1.15A5,5,0,0,1,651.8,590.87Z"/><path class="cls-60" d="M649.48,590.83a5.16,5.16,0,0,1-.82,1.14,6.89,6.89,0,0,1-2.95,1.79,16.48,16.48,0,0,1-4.85.56,3.88,3.88,0,0,1-1.76-.26,6.65,6.65,0,0,1-1.48-1.28,5,5,0,0,0-6-.41,3.16,3.16,0,0,0-.78.72,3.35,3.35,0,0,0-.48,2.62,9.71,9.71,0,0,0,1,2.54,1.89,1.89,0,0,0,.51.73,1.94,1.94,0,0,0,.91.34l3.14.64c1.5.3,3.13.67,4.11,1.85a2.82,2.82,0,0,1-2.39,1,3,3,0,0,0-1.32,0c-.49.2-.74.77-1.2,1a1.67,1.67,0,0,1-1.63-.11,2.87,2.87,0,0,1-1.32-1.64,6.9,6.9,0,0,0-.35-1.2,2.74,2.74,0,0,0-2.8-1.12,10.14,10.14,0,0,1-3.19.19,8.47,8.47,0,0,0,1.78-2.18,2.84,2.84,0,0,0,0-2.7c-1.82-.86-3.9-1.74-5.79-1a2.28,2.28,0,0,1-.84.22c-.62,0-1.08-.71-1.71-.68a7.37,7.37,0,0,0-.47,2.41,6.57,6.57,0,0,0,1.17,3.91,4,4,0,0,1,.63,1,1,1,0,0,1-.27,1.08,1,1,0,0,1-.67.12c-1.31-.13-2.18-1.4-3.17-2.32h0a21,21,0,0,1-2-3.17,4.72,4.72,0,0,1,1.2-.93c.63-.35,1.4-.65,1.66-1.32.1-.28.11-.59.21-.87.19-.53.7-.86,1.07-1.27s.63-1.09.25-1.5a3.59,3.59,0,0,0-.5-.37,3.6,3.6,0,0,1-.53-.73,2,2,0,0,0-.31-.34,2.21,2.21,0,0,0-2.05-.47,5.16,5.16,0,0,0-1.6,1l-.27.2a3.09,3.09,0,0,1-1.09.54,21.14,21.14,0,0,1-.27-3.39v0l.12-.47.5-2a3.85,3.85,0,0,0,2.87,1.14,1.34,1.34,0,0,1,.69.07c.2.11.33.42.16.58a.54.54,0,0,1-.48.07,3.33,3.33,0,0,0-1.57.05,1.19,1.19,0,0,0-.88,1,2.61,2.61,0,0,1,2.25-.32,10.58,10.58,0,0,1,1.44.39,3.39,3.39,0,0,1,1.52,1,2,2,0,0,0,.42.45,1.36,1.36,0,0,0,.77.13h.74l1.25,0a1.33,1.33,0,0,0,.71-.14,1.46,1.46,0,0,0,.51-1.11,2.46,2.46,0,0,0-.06-1.32c-.27-.63-1-1-1.16-1.65a2.36,2.36,0,0,1,.58-1.62c.3-.51.53-1.2.15-1.64.47-.08.77.54.7,1a8.61,8.61,0,0,0-.36,1.39,2.11,2.11,0,0,0,.78,1.44,7.42,7.42,0,0,0,5.37,2,6.92,6.92,0,0,0,1.63-.25,1.84,1.84,0,0,0,1.06-.61.35.35,0,0,0,0-.08,2.32,2.32,0,0,0,.27-.83,4,4,0,0,0-.21-2.91h0a.16.16,0,0,0,0-.07,2.3,2.3,0,0,0-.87-.71h0a5.47,5.47,0,0,0-.74-.31,13.71,13.71,0,0,1-1.44-.53.85.85,0,0,1-.46-.39c-.14-.29,0-.63.17-.92,0-.08.07-.17.11-.26a5.61,5.61,0,0,0,.24-3.55c-.11-.44-.27-1,0-1.31a1,1,0,0,1,.8-.3l.27,0a1.82,1.82,0,0,1,1.19.59,1.47,1.47,0,0,1,.23,1.21,15.7,15.7,0,0,0-.44,2.1h0a1.38,1.38,0,0,0,.15.71,1.43,1.43,0,0,0,.31.42,3.6,3.6,0,0,0,1.66.67,8.88,8.88,0,0,0,3.32.27c.62-.1,1.21-.34,1.84-.43a3.89,3.89,0,0,1,1.69.15h0a3.61,3.61,0,0,1,.42.16h0a3.81,3.81,0,0,1,1.25.89,7.13,7.13,0,0,0,1.06,1.13,10.93,10.93,0,0,0,2,.72,15.32,15.32,0,0,1,2.5,1.84l.23.15a2.59,2.59,0,0,0,1.16.36,1.13,1.13,0,0,1-.8.95,2.13,2.13,0,0,1-1.55,0c-.9-.41-1.56-1.23-2.44-1.66a3.32,3.32,0,0,0-4,.93c-.36.47-.53,1.25,0,1.56a2.22,2.22,0,0,0,.77.18,1.27,1.27,0,0,1,.5.23,1.54,1.54,0,0,1,.4,2c-.37.54-1.09.81-1.3,1.43a1.31,1.31,0,0,0,.73,1.52,2.65,2.65,0,0,0,1.82.09,5.28,5.28,0,0,0,1.95-1,6.08,6.08,0,0,1,1.13-.83c.81-.37,2-.25,2.34-1.1l.27.12.8.35a.43.43,0,0,1,.22.18A.41.41,0,0,1,649.48,590.83Z"/><path class="cls-61" d="M617.69,596.23a2.82,2.82,0,0,0,.79-1.29c.11-.58-.08-1.35.43-1.66a1.25,1.25,0,0,1,.72-.1,16.1,16.1,0,0,0,5.81-.81,1.63,1.63,0,0,1,.68-.14c.82.07,1.11,1.22,1.88,1.52.27.11.61.12.78.35a.8.8,0,0,1,.11.4,6.16,6.16,0,0,1-.54,3.14c-.17.38-.36.89-.05,1.16.52.45,1.33-.56,1.93-.23a12.44,12.44,0,0,1-.85-3.26,4.24,4.24,0,0,1,.91-3.16,5.7,5.7,0,0,1,2.85-1.47,3.25,3.25,0,0,1,2.91.17,3.94,3.94,0,0,0,.59.49,2.69,2.69,0,0,0,.9.21,2.67,2.67,0,0,1,1.63,1c0-.71.07-1.56.69-1.91a.72.72,0,0,0,.29-.2c.16-.24-.13-.53-.37-.69a12.31,12.31,0,0,1-1.81-1.4,2.27,2.27,0,0,1-.85-1.35,2.45,2.45,0,0,1,.89-1.72,4.41,4.41,0,0,1,1.67-1.28c.94-.31,2,0,2.93-.24-.79-.52-1.67-1.17-1.75-2.11a2.74,2.74,0,0,0-.1-.91,1,1,0,0,0-1.24-.36,5.36,5.36,0,0,0-1.2.75,5.18,5.18,0,0,1-2.73.83,6.43,6.43,0,0,1-3.47-.92c-.72-.44-1.41-1.21-1.21-2a4.93,4.93,0,0,1,.79-1.26c.26-.43.31-1.1-.13-1.34s-1,.17-1.16.64-.17,1-.38,1.45c-.29.62-.93,1-1.43,1.46s-.84,1.3-.41,1.83a1.41,1.41,0,0,0,1.53.26,2.09,2.09,0,0,1,.91-.18,1.53,1.53,0,0,1,.73.44A3.57,3.57,0,0,0,634,583.6a2.66,2.66,0,0,1-2.24,3.13,6.71,6.71,0,0,0-1.55.12c-1.29.46-1.43,2.48-2.72,2.95a5.4,5.4,0,0,1-1.14.16c-1,.1-1.9.61-2.89.79a2.2,2.2,0,0,1-2.55-1c-.1-.29-.11-.62-.21-.93a2,2,0,0,0-1.5-1.2,4.54,4.54,0,0,0-2,.15,13.26,13.26,0,0,0-3.52,1.47.64.64,0,0,0-.23.2.51.51,0,0,0,.22.65,1.59,1.59,0,0,0,1.6-.09,5.71,5.71,0,0,1,1.52-.72,3.53,3.53,0,0,1,2.33.76c.54.34,1.15.82,1.06,1.45-.14,1-1.79,1-2.23,1.92a3.07,3.07,0,0,0-.18.91c-.1.7-.54,1-.8,1.62S617.14,596.84,617.69,596.23Z"/><path class="cls-62" d="M622.11,572.86a2.86,2.86,0,0,0,1.1-.69,1.85,1.85,0,0,1,.43-.45,1,1,0,0,1,.59-.07,4.81,4.81,0,0,1,1.44.39.85.85,0,0,1,.41.31.7.7,0,0,1,0,.63,2.4,2.4,0,0,1-2,1.28,2.93,2.93,0,0,0-1.1.24,2.52,2.52,0,0,0-.58.55,4.41,4.41,0,0,1-.64.58,1,1,0,0,1-.9.26c-.64-.23-.47-1.14-.31-1.63A2.29,2.29,0,0,1,622.11,572.86Z"/><path class="cls-62" d="M644.09,574.27a6.81,6.81,0,0,1,1.14.88c.56.4,1.26.55,1.8,1s.79.9,1.32,1.14c.36.17.77.18,1.14.34s.67.59.49.95a.9.9,0,0,1-.89.32,3.71,3.71,0,0,1-1.62-.51c-.86-.5-1.53-1.35-2.5-1.57-.66-.16-1.37,0-2-.12a4.86,4.86,0,0,1-2.33-1.42c-.24-.22-.51-.54-.36-.83s.48-.28.76-.27a.73.73,0,0,1,.39.1c.15.12.17.32.25.48C642.21,575.83,643.24,573.89,644.09,574.27Z"/><path class="cls-62" d="M647,597.86a.7.7,0,0,1,.25-.05c.47,0,1,.12,1.33-.23.12-.13.21-.34.39-.36a.34.34,0,0,1,.21.08.78.78,0,0,1,0,1c-.22.3-.56.51-.79.81a3.86,3.86,0,0,1-.3.38.5.5,0,0,1-.44.14C647.26,599.56,646.47,598.13,647,597.86Z"/><path class="cls-63" d="M637.46,596.76a.52.52,0,0,1,.37,0c.57.13,1.1.37,1.66.53a5.67,5.67,0,0,0,2.13.2,1.72,1.72,0,0,0,.59-.12,3.42,3.42,0,0,1,.34-.13.63.63,0,0,1,.68.8,1,1,0,0,1-.93.5c-1,0-2-.52-2.92-.3a3.55,3.55,0,0,1-.72.15,1.3,1.3,0,0,1-1.09-.45C637.4,597.71,637.11,597,637.46,596.76Z"/><path class="cls-63" d="M628,603.9a2.18,2.18,0,0,1-.23-.79.79.79,0,0,1,.34-.71c.4-.24.9.05,1.27.33l.46.34a.59.59,0,0,1,.17.18.57.57,0,0,1,0,.36,2.06,2.06,0,0,0,1.37,2.47c.73.2,1.56,0,2.23.35a.44.44,0,0,1,.18.15c.16.26-.16.54-.44.64C630.7,608.19,629,606,628,603.9Z"/><path class="cls-62" d="M628.86,603.6a.46.46,0,0,1,.51.29c.08.22,0,.47.07.69a1.19,1.19,0,0,0,.19.35l.66,1a1.24,1.24,0,0,0,.4.42,1.54,1.54,0,0,0,.6.09.68.68,0,0,1,.55.22.19.19,0,0,1,0,.19.26.26,0,0,1-.2.1,1.33,1.33,0,0,1-.76-.17,2.83,2.83,0,0,1-.28-.2l-.56-.43a2.14,2.14,0,0,1-.49-.46,3,3,0,0,1-.2-.34,3.86,3.86,0,0,0-.87-1c-.21-.18-.07-.2,0-.34S628.65,603.65,628.86,603.6Z"/><path class="cls-64" d="M654.3,587.16a21,21,0,0,1-7.11,15.75c.35-1.14.63-2.25.85-3.34.13-.62.23-1.23.32-1.83.15-1,.24-2,.29-2.92a27.13,27.13,0,0,0,0-2.85c0-.67-.08-1.32-.15-2-.1-.83-.23-1.63-.39-2.42-.07-.36-.15-.71-.23-1.06s-.23-.88-.36-1.31a.74.74,0,0,0,0-.14c-.19-.64-.4-1.27-.64-1.89a32,32,0,0,0-3.34-6.46c-.39-.58-.8-1.15-1.21-1.69a42.79,42.79,0,0,0-9.23-8.87h.23A21,21,0,0,1,654.3,587.16Z"/></g><g id="Neptune"><path class="cls-65" d="M990.76,71c0,.66,0,1.31-.06,2,0,.84-.12,1.66-.23,2.48A33.87,33.87,0,0,1,983.8,91.6a33.36,33.36,0,0,1-3.6,4,34,34,0,0,1-46.88,0,33.36,33.36,0,0,1-3.6-4,34,34,0,0,1-2.86-36.82,34.68,34.68,0,0,1,2.31-3.66,33.44,33.44,0,0,1,3.62-4.25,36.54,36.54,0,0,1,3.39-2.95,34,34,0,0,1,41.16,0,36.54,36.54,0,0,1,3.39,2.95,34,34,0,0,1,10,24.12Z"/><path class="cls-66" d="M980.73,46.87H932.79a36.54,36.54,0,0,1,3.39-2.95,34,34,0,0,1,41.16,0A36.54,36.54,0,0,1,980.73,46.87Z"/><path class="cls-67" d="M986.66,54.78h-59.8a34.68,34.68,0,0,1,2.31-3.66,33.44,33.44,0,0,1,3.62-4.25,36.54,36.54,0,0,1,3.39-2.95h41.16a36.54,36.54,0,0,1,3.39,2.95,34.8,34.8,0,0,1,5.93,7.91Z"/><path class="cls-68" d="M990.28,65.28h-67a33.7,33.7,0,0,1,3.62-10.5,34.68,34.68,0,0,1,2.31-3.66h55.18a33.13,33.13,0,0,1,2.31,3.66A33.7,33.7,0,0,1,990.28,65.28Z"/><path class="cls-67" d="M987.36,85.82a33.87,33.87,0,0,1-3.56,5.78,33.36,33.36,0,0,1-3.6,4,34,34,0,0,1-46.88,0,33.36,33.36,0,0,1-3.6-4,33.87,33.87,0,0,1-3.56-5.78Z"/><path class="cls-66" d="M983.8,91.6a33.36,33.36,0,0,1-3.6,4,34,34,0,0,1-46.88,0,33.36,33.36,0,0,1-3.6-4Z"/><path class="cls-67" d="M980.2,95.61a34,34,0,0,1-46.88,0Z"/><path class="cls-66" d="M990.7,73c0,.84-.12,1.66-.23,2.48H960.19V73Z"/><ellipse class="cls-68" cx="961.79" cy="73.42" rx="13.39" ry="5.19"/><ellipse class="cls-67" cx="960.66" cy="73.62" rx="6.96" ry="2.64"/><ellipse class="cls-66" cx="954.9" cy="76.67" rx="3.88" ry="0.41"/></g><path class="cls-1" d="M397,364.37c5.79,0,5.8-9,0-9s-5.8,9,0,9Z"/><path class="cls-1" d="M341.43,869.34c5.79,0,5.8-9,0-9s-5.81,9,0,9Z"/><path class="cls-1" d="M715.1,977.75c4.51,0,4.52-7,0-7s-4.51,7,0,7Z"/><path class="cls-1" d="M1050.07,897c4.5,0,4.51-7,0-7s-4.51,7,0,7Z"/><path class="cls-1" d="M1186.41,838c4.5,0,4.51-7,0-7s-4.51,7,0,7Z"/><path class="cls-1" d="M1684.65,902c4.5,0,4.51-7,0-7s-4.51,7,0,7Z"/><path class="cls-1" d="M1767.13,602.39c4.5,0,4.51-7,0-7s-4.52,7,0,7Z"/><path class="cls-1" d="M1784,457.63c4.5,0,4.51-7,0-7s-4.51,7,0,7Z"/><path class="cls-1" d="M1579.5,483.64l-1.69,1.68a3.5,3.5,0,1,0,5,4.95l1.68-1.69a3.49,3.49,0,0,0-4.94-4.94Z"/><path class="cls-1" d="M1405.23,486.24c4.5,0,4.51-7,0-7s-4.51,7,0,7Z"/><path class="cls-1" d="M1674.55,383.25a1.5,1.5,0,0,0,0-3,1.5,1.5,0,0,0,0,3Z"/><path class="cls-1" d="M540.05,44.92a1.5,1.5,0,0,0,0-3,1.5,1.5,0,0,0,0,3Z"/><path class="cls-1" d="M425.77,136v3.36a1.5,1.5,0,0,0,3,0V136a1.5,1.5,0,0,0-3,0Z"/><path class="cls-1" d="M400.34,252a1.5,1.5,0,0,0,0-3,1.5,1.5,0,0,0,0,3Z"/><path class="cls-1" d="M600.22,204.85a61.2,61.2,0,0,0,20.62,1.62c1.9-.18,1.92-3.18,0-3A58.79,58.79,0,0,1,601,202c-1.87-.47-2.67,2.42-.8,2.89Z"/><path class="cls-1" d="M781.6,233.42l3.35-1.71c1.73-.87.21-3.46-1.51-2.59l-3.35,1.71c-1.72.88-.21,3.47,1.51,2.59Z"/><path class="cls-1" d="M1166.21,80.27a1.5,1.5,0,0,0,0-3,1.5,1.5,0,0,0,0,3Z"/><path class="cls-1" d="M1528.11,73.53h1.68a1.5,1.5,0,0,0,0-3h-1.68a1.5,1.5,0,0,0,0,3Z"/><path class="cls-1" d="M1874.85,98.78a1.5,1.5,0,0,0,0-3,1.5,1.5,0,0,0,0,3Z"/><path class="cls-1" d="M1821,852.87a1.5,1.5,0,0,0,0-3,1.5,1.5,0,0,0,0,3Z"/><path class="cls-1" d="M227,977.93c2.57,0,2.57-4,0-4s-2.58,4,0,4Z"/><path class="cls-1" d="M423.9,993.08c2.58,0,2.58-4,0-4s-2.57,4,0,4Z"/></svg>