<svg xmlns="http://www.w3.org/2000/svg" xmlns:xlink="http://www.w3.org/1999/xlink" viewBox="0 0 1183.19 1015.76"><defs><style>.cls-1,.cls-39,.cls-88{fill:#070707;}.cls-1,.cls-46{opacity:0.19;}.cls-2{fill:#77401b;}.cls-3{fill:#945320;}.cls-4{fill:#f8c946;}.cls-10,.cls-119,.cls-124,.cls-5,.cls-90{fill:#5b5b5b;}.cls-10,.cls-118,.cls-119,.cls-121,.cls-122,.cls-123,.cls-124,.cls-5,.cls-7,.cls-8,.cls-9{stroke:#151616;}.cls-10,.cls-100,.cls-101,.cls-102,.cls-103,.cls-11,.cls-112,.cls-113,.cls-114,.cls-115,.cls-118,.cls-119,.cls-121,.cls-122,.cls-123,.cls-124,.cls-125,.cls-126,.cls-127,.cls-128,.cls-44,.cls-45,.cls-5,.cls-6,.cls-7,.cls-75,.cls-79,.cls-8,.cls-80,.cls-83,.cls-86,.cls-87,.cls-89,.cls-9,.cls-91,.cls-92,.cls-93,.cls-94,.cls-95,.cls-98,.cls-99{stroke-miterlimit:10;}.cls-5{stroke-width:1.48px;}.cls-11,.cls-125,.cls-6,.cls-70,.cls-75{fill:#898989;}.cls-11,.cls-125,.cls-6,.cls-75{stroke:#020202;}.cls-6{stroke-width:0.97px;}.cls-121,.cls-7{fill:#212121;}.cls-10,.cls-7,.cls-8,.cls-9{stroke-width:1.29px;}.cls-118,.cls-120,.cls-123,.cls-8{fill:#4d4d4d;}.cls-122,.cls-9{fill:#282828;}.cls-11{stroke-width:0.85px;}.cls-12{fill:url(#linear-gradient);}.cls-13{fill:url(#linear-gradient-2);}.cls-14{fill:#232323;}.cls-15{fill:url(#linear-gradient-3);}.cls-16{fill:url(#linear-gradient-4);}.cls-17{fill:url(#linear-gradient-5);}.cls-18{fill:url(#linear-gradient-6);}.cls-19{fill:#991616;}.cls-20{fill:#d8251d;}.cls-21{fill:url(#linear-gradient-7);}.cls-22{fill:url(#linear-gradient-8);}.cls-23{fill:#818282;}.cls-24{fill:url(#linear-gradient-9);}.cls-25{fill:url(#linear-gradient-10);}.cls-26{fill:url(#linear-gradient-11);}.cls-27{fill:#202628;}.cls-28{fill:url(#linear-gradient-12);}.cls-29{fill:url(#linear-gradient-13);}.cls-30{fill:url(#linear-gradient-14);}.cls-31{fill:url(#linear-gradient-15);}.cls-32{fill:#333;}.cls-33{fill:url(#linear-gradient-16);}.cls-34{fill:url(#linear-gradient-17);}.cls-35{fill:#555656;}.cls-36{fill:url(#linear-gradient-18);}.cls-37{fill:url(#linear-gradient-19);}.cls-38{opacity:0.28;}.cls-40{fill:#d3161d;}.cls-41{fill:url(#linear-gradient-20);}.cls-42{fill:url(#linear-gradient-21);}.cls-43{fill:url(#linear-gradient-22);}.cls-102,.cls-103,.cls-126,.cls-127,.cls-128,.cls-44,.cls-92{fill:none;}.cls-44,.cls-45{stroke:#000;}.cls-44{stroke-width:1.58px;}.cls-45,.cls-51{fill:#050505;}.cls-45{stroke-width:0.79px;}.cls-45,.cls-49{opacity:0.2;}.cls-47{fill:url(#linear-gradient-23);}.cls-48{fill:url(#linear-gradient-24);}.cls-49{fill:url(#linear-gradient-25);}.cls-50{opacity:0.27;}.cls-52{fill:url(#linear-gradient-26);}.cls-53{fill:url(#linear-gradient-27);}.cls-54{fill:url(#linear-gradient-28);}.cls-55{fill:url(#linear-gradient-29);}.cls-56{fill:url(#linear-gradient-30);}.cls-57{fill:url(#linear-gradient-31);}.cls-58{fill:url(#linear-gradient-32);}.cls-59{fill:url(#linear-gradient-33);}.cls-60{fill:url(#linear-gradient-34);}.cls-61{fill:url(#linear-gradient-35);}.cls-62{fill:url(#linear-gradient-36);}.cls-63{fill:url(#linear-gradient-37);}.cls-64{fill:url(#linear-gradient-38);}.cls-65{fill:url(#linear-gradient-39);}.cls-66{fill:url(#linear-gradient-40);}.cls-67{fill:url(#linear-gradient-41);}.cls-68{fill:url(#linear-gradient-42);}.cls-69{fill:#683919;}.cls-71{fill:#383838;}.cls-72{fill:url(#linear-gradient-43);}.cls-73{fill:#e2b647;}.cls-74{fill:url(#linear-gradient-44);}.cls-76{fill:#020202;opacity:0.22;}.cls-77{fill:#f2ca68;}.cls-78{fill:#c4c4c4;}.cls-79,.cls-81{fill:#545453;}.cls-100,.cls-101,.cls-102,.cls-112,.cls-113,.cls-114,.cls-115,.cls-79,.cls-80,.cls-81,.cls-83,.cls-86,.cls-91,.cls-92,.cls-93,.cls-94,.cls-95,.cls-98,.cls-99{stroke:#0a0a0a;}.cls-79,.cls-80{stroke-width:2.41px;}.cls-80{fill:#1e1e1e;}.cls-81,.cls-90{stroke-linejoin:round;}.cls-81{stroke-width:2.41px;}.cls-82{fill:#7f1119;}.cls-83,.cls-99{fill:#101011;}.cls-83{stroke-width:1.91px;opacity:0.35;}.cls-84{fill:url(#linear-gradient-45);}.cls-85{fill:url(#linear-gradient-46);}.cls-86{fill:#3a3a3a;stroke-width:0.92px;}.cls-87{fill:#e5e5e5;}.cls-103,.cls-87,.cls-89,.cls-90{stroke:#0f0f0f;}.cls-87,.cls-89,.cls-90{stroke-width:0.89px;}.cls-88{opacity:0.47;}.cls-89{fill:#7f7f7f;}.cls-101,.cls-112,.cls-113,.cls-114,.cls-115,.cls-91,.cls-92,.cls-93,.cls-94{stroke-width:0.78px;}.cls-91{fill:url(#radial-gradient);}.cls-93{fill:url(#radial-gradient-2);}.cls-94{fill:url(#radial-gradient-3);}.cls-95{fill:#38383a;}.cls-95,.cls-99{stroke-width:1.66px;}.cls-96{fill:#777;}.cls-97{fill:#b5b5b5;}.cls-100,.cls-102,.cls-98{stroke-width:1.48px;}.cls-98{fill:url(#radial-gradient-4);}.cls-100{fill:url(#radial-gradient-5);}.cls-101{fill:url(#radial-gradient-6);}.cls-103,.cls-126,.cls-128{stroke-width:2px;}.cls-104{fill:#5e0e18;}.cls-105{fill:#352f49;}.cls-106{fill:url(#radial-gradient-7);}.cls-107{fill:url(#radial-gradient-8);}.cls-108{fill:url(#radial-gradient-9);}.cls-109{fill:#dbdddd;}.cls-110{fill:#0fb0db;}.cls-111{fill:#303435;}.cls-112{fill:url(#radial-gradient-10);}.cls-113{fill:url(#radial-gradient-11);}.cls-114{fill:url(#radial-gradient-12);}.cls-115{fill:url(#radial-gradient-13);}.cls-116{fill:url(#radial-gradient-14);}.cls-117{fill:#2d2d2d;}.cls-118,.cls-119{stroke-width:1.52px;}.cls-121,.cls-122,.cls-123,.cls-124{stroke-width:1.64px;}.cls-125{stroke-width:1.08px;}.cls-126,.cls-127{stroke:#070707;}.cls-128{stroke:#050505;}</style><linearGradient id="linear-gradient" x1="920.59" y1="608.62" x2="1065.39" y2="556.21" gradientUnits="userSpaceOnUse"><stop offset="0" stop-color="#333"/><stop offset="0.82" stop-color="#1a1a1a"/></linearGradient><linearGradient id="linear-gradient-2" x1="921.77" y1="613.29" x2="1066.31" y2="560.98" xlink:href="#linear-gradient"/><linearGradient id="linear-gradient-3" x1="1122.82" y1="915.98" x2="1280.99" y2="756.34" gradientUnits="userSpaceOnUse"><stop offset="0.26" stop-color="#494949"/><stop offset="0.36" stop-color="#4d4d4d"/><stop offset="0.84" stop-color="#5e5d5d"/></linearGradient><linearGradient id="linear-gradient-4" x1="859.49" y1="661.19" x2="998.05" y2="661.19" gradientUnits="userSpaceOnUse"><stop offset="0" stop-color="#4d4d4d"/><stop offset="0.49" stop-color="#4f4f4f"/><stop offset="0.66" stop-color="#565656"/><stop offset="0.79" stop-color="#616161"/><stop offset="0.82" stop-color="#666"/></linearGradient><linearGradient id="linear-gradient-5" x1="1252.52" y1="927.6" x2="1281.13" y2="898.75" gradientUnits="userSpaceOnUse"><stop offset="0.52" stop-color="#666"/><stop offset="0.74" stop-color="#585858"/><stop offset="0.98" stop-color="#4d4d4d"/></linearGradient><linearGradient id="linear-gradient-6" x1="1232.37" y1="918.51" x2="1272.94" y2="918.51" gradientTransform="translate(2096.19 -385.81) rotate(86.64)" gradientUnits="userSpaceOnUse"><stop offset="0.52" stop-color="#b3b3b3"/><stop offset="0.74" stop-color="#c1c1c1"/><stop offset="0.98" stop-color="#ccc"/></linearGradient><linearGradient id="linear-gradient-7" x1="1188.75" y1="847.1" x2="1223.42" y2="812.13" xlink:href="#linear-gradient-5"/><linearGradient id="linear-gradient-8" x1="1164.32" y1="836.09" x2="1213.49" y2="836.09" gradientTransform="translate(1953.9 -399.76) rotate(86.64)" xlink:href="#linear-gradient-6"/><linearGradient id="linear-gradient-9" x1="1169.28" y1="626.43" x2="1221.68" y2="626.43" gradientTransform="translate(0.01 42.77) rotate(0.14)" gradientUnits="userSpaceOnUse"><stop offset="0" stop-color="#ccc"/><stop offset="0.82" stop-color="#e6e6e6"/></linearGradient><linearGradient id="linear-gradient-10" x1="1022.59" y1="640.05" x2="874.65" y2="655.41" gradientUnits="userSpaceOnUse"><stop offset="0" stop-color="#666"/><stop offset="1" stop-color="#3d3d3d"/></linearGradient><linearGradient id="linear-gradient-11" x1="1059.69" y1="815.42" x2="907.85" y2="830" gradientUnits="userSpaceOnUse"><stop offset="0" stop-color="#666"/><stop offset="0.27" stop-color="#505050"/><stop offset="1" stop-color="#3d3d3d"/></linearGradient><linearGradient id="linear-gradient-12" x1="1030.12" y1="723.99" x2="880.69" y2="739.91" xlink:href="#linear-gradient-10"/><linearGradient id="linear-gradient-13" x1="1554.11" y1="931.76" x2="1381.59" y2="948.61" xlink:href="#linear-gradient-10"/><linearGradient id="linear-gradient-14" x1="1115.15" y1="748.75" x2="1165.05" y2="698.42" xlink:href="#linear-gradient-5"/><linearGradient id="linear-gradient-15" x1="1080" y1="732.9" x2="1150.76" y2="732.9" gradientTransform="translate(1781.66 -423.5) rotate(86.64)" xlink:href="#linear-gradient-6"/><linearGradient id="linear-gradient-16" x1="848.83" y1="610.17" x2="980.18" y2="610.17" xlink:href="#linear-gradient-4"/><linearGradient id="linear-gradient-17" x1="1443.42" y1="590.68" x2="1268.88" y2="618.61" xlink:href="#linear-gradient-10"/><linearGradient id="linear-gradient-18" x1="1019.13" y1="764.01" x2="1021.24" y2="764.01" xlink:href="#linear-gradient-4"/><linearGradient id="linear-gradient-19" x1="930.95" y1="867.57" x2="1047.94" y2="867.57" xlink:href="#linear-gradient-4"/><linearGradient id="linear-gradient-20" x1="701.68" y1="1145.19" x2="693.85" y2="746.45" gradientUnits="userSpaceOnUse"><stop offset="0.68" stop-color="#ad2323"/><stop offset="0.73" stop-color="#992020"/><stop offset="0.85" stop-color="#651717"/><stop offset="0.86" stop-color="#601616"/></linearGradient><linearGradient id="linear-gradient-21" x1="730.86" y1="204.2" x2="731.43" y2="565.03" gradientUnits="userSpaceOnUse"><stop offset="0.68" stop-color="#d63030"/><stop offset="0.72" stop-color="#c22c2c"/><stop offset="0.8" stop-color="#8e2020"/><stop offset="0.86" stop-color="#601616"/></linearGradient><linearGradient id="linear-gradient-22" x1="568.31" y1="487.52" x2="911.73" y2="487.52" gradientUnits="userSpaceOnUse"><stop offset="0.68" stop-color="#ba2a2a"/><stop offset="0.82" stop-color="#ce3030"/><stop offset="1" stop-color="#ed3a3a"/></linearGradient><linearGradient id="linear-gradient-23" x1="407.34" y1="658.99" x2="553.16" y2="606.21" xlink:href="#linear-gradient"/><linearGradient id="linear-gradient-24" x1="408.53" y1="663.69" x2="554.09" y2="611.01" xlink:href="#linear-gradient"/><linearGradient id="linear-gradient-25" x1="608.45" y1="968.28" x2="767.74" y2="807.51" xlink:href="#linear-gradient-3"/><linearGradient id="linear-gradient-26" x1="345.82" y1="711.93" x2="485.35" y2="711.93" xlink:href="#linear-gradient-4"/><linearGradient id="linear-gradient-27" x1="739.07" y1="979.97" x2="767.88" y2="950.92" xlink:href="#linear-gradient-5"/><linearGradient id="linear-gradient-28" x1="718.78" y1="970.83" x2="759.63" y2="970.83" gradientTransform="translate(1665.05 176) rotate(86.64)" xlink:href="#linear-gradient-6"/><linearGradient id="linear-gradient-29" x1="674.85" y1="898.91" x2="709.76" y2="863.7" xlink:href="#linear-gradient-5"/><linearGradient id="linear-gradient-30" x1="650.25" y1="887.82" x2="699.77" y2="887.82" gradientTransform="translate(1521.75 161.95) rotate(86.64)" xlink:href="#linear-gradient-6"/><linearGradient id="linear-gradient-31" x1="671.78" y1="722.15" x2="724.62" y2="722.15" xlink:href="#linear-gradient-5"/><linearGradient id="linear-gradient-32" x1="655.36" y1="678.24" x2="708.12" y2="678.24" gradientTransform="translate(0.01 42.77) rotate(0.14)" xlink:href="#linear-gradient-6"/><linearGradient id="linear-gradient-33" x1="510.06" y1="690.64" x2="361.08" y2="706.11" xlink:href="#linear-gradient-10"/><linearGradient id="linear-gradient-34" x1="547.42" y1="867.25" x2="394.51" y2="881.93" xlink:href="#linear-gradient-11"/><linearGradient id="linear-gradient-35" x1="517.64" y1="775.17" x2="367.16" y2="791.2" xlink:href="#linear-gradient-10"/><linearGradient id="linear-gradient-36" x1="1042.79" y1="984.17" x2="869.05" y2="1001.14" xlink:href="#linear-gradient-10"/><linearGradient id="linear-gradient-37" x1="600.73" y1="799.86" x2="650.98" y2="749.18" xlink:href="#linear-gradient-5"/><linearGradient id="linear-gradient-38" x1="565.33" y1="783.91" x2="636.59" y2="783.91" gradientTransform="translate(1348.31 138.05) rotate(86.64)" xlink:href="#linear-gradient-6"/><linearGradient id="linear-gradient-39" x1="335.07" y1="660.55" x2="467.35" y2="660.55" xlink:href="#linear-gradient-4"/><linearGradient id="linear-gradient-40" x1="931.37" y1="640.67" x2="755.51" y2="668.81" xlink:href="#linear-gradient-10"/><linearGradient id="linear-gradient-41" x1="506.56" y1="815.47" x2="508.71" y2="815.47" xlink:href="#linear-gradient-4"/><linearGradient id="linear-gradient-42" x1="417.77" y1="919.76" x2="535.6" y2="919.76" xlink:href="#linear-gradient-4"/><linearGradient id="linear-gradient-43" x1="1008.51" y1="335.6" x2="1008.52" y2="477.84" gradientUnits="userSpaceOnUse"><stop offset="0" stop-color="#4d4d4d"/><stop offset="0.25" stop-color="#515151"/><stop offset="0.47" stop-color="#5b5b5b"/><stop offset="0.68" stop-color="#6e6e6e"/><stop offset="0.89" stop-color="#878787"/><stop offset="1" stop-color="#999"/></linearGradient><linearGradient id="linear-gradient-44" x1="898.05" y1="410.25" x2="988.11" y2="410.25" gradientTransform="translate(1320.08 -546.61) rotate(87.99)" gradientUnits="userSpaceOnUse"><stop offset="0" stop-color="#4d4d4d"/><stop offset="0.4" stop-color="#494949"/><stop offset="0.76" stop-color="#3f3f3f"/><stop offset="1" stop-color="#333"/></linearGradient><linearGradient id="linear-gradient-45" x1="280.9" y1="55.18" x2="627.8" y2="55.18" gradientUnits="userSpaceOnUse"><stop offset="0" stop-color="#333"/><stop offset="0.32" stop-color="#363636"/><stop offset="0.57" stop-color="#404040"/><stop offset="0.8" stop-color="#505050"/><stop offset="1" stop-color="#666"/></linearGradient><linearGradient id="linear-gradient-46" x1="586.31" y1="32.9" x2="963.91" y2="32.9" xlink:href="#linear-gradient-45"/><radialGradient id="radial-gradient" cx="917.84" cy="107.94" r="12.18" gradientUnits="userSpaceOnUse"><stop offset="0.2" stop-color="#666"/><stop offset="0.57" stop-color="#585858"/><stop offset="1" stop-color="#4d4d4d"/></radialGradient><radialGradient id="radial-gradient-2" cx="408.61" cy="140.73" r="12.18" xlink:href="#radial-gradient"/><radialGradient id="radial-gradient-3" cx="420.85" cy="267.08" r="12.18" xlink:href="#radial-gradient"/><radialGradient id="radial-gradient-4" cx="553.32" cy="171.14" fx="592.6293096657417" r="39.45" gradientUnits="userSpaceOnUse"><stop offset="0.57" stop-color="#4d4d4d"/><stop offset="1" stop-color="#1a1a1a"/></radialGradient><radialGradient id="radial-gradient-5" cx="802.13" cy="154.97" fx="841.4376646685164" r="39.45" xlink:href="#radial-gradient-4"/><radialGradient id="radial-gradient-6" cx="918.34" cy="226.42" r="12.18" xlink:href="#radial-gradient"/><radialGradient id="radial-gradient-7" cx="995.25" cy="657.28" r="19.72" gradientTransform="translate(16.24 -23.96) rotate(1.39)" gradientUnits="userSpaceOnUse"><stop offset="0.23" stop-color="#acd9ea"/><stop offset="1" stop-color="#00a99d"/></radialGradient><radialGradient id="radial-gradient-8" cx="1047.78" cy="654.25" r="19.72" gradientTransform="translate(16.19 -25.23) rotate(1.39)" gradientUnits="userSpaceOnUse"><stop offset="0.22" stop-color="#f9f693"/><stop offset="1" stop-color="#ff0"/></radialGradient><radialGradient id="radial-gradient-9" cx="1099.27" cy="652.82" r="19.72" gradientTransform="translate(16.17 -26.48) rotate(1.39)" gradientUnits="userSpaceOnUse"><stop offset="0.22" stop-color="#8cc63f"/><stop offset="1" stop-color="#006837"/></radialGradient><radialGradient id="radial-gradient-10" cx="843.84" cy="598.11" r="12.18" xlink:href="#radial-gradient"/><radialGradient id="radial-gradient-11" cx="794.54" cy="718.6" r="12.18" xlink:href="#radial-gradient"/><radialGradient id="radial-gradient-12" cx="845.23" cy="715.6" r="12.18" xlink:href="#radial-gradient"/><radialGradient id="radial-gradient-13" cx="799.7" cy="600.17" r="12.18" xlink:href="#radial-gradient"/><radialGradient id="radial-gradient-14" cx="804.34" cy="556.9" r="55.45" gradientTransform="translate(-311.24 2.56) scale(0.94)" gradientUnits="userSpaceOnUse"><stop offset="0" stop-color="#e6e6e6"/><stop offset="0.24" stop-color="#bfbfbf"/><stop offset="0.76" stop-color="#6d6d6d"/><stop offset="1" stop-color="#4d4d4d"/></radialGradient></defs><title>robot</title><g id="Layer_2" data-name="Layer 2"><path class="cls-1" d="M896.93,971.61l260.91-8.68,46,33.32s27.64,2.88,46.5-.54,7.06-125.45,7.06-125.45l-291.76,28L871,914.67Z" transform="translate(-360.7 -34)"/></g><g id="Layer_1" data-name="Layer 1"><path class="cls-2" d="M1355.08,454.1l-5.43,4.68-109.51,94.49a45.07,45.07,0,0,1-24.36,7.11,45.8,45.8,0,0,1-13-1.87l-.2-.06a45.15,45.15,0,0,1-25.25-19,44.65,44.65,0,0,1-5.92-14.07h0a45.59,45.59,0,0,1,19.75-48.69L1297.47,385l8.65-7.47c10.52-5.18,20.06-7.35,28.66-7.35,24.72,0,41.66,17.92,51.65,33.55.23.36.46.73.66,1.09C1399.07,425.31,1375.77,440.87,1355.08,454.1Z" transform="translate(-360.7 -34)"/><path class="cls-3" d="M1380.27,230l-33.11,103.67a45.59,45.59,0,0,0,21,60.74h0a45.59,45.59,0,0,0,60.74-21L1462,269.69A45.59,45.59,0,0,0,1441,209h0A45.57,45.57,0,0,0,1380.27,230Z" transform="translate(-360.7 -34)"/><path class="cls-4" d="M1402.38,251.65l-33.11,103.66a45.6,45.6,0,0,0,21,60.75h0A45.6,45.6,0,0,0,1451,395l33.1-103.67a45.59,45.59,0,0,0-21-60.74h0A45.58,45.58,0,0,0,1402.38,251.65Z" transform="translate(-360.7 -34)"/><path class="cls-4" d="M1383.67,479l-12.27,10.59-102.67,88.58a45.12,45.12,0,0,1-24.35,7.11,46,46,0,0,1-21.6-5.39,45.27,45.27,0,0,1-19.82-21l-.14-.3a45.62,45.62,0,0,1,17-57l99.44-85.81,15.5-13.37a45.16,45.16,0,0,1,24.36-7.11,45.86,45.86,0,0,1,28,9.55,44.87,44.87,0,0,1,10.4,11.38C1411,437.23,1404.6,460.69,1383.67,479Z" transform="translate(-360.7 -34)"/><path class="cls-5" d="M1421.43,427.74l-24.37,24.58a34.41,34.41,0,0,1-47.52-9.75h0a34.41,34.41,0,0,1,9.75-47.52l24.38-24.58a34.41,34.41,0,0,1,47.52,9.75h0A34.4,34.4,0,0,1,1421.43,427.74Z" transform="translate(-360.7 -34)"/><circle class="cls-6" cx="1012.86" cy="394.92" r="16.49"/><circle class="cls-6" cx="1049.51" cy="361.26" r="16.49"/><path class="cls-1" d="M1345.09,512.23l-76.36,65.89a45.12,45.12,0,0,1-24.35,7.11,46,46,0,0,1-21.6-5.39l-19.82-21-.34-.36-31.17-33.07h0a45.59,45.59,0,0,1,19.75-48.69L1297.47,385l17,24,4.78,6.75Z" transform="translate(-360.7 -34)"/><path class="cls-7" d="M1485.23,228.07l-46.86,27.23-23.22-45.75-2.44-3.13h0c-.42-.84-.81-1.72-1.15-2.6-5.89-14.9,1-29.65,13.7-34.67,10.77-4.25,23.24.86,30.37,11.6l.07.12.75,1.19Z" transform="translate(-360.7 -34)"/><path class="cls-8" d="M1511.63,87.88l-1.32-1.74A14.21,14.21,0,0,1,1511.63,87.88Z" transform="translate(-360.7 -34)"/><path class="cls-9" d="M1514.5,144.63l-4.11,11.76a14.67,14.67,0,0,1-5.62,7.31l-51.94,35.23-1-6.45A28.24,28.24,0,0,0,1445,178.1l-8.07,2.87-6.64-11.76-3-1,1.69-1.24,37.06-27.15a14.68,14.68,0,0,0,5.94-13.24l-5.63-58.92a12.94,12.94,0,0,1-.07-1.39,14.69,14.69,0,0,1,25.7-9.71l1.31,1.73L1502.2,70l-5.71-2.58L1514.82,136A14.68,14.68,0,0,1,1514.5,144.63Z" transform="translate(-360.7 -34)"/><path class="cls-8" d="M1436.93,181l5.87,2a28.24,28.24,0,0,1,18.63,22.27l1,6.45,51.94-35.23a14.61,14.61,0,0,0,5.61-7.3l4.11-11.77a14.69,14.69,0,0,0,.33-8.63l-19.67-73.55a14.67,14.67,0,0,0-23.11-7.85h0a14.66,14.66,0,0,0-5.67,13l5.63,58.91a14.7,14.7,0,0,1-5.94,13.24Z" transform="translate(-360.7 -34)"/><path class="cls-9" d="M1532.81,174.24,1528.7,186a14.71,14.71,0,0,1-5.62,7.31l-51.93,35.22-1-6.45a28.27,28.27,0,0,0-6.81-14.38l-8.08,2.87-6.64-11.76-3-1,1.69-1.24,37.06-27.15a14.65,14.65,0,0,0,5.93-13.24l-5.63-58.91c0-.47-.06-.94-.06-1.4a14.68,14.68,0,0,1,25.69-9.71l1.32,1.74,8.89,11.75-5.72-2.57,18.34,68.55A14.77,14.77,0,0,1,1532.81,174.24Z" transform="translate(-360.7 -34)"/><path class="cls-8" d="M1455.25,210.58l5.86,2a28.25,28.25,0,0,1,18.64,22.27l1,6.46,51.93-35.24a14.64,14.64,0,0,0,5.62-7.3l4.11-11.77a14.68,14.68,0,0,0,.32-8.63l-19.66-73.55A14.67,14.67,0,0,0,1500,97h0a14.68,14.68,0,0,0-5.68,13l5.63,58.91a14.67,14.67,0,0,1-5.93,13.24Z" transform="translate(-360.7 -34)"/><path class="cls-8" d="M1396.33,77.65l-4.13-5A14.65,14.65,0,0,1,1396.33,77.65Z" transform="translate(-360.7 -34)"/><path class="cls-9" d="M1450.2,202.76l-19.55-14.32a28.21,28.21,0,0,0-18.22,22.12l-1,6.46L1370,188.94l-.71,6.08-12-15.06a14.46,14.46,0,0,1-3.45-5.49l-4.1-11.76a14.68,14.68,0,0,1-.33-8.63l19.67-73.55a14.68,14.68,0,0,1,23.11-7.86l4.13,5,11.72,14.08-10.91,1.61-4.9,51.29a14.68,14.68,0,0,0,5.94,13.24l38.75,28.39Z" transform="translate(-360.7 -34)"/><path class="cls-8" d="M1450.2,202.76l-5.86,2a28.22,28.22,0,0,0-18.64,22.27l.48,5.45-53.43-34.23a14.67,14.67,0,0,1-5.62-7.31L1363,179.22a14.69,14.69,0,0,1-.32-8.63L1382.36,97a14.68,14.68,0,0,1,23.11-7.86h0a14.69,14.69,0,0,1,5.68,13l-5.63,58.92a14.67,14.67,0,0,0,5.93,13.24Z" transform="translate(-360.7 -34)"/><ellipse class="cls-10" cx="1460.34" cy="237.67" rx="29.02" ry="24.73" transform="translate(216.13 1390.47) rotate(-62.58)"/><ellipse class="cls-11" cx="1460.34" cy="237.67" rx="14.83" ry="12.15" transform="translate(288.93 1441.34) rotate(-66.02)"/><polygon class="cls-12" points="980.07 602.43 977.02 607.01 852.36 618.84 851.2 614.92 974.64 599.1 979.98 602.15 980.07 602.43"/><polygon class="cls-13" points="982.55 610.97 855.14 623.63 854.37 623.63 851.99 618.88 977.02 607.01 982.55 610.97"/><path class="cls-14" d="M1288.64,940.36c-2.8,28.23-20.45,47.85-41.38,45.78a30.07,30.07,0,0,1-16.12-6.83l-149.2-168.37c-13.72-13.59-20.78-44.76-16.38-81.73,4.56-38.39,17.72-69.48,35-78.21l0-.27s63.44-33.48,64-33.54a40,40,0,0,1,14-.92c16.84,2,25.79,16.3,30.4,32.13.5,3.4.77,3,78.35,270.42A66.2,66.2,0,0,1,1288.64,940.36Z" transform="translate(-360.7 -34)"/><path class="cls-15" d="M1331.37,942c-2.8,28.22-21.84,8.7-41.38,16.49s-36.2-2.63-40.89-6.45L1124.67,812.53c-13.72-13.6-20.78-44.77-16.38-81.74,4.56-38.39,17.72-69.48,35-78.21l0-.27s63.44-33.48,64-33.54a40,40,0,0,1,14-.92c16.84,2,25.79,16.3,30.4,32.13.5,3.4.77,3,78.35,270.43A66.18,66.18,0,0,1,1331.37,942Z" transform="translate(-360.7 -34)"/><polygon class="cls-16" points="859.53 639.59 859.49 637.87 982.34 630.81 998.05 676.04 996.51 679.09 873.04 691.57 859.53 639.59"/><path class="cls-14" d="M1340.16,669.11l13.95,40.15-117.26,11.85-11.79-45.38,115.1-6.62m5.76-8.6L1216,668l.15,6.19L1230.63,730,1359.88,717l3.35-6.64-17.31-49.83Z" transform="translate(-360.7 -34)"/><path class="cls-17" d="M1284.4,921c-1.28,21.81-11.33,39-22.46,38.31l-.35,0v.1l-12.32-1.32,4.33-3c-6.48-6.7-10.43-20.63-9.5-36.46,1-16.79,7.18-30.82,15.05-36.09l-4.89-3.67,12.31,1.32v.14C1280.61,881.15,1285.7,898.91,1284.4,921Z" transform="translate(-360.7 -34)"/><ellipse class="cls-18" cx="1252.66" cy="918.51" rx="39.56" ry="20.18" transform="translate(-98.38 2081.19) rotate(-86.64)"/><path class="cls-19" d="M1261,917.94c-.53,9-4.69,16.12-9.3,15.85h-.14v0l-5.1-.54,1.8-1.24c-2.69-2.77-4.32-8.53-3.94-15.08.41-7,3-12.76,6.23-14.93l-2-1.52,5.09.54v.06C1259.42,901.45,1261.52,908.8,1261,917.94Z" transform="translate(-360.7 -34)"/><ellipse class="cls-20" cx="1247.85" cy="916.91" rx="16.37" ry="8.35" transform="translate(-101.31 2074.89) rotate(-86.64)"/><path class="cls-21" d="M1227.39,839.09c-1.55,26.43-13.74,47.22-27.23,46.43l-.42,0v.13l-14.92-1.6,5.25-3.61c-7.86-8.12-12.65-25-11.52-44.19,1.19-20.35,8.7-37.36,18.25-43.74l-5.93-4.45,14.92,1.6v.16C1222.79,790.8,1229,812.32,1227.39,839.09Z" transform="translate(-360.7 -34)"/><ellipse class="cls-22" cx="1188.91" cy="836.09" rx="47.95" ry="24.46" transform="translate(-76.12 1939.96) rotate(-86.64)"/><path class="cls-19" d="M1199,835.4c-.64,10.93-5.68,19.53-11.26,19.21l-.18,0v.06l-6.18-.67,2.17-1.49c-3.25-3.36-5.23-10.34-4.77-18.28.5-8.43,3.6-15.46,7.56-18.1l-2.46-1.85,6.18.67V815C1197.1,815.41,1199.66,824.32,1199,835.4Z" transform="translate(-360.7 -34)"/><ellipse class="cls-20" cx="1183.08" cy="834.15" rx="19.84" ry="10.12" transform="translate(-79.67 1932.32) rotate(-86.64)"/><path class="cls-23" d="M1232.18,687.17l2.66,3.25a84,84,0,0,1-4,11.55l0,.42-4.74.55c-4,7.12-8.92,12-14.13,13.48l-.66,6.68-.2,0a13,13,0,0,1-1.34.24l-.23,0-7.43.86-9.91-.16c-.54-.27.53.34,0,0V717c-4.69-3.42.76-12.7-1.34-21.31l-3.25,2.66a82.52,82.52,0,0,1-1.83-12.5l3.25-2.66a90.91,90.91,0,0,1,2.8-28.25l-2.66-3.25a82.34,82.34,0,0,1,4.24-11.89L1196,643c3.75-8,8.64-13.88,13.91-16.31l.49-4.94-2,.27-.42-2.35,5.14-.54,2.59-.27h0c.46,0,.93,0,1.4.06a13.75,13.75,0,0,1,4.33,1.19l-.66,6.68c5.2,2.69,9.33,9.18,11.78,17.92l3.82-.44h0c0,.05,0,.09,0,.14a81.46,81.46,0,0,1,1.76,12.38l-3.25,2.66a90.55,90.55,0,0,1-2.74,27.69Z" transform="translate(-360.7 -34)"/><path class="cls-24" d="M1214.22,688.06l2.66,3.25a82.13,82.13,0,0,1-4.21,11.93L1210,700c-4.24,9.2-10,15.57-16.07,17.32l-.67,6.68a13.53,13.53,0,0,1-4.48.31,14.06,14.06,0,0,1-6.21-2.21l.68-6.81c-4.69-3.42-8.34-10.11-10.44-18.73l-3.25,2.67a81.49,81.49,0,0,1-1.82-12.5l3.24-2.66a90.83,90.83,0,0,1,2.8-28.25l-2.66-3.25a82.34,82.34,0,0,1,4.25-11.89l2.66,3.24c3.75-8,8.64-13.88,13.91-16.31l.68-6.81a14,14,0,0,1,6.52-.95,13.42,13.42,0,0,1,4.33,1.19l-.66,6.68c5.63,2.91,10,10.28,12.36,20.13l3.25-2.66a83.26,83.26,0,0,1,1.78,12.53l-3.24,2.66a91,91,0,0,1-2.75,27.69Z" transform="translate(-360.7 -34)"/><path class="cls-14" d="M1291.38,923.05C1211,646,1210.71,646.36,1210.19,642.85c-4.77-16.41-14-31.23-31.5-33.3a38.7,38.7,0,0,0-4.51-.25,40.5,40.5,0,0,0-10,1.2c-.32,0-40.23,21-40.23,21l-2.25,7.6-9.09-1.63-14.72,7.76,0,.29c-16.58,8.36-31.59,36.54-37.49,72.19-.48,2.9,3.85,5.85,3.49,8.85-.28,2.32-5.26,4.63-5.45,6.91-2.62,31.57,2.86,59.42,13.53,74.49,1.31,1.84,6.65,1.12,8.1,2.56l-.2,6.62,41.56,47,8.19,1.58,1.7,9.49,39.45,44.13,7.35.64,0,7.56L1218,972.26h0l6.42.48-.12,6.57h0l7.19,8a31.1,31.1,0,0,0,16.72,7.08,28.7,28.7,0,0,0,2.92.15c20.53,0,38.82-21.3,41.59-49.21A69,69,0,0,0,1291.38,923.05Zm-6.86,21.51c-1.17,11.81-5.51,22.66-12.21,30.54-6.15,7.25-13.66,11.23-21.16,11.23-.7,0-1.41,0-2.11-.11a22.87,22.87,0,0,1-12.31-5.26,8.48,8.48,0,0,0-1.53-1S1082.64,807.76,1081.91,807c-5.81-5.76-10.52-16.36-13.25-29.85-3-14.77-3.44-31.94-1.34-49.64,2.19-18.39,6.91-35.48,13.66-49.42,6.12-12.64,13.44-21.6,20.61-25.22a8.14,8.14,0,0,0,1.75-1.18c23.87-12.6,58.37-30.76,63.66-33.42a33.53,33.53,0,0,1,7.18-.75,28.27,28.27,0,0,1,3.54.2,22.75,22.75,0,0,1,15.18,8.4c3.8,4.49,6.9,10.71,9.22,18.49.37,2.26,1.46,6,14.75,51.62,10.84,37.24,31,106.53,66.51,228.86A60.05,60.05,0,0,1,1284.52,944.56Z" transform="translate(-360.7 -34)"/><polygon class="cls-25" points="1002.31 676.04 871.51 689.7 853.57 623.63 982.55 610.97 1002.31 676.04"/><polygon class="cls-26" points="1054.38 853.36 925.96 872.56 901.84 790.59 1030.03 773.97 1054.38 853.36"/><path class="cls-27" d="M1177.86,704.45l-1.31.15a9.23,9.23,0,0,0,1.15-.2Z" transform="translate(-360.7 -34)"/><polygon class="cls-27" points="838.67 603 838.66 603 838.66 603 838.67 603"/><path class="cls-27" d="M1199.48,637l-.08.13,0-.12Z" transform="translate(-360.7 -34)"/><polygon class="cls-28" points="1026.8 759.38 897.58 777 876.52 701.96 1005.5 687.72 1026.8 759.38"/><path class="cls-29" d="M1419,903.72c-2.27,9,2.65,68-34.32,78.73-25.09,7.25-61.5,20.2-139,11.59,20.29,2.26,51.75-15.94,46.13-72.09Z" transform="translate(-360.7 -34)"/><path class="cls-30" d="M1170.76,737.22c-2.23,38-19.77,68-39.19,66.82l-.6,0v.18l-21.47-2.31,7.55-5.19c-11.31-11.68-18.2-36-16.58-63.59,1.72-29.3,12.52-53.77,26.26-63l-8.53-6.4,21.47,2.3v.24C1164.14,667.73,1173,698.7,1170.76,737.22Z" transform="translate(-360.7 -34)"/><ellipse class="cls-31" cx="1115.38" cy="732.9" rx="69.01" ry="35.21" transform="translate(-42.33 1769.41) rotate(-86.64)"/><path class="cls-19" d="M1129.91,731.9c-.92,15.74-8.18,28.12-16.22,27.65l-.25,0v.08l-8.89-1,3.13-2.14c-4.68-4.84-7.54-14.89-6.87-26.32.72-12.12,5.19-22.25,10.87-26.05l-3.53-2.65,8.89,1v.1C1127.17,703.14,1130.85,716,1129.91,731.9Z" transform="translate(-360.7 -34)"/><ellipse class="cls-20" cx="1106.99" cy="730.11" rx="28.55" ry="14.57" transform="translate(-47.43 1758.42) rotate(-86.64)"/><path class="cls-32" d="M1163.1,611.21l.22-.07-.06,0Z" transform="translate(-360.7 -34)"/><path class="cls-32" d="M1175.67,607.27c-1.48.4-2.83.78-4.07,1.14" transform="translate(-360.7 -34)"/><polygon class="cls-33" points="980.18 602.26 980.07 602.43 977.02 607.01 848.83 621.25 851.2 614.92 974.64 599.1 979.98 602.15 980.18 602.26"/><polygon class="cls-14" points="974.64 599.1 851.2 614.92 848.83 621.25 977.02 607.01 980.07 602.43 980.18 602.26 979.98 602.15 974.64 599.1 974.64 599.1"/><path class="cls-34" d="M1340.89,636.27l-129,12.66c-5.22-13.71-18.06-37.58-33.21-39.37a42.63,42.63,0,0,0-14.57.65l7.33-1.76.15,0c1.24-.36,2.59-.74,4.07-1.14,24.56-6.7,80-18.86,122.63-16.55,4.6.26,9,.66,13.3,1.26h.18a33.55,33.55,0,0,1,4.08,1.47,3.63,3.63,0,0,1,.5.22,17.84,17.84,0,0,1,1.82,1c4.76,2.87,8.74,8.14,11.86,13.64h0C1333.15,613.82,1339.54,632.48,1340.89,636.27Z" transform="translate(-360.7 -34)"/><polygon class="cls-35" points="982.55 610.97 855.14 623.63 853.57 623.63 848.83 621.25 977.02 607.01 982.55 610.97"/><polygon class="cls-35" points="869.87 695.72 999.17 682.97 1005.5 687.72 876.52 701.96 869.87 695.72"/><polygon class="cls-36" points="1021.24 763.86 1021.24 763.88 1019.13 764.15 1021.24 763.86"/><polygon class="cls-14" points="1026.87 758.94 897.89 776.35 899.93 783.16 1024.49 767.64 1026.87 758.94 1026.87 758.94"/><polygon class="cls-35" points="1024.49 767.64 1030.03 773.97 901.84 791.01 894.72 783.47 1024.49 767.64"/><polygon class="cls-37" points="930.95 875.48 1047.94 858.25 1047.69 858.87 931.38 876.89 930.95 875.48"/><polygon class="cls-14" points="1054.56 853.1 925.58 872.09 928.49 881.51 1050.61 862.6 1054.56 853.1 1054.56 853.1"/><polygon class="cls-35" points="1058.52 869.72 1050.61 862.6 923.21 881.59 931.17 888 1058.52 869.72"/><g class="cls-38"><path class="cls-39" d="M1254.18,819.44l39.17-22.62c4.17-2.4,8.41-4.86,11.67-8.4a34.87,34.87,0,0,0,7-12.71c5.59-16.63,4-35-1.11-51.76s-13.68-32.26-22.17-47.61l-46.56-84.26c-15.66,12.84-23.12,33.58-24.27,53.79s3.28,40.29,7.68,60l21,94.51c1.29,5.77,3.51,12.57,9.24,14.06" transform="translate(-360.7 -34)"/></g><polygon class="cls-40" points="550.9 805.38 550.9 518.78 895.12 503.74 895.12 792.08 550.9 805.38"/><polygon class="cls-41" points="550.9 805.23 496.31 890.69 840.52 875.65 895.12 791.77 550.9 805.23"/><polyline class="cls-42" points="550.9 518.78 568.31 500.58 568.31 486.34 911.73 471.3 911.73 485.55 895.12 503.74 550.9 518.78"/><polygon class="cls-3" points="568.31 486.34 322.22 407.21 322.22 805.23 496.31 890.69 550.9 805.23 550.9 519.57 568.31 503.74 568.31 486.34"/><polygon class="cls-4" points="911.73 471.3 568.31 486.33 506.29 466.39 322.22 407.2 485.68 401.09 531.73 399.37 609.69 396.45 660.89 394.54 662.44 395.01 819.9 443.2 911.73 471.3"/><polygon class="cls-43" points="568.31 486.34 568.31 503.74 911.73 486.34 911.73 471.3 568.31 486.34"/><line class="cls-44" x1="321.83" y1="406.81" x2="661.29" y2="394.15"/><polyline class="cls-44" points="910.55 470.91 568.71 486.73 568.71 503.35 551.3 519.17 551.3 804.83 517.27 857.06"/><line class="cls-44" x1="322.62" y1="406.81" x2="322.62" y2="620.46"/><line class="cls-44" x1="660.89" y1="394.15" x2="911.73" y2="470.91"/><line class="cls-44" x1="911.34" y1="470.11" x2="911.34" y2="486.73"/><polyline class="cls-44" points="911.34 485.94 895.51 504.14 895.51 792.17 840.12 876.05 531.52 889.58"/><polygon class="cls-45" points="552.09 519.17 894.72 504.14 894.72 527.88 552.09 542.52 552.09 519.17"/><g class="cls-46"><path class="cls-39" d="M949.39,460.28c-3.61,4.63-9.21,7.3-14.86,8.9a53.83,53.83,0,0,1-9.6,1.81A274.76,274.76,0,0,1,867,500.4L682.93,441.21l163.46-6.11,46.05-1.72,1.67,1.08,33.09-1.24q5.64,1.61,11.24,3.37c4.66,1.46,9.63,3.24,12.38,7.27C954.12,448.72,953,455.65,949.39,460.28Z" transform="translate(-360.7 -34)"/></g><g class="cls-46"><path class="cls-39" d="M1180.61,477.21c-42.37,7.83-86,12.88-126.3-1.07-11.18-3.88-22.57-9.82-28.06-20.31-4.25-8.13-4.25-17.53-3.1-26.81Z" transform="translate(-360.7 -34)"/></g><polygon class="cls-47" points="467.24 652.75 464.17 657.37 338.63 669.28 337.46 665.33 461.78 649.4 467.15 652.47 467.24 652.75"/><polygon class="cls-48" points="469.75 661.35 341.43 674.1 340.65 674.1 338.26 669.32 464.17 657.37 469.75 661.35"/><path class="cls-14" d="M775.45,992.83c-2.82,28.43-20.6,48.19-41.67,46.1a30.28,30.28,0,0,1-16.24-6.88L567.29,862.5c-13.82-13.69-20.93-45.08-16.5-82.31,4.59-38.66,17.84-70,35.27-78.76l0-.28s63.89-33.71,64.43-33.78a40.55,40.55,0,0,1,14.09-.92c17,2,26,16.42,30.61,32.36.5,3.42.78,3,78.91,272.33A67.1,67.1,0,0,1,775.45,992.83Z" transform="translate(-360.7 -34)"/><path class="cls-49" d="M818.48,994.43c-2.82,28.42-22,8.76-41.67,16.61s-36.46-2.65-41.19-6.5L610.32,864.09c-13.82-13.69-20.93-45.08-16.5-82.31,4.59-38.66,17.84-70,35.27-78.76l0-.27S693,669,693.55,669a40.31,40.31,0,0,1,14.09-.92c17,2,26,16.41,30.61,32.36.5,3.41.78,3,78.91,272.32A67.16,67.16,0,0,1,818.48,994.43Z" transform="translate(-360.7 -34)"/><g class="cls-50"><path class="cls-51" d="M636.54,698.64c6.18-5.8,13.91-9.62,21.52-13.36,9.45-4.64,21.57-9,29.68-2.33,2.71,2.24,4.45,5.4,6.08,8.51,36.38,69.62,46.8,149.45,70.26,224.42,1.88,6,3.87,12.37,2.38,18.49s-8,11.49-13.87,9.35a15.94,15.94,0,0,1-5-3.37C714.09,910.47,696.5,867,681.29,824.8c-15.45-42.89-29.6-86.24-43.75-129.57" transform="translate(-360.7 -34)"/></g><polygon class="cls-52" points="345.86 690.18 345.81 688.45 469.53 681.33 485.35 726.88 483.8 729.96 359.45 742.52 345.86 690.18"/><path class="cls-14" d="M827.33,719.67l14,40.43L723.29,772l-11.87-45.7,115.91-6.66m5.8-8.67-130.86,7.53.15,6.23L717,781l130.15-13.15,3.38-6.68L833.13,711Z" transform="translate(-360.7 -34)"/><path class="cls-53" d="M771.18,973.32c-1.29,22-11.42,39.23-22.63,38.58l-.35,0v.11l-12.4-1.33,4.36-3c-6.53-6.75-10.51-20.77-9.57-36.71,1-16.92,7.23-31.05,15.16-36.35l-4.93-3.7,12.4,1.34v.13C767.36,933.2,772.49,951.08,771.18,973.32Z" transform="translate(-360.7 -34)"/><ellipse class="cls-54" cx="739.21" cy="970.83" rx="39.84" ry="20.32" transform="translate(-633.97 1617.87) rotate(-86.64)"/><path class="cls-19" d="M747.6,970.25c-.54,9.09-4.73,16.23-9.37,16h-.14v0l-5.13-.55,1.81-1.24c-2.71-2.79-4.35-8.59-4-15.19.41-7,3-12.84,6.27-15l-2-1.53,5.13.55v.06C746,953.65,748.14,961.05,747.6,970.25Z" transform="translate(-360.7 -34)"/><ellipse class="cls-20" cx="734.37" cy="969.22" rx="16.48" ry="8.41" transform="translate(-636.92 1611.53) rotate(-86.64)"/><path class="cls-55" d="M713.76,890.85c-1.56,26.61-13.84,47.55-27.42,46.76l-.43,0v.13l-15-1.61,5.29-3.63c-7.92-8.18-12.74-25.18-11.6-44.5,1.2-20.5,8.76-37.63,18.37-44.06l-6-4.48L692,841v.17C709.13,842.22,715.35,863.89,713.76,890.85Z" transform="translate(-360.7 -34)"/><ellipse class="cls-56" cx="675.01" cy="887.82" rx="48.29" ry="24.64" transform="translate(-611.55 1475.65) rotate(-86.64)"/><path class="cls-19" d="M685.18,887.12c-.65,11-5.73,19.68-11.35,19.35h-.18v0l-6.22-.67,2.19-1.5c-3.28-3.38-5.28-10.42-4.81-18.41.5-8.49,3.63-15.57,7.61-18.23L670,865.84l6.22.67v.07C683.26,867,685.83,876,685.18,887.12Z" transform="translate(-360.7 -34)"/><ellipse class="cls-20" cx="669.14" cy="885.87" rx="19.98" ry="10.19" transform="translate(-615.12 1467.95) rotate(-86.64)"/><path class="cls-57" d="M718.59,737.86l2.68,3.27a83.38,83.38,0,0,1-4.08,11.63l0,.42-4.77.55c-4,7.18-9,12.08-14.22,13.58l-.67,6.73-.2,0a10.58,10.58,0,0,1-1.35.23l-.23,0-7.49.87-10-.17c-.55-.26.53.34,0,0v-7.17c-4.73-3.44.76-12.79-1.36-21.46l-3.27,2.68a83.59,83.59,0,0,1-1.84-12.58l3.27-2.69a91.29,91.29,0,0,1,2.82-28.44l-2.68-3.27a81.55,81.55,0,0,1,4.28-12l2.68,3.27c3.77-8.09,8.7-14,14-16.43l.49-5-2,.27-.43-2.37,5.18-.54,2.61-.27h0a13.31,13.31,0,0,1,1.41.07,13.67,13.67,0,0,1,4.36,1.19l-.67,6.73c5.24,2.7,9.4,9.25,11.87,18l3.84-.44h0l0,.14a82.65,82.65,0,0,1,1.77,12.47L721.35,710a91.86,91.86,0,0,1-2.76,27.89Z" transform="translate(-360.7 -34)"/><path class="cls-58" d="M700.5,738.75l2.68,3.27a82.94,82.94,0,0,1-4.24,12l-2.68-3.27c-4.27,9.26-10,15.68-16.19,17.43l-.66,6.73a13.78,13.78,0,0,1-4.52.32,14.2,14.2,0,0,1-6.25-2.23l.68-6.86c-4.72-3.44-8.4-10.18-10.51-18.86L655.54,750a82.33,82.33,0,0,1-1.84-12.58l3.27-2.68a91.31,91.31,0,0,1,2.82-28.45L657.11,703a83.59,83.59,0,0,1,4.27-12l2.68,3.27c3.78-8.09,8.71-14,14-16.42l.68-6.86a14.11,14.11,0,0,1,6.57-1,13.74,13.74,0,0,1,4.37,1.2L689,678c5.67,2.93,10.08,10.36,12.45,20.28l3.27-2.68a84.25,84.25,0,0,1,1.8,12.62l-3.27,2.68a90,90,0,0,1-.31,14A91,91,0,0,1,700.5,738.75Z" transform="translate(-360.7 -34)"/><path class="cls-14" d="M778.21,975.4c-81-279-81.25-278.64-81.77-282.18-4.81-16.53-14.15-31.45-31.72-33.53a39.19,39.19,0,0,0-4.54-.26,40.67,40.67,0,0,0-10.06,1.21c-.32,0-40.5,21.17-40.5,21.17l-2.27,7.65-9.16-1.63-14.82,7.81,0,.29c-16.7,8.42-31.82,36.8-37.76,72.7-.48,2.92,3.88,5.89,3.52,8.91-.28,2.34-5.29,4.66-5.49,7-2.64,31.79,2.88,59.84,13.63,75,1.31,1.86,6.69,1.13,8.16,2.58l-.21,6.67L607,916.1l8.26,1.59,1.7,9.56,39.73,44.44,7.41.65,0,7.61,40.23,45h0l6.46.48-.12,6.62h0l7.24,8.09a31.46,31.46,0,0,0,16.83,7.13,29.29,29.29,0,0,0,3,.15c20.67,0,39.09-21.45,41.88-49.56A69.63,69.63,0,0,0,778.21,975.4Zm-6.91,21.66c-1.18,11.89-5.55,22.81-12.3,30.76-6.19,7.29-13.75,11.3-21.31,11.3a18.7,18.7,0,0,1-2.12-.11,23,23,0,0,1-12.4-5.29,8.61,8.61,0,0,0-1.54-1S568,859.3,567.26,858.57c-5.86-5.8-10.6-16.48-13.34-30.06-3-14.88-3.48-32.17-1.36-50,2.21-18.52,7-35.74,13.76-49.77,6.17-12.73,13.54-21.75,20.76-25.39a8.55,8.55,0,0,0,1.76-1.2c24-12.69,58.78-31,64.11-33.65a33.35,33.35,0,0,1,7.23-.76,28.49,28.49,0,0,1,3.56.2A22.94,22.94,0,0,1,679,676.41c3.82,4.52,7,10.78,9.28,18.63.38,2.27,1.48,6,14.85,52,10.93,37.5,31.25,107.28,67,230.48A60.55,60.55,0,0,1,771.3,997.06Z" transform="translate(-360.7 -34)"/><polygon class="cls-59" points="489.64 726.89 357.92 740.64 339.85 674.1 469.75 661.35 489.64 726.89"/><polygon class="cls-60" points="542.07 905.45 412.75 924.79 388.46 842.24 517.56 825.51 542.07 905.45"/><path class="cls-27" d="M663.88,755.26l-1.32.15a11.24,11.24,0,0,0,1.16-.2Z" transform="translate(-360.7 -34)"/><polygon class="cls-27" points="324.84 653.33 324.83 653.33 324.84 653.33 324.84 653.33"/><path class="cls-27" d="M685.66,687.32l-.09.14a.5.5,0,0,1,0-.12Z" transform="translate(-360.7 -34)"/><polygon class="cls-61" points="514.3 810.82 384.17 828.56 362.96 752.99 492.85 738.65 514.3 810.82"/><path class="cls-62" d="M906.67,955.93c-2.29,9.05,2.67,68.53-34.56,79.29-25.27,7.3-61.93,20.34-140,11.67,20.43,2.27,52.12-16.05,46.46-72.61Z" transform="translate(-360.7 -34)"/><path class="cls-63" d="M656.73,788.26c-2.25,38.3-19.91,68.44-39.46,67.29-.2,0-.41,0-.61,0v.19L595,853.37l7.6-5.23c-11.39-11.77-18.33-36.24-16.69-64,1.73-29.51,12.6-54.15,26.44-63.4l-8.59-6.45,21.63,2.32v.24C650.07,718.27,659,749.46,656.73,788.26Z" transform="translate(-360.7 -34)"/><ellipse class="cls-64" cx="600.96" cy="783.91" rx="69.49" ry="35.46" transform="translate(-577.52 1303.9) rotate(-86.64)"/><path class="cls-19" d="M615.6,782.9c-.93,15.85-8.24,28.32-16.34,27.84l-.25,0v.08l-8.95-1,3.14-2.16c-4.71-4.87-7.58-15-6.91-26.5.72-12.21,5.22-22.41,11-26.24l-3.56-2.67,8.95,1v.1C612.84,753.94,616.54,766.85,615.6,782.9Z" transform="translate(-360.7 -34)"/><ellipse class="cls-20" cx="592.52" cy="781.1" rx="28.76" ry="14.67" transform="translate(-582.66 1292.82) rotate(-86.64)"/><path class="cls-32" d="M649,661.36l.22-.07-.06,0Z" transform="translate(-360.7 -34)"/><path class="cls-32" d="M661.68,657.39c-1.49.4-2.85.79-4.1,1.15" transform="translate(-360.7 -34)"/><polygon class="cls-65" points="467.35 652.58 467.24 652.75 464.17 657.37 335.07 671.71 337.46 665.33 461.78 649.4 467.15 652.47 467.35 652.58"/><polygon class="cls-14" points="461.78 649.4 337.46 665.33 335.07 671.71 464.17 657.37 467.24 652.75 467.35 652.58 467.15 652.47 461.78 649.4 461.78 649.4"/><path class="cls-66" d="M828.06,686.59,698.17,699.34c-5.26-13.8-18.2-37.84-33.45-39.65A43,43,0,0,0,650,660.85l7.39-2.27.15,0c1.25-.36,2.61-.75,4.1-1.15,24.73-6.74,80.53-19,123.49-16.67,4.63.26,9.11.67,13.39,1.27h.18a34,34,0,0,1,4.11,1.48,3.32,3.32,0,0,1,.51.23,16.32,16.32,0,0,1,1.84,1c4.78,2.89,8.79,8.2,11.93,13.73h0C820.27,664,826.71,682.78,828.06,686.59Z" transform="translate(-360.7 -34)"/><polygon class="cls-35" points="469.75 661.35 341.43 674.1 339.85 674.1 335.07 671.71 464.17 657.37 469.75 661.35"/><polygon class="cls-35" points="356.26 746.7 486.48 733.87 492.85 738.65 362.96 752.99 356.26 746.7"/><polygon class="cls-67" points="508.71 815.33 508.7 815.35 506.56 815.62 508.71 815.33"/><polygon class="cls-14" points="514.37 810.37 384.48 827.9 386.54 834.76 511.98 819.13 514.37 810.37 514.37 810.37"/><polygon class="cls-35" points="511.98 819.13 517.56 825.51 388.46 842.67 381.29 835.07 511.98 819.13"/><polygon class="cls-68" points="417.77 927.73 535.6 910.38 535.34 911 418.21 929.15 417.77 927.73"/><polygon class="cls-14" points="542.26 905.19 412.37 924.32 415.3 933.81 538.28 914.76 542.26 905.19 542.26 905.19"/><polygon class="cls-35" points="546.25 921.93 538.28 914.76 409.98 933.88 418 940.35 546.25 921.93"/><polygon class="cls-69" points="493.97 423.02 630.5 414.83 720.97 447.49 592.74 456.03 493.97 423.02"/><polygon class="cls-70" points="641.08 325.28 592.42 191.76 704.55 220.69 718.46 366.14 641.08 325.28"/><polygon class="cls-71" points="651.34 396.03 627.93 421.66 685.22 440.44 698.45 424.4 651.34 396.03"/><path class="cls-72" d="M1079.58,407.18c-1.24,35.44-22.38,63.47-47.22,62.6l-95,4.13,4.5-128.35,90-3.92,5-.21C1061.69,342.3,1080.82,371.73,1079.58,407.18Z" transform="translate(-360.7 -34)"/><polygon class="cls-3" points="540.68 402.01 525.77 427.64 583.93 449.49 605.15 432.53 540.68 402.01"/><polygon class="cls-3" points="550.01 332.8 524.4 199.28 613.48 228.21 627.39 373.66 550.01 332.8"/><polygon class="cls-4" points="685.22 440.44 583.93 449.49 603.15 432.53 698.45 424.4 685.22 440.44"/><polygon class="cls-73" points="613.48 228.21 704.55 220.69 718.94 367.42 627.39 373.66 613.48 228.21"/><ellipse class="cls-74" cx="943.08" cy="410.25" rx="64.22" ry="45" transform="translate(139.38 1304.39) rotate(-87.99)"/><ellipse class="cls-75" cx="582.38" cy="345.38" rx="10.05" ry="12.57"/><ellipse class="cls-75" cx="557.49" cy="398.02" rx="10.05" ry="12.57"/><ellipse class="cls-75" cx="600.2" cy="405.66" rx="10.05" ry="12.57"/><polygon class="cls-76" points="613.48 227.71 704.55 220.19 707.53 257.9 616.98 264.3 613.48 227.71"/><polygon class="cls-77" points="501.35 199.28 592.42 191.76 704.55 220.69 613.48 228.21 501.35 199.28"/><path class="cls-78" d="M903.41,276.25c-31.71,0-57.5-30.13-57.5-67.17s25.79-67.17,57.5-67.17,57.5,30.13,57.5,67.17S935.12,276.25,903.41,276.25Zm0-123.34c-25.64,0-46.5,25.2-46.5,56.17s20.86,56.17,46.5,56.17,46.5-25.2,46.5-56.17S929.05,152.91,903.41,152.91Z" transform="translate(-360.7 -34)"/><path class="cls-79" d="M1061.13,92.7l16.91,165s102.81,58.4,244.9,53c48.85-99,1.67-211.95,1.67-211.95Z" transform="translate(-360.7 -34)"/><path class="cls-80" d="M872.06,44.65l68.31,193.62-175,104.93s-82.66-22.95-97.11-32.11c-63.16-89-26.62-236.78-26.62-236.78Z" transform="translate(-360.7 -34)"/><polygon class="cls-81" points="586.31 5.13 597.11 186.5 717.33 223.73 700.43 58.69 586.31 5.13"/><polygon class="cls-82" points="617.09 40.83 703.79 87.83 631.5 94.32 571.55 47 617.09 40.83"/><polygon class="cls-83" points="617.09 40.83 596.75 43.59 672.39 90.65 703.79 87.83 617.09 40.83"/><path class="cls-79" d="M988.5,97.8l18.72,164s-75.6,60.89-241.88,81.44c-63.17-89-24.47-209.48-24.47-209.48Z" transform="translate(-360.7 -34)"/><polygon class="cls-40" points="631.5 94.32 703.79 87.83 715.69 219.77 648.53 225.43 631.5 94.32"/><polygon class="cls-83" points="674.09 90.5 703.79 87.83 716.69 219.27 686.6 221.69 674.09 90.5"/><polygon class="cls-84" points="280.9 40.31 380.16 99.72 627.8 63.8 511.36 10.65 280.9 40.31"/><polygon class="cls-85" points="963.91 64.79 848.35 1 586.31 5.13 700.43 58.69 963.91 64.79"/><path class="cls-86" d="M1063.58,112.89,1306,119.23s25,112.28,2.22,168.68c-92,5.4-230.91-37.31-230.91-37.31Z" transform="translate(-360.7 -34)"/><path class="cls-86" d="M990.13,115.39,760.48,154.15s-24.16,103.58,14.73,166.94c92,5.4,230.34-69.43,230.34-69.43Z" transform="translate(-360.7 -34)"/><path class="cls-87" d="M1004.59,121.66,759.53,162.48s-22,94.31,13.41,152c83.79,4.91,244.5-74.36,244.5-74.36Z" transform="translate(-360.7 -34)"/><path class="cls-88" d="M773,160.23S753.66,268.85,785.48,314.7l-12.54-.22s-35.56-50.51-13.41-152Z" transform="translate(-360.7 -34)"/><path class="cls-87" d="M1057.46,122.14l232,6s22.56,101.53,2,152.53c-83.22,4.89-223.21-38.88-223.21-38.88Z" transform="translate(-360.7 -34)"/><polygon class="cls-89" points="686.6 81.39 697.2 88.58 707.53 208.22 697.38 205.12 686.6 81.39"/><polygon class="cls-90" points="918.59 87.8 928.74 94.12 697.2 88.58 686.6 81.39 918.59 87.8"/><polyline class="cls-90" points="643.89 87.66 635.1 84.03 398.95 123.95 398.82 128.47"/><ellipse class="cls-91" cx="917.4" cy="108.93" rx="7.79" ry="9.02"/><path class="cls-92" d="M1278.1,133.91s3.44,11.15-.5,18" transform="translate(-360.7 -34)"/><path class="cls-92" d="M1270.32,142.93s10,2.33,15.57,0" transform="translate(-360.7 -34)"/><ellipse class="cls-93" cx="408.17" cy="141.72" rx="7.79" ry="9.02"/><path class="cls-92" d="M768.87,166.7s3.44,11.15-.5,18" transform="translate(-360.7 -34)"/><path class="cls-92" d="M761.09,175.72s10,2.33,15.57,0" transform="translate(-360.7 -34)"/><ellipse class="cls-94" cx="420.41" cy="268.07" rx="7.79" ry="9.02"/><path class="cls-92" d="M781.11,293.05s3.44,11.15-.5,18" transform="translate(-360.7 -34)"/><path class="cls-92" d="M773.33,302.07s10,2.33,15.57,0" transform="translate(-360.7 -34)"/><ellipse class="cls-95" cx="552.09" cy="176.1" rx="52" ry="61.67"/><path class="cls-96" d="M903.41,275.41c-31.71,0-57.5-30.13-57.5-67.17s25.79-67.17,57.5-67.17,57.5,30.14,57.5,67.17S935.12,275.41,903.41,275.41Zm0-123.34c-25.64,0-46.5,25.2-46.5,56.17s20.86,56.17,46.5,56.17,46.5-25.19,46.5-56.17S929.05,152.07,903.41,152.07Z" transform="translate(-360.7 -34)"/><path class="cls-97" d="M909.3,277.27c-31.71,0-57.5-30.13-57.5-67.17s25.79-67.17,57.5-67.17,57.5,30.13,57.5,67.17S941,277.27,909.3,277.27Zm0-123.34c-25.64,0-46.5,25.2-46.5,56.17s20.86,56.17,46.5,56.17,46.5-25.2,46.5-56.17S934.94,153.93,909.3,153.93Z" transform="translate(-360.7 -34)"/><path class="cls-96" d="M1156.87,261.17c-31.7,0-57.5-30.13-57.5-67.17s25.8-67.17,57.5-67.17,57.5,30.13,57.5,67.17S1188.58,261.17,1156.87,261.17Zm0-123.34c-25.64,0-46.5,25.2-46.5,56.17s20.86,56.17,46.5,56.17,46.5-25.2,46.5-56.17S1182.51,137.83,1156.87,137.83Z" transform="translate(-360.7 -34)"/><path class="cls-97" d="M1162.76,263c-31.71,0-57.5-30.14-57.5-67.17s25.79-67.17,57.5-67.17,57.5,30.13,57.5,67.17S1194.47,263,1162.76,263Zm0-123.34c-25.64,0-46.5,25.19-46.5,56.17s20.86,56.17,46.5,56.17,46.5-25.2,46.5-56.17S1188.4,139.69,1162.76,139.69Z" transform="translate(-360.7 -34)"/><ellipse class="cls-98" cx="548.09" cy="176.1" rx="46.5" ry="55.15"/><ellipse class="cls-99" cx="802.4" cy="159.92" rx="52" ry="61.67"/><ellipse class="cls-100" cx="796.9" cy="159.92" rx="46.5" ry="55.15"/><ellipse class="cls-101" cx="917.9" cy="227.41" rx="7.79" ry="9.02"/><path class="cls-92" d="M1278.6,252.39s3.44,11.15-.5,18" transform="translate(-360.7 -34)"/><path class="cls-92" d="M1270.82,261.41s10,2.33,15.57,0" transform="translate(-360.7 -34)"/><path class="cls-102" d="M1065.26,254.7l14.38,146.72s.95,40.21-20.48,57l-13.23,16" transform="translate(-360.7 -34)"/><path class="cls-102" d="M900.72,314.7l10,52.11S891.84,392.3,901.39,436l-14.91,25.63" transform="translate(-360.7 -34)"/><path class="cls-103" d="M1256.22,592.15s47.87-3.67,55.56-.15,11.33,4.15,15.77,12.28,13.34,32,13.34,32l-3.17,4.74,5.54,4L1363,710.05l-3.13,6.93,6.33,4.74,21.36,71.22-2.37,8.71,5.54,6.33,24.53,79.13-4,9.49,7.91,7.12s-4.49,49.69-11.8,59.62c-7.16,9.78-9.28,18.25-55.85,27.92s-83.32,4.43-98.91,3.33-22-8.23-28.34-15.28l.12-6.57-6.43-.48-39.94-44.69,0-7.56-7.35-.64-6.73-7.52" transform="translate(-360.7 -34)"/><polyline class="cls-103" points="627.8 63.8 511.36 10.65 280.9 40.31"/><polyline class="cls-103" points="700.43 58.69 588.81 5.13 848.35 1 963.91 64.79"/><polygon class="cls-82" points="587.42 577.21 864.87 561.55 864.87 741.14 587.08 756.83 587.42 577.21"/><polygon class="cls-104" points="587.53 584.13 857.52 568.33 857.52 740.64 587.58 756.83 587.53 584.13"/><path class="cls-105" d="M1119.59,681.05,970.64,688.4a9,9,0,0,1-9.35-8.64l.33-42.45a9,9,0,0,1,8.64-9.34l149-7.35a9,9,0,0,1,9.34,8.64l-.33,42.44A9,9,0,0,1,1119.59,681.05Z" transform="translate(-360.7 -34)"/><ellipse class="cls-106" cx="995.25" cy="657.28" rx="17.42" ry="21.77" transform="matrix(1, -0.02, 0.02, 1, -376.36, -9.66)"/><ellipse class="cls-107" cx="1047.78" cy="654.25" rx="17.42" ry="21.77" transform="translate(-376.27 -8.39) rotate(-1.39)"/><ellipse class="cls-108" cx="1099.27" cy="652.82" rx="17.42" ry="21.77" transform="translate(-376.22 -7.14) rotate(-1.39)"/><path class="cls-109" d="M1090.8,718.85l-117.26,6.31a9.39,9.39,0,0,1-9.7-9h0a9.39,9.39,0,0,1,9-9.7l117.26-6.31a9.4,9.4,0,0,1,9.71,9h0A9.4,9.4,0,0,1,1090.8,718.85Z" transform="translate(-360.7 -34)"/><path class="cls-110" d="M1025.63,779l-52.09,2.5a9.38,9.38,0,0,1-9.7-9h0a9.39,9.39,0,0,1,9-9.71l52.1-2.5a9.4,9.4,0,0,1,9.7,9h0A9.39,9.39,0,0,1,1025.63,779Z" transform="translate(-360.7 -34)"/><path class="cls-110" d="M1025.63,752.68l-52.09,2.5a9.38,9.38,0,0,1-9.7-9h0a9.39,9.39,0,0,1,9-9.71L1025,734a9.4,9.4,0,0,1,9.7,9h0A9.4,9.4,0,0,1,1025.63,752.68Z" transform="translate(-360.7 -34)"/><polygon class="cls-111" points="784.05 586.61 855.27 582.02 855.27 728.6 783.31 732.36 784.05 586.61"/><ellipse class="cls-112" cx="843.4" cy="599.1" rx="7.79" ry="9.02"/><path class="cls-92" d="M1204.1,624.08s3.44,11.14-.5,18" transform="translate(-360.7 -34)"/><path class="cls-92" d="M1196.32,633.1s10,2.33,15.57,0" transform="translate(-360.7 -34)"/><ellipse class="cls-113" cx="794.1" cy="719.58" rx="7.79" ry="9.02"/><path class="cls-92" d="M1154.8,744.57s3.44,11.14-.5,18" transform="translate(-360.7 -34)"/><path class="cls-92" d="M1147,753.59s10,2.33,15.57,0" transform="translate(-360.7 -34)"/><ellipse class="cls-114" cx="844.79" cy="716.58" rx="7.79" ry="9.02"/><path class="cls-92" d="M1205.5,741.57s3.44,11.14-.5,18" transform="translate(-360.7 -34)"/><path class="cls-92" d="M1197.71,750.59s10,2.33,15.57,0" transform="translate(-360.7 -34)"/><ellipse class="cls-115" cx="799.26" cy="601.16" rx="7.79" ry="9.02"/><path class="cls-92" d="M1160,626.14s3.44,11.15-.5,18" transform="translate(-360.7 -34)"/><path class="cls-92" d="M1152.18,635.16s10,2.33,15.57,0" transform="translate(-360.7 -34)"/><ellipse class="cls-116" cx="450.57" cy="530.3" rx="58.5" ry="74.27"/><path class="cls-117" d="M558.48,541.34a52.55,52.55,0,0,1-15.2-24.8Z" transform="translate(-360.7 -34)"/><path class="cls-117" d="M612,492.43a35.09,35.09,0,0,1-8.62,20.07h0a35.47,35.47,0,0,1-49.91,3.19L539,509.23l2.94,3.63-8.19,3.44L517.2,492.4l-6.66-18.35a35.25,35.25,0,0,1,8.68-25.84h0A35.48,35.48,0,0,1,569.14,445l31.06,17.58,9.18,12.75,11,15.28Z" transform="translate(-360.7 -34)"/><path class="cls-3" d="M539.53,485.46h0A43.43,43.43,0,0,1,522,482.24l2.11,33.1L491.39,448.6l-.05-.12a122.12,122.12,0,0,1-5.44-14.76l-29-86.1c-.52-29,19.29-59.48,48.27-60h0c29-.54,48.5,23.84,53.62,51.72l32.47,92.47A52.86,52.86,0,0,1,539.53,485.46Z" transform="translate(-360.7 -34)"/><path class="cls-118" d="M502.5,334.51c-12.34,3.21-25.24-3.35-32.43-15.3a38.33,38.33,0,0,1-3.39-7.23v0c-.37-1-.7-2.12-1-3.21-4.75-18.27,4-36.37,19.6-40.42,13.2-3.43,27.06,4.33,33.86,17.92l.07.15.7,1.5a39,39,0,0,1,2.17,6.19C526.84,312.37,518.07,330.47,502.5,334.51Z" transform="translate(-360.7 -34)"/><path class="cls-3" d="M579.31,371.39h0l-9.83,2.75-86.28,24L458.88,354.1,457,347.64c-.52-29,19.29-59.48,48.27-60h0c18-.34,32.39,9,41.91,22.77l7.57,14.33,0,.06,20.91,39.67Z" transform="translate(-360.7 -34)"/><path class="cls-2" d="M807.89,544.19a52.29,52.29,0,0,1-6.59,31.88h0a52.85,52.85,0,0,1-71.9,19.56L608.32,569l5.38,4.42-10.94,7.46-31.27-29.93-15.21-24.8a52.55,52.55,0,0,1,5-40.31h0c14.39-25.15,43-26.47,71.9-19.56l148.6,37.92,13.7,10.37,24.11,24.52Z" transform="translate(-360.7 -34)"/><path class="cls-4" d="M763,627.86,614.43,590a52.85,52.85,0,0,1-19.57-71.9h0c14.39-25.16,39.8-31.46,71.9-19.57l148.59,37.91a52.85,52.85,0,0,1,19.57,71.9h0C820.53,633.45,790.34,636.36,763,627.86Z" transform="translate(-360.7 -34)"/><path class="cls-4" d="M514.52,489.54l-29-86.09c-.52-29,19.29-59.49,48.27-60h0c29-.52,48.51,23.85,53.63,51.73l32.47,92.48a52.86,52.86,0,0,1-51.74,53.63h0C539.18,541.8,520.72,516.54,514.52,489.54Z" transform="translate(-360.7 -34)"/><path class="cls-119" d="M577.83,542.77l-27-23.33a35.47,35.47,0,0,1,6.67-49.57h0a35.47,35.47,0,0,1,49.57,6.68l27,23.33a35.46,35.46,0,0,1-6.67,49.57h0A35.48,35.48,0,0,1,577.83,542.77Z" transform="translate(-360.7 -34)"/><path class="cls-120" d="M547.15,310.41a70.67,70.67,0,0,1,7.57,14.33Z" transform="translate(-360.7 -34)"/><path class="cls-120" d="M579.31,371.39l-3.66-6.92A73.5,73.5,0,0,1,579.31,371.39Z" transform="translate(-360.7 -34)"/><path class="cls-121" d="M545.1,343.59l-58.21,23.63-27.14-57.75-3.64-7.78v0c-.4-1.12-.76-2.28-1.06-3.46-5.11-19.66,4.33-39.13,21.09-43.49,14.21-3.69,29.12,4.66,36.44,19.28l.07.16.75,1.62Z" transform="translate(-360.7 -34)"/><path class="cls-122" d="M472.41,278.1s-29,4.21-24.25,27.33L394.22,299a17.07,17.07,0,0,1-11.07-6.05L368,274.64a16.9,16.9,0,0,1-3.89-10.31l-2.62-85.82a17,17,0,0,1,28.14-13.35v0l3.76,4.68L401,179.3l-4.79,1.8,8.8,56.15a17,17,0,0,0,11.65,13.57L458.33,264a17,17,0,0,1,9.46,7.47Z" transform="translate(-360.7 -34)"/><path class="cls-123" d="M458.29,318.39l-53.94-6.46a17,17,0,0,1-11.08-6l-15.1-18.28a16.92,16.92,0,0,1-3.89-10.31l-2.63-85.82a17,17,0,0,1,23.66-16.16h0a17,17,0,0,1,10.13,13l9.69,61.89a17,17,0,0,0,11.66,13.57l44.7,14.68C451.72,284.74,450.11,308.53,458.29,318.39Z" transform="translate(-360.7 -34)"/><path class="cls-122" d="M420.92,206.92l-3.75-4.68a16.2,16.2,0,0,1,2.25,2.36A15.32,15.32,0,0,1,420.92,206.92Z" transform="translate(-360.7 -34)"/><path class="cls-122" d="M504.09,319.65,497.64,316a16.87,16.87,0,0,1-1,7.07l-3,8.3a17,17,0,0,1-18,11.09L421.71,336a17,17,0,0,1-11.07-6L395.52,311.7a17,17,0,0,1-3.89-10.32L389,215.56a17,17,0,0,1,28.14-13.34v0l3.75,4.68,7.57,9.43-4.79,1.8,8.79,56.15a17,17,0,0,0,11.66,13.57l41.67,13.22a17,17,0,0,1,9.45,7.47Z" transform="translate(-360.7 -34)"/><path class="cls-123" d="M485.77,355.45,431.84,349a17,17,0,0,1-11.08-6.05l-15.11-18.27a17.07,17.07,0,0,1-3.89-10.31l-2.62-85.83a17,17,0,0,1,23.66-16.15h0a17,17,0,0,1,10.12,13l9.7,61.89a17,17,0,0,0,11.66,13.57L496,314.06a17,17,0,0,1,10.84,22l-3,8.31A17,17,0,0,1,485.77,355.45Z" transform="translate(-360.7 -34)"/><path class="cls-122" d="M568.52,241.77a17,17,0,0,1-4.15,11.72l-35.58,41a17,17,0,0,1-20.2,4.19l-7.85,2.18-8.52-15.63v0l-.29-.85a17,17,0,0,1,1.51-13.66l22-37.79a17,17,0,0,0-.49-17.88l-23.45-35.65-6.12,8L479,159.9l-1.26-5.49v0a17.62,17.62,0,0,1,.29-4.34,16.7,16.7,0,0,1,1.23-3.78,17,17,0,0,1,28.37-4l55.75,65.31a16.55,16.55,0,0,1,2.37,3.65,16.86,16.86,0,0,1,1.68,6.6l0,.41,5.88,24.14Z" transform="translate(-360.7 -34)"/><path class="cls-123" d="M536.07,325l35.59-41a17,17,0,0,0,4.14-11.93l-1.1-23.69a17,17,0,0,0-4.05-10.25l-55.74-65.3a17,17,0,0,0-28.38,3.94h0a17,17,0,0,0,1.24,16.43l34.42,52.34a17,17,0,0,1,.5,17.89l-22,37.79C514.23,305.45,533.47,301.83,536.07,325Z" transform="translate(-360.7 -34)"/><ellipse class="cls-124" cx="515.71" cy="354.62" rx="31.35" ry="36.79" transform="translate(-433.34 107.17) rotate(-14.57)"/><ellipse class="cls-125" cx="515.71" cy="354.62" rx="15.4" ry="18.8" transform="translate(-445.09 142.86) rotate(-18.01)"/><circle class="cls-75" cx="212.52" cy="459.61" r="17.01"/><circle class="cls-75" cx="249.74" cy="494.94" r="17.01"/><g class="cls-46"><path class="cls-39" d="M822.62,541.21c43.43,49.22,4.35,78.4-2.55,82.87-5.44,3.54-18,7.34-17.48,13.67,3.14,38.88,26.12,75.69,33.44,114.93,5.39,28.9,2.32,59.56,12.9,87,4.13,10.71,10.22,20.53,16.29,30.26,4.22,6.76,8.78,13.79,14.45,19.29L912,838.84l-.39-97.56q-1.4-6.25-2.82-12.5c-7.71-33.81-16-67.64-29-99.79a309.52,309.52,0,0,0-15.57-33c-10.83-19.8-24.05-38.22-40.2-53.93" transform="translate(-360.7 -34)"/></g><ellipse class="cls-126" cx="836.39" cy="463.3" rx="19.38" ry="5.89"/><path class="cls-127" d="M963.84,716.14s20.28-6.4,39.3,0,19.88-10.59,28.69-10.38,10.86,13.13,22.81,11.82,8-5.89,13.69-5.86,5.67,6,11,5.26,7.61-17.29,10.75-16.85" transform="translate(-360.7 -34)"/><path class="cls-126" d="M682.93,479s-65.82-19.16-70.81-16.31l-32.81-91.26s-30.17-55.95-32.16-61" transform="translate(-360.7 -34)"/><path class="cls-126" d="M458.88,354.1l32.46,94.38,27.83,56.83s14.18,40.07,49,36c1.31,6.36-5.57,2.66,34.6,39.58L614.43,590s159.41,42.26,166.18,42.21,15.47,4.14,18.72,4.86,53.47,9.86,68.85-55.41C882.71,520,828.37,491,824,491c0,0-30.63-7.56-46,12.18" transform="translate(-360.7 -34)"/><path class="cls-128" d="M1187.86,479,1306.12,377.5s21.39-10,39.77-4.47c0,0-9.08-16,1.27-39.39L1380.27,230s7.6-14.31,13.45-17.45" transform="translate(-360.7 -34)"/><path class="cls-128" d="M1256.22,583.65s8.53-2.1,12.51-5.53,120.21-104.21,120.21-104.21,14.09-13.18,15.14-28.49" transform="translate(-360.7 -34)"/><path class="cls-128" d="M1434.11,412.44s7.33-1.79,16.93-17.41c5.32-16.68,37.64-114,37.64-114s4.06-18.23-6.39-32" transform="translate(-360.7 -34)"/></g></svg>