<svg xmlns="http://www.w3.org/2000/svg" viewBox="0 0 100 100"><defs><style>.cls-1{fill:#36ad60;fill-rule:evenodd;}.cls-2{fill:#fff;}</style></defs><title>accept</title><g id="Layer_2" data-name="Layer 2"><path class="cls-1" d="M100,49.92v0A50,50,0,0,1,0,50v0a50,50,0,0,1,100,0Z"/><path class="cls-2" d="M83.84,35.58a4,4,0,0,1,0,5.66L52.72,72.36,45.1,80a4,4,0,0,1-5.66,0l-7.62-7.62L16.18,56.72a4,4,0,0,1,0-5.65l9.11-8.89a4,4,0,0,1,6.09.5l9.34,14.16a2.16,2.16,0,0,0,3.4.15l25-30.93A4,4,0,0,1,75,25.83Z"/></g></svg>