<svg xmlns="http://www.w3.org/2000/svg" viewBox="0 0 100 100"><defs><style>.cls-1{fill:#f24533;fill-rule:evenodd;}.cls-2{fill:#fff;}</style></defs><title>back</title><g id="Layer_2" data-name="Layer 2"><path class="cls-1" d="M100,50v0A50,50,0,0,1,0,50v0a50,50,0,0,1,100,0Z"/><path class="cls-2" d="M78.33,38.37V61.6a4.46,4.46,0,0,1-4.43,4.47H57.37a3.7,3.7,0,0,0-3.7,3.7V73.9c0,3.33-3.2,5.33-5.6,3.5L16.73,53.5a4.41,4.41,0,0,1,0-7L48.07,22.57c2.4-1.84,5.6.16,5.6,3.5v4.16a3.7,3.7,0,0,0,3.7,3.7H73.9A4.43,4.43,0,0,1,78.33,38.37Z"/></g></svg>