<svg id="Layer_1" data-name="Layer 1" xmlns="http://www.w3.org/2000/svg" viewBox="0 0 100 100"><defs><style>.cls-1{opacity:0.3;}.cls-2{fill:#7fbc3b;}</style></defs><title>bin</title><path class="cls-1" d="M14.83,28.22V35h5.71V95.37A4.63,4.63,0,0,0,25.17,100H74.31a4.54,4.54,0,0,0,4.53-4.63V35h5.81V28.22Zm20,59a2.86,2.86,0,0,1-5.71,0V40.92a2.86,2.86,0,1,1,5.71,0ZM47,87.2a2.86,2.86,0,0,1-5.71,0V40.92a2.86,2.86,0,1,1,5.71,0Zm11.72,0a2.86,2.86,0,0,1-5.71,0V40.92a2.86,2.86,0,1,1,5.71,0Zm11.52,0a2.81,2.81,0,1,1-5.61,0V40.92a2.81,2.81,0,1,1,5.61,0Z"/><polygon class="cls-1" points="86.05 16.27 84.76 25.14 14.88 14.88 16.16 6.01 36.16 9.02 37.36 0.74 68.11 5.72 66.91 14 86.05 16.27"/><path class="cls-2" d="M14,27.48v6.79h5.71V94.64a4.62,4.62,0,0,0,4.63,4.62H73.43A4.53,4.53,0,0,0,78,94.64V34.27h5.81V27.48Zm20,59a2.86,2.86,0,1,1-5.71,0V40.18a2.86,2.86,0,0,1,5.71,0Zm12.21,0a2.86,2.86,0,1,1-5.71,0V40.18a2.86,2.86,0,0,1,5.71,0Zm11.72,0a2.86,2.86,0,1,1-5.71,0V40.18a2.86,2.86,0,0,1,5.71,0Zm11.52,0a2.81,2.81,0,1,1-5.61,0V40.18a2.81,2.81,0,1,1,5.61,0Z"/><polygon class="cls-2" points="85.17 15.53 83.88 24.4 13.99 14.14 15.28 5.28 35.27 8.28 36.48 0 67.23 4.98 66.02 13.27 85.17 15.53"/></svg>