<svg xmlns="http://www.w3.org/2000/svg" viewBox="0 0 100 100"><defs><style>.cls-1{fill:#003d91;}.cls-2{fill:#f24533;}</style></defs><title>bluetooth_inactive</title><g id="Layer_2" data-name="Layer 2"><circle class="cls-1" cx="50" cy="50" r="50"/><path class="cls-2" d="M71.6,60.28,53.81,50h0L71.6,39.72a6.57,6.57,0,0,0,0-11.39L51.38,16.65a6.43,6.43,0,0,0-9.64,5.57V43L30.93,36.75a4,4,0,1,0-4,7L37.81,50,26.89,56.4a4,4,0,0,0,4.05,7L41.74,57V77.78a6.43,6.43,0,0,0,9.64,5.56L71.6,71.66a6.57,6.57,0,0,0,0-11.38ZM49.78,25l15.6,9-15.6,9Zm0,50V57l15.6,9Z"/></g></svg>