<svg xmlns="http://www.w3.org/2000/svg" viewBox="0 0 100 100"><defs><style>.cls-1{fill:#fa872a;}.cls-2{fill:#fff;fill-rule:evenodd;}</style></defs><title>close</title><g id="Layer_2" data-name="Layer 2"><circle class="cls-1" cx="50" cy="50" r="50"/><path class="cls-2" d="M73.23,76.67a4.41,4.41,0,0,1-6.2.74l-15.25-12-12,15.25a4.41,4.41,0,0,1-6.2.75L24.06,74a4.41,4.41,0,0,1-.75-6.2l12-15.26L20,40.52a4.41,4.41,0,0,1-.75-6.2l7.49-9.55A4.42,4.42,0,0,1,33,24L48.23,36l12-15.26A4.42,4.42,0,0,1,66.41,20L76,27.49a4.41,4.41,0,0,1,.74,6.2l-12,15.25L80,60.92a4.42,4.42,0,0,1,.74,6.2"/></g></svg>