<svg xmlns="http://www.w3.org/2000/svg" viewBox="0 0 100 100"><defs><style>.cls-1{fill:#10d1ff;}.cls-2{fill:#fff;}</style></defs><title>reload</title><g id="Layer_2" data-name="Layer 2"><circle class="cls-1" cx="50" cy="50" r="50"/><path class="cls-2" d="M81.64,29.3,78.41,47.77a1.92,1.92,0,0,1-3.13,1.14l-14.38-12a1.93,1.93,0,0,1,.58-3.28l2.28-.83A21.85,21.85,0,0,0,50.88,28,22.11,22.11,0,0,0,30.15,40.56a5.72,5.72,0,0,1-6.52,3h0a5.8,5.8,0,0,1-3.87-8.16,33.61,33.61,0,0,1,56-7.07l3.31-1.21A1.93,1.93,0,0,1,81.64,29.3Z"/><path class="cls-2" d="M76.48,56.42a5.77,5.77,0,0,1,3.9,8A33.75,33.75,0,0,1,50.05,83.6c-.43,0-.85,0-1.27,0A33.41,33.41,0,0,1,24.33,71.62L20.45,73a1.58,1.58,0,0,1-2.09-1.75l3.39-19.41a1.72,1.72,0,0,1,2.8-1L39.72,63.53a1.54,1.54,0,0,1-.46,2.62l-2.92,1.07a22,22,0,0,0,33.6-7.76,5.74,5.74,0,0,1,6.54-3Z"/></g></svg>