<svg id="Layer_1" data-name="Layer 1" xmlns="http://www.w3.org/2000/svg" viewBox="0 0 100 100"><defs><style>.cls-1{fill:#00c6b3;}.cls-2,.cls-6{fill:#cddcf0;}.cls-2{stroke:#000;stroke-linejoin:bevel;stroke-width:3px;}.cls-3{fill:#0f2689;}.cls-4{fill:#1f55ba;}.cls-5{fill:#0f2486;}.cls-7{fill:#fff;}.cls-8{fill:#2055bb;}</style></defs><title>save</title><circle class="cls-1" cx="50" cy="50" r="50"/><path class="cls-2" d="M81.2,40.92,72.32,81.64a1.41,1.41,0,0,1-1.59,1.1c-14.88-2.26-33.09-6.6-52.11-11.42a1.4,1.4,0,0,1-.89-.69v0l-1.27-2.19s0,0,0,0a1.39,1.39,0,0,1-.27-.49l0,0h0a1.25,1.25,0,0,1-.07-.69C19,50.12,22.57,33.89,26.62,18.81a1.42,1.42,0,0,1,1.68-1l9.25,2,4.05.88,27.81,6.06.4.09,3.51.77a1.45,1.45,0,0,1,.92.67l1.4,2.4a.48.48,0,0,1,.09.11L81,39.92A1.36,1.36,0,0,1,81.2,40.92Z"/><path class="cls-3" d="M81.2,40.92,72.32,81.64a1.41,1.41,0,0,1-1.59,1.1c-14.88-2.26-33.09-6.6-52.11-11.42a1.4,1.4,0,0,1-.89-.69v0l-1.27-2.19s0,0,0,0l-.27-.49,0,0h0l1.74.08c2.84-16.42,6.3-32,10.22-46.63a1.44,1.44,0,0,1,1.68-1L37,21.88l4.06.88,17.7,3.86,6.56,1.43,3.65.79.48.11,5.37,1.17a1.46,1.46,0,0,1,.83.56.48.48,0,0,1,.09.11L81,39.92A1.36,1.36,0,0,1,81.2,40.92Z"/><path class="cls-4" d="M79.71,38.41,70.83,79.12a1.42,1.42,0,0,1-1.59,1.1C54.36,78,36.15,73.63,17.13,68.8a1.43,1.43,0,0,1-.68-.38s0,0,0,0a1.39,1.39,0,0,1-.27-.49s0,0,0,0a1.25,1.25,0,0,1-.07-.69C19,50.12,22.57,33.89,26.62,18.81a1.42,1.42,0,0,1,1.68-1l9.25,2,4.05.88,27.81,6.06.4.09,3.51.77a1.45,1.45,0,0,1,.92.67l1.4,2.4,3.92,6.72A1.47,1.47,0,0,1,79.71,38.41Z"/><path class="cls-5" d="M69.81,26.84c-.1.6-.22,1.31-.37,2.11-.91,5-2.55,13.1-2.77,13.59a.88.88,0,0,1-.94.42,3,3,0,0,1-.42-.06s0,0,0,0l-2.63-.35-2.18-.34c-.58-.09-1.15-.18-1.74-.29A185.13,185.13,0,0,1,40.6,37.85l-1.28-.35c-1.52-.41-3-.84-4.57-1.3a.92.92,0,0,1-.72-1c.9-4.33,1.8-8.85,3-13.37.18-.68.37-1.39.56-2.07l4.05.88,27.81,6.06Z"/><path class="cls-6" d="M41.6,20.69c-.19.69-.37,1.39-.55,2.07C39.92,27.2,39,31.73,38.27,36a1.34,1.34,0,0,0,1,1.51c6.6,1.73,13.09,3.3,19.42,4.43.59.11,1.16.2,1.74.29l2.18.34c.8.14,1.6.24,2.38.34a.53.53,0,0,0,.25,0s0,0,0,0c.35,0,.67-.13.72-.38.3-2,1.67-7.73,2.93-13.68.16-.69.3-1.4.45-2.09ZM62.43,41.24l-7.77-1.69,4.09-12.93.17-.54,6.51,1.42-.12.55Z"/><path class="cls-7" d="M65,75C49.6,72.6,35.76,69.84,23.2,66.12c-.37-.11-.74-.45-.65-.82C23.25,62.4,24.83,53,27.67,41a.88.88,0,0,1,1.06-.6l41.76,9.11a.89.89,0,0,1,.7,1L66,74.36A.89.89,0,0,1,65,75Z"/><ellipse class="cls-8" cx="35.16" cy="49.31" rx="3.25" ry="2.35" transform="translate(-20.51 73.15) rotate(-77.69)"/><ellipse class="cls-8" cx="61.57" cy="55.07" rx="3.25" ry="2.35" transform="translate(-5.36 103.49) rotate(-77.69)"/><path class="cls-8" d="M39.52,63.87c2.8,5.36,6.51,6.3,11.21,2.44Z"/></svg>