<?xml version="1.0" encoding="utf-8"?>
<!-- Generator: Adobe Illustrator 23.0.2, SVG Export Plug-In . SVG Version: 6.00 Build 0)  -->
<svg version="1.1" id="Capa_1" xmlns="http://www.w3.org/2000/svg" xmlns:xlink="http://www.w3.org/1999/xlink" x="0px" y="0px"
	 viewBox="0 0 595.3 595.3" style="enable-background:new 0 0 595.3 595.3;" xml:space="preserve">
<style type="text/css">
	.st0{fill:#F69D5E;}
	.st1{fill:#2B2B2B;}
	.st2{fill:#29A9E0;}
	.st3{fill:#403F41;}
	.st4{fill:#FFFFFF;}
</style>
<path class="st0" d="M148.1,231.2c-9.8-2.6-19.4,4.9-19.6,15.1c-1.6,69.4-6.1,190.2-6.1,190.2s-2.3,29.3,9.3,42.5s29,19,29,19
	l-29,60.3l175,37l86.9-123.9L167.1,259.6C167.1,259.6,171.3,237.4,148.1,231.2z"/>
<path class="st0" d="M426.3,92.2l-30.6,40.2c-7.9,10.1-45.1,27.6-29.1,42.9c19.4,18.5,43.1,19.3,50.7,11.2l53.7-59.4
	c8.1-9.8,19.4-28.4,2.6-44.5C454.1,64,433.8,84,426.3,92.2z"/>
<path class="st1" d="M393.2,0.1h-202c-13.7,0-24.8,12.3-24.8,27.6v429.6c0,15.2,11.1,27.6,24.8,27.6h202c13.7,0,24.8-12.3,24.8-27.6
	V27.6C418,12.4,406.9,0.1,393.2,0.1z"/>
<rect x="181.9" y="61" class="st2" width="220.6" height="355.8"/>
<path class="st3" d="M276.1,433.4h40.8c4.6,0,8.3,3.7,8.3,8.3v12.7c0,4.6-3.7,8.3-8.3,8.3h-40.8c-4.6,0-8.3-3.7-8.3-8.3v-12.7
	C267.8,437.1,271.5,433.4,276.1,433.4z"/>
<path class="st3" d="M274.9,24.4h40.2c2.4,0,4.3,1.9,4.3,4.3v0.5c0,2.4-1.9,4.3-4.3,4.3h-40.2c-2.4,0-4.3-1.9-4.3-4.3v-0.5
	C270.6,26.3,272.5,24.4,274.9,24.4z"/>
<path class="st0" d="M405.5,362.7l-9.8,12.3c-7.9,10.1-17.3,27.6-1.3,42.9c19.4,18.5,39.7-1.5,47.2-9.7l8.5-10.8
	c8.1-9.8,19.4-28.4,2.6-44.5C433.2,334.5,412.9,354.5,405.5,362.7z"/>
<path class="st0" d="M405.5,283.2l-9.8,12.4c-7.9,10.1-17.3,27.6-1.3,42.9c19.4,18.5,39.7-1.5,47.2-9.7l8.5-10.7
	c8.1-9.8,19.4-28.4,2.6-44.5C433.2,255,412.9,275,405.5,283.2z"/>
<path class="st0" d="M405.5,203l-9.8,12.4c-7.9,10.1-17.3,27.6-1.3,42.9c19.4,18.5,39.7-1.5,47.2-9.7l8.5-10.8
	c8.1-9.8,19.4-28.4,2.6-44.5C433.2,174.8,412.9,194.9,405.5,203z"/>
<path class="st4" d="M286.2,230.7l35.5-35.7c3.8-3.9,3.8-10.1,0-13.9c-0.4-0.4-0.9-0.8-1.4-1.2l-45.2-30.4c-4.5-3-10.7-1.8-13.7,2.7
	c-1.1,1.6-1.7,3.5-1.7,5.4v47.2l-23.5-23.8c-3.8-3.8-10-3.8-13.9,0s-3.8,10,0,13.9l35.4,35.7l-35.4,35.7c-3.9,3.8-4,10-0.3,13.9
	c3.8,3.9,10,4,13.9,0.3c0.1-0.1,0.2-0.2,0.3-0.3l23.5-23.8v47.2c0,5.5,4.5,9.9,10,9.8c1.9,0,3.8-0.6,5.4-1.7l45.2-30.4
	c4.5-3,5.7-9.1,2.7-13.6c-0.4-0.5-0.8-1-1.2-1.5L286.2,230.7z M279.6,176.1l20,13.4l-20,20.1V176.1z M279.6,285.3v-33.5l20,20
	L279.6,285.3z"/>
<path class="st4" d="M312.3,231.2l23.3,23.3c3-7.1,4-15.2,4-23.3s-2-16.2-4-23.3L312.3,231.2z"/>
<path class="st4" d="M365.9,177.6l-12.1,13.1c6.1,12.1,10.1,26.3,10.1,40.5s-4,28.3-10.1,40.5l12.1,12.1
	c10.1-15.2,15.2-34.4,15.2-53.6S376,192.8,365.9,177.6z"/>
</svg>
