<?xml version="1.0" encoding="utf-8"?>
<!-- Generator: Adobe Illustrator 23.0.2, SVG Export Plug-In . SVG Version: 6.00 Build 0)  -->
<svg version="1.1" id="Layer_1" xmlns="http://www.w3.org/2000/svg" xmlns:xlink="http://www.w3.org/1999/xlink" x="0px" y="0px"
	 viewBox="0 0 300 199.7" style="enable-background:new 0 0 300 199.7;" xml:space="preserve">
<style type="text/css">
	.st0{fill:#757575;}
	.st1{fill:#00B1FF;}
	.st2{fill:#15BDF9;}
	.st3{fill:#FFFFFF;}
	.st4{fill:#626C72;}
	.st5{fill:#96A5B3;}
	.st6{fill:#2F3E4A;}
	.st7{fill:#222D35;}
	.st8{opacity:0.27;}
	.st9{fill:#353535;stroke:#000000;stroke-width:7.000000e-02;stroke-linejoin:round;}
	.st10{fill:#4D4D4D;}
	.st11{fill:#B3B3B3;}
	.st12{opacity:0.41;fill:#F9F7F7;enable-background:new    ;}
	.st13{fill:#D3161D;}
	.st14{fill:#77401B;stroke:#070707;stroke-width:9.000000e-02;stroke-miterlimit:10;}
	.st15{fill:#F8C946;stroke:#020202;stroke-width:9.000000e-02;stroke-miterlimit:10;}
	.st16{fill:#282828;stroke:#151616;stroke-width:7.000000e-02;stroke-miterlimit:10;}
	.st17{fill:#4D4D4D;stroke:#151616;stroke-width:7.000000e-02;stroke-miterlimit:10;}
	.st18{fill:#4D4D4D;stroke:#151616;stroke-width:0.27;stroke-miterlimit:10;}
	.st19{fill:#F8C946;}
	.st20{fill:#683919;}
	.st21{fill:#945320;}
	.st22{fill:#7F1119;}
	.st23{fill:#5E0E18;}
	.st24{fill:#352F49;}
	.st25{fill:#E41E00;}
	.st26{fill:#FFFE28;}
	.st27{fill:#18FF08;}
	.st28{fill:#DBDDDD;}
	.st29{fill:#0FB0DB;}
	.st30{fill:#303435;}
	.st31{fill:url(#SVGID_1_);stroke:#0A0A0A;stroke-width:4.000000e-02;stroke-miterlimit:10;}
	.st32{fill:none;stroke:#0A0A0A;stroke-width:4.000000e-02;stroke-miterlimit:10;}
	.st33{fill:url(#SVGID_2_);stroke:#0A0A0A;stroke-width:4.000000e-02;stroke-miterlimit:10;}
	.st34{fill:url(#SVGID_3_);stroke:#0A0A0A;stroke-width:4.000000e-02;stroke-miterlimit:10;}
	.st35{fill:url(#SVGID_4_);stroke:#0A0A0A;stroke-width:4.000000e-02;stroke-miterlimit:10;}
	.st36{fill:none;stroke:#070707;stroke-width:5.000000e-02;stroke-miterlimit:10;}
	.st37{fill:none;stroke:#070707;stroke-width:0.1;stroke-miterlimit:10;}
	.st38{fill:#ADADAD;stroke:#080000;stroke-width:0.1;stroke-miterlimit:10;}
	.st39{fill:#515051;stroke:#000000;stroke-width:0.1;stroke-linejoin:round;}
	.st40{fill:#8E8A8B;stroke:#000000;stroke-width:9.000000e-02;stroke-linejoin:round;}
	.st41{fill:#161616;}
	.st42{fill:#E2B647;stroke:#070707;stroke-width:9.000000e-02;stroke-miterlimit:10;}
	.st43{fill:#945320;stroke:#070707;stroke-width:9.000000e-02;stroke-miterlimit:10;}
	.st44{fill:#3A3A3A;}
	.st45{fill:#666666;}
	.st46{fill:#AA161D;}
	.st47{fill:none;}
	.st48{fill:#DDDBD7;}
	.st49{fill:#212121;}
	.st50{fill:#282828;}
	.st51{fill:#7C7C7C;}
	.st52{fill:#389CCE;}
	.st53{fill:#212121;stroke:#000000;stroke-width:9.000000e-02;stroke-miterlimit:10;}
	.st54{fill:#4D4D4D;stroke:#151616;stroke-width:0.11;stroke-miterlimit:10;}
	.st55{fill:none;stroke:#000000;stroke-width:9.000000e-02;stroke-miterlimit:10;}
	.st56{fill:#5B5B5B;stroke:#000000;stroke-width:9.000000e-02;stroke-miterlimit:10;}
	.st57{fill:#77401B;stroke:#070707;stroke-width:0.14;stroke-miterlimit:10;}
	.st58{fill:#F8C946;stroke:#020202;stroke-width:0.14;stroke-miterlimit:10;}
	.st59{opacity:0.74;fill:#FFFFFF;stroke:#000000;stroke-width:9.000000e-02;stroke-miterlimit:10;enable-background:new    ;}
	.st60{fill:#282828;stroke:#151616;stroke-width:0.22;stroke-miterlimit:10;}
	.st61{fill:#4D4D4D;stroke:#151616;stroke-width:0.22;stroke-miterlimit:10;}
	.st62{fill:#4D4D4D;stroke:#151616;stroke-width:0.79;stroke-miterlimit:10;}
	.st63{fill:#353535;stroke:#000000;stroke-width:0.19;stroke-linejoin:round;}
	.st64{fill:#ADADAD;stroke:#080000;stroke-width:0.25;stroke-miterlimit:10;}
	.st65{fill:none;stroke:#070707;stroke-width:0.39;stroke-miterlimit:10;}
	.st66{fill:#77401B;stroke:#070707;stroke-width:0.26;stroke-miterlimit:10;}
	.st67{fill:#F8C946;stroke:#020202;stroke-width:0.26;stroke-miterlimit:10;}
	.st68{fill:#282828;stroke:#151616;stroke-width:0.21;stroke-miterlimit:10;}
	.st69{fill:#4D4D4D;stroke:#151616;stroke-width:0.21;stroke-miterlimit:10;}
	.st70{fill:#4D4D4D;stroke:#151616;stroke-width:0.76;stroke-miterlimit:10;}
	.st71{fill:#515051;stroke:#000000;stroke-width:0.26;stroke-linejoin:round;}
	.st72{fill:#161616;stroke:#0A0A0A;stroke-width:0.22;stroke-miterlimit:10;}
	.st73{fill:#8E8A8B;stroke:#000000;stroke-width:0.22;stroke-linejoin:round;}
	.st74{fill:#E2B647;stroke:#070707;stroke-width:0.22;stroke-miterlimit:10;}
	.st75{fill:#945320;stroke:#070707;stroke-width:0.22;stroke-miterlimit:10;}
	.st76{fill:none;stroke:#0A0A0A;stroke-width:0.22;stroke-miterlimit:10;}
	.st77{fill:#232323;}
	.st78{fill:none;stroke:#000000;stroke-width:0.22;stroke-miterlimit:10;}
	.st79{fill:none;stroke:#070707;stroke-width:0.26;stroke-miterlimit:10;}
	.st80{fill:url(#SVGID_5_);stroke:#0A0A0A;stroke-width:0.1;stroke-miterlimit:10;}
	.st81{fill:none;stroke:#0A0A0A;stroke-width:0.1;stroke-miterlimit:10;}
	.st82{fill:url(#SVGID_6_);stroke:#0A0A0A;stroke-width:0.1;stroke-miterlimit:10;}
	.st83{fill:url(#SVGID_7_);stroke:#0A0A0A;stroke-width:0.1;stroke-miterlimit:10;}
	.st84{fill:url(#SVGID_8_);stroke:#0A0A0A;stroke-width:0.1;stroke-miterlimit:10;}
	.st85{fill:none;stroke:#070707;stroke-width:0.13;stroke-miterlimit:10;}
	.st86{fill:#F8C946;stroke:#000000;stroke-width:0.13;stroke-miterlimit:10;}
	.st87{fill:none;stroke:#0A0A0A;stroke-width:0.21;stroke-miterlimit:10;}
	.st88{fill:#0FB0DB;stroke:#FFFFFF;stroke-width:2.99;stroke-miterlimit:10;}
	.st89{fill:#0B7087;}
	.st90{fill:#0FB0DB;stroke:#FFFFFF;stroke-width:1.66;stroke-miterlimit:10;}
	.st91{opacity:0.75;enable-background:new    ;}
	.st92{fill:#E78D00;}
	.st93{fill:#FACB03;}
	.st94{fill:#CCCCCC;}
	.st95{fill:#FEFEFE;}
	.st96{fill:#F7B808;}
	.st97{fill:#703500;}
	.st98{fill:#220B00;}
	.st99{opacity:0.8;fill:#FFFFFF;enable-background:new    ;}
</style>
<title>guide_loop_lock</title>
<path class="st0" d="M300.1,18.6v168c0,7.3-5.9,13.2-13.2,13.2H13.5c-7.3,0-13.2-5.8-13.3-13.1v-5.1l0,0v-163c0-2.6,0.7-5,2-7
	c1.5-2.5,3.9-4.4,6.6-5.4l0,0c1.4-0.5,2.9-0.8,4.5-0.8h273.5c1.7,0,3.3,0.3,4.7,0.9c2.7,1,5,2.9,6.5,5.3c0.9,1.5,1.6,3.2,1.8,5
	C300,17.2,300.1,17.9,300.1,18.6z"/>
<path class="st1" d="M299.9,13.6v168c0,7.3-5.9,13.2-13.2,13.2H13.3c-0.4,0-0.9,0-1.3-0.1c-0.2,0-0.4-0.1-0.7-0.1l0,0
	c-5.7-0.9-10.1-5.3-11-11c-0.1-0.7-0.2-1.3-0.2-2v-168c0-7.1,5.6-12.9,12.7-13.2c0.2,0,0.5,0,0.7,0h273.4c3.1,0,5.9,1.1,8.1,2.9
	c0.2,0.2,0.4,0.3,0.6,0.5c2.2,2,3.7,4.7,4.2,7.8C299.9,12.2,299.9,12.9,299.9,13.6z"/>
<path class="st2" d="M299.9,11.6H0.4C1.4,5.2,7,0.4,13.5,0.5h273.4C293.4,0.5,298.9,5.2,299.9,11.6z"/>
<path class="st3" d="M299.9,11.6L299.9,11.6c0-0.1,0-0.1,0-0.2c-1-6.3-6.4-11.1-13-11.1H13.5c-0.2,0-0.5,0-0.7,0
	C5.8,0.7,0.3,6.5,0.2,13.5v168.1l0,0c0,6.5,4.8,12,11,13l0,0c0.2,0,0.4,0.1,0.7,0.1c0.5,0.1,1,0.1,1.5,0.1h273.4
	c7.3,0,13.2-5.9,13.2-13.2v-168C300.1,12.9,300,12.2,299.9,11.6z M4.8,181.6v-168c0-0.7,0.1-1.3,0.2-2c0.5-2.3,2-4.2,3.9-5.4l0,0
	c1.3-0.9,2.9-1.3,4.6-1.3h273.4c1.7,0,3.4,0.5,4.7,1.4c1.9,1.2,3.2,3.1,3.8,5.3c0.2,0.6,0.2,1.3,0.2,2v168c0,4.8-3.9,8.7-8.7,8.7
	H13.5C8.7,190.3,4.8,186.4,4.8,181.6z"/>
<circle class="st4" cx="285" cy="15.3" r="6.2"/>
<circle class="st5" cx="285" cy="15.3" r="5.5"/>
<polygon class="st6" points="288.5,13.7 288.1,17.6 284.6,19.2 281.5,16.9 281.8,13.1 285.4,11.5 "/>
<path class="st7" d="M288.5,13.7l-0.2,1.7c-0.8-1-1.9-1.7-3.2-1.9c-1.3-0.1-2.6,0.3-3.5,1.2l0.2-1.8l3.5-1.6L288.5,13.7z"/>
<circle class="st4" cx="15.3" cy="15.3" r="6.2"/>
<circle class="st5" cx="15.3" cy="15.3" r="5.6"/>
<polygon class="st6" points="18.7,13.4 18.7,17.3 15.3,19.2 12,17.3 12,13.4 15.3,11.4 "/>
<path class="st7" d="M18.7,13.4v1.8c-0.9-0.9-2.1-1.5-3.4-1.5s-2.5,0.6-3.4,1.5v-1.8l3.4-1.9L18.7,13.4z"/>
<circle class="st4" cx="15.3" cy="178.9" r="6.2"/>
<circle class="st5" cx="15.3" cy="178.9" r="5.6"/>
<polygon class="st6" points="19.2,178.6 17.5,182.1 13.6,182.4 11.4,179.1 13.1,175.7 17,175.4 "/>
<path class="st7" d="M19.2,178.6l-0.8,1.6c-0.4-1.2-1.2-2.3-2.4-2.9c-1.2-0.6-2.5-0.6-3.7-0.1l0.8-1.6l3.9-0.3L19.2,178.6z"/>
<circle class="st4" cx="284.1" cy="178.9" r="6.2"/>
<circle class="st5" cx="284.1" cy="178.9" r="5.5"/>
<polygon class="st6" points="287,176.2 287.9,180 285,182.7 281.2,181.4 280.5,177.6 283.4,175.1 "/>
<path class="st7" d="M287,176.2l0.4,1.7c-1-0.7-2.4-1-3.6-0.8c-1.3,0.3-2.4,1.1-3,2.2l-0.4-1.7l2.9-2.6L287,176.2z"/>
<g class="st8">
	<path d="M221.9,167.8l-1-2.2l-1.8-3.8c-0.2,0.1-0.4,0.2-0.6,0.3c-2.9,1.3-5.8,2.4-8.7,3.4c-2.8,0.9-5.7,1.7-8.6,2.4l4.3,20
		c7.7-1.6,15.2-4.1,22.4-7.3L221.9,167.8z M182.8,190.3l-1-19.4c-6.5,0.5-13.1,0.5-19.6,0.1c-0.1,0-0.1,0-0.2,0v0.1l-1.6,19.3v0.1
		c7.5,0.6,15,0.8,22.4,0.4L182.8,190.3z M162,170.9L162,170.9L162,170.9L162,170.9z M136,167.3c-0.4-0.1-0.8-0.2-1.2-0.3
		c-0.2,0-0.4-0.1-0.6-0.1c-3-0.7-6-1.4-8.9-2.3l0,0l0,0c-0.8-0.2-1.7-0.5-2.5-0.7l-0.8,2.5l-0.2,0.5l0,0l-0.2,0.7l-0.2,0.7l-0.5,1.5
		l0,0l-3.9,11.7c6,2,12.2,3.7,18.4,5c1,0.2,2.1,0.5,3.1,0.7l3.2-15.7l0.2-0.8l0.2-0.8l0,0l0.1-0.7l0.2-0.8
		C140.2,168.1,138.1,167.7,136,167.3z M263.1,127.7c0-0.6-0.1-1.1-0.2-1.7l-1.1,0.1l-6.5,0.8l-6.1,0.8l-2.4,0.3
		c-0.1,1.5-0.4,3-0.7,4.5c-0.6,2.8-1.6,5.4-2.8,7.9c0,0.1-0.1,0.2-0.1,0.2c-0.4,0.8-0.9,1.7-1.4,2.5c-1.4,2.3-3.2,4.5-5.2,6.6
		c-0.7,0.8-1.5,1.5-2.3,2.2l2.6,2.6l3.7,3.7l1.3,1.2l2.1,2.1l0.6,0.6l0.6,0.6l3.5,3.4c3.5-3.4,6.5-7.3,8.8-11.6
		c0.3-0.5,0.5-1,0.8-1.5c0.3-0.6,0.6-1.2,0.9-1.9c1-2.2,1.8-4.4,2.4-6.7c0.2-0.8,0.4-1.6,0.6-2.5
		C263.2,137.5,263.5,132.6,263.1,127.7z M94.8,152.7c-1.9-1-3.8-2-5.6-3.1c-1-0.6-2-1.2-3-1.8l-2.5,3.6l-1.9,2.8l0,0l-5.2,7.6
		c6.3,4.2,12.8,8,19.7,11.3l5.7-11.9l0,0l1.6-3.3l0.4-0.9C100.8,155.7,97.8,154.3,94.8,152.7z M56.3,121l-12.2,6.1
		c3.8,7.3,8.7,14,14.5,19.9l11.2-11C64.8,131.6,60.2,126.6,56.3,121z M245.9,91.4C245.9,91.3,245.9,91.3,245.9,91.4
		c-1.2-1.4-2.5-2.7-3.7-4c-0.2-0.2-0.4-0.4-0.6-0.5c-0.6-0.6-1.1-1.1-1.7-1.7c0-0.1-0.1-0.1-0.2-0.1c-0.6-0.6-1.3-1.2-1.9-1.8
		l-1.4,1.5l-0.1,0.1l-4.7,5.2l-0.8,0.9c0.2,0.2,0.3,0.4,0.5,0.5c1.3,1.4,2.6,2.9,3.9,4.4c0.2,0.3,0.5,0.6,0.7,0.9
		c1.3,1.8,2.6,3.6,3.8,5.4l0.1,0.1c1.2,1.9,2.2,3.8,3.2,5.9l2.8-1.8l7.9-5.1C251.3,98,248.8,94.6,245.9,91.4z M216.3,67.6
		c-1.1-0.6-2.2-1.2-3.2-1.8c-1.2-0.7-2.4-1.3-3.5-1.9c-0.8-0.4-1.5-0.8-2.3-1.2c-0.1,0-0.2-0.1-0.3-0.1c-1.2-0.6-2.5-1.2-3.8-1.8
		c-0.1,0-0.1-0.1-0.2-0.1c0,0,0,0-0.1,0c-0.3-0.2-0.7-0.3-1-0.4c-0.4-0.2-0.9-0.4-1.3-0.6l0,0c-0.4-0.2-0.8-0.3-1.1-0.5l0,0
		l-0.2,0.5l0,0l-0.5,1.1l-2.6,5.9c1,0.5,2,1,3,1.5c2.5,1.3,5,2.6,7.5,4.1c1.1,0.7,2.2,1.3,3.3,2c0,0,0.1,0,0.1,0.1
		c0.1,0,0.2,0.1,0.2,0.1c1,0.6,2,1.3,3.1,2l0,0c0.4,0.3,0.8,0.6,1.2,0.8l2.2-3.6l2.6-4.2C218.3,68.9,217.3,68.2,216.3,67.6z
		 M52.8,78.2l-5.2-3.8c-5.8,7.6-9.1,16.8-9.5,26.4l10,0.4C46.9,93.2,48.6,85,52.8,78.2z M176.4,51c-0.9-0.3-1.7-0.5-2.6-0.7
		c-0.3-0.1-0.5-0.1-0.8-0.2c-0.4-0.1-0.7-0.2-1.1-0.3c-0.3-0.1-0.7-0.2-1-0.3c-1.6-0.4-3.2-0.8-4.9-1.2c-3.1-0.7-6.2-1.3-9.3-1.8
		l-0.4,2.4l-0.6,3.5l0,0l-0.1,0.8v0.2c0.1,0,0.2,0,0.3,0.1c0.6,0.1,1.2,0.2,1.8,0.4c0,0,0,0,0.1,0c0.7,0.2,1.4,0.3,2.1,0.5
		c3.8,0.9,7.6,1.8,11.2,2.9c0.1,0,0.1,0,0.1,0c0.4,0.1,0.8,0.2,1.2,0.4c0,0,0.1,0,0.2,0c0.5,0.1,0.9,0.3,1.3,0.4
		c0.8,0.2,1.6,0.5,2.3,0.7l1-3.3l0.4-1.2l0.2-0.7l0.6-2C177.7,51.4,177.1,51.2,176.4,51z M89.5,48.6c-7.7,2.1-15.2,5.1-22.2,9
		l2.7,4.8c6.6-3.7,13.6-6.5,20.9-8.3L89.5,48.6z M133.3,44.1c-0.1,0-0.3,0-0.4,0c-0.5,0-1.1,0-1.6-0.1l0,0l0,0c-0.3,0-0.5,0-0.8,0
		c-0.4,0-0.9,0-1.3,0c-0.2,0-0.3,0-0.4,0h-0.5c-0.3,0-0.6,0-1,0h-1.4c-0.1,0-0.2,0-0.2,0c-0.9,0-1.8,0-2.7,0c-0.8,0-1.6,0-2.4,0.1
		c-0.2,0-0.5,0-0.7,0c-0.1,0-0.1,0-0.2,0c-0.2,0-0.4,0-0.6,0c-0.5,0-0.9,0-1.4,0.1c-0.5,0-1,0.1-1.5,0.1c-0.2,0-0.4,0-0.5,0
		s-0.2,0-0.3,0c0,0,0,0-0.1,0c-0.3,0-0.6,0-0.9,0.1c-0.1,0-0.2,0-0.2,0c-0.1,0-0.1,0-0.2,0c-0.3,0-0.5,0-0.8,0.1h-0.1H113
		c-0.1,0-0.2,0-0.3,0c-0.1,0-0.2,0-0.3,0h-0.1l0.1,0.8v0.2V46l0.1,0.5l0.1,1.2l0,0l0.1,1.6l0.1,0.9v0.1v0.1h0.1l0,0
		c0.1,0,0.3,0,0.4,0c0.5,0,1-0.1,1.5-0.1c0.1,0,0.3,0,0.4,0l0,0c0.5,0,1-0.1,1.5-0.1l0,0c1.4-0.1,2.8-0.1,4.1-0.1h0.1
		c0.2,0,0.4,0,0.5,0c0.8,0,1.6,0,2.4,0c0.3,0,0.7,0,1,0c0.6,0,1.2,0,1.8,0c0.2,0,0.4,0,0.6,0h0.1c0.3,0,0.6,0,0.9,0
		c0.6,0,1.2,0,1.8,0.1c0.3,0,0.6,0,0.8,0c0.5,0,1,0,1.5,0.1c0.6,0,1.2,0.1,1.8,0.1h0.1l0,0v-0.1v-0.8v-0.4l0.2-5.2
		C134.2,44.1,133.7,44.1,133.3,44.1z"/>
</g>
<g class="st8">
	<path d="M103.9,68.8l-0.1-0.4l0,0l-0.1-0.4l-1.1-4.1l-0.2-0.6c-0.1,0-0.2,0.1-0.3,0.1c-0.1,0-0.2,0-0.3,0.1c-1.6,0.4-3.1,1-4.6,1.5
		c-0.5,0.2-1,0.4-1.4,0.6c-0.1,0-0.3,0.1-0.4,0.2S95.1,65.9,95,66c-3.5,1.5-6.8,3.4-10,5.7l4.5,6c4.2-3.3,9-5.8,14.2-7.4
		c0.2-0.1,0.4-0.1,0.6-0.2L103.9,68.8z M134.1,61.3c-0.3,0-0.5-0.1-0.8-0.1s-0.5-0.1-0.8-0.1l0,0c-3.2-0.4-6.4-0.5-9.7-0.5
		c-0.3,0-0.6,0-0.9,0c-0.5,0-1,0-1.5,0l0.1,3.1l0.1,2.2v1.5c3.2-0.1,6.4,0,9.5,0.3l0,0c0.2,0,0.5,0,0.8,0.1c0.2,0,0.5,0,0.8,0.1
		c1.8,0.2,3.5,0.5,5.3,0.8l1.2-6.7C136.8,61.7,135.5,61.5,134.1,61.3z M166.7,72.2c-0.3-0.2-0.5-0.3-0.8-0.5
		c-0.3-0.1-0.5-0.3-0.8-0.4c-0.1-0.1-0.3-0.2-0.4-0.2c-0.7-0.4-1.5-0.8-2.2-1.2c-0.8-0.4-1.6-0.8-2.4-1.1c-0.8-0.4-1.7-0.8-2.6-1.2
		c-0.7-0.3-1.4-0.6-2.1-0.9c-0.1,0-0.1,0-0.2-0.1l0,0l-0.8,2l-0.5,1.4l-0.1,0.2l0,0l-1.1,2.8c4.2,1.6,8.1,3.7,11.9,6.1
		c0.2,0.2,0.5,0.3,0.7,0.5s0.5,0.3,0.7,0.5c0.4,0.2,0.7,0.5,1.1,0.8l3.8-5.6l0.2-0.3C169.7,74.1,168.2,73.1,166.7,72.2z M80.5,91.3
		l-8.3-3c-0.5,1.3-0.9,2.6-1.2,4c-1,4.3-1,8.8-0.2,13.1c0.3,1.5,0.6,3,1.1,4.5l8.4-2.7c-1.2-5.1-1.2-10.4,0.1-15.5
		C80.4,91.6,80.4,91.4,80.5,91.3z M193.7,105.5c-0.7-3.1-1.8-6.2-3.1-9.1c-0.3-0.6-0.5-1.1-0.8-1.6c-0.1-0.2-0.2-0.4-0.3-0.6
		c-1.2-2.3-2.7-4.4-4.4-6.4c-0.1-0.1-0.1-0.1-0.2-0.2l-0.2,0.2l-0.8,0.7l-4.2,3.4l-0.7,0.5c0.2,0.2,0.4,0.5,0.5,0.7
		c0.3,0.5,0.7,0.9,1,1.4s0.7,1,1,1.6s0.6,1.1,0.9,1.7c0.9,1.9,1.7,3.9,2.2,6c0.1,0.3,0.1,0.5,0.2,0.8c0.1,0.2,0.1,0.5,0.1,0.7
		c0.1,0.3,0.1,0.6,0.2,0.9c0,0.1,0,0.3,0.1,0.4c0,0.1,0,0.2,0.1,0.4c0,0.1,0,0.3,0.1,0.4l0.6-0.1l2.4-0.5l1.2-0.2l1.5-0.3l1.2-0.2
		l0,0l1.2-0.2l0.4-0.1C193.7,105.7,193.7,105.6,193.7,105.5z M94.1,125.4c-0.2-0.2-0.5-0.3-0.8-0.5s-0.5-0.4-0.8-0.6
		c-1.4-1-2.7-2.1-4-3.3l-6.5,5.9c1.5,1.6,3.1,3.1,4.7,4.6l0,0c2.2,2,4.6,3.8,7,5.4h0.1c0.3,0.2,0.6,0.4,1,0.6c0.3,0.2,0.6,0.4,1,0.6
		l0,0l0.1,0.1l0.1,0.1c0.1,0.1,0.2,0.1,0.3,0.2l5.4-8.8C99.1,128.6,96.5,127.1,94.1,125.4z M192.9,119.5l-3-0.7l-4.6-1h-0.1
		l-1.2-0.3c-0.8,2.4-2,4.7-3.5,6.7c-0.2,0.3-0.4,0.6-0.6,0.8c-0.2,0.3-0.5,0.6-0.8,0.9c0,0-0.1,0.1-0.1,0.2l0,0
		c-0.2,0.2-0.3,0.4-0.5,0.5c-0.2,0.2-0.4,0.4-0.6,0.6c-0.5,0.5-1,1-1.6,1.5l-0.1,0.1c-0.3,0.3-0.7,0.5-1,0.8l2.2,2.5l2.7,3.1
		l1.6,1.8l0.8,0.9c1.6-1.4,3-2.9,4.3-4.5c0.7-0.9,1.4-1.9,2-2.8c0.2-0.3,0.4-0.6,0.5-0.8c0,0,0,0,0-0.1c1.5-2.5,2.7-5.1,3.5-7.8
		c0.1-0.3,0.2-0.5,0.2-0.8c0.1-0.5,0.3-0.9,0.4-1.4L192.9,119.5z M125,137.5L125,137.5c-2.9-0.6-5.7-1.3-8.6-2.2l-3.5,10.1l-0.3,0.8
		c0.3,0.1,0.5,0.2,0.8,0.3c3,1,6.2,1.9,9.3,2.6c2.4,0.5,4.8,1,7.1,1.3l1.7-11.8C129.3,138.4,127.2,138,125,137.5z M165.6,147.4
		l-2.4-6.9l-0.4-1.3l-0.5-1.3l-0.5-1.4c-4.9,1.5-9.9,2.5-15,2.8l0.4,4.9l0.5,6.9c2.7-0.2,5.4-0.5,8.1-1c1.2-0.2,2.5-0.5,3.7-0.8
		c0.3-0.1,0.6-0.1,0.9-0.2c0.3-0.1,0.6-0.2,0.9-0.2c1.5-0.4,2.9-0.8,4.4-1.3l0,0L165.6,147.4z"/>
</g>
<path class="st9" d="M139.8,44.5c-0.2-0.3-0.4-0.6-0.7-0.8c-2.1-2.1-4.3-4.1-6.6-5.9c-1.3-1-2.2-1.7-2.9-2.2c-0.8-0.6-1.7-1-2.7-1.2
	c-2-0.5-4.2,0-5.7,1.4c-2.5,1.9-4,2.7-4.4,3.2c-0.3,0.7-1.3,4.2-0.4,6.3c0.7,1.8,2,3.4,3.7,4.4c1.9,1,10,6.2,11.9,5.4
	c2.2-1,7.4-4.2,8.4-6.2C141.3,47.2,140.7,45.8,139.8,44.5z"/>
<path class="st10" d="M128.2,55.7c-3.1,0-11-1.5-12.6-2.3c-1.6-1-2.9-2.5-3.6-4.3c-0.6-1.2-0.3-2.9,0.8-5l0.1-0.2
	c0.7-1.4,1.6-2.7,2.8-3.7c0.9-0.8,2-1.3,3.2-1.4c0.2,0,0.5,0,0.7,0c0.5,0,1,0.1,1.5,0.2c0.9,0.2,1.8,0.5,2.6,1.1
	c0.3,0.2,0.7,0.5,1.1,0.8s1.1,0.8,1.8,1.4c2.3,1.8,4.4,3.8,6.5,5.8c0.2,0.2,0.5,0.5,0.7,0.8c0.9,1.3,1.4,2.5,0.6,4.2s-3.1,2.2-5,2.5
	l-0.4,0.1C128.7,55.6,128.4,55.6,128.2,55.7L128.2,55.7z"/>
<path d="M134.8,50.3c-0.1-0.3-0.3-0.7-0.4-1c-0.1-0.2-0.3-0.5-0.5-0.7c-0.2-0.3-0.4-0.6-0.7-0.8c-0.6-0.7-1.3-1.3-2-1.9l0,0
	c-0.7-0.7-1.4-1.3-2.1-1.9c-0.6-0.6-1.3-1.1-2-1.7c-0.2-0.1-0.3-0.3-0.5-0.4c-0.2-0.1-0.4-0.3-0.5-0.4c-0.2-0.1-0.3-0.3-0.5-0.4
	c-0.1-0.1-0.2-0.2-0.4-0.3c-0.6-0.5-1.1-0.8-1.5-1.1c-0.6-0.5-1.3-0.8-2.1-1l0,0h-0.1c-0.2,0-0.3-0.1-0.5-0.1s-0.3-0.1-0.5-0.1
	c-0.1,0-0.1,0-0.2,0c-0.2,0-0.3,0-0.5,0c-0.1,0-0.2,0-0.4,0h-0.1l0,0c-0.9,0-1.8,0.2-2.6,0.6c-0.5,0.2-1.1,0.6-1.5,1
	c-0.7,0.6-1.4,1.4-1.9,2.1c-0.1,0.2-0.3,0.4-0.4,0.6c-0.3,0.4-0.5,0.8-0.7,1.3c-0.1,0.1-0.1,0.3-0.2,0.5l0,0
	c-0.3,0.6-0.7,1.5-0.8,2.4c-0.1,0.4-0.1,0.9,0,1.3c0,0.4,0.1,0.7,0.3,1l0,0l0,0c0.1,0.2,0.2,0.5,0.3,0.7c0.2,0.3,0.3,0.6,0.5,0.9
	c0.3,0.5,0.6,0.9,1,1.3c0.5,0.6,1.2,1.1,1.9,1.5c0.4,0.2,1,0.4,1.8,0.6c0.4,0.1,0.9,0.2,1.4,0.4c0.2,0.1,0.5,0.1,0.8,0.2l0,0
	c2.3,0.5,5,0.9,7,1.1c0.6,0.1,1.2,0.1,1.7,0.1c0.3,0,0.6,0,0.9-0.1c0.8-0.2,1.7-0.3,2.6-0.6c1.3-0.4,2.4-1,3-2.2
	C135,52,135,51.1,134.8,50.3z M134,52.7c-0.6,1.3-2.3,1.8-4,2.2c-0.2,0-0.5,0.1-0.7,0.1l-0.4,0.1c-0.2,0-0.5,0-0.7,0
	c-0.3,0-0.7,0-1,0c-1.8-0.1-4.4-0.5-6.7-1l0,0c-0.5-0.1-1-0.2-1.5-0.3c-1.5-0.3-2.7-0.7-3.2-1c-0.1,0-0.2-0.1-0.2-0.2
	c-0.5-0.3-0.9-0.7-1.3-1.1l0,0c-0.3-0.3-0.6-0.7-0.9-1.1c-0.2-0.3-0.5-0.7-0.6-1.1c-0.1-0.2-0.2-0.4-0.3-0.6
	c-0.1-0.2-0.1-0.4-0.2-0.6l0,0c-0.1-0.4-0.1-0.8,0-1.3c0-0.3,0.1-0.6,0.2-0.9c0.1-0.3,0.2-0.5,0.3-0.8c0-0.1,0.1-0.1,0.1-0.2
	c0.1-0.2,0.2-0.3,0.2-0.5c0,0,0-0.1,0.1-0.1c0-0.1,0.1-0.2,0.1-0.2V44c0-0.1,0.1-0.1,0.1-0.2c0.2-0.4,0.4-0.7,0.6-1
	c0.2-0.4,0.5-0.8,0.8-1.1c0.2-0.2,0.4-0.5,0.6-0.7c0.2-0.3,0.5-0.5,0.8-0.8c0.2-0.2,0.4-0.3,0.7-0.5c0.7-0.4,1.4-0.7,2.2-0.8h0.1
	c0,0,0,0,0.1,0h0.7h0.1h0.1c0.3,0,0.6,0,0.9,0.1c0.1,0,0.2,0,0.3,0.1l0,0h0.1h0.1c0.1,0,0.2,0,0.3,0.1c0.1,0,0.2,0,0.3,0.1h0.1
	c0.6,0.2,1.1,0.4,1.6,0.8l1,0.8c0.4,0.3,0.9,0.7,1.4,1.1c0.1,0.1,0.2,0.2,0.4,0.3c0,0,0,0,0.1,0.1s0.3,0.2,0.4,0.3l0,0
	c0.5,0.4,0.9,0.8,1.4,1.2c1,0.8,2,1.7,2.9,2.6l0,0c0.6,0.5,1.1,1.1,1.7,1.6c0.2,0.2,0.4,0.5,0.6,0.7c0.4,0.5,0.7,1,0.8,1.6l0,0
	C134.4,51.2,134.4,51.9,134,52.7z"/>
<ellipse transform="matrix(0.8825 -0.4704 0.4704 0.8825 -8.6557 60.7826)" class="st11" cx="117.3" cy="47.7" rx="3.7" ry="4.6"/>
<ellipse transform="matrix(0.8821 -0.4711 0.4711 0.8821 -9.4773 64.5464)" class="st11" cx="124.2" cy="51.2" rx="2.6" ry="3.3"/>
<ellipse transform="matrix(0.8825 -0.4704 0.4704 0.8825 -8.7056 67.3426)" class="st11" cx="130.4" cy="51.1" rx="2.1" ry="2.6"/>
<path class="st12" d="M132.5,37.8l-2.2-0.8l1.8,3.5c0,0-5.2-3.4-5-3.2s2.4,2.5,2.4,2.5l-2.7-0.8l2.3,2.5l-2.8-0.8l1.2,1.3l-1.1-0.4
	l5.8,3.4l-2.1-2.2l3.4,1.5l-2.3-2.7l2.9,1.4l-1.7-3.3l1.7,1.1l-2.4-2.6l2.5,1.7L132.5,37.8z"/>
<polygon class="st12" points="121.6,35.5 124.4,35.4 121.9,36.1 124.2,36.3 120.4,36.8 121.3,37.1 118.7,37.6 "/>
<ellipse transform="matrix(0.8825 -0.4704 0.4704 0.8825 -8.7261 60.6987)" class="st13" cx="117.1" cy="47.8" rx="1.2" ry="1.7"/>
<ellipse transform="matrix(0.9699 -0.2436 0.2436 0.9699 -8.7945 31.8815)" class="st13" cx="124.5" cy="51.5" rx="1.1" ry="1.5"/>
<ellipse transform="matrix(0.9699 -0.2436 0.2436 0.9699 -8.5642 33.3364)" class="st13" cx="130.5" cy="51.3" rx="0.8" ry="1.1"/>
<path class="st14" d="M132.6,36.9l-9.3-1.7c-1.6-0.2-2.7-0.7-2.5-2.2l0,0c0.3-1.5,1.1-1.5,2.6-1.5l10.1-0.3c1.5,0.1,2.7,1.5,2.6,3
	l0,0C135.8,35.9,134.3,37,132.6,36.9z"/>
<path class="st15" d="M131.9,36.8l-9.7-1.6c-1.6-0.2-1.4-3.7,0-3.8l10.1-0.3c1.5,0.1,2.7,1.5,2.6,3l0,0
	C134.8,35.7,133.5,36.9,131.9,36.8z"/>
<path class="st16" d="M135,35.4c0,0-0.1,0.5-0.9,0.9c0.8,0.9,3.1,2.8,3.6,2.6c0.4-0.2,0.8-0.5,1.1-0.9c0.3-0.3,0.3-0.7,0-1l0,0
	c0-0.1-0.1-0.1-0.2-0.1c-1.3-0.7-3.3-1.6-3.3-1.6L135,35.4z"/>
<path class="st17" d="M134.1,36.3c0.8,0.9,2.8,3,3.3,2.8c0.4-0.2,0.8-0.5,1.1-0.8s0.3-0.7,0-1l0,0c-0.1-0.1-0.1-0.1-0.2-0.2
	c-1.3-0.7-3.3-1.9-3.4-1.8C134.8,35.8,134.5,36.2,134.1,36.3z"/>
<path class="st16" d="M135.4,33.6c0.1,0.4,0.1,0.9-0.1,1.2c1.2,0.2,4.1,0.3,4.4-0.1c0.2-0.4,0.3-0.9,0.3-1.3
	c0.1-0.4-0.2-0.7-0.6-0.8h-0.2c-1.4,0.2-3.6,0.7-3.6,0.7L135.4,33.6z"/>
<path class="st17" d="M135.2,34.8c1.2,0.2,4,0.7,4.3,0.3c0.2-0.4,0.4-0.9,0.4-1.3c0.1-0.4-0.2-0.7-0.6-0.8h-0.2
	c-1.4,0.3-3.7,0.5-3.8,0.6C135.5,34,135.5,34.5,135.2,34.8z"/>
<path class="st16" d="M134.2,31.8c0.4,0.2,0.6,0.6,0.7,1c1-0.6,2.8-1.6,2.8-2.1s0-0.4-0.3-0.8c-0.2-0.3-0.7-0.4-1-0.2l-0.1,0.1
	c-0.6,0.6-1.3,1.2-2,1.6L134.2,31.8z"/>
<path class="st17" d="M135,32.9c1-0.6,2.9-1.3,2.9-1.8c0-0.3-0.1-0.6-0.2-0.8c-0.2-0.3-0.7-0.4-1-0.2l0,0c-0.1,0-0.1,0.1-0.1,0.1
	c-0.7,0.6-1.5,1.1-2.3,1.7C134.6,32.1,134.9,32.4,135,32.9z"/>
<path class="st16" d="M133,37l0.8-0.5l0.4,0.1c0.4,0.1,1.6,2.8,1.1,3s-1.3,0.4-1.5,0.2s-0.3-0.2-0.3-0.2
	C133.2,38.8,133.1,37.9,133,37z"/>
<path class="st17" d="M132.6,36.9c0.2,0,0.4,0,0.6-0.1c0.2-0.1,0.4-0.2,0.5-0.3c0.3-0.2,1.6,2.8,1,3c-0.5,0.2-1,0.3-1.5,0.2
	C133,38.8,132.7,37.8,132.6,36.9z"/>
<ellipse transform="matrix(0.8665 -0.4991 0.4991 0.8665 0.6187 70.4831)" class="st18" cx="132.1" cy="34.1" rx="1" ry="1.1"/>
<path class="st19" d="M124.6,30.9c0,0-9.7,0.4-13.5,1.7c0,0-9.6,4.5-17.4,9.3c4.2-0.1,8.4-0.5,12.6-1.2
	C107.5,40.3,121.7,33,124.6,30.9z"/>
<path class="st20" d="M108.3,38.5c0,0-4.1-0.2-4.5-0.1s5.9-3.5,5.9-3.5s4,0.1,4.3,0.2S108.3,38.5,108.3,38.5z"/>
<path class="st21" d="M93.5,41.9c0,0,6.4,13.7,9.2,16.6c1.4,0.3,10-0.2,12.2-1.4c-0.6-1.7-7.5-15.5-8.7-16.3
	C101.9,40.7,97.6,41.1,93.5,41.9z"/>
<path class="st13" d="M124.6,30.9c0,0,3.9,6.7,6.3,11.8c0.6,1.6,0.5,3.5-0.2,5.1c-0.4,1-16.3,10-17.6,9.9c0.6-1.6,0.5-3.5-0.4-5
	c-1.8-3.3-4.4-7.9-6.6-11.9C106.5,40.1,121.4,32,124.6,30.9z"/>
<path class="st22" d="M112.2,42.6l10.5-5.9c0.4-0.2,1-0.1,1.2,0.3l0,0l3.2,6.4c0.2,0.4,0.1,0.9-0.4,1.2l-10.5,5.9
	c-0.4,0.2-1,0.1-1.2-0.3l0,0l0,0l-3.2-6.4C111.7,43.4,111.8,42.9,112.2,42.6z"/>
<path class="st23" d="M112.2,43l10.5-6c0.3-0.2,0.7-0.1,1,0.2c0,0,0,0,0,0.1l0,0l3.2,6.5c0.2,0.3,0,0.7-0.3,0.9l-10.5,6
	c-0.3,0.2-0.8,0.1-1-0.2c0,0,0,0,0-0.1l0,0L112,44C111.8,43.7,111.8,43.3,112.2,43L112.2,43z"/>
<path class="st24" d="M120.7,42.4l-6.5,3.6c-0.2,0.1-0.5,0-0.6-0.2l0,0l-0.9-1.9c-0.1-0.2,0-0.5,0.2-0.6l6.5-3.6
	c0.2-0.1,0.5,0,0.6,0.2l0.9,1.9C121,42,120.9,42.3,120.7,42.4L120.7,42.4z"/>
<ellipse transform="matrix(0.8865 -0.4627 0.4627 0.8865 -7.3989 58.0381)" class="st25" cx="114.6" cy="44.1" rx="0.9" ry="1.1"/>
<ellipse transform="matrix(0.8865 -0.4627 0.4627 0.8865 -6.5324 58.9497)" class="st26" cx="116.9" cy="42.8" rx="0.9" ry="1.1"/>
<ellipse transform="matrix(0.8865 -0.4627 0.4627 0.8865 -5.712 59.8718)" class="st27" cx="119.2" cy="41.6" rx="0.9" ry="1.1"/>
<path class="st28" d="M120.2,44.7l-5.1,2.9c-0.2,0.1-0.5,0-0.6-0.2l0,0c-0.1-0.2,0-0.5,0.2-0.6l0,0l5.1-2.9c0.2-0.1,0.5,0,0.6,0.2
	l0,0C120.6,44.3,120.5,44.6,120.2,44.7z"/>
<path class="st29" d="M118.7,48.8l-2.3,1.3c-0.2,0.1-0.5,0-0.6-0.2l0,0c-0.1-0.2,0-0.5,0.2-0.6l0,0l0,0l2.3-1.3
	c0.2-0.1,0.5,0,0.6,0.2l0,0l0,0C119,48.4,118.9,48.7,118.7,48.8L118.7,48.8z"/>
<path class="st29" d="M118.1,47.7l-2.3,1.2c-0.2,0.1-0.5,0-0.6-0.2l0,0l0,0c-0.1-0.2,0-0.5,0.2-0.6l0,0l0,0l2.3-1.3
	c0.2-0.1,0.5,0,0.6,0.2l0,0C118.4,47.3,118.3,47.6,118.1,47.7L118.1,47.7z"/>
<polygon class="st30" points="120.5,39.2 123.6,37.4 126.8,43.9 123.7,45.7 "/>
<radialGradient id="SVGID_1_" cx="-8767.5059" cy="-2066.2395" r="0.44" gradientTransform="matrix(1.2475 -0.613 -0.613 -1.2475 9785.7891 -7908.3013)" gradientUnits="userSpaceOnUse">
	<stop  offset="0.2" style="stop-color:#666666"/>
	<stop  offset="0.57" style="stop-color:#585858"/>
	<stop  offset="1" style="stop-color:#4D4D4D"/>
</radialGradient>
<path class="st31" d="M123.2,38c0.2-0.1,0.4,0,0.5,0.2s0,0.5-0.2,0.6s-0.4,0-0.5-0.2C123,38.3,123,38.1,123.2,38z"/>
<path class="st32" d="M123.2,38c0.2,0.2,0.3,0.5,0.4,0.8"/>
<path class="st32" d="M123.1,38.6c0.3-0.1,0.5-0.2,0.7-0.3"/>
<radialGradient id="SVGID_2_" cx="-8769.2754" cy="-2070.5796" r="0.44" gradientTransform="matrix(1.2475 -0.613 -0.613 -1.2475 9785.7998 -7908.2988)" gradientUnits="userSpaceOnUse">
	<stop  offset="0.2" style="stop-color:#666666"/>
	<stop  offset="0.57" style="stop-color:#585858"/>
	<stop  offset="1" style="stop-color:#4D4D4D"/>
</radialGradient>
<path class="st33" d="M123.7,44.5c0.2-0.1,0.4,0,0.5,0.2s0,0.5-0.2,0.6s-0.4,0-0.5-0.2C123.4,44.8,123.5,44.6,123.7,44.5z"/>
<path class="st32" d="M123.7,44.5c0.2,0.2,0.4,0.5,0.4,0.8"/>
<path class="st32" d="M123.5,45c0.3-0.1,0.5-0.2,0.7-0.3"/>
<radialGradient id="SVGID_3_" cx="-8767.4561" cy="-2070.4597" r="0.44" gradientTransform="matrix(1.2475 -0.613 -0.613 -1.2475 9785.7881 -7908.3003)" gradientUnits="userSpaceOnUse">
	<stop  offset="0.2" style="stop-color:#666666"/>
	<stop  offset="0.57" style="stop-color:#585858"/>
	<stop  offset="1" style="stop-color:#4D4D4D"/>
</radialGradient>
<path class="st34" d="M125.9,43.2c0.2-0.1,0.4,0,0.5,0.2s0,0.5-0.2,0.6s-0.4,0-0.5-0.2C125.6,43.6,125.7,43.3,125.9,43.2z"/>
<path class="st32" d="M125.9,43.2c0.2,0.2,0.4,0.5,0.4,0.8"/>
<path class="st32" d="M125.7,43.8c0.3-0.1,0.5-0.2,0.7-0.3"/>
<radialGradient id="SVGID_4_" cx="-8769.0957" cy="-2066.3196" r="0.44" gradientTransform="matrix(1.2475 -0.613 -0.613 -1.2475 9785.8047 -7908.3037)" gradientUnits="userSpaceOnUse">
	<stop  offset="0.2" style="stop-color:#666666"/>
	<stop  offset="0.57" style="stop-color:#585858"/>
	<stop  offset="1" style="stop-color:#4D4D4D"/>
</radialGradient>
<path class="st35" d="M121.3,39.1c0.2-0.1,0.4,0,0.5,0.2s0,0.5-0.2,0.6s-0.4,0-0.5-0.2C121,39.4,121.1,39.2,121.3,39.1z"/>
<path class="st32" d="M121.3,39.1c0.2,0.2,0.3,0.5,0.4,0.8"/>
<path class="st32" d="M121.2,39.6c0.3-0.1,0.5-0.2,0.7-0.3"/>
<path class="st36" d="M114.5,47.4c0.5-0.4,1.1-0.7,1.8-0.9c1-0.1,0.7-0.9,1-1.1s0.8,0.3,1.3,0s0.2-0.4,0.5-0.6s0.4,0.1,0.6,0
	s0-0.9,0.1-1"/>
<path class="st37" d="M111.8,32.3c2.1-0.8,12.8-1.4,12.8-1.4s6.3,11,6.3,11.8c0.3,0.9,0.8,1.9,0,4.7c-0.4,0.6-0.3,1.3-12.5,7.8"/>
<path class="st37" d="M104.6,35.7c0,0-10.8,5.8-11.1,6.2c0,0,4.6,9.5,5,10"/>
<path class="st9" d="M120.8,57.9c-0.2-0.3-0.4-0.6-0.7-0.8c-2.1-2.1-4.3-4-6.5-5.9c-1.3-1-2.2-1.7-2.9-2.2c-0.8-0.6-1.7-1-2.7-1.2
	c-0.8-0.2-1.6-0.2-2.3-0.1c-1.2,0.2-2.4,0.7-3.4,1.5c-2.5,1.9-4,2.7-4.4,3.2c-0.3,0.6-1.3,4.2-0.3,6.3c0.7,1.8,2,3.4,3.7,4.4
	c1.9,1,10,6.2,11.9,5.4c2.2-1,7.4-4.2,8.4-6.2C122.3,60.6,121.8,59.2,120.8,57.9z"/>
<path class="st10" d="M109.2,69c-3.1,0-11-1.5-12.6-2.3c-1.6-1-2.9-2.5-3.6-4.3c-0.6-1.2-0.3-2.9,0.8-4.9l0.1-0.2
	c0.7-1.4,1.6-2.7,2.8-3.7c0.9-0.8,2-1.3,3.2-1.4c0.2,0,0.5,0,0.7,0c0.5,0,1,0.1,1.5,0.2c0.9,0.2,1.8,0.5,2.6,1.1
	c0.3,0.2,0.7,0.5,1.1,0.8s1.1,0.8,1.8,1.4c2.3,1.8,4.4,3.8,6.5,5.8c0.2,0.2,0.5,0.5,0.7,0.8c1,1.3,1.4,2.5,0.7,4.2s-3.1,2.2-5,2.6
	L110,69C109.7,69,109.4,69,109.2,69L109.2,69z"/>
<path d="M115.9,63.5c-0.2-0.5-0.5-1-0.8-1.5c-0.2-0.3-0.4-0.6-0.7-0.8c-1.1-1.1-2.2-2.1-3.3-3.1c-1-0.8-1.9-1.7-2.9-2.5l0,0
	c-0.1-0.1-0.2-0.2-0.3-0.2c-0.1-0.1-0.2-0.2-0.3-0.2c-0.2-0.2-0.4-0.3-0.6-0.5c-0.8-0.6-1.5-1.1-2-1.5c-0.8-0.6-1.7-1-2.7-1.2
	c-0.5-0.1-1.1-0.1-1.6-0.1l-0.1-0.1c-0.7,0-1.3,0.2-1.9,0.4c-0.2,0.1-0.5,0.2-0.7,0.3l0,0c-0.5,0.2-0.9,0.5-1.3,0.9
	c-1.3,1.1-2.3,2.5-3,4c-0.3,0.6-1.8,3.2-0.8,5.3c0.5,1.3,1.3,2.4,2.3,3.3c0.5,0.4,0.9,0.8,1.5,1.1c1,0.5,4.2,1.3,7.3,1.8
	c0,0,0.1,0,0.2,0c0.2,0,0.4,0.1,0.6,0.1s0.5,0.1,0.8,0.1c1.6,0.2,3,0.4,3.9,0.4c0.3,0,0.6,0,0.9-0.1c0.9-0.2,1.9-0.4,2.8-0.7
	c0.1,0,0.3-0.1,0.4-0.1l0,0c0.4-0.2,0.8-0.4,1.2-0.6c0.4-0.3,0.7-0.6,1-1c0.1-0.1,0.2-0.3,0.2-0.4C116.2,65.3,116.2,64.4,115.9,63.5
	z M115,66.1c-0.6,1.3-2.3,1.8-3.9,2.2c-0.3,0.1-0.5,0.1-0.8,0.2l-0.4,0.1c-0.2,0-0.5,0-0.7,0c-0.9,0-2.3-0.1-3.8-0.3
	c-0.2,0-0.5-0.1-0.8-0.1c-0.2,0-0.5-0.1-0.8-0.1c0,0-0.1,0-0.2,0c-3-0.5-6-1.2-7-1.7c-0.3-0.2-0.7-0.5-1-0.7
	c-1.1-0.9-1.9-2.1-2.4-3.4c-0.5-1.1-0.2-2.7,0.8-4.6v-0.1l0.1-0.2c0.6-1.4,1.6-2.6,2.7-3.6c0.2-0.2,0.5-0.4,0.7-0.5
	c0.4-0.3,0.9-0.5,1.3-0.6c0.3-0.1,0.7-0.2,1-0.2h0.7l0.1,0.1c0.5,0,1,0.1,1.5,0.2c0.9,0.1,1.7,0.5,2.4,1c0.3,0.2,0.7,0.5,1,0.8
	c0.2,0.2,0.6,0.5,1.1,0.9c0.2,0.1,0.4,0.3,0.6,0.5c0.1,0,0.1,0.1,0.1,0.1c0.2,0.1,0.3,0.3,0.5,0.4l0,0c0.8,0.6,1.5,1.3,2.3,2
	c1.3,1.1,2.5,2.2,3.7,3.4c0.2,0.2,0.4,0.5,0.6,0.7C115.3,63.5,115.8,64.7,115,66.1z"/>
<ellipse transform="matrix(0.8825 -0.4704 0.4704 0.8825 -17.1673 53.4661)" class="st11" cx="98.4" cy="61.1" rx="3.7" ry="4.6"/>
<ellipse transform="matrix(0.8825 -0.4704 0.4704 0.8825 -18.0126 57.2848)" class="st11" cx="105.6" cy="64.7" rx="2.6" ry="3.3"/>
<ellipse transform="matrix(0.8825 -0.4704 0.4704 0.8825 -17.2528 59.9907)" class="st11" cx="111.4" cy="64.5" rx="2.1" ry="2.6"/>
<path class="st12" d="M113.6,51.2l-2.2-0.8l1.8,3.5c0,0-5.2-3.4-5-3.2s2.4,2.5,2.4,2.5l-2.7-0.9l2.3,2.5l-2.8-0.8l1.2,1.3l-1.1-0.4
	l5.9,3.5l-2.1-2.2l3.3,1.5l-2.2-2.7l2.9,1.4l-1.7-3.3l1.7,1.1l-2.5-2.6l2.5,1.7L113.6,51.2z"/>
<polygon class="st12" points="102.7,48.9 105.4,48.8 103,49.4 105.3,49.7 101.4,50.2 102.4,50.5 99.8,50.9 "/>
<ellipse transform="matrix(0.8825 -0.4704 0.4704 0.8825 -17.2389 53.3817)" class="st13" cx="98.2" cy="61.2" rx="1.2" ry="1.7"/>
<ellipse transform="matrix(0.9699 -0.2436 0.2436 0.9699 -12.6107 27.6502)" class="st13" cx="105.5" cy="64.8" rx="1.1" ry="1.5"/>
<ellipse transform="matrix(0.9699 -0.2436 0.2436 0.9699 -12.3801 29.1055)" class="st13" cx="111.5" cy="64.6" rx="0.8" ry="1.1"/>
<path class="st38" d="M111.1,60.7c0,0-1.1-0.8-2.4,0.6c-0.6-0.5-2.2-2-4.9-0.4c-0.3-2.4-1.8-4.5-4-5.6c0.6-0.8,1-1.3,2.8-0.5
	S111,60.3,111.1,60.7z"/>
<path class="st39" d="M104.3,31.8l2.6,5.1l4.5-2.2c0.8-0.4,0.8-1.8,0.1-3.2s-1.9-2.2-2.7-1.9c-0.2,0.2-0.4,0.4-0.5,0.7L104.3,31.8z"
	/>
<polygon class="st40" points="106.7,25.7 106.3,27.8 105.1,28.4 105,26.6 "/>
<path class="st41" d="M115.3,14.4c0.6,1.4,2.2,2.5,2.5,4.1c0.1,0.6-0.1,1.1-0.6,1.5c-1.8,1.3-3.5,2-8.7,3.4v3.3l-5.5-2.2l-0.3-0.1
	l0,0c-0.3-0.1-0.5-0.4-0.6-0.7c-0.8-1.6-1.3-3.2-1.7-4.9c-0.1-0.5,0.1-1.1,0.5-1.5c3.3-2.9,6.8-5.4,10.6-7.5
	c0.5-0.2,1.1-0.3,1.7-0.1l0,0l3.7,1L115.3,14.4z"/>
<polygon class="st42" points="108,25 103.3,27.4 107.3,34.3 111.6,31.9 "/>
<polygon class="st43" points="101,31.2 104,33.7 107.3,34.3 103.3,27.4 "/>
<path class="st41" d="M103.8,26c-0.2,0-0.4,0-0.5-0.1L103.8,26z"/>
<polygon class="st42" points="111.9,33.4 112.8,35.7 108.1,38.2 107.4,35.8 "/>
<polygon class="st43" points="104.7,35.8 104.3,38.1 108.1,38.2 107.4,35.8 "/>
<ellipse transform="matrix(0.891 -0.454 0.454 0.891 -4.0611 51.6704)" class="st44" cx="105.6" cy="34.3" rx="1.5" ry="2.8"/>
<ellipse transform="matrix(0.8825 -0.4704 0.4704 0.8825 -3.8432 53.6787)" class="st45" cx="105.5" cy="34.5" rx="0.7" ry="1.4"/>
<path class="st13" d="M103.9,19.5c0,0-1.4,0.9-2.1,1.3c1.5,1.8,2.8,3.1,3.3,6.6c1.9-1.3,2-1.2,2-1.2C105.6,24.3,104.5,22,103.9,19.5
	z"/>
<polygon class="st46" points="104,19.5 100.9,18.8 99.4,19.7 102.3,20.6 "/>
<line class="st47" x1="89.2" y1="37.5" x2="89.9" y2="37.7"/>
<path class="st41" d="M102.2,20.4l-1.6,2.8c0.4,0.9,0.7,1.9,1,2.9c0.1,0.5,0,1.1-0.3,1.5c-3.7,4.5-5,6.4-7.5,8.1l0.2,3.1l-4-1l0,0
	l-0.8-0.2c-0.3-0.1-0.5-0.4-0.7-0.6c-1.7-2.8-2.9-5.8-3.7-9c-0.1-0.6,0.1-1.3,0.7-1.7c3.6-2.6,7.5-4.9,11.6-6.8
	c0.4-0.2,0.8-0.2,1.2,0l0,0L102.2,20.4z"/>
<path class="st48" d="M94.2,38.2c-0.4,0-0.8-0.2-1-0.6c-1.7-2.4-2.9-5.1-3.4-8c0-0.2-0.1-0.5-0.2-0.7c-0.1-0.4,0.1-0.9,0.4-1.1
	c3.6-2.6,7.4-4.9,11.5-6.8c0.1-0.1,0.3-0.1,0.4-0.1c0.4,0,0.8,0.2,1,0.6c0.5,1,0.8,1.7,1.1,2.3c0.5,1.1,0.9,2.2,1.2,3.4
	c0.1,0.3,0,0.7-0.2,1c-1.2,1.5-2.4,2.8-3.4,3.9c-3.6,3.9-5.5,5.2-7,5.9C94.5,38.2,94.4,38.2,94.2,38.2L94.2,38.2z"/>
<path class="st49" d="M105.8,27.1C105.8,27,105.8,27,105.8,27.1c-0.1-0.3-0.2-0.5-0.2-0.8l0,0c-0.1-0.3-0.2-0.6-0.3-1
	c-0.2-0.6-0.5-1.1-0.7-1.7l0,0l0,0l0,0c-0.1-0.1-0.1-0.3-0.2-0.4l0,0c-0.2-0.6-0.5-1.2-0.9-1.9c-0.2-0.4-0.5-0.7-0.9-0.8
	c-0.1,0-0.2,0-0.3-0.1c-0.1,0-0.2,0-0.3,0h0.1c-0.1,0-0.2,0-0.3,0c-0.1,0-0.2,0-0.4,0.1c-0.1,0.1-0.2,0.1-0.4,0.2
	c-3.9,1.9-7.7,4.1-11.2,6.6c-0.5,0.4-0.8,1-0.7,1.7c0.5,3.2,1.8,6.3,3.7,8.9c0.3,0.4,0.7,0.7,1.2,0.8c0.1,0,0.2,0,0.2,0
	c0.2,0,0.5-0.1,0.7-0.2c1.7-0.8,3.6-2.1,6.8-5.6l0,0l0,0c0.1-0.1,0.2-0.2,0.3-0.3l0,0l0,0l0,0c0,0,0-0.1,0.1-0.1
	c0.1-0.1,0.1-0.1,0.2-0.2c0.7-0.8,1.5-1.7,2.3-2.7c0.3-0.3,0.6-0.7,0.9-1c0.1-0.1,0.2-0.3,0.3-0.5C105.9,27.8,105.9,27.4,105.8,27.1
	z M101.6,31.4L101.6,31.4C101.5,31.5,101.5,31.5,101.6,31.4L101.6,31.4c-0.1,0.1-0.1,0.1-0.2,0.2c0,0.1-0.1,0.1-0.2,0.2l-0.1,0.1
	l0,0c-3.4,3.7-5.2,4.9-6.7,5.6c-0.1,0-0.1,0-0.2,0s-0.2,0-0.3-0.1c-0.1-0.1-0.2-0.1-0.2-0.2c-1.7-2.3-2.8-5-3.3-7.8
	c-0.1-0.3-0.1-0.5-0.2-0.7c0-0.2,0-0.4,0.2-0.5c3.5-2.5,7.1-4.6,10.9-6.5c0.1,0,0.1-0.1,0.2-0.1s0.2-0.1,0.2-0.1c0.1,0,0.1,0,0.2,0
	l0,0c0.2,0,0.4,0.1,0.5,0.3c0.4,0.8,0.7,1.4,0.9,2l0,0l0,0c0,0.1,0.1,0.2,0.1,0.3c0,0.1,0.1,0.2,0.1,0.2l0,0l0,0
	c0.1,0.1,0.1,0.3,0.2,0.4c0.3,0.7,0.5,1.4,0.7,2.1c0.1,0.2,0.1,0.4,0.2,0.6c0,0.2,0,0.4-0.1,0.5c-0.2,0.2-0.4,0.5-0.6,0.7
	C103.2,29.6,102.3,30.6,101.6,31.4z M105,26.5c-0.2-0.5-0.3-1-0.5-1.4l-0.7-0.3c0.3,0.7,0.5,1.4,0.7,2.1l0.5-0.2V26.5L105,26.5
	L105,26.5z"/>
<path class="st50" d="M99.3,31.3c-2.1-0.1-3.8-1.9-3.7-4c0-0.2,0-0.4,0.1-0.6c0.3-1.5,1.6-2.6,3.2-2.6c1.3,0,2.5,0.8,3.1,1.9
	c1.1,1.6,0.6,3.8-1,4.9l0,0C100.5,31.2,99.9,31.3,99.3,31.3z"/>
<path class="st51" d="M102.4,25.8L102.4,25.8C102.4,25.7,102.4,25.7,102.4,25.8C102.4,25.7,102.4,25.7,102.4,25.8
	C102.4,25.7,102.4,25.7,102.4,25.8C102.4,25.7,102.4,25.7,102.4,25.8c-0.2-0.3-0.3-0.4-0.4-0.6l0,0l0,0c-0.3-0.4-0.7-0.7-1.1-0.9
	c-0.6-0.4-1.4-0.6-2.1-0.6l0,0c-0.7,0-1.4,0.2-1.9,0.5c-1.8,1.2-2.4,3.7-1.1,5.5l0,0c0.5,0.8,1.3,1.5,2.2,1.8
	c0.4,0.2,0.9,0.2,1.3,0.2c0.6,0,1.1-0.1,1.6-0.4l0,0c0,0,0.1,0,0.1-0.1c0.1,0,0.1-0.1,0.2-0.1c0,0,0.1-0.1,0.2-0.1l0,0l0,0
	c0,0,0,0,0.1,0l0,0c1-0.8,1.6-2,1.6-3.2l0,0C103,27.2,102.8,26.4,102.4,25.8z M100.7,30.4C100.7,30.5,100.7,30.5,100.7,30.4
	c-0.4,0.3-0.9,0.4-1.4,0.4c-0.2,0-0.5,0-0.7-0.1c-0.9-0.2-1.6-0.7-2.1-1.5c-0.9-1.4-0.6-3.3,0.8-4.2c0.4-0.3,0.9-0.4,1.4-0.4l0,0
	c1.1,0,2.1,0.6,2.6,1.5l0,0l0.1,0.1l0,0c0.1,0.2,0.2,0.3,0.2,0.5l0,0c0,0,0,0,0,0.1l0,0c0.2,0.6,0.2,1.2,0.1,1.8
	c-0.1,0.5-0.3,1-0.7,1.4c0,0,0,0-0.1,0.1l0,0l0,0C101.1,30.2,100.9,30.3,100.7,30.4z"/>
<polygon class="st41" points="108.4,26.3 107.2,26.2 106.6,25.5 107.6,25 "/>
<path class="st48" d="M108.8,25.8c-0.4,0-0.7-0.2-0.8-0.6l-0.2-0.3c-1.1-1.6-1.9-3.3-2.5-5.2c-0.1-0.3,0-0.7,0.3-0.9l1.2-1
	c2.9-2.6,6-4.8,9.4-6.5c0.1,0,0.2-0.1,0.3-0.1c0.4,0,0.7,0.2,0.9,0.5c2.2,2.3,3.9,5.1,4.9,8.1c0.1,0.3-0.1,0.7-0.4,0.8l-0.4,0.3
	c-2.2,1.6-5,3.6-12.6,4.9H108.8z"/>
<path class="st49" d="M122.8,19.6c-1-3-2.5-5.7-4.7-8c-0.1-0.1-0.2-0.2-0.3-0.3c-0.2-0.3-0.6-0.5-0.9-0.6h-0.1c-0.1,0-0.2,0-0.3,0
	c-0.2,0-0.4,0-0.5,0.1c-0.5,0.3-1,0.5-1.4,0.8c-3.3,1.9-6.5,4.2-9.3,6.8c-0.4,0.4-0.6,0.9-0.5,1.5c0.3,1,0.7,1.9,1.1,2.8l0,0l0,0
	c0,0.1,0.1,0.2,0.1,0.2l0,0l0,0l0,0c0.4,0.7,0.8,1.4,1.2,2.1c0,0.1,0.1,0.1,0.1,0.2c0,0,0.1,0.1,0.1,0.2c0.2,0.4,0.6,0.7,1,0.8
	c0.1,0,0.1,0,0.2,0h0.1h0.1c0.1,0,0.1,0,0.2,0c0.5-0.1,0.9-0.2,1.4-0.2l0,0l0,0c0.2,0,0.3-0.1,0.5-0.1l0,0h0.1l0,0
	c6.6-1.4,9.1-3.4,11.2-4.9C122.7,20.8,123,20.2,122.8,19.6z M121.6,20.2l-0.4,0.3c-2,1.4-4.5,3.2-10.6,4.4l0,0h-0.1l0,0
	c-0.1,0-0.3,0-0.4,0.1l0,0l0,0c-0.4,0.1-0.8,0.1-1.2,0.2c-0.1,0-0.2-0.1-0.2-0.1s-0.1-0.1-0.1-0.2l-0.2-0.3c-0.4-0.6-0.7-1.1-1-1.7
	l0,0l0,0c0,0,0,0,0-0.1l0,0l0,0l0,0c-0.5-1-0.9-2-1.3-3.1c0-0.1,0-0.2,0.1-0.3c0.4-0.3,0.8-0.6,1.2-1c2.8-2.5,5.9-4.7,9.2-6.5
	c0,0,0,0,0.1,0l0,0c0.2,0,0.4,0.2,0.5,0.3c2.2,2.2,3.8,5,4.7,7.9C121.7,20.1,121.7,20.1,121.6,20.2z"/>
<path class="st50" d="M112.4,23.8c-1.4,0-2.7-0.9-3.4-2.2c-1-1.8-0.3-4,1.4-4.9c0.5-0.2,0.9-0.3,1.4-0.3c1.4,0,2.7,0.9,3.4,2.2
	c0.9,1.8,0.3,4-1.5,4.9C113.4,23.7,112.9,23.8,112.4,23.8z"/>
<path class="st51" d="M115.8,18.3c-0.7-1.5-2.2-2.4-3.8-2.4l0,0c-0.6,0-1.1,0.1-1.7,0.4c-2,1.1-2.8,3.6-1.7,5.6l0,0
	c0.2,0.5,0.6,1,1,1.3c0.8,0.7,1.8,1.1,2.8,1.1c0.6,0,1.1-0.1,1.7-0.4c1.2-0.7,2-1.8,2.1-3.1C116.3,19.9,116.2,19,115.8,18.3z
	 M109.3,18.9c0.2-0.8,0.8-1.4,1.5-1.8c0.4-0.2,0.8-0.3,1.2-0.3l0,0c1.3,0,2.4,0.8,2.9,1.9c0.4,0.8,0.5,1.7,0.2,2.5c0,0,0,0,0,0.1
	c-0.3,1.2-1.5,2-2.7,2c-0.6,0-1.2-0.2-1.7-0.5s-1-0.8-1.3-1.4C109.1,20.6,109,19.7,109.3,18.9z"/>
<path class="st52" d="M114.6,20.7c0.4,0.6,0.2,1.5-0.4,1.9l0,0c-0.7,0.3-1.5,0-1.8-0.7c-0.4-0.8-0.3-1.5,0.4-1.9
	C113.5,19.7,114.3,20,114.6,20.7L114.6,20.7z"/>
<path class="st52" d="M98.2,28.6l2.4-1.3c0.3-0.2,0.8-0.1,0.9,0.3l0,0c0.2,0.3,0.1,0.8-0.3,0.9l-2.4,1.3c-0.3,0.2-0.8,0.1-0.9-0.3
	l0,0C97.7,29.2,97.8,28.8,98.2,28.6z"/>
<path class="st53" d="M107.5,33.5l0.2-0.1c0.5-0.2,1,0,1.2,0.2s-0.1,0.6-0.6,0.7c-0.1,0-0.1,0.1-0.2,0.1c-0.5,0.2-1,0-1.2-0.2
	S107.1,33.7,107.5,33.5z"/>
<path class="st50" d="M109.2,41L109.2,41z"/>
<path class="st54" d="M108.9,33.8l0.2,0.8l0.4,1.8l0.4,2l0.3,1.5c0,0.1,0,0.2,0.1,0.3c0.1,0.3-0.2,0.5-0.4,0.6
	c-0.2,0.1-0.5,0.2-0.8,0.2c-0.3,0.1-0.7-0.1-0.7-0.4v-0.1l-0.3-1.3l-0.4-2l-0.4-1.9l-0.2-1.1l0,0c0.1,0.2,0.3,0.3,0.5,0.4
	c0.2,0,0.5,0,0.7-0.1s0.4-0.2,0.6-0.3C108.9,34.1,108.9,33.9,108.9,33.8z"/>
<path class="st55" d="M110.6,25.2c1.3,2.9,0.6,6.4-1.9,8.5c-0.3,0.3-0.6,0.5-1,0.7c-1.2,0.7-2.6,0.8-3.8,0.2l0.4,0.1
	c1.4,0.2,2.8-0.3,3.9-1.2c2.4-2.1,3.1-5.5,1.8-8.4c-0.4-0.9-1.1-1.6-2-2C109.1,23.3,110.1,24.1,110.6,25.2z"/>
<path class="st55" d="M110.7,25.1c1.3,2.9,0.6,6.4-1.9,8.5c-0.3,0.3-0.7,0.5-1.1,0.7c-1.1,0.6-2.3,0.7-3.4,0.3
	c1.4,0.2,2.8-0.3,3.9-1.2c2.4-2.1,3.1-5.5,1.9-8.4c-0.4-0.9-1.1-1.6-2-2c-1.1-0.3-2.2-0.1-3.2,0.4c0.9-0.5,1.9-0.7,2.8-0.5
	C109,23.1,110.1,24,110.7,25.1z"/>
<path class="st55" d="M108,23c-1.1-0.3-2.2-0.1-3.2,0.4c-0.4,0.2-0.8,0.4-1.1,0.7c-2.4,2.1-3.2,5.5-1.9,8.5c0.4,0.9,1.1,1.6,2,2
	c-1.1-0.3-2.1-1.1-2.6-2.2c-1.3-2.9-0.6-6.4,1.9-8.5c1.2-1.1,2.9-1.5,4.5-1L108,23z"/>
<path class="st56" d="M108,23L108,23L108,23L108,23z M107.6,22.9L107.6,22.9c-0.2-0.1-0.3-0.1-0.5-0.1s-0.5-0.1-0.7-0.1
	s-0.4,0-0.6,0c-0.1,0-0.2,0-0.4,0c-0.1,0-0.3,0.1-0.4,0.1l0,0c-0.3,0.1-0.5,0.2-0.7,0.3c-0.2,0.1-0.3,0.2-0.5,0.3l0,0
	c-0.1,0.1-0.2,0.2-0.3,0.2l-0.1,0.1c-0.1,0-0.1,0.1-0.2,0.2s-0.2,0.2-0.3,0.3l-0.1,0.1l0,0c-0.3,0.3-0.5,0.6-0.7,0.8
	c-0.1,0.1-0.1,0.2-0.2,0.2c0,0.1-0.1,0.2-0.1,0.2c-0.1,0.1-0.1,0.2-0.2,0.3c0,0,0,0,0,0.1c-0.2,0.4-0.4,0.8-0.5,1.2
	c0,0.1,0,0.2-0.1,0.2c0,0.1-0.1,0.3-0.1,0.4l0,0c0,0.1,0,0.1,0,0.2l0,0l0,0V28l0,0c0,0.1,0,0.2,0,0.3c0,0.1,0,0.1,0,0.2
	c0,0.2,0,0.4,0,0.6s0,0.5,0,0.7l0,0c0,0.1,0,0.2,0,0.2c0,0.2,0,0.3,0.1,0.5l0,0c0,0.1,0.1,0.3,0.1,0.4s0,0.2,0.1,0.3l0,0l0,0
	c0,0.1,0.1,0.2,0.1,0.2c0,0.2,0.1,0.3,0.2,0.5l0,0c0,0,0,0.1,0.1,0.1c0,0.1,0.1,0.2,0.2,0.3c0,0.1,0.1,0.1,0.1,0.2
	c0.1,0.2,0.2,0.3,0.4,0.5c0.3,0.3,0.7,0.6,1,0.8c0.2,0.1,0.4,0.2,0.6,0.3c0.1,0,0.1,0,0.2,0.1l0,0c-0.8-0.4-1.5-1.1-1.9-1.9
	c0,0,0,0,0-0.1c-0.1-0.2-0.1-0.3-0.2-0.5c0-0.1-0.1-0.1-0.1-0.2s0-0.1,0-0.2s0-0.2-0.1-0.2c0-0.1-0.1-0.2-0.1-0.4l0,0
	c0-0.1-0.1-0.3-0.1-0.5l0,0c0-0.1,0-0.2,0-0.2l0,0c0-0.1,0-0.2,0-0.3c0-0.1,0-0.2,0-0.4c0-0.4,0-0.8,0.1-1.2l0,0
	c0-0.1,0-0.2,0.1-0.3c0-0.1,0.1-0.3,0.1-0.4l0,0c0-0.1,0.1-0.2,0.1-0.3c0.1-0.2,0.2-0.4,0.2-0.6c0,0,0-0.1,0.1-0.1
	c0.1-0.1,0.1-0.3,0.2-0.4l0,0c0.1-0.1,0.1-0.3,0.2-0.4c0,0,0-0.1,0.1-0.1c0,0,0,0,0.1-0.1c0.2-0.4,0.5-0.7,0.9-1.1l0.1-0.1l0.1-0.1
	c0.1-0.1,0.1-0.1,0.2-0.2l0,0c0.1-0.1,0.2-0.2,0.3-0.2c0,0,0,0,0.1-0.1c0.1,0,0.1-0.1,0.2-0.1s0.1-0.1,0.2-0.1
	c0.1-0.1,0.2-0.1,0.3-0.2c0.1-0.1,0.2-0.1,0.4-0.2l0,0l0,0h0.1l0,0l0,0h0.1c0.1,0,0.1,0,0.2-0.1c0.1,0,0.2-0.1,0.3-0.1h0.1l0,0
	c0.2,0,0.3,0,0.5-0.1c0.2,0,0.4,0,0.7,0c0.2,0,0.5,0,0.8,0.1l0,0C107.8,22.9,107.7,22.9,107.6,22.9z M111.1,27.1
	c-0.1-0.3-0.1-0.7-0.2-1c0-0.2-0.1-0.4-0.2-0.5c0-0.1-0.1-0.2-0.1-0.3c0-0.1-0.1-0.2-0.1-0.2c-0.2-0.3-0.4-0.6-0.6-0.8
	c-0.1-0.1-0.2-0.2-0.3-0.3l0,0c-0.2-0.2-0.5-0.4-0.7-0.5l0,0c-0.1-0.1-0.2-0.1-0.4-0.2c-0.1,0-0.3-0.1-0.4-0.1
	c0.1,0,0.2,0.1,0.3,0.2l0,0c0.1,0.1,0.2,0.1,0.3,0.2l0,0l0,0c0.1,0.1,0.2,0.1,0.2,0.2l0,0l0,0c0.1,0.1,0.2,0.2,0.2,0.2l0,0
	c0.1,0.1,0.2,0.2,0.3,0.3c0.1,0.1,0.2,0.3,0.3,0.5c0,0.1,0.1,0.2,0.1,0.2c0,0.1,0.1,0.1,0.1,0.2l0,0c0.1,0.2,0.1,0.3,0.2,0.5
	c0,0,0,0,0,0.1v0.1l0,0c0,0,0,0,0,0.1s0.1,0.2,0.1,0.3c0,0.1,0.1,0.2,0.1,0.4c0,0.2,0.1,0.4,0.1,0.5c0,0,0,0,0,0.1l0,0
	c0,0.3,0,0.6,0,1c0,0.2,0,0.3,0,0.5c0,0.3-0.1,0.5-0.1,0.8v0.1l0,0l0,0l0,0c0,0.1,0,0.1,0,0.2l0,0c0,0.1,0,0.1,0,0.2s0,0.1,0,0.2
	s0,0.1-0.1,0.2l0,0c0,0.1-0.1,0.2-0.1,0.4l0,0c0,0.1-0.1,0.2-0.2,0.3l0,0c0,0.1-0.1,0.2-0.2,0.3l0,0c-0.1,0.1-0.1,0.2-0.2,0.3l0,0
	c-0.1,0.1-0.1,0.2-0.2,0.3l0,0c-0.1,0.1-0.1,0.2-0.2,0.3l0,0c-0.1,0.1-0.2,0.2-0.2,0.3l0,0c-0.2,0.2-0.3,0.4-0.5,0.6
	c-0.1,0.1-0.1,0.1-0.2,0.2c0,0,0,0-0.1,0c-0.3,0.3-0.6,0.5-0.9,0.7l0,0l0,0c0,0-0.1,0-0.1,0.1l0,0l0,0l0,0l0,0l0,0
	c-0.2,0.1-0.5,0.2-0.7,0.3c-0.2,0-0.4,0.1-0.5,0.1c-0.3,0.1-0.5,0.1-0.8,0.1c-0.2,0-0.3,0-0.5,0l0,0c-0.1,0-0.1,0-0.2,0h-0.1l0,0
	l0,0c0,0-0.1,0-0.2,0l0,0c0.1,0,0.1,0,0.2,0c0.3,0.1,0.6,0.2,0.9,0.2s0.6,0,0.9,0c0.2,0,0.3,0,0.5,0c0,0,0,0,0.1,0
	c0.2,0,0.5-0.1,0.7-0.2c0.1,0,0.1,0,0.2-0.1c0.1,0,0.1,0,0.1-0.1l0,0c0.5-0.2,0.9-0.5,1.2-0.8l0,0c0,0,0,0,0.1,0l0,0l0,0
	c0.1-0.1,0.2-0.2,0.3-0.3l0.1-0.1l0.1-0.1c0.1-0.1,0.2-0.2,0.3-0.3c0.2-0.2,0.4-0.5,0.5-0.8c0,0,0,0,0-0.1c0.1-0.2,0.2-0.4,0.3-0.6
	c0.1-0.1,0.1-0.2,0.2-0.3c0.1-0.2,0.2-0.3,0.2-0.5v-0.1c0.1-0.4,0.2-0.8,0.3-1.2C111.2,28.6,111.2,27.8,111.1,27.1z"/>
<path class="st57" d="M108.5,42.3l-6.7,5.1l-0.1,0.1l0,0c-0.7,0.5-1.6,0.7-2.5,0.5l0.3-1.1c0,0,0.6,0,1.2-0.1
	c-0.1-0.2-0.2-0.3-0.3-0.5c-0.5-0.9-0.8-2-0.3-2.4l4.7-5.3l-0.5-1.1l2.1-0.5l0,0c0.8-0.2,1.6,0.2,2,0.9c0.1,0.2,0.2,0.3,0.3,0.5
	C109.3,39.8,109.3,41.5,108.5,42.3z"/>
<path class="st58" d="M106.2,38.5c0.1,0.2,0.2,0.4,0.3,0.5c0.7,1.4,0.7,3.1-0.1,3.8L99.6,48c-0.2,0.2-0.5,0.1-0.7-0.1
	c-0.1-0.1-0.3-0.3-0.4-0.4c-0.1-0.2-0.3-0.4-0.4-0.6c-0.5-0.9-0.8-2-0.3-2.4l5.8-6.6C104.4,37.2,105.4,37.5,106.2,38.5z"/>
<path class="st54" d="M107.5,41.4c1,0,2,0.1,3,0.5c0.9,0.7-0.4,2.1-0.6,2.1c-1-0.3-1.9-0.8-2.6-1.5C107.7,42,107.5,41.4,107.5,41.4z
	"/>
<path class="st54" d="M107.6,39.7c0.8-0.4,1.7-0.6,2.6-0.5c0.6,0.4,0.5,1.3,0.3,1.4s-1.9,0.7-2.8,0.1
	C107.9,40.2,107.6,39.7,107.6,39.7z"/>
<path class="st54" d="M105.8,37.2c0.9-1,2-1.9,3.1-2.7c0.6,0.3,0.9,1,0.7,1.6c-0.9,0.8-1.9,1.4-3.1,1.8
	C106.5,37.4,105.8,37.2,105.8,37.2z"/>
<path class="st54" d="M106.9,38.2c0.9-0.8,1.9-1.3,3.1-1.7c1,0.2,0.9,1.8,0.7,1.9c-1,0.5-2.2,0.8-3.4,0.8
	C107.5,38.6,106.9,38.2,106.9,38.2z"/>
<path class="st59" d="M110,25c1.3,2.9,0.5,6.4-1.9,8.5c-1,1-2.5,1.4-3.9,1.2c-1-0.4-1.8-1.1-2.3-2.1c-1.3-2.9-0.6-6.4,1.9-8.5
	c0.3-0.3,0.6-0.5,1-0.7c1-0.5,2.1-0.7,3.1-0.4C108.8,23.4,109.6,24.1,110,25z"/>
<path class="st53" d="M107.2,34.1C107.2,34.1,107.1,34.1,107.2,34.1c-0.1,0-0.1,0.1-0.2,0.1l0,0l0,0c-0.2,0.1-0.5,0.2-0.7,0.3
	c-0.1,0-0.3,0.1-0.5,0.1c0.2,0,0.3-0.1,0.5-0.1c0.2-0.1,0.5-0.2,0.7-0.3l0,0l0,0C107,34.2,107.1,34.2,107.2,34.1
	C107.1,34.1,107.2,34.1,107.2,34.1c0.4-0.2,0.7-0.4,1-0.7l0,0C107.8,33.7,107.5,33.9,107.2,34.1z M111,26c0-0.2-0.1-0.3-0.2-0.5
	c0-0.1-0.1-0.2-0.1-0.3c0-0.1-0.1-0.1-0.1-0.2c-0.1-0.2-0.3-0.4-0.4-0.6c-0.2-0.2-0.4-0.5-0.7-0.7c-0.2-0.1-0.3-0.2-0.5-0.3
	c-0.4-0.2-0.8-0.3-1.2-0.4c-0.2-0.1-0.4-0.1-0.6-0.1s-0.5-0.1-0.7-0.1s-0.4,0-0.6,0c-0.1,0-0.2,0-0.4,0.1c-0.1,0-0.3,0-0.4,0.1l0,0
	c-0.3,0.1-0.5,0.2-0.7,0.3c-0.2,0.1-0.3,0.2-0.5,0.3l0,0c-0.1,0.1-0.2,0.2-0.3,0.2l-0.1,0.1c-0.1,0-0.1,0.1-0.2,0.2
	s-0.2,0.2-0.3,0.3l-0.1,0.1c-0.3,0.3-0.5,0.6-0.7,0.8l0,0c-0.1,0.1-0.1,0.2-0.2,0.2c0,0.1-0.1,0.2-0.1,0.2c-0.1,0.1-0.1,0.2-0.2,0.3
	c0,0,0,0,0,0.1c-0.2,0.4-0.4,0.8-0.5,1.2l0,0c0,0.1,0,0.2-0.1,0.2c0,0.1-0.1,0.3-0.1,0.4s0,0.2,0,0.2l0,0v0.1c0,0.1,0,0.2,0,0.4
	c0,0.1,0,0.1,0,0.2c0,0.2,0,0.4,0,0.6s0,0.5,0,0.7l0,0c0,0.1,0,0.2,0,0.2c0,0.2,0,0.3,0.1,0.5l0,0l0,0c0,0.1,0,0.3,0.1,0.4
	c0,0.1,0,0.2,0.1,0.3l0,0c0,0.1,0.1,0.2,0.1,0.3c0,0.2,0.1,0.3,0.2,0.5l0,0c0,0,0,0.1,0.1,0.1c0,0.1,0.1,0.2,0.2,0.3
	c0,0.1,0.1,0.1,0.1,0.2l0,0c0.1,0.2,0.2,0.3,0.4,0.5c0.3,0.3,0.7,0.6,1,0.8c0.2,0.1,0.4,0.2,0.6,0.2c0.1,0,0.1,0,0.2,0.1l0,0l0,0
	c0,0,0.1,0,0.1,0.1l0,0l0,0c0.3,0.1,0.6,0.2,0.9,0.2s0.6,0.1,0.9,0c0.2,0,0.4,0,0.5-0.1c0,0,0,0,0.1,0l0,0c0.2,0,0.4-0.1,0.7-0.2
	h0.1l0,0l0,0l0,0h0.1l0,0c0.1,0,0.2-0.1,0.4-0.2c0.1-0.1,0.2-0.1,0.3-0.2c0.1,0,0.1-0.1,0.2-0.1l0,0l0,0c0.1-0.1,0.2-0.2,0.3-0.3
	l0,0l0.1-0.1l0,0c0.1-0.1,0.2-0.2,0.3-0.3l0.1-0.1l0,0l0,0l0.1-0.1c0.1-0.1,0.2-0.2,0.3-0.3c0.6-0.7,1-1.4,1.3-2.2c0,0,0,0,0-0.1
	C111.4,29.1,111.4,27.5,111,26z M110,31L110,31c0,0.1-0.1,0.2-0.1,0.3l0,0l0,0c-0.1,0.1-0.1,0.2-0.2,0.3l0,0l0,0
	c-0.1,0.1-0.1,0.2-0.2,0.3l0,0l0,0c-0.1,0.1-0.1,0.2-0.2,0.3l0,0l0,0c-0.1,0.1-0.2,0.2-0.2,0.3l0,0l0,0c-0.2,0.2-0.3,0.4-0.5,0.6
	c-0.1,0.1-0.1,0.1-0.2,0.2c0,0,0,0-0.1,0l0,0l0,0c-0.3,0.3-0.6,0.5-1,0.7l0,0c0,0-0.1,0-0.1,0.1l0,0l0,0c-0.2,0.1-0.5,0.2-0.7,0.3
	c-0.1,0-0.3,0.1-0.5,0.1h-0.1c-0.3,0-0.5,0.1-0.8,0.1c-0.2,0-0.4,0-0.6,0c-0.1,0-0.2-0.1-0.3-0.1c-0.9-0.4-1.6-1.1-2-1.9l0,0
	c-0.1-0.2-0.1-0.4-0.2-0.5c0-0.1,0-0.1-0.1-0.2l0,0c0-0.1-0.1-0.3-0.1-0.4s-0.1-0.2-0.1-0.4l0,0c0-0.1,0-0.2-0.1-0.3v-0.1l0,0v-0.2
	c0-0.1,0-0.3,0-0.4c0-0.5,0-1,0.1-1.5v-0.1c0-0.2,0.1-0.4,0.1-0.5l0,0c0.1-0.3,0.2-0.7,0.3-1c0.1-0.2,0.2-0.4,0.2-0.6
	c0.1-0.2,0.2-0.3,0.3-0.5c0.3-0.4,0.6-0.8,0.9-1.2c0.1-0.1,0.2-0.2,0.2-0.2c0.1-0.1,0.2-0.2,0.2-0.2c0.1-0.1,0.1-0.1,0.2-0.2l0,0
	c0,0,0,0,0.1-0.1c0-0.1,0.1-0.1,0.2-0.1l0,0c0.1,0,0.1-0.1,0.2-0.1c0.1-0.1,0.2-0.2,0.3-0.2c0.1-0.1,0.2-0.1,0.4-0.2l0,0l0,0
	c0.2-0.1,0.4-0.2,0.6-0.2l0,0h0.1h0.1c0.1,0,0.2,0,0.3-0.1c0,0,0.1,0,0.2,0c0.2,0,0.4,0,0.7,0c0.1,0,0.2,0,0.3,0
	c0.2,0,0.3,0,0.4,0.1l0,0l0,0l0,0l0,0c0.1,0,0.2,0.1,0.3,0.2c0.1,0.1,0.2,0.1,0.3,0.2l0,0l0,0c0.1,0.1,0.2,0.1,0.3,0.2l0,0
	c0.1,0.1,0.2,0.2,0.2,0.2l0,0l0.1,0.1c0.1,0.1,0.3,0.3,0.4,0.5l0,0c0.1,0.2,0.2,0.3,0.3,0.5c0,0,0,0,0,0.1s0.1,0.2,0.1,0.3
	c0,0.1,0.1,0.2,0.1,0.2s0,0,0,0.1v0.1c0,0.1,0,0.2,0.1,0.2v0.1l0,0c0,0.1,0.1,0.3,0.1,0.4c0,0.2,0.1,0.3,0.1,0.5c0,0,0,0,0,0.1
	c0,0,0,0,0,0.1c0,0.3,0,0.6,0,0.9c0,0.2,0,0.3,0,0.5c0,0.3-0.1,0.6-0.1,0.9l0,0l0,0c0,0.1,0,0.1,0,0.2l0,0l0,0c0,0.1,0,0.1,0,0.2
	s0,0.1,0,0.2s0,0.1,0,0.2l0,0l0,0c0,0.1-0.1,0.2-0.1,0.3l0,0l0,0C110.1,30.7,110,30.8,110,31L110,31z"/>
<path class="st60" d="M224.2,117c0,0,1.1,0.8,3.7,0.3c0,3.6-1.2,12.3-2.5,13c-1.3,0.4-2.8,0.5-4.1,0.3c-1.2,0-2.1-1-2.1-2.1
	c0-0.2,0-0.4,0.1-0.6c1.5-4,3.9-10.2,3.9-10.2L224.2,117z"/>
<path class="st61" d="M228,117.2c0,3.6-0.2,12.2-1.4,12.8c-1.3,0.4-2.7,0.6-4.1,0.5c-1.1,0-2.1-0.9-2.1-2.1l0,0c0-0.2,0-0.5,0.1-0.7
	c1.5-4,3.4-10.7,3.7-11C225.3,117.5,226.7,117.7,228,117.2z"/>
<path class="st60" d="M219.6,113.7c0,0,0.4,1.4,2.8,2.5c-2.2,2.9-8.5,9.1-9.8,8.8c-1.3-0.5-2.5-1.3-3.5-2.3c-0.9-0.7-1.1-2-0.3-2.9
	c0.1-0.2,0.3-0.3,0.5-0.4c3.6-2.3,9.3-5.7,9.3-5.7H219.6z"/>
<path class="st61" d="M222.4,116.2c-2.2,2.9-7.6,9.6-8.9,9.3c-1.3-0.5-2.5-1.1-3.6-2.1c-0.9-0.7-1.1-2-0.4-2.9
	c0.1-0.2,0.3-0.4,0.5-0.5c3.6-2.3,9.2-6.5,9.5-6.5C220.1,114.9,221.1,115.8,222.4,116.2z"/>
<path class="st60" d="M218.5,107.6c0,0-0.6,1.3,0.4,3.7c-3.6,0.7-9.5,2.1-10.3,1c-0.6-0.7-0.7-0.8-0.9-2.4c-0.2-1.2,0.6-2.3,1.8-2.4
	c0.2,0,0.3,0,0.5,0c2.6,0.1,5.2-0.1,7.7-0.6L218.5,107.6z"/>
<path class="st61" d="M219,111.3c-3.6,0.7-9.1,3.1-10,2c-0.6-0.6-1-1.4-1.1-2.3c-0.2-1.2,0.6-2.3,1.8-2.4c0.2,0,0.4,0,0.6,0
	c4.3,0,8.2-1.3,8.4-1C218.2,108.8,218.3,110.2,219,111.3z"/>
<path class="st60" d="M231.7,116.2l-2.6,0.6c0,0-0.5,0.7-0.6,0.9c-0.6,1,2.1,9.3,3.8,8.8s3.7-1.8,3.8-2.5c0-0.1,0.3-0.9,0.3-0.9
	S231.9,115.8,231.7,116.2z"/>
<path class="st61" d="M232.3,115.3c-0.5,0.4-1,0.8-1.6,1s-1.1,0.4-1.7,0.5c-1.1,0.3,2.1,9.3,3.8,8.8s3.4-2,3.5-2.6
	S232.5,114.8,232.3,115.3z"/>
<ellipse transform="matrix(0.9751 -0.2217 0.2217 0.9751 -18.2976 53.1919)" class="st62" cx="227.8" cy="108.1" rx="3" ry="3.3"/>
<path class="st63" d="M142.3,141.8c0.2-0.9,0.4-1.7,0.7-2.6c1.3-3.5,5.4-14.2,8.9-20.5c2-3.7,3.3-6.3,4.4-8.2c1.2-2.2,2.9-4.1,5-5.5
	c1.6-1.2,3.4-2.1,5.3-2.8c3.1-0.8,6.3-0.9,9.4-0.1c7.8,1.6,12,2.1,13.5,2.7c1.4,1.1,7.5,8.4,7.5,14.3c0,4.2-0.7,9.9-3.9,14.1
	s-16.5,25-21.7,25.1c-6.1,0.1-21.5-1.8-25.8-5.4C141.6,149.7,141.5,145.9,142.3,141.8z"/>
<path class="st10" d="M169.7,157.5c-2.2,0.1-4.3-0.5-6.1-1.9c-3.5-2.9-3.7-6.2-2.9-10.3c0.2-0.8,0.4-1.6,0.7-2.4
	c1.2-3.2,5.3-14,8.8-20.4c1.1-2.1,2-3.8,2.8-5.2c0.6-1.2,1.1-2.2,1.6-3c1.2-2.1,2.8-3.9,4.7-5.2c1.5-1.2,3.2-2,5.1-2.7
	c1.5-0.5,3-0.7,4.5-0.7s2.9,0.2,4.4,0.6c3.8,1.1,7.3,3,10.4,5.6l0.4,0.3l0.2,0.2c4.6,3.6,7,7.2,7,10.6c0,3.9-0.6,9.5-3.8,13.6
	c-3.3,4.4-23.9,18.4-28.6,19.4l-1.1,0.2C175.1,157,172.4,157.4,169.7,157.5z"/>
<path d="M211.2,119.3c-0.1-0.3-0.3-0.7-0.5-1c-0.4-0.8-0.9-1.4-1.4-2.1l0,0c-1.2-1.6-2.7-2.9-3.7-3.8l0,0c-0.5-0.4-0.9-0.7-1.2-0.9
	c-0.2-0.2-0.4-0.3-0.6-0.5c-0.3-0.3-0.7-0.5-1-0.8c-0.3-0.2-0.5-0.4-0.8-0.6c-0.2-0.2-0.5-0.3-0.7-0.5s-0.5-0.3-0.7-0.5l0,0
	c-0.6-0.4-1.2-0.7-1.8-1c-1.6-0.8-3.3-1.5-5-2.1c-0.1,0-0.2-0.1-0.2-0.1c-1.3-0.4-2.7-0.6-4.1-0.7c-0.2,0-0.4,0-0.5,0l0,0
	c-0.7,0-1.4,0-2,0.1c-0.3,0-0.6,0.1-0.9,0.1c-0.4,0.1-0.7,0.1-1.1,0.2c-0.2,0.1-0.5,0.1-0.8,0.2c-0.8,0.3-1.5,0.6-2.3,0.9
	c-0.5,0.2-0.9,0.5-1.4,0.7c-0.6,0.3-1.1,0.7-1.7,1.1c-0.2,0.1-0.4,0.3-0.6,0.5c-1.5,1.2-2.9,2.6-3.9,4.3c-0.2,0.2-0.3,0.5-0.5,0.8
	c-0.6,1.2-1.4,2.6-2.3,4.3c-0.1,0.2-0.2,0.3-0.3,0.5c-0.3,0.6-0.6,1.2-1,1.8c-0.2,0.5-0.5,1-0.8,1.5c-0.3,0.6-0.7,1.2-1,1.9
	c-1.7,3.3-3.4,7.3-4.8,10.8c-0.2,0.4-0.3,0.8-0.5,1.1c0,0,0,0,0,0.1c-0.3,0.7-0.6,1.4-0.8,2c-0.8,1.9-1.4,3.5-1.8,4.5
	c-0.3,0.8-0.6,1.7-0.7,2.6c-0.1,0.3-0.1,0.6-0.2,0.9c-0.2,1.2-0.3,2.3-0.2,3.3c0.2,2.5,1.1,4.8,3.6,6.8c1.2,0.9,2.6,1.6,4.1,1.9
	c0.3,0.1,0.7,0.1,1,0.2l0,0c0.4,0.1,0.8,0.1,1.1,0.1c0.1,0,0.3,0,0.4,0c0.9-0.1,1.9-0.1,2.8-0.2c2.2-0.3,4.4-0.7,6.6-1.3
	c1.8-0.4,5.7-2.5,10-5.2l0,0c0.6-0.4,1.2-0.8,1.8-1.2s1.1-0.8,1.7-1.1c2.4-1.6,4.8-3.3,7-4.9l0.1-0.1c1.6-1.2,3.2-2.4,4.5-3.5
	c0.4-0.3,0.8-0.7,1.2-1c0.6-0.5,1.1-1,1.6-1.4c0.5-0.5,0.9-0.9,1.2-1.3c1.2-1.6,2.1-3.5,2.7-5.4c0-0.1,0-0.1,0.1-0.2
	c0.3-1,0.6-2.1,0.7-3.1c0.1-0.8,0.2-1.5,0.3-2.3c0-0.4,0.1-0.8,0.1-1.2v-0.1c0-0.7,0-1.3,0-1.9C212,121.6,211.7,120.4,211.2,119.3z
	 M196.9,144.1c-0.7,0.5-1.5,1.1-2.2,1.6c-0.5,0.3-0.9,0.7-1.4,1c0,0,0,0-0.1,0c-0.5,0.4-1,0.7-1.5,1l0,0c-6,4-11.1,7-13,7.4
	l-1.1,0.2c-0.7,0.2-1.4,0.3-2.1,0.5c-1.9,0.4-3.9,0.7-5.8,0.7c-0.3,0-0.7,0-1,0c-1.6-0.1-3.2-0.7-4.5-1.7c-1.4-1.1-2.4-2.6-2.8-4.3
	c-0.1-0.6-0.2-1.2-0.2-1.8c0-1.1,0.1-2.3,0.3-3.4c0.2-0.8,0.4-1.6,0.7-2.3c0.2-0.6,0.6-1.5,1-2.6c0.3-0.8,0.7-1.8,1.1-2.8v-0.1
	c1.6-4,3.8-9.2,5.8-13.2c0.3-0.5,0.5-1,0.8-1.5c0.1-0.1,0.1-0.2,0.2-0.3c0.1-0.2,0.2-0.3,0.3-0.5c0.9-1.7,1.6-3.2,2.3-4.4
	c0.6-1.1,1.1-2.1,1.6-3c0.7-1.2,1.5-2.4,2.5-3.4c0.2-0.2,0.3-0.3,0.5-0.5c0.1-0.1,0.1-0.1,0.2-0.2c0.3-0.3,0.6-0.5,0.9-0.7
	c0.1-0.1,0.2-0.2,0.4-0.3c0.3-0.2,0.6-0.4,0.9-0.6c1-0.7,2.2-1.3,3.3-1.7c0.2-0.1,0.4-0.2,0.6-0.2c0.2-0.1,0.3-0.1,0.5-0.2
	s0.5-0.1,0.7-0.2c0.2,0,0.4-0.1,0.6-0.1c0.8-0.2,1.6-0.2,2.5-0.2v0.1c0.2,0,0.3,0,0.5,0c0.6,0,1.3,0.1,1.9,0.2
	c0.6,0.1,1.1,0.2,1.7,0.4l0,0c1,0.3,2,0.6,2.9,1.1c1.2,0.5,2.3,1,3.4,1.7c0.4,0.2,0.8,0.5,1.1,0.7c0.2,0.2,0.5,0.3,0.7,0.5
	s0.5,0.3,0.7,0.5c0.4,0.3,0.8,0.6,1.1,0.9l0.4,0.3l0.2,0.1c0.1,0.1,0.2,0.2,0.3,0.2c0.6,0.5,1.2,1,1.7,1.4l0,0
	c0.6,0.5,1.1,1.1,1.6,1.6c0.3,0.3,0.6,0.7,0.8,1l0.1,0.1c0.1,0.1,0.2,0.2,0.2,0.3c0.3,0.5,0.6,1,0.9,1.4c0.2,0.4,0.3,0.7,0.5,1.1
	c0.3,0.9,0.5,1.7,0.5,2.6c0,0.2,0,0.5,0,0.8c0,1-0.1,2.2-0.2,3.4c-0.1,0.5-0.2,1.1-0.3,1.6l0,0c-0.1,0.7-0.3,1.3-0.5,2
	c-0.1,0.3-0.2,0.5-0.2,0.8c-0.4,1.3-1,2.5-1.7,3.7c-0.2,0.3-0.4,0.6-0.6,0.9c-0.6,0.8-2,2.1-4,3.7c0,0,0,0-0.1,0.1
	c-1.5,1.3-3.4,2.7-5.5,4.2C197.1,144,197,144.1,196.9,144.1z M210.1,128.9C210.1,128.9,210,128.9,210.1,128.9
	c-0.1-0.1-0.2-0.1-0.3-0.2c-0.1,0.7-0.3,1.3-0.5,2c-0.1,0.3-0.2,0.5-0.2,0.8c0,0,0,0,0-0.1c0.1-0.2,0.2-0.4,0.3-0.6
	c0.3-0.6,0.6-1.2,0.9-1.7C210.2,129,210.1,129,210.1,128.9z"/>
<ellipse transform="matrix(6.017669e-02 -0.9982 0.9982 6.017669e-02 60.353 315.005)" class="st11" cx="197.5" cy="125.5" rx="11.7" ry="9.3"/>
<ellipse transform="matrix(6.017669e-02 -0.9982 0.9982 6.017669e-02 32.3895 317.1231)" class="st11" cx="184.6" cy="141.4" rx="8.4" ry="6.7"/>
<ellipse transform="matrix(6.017669e-02 -0.9982 0.9982 6.017669e-02 13.7064 308.8088)" class="st11" cx="170.8" cy="147.1" rx="6.6" ry="5.3"/>
<ellipse transform="matrix(6.017669e-02 -0.9982 0.9982 6.017669e-02 60.8359 315.5904)" class="st13" cx="198" cy="125.5" rx="4.4" ry="3.2"/>
<ellipse transform="matrix(0.9832 -0.1824 0.1824 0.9832 -22.7432 36.1017)" class="st13" cx="184.9" cy="141.7" rx="2.7" ry="3.8"/>
<ellipse transform="matrix(0.9832 -0.1824 0.1824 0.9832 -24.0541 33.6486)" class="st13" cx="170.9" cy="147.6" rx="2" ry="2.8"/>
<path class="st64" d="M167.8,138.1c0,0,1.6-2.9,6.1-1.2c0.9-1.9,2.9-7.1,10.9-6.1c-0.3-1.8-3.1-9.7,3.2-17.1
	c-2.3-1.2-3.8-1.9-6.9,1.6S167.5,137.2,167.8,138.1z"/>
<line class="st65" x1="156.3" y1="110.4" x2="174.3" y2="113"/>
<line class="st65" x1="167.1" y1="102.1" x2="187.2" y2="104.9"/>
<polyline class="st65" points="190,105.3 195.4,106.1 195.4,106.1 "/>
<line class="st65" x1="150.6" y1="121.3" x2="168.5" y2="123.9"/>
<line class="st65" x1="145.8" y1="132.2" x2="163.7" y2="134.7"/>
<line class="st65" x1="142" y1="143.5" x2="159.7" y2="146"/>
<path class="st66" d="M145.1,100.2l26.1-7.7c4.4-1.4,7.7-1.7,9.4,2.4l0,0c1.2,4.2-0.8,5.4-4.7,7.3L150.2,116
	c-4.2,1.7-8.9-0.3-10.6-4.5l0,0C138,107.4,141,101.9,145.1,100.2z"/>
<path class="st67" d="M147.1,99.6l27.1-8.4c4.4-1.4,8.6,7.8,4.7,9.8l-25.7,13.7c-4.2,1.7-8.9-0.3-10.6-4.5l0,0
	C140.9,106,142.9,101.3,147.1,99.6z"/>
<path class="st68" d="M141,107.1c0,0-0.4-1.3,1-3.5c-3.3-1.2-11.6-3.1-12.6-2.2c-0.8,1.1-1.4,2.3-1.7,3.7c-0.4,1,0.1,2.2,1.2,2.6
	c0.2,0.1,0.4,0.1,0.7,0.1c4.2,0,10.6-0.1,10.6-0.1L141,107.1z"/>
<path class="st69" d="M142,103.6c-3.3-1.2-11.1-4-12.1-3.1c-0.8,1-1.5,2.2-1.9,3.5c-0.4,1,0.1,2.2,1.1,2.6c0.2,0.1,0.5,0.1,0.7,0.1
	c4.1,0,10.9,0.7,11.1,0.4C140.8,105.9,141.2,104.5,142,103.6z"/>
<path class="st68" d="M142.4,112.4c0,0-1.1-0.8-1.3-3.4c-3.4,1-11.1,4.5-11.3,5.8c0,1.4,0.3,2.7,0.9,3.9c0.3,1.1,1.5,1.6,2.5,1.3
	c0.2-0.1,0.4-0.2,0.6-0.3c3.3-2.5,8.4-6.4,8.4-6.4L142.4,112.4z"/>
<path class="st69" d="M141.1,108.9c-3.4,1-11.2,3.5-11.5,4.9c0,1.3,0.2,2.7,0.6,3.9c0.3,1.1,1.4,1.7,2.5,1.4
	c0.2-0.1,0.4-0.2,0.6-0.3c3.3-2.5,9-6.1,9.1-6.4C141.5,111.5,141,110.2,141.1,108.9z"/>
<path class="st68" d="M147.5,115.4c0,0-1.4,0.1-3.2-1.7c-1.9,3-5.1,7.8-4.4,9c0.5,0.8,0.5,0.9,1.9,1.6c1,0.5,2.3,0.2,2.8-0.9
	c0.1-0.1,0.1-0.3,0.2-0.4c0.8-2.4,1.9-4.6,3.2-6.8L147.5,115.4z"/>
<path class="st69" d="M144.3,113.7c-1.9,3-5.9,7.2-5.2,8.3c0.3,0.8,0.9,1.4,1.7,1.8c1,0.6,2.2,0.2,2.8-0.8c0.1-0.2,0.2-0.3,0.2-0.5
	c1.4-3.9,4-6.9,3.8-7.2C146.3,115.3,145.1,114.7,144.3,113.7z"/>
<path class="st68" d="M144.2,100.6l-1.4,2.2l-1,0.3c-1.1,0.2-7.7-5.1-6.6-6.5s3-2.7,3.5-2.6c0.1,0,0.9,0.1,0.9,0.1
	S144.7,100.5,144.2,100.6z"/>
<path class="st69" d="M145.2,100.3c-0.5,0.3-1,0.6-1.5,1c-0.4,0.4-0.7,0.9-1,1.4c-0.6,0.9-7.7-5.1-6.6-6.5s3-2.4,3.6-2.2
	S145.8,100.3,145.2,100.3z"/>
<ellipse transform="matrix(0.5532 -0.833 0.833 0.5532 -21.9302 172.903)" class="st70" cx="150.2" cy="106.9" rx="2.9" ry="3.2"/>
<path class="st19" d="M162.3,94.4c0,0,22.9-9.7,33-11c0,0,27.1-0.2,50.3,2.3c-2.8,1.9-26.9,10.7-30.3,11.2S171.2,96.1,162.3,94.4z"
	/>
<path class="st20" d="M208.1,94c0,0,9.3-4.9,10.3-5.2S201,87.1,201,87.1s-9.1,4.6-9.7,5.2S208.1,94,208.1,94z"/>
<path class="st21" d="M245.9,85.6c0,0,0.4,38.7-2.9,48.3c-3,2.3-23.3,10.4-29.6,10.1c-0.5-4.5,0.3-44.1,2.2-47.2
	C218.1,95.1,236.1,88,245.9,85.6z"/>
<path class="st13" d="M162.3,94.4c0,0-1.6,19.7-1.6,34.2c0,5.6,5.1,11.2,6,11.5c2,2,49.5,6.1,52.4,4.3c-3.2-3.1-4.9-7.5-4.6-12
	c0.5-9.6,0.5-23.9,1.1-35.6C213.9,95.8,170.7,93.5,162.3,94.4z"/>
<path class="st71" d="M210,74.2l-0.4,14.5l-12.8-0.2c-2.1-0.1-3.8-3.4-3.6-7.4s1.9-7.2,4.1-7.2c0.8,0.1,1.5,0.5,1.9,1.1L210,74.2z"
	/>
<path class="st72" d="M153.7,70.3c0,0,4.7,3.5,13,4.8c3.7,0.6,8.6,0.3,13.2-0.2c15.3-1.6,22.3-9.3,22.3-9.3s-0.7-10.5-0.8-14
	s-4.6-10.1-4.6-10.1L153.7,70.3z"/>
<path class="st72" d="M250.8,73.4c0,0-3,5.1-12.8,4.4S214.2,73,214.2,73l-8.6-12.1L250.8,73.4z"/>
<path class="st13" d="M198.1,43.3l5.1,0.1l-0.6,16.3l-4.8-0.1C197.8,59.5,198.7,48.8,198.1,43.3z"/>
<polygon class="st73" points="197.8,59.5 200.9,64 204.4,64 202.7,59.7 "/>
<polygon class="st74" points="194.1,59.4 207.3,59.8 205.9,83.2 193.3,82.5 "/>
<path class="st41" d="M197.9,59.4l-0.4,2.8c0,0.1-0.1,0.3-0.2,0.3l-3.5,2.5c-0.2,0.2-0.5,0.1-0.7-0.1l0,0c0-0.1-0.1-0.1-0.1-0.2
	l-0.1-0.8c0-0.1,0-0.3,0.1-0.4l4-4.4c0.2-0.2,0.5-0.2,0.7,0l0,0C197.8,59.1,197.9,59.3,197.9,59.4z"/>
<polygon class="st75" points="214.2,72.9 212.8,78.2 205.9,83.2 207.3,59.8 "/>
<path class="st72" d="M202.8,60.1c0,0,0.1,2.7,0.7,3.1c2.8,1.5,5.7,2.9,8.7,4c0.9,0.2,0.8-1.9,0.8-1.9L202.8,60.1z"/>
<path class="st76" d="M202.8,60.1c0,0,0.2,3.3,0.9,3.3c0.9,0.5,7.3,3.5,7.3,3.5"/>
<path class="st48" d="M246.7,73.6c-5.2,0-14.6-2-25.2-5.5c-10.7-3.5-16.7-6.5-17.5-7.5c-0.6-2.9-0.3-12.1,0.5-17.8
	c0.1-0.8,0.8-1.4,1.6-1.5c1.9-0.1,3.8-0.1,5.8-0.1c12.4,0.1,24.8,1.5,37,4.1c0.7,0.1,1.2,0.6,1.3,1.3c2.4,9.3,0.5,21-0.5,25.6
	c-0.1,0.7-0.7,1.3-1.5,1.4C247.9,73.6,247.3,73.6,246.7,73.6L246.7,73.6z"/>
<path class="st77" d="M251.6,46.3c-0.3-1.1-1.2-2-2.3-2.3c-12.2-2.6-24.7-4-37.3-4.1l0,0c-1.9,0-3.9,0-5.8,0.1
	c-1.5,0.1-2.6,1.1-2.8,2.6c0,0.3-0.1,0.6-0.1,0.8c-0.6,5.1-0.9,12.6-0.5,16.3c0,0.4,0.1,0.7,0.1,1c0,0.1,0,0.2,0.1,0.4
	c0,0,0,0.1,0.1,0.2l0,0c0.1,0.2,0.3,0.4,0.5,0.6c0.7,0.6,1.9,1.3,3.6,2.1c0.3,0.2,0.7,0.3,1.1,0.5c0.7,0.3,1.3,0.6,2.1,0.9
	c0.9,0.4,1.8,0.7,2.8,1.1c1.1,0.4,2.2,0.8,3.3,1.2c10.1,3.6,23.3,7.3,30.5,7.3c0.6,0,1.2,0,1.8-0.1s1.2-0.4,1.7-0.8l0.1-0.1
	c0.4-0.4,0.7-0.9,0.8-1.5C252,67.9,254,55.9,251.6,46.3z M248.2,72.2c-0.4,0-0.9,0.1-1.3,0.1h-0.2c-5,0-14-2-24.1-5.2
	c-6.5-2.1-11.3-4-14.3-5.5l0,0c-0.4-0.2-0.7-0.3-1-0.5c-0.9-0.5-1.6-0.9-2-1.2c0-0.1,0-0.1,0-0.2c-0.4-3.1-0.2-11.2,0.6-16.8
	c0-0.2,0.2-0.4,0.4-0.4c1.9-0.1,3.8-0.1,5.7-0.1l0,0c12.4,0.1,24.7,1.4,36.7,4c0.2,0,0.3,0.2,0.4,0.4c2.3,9,0.4,20.5-0.5,25
	C248.6,72,248.5,72.2,248.2,72.2z"/>
<polygon class="st74" points="194.2,86.3 194.6,92.4 208.2,93.1 207.1,86.8 "/>
<polygon class="st75" points="213.4,83.9 216.8,88.7 208.2,93.1 207.1,86.8 "/>
<ellipse transform="matrix(2.998502e-02 -0.9996 0.9996 2.998502e-02 122.6084 289.6678)" class="st44" cx="210.5" cy="81.7" rx="7.3" ry="3.9"/>
<path class="st78" d="M197.8,59.1c0,0-0.2,3.2-0.5,3.4l-3.5,2.4"/>
<path class="st48" d="M159.1,70.1c-1.1,0-2.3-0.1-3.4-0.3c-0.7-0.1-1.2-0.7-1.3-1.4c-0.6-4.6-1.8-16.4,1.2-25.5
	c0.2-0.6,0.7-1.1,1.4-1.2c6.6-1,13.2-1.5,19.9-1.5c6,0,11.9,0.4,17.8,1c0.8,0.1,1.4,0.7,1.5,1.5c0.4,5.6,0.1,15-0.6,17.8
	C193.7,62.8,171.9,70.1,159.1,70.1z"/>
<path class="st77" d="M197.3,42.8c0-0.2-0.1-0.4-0.1-0.6c-0.3-1.1-1.3-2-2.5-2.2c-5.5-0.6-11-0.9-16.5-1c-0.4,0-0.8,0-1.2,0h-0.2
	l0,0h-1c-3.2,0-6.3,0.1-9.5,0.4l0,0c-3.2,0.2-6.4,0.6-9.6,1.1c-1.1,0.2-2.1,1-2.4,2.1c-0.6,2-1.1,4-1.4,6.2c-0.1,0.7-0.2,1.3-0.2,2
	l0,0c0,0.3-0.1,0.5-0.1,0.8s-0.1,0.5-0.1,0.8c-0.5,6.8,0.2,13.3,0.6,16.4c0.1,0.6,0.3,1.1,0.7,1.6l0,0c0,0,0,0.1,0.1,0.1
	c0.4,0.4,0.8,0.7,1.3,0.8c0.1,0,0.2,0,0.2,0.1c1.2,0.2,2.4,0.3,3.7,0.3c1.7,0,3.6-0.1,5.7-0.4c0.1,0,0.3,0,0.4,0
	c0.2,0,0.5-0.1,0.8-0.1c0.2,0,0.5-0.1,0.8-0.1l0,0c3.1-0.5,6.5-1.1,9.8-1.9c1.7-0.4,3.3-0.8,4.9-1.3c3.7-1,7-2.2,9.7-3.2l0,0
	c0.2-0.1,0.5-0.2,0.7-0.3c0.2-0.1,0.5-0.2,0.7-0.3c0.2-0.1,0.3-0.1,0.5-0.2c0.3-0.1,0.7-0.3,1-0.4l0,0c1.6-0.8,2.5-1.5,2.7-2
	c0.1-0.4,0.2-1,0.3-1.6c0-0.1,0-0.3,0-0.4C197.5,55.1,197.7,47.5,197.3,42.8z M190.6,61.7c-2.2,0.9-5.3,2-9.4,3.2
	c-0.3,0.1-0.6,0.2-0.9,0.3c-1.4,0.4-2.9,0.8-4.3,1.1c-3.4,0.8-6.6,1.5-9.6,1.9l0,0c-0.3,0-0.5,0.1-0.8,0.1s-0.5,0.1-0.8,0.1
	c-1.7,0.2-3.3,0.4-4.7,0.4c-0.4,0-0.8,0-1.1,0c-1,0-1.9-0.1-2.9-0.2c-0.1,0-0.2,0-0.2,0c-0.1,0-0.2-0.1-0.3-0.3
	c-0.1-0.5-0.1-1-0.2-1.5c-0.4-3.1-0.5-6.2-0.6-9.3c0-1.2,0-2.5,0.1-3.7c0-0.3,0-0.6,0.1-0.9c0-0.3,0-0.6,0.1-0.8l0,0
	c0.1-1.1,0.2-2.1,0.4-3.1c0.3-1.8,0.7-3.7,1.2-5.5c0-0.1,0.1-0.2,0.3-0.2c4-0.6,8.1-1,12.2-1.2c2.5-0.1,5-0.2,7.5-0.2l0,0
	c0.7,0,1.5,0,2.2,0l0,0c0.4,0,0.8,0,1.1,0c0.4,0,0.7,0,1.1,0c4.4,0.1,8.8,0.4,13.2,0.9c0.1,0,0.2,0.1,0.3,0.2v0.1
	c0.4,5.4,0.1,13.3-0.4,16.5c0,0.2-0.1,0.3-0.1,0.5c-0.1,0-0.1,0.1-0.2,0.1c-0.4,0.3-1.1,0.6-2,1.1c-0.2,0.1-0.5,0.2-0.7,0.3
	C191.1,61.5,190.8,61.6,190.6,61.7L190.6,61.7z"/>
<path class="st50" d="M219.5,64h-0.4c-5-0.2-8.9-4.9-8.7-10.4s4.3-9.6,9.2-9.6h0.4c5.1,0.2,9,4.9,8.7,10.4S224.4,64,219.5,64z"/>
<path class="st51" d="M220.1,43h-0.4v2.2h0.3c2.2,0.1,4.2,1.2,5.6,2.8c1.5,1.8,2.3,4.1,2.1,6.5c-0.2,4.8-3.8,8.5-8.1,8.5h-0.3
	c-2.2-0.1-4.2-1.1-5.5-2.8c-1.5-1.8-2.3-4.1-2.1-6.5c0.2-4.8,3.8-8.5,8.2-8.5v-0.1l0,0V43c-5.5,0-10,4.6-10.3,10.6
	c-0.2,3.8,1.5,7.4,4.3,9.5c1.5,1.2,3.4,1.9,5.4,2h0.4c0.4,0,0.8,0,1.2-0.1c4.9-0.6,8.9-5,9.2-10.5C230.1,48.4,225.7,43.3,220.1,43z"
	/>
<path class="st50" d="M180.6,63h-0.4c-5.1-0.2-9-4.9-8.7-10.4s4.3-9.5,9.2-9.5h0.4c2.5,0.1,4.8,1.3,6.3,3.2c1.7,2,2.5,4.6,2.4,7.2
	C189.6,58.8,185.5,63,180.6,63z"/>
<path class="st51" d="M189,46.6c-1.7-2.5-4.4-4.3-7.5-4.6c-0.1,0-0.2,0-0.4,0h-0.4c-0.1,0-0.2,0-0.3,0c-0.3,0-0.7,0-1,0.1l0,0
	c-2.6,0.4-4.9,1.7-6.5,3.8c-0.8,1.1-1.5,2.3-2,3.7c-0.3,1-0.5,2-0.6,3.1c-0.1,1.5,0.2,3,0.6,4.4c0,0.1,0,0.1,0.1,0.2
	c0.1,0.4,0.3,0.8,0.5,1.1c0.6,1.3,1.5,2.4,2.5,3.4c1.6,1.4,3.7,2.4,6,2.5h0.4c0.1,0,0.3,0,0.4,0c3.7-0.2,6.9-2.5,8.6-5.8l0,0
	c0.2-0.3,0.3-0.7,0.5-1c0.2-0.4,0.3-0.8,0.4-1.2c0.2-0.8,0.3-1.6,0.4-2.5C191,50.9,190.3,48.5,189,46.6z M188.7,53.4
	c0,0.1,0,0.2,0,0.3c0,0.5-0.1,1-0.2,1.4l0,0c-0.9,4-4.1,6.8-7.9,6.8h-0.4c-2.2-0.1-4.2-1.1-5.5-2.8c-0.3-0.4-0.6-0.7-0.8-1.1
	c-0.2-0.3-0.4-0.6-0.5-1c-0.6-1.4-0.9-2.9-0.8-4.4c0-0.9,0.2-1.8,0.5-2.6c0.3-0.9,0.7-1.7,1.2-2.4c1.5-2.1,3.8-3.5,6.4-3.5h0.3
	c0.2,0,0.3,0,0.4,0l0,0c0.4,0,0.8,0.1,1.2,0.2c0.5,0.1,1,0.3,1.5,0.6c1.2,0.6,2.2,1.6,3,2.8s1.3,2.6,1.5,4.1
	C188.7,52.4,188.8,52.9,188.7,53.4z"/>
<ellipse transform="matrix(4.536163e-02 -0.999 0.999 4.536163e-02 118.7818 288.0341)" class="st45" cx="210.1" cy="81.9" rx="3.6" ry="1.7"/>
<path class="st79" d="M193.3,83.6c-5.8,0.6-31,10.8-31,10.8s-2.4,32.1-1.6,34.2c0.3,2.4,0.2,5.3,5.2,10.9c1.7,1,2.3,3.3,37.4,5"/>
<path class="st79" d="M213.5,83.6c0,0,31.2,1.4,32.4,2.1c0,0-0.1,26.8-0.5,28.4"/>
<ellipse transform="matrix(4.536163e-02 -0.999 0.999 4.536163e-02 118.6497 226.1249)" class="st52" cx="177.6" cy="51" rx="4.6" ry="3.8"/>
<ellipse transform="matrix(4.536163e-02 -0.999 0.999 4.536163e-02 156.1855 266.5605)" class="st52" cx="217.6" cy="51.6" rx="4.6" ry="3.8"/>
<path class="st22" d="M203.6,107.9l-30.7-2.1c-1.3-0.1-2.3,0.9-2.4,2.1l0,0v0.1l-0.2,18.2c0,1.2,0.9,2.2,2.1,2.3l30.7,2.1
	c1.3,0.1,2.4-0.9,2.4-2.1l0,0v-0.1l0.2-18.3C205.7,109,204.8,108,203.6,107.9z"/>
<path class="st23" d="M204,108.8l-30.8-2.2c-1-0.1-1.8,0.7-1.9,1.7v0.1l-0.2,18.4c0,0.9,0.7,1.7,1.7,1.8l30.7,2.2
	c1,0.1,1.8-0.7,1.9-1.6V129l0.2-18.4C205.7,109.7,204.9,108.9,204,108.8z"/>
<path class="st24" d="M183.8,116.7l18.9,1.2c0.6,0,1.2-0.4,1.2-1.1l0,0v-5.4c0-0.6-0.5-1.2-1.1-1.2l-18.9-1.2
	c-0.6,0-1.2,0.5-1.2,1.1v5.4C182.7,116.1,183.2,116.6,183.8,116.7z"/>
<ellipse transform="matrix(3.664472e-02 -0.9993 0.9993 3.664472e-02 78.5652 309.1206)" class="st25" cx="199.6" cy="113.8" rx="2.8" ry="2.2"/>
<ellipse transform="matrix(3.664472e-02 -0.9993 0.9993 3.664472e-02 72.6476 302.0746)" class="st26" cx="193" cy="113.4" rx="2.8" ry="2.2"/>
<ellipse transform="matrix(3.664472e-02 -0.9993 0.9993 3.664472e-02 66.5158 295.3037)" class="st27" cx="186.4" cy="113.2" rx="2.8" ry="2.2"/>
<path class="st28" d="M187.4,121.5l14.9,1c0.7,0,1.2-0.5,1.2-1.1l0,0l0,0c0-0.7-0.5-1.2-1.1-1.2l0,0l-14.9-1c-0.7,0-1.2,0.5-1.2,1.1
	l0,0C186.2,120.9,186.7,121.5,187.4,121.5z"/>
<path class="st29" d="M195.6,129.3l6.6,0.4c0.7,0,1.2-0.5,1.2-1.1l0,0c0-0.7-0.5-1.2-1.1-1.2l0,0l-6.6-0.4c-0.6,0-1.2,0.5-1.2,1.1
	l0,0C194.5,128.6,194.9,129.2,195.6,129.3z"/>
<path class="st29" d="M195.6,125.9l6.6,0.4c0.7,0,1.2-0.5,1.2-1.1l0,0l0,0c0-0.7-0.5-1.2-1.1-1.2l0,0l-6.6-0.4
	c-0.7,0-1.2,0.5-1.2,1.1l0,0C194.5,125.3,195,125.9,195.6,125.9L195.6,125.9z"/>
<polygon class="st30" points="180.7,108.9 171.6,108.2 171.4,126.9 180.6,127.5 "/>
<radialGradient id="SVGID_5_" cx="-4058.6533" cy="-2090.532" r="0.9" gradientTransform="matrix(-1.7199 -2.131339e-02 2.131339e-02 -1.7199 -6762.6294 -3571.4072)" gradientUnits="userSpaceOnUse">
	<stop  offset="0.2" style="stop-color:#666666"/>
	<stop  offset="0.57" style="stop-color:#585858"/>
	<stop  offset="1" style="stop-color:#4D4D4D"/>
</radialGradient>
<path class="st80" d="M172.1,110.4c0-0.6,0.5-1.1,1-1.1s1,0.5,1,1.2c0,0.6-0.5,1.1-1,1.1S172.1,111.1,172.1,110.4z"/>
<path class="st81" d="M173.1,109.3c-0.3,0.7-0.3,1.6,0,2.3"/>
<path class="st81" d="M174.1,110.4c-0.7,0.2-1.3,0.2-2,0"/>
<radialGradient id="SVGID_6_" cx="-4062.3032" cy="-2099.4519" r="0.9" gradientTransform="matrix(-1.7199 -2.131339e-02 2.131339e-02 -1.7199 -6762.6147 -3571.4121)" gradientUnits="userSpaceOnUse">
	<stop  offset="0.2" style="stop-color:#666666"/>
	<stop  offset="0.57" style="stop-color:#585858"/>
	<stop  offset="1" style="stop-color:#4D4D4D"/>
</radialGradient>
<path class="st82" d="M178.2,125.8c0-0.6,0.5-1.1,1-1.1s1,0.5,1,1.2s-0.5,1.1-1,1.1S178.2,126.5,178.2,125.8z"/>
<path class="st81" d="M179.2,124.7c-0.3,0.7-0.3,1.5,0,2.3"/>
<path class="st81" d="M180.2,125.8c-0.7,0.2-1.3,0.2-2,0"/>
<radialGradient id="SVGID_7_" cx="-4058.5532" cy="-2099.2219" r="0.9" gradientTransform="matrix(-1.7199 -2.131339e-02 2.131339e-02 -1.7199 -6762.6299 -3571.4087)" gradientUnits="userSpaceOnUse">
	<stop  offset="0.2" style="stop-color:#666666"/>
	<stop  offset="0.57" style="stop-color:#585858"/>
	<stop  offset="1" style="stop-color:#4D4D4D"/>
</radialGradient>
<path class="st83" d="M171.8,125.4c0-0.6,0.5-1.1,1-1.1s1,0.5,1,1.2s-0.5,1.1-1,1.1C172.2,126.5,171.8,126,171.8,125.4z"/>
<path class="st81" d="M172.8,124.2c-0.3,0.7-0.3,1.6,0,2.3"/>
<path class="st81" d="M173.8,125.4c-0.7,0.2-1.3,0.2-2,0"/>
<radialGradient id="SVGID_8_" cx="-4061.9233" cy="-2090.6919" r="0.9" gradientTransform="matrix(-1.7199 -2.131339e-02 2.131339e-02 -1.7199 -6762.6362 -3571.4121)" gradientUnits="userSpaceOnUse">
	<stop  offset="0.2" style="stop-color:#666666"/>
	<stop  offset="0.57" style="stop-color:#585858"/>
	<stop  offset="1" style="stop-color:#4D4D4D"/>
</radialGradient>
<path class="st84" d="M177.8,110.8c0-0.6,0.5-1.1,1-1.1s1,0.5,1,1.2c0,0.6-0.5,1.1-1,1.1C178.2,111.9,177.7,111.4,177.8,110.8z"/>
<path class="st81" d="M178.7,109.6c-0.3,0.7-0.3,1.6,0,2.3"/>
<path class="st81" d="M179.7,110.8c-0.7,0.2-1.3,0.2-2,0"/>
<path class="st85" d="M203.6,121.4c-1.6-0.5-3.4-0.5-5-0.1c-2.4,0.8-2.5-1.4-3.6-1.4s-1.4,1.7-2.9,1.5s-1-0.8-1.7-0.8
	s-0.7,0.8-1.4,0.7s-0.9-2.2-1.3-2.2"/>
<path class="st63" d="M200.8,151.9c0.2-0.9,0.4-1.7,0.7-2.6c1.3-3.5,5.4-14.1,8.9-20.5c2-3.7,3.3-6.3,4.4-8.2c1.2-2.2,2.9-4.1,5-5.5
	c1.6-1.2,3.4-2.2,5.3-2.8c3.1-0.8,6.3-0.9,9.4-0.1c7.8,1.6,12,2.1,13.5,2.7c1.4,1.1,7.5,8.4,7.5,14.3c0,4.2-0.7,9.9-3.9,14.1
	s-16.5,25-21.7,25.1c-6.1,0.1-21.5-1.8-25.8-5.4C200.2,159.7,200,156,200.8,151.9z"/>
<path class="st10" d="M228.2,167.5c-2.2,0.1-4.3-0.5-6.1-1.9c-3.5-2.9-3.7-6.2-2.9-10.3c0.2-0.8,0.4-1.7,0.7-2.4
	c1.2-3.2,5.4-14,8.8-20.4c1.1-2.1,2-3.8,2.8-5.2c0.6-1.2,1.1-2.2,1.6-3c1.2-2.1,2.8-3.9,4.7-5.2c1.5-1.2,3.2-2,5.1-2.7
	c1.5-0.5,3-0.7,4.5-0.7s2.9,0.2,4.4,0.6c3.8,1.1,7.3,3.1,10.4,5.6l0.4,0.3l0.2,0.1c4.6,3.6,7,7.2,7,10.6c0,3.9-0.6,9.4-3.7,13.6
	c-3.4,4.3-23.9,18.3-28.6,19.3l-1.1,0.2C233.7,167,231,167.4,228.2,167.5z"/>
<path d="M262.9,121.5c-3.2-2.8-7-4.8-11-6c-1.3-0.4-2.6-0.6-4-0.7c-0.2,0-0.4,0-0.6,0c-0.7,0-1.3,0-1.9,0.1l0,0
	c-0.9,0.1-1.9,0.3-2.8,0.6c-1.9,0.6-3.7,1.6-5.3,2.8c-0.8,0.5-1.5,1.1-2.2,1.8c-0.1,0.1-0.3,0.3-0.4,0.5c-0.7,0.8-1.4,1.6-2,2.5
	c-0.2,0.2-0.3,0.5-0.5,0.8s-0.4,0.7-0.6,1.1c-0.2,0.3-0.4,0.7-0.6,1c-0.8,1.6-1.9,3.6-3.2,6.1c-0.3,0.6-0.6,1.2-1,1.9
	c-1.2,2.5-2.5,5.3-3.7,8.1c-0.4,0.9-0.8,1.8-1.1,2.7c-1.3,3.3-2.5,6.2-3,7.8c-0.3,0.8-0.6,1.7-0.7,2.6c-0.1,0.3-0.1,0.6-0.2,0.9
	c-0.3,2.2-0.4,4.2,0.4,6.1c0.5,1.2,1.2,2.4,2.4,3.5c0.2,0.2,0.4,0.4,0.6,0.6c1.4,1.1,3,1.8,4.7,2c0.6,0.1,1.3,0.1,1.9,0.1h0.1
	c0.9,0,1.8-0.1,2.6-0.2l0,0c2.2-0.2,4.4-0.7,6.6-1.3c1.5-0.3,4.3-1.8,7.7-3.8c3.8-2.3,8.3-5.3,12.2-8.2c4.3-3.2,7.9-6.1,9.1-7.7
	c3.2-4.3,3.9-10,3.9-14.2C270.4,127.1,264.4,122.6,262.9,121.5z M259.1,151.4c-2.1,1.6-4.7,3.5-7.3,5.3c-2.8,1.9-5.5,3.6-7.8,5
	c-3.2,1.9-5.7,3.2-6.8,3.4l-1.1,0.2c-0.7,0.2-1.4,0.3-2,0.5c-1.9,0.4-3.9,0.7-5.8,0.8c-2,0.1-3.9-0.5-5.5-1.7
	c-1.4-1.1-2.4-2.6-2.8-4.3c-0.3-1.7-0.3-3.5,0.2-5.2c0.2-0.8,0.4-1.6,0.7-2.3c0.7-2,2.6-6.9,4.8-11.9c1.3-3,2.7-6,4-8.3
	c1.1-2.1,2-3.8,2.8-5.2c0.3-0.6,0.6-1.1,0.8-1.6c0.2-0.3,0.3-0.6,0.5-0.9c0.1-0.2,0.2-0.4,0.3-0.6c0.5-0.9,1.1-1.8,1.8-2.6
	c0.1-0.1,0.2-0.2,0.3-0.3c0.7-0.8,1.5-1.5,2.4-2.1c1.5-1.1,3.1-2,4.8-2.5c0.7-0.2,1.4-0.4,2.2-0.5c0.7-0.1,1.4-0.1,2.1-0.1v0.1
	c0.8,0,1.6,0.1,2.5,0.2c0.6,0.1,1.1,0.2,1.7,0.4c3.7,1.1,7.1,2.9,10,5.4l0.4,0.3l0.2,0.1c4.4,3.4,6.6,6.8,6.6,9.9
	c0,3.8-0.6,9.1-3.6,13.1C264.4,147.1,262.1,149.1,259.1,151.4z"/>
<ellipse transform="matrix(6.017739e-02 -0.9982 0.9982 6.017739e-02 105.3413 382.92)" class="st11" cx="256" cy="135.5" rx="11.7" ry="9.3"/>
<ellipse transform="matrix(6.017669e-02 -0.9982 0.9982 6.017669e-02 77.31 384.9352)" class="st11" cx="243.1" cy="151.4" rx="8.4" ry="6.7"/>
<ellipse transform="matrix(6.017669e-02 -0.9982 0.9982 6.017669e-02 58.6948 376.7439)" class="st11" cx="229.4" cy="157.2" rx="6.6" ry="5.3"/>
<ellipse transform="matrix(6.017534e-02 -0.9982 0.9982 6.017534e-02 105.8257 383.5058)" class="st13" cx="256.6" cy="135.6" rx="4.4" ry="3.2"/>
<ellipse transform="matrix(0.9832 -0.1824 0.1824 0.9832 -23.6042 46.9434)" class="st13" cx="243.4" cy="151.8" rx="2.7" ry="3.8"/>
<ellipse transform="matrix(0.9832 -0.1824 0.1824 0.9832 -24.8978 44.4854)" class="st13" cx="229.4" cy="157.6" rx="2" ry="2.8"/>
<path class="st64" d="M226.3,148.1c0,0,1.6-2.9,6.1-1.2c0.9-1.9,2.9-7,10.9-6.1c-0.3-1.8-3.1-9.7,3.2-17.1c-2.3-1.2-3.8-1.9-6.9,1.6
	C236.4,129,226,147.2,226.3,148.1z"/>
<line class="st65" x1="214.8" y1="120.5" x2="232.8" y2="123.1"/>
<line class="st65" x1="225.6" y1="112.1" x2="245.7" y2="115"/>
<polyline class="st65" points="248.6,115.4 253.9,116.2 253.9,116.2 "/>
<line class="st65" x1="209.1" y1="131.4" x2="227" y2="133.9"/>
<line class="st65" x1="204.3" y1="142.2" x2="222.2" y2="144.8"/>
<line class="st65" x1="200.6" y1="153.5" x2="218.2" y2="156"/>
<ellipse transform="matrix(0.9887 -0.1497 0.1497 0.9887 -11.85 26.9663)" class="st86" cx="173.2" cy="92.2" rx="3.1" ry="0.9"/>
<path class="st66" d="M208.3,117.2l20.5-17.8c3.4-3.1,6.3-4.8,9.6-1.7l0,0c2.8,3.3,1.5,5.2-1.2,8.6l-17.7,23.1
	c-3.1,3.2-8.2,3.4-11.5,0.3l0,0C204.8,126.7,205.2,120.4,208.3,117.2z"/>
<path class="st67" d="M209.8,115.8l21.1-18.9c3.4-3.1,11,3.5,8.4,6.9l-17.6,23.1c-3.1,3.2-8.2,3.4-11.5,0.3l0,0
	C206.9,124.2,206.8,119.1,209.8,115.8z"/>
<path class="st68" d="M207.4,125.1c0,0-0.9-1.1-0.5-3.6c-3.5,0.2-11.8,2-12.3,3.3c-0.3,1.3-0.3,2.7,0,4c0.1,1.1,1,1.9,2.1,1.9
	c0.2,0,0.5-0.1,0.7-0.2c3.8-1.7,9.6-4.5,9.6-4.5L207.4,125.1z"/>
<path class="st69" d="M206.9,121.5c-3.5,0.2-11.7,1-12.2,2.2c-0.3,1.3-0.4,2.7-0.2,4c0.1,1.1,1,1.9,2.1,1.9c0.2,0,0.5-0.1,0.7-0.2
	c3.8-1.7,10.1-3.9,10.3-4.2C206.7,124.1,206.5,122.7,206.9,121.5z"/>
<path class="st68" d="M210.9,129.4c0,0-1.3-0.3-2.6-2.5c-2.6,2.3-8.2,8.7-7.9,10c0.6,1.2,1.4,2.3,2.4,3.2c0.7,0.8,2,0.9,2.8,0.2
	c0.2-0.2,0.3-0.3,0.4-0.5c2-3.6,4.9-9.4,4.9-9.4L210.9,129.4z"/>
<path class="st69" d="M208.2,126.8c-2.6,2.3-8.7,7.9-8.4,9.2c0.5,1.2,1.3,2.4,2.2,3.3c0.7,0.8,2,0.9,2.8,0.2
	c0.2-0.1,0.3-0.3,0.4-0.6c2-3.6,5.7-9.3,5.6-9.6C209.7,128.9,208.7,128,208.2,126.8z"/>
<path class="st68" d="M216.9,130c0,0-1.2,0.7-3.6-0.2c-0.4,3.5-1.4,9.3-0.3,10c0.7,0.5,1.5,0.8,2.4,0.7c1.2,0.1,2.2-0.8,2.2-1.9
	c0-0.2,0-0.3,0-0.5c-0.2-2.5-0.2-5,0.1-7.5L216.9,130z"/>
<path class="st69" d="M213.2,129.7c-0.4,3.5-2.4,9-1.3,9.8c0.6,0.6,1.4,0.9,2.3,0.9c1.1,0.1,2.1-0.7,2.2-1.9c0-0.2,0-0.4,0-0.6
	c-0.3-4.1,0.7-7.9,0.5-8.2C215.7,130.4,214.3,130.4,213.2,129.7z"/>
<path class="st68" d="M207.6,117.9l-0.4,2.6c0,0-0.7,0.6-0.8,0.7c-0.9,0.6-9.1-1.4-8.7-3.1s1.5-3.7,2.1-3.8c0.1,0,0.8-0.3,0.8-0.3
	S208,117.6,207.6,117.9z"/>
<path class="st69" d="M208.4,117.2c-0.4,0.5-0.7,1-0.9,1.6c-0.2,0.5-0.3,1.1-0.3,1.7c-0.2,1.1-9.1-1.5-8.7-3.1s1.7-3.4,2.3-3.5
	S208.9,116.9,208.4,117.2z"/>
<ellipse transform="matrix(0.1549 -0.9879 0.9879 0.1549 62.6664 315.4881)" class="st70" cx="215.7" cy="121.1" rx="2.9" ry="3.2"/>
<path d="M250.7,51.5c0.1,0,0.2-0.1,0.1-0.2c0-0.1-0.1-0.1-0.1-0.1c-0.1,0-0.2,0.1-0.1,0.2C250.5,51.4,250.6,51.5,250.7,51.5z"/>
<ellipse transform="matrix(0.9841 -0.1774 0.1774 0.9841 -5.6017 19.1526)" class="st69" cx="104.3" cy="40.9" rx="0.9" ry="1.4"/>
<line class="st87" x1="197.9" y1="43.3" x2="203.2" y2="43.4"/>
<path class="st88" d="M127.4,156.8l-0.1,3.2v0.1l0,0c0,0-1.6,3.6-2.4,5.4v0.1l-0.5,1.1l-1.3,2.8l-0.1,0.2c-0.1,0.4-0.6,0.7-1,0.6
	l0,0c-4.5-1.7-23.2-9.1-32.4-17.1c-0.7-0.6-1.8-0.5-2.4,0.2l0,0l-0.1,0.1c-0.9,1.3-1.6,2.4-2.1,3.1c-0.2,0.4-0.8,0.5-1.2,0.3
	c-0.1-0.1-0.2-0.2-0.3-0.4c-3.1-3.9-5.8-8.1-8-12.6c-2-4.1-3.4-8.4-4.4-12.9l0,0c-0.1-0.4-0.1-0.6-0.1-0.6v-0.1c0-0.1,0-0.2,0-0.3
	l0,0c0-0.8,1.7-2.8,2.4-3.5c0.2-0.2,0.5-0.2,0.8-0.1c3.4,1.8,7,3.3,10.6,4.5C89.6,132.4,97,134,97,134c0.4,0.1,0.7,0.6,0.5,1.1l0,0
	c0,0.1-0.1,0.1-0.1,0.2l-1.4,3.1l-0.1,0.2l-1.8,2.8c0,0.1,0.1,0.1,0.2,0.2c2.5,1.9,14,10.6,32.7,14.1c0.1,0,0.2,0.1,0.3,0.1
	C127.5,156,127.4,156.3,127.4,156.8z"/>
<path class="st89" d="M94.2,141.5c2.5,1.9,14,10.6,32.7,14.1c0.1,0,0.2,0.1,0.3,0.1c0.3,0.2,0.2,0.6,0.2,1l-0.1,3.3
	c0,0.1-2.8,6.2-2.8,6.3c-0.1,0.4-0.6,0.7-1,0.6h-0.1c-4.5-1.7-23.2-9.1-32.4-17.1c-0.7-0.6-1.8-0.5-2.4,0.2l0,0l-0.1,0.1
	c-0.9,1.3-1.6,2.4-2.1,3.1c-0.2,0.4-0.8,0.5-1.2,0.3c-0.1-0.1-0.3-0.2-0.3-0.4c-3.1-3.9-5.8-8.1-8-12.5c-2.2-4.2-5.9-7.8-6.2-10.6
	c-0.1-0.8,1.7-2.8,2.5-3.6c0.2-0.2,0.5-0.2,0.8-0.1c3.4,1.8,7,3.3,10.6,4.5c4.8,1.5,12.2,3.1,12.2,3.1c0.4,0.2,0.7,0.6,0.5,1.1
	c0,0.1,0,0.1-0.1,0.2l-1.5,3.3l-1.8,1.8C93.8,140.7,93.8,141.2,94.2,141.5z"/>
<path class="st29" d="M92.7,144.8c10.1,7.3,21.7,12.2,34,14.4c0.1,0,0.2,0.1,0.3,0.1c0.3,0.2,0.4,0.7,0.2,1l-4.2,9.1
	c0,0.1,0,0.1-0.1,0.2c-0.1,0.4-0.6,0.7-1,0.6h-0.1c-4.5-1.7-23.2-9.1-32.4-17.1c-0.7-0.6-1.8-0.6-2.4,0.2l0,0l-0.1,0.1
	c-0.9,1.3-1.6,2.4-2.1,3.1c-0.2,0.4-0.8,0.5-1.2,0.3l0,0c-0.1-0.1-0.3-0.2-0.3-0.4c-3.1-3.9-5.9-8.1-8.1-12.5
	c-2-4.3-3.5-8.8-4.6-13.5c-0.2-0.4,0-0.9,0.4-1.1c0.2-0.1,0.4-0.1,0.6,0c3.6,1.9,7.4,3.5,11.2,4.9c4.8,1.5,12.2,3.1,12.2,3.1
	c0.4,0.2,0.7,0.6,0.5,1.1c0,0.1-0.1,0.1-0.1,0.2l-3.2,5.1C92.3,144,92.3,144.5,92.7,144.8z"/>
<path class="st90" d="M139.7,29.8l-0.3-1.1l0,0l0,0l0,0l0.4-2.2l0,0l0.1-0.4l0.2-1.1c0,0,0,0,0-0.1c0-0.2,0.2-0.3,0.4-0.3
	c1.9,0,9.9,0.2,14.2,1.8c0.4,0.1,0.8,0,1-0.4c0.2-0.6,0.4-1,0.5-1.4c0.1-0.2,0.3-0.3,0.5-0.2l0,0c0,0,0.1,0,0.1,0.1
	c1.6,0.9,3,2,4.3,3.3c1.2,1.2,2.2,2.5,3,3.9l0,0l0.1,0.2l0,0l0.1,0.1l0,0c-0.1,0.6-0.3,1.1-0.6,1.5c-0.1,0.1-0.2,0.2-0.3,0.1
	c-1.5-0.2-3-0.2-4.6-0.2c-2,0.1-5.1,0.5-5.1,0.5c-0.1,0-0.3-0.1-0.3-0.2l0,0v-0.1l0.3-1.3v-0.1l0.4-1.2H154
	c-4.6-1.3-9.4-1.5-14.1-0.7h-0.1C139.7,30.1,139.7,30,139.7,29.8z"/>
<path class="st89" d="M154.1,30.8c-4.6-1.3-9.4-1.5-14.1-0.7h-0.1c-0.1,0-0.1-0.2-0.2-0.3l-0.3-1.2l0.5-2.5c0-0.2,0.2-0.3,0.4-0.3
	c1.9,0,9.9,0.2,14.2,1.8c0.4,0.1,0.8-0.1,0.9-0.4c0.2-0.6,0.4-1,0.5-1.4c0.1-0.2,0.3-0.3,0.5-0.2l0,0c0,0,0.1,0,0.1,0.1
	c1.6,0.9,3,2,4.3,3.3c1.2,1.2,3,2,3.4,2.9c0.1,0.2-0.4,1.2-0.6,1.6c-0.1,0.1-0.2,0.1-0.3,0.1c-1.5-0.2-3-0.2-4.6-0.2
	c-2,0.1-5.1,0.5-5.1,0.5c-0.2,0-0.3-0.1-0.3-0.3v-0.1l0.3-1.3l0.5-0.9C154.3,31.1,154.2,30.9,154.1,30.8
	C154.1,30.9,154.1,30.9,154.1,30.8L154.1,30.8z"/>
<path class="st29" d="M154.3,29.5c-4.8-1.2-9.7-1.5-14.6-0.7h-0.1c-0.1,0-0.2-0.2-0.2-0.3l0.7-3.6c0,0,0,0,0-0.1
	c0-0.2,0.2-0.3,0.4-0.3c1.9,0,9.9,0.2,14.2,1.8c0.4,0.1,0.8-0.1,0.9-0.4c0.2-0.6,0.4-1,0.5-1.4c0.1-0.2,0.3-0.3,0.5-0.2
	c0,0,0.1,0,0.1,0.1c1.6,0.9,3,2,4.3,3.3c1.2,1.2,2.2,2.6,3.1,4.1c0.2,0.2,0,0.5-0.3,0.5c-1.6-0.2-3.2-0.3-4.8-0.2
	c-2,0.1-5.1,0.5-5.1,0.5c-0.2,0-0.3-0.1-0.3-0.2l0,0v-0.1l0.8-2.2C154.6,29.8,154.5,29.6,154.3,29.5
	C154.4,29.5,154.4,29.5,154.3,29.5L154.3,29.5z"/>
<path class="st89" d="M111.4,164.7c-0.2,0.4-0.3,0.7-0.3,0.7c0,0.1-0.1,0.2-0.2,0.3L111.4,164.7z"/>
<path class="st29" d="M82.3,137.6l-1.8,2.7c-0.2-0.3-0.2-0.7,0-1L82.3,137.6z"/>
<path class="st29" d="M82.4,137.3c0,0.1-0.1,0.2-0.1,0.2L82.4,137.3z"/>
<path class="st29" d="M113.8,159.1c0,0.1,0,0.2-0.1,0.3l-2.3,5L113.8,159.1z"/>
<g>
	<path class="st91" d="M300.1,13.6v173c0,7.3-5.9,13.2-13.2,13.2H13.5c-7.3,0-13.2-5.8-13.3-13.1v-3.1c-0.1-0.7-0.2-1.3-0.2-2v-168
		C0,6.5,5.6,0.7,12.7,0.4c0.2,0,0.5,0,0.7,0h273.4c6.6,0,12,4.8,13,11.1c0,0.1,0,0.1,0,0.2l0,0C300,12.2,300.1,12.9,300.1,13.6z"/>
</g>
<g>
	<g>
		<g>
			<path class="st92" d="M188.4,146.4L188.4,146.4c-0.2,0-0.2,0-0.3-0.1l-7-2.4l7.3,0.9c0.2,0,0.5,0,0.7,0.1l-0.1,1.5H188.4z"/>
			<path class="st3" d="M188.3,145.7c0.2,0,0.5,0,0.7,0.1h-0.6C188.4,145.7,188.4,145.7,188.3,145.7 M188.5,144.1l-0.7,3
				c0.1,0,0.2,0.1,0.3,0.1h0.1h0.1h0.6l0.2-3C188.9,144.2,188.7,144.2,188.5,144.1L188.5,144.1z"/>
		</g>
		<g>
			<path class="st93" d="M190.4,146.6c-0.5,0-0.9,0-1.4-0.1l0.1-1.5l1.1,0.1c0,0,0.3,0,0.4,0L190.4,146.6z"/>
			<path class="st3" d="M189.1,145.7l1,0.1c0.1,0,0.2,0,0.3,0C189.9,145.8,189.5,145.8,189.1,145.7 M189.1,144.2l-0.2,3
				c0.5,0,1,0.1,1.5,0.1l0.3-3c-0.1,0-0.2,0-0.3,0h-0.1h-0.1L189.1,144.2L189.1,144.2z"/>
		</g>
		<g>
			<path class="st3" d="M152.3,171.4l-6.1-0.4l-10.6-0.7c-0.1,0-0.4,0-0.4,0H135c-0.1,0-0.2,0-0.2,0l-1-0.1c-0.3,0-0.6,0-0.8-0.1
				c-11-1-21.1-6.1-28.4-14.4c-8.2-9.3-12.2-21.6-11.1-34.6l1.3-24.5c1-9.7,1.9-12.2,8.4-12.6l1.6-17.8c1.7-19.8,18-35,37.9-35.4
				c0.2,0,0.5,0,0.8,0h2h6.7h3.2h0.1c0.5,0,1,0.1,1.5,0.1c10.3,0.9,19.6,5.8,26.3,13.8s9.8,18,8.9,28.3L191,87
				c0.4,0,0.8,0.1,1.2,0.2c6.1,1.2,10.3,6.9,9.7,13.4l-1.2,23.4c-0.7,8.4-3.5,16.5-8,23.7C183.5,162.2,168.1,171.2,152.3,171.4
				L152.3,171.4L152.3,171.4z M141.3,85.1l23.6,0.8l1-11.6c0.5-6-1.3-11.9-5.2-16.6c-3.2-3.8-7.6-6.5-12.4-7.6
				c-1.3,0.3-2.6,0.7-3.9,1.3c-7.8,3.3-13,10.5-13.8,18.9l-1.3,14.5L141.3,85.1z"/>
			<path class="st3" d="M143.6,31.7h1.8h6.7h3.2c0.5,0,1,0.1,1.5,0.1c10.4,0.9,19.5,6,25.8,13.5s9.7,17.3,8.8,27.8L190.1,88
				c0.6,0,1.2,0.1,1.8,0.2c5.7,1.1,9.7,6.4,9.1,12.6l-1.2,23.4c-0.7,8.5-3.5,16.5-7.9,23.3c-8.7,13.7-23.4,23-39.5,23.1h-0.1l-6-0.4
				l-10.6-0.7l0,0c-0.2,0-0.3,0-0.5,0c-0.1,0-0.2,0-0.3,0l-1-0.1c-0.2,0-0.5,0-0.7-0.1c-10.9-1-20.7-5.9-27.9-14.1
				c-8.1-9.2-12-21.3-10.9-34l1.3-24.5c1-10,1.9-11.7,8.3-12l1.6-18.4c1.7-19.5,18-34.3,37.1-34.7c0.2,0,0.5,0,0.8,0h0.1
				 M165.6,86.7l1.1-12.3c0.6-6.4-1.6-12.5-5.4-17.2c-3.3-3.9-7.8-6.8-13-7.9l0,0c-1.4,0.3-2.8,0.8-4.2,1.4
				c-7.7,3.3-13.4,10.6-14.2,19.5l-1.4,15.3l12.7,0.4h0.3L165.6,86.7 M143.6,30.2L143.6,30.2h-0.2c-0.3,0-0.6,0-0.8,0
				c-9.6,0.2-18.9,4-26.1,10.6c-7.2,6.7-11.7,15.7-12.5,25.5l-1.4,17.1c-6.8,0.7-7.5,4.2-8.4,13.2l0,0l0,0l-1.3,24.5
				c-1.1,13.1,2.9,25.6,11.3,35.1c7.4,8.4,17.7,13.6,28.9,14.7c0.2,0,0.5,0,0.7,0.1l1,0.1c0.1,0,0.1,0,0.2,0h0.1h0.1h0.1
				c0.1,0,0.1,0,0.2,0c0.1,0,0.2,0,0.3,0l10.5,0.7l6,0.4l0,0l0,0h0.1c16-0.2,31.6-9.3,40.8-23.8c4.6-7.2,7.4-15.5,8.1-24l1.2-23.5
				c0.6-6.8-3.9-12.9-10.4-14.1c-0.2,0-0.3-0.1-0.5-0.1l1.2-13.3c0.9-10.5-2.3-20.8-9.1-28.9s-16.3-13.1-26.8-14.1
				c-0.5,0-1-0.1-1.5-0.1h-0.1l0,0l0,0h-3.2h-6.7L143.6,30.2L143.6,30.2L143.6,30.2z M130.2,84l1.2-13.7c0.7-8.1,5.8-15.1,13.3-18.3
				c1.2-0.5,2.4-0.9,3.6-1.2c4.6,1.1,8.8,3.7,11.8,7.3c3.8,4.5,5.6,10.2,5.1,16l-1,10.9l-22.5-0.7h-0.3L130.2,84L130.2,84z"/>
		</g>
	</g>
	<path class="st92" d="M152.3,170.6h-0.6c-0.4,0-0.8,0-1.2,0c-1.4,0-2.8-0.2-4.2-0.3L152.3,170.6z"/>
	<path class="st94" d="M155.3,31.7h-3.2C153.2,31.7,154.3,31.7,155.3,31.7z"/>
	<path class="st94" d="M191.4,73.1l-1.3,14.8l-0.9,10.4l-2.7-0.2l-7.2-0.6l-4.6-0.4l0.9-9.6V87l1.1-12.7c0.6-6.4-1.6-12.5-5.4-17.2
		c-3.9-4.6-9.5-7.8-15.9-8.3c-2.4-0.2-4.8,0-7.1,0.5l0,0c-1.4,0.3-2.8,0.8-4.2,1.4c-7.7,3.3-13.4,10.6-14.2,19.5l-1.4,15.3V86
		l-0.6,7l-9.9-0.9l-4.5-0.4l0.1-1.3l0.5-5.4l1.6-18.5c1.4-16.2,13-29.2,27.9-33.3l-0.8-1.4l0,0h0.9h1.8h6.7h3.2c0.5,0,1,0.1,1.5,0.1
		c10.4,0.9,19.5,6,25.8,13.5C188.9,52.8,192.3,62.7,191.4,73.1z"/>
	<path class="st92" d="M201.1,100.7l-1.2,23.4c-2.1,25.5-23.3,46.2-47.4,46.4h-0.1l-6-0.4l-10.6-0.7l0,0c-0.3,0-0.5,0-0.8,0
		l-1.6-0.1c-0.1,0-0.1,0-0.2,0l1.6-2.3c-5.6-2.4-10.6-6.1-14.8-10.8c-8.1-9.2-12-21.3-10.9-34l1.3-24.5c0.2-1.9,0.7-3.8,1.6-5.4
		c0.4-0.7,0.9-1.4,1.4-2c1.3-1.6,3-2.9,4.9-3.7c1.6-0.7,3.3-1,5.1-0.9l5,0.2l13.1,0.4l24,0.8l10,0.3l4.6,0.1l1.5,0.1l0,0l8.5,0.3
		C196.7,88.1,201.6,93.9,201.1,100.7z"/>
	<path class="st95" d="M181.4,73.1l-1.3,14.3v0.2l-0.9,9.9l-0.1,0.9L164.7,97l0.9-9.9v-0.5l1.1-12.3c0.6-6.4-1.6-12.5-5.4-17.2
		c-3.3-3.9-7.8-6.8-13-7.9l0,0c-0.9-0.2-1.9-0.4-2.9-0.5c-0.4,0-0.8-0.1-1.1-0.1c-12.4-0.5-23.3,8.9-24.4,21.4l-1.3,14.9l-0.1,1.6
		l-0.5,5.3l-0.1,0.9l-5.8-0.5l-8.7-0.8l0.6-6.8l1.6-18.4c1.7-19.5,18-34.3,37.1-34.7c0.2,0,0.5,0,0.8,0h0.2c0.6,0,1.2,0,1.8,0
		c0.5,0,1,0.1,1.4,0.1c10.4,0.9,19.5,6,25.8,13.5C178.9,52.8,182.3,62.7,181.4,73.1z"/>
	<path class="st93" d="M186.5,98.1c0,0.5-0.1,1.1-0.2,1.7l-1.2,23.4c-2.2,25.7-23.7,46.6-48.1,46.4c-0.3,0-0.7,0-1,0h-0.2l0,0
		c-0.9,0-1.7-0.1-2.6-0.2c-10.9-1-20.7-5.9-27.9-14.1c-8.1-9.2-12-21.3-10.9-34l1.3-24.5c1-10,1.9-11.7,8.3-12
		c1.3-0.1,2.9-0.1,4.7-0.1l5.3,0.2l4.6,0.2l10,0.3l12.7,0.4h0.3l24,0.8l9.7,0.3c0.1,0,0.2,0,0.2,0c1.8,0.2,3.3,0.3,4.6,0.5
		c0.5,0.1,1,0.2,1.5,0.2l0,0C186,88.6,187.2,90.7,186.5,98.1z"/>
	<path class="st96" d="M186.5,98.1c0,0.5-0.1,1.1-0.2,1.7l-1.2,23.4c-2.2,25.7-23.7,46.6-48.1,46.4c-0.3,0-0.7,0-1,0l5.3-83.8h0.3
		l24,0.8l9.7,0.3c0.1,0,0.2,0,0.2,0c1.8,0.2,3.3,0.3,4.6,0.5c0.5,0.1,1,0.2,1.5,0.2l0,0C186,88.6,187.2,90.7,186.5,98.1z"/>
	<path class="st97" d="M150.6,116.2c-0.3,4-2.7,7.4-6,9.1l-0.7,10.2c-0.2,3.2-3,5.6-6.2,5.4c-3.2-0.2-5.6-3-5.4-6.2l0.7-10.3
		c-3-2.2-4.8-5.8-4.6-9.8c0.4-6.1,5.7-10.7,11.8-10.3C146.4,104.7,151,110,150.6,116.2z"/>
	<path class="st97" d="M150.6,116.2c-0.3,4-2.7,7.4-6,9.1l-0.7,10.2c-0.2,2.2-1.6,4.1-3.5,4.9c-2.2-0.9-3.6-3.2-3.5-5.7l0.7-10.3
		c-3-2.2-4.8-5.8-4.6-9.7c0.3-5,4-9.1,8.7-10.1C147.1,105.6,151,110.6,150.6,116.2z"/>
	<path class="st98" d="M150.6,116.2c-0.3,4-2.7,7.4-6,9.1l-0.7,10.2c-0.2,2.2-1.6,4.1-3.5,4.9c-2.2-0.9-3.6-3.2-3.5-5.7l0.7-10.3
		c-3-2.2-4.8-5.8-4.6-9.7c0.3-5,4-9.1,8.7-10.1C147.1,105.6,151,110.6,150.6,116.2z"/>
	<circle class="st99" cx="108.1" cy="149.1" r="2.2"/>
	<path class="st99" d="M113.8,152.5c2.6,3.5,6.5,6,10.8,7c1.2,0.3,2.2,1.4,2.1,2.6l0,0c-0.1,1.2-1.5,2.1-3.1,1.8
		c-5.4-1.2-10.1-4.2-13.4-8.7c-1-1.3-0.7-3,0.4-3.6l0,0C111.7,151,113.1,151.5,113.8,152.5z"/>
</g>
</svg>
