<?xml version="1.0" encoding="utf-8"?>
<!-- Generator: Adobe Illustrator 23.0.2, SVG Export Plug-In . SVG Version: 6.00 Build 0)  -->
<svg version="1.1" id="Layer_1" xmlns="http://www.w3.org/2000/svg" xmlns:xlink="http://www.w3.org/1999/xlink" x="0px" y="0px"
	 viewBox="0 0 300 199.7" style="enable-background:new 0 0 300 199.7;" xml:space="preserve">
<style type="text/css">
	.st0{fill:#757575;}
	.st1{fill:#00B1FF;}
	.st2{fill:#15BDF9;}
	.st3{fill:#FFFFFF;}
	.st4{fill:#626C72;}
	.st5{fill:#96A5B3;}
	.st6{fill:#2F3E4A;}
	.st7{fill:#222D35;}
	.st8{fill:#353535;stroke:#000000;stroke-width:0.22;stroke-linejoin:round;}
	.st9{fill:#4D4D4D;}
	.st10{fill:#B3B3B3;}
	.st11{fill:#D3161D;}
	.st12{fill:#ADADAD;stroke:#080000;stroke-width:0.29;stroke-miterlimit:10;}
	.st13{fill:none;stroke:#070707;stroke-width:0.45;stroke-miterlimit:10;}
	.st14{fill:#77401B;stroke:#070707;stroke-width:0.3;stroke-miterlimit:10;}
	.st15{fill:#F8C946;stroke:#020202;stroke-width:0.3;stroke-miterlimit:10;}
	.st16{fill:#4D4D4D;stroke:#151616;stroke-width:0.89;stroke-miterlimit:10;}
	.st17{fill:#F8C946;}
	.st18{fill:#683919;}
	.st19{fill:#945320;}
	.st20{fill:#515051;stroke:#000000;stroke-width:0.3;stroke-linejoin:round;}
	.st21{fill:#161616;stroke:#0A0A0A;stroke-width:0.26;stroke-miterlimit:10;}
	.st22{fill:#8E8A8B;stroke:#000000;stroke-width:0.26;stroke-linejoin:round;}
	.st23{fill:#E2B647;stroke:#070707;stroke-width:0.26;stroke-miterlimit:10;}
	.st24{fill:#161616;}
	.st25{fill:#945320;stroke:#070707;stroke-width:0.26;stroke-miterlimit:10;}
	.st26{fill:none;stroke:#0A0A0A;stroke-width:0.26;stroke-miterlimit:10;}
	.st27{fill:#DDDBD7;}
	.st28{fill:#232323;}
	.st29{fill:#3A3A3A;}
	.st30{fill:none;stroke:#000000;stroke-width:0.26;stroke-miterlimit:10;}
	.st31{fill:#282828;}
	.st32{fill:#7C7C7C;}
	.st33{fill:#666666;}
	.st34{fill:none;stroke:#070707;stroke-width:0.3;stroke-miterlimit:10;}
	.st35{fill:#7F1119;}
	.st36{fill:#5E0E18;}
	.st37{fill:#352F49;}
	.st38{fill:#E41E00;}
	.st39{fill:#FFFE28;}
	.st40{fill:#18FF08;}
	.st41{fill:#DBDDDD;}
	.st42{fill:#0FB0DB;}
	.st43{fill:#303435;}
	.st44{fill:url(#SVGID_1_);stroke:#0A0A0A;stroke-width:0.12;stroke-miterlimit:10;}
	.st45{fill:none;stroke:#0A0A0A;stroke-width:0.12;stroke-miterlimit:10;}
	.st46{fill:url(#SVGID_2_);stroke:#0A0A0A;stroke-width:0.12;stroke-miterlimit:10;}
	.st47{fill:url(#SVGID_3_);stroke:#0A0A0A;stroke-width:0.12;stroke-miterlimit:10;}
	.st48{fill:url(#SVGID_4_);stroke:#0A0A0A;stroke-width:0.12;stroke-miterlimit:10;}
	.st49{fill:none;stroke:#070707;stroke-width:0.15;stroke-miterlimit:10;}
	.st50{fill:#F8C946;stroke:#000000;stroke-width:0.15;stroke-miterlimit:10;}
	.st51{fill:#282828;stroke:#151616;stroke-width:0.24;stroke-miterlimit:10;}
	.st52{fill:#4D4D4D;stroke:#151616;stroke-width:0.24;stroke-miterlimit:10;}
	.st53{fill:#AFAFAF;}
	.st54{fill:#CECECE;}
	.st55{fill:#4D4D4D;stroke:#151616;stroke-width:0.19;stroke-miterlimit:10;}
	.st56{fill:#77401B;stroke:#070707;stroke-width:0.19;stroke-miterlimit:10;}
	.st57{fill:#F8C946;stroke:#000000;stroke-width:0.19;stroke-miterlimit:10;}
	.st58{fill:none;stroke:#0A0A0A;stroke-width:0.19;stroke-miterlimit:10;}
	.st59{opacity:0.25;enable-background:new    ;}
	.st60{fill:#D02C00;}
	.st61{fill:#389CCE;}
	.st62{opacity:0.75;enable-background:new    ;}
	.st63{fill:#E78D00;}
	.st64{fill:none;}
	.st65{fill:#FACB03;}
	.st66{fill:#CCCCCC;}
	.st67{fill:#FEFEFE;}
	.st68{fill:#F7B808;}
	.st69{fill:#703500;}
	.st70{fill:#220B00;}
	.st71{opacity:0.8;fill:#FFFFFF;}
</style>
<title>guide_stop_lock</title>
<path class="st0" d="M300.2,18.7v168c0,7.3-5.9,13.2-13.2,13.2H13.5c-7.3,0-13.2-5.9-13.2-13.2v-168c0-2.6,0.7-5,2-7
	c1.5-2.4,3.8-4.3,6.5-5.3c1.5-0.6,3-0.9,4.7-0.9c0,0,0,0,0,0H287c1.6,0,3.2,0.3,4.6,0.8c2.8,1,5.1,2.9,6.6,5.4
	c0.9,1.4,1.5,3,1.8,4.7C300.1,17.1,300.2,17.9,300.2,18.7z"/>
<path class="st1" d="M300,13.7v168c0,7.3-5.9,13.2-13.2,13.2H13.5c-0.2,0-0.4,0-0.7,0c-6.3-0.2-11.6-5-12.5-11.1
	c-0.1-0.7-0.2-1.4-0.2-2.1v-168c0-7.3,5.9-13.2,13.2-13.2h273.5c0.1,0,0.1,0,0.2,0c3.1,0,5.9,1.1,8.1,2.9c0.1,0.1,0.3,0.2,0.4,0.3
	c0.1,0.1,0.2,0.1,0.2,0.2c0.1,0.1,0.3,0.3,0.4,0.4c1.9,2,3.3,4.5,3.7,7.3C300,12.3,300,13,300,13.7z"/>
<path class="st2" d="M300,11.7H0.5c1-6.4,6.5-11.1,13-11.1H287C293.5,0.6,299,5.3,300,11.7z"/>
<path class="st3" d="M287,0.5C287,0.5,287,0.5,287,0.5L287,0.5l-273.5,0C6.2,0.5,0.3,6.4,0.3,13.7v168c0,7.1,5.6,12.8,12.5,13.2
	c0.2,0,0.5,0,0.7,0H287c7.3,0,13.2-5.9,13.2-13.2v-168C300.2,6.4,294.3,0.5,287,0.5z M13.5,190.4c-4.8,0-8.7-3.9-8.7-8.7v-168
	c0-0.7,0.1-1.4,0.2-2C5.6,9.5,7,7.6,8.9,6.4c1.4-0.9,3-1.4,4.7-1.4H287c1.7,0,3.3,0.5,4.6,1.3c1.9,1.2,3.3,3.1,3.9,5.4
	c0.2,0.6,0.2,1.3,0.2,2v168c0,4.8-3.9,8.7-8.7,8.7H13.5z"/>
<circle class="st4" cx="285.1" cy="15.5" r="6.2"/>
<circle class="st5" cx="285.1" cy="15.5" r="5.5"/>
<polygon class="st6" points="288.6,13.9 288.2,17.7 284.7,19.3 281.5,17 281.9,13.2 285.5,11.6 "/>
<path class="st7" d="M288.6,13.9l-0.2,1.8c-0.8-1-1.9-1.7-3.2-1.9c-1.3-0.1-2.6,0.3-3.5,1.2l0.2-1.7l3.5-1.6L288.6,13.9z"/>
<circle class="st4" cx="15.4" cy="15.5" r="6.2"/>
<circle class="st5" cx="15.4" cy="15.5" r="5.5"/>
<polygon class="st6" points="18.8,13.5 18.8,17.4 15.4,19.3 12.1,17.4 12.1,13.5 15.4,11.6 "/>
<path class="st7" d="M18.8,13.5v1.8c-0.9-0.9-2.1-1.5-3.4-1.5c-1.3,0-2.5,0.6-3.4,1.5v-1.8l3.4-1.9L18.8,13.5z"/>
<circle class="st4" cx="15.4" cy="179" r="6.2"/>
<circle class="st5" cx="15.4" cy="179" r="5.6"/>
<polygon class="st6" points="19.3,178.7 17.6,182.2 13.7,182.5 11.5,179.3 13.2,175.8 17.1,175.5 "/>
<path class="st7" d="M19.3,178.7l-0.8,1.6c-0.4-1.2-1.2-2.2-2.4-2.9c-1.2-0.6-2.5-0.6-3.7-0.1l0.8-1.6l3.9-0.3L19.3,178.7z"/>
<circle class="st4" cx="284.2" cy="179" r="6.2"/>
<circle class="st5" cx="284.2" cy="179" r="5.5"/>
<polygon class="st6" points="287.1,176.4 287.9,180.2 285,182.8 281.3,181.6 280.5,177.8 283.5,175.2 "/>
<path class="st7" d="M287.1,176.4l0.4,1.7c-1-0.7-2.4-1-3.6-0.8c-1.3,0.3-2.4,1.1-3,2.2l-0.4-1.7l2.9-2.6L287.1,176.4z"/>
<path class="st8" d="M91.7,169.1c0.1-1,0.3-2.1,0.6-3.1c1.2-4.2,5-16.9,8.4-24.5c2-4.5,3.2-7.6,4.3-9.9c1.2-2.7,3-5,5.3-6.9
	c1.7-1.6,3.7-2.8,5.9-3.7c3.5-1.2,7.2-1.6,10.9-0.9c9.2,1.2,14.1,1.3,15.9,1.8c1.8,1.2,9.4,9.1,10,15.8c0.4,4.9,0.1,11.5-3.2,16.7
	s-16.8,30.4-22.8,31c-7,0.7-25.1-0.1-30.4-3.9C91.7,178.2,91.2,173.9,91.7,169.1z"/>
<path class="st9" d="M123.6,184.7c-2.1,0.1-4.2-0.5-5.9-1.7c-4.3-3.1-4.8-6.9-4.3-11.6c0.1-1,0.3-2,0.6-2.9
	c1.1-3.8,4.9-16.7,8.3-24.4c1.1-2.5,2-4.6,2.7-6.3c0.6-1.4,1.1-2.6,1.6-3.6c1.1-2.5,2.9-4.8,5-6.5c1.7-1.5,3.6-2.7,5.6-3.5
	c2.1-0.8,4.3-1.3,6.6-1.3c1.2,0,2.5,0.1,3.7,0.4c4.5,1,8.7,2.8,12.5,5.5l0.4,0.3l0.2,0.1c5.7,3.7,8.7,7.6,9,11.6
	c0.4,4.5,0.2,11-3.1,16.1c-3.4,5.4-25.9,23.4-31.2,25.1l-1.2,0.4C130.8,183.6,127,184.7,123.6,184.7z"/>
<path d="M170.6,140.9c-0.5-5.5-5.5-9.6-8.3-11.5c0,0,0,0,0,0c-0.6-0.4-1.1-0.8-1.4-1c-0.2-0.2-0.5-0.3-0.7-0.5c-0.5-0.3-1-0.7-1.5-1
	c-0.9-0.6-1.9-1.1-2.9-1.6c-0.7-0.4-1.4-0.7-2.1-1c-0.3-0.1-0.5-0.2-0.8-0.3c-0.4-0.2-0.9-0.3-1.3-0.5c-0.6-0.2-1.3-0.4-1.9-0.6
	c-0.6-0.2-1.2-0.3-1.8-0.5v0c-0.1,0-0.2,0-0.3-0.1c-0.7-0.1-1.5-0.2-2.2-0.3c-0.3,0-0.6,0-0.9-0.1c-0.3,0-0.5,0-0.8,0l0,0
	c-0.2,0-0.5,0-0.7,0c-1.4,0-2.9,0.3-4.2,0.6c-0.7,0.2-1.4,0.4-2,0.7c-0.1,0.1-0.2,0.1-0.3,0.2c-0.7,0.3-1.3,0.6-2,1
	c-0.5,0.3-1,0.6-1.5,1c0,0-0.1,0-0.1,0.1c-0.7,0.5-1.3,1-1.9,1.5c-0.2,0.2-0.4,0.3-0.6,0.5c-1.7,1.5-3.1,3.3-4.2,5.3
	c-0.2,0.3-0.4,0.7-0.5,1.1c-0.6,1.4-1.3,3.1-2.2,5.2c-0.1,0.2-0.2,0.4-0.3,0.6c-0.3,0.7-0.6,1.4-1,2.2c-0.3,0.6-0.5,1.2-0.8,1.8
	c-0.3,0.7-0.6,1.4-0.9,2.2c-1,2.3-1.9,4.9-2.8,7.5c-0.3,0.8-0.5,1.5-0.8,2.3c-0.4,1.1-0.7,2.2-1,3.2c-0.2,0.4-0.3,0.9-0.4,1.3
	c0,0,0,0.1,0,0.1c0,0,0,0,0,0c-0.3,1-0.6,2-0.9,2.9c0,0,0,0,0,0c-0.1,0.2-0.1,0.5-0.2,0.7c-0.1,0.3-0.2,0.5-0.2,0.8
	c-0.4,1.5-0.8,2.7-1,3.5c-0.3,1-0.5,2-0.6,3.1c0,0.3-0.1,0.7-0.1,1c-0.4,4.5,0.4,8.5,4.8,11.6c1.4,0.9,2.9,1.5,4.5,1.8
	c0.6,0.1,1.3,0.1,1.9,0.1c4,0,8.4-1.5,12.1-2.6c2.8-0.9,9.6-5.7,16.2-11c0.3-0.2,0.6-0.5,0.9-0.8s0.7-0.5,1-0.8c0,0,0,0,0.1-0.1
	c1.6-1.3,3.1-2.6,4.6-3.9c0.1,0,0.1-0.1,0.2-0.1c2.2-2,4.3-3.8,5.8-5.4c1.3-1.3,2.3-2.4,2.8-3.2c0.1-0.1,0.1-0.2,0.2-0.2
	c1.3-2.1,2.2-4.3,2.7-6.6c0.5-2.2,0.7-4.5,0.7-6.6C170.8,143.2,170.7,142,170.6,140.9z M168,150.9C168,150.9,168,150.9,168,150.9
	c-0.4,1.5-0.9,3-1.6,4.4c-0.2,0.4-0.4,0.8-0.7,1.2c-0.9,1.4-3.7,4.3-7.6,7.7c-0.9,0.8-1.8,1.6-2.7,2.4c-0.1,0.1-0.2,0.1-0.2,0.2
	c-1.3,1.1-2.6,2.2-4,3.3c-0.2,0.2-0.4,0.3-0.5,0.4c0,0,0,0,0,0l0,0c-0.3,0.2-0.6,0.5-0.9,0.7c-0.3,0.2-0.6,0.5-0.9,0.7
	c-6.3,5-11.7,8.6-13.7,9.2l-1.2,0.4c-0.8,0.2-1.6,0.5-2.4,0.7c-2.6,0.8-5.3,1.5-7.8,1.5c-4,0.1-7.6-2.4-8.9-6.2c-0.5-2-0.6-4-0.3-6
	c0.1-0.9,0.3-1.8,0.5-2.7c0.2-0.7,0.5-1.8,0.9-3c0.1-0.2,0.1-0.5,0.2-0.7c0.1-0.2,0.1-0.5,0.2-0.7c0,0,0,0,0,0
	c0.2-0.6,0.4-1.3,0.6-2c0,0,0,0,0-0.1c0.1-0.3,0.2-0.5,0.3-0.8c0.4-1.4,0.9-2.9,1.4-4.4c0.2-0.5,0.4-1.1,0.5-1.6
	c1-3.1,2.2-6.3,3.3-9c0.3-0.6,0.5-1.2,0.8-1.8c0.1-0.1,0.1-0.3,0.2-0.4c0.1-0.2,0.2-0.4,0.3-0.6c0.9-2,1.6-3.8,2.3-5.2
	c0.6-1.4,1.1-2.6,1.6-3.6c0.7-1.5,1.6-2.9,2.6-4.1c0.2-0.2,0.4-0.5,0.6-0.7c0-0.1,0.1-0.1,0.1-0.1c0.3-0.3,0.6-0.6,1-0.9
	c0.1-0.1,0.2-0.2,0.4-0.3c0.1-0.1,0.3-0.2,0.4-0.3c0.2-0.2,0.4-0.3,0.5-0.5c1.2-0.9,2.5-1.7,3.9-2.4c0.1-0.1,0.2-0.1,0.4-0.2
	c0,0,0.1,0,0.1-0.1c0.4-0.2,0.7-0.3,1.1-0.4c0.5-0.1,0.9-0.3,1.4-0.4c1.2-0.3,2.5-0.4,3.7-0.4c0.5,0,0.9,0,1.4,0c0,0,0.1,0,0.1,0
	c0.1,0,0.2,0,0.3,0c0.2,0,0.4,0,0.5,0.1c0.4,0.1,0.8,0.1,1.1,0.2c0,0,0,0,0,0c0.8,0.2,1.5,0.4,2.3,0.6c0.4,0.1,0.8,0.2,1.2,0.4
	c0.1,0,0.2,0.1,0.3,0.1c1.3,0.4,2.5,1,3.7,1.6c1.6,0.8,3.2,1.7,4.6,2.8l0.5,0.3l0.2,0.1c0.1,0.1,0.2,0.2,0.4,0.3
	c0.7,0.5,1.4,1,2.1,1.5c0,0,0,0,0,0c0.9,0.7,1.7,1.4,2.5,2.2c2.2,2.3,3.4,4.6,3.6,6.9C168.9,143.8,168.9,147.4,168,150.9L168,150.9z
	 M169.6,140.9c-0.3-3.5-2.7-7-7.1-10.3l0,0c-0.6-0.4-1.2-0.8-1.8-1.3l-0.2-0.2l0,0l-0.4-0.3c-1-0.7-2-1.3-3-1.9l-2.2,0
	c1.6,0.8,3.2,1.7,4.6,2.8l0.5,0.3l0.2,0.1c0.1,0.1,0.2,0.2,0.4,0.3c0.7,0.5,1.4,1,2.1,1.5c0,0,0,0,0,0c0.9,0.7,1.7,1.4,2.5,2.2
	c2.2,2.3,3.4,4.6,3.6,6.9c0.2,2.8,0.2,6.4-0.6,9.9c0.4-1.1,0.9-2.2,1.3-3.1c0.1-0.2,0.2-0.4,0.3-0.6
	C169.8,144.9,169.7,142.8,169.6,140.9z M144.1,123c-0.2-0.1-0.3-0.3-0.4-0.4v1.4c0.5,0,0.9,0,1.4,0c0,0,0.1,0,0.1,0
	c-0.1-0.1-0.2-0.2-0.2-0.3C144.7,123.5,144.4,123.2,144.1,123z"/>
<ellipse transform="matrix(0.9998 -1.867394e-02 1.867394e-02 0.9998 -2.6836 2.9017)" class="st10" cx="154" cy="145.1" rx="10.8" ry="13.6"/>
<ellipse transform="matrix(0.9998 -1.867394e-02 1.867394e-02 0.9998 -3.0508 2.6541)" class="st10" cx="140.6" cy="164.7" rx="7.8" ry="9.7"/>
<ellipse transform="matrix(0.9998 -1.867324e-02 1.867324e-02 0.9998 -3.2015 2.3693)" class="st10" cx="125.3" cy="172.6" rx="6.1" ry="7.6"/>
<ellipse transform="matrix(0.9998 -1.867394e-02 1.867394e-02 0.9998 -2.6833 2.9146)" class="st11" cx="154.7" cy="145.1" rx="3.7" ry="5.1"/>
<ellipse transform="matrix(0.9658 -0.2593 0.2593 0.9658 -37.9836 42.1967)" class="st11" cx="140.9" cy="165.1" rx="3.2" ry="4.4"/>
<ellipse transform="matrix(0.9658 -0.2593 0.2593 0.9658 -40.6132 38.4122)" class="st11" cx="125.3" cy="173.1" rx="2.4" ry="3.2"/>
<path class="st12" d="M120.8,162.4c0,0,1.6-3.5,7-2c0.9-2.3,2.7-8.4,12.1-8c-0.5-2.1-4.5-10.9,2.2-20c-2.8-1.1-4.5-1.9-7.9,2.5
	S120.4,161.4,120.8,162.4z"/>
<line class="st13" x1="105" y1="131.5" x2="126.1" y2="132.8"/>
<line class="st13" x1="116.8" y1="120.8" x2="140.2" y2="122.3"/>
<polyline class="st13" points="143.6,122.5 149.8,122.9 149.8,122.9 "/>
<line class="st13" x1="99.4" y1="144.6" x2="120.4" y2="145.9"/>
<line class="st13" x1="94.8" y1="157.6" x2="115.8" y2="158.9"/>
<line class="st13" x1="91.6" y1="171" x2="112.2" y2="172.3"/>
<path class="st14" d="M84.6,104.9l31.4,3.3c5.4,0.4,9,1.6,9,6.8l0,0c-0.6,5-3.3,5.4-8.3,5.8l-33.6,3.4c-5.2,0-9.4-4.3-9.3-9.5l0,0
	C73.8,109.5,79.4,104.9,84.6,104.9z"/>
<path class="st15" d="M87,105.1l32.7,2.9c5.3,0.4,5.8,12.2,0.8,12.6L86.9,124c-5.2,0-9.4-4.3-9.4-9.5l0,0
	C77.5,109.3,81.8,105.1,87,105.1C87,105.1,87,105.1,87,105.1z"/>
<ellipse transform="matrix(0.8279 -0.5609 0.5609 0.8279 -49.1121 68.5613)" class="st16" cx="87.2" cy="114.3" rx="3.3" ry="3.7"/>
<path class="st17" d="M110.5,112.4c0,0,25.5-13.4,37.2-15.8c0,0,31.4-2.8,58.5-1.9c-3.1,2.5-30.1,14.8-34,15.7
	S120.9,113.5,110.5,112.4z"/>
<path class="st18" d="M163.5,107.7c0,0,10.4-6.6,11.4-7s-20.3-0.4-20.3-0.4s-10.1,6.2-10.7,6.9S163.5,107.7,163.5,107.7z"/>
<path class="st19" d="M206.5,94.6c0,0,4,44.7,1.1,56.1c-3.2,2.9-25.9,14.2-33.3,14.4c-1-5.1-3.6-51.1-1.8-54.8
	C175.1,108,195.3,98.2,206.5,94.6z"/>
<path class="st11" d="M110.5,112.4c0,0-0.1,22.9,1.3,39.7c0.5,6.5,7,12.5,8,12.7c2.4,2.1,57.9,2.5,61,0.2c-4-3.3-6.3-8.3-6.4-13.5
	c-0.3-11.1-1.6-27.8-2-41.2C170.4,109.3,120.2,110.6,110.5,112.4z"/>
<path class="st20" d="M163.9,84.7l0.9,16.9l-14.8,0.9c-2.5,0.1-4.7-3.5-4.9-8.2s1.6-8.5,4-8.7c0.9,0,1.7,0.3,2.3,1L163.9,84.7z"/>
<path class="st21" d="M98.3,85.2c0,0,5.8,3.6,15.5,4.3c4.3,0.3,9.9-0.5,15.3-1.4c17.5-3.2,24.9-12.8,24.9-12.8s-1.8-12.1-2.2-16.2
	s-6.5-11.6-6.5-11.6L98.3,85.2z"/>
<path class="st21" d="M210.9,79.9c0,0-3.1,6.2-14.4,6.3s-28-3.4-28-3.4l-11-13.2L210.9,79.9z"/>
<path class="st11" d="M147.5,50.2l5.8-0.6l0.9,18.9l-5.6,0.3C148.4,68.8,148.7,56.5,147.5,50.2z"/>
<polygon class="st22" points="148.4,68.8 152.4,73.6 156.4,73.4 154.1,68.5 "/>
<polygon class="st23" points="144.1,69 159.4,68.2 159.9,95.4 145.3,95.8 "/>
<path class="st24" d="M148.4,68.6l-0.2,3.3c0,0.2-0.1,0.3-0.2,0.4l-3.8,3.1c-0.2,0.2-0.6,0.2-0.8-0.1c0,0,0,0,0,0
	c-0.1-0.1-0.1-0.2-0.1-0.2l-0.2-0.9c0-0.2,0-0.3,0.1-0.5l4.2-5.5c0.2-0.2,0.6-0.2,0.8,0C148.4,68.3,148.5,68.5,148.4,68.6z"/>
<polygon class="st25" points="168.6,82.8 167.5,89 159.9,95.4 159.4,68.2 "/>
<path class="st21" d="M154.3,69c0,0,0.4,3.1,1.1,3.6c3.4,1.5,6.9,2.8,10.5,3.8c1,0.1,0.7-2.2,0.7-2.2L154.3,69z"/>
<path class="st26" d="M154.3,69c0,0,0.5,3.8,1.4,3.7c1,0.4,8.8,3.3,8.8,3.3"/>
<path class="st27" d="M203.9,80.7c-6.7,0-17.6-1.7-29-4.6c-11.7-3-18.2-5.6-19.1-6.7c-0.9-3.3-1.5-14-1-20.6c0.1-1,0.8-1.8,1.8-1.9
	c7.1-0.8,14.2-1.3,21.4-1.2c9.5,0,19.1,0.6,28.5,1.9c0.8,0.1,1.4,0.7,1.6,1.4c3.6,10.5,2.5,24.2,1.8,29.6c-0.1,0.9-0.7,1.6-1.6,1.7
	C206.8,80.6,205.3,80.7,203.9,80.7z"/>
<path class="st28" d="M209.5,48.5c-0.4-1.3-1.5-2.2-2.8-2.4c-7.7-1-15.4-1.6-23.2-1.8c-0.3,0-0.7,0-1,0c-0.3,0-0.7,0-1,0h0
	c-1.2,0-2.3,0-3.5,0l0,0c-2.1,0-4.2,0-6.4,0.1c-5.1,0.2-10.1,0.5-15.2,1.1c-1.6,0.2-2.9,1.6-3,3.2c0,0.7-0.1,1.4-0.1,2.1V51
	c0,0.3,0,0.5,0,0.8c0,0.3,0,0.6,0,0.9c-0.1,5.1,0.2,11.2,0.8,14.9c0,0.3,0.1,0.6,0.1,0.8c0,0.1,0,0.2,0.1,0.3c0,0,0,0,0,0
	c0,0.1,0.1,0.2,0.1,0.3c0,0,0,0.1,0,0.1c0,0,0,0,0,0h0c0.1,0.3,0.1,0.5,0.2,0.7c0.1,0.2,0.3,0.5,0.6,0.8c0.8,0.6,2.3,1.4,4.4,2.2
	c0.4,0.1,0.8,0.3,1.2,0.5c0.8,0.3,1.6,0.6,2.5,0.9c0.5,0.2,1.1,0.4,1.7,0.5c0.2,0.1,0.5,0.2,0.7,0.2c0.2,0.1,0.5,0.2,0.7,0.2
	c0,0,0.1,0,0.1,0c2.9,0.9,6.2,1.8,9.6,2.6c1.5,0.4,3,0.7,4.5,1c3.3,0.7,6.6,1.4,9.8,1.9c0,0,0,0,0,0c0.2,0,0.5,0.1,0.7,0.1
	c0.2,0,0.5,0.1,0.8,0.1c4.4,0.7,8.6,1.1,11.9,1.1c1.6,0,3.1-0.1,4.7-0.4c0.6-0.1,1.1-0.4,1.5-0.8c0.7-0.5,1.1-1.3,1.2-2.2
	C212,73.5,213.2,59.4,209.5,48.5z M208.4,78.4c0,0.2-0.2,0.4-0.4,0.5c-0.5,0.1-1,0.1-1.5,0.2c-0.8,0.1-1.6,0.1-2.5,0.1
	c-3.1,0-7.1-0.4-11.6-1.1c-0.2,0-0.5-0.1-0.8-0.1c-0.2,0-0.5-0.1-0.7-0.1l0,0c-3.1-0.5-6.4-1.1-9.8-1.9c-1.5-0.3-3-0.7-4.5-1.1
	c-0.1,0-0.3-0.1-0.4-0.1c-3.6-0.9-6.8-1.8-9.4-2.6c-0.3-0.1-0.5-0.2-0.8-0.2c-0.3-0.1-0.5-0.2-0.8-0.2c-1.7-0.5-3.1-1-4.3-1.5
	c0,0-0.1,0-0.1,0c-0.5-0.2-0.9-0.3-1.2-0.5c-1.1-0.5-1.9-0.9-2.3-1.1c0-0.1,0-0.2,0-0.2c-0.5-2.6-1-8.3-1-13.8v-1c0-0.3,0-0.6,0-0.9
	v-0.1c0-1.3,0.1-2.6,0.1-3.8c0,0,0,0,0,0c0-0.3,0.2-0.5,0.5-0.5c5.7-0.7,11.4-1.1,17.2-1.2c1.3,0,2.6,0,3.9,0c2,0,4.1,0,6.1,0.1
	c0,0,0,0,0,0c0.3,0,0.6,0,0.9,0c0.3,0,0.6,0,1,0c6.8,0.2,13.6,0.8,20.3,1.7c0.2,0,0.4,0.2,0.5,0.4C210.1,59.6,209,73.1,208.4,78.4z"
	/>
<polygon class="st23" points="146.6,100 147.7,107.2 163.5,106.6 161.7,99.5 "/>
<polygon class="st25" points="168.7,95.5 173,100.8 163.5,106.6 161.7,99.5 "/>
<ellipse transform="matrix(0.9988 -4.993762e-02 4.993762e-02 0.9988 -4.466 8.3222)" class="st29" cx="164.3" cy="93.5" rx="4.5" ry="8.5"/>
<path class="st30" d="M148.3,68.3c0,0,0,3.7-0.3,4l-3.8,3.1"/>
<path class="st27" d="M102.3,84.7c-0.6,0-1.2,0-1.8-0.1c-0.8-0.1-1.5-0.7-1.7-1.5c-0.4-1.7-0.9-4.4-1.3-7.7
	c-0.8-6-1.4-14.6,0.4-21.9c0.2-0.7,0.7-1.3,1.4-1.5c9.5-2.2,19.2-3.5,28.9-3.9c2.9-0.1,5.9-0.2,8.9-0.2c1.9,0,3.9,0,5.8,0.1
	c0.9,0,1.7,0.7,1.9,1.6c1,6.5,1.5,17.4,0.9,20.6c-0.8,1.1-6.7,4.5-17.4,8.3S108.1,84.7,102.3,84.7z"/>
<path class="st28" d="M146.6,51.2c0-0.3-0.1-0.5-0.1-0.8c0-0.3-0.1-0.5-0.1-0.8v0c0-0.1,0-0.2-0.1-0.4c0-0.1-0.1-0.3-0.1-0.4
	c0-0.1,0-0.1-0.1-0.2c0,0,0,0,0,0c-0.5-1.3-1.7-2.2-3.2-2.3c-2,0-4-0.1-5.8-0.1h0c-3.2,0-6.1,0.1-9,0.2c-1.7,0.1-3.5,0.2-5.2,0.3
	c-0.5,0-1,0.1-1.6,0.1c-0.7,0.1-1.5,0.1-2.2,0.2c-0.1,0-0.2,0-0.3,0c-0.3,0-0.6,0.1-0.9,0.1c-2,0.2-4,0.5-6,0.7h0c0,0,0,0,0,0
	c-0.3,0-0.7,0.1-1.1,0.2h0c-0.3,0-0.6,0.1-0.9,0.1c-3.7,0.6-7.4,1.3-11.1,2.1c-1.3,0.3-2.3,1.3-2.6,2.6c-1.1,4.6-1.3,9.7-1.1,14.5
	c0,0.4,0,0.8,0,1.1c0,0.7,0.1,1.4,0.2,2.1c0.1,1.7,0.3,3.3,0.5,4.8c0.5,3.3,1,6.1,1.4,7.8c0.1,0.5,0.3,1,0.6,1.4
	c0.1,0.2,0.3,0.3,0.4,0.5c0,0,0.1,0.1,0.1,0.1c0.1,0.1,0.2,0.1,0.3,0.2c0.1,0.1,0.2,0.2,0.4,0.2c0,0,0,0,0,0c0.1,0,0.2,0.1,0.3,0.2
	h0c0.2,0.1,0.5,0.2,0.8,0.2c0.6,0.1,1.3,0.1,1.9,0.1c0.4,0,0.9,0,1.4,0c2.5-0.1,5.5-0.6,8.7-1.3c0.5-0.1,1-0.2,1.5-0.3
	c1.5-0.4,3.1-0.8,4.7-1.2c3.5-1,7-2.1,10.3-3.3c0.3-0.1,0.5-0.2,0.8-0.3c0.3-0.1,0.5-0.2,0.8-0.3c5.2-1.9,9.8-4,12.8-5.7
	c0.4-0.2,0.7-0.4,1-0.6c1.7-1,2.8-1.9,2.9-2.6c0.1-0.5,0.2-1.1,0.2-1.8c0-0.2,0-0.4,0-0.6C147.7,64,147.3,56.7,146.6,51.2z
	 M118.8,80.1c-1.6,0.5-3.2,0.9-4.7,1.2c-3.9,1-7.4,1.6-10.2,1.7c-0.3,0-0.5,0-0.8,0c-0.3,0-0.5,0-0.8,0h-0.1c-0.4,0-0.9,0-1.3-0.1
	c-0.1,0-0.2,0-0.3,0c-0.2,0-0.3-0.1-0.3-0.3c-0.3-1.6-0.8-4-1.2-6.9c0-0.2-0.1-0.4-0.1-0.7c-0.2-1.3-0.3-2.7-0.5-4.2
	c-0.1-0.7-0.1-1.4-0.2-2.1c0-0.4,0-0.7-0.1-1.1c-0.2-4.5,0-9.5,1-14c0-0.2,0.1-0.3,0.3-0.3c2.8-0.6,5.6-1.2,8.4-1.7
	c0.3-0.1,0.6-0.1,0.9-0.2c0.3-0.1,0.7-0.1,1-0.2h0c2.6-0.4,5.2-0.8,7.9-1.1c0.4,0,0.8-0.1,1.1-0.1c0.6-0.1,1.2-0.1,1.8-0.2
	c0.1,0,0.3,0,0.4,0c2.2-0.2,4.5-0.4,6.8-0.4c0.1,0,0.2,0,0.4,0c2.9-0.1,5.9-0.2,8.9-0.2l0,0h0.1c1.8,0,3.7,0,5.6,0.1h0.1
	c0.2,0,0.3,0.1,0.4,0.3c0.1,0.3,0.1,0.6,0.2,1v0c0,0.3,0.1,0.5,0.1,0.8c0,0.3,0.1,0.5,0.1,0.8c0.7,6,1,13.3,0.7,16.6
	c0,0.2,0,0.3-0.1,0.5c-0.1,0.1-0.1,0.1-0.2,0.2c-1.5,1.2-6.2,3.6-13.4,6.4c-0.3,0.1-0.5,0.2-0.8,0.3c-0.3,0.1-0.5,0.2-0.8,0.3
	c-0.6,0.2-1.3,0.5-2,0.7C124.3,78.4,121.5,79.3,118.8,80.1z"/>
<path class="st31" d="M173.1,72.1c-5.8,0-10.5-4.9-10.7-11.2s4.4-11.7,10.3-11.9h0.4c5.8,0,10.5,4.9,10.7,11.2c0.1,3-0.9,6-2.9,8.3
	c-1.9,2.2-4.5,3.5-7.4,3.6L173.1,72.1z"/>
<path class="st32" d="M174.3,47.7c-0.4-0.1-0.9-0.1-1.3-0.1v2.5c1.1,0,2.2,0.2,3.3,0.7c0.1,0,0.2,0.1,0.3,0.1c1.1,0.5,2.1,1.2,3,2.1
	c3.3,3.5,3.9,8.6,1.7,12.7c-0.3,0.7-0.8,1.3-1.3,1.9c-0.9,1.1-2.1,1.9-3.4,2.5c-1,0.4-2,0.7-3.1,0.7h-0.3c-2.5,0-4.8-1-6.5-2.8
	c-0.2-0.2-0.4-0.4-0.5-0.6c0,0,0,0,0,0c-0.5-0.7-1-1.4-1.4-2.1c-0.3-0.6-0.5-1.2-0.7-1.9c0,0,0,0,0,0v0c-0.2-0.8-0.3-1.6-0.4-2.4
	v-0.1c-0.1-3.1,1-5.9,2.9-7.9c1.6-1.7,3.7-2.7,6.1-2.8h0.3v-2.5h-0.4c-3.2,0.1-6.1,1.6-8.2,3.9c-1.4,1.6-2.5,3.7-3,5.9c0,0,0,0,0,0
	c-0.1,0.3-0.1,0.7-0.2,1c0,0.4-0.1,0.8-0.1,1.1c0,0.4,0,0.8,0,1.2c0.1,3.7,1.6,6.8,3.9,9.1c0.3,0.3,0.5,0.5,0.8,0.8
	c0.2,0.2,0.5,0.4,0.8,0.6c0,0,0.1,0.1,0.1,0.1c1.8,1.2,4,1.9,6.3,1.9h0.4c0.7,0,1.3-0.1,2-0.2c0.4-0.1,0.8-0.2,1.2-0.3
	c1.8-0.6,3.5-1.7,4.8-3.1c2.2-2.4,3.6-5.8,3.5-9.5C184.7,53.5,180.1,48.4,174.3,47.7z M172.9,47.6L172.9,47.6L172.9,47.6L172.9,47.6
	z"/>
<path class="st31" d="M128,74.4c-5.8,0-10.5-4.9-10.7-11.2c-0.1-3,0.9-6,2.9-8.3c1.8-2.2,4.5-3.5,7.4-3.6h0.3
	c5.8,0,10.5,4.9,10.7,11.2c0.1,3-0.9,6-2.9,8.3c-1.8,2.2-4.5,3.5-7.4,3.6H128z"/>
<path class="st32" d="M138.1,56.2c-0.1-0.2-0.2-0.5-0.4-0.7c-0.1-0.2-0.3-0.4-0.4-0.6l0,0c-0.1-0.2-0.3-0.4-0.4-0.5
	c-1.1-1.4-2.5-2.5-4.1-3.2c-1.5-0.7-3.1-1.1-4.8-1.1v2.5c0.7,0,1.3,0.1,2,0.2c0.5,0.1,1,0.3,1.5,0.5c1.1,0.5,2.1,1.2,3,2.1
	c0.2,0.2,0.3,0.4,0.5,0.5c0.2,0.3,0.4,0.5,0.6,0.8c0,0,0,0,0,0c0.1,0.2,0.3,0.4,0.4,0.7c0.1,0.2,0.3,0.5,0.4,0.7
	c1.8,3.8,1.4,8.5-1.5,11.9c-1,1.2-2.3,2.1-3.8,2.6c-0.3,0.1-0.5,0.2-0.8,0.2c-0.2,0.1-0.5,0.1-0.8,0.2c-0.4,0.1-0.8,0.1-1.1,0.1H128
	c-2.5,0-4.8-1-6.5-2.8c-0.6-0.6-1.2-1.4-1.6-2.1c0-0.1-0.1-0.2-0.1-0.2c-0.2-0.4-0.4-0.9-0.6-1.3c-0.4-1.1-0.7-2.3-0.7-3.5
	c-0.2-5.7,3.9-10.5,9-10.6h0.3V50h-0.4c-2.4,0.1-4.6,0.9-6.4,2.3c-1.2,0.9-2.2,1.9-3,3.2c-0.5,0.8-1,1.7-1.3,2.6
	c-0.5,1.4-0.8,3-0.8,4.6c0,0.2,0,0.4,0,0.5c0.1,1.9,0.5,3.6,1.2,5.2c0.2,0.4,0.4,0.8,0.6,1.2c0.5,0.9,1.1,1.6,1.8,2.3
	c2.2,2.3,5.2,3.7,8.5,3.7h0.4c0.3,0,0.6,0,0.9-0.1c0.3,0,0.5-0.1,0.8-0.1c0.3,0,0.5-0.1,0.8-0.2c5.3-1.4,9.2-6.7,9-12.9
	C139.7,60.1,139.1,58,138.1,56.2z M130.2,72.9c-0.2,0.1-0.5,0.1-0.8,0.2l-0.1,1.3c0.3,0,0.5-0.1,0.8-0.1c0.3-0.1,0.5-0.1,0.8-0.2
	l0.1-1.4C130.7,72.7,130.5,72.8,130.2,72.9z M127.8,52.5v-1.2V52.5L127.8,52.5z"/>
<ellipse transform="matrix(0.9994 -3.350405e-02 3.350405e-02 0.9994 -3.0412 5.5687)" class="st33" cx="164.6" cy="93.5" rx="1.9" ry="4.2"/>
<path class="st34" d="M145.4,97.1c-6.6,1.2-34.9,15.3-34.9,15.3s0.2,37.4,1.3,39.7c0.6,2.7,0.7,6.1,7.1,12.1c2,1,2.9,3.6,43.8,2.4"
	/>
<path class="st34" d="M168.7,95.1c0,0,36.2-1.2,37.8-0.5c0,0,2.3,31,2,32.9"/>
<path class="st35" d="M159.5,124.2l-35.7,0.4c-1.5,0-2.6,1.2-2.6,2.7v0.2l1.4,21.2c0.1,1.4,1.3,2.5,2.7,2.5l35.8-0.4
	c1.5,0,2.6-1.2,2.6-2.7v-0.2l-1.4-21.2C162.1,125.3,160.9,124.2,159.5,124.2z"/>
<path class="st36" d="M160.1,125.2l-35.8,0.3c-1.1,0-2,1-2,2.1v0.1l1.4,21.3c0.1,1.1,1,1.9,2.1,1.9l35.8-0.2c1.1,0,2.1-0.9,2.1-2.1
	v-0.1l-1.4-21.3C162.1,126.1,161.2,125.2,160.1,125.2z"/>
<path class="st37" d="M137.4,136.2l22-0.4c0.7,0,1.3-0.6,1.3-1.4l0,0l-0.5-6.3c0-0.7-0.6-1.3-1.4-1.3l0,0l-22,0.4
	c-0.7,0-1.3,0.6-1.3,1.4l0,0l0.5,6.2C136.1,135.6,136.7,136.2,137.4,136.2L137.4,136.2z"/>
<ellipse transform="matrix(0.9991 -4.222441e-02 4.222441e-02 0.9991 -5.4116 6.6828)" class="st38" cx="155.5" cy="131.4" rx="2.6" ry="3.2"/>
<ellipse transform="matrix(0.9991 -4.222441e-02 4.222441e-02 0.9991 -5.4214 6.3547)" class="st39" cx="147.7" cy="131.5" rx="2.6" ry="3.2"/>
<ellipse transform="matrix(0.9991 -4.222441e-02 4.222441e-02 0.9991 -5.4409 6.0341)" class="st40" cx="140.1" cy="131.8" rx="2.6" ry="3.2"/>
<path class="st41" d="M142,141.5l17.3-0.2c0.8,0,1.4-0.7,1.3-1.4l0,0c0-0.8-0.7-1.4-1.4-1.3l-17.3,0.2c-0.8,0-1.4,0.7-1.3,1.4l0,0
	C140.6,140.9,141.2,141.5,142,141.5C142,141.5,142,141.5,142,141.5z"/>
<path class="st42" d="M152.2,149.7l7.7-0.1c0.8,0,1.4-0.7,1.3-1.4c0,0,0,0,0,0l0,0c0-0.8-0.7-1.3-1.4-1.3l-7.7,0.1
	c-0.8,0-1.4,0.7-1.3,1.4l0,0C150.8,149.1,151.5,149.7,152.2,149.7z"/>
<path class="st42" d="M152,145.8l7.7-0.1c0.8,0,1.4-0.7,1.3-1.4l0,0c0-0.8-0.7-1.3-1.4-1.3c0,0,0,0,0,0l-7.7,0.1
	c-0.8,0-1.4,0.7-1.3,1.4l0,0C150.6,145.2,151.2,145.8,152,145.8z"/>
<polygon class="st43" points="133.1,127.5 122.6,127.5 124,149.1 134.6,149 "/>
<radialGradient id="SVGID_1_" cx="-146.8877" cy="1561.5583" r="1.88" gradientTransform="matrix(-0.9579 6.379013e-02 6.379013e-02 0.9579 -118.6538 -1355.9449)" gradientUnits="userSpaceOnUse">
	<stop  offset="0.2" style="stop-color:#666666"/>
	<stop  offset="0.57" style="stop-color:#585858"/>
	<stop  offset="1" style="stop-color:#4D4D4D"/>
</radialGradient>
<path class="st44" d="M124.4,128.6c0.6,0,1.2,0.5,1.2,1.3c0,0.7-0.4,1.4-1.1,1.4c-0.6,0-1.2-0.5-1.2-1.3
	C123.3,129.3,123.8,128.7,124.4,128.6z"/>
<path class="st45" d="M124.4,128.6c-0.2,0.9-0.1,1.8,0.2,2.7"/>
<path class="st45" d="M125.6,129.9c-0.7,0.2-1.5,0.3-2.3,0.2"/>
<radialGradient id="SVGID_2_" cx="-154.4977" cy="1580.1584" r="1.88" gradientTransform="matrix(-0.9579 6.379013e-02 6.379013e-02 0.9579 -118.6516 -1355.9514)" gradientUnits="userSpaceOnUse">
	<stop  offset="0.2" style="stop-color:#666666"/>
	<stop  offset="0.57" style="stop-color:#585858"/>
	<stop  offset="1" style="stop-color:#4D4D4D"/>
</radialGradient>
<path class="st46" d="M132.8,145.9c0.6,0,1.2,0.5,1.2,1.3s-0.4,1.4-1.1,1.4s-1.2-0.5-1.2-1.3C131.7,146.6,132.2,145.9,132.8,145.9z"
	/>
<path class="st45" d="M132.9,145.9c-0.2,0.9-0.1,1.8,0.3,2.7"/>
<path class="st45" d="M134.1,147.1c-0.7,0.2-1.5,0.3-2.3,0.1"/>
<radialGradient id="SVGID_3_" cx="-146.6677" cy="1579.6984" r="1.88" gradientTransform="matrix(-0.9579 6.379013e-02 6.379013e-02 0.9579 -118.6584 -1355.9513)" gradientUnits="userSpaceOnUse">
	<stop  offset="0.2" style="stop-color:#666666"/>
	<stop  offset="0.57" style="stop-color:#585858"/>
	<stop  offset="1" style="stop-color:#4D4D4D"/>
</radialGradient>
<path class="st47" d="M125.3,145.9c0.6,0,1.2,0.5,1.2,1.3c0,0.7-0.4,1.4-1.1,1.4c-0.6,0-1.2-0.5-1.2-1.3
	C124.2,146.6,124.7,146,125.3,145.9z"/>
<path class="st45" d="M125.3,145.9c-0.2,0.9-0.1,1.8,0.2,2.6"/>
<path class="st45" d="M126.6,147.2c-0.7,0.2-1.5,0.3-2.3,0.2"/>
<radialGradient id="SVGID_4_" cx="-153.6977" cy="1561.8784" r="1.88" gradientTransform="matrix(-0.9579 6.379013e-02 6.379013e-02 0.9579 -118.6531 -1355.9546)" gradientUnits="userSpaceOnUse">
	<stop  offset="0.2" style="stop-color:#666666"/>
	<stop  offset="0.57" style="stop-color:#585858"/>
	<stop  offset="1" style="stop-color:#4D4D4D"/>
</radialGradient>
<path class="st48" d="M130.9,128.5c0.6,0,1.2,0.5,1.2,1.3c0,0.7-0.4,1.4-1.1,1.4s-1.2-0.5-1.2-1.3
	C129.8,129.2,130.3,128.5,130.9,128.5z"/>
<path class="st45" d="M130.9,128.5c-0.2,0.9-0.1,1.8,0.2,2.7"/>
<path class="st45" d="M132.2,129.7c-0.7,0.2-1.5,0.3-2.3,0.1"/>
<path class="st49" d="M160.7,139.8c-1.9-0.4-3.9-0.3-5.8,0.4c-2.7,1.1-3-1.4-4.3-1.2s-1.5,2-3.2,2s-1.2-0.8-2.1-0.7
	s-0.8,0.9-1.6,0.9s-1.3-2.5-1.8-2.4"/>
<path class="st8" d="M160.3,175.3c0.1-1,0.3-2.1,0.6-3.1c1.2-4.2,5-16.9,8.4-24.5c2-4.5,3.2-7.6,4.3-9.9c1.2-2.7,3-5,5.3-6.9
	c4.5-4.2,10.7-5.9,16.7-4.7c9.2,1.2,14.1,1.3,15.9,1.8c1.8,1.2,9.4,9.1,10,15.8c0.4,4.9,0.1,11.5-3.2,16.7s-16.8,30.4-22.8,31
	c-7,0.7-25.1-0.1-30.4-3.9C160.3,184.5,159.8,180.2,160.3,175.3z"/>
<path class="st9" d="M192.2,191c-2.1,0.1-4.2-0.5-5.9-1.7c-4.3-3.1-4.8-6.9-4.3-11.6c0.1-1,0.3-2,0.6-2.9c1.1-3.8,4.9-16.7,8.3-24.4
	c1.1-2.5,2-4.6,2.7-6.3c0.6-1.4,1.1-2.6,1.6-3.6c1.2-2.5,2.9-4.7,5-6.5c1.7-1.5,3.6-2.7,5.6-3.5c2.1-0.8,4.3-1.3,6.6-1.3
	c1.2,0,2.5,0.1,3.7,0.4c4.5,1,8.8,2.8,12.5,5.5l0.4,0.3l0.2,0.1c5.7,3.7,8.7,7.7,9,11.6c0.4,4.5,0.2,11-3.1,16.1
	c-3.4,5.4-25.9,23.4-31.2,25.1l-1.2,0.4C199.4,189.8,195.6,191,192.2,191z"/>
<path d="M239.3,147.2c-0.6-6.8-7.9-11.4-9.7-12.5c-3.4-2.5-7.3-4.4-11.4-5.5c-0.6-0.2-1.3-0.3-1.9-0.5c-1.3-0.3-2.6-0.4-3.9-0.4l0,0
	v1.9c0.5,0,0.9,0,1.4,0.1c0.7,0,1.4,0.1,2,0.3c4.4,0.9,8.5,2.8,12.2,5.4l0.5,0.3l0.2,0.1c1.8,1.2,3.5,2.5,5,4c2,1.8,3.2,4.2,3.6,6.9
	c0.4,4.4,0.2,10.6-2.9,15.5c-1.4,2.2-7.4,7.8-14.5,13.6c-7.3,5.9-13.8,10.4-16.1,11.1l-1.2,0.4c-0.8,0.2-1.6,0.5-2.5,0.8h0
	c-2.6,0.8-5.2,1.4-7.7,1.4c-4,0.2-7.6-2.4-8.9-6.2c-0.5-2-0.6-4-0.3-6c0.1-0.9,0.3-1.8,0.5-2.7c0.7-2.4,2.4-8.3,4.5-14.3
	c1.2-3.6,2.5-7.1,3.8-10c0.4-0.9,0.8-1.8,1.1-2.6c0.6-1.4,1.1-2.6,1.6-3.7c0.6-1.4,1.1-2.6,1.5-3.6c0.6-1.2,1.3-2.4,2.1-3.5
	c0.8-1,1.6-1.9,2.6-2.6c1.6-1.4,3.4-2.6,5.3-3.4c0.8-0.3,1.6-0.6,2.4-0.7c1.3-0.3,2.6-0.5,3.9-0.5v-0.1h-0.1v-1.9
	c-0.2,0-0.5,0-0.7,0c-1.1,0-2.1,0.2-3.2,0.4c-1.1,0.2-2.1,0.5-3.1,0.9c-2.1,0.9-4.1,2.1-5.8,3.6c0,0,0,0-0.1,0
	c-0.3,0.3-0.7,0.6-1,0.9c-0.4,0.4-0.8,0.8-1.1,1.2c0,0,0,0,0,0c-1.3,1.4-2.3,3.1-3.2,4.8c-1,2.3-2.3,5.4-4.3,9.9l0,0c0,0,0,0,0,0
	c-0.4,0.9-0.8,1.8-1.2,2.8c-0.3,0.7-0.6,1.5-0.9,2.2c-0.8,2.2-1.6,4.5-2.4,6.8c-1.8,5.3-3.3,10.4-3.9,12.7c-0.3,1-0.5,2-0.6,3.1
	c-0.5,4.8,0,9.2,4.7,12.6c0.1,0.1,0.2,0.1,0.3,0.2c1.2,0.8,2.6,1.3,4,1.5c0.7,0.1,1.4,0.2,2.2,0.1c2.9,0,6-0.8,8.9-1.7
	c1.1-0.3,2.2-0.7,3.2-1c5.8-1.8,28.4-20.2,31.8-25.5S239.7,152.1,239.3,147.2z M212.4,128.3L212.4,128.3L212.4,128.3L212.4,128.3
	L212.4,128.3z"/>
<ellipse transform="matrix(0.9998 -1.867394e-02 1.867394e-02 0.9998 -2.7889 4.1843)" class="st10" cx="222.7" cy="151.4" rx="10.8" ry="13.6"/>
<ellipse transform="matrix(0.9998 -1.867394e-02 1.867394e-02 0.9998 -3.1563 3.9367)" class="st10" cx="209.2" cy="171" rx="7.8" ry="9.7"/>
<ellipse transform="matrix(0.9998 -1.867394e-02 1.867394e-02 0.9998 -3.3069 3.652)" class="st10" cx="193.9" cy="178.9" rx="6.1" ry="7.6"/>
<ellipse transform="matrix(0.9998 -1.867394e-02 1.867394e-02 0.9998 -2.7885 4.1972)" class="st11" cx="223.3" cy="151.4" rx="3.7" ry="5.1"/>
<ellipse transform="matrix(0.9658 -0.2593 0.2593 0.9658 -37.2637 60.2091)" class="st11" cx="209.6" cy="171.3" rx="3.2" ry="4.4"/>
<ellipse transform="matrix(0.9658 -0.2593 0.2593 0.9658 -39.8925 56.4264)" class="st11" cx="193.9" cy="179.4" rx="2.4" ry="3.2"/>
<path class="st12" d="M189.4,168.7c0,0,1.6-3.5,7-2c0.9-2.3,2.7-8.4,12.1-8c-0.5-2.1-4.5-10.9,2.2-20.1c-2.8-1.1-4.5-1.9-7.9,2.5
	S189,167.7,189.4,168.7z"/>
<line class="st13" x1="173.6" y1="137.8" x2="194.8" y2="139.1"/>
<line class="st13" x1="185.4" y1="127.1" x2="208.9" y2="128.6"/>
<polyline class="st13" points="212.2,128.8 218.5,129.2 218.5,129.2 "/>
<line class="st13" x1="168" y1="150.9" x2="189" y2="152.2"/>
<line class="st13" x1="163.5" y1="163.9" x2="184.4" y2="165.2"/>
<line class="st13" x1="160.2" y1="177.3" x2="180.9" y2="178.6"/>
<ellipse transform="matrix(0.9739 -0.2272 0.2272 0.9739 -21.5149 30.758)" class="st50" cx="122.9" cy="108.9" rx="3.6" ry="1.1"/>
<path class="st51" d="M90.6,97.6c0.9-0.5,2-0.2,2.6,0.7c1,1.5-1.2,6.6-1.2,6.6l-2.4,0.7L90.6,97.6z"/>
<path class="st52" d="M89.8,97.9c0.9-0.5,2-0.2,2.6,0.7c1,1.5-1.2,6.6-1.2,6.6l-2.4,0.7L89.8,97.9z"/>
<path class="st53" d="M85.4,157.5l-3.5-0.1c-1.1,0-2-1-2-2.1c0,0,0,0,0,0l0,0l4.5-86.7c0-1.1,1-2,2.1-1.9c0,0,0.1,0,0.1,0
	c0.2,0,0.3,0,0.5,0.1l3.6,1.1c0.9,0.2,1.6,1.1,1.5,2.1l-4.7,85.7C87.4,156.8,86.5,157.6,85.4,157.5z"/>
<path class="st54" d="M85.3,157.5h-1.1c-0.5,0-0.9-0.5-0.9-1l0,0l4.6-88.2c0-0.5,0.5-0.9,1-0.9c0.1,0,0.2,0,0.2,0l1.2,0.4
	c0.4,0.1,0.7,0.5,0.7,1l-4.8,87.8C86.2,157.1,85.8,157.5,85.3,157.5z"/>
<path class="st51" d="M79.3,122c2.4,1.3,13,5.5,13.9,3c0.7-0.7,1.2-5.1,0-7c-0.6-0.9-11.4-1.9-14.4-0.6
	C77.6,118.6,77.7,121.3,79.3,122z"/>
<path class="st52" d="M76.8,121.8c2.5,1.3,13,5.5,13.9,3.1c0.7-0.7,1.2-5.1,0-7c-0.6-0.9-11.4-1.9-14.4-0.6
	C75.1,118.4,75.2,121.2,76.8,121.8z"/>
<path class="st51" d="M78.3,116.8c2.4,1.3,12.9,4.1,13.8,1.7c0.7-0.7,1.2-5.1,0-7c-0.6-0.9-11.4-1.9-14.4-0.6
	C76.6,112,76.7,116.8,78.3,116.8z"/>
<path class="st52" d="M76,116.8c2.4,1.3,12.9,4.1,13.8,1.7c0.7-0.7,1.2-5.1,0-7c-0.6-0.9-11.4-1.9-14.4-0.6
	C74.2,112,74.4,116.8,76,116.8z"/>
<path class="st51" d="M81.2,110.4c2.4,1.3,9.7,3.7,10.6,1.3c0.7-0.7,1.2-5.1,0-7c-0.6-0.9-7.7,0.2-10.8,1.5
	C79.8,107.3,79.5,110.3,81.2,110.4z"/>
<path class="st52" d="M78.9,110.4c2.5,1.3,9.7,3.7,10.6,1.3c0.7-0.7,1.2-5.1,0-7c-0.6-0.9-7.7,0.2-10.8,1.5
	C77.5,107.3,77.2,110.3,78.9,110.4z"/>
<path class="st51" d="M151.3,119.6c0,0-5.3,0.1-6.5,1.1s0.4,4.9,1.9,5.2s5.2-2.4,6.6-4S151.3,119.6,151.3,119.6z"/>
<path class="st55" d="M152.1,120.5c0,0-5.3,0.1-6.5,1.1s0.4,4.9,1.9,5.2s5.2-2.4,6.6-4S152.1,120.5,152.1,120.5z"/>
<path class="st56" d="M200.2,115.2c-0.1,0.2-0.1,0.5-0.3,0.7l-31,7.3c-1.9,0.6-7,0.6-11.4,0.1c-1.6-0.2-3.3-0.6-4.8-1.1
	c-0.3-0.1-0.5-0.4-0.5-0.7c-0.1-1.4-0.3-5.1,0.2-6.5c1.7,0,47.8-6.6,47.8-6.6S200.8,113.1,200.2,115.2z"/>
<path class="st57" d="M200.2,115.2c0.1,0.2,0.1,0.5-0.1,0.6c0,0,0,0,0,0c0,0-0.1,0.1-0.1,0.1"/>
<path class="st57" d="M157.7,116.5c-4.4-0.5-6.5-1.3-4.6-1.9l36.5-6.9h0.1c2.5-0.3,5-0.4,7.5-0.3h0.1c1.1,0.1,2.1,0.4,3,0.9
	c0.2,0.1,0.3,0.4,0.1,0.6c-0.1,0.1-0.2,0.2-0.3,0.2l-31,7.3C167.2,116.9,162.1,117,157.7,116.5"/>
<path class="st55" d="M152.1,113.5c0.4,1.7,1.1,3.3,1.9,4.8l0.7,0.1"/>
<path class="st55" d="M163.1,118.9c-0.1,0.1-0.1,0.2-0.2,0.2L163.1,118.9z"/>
<path class="st51" d="M157.6,118.1c-0.1,0.5-0.2,0.5-0.3,0.5s-1.6,1.6-1.6,1.6l-1-1.8l0,0l-2.6-4.9l-3.1-5.8l1.4-1.4l0.4-0.4
	c0.7-0.7,1.7-1.1,2.8-1l0,0c1,0,2,0.4,2.7,1.1C158,107.8,158.1,115.9,157.6,118.1z"/>
<path class="st55" d="M152,106.5c-1.4,0-2.5,0.4-2.9,1.2c-0.3,0.6,1.5,9.2,3.4,12.1c1,0.2,2,0.3,3.1,0.3h0.2c0,0,0.1,0,0.3-0.5
	c0.6-2.2,0.4-10.2-1.3-12C154,106.9,153.1,106.5,152,106.5L152,106.5"/>
<path class="st51" d="M163,119.2l-0.3,0.2l-2,1.6l-0.1-1.8c-0.6-0.2-1.1-0.5-1.1-0.7c-0.8-2.4-0.2-8.8,0.3-12.2l-1.5-0.6l2-1.6
	c0.9-0.6,2.1-0.8,3.1-0.5l0,0c1,0.2,1.8,0.9,2.3,1.7C167.1,107.6,164.2,117.3,163,119.2z"/>
<path class="st51" d="M168.6,120.4l-1.6,1l0.7-1c-0.9-0.3-1.8-0.6-2.6-1.1c0.4-2.3,2.3-5.8,3.6-7.9l-0.7-0.5l1.9-1.1l0,0l0,0
	c0.8-0.3,1.9,0.1,3,1l0,0c0.8,0.7,1.2,1.6,1.2,2.7C174.2,115.8,170.4,119.2,168.6,120.4z"/>
<path class="st55" d="M170.9,111.8c-1.1-1-2.2-1.4-3-1.1c-0.6,0.3-4.4,6.2-4.9,9.6c0.2,0.3,3.1,1.5,3.5,1.2c1.9-1.2,5.6-4.6,5.6-7.1
	C172.1,113.4,171.7,112.5,170.9,111.8L170.9,111.8"/>
<path class="st55" d="M161.5,105.3c-1.4-0.3-2.6-0.2-3.1,0.5c-0.4,0.5-2,11.1-0.8,14.3c0.1,0.6,3,1.5,3.5,0.7
	c1.2-1.9,4-11.6,2.8-13.8C163.3,106.2,162.5,105.5,161.5,105.3L161.5,105.3"/>
<line class="st58" x1="147.5" y1="50.2" x2="153.2" y2="49.6"/>
<path class="st59" d="M128.2,46.5l-0.9,11.1c-0.1,1.5-0.8,2.9-2,3.8L109.4,75c-1.1,1-2.6,1.4-4.1,1.3L96,75.5
	c-0.9-6.5-1.4-15.1,0.4-22.5c0.3-1.3,1.3-2.3,2.6-2.6C108.6,48.2,118.4,46.9,128.2,46.5z"/>
<path class="st60" d="M104,9.6L83.2,7.9c-1.5-0.1-3,0.4-4.1,1.3L63.2,22.8c-1.2,1-1.9,2.3-2,3.8l-1.7,20.8c-0.1,1.5,0.4,3,1.3,4.1
	l13.5,15.9c1,1.1,2.3,1.9,3.8,2L99,71c1.5,0.1,2.9-0.4,4.1-1.3L119,56.2c1.1-1,1.9-2.3,2-3.8l1.7-20.8c0.1-1.5-0.4-3-1.3-4.1
	l-13.5-15.9C106.9,10.4,105.5,9.7,104,9.6z"/>
<path class="st3" d="M105.8,63.1l-0.9,0.8l-0.9,0.8l-2.4,2c-0.9,0.8-2.1,1.2-3.3,1.1h0l-1.5-0.1l-1.6-0.1l0,0l-8.1-0.7l2,0.6
	l1.4,0.4c0,0,0,0,0,0c0.2,0.1,0.3,0.2,0.4,0.4l0.5,0l3.9,0.3h0l1.6,0.1l1.4,0.1h0.5c1.3,0,2.7-0.5,3.7-1.3l1.5-1.2l0.8-0.7l0.9-0.7
	l0,0c0-0.5,0.1-0.9,0.2-1.3C105.8,63.4,105.8,63.3,105.8,63.1L105.8,63.1z M119.1,28.1l-12.4-14.5c-0.8-1-2-1.7-3.3-1.9
	c-0.2,0-0.4,0-0.6-0.1l-19-1.5c-1.5-0.1-3,0.4-4.1,1.3l-0.3,0.3L65.3,23.8c-1.2,1-1.9,2.4-2,3.9l-1.5,19c-0.1,1.5,0.4,3,1.3,4.1
	l12.4,14.5c1,1.2,2.4,1.9,3.9,2l5.4,0.4L88,68l2.9,0.2l0.5,0l3.9,0.3h0l1.6,0.1l1.4,0.1h0.5c1.3,0,2.7-0.5,3.7-1.3l1.5-1.2l0.8-0.7
	l0.9-0.7l0,0l11.3-9.7c1.2-1,1.9-2.4,2-3.9l0.1-1l0.1-1.6l0.1-1.6v0l0.6-7.2v0l0.1-1.1l0.1-0.9l0.5-5.6
	C120.6,30.8,120.1,29.3,119.1,28.1z M118.7,40.9l-0.5,6.4l-0.1,1.6l-0.1,1.6l-0.1,0.8c-0.1,1.2-0.7,2.3-1.6,3.1l-10.4,8.8l0,0
	l-0.9,0.8l-0.9,0.8l-2.4,2c-0.9,0.8-2.1,1.2-3.3,1.1h0l-1.5-0.1l-1.6-0.1l0,0l-8.1-0.7l-1-0.1l-6.8-0.6c-1.2-0.1-2.3-0.7-3.1-1.6
	L63.9,50.1c-0.8-0.9-1.2-2.1-1.1-3.3l1.5-19c0.1-1.2,0.7-2.3,1.6-3.1l14.4-12.4c0.3-0.2,0.6-0.4,0.9-0.6c0.7-0.3,1.4-0.5,2.1-0.5
	l0.4,0l6.2,0.5l12.8,1c1.2,0.1,2.3,0.7,3.1,1.6l12.3,14.6c0.8,0.9,1.2,2.1,1.1,3.3l-0.5,6.5l-0.1,1L118.7,40.9L118.7,40.9z"/>
<path class="st61" d="M122.5,60.8h7.3c1,0,1.8,0.8,1.8,1.8l0,0c0,1-0.8,1.8-1.8,1.8h-7.3c-1,0-1.8-0.8-1.8-1.8l0,0
	C120.7,61.6,121.5,60.8,122.5,60.8z"/>
<path class="st61" d="M167.9,59h7.3c1,0,1.8,0.8,1.8,1.8v0c0,1-0.8,1.8-1.8,1.8h-7.3c-1,0-1.8-0.8-1.8-1.8v0
	C166.1,59.8,166.9,59,167.9,59z"/>
<path class="st3" d="M67.3,39.8c0.3,0.2,0.6,0.3,0.9,0.4c0.4,0.1,0.7,0.2,1.1,0.3s0.7,0.2,1.1,0.2l0.8,0.1c0.2,0,0.5,0,0.7-0.1
	c0.1-0.1,0.1-0.2,0.2-0.3c0-0.1,0-0.3-0.1-0.4c-0.1-0.1-0.2-0.2-0.3-0.2c-0.3-0.1-0.5-0.2-0.8-0.2c-0.3,0-0.7-0.1-1.1-0.2
	c-0.4-0.1-0.8-0.2-1.2-0.4c-0.9-0.4-1.5-1.1-1.7-2c-0.2-0.6-0.2-1.3-0.2-1.9c0.1-0.6,0.2-1.2,0.4-1.7c0.2-0.5,0.6-1,1-1.3
	c0.5-0.4,1.1-0.6,1.7-0.8c0.8-0.2,1.6-0.2,2.5-0.1c0.5,0,1.1,0.1,1.6,0.2c0.5,0.1,1,0.2,1.4,0.4c0.4,0.1,0.8,0.2,1.2,0.4
	c0.3,0.1,0.5,0.2,0.8,0.4l-1.6,3.3c-0.3-0.1-0.6-0.3-0.9-0.3c-0.3-0.1-0.7-0.2-1.1-0.3c-0.4-0.1-0.7-0.1-1.1-0.2c-0.3,0-0.6,0-0.9,0
	c-0.2,0-0.3,0-0.5,0.1c-0.1,0.1-0.1,0.2-0.1,0.3c0,0.1,0,0.2,0.1,0.3c0.1,0.1,0.2,0.1,0.3,0.2c0.3,0.1,0.6,0.1,0.8,0.2
	c0.3,0.1,0.7,0.1,1.1,0.2c0.4,0.1,0.8,0.2,1.2,0.4c0.4,0.2,0.8,0.4,1.1,0.8c0.3,0.4,0.6,0.8,0.7,1.2c0.2,0.6,0.2,1.2,0.2,1.9
	c0,0.6-0.2,1.2-0.4,1.7c-0.2,0.5-0.6,1-1,1.3c-0.5,0.4-1.1,0.6-1.7,0.8c-0.8,0.2-1.6,0.2-2.5,0.1c-0.6,0-1.2-0.1-1.8-0.2
	c-0.6-0.1-1.1-0.3-1.6-0.4c-0.4-0.1-0.9-0.3-1.3-0.5c-0.3-0.1-0.5-0.2-0.8-0.4L67.3,39.8z"/>
<path class="st3" d="M80.5,45.1l0.7-9.1l-3.1-0.2l0.3-3.8l10.5,0.8l-0.3,3.8l-3.1-0.2l-0.7,9.1L80.5,45.1z"/>
<path class="st3" d="M102.9,37.3c-0.2-0.8-0.6-1.6-1.1-2.2c-0.5-0.6-1.2-1.1-2-1.4c-0.9-0.3-1.9-0.5-2.9-0.6c-1-0.1-2,0-2.9,0.2
	c-0.8,0.2-1.6,0.5-2.2,1c-0.7,0.5-1.2,1.2-1.5,2c-0.7,1.9-0.9,4-0.5,6.1c0.2,0.8,0.6,1.5,1.1,2.2c0.6,0.6,1.2,1.1,2,1.3
	c0.9,0.3,1.9,0.5,2.9,0.6c1,0.1,2,0,2.9-0.2c0.8-0.2,1.6-0.5,2.2-1c0.7-0.5,1.2-1.2,1.5-2c0.4-1,0.6-2,0.7-3
	C103.2,39.3,103.1,38.3,102.9,37.3z M98.5,41.5c-0.1,0.3-0.3,0.6-0.5,0.8c-0.2,0.2-0.5,0.3-0.8,0.3c-0.4,0-0.7,0-1.1,0v0
	c-0.4,0-0.7-0.1-1.1-0.2c-0.3-0.1-0.5-0.2-0.7-0.4c-0.2-0.2-0.4-0.5-0.4-0.8c-0.1-0.5-0.1-1,0-1.4c0-0.5,0.1-1,0.3-1.4
	c0.1-0.3,0.3-0.6,0.5-0.8c0.2-0.2,0.5-0.3,0.8-0.3c0.7,0,1.4,0,2.1,0.2c0.3,0.1,0.5,0.2,0.8,0.4c0.2,0.2,0.4,0.5,0.4,0.8
	C98.9,39.5,98.8,40.5,98.5,41.5z"/>
<path class="st3" d="M115.7,36.8c-0.2-0.5-0.5-1-0.9-1.4c-0.4-0.3-0.9-0.5-1.5-0.6c-0.5-0.1-1.1-0.2-1.7-0.2l-6.3-0.5l-1,12.9
	l4.3,0.4l0.3-3.9l2,0.2c0.6,0,1.1,0,1.7,0c0.5,0,0.9-0.1,1.3-0.3c0.1,0,0.1-0.1,0.2-0.1c0.5-0.3,0.9-0.7,1.2-1.3c0,0,0-0.1,0-0.1
	c0.3-0.8,0.5-1.6,0.6-2.4C116,38.5,116,37.7,115.7,36.8z M111.7,39.1c0,0.2,0,0.3-0.1,0.5c0,0.1-0.1,0.2-0.2,0.3
	c-0.1,0-0.2,0.1-0.3,0.1h-0.4l-1.4-0.1l0.1-1.8l1.5,0.1h0.4c0.1,0,0.2,0.1,0.3,0.1c0.1,0.1,0.2,0.2,0.2,0.3
	C111.7,38.7,111.7,38.9,111.7,39.1z"/>
<path class="st62" d="M300.2,13.7v173c0,7.3-5.9,13.2-13.2,13.2H13.5c-7.3,0-13.2-5.9-13.2-13.2v-3c-0.1-0.7-0.2-1.4-0.2-2.1v-168
	c0-7.3,5.9-13.2,13.2-13.2h273.5c0.1,0,0.1,0,0.2,0v0c0,0,0,0,0,0C294.3,0.5,300.2,6.4,300.2,13.7z"/>
<g>
	<g>
		<g>
			<g>
				<path class="st63" d="M188.2,146.4L188.2,146.4c-0.2,0-0.2,0-0.3-0.1l-7-2.4l7.3,0.9c0.2,0,0.5,0,0.7,0.1l-0.1,1.5L188.2,146.4z
					"/>
				<path class="st64" d="M188.9,145.7L188.9,145.7l-0.6,0c0,0-0.1,0-0.1,0 M188.1,145.6C188.2,145.6,188.2,145.6,188.1,145.6
					c0.3,0,0.5,0,0.7,0.1h0h0 M188.2,145.6C188.2,145.6,188.3,145.6,188.2,145.6l0.6,0C188.6,145.7,188.4,145.7,188.2,145.6z
					 M189,144.2c-0.2,0-0.4,0-0.6,0l-0.2,0.7l-0.3,1.5l-0.2,0.7c0.1,0,0.2,0.1,0.3,0.1l0.1,0l0.1,0l0.6,0l0-0.8v0l0-0.8l0-0.8
					L189,144.2L189,144.2z"/>
			</g>
			<g>
				<path class="st65" d="M190.2,146.5c-0.5,0-0.9,0-1.4-0.1l0.1-1.5l1.1,0.1c0,0,0.3,0,0.4,0L190.2,146.5z"/>
				<path class="st64" d="M190.1,145.8c0,0,0.1,0,0.2,0C190.2,145.8,190.1,145.8,190.1,145.8c0,0-0.1,0-0.1,0l-1-0.1
					C189.3,145.7,189.7,145.8,190.1,145.8 M190.1,145.8c0,0-0.1,0-0.2,0l-1-0.1C189.3,145.7,189.7,145.8,190.1,145.8
					c0,0,0.1,0,0.1,0C190.2,145.8,190.1,145.8,190.1,145.8z M190.2,144.3L190.2,144.3l-0.2,0l-1-0.1h0l-0.2,2.3l-0.1,0.8
					c0,0,0.1,0,0.1,0c0.1,0,0.2,0,0.3,0c0.3,0,0.7,0.1,1.1,0.1l0.2-2.2l0.1-0.9C190.4,144.3,190.3,144.3,190.2,144.3z"/>
			</g>
			<g>
				<path class="st3" d="M201.5,97.3c0-0.2-0.1-0.4-0.1-0.5c0-0.1,0-0.2-0.1-0.3c-0.1-0.4-0.2-0.7-0.3-1.1c-0.1-0.3-0.2-0.6-0.3-0.9
					c0,0,0-0.1-0.1-0.1c-0.2-0.4-0.3-0.7-0.5-1.1c-0.1-0.2-0.3-0.5-0.4-0.7c-0.8-1.3-1.9-2.4-3.1-3.3c-0.7-0.5-1.5-0.9-2.2-1.2
					c-0.7-0.3-1.5-0.5-2.3-0.7c-0.4-0.1-0.8-0.1-1.2-0.2l0.1-1.2l0.2-1.9l0-0.1l0.3-3.1l0.1-1.5l0.1-1.5l0.2-1.8l0.3-3
					c0-0.5,0.1-0.9,0.1-1.4c0.1-2.6,0-5.2-0.4-7.7c-0.1-0.5-0.1-0.9-0.2-1.4c-0.1-0.4-0.2-0.9-0.3-1.3c-0.3-1.4-0.7-2.8-1.2-4.2
					c-0.2-0.5-0.4-1.1-0.6-1.6c-0.2-0.6-0.5-1.3-0.8-1.9c-0.8-1.7-1.7-3.4-2.8-5c-0.3-0.5-0.6-0.9-0.9-1.4c-0.4-0.5-0.7-1-1.1-1.5
					c-0.2-0.3-0.5-0.6-0.7-0.9c-0.1-0.2-0.3-0.3-0.4-0.5c0,0-0.1-0.1-0.1-0.2c-0.3-0.4-0.7-0.8-1.1-1.2c-0.3-0.3-0.5-0.5-0.8-0.8
					c-0.1-0.1-0.2-0.2-0.3-0.3c-0.1-0.1-0.2-0.2-0.3-0.3c-0.5-0.5-1-0.9-1.5-1.4c-0.5-0.5-1-0.9-1.6-1.3c-3.8-3-8.2-5.1-12.8-6.5
					c0,0,0,0,0,0c-0.5-0.1-1-0.3-1.5-0.4c-1.9-0.5-3.8-0.8-5.8-1c-0.5,0-1-0.1-1.5-0.1l-0.1,0l-1,0H154l-2,0l-6.7,0l-2,0
					c-0.3,0-0.5,0-0.8,0c-1.7,0-3.3,0.2-5,0.4c-0.2,0-0.4,0.1-0.6,0.1c-0.7,0.1-1.3,0.2-1.9,0.4c-0.2,0-0.4,0.1-0.6,0.1c0,0,0,0,0,0
					c0,0,0,0,0,0c-0.1,0-0.2,0-0.3,0.1c-2.4,0.6-4.7,1.4-7,2.4c-0.2,0.1-0.3,0.2-0.5,0.2c-0.5,0.3-1.1,0.5-1.6,0.8
					c-0.1,0-0.1,0.1-0.2,0.1c-0.4,0.2-0.7,0.4-1.1,0.6c-0.1,0-0.1,0.1-0.2,0.1c-0.1,0.1-0.3,0.2-0.4,0.2c-0.3,0.2-0.6,0.4-0.9,0.6
					c-0.2,0.1-0.4,0.3-0.7,0.5h0c-0.4,0.2-0.7,0.5-1.1,0.8c-0.1,0.1-0.3,0.2-0.4,0.3c-0.1,0-0.1,0.1-0.2,0.1
					c-0.1,0.1-0.2,0.1-0.3,0.2c-0.3,0.2-0.6,0.5-0.9,0.7c-0.3,0.3-0.6,0.5-0.9,0.8c-0.5,0.4-0.9,0.8-1.4,1.3
					c-0.2,0.1-0.3,0.3-0.5,0.5c0,0,0,0,0,0c-0.3,0.3-0.7,0.7-1,1c-0.3,0.4-0.7,0.7-1,1.1c-0.1,0-0.1,0.1-0.1,0.2
					c-0.2,0.2-0.4,0.4-0.6,0.7c-0.2,0.2-0.3,0.4-0.5,0.6c-0.2,0.2-0.4,0.5-0.6,0.8c-0.1,0.1-0.2,0.2-0.2,0.3
					c-0.1,0.2-0.2,0.3-0.3,0.5c-0.2,0.2-0.3,0.5-0.5,0.7c0,0-0.1,0.1-0.1,0.1h0c-0.1,0.2-0.2,0.4-0.4,0.6c0,0.1-0.1,0.1-0.1,0.2
					c0,0,0,0,0,0c-0.2,0.3-0.4,0.6-0.6,1c-0.3,0.5-0.6,0.9-0.8,1.4c0,0.1-0.1,0.2-0.2,0.3l0,0c-0.2,0.3-0.3,0.6-0.5,0.9
					c-0.1,0.1-0.1,0.3-0.2,0.4c-0.2,0.4-0.4,0.8-0.6,1.2c0,0.1-0.1,0.2-0.1,0.3c-0.1,0.2-0.1,0.3-0.2,0.5c0,0,0,0,0,0c0,0,0,0,0,0.1
					c0,0.1-0.1,0.2-0.1,0.3c0,0.1-0.1,0.2-0.1,0.3c-0.2,0.5-0.4,1.1-0.6,1.6c-0.1,0.4-0.3,0.8-0.4,1.2c-0.2,0.5-0.3,1.1-0.5,1.7
					c-0.1,0.4-0.2,0.9-0.3,1.3c-0.1,0.6-0.3,1.2-0.4,1.9c0,0.2-0.1,0.3-0.1,0.5c-0.1,0.4-0.1,0.9-0.2,1.3c0,0.1,0,0.2,0,0.4
					c0,0,0,0.1,0,0.2c0,0.2,0,0.4-0.1,0.6l-0.1,1l-0.1,0.7l0,0.4v0l0,0.4l-0.6,7.3l-0.4,5l-0.2,1.9l-0.1,1c-1.1,0.1-2,0.2-2.8,0.4
					c-0.7,0.2-1.3,0.4-1.8,0.8c0,0,0,0-0.1,0c-2.4,1.5-3,4.8-3.7,11.4l-0.5,9v0.1l-0.7,12.8v0l-0.1,2.5c-0.1,0.6-0.1,1.2-0.1,1.9
					c0,0.1,0,0.2,0,0.3c0,0.5,0,1,0,1.5v0.1c0,2.8,0.2,5.6,0.6,8.3c0,0,0,0,0,0c0.2,1.3,0.5,2.6,0.8,3.8c0,0.2,0.1,0.3,0.1,0.5
					c0.1,0.5,0.3,1,0.4,1.5c0,0,0,0.1,0,0.1c0,0.1,0.1,0.2,0.1,0.3c0.4,1.3,0.9,2.6,1.4,3.8c0,0,0,0.1,0.1,0.2
					c0.5,1.2,1.1,2.4,1.7,3.6c0.4,0.8,0.8,1.5,1.3,2.3c1.4,2.3,3,4.4,4.7,6.4c0.8,0.9,1.6,1.8,2.5,2.6c1.1,1.1,2.3,2.1,3.6,3.1
					c0.5,0.4,1.1,0.8,1.7,1.2l0,0c0.7,0.5,1.3,0.9,2,1.3c0.3,0.2,0.6,0.4,0.9,0.5c0.3,0.2,0.6,0.4,0.9,0.5c1.6,0.9,3.2,1.6,4.8,2.3
					c0.2,0.1,0.4,0.2,0.6,0.2c0.7,0.3,1.4,0.5,2,0.7c0,0,0,0,0.1,0c2.4,0.8,4.9,1.3,7.4,1.7c0.6,0.1,1.3,0.2,1.9,0.2
					c0.2,0,0.5,0,0.8,0.1l0.6,0l0.4,0c0.1,0,0.1,0,0.2,0l0.2,0c0,0,0.3,0,0.4,0c0,0,2.1,0.1,4.4,0.3c0.6,0,1.2,0.1,1.8,0.1
					c2.3,0.1,4.3,0.3,4.3,0.3l0.4,0l3.2,0.2l1.5,0.1l1,0.1h0.1c0.2,0,0.4,0,0.5,0c2.9-0.1,5.9-0.4,8.8-1.1c3.9-0.9,7.6-2.3,11.2-4.2
					c0.6-0.3,1.2-0.6,1.8-1c0.3-0.1,0.5-0.3,0.8-0.5c1.1-0.6,2.1-1.3,3.1-2h0c3.8-2.7,7.3-6,10.3-9.7c0.7-0.9,1.4-1.7,2-2.6
					c0.2-0.2,0.3-0.5,0.5-0.7c0,0,0,0,0,0c0.2-0.3,0.4-0.6,0.6-0.9c0.2-0.2,0.3-0.5,0.5-0.7c0.2-0.4,0.5-0.8,0.7-1.2
					c0.5-0.9,1-1.8,1.5-2.7c0-0.1,0.1-0.1,0.1-0.2c1.1-2.1,2.1-4.4,2.9-6.6c0.1-0.3,0.2-0.6,0.3-0.9c0.2-0.7,0.4-1.4,0.6-2
					c0.4-1.2,0.7-2.5,0.9-3.8c0,0,0,0,0,0c0.1-0.3,0.1-0.6,0.2-1c0,0,0-0.1,0-0.1c0-0.1,0.1-0.3,0.1-0.4c0.1-0.2,0.1-0.5,0.1-0.8
					c0-0.1,0-0.1,0-0.2c0-0.3,0.1-0.6,0.1-0.9c0-0.1,0-0.1,0-0.2c0-0.2,0.1-0.5,0.1-0.7c0.1-0.6,0.1-1.3,0.2-1.9l0-0.4l0.1-1l0-0.2
					l0-0.2l0-0.3l0.1-1.1l0-0.8V120l0-0.8l0.1-1.5l0.1-1.6l0.1-1.5l0-0.5l0-0.2l0.1-2.1l0-0.6l0-1l0-0.1l0-1l0-0.4l0-0.9l0.4-6.9
					C201.8,99.6,201.7,98.4,201.5,97.3z M129.6,79.7l0.1-1.6l0.2-1.7l0.1-0.9l0.1-1.3l0.1-1.3l0.2-2.7c0.1-0.8,0.2-1.7,0.4-2.5
					c0.5-2.3,1.3-4.5,2.4-6.5c0.8-1.4,1.7-2.6,2.7-3.8c0.3-0.3,0.6-0.6,0.9-1c0.3-0.3,0.6-0.6,0.9-0.9c1.7-1.6,3.7-2.9,5.8-3.9
					c0.2-0.1,0.4-0.2,0.7-0.3c0.3-0.1,0.6-0.2,0.8-0.3c0.5-0.2,0.9-0.3,1.4-0.5c0.3-0.1,0.5-0.2,0.8-0.2c0.1,0,0.1,0,0.2,0
					c0,0,0,0,0,0c0.2-0.1,0.4-0.1,0.6-0.2c0.1,0,0.2,0,0.2,0.1c1.4,0.3,2.7,0.8,4,1.4c0.3,0.1,0.6,0.3,0.8,0.4c0,0,0.1,0,0.1,0
					c0.1,0,0.2,0.1,0.4,0.2c0.3,0.2,0.7,0.3,1,0.5c0.1,0.1,0.2,0.1,0.3,0.2c0.2,0.1,0.4,0.3,0.6,0.4c0.1,0.1,0.2,0.1,0.3,0.2
					c0.1,0.1,0.2,0.1,0.3,0.2c1.6,1.1,3.1,2.5,4.4,4c0.2,0.3,0.5,0.6,0.7,0.9c0.4,0.6,0.8,1.1,1.2,1.7c0.6,1,1.1,2,1.6,3v0
					c0,0,0,0,0,0c0.3,0.6,0.5,1.3,0.7,1.9c0.3,1,0.6,2,0.8,3.1c0,0.1,0,0.3,0.1,0.4c0,0.3,0.1,0.6,0.1,0.9c0,0.4,0.1,0.8,0.1,1.1
					c0,0.1,0,0.2,0,0.2c0,0.1,0,0.2,0,0.3c0,0.2,0,0.4,0,0.5V72c0,0.5,0,1,0,1.6c0,0.1,0,0.2,0,0.3c0,0.2,0,0.3,0,0.4l0,0.6l0,0.2
					l-0.1,1.2l-0.1,1.5l-0.1,1.2l-0.1,0.7l-0.5,5.6l-0.1,0.7l-0.8,0l-1.7,0l-2.5-0.1l-2.1-0.1l-12.8-0.4l-3.7-0.1l-1.4,0l-10.5-0.3
					L129.6,79.7z"/>
				<path class="st3" d="M97.9,144.1c-0.8-1.8-1.5-3.6-2-5.4c0-0.1,0-0.1-0.1-0.2l0,0.1l-0.3,0.3l-0.2,0.4c0,0.1,0.1,0.2,0.1,0.3
					l-0.5,0.8c0.2,0.7,0.5,1.5,0.8,2.2c0.3,0.2,0.7,0.5,1.1,0.8c0,0,0,0.1,0.1,0.2c0.4,0.2,0.7,0.5,1.2,0.8
					C97.9,144.2,97.9,144.1,97.9,144.1z M166.6,71.4v-0.2l0-0.3c0-0.2,0-0.5,0-0.7c0-0.2,0-0.4-0.1-0.6c0,0,0-0.1,0-0.1
					c0-0.2,0-0.4-0.1-0.6c0,0,0-0.1,0-0.1c0-0.2-0.1-0.4-0.1-0.6c0-0.2-0.1-0.5-0.1-0.7c0,0,0-0.1,0-0.1c-0.3-1.6-0.8-3.1-1.5-4.5
					c-0.3-0.7-0.6-1.3-1-2c-0.3-0.6-0.7-1.3-1.2-1.9c-0.3-0.5-0.7-1-1.1-1.5c-0.1-0.1-0.2-0.2-0.3-0.3c-1-1.2-2.2-2.4-3.5-3.4
					c-0.5-0.4-1-0.7-1.5-1.1c-0.2-0.1-0.3-0.2-0.5-0.3c-0.2-0.1-0.4-0.3-0.7-0.4c-0.1-0.1-0.2-0.1-0.3-0.2c-0.3-0.2-0.6-0.3-0.9-0.5
					c-0.2-0.1-0.3-0.2-0.5-0.2l0,0c-0.3-0.1-0.5-0.2-0.8-0.4c-0.7-0.3-1.3-0.5-2-0.8c-0.8-0.2-1.5-0.5-2.3-0.6c0,0,0,0,0,0
					c-0.4,0.1-0.9,0.2-1.3,0.3c-0.1,0-0.3,0.1-0.4,0.1c-0.5,0.1-1,0.3-1.4,0.5c-0.3,0.1-0.7,0.3-1,0.4c-0.2,0.1-0.3,0.1-0.5,0.2
					c-2.3,1-4.3,2.4-6.2,4.1c-0.3,0.3-0.6,0.6-0.9,0.9c-0.3,0.3-0.6,0.6-0.9,0.9c-1.2,1.3-2.2,2.8-3,4.4c-0.3,0.5-0.6,1.1-0.8,1.7
					c-0.1,0.3-0.3,0.6-0.4,1c-0.5,1.3-0.9,2.6-1.2,3.9c-0.1,0.3-0.1,0.6-0.2,0.8c-0.1,0.5-0.2,1.1-0.2,1.6l-0.3,3l-0.1,1.3l-0.1,1.2
					l-0.1,1.1l-0.1,1.7l-0.1,1.6l-0.5,5.4v0l9.5,0.3l3.2,0.1l0.3,0l3.4,0.1l2.9,0.1l3.2,0.1l2.6,0.1l6.2,0.2l1.8,0.1l2.4,0.1
					l1.5,0.1v0l0.1-1l0.5-5.4l0-0.4l0.1-0.9l0.2-2.7l0.1-0.8l0.1-1c0-0.1,0-0.1,0-0.2c0-0.1,0-0.2,0-0.3c0-0.5,0.1-1,0.1-1.5
					C166.6,71.9,166.6,71.6,166.6,71.4z M165,73.3c0,0.1,0,0.1,0,0.2c0,0.2,0,0.5,0,0.7l0,0.5l0,0.2l-0.1,1.2l0,0.6l-0.1,1.4
					l-0.1,1.1l-0.5,5.9h-0.2l-2.2-0.1l-2-0.1l-15-0.5l-3.3-0.1h-0.1l-0.2,0L130,84l0.4-4.5l0.1-1.7l0.2-1.7l0.1-0.8l0.1-1.3l0.1-1.4
					l0.2-2.4c0.1-0.8,0.2-1.7,0.4-2.5c0.5-2.3,1.3-4.5,2.5-6.5c0.6-1.1,1.4-2.2,2.2-3.2c0.3-0.3,0.6-0.7,0.9-1
					c0.3-0.3,0.6-0.6,0.9-0.9c1.6-1.5,3.5-2.8,5.6-3.8c0.3-0.1,0.6-0.3,0.9-0.4c0.2-0.1,0.4-0.2,0.6-0.3c0.5-0.2,1-0.4,1.4-0.5
					c0.3-0.1,0.7-0.2,1-0.3c0,0,0.1,0,0.1,0c0.1,0,0.2-0.1,0.4-0.1c1.4,0.3,2.9,0.8,4.2,1.5c0.3,0.2,0.6,0.3,0.9,0.5
					c0.1,0,0.1,0,0.1,0.1c0.1,0,0.2,0.1,0.3,0.1c0.3,0.2,0.7,0.4,1,0.6c0.1,0,0.2,0.1,0.2,0.1c0.4,0.3,0.9,0.6,1.3,0.9
					c1.4,1,2.7,2.2,3.8,3.6c0.4,0.5,0.8,1,1.2,1.5c0.5,0.7,1,1.5,1.4,2.3c0.3,0.6,0.6,1.2,0.9,1.8c0.5,1.2,0.9,2.4,1.2,3.7
					c0.1,0.3,0.1,0.6,0.2,0.9c0.1,0.4,0.1,0.9,0.2,1.3c0,0.1,0,0.2,0,0.3c0,0.4,0.1,0.7,0.1,1.1c0,0,0,0,0,0c0,0.1,0,0.2,0,0.3
					c0,0.1,0,0.3,0,0.4C165.1,72.2,165.1,72.8,165,73.3z M195.7,89.7c-0.2-0.1-0.5-0.3-0.7-0.4s-0.5-0.3-0.7-0.4c0,0,0,0,0,0l0-0.8
					c-0.7-0.3-1.5-0.5-2.3-0.7c-0.4-0.1-0.8-0.1-1.2-0.2l0.1-1.2l0.2-1.9c-0.2,0.1-0.5,0.1-0.8,0.2l-0.2,1.6l-0.2,1.9V88
					c0.6,0,1.2,0.1,1.8,0.2c0.9,0.2,1.7,0.5,2.5,0.8C194.8,89.2,195.2,89.5,195.7,89.7C195.7,89.8,195.7,89.8,195.7,89.7
					C195.7,89.7,195.7,89.7,195.7,89.7z M166.6,71.4v-0.2l0-0.3c0-0.2,0-0.5,0-0.7c0-0.2,0-0.4-0.1-0.6c0,0,0-0.1,0-0.1
					c0-0.2,0-0.4-0.1-0.6c0,0,0-0.1,0-0.1c0-0.2-0.1-0.4-0.1-0.6c0-0.2-0.1-0.5-0.1-0.7c0,0,0-0.1,0-0.1c-0.3-1.6-0.8-3.1-1.5-4.5
					c-0.3-0.7-0.6-1.3-1-2c-0.3-0.6-0.7-1.3-1.2-1.9c-0.3-0.5-0.7-1-1.1-1.5c-0.1-0.1-0.2-0.2-0.3-0.3c-1-1.2-2.2-2.4-3.5-3.4
					c-0.5-0.4-1-0.7-1.5-1.1c-0.2-0.1-0.3-0.2-0.5-0.3c-0.2-0.1-0.4-0.3-0.7-0.4c-0.1-0.1-0.2-0.1-0.3-0.2c-0.3-0.2-0.6-0.3-0.9-0.5
					c-0.2-0.1-0.3-0.2-0.5-0.2l0,0c-0.3-0.1-0.5-0.2-0.8-0.4c-0.7-0.3-1.3-0.5-2-0.8c-0.8-0.2-1.5-0.5-2.3-0.6c0,0,0,0,0,0
					c-0.4,0.1-0.9,0.2-1.3,0.3c-0.1,0-0.3,0.1-0.4,0.1c-0.5,0.1-1,0.3-1.4,0.5c-0.3,0.1-0.7,0.3-1,0.4c-0.2,0.1-0.3,0.1-0.5,0.2
					c-2.3,1-4.3,2.4-6.2,4.1c-0.3,0.3-0.6,0.6-0.9,0.9c-0.3,0.3-0.6,0.6-0.9,0.9c-1.2,1.3-2.2,2.8-3,4.4c-0.3,0.5-0.6,1.1-0.8,1.7
					c-0.1,0.3-0.3,0.6-0.4,1c-0.5,1.3-0.9,2.6-1.2,3.9c-0.1,0.3-0.1,0.6-0.2,0.8c-0.1,0.5-0.2,1.1-0.2,1.6l-0.3,3l-0.1,1.3l-0.1,1.2
					l-0.1,1.1l-0.1,1.7l-0.1,1.6l-0.5,5.4v0l9.5,0.3l3.2,0.1l0.3,0l3.4,0.1l2.9,0.1l3.2,0.1l2.6,0.1l6.2,0.2l1.8,0.1l2.4,0.1
					l1.5,0.1v0l0.1-1l0.5-5.4l0-0.4l0.1-0.9l0.2-2.7l0.1-0.8l0.1-1c0-0.1,0-0.1,0-0.2c0-0.1,0-0.2,0-0.3c0-0.5,0.1-1,0.1-1.5
					C166.6,71.9,166.6,71.6,166.6,71.4z M165,73.3c0,0.1,0,0.1,0,0.2c0,0.2,0,0.5,0,0.7l0,0.5l0,0.2l-0.1,1.2l0,0.6l-0.1,1.4
					l-0.1,1.1l-0.5,5.9h-0.2l-2.2-0.1l-2-0.1l-15-0.5l-3.3-0.1h-0.1l-0.2,0L130,84l0.4-4.5l0.1-1.7l0.2-1.7l0.1-0.8l0.1-1.3l0.1-1.4
					l0.2-2.4c0.1-0.8,0.2-1.7,0.4-2.5c0.5-2.3,1.3-4.5,2.5-6.5c0.6-1.1,1.4-2.2,2.2-3.2c0.3-0.3,0.6-0.7,0.9-1
					c0.3-0.3,0.6-0.6,0.9-0.9c1.6-1.5,3.5-2.8,5.6-3.8c0.3-0.1,0.6-0.3,0.9-0.4c0.2-0.1,0.4-0.2,0.6-0.3c0.5-0.2,1-0.4,1.4-0.5
					c0.3-0.1,0.7-0.2,1-0.3c0,0,0.1,0,0.1,0c0.1,0,0.2-0.1,0.4-0.1c1.4,0.3,2.9,0.8,4.2,1.5c0.3,0.2,0.6,0.3,0.9,0.5
					c0.1,0,0.1,0,0.1,0.1c0.1,0,0.2,0.1,0.3,0.1c0.3,0.2,0.7,0.4,1,0.6c0.1,0,0.2,0.1,0.2,0.1c0.4,0.3,0.9,0.6,1.3,0.9
					c1.4,1,2.7,2.2,3.8,3.6c0.4,0.5,0.8,1,1.2,1.5c0.5,0.7,1,1.5,1.4,2.3c0.3,0.6,0.6,1.2,0.9,1.8c0.5,1.2,0.9,2.4,1.2,3.7
					c0.1,0.3,0.1,0.6,0.2,0.9c0.1,0.4,0.1,0.9,0.2,1.3c0,0.1,0,0.2,0,0.3c0,0.4,0.1,0.7,0.1,1.1c0,0,0,0,0,0c0,0.1,0,0.2,0,0.3
					c0,0.1,0,0.3,0,0.4C165.1,72.2,165.1,72.8,165,73.3z M166.6,71.4v-0.2l0-0.3c0-0.2,0-0.5,0-0.7c0-0.2,0-0.4-0.1-0.6
					c0,0,0-0.1,0-0.1c0-0.2,0-0.4-0.1-0.6c0,0,0-0.1,0-0.1c0-0.2-0.1-0.4-0.1-0.6c0-0.2-0.1-0.5-0.1-0.7c0,0,0-0.1,0-0.1
					c-0.3-1.6-0.8-3.1-1.5-4.5c-0.3-0.7-0.6-1.3-1-2c-0.3-0.6-0.7-1.3-1.2-1.9c-0.3-0.5-0.7-1-1.1-1.5c-0.1-0.1-0.2-0.2-0.3-0.3
					c-1-1.2-2.2-2.4-3.5-3.4c-0.5-0.4-1-0.7-1.5-1.1c-0.2-0.1-0.3-0.2-0.5-0.3c-0.2-0.1-0.4-0.3-0.7-0.4c-0.1-0.1-0.2-0.1-0.3-0.2
					c-0.3-0.2-0.6-0.3-0.9-0.5c-0.2-0.1-0.3-0.2-0.5-0.2l0,0c-0.3-0.1-0.5-0.2-0.8-0.4c-0.7-0.3-1.3-0.5-2-0.8
					c-0.8-0.2-1.5-0.5-2.3-0.6c0,0,0,0,0,0c-0.4,0.1-0.9,0.2-1.3,0.3c-0.1,0-0.3,0.1-0.4,0.1c-0.5,0.1-1,0.3-1.4,0.5
					c-0.3,0.1-0.7,0.3-1,0.4c-0.2,0.1-0.3,0.1-0.5,0.2c-2.3,1-4.3,2.4-6.2,4.1c-0.3,0.3-0.6,0.6-0.9,0.9c-0.3,0.3-0.6,0.6-0.9,0.9
					c-1.2,1.3-2.2,2.8-3,4.4c-0.3,0.5-0.6,1.1-0.8,1.7c-0.1,0.3-0.3,0.6-0.4,1c-0.5,1.3-0.9,2.6-1.2,3.9c-0.1,0.3-0.1,0.6-0.2,0.8
					c-0.1,0.5-0.2,1.1-0.2,1.6l-0.3,3l-0.1,1.3l-0.1,1.2l-0.1,1.1l-0.1,1.7l-0.1,1.6l-0.5,5.4v0l9.5,0.3l3.2,0.1l0.3,0l3.4,0.1
					l2.9,0.1l3.2,0.1l2.6,0.1l6.2,0.2l1.8,0.1l2.4,0.1l1.5,0.1v0l0.1-1l0.5-5.4l0-0.4l0.1-0.9l0.2-2.7l0.1-0.8l0.1-1
					c0-0.1,0-0.1,0-0.2c0-0.1,0-0.2,0-0.3c0-0.5,0.1-1,0.1-1.5C166.6,71.9,166.6,71.6,166.6,71.4z M165,73.3c0,0.1,0,0.1,0,0.2
					c0,0.2,0,0.5,0,0.7l0,0.5l0,0.2l-0.1,1.2l0,0.6l-0.1,1.4l-0.1,1.1l-0.5,5.9h-0.2l-2.2-0.1l-2-0.1l-15-0.5l-3.3-0.1h-0.1l-0.2,0
					L130,84l0.4-4.5l0.1-1.7l0.2-1.7l0.1-0.8l0.1-1.3l0.1-1.4l0.2-2.4c0.1-0.8,0.2-1.7,0.4-2.5c0.5-2.3,1.3-4.5,2.5-6.5
					c0.6-1.1,1.4-2.2,2.2-3.2c0.3-0.3,0.6-0.7,0.9-1c0.3-0.3,0.6-0.6,0.9-0.9c1.6-1.5,3.5-2.8,5.6-3.8c0.3-0.1,0.6-0.3,0.9-0.4
					c0.2-0.1,0.4-0.2,0.6-0.3c0.5-0.2,1-0.4,1.4-0.5c0.3-0.1,0.7-0.2,1-0.3c0,0,0.1,0,0.1,0c0.1,0,0.2-0.1,0.4-0.1
					c1.4,0.3,2.9,0.8,4.2,1.5c0.3,0.2,0.6,0.3,0.9,0.5c0.1,0,0.1,0,0.1,0.1c0.1,0,0.2,0.1,0.3,0.1c0.3,0.2,0.7,0.4,1,0.6
					c0.1,0,0.2,0.1,0.2,0.1c0.4,0.3,0.9,0.6,1.3,0.9c1.4,1,2.7,2.2,3.8,3.6c0.4,0.5,0.8,1,1.2,1.5c0.5,0.7,1,1.5,1.4,2.3
					c0.3,0.6,0.6,1.2,0.9,1.8c0.5,1.2,0.9,2.4,1.2,3.7c0.1,0.3,0.1,0.6,0.2,0.9c0.1,0.4,0.1,0.9,0.2,1.3c0,0.1,0,0.2,0,0.3
					c0,0.4,0.1,0.7,0.1,1.1c0,0,0,0,0,0c0,0.1,0,0.2,0,0.3c0,0.1,0,0.3,0,0.4C165.1,72.2,165.1,72.8,165,73.3z M166.6,71.4v-0.2
					l0-0.3c0-0.2,0-0.5,0-0.7c0-0.2,0-0.4-0.1-0.6c0,0,0-0.1,0-0.1c0-0.2,0-0.4-0.1-0.6c0,0,0-0.1,0-0.1c0-0.2-0.1-0.4-0.1-0.6
					c0-0.2-0.1-0.5-0.1-0.7c0,0,0-0.1,0-0.1c-0.3-1.6-0.8-3.1-1.5-4.5c-0.3-0.7-0.6-1.3-1-2c-0.3-0.6-0.7-1.3-1.2-1.9
					c-0.3-0.5-0.7-1-1.1-1.5c-0.1-0.1-0.2-0.2-0.3-0.3c-1-1.2-2.2-2.4-3.5-3.4c-0.5-0.4-1-0.7-1.5-1.1c-0.2-0.1-0.3-0.2-0.5-0.3
					c-0.2-0.1-0.4-0.3-0.7-0.4c-0.1-0.1-0.2-0.1-0.3-0.2c-0.3-0.2-0.6-0.3-0.9-0.5c-0.2-0.1-0.3-0.2-0.5-0.2l0,0
					c-0.3-0.1-0.5-0.2-0.8-0.4c-0.7-0.3-1.3-0.5-2-0.8c-0.8-0.2-1.5-0.5-2.3-0.6c0,0,0,0,0,0c-0.4,0.1-0.9,0.2-1.3,0.3
					c-0.1,0-0.3,0.1-0.4,0.1c-0.5,0.1-1,0.3-1.4,0.5c-0.3,0.1-0.7,0.3-1,0.4c-0.2,0.1-0.3,0.1-0.5,0.2c-2.3,1-4.3,2.4-6.2,4.1
					c-0.3,0.3-0.6,0.6-0.9,0.9c-0.3,0.3-0.6,0.6-0.9,0.9c-1.2,1.3-2.2,2.8-3,4.4c-0.3,0.5-0.6,1.1-0.8,1.7c-0.1,0.3-0.3,0.6-0.4,1
					c-0.5,1.3-0.9,2.6-1.2,3.9c-0.1,0.3-0.1,0.6-0.2,0.8c-0.1,0.5-0.2,1.1-0.2,1.6l-0.3,3l-0.1,1.3l-0.1,1.2l-0.1,1.1l-0.1,1.7
					l-0.1,1.6l-0.5,5.4v0l9.5,0.3l3.2,0.1l0.3,0l3.4,0.1l2.9,0.1l3.2,0.1l2.6,0.1l6.2,0.2l1.8,0.1l2.4,0.1l1.5,0.1v0l0.1-1l0.5-5.4
					l0-0.4l0.1-0.9l0.2-2.7l0.1-0.8l0.1-1c0-0.1,0-0.1,0-0.2c0-0.1,0-0.2,0-0.3c0-0.5,0.1-1,0.1-1.5
					C166.6,71.9,166.6,71.6,166.6,71.4z M165,73.3c0,0.1,0,0.1,0,0.2c0,0.2,0,0.5,0,0.7l0,0.5l0,0.2l-0.1,1.2l0,0.6l-0.1,1.4
					l-0.1,1.1l-0.5,5.9h-0.2l-2.2-0.1l-2-0.1l-15-0.5l-3.3-0.1h-0.1l-0.2,0L130,84l0.4-4.5l0.1-1.7l0.2-1.7l0.1-0.8l0.1-1.3l0.1-1.4
					l0.2-2.4c0.1-0.8,0.2-1.7,0.4-2.5c0.5-2.3,1.3-4.5,2.5-6.5c0.6-1.1,1.4-2.2,2.2-3.2c0.3-0.3,0.6-0.7,0.9-1
					c0.3-0.3,0.6-0.6,0.9-0.9c1.6-1.5,3.5-2.8,5.6-3.8c0.3-0.1,0.6-0.3,0.9-0.4c0.2-0.1,0.4-0.2,0.6-0.3c0.5-0.2,1-0.4,1.4-0.5
					c0.3-0.1,0.7-0.2,1-0.3c0,0,0.1,0,0.1,0c0.1,0,0.2-0.1,0.4-0.1c1.4,0.3,2.9,0.8,4.2,1.5c0.3,0.2,0.6,0.3,0.9,0.5
					c0.1,0,0.1,0,0.1,0.1c0.1,0,0.2,0.1,0.3,0.1c0.3,0.2,0.7,0.4,1,0.6c0.1,0,0.2,0.1,0.2,0.1c0.4,0.3,0.9,0.6,1.3,0.9
					c1.4,1,2.7,2.2,3.8,3.6c0.4,0.5,0.8,1,1.2,1.5c0.5,0.7,1,1.5,1.4,2.3c0.3,0.6,0.6,1.2,0.9,1.8c0.5,1.2,0.9,2.4,1.2,3.7
					c0.1,0.3,0.1,0.6,0.2,0.9c0.1,0.4,0.1,0.9,0.2,1.3c0,0.1,0,0.2,0,0.3c0,0.4,0.1,0.7,0.1,1.1c0,0,0,0,0,0c0,0.1,0,0.2,0,0.3
					c0,0.1,0,0.3,0,0.4C165.1,72.2,165.1,72.8,165,73.3z M105.5,65.5c0-0.2,0.1-0.5,0.1-0.7l0,0C105.5,65.1,105.5,65.3,105.5,65.5z
					 M105.4,66.3c0-0.2,0-0.4,0.1-0.6c0,0.2-0.1,0.5-0.1,0.8C105.4,66.3,105.4,66.3,105.4,66.3z M105.3,67.8l0-0.1l0.1-1.3
					L105.3,67.8L105.3,67.8z M202.2,97c0-0.1,0-0.1,0-0.2c0-0.2-0.1-0.4-0.1-0.6c-0.1-0.2-0.1-0.5-0.2-0.7c-0.1-0.3-0.2-0.6-0.3-0.9
					c0,0,0-0.1,0-0.1c-0.1-0.3-0.3-0.7-0.5-1c-0.1-0.3-0.3-0.5-0.4-0.8c-0.9-1.4-2-2.7-3.3-3.7c-0.2-0.2-0.5-0.3-0.7-0.5
					c-0.5-0.3-1-0.6-1.5-0.8h0c-0.3-0.1-0.6-0.2-0.9-0.4c-0.7-0.3-1.4-0.5-2.1-0.6c-0.2,0-0.3-0.1-0.5-0.1l0-0.5l0.2-2.1l0-0.1
					l0.2-2.8l0.1-1.5l0.1-1.5l0.1-1.7l0.3-3.1c0-0.6,0.1-1.2,0.1-1.8c0.1-2.6,0-5.2-0.4-7.7c-0.1-0.5-0.1-0.9-0.2-1.4
					c-0.1-0.4-0.2-0.9-0.3-1.3c-0.4-1.7-0.9-3.4-1.5-5.1c-0.2-0.6-0.5-1.2-0.8-1.9c-0.3-0.8-0.7-1.5-1.1-2.3
					c-0.6-1.2-1.3-2.5-2.1-3.7c-0.2-0.3-0.4-0.6-0.6-0.9c-0.3-0.5-0.7-1-1.1-1.5c-0.2-0.3-0.4-0.5-0.7-0.8c-0.1-0.2-0.3-0.4-0.5-0.6
					c0,0-0.1-0.1-0.1-0.1c-0.3-0.3-0.6-0.7-0.9-1c-0.4-0.4-0.8-0.9-1.2-1.3l-0.3-0.3c-0.5-0.5-1-0.9-1.5-1.4c-0.5-0.5-1-0.9-1.5-1.3
					c-4.1-3.3-8.9-5.8-14-7.3c0,0,0,0,0,0c0,0,0,0,0,0c-2.4-0.7-4.8-1.1-7.3-1.4c-0.5,0-1-0.1-1.5-0.1l-0.1,0h-0.1l-0.9,0l-2.3,0
					h-0.8l-5.9,0l-1.8,0h-0.2c-0.3,0-0.6,0-0.8,0c-1.6,0-3.2,0.2-4.7,0.4c0,0-0.1,0-0.1,0c-0.8,0.1-1.6,0.2-2.4,0.4
					c-0.2,0-0.5,0.1-0.7,0.2c-0.2,0-0.3,0.1-0.5,0.1c-0.2,0.1-0.5,0.1-0.7,0.2c-2.4,0.6-4.8,1.5-7.1,2.6v0c-0.1,0-0.2,0.1-0.3,0.2
					c-0.7,0.3-1.4,0.7-2,1.1c-0.1,0-0.1,0.1-0.2,0.1c0,0,0,0,0,0c-0.1,0.1-0.2,0.1-0.3,0.2c-0.3,0.1-0.5,0.3-0.8,0.5
					c-0.1,0-0.2,0.1-0.3,0.2c-0.1,0.1-0.3,0.2-0.4,0.3c-0.2,0.1-0.5,0.3-0.7,0.5c0,0,0,0-0.1,0c-0.4,0.2-0.8,0.5-1.1,0.8
					c-0.2,0.1-0.4,0.3-0.5,0.4c-0.2,0.1-0.3,0.2-0.5,0.4c0,0-0.1,0.1-0.1,0.1c-0.1,0.1-0.2,0.1-0.2,0.2c0,0-0.1,0.1-0.1,0.1
					c-0.4,0.3-0.8,0.6-1.2,1c-0.3,0.2-0.6,0.5-0.9,0.8c-0.1,0.1-0.2,0.2-0.3,0.3c-0.2,0.2-0.5,0.5-0.7,0.7c0,0,0,0,0,0
					c-0.4,0.4-0.8,0.8-1.1,1.2h0c-0.1,0.1-0.2,0.2-0.3,0.3c-0.1,0.1-0.2,0.2-0.3,0.4c-0.2,0.3-0.5,0.5-0.7,0.8c0,0,0,0-0.1,0.1
					c-0.1,0.1-0.2,0.3-0.4,0.5c0,0-0.1,0.1-0.1,0.1c0,0,0,0,0,0c-0.1,0.1-0.2,0.3-0.3,0.4c-0.1,0.1-0.1,0.1-0.1,0.2
					c-0.3,0.3-0.5,0.7-0.8,1c-0.3,0.4-0.6,0.8-0.9,1.3c-0.1,0.1-0.1,0.2-0.2,0.2c0,0,0,0,0,0c-0.1,0.1-0.1,0.2-0.2,0.2h0
					c-0.3,0.5-0.6,1-0.9,1.5c-0.2,0.3-0.3,0.6-0.5,0.9h0c0,0-0.1,0.1-0.1,0.1c-0.1,0.2-0.2,0.5-0.4,0.7c-0.1,0.2-0.2,0.4-0.3,0.5
					c0,0,0,0,0,0c-0.4,0.7-0.7,1.4-1,2.2c0,0.1-0.1,0.2-0.1,0.4c0,0.1-0.1,0.2-0.1,0.3c-0.2,0.5-0.4,1.1-0.6,1.7
					c-0.2,0.5-0.4,1.1-0.5,1.7c-0.2,0.6-0.3,1.2-0.5,1.8c-0.1,0.4-0.2,0.8-0.3,1.2c-0.2,1-0.4,2.1-0.5,3.2c0,0,0,0.1,0,0.1
					c-0.1,0.5-0.1,1-0.2,1.5v0l0,0.5l-0.1,1.2l0,0.4v0l0,0.4l0,0.5l-0.1,0.9l-0.5,6l-0.5,5.7l-0.1,1.2l0,0.3
					c-0.8,0.1-1.6,0.2-2.3,0.4c0,0,0,0,0,0c-0.2,0.1-0.5,0.1-0.7,0.2c-0.5,0.2-1,0.4-1.5,0.7c-2.8,1.8-3.3,5.4-4,11.9v0.1l-0.5,9
					l0,0.1l-0.6,11.9l-0.2,3.4c-0.1,0.7-0.1,1.3-0.1,2c0,0.1,0,0.2,0,0.3c0,0.3,0,0.6,0,0.9c0,0.4,0,0.9,0,1.3c0,2.5,0.2,5,0.6,7.5
					c0,0,0,0,0,0c0.2,1.3,0.5,2.5,0.8,3.8c0,0,0,0,0,0c0.2,0.9,0.5,1.8,0.8,2.7c0,0.1,0.1,0.2,0.1,0.3c0,0.1,0.1,0.2,0.1,0.3
					c0.2,0.7,0.5,1.5,0.8,2.2c0,0,0,0.1,0.1,0.2c0.7,1.8,1.5,3.6,2.5,5.4c0.1,0.2,0.2,0.4,0.3,0.6c1.5,2.7,3.4,5.3,5.5,7.7
					c0.6,0.7,1.2,1.4,1.9,2c0.6,0.6,1.3,1.2,1.9,1.8c1.3,1.2,2.7,2.2,4.1,3.2c0,0,0,0,0,0c0.7,0.5,1.4,0.9,2.1,1.4
					c0.3,0.2,0.6,0.4,0.9,0.5c0.3,0.2,0.6,0.4,0.9,0.5c1.5,0.8,3,1.5,4.6,2.2c0.3,0.1,0.6,0.2,0.8,0.3c0.6,0.2,1.3,0.5,2,0.7
					c0,0,0,0,0.1,0c2.5,0.8,5.2,1.4,7.9,1.8c0.5,0.1,1.1,0.1,1.7,0.2c0.2,0,0.5,0,0.7,0.1l1,0.1c0.1,0,0.1,0,0.2,0h0.1l0.1,0l0.1,0
					h0.2c0.1,0,0.2,0,0.3,0l3.9,0.2l2.2,0.1l4.4,0.3h0.1l2.7,0.2l1.5,0.1l1.6,0.1l0.2,0h0.2c3.1,0,6.1-0.4,9.1-1.1
					c0.2,0,0.5-0.1,0.7-0.2c0.1,0,0.1,0,0.2,0c4.3-1,8.4-2.7,12.3-4.9c0.7-0.4,1.3-0.8,2-1.2c0.1,0,0.1-0.1,0.2-0.1
					c0.8-0.5,1.5-1,2.3-1.5c3.3-2.3,6.3-5,9-8.1c0.7-0.8,1.4-1.6,2-2.4c0,0,0,0,0,0c0.9-1.1,1.8-2.3,2.6-3.6
					c0.2-0.3,0.4-0.5,0.5-0.8c0,0,0,0,0,0c0.2-0.3,0.3-0.5,0.5-0.8c0.4-0.6,0.8-1.2,1.1-1.9c0.3-0.5,0.6-1.1,0.9-1.7
					c0,0,0.1-0.1,0.1-0.2c1-2,2-4.1,2.7-6.3c0.1-0.2,0.1-0.4,0.2-0.5c0.2-0.7,0.5-1.4,0.6-2c0.2-0.6,0.3-1.1,0.5-1.7
					c0.2-0.9,0.5-1.8,0.7-2.8c0,0,0,0,0,0c0.1-0.3,0.1-0.6,0.2-1c0-0.2,0.1-0.4,0.1-0.6c0.1-0.3,0.1-0.6,0.2-0.9c0,0,0-0.1,0-0.1
					c0-0.2,0.1-0.5,0.1-0.7c0,0,0,0,0,0c0-0.1,0-0.1,0-0.2c0-0.2,0.1-0.5,0.1-0.8c0.1-0.5,0.1-0.9,0.2-1.4c0-0.2,0-0.3,0-0.5l0-0.5
					l0.1-1.4v0l0-0.4l0.1-1l0-0.6l0-0.3l0-0.5l0.1-1.8l0.1-2.8l0-0.3l0-0.2l0-0.4l0-0.8v0l0.1-1.6l0-1l0-0.5l0-0.5l0-0.9l0-0.9
					l0.4-6.9C202.5,99.5,202.4,98.2,202.2,97z M200.9,100.7l-0.4,6.9l-0.1,0.9v0.1c0,0,0,0,0,0.1v0l0,0.9l0,0.4l0,0.3v0.1l0,0.9
					l-0.1,2.8l0,0l-0.1,1.5v0.1l0,0.2l-0.2,4.3l0,1l0,0.7l0,0.2l0,0.3l0,0.1l-0.1,1.8c0,0.6-0.1,1.2-0.2,1.8c0,0,0,0.1,0,0.1
					c0,0,0,0,0,0.1c0,0.2,0,0.5-0.1,0.7c0,0.1,0,0.2,0,0.2c0,0.1,0,0.2,0,0.3c0,0.2-0.1,0.4-0.1,0.6c0,0.1,0,0.2,0,0.3
					c0,0,0,0,0,0.1l0,0.2c0,0.1,0,0.2-0.1,0.3c-0.3,1.7-0.7,3.4-1.2,5.1c-0.1,0.3-0.2,0.7-0.3,1c0,0.1-0.1,0.3-0.1,0.4
					c-0.1,0.3-0.2,0.6-0.3,0.9c-0.1,0.3-0.2,0.6-0.3,0.9c0,0,0,0,0,0c-0.2,0.4-0.3,0.8-0.5,1.2c0,0.1-0.1,0.2-0.1,0.4
					c0,0.1-0.1,0.2-0.1,0.3c-0.1,0.4-0.3,0.7-0.4,1c-0.1,0.3-0.2,0.6-0.4,0.8c-0.5,1.1-1,2.1-1.5,3.1c-0.1,0.2-0.3,0.5-0.4,0.7
					c0,0,0,0,0,0.1c-0.1,0.3-0.3,0.5-0.4,0.8c-0.3,0.5-0.6,1-0.9,1.5c-0.1,0.1-0.1,0.2-0.2,0.4c0,0.1-0.1,0.2-0.2,0.2
					c-0.3,0.4-0.6,0.9-0.9,1.3c-0.1,0.2-0.3,0.4-0.4,0.6c-0.1,0.1-0.1,0.2-0.2,0.3c0,0.1-0.1,0.1-0.1,0.2c-0.2,0.2-0.4,0.5-0.5,0.7
					c-0.1,0.2-0.3,0.4-0.4,0.6c-0.2,0.2-0.4,0.5-0.6,0.7c-3,3.8-6.5,7.1-10.4,9.8c-1.2,0.9-2.5,1.7-3.9,2.5c0,0,0,0,0,0
					c-1,0.6-2.1,1.1-3.1,1.6c-2.9,1.4-6,2.5-9.1,3.2c-2.6,0.6-5.3,1-8,1.1c-0.5,0-1,0-1.5,0h-0.1l-0.1,0l-0.5,0h-0.1l-0.9-0.1
					l-3.5-0.2h0l-0.8,0l-4.2-0.3l-1.5-0.1l-4.8-0.3c0,0,0,0,0,0c-0.2,0-0.3,0-0.5,0c-0.1,0-0.2,0-0.3,0l-0.9,0l-0.2,0
					c-0.2,0-0.5,0-0.7-0.1c-0.8-0.1-1.5-0.2-2.3-0.3c-2.3-0.3-4.6-0.8-6.8-1.5c0,0,0,0-0.1,0c-0.7-0.2-1.4-0.5-2.1-0.7
					c-0.1,0-0.2-0.1-0.4-0.1c-1.8-0.7-3.5-1.5-5.1-2.4c-0.3-0.2-0.6-0.3-0.9-0.5c-0.3-0.2-0.6-0.4-0.9-0.6c-0.1,0-0.1-0.1-0.2-0.1h0
					c-0.6-0.4-1.1-0.7-1.7-1.1c0,0,0,0,0,0c-1.5-1.1-3-2.2-4.3-3.5c-1.1-1-2.1-2-3.1-3.2c-1.4-1.6-2.7-3.3-3.9-5.1
					c-0.9-1.3-1.6-2.7-2.3-4.1c-0.3-0.6-0.6-1.2-0.9-1.9c0,0,0-0.1-0.1-0.1c-0.8-1.8-1.5-3.6-2-5.4c0-0.1,0-0.1-0.1-0.2
					c0-0.1,0-0.1,0-0.2c0,0,0,0,0,0c-0.1-0.2-0.1-0.5-0.2-0.7c-0.2-0.6-0.3-1.3-0.5-1.9c-0.1-0.3-0.1-0.7-0.2-1
					c-0.1-0.3-0.2-0.7-0.2-1.1v0c0-0.3-0.1-0.6-0.1-0.9c-0.1-0.3-0.1-0.7-0.1-1c-0.2-1.1-0.3-2.2-0.3-3.3c0-0.3,0-0.6,0-0.8
					c0-0.3,0-0.5,0-0.8c0-0.4,0-0.8,0-1.2c0-0.7,0-1.4,0-2.1c0-0.1,0-0.2,0-0.2c0-0.6,0.1-1.2,0.1-1.8L95,106l0-0.2l0.5-9.1
					c0.2-1.5,0.3-2.9,0.5-4c0.1-0.4,0.1-0.8,0.2-1.1c0-0.1,0-0.2,0-0.2c0.2-0.8,0.3-1.5,0.5-2.1c0.5-1.8,1.3-2.8,2.5-3.5
					c0,0,0,0,0,0c1.1-0.6,2.6-0.8,4.6-0.9v0l0-0.2l0.1-1.6l0.2-2.5l0.4-4.3h0l0.6-7.3l0-0.4l0-0.4l0-0.4l0-0.1l0.1-1.3v0
					c0,0,0-0.1,0-0.1c0-0.2,0-0.4,0.1-0.6c0,0,0-0.1,0-0.1c0-0.2,0.1-0.5,0.1-0.7c0-0.5,0.1-0.9,0.2-1.3c0-0.1,0-0.2,0.1-0.4
					c0.1-0.5,0.2-0.9,0.3-1.4c0.1-0.5,0.2-1,0.4-1.6c0.2-0.6,0.3-1.2,0.5-1.7c0.1-0.2,0.1-0.5,0.2-0.7c0.2-0.5,0.4-1.1,0.6-1.6
					c0-0.1,0.1-0.2,0.1-0.3c0-0.1,0.1-0.2,0.1-0.3c0,0,0-0.1,0.1-0.2c0,0,0-0.1,0.1-0.2s0-0.1,0.1-0.1c0.1-0.2,0.2-0.5,0.3-0.7
					c0.1-0.3,0.2-0.5,0.4-0.8c0.1-0.3,0.2-0.5,0.4-0.8c0.1-0.2,0.2-0.4,0.3-0.5c0.1-0.2,0.2-0.3,0.3-0.5c0-0.1,0.1-0.2,0.2-0.3
					c0.3-0.6,0.6-1.2,1-1.7c0,0,0,0,0,0c0-0.1,0.1-0.1,0.1-0.2c0,0,0-0.1,0.1-0.1c0.1-0.1,0.1-0.2,0.2-0.3c0.1-0.2,0.2-0.3,0.3-0.5
					c0.1-0.1,0.2-0.2,0.2-0.4c0-0.1,0.1-0.2,0.2-0.2c0-0.1,0.1-0.1,0.2-0.2c0.3-0.4,0.6-0.8,0.9-1.2c0,0,0,0,0,0
					c0.1-0.1,0.1-0.1,0.2-0.2c0.1-0.1,0.2-0.3,0.3-0.4c0.2-0.3,0.5-0.6,0.8-0.9c0.2-0.3,0.5-0.5,0.7-0.8c0.1-0.1,0.2-0.2,0.3-0.3
					c0.2-0.2,0.3-0.4,0.5-0.5c0,0,0.1-0.1,0.1-0.1c0,0,0,0,0.1-0.1c0.4-0.4,0.8-0.8,1.2-1.2c0.3-0.3,0.6-0.5,0.8-0.8
					c0.2-0.1,0.3-0.3,0.5-0.4c0.1-0.1,0.3-0.2,0.4-0.3c0,0,0,0,0,0c0.3-0.2,0.5-0.4,0.8-0.7c0,0,0,0,0,0c0.2-0.2,0.4-0.3,0.7-0.5
					c0.1-0.1,0.2-0.1,0.3-0.2c0.1-0.1,0.3-0.2,0.4-0.3c0.1-0.1,0.2-0.2,0.4-0.2c0.2-0.1,0.4-0.3,0.6-0.4c0.4-0.3,0.8-0.5,1.2-0.8
					c0,0,0.1-0.1,0.2-0.1c0.1,0,0.1-0.1,0.2-0.1c0.1,0,0.2-0.1,0.2-0.2c0.7-0.4,1.5-0.8,2.2-1.2c0.1,0,0.1,0,0.2-0.1
					c0.2-0.1,0.5-0.2,0.7-0.4c0,0,0,0,0,0c0.4-0.2,0.8-0.4,1.2-0.6c0.9-0.4,1.8-0.7,2.7-1c0.5-0.2,1.1-0.4,1.6-0.5
					c0.6-0.2,1.3-0.4,1.9-0.5c0.1,0,0.2,0,0.3-0.1h0c0.1,0,0.2,0,0.3-0.1c0.1,0,0.1,0,0.2,0c0.1,0,0.2,0,0.2-0.1
					c2.3-0.5,4.6-0.7,6.9-0.8h0c0.2,0,0.5,0,0.7,0h0.2l1.8,0h0.3l6.4,0l1.8,0h0.1l1.3,0c0.5,0,1,0.1,1.5,0.1c0.4,0,0.9,0.1,1.3,0.1
					c2,0.2,3.9,0.6,5.7,1.1c0,0,0,0,0.1,0c4.4,1.2,8.4,3.2,11.9,5.8c0.6,0.4,1.1,0.8,1.6,1.3c0.5,0.4,1.1,0.9,1.6,1.4
					c0.2,0.1,0.3,0.3,0.5,0.4c0.3,0.3,0.7,0.7,1,1c0.1,0.1,0.2,0.2,0.3,0.3c0.3,0.3,0.5,0.5,0.8,0.8c0,0,0,0,0,0
					c0.4,0.4,0.7,0.8,1,1.2c0.1,0.1,0.2,0.2,0.3,0.4c0.4,0.5,0.8,1,1.2,1.5c0.4,0.6,0.9,1.2,1.3,1.8c1.2,1.9,2.3,3.9,3.2,6
					c0,0,0,0.1,0.1,0.1c0.2,0.5,0.4,1,0.6,1.5c0.2,0.4,0.3,0.9,0.5,1.3c0.1,0.3,0.2,0.7,0.3,1c0,0,0,0,0,0c0.1,0.3,0.2,0.6,0.2,0.8
					c0.2,0.6,0.3,1.2,0.4,1.8c0,0.2,0.1,0.4,0.1,0.6c0,0,0,0.1,0,0.1c0.1,0.3,0.1,0.6,0.2,1c0,0.2,0.1,0.4,0.1,0.6
					c0.1,0.5,0.1,0.9,0.2,1.4c0.2,1.4,0.3,2.9,0.3,4.4c0,0.6,0,1.1,0,1.7v0c0,0.2,0,0.4,0,0.7c0,0.3,0,0.7-0.1,1l-0.3,3l-0.1,1.8
					l-0.1,1.5l-0.1,1.4l-0.3,3.4l0,0.1l-0.2,1.6l-0.2,1.9V88c0.6,0,1.2,0.1,1.8,0.2c0.9,0.2,1.7,0.5,2.5,0.8c0.5,0.2,1,0.5,1.4,0.8
					c1.1,0.7,2.1,1.6,2.9,2.7c0.1,0.1,0.1,0.2,0.2,0.3c0.1,0.2,0.3,0.4,0.4,0.6c0.2,0.4,0.4,0.8,0.6,1.2c0,0,0,0.1,0,0.1
					c0.1,0.3,0.2,0.5,0.3,0.8c0.2,0.4,0.3,0.9,0.4,1.4l0,0c0,0.1,0.1,0.2,0.1,0.3c0,0.2,0.1,0.4,0.1,0.6c0.1,0.3,0.1,0.6,0.1,0.9
					c0,0.2,0,0.4,0,0.5C201,99.6,200.9,100.2,200.9,100.7L200.9,100.7z M166.6,71.1l0-0.3c0-0.2,0-0.5,0-0.7c0-0.2,0-0.4-0.1-0.6
					c0,0,0-0.1,0-0.1c0-0.2,0-0.4-0.1-0.6c0,0,0-0.1,0-0.1c0-0.2-0.1-0.4-0.1-0.6c0-0.2-0.1-0.5-0.1-0.7c0,0,0-0.1,0-0.1
					c-0.3-1.6-0.8-3.1-1.5-4.5c-0.3-0.7-0.6-1.3-1-2c-0.3-0.6-0.7-1.3-1.2-1.9c-0.3-0.5-0.7-1-1.1-1.5c-0.1-0.1-0.2-0.2-0.3-0.3
					c-1-1.2-2.2-2.4-3.5-3.4c-0.5-0.4-1-0.7-1.5-1.1c-0.2-0.1-0.3-0.2-0.5-0.3c-0.2-0.1-0.4-0.3-0.7-0.4c-0.1-0.1-0.2-0.1-0.3-0.2
					c-0.3-0.2-0.6-0.3-0.9-0.5c-0.2-0.1-0.3-0.2-0.5-0.2l0,0c-0.3-0.1-0.5-0.2-0.8-0.4c-0.7-0.3-1.3-0.5-2-0.8
					c-0.8-0.2-1.5-0.5-2.3-0.6c0,0,0,0,0,0c-0.4,0.1-0.9,0.2-1.3,0.3c-0.1,0-0.3,0.1-0.4,0.1c-0.5,0.1-1,0.3-1.4,0.5
					c-0.3,0.1-0.7,0.3-1,0.4c-0.2,0.1-0.3,0.1-0.5,0.2c-2.3,1-4.3,2.4-6.2,4.1c-0.3,0.3-0.6,0.6-0.9,0.9c-0.3,0.3-0.6,0.6-0.9,0.9
					c-1.2,1.3-2.2,2.8-3,4.4c-0.3,0.5-0.6,1.1-0.8,1.7c-0.1,0.3-0.3,0.6-0.4,1c-0.5,1.3-0.9,2.6-1.2,3.9c-0.1,0.3-0.1,0.6-0.2,0.8
					c-0.1,0.5-0.2,1.1-0.2,1.6l-0.3,3l-0.1,1.3l-0.1,1.2l-0.1,1.1l-0.1,1.7l-0.1,1.6l-0.5,5.4v0l9.5,0.3l3.2,0.1l0.3,0l3.4,0.1
					l2.9,0.1l3.2,0.1l2.6,0.1l6.2,0.2l1.8,0.1l2.4,0.1l1.5,0.1v0l0.1-1l0.5-5.4l0-0.4l0.1-0.9l0.2-2.7l0.1-0.8l0.1-1
					c0-0.1,0-0.1,0-0.2c0-0.1,0-0.2,0-0.3c0-0.5,0.1-1,0.1-1.5c0-0.3,0-0.6,0-0.9V71.1z M165,71.3c0,0.1,0,0.3,0,0.4
					c0,0.5,0,1,0,1.6c0,0.1,0,0.1,0,0.2c0,0.2,0,0.5,0,0.7l0,0.5l0,0.2l-0.1,1.2l0,0.6l-0.1,1.4l-0.1,1.1l-0.5,5.9h-0.2l-2.2-0.1
					l-2-0.1l-15-0.5l-3.3-0.1h-0.1l-0.2,0L130,84l0.4-4.5l0.1-1.7l0.2-1.7l0.1-0.8l0.1-1.3l0.1-1.4l0.2-2.4c0.1-0.8,0.2-1.7,0.4-2.5
					c0.5-2.3,1.3-4.5,2.5-6.5c0.6-1.1,1.4-2.2,2.2-3.2c0.3-0.3,0.6-0.7,0.9-1c0.3-0.3,0.6-0.6,0.9-0.9c1.6-1.5,3.5-2.8,5.6-3.8
					c0.3-0.1,0.6-0.3,0.9-0.4c0.2-0.1,0.4-0.2,0.6-0.3c0.5-0.2,1-0.4,1.4-0.5c0.3-0.1,0.7-0.2,1-0.3c0,0,0.1,0,0.1,0
					c0.1,0,0.2-0.1,0.4-0.1c1.4,0.3,2.9,0.8,4.2,1.5c0.3,0.2,0.6,0.3,0.9,0.5c0.1,0,0.1,0,0.1,0.1c0.1,0,0.2,0.1,0.3,0.1
					c0.3,0.2,0.7,0.4,1,0.6c0.1,0,0.2,0.1,0.2,0.1c0.4,0.3,0.9,0.6,1.3,0.9c1.4,1,2.7,2.2,3.8,3.6c0.4,0.5,0.8,1,1.2,1.5
					c0.5,0.7,1,1.5,1.4,2.3c0.3,0.6,0.6,1.2,0.9,1.8c0.5,1.2,0.9,2.4,1.2,3.7c0.1,0.3,0.1,0.6,0.2,0.9c0.1,0.4,0.1,0.9,0.2,1.3
					c0,0.1,0,0.2,0,0.3c0,0.4,0.1,0.7,0.1,1.1c0,0,0,0,0,0C165,71.1,165,71.2,165,71.3z"/>
			</g>
		</g>
		<path class="st63" d="M152.2,170.6h-0.6c-0.4,0-0.8,0-1.2,0c-1.4,0-2.8-0.2-4.2-0.3L152.2,170.6z"/>
		<path class="st66" d="M155.2,31.7l-3.2,0C153,31.7,154.1,31.7,155.2,31.7z"/>
		<path class="st66" d="M191.2,73.1l-1.3,14.8L189,98.3l-2.7-0.2l-7.2-0.6l-4.6-0.4l0.9-9.6l0-0.5l1.1-12.7
			c0.6-6.4-1.6-12.5-5.4-17.2c-3.9-4.6-9.5-7.8-15.9-8.3c-2.4-0.2-4.8,0-7.1,0.5c0,0,0,0,0,0c-1.4,0.3-2.8,0.8-4.2,1.4
			c-7.7,3.3-13.4,10.6-14.2,19.5l-1.4,15.3l0,0.5l-0.6,7l-9.9-0.9l-4.5-0.4l0.1-1.3l0.5-5.4l1.6-18.5c1.4-16.2,13-29.2,27.9-33.3
			l-0.8-1.4l0,0h0.9l1.8,0l6.7,0l3.2,0c0.5,0,1,0.1,1.5,0.1c10.4,0.9,19.5,6,25.8,13.5C188.7,52.8,192.2,62.7,191.2,73.1z"/>
		<path class="st63" d="M200.9,100.7l-1.2,23.4c-2.1,25.5-23.3,46.2-47.4,46.4h-0.1l-6-0.4l-10.6-0.7c0,0,0,0,0,0
			c-0.3,0-0.5,0-0.8,0l-1.6-0.1c-0.1,0-0.1,0-0.2,0l1.6-2.3c-5.6-2.4-10.6-6.1-14.8-10.8c-8.1-9.2-12-21.3-10.9-34l1.3-24.5
			c0.2-1.9,0.7-3.8,1.6-5.4c0.4-0.7,0.9-1.4,1.4-2c1.3-1.6,3-2.9,4.9-3.7c1.6-0.7,3.3-1,5.1-0.9l5,0.2l13.1,0.4l24,0.8l10,0.3
			l4.6,0.1l1.5,0.1c0,0,0,0,0,0l8.5,0.3C196.5,88.1,201.5,93.9,200.9,100.7z"/>
		<path class="st67" d="M181.2,73.1L180,87.4l0,0.2l-0.9,9.9l-0.1,0.9L164.5,97l0.9-9.9l0-0.5l1.1-12.3c0.6-6.4-1.6-12.5-5.4-17.2
			c-3.3-3.9-7.8-6.8-13-7.9c0,0,0,0,0,0c-0.9-0.2-1.9-0.4-2.9-0.5c-0.4,0-0.8-0.1-1.1-0.1c-12.4-0.5-23.3,8.9-24.4,21.4L118.3,85
			l-0.1,1.6l-0.5,5.3l-0.1,0.9l-5.8-0.5l-8.7-0.8l0.6-6.8l1.6-18.4c1.7-19.5,18-34.3,37.1-34.7c0.2,0,0.5,0,0.8,0h0.2
			c0.6,0,1.2,0,1.8,0c0.5,0,1,0.1,1.4,0.1c10.4,0.9,19.5,6,25.8,13.5C178.7,52.8,182.2,62.7,181.2,73.1z"/>
		<path class="st65" d="M186.3,98.1c0,0.5-0.1,1.1-0.2,1.7l-1.2,23.4c-2.2,25.7-23.7,46.6-48.1,46.4c-0.3,0-0.7,0-1,0h-0.2
			c0,0,0,0,0,0c-0.9,0-1.7-0.1-2.6-0.2c-10.9-1-20.7-5.9-27.9-14.1c-8.1-9.2-12-21.3-10.9-34l1.3-24.5c1-10,1.9-11.7,8.3-12
			c1.3-0.1,2.9-0.1,4.7-0.1l5.3,0.2l4.6,0.2l10,0.3l12.7,0.4l0.3,0l24,0.8l9.7,0.3c0.1,0,0.2,0,0.2,0c1.8,0.2,3.3,0.3,4.6,0.5
			c0.5,0.1,1,0.2,1.5,0.2c0,0,0,0,0,0C185.8,88.5,187,90.6,186.3,98.1z"/>
		<path class="st68" d="M186.3,98.1c0,0.5-0.1,1.1-0.2,1.7l-1.2,23.4c-2.2,25.7-23.7,46.6-48.1,46.4c-0.3,0-0.7,0-1,0l5.3-83.8
			l0.3,0l24,0.8l9.7,0.3c0.1,0,0.2,0,0.2,0c1.8,0.2,3.3,0.3,4.6,0.5c0.5,0.1,1,0.2,1.5,0.2c0,0,0,0,0,0
			C185.8,88.5,187,90.6,186.3,98.1z"/>
		<path class="st69" d="M150.4,116.1c-0.3,4-2.7,7.4-6,9.1l-0.7,10.2c-0.2,3.2-3,5.6-6.2,5.4c-3.2-0.2-5.6-3-5.4-6.2l0.7-10.3
			c-3-2.2-4.8-5.8-4.6-9.8c0.4-6.1,5.7-10.7,11.8-10.3C146.2,104.7,150.8,110,150.4,116.1z"/>
		<path class="st69" d="M150.4,116.1c-0.3,4-2.7,7.4-6,9.1l-0.7,10.2c-0.2,2.2-1.6,4.1-3.5,4.9c-2.2-0.9-3.6-3.2-3.5-5.7l0.7-10.3
			c-3-2.2-4.8-5.8-4.6-9.7c0.3-5,4-9.1,8.7-10.1C147,105.6,150.8,110.5,150.4,116.1z"/>
		<path class="st70" d="M150.4,116.1c-0.3,4-2.7,7.4-6,9.1l-0.7,10.2c-0.2,2.2-1.6,4.1-3.5,4.9c-2.2-0.9-3.6-3.2-3.5-5.7l0.7-10.3
			c-3-2.2-4.8-5.8-4.6-9.7c0.3-5,4-9.1,8.7-10.1C147,105.6,150.8,110.5,150.4,116.1z"/>
		<circle class="st71" cx="108" cy="149.1" r="2.2"/>
		<path class="st71" d="M113.6,152.4c2.6,3.5,6.5,6,10.8,7c1.2,0.3,2.2,1.4,2.1,2.6c0,0,0,0,0,0c-0.1,1.2-1.5,2.1-3.1,1.8
			c-5.4-1.2-10.1-4.2-13.4-8.7c-1-1.3-0.7-3,0.4-3.6c0,0,0,0,0,0C111.5,151,112.9,151.4,113.6,152.4z"/>
	</g>
</g>
</svg>
