<?xml version="1.0" encoding="utf-8"?>
<!-- Generator: Adobe Illustrator 23.0.2, SVG Export Plug-In . SVG Version: 6.00 Build 0)  -->
<svg version="1.1" id="Layer_1" xmlns="http://www.w3.org/2000/svg" xmlns:xlink="http://www.w3.org/1999/xlink" x="0px" y="0px"
	 viewBox="0 0 300 199.7" style="enable-background:new 0 0 300 199.7;" xml:space="preserve">
<style type="text/css">
	.st0{fill:#757575;}
	.st1{fill:#00B1FF;}
	.st2{fill:#15BDF9;}
	.st3{fill:#FFFFFF;}
	.st4{fill:#626C72;}
	.st5{fill:#96A5B3;}
	.st6{fill:#2F3E4A;}
	.st7{fill:#222D35;}
	.st8{fill:#980C0A;}
	.st9{fill:#CA2D27;}
	.st10{fill:#B5120E;}
	.st11{fill:#ED4D47;}
	.st12{fill:none;stroke:#730C00;stroke-width:0.39;stroke-miterlimit:10;}
	.st13{fill:#363636;}
	.st14{fill:#848484;}
	.st15{fill:#DBDBDB;}
	.st16{fill:#A9A9A9;}
	.st17{fill:#585858;}
	.st18{fill:#828F96;}
	.st19{fill:#CDCFD5;}
	.st20{fill:#7A828A;}
	.st21{fill:#E7F7FD;}
	.st22{fill:#DADBDF;}
	.st23{fill:#CED6DC;}
	.st24{fill:#353535;stroke:#000000;stroke-width:0.24;stroke-linejoin:round;}
	.st25{fill:#4D4D4D;}
	.st26{fill:#B3B3B3;}
	.st27{fill:#D3161D;}
	.st28{fill:#ADADAD;stroke:#080000;stroke-width:0.32;stroke-miterlimit:10;}
	.st29{fill:none;stroke:#070707;stroke-width:0.49;stroke-miterlimit:10;}
	.st30{fill:#77401B;stroke:#070707;stroke-width:0.33;stroke-miterlimit:10;}
	.st31{fill:#F8C946;stroke:#020202;stroke-width:0.33;stroke-miterlimit:10;}
	.st32{fill:#282828;stroke:#151616;stroke-width:0.27;stroke-miterlimit:10;}
	.st33{fill:#4D4D4D;stroke:#151616;stroke-width:0.27;stroke-miterlimit:10;}
	.st34{fill:#4D4D4D;stroke:#151616;stroke-width:0.97;stroke-miterlimit:10;}
	.st35{fill:#F8C946;}
	.st36{fill:#683919;}
	.st37{fill:#945320;}
	.st38{fill:#515051;stroke:#000000;stroke-width:0.32;stroke-linejoin:round;}
	.st39{fill:#161616;stroke:#0A0A0A;stroke-width:0.28;stroke-miterlimit:10;}
	.st40{fill:#8E8A8B;stroke:#000000;stroke-width:0.28;stroke-linejoin:round;}
	.st41{fill:#E2B647;stroke:#070707;stroke-width:0.28;stroke-miterlimit:10;}
	.st42{fill:#161616;}
	.st43{fill:#945320;stroke:#070707;stroke-width:0.28;stroke-miterlimit:10;}
	.st44{fill:none;stroke:#0A0A0A;stroke-width:0.28;stroke-miterlimit:10;}
	.st45{fill:#DDDBD7;}
	.st46{fill:#232323;}
	.st47{fill:#3A3A3A;}
	.st48{fill:none;stroke:#000000;stroke-width:0.28;stroke-miterlimit:10;}
	.st49{fill:#282828;}
	.st50{fill:#7C7C7C;}
	.st51{fill:#666666;}
	.st52{fill:none;stroke:#070707;stroke-width:0.33;stroke-miterlimit:10;}
	.st53{fill:#389CCE;}
	.st54{fill:#7F1119;}
	.st55{fill:#5E0E18;}
	.st56{fill:#352F49;}
	.st57{fill:#E41E00;}
	.st58{fill:#848483;}
	.st59{fill:#DBDDDD;}
	.st60{fill:#0FB0DB;}
	.st61{fill:#303435;}
	.st62{fill:#4F5151;}
	.st63{fill:none;stroke:#070707;stroke-width:0.16;stroke-miterlimit:10;}
	.st64{fill:#2E0200;stroke:#000000;stroke-width:0.16;stroke-miterlimit:10;}
	.st65{fill:#198F3A;stroke:#161615;stroke-width:0.14;stroke-miterlimit:10;}
	.st66{opacity:0.17;fill:#020202;enable-background:new    ;}
	.st67{fill:#C7C7C7;}
	.st68{fill:#383838;}
	.st69{fill:#0A0A0A;}
	.st70{fill:#2FBE57;}
	.st71{fill:none;}
	.st72{fill:#A827DE;}
	.st73{fill:#E81A1A;}
	.st74{fill:#47ED1B;}
	.st75{fill:#DD811F;}
	.st76{fill:#B5B5B5;}
	.st77{fill:#3E3E3E;}
	.st78{fill:none;stroke:#0A0A0A;stroke-width:0.16;stroke-miterlimit:10;}
	.st79{fill:#F8C946;stroke:#000000;stroke-width:0.16;stroke-miterlimit:10;}
	.st80{fill:#E71F00;}
	.st81{fill:#FFCC17;}
	.st82{opacity:0.27;enable-background:new    ;}
	.st83{fill:#C3C3C3;}
	.st84{fill:#DEDEDE;}
	.st85{fill:#5A5A5A;}
	.st86{fill:#5B5B5B;}
	.st87{fill:#A8A8A8;}
	.st88{opacity:0.75;enable-background:new    ;}
	.st89{fill:#E78D00;}
	.st90{fill:#FACB03;}
	.st91{fill:#CCCCCC;}
	.st92{fill:#FEFEFE;}
	.st93{fill:#F7B808;}
	.st94{fill:#703500;}
	.st95{fill:#220B00;}
	.st96{opacity:0.8;fill:#FFFFFF;enable-background:new    ;}
</style>
<title>guide_condition_lock</title>
<path class="st0" d="M299.9,18.5v168c0,7.3-5.9,13.2-13.2,13.2H13.2c-7.3,0-13.2-5.9-13.2-13.2v-5l0,0v-163c0-2.6,0.7-5,2-7
	c1.5-2.4,3.8-4.3,6.5-5.3c1.5-0.6,3-0.9,4.7-0.9h273.5c1.7,0,3.2,0.3,4.7,0.9c2.7,1,5,2.9,6.5,5.3c0.9,1.5,1.6,3.2,1.9,5
	C299.8,17.1,299.9,17.8,299.9,18.5z"/>
<path class="st1" d="M299.7,13.4L299.7,13.4v168c0,7.1-5.5,12.8-12.5,13.2c-0.2,0-0.4,0-0.5,0H13.2c-0.2,0-0.5,0-0.7,0
	c-6.4-0.2-11.6-5-12.5-11.2c-0.1-0.7-0.1-1.3-0.1-2v-168c0-7.3,5.9-13.2,13.2-13.2h273.7c0.2,0,0.3,0,0.5,0c3.7,0.2,6.9,1.9,9.2,4.4
	c0,0,0,0,0.1,0.1c1.6,1.9,2.7,4.2,3.1,6.7C299.7,12.1,299.7,12.8,299.7,13.4z"/>
<path class="st2" d="M299.7,11.5H0.2c1-6.4,6.6-11.1,13-11.1h273.4C293.2,0.4,298.7,5.1,299.7,11.5z"/>
<path class="st3" d="M299.7,11.5L299.7,11.5c0-0.1,0-0.1,0-0.2c-1-6.1-6.2-10.8-12.5-11c-0.2,0-0.3,0-0.5,0l0,0l0,0H13.2
	c-6.6,0-12.1,4.9-13,11.2l0,0c-0.1,0.7-0.2,1.3-0.2,2v168l0,0c0,7,5.5,12.8,12.5,13.2c0.2,0,0.5,0,0.7,0h273.5c0.2,0,0.4,0,0.5,0
	c7-0.3,12.7-6.1,12.7-13.2v-168C299.9,12.8,299.8,12.1,299.7,11.5z M286.7,190.2H13.2c-4.8,0-8.7-3.9-8.7-8.7v-168
	c0-0.7,0.1-1.3,0.2-2c0.5-2.2,1.9-4.2,3.8-5.3c1.3-0.9,3-1.4,4.7-1.4h273.4c1.7,0,3.3,0.5,4.7,1.4c1.9,1.2,3.2,3.1,3.8,5.3
	c0.2,0.6,0.2,1.3,0.2,2v168C295.4,186.3,291.5,190.2,286.7,190.2z"/>
<circle class="st4" cx="284.8" cy="15.2" r="6.2"/>
<circle class="st5" cx="284.8" cy="15.2" r="5.5"/>
<polygon class="st6" points="288.4,13.6 288,17.5 284.4,19.1 281.3,16.8 281.6,13 285.2,11.4 "/>
<path class="st7" d="M288.4,13.6l-0.2,1.7c-0.8-1-1.9-1.7-3.2-1.9c-1.3-0.1-2.6,0.3-3.5,1.2l0.2-1.7l3.5-1.6L288.4,13.6z"/>
<circle class="st4" cx="15.1" cy="15.2" r="6.2"/>
<circle class="st5" cx="15.1" cy="15.2" r="5.5"/>
<polygon class="st6" points="18.5,13.3 18.5,17.2 15.1,19.1 11.8,17.2 11.8,13.3 15.1,11.4 "/>
<path class="st7" d="M18.5,13.3V15c-0.9-0.9-2.1-1.5-3.4-1.5S12.6,14,11.7,15v-1.7l3.3-1.9L18.5,13.3z"/>
<circle class="st4" cx="15.1" cy="178.8" r="6.2"/>
<circle class="st5" cx="15.1" cy="178.8" r="5.6"/>
<polygon class="st6" points="19,178.5 17.3,182 13.4,182.3 11.2,179.1 12.9,175.6 16.8,175.3 "/>
<path class="st7" d="M19,178.5l-0.8,1.6c-0.4-1.2-1.2-2.2-2.4-2.9c-1.2-0.6-2.5-0.6-3.7-0.1l0.8-1.6l3.9-0.3L19,178.5z"/>
<circle class="st4" cx="284" cy="178.8" r="6.2"/>
<circle class="st5" cx="284" cy="178.8" r="5.5"/>
<polygon class="st6" points="286.8,176.1 287.7,179.9 284.8,182.6 281.1,181.4 280.3,177.5 283.2,175 "/>
<path class="st7" d="M286.8,176.1l0.4,1.7c-1-0.8-2.4-1-3.6-0.8c-1.3,0.3-2.4,1.1-3,2.2l-0.4-1.7l2.9-2.6L286.8,176.1z"/>
<polygon class="st8" points="260.6,123.5 260.6,149.9 233.9,164.9 233.8,138.9 233.8,138.3 238.7,128.4 238.8,128.2 255.6,118.4 
	255.6,118.4 255.6,118.4 "/>
<polygon class="st9" points="238.7,128.4 233.8,138.4 171.4,103.2 176.3,92.6 238.6,128.3 "/>
<polygon class="st10" points="233.8,138.4 233.9,164.9 233.1,165.4 171.6,130 171.4,103.3 171.4,103.3 171.4,103.2 "/>
<polygon class="st11" points="238.8,128.4 255.7,118.4 193.6,82.5 176.4,92.6 "/>
<polyline class="st12" points="171.5,117.4 233.9,150.4 260.6,134.3 "/>
<polygon class="st13" points="229.3,108.1 229.3,112.7 227.8,113.7 227.7,113.7 227.7,104.8 229.2,104.1 "/>
<polygon class="st14" points="229.2,103.9 229.2,104.1 227.7,104.8 227.7,104.7 201,89.6 202.8,88.3 "/>
<path class="st15" d="M225.8,108.2l-0.1,4.3v0.8c-1.3-0.8-2.6-1.6-3.9-2.2l-0.4-0.2l0.1-0.9c0-0.7,0.2-1.3,0.4-1.9
	c0.3-0.6,0.9-1,1.6-0.9C224.3,107.2,225.1,107.6,225.8,108.2z"/>
<path class="st14" d="M204.3,94.1v2.1l0,0c-0.2,0.1-0.3,0.1-0.5,0.2s-0.3,0.2-0.5,0.2c-0.2,0.1-0.3,0.2-0.5,0.3v-3.6L204.3,94.1z"/>
<path class="st16" d="M209.1,100.4l-2.6,1.7V101c0-0.6,0.2-1.1,0.6-1.6c0.3-0.3,0.7-0.6,1.1-0.6c0.2,0,0.5,0,0.7,0.2
	c0.1,0.1,0.2,0.3,0.2,0.5C209.1,99.8,209.1,100.1,209.1,100.4z"/>
<path class="st15" d="M208.9,98.9L208.9,98.9c-0.2-0.1-0.4-0.2-0.7-0.2c-0.4,0.1-0.8,0.3-1.1,0.6c-0.4,0.4-0.6,1-0.6,1.6v1.2l0,0
	l-3.7-1.9l-0.4-0.7h0.4v-2.8c0.2-0.1,0.3-0.2,0.5-0.3c0.1-0.1,0.3-0.2,0.5-0.2s0.4-0.2,0.5-0.2l0,0c0.8,0.4,1.7,0.8,2.5,1.2
	c0.4,0.2,0.8,0.4,1.2,0.7c0.2,0.1,0.4,0.2,0.6,0.4C208.7,98.5,208.8,98.7,208.9,98.9z"/>
<path class="st17" d="M227.7,113.7L227.7,113.7l-2-0.5v-0.8l0.1-4.3v-2l-13-7.3l-8.6-4.8l-1.4-0.8v3.6l-0.1,3.4l-2.2-1.3l0.2-6.9
	v-2.3l0.2-0.2l26.7,15.1L227.7,113.7L227.7,113.7z"/>
<path class="st18" d="M215.9,141.4L215.9,141.4c0.3-0.1,0.6-0.1,0.8,0l4.2,1.8c0.1,0.1,0.2,0.1,0.3,0.2l0.4,0.4
	c0.2,0.2,0.3,0.4,0.2,0.7l-0.1,3c0,0.2-0.1,0.4-0.2,0.6l-0.2,0.3c-0.3,0.4-0.8,0.5-1.2,0.3l-4-2c-0.2-0.1-0.4-0.3-0.5-0.6l-0.2-0.6
	c0-0.1,0-0.2,0-0.3v-3C215.4,141.9,215.6,141.6,215.9,141.4z"/>
<path class="st19" d="M215.6,141.6L215.6,141.6c0.3-0.1,0.6-0.1,0.8,0l4.2,1.8c0.1,0.1,0.2,0.1,0.3,0.2l0.4,0.4
	c0.2,0.2,0.3,0.4,0.2,0.7l-0.1,3c0,0.2-0.1,0.4-0.2,0.6l-0.2,0.3c-0.3,0.4-0.8,0.5-1.2,0.3l-4-2c-0.2-0.1-0.4-0.3-0.5-0.6l-0.2-0.6
	c0-0.1,0-0.2,0-0.3v-3C215.1,142.1,215.3,141.7,215.6,141.6z"/>
<path class="st18" d="M216.4,134.6l0.3-0.2c0.3-0.2,0.8-0.2,1.1,0l3.8,2c0.4,0.2,0.6,0.6,0.6,1v3.6c0,0.3-0.2,0.7-0.4,0.9l-0.4,0.3
	c-0.3,0.3-0.8,0.3-1.2,0.1l-3.4-1.7c-0.2-0.1-0.4-0.2-0.5-0.4l-0.5-0.8c-0.1-0.2-0.2-0.4-0.2-0.6l0.1-3.3
	C215.8,135.2,216,134.8,216.4,134.6z"/>
<path class="st19" d="M216.1,134.6l0.3-0.2c0.3-0.2,0.8-0.2,1.1,0l3.8,2c0.4,0.2,0.6,0.6,0.6,1v3.6c0,0.3-0.1,0.7-0.4,0.9l-0.4,0.3
	c-0.3,0.3-0.8,0.3-1.2,0.1l-3.4-1.7c-0.2-0.1-0.4-0.2-0.5-0.4l-0.5-0.8c-0.1-0.2-0.2-0.4-0.2-0.6l0.1-3.3
	C215.5,135.2,215.7,134.8,216.1,134.6z"/>
<polygon class="st20" points="220,136.8 218.8,138.5 218.8,146.6 220,145.8 "/>
<polygon class="st21" points="220,136.8 217.6,135.4 216.3,137.4 218.8,138.5 "/>
<polygon class="st22" points="218.8,146.6 216.3,145.7 216.3,137.4 218.8,138.5 "/>
<polygon class="st23" points="218.7,139.6 219.8,140.3 221.2,140.1 219.6,139 "/>
<polygon class="st19" points="218.7,141.4 218.7,139.6 219.8,140.3 219.8,141.9 "/>
<polygon class="st20" points="221.2,140.1 219.8,140.3 219.8,141.9 221.2,141.6 "/>
<path class="st18" d="M180.5,122.8L180.5,122.8c0.3-0.1,0.6-0.1,0.8,0l4.2,1.8c0.1,0.1,0.2,0.1,0.3,0.2l0.4,0.4
	c0.2,0.2,0.3,0.4,0.2,0.7l-0.1,3c0,0.2-0.1,0.4-0.2,0.6l-0.2,0.3c-0.3,0.3-0.8,0.5-1.2,0.2l-4-2c-0.2-0.1-0.4-0.3-0.5-0.6L180,127
	c0-0.1,0-0.2,0-0.3v-3C180,123.4,180.2,123,180.5,122.8z"/>
<path class="st19" d="M180.2,123L180.2,123c0.3-0.1,0.6-0.1,0.8,0l4.2,1.8c0.1,0.1,0.2,0.1,0.3,0.2l0.4,0.4c0.2,0.2,0.3,0.4,0.2,0.7
	l-0.1,3c0,0.2-0.1,0.4-0.2,0.6l-0.3,0.3c-0.3,0.3-0.8,0.4-1.2,0.3l-4-2c-0.2-0.1-0.4-0.3-0.5-0.6l-0.2-0.6c0-0.1,0-0.2,0-0.3v-3
	C179.8,123.5,179.9,123.2,180.2,123z"/>
<path class="st18" d="M181,116l0.3-0.2c0.4-0.2,0.8-0.2,1.1,0l3.8,2.1c0.4,0.2,0.6,0.6,0.6,1v3.6c0,0.3-0.2,0.7-0.4,0.9l-0.4,0.3
	c-0.3,0.3-0.8,0.3-1.2,0.1l-3.4-1.7c-0.2-0.1-0.4-0.2-0.5-0.4l-0.5-0.8c-0.1-0.2-0.2-0.4-0.2-0.6l0.1-3.3
	C180.4,116.6,180.7,116.2,181,116z"/>
<path class="st19" d="M180.7,116l0.3-0.2c0.4-0.2,0.8-0.2,1.1,0l3.8,2.1c0.4,0.2,0.6,0.6,0.6,1v3.6c0,0.3-0.2,0.7-0.4,0.9l-0.4,0.3
	c-0.3,0.3-0.8,0.3-1.2,0.1l-3.4-1.7c-0.2-0.1-0.4-0.2-0.5-0.4l-0.5-0.8c-0.1-0.2-0.2-0.4-0.2-0.6l0.1-3.3
	C180.1,116.6,180.3,116.2,180.7,116z"/>
<polygon class="st20" points="184.6,118.2 183.4,119.8 183.4,128 184.6,127.2 "/>
<polygon class="st21" points="184.6,118.2 182.2,116.8 180.9,118.8 183.4,119.8 "/>
<polygon class="st22" points="183.4,128 180.9,127.1 180.9,118.8 183.4,119.8 "/>
<polygon class="st23" points="183.4,121 184.4,121.7 185.8,121.5 184.3,120.4 "/>
<polygon class="st19" points="183.4,122.8 183.4,121 184.4,121.7 184.4,123.3 "/>
<polygon class="st20" points="185.8,121.5 184.4,121.7 184.4,123.3 185.8,123 "/>
<path class="st24" d="M202.1,162.7c-0.1-1.1-0.4-2.3-0.7-3.4c-1.3-4.6-5.4-18.5-9.2-26.9c-2.2-4.9-3.5-8.3-4.7-10.8
	c-1.3-2.9-3.3-5.5-5.8-7.5c-4.9-4.6-11.8-6.5-18.4-5.1c-10.1,1.3-15.4,1.4-17.4,2c-1.9,1.3-10.4,10-11,17.3
	c-0.5,5.3-0.1,12.6,3.6,18.4s18.5,33.4,25,34c7.7,0.8,27.5-0.1,33.3-4.2C202.1,172.8,202.7,168,202.1,162.7z"/>
<path class="st25" d="M167.2,179.9c-3.8,0-7.9-1.3-11.6-2.4l-1.3-0.4c-5.8-1.8-30.5-21.6-34.2-27.5c-3.6-5.6-3.8-12.7-3.4-17.6
	c0.4-4.3,3.7-8.6,9.9-12.8l0.2-0.2l0.5-0.3c4.1-2.9,8.8-5,13.7-6c1.3-0.3,2.7-0.4,4-0.4c2.5,0,4.9,0.5,7.2,1.4
	c2.2,0.9,4.3,2.3,6.1,3.9c2.3,1.9,4.2,4.4,5.5,7.1c0.5,1.1,1.1,2.4,1.7,4c0.8,1.8,1.8,4.1,3,6.9c3.8,8.4,7.9,22.6,9.1,26.7
	c0.3,1,0.5,2.1,0.6,3.2c0.6,5.2,0,9.4-4.7,12.7C171.7,179.5,169.5,180.1,167.2,179.9L167.2,179.9z"/>
<path d="M179.6,166.3c0-0.4-0.1-0.7-0.1-1.1c-0.1-0.8-0.2-1.7-0.4-2.5c-0.1-0.3-0.1-0.5-0.2-0.8c0,0,0,0,0-0.1
	c-0.1-0.2-0.1-0.5-0.2-0.7l0,0c-0.5-1.9-1.4-4.7-2.4-8l0,0c-0.2-0.5-0.3-1-0.5-1.5c-0.3-0.9-0.6-1.8-0.9-2.7c-0.7-2-1.4-4-2.1-6
	c-0.1-0.1-0.1-0.3-0.2-0.5c-0.6-1.8-1.3-3.5-1.9-5c-0.3-0.8-0.7-1.6-1-2.4c-0.3-0.7-0.6-1.4-0.9-2c-0.4-0.8-0.7-1.6-1-2.4
	c0-0.1,0-0.1-0.1-0.2c-0.1-0.2-0.2-0.4-0.2-0.6c0-0.1-0.1-0.2-0.1-0.3c-0.1-0.3-0.2-0.6-0.4-0.9c-0.2-0.5-0.4-1-0.6-1.4
	c0,0,0-0.1-0.1-0.2c0-0.1-0.1-0.2-0.1-0.3c0-0.1-0.1-0.2-0.1-0.3c0-0.1-0.1-0.2-0.1-0.2l0,0c-0.1-0.2-0.2-0.3-0.2-0.5
	c-0.1-0.3-0.3-0.6-0.4-0.9c0-0.1-0.1-0.2-0.1-0.3c-0.1-0.1-0.1-0.2-0.2-0.3c-0.1-0.1-0.1-0.3-0.2-0.4c0,0,0-0.1-0.1-0.1
	c-0.1-0.2-0.2-0.4-0.3-0.6c0,0-0.1-0.1-0.1-0.2c0,0,0,0,0-0.1c-0.2-0.4-0.4-0.7-0.6-1.1c0-0.1-0.1-0.1-0.1-0.2
	c-0.1-0.1-0.1-0.2-0.2-0.3c-0.1-0.2-0.2-0.4-0.4-0.5c-0.1-0.1-0.1-0.2-0.2-0.3c-0.1-0.2-0.3-0.3-0.4-0.5c-0.2-0.3-0.5-0.6-0.7-0.8
	c-0.6-0.7-1.2-1.3-1.9-1.9c-0.2-0.2-0.4-0.4-0.6-0.6c-0.7-0.6-1.4-1.2-2.2-1.7c-0.5-0.4-1.1-0.7-1.7-1.1c-0.8-0.5-1.7-0.9-2.6-1.3
	c-1.1-0.4-2.2-0.8-3.4-1l0,0c-0.1,0-0.3-0.1-0.4-0.1l0,0c-1-0.2-1.9-0.3-2.9-0.3c-0.3,0-0.6,0-0.9,0l0,0c-1.4,0-2.9,0.2-4.3,0.4
	c-0.6,0.1-1.2,0.3-1.8,0.5c-0.2,0-0.4,0.1-0.5,0.2c-1.5,0.4-2.9,0.9-4.3,1.5l0,0c-0.5,0.2-1.1,0.5-1.6,0.7c-0.2,0.1-0.5,0.2-0.7,0.4
	c-1.1,0.5-2.1,1.1-3.2,1.8c-0.2,0.1-0.4,0.3-0.6,0.4c-0.3,0.2-0.6,0.4-0.9,0.6s-0.5,0.4-0.8,0.6s-0.9,0.6-1.5,1l0,0
	c-3,2.1-8.6,6.6-9.1,12.7c-0.1,1.2-0.2,2.5-0.2,3.9c0,2.3,0.2,4.8,0.8,7.3c0.6,2.5,1.5,5,2.9,7.2c0.6,0.9,1.8,2.3,3.3,3.8
	c1.7,1.8,4,3.8,6.4,6c0.1,0,0.1,0.1,0.2,0.1c2.1,1.8,4.3,3.7,6.6,5.5c1.6,1.3,3.2,2.5,4.8,3.8c0.2,0.2,0.5,0.3,0.7,0.5
	c0,0,0,0,0.1,0c0.4,0.3,0.7,0.6,1.1,0.8c0.4,0.3,0.8,0.6,1.1,0.8c4.6,3.4,8.6,5.9,10.6,6.5c2.7,0.8,5.8,1.9,8.8,2.5
	c0.5,0.1,1,0.2,1.5,0.2c1,0.1,2,0.2,2.9,0.2c0.5,0,1,0,1.5,0c2-0.2,3.9-0.9,5.6-2C179.2,175.6,180,171.2,179.6,166.3z M167.2,178.8
	c-2.8,0-5.8-0.8-8.7-1.6c-0.8-0.2-1.7-0.5-2.5-0.8l-1.3-0.4c-1.3-0.4-3.8-1.9-7.1-4.2c-0.4-0.3-0.8-0.5-1.2-0.8s-0.8-0.5-1.2-0.8
	c0,0,0,0-0.1,0c-0.5-0.4-1-0.8-1.6-1.2c-2.1-1.5-4.3-3.2-6.6-5.1c-0.4-0.3-0.8-0.6-1.2-1c-1.1-0.9-2.2-1.8-3.2-2.7
	c-0.1-0.1-0.2-0.1-0.2-0.2c-5.7-4.8-10.1-9.1-11.3-11c-0.2-0.3-0.3-0.6-0.5-0.9c-0.8-1.4-1.5-3.1-2-5.3c0-0.1-0.1-0.2-0.1-0.3
	c-0.7-2.8-1-6.2-0.6-10.5c0.2-2.5,1.5-5,4-7.5c0.8-0.8,1.8-1.7,2.7-2.4l0,0c0.7-0.6,1.5-1.2,2.3-1.7c0.1-0.1,0.3-0.2,0.4-0.3
	l0.2-0.2l0.5-0.3c0.2-0.1,0.3-0.2,0.5-0.4c1.3-0.9,2.6-1.7,4-2.4c0.2-0.1,0.3-0.2,0.5-0.2c1.4-0.7,2.9-1.3,4.4-1.8
	c0.5-0.1,1-0.3,1.4-0.4c0.8-0.2,1.6-0.4,2.4-0.6l0,0c0.7-0.1,1.5-0.3,2.2-0.3c0.5,0,1.1-0.1,1.6-0.1l0,0c1.4,0,2.7,0.2,4.1,0.5
	c0.2,0,0.5,0.1,0.7,0.2l0,0c0.7,0.2,1.3,0.4,2,0.7c0.2,0.1,0.4,0.2,0.5,0.2c1.5,0.7,3,1.6,4.3,2.6c0.4,0.3,0.7,0.6,1,0.9
	c0.2,0.2,0.4,0.3,0.6,0.5l0,0c0.6,0.5,1.1,1.1,1.6,1.7c0.1,0.1,0.1,0.2,0.2,0.2c0.1,0.1,0.2,0.2,0.2,0.3c0.1,0.2,0.3,0.3,0.4,0.5
	c0.3,0.3,0.5,0.7,0.8,1.1l0.2,0.3c0.3,0.5,0.6,1.1,0.9,1.7c0.1,0.1,0.2,0.3,0.2,0.5c0.1,0.2,0.1,0.3,0.2,0.5c0.1,0.3,0.3,0.6,0.4,1
	c0.1,0.2,0.1,0.3,0.2,0.5c0.1,0.1,0.1,0.3,0.2,0.4c0.1,0.2,0.2,0.4,0.3,0.7s0.2,0.6,0.4,0.9c0.4,0.9,0.8,1.9,1.3,3
	c0,0.1,0.1,0.2,0.1,0.3c0,0,0,0.1,0.1,0.2c0.2,0.4,0.4,0.9,0.6,1.4c0.1,0.2,0.2,0.4,0.3,0.6c0,0.1,0.1,0.2,0.1,0.3
	c0.1,0.2,0.2,0.5,0.3,0.7c0,0,0,0.1,0.1,0.1c0,0.1,0.1,0.2,0.1,0.3c0.3,0.6,0.5,1.3,0.8,1.9c0.5,1.1,0.9,2.3,1.4,3.5
	c0.1,0.2,0.2,0.5,0.3,0.7l0,0c1.1,3,2.2,6.1,3.1,9c0.5,1.4,0.9,2.8,1.3,4.1v0.1c1,3.2,1.8,5.8,2.2,7.2l0,0l0,0
	c0.1,0.2,0.1,0.5,0.2,0.8c0.1,0.3,0.1,0.5,0.2,0.8c0.1,0.5,0.2,0.9,0.2,1.4c0.5,4.8,0,8.7-4.3,11.7
	C171.3,178.3,169.3,178.9,167.2,178.8z M167.2,132.5c0-0.1-0.1-0.2-0.1-0.3c-0.1-0.2-0.2-0.5-0.3-0.7c-0.2-0.5-0.4-1-0.6-1.4
	c0,0,0-0.1-0.1-0.1c0-0.1-0.1-0.2-0.1-0.3c-0.1-0.3-0.3-0.6-0.4-0.9c-0.2-0.5-0.4-1-0.6-1.5c-0.1-0.2-0.1-0.3-0.2-0.5
	c-0.1-0.2-0.1-0.3-0.2-0.5v0.5h-0.2v0.4h-0.5c0.1,0.1,0.1,0.3,0.2,0.4c0.1,0.2,0.2,0.4,0.3,0.7s0.2,0.6,0.4,0.9
	c0.4,0.9,0.8,1.9,1.3,3c0,0.1,0.1,0.2,0.1,0.3c0,0,0,0.1,0.1,0.2c0.2,0.4,0.4,0.9,0.6,1.4c0.1,0.2,0.2,0.4,0.3,0.6
	c0,0.1,0.1,0.2,0.1,0.3c0.1,0.2,0.2,0.5,0.3,0.7c0,0,0,0.1,0.1,0.1l0.1-2.3l0,0C167.5,133,167.3,132.8,167.2,132.5z"/>
<ellipse transform="matrix(2.006966e-02 -0.9998 0.9998 2.006966e-02 -5.3614 267.8932)" class="st26" cx="134" cy="136.7" rx="14.9" ry="11.9"/>
<ellipse transform="matrix(1.867441e-02 -0.9998 0.9998 1.867441e-02 -12.2432 303.4546)" class="st26" cx="148.5" cy="158" rx="10.6" ry="8.5"/>
<ellipse transform="matrix(1.867441e-02 -0.9998 0.9998 1.867441e-02 -4.4463 328.774)" class="st26" cx="165.3" cy="166.7" rx="8.4" ry="6.7"/>
<ellipse transform="matrix(1.999650e-02 -0.9998 0.9998 1.999650e-02 -6.0986 267.1806)" class="st27" cx="133.2" cy="136.7" rx="5.6" ry="4"/>
<ellipse transform="matrix(0.2593 -0.9658 0.9658 0.2593 -43.2521 260.4218)" class="st27" cx="148.2" cy="158.4" rx="4.8" ry="3.5"/>
<ellipse transform="matrix(0.2589 -0.9659 0.9659 0.2589 -37.8802 283.9054)" class="st27" cx="166.1" cy="166.6" rx="3.6" ry="2.6"/>
<path class="st28" d="M170.2,155.5c0,0-1.8-3.9-7.6-2.2c-1-2.5-2.9-9.2-13.2-8.8c0.6-2.3,5-12-2.4-22c3.1-1.2,4.9-2.1,8.6,2.8
	C159.3,130.2,170.6,154.3,170.2,155.5z"/>
<line class="st29" x1="187.5" y1="121.6" x2="164.4" y2="123"/>
<line class="st29" x1="174.6" y1="109.8" x2="148.9" y2="111.5"/>
<polyline class="st29" points="145.2,111.7 138.4,112.1 138.4,112.1 "/>
<line class="st29" x1="193.7" y1="135.9" x2="170.6" y2="137.4"/>
<line class="st29" x1="198.7" y1="150.2" x2="175.7" y2="151.6"/>
<line class="st29" x1="202.3" y1="164.9" x2="179.6" y2="166.3"/>
<path class="st30" d="M202.8,109.7l-32.2-12.6c-5.4-2.3-9.6-3-12.2,2.1l0,0c-2,5.2,0.5,6.9,5.1,9.8l31.1,20.1
	c5.1,2.6,11.3,0.5,13.9-4.5l0,0C211.1,119.5,207.9,112.2,202.8,109.7z"/>
<path class="st31" d="M200.4,108.7L167,95c-5.4-2.3-11.7,9-7.1,11.9L191,127c5.1,2.6,11.3,0.5,13.9-4.5l0,0
	C207.4,117.4,205.4,111.3,200.4,108.7z"/>
<path class="st32" d="M207.3,118.8c0,0,0.6-1.6-0.9-4.5c4.3-1.2,15-2.7,16.2-1.4c0.8,0.9,1.3,2.9,1.7,4.8c0.4,1.4-0.4,2.8-1.8,3.1
	l0,0c-0.3,0.1-0.5,0.1-0.8,0.1c-5.3-0.4-13.4-1.2-13.4-1.2L207.3,118.8z"/>
<path class="st33" d="M206.3,114.2c4.3-1.2,14.5-3.8,15.6-2.6c1,1.4,1.6,3,2,4.7c0.4,1.3-0.4,2.7-1.7,3.1l0,0l0,0
	c-0.3,0.1-0.6,0.1-0.9,0.1c-5.3-0.4-13.8-0.4-14.2-0.7C207.6,117.3,207.3,115.6,206.3,114.2z"/>
<path class="st32" d="M205,125.4c0,0,1.5-1,2-4.2c4.1,1.6,13.6,7,13.7,8.7c0.1,1.2-0.7,3.1-1.5,4.9c-0.5,1.3-2.1,1.9-3.4,1.4l0,0
	c-0.2-0.1-0.4-0.2-0.6-0.4c-4-3.5-9.9-9.1-9.9-9.1L205,125.4z"/>
<path class="st33" d="M207,121.1c4.1,1.6,13.9,5.7,14,7.4c-0.1,1.7-0.5,3.4-1.2,4.9c-0.5,1.3-2,2-3.3,1.5c-0.3-0.1-0.5-0.3-0.8-0.5
	c-4-3.5-10.8-8.7-10.9-9.1C206.2,124.4,207,122.8,207,121.1z"/>
<path class="st32" d="M198.1,128.6c0,0,1.7,0.3,4.2-1.8c2,4,5.7,10.5,4.6,11.9c-0.7,0.9-0.7,1.1-2.6,1.9c-1.3,0.6-2.9,0-3.5-1.4
	c-0.1-0.2-0.2-0.4-0.2-0.6c-0.8-3.1-1.9-6.1-3.3-9L198.1,128.6z"/>
<path class="st33" d="M202.4,126.8c2,4,6.7,9.8,5.7,11.1c-0.5,1-1.3,1.7-2.4,2.1c-1.6,0.8-3.2-0.2-3.7-1.9c-1.4-5.1-4.3-9.2-4.1-9.6
	C199.6,128.7,201.3,128,202.4,126.8z"/>
<path class="st32" d="M203.9,110.2l1.6,2.9c0,0,1,0.4,1.3,0.4c1.3,0.3,10.3-5.7,9.1-7.5s-3.4-3.8-4.2-3.6h-1.1
	C210.6,102.5,203.3,110.1,203.9,110.2z"/>
<path class="st33" d="M202.7,109.8c0.7,0.4,1.2,0.9,1.8,1.5c0.4,0.6,0.8,1.2,1.1,1.8c0.7,1.2,10.3-5.7,9.1-7.5s-3.5-3.4-4.3-3.2
	S202,109.6,202.7,109.8z"/>
<ellipse transform="matrix(0.8776 -0.4793 0.4793 0.8776 -32.3863 108.131)" class="st34" cx="195.6" cy="117.5" rx="4" ry="3.7"/>
<path class="st35" d="M181.5,100.6c0,0-28-14.6-40.8-17.3c0,0-34.4-3-64.1-2.1c3.4,2.7,33.1,16.2,37.3,17.2S170.1,101.9,181.5,100.6
	z"/>
<path class="st36" d="M123.4,95.5c0,0-11.3-7.2-12.5-7.6s22.3-0.4,22.3-0.4s11,6.8,11.8,7.5S123.4,95.5,123.4,95.5z"/>
<path class="st37" d="M76.3,81.1c0,0-4.4,49-1.2,61.5c3.6,3.2,28.4,15.5,36.5,15.8c1.1-5.6,4-56,1.9-60.1
	C110.7,95.8,88.5,85,76.3,81.1z"/>
<path class="st27" d="M181.5,100.6c0,0,0.1,25.1-1.5,43.5c-0.6,7.1-7.6,13.7-8.8,14c-2.7,2.3-63.5,2.7-66.9,0.2
	c4.4-3.7,7-9.1,7.1-14.8c0.3-12.2,1.7-30.4,2.2-45.2C115.8,97.2,170.9,98.6,181.5,100.6z"/>
<path class="st38" d="M126.5,69.6l-4.8,17.9l15.6,4.3c2.6,0.7,5.8-2.7,7.1-7.7s0.3-9.5-2.4-10.2c-1-0.2-2,0-2.8,0.6L126.5,69.6z"/>
<path class="st39" d="M186.9,95.2c0,0-7.4,0.9-17.4-3c-4.4-1.7-9.6-5.1-14.5-8.5c-15.9-11.3-18.8-24.2-18.8-24.2s7.4-11.2,9.7-15
	s11.9-8.5,11.9-8.5L186.9,95.2z"/>
<path class="st39" d="M77.1,53.8c0,0,1.9,7.3,14,10s30.8,2.7,30.8,2.7l14.8-11.6L77.1,53.8z"/>
<path class="st27" d="M153.4,38.3l-7.5-3.8l-5.2,20.1l5.9,1.6C146.6,56.1,150.7,44.8,153.4,38.3z"/>
<polygon class="st40" points="146.6,56.1 141.3,60.4 137.1,59.2 140.7,54.5 "/>
<polygon class="st41" points="151.3,57.3 135,53 128.3,82 143.9,85.8 "/>
<path class="st42" d="M146.7,55.9l-0.5,3.6c0,0.2,0,0.3,0.1,0.5l3.4,4.2c0.2,0.3,0.6,0.3,0.9,0.1c0.1-0.1,0.1-0.1,0.2-0.2l0.4-0.9
	c0.1-0.2,0.1-0.4,0-0.5l-3.3-6.8c-0.2-0.3-0.5-0.4-0.8-0.2l0,0C146.8,55.5,146.7,55.7,146.7,55.9z"/>
<polygon class="st43" points="121.8,66.5 121.7,73.4 128.3,82 135,53 "/>
<path class="st39" d="M140.4,55c0,0-1.2,3.2-2,3.6c-4,0.8-8,1.4-12.1,1.7c-1.1-0.1-0.2-2.6-0.2-2.6L140.4,55z"/>
<path class="st44" d="M140.4,55c0,0-1.4,3.9-2.3,3.7c-1.2,0.2-10.2,1.6-10.2,1.6"/>
<path class="st45" d="M108.3,58.1c-13.3,0-23.8-1.2-28.4-3.2c-0.9-0.4-1.4-1.3-1.3-2.2c0.5-5.9,2.4-20.9,8.7-31.4
	c0.4-0.7,1.1-1.1,1.9-1.1h0.2c6.7,0.5,30.5,2.7,53.7,10.6c1,0.3,1.6,1.4,1.5,2.4c-1.1,7.3-4.1,18.6-5.8,21.9
	C136.9,56.4,124.7,58.1,108.3,58.1z"/>
<path class="st46" d="M146,31.8C145.9,31.7,145.9,31.7,146,31.8c0-0.1,0-0.1,0-0.1c-0.1-0.2-0.2-0.5-0.3-0.7
	c-0.2-0.3-0.4-0.5-0.6-0.8c-0.4-0.4-0.9-0.7-1.4-0.9c-23.2-8-46.8-10.2-54-10.7h-0.4v3.2c3.3,0.2,10.9,0.9,20.5,2.5
	c8.1,1.3,17.7,3.3,27.3,6.3c0.6,0.2,1.2,0.4,1.7,0.6c0.6,0.2,1.2,0.4,1.8,0.6h0.1c0.6,0.2,1.2,0.4,1.8,0.6c0,0,0.1,0,0.1,0.1
	c0.2,0.1,0.3,0.3,0.3,0.5l0,0l0,0c-0.7,4.9-2.2,11.3-3.6,15.9c-0.6,2-1.2,3.7-1.7,4.8c0,0.1-0.1,0.2-0.1,0.2
	c-0.4,0.2-1.2,0.4-2.8,0.7c-0.4,0.1-0.9,0.2-1.4,0.3c0,0-0.1,0-0.2,0c-1.4,0.2-3.2,0.5-5.4,0.7c-0.6,0.1-1.2,0.1-1.8,0.2
	c-2.7,0.2-5.6,0.4-8.6,0.5c-2.9,0.1-6,0.2-9,0.2h-1.1l0,0c-0.3,0-0.5,0-0.8,0s-0.5,0-0.8,0c-10.5-0.1-19.1-1-23.7-2.5
	c-0.5-0.2-1-0.3-1.4-0.5c-0.2-0.1-0.4-0.4-0.3-0.6c0.5-5.8,2.4-20.5,8.5-30.7c0.1-0.2,0.3-0.3,0.5-0.3v-3.3c-1.4,0-2.6,0.7-3.3,1.9
	c-6.4,10.8-8.3,26.3-8.8,32.1c0,0.5,0,0.9,0.1,1.3c0.3,1.1,1.1,2,2.2,2.5c4.9,2.1,14.9,3.1,25.3,3.3c0.3,0,0.5,0,0.8,0s0.5,0,0.8,0
	l0,0c0.7,0,1.5,0,2.2,0c2.6,0,5.3,0,7.8-0.1c2.4-0.1,4.7-0.2,6.8-0.3c0.9-0.1,1.8-0.1,2.7-0.2c1.3-0.1,2.6-0.2,3.8-0.4l0,0
	c1-0.1,2-0.2,2.9-0.4c0.5-0.1,1-0.2,1.4-0.2l0,0c0,0,0,0,0.1,0c0.4-0.1,0.7-0.1,1.1-0.2c0.4-0.1,0.8-0.2,1.2-0.2
	c0.5-0.1,1-0.2,1.4-0.3c0.5-0.2,1-0.3,1.4-0.5s0.7-0.4,0.9-0.5l0,0c0.1-0.1,0.1-0.1,0.2-0.2c0.2-0.4,0.5-0.9,0.7-1.5l0,0
	c0.1-0.3,0.3-0.6,0.4-1c0.1-0.4,0.3-0.7,0.4-1.1c0.1-0.3,0.2-0.7,0.3-1c0,0,0,0,0-0.1c0.1-0.3,0.2-0.7,0.3-1.1
	c0.1-0.5,0.3-1,0.5-1.6c1.3-4.5,2.6-9.9,3.2-14.2l0,0c0.1-0.3,0.1-0.7,0.2-1C146.2,32.9,146.1,32.3,146,31.8z M133,54.8h0.1l0,0
	C133.1,54.8,133.1,54.8,133,54.8z M89.2,18.6L89.2,18.6L89.2,18.6L89.2,18.6z"/>
<polygon class="st41" points="142.9,88.4 141.5,94.7 123.6,94.7 126.4,85.1 "/>
<polygon class="st43" points="118.9,80.2 113,88.2 123.6,94.7 126.4,85.1 "/>
<ellipse transform="matrix(0.2581 -0.9661 0.9661 0.2581 16.1839 178.2624)" class="st47" cx="124.2" cy="78.6" rx="9.3" ry="4.9"/>
<path class="st48" d="M146.9,55.6c0,0-0.9,4-0.6,4.3l3.4,4.2"/>
<path class="st45" d="M185.6,93.6c-0.2,0-0.5,0-0.7-0.1c-5.4-1.9-14.2-8.5-23.6-17.7c-9.9-9.7-14.3-16.1-14.5-17.5
	c0.9-3.5,6.4-14.1,10.5-20.1c0.4-0.6,1.1-0.9,1.8-0.9c0.3,0,0.6,0.1,0.8,0.2c14.8,6.3,28.7,14.4,41.5,24.2c0.6,0.5,0.9,1.3,0.8,2.1
	c-2.5,11.9-11.1,24.2-14.7,29C186.9,93.3,186.3,93.6,185.6,93.6L185.6,93.6z"/>
<path class="st46" d="M202.4,60.3c-3-2.4-8.1-6.3-15.6-10.8c-0.5-0.3-1-0.6-1.5-0.9l0,0c-0.5-0.3-1-0.6-1.5-0.9l0,0
	c-6.3-3.7-14-7.8-23.2-11.8c-0.2-0.1-0.5-0.2-0.8-0.2c-0.2,0-0.5-0.1-0.7-0.1l0,0c-1,0-2,0.4-2.7,1.1c-0.2,0.2-0.3,0.3-0.5,0.5
	c-1.9,2.8-4.1,6.6-6.1,10.3l0,0c-0.2,0.5-0.5,0.9-0.7,1.4c-0.1,0.2-0.2,0.4-0.3,0.5l0,0c-0.1,0.2-0.2,0.5-0.4,0.7
	c-0.1,0.2-0.2,0.5-0.3,0.7c-0.9,1.9-1.7,3.6-2.2,5c-0.2,0.4-0.3,0.9-0.5,1.2c-0.1,0.3-0.2,0.6-0.2,0.9c-0.3,1,1.4,3.7,4.1,7.2
	c3.5,4.4,8.9,10.1,14.7,15.4c0.2,0.2,0.5,0.4,0.7,0.7c0.2,0.2,0.5,0.4,0.7,0.6c1.9,1.7,3.8,3.3,5.7,4.9c0.2,0.2,0.5,0.4,0.7,0.5
	c1,0.8,2,1.5,2.9,2.2c1.1,0.8,2.2,1.5,3.2,2.2c0.4,0.2,0.8,0.5,1.1,0.7c2,1.2,3.8,2.1,5.4,2.7c0.2,0.1,0.4,0.1,0.7,0.2
	c0.2,0,0.4,0,0.6,0c0.1,0,0.2,0,0.4,0c0.1,0,0.3,0,0.4-0.1c0.1,0,0.3-0.1,0.4-0.1c0.7-0.2,1.4-0.7,1.9-1.3c0.1-0.1,0.2-0.2,0.3-0.3
	c0.9-1.2,2.2-2.9,3.6-5l0,0c0.1-0.2,0.3-0.4,0.4-0.6c0.1-0.2,0.3-0.4,0.4-0.6c0.7-1.1,1.4-2.3,2.2-3.5c3.3-5.6,6.8-12.6,8.2-19.5
	C204.1,62.7,203.5,61.2,202.4,60.3z M191.5,83.8c-0.1,0.1-0.1,0.2-0.2,0.2c-0.3,0.5-0.6,1-0.9,1.4c-0.3,0.5-0.6,0.9-0.9,1.3
	c-0.3,0.4-0.5,0.8-0.8,1.1c-1.1,1.6-2.1,2.9-2.8,3.9c-0.1,0.1-0.1,0.1-0.2,0.2h-0.1h-0.1c-0.1,0-0.2-0.1-0.3-0.1
	c-1.2-0.4-2.5-1.1-4-2l0,0c-0.6-0.4-1.2-0.7-1.8-1.1c-0.5-0.4-1.1-0.7-1.7-1.2c-0.2-0.1-0.4-0.3-0.6-0.4c-0.7-0.5-1.4-1-2.1-1.5
	c-2.9-2.2-6-4.9-9.3-7.9l0,0c-0.2-0.2-0.5-0.4-0.7-0.7c-0.2-0.2-0.5-0.4-0.7-0.7c-0.4-0.4-0.8-0.8-1.2-1.2
	C156.8,69,152.6,64,150.3,61l0,0c-0.9-1.3-1.5-2.2-1.8-2.8c0-0.2,0.1-0.3,0.2-0.5c0.1-0.3,0.2-0.6,0.3-0.9c0.5-1.3,1.3-2.9,2.2-4.8
	c0.1-0.2,0.2-0.5,0.3-0.7s0.2-0.4,0.4-0.7l0,0c0.3-0.6,0.7-1.3,1-2c1.8-3.3,3.8-6.7,5.6-9.5c0.1-0.1,0.2-0.2,0.4-0.2l0,0h0.2
	c0.1,0,0.1,0,0.2,0.1c4.1,1.8,8.2,3.6,12.1,5.7c5.5,2.8,10.8,5.9,16,9.2l0,0c0.4,0.2,0.8,0.5,1.2,0.8c0.4,0.2,0.8,0.5,1.1,0.8
	c3.6,2.4,7.1,4.9,10.5,7.5c0.1,0.1,0.2,0.3,0.2,0.5C198.9,70.6,195,78.1,191.5,83.8z M177.1,87.1c-0.7-0.5-1.4-1-2.1-1.5
	c-2.9-2.2-6-4.9-9.3-7.9l0,0c-0.2-0.2-0.5-0.4-0.7-0.7c-0.2-0.2-0.5-0.4-0.7-0.7c-0.4-0.4-0.8-0.8-1.2-1.2
	C156.8,69,152.6,64,150.3,61l0,0l-0.6,2.1c0.3,0.3,0.5,0.7,0.8,1c0,0,0,0.1-0.1,0.1c-0.3,0.2-0.7,0.2-0.9-0.1l-0.1-0.1l-0.3,1.2
	c3.5,4.4,8.9,10.1,14.7,15.4c0.2,0.2,0.5,0.4,0.7,0.7c0.2,0.2,0.5,0.4,0.7,0.6c1.9,1.7,3.8,3.3,5.7,4.9l2.8,0.1
	c0.2,0.2,0.5,0.4,0.7,0.5h0.3l2.8,0.1C177.5,87.3,177.3,87.2,177.1,87.1z"/>
<path class="st49" d="M121.7,54.2c-0.9,0-1.7-0.1-2.6-0.3c-6.2-1.5-10-8.3-8.3-15.1c1.4-5.8,6.3-9.8,11.8-9.8c0.9,0,1.8,0.1,2.6,0.3
	c6.2,1.5,10,8.3,8.3,15.1C132.1,50.2,127.2,54.2,121.7,54.2L121.7,54.2z"/>
<path class="st50" d="M134.5,36.4c-0.4-1.2-1-2.3-1.7-3.4l0,0c-0.1-0.2-0.3-0.4-0.5-0.6c-0.2-0.2-0.3-0.4-0.5-0.6
	c-1.6-1.9-3.8-3.2-6.3-3.8c-1-0.2-1.9-0.4-2.9-0.4c-6,0-11.5,4.4-13.1,10.9c-0.8,3.2-0.5,6.4,0.6,9.1c0.1,0.3,0.2,0.5,0.3,0.8
	c0.1,0.3,0.3,0.5,0.4,0.8l0,0c1.3,2.4,3.4,4.3,5.9,5.4c0.3,0.1,0.6,0.3,1,0.4c0.3,0.1,0.6,0.2,1,0.3c1,0.2,1.9,0.4,2.9,0.4
	c1.6,0,3.1-0.3,4.5-0.9c0.5-0.2,0.9-0.4,1.3-0.6c1.1-0.6,2.1-1.3,3-2.2c2-1.9,3.5-4.4,4.2-7.3C135.5,41.8,135.4,39,134.5,36.4z
	 M112.7,46.6L112.7,46.6c-0.1-0.3-0.2-0.6-0.3-0.9c-0.1-0.3-0.2-0.5-0.2-0.8c-0.5-1.9-0.5-3.9,0-5.8c1.3-5.1,5.6-8.8,10.4-8.8l0,0
	c2.4,0,4.6,0.9,6.3,2.4c0.2,0.2,0.4,0.4,0.6,0.6l0,0c0.2,0.2,0.4,0.4,0.5,0.6l0,0c0.4,0.5,0.7,1,1,1.6c0.4,0.8,0.8,1.6,1,2.4
	c0.6,2,0.6,4.1,0.1,6.2c-1.3,5.1-5.6,8.8-10.4,8.8c-0.8,0-1.5-0.1-2.3-0.3c-0.2,0-0.3-0.1-0.5-0.1c-2.5-0.8-4.5-2.5-5.8-4.8
	C113,47.3,112.8,47,112.7,46.6z"/>
<path class="st49" d="M167,71.7c-1.7,0-3.5-0.4-5-1.2c-2.8-1.4-4.8-4-5.6-7c-0.9-3.2-0.5-6.6,1-9.6c2.1-4.3,6.4-7.1,11.2-7.2
	c1.7,0,3.5,0.4,5,1.2c2.8,1.4,4.8,4,5.6,7c0.9,3.2,0.5,6.6-1,9.6C176.1,68.8,171.8,71.6,167,71.7z"/>
<path class="st50" d="M174.2,46.7c-0.5-0.3-1.1-0.5-1.7-0.7c-1.3-0.4-2.6-0.6-3.9-0.6l0,0c-2,0-3.9,0.5-5.6,1.3
	c-1.5,0.7-2.9,1.7-4.1,2.9c-1,1-1.9,2.2-2.6,3.6l0,0c0,0.1-0.1,0.1-0.1,0.2c-0.1,0.2-0.2,0.3-0.2,0.5c-0.1,0.2-0.2,0.5-0.3,0.7
	c-2.7,6.7-0.3,14.2,5.8,17.2c1,0.5,2.1,0.9,3.2,1.1c0.2,0,0.5,0.1,0.8,0.1c0.2,0,0.5,0.1,0.8,0.1s0.6,0,0.9,0c2.8-0.1,5.5-1,7.8-2.5
	c0.4-0.3,0.8-0.6,1.2-0.9c1.4-1.2,2.6-2.7,3.5-4.5c0.3-0.7,0.6-1.4,0.9-2.1C182.5,56.6,180,49.6,174.2,46.7z M178,55.2
	c0.8,2.9,0.5,6-0.9,8.6c-0.4,0.9-1,1.7-1.6,2.5c-0.6,0.6-1.2,1.2-1.9,1.7c-1.8,1.4-4.1,2.2-6.5,2.2c-0.3,0-0.7,0-1,0s-0.5,0-0.8-0.1
	c-0.3,0-0.5-0.1-0.8-0.2c-0.6-0.2-1.2-0.4-1.8-0.7c-2.5-1.2-4.3-3.5-5-6.2c-0.6-2.2-0.5-4.6,0.1-6.7c0.1-0.3,0.2-0.5,0.3-0.8
	c0.1-0.2,0.2-0.5,0.3-0.8l0,0c0-0.1,0.1-0.2,0.2-0.3c0.8-1.6,1.9-3,3.2-4c0.7-0.6,1.5-1.1,2.4-1.5c1.4-0.6,2.8-1,4.4-1l0,0
	c1.5,0,3,0.3,4.3,1c1.6,0.8,3,2.1,3.9,3.6c0.4,0.6,0.7,1.3,0.9,2C177.8,54.8,177.9,55,178,55.2z"/>
<ellipse transform="matrix(0.2401 -0.9708 0.9708 0.2401 17.2729 179.9984)" class="st51" cx="123.6" cy="79" rx="4.6" ry="2.1"/>
<path class="st52" d="M144.5,84.2c7.2,1.3,37,16.4,37,16.4s-0.2,41-1.5,43.5c-0.6,3-0.8,6.7-7.7,13.3c-2.2,1.1-3.2,4-48,2.6"/>
<path class="st52" d="M117.7,81.7c0,0-39.7-1.3-41.4-0.6c0,0-2.5,34-2.2,36"/>
<ellipse transform="matrix(0.2593 -0.9658 0.9658 0.2593 62.7229 210.046)" class="st53" cx="168.3" cy="64.1" rx="5.8" ry="4.9"/>
<ellipse transform="matrix(3.350531e-02 -0.9994 0.9994 3.350531e-02 81.1879 156.6846)" class="st53" cx="121.6" cy="36.4" rx="5.8" ry="4.9"/>
<path class="st54" d="M127.8,113.6l39.1,0.4c1.6,0,2.9,1.3,2.9,3l0,0v0.2l-1.6,23.2c-0.1,1.5-1.4,2.7-2.9,2.7l-39.2-0.4
	c-1.6,0-2.9-1.3-2.9-3l0,0v-0.2l1.6-23.2C124.9,114.8,126.2,113.6,127.8,113.6z"/>
<path class="st55" d="M127.1,114.7l39.2,0.3c1.2,0,2.3,1,2.2,2.3l0,0v0.1l-1.6,23.3c-0.1,1.2-1.1,2.1-2.3,2.1l-39.2-0.3
	c-1.2,0-2.3-1-2.2-2.3v-0.1l1.6-23.4C124.9,115.6,125.9,114.7,127.1,114.7z"/>
<path class="st56" d="M152,126.7l-24.2-0.4c-0.8,0-1.4-0.7-1.4-1.5l0.5-6.8c0-0.8,0.7-1.4,1.5-1.4l0,0l0,0l24.1,0.4
	c0.8,0,1.4,0.7,1.4,1.5l0,0l0,0l-0.5,6.9C153.5,126.1,152.8,126.7,152,126.7L152,126.7L152,126.7z"/>
<ellipse transform="matrix(4.222472e-02 -0.9991 0.9991 4.222472e-02 5.2508 248.3801)" class="st57" cx="132.2" cy="121.5" rx="3.5" ry="2.8"/>
<ellipse transform="matrix(3.995747e-02 -0.9992 0.9992 3.995747e-02 14.0576 256.6946)" class="st58" cx="140.6" cy="121" rx="3.5" ry="2.8"/>
<ellipse transform="matrix(4.222472e-02 -0.9991 0.9991 4.222472e-02 20.9338 265.6461)" class="st58" cx="149" cy="121.9" rx="3.5" ry="2.8"/>
<path class="st59" d="M146.9,132.5l-19-0.2c-0.8,0-1.5-0.7-1.5-1.6l0,0c0-0.8,0.7-1.5,1.5-1.5l19,0.2c0.8,0,1.5,0.7,1.5,1.6l0,0l0,0
	C148.5,131.8,147.8,132.5,146.9,132.5z"/>
<path class="st60" d="M135.8,141.5l-8.4-0.2c-0.8,0-1.5-0.7-1.5-1.5l0,0l0,0c0-0.8,0.7-1.5,1.6-1.5l8.4,0.2c0.8,0,1.5,0.7,1.5,1.5
	l0,0l0,0C137.3,140.9,136.6,141.5,135.8,141.5L135.8,141.5L135.8,141.5z"/>
<path class="st60" d="M136.1,137.2l-8.4-0.2c-0.8,0-1.5-0.7-1.5-1.6l0,0c0-0.8,0.7-1.5,1.6-1.5l8.4,0.2c0.8,0,1.5,0.7,1.5,1.6l0,0
	C137.6,136.6,136.9,137.3,136.1,137.2z"/>
<polygon class="st61" points="168.6,117.2 180.3,120.5 178.7,144 177.9,144.6 167.3,140.3 168.2,117.3 "/>
<polygon class="st62" points="168.2,117.3 179.5,121.1 177.9,144.6 166.5,140.9 "/>
<path class="st63" d="M126.5,130.7c2.1-0.5,4.3-0.3,6.3,0.4c3,1.2,3.3-1.5,4.7-1.4s1.6,2.2,3.6,2.2s1.4-0.9,2.3-0.8s0.9,1,1.7,1
	s1.4-2.7,1.9-2.6"/>
<polygon class="st64" points="156.7,117.2 168.3,117.2 166.7,140.9 155,140.7 "/>
<path class="st24" d="M126.9,169.6c-0.1-1.1-0.4-2.3-0.7-3.4c-1.3-4.6-5.4-18.5-9.2-26.9c-2.2-4.9-3.5-8.3-4.7-10.8
	c-1.3-2.9-3.3-5.5-5.8-7.5c-1.9-1.7-4.1-3.1-6.4-4.1c-3.8-1.4-7.9-1.7-11.9-1c-10.1,1.3-15.4,1.4-17.4,2c-2,1.3-10.3,10-11,17.3
	c-0.5,5.3-0.1,12.6,3.5,18.4c3.7,5.8,18.5,33.3,25,34c7.7,0.8,27.5-0.1,33.3-4.2C126.9,179.7,127.5,174.9,126.9,169.6z"/>
<path class="st25" d="M92,186.8c-3.8,0-7.9-1.3-11.6-2.4l-1.3-0.4c-5.8-1.8-30.5-21.6-34.2-27.5c-3.6-5.6-3.8-12.7-3.4-17.6
	c0.4-4.4,3.7-8.6,9.9-12.8l0.2-0.2l0.5-0.3c4.1-2.9,8.8-5,13.7-6c1.3-0.3,2.7-0.4,4-0.4c2.5,0,4.9,0.5,7.2,1.4
	c2.2,1,4.3,2.3,6.2,3.9c2.3,1.9,4.2,4.4,5.5,7.1c0.5,1.1,1.1,2.4,1.7,4c0.8,1.8,1.8,4.1,3,6.9c3.8,8.4,7.9,22.6,9.1,26.7
	c0.3,1,0.5,2.1,0.6,3.2c0.6,5.2,0,9.4-4.7,12.8C96.5,186.3,94.3,186.9,92,186.8z"/>
<path d="M104.2,172.1c-0.1-1.1-0.3-2.3-0.7-3.4c-0.7-2.6-2.4-8.1-4.3-13.9c-1.5-4.5-3.2-9.3-4.9-13c-2.2-4.9-3.5-8.3-4.7-10.8
	c-1.3-2.9-3.3-5.5-5.8-7.5c-1.9-1.7-4.1-3.1-6.4-4.1c-0.3-0.1-0.6-0.2-0.9-0.3c-0.1,0-0.2,0-0.2-0.1c-0.8-0.3-1.6-0.5-2.4-0.7
	c-1.1-0.2-2.2-0.4-3.3-0.4c-0.3,0-0.6,0-0.9,0l0,0c-1.1,0-2.3,0.1-3.4,0.3c-0.3,0-0.6,0.1-0.9,0.2c-0.8,0.2-1.5,0.4-2.3,0.6
	c-1.5,0.4-2.9,0.9-4.3,1.5c-2,0.8-4,1.9-5.8,3c-0.4,0.2-0.8,0.5-1.1,0.8l0,0c-0.3,0.2-0.6,0.4-0.9,0.7c-0.2,0.1-0.3,0.2-0.6,0.4
	c-0.5,0.3-1.2,0.8-2,1.4s-1.7,1.4-2.6,2.2c-2.5,2.4-5,5.7-5.4,9.7c-0.5,5.3-0.1,12.6,3.5,18.3s28.5,26,34.8,28
	c2.7,0.8,5.8,1.9,8.9,2.5c0.5,0.1,1,0.2,1.6,0.2c0.9,0.1,1.9,0.2,2.8,0.2c0.5,0,1,0,1.4,0c2-0.2,4-0.9,5.7-2
	C104.2,182.2,104.8,177.5,104.2,172.1z M92,185.7c-2.8,0-5.9-0.8-8.8-1.7c-0.8-0.2-1.6-0.5-2.4-0.8l-1.4-0.4
	c-2.5-0.8-9.6-5.7-17.7-12.2c-7.8-6.3-14.4-12.4-16-14.9c-1.9-3-4-8.3-3.2-17c0.2-2.5,1.6-5,4-7.5c1.4-1.4,2.9-2.6,4.5-3.7
	c0.3-0.2,0.7-0.5,1-0.7l0.2-0.2l0.5-0.3c0.4-0.3,0.9-0.6,1.3-0.9c1.9-1.2,3.9-2.3,6-3.2c1.9-0.8,3.9-1.4,5.9-1.8
	c0.3-0.1,0.6-0.1,0.9-0.2c0.4-0.1,0.9-0.1,1.3-0.2c0.5,0,1.1-0.1,1.6-0.1l0,0c1.4,0,2.8,0.2,4.2,0.5c0.3,0.1,0.7,0.2,1,0.2
	c0.1,0,0.2,0,0.2,0.1c0.5,0.1,1,0.3,1.4,0.5c2.1,0.9,4.1,2.2,5.8,3.7c2.2,1.8,4,4.2,5.2,6.8c0.5,1.1,1,2.4,1.7,3.9
	c0.8,1.9,1.8,4.2,3,6.9c1.4,3.1,2.9,7,4.2,11c2.2,6.5,4.1,13,4.9,15.6c0.3,1,0.5,2,0.6,3c0.5,4.8,0,8.7-4.3,11.7
	C96.1,185.2,94,185.8,92,185.7z"/>
<ellipse transform="matrix(1.867441e-02 -0.9998 0.9998 1.867441e-02 -85.9901 199.2843)" class="st26" cx="58.5" cy="143.4" rx="14.9" ry="11.9"/>
<ellipse transform="matrix(1.999581e-02 -0.9998 0.9998 1.999581e-02 -93.1067 235.0956)" class="st26" cx="73.4" cy="165" rx="10.7" ry="8.5"/>
<ellipse transform="matrix(1.867441e-02 -0.9998 0.9998 1.867441e-02 -85.109 260.2657)" class="st26" cx="90" cy="173.5" rx="8.4" ry="6.7"/>
<ellipse transform="matrix(1.867441e-02 -0.9998 0.9998 1.867441e-02 -86.6548 198.4784)" class="st27" cx="57.8" cy="143.4" rx="5.5" ry="4"/>
<ellipse transform="matrix(0.2588 -0.9659 0.9659 0.2588 -104.8951 193.4156)" class="st27" cx="73.6" cy="165.1" rx="4.8" ry="3.5"/>
<ellipse transform="matrix(0.2593 -0.9658 0.9658 0.2593 -101.3868 215.9114)" class="st27" cx="90.1" cy="174.1" rx="3.6" ry="2.6"/>
<path class="st28" d="M95,162.4c0,0-1.8-3.9-7.6-2.2c-1-2.5-2.9-9.2-13.2-8.8c0.6-2.3,5-12-2.4-22c3.1-1.2,5-2.1,8.6,2.8
	C84,137.1,95.4,161.2,95,162.4z"/>
<line class="st29" x1="112.3" y1="128.4" x2="89.1" y2="129.9"/>
<line class="st29" x1="99.4" y1="116.7" x2="73.6" y2="118.3"/>
<polyline class="st29" points="70,118.6 63.1,119 63.1,119 "/>
<line class="st29" x1="118.4" y1="142.8" x2="95.4" y2="144.3"/>
<line class="st29" x1="123.4" y1="157.1" x2="100.5" y2="158.5"/>
<line class="st29" x1="127" y1="171.8" x2="104.3" y2="173.2"/>
<path class="st65" d="M165.8,138.1l-9-0.4c-0.4-0.1-0.7-0.4-0.7-0.8l0.8-17.2c0-0.4,0.3-0.7,0.7-0.8l0,0l0,0l9,0.5
	c0.4,0.1,0.7,0.4,0.7,0.8l-0.8,17.2C166.5,137.8,166.2,138.1,165.8,138.1L165.8,138.1L165.8,138.1z"/>
<path class="st66" d="M165.1,138.1l-9-0.5c-0.4,0-0.7-0.4-0.7-0.8l0,0l0,0l0.8-17.2c0-0.4,0.3-0.7,0.7-0.8l0,0l9,0.4
	c0.4,0,0.7,0.4,0.7,0.8l-0.8,17.2C165.8,137.8,165.5,138.1,165.1,138.1z"/>
<g id="Rectangle_6">
	<path class="st67" d="M165.3,121.8h-0.5h-0.4v-0.5v-0.5v-0.9h-0.9v0.8v0.5v0.3v0.2v0.1h-0.8v-0.1v-0.5v-0.5v-0.3v-0.5h-0.9v0.8v0.5
		l0,0v0.4v0.2H161v-0.2v-0.5v-0.5v-0.4v-0.3h-0.9v0.7v0.2v0.3v0.7h-0.4h-0.5h-0.8v1h0.8h0.5h0.5l0,0v0.9l0,0h-0.5h-0.5h-0.8v1h0.7
		h0.5h0.5h0.1v0.9H160h-0.5H159h-0.7v1h0.7h0.5h0.5v0.2v0.4l-0.1,1.3h0.9l0.1-1.2v-0.4v-0.2h0.9v0.3v0.4l-0.1,1.2h0.9l0.1-1.2V127
		v-0.3h0.8v0.4v0.4l-0.1,1.1h0.9v-0.5v-0.6v-0.4v-0.4h0.2h0.2h0.2h1v-1h-0.3H165h-0.5h-0.3l0,0v-0.9h0.3h0.4h0.2h0.8v-1H165h-0.4
		h-0.1h-0.4v-0.9h0.4h0.5h0.9v-0.4v-0.2v-0.5H165.3z M160.8,125.4v-0.9h0.8v0.9H160.8z M162.5,124.6h0.8v0.9h-0.8V124.6z
		 M163.4,122.7v0.9l0,0h-0.8v-0.9H163.4z M161.8,122.6v0.9h-0.9v-1h0.6L161.8,122.6z"/>
</g>
<g id="Rounded_Rectangle_2">
	<polygon class="st68" points="159.4,126.8 159.7,121.1 164.8,121.3 164.5,127.1 	"/>
	<path class="st69" d="M165,120.8h-0.5h-0.9H163h-0.2h-0.9h-0.5h-0.3h-0.9H160h-0.4c-0.2,0-0.3,0.2-0.3,0.3v0.9l-0.1,1v0.9v1v0.9
		l-0.1,1v0.3c0,0.2,0.1,0.3,0.3,0.3h0.7h0.9h0.8h0.9l0.8,0.1h0.6h0.3h0.4c0.2,0,0.3-0.1,0.3-0.3l0,0v-0.5v-1v-0.9v-0.3v-0.7V123
		v-0.1l0.1-1v-0.6C165.3,121,165.2,120.9,165,120.8z M164.1,126.6h-0.5l-3.6-0.2v-0.7v-0.9v-1v-0.9l0.1-1.2h0.6h0.2h0.8h0.3h0.5h0.8
		h0.1h0.7v1.1l-0.1,2.5L164.1,126.6z"/>
</g>
<g id="Rounded_Rectangle_3">
	<path class="st70" d="M164.7,130.5l-1.7-0.1c-0.4,0-0.8,0.3-0.8,0.8l-0.3,5.4c-0.1,0.4,0.2,0.8,0.7,0.8l0,0l0,0l1.7,0.1
		c0.4,0,0.8-0.3,0.8-0.8l0.3-5.4C165.4,131,165.1,130.6,164.7,130.5z"/>
</g>
<g id="Rectangle_8">
	<polygon class="st70" points="162.3,136.9 162.6,130.9 165,131.1 164.7,137.1 	"/>
	<path class="st3" d="M162.6,130.9l-0.3,6l2.5,0.1l0.3-6L162.6,130.9z M162.3,136.9l0.3-5.9l2.3,0.1l-0.3,5.9L162.3,136.9z"/>
</g>
<g id="Rounded_Rectangle_3_copy">
	<path class="st70" d="M159.4,129l-1.2-0.1c-0.2,0-0.4,0.2-0.4,0.4l0,0l-0.3,6.1c0,0.2,0.2,0.5,0.4,0.5l1.2,0.1
		c0.2,0,0.4-0.2,0.4-0.4l0,0l0.3-6.1C159.9,129.2,159.7,129,159.4,129z"/>
</g>
<g id="Ellipse_1_copy_2_Rectangle_7_copy_Clipping_Path">
	<path class="st71" d="M163.6,134.7c-0.5-0.1-1.1,0.3-1.2,0.8c-0.1,0.5,0.3,1.1,0.8,1.2c0.5,0.1,1.1-0.3,1.2-0.8l0,0l0,0v-0.1
		C164.5,135.2,164.1,134.8,163.6,134.7L163.6,134.7z"/>
</g>
<g id="Rounded_Rectangle_4">
	<path class="st72" d="M159.1,134.9l-1.1-0.1c-0.2,0-0.3,0.1-0.3,0.3l0,0l0,0v0.3c0,0.2,0.1,0.3,0.3,0.4l1.1,0.1
		c0.2,0,0.3-0.1,0.3-0.3l0,0l0,0v-0.3C159.4,135,159.3,134.9,159.1,134.9z"/>
</g>
<g id="Shape_5">
	<polygon class="st70" points="160.2,128.2 160.1,128.2 160,129.6 159.7,129.6 159.7,129.7 160,129.8 159.9,131.5 159.6,131.5 
		159.6,131.7 159.9,131.7 159.8,133.4 159.5,133.4 159.5,133.5 159.8,133.6 159.8,135.4 159.4,135.4 159.4,135.5 159.9,135.6 
		159.9,135.4 159.9,135.4 	"/>
</g>
<g id="Shape_5_copy">
	<polygon class="st70" points="157.8,129.7 157.8,129.5 157.5,129.5 157.5,128.1 157.4,128.1 157,135.3 157,135.3 157,135.4 
		157.5,135.4 157.5,135.3 157.1,135.3 157.2,133.4 157.6,133.5 157.6,133.3 157.2,133.3 157.4,131.6 157.7,131.6 157.7,131.4 
		157.4,131.4 157.4,129.6 	"/>
</g>
<g id="Shape_5_copy_2">
	<path class="st70" d="M157.8,121.8v0.2h0.5v-0.2H157.8z M158.2,123.9v-0.2h-0.5l0.1-1.9h-0.2l-0.3,6.3l0,0h0.1l0.1-2.3h0.5v-0.2
		h-0.5l0.1-1.8L158.2,123.9L158.2,123.9z"/>
</g>
<g id="Shape_6">
	<polygon class="st70" points="166.4,122.4 165.7,135.9 165.8,135.9 166.5,122.4 	"/>
</g>
<g id="Shape_7">
	<polygon class="st70" points="165.1,135.7 165.1,135.9 165.7,135.9 165.7,135.7 	"/>
</g>
<g id="Shape_8">
	<polygon class="st70" points="165.3,132.4 165.3,132.6 165.9,132.6 165.9,132.4 	"/>
</g>
<g id="Shape_9">
	<polygon class="st70" points="165.9,126.1 165.9,126.3 166.3,126.3 166.3,126.2 	"/>
</g>
<g id="Shape_10">
	<polygon class="st70" points="166,124.2 166,124.4 166.4,124.4 166.4,124.2 	"/>
</g>
<g id="Shape_11">
	<polygon class="st70" points="166.1,122.3 166.1,122.5 166.5,122.5 166.5,122.4 	"/>
</g>
<g id="Rounded_Rectangle_5">
	<path class="st73" d="M159.2,132.9l-1.2-0.1c-0.2,0-0.3,0.1-0.3,0.3l0,0l0,0v0.3c0,0.2,0.1,0.3,0.3,0.4l1.2,0.1
		c0.2,0,0.3-0.1,0.3-0.3l0,0l0,0v-0.3C159.5,133.1,159.4,133,159.2,132.9z"/>
</g>
<g id="Rounded_Rectangle_6">
	<path class="st74" d="M159.3,131l-1.1-0.1c-0.2,0-0.3,0.1-0.3,0.3l0,0l0,0v0.3c0,0.2,0.1,0.3,0.3,0.4l1.1,0.1
		c0.2,0,0.3-0.1,0.3-0.3v-0.3C159.6,131.2,159.5,131,159.3,131z"/>
</g>
<g id="Rounded_Rectangle_7">
	<path class="st75" d="M159.4,129.1l-1.2-0.1c-0.2,0-0.3,0.1-0.3,0.3l0,0l0,0v0.3c0,0.2,0.1,0.3,0.3,0.4l1.1,0.1
		c0.2,0,0.3-0.1,0.3-0.3v-0.3C159.7,129.3,159.6,129.2,159.4,129.1z"/>
</g>
<path class="st76" d="M163.7,133.5c-0.1,0-0.3,0-0.4-0.1c-0.5-0.3-0.7-0.9-0.5-1.4c0.1-0.4,0.5-0.6,0.9-0.6c0.1,0,0.2,0,0.4,0.1
	c0.3,0.1,0.4,0.4,0.5,0.6c0.1,0.2,0.1,0.5,0,0.7C164.5,133.2,164.1,133.5,163.7,133.5z"/>
<path class="st77" d="M164.7,132.1L164.7,132.1L164.7,132.1c-0.1-0.3-0.3-0.6-0.6-0.7c-0.1-0.1-0.3-0.1-0.4-0.1h0.1
	c-0.5,0-0.9,0.3-1,0.7c-0.2,0.6,0,1.2,0.5,1.5c0.1,0.1,0.3,0.1,0.4,0.1c0.4,0,0.8-0.3,1-0.7l0,0c0.1-0.2,0.1-0.3,0.1-0.5
	C164.8,132.3,164.8,132.2,164.7,132.1z M164.5,132.8C164.5,132.9,164.5,132.9,164.5,132.8l-0.1,0.1c-0.1,0.3-0.4,0.4-0.7,0.5
	c-0.1,0-0.2,0-0.3-0.1c-0.4-0.2-0.6-0.8-0.4-1.2c0.1-0.3,0.4-0.5,0.8-0.6l0,0c0.1,0,0.2,0,0.3,0.1c0.2,0.1,0.4,0.3,0.5,0.6l0,0
	C164.6,132.4,164.6,132.6,164.5,132.8z"/>
<path class="st76" d="M164.7,132.1c0.1,0.3,0.1,0.6,0,0.8h-0.2L164.7,132.1L164.7,132.1z"/>
<path class="st76" d="M163.6,136.4c-0.1,0-0.2,0-0.3-0.1c-0.4-0.2-0.5-0.6-0.3-1c0.1-0.3,0.3-0.4,0.6-0.4c0.1,0,0.2,0,0.3,0.1
	c0.2,0.1,0.3,0.3,0.4,0.5c0.1,0.2,0.1,0.4,0,0.5C164.1,136.2,163.9,136.4,163.6,136.4z"/>
<path class="st77" d="M164.3,135.5v-0.1l0,0c-0.1-0.2-0.2-0.4-0.4-0.5c-0.1,0-0.2-0.1-0.3-0.1c-0.3,0-0.6,0.2-0.7,0.5
	c-0.2,0.4,0,0.9,0.4,1.1c0.1,0,0.2,0.1,0.3,0.1c0.3,0,0.6-0.2,0.7-0.5l0,0c0-0.1,0-0.1,0-0.1C164.3,135.7,164.3,135.6,164.3,135.5z
	 M164.1,135.8C164.1,135.8,164.1,135.9,164.1,135.8c-0.1,0.2-0.3,0.4-0.5,0.4c-0.1,0-0.2,0-0.2,0c-0.3-0.2-0.5-0.6-0.3-0.9
	c0.1-0.2,0.3-0.4,0.5-0.4c0.1,0,0.1,0,0.2,0c0.2,0.1,0.3,0.2,0.3,0.4l0,0C164.2,135.5,164.2,135.7,164.1,135.8z"/>
<path class="st76" d="M164.3,135.4c0.1,0.2,0.1,0.4,0,0.6h-0.2v-0.6H164.3z"/>
<line class="st78" x1="153.4" y1="38.3" x2="145.8" y2="34.4"/>
<path class="st30" d="M53.4,114.9l26.1-22.7c4.3-4,8-6,12.2-2.2l0,0c3.6,4.2,1.9,6.6-1.5,11l-22.4,29.4c-3.9,4.1-10.4,4.3-14.6,0.4
	l0,0C49,127,49.5,119.1,53.4,114.9z"/>
<path class="st31" d="M55.4,113.2l26.8-24.1c4.3-4,14.1,4.5,10.6,8.8l-22.4,29.4c-3.9,4.1-10.4,4.3-14.6,0.4l0,0
	C51.7,123.8,51.5,117.3,55.4,113.2z"/>
<path class="st32" d="M52.3,125.1c0,0-1.1-1.3-0.7-4.6c-4.5,0.3-15,2.6-15.7,4.1c-0.5,1.1-0.2,3.1,0,5.1c0.1,1.4,1.4,2.5,2.8,2.3
	l0,0c0.3,0,0.5-0.1,0.8-0.2c4.8-2.1,12.2-5.7,12.2-5.7L52.3,125.1z"/>
<path class="st33" d="M51.7,120.4c-4.5,0.3-14.9,1.3-15.6,2.9c-0.4,1.6-0.5,3.4-0.3,5.1c0.1,1.4,1.3,2.5,2.7,2.4
	c0.3,0,0.6-0.1,0.9-0.2c4.8-2.1,12.9-5,13.1-5.4C51.5,123.7,51.2,122,51.7,120.4z"/>
<path class="st32" d="M56.7,130.4c0,0-1.7-0.4-3.3-3.2c-3.4,2.9-10.4,11.1-10,12.8c0.3,1.1,1.7,2.6,3.1,4c1,1.1,2.6,1.1,3.6,0.2
	c0.2-0.2,0.4-0.4,0.5-0.6c2.5-4.6,6.2-11.9,6.2-11.9L56.7,130.4z"/>
<path class="st33" d="M53.4,127.1c-3.4,2.9-11.1,10-10.7,11.7c0.7,1.6,1.6,3,2.8,4.2c0.9,1.1,2.6,1.1,3.6,0.2l0,0
	c0.2-0.2,0.4-0.4,0.5-0.6c2.5-4.6,7.2-11.8,7.2-12.2C55.2,129.9,54,128.7,53.4,127.1z"/>
<path class="st32" d="M64.3,131.2c0,0-1.5,0.8-4.6-0.2c-0.6,4.4-1.8,11.8-0.4,12.8c1,0.7,1.1,0.8,3,0.9c1.5,0.1,2.7-1,2.8-2.4
	c0-0.2,0-0.4,0-0.6c-0.3-3.2-0.3-6.4,0.1-9.5L64.3,131.2z"/>
<path class="st33" d="M59.7,130.9c-0.6,4.4-3,11.5-1.6,12.4c0.8,0.7,1.8,1.2,2.9,1.2c1.4,0.1,2.7-1,2.8-2.4c0-0.2,0-0.5,0-0.7
	c-0.4-5.2,0.9-10.1,0.6-10.4C62.9,131.8,61.1,131.7,59.7,130.9z"/>
<path class="st32" d="M52.6,115.8l-0.5,3.3c0,0-0.9,0.7-1.1,0.8c-1.1,0.8-11.6-1.8-11.1-4s2-4.7,2.7-4.8c0.1,0,1-0.4,1-0.4
	S53.1,115.5,52.6,115.8z"/>
<path class="st33" d="M53.6,115c-0.5,0.6-0.9,1.3-1.1,2c-0.2,0.7-0.4,1.4-0.4,2.1c-0.2,1.3-11.6-1.9-11.1-4s2.2-4.4,2.9-4.5
	S54.2,114.6,53.6,115z"/>
<ellipse transform="matrix(0.1551 -0.9879 0.9879 0.1551 -65.2709 163.4406)" class="st34" cx="62.9" cy="119.9" rx="3.7" ry="4"/>
<ellipse transform="matrix(0.2272 -0.9739 0.9739 0.2272 35.5349 238.2792)" class="st79" cx="167.9" cy="96.8" rx="1.2" ry="3.9"/>
<path class="st71" d="M160.4,135.7c0.2,0.2,0.3,0.4,0.4,0.6"/>
<path d="M218,21.2h7.2c1.2,0,2.2,1,2.2,2.2l0,0V26h-11.6v-2.6C215.8,22.2,216.8,21.2,218,21.2z"/>
<path d="M213.8,27.1H230c2.6,0,4.8,2.1,4.8,4.8v45.7c0,2.6-2.1,4.8-4.8,4.8h-16.2c-2.6,0-4.8-2.1-4.8-4.8V31.9
	C209,29.3,211.1,27.1,213.8,27.1z"/>
<path d="M230.1,82.2h-16.2c-2.5-0.1-4.6-2.1-4.6-4.6V33.9c-0.1-1.1,0-2.3,0.2-3.4c1.1-3.7,4.9-3.2,7.9-3.2h9.2
	c2.6,0,5.6-0.4,7.2,2.2c0.8,1.3,0.7,2.8,0.7,4.3v14.9c0,9.6,0.3,19.3,0,28.9C234.5,80,232.5,82.1,230.1,82.2c-0.4,0-0.5,0.3-0.1,0.3
	c2.8-0.1,5-2.4,5-5.2V32c0-2.8-2.2-5-5-5c-5.2-0.2-10.5,0-15.7,0c-3,0-5.4,1.8-5.6,4.9v39.7c0,3.5-1,8.9,3.1,10.5
	c1.9,0.8,4.6,0.4,6.6,0.4h11.4C230.1,82.5,230.4,82.2,230.1,82.2z"/>
<path class="st3" d="M233.5,32.2v45c0,2.1-1.7,3.8-3.8,3.8l0,0H214c-2.1,0-3.8-1.7-3.8-3.8v-45c0-2.1,1.7-3.8,3.8-3.8l0,0h15.7
	C231.8,28.4,233.5,30.1,233.5,32.2z"/>
<path class="st80" d="M233,75.7v1.6c-0.2,1.9-1.8,3.2-3.6,3.1h-15c-1.9,0.1-3.5-1.3-3.6-3.1v-5.1L233,75.7z"/>
<path class="st3" d="M221.1,44.5c0.3-0.4,0.8-0.6,1.2-0.3c0.1,0.1,0.2,0.2,0.3,0.3l3.7,6.5l3.7,6.5c0.2,0.4,0.1,1-0.3,1.2
	c-0.1,0.1-0.3,0.1-0.4,0.1h-15c-0.5,0-0.9-0.4-0.9-0.9l0,0l0,0c0-0.2,0-0.3,0.1-0.4l3.8-6.5L221.1,44.5z"/>
<path d="M221.3,44.5c0.8-0.9,1.4,0.7,1.7,1.2l1.6,2.8l1.7,3l2.9,5.1c0.2,0.3,0.6,0.9,0.6,1.3c0,1.2-1.6,0.8-2.3,0.8h-9.4
	c-1,0-5.1,0.6-4.4-1.3c0.7-1.6,1.6-3.1,2.6-4.6L221.3,44.5c0-0.1-0.4,0-0.5,0.1l-5,8.7l-1.9,3.1c-0.3,0.5-0.9,1.3-0.7,1.9
	c0.4,1.3,4.1,0.7,5,0.7c3.5,0,7.2,0.3,10.7,0c1.4-0.1,1.7-0.9,1.1-2c-1.1-1.9-2.2-3.8-3.3-5.7l-2.8-4.9c-0.6-1.1-1.6-3.4-3.1-1.8
	C220.8,44.7,221.2,44.6,221.3,44.5z"/>
<path class="st81" d="M221.2,46.4c0.2-0.3,0.6-0.5,1-0.3l0,0l0,0c0.1,0.1,0.2,0.2,0.3,0.3l3.1,5.3l3.1,5.3c0.2,0.3,0.1,0.8-0.3,1
	l0,0l0,0c-0.1,0.1-0.2,0.1-0.4,0.1h-12.3c-0.4,0-0.7-0.3-0.7-0.7c0-0.1,0-0.3,0.1-0.4l3.1-5.3L221.2,46.4z"/>
<path d="M221.7,47.8c0,1.8,0,3.7-0.1,5.5c0,0.1,0.5,0,0.5-0.1c0.1-1.8,0.1-3.7,0.1-5.5C222.2,47.5,221.7,47.6,221.7,47.8z"/>
<path d="M221.7,55.3c-0.1,0.1-0.1,0.2-0.1,0.3s0.1,0.1,0.2,0.1c0.3,0,0.5-0.2,0.6-0.4c0-0.1-0.1-0.1-0.2-0.1s-0.7,0.1-0.6,0.3
	s0.5,0.2,0.6,0s0.2-0.4,0-0.5s-0.6,0-0.6,0.3s0.5,0,0.5-0.1C221.9,55.2,221.8,55.2,221.7,55.3l0.3,0.1c-0.2,0-0.2,0.1-0.1,0.1
	L221.7,55.3c0,0.2,0,0.2,0,0.2l0.2,0.1v-0.1C222,55.4,221.9,55.3,221.7,55.3C221.9,55.2,221.8,55.3,221.7,55.3L221.7,55.3z"/>
<path class="st82" d="M189.5,149.5l2.7-1.7l5.1,0.6l3.1,3.2l22.1,11.2c0,0,2.1-2.4,2.6-1.9c0.8,0.4,2.1,1.2,2.1,1.2l1.3,3.1l3,1.6
	c0,0,1.9-1.5,3.2-0.7s12.4,6.1,12.4,6.1c0.5,1.3,0.6,2.7,0.1,4C246.3,178.3,189.5,149.5,189.5,149.5z"/>
<g id="Rounded_Rectangle_1_Rounded_Rectangle_4_Clipping_Path">
	<path class="st49" d="M246.8,174.6l-13.3-6.9c-0.9-0.4-2.6,0.9-3.4,0.5l-2.4-1.2c-1-0.5-0.9-2.7-1.5-3l-1.2-0.6
		c-0.6-0.3-1.3-0.1-1.7,0.5l-3.8,7.4c-0.3,0.6-0.1,1.3,0.5,1.6l1.3,0.7c0.6,0.3,2.4-1.2,3.4-0.7l2.3,1.2c0.8,0.4,0.6,2.7,1.5,3.2
		l13.3,6.9c0.6,0.3,1.3,0.1,1.7-0.5l3.8-7.4C247.6,175.7,247.4,174.9,246.8,174.6L246.8,174.6z"/>
</g>
<g id="Rectangle_1">
	<polygon class="st83" points="198.4,153.4 195.5,150.6 189.5,149.5 188.2,152 192.7,156.4 196.6,157 220.5,169.3 222.4,165.7 	"/>
</g>
<g id="Rectangle_1_copy">
	<polygon class="st84" points="195,151.1 190.2,150.2 189.2,152.2 192.8,155.7 200.9,157 	"/>
</g>
<path class="st85" d="M231,172.5L231,172.5c0.4-0.8,1.3-1.1,2.1-0.7l11.3,5.8c0.8,0.4,1.1,1.3,0.7,2.1l0,0c-0.4,0.8-1.3,1.1-2.1,0.7
	l0,0l-11.4-5.8C230.9,174.2,230.6,173.2,231,172.5z"/>
<path class="st85" d="M234.6,169.9l10.2,5.2c0.7,0.4,1.5,0.1,1.9-0.6L234,168C233.7,168.7,233.9,169.5,234.6,169.9z"/>
<path class="st85" d="M230.9,177l10.2,5.2c0.7,0.4,1,1.2,0.6,1.9l-12.7-6.5C229.3,176.9,230.2,176.6,230.9,177L230.9,177L230.9,177z
	"/>
<path class="st66" d="M227.8,109.9l-1.9,0.5c0,0-1.4,7.3,2.4,10.6c1.3,1.1,0.9,0.9,2.1,1.4c0.7,0,1.9,1,2.6,2.7s8.2,22.6,9.2,29.1
	c-2,1.4-2.8,4-1.7,6.2c1,2,2.2,3.9,3.5,5.7l1.2-0.5c0,0-1.8-5.3-0.1-7.1s3.6-2.6,5.7-1.5c1.9,1.8,3,4.3,3.1,6.9h1.3
	c0,0,2-6.2-0.5-9.5s-5.1-4-6.2-3.6c-0.4-2-9.6-26.8-9-29.1v-2.1c0,0,3.5-3.4,1.2-7.3s-2.2-3.7-3.6-4.8c-0.6,0.1-1.1,0.2-1.6,0.4
	c0,0,3.1,4.3,0.8,7.3c0,0-2.9,3.5-5.9,1.5S227.8,109.9,227.8,109.9z"/>
<path class="st86" d="M228.1,109.5l-1.2,0.4c0,0-1.4,7.3,2.4,10.6c1.3,1,0.9,0.9,2.1,1.4c0.7,0,1.9,1,2.6,2.7s8.2,22.5,9.2,29.1
	c-2.1,1.4-2.8,4.1-1.7,6.3c1,2,2.2,3.9,3.5,5.7l1.2-0.5c0,0-1.8-5.3-0.1-7.1s3.6-2.6,5.7-1.5c1.9,1.8,3,4.3,3.1,6.9h1.3
	c0.4-0.1,0.8-0.2,1.2-0.4c0.4-1.3,0.4-6.3-1.7-9.1c-2.5-3.2-5.1-4-6.2-3.6c-0.4-2-9.6-26.8-9-29.1v-2.1c0,0,3.5-3.4,1.2-7.3
	s-2.6-3.7-4-4.9c-0.4,0.1-0.8,0.2-1.2,0.4c0,0,3.1,4.3,0.8,7.3c0,0-2.9,3.5-5.9,1.5S228.1,109.5,228.1,109.5z"/>
<path class="st87" d="M229.9,109l-1.9,0.5c0,0-1.4,7.3,2.4,10.6c1.3,1,0.9,0.9,2.1,1.4c0.7,0,1.9,1,2.6,2.7s8.2,22.5,9.2,29.1
	c-2,1.4-2.8,4-1.7,6.2c1,2,2.2,3.9,3.5,5.7l1.2-0.5c0,0-1.8-5.3-0.1-7.1s3.6-2.6,5.7-1.5c1.9,1.8,3,4.3,3.1,6.9h1.3
	c0,0,2-6.2-0.5-9.5s-5.1-3.9-6.2-3.6c-0.4-2-9.2-26.6-9-29.1c-0.2-0.7-0.2-1.4,0-2.1c1.8-2,2.3-4.9,1.2-7.3c-0.8-1.9-2-3.6-3.6-4.9
	c-0.6,0.1-1.1,0.2-1.6,0.4c0,0,3.1,4.3,0.8,7.3c0,0-2.9,3.5-5.9,1.5S229.9,109,229.9,109z"/>
<path class="st88" d="M299.9,13.5v173c0,7.3-5.9,13.2-13.2,13.2H13.2c-7.3,0-13.2-5.9-13.2-13.2v-3c-0.1-0.7-0.1-1.3-0.1-2v-168
	c0-7.3,5.9-13.2,13.2-13.2h273.7c0.2,0,0.3,0,0.5,0c6.3,0.3,11.5,5,12.5,11c0,0.1,0,0.1,0,0.2l0,0C299.8,12.1,299.9,12.8,299.9,13.5
	z"/>
<g>
	<g>
		<g>
			<path class="st89" d="M188.1,146L188.1,146c-0.2,0-0.2,0-0.3-0.1l-7-2.4l7.3,0.9c0.2,0,0.5,0,0.7,0.1l-0.1,1.5H188.1z"/>
			<path class="st3" d="M188,145.3c0.2,0,0.5,0,0.7,0.1h-0.6C188.1,145.3,188.1,145.3,188,145.3 M188.2,143.7l-0.7,3
				c0.1,0,0.2,0.1,0.3,0.1h0.1h0.1h0.6l0.2-3C188.6,143.8,188.4,143.8,188.2,143.7L188.2,143.7z"/>
		</g>
		<g>
			<path class="st90" d="M190.1,146.2c-0.5,0-0.9,0-1.4-0.1l0.1-1.5l1.1,0.1c0,0,0.3,0,0.4,0L190.1,146.2z"/>
			<path class="st3" d="M188.8,145.3l1,0.1c0.1,0,0.2,0,0.3,0C189.6,145.4,189.2,145.4,188.8,145.3 M188.8,143.8l-0.2,3
				c0.5,0,1,0.1,1.5,0.1l0.3-3c-0.1,0-0.2,0-0.3,0H190h-0.1L188.8,143.8L188.8,143.8z"/>
		</g>
		<g>
			<path class="st3" d="M152,171l-6.1-0.4l-10.6-0.7c-0.1,0-0.4,0-0.4,0h-0.2c-0.1,0-0.2,0-0.2,0l-1-0.1c-0.3,0-0.6,0-0.8-0.1
				c-11-1-21.1-6.1-28.4-14.4c-8.2-9.3-12.2-21.6-11.1-34.6l1.3-24.5c1-9.7,1.9-12.2,8.4-12.6l1.6-17.8c1.7-19.8,18-35,37.9-35.4
				c0.2,0,0.5,0,0.8,0h2h6.7h3.2h0.1c0.5,0,1,0.1,1.5,0.1c10.3,0.9,19.6,5.8,26.3,13.8s9.8,18,8.9,28.3l-1.2,14
				c0.4,0,0.8,0.1,1.2,0.2c6.1,1.2,10.3,6.9,9.7,13.4l-1.2,23.4c-0.7,8.4-3.5,16.5-8,23.7C183.2,161.8,167.8,170.8,152,171L152,171
				L152,171z M141,84.7l23.6,0.8l1-11.6c0.5-6-1.3-11.9-5.2-16.6c-3.2-3.8-7.6-6.5-12.4-7.6c-1.3,0.3-2.6,0.7-3.9,1.3
				c-7.8,3.3-13,10.5-13.8,18.9L129,84.4L141,84.7z"/>
			<path class="st3" d="M143.3,31.3h1.8h6.7h3.2c0.5,0,1,0.1,1.5,0.1c10.4,0.9,19.5,6,25.8,13.5s9.7,17.3,8.8,27.8l-1.3,14.9
				c0.6,0,1.2,0.1,1.8,0.2c5.7,1.1,9.7,6.4,9.1,12.6l-1.2,23.4c-0.7,8.5-3.5,16.5-7.9,23.3c-8.7,13.7-23.4,23-39.5,23.1H152l-6-0.4
				l-10.6-0.7l0,0c-0.2,0-0.3,0-0.5,0c-0.1,0-0.2,0-0.3,0l-1-0.1c-0.2,0-0.5,0-0.7-0.1c-10.9-1-20.7-5.9-27.9-14.1
				c-8.1-9.2-12-21.3-10.9-34l1.3-24.5c1-10,1.9-11.7,8.3-12l1.6-18.4c1.7-19.5,18-34.3,37.1-34.7c0.2,0,0.5,0,0.8,0h0.1
				 M165.3,86.3l1.1-12.3c0.6-6.4-1.6-12.5-5.4-17.2c-3.3-3.9-7.8-6.8-13-7.9l0,0c-1.4,0.3-2.8,0.8-4.2,1.4
				c-7.7,3.3-13.4,10.6-14.2,19.5l-1.4,15.3l12.7,0.4h0.3L165.3,86.3 M143.3,29.8L143.3,29.8h-0.2c-0.3,0-0.6,0-0.8,0
				c-9.6,0.2-18.9,4-26.1,10.6c-7.2,6.7-11.7,15.7-12.5,25.5L102.3,83c-6.8,0.7-7.5,4.2-8.4,13.2l0,0l0,0l-1.3,24.5
				c-1.1,13.1,2.9,25.6,11.3,35.1c7.4,8.4,17.7,13.6,28.9,14.7c0.2,0,0.5,0,0.7,0.1l1,0.1c0.1,0,0.1,0,0.2,0h0.1h0.1h0.1
				c0.1,0,0.1,0,0.2,0c0.1,0,0.2,0,0.3,0l10.5,0.7l6,0.4l0,0l0,0h0.1c16-0.2,31.6-9.3,40.8-23.8c4.6-7.2,7.4-15.5,8.1-24l1.2-23.5
				c0.6-6.8-3.9-12.9-10.4-14.1c-0.2,0-0.3-0.1-0.5-0.1l1.2-13.3c0.9-10.5-2.3-20.8-9.1-28.9S167.1,31,156.6,30
				c-0.5,0-1-0.1-1.5-0.1H155l0,0l0,0h-3.2h-6.7L143.3,29.8L143.3,29.8L143.3,29.8z M129.9,83.6l1.2-13.7
				c0.7-8.1,5.8-15.1,13.3-18.3c1.2-0.5,2.4-0.9,3.6-1.2c4.6,1.1,8.8,3.7,11.8,7.3c3.8,4.5,5.6,10.2,5.1,16l-1,10.9l-22.5-0.7h-0.3
				L129.9,83.6L129.9,83.6z"/>
		</g>
	</g>
	<path class="st89" d="M152,170.2h-0.6c-0.4,0-0.8,0-1.2,0c-1.4,0-2.8-0.2-4.2-0.3L152,170.2z"/>
	<path class="st91" d="M155,31.3h-3.2C152.9,31.3,154,31.3,155,31.3z"/>
	<path class="st91" d="M191.1,72.7l-1.3,14.8l-0.9,10.4l-2.7-0.2l-7.2-0.6l-4.6-0.4l0.9-9.6v-0.5l1.1-12.7
		c0.6-6.4-1.6-12.5-5.4-17.2c-3.9-4.6-9.5-7.8-15.9-8.3c-2.4-0.2-4.8,0-7.1,0.5l0,0c-1.4,0.3-2.8,0.8-4.2,1.4
		c-7.7,3.3-13.4,10.6-14.2,19.5l-1.4,15.3v0.5l-0.6,7l-9.9-0.9l-4.5-0.4l0.1-1.3l0.5-5.4l1.6-18.5c1.4-16.2,13-29.2,27.9-33.3
		l-0.8-1.4l0,0h0.9h1.8h6.7h3.2c0.5,0,1,0.1,1.5,0.1c10.4,0.9,19.5,6,25.8,13.5C188.6,52.4,192,62.3,191.1,72.7z"/>
	<path class="st89" d="M200.8,100.3l-1.2,23.4c-2.1,25.5-23.3,46.2-47.4,46.4h-0.1l-6-0.4l-10.6-0.7l0,0c-0.3,0-0.5,0-0.8,0
		l-1.6-0.1c-0.1,0-0.1,0-0.2,0l1.6-2.3c-5.6-2.4-10.6-6.1-14.8-10.8c-8.1-9.2-12-21.3-10.9-34l1.3-24.5c0.2-1.9,0.7-3.8,1.6-5.4
		c0.4-0.7,0.9-1.4,1.4-2c1.3-1.6,3-2.9,4.9-3.7c1.6-0.7,3.3-1,5.1-0.9l5,0.2l13.1,0.4l24,0.8l10,0.3l4.6,0.1l1.5,0.1l0,0l8.5,0.3
		C196.4,87.7,201.3,93.5,200.8,100.3z"/>
	<path class="st92" d="M181.1,72.7L179.8,87v0.2l-0.9,9.9l-0.1,0.9l-14.4-1.4l0.9-9.9v-0.5l1.1-12.3c0.6-6.4-1.6-12.5-5.4-17.2
		c-3.3-3.9-7.8-6.8-13-7.9l0,0c-0.9-0.2-1.9-0.4-2.9-0.5c-0.4,0-0.8-0.1-1.1-0.1c-12.4-0.5-23.3,8.9-24.4,21.4l-1.3,14.9l-0.1,1.6
		l-0.5,5.3l-0.1,0.9l-5.8-0.5l-8.7-0.8l0.6-6.8l1.6-18.4c1.7-19.5,18-34.3,37.1-34.7c0.2,0,0.5,0,0.8,0h0.2c0.6,0,1.2,0,1.8,0
		c0.5,0,1,0.1,1.4,0.1c10.4,0.9,19.5,6,25.8,13.5C178.6,52.4,182,62.3,181.1,72.7z"/>
	<path class="st90" d="M186.2,97.7c0,0.5-0.1,1.1-0.2,1.7l-1.2,23.4c-2.2,25.7-23.7,46.6-48.1,46.4c-0.3,0-0.7,0-1,0h-0.2l0,0
		c-0.9,0-1.7-0.1-2.6-0.2c-10.9-1-20.7-5.9-27.9-14.1c-8.1-9.2-12-21.3-10.9-34l1.3-24.5c1-10,1.9-11.7,8.3-12
		c1.3-0.1,2.9-0.1,4.7-0.1l5.3,0.2l4.6,0.2l10,0.3l12.7,0.4h0.3l24,0.8l9.7,0.3c0.1,0,0.2,0,0.2,0c1.8,0.2,3.3,0.3,4.6,0.5
		c0.5,0.1,1,0.2,1.5,0.2l0,0C185.7,88.2,186.9,90.3,186.2,97.7z"/>
	<path class="st93" d="M186.2,97.7c0,0.5-0.1,1.1-0.2,1.7l-1.2,23.4c-2.2,25.7-23.7,46.6-48.1,46.4c-0.3,0-0.7,0-1,0l5.3-83.8h0.3
		l24,0.8l9.7,0.3c0.1,0,0.2,0,0.2,0c1.8,0.2,3.3,0.3,4.6,0.5c0.5,0.1,1,0.2,1.5,0.2l0,0C185.7,88.2,186.9,90.3,186.2,97.7z"/>
	<path class="st94" d="M150.3,115.8c-0.3,4-2.7,7.4-6,9.1l-0.7,10.2c-0.2,3.2-3,5.6-6.2,5.4c-3.2-0.2-5.6-3-5.4-6.2l0.7-10.3
		c-3-2.2-4.8-5.8-4.6-9.8c0.4-6.1,5.7-10.7,11.8-10.3C146.1,104.3,150.7,109.6,150.3,115.8z"/>
	<path class="st94" d="M150.3,115.8c-0.3,4-2.7,7.4-6,9.1l-0.7,10.2c-0.2,2.2-1.6,4.1-3.5,4.9c-2.2-0.9-3.6-3.2-3.5-5.7l0.7-10.3
		c-3-2.2-4.8-5.8-4.6-9.7c0.3-5,4-9.1,8.7-10.1C146.8,105.2,150.7,110.2,150.3,115.8z"/>
	<path class="st95" d="M150.3,115.8c-0.3,4-2.7,7.4-6,9.1l-0.7,10.2c-0.2,2.2-1.6,4.1-3.5,4.9c-2.2-0.9-3.6-3.2-3.5-5.7l0.7-10.3
		c-3-2.2-4.8-5.8-4.6-9.7c0.3-5,4-9.1,8.7-10.1C146.8,105.2,150.7,110.2,150.3,115.8z"/>
	<circle class="st96" cx="107.8" cy="148.7" r="2.2"/>
	<path class="st96" d="M113.5,152.1c2.6,3.5,6.5,6,10.8,7c1.2,0.3,2.2,1.4,2.1,2.6l0,0c-0.1,1.2-1.5,2.1-3.1,1.8
		c-5.4-1.2-10.1-4.2-13.4-8.7c-1-1.3-0.7-3,0.4-3.6l0,0C111.4,150.6,112.8,151.1,113.5,152.1z"/>
</g>
</svg>
