<svg id="Layer_1" data-name="Layer 1" xmlns="http://www.w3.org/2000/svg" viewBox="0 0 300 199.7"><defs><style>.cls-1{opacity:0.75;}.cls-1,.cls-10{isolation:isolate;}.cls-2{fill:#e78d00;}.cls-10,.cls-3{fill:#fff;}.cls-4{fill:#facb03;}.cls-5{fill:#ccc;}.cls-6{fill:#fefefe;}.cls-7{fill:#f7b808;}.cls-8{fill:#703500;}.cls-9{fill:#220b00;}.cls-10{opacity:0.8;}</style></defs><title>guide_chapter_lock</title><path class="cls-1" d="M300.05,13.5v168a8.08,8.08,0,0,1-.1,1.6v3.4a13.19,13.19,0,0,1-13.2,13.2H13.35A13.19,13.19,0,0,1,.15,186.5v-2.7a16.41,16.41,0,0,1-.2-2.3V13.5A13.2,13.2,0,0,1,12.55.3h275.1a1.27,1.27,0,0,1,.6.1,13.2,13.2,0,0,1,10.6,7.7c0,.1.1.2.1.3s.1.4.2.6l.3.9a7.49,7.49,0,0,1,.4,1.6h-.1A12,12,0,0,1,300.05,13.5Z"/><path class="cls-2" d="M188.15,146.8h0c-.2,0-.2,0-.3-.1l-7-2.4,7.3.9a1.7,1.7,0,0,1,.7.1l-.1,1.5Z"/><path class="cls-3" d="M188.05,146.1a1.7,1.7,0,0,1,.7.1h-.6c0-.1,0-.1-.1-.1m.2-1.6-.7,3c.1,0,.2.1.3.1h.8l.2-3a1.27,1.27,0,0,1-.6-.1Z"/><path class="cls-4" d="M190.15,147a6.6,6.6,0,0,1-1.4-.1l.1-1.5,1.1.1h.4Z"/><path class="cls-3" d="M188.85,146.1l1,.1h.3a5.28,5.28,0,0,1-1.3-.1m0-1.5-.2,3c.5,0,1,.1,1.5.1l.3-3H190l-1.1-.1Z"/><path class="cls-3" d="M152.05,171.8l-6.1-.4-10.6-.7h-.8l-1-.1a2,2,0,0,1-.8-.1,42.83,42.83,0,0,1-28.4-14.4,45.94,45.94,0,0,1-11.1-34.6L94.55,97c1-9.7,1.9-12.2,8.4-12.6l1.6-17.8a38.69,38.69,0,0,1,37.9-35.4h12.8c.5,0,1,.1,1.5.1A38.9,38.9,0,0,1,192,73.4l-1.2,14a5,5,0,0,1,1.2.2,12.29,12.29,0,0,1,9.7,13.4l-1.2,23.4a53.09,53.09,0,0,1-8,23.7c-9.2,14.5-24.6,23.5-40.4,23.7Zm-11-86.3,23.6.8,1-11.6a22.76,22.76,0,0,0-17.6-24.2,19.84,19.84,0,0,0-3.9,1.3,22.7,22.7,0,0,0-13.8,18.9l-1.3,14.5Z"/><path class="cls-3" d="M143.35,32.1h11.7c.5,0,1,.1,1.5.1a38.22,38.22,0,0,1,34.6,41.3l-1.3,14.9a11,11,0,0,1,1.8.2,11.46,11.46,0,0,1,9.1,12.6l-1.2,23.4a50.57,50.57,0,0,1-7.9,23.3c-8.7,13.7-23.4,23-39.5,23.1h-.1l-6-.4-10.6-.7h-.8l-1-.1a1.7,1.7,0,0,1-.7-.1,41.76,41.76,0,0,1-27.9-14.1,45.07,45.07,0,0,1-10.9-34l1.3-24.5c1-10,1.9-11.7,8.3-12l1.6-18.4A38.14,38.14,0,0,1,142.45,32h.9m22,55.1,1.1-12.3a23.89,23.89,0,0,0-5.4-17.2,23.46,23.46,0,0,0-13-7.9h0a23,23,0,0,0-4.2,1.4,23.52,23.52,0,0,0-14.2,19.5l-1.4,15.3,12.7.4h.3l24.1.8m-22-56.5h-1a40,40,0,0,0-26.1,10.6,39.14,39.14,0,0,0-12.5,25.5l-1.4,17.1c-6.8.7-7.5,4.2-8.4,13.2h0l-1.3,24.5A46.57,46.57,0,0,0,104,156.6a44.13,44.13,0,0,0,28.9,14.7,1.7,1.7,0,0,1,.7.1l1,.1h1l10.5.7,6,.4h.1c16-.2,31.6-9.3,40.8-23.8a52.8,52.8,0,0,0,8.1-24l1.2-23.5a13,13,0,0,0-10.4-14.1c-.2,0-.3-.1-.5-.1l1.2-13.3a39.77,39.77,0,0,0-35.9-43c-.5,0-1-.1-1.5-.1h-10l-1.8-.1ZM130,84.4l1.2-13.7a21.93,21.93,0,0,1,13.3-18.3,25.33,25.33,0,0,1,3.6-1.2,22.18,22.18,0,0,1,11.8,7.3,21.77,21.77,0,0,1,5.1,16l-1,10.9-22.5-.7h-.3L130,84.4Z"/><path class="cls-2" d="M152.05,171h-1.8c-1.4,0-2.8-.2-4.2-.3Z"/><path class="cls-5" d="M191.15,73.5l-1.3,14.8L189,98.7l-2.7-.2-7.2-.6-4.6-.4.9-9.6v-.5l1.1-12.7a23.89,23.89,0,0,0-5.4-17.2,23.27,23.27,0,0,0-15.9-8.3,24.07,24.07,0,0,0-7.1.5h0a23,23,0,0,0-4.2,1.4,23.52,23.52,0,0,0-14.2,19.5l-1.4,15.3v.5l-.6,7-9.9-.9-4.5-.4.1-1.3.5-5.4,1.6-18.5a38.11,38.11,0,0,1,27.9-33.3l-.8-1.4h12.6c.5,0,1,.1,1.5.1a38,38,0,0,1,34.5,41.2Z"/><path class="cls-2" d="M200.85,101.1l-1.2,23.4c-2.1,25.5-23.3,46.2-47.4,46.4h-.1l-6-.4-10.6-.7h-.8l-1.6-.1H133l1.6-2.3a42.2,42.2,0,0,1-14.8-10.8,45.07,45.07,0,0,1-10.9-34l1.3-24.5a14.12,14.12,0,0,1,1.6-5.4,14.29,14.29,0,0,1,1.4-2,12.75,12.75,0,0,1,4.9-3.7,11,11,0,0,1,5.1-.9l5,.2,13.1.4,24,.8,10,.3,4.6.1,1.5.1h0l8.5.3C196.45,88.5,201.35,94.3,200.85,101.1Z"/><path class="cls-6" d="M181.15,73.5l-1.3,14.3V88l-.9,9.9-.1.9-14.4-1.4.9-9.9V87l1.1-12.3a23.89,23.89,0,0,0-5.4-17.2,23.46,23.46,0,0,0-13-7.9h0a25,25,0,0,0-2.9-.5c-.4,0-.8-.1-1.1-.1a23.61,23.61,0,0,0-24.4,21.4l-1.3,14.9-.1,1.6-.5,5.3-.1.9-5.8-.5-8.7-.8.6-6.8,1.6-18.4a38.14,38.14,0,0,1,37.1-34.7h2.8c.5,0,1,.1,1.4.1a37.92,37.92,0,0,1,25.8,13.5A39.21,39.21,0,0,1,181.15,73.5Z"/><path class="cls-4" d="M186.25,98.5a11.14,11.14,0,0,1-.2,1.7l-1.2,23.4c-2.2,25.7-23.7,46.6-48.1,46.4h-1.2a22.75,22.75,0,0,1-2.6-.2,41.76,41.76,0,0,1-27.9-14.1,45.07,45.07,0,0,1-10.9-34l1.3-24.5c1-10,1.9-11.7,8.3-12,1.3-.1,2.9-.1,4.7-.1l5.3.2,4.6.2,10,.3,12.7.4h.3l24,.8,9.7.3h.2c1.8.2,3.3.3,4.6.5a7.72,7.72,0,0,0,1.5.2h0C185.75,89,187,91.1,186.25,98.5Z"/><path class="cls-7" d="M186.25,98.5a11.14,11.14,0,0,1-.2,1.7l-1.2,23.4c-2.2,25.7-23.7,46.6-48.1,46.4h-1l5.3-83.8h.3l24,.8,9.7.3h.2c1.8.2,3.3.3,4.6.5a7.72,7.72,0,0,0,1.5.2h0C185.75,89,187,91.1,186.25,98.5Z"/><path class="cls-8" d="M150.35,116.6a11.21,11.21,0,0,1-6,9.1l-.7,10.2a5.81,5.81,0,0,1-11.6-.8l.7-10.3a11.35,11.35,0,0,1-4.6-9.8,11.13,11.13,0,0,1,22.2,1.6Z"/><path class="cls-8" d="M150.35,116.6a11.21,11.21,0,0,1-6,9.1l-.7,10.2a5.91,5.91,0,0,1-3.5,4.9,5.85,5.85,0,0,1-3.5-5.7l.7-10.3a11.29,11.29,0,0,1-4.6-9.7,11.08,11.08,0,0,1,8.7-10.1A11,11,0,0,1,150.35,116.6Z"/><path class="cls-9" d="M150.35,116.6a11.21,11.21,0,0,1-6,9.1l-.7,10.2a5.91,5.91,0,0,1-3.5,4.9,5.85,5.85,0,0,1-3.5-5.7l.7-10.3a11.29,11.29,0,0,1-4.6-9.7,11.08,11.08,0,0,1,8.7-10.1A11,11,0,0,1,150.35,116.6Z"/><circle class="cls-10" cx="107.85" cy="149.5" r="2.2"/><path class="cls-10" d="M113.55,152.9a18.83,18.83,0,0,0,10.8,7,2.66,2.66,0,0,1,2.1,2.6h0c-.1,1.2-1.5,2.1-3.1,1.8a22.49,22.49,0,0,1-13.4-8.7,2.41,2.41,0,0,1,.4-3.6h0A2.54,2.54,0,0,1,113.55,152.9Z"/></svg>