<?xml version="1.0" encoding="utf-8"?>
<!-- Generator: Adobe Illustrator 23.0.2, SVG Export Plug-In . SVG Version: 6.00 Build 0)  -->
<svg version="1.1" id="Layer_1" xmlns="http://www.w3.org/2000/svg" xmlns:xlink="http://www.w3.org/1999/xlink" x="0px" y="0px"
	 viewBox="0 0 300 199.7" style="enable-background:new 0 0 300 199.7;" xml:space="preserve">
<style type="text/css">
	.st0{fill:#757575;}
	.st1{fill:#00B1FF;}
	.st2{fill:#15BDF9;}
	.st3{fill:#FFFFFF;}
	.st4{fill:#626C72;}
	.st5{fill:#96A5B3;}
	.st6{fill:#2F3E4A;}
	.st7{fill:#222D35;}
	.st8{fill:#353535;stroke:#000000;stroke-width:0.26;stroke-linejoin:round;}
	.st9{fill:#4D4D4D;}
	.st10{fill:#B3B3B3;}
	.st11{fill:#D3161D;}
	.st12{fill:#ADADAD;stroke:#080000;stroke-width:0.35;stroke-miterlimit:10;}
	.st13{fill:none;stroke:#070707;stroke-width:0.53;stroke-miterlimit:10;}
	.st14{fill:#77401B;stroke:#070707;stroke-width:0.35;stroke-miterlimit:10;}
	.st15{fill:#F8C946;stroke:#020202;stroke-width:0.35;stroke-miterlimit:10;}
	.st16{fill:#282828;stroke:#151616;stroke-width:0.29;stroke-miterlimit:10;}
	.st17{fill:#4D4D4D;stroke:#151616;stroke-width:0.29;stroke-miterlimit:10;}
	.st18{fill:#4D4D4D;stroke:#151616;stroke-width:1.05;stroke-miterlimit:10;}
	.st19{fill:#F8C946;}
	.st20{fill:#683919;}
	.st21{fill:#945320;}
	.st22{fill:#515051;stroke:#000000;stroke-width:0.35;stroke-linejoin:round;}
	.st23{fill:#161616;stroke:#0A0A0A;stroke-width:0.31;stroke-miterlimit:10;}
	.st24{fill:#8E8A8B;stroke:#000000;stroke-width:0.31;stroke-linejoin:round;}
	.st25{fill:#E2B647;stroke:#070707;stroke-width:0.31;stroke-miterlimit:10;}
	.st26{fill:#161616;}
	.st27{fill:#945320;stroke:#070707;stroke-width:0.31;stroke-miterlimit:10;}
	.st28{fill:none;stroke:#0A0A0A;stroke-width:0.31;stroke-miterlimit:10;}
	.st29{fill:#DDDBD7;}
	.st30{fill:#232323;}
	.st31{fill:#3A3A3A;}
	.st32{fill:none;stroke:#000000;stroke-width:0.31;stroke-miterlimit:10;}
	.st33{fill:#282828;}
	.st34{fill:#7C7C7C;}
	.st35{fill:#666666;}
	.st36{fill:none;stroke:#070707;stroke-width:0.35;stroke-miterlimit:10;}
	.st37{fill:#7F1119;}
	.st38{fill:#5E0E18;}
	.st39{fill:#352F49;}
	.st40{fill:#E41E00;}
	.st41{fill:#FFFE28;}
	.st42{fill:#18FF08;}
	.st43{fill:#DBDDDD;}
	.st44{fill:#0FB0DB;}
	.st45{fill:#303435;}
	.st46{fill:url(#SVGID_1_);stroke:#0A0A0A;stroke-width:0.14;stroke-miterlimit:10;}
	.st47{fill:none;stroke:#0A0A0A;stroke-width:0.14;stroke-miterlimit:10;}
	.st48{fill:url(#SVGID_2_);stroke:#0A0A0A;stroke-width:0.14;stroke-miterlimit:10;}
	.st49{fill:url(#SVGID_3_);stroke:#0A0A0A;stroke-width:0.14;stroke-miterlimit:10;}
	.st50{fill:url(#SVGID_4_);stroke:#0A0A0A;stroke-width:0.14;stroke-miterlimit:10;}
	.st51{fill:none;stroke:#070707;stroke-width:0.18;stroke-miterlimit:10;}
	.st52{fill:#389CCE;}
	.st53{fill:#945320;stroke:#020202;stroke-width:0.35;stroke-miterlimit:10;}
	.st54{fill:#F8C946;stroke:#020202;stroke-width:0.38;stroke-miterlimit:10;}
	.st55{fill:none;stroke:#000000;stroke-width:0.22;stroke-miterlimit:10;}
	.st56{fill:none;stroke:#000000;stroke-width:0.13;stroke-miterlimit:10;}
	.st57{fill:#4F4F4F;}
	.st58{fill:#595959;}
	.st59{fill:#D1D1D1;}
	.st60{fill:#0C7BEA;}
	.st61{clip-path:url(#SVGID_6_);}
	.st62{clip-path:url(#SVGID_8_);}
	.st63{clip-path:url(#SVGID_10_);}
	.st64{clip-path:url(#SVGID_12_);}
	.st65{clip-path:url(#SVGID_14_);}
	.st66{fill:none;stroke:#0A0A0A;stroke-width:0.13;stroke-miterlimit:10;}
	.st67{opacity:0.75;enable-background:new    ;}
	.st68{fill:#E78D00;}
	.st69{fill:#FACB03;}
	.st70{fill:#CCCCCC;}
	.st71{fill:#FEFEFE;}
	.st72{fill:#F7B808;}
	.st73{fill:#703500;}
	.st74{fill:#220B00;}
	.st75{opacity:0.8;fill:#FFFFFF;enable-background:new    ;}
</style>
<title>guide_wait_lock</title>
<path class="st0" d="M299.8,18.6v168c0,7.3-5.9,13.2-13.2,13.2H13.2c-7.3,0-13.2-5.9-13.2-13.2v-168c0-2.6,0.7-5,2-7
	c1.5-2.3,3.6-4.2,6.2-5.2c1.5-0.6,3.2-1,5-1h273.4c1.9,0,3.6,0.4,5.2,1.1c2.5,1.1,4.5,2.9,6,5.1c1,1.6,1.7,3.4,1.9,5.4
	C299.8,17.5,299.8,18.1,299.8,18.6z"/>
<path class="st1" d="M299.7,13.5L299.7,13.5v168.1c0,5-2.8,9.4-6.9,11.6c-0.1,0.1-0.3,0.1-0.4,0.2c-1.8,0.9-3.8,1.4-5.9,1.4H13.1
	c-6.8,0-12.3-5.1-13.1-11.6c-0.1-0.5-0.1-1.1-0.1-1.6v-168C-0.2,6.7,5.1,1,11.8,0.4c0.2,0,0.5,0,0.8,0c0.1,0,0.2,0,0.4,0h273.4
	c0.2,0,0.5,0,0.7,0s0.4,0,0.7,0c0.2,0,0.4,0.1,0.7,0.1c3,0.5,5.6,1.9,7.6,4c0.1,0.1,0.2,0.1,0.2,0.2c1.7,1.9,2.9,4.3,3.3,7
	C299.7,12.2,299.7,12.9,299.7,13.5z"/>
<path class="st2" d="M299.7,11.6H0.2c1-6.4,6.6-11.1,13.1-11.1h273.4C293.1,0.5,298.7,5.2,299.7,11.6z"/>
<path class="st3" d="M288.4,0.4c-0.2,0-0.5-0.1-0.7-0.1s-0.5,0-0.7,0c-0.1,0-0.3,0-0.4,0H13.2c-0.2,0-0.4,0-0.6,0
	c-0.3,0-0.5,0-0.8,0C5.2,1,0,6.7,0,13.5v168c0,7.3,5.9,13.2,13.2,13.2h273.5c2,0,4-0.5,5.7-1.3c0.1-0.1,0.3-0.1,0.4-0.2
	c0.3-0.2,0.6-0.3,0.9-0.5c3.3-2.1,5.6-5.5,6.1-9.6c0.1-0.5,0.1-1.1,0.1-1.6v-168C299.9,6.9,294.8,1.4,288.4,0.4z M286.7,190.2H13.2
	c-4.8,0-8.7-3.9-8.7-8.7v-168c0-0.6,0.1-1.3,0.2-1.9c0.5-2.2,1.8-4,3.5-5.2c1.4-1,3.1-1.6,5-1.6h273.5c1.9,0,3.7,0.6,5.1,1.7
	c1.7,1.2,2.9,3,3.3,5.1c0.2,0.6,0.2,1.2,0.2,1.9v168C295.4,186.3,291.5,190.2,286.7,190.2z"/>
<circle class="st4" cx="284.8" cy="15.3" r="6.2"/>
<circle class="st5" cx="284.8" cy="15.3" r="5.5"/>
<polygon class="st6" points="288.3,13.7 287.9,17.6 284.4,19.2 281.2,16.9 281.6,13.1 285.2,11.5 "/>
<path class="st7" d="M288.3,13.7l-0.2,1.8c-0.8-1-1.9-1.7-3.2-1.9c-1.3-0.1-2.6,0.3-3.5,1.2l0.2-1.7l3.5-1.6L288.3,13.7z"/>
<circle class="st4" cx="15.1" cy="15.3" r="6.2"/>
<circle class="st5" cx="15.1" cy="15.3" r="5.5"/>
<polygon class="st6" points="18.5,13.4 18.5,17.3 15.1,19.2 11.7,17.3 11.7,13.4 15.1,11.4 "/>
<path class="st7" d="M18.5,13.4v1.8c-0.9-0.9-2.1-1.5-3.4-1.5s-2.5,0.6-3.4,1.5v-1.8l3.3-1.9L18.5,13.4z"/>
<circle class="st4" cx="15.1" cy="178.9" r="6.2"/>
<circle class="st5" cx="15.1" cy="178.9" r="5.6"/>
<polygon class="st6" points="19,178.6 17.3,182.1 13.4,182.4 11.2,179.1 12.9,175.7 16.8,175.4 "/>
<path class="st7" d="M19,178.6l-0.8,1.6c-0.4-1.2-1.2-2.2-2.3-2.9c-1.2-0.6-2.5-0.6-3.7-0.1l0.8-1.6l3.9-0.3L19,178.6z"/>
<circle class="st4" cx="283.9" cy="178.9" r="6.2"/>
<circle class="st5" cx="283.9" cy="178.9" r="5.5"/>
<polygon class="st6" points="286.8,176.2 287.6,180 284.7,182.7 281,181.4 280.2,177.6 283.1,175.1 "/>
<path class="st7" d="M286.8,176.2l0.4,1.7c-1-0.7-2.4-1-3.6-0.8c-1.3,0.3-2.4,1.1-3,2.2l-0.4-1.7l2.9-2.6L286.8,176.2z"/>
<path class="st8" d="M67.4,164.5c0.1-1.2,0.4-2.5,0.7-3.6c1.4-5,5.9-20,10-29.1c2.4-5.3,3.8-9,5.1-11.7c1.4-3.2,3.6-5.9,6.3-8.2
	c2.1-1.8,4.4-3.3,7-4.4c4.1-1.7,8.5-1.7,12.9-1.1c10.9,1.4,16.7,1.5,18.9,2.2c2.1,1.4,11.2,10.8,11.9,18.8
	c0.5,5.8,0.1,13.6-3.9,19.9s-20,36.1-27.1,36.8c-8.3,0.8-29.8-0.1-36-4.6C67.4,175.4,66.8,170.2,67.4,164.5z"/>
<path class="st9" d="M105.2,183.1c-2.5,0.1-4.9-0.6-7-2c-5.1-3.6-5.8-8.1-5.1-13.8c0.1-1.2,0.4-2.3,0.7-3.4
	c1.3-4.5,5.8-19.9,9.9-28.9c1.3-3,2.4-5.4,3.2-7.4c0.7-1.7,1.3-3.1,1.8-4.3c1.4-3,3.4-5.6,5.9-7.7c2-1.8,4.2-3.2,6.7-4.2
	s5.1-1.5,7.8-1.5c1.5,0,2.9,0.1,4.4,0.4c5.3,1.1,10.4,3.4,14.8,6.5l0.5,0.4l0.3,0.2c6.7,4.4,10.3,9.1,10.7,13.8
	c0.5,5.4,0.2,13-3.7,19.1c-1.8,2.8-8.8,9.3-17.5,16.4c-8.9,7.2-16.6,12.5-19.5,13.4l-1.5,0.5C113.8,181.7,109.3,183.1,105.2,183.1z"
	/>
<path d="M161.1,131c-0.6-6.5-6.4-11.4-9.8-13.7l0,0c-0.4-0.3-0.8-0.6-1.2-0.8l0,0c-0.2-0.2-0.4-0.3-0.6-0.4
	c-0.3-0.2-0.6-0.4-0.9-0.6c-0.5-0.3-1-0.7-1.5-1c-1.1-0.7-2.3-1.4-3.5-2c-0.8-0.4-1.7-0.8-2.5-1.2c-0.6-0.3-1.3-0.5-1.9-0.8
	c-1.6-0.6-3.2-1.1-4.8-1.4c-0.2-0.1-0.5-0.1-0.7-0.2c-1.1-0.2-2.3-0.3-3.5-0.4c-0.3,0-0.7,0-1,0v2.4c0.6,0,1.2,0,1.8,0.1
	c0.8,0,1.5,0.2,2.3,0.3c0,0,0.1,0,0.2,0c1.4,0.3,2.8,0.7,4.1,1.1c0.5,0.2,1,0.3,1.5,0.5c1.1,0.4,2.2,0.9,3.3,1.4
	c1.8,0.9,3.6,2,5.3,3.1l0.5,0.4l0.3,0.2c0.1,0.1,0.3,0.2,0.4,0.3c0.2,0.1,0.4,0.3,0.6,0.4c0.7,0.5,1.3,1,2,1.5l0,0
	c1,0.8,2,1.7,2.9,2.6c2.6,2.7,4.1,5.4,4.3,8.1c0.4,4.7,0,8.5-0.7,11.5c0,0.1,0,0.1,0,0.2c-0.5,2.2-1.3,4-2,5.4
	c-0.2,0.5-0.5,0.9-0.8,1.3c-1.4,2.1-6.1,6.6-12.2,11.9c-0.1,0.1-0.2,0.2-0.3,0.2c-1.5,1.3-3.1,2.6-4.8,4c-0.8,0.6-1.5,1.2-2.2,1.8
	c-0.8,0.6-1.6,1.3-2.4,1.8l0,0c0,0,0,0-0.1,0c-0.3,0.2-0.6,0.5-0.9,0.7c-0.3,0.2-0.6,0.5-0.9,0.7c-5.9,4.4-10.6,7.5-12.7,8.2
	l-1.5,0.4c-0.8,0.2-1.6,0.5-2.4,0.7c-3.2,1-6.6,1.9-9.7,1.9c-4.8,0.2-9-2.8-10.6-7.3c-0.6-2.3-0.7-4.7-0.4-7.1
	c0.1-1.1,0.4-2.2,0.7-3.2c0.4-1.6,1.3-4.4,2.4-7.9c0-0.1,0-0.1,0.1-0.2c0.6-1.9,1.2-3.9,1.9-6c0.1-0.3,0.2-0.6,0.3-1
	c0.1-0.3,0.2-0.6,0.3-1l0,0c1.3-3.8,2.7-7.7,4-11c0.3-0.6,0.5-1.3,0.8-1.9c0.1-0.2,0.2-0.5,0.3-0.7c0.1-0.3,0.2-0.5,0.3-0.8
	c1-2.3,1.9-4.3,2.6-6c0.2-0.5,0.4-0.9,0.6-1.3c0.5-1,0.9-2,1.2-2.9c0.8-1.8,1.9-3.5,3.3-5c0.2-0.2,0.4-0.5,0.7-0.7
	c0.1-0.1,0.1-0.1,0.2-0.2c0.4-0.4,0.8-0.7,1.2-1.1c0.1-0.1,0.2-0.2,0.3-0.2c0.4-0.4,0.9-0.8,1.3-1.1c1.4-1.1,2.9-2,4.6-2.7
	c0.1-0.1,0.3-0.1,0.4-0.2c1.1-0.4,2.2-0.8,3.3-1c1.2-0.3,2.5-0.4,3.9-0.4h0.2v-0.6l0.1-0.6l0.1-0.6v-0.1v-0.6c-0.3,0-0.6,0-0.9,0
	c-1.1,0-2.2,0.2-3.3,0.4l0,0c-1.4,0.3-2.8,0.7-4.1,1.2c-1,0.4-1.9,0.9-2.8,1.4c-0.6,0.4-1.2,0.7-1.8,1.2c-0.8,0.6-1.7,1.2-2.4,1.9
	c-0.2,0.2-0.5,0.4-0.7,0.6c-1.8,1.5-3.3,3.4-4.5,5.4c-0.2,0.3-0.3,0.6-0.5,0.9c-0.2,0.4-0.5,0.9-0.7,1.3c-0.7,1.6-1.5,3.6-2.6,6
	c-0.1,0.3-0.2,0.5-0.3,0.8c-0.3,0.8-0.7,1.6-1.1,2.5c-0.3,0.7-0.7,1.5-1,2.3s-0.7,1.7-1.1,2.6c-1.1,2.6-2.1,5.4-3.1,8.3l0,0
	c-0.1,0.3-0.2,0.7-0.4,1l0,0c-0.1,0.3-0.2,0.7-0.3,1c-0.6,1.7-1.1,3.4-1.6,5c-0.2,0.5-0.3,1.1-0.5,1.6v0.1l0,0
	c-1.3,4-2.3,7.5-2.8,9.5c-0.3,1.2-0.6,2.4-0.7,3.6c0,0.4-0.1,0.8-0.1,1.2c-0.4,5.3,0.5,10,5.7,13.7c2.3,1.5,4.9,2.3,7.7,2.2
	c1.8,0,3.5-0.2,5.3-0.6c3.1-0.6,6.2-1.7,9-2.6c2.8-0.9,8.9-5,15.5-10.1c0.3-0.2,0.6-0.5,0.9-0.7c0.3-0.2,0.6-0.5,0.9-0.7
	c0,0,0,0,0.1,0c0,0,0.1,0,0.1-0.1c3.2-2.6,6.5-5.3,9.5-7.8c0.1-0.1,0.1-0.1,0.2-0.2c2.7-2.4,5.2-4.6,7.1-6.5c1.6-1.6,2.9-3,3.5-4
	c1.6-2.4,2.6-5.1,3.2-7.9c0.6-2.7,0.8-5.3,0.9-7.9C161.3,133.7,161.2,132.3,161.1,131z M129.8,109.9c-0.1-0.1-0.2-0.2-0.3-0.3
	c-0.1-0.1-0.2-0.2-0.3-0.3v1.7c0.6,0,1.2,0,1.8,0.1C130.6,110.6,130.2,110.2,129.8,109.9z"/>
<ellipse transform="matrix(0.9998 -1.867490e-02 1.867490e-02 0.9998 -2.5169 2.6643)" class="st10" cx="141.4" cy="136.1" rx="12.9" ry="16.1"/>
<ellipse transform="matrix(0.9998 -1.867535e-02 1.867535e-02 0.9998 -2.953 2.3715)" class="st10" cx="125.5" cy="159.3" rx="9.2" ry="11.5"/>
<ellipse transform="matrix(0.9998 -1.867490e-02 1.867490e-02 0.9998 -3.1317 2.0332)" class="st10" cx="107.3" cy="168.7" rx="7.2" ry="9.1"/>
<ellipse transform="matrix(0.9998 -1.867490e-02 1.867490e-02 0.9998 -2.5168 2.6792)" class="st11" cx="142.2" cy="136.1" rx="4.4" ry="6"/>
<ellipse transform="matrix(0.9658 -0.2593 0.2593 0.9658 -37.1029 38.1075)" class="st11" cx="125.9" cy="159.7" rx="3.8" ry="5.2"/>
<ellipse transform="matrix(0.9658 -0.2593 0.2593 0.9658 -40.2291 33.6129)" class="st11" cx="107.3" cy="169.3" rx="2.8" ry="3.9"/>
<path class="st12" d="M102,156.6c0,0,1.9-4.2,8.2-2.3c1-2.7,3.2-10,14.3-9.5c-0.6-2.5-5.4-13,2.6-23.8c-3.3-1.3-5.4-2.2-9.3,3
	S101.5,155.4,102,156.6z"/>
<line class="st13" x1="83.3" y1="119.9" x2="108.3" y2="121.5"/>
<line class="st13" x1="97.2" y1="107.2" x2="125.1" y2="109"/>
<polyline class="st13" points="129.1,109.2 136.4,109.7 136.4,109.7 "/>
<line class="st13" x1="76.6" y1="135.5" x2="101.5" y2="137.1"/>
<line class="st13" x1="71.2" y1="150.9" x2="96" y2="152.4"/>
<line class="st13" x1="67.3" y1="166.8" x2="91.8" y2="168.4"/>
<path class="st14" d="M72.5,94.1l36.8-6.7c6.2-1.3,10.8-1.2,12.5,4.7l0,0c1,5.9-1.9,7.2-7.5,9.4l-37.2,15
	c-5.9,1.7-12.1-1.7-13.8-7.7l0,0C61.8,102.9,66.6,95.8,72.5,94.1z"/>
<path class="st15" d="M75.3,93.6l38.3-7.6c6.2-1.3,10.6,11.9,5.1,14.1l-37.2,15c-5.9,1.7-12.1-1.7-13.8-7.7l0,0
	C66,101.4,69.4,95.3,75.3,93.6z"/>
<path class="st16" d="M65.9,102.9c0,0-0.3-1.9,1.9-4.6c-4.3-2.2-15.4-5.9-16.9-4.8c-1,0.7-2,2.8-2.8,4.8c-0.7,1.4-0.1,3.1,1.3,3.7
	c0.3,0.1,0.6,0.2,0.9,0.3c5.7,0.7,14.5,1.4,14.5,1.4L65.9,102.9z"/>
<path class="st17" d="M67.9,98.3c-4.3-2.2-14.6-7.1-16.1-6c-1,0.8-2.2,2.7-3.1,4.5c-0.7,1.4-0.2,3,1.2,3.7l0,0
	c0.3,0.1,0.6,0.2,0.9,0.3c5.7,0.7,14.8,2.4,15.2,2.2C65.9,101.2,66.6,99.5,67.9,98.3z"/>
<path class="st16" d="M67,110.4c0,0-1.4-1.3-1.3-4.8c-4.8,0.9-15.8,4.6-16.4,6.4c-0.4,1.2,0.1,3.4,0.6,5.5c0.3,1.5,1.8,2.5,3.3,2.2
	c0.3-0.1,0.6-0.2,0.8-0.3c4.9-2.9,12.4-7.6,12.4-7.6L67,110.4z"/>
<path class="st17" d="M65.8,105.5c-4.8,0.9-15.9,3.2-16.4,5c-0.4,1.2-0.1,3.5,0.3,5.5c0.3,1.5,1.7,2.5,3.2,2.2
	c0.3-0.1,0.6-0.2,0.9-0.3c4.9-2.9,13.2-7,13.4-7.4C66,109.1,65.4,107.2,65.8,105.5z"/>
<path class="st16" d="M73.7,115.3c0,0-1.9-0.1-4.2-2.8c-3,3.8-8.2,10-7.4,11.7c0.5,1.1,0.6,1.3,2.3,2.5c1.3,0.9,3.1,0.6,4-0.7
	c0.1-0.2,0.2-0.4,0.3-0.6c1.5-3.1,3.3-6.1,5.4-8.8L73.7,115.3z"/>
<path class="st17" d="M69.5,112.4c-3,3.8-9.1,9-8.3,10.7c0.3,1.1,1.1,2.1,2.1,2.7c1.5,1.2,3.5,0.4,4.3-1.3c2.5-5.1,6.4-8.9,6.3-9.4
	C72,115,70.4,114,69.5,112.4z"/>
<path class="st16" d="M71.2,94.5l-2.3,2.8c0,0-1.2,0.2-1.4,0.2c-1.5,0.1-9.8-8.1-8.1-9.8s4.4-3.3,5.2-3c0.1,0,1.2,0.2,1.2,0.2
	S71.9,94.5,71.2,94.5z"/>
<path class="st17" d="M72.7,94.3c-0.8,0.3-1.5,0.7-2.2,1.2c-0.6,0.5-1.1,1.1-1.6,1.7c-1,1.1-9.8-8.2-8.1-9.8s4.4-2.9,5.2-2.6
	S73.4,94.3,72.7,94.3z"/>
<ellipse transform="matrix(0.6372 -0.7707 0.7707 0.6372 -51.5547 98.2518)" class="st18" cx="78.6" cy="103.9" rx="3.9" ry="4.4"/>
<path class="st19" d="M89.7,97.2c0,0,30.3-15.8,44.1-18.7c0,0,37.2-3.3,69.4-2.3c-3.7,3-35.8,17.5-40.4,18.6S102.1,98.6,89.7,97.2z"
	/>
<path class="st20" d="M152.7,91.7c0,0,12.3-7.8,13.6-8.3S142.1,83,142.1,83s-11.9,7.3-12.7,8.2S152.7,91.7,152.7,91.7z"/>
<path class="st21" d="M203.7,76.1c0,0,4.8,53,1.3,66.6c-3.9,3.5-30.8,16.8-39.6,17.1c-1.2-6.1-4.3-60.6-2.1-65.1
	C166.5,92.1,190.5,80.3,203.7,76.1z"/>
<path class="st11" d="M89.7,97.2c0,0-0.1,27.2,1.6,47.1c0.6,7.7,8.3,14.9,9.5,15.1c2.9,2.5,68.7,3,72.5,0.3c-4.7-4-7.5-9.8-7.6-16
	c-0.4-13.2-1.9-32.9-2.4-48.9C160.9,93.6,101.2,95.1,89.7,97.2z"/>
<path class="st22" d="M153.1,64.3l1,20l-17.5,1.1c-2.9,0.2-5.5-4.2-5.8-9.7s1.9-10.1,4.8-10.3c1.1,0,2.1,0.4,2.8,1.2L153.1,64.3z"/>
<path class="st23" d="M75.3,64.7c0,0,6.8,4.6,18.4,5.4c5.1,0.4,11.8-0.5,18.2-1.7c20.8-3.8,29.6-15.2,29.6-15.2s-2.1-14.3-2.7-19.2
	S131,20.2,131,20.2L75.3,64.7z"/>
<path class="st23" d="M209,58.7c0,0-3.6,7.3-17,7.5s-33.2-4.1-33.2-4.1l-13.2-15.6L209,58.7z"/>
<path class="st11" d="M133.6,23.4l6.8-0.7l1,22.4l-6.7,0.3C134.8,45.5,135.1,31,133.6,23.4z"/>
<polygon class="st24" points="134.8,45.5 139.5,51.2 144.2,51 141.5,45.1 "/>
<polygon class="st25" points="129.6,45.8 147.9,44.8 148.4,77 131,77.5 "/>
<path class="st26" d="M134.8,45.3l-0.3,3.9c0,0.2-0.1,0.4-0.2,0.5l-4.5,3.7c-0.3,0.2-0.7,0.2-0.9-0.1c-0.1-0.1-0.1-0.2-0.1-0.3
	l-0.2-1.1c0-0.2,0-0.4,0.1-0.6l5-6.5c0.2-0.3,0.7-0.3,0.9-0.1C134.7,44.9,134.8,45.1,134.8,45.3L134.8,45.3z"/>
<polygon class="st27" points="158.7,62.1 157.4,69.4 148.4,77 147.9,44.8 "/>
<path class="st23" d="M141.7,45.7c0,0,0.5,3.7,1.3,4.2c4,1.8,8.2,3.3,12.4,4.5c1.2,0.1,0.8-2.7,0.8-2.7L141.7,45.7z"/>
<path class="st28" d="M141.7,45.7c0,0,0.6,4.5,1.6,4.4c1.2,0.5,10.4,4,10.4,4"/>
<path class="st29" d="M200.6,59.6c-8,0-20.8-2-34.4-5.4c-13.9-3.5-21.6-6.7-22.7-7.9c-1.1-3.9-1.8-16.6-1.2-24.5
	c0.1-1.1,1-2.1,2.1-2.2c8.4-1,16.9-1.5,25.3-1.5c11.3,0,22.6,0.7,33.9,2.2c0.9,0.1,1.7,0.8,1.9,1.6c4.3,12.5,2.9,28.8,2.1,35.2
	c-0.1,1-0.9,1.9-1.9,2.1C204.1,59.5,202.3,59.6,200.6,59.6L200.6,59.6z"/>
<path class="st30" d="M207.3,21.5c-0.5-1.5-1.8-2.6-3.4-2.8c-11.4-1.6-22.8-2.4-34.1-2.4c-8.5,0-17.1,0.5-25.6,1.5
	c-2,0.3-3.5,1.9-3.6,3.9c0,0.8-0.1,1.7-0.1,2.7c0,1.8-0.1,3.8,0,5.8c0,0.2,0,0.5,0,0.8c0,0.2,0,0.5,0,0.7l0,0c0,0.7,0,1.3,0.1,2
	c0.1,3.7,0.4,7.3,0.8,10c0.1,0.5,0.1,1,0.2,1.4c0,0,0,0.1,0,0.2c0,0.3,0.1,0.5,0.2,0.7v0.1c0.1,0.3,0.1,0.6,0.2,0.8
	c0.1,0.3,0.4,0.6,0.8,0.9c0.3,0.2,0.6,0.4,1,0.7l0,0c0.6,0.3,1.2,0.7,2,1c0,0,0,0,0.1,0c0.3,0.2,0.7,0.3,1.1,0.5
	c0.3,0.1,0.7,0.3,1,0.4c0.5,0.2,1,0.4,1.6,0.6c0.9,0.3,1.9,0.7,3,1c0.9,0.3,1.8,0.6,2.7,0.9l0,0c0.3,0.1,0.6,0.2,0.9,0.3
	c0.4,0.1,0.8,0.3,1.3,0.4h0.1c4.1,1.2,8.7,2.4,13.5,3.5c0.4,0.1,0.7,0.2,1.1,0.2c2.4,0.5,4.8,1,7.2,1.5c0.1,0,0.2,0,0.2,0
	c1.8,0.3,3.5,0.7,5.3,0.9c1.8,0.3,3.5,0.5,5.2,0.7c0.3,0,0.5,0.1,0.8,0.1s0.5,0.1,0.8,0.1c0.1,0,0.2,0,0.3,0
	c3.2,0.3,6.2,0.5,8.7,0.5c1.8,0,3.7-0.1,5.5-0.4c0.5-0.1,1-0.3,1.5-0.6c1-0.7,1.7-1.7,1.8-3C210.3,51.3,211.7,34.5,207.3,21.5z
	 M205.9,56.9c0,0.3-0.2,0.5-0.5,0.5c-0.6,0.1-1.2,0.2-1.8,0.2c-1,0.1-2,0.1-3,0.1c-2.4,0-5.4-0.2-8.7-0.6c-0.4,0-0.8-0.1-1.3-0.2
	c-0.3,0-0.6-0.1-0.9-0.1c-0.3,0-0.6-0.1-0.8-0.1l0,0c-1.3-0.2-2.7-0.4-4.1-0.6c-1.9-0.3-3.9-0.7-5.9-1.1c-0.2,0-0.5-0.1-0.7-0.1
	c-2.1-0.4-4.3-0.9-6.5-1.4c-1.4-0.3-2.8-0.7-4.2-1c-0.8-0.2-1.7-0.4-2.5-0.6c-4.3-1.1-8.4-2.3-11.8-3.4c-0.4-0.1-0.8-0.2-1.2-0.4
	c-0.8-0.3-1.7-0.6-2.5-0.9c0,0-0.1,0-0.1-0.1c-0.5-0.2-1-0.4-1.5-0.6c-1-0.4-1.9-0.9-2.8-1.4c0-0.1,0-0.2,0-0.2
	c-0.5-2.6-1-7.9-1.1-13.3l0,0l0,0c0-0.2,0-0.5,0-0.7s0-0.5,0-0.8c0-2.9,0-5.8,0.2-8.3c0-0.3,0.3-0.6,0.6-0.6
	c5.6-0.7,11.2-1.1,16.8-1.3c2.5-0.1,5.1-0.1,7.6-0.1h1.2c1,0,2,0,3.1,0c10,0.1,20,0.8,29.9,2.2c0.3,0,0.5,0.2,0.5,0.5
	C207.9,34.7,206.6,50.6,205.9,56.9z M165,52c-4.3-1.1-8.4-2.3-11.8-3.4c-0.4-0.1-0.8-0.2-1.2-0.4c-0.8-0.3-1.7-0.6-2.5-0.9
	c0,0-0.1,0-0.1-0.1c-0.5-0.2-1-0.4-1.5-0.6V47v1.3v0.3c0.3,0.1,0.5,0.2,0.8,0.3c0.7,0.3,1.4,0.5,2.2,0.8s1.6,0.5,2.5,0.8
	c3.4,1.1,7.7,2.4,12.8,3.6c0.9,0.2,1.7,0.4,2.6,0.6C167.6,53.7,166.4,52.8,165,52z"/>
<polygon class="st25" points="132.6,82.6 133.9,91 152.6,90.4 150.5,82 "/>
<polygon class="st27" points="158.8,77.2 164,83.5 152.6,90.4 150.5,82 "/>
<ellipse transform="matrix(0.9986 -5.199231e-02 5.199231e-02 0.9986 -3.6551 8.0861)" class="st31" cx="153.6" cy="74.3" rx="5.3" ry="10"/>
<path class="st32" d="M134.6,44.9c0,0,0,4.4-0.4,4.7l-4.5,3.7"/>
<path class="st29" d="M80.1,64.3c-0.7,0-1.4,0-2.1-0.1c-1-0.1-1.8-0.8-2-1.8c-1.4-6.3-4.2-22.4-1.2-35.2c0.2-0.9,0.9-1.5,1.7-1.8
	c14.7-3.3,29.8-4.9,44.9-4.8c2.3,0,4.6,0,6.9,0.1c1.1,0,2,0.8,2.2,1.9c1.2,7.7,1.8,20.6,1.1,24.5c-0.8,1.1-6.8,4.9-20.6,9.9
	C98.4,61.6,86.9,64.3,80.1,64.3z"/>
<path class="st30" d="M133.6,37c0-1.3-0.1-2.7-0.2-4.1l0,0c0-0.3,0-0.5,0-0.8c0-0.2,0-0.5-0.1-0.7c-0.2-3.3-0.6-6.5-1-9
	c0-0.2-0.1-0.4-0.1-0.6l0,0c-0.5-1.7-2.1-2.8-3.8-2.9h-6.9c-22.8,0-38.3,3.2-45.3,4.9c-1.5,0.4-2.7,1.6-3.1,3.1
	c-3.2,13.3-0.2,29.9,1.1,36c0.4,1.7,1.8,3,3.5,3.2c0,0,0,0,0.1,0c0.8,0.1,1.5,0.1,2.3,0.1c6.3,0,15.4-2.1,24.4-4.9
	c0.3-0.1,0.6-0.2,0.8-0.3c0.3-0.1,0.5-0.2,0.8-0.3l0,0c3.9-1.3,7.7-2.7,11.2-4.1c4.5-1.8,8.5-3.6,11.3-5.2c0.4-0.2,0.8-0.5,1.1-0.7
	c2.1-1.2,3.3-2.3,3.5-3.1c0.1-0.5,0.2-1.2,0.3-2c0-0.2,0-0.4,0-0.7C133.7,42.8,133.7,40,133.6,37z M107.4,56.4L107.4,56.4
	c-0.3,0.1-0.6,0.2-0.9,0.3s-0.6,0.2-0.9,0.3c-10.5,3.5-19.9,5.5-25.6,5.5c-0.6,0-1.2,0-1.8-0.1c0,0,0,0-0.1,0
	c-0.2,0-0.4-0.2-0.4-0.4c-1.1-4.9-1.8-9.8-2.2-14.8c-0.7-6.5-0.3-13.1,1-19.5c0-0.2,0.2-0.3,0.4-0.4c14.6-3.3,29.5-4.9,44.5-4.8
	c2.1,0,4.5,0,6.6,0.1c0.1,0,0.1,0,0.2,0c0.2,0,0.4,0.2,0.4,0.4c0.5,2.8,0.8,6.2,1.1,9.5c0,0.2,0,0.5,0,0.8s0,0.5,0,0.8
	c0,0,0,0,0,0.1c0.1,1.9,0.2,3.7,0.2,5.4c0,2.6,0,4.9-0.1,6.4c0,0.2,0,0.3-0.1,0.5c-0.1,0-0.1,0.1-0.2,0.1c-2,1.4-4,2.6-6.2,3.6
	c-1.3,0.6-2.6,1.2-3.9,1.7c-3.3,1.4-6.7,2.8-10.1,4C108.7,55.9,108.1,56.2,107.4,56.4z"/>
<path class="st33" d="M164.1,49.3c-6.9,0-12.4-5.8-12.7-13.3c-0.2-3.6,1.1-7.1,3.4-9.9c2.2-2.6,5.4-4.2,8.8-4.3h0.4
	c6.9,0,12.4,5.9,12.7,13.3s-5.2,13.9-12.2,14.2H164.1z"/>
<path class="st34" d="M177.3,30.7c-0.2-0.5-0.3-1-0.5-1.5c-0.1-0.3-0.2-0.6-0.4-0.8c-0.2-0.3-0.4-0.7-0.5-1
	c-0.1-0.2-0.2-0.3-0.3-0.5c-0.2-0.3-0.4-0.7-0.7-1c-0.2-0.3-0.5-0.6-0.7-0.9c-0.3-0.4-0.7-0.7-1.1-1.1c-0.7-0.6-1.4-1.2-2.1-1.6
	c-0.6-0.4-1.2-0.7-1.8-0.9c-1.7-0.7-3.5-1.1-5.3-1.1h-0.4c-0.7,0-1.4,0.1-2,0.2c-0.1,0-0.2,0-0.3,0.1l0,0c-4.8,1-8.7,4.7-10.3,9.4
	c-0.1,0.2-0.2,0.5-0.2,0.8c-0.1,0.2-0.1,0.5-0.2,0.7l0,0c0,0.2-0.1,0.4-0.1,0.6c-0.3,1.2-0.4,2.5-0.3,3.9c0.2,5.3,2.9,9.9,6.8,12.5
	c0.2,0.1,0.4,0.2,0.6,0.4c1.7,1,3.6,1.7,5.6,1.8c0.4,0,0.8,0.1,1.2,0.1h0.4c0.8,0,1.6-0.1,2.4-0.3c1.5-0.3,2.9-0.9,4.2-1.7
	c0.9-0.6,1.7-1.2,2.5-2c1.8-1.7,3.1-4,3.9-6.5l0,0c0-0.1,0-0.1,0.1-0.2c0-0.2,0.1-0.4,0.2-0.6c0.1-0.3,0.1-0.6,0.2-0.9
	c0.2-0.9,0.3-1.8,0.3-2.7c0-0.3,0-0.6,0-0.9C178,33.7,177.8,32.2,177.3,30.7z M174.8,38.5L174.8,38.5c-0.4,2.1-1.3,4-2.8,5.7
	c-0.1,0.2-0.3,0.3-0.4,0.5c-0.3,0.4-0.7,0.7-1.1,1c-1.8,1.4-3.9,2.2-6.2,2.3H164c-2.9,0-5.7-1.3-7.7-3.4c-3-3.2-4.1-7.6-3.2-11.7
	c0.1-0.4,0.2-0.9,0.3-1.3l0,0l0,0c0.1-0.2,0.2-0.5,0.2-0.7c0.1-0.3,0.2-0.5,0.3-0.8c0.5-1,1.1-2,1.8-2.9c0.6-0.7,1.3-1.4,2.1-1.9
	c0.8-0.6,1.7-1,2.7-1.3c0.5-0.2,1-0.3,1.6-0.4c0.5-0.1,0.9-0.2,1.4-0.2h0.4c1.1,0,2.2,0.2,3.2,0.5l0,0c0.8,0.2,1.5,0.6,2.2,1
	c0.9,0.5,1.7,1.2,2.3,1.9l0.1,0.1c0.3,0.3,0.5,0.6,0.8,0.9c0.4,0.5,0.8,1.1,1.1,1.6c0.2,0.3,0.3,0.6,0.4,0.9
	c0.4,0.7,0.6,1.5,0.8,2.3c0.3,1.4,0.5,2.8,0.4,4.2c0,0.3,0,0.6-0.1,0.9C175,37.9,174.9,38.2,174.8,38.5z"/>
<path class="st33" d="M110.6,52.2c-6.9,0-12.4-5.9-12.7-13.3c-0.2-3.6,1.1-7.1,3.4-9.9c2.2-2.6,5.4-4.2,8.7-4.3h0.4
	c6.9,0,12.4,5.9,12.7,13.3c0.2,3.6-1.1,7.1-3.4,9.9c-2.2,2.6-5.3,4.1-8.7,4.3H110.6z"/>
<path class="st34" d="M124.5,36.5L124.5,36.5c0-0.3-0.1-0.6-0.1-0.9c0-0.2-0.1-0.5-0.1-0.7c-0.6-2.5-1.7-4.8-3.3-6.7
	c-2.6-3.1-6.4-5-10.5-5H110c-7.8,0.3-13.9,7.3-13.6,15.7c0.1,2.7,0.8,5.2,2,7.3c1.9,3.4,5,6,8.6,7c0.2,0.1,0.5,0.1,0.7,0.2
	c0.2,0,0.5,0.1,0.8,0.1l0,0c0.7,0.1,1.3,0.2,2,0.2h0.4c7.8-0.3,13.9-7.3,13.6-15.7C124.6,37.5,124.5,37,124.5,36.5z M110.6,50.7
	c-0.2,0-0.3,0-0.5,0l0,0c-0.3,0-0.6,0-0.8-0.1c-0.2,0-0.5-0.1-0.8-0.1c-2.1-0.4-4.1-1.5-5.6-3.2c-0.9-0.9-1.6-1.9-2.1-3
	c-0.9-1.7-1.3-3.6-1.4-5.5c-0.2-6.8,4.6-12.4,10.7-12.6h0.3c2.9,0,5.7,1.2,7.7,3.4c0.2,0.2,0.3,0.3,0.5,0.5c1.6,1.8,2.5,4,2.9,6.4
	c0,0.3,0.1,0.5,0.1,0.8s0,0.5,0,0.8v0.2c0.1,6.7-4.7,12.2-10.7,12.4C110.9,50.7,110.6,50.7,110.6,50.7z"/>
<ellipse transform="matrix(0.9994 -3.350663e-02 3.350663e-02 0.9994 -2.4197 5.2018)" class="st35" cx="154" cy="74.8" rx="2.3" ry="5"/>
<path class="st36" d="M131.2,79.1c-7.8,1.4-41.4,18.1-41.4,18.1s0.2,44.4,1.6,47.1c0.7,3.2,0.8,7.3,8.4,14.4c2.4,1.1,3.5,4.3,52,2.8
	"/>
<path class="st36" d="M158.9,76.8c0,0,43-1.4,44.8-0.6c0,0,2.7,36.8,2.4,39"/>
<path class="st37" d="M147.9,111.3l-42.4,0.4c-1.7,0-3.1,1.4-3.1,3.2c0,0.1,0,0.1,0,0.2l1.7,25.1c0.1,1.7,1.5,3,3.2,2.9l42.4-0.4
	c1.7,0,3.1-1.4,3.1-3.2l0,0c0-0.1,0-0.1,0-0.2l-1.7-25.1C151,112.5,149.6,111.3,147.9,111.3z"/>
<path class="st38" d="M148.6,112.5l-42.5,0.3c-1.4,0-2.5,1.1-2.4,2.5v0.1l1.7,25.2c0.1,1.3,1.2,2.3,2.5,2.3l42.5-0.3
	c1.4,0,2.4-1.1,2.4-2.5l0,0V140l-1.7-25.3C151,113.5,149.9,112.5,148.6,112.5z"/>
<path class="st39" d="M121.7,125.4l26.1-0.4c0.9,0,1.6-0.7,1.5-1.6l0,0l-0.6-7.4c0-0.9-0.8-1.6-1.6-1.5l-26.1,0.4
	c-0.9,0-1.6,0.7-1.5,1.6l0.6,7.4C120.1,124.8,120.8,125.5,121.7,125.4C121.7,125.5,121.7,125.5,121.7,125.4z"/>
<ellipse transform="matrix(0.9991 -4.222509e-02 4.222509e-02 0.9991 -4.935 6.1535)" class="st40" cx="143.2" cy="119.9" rx="3.1" ry="3.8"/>
<ellipse transform="matrix(0.9991 -4.222509e-02 4.222509e-02 0.9991 -4.9433 5.7608)" class="st41" cx="133.9" cy="119.9" rx="3.1" ry="3.8"/>
<ellipse transform="matrix(0.9991 -4.222509e-02 4.222509e-02 0.9991 -4.9682 5.3812)" class="st42" cx="124.9" cy="120.3" rx="3.1" ry="3.8"/>
<path class="st43" d="M127.2,131.7l20.6-0.3c0.9,0,1.6-0.8,1.6-1.7l0,0c0-0.9-0.8-1.6-1.7-1.6l-20.6,0.3c-0.9,0-1.6,0.8-1.6,1.7l0,0
	C125.5,131,126.3,131.7,127.2,131.7z"/>
<path class="st44" d="M139.3,141.5l9.1-0.2c0.9,0,1.6-0.8,1.6-1.7l0,0c0-0.9-0.8-1.6-1.7-1.6l-9.1,0.2c-0.9,0-1.6,0.8-1.6,1.7l0,0
	C137.6,140.8,138.4,141.5,139.3,141.5z"/>
<path class="st44" d="M139,136.9l9.1-0.2c0.9,0,1.6-0.8,1.6-1.7l0,0c0-0.9-0.8-1.6-1.7-1.6l-9.1,0.2c-0.9,0-1.6,0.8-1.6,1.7l0,0
	C137.3,136.2,138.1,136.9,139,136.9z"/>
<polygon class="st45" points="116.6,115.2 104.1,115.2 105.8,140.8 118.4,140.7 "/>
<radialGradient id="SVGID_1_" cx="-130.6637" cy="2241.9375" r="2.13" gradientTransform="matrix(-0.9978 6.644805e-02 6.644805e-02 0.9978 -173.1026 -2110.4268)" gradientUnits="userSpaceOnUse">
	<stop  offset="0.2" style="stop-color:#666666"/>
	<stop  offset="0.57" style="stop-color:#585858"/>
	<stop  offset="1" style="stop-color:#4D4D4D"/>
</radialGradient>
<path class="st46" d="M106.3,116.5c0.7,0,1.4,0.6,1.5,1.5s-0.5,1.6-1.3,1.7c-0.7,0-1.4-0.6-1.5-1.5S105.5,116.5,106.3,116.5z"/>
<path class="st47" d="M106.3,116.5c-0.3,1.1-0.2,2.2,0.3,3.1"/>
<path class="st47" d="M107.7,118c-0.9,0.3-1.8,0.3-2.7,0.2"/>
<radialGradient id="SVGID_2_" cx="-139.2936" cy="2263.0576" r="2.13" gradientTransform="matrix(-0.9978 6.644805e-02 6.644805e-02 0.9978 -173.0965 -2110.4177)" gradientUnits="userSpaceOnUse">
	<stop  offset="0.2" style="stop-color:#666666"/>
	<stop  offset="0.57" style="stop-color:#585858"/>
	<stop  offset="1" style="stop-color:#4D4D4D"/>
</radialGradient>
<path class="st48" d="M116.3,137c0.7,0,1.4,0.6,1.5,1.5s-0.5,1.6-1.3,1.7c-0.7,0-1.4-0.6-1.5-1.5C115,137.8,115.5,137,116.3,137z"/>
<path class="st47" d="M116.3,137c-0.3,1.1-0.2,2.2,0.3,3.1"/>
<path class="st47" d="M117.8,138.5c-0.9,0.3-1.8,0.3-2.7,0.2"/>
<radialGradient id="SVGID_3_" cx="-130.4137" cy="2262.5276" r="2.13" gradientTransform="matrix(-0.9978 6.644805e-02 6.644805e-02 0.9978 -173.0873 -2110.4185)" gradientUnits="userSpaceOnUse">
	<stop  offset="0.2" style="stop-color:#666666"/>
	<stop  offset="0.57" style="stop-color:#585858"/>
	<stop  offset="1" style="stop-color:#4D4D4D"/>
</radialGradient>
<path class="st49" d="M107.4,137c0.7,0,1.4,0.6,1.5,1.5s-0.5,1.6-1.3,1.7c-0.7,0-1.4-0.6-1.5-1.5S106.6,137.1,107.4,137z"/>
<path class="st47" d="M107.4,137c-0.3,1.1-0.2,2.2,0.3,3.1"/>
<path class="st47" d="M108.9,138.5c-0.9,0.3-1.8,0.3-2.7,0.2"/>
<radialGradient id="SVGID_4_" cx="-138.3937" cy="2242.2976" r="2.13" gradientTransform="matrix(-0.9978 6.644805e-02 6.644805e-02 0.9978 -173.086 -2110.417)" gradientUnits="userSpaceOnUse">
	<stop  offset="0.2" style="stop-color:#666666"/>
	<stop  offset="0.57" style="stop-color:#585858"/>
	<stop  offset="1" style="stop-color:#4D4D4D"/>
</radialGradient>
<path class="st50" d="M114,116.3c0.7,0,1.4,0.6,1.5,1.5s-0.5,1.6-1.3,1.7c-0.7,0-1.4-0.6-1.5-1.5S113.2,116.4,114,116.3z"/>
<path class="st47" d="M114,116.3c-0.3,1.1-0.2,2.2,0.3,3.2"/>
<path class="st47" d="M115.5,117.8c-0.9,0.3-1.8,0.3-2.7,0.2"/>
<path class="st51" d="M149.4,129.8c-2.3-0.5-4.7-0.3-6.9,0.5c-3.3,1.3-3.6-1.6-5.1-1.5s-1.8,2.4-3.9,2.3s-1.5-0.9-2.5-0.9
	s-0.9,1.1-1.9,1s-1.5-2.9-2.1-2.8"/>
<path class="st8" d="M148.9,171.9c0.1-1.2,0.4-2.5,0.7-3.6c1.4-5,5.9-20,9.9-29.1c2.4-5.3,3.8-9,5.1-11.7c1.4-3.2,3.6-5.9,6.3-8.2
	c2.1-1.8,4.4-3.3,7-4.4c4.1-1.7,8.5-1.7,12.9-1.1c10.9,1.4,16.7,1.5,18.9,2.2c2.1,1.4,11.2,10.8,11.9,18.8
	c0.5,5.8,0.1,13.6-3.9,19.9s-20,36.1-27.1,36.8c-8.3,0.8-29.8-0.1-36.1-4.6C148.9,182.8,148.3,177.7,148.9,171.9z"/>
<path class="st9" d="M186.7,190.5c-2.5,0.1-4.9-0.6-7-2c-5.1-3.6-5.8-8.1-5.1-13.8c0.1-1.2,0.4-2.3,0.7-3.4
	c1.3-4.5,5.8-19.9,9.9-28.9c1.3-2.9,2.4-5.4,3.2-7.4c0.7-1.6,1.3-3.1,1.9-4.3c1.4-3,3.4-5.6,5.9-7.7c2-1.8,4.2-3.2,6.6-4.2
	c2.5-1,5.1-1.5,7.8-1.5c1.5,0,2.9,0.1,4.4,0.4c5.3,1.1,10.4,3.4,14.8,6.5l0.5,0.4l0.3,0.2c6.7,4.4,10.3,9.1,10.7,13.8
	c0.5,5.4,0.2,13-3.6,19.1c-1.8,2.8-8.8,9.3-17.5,16.4c-8.9,7.2-16.6,12.4-19.6,13.4l-1.5,0.5C195.3,189.1,190.8,190.5,186.7,190.5z"
	/>
<path d="M242.5,138.3c-0.7-8-9.4-13.5-11.5-14.9c-4.7-3.4-10.1-5.9-15.8-7.1c-1.5-0.1-2.9-0.2-4.5-0.3h-0.1c-0.3,0-0.6,0-0.9,0
	c-1.1,0-2.2,0.2-3.3,0.4l0,0c-0.1,0-0.2,0-0.2,0c-1.3,0.3-2.6,0.6-3.9,1.2c-0.4,0.1-0.7,0.3-1.1,0.5c-0.3,0.1-0.5,0.2-0.8,0.4
	c-0.3,0.1-0.5,0.3-0.8,0.4l0,0c-1.6,0.9-3,1.9-4.4,3.1c-2.3,1.9-4.2,4.2-5.6,6.9c-0.2,0.4-0.4,0.9-0.7,1.3
	c-1.2,2.7-2.7,6.4-5.1,11.7c-0.3,0.7-0.6,1.5-1,2.2c0,0.1-0.1,0.2-0.1,0.3v0.1c-1.4,3.5-2.9,7.6-4.2,11.5c-0.4,1.3-0.9,2.6-1.2,3.8
	c-0.3,1-0.6,1.9-0.9,2.8c0,0,0,0,0,0.1c-0.1,0.4-0.2,0.7-0.4,1.1c-0.1,0.4-0.2,0.7-0.3,1.1c-0.8,2.5-1.4,4.6-1.8,6
	c-0.3,1.2-0.6,2.4-0.7,3.6c0,0.4-0.1,0.8-0.1,1.2c-0.4,5.3,0.5,10,5.7,13.7c0.4,0.3,0.8,0.5,1.2,0.7c2,1,4.2,1.6,6.5,1.5
	c1.8,0,3.6-0.2,5.3-0.6c1.2-0.2,2.4-0.5,3.6-0.9c1.9-0.5,3.7-1.2,5.4-1.7c6.8-2.1,33.7-24,37.7-30.3S243,144.1,242.5,138.3z
	 M219.5,173.1c-8.7,7-16.4,12.3-19.1,13.2l-1.5,0.5c-0.9,0.3-1.9,0.6-2.8,0.9c-3.1,0.9-6.3,1.7-9.3,1.7c-4.7,0.2-9-2.8-10.6-7.3
	c-0.6-2.3-0.7-4.8-0.4-7.1c0.1-1.1,0.4-2.2,0.7-3.2c0.5-1.8,1.5-5.1,2.8-9.1c0.1-0.4,0.2-0.8,0.4-1.2c0.1-0.4,0.3-0.8,0.4-1.3
	c0,0,0,0,0-0.1l0,0c0.6-1.8,1.2-3.6,1.8-5.4c1.1-3.2,2.3-6.5,3.4-9.3c0.1-0.3,0.3-0.6,0.4-1c0.2-0.5,0.4-1,0.6-1.5
	c1.3-3,2.4-5.5,3.2-7.5c0.7-1.6,1.3-3.1,1.8-4.2c1.3-2.8,3.2-5.3,5.6-7.3c0.8-0.7,1.7-1.4,2.6-2l0,0c0.2-0.2,0.5-0.3,0.8-0.5
	s0.5-0.3,0.8-0.5c0.7-0.4,1.4-0.7,2.2-1.1c0.9-0.4,1.9-0.7,2.9-0.9c1.4-0.3,2.9-0.5,4.5-0.5v-0.2c0.6,0,1.1,0,1.7,0.1
	c0.8,0.1,1.6,0.2,2.4,0.3c5.2,1.1,10.1,3.3,14.4,6.3l0.6,0.4l0.3,0.2c2.1,1.4,4.1,3,5.9,4.8c2.6,2.7,4.1,5.4,4.3,8.1
	c0.8,9.4-1.4,15.2-3.5,18.4C235.1,159.6,228,166.2,219.5,173.1z"/>
<ellipse transform="matrix(0.9998 -1.867490e-02 1.867490e-02 0.9998 -2.6428 4.1876)" class="st10" cx="222.9" cy="143.6" rx="12.9" ry="16.1"/>
<ellipse transform="matrix(0.9998 -1.867490e-02 1.867490e-02 0.9998 -3.0769 3.8928)" class="st10" cx="206.9" cy="166.7" rx="9.2" ry="11.5"/>
<ellipse transform="matrix(0.9998 -1.867490e-02 1.867490e-02 0.9998 -3.2575 3.5546)" class="st10" cx="188.7" cy="176.2" rx="7.2" ry="9.1"/>
<ellipse transform="matrix(0.9998 -2.006988e-02 2.006988e-02 0.9998 -2.8309 4.5225)" class="st11" cx="223.9" cy="143.3" rx="4.4" ry="6"/>
<ellipse transform="matrix(0.9658 -0.2593 0.2593 0.9658 -36.261 59.4979)" class="st11" cx="207.4" cy="167.2" rx="3.8" ry="5.2"/>
<ellipse transform="matrix(0.9659 -0.2588 0.2588 0.9659 -39.4475 55.1385)" class="st11" cx="189.7" cy="177.4" rx="2.8" ry="3.9"/>
<path class="st12" d="M183.5,164.1c0,0,1.9-4.2,8.2-2.3c1-2.7,3.2-10,14.3-9.5c-0.6-2.5-5.4-13,2.6-23.8c-3.3-1.3-5.4-2.2-9.3,3
	S183,162.8,183.5,164.1z"/>
<line class="st13" x1="164.7" y1="127.4" x2="189.8" y2="128.9"/>
<line class="st13" x1="178.7" y1="114.7" x2="206.5" y2="116.4"/>
<polyline class="st13" points="210.5,116.7 217.9,117.1 217.9,117.1 "/>
<line class="st13" x1="158" y1="142.9" x2="183" y2="144.5"/>
<line class="st13" x1="152.6" y1="158.3" x2="177.5" y2="159.9"/>
<line class="st13" x1="148.7" y1="174.2" x2="173.3" y2="175.8"/>
<path class="st52" d="M156,34.1h12.6c1,0,1.9,0.8,1.9,1.9l0,0l0,0c0,1-0.8,1.9-1.9,1.9l0,0H156c-1,0-1.9-0.8-1.9-1.9l0,0
	C154.1,35,154.9,34.1,156,34.1L156,34.1z"/>
<path class="st52" d="M104.8,36.5h12.6c1,0,1.9,0.8,1.9,1.9l0,0c0,1-0.8,1.9-1.9,1.9h-12.6c-1,0-1.8-0.9-1.8-1.9l0,0
	C103,37.4,103.8,36.6,104.8,36.5z"/>
<path class="st53" d="M183.9,33.4l-0.3-0.1c0.4,1.8,0.6,3.6,0.7,5.5c0.1,4,1.4,51.3,1.4,51.4c0,0.7,0,1.3-0.1,2l0.5-0.5l2.5,7.3
	l-7.9-1.1l-1.4-0.2c-2.1-0.8-2.1-3.1-2.4-5l-6.6-49.4c0-1.8,0-3.6,0.2-5.4c0.4-3.7,1.9-8.9,5.6-10.6c0.4-0.2,0.8-0.3,1.2-0.4l0,0
	l1.9,0.2l6.4,0.7L183.9,33.4z"/>
<path class="st54" d="M177.4,44.4c0-1.8,0-3.6,0.2-5.4c0.4-3.7,1.9-8.9,5.6-10.6c2.6-1.2,5.4,0.6,6.5,3.1c1.1,2.6,1.7,5.5,1.7,8.3
	c0.1,4,1.4,51.3,1.4,51.4c0.2,2.3-0.5,4.5-1.9,6.3c-1.1,1.2-2.8,1.7-4.4,1.3c-2.1-0.8-2.1-3.1-2.4-5L177.4,44.4z"/>
<path class="st16" d="M157.8,31.1c-0.1-0.5-0.1-1-0.1-1.5L157.8,31.1z"/>
<path class="st16" d="M186.3,25.2l-0.1,1.6c0,0.1-0.1,0.2-0.1,0.2c-1,0.8-1.9,0.9-4.5-0.1c-0.8-0.3-13.6-4.1-12.6-5.2
	s4.1-0.1,4.3-0.1c3.8,1.2,7.6,2.5,11.2,4.1L186.3,25.2z"/>
<path class="st16" d="M181.1,25.4l-0.3,1.2l-0.4,1.3l0,0c-0.1,0.3-0.3,0.5-0.5,0.7c-0.5,0.4-1.7,0-3-0.1c-5.7-0.7-16-3.1-16.3-4.2
	c-0.1-0.5-0.1-1,0-1.5l0.7-2.6l0.4,1c0.1-0.1,0.3-0.2,0.5-0.2c2.9-1.1,12.7,2.6,17.7,5L181.1,25.4z"/>
<path class="st17" d="M169,19.9c1-1.1,4.1-0.1,4.3-0.1s10.3,3.2,12.8,5c0.1,0.1,0.2,0.3,0.1,0.4l-0.1,0.1c-1,0.8-1.9,0.9-4.5-0.2
	C180.8,24.8,168,21,169,19.9z"/>
<path class="st17" d="M181.1,24.1c-4.7-2.5-15.3-6.4-18.3-5.3c-1.3,0.6-2,2-1.6,3.4c0.3,1,10.6,3.5,16.3,4.2c1.3,0.1,2.5,0.6,3,0.1
	S181.7,24.4,181.1,24.1z"/>
<path class="st16" d="M177.4,30c0.1,1.2-0.7,2.2-1.9,2.5c-6.1,0.8-15.9,2.4-16.8,1.2c-0.5-0.8-0.9-1.6-1-2.5l0,0l-0.1-1.4v-3.3
	l19.3,0.5L177.4,30L177.4,30z"/>
<path class="st17" d="M175.4,25.4c-5.3-1.2-13.8-2.7-16.8-1.2c-1.6,1.4-1.3,5.4,0,7.1c0.9,1.2,10.7-0.4,16.8-1.2
	C177.7,29.8,178.1,26,175.4,25.4z"/>
<ellipse transform="matrix(0.1461 -0.9893 0.9893 0.1461 10.0517 179.0143)" class="st55" cx="108.7" cy="83.7" rx="6.1" ry="6"/>
<path class="st56" d="M112.2,84.1c-0.2,1.3-1,2.4-2.2,2.9l-0.4,3.1l-3.6-0.5l0.4-3.1c-1-0.8-1.5-2.1-1.3-3.4c0.1-2,1.9-3.5,3.8-3.3
	c2,0.1,3.5,1.9,3.3,3.8c0,0.1,0,0.2,0,0.3L112.2,84.1L112.2,84.1z"/>
<path class="st57" d="M106,95.4c-3.9,0-4.5-1.6-4.6-1.6l0,0c0-0.4,0.1-0.8,0.2-1.2c0.5-2.4,2.5-4.3,4.9-4.6h0.4c2,0,3.8,1.3,4.4,3.2
	c0.2,0.5,0.4,1.1,0.5,1.7V93C112,93.1,110.8,95.4,106,95.4L106,95.4z"/>
<path d="M112,92.3c0-0.1-0.1-0.3-0.1-0.4c-0.1-0.2-0.2-0.5-0.2-0.7c-0.2-0.5-0.5-1-0.8-1.3l0,0l-0.1-0.1l0,0
	c-0.1-0.1-0.1-0.1-0.2-0.2c-0.1-0.2-0.3-0.3-0.4-0.4c0,0-0.1-0.1-0.2-0.1c0,0-0.1-0.1-0.2-0.1c-0.4-0.3-0.7-0.5-1.1-0.6
	c-0.1,0-0.2-0.1-0.2-0.1c-0.4-0.1-0.9-0.2-1.3-0.2h-0.4c-0.2,0-0.3,0-0.5,0.1c-0.5,0.1-0.9,0.2-1.3,0.4c-0.3,0.1-0.6,0.3-0.9,0.5
	l0,0l0,0c-0.2,0.2-0.4,0.3-0.6,0.5l-0.2,0.2l-0.1,0.1l0,0c-0.1,0.1-0.2,0.3-0.3,0.4c-0.1,0.1-0.1,0.1-0.2,0.2
	c-0.1,0.2-0.2,0.4-0.3,0.6c0,0.1-0.1,0.2-0.1,0.3c-0.2,0.4-0.3,0.8-0.4,1.2c-0.1,0.4-0.2,0.8-0.2,1.2v0.1c0,0,0,0.1,0.2,0.3
	c0,0,0,0,0,0.1c0.4,0.5,1.6,1.3,4.4,1.3c2.2,0,3.7-0.5,4.6-1.1c0.1-0.1,0.1-0.1,0.2-0.1c0.9-0.6,1.2-1.2,1.2-1.3V93
	C112.1,92.7,112,92.5,112,92.3z M111.8,93c-0.1,0.2-0.4,0.6-1,1l0,0c-0.1,0-0.1,0.1-0.2,0.1c-0.8,0.5-2,1-3.7,1.1
	c-0.3,0-0.6,0-0.9,0c-3.9,0-4.4-1.6-4.4-1.6c0-0.4,0.1-0.8,0.2-1.2c0.1-0.5,0.2-0.9,0.5-1.3c0-0.1,0.1-0.2,0.1-0.3
	c0.2-0.3,0.4-0.7,0.7-1l0.1-0.1l0.1-0.1l0.1-0.1c0.2-0.2,0.4-0.4,0.6-0.5l0,0c0.3-0.2,0.6-0.4,1-0.5c0.4-0.2,0.8-0.3,1.2-0.3
	c0.1,0,0.3-0.1,0.4-0.1h0.5c0.4,0,0.7,0,1,0.1c0.1,0,0.2,0,0.3,0.1c0.3,0.1,0.5,0.2,0.8,0.3l0.1,0.1c0.1,0.1,0.3,0.2,0.4,0.3
	c0,0,0.1,0,0.1,0.1c0.1,0,0.1,0.1,0.2,0.1c0.1,0.1,0.2,0.2,0.4,0.4c0.1,0.1,0.1,0.2,0.2,0.2c0,0,0,0,0,0.1l0.1,0.1
	c0.3,0.4,0.5,0.8,0.7,1.3c0.1,0.3,0.2,0.6,0.3,0.9c0,0.1,0,0.1,0,0.2s0,0.1,0,0.2S111.8,92.9,111.8,93
	C111.9,92.9,111.9,92.9,111.8,93z"/>
<path class="st58" d="M111.9,92.9c0,0-1.1,2.4-5.9,2.4c-3.9,0-4.4-1.6-4.4-1.6c0-0.4,0.1-0.8,0.2-1.2c1-1.2,3.2-2,5.7-2
	c1.3,0,2.6,0.2,3.8,0.7C111.6,91.8,111.8,92.3,111.9,92.9z"/>
<path class="st59" d="M109.7,90.6c-0.1,0-0.3,0-0.4-0.1s-0.2-0.2-0.2-0.4c0-0.1,0-0.3,0.1-0.4L126.5,72c0.2-0.2,0.6-0.2,0.8,0
	c0.1,0.1,0.2,0.2,0.2,0.4c0,0.1,0,0.3-0.2,0.4L110,90.5C110,90.6,109.8,90.6,109.7,90.6z"/>
<path d="M127.3,72c-0.1-0.2-0.2-0.2-0.4-0.2c-0.2,0-0.4,0.1-0.5,0.2l-7.9,8.1l-3.8,3.9l-0.7,0.8l-0.5,0.5l-0.9,0.9l0,0l-0.3,0.3
	l-0.4,0.4l-1.9,2l-0.1,0.1l0,0l-0.1,0.1l0,0l-0.5,0.5l0,0c-0.1,0.1-0.1,0.2-0.1,0.3c0,0.1,0,0.1,0,0.2c0,0.2,0.1,0.3,0.2,0.4
	c0,0,0,0,0.1,0c0.2,0.1,0.3,0.1,0.5,0.1c0.1,0,0.2-0.1,0.3-0.1l0.6-0.6l0,0l0.1-0.1l0,0l0.9-0.9l0,0l1.6-1.6l0.5-0.5l0.1-0.1
	l0.7-0.7l0.8-0.8l0.2-0.2l0,0l2.7-2.7l9-9.2c0.1-0.1,0.1-0.1,0.2-0.2v-0.1v-0.1C127.5,72.2,127.4,72.1,127.3,72z M109.7,89.5
	l0.3-0.3l0,0l0.1-0.1l2.1-2.2l0.6-0.6l0.1-0.2L113,86l0.4-0.4l0.8-0.8l0.4-0.4l3.8-4l8-8.2c0.1-0.1,0.3-0.2,0.4-0.2s0.2,0,0.3,0.1
	c0.2,0.1,0.2,0.4,0.1,0.6l-8.9,9.1l-3,3l-0.2,0.2l-0.2,0.2l-0.6,0.6l-0.2,0.2l-0.6,0.7l-0.2,0.2l-2.2,2.2l-0.4,0.5l-0.1,0.1l0,0
	l-0.6,0.6c-0.1,0.1-0.2,0.1-0.3,0.1c-0.1,0-0.2,0-0.3-0.1c-0.1-0.1-0.2-0.2-0.2-0.4c0-0.1,0-0.1,0.1-0.1l0.2-0.2L109.7,89.5z
	 M111.1,89.2c0.1,0,0.1,0,0.2-0.1l2-2.1v-0.1L111.1,89.2z"/>
<path class="st59" d="M103.8,90.1c-0.2,0-0.3-0.1-0.4-0.2L87.3,71.3c-0.1-0.1-0.1-0.2-0.1-0.4c0-0.1,0.1-0.3,0.2-0.4
	s0.2-0.1,0.3-0.1c0.2,0,0.3,0.1,0.4,0.2l16.1,18.6c0.1,0.1,0.1,0.2,0.1,0.4c0,0.1-0.1,0.3-0.2,0.4C104.1,90.1,104,90.1,103.8,90.1
	L103.8,90.1z"/>
<path d="M104.2,89.2l-0.1-0.2H104l0,0l0,0l-0.4-0.5l0,0l-0.3-0.4l0,0l0,0l-2.6-3l0,0l-0.5-0.6l-0.5-0.6L88.3,70.6
	c-0.2-0.2-0.3-0.3-0.6-0.2c-0.1,0-0.1,0-0.2,0s-0.2,0-0.2,0.1c-0.3,0.2-0.3,0.6-0.1,0.9l11.1,12.9l0.5,0.6l0.5,0.5l0,0l2.5,2.9
	l0.3,0.4l0.9,1l0,0l0,0l0.1,0.1l0.1,0.2c0.1,0.1,0.3,0.2,0.5,0.2h0.1c0.1,0,0.2,0,0.3-0.1c0,0,0-0.1,0.1-0.1
	c0.1-0.1,0.1-0.2,0.1-0.3C104.4,89.5,104.4,89.4,104.2,89.2z M104.2,89.9L104.2,89.9c-0.1,0.1-0.2,0.1-0.3,0.1
	c-0.1,0-0.3-0.1-0.3-0.2l-0.2-0.2l-0.1-0.1l0,0l-0.2-0.2l-0.5-0.6l-0.3-0.4l-2.6-2.9l0,0l-0.5-0.6l-0.5-0.6l-11.3-13
	c-0.1-0.2-0.1-0.4,0-0.6c0.1,0,0.2,0,0.4-0.1c0.1,0,0.3,0.1,0.3,0.2l11.4,13.1l0.5,0.6l0.5,0.6l0,0l2.6,3l0.1,0.1l0.2,0.3l0.5,0.5
	l0,0L104,89l0.2,0.2l0.1,0.1C104.4,89.6,104.4,89.7,104.2,89.9z"/>
<path class="st60" d="M136.6,63.7l2.7-0.7h0.1l-2.7,0.7H136.6z"/>
<g>
	<g>
		<g>
			<defs>
				<polygon id="SVGID_5_" points="136.6,63.7 139.2,63 139.4,63 136.7,63.7 				"/>
			</defs>
			<clipPath id="SVGID_6_">
				<use xlink:href="#SVGID_5_"  style="overflow:visible;"/>
			</clipPath>
			<g class="st61">
				<path class="st60" d="M136.6,63.7l2.7-0.7l0,0L136.6,63.7L136.6,63.7"/>
				<path class="st60" d="M136.6,63.7l2.7-0.7l0,0L136.6,63.7L136.6,63.7"/>
				<path class="st60" d="M136.6,63.7l2.7-0.7l0,0L136.6,63.7L136.6,63.7"/>
				<path class="st60" d="M136.7,63.7l2.7-0.7l0,0L136.7,63.7L136.7,63.7"/>
				<polyline class="st60" points="136.7,63.7 139.4,63 139.4,63 136.7,63.7 136.7,63.7 				"/>
			</g>
		</g>
	</g>
</g>
<path class="st60" d="M140.8,76l-2.7,0.7c0.2-0.1,0.4-0.4,0.5-0.8c0.5-3.7,0.1-7.4-1-11c-0.2-0.6-0.6-1.1-0.9-1.1l2.7-0.7
	c0.3,0,0.7,0.5,0.9,1.1c1.1,3.6,1.5,7.3,1,11C141.2,75.6,141,75.9,140.8,76z"/>
<path class="st60" d="M141.1,60.8l2.7-0.7h0.2l-2.7,0.7H141.1z"/>
<g>
	<g>
		<g>
			<defs>
				<polygon id="SVGID_7_" points="141.1,60.8 143.8,60.1 144,60.1 141.3,60.8 				"/>
			</defs>
			<clipPath id="SVGID_8_">
				<use xlink:href="#SVGID_7_"  style="overflow:visible;"/>
			</clipPath>
			<g class="st62">
				<path class="st60" d="M141.1,60.8l2.7-0.7l0,0L141.1,60.8L141.1,60.8"/>
				<path class="st60" d="M141.1,60.8l2.7-0.7l0,0L141.1,60.8L141.1,60.8"/>
				<path class="st60" d="M141.2,60.8l2.7-0.7l0,0L141.2,60.8L141.2,60.8"/>
				<path class="st60" d="M141.2,60.8l2.7-0.7l0,0L141.2,60.8L141.2,60.8"/>
				<polyline class="st60" points="141.3,60.8 144,60.1 144,60.1 141.3,60.8 141.3,60.8 				"/>
			</g>
		</g>
	</g>
</g>
<path class="st60" d="M145.9,78.8l-2.7,0.7c0.2-0.1,0.4-0.3,0.5-0.8c0.8-5.7,0.3-11.4-1.6-16.8c-0.2-0.6-0.5-1-0.8-1l2.7-0.7
	c0.3,0,0.6,0.4,0.8,1c1.9,5.4,2.4,11.2,1.6,16.9C146.3,78.4,146.1,78.7,145.9,78.8z"/>
<path class="st60" d="M148.5,56.3l-2.6,0.7h-0.2l2.7-0.7C148.4,56.3,148.4,56.3,148.5,56.3L148.5,56.3z"/>
<g>
	<g>
		<g>
			<defs>
				<polygon id="SVGID_9_" points="145.7,57 148.4,56.3 148.5,56.3 145.8,57 				"/>
			</defs>
			<clipPath id="SVGID_10_">
				<use xlink:href="#SVGID_9_"  style="overflow:visible;"/>
			</clipPath>
			<g class="st63">
				<path class="st60" d="M145.7,57l2.7-0.7l0,0L145.7,57L145.7,57"/>
				<path class="st60" d="M145.7,57l2.7-0.7l0,0L145.7,57L145.7,57"/>
				<path class="st60" d="M145.8,57l2.7-0.7l0,0L145.8,57L145.8,57"/>
				<path class="st60" d="M145.8,57l2.7-0.7l0,0L145.8,57L145.8,57"/>
				<polyline class="st60" points="145.8,57 148.5,56.3 148.5,56.3 145.8,57 145.8,57 				"/>
			</g>
		</g>
	</g>
</g>
<path class="st60" d="M151.6,81.2c-0.1,0.4-0.3,0.7-0.5,0.7l-2.7,0.7c0.2,0,0.4-0.3,0.5-0.7c1.3-8,0.5-16.2-2.2-23.9
	c-0.1-0.4-0.4-0.8-0.8-1l2.6-0.7l0,0l0,0c0.3,0,0.6,0.4,0.8,1C152.1,65,152.8,73.2,151.6,81.2z"/>
<path class="st60" d="M148.5,56.3l-2.6,0.7l0,0L148.5,56.3L148.5,56.3z"/>
<path class="st60" d="M68.6,74.1l2.7,0.7c-1.3-0.3-0.7-5.6-0.6-6.5c0.1-1.1,0.5-6.2,2-6.5c-0.7-0.2-1.5-0.4-2.2-0.5
	c-1.3-0.2-1.5,1.4-1.8,2.5c-0.5,1.8-0.7,3.7-0.8,5.6C67.8,70.2,67.5,73.8,68.6,74.1z"/>
<path class="st60" d="M68.2,58.9c-0.8-0.2-2-0.8-2.8-0.7L68.2,58.9z"/>
<g>
	<g>
		<g>
			<defs>
				<path id="SVGID_11_" d="M68.2,58.9c-0.8-0.2-2-0.8-2.8-0.7L68.2,58.9z"/>
			</defs>
			<clipPath id="SVGID_12_">
				<use xlink:href="#SVGID_11_"  style="overflow:visible;"/>
			</clipPath>
			<g class="st64">
				<path class="st60" d="M68.2,58.9c-0.9-0.3-1.8-0.5-2.7-0.7L68.2,58.9"/>
				<path class="st60" d="M68.2,58.9c-0.9-0.3-1.8-0.5-2.7-0.7C66.4,58.5,67.3,58.7,68.2,58.9"/>
				<path class="st60" d="M68.2,58.9c-0.9-0.3-1.8-0.6-2.7-0.7C66.3,58.6,67.2,58.8,68.2,58.9"/>
				<path class="st60" d="M68.1,58.9c-0.9-0.4-1.8-0.6-2.7-0.7C66.3,58.6,67.2,58.8,68.1,58.9"/>
				<path class="st60" d="M68.1,58.9c-0.7-0.2-2-0.8-2.7-0.7C66.1,58.4,67.4,59,68.1,58.9"/>
			</g>
		</g>
	</g>
</g>
<path class="st60" d="M63.5,76.9l2.7,0.7c-1-0.2-0.8-3.3-0.9-4.1c-0.1-1.7,0-3.5,0.1-5.2c0.2-1.7,0.5-3.4,0.9-5.1
	c0.2-0.9,0.6-4.1,1.8-4.3c-0.7-0.2-2-0.8-2.7-0.7s-1,1.4-1.2,2c-0.4,1.2-0.7,2.3-0.9,3.5c-0.5,2.3-0.7,4.7-0.8,7.1
	C62.6,71.8,62.3,76.6,63.5,76.9z"/>
<path class="st60" d="M63.7,55.1c-0.8-0.2-2-0.8-2.8-0.7C61.8,54.7,62.8,54.9,63.7,55.1z"/>
<g>
	<g>
		<g>
			<defs>
				<path id="SVGID_13_" d="M63.7,55.1c-0.8-0.2-2-0.8-2.8-0.7C61.8,54.7,62.8,54.9,63.7,55.1z"/>
			</defs>
			<clipPath id="SVGID_14_">
				<use xlink:href="#SVGID_13_"  style="overflow:visible;"/>
			</clipPath>
			<g class="st65">
				<path class="st60" d="M63.7,55.1c-0.9-0.2-1.8-0.5-2.7-0.7L63.7,55.1"/>
				<path class="st60" d="M63.7,55.1c-0.9-0.3-1.8-0.6-2.7-0.7C61.8,54.7,62.7,54.9,63.7,55.1"/>
				<path class="st60" d="M63.6,55.1c-0.9-0.3-1.8-0.6-2.7-0.7C61.8,54.8,62.7,55,63.6,55.1"/>
				<path class="st60" d="M63.6,55.1c-0.9-0.4-1.8-0.6-2.7-0.7C61.7,54.8,62.6,55,63.6,55.1"/>
				<path class="st60" d="M63.5,55.1c-0.9-0.4-1.8-0.6-2.7-0.7C61.7,54.8,62.6,55,63.5,55.1"/>
			</g>
		</g>
	</g>
</g>
<path class="st60" d="M58.3,80l2.7,0.7c-1.1-0.3-1-5-1.1-5.9c-0.1-2.2,0-4.5,0.2-6.7c0.2-2.3,0.6-4.6,1.2-6.9c0.3-1.2,0.6-2.4,1-3.5
	c0.2-0.7,0.5-2.3,1.3-2.5c-0.9-0.2-2.5-1.1-3.2-0.2s-1,2.8-1.3,4c-0.4,1.5-0.8,3-1,4.6c-0.5,2.8-0.8,5.7-0.8,8.6
	c0,1.5,0.1,2.9,0.2,4.4C57.5,77.2,57.4,79.8,58.3,80z"/>
<ellipse class="st18" cx="185.5" cy="42.1" rx="3" ry="6.1"/>
<line class="st66" x1="133.6" y1="23.4" x2="140.4" y2="22.7"/>
<path class="st67" d="M299.9,13.5v168c0,0.5,0,1.1-0.1,1.6v3.5c0,7.3-5.9,13.2-13.2,13.2H13.2c-7.3,0-13.2-5.9-13.2-13.2v-3.4
	c-0.1-0.5-0.1-1.1-0.1-1.6v-168C-0.2,6.7,5.1,1,11.8,0.4c0.2,0,0.5,0,0.8,0c0.1,0,0.2,0,0.4,0h273.7c0.1,0,0.3,0,0.4,0
	c0.2,0,0.4,0,0.7,0c0.2,0,0.4,0.1,0.7,0.1C294.8,1.4,299.9,6.9,299.9,13.5z"/>
<g>
	<g>
		<g>
			<path class="st68" d="M187.9,146.2L187.9,146.2c-0.2,0-0.2,0-0.3-0.1l-7-2.4l7.3,0.9c0.2,0,0.5,0,0.7,0.1l-0.1,1.5H187.9z"/>
			<path class="st3" d="M187.8,145.5c0.2,0,0.5,0,0.7,0.1h-0.6C187.9,145.5,187.9,145.5,187.8,145.5 M188,143.9l-0.7,3
				c0.1,0,0.2,0.1,0.3,0.1h0.1h0.1h0.6l0.2-3C188.4,144,188.2,144,188,143.9L188,143.9z"/>
		</g>
		<g>
			<path class="st69" d="M189.9,146.4c-0.5,0-0.9,0-1.4-0.1l0.1-1.5l1.1,0.1c0,0,0.3,0,0.4,0L189.9,146.4z"/>
			<path class="st3" d="M188.6,145.5l1,0.1c0.1,0,0.2,0,0.3,0C189.4,145.6,189,145.6,188.6,145.5 M188.6,144l-0.2,3
				c0.5,0,1,0.1,1.5,0.1l0.3-3c-0.1,0-0.2,0-0.3,0h-0.1h-0.1L188.6,144L188.6,144z"/>
		</g>
		<g>
			<path class="st3" d="M151.8,171.2l-6.1-0.4l-10.6-0.7c-0.1,0-0.4,0-0.4,0h-0.2c-0.1,0-0.2,0-0.2,0l-1-0.1c-0.3,0-0.6,0-0.8-0.1
				c-11-1-21.1-6.1-28.4-14.4c-8.2-9.3-12.2-21.6-11.1-34.6l1.3-24.5c1-9.7,1.9-12.2,8.4-12.6l1.6-17.8c1.7-19.8,18-35,37.9-35.4
				c0.2,0,0.5,0,0.8,0h2h6.7h3.2h0.1c0.5,0,1,0.1,1.5,0.1c10.3,0.9,19.6,5.8,26.3,13.8s9.8,18,8.9,28.3l-1.2,14
				c0.4,0,0.8,0.1,1.2,0.2c6.1,1.2,10.3,6.9,9.7,13.4l-1.2,23.4c-0.7,8.4-3.5,16.5-8,23.7C183,162,167.6,171,151.8,171.2
				L151.8,171.2L151.8,171.2z M140.8,84.9l23.6,0.8l1-11.6c0.5-6-1.3-11.9-5.2-16.6c-3.2-3.8-7.6-6.5-12.4-7.6
				c-1.3,0.3-2.6,0.7-3.9,1.3c-7.8,3.3-13,10.5-13.8,18.9l-1.3,14.5L140.8,84.9z"/>
			<path class="st3" d="M143.1,31.5h1.8h6.7h3.2c0.5,0,1,0.1,1.5,0.1c10.4,0.9,19.5,6,25.8,13.5s9.7,17.3,8.8,27.8l-1.3,14.9
				c0.6,0,1.2,0.1,1.8,0.2c5.7,1.1,9.7,6.4,9.1,12.6l-1.2,23.4c-0.7,8.5-3.5,16.5-7.9,23.3c-8.7,13.7-23.4,23-39.5,23.1h-0.1l-6-0.4
				l-10.6-0.7l0,0c-0.2,0-0.3,0-0.5,0c-0.1,0-0.2,0-0.3,0l-1-0.1c-0.2,0-0.5,0-0.7-0.1c-10.9-1-20.7-5.9-27.9-14.1
				c-8.1-9.2-12-21.3-10.9-34l1.3-24.5c1-10,1.9-11.7,8.3-12l1.6-18.4c1.7-19.5,18-34.3,37.1-34.7c0.2,0,0.5,0,0.8,0h0.1
				 M165.1,86.5l1.1-12.3c0.6-6.4-1.6-12.5-5.4-17.2c-3.3-3.9-7.8-6.8-13-7.9l0,0c-1.4,0.3-2.8,0.8-4.2,1.4
				c-7.7,3.3-13.4,10.6-14.2,19.5L128,85.3l12.7,0.4h0.3L165.1,86.5 M143.1,30L143.1,30h-0.2c-0.3,0-0.6,0-0.8,0
				c-9.6,0.2-18.9,4-26.1,10.6c-7.2,6.7-11.7,15.7-12.5,25.5l-1.4,17.1c-6.8,0.7-7.5,4.2-8.4,13.2l0,0l0,0l-1.3,24.5
				c-1.1,13.1,2.9,25.6,11.3,35.1c7.4,8.4,17.7,13.6,28.9,14.7c0.2,0,0.5,0,0.7,0.1l1,0.1c0.1,0,0.1,0,0.2,0h0.1h0.1h0.1
				c0.1,0,0.1,0,0.2,0c0.1,0,0.2,0,0.3,0l10.5,0.7l6,0.4l0,0l0,0h0.1c16-0.2,31.6-9.3,40.8-23.8c4.6-7.2,7.4-15.5,8.1-24l1.2-23.5
				c0.6-6.8-3.9-12.9-10.4-14.1c-0.2,0-0.3-0.1-0.5-0.1l1.2-13.3c0.9-10.5-2.3-20.8-9.1-28.9s-16.3-13.1-26.8-14.1
				c-0.5,0-1-0.1-1.5-0.1h-0.1l0,0l0,0h-3.2h-6.7L143.1,30L143.1,30L143.1,30z M129.7,83.8l1.2-13.7c0.7-8.1,5.8-15.1,13.3-18.3
				c1.2-0.5,2.4-0.9,3.6-1.2c4.6,1.1,8.8,3.7,11.8,7.3c3.8,4.5,5.6,10.2,5.1,16l-1,10.9l-22.5-0.7h-0.3L129.7,83.8L129.7,83.8z"/>
		</g>
	</g>
	<path class="st68" d="M151.8,170.4h-0.6c-0.4,0-0.8,0-1.2,0c-1.4,0-2.8-0.2-4.2-0.3L151.8,170.4z"/>
	<path class="st70" d="M154.8,31.5h-3.2C152.7,31.5,153.8,31.5,154.8,31.5z"/>
	<path class="st70" d="M190.9,72.9l-1.3,14.8l-0.9,10.4l-2.7-0.2l-7.2-0.6l-4.6-0.4l0.9-9.6v-0.5l1.1-12.7
		c0.6-6.4-1.6-12.5-5.4-17.2c-3.9-4.6-9.5-7.8-15.9-8.3c-2.4-0.2-4.8,0-7.1,0.5l0,0c-1.4,0.3-2.8,0.8-4.2,1.4
		c-7.7,3.3-13.4,10.6-14.2,19.5L128,85.3v0.5l-0.6,7l-9.9-0.9l-4.5-0.4l0.1-1.3l0.5-5.4l1.6-18.5c1.4-16.2,13-29.2,27.9-33.3
		l-0.8-1.4l0,0h0.9h1.8h6.7h3.2c0.5,0,1,0.1,1.5,0.1c10.4,0.9,19.5,6,25.8,13.5C188.4,52.6,191.8,62.5,190.9,72.9z"/>
	<path class="st68" d="M200.6,100.5l-1.2,23.4c-2.1,25.5-23.3,46.2-47.4,46.4h-0.1l-6-0.4l-10.6-0.7l0,0c-0.3,0-0.5,0-0.8,0
		l-1.6-0.1c-0.1,0-0.1,0-0.2,0l1.6-2.3c-5.6-2.4-10.6-6.1-14.8-10.8c-8.1-9.2-12-21.3-10.9-34l1.3-24.5c0.2-1.9,0.7-3.8,1.6-5.4
		c0.4-0.7,0.9-1.4,1.4-2c1.3-1.6,3-2.9,4.9-3.7c1.6-0.7,3.3-1,5.1-0.9l5,0.2l13.1,0.4l24,0.8l10,0.3l4.6,0.1l1.5,0.1l0,0l8.5,0.3
		C196.2,87.9,201.1,93.7,200.6,100.5z"/>
	<path class="st71" d="M180.9,72.9l-1.3,14.3v0.2l-0.9,9.9l-0.1,0.9l-14.4-1.4l0.9-9.9v-0.5l1.1-12.3c0.6-6.4-1.6-12.5-5.4-17.2
		c-3.3-3.9-7.8-6.8-13-7.9l0,0c-0.9-0.2-1.9-0.4-2.9-0.5c-0.4,0-0.8-0.1-1.1-0.1c-12.4-0.5-23.3,8.9-24.4,21.4l-1.3,14.9l-0.1,1.6
		l-0.5,5.3l-0.1,0.9l-5.8-0.5l-8.7-0.8l0.6-6.8l1.6-18.4c1.7-19.5,18-34.3,37.1-34.7c0.2,0,0.5,0,0.8,0h0.2c0.6,0,1.2,0,1.8,0
		c0.5,0,1,0.1,1.4,0.1c10.4,0.9,19.5,6,25.8,13.5C178.4,52.6,181.8,62.5,180.9,72.9z"/>
	<path class="st69" d="M186,97.9c0,0.5-0.1,1.1-0.2,1.7l-1.2,23.4c-2.2,25.7-23.7,46.6-48.1,46.4c-0.3,0-0.7,0-1,0h-0.2l0,0
		c-0.9,0-1.7-0.1-2.6-0.2c-10.9-1-20.7-5.9-27.9-14.1c-8.1-9.2-12-21.3-10.9-34l1.3-24.5c1-10,1.9-11.7,8.3-12
		c1.3-0.1,2.9-0.1,4.7-0.1l5.3,0.2l4.6,0.2l10,0.3l12.7,0.4h0.3l24,0.8l9.7,0.3c0.1,0,0.2,0,0.2,0c1.8,0.2,3.3,0.3,4.6,0.5
		c0.5,0.1,1,0.2,1.5,0.2l0,0C185.5,88.4,186.7,90.5,186,97.9z"/>
	<path class="st72" d="M186,97.9c0,0.5-0.1,1.1-0.2,1.7l-1.2,23.4c-2.2,25.7-23.7,46.6-48.1,46.4c-0.3,0-0.7,0-1,0l5.3-83.8h0.3
		l24,0.8l9.7,0.3c0.1,0,0.2,0,0.2,0c1.8,0.2,3.3,0.3,4.6,0.5c0.5,0.1,1,0.2,1.5,0.2l0,0C185.5,88.4,186.7,90.5,186,97.9z"/>
	<path class="st73" d="M150.1,116c-0.3,4-2.7,7.4-6,9.1l-0.7,10.2c-0.2,3.2-3,5.6-6.2,5.4c-3.2-0.2-5.6-3-5.4-6.2l0.7-10.3
		c-3-2.2-4.8-5.8-4.6-9.8c0.4-6.1,5.7-10.7,11.8-10.3C145.9,104.5,150.5,109.8,150.1,116z"/>
	<path class="st73" d="M150.1,116c-0.3,4-2.7,7.4-6,9.1l-0.7,10.2c-0.2,2.2-1.6,4.1-3.5,4.9c-2.2-0.9-3.6-3.2-3.5-5.7l0.7-10.3
		c-3-2.2-4.8-5.8-4.6-9.7c0.3-5,4-9.1,8.7-10.1C146.6,105.4,150.5,110.4,150.1,116z"/>
	<path class="st74" d="M150.1,116c-0.3,4-2.7,7.4-6,9.1l-0.7,10.2c-0.2,2.2-1.6,4.1-3.5,4.9c-2.2-0.9-3.6-3.2-3.5-5.7l0.7-10.3
		c-3-2.2-4.8-5.8-4.6-9.7c0.3-5,4-9.1,8.7-10.1C146.6,105.4,150.5,110.4,150.1,116z"/>
	<circle class="st75" cx="107.6" cy="148.9" r="2.2"/>
	<path class="st75" d="M113.3,152.3c2.6,3.5,6.5,6,10.8,7c1.2,0.3,2.2,1.4,2.1,2.6l0,0c-0.1,1.2-1.5,2.1-3.1,1.8
		c-5.4-1.2-10.1-4.2-13.4-8.7c-1-1.3-0.7-3,0.4-3.6l0,0C111.2,150.8,112.6,151.3,113.3,152.3z"/>
</g>
</svg>
