<svg id="Layer_1" data-name="Layer 1" xmlns="http://www.w3.org/2000/svg" xmlns:xlink="http://www.w3.org/1999/xlink" viewBox="0 0 300 200"><defs><style>.cls-1{fill:#757575;}.cls-2{fill:#00b1ff;}.cls-3{fill:#15bdf9;}.cls-4{fill:#fff;}.cls-5{fill:#626c72;}.cls-6{fill:#96a5b3;}.cls-7{fill:#2f3e4a;}.cls-8{fill:#222d35;}.cls-9{fill:#353535;stroke-width:0.25px;}.cls-23,.cls-25,.cls-33,.cls-54,.cls-9{stroke:#000;}.cls-23,.cls-25,.cls-9{stroke-linejoin:round;}.cls-10,.cls-18,.cls-19{fill:#4d4d4d;}.cls-11{fill:#b3b3b3;}.cls-12{fill:#d3161d;}.cls-13{fill:#adadad;stroke:#080000;}.cls-13,.cls-14,.cls-15,.cls-16,.cls-17,.cls-18,.cls-19,.cls-24,.cls-26,.cls-28,.cls-29,.cls-33,.cls-37,.cls-48,.cls-49,.cls-50,.cls-51,.cls-52,.cls-53,.cls-54,.cls-55{stroke-miterlimit:10;}.cls-13,.cls-15,.cls-16,.cls-23,.cls-37{stroke-width:0.34px;}.cls-14,.cls-29,.cls-33,.cls-37,.cls-49,.cls-53,.cls-55{fill:none;}.cls-14,.cls-15,.cls-26,.cls-28,.cls-37,.cls-53{stroke:#070707;}.cls-14{stroke-width:0.52px;}.cls-15{fill:#77401b;}.cls-16,.cls-20,.cls-54{fill:#f8c946;}.cls-16{stroke:#020202;}.cls-17,.cls-34{fill:#282828;}.cls-17,.cls-18,.cls-19{stroke:#151616;}.cls-17,.cls-18{stroke-width:0.28px;}.cls-19{stroke-width:1.03px;}.cls-21{fill:#683919;}.cls-22,.cls-28{fill:#945320;}.cls-23{fill:#515051;}.cls-24,.cls-27{fill:#161616;}.cls-24,.cls-29,.cls-48,.cls-49,.cls-50,.cls-51,.cls-52,.cls-55{stroke:#0a0a0a;}.cls-24,.cls-25,.cls-26,.cls-28,.cls-29,.cls-33{stroke-width:0.3px;}.cls-25{fill:#8e8a8b;}.cls-26{fill:#e2b647;}.cls-30{fill:#dddbd7;}.cls-31{fill:#232323;}.cls-32{fill:#3a3a3a;}.cls-35{fill:#7c7c7c;}.cls-36{fill:#666;}.cls-38{fill:#389cce;}.cls-39{fill:#7f1119;}.cls-40{fill:#5e0e18;}.cls-41{fill:#352f49;}.cls-42{fill:#e41e00;}.cls-43{fill:#fffe28;}.cls-44{fill:#18ff08;}.cls-45{fill:#dbdddd;}.cls-46{fill:#0fb0db;}.cls-47{fill:#303435;}.cls-48,.cls-49,.cls-50,.cls-51,.cls-52{stroke-width:0.13px;}.cls-48{fill:url(#radial-gradient);}.cls-50{fill:url(#radial-gradient-2);}.cls-51{fill:url(#radial-gradient-3);}.cls-52{fill:url(#radial-gradient-4);}.cls-53{stroke-width:0.17px;}.cls-54,.cls-55{stroke-width:0.14px;}.cls-56{opacity:0.75;}.cls-57{opacity:0.7;}.cls-58{fill:#e8e8e8;}.cls-59{fill:#545454;}</style><radialGradient id="radial-gradient" cx="1086.17" cy="177.29" r="2.09" gradientTransform="matrix(-1, 0, 0, -1, 1199.1, 293.43)" gradientUnits="userSpaceOnUse"><stop offset="0.2" stop-color="#666"/><stop offset="0.57" stop-color="#585858"/><stop offset="1" stop-color="#4d4d4d"/></radialGradient><radialGradient id="radial-gradient-2" cx="1081.28" cy="155.1" r="2.09" gradientTransform="matrix(-1, 0, 0, -1.01, 1207.41, 291.46)" xlink:href="#radial-gradient"/><radialGradient id="radial-gradient-3" cx="1086.41" cy="157.16" r="2.09" gradientTransform="matrix(-1, 0, 0, -1, 1200.42, 293.41)" xlink:href="#radial-gradient"/><radialGradient id="radial-gradient-4" cx="1078.6" cy="176.94" r="2.09" gradientTransform="matrix(-1, 0, 0, -1, 1199.1, 292.94)" xlink:href="#radial-gradient"/></defs><title>guide_sequence_lock</title><path class="cls-1" d="M13.4,4.73H286.83A13.23,13.23,0,0,1,300,18V186.45a13.23,13.23,0,0,1-13.21,13.25H13.4A13.23,13.23,0,0,1,.19,186.45V18A13.23,13.23,0,0,1,13.4,4.73Z"/><path class="cls-2" d="M299.89,12.94V181.43a13.24,13.24,0,0,1-13.21,13.24H13.25A13.22,13.22,0,0,1,0,181.43H0V12.94A13.22,13.22,0,0,1,13.25-.3H286.68A13.24,13.24,0,0,1,299.89,12.94Z"/><path class="cls-3" d="M299.88,11H.35A13.21,13.21,0,0,1,13.4-.16H286.83A13.25,13.25,0,0,1,299.88,11Z"/><path class="cls-4" d="M286.83,4.21a8.72,8.72,0,0,1,8.71,8.73V181.43a8.72,8.72,0,0,1-8.71,8.73H13.4a8.72,8.72,0,0,1-8.71-8.73V12.94A8.72,8.72,0,0,1,13.4,4.21H286.83m0-4.51H13.4A13.23,13.23,0,0,0,.19,12.94V181.43A13.23,13.23,0,0,0,13.4,194.67H286.83A13.23,13.23,0,0,0,300,181.43V12.94A13.23,13.23,0,0,0,286.83-.3Z"/><ellipse class="cls-5" cx="284.96" cy="14.72" rx="6.21" ry="6.22"/><ellipse class="cls-6" cx="284.96" cy="14.72" rx="5.55" ry="5.56"/><polygon class="cls-7" points="288.5 13.13 288.1 17 284.56 18.59 281.42 16.31 281.78 12.44 285.35 10.85 288.5 13.13"/><path class="cls-8" d="M288.5,13.14l-.19,1.75a4.82,4.82,0,0,0-3.2-1.88,4.55,4.55,0,0,0-3.51,1.19l.18-1.75,3.54-1.59Z"/><ellipse class="cls-5" cx="15.28" cy="14.72" rx="6.21" ry="6.22"/><ellipse class="cls-6" cx="15.28" cy="14.72" rx="5.55" ry="5.56"/><polygon class="cls-7" points="18.66 12.76 18.66 16.68 15.28 18.61 11.92 16.68 11.92 12.76 15.28 10.82 18.66 12.76"/><path class="cls-8" d="M18.66,12.76v1.77A4.88,4.88,0,0,0,15.3,13a4.46,4.46,0,0,0-3.38,1.53V12.76l3.36-1.95Z"/><ellipse class="cls-5" cx="15.28" cy="178.72" rx="6.21" ry="6.22"/><ellipse class="cls-6" cx="15.28" cy="178.72" rx="5.55" ry="5.56"/><polygon class="cls-7" points="19.16 178.43 17.47 181.96 13.59 182.22 11.39 178.99 13.08 175.49 16.96 175.2 19.16 178.43"/><path class="cls-8" d="M19.16,178.43,18.39,180A4.87,4.87,0,0,0,16,177.16a4.41,4.41,0,0,0-3.69-.08l.77-1.59L17,175.2Z"/><ellipse class="cls-5" cx="284.11" cy="178.7" rx="6.21" ry="6.22"/><ellipse class="cls-6" cx="284.11" cy="178.7" rx="5.55" ry="5.56"/><polygon class="cls-7" points="286.99 176.07 287.81 179.89 284.9 182.51 281.2 181.29 280.41 177.48 283.32 174.88 286.99 176.07"/><path class="cls-8" d="M287,176.08l.38,1.72a4.75,4.75,0,0,0-3.62-.79,4.55,4.55,0,0,0-3,2.2l-.36-1.74,2.91-2.59Z"/><path class="cls-9" d="M74.77,162.86a22.78,22.78,0,0,1,.71-3.57c1.4-4.87,5.75-19.62,9.72-28.51,2.34-5.23,3.75-8.81,5-11.49a22.53,22.53,0,0,1,6.13-8,24.68,24.68,0,0,1,6.82-4.3c4-1.62,8.33-1.65,12.6-1.11,10.65,1.33,16.35,1.5,18.44,2.13,2.07,1.38,11,10.56,11.64,18.39.49,5.66.13,13.36-3.76,19.48S122.49,181.28,115.53,182c-8.15.79-29.1-.11-35.26-4.48C74.72,173.55,74.14,168.49,74.77,162.86Z"/><path class="cls-10" d="M111.73,181.11a11.42,11.42,0,0,1-6.84-2c-5-3.56-5.62-8-5-13.52a20.31,20.31,0,0,1,.67-3.37c1.27-4.41,5.69-19.46,9.66-28.37,1.29-2.89,2.32-5.32,3.15-7.28.68-1.61,1.27-3,1.81-4.2a21.32,21.32,0,0,1,5.8-7.57,23.85,23.85,0,0,1,6.51-4.13,20.19,20.19,0,0,1,7.63-1.47,22,22,0,0,1,4.28.43,38.6,38.6,0,0,1,14.49,6.41l.52.36.26.17c6.57,4.36,10.11,8.91,10.51,13.53.46,5.27.2,12.79-3.59,18.74-1.72,2.71-8.62,9.16-17.14,16.06-8.73,7.08-16.23,12.22-19.09,13.11l-1.43.45C120.1,179.73,115.73,181.11,111.73,181.11Z"/><path d="M135.15,108.06v2.37h0a20.28,20.28,0,0,1,4,.41,37.57,37.57,0,0,1,14.06,6.23l.53.36.27.18a33.62,33.62,0,0,1,5.78,4.66c2.55,2.64,4,5.32,4.19,8,.8,9.21-1.4,14.87-3.4,18C159,150.81,152,157.3,143.74,164c-8.51,6.89-16,12.07-18.71,12.91l-1.43.45c-3.78,1.19-8,2.54-11.88,2.54a10.49,10.49,0,0,1-10.31-7.18,17,17,0,0,1-.33-7,19.06,19.06,0,0,1,.64-3.18c1.25-4.38,5.65-19.37,9.6-28.2,1.3-2.9,2.32-5.34,3.16-7.31.68-1.61,1.26-3,1.8-4.18a20,20,0,0,1,5.48-7.14,22.66,22.66,0,0,1,6.2-4,19.09,19.09,0,0,1,7.2-1.38v-2.37m0,0a21.38,21.38,0,0,0-8.1,1.56,24.46,24.46,0,0,0-6.82,4.33,22.38,22.38,0,0,0-6.12,8c-1.22,2.68-2.63,6.26-5,11.49-4,8.89-8.32,23.64-9.72,28.52a21.47,21.47,0,0,0-.7,3.57c-.63,5.63,0,10.69,5.49,14.63a12.61,12.61,0,0,0,7.52,2.18c4.69,0,9.75-1.78,14-3.1,6.69-2.1,33-23.57,36.9-29.68s4.26-13.83,3.77-19.48c-.68-7.83-9.22-13.21-11.28-14.59a40.7,40.7,0,0,0-15.43-6.94,23.66,23.66,0,0,0-4.52-.46Z"/><ellipse class="cls-11" cx="147.1" cy="135.05" rx="12.57" ry="15.77" transform="translate(-2.47 2.74) rotate(-1.06)"/><ellipse class="cls-11" cx="131.5" cy="157.78" rx="9" ry="11.3" transform="translate(-2.89 2.45) rotate(-1.06)"/><ellipse class="cls-11" cx="113.73" cy="167.01" rx="7.09" ry="8.89" transform="translate(-3.06 2.13) rotate(-1.06)"/><ellipse class="cls-12" cx="147.9" cy="135.03" rx="4.27" ry="5.89" transform="translate(-2.47 2.76) rotate(-1.06)"/><ellipse class="cls-12" cx="131.91" cy="158.22" rx="3.69" ry="5.09" transform="translate(-36.26 39.25) rotate(-14.9)"/><ellipse class="cls-12" cx="113.74" cy="167.61" rx="2.73" ry="3.77" transform="matrix(0.97, -0.26, 0.26, 0.97, -39.28, 34.89)"/><path class="cls-13" d="M108.56,155.16s1.86-4.1,8.06-2.29c1-2.67,3.11-9.8,14-9.36-.61-2.4-5.25-12.75,2.52-23.33-3.24-1.33-5.25-2.2-9.13,2.93S108.07,154,108.56,155.16Z"/><line class="cls-14" x1="90.22" y1="119.16" x2="114.71" y2="120.72"/><line class="cls-14" x1="103.86" y1="106.7" x2="131.11" y2="108.43"/><polyline class="cls-14" points="135 108.68 142.23 109.14 142.24 109.14"/><line class="cls-14" x1="83.68" y1="134.42" x2="108.06" y2="135.97"/><line class="cls-14" x1="78.42" y1="149.52" x2="102.72" y2="151.07"/><line class="cls-14" x1="74.59" y1="165.12" x2="98.61" y2="166.65"/><path class="cls-15" d="M74.11,106.58l34.21-13.09c5.76-2.4,10.21-3.09,12.89,2.31h0c2,5.53-.57,7.31-5.53,10.36l-33,21.14A10.94,10.94,0,0,1,68,122.38h0C65.31,117,68.73,109.28,74.11,106.58Z"/><path class="cls-16" d="M76.71,105.54l35.43-14.19c5.75-2.41,12.32,9.62,7.36,12.67l-33,21.13a10.92,10.92,0,0,1-14.64-4.92h0A11,11,0,0,1,76.71,105.54Z"/><path class="cls-17" d="M69.31,116.26s-.63-1.75,1-4.78c-4.53-1.33-15.86-2.94-17.1-1.62-.83.91-1.39,3-1.84,5.09a2.74,2.74,0,0,0,2.76,3.46c5.58-.39,14.18-1.23,14.18-1.23Z"/><path class="cls-18" d="M70.36,111.42c-4.53-1.33-15.3-4.18-16.53-2.86-.84.9-1.6,3-2.15,4.93a2.69,2.69,0,0,0,1.83,3.34,2.64,2.64,0,0,0,.93.1c5.58-.39,14.64-.28,15-.6A5.67,5.67,0,0,1,70.36,111.42Z"/><path class="cls-17" d="M71.71,123.25s-1.55-1-2.08-4.42c-4.41,1.68-14.41,7.27-14.6,9.08-.12,1.23.73,3.27,1.6,5.17a2.72,2.72,0,0,0,4.28,1.08c4.22-3.7,10.56-9.58,10.56-9.58Z"/><path class="cls-18" d="M69.62,118.74c-4.42,1.68-14.71,5.94-14.89,7.75-.13,1.23.54,3.37,1.25,5.22a2.7,2.7,0,0,0,3.48,1.56,2.51,2.51,0,0,0,.8-.48c4.22-3.7,11.5-9.11,11.59-9.57A5.64,5.64,0,0,1,69.62,118.74Z"/><path class="cls-17" d="M79,126.78s-1.83.27-4.48-1.93c-2.19,4.19-6.08,11.12-5,12.59.71,1,.78,1.16,2.69,2a2.8,2.8,0,0,0,3.91-2,47,47,0,0,1,3.6-9.45Z"/><path class="cls-18" d="M74.45,124.79c-2.19,4.2-7.18,10.32-6.12,11.8a5,5,0,0,0,2.47,2.26c1.66.87,3.41-.23,3.91-2,1.5-5.39,4.62-9.73,4.38-10.14A5.64,5.64,0,0,1,74.45,124.79Z"/><path class="cls-17" d="M72.93,107.16l-1.72,3.09s-1.11.39-1.36.45c-1.4.36-10.88-6.1-9.56-8s3.67-4,4.47-3.83c.1,0,1.18,0,1.18,0S73.56,107,72.93,107.16Z"/><path class="cls-18" d="M74.29,106.7a7.48,7.48,0,0,0-1.87,1.58,12.85,12.85,0,0,0-1.21,2c-.72,1.25-10.89-6.1-9.56-8s3.76-3.58,4.55-3.41S75,106.57,74.29,106.7Z"/><ellipse class="cls-19" cx="81.68" cy="114.98" rx="3.87" ry="4.28" transform="translate(-58.67 128.9) rotate(-60.28)"/><path class="cls-20" d="M96.55,96.9s29.68-15.53,43.16-18.37c0,0,36.39-3.2,67.86-2.23-3.62,2.9-35,17.2-39.47,18.25S108.68,98.25,96.55,96.9Z"/><path class="cls-21" d="M158.09,91.51s12-7.66,13.25-8.1S147.75,83,147.75,83s-11.68,7.21-12.45,8S158.09,91.51,158.09,91.51Z"/><path class="cls-22" d="M208,76.21s4.67,52,1.24,65.3c-3.77,3.43-30.13,16.49-38.68,16.78-1.17-5.94-4.25-59.4-2-63.83C171.59,91.86,195,80.37,208,76.21Z"/><path class="cls-12" d="M96.55,96.9s-.07,26.66,1.55,46.16c.62,7.51,8.09,14.58,9.32,14.82,2.83,2.43,67.18,2.92,70.83.26a21,21,0,0,1-7.46-15.68c-.33-13-1.82-32.3-2.32-48C166.11,93.33,107.79,94.82,96.55,96.9Z"/><path class="cls-23" d="M158.5,64.64l1,19.62L142.4,85.33c-2.87.15-5.43-4.12-5.71-9.54s1.82-9.94,4.68-10.09a3.59,3.59,0,0,1,2.72,1.23Z"/><path class="cls-24" d="M82.44,65.33s6.7,4.15,18,5c5,.37,11.52-.54,17.77-1.67,20.35-3.71,28.91-14.87,28.91-14.87S145,39.71,144.51,35s-7.61-13.54-7.61-13.54Z"/><path class="cls-24" d="M213.13,59.16s-3.54,7.21-16.66,7.31-32.44-4-32.44-4L151.25,47.15Z"/><path class="cls-12" d="M139.33,24.45l6.82-.59,1,22-6.51.33S140.74,31.84,139.33,24.45Z"/><polygon class="cls-25" points="140.62 46.18 145.2 51.8 149.86 51.55 147.13 45.84 140.62 46.18"/><polygon class="cls-26" points="135.52 46.45 153.38 45.51 153.88 77.12 136.93 77.61 135.52 46.45"/><path class="cls-27" d="M140.63,46l-.27,3.8a.72.72,0,0,1-.24.47l-4.41,3.63a.66.66,0,0,1-.93-.13.68.68,0,0,1-.12-.24l-.21-1a.67.67,0,0,1,.16-.56l4.9-6.4a.66.66,0,0,1,.94,0A.67.67,0,0,1,140.63,46Z"/><polygon class="cls-28" points="164.02 62.48 162.7 69.69 153.88 77.12 153.38 45.51 164.02 62.48"/><path class="cls-24" d="M147.37,46.37s.49,3.62,1.28,4.16A102.14,102.14,0,0,0,160.78,55c1.18.11.82-2.62.82-2.62Z"/><path class="cls-29" d="M147.37,46.37s.6,4.37,1.59,4.33c1.21.52,10.17,3.9,10.17,3.9"/><path class="cls-30" d="M205,60c-7.8,0-20.38-2-33.66-5.34-13.62-3.42-21.08-6.55-22.18-7.74-1.09-3.81-1.72-16.24-1.21-24A2.35,2.35,0,0,1,150,20.72a207.08,207.08,0,0,1,24.77-1.43,252.92,252.92,0,0,1,33.11,2.2,2.38,2.38,0,0,1,1.91,1.61c4.16,12.26,2.85,28.2,2.09,34.48a2.32,2.32,0,0,1-1.84,2,25.84,25.84,0,0,1-5,.4Z"/><path class="cls-31" d="M174.74,21a249.27,249.27,0,0,1,32.87,2.19.64.64,0,0,1,.52.45c4.06,11.93,2.76,27.56,2,33.73a.63.63,0,0,1-.48.54,24.69,24.69,0,0,1-4.7.36c-7.46,0-19.57-1.9-32.41-5.07-5.59-1.39-10.93-2.94-15-4.36a35.4,35.4,0,0,1-6.89-2.94c-.88-3.91-1.52-15.18-1-22.9a.62.62,0,0,1,.54-.58A203.42,203.42,0,0,1,174.74,21m0-3.43a204.44,204.44,0,0,0-25,1.44,4.07,4.07,0,0,0-3.55,3.77c-.51,7.78.11,20.84,1.33,24.79,1.16,3.79,39.24,14.13,57.43,14.13a27.61,27.61,0,0,0,5.37-.43,4.07,4.07,0,0,0,3.22-3.5c.73-6.12,2.12-22.57-2.18-35.26a4.08,4.08,0,0,0-3.3-2.72,251.17,251.17,0,0,0-33.34-2.22Z"/><polygon class="cls-26" points="138.5 82.56 139.73 90.83 158.04 90.21 155.95 81.97 138.5 82.56"/><polygon class="cls-28" points="164.1 77.29 169.14 83.48 158.04 90.21 155.95 81.97 164.1 77.29"/><ellipse class="cls-32" cx="159.01" cy="74.46" rx="5.2" ry="9.83" transform="translate(-3.64 8.33) rotate(-2.97)"/><path class="cls-33" d="M140.48,45.64s0,4.3-.36,4.62l-4.41,3.63"/><path class="cls-30" d="M87.1,64.66a19.9,19.9,0,0,1-2-.1,2.25,2.25,0,0,1-2-1.77C81.78,56.61,79,40.88,82,28.29a2.29,2.29,0,0,1,1.71-1.71,192.21,192.21,0,0,1,43.88-4.74c2.22,0,4.48,0,6.73.1a2.26,2.26,0,0,1,2.16,1.9c1.21,7.56,1.75,20.23,1,24-.75,1.06-6.65,4.84-20.16,9.72C105,62,93.75,64.66,87.1,64.66Z"/><path class="cls-31" d="M127.55,20v3.61c2.2,0,4.44,0,6.67.09a.46.46,0,0,1,.43.39c1.23,7.65,1.64,19,1.13,22.87a31.08,31.08,0,0,1-6.23,3.59,145.26,145.26,0,0,1-13.68,5.59c-11.75,4.18-22.5,6.66-28.77,6.66q-.93,0-1.86-.09a.46.46,0,0,1-.38-.36c-1.32-6.06-4-21.47-1.14-33.69a.51.51,0,0,1,.36-.38,190.22,190.22,0,0,1,43.45-4.68V20m0,0c-22.25,0-37.44,3.17-44.29,4.78a4.08,4.08,0,0,0-3,3.05c-3.11,13-.18,29.28,1.12,35.3a4.07,4.07,0,0,0,3.54,3.2,20.8,20.8,0,0,0,2.23.1c15.94,0,51.24-14,52.09-18.1s.23-17.1-1-24.8a4.05,4.05,0,0,0-3.87-3.44q-3.48-.11-6.77-.1Z"/><path class="cls-34" d="M169.22,50c-6.72,0-12.17-5.73-12.42-13.06S161.9,23.27,168.71,23h.39c6.72,0,12.17,5.73,12.42,13.06a14.08,14.08,0,0,1-3.34,9.68A11.76,11.76,0,0,1,169.6,50Z"/><path class="cls-35" d="M169.1,24.48a10.38,10.38,0,0,1,7.52,3.33,12.87,12.87,0,0,1,.46,17,10.38,10.38,0,0,1-7.52,3.7h-.33a10.4,10.4,0,0,1-7.53-3.31,12.89,12.89,0,0,1-.45-17,10.36,10.36,0,0,1,7.51-3.69h.34m0-2.92h-.44c-7.63.25-13.6,7.15-13.32,15.39s6.44,14.47,13.88,14.47h.44c7.63-.26,13.6-7.15,13.31-15.39C182.7,28,176.53,21.58,169.1,21.58Z"/><path class="cls-34" d="M116.91,52.76c-6.72,0-12.18-5.74-12.42-13.06s5.09-13.64,11.9-13.88h.39c6.72,0,12.17,5.73,12.42,13s-5.09,13.66-11.91,13.89Z"/><path class="cls-35" d="M116.78,27.27a10.42,10.42,0,0,1,7.53,3.33,12.54,12.54,0,0,1,3.43,8.33c.22,6.62-4.48,12.17-10.5,12.38h-.33A10.43,10.43,0,0,1,109.39,48,12.59,12.59,0,0,1,106,39.66c-.22-6.62,4.49-12.17,10.5-12.37h.33m0-2.92h-.44c-7.63.25-13.59,7.14-13.31,15.39.27,8.08,6.44,14.47,13.87,14.47h.44c7.63-.26,13.6-7.15,13.31-15.39s-6.44-14.47-13.87-14.47Z"/><ellipse class="cls-36" cx="159.42" cy="74.97" rx="2.26" ry="4.9" transform="translate(-2.41 5.36) rotate(-1.91)"/><path class="cls-37" d="M137.09,79.11C129.44,80.5,96.56,96.9,96.56,96.9s.19,43.49,1.55,46.16c.63,3.14.83,7.11,8.18,14.12,2.38,1.13,3.4,4.19,50.82,2.75"/><path class="cls-37" d="M164.15,76.85s42-1.38,43.81-.64c0,0,2.65,36.1,2.32,38.26"/><ellipse class="cls-38" cx="119.06" cy="39.35" rx="5.16" ry="6.14" transform="translate(-1.23 3.95) rotate(-1.89)"/><ellipse class="cls-38" cx="171.35" cy="37.4" rx="5.16" ry="6.15" transform="translate(-1.03 5.07) rotate(-1.69)"/><path class="cls-15" d="M205.52,53.88,191.59,87.83c-2.55,5.71-3.35,10.15,2,13h0c5.46,2.18,7.3-.38,10.47-5.27L226,63a11,11,0,0,0-4.52-14.82h0C216.12,45.34,208.34,48.56,205.52,53.88Z"/><path class="cls-16" d="M204.43,56.45,189.34,91.58c-2.55,5.72,9.26,12.61,12.44,7.72l21.94-32.57a11,11,0,0,0-4.52-14.81h0A10.93,10.93,0,0,0,204.43,56.45Z"/><path class="cls-17" d="M215.32,49.32s-1.73-.66-4.8.89c-1.21-4.58-2.51-16-1.16-17.18.92-.82,3.07-1.33,5.12-1.72a2.73,2.73,0,0,1,3.37,2.86c-.53,5.58-1.59,14.18-1.59,14.18Z"/><path class="cls-18" d="M210.44,50.25c-1.2-4.58-3.76-15.45-2.41-16.64a14.37,14.37,0,0,1,5-2,2.7,2.7,0,0,1,3.29,1.92,2.59,2.59,0,0,1,.07.92c-.52,5.59-.66,14.67-1,15A5.62,5.62,0,0,0,210.44,50.25Z"/><path class="cls-17" d="M222.2,51.91s-1-1.58-4.36-2.2c1.8-4.38,7.63-14.25,9.44-14.39,1.23-.09,3.24.82,5.12,1.74a2.74,2.74,0,0,1,1,4.32c-3.8,4.13-9.83,10.32-9.83,10.32Z"/><path class="cls-18" d="M217.76,49.69c1.8-4.37,6.32-14.58,8.12-14.72a14.31,14.31,0,0,1,5.17,1.4,2.7,2.7,0,0,1,1.47,3.52,2.64,2.64,0,0,1-.51.81c-3.79,4.13-9.38,11.28-9.84,11.36A5.66,5.66,0,0,0,217.76,49.69Z"/><path class="cls-17" d="M225.53,59.31s.33-1.83-1.8-4.54C228,52.68,235,49,236.41,50.07c1,.75,1.13.81,1.92,2.75a2.81,2.81,0,0,1-2.13,3.87,46.22,46.22,0,0,0-9.54,3.36Z"/><path class="cls-18" d="M223.67,54.7c4.24-2.08,10.48-6.92,11.92-5.82a4.87,4.87,0,0,1,2.19,2.53,2.79,2.79,0,0,1-2.13,3.87c-5.42,1.36-9.83,4.37-10.24,4.12A5.64,5.64,0,0,0,223.67,54.7Z"/><path class="cls-17" d="M206.13,52.73l3.12-1.67s.42-1.1.49-1.33c.39-1.39-5.79-11.07-7.72-9.79s-4.08,3.58-3.93,4.38c0,.1-.07,1.18-.07,1.18S206,53.34,206.13,52.73Z"/><path class="cls-18" d="M205.64,54.06a7.49,7.49,0,0,1,1.63-1.83,12.36,12.36,0,0,1,2-1.17c1.27-.68-5.8-11.07-7.73-9.78s-3.65,3.66-3.51,4.47S205.49,54.78,205.64,54.06Z"/><ellipse class="cls-19" cx="213.69" cy="61.7" rx="3.86" ry="4.29" transform="translate(-4.76 103.53) rotate(-26.95)"/><path class="cls-39" d="M153.43,110.69l-41.45.42a3.09,3.09,0,0,0-3,3.12,1.09,1.09,0,0,0,0,.18L110.57,139a3.11,3.11,0,0,0,3.11,2.89l41.5-.43a3.09,3.09,0,0,0,3-3.12,1.09,1.09,0,0,0,0-.18l-1.68-24.62A3.08,3.08,0,0,0,153.43,110.69Z"/><path class="cls-40" d="M154.14,111.87l-41.54.33a2.4,2.4,0,0,0-2.38,2.43v.14l1.66,24.74a2.39,2.39,0,0,0,2.41,2.24l41.54-.27a2.4,2.4,0,0,0,2.38-2.43v-.14l-1.64-24.8A2.4,2.4,0,0,0,154.14,111.87Z"/><path class="cls-41" d="M127.82,124.58l25.54-.44a1.56,1.56,0,0,0,1.5-1.59l-.52-7.26a1.55,1.55,0,0,0-1.58-1.5l-25.55.44a1.55,1.55,0,0,0-1.5,1.59l.54,7.27A1.56,1.56,0,0,0,127.82,124.58Z"/><ellipse class="cls-42" cx="148.8" cy="119.11" rx="2.99" ry="3.74" transform="translate(-4.84 6.31) rotate(-2.39)"/><ellipse class="cls-43" cx="139.78" cy="119.19" rx="2.99" ry="3.74" transform="translate(-4.85 5.93) rotate(-2.39)"/><ellipse class="cls-44" cx="130.96" cy="119.53" rx="2.99" ry="3.74" transform="translate(-4.87 5.57) rotate(-2.39)"/><path class="cls-45" d="M133.17,130.75l20.12-.26a1.61,1.61,0,0,0,1.56-1.66h0a1.61,1.61,0,0,0-1.66-1.56l-20.12.25a1.61,1.61,0,0,0-1.56,1.66h0A1.62,1.62,0,0,0,133.17,130.75Z"/><path class="cls-46" d="M145,140.31l8.93-.17a1.61,1.61,0,0,0,1.56-1.66h0a1.61,1.61,0,0,0-1.65-1.56l-8.94.17a1.61,1.61,0,0,0-1.56,1.66h0A1.61,1.61,0,0,0,145,140.31Z"/><path class="cls-46" d="M144.7,135.8l8.94-.16a1.62,1.62,0,0,0,1.55-1.67h0a1.62,1.62,0,0,0-1.66-1.56l-8.93.17a1.61,1.61,0,0,0-1.56,1.66h0a1.61,1.61,0,0,0,1.66,1.56Z"/><polygon class="cls-47" points="122.82 114.52 110.59 114.55 112.27 139.68 124.61 139.5 122.82 114.52"/><ellipse class="cls-48" cx="112.81" cy="117.35" rx="1.33" ry="1.55" transform="translate(-7.41 7.61) rotate(-3.74)"/><path class="cls-49" d="M112.72,115.79a4.7,4.7,0,0,0,.28,3.09"/><path class="cls-49" d="M114.15,117.26a5.48,5.48,0,0,1-2.65.18"/><ellipse class="cls-50" cx="123.37" cy="137.32" rx="1.34" ry="1.55" transform="translate(-9.12 8.78) rotate(-3.93)"/><path class="cls-49" d="M122.52,135.89a4.73,4.73,0,0,0,.29,3.09"/><path class="cls-49" d="M124,137.35a5.52,5.52,0,0,1-2.65.17"/><ellipse class="cls-51" cx="113.91" cy="137.51" rx="1.33" ry="1.55" transform="matrix(1, -0.07, 0.07, 1, -8.73, 7.72)"/><path class="cls-49" d="M113.82,136a4.73,4.73,0,0,0,.29,3.09"/><path class="cls-49" d="M115.25,137.41a5.48,5.48,0,0,1-2.65.18"/><ellipse class="cls-52" cx="120.38" cy="117.2" rx="1.33" ry="1.55" transform="translate(-7.39 8.1) rotate(-3.74)"/><path class="cls-49" d="M120.29,115.64a4.73,4.73,0,0,0,.29,3.09"/><path class="cls-49" d="M121.72,117.1a5.61,5.61,0,0,1-2.65.18"/><path class="cls-53" d="M154.85,128.83a12.26,12.26,0,0,0-6.72.45c-3.18,1.32-3.52-1.59-5-1.45s-1.71,2.38-3.77,2.29-1.44-.92-2.41-.85-.9,1.09-1.82,1-1.5-2.88-2-2.77"/><path class="cls-9" d="M154.41,170.15a21.81,21.81,0,0,1,.72-3.56c1.39-4.87,5.74-19.63,9.72-28.51,2.33-5.24,3.74-8.82,5-11.49a22.35,22.35,0,0,1,6.13-8,24.46,24.46,0,0,1,6.81-4.3c4-1.62,8.33-1.65,12.61-1.11,10.64,1.33,16.35,1.49,18.44,2.13,2.06,1.38,10.94,10.56,11.64,18.39.49,5.66.13,13.36-3.77,19.48s-19.53,35.4-26.51,36.08c-8.14.8-29.09-.11-35.25-4.48C154.38,180.86,153.79,175.81,154.41,170.15Z"/><path class="cls-10" d="M191.37,188.42a11.39,11.39,0,0,1-6.83-2c-5-3.55-5.62-8-5-13.52a20.19,20.19,0,0,1,.67-3.36c1.26-4.41,5.68-19.47,9.65-28.36,1.3-2.89,2.32-5.33,3.15-7.29.69-1.62,1.27-3,1.81-4.2a21.35,21.35,0,0,1,5.81-7.57,23.7,23.7,0,0,1,6.51-4.13,20.22,20.22,0,0,1,7.65-1.47,21.93,21.93,0,0,1,4.27.43,38.56,38.56,0,0,1,14.5,6.42l.51.35.27.18c6.56,4.35,10.1,8.9,10.5,13.52.46,5.27.21,12.79-3.58,18.74-1.73,2.71-8.61,9.16-17.14,16.06-8.74,7.08-16.26,12.22-19.1,13.12l-1.43.45C199.74,187,195.38,188.42,191.37,188.42Z"/><path d="M214.8,115.37v2.36h0a21.13,21.13,0,0,1,4,.41,37.73,37.73,0,0,1,14.06,6.23l.53.36.27.18a34.11,34.11,0,0,1,5.78,4.66c2.55,2.65,4,5.32,4.19,8,.8,9.21-1.41,14.87-3.4,18-1.63,2.57-8.58,9.06-16.89,15.78-8.49,6.88-16,12.06-18.7,12.9l-1.44.45c-3.77,1.2-8.05,2.55-11.87,2.55a10.49,10.49,0,0,1-10.31-7.18,16.91,16.91,0,0,1-.33-7,19.12,19.12,0,0,1,.63-3.17c1.24-4.39,5.65-19.36,9.59-28.2,1.3-2.9,2.32-5.34,3.16-7.32q1-2.4,1.8-4.17a20.32,20.32,0,0,1,5.48-7.15,22.9,22.9,0,0,1,6.2-3.94,19.35,19.35,0,0,1,7.21-1.39v-2.35m0,0a21.42,21.42,0,0,0-8.1,1.56,24.68,24.68,0,0,0-6.82,4.31,22.38,22.38,0,0,0-6.12,8c-1.21,2.66-2.62,6.26-5,11.49-4,8.89-8.32,23.65-9.71,28.52a21.72,21.72,0,0,0-.71,3.59c-.62,5.63,0,10.69,5.5,14.62a12.64,12.64,0,0,0,7.51,2.17c4.7,0,9.75-1.78,14-3.1,6.69-2.09,33-23.55,36.88-29.67S246.52,143,246,137.36c-.67-7.83-9.22-13.2-11.28-14.58a40.54,40.54,0,0,0-15.44-6.94,22,22,0,0,0-4.51-.46Z"/><ellipse class="cls-11" cx="226.74" cy="142.35" rx="12.57" ry="15.77" transform="translate(-2.59 4.21) rotate(-1.06)"/><ellipse class="cls-11" cx="211.14" cy="165.09" rx="9" ry="11.3" transform="translate(-3.01 3.92) rotate(-1.06)"/><ellipse class="cls-11" cx="193.37" cy="174.31" rx="7.09" ry="8.89" transform="translate(-3.18 3.6) rotate(-1.06)"/><ellipse class="cls-12" cx="227.54" cy="142.34" rx="4.27" ry="5.89" transform="translate(-2.6 4.24) rotate(-1.06)"/><ellipse class="cls-12" cx="211.55" cy="165.52" rx="3.69" ry="5.09" transform="translate(-35.46 59.98) rotate(-14.9)"/><ellipse class="cls-12" cx="193.38" cy="174.91" rx="2.73" ry="3.77" transform="translate(-38.48 55.62) rotate(-14.9)"/><path class="cls-13" d="M188.2,162.47s1.86-4.11,8.06-2.3c1-2.66,3.11-9.8,14-9.35-.61-2.41-5.24-12.76,2.52-23.34-3.24-1.33-5.25-2.2-9.13,2.94S187.72,161.25,188.2,162.47Z"/><line class="cls-14" x1="169.87" y1="126.47" x2="194.35" y2="128.03"/><line class="cls-14" x1="183.5" y1="114.01" x2="210.76" y2="115.74"/><polyline class="cls-14" points="214.65 115.99 221.88 116.45 221.88 116.45"/><line class="cls-14" x1="163.32" y1="141.72" x2="187.71" y2="143.27"/><line class="cls-14" x1="158.06" y1="156.83" x2="182.36" y2="158.37"/><line class="cls-14" x1="154.23" y1="172.43" x2="178.25" y2="173.96"/><ellipse class="cls-54" cx="108.92" cy="93.55" rx="3.3" ry="1.01" transform="translate(-18.45 27.28) rotate(-13.17)"/><line class="cls-55" x1="139.33" y1="24.46" x2="146.15" y2="23.87"/><path class="cls-56" d="M299.89,13.28V186.12a13.41,13.41,0,0,1-13.21,13.58H13.25A13.4,13.4,0,0,1,0,186.12H0V13.28A13.4,13.4,0,0,1,13.25-.3H286.68A13.41,13.41,0,0,1,299.89,13.28Z"/><g class="cls-57"><path class="cls-4" d="M185.13,73.15V88.29H172.9V75.1a22.53,22.53,0,1,0-45.05,0V88.29H115.62V73.15A33.51,33.51,0,0,1,149,39.68h2.77A33.52,33.52,0,0,1,185.13,73.15Z"/><path class="cls-4" d="M191.84,93.91v55.16a5.63,5.63,0,0,1-5.61,5.62H114.51a5.63,5.63,0,0,1-5.6-5.62V93.91a5.63,5.63,0,0,1,5.6-5.62h71.72A5.63,5.63,0,0,1,191.84,93.91Z"/><path class="cls-58" d="M191.84,93.91V144.2c0,5.77-2.52,10.49-5.61,10.49H150.37V88.29H172.9V75.1a22.64,22.64,0,0,0-22.53-22.59V39.68h1.39a33.52,33.52,0,0,1,33.37,33.47V88.29h1.1A5.63,5.63,0,0,1,191.84,93.91Z"/><path class="cls-4" d="M185.11,101.36v41.38a5.94,5.94,0,0,1-5.91,5.93H121.55a5.94,5.94,0,0,1-5.91-5.93V101.36a5.94,5.94,0,0,1,5.91-5.93H179.2A5.94,5.94,0,0,1,185.11,101.36Z"/><path class="cls-58" d="M150.37,95.43v53.24H121.55a5.94,5.94,0,0,1-5.91-5.93V101.36a5.94,5.94,0,0,1,5.91-5.93Z"/><path class="cls-59" d="M159.79,116.64a9.43,9.43,0,0,1-5.34,8.51V133a3.9,3.9,0,1,1-7.8,0v-7.67a9.43,9.43,0,1,1,13.14-8.67Z"/><path class="cls-31" d="M156.8,117.8a6.44,6.44,0,0,1-3.65,5.81V129a2.66,2.66,0,1,1-5.32,0v-5.23a6.44,6.44,0,1,1,9-5.92Z"/></g></svg>