<?xml version="1.0" encoding="utf-8"?>
<!-- Generator: Adobe Illustrator 23.0.2, SVG Export Plug-In . SVG Version: 6.00 Build 0)  -->
<svg version="1.1" id="Layer_1" xmlns="http://www.w3.org/2000/svg" xmlns:xlink="http://www.w3.org/1999/xlink" x="0px" y="0px"
	 viewBox="0 0 300 199.7" style="enable-background:new 0 0 300 199.7;" xml:space="preserve">
<style type="text/css">
	.st0{fill:#757575;}
	.st1{fill:#00B1FF;}
	.st2{fill:#15BDF9;}
	.st3{fill:#FFFFFF;}
	.st4{fill:#626C72;}
	.st5{fill:#96A5B3;}
	.st6{fill:#2F3E4A;}
	.st7{fill:#222D35;}
	.st8{fill:#353535;stroke:#000000;stroke-width:0.24;stroke-linejoin:round;}
	.st9{fill:#4D4D4D;}
	.st10{fill:#B3B3B3;}
	.st11{opacity:0.41;fill:#F9F7F7;enable-background:new    ;}
	.st12{fill:#D3161D;}
	.st13{fill:#945320;stroke:#050505;stroke-width:0.29;stroke-miterlimit:10;}
	.st14{fill:#1E1E1E;stroke:#050505;stroke-width:0.3;stroke-miterlimit:10;}
	.st15{fill:#3A3A3A;stroke:#050505;stroke-width:0.3;stroke-miterlimit:10;}
	.st16{fill:#F8C946;stroke:#050505;stroke-width:0.29;stroke-miterlimit:10;}
	.st17{fill:#3A3A3A;stroke:#050505;stroke-width:0.3;stroke-linejoin:round;}
	.st18{fill:#3A3A3A;stroke:#050505;stroke-width:0.43;stroke-miterlimit:10;}
	.st19{fill:#F8C946;}
	.st20{fill:#683919;}
	.st21{fill:#945320;}
	.st22{fill:#7F1119;}
	.st23{fill:#5E0E18;}
	.st24{fill:#352F49;}
	.st25{fill:#E41E00;}
	.st26{fill:#FFFE28;}
	.st27{fill:#18FF08;}
	.st28{fill:#DBDDDD;}
	.st29{fill:#0FB0DB;}
	.st30{fill:#303435;}
	.st31{fill:url(#SVGID_1_);stroke:#0A0A0A;stroke-width:0.13;stroke-miterlimit:10;}
	.st32{fill:none;stroke:#0A0A0A;stroke-width:0.13;stroke-miterlimit:10;}
	.st33{fill:url(#SVGID_2_);stroke:#0A0A0A;stroke-width:0.13;stroke-miterlimit:10;}
	.st34{fill:url(#SVGID_3_);stroke:#0A0A0A;stroke-width:0.13;stroke-miterlimit:10;}
	.st35{fill:url(#SVGID_4_);stroke:#0A0A0A;stroke-width:0.13;stroke-miterlimit:10;}
	.st36{fill:none;stroke:#070707;stroke-width:0.16;stroke-miterlimit:10;}
	.st37{fill:none;stroke:#070707;stroke-width:0.33;stroke-miterlimit:10;}
	.st38{fill:#ADADAD;stroke:#080000;stroke-width:0.33;stroke-miterlimit:10;}
	.st39{fill:#515051;stroke:#000000;stroke-width:0.33;stroke-linejoin:round;}
	.st40{fill:#8E8A8B;stroke:#000000;stroke-width:0.28;stroke-linejoin:round;}
	.st41{fill:#161616;}
	.st42{fill:#E2B647;stroke:#070707;stroke-width:0.28;stroke-miterlimit:10;}
	.st43{fill:#945320;stroke:#070707;stroke-width:0.28;stroke-miterlimit:10;}
	.st44{fill:#3A3A3A;}
	.st45{fill:#666666;}
	.st46{fill:#AA161D;}
	.st47{fill:none;}
	.st48{fill:#DDDBD7;}
	.st49{fill:#212121;}
	.st50{fill:#282828;}
	.st51{fill:#7C7C7C;}
	.st52{fill:#389CCE;}
	.st53{fill:#BFBFBF;}
	.st54{fill:#F2F2F2;}
	.st55{fill:#D3D3D3;}
	.st56{fill:#F2F2F2;stroke:#BFBFBF;stroke-width:0.19;stroke-miterlimit:10;}
	.st57{fill:#020202;stroke:#020202;stroke-width:0.19;stroke-miterlimit:10;}
	.st58{fill:none;stroke:#0A0A0A;stroke-width:0.19;stroke-miterlimit:10;}
	.st59{fill:#F8C946;stroke:#000000;stroke-width:0.14;stroke-miterlimit:10;}
	.st60{opacity:0.75;enable-background:new    ;}
	.st61{fill:#E78D00;}
	.st62{fill:#FACB03;}
	.st63{fill:#CCCCCC;}
	.st64{fill:#FEFEFE;}
	.st65{fill:#F7B808;}
	.st66{fill:#703500;}
	.st67{fill:#220B00;}
	.st68{opacity:0.8;fill:#FFFFFF;}
</style>
<title>guide_speed_lock</title>
<path class="st0" d="M13.7,5.1h273.4c7.3,0,13.2,5.9,13.2,13.2v168c0,7.3-5.9,13.2-13.2,13.2c0,0,0,0,0,0H13.7
	c-7.3,0-13.2-5.9-13.2-13.2v-168C0.5,11,6.4,5.1,13.7,5.1z"/>
<path class="st1" d="M300.2,13.3v168c0,7.3-5.9,13.2-13.2,13.2H13.5c-7.3,0-13.2-5.9-13.2-13.2l0,0v-168C0.3,6,6.2,0.1,13.5,0.1
	c0,0,0,0,0,0H287C294.3,0.1,300.2,6,300.2,13.3z"/>
<path class="st2" d="M300.2,11.3H0.6c1-6.4,6.6-11.1,13-11.1h273.4C293.6,0.2,299.1,4.9,300.2,11.3z"/>
<path class="st3" d="M287.1,4.6c4.8,0,8.7,3.9,8.7,8.7v168c0,4.8-3.9,8.7-8.7,8.7H13.7c-4.8,0-8.7-3.9-8.7-8.7v-168
	c0-4.8,3.9-8.7,8.7-8.7H287.1 M287.1,0.1H13.7C6.4,0.1,0.5,6,0.5,13.3v168c0,7.3,5.9,13.2,13.2,13.2h273.4c7.3,0,13.2-5.9,13.2-13.2
	l0,0v-168C300.3,6,294.4,0.1,287.1,0.1z"/>
<circle class="st4" cx="285.2" cy="15.1" r="6.2"/>
<circle class="st5" cx="285.2" cy="15.1" r="5.5"/>
<polygon class="st6" points="288.8,13.5 288.4,17.4 284.9,18.9 281.7,16.7 282.1,12.8 285.6,11.2 "/>
<path class="st7" d="M288.8,13.5l-0.2,1.8c-0.8-1-1.9-1.7-3.2-1.9c-1.3-0.1-2.6,0.3-3.5,1.2l0.2-1.8l3.5-1.6L288.8,13.5z"/>
<circle class="st4" cx="15.6" cy="15.1" r="6.2"/>
<circle class="st5" cx="15.6" cy="15.1" r="5.6"/>
<polygon class="st6" points="19,13.1 19,17 15.6,19 12.2,17 12.2,13.1 15.6,11.2 "/>
<path class="st7" d="M19,13.1v1.8c-0.9-0.9-2.1-1.5-3.4-1.5c-1.3,0-2.5,0.6-3.4,1.5v-1.8l3.4-1.9L19,13.1z"/>
<circle class="st4" cx="15.6" cy="178.6" r="6.2"/>
<circle class="st5" cx="15.6" cy="178.6" r="5.6"/>
<polygon class="st6" points="19.5,178.3 17.8,181.9 13.9,182.1 11.7,178.9 13.4,175.4 17.3,175.1 "/>
<path class="st7" d="M19.5,178.3l-0.8,1.6c-0.4-1.2-1.2-2.2-2.4-2.9c-1.2-0.6-2.5-0.6-3.7-0.1l0.8-1.6l3.9-0.3L19.5,178.3z"/>
<circle class="st4" cx="284.4" cy="178.6" r="6.2"/>
<circle class="st5" cx="284.4" cy="178.6" r="5.5"/>
<polygon class="st6" points="287.3,176 288.1,179.8 285.2,182.4 281.5,181.2 280.7,177.4 283.6,174.8 "/>
<path class="st7" d="M287.3,176l0.4,1.7c-1-0.7-2.3-1-3.6-0.8c-1.3,0.3-2.4,1.1-3,2.2l-0.4-1.7l2.9-2.6L287.3,176z"/>
<path class="st8" d="M53.8,161.2c0.2-1.1,0.4-2.3,0.7-3.4c1.4-4.6,5.8-18.6,9.8-27c2.3-4.9,3.7-8.3,4.9-10.8c1.4-2.9,3.5-5.5,6-7.5
	c2-1.7,4.2-3,6.6-4c3.8-1.5,8-1.4,12.1-0.8c10.1,1.5,15.6,1.7,17.6,2.4c1.9,1.3,10.3,10.2,10.8,17.7c0.4,5.4-0.1,12.7-3.9,18.5
	s-19.3,33.4-26,33.9c-7.8,0.6-27.8-0.6-33.6-4.9C53.6,171.4,53.1,166.5,53.8,161.2z"/>
<path class="st9" d="M89.1,179.2c-2.4,0.1-4.8-0.6-6.8-2c-4.7-3.5-5.2-7.7-4.5-13c0.1-1.1,0.4-2.1,0.7-3.2
	c1.3-4.2,5.8-18.4,9.7-26.8c1.3-2.7,2.3-5,3.1-6.9c0.7-1.5,1.3-2.8,1.8-4c1.3-2.8,3.3-5.2,5.7-7.1c1.9-1.6,4-2.9,6.3-3.8
	c2.2-0.8,4.6-1.3,7-1.3c1.5,0,3,0.2,4.4,0.5c5,1.2,9.6,3.3,13.7,6.4l0.5,0.3l0.2,0.2c6.2,4.3,9.5,8.7,9.8,13.1
	c0.3,5,0,12.2-3.8,17.8c-1.7,2.5-8.4,8.6-16.7,15c-8.5,6.6-15.7,11.3-18.5,12.1l-1.4,0.4C96.9,178,92.8,179.2,89.1,179.2z"/>
<path d="M112,110.1v2.3c1.4,0,2.8,0.2,4.2,0.5c4.8,1.1,9.3,3.2,13.3,6.2l0.5,0.3l0.2,0.2c2,1.3,3.8,2.8,5.4,4.5
	c2.4,2.6,3.7,5.1,3.9,7.7c0.6,8.8-1.6,14.1-3.6,17.1c-1.6,2.4-8.3,8.5-16.4,14.7c-8.2,6.4-15.5,11.2-18.1,11.9l-1.4,0.4
	c-3.5,1-7.5,2.2-11.1,2.2c-2.2,0.1-4.3-0.5-6.1-1.8c-1.9-1.3-3.2-3.1-3.9-5.2c-0.5-2.2-0.6-4.4-0.2-6.7c0.1-1,0.4-2,0.7-3
	c1.3-4.1,5.7-18.3,9.7-26.7c1.3-2.8,2.3-5,3.2-6.9c0.7-1.5,1.3-2.8,1.8-3.9c1.3-2.6,3.1-4.9,5.4-6.7c1.8-1.5,3.8-2.8,6-3.7
	c2.1-0.8,4.3-1.2,6.5-1.2L112,110.1 M112,110.1c-2.5,0-5,0.4-7.3,1.3c-2.4,1-4.6,2.3-6.6,4c-2.5,2-4.6,4.6-6,7.5
	c-1.2,2.5-2.6,5.9-4.9,10.8c-4,8.4-8.4,22.4-9.8,27c-0.3,1.1-0.6,2.2-0.7,3.4c-0.7,5.4-0.2,10.2,5,14c2.2,1.5,4.8,2.3,7.5,2.2
	c4.4,0,9.1-1.6,13.1-2.7c6.4-1.9,31.9-21.8,35.7-27.6s4.3-13.1,3.9-18.5c-0.5-7.5-8.6-12.7-10.5-14.1c-4.3-3.3-9.3-5.6-14.6-6.9
	C115.2,110.3,113.6,110.1,112,110.1L112,110.1z"/>
<ellipse class="st10" cx="123.3" cy="136" rx="12" ry="15"/>
<ellipse class="st10" cx="108" cy="157.4" rx="8.6" ry="10.8"/>
<ellipse class="st10" cx="90.9" cy="165.8" rx="6.8" ry="8.5"/>
<path class="st11" d="M64.3,130.8l5.3-5.6l0.2,12.8c0,0,9.6-17.8,9.5-17s-2.9,10.8-2.9,10.8l6.4-6.6L80,136l6.8-6.5l-1.5,5.5l2.7-3
	l-11.6,19l2.7-9.4l-7.4,9.4l2.4-11.2l-6.2,8.4L67.7,136l-3.1,5.6l3.1-11.2l-4.7,8.8L64.3,130.8z"/>
<polygon class="st11" points="92.2,107.5 84.1,111.5 92.2,109.5 85.9,113.7 97.7,109.3 95.4,111.5 103.7,108.9 "/>
<ellipse class="st12" cx="124.1" cy="136" rx="4.1" ry="5.6"/>
<ellipse transform="matrix(0.9705 -0.2412 0.2412 0.9705 -34.8623 30.8163)" class="st12" cx="108.4" cy="157.8" rx="3.5" ry="4.8"/>
<ellipse transform="matrix(0.9705 -0.2412 0.2412 0.9705 -37.459 26.8459)" class="st12" cx="90.9" cy="166.4" rx="2.6" ry="3.6"/>
<path class="st13" d="M130.9,78c0.7,1.8,1.1,5.1-1.5,10.1c-1.8,2.2-4.2,3.9-6.8,4.8c-2.4,0.9-20.9,7-28.5,9.5l-0.8,4.2l-4.9-2.9l0,0
	c-0.3-0.2-0.6-0.5-0.9-0.8c-0.9-2-1.2-4.2-1-6.3c0.4-1.1,0.3-1,1.9-2l31.1-19.8c0,0,4.9-2.7,8.4-0.9l0.4,0.2l0,0l4.5,2.7L130.9,78z"
	/>
<path class="st14" d="M130.9,76.1c0,0,8.7-10.5,11.4-8.9s4,3.3,3.8,5s-11.4,6.2-12.2,6.5S134,76.2,130.9,76.1z"/>
<path class="st15" d="M131.8,77.6c0,0,8.7-10.5,11.4-8.9s4,3.3,3.8,5s-11.4,6.2-12.2,6.5S134.9,77.7,131.8,77.6z"/>
<path class="st14" d="M133.9,80.5c1.9-0.4,14.5-3.4,15.7-0.5c1,2.7,0.9,4.7-0.5,5.8s-13.8-1.5-14.6-1.7S136.3,82.3,133.9,80.5z"/>
<path class="st15" d="M135.1,81.8c0,0,13.7-3.5,14.8-0.8s1.1,5.2-0.4,6.3s-13-1.8-13.9-2S137.6,83.5,135.1,81.8z"/>
<path class="st14" d="M134.2,85.8c0,0,10.4,0.9,10.6,3.4s-0.3,4.2-1.5,4.9s-8.9-4.7-9.4-5.1S135.5,88,134.2,85.8z"/>
<path class="st15" d="M134.2,87.3c0,0,10.4,0.9,10.6,3.4s-0.3,4.2-1.5,4.9s-8.9-4.7-9.4-5.1S135.5,89.5,134.2,87.3z"/>
<path class="st16" d="M93.2,97.5l31.1-19.8c0,0,8-4.4,10.8,1.8c0.6,1,2.7,4.6-0.8,11.5c-1.8,2.2-4.2,3.9-6.8,4.8
	c-3,1.2-31.7,10.6-31.7,10.6c-1.1,0.8-2.6,0.6-3.3-0.5c0,0-0.1-0.1-0.1-0.1c-0.9-2-1.2-4.2-1-6.3C91.8,98.4,91.7,98.5,93.2,97.5z"/>
<path class="st14" d="M126.1,75c0,0,0.9-12.3,3.6-12.5c2.6-0.2,4.4,0.4,5.1,1.8c0.7,1.4-4.7,10.4-5.1,11c-0.7,0.2-1.4,0.6-2,0.9
	C127.7,76.2,127.1,75.7,126.1,75z"/>
<path class="st17" d="M127.6,76.1c0,0,0.9-12.3,3.6-12.5s4.4,0.4,5.1,1.8s-4.7,10.4-5.1,11C130.7,76.2,129.8,74.6,127.6,76.1z"/>
<ellipse class="st18" cx="128.7" cy="85.8" rx="3.4" ry="4"/>
<path class="st19" d="M76.7,98.7c0,0,28.6-13.7,41.5-16c0,0,34.6-1.9,64.4,0.1c-3.5,2.6-33.7,15.1-38,16S88.1,100.4,76.7,98.7z"/>
<path class="st20" d="M135.2,95.6c0,0,11.6-6.8,12.8-7.2s-22.3-1.2-22.3-1.2s-11.3,6.4-12.1,7.2S135.2,95.6,135.2,95.6z"/>
<path class="st21" d="M182.9,82.7c0,0,2.8,49.3-0.9,61.8c-3.7,3.1-29.1,14.6-37.2,14.6c-0.9-5.6-2.1-56.3,0.1-60.4
	C148,96.3,170.6,86.2,182.9,82.7z"/>
<path class="st12" d="M76.7,98.7c0,0-0.9,25.2,0,43.7c0.4,7.1,7.2,14,8.4,14.3c2.6,2.4,62.3,3.8,65.9,1.4c-4.3-3.8-6.7-9.3-6.6-15.1
	c0.1-12.3,0.6-29.4,0.6-44.3C142.7,97.6,87.4,97.1,76.7,98.7z"/>
<path class="st22" d="M130.1,113.6l-39.3-0.9c-1.6,0-3,1.2-3,2.9c0,0,0,0,0,0v0.2l0.8,23.3c0.1,1.6,1.3,2.8,2.9,2.8l39.3,0.9
	c1.6,0,2.9-1.2,3-2.8c0,0,0,0,0,0v-0.2l-0.8-23.3C132.9,114.8,131.7,113.6,130.1,113.6z"/>
<path class="st23" d="M130.8,114.7l-39.4-1c-1.2,0-2.3,1-2.3,2.2c0,0,0,0,0,0v0.1l0.8,23.4c0,1.2,1,2.2,2.2,2.2l39.4,1.1
	c1.3,0,2.3-1,2.3-2.2c0,0,0,0,0,0v-0.1l-0.8-23.5C133,115.7,132,114.7,130.8,114.7z"/>
<path class="st24" d="M105.4,125.9l24.2,0.4c0.8,0,1.5-0.6,1.5-1.5l0,0l-0.3-6.9c0-0.8-0.6-1.5-1.4-1.5c0,0,0,0,0,0l-24.2-0.4
	c-0.8,0-1.5,0.7-1.5,1.5l0.3,6.9C104,125.2,104.6,125.9,105.4,125.9z"/>
<ellipse transform="matrix(1 -8.725042e-03 8.725042e-03 1 -1.0543 1.0996)" class="st25" cx="125.5" cy="121.4" rx="2.8" ry="3.5"/>
<ellipse transform="matrix(1 -8.726535e-03 8.726535e-03 1 -1.0529 1.0251)" class="st26" cx="116.9" cy="121.2" rx="2.8" ry="3.5"/>
<ellipse transform="matrix(1 -8.726535e-03 8.726535e-03 1 -1.0536 0.9521)" class="st27" cx="108.6" cy="121.2" rx="2.8" ry="3.5"/>
<path class="st28" d="M110.3,131.9l19.1,0.4c0.8,0,1.5-0.7,1.5-1.5c0,0,0,0,0,0l0,0c0-0.8-0.7-1.5-1.5-1.5l-19.1-0.4
	c-0.8,0-1.5,0.7-1.5,1.5l0,0C108.8,131.2,109.5,131.9,110.3,131.9z"/>
<path class="st29" d="M121.2,141.3l8.5,0.1c0.8,0,1.5-0.7,1.5-1.5l0,0c0-0.8-0.7-1.5-1.5-1.5c0,0,0,0,0,0l-8.5-0.1
	c-0.8,0-1.5,0.7-1.5,1.5c0,0,0,0,0,0l0,0C119.7,140.6,120.4,141.3,121.2,141.3z"/>
<path class="st29" d="M121.1,137l8.5,0.1c0.8,0,1.5-0.7,1.5-1.5l0,0c0-0.8-0.7-1.5-1.5-1.5c0,0,0,0,0,0l-8.5-0.1
	c-0.8,0-1.5,0.7-1.5,1.5l0,0l0,0C119.6,136.3,120.2,137,121.1,137C121.1,137,121.1,137,121.1,137z"/>
<polygon class="st30" points="101,116.2 89.4,115.8 90.2,139.7 101.9,139.9 "/>
<radialGradient id="SVGID_1_" cx="-9311.8408" cy="171.5495" r="1.25" gradientTransform="matrix(-1.5791 5.210957e-02 5.210957e-02 1.5791 -14632.4561 333.9394)" gradientUnits="userSpaceOnUse">
	<stop  offset="0.2" style="stop-color:#666666"/>
	<stop  offset="0.57" style="stop-color:#585858"/>
	<stop  offset="1" style="stop-color:#4D4D4D"/>
</radialGradient>
<path class="st31" d="M91.4,117.1c0.7,0,1.3,0.6,1.3,1.4c0,0.8-0.5,1.5-1.2,1.5c-0.7,0-1.3-0.6-1.3-1.4
	C90.1,117.8,90.7,117.1,91.4,117.1z"/>
<path class="st32" d="M91.4,117.1c-0.3,1-0.2,2,0.2,2.9"/>
<path class="st32" d="M92.7,118.5c-0.8,0.2-1.7,0.3-2.5,0.1"/>
<radialGradient id="SVGID_2_" cx="-9318.001" cy="182.6233" r="1.25" gradientTransform="matrix(-1.58 4.740000e-02 4.740000e-02 1.58 -14641.6396 292.3292)" gradientUnits="userSpaceOnUse">
	<stop  offset="0.2" style="stop-color:#666666"/>
	<stop  offset="0.57" style="stop-color:#585858"/>
	<stop  offset="1" style="stop-color:#4D4D4D"/>
</radialGradient>
<path class="st33" d="M99.7,136.8c0.7,0,1.3,0.6,1.3,1.4s-0.5,1.5-1.2,1.5s-1.3-0.6-1.3-1.4S99,136.8,99.7,136.8z"/>
<path class="st32" d="M100.1,136.4c-0.3,1-0.2,2,0.2,2.9"/>
<path class="st32" d="M101.4,137.8c-0.8,0.2-1.7,0.3-2.5,0.1"/>
<radialGradient id="SVGID_3_" cx="-9311.7002" cy="183.6094" r="1.25" gradientTransform="matrix(-1.5791 5.210957e-02 5.210957e-02 1.5791 -14632.457 333.9286)" gradientUnits="userSpaceOnUse">
	<stop  offset="0.2" style="stop-color:#666666"/>
	<stop  offset="0.57" style="stop-color:#585858"/>
	<stop  offset="1" style="stop-color:#4D4D4D"/>
</radialGradient>
<path class="st34" d="M91.8,136.2c0.7,0,1.3,0.6,1.3,1.4s-0.5,1.5-1.2,1.5c-0.7,0-1.3-0.6-1.3-1.4C90.6,136.9,91.1,136.2,91.8,136.2
	z"/>
<path class="st32" d="M91.8,136.2c-0.3,1-0.2,2,0.2,2.9"/>
<path class="st32" d="M93.1,137.6c-0.8,0.2-1.7,0.3-2.5,0.1"/>
<radialGradient id="SVGID_4_" cx="-9316.3701" cy="171.7695" r="1.25" gradientTransform="matrix(-1.5791 5.210957e-02 5.210957e-02 1.5791 -14632.4541 333.9292)" gradientUnits="userSpaceOnUse">
	<stop  offset="0.2" style="stop-color:#666666"/>
	<stop  offset="0.57" style="stop-color:#585858"/>
	<stop  offset="1" style="stop-color:#4D4D4D"/>
</radialGradient>
<path class="st35" d="M98.6,117.2c0.7,0,1.3,0.6,1.3,1.4s-0.5,1.5-1.2,1.5c-0.7,0-1.3-0.6-1.3-1.4C97.3,117.9,97.9,117.2,98.6,117.2
	z"/>
<path class="st32" d="M98.6,117.2c-0.3,1-0.2,2,0.2,2.9"/>
<path class="st32" d="M99.9,118.6c-0.8,0.2-1.7,0.3-2.5,0.1"/>
<path class="st36" d="M130.9,130.8c-2.1-0.5-4.3-0.5-6.4,0.2c-3.1,1.1-3.3-1.6-4.7-1.5s-1.7,2.2-3.7,2.1s-1.3-0.9-2.3-0.9
	s-0.9,1-1.8,0.9s-1.3-2.8-1.8-2.7"/>
<path class="st37" d="M115.7,83.2c-7.3,1.1-39,15.5-39,15.5s-1.2,41.1,0,43.7c0.5,3,0.6,6.8,7.3,13.6c2.2,1.1,2.8,3.2,47.8,3.3"/>
<path class="st37" d="M141.4,81.9c0,0,39.9,0,41.6,0.8c0,0,1.4,34.2,1,36.2"/>
<path class="st8" d="M128.9,170.6c0.2-1.1,0.4-2.3,0.7-3.4c1.4-4.6,5.8-18.6,9.8-27c2.3-4.9,3.7-8.3,4.9-10.9c1.4-2.9,3.5-5.5,6-7.5
	c2-1.7,4.2-3,6.6-4c3.8-1.5,8-1.4,12-0.8c10.1,1.5,15.6,1.7,17.6,2.4c1.9,1.4,10.3,10.2,10.8,17.7c0.4,5.4-0.1,12.7-3.9,18.5
	s-19.2,33.4-25.9,33.9c-7.8,0.6-27.8-0.6-33.6-4.9C128.7,180.8,128.2,176,128.9,170.6z"/>
<path class="st9" d="M164.2,188.6c-2.4,0.1-4.8-0.6-6.8-2c-4.7-3.5-5.2-7.7-4.5-13c0.1-1.1,0.4-2.1,0.7-3.2
	c1.3-4.2,5.8-18.4,9.7-26.8c1.3-2.7,2.3-5,3.1-6.9c0.7-1.5,1.3-2.8,1.8-4c1.3-2.8,3.3-5.2,5.7-7.1c1.9-1.6,4-2.9,6.3-3.8
	c2.2-0.8,4.6-1.3,7-1.3c1.5,0,3,0.2,4.4,0.5c5,1.1,9.6,3.3,13.7,6.4l0.5,0.3l0.2,0.2c6.2,4.3,9.5,8.7,9.8,13.1
	c0.3,5,0,12.2-3.8,17.8c-1.7,2.5-8.4,8.6-16.6,15c-8.5,6.6-15.7,11.4-18.5,12.1l-1.4,0.4C172,187.4,167.9,188.6,164.2,188.6z"/>
<path d="M187.1,119.5v2.3c1.4,0,2.8,0.2,4.2,0.5c4.8,1.1,9.3,3.2,13.3,6.2l0.5,0.4l0.3,0.2c2,1.3,3.8,2.8,5.4,4.5
	c2.4,2.6,3.7,5.1,3.9,7.7c0.6,8.8-1.6,14.1-3.6,17.1c-1.6,2.4-8.4,8.5-16.4,14.7c-8.2,6.4-15.5,11.2-18.1,11.9l-1.4,0.4
	c-3.5,1-7.5,2.2-11.1,2.2c-4.5,0.2-8.6-2.7-10-7c-0.5-2.2-0.6-4.5-0.2-6.7c0.1-1,0.4-2,0.7-3c1.3-4.2,5.8-18.4,9.7-26.7
	c1.3-2.7,2.3-5,3.1-6.9c0.7-1.5,1.3-2.8,1.8-3.9c1.3-2.6,3.1-4.9,5.4-6.7c1.8-1.5,3.8-2.8,6-3.7c2.1-0.8,4.3-1.2,6.5-1.2
	L187.1,119.5 M187.1,119.5c-2.5,0-5,0.4-7.4,1.3c-2.4,1-4.6,2.3-6.6,4c-2.5,2-4.6,4.6-6,7.5c-1.2,2.5-2.6,5.9-4.9,10.9
	c-4,8.4-8.4,22.4-9.8,27c-0.3,1.1-0.6,2.2-0.8,3.4c-0.7,5.3-0.2,10.2,5,14c2.2,1.5,4.8,2.3,7.5,2.2c4.4,0,9.1-1.6,13.1-2.7
	c6.4-1.9,31.9-21.8,35.7-27.6s4.3-13.1,3.9-18.5c-0.5-7.5-8.6-12.7-10.5-14.1c-4.3-3.3-9.3-5.7-14.6-6.9
	C190.3,119.7,188.7,119.5,187.1,119.5L187.1,119.5z"/>
<ellipse class="st10" cx="198.4" cy="145.4" rx="12" ry="15"/>
<ellipse class="st10" cx="183.1" cy="166.8" rx="8.6" ry="10.8"/>
<ellipse class="st10" cx="166" cy="175.2" rx="6.8" ry="8.5"/>
<path class="st11" d="M139.4,140.2l5.3-5.6l0.1,12.8c0,0,9.6-17.8,9.5-17s-2.9,10.8-2.9,10.8l6.4-6.6l-2.8,10.8l6.8-6.5l-1.5,5.5
	l2.7-2.9l-11.6,19l2.6-9.4l-7.4,9.4l2.4-11.2l-6.2,8.4l-0.1-12.2l-3.1,5.6l3.1-11.2l-4.7,8.8L139.4,140.2z"/>
<polygon class="st11" points="167.3,116.9 159.2,120.9 167.3,118.9 161,123.1 172.8,118.7 170.5,120.9 178.8,118.3 "/>
<ellipse class="st12" cx="199.2" cy="145.4" rx="4.1" ry="5.6"/>
<ellipse transform="matrix(0.9705 -0.2412 0.2412 0.9705 -34.9163 49.2082)" class="st12" cx="183.5" cy="167.2" rx="3.5" ry="4.8"/>
<ellipse transform="matrix(0.9705 -0.2412 0.2412 0.9705 -37.5104 45.2393)" class="st12" cx="166" cy="175.8" rx="2.6" ry="3.6"/>
<path class="st38" d="M161.3,163.9c0,0,1.9-3.9,7.7-2c1-2.5,3.1-9.3,13.6-8.6c-0.6-2.3-4.8-12.2,2.8-22.2c-3.1-1.3-5-2.2-8.8,2.6
	S160.8,162.7,161.3,163.9z"/>
<path class="st39" d="M136.4,70.2l0.3,18.6l-16.3,0.5c-2.7,0-5-4.1-5.1-9.2s2-9.3,4.8-9.4c1,0,1.9,0.5,2.5,1.2L136.4,70.2z"/>
<polygon class="st40" points="120.2,56.3 124.4,61.7 128.8,61.6 126.4,56.1 "/>
<path class="st41" d="M77.9,37.1c0.3,5-2.4,10.5-0.9,15.7c0.5,1.8,2.1,3.2,3.9,3.4c7.2,1,13.1,0.5,30.4-3.6l5.2,9.3l12.5-14.8
	l0.6-0.8l0,0c0.6-0.8,0.9-1.9,0.8-2.9c-0.2-5.7-1.1-11.3-2.5-16.8c-0.4-1.8-1.9-3.1-3.7-3.5c-8.5-1.8-23.3-5.3-42.3-5.2
	c-1.7,0-3.5,1-5.1,2.3l0,0l-9.1,8.4L77.9,37.1z"/>
<polygon class="st42" points="115.4,56.3 132.3,56 131.6,81.8 115.6,81.8 "/>
<polygon class="st43" points="145.1,63.5 140.2,75.1 131.6,81.8 132.3,56 "/>
<path class="st41" d="M129,52.7c0.5-0.2,1-0.6,1.3-1.1L129,52.7z"/>
<polygon class="st42" points="116.9,86.5 117.8,94.4 135.2,94.4 133.4,86.5 "/>
<polygon class="st43" points="141.3,82.3 145.9,88.3 135.2,94.4 133.4,86.5 "/>
<ellipse transform="matrix(0.9998 -1.849943e-02 1.849943e-02 0.9998 -1.4473 2.5402)" class="st44" cx="136.6" cy="79.5" rx="4.9" ry="9.3"/>
<ellipse class="st45" cx="137" cy="80" rx="2.1" ry="4.6"/>
<path class="st12" d="M118.5,34.3c0,0,5.3,0.5,8,0.6c-1.6,7.5-3.3,13.3,0.6,24c-7.5-0.9-7.6-0.5-7.6-0.5
	C121.2,50.4,120.8,42.1,118.5,34.3z"/>
<polygon class="st46" points="118.5,34.3 126.1,27.4 132,27.9 124.9,34.8 "/>
<line class="st47" x1="188.8" y1="63.5" x2="186.9" y2="65.2"/>
<path class="st41" d="M124.9,34.2l9,5.5c0.3,3.3,0.8,6.6,1.6,9.9c0.4,1.7,1.6,3.1,3.2,3.8c17.7,7.3,24.3,10.7,34,11.9l4.2,9.1
	l10-9.1l0,0l1.9-1.7c0.6-0.8,0.9-1.8,0.9-2.8c0.5-10.5-0.5-21.1-3.1-31.3c-0.6-2.1-2.4-3.7-4.5-3.9c-16.9-2.1-33.2-2.7-43.8-1.8
	c-1.4,0.1-2.7,0.8-3.6,1.8l0,0L124.9,34.2z"/>
<path class="st48" d="M172.4,73.5c-7,0-17.1-1.5-43.6-12.4c-1.1-0.4-1.9-1.4-2.1-2.5c-1.4-6.6-2.1-13.3-2.1-20
	c0-1.9,1.4-3.5,3.3-3.6c3.1-0.2,6.8-0.3,10.8-0.3c10.9,0.1,21.9,0.8,32.7,2.2c1.4,0.2,2.6,1.2,3,2.6c0.2,0.7,0.4,1.5,0.7,2.3
	c1.6,5.5,4.1,13.9,2.4,28.3c-0.1,1.9-1.6,3.4-3.4,3.6L172.4,73.5z"/>
<path class="st49" d="M138.6,36.4c10.9,0.1,21.7,0.8,32.5,2.2c0.7,0.1,1.3,0.6,1.4,1.2c0.2,0.8,0.4,1.5,0.7,2.3
	c1.7,5.7,4,13.5,2.3,27.5c0,1-0.7,1.8-1.7,1.9h-1.5c-6.8,0-16.7-1.5-42.8-12.3c-0.5-0.2-0.9-0.7-1-1.2c-1.3-6.5-2-13.1-2.1-19.7
	c0-0.9,0.7-1.6,1.6-1.7C131.1,36.5,134.7,36.4,138.6,36.4L138.6,36.4 M138.6,32.7c-4,0-7.7,0.1-10.9,0.4c-2.9,0.2-5.1,2.6-5,5.5
	c0,6.9,0.8,13.7,2.2,20.4c0.4,1.7,1.6,3.1,3.2,3.8c25.3,10.5,36.2,12.6,44.2,12.6c0.5,0,1.1,0,1.6,0c2.8-0.2,5-2.4,5.2-5.2
	c2-16.8-1.5-25.5-3.1-31.3c-0.6-2.1-2.4-3.7-4.5-3.9C160.6,33.6,149.6,32.8,138.6,32.7L138.6,32.7z"/>
<path class="st50" d="M145,62.4h-0.6c-3-0.2-5.7-1.6-7.6-3.9c-2-2.4-3-5.6-2.8-8.7c0.4-6.3,5.3-11.3,11.2-11.3c0.2,0,0.4,0,0.6,0
	c3,0.2,5.7,1.6,7.6,3.9c2,2.4,3,5.6,2.8,8.7C155.8,57.4,150.9,62.4,145,62.4L145,62.4z"/>
<path class="st51" d="M145.2,40h0.5c5.3,0.3,9.2,5.2,8.9,11c-0.3,5.5-4.6,9.9-9.6,9.9h-0.5c-2.6-0.2-4.9-1.4-6.5-3.4
	c-1.8-2.1-2.6-4.9-2.4-7.6C135.9,44.3,140.1,40,145.2,40 M145.2,36.9c-6.7,0-12.3,5.6-12.7,12.8c-0.4,7.5,4.8,13.9,11.8,14.3h0.7
	c6.7,0,12.3-5.6,12.7-12.8c0.4-7.5-4.8-13.9-11.8-14.3L145.2,36.9z"/>
<ellipse transform="matrix(6.000330e-02 -0.9982 0.9982 6.000330e-02 81.3785 189.6402)" class="st52" cx="141.4" cy="51.6" rx="4.8" ry="4"/>
<polygon class="st41" points="116.1,60.7 119.6,58.4 120.1,55.3 116.5,55.5 "/>
<path class="st48" d="M81.7,66.1c-3.8,0-7.7-0.3-11.5-0.9L68.5,65c-1.1-0.1-2.2-0.8-2.4-1.8c-2.2-15.3-0.4-25.2,1.5-30.8
	c0.7-2,1.7-3,2.9-3.1c0.9,0,1.9,0,2.8,0c14.4,0,26.4,2.6,34.3,4.4c2,0.4,3.7,0.8,5.1,1.1c1.1,0.2,2,1,2.3,2.1
	c1.5,5.5,1.1,13.5,0.8,18.7l-0.1,1.2c0,0.6-0.2,2.6-2,3.1C101.1,64.2,90.9,66.1,81.7,66.1L81.7,66.1z"/>
<path class="st49" d="M73.4,31.1c14.2,0,26.1,2.6,33.9,4.4c2,0.4,3.7,0.8,5.2,1.1c0.4,0.1,0.7,0.4,0.8,0.8c1.4,5.2,1,13,0.8,18.1
	c0,0.4,0,0.8-0.1,1.2c0,0.6-0.2,1.3-0.7,1.5c-12.6,4.2-22.6,6.1-31.6,6.1c-3.8,0-7.5-0.3-11.2-0.9l-1.7-0.2c-0.3,0-0.6-0.1-0.8-0.3
	c-1.7-11.6-1.1-22.2,1.5-29.8c0.4-1.1,0.9-1.8,1.2-1.8C71.6,31.2,72.5,31.2,73.4,31.1 M73.4,27.5c-0.9,0-1.9,0-2.8,0
	c-2.4,0-3.8,2-4.6,4.3c-2.4,7-3.7,17.6-1.6,31.7c0.3,1.9,2.1,3.1,4,3.4c4.4,0.7,8.9,1.1,13.4,1.2c7.7,0,17.7-1.3,32.8-6.3
	c2-0.8,3.3-2.7,3.2-4.8c0.3-5.4,0.9-14.3-0.8-20.5c-0.5-1.8-1.9-3.1-3.7-3.5C105.6,31.5,91.5,27.5,73.4,27.5L73.4,27.5z"/>
<path class="st50" d="M95.6,60.8c-6.2,0-11.2-5.3-11.4-12s4.7-12.5,11-12.7h0.3c6.2,0,11.2,5.3,11.4,12c0.1,3.2-1,6.4-3.1,8.9
	c-2,2.3-4.9,3.7-7.9,3.8L95.6,60.8z"/>
<path class="st51" d="M95.5,37.8c2.6,0,5,1.1,6.8,3c4,4.2,4.1,10.8,0.4,15.2c-1.7,2-4.2,3.2-6.8,3.3h-0.3c-2.6,0-5-1.1-6.8-3
	c-4-4.3-4.2-10.9-0.4-15.3c1.7-2,4.2-3.2,6.8-3.3L95.5,37.8 M95.5,34.5h-0.4c-7.2,0.2-12.8,6.6-12.6,14.3s6,13.5,13,13.5H96
	c7.2-0.2,12.8-6.6,12.5-14.3C108.3,40.5,102.5,34.5,95.5,34.5L95.5,34.5z"/>
<path class="st52" d="M87.5,48.9c0,2.7,1.8,4.9,4.1,4.8s4.2-2.3,4.2-5c0-3-1.5-4.9-4.2-4.8C89.3,44,87.5,46.2,87.5,48.9z"/>
<path class="st13" d="M206,83.5c0.7,1.8,1.1,5-1.5,10.1c-1.8,2.2-4.2,3.9-6.8,4.8c-2.4,0.9-20.9,7-28.5,9.5l-0.9,4.2l-4.9-2.9l0,0
	c-0.3-0.2-0.6-0.5-0.9-0.8c-0.9-2-1.2-4.2-1-6.3c0.4-1.1,0.4-1,1.9-2l31.1-19.8c0,0,4.9-2.7,8.4-0.9l0.4,0.2l0,0l4.5,2.7L206,83.5z"
	/>
<path class="st14" d="M205.9,81.5c0,0,8.7-10.5,11.4-8.9s4,3.3,3.8,5s-11.4,6.2-12.2,6.5S209,81.7,205.9,81.5z"/>
<path class="st15" d="M206.9,83.1c0,0,8.7-10.5,11.4-8.9s4,3.3,3.8,5s-11.4,6.2-12.2,6.5S210,83.2,206.9,83.1z"/>
<path class="st14" d="M209,86c1.9-0.4,14.5-3.4,15.7-0.5c1,2.7,0.9,4.7-0.5,5.8s-13.8-1.5-14.6-1.7S211.4,87.8,209,86z"/>
<path class="st15" d="M210.2,87.2c0,0,13.8-3.5,14.8-0.8s1.1,5.2-0.4,6.3s-13-1.8-13.9-2S212.7,89,210.2,87.2z"/>
<path class="st14" d="M209.3,91.3c0,0,10.4,0.9,10.6,3.4s-0.3,4.3-1.5,4.9s-8.9-4.7-9.4-5.1S210.6,93.4,209.3,91.3z"/>
<path class="st15" d="M209.3,92.8c0,0,10.4,0.9,10.6,3.4s-0.3,4.2-1.5,4.9s-8.9-4.7-9.4-5.1S210.6,94.9,209.3,92.8z"/>
<path class="st16" d="M168.3,103l31.1-19.8c0,0,8-4.4,10.8,1.8c0.6,1,2.8,4.6-0.8,11.5c-1.8,2.2-4.2,3.9-6.8,4.8
	c-3,1.1-31.7,10.6-31.7,10.6c-1.1,0.8-2.6,0.6-3.3-0.5c0,0-0.1-0.1-0.1-0.1c-0.9-2-1.2-4.2-1-6.3C166.9,103.9,166.8,104,168.3,103z"
	/>
<path class="st14" d="M201.2,80.4c0,0,0.9-12.3,3.6-12.5s4.4,0.4,5.1,1.8s-4.7,10.4-5.1,11c-0.7,0.2-1.4,0.6-2.1,0.9
	C202.7,81.6,202.2,81.2,201.2,80.4z"/>
<path class="st17" d="M202.7,81.6c0,0,0.9-12.3,3.6-12.5s4.4,0.4,5.1,1.8s-4.7,10.4-5.1,11C205.8,81.6,204.9,80,202.7,81.6z"/>
<ellipse class="st18" cx="203.8" cy="91.3" rx="3.4" ry="4"/>
<path class="st53" d="M229.6,125.8L229.6,125.8L229.6,125.8L229.6,125.8z"/>
<path class="st53" d="M229.7,125.7L229.7,125.7L229.7,125.7z"/>
<path class="st54" d="M215.9,131.2c-0.3-0.7-0.9-1.2-1.7-1.3c-0.6,0-1.1,0.4-1.2,0.9c-0.1,1.1,0.4,2.1,1.4,2.5
	c1,0.2,2.1-0.1,2.8-0.9c0.9-0.8,2-1.6,3-2.3c1.9-1.3,3.5-2.9,5.3-4.2c2.2-1.5,4.1-3.3,5.8-5.4c0.3-0.3,0.5-0.6,0.6-1
	c0.5-2.2,0.2-4.5-0.7-6.5c-0.5-0.9-1.3-1.5-2.2-1.8c-0.3-0.1-0.3,0-0.6,0s-0.8,0.2-1.1-0.1s-0.5-0.7-0.9-0.8s-0.4,0.4-0.8,0.5
	c-0.3-0.5-0.7-1-0.9-1.5c-0.4-0.9-1-1.7-1.9-1.8c-1.2,0-1.6,1.9-1.6,3.1c-0.8-0.2-1.6,0-2.2,0.5c-1.5,1.3-0.4,3.4,1.4,4.9
	c0.4,0.4,1,0.4,1.5,0.2c0.4-0.3,0.1-0.9,0.3-1.3c0.2-0.4,0.7-0.7,1.2-0.8c1.6-0.2,3.2,2.2,2.6,3.7c-0.2,0.6-0.7,1.1-1.4,1.2
	c0.4,0.1,0.8,0.4,1.2,0.5c0.1,0,0.2,0.1,0.3,0.1c1.6,1-1,2.3-1.3,2.5c-0.9,0.4-1.8,0.6-2.8,0.6c-1.1-0.1-2.2-0.3-3.3-0.7
	c-0.7-0.2-1.2,0.4-1.6,0.8s-0.5,1.4-0.2,2.2c0.1,0.5,0.4,1,0.5,1.4c0.2,0.8,0.4,1.6,0.5,2.4c0.1,0.4-0.1,0.8-0.4,1.1
	C217.2,130.6,216.4,130.9,215.9,131.2z"/>
<path class="st55" d="M215.2,157.9c0,0,4.8-7.7,5.6-10.7s0.8-11.6,2.7-7.7c1.6-0.5,3.4-2.2,2.4-8.7s5.3-4.4,6.4-5.8s1.5-3.4-0.9-6.4
	s-8.6-3.8-9.1-1.4c-0.8-1.5-1.5-3.4-5.6-2.6c-1.2,1.4-1.7,3.2-1.2,5c0.5,1.7-1.8-1.9-1.8-1.9s-1.7-5.2,2.5-6.8
	c2-0.5,1.3-1.9,4.1,1.7c0.7,0.8,1.5,2.7,3.2-0.6s4.5-7.6,9-3.9c1.6-1.2,5.9-2.9,10.1,2.9c2.2,2.1,3.2,5.2,2.8,8.2
	c-0.1,2.1,1,2.4,1.9-0.8c0.6-1.8,1.4-2.7,2.4-2.1c0.8-0.2,1.6-0.5,2.3-1c0.7-0.3,2.4,1.2,2.4,1.2s1.7,1.4,3-2.2
	c1.1-1.3,2.6-1.1,2.8-1.3s1.8-1.5,2.2-5.5c0.3-1,1.1-0.8,1.1-0.8s-0.4-3.8,1.3-4.4c0.8,0.1,1.5,0.4,2.1,0.9c0,0,0.2-1.8,3,0.5
	c0.5-0.5,2.6,1-1.1,5.8c-1.5,0.9-3,1.6-4.6,2.3c-2,0.8-10.2,11.2-10.5,11.7s1.4,3.1-2.1,6.8s-5,5.9-6.2,6.6s-11.8,14.1-13.4,12.5
	c0.4-1.4,1.7-2.9,2-4.3s-0.9-1.7-3.1,0.9s-4.1,4.8-6.4,3.4C223.1,151,214.1,161.7,215.2,157.9z"/>
<path class="st56" d="M229.3,117.3C229.3,117.3,229.3,117.3,229.3,117.3C229.2,117.3,229.2,117.4,229.3,117.3c-0.1,0.1,0,0.2,0,0.2
	c0.1,0,0.1,0,0.1-0.1c0,0,0,0,0,0c0-0.1,0-0.1-0.1-0.2C229.4,117.3,229.3,117.3,229.3,117.3"/>
<path class="st57" d="M119.6,58.4c1.7-0.1,3.5-0.1,5.2,0.2"/>
<line class="st58" x1="118.5" y1="34.3" x2="124.1" y2="34.8"/>
<line class="st58" x1="126.1" y1="27.4" x2="132" y2="27.9"/>
<ellipse transform="matrix(0.9739 -0.2272 0.2272 0.9739 -19.512 22.5657)" class="st59" cx="88.3" cy="96.1" rx="2.9" ry="1.1"/>
<g>
	<path class="st60" d="M300.4,13.5v173.4c0.1,7.4-5.8,13.5-13.2,13.6H13.8c-7.4-0.1-13.3-6.2-13.2-13.6c0,0,0,0,0,0l0,0V13.5
		C0.5,6.1,6.4,0,13.8-0.1h273.4C294.6,0,300.5,6.1,300.4,13.5z"/>
	<g>
		<g>
			<g>
				<path class="st61" d="M188.8,146.4L188.8,146.4c-0.2,0-0.2,0-0.3-0.1l-7-2.4l7.3,0.9c0.2,0,0.5,0,0.7,0.1l-0.1,1.5L188.8,146.4z
					"/>
				<path class="st3" d="M188.7,145.7c0.2,0,0.5,0,0.7,0.1l-0.6,0C188.8,145.7,188.8,145.7,188.7,145.7 M188.9,144.1l-0.7,3
					c0.1,0,0.2,0.1,0.3,0.1l0.1,0l0.1,0l0.6,0l0.2-3C189.3,144.2,189.1,144.2,188.9,144.1L188.9,144.1z"/>
			</g>
			<g>
				<path class="st62" d="M190.8,146.6c-0.5,0-0.9,0-1.4-0.1l0.1-1.5l1.1,0.1c0,0,0.3,0,0.4,0L190.8,146.6z"/>
				<path class="st3" d="M189.5,145.7l1,0.1c0.1,0,0.2,0,0.3,0C190.3,145.8,189.9,145.8,189.5,145.7 M189.5,144.2l-0.2,3
					c0.5,0,1,0.1,1.5,0.1l0.3-3c-0.1,0-0.2,0-0.3,0l-0.1,0l-0.1,0L189.5,144.2L189.5,144.2z"/>
			</g>
			<g>
				<path class="st3" d="M152.7,171.4l-6.1-0.4c0,0-10.6-0.7-10.6-0.7c-0.1,0-0.4,0-0.4,0l-0.2,0c-0.1,0-0.2,0-0.2,0l-1-0.1
					c-0.3,0-0.6,0-0.8-0.1c-11-1-21.1-6.1-28.4-14.4c-8.2-9.3-12.2-21.6-11.1-34.6l1.3-24.5c1-9.7,1.9-12.2,8.4-12.6l1.6-17.8
					c1.7-19.8,18-35,37.9-35.4c0.2,0,0.5,0,0.8,0l2,0l6.7,0l3.2,0l0.1,0c0.5,0,1,0.1,1.5,0.1c10.3,0.9,19.6,5.8,26.3,13.8
					c6.7,8,9.8,18,8.9,28.3l-1.2,14c0.4,0,0.8,0.1,1.2,0.2c6.1,1.2,10.3,6.9,9.7,13.4l-1.2,23.4c-0.7,8.4-3.5,16.5-8,23.7
					C183.9,162.2,168.5,171.2,152.7,171.4L152.7,171.4L152.7,171.4z M141.7,85.1l23.6,0.8l1-11.6c0.5-6-1.3-11.9-5.2-16.6
					c-3.2-3.8-7.6-6.5-12.4-7.6c-1.3,0.3-2.6,0.7-3.9,1.3c-7.8,3.3-13,10.5-13.8,18.9l-1.3,14.5L141.7,85.1z"/>
				<path class="st3" d="M144,31.7l1.8,0l6.7,0l3.2,0c0.5,0,1,0.1,1.5,0.1c10.4,0.9,19.5,6,25.8,13.5c6.3,7.5,9.7,17.3,8.8,27.8
					L190.5,88c0.6,0,1.2,0.1,1.8,0.2c5.7,1.1,9.7,6.4,9.1,12.6l-1.2,23.4c-0.7,8.5-3.5,16.5-7.9,23.3c-8.7,13.7-23.4,23-39.5,23.1
					h-0.1l-6-0.4l-10.6-0.7c0,0,0,0,0,0c-0.2,0-0.3,0-0.5,0c-0.1,0-0.2,0-0.3,0l-1-0.1c-0.2,0-0.5,0-0.7-0.1
					c-10.9-1-20.7-5.9-27.9-14.1c-8.1-9.2-12-21.3-10.9-34l1.3-24.5c1-10,1.9-11.7,8.3-12l1.6-18.4c1.7-19.5,18-34.3,37.1-34.7
					c0.2,0,0.5,0,0.8,0H144 M166,86.7l1.1-12.3c0.6-6.4-1.6-12.5-5.4-17.2c-3.3-3.9-7.8-6.8-13-7.9c0,0,0,0,0,0
					c-1.4,0.3-2.8,0.8-4.2,1.4c-7.7,3.3-13.4,10.6-14.2,19.5l-1.4,15.3l12.7,0.4l0.3,0L166,86.7 M144,30.2L144,30.2h-0.2
					c-0.3,0-0.6,0-0.8,0c-9.6,0.2-18.9,4-26.1,10.6c-7.2,6.7-11.7,15.7-12.5,25.5L103,83.4c-6.8,0.7-7.5,4.2-8.4,13.2l0,0l0,0
					l-1.3,24.5c-1.1,13.1,2.9,25.6,11.3,35.1c7.4,8.4,17.7,13.6,28.9,14.7c0.2,0,0.5,0,0.7,0.1l1,0.1c0.1,0,0.1,0,0.2,0l0.1,0l0.1,0
					l0.1,0c0.1,0,0.1,0,0.2,0c0.1,0,0.2,0,0.3,0l10.5,0.7l6,0.4l0,0h0h0.1c16-0.2,31.6-9.3,40.8-23.8c4.6-7.2,7.4-15.5,8.1-24
					l1.2-23.5c0.6-6.8-3.9-12.9-10.4-14.1c-0.2,0-0.3-0.1-0.5-0.1l1.2-13.3c0.9-10.5-2.3-20.8-9.1-28.9
					c-6.8-8.1-16.3-13.1-26.8-14.1c-0.5,0-1-0.1-1.5-0.1l-0.1,0l0,0l0,0l-3.2,0l-6.7,0L144,30.2L144,30.2L144,30.2z M130.6,84
					l1.2-13.7c0.7-8.1,5.8-15.1,13.3-18.3c1.2-0.5,2.4-0.9,3.6-1.2c4.6,1.1,8.8,3.7,11.8,7.3c3.8,4.5,5.6,10.2,5.1,16l-1,10.9
					l-22.5-0.7l-0.3,0L130.6,84L130.6,84z"/>
			</g>
		</g>
		<path class="st61" d="M152.7,170.6h-0.6c-0.4,0-0.8,0-1.2,0c-1.4,0-2.8-0.2-4.2-0.3L152.7,170.6z"/>
		<path class="st63" d="M155.7,31.7l-3.2,0C153.6,31.7,154.7,31.7,155.7,31.7z"/>
		<path class="st63" d="M191.8,73.1l-1.3,14.8l-0.9,10.4l-2.7-0.2l-7.2-0.6l-4.6-0.4l0.9-9.6l0-0.5l1.1-12.7
			c0.6-6.4-1.6-12.5-5.4-17.2c-3.9-4.6-9.5-7.8-15.9-8.3c-2.4-0.2-4.8,0-7.1,0.5c0,0,0,0,0,0c-1.4,0.3-2.8,0.8-4.2,1.4
			c-7.7,3.3-13.4,10.6-14.2,19.5l-1.4,15.3l0,0.5l-0.6,7l-9.9-0.9l-4.5-0.4l0.1-1.3l0.5-5.4l1.6-18.5c1.4-16.2,13-29.2,27.9-33.3
			l-0.8-1.4l0,0h0.9l1.8,0l6.7,0l3.2,0c0.5,0,1,0.1,1.5,0.1c10.4,0.9,19.5,6,25.8,13.5C189.3,52.8,192.7,62.7,191.8,73.1z"/>
		<path class="st61" d="M201.5,100.7l-1.2,23.4c-2.1,25.5-23.3,46.2-47.4,46.4h-0.1l-6-0.4l-10.6-0.7c0,0,0,0,0,0
			c-0.3,0-0.5,0-0.8,0l-1.6-0.1c-0.1,0-0.1,0-0.2,0l1.6-2.3c-5.6-2.4-10.6-6.1-14.8-10.8c-8.1-9.2-12-21.3-10.9-34l1.3-24.5
			c0.2-1.9,0.7-3.8,1.6-5.4c0.4-0.7,0.9-1.4,1.4-2c1.3-1.6,3-2.9,4.9-3.7c1.6-0.7,3.3-1,5.1-0.9l5,0.2l13.1,0.4l24,0.8l10,0.3
			l4.6,0.1l1.5,0.1c0,0,0,0,0,0l8.5,0.3C197.1,88.1,202,93.9,201.5,100.7z"/>
		<path class="st64" d="M181.8,73.1l-1.3,14.3l0,0.2l-0.9,9.9l-0.1,0.9L165.1,97l0.9-9.9l0-0.5l1.1-12.3c0.6-6.4-1.6-12.5-5.4-17.2
			c-3.3-3.9-7.8-6.8-13-7.9c0,0,0,0,0,0c-0.9-0.2-1.9-0.4-2.9-0.5c-0.4,0-0.8-0.1-1.1-0.1c-12.4-0.5-23.3,8.9-24.4,21.4l-1.3,14.9
			l-0.1,1.6l-0.5,5.3l-0.1,0.9l-5.8-0.5l-8.7-0.8l0.6-6.8l1.6-18.4c1.7-19.5,18-34.3,37.1-34.7c0.2,0,0.5,0,0.8,0h0.2
			c0.6,0,1.2,0,1.8,0c0.5,0,1,0.1,1.4,0.1c10.4,0.9,19.5,6,25.8,13.5C179.3,52.8,182.7,62.7,181.8,73.1z"/>
		<path class="st62" d="M186.9,98.1c0,0.5-0.1,1.1-0.2,1.7l-1.2,23.4c-2.2,25.7-23.7,46.6-48.1,46.4c-0.3,0-0.7,0-1,0h-0.2
			c0,0,0,0,0,0c-0.9,0-1.7-0.1-2.6-0.2c-10.9-1-20.7-5.9-27.9-14.1c-8.1-9.2-12-21.3-10.9-34l1.3-24.5c1-10,1.9-11.7,8.3-12
			c1.3-0.1,2.9-0.1,4.7-0.1l5.3,0.2l4.6,0.2l10,0.3l12.7,0.4l0.3,0l24,0.8l9.7,0.3c0.1,0,0.2,0,0.2,0c1.8,0.2,3.3,0.3,4.6,0.5
			c0.5,0.1,1,0.2,1.5,0.2c0,0,0,0,0,0C186.4,88.6,187.6,90.7,186.9,98.1z"/>
		<path class="st65" d="M186.9,98.1c0,0.5-0.1,1.1-0.2,1.7l-1.2,23.4c-2.2,25.7-23.7,46.6-48.1,46.4c-0.3,0-0.7,0-1,0l5.3-83.8
			l0.3,0l24,0.8l9.7,0.3c0.1,0,0.2,0,0.2,0c1.8,0.2,3.3,0.3,4.6,0.5c0.5,0.1,1,0.2,1.5,0.2c0,0,0,0,0,0
			C186.4,88.6,187.6,90.7,186.9,98.1z"/>
		<path class="st66" d="M151,116.2c-0.3,4-2.7,7.4-6,9.1l-0.7,10.2c-0.2,3.2-3,5.6-6.2,5.4c-3.2-0.2-5.6-3-5.4-6.2l0.7-10.3
			c-3-2.2-4.8-5.8-4.6-9.8c0.4-6.1,5.7-10.7,11.8-10.3C146.8,104.7,151.4,110,151,116.2z"/>
		<path class="st66" d="M151,116.2c-0.3,4-2.7,7.4-6,9.1l-0.7,10.2c-0.2,2.2-1.6,4.1-3.5,4.9c-2.2-0.9-3.6-3.2-3.5-5.7l0.7-10.3
			c-3-2.2-4.8-5.8-4.6-9.7c0.3-5,4-9.1,8.7-10.1C147.5,105.6,151.4,110.6,151,116.2z"/>
		<path class="st67" d="M151,116.2c-0.3,4-2.7,7.4-6,9.1l-0.7,10.2c-0.2,2.2-1.6,4.1-3.5,4.9c-2.2-0.9-3.6-3.2-3.5-5.7l0.7-10.3
			c-3-2.2-4.8-5.8-4.6-9.7c0.3-5,4-9.1,8.7-10.1C147.5,105.6,151.4,110.6,151,116.2z"/>
		<circle class="st68" cx="108.5" cy="149.1" r="2.2"/>
		<path class="st68" d="M114.2,152.5c2.6,3.5,6.5,6,10.8,7c1.2,0.3,2.2,1.4,2.1,2.6c0,0,0,0,0,0c-0.1,1.2-1.5,2.1-3.1,1.8
			c-5.4-1.2-10.1-4.2-13.4-8.7c-1-1.3-0.7-3,0.4-3.6c0,0,0,0,0,0C112.1,151,113.5,151.5,114.2,152.5z"/>
	</g>
</g>
</svg>
