<?xml version="1.0" encoding="utf-8"?>
<!-- Generator: Adobe Illustrator 23.0.2, SVG Export Plug-In . SVG Version: 6.00 Build 0)  -->
<svg version="1.1" id="Layer_1" xmlns="http://www.w3.org/2000/svg" xmlns:xlink="http://www.w3.org/1999/xlink" x="0px" y="0px"
	 viewBox="0 0 300 199.7" style="enable-background:new 0 0 300 199.7;" xml:space="preserve">
<style type="text/css">
	.st0{fill:#757575;}
	.st1{fill:#00B1FF;}
	.st2{fill:#15BDF9;}
	.st3{fill:#FFFFFF;}
	.st4{fill:#626C72;}
	.st5{fill:#96A5B3;}
	.st6{fill:#2F3E4A;}
	.st7{fill:#222D35;}
	.st8{opacity:0.36;fill:#FFFFFF;enable-background:new    ;}
	.st9{fill:#353535;stroke:#000000;stroke-width:0.24;stroke-linejoin:round;}
	.st10{fill:#4D4D4D;}
	.st11{fill:#B3B3B3;}
	.st12{fill:#D3161D;}
	.st13{fill:#ADADAD;stroke:#080000;stroke-width:0.33;stroke-miterlimit:10;}
	.st14{fill:none;stroke:#070707;stroke-width:0.5;stroke-miterlimit:10;}
	.st15{fill:#77401B;stroke:#070707;stroke-width:0.33;stroke-miterlimit:10;}
	.st16{fill:#F8C946;stroke:#020202;stroke-width:0.33;stroke-miterlimit:10;}
	.st17{fill:#282828;stroke:#151616;stroke-width:0.27;stroke-miterlimit:10;}
	.st18{fill:#4D4D4D;stroke:#151616;stroke-width:0.27;stroke-miterlimit:10;}
	.st19{fill:#4D4D4D;stroke:#151616;stroke-width:0.99;stroke-miterlimit:10;}
	.st20{fill:#F8C946;}
	.st21{fill:#683919;}
	.st22{fill:#945320;}
	.st23{fill:#515051;stroke:#000000;stroke-width:0.33;stroke-linejoin:round;}
	.st24{fill:#161616;stroke:#0A0A0A;stroke-width:0.29;stroke-miterlimit:10;}
	.st25{fill:#8E8A8B;stroke:#000000;stroke-width:0.29;stroke-linejoin:round;}
	.st26{fill:#E2B647;stroke:#070707;stroke-width:0.29;stroke-miterlimit:10;}
	.st27{fill:#161616;}
	.st28{fill:#945320;stroke:#070707;stroke-width:0.29;stroke-miterlimit:10;}
	.st29{fill:none;stroke:#0A0A0A;stroke-width:0.29;stroke-miterlimit:10;}
	.st30{fill:#DDDBD7;}
	.st31{fill:#232323;}
	.st32{fill:#3A3A3A;}
	.st33{fill:none;stroke:#000000;stroke-width:0.29;stroke-miterlimit:10;}
	.st34{fill:#282828;}
	.st35{fill:#7C7C7C;}
	.st36{fill:#666666;}
	.st37{fill:none;stroke:#070707;stroke-width:0.33;stroke-miterlimit:10;}
	.st38{fill:#7F1119;}
	.st39{fill:#5E0E18;}
	.st40{fill:#352F49;}
	.st41{fill:#E41E00;}
	.st42{fill:#FFFE28;}
	.st43{fill:#18FF08;}
	.st44{fill:#DBDDDD;}
	.st45{fill:#0FB0DB;}
	.st46{fill:#303435;}
	.st47{fill:url(#SVGID_1_);stroke:#0A0A0A;stroke-width:0.13;stroke-miterlimit:10;}
	.st48{fill:none;stroke:#0A0A0A;stroke-width:0.13;stroke-miterlimit:10;}
	.st49{fill:url(#SVGID_2_);stroke:#0A0A0A;stroke-width:0.13;stroke-miterlimit:10;}
	.st50{fill:url(#SVGID_3_);stroke:#0A0A0A;stroke-width:0.13;stroke-miterlimit:10;}
	.st51{fill:url(#SVGID_4_);stroke:#0A0A0A;stroke-width:0.13;stroke-miterlimit:10;}
	.st52{fill:none;stroke:#070707;stroke-width:0.17;stroke-miterlimit:10;}
	.st53{fill:#F8C946;stroke:#000000;stroke-width:0.17;stroke-miterlimit:10;}
	.st54{fill:#389CCE;}
	.st55{fill:none;stroke:#0A0A0A;stroke-width:0.17;stroke-miterlimit:10;}
	.st56{opacity:0.33;fill:#E41E00;enable-background:new    ;}
	.st57{opacity:0.38;fill:#F8C946;enable-background:new    ;}
	.st58{opacity:0.23;fill:#17FF1B;enable-background:new    ;}
	.st59{opacity:0.75;enable-background:new    ;}
	.st60{fill:#E78D00;}
	.st61{fill:#FACB03;}
	.st62{fill:#CCCCCC;}
	.st63{fill:#FEFEFE;}
	.st64{fill:#F7B808;}
	.st65{fill:#703500;}
	.st66{fill:#220B00;}
	.st67{opacity:0.8;fill:#FFFFFF;enable-background:new    ;}
</style>
<title>guide_lighting_lock</title>
<path class="st0" d="M300.2,18.6v168c0,7.3-5.9,13.2-13.2,13.2H13.6c-7.3,0-13.2-5.9-13.2-13.2l0,0v-168c0-2.6,0.7-5,2-7
	c1.5-2.4,3.8-4.3,6.5-5.3c1.5-0.6,3-0.9,4.7-0.9H287c1.7,0,3.3,0.3,4.8,0.9c2.7,1,4.9,2.9,6.4,5.3c1,1.5,1.6,3.2,1.9,5.1
	C300.2,17.3,300.2,18,300.2,18.6z"/>
<path class="st1" d="M300.1,13.6v168c0,7.1-5.6,12.8-12.5,13.2c-0.2,0-0.4,0-0.5,0H13.6c-0.2,0-0.5,0-0.7,0
	c-6.4-0.2-11.6-5-12.5-11.2c-0.1-0.6-0.2-1.3-0.2-1.9v-168c0-7.1,5.6-12.9,12.7-13.2c0.2,0,0.4,0,0.7,0H287c0.2,0,0.3,0,0.5,0
	c2.9,0.1,5.5,1.2,7.6,2.9c0.2,0.2,0.4,0.3,0.6,0.5c2.2,2,3.7,4.7,4.2,7.8C300,12.3,300.1,12.9,300.1,13.6z"/>
<path class="st2" d="M300.1,11.6H0.5c1-6.4,6.6-11.1,13-11.1H287c3,0,5.9,1,8.1,2.8c0.2,0.2,0.4,0.3,0.6,0.5
	c2.1,1.8,3.6,4.3,4.2,7.2c0,0.1,0,0.1,0,0.2C300,11.3,300,11.5,300.1,11.6z"/>
<path class="st3" d="M300,11.6c0-0.1,0-0.2-0.1-0.4c0-0.1,0-0.1,0-0.2c-1.2-5.9-6.2-10.4-12.4-10.6c-0.2,0-0.4,0-0.5,0H13.6
	c-0.2,0-0.5,0-0.7,0C6.6,0.7,1.5,5.4,0.5,11.5c0,0,0,0,0,0.1l0,0c-0.1,0.7-0.2,1.3-0.2,2v168c0,7.1,5.6,12.8,12.5,13.2
	c0.2,0,0.4,0,0.7,0H287c0.2,0,0.3,0,0.5,0c7-0.3,12.7-6.1,12.7-13.2v-168C300.2,12.9,300.2,12.3,300,11.6z M287,190.3H13.6
	c-4.8,0-8.7-3.9-8.7-8.7v-168c0-0.7,0.1-1.3,0.2-2C5.6,9.4,7,7.5,8.9,6.3c1.4-0.9,3-1.4,4.7-1.4H287c1.8,0,3.4,0.5,4.8,1.4
	c1.8,1.2,3.2,3.1,3.7,5.3c0.2,0.6,0.2,1.3,0.2,2v168C295.7,186.4,291.8,190.3,287,190.3z"/>
<circle class="st4" cx="285.1" cy="15.4" r="6.2"/>
<circle class="st5" cx="285.1" cy="15.4" r="5.5"/>
<polygon class="st6" points="288.7,13.8 288.3,17.6 284.7,19.2 281.6,17 282,13.1 285.5,11.5 "/>
<path class="st7" d="M288.7,13.8l-0.2,1.7c-0.8-1-1.9-1.7-3.2-1.9c-1.3-0.1-2.6,0.3-3.5,1.2l0.2-1.7l3.5-1.6L288.7,13.8z"/>
<circle class="st4" cx="15.5" cy="15.4" r="6.2"/>
<circle class="st5" cx="15.5" cy="15.4" r="5.6"/>
<polygon class="st6" points="18.8,13.4 18.8,17.3 15.5,19.2 12.1,17.3 12.1,13.4 15.5,11.5 "/>
<path class="st7" d="M18.8,13.4v1.8c-0.9-0.9-2.1-1.5-3.4-1.5s-2.5,0.6-3.4,1.5v-1.8l3.4-1.9L18.8,13.4z"/>
<circle class="st4" cx="15.5" cy="178.9" r="6.2"/>
<circle class="st5" cx="15.7" cy="178.9" r="5.6"/>
<polygon class="st6" points="19.3,178.6 17.6,182.1 13.8,182.4 11.6,179.2 13.3,175.7 17.1,175.4 "/>
<path class="st7" d="M19.3,178.6l-0.8,1.6c-0.4-1.2-1.2-2.3-2.4-2.9c-1.2-0.6-2.5-0.6-3.7-0.1l0.8-1.6l3.9-0.3L19.3,178.6z"/>
<circle class="st4" cx="284.3" cy="178.9" r="6.2"/>
<circle class="st5" cx="284.3" cy="178.9" r="5.5"/>
<polygon class="st6" points="287.2,176.3 288,180.1 285.1,182.7 281.4,181.5 280.6,177.7 283.5,175.1 "/>
<path class="st7" d="M287.1,176.3l0.4,1.7c-1-0.7-2.4-1-3.6-0.8c-1.3,0.3-2.4,1.1-3,2.2l-0.4-1.7l2.9-2.6L287.1,176.3z"/>
<ellipse transform="matrix(0.1947 -0.9809 0.9809 0.1947 -20.4573 240.595)" class="st8" cx="136.3" cy="132.8" rx="54.9" ry="87.6"/>
<path class="st9" d="M218.8,158c-0.1-1.2-0.3-2.3-0.7-3.4c-1.3-4.6-5.5-18.8-9.3-27.2c-2.2-5-3.6-8.4-4.8-11c-1.3-3-3.4-5.6-5.9-7.6
	c-1.9-1.7-4.1-3.1-6.5-4.1c-3.8-1.6-8-1.6-12.1-1.1c-10.2,1.3-15.7,1.4-17.7,2c-2,1.3-10.5,10.1-11.2,17.6
	c-0.5,5.4-0.1,12.8,3.6,18.6s18.7,33.8,25.4,34.5c7.8,0.8,27.9-0.1,33.8-4.3C218.9,168.2,219.4,163.4,218.8,158z"/>
<path class="st10" d="M183.4,175.5c-3.8,0-8-1.3-11.7-2.5l-1.4-0.4c-2.7-0.9-9.9-5.8-18.3-12.5c-8.2-6.6-14.8-12.8-16.4-15.4
	c-3.6-5.7-3.9-12.9-3.4-17.9c0.4-4.4,3.8-8.8,10.1-12.9l0.2-0.2l0.5-0.3c4.2-3,8.9-5.1,13.9-6.1c1.3-0.3,2.7-0.4,4.1-0.4
	c2.5,0,5,0.5,7.3,1.4c2.3,1,4.4,2.3,6.2,3.9c2.4,2,4.3,4.4,5.6,7.2c0.5,1.1,1.1,2.5,1.7,4c0.8,1.9,1.8,4.2,3,7
	c3.8,8.5,8,22.9,9.3,27.1c0.3,1.1,0.5,2.1,0.7,3.2c0.6,5.3,0,9.5-4.8,12.9C188,174.9,185.7,175.6,183.4,175.5L183.4,175.5z"/>
<path d="M195.9,160.6c-0.1-1.1-0.4-2.3-0.7-3.4c-0.5-1.8-1.4-4.9-2.6-8.5c0-0.1,0-0.2-0.1-0.2c0,0,0,0,0-0.1
	c-0.1-0.2-0.1-0.5-0.2-0.7c-0.1-0.3-0.2-0.6-0.3-1l0,0c-0.1-0.2-0.1-0.4-0.2-0.7c-1.5-4.5-3.2-9.6-4.9-13.8c-0.3-0.8-0.7-1.6-1-2.4
	c-0.3-0.7-0.6-1.3-0.9-1.9c-0.2-0.6-0.5-1.1-0.7-1.6c-0.1-0.3-0.2-0.5-0.3-0.8l0,0c-0.1-0.3-0.2-0.5-0.3-0.8c-1-2.4-1.8-4.3-2.5-5.9
	c-1.2-2.7-3-5.1-5.2-7.1c-0.2-0.2-0.4-0.4-0.6-0.5c-0.7-0.6-1.4-1.2-2.2-1.7c-0.6-0.4-1.1-0.8-1.7-1.1c-0.3-0.2-0.5-0.3-0.8-0.5
	c-0.6-0.3-1.2-0.6-1.8-0.8c-1.4-0.6-2.9-1-4.4-1.2c-0.9-0.1-1.8-0.2-2.6-0.3c-0.2,0-0.5,0-0.8,0c-1.5,0-2.9,0.1-4.3,0.4
	c-0.8,0.2-1.5,0.3-2.3,0.6c-0.7,0.2-1.4,0.4-2.1,0.7c-0.8,0.3-1.6,0.6-2.4,0.9c-0.6,0.2-1.2,0.5-1.7,0.8c-0.2,0.1-0.5,0.2-0.7,0.3
	c-1,0.5-2.1,1.1-3,1.7l0,0c-0.6,0.4-1.2,0.8-1.8,1.2c-0.3,0.2-0.5,0.4-0.8,0.5c-0.4,0.2-0.9,0.6-1.6,1.1l0,0
	c-0.4,0.3-0.8,0.6-1.2,0.9c-1.7,1.3-3.8,3.1-5.4,5.4c-0.8,1.1-1.5,2.3-1.9,3.6c-0.4,0.9-0.6,1.9-0.7,3c-0.1,1.2-0.2,2.5-0.2,3.9
	c0,2.4,0.2,4.9,0.8,7.4s1.5,5,3,7.3c0.5,0.7,1.3,1.7,2.3,2.8c0.4,0.4,0.7,0.8,1.1,1.2c1.7,1.8,4,3.8,6.4,6c0.1,0,0.1,0.1,0.2,0.2
	c3.7,3.2,7.8,6.6,11.8,9.6c2.1,1.6,4.1,3,5.9,4.3l0,0c0.3,0.2,0.5,0.4,0.8,0.5c0.3,0.2,0.5,0.4,0.8,0.5c2.5,1.7,4.6,2.9,6,3.3
	c4.1,1.3,8.9,3,13.4,3c0.8,0,1.7,0,2.5-0.2c1.7-0.3,3.3-0.9,4.7-1.9c1.2-0.9,2.2-1.8,3-2.8C196.1,168.5,196.3,164.7,195.9,160.6z
	 M183.4,174.4c-2.8,0-5.8-0.7-8.6-1.6c-0.9-0.3-1.8-0.6-2.7-0.8l-1.4-0.4c-0.8-0.3-2.2-1-3.9-2c-0.3-0.2-0.5-0.3-0.8-0.5
	s-0.5-0.3-0.8-0.5l0,0c-1.9-1.2-4.1-2.8-6.5-4.6c-1.9-1.4-3.9-3-5.9-4.6c-1.6-1.3-3.1-2.5-4.5-3.7c-0.1-0.1-0.2-0.1-0.2-0.2
	c-5.1-4.3-9.1-8.2-10.8-10.3c-0.2-0.3-0.4-0.6-0.6-0.8c-0.2-0.3-0.4-0.7-0.6-1l0,0c-0.5-0.9-0.9-1.9-1.3-3.1
	c-0.2-0.7-0.4-1.4-0.6-2.2l0,0c-0.7-2.8-1-6.4-0.7-10.9c0.1-1.5,0.7-3.1,1.7-4.7c0.6-1,1.4-2,2.3-3c0.5-0.5,1-1,1.5-1.4
	c0.4-0.3,0.8-0.7,1.2-1l0,0c0.7-0.6,1.5-1.2,2.3-1.7c0.1-0.1,0.3-0.2,0.5-0.3l0.2-0.2l0.5-0.3c1.7-1.2,3.5-2.3,5.4-3.2
	c0.1,0,0.2-0.1,0.3-0.1h0.1c1.3-0.6,2.5-1.1,3.9-1.5c1.3-0.4,2.5-0.8,3.8-1.1h0.1c0.7-0.1,1.4-0.2,2-0.3c0.6,0,1.2-0.1,1.7-0.1l0,0
	c0.3,0,0.7,0,1.1,0c1,0.1,2.1,0.2,3.1,0.4c0.9,0.2,1.9,0.5,2.8,0.9c0.2,0.1,0.4,0.2,0.6,0.3c0.1,0,0.2,0.1,0.2,0.1
	c1.4,0.7,2.8,1.5,4,2.5c0.4,0.3,0.7,0.6,1.1,0.9c0.1,0.1,0.2,0.2,0.4,0.3c0.4,0.3,0.8,0.7,1.1,1c0.1,0,0.1,0.1,0.2,0.2
	c0.2,0.2,0.4,0.5,0.6,0.7c1.2,1.4,2.2,2.9,3,4.6c0.5,1.1,1.1,2.5,1.7,4c0.1,0.3,0.3,0.6,0.4,1c0.6,1.4,1.3,3,2.1,4.9
	c0.1,0.2,0.2,0.4,0.3,0.6c0,0,0,0.1,0.1,0.1c0.1,0.1,0.1,0.3,0.2,0.4c0.3,0.6,0.6,1.3,0.9,2c1.4,3.3,2.8,7.2,4,10.9
	c0,0.2,0.1,0.3,0.2,0.5c0.1,0.3,0.2,0.5,0.2,0.8c0.1,0.3,0.2,0.5,0.2,0.8l0,0c0.1,0.3,0.2,0.5,0.2,0.8c0.1,0.3,0.2,0.5,0.2,0.8
	c0.2,0.6,0.4,1.2,0.6,1.8c0.1,0.3,0.2,0.6,0.3,0.9c0,0.1,0.1,0.2,0.1,0.3v0.1c0,0.2,0.1,0.3,0.2,0.5c0.9,3,1.6,5.4,2,6.8
	c0.3,1,0.5,2,0.6,3c0.4,3.5,0.2,6.6-1.6,9.2c-0.7,1-1.6,1.9-2.8,2.7C187.6,173.9,185.5,174.5,183.4,174.4z"/>
<ellipse transform="matrix(1.999600e-02 -0.9998 0.9998 1.999600e-02 15.1337 278.6978)" class="st11" cx="149.7" cy="131.6" rx="15.1" ry="12.1"/>
<ellipse transform="matrix(1.999600e-02 -0.9998 0.9998 1.999600e-02 8.1282 314.9999)" class="st11" cx="164.7" cy="153.4" rx="10.8" ry="8.6"/>
<ellipse transform="matrix(1.867441e-02 -0.9998 0.9998 1.867441e-02 16.1376 340.4061)" class="st11" cx="181.5" cy="162" rx="8.5" ry="6.8"/>
<ellipse transform="matrix(1.867441e-02 -0.9998 0.9998 1.867441e-02 14.4776 277.7071)" class="st12" cx="148.7" cy="131.5" rx="5.6" ry="4.1"/>
<ellipse transform="matrix(0.2589 -0.9659 0.9659 0.2589 -25.6704 272.5943)" class="st12" cx="164.8" cy="153" rx="4.9" ry="3.6"/>
<ellipse transform="matrix(0.2593 -0.9658 0.9658 0.2593 -22.5611 295.7029)" class="st12" cx="181.5" cy="162.6" rx="3.6" ry="2.6"/>
<path class="st13" d="M186.4,150.7c0,0-1.8-3.9-7.7-2.2c-1-2.5-3-9.4-13.4-8.9c0.6-2.3,5-12.2-2.4-22.3c3.1-1.3,5-2.1,8.8,2.8
	S186.9,149.5,186.4,150.7z"/>
<line class="st14" x1="204" y1="116.3" x2="180.6" y2="117.8"/>
<line class="st14" x1="190.9" y1="104.4" x2="164.8" y2="106"/>
<polyline class="st14" points="161.1,106.2 154.2,106.7 154.2,106.7 "/>
<line class="st14" x1="210.3" y1="130.9" x2="186.9" y2="132.3"/>
<line class="st14" x1="215.3" y1="145.3" x2="192" y2="146.8"/>
<line class="st14" x1="219" y1="160.2" x2="196" y2="161.7"/>
<path class="st15" d="M226.9,102.3l-34.6-5.7c-5.9-1.2-10.2-0.9-11.6,4.6l0,0c-0.9,5.6,1.9,6.7,7.2,8.7l35.1,13.5
	c5.6,1.5,11.3-1.8,12.8-7.4l0,0C237.2,110.3,232.5,103.8,226.9,102.3z"/>
<path class="st16" d="M224.3,101.8l-36-6.5c-5.9-1.2-9.7,11.4-4.5,13.3l35.1,13.4c5.6,1.5,11.3-1.8,12.8-7.4l0,0
	C233.2,109,229.9,103.3,224.3,101.8z"/>
<path class="st17" d="M233.3,110.5c0,0,0.3-1.8-1.9-4.3c4-2.1,14.3-5.8,15.7-4.8c1,0.7,1.9,2.6,2.7,4.4c0.6,1.3,0.1,2.9-1.2,3.5
	c-0.2,0.1-0.5,0.2-0.8,0.2c-5.3,0.7-13.6,1.6-13.6,1.6L233.3,110.5z"/>
<path class="st18" d="M231.4,106.1c4-2.1,13.6-6.8,15-5.8c1.3,1.2,2.3,2.6,3,4.2c0.7,1.3,0.2,2.8-1.1,3.5c-0.3,0.1-0.6,0.2-0.9,0.3
	c-5.3,0.7-13.8,2.5-14.2,2.3C233.4,108.9,232.7,107.2,231.4,106.1z"/>
<path class="st17" d="M232.4,117.4c0,0,1.3-1.2,1.1-4.5c4.5,0.7,14.9,4.1,15.4,5.7c0.4,1.1-0.1,3.2-0.5,5.2c-0.3,1.4-1.6,2.4-3,2.1
	c-0.3,0-0.5-0.1-0.8-0.3c-4.7-2.7-11.7-7-11.7-7L232.4,117.4z"/>
<path class="st18" d="M233.5,112.8c4.5,0.7,14.9,2.8,15.5,4.4c0.3,1.7,0.2,3.4-0.2,5.1c-0.2,1.4-1.5,2.4-2.9,2.1
	c-0.3,0-0.6-0.2-0.9-0.3c-4.7-2.7-12.5-6.3-12.7-6.8C233.3,116.2,233.8,114.5,233.5,112.8z"/>
<path class="st17" d="M226.2,122.1c0,0,1.8-0.1,3.8-2.7c2.9,3.5,7.8,9.2,7.1,10.8c-0.5,1.1-0.5,1.2-2.1,2.4
	c-1.2,0.9-2.9,0.6-3.8-0.6c-0.1-0.2-0.2-0.4-0.3-0.6c-1.4-2.9-3.2-5.6-5.2-8.2L226.2,122.1z"/>
<path class="st18" d="M230.1,119.4c2.9,3.5,8.7,8.3,8,9.9c-0.3,1.1-1,2-1.9,2.6c-1.4,1.1-3.2,0.4-4.1-1.2c-2.4-4.8-6.2-8.2-6-8.7
	C227.8,121.8,229.2,120.9,230.1,119.4z"/>
<path class="st17" d="M228.2,102.6l2.2,2.6c0,0,1.1,0.2,1.4,0.2c1.4,0.1,9.1-7.8,7.4-9.3s-4.2-3-4.9-2.7c-0.1,0-1.1,0.2-1.1,0.2
	S227.5,102.6,228.2,102.6z"/>
<path class="st18" d="M226.8,102.4c0.7,0.3,1.4,0.6,2.1,1.1c0.6,0.5,1.1,1,1.5,1.6c0.9,1,9.1-7.8,7.4-9.3s-4.2-2.6-4.9-2.3
	S226.1,102.4,226.8,102.4z"/>
<ellipse transform="matrix(0.7597 -0.6502 0.6502 0.7597 -19.3836 170.7749)" class="st19" cx="221.4" cy="111.6" rx="4.1" ry="3.7"/>
<path class="st20" d="M198,95c0,0-28.4-14.8-41.4-17.6c0,0-34.9-3.1-65-2.1c3.5,2.8,33.5,16.4,37.8,17.4S186.3,96.3,198,95z"/>
<path class="st21" d="M139,89.8c0,0-11.5-7.3-12.7-7.8s22.6-0.4,22.6-0.4s11.2,6.9,11.9,7.6S139,89.8,139,89.8z"/>
<path class="st22" d="M91.2,75.2c0,0-4.5,49.7-1.2,62.4c3.6,3.3,28.9,15.8,37.1,16c1.1-5.7,4.1-56.8,1.9-61
	C126,90.2,103.6,79.2,91.2,75.2z"/>
<path class="st12" d="M198,95c0,0,0.1,25.5-1.5,44.1c-0.6,7.2-7.8,13.9-8.9,14.2c-2.7,2.3-64.4,2.8-67.9,0.2c4.4-3.7,7.1-9.2,7.2-15
	c0.3-12.4,1.7-30.9,2.2-45.9C131.3,91.6,187.2,93,198,95z"/>
<path class="st23" d="M138.6,64.2l-1,18.8l16.4,1c2.7,0.1,5.2-3.9,5.5-9.1s-1.7-9.5-4.5-9.6c-1,0-1.9,0.4-2.6,1.2L138.6,64.2z"/>
<path class="st24" d="M211.5,64.8c0,0-6.4,4-17.3,4.8c-4.8,0.3-11-0.5-17-1.6c-19.5-3.6-27.7-14.2-27.7-14.2s2-13.5,2.5-18
	s7.1-12.8,7.1-12.8L211.5,64.8z"/>
<path class="st24" d="M86.2,58.9c0,0,3.4,6.9,16,7s31.1-3.8,31.1-3.8l12.2-14.6L86.2,58.9z"/>
<path class="st12" d="M157,25.6l-6.6-0.4l-0.9,21l6.2,0.3C155.7,46.5,155.7,32.7,157,25.6z"/>
<polygon class="st25" points="155.7,46.5 151.3,51.9 146.9,51.7 149.5,46.2 "/>
<polygon class="st26" points="160.6,46.8 143.5,45.9 143,76.1 159.2,76.6 "/>
<path class="st27" d="M155.7,46.3L156,50c0,0.2,0.1,0.3,0.2,0.4l4.2,3.5c0.3,0.2,0.7,0.2,0.9-0.1c0.1-0.1,0.1-0.2,0.1-0.3l0.2-1
	c0-0.2,0-0.4-0.1-0.5l-4.7-6.1c-0.2-0.2-0.6-0.2-0.9,0l0,0C155.8,46,155.7,46.2,155.7,46.3z"/>
<polygon class="st28" points="133.3,62.1 134.6,69 143,76.1 143.5,45.9 "/>
<path class="st24" d="M149.2,46.7c0,0-0.5,3.5-1.2,4c-3.8,1.7-7.7,3.1-11.6,4.2c-1.1,0.1-0.8-2.5-0.8-2.5L149.2,46.7z"/>
<path class="st29" d="M149.2,46.7c0,0-0.6,4.2-1.5,4.1c-1.2,0.5-9.7,3.7-9.7,3.7"/>
<path class="st30" d="M94.1,59.7c-1.6,0-3.2-0.1-4.8-0.4c-0.9-0.2-1.7-1-1.8-1.9c-0.7-6-2-21.2,2-33c0.3-0.8,1-1.4,1.8-1.5
	c10.5-1.4,21.1-2.1,31.7-2.1c7.9,0,15.9,0.4,23.7,1.4c1.1,0.1,1.9,1,2,2.1c0.5,7.5-0.1,19.3-1.2,23c-1.1,1.1-8.2,4.1-21.3,7.4
	C113.6,57.8,101.5,59.7,94.1,59.7z"/>
<path class="st31" d="M150.4,25.6c0-0.5,0-0.9-0.1-1.4c-0.1-1.9-1.6-3.4-3.4-3.6c-7.9-1-15.9-1.4-23.9-1.4l0,0
	c-10.7,0-21.3,0.7-31.9,2.1c-1.5,0.2-2.7,1.2-3.2,2.6c-4.1,12.1-2.8,27.8-2.1,33.7c0.1,0.8,0.4,1.5,0.9,2.1l0.1,0.1
	c0.5,0.6,1.3,1,2.1,1.2c1.7,0.3,3.4,0.4,5.1,0.4c3,0,6.6-0.3,10.5-0.8c0.3,0,0.5-0.1,0.8-0.1s0.5-0.1,0.8-0.1l0,0
	c3.4-0.5,7-1.1,10.5-1.9c2.9-0.6,5.8-1.2,8.6-1.9c3.6-0.9,7.1-1.8,10.2-2.8c1.3-0.4,2.5-0.8,3.6-1.1c0.5-0.2,1-0.3,1.5-0.5
	c0.1,0,0.1,0,0.2-0.1l0,0c0.4-0.1,0.7-0.3,1.1-0.4c0.5-0.2,0.9-0.4,1.4-0.5c1.5-0.6,2.7-1.1,3.7-1.7c0,0,0.1,0,0.1-0.1
	c0.1-0.1,0.2-0.1,0.4-0.2c0.2-0.1,0.4-0.3,0.6-0.4c0.4-0.3,0.7-0.6,0.8-0.8l0,0l0,0c0,0,0,0,0-0.1c0.1-0.4,0.2-0.9,0.4-1.6v-0.1
	c0-0.1,0-0.2,0.1-0.4l0,0c0.5-3.2,0.9-8.3,1-13.3c0-0.2,0-0.4,0-0.7l0,0c0-0.2,0-0.5,0-0.7c0-0.3,0-0.5,0-0.8
	C150.5,28.6,150.5,27,150.4,25.6z M146.1,46c0,0.1,0,0.2,0,0.2c-0.8,0.5-1.7,0.9-2.6,1.3c-0.5,0.2-0.9,0.4-1.4,0.6l0,0
	c-0.8,0.3-1.5,0.6-2.3,0.8c-0.1,0-0.2,0.1-0.3,0.1c-2.1,0.8-4.6,1.5-7.3,2.3c-2.2,0.6-4.6,1.3-7.1,1.9c-2.3,0.6-4.7,1.1-6.9,1.6
	c-3.8,0.8-7.4,1.5-10.8,2l0,0c-0.3,0.1-0.6,0.1-0.8,0.1c-0.3,0.1-0.5,0.1-0.8,0.1c-4.5,0.7-8.5,1-11.6,1c-0.9,0-1.9,0-2.8-0.1
	c-0.6,0-1.1-0.1-1.7-0.2c-0.2-0.1-0.4-0.3-0.5-0.5C88.3,51.3,87,36.4,91,25c0.1-0.2,0.3-0.4,0.5-0.4c10.5-1.4,21-2.1,31.5-2.1l0,0
	c7.9,0,15.7,0.4,23.5,1.4c0.3,0,0.5,0.3,0.5,0.5c0.1,1.8,0.2,3.8,0.2,5.9c0,0.2,0,0.5,0,0.8c0,0.2,0,0.5,0,0.7V32
	C147.1,37.6,146.7,43.3,146.1,46z M139.8,49c0.6-0.1,1.2-0.1,1.9-0.2l0.4-0.6C141.3,48.5,140.5,48.7,139.8,49z"/>
<polygon class="st26" points="157.7,81.3 156.6,89.2 139,88.6 141,80.7 "/>
<polygon class="st28" points="133.2,76.2 128.4,82.2 139,88.6 141,80.7 "/>
<ellipse transform="matrix(5.198990e-02 -0.9986 0.9986 5.198990e-02 57.4552 207.571)" class="st32" cx="138.1" cy="73.5" rx="9.4" ry="5"/>
<path class="st33" d="M155.9,46c0,0,0,4.1,0.3,4.4l4.2,3.5"/>
<path class="st30" d="M207,64.2c-6.4,0-17.2-2.5-28.9-6.8s-18.5-8-19.3-9.3c-0.7-3.6-0.2-15.7,1-23c0.2-1,1-1.8,2.1-1.8
	c2.1-0.1,4.3-0.1,6.4-0.1c14.1-0.1,28.3,1.4,42.1,4.5c0.8,0.2,1.4,0.8,1.6,1.6c2.9,12,0.2,27.1-1.1,33c-0.2,0.9-0.9,1.6-1.8,1.7
	C208.3,64.2,207.7,64.2,207,64.2z"/>
<path class="st31" d="M213.5,29.1c-0.3-1.4-1.5-2.6-2.9-2.9c-6.6-1.6-21.1-4.6-42.5-4.6l0,0c-2.1,0-4.3,0-6.5,0.1
	c-1.6,0-3,1.1-3.6,2.6c-0.1,0.2-0.1,0.4-0.2,0.6c-0.3,1.7-0.5,3.6-0.7,5.6c0,0.2,0,0.5-0.1,0.8c0,0.2,0,0.5-0.1,0.7l0,0
	c-0.1,0.8-0.1,1.6-0.2,2.4c-0.3,4.2-0.4,8.5-0.3,11.4c0,0.3,0,0.5,0.1,0.8c0,0.8,0.1,1.5,0.2,2c0,0.2,0.1,0.4,0.3,0.6l0,0
	c0.5,0.6,1.6,1.4,3.1,2.3c0.4,0.2,0.8,0.5,1.2,0.7c2.2,1.2,5,2.5,8.3,3.9c3,1.3,6.4,2.5,9.9,3.8c3.5,1.2,7.2,2.4,10.7,3.3l0,0
	c0.3,0.1,0.5,0.2,0.8,0.2c0.3,0.1,0.5,0.1,0.8,0.2c5.6,1.4,10.8,2.3,14.8,2.3c0.7,0,1.4,0,2.1-0.1c0.4,0,0.8-0.1,1.2-0.3
	c0.1,0,0.2-0.1,0.3-0.2c0.3-0.2,0.5-0.4,0.8-0.6c0.5-0.5,0.9-1.2,1.1-1.9C213.7,57,216.5,41.5,213.5,29.1z M208.8,62.4
	c-0.1,0-0.2,0-0.3,0c-0.5,0-1,0.1-1.4,0.1c-3.8,0-9.3-0.9-15.6-2.6c-0.3-0.1-0.6-0.2-0.8-0.2c-0.3-0.1-0.6-0.1-0.9-0.2l0,0
	c-3.2-0.9-6.7-2-10.2-3.3c-0.3-0.1-0.7-0.2-1-0.4c-4.1-1.5-8.1-3.1-12.1-5c-2-0.9-4-2-5.7-3.2c-0.1-0.1-0.2-0.1-0.3-0.2
	c0-0.2,0-0.4-0.1-0.6c-0.2-2.3-0.2-6.4,0.1-10.9c0.1-1.1,0.1-2.2,0.2-3.3l0,0c0-0.2,0-0.5,0.1-0.7c0-0.2,0-0.5,0.1-0.8
	c0.2-2,0.4-3.9,0.7-5.6c0-0.2,0.2-0.3,0.4-0.4l0,0c2.1-0.1,4.3-0.1,6.4-0.1l0,0c14-0.1,28,1.4,41.7,4.5c0.2,0,0.3,0.2,0.3,0.4
	c2.8,11.7,0.2,26.4-1.1,32.2C209.1,62.2,209,62.3,208.8,62.4z"/>
<path class="st34" d="M128.3,50.1h-0.4c-6.5-0.2-11.6-6.2-11.4-13.3s5.5-12.5,11.9-12.5h0.4c6.5,0.2,11.6,6.2,11.4,13.3
	S134.7,50.1,128.3,50.1z"/>
<path class="st35" d="M141.2,33.7c-0.1-0.6-0.3-1.2-0.5-1.8c0,0,0,0,0-0.1c-0.1-0.2-0.2-0.5-0.3-0.7s-0.2-0.5-0.3-0.7
	c-2.2-4.3-6.3-7.2-11.2-7.4h-0.4c-7.1,0-13,6.1-13.3,13.8c-0.1,1.6,0.1,3.1,0.5,4.5c0.1,0.2,0.1,0.5,0.2,0.8s0.2,0.5,0.3,0.8l0,0
	c1,2.6,2.7,4.8,4.9,6.3c1.4,1,3,1.7,4.7,2c0.7,0.1,1.4,0.2,2.1,0.2h0.4c2.5,0,4.8-0.8,6.9-2.1c3.7-2.4,6.2-6.8,6.4-11.8
	C141.7,36.3,141.5,35,141.2,33.7z M128.3,48.8H128c-2-0.1-3.8-0.7-5.3-1.8c-2-1.4-3.5-3.5-4.3-6l0,0c-0.1-0.3-0.2-0.6-0.2-0.9
	c-0.1-0.2-0.1-0.5-0.1-0.8c-0.1-0.7-0.2-1.5-0.1-2.3c0.1-3,1.2-5.8,3.3-8c1.9-2,4.5-3.1,7.2-3.2l0,0h0.3c3.5,0.1,6.5,2.1,8.3,5
	c0.1,0.2,0.3,0.5,0.4,0.7c0.1,0.2,0.2,0.4,0.3,0.7l0,0c0.3,0.8,0.6,1.6,0.8,2.5c0.2,1,0.3,1.9,0.2,3c-0.1,3-1.2,5.8-3.3,8
	C133.7,47.6,131,48.8,128.3,48.8z"/>
<path class="st34" d="M178.4,52.8H178c-6.5-0.2-11.6-6.2-11.4-13.3s5.5-12.5,12-12.5h0.4c6.5,0.2,11.6,6.2,11.4,13.3
	S184.9,52.8,178.4,52.8z"/>
<path class="st35" d="M179,25.7h-0.4c-4,0-7.5,1.9-10,4.9c-0.6,0.7-1.1,1.5-1.5,2.3c-0.1,0.2-0.2,0.5-0.3,0.7s-0.2,0.4-0.3,0.7l0,0
	c-0.6,1.5-1,3.1-1.1,4.8c0,0.2,0,0.4,0,0.5c-0.3,7.8,5.3,14.3,12.5,14.7c0.1,0,0.2,0,0.3,0h0.4c3,0,5.7-1,7.9-2.8l0,0
	c0.2-0.2,0.4-0.3,0.6-0.5c0.2-0.2,0.4-0.4,0.6-0.5c0.9-0.9,1.6-1.8,2.2-2.9c1.2-2,1.9-4.4,2-7C192,32.5,186.3,25.9,179,25.7z
	 M186,47.9c-0.1,0.1-0.2,0.2-0.3,0.3s-0.2,0.2-0.2,0.2c-0.2,0.2-0.4,0.4-0.5,0.5l0,0c-1.8,1.5-4,2.4-6.4,2.4h-0.3
	c-0.6,0-1.3-0.1-1.9-0.3c-2-0.5-3.9-1.6-5.3-3.3c-1.6-2-2.6-4.3-2.8-6.7c-0.2-2,0.1-4,0.9-5.9l0,0c0.1-0.2,0.2-0.5,0.3-0.7
	s0.2-0.4,0.4-0.7c0.3-0.6,0.7-1.1,1.1-1.6c0.2-0.2,0.4-0.5,0.6-0.7c1.9-2,4.5-3.1,7.2-3.2l0,0h0.3c2.8,0.1,5.4,1.4,7.2,3.5
	c3.3,3.9,3.7,9.4,1.4,13.7C187.1,46.5,186.6,47.2,186,47.9z"/>
<ellipse transform="matrix(3.350531e-02 -0.9994 0.9994 3.350531e-02 59.067 209.1275)" class="st36" cx="137.7" cy="74" rx="4.7" ry="2.2"/>
<path class="st37" d="M159.1,78c7.3,1.3,38.8,17,38.8,17s-0.2,41.6-1.5,44.1c-0.6,3-0.8,6.8-7.9,13.5c-2.3,1.1-3.3,4-48.7,2.6"/>
<path class="st37" d="M133.2,75.8c0,0-40.3-1.3-42-0.6c0,0-2.5,34.5-2.2,36.6"/>
<path class="st15" d="M72.5,64.4l30.7,17.1c5.3,2.8,8.6,5.6,6.2,10.9l0,0c-2.8,4.9-5.7,4.1-11,2.3L62.5,83.4
	c-5.3-2.3-7.7-8.5-5.4-13.8l0,0C59.4,64.4,67.2,62.1,72.5,64.4z"/>
<path class="st16" d="M74.8,65.7L107,83c5.3,2.8,0.6,15-4.7,13.2L66.4,84.9c-5.3-2.3-7.7-8.5-5.4-13.8l0,0
	C63.3,65.8,69.5,63.4,74.8,65.7z"/>
<path class="st17" d="M62.4,66.8c0,0,0.9-1.5,4.1-2.2c-1.8-4.2-7.6-13.5-9.3-13.6c-1.2-0.1-3.1,0.8-4.9,1.8C51,53.5,50.4,55,51,56.3
	c0.1,0.2,0.3,0.5,0.5,0.7c3.7,3.9,9.6,9.7,9.6,9.7L62.4,66.8z"/>
<path class="st18" d="M66.6,64.6c-1.8-4.1-6.4-13.8-8.1-13.9c-1.7,0.2-3.4,0.7-4.9,1.5c-1.3,0.6-1.9,2.1-1.3,3.4l0,0
	c0.1,0.3,0.3,0.5,0.5,0.8c3.7,3.9,9.2,10.6,9.7,10.7C63.4,65.6,64.9,64.7,66.6,64.6z"/>
<path class="st17" d="M58.8,72.9c0,0-0.2-1.8,2-4.2c-4-2.2-14.2-6.1-15.6-5.1c-1,0.7-2,2.6-2.8,4.4c-0.7,1.3-0.2,2.9,1.1,3.5
	c0.2,0.1,0.5,0.2,0.8,0.3c5.3,0.8,13.5,1.9,13.5,1.9L58.8,72.9z"/>
<path class="st18" d="M60.8,68.6c-4-2.2-13.4-7.2-14.8-6.2c-1.2,1.2-2.3,2.6-3,4.1c-0.7,1.2-0.2,2.8,1,3.5c0.3,0.1,0.5,0.2,0.8,0.3
	c5.3,0.8,13.7,2.8,14.2,2.6C58.8,71.3,59.5,69.7,60.8,68.6z"/>
<path class="st17" d="M60.7,80.4c0,0-1.3-1.2-1.3-4.5c-4.4,1-11.9,2.4-12.3,4c-0.3,1.1-0.4,1.3,0.2,3.2c0.4,1.4,1.9,2.3,3.3,1.9
	c0.2-0.1,0.4-0.1,0.6-0.2c2.9-1.4,6-2.5,9.1-3.2L60.7,80.4z"/>
<path class="st18" d="M59.3,75.8c-4.4,1-12,1.1-12.4,2.8c-0.4,1-0.5,2.1-0.1,3.2c0.4,1.8,2.3,2.4,3.9,1.6c4.9-2.2,10-2.6,10.1-3
	C59.6,79.2,59.1,77.5,59.3,75.8z"/>
<path class="st17" d="M71.3,63.9L68,64.5c0,0-1-0.6-1.2-0.7c-1.1-0.8-2.2-11.7,0-11.9s5.2,0.2,5.5,0.9c0,0.1,0.8,0.8,0.8,0.8
	S71.8,64.3,71.3,63.9z"/>
<path class="st18" d="M72.5,64.6c-0.7-0.3-1.5-0.4-2.3-0.4c-0.7,0-1.5,0.1-2.2,0.3c-1.4,0.2-2.2-11.7,0-11.9s4.9,0.6,5.3,1.2
	S73,65.1,72.5,64.6z"/>
<ellipse transform="matrix(0.9819 -0.1894 0.1894 0.9819 -12.9389 14.805)" class="st19" cx="71" cy="75.1" rx="3.7" ry="4.1"/>
<path class="st38" d="M143.4,108.2l39.7,0.4c1.6,0,2.9,1.4,2.9,3c0,0.1,0,0.1,0,0.2l-1.6,23.5c-0.1,1.6-1.4,2.8-3,2.8l-39.8-0.4
	c-1.6,0-2.9-1.4-2.9-3v-0.2l1.6-23.5C140.6,109.4,141.9,108.2,143.4,108.2z"/>
<path class="st39" d="M142.8,109.3l39.8,0.3c1.3,0,2.3,1,2.3,2.3l0,0v0.1l-1.6,23.6c-0.1,1.2-1.1,2.2-2.3,2.1l-39.8-0.3
	c-1.3,0-2.3-1-2.3-2.3V135l1.6-23.7C140.5,110.2,141.5,109.3,142.8,109.3z"/>
<path class="st40" d="M168,121.5l-24.5-0.5c-0.8,0-1.5-0.7-1.4-1.5l0.5-7c0-0.8,0.7-1.5,1.5-1.4l0,0l24.5,0.4c0.8,0,1.5,0.7,1.4,1.5
	l-0.5,7C169.5,120.8,168.8,121.5,168,121.5L168,121.5z"/>
<ellipse transform="matrix(4.222472e-02 -0.9991 0.9991 4.222472e-02 25.563 258.9847)" class="st41" cx="147.9" cy="116.2" rx="3.6" ry="2.9"/>
<ellipse transform="matrix(4.222472e-02 -0.9991 0.9991 4.222472e-02 33.7531 267.7418)" class="st42" cx="156.5" cy="116.3" rx="3.6" ry="2.9"/>
<ellipse transform="matrix(3.995747e-02 -0.9992 0.9992 3.995747e-02 42.0228 276.1024)" class="st43" cx="164.7" cy="116.2" rx="3.6" ry="2.9"/>
<path class="st44" d="M162.9,127.3l-19.3-0.2c-0.8,0-1.5-0.7-1.5-1.6l0,0l0,0c0-0.8,0.7-1.5,1.6-1.5l0,0l19.3,0.2
	c0.8,0,1.5,0.7,1.5,1.6l0,0C164.4,126.7,163.7,127.4,162.9,127.3z"/>
<path class="st45" d="M151.5,136.5l-8.6-0.2c-0.8,0-1.5-0.7-1.5-1.6l0,0c0-0.8,0.7-1.5,1.6-1.5l8.6,0.1c0.9,0,1.5,0.7,1.5,1.6l0,0
	C153.1,135.8,152.4,136.5,151.5,136.5z"/>
<path class="st45" d="M151.8,132.2l-8.6-0.2c-0.9,0-1.5-0.7-1.5-1.6l0,0l0,0c0-0.9,0.7-1.5,1.6-1.5l0,0l8.6,0.2
	c0.8,0,1.5,0.7,1.5,1.6l0,0l0,0C153.4,131.5,152.7,132.2,151.8,132.2L151.8,132.2z"/>
<polygon class="st46" points="172.8,111.8 184.5,111.9 182.9,135.9 171.1,135.7 "/>
<radialGradient id="SVGID_1_" cx="-3320.5439" cy="-1097.7023" r="1.2" gradientTransform="matrix(1.6563 0.1103 0.1103 -1.6563 5803.3628 -1337.536)" gradientUnits="userSpaceOnUse">
	<stop  offset="0.2" style="stop-color:#666666"/>
	<stop  offset="0.57" style="stop-color:#585858"/>
	<stop  offset="1" style="stop-color:#4D4D4D"/>
</radialGradient>
<path class="st47" d="M181.1,114.4c0.1-0.8,0.7-1.4,1.4-1.4s1.2,0.7,1.2,1.6c-0.1,0.8-0.7,1.4-1.4,1.4
	C181.5,115.9,181,115.2,181.1,114.4z"/>
<path class="st48" d="M182.5,113.1c0.3,1,0.2,2.1-0.3,3"/>
<path class="st48" d="M181.1,114.4c0.8,0.3,1.7,0.3,2.6,0.2"/>
<radialGradient id="SVGID_2_" cx="-3325.4138" cy="-1109.6322" r="1.2" gradientTransform="matrix(1.6563 0.1103 0.1103 -1.6563 5803.3433 -1337.5297)" gradientUnits="userSpaceOnUse">
	<stop  offset="0.2" style="stop-color:#666666"/>
	<stop  offset="0.57" style="stop-color:#585858"/>
	<stop  offset="1" style="stop-color:#4D4D4D"/>
</radialGradient>
<path class="st49" d="M171.7,133.6c0.1-0.8,0.7-1.4,1.4-1.4s1.2,0.7,1.2,1.6c-0.1,0.8-0.7,1.4-1.4,1.4
	C172.1,135.2,171.6,134.5,171.7,133.6z"/>
<path class="st48" d="M173.1,132.3c0.3,1,0.2,2.1-0.3,3"/>
<path class="st48" d="M171.7,133.6c0.8,0.3,1.7,0.3,2.6,0.2"/>
<radialGradient id="SVGID_3_" cx="-3319.5168" cy="-1105.6107" r="1.2" gradientTransform="matrix(1.656 0.1158 0.1158 -1.656 5819.083 -1313.4178)" gradientUnits="userSpaceOnUse">
	<stop  offset="0.2" style="stop-color:#666666"/>
	<stop  offset="0.57" style="stop-color:#585858"/>
	<stop  offset="1" style="stop-color:#4D4D4D"/>
</radialGradient>
<path class="st50" d="M180.9,133.8c0.1-0.8,0.7-1.4,1.4-1.4s1.2,0.8,1.2,1.6c-0.1,0.8-0.7,1.4-1.4,1.4S180.9,134.6,180.9,133.8z"/>
<path class="st48" d="M181.4,132.3c0.3,1,0.2,2.1-0.3,3"/>
<path class="st48" d="M180,133.7c0.8,0.3,1.7,0.3,2.6,0.2"/>
<radialGradient id="SVGID_4_" cx="-3324.9038" cy="-1097.9022" r="1.2" gradientTransform="matrix(1.6563 0.1103 0.1103 -1.6563 5803.3569 -1337.5294)" gradientUnits="userSpaceOnUse">
	<stop  offset="0.2" style="stop-color:#666666"/>
	<stop  offset="0.57" style="stop-color:#585858"/>
	<stop  offset="1" style="stop-color:#4D4D4D"/>
</radialGradient>
<path class="st51" d="M173.8,114.3c0.1-0.8,0.7-1.4,1.4-1.4s1.2,0.7,1.2,1.6c-0.1,0.8-0.7,1.4-1.4,1.4
	C174.3,115.8,173.8,115.1,173.8,114.3z"/>
<path class="st48" d="M175.2,112.9c0.2,1,0.1,2-0.3,2.9"/>
<path class="st48" d="M173.8,114.3c0.8,0.3,1.7,0.3,2.6,0.2"/>
<path class="st52" d="M142.1,125.5c2.1-0.5,4.4-0.3,6.4,0.4c3,1.3,3.4-1.5,4.8-1.4s1.6,2.3,3.6,2.2s1.4-0.9,2.3-0.8s0.9,1,1.8,1
	s1.4-2.8,2-2.7"/>
<path class="st9" d="M142.5,165c-0.1-1.2-0.4-2.3-0.7-3.4c-1.3-4.6-5.5-18.8-9.3-27.3c-2.2-5-3.6-8.4-4.8-11c-1.3-3-3.4-5.6-5.9-7.6
	c-1.9-1.7-4.1-3.1-6.5-4.1c-3.8-1.5-8-1.6-12.1-1.1c-10.2,1.3-15.7,1.4-17.7,2c-2,1.3-10.5,10.1-11.2,17.6
	c-0.5,5.4-0.1,12.8,3.6,18.6s18.7,33.8,25.4,34.5c7.8,0.8,27.9-0.1,33.8-4.3C142.5,175.2,143.1,170.4,142.5,165z"/>
<path class="st10" d="M107.1,182.5c-3.8,0-8-1.3-11.7-2.5l-1.4-0.4c-2.7-0.9-9.9-5.8-18.3-12.5c-8.2-6.6-14.8-12.8-16.4-15.4
	c-3.6-5.7-3.9-12.9-3.4-17.9c0.4-4.4,3.8-8.8,10.1-12.9l0.2-0.2l0.5-0.3c4.2-3,8.9-5.1,13.9-6.1c1.4-0.3,2.7-0.4,4.1-0.4
	c2.5,0,5,0.5,7.4,1.4c2.3,1,4.4,2.3,6.2,3.9c2.4,2,4.3,4.4,5.6,7.2c0.5,1.1,1.1,2.5,1.7,4c0.8,1.9,1.8,4.2,3,7
	c3.8,8.5,8,22.9,9.3,27.1c0.3,1.1,0.5,2.1,0.7,3.2c0.6,5.3,0,9.5-4.8,12.9C111.7,181.9,109.4,182.6,107.1,182.5L107.1,182.5z"/>
<path d="M119.5,167.8c0-0.1,0-0.2,0-0.2c0-0.2,0-0.4-0.1-0.6c0-0.3-0.1-0.6-0.1-0.9c0,0,0,0,0-0.1c-0.1-0.6-0.3-1.2-0.4-1.9
	c-0.2-0.5-0.4-1.2-0.6-2c-0.5-1.8-1.2-4.1-2-6.6c-0.5-1.7-1.1-3.6-1.8-5.5c-0.2-0.7-0.5-1.4-0.7-2.2c-1.2-3.6-2.6-7.3-3.9-10.3
	c-0.1-0.2-0.2-0.5-0.3-0.7c-2.2-5-3.6-8.4-4.8-11c-1.4-3-3.4-5.6-5.9-7.6c-1.4-1.2-3-2.3-4.6-3.2c-0.2-0.1-0.5-0.3-0.7-0.4
	s-0.5-0.2-0.8-0.3c-0.1-0.1-0.3-0.1-0.4-0.2c-1.1-0.5-2.3-0.8-3.4-1c-0.1,0-0.2,0-0.4-0.1l0,0c-1-0.2-2-0.3-3.1-0.4
	c-0.3,0-0.6,0-0.9,0l0,0c-1.5,0-2.9,0.1-4.3,0.4c-0.8,0.2-1.6,0.4-2.3,0.6c-4.5,1.2-8.7,3.3-12.5,6c-2,1.3-10.2,6.5-10.8,13.9
	c-0.2,2.4-0.3,5.3,0.1,8.2c0.4,3.5,1.5,7.2,3.5,10.4c3.7,5.8,28.9,26.4,35.3,28.3c4.1,1.3,8.9,3,13.4,3c0.7,0,1.5,0,2.2-0.1l0,0
	c0.7-0.1,1.3-0.2,1.9-0.5c1.1-0.3,2.1-0.8,3.1-1.5C119.5,177.8,120.1,173.1,119.5,167.8z M107.1,181.4c-0.3,0-0.6,0-1,0
	c-2.5-0.1-5.1-0.8-7.6-1.5c-1-0.3-1.9-0.6-2.8-0.8l-1.4-0.4c-2.6-0.8-9.8-5.8-17.9-12.3c-8-6.4-14.6-12.6-16.2-15.1
	c-0.5-0.7-1-1.6-1.4-2.7c-1.4-3.2-2.4-7.9-1.9-14.5c0.2-2.5,1.6-5.1,4-7.6c1.7-1.7,3.5-3.2,5.5-4.5l0.2-0.2l0.5-0.3
	c4-2.9,8.6-5,13.5-6c0.7-0.2,1.5-0.2,2.2-0.3c0.6-0.1,1.1-0.1,1.7-0.1l0,0c1.4,0,2.8,0.2,4.2,0.5c0.9,0.2,1.8,0.5,2.7,0.8
	c0.4,0.2,0.7,0.3,1.1,0.5c0.2,0.1,0.5,0.2,0.8,0.4c0.2,0.1,0.5,0.3,0.7,0.4l0,0c1.2,0.7,2.3,1.5,3.4,2.5c2.2,1.8,4,4.2,5.2,6.8
	c0.5,1.1,1.1,2.5,1.7,4c0.8,1.9,1.8,4.2,3,7c1.4,3.2,2.9,7.1,4.2,11.1c0.3,1,0.7,2,1,2.9c1.1,3.2,2,6.2,2.7,8.7
	c0.5,1.8,1,3.2,1.2,4.2c0,0,0,0,0,0.1v0.1c0.1,0.3,0.2,0.6,0.2,0.9c0.1,0.3,0.1,0.6,0.2,0.9c0.1,0.4,0.1,0.8,0.2,1.2
	c0.5,4.9,0,8.8-4.3,11.9C111.2,180.9,109.2,181.5,107.1,181.4z"/>
<ellipse transform="matrix(1.867441e-02 -0.9998 0.9998 1.867441e-02 -66.6021 208.9655)" class="st11" cx="73.2" cy="138.4" rx="15.1" ry="12.1"/>
<ellipse transform="matrix(1.867441e-02 -0.9998 0.9998 1.867441e-02 -73.6386 245.3473)" class="st11" cx="88.2" cy="160.2" rx="10.8" ry="8.6"/>
<ellipse transform="matrix(1.867441e-02 -0.9998 0.9998 1.867441e-02 -65.6894 270.9549)" class="st11" cx="105.2" cy="168.9" rx="8.5" ry="6.8"/>
<ellipse transform="matrix(1.867441e-02 -0.9998 0.9998 1.867441e-02 -67.3678 208.2163)" class="st12" cx="72.4" cy="138.4" rx="5.6" ry="4.1"/>
<ellipse transform="matrix(0.2593 -0.9658 0.9658 0.2593 -90.1392 203.7143)" class="st12" cx="87.7" cy="160.6" rx="4.9" ry="3.5"/>
<ellipse transform="matrix(0.2593 -0.9658 0.9658 0.2593 -85.9057 227.2071)" class="st12" cx="105.2" cy="169.6" rx="3.6" ry="2.6"/>
<path class="st13" d="M110.1,157.7c0,0-1.8-3.9-7.7-2.2c-1-2.5-3-9.4-13.4-8.9c0.6-2.3,5-12.2-2.4-22.3c3.1-1.3,5-2.1,8.7,2.8
	C99,131.9,110.6,156.5,110.1,157.7z"/>
<line class="st14" x1="127.7" y1="123.2" x2="104.2" y2="124.7"/>
<line class="st14" x1="114.6" y1="111.3" x2="88.5" y2="113"/>
<polyline class="st14" points="84.8,113.2 77.8,113.7 77.8,113.7 "/>
<line class="st14" x1="134" y1="137.8" x2="110.6" y2="139.3"/>
<line class="st14" x1="139" y1="152.3" x2="115.7" y2="153.7"/>
<line class="st14" x1="142.7" y1="167.2" x2="119.7" y2="168.6"/>
<ellipse transform="matrix(0.2272 -0.9739 0.9739 0.2272 53.7032 249.7286)" class="st53" cx="184.2" cy="91" rx="1.2" ry="3.9"/>
<path class="st54" d="M133.4,39.3c-2.8-3-7.3-3.5-10.1-1.2c-0.9,0.7-1.4,1.2-1.4,0.6l0,0c0.2-1.1,0.7-2.2,1.4-3.1
	c2.8-3,7.3-3.5,10.1-1.2c0.9,0.7,1.4,2.8,1.4,4.3l0,0C134.8,40.2,134.3,40.3,133.4,39.3z"/>
<path class="st54" d="M173.7,41.7c2.7-3,7.1-3.4,9.8-1.2c0.9,0.7,1.4,1.1,1.4,0.6l0,0c-0.2-1.1-0.7-2.2-1.4-3
	c-2.7-3-7.1-3.4-9.8-1.2c-0.9,0.7-1.4,2.7-1.4,4.2l0,0C172.3,42.6,172.8,42.7,173.7,41.7z"/>
<line class="st55" x1="150.4" y1="25.2" x2="157" y2="25.6"/>
<polygon class="st56" points="148,112.6 180.5,71.9 204,183.5 147.7,119.8 "/>
<polygon class="st57" points="156.7,112.7 203,71.9 240.8,182.3 156.4,119.9 "/>
<polygon class="st58" points="165.1,113 232.4,49.9 251.9,144.7 164.8,120.2 "/>
<path class="st59" d="M300.2,13.6v173c0,7.3-5.9,13.2-13.2,13.2H13.6c-7.3,0-13.2-5.9-13.2-13.2l0,0v-3.1c-0.1-0.6-0.2-1.3-0.2-1.9
	v-168c0-7.1,5.6-12.9,12.7-13.2c0.2,0,0.4,0,0.7,0H287c0.2,0,0.3,0,0.5,0c6.2,0.2,11.2,4.7,12.4,10.6c0,0.1,0,0.1,0,0.2
	c0,0.1,0,0.2,0.1,0.4l0,0C300.2,12.3,300.2,12.9,300.2,13.6z"/>
<g>
	<g>
		<g>
			<path class="st60" d="M188.6,146.5L188.6,146.5c-0.2,0-0.2,0-0.3-0.1l-7-2.4l7.3,0.9c0.2,0,0.5,0,0.7,0.1l-0.1,1.5H188.6z"/>
			<path class="st3" d="M188.5,145.8c0.2,0,0.5,0,0.7,0.1h-0.6C188.6,145.8,188.6,145.8,188.5,145.8 M188.7,144.2l-0.7,3
				c0.1,0,0.2,0.1,0.3,0.1h0.1h0.1h0.6l0.2-3C189.1,144.3,188.9,144.3,188.7,144.2L188.7,144.2z"/>
		</g>
		<g>
			<path class="st61" d="M190.6,146.7c-0.5,0-0.9,0-1.4-0.1l0.1-1.5l1.1,0.1c0,0,0.3,0,0.4,0L190.6,146.7z"/>
			<path class="st3" d="M189.3,145.8l1,0.1c0.1,0,0.2,0,0.3,0C190.1,145.9,189.7,145.9,189.3,145.8 M189.3,144.3l-0.2,3
				c0.5,0,1,0.1,1.5,0.1l0.3-3c-0.1,0-0.2,0-0.3,0h-0.1h-0.1L189.3,144.3L189.3,144.3z"/>
		</g>
		<g>
			<path class="st3" d="M152.5,171.5l-6.1-0.4l-10.6-0.7c-0.1,0-0.4,0-0.4,0h-0.2c-0.1,0-0.2,0-0.2,0l-1-0.1c-0.3,0-0.6,0-0.8-0.1
				c-11-1-21.1-6.1-28.4-14.4c-8.2-9.3-12.2-21.6-11.1-34.6L95,96.7c1-9.7,1.9-12.2,8.4-12.6l1.6-17.8c1.7-19.8,18-35,37.9-35.4
				c0.2,0,0.5,0,0.8,0h2h6.7h3.2h0.1c0.5,0,1,0.1,1.5,0.1c10.3,0.9,19.6,5.8,26.3,13.8s9.8,18,8.9,28.3l-1.2,14
				c0.4,0,0.8,0.1,1.2,0.2c6.1,1.2,10.3,6.9,9.7,13.4l-1.2,23.4c-0.7,8.4-3.5,16.5-8,23.7C183.7,162.3,168.3,171.3,152.5,171.5
				L152.5,171.5L152.5,171.5z M141.5,85.2l23.6,0.8l1-11.6c0.5-6-1.3-11.9-5.2-16.6c-3.2-3.8-7.6-6.5-12.4-7.6
				c-1.3,0.3-2.6,0.7-3.9,1.3c-7.8,3.3-13,10.5-13.8,18.9l-1.3,14.5L141.5,85.2z"/>
			<path class="st3" d="M143.8,31.8h1.8h6.7h3.2c0.5,0,1,0.1,1.5,0.1c10.4,0.9,19.5,6,25.8,13.5s9.7,17.3,8.8,27.8l-1.3,14.9
				c0.6,0,1.2,0.1,1.8,0.2c5.7,1.1,9.7,6.4,9.1,12.6l-1.2,23.4c-0.7,8.5-3.5,16.5-7.9,23.3c-8.7,13.7-23.4,23-39.5,23.1h-0.1l-6-0.4
				l-10.6-0.7l0,0c-0.2,0-0.3,0-0.5,0c-0.1,0-0.2,0-0.3,0l-1-0.1c-0.2,0-0.5,0-0.7-0.1c-10.9-1-20.7-5.9-27.9-14.1
				c-8.1-9.2-12-21.3-10.9-34l1.3-24.5c1-10,1.9-11.7,8.3-12l1.6-18.4c1.7-19.5,18-34.3,37.1-34.7c0.2,0,0.5,0,0.8,0h0.1
				 M165.8,86.8l1.1-12.3c0.6-6.4-1.6-12.5-5.4-17.2c-3.3-3.9-7.8-6.8-13-7.9l0,0c-1.4,0.3-2.8,0.8-4.2,1.4
				c-7.7,3.3-13.4,10.6-14.2,19.5l-1.4,15.3l12.7,0.4h0.3L165.8,86.8 M143.8,30.3L143.8,30.3h-0.2c-0.3,0-0.6,0-0.8,0
				c-9.6,0.2-18.9,4-26.1,10.6c-7.2,6.7-11.7,15.7-12.5,25.5l-1.4,17.1c-6.8,0.7-7.5,4.2-8.4,13.2l0,0l0,0l-1.3,24.5
				c-1.1,13.1,2.9,25.6,11.3,35.1c7.4,8.4,17.7,13.6,28.9,14.7c0.2,0,0.5,0,0.7,0.1l1,0.1c0.1,0,0.1,0,0.2,0h0.1h0.1h0.1
				c0.1,0,0.1,0,0.2,0c0.1,0,0.2,0,0.3,0l10.5,0.7l6,0.4l0,0l0,0h0.1c16-0.2,31.6-9.3,40.8-23.8c4.6-7.2,7.4-15.5,8.1-24l1.2-23.5
				c0.6-6.8-3.9-12.9-10.4-14.1c-0.2,0-0.3-0.1-0.5-0.1l1.2-13.3c0.9-10.5-2.3-20.8-9.1-28.9s-16.3-13.1-26.8-14.1
				c-0.5,0-1-0.1-1.5-0.1h-0.1l0,0l0,0h-3.2h-6.7L143.8,30.3L143.8,30.3L143.8,30.3z M130.4,84.1l1.2-13.7
				c0.7-8.1,5.8-15.1,13.3-18.3c1.2-0.5,2.4-0.9,3.6-1.2c4.6,1.1,8.8,3.7,11.8,7.3c3.8,4.5,5.6,10.2,5.1,16l-1,10.9l-22.5-0.7h-0.3
				L130.4,84.1L130.4,84.1z"/>
		</g>
	</g>
	<path class="st60" d="M152.5,170.7h-0.6c-0.4,0-0.8,0-1.2,0c-1.4,0-2.8-0.2-4.2-0.3L152.5,170.7z"/>
	<path class="st62" d="M155.5,31.8h-3.2C153.4,31.8,154.5,31.8,155.5,31.8z"/>
	<path class="st62" d="M191.6,73.2L190.3,88l-0.9,10.4l-2.7-0.2l-7.2-0.6l-4.6-0.4l0.9-9.6v-0.5l1.1-12.7c0.6-6.4-1.6-12.5-5.4-17.2
		c-3.9-4.6-9.5-7.8-15.9-8.3c-2.4-0.2-4.8,0-7.1,0.5l0,0c-1.4,0.3-2.8,0.8-4.2,1.4c-7.7,3.3-13.4,10.6-14.2,19.5l-1.4,15.3v0.5
		l-0.6,7l-9.9-0.9l-4.5-0.4l0.1-1.3l0.5-5.4l1.6-18.5c1.4-16.2,13-29.2,27.9-33.3l-0.8-1.4l0,0h0.9h1.8h6.7h3.2c0.5,0,1,0.1,1.5,0.1
		c10.4,0.9,19.5,6,25.8,13.5C189.1,52.9,192.5,62.8,191.6,73.2z"/>
	<path class="st60" d="M201.3,100.8l-1.2,23.4c-2.1,25.5-23.3,46.2-47.4,46.4h-0.1l-6-0.4l-10.6-0.7l0,0c-0.3,0-0.5,0-0.8,0
		l-1.6-0.1c-0.1,0-0.1,0-0.2,0l1.6-2.3c-5.6-2.4-10.6-6.1-14.8-10.8c-8.1-9.2-12-21.3-10.9-34l1.3-24.5c0.2-1.9,0.7-3.8,1.6-5.4
		c0.4-0.7,0.9-1.4,1.4-2c1.3-1.6,3-2.9,4.9-3.7c1.6-0.7,3.3-1,5.1-0.9l5,0.2l13.1,0.4l24,0.8l10,0.3l4.6,0.1l1.5,0.1l0,0l8.5,0.3
		C196.9,88.2,201.8,94,201.3,100.8z"/>
	<path class="st63" d="M181.6,73.2l-1.3,14.3v0.2l-0.9,9.9l-0.1,0.9l-14.4-1.4l0.9-9.9v-0.5l1.1-12.3c0.6-6.4-1.6-12.5-5.4-17.2
		c-3.3-3.9-7.8-6.8-13-7.9l0,0c-0.9-0.2-1.9-0.4-2.9-0.5c-0.4,0-0.8-0.1-1.1-0.1c-12.4-0.5-23.3,8.9-24.4,21.4L118.8,85l-0.1,1.6
		l-0.5,5.3l-0.1,0.9l-5.8-0.5l-8.7-0.8l0.6-6.8l1.6-18.4c1.7-19.5,18-34.3,37.1-34.7c0.2,0,0.5,0,0.8,0h0.2c0.6,0,1.2,0,1.8,0
		c0.5,0,1,0.1,1.4,0.1c10.4,0.9,19.5,6,25.8,13.5C179.1,52.9,182.5,62.8,181.6,73.2z"/>
	<path class="st61" d="M186.7,98.2c0,0.5-0.1,1.1-0.2,1.7l-1.2,23.4c-2.2,25.7-23.7,46.6-48.1,46.4c-0.3,0-0.7,0-1,0H136l0,0
		c-0.9,0-1.7-0.1-2.6-0.2c-10.9-1-20.7-5.9-27.9-14.1c-8.1-9.2-12-21.3-10.9-34l1.3-24.5c1-10,1.9-11.7,8.3-12
		c1.3-0.1,2.9-0.1,4.7-0.1l5.3,0.2l4.6,0.2l10,0.3l12.7,0.4h0.3l24,0.8l9.7,0.3c0.1,0,0.2,0,0.2,0c1.8,0.2,3.3,0.3,4.6,0.5
		c0.5,0.1,1,0.2,1.5,0.2l0,0C186.2,88.7,187.4,90.8,186.7,98.2z"/>
	<path class="st64" d="M186.7,98.2c0,0.5-0.1,1.1-0.2,1.7l-1.2,23.4c-2.2,25.7-23.7,46.6-48.1,46.4c-0.3,0-0.7,0-1,0l5.3-83.8h0.3
		l24,0.8l9.7,0.3c0.1,0,0.2,0,0.2,0c1.8,0.2,3.3,0.3,4.6,0.5c0.5,0.1,1,0.2,1.5,0.2l0,0C186.2,88.7,187.4,90.8,186.7,98.2z"/>
	<path class="st65" d="M150.8,116.3c-0.3,4-2.7,7.4-6,9.1l-0.7,10.2c-0.2,3.2-3,5.6-6.2,5.4c-3.2-0.2-5.6-3-5.4-6.2l0.7-10.3
		c-3-2.2-4.8-5.8-4.6-9.8c0.4-6.1,5.7-10.7,11.8-10.3C146.6,104.8,151.2,110.1,150.8,116.3z"/>
	<path class="st65" d="M150.8,116.3c-0.3,4-2.7,7.4-6,9.1l-0.7,10.2c-0.2,2.2-1.6,4.1-3.5,4.9c-2.2-0.9-3.6-3.2-3.5-5.7l0.7-10.3
		c-3-2.2-4.8-5.8-4.6-9.7c0.3-5,4-9.1,8.7-10.1C147.3,105.7,151.2,110.7,150.8,116.3z"/>
	<path class="st66" d="M150.8,116.3c-0.3,4-2.7,7.4-6,9.1l-0.7,10.2c-0.2,2.2-1.6,4.1-3.5,4.9c-2.2-0.9-3.6-3.2-3.5-5.7l0.7-10.3
		c-3-2.2-4.8-5.8-4.6-9.7c0.3-5,4-9.1,8.7-10.1C147.3,105.7,151.2,110.7,150.8,116.3z"/>
	<circle class="st67" cx="108.3" cy="149.2" r="2.2"/>
	<path class="st67" d="M114,152.6c2.6,3.5,6.5,6,10.8,7c1.2,0.3,2.2,1.4,2.1,2.6l0,0c-0.1,1.2-1.5,2.1-3.1,1.8
		c-5.4-1.2-10.1-4.2-13.4-8.7c-1-1.3-0.7-3,0.4-3.6l0,0C111.9,151.1,113.3,151.6,114,152.6z"/>
</g>
</svg>
