<svg id="Layer_1" data-name="Layer 1" xmlns="http://www.w3.org/2000/svg" viewBox="0 0 1080 1920"><defs><style>.cls-1{fill:#fff;}.cls-2{fill:#101d2d;}.cls-3{fill:#e56915;}.cls-4{fill:#eddc0f;}.cls-5{fill:#1fdce5;}.cls-6{fill:#686868;}.cls-7{fill:#4f4f4f;}.cls-8{fill:#424242;}</style></defs><title>map_background_8</title><rect class="cls-1" width="1080" height="1920"/><rect class="cls-2" width="1080" height="1920"/><circle class="cls-1" cx="132.71" cy="1601.02" r="3.32"/><circle class="cls-3" cx="159.96" cy="1673.66" r="3.32"/><circle class="cls-1" cx="220.65" cy="1482.36" r="3.32"/><circle class="cls-1" cx="182.18" cy="1228.48" r="2.66"/><circle class="cls-4" cx="87.03" cy="1089.3" r="3.32"/><circle class="cls-1" cx="115.3" cy="1852.79" r="3.32"/><circle class="cls-5" cx="258.97" cy="1856.11" r="3.32"/><circle class="cls-5" cx="347.49" cy="1868.09" r="3.32"/><circle class="cls-5" cx="383.7" cy="1787.41" r="3.32"/><circle class="cls-5" cx="272.9" cy="1673.66" r="3.32"/><circle class="cls-5" cx="702.02" cy="1575.18" r="3.32" transform="translate(-972.17 1161.52) rotate(-52.1)"/><circle class="cls-5" cx="358.52" cy="698.19" r="3.32"/><circle class="cls-5" cx="623.27" cy="1681.74" r="3.32" transform="translate(-1086.63 1140.48) rotate(-52.1)"/><circle class="cls-5" cx="751.29" cy="1667.45" r="3.32" transform="translate(-1025.98 1235.99) rotate(-52.1)"/><circle class="cls-1" cx="328.04" cy="1821.41" r="3.32"/><circle class="cls-1" cx="339.69" cy="1619.58" r="3.32"/><circle class="cls-1" cx="68.83" cy="1194.98" r="1.99"/><circle class="cls-1" cx="95.82" cy="1266.94" r="3.29"/><circle class="cls-1" cx="166.57" cy="1089.02" r="3.29"/><circle class="cls-1" cx="683.03" cy="1492.61" r="3.28" transform="translate(-915.82 1121) rotate(-52.33)"/><circle class="cls-1" cx="789.8" cy="1559.01" r="3.29" transform="translate(-925.55 1224.55) rotate(-52.1)"/><circle class="cls-1" cx="732.66" cy="1603.25" r="3.29" transform="translate(-982.5 1196.53) rotate(-52.1)"/><circle class="cls-1" cx="321.43" cy="1296.92" r="3.29"/><circle class="cls-1" cx="76.03" cy="1705.43" r="3.29"/><circle class="cls-3" cx="155.95" cy="1077.42" r="3.29"/><circle class="cls-1" cx="118.18" cy="821.48" r="3.32"/><circle class="cls-1" cx="22.56" cy="682.62" r="3.32"/><circle class="cls-3" cx="50.83" cy="1446.11" r="3.32"/><circle class="cls-3" cx="193.91" cy="1447.69" r="3.29"/><circle class="cls-1" cx="263.57" cy="1414.73" r="1.66"/><circle class="cls-1" cx="275.22" cy="1212.9" r="0.66"/><path class="cls-1" d="M640.47,1727.12a2,2,0,0,1,2.8-.39l0,0,2.47,1.93,2.09-2.69a2.15,2.15,0,1,1,3.49,2.51,1.13,1.13,0,0,1-.1.13l-2.09,2.68,2.47,1.93a2,2,0,0,1-2.49,3.19l-2.47-1.92-2.2,2.83a2.15,2.15,0,0,1-3.49-2.51,1.13,1.13,0,0,1,.1-.13l2.2-2.83-2.47-1.92a2,2,0,0,1-.38-2.8Z"/><path class="cls-1" d="M83.8,969.42a2,2,0,0,1,2,2v3.13h3.41a2.15,2.15,0,0,1,.29,4.29H85.82V982a2,2,0,0,1-4,0v-3.14H78.18A2.15,2.15,0,0,1,76,976.74v0a2.17,2.17,0,0,1,2.15-2.15h3.59v-3.13a2,2,0,0,1,2-2Z"/><ellipse class="cls-1" cx="864.49" cy="962.49" rx="3.65" ry="3.78"/><ellipse class="cls-3" cx="894.44" cy="1045.34" rx="3.65" ry="3.78"/><ellipse class="cls-1" cx="961.14" cy="827.16" rx="3.65" ry="3.78"/><ellipse class="cls-1" cx="918.86" cy="537.62" rx="2.92" ry="3.03"/><ellipse class="cls-4" cx="814.28" cy="378.89" rx="3.65" ry="3.78"/><ellipse class="cls-4" cx="708.09" cy="449.83" rx="3.65" ry="3.78"/><ellipse class="cls-3" cx="649.79" cy="607.44" rx="3.65" ry="3.78"/><ellipse class="cls-1" cx="686.44" cy="730.46" rx="3.65" ry="3.78"/><ellipse class="cls-1" cx="845.36" cy="1249.63" rx="3.65" ry="3.78"/><ellipse class="cls-5" cx="1003.27" cy="1253.41" rx="3.65" ry="3.78"/><ellipse class="cls-5" cx="1018.58" cy="1045.34" rx="3.65" ry="3.78"/><ellipse class="cls-5" cx="1037.88" cy="100.19" rx="3.65" ry="3.78"/><ellipse class="cls-1" cx="1079.18" cy="1213.84" rx="3.65" ry="3.78"/><ellipse class="cls-1" cx="794.28" cy="499.41" rx="2.19" ry="2.27"/><ellipse class="cls-1" cx="253.91" cy="1422.36" rx="4.59" ry="5.05"/><ellipse class="cls-1" cx="901.71" cy="378.57" rx="3.62" ry="3.75"/><ellipse class="cls-1" cx="1071.91" cy="615.67" rx="3.62" ry="3.75"/><ellipse class="cls-1" cx="802.2" cy="1081.57" rx="3.62" ry="3.75"/><ellipse class="cls-3" cx="890.03" cy="365.34" rx="3.62" ry="3.75"/><ellipse class="cls-1" cx="848.53" cy="73.45" rx="3.65" ry="3.78"/><ellipse class="cls-1" cx="578.93" cy="143.63" rx="3.65" ry="3.78"/><ellipse class="cls-1" cx="615.58" cy="266.65" rx="3.65" ry="3.78"/><ellipse class="cls-3" cx="873.96" cy="1263.51" rx="3.65" ry="3.78" transform="translate(-659.92 1176.98) rotate(-52.1)"/><ellipse class="cls-3" cx="931.76" cy="787.62" rx="3.62" ry="3.75"/><ellipse class="cls-1" cx="1008.32" cy="750.03" rx="1.83" ry="1.89"/><ellipse class="cls-1" cx="1021.12" cy="519.85" rx="0.73" ry="0.76"/><path class="cls-1" d="M1007.81,1453.06a2.22,2.22,0,0,1,1.5-.82,2.39,2.39,0,0,1,1.69.48l2.82,2.19,2.3-3a2.45,2.45,0,0,1,3.86,3l-2.3,3,2.82,2.2a2.26,2.26,0,0,1,.45,3.17,2.18,2.18,0,0,1-1.5.82,2.39,2.39,0,0,1-1.69-.48l-2.81-2.2-2.43,3.12a2.43,2.43,0,0,1-3.38.36,2.53,2.53,0,0,1-.94-1.61,2.36,2.36,0,0,1,.46-1.76l2.42-3.12-2.81-2.19A2.27,2.27,0,0,1,1007.81,1453.06Z"/><path class="cls-1" d="M1010.24,147.42a2.17,2.17,0,0,1,1.57.67,2.32,2.32,0,0,1,.66,1.63v3.57h3.74a2.45,2.45,0,0,1,0,4.9h-3.74v3.57a2.21,2.21,0,0,1-3.8,1.63,2.35,2.35,0,0,1-.65-1.63v-3.57h-3.94a2.42,2.42,0,0,1-2.37-2.45,2.47,2.47,0,0,1,.7-1.73,2.35,2.35,0,0,1,1.67-.72H1008v-3.57a2.27,2.27,0,0,1,2.24-2.3Z"/><path class="cls-1" d="M810.73,242.17a2.17,2.17,0,0,1,1.57.67,2.32,2.32,0,0,1,.66,1.63V248h3.74a2.45,2.45,0,0,1,0,4.9H813v3.57a2.27,2.27,0,0,1-2.23,2.3,2.17,2.17,0,0,1-1.57-.67,2.35,2.35,0,0,1-.65-1.63V252.9h-4a2.41,2.41,0,0,1-2.36-2.45,2.49,2.49,0,0,1,.69-1.73,2.31,2.31,0,0,1,1.67-.72h4v-3.57A2.27,2.27,0,0,1,810.73,242.17Z"/><ellipse class="cls-1" cx="344.68" cy="1235.28" rx="11.47" ry="9.7"/><ellipse class="cls-3" cx="438.8" cy="1447.61" rx="11.47" ry="9.7"/><ellipse class="cls-1" cx="877.5" cy="1426.01" rx="11.47" ry="9.7" transform="translate(-786.78 1242.46) rotate(-52.1)"/><ellipse class="cls-1" cx="515.55" cy="146.37" rx="9.18" ry="7.76"/><ellipse class="cls-5" cx="828.95" cy="1447.61" rx="11.47" ry="9.7"/><ellipse class="cls-1" cx="1019.41" cy="1879.46" rx="11.47" ry="9.7"/><ellipse class="cls-1" cx="1059.64" cy="1289.54" rx="11.47" ry="9.7"/><ellipse class="cls-1" cx="124.02" cy="48.43" rx="6.88" ry="5.82"/><ellipse class="cls-1" cx="217.25" cy="258.78" rx="11.37" ry="9.61"/><ellipse class="cls-1" cx="996.57" cy="346.4" rx="11.37" ry="9.61"/><ellipse class="cls-1" cx="148.9" cy="1540.46" rx="11.37" ry="9.61"/><ellipse class="cls-3" cx="61.83" cy="782.49" rx="11.47" ry="9.7"/><ellipse class="cls-3" cx="740.8" cy="1436.61" rx="11.37" ry="9.61" transform="translate(-847.87 1138.68) rotate(-52.1)"/><ellipse class="cls-1" cx="836.94" cy="100.83" rx="2.29" ry="1.94"/><path class="cls-6" d="M377.3,1468.11a10,10,0,0,1,3-5c3.09-2.38,7.39-.71,10.75,1.19,3.92,2.23,8.11,5.31,8.72,10,.36,2.72-.6,5.51-.09,8.2,1.23,6.44,10.25,10,9,16.47-1,5.22-7.57,6-11.82,8.83-3.68,2.45-5.81,6.83-9,9.91s-9,4.4-11.5.63a27.41,27.41,0,0,1-1.49-3.26c-3.14-6.46-11.74-6.44-17.69-10a5.31,5.31,0,0,1-2.51-2.73,4.62,4.62,0,0,1,0-2.5c1.95-8.51,10.45-2.73,14.53-7.45C374.69,1485.84,374.79,1476,377.3,1468.11Z"/><path class="cls-6" d="M912.48,1260.3c-1.38-4.06,4-4.53,6.69-5.75,1.75-.8,4.4-3.32,5.06-5.2.76-2.12.69-3.23,2.73-4.63,2.34-1.61,6.3-1.75,7.82.75a16.49,16.49,0,0,1,1.14,3.76c.52,1.66,1.81,3.08,1.78,4.92-.06,4-4.78,6.49-6.11,10.11-1.11,3-1.24,7.06-4.5,8.79s-4.66-2.86-7.79-2c-1.38.36-2.14.86-3.24-.15a7.53,7.53,0,0,1-1.72-3.16C913.49,1265.3,913.29,1262.69,912.48,1260.3Z"/><path class="cls-7" d="M378.67,1560.64a8.59,8.59,0,0,1,4.91-4c2-.75,4.11-1.07,6.12-1.77a18,18,0,0,0,6.66-4.16c2.5-2.44,4.37-5.65,7.24-7.59s7.4-2,9,1.22c.45.89.61,1.92,1,2.83,1.57,3.33,5.85,3.73,8.65,6a2.75,2.75,0,0,1,1.07,1.46,3.47,3.47,0,0,1-.75,2.52l-4,6.48a12.64,12.64,0,0,1-3.73,4.36,9.39,9.39,0,0,1-4.7,1.13c-5.44.13-11-1.66-16.23,0-2.07.67-4,1.88-6.18,2C383.51,1571.26,376.19,1565.79,378.67,1560.64Z"/><path class="cls-8" d="M707.91,1648.18c-1.06-3.5-1.17-7.5-3-10.53-2.18-3.6-6.35-5.15-9.78-7.46a3.49,3.49,0,0,1-1.83-2.44,5.36,5.36,0,0,1,.82-2.64c2.17-4.26,5.12-9.14,9.5-9.93,2.19-.39,4.22.38,6.32.64a15.84,15.84,0,0,0,12-4.07,10.86,10.86,0,0,1,2.79-2.11,6.32,6.32,0,0,1,4.16.13c2.72.74,5.49,1.5,7.72,3.13a8.27,8.27,0,0,1,3.54,7.39c-.5,5-5.79,9.39-5.88,14.37,0,1.15.25,2.24.28,3.38.11,4.1-2.8,8-5.53,11.49-2.95,3.72-6.3,10.73-11.11,9.58C712.64,1657.84,710.1,1652.66,707.91,1648.18Z"/><path class="cls-8" d="M393.52,1528.13a1.59,1.59,0,0,1,.64-.62c.72-.32,1.52.5,1.56,1.33a3.69,3.69,0,0,1-.93,2.23c-.57.76-2.91,3.37-3.48,1.33C391.13,1531.78,393.14,1528.7,393.52,1528.13Z"/><path class="cls-8" d="M368.89,1531.45a11.71,11.71,0,0,0-.55,2.68.55.55,0,0,0,.08.45.57.57,0,0,0,.3.15,3.84,3.84,0,0,0,2.59,0,4.47,4.47,0,0,0,1.86-2.73,5,5,0,0,0,.42-2.4,2.89,2.89,0,0,0-1.77-2.12,1.24,1.24,0,0,0-.66-.13c-.72.09-1,1.05-1.56,1.51a5.73,5.73,0,0,1-1.39.6c-.46.22-.89.73-.72,1.23a2.81,2.81,0,0,1,1.31.66"/><path class="cls-7" d="M713.6,619.21a2.08,2.08,0,0,0-.34-1.74c-.3-.28-.77-.35-1-.67-.45-.54,0-1.41.67-1.7a2.31,2.31,0,0,1,3,1.29,2,2,0,0,1,.11.35,7.35,7.35,0,0,0,.21,1.75,2.45,2.45,0,0,0,.57.71,11.51,11.51,0,0,0,4,2.47.62.62,0,0,1,.37.24.58.58,0,0,1-.11.52,5,5,0,0,1-2.23,1.88c.16.75-.65,1.3-1.34,1.63l-2,.95a2.22,2.22,0,0,1-.94.27.7.7,0,0,1-.69-.59c0-.51.47-.88.47-1.4,0-.1-.38-1.07-.42-1.28A19.32,19.32,0,0,1,713.6,619.21Z"/><path class="cls-7" d="M922.82,1260.08a5.5,5.5,0,0,0,.75-.85l1.55-2a.82.82,0,0,1,.87-.4h1.33a.67.67,0,0,1,.37.08.66.66,0,0,1,.24.33c.91,2.15.05,4.7-1.47,6.47a1.6,1.6,0,0,1-.52.45,2.29,2.29,0,0,1-.69.14c-.73.11-1.4.48-2.12.63-1.48.3-2.26-.76-2.33-2.13S921.78,1261,922.82,1260.08Z"/><path class="cls-8" d="M923.45,1260.8a3.3,3.3,0,0,0,2.1-1.21c.17-.29.23-.64.4-.93a.78.78,0,0,1,.81-.46.82.82,0,0,1,.52.63c.41,1.5-1.47,4.06-2.87,4.63a2.78,2.78,0,0,1-2.53-.29C920.8,1262.06,922.48,1261.09,923.45,1260.8Z"/><path class="cls-6" d="M929.08,610.22c2.36-3.58,6.07.41,8.65,1.75a11.79,11.79,0,0,0,7.22.8c2.13-.71,3-1.44,5.33-.69,2.71.85,5.24,3.89,4.21,6.63a16.78,16.78,0,0,1-2.27,3.21c-1,1.43-1.31,3.32-2.79,4.43-3.23,2.43-8.06.21-11.73,1.39-3.08,1-6.33,3.35-9.7,1.84s-.61-5.43-3.17-7.4c-1.13-.87-2-1.16-1.87-2.65a7.69,7.69,0,0,1,1.43-3.3C925.76,614.1,927.69,612.33,929.08,610.22Z"/><path class="cls-7" d="M935.61,618.24a4.74,4.74,0,0,0,1.13.07h2.55a1.08,1.08,0,0,1,.47.07,1.15,1.15,0,0,1,.39.37l.79,1.07a.61.61,0,0,1,.17.34.67.67,0,0,1-.12.39c-1.13,2-3.68,2.93-6,2.82a1.55,1.55,0,0,1-.67-.14,2.31,2.31,0,0,1-.54-.45c-.53-.51-1.23-.81-1.79-1.29-1.15-1-.79-2.25.24-3.15S934.27,618,935.61,618.24Z"/><path class="cls-8" d="M935.43,619.19a3.36,3.36,0,0,0,2.25.91c.33-.05.64-.2,1-.26a.79.79,0,0,1,.87.36.86.86,0,0,1-.18.8c-.94,1.24-4.11,1.33-5.42.58a2.76,2.76,0,0,1-1.32-2.17C932.81,617.87,934.61,618.6,935.43,619.19Z"/><path class="cls-7" d="M384.12,1469.47c.86.65,1.81,1.4,2.85,1.24.42-.07.81-.28,1.23-.35a1,1,0,0,1,1.1.48,1.15,1.15,0,0,1-.22,1.07c-1.19,1.68-5.21,1.8-6.88.79a3.76,3.76,0,0,1-1.67-2.93C380.79,1467.7,383.07,1468.69,384.12,1469.47Z"/><path class="cls-7" d="M398.45,1486.06c1.13,1.56,2.84,2.57,3.91,4.17s1.43,3.52,2.85,4.61a3.29,3.29,0,0,1,.78.66,1.63,1.63,0,0,1-.21,1.89,3.54,3.54,0,0,1-1.67,1,1.19,1.19,0,0,1-.72.08,1.33,1.33,0,0,1-.62-.53,22.92,22.92,0,0,1-3.29-6,17,17,0,0,0-1.64-3.82,23.32,23.32,0,0,1-2.21-2.92c-.37-.8-.53-4.33,1-4.21.75,0,.56,1.78.67,2.31A7.3,7.3,0,0,0,398.45,1486.06Z"/><path class="cls-6" d="M812.73,641.51a10,10,0,0,1-2.66-5.21c-.35-3.88,3.36-6.62,6.77-8.43,4-2.12,8.83-4,13.1-2,2.49,1.16,4.33,3.47,6.88,4.48,6.09,2.41,14-3.27,18.72,1.24,3.85,3.66,1,9.61,1.12,14.71.09,4.42,2.65,8.56,3.52,12.94s-1.11,10-5.64,10a26.58,26.58,0,0,1-3.55-.49c-7.14-.81-11.73,6.46-18,9.55a5.3,5.3,0,0,1-3.65.66,4.87,4.87,0,0,1-2.12-1.33c-6.14-6.21,3.29-10.28,1.5-16.26C826.29,653.22,818.06,647.87,812.73,641.51Z"/><path class="cls-7" d="M817.54,636.49c1-.38,2.14-.78,2.57-1.75.17-.39.2-.83.37-1.23a1,1,0,0,1,1-.67,1.16,1.16,0,0,1,.78.77c.78,1.9-1.27,5.36-3,6.23a3.77,3.77,0,0,1-3.37-.16C814.26,638.34,816.31,637,817.54,636.49Z"/><path class="cls-7" d="M839.22,633.28c1.92-.11,3.69-1,5.62-1.06s3.74.68,5.41.06a4.28,4.28,0,0,1,1-.3,1.65,1.65,0,0,1,1.48,1.19,3.55,3.55,0,0,1-.06,1.94,1.22,1.22,0,0,1-.32.64,1.3,1.3,0,0,1-.78.25,22.78,22.78,0,0,1-6.79-.42,16.72,16.72,0,0,0-4.1-.66,22.38,22.38,0,0,1-3.65.3c-.88-.11-3.94-1.88-3-3.08.45-.6,1.8.49,2.32.68A7.21,7.21,0,0,0,839.22,633.28Z"/><path class="cls-6" d="M874.35,800.82a4.52,4.52,0,0,1-.19,2.86c-.9,1.88-3.4,2.61-5.5,2.94-2.45.39-5.24.54-6.7-1-.85-.93-1.08-2.29-2-3.16-2.19-2.06-7.45-.58-8.44-3.43-.8-2.3,2.17-4.68,3.53-7.09,1.17-2.1,1.11-4.44,1.91-6.64s3.27-4.51,5.42-3.87a11,11,0,0,1,1.53.77c3.13,1.47,7.29-1.26,11.06-1.77a2.73,2.73,0,0,1,1.9.25,1.7,1.7,0,0,1,.63,1c1.17,3.85-4.38,4.34-5.19,7.42C871.21,793.24,873.6,797,874.35,800.82Z"/><path class="cls-6" d="M780.94,1695c2.7,2.6-1.4,6.63-3,9.45a17.07,17.07,0,0,0-1.93,7.89c.24,2.34.74,3.26-.32,5.83-1.2,3-4.27,5.72-6.47,4.57-1-.52-1.59-1.68-2.39-2.49-1.07-1.1-2.65-1.46-3.37-3.09-1.55-3.54,1.21-8.81.81-12.83-.33-3.37-1.82-6.95.07-10.62,2-3.83,4.81-.64,7-3.43,1-1.22,1.35-2.17,2.62-2a5,5,0,0,1,2.61,1.59C778.15,1691.36,779.35,1693.48,780.94,1695Z"/><path class="cls-7" d="M750.74,1557.83A6.74,6.74,0,0,1,749,1562c-1,1.23-2.19,2.3-3.21,3.52a15.56,15.56,0,0,0-2.78,5c-.76,2.32-.9,4.77-2,7s-3.92,4.16-5.91,3.2c-.56-.26-1-.72-1.53-1-2-1-4.77.58-7.19.63a1.64,1.64,0,0,1-1.12-.29,1.92,1.92,0,0,1-.33-1.62l.43-5a9,9,0,0,1,.91-3.82,8.56,8.56,0,0,1,2.53-2.59c3.3-2.38,7.3-3.85,10-6.93a22,22,0,0,1,3.17-3.65C744.42,1554.44,750.64,1554.13,750.74,1557.83Z"/><path class="cls-8" d="M301.09,1421.68c-.09,2.27-.81,4.64-.39,6.78.51,2.55,2.52,4.28,4,6.32a2.2,2.2,0,0,1,.53,1.79,3.38,3.38,0,0,1-1,1.39c-2,2.08-4.62,4.36-7.2,4-1.28-.2-2.25-1-3.37-1.62a8.82,8.82,0,0,0-7.45,0,6.42,6.42,0,0,1-2,.69,3.57,3.57,0,0,1-2.28-.9,13.33,13.33,0,0,1-3.66-3.36,5.33,5.33,0,0,1-.52-5c1.25-2.86,5-4.38,6.05-7.29.23-.67.3-1.36.5-2,.74-2.43,3.12-4.17,5.3-5.66,2.36-1.61,5.58-5.06,8-3.44C300.36,1415.07,300.75,1418.61,301.09,1421.68Z"/><path class="cls-8" d="M729.91,1573.87a1.38,1.38,0,0,1-.2.59.89.89,0,0,1-1.25.13l-.13-.13a2.16,2.16,0,0,1-.13-1.54c.11-.63.72-3,1.72-2.17C730.22,1571,730,1573.42,729.91,1573.87Z"/><path class="cls-8" d="M744,1561.67a6,6,0,0,0-.5-1.61.23.23,0,0,0-.19-.2.46.46,0,0,0-.23.05,3.65,3.65,0,0,0-1.6,1.11,3,3,0,0,0-.28,2.19,2.56,2.56,0,0,0,.5,1.41,1.73,1.73,0,0,0,1.75.34,1,1,0,0,0,.45-.22c.41-.35.28-1,.48-1.44a5.84,5.84,0,0,1,.67-.9c.21-.31.31-.75.05-.94a2.16,2.16,0,0,1-1,.23"/><path class="cls-7" d="M289.74,1430.84c.22.45.47,1,1,1a5.14,5.14,0,0,1,1.09-.1c.58.13.57,1,.2,1.54a2.16,2.16,0,0,1-3,.64l-.13-.09c-.32-.35-.49-.86-.91-1.1a2.07,2.07,0,0,0-.74-.19,10.76,10.76,0,0,0-4.18.47.62.62,0,0,1-.38,0c-.14-.07-.15-.26-.14-.42a4.94,4.94,0,0,1,.94-2.51c-.45-.43-.05-1.25.34-1.84l1.16-1.74a2.44,2.44,0,0,1,.62-.7c.27-.17.64-.18.78,0s0,.86.24,1.22c0,.07.75.53.87.66A13.68,13.68,0,0,1,289.74,1430.84Z"/><path class="cls-8" d="M964,1363.64c1.28,1.09,2.32,2.62,3.78,3.33,1.74.84,3.73.38,5.62.41a1.54,1.54,0,0,1,1.31.49,2.42,2.42,0,0,1,.34,1.23c.23,2.21.32,4.86-1.16,6.28a9.72,9.72,0,0,1-2.59,1.36,7.38,7.38,0,0,0-3.6,4.64,5.17,5.17,0,0,1-.54,1.53,2.83,2.83,0,0,1-1.63,1,10.23,10.23,0,0,1-3.74.75,3.75,3.75,0,0,1-3.2-2c-1.07-2.08-.12-5.13-1.34-7.09-.28-.45-.65-.81-1-1.24-1.06-1.57-.93-3.84-.74-5.88.2-2.2-.26-5.78,1.87-6.55C959.8,1361.08,962.06,1362.45,964,1363.64Z"/><path class="cls-7" d="M963.88,1374.88c.37.06.8.15,1.09-.16s.26-.55.47-.72.86.09,1,.58a1.77,1.77,0,0,1-1.19,2.19,2.66,2.66,0,0,0-1.09.06,1.74,1.74,0,0,0-.47.38,9.1,9.1,0,0,0-1.75,2.81.56.56,0,0,1-.17.26.35.35,0,0,1-.31-.11,3.65,3.65,0,0,1-1-1.73c-.46.08-.75-.54-.9-1l-.46-1.52a1.66,1.66,0,0,1-.11-.7c0-.24.2-.48.4-.47s.51.39.83.41c.06,0,.68-.22.81-.24A10.08,10.08,0,0,1,963.88,1374.88Z"/><path class="cls-7" d="M772.86,1702.11a7.25,7.25,0,0,0-.25,1.23l-.42,2.79a1.49,1.49,0,0,1-.14.51,1.34,1.34,0,0,1-.39.43l-1.06.86a.82.82,0,0,1-.33.18.48.48,0,0,1-.32-.13c-1.57-1.26-1.91-4-1.41-6.59a2.38,2.38,0,0,1,.24-.74,3.37,3.37,0,0,1,.48-.58c.53-.58.91-1.35,1.43-2,1-1.25,2.08-.85,2.69.29S773.32,1700.64,772.86,1702.11Z"/><path class="cls-8" d="M772.07,1701.9a4.86,4.86,0,0,0-1.17,2.46c0,.36.07.7.05,1.06a1.09,1.09,0,0,1-.46.95.53.53,0,0,1-.65-.2c-.92-1-.46-4.5.42-5.94.42-.68,1.48-1.54,2.11-1.42C773.67,1699,772.72,1701,772.07,1701.9Z"/><path class="cls-7" d="M870.71,802.46a2.65,2.65,0,0,0-1.69.43c-.18.16-.32.36-.51.52s-.47.27-.65.16a.44.44,0,0,1-.16-.48c.16-1,2.08-2.33,3.14-2.47.5-.07,1.35.16,1.53.59C872.76,802.08,871.41,802.43,870.71,802.46Z"/><path class="cls-7" d="M859.65,800.67c-.94-.24-2-.08-2.93-.35s-1.57-.89-2.53-.86a2.44,2.44,0,0,1-.54,0,.62.62,0,0,1-.37-.79,2.2,2.2,0,0,1,.57-.9.93.93,0,0,1,.33-.26.79.79,0,0,1,.43,0,10.09,10.09,0,0,1,3.07,1.23,7.29,7.29,0,0,0,1.74.93,11.19,11.19,0,0,1,1.8.42c.38.18,1.33,1.48.58,1.91-.38.21-.72-.51-.9-.68A3,3,0,0,0,859.65,800.67Z"/><path class="cls-6" d="M873.65,746.52a1.07,1.07,0,0,1-.12.66,2.35,2.35,0,0,1-1.46.82c-.63.15-1.33.25-1.66-.08s-.22-.5-.43-.67c-.5-.42-1.86,0-2-.59s.67-1.12,1.07-1.71a11.36,11.36,0,0,0,.64-1.58c.26-.52.94-1.12,1.46-1a1.66,1.66,0,0,1,.37.14c.75.26,1.86-.47,2.83-.68a.64.64,0,0,1,.47,0,.3.3,0,0,1,.13.2c.2.86-1.21,1.11-1.49,1.84C873,744.86,873.55,745.67,873.65,746.52Z"/><path class="cls-6" d="M868.52,742.09c-.14.64-1,.6-1.55.73a3.48,3.48,0,0,0-1.25.69,1.94,1.94,0,0,1-.82.65c-.51.19-1.14.13-1.17-.28a2.41,2.41,0,0,1,.14-.59,2.8,2.8,0,0,1,.14-.79c.36-.61,1.31-.89,1.83-1.41s.8-1.05,1.47-1.24.49.53,1.05.47c.25,0,.41-.09.5.09a1.1,1.1,0,0,1,0,.51C868.78,741.31,868.59,741.71,868.52,742.09Z"/><path class="cls-7" d="M697.79,1707.46a1.74,1.74,0,0,1,.38,1.14V1710a4.57,4.57,0,0,0,.33,1.55,10.65,10.65,0,0,1,.78,1.68,2.29,2.29,0,0,1-.49,2.07c-.14.11-.29.14-.43.24-.51.36-.73,1.35-1.13,2a.58.58,0,0,1-.24.25.4.4,0,0,1-.32-.18l-.75-.93a2.09,2.09,0,0,1-.46-.87,3.26,3.26,0,0,1,0-1.08,22.69,22.69,0,0,0,.59-3.75,7.58,7.58,0,0,1,0-1.43C696.15,1708.57,697.17,1706.88,697.79,1707.46Z"/><path class="cls-8" d="M704.65,1696.75c.35.39.62,1,1,1.21s1.13,0,1.71,0a.36.36,0,0,1,.38.16,1.29,1.29,0,0,1,.06.48,4.26,4.26,0,0,1-.59,2.54,3.71,3.71,0,0,1-.85.62,3.74,3.74,0,0,0-1.27,2,2.8,2.8,0,0,1-.23.63,1.16,1.16,0,0,1-.53.45,2.92,2.92,0,0,1-1.18.41.89.89,0,0,1-.91-.68c-.25-.8.16-2-.14-2.78-.07-.17-.17-.3-.25-.47a4.52,4.52,0,0,1,0-2.31c.15-.89.14-2.3.82-2.67A1.87,1.87,0,0,1,704.65,1696.75Z"/><path class="cls-8" d="M696.82,1715.56a.39.39,0,0,1,.06.15c0,.16-.12.35-.24.35s-.2-.1-.27-.21-.36-.68-.06-.81C696.4,1715,696.76,1715.47,696.82,1715.56Z"/><path class="cls-8" d="M697.25,1709.86a1,1,0,0,0-.34-.13h-.07v.07a1.54,1.54,0,0,0-.09.6.58.58,0,0,0,.3.43.38.38,0,0,0,.32.1c.14,0,.27-.2.36-.4v-.16c0-.16-.11-.23-.16-.36a1.71,1.71,0,0,1,0-.32c0-.11-.07-.21-.14-.17a1,1,0,0,1-.14.3"/><path class="cls-7" d="M704.19,1701.23a.31.31,0,0,0,.34-.1c.07-.08.1-.22.17-.3s.26,0,.29.2a.91.91,0,0,1-.45.91.46.46,0,0,0-.49.23,4.79,4.79,0,0,0-.65,1.17.24.24,0,0,1-.06.11h-.09a1.27,1.27,0,0,1-.25-.65c-.14,0-.21-.19-.23-.39l-.09-.59a1.31,1.31,0,0,1,0-.28c0-.1.08-.2.15-.2s.14.14.23.14l.26-.12A2.33,2.33,0,0,1,704.19,1701.23Z"/><path class="cls-7" d="M866.87,741.91a1.18,1.18,0,0,0-.19.11l-.42.28h-.38v-.06a1.57,1.57,0,0,1,.78-1,.31.31,0,0,1,.13-.06h.12a1,1,0,0,0,.38,0c.12,0,.29.17.19.38S867.11,741.79,866.87,741.91Z"/><path class="cls-8" d="M866.83,741.78a.86.86,0,0,0-.44.15l-.14.13a.21.21,0,0,1-.17.05V742a1.42,1.42,0,0,1,.85-.65c.12,0,.33,0,.37.1S867,741.76,866.83,741.78Z"/><path class="cls-7" d="M872.69,747a.85.85,0,0,0-.44.14l-.14.13c-.05,0-.12.08-.17.06a.08.08,0,0,1,0-.11,1.42,1.42,0,0,1,.85-.65c.12,0,.33,0,.37.1S872.87,747,872.69,747Z"/><path class="cls-7" d="M870,746.85h-.73a1.91,1.91,0,0,0-.62-.13h-.13c-.08,0-.1-.09-.07-.17a.5.5,0,0,1,.16-.22.25.25,0,0,1,.09-.07h.11a2.33,2.33,0,0,1,.74.21,1.94,1.94,0,0,0,.42.17,1.62,1.62,0,0,1,.44,0c.09,0,.3.31.1.42s-.17-.09-.21-.13A.64.64,0,0,0,870,746.85Z"/><path class="cls-6" d="M976.65,1445.06a1,1,0,0,1,.44.5,2.27,2.27,0,0,1-.25,1.65c-.27.58-.62,1.21-1.08,1.26-.27,0-.53-.14-.79-.08-.64.14-1.11,1.5-1.72,1.26s-.48-1.22-.7-1.9a10.82,10.82,0,0,0-.84-1.48,1.7,1.7,0,0,1,.09-1.78,1.81,1.81,0,0,1,.33-.2c.67-.43.78-1.76,1.2-2.65a.71.71,0,0,1,.3-.36.33.33,0,0,1,.24,0c.8.37.13,1.64.54,2.31C975,1444.51,975.91,1444.61,976.65,1445.06Z"/><path class="cls-6" d="M970,1446.38c.43.5-.15,1.18-.37,1.67a3.57,3.57,0,0,0-.22,1.41,1.89,1.89,0,0,1,0,1c-.15.52-.59,1-.93.75a2.23,2.23,0,0,1-.38-.48c-.17-.21-.41-.29-.54-.59-.26-.66.11-1.58,0-2.31a3.79,3.79,0,0,1-.09-1.92c.27-.67.72-.06,1-.54.13-.21.19-.38.38-.34a.81.81,0,0,1,.41.32C969.54,1445.69,969.74,1446.09,970,1446.38Z"/><path class="cls-7" d="M968.84,1447.57v.81l-.06.07-.15.15h0a1.58,1.58,0,0,1-.27-1.21v-.13a.36.36,0,0,1,.07-.1c.07-.1.13-.23.2-.33a.24.24,0,0,1,.4.08C969.13,1447.12,968.9,1447.31,968.84,1447.57Z"/><path class="cls-8" d="M968.72,1447.53a.84.84,0,0,0-.16.43v.19a.22.22,0,0,1-.06.17h-.1a1.42,1.42,0,0,1,0-1.07c.06-.11.21-.26.31-.23S968.81,1447.37,968.72,1447.53Z"/><path class="cls-7" d="M976.42,1446.1a.86.86,0,0,0-.15.43.61.61,0,0,0,0,.19c0,.07,0,.15-.06.17s-.08,0-.11-.05a1.49,1.49,0,0,1,0-1.06c0-.12.21-.26.3-.24S976.51,1445.94,976.42,1446.1Z"/><path class="cls-7" d="M974.63,1448.18c-.16.16-.28.41-.45.57s-.36.19-.49.4a.41.41,0,0,1-.07.11.11.11,0,0,1-.15,0l0,0a.83.83,0,0,1-.07-.27.21.21,0,0,1,0-.11.15.15,0,0,1,.06-.09,2,2,0,0,1,.62-.46,1.87,1.87,0,0,0,.39-.22c.11-.1.19-.25.31-.32s.43,0,.4.18-.18.07-.24.09A.7.7,0,0,0,974.63,1448.18Z"/><path class="cls-6" d="M992.88,853.39a1,1,0,0,1-.11.66,2.35,2.35,0,0,1-1.46.82c-.63.15-1.33.25-1.66-.08s-.22-.5-.43-.67c-.5-.42-1.86,0-2-.58s.67-1.13,1.07-1.72a10.25,10.25,0,0,0,.64-1.58c.26-.52.93-1.12,1.46-1a2.35,2.35,0,0,1,.37.14c.75.26,1.86-.47,2.82-.68a.66.66,0,0,1,.48,0,.3.3,0,0,1,.13.2c.2.86-1.21,1.11-1.49,1.84C992.28,851.73,992.79,852.54,992.88,853.39Z"/><path class="cls-6" d="M987.75,849c-.13.64-1,.6-1.54.73a3.48,3.48,0,0,0-1.25.69,1.94,1.94,0,0,1-.82.65c-.51.19-1.15.13-1.17-.28a2.41,2.41,0,0,1,.14-.59,2.8,2.8,0,0,1,.14-.79c.36-.61,1.31-.89,1.83-1.41s.8-1,1.47-1.24.48.53,1.05.47c.24,0,.41-.09.49.09a.77.77,0,0,1,0,.52C988,848.18,987.83,848.58,987.75,849Z"/><path class="cls-7" d="M986.11,848.78l-.2.11-.41.28h-.38v-.06a1.57,1.57,0,0,1,.78-1l.12-.06h.12a1,1,0,0,0,.39,0c.12,0,.29.17.19.38S986.35,848.66,986.11,848.78Z"/><path class="cls-8" d="M986.07,848.65a.86.86,0,0,0-.44.15l-.14.13a.21.21,0,0,1-.17.05v-.1a1.42,1.42,0,0,1,.85-.65c.12,0,.33,0,.37.1S986.25,848.63,986.07,848.65Z"/><path class="cls-7" d="M991.93,853.86a.85.85,0,0,0-.44.14l-.14.13c-.05,0-.12.08-.17.06s0-.07,0-.11a1.5,1.5,0,0,1,.85-.65c.13,0,.34,0,.38.1S992.1,853.83,991.93,853.86Z"/><path class="cls-7" d="M989.19,853.72h-.73a1.91,1.91,0,0,0-.62-.13h-.13c-.08,0-.1-.09-.08-.17a.72.72,0,0,1,.17-.22.16.16,0,0,1,.09-.07H988a2.33,2.33,0,0,1,.74.21,1.54,1.54,0,0,0,.42.17,1.62,1.62,0,0,1,.44,0c.09,0,.3.31.09.43s-.16-.1-.21-.14A.6.6,0,0,0,989.19,853.72Z"/><path class="cls-1" d="M251.91,1638.73a83.24,83.24,0,0,1-21.88-4.5l5.82-17a66.06,66.06,0,0,0,17.17,3.57Zm32.93-6.09-6.34-16.84c5.62-2.12,11.23-4.55,17.92-7.55l7.36,16.43C296.79,1627.81,290.89,1630.37,284.84,1632.64Zm-83.62-13.11a150.06,150.06,0,0,1-16.66-13.25L196.73,1593a130.62,130.62,0,0,0,14.64,11.64Zm442.34-3.36c-6.95-1.28-13.36-2.43-19.58-3.5l3-17.74c6.29,1.08,12.77,2.24,19.81,3.54Zm-312.74-3-6.24-16.88a149.3,149.3,0,0,1,16.63-5.16l3.63-.87,4,17.55c-1.13.26-2.26.52-3.39.8A132.24,132.24,0,0,0,330.82,1613.15ZM594.59,1608c-6.79-1-13.38-1.83-19.59-2.55l2.06-17.88c6.37.74,13.13,1.62,20.08,2.61Zm-49-5.13c-3-.17-6-.3-8.93-.39q-5.44-.16-10.89-.38l.69-18q5.37.21,10.76.38c3,.09,6.19.23,9.38.41Zm-168.07-.28-2.39-17.84c6.56-.88,13.41-1.6,20.36-2.16l1.44,17.94C390.33,1601.08,383.8,1601.77,377.56,1602.61Zm118.21-1.8q-10-.46-19.92-.86l.7-18q10,.39,20,.87Zm-69.4-1.64-.31-18c6.39-.11,13.39-.12,20.26,0l-.22,18C439.41,1599.05,432.59,1599.06,426.37,1599.17Zm-262.88-17a102.74,102.74,0,0,1-7.64-13.16l-1.62-3.37,1.25-3.52c.63-1.81,1.26-3.67,1.85-5.54l14.67,4.68.08,0,0,.07,2.37.76c-.25.79-.51,1.58-.77,2.37a88.54,88.54,0,0,0,4.67,7.63Zm18.4-50.36-17.71-3.2c1.09-6,2-12.32,2.84-19.24l17.87,2.12C184,1518.77,183,1525.42,181.89,1531.8Zm5.77-50.59-17.95-1.31q.34-4.85.68-9.69.36-5.13.73-10.26l17.95,1.31c-.25,3.4-.48,6.8-.72,10.21Zm4.13-49.39-17.87-2.16c.88-7.31,1.88-14,3.06-20.33l17.7,3.27C193.57,1418.6,192.63,1424.89,191.79,1431.82Zm9.9-47.2-17.15-5.47c1.94-6.09,4.18-12.42,6.85-19.34l16.8,6.46C205.65,1372.87,203.52,1378.87,201.69,1384.62Zm17.82-45.76-16.54-7.1,1.78-4.16q3-7.08,6.06-14.17l16.59,7c-2,4.78-4.06,9.54-6.11,14.3Zm19-46.88-17-6c2.29-6.52,4.18-12.55,5.77-18.44l17.38,4.7C243,1278.58,241,1285,238.53,1292Zm12.07-50.54-17.9-1.91c.21-1.94.38-3.89.51-5.81.17-2.55.26-5.1.26-7.55,0-1.74-.05-3.48-.13-5.19l18-.92c.11,2,.16,4.07.16,6.11,0,2.86-.1,5.81-.3,8.77C251,1237.08,250.83,1239.27,250.6,1241.44Zm-22.54-47.38a184.68,184.68,0,0,0-7.14-17.68l16.39-7.45a201,201,0,0,1,7.81,19.39Zm-20-45.15a133.11,133.11,0,0,1-6.43-20.44l17.54-4a115.08,115.08,0,0,0,5.56,17.68Zm-10.44-51.82c-.11-2.76-.16-5.62-.16-8.5,0-4,.1-8.1.31-12.29l18,.88c-.19,3.9-.29,7.74-.29,11.41,0,2.64.05,5.26.15,7.79Zm21-49-17.83-2.45c.84-6.11,1.86-12.67,3.12-20.05l17.75,3C220.36,1035.83,219.37,1042.2,218.56,1048.11Zm154.45-10c-3.86,0-7.81-.14-11.73-.41l1.23-18a150.48,150.48,0,0,0,18.86.13l1,18C379.3,1038,376.15,1038.11,373,1038.11Zm-42.91-5.38c-5.14-1.3-10.22-2.84-15.1-4.57a55,55,0,0,1-5.58-2.36l7.88-16.18a36.59,36.59,0,0,0,3.74,1.58c4.34,1.55,8.88,2.92,13.47,4.08Zm83.79-.07L409,1015.35c3-.87,6-1.86,8.91-3a60.3,60.3,0,0,0,7.74-3.61l8.71,15.75a78.59,78.59,0,0,1-10,4.68C421,1030.49,417.45,1031.65,413.89,1032.66Zm-179.41-19.41-9.37-15.37,9.8-5.93,7.33-4.43,9.34,15.39-7.37,4.45C241,1009.33,237.68,1011.3,234.48,1013.25Zm555-1.5-.57-18c6.21-.2,12.77-.58,19.51-1.14l1.49,17.94C802.91,1011.14,796,1011.54,789.52,1011.75Zm-30.88-.51c-7-.48-13.92-1.24-20.6-2.24l2.68-17.8c6.2.93,12.65,1.63,19.15,2.08Zm-475.3-4.1a113.19,113.19,0,0,0-14.9-10.91l9-15.6a129.51,129.51,0,0,1,17.39,12.64Zm176.55-1.61L448,992l2.65-2.32c4.14-3.64,8.42-7.41,12.89-10.95l11.18,14.11c-4.11,3.25-8,6.7-12.19,10.36Zm247.69-3.23-3.36-1c-4.62-1.43-9.55-3-16-5.12l5.6-17.1c6.33,2.07,11.18,3.62,15.7,5l3.09.93Zm135.73-2.38L830.19,987.6c4.56-4.85,8.81-9.75,12.65-14.54l14.06,11.25C852.76,989.47,848.19,994.72,843.31,999.92Zm-183.49-13c-7-2.21-13.18-4-18.86-5.59L645.72,964c5.9,1.62,12.27,3.5,19.49,5.78ZM497.9,979.46l-5.71-17.08c1.17-.39,2.37-.75,3.56-1.09,5.35-1.48,11.12-2.77,17.17-3.84l3.13,17.72c-5.48,1-10.69,2.14-15.48,3.47C499.68,978.89,498.78,979.16,497.9,979.46Zm114.69-4.53c-5.48-.93-10.89-1.62-16.07-2.07l-3-.25,1.43-18,3.12.26c5.66.5,11.55,1.26,17.5,2.26Zm-67.79-3-1-18c6.45-.37,13.18-.56,20-.56h.52v18h-.57C557.29,971.42,550.91,971.6,544.8,972Zm329.86-13.39-15.55-9.08a184.14,184.14,0,0,0,8.75-16.93l16.4,7.42A202.69,202.69,0,0,1,874.66,958.56Zm-7-47.69c-2-6.29-4.3-13.65-5-21.45l17.93-1.54c.46,5.29,2,10.78,4.15,17.4Zm18.53-49-17.38-4.72a114.85,114.85,0,0,0,3.4-18.21l17.9,1.87A133.17,133.17,0,0,1,886.2,861.86Zm-14.15-51c-.61-5.92-1.57-12.11-2.92-18.93l17.66-3.5c1.46,7.36,2.5,14.09,3.17,20.58Zm-9.76-47.56-1.35-5.1c-1.24-4.68-2.52-9.53-3.74-14.33l17.45-4.43c1.19,4.72,2.46,9.51,3.69,14.16l1.36,5.11Zm-11.54-49.54a194.86,194.86,0,0,1-2.28-20.83l18-.93a174.53,174.53,0,0,0,2.07,18.9Zm17.12-50L850,661.35c.9-6.75,1.83-13.44,2.76-19.91L870.61,644C869.69,650.42,868.76,657.05,867.87,663.74Zm7.26-49.22-17.77-2.9c1.11-6.77,2.25-13.45,3.38-19.86l17.73,3.15C877.34,601.23,876.22,607.83,875.13,614.52ZM884,565.65l-17.64-3.6c1.38-6.74,2.8-13.38,4.23-19.74l17.56,4C886.79,552.5,885.39,559,884,565.65Zm11.17-48.21-17.4-4.59c1.77-6.72,3.61-13.29,5.46-19.53l17.25,5.12C898.73,504.5,896.94,510.9,895.21,517.44Zm14.5-47.29-17.1-5.61a115.57,115.57,0,0,0,4.31-18l17.78,2.79A132.55,132.55,0,0,1,909.71,470.15Zm-11.5-51.61a136.4,136.4,0,0,0-2.4-18.59l17.65-3.54a155.19,155.19,0,0,1,2.72,21ZM887.4,373.28A112.09,112.09,0,0,0,881.64,362a42.92,42.92,0,0,0-2.91-4.36L893,346.76a61.23,61.23,0,0,1,4.13,6.16A131.12,131.12,0,0,1,903.85,366ZM716.6,359.77A93.25,93.25,0,0,1,695,357l4.15-17.51a75.8,75.8,0,0,0,17.49,2.27h.17l.11,18ZM276.52,353l-12.11-13.32a135,135,0,0,1,16.94-13.09l9.85,15.07A117,117,0,0,0,276.52,353Zm472.88-1.18-7.51-16.35c1.88-.86,3.75-1.77,5.66-2.68,4-1.94,8.18-3.93,12.86-5.84l6.78,16.68c-4.16,1.69-8.07,3.57-11.85,5.38C753.34,350,751.37,350.91,749.4,351.81Zm-84.2-5.57c-6.26-2.77-13.11-5.93-18.37-8.38l7.58-16.32c5.2,2.41,12,5.53,18.07,8.24Zm193.51-3.1a82.85,82.85,0,0,0-17.44-4.51l2.8-17.78a100.3,100.3,0,0,1,21.2,5.53Zm-65.07-6-1.71-17.92c4.14-.39,8.5-.59,13-.59H805c2.65,0,5.24,0,7.84,0l-.22,18q-3.81,0-7.55,0H805C801,336.61,797.21,336.78,793.64,337.12ZM416.46,330a50.75,50.75,0,0,1-6.53-.43l2.32-17.85a32.81,32.81,0,0,0,4.21.28,32.3,32.3,0,0,0,11.26-2.23l6,17A50.12,50.12,0,0,1,416.46,330Zm-100.31-.89-6.24-16.88a148.88,148.88,0,0,1,20.44-5.92l3.75,17.61A129.31,129.31,0,0,0,316.15,329.12Zm303.46-3.93c-6.93-3.19-12.85-5.87-18.1-8.17l7.23-16.48c5.35,2.35,11.37,5.06,18.41,8.3Zm-239.12-2.53a124.27,124.27,0,0,0-18.56-1.56l.16-18a143.17,143.17,0,0,1,21.27,1.79Zm79.56-2.51-.77-18c1.31-.06,2.67-.09,4-.09a79.62,79.62,0,0,0,14.49-1.8L481.26,318a96.55,96.55,0,0,1-17.94,2.13C462.21,320.08,461.11,320.1,460.05,320.15ZM511,310.8l-4.51-17.42c6.76-1.76,13.36-3.45,19.66-4.9l4,17.54C524.08,307.42,517.87,309,511,310.8Zm63.34-4.7c-6.55-2.25-11.6-3.57-15-3.91-.57-.06-1.17-.09-1.8-.12l.61-18c1,0,2,.1,3,.2,4.88.48,11.12,2.05,19.1,4.8Z"/></svg>