<?xml version="1.0" encoding="utf-8"?>
<!-- Generator: Adobe Illustrator 23.0.2, SVG Export Plug-In . SVG Version: 6.00 Build 0)  -->
<svg version="1.1" id="Layer_1" xmlns="http://www.w3.org/2000/svg" xmlns:xlink="http://www.w3.org/1999/xlink" x="0px" y="0px"
	 viewBox="0 0 1080 1920" style="enable-background:new 0 0 1080 1920;" xml:space="preserve">
<style type="text/css">
	.st0{fill:#FFFFFF;}
	.st1{fill:#101D2D;}
	.st2{fill:#E56915;}
	.st3{fill:#EDDC0F;}
	.st4{fill:#1FDCE5;}
	.st5{fill:#686868;}
	.st6{fill:#4F4F4F;}
	.st7{fill:#424242;}
</style>
<title>map_background_6</title>
<rect class="st0" width="1080" height="1920"/>
<rect class="st1" width="1080" height="1920"/>
<circle class="st0" cx="132.7" cy="1601" r="3.3"/>
<circle class="st2" cx="160" cy="1673.7" r="3.3"/>
<circle class="st0" cx="220.6" cy="1482.4" r="3.3"/>
<circle class="st0" cx="182.2" cy="1228.5" r="2.7"/>
<circle class="st3" cx="87" cy="1089.3" r="3.3"/>
<circle class="st0" cx="115.3" cy="1852.8" r="3.3"/>
<circle class="st4" cx="259" cy="1856.1" r="3.3"/>
<circle class="st4" cx="347.5" cy="1868.1" r="3.3"/>
<circle class="st4" cx="383.7" cy="1787.4" r="3.3"/>
<circle class="st4" cx="272.9" cy="1673.7" r="3.3"/>
<ellipse transform="matrix(0.6143 -0.7891 0.7891 0.6143 -972.1676 1161.5219)" class="st4" cx="702" cy="1575.2" rx="3.3" ry="3.3"/>
<circle class="st4" cx="358.5" cy="698.2" r="3.3"/>
<ellipse transform="matrix(0.6143 -0.7891 0.7891 0.6143 -1086.6263 1140.4825)" class="st4" cx="623.3" cy="1681.7" rx="3.3" ry="3.3"/>
<ellipse transform="matrix(0.6143 -0.7891 0.7891 0.6143 -1025.9758 1235.9863)" class="st4" cx="751.3" cy="1667.4" rx="3.3" ry="3.3"/>
<circle class="st0" cx="328" cy="1821.4" r="3.3"/>
<circle class="st0" cx="339.7" cy="1619.6" r="3.3"/>
<circle class="st0" cx="68.8" cy="1195" r="2"/>
<circle class="st0" cx="95.8" cy="1266.9" r="3.3"/>
<circle class="st0" cx="166.6" cy="1089" r="3.3"/>
<circle class="st0" cx="683.1" cy="1492.5" r="3.3"/>
<ellipse transform="matrix(0.6143 -0.7891 0.7891 0.6143 -925.5501 1224.5531)" class="st0" cx="789.8" cy="1559" rx="3.3" ry="3.3"/>
<ellipse transform="matrix(0.6143 -0.7891 0.7891 0.6143 -982.5027 1196.5295)" class="st0" cx="732.7" cy="1603.3" rx="3.3" ry="3.3"/>
<circle class="st0" cx="321.4" cy="1296.9" r="3.3"/>
<circle class="st0" cx="76" cy="1705.4" r="3.3"/>
<circle class="st2" cx="155.9" cy="1077.4" r="3.3"/>
<circle class="st0" cx="118.2" cy="821.5" r="3.3"/>
<circle class="st0" cx="22.6" cy="682.6" r="3.3"/>
<circle class="st2" cx="50.8" cy="1446.1" r="3.3"/>
<circle class="st2" cx="193.9" cy="1447.7" r="3.3"/>
<circle class="st0" cx="263.6" cy="1414.7" r="1.7"/>
<circle class="st0" cx="275.2" cy="1212.9" r="0.7"/>
<path class="st0" d="M640.5,1727.1c0.7-0.9,1.9-1.1,2.8-0.4l0,0l2.5,1.9l2.1-2.7c0.7-1,2-1.2,3-0.6s1.2,2,0.6,3c0,0,0,0.1-0.1,0.1
	c0,0-0.1,0.1-0.1,0.1l-2.1,2.7l2.5,1.9c0.9,0.7,1,2,0.3,2.8s-2,1-2.8,0.3l-2.5-1.9l-2.2,2.8c-0.7,0.9-2.1,1.1-3,0.4
	c-0.9-0.7-1.1-2-0.5-2.9c0,0,0.1-0.1,0.1-0.1l2.2-2.8l-2.5-1.9C639.9,1729.3,639.7,1728,640.5,1727.1L640.5,1727.1z"/>
<path class="st0" d="M83.8,969.4c1.1,0,2,0.9,2,2v3.1h3.4c1.2-0.1,2.2,0.8,2.3,2c0.1,1.2-0.8,2.2-2,2.3h-3.7v3.2c0,1.1-0.9,2-2,2
	s-2-0.9-2-2v-3.1h-3.6c-1.2,0-2.2-0.9-2.2-2.1c0,0,0,0,0,0l0,0c0-1.2,1-2.1,2.2-2.2h3.6v-3.1C81.7,970.4,82.6,969.5,83.8,969.4
	L83.8,969.4z"/>
<ellipse class="st0" cx="864.5" cy="962.5" rx="3.7" ry="3.8"/>
<ellipse class="st2" cx="894.4" cy="1045.3" rx="3.7" ry="3.8"/>
<ellipse class="st0" cx="961.1" cy="827.2" rx="3.7" ry="3.8"/>
<ellipse class="st0" cx="918.9" cy="537.6" rx="2.9" ry="3"/>
<ellipse class="st3" cx="814.3" cy="378.9" rx="3.7" ry="3.8"/>
<ellipse class="st3" cx="708.1" cy="449.8" rx="3.7" ry="3.8"/>
<ellipse class="st2" cx="649.8" cy="607.4" rx="3.7" ry="3.8"/>
<ellipse class="st0" cx="686.4" cy="730.5" rx="3.7" ry="3.8"/>
<ellipse class="st0" cx="845.4" cy="1249.6" rx="3.7" ry="3.8"/>
<ellipse class="st4" cx="1003.3" cy="1253.4" rx="3.7" ry="3.8"/>
<ellipse class="st4" cx="1018.6" cy="1045.3" rx="3.7" ry="3.8"/>
<ellipse class="st4" cx="1037.9" cy="100.2" rx="3.7" ry="3.8"/>
<ellipse class="st0" cx="1079.2" cy="1213.8" rx="3.7" ry="3.8"/>
<ellipse class="st0" cx="794.3" cy="499.4" rx="2.2" ry="2.3"/>
<ellipse class="st0" cx="253.9" cy="1422.4" rx="4.6" ry="5.1"/>
<ellipse class="st0" cx="901.7" cy="378.6" rx="3.6" ry="3.8"/>
<ellipse class="st0" cx="1071.9" cy="615.7" rx="3.6" ry="3.8"/>
<ellipse class="st0" cx="802.2" cy="1081.6" rx="3.6" ry="3.8"/>
<ellipse class="st2" cx="890" cy="365.3" rx="3.6" ry="3.8"/>
<ellipse class="st0" cx="848.5" cy="73.4" rx="3.7" ry="3.8"/>
<ellipse class="st0" cx="578.9" cy="143.6" rx="3.7" ry="3.8"/>
<ellipse class="st0" cx="615.6" cy="266.6" rx="3.7" ry="3.8"/>
<ellipse transform="matrix(0.6143 -0.7891 0.7891 0.6143 -659.9158 1176.9786)" class="st2" cx="874" cy="1263.5" rx="3.7" ry="3.8"/>
<ellipse class="st2" cx="931.8" cy="787.6" rx="3.6" ry="3.8"/>
<ellipse class="st0" cx="1008.3" cy="750" rx="1.8" ry="1.9"/>
<ellipse class="st0" cx="1021.1" cy="519.8" rx="0.7" ry="0.8"/>
<path class="st0" d="M1007.8,1453.1c0.4-0.5,0.9-0.8,1.5-0.8c0.6-0.1,1.2,0.1,1.7,0.5l2.8,2.2l2.3-3c0.9-1,2.4-1.1,3.5-0.2
	c0.9,0.8,1.1,2.2,0.4,3.2l-2.3,3l2.8,2.2c1,0.7,1.2,2.2,0.5,3.2c0,0,0,0,0,0c-0.4,0.5-0.9,0.8-1.5,0.8c-0.6,0.1-1.2-0.1-1.7-0.5
	l-2.8-2.2l-2.4,3.1c-0.8,1-2.3,1.2-3.4,0.4c-0.5-0.4-0.8-1-0.9-1.6c-0.1-0.6,0.1-1.3,0.5-1.8l2.4-3.1l-2.8-2.2
	C1007.3,1455.5,1007.1,1454.1,1007.8,1453.1z"/>
<path class="st0" d="M1010.2,147.4c0.6,0,1.2,0.2,1.6,0.7c0.4,0.4,0.7,1,0.7,1.6v3.6h3.7c1.4,0,2.4,1.1,2.4,2.5
	c0,1.4-1.1,2.4-2.4,2.4h-3.7v3.6c0.1,1.2-0.9,2.3-2.1,2.3c-0.6,0-1.2-0.2-1.7-0.7c-0.4-0.4-0.7-1-0.7-1.6v-3.6h-3.9
	c-1.3,0-2.4-1.1-2.4-2.4c0-0.6,0.2-1.3,0.7-1.7c0.4-0.5,1-0.7,1.7-0.7h3.9v-3.6C1008,148.5,1009,147.4,1010.2,147.4
	C1010.2,147.4,1010.2,147.4,1010.2,147.4z"/>
<path class="st0" d="M810.7,242.2c0.6,0,1.2,0.2,1.6,0.7c0.4,0.4,0.7,1,0.7,1.6v3.5h3.7c1.4,0,2.4,1.1,2.4,2.5
	c0,1.4-1.1,2.4-2.4,2.4H813v3.6c0,1.2-1,2.3-2.2,2.3c-0.6,0-1.2-0.2-1.6-0.7c-0.4-0.4-0.7-1-0.7-1.6v-3.6h-4c-1.3,0-2.4-1.1-2.4-2.4
	c0-0.6,0.2-1.3,0.7-1.7c0.4-0.5,1-0.7,1.7-0.7h4v-3.6C808.6,243.2,809.5,242.2,810.7,242.2z"/>
<ellipse class="st0" cx="344.7" cy="1235.3" rx="11.5" ry="9.7"/>
<ellipse class="st2" cx="438.8" cy="1447.6" rx="11.5" ry="9.7"/>
<ellipse transform="matrix(0.6143 -0.7891 0.7891 0.6143 -786.7826 1242.4542)" class="st0" cx="877.5" cy="1426" rx="11.5" ry="9.7"/>
<ellipse class="st0" cx="515.5" cy="146.4" rx="9.2" ry="7.8"/>
<ellipse class="st4" cx="829" cy="1447.6" rx="11.5" ry="9.7"/>
<ellipse class="st0" cx="1019.4" cy="1879.5" rx="11.5" ry="9.7"/>
<ellipse class="st0" cx="1059.6" cy="1289.5" rx="11.5" ry="9.7"/>
<ellipse class="st0" cx="124" cy="48.4" rx="6.9" ry="5.8"/>
<ellipse class="st0" cx="217.2" cy="258.8" rx="11.4" ry="9.6"/>
<ellipse class="st0" cx="996.6" cy="346.4" rx="11.4" ry="9.6"/>
<ellipse class="st0" cx="148.9" cy="1540.5" rx="11.4" ry="9.6"/>
<ellipse class="st2" cx="61.8" cy="782.5" rx="11.5" ry="9.7"/>
<ellipse transform="matrix(0.6143 -0.7891 0.7891 0.6143 -847.873 1138.6759)" class="st2" cx="740.8" cy="1436.6" rx="11.4" ry="9.6"/>
<ellipse class="st0" cx="836.9" cy="100.8" rx="2.3" ry="1.9"/>
<path class="st5" d="M377.3,1468.1c0.5-1.9,1.5-3.7,3-5c3.1-2.4,7.4-0.7,10.8,1.2c3.9,2.2,8.1,5.3,8.7,10c0.4,2.7-0.6,5.5-0.1,8.2
	c1.2,6.4,10.2,10,9,16.5c-1,5.2-7.6,6-11.8,8.8c-3.7,2.4-5.8,6.8-9,9.9s-9,4.4-11.5,0.6c-0.6-1.1-1.1-2.1-1.5-3.3
	c-3.1-6.5-11.7-6.4-17.7-10c-1.1-0.6-2-1.5-2.5-2.7c-0.2-0.8-0.2-1.7,0-2.5c2-8.5,10.5-2.7,14.5-7.4
	C374.7,1485.8,374.8,1476,377.3,1468.1z"/>
<path class="st5" d="M912.5,1260.3c-1.4-4.1,4-4.5,6.7-5.8c1.8-0.8,4.4-3.3,5.1-5.2c0.8-2.1,0.7-3.2,2.7-4.6
	c2.3-1.6,6.3-1.8,7.8,0.8c0.5,1.2,0.9,2.5,1.1,3.8c0.5,1.7,1.8,3.1,1.8,4.9c-0.1,4-4.8,6.5-6.1,10.1c-1.1,3-1.2,7.1-4.5,8.8
	s-4.7-2.9-7.8-2c-1.4,0.4-2.1,0.9-3.2-0.2c-0.8-0.9-1.4-2-1.7-3.2C913.5,1265.3,913.3,1262.7,912.5,1260.3z"/>
<path class="st6" d="M378.7,1560.6c1.1-1.9,2.8-3.3,4.9-4c2-0.8,4.1-1.1,6.1-1.8c2.5-0.9,4.8-2.3,6.7-4.2c2.5-2.4,4.4-5.7,7.2-7.6
	s7.4-2,9,1.2c0.5,0.9,0.6,1.9,1,2.8c1.6,3.3,5.9,3.7,8.6,6c0.5,0.4,0.9,0.9,1.1,1.5c0.1,0.9-0.2,1.8-0.8,2.5l-4,6.5
	c-0.9,1.7-2.2,3.2-3.7,4.4c-1.4,0.8-3.1,1.2-4.7,1.1c-5.4,0.1-11-1.7-16.2,0c-2.1,0.7-4,1.9-6.2,2
	C383.5,1571.3,376.2,1565.8,378.7,1560.6z"/>
<path class="st7" d="M707.9,1648.2c-1.1-3.5-1.2-7.5-3-10.5c-2.2-3.6-6.3-5.2-9.8-7.5c-1-0.5-1.6-1.4-1.8-2.4c0-0.9,0.3-1.8,0.8-2.6
	c2.2-4.3,5.1-9.1,9.5-9.9c2.2-0.4,4.2,0.4,6.3,0.6c4.4,0.4,8.7-1.1,12-4.1c0.8-0.8,1.8-1.6,2.8-2.1c1.4-0.4,2.8-0.4,4.2,0.1
	c2.7,0.7,5.5,1.5,7.7,3.1c2.4,1.7,3.7,4.5,3.5,7.4c-0.5,5-5.8,9.4-5.9,14.4c0,1.2,0.2,2.2,0.3,3.4c0.1,4.1-2.8,8-5.5,11.5
	c-3,3.7-6.3,10.7-11.1,9.6C712.6,1657.8,710.1,1652.7,707.9,1648.2z"/>
<path class="st7" d="M393.5,1528.1c0.1-0.3,0.4-0.5,0.6-0.6c0.7-0.3,1.5,0.5,1.6,1.3c-0.1,0.8-0.4,1.6-0.9,2.2
	c-0.6,0.8-2.9,3.4-3.5,1.3C391.1,1531.8,393.1,1528.7,393.5,1528.1z"/>
<path class="st7" d="M368.9,1531.4c-0.3,0.9-0.5,1.8-0.5,2.7c0,0.2,0,0.3,0.1,0.4c0.1,0.1,0.2,0.1,0.3,0.2c0.8,0.3,1.8,0.3,2.6,0
	c0.9-0.6,1.6-1.6,1.9-2.7c0.3-0.8,0.5-1.6,0.4-2.4c-0.2-1-0.9-1.8-1.8-2.1c-0.2-0.1-0.4-0.1-0.7-0.1c-0.7,0.1-1,1.1-1.6,1.5
	c-0.4,0.3-0.9,0.5-1.4,0.6c-0.5,0.2-0.9,0.7-0.7,1.2C368,1530.8,368.4,1531,368.9,1531.4"/>
<path class="st6" d="M713.6,619.2c0.2-0.6,0-1.2-0.3-1.7c-0.3-0.3-0.8-0.3-1-0.7c-0.5-0.5,0-1.4,0.7-1.7c1.2-0.5,2.5,0.1,3,1.3
	c0,0.1,0.1,0.2,0.1,0.3c0,0.6,0.1,1.2,0.2,1.8c0.1,0.3,0.3,0.5,0.6,0.7c1.1,1.1,2.5,1.9,4,2.5c0.1,0,0.3,0.1,0.4,0.2
	c0,0.2,0,0.4-0.1,0.5c-0.5,0.8-1.3,1.5-2.2,1.9c0.2,0.8-0.7,1.3-1.3,1.6l-2,1c-0.3,0.2-0.6,0.3-0.9,0.3c-0.3,0-0.6-0.3-0.7-0.6
	c0-0.5,0.5-0.9,0.5-1.4c0-0.1-0.4-1.1-0.4-1.3C713.6,622.3,713.5,620.8,713.6,619.2z"/>
<path class="st6" d="M922.8,1260.1c0.3-0.3,0.5-0.5,0.8-0.8l1.5-2c0.2-0.3,0.5-0.5,0.9-0.4h1.3c0.1,0,0.3,0,0.4,0.1
	c0.1,0.1,0.2,0.2,0.2,0.3c0.9,2.2,0,4.7-1.5,6.5c-0.1,0.2-0.3,0.3-0.5,0.4c-0.2,0.1-0.5,0.1-0.7,0.1c-0.7,0.1-1.4,0.5-2.1,0.6
	c-1.5,0.3-2.3-0.8-2.3-2.1S921.8,1261,922.8,1260.1z"/>
<path class="st7" d="M923.5,1260.8c0.8-0.1,1.6-0.6,2.1-1.2c0.2-0.3,0.2-0.6,0.4-0.9c0.1-0.3,0.5-0.5,0.8-0.5
	c0.3,0.1,0.5,0.3,0.5,0.6c0.4,1.5-1.5,4.1-2.9,4.6c-0.8,0.3-1.8,0.2-2.5-0.3C920.8,1262.1,922.5,1261.1,923.5,1260.8z"/>
<path class="st5" d="M929.1,610.2c2.4-3.6,6.1,0.4,8.7,1.8c2.3,1,4.8,1.3,7.2,0.8c2.1-0.7,3-1.4,5.3-0.7c2.7,0.8,5.2,3.9,4.2,6.6
	c-0.6,1.2-1.4,2.2-2.3,3.2c-1,1.4-1.3,3.3-2.8,4.4c-3.2,2.4-8.1,0.2-11.7,1.4c-3.1,1-6.3,3.3-9.7,1.8s-0.6-5.4-3.2-7.4
	c-1.1-0.9-2-1.2-1.9-2.7c0.2-1.2,0.7-2.3,1.4-3.3C925.8,614.1,927.7,612.3,929.1,610.2z"/>
<path class="st6" d="M935.6,618.2c0.4,0.1,0.8,0.1,1.1,0.1h2.5c0.2,0,0.3,0,0.5,0.1c0.2,0.1,0.3,0.2,0.4,0.4l0.8,1.1
	c0.1,0.1,0.2,0.2,0.2,0.3c0,0.1,0,0.3-0.1,0.4c-1.1,2-3.7,2.9-6,2.8c-0.2,0-0.5,0-0.7-0.1c-0.2-0.1-0.4-0.3-0.5-0.5
	c-0.5-0.5-1.2-0.8-1.8-1.3c-1.2-1-0.8-2.2,0.2-3.2S934.3,618,935.6,618.2z"/>
<path class="st7" d="M935.4,619.2c0.6,0.6,1.4,0.9,2.2,0.9c0.3,0,0.6-0.2,1-0.3c0.3-0.1,0.7,0.1,0.9,0.4c0.1,0.3,0,0.6-0.2,0.8
	c-0.9,1.2-4.1,1.3-5.4,0.6c-0.8-0.5-1.3-1.3-1.3-2.2C932.8,617.9,934.6,618.6,935.4,619.2z"/>
<path class="st6" d="M384.1,1469.5c0.9,0.7,1.8,1.4,2.9,1.2c0.4-0.1,0.8-0.3,1.2-0.3c0.4-0.1,0.9,0.1,1.1,0.5c0.1,0.4,0,0.8-0.2,1.1
	c-1.2,1.7-5.2,1.8-6.9,0.8c-1-0.7-1.6-1.7-1.7-2.9C380.8,1467.7,383.1,1468.7,384.1,1469.5z"/>
<path class="st6" d="M398.5,1486.1c1.1,1.6,2.8,2.6,3.9,4.2s1.4,3.5,2.9,4.6c0.3,0.2,0.6,0.4,0.8,0.7c0.3,0.6,0.3,1.4-0.2,1.9
	c-0.5,0.5-1,0.8-1.7,1c-0.2,0.1-0.5,0.1-0.7,0.1c-0.3-0.1-0.5-0.3-0.6-0.5c-1.4-1.8-2.5-3.8-3.3-6c-0.4-1.3-0.9-2.6-1.6-3.8
	c-0.8-0.9-1.6-1.9-2.2-2.9c-0.4-0.8-0.5-4.3,1-4.2c0.8,0,0.6,1.8,0.7,2.3C397.5,1484.3,397.9,1485.2,398.5,1486.1z"/>
<path class="st5" d="M812.7,641.5c-1.4-1.4-2.3-3.2-2.7-5.2c-0.3-3.9,3.4-6.6,6.8-8.4c4-2.1,8.8-4,13.1-2c2.5,1.2,4.3,3.5,6.9,4.5
	c6.1,2.4,14-3.3,18.7,1.2c3.8,3.7,1,9.6,1.1,14.7c0.1,4.4,2.7,8.6,3.5,12.9s-1.1,10-5.6,10c-1.2-0.1-2.4-0.2-3.5-0.5
	c-7.1-0.8-11.7,6.5-18,9.5c-1.1,0.7-2.4,0.9-3.7,0.7c-0.8-0.3-1.5-0.7-2.1-1.3c-6.1-6.2,3.3-10.3,1.5-16.3
	C826.3,653.2,818.1,647.9,812.7,641.5z"/>
<path class="st6" d="M817.5,636.5c1-0.4,2.1-0.8,2.6-1.8c0.2-0.4,0.2-0.8,0.4-1.2c0.1-0.4,0.6-0.7,1-0.7c0.4,0.1,0.7,0.4,0.8,0.8
	c0.8,1.9-1.3,5.4-3,6.2c-1.1,0.5-2.3,0.4-3.4-0.2C814.3,638.3,816.3,637,817.5,636.5z"/>
<path class="st6" d="M839.2,633.3c1.9-0.1,3.7-1,5.6-1.1s3.7,0.7,5.4,0.1c0.3-0.1,0.7-0.2,1-0.3c0.7,0,1.3,0.5,1.5,1.2
	c0.2,0.6,0.1,1.3-0.1,1.9c0,0.2-0.2,0.5-0.3,0.6c-0.2,0.2-0.5,0.3-0.8,0.2c-2.3,0.2-4.6,0.1-6.8-0.4c-1.3-0.4-2.7-0.6-4.1-0.7
	c-1.2,0.2-2.4,0.3-3.7,0.3c-0.9-0.1-3.9-1.9-3-3.1c0.5-0.6,1.8,0.5,2.3,0.7C837.3,633.2,838.2,633.3,839.2,633.3z"/>
<path class="st5" d="M874.3,800.8c0.2,0.9,0.2,2-0.2,2.9c-0.9,1.9-3.4,2.6-5.5,2.9c-2.5,0.4-5.2,0.5-6.7-1c-0.8-0.9-1.1-2.3-2-3.2
	c-2.2-2.1-7.5-0.6-8.4-3.4c-0.8-2.3,2.2-4.7,3.5-7.1c1.2-2.1,1.1-4.4,1.9-6.6s3.3-4.5,5.4-3.9c0.5,0.2,1,0.5,1.5,0.8
	c3.1,1.5,7.3-1.3,11.1-1.8c0.6-0.1,1.3-0.1,1.9,0.2c0.3,0.2,0.5,0.6,0.6,1c1.2,3.8-4.4,4.3-5.2,7.4
	C871.2,793.2,873.6,797,874.3,800.8z"/>
<path class="st5" d="M780.9,1695c2.7,2.6-1.4,6.6-3,9.4c-1.3,2.4-1.9,5.1-1.9,7.9c0.2,2.3,0.7,3.3-0.3,5.8c-1.2,3-4.3,5.7-6.5,4.6
	c-1-0.5-1.6-1.7-2.4-2.5c-1.1-1.1-2.7-1.5-3.4-3.1c-1.5-3.5,1.2-8.8,0.8-12.8c-0.3-3.4-1.8-6.9,0.1-10.6c2-3.8,4.8-0.6,7-3.4
	c1-1.2,1.3-2.2,2.6-2c1,0.2,1.9,0.8,2.6,1.6C778.2,1691.4,779.3,1693.5,780.9,1695z"/>
<path class="st6" d="M750.7,1557.8c-0.1,1.5-0.7,3-1.7,4.2c-1,1.2-2.2,2.3-3.2,3.5c-1.2,1.5-2.2,3.2-2.8,5c-0.8,2.3-0.9,4.8-2,7
	s-3.9,4.2-5.9,3.2c-0.6-0.3-1-0.7-1.5-1c-2-1-4.8,0.6-7.2,0.6c-0.4,0-0.8-0.1-1.1-0.3c-0.3-0.5-0.5-1.1-0.3-1.6l0.4-5
	c0-1.3,0.3-2.6,0.9-3.8c0.6-1,1.5-1.9,2.5-2.6c3.3-2.4,7.3-3.8,10-6.9c0.9-1.3,2-2.6,3.2-3.7
	C744.4,1554.4,750.6,1554.1,750.7,1557.8z"/>
<path class="st7" d="M301.1,1421.7c-0.1,2.3-0.8,4.6-0.4,6.8c0.5,2.6,2.5,4.3,4,6.3c0.4,0.5,0.6,1.1,0.5,1.8c-0.2,0.5-0.6,1-1,1.4
	c-2,2.1-4.6,4.4-7.2,4c-1.3-0.2-2.2-1-3.4-1.6c-2.4-1.1-5.1-1.1-7.5,0c-0.6,0.3-1.3,0.6-2,0.7c-0.8,0-1.7-0.3-2.3-0.9
	c-1.4-0.9-2.7-2-3.7-3.4c-1-1.5-1.2-3.4-0.5-5c1.2-2.9,5-4.4,6-7.3c0.2-0.7,0.3-1.4,0.5-2c0.7-2.4,3.1-4.2,5.3-5.7
	c2.4-1.6,5.6-5.1,8-3.4C300.4,1415.1,300.8,1418.6,301.1,1421.7z"/>
<path class="st7" d="M729.9,1573.9c0,0.2-0.1,0.4-0.2,0.6c-0.3,0.4-0.9,0.4-1.2,0.1l-0.1-0.1c-0.2-0.5-0.3-1-0.1-1.5
	c0.1-0.6,0.7-3,1.7-2.2C730.2,1571,730,1573.4,729.9,1573.9z"/>
<path class="st7" d="M744,1561.7c-0.1-0.6-0.3-1.1-0.5-1.6c0-0.1-0.1-0.2-0.2-0.2c-0.1,0-0.2,0-0.2,0.1c-0.6,0.2-1.2,0.6-1.6,1.1
	c-0.4,0.7-0.5,1.5-0.3,2.2c0,0.5,0.2,1,0.5,1.4c0.5,0.4,1.1,0.6,1.8,0.3c0.2,0,0.3-0.1,0.5-0.2c0.4-0.3,0.3-1,0.5-1.4
	c0.2-0.3,0.4-0.6,0.7-0.9c0.2-0.3,0.3-0.8,0-0.9C744.8,1561.6,744.4,1561.7,744,1561.7"/>
<path class="st6" d="M289.7,1430.8c0.2,0.4,0.5,1,1,1c0.4-0.1,0.7-0.1,1.1-0.1c0.6,0.1,0.6,1,0.2,1.5c-0.6,1-2,1.3-3,0.6
	c0,0,0,0,0,0l-0.1-0.1c-0.3-0.3-0.5-0.9-0.9-1.1c-0.2-0.1-0.5-0.2-0.7-0.2c-1.4-0.1-2.8,0-4.2,0.5c-0.1,0-0.3,0-0.4,0
	c-0.1-0.1-0.1-0.3-0.1-0.4c0.1-0.9,0.4-1.8,0.9-2.5c-0.5-0.4,0-1.2,0.3-1.8l1.2-1.7c0.2-0.3,0.4-0.5,0.6-0.7c0.3-0.2,0.6-0.2,0.8,0
	s0,0.9,0.2,1.2c0,0.1,0.8,0.5,0.9,0.7C288.4,1428.6,289.1,1429.7,289.7,1430.8z"/>
<path class="st7" d="M964,1363.6c1.3,1.1,2.3,2.6,3.8,3.3c1.7,0.8,3.7,0.4,5.6,0.4c0.5-0.1,1,0.1,1.3,0.5c0.2,0.4,0.3,0.8,0.3,1.2
	c0.2,2.2,0.3,4.9-1.2,6.3c-0.8,0.6-1.7,1-2.6,1.4c-1.8,1-3.1,2.7-3.6,4.6c-0.1,0.5-0.3,1.1-0.5,1.5c-0.4,0.5-1,0.9-1.6,1
	c-1.2,0.5-2.5,0.7-3.7,0.8c-1.3,0-2.6-0.8-3.2-2c-1.1-2.1-0.1-5.1-1.3-7.1c-0.3-0.4-0.7-0.8-1-1.2c-1.1-1.6-0.9-3.8-0.7-5.9
	c0.2-2.2-0.3-5.8,1.9-6.6C959.8,1361.1,962.1,1362.4,964,1363.6z"/>
<path class="st6" d="M963.9,1374.9c0.4,0.1,0.8,0.2,1.1-0.2s0.3-0.6,0.5-0.7s0.9,0.1,1,0.6c0.3,0.9-0.3,1.9-1.2,2.2
	c-0.4-0.1-0.7,0-1.1,0.1c-0.2,0.1-0.3,0.2-0.5,0.4c-0.8,0.8-1.3,1.8-1.8,2.8c0,0.1-0.1,0.2-0.2,0.3c-0.1,0-0.2,0-0.3-0.1
	c-0.5-0.5-0.8-1.1-1-1.7c-0.5,0.1-0.8-0.5-0.9-1l-0.5-1.5c-0.1-0.2-0.1-0.5-0.1-0.7c0-0.2,0.2-0.5,0.4-0.5s0.5,0.4,0.8,0.4
	c0.1,0,0.7-0.2,0.8-0.2C962,1374.8,962.9,1374.8,963.9,1374.9z"/>
<path class="st6" d="M772.9,1702.1c-0.1,0.4-0.2,0.8-0.2,1.2l-0.4,2.8c0,0.2-0.1,0.3-0.1,0.5c-0.1,0.2-0.2,0.3-0.4,0.4l-1.1,0.9
	c-0.1,0.1-0.2,0.1-0.3,0.2c-0.1,0-0.2,0-0.3-0.1c-1.6-1.3-1.9-4-1.4-6.6c0-0.3,0.1-0.5,0.2-0.7c0.1-0.2,0.3-0.4,0.5-0.6
	c0.5-0.6,0.9-1.3,1.4-2c1-1.2,2.1-0.8,2.7,0.3S773.3,1700.6,772.9,1702.1z"/>
<path class="st7" d="M772.1,1701.9c-0.6,0.7-1,1.5-1.2,2.5c0,0.4,0.1,0.7,0,1.1c0,0.4-0.2,0.7-0.5,0.9c-0.2,0.1-0.5,0-0.7-0.2
	c-0.9-1-0.5-4.5,0.4-5.9c0.4-0.7,1.5-1.5,2.1-1.4C773.7,1699,772.7,1701,772.1,1701.9z"/>
<path class="st6" d="M870.7,802.5c-0.6-0.1-1.2,0.1-1.7,0.4c-0.2,0.2-0.3,0.4-0.5,0.5s-0.5,0.3-0.7,0.2c-0.1-0.1-0.2-0.3-0.2-0.5
	c0.2-1,2.1-2.3,3.1-2.5c0.5-0.1,1.3,0.2,1.5,0.6C872.8,802.1,871.4,802.4,870.7,802.5z"/>
<path class="st6" d="M859.7,800.7c-0.9-0.2-2-0.1-2.9-0.3s-1.6-0.9-2.5-0.9c-0.2,0-0.4,0-0.5,0c-0.3-0.1-0.5-0.5-0.4-0.8
	c0.1-0.3,0.3-0.7,0.6-0.9c0.1-0.1,0.2-0.2,0.3-0.3c0.1,0,0.3,0,0.4,0c1.1,0.2,2.1,0.7,3.1,1.2c0.5,0.4,1.1,0.7,1.7,0.9
	c0.6,0.1,1.2,0.2,1.8,0.4c0.4,0.2,1.3,1.5,0.6,1.9c-0.4,0.2-0.7-0.5-0.9-0.7C860.5,801,860.1,800.8,859.7,800.7z"/>
<path class="st5" d="M873.7,746.5c0,0.2,0,0.5-0.1,0.7c-0.4,0.4-0.9,0.7-1.5,0.8c-0.6,0.2-1.3,0.2-1.7-0.1s-0.2-0.5-0.4-0.7
	c-0.5-0.4-1.9,0-2-0.6s0.7-1.1,1.1-1.7c0.3-0.5,0.5-1,0.6-1.6c0.3-0.5,0.9-1.1,1.5-1c0.1,0,0.3,0.1,0.4,0.1c0.8,0.3,1.9-0.5,2.8-0.7
	c0.2-0.1,0.3-0.1,0.5,0c0.1,0,0.1,0.1,0.1,0.2c0.2,0.9-1.2,1.1-1.5,1.8C873,744.9,873.5,745.7,873.7,746.5z"/>
<path class="st5" d="M868.5,742.1c-0.1,0.6-1,0.6-1.5,0.7c-0.5,0.1-0.9,0.4-1.2,0.7c-0.2,0.3-0.5,0.5-0.8,0.7
	c-0.5,0.2-1.1,0.1-1.2-0.3c0-0.2,0.1-0.4,0.1-0.6c0-0.3,0.1-0.5,0.1-0.8c0.4-0.6,1.3-0.9,1.8-1.4s0.8-1,1.5-1.2s0.5,0.5,1,0.5
	c0.2,0,0.4-0.1,0.5,0.1c0,0.2,0,0.3,0,0.5C868.8,741.3,868.6,741.7,868.5,742.1z"/>
<path class="st6" d="M697.8,1707.5c0.3,0.3,0.4,0.7,0.4,1.1v1.4c0,0.5,0.1,1.1,0.3,1.6c0.3,0.5,0.6,1.1,0.8,1.7
	c0.2,0.7,0,1.5-0.5,2.1c-0.1,0.1-0.3,0.1-0.4,0.2c-0.5,0.4-0.7,1.3-1.1,2c-0.1,0.1-0.1,0.2-0.2,0.2c-0.1,0-0.2-0.1-0.3-0.2l-0.8-0.9
	c-0.2-0.2-0.4-0.5-0.5-0.9c-0.1-0.4-0.1-0.7,0-1.1c0.3-1.2,0.5-2.5,0.6-3.8c0-0.5,0-1,0-1.4C696.2,1708.6,697.2,1706.9,697.8,1707.5
	z"/>
<path class="st7" d="M704.7,1696.8c0.3,0.4,0.6,1,1,1.2s1.1,0,1.7,0c0.1,0,0.3,0,0.4,0.2c0.1,0.2,0.1,0.3,0.1,0.5
	c0.1,0.9-0.1,1.8-0.6,2.5c-0.3,0.2-0.5,0.5-0.8,0.6c-0.6,0.5-1.1,1.2-1.3,2c-0.1,0.2-0.1,0.4-0.2,0.6c-0.1,0.2-0.3,0.4-0.5,0.4
	c-0.4,0.2-0.8,0.4-1.2,0.4c-0.4,0-0.8-0.3-0.9-0.7c-0.2-0.8,0.2-2-0.1-2.8c-0.1-0.2-0.2-0.3-0.2-0.5c-0.2-0.8-0.2-1.6,0-2.3
	c0.2-0.9,0.1-2.3,0.8-2.7C703.4,1696.1,704.1,1696.2,704.7,1696.8z"/>
<path class="st7" d="M696.8,1715.6c0,0,0.1,0.1,0.1,0.2c0,0.2-0.1,0.3-0.2,0.3s-0.2-0.1-0.3-0.2s-0.4-0.7-0.1-0.8
	C696.4,1715,696.8,1715.5,696.8,1715.6z"/>
<path class="st7" d="M697.2,1709.9c-0.1-0.1-0.2-0.1-0.3-0.1h-0.1v0.1c-0.1,0.2-0.1,0.4-0.1,0.6c0,0.2,0.1,0.3,0.3,0.4
	c0.1,0.1,0.2,0.1,0.3,0.1c0.1,0,0.3-0.2,0.4-0.4v-0.2c0-0.2-0.1-0.2-0.2-0.4c0-0.1,0-0.2,0-0.3c0-0.1-0.1-0.2-0.1-0.2
	C697.4,1709.6,697.4,1709.7,697.2,1709.9"/>
<path class="st6" d="M704.2,1701.2c0.1,0,0.3,0,0.3-0.1c0.1-0.1,0.1-0.2,0.2-0.3s0.3,0,0.3,0.2c0,0.4-0.1,0.7-0.5,0.9
	c-0.2,0-0.4,0.1-0.5,0.2c-0.3,0.4-0.5,0.8-0.7,1.2c0,0,0,0.1-0.1,0.1h-0.1c-0.1-0.2-0.2-0.4-0.2-0.7c-0.1,0-0.2-0.2-0.2-0.4
	l-0.1-0.6c0-0.1,0-0.2,0-0.3c0-0.1,0.1-0.2,0.2-0.2s0.1,0.1,0.2,0.1l0.3-0.1C703.6,1701.3,703.9,1701.2,704.2,1701.2z"/>
<path class="st6" d="M866.9,741.9c-0.1,0-0.1,0.1-0.2,0.1l-0.4,0.3h-0.4v-0.1c0.1-0.4,0.4-0.8,0.8-1c0,0,0.1-0.1,0.1-0.1h0.1
	c0.1,0,0.3,0,0.4,0c0.1,0,0.3,0.2,0.2,0.4S867.1,741.8,866.9,741.9z"/>
<path class="st7" d="M866.8,741.8c-0.2,0-0.3,0.1-0.4,0.2l-0.1,0.1c0,0-0.1,0.1-0.2,0V742c0.2-0.3,0.5-0.6,0.8-0.7
	c0.1,0,0.3,0,0.4,0.1S867,741.8,866.8,741.8z"/>
<path class="st6" d="M872.7,747c-0.2,0-0.3,0.1-0.4,0.1l-0.1,0.1c0,0-0.1,0.1-0.2,0.1c0,0,0-0.1,0-0.1c0.2-0.3,0.5-0.6,0.8-0.7
	c0.1,0,0.3,0,0.4,0.1S872.9,747,872.7,747z"/>
<path class="st6" d="M870,746.8h-0.7c-0.2-0.1-0.4-0.1-0.6-0.1h-0.1c-0.1,0-0.1-0.1-0.1-0.2c0-0.1,0.1-0.2,0.2-0.2
	c0,0,0.1-0.1,0.1-0.1h0.1c0.3,0,0.5,0.1,0.7,0.2c0.1,0.1,0.3,0.1,0.4,0.2c0.1,0,0.3,0,0.4,0c0.1,0,0.3,0.3,0.1,0.4s-0.2-0.1-0.2-0.1
	C870.2,746.9,870.1,746.9,870,746.8z"/>
<path class="st5" d="M976.7,1445.1c0.2,0.1,0.4,0.3,0.4,0.5c0.1,0.6,0,1.2-0.2,1.7c-0.3,0.6-0.6,1.2-1.1,1.3c-0.3,0-0.5-0.1-0.8-0.1
	c-0.6,0.1-1.1,1.5-1.7,1.3s-0.5-1.2-0.7-1.9c-0.2-0.5-0.5-1-0.8-1.5c-0.3-0.6-0.3-1.3,0.1-1.8c0.1-0.1,0.2-0.1,0.3-0.2
	c0.7-0.4,0.8-1.8,1.2-2.7c0.1-0.2,0.2-0.3,0.3-0.4c0.1,0,0.2,0,0.2,0c0.8,0.4,0.1,1.6,0.5,2.3C975,1444.5,975.9,1444.6,976.7,1445.1
	z"/>
<path class="st5" d="M970,1446.4c0.4,0.5-0.2,1.2-0.4,1.7c-0.2,0.5-0.2,0.9-0.2,1.4c0.1,0.3,0.1,0.7,0,1c-0.2,0.5-0.6,1-0.9,0.8
	c-0.1-0.1-0.3-0.3-0.4-0.5c-0.2-0.2-0.4-0.3-0.5-0.6c-0.3-0.7,0.1-1.6,0-2.3c-0.2-0.6-0.2-1.3-0.1-1.9c0.3-0.7,0.7-0.1,1-0.5
	c0.1-0.2,0.2-0.4,0.4-0.3c0.2,0.1,0.3,0.2,0.4,0.3C969.5,1445.7,969.7,1446.1,970,1446.4z"/>
<path class="st6" d="M968.8,1447.6v0.8l-0.1,0.1l-0.2,0.2l0,0c-0.3-0.3-0.3-0.8-0.3-1.2v-0.1c0,0,0-0.1,0.1-0.1
	c0.1-0.1,0.1-0.2,0.2-0.3c0.1-0.1,0.2-0.1,0.3,0c0,0,0,0.1,0.1,0.1C969.1,1447.1,968.9,1447.3,968.8,1447.6z"/>
<path class="st7" d="M968.7,1447.5c-0.1,0.1-0.1,0.3-0.2,0.4v0.2c0,0.1,0,0.1-0.1,0.2h-0.1c-0.1-0.3-0.1-0.7,0-1.1
	c0.1-0.1,0.2-0.3,0.3-0.2S968.8,1447.4,968.7,1447.5z"/>
<path class="st6" d="M976.4,1446.1c-0.1,0.1-0.1,0.3-0.2,0.4c0,0.1,0,0.1,0,0.2c0,0.1,0,0.2-0.1,0.2s-0.1,0-0.1-0.1
	c-0.1-0.3-0.1-0.7,0-1.1c0-0.1,0.2-0.3,0.3-0.2S976.5,1445.9,976.4,1446.1z"/>
<path class="st6" d="M974.6,1448.2c-0.2,0.2-0.3,0.4-0.5,0.6s-0.4,0.2-0.5,0.4c0,0,0,0.1-0.1,0.1c0,0-0.1,0-0.2,0l0,0
	c0-0.1-0.1-0.2-0.1-0.3c0,0,0-0.1,0-0.1c0,0,0-0.1,0.1-0.1c0.2-0.2,0.4-0.3,0.6-0.5c0.1-0.1,0.3-0.1,0.4-0.2
	c0.1-0.1,0.2-0.2,0.3-0.3s0.4,0,0.4,0.2s-0.2,0.1-0.2,0.1C974.8,1448.1,974.7,1448.1,974.6,1448.2z"/>
<path class="st5" d="M992.9,853.4c0,0.2,0,0.5-0.1,0.7c-0.4,0.4-0.9,0.7-1.5,0.8c-0.6,0.2-1.3,0.2-1.7-0.1s-0.2-0.5-0.4-0.7
	c-0.5-0.4-1.9,0-2-0.6s0.7-1.1,1.1-1.7c0.3-0.5,0.5-1,0.6-1.6c0.3-0.5,0.9-1.1,1.5-1c0.1,0,0.3,0.1,0.4,0.1c0.8,0.3,1.9-0.5,2.8-0.7
	c0.2-0.1,0.3-0.1,0.5,0c0.1,0,0.1,0.1,0.1,0.2c0.2,0.9-1.2,1.1-1.5,1.8C992.3,851.7,992.8,852.5,992.9,853.4z"/>
<path class="st5" d="M987.8,849c-0.1,0.6-1,0.6-1.5,0.7c-0.5,0.1-0.9,0.4-1.2,0.7c-0.2,0.3-0.5,0.5-0.8,0.7
	c-0.5,0.2-1.2,0.1-1.2-0.3c0-0.2,0.1-0.4,0.1-0.6c0-0.3,0.1-0.5,0.1-0.8c0.4-0.6,1.3-0.9,1.8-1.4s0.8-1,1.5-1.2s0.5,0.5,1,0.5
	c0.2,0,0.4-0.1,0.5,0.1c0.1,0.2,0.1,0.4,0,0.5C988,848.2,987.8,848.6,987.8,849z"/>
<path class="st6" d="M986.1,848.8l-0.2,0.1l-0.4,0.3h-0.4v-0.1c0.1-0.4,0.4-0.8,0.8-1l0.1-0.1h0.1c0.1,0,0.3,0,0.4,0
	c0.1,0,0.3,0.2,0.2,0.4S986.3,848.7,986.1,848.8z"/>
<path class="st7" d="M986.1,848.7c-0.2,0-0.3,0.1-0.4,0.2l-0.1,0.1c0,0-0.1,0.1-0.2,0v-0.1c0.2-0.3,0.5-0.6,0.8-0.7
	c0.1,0,0.3,0,0.4,0.1S986.2,848.6,986.1,848.7z"/>
<path class="st6" d="M991.9,853.9c-0.2,0-0.3,0.1-0.4,0.1l-0.1,0.1c0,0-0.1,0.1-0.2,0.1s0-0.1,0-0.1c0.2-0.3,0.5-0.5,0.8-0.7
	c0.1,0,0.3,0,0.4,0.1S992.1,853.8,991.9,853.9z"/>
<path class="st6" d="M989.2,853.7h-0.7c-0.2-0.1-0.4-0.1-0.6-0.1h-0.1c-0.1,0-0.1-0.1-0.1-0.2c0-0.1,0.1-0.2,0.2-0.2
	c0,0,0.1-0.1,0.1-0.1h0.1c0.3,0,0.5,0.1,0.7,0.2c0.1,0.1,0.3,0.1,0.4,0.2c0.1,0,0.3,0,0.4,0c0.1,0,0.3,0.3,0.1,0.4s-0.2-0.1-0.2-0.1
	C989.4,853.7,989.3,853.7,989.2,853.7z"/>
<path class="st0" d="M218.6,1048.1l-17.8-2.4c0.8-6.1,1.9-12.7,3.1-20.1l17.8,3C220.4,1035.8,219.4,1042.2,218.6,1048.1
	L218.6,1048.1z M373,1038.1c-3.9,0-7.8-0.1-11.7-0.4l1.2-18c6.3,0.4,12.6,0.5,18.9,0.1l1,18C379.3,1038,376.1,1038.1,373,1038.1
	L373,1038.1z M330.1,1032.7c-5.1-1.3-10.2-2.8-15.1-4.6c-1.9-0.7-3.8-1.5-5.6-2.4l7.9-16.2c1.2,0.6,2.5,1.1,3.7,1.6
	c4.3,1.5,8.9,2.9,13.5,4.1L330.1,1032.7z M413.9,1032.6l-4.9-17.3c3-0.9,6-1.9,8.9-3c2.7-1,5.2-2.2,7.7-3.6l8.7,15.8
	c-3.2,1.8-6.6,3.4-10,4.7C421,1030.5,417.5,1031.7,413.9,1032.6L413.9,1032.6z M234.5,1013.2l-9.4-15.4l9.8-5.9l7.3-4.4l9.3,15.4
	l-7.4,4.5C241,1009.3,237.7,1011.3,234.5,1013.2L234.5,1013.2z M789.5,1011.7l-0.6-18c6.2-0.2,12.8-0.6,19.5-1.1l1.5,17.9
	C802.9,1011.1,796,1011.5,789.5,1011.7L789.5,1011.7z M758.6,1011.2c-7-0.5-13.9-1.2-20.6-2.2l2.7-17.8c6.2,0.9,12.7,1.6,19.2,2.1
	L758.6,1011.2z M283.3,1007.1c-4.7-4-9.6-7.7-14.9-10.9l9-15.6c6.1,3.7,12,8,17.4,12.6L283.3,1007.1z M459.9,1005.5L448,992l2.6-2.3
	c4.1-3.6,8.4-7.4,12.9-11l11.2,14.1c-4.1,3.2-8,6.7-12.2,10.4L459.9,1005.5z M707.6,1002.3l-3.4-1c-4.6-1.4-9.5-3-16-5.1l5.6-17.1
	c6.3,2.1,11.2,3.6,15.7,5l3.1,0.9L707.6,1002.3z M843.3,999.9l-13.1-12.3c4.6-4.8,8.8-9.8,12.7-14.5l14.1,11.2
	C852.8,989.5,848.2,994.7,843.3,999.9L843.3,999.9z M659.8,986.9c-7-2.2-13.2-4-18.9-5.6l4.8-17.3c5.9,1.6,12.3,3.5,19.5,5.8
	L659.8,986.9z M497.9,979.5l-5.7-17.1c1.2-0.4,2.4-0.8,3.6-1.1c5.4-1.5,11.1-2.8,17.2-3.8l3.1,17.7c-5.5,1-10.7,2.1-15.5,3.5
	C499.7,978.9,498.8,979.2,497.9,979.5z M612.6,974.9c-5.5-0.9-10.9-1.6-16.1-2.1l-3-0.2l1.4-18l3.1,0.3c5.7,0.5,11.5,1.3,17.5,2.3
	L612.6,974.9z M544.8,971.9l-1-18c6.5-0.4,13.2-0.6,20-0.6h0.5v18h-0.6C557.3,971.4,550.9,971.6,544.8,971.9L544.8,971.9z
	 M874.7,958.5l-15.5-9.1c3.2-5.5,6.1-11.1,8.8-16.9l16.4,7.4C881.4,946.3,878.2,952.5,874.7,958.5L874.7,958.5z M867.7,910.8
	c-2-6.3-4.3-13.7-5-21.5l17.9-1.5c0.5,5.3,2,10.8,4.2,17.4L867.7,910.8z M886.2,861.8l-17.4-4.7c1.6-6,2.8-12.1,3.4-18.2l17.9,1.9
	C889.4,847.9,888.1,855,886.2,861.8L886.2,861.8z M872,810.8c-0.6-5.9-1.6-12.1-2.9-18.9l17.7-3.5c1.5,7.4,2.5,14.1,3.2,20.6
	L872,810.8z M862.3,763.3l-1.3-5.1c-1.2-4.7-2.5-9.5-3.7-14.3l17.5-4.4c1.2,4.7,2.5,9.5,3.7,14.2l1.4,5.1L862.3,763.3z M850.7,713.8
	c-1.1-6.9-1.9-13.9-2.3-20.8l18-0.9c0.3,6.3,1,12.6,2.1,18.9L850.7,713.8z M867.9,663.8l-17.9-2.4c0.9-6.8,1.8-13.4,2.8-19.9
	l17.8,2.6C869.7,650.4,868.8,657,867.9,663.8L867.9,663.8z M875.1,614.5l-17.8-2.9c1.1-6.8,2.2-13.5,3.4-19.9l17.7,3.2
	C877.3,601.2,876.2,607.8,875.1,614.5L875.1,614.5z M884,565.7l-17.6-3.6c1.4-6.7,2.8-13.4,4.2-19.7l17.6,4
	C886.8,552.5,885.4,559,884,565.7z M895.2,517.4l-17.4-4.6c1.8-6.7,3.6-13.3,5.5-19.5l17.2,5.1C898.7,504.5,896.9,510.9,895.2,517.4
	L895.2,517.4z M909.7,470.1l-17.1-5.6c1.9-5.9,3.4-11.9,4.3-18l17.8,2.8C913.6,456.4,911.9,463.4,909.7,470.1L909.7,470.1z
	 M898.2,418.5c-0.4-6.2-1.2-12.5-2.4-18.6l17.7-3.5c1.4,6.9,2.3,13.9,2.7,21L898.2,418.5z M887.4,373.3c-1.7-3.9-3.6-7.6-5.8-11.3
	c-0.9-1.5-1.9-3-2.9-4.4l14.3-10.9c1.5,2,2.9,4,4.1,6.2c2.5,4.2,4.7,8.6,6.7,13.1L887.4,373.3z M716.6,359.8
	c-7.3-0.1-14.5-1-21.6-2.8l4.2-17.5c5.7,1.4,11.6,2.2,17.5,2.3h0.2l0.1,18L716.6,359.8z M276.5,353l-12.1-13.3
	c5.3-4.8,11-9.2,16.9-13.1l9.9,15.1C286,345,281.1,348.8,276.5,353z M749.4,351.8l-7.5-16.4c1.9-0.9,3.8-1.8,5.7-2.7
	c4-1.9,8.2-3.9,12.9-5.8l6.8,16.7c-4.2,1.7-8.1,3.6-11.8,5.4C753.3,350,751.4,350.9,749.4,351.8L749.4,351.8z M665.2,346.2
	c-6.3-2.8-13.1-5.9-18.4-8.4l7.6-16.3c5.2,2.4,12,5.5,18.1,8.2L665.2,346.2z M858.7,343.1c-5.6-2.1-11.5-3.6-17.4-4.5l2.8-17.8
	c7.2,1.1,14.4,2.9,21.2,5.5L858.7,343.1z M793.6,337.1l-1.7-17.9c4.1-0.4,8.5-0.6,13-0.6h0.1c2.7,0,5.2,0,7.8,0l-0.2,18
	c-2.5,0-5.1,0-7.5,0H805C801,336.6,797.2,336.8,793.6,337.1L793.6,337.1z M416.5,330c-2.2,0-4.4-0.1-6.5-0.4l2.3-17.9
	c1.4,0.2,2.8,0.3,4.2,0.3c3.9-0.1,7.7-0.8,11.3-2.2l6,17C428.2,328.9,422.4,329.9,416.5,330z M316.1,329.1l-6.2-16.9
	c6.7-2.5,13.5-4.4,20.4-5.9l3.8,17.6C328,325.2,322,327,316.1,329.1L316.1,329.1z M619.6,325.2c-6.9-3.2-12.8-5.9-18.1-8.2l7.2-16.5
	c5.3,2.4,11.4,5.1,18.4,8.3L619.6,325.2z M380.5,322.6c-6.1-1-12.3-1.5-18.6-1.6l0.2-18c7.1,0.1,14.2,0.7,21.3,1.8L380.5,322.6z
	 M460,320.1l-0.8-18c1.3-0.1,2.7-0.1,4-0.1c4.9-0.2,9.7-0.8,14.5-1.8l3.5,17.8c-5.9,1.3-11.9,2-17.9,2.1
	C462.2,320.1,461.1,320.1,460,320.1L460,320.1z M511,310.8l-4.5-17.4c6.8-1.8,13.4-3.5,19.7-4.9l4,17.5
	C524.1,307.4,517.9,309,511,310.8z M574.3,306.1c-6.5-2.2-11.6-3.6-15-3.9c-0.6-0.1-1.2-0.1-1.8-0.1l0.6-18c1,0,2,0.1,3,0.2
	c4.9,0.5,11.1,2,19.1,4.8L574.3,306.1z"/>
</svg>
