<svg id="Layer_1" data-name="Layer 1" xmlns="http://www.w3.org/2000/svg" xmlns:xlink="http://www.w3.org/1999/xlink" viewBox="0 0 350 350"><defs><style>.cls-1{fill:none;}.cls-2{clip-path:url(#clip-path);}.cls-3{opacity:0.5;}.cls-4{clip-path:url(#clip-path-3);}.cls-5{fill:#e78d00;}.cls-6{fill:#fff;}.cls-7{fill:#facb03;}.cls-8{fill:#ccc;}.cls-9{fill:#fefefe;}.cls-10{fill:#f7b808;}.cls-11{fill:#703500;}.cls-12{fill:#220b00;}.cls-13{opacity:0.8;isolation:isolate;}.cls-14{clip-path:url(#clip-path-4);}.cls-15{clip-path:url(#clip-path-5);}.cls-16{clip-path:url(#clip-path-6);}.cls-17{clip-path:url(#clip-path-7);}</style><clipPath id="clip-path"><rect class="cls-1" width="350" height="350"/></clipPath><clipPath id="clip-path-3"><rect class="cls-1" x="-1" y="-1.01" width="352" height="351.94"/></clipPath><clipPath id="clip-path-4"><rect class="cls-1" x="121.04" y="234.08" width="5.69" height="5.69"/></clipPath><clipPath id="clip-path-5"><rect class="cls-1" x="121.04" y="234.08" width="5.69" height="5.69"/></clipPath><clipPath id="clip-path-6"><rect class="cls-1" x="125.81" y="239.83" width="22.13" height="16.31"/></clipPath><clipPath id="clip-path-7"><rect class="cls-1" x="125.81" y="239.83" width="22.13" height="16.31"/></clipPath></defs><title>map_lock_icon</title><g class="cls-2"><g class="cls-2"><g class="cls-3"><g class="cls-4"><path d="M351,175A176,176,0,0,1,34.2,280.53,173.92,173.92,0,0,1,17.74,254q-3.63-7.16-6.57-14.69a174.51,174.51,0,0,1-6.61-20.44q-1.93-7.59-3.23-15.43A179.47,179.47,0,0,1-1,175v-.3A175.82,175.82,0,0,1,173.09-1H175A176,176,0,0,1,351,175"/></g></g><path class="cls-5" d="M227.7,233.44h0c-.26,0-.26,0-.39-.13l-9.05-3.1,9.44,1.16a2.21,2.21,0,0,1,.91.13l-.13,1.94Z"/><path class="cls-6" d="M227.57,232.53a2.21,2.21,0,0,1,.91.13h-.78c0-.13,0-.13-.13-.13m.26-2.07-.9,3.88c.12,0,.26.13.38.13h1l.26-3.88a1.65,1.65,0,0,1-.78-.13"/><path class="cls-7" d="M230.29,233.7a8.44,8.44,0,0,1-1.81-.13l.13-1.94,1.42.13h.52Z"/><path class="cls-6" d="M228.61,232.53l1.29.13h.39a6.74,6.74,0,0,1-1.68-.13m0-1.94-.26,3.88c.64,0,1.29.13,1.94.13l.38-3.88H230Z"/><path class="cls-6" d="M181,265.76l-7.89-.52-13.7-.9h-1l-1.29-.13a2.46,2.46,0,0,1-1-.13,55.36,55.36,0,0,1-36.72-18.62A59.35,59.35,0,0,1,105,200.73l1.68-31.68c1.29-12.54,2.45-15.77,10.86-16.29l2.07-23a50,50,0,0,1,49-45.77h16.55c.64,0,1.29.13,1.94.13a50.28,50.28,0,0,1,45.5,54.43l-1.55,18.1a6.36,6.36,0,0,1,1.55.26,15.87,15.87,0,0,1,12.54,17.32l-1.55,30.26a68.55,68.55,0,0,1-10.34,30.64c-11.89,18.75-31.8,30.38-52.23,30.64M166.81,154.18l30.51,1,1.29-15a29.53,29.53,0,0,0-6.72-21.46,29.91,29.91,0,0,0-16-9.83,26.25,26.25,0,0,0-5.05,1.68A29.38,29.38,0,0,0,153,135.05l-1.68,18.75Z"/><path class="cls-6" d="M169.78,85.14h15.13c.64,0,1.29.13,1.94.13a49.43,49.43,0,0,1,44.73,53.4l-1.68,19.26a14.33,14.33,0,0,1,2.33.26A14.82,14.82,0,0,1,244,174.48l-1.55,30.26a65.4,65.4,0,0,1-10.21,30.12C221,252.57,202,264.6,181.16,264.73H181l-7.76-.52-13.7-.91h-1l-1.29-.13a2.21,2.21,0,0,1-.91-.13,54,54,0,0,1-36.07-18.22,58.3,58.3,0,0,1-14.09-44l1.68-31.68c1.29-12.93,2.46-15.13,10.73-15.51l2.07-23.79a49.3,49.3,0,0,1,48-44.86h1.16m28.44,71.23,1.43-15.9a30.91,30.91,0,0,0-7-22.24,30.29,30.29,0,0,0-16.8-10.21,29.58,29.58,0,0,0-5.43,1.81,30.39,30.39,0,0,0-18.36,25.21l-1.81,19.78,16.42.52h.38l31.16,1m-28.44-73h-1.29a51.7,51.7,0,0,0-33.75,13.7,50.62,50.62,0,0,0-16.16,33L116.77,152c-8.79.9-9.69,5.43-10.86,17.06l-1.68,31.68c-1.42,16.93,3.75,33.1,14.61,45.38a57,57,0,0,0,37.37,19,2.19,2.19,0,0,1,.9.13l1.29.13h1.3l13.57.91,7.76.51h.13c20.68-.25,40.85-12,52.75-30.77a68.41,68.41,0,0,0,10.47-31l1.55-30.38a16.82,16.82,0,0,0-13.45-18.23c-.25,0-.38-.13-.64-.13l1.55-17.19A51.43,51.43,0,0,0,187,83.46c-.65,0-1.3-.13-1.94-.13H172.11Zm-17.32,69.55L154,135.05a28.35,28.35,0,0,1,17.19-23.66,32.63,32.63,0,0,1,4.66-1.55,28.65,28.65,0,0,1,15.25,9.44,28.12,28.12,0,0,1,6.6,20.68l-1.3,14.09-29.09-.9h-.38Z"/><path class="cls-5" d="M181,264.73H178.7c-1.81,0-3.62-.26-5.43-.39Z"/><path class="cls-8" d="M231.58,138.67,229.9,157.8l-1.16,13.45-3.49-.26-9.31-.77L210,169.7l1.16-12.41v-.65l1.42-16.42a30.86,30.86,0,0,0-7-22.24A30.12,30.12,0,0,0,185,107.25a30.94,30.94,0,0,0-9.18.65,29.58,29.58,0,0,0-5.43,1.81,30.39,30.39,0,0,0-18.36,25.21l-1.81,19.78v.65l-.78,9.05-12.8-1.17-5.82-.51L131,161l.65-7,2.07-23.92a49.29,49.29,0,0,1,36.07-43.06l-1-1.81H185c.64,0,1.29.13,1.94.13a49.19,49.19,0,0,1,44.6,53.27"/><path class="cls-5" d="M244.12,174.35l-1.55,30.26c-2.72,33-30.12,59.73-61.28,60h-.13l-7.76-.52-13.7-.91h-1l-2.07-.12h-.26l2.07-3a54.58,54.58,0,0,1-19.13-14,58.26,58.26,0,0,1-14.09-44l1.68-31.67a18.2,18.2,0,0,1,2.07-7,17.53,17.53,0,0,1,1.81-2.58,16.5,16.5,0,0,1,6.33-4.79,14.31,14.31,0,0,1,6.59-1.16l6.47.26,16.94.52,31,1,12.93.39,5.95.13,1.94.13,11,.38c8.53.26,14.87,7.76,14.22,16.55"/><path class="cls-9" d="M218.65,138.67,217,157.16v.26l-1.16,12.8-.13,1.16-18.62-1.81,1.16-12.8v-.65l1.43-15.9a30.91,30.91,0,0,0-7-22.24,30.29,30.29,0,0,0-16.8-10.21,32.51,32.51,0,0,0-3.75-.65c-.52,0-1-.13-1.43-.13a30.53,30.53,0,0,0-31.54,27.67l-1.68,19.27-.13,2.06-.65,6.86-.13,1.16-7.5-.65-11.24-1,.77-8.79,2.07-23.79a49.3,49.3,0,0,1,48-44.86h3.62c.64,0,1.29.13,1.81.13a49,49,0,0,1,33.35,17.45,50.68,50.68,0,0,1,11.25,36.2"/><path class="cls-7" d="M225.25,171a15.73,15.73,0,0,1-.26,2.2l-1.56,30.25c-2.84,33.23-30.64,60.25-62.18,60H159.7a31.83,31.83,0,0,1-3.37-.25A54,54,0,0,1,120.26,245a58.3,58.3,0,0,1-14.09-44l1.68-31.68c1.29-12.93,2.46-15.13,10.73-15.51,1.68-.13,3.75-.13,6.08-.13l6.85.26,6,.25,12.93.39,16.42.52h.39l31,1,12.55.39H211c2.33.26,4.27.39,5.95.65a9.94,9.94,0,0,0,1.94.26c5.69,1.29,7.24,4,6.34,13.57"/><path class="cls-10" d="M225.25,171a15.73,15.73,0,0,1-.26,2.2l-1.56,30.25c-2.84,33.23-30.64,60.25-62.18,60H160l6.86-108.34h.39l31,1,12.55.39H211c2.33.26,4.27.39,5.95.65a9.94,9.94,0,0,0,1.94.26c5.69,1.29,7.24,4,6.34,13.57"/><path class="cls-11" d="M178.83,194.39a14.5,14.5,0,0,1-7.76,11.77l-.9,13.19a7.52,7.52,0,1,1-15-1l.91-13.32a14.66,14.66,0,0,1-6-12.67,14.39,14.39,0,0,1,28.7,2.07"/><path class="cls-11" d="M178.83,194.39a14.5,14.5,0,0,1-7.76,11.77l-.9,13.19a7.64,7.64,0,0,1-4.53,6.33,7.57,7.57,0,0,1-4.52-7.37L162,205a14.57,14.57,0,0,1-5.94-12.54,14.31,14.31,0,0,1,11.24-13,14.22,14.22,0,0,1,11.51,15"/><path class="cls-12" d="M178.83,194.39a14.5,14.5,0,0,1-7.76,11.77l-.9,13.19a7.64,7.64,0,0,1-4.53,6.33,7.57,7.57,0,0,1-4.52-7.37L162,205a14.57,14.57,0,0,1-5.94-12.54,14.31,14.31,0,0,1,11.24-13,14.22,14.22,0,0,1,11.51,15"/><g class="cls-13"><g class="cls-14"><g class="cls-15"><path class="cls-6" d="M123.88,234.08a2.85,2.85,0,1,1-2.84,2.85,2.86,2.86,0,0,1,2.84-2.85"/></g></g></g><g class="cls-13"><g class="cls-16"><g class="cls-17"><path class="cls-6" d="M131.25,241.32a24.33,24.33,0,0,0,14,9.05,3.43,3.43,0,0,1,2.72,3.37c-.13,1.55-1.94,2.71-4,2.32a29,29,0,0,1-17.32-11.25c-1.3-1.68-.91-3.87.51-4.65a3.3,3.3,0,0,1,4.14,1.16"/></g></g></g></g></g></svg>