<svg id="Layer_1" data-name="Layer 1" xmlns="http://www.w3.org/2000/svg" viewBox="0 0 500 250"><defs><style>.cls-1{fill:#4d4d4d;}.cls-2{fill:#333;}.cls-3{fill:#606060;}.cls-4{fill:#428ad1;}.cls-5{fill:#4c97ff;}</style></defs><title>piano_palette</title><rect class="cls-1" width="500" height="250" rx="20.68"/><rect class="cls-2" x="27" y="70.5" width="446" height="165.5"/><rect class="cls-3" x="27" y="232.5" width="446" height="3.5"/><rect class="cls-4" x="27" y="14" width="103.62" height="44"/><rect class="cls-5" x="27" y="11.5" width="103.62" height="44"/><path class="cls-2" d="M458.66,36a8.36,8.36,0,0,1,10.95-.93l-5.75,6,1.62,1.57,5.76-6A8.36,8.36,0,1,1,458.66,36Z"/><path class="cls-2" d="M444.74,35.2A8.36,8.36,0,0,1,446.93,46l-6.58-5L439,42.74l6.58,5a8.36,8.36,0,1,1-.82-12.57Z"/></svg>