<svg id="Layer_1" data-name="Layer 1" xmlns="http://www.w3.org/2000/svg" viewBox="0 0 500 250"><defs><style>.cls-1{fill:#4d4d4d;}.cls-2{fill:#333;}.cls-3{fill:#606060;}</style></defs><title>piano</title><rect class="cls-1" width="500" height="250" rx="20.68"/><path class="cls-2" d="M37,70.5H463a10,10,0,0,1,10,10V236a0,0,0,0,1,0,0H27a0,0,0,0,1,0,0V80.51A10,10,0,0,1,37,70.5Z"/><rect class="cls-3" x="27" y="232.5" width="446" height="3.5"/><path class="cls-2" d="M458.66,36a8.36,8.36,0,0,1,10.95-.93l-5.75,6,1.62,1.57,5.76-6A8.36,8.36,0,1,1,458.66,36Z"/><path class="cls-2" d="M444.74,35.2A8.36,8.36,0,0,1,446.93,46l-6.58-5L439,42.74l6.58,5a8.36,8.36,0,1,1-.82-12.57Z"/></svg>