<svg id="Layer_1" data-name="Layer 1" xmlns="http://www.w3.org/2000/svg" viewBox="0 0 200 200"><defs><style>.cls-1{fill:#ccc;}.cls-2{fill:#a0a0a0;}.cls-3{fill:#e5e5e5;}</style></defs><title>angle_secpo</title><rect class="cls-1" width="200" height="200" rx="100"/><polygon class="cls-2" points="122.33 91.3 122.33 108.7 108.7 108.7 108.7 122.33 91.3 122.33 91.3 108.7 77.67 108.7 77.67 91.3 91.3 91.3 91.3 77.67 108.7 77.67 108.7 91.3 122.33 91.3"/><polygon class="cls-3" points="122.33 94.63 122.33 108.7 108.7 108.7 108.7 122.33 91.3 122.33 91.3 108.7 77.67 108.7 77.67 94.63 91.3 94.63 91.3 81 108.7 81 108.7 94.63 122.33 94.63"/><circle class="cls-2" cx="100" cy="37.33" r="22.33"/><circle class="cls-2" cx="162.67" cy="100" r="22.33"/><circle class="cls-2" cx="37.33" cy="100" r="22.33"/><circle class="cls-3" cx="100" cy="40.67" r="22.33"/><circle class="cls-3" cx="162.67" cy="103.33" r="22.33"/><circle class="cls-3" cx="37.33" cy="103.33" r="22.33"/><circle class="cls-1" cx="191.33" cy="191.33" r="8.67"/></svg>