<svg id="Layer_1" data-name="Layer 1" xmlns="http://www.w3.org/2000/svg" viewBox="0 0 200 200"><defs><style>.cls-1{fill:#e5e5e5;}.cls-2{fill:#ffa617;}</style></defs><title>pointer</title><path class="cls-1" d="M0,99.82A100,100,0,1,1,99.82,200,100,100,0,0,1,0,99.82"/><polyline class="cls-1" points="66.15 176.06 99.83 196.94 133.59 176.18"/><rect x="68.4" y="173.7" width="4" height="10" transform="matrix(0.53, -0.85, 0.85, 0.53, -118.58, 144.44)"/><rect x="80.99" y="181.05" width="4" height="10.9" transform="translate(-119.25 158.75) rotate(-58.2)"/><polygon points="99.83 199.28 90.28 193.37 92.38 189.97 99.83 194.58 107.3 189.99 109.39 193.4 99.83 199.28"/><rect x="111.25" y="184.56" width="10.9" height="4" transform="translate(-80.41 88.74) rotate(-31.58)"/><rect x="124.33" y="176.8" width="10" height="4" transform="translate(-74.48 94.2) rotate(-31.58)"/><polygon class="cls-2" points="177.82 66.42 177.7 133.86 133.66 133.78 133.59 176.18 66.15 176.06 66.22 133.66 22.18 133.58 22.3 66.14 66.34 66.22 66.42 20.54 133.86 20.66 133.78 66.34 177.82 66.42"/></svg>