<svg id="Capa_1" data-name="Capa 1" xmlns="http://www.w3.org/2000/svg" viewBox="0 0 290.28 290.28"><defs><style>.cls-1{fill:#fefdf9;}</style></defs><title>duration_half</title><path class="cls-1" d="M205.37,0h-30V173.65a53.22,53.22,0,0,0-20.31-3.93c-17.46,0-35.26,7.8-48.86,21.39C80.86,216.46,77.69,254.52,99.13,276c9.24,9.24,22,14.32,36,14.32,17.46,0,35.26-7.79,48.86-21.39,11.84-11.84,19.3-26.84,21-42.23.25-2.2.37-6.54.37-6.54V0ZM175.19,223.35c-.95,8.52-5.48,17.39-12.42,24.33-7.89,7.89-18.22,12.6-27.64,12.6-4.22,0-10.21-1-14.78-5.53-9.59-9.58-6.35-29,7.07-42.42,7.89-7.89,18.22-12.6,27.64-12.6,4.22,0,10.21,1,14.78,5.52C175.6,211,175.66,219.06,175.19,223.35Z"/></svg>