<svg id="Capa_1" data-name="Capa 1" xmlns="http://www.w3.org/2000/svg" viewBox="0 0 290.28 290.28"><defs><style>.cls-1{fill:#fefdf9;}</style></defs><title>duration_eighth</title><path class="cls-1" d="M209.33,79.24C183.06,55.09,169.18,27.69,169.18,0h-30V173.65a53.22,53.22,0,0,0-20.31-3.93c-17.46,0-35.26,7.8-48.85,21.39C44.67,216.46,41.5,254.52,62.94,276c9.24,9.24,22,14.32,36,14.32,17.46,0,35.26-7.79,48.86-21.39,11.84-11.84,19.3-26.84,21-42.23a57.84,57.84,0,0,0,.36-6.54h0v-140A186.4,186.4,0,0,0,189,101.32c31.77,29.21,25.06,66.55,9.67,89.64l25,16.64C247.36,172.05,252.12,118.58,209.33,79.24Z"/></svg>