<svg id="Layer_1" data-name="Layer 1" xmlns="http://www.w3.org/2000/svg" viewBox="0 0 500 500"><defs><style>.cls-1{fill:#333;}.cls-2{fill:#fff;}.cls-3{fill:#ccc;}</style></defs><title>circle_led_background</title><path class="cls-1" d="M250,0C111.93,0,0,111.93,0,250S111.93,500,250,500,500,388.07,500,250,388.07,0,250,0Zm91,322a19,19,0,1,1,19-19A19,19,0,0,1,341,322Zm-177,0a19,19,0,1,1,19-19A19,19,0,0,1,164,322Z"/><path class="cls-2" d="M222.8,162.18a1.12,1.12,0,0,0-.84-.36h-3.58v2.4H222a1.1,1.1,0,0,0,.4-.08,1,1,0,0,0,.44-.28,1.13,1.13,0,0,0,.35-.85A1.1,1.1,0,0,0,222.8,162.18Zm17.09-.94a5,5,0,0,0-5,5,4.58,4.58,0,0,0,.16,1.24,5,5,0,0,0,9.62,0,4.58,4.58,0,0,0,.16-1.24A5,5,0,0,0,239.89,161.24Zm0,0a5,5,0,0,0-5,5,4.58,4.58,0,0,0,.16,1.24,5,5,0,0,0,9.62,0,4.58,4.58,0,0,0,.16-1.24A5,5,0,0,0,239.89,161.24Zm-17.09.94a1.12,1.12,0,0,0-.84-.36h-3.58v2.4H222a1.1,1.1,0,0,0,.4-.08,1,1,0,0,0,.44-.28,1.13,1.13,0,0,0,.35-.85A1.1,1.1,0,0,0,222.8,162.18Zm0,0a1.12,1.12,0,0,0-.84-.36h-3.58v2.4H222a1.1,1.1,0,0,0,.4-.08,1,1,0,0,0,.44-.28,1.13,1.13,0,0,0,.35-.85A1.1,1.1,0,0,0,222.8,162.18Zm17.09-.94a5,5,0,0,0-5,5,4.58,4.58,0,0,0,.16,1.24,5,5,0,0,0,9.62,0,4.58,4.58,0,0,0,.16-1.24A5,5,0,0,0,239.89,161.24Zm0,0a5,5,0,0,0-5,5,4.58,4.58,0,0,0,.16,1.24,5,5,0,0,0,9.62,0,4.58,4.58,0,0,0,.16-1.24A5,5,0,0,0,239.89,161.24Zm-17.09.94a1.12,1.12,0,0,0-.84-.36h-3.58v2.4H222a1.1,1.1,0,0,0,.4-.08,1,1,0,0,0,.44-.28,1.13,1.13,0,0,0,.35-.85A1.1,1.1,0,0,0,222.8,162.18Zm0,0a1.12,1.12,0,0,0-.84-.36h-3.58v2.4H222a1.1,1.1,0,0,0,.4-.08,1,1,0,0,0,.44-.28,1.13,1.13,0,0,0,.35-.85A1.1,1.1,0,0,0,222.8,162.18Zm17.09-.94a5,5,0,0,0-5,5,4.58,4.58,0,0,0,.16,1.24,5,5,0,0,0,9.62,0,4.58,4.58,0,0,0,.16-1.24A5,5,0,0,0,239.89,161.24Zm0,0a5,5,0,0,0-5,5,4.58,4.58,0,0,0,.16,1.24,5,5,0,0,0,9.62,0,4.58,4.58,0,0,0,.16-1.24A5,5,0,0,0,239.89,161.24Zm-17.09.94a1.12,1.12,0,0,0-.84-.36h-3.58v2.4H222a1.1,1.1,0,0,0,.4-.08,1,1,0,0,0,.44-.28,1.13,1.13,0,0,0,.35-.85A1.1,1.1,0,0,0,222.8,162.18Zm44.07-11.72a1.5,1.5,0,0,0,1.37-1.49v-1a4,4,0,0,0-3.79-4H230.31a2.9,2.9,0,0,0-2.36,1.22L226,148a4,4,0,0,1-3.25,1.69H209.83a4,4,0,0,1-3.24-1.69l-1.94-2.77A2.88,2.88,0,0,0,202.3,144H187.44a3.78,3.78,0,0,0-3.78,3.79v38.33a3.78,3.78,0,0,0,3.78,3.78l14.86-.18a2.88,2.88,0,0,1,2.35,1.22l1.94,2.77a4,4,0,0,0,3.24,1.69h12.94a4,4,0,0,0,3.25-1.69l1.93-2.77a2.9,2.9,0,0,1,2.36-1.22l34.14.18a3.79,3.79,0,0,0,3.79-3.78v-2a1.07,1.07,0,0,0-1-1.08,16.34,16.34,0,0,1-.37-32.6ZM211,160.55h0a.16.16,0,0,0,0,.07h0L203.76,175h0a2.22,2.22,0,0,1-.38.49,2.33,2.33,0,0,1-1.7.71,2.27,2.27,0,0,1-1.68-.71,2.32,2.32,0,0,1-.4-.49h0l-7.16-14.32h0l-.05-.07h0a2.4,2.4,0,0,1,.43-2.8,2.28,2.28,0,0,1,1.69-.7,2.33,2.33,0,0,1,1.69.69,3,3,0,0,1,.39.5l5.08,10.15,5.07-10.15h0a2.51,2.51,0,0,1,.39-.5,2.39,2.39,0,0,1,3.8,2.81Zm14.92,9.24,1.76,2.77h0a2.33,2.33,0,0,1,.31,1.2,2.27,2.27,0,0,1-.27,1.13h0a2.42,2.42,0,0,1-.43.55,2.31,2.31,0,0,1-1.68.7,2.29,2.29,0,0,1-1.69-.71,2.32,2.32,0,0,1-.4-.49l-4-6h-1.1v4.77a2.39,2.39,0,0,1-2.38,2.39,2.36,2.36,0,0,1-1.7-.7,2.33,2.33,0,0,1-.69-1.69V159.44a2.37,2.37,0,0,1,2.39-2.39h6a6,6,0,0,1,6,6,5.87,5.87,0,0,1-.1,1.13,5.74,5.74,0,0,1-1.64,3.09,6.34,6.34,0,0,1-1.31,1Zm22.56-2.44,1,1.29-.62,1.5-.45,1.1-1.81.22-1.41,1.41-.22,1.8-2.59,1.08-1.44-1.13h-2l-1.44,1.13-2.58-1.08-.23-1.8-1.4-1.41-1.82-.22-.46-1.1-.62-1.5,1-1.29.12-.15v-2l-.51-.64-.62-.79,1.08-2.6,1.82-.23,1.4-1.4.23-1.82,2.58-1.07,1.44,1.12h2l1.44-1.12,2.59,1.07.22,1.82,1.41,1.4,1.81.23,1.07,2.6-.62.79-.5.64v2Zm-8.54-6.11a5,5,0,0,0-5,5,4.58,4.58,0,0,0,.16,1.24,5,5,0,0,0,9.62,0,4.58,4.58,0,0,0,.16-1.24A5,5,0,0,0,239.89,161.24Zm-17.93.58h-3.58v2.4H222a1.1,1.1,0,0,0,.4-.08,1,1,0,0,0,.44-.28,1.13,1.13,0,0,0,.35-.85,1.1,1.1,0,0,0-.35-.83A1.12,1.12,0,0,0,222,161.82Zm.84.36a1.12,1.12,0,0,0-.84-.36h-3.58v2.4H222a1.1,1.1,0,0,0,.4-.08,1,1,0,0,0,.44-.28,1.13,1.13,0,0,0,.35-.85A1.1,1.1,0,0,0,222.8,162.18Zm17.09-.94a5,5,0,0,0-5,5,4.58,4.58,0,0,0,.16,1.24,5,5,0,0,0,9.62,0,4.58,4.58,0,0,0,.16-1.24A5,5,0,0,0,239.89,161.24Zm0,0a5,5,0,0,0-5,5,4.58,4.58,0,0,0,.16,1.24,5,5,0,0,0,9.62,0,4.58,4.58,0,0,0,.16-1.24A5,5,0,0,0,239.89,161.24Zm-17.09.94a1.12,1.12,0,0,0-.84-.36h-3.58v2.4H222a1.1,1.1,0,0,0,.4-.08,1,1,0,0,0,.44-.28,1.13,1.13,0,0,0,.35-.85A1.1,1.1,0,0,0,222.8,162.18Zm0,0a1.12,1.12,0,0,0-.84-.36h-3.58v2.4H222a1.1,1.1,0,0,0,.4-.08,1,1,0,0,0,.44-.28,1.13,1.13,0,0,0,.35-.85A1.1,1.1,0,0,0,222.8,162.18Zm17.09-.94a5,5,0,0,0-5,5,4.58,4.58,0,0,0,.16,1.24,5,5,0,0,0,9.62,0,4.58,4.58,0,0,0,.16-1.24A5,5,0,0,0,239.89,161.24Zm0,0a5,5,0,0,0-5,5,4.58,4.58,0,0,0,.16,1.24,5,5,0,0,0,9.62,0,4.58,4.58,0,0,0,.16-1.24A5,5,0,0,0,239.89,161.24Zm-17.09.94a1.12,1.12,0,0,0-.84-.36h-3.58v2.4H222a1.1,1.1,0,0,0,.4-.08,1,1,0,0,0,.44-.28,1.13,1.13,0,0,0,.35-.85A1.1,1.1,0,0,0,222.8,162.18Zm0,0a1.12,1.12,0,0,0-.84-.36h-3.58v2.4H222a1.1,1.1,0,0,0,.4-.08,1,1,0,0,0,.44-.28,1.13,1.13,0,0,0,.35-.85A1.1,1.1,0,0,0,222.8,162.18Zm0,0a1.12,1.12,0,0,0-.84-.36h-3.58v2.4H222a1.1,1.1,0,0,0,.4-.08,1,1,0,0,0,.44-.28,1.13,1.13,0,0,0,.35-.85A1.1,1.1,0,0,0,222.8,162.18Z"/><path class="cls-2" d="M270.58,169.21a1.15,1.15,0,0,1-.81,1.95h-3.43v-2.29h3.43A1.07,1.07,0,0,1,270.58,169.21Z"/><path class="cls-2" d="M270.58,162.33a1.08,1.08,0,0,1,.35.8,1.14,1.14,0,0,1-.35.82,1.1,1.1,0,0,1-.81.33h-3.43V162h3.43A1.07,1.07,0,0,1,270.58,162.33Z"/><path class="cls-2" d="M290.22,163.33a4.6,4.6,0,0,0-6.49,0,4.42,4.42,0,0,0-1.34,3.25,4.29,4.29,0,0,0,.14,1.14,4.58,4.58,0,0,0,4.45,3.44,4.42,4.42,0,0,0,3.24-1.34,4.46,4.46,0,0,0,1.2-2.1,4.29,4.29,0,0,0,.14-1.14A4.42,4.42,0,0,0,290.22,163.33Zm0,0a4.6,4.6,0,0,0-6.49,0,4.42,4.42,0,0,0-1.34,3.25,4.29,4.29,0,0,0,.14,1.14,4.58,4.58,0,0,0,4.45,3.44,4.42,4.42,0,0,0,3.24-1.34,4.46,4.46,0,0,0,1.2-2.1,4.29,4.29,0,0,0,.14-1.14A4.42,4.42,0,0,0,290.22,163.33Zm0,0a4.6,4.6,0,0,0-6.49,0,4.42,4.42,0,0,0-1.34,3.25,4.29,4.29,0,0,0,.14,1.14,4.58,4.58,0,0,0,4.45,3.44,4.42,4.42,0,0,0,3.24-1.34,4.46,4.46,0,0,0,1.2-2.1,4.29,4.29,0,0,0,.14-1.14A4.42,4.42,0,0,0,290.22,163.33Zm0,0a4.6,4.6,0,0,0-6.49,0,4.42,4.42,0,0,0-1.34,3.25,4.29,4.29,0,0,0,.14,1.14,4.58,4.58,0,0,0,4.45,3.44,4.42,4.42,0,0,0,3.24-1.34,4.46,4.46,0,0,0,1.2-2.1,4.29,4.29,0,0,0,.14-1.14A4.42,4.42,0,0,0,290.22,163.33Zm27-19.14H275.83a3.87,3.87,0,0,0-3.88,3.88v1.87a2.14,2.14,0,0,1-1.8,2.12l-.11,0c-6.35.58-11.58,4.09-13.58,9.59h0a14.78,14.78,0,0,0-.86,5.07,15.47,15.47,0,0,0,.12,1.95c.9,7.28,6.84,12,14.32,12.72a2.13,2.13,0,0,1,1.91,2.14V186a3.88,3.88,0,0,0,3.88,3.88h41.36a3.88,3.88,0,0,0,3.88-3.89V148.07A3.87,3.87,0,0,0,317.19,144.19Zm-42.14,23.53a5.61,5.61,0,0,1,.46,2.29,6.25,6.25,0,0,1-.11,1.16,5.76,5.76,0,0,1-5.63,4.58h-5.72a2.21,2.21,0,0,1-1.62-.67,2.18,2.18,0,0,1-.68-1.62V159.7a1.69,1.69,0,0,1,0-.23,2.33,2.33,0,0,1,2.29-2.07h5.72a5.75,5.75,0,0,1,5.74,5.73,5.78,5.78,0,0,1-1.13,3.45A5.08,5.08,0,0,1,275.05,167.72Zm21,0a8.76,8.76,0,0,1-2.62,5.34,9.16,9.16,0,0,1-13,0,8.71,8.71,0,0,1-2.62-5.34,10.6,10.6,0,0,1-.06-1.14,9.17,9.17,0,1,1,18.33,0A10.6,10.6,0,0,1,296.08,167.72Zm12.84.1,3,4.49h0a2.22,2.22,0,0,1,.3,1.15,2.11,2.11,0,0,1-.3,1.12v0a2.43,2.43,0,0,1-.38.48,2.21,2.21,0,0,1-1.62.67,2.18,2.18,0,0,1-1.61-.68,2.12,2.12,0,0,1-.38-.47h0l-2.58-3.79-2.58,3.79h0a2.07,2.07,0,0,1-.37.47,2.22,2.22,0,0,1-1.63.68,2.24,2.24,0,0,1-1.62-.67,2.37,2.37,0,0,1-.37-.48h0a2.15,2.15,0,0,1-.3-1.13,2.22,2.22,0,0,1,.3-1.15h0l3-4.49.77-1.16-3.76-5.53a.35.35,0,0,1-.06-.14,2.86,2.86,0,0,1-.23-1.29,2.21,2.21,0,0,1,.67-1.62,2.18,2.18,0,0,1,1.62-.68,2.21,2.21,0,0,1,1.63.67,2.43,2.43,0,0,1,.37.49h0l2.58,3.86,2.58-3.86h0a2.43,2.43,0,0,1,.37-.49,2.19,2.19,0,0,1,1.62-.67,2.32,2.32,0,0,1,2.3,2.3A3,3,0,0,1,312,161a.61.61,0,0,1-.07.14l-3.76,5.53ZM287,162a4.58,4.58,0,0,0-4.59,4.59,4.29,4.29,0,0,0,.14,1.14,4.58,4.58,0,0,0,4.45,3.44,4.42,4.42,0,0,0,3.24-1.34,4.46,4.46,0,0,0,1.2-2.1,4.29,4.29,0,0,0,.14-1.14,4.42,4.42,0,0,0-1.34-3.25A4.38,4.38,0,0,0,287,162Zm3.24,1.34a4.6,4.6,0,0,0-6.49,0,4.42,4.42,0,0,0-1.34,3.25,4.29,4.29,0,0,0,.14,1.14,4.58,4.58,0,0,0,4.45,3.44,4.42,4.42,0,0,0,3.24-1.34,4.46,4.46,0,0,0,1.2-2.1,4.29,4.29,0,0,0,.14-1.14A4.42,4.42,0,0,0,290.22,163.33Zm0,0a4.6,4.6,0,0,0-6.49,0,4.42,4.42,0,0,0-1.34,3.25,4.29,4.29,0,0,0,.14,1.14,4.58,4.58,0,0,0,4.45,3.44,4.42,4.42,0,0,0,3.24-1.34,4.46,4.46,0,0,0,1.2-2.1,4.29,4.29,0,0,0,.14-1.14A4.42,4.42,0,0,0,290.22,163.33Z"/><path class="cls-3" d="M164,282a21,21,0,1,0,21,21A21,21,0,0,0,164,282Zm0,40a19,19,0,1,1,19-19A19,19,0,0,1,164,322Z"/><path class="cls-3" d="M341,282a21,21,0,1,0,21,21A21,21,0,0,0,341,282Zm0,40a19,19,0,1,1,19-19A19,19,0,0,1,341,322Z"/></svg>