<svg xmlns="http://www.w3.org/2000/svg" viewBox="0 0 1020.32 388.29"><defs><style>.cls-1{fill:#b2aca8;stroke:#000;stroke-miterlimit:10;stroke-width:3px;}.cls-2{fill:#f7f6f5;}</style></defs><title>dialog</title><g id="Layer_3" data-name="Layer 3"><path class="cls-1" d="M1020.32,22V371.29a17,17,0,0,1-17,17H23.41a21.66,21.66,0,0,1-8.34-1.66A22.06,22.06,0,0,1,1.41,366.29V17a17,17,0,0,1,17-17H998.32a22.07,22.07,0,0,1,21.74,18.69A21.32,21.32,0,0,1,1020.32,22Z"/><path class="cls-2" d="M1000.58,381.34l-981.78-4a9,9,0,0,1-9-9l3-348.7a9,9,0,0,1,9-9l980.28-4a9,9,0,0,1,9,9l-1.5,356.7A9,9,0,0,1,1000.58,381.34Z"/></g></svg>