<svg xmlns="http://www.w3.org/2000/svg" viewBox="0 0 1096.7 460.39"><defs><style>.cls-1{fill:#e75d00;stroke-width:2.12px;}.cls-1,.cls-2{stroke:#000;stroke-miterlimit:10;}.cls-2{fill:#b2aca8;stroke-width:3px;}.cls-3{fill:#f7f6f5;}</style></defs><title>dialog1</title><g id="Layer_3" data-name="Layer 3"><rect class="cls-1" width="1096.7" height="460.39" rx="37.09"/><path class="cls-2" d="M1056.72,59.66V409a17,17,0,0,1-17,17H59.82a21.67,21.67,0,0,1-8.35-1.66A22.05,22.05,0,0,1,37.82,404V54.66a17,17,0,0,1,17-17h979.9a22.07,22.07,0,0,1,21.74,18.69A21.32,21.32,0,0,1,1056.72,59.66Z"/><path class="cls-3" d="M1037,419,55.21,415a9,9,0,0,1-9-9l3-348.69a9,9,0,0,1,9-9l980.28-4a9,9,0,0,1,9,9L1046,410A9,9,0,0,1,1037,419Z"/></g></svg>