<svg xmlns="http://www.w3.org/2000/svg" xmlns:xlink="http://www.w3.org/1999/xlink" viewBox="0 0 800 800"><defs><style>.cls-1,.cls-43,.cls-8{fill:#f8c946;}.cls-1{stroke:#020202;}.cls-1,.cls-12,.cls-16,.cls-17,.cls-20,.cls-22,.cls-26,.cls-37,.cls-38,.cls-39,.cls-40,.cls-41,.cls-42,.cls-43,.cls-44,.cls-46,.cls-47,.cls-51,.cls-53,.cls-55,.cls-56,.cls-6,.cls-7{stroke-miterlimit:10;}.cls-1,.cls-11,.cls-26,.cls-44{stroke-width:1.07px;}.cls-2{fill:#353535;}.cls-11,.cls-13,.cls-2,.cls-22,.cls-43,.cls-45,.cls-50,.cls-52,.cls-54{stroke:#000;}.cls-11,.cls-13,.cls-14,.cls-2,.cls-45,.cls-50,.cls-52,.cls-54{stroke-linejoin:round;}.cls-2,.cls-55{stroke-width:0.78px;}.cls-3,.cls-46,.cls-51,.cls-53,.cls-55,.cls-56{fill:#4d4d4d;}.cls-4{fill:#b3b3b3;}.cls-5{fill:#d3161d;}.cls-6{fill:#adadad;stroke:#080000;stroke-width:1.06px;}.cls-17,.cls-22,.cls-26,.cls-38,.cls-42,.cls-47,.cls-7{fill:none;}.cls-14,.cls-16,.cls-20,.cls-26,.cls-42,.cls-44,.cls-7{stroke:#070707;}.cls-7{stroke-width:1.63px;}.cls-9{fill:#683919;}.cls-10,.cls-16{fill:#945320;}.cls-11{fill:#515051;}.cls-12,.cls-15{fill:#161616;}.cls-12,.cls-17,.cls-37,.cls-38,.cls-39,.cls-40,.cls-41{stroke:#0a0a0a;}.cls-12,.cls-13,.cls-14,.cls-16,.cls-17,.cls-20,.cls-22{stroke-width:0.93px;}.cls-13{fill:#8e8a8b;}.cls-14,.cls-20{fill:#e2b647;}.cls-18{fill:#dddbd7;}.cls-19{fill:#232323;}.cls-21{fill:#3a3a3a;}.cls-23,.cls-45,.cls-50,.cls-52,.cls-54{fill:#282828;}.cls-24{fill:#7c7c7c;}.cls-25{fill:#666;}.cls-27{fill:#389cce;}.cls-28{fill:#7f1119;}.cls-29{fill:#5e0e18;}.cls-30{fill:#352f49;}.cls-31{fill:#e41e00;}.cls-32{fill:#fffe28;}.cls-33{fill:#18ff08;}.cls-34{fill:#dbdddd;}.cls-35{fill:#0fb0db;}.cls-36{fill:#303435;}.cls-37,.cls-38,.cls-39,.cls-40,.cls-41{stroke-width:0.42px;}.cls-37{fill:url(#radial-gradient);}.cls-39{fill:url(#radial-gradient-2);}.cls-40{fill:url(#radial-gradient-3);}.cls-41{fill:url(#radial-gradient-4);}.cls-42,.cls-43{stroke-width:0.53px;}.cls-44{fill:#77401b;}.cls-45{stroke-width:1.38px;}.cls-46,.cls-51,.cls-53,.cls-55,.cls-56{stroke:#151616;}.cls-46{stroke-width:0.87px;}.cls-47{stroke:#050505;stroke-width:0.75px;}.cls-48{fill:#a6adb2;}.cls-49{fill:#ced3d6;}.cls-50{stroke-width:1.11px;}.cls-51{stroke-width:0.71px;}.cls-52{stroke-width:1.32px;}.cls-53{stroke-width:0.84px;}.cls-54{stroke-width:1.23px;}.cls-56{stroke-width:2.1px;}.cls-57{opacity:0.23;isolation:isolate;}.cls-58{fill:#facc06;}.cls-59{fill:#eab12d;}.cls-60{fill:#e5b221;}.cls-61{fill:#fbf6a8;}.cls-62{fill:#e69329;}.cls-63{fill:#fbdb33;}.cls-64{fill:#f5fab9;}.cls-65{fill:#facd06;}.cls-66{fill:#e5b220;}.cls-67{fill:#fcf5ab;}.cls-68{fill:#d7ad2b;}.cls-69{fill:#e69422;}.cls-70{fill:#fff;}</style><radialGradient id="radial-gradient" cx="-4788.89" cy="289.12" r="6.5" gradientTransform="translate(-4421.97 821.08) rotate(180)" gradientUnits="userSpaceOnUse"><stop offset="0.2" stop-color="#666"/><stop offset="0.57" stop-color="#585858"/><stop offset="1" stop-color="#4d4d4d"/></radialGradient><radialGradient id="radial-gradient-2" cx="-4815.21" cy="224.78" r="6.5" gradientTransform="translate(-4420.99 820.66) rotate(180)" xlink:href="#radial-gradient"/><radialGradient id="radial-gradient-3" cx="-4788.14" cy="226.38" r="6.5" gradientTransform="translate(-4421 821.08) rotate(180)" xlink:href="#radial-gradient"/><radialGradient id="radial-gradient-4" cx="-4812.46" cy="288.02" r="6.5" gradientTransform="translate(-4421.96 820.71) rotate(180)" xlink:href="#radial-gradient"/></defs><title>invention_teaching_robot3</title><g id="Layer_3" data-name="Layer 3"><polygon class="cls-1" points="268.61 490.63 342.35 468.09 360.71 523.42 274.68 506.39 268.61 490.63"/><path class="cls-2" d="M241.56,667.64a68.54,68.54,0,0,1,2.79-10.94c5.12-14.91,21-60,34.77-86.94,8.11-15.88,13.06-26.76,17.27-34.88A69.85,69.85,0,0,1,316.72,511c5.67-4.2,12.18-8.92,21.9-12.28,12.68-4.39,26.19-3.77,39.4-1.42,32.91,5.87,50.63,7.24,57,9.54,6.22,4.62,32.43,34.52,33.3,58.93.63,17.62-1.71,41.48-14.81,59.85s-66.4,106.76-88.22,107.76c-25.47,1.16-90.53-5-109-19.53C239.76,700.82,238.71,685,241.56,667.64Z"/><path class="cls-3" d="M356.64,730.25c-9.91,0-17.73-2.37-23.92-7.25-15-11.84-16.22-25.65-13.42-42.76a65.87,65.87,0,0,1,2.64-10.34c4.63-13.47,20.78-59.5,34.56-86.47,4.49-8.76,8.08-16.16,11-22.1,2.38-4.91,4.44-9.14,6.31-12.75A66.62,66.62,0,0,1,393.06,526c5.1-3.78,11.45-8.49,20.91-11.76a63.32,63.32,0,0,1,20.68-3.44,67.33,67.33,0,0,1,16.6,2.11c22.56,5.79,37.64,17.29,44.08,22.2l1.56,1.18.79.59c19.75,14.56,30,29.25,30.53,43.66.59,16.41-1.38,39.72-14.12,57.58-5.79,8.12-28.25,27-55.89,47.11-28.32,20.57-52.47,35.34-61.52,37.65l-4.5,1.17C381,727,368.29,730.25,356.64,730.25Z"/><path d="M434.61,514.48a63.32,63.32,0,0,1,15.69,2c21.84,5.6,36.5,16.79,42.76,21.56l1.59,1.21.81.59a106.53,106.53,0,0,1,17.27,15.38c7.51,8.62,11.47,17.18,11.77,25.46,1,28.69-6.75,45.91-13.45,55.3-5.49,7.7-28.13,26.73-55.05,46.28-27.55,20-51.76,34.89-60.27,37l-4.52,1.17c-11,2.86-23.39,6.09-34.57,6.09-9.05,0-16.13-2.11-21.64-6.46-6.42-5.06-10.37-10.8-12.09-17.54-1.49-5.84-1.48-12.54,0-21.73a60.65,60.65,0,0,1,2.54-9.65c4.61-13.41,20.69-59.23,34.36-86,4.5-8.8,8.1-16.22,11-22.18,2.36-4.88,4.41-9.09,6.26-12.65A62.59,62.59,0,0,1,395.25,529c4.89-3.63,11-8.15,19.92-11.24a59.49,59.49,0,0,1,19.47-3.24m0-7.36a67.05,67.05,0,0,0-21.88,3.64c-9.72,3.36-16.23,8.08-21.9,12.29a69.51,69.51,0,0,0-20.32,23.84c-4.22,8.12-9.17,19-17.28,34.87-13.77,27-29.65,72-34.77,86.94a68.54,68.54,0,0,0-2.79,10.94c-2.85,17.39-1.8,33.19,14.78,46.25,7.56,6,16.64,8,26.19,8,13.74,0,28.43-4.3,40.91-7.48,21.17-5.4,106.4-67.83,119.49-86.19s15.38-42.22,14.78-59.84C531,556,505.26,538,499.05,533.34c-5.27-3.91-21.55-17.48-46.92-24a70.87,70.87,0,0,0-17.52-2.2Z"/><ellipse class="cls-4" cx="471.06" cy="592.87" rx="49.01" ry="39.16" transform="translate(-136.79 1044.43) rotate(-88.14)"/><ellipse class="cls-4" cx="418.91" cy="660.94" rx="35.12" ry="28.06" transform="translate(-255.28 1058.17) rotate(-88.14)"/><ellipse class="cls-4" cx="362.14" cy="686.74" rx="27.63" ry="22.08" transform="translate(-335.99 1026.4) rotate(-88.14)"/><ellipse class="cls-5" cx="473.56" cy="592.95" rx="18.31" ry="13.32" transform="matrix(0.03, -1, 1, 0.03, -134.45, 1047.01)"/><ellipse class="cls-5" cx="420.11" cy="662.35" rx="11.5" ry="15.81" transform="translate(-129.51 102.78) rotate(-12.1)"/><ellipse class="cls-5" cx="362.08" cy="688.6" rx="8.52" ry="11.71" transform="translate(-136.3 91.2) rotate(-12.1)"/><path class="cls-6" d="M347.93,649.14s6.45-12.44,25.45-5.85c3.61-8.06,11.22-29.92,45.11-26.79-1.53-7.57-14.3-40.42,11.53-72-9.87-4.61-16-7.67-28.86,7.65S346.62,645.29,347.93,649.14Z"/><line class="cls-7" x1="296.59" y1="534.5" x2="372.54" y2="543.24"/><line class="cls-7" x1="341" y1="498.01" x2="425.54" y2="507.73"/><polyline class="cls-7" points="437.59 509.11 460.03 511.69 460.04 511.69"/><line class="cls-7" x1="273.79" y1="580.8" x2="349.45" y2="589.5"/><line class="cls-7" x1="255.04" y1="626.84" x2="330.41" y2="635.51"/><line class="cls-7" x1="240.64" y1="674.64" x2="315.14" y2="683.21"/><path class="cls-8" d="M319.83,466.43S414.64,423,457,416.29c0,0,113.77-4.14,211.54,3.9C656.85,428.59,557,468,542.84,470.53S357.34,472.55,319.83,466.43Z"/><path class="cls-9" d="M512.17,459.49s38.61-21.82,42.52-23-73.32-5.07-73.32-5.07-37.5,20.51-40,22.82S512.17,459.49,512.17,459.49Z"/><path class="cls-10" d="M669.79,420s6.27,162.09-6.53,202.84c-12.25,10-96.35,46.38-123,45.91-2.68-18.62-3.77-185,3.82-198.41C554.11,462.74,628.93,430.81,669.79,420Z"/><path class="cls-5" d="M319.83,466.43s-4.48,82.7-2.52,143.48c.75,23.42,22.87,46.55,26.64,47.49,8.43,8,208.59,19.74,220.39,12.07,0,0-21.52-17.59-20.73-49.85,1-40.3-.54-100.51.44-149.31C536.83,466.42,355.11,461.74,319.83,466.43Z"/><path class="cls-11" d="M517.71,376.14l.06,61.07-53.49.59c-8.95,0-16.22-13.65-16.24-30.51s7.23-30.55,16.18-30.55c3,0,5.82,1.54,8.25,4.23Z"/><path class="cls-12" d="M282.28,366.26s18.82,13.88,53.86,18.3c15.56,2,35.92.17,55.58-2.38C455.61,373.9,484,340.62,484,340.62s-4.28-44-5.12-58.76-21-43.48-21-43.48Z"/><path class="cls-12" d="M688.59,367.87s-12.16,21.79-53,20-100.34-17.55-100.34-17.55L498,320.72Z"/><path class="cls-5" d="M464.94,247.71h20.82l-.43,68.34H465S468.1,270.84,464.94,247.71Z"/><polygon class="cls-13" points="465 316.05 478.38 334.2 492.9 334.19 485.33 316.03 465 316.05"/><polygon class="cls-14" points="449.1 316.06 504.81 316.01 501.36 414.18 448.54 413 449.1 316.06"/><path class="cls-15" d="M465.08,315.46l-1.46,11.76a2,2,0,0,1-.81,1.4L448.5,339.2a2,2,0,0,1-2.8-.38,2.05,2.05,0,0,1-.39-.94l-.48-3.27a2,2,0,0,1,.56-1.72l16.26-19.07a2,2,0,0,1,2.83-.06A2,2,0,0,1,465.08,315.46Z"/><polygon class="cls-16" points="535.24 370.35 529.97 392.51 501.36 414.18 504.81 316.01 535.24 370.35"/><path class="cls-12" d="M486,317.73s.94,11.3,3.3,13.09S522.7,346,526.39,346.48s3-8,3-8Z"/><path class="cls-17" d="M486,317.73s1.16,13.65,4.24,13.64c3.67,1.81,31,13.75,31,13.75"/><path class="cls-18" d="M669.23,369.35c-4.12,0-8.88-.26-14.14-.76l-.37,0C618.31,364.93,565.08,350.16,531,338c-3.92-1.41-7.83-2.86-11.61-4.33-3.41-1.34-6.15-2.45-8.61-3.5-1.54-.66-3-1.3-4.4-1.92-8.51-3.84-12.37-6.31-14.12-7.71a10.17,10.17,0,0,1-.91-.83c-.27-1.18-.51-2.62-.73-4.32v-.31c-.56-4.42-.95-10.48-1.15-17.57a424.09,424.09,0,0,1,1.63-49.26c.11-1.14.23-2.22.36-3.28a7.29,7.29,0,0,1,6.71-6.4c8.37-.6,17-1,25.53-1.22,5.32-.13,10.77-.2,16.21-.2a777.68,777.68,0,0,1,104.53,7.52c11.19,1.56,22.43,3.38,32.5,5.27l.73.14.48.09a7.35,7.35,0,0,1,5.67,5.28,156,156,0,0,1,5,27.19v.08a239.68,239.68,0,0,1,1.09,25.7c-.07,7.34-.42,15-1,22.84-.14,1.79-.29,3.51-.45,5.19v.43c-.14,1.44-.29,2.84-.44,4.2-1,8.88-2.09,16.2-2.87,20.79-.06.27-.1.55-.15.81v.15a7.19,7.19,0,0,1-.82,2.3l-.17.28s-.28.4-.42.62l-.12.15a7.13,7.13,0,0,1-4.54,2.6c-.55.08-1.12.16-1.69.22A74,74,0,0,1,669.23,369.35Z"/><path class="cls-19" d="M539.88,242.46a772.17,772.17,0,0,1,103.82,7.47c11.1,1.55,22.25,3.35,32.24,5.23h.13l.58.11.47.09a2,2,0,0,1,1.55,1.5,150.35,150.35,0,0,1,4.78,26.28v.13a233.43,233.43,0,0,1,1.06,25.08c-.06,7.23-.41,14.78-1,22.48-.15,1.92-.29,3.57-.43,5.05v.51q-.21,2.12-.42,4.08c-1,8.73-2.06,15.92-2.83,20.44-.06.29-.11.58-.15.86v.13a1.55,1.55,0,0,1-.18.51l-.1.18-.16.23a1.83,1.83,0,0,1-1.18.66c-.45.07-.94.13-1.45.19a65.65,65.65,0,0,1-7.29.35c-3.94,0-8.5-.25-13.57-.73h-.47c-35.91-3.57-88.61-18.2-122.38-30.29-3.89-1.39-7.76-2.83-11.45-4.27-3.33-1.3-6.11-2.43-8.51-3.46-1.29-.54-2.65-1.13-4.26-1.85-7.41-3.35-10.87-5.49-12.36-6.55-.1-.59-.2-1.29-.31-2.12l-.06-.42c-.52-4.25-.9-10.09-1.09-16.93a421.27,421.27,0,0,1,1.6-48.58v0c.1-1.07.22-2.11.34-3.12a2,2,0,0,1,1.79-1.73c8.28-.59,16.79-1,25.3-1.2,5.26-.14,10.66-.2,16.06-.2m0-10.68q-8.07,0-16.34.2c-8.5.21-17.13.61-25.78,1.23a12.66,12.66,0,0,0-10.53,7.23,13.23,13.23,0,0,0-1.11,3.89c-.12,1.09-.25,2.21-.36,3.36a429.15,429.15,0,0,0-1.65,49.94c.19,7.17.6,13.57,1.22,18.4h0a47.74,47.74,0,0,0,1,5.44,2.75,2.75,0,0,0,.25.64h0a9.26,9.26,0,0,0,2.35,2.52c3,2.38,8.26,5.26,15.28,8.42l4.48,2c2.73,1.16,5.67,2.35,8.78,3.57,3.69,1.43,7.62,2.9,11.74,4.38,36.83,13.17,89.4,27.32,124.93,30.85l.43,0c5.32.51,10.24.79,14.67.79a77,77,0,0,0,8.46-.41c.63-.07,1.26-.16,1.87-.25a12.5,12.5,0,0,0,7.92-4.53,3.9,3.9,0,0,0,.34-.46l.43-.62a2.14,2.14,0,0,0,.2-.32.54.54,0,0,0,.1-.16v-.06a12.51,12.51,0,0,0,1.52-4.18c.05-.3.1-.61.16-.91.88-5.19,2-12.49,2.93-21.17.16-1.42.31-2.87.45-4.37v-.17c.17-1.75.32-3.56.47-5.41.59-7.24,1-15.08,1.07-23.24a245.68,245.68,0,0,0-1.12-26.3,0,0,0,0,0,0-.05A160.7,160.7,0,0,0,689,254a12.7,12.7,0,0,0-9.83-9.07l-1.2-.23c-7.13-1.34-18.41-3.31-32.74-5.3a777.53,777.53,0,0,0-105.29-7.58Z"/><polygon class="cls-20" points="452.66 428.6 455.15 454.46 512.24 455.46 507.02 429.56 452.66 428.6"/><polygon class="cls-16" points="533.13 416.34 547.83 436.34 512.24 455.46 507.02 429.56 533.13 416.34"/><ellipse class="cls-21" cx="517.74" cy="406.7" rx="16.2" ry="30.53"/><path class="cls-22" d="M464.65,314.35s-.6,13.35-1.84,14.27L448.5,339.2"/><path class="cls-18" d="M300.26,365a72,72,0,0,1-11.07-.74,7,7,0,0,1-5.8-5.8c-3.18-19.39-9.37-68.66,2-107.24a7.09,7.09,0,0,1,5.53-5c31.52-5.73,65.69-8.63,101.56-8.63,18.45,0,37.51.77,56.65,2.3a7,7,0,0,1,6.41,6.23c2.57,23.66,2.24,63.06-.59,74.73-2.88,3.78-23.84,14.42-60.93,25.93C357.1,358.14,322.06,365,300.26,365Z"/><path class="cls-19" d="M392.45,243.14c18.3,0,37.2.76,56.2,2.27a1.45,1.45,0,0,1,1.28,1.26c2.6,24,2.09,59.14-.14,71.21-5.34,4.26-26.59,14.07-60,24.26-35.39,10.79-68.85,17.23-89.49,17.23a65.72,65.72,0,0,1-10.2-.68,1.41,1.41,0,0,1-1.13-1.17c-3.13-19-9.2-67.28,1.81-104.75a1.53,1.53,0,0,1,1.15-1.1c31.19-5.67,65-8.54,100.56-8.54h0m0-11.22c-49.92,0-85,5.53-102.57,8.72a12.77,12.77,0,0,0-9.9,9c-11.74,39.94-5.22,90.83-2.12,109.73a12.62,12.62,0,0,0,10.47,10.43,76.83,76.83,0,0,0,11.93.81c51.74,0,156.77-35.72,160-48s3.46-53,.84-77.14a12.61,12.61,0,0,0-11.53-11.21c-20.75-1.65-39.81-2.32-57.1-2.32Z"/><path class="cls-23" d="M554.62,332.4c-21.24-.37-38.19-19.45-37.78-42.54.4-22.71,17.72-41.19,38.61-41.19h.64c21.24.37,38.18,19.45,37.78,42.54-.4,22.71-17.72,41.19-38.62,41.19Z"/><path class="cls-24" d="M555.45,253.21H556c18.73.33,33.68,17.35,33.32,37.93a39,39,0,0,1-10.47,26.26,32.33,32.33,0,0,1-23.61,10.47h-.55a32.29,32.29,0,0,1-23.6-11.11,40,40,0,0,1,.74-53.08,32.42,32.42,0,0,1,23.61-10.47m0-9.08c-23.45,0-42.7,20.28-43.15,45.65-.45,25.63,18.46,46.74,42.24,47.16h.71c23.46,0,42.71-20.28,43.16-45.65.45-25.63-18.46-46.74-42.24-47.16Z"/><path class="cls-23" d="M391.45,331.33c-21.23-.37-38.18-19.45-37.77-42.54.4-22.71,17.72-41.19,38.61-41.19h.64c21.23.37,38.18,19.45,37.77,42.54-.4,22.71-17.72,41.19-38.61,41.19Z"/><path class="cls-24" d="M392.24,252.14h.56c18.73.32,33.68,17.34,33.32,37.92a39,39,0,0,1-10.47,26.26A32.38,32.38,0,0,1,392,326.79h-.59c-18.73-.33-33.68-17.34-33.32-37.93A39.06,39.06,0,0,1,368.6,262.6a32.44,32.44,0,0,1,23.64-10.46m0-9.08c-23.45,0-42.71,20.28-43.15,45.65-.45,25.63,18.46,46.75,42.23,47.16H392c23.45,0,42.71-20.28,43.15-45.65.45-25.63-18.46-46.74-42.23-47.16Z"/><ellipse class="cls-25" cx="518.97" cy="408.4" rx="15.24" ry="7.04" transform="translate(101.49 920.09) rotate(-88.99)"/><path class="cls-26" d="M448.78,417.67c-24,3.11-128.95,48.76-128.95,48.76s-6.33,135-2.52,143.48c1.5,9.87,1.46,22.21,23.25,45.13,7.22,3.89,9.91,13.54,157.68,16.62"/><path class="cls-26" d="M533.35,415s131,2.43,136.44,5c0,0,2.46,112.43,1.19,119.07"/><ellipse class="cls-27" cx="394.33" cy="290.55" rx="19.09" ry="16.06" transform="translate(96.87 679.7) rotate(-88.99)"/><ellipse class="cls-27" cx="557.81" cy="290.6" rx="19.09" ry="16.06" transform="translate(257.43 843.2) rotate(-88.99)"/><path class="cls-28" d="M494.63,518.28l-129-5.29a9.62,9.62,0,0,0-10,9.21c0,.18,0,.36,0,.54l1.18,76.64a9.61,9.61,0,0,0,9.22,9.45l129.14,5.31a9.63,9.63,0,0,0,10-9.25c0-.18,0-.35,0-.53l-1.33-76.65A9.59,9.59,0,0,0,494.63,518.28Z"/><path class="cls-29" d="M496.64,522l-129.32-5.57a7.48,7.48,0,0,0-7.79,7.15c0,.15,0,.3,0,.44l1.19,77a7.46,7.46,0,0,0,7.14,7.35l129.31,5.75A7.48,7.48,0,0,0,505,607c0-.15,0-.3,0-.46l-1.18-77.22A7.47,7.47,0,0,0,496.64,522Z"/><path class="cls-30" d="M412.71,557.35l79.6,2.69a4.82,4.82,0,0,0,4.92-4.69l-.53-22.66a4.82,4.82,0,0,0-4.69-4.91l-79.6-2.7a4.83,4.83,0,0,0-4.91,4.69l.52,22.66A4.82,4.82,0,0,0,412.71,557.35Z"/><ellipse class="cls-31" cx="478.94" cy="543.67" rx="11.63" ry="9.3" transform="translate(-68.97 1017.75) rotate(-89.49)"/><ellipse class="cls-32" cx="450.87" cy="542.49" rx="11.63" ry="9.3" transform="translate(-95.61 988.51) rotate(-89.49)"/><ellipse class="cls-33" cx="423.37" cy="542.15" rx="11.63" ry="9.3" transform="translate(-122.53 960.68) rotate(-89.49)"/><path class="cls-34" d="M428.45,577.29l62.66,2.41a5,5,0,0,0,5.11-4.89h0a5,5,0,0,0-4.9-5.1h0l-62.66-2.41a5,5,0,0,0-5.11,4.89h0a5,5,0,0,0,4.9,5.1Z"/><path class="cls-35" d="M463.69,608.85l27.83.91a5,5,0,0,0,5.11-4.89h0a5,5,0,0,0-4.88-5.11h0l-27.84-.91a5,5,0,0,0-5.11,4.89h0a5,5,0,0,0,4.9,5.1Z"/><path class="cls-35" d="M463.45,594.82l27.84.91a5,5,0,0,0,5.1-4.9h0a5,5,0,0,0-4.89-5.1l-27.84-.91a5,5,0,0,0-5.1,4.89h0a5,5,0,0,0,4.89,5.11Z"/><polygon class="cls-36" points="398.78 525.29 360.71 523.42 361.92 601.69 400.37 603.1 398.78 525.29"/><ellipse class="cls-37" cx="367.14" cy="532.48" rx="4.16" ry="4.82" transform="translate(-8.13 5.7) rotate(-0.88)"/><path class="cls-38" d="M367.12,527.63s-1.75,6,.41,9.63"/><path class="cls-38" d="M371.35,532.38s-5.31,1.33-8.31.13"/><ellipse class="cls-39" cx="394.46" cy="596.41" rx="4.16" ry="4.82" transform="translate(-9.11 6.13) rotate(-0.88)"/><path class="cls-38" d="M394.45,591.56s-1.74,6,.42,9.62"/><path class="cls-38" d="M398.67,596.31s-5.32,1.32-8.32.13"/><ellipse class="cls-40" cx="367.38" cy="595.23" rx="4.16" ry="4.82" transform="translate(-9.1 5.71) rotate(-0.88)"/><path class="cls-38" d="M367.34,590.37s-1.74,6,.42,9.63"/><path class="cls-38" d="M371.58,595.14s-5.32,1.33-8.32.13"/><ellipse class="cls-41" cx="390.74" cy="533.21" rx="4.16" ry="4.82" transform="translate(-8.14 6.06) rotate(-0.88)"/><path class="cls-38" d="M390.7,528.37s-1.74,6,.42,9.62"/><path class="cls-38" d="M394.94,533.14s-5.32,1.32-8.32.12"/><path class="cls-42" d="M496.17,574.8s-10.89-3.25-21,.33-10.7-5.5-15.4-5.31-5.7,7.1-12.09,6.5-4.32-3.08-7.35-3-3,3.23-5.85,2.9-4.21-9.16-5.88-8.91"/><path class="cls-2" d="M488.24,703A68.54,68.54,0,0,1,491,692.05c5.12-14.9,21-60,34.77-86.94,8.11-15.88,13.06-26.76,17.27-34.88a69.77,69.77,0,0,1,20.38-23.83c5.67-4.21,12.18-8.93,21.9-12.29,12.68-4.39,26.19-3.77,39.4-1.42,32.91,5.87,50.63,7.24,57,9.54,6.22,4.62,32.43,34.52,33.3,58.93.63,17.62-1.71,41.48-14.81,59.85S633.83,767.77,612,768.77c-25.47,1.16-90.53-5-109-19.53C486.45,736.14,485.39,720.37,488.24,703Z"/><path class="cls-3" d="M603.32,765.6c-9.91,0-17.73-2.37-23.92-7.25-15-11.83-16.22-25.65-13.42-42.76a65.87,65.87,0,0,1,2.64-10.34c4.63-13.47,20.78-59.5,34.56-86.46,4.48-8.77,8.08-16.17,11-22.11,2.38-4.9,4.44-9.14,6.31-12.75a66.37,66.37,0,0,1,19.25-22.57c5.1-3.79,11.45-8.49,20.91-11.77a63.32,63.32,0,0,1,20.64-3.45,67.33,67.33,0,0,1,16.6,2.11c22.57,5.79,37.65,17.3,44.08,22.21l1.56,1.18.79.58c19.75,14.56,30,29.25,30.53,43.67.59,16.41-1.39,39.71-14.12,57.57-5.79,8.12-28.25,27-55.89,47.12-28.32,20.56-52.47,35.33-61.52,37.64l-4.51,1.17C627.64,762.31,615,765.6,603.32,765.6Z"/><path d="M681.29,549.83a63.32,63.32,0,0,1,15.69,2c21.84,5.6,36.5,16.79,42.76,21.56l1.59,1.21.81.6a105.86,105.86,0,0,1,17.31,15.37c7.51,8.62,11.47,17.18,11.76,25.46,1,28.69-6.74,45.91-13.44,55.3-5.49,7.71-28.13,26.74-55,46.28-27.55,20-51.77,34.89-60.27,37.06-1.48.37-3,.77-4.52,1.17-11,2.85-23.39,6.08-34.57,6.08-9,0-16.13-2.11-21.64-6.46-6.42-5.06-10.37-10.79-12.09-17.54-1.49-5.84-1.48-12.54,0-21.73a60.88,60.88,0,0,1,2.49-9.75c4.6-13.4,20.69-59.22,34.36-86,4.5-8.8,8.1-16.22,11-22.18,2.37-4.88,4.42-9.09,6.27-12.65A62.66,62.66,0,0,1,642,564.29c4.9-3.63,11-8.15,19.93-11.24a59.49,59.49,0,0,1,19.47-3.24m0-7.36a67,67,0,0,0-21.92,3.69c-9.72,3.37-16.23,8.08-21.9,12.29a69.64,69.64,0,0,0-20.33,23.84c-4.21,8.12-9.16,19-17.27,34.87-13.78,27-29.65,72-34.77,86.94a68.19,68.19,0,0,0-2.79,11c-2.85,17.38-1.8,33.18,14.77,46.24,7.57,6,16.65,8,26.2,8,13.73,0,28.43-4.3,40.91-7.48,21.16-5.4,106.4-67.83,119.49-86.19s15.44-42.23,14.81-59.85c-.87-24.41-26.59-42.45-32.81-47.07-5.26-3.91-21.54-17.48-46.91-24a70.9,70.9,0,0,0-17.52-2.23Z"/><ellipse class="cls-4" cx="717.73" cy="628.22" rx="49.01" ry="39.16" transform="matrix(0.03, -1, 1, 0.03, 66.55, 1325.18)"/><ellipse class="cls-4" cx="665.59" cy="696.29" rx="35.12" ry="28.06" transform="translate(-51.93 1338.93) rotate(-88.14)"/><ellipse class="cls-4" cx="608.82" cy="722.09" rx="27.63" ry="22.08" transform="translate(-132.65 1307.15) rotate(-88.14)"/><ellipse class="cls-5" cx="720.24" cy="628.3" rx="18.31" ry="13.32" transform="translate(68.9 1327.77) rotate(-88.14)"/><ellipse class="cls-5" cx="666.79" cy="697.7" rx="11.5" ry="15.81" transform="translate(-131.44 155.27) rotate(-12.1)"/><ellipse class="cls-5" cx="608.76" cy="723.95" rx="8.52" ry="11.71" transform="translate(-138.23 143.69) rotate(-12.1)"/><path class="cls-6" d="M594.61,684.5s6.45-12.44,25.45-5.85c3.61-8.06,11.21-29.92,45.11-26.79-1.53-7.57-14.3-40.41,11.53-72-9.87-4.61-16-7.67-28.87,7.65S593.3,680.64,594.61,684.5Z"/><line class="cls-7" x1="543.27" y1="569.86" x2="619.22" y2="578.59"/><line class="cls-7" x1="587.68" y1="533.36" x2="672.22" y2="543.08"/><polyline class="cls-7" points="684.27 544.46 706.71 547.04 706.72 547.04"/><line class="cls-7" x1="520.47" y1="616.15" x2="596.13" y2="624.85"/><line class="cls-7" x1="501.72" y1="662.19" x2="577.09" y2="670.86"/><line class="cls-7" x1="487.32" y1="709.99" x2="561.82" y2="718.56"/><ellipse class="cls-43" cx="365.06" cy="453.06" rx="12.79" ry="3.91" transform="translate(-75.84 73.4) rotate(-10.41)"/><path class="cls-44" d="M631.11,474.89a2.79,2.79,0,0,1-1.06-.22Z"/><path class="cls-45" d="M511.73,391c.45,5.4,4.29,9,3.86,13-.29,2.71-2.83,6-6.19,8l-3.16,1.89-.33.19c-3.14,1.75-6.29,2-7.71.43-3.62-3.89-11.95-15-15-20.85-1-2,.27-5.28,3.16-8a63,63,0,0,1,10.09-7.89,29.79,29.79,0,0,1,5.9-2.73c1.67-.53,4.21-1.37,5.81-.23a3,3,0,0,1,.6.58c3,3.4,6.36,7.17,7.86,11.54C517.36,389.14,514.82,390.37,511.73,391Z"/><path class="cls-46" d="M503.34,389.42l1-.66A34.48,34.48,0,0,1,510,386c1.68-.63,3.62-1.36,5.4-.7a3.28,3.28,0,0,1,1.79,1.81c.77,1.66,1.25,3.53,1.88,5.25s1.35,3.66,2,5.51a64.22,64.22,0,0,1,3.08,11.8,22.44,22.44,0,0,1,.24,4.91c-.19,2.72-2.62,6.1-5.9,8.23-1.17.76-2.2,1.43-3.1,2l-.31.2c-3.08,1.86-6.22,2.17-7.69.7-3.77-3.76-12.49-14.58-15.71-20.31-1.68-3,1.41-6.38,3.2-8.42A44.34,44.34,0,0,1,503.34,389.42Z"/><line class="cls-47" x1="299.36" y1="514.51" x2="298.9" y2="514.71"/><path class="cls-48" d="M516.34,406.14l23.41-13.91,4.62,7.82a45.31,45.31,0,0,1-60.2,37.89,17.89,17.89,0,0,0-15.09,1.56L297.39,538.17a15.4,15.4,0,0,0-5.79,9.71A39.28,39.28,0,0,1,237.78,578l-4.05-6.75,20.32-12.07A15.75,15.75,0,0,0,238,532.12l-20.31,12.06-4-6.78a39.3,39.3,0,0,1,52.2-32.86,15.54,15.54,0,0,0,13.09-1.36l9.79-5.82L445.9,400.48A17.86,17.86,0,0,0,454.48,388a45.32,45.32,0,0,1,62.06-34.75L521.2,361l-23.41,13.91a18.16,18.16,0,1,0,18.55,31.22Z"/><path class="cls-49" d="M513.67,402l23.41-13.91,4.61,7.81a45.31,45.31,0,0,1-60.19,37.9,17.88,17.88,0,0,0-15.09,1.55L294.72,534a15.37,15.37,0,0,0-5.79,9.7,39.31,39.31,0,0,1-53.83,30.14l-4-6.75,20.31-12.07A15.75,15.75,0,0,0,235.29,528L215,540l-4-6.78a39.31,39.31,0,0,1,52.2-32.87,15.49,15.49,0,0,0,13.1-1.36l9.79-5.81,157.17-96.88a17.94,17.94,0,0,0,8.58-12.51,45.32,45.32,0,0,1,62.06-34.75l4.66,7.79-23.41,13.91A18.16,18.16,0,1,0,513.67,402Z"/><path class="cls-45" d="M274.2,499.14c5.23,6.11,20.79,25.19,20.15,35.37,0,.76-12.57,4.45-13.28,4.74-11,4.46-20.71,3.08-21.65,2.09s-4-21.81,3.7-42.84a3.54,3.54,0,0,1,2.33-2.16,34.07,34.07,0,0,1,10.87-1.74C277.84,494.61,273.19,497.92,274.2,499.14Z"/><path class="cls-46" d="M278.34,489.8c2.13,7.76,8.06,31.65,3.14,40.59a3.31,3.31,0,0,1-1.67,1.46c-11,4.46-20.71,3.08-21.65,2.09s-4-21.81,3.69-42.83a3.52,3.52,0,0,1,2.29-2.13A34.13,34.13,0,0,1,275,487.24,3.49,3.49,0,0,1,278.34,489.8Z"/><path class="cls-45" d="M301,486.14c2,8.74,7.3,34.35,2.73,43.75a3.81,3.81,0,0,1-2,1.93c-10.93,4.37-20.55,3-21.48,2s-3.41-25.5,4.22-46.67a3.89,3.89,0,0,1,2.58-2.4,33.67,33.67,0,0,1,10.1-1.68A4,4,0,0,1,301,486.14Z"/><path class="cls-46" d="M300.45,478.14c2,8.75,7.3,34.36,2.73,43.76a3.83,3.83,0,0,1-2,1.92c-10.93,4.38-20.55,3-21.48,2s-3.41-25.51,4.22-46.68a3.93,3.93,0,0,1,2.58-2.4,33.66,33.66,0,0,1,10.1-1.67A4,4,0,0,1,300.45,478.14Z"/><path class="cls-45" d="M324.1,485.92c2,8.41,6.84,30.93,2.46,40a4.13,4.13,0,0,1-2.23,2.08c-10.88,4.31-20.42,3-21.35,2s-3.18-22.18,4.37-43.1a4.29,4.29,0,0,1,2.84-2.65,33.91,33.91,0,0,1,9.63-1.61A4.34,4.34,0,0,1,324.1,485.92Z"/><path class="cls-46" d="M323.29,475.25c2,8.41,6.84,30.92,2.46,40a4.2,4.2,0,0,1-2.23,2.08c-10.88,4.31-20.43,3-21.36,2s-3.18-22.19,4.38-43.19a4.29,4.29,0,0,1,2.83-2.64,33.64,33.64,0,0,1,9.64-1.62A4.37,4.37,0,0,1,323.29,475.25Z"/><path class="cls-45" d="M351.45,524.29S324.61,553.81,312.68,553c-10.43-6.78-14.89-16.15-14.57-17.52s20.52-17.81,43.17-22.63C346.77,517.28,348.66,519.51,351.45,524.29Z"/><path class="cls-46" d="M354.65,522.73c-6.41,6.69-23.85,24-34.1,25.92a4.72,4.72,0,0,1-3.6-.79c-9.44-6.68-13.49-15.27-13.19-16.58s19.15-16.69,40.83-22.09a4.65,4.65,0,0,1,4.16,1,33.66,33.66,0,0,1,6.39,6.83A4.57,4.57,0,0,1,354.65,522.73Z"/><path class="cls-44" d="M629.63,506.69l-21.52-4h0l-1.06-.2L526.93,469.6c-8.37-5.09-11.7-18.62-6.15-35.8,3.86-12,9.08-15.35,15.6-17.62.34-.12.67-.22,1-.31h.18l7.15,1.17,17.11,2.8-5.12,7L616.55,470c4.22,3.29,4.53,10.63,1.19,21.15a27.93,27.93,0,0,1-3,6.83Z"/><path class="cls-1" d="M559,420.37a9.36,9.36,0,0,1,8.18.7l72,53.13c4.22,3.28,4.53,10.62,1.19,21.15-2.39,7.57-5.06,10.12-8.59,11.35a2.92,2.92,0,0,1-2.1,0l-80.12-32.9c-8.37-5.08-11.7-18.61-6.15-35.8C547.23,426,552.45,422.65,559,420.37Z"/><path class="cls-50" d="M512.33,453a9.14,9.14,0,0,1-1.84.65c-3.23.77-5.06,1.45-10.88,2.52l-4.81,10.23a7.85,7.85,0,0,1-1.52-1.18l-1.74-1.36-3.61-2.78c-1.16-.9-2.33-1.8-3.48-2.71s-.87-2.1-.79-3.35c.44-6.88,4.45-13.57,11-16.27a7.71,7.71,0,0,1,2.87-.66c6,0,17.54,1.68,22.37,3.62l.43.25h0c2,1.2,9.85,7.44,10.84,9.28C532,452.71,519.68,452.37,512.33,453Z"/><path class="cls-51" d="M500.67,450.14a19.28,19.28,0,0,1,3-2.07,9.24,9.24,0,0,1,4.48-1.33c6,.15,17.5,2.07,22.28,4.12,1.54.66,1.31,2.7-.57,5-.67.81-1.26,1.52-1.78,2.13a13.28,13.28,0,0,1-1.63,1.55,14,14,0,0,1-5.71,3c-3.74.81-7.49,1.51-11.26,2.15s-7.39,1.33-11.1,1.69c-1.19.12-3.19.65-4.15-.29-1.13-1.12-.36-3.54-.11-4.89A19.5,19.5,0,0,1,500.67,450.14Z"/><path class="cls-52" d="M518.66,414.43a84.32,84.32,0,0,1,8,12c1.19,2.33.89,6.3-.74,9.69-.58,1.2-1.1,2.26-1.55,3.18l-.16.32c-1.6,3.06-4,4.88-6,4.4-5-1.21-17.5-5.75-23-8.83-1.87-1.06-2.56-4.37-1.67-8.07a64.63,64.63,0,0,1,5.25-14.33,41.63,41.63,0,0,1,4.64-7.12,5.57,5.57,0,0,1,3.78-2.34s.58.13,1.51.37h0c3,.77,9.42,2.62,12,4.62C522.57,409.69,520.78,412.28,518.66,414.43Z"/><path class="cls-53" d="M511,417.52a42,42,0,0,1,4.38-7.28c1.83-2.41,4-3.14,5.62-1.88,4.94,3.95,14.34,14.79,18.27,21.81,1.28,2.28,1.12,6.27-.39,9.7q-.81,1.85-1.44,3.24a1.87,1.87,0,0,1-.15.32c-1.48,3.12-3.84,5-5.79,4.61-5-1-17.69-5.12-23.28-8-1.92-1-2.72-4.27-2-8A64,64,0,0,1,511,417.52Z"/><path class="cls-54" d="M540.37,394.72c.86,4.76,4.57,7.61,4.54,11.24,0,2.44-2,5.58-4.82,7.66l-2.64,1.94-.28.2c-2.64,1.82-5.42,2.27-6.81,1-3.55-3.15-11.9-12.32-15.08-17.24-1.09-1.69-.22-4.71,2.12-7.36a55.19,55.19,0,0,1,8.25-7.92,26.09,26.09,0,0,1,5-2.93c1.43-.62,3.62-1.58,5.14-.71a3.31,3.31,0,0,1,.58.47c2.93,2.76,6.26,5.83,8,9.58C545.21,392.58,543.05,393.86,540.37,394.72Z"/><path class="cls-55" d="M532.78,394c.28-.23.56-.46.85-.67a30.69,30.69,0,0,1,4.81-3c1.43-.7,3.1-1.52,4.74-1.08a2.87,2.87,0,0,1,1.74,1.46c.82,1.4,1.41,3,2.12,4.5s1.51,3.13,2.22,4.72A57.33,57.33,0,0,1,553,410.14a19.94,19.94,0,0,1,.63,4.34c.06,2.43-1.8,5.64-4.54,7.81-1,.78-1.83,1.45-2.58,2l-.26.21c-2.58,1.91-5.34,2.46-6.77,1.28-3.66-3-12.33-11.89-15.68-16.7-1.75-2.5.71-5.79,2.12-7.75A39,39,0,0,1,532.78,394Z"/><ellipse class="cls-56" cx="560.79" cy="447.03" rx="7.5" ry="9.32" transform="translate(-61.85 91.16) rotate(-8.81)"/><ellipse class="cls-57" cx="483.02" cy="226.64" rx="60.22" ry="183.52" transform="translate(241.39 702.34) rotate(-88.21)"/><path class="cls-58" d="M662.21,225.94a28.46,28.46,0,0,1-4.75,4.75,34.27,34.27,0,0,1-3,2.62c-5.87.05-11.77-.06-17.78.48-8.36.76-16.66,2-25,3.09a290.44,290.44,0,0,0-38.91,7.28l-27.38,7.29-40.48,10.72c-22.78,6-48.76,5.6-71.89.82-9.21-1.91-18.58-3.43-27.84-5.34q-12.93-2.64-25.89-5.13c-19.34-3.79-38.63-8.41-56.77-16.24a58,58,0,0,1-14.49-8.6c-4.15-3.51-7.64-8.64-6.15-14.32s6.66-10.24,10.64-14.21a62.52,62.52,0,0,1,7.81-6.34c1.43-1.05,2.89-2.06,4.35-3,.52-.35,4.15-2.1,4.18-2.59l-.59,6.94,11.43.89a68.84,68.84,0,0,0,25.45,16.7c18.68,7.41,38.71,10.7,58.36,14.87q12.4,2.68,25,4.86c12.22,2.16,24.61,3.91,36.86,5,1.81.19,3.59.37,5.4.44,9.38.48,18.69.56,28,.28l1.27-.05A343.6,343.6,0,0,0,569.57,232a9.19,9.19,0,0,0,1.79-.31c1.55-.25,3.14-.55,4.69-.85,15.76-3,32-3.08,47.68-6.38a98.64,98.64,0,0,0,34.15-14.27c1.5-1,3-2.06,4.34-3.15a22.55,22.55,0,0,1,1.75,3.68,16.59,16.59,0,0,1,.94,5.22A17.76,17.76,0,0,1,662.21,225.94Z"/><path class="cls-59" d="M662.29,207c-1.45,1.1-2.93,2.18-4.34,3.16a98.43,98.43,0,0,1-34.15,14.26c-15.66,3.3-31.93,3.33-47.68,6.39-1.55.3-3.14.6-4.69.85a15.58,15.58,0,0,0-1.79.31l-.71-5.52,1.63-.06c3-.32,6-.63,9-1q15.6-2,31-5.52c8.29-1.83,16.73-2.81,24.88-5.18a72,72,0,0,0,8.2-2.93,144.72,144.72,0,0,0,14.69-7.47l1.35-.76A17,17,0,0,1,662.29,207Z"/><path class="cls-60" d="M659.61,203.52l-1.35.75a145,145,0,0,1-14.7,7.48c2.32-101-40-160.58-97.49-188.56,1.31-.05,2.63,0,3.94.09h.49c2,.26,4,.59,6,.95a.33.33,0,0,1,.22,0c72.29,18.13,106.74,85.87,101.58,178.05a6.24,6.24,0,0,1,1,.81Z"/><path class="cls-61" d="M654.43,233.31a20.9,20.9,0,0,1-3.92,2.51,37.08,37.08,0,0,1-11.43,3.36c-3.72.62-7.61,0-11.42.39-6.65.74-13.39,2.13-20,3.37-25.56,4.64-51.19,10.44-76.17,17.27q-11.18,3-22.34,6.35c-3.7,1.13-7.37,2.33-11,3.43-3.27.92-6.8,1.08-10.15,1.84A63.62,63.62,0,0,1,476.87,273a139,139,0,0,1-22.26-.25l-17.14-1.63c-5.76-.56-11.34-1.12-17-2.11-6.13-1-12-2.52-18.15-3.71-4.3-.81-8.69-1.68-13-2.51-6-1.13-12.09-2.27-18.05-3.56-3.59-.79-7.3-1.28-10.91-2-7.59-1.5-15.21-3-22.6-5.2a113,113,0,0,1-28.83-14.41c-4.37-2.89-8.57-7.4-9.47-12.71a20.25,20.25,0,0,1,3.72-14.72,15.75,15.75,0,0,0-1.16,3c-1.5,5.64,2,10.81,6.14,14.32a57.73,57.73,0,0,0,14.5,8.6c18.07,7.83,37.43,12.46,56.76,16.24q12.93,2.49,25.9,5.13c9.25,1.91,18.63,3.41,27.84,5.34,23.17,4.78,49.13,5.2,71.88-.82l40.48-10.72,27.38-7.28a290.47,290.47,0,0,1,38.91-7.29c8.35-1,16.65-2.31,25-3.09C642.66,233.25,648.56,233.36,654.43,233.31Z"/><polygon class="cls-60" points="350.12 162.92 347.45 193.99 347.29 195.57 339.72 195.01 339.7 194.99 328.3 194.11 328.88 187.17 331.12 161.62 350.12 162.92"/><path class="cls-62" d="M350.13,162.72v.2l-19-1.3,15.28-13,1.32-1.09v-.22Z"/><path class="cls-63" d="M499.32,17.89c-67-2.14-128.53,36.94-151.54,129.38h0l2.38,15.5V163h0l-2.66,31.06,2.49,1.81h0c10.82,7.43,23.68,11.73,36.39,15.34a492.71,492.71,0,0,0,49.79,11.23c3.35.55,6.71,1.08,10.06,1.56-13-46.49-13.79-85.05-7.39-116a.73.73,0,0,1,0-.36c.15-.85.34-1.7.56-2.51C421.56,80.38,455.88,30.4,499.32,17.89ZM375,196.55l-14.39-6.89a250.85,250.85,0,0,1,21.73-79.58l15.85,1.67A226.62,226.62,0,0,0,375,196.55ZM400.91,105l-15.21-1.21s13.39-29.19,30-45.54l12.43,4.29s-22,26.35-27.22,42.46Z"/><path class="cls-64" d="M504.9,16.51c-1,.42-2.19.92-3.2,1.45h0c-25.3,12.13-51.85,40.82-62.2,87.12-17.9-24.7,16.42-74.68,59.86-87.2h0A50.33,50.33,0,0,1,504.9,16.51Z"/><path class="cls-65" d="M550.36,23.69H550c-1.68-.23-3.35-.44-5.05-.6s-3.68-.37-5.55-.46c-3.44-.17-6.92,0-10.32.11A49.13,49.13,0,0,0,519,24a67.55,67.55,0,0,0-14.83,5.47,69.77,69.77,0,0,0-12.38,8,77.68,77.68,0,0,0-10.23,9.88,97.24,97.24,0,0,0-8.25,11.12,124.42,124.42,0,0,0-6.58,11.71c-1.85,3.78-3.56,7.67-5.12,11.61-1.45,3.59-2.75,7.24-4.07,10.93a87.54,87.54,0,0,1-3.84,8.77A12.39,12.39,0,0,1,442,108.68a20.33,20.33,0,0,1-2.69-3.17c10.34-46.28,36.9-75,62.2-87.12h0a31.69,31.69,0,0,1,3.2-1.45h0a66.6,66.6,0,0,1,23.09-.8H528a62.3,62.3,0,0,1,21,7h0Z"/><path class="cls-66" d="M518.71,237.2c-9.36.32-18.66.2-28-.28-1.81-.07-3.6-.26-5.4-.44-12.35-1.13-24.58-2.89-36.87-5q-12.56-2.17-24.95-4.86c-19.57-4.17-39.6-7.53-58.36-14.87A68.87,68.87,0,0,1,339.63,195l7.57.56.16-1.58,2.49,1.8h0c10.83,7.44,23.68,11.73,36.4,15.34A487.14,487.14,0,0,0,436,222.36c3.36.56,6.71,1.08,10.07,1.57,5,.76,10.12,1.43,15.2,2,11,1.29,22.05,2.06,33,3.31,5.67.67,11.32,1.05,16.93,1.24l1,0Z"/><path class="cls-67" d="M375,196.55l-14.39-6.89a250.85,250.85,0,0,1,21.73-79.58l15.85,1.67A226.62,226.62,0,0,0,375,196.55Z"/><path class="cls-67" d="M428.13,62.53s-22,26.35-27.22,42.46l-15.21-1.21s13.39-29.19,30-45.54Z"/><path class="cls-60" d="M569.55,232a366,366,0,0,1-50.84,5.23l1.79-6.74,8-25.11.22-.74,37.33-.36,2.83,22.16Z"/><path class="cls-68" d="M546,23.3l-2.78.1a80.59,80.59,0,0,0-17.56,2.3,70.4,70.4,0,0,0-14.83,5.47,68,68,0,0,0-12.39,8,74.93,74.93,0,0,0-10.2,9.87A92.37,92.37,0,0,0,480,60.18a116.45,116.45,0,0,0-6.56,11.69c-1.87,3.82-3.59,7.69-5.14,11.66-1.44,3.56-2.76,7.21-4.07,10.9a92,92,0,0,1-3.84,8.75c-3.68,7.49-11.11,8.15-16.91,6.54h0a17.82,17.82,0,0,1-1.35-1.26,12.42,12.42,0,0,0,11.7-7.21,90.89,90.89,0,0,0,3.83-8.77c1.23-3.69,2.53-7.34,4.07-11s3.27-7.84,5.12-11.59a121,121,0,0,1,6.58-11.71,95.61,95.61,0,0,1,8.24-11.34A77.66,77.66,0,0,1,491.88,37a69.38,69.38,0,0,1,27.21-13.49,52.17,52.17,0,0,1,10-1.21c3.4-.12,6.89-.24,10.32-.09,1.87.07,3.7.22,5.56.43Z"/><path class="cls-58" d="M643.56,211.75a71.36,71.36,0,0,1-8.2,2.93c-8.15,2.37-16.59,3.35-24.87,5.17a312,312,0,0,1-31,5.52c-3,.35-6,.65-9,1l-1.62.06-2.83-22.16h.31l-.4-.61-4-5.8-41.08-.11-.34,1.08-1.73,6-7.14,25-.24.79c-5.62-.19-11.26-.57-16.93-1.24-11-1.29-22-2.07-33.05-3.31-5.07-.58-10.16-1.25-15.2-2-13-46.5-13.79-85-7.38-116a.63.63,0,0,1,0-.36c.15-.85.34-1.7.56-2.51a22,22,0,0,0,2.69,3.16,16.23,16.23,0,0,0,1.36,1.26h0c5.79,1.61,13.22,1,16.9-6.54a88.22,88.22,0,0,0,3.84-8.75c1.23-3.69,2.55-7.34,4.07-10.9,1.56-4,3.27-7.84,5.14-11.66A116.45,116.45,0,0,1,480,60.07,93.45,93.45,0,0,1,488.22,49a74.43,74.43,0,0,1,10.21-9.87,67.6,67.6,0,0,1,12.38-8,70.6,70.6,0,0,1,14.83-5.47,80.59,80.59,0,0,1,17.56-2.3l2.78-.1h0C603.55,51.17,645.88,110.72,643.56,211.75Z"/><path class="cls-69" d="M566,204.32l-37.32.36-.22.74-9.76,31.78c-1.91-1.81-7.31-6.67-7.31-6.67l7.39-25.8,1.73-6,.34-1.08,41,.28,4,5.8Z"/><path class="cls-70" d="M417.34,172.54a.89.89,0,0,0-.6-.38L414,171.7l-.3,1.85,2.76.46a1,1,0,0,0,.69-.17.88.88,0,0,0,.38-.61A.82.82,0,0,0,417.34,172.54ZM430.65,174a3.9,3.9,0,0,0-4.48,3.2,3.6,3.6,0,0,0,0,1,3.88,3.88,0,0,0,7.42,1.24,3.55,3.55,0,0,0,.29-.94A3.9,3.9,0,0,0,430.65,174Zm0,0a3.9,3.9,0,0,0-4.48,3.2,3.6,3.6,0,0,0,0,1,3.88,3.88,0,0,0,7.42,1.24,3.55,3.55,0,0,0,.29-.94A3.9,3.9,0,0,0,430.65,174Zm-13.31-1.47a.89.89,0,0,0-.6-.38L414,171.7l-.3,1.85,2.76.46a1,1,0,0,0,.69-.17.88.88,0,0,0,.38-.61A.82.82,0,0,0,417.34,172.54Zm0,0a.89.89,0,0,0-.6-.38L414,171.7l-.3,1.85,2.76.46a1,1,0,0,0,.69-.17.88.88,0,0,0,.38-.61A.82.82,0,0,0,417.34,172.54ZM430.65,174a3.9,3.9,0,0,0-4.48,3.2,3.6,3.6,0,0,0,0,1,3.88,3.88,0,0,0,7.42,1.24,3.55,3.55,0,0,0,.29-.94A3.9,3.9,0,0,0,430.65,174Zm0,0a3.9,3.9,0,0,0-4.48,3.2,3.6,3.6,0,0,0,0,1,3.88,3.88,0,0,0,7.42,1.24,3.55,3.55,0,0,0,.29-.94A3.9,3.9,0,0,0,430.65,174Zm-13.31-1.47a.89.89,0,0,0-.6-.38L414,171.7l-.3,1.85,2.76.46a1,1,0,0,0,.69-.17.88.88,0,0,0,.38-.61A.82.82,0,0,0,417.34,172.54Zm35.52-3.37a1.17,1.17,0,0,0,1.25-1l.12-.76a3.09,3.09,0,0,0-2.41-3.56l-26.35-4.39a2.28,2.28,0,0,0-2,.65L421.64,162a3.08,3.08,0,0,1-2.72.89l-10-1.66a3.09,3.09,0,0,1-2.29-1.73l-1.14-2.38a2.25,2.25,0,0,0-1.66-1.25L392.38,154a3,3,0,0,0-3.4,2.44L384,186a3,3,0,0,0,2.44,3.41L398,191.16a2.27,2.27,0,0,1,1.66,1.25l1.14,2.38a3.07,3.07,0,0,0,2.29,1.73l10,1.66a3.06,3.06,0,0,0,2.72-.89l1.85-1.88a2.28,2.28,0,0,1,2-.64l26.33,4.53a3,3,0,0,0,3.41-2.44l.25-1.52a.85.85,0,0,0-.63-1,12.79,12.79,0,0,1,3.91-25.21Zm-58.1-3.9a1.87,1.87,0,0,1,2.62.43,2,2,0,0,1,.23.43h0l2.61,8.49,5.22-7.18h0a2,2,0,0,1,.37-.34,1.8,1.8,0,0,1,1.39-.31,1.77,1.77,0,0,1,1.21.75,1.89,1.89,0,0,1,0,2.22h0a.1.1,0,0,0,0,0h0L401,180h0a1.91,1.91,0,0,1-.36.33,1.84,1.84,0,0,1-1.4.33,1.81,1.81,0,0,1-1.21-.76,2.32,2.32,0,0,1-.24-.43h0l-3.68-12h0s0,0,0-.06h0a1.78,1.78,0,0,1-.07-.89A1.81,1.81,0,0,1,394.76,165.27Zm24,13.54,1,2.37h0a1.73,1.73,0,0,1,.09,1,1.86,1.86,0,0,1-.35.84h0a2.13,2.13,0,0,1-.41.38,1.81,1.81,0,0,1-1.39.32,1.78,1.78,0,0,1-1.21-.76,1.86,1.86,0,0,1-.24-.43h0l-2.3-5.12-.85-.14-.61,3.68a1.83,1.83,0,0,1-.76,1.22,1.76,1.76,0,0,1-1.39.32,1.85,1.85,0,0,1-1.53-2.15l1.84-11.06a1.77,1.77,0,0,1,.75-1.21,1.79,1.79,0,0,1,1.4-.32l4.6.77a4.67,4.67,0,0,1,3.84,5.37,4.71,4.71,0,0,1-.22.86,4.52,4.52,0,0,1-1.66,2.17,4.73,4.73,0,0,1-1.15.61Zm17.73,1,.61,1.12-.67,1.08-.49.79-1.43-.06-1.26.91L432.8,185l-2.14.5-1-1.05-1.54-.26-1.26.68L425,183.74l.06-1.42-.9-1.27-1.38-.41-.21-.9-.28-1.24.94-.87.12-.1.25-1.53-.31-.56-.38-.69,1.17-1.87,1.43.06,1.26-.9.41-1.38,2.14-.49,1,1.05,1.54.26,1.26-.68L435,172l-.06,1.43.91,1.26,1.37.41.48,2.14-.58.53-.46.43-.26,1.54Zm-5.8-5.82a3.9,3.9,0,0,0-4.48,3.2,3.6,3.6,0,0,0,0,1,3.88,3.88,0,0,0,7.42,1.24,3.55,3.55,0,0,0,.29-.94A3.9,3.9,0,0,0,430.65,174Zm-13.91-1.85L414,171.7l-.3,1.85,2.76.46a1,1,0,0,0,.69-.17.88.88,0,0,0,.38-.61.82.82,0,0,0-.16-.69A.89.89,0,0,0,416.74,172.16Zm.6.38a.89.89,0,0,0-.6-.38L414,171.7l-.3,1.85,2.76.46a1,1,0,0,0,.69-.17.88.88,0,0,0,.38-.61A.82.82,0,0,0,417.34,172.54ZM430.65,174a3.9,3.9,0,0,0-4.48,3.2,3.6,3.6,0,0,0,0,1,3.88,3.88,0,0,0,7.42,1.24,3.55,3.55,0,0,0,.29-.94A3.9,3.9,0,0,0,430.65,174Zm0,0a3.9,3.9,0,0,0-4.48,3.2,3.6,3.6,0,0,0,0,1,3.88,3.88,0,0,0,7.42,1.24,3.55,3.55,0,0,0,.29-.94A3.9,3.9,0,0,0,430.65,174Zm-13.31-1.47a.89.89,0,0,0-.6-.38L414,171.7l-.3,1.85,2.76.46a1,1,0,0,0,.69-.17.88.88,0,0,0,.38-.61A.82.82,0,0,0,417.34,172.54Zm0,0a.89.89,0,0,0-.6-.38L414,171.7l-.3,1.85,2.76.46a1,1,0,0,0,.69-.17.88.88,0,0,0,.38-.61A.82.82,0,0,0,417.34,172.54Zm0,0a.89.89,0,0,0-.6-.38L414,171.7l-.3,1.85,2.76.46a1,1,0,0,0,.69-.17.88.88,0,0,0,.38-.61A.82.82,0,0,0,417.34,172.54Z"/><path class="cls-70" d="M453.31,184.12a.83.83,0,0,1,.17.66.88.88,0,0,1-.37.58.85.85,0,0,1-.67.16l-2.65-.45.29-1.76,2.65.44A.82.82,0,0,1,453.31,184.12Z"/><path class="cls-70" d="M454.2,178.81a.87.87,0,0,1-.21,1.24.84.84,0,0,1-.67.16l-2.65-.44L451,178l2.65.44A.84.84,0,0,1,454.2,178.81Z"/><path class="cls-70" d="M469.23,182.11a3.48,3.48,0,0,0-2.34-1.46,3.43,3.43,0,0,0-2.67.62,3.55,3.55,0,0,0-1.49,3.24,3.39,3.39,0,0,0,.65,1.77,3.61,3.61,0,0,0,5,.84,3.53,3.53,0,0,0,1.2-1.47,3.84,3.84,0,0,0,.26-.87A3.47,3.47,0,0,0,469.23,182.11Zm0,0a3.48,3.48,0,0,0-2.34-1.46,3.43,3.43,0,0,0-2.67.62,3.55,3.55,0,0,0-1.49,3.24,3.39,3.39,0,0,0,.65,1.77,3.61,3.61,0,0,0,5,.84,3.53,3.53,0,0,0,1.2-1.47,3.84,3.84,0,0,0,.26-.87A3.47,3.47,0,0,0,469.23,182.11Zm23.28-11.31-31.93-5.32a3,3,0,0,0-3.5,2.5l-.24,1.44a1.68,1.68,0,0,1-1.66,1.41h-.08c-5-.37-9.47,1.66-11.72,5.65h0a11.47,11.47,0,0,0-1.31,3.8,11.72,11.72,0,0,0-.16,1.52c-.24,5.74,3.73,10.16,9.41,11.66a1.67,1.67,0,0,1,1.2,1.9l-.32,1.9a3,3,0,0,0,2.5,3.49l31.92,5.32a3,3,0,0,0,3.5-2.5L495,174.3A3,3,0,0,0,492.51,170.8ZM457,183.54a4.49,4.49,0,0,1,.05,1.83,4.94,4.94,0,0,1-.23.88,4.2,4.2,0,0,1-1.59,2,4.29,4.29,0,0,1-3.34.78l-4.42-.74a1.78,1.78,0,0,1-1.48-2.06l1.77-10.62a1.16,1.16,0,0,1,0-.18,1.65,1.65,0,0,1,.69-1,1.73,1.73,0,0,1,1.34-.31l4.42.74a4.5,4.5,0,0,1,3.69,5.16,5.83,5.83,0,0,1-.23.87,4.11,4.11,0,0,1-1.09,1.64A4.64,4.64,0,0,1,457,183.54Zm16.22,2.71a6.8,6.8,0,0,1-2.71,3.78,7.16,7.16,0,0,1-10-1.67,6.79,6.79,0,0,1-1.34-4.45c0-.3.05-.6.1-.9a7.17,7.17,0,0,1,14.15,2.36A8.06,8.06,0,0,1,473.18,186.25Zm9.9,1.73,1.73,3.85h0a1.78,1.78,0,0,1,.09.92,1.8,1.8,0,0,1-.37.83h0a1.78,1.78,0,0,1-.35.32,1.73,1.73,0,0,1-1.34.31,1.7,1.7,0,0,1-1.16-.73,1.86,1.86,0,0,1-.23-.41h0l-1.5-3.25-2.48,2.58h0a1.72,1.72,0,0,1-.34.32,1.76,1.76,0,0,1-1.35.31,1.7,1.7,0,0,1-1.16-.72,2.18,2.18,0,0,1-.23-.42h0a1.74,1.74,0,0,1-.08-.91,1.77,1.77,0,0,1,.37-.85h0l2.88-3.08.75-.8-2.19-4.75a.2.2,0,0,1,0-.11,2.33,2.33,0,0,1,0-1,1.78,1.78,0,0,1,2.06-1.48,1.76,1.76,0,0,1,1.18.73,1.83,1.83,0,0,1,.21.42h0l1.5,3.31,2.48-2.65h0a1.52,1.52,0,0,1,.34-.33,1.8,1.8,0,0,1,2.82,1.76,2.33,2.33,0,0,1-.34,1,.36.36,0,0,1-.07.1L482.64,187Zm-16.19-7.33a3.43,3.43,0,0,0-2.67.62,3.55,3.55,0,0,0-1.49,3.24,3.39,3.39,0,0,0,.65,1.77,3.61,3.61,0,0,0,5,.84,3.53,3.53,0,0,0,1.2-1.47,3.84,3.84,0,0,0,.26-.87,3.6,3.6,0,0,0-3-4.13Z"/></g></svg>