<svg xmlns="http://www.w3.org/2000/svg" xmlns:xlink="http://www.w3.org/1999/xlink" viewBox="0 0 800 800"><defs><style>.cls-1{fill:#353535;stroke-width:0.78px;}.cls-1,.cls-13,.cls-18,.cls-20,.cls-29,.cls-50{stroke:#000;}.cls-1,.cls-13,.cls-18,.cls-20,.cls-21{stroke-linejoin:round;}.cls-14,.cls-2,.cls-53,.cls-9{fill:#4d4d4d;}.cls-3{fill:#b3b3b3;}.cls-4{fill:#d3161d;}.cls-5{fill:#adadad;stroke:#080000;}.cls-10,.cls-14,.cls-19,.cls-23,.cls-24,.cls-27,.cls-29,.cls-33,.cls-44,.cls-45,.cls-46,.cls-47,.cls-48,.cls-49,.cls-5,.cls-50,.cls-51,.cls-52,.cls-53,.cls-6,.cls-7,.cls-8,.cls-9{stroke-miterlimit:10;}.cls-5,.cls-7,.cls-8{stroke-width:1.06px;}.cls-10,.cls-24,.cls-29,.cls-33,.cls-45,.cls-49,.cls-6{fill:none;}.cls-21,.cls-23,.cls-27,.cls-33,.cls-49,.cls-51,.cls-6,.cls-7{stroke:#070707;}.cls-6{stroke-width:1.63px;}.cls-51,.cls-7{fill:#77401b;}.cls-15,.cls-50,.cls-52,.cls-8{fill:#f8c946;}.cls-52,.cls-8{stroke:#020202;}.cls-14,.cls-53,.cls-9{stroke:#151616;}.cls-9{stroke-width:3.17px;}.cls-10{stroke:#050505;stroke-width:0.75px;}.cls-11{fill:#a6adb2;}.cls-12{fill:#ced3d6;}.cls-13,.cls-30{fill:#282828;}.cls-13{stroke-width:1.38px;}.cls-14{stroke-width:0.87px;}.cls-16{fill:#683919;}.cls-17,.cls-23{fill:#945320;}.cls-18{fill:#515051;}.cls-18,.cls-33,.cls-51,.cls-52{stroke-width:1.07px;}.cls-19,.cls-22{fill:#161616;}.cls-19,.cls-24,.cls-44,.cls-45,.cls-46,.cls-47,.cls-48{stroke:#0a0a0a;}.cls-19,.cls-20,.cls-21,.cls-23,.cls-24,.cls-27,.cls-29{stroke-width:0.93px;}.cls-20{fill:#8e8a8b;}.cls-21,.cls-27{fill:#e2b647;}.cls-25{fill:#dddbd7;}.cls-26{fill:#232323;}.cls-28{fill:#3a3a3a;}.cls-31{fill:#7c7c7c;}.cls-32{fill:#666;}.cls-34{fill:#389cce;}.cls-35{fill:#7f1119;}.cls-36{fill:#5e0e18;}.cls-37{fill:#352f49;}.cls-38{fill:#e41e00;}.cls-39{fill:#fffe28;}.cls-40{fill:#18ff08;}.cls-41{fill:#dbdddd;}.cls-42{fill:#0fb0db;}.cls-43{fill:#303435;}.cls-44,.cls-45,.cls-46,.cls-47,.cls-48{stroke-width:0.42px;}.cls-44{fill:url(#radial-gradient);}.cls-46{fill:url(#radial-gradient-2);}.cls-47{fill:url(#radial-gradient-3);}.cls-48{fill:url(#radial-gradient-4);}.cls-49,.cls-50{stroke-width:0.53px;}.cls-53{stroke-width:3.2px;}.cls-54{fill:#d3b93d;}.cls-55{fill:#d3d3d3;}.cls-56{fill:#ffe545;}.cls-57,.cls-59{isolation:isolate;}.cls-58{fill:#444;}.cls-59{opacity:0.23;}.cls-60{fill:#facc06;}.cls-61{fill:#eab12d;}.cls-62{fill:#e5b221;}.cls-63{fill:#fbf6a8;}.cls-64{fill:#e69329;}.cls-65{fill:#fbdb33;}.cls-66{fill:#f5fab9;}.cls-67{fill:#facd06;}.cls-68{fill:#e5b220;}.cls-69{fill:#fcf5ab;}.cls-70{fill:#d7ad2b;}.cls-71{fill:#e69422;}.cls-72{fill:#fff;}</style><radialGradient id="radial-gradient" cx="-5088.9" cy="286.39" r="6.5" gradientTransform="translate(-4721.87 818.68) rotate(180)" gradientUnits="userSpaceOnUse"><stop offset="0.2" stop-color="#666"/><stop offset="0.57" stop-color="#585858"/><stop offset="1" stop-color="#4d4d4d"/></radialGradient><radialGradient id="radial-gradient-2" cx="-5115.23" cy="222.05" gradientTransform="translate(-4720.89 818.26) rotate(180)" xlink:href="#radial-gradient"/><radialGradient id="radial-gradient-3" cx="-5088.16" cy="223.65" gradientTransform="translate(-4720.91 818.69) rotate(180)" xlink:href="#radial-gradient"/><radialGradient id="radial-gradient-4" cx="-5112.47" cy="285.29" gradientTransform="translate(-4721.86 818.32) rotate(180)" xlink:href="#radial-gradient"/></defs><title>invention_teaching_robot2</title><g id="Layer_2" data-name="Layer 2"><path class="cls-1" d="M241.68,668a67.16,67.16,0,0,1,2.79-11c5.11-14.9,21-60,34.76-86.94,8.11-15.87,13.07-26.75,17.28-34.87a69.54,69.54,0,0,1,20.33-23.84c5.67-4.2,12.18-8.92,21.89-12.28,12.68-4.39,26.19-3.77,39.4-1.42,32.92,5.87,50.63,7.24,57,9.53,6.21,4.62,32.42,34.52,33.29,58.94.63,17.61-1.7,41.48-14.8,59.84s-66.41,106.77-88.23,107.76c-25.47,1.17-90.52-5-109-19.53C239.88,701.16,238.83,685.36,241.68,668Z"/><path class="cls-2" d="M356.75,730.59c-9.9,0-17.72-2.37-23.91-7.25-15-11.84-16.23-25.66-13.42-42.76a62.59,62.59,0,0,1,2.64-10.35c4.62-13.46,20.78-59.49,34.56-86.46,4.48-8.77,8.07-16.17,11-22.11,2.38-4.9,4.44-9.13,6.31-12.74a66.1,66.1,0,0,1,19.25-22.58c5.1-3.78,11.44-8.49,20.91-11.76a62.71,62.71,0,0,1,20.68-3.44,66.86,66.86,0,0,1,16.6,2.11c22.56,5.79,37.64,17.29,44.08,22.2.59.46,1.11.85,1.55,1.18l.8.59c19.74,14.56,30,29.25,30.53,43.66.58,16.41-1.39,39.72-14.13,57.58-5.79,8.11-28.25,27-55.88,47.11-28.33,20.56-52.47,35.34-61.52,37.65-1.48.37-3,.76-4.51,1.16C381.07,727.29,368.4,730.59,356.75,730.59Z"/><path d="M434.73,514.82h0a63.3,63.3,0,0,1,15.68,2c21.84,5.61,36.5,16.79,42.77,21.57l1.59,1.2.8.6a106.06,106.06,0,0,1,17.27,15.38c7.51,8.61,11.47,17.18,11.77,25.45,1,28.7-6.74,45.92-13.44,55.31-5.5,7.7-28.14,26.73-55.06,46.27-27.54,20-51.76,34.89-60.26,37.06l-4.53,1.17c-11,2.85-23.39,6.09-34.57,6.09-9,0-16.12-2.12-21.63-6.46-6.42-5.06-10.38-10.8-12.1-17.54-1.49-5.84-1.48-12.54,0-21.74a60.5,60.5,0,0,1,2.49-9.74c4.6-13.41,20.68-59.23,34.36-86,4.49-8.81,8.1-16.22,11-22.18,2.37-4.88,4.41-9.09,6.26-12.66a62.56,62.56,0,0,1,18.18-21.31c4.9-3.64,11-8.16,19.92-11.24a59.51,59.51,0,0,1,19.48-3.24m0-7.36a66.48,66.48,0,0,0-21.88,3.64c-9.72,3.36-16.23,8.08-21.9,12.29a69.41,69.41,0,0,0-20.33,23.83c-4.21,8.12-9.17,19-17.28,34.88-13.77,26.95-29.65,72-34.76,86.94a66.76,66.76,0,0,0-2.77,11c-2.85,17.38-1.8,33.19,14.77,46.25,7.57,6,16.65,8,26.19,8,13.74,0,28.43-4.3,40.92-7.49,21.16-5.4,106.39-67.83,119.49-86.19s15.43-42.23,14.8-59.84c-.87-24.42-26.59-42.45-32.8-47.07-5.27-3.92-21.55-17.49-46.92-24a70.34,70.34,0,0,0-17.51-2.22Z"/><ellipse class="cls-3" cx="471.17" cy="593.19" rx="49.01" ry="39.16" transform="translate(-137 1044.86) rotate(-88.14)"/><ellipse class="cls-3" cx="419.02" cy="661.26" rx="35.12" ry="28.06" transform="translate(-255.49 1058.6) rotate(-88.14)"/><ellipse class="cls-3" cx="361.72" cy="685.19" rx="27.64" ry="22.09" transform="translate(-334.01 1026.2) rotate(-88.28)"/><ellipse class="cls-4" cx="473.67" cy="593.29" rx="18.31" ry="13.32" transform="translate(-134.68 1047.45) rotate(-88.14)"/><ellipse class="cls-4" cx="420.23" cy="662.69" rx="11.5" ry="15.81" transform="translate(-129.58 102.81) rotate(-12.1)"/><ellipse class="cls-4" cx="362.2" cy="688.94" rx="8.52" ry="11.71" transform="translate(-136.37 91.23) rotate(-12.1)"/><path class="cls-5" d="M348,649.49s6.45-12.44,25.46-5.86c3.61-8,11.21-29.91,45.1-26.79-1.53-7.56-14.29-40.41,11.53-72-9.86-4.62-16-7.68-28.86,7.65S346.74,645.63,348,649.49Z"/><line class="cls-6" x1="296.71" y1="534.84" x2="372.65" y2="543.58"/><line class="cls-6" x1="341.11" y1="498.34" x2="425.66" y2="508.06"/><polyline class="cls-6" points="437.71 509.45 460.15 512.03 460.16 512.03"/><line class="cls-6" x1="273.91" y1="581.14" x2="349.56" y2="589.83"/><line class="cls-6" x1="255.16" y1="627.18" x2="330.53" y2="635.84"/><line class="cls-6" x1="240.76" y1="674.98" x2="315.26" y2="683.55"/><path class="cls-7" d="M279.81,462.7l112.43,8.42c19.17.84,32.46,4.77,32.88,23.26h0c-1.56,18-11.1,19.57-28.9,21.57L276.55,531.43a33.73,33.73,0,0,1-34.36-32.81h0C241.74,480.09,261.32,463.13,279.81,462.7Z"/><path class="cls-8" d="M288.39,463.21l117.23,6.92c19.18.85,21.79,42.85,4,44.84L289.94,530.45a33.72,33.72,0,0,1-34.36-32.8h0A33.72,33.72,0,0,1,288.39,463.21Z"/><ellipse class="cls-9" cx="289.98" cy="495.91" rx="11.88" ry="13.17" transform="translate(-235.2 263.1) rotate(-35.78)"/><line class="cls-10" x1="229.93" y1="464.77" x2="230.29" y2="465.11"/><path class="cls-11" d="M127.46,337.37l-17.28-18.78,6.27-5.74a42.47,42.47,0,0,1,46.39,47.86,16.78,16.78,0,0,0,4.34,13.54L290.86,512.6a14.39,14.39,0,0,0,10,3.44,36.82,36.82,0,0,1,38,43.53l-5.41,5-15-16.3a14.76,14.76,0,0,0-21.72,20l15,16.29-5.45,5A36.84,36.84,0,0,1,266.11,548a14.56,14.56,0,0,0-3.77-11.75l-7.23-7.85L135.89,403.05a16.75,16.75,0,0,0-13.13-5.45A42.46,42.46,0,0,1,78.9,347.41l6.24-5.78,17.28,18.78a17,17,0,1,0,25-23Z"/><path class="cls-12" d="M132.24,333,115,314.18l6.28-5.74a42.46,42.46,0,0,1,46.38,47.87A16.78,16.78,0,0,0,172,369.85L295.64,508.2a14.4,14.4,0,0,0,10,3.43,36.83,36.83,0,0,1,38,43.53l-5.41,5-15-16.29a14.76,14.76,0,0,0-21.72,20l15,16.29-5.44,5a36.83,36.83,0,0,1-40.23-41.51,14.56,14.56,0,0,0-3.78-11.75L259.89,524,140.67,398.65a16.74,16.74,0,0,0-13.13-5.45A42.47,42.47,0,0,1,83.68,343l6.24-5.78L107.2,356a17,17,0,1,0,25-23.05Z"/><path class="cls-13" d="M236.34,520c6.85-4.24,28.08-16.69,38-14.51a3.41,3.41,0,0,1,1.88,1.2c7.39,9.33,8.81,19,8.13,20.17s-19.79,10-42.13,8.59a3.55,3.55,0,0,1-2.68-1.6,33.67,33.67,0,0,1-4.75-9.93A3.5,3.5,0,0,1,236.34,520Z"/><path class="cls-14" d="M229.64,523.34c6.85-4.24,28.08-16.7,38.05-14.51a3.43,3.43,0,0,1,1.87,1.19c7.4,9.33,8.82,19,8.13,20.19s-19.78,10-42.13,8.57a3.49,3.49,0,0,1-2.68-1.59,33.75,33.75,0,0,1-4.76-9.94A3.5,3.5,0,0,1,229.64,523.34Z"/><path class="cls-13" d="M219.7,502.7c7.82-4.4,30.88-16.73,41.19-15a4,4,0,0,1,2.42,1.39c7.29,9.25,8.7,18.85,8,20s-23.5,10.5-46,9.18a3.92,3.92,0,0,1-3-1.8,33.72,33.72,0,0,1-4.47-9.21A4,4,0,0,1,219.7,502.7Z"/><path class="cls-14" d="M212.18,505.44c7.82-4.4,30.88-16.72,41.19-15a3.79,3.79,0,0,1,2.41,1.38c7.29,9.25,8.7,18.86,8,20s-23.5,10.49-46,9.16a3.92,3.92,0,0,1-3-1.79,33.55,33.55,0,0,1-4.46-9.21A4,4,0,0,1,212.18,505.44Z"/><path class="cls-13" d="M213,480.55c7.5-4.33,27.74-15.32,37.69-13.7a4.23,4.23,0,0,1,2.62,1.56c7.22,9.22,8.62,18.75,7.93,19.93s-20.37,9.33-42.56,8a4.25,4.25,0,0,1-3.38-2,33.07,33.07,0,0,1-4.27-8.78A4.33,4.33,0,0,1,213,480.55Z"/><path class="cls-14" d="M203,484.34c7.5-4.33,27.72-15.31,37.68-13.7a4.3,4.3,0,0,1,2.64,1.56c7.21,9.22,8.6,18.76,7.93,19.93s-20.37,9.33-42.57,8a4.26,4.26,0,0,1-3.34-2A33.41,33.41,0,0,1,201,489.4,4.35,4.35,0,0,1,203,484.34Z"/><path class="cls-13" d="M265.21,472.4S226.35,481.45,217,474c-4.73-11.51-3.11-21.75-2-22.7s27-3,48.38,5.9C265.32,464,265.61,466.86,265.21,472.4Z"/><path class="cls-14" d="M268.72,472.91c-9.07,1.87-33.29,6.24-42.79,2a4.71,4.71,0,0,1-2.51-2.69C219.45,461.32,221,452,222,451s25.2-2.84,46.17,5a4.64,4.64,0,0,1,2.87,3.16,33.3,33.3,0,0,1,1.37,9.25A4.55,4.55,0,0,1,268.72,472.91Z"/><path class="cls-15" d="M319.94,466.76s94.81-43.46,137.2-50.14c0,0,113.78-4.13,211.55,3.9C657,428.93,557.07,468.33,543,470.86S357.46,472.88,319.94,466.76Z"/><path class="cls-16" d="M512.28,459.82s38.62-21.81,42.53-23-73.33-5.08-73.33-5.08-37.5,20.52-40,22.83S512.28,459.82,512.28,459.82Z"/><path class="cls-17" d="M669.9,420.31s6.27,162.09-6.52,202.84c-12.26,10-96.35,46.37-123,45.9-2.67-18.61-3.76-185,3.83-198.4C554.22,463.07,629,431.15,669.9,420.31Z"/><path class="cls-4" d="M319.94,466.76s-4.47,82.71-2.52,143.49c.75,23.42,22.87,46.54,26.65,47.49,8.43,8,208.59,19.74,220.38,12.06,0,0-21.52-17.58-20.72-49.84,1-40.3-.55-100.51.44-149.31C537,466.75,355.23,462.08,319.94,466.76Z"/><path class="cls-18" d="M517.83,376.5v61.07l-53.49.6c-8.95,0-16.22-13.65-16.23-30.51s7.23-30.55,16.17-30.56c3,0,5.83,1.54,8.26,4.24Z"/><path class="cls-19" d="M282.39,366.6s18.83,13.88,53.86,18.29c15.57,2,35.93.18,55.58-2.37,63.9-8.28,92.31-41.56,92.31-41.56s-4.27-44-5.12-58.76-21-43.49-21-43.49Z"/><path class="cls-19" d="M688.71,368.21s-12.17,21.79-53,20-100.33-17.55-100.33-17.55l-37.31-49.6Z"/><path class="cls-4" d="M465.05,248.05h20.83l-.43,68.33H465.12S468.21,271.17,465.05,248.05Z"/><polygon class="cls-20" points="465.12 316.38 478.5 334.54 493.01 334.52 485.45 316.36 465.12 316.38"/><polygon class="cls-21" points="449.22 316.4 504.93 316.35 501.47 414.51 448.65 413.33 449.22 316.4"/><path class="cls-22" d="M465.19,315.8l-1.46,11.76a2,2,0,0,1-.8,1.39l-14.32,10.59a2,2,0,0,1-3.19-1.33l-.48-3.27a2,2,0,0,1,.56-1.71l16.26-19.07a2,2,0,0,1,3.43,1.64Z"/><polygon class="cls-23" points="535.36 370.69 530.09 392.84 501.47 414.51 504.93 316.35 535.36 370.69"/><path class="cls-19" d="M486.15,318.07s.94,11.3,3.3,13.08,33.36,15.17,37.05,15.67,3-8,3-8Z"/><path class="cls-24" d="M486.15,318.07s1.17,13.65,4.24,13.64c3.68,1.81,31,13.74,31,13.74"/><path class="cls-25" d="M669.35,369.69c-4.12,0-8.88-.26-14.15-.77h-.38c-36.39-3.62-89.62-18.38-123.69-30.57-3.93-1.41-7.83-2.87-11.62-4.33-3.35-1.32-6.17-2.47-8.6-3.5-1.55-.66-3-1.3-4.41-1.93-8.51-3.84-12.37-6.31-14.11-7.7a9.17,9.17,0,0,1-.92-.84c-.26-1.16-.51-2.61-.72-4.31,0-.1,0-.21-.05-.31-.55-4.42-.95-10.49-1.14-17.57a426.24,426.24,0,0,1,1.62-49.26c.12-1.14.24-2.22.36-3.28a7.29,7.29,0,0,1,6.72-6.41c8.36-.59,17-1,25.53-1.21,5.31-.14,10.76-.21,16.2-.21A778.23,778.23,0,0,1,644.55,245c11.18,1.56,22.42,3.38,32.49,5.27l1.22.23a7.35,7.35,0,0,1,5.66,5.27,156,156,0,0,1,5,27.19v.09A239.12,239.12,0,0,1,690,308.72c-.06,7.36-.42,15-1,22.85-.14,1.79-.29,3.54-.45,5.23v.35c-.15,1.45-.29,2.86-.44,4.24-1,8.93-2.11,16.26-2.89,20.84a5.54,5.54,0,0,1-.13.74v.17a7.28,7.28,0,0,1-.82,2.3c-.06.09-.17.29-.17.29l-.42.6-.12.15a7.16,7.16,0,0,1-4.53,2.61l-1.69.22a73.79,73.79,0,0,1-7.87.38Z"/><path class="cls-26" d="M540,242.79a770.54,770.54,0,0,1,103.82,7.48c11.1,1.54,22.25,3.35,32.25,5.23h.12l.59.11.46.09a2.06,2.06,0,0,1,1.56,1.49,151.09,151.09,0,0,1,4.79,26.26v.14a233.14,233.14,0,0,1,1.06,25.07c-.06,7.22-.41,14.78-1,22.48-.15,1.9-.3,3.55-.44,5v.53c-.14,1.4-.28,2.77-.42,4.08-1,8.73-2.06,15.92-2.83,20.44l-.15.85v.13a1.87,1.87,0,0,1-.17.52c0,.06-.07.12-.11.17l-.16.24a1.81,1.81,0,0,1-1.17.66c-.45.07-1,.13-1.46.19a68.29,68.29,0,0,1-7.29.35c-3.93,0-8.5-.25-13.56-.74h-.48C619.5,360,566.8,345.36,533,333.28c-3.89-1.39-7.75-2.83-11.45-4.27-3.38-1.32-6.07-2.42-8.51-3.46-1.28-.54-2.65-1.14-4.26-1.86-7.4-3.34-10.87-5.48-12.36-6.54-.09-.59-.2-1.29-.3-2.12a.91.91,0,0,0-.07-.43c-.52-4.24-.9-10.08-1.08-16.92a416.83,416.83,0,0,1,1.6-48.58h0c.11-1.07.22-2.11.34-3.12a2.13,2.13,0,0,1,.17-.61,2,2,0,0,1,1.62-1.12c8.29-.59,16.79-1,25.3-1.2,5.26-.14,10.67-.21,16.06-.21m0-10.68q-8.08,0-16.33.21c-8.51.21-17.13.61-25.79,1.23a12.6,12.6,0,0,0-11.63,11.12c-.13,1.09-.26,2.2-.37,3.35a425.8,425.8,0,0,0-1.65,50c.2,7.17.6,13.57,1.22,18.4h0a47.74,47.74,0,0,0,1,5.44,3,3,0,0,0,.26.64h0a9.32,9.32,0,0,0,2.36,2.53c3,2.38,8.26,5.25,15.27,8.42,1.43.64,2.92,1.29,4.49,2q4.09,1.74,8.77,3.56c3.69,1.44,7.62,2.9,11.75,4.38,36.83,13.18,89.4,27.33,124.93,30.86l.43.05c5.31.51,10.23.79,14.66.79a74.66,74.66,0,0,0,8.46-.42c.64-.07,1.27-.15,1.87-.24a12.47,12.47,0,0,0,7.92-4.54l.35-.45.43-.63a3.28,3.28,0,0,0,.2-.31.56.56,0,0,0,.09-.17.06.06,0,0,0,0-.06,12.31,12.31,0,0,0,1.53-4.18,5.12,5.12,0,0,1,.16-.91c.88-5.18,2-12.48,2.93-21.17.15-1.41.3-2.86.45-4.36a.49.49,0,0,1,0-.17c.16-1.76.32-3.56.46-5.42.59-7.23,1-15.08,1.07-23.23a243.1,243.1,0,0,0-1.12-26.3,0,0,0,0,0,0-.05,161.9,161.9,0,0,0-5.14-28.13,12.72,12.72,0,0,0-9.83-9.06c-.39-.08-.78-.16-1.21-.23-7.13-1.34-18.41-3.31-32.73-5.31A776.91,776.91,0,0,0,540,232.11Z"/><polygon class="cls-27" points="452.77 428.94 455.27 454.79 512.35 455.8 507.13 429.89 452.77 428.94"/><polygon class="cls-23" points="533.24 416.67 547.94 436.68 512.35 455.8 507.13 429.89 533.24 416.67"/><ellipse class="cls-28" cx="517.86" cy="407.04" rx="16.2" ry="30.53"/><path class="cls-29" d="M464.76,314.69S464.17,328,462.93,329l-14.32,10.59"/><path class="cls-25" d="M300.37,365.31a73.06,73.06,0,0,1-11.06-.74,7,7,0,0,1-5.8-5.81c-3.19-19.39-9.37-68.66,2-107.23a7.09,7.09,0,0,1,5.53-5c31.52-5.73,65.7-8.63,101.57-8.63,18.45,0,37.51.77,56.65,2.29a7,7,0,0,1,6.41,6.24c2.57,23.66,2.24,63.06-.6,74.73-2.87,3.78-23.83,14.42-60.93,25.92C357.22,358.48,322.18,365.31,300.37,365.31Z"/><path class="cls-26" d="M392.57,243.47c18.3,0,37.21.76,56.2,2.27a1.42,1.42,0,0,1,1.28,1.25c2.61,24,2.09,59.15-.13,71.22-5.41,4.22-26.61,14.08-60.06,24.27C354.47,353.26,321,359.7,300.37,359.7a67,67,0,0,1-10.2-.67,1.4,1.4,0,0,1-1.13-1.17c-3.12-19-9.2-67.28,1.81-104.75A1.51,1.51,0,0,1,292,252c31.2-5.67,65-8.54,100.57-8.54h0m0-11.22c-49.92,0-85,5.52-102.57,8.72a12.72,12.72,0,0,0-9.91,9c-11.73,39.94-5.22,90.82-2.12,109.72a12.63,12.63,0,0,0,10.47,10.44,79.37,79.37,0,0,0,11.93.81c51.74,0,156.78-35.72,160-48s3.46-53,.84-77.14a12.64,12.64,0,0,0-11.54-11.22c-20.74-1.65-39.81-2.31-57.09-2.31Z"/><path class="cls-30" d="M554.73,332.74a36.81,36.81,0,0,1-26.9-12.61A43.5,43.5,0,0,1,517,290.2c.4-22.71,17.73-41.19,38.62-41.19h.63a36.79,36.79,0,0,1,26.91,12.62A43.42,43.42,0,0,1,594,291.55c-.4,22.72-17.72,41.2-38.61,41.2Z"/><path class="cls-31" d="M555.57,253.55h.55c18.74.33,33.69,17.34,33.32,37.92A39,39,0,0,1,579,317.73a32.34,32.34,0,0,1-23.61,10.48h-.56c-18.73-.33-33.68-17.34-33.32-37.92A39,39,0,0,1,532,264a32.42,32.42,0,0,1,23.61-10.47m0-9.08c-23.46,0-42.71,20.28-43.15,45.65-.45,25.63,18.46,46.74,42.23,47.16h.72c23.45,0,42.7-20.29,43.15-45.66.45-25.62-18.46-46.74-42.24-47.16Z"/><path class="cls-30" d="M391.52,331.67a36.81,36.81,0,0,1-26.9-12.61,43.44,43.44,0,0,1-10.88-29.93c.4-22.71,17.72-41.19,38.61-41.19H393a36.77,36.77,0,0,1,26.9,12.62,43.46,43.46,0,0,1,10.88,29.92c-.4,22.72-17.72,41.2-38.62,41.2Z"/><path class="cls-31" d="M392.35,252.48h.56a32.27,32.27,0,0,1,23.6,11.11,39.93,39.93,0,0,1-.74,53.07,32.4,32.4,0,0,1-23.62,10.48h-.55c-18.74-.33-33.68-17.34-33.32-37.92A39,39,0,0,1,368.74,263a32.42,32.42,0,0,1,23.61-10.47m0-9.08c-23.45,0-42.7,20.28-43.15,45.65-.45,25.63,18.46,46.74,42.24,47.16h.71c23.46,0,42.71-20.29,43.16-45.66.45-25.62-18.46-46.74-42.24-47.15Z"/><ellipse class="cls-32" cx="519.09" cy="408.73" rx="15.24" ry="7.04" transform="translate(101.26 920.54) rotate(-88.99)"/><path class="cls-33" d="M448.89,418c-24,3.11-128.95,48.76-128.95,48.76s-6.33,135-2.52,143.49c1.5,9.86,1.46,22.21,23.25,45.12,7.23,3.9,9.92,13.55,157.68,16.63"/><path class="cls-33" d="M533.46,415.29s131,2.43,136.44,5c0,0,2.47,112.42,1.2,119.07"/><ellipse class="cls-34" cx="386.76" cy="279.83" rx="19.09" ry="16.06" transform="translate(100.16 661.6) rotate(-88.99)"/><ellipse class="cls-34" cx="545.96" cy="281.72" rx="19.09" ry="16.06" transform="translate(254.66 822.63) rotate(-88.99)"/><path class="cls-35" d="M494.74,518.61l-129-5.28a9.6,9.6,0,0,0-10,9.21c0,.18,0,.36,0,.54l1.19,76.64a9.6,9.6,0,0,0,9.21,9.45l129.2,5.3a9.59,9.59,0,0,0,10-9.19c0-.19,0-.39,0-.58L504,528.05A9.62,9.62,0,0,0,494.74,518.61Z"/><path class="cls-36" d="M496.75,522.38l-129.32-5.57a7.47,7.47,0,0,0-7.79,7.15c0,.14,0,.29,0,.43l1.19,77.05a7.47,7.47,0,0,0,7.15,7.35l129.3,5.75a7.47,7.47,0,0,0,7.8-7.14c0-.15,0-.29,0-.44l-1.17-77.23A7.48,7.48,0,0,0,496.75,522.38Z"/><path class="cls-37" d="M412.83,557.69l79.59,2.69a4.82,4.82,0,0,0,4.92-4.69L496.81,533a4.83,4.83,0,0,0-4.69-4.92l-79.59-2.69a4.82,4.82,0,0,0-4.92,4.69l.53,22.66a4.82,4.82,0,0,0,4.69,5Z"/><ellipse class="cls-38" cx="479.05" cy="544.01" rx="11.63" ry="9.3" transform="translate(-69.2 1018.2) rotate(-89.49)"/><ellipse class="cls-39" cx="450.99" cy="542.83" rx="11.63" ry="9.3" transform="translate(-95.83 988.97) rotate(-89.49)"/><ellipse class="cls-40" cx="423.47" cy="542.49" rx="11.63" ry="9.3" transform="translate(-122.77 961.11) rotate(-89.49)"/><path class="cls-41" d="M428.51,577.63l62.66,2.4a5,5,0,0,0,5.11-4.89h0a5,5,0,0,0-4.89-5.11h0l-62.67-2.4a5,5,0,0,0-5.1,4.89h0a5,5,0,0,0,4.89,5.11Z"/><path class="cls-42" d="M463.8,609.19l27.84.91a5,5,0,0,0,5.1-4.9h0a5,5,0,0,0-4.89-5.1L464,599.19a5,5,0,0,0-5.11,4.89h0a5,5,0,0,0,4.89,5.11Z"/><path class="cls-42" d="M463.59,595.16l27.83.91a5,5,0,0,0,5.11-4.89h0a5,5,0,0,0-4.89-5.11h0l-27.83-.9a5,5,0,0,0-5.11,4.89h0a5,5,0,0,0,4.89,5.11Z"/><polygon class="cls-43" points="398.89 525.62 360.83 523.76 362.04 602.03 400.49 603.44 398.89 525.62"/><ellipse class="cls-44" cx="367.27" cy="532.81" rx="4.16" ry="4.82" transform="translate(-8.14 5.7) rotate(-0.88)"/><path class="cls-45" d="M367.23,528s-1.74,6,.42,9.62"/><path class="cls-45" d="M371.46,532.72s-5.31,1.32-8.31.13"/><ellipse class="cls-46" cx="394.57" cy="596.74" rx="4.16" ry="4.82" transform="translate(-9.12 6.13) rotate(-0.88)"/><path class="cls-45" d="M394.55,591.89s-1.75,6,.41,9.63"/><path class="cls-45" d="M398.78,596.64s-5.31,1.33-8.31.13"/><ellipse class="cls-47" cx="367.48" cy="595.56" rx="4.16" ry="4.82" transform="translate(-9.1 5.71) rotate(-0.88)"/><path class="cls-45" d="M367.46,590.71s-1.75,6,.41,9.63"/><path class="cls-45" d="M371.69,595.46s-5.31,1.33-8.31.13"/><ellipse class="cls-48" cx="390.85" cy="533.55" rx="4.16" ry="4.82" transform="translate(-8.15 6.07) rotate(-0.88)"/><path class="cls-45" d="M390.82,528.7s-1.75,6,.41,9.63"/><path class="cls-45" d="M395.05,533.45s-5.31,1.33-8.31.13"/><path class="cls-49" d="M496.28,575.14s-10.88-3.25-21,.32-10.7-5.49-15.4-5.3-5.69,7.1-12.08,6.5-4.33-3.08-7.36-3-3,3.23-5.85,2.9-4.2-9.17-5.88-8.91"/><path class="cls-1" d="M488.36,703.33a67.47,67.47,0,0,1,2.78-10.94c5.12-14.91,21-60,34.77-86.95,8.11-15.87,13.07-26.75,17.28-34.87a69.72,69.72,0,0,1,20.32-23.84c5.67-4.2,12.19-8.92,21.9-12.28,12.68-4.39,26.19-3.77,39.4-1.42,32.92,5.87,50.63,7.24,57,9.54,6.21,4.62,32.42,34.52,33.29,58.93.63,17.62-1.71,41.48-14.8,59.84s-66.41,106.77-88.23,107.77c-25.47,1.16-90.52-5-109-19.54C486.56,736.51,485.51,720.71,488.36,703.33Z"/><path class="cls-2" d="M603.43,765.94c-9.9,0-17.73-2.37-23.91-7.25-15-11.84-16.23-25.65-13.42-42.76a63.59,63.59,0,0,1,2.64-10.35c4.62-13.46,20.78-59.49,34.56-86.46,4.48-8.76,8.07-16.16,11-22.1,2.38-4.91,4.43-9.14,6.3-12.75a66.43,66.43,0,0,1,19.26-22.58c5.1-3.78,11.44-8.49,20.91-11.76a63.24,63.24,0,0,1,20.68-3.44A67,67,0,0,1,698,548.6c22.56,5.79,37.64,17.29,44.07,22.2l1.56,1.18.8.59c19.74,14.56,30,29.25,30.53,43.66.58,16.41-1.39,39.72-14.13,57.58-5.79,8.11-28.25,27.05-55.89,47.11-28.32,20.56-52.46,35.34-61.51,37.65-1.48.37-3,.77-4.51,1.16C627.75,762.64,615.08,765.94,603.43,765.94Z"/><path d="M681.41,550.17a63.3,63.3,0,0,1,15.68,2c21.84,5.61,36.5,16.79,42.76,21.57l1.6,1.21.8.59a106.06,106.06,0,0,1,17.27,15.38c7.51,8.62,11.47,17.18,11.77,25.45,1,28.7-6.75,45.92-13.44,55.31-5.5,7.7-28.14,26.73-55.06,46.28-27.54,20-51.76,34.88-60.26,37L638,756.17c-11,2.86-23.39,6.09-34.57,6.09-9,0-16.12-2.11-21.64-6.46-6.41-5.06-10.37-10.8-12.09-17.54-1.49-5.84-1.48-12.54,0-21.74a60.5,60.5,0,0,1,2.49-9.74c4.6-13.41,20.68-59.23,34.35-86,4.5-8.81,8.1-16.22,11-22.18,2.37-4.88,4.41-9.09,6.26-12.66A62.55,62.55,0,0,1,642,564.65c4.9-3.63,11-8.15,19.92-11.24a59.51,59.51,0,0,1,19.48-3.24m0-7.36a67.07,67.07,0,0,0-21.89,3.64c-9.71,3.36-16.23,8.08-21.9,12.29a69.51,69.51,0,0,0-20.32,23.84c-4.21,8.11-9.17,19-17.28,34.87-13.77,26.95-29.65,72-34.76,86.94a66.48,66.48,0,0,0-2.79,10.94c-2.85,17.38-1.8,33.19,14.77,46.25,7.57,6,16.65,8,26.19,8,13.74,0,28.43-4.3,40.92-7.49,21.16-5.39,106.39-67.82,119.49-86.19s15.43-42.22,14.8-59.84c-.87-24.41-26.59-42.45-32.8-47.07-5.27-3.92-21.55-17.48-46.92-24a69.88,69.88,0,0,0-17.51-2.23Z"/><ellipse class="cls-3" cx="717.85" cy="628.56" rx="49.01" ry="39.16" transform="matrix(0.03, -1, 1, 0.03, 66.32, 1325.63)"/><ellipse class="cls-3" cx="665.7" cy="696.61" rx="35.12" ry="28.06" transform="translate(-52.15 1339.35) rotate(-88.14)"/><ellipse class="cls-3" cx="608.93" cy="722.42" rx="27.63" ry="22.08" transform="translate(-132.87 1307.58) rotate(-88.14)"/><ellipse class="cls-4" cx="718.92" cy="626.71" rx="18.32" ry="13.33" transform="translate(70.94 1326.51) rotate(-88.28)"/><ellipse class="cls-4" cx="666.91" cy="698.04" rx="11.5" ry="15.81" transform="translate(-131.5 155.3) rotate(-12.1)"/><ellipse class="cls-4" cx="608.87" cy="724.29" rx="8.52" ry="11.71" transform="translate(-138.3 143.72) rotate(-12.1)"/><path class="cls-5" d="M594.72,684.84s6.45-12.44,25.46-5.85c3.61-8.06,11.21-29.92,45.1-26.79-1.53-7.57-14.29-40.42,11.53-72-9.86-4.61-16-7.67-28.86,7.65S593.41,681,594.72,684.84Z"/><line class="cls-6" x1="543.39" y1="570.19" x2="619.33" y2="578.93"/><line class="cls-6" x1="587.79" y1="533.69" x2="672.33" y2="543.41"/><polyline class="cls-6" points="684.39 544.8 706.83 547.38 706.83 547.38"/><line class="cls-6" x1="520.58" y1="616.49" x2="596.24" y2="625.18"/><line class="cls-6" x1="501.84" y1="662.53" x2="577.21" y2="671.19"/><line class="cls-6" x1="487.44" y1="710.33" x2="561.94" y2="718.9"/><ellipse class="cls-50" cx="365.37" cy="456.37" rx="12.84" ry="3.92" transform="matrix(0.98, -0.18, 0.18, 0.98, -75.04, 71.91)"/><path class="cls-13" d="M716.51,487.17c.57.52,1.22,1.13,2,1.79,2.08,1.89,4.37.9,5.54-2.42,3.61-10.22,8.86-32.7,10.63-43.93A18,18,0,0,0,733.05,432a26.27,26.27,0,0,0-5.26-7.08,14.54,14.54,0,0,0-7.94-3.95,5.74,5.74,0,0,0-3,1.85l-4.89,4.9,2.72,4.69.44-.31c-1,13.38-1.87,35.62-2,44.84C713.1,481.08,714.48,485.3,716.51,487.17Z"/><path class="cls-14" d="M722,430.92a26.57,26.57,0,0,1,5.27,7.09,18.06,18.06,0,0,1,1.58,10.66c-1.75,11.18-7,33.7-10.63,43.91-1.16,3.33-3.44,4.32-5.53,2.44l-2-1.8c-2-1.88-3.41-6.1-3.36-10.28.11-10.38,1.24-37.19,2.36-49.4.38-4.17,2.16-6.88,4.34-6.57A14.41,14.41,0,0,1,722,430.92Z"/><path class="cls-51" d="M736.67,507.09c-6.29,15.14-22.36,27.87-35.73,28.3-.33,0-.65,0-1,0l-99.37-14A7.41,7.41,0,0,1,595,518.7h0l-17.35-20.13,13.11-5.18,6.91,1.7c.27-.79-1.8,6-1.48,5.24,2.07-5,.42-1.41,4.49-6.08,3.82-4.4,9-7.36,13.48-7.7L696.65,481h0l22-15.62,16,17.68,1.26,1.38a2.48,2.48,0,0,1,.19.26C740,489.86,740.47,498,736.67,507.09Z"/><path class="cls-51" d="M736,484.51l-1.26-1.38A11,11,0,0,1,736,484.51Z"/><path class="cls-52" d="M719.56,488.41c-6.29,15.13-22.35,27.85-35.73,28.29-.32,0-.65,0-1,0l-99.37-14a7.19,7.19,0,0,1-7.16-7.22v-.05c-.19-4.22,3.22-15.13,7.28-19.79,3.83-4.4,9-7.36,13.48-7.7l109.14-7.3a8.94,8.94,0,0,1,1-.05C720.37,460.75,725.86,473.23,719.56,488.41Z"/><ellipse class="cls-53" cx="692.28" cy="489.09" rx="18.12" ry="12.42" transform="matrix(0.86, -0.51, 0.51, 0.86, -152.56, 420.54)"/><path d="M645.66,410.34l2.74-3.4a2.84,2.84,0,0,1,1.13-.84l17.26-6.9a3.84,3.84,0,0,1,3.64.42l15.3,10.65a2.43,2.43,0,0,1,1,2.32l-.29,2Z"/><path class="cls-54" d="M709.75,455l-.2-.18-3-2.69-29.28-26.33,0,0-.36-.33c-10.23-9.2-22.59-12.93-34.52-11.6l1.37-2.69L630,417.13h0a50.86,50.86,0,0,0-22.44,19.27c-16.7,25.43-12.75,61.76,8.83,81.15,13.87,12.48,31.66,14.9,47,8.27l.44-.19,14.58-6.34a1.28,1.28,0,0,0,.24-.11L675.84,518a54.6,54.6,0,0,0,9.85-11.35c.09-.14.19-.28.28-.43l0-.05,25.13-38.27C713.79,463.85,713.16,458.1,709.75,455Zm-20-9.46,0,0c10.52,15.13,8.53,34.89-4.63,44.48-13.36,9.74-33.2,5.3-44.29-9.92a36,36,0,0,1-6.55-28.38v0A27.62,27.62,0,0,1,645,435c13.36-9.74,33.19-5.3,44.29,9.92C689.43,445.13,689.59,445.35,689.74,445.58Z"/><polygon class="cls-55" points="760.58 396.77 757.46 401.32 755.75 403.83 725.06 448.65 723.95 450.28 709.55 454.86 703.36 456.83 706.56 452.17 715.12 439.72 715.13 439.72 716.2 438.16 716.7 437.43 720.72 431.59 721.21 430.88 724.76 425.71 725.2 425.07 725.21 425.07 729.22 419.22 729.72 418.5 733.38 413.18 733.38 413.17 733.87 412.46 737.35 407.41 740.09 403.42 760.58 396.77"/><path class="cls-56" d="M726.25,461.31l-25.13,38.27,0,.05-.28.44c-7.7,11.72-18.44,19.08-29.9,21.7h0c-13.39,3.07-27.76-.33-39.38-10.78-21.57-19.39-25.52-55.72-8.82-81.14a53.14,53.14,0,0,1,14.8-15.15c16.79-11.21,38.3-10.34,54.49,4.22a3.8,3.8,0,0,1,.37.33l0,0,32.47,29.19C728.27,451.53,728.9,457.29,726.25,461.31Z"/><ellipse cx="664.62" cy="464.96" rx="31.73" ry="33.55" transform="translate(-146.35 480.61) rotate(-36.08)"/><path class="cls-56" d="M654.88,465.6l-3.59,6.74,6.29,4.82a17.32,17.32,0,0,1,.88-2,8.92,8.92,0,0,1,.65-1c1.4-1.88,3.06-2.1,4.64-1.21A3.69,3.69,0,0,1,665,478a7,7,0,0,1-.53.84,6.81,6.81,0,0,1-1.86,1.73l1.2,1.31a6.66,6.66,0,0,0,2-1.88,9.48,9.48,0,0,0,.71-1.13,5.82,5.82,0,0,0-2-8,4.48,4.48,0,0,0-4.7-.07,5.86,5.86,0,0,0-1.76,1.62,8,8,0,0,0-.61,1,8.26,8.26,0,0,0-.53,1.2l-3.34-2.63,2.87-5.38-1.61-.93Z"/><path class="cls-56" d="M666.47,452.25a3,3,0,0,0-.29.44,4.16,4.16,0,0,0-.5,2.75,5.34,5.34,0,0,0,.74,2l0,0a3.38,3.38,0,0,0-3.39,1.28,4.66,4.66,0,0,0-.3.47,4.26,4.26,0,0,0,.17,4.41l0,.07-1.74-.89-.89,1.67c.9.44,1.8.93,2.88,1.55l7.67,4.43,1-1.87-6.33-3.66a3,3,0,0,1-.85-.68,3.11,3.11,0,0,1-.66-3.47q.11-.18.21-.33c.83-1.12,2.32-1.08,3.85-.19l6.3,3.63,1-1.86-6.49-3.75a3.73,3.73,0,0,1-.87-.71,2.94,2.94,0,0,1-.54-3.25c.08-.13.15-.25.23-.36.87-1.18,2.38-1.12,4.23-.05l5.94,3.44,1-1.87-6.18-3.57c-3.25-1.88-5.2-.86-6.11.37Z"/><polygon class="cls-58" points="737.35 407.41 757.46 401.32 760.58 396.77 740.09 403.41 737.35 407.41"/><polygon points="760.58 396.77 763.64 400.98 755.74 403.83 760.58 396.77"/><polygon points="716.7 437.43 722.31 436.51 722.41 437.13 716.2 438.16 716.7 437.43"/><polygon points="729.68 429.48 729.78 430.1 720.72 431.59 721.21 430.88 729.68 429.48"/><polygon points="725.2 425.07 725.21 425.07 730.89 424.14 730.99 424.75 724.78 425.78 724.76 425.71 725.2 425.07"/><polygon points="739.4 411.55 739.51 412.17 733.38 413.17 733.87 412.46 739.4 411.55"/><polygon points="738.27 417.1 738.37 417.72 729.22 419.22 729.72 418.5 738.27 417.1"/><path class="cls-13" d="M683.4,505.22a74.05,74.05,0,0,1,7.27,10.23c1.09,2,.92,5.45-.41,8.43l-1.26,2.8-.14.28c-1.32,2.7-3.36,4.33-5.06,4-4.33-.93-15.33-4.57-20.17-7.11-1.66-.88-2.34-3.74-1.65-7a55.82,55.82,0,0,1,4.21-12.57A35.57,35.57,0,0,1,670,498a4.78,4.78,0,0,1,3.23-2.13l1.32.29h0c2.58.59,8.23,2.05,10.52,3.72C686.68,501,685.19,503.3,683.4,505.22Z"/><path class="cls-14" d="M676.83,508.09a35.68,35.68,0,0,1,3.6-6.44c1.53-2.13,3.43-2.83,4.84-1.76,4.38,3.29,12.81,12.48,16.4,18.48,1.16,2,1.11,5.42-.12,8.44l-1.16,2.85-.12.28c-1.22,2.74-3.21,4.46-4.92,4.15-4.37-.78-15.48-4-20.41-6.39-1.69-.82-2.5-3.67-1.9-6.91A56.43,56.43,0,0,1,676.83,508.09Z"/><path class="cls-13" d="M730.39,466.8a69.83,69.83,0,0,1-.25,12c-.3,2.16-2.41,4.72-5.14,6.25l-2.57,1.43-.26.14c-2.55,1.32-5.06,1.41-6.16.16-2.8-3.19-9.18-12.27-11.44-17-.78-1.62.33-4.21,2.71-6.29a53.33,53.33,0,0,1,10.42-7.27,33.46,33.46,0,0,1,6.55-2.63,4.55,4.55,0,0,1,3.7.2s.33.37.85,1h0c1.64,1.93,5.16,6.28,6,8.87C735.32,465.43,732.87,466.34,730.39,466.8Z"/><path class="cls-14" d="M723.7,465.25a34.26,34.26,0,0,1,6.45-2.89c2.39-.77,4.25-.22,4.73,1.41,1.48,5,2.71,16.91,2,23.58-.22,2.15-2.24,4.8-4.91,6.42l-2.52,1.52-.25.15c-2.5,1.41-5,1.6-6.15.38-2.92-3.1-9.61-11.94-12.05-16.58-.83-1.59.18-4.24,2.49-6.39A53.49,53.49,0,0,1,723.7,465.25Z"/><path class="cls-13" d="M709.49,484.6A88.08,88.08,0,0,1,713.94,499c.5,2.68-1,6.56-3.63,9.46l-2.49,2.72-.26.26c-2.51,2.59-5.46,3.69-7.26,2.63-4.59-2.68-15.76-11-20.33-15.67-1.56-1.62-1.26-5.13.74-8.56a66.85,66.85,0,0,1,9.51-12.75,42.46,42.46,0,0,1,6.75-5.73,5.74,5.74,0,0,1,4.48-1.22s.53.3,1.39.82h0c2.72,1.65,8.62,5.43,10.61,8.19C714.8,481,712.25,483.08,709.49,484.6Z"/><path class="cls-14" d="M700.92,485.41a43,43,0,0,1,6.52-6c2.55-1.85,5-1.94,6.18-.2,3.76,5.4,9.93,19,11.76,27.23.6,2.65-.76,6.59-3.29,9.58l-2.39,2.81-.25.27c-2.41,2.67-5.32,3.88-7.16,2.89-4.69-2.53-16.15-10.39-20.88-14.95-1.62-1.56-1.47-5.12.43-8.58A67.65,67.65,0,0,1,700.92,485.41Z"/><ellipse class="cls-59" cx="480.08" cy="224.19" rx="60.22" ry="183.52" transform="translate(241 697.02) rotate(-88.21)"/><path class="cls-60" d="M659.27,223.49a28.52,28.52,0,0,1-4.76,4.75,32.67,32.67,0,0,1-3,2.61c-5.87.05-11.77-.06-17.78.49-8.37.75-16.67,2-25,3.08a292.06,292.06,0,0,0-38.91,7.29L542.4,249l-40.48,10.72c-22.77,6-48.75,5.6-71.88.81-9.21-1.9-18.59-3.43-27.84-5.33q-12.93-2.65-25.9-5.14c-19.33-3.78-38.62-8.41-56.76-16.24a57.5,57.5,0,0,1-14.49-8.6c-4.15-3.5-7.64-8.63-6.15-14.31s6.66-10.25,10.63-14.21a63.35,63.35,0,0,1,7.82-6.34c1.43-1.05,2.89-2.06,4.34-3,.52-.36,4.16-2.11,4.19-2.6l-.59,6.94,11.42.9a69,69,0,0,0,25.46,16.7c18.67,7.41,38.7,10.7,58.36,14.87q12.39,2.68,25,4.85c12.23,2.16,24.61,3.92,36.87,5.05,1.8.18,3.59.37,5.4.44,9.38.47,18.68.55,28,.27l1.27,0a345.17,345.17,0,0,0,49.57-5.18,10.17,10.17,0,0,0,1.79-.31c1.55-.25,3.14-.55,4.69-.85,15.76-3,32-3.09,47.68-6.39a98.43,98.43,0,0,0,34.15-14.26c1.5-1,3-2.06,4.34-3.15a22.85,22.85,0,0,1,1.75,3.67,16.88,16.88,0,0,1,.94,5.22A17.9,17.9,0,0,1,659.27,223.49Z"/><path class="cls-61" d="M659.35,204.55c-1.46,1.1-2.93,2.17-4.35,3.15A98.56,98.56,0,0,1,620.85,222c-15.66,3.3-31.92,3.33-47.68,6.38-1.54.3-3.14.6-4.69.86a15.92,15.92,0,0,0-1.79.3L566,224l1.62-.06c3-.33,6-.63,9-1a312,312,0,0,0,31-5.52c8.28-1.82,16.73-2.8,24.88-5.17a71.89,71.89,0,0,0,8.19-2.93,143.91,143.91,0,0,0,14.7-7.48l1.35-.75A16.82,16.82,0,0,1,659.35,204.55Z"/><path class="cls-62" d="M656.67,201.06l-1.36.76a143.68,143.68,0,0,1-14.69,7.47c2.32-101-40-160.57-97.49-188.55,1.31,0,2.62,0,3.94.08h.49c2,.26,4,.59,6,.94a.33.33,0,0,1,.22,0c72.29,18.12,106.74,85.86,101.58,178a6.75,6.75,0,0,1,1,.81Z"/><path class="cls-63" d="M651.49,230.85a20.45,20.45,0,0,1-3.92,2.52,37.5,37.5,0,0,1-11.43,3.35c-3.72.62-7.61,0-11.42.4-6.65.74-13.39,2.13-20.05,3.36-25.56,4.64-51.19,10.45-76.16,17.27q-11.18,3.06-22.34,6.36c-3.7,1.13-7.38,2.32-11,3.43-3.26.91-6.79,1.08-10.15,1.84a65.39,65.39,0,0,1-11.08,1.16,140.2,140.2,0,0,1-22.26-.25l-17.14-1.64c-5.76-.55-11.35-1.12-17-2.1-6.13-1-12.06-2.52-18.15-3.71-4.3-.81-8.69-1.68-13-2.51-6-1.13-12.09-2.28-18.06-3.56-3.58-.79-7.29-1.29-10.9-2-7.59-1.5-15.21-3-22.61-5.21A113.19,113.19,0,0,1,306,235.18c-4.37-2.9-8.58-7.4-9.47-12.71a20.19,20.19,0,0,1,3.72-14.72,16.46,16.46,0,0,0-1.17,3c-1.49,5.64,2,10.81,6.15,14.32a58.15,58.15,0,0,0,14.49,8.6c18.07,7.83,37.43,12.45,56.77,16.23q12.91,2.51,25.89,5.14c9.26,1.91,18.63,3.41,27.84,5.33,23.18,4.79,49.13,5.2,71.89-.81l40.48-10.72L570,241.59a290.44,290.44,0,0,1,38.91-7.28c8.35-1.05,16.65-2.31,25-3.09C639.72,230.79,645.62,230.9,651.49,230.85Z"/><polygon class="cls-62" points="347.18 160.47 344.51 191.53 344.34 193.12 336.78 192.56 336.76 192.53 325.36 191.66 325.94 184.72 328.17 159.17 347.18 160.47"/><path class="cls-64" d="M347.19,160.27v.2l-19-1.3,15.28-13,1.32-1.09v-.22Z"/><path class="cls-65" d="M496.38,15.43c-67-2.14-128.53,37-151.55,129.39h0l2.38,15.49v.22h0l-2.66,31.07,2.48,1.8h0c10.83,7.44,23.68,11.73,36.4,15.34A487.14,487.14,0,0,0,433.22,220c3.36.55,6.71,1.08,10.07,1.57-13-46.5-13.8-85-7.39-116a.6.6,0,0,1,0-.35c.15-.85.34-1.71.56-2.52C418.61,77.92,452.93,28,496.38,15.43ZM372.1,194.09l-14.39-6.89a250.73,250.73,0,0,1,21.73-79.58l15.85,1.68A226.62,226.62,0,0,0,372.1,194.09ZM398,102.53l-15.21-1.21s13.38-29.18,30-45.53l12.43,4.29s-22,26.34-27.21,42.45Z"/><path class="cls-66" d="M502,14.06c-1,.41-2.2.92-3.2,1.44h0c-25.3,12.14-51.86,40.82-62.2,87.12-17.9-24.7,16.42-74.68,59.86-87.19h0A50.33,50.33,0,0,1,502,14.06Z"/><path class="cls-67" d="M547.42,21.23l-.38,0c-1.68-.24-3.35-.44-5-.61s-3.68-.36-5.56-.45c-3.43-.17-6.92,0-10.32.11a49.82,49.82,0,0,0-10,1.21A67.58,67.58,0,0,0,501.25,27a70.22,70.22,0,0,0-12.39,8,77.58,77.58,0,0,0-10.22,9.88A95.22,95.22,0,0,0,470.39,56a122.22,122.22,0,0,0-6.58,11.71c-1.85,3.78-3.57,7.66-5.12,11.61-1.46,3.59-2.75,7.24-4.07,10.93A93.51,93.51,0,0,1,450.78,99a12.44,12.44,0,0,1-11.7,7.23,21,21,0,0,1-2.69-3.18c10.35-46.28,36.91-75,62.21-87.12h0a31.45,31.45,0,0,1,3.19-1.44h0a66.62,66.62,0,0,1,23.09-.8H525a62.62,62.62,0,0,1,21,7h0Z"/><path class="cls-68" d="M515.77,234.74c-9.36.33-18.66.2-28-.27-1.8-.08-3.59-.26-5.4-.44-12.34-1.13-24.57-2.89-36.86-5.05q-12.56-2.16-24.95-4.85c-19.57-4.18-39.6-7.53-58.37-14.87a69,69,0,0,1-25.45-16.7l7.56.56.17-1.59,2.49,1.81h0c10.82,7.44,23.68,11.73,36.4,15.34a486.54,486.54,0,0,0,49.78,11.23c3.35.55,6.71,1.08,10.06,1.57,5,.76,10.13,1.43,15.2,2,11,1.29,22.06,2.06,33,3.31,5.67.67,11.31,1,16.93,1.24l1,0Z"/><path class="cls-69" d="M372.1,194.09l-14.39-6.89a250.73,250.73,0,0,1,21.73-79.58l15.85,1.68A226.62,226.62,0,0,0,372.1,194.09Z"/><path class="cls-69" d="M425.18,60.08s-22,26.34-27.21,42.45l-15.21-1.21s13.38-29.18,30-45.53Z"/><path class="cls-62" d="M566.6,229.52a365.8,365.8,0,0,1-50.83,5.22l1.79-6.73,8-25.11.22-.74,37.32-.36L566,224Z"/><path class="cls-70" d="M543.06,20.85l-2.77.1a80.75,80.75,0,0,0-17.57,2.29,70.84,70.84,0,0,0-14.83,5.48,68.23,68.23,0,0,0-12.38,8,75.08,75.08,0,0,0-10.21,9.88A92.64,92.64,0,0,0,477,57.73a115.21,115.21,0,0,0-6.56,11.68c-1.87,3.83-3.58,7.69-5.13,11.66-1.44,3.57-2.76,7.22-4.08,10.91a89.3,89.3,0,0,1-3.83,8.74c-3.68,7.5-11.11,8.15-16.91,6.55h0c-.47-.4-.93-.82-1.36-1.26a12.42,12.42,0,0,0,11.7-7.22A88.39,88.39,0,0,0,454.7,90c1.23-3.69,2.53-7.34,4.07-11s3.27-7.83,5.12-11.59a120.1,120.1,0,0,1,6.58-11.71,97.28,97.28,0,0,1,8.24-11.34,77.61,77.61,0,0,1,10.23-9.87,69.18,69.18,0,0,1,27.21-13.49,52.19,52.19,0,0,1,10-1.22c3.4-.11,6.89-.24,10.32-.09,1.87.07,3.7.23,5.55.43Z"/><path class="cls-60" d="M640.62,209.29a68.39,68.39,0,0,1-8.2,2.93c-8.15,2.38-16.59,3.36-24.87,5.18a312.54,312.54,0,0,1-31,5.52c-3,.35-6,.65-9,1L566,224l-2.84-22.15h.31l-.4-.61-4-5.8-41.07-.12-.34,1.08-1.73,6-7.15,25-.24.79c-5.61-.18-11.25-.57-16.93-1.24-11-1.29-22-2.06-33-3.31-5.07-.58-10.17-1.25-15.2-2-13-46.49-13.8-85.05-7.39-116a.73.73,0,0,1,0-.36c.15-.85.34-1.7.56-2.51a21.23,21.23,0,0,0,2.69,3.15,18,18,0,0,0,1.35,1.27h0c5.8,1.6,13.23,1,16.91-6.55a91.84,91.84,0,0,0,3.84-8.74c1.23-3.69,2.55-7.34,4.07-10.91,1.55-4,3.27-7.83,5.14-11.66A115.21,115.21,0,0,1,477,57.62a91.58,91.58,0,0,1,8.27-11.12,75,75,0,0,1,10.2-9.88,68,68,0,0,1,12.39-8,70.43,70.43,0,0,1,14.83-5.48,81.21,81.21,0,0,1,17.56-2.3l2.78-.09h0C600.61,48.72,642.94,108.27,640.62,209.29Z"/><path class="cls-71" d="M563.07,201.87l-37.32.35-.22.75-9.76,31.77c-1.91-1.8-7.31-6.66-7.31-6.66l7.39-25.8,1.73-6,.34-1.08,41,.27,4.05,5.8Z"/><path class="cls-72" d="M414.4,170.09a.91.91,0,0,0-.61-.38l-2.76-.47-.31,1.85,2.76.46a.86.86,0,0,0,.32,0,.91.91,0,0,0,.38-.16.88.88,0,0,0,.38-.61A.9.9,0,0,0,414.4,170.09Zm13.31,1.47a3.89,3.89,0,0,0-4.48,3.2,3.23,3.23,0,0,0,0,1,3.89,3.89,0,0,0,7.42,1.24,3.66,3.66,0,0,0,.28-.94A3.88,3.88,0,0,0,427.71,171.56Zm0,0a3.89,3.89,0,0,0-4.48,3.2,3.23,3.23,0,0,0,0,1,3.89,3.89,0,0,0,7.42,1.24,3.66,3.66,0,0,0,.28-.94A3.88,3.88,0,0,0,427.71,171.56Zm-13.31-1.47a.91.91,0,0,0-.61-.38l-2.76-.47-.31,1.85,2.76.46a.86.86,0,0,0,.32,0,.91.91,0,0,0,.38-.16.88.88,0,0,0,.38-.61A.9.9,0,0,0,414.4,170.09Zm0,0a.91.91,0,0,0-.61-.38l-2.76-.47-.31,1.85,2.76.46a.86.86,0,0,0,.32,0,.91.91,0,0,0,.38-.16.88.88,0,0,0,.38-.61A.9.9,0,0,0,414.4,170.09Zm13.31,1.47a3.89,3.89,0,0,0-4.48,3.2,3.23,3.23,0,0,0,0,1,3.89,3.89,0,0,0,7.42,1.24,3.66,3.66,0,0,0,.28-.94A3.88,3.88,0,0,0,427.71,171.56Zm0,0a3.89,3.89,0,0,0-4.48,3.2,3.23,3.23,0,0,0,0,1,3.89,3.89,0,0,0,7.42,1.24,3.66,3.66,0,0,0,.28-.94A3.88,3.88,0,0,0,427.71,171.56Zm-13.31-1.47a.91.91,0,0,0-.61-.38l-2.76-.47-.31,1.85,2.76.46a.86.86,0,0,0,.32,0,.91.91,0,0,0,.38-.16.88.88,0,0,0,.38-.61A.9.9,0,0,0,414.4,170.09Zm35.51-3.38a1.16,1.16,0,0,0,1.25-1l.13-.77a3.09,3.09,0,0,0-2.41-3.55L422.53,157a2.27,2.27,0,0,0-2,.64l-1.85,1.89a3.1,3.1,0,0,1-2.72.89l-10-1.66a3.1,3.1,0,0,1-2.28-1.73l-1.15-2.39a2.25,2.25,0,0,0-1.65-1.24l-11.47-1.92a3,3,0,0,0-3.41,2.43l-4.93,29.59a3,3,0,0,0,2.44,3.41L395,188.71a2.23,2.23,0,0,1,1.66,1.25l1.15,2.38a3.1,3.1,0,0,0,2.28,1.73l10,1.66a3.1,3.1,0,0,0,2.72-.89l1.85-1.89a2.26,2.26,0,0,1,2-.64L443,196.84a3,3,0,0,0,3.41-2.43l.26-1.52a.83.83,0,0,0-.63-1,12.79,12.79,0,0,1,3.9-25.22Zm-58.09-3.9a1.83,1.83,0,0,1,1.4-.32,1.88,1.88,0,0,1,1.22.75,3.09,3.09,0,0,1,.23.44h0l2.61,8.48,5.23-7.17h0a2,2,0,0,1,.36-.34,1.81,1.81,0,0,1,1.39-.32,1.89,1.89,0,0,1,1.54,2.15,1.87,1.87,0,0,1-.35.83h0a.1.1,0,0,1,0,.05h0l-7.38,10.13h0a1.91,1.91,0,0,1-.36.33,1.87,1.87,0,0,1-2.61-.44,1.82,1.82,0,0,1-.24-.43h0l-3.69-12h0l0-.06h0a1.78,1.78,0,0,1-.07-.89A1.86,1.86,0,0,1,391.82,162.81Zm24,13.55,1,2.37h0a1.93,1.93,0,0,1,.09,1,1.83,1.83,0,0,1-.36.83h0a1.78,1.78,0,0,1-.4.37,1.82,1.82,0,0,1-1.39.33,1.77,1.77,0,0,1-1.21-.77,1.56,1.56,0,0,1-.25-.43h0l-2.3-5.11-.85-.14-.61,3.68a1.89,1.89,0,0,1-2.15,1.54,1.87,1.87,0,0,1-1.54-2.16l1.85-11.05a1.74,1.74,0,0,1,.75-1.21,1.77,1.77,0,0,1,1.39-.32l4.61.76a4.69,4.69,0,0,1,3.84,5.37,4.32,4.32,0,0,1-.23.86,4.42,4.42,0,0,1-1.66,2.17,4.87,4.87,0,0,1-1.14.62Zm17.73,1,.61,1.12-.68,1.08-.48.79-1.43-.06-1.27.9-.4,1.37-2.14.49-1-1-1.54-.25-1.25.68-1.86-1.16.06-1.43-.9-1.26-1.38-.41-.21-.91-.28-1.24.94-.86.11-.1.26-1.54-.31-.56-.38-.69,1.16-1.86,1.44.06,1.26-.9.41-1.38,2.13-.5,1,1.06,1.54.25,1.26-.68L432,169.5l-.06,1.44.9,1.26,1.37.41.49,2.14-.58.53-.47.43-.25,1.53Zm-5.8-5.82a3.89,3.89,0,0,0-4.48,3.2,3.23,3.23,0,0,0,0,1,3.89,3.89,0,0,0,7.42,1.24,3.66,3.66,0,0,0,.28-.94A3.88,3.88,0,0,0,427.71,171.56Zm-13.92-1.85-2.76-.47-.31,1.85,2.76.46a.86.86,0,0,0,.32,0,.91.91,0,0,0,.38-.16.88.88,0,0,0,.38-.61.9.9,0,0,0-.16-.69A.91.91,0,0,0,413.79,169.71Zm.61.38a.91.91,0,0,0-.61-.38l-2.76-.47-.31,1.85,2.76.46a.86.86,0,0,0,.32,0,.91.91,0,0,0,.38-.16.88.88,0,0,0,.38-.61A.9.9,0,0,0,414.4,170.09Zm13.31,1.47a3.89,3.89,0,0,0-4.48,3.2,3.23,3.23,0,0,0,0,1,3.89,3.89,0,0,0,7.42,1.24,3.66,3.66,0,0,0,.28-.94A3.88,3.88,0,0,0,427.71,171.56Zm0,0a3.89,3.89,0,0,0-4.48,3.2,3.23,3.23,0,0,0,0,1,3.89,3.89,0,0,0,7.42,1.24,3.66,3.66,0,0,0,.28-.94A3.88,3.88,0,0,0,427.71,171.56Zm-13.31-1.47a.91.91,0,0,0-.61-.38l-2.76-.47-.31,1.85,2.76.46a.86.86,0,0,0,.32,0,.91.91,0,0,0,.38-.16.88.88,0,0,0,.38-.61A.9.9,0,0,0,414.4,170.09Zm0,0a.91.91,0,0,0-.61-.38l-2.76-.47-.31,1.85,2.76.46a.86.86,0,0,0,.32,0,.91.91,0,0,0,.38-.16.88.88,0,0,0,.38-.61A.9.9,0,0,0,414.4,170.09Zm0,0a.91.91,0,0,0-.61-.38l-2.76-.47-.31,1.85,2.76.46a.86.86,0,0,0,.32,0,.91.91,0,0,0,.38-.16.88.88,0,0,0,.38-.61A.9.9,0,0,0,414.4,170.09Z"/><path class="cls-72" d="M450.37,181.66a.85.85,0,0,1,.16.67.87.87,0,0,1-.37.58.86.86,0,0,1-.66.15l-2.66-.44.3-1.77,2.65.45A.84.84,0,0,1,450.37,181.66Z"/><path class="cls-72" d="M451.26,176.35a.88.88,0,0,1-.21,1.25.88.88,0,0,1-.67.15l-2.65-.44.29-1.77,2.65.45A.86.86,0,0,1,451.26,176.35Z"/><path class="cls-72" d="M466.28,179.65a3.6,3.6,0,0,0-6.5,2.4,3.53,3.53,0,0,0,.66,1.78,3.6,3.6,0,0,0,5,.83,3.42,3.42,0,0,0,1.19-1.46,3.51,3.51,0,0,0,.26-.87A3.42,3.42,0,0,0,466.28,179.65Zm0,0a3.6,3.6,0,0,0-6.5,2.4,3.53,3.53,0,0,0,.66,1.78,3.6,3.6,0,0,0,5,.83,3.42,3.42,0,0,0,1.19-1.46,3.51,3.51,0,0,0,.26-.87A3.42,3.42,0,0,0,466.28,179.65Zm23.28-11.3L457.64,163a3,3,0,0,0-3.5,2.49L453.9,167a1.66,1.66,0,0,1-1.66,1.4h-.09c-5-.37-9.46,1.67-11.71,5.66h0a11.69,11.69,0,0,0-1.32,3.81,13.48,13.48,0,0,0-.15,1.52c-.25,5.74,3.73,10.16,9.41,11.65a1.67,1.67,0,0,1,1.2,1.9l-.32,1.9a3,3,0,0,0,2.5,3.5l31.92,5.32a3,3,0,0,0,3.5-2.5l4.88-29.29A3,3,0,0,0,489.56,168.35ZM454,181.09a4.48,4.48,0,0,1,.06,1.83,5.17,5.17,0,0,1-.23.88,4.42,4.42,0,0,1-1.59,2,4.29,4.29,0,0,1-3.34.77l-4.42-.73a1.73,1.73,0,0,1-1.17-.73,1.69,1.69,0,0,1-.31-1.34l1.77-10.61,0-.18a1.71,1.71,0,0,1,.7-1,1.73,1.73,0,0,1,1.34-.31l4.42.73a4.35,4.35,0,0,1,2.91,1.83,4.28,4.28,0,0,1,.77,3.34,4.71,4.71,0,0,1-.22.86,4.37,4.37,0,0,1-1.09,1.65A3.81,3.81,0,0,1,454,181.09Zm16.23,2.71a6.83,6.83,0,0,1-2.71,3.78,7.17,7.17,0,0,1-10-1.67,7.21,7.21,0,0,1-1.24-5.35,7.18,7.18,0,1,1,14.16,2.36A8.63,8.63,0,0,1,470.24,183.8Zm9.9,1.72,1.73,3.85h0a1.79,1.79,0,0,1,.09.92,1.71,1.71,0,0,1-.38.84h0a1.87,1.87,0,0,1-.36.32,1.78,1.78,0,0,1-2.49-.42,1.53,1.53,0,0,1-.23-.41h0l-1.5-3.26L474.49,190h0a1.73,1.73,0,0,1-.35.31,1.69,1.69,0,0,1-1.34.32,1.79,1.79,0,0,1-1.17-.73,1.81,1.81,0,0,1-.22-.41h0a1.67,1.67,0,0,1-.08-.92,1.69,1.69,0,0,1,.37-.84h0l2.88-3.09.75-.79-2.2-4.75,0-.12a2.47,2.47,0,0,1,0-1,1.72,1.72,0,0,1,.72-1.17,1.69,1.69,0,0,1,1.34-.31,1.74,1.74,0,0,1,1.17.72,2.49,2.49,0,0,1,.22.43h0l1.5,3.3,2.48-2.64h0a1.62,1.62,0,0,1,.35-.34,1.76,1.76,0,0,1,1.34-.3,1.8,1.8,0,0,1,1.47,2.07,2.49,2.49,0,0,1-.33,1l-.07.09-3.61,3.79ZM464,178.2a3.61,3.61,0,0,0-4.17,3.85,3.53,3.53,0,0,0,.66,1.78,3.6,3.6,0,0,0,5,.83,3.42,3.42,0,0,0,1.19-1.46,3.51,3.51,0,0,0,.26-.87A3.58,3.58,0,0,0,464,178.2Z"/></g></svg>