<svg xmlns="http://www.w3.org/2000/svg" xmlns:xlink="http://www.w3.org/1999/xlink" viewBox="0 0 2304.47 982.46"><defs><style>.cls-1{isolation:isolate;}.cls-2{fill:#e8e8e8;}.cls-10,.cls-3{opacity:0.41;}.cls-4{fill:#00e7bf;stroke:#a8a8a8;stroke-width:4px;}.cls-12,.cls-13,.cls-14,.cls-15,.cls-16,.cls-20,.cls-21,.cls-23,.cls-25,.cls-27,.cls-28,.cls-32,.cls-36,.cls-4,.cls-47,.cls-48,.cls-49,.cls-50,.cls-51,.cls-52{stroke-miterlimit:10;}.cls-5{fill:#f2f2f2;}.cls-6{fill:#d3d3d3;}.cls-7{fill:#353535;stroke-width:0.95px;}.cls-22,.cls-24,.cls-32,.cls-7{stroke:#000;}.cls-22,.cls-24,.cls-7{stroke-linejoin:round;}.cls-15,.cls-16,.cls-8{fill:#4d4d4d;}.cls-9{fill:#b3b3b3;}.cls-10{fill:#f9f7f7;}.cls-11{fill:#d3161d;}.cls-12{fill:#77401b;}.cls-12,.cls-20,.cls-25,.cls-27,.cls-52{stroke:#070707;}.cls-12,.cls-13,.cls-20,.cls-21,.cls-36{stroke-width:1.3px;}.cls-13,.cls-17{fill:#f8c946;}.cls-13{stroke:#020202;}.cls-14,.cls-33{fill:#282828;}.cls-14,.cls-15,.cls-16{stroke:#151616;}.cls-14,.cls-15{stroke-width:1.06px;}.cls-16{stroke-width:3.9px;}.cls-18{fill:#683919;}.cls-19,.cls-27{fill:#945320;}.cls-20,.cls-28,.cls-32,.cls-36,.cls-48,.cls-52{fill:none;}.cls-21{fill:#adadad;stroke:#080000;}.cls-22{fill:#515051;stroke-width:1.3px;}.cls-23,.cls-26{fill:#161616;}.cls-23,.cls-28,.cls-36,.cls-47,.cls-48,.cls-49,.cls-50,.cls-51{stroke:#0a0a0a;}.cls-23,.cls-24,.cls-25,.cls-27,.cls-28,.cls-32{stroke-width:1.13px;}.cls-24{fill:#8e8a8b;}.cls-25{fill:#e2b647;}.cls-29{fill:#dddbd7;}.cls-30{fill:#232323;}.cls-31{fill:#3a3a3a;}.cls-34{fill:#7c7c7c;}.cls-35{fill:#666;}.cls-37{fill:#389cce;}.cls-38{fill:#7f1119;}.cls-39{fill:#5e0e18;}.cls-40{fill:#352f49;}.cls-41{fill:#e41e00;}.cls-42{fill:#fffe28;}.cls-43{fill:#18ff08;}.cls-44{fill:#dbdddd;}.cls-45{fill:#0fb0db;}.cls-46{fill:#303435;}.cls-47,.cls-48,.cls-49,.cls-50,.cls-51{stroke-width:0.51px;}.cls-47{fill:url(#radial-gradient);}.cls-49{fill:url(#radial-gradient-2);}.cls-50{fill:url(#radial-gradient-3);}.cls-51{fill:url(#radial-gradient-4);}.cls-52{stroke-width:0.65px;}</style><radialGradient id="radial-gradient" cx="371.52" cy="357.85" r="7.93" gradientTransform="matrix(0, -1, -1, 0, 1255.71, 771.36)" gradientUnits="userSpaceOnUse"><stop offset="0.2" stop-color="#666"/><stop offset="0.57" stop-color="#585858"/><stop offset="1" stop-color="#4d4d4d"/></radialGradient><radialGradient id="radial-gradient-2" cx="339.44" cy="436.26" r="7.93" gradientTransform="matrix(0, -1, -1, 0, 1347.26, 822.96)" xlink:href="#radial-gradient"/><radialGradient id="radial-gradient-3" cx="372.42" cy="434.3" r="7.93" gradientTransform="matrix(0, -1, -1, 0, 1313.66, 846.45)" xlink:href="#radial-gradient"/><radialGradient id="radial-gradient-4" cx="342.79" cy="359.2" r="7.93" gradientTransform="matrix(0, -1, -1, 0, 1284.69, 750.56)" xlink:href="#radial-gradient"/></defs><title>openspace</title><g id="Layer_3" data-name="Layer 3"><g class="cls-1"><polygon class="cls-2" points="0 422.45 1264.01 55.7 2304.47 615.71 1040.46 982.46 0 422.45 0 422.45"/><g class="cls-3"><polyline class="cls-4" points="266.16 345.22 490.74 471.04 729.41 604.76 1008.53 761.14 1279.66 913.05"/><polyline class="cls-4" points="512.89 273.63 734.27 397.67 972.95 531.38 972.96 531.38 1252.07 687.76 1526.4 841.46"/><polyline class="cls-4" points="773.83 197.92 991.83 320.06 1230.51 453.78 1509.63 610.16 1787.34 765.75"/><polyline class="cls-4" points="1020.56 126.34 1235.37 246.68 1474.05 380.4 1753.16 536.78 2034.07 694.16"/><polyline class="cls-4" points="234.01 548.39 490.74 471.04 734.27 397.67 991.83 320.06 1235.37 246.68 1481.22 172.61"/><polyline class="cls-4" points="478.95 680.23 729.41 604.76 972.95 531.38 972.96 531.38 1230.51 453.78 1474.05 380.4 1726.16 304.44"/><polyline class="cls-4" points="765.4 834.4 1008.53 761.14 1252.07 687.76 1509.63 610.16 1753.16 536.78 2012.59 458.61 2012.6 458.61"/></g></g><path class="cls-5" d="M1287,557.51c-.82-3.67-3.69-7.14-6.79-8.22-2.67-.93-6.09.16-7.3,2.61-1.94,3.91-.71,10.45,3.72,13.37,4.95,3.27,10.94,1.35,15-.52a139.23,139.23,0,0,1,17.7-6.36c10.83-3.35,20.79-8.38,31.58-11.78a143.67,143.67,0,0,0,35.45-16.72,14.72,14.72,0,0,0,4.27-3.6c4.85-6.68,6.65-20.61,4.36-30.52-1.15-5-4.85-8.27-8.72-11.36-1.19-1-1.63-.64-2.93-.92-1.82-.39-4-.21-5.44-1.94-1.22-1.51-1.81-3.9-3.38-4.6s-2.69,1.31-4.3,1.06c-.78-2.78-2-5.37-2.54-8.16-.92-4.77-2.71-9.13-7.36-10.53-6.06-1.83-10.51,6.61-12.11,11.75-3.53-2.11-8.5-1.93-11.64-.66-9.19,3.7-6,15.19,1,24.1,1.88,2.37,4.89,3.37,7.07,2.69s1.72-3.74,3.19-5.4,4.58-2.33,6.73-1.93c8.18,1.53,13.18,14.44,8.38,20.28a10.27,10.27,0,0,1-8.37,3.76c2,.89,3.4,3,5.44,3.83a5.13,5.13,0,0,1,1.59,1c6.68,6.5-7.81,9.16-9.46,9.46a30.44,30.44,0,0,1-14.64-1.13,72.66,72.66,0,0,1-15.67-7.54c-3-1.9-6.32.44-9,1.42-3,1.09-4.18,5.93-3.9,9.84.17,2.38.75,4.83.84,7.2a79.58,79.58,0,0,1-.31,11.61c-.29,2.16-1.43,4.08-3.28,4.36C1294.37,556.45,1289.88,556.74,1287,557.51Z"/><path class="cls-6" d="M1250.59,678.07S1284,649.65,1291.66,637s18.51-51.77,23.06-31.18c8.45,0,19.53-5.38,22.66-36.36s31.55-12.77,39.06-17.68,11.81-13.44,3.51-30.41-38-29.08-43.26-18.49c-2.27-8-3.23-17.47-24.65-19.51-9.38,6.71-12.19,12.88-12,21.23s-6.6-11-6.6-11-1.92-25.88,20.81-27.63c10.34.46,8.89-7.07,18.06,13.13,2.46,4.81,4,14,16.54,1.66s31.89-28.35,49.41-5.68c9.2-3.54,32.88-5,46.47,26.72,3,4.5,12.63,22.29,3.65,41.1-3,9.34,1.9,12,10.15-1,5-7.4,10.12-10.2,14.26-6.32,7.33.58,9.21-1.23,12.78-1.66s10.47,8.85,10.47,8.85,6.66,8.65,17.72-5.91c7-4.6,14.28-1.72,15.41-2.34s10.89-4.46,17.62-22c2.81-3.86,6.38-2,6.38-2s2.79-17.7,11.81-18.05c5.64,1.51,9.41,7.13,9.41,7.13s3.17-7.91,14.1,6.08c2.82-1.55,11.77,8.34-12.68,24.8,0,0-14.7,3.38-25.79,4.1s-64.57,37.13-66.44,38.94,3,16-18.93,28.13-32.09,20-38.85,21.42S1350,671,1344,662c3.8-5.84,11.82-11.13,15-16.74s-2.08-8.86-16.35-.22-26.27,16-35.69,6.59C1298.28,657.17,1240.29,693.75,1250.59,678.07Z"/><path class="cls-7" d="M707,525.18a81.41,81.41,0,0,1,6.43-12.27c10.33-16.33,42-65.64,66.12-93.9,14.18-16.64,23.17-28.23,30.5-36.72a85.39,85.39,0,0,1,31-22.69c8-3.41,17.07-7.2,29.62-8.45,16.37-1.64,32.32,2.92,47.41,9.47,37.62,16.33,58.37,23,65.36,27.54,6.11,7.27,28.92,50.38,23,79.77-4.24,21.19-13.79,49-34.63,67.21s-109.5,108.59-135.82,103.6c-30.72-5.82-106.62-31.6-124.52-54.19C695.48,564.27,698.7,545.11,707,525.18Z"/><path class="cls-8" d="M857.61,635.34c-37.9,0-50.33-9.23-57.48-18.27-14.57-18.37-12.1-35.21-3.9-54.83a78.6,78.6,0,0,1,6.08-11.59c9.33-14.76,41.66-65.11,65.74-93.39,7.84-9.2,14.22-17,19.35-23.29,4.23-5.17,7.88-9.63,11.14-13.41a81.16,81.16,0,0,1,29.37-21.48c7.16-3.07,16.06-6.89,28.28-8.12,2.5-.25,5-.37,7.58-.37a80.51,80.51,0,0,1,37.29,9.35c25.28,13.3,40,31.3,46.31,39l1.52,1.85.78.92c19.44,23,27.53,43.41,24.06,60.76-4,19.75-12.91,47-33.17,64.7-9.21,8.05-41.37,24.28-80,40.39-39.62,16.51-72.63,27.3-84.08,27.49l-5.71.12C866.47,635.25,862.06,635.34,857.61,635.34Z"/><path d="M963.77,386.07v9h0A76,76,0,0,1,999,403.93c24.47,12.88,38.8,30.38,44.92,37.86.59.72,1.11,1.36,1.56,1.89l.79.94a130.28,130.28,0,0,1,16.25,23.24c6.52,12.41,8.82,23.75,6.83,33.71-6.91,34.54-21.06,52.88-31.72,62.19-8.74,7.64-41.14,23.93-78.81,39.62-38.53,16.06-71.65,27-82.41,27.15l-5.74.11c-4.24.09-8.62.19-13,.19-20.19,0-42.38-2-54-16.56-6.22-7.85-9.32-15.82-9.46-24.36-.12-7.39,1.79-15.38,6.19-25.93a74.86,74.86,0,0,1,5.73-10.92c9.3-14.69,41.47-64.82,65.37-92.87,7.86-9.23,14.26-17.06,19.4-23.35,4.21-5.15,7.85-9.6,11.06-13.33a76.78,76.78,0,0,1,27.74-20.29c6.87-2.94,15.42-6.61,26.95-7.77,2.36-.23,4.75-.35,7.13-.35v-9m0,0a80.1,80.1,0,0,0-8,.4c-12.54,1.26-21.65,5-29.61,8.46a85.28,85.28,0,0,0-31,22.68c-7.33,8.5-16.32,20.08-30.5,36.73-24.07,28.25-55.8,77.56-66.13,93.89a83.78,83.78,0,0,0-6.43,12.27c-8.32,19.94-11.54,39.09,4.53,59.38,13.91,17.55,38.28,20,61,20,6.53,0,12.93-.2,18.91-.3,26.78-.45,146.18-50.8,167-69s30.39-46,34.63-67.22c5.88-29.38-19.7-58.19-25.81-65.47-5.18-6.16-20.76-27-49.19-41.92a84.78,84.78,0,0,0-39.39-9.88Z"/><ellipse class="cls-9" cx="1002.08" cy="500.97" rx="60.12" ry="48.04" transform="translate(255.65 1336.42) rotate(-74.78)"/><ellipse class="cls-9" cx="920.56" cy="567.42" rx="43.07" ry="34.41" transform="translate(131.41 1306.77) rotate(-74.78)"/><ellipse class="cls-9" cx="845.5" cy="582.12" rx="33.89" ry="27.08" transform="translate(61.87 1245.18) rotate(-74.78)"/><path class="cls-10" d="M779.58,419,806,402.77l-12.87,49.6S849,394,847.63,396.65,825,435.44,825,435.44l31.73-18.86-22,38.87,33-18.08L856.2,457l13.32-8.5-64.66,61.08L824.79,476,786.4,504.6l21.1-40.81-32.72,26.09,12.29-47.45-17.83,18.48L793,420.8l-27.29,29.11Z"/><polygon class="cls-10" points="911.72 358 876.46 365.16 909.6 365.8 880.95 375.46 931.04 370.82 920.11 377.03 954.7 375.79 911.72 358"/><ellipse class="cls-11" cx="1005.04" cy="501.77" rx="22.46" ry="16.34" transform="translate(257.06 1339.87) rotate(-74.78)"/><ellipse class="cls-11" cx="921.58" cy="569.47" rx="19.39" ry="14.1" transform="translate(332.01 1478.32) rotate(-88.74)"/><ellipse class="cls-11" cx="844.9" cy="584.35" rx="14.37" ry="10.45" transform="translate(242.13 1416.21) rotate(-88.74)"/><path class="cls-12" d="M818.16,215.89,933,294.25c20,12.74,31.72,25.13,20.77,45.14h0c-12.8,18.3-23.95,14.05-44.19,5.19L772.26,287.26A41.6,41.6,0,0,1,755.81,231h0C766.77,211,798.15,204.93,818.16,215.89Z"/><path class="cls-13" d="M827,221.73l120.9,79.74c20,12.73-3.18,59.18-23.42,50.33L787.16,294.48a41.59,41.59,0,0,1-16.45-56.3h0A41.59,41.59,0,0,1,827,221.73Z"/><path class="cls-14" d="M777.61,221.89s4.09-5.73,17.06-7.2c-5.67-17-25.24-55.81-32-56.79-4.62-.66-12.5,2.24-19.83,5.25-6.58,2.69-9.2,10.51-4.75,16.06,13.3,16.58,34.55,41.55,34.55,41.55Z"/><path class="cls-15" d="M795,214.66c-5.68-17-20.17-56.73-27-57.71-4.63-.66-12.84,1.54-20,4A10.21,10.21,0,0,0,743.33,177c13.29,16.58,32.61,45,34.36,45.47A21.39,21.39,0,0,1,795,214.66Z"/><path class="cls-14" d="M761.16,244.43s-.2-7,9.24-16.05c-14.8-10.1-53.85-29.18-59.86-25.85-4.08,2.27-8.59,9.35-12.62,16.17-3.61,6.13-1,13.94,5.94,15.67,20.61,5.16,52.64,12.19,52.64,12.19Z"/><path class="cls-15" d="M770.64,228.16c-14.8-10.1-50.37-33-56.38-29.65-4.08,2.27-9.28,9-13.51,15.22a10.21,10.21,0,0,0,5.94,15.66c20.62,5.17,53.21,16.14,54.86,15.43A21.39,21.39,0,0,1,770.64,228.16Z"/><path class="cls-14" d="M766,274.8s-4.82-5.12-3.72-18.14c-17.78,2.24-47.73,5.08-50,11.56-1.55,4.4-1.89,4.94-.39,12.72,1.36,7,8.16,10.25,14.83,7.8a177.39,177.39,0,0,1,37.21-9.25Z"/><path class="cls-15" d="M762.29,256.34c-17.78,2.24-47.64-.07-49.93,6.4-1.55,4.4-2.64,5.14-1.68,12.6.91,7.05,8.12,10.14,14.83,7.79,20-7,40.24-6.67,41-8.3A21.4,21.4,0,0,1,762.29,256.34Z"/><path class="cls-14" d="M813.82,213.46l-13.34,1.31s-3.62-2.61-4.35-3.25c-4.15-3.6-4.63-47.11,4.15-47.08s20.37,2.8,21.56,5.65c.15.35,2.69,3.62,2.69,3.62S815.53,215.17,813.82,213.46Z"/><path class="cls-15" d="M818.18,216.71a28.89,28.89,0,0,0-9-2.41,49.48,49.48,0,0,0-8.73.47c-5.47.47-4.63-47.11,4.16-47.08s19.25,4,20.44,6.82S820.13,218.66,818.18,216.71Z"/><ellipse class="cls-16" cx="808.48" cy="257.66" rx="14.65" ry="16.24" transform="translate(-21.74 82.24) rotate(-5.75)"/><path class="cls-17" d="M861,308s125-23,177.06-18.18c0,0,135.63,29.14,248.72,67.88-16.36,6.42-146.15,23.08-163.58,21.85S903.5,326.43,861,308Z"/><path class="cls-18" d="M1090.29,357.32s52.14-14.22,57.12-14.48-85.09-27.93-85.09-27.93-50.44,13-54.12,15S1090.29,357.32,1090.29,357.32Z"/><path class="cls-19" d="M1288.3,357.79s-41.08,193.34-68.39,237.65c-17.47,8.18-127.68,26-159.06,17.42,2.41-22.79,50.9-219.68,63.87-233.22C1138.86,373.7,1236.79,358.37,1288.3,357.79Z"/><path class="cls-11" d="M861,308s-30,96.36-45.9,168.74c-6.12,27.89,13.09,61.82,17.27,64.06,7.57,12,236.81,80,253,74.45,0,0-20.15-27.21-9.57-65.08,13.23-47.31,33.11-113.16,48.87-170.51C1117.35,372.88,904.1,313,861,308Z"/><path class="cls-20" d="M1128.63,311.05s154,42.06,159.67,46.74c0,0-30.72,133.53-34.21,141"/><path class="cls-20" d="M1046.42,292.24c-4.54-1-9.12-2.26-13.74-2.78-14.81-1.64-29.6-.33-44.39,1.1-18.61,1.8-37.16,4.17-55.68,6.71q-25,3.42-49.94,7.29Q871.84,306.23,861,308s-47.86,157.59-45.9,168.74c-1.18,12.1-4.92,26.67,14,60.25,7.36,6.76,7.68,15.23,181.31,63.06"/><path class="cls-7" d="M987.21,640.47a82.34,82.34,0,0,1,6.43-12.27c10.33-16.33,42.05-65.64,66.12-93.9,14.18-16.65,23.18-28.23,30.5-36.72a85.48,85.48,0,0,1,31-22.69c8-3.41,17.07-7.2,29.62-8.45,16.37-1.64,32.32,2.92,47.41,9.47,37.62,16.33,58.37,23,65.37,27.54,6.1,7.27,28.91,50.38,23,79.76-4.24,21.2-13.79,49-34.62,67.22S1142.57,759,1116.26,754c-30.73-5.83-106.62-31.6-124.53-54.19C975.66,679.56,978.88,660.4,987.21,640.47Z"/><path class="cls-8" d="M1137.79,750.63c-37.89,0-50.32-9.23-57.48-18.27-14.57-18.38-12.09-35.21-3.9-54.83a78.6,78.6,0,0,1,6.08-11.59c9.33-14.76,41.66-65.11,65.75-93.39,7.83-9.19,14.21-17,19.34-23.28,4.23-5.17,7.88-9.64,11.14-13.42a81.39,81.39,0,0,1,29.37-21.49c7.16-3.06,16.07-6.88,28.29-8.11,2.5-.25,5-.38,7.57-.38a80.49,80.49,0,0,1,37.29,9.36c25.29,13.3,40,31.3,46.31,39l1.52,1.85.79.92c19.43,23,27.53,43.41,24.06,60.76-4,19.74-12.91,47-33.17,64.7-9.21,8-41.38,24.28-80,40.39-39.62,16.51-72.62,27.3-84.08,27.49l-5.71.12C1146.65,750.54,1142.24,750.63,1137.79,750.63Z"/><path d="M1244,501.36v9h0a76,76,0,0,1,35.19,8.83c24.47,12.88,38.8,30.38,44.92,37.86.59.72,1.11,1.36,1.56,1.89l.79.94a129.24,129.24,0,0,1,16.25,23.24c6.52,12.41,8.82,23.75,6.83,33.71-6.91,34.54-21.06,52.88-31.71,62.19-8.74,7.64-41.15,23.93-78.81,39.62-38.54,16.06-71.66,27-82.42,27.15l-5.74.11c-4.23.09-8.61.19-13,.19-20.19,0-42.39-2-54-16.56-6.23-7.85-9.32-15.82-9.46-24.36-.13-7.39,1.78-15.38,6.19-25.93a73.4,73.4,0,0,1,5.73-10.92c9.29-14.69,41.46-64.82,65.36-92.87,7.87-9.23,14.26-17.06,19.41-23.35,4.21-5.15,7.84-9.6,11.06-13.33a76.66,76.66,0,0,1,27.73-20.29c6.87-2.94,15.43-6.61,27-7.77,2.35-.23,4.74-.35,7.12-.35v-9m0,0a79.75,79.75,0,0,0-8,.4c-12.55,1.26-21.66,5-29.62,8.46a85.36,85.36,0,0,0-31,22.68c-7.33,8.5-16.32,20.08-30.5,36.72-24.07,28.26-55.79,77.57-66.12,93.9a81.89,81.89,0,0,0-6.43,12.27c-8.33,19.94-11.55,39.09,4.52,59.38,13.91,17.55,38.28,20,61,20,6.53,0,12.92-.2,18.9-.29,26.78-.45,146.18-50.8,167-69s30.38-46,34.62-67.22c5.88-29.38-19.7-58.19-25.81-65.47-5.17-6.16-20.76-27-49.19-41.92a84.75,84.75,0,0,0-39.39-9.88Z"/><ellipse class="cls-9" cx="1282.26" cy="616.26" rx="60.12" ry="48.04" transform="translate(351.05 1691.81) rotate(-74.78)"/><ellipse class="cls-9" cx="1200.74" cy="682.7" rx="43.07" ry="34.41" transform="translate(226.81 1662.15) rotate(-74.78)"/><ellipse class="cls-9" cx="1125.68" cy="697.41" rx="33.89" ry="27.08" transform="translate(157.26 1600.57) rotate(-74.78)"/><path class="cls-10" d="M1059.76,534.3l26.4-16.24-12.87,49.6s55.88-58.42,54.52-55.72-22.59,38.79-22.59,38.79l31.72-18.86-22,38.87,33-18.08-11.6,19.67,13.32-8.5L1085,624.91l19.93-33.6-38.39,28.58,21.1-40.81L1055,605.17l12.28-47.45-17.83,18.48,23.71-40.11-27.28,29.11Z"/><polygon class="cls-10" points="1191.91 473.29 1156.64 480.45 1189.79 481.09 1161.13 490.75 1211.22 486.11 1200.29 492.32 1234.88 491.08 1191.91 473.29"/><ellipse class="cls-11" cx="1285.22" cy="617.06" rx="22.46" ry="16.34" transform="translate(352.45 1695.26) rotate(-74.78)"/><ellipse class="cls-11" cx="1201.77" cy="684.76" rx="19.39" ry="14.1" transform="translate(490.78 1871.2) rotate(-88.74)"/><ellipse class="cls-11" cx="1125.08" cy="699.64" rx="14.37" ry="10.45" transform="translate(400.9 1809.08) rotate(-88.74)"/><path class="cls-21" d="M1119.38,648.54s11.22-13,32,.23c6.59-8.59,21.85-32.52,61.41-19.19.32-9.46-5.6-52.27,34.17-82.66-10.47-8.3-16.88-13.68-36.61,1S1118.91,643.57,1119.38,648.54Z"/><path class="cls-22" d="M1142,265.42l-30.64,67.82L1051.66,307c-9.94-4.48-11.14-23.3-2.69-42s23.38-30.27,33.32-25.78c3.34,1.51,5.69,4.64,7,8.84Z"/><path class="cls-23" d="M884.17,135.34s15.36,25.62,52,48.12c16.29,10,39.79,18.26,62.89,25.31,75.09,22.93,123.35.26,123.35.26s17.37-51,23.86-67.79-2-58.37-2-58.37Z"/><path class="cls-23" d="M1335.82,342.11s-24.46,18.07-68.92-4.42-102.55-69.91-102.55-69.91L1147.88,194Z"/><path class="cls-11" d="M1147.23,96.32l23.85,10.43-34.82,75.64-22.58-10.2S1139.11,123.58,1147.23,96.32Z"/><polygon class="cls-24" points="1113.68 172.19 1119.41 199.07 1135.53 206.35 1136.26 182.39 1113.68 172.19"/><polygon class="cls-25" points="1096.02 164.22 1157.89 192.16 1106.49 294.77 1048.97 264.98 1096.02 164.22"/><path class="cls-26" d="M1114.06,171.58l-7.53,12.32a2.48,2.48,0,0,1-1.6,1.15l-21.21,4.55a2.45,2.45,0,0,1-2.87-3.08l1.1-3.87a2.47,2.47,0,0,1,1.49-1.61l27.64-13A2.45,2.45,0,0,1,1114.06,171.58Z"/><polygon class="cls-27" points="1164.35 267.78 1147.37 289.72 1106.49 294.77 1157.89 192.16 1164.35 267.78"/><path class="cls-23" d="M1136.18,184.63s-4.64,13-2.91,16.19,29.4,33.6,33.25,36,7.32-7.38,7.32-7.38Z"/><path class="cls-28" d="M1136.18,184.63s-5.57,15.74-2.15,17.28c3.17,3.85,27.53,30.85,27.53,30.85"/><path class="cls-29" d="M1326.88,338.5a8.85,8.85,0,0,1-2.39-.34c-21.71-6.22-63.73-34.31-109.66-73.32-45.59-38.72-71.8-68.29-73.72-75.34,3-14.72,22.39-57.63,37.64-82.94a8.86,8.86,0,0,1,10.67-3.75c92.29,34.16,171.78,87.74,193.95,103.35a9,9,0,0,1,3.67,8.72c-2.42,16.16-12.39,60.18-52.81,119.7a8.9,8.9,0,0,1-7.35,3.92Z"/><path class="cls-30" d="M1186.36,108.77a2.45,2.45,0,0,1,.8.14c91.55,33.89,170.46,87.07,192.46,102.57a2.49,2.49,0,0,1,1,2.44c-7,47.19-38.54,97.55-51.75,117a2.44,2.44,0,0,1-2,1.06,2.08,2.08,0,0,1-.6-.09c-20.37-5.83-60.49-32.61-104.7-69.88-19.09-16.09-37.27-32.78-51.21-47-15.6-15.92-20.78-23.48-22.4-26.29,3.84-14.69,21.24-53.72,36.35-78.81a2.39,2.39,0,0,1,2-1.15m0-13a15.4,15.4,0,0,0-13.18,7.45c-15.24,25.3-35.82,70.33-38.58,85.72-3,16.52,134.63,140.19,188.1,155.49a15,15,0,0,0,4.18.59,15.4,15.4,0,0,0,12.73-6.76c13.11-19.31,46.38-72.23,53.86-122.4a15.49,15.49,0,0,0-6.35-15c-24-16.9-103-69.91-195.44-104.13a15.18,15.18,0,0,0-5.32-1Z"/><polygon class="cls-25" points="1043.34 285.74 1023.13 329.82 1089.41 352.17 1102.55 314.91 1043.34 285.74"/><polygon class="cls-27" points="1138.89 317.76 1134.53 339.21 1089.41 352.17 1102.55 314.91 1138.89 317.76"/><ellipse class="cls-31" cx="1126.65" cy="299.33" rx="37.21" ry="19.75" transform="translate(390.08 1202.89) rotate(-65.69)"/><path class="cls-32" d="M1114.14,170.13s-7.38,14.52-9.21,14.92l-21.21,4.55"/><path class="cls-29" d="M1076.73,174.71c-50.48,0-149.32-15.71-182.42-37.41a8.5,8.5,0,0,1-3.52-9.35c18.65-69.42,45.43-105.68,56.08-118a8.72,8.72,0,0,1,6.61-3.08,8.43,8.43,0,0,1,2.06.26c57.74,14.47,117.9,38.86,178.81,72.49a8.56,8.56,0,0,1,4,10.15c-9,27.54-29.19,71.07-38.21,82.63C1099.12,172.84,1094.11,174.71,1076.73,174.71Z"/><path class="cls-30" d="M953.48,13.66a1.75,1.75,0,0,1,.4.05c57.17,14.33,116.78,38.5,177.17,71.85a1.75,1.75,0,0,1,.79,2c-9.15,27.87-27.36,66.59-35.91,78.93-2.25.51-7.69,1.35-19.2,1.35-49.66,0-146.56-15.24-178.68-36.29a1.7,1.7,0,0,1-.66-1.87c6.09-22.67,23.61-79.3,54.66-115.36a1.92,1.92,0,0,1,1.43-.7m0-13.66a15.57,15.57,0,0,0-11.79,5.45c-33.1,38.43-51.45,98.19-57.5,120.73A15.36,15.36,0,0,0,890.56,143c35.6,23.33,136.19,38.52,186.17,38.52,15.33,0,25.9-1.43,28.38-4.49,9.85-12.14,30.51-57.13,39.71-85.2a15.39,15.39,0,0,0-7.17-18.25c-86.31-47.66-152-66-180.45-73.14A15.22,15.22,0,0,0,953.48,0Z"/><path class="cls-33" d="M1223.68,239.6a43.47,43.47,0,0,1-18.75-4.2c-23.38-11.09-32.6-40.8-20.55-66.22,8.7-18.34,26.57-30.19,45.53-30.19a43.26,43.26,0,0,1,18.74,4.21,44.79,44.79,0,0,1,23.52,27.52,52.93,52.93,0,0,1-3,38.69C1260.5,227.75,1242.63,239.6,1223.68,239.6Z"/><path class="cls-34" d="M1229.91,133.46v11.06a38,38,0,0,1,16.37,3.67,39.4,39.4,0,0,1,20.62,24.19,47.51,47.51,0,0,1-2.69,34.66c-7.79,16.42-23.7,27-40.53,27a37.89,37.89,0,0,1-16.38-3.67c-20.63-9.78-28.67-36.18-17.92-58.85,7.79-16.42,23.7-27,40.53-27V133.46m0,0c-20.44,0-40.61,12.45-50.53,33.36-13.38,28.22-3,61.16,23.18,73.57a49.09,49.09,0,0,0,21.12,4.74c20.43,0,40.61-12.45,50.52-33.35,13.38-28.22,3-61.17-23.18-73.58a49,49,0,0,0-21.11-4.74Z"/><path class="cls-33" d="M1042.32,157.9a43.39,43.39,0,0,1-18.74-4.2C1000.19,142.61,991,112.9,1003,87.48c8.69-18.34,26.56-30.19,45.52-30.19a43.33,43.33,0,0,1,18.75,4.21c23.38,11.09,32.6,40.79,20.55,66.21C1079.15,146.05,1061.28,157.9,1042.32,157.9Z"/><path class="cls-34" d="M1048.55,51.76V62.82a38,38,0,0,1,16.38,3.67,39.36,39.36,0,0,1,20.61,24.19,47.46,47.46,0,0,1-2.69,34.66c-7.79,16.42-23.7,27-40.53,27A37.88,37.88,0,0,1,1026,148.7c-20.63-9.78-28.67-36.18-17.93-58.85,7.79-16.42,23.7-27,40.53-27V51.76m0,0c-20.43,0-40.61,12.45-50.52,33.36-13.38,28.22-3,61.16,23.18,73.57a49,49,0,0,0,21.11,4.74c20.44,0,40.61-12.45,50.52-33.35,13.39-28.22,3-61.17-23.17-73.58a49.09,49.09,0,0,0-21.12-4.74Z"/><ellipse class="cls-35" cx="1127.14" cy="301.79" rx="18.57" ry="8.58" transform="translate(371.52 1190.93) rotate(-64.63)"/><line class="cls-36" x1="1146.9" y1="96.78" x2="1171.08" y2="106.75"/><path class="cls-37" d="M1060.49,117.63c-4.33-16.64-18.79-27.41-33.35-26.46-2.61.11-4.79-.19-4.84-1.22,0-.39,0-.79,0-1.19-.06-1,2.66-3.15,6.07-4.09,18.35-4.94,36.59,3.07,43.64,17.58,1.33,2.62-.2,7.81-2.85,11.23l-2.86,3.71C1063.64,120.62,1061.25,120.7,1060.49,117.63Z"/><path class="cls-37" d="M1205.59,186.14c15.37-7.73,33-4,41.89,7.61,1.64,2,3.29,3.47,4.11,2.84l.89-.78c.81-.63.62-4.08-.92-7.26-8.4-17.06-26.45-25.48-42-21.2-2.85.72-5.74,5.29-6.56,9.53l-.91,4.61C1201.26,185.74,1202.78,187.59,1205.59,186.14Z"/><path class="cls-12" d="M1368.11,341.43,1233.24,375.2c-23.13,5.05-38.46,12.61-35.1,35.17h0c5.68,21.6,17.6,21.46,39.66,20.16l148.68-6.26a41.6,41.6,0,0,0,34.92-47.13h0C1418,354.58,1390.68,338.07,1368.11,341.43Z"/><path class="cls-13" d="M1357.79,343.84l-141,33c-23.13,5.05-17.5,56.63,4.55,55.33L1370,425.89a41.6,41.6,0,0,0,34.92-47.13h0A41.59,41.59,0,0,0,1357.79,343.84Z"/><path class="cls-14" d="M1404.09,361.08s-1.86-6.78-13.53-12.65c11.21-14,43-43.63,49.71-42.19,4.57,1,11,6.42,16.79,11.78,5.25,4.8,5,13.05-1.1,16.71-18.21,11-46.79,27-46.79,27Z"/><path class="cls-15" d="M1390.27,348.29c11.21-14,38.55-46.25,45.27-44.82,4.57,1,11.51,5.89,17.36,10.61a10.21,10.21,0,0,1-1.11,16.72c-18.21,10.95-46.17,31-48,30.76A21.35,21.35,0,0,0,1390.27,348.29Z"/><path class="cls-14" d="M1411.71,387.93s2.63-6.52-3.11-18.26c17.38-4.35,60.63-8.74,65.1-3.53,3,3.54,4.84,11.73,6.25,19.53,1.27,7-3.92,13.41-11,12.65-21.13-2.29-53.61-6.78-53.61-6.78Z"/><path class="cls-15" d="M1408.46,369.38c17.38-4.35,58.67-13.51,63.14-8.31,3.05,3.55,5.61,11.65,7.42,18.95a10.22,10.22,0,0,1-11,12.65c-21.12-2.29-55.5-3.28-56.8-4.52A21.43,21.43,0,0,0,1408.46,369.38Z"/><path class="cls-14" d="M1396.69,414.76s6.29-3.15,9.77-15.74c15.9,8.26,43,21.29,42.92,28.15-.06,4.67.07,5.3-4,12.07-3.68,6.09-11.19,6.8-16.61,2.19A177.16,177.16,0,0,0,1397,419.87Z"/><path class="cls-15" d="M1406.54,398.71c15.9,8.25,44.72,16.42,44.62,23.28-.06,4.67.71,5.74-2.78,12.4-3.29,6.3-11.12,6.71-16.61,2.19-16.35-13.48-35.44-20.19-35.6-22A21.41,21.41,0,0,0,1406.54,398.71Z"/><path class="cls-14" d="M1373,340.65l12.06,5.85s4.3-1.2,5.21-1.54c5.14-1.95,20.64-42.6,12.39-45.62s-20.08-4.42-22.18-2.16c-.26.28-3.77,2.47-3.77,2.47S1370.83,341.66,1373,340.65Z"/><path class="cls-15" d="M1367.82,342.19a28.41,28.41,0,0,1,9.24.85,48.37,48.37,0,0,1,8,3.46c5,2.33,20.64-42.6,12.39-45.61s-19.44-2.94-21.54-.68S1365.31,343.34,1367.82,342.19Z"/><ellipse class="cls-16" cx="1362.75" cy="383.96" rx="16.24" ry="14.65" transform="translate(420.41 1440.61) rotate(-64.01)"/><path class="cls-38" d="M1052,421.52,901.13,376.67a11.72,11.72,0,0,0-14.73,8.53l-21.52,90.88a11.7,11.7,0,0,0,8,13.92l151,44.91a11.71,11.71,0,0,0,14.74-8.55l21.35-90.94A11.7,11.7,0,0,0,1052,421.52Z"/><path class="cls-39" d="M1053.24,426.57,902.14,381.3a9.12,9.12,0,0,0-11.48,6.63L869,479.29a9.11,9.11,0,0,0,6.24,10.82l151,45.48a9.11,9.11,0,0,0,11.49-6.63l21.72-91.57A9.11,9.11,0,0,0,1053.24,426.57Z"/><path class="cls-40" d="M943.54,443.17l93.21,27a5.88,5.88,0,0,0,7.21-4.07l6.16-26.93a5.88,5.88,0,0,0-4.07-7.21l-93.21-27a5.86,5.86,0,0,0-7.21,4.07L939.47,436A5.89,5.89,0,0,0,943.54,443.17Z"/><ellipse class="cls-41" cx="1025.83" cy="446.76" rx="14.17" ry="11.34" transform="translate(333.14 1325.45) rotate(-75.28)"/><ellipse class="cls-42" cx="993.03" cy="436.97" rx="14.17" ry="11.34" transform="translate(318.14 1286.42) rotate(-75.28)"/><ellipse class="cls-43" cx="960.64" cy="428.34" rx="14.17" ry="11.34" transform="translate(302.32 1248.66) rotate(-75.28)"/><path class="cls-44" d="M956.1,471.42,1029.4,493a6.12,6.12,0,0,0,7.5-4.25h0a6.12,6.12,0,0,0-4.26-7.5l-73.3-21.58a6.11,6.11,0,0,0-7.49,4.25h0A6.11,6.11,0,0,0,956.1,471.42Z"/><path class="cls-45" d="M988.35,519.25l32.6,9.4a6.11,6.11,0,0,0,7.5-4.25h0a6.12,6.12,0,0,0-4.25-7.5l-32.61-9.4a6.12,6.12,0,0,0-7.5,4.26h0A6.1,6.1,0,0,0,988.35,519.25Z"/><path class="cls-45" d="M992.29,502.61l32.61,9.4a6.11,6.11,0,0,0,7.49-4.25h0a6.12,6.12,0,0,0-4.25-7.5l-32.61-9.4a6.13,6.13,0,0,0-7.5,4.26h0A6.11,6.11,0,0,0,992.29,502.61Z"/><polygon class="cls-46" points="936.67 401.12 892.26 387.54 870.28 480.35 915.28 493.52 936.67 401.12"/><ellipse class="cls-47" cx="897.22" cy="400.13" rx="5.87" ry="5.07" transform="translate(301.07 1180.97) rotate(-76.67)"/><path class="cls-48" d="M898.57,394.42s-3.85,6.54-2.39,11.5"/><path class="cls-48" d="M902.15,401.3s-6.68,0-9.86-2.34"/><ellipse class="cls-49" cx="910.36" cy="483.82" rx="5.87" ry="5.07" transform="translate(229.75 1258.16) rotate(-76.67)"/><path class="cls-48" d="M911.72,478.11s-3.85,6.54-2.39,11.49"/><path class="cls-48" d="M915.29,485s-6.67,0-9.86-2.33"/><ellipse class="cls-50" cx="878.72" cy="474.31" rx="5.87" ry="5.07" transform="translate(214.65 1220.05) rotate(-76.67)"/><path class="cls-48" d="M880.07,468.61s-3.85,6.53-2.39,11.49"/><path class="cls-48" d="M883.65,475.48s-6.68,0-9.86-2.33"/><ellipse class="cls-51" cx="924.86" cy="408.06" rx="5.87" ry="5.07" transform="translate(314.63 1213.97) rotate(-76.67)"/><path class="cls-48" d="M926.21,402.35s-3.85,6.54-2.39,11.49"/><path class="cls-48" d="M929.79,409.22s-6.67,0-9.86-2.33"/><path class="cls-52" d="M1036.9,488.75s-11.89-7.1-24.89-5.9-11-9.69-16.61-10.87-8.85,6.68-16.21,4.06-4.19-4.93-7.79-5.77-4.49,2.93-7.78,1.68-2.23-12.09-4.28-12.28"/></g></svg>