<svg xmlns="http://www.w3.org/2000/svg" xmlns:xlink="http://www.w3.org/1999/xlink" viewBox="0 0 800 800"><defs><style>.cls-1,.cls-14,.cls-49{fill:#f8c946;}.cls-1{stroke:#020202;}.cls-1,.cls-12,.cls-13,.cls-18,.cls-22,.cls-23,.cls-26,.cls-28,.cls-32,.cls-43,.cls-44,.cls-45,.cls-46,.cls-47,.cls-48,.cls-49,.cls-52,.cls-54,.cls-57,.cls-59,.cls-61,.cls-63,.cls-64{stroke-miterlimit:10;}.cls-1,.cls-32,.cls-52{stroke-width:1.07px;}.cls-2{isolation:isolate;}.cls-3{fill:#1b3649;}.cls-4{fill:#0a1c28;}.cls-5{fill:#316284;}.cls-6{fill:#212121;}.cls-7{fill:#2a5375;}.cls-8{fill:#353535;stroke-width:0.78px;}.cls-17,.cls-19,.cls-28,.cls-49,.cls-53,.cls-58,.cls-60,.cls-62,.cls-8{stroke:#000;}.cls-17,.cls-19,.cls-20,.cls-53,.cls-58,.cls-60,.cls-62,.cls-8{stroke-linejoin:round;}.cls-54,.cls-59,.cls-61,.cls-63,.cls-64,.cls-9{fill:#4d4d4d;}.cls-10{fill:#b3b3b3;}.cls-11{fill:#d3161d;}.cls-12{fill:#adadad;stroke:#080000;stroke-width:1.06px;}.cls-13,.cls-23,.cls-28,.cls-32,.cls-44,.cls-48,.cls-57{fill:none;}.cls-13,.cls-20,.cls-22,.cls-26,.cls-32,.cls-48,.cls-52{stroke:#070707;}.cls-13{stroke-width:1.63px;}.cls-15{fill:#683919;}.cls-16,.cls-22{fill:#945320;}.cls-17{fill:#515051;stroke-width:1.07px;}.cls-18,.cls-21{fill:#161616;}.cls-18,.cls-23,.cls-43,.cls-44,.cls-45,.cls-46,.cls-47{stroke:#0a0a0a;}.cls-18,.cls-19,.cls-22,.cls-23,.cls-26,.cls-28{stroke-width:0.93px;}.cls-19{fill:#8e8a8b;}.cls-20,.cls-26{fill:#e2b647;}.cls-20{stroke-width:0.93px;}.cls-24{fill:#dddbd7;}.cls-25{fill:#232323;}.cls-27{fill:#3a3a3a;}.cls-29,.cls-53,.cls-58,.cls-60,.cls-62{fill:#282828;}.cls-30{fill:#7c7c7c;}.cls-31{fill:#666;}.cls-33{fill:#389cce;}.cls-34{fill:#7f1119;}.cls-35{fill:#5e0e18;}.cls-36{fill:#352f49;}.cls-37{fill:#e41e00;}.cls-38{fill:#fffe28;}.cls-39{fill:#18ff08;}.cls-40{fill:#dbdddd;}.cls-41{fill:#0fb0db;}.cls-42{fill:#303435;}.cls-43,.cls-44,.cls-45,.cls-46,.cls-47{stroke-width:0.42px;}.cls-43{fill:url(#radial-gradient);}.cls-45{fill:url(#radial-gradient-2);}.cls-46{fill:url(#radial-gradient-3);}.cls-47{fill:url(#radial-gradient-4);}.cls-48,.cls-49{stroke-width:0.53px;}.cls-50{fill:#dbcc1b;}.cls-51{fill:#eaa12a;}.cls-52{fill:#77401b;}.cls-53{stroke-width:1.38px;}.cls-54,.cls-59,.cls-61,.cls-63,.cls-64{stroke:#151616;}.cls-54{stroke-width:0.87px;}.cls-55{fill:#9b7e54;}.cls-56{fill:#d3ac6e;}.cls-57{stroke:#050505;stroke-width:0.75px;}.cls-58{stroke-width:1.11px;}.cls-59{stroke-width:0.71px;}.cls-60{stroke-width:1.32px;}.cls-61{stroke-width:0.84px;}.cls-62{stroke-width:1.23px;}.cls-63{stroke-width:0.78px;}.cls-64{stroke-width:2.1px;}</style><radialGradient id="radial-gradient" cx="-46.16" cy="476.31" r="6.5" gradientTransform="matrix(-1, 0, 0, 1, 320.35, 55.47)" gradientUnits="userSpaceOnUse"><stop offset="0.2" stop-color="#666"/><stop offset="0.57" stop-color="#585858"/><stop offset="1" stop-color="#4d4d4d"/></radialGradient><radialGradient id="radial-gradient-2" cx="-72.48" cy="540.65" r="6.5" gradientTransform="matrix(-1, 0, 0, 1, 321.34, 55.05)" xlink:href="#radial-gradient"/><radialGradient id="radial-gradient-3" cx="-45.41" cy="539.05" r="6.5" gradientTransform="matrix(-1, 0, 0, 1, 321.32, 55.47)" xlink:href="#radial-gradient"/><radialGradient id="radial-gradient-4" cx="-69.73" cy="477.41" r="6.5" gradientTransform="matrix(-1, 0, 0, 1, 320.36, 55.1)" xlink:href="#radial-gradient"/></defs><title>teaching_2</title><g id="Layer_2" data-name="Layer 2"><polygon class="cls-1" points="268.16 490.49 341.9 467.95 360.26 523.28 274.23 506.25 268.16 490.49"/><g class="cls-2"><polygon class="cls-3" points="546.06 228 679.66 169.77 457.66 73.04 324.06 131.26 546.06 228"/><polygon class="cls-4" points="324.99 127.34 324.06 131.26 457.66 73.04 458.59 69.11 324.99 127.34"/><polygon class="cls-4" points="458.59 69.11 457.66 73.04 679.66 169.77 680.6 165.85 458.59 69.11"/></g><g class="cls-2"><path class="cls-5" d="M385.42,244.92a34,34,0,0,0,1.39,8.56,14,14,0,0,1,.3-8.89c2-5.47,7.58-10.45,16.44-14.46a99.44,99.44,0,0,1,21.91-6.58c21.92-4.23,48.56-4.17,73.92-.65l3.09.44c24.21,3.66,47,10.46,63.1,19.69,16.77,9.61,23.07,20,19.69,29.11a17.58,17.58,0,0,1-.77,1.73c.11-.2.22-.4.3-.58.27-.55.62-1.28.86-1.84a34.15,34.15,0,0,0,1.32-3.67,60.77,60.77,0,0,0,1.95-9.54c.24-1.78.58-4.22,1.19-10.33a96.37,96.37,0,0,0,.44-15.23,74.55,74.55,0,0,1,.07-7.71s.23-4.06.75-8.18a43.49,43.49,0,0,1,1.17-5.89c.32-1.28.59-2.43.84-3.65.3-1.42.58-2.94.89-4.93.29-1.84.83-5.64,1.23-10.49.28-3.28.42-6.45.46-8.16,0-2.17,0-3.07,0-4.23s-.13-2.81-.13-2.82c-.15-1.65-.15-1.65-.34-2.94a15.63,15.63,0,0,0-.35-1.81c-.24-1-.61-2.2-.94-3.11-.25-.67-.66-1.54-1-2.18-2.89-5.62-9.05-11.38-18.63-16.88-16.76-9.6-40.8-16.58-66.14-20.1l-1.17-.16c-25-3.36-51.12-3.37-72.69.8-11.11,2.14-19.94,5.19-26.38,8.85a31.49,31.49,0,0,0-9.24,7.49,25.33,25.33,0,0,0-1.64,2.35c-.21.39-.53.89-.72,1.3-.39.81-.9,1.9-1.21,2.74-1.37,3.64-2.51,9.22-3.4,16.6-.22,1.77-.34,3.11-.4,3.68-.13,1.28-.41,4.38-.56,8.16,0,.53-.05,1.06-.06,1.61-.11,3.25,0,5.91.1,7.18.1,1.92.13,2.66.1,4.09,0,.31-.06,2-.3,4.5A87,87,0,0,1,388.82,212c-.82,3.5-1.24,5.35-1.8,9.13-.17,1.2-.4,3.07-.46,3.73-.33,3-.55,5.62-.65,6.89A107.73,107.73,0,0,0,385.42,244.92Z"/><path class="cls-6" d="M546.93,292.74c21.92-4.24,35-12,38.35-21s-2.92-19.49-19.69-29.1-40.83-16.6-66.18-20.13-52-3.59-73.93.65-35,12-38.35,21,2.92,19.49,19.68,29.11,40.84,16.6,66.19,20.12S525,297,546.93,292.74Z"/></g><path class="cls-7" d="M385.42,244.92a34,34,0,0,0,1.39,8.56,14,14,0,0,1,.3-8.89c2-5.47,7.58-10.45,16.44-14.46a99.44,99.44,0,0,1,21.91-6.58c21.92-4.23,48.56-4.17,73.92-.65l3.09.44c24.21,3.66,47,10.46,63.1,19.69,16.77,9.61,23.07,20,19.69,29.11a17.58,17.58,0,0,1-.77,1.73c.11-.2.22-.4.3-.58.27-.55.62-1.28.86-1.84a34.15,34.15,0,0,0,1.32-3.67,60.77,60.77,0,0,0,1.95-9.54c.24-1.78.58-4.22,1.19-10.33a96.37,96.37,0,0,0,.44-15.23,74.55,74.55,0,0,1,.07-7.71s.23-4.06.75-8.18a43.49,43.49,0,0,1,1.17-5.89c.32-1.28.59-2.43.84-3.65-22.69-22.75-63.58-39.15-110.95-41.57C447.61,163.9,415.49,170,391,181.41c0,.53-.05,1.06-.06,1.61-.11,3.25,0,5.91.1,7.18.1,1.92.13,2.66.1,4.09,0,.31-.06,2-.3,4.5A87,87,0,0,1,388.82,212c-.82,3.5-1.24,5.35-1.8,9.13-.17,1.2-.4,3.07-.46,3.73-.33,3-.55,5.62-.65,6.89A107.73,107.73,0,0,0,385.42,244.92Z"/><path class="cls-8" d="M241.11,667.5a67.5,67.5,0,0,1,2.79-10.94c5.12-14.91,21-60,34.77-86.94,8.11-15.88,13.06-26.76,17.27-34.88a69.74,69.74,0,0,1,20.33-23.84c5.67-4.2,12.18-8.92,21.9-12.28,12.68-4.39,26.19-3.77,39.4-1.42,32.91,5.87,50.63,7.24,57,9.54,6.22,4.62,32.43,34.52,33.3,58.93.63,17.62-1.71,41.48-14.81,59.85s-66.4,106.76-88.22,107.76c-25.47,1.16-90.53-5-109-19.53C239.31,700.68,238.26,684.88,241.11,667.5Z"/><path class="cls-9" d="M356.19,730.11c-9.91,0-17.73-2.37-23.92-7.25-15-11.84-16.22-25.65-13.42-42.76a64.91,64.91,0,0,1,2.64-10.34c4.63-13.47,20.78-59.5,34.56-86.47,4.49-8.76,8.08-16.16,11-22.1,2.38-4.91,4.44-9.14,6.31-12.75a66.46,66.46,0,0,1,19.25-22.58c5.1-3.78,11.45-8.49,20.91-11.76a63.19,63.19,0,0,1,20.68-3.44,66.8,66.8,0,0,1,16.6,2.11c22.56,5.79,37.64,17.29,44.08,22.2l1.56,1.18.79.59c19.75,14.56,30,29.25,30.53,43.66.59,16.41-1.38,39.72-14.12,57.58-5.79,8.12-28.25,27-55.89,47.11-28.32,20.57-52.47,35.34-61.52,37.65l-4.5,1.17C380.51,726.81,367.84,730.11,356.19,730.11Z"/><path d="M434.16,514.34a62.92,62.92,0,0,1,15.69,2c21.84,5.6,36.5,16.79,42.76,21.56l1.59,1.21.81.59a106.33,106.33,0,0,1,17.27,15.38c7.51,8.62,11.47,17.18,11.77,25.46,1,28.69-6.75,45.91-13.45,55.3-5.49,7.7-28.13,26.73-55.05,46.28-27.55,20-51.76,34.89-60.27,37l-4.52,1.17c-11,2.86-23.39,6.09-34.57,6.09-9.05,0-16.13-2.11-21.64-6.46-6.42-5.06-10.37-10.8-12.09-17.54-1.49-5.84-1.48-12.54,0-21.73A59.9,59.9,0,0,1,325,671c4.61-13.41,20.69-59.23,34.36-86,4.5-8.8,8.1-16.22,11-22.18,2.36-4.88,4.41-9.09,6.26-12.65a62.54,62.54,0,0,1,18.18-21.32c4.89-3.63,11-8.15,19.92-11.24a59.36,59.36,0,0,1,19.47-3.24m0-7.36a67.05,67.05,0,0,0-21.88,3.64c-9.72,3.36-16.23,8.08-21.9,12.29a69.41,69.41,0,0,0-20.32,23.84c-4.22,8.12-9.17,19-17.28,34.87-13.77,27-29.65,72-34.77,86.94a67.76,67.76,0,0,0-2.79,10.94c-2.85,17.39-1.8,33.19,14.78,46.25,7.56,6,16.64,8,26.19,8,13.74,0,28.43-4.3,40.91-7.48,21.17-5.4,106.4-67.83,119.49-86.19S532,597.89,531.4,580.27c-.87-24.41-26.59-42.45-32.8-47.07-5.27-3.91-21.55-17.48-46.92-24A70.31,70.31,0,0,0,434.16,507Z"/><ellipse class="cls-10" cx="470.6" cy="592.72" rx="49.01" ry="39.16" transform="translate(-137.08 1043.84) rotate(-88.14)"/><ellipse class="cls-10" cx="418.45" cy="660.78" rx="35.12" ry="28.06" transform="translate(-255.56 1057.58) rotate(-88.14)"/><ellipse class="cls-10" cx="361.68" cy="686.59" rx="27.63" ry="22.08" transform="translate(-336.28 1025.8) rotate(-88.14)"/><ellipse class="cls-11" cx="473.1" cy="592.8" rx="18.31" ry="13.32" transform="translate(-134.74 1046.42) rotate(-88.14)"/><ellipse class="cls-11" cx="419.65" cy="662.22" rx="11.5" ry="15.81" transform="translate(-129.48 102.67) rotate(-12.1)"/><ellipse class="cls-11" cx="361.62" cy="688.47" rx="8.52" ry="11.71" transform="translate(-136.27 91.09) rotate(-12.1)"/><path class="cls-12" d="M347.48,649s6.45-12.44,25.45-5.85c3.61-8.06,11.22-29.92,45.11-26.79-1.53-7.57-14.3-40.42,11.53-72-9.87-4.61-16-7.67-28.86,7.65S346.17,645.15,347.48,649Z"/><line class="cls-13" x1="296.14" y1="534.36" x2="372.09" y2="543.1"/><line class="cls-13" x1="340.55" y1="497.87" x2="425.09" y2="507.59"/><polyline class="cls-13" points="437.14 508.97 459.58 511.55 459.59 511.55"/><line class="cls-13" x1="273.34" y1="580.66" x2="349" y2="589.36"/><line class="cls-13" x1="254.59" y1="626.7" x2="329.96" y2="635.37"/><line class="cls-13" x1="240.19" y1="674.5" x2="314.69" y2="683.07"/><path class="cls-14" d="M319.38,466.29s94.81-43.46,137.2-50.14c0,0,113.77-4.14,211.54,3.9-11.72,8.4-111.61,47.8-125.73,50.34S356.89,472.41,319.38,466.29Z"/><path class="cls-15" d="M511.72,459.35s38.61-21.82,42.52-23-73.32-5.07-73.32-5.07-37.5,20.51-40,22.82S511.72,459.35,511.72,459.35Z"/><path class="cls-16" d="M669.34,419.83s6.27,162.09-6.53,202.84c-12.25,10-96.35,46.38-123,45.91-2.68-18.62-3.77-185,3.82-198.41C553.66,462.6,628.48,430.67,669.34,419.83Z"/><path class="cls-11" d="M319.38,466.29s-4.48,82.7-2.52,143.48c.75,23.42,22.87,46.55,26.64,47.49,8.43,8,208.59,19.74,220.39,12.07,0,0-21.52-17.59-20.73-49.85,1-40.3-.54-100.51.44-149.31C536.38,466.28,354.66,461.6,319.38,466.29Z"/><path class="cls-17" d="M517.26,376l.06,61.07-53.49.59c-8.95,0-16.22-13.65-16.24-30.51s7.23-30.55,16.18-30.55c3,0,5.82,1.54,8.25,4.23Z"/><path class="cls-18" d="M281.83,366.12s18.82,13.88,53.86,18.3c15.56,2,35.92.17,55.58-2.38,63.89-8.28,92.31-41.56,92.31-41.56s-4.28-44-5.12-58.76-21-43.48-21-43.48Z"/><path class="cls-18" d="M688.14,367.73s-12.16,21.79-53,20-100.34-17.55-100.34-17.55l-37.3-49.6Z"/><path class="cls-11" d="M464.49,247.57l20.82,0-.43,68.34-20.33,0S467.65,270.7,464.49,247.57Z"/><polygon class="cls-19" points="464.55 315.91 477.93 334.06 492.45 334.05 484.88 315.89 464.55 315.91"/><polygon class="cls-20" points="448.65 315.92 504.36 315.87 500.91 414.04 448.09 412.86 448.65 315.92"/><path class="cls-21" d="M464.63,315.32l-1.46,11.76a2,2,0,0,1-.81,1.4l-14.31,10.58a2,2,0,0,1-3.19-1.32l-.48-3.27a2,2,0,0,1,.56-1.72l16.26-19.07A2,2,0,0,1,464.63,315.32Z"/><polygon class="cls-22" points="534.79 370.21 529.52 392.37 500.91 414.04 504.36 315.87 534.79 370.21"/><path class="cls-18" d="M485.59,317.59s.94,11.3,3.3,13.09,33.36,15.16,37.05,15.66,3-8,3-8Z"/><path class="cls-23" d="M485.59,317.59s1.16,13.65,4.24,13.64c3.67,1.81,31,13.75,31,13.75"/><path class="cls-24" d="M668.78,369.21c-4.12,0-8.88-.26-14.14-.76l-.37-.05c-36.41-3.61-89.64-18.38-123.71-30.57-3.92-1.41-7.83-2.86-11.61-4.33-3.41-1.34-6.15-2.45-8.61-3.5q-2.31-1-4.4-1.92c-8.51-3.84-12.37-6.31-14.12-7.71a10.55,10.55,0,0,1-.91-.83c-.27-1.18-.51-2.62-.73-4.32,0-.1,0-.21,0-.31-.56-4.42-.95-10.48-1.15-17.57a423.11,423.11,0,0,1,1.63-49.26c.11-1.14.23-2.22.36-3.28a7.29,7.29,0,0,1,6.71-6.4c8.37-.6,17-1,25.53-1.22,5.32-.13,10.77-.2,16.21-.2A777.46,777.46,0,0,1,644,244.5c11.19,1.56,22.43,3.38,32.5,5.27l.73.14.48.09a7.36,7.36,0,0,1,5.67,5.28,156.2,156.2,0,0,1,5,27.19.25.25,0,0,0,0,.08,241.93,241.93,0,0,1,1.09,25.7c-.07,7.34-.42,15-1,22.84-.14,1.79-.29,3.51-.45,5.19,0,.16,0,.31,0,.43-.14,1.44-.29,2.84-.44,4.2-1,8.88-2.09,16.2-2.87,20.79-.06.27-.1.55-.15.81l0,.15a7.28,7.28,0,0,1-.82,2.3l-.17.28s-.28.4-.42.62l-.12.15a7.18,7.18,0,0,1-4.54,2.6c-.55.08-1.12.16-1.69.22A73.81,73.81,0,0,1,668.78,369.21Z"/><path class="cls-25" d="M539.43,242.32a771.59,771.59,0,0,1,103.82,7.47c11.1,1.55,22.25,3.35,32.24,5.23l.13,0,.58.11.47.09a2,2,0,0,1,1.55,1.5A151.4,151.4,0,0,1,683,283c0,.05,0,.09,0,.13a235.59,235.59,0,0,1,1.06,25.08c-.06,7.23-.41,14.78-1,22.48-.15,1.92-.29,3.57-.43,5.05,0,.2,0,.37,0,.51q-.21,2.11-.42,4.08c-1,8.73-2.06,15.92-2.83,20.44-.06.29-.11.58-.15.86l0,.13a1.82,1.82,0,0,1-.18.51l-.1.18-.16.23a1.88,1.88,0,0,1-1.18.66c-.45.07-.94.13-1.45.19a68.48,68.48,0,0,1-7.29.35c-3.94,0-8.5-.25-13.57-.73l-.37,0h-.1c-35.91-3.57-88.61-18.2-122.38-30.29-3.89-1.39-7.76-2.83-11.45-4.27-3.33-1.3-6.11-2.43-8.51-3.46-1.29-.54-2.65-1.13-4.26-1.85-7.41-3.35-10.87-5.49-12.36-6.55-.1-.59-.2-1.29-.31-2.12l-.06-.42c-.52-4.25-.9-10.09-1.09-16.93a420.41,420.41,0,0,1,1.6-48.58v-.05c.1-1.07.22-2.11.34-3.12a1.95,1.95,0,0,1,1.79-1.73c8.28-.59,16.79-1,25.3-1.2,5.26-.14,10.66-.2,16.06-.2m0-10.68q-8.08,0-16.34.2c-8.5.21-17.13.61-25.78,1.23a12.65,12.65,0,0,0-10.53,7.23,12.93,12.93,0,0,0-1.11,3.89c-.12,1.09-.25,2.21-.36,3.36a425.9,425.9,0,0,0-1.65,49.94c.19,7.17.6,13.57,1.22,18.4h0a45.87,45.87,0,0,0,1,5.44,2.42,2.42,0,0,0,.25.64l0,0a9.23,9.23,0,0,0,2.35,2.52c3,2.38,8.26,5.26,15.28,8.42,1.42.64,2.92,1.3,4.48,2,2.73,1.16,5.67,2.35,8.78,3.57,3.69,1.43,7.62,2.9,11.74,4.38,36.83,13.17,89.4,27.32,124.93,30.85l.43.05c5.32.51,10.24.79,14.67.79a78.47,78.47,0,0,0,8.46-.41c.63-.07,1.26-.16,1.87-.25a12.52,12.52,0,0,0,7.92-4.53,5,5,0,0,0,.34-.46l.43-.62a2.8,2.8,0,0,0,.2-.32.7.7,0,0,0,.1-.16l0-.06a12.55,12.55,0,0,0,1.52-4.18c.05-.3.1-.61.16-.91.88-5.19,2-12.49,2.93-21.17.16-1.42.31-2.87.45-4.37,0-.05,0-.11,0-.17.17-1.75.32-3.56.47-5.41.59-7.24,1-15.08,1.07-23.24a246.72,246.72,0,0,0-1.12-26.3.09.09,0,0,0,0-.05,161.16,161.16,0,0,0-5.15-28.12,12.7,12.7,0,0,0-9.83-9.07l-1.2-.23c-7.13-1.34-18.41-3.31-32.74-5.3a776.05,776.05,0,0,0-105.29-7.58Z"/><polygon class="cls-26" points="452.21 428.46 454.7 454.32 511.79 455.32 506.57 429.42 452.21 428.46"/><polygon class="cls-22" points="532.68 416.2 547.38 436.2 511.79 455.32 506.57 429.42 532.68 416.2"/><ellipse class="cls-27" cx="517.29" cy="406.56" rx="16.2" ry="30.53"/><path class="cls-28" d="M464.2,314.21s-.6,13.35-1.84,14.27l-14.31,10.58"/><path class="cls-24" d="M299.81,364.83a73.26,73.26,0,0,1-11.07-.74,7,7,0,0,1-5.8-5.8c-3.18-19.39-9.37-68.66,2-107.24a7.08,7.08,0,0,1,5.53-5c31.52-5.73,65.69-8.63,101.56-8.63,18.45,0,37.51.77,56.65,2.3a7,7,0,0,1,6.41,6.23c2.57,23.66,2.24,63.06-.59,74.73-2.88,3.78-23.84,14.42-60.93,25.93C356.65,358,321.61,364.83,299.81,364.83Z"/><path class="cls-25" d="M392,243c18.3,0,37.2.76,56.2,2.27a1.45,1.45,0,0,1,1.28,1.26c2.6,24,2.09,59.14-.14,71.21C444,322,422.75,331.81,389.3,342c-35.39,10.79-68.85,17.23-89.49,17.23a67,67,0,0,1-10.2-.68,1.4,1.4,0,0,1-1.13-1.17c-3.13-19-9.2-67.28,1.81-104.75a1.51,1.51,0,0,1,1.15-1.1c31.19-5.67,65-8.54,100.56-8.54h0m0-11.22c-49.92,0-85,5.53-102.57,8.72a12.74,12.74,0,0,0-9.9,9c-11.74,39.94-5.22,90.83-2.12,109.73a12.61,12.61,0,0,0,10.47,10.43,78.33,78.33,0,0,0,11.93.81c51.74,0,156.77-35.72,160-48s3.46-53,.84-77.14a12.62,12.62,0,0,0-11.53-11.21c-20.75-1.65-39.81-2.32-57.1-2.32Z"/><path class="cls-29" d="M554.17,332.26c-21.24-.37-38.19-19.45-37.78-42.54.4-22.71,17.72-41.19,38.61-41.19h.64c21.24.37,38.18,19.45,37.78,42.54-.4,22.71-17.72,41.19-38.62,41.19Z"/><path class="cls-30" d="M555,253.07h.56c18.73.33,33.68,17.35,33.32,37.93a39,39,0,0,1-10.47,26.26,32.38,32.38,0,0,1-23.61,10.47h-.55a32.31,32.31,0,0,1-23.6-11.11,39.95,39.95,0,0,1,.74-53.08A32.41,32.41,0,0,1,555,253.07m0-9.08c-23.45,0-42.7,20.28-43.15,45.65-.45,25.63,18.46,46.74,42.24,47.16h.71c23.46,0,42.71-20.28,43.16-45.65.45-25.63-18.46-46.74-42.24-47.16Z"/><path class="cls-29" d="M391,331.19c-21.23-.37-38.18-19.45-37.77-42.54.4-22.71,17.72-41.19,38.61-41.19h.64c21.23.37,38.18,19.45,37.77,42.54-.4,22.71-17.72,41.19-38.61,41.19Z"/><path class="cls-30" d="M391.79,252h.56c18.73.32,33.68,17.34,33.32,37.92a39,39,0,0,1-10.47,26.26,32.39,32.39,0,0,1-23.61,10.47H391c-18.73-.33-33.68-17.34-33.32-37.93a39,39,0,0,1,10.47-26.26A32.39,32.39,0,0,1,391.79,252m0-9.08c-23.45,0-42.71,20.28-43.15,45.65-.45,25.63,18.46,46.75,42.23,47.16h.72c23.45,0,42.71-20.28,43.15-45.65.45-25.63-18.46-46.74-42.23-47.16Z"/><ellipse class="cls-31" cx="518.49" cy="408.23" rx="15.24" ry="7.04" transform="translate(101.21 919.47) rotate(-88.99)"/><path class="cls-32" d="M448.33,417.53c-24,3.11-128.95,48.76-128.95,48.76s-6.33,135-2.52,143.48c1.5,9.87,1.46,22.21,23.25,45.13,7.22,3.89,9.91,13.54,157.68,16.62"/><path class="cls-32" d="M532.9,414.81s131,2.43,136.44,5c0,0,2.46,112.43,1.19,119.07"/><ellipse class="cls-33" cx="393.86" cy="290.4" rx="19.09" ry="16.06" transform="translate(96.58 679.09) rotate(-88.99)"/><ellipse class="cls-33" cx="557.33" cy="290.44" rx="19.09" ry="16.06" transform="translate(257.14 842.58) rotate(-88.99)"/><path class="cls-34" d="M494.18,518.14l-129-5.29a9.61,9.61,0,0,0-10,9.75l1.18,76.64a9.6,9.6,0,0,0,9.22,9.45L494.72,614a9.63,9.63,0,0,0,10-9.78l-1.33-76.65A9.6,9.6,0,0,0,494.18,518.14Z"/><path class="cls-35" d="M496.19,521.9l-129.32-5.57a7.48,7.48,0,0,0-7.8,7.59l1.19,77a7.47,7.47,0,0,0,7.14,7.35l129.31,5.75a7.47,7.47,0,0,0,7.81-7.58l-1.18-77.22A7.47,7.47,0,0,0,496.19,521.9Z"/><path class="cls-36" d="M412.26,557.21l79.6,2.69a4.82,4.82,0,0,0,4.92-4.69l-.53-22.66a4.82,4.82,0,0,0-4.69-4.91l-79.6-2.7a4.82,4.82,0,0,0-4.91,4.69l.52,22.66A4.82,4.82,0,0,0,412.26,557.21Z"/><ellipse class="cls-37" cx="478.46" cy="543.49" rx="11.63" ry="9.3" transform="translate(-69.24 1017.13) rotate(-89.49)"/><ellipse class="cls-38" cx="450.39" cy="542.31" rx="11.63" ry="9.3" transform="translate(-95.88 987.89) rotate(-89.49)"/><ellipse class="cls-39" cx="422.88" cy="541.97" rx="11.63" ry="9.3" transform="translate(-122.8 960.05) rotate(-89.49)"/><path class="cls-40" d="M428,577.15l62.66,2.41a5,5,0,0,0,5.11-4.9h0a5,5,0,0,0-4.9-5.1l-62.66-2.41a5,5,0,0,0-5.11,4.9h0A5,5,0,0,0,428,577.15Z"/><path class="cls-41" d="M463.24,608.71l27.83.91a5,5,0,0,0,5.11-4.89h0a5,5,0,0,0-4.89-5.11l-27.84-.91a5,5,0,0,0-5.11,4.9h0A5,5,0,0,0,463.24,608.71Z"/><path class="cls-41" d="M463,594.68l27.84.91a5,5,0,0,0,5.1-4.9h0a5,5,0,0,0-4.89-5.1l-27.84-.91a5,5,0,0,0-5.1,4.89h0A5,5,0,0,0,463,594.68Z"/><polygon class="cls-42" points="398.33 525.15 360.26 523.28 361.47 601.55 399.92 602.96 398.33 525.15"/><ellipse class="cls-43" cx="366.74" cy="532.3" rx="4.16" ry="4.82" transform="translate(-8.18 5.73) rotate(-0.88)"/><path class="cls-44" d="M366.67,527.49s-1.75,6,.41,9.63"/><path class="cls-44" d="M370.9,532.24s-5.31,1.33-8.31.13"/><ellipse class="cls-45" cx="394.06" cy="596.23" rx="4.16" ry="4.82" transform="translate(-9.16 6.16) rotate(-0.88)"/><path class="cls-44" d="M394,591.42s-1.74,6,.42,9.62"/><path class="cls-44" d="M398.22,596.17s-5.32,1.32-8.32.13"/><ellipse class="cls-46" cx="366.97" cy="595.05" rx="4.16" ry="4.82" transform="translate(-9.14 5.74) rotate(-0.88)"/><path class="cls-44" d="M366.89,590.23s-1.74,6,.42,9.63"/><path class="cls-44" d="M371.13,595s-5.32,1.33-8.32.13"/><ellipse class="cls-47" cx="390.33" cy="533.04" rx="4.16" ry="4.82" transform="translate(-8.18 6.09) rotate(-0.88)"/><path class="cls-44" d="M390.25,528.23s-1.74,6,.42,9.62"/><path class="cls-44" d="M394.49,533s-5.32,1.32-8.32.12"/><path class="cls-48" d="M495.72,574.66s-10.89-3.25-21,.33-10.7-5.5-15.4-5.31-5.7,7.1-12.09,6.5-4.32-3.08-7.35-3-3,3.23-5.85,2.9-4.21-9.16-5.88-8.91"/><path class="cls-8" d="M487.79,702.85a67.76,67.76,0,0,1,2.79-10.94c5.12-14.9,21-60,34.77-86.94,8.11-15.88,13.06-26.76,17.27-34.88A69.61,69.61,0,0,1,563,546.26c5.67-4.21,12.18-8.93,21.9-12.29,12.68-4.39,26.19-3.77,39.4-1.42,32.91,5.87,50.63,7.24,57,9.54,6.22,4.62,32.43,34.52,33.3,58.93.63,17.62-1.71,41.48-14.81,59.85s-66.41,106.76-88.22,107.76c-25.47,1.16-90.53-5-109-19.53C486,736,484.94,720.23,487.79,702.85Z"/><path class="cls-9" d="M602.87,765.46c-9.91,0-17.73-2.37-23.92-7.25-15-11.83-16.22-25.65-13.42-42.76a64.91,64.91,0,0,1,2.64-10.34c4.63-13.47,20.78-59.5,34.56-86.46,4.48-8.77,8.08-16.17,11-22.11,2.38-4.9,4.44-9.14,6.31-12.75a66.33,66.33,0,0,1,19.25-22.57c5.1-3.79,11.45-8.49,20.91-11.77A63.19,63.19,0,0,1,680.84,546a66.86,66.86,0,0,1,16.6,2.11c22.57,5.79,37.65,17.3,44.08,22.21l1.56,1.18.79.58c19.75,14.56,30,29.25,30.53,43.67.59,16.41-1.39,39.71-14.12,57.57-5.79,8.12-28.25,27-55.89,47.12-28.32,20.56-52.47,35.33-61.52,37.64l-4.51,1.17C627.19,762.17,614.52,765.46,602.87,765.46Z"/><path d="M680.84,549.69a62.92,62.92,0,0,1,15.69,2c21.84,5.6,36.5,16.79,42.76,21.56l1.59,1.21.81.6A105.66,105.66,0,0,1,759,590.43c7.51,8.62,11.47,17.18,11.76,25.46,1,28.69-6.74,45.91-13.44,55.3-5.49,7.71-28.13,26.74-55,46.28-27.55,20-51.77,34.89-60.27,37.06-1.48.37-3,.77-4.52,1.17-11,2.85-23.39,6.08-34.57,6.08-9,0-16.13-2.11-21.64-6.46-6.42-5.06-10.37-10.79-12.09-17.54-1.49-5.84-1.48-12.54,0-21.73a60,60,0,0,1,2.49-9.75c4.6-13.4,20.69-59.22,34.36-86,4.5-8.8,8.1-16.22,11-22.18,2.37-4.88,4.42-9.09,6.27-12.65a62.61,62.61,0,0,1,18.17-21.32c4.9-3.63,11-8.15,19.93-11.24a59.36,59.36,0,0,1,19.47-3.24m0-7.36A67.05,67.05,0,0,0,659,546c-9.72,3.37-16.23,8.08-21.9,12.29a69.64,69.64,0,0,0-20.33,23.84c-4.21,8.12-9.16,19-17.27,34.87-13.78,26.95-29.65,72-34.77,86.94a67.61,67.61,0,0,0-2.79,11c-2.85,17.38-1.8,33.18,14.77,46.24,7.57,6,16.65,8,26.2,8,13.73,0,28.43-4.3,40.91-7.48,21.16-5.4,106.4-67.83,119.49-86.19s15.44-42.23,14.81-59.85c-.87-24.41-26.59-42.45-32.81-47.07-5.26-3.91-21.54-17.48-46.91-24a70.31,70.31,0,0,0-17.52-2.23Z"/><ellipse class="cls-10" cx="717.28" cy="628.07" rx="49.01" ry="39.16" transform="translate(66.26 1324.59) rotate(-88.14)"/><ellipse class="cls-10" cx="665.13" cy="696.14" rx="35.12" ry="28.06" transform="translate(-52.22 1338.33) rotate(-88.14)"/><ellipse class="cls-10" cx="608.36" cy="721.94" rx="27.63" ry="22.08" transform="translate(-132.94 1306.55) rotate(-88.14)"/><ellipse class="cls-11" cx="719.78" cy="628.15" rx="18.31" ry="13.32" transform="translate(68.61 1327.17) rotate(-88.14)"/><ellipse class="cls-11" cx="666.33" cy="697.57" rx="11.5" ry="15.81" transform="translate(-131.41 155.16) rotate(-12.1)"/><ellipse class="cls-11" cx="608.3" cy="723.82" rx="8.52" ry="11.71" transform="translate(-138.2 143.58) rotate(-12.1)"/><path class="cls-12" d="M594.16,684.36s6.45-12.44,25.45-5.85c3.61-8.06,11.21-29.92,45.11-26.79-1.53-7.57-14.3-40.41,11.53-72-9.87-4.61-16-7.67-28.87,7.65S592.85,680.5,594.16,684.36Z"/><line class="cls-13" x1="542.82" y1="569.72" x2="618.77" y2="578.45"/><line class="cls-13" x1="587.23" y1="533.22" x2="671.77" y2="542.94"/><polyline class="cls-13" points="683.82 544.32 706.26 546.9 706.27 546.9"/><line class="cls-13" x1="520.02" y1="616.01" x2="595.68" y2="624.71"/><line class="cls-13" x1="501.27" y1="662.05" x2="576.64" y2="670.72"/><line class="cls-13" x1="486.87" y1="709.85" x2="561.37" y2="718.42"/><ellipse class="cls-49" cx="364.82" cy="455.88" rx="12.84" ry="3.92" transform="matrix(0.98, -0.18, 0.18, 0.98, -74.97, 71.82)"/><path class="cls-50" d="M519.23,95.53s6.24,107.92-2.06,126.81l13.78,1s5.88-112.93,1-122.22Z"/><path class="cls-51" d="M532.25,223.33l-14.94-.94a4.14,4.14,0,0,0-4.29,3.15l-6.35,25.85a4.15,4.15,0,0,0,3.82,5.14l25,1.28a4.14,4.14,0,0,0,4.32-4.73l-3.71-26.19A4.16,4.16,0,0,0,532.25,223.33Z"/><path class="cls-52" d="M630.66,474.75a2.83,2.83,0,0,1-1.06-.22Z"/><g class="cls-2"><path class="cls-53" d="M511.28,390.9c.45,5.4,4.29,9,3.86,13-.29,2.71-2.83,6-6.19,8l-3.16,1.89-.33.19c-3.14,1.75-6.29,2-7.71.43-3.62-3.89-11.95-15-15-20.85-1-2,.27-5.28,3.16-8A62.08,62.08,0,0,1,496,377.67a29.24,29.24,0,0,1,5.9-2.73c1.67-.53,4.21-1.37,5.81-.23a3.3,3.3,0,0,1,.6.58c3,3.4,6.36,7.17,7.86,11.54C516.91,389,514.37,390.23,511.28,390.9Z"/><path class="cls-54" d="M502.89,389.28l1-.66a34.09,34.09,0,0,1,5.68-2.81c1.68-.63,3.62-1.36,5.4-.7a3.28,3.28,0,0,1,1.79,1.81c.77,1.66,1.25,3.53,1.88,5.25s1.35,3.66,2,5.51a65,65,0,0,1,3.08,11.8,23,23,0,0,1,.24,4.91c-.19,2.72-2.62,6.1-5.9,8.23-1.17.76-2.2,1.43-3.1,2l-.31.2c-3.08,1.86-6.22,2.17-7.69.7-3.77-3.76-12.49-14.58-15.71-20.31-1.68-3,1.41-6.38,3.2-8.42A44,44,0,0,1,502.89,389.28Z"/></g><polygon class="cls-55" points="291.63 523.8 582.19 407.8 581.67 403.1 566.49 364.58 273.03 496.59 291.63 523.8"/><polygon class="cls-56" points="292.15 528.5 582.19 407.8 567 369.29 273.55 501.3 292.15 528.5"/><path class="cls-57" d="M313.16,498l.89-.38,7.4,17.5-.89.38Zm18.83-8,.9-.38,7.41,17.49-.9.38Zm18.85-8,.89-.38,7.4,17.5-.9.38Zm18.83-8,.9-.38,7.4,17.5-.9.38Zm18.84-8,.9-.38,7.41,17.5-.9.38Zm18.84-8,.9-.38,7.4,17.5-.9.38Zm18.84-8,.9-.38,7.4,17.5-.9.38Zm18.84-8,.9-.38,7.4,17.5-.9.38Zm18.84-8,.9-.37,7.4,17.49-.9.38Zm18.84-8,.9-.38,7.4,17.5-.9.38Zm18.84-8,.9-.38,7.4,17.5-.9.38Zm18.84-8,.89-.38,7.41,17.5-.9.38Zm18.84-8,.89-.38,7.41,17.5-.9.38Zm20.76-9.1.9-.38,7.4,17.5-.89.38Z"/><line class="cls-57" x1="298.91" y1="514.37" x2="298.45" y2="514.57"/><path class="cls-57" d="M325.4,497.74l.9-.38,3.89,9.21-.9.38Zm18.84-8,.89-.38,3.9,9.21-.89.38Zm18.84-8,.89-.38,3.9,9.21-.9.38Zm18.84-8,.89-.38,3.9,9.21-.9.37Zm18.83-8,.9-.38,3.9,9.21-.9.38Zm18.84-8,.9-.38,3.9,9.21-.9.38Zm18.84-8,.9-.38,3.9,9.21-.9.38Zm18.84-8,.9-.38,3.9,9.21-.9.38Zm18.84-8,.9-.38,3.9,9.21-.9.38ZM495,426l.9-.38,3.89,9.22-.89.37Zm18.84-8,.9-.38,3.89,9.21-.89.38Zm18.84-8,.9-.38,3.89,9.21-.89.38Zm18.84-8,.9-.38,3.89,9.21-.89.38Zm21.76-9.64.9-.38,3.9,9.21-.9.37Z"/><path class="cls-53" d="M273.75,499c5.23,6.11,20.79,25.19,20.15,35.37,0,.76-12.57,4.45-13.28,4.74-11,4.46-20.71,3.08-21.65,2.09s-4-21.81,3.7-42.84A3.51,3.51,0,0,1,265,496.2a33.88,33.88,0,0,1,10.87-1.74C277.39,494.47,272.74,497.78,273.75,499Z"/><path class="cls-54" d="M277.89,489.66c2.13,7.76,8.06,31.65,3.14,40.59a3.36,3.36,0,0,1-1.67,1.46c-11,4.46-20.71,3.08-21.65,2.09s-4-21.81,3.69-42.83a3.5,3.5,0,0,1,2.29-2.13,34,34,0,0,1,10.88-1.74A3.49,3.49,0,0,1,277.89,489.66Z"/><path class="cls-53" d="M300.5,486c2,8.74,7.3,34.35,2.73,43.75a3.88,3.88,0,0,1-2,1.93c-10.93,4.37-20.55,3-21.48,2s-3.41-25.5,4.22-46.67a3.87,3.87,0,0,1,2.58-2.4,33.44,33.44,0,0,1,10.1-1.68A4,4,0,0,1,300.5,486Z"/><path class="cls-54" d="M300,478c2,8.75,7.3,34.36,2.73,43.76a3.87,3.87,0,0,1-2,1.92c-10.93,4.38-20.55,3-21.48,2s-3.41-25.51,4.22-46.68a3.91,3.91,0,0,1,2.58-2.4,33.72,33.72,0,0,1,10.1-1.67A4,4,0,0,1,300,478Z"/><path class="cls-53" d="M323.65,485.78c2,8.41,6.84,30.93,2.46,40a4.16,4.16,0,0,1-2.23,2.08c-10.88,4.31-20.42,2.95-21.35,2s-3.18-22.18,4.37-43.1a4.27,4.27,0,0,1,2.84-2.65,33.72,33.72,0,0,1,9.63-1.61A4.34,4.34,0,0,1,323.65,485.78Z"/><path class="cls-54" d="M322.84,475.11c2,8.41,6.84,30.92,2.46,40a4.23,4.23,0,0,1-2.23,2.08c-10.88,4.31-20.43,3-21.36,2S298.53,497,306.09,476a4.29,4.29,0,0,1,2.83-2.64,33.48,33.48,0,0,1,9.64-1.62A4.37,4.37,0,0,1,322.84,475.11Z"/><path class="cls-53" d="M351,524.15s-26.84,29.52-38.77,28.68c-10.43-6.78-14.89-16.15-14.57-17.52s20.52-17.81,43.17-22.63C346.32,517.14,348.21,519.37,351,524.15Z"/><path class="cls-54" d="M354.2,522.59c-6.41,6.69-23.85,24-34.1,25.92a4.74,4.74,0,0,1-3.6-.79c-9.44-6.68-13.49-15.27-13.19-16.58s19.15-16.69,40.83-22.09a4.64,4.64,0,0,1,4.16,1,33.58,33.58,0,0,1,6.39,6.83A4.58,4.58,0,0,1,354.2,522.59Z"/><path class="cls-52" d="M629.18,506.55l-21.52-4h0l-1.06-.2-80.12-32.89c-8.37-5.09-11.7-18.62-6.15-35.8,3.86-12,9.08-15.35,15.6-17.62.34-.12.67-.22,1-.31l.18,0,7.15,1.17,17.11,2.8-5.12,7,59.85,43.18c4.22,3.29,4.53,10.63,1.19,21.15a28.13,28.13,0,0,1-3,6.83Z"/><path class="cls-1" d="M558.51,420.23a9.36,9.36,0,0,1,8.18.7l72,53.13c4.22,3.28,4.53,10.62,1.19,21.15-2.39,7.57-5.06,10.12-8.59,11.35a2.92,2.92,0,0,1-2.1,0l-80.12-32.9c-8.37-5.08-11.7-18.61-6.15-35.8C546.78,425.87,552,422.51,558.51,420.23Z"/><g class="cls-2"><path class="cls-58" d="M511.88,452.83a9.92,9.92,0,0,1-1.84.65c-3.23.77-5.06,1.45-10.88,2.52l-4.81,10.23a7.8,7.8,0,0,1-1.52-1.18l-1.74-1.36-3.61-2.78c-1.16-.9-2.33-1.8-3.48-2.71s-.87-2.1-.79-3.35c.44-6.88,4.45-13.57,11-16.27a7.52,7.52,0,0,1,2.87-.66c6,0,17.54,1.68,22.37,3.62l.43.25,0,0c2,1.2,9.85,7.44,10.84,9.28C531.57,452.57,519.23,452.23,511.88,452.83Z"/><path class="cls-59" d="M500.22,450a18.73,18.73,0,0,1,3-2.07,9.17,9.17,0,0,1,4.48-1.33c6,.15,17.5,2.07,22.28,4.12,1.54.66,1.31,2.7-.57,5-.67.81-1.26,1.52-1.78,2.13A13.14,13.14,0,0,1,526,459.4a14.1,14.1,0,0,1-5.71,3c-3.74.81-7.49,1.51-11.26,2.15s-7.39,1.33-11.1,1.69c-1.19.12-3.19.65-4.15-.29-1.13-1.12-.36-3.54-.11-4.89A19.4,19.4,0,0,1,500.22,450Z"/></g><g class="cls-2"><path class="cls-60" d="M518.21,414.29a84.36,84.36,0,0,1,8,12c1.19,2.33.89,6.3-.74,9.69-.58,1.2-1.1,2.26-1.55,3.18-.05.1-.1.21-.16.32-1.6,3.06-4,4.88-5.95,4.4-5-1.21-17.5-5.75-23-8.83-1.87-1.06-2.56-4.37-1.67-8.07a64.08,64.08,0,0,1,5.25-14.33,41.19,41.19,0,0,1,4.64-7.12,5.51,5.51,0,0,1,3.78-2.34s.58.13,1.51.37h0c2.95.77,9.42,2.62,12,4.62C522.12,409.55,520.33,412.14,518.21,414.29Z"/><path class="cls-61" d="M510.55,417.38a41.14,41.14,0,0,1,4.38-7.28c1.83-2.41,4-3.14,5.62-1.88,4.94,3.95,14.34,14.79,18.27,21.81,1.28,2.28,1.12,6.27-.39,9.7q-.81,1.84-1.44,3.24a2.3,2.3,0,0,1-.15.32c-1.48,3.12-3.84,5-5.79,4.61-5-1-17.69-5.12-23.28-8-1.92-1-2.72-4.27-2-8A63.89,63.89,0,0,1,510.55,417.38Z"/></g><g class="cls-2"><path class="cls-62" d="M539.92,394.58c.86,4.76,4.57,7.61,4.54,11.24,0,2.44-2,5.58-4.82,7.66L537,415.42l-.28.2c-2.64,1.82-5.42,2.27-6.81,1-3.55-3.15-11.9-12.32-15.08-17.24-1.09-1.69-.22-4.71,2.12-7.36a54.67,54.67,0,0,1,8.25-7.92,25.65,25.65,0,0,1,5-2.93c1.43-.62,3.62-1.58,5.14-.71a3.23,3.23,0,0,1,.58.47c2.93,2.76,6.26,5.83,8,9.58C544.76,392.44,542.6,393.72,539.92,394.58Z"/><path class="cls-63" d="M532.33,393.86c.28-.23.56-.46.85-.67a29.91,29.91,0,0,1,4.81-3c1.43-.7,3.1-1.52,4.74-1.08a2.86,2.86,0,0,1,1.74,1.46c.82,1.4,1.41,3,2.12,4.5s1.51,3.13,2.22,4.72A57.43,57.43,0,0,1,552.56,410a20.48,20.48,0,0,1,.63,4.34c.06,2.43-1.8,5.64-4.54,7.81q-1.46,1.17-2.58,2l-.26.21c-2.58,1.91-5.34,2.46-6.77,1.28-3.66-3-12.33-11.89-15.68-16.7-1.75-2.5.71-5.79,2.12-7.75A39.07,39.07,0,0,1,532.33,393.86Z"/></g><ellipse class="cls-64" cx="560.31" cy="446.94" rx="7.5" ry="9.32" transform="translate(-61.81 91.04) rotate(-8.81)"/></g></svg>