<svg id="Layer_1" data-name="Layer 1" xmlns="http://www.w3.org/2000/svg" xmlns:xlink="http://www.w3.org/1999/xlink" viewBox="0 0 800 800"><defs><style>.cls-1{isolation:isolate;}.cls-2{fill:#1b3649;}.cls-3{fill:#0a1c28;}.cls-4{fill:#316284;}.cls-5{fill:#212121;}.cls-6{fill:#2a5375;}.cls-7{fill:#353535;stroke-width:0.78px;}.cls-19,.cls-24,.cls-26,.cls-35,.cls-56,.cls-7{stroke:#000;}.cls-19,.cls-24,.cls-26,.cls-27,.cls-7{stroke-linejoin:round;}.cls-15,.cls-20,.cls-61,.cls-8{fill:#4d4d4d;}.cls-9{fill:#b3b3b3;}.cls-10{fill:#d3161d;}.cls-11{fill:#adadad;stroke:#080000;stroke-width:1.06px;}.cls-11,.cls-12,.cls-13,.cls-14,.cls-15,.cls-18,.cls-20,.cls-25,.cls-29,.cls-30,.cls-33,.cls-35,.cls-39,.cls-50,.cls-51,.cls-52,.cls-53,.cls-54,.cls-55,.cls-56,.cls-59,.cls-60,.cls-61{stroke-miterlimit:10;}.cls-12,.cls-18,.cls-30,.cls-35,.cls-39,.cls-51,.cls-55{fill:none;}.cls-12,.cls-13,.cls-27,.cls-29,.cls-33,.cls-39,.cls-55,.cls-59{stroke:#070707;}.cls-12{stroke-width:1.63px;}.cls-13,.cls-59{fill:#77401b;}.cls-13,.cls-14{stroke-width:1.06px;}.cls-14,.cls-21,.cls-56,.cls-60{fill:#f8c946;}.cls-14,.cls-60{stroke:#020202;}.cls-15,.cls-20,.cls-61{stroke:#151616;}.cls-15{stroke-width:3.17px;}.cls-16{fill:#9b7e54;}.cls-17{fill:#d3ac6e;}.cls-18{stroke:#050505;stroke-width:0.75px;}.cls-19,.cls-36{fill:#282828;}.cls-19{stroke-width:1.38px;}.cls-20{stroke-width:0.87px;}.cls-22{fill:#683919;}.cls-23,.cls-29{fill:#945320;}.cls-24{fill:#515051;stroke-width:1.07px;}.cls-25,.cls-28{fill:#161616;}.cls-25,.cls-30,.cls-50,.cls-51,.cls-52,.cls-53,.cls-54{stroke:#0a0a0a;}.cls-25,.cls-26,.cls-29,.cls-30,.cls-33,.cls-35{stroke-width:0.93px;}.cls-26{fill:#8e8a8b;}.cls-27,.cls-33{fill:#e2b647;}.cls-27{stroke-width:0.93px;}.cls-31{fill:#dddbd7;}.cls-32{fill:#232323;}.cls-34{fill:#3a3a3a;}.cls-37{fill:#7c7c7c;}.cls-38{fill:#666;}.cls-39,.cls-59,.cls-60{stroke-width:1.07px;}.cls-40{fill:#389cce;}.cls-41{fill:#7f1119;}.cls-42{fill:#5e0e18;}.cls-43{fill:#352f49;}.cls-44{fill:#e41e00;}.cls-45{fill:#fffe28;}.cls-46{fill:#18ff08;}.cls-47{fill:#dbdddd;}.cls-48{fill:#0fb0db;}.cls-49{fill:#303435;}.cls-50,.cls-51,.cls-52,.cls-53,.cls-54{stroke-width:0.42px;}.cls-50{fill:url(#radial-gradient);}.cls-52{fill:url(#radial-gradient-2);}.cls-53{fill:url(#radial-gradient-3);}.cls-54{fill:url(#radial-gradient-4);}.cls-55,.cls-56{stroke-width:0.53px;}.cls-57{fill:#dbcc1b;}.cls-58{fill:#eaa12a;}.cls-61{stroke-width:3.2px;}</style><radialGradient id="radial-gradient" cx="-2184.22" cy="493.3" r="6.5" gradientTransform="matrix(-1, 0, 0, 1, -1817.15, 38.96)" gradientUnits="userSpaceOnUse"><stop offset="0.2" stop-color="#666"/><stop offset="0.57" stop-color="#585858"/><stop offset="1" stop-color="#4d4d4d"/></radialGradient><radialGradient id="radial-gradient-2" cx="-2210.55" cy="557.64" r="6.5" gradientTransform="matrix(-1, 0, 0, 1, -1816.16, 38.54)" xlink:href="#radial-gradient"/><radialGradient id="radial-gradient-3" cx="-2183.48" cy="556.04" r="6.5" gradientTransform="matrix(-1, 0, 0, 1, -1816.18, 38.96)" xlink:href="#radial-gradient"/><radialGradient id="radial-gradient-4" cx="-2207.79" cy="494.4" r="6.5" gradientTransform="matrix(-1, 0, 0, 1, -1817.14, 38.59)" xlink:href="#radial-gradient"/></defs><title>teaching_</title><g class="cls-1"><polygon class="cls-2" points="546.63 228.48 680.23 170.25 458.22 73.51 324.62 131.74 546.63 228.48"/><polygon class="cls-3" points="325.55 127.81 324.62 131.74 458.22 73.51 459.15 69.59 325.55 127.81"/><polygon class="cls-3" points="459.15 69.59 458.22 73.51 680.23 170.25 681.16 166.32 459.15 69.59"/></g><g class="cls-1"><path class="cls-4" d="M386,245.39a33.52,33.52,0,0,0,1.38,8.56,14,14,0,0,1,.3-8.89c2-5.46,7.58-10.44,16.45-14.45A99.31,99.31,0,0,1,426,224c21.93-4.23,48.57-4.16,73.93-.64l3.08.44c24.22,3.66,47,10.46,63.11,19.68,16.76,9.62,23.06,20,19.68,29.11a15.64,15.64,0,0,1-.77,1.74c.11-.21.22-.4.31-.58.27-.55.62-1.28.86-1.84a35.81,35.81,0,0,0,1.31-3.67,59.81,59.81,0,0,0,2-9.54c.25-1.78.58-4.22,1.19-10.33a95.43,95.43,0,0,0,.45-15.23,74.76,74.76,0,0,1,.06-7.71s.24-4.06.75-8.18a43.49,43.49,0,0,1,1.17-5.89c.33-1.29.6-2.43.85-3.65.3-1.42.58-2.94.89-4.93s.82-5.64,1.23-10.49c.27-3.28.41-6.45.45-8.16,0-2.17,0-3.08,0-4.23s-.14-2.82-.14-2.83c-.15-1.64-.15-1.64-.33-2.93-.08-.55-.21-1.28-.35-1.82-.25-.94-.62-2.19-1-3.1a23.75,23.75,0,0,0-1-2.18c-2.88-5.62-9-11.38-18.63-16.88-16.75-9.6-40.8-16.58-66.14-20.11l-1.17-.15c-25-3.36-51.11-3.37-72.69.8-11.11,2.14-19.93,5.19-26.37,8.84a31.57,31.57,0,0,0-9.25,7.5,22.91,22.91,0,0,0-1.64,2.35c-.21.38-.53.89-.72,1.3-.39.81-.89,1.9-1.21,2.74-1.36,3.64-2.51,9.22-3.4,16.59-.21,1.78-.34,3.12-.4,3.69-.12,1.27-.4,4.38-.56,8.16,0,.52-.05,1.06-.06,1.61-.1,3.25,0,5.91.1,7.18a40.13,40.13,0,0,1,.1,4.09c0,.31-.06,2-.3,4.5a85.93,85.93,0,0,1-2.06,13.16c-.82,3.5-1.23,5.35-1.79,9.13-.18,1.2-.4,3.07-.47,3.73-.32,3-.55,5.62-.65,6.88A106.07,106.07,0,0,0,386,245.39Z"/><path class="cls-5" d="M547.49,293.21c21.93-4.23,35-12,38.35-21s-2.91-19.49-19.68-29.11S525.33,226.47,500,223s-52-3.59-73.92.64-35,12-38.36,21,2.92,19.49,19.69,29.1,40.83,16.6,66.19,20.13S525.57,297.45,547.49,293.21Z"/></g><path class="cls-6" d="M386,245.39a33.52,33.52,0,0,0,1.38,8.56,14,14,0,0,1,.3-8.89c2-5.46,7.58-10.44,16.45-14.45A99.31,99.31,0,0,1,426,224c21.93-4.23,48.57-4.16,73.93-.64l3.08.44c24.22,3.66,47,10.46,63.11,19.68,16.76,9.62,23.06,20,19.68,29.11a15.64,15.64,0,0,1-.77,1.74c.11-.21.22-.4.31-.58.27-.55.62-1.28.86-1.84a35.81,35.81,0,0,0,1.31-3.67,59.81,59.81,0,0,0,2-9.54c.25-1.78.58-4.22,1.19-10.33a95.43,95.43,0,0,0,.45-15.23,74.76,74.76,0,0,1,.06-7.71s.24-4.06.75-8.18a43.49,43.49,0,0,1,1.17-5.89c.33-1.29.6-2.43.85-3.65-22.69-22.75-63.58-39.15-111-41.57-34.82-1.78-66.93,4.3-91.39,15.73,0,.52-.05,1.06-.06,1.61-.1,3.25,0,5.91.1,7.18a40.13,40.13,0,0,1,.1,4.09c0,.31-.06,2-.3,4.5a85.93,85.93,0,0,1-2.06,13.16c-.82,3.5-1.23,5.35-1.79,9.13-.18,1.2-.4,3.07-.47,3.73-.32,3-.55,5.62-.65,6.88A106.07,106.07,0,0,0,386,245.39Z"/><path class="cls-7" d="M241.68,668a66.59,66.59,0,0,1,2.79-11c5.11-14.9,21-60,34.76-86.94,8.11-15.87,13.07-26.75,17.28-34.87a69.54,69.54,0,0,1,20.33-23.84c5.67-4.2,12.18-8.92,21.89-12.28,12.68-4.39,26.19-3.77,39.4-1.42,32.92,5.87,50.63,7.24,57,9.53,6.21,4.62,32.42,34.52,33.29,58.94.63,17.61-1.7,41.48-14.8,59.84s-66.41,106.77-88.23,107.76c-25.47,1.17-90.52-5-109-19.53C239.88,701.16,238.83,685.36,241.68,668Z"/><path class="cls-8" d="M356.75,730.59c-9.9,0-17.72-2.37-23.91-7.25-15-11.84-16.23-25.66-13.42-42.76a62.69,62.69,0,0,1,2.64-10.35c4.62-13.46,20.78-59.49,34.56-86.46,4.48-8.77,8.07-16.17,11-22.11,2.38-4.9,4.44-9.13,6.31-12.74a66.15,66.15,0,0,1,19.25-22.58c5.1-3.78,11.44-8.49,20.91-11.76a62.89,62.89,0,0,1,20.68-3.44,66.86,66.86,0,0,1,16.6,2.11c22.56,5.79,37.64,17.29,44.08,22.2.59.46,1.11.85,1.55,1.18l.8.59c19.74,14.56,30,29.25,30.53,43.66.58,16.41-1.39,39.72-14.13,57.58-5.79,8.11-28.25,27-55.88,47.11-28.33,20.56-52.47,35.34-61.52,37.65-1.48.37-3,.76-4.51,1.16C381.07,727.29,368.4,730.59,356.75,730.59Z"/><path d="M434.73,514.82h0a63.29,63.29,0,0,1,15.68,2c21.84,5.61,36.5,16.79,42.77,21.57l1.59,1.2.8.6a105.91,105.91,0,0,1,17.27,15.38c7.51,8.61,11.47,17.18,11.77,25.45,1,28.7-6.74,45.92-13.44,55.31-5.5,7.7-28.14,26.73-55.06,46.27-27.54,20-51.76,34.89-60.26,37.06l-4.53,1.17c-11,2.85-23.39,6.09-34.57,6.09-9,0-16.12-2.12-21.63-6.46-6.42-5.06-10.38-10.8-12.1-17.54-1.49-5.84-1.48-12.54,0-21.74a60.1,60.1,0,0,1,2.49-9.74c4.6-13.41,20.68-59.23,34.36-86,4.49-8.81,8.1-16.22,11-22.18,2.37-4.88,4.41-9.09,6.26-12.66a62.51,62.51,0,0,1,18.18-21.31c4.9-3.64,11-8.16,19.92-11.24a59.38,59.38,0,0,1,19.48-3.24m0-7.36a66.74,66.74,0,0,0-21.88,3.64c-9.72,3.36-16.23,8.08-21.9,12.29a69.5,69.5,0,0,0-20.33,23.83c-4.21,8.12-9.17,19-17.28,34.88-13.77,26.95-29.65,72-34.76,86.94A66.73,66.73,0,0,0,315.79,680c-2.85,17.38-1.8,33.19,14.77,46.25,7.57,6,16.65,8,26.19,8,13.74,0,28.43-4.3,40.92-7.49,21.16-5.4,106.39-67.83,119.49-86.19s15.43-42.23,14.8-59.84c-.87-24.42-26.59-42.45-32.8-47.07-5.27-3.92-21.55-17.49-46.92-24a70.63,70.63,0,0,0-17.51-2.22Z"/><ellipse class="cls-9" cx="471.17" cy="593.2" rx="49.01" ry="39.16" transform="translate(-137.01 1044.86) rotate(-88.14)"/><ellipse class="cls-9" cx="419.02" cy="661.26" rx="35.12" ry="28.06" transform="translate(-255.49 1058.6) rotate(-88.14)"/><ellipse class="cls-9" cx="362.25" cy="687.06" rx="27.63" ry="22.08" transform="matrix(0.03, -1, 1, 0.03, -336.21, 1026.83)"/><ellipse class="cls-10" cx="473.67" cy="593.28" rx="18.31" ry="13.32" transform="translate(-134.67 1047.45) rotate(-88.14)"/><ellipse class="cls-10" cx="420.22" cy="662.7" rx="11.5" ry="15.81" transform="translate(-129.57 102.8) rotate(-12.1)"/><ellipse class="cls-10" cx="362.19" cy="688.95" rx="8.52" ry="11.71" transform="translate(-136.36 91.22) rotate(-12.1)"/><path class="cls-11" d="M348,649.49s6.45-12.44,25.46-5.86c3.61-8,11.21-29.91,45.1-26.79-1.53-7.56-14.29-40.41,11.53-72-9.86-4.62-16-7.68-28.86,7.65S346.74,645.63,348,649.49Z"/><line class="cls-12" x1="296.71" y1="534.84" x2="372.65" y2="543.58"/><line class="cls-12" x1="341.11" y1="498.34" x2="425.66" y2="508.06"/><polyline class="cls-12" points="437.71 509.45 460.15 512.03 460.16 512.03"/><line class="cls-12" x1="273.91" y1="581.14" x2="349.56" y2="589.83"/><line class="cls-12" x1="255.16" y1="627.18" x2="330.53" y2="635.84"/><line class="cls-12" x1="240.76" y1="674.98" x2="315.26" y2="683.55"/><path class="cls-13" d="M292.47,431.36l105.76,39.05c18.2,6.09,29.89,13.53,25.21,31.42h0c-6.47,16.91-16.07,15.76-33.73,12.78l-119.3-18.08a33.73,33.73,0,0,1-24-41h0C251.08,437.59,274.58,426.68,292.47,431.36Z"/><path class="cls-14" d="M300.58,434.21l110.79,38.94c18.2,6.1,9.14,47.19-8.53,44.2L283.55,499.28a33.72,33.72,0,0,1-24-41h0A33.73,33.73,0,0,1,300.58,434.21Z"/><ellipse class="cls-15" cx="293.07" cy="466.12" rx="11.88" ry="13.17" transform="translate(-140.48 126.72) rotate(-19.79)"/><polygon class="cls-16" points="254.16 425.73 104.95 150.75 100.34 151.82 63.87 171.41 229.32 447.39 254.16 425.73"/><polygon class="cls-17" points="258.77 424.67 104.95 150.75 68.48 170.34 233.94 446.32 258.77 424.67"/><path class="cls-18" d="M226.06,407.37l-.49-.84,16.52-9.4.48.85ZM215.94,389.6l-.48-.84,16.5-9.41.49.84Zm-10.12-17.78-.48-.85,16.51-9.39.48.84ZM195.7,354l-.48-.84,16.51-9.4.48.84Zm-10.12-17.77-.48-.85,16.51-9.4.48.84Zm-10.12-17.78-.48-.85,16.51-9.4.48.85Zm-10.12-17.78-.48-.84,16.51-9.4.48.85Zm-10.12-17.77-.48-.85,16.51-9.4.48.85ZM145.1,265.16l-.48-.85,16.51-9.4.49.85ZM135,247.38l-.48-.85L151,237.14l.49.85ZM124.86,229.6l-.48-.84,16.52-9.4.48.85Zm-10.11-17.77-.49-.85,16.52-9.4.48.85Zm-10.12-17.78-.49-.84,16.52-9.4.48.84ZM93.16,174.49l-.49-.84,16.52-9.4.48.84Z"/><line class="cls-18" x1="243.95" y1="419.61" x2="244.2" y2="420.04"/><path class="cls-18" d="M224.33,395.25l-.48-.85,8.69-4.94.48.84Zm-10.12-17.77-.48-.85,8.69-4.95.48.84ZM204.09,359.7l-.48-.85,8.69-5,.49.85ZM194,341.92l-.49-.85,8.69-4.94.49.84Zm-10.12-17.78-.49-.84,8.69-4.95.49.84Zm-10.12-17.77-.49-.85,8.7-4.95.48.85Zm-10.12-17.78-.48-.85,8.69-4.94.48.84ZM153.5,270.81,153,270l8.69-5,.48.84ZM143.38,253l-.48-.85,8.69-4.95.48.85Zm-10.12-17.78-.48-.85,8.69-4.94.48.84Zm-10.12-17.78-.48-.85,8.69-4.94.48.85ZM113,199.7l-.48-.84,8.69-5,.48.85ZM102.9,181.93l-.48-.85,8.69-5,.48.85ZM90.78,161.44l-.48-.84L99,155.65l.48.85Z"/><path class="cls-19" d="M234.89,474.51c7.75-2.19,31.59-8.31,40.56-3.47a3.35,3.35,0,0,1,1.48,1.67c4.54,11,3.24,20.68,2.26,21.63s-21.78,4.17-42.86-3.35a3.51,3.51,0,0,1-2.14-2.27,33.62,33.62,0,0,1-1.83-10.86A3.49,3.49,0,0,1,234.89,474.51Z"/><path class="cls-20" d="M227.54,475.84c7.75-2.19,31.59-8.32,40.57-3.47a3.36,3.36,0,0,1,1.47,1.66c4.55,11,3.25,20.69,2.26,21.64s-21.77,4.16-42.86-3.36a3.46,3.46,0,0,1-2.14-2.27A33.86,33.86,0,0,1,225,479.18,3.48,3.48,0,0,1,227.54,475.84Z"/><path class="cls-19" d="M223.67,453.26c8.73-2.08,34.29-7.58,43.73-3.09a4,4,0,0,1,1.94,2c4.46,10.9,3.17,20.52,2.19,21.46s-25.48,3.62-46.71-3.84a3.91,3.91,0,0,1-2.42-2.56,33.74,33.74,0,0,1-1.76-10.09A4,4,0,0,1,223.67,453.26Z"/><path class="cls-20" d="M215.68,453.82c8.73-2.08,34.29-7.57,43.73-3.08a3.81,3.81,0,0,1,1.94,2c4.46,10.89,3.17,20.52,2.19,21.46s-25.48,3.61-46.71-3.85a3.91,3.91,0,0,1-2.42-2.56,33.68,33.68,0,0,1-1.76-10.08A4,4,0,0,1,215.68,453.82Z"/><path class="cls-19" d="M223.29,430.11c8.4-2.1,30.88-7.09,40-2.79a4.2,4.2,0,0,1,2.09,2.22c4.4,10.85,3.12,20.4,2.14,21.34s-22.15,3.36-43.13-4A4.27,4.27,0,0,1,221.7,444a33.18,33.18,0,0,1-1.69-9.62A4.33,4.33,0,0,1,223.29,430.11Z"/><path class="cls-20" d="M212.63,431c8.4-2.1,30.87-7.09,40-2.79a4.25,4.25,0,0,1,2.1,2.22c4.4,10.85,3.11,20.4,2.14,21.34s-22.15,3.36-43.14-4a4.28,4.28,0,0,1-2.66-2.82,33.63,33.63,0,0,1-1.7-9.62A4.35,4.35,0,0,1,212.63,431Z"/><path class="cls-19" d="M275.76,436.66s-39.85-2-46.77-11.75c-1.38-12.37,3-21.77,4.29-22.39s26.79,4.56,44.89,19C278.19,428.58,277.67,431.45,275.76,436.66Z"/><path class="cls-20" d="M279,438.12c-9.24-.7-33.73-3.17-41.68-9.9a4.7,4.7,0,0,1-1.67-3.28c-.83-11.53,3.23-20.12,4.44-20.72s25,4.21,43,17.54a4.66,4.66,0,0,1,1.89,3.83,33.68,33.68,0,0,1-1.23,9.27A4.56,4.56,0,0,1,279,438.12Z"/><path class="cls-21" d="M319.94,466.76s94.81-43.46,137.2-50.14c0,0,113.78-4.13,211.55,3.9C657,428.93,557.07,468.33,543,470.86S357.46,472.88,319.94,466.76Z"/><path class="cls-22" d="M512.28,459.82s38.62-21.81,42.53-23-73.33-5.08-73.33-5.08-37.5,20.52-40,22.83S512.28,459.82,512.28,459.82Z"/><path class="cls-23" d="M669.9,420.31s6.27,162.09-6.52,202.84c-12.26,10-96.35,46.37-123,45.9-2.67-18.61-3.76-185,3.83-198.4C554.22,463.07,629,431.15,669.9,420.31Z"/><path class="cls-10" d="M319.94,466.76s-4.47,82.71-2.52,143.49c.75,23.42,22.87,46.54,26.65,47.49,8.43,8,208.59,19.74,220.38,12.06,0,0-21.52-17.58-20.72-49.84,1-40.3-.55-100.51.44-149.31C537,466.75,355.23,462.08,319.94,466.76Z"/><path class="cls-24" d="M517.83,376.5l0,61.07-53.49.6c-8.95,0-16.22-13.65-16.23-30.51s7.23-30.55,16.17-30.56c3,0,5.83,1.54,8.26,4.24Z"/><path class="cls-25" d="M282.39,366.6s18.83,13.88,53.86,18.29c15.57,2,35.93.18,55.58-2.37,63.9-8.28,92.31-41.56,92.31-41.56s-4.27-44-5.12-58.76-21-43.49-21-43.49Z"/><path class="cls-25" d="M688.71,368.21s-12.17,21.79-53,20-100.33-17.55-100.33-17.55l-37.31-49.6Z"/><path class="cls-10" d="M465.05,248.05l20.83,0-.43,68.33-20.33,0S468.21,271.17,465.05,248.05Z"/><polygon class="cls-26" points="465.12 316.38 478.5 334.54 493.01 334.52 485.45 316.36 465.12 316.38"/><polygon class="cls-27" points="449.22 316.4 504.93 316.35 501.47 414.51 448.65 413.33 449.22 316.4"/><path class="cls-28" d="M465.19,315.8l-1.46,11.76a2,2,0,0,1-.8,1.39l-14.32,10.59a2,2,0,0,1-3.19-1.33l-.48-3.27a2,2,0,0,1,.56-1.71l16.26-19.07A2,2,0,0,1,465.19,315.8Z"/><polygon class="cls-29" points="535.36 370.69 530.09 392.84 501.47 414.51 504.93 316.35 535.36 370.69"/><path class="cls-25" d="M486.15,318.07s.94,11.3,3.3,13.08,33.36,15.17,37.05,15.67,3-8,3-8Z"/><path class="cls-30" d="M486.15,318.07s1.17,13.65,4.24,13.64c3.68,1.81,31,13.74,31,13.74"/><path class="cls-31" d="M669.35,369.69c-4.12,0-8.88-.26-14.15-.77l-.38,0c-36.39-3.62-89.62-18.38-123.69-30.57-3.93-1.41-7.83-2.87-11.62-4.33-3.35-1.32-6.17-2.47-8.6-3.5-1.55-.66-3-1.3-4.41-1.93-8.51-3.84-12.37-6.31-14.11-7.7a9.34,9.34,0,0,1-.92-.84c-.26-1.16-.51-2.61-.72-4.31a2.87,2.87,0,0,0-.05-.31c-.55-4.42-.95-10.49-1.14-17.57a425.48,425.48,0,0,1,1.62-49.26c.12-1.14.24-2.22.36-3.28a7.28,7.28,0,0,1,6.72-6.41c8.36-.59,17-1,25.53-1.21,5.31-.14,10.76-.21,16.2-.21A777.51,777.51,0,0,1,644.55,245c11.18,1.56,22.42,3.38,32.49,5.27l1.22.23a7.35,7.35,0,0,1,5.66,5.27,156.55,156.55,0,0,1,5,27.19s0,.06,0,.09A239.24,239.24,0,0,1,690,308.72c-.06,7.36-.42,15-1,22.85-.14,1.79-.29,3.54-.45,5.23,0,.12,0,.24,0,.35-.15,1.45-.29,2.86-.44,4.24-1,8.93-2.11,16.26-2.89,20.84,0,.18-.08.47-.13.74l0,.17a7.28,7.28,0,0,1-.82,2.3c-.06.09-.17.29-.17.29l-.42.6-.12.15a7.13,7.13,0,0,1-4.53,2.61l-1.69.22a73.81,73.81,0,0,1-7.87.38Z"/><path class="cls-32" d="M540,242.79a771.2,771.2,0,0,1,103.82,7.48c11.1,1.54,22.25,3.35,32.25,5.23l.12,0,.59.11.46.09a2.05,2.05,0,0,1,1.56,1.49,151.53,151.53,0,0,1,4.79,26.26s0,.09,0,.14a232.79,232.79,0,0,1,1.06,25.07c-.06,7.22-.41,14.78-1,22.48-.15,1.9-.3,3.55-.44,5,0,.19,0,.37,0,.53-.14,1.4-.28,2.77-.42,4.08-1,8.73-2.06,15.92-2.83,20.44l-.15.85,0,.13a1.77,1.77,0,0,1-.17.52c0,.06-.07.12-.11.17s-.1.16-.16.24a1.83,1.83,0,0,1-1.17.66c-.45.07-1,.13-1.46.19a68.35,68.35,0,0,1-7.29.35c-3.93,0-8.5-.25-13.56-.74l-.38,0h-.1c-35.91-3.57-88.61-18.2-122.38-30.28-3.89-1.39-7.75-2.83-11.45-4.27-3.38-1.32-6.07-2.42-8.51-3.46-1.28-.54-2.65-1.14-4.26-1.86-7.4-3.34-10.87-5.48-12.36-6.54-.09-.59-.2-1.29-.3-2.12,0-.15,0-.29-.07-.43-.52-4.24-.9-10.08-1.08-16.92a415.9,415.9,0,0,1,1.6-48.58v0c.11-1.07.22-2.11.34-3.12a2.18,2.18,0,0,1,.17-.61,2,2,0,0,1,1.62-1.12c8.29-.59,16.79-1,25.3-1.2,5.26-.14,10.67-.21,16.06-.21m0-10.68q-8.09,0-16.33.21c-8.51.21-17.13.61-25.79,1.23a12.61,12.61,0,0,0-11.63,11.12c-.13,1.09-.26,2.2-.37,3.35a426.07,426.07,0,0,0-1.65,50c.2,7.17.6,13.57,1.22,18.4h0a48,48,0,0,0,1,5.44,2.78,2.78,0,0,0,.26.64s0,0,0,0a9.29,9.29,0,0,0,2.36,2.53c3,2.38,8.26,5.25,15.27,8.42,1.43.64,2.92,1.29,4.49,2q4.09,1.74,8.77,3.56c3.69,1.44,7.62,2.9,11.75,4.38,36.83,13.18,89.4,27.33,124.93,30.86l.43.05c5.31.51,10.23.79,14.66.79a75.85,75.85,0,0,0,8.46-.42c.64-.07,1.27-.15,1.87-.24a12.46,12.46,0,0,0,7.92-4.54l.35-.45.43-.63a3.28,3.28,0,0,0,.2-.31.91.91,0,0,0,.09-.17.09.09,0,0,0,0-.06,12.4,12.4,0,0,0,1.53-4.18c0-.29.1-.6.16-.91.88-5.18,2-12.48,2.93-21.17.15-1.41.3-2.86.45-4.36a.52.52,0,0,1,0-.17c.16-1.76.32-3.56.46-5.42.59-7.23,1-15.08,1.07-23.23a244,244,0,0,0-1.12-26.3.07.07,0,0,0,0-.05,162.38,162.38,0,0,0-5.14-28.13,12.72,12.72,0,0,0-9.83-9.06c-.39-.08-.78-.16-1.21-.23-7.13-1.34-18.41-3.31-32.73-5.31A778,778,0,0,0,540,232.11Z"/><polygon class="cls-33" points="452.77 428.94 455.27 454.79 512.35 455.8 507.13 429.89 452.77 428.94"/><polygon class="cls-29" points="533.24 416.67 547.94 436.68 512.35 455.8 507.13 429.89 533.24 416.67"/><ellipse class="cls-34" cx="517.86" cy="407.04" rx="16.2" ry="30.53"/><path class="cls-35" d="M464.76,314.69S464.17,328,462.93,329l-14.32,10.59"/><path class="cls-31" d="M300.37,365.31a73.12,73.12,0,0,1-11.06-.74,7,7,0,0,1-5.8-5.81c-3.19-19.39-9.37-68.66,2-107.23a7.08,7.08,0,0,1,5.53-5c31.52-5.73,65.7-8.63,101.57-8.63,18.45,0,37.51.77,56.65,2.29a7,7,0,0,1,6.41,6.24c2.57,23.66,2.24,63.06-.6,74.73-2.87,3.78-23.83,14.42-60.93,25.92C357.22,358.48,322.18,365.31,300.37,365.31Z"/><path class="cls-32" d="M392.57,243.47c18.3,0,37.21.76,56.2,2.27a1.42,1.42,0,0,1,1.28,1.25c2.61,24,2.09,59.15-.13,71.22-5.41,4.22-26.61,14.08-60.06,24.27C354.47,353.26,321,359.7,300.37,359.7a67.16,67.16,0,0,1-10.2-.67,1.4,1.4,0,0,1-1.13-1.17c-3.12-19-9.2-67.28,1.81-104.75A1.5,1.5,0,0,1,292,252c31.2-5.67,65-8.54,100.57-8.54h0m0-11.22c-49.92,0-85,5.52-102.57,8.72a12.71,12.71,0,0,0-9.91,9c-11.73,39.94-5.22,90.82-2.12,109.72a12.63,12.63,0,0,0,10.47,10.44,78.43,78.43,0,0,0,11.93.81c51.74,0,156.78-35.72,160-48s3.46-53,.84-77.14a12.63,12.63,0,0,0-11.54-11.22c-20.74-1.65-39.81-2.31-57.09-2.31Z"/><path class="cls-36" d="M554.73,332.74a36.81,36.81,0,0,1-26.9-12.61A43.53,43.53,0,0,1,517,290.2c.4-22.71,17.73-41.19,38.62-41.19h.63a36.79,36.79,0,0,1,26.91,12.62A43.45,43.45,0,0,1,594,291.55c-.4,22.72-17.72,41.2-38.61,41.2Z"/><path class="cls-37" d="M555.57,253.55h.55c18.74.33,33.69,17.34,33.32,37.92A39,39,0,0,1,579,317.73a32.36,32.36,0,0,1-23.61,10.48h-.56c-18.73-.33-33.68-17.34-33.32-37.92A39,39,0,0,1,532,264a32.39,32.39,0,0,1,23.61-10.47m0-9.08c-23.46,0-42.71,20.28-43.15,45.65-.45,25.63,18.46,46.74,42.23,47.16h.72c23.45,0,42.7-20.29,43.15-45.66.45-25.62-18.46-46.74-42.24-47.16Z"/><path class="cls-36" d="M391.52,331.67a36.79,36.79,0,0,1-26.9-12.61,43.43,43.43,0,0,1-10.88-29.93c.4-22.71,17.72-41.19,38.61-41.19H393a36.76,36.76,0,0,1,26.9,12.62,43.45,43.45,0,0,1,10.88,29.92c-.4,22.72-17.72,41.2-38.62,41.2Z"/><path class="cls-37" d="M392.35,252.48h.56a32.27,32.27,0,0,1,23.6,11.11,39.93,39.93,0,0,1-.74,53.07,32.39,32.39,0,0,1-23.62,10.48h-.55c-18.74-.33-33.68-17.34-33.32-37.92A39,39,0,0,1,368.74,263a32.41,32.41,0,0,1,23.61-10.47m0-9.08c-23.45,0-42.7,20.28-43.15,45.65-.45,25.63,18.46,46.74,42.24,47.16h.71c23.46,0,42.71-20.29,43.16-45.66.45-25.62-18.46-46.74-42.24-47.15Z"/><ellipse class="cls-38" cx="519.06" cy="408.71" rx="15.24" ry="7.04" transform="translate(101.29 920.51) rotate(-88.99)"/><path class="cls-39" d="M448.89,418c-24,3.11-128.95,48.76-128.95,48.76s-6.33,135-2.52,143.49c1.5,9.86,1.46,22.21,23.25,45.12,7.23,3.9,9.92,13.55,157.68,16.63"/><path class="cls-39" d="M533.46,415.29s131,2.43,136.44,5c0,0,2.47,112.42,1.2,119.07"/><ellipse class="cls-40" cx="386.74" cy="279.82" rx="19.09" ry="16.06" transform="translate(100.17 661.58) rotate(-88.99)"/><ellipse class="cls-40" cx="545.94" cy="281.7" rx="19.09" ry="16.06" transform="translate(254.68 822.61) rotate(-88.99)"/><path class="cls-41" d="M494.74,518.61l-129-5.28a9.61,9.61,0,0,0-10,9.75l1.19,76.64a9.6,9.6,0,0,0,9.21,9.45l129.2,5.3a9.6,9.6,0,0,0,10-9.77L504,528.05A9.62,9.62,0,0,0,494.74,518.61Z"/><path class="cls-42" d="M496.75,522.38l-129.32-5.57a7.48,7.48,0,0,0-7.8,7.58l1.19,77.05a7.48,7.48,0,0,0,7.15,7.35l129.3,5.75a7.48,7.48,0,0,0,7.81-7.58l-1.17-77.23A7.48,7.48,0,0,0,496.75,522.38Z"/><path class="cls-43" d="M412.83,557.69l79.59,2.69a4.82,4.82,0,0,0,4.92-4.69L496.81,533a4.83,4.83,0,0,0-4.69-4.92l-79.59-2.69a4.81,4.81,0,0,0-4.92,4.69l.53,22.66A4.82,4.82,0,0,0,412.83,557.69Z"/><ellipse class="cls-44" cx="479.02" cy="543.97" rx="11.63" ry="9.3" transform="translate(-69.16 1018.17) rotate(-89.49)"/><ellipse class="cls-45" cx="450.95" cy="542.79" rx="11.63" ry="9.3" transform="translate(-95.79 988.93) rotate(-89.49)"/><ellipse class="cls-46" cx="423.44" cy="542.44" rx="11.63" ry="9.3" transform="translate(-122.72 961.08) rotate(-89.49)"/><path class="cls-47" d="M428.51,577.63l62.66,2.4a5,5,0,0,0,5.11-4.89h0a5,5,0,0,0-4.89-5.11l-62.67-2.4a5,5,0,0,0-5.1,4.89h0A5,5,0,0,0,428.51,577.63Z"/><path class="cls-48" d="M463.8,609.19l27.84.91a5,5,0,0,0,5.1-4.9h0a5,5,0,0,0-4.89-5.1L464,599.19a5,5,0,0,0-5.11,4.89h0A5,5,0,0,0,463.8,609.19Z"/><path class="cls-48" d="M463.59,595.16l27.83.91a5,5,0,0,0,5.11-4.9h0a5,5,0,0,0-4.9-5.11l-27.83-.9a5,5,0,0,0-5.11,4.89h0A5,5,0,0,0,463.59,595.16Z"/><polygon class="cls-49" points="398.89 525.62 360.83 523.76 362.04 602.03 400.49 603.44 398.89 525.62"/><ellipse class="cls-50" cx="367.31" cy="532.78" rx="4.16" ry="4.82" transform="translate(-8.18 5.73) rotate(-0.88)"/><path class="cls-51" d="M367.23,528s-1.74,6,.42,9.62"/><path class="cls-51" d="M371.46,532.72s-5.31,1.32-8.31.13"/><ellipse class="cls-52" cx="394.62" cy="596.71" rx="4.16" ry="4.82" transform="translate(-9.17 6.16) rotate(-0.88)"/><path class="cls-51" d="M394.55,591.89s-1.75,6,.41,9.63"/><path class="cls-51" d="M398.78,596.64s-5.31,1.33-8.31.13"/><ellipse class="cls-53" cx="367.53" cy="595.52" rx="4.16" ry="4.82" transform="translate(-9.15 5.75) rotate(-0.88)"/><path class="cls-51" d="M367.46,590.71s-1.75,6,.41,9.63"/><path class="cls-51" d="M371.69,595.46s-5.31,1.33-8.31.13"/><ellipse class="cls-54" cx="390.89" cy="533.52" rx="4.16" ry="4.82" transform="translate(-8.19 6.1) rotate(-0.88)"/><path class="cls-51" d="M390.82,528.7s-1.75,6,.41,9.63"/><path class="cls-51" d="M395.05,533.45s-5.31,1.33-8.31.13"/><path class="cls-55" d="M496.28,575.14s-10.88-3.25-21,.32-10.7-5.49-15.4-5.3-5.69,7.1-12.08,6.5-4.33-3.08-7.36-3-3,3.23-5.85,2.9-4.2-9.17-5.88-8.91"/><path class="cls-7" d="M488.36,703.33a67.47,67.47,0,0,1,2.78-10.94c5.12-14.91,21-60,34.77-86.95,8.11-15.87,13.07-26.75,17.28-34.87a69.71,69.71,0,0,1,20.32-23.84c5.67-4.2,12.19-8.92,21.9-12.28,12.68-4.39,26.19-3.77,39.4-1.42,32.92,5.87,50.63,7.24,57,9.54,6.21,4.62,32.42,34.52,33.29,58.93.63,17.62-1.71,41.48-14.8,59.84s-66.41,106.77-88.23,107.77c-25.47,1.16-90.52-5-109-19.54C486.56,736.51,485.51,720.71,488.36,703.33Z"/><path class="cls-8" d="M603.43,765.94c-9.9,0-17.73-2.37-23.91-7.25-15-11.84-16.23-25.65-13.42-42.76a63.2,63.2,0,0,1,2.64-10.35c4.62-13.46,20.78-59.49,34.56-86.46,4.48-8.76,8.07-16.16,11-22.1,2.38-4.91,4.43-9.14,6.3-12.75a66.38,66.38,0,0,1,19.26-22.58c5.1-3.78,11.44-8.49,20.91-11.76a63.1,63.1,0,0,1,20.68-3.44A66.86,66.86,0,0,1,698,548.6c22.56,5.79,37.64,17.29,44.07,22.2l1.56,1.18.8.59c19.74,14.56,30,29.25,30.53,43.66.58,16.41-1.39,39.72-14.13,57.58-5.79,8.11-28.25,27.05-55.89,47.11-28.32,20.56-52.46,35.34-61.51,37.65-1.48.37-3,.77-4.51,1.16C627.75,762.64,615.08,765.94,603.43,765.94Z"/><path d="M681.41,550.17a63.29,63.29,0,0,1,15.68,2c21.84,5.61,36.5,16.79,42.76,21.57l1.6,1.21.8.59a105.91,105.91,0,0,1,17.27,15.38c7.51,8.62,11.47,17.18,11.77,25.45,1,28.7-6.75,45.92-13.44,55.31-5.5,7.7-28.14,26.73-55.06,46.28-27.54,20-51.76,34.88-60.26,37L638,756.17c-11,2.86-23.39,6.09-34.57,6.09-9,0-16.12-2.11-21.64-6.46-6.41-5.06-10.37-10.8-12.09-17.54-1.49-5.84-1.48-12.54,0-21.74a60.1,60.1,0,0,1,2.49-9.74c4.6-13.41,20.68-59.23,34.35-86,4.5-8.81,8.1-16.22,11-22.18,2.37-4.88,4.41-9.09,6.26-12.66A62.51,62.51,0,0,1,642,564.65c4.9-3.63,11-8.15,19.92-11.24a59.38,59.38,0,0,1,19.48-3.24m0-7.36a67.11,67.11,0,0,0-21.89,3.64c-9.71,3.36-16.23,8.08-21.9,12.29a69.52,69.52,0,0,0-20.32,23.84c-4.21,8.11-9.17,19-17.28,34.87-13.77,26.95-29.65,72-34.76,86.94a66.73,66.73,0,0,0-2.79,10.94c-2.85,17.38-1.8,33.19,14.77,46.25,7.57,6,16.65,8,26.19,8,13.74,0,28.43-4.3,40.92-7.49,21.16-5.39,106.39-67.82,119.49-86.19s15.43-42.22,14.8-59.84c-.87-24.41-26.59-42.45-32.8-47.07-5.27-3.92-21.55-17.48-46.92-24a70.24,70.24,0,0,0-17.51-2.23Z"/><ellipse class="cls-9" cx="717.84" cy="628.55" rx="49.01" ry="39.16" transform="translate(66.33 1325.62) rotate(-88.14)"/><ellipse class="cls-9" cx="665.7" cy="696.61" rx="35.12" ry="28.06" transform="translate(-52.15 1339.35) rotate(-88.14)"/><ellipse class="cls-9" cx="608.93" cy="722.42" rx="27.63" ry="22.08" transform="translate(-132.87 1307.58) rotate(-88.14)"/><ellipse class="cls-10" cx="720.35" cy="628.63" rx="18.31" ry="13.32" transform="matrix(0.03, -1, 1, 0.03, 68.68, 1328.2)"/><ellipse class="cls-10" cx="666.9" cy="698.05" rx="11.5" ry="15.81" transform="translate(-131.5 155.29) rotate(-12.1)"/><ellipse class="cls-10" cx="608.86" cy="724.3" rx="8.52" ry="11.71" transform="translate(-138.29 143.71) rotate(-12.1)"/><path class="cls-11" d="M594.72,684.84s6.45-12.44,25.46-5.85c3.61-8.06,11.21-29.92,45.1-26.79-1.53-7.57-14.29-40.42,11.53-72-9.86-4.61-16-7.67-28.86,7.65S593.41,681,594.72,684.84Z"/><line class="cls-12" x1="543.39" y1="570.19" x2="619.33" y2="578.93"/><line class="cls-12" x1="587.79" y1="533.69" x2="672.33" y2="543.41"/><polyline class="cls-12" points="684.39 544.8 706.83 547.38 706.83 547.38"/><line class="cls-12" x1="520.58" y1="616.49" x2="596.24" y2="625.18"/><line class="cls-12" x1="501.84" y1="662.53" x2="577.21" y2="671.19"/><line class="cls-12" x1="487.44" y1="710.33" x2="561.94" y2="718.9"/><ellipse class="cls-56" cx="365.38" cy="456.36" rx="12.84" ry="3.92" transform="translate(-75.05 71.93) rotate(-10.2)"/><path class="cls-57" d="M519.79,96s6.25,107.92-2.06,126.81l13.79,1s5.87-112.93,1-122.22Z"/><path class="cls-58" d="M532.82,223.8l-14.94-.93a4.15,4.15,0,0,0-4.3,3.15l-6.35,25.85a4.16,4.16,0,0,0,3.82,5.14l25,1.28a4.16,4.16,0,0,0,4.33-4.73l-3.72-26.2A4.16,4.16,0,0,0,532.82,223.8Z"/><g class="cls-1"><path class="cls-19" d="M696.82,541.76c.15.76.32,1.63.53,2.61.57,2.75,3,3.29,5.9,1.3,8.94-6.13,26.42-21.21,34.46-29.24a18,18,0,0,0,5-9.55,26.39,26.39,0,0,0-.08-8.82,14.52,14.52,0,0,0-4.09-7.87,5.73,5.73,0,0,0-3.51-.27L728.19,491l-.56,5.4.54,0c-8.67,10.24-22.49,27.69-28,35.08C697.65,534.83,696.28,539.06,696.82,541.76Z"/><path class="cls-20" d="M734.38,499.53a26.45,26.45,0,0,1,.08,8.83,18.1,18.1,0,0,1-5,9.55c-8,8-25.52,23.1-34.45,29.23-2.9,2-5.33,1.46-5.91-1.29-.2-1-.38-1.86-.53-2.61-.53-2.71.84-6.94,3.34-10.29,6.2-8.32,22.9-29.33,31-38.53,2.76-3.15,5.8-4.29,7.38-2.76A14.52,14.52,0,0,1,734.38,499.53Z"/></g><path class="cls-59" d="M701.38,569.74c-14,8.53-34.48,9.35-45.54,1.82a9.29,9.29,0,0,1-.77-.6L583,501.13a7.44,7.44,0,0,1-2.92-5.42l0,0-2.16-26.49,13.64,3.53,4.58,5.45c.69-.48-5,3.81-4.28,3.36,4.6-2.8,1.17-.89,7.21-2.27,5.68-1.3,11.6-.65,15.43,1.72l69.88,44.1h0l27,.35,2.55,23.73.2,1.86a1.71,1.71,0,0,1,0,.32C714.22,557.77,709.81,564.62,701.38,569.74Z"/><path class="cls-59" d="M714.12,551.08l-.2-1.86A11.5,11.5,0,0,1,714.12,551.08Z"/><path class="cls-60" d="M698.56,544.56c-14,8.53-34.47,9.35-45.54,1.82a9.29,9.29,0,0,1-.77-.6l-72.06-69.84a7.19,7.19,0,0,1-1.5-10.09c2.33-3.53,11.51-10.33,17.54-11.71,5.68-1.3,11.6-.65,15.43,1.72l92.5,58.37a10.05,10.05,0,0,1,.87.58C715.5,522.69,712.59,536,698.56,544.56Z"/><g class="cls-1"><ellipse class="cls-61" cx="676.14" cy="529.07" rx="12.42" ry="18.12" transform="translate(84.89 1151.57) rotate(-84.52)"/></g><path class="cls-19" d="M741.76,513.07c-.75,1.43-1.8,3.17-3,5-2.44,3.8-5.55,8.18-8.1,11.69a78.63,78.63,0,0,1-6.87,8.32c-5.08,5-14.77,14.1-18.17,17.14-.65.58-1,.68-.91.35l-.1.12-9-7.2,37.6-43.61,9,7.21-.1.12h0A2.68,2.68,0,0,1,741.76,513.07Z"/><path class="cls-20" d="M730,511.15c-2.22,3.94-5.06,8.49-7.41,12.15a79.4,79.4,0,0,1-6.38,8.7c-4.78,5.32-13.92,14.94-17.14,18.16-1.26,1.26-1.17.46.18-1.94l.16-.28c.42-.73.91-1.57,1.46-2.54a93.24,93.24,0,0,1,6.35-9.35c6.73-8.63,18.78-23.41,23.93-29.47,1.65-1.94,2.26-2.19,1.56-.64S731.06,509.21,730,511.15Z"/><g class="cls-1"><path class="cls-19" d="M704.06,531.52a87.87,87.87,0,0,1-4.87,14.25c-1.18,2.46-4.67,4.72-8.51,5.51l-3.61.73-.37.06c-3.55.61-6.58-.24-7.41-2.15-2.13-4.87-6.29-18.14-7.2-24.64-.31-2.23,2-4.89,5.63-6.48a67,67,0,0,1,15.2-4.71,42.5,42.5,0,0,1,8.83-.65,5.74,5.74,0,0,1,4.34,1.65s.25.56.64,1.49h0c1.23,2.93,3.77,9.46,3.75,12.86C710.46,531.77,707.19,531.92,704.06,531.52Z"/><path class="cls-20" d="M696.66,527.13a42.75,42.75,0,0,1,8.8-1c3.15,0,5.16,1.36,5.11,3.48-.14,6.58-3.19,21.23-6.53,28.93-1.08,2.49-4.5,4.88-8.3,5.8l-3.59.86-.36.08c-3.52.73-6.59,0-7.49-1.89-2.3-4.8-6.93-17.9-8.07-24.37-.39-2.22,1.83-5,5.4-6.68A67,67,0,0,1,696.66,527.13Z"/></g><g class="cls-1"><path class="cls-19" d="M659.7,555.3a12.75,12.75,0,0,1-2.36-.53c-3.88-1.34-10.81-3.95-17.6-6.68l-11.8,7.54-5.77-16.08,0-.08,0-.19c-.19-.93.36-1.92,1.64-2.81,3.81-2.63,10.4-6.06,20.26-7.65l.84-.13c3.6-.54,7.23-.06,9.26,1.23,6.31,4,17.25,13.36,21,18.57h0s.13.23.29.55a.08.08,0,0,0,0,0c1.29,2.57,5.39,14.3,5.22,16.88C680.49,568.05,667.79,559.54,659.7,555.3Z"/><path class="cls-20" d="M649.39,544.65l.83-.11c3.61-.46,7.23.11,9.23,1.44,6.23,4.14,17,13.74,20.6,19,1.19,1.72-.41,3.7-3.87,4.82l-3.27,1a16.11,16.11,0,0,1-2.78.62,17.48,17.48,0,0,1-8-.62c-7.29-2.67-25.32-10.21-32.9-14.09-2.6-1.33-2.72-3.36-.31-4.95C632.83,549.3,639.49,546,649.39,544.65Z"/></g></svg>