<?xml version="1.0" encoding="utf-8"?>
<!-- Generator: Adobe Illustrator 23.0.2, SVG Export Plug-In . SVG Version: 6.00 Build 0)  -->
<svg version="1.1" id="Layer_1" xmlns="http://www.w3.org/2000/svg" xmlns:xlink="http://www.w3.org/1999/xlink" x="0px" y="0px"
	 viewBox="0 0 780 832" style="enable-background:new 0 0 780 832;" xml:space="preserve">
<style type="text/css">
	.st0{fill:#751511;}
	.st1{fill:#F93419;}
	.st2{fill:#FF4940;}
	.st3{fill:#FFFDFA;}
	.st4{fill:#2E1B00;}
	.st5{fill:#FC7D70;}
</style>
<title>back-button-pressed</title>
<g id="Layer_6">
	<path d="M391.8,48.2c-0.4,0-0.8,0-1.2,0c-0.2-0.1-0.4-0.1-0.6-0.1c-0.6,0-1.2,0-1.8,0c0.8,2,2.3,4,3.5,4h0.1
		C392.9,52.1,392.6,50.2,391.8,48.2z"/>
	<path d="M388.3,54.2c-1.1,0-0.9,2-0.1,3.9c0.6,0,1.2,0,1.8,0s1.2,0,1.8,0C390.9,56.2,389.5,54.2,388.3,54.2z"/>
	<path d="M770.4,359.8c-15.5-77.5-54.7-149.3-111-204.6C602.5,99.3,528.5,61.6,449.6,49c-20.3-3.2-40.8-4.8-61.4-4.8
		c-81.7,0.2-162.2,26.1-228.1,74.5C61.2,191,2.5,306.1,2.1,428.6c-0.2,41.1,3.4,81.3,14.5,121c21.5,76,65.2,143.8,125.5,194.9
		c61.8,52.2,138.5,83.8,219.2,90.2c82.2,6.4,165.4-13.7,235.4-57.5c102.9-64.4,169.5-173.4,179.8-294.4
		C780,442,778.4,400,770.4,359.8z M748.8,545.1C706.1,696,574,804.5,417.6,816.9c-77.8,6-156.4-12.4-223.2-52.8
		C129.9,724.9,77.9,666,47.7,596.7c-15.6-35.9-25.3-74-28.8-112.9c-3.7-40.4-2.2-82.1,5.8-121.8C56,208.5,179.5,90.7,334.3,66.5
		c19-2.9,38.2-4.4,57.5-4.4c77.6,0.1,154.1,24.2,217.3,69.4c61.5,44,108.8,106.7,133.5,178.2c12.9,37.5,19.7,76.8,20.1,116.5
		C763.2,466.5,759.8,506.1,748.8,545.1z"/>
	<circle class="st0" cx="390" cy="446.7" r="375.3"/>
	<g>
		<path class="st1" d="M391,805.9c-43.8,0-86.6-7.6-127.4-22.4c-39.4-14.4-75.8-35.3-108.3-62c-65.2-53.8-110.5-128.7-127.5-211
			c-5.1-24.6-7.7-49.9-7.7-75.3c0-0.4,0-0.7,0-1c0.2-50,10.1-98.5,29.4-144c18.7-44,45.5-83.6,79.5-117.5
			c70-69.8,163-108.2,261.8-108.2c50.1,0,98.6,9.8,144.3,29.1c44.2,18.7,83.8,45.4,117.9,79.5c34.1,34.1,60.8,73.7,79.5,117.9
			c19.3,45.7,29.1,94.3,29.1,144.3c0,17.1-1.2,34.3-3.5,51.2c-3.2,23.1-8.6,46-16.1,68c-12.3,36.2-30.1,70.2-52.9,101
			c-22.6,30.5-49.5,57.3-80.2,79.6C545.5,781.3,470,805.9,391,805.9z"/>
	</g>
	<path class="st2" d="M746.5,555.7C696.2,703.8,556.1,810.4,391,810.4C209.8,810.4,58.7,682,23.5,511.3
		c83.3-83.8,205.8-136.6,342.3-136.6C525.1,374.6,665.3,446.7,746.5,555.7z"/>
	<path class="st3" d="M338,667.6c-8.8,0-17.2-3.5-23.4-9.8L123.7,466.9c-13-13-13-34,0-47L314.6,229c6.2-6.3,14.6-9.8,23.4-9.8
		c16.4,0,33.4,12.4,33.4,33.3v78.1c0,6.7,5.5,12.2,12.2,12.2l288.1,0.5c18.4,0,33.2,14.9,33.2,33.3v133.6
		c0,18.3-14.9,33.2-33.2,33.2l-288.1-0.5c-6.7,0-12.2,5.5-12.2,12.2v79.1C371.4,655.1,354.4,667.6,338,667.6L338,667.6z"/>
	<path class="st4" d="M338,226.7c16.7,0,29.3,13.9,30.7,29c2,21.9-0.4,50.8-0.6,72.8c-0.2,21.1,7,22.3,27,22.2
		c84.7-0.2,169.4,2,254.2,1.9c15.1,0,45-7.5,48.4,12.6c1.2,7.1,2.2,14.2,2.8,21.4c3.1,40,0.5,83.2-3.7,123.2
		c-0.5,4.9-1.4,12.9-4,17.1c-3.1,4.9-12,11-17.6,12.7c-19.4,6-47.3,0.7-67.3,0.6c-23.8-0.1-39.9-4.4-63.7-4.5
		c-51.7-0.5-105.6-6.7-157.1-0.6c-7.7,0.9-15.7,4-19.9,10.5c-3.5,5.5,0.9,23.6,0.9,30.1c0.1,19.3,1.4,37.5,0.6,56.9
		c-0.5,11.8-5.9,18.8-16.7,26.2c-15.5,10.7-34.2-8.9-44.6-18.6c-55.5-51.7-115.7-110-169.3-163.6c-17.9-17.9-26.8-31.3-9.2-55
		c47.6-54,100.7-108.2,152.9-157.2C294.5,252.3,318.9,233.1,338,226.7 M338,211.7c-10.8,0-21.1,4.3-28.6,12l-191,190.9
		c-15.9,15.9-15.9,41.7,0,57.6l190.9,190.9c7.6,7.7,17.9,12,28.6,12c10.3,0,20.2-3.9,27.8-10.7c8.5-7.7,13.2-18.6,13.1-30.1v-79.2
		c0-2.6,2.1-4.7,4.7-4.7l288.1,0.5c22.5,0,40.7-18.2,40.8-40.7V376.5c0-22.5-18.2-40.8-40.7-40.8l-288.1-0.5c-2.6,0-4.8-2.1-4.8-4.7
		l0,0v-78.1c0.1-11.4-4.6-22.4-13.1-30.1C358.1,215.5,348.3,211.7,338,211.7L338,211.7z"/>
	
		<ellipse transform="matrix(0.9568 -0.2907 0.2907 0.9568 -24.5621 92.0963)" class="st5" cx="297.7" cy="128.7" rx="83.2" ry="31.8"/>
	
		<ellipse transform="matrix(0.9982 -6.065643e-02 6.065643e-02 0.9982 -11.2421 11.871)" class="st5" cx="189.9" cy="191.1" rx="31.5" ry="28.1"/>
	<path class="st2" d="M391,68.8c49.5,0,97.4,9.7,142.6,28.8c43.6,18.4,82.8,44.9,116.4,78.5c33.6,33.6,60.1,72.8,78.5,116.4
		c19.1,45.2,28.8,93.1,28.8,142.6c0,16.9-1.2,33.9-3.5,50.6c-3.2,22.9-8.5,45.5-15.9,67.2c-12.1,35.7-29.7,69.3-52.2,99.8
		c-22.3,30.1-48.9,56.6-79.2,78.7c-30.6,22.3-64.4,39.7-100.2,51.6c-37.1,12.3-75.9,18.5-115.3,18.5c-43.2,0-85.6-7.5-125.8-22.2
		c-38.9-14.2-74.9-34.8-107-61.3c-31.8-26.2-58.8-57.4-80.3-92.5c-21.8-35.9-37.2-74.9-45.7-115.9c-5-24.3-7.6-49.3-7.6-74.4
		c0-0.3,0-0.6,0-0.9v-0.1v-0.1c0.1-49.3,9.9-97.2,29.1-142.2c18.5-43.5,44.9-82.5,78.6-116.1c33.6-33.5,72.8-59.9,116.3-78.2
		C293.8,78.4,341.6,68.8,391,68.8 M391,59.8c-206.9,0-374.7,167.4-375.3,374.1c0,0.4,0,0.8,0,1.2c0,26.1,2.7,51.6,7.8,76.2
		C58.7,682,209.8,810.4,391,810.4c165.1,0,305.2-106.5,355.5-254.6c7.5-22.1,13-45.1,16.3-68.8c2.3-16.9,3.5-34.2,3.5-51.8
		C766.3,227.8,598.3,59.8,391,59.8L391,59.8z"/>
</g>
</svg>
