<?xml version="1.0" encoding="utf-8"?>
<!-- Generator: Adobe Illustrator 23.0.2, SVG Export Plug-In . SVG Version: 6.00 Build 0)  -->
<svg version="1.1" id="Layer_1" xmlns="http://www.w3.org/2000/svg" xmlns:xlink="http://www.w3.org/1999/xlink" x="0px" y="0px"
	 viewBox="0 0 780 832" style="enable-background:new 0 0 780 832;" xml:space="preserve">
<style type="text/css">
	.st0{fill:#2E1B00;}
	.st1{fill:#751511;}
	.st2{fill:#F93419;}
	.st3{fill:#FF4940;}
	.st4{fill:#FFFDFA;}
	.st5{fill:#FC7D70;}
</style>
<title>back-button</title>
<g id="Layer_5">
	<path class="st0" d="M391.9,9.6L391.9,9.6c-0.8,0-2.3,1-3.3,2c0.5,0,0.9,0,1.4,0v0c0.5,0,0.9,0,1.4,0C392.4,10.7,393,9.6,391.9,9.6
		z M390.6,1.7H390v0c-0.5,0-0.9,0-1.4,0c-1,1-1.6,2-0.5,2h0.3c0.8-0.2,2.1-1.1,3-2C391.1,1.7,390.8,1.7,390.6,1.7z"/>
	<path class="st0" d="M777.6,402c0.9-22.1,0-44.2-2.8-66.1c-10.8-82.7-48-159.7-106.2-219.5c-57.5-59-133.5-98.9-214.9-111.9
		c-20.5-3.2-41.1-4.9-61.8-4.9c1.1,0,0.5,1-0.5,2c-0.9,0.9-2.2,1.8-3,2h-0.3c-1.1,0-0.5-1,0.5-2c1-1,2.5-2,3.3-2
		c-83.7,0.2-165.1,27.2-232.3,77C95,124.7,45.8,192.3,20.9,269C7.7,309.8,1.3,352.4,2.1,395.2c0.1,5.5,0.3,11,0.6,16.5
		c0.2,5.8,0.1,11.6-0.3,17.3c-0.5,11.4-0.5,22.8,0,34.1c8.4,194.5,160.3,352.2,354.3,367.9c167.7,13.2,325.1-82.2,390.9-237.1
		c16.7-39.6,26.7-81.7,29.5-124.5C778.6,447,776.7,424.5,777.6,402z M391.4,11.7c-1,1-2.5,2-3.3,2c-1.1,0-0.5-1,0.5-2
		c1-1,2.5-2,3.3-2h0C393,9.6,392.4,10.7,391.4,11.7z"/>
	<path class="st0" d="M391.4,11.7c-1,1-2.5,2-3.3,2c-1.1,0-0.5-1,0.5-2c1-1,2.5-2,3.3-2h0C393,9.6,392.4,10.7,391.4,11.7z"/>
	<path class="st0" d="M391.4,1.7c-0.9,0.9-2.2,1.8-3,2h-0.3c-1.1,0-0.5-1,0.5-2c1-1,2.5-2,3.3-2h0C393-0.4,392.4,0.7,391.4,1.7z"/>
	<circle class="st1" cx="390" cy="444.4" r="375.3"/>
	<g>
		<path class="st2" d="M390,757.1c-43.8,0-86.6-7.6-127.4-22.4c-39.4-14.4-75.8-35.3-108.3-62c-65.2-53.8-110.5-128.7-127.5-211
			c-5.1-24.6-7.7-49.9-7.7-75.3c0-0.4,0-0.7,0-1c0.2-50,10.1-98.5,29.4-144c18.7-44,45.5-83.6,79.5-117.5
			c70-69.8,163-108.2,261.8-108.2c50.1,0,98.6,9.8,144.3,29.1c44.2,18.7,83.8,45.4,117.9,79.5c34.1,34.1,60.8,73.7,79.5,117.9
			c19.3,45.7,29.1,94.3,29.1,144.3c0,17.1-1.2,34.3-3.5,51.2c-3.2,23.1-8.6,46-16.1,68c-12.3,36.2-30.1,70.2-52.9,101
			c-22.6,30.5-49.5,57.3-80.2,79.6C544.5,732.6,469,757.1,390,757.1z"/>
	</g>
	<path class="st3" d="M745.5,507C695.2,655,555.1,761.6,390,761.6c-181.2,0-332.3-128.4-367.5-299.1
		c83.3-83.8,205.8-136.7,342.3-136.7C524.1,325.9,664.3,397.9,745.5,507z"/>
	<path class="st4" d="M337,618.8c-8.8,0-17.2-3.5-23.4-9.8L122.7,418.1c-13-13-13-34,0-47l190.9-190.9c6.2-6.3,14.6-9.8,23.4-9.8
		c16.4,0,33.4,12.4,33.4,33.3v78.1c0,6.7,5.5,12.2,12.2,12.2l288.1,0.5c18.4,0,33.2,14.9,33.2,33.3v133.6
		c0,18.3-14.9,33.2-33.2,33.2l-288.1-0.5c-6.7,0-12.2,5.5-12.2,12.2v79.1C370.4,606.4,353.4,618.8,337,618.8L337,618.8z"/>
	<path class="st0" d="M337,177.9c16.7,0,29.3,13.9,30.7,29c2,21.9-0.4,50.8-0.6,72.8c-0.2,21.1,7,22.3,27,22.2
		c84.7-0.2,169.4,2,254.2,1.9c15.1,0,45-7.5,48.4,12.6c1.2,7.1,2.2,14.2,2.8,21.4c3.1,40,0.5,83.2-3.7,123.2
		c-0.5,4.9-1.4,12.9-4,17.1c-3.1,4.9-12,11-17.6,12.7c-19.4,6-47.3,0.7-67.3,0.6c-23.8-0.1-39.9-4.4-63.7-4.5
		c-51.8-0.5-105.6-6.7-157.1-0.6c-7.7,0.9-15.7,4-19.9,10.5c-3.5,5.5,0.9,23.6,0.9,30.1c0.1,19.3,1.4,37.5,0.6,56.9
		c-0.5,11.8-5.9,18.8-16.7,26.2c-15.5,10.7-34.2-8.9-44.6-18.6c-55.5-51.7-115.7-110-169.3-163.6c-17.9-17.9-26.8-31.3-9.2-55
		c47.6-54,100.7-108.2,152.9-157.2C293.5,203.6,317.9,184.4,337,177.9 M337,162.9c-10.8,0-21.1,4.3-28.6,12l-191,190.9
		c-15.9,15.9-15.9,41.7,0,57.6l190.9,190.9c7.6,7.7,17.9,12,28.6,12c10.3,0,20.2-3.9,27.8-10.7c8.5-7.7,13.2-18.6,13.1-30.1v-79.2
		c0-2.6,2.1-4.7,4.7-4.7l288.1,0.5c22.5,0,40.7-18.2,40.8-40.7V327.8c0-22.5-18.2-40.8-40.7-40.8l-288.1-0.5c-2.6,0-4.8-2.1-4.8-4.7
		c0,0,0,0,0,0v-78.1c0.1-11.4-4.6-22.4-13.1-30.1C357.1,166.8,347.3,163,337,162.9L337,162.9z"/>
	<ellipse transform="matrix(0.9568 -0.2907 0.2907 0.9568 -10.4342 89.7196)" class="st5" cx="296.7" cy="80" rx="83.2" ry="31.8"/>
	
		<ellipse transform="matrix(0.9982 -6.065894e-02 6.065894e-02 0.9982 -8.2852 11.7179)" class="st5" cx="188.9" cy="142.3" rx="31.5" ry="28.1"/>
	<path class="st3" d="M390,20c49.5,0,97.4,9.7,142.6,28.8c43.6,18.4,82.8,44.9,116.4,78.5c33.6,33.6,60.1,72.8,78.5,116.4
		c19.1,45.2,28.8,93.1,28.8,142.6c0,16.9-1.2,33.9-3.5,50.6c-3.2,22.9-8.5,45.5-15.9,67.2c-12.1,35.7-29.7,69.3-52.2,99.8
		c-22.3,30.1-48.9,56.6-79.2,78.7c-30.6,22.3-64.4,39.7-100.2,51.6c-37.1,12.3-75.9,18.5-115.3,18.5c-43.2,0-85.6-7.5-125.8-22.2
		c-38.9-14.2-74.9-34.8-107-61.3c-31.8-26.2-58.8-57.4-80.3-92.5c-21.8-35.9-37.2-74.9-45.7-115.9c-5-24.3-7.6-49.3-7.6-74.4
		c0-0.3,0-0.6,0-0.9l0-0.1l0-0.1c0.1-49.3,9.9-97.2,29.1-142.2c18.5-43.5,44.9-82.5,78.6-116.1c33.6-33.5,72.8-59.9,116.3-78.2
		C292.8,29.7,340.6,20,390,20 M390,11C183.1,11,15.3,178.4,14.7,385.1c0,0.4,0,0.8,0,1.2c0,26.1,2.7,51.6,7.7,76.2
		C57.7,633.2,208.8,761.6,390,761.6c165.1,0,305.2-106.5,355.5-254.6c7.5-22.1,13-45.1,16.3-68.9c2.3-16.9,3.5-34.2,3.5-51.8
		C765.3,179,597.3,11,390,11L390,11z"/>
</g>
</svg>
