<?xml version="1.0" encoding="utf-8"?>
<!-- Generator: Adobe Illustrator 23.0.2, SVG Export Plug-In . SVG Version: 6.00 Build 0)  -->
<svg version="1.1" id="Layer_1" xmlns="http://www.w3.org/2000/svg" xmlns:xlink="http://www.w3.org/1999/xlink" x="0px" y="0px"
	 viewBox="0 0 780 832" style="enable-background:new 0 0 780 832;" xml:space="preserve">
<style type="text/css">
	.st0{fill:#2E1B00;}
	.st1{fill:#A55002;}
	.st2{fill:#F27B00;}
	.st3{opacity:0.15;fill:#FFFFFF;}
	.st4{fill:#F78C2D;}
	.st5{fill:#FFFDFA;}
</style>
<title>close-button-pressed</title>
<g id="Layer_7">
	<path d="M390,54.6c207.3,0,375.3,168,375.3,375.3c0,2.2,0,4.4-0.1,6.6c0,2.2,0,4.4,0.1,6.6c0,207.3-168,375.3-375.3,375.3
		S14.7,650.5,14.7,443.2c0-2.2,0-4.4,0.1-6.6c0-2.2,0-4.4-0.1-6.6C14.7,222.7,182.7,54.6,390,54.6 M390,44.6
		C177.4,44.5,4.9,216.7,4.7,429.3c0,0.2,0,0.4,0,0.6c0,2.2,0,4.4,0.1,6.6s-0.1,4.4-0.1,6.6c0.1,212.8,172.8,385.3,385.6,385.2
		C545,828.3,684.7,735.7,745,593.2c20.1-47.5,30.4-98.5,30.3-150c0-2.2,0-4.4-0.1-6.6s0.1-4.4,0.1-6.6
		c0.2-212.6-172.1-385.1-384.7-385.3C390.4,44.6,390.2,44.6,390,44.6L390,44.6z"/>
	<path class="st0" d="M391.7,58.6C469.4,58.7,545.8,82.8,609,128c61.5,44,108.8,106.7,133.5,178.2c12.9,37.5,19.7,76.8,20.1,116.5
		c0.5,40.3-2.9,79.9-13.9,118.9C706.1,692.5,574,801,417.6,813.4c-77.8,6-156.4-12.4-223.2-52.8c-64.6-39.2-116.6-98-146.8-167.4
		c-15.6-35.9-25.3-74-28.8-112.9c-3.7-40.3-2.2-82.1,5.8-121.8C56,205,179.5,87.2,334.2,63C353.3,60.1,372.5,58.6,391.7,58.6
		c2.2,0-1.1-7.9-3.5-7.9c-79.1,0.2-157,25.1-221,71.7C70.8,192.3,13.3,303.7,12.1,422.7c-0.4,40.9,3.1,81,14.1,120.5
		c21,74.5,63.9,140.9,123.1,190.8c60.2,50.5,134.7,81,213,87.3c79.2,6.1,159.4-13,227-54.8c100.6-62,166.2-167.7,177-285.4
		c3.8-40.9,2.3-83-5.8-123.3c-15.3-75.9-54-146.3-109.5-200.2c-55.7-54.1-126.6-89.8-203.3-102.2c-19.7-3.1-39.6-4.7-59.5-4.7
		C386,50.7,389.3,58.6,391.7,58.6z"/>
	<path class="st0" d="M388.2,40.7c-81.7,0.2-162.2,26.1-228.1,74.5c-98.9,72.3-157.6,187.4-158,310c-0.2,41.1,3.4,81.3,14.5,121
		C38.2,622.1,81.9,690,142.1,741c61.8,52.2,138.5,83.8,219.2,90.2c82.2,6.4,165.4-13.7,235.4-57.5
		c102.9-64.4,169.6-173.4,179.8-294.4c3.5-40.8,1.9-82.8-6.1-123c-15.5-77.5-54.7-149.3-111-204.6c-56.9-56-130.9-93.6-209.8-106.2
		C429.3,42.3,408.8,40.7,388.2,40.7c-2.2,0,1.1,7.9,3.5,7.9c80.2,0.2,159.3,25.2,224.4,72.2c62.7,45.3,110.8,109.5,136,182.7
		c13.4,39.1,20.3,80.2,20.5,121.6c0.2,40.9-3.3,81-14.6,120.5C713.8,700.2,578.1,811,417.8,823.4c-80.2,6.1-161.2-13.1-229.8-55.1
		C122.2,728.2,69.4,668,38.6,597.4c-16.5-38-26.7-78.5-30-119.9c-3.2-40.1-1.7-81.3,6.2-120.8C46.8,199.5,173,78.6,331.5,53.3
		c19.9-3.1,40.1-4.7,60.3-4.7C394,48.6,390.6,40.7,388.2,40.7z"/>
	<circle class="st1" cx="390" cy="443.2" r="375.3"/>
</g>
<g>
	<path class="st2" d="M391.7,805.6c-43.8,0-86.6-7.6-127.4-22.4c-39.4-14.4-75.8-35.3-108.3-62c-65.2-53.8-110.5-128.7-127.5-211
		c-5.1-24.6-7.7-49.9-7.7-75.3c0-0.4,0-0.7,0-1c0.2-50,10.1-98.5,29.4-144c18.7-44,45.5-83.6,79.5-117.5
		c70-69.8,163-108.2,261.8-108.2c50.1,0,98.6,9.8,144.3,29.1c44.2,18.7,83.8,45.4,117.9,79.5c34.1,34.1,60.8,73.7,79.5,117.9
		c19.3,45.7,29.1,94.3,29.1,144.3c0,17.1-1.2,34.3-3.5,51.2c-3.2,23.1-8.6,46-16.1,68c-12.3,36.2-30.1,70.2-52.9,101
		c-22.6,30.5-49.5,57.3-80.2,79.6C546.1,781,470.7,805.6,391.7,805.6z"/>
</g>
<path class="st3" d="M747.1,555.4c-50.2,148.1-190.4,254.6-355.5,254.6C210.5,810.1,59.3,681.7,24.1,511
	c83.3-83.8,205.8-136.7,342.3-136.7C525.8,374.3,666,446.4,747.1,555.4z"/>
<ellipse transform="matrix(0.9568 -0.2907 0.2907 0.9568 -24.4546 92.3001)" class="st3" cx="298.4" cy="128.4" rx="83.2" ry="31.8"/>
<ellipse transform="matrix(0.9982 -6.065894e-02 6.065894e-02 0.9982 -11.2225 11.9087)" class="st3" cx="190.5" cy="190.8" rx="31.5" ry="28.1"/>
<path class="st4" d="M391.7,68.5c49.5,0,97.4,9.7,142.6,28.8c43.6,18.4,82.8,44.9,116.4,78.5c33.6,33.6,60.1,72.8,78.5,116.4
	c19.1,45.2,28.8,93.1,28.8,142.6c0,16.9-1.2,33.9-3.5,50.6c-3.2,22.9-8.5,45.5-15.9,67.2c-12.1,35.7-29.7,69.3-52.2,99.8
	c-22.3,30.1-48.9,56.6-79.2,78.7c-30.6,22.3-64.4,39.7-100.2,51.6c-37.1,12.3-75.9,18.5-115.3,18.5c-43.2,0-85.6-7.5-125.8-22.2
	c-38.9-14.2-74.9-34.8-107-61.3c-31.8-26.2-58.8-57.4-80.3-92.5c-21.8-35.9-37.2-74.9-45.7-115.9c-5-24.3-7.6-49.3-7.6-74.4
	c0-0.3,0-0.6,0-0.9l0-0.1l0-0.1c0.1-49.3,9.9-97.2,29.1-142.2C73,248,99.4,208.9,133,175.4c33.6-33.5,72.8-59.9,116.3-78.2
	C294.4,78.1,342.3,68.5,391.7,68.5 M391.7,59.5C184.8,59.5,17,226.9,16.4,433.6c0,0.4,0,0.8,0,1.2c0,26.1,2.7,51.6,7.8,76.2
	c35.2,170.7,186.4,299.1,367.5,299.1c165.1,0,305.2-106.6,355.5-254.6c7.5-22.1,13-45.1,16.3-68.9c2.3-16.9,3.5-34.2,3.5-51.8
	C767,227.5,598.9,59.5,391.7,59.5L391.7,59.5z"/>
<path class="st5" d="M327.5,668.4c-7.4,0-14.6-2.3-20.7-6.5l-110.3-76.8c-16.4-11.5-20.5-34-9.1-50.5l47-67.5
	c6.7-9.6,4.3-22.9-5.3-29.6l-67.5-47c-16.4-11.4-20.5-34-9.1-50.5c0,0,0,0,0,0l76.8-110.2c11.4-16.4,34.1-20.5,50.5-9.1l67.5,47
	c3.6,2.5,7.8,3.8,12.1,3.8c7,0,13.5-3.4,17.5-9.1l47-67.5c11.5-16.4,34.1-20.5,50.5-9c0,0,0,0,0,0l110.3,76.7
	c16.4,11.5,20.4,34.1,9,50.5l-47,67.5c-6.7,9.6-4.3,22.9,5.3,29.6l67.5,47c16.4,11.5,20.4,34.1,9,50.5L552,618
	c-11.5,16.4-34.1,20.5-50.5,9c0,0,0,0,0,0l-67.5-47c-9.6-6.7-22.9-4.4-29.6,5.3c0,0,0,0,0,0l-47,67.5
	C350.5,662.6,339.4,668.4,327.5,668.4z"/>
<path class="st0" d="M453.8,186.8c5.9,0,11.6,1.8,16.4,5.2l110.3,76.7c13,9.1,7.9,39.1-1.2,52.1l-38.6,55.5c-9.1,13-5.9,31,7.2,40.1
	l79.6,48.1c13,9.1,4.2,25.9-4.8,38.9l-76.8,110.3c-9.1,13-27,16.3-40,7.2c0,0,0,0,0,0L446.1,587c-5-3.5-18.6-18.3-24.3-18.3
	c-9.4,0-18.3,4.6-23.6,12.3l-48.5,79.9c-5.6,8-13,0-22.1,0c-5.9,0-11.6-1.8-16.4-5.2l-122.8-79.6c-13-9.1-3.7-24.2,5.3-37.2l47-67.5
	c9.1-13-3.7-31.8-16.8-40.8l-58-46.2c-13-9.1-9.4-27-0.3-40.1l50.8-83c5.6-8,33.5-39.6,42.6-39.6c5.9,0,11.6,1.8,16.4,5.2l67.5,42.5
	c5,3.5,10.8,9.7,16.4,9.7c9.1,0,25.6-28.2,31.2-36.3l39.5-43.5C435.5,191.4,444.4,186.8,453.8,186.8 M453.8,171.8L453.8,171.8
	c-14.3,0-27.8,7-36,18.8l-47,67.5c-4.3,6.2-12.9,7.8-19.2,3.4l-67.5-47c-19.8-13.8-47.1-8.9-60.9,10.9c0,0,0,0,0,0l-76.8,110.3
	c-13.8,19.9-8.9,47.1,10.9,60.9l67.5,47c6.2,4.3,7.8,12.9,3.4,19.2c0,0,0,0,0,0l-47,67.5c-13.8,19.8-8.9,47.1,10.9,60.9L302.5,668
	c19.8,13.8,47.1,8.9,60.9-10.9c0,0,0,0,0,0l47-67.5c4.3-6.3,12.9-7.8,19.1-3.5c0,0,0,0,0.1,0l67.5,47c19.8,13.8,47.1,8.9,60.9-10.9
	c0,0,0,0,0,0l76.7-110.3c13.8-19.8,8.9-47.1-10.9-60.9c0,0,0,0,0,0l-67.5-47c-6.2-4.4-7.8-12.9-3.4-19.2l47-67.5
	c13.8-19.8,8.9-47.1-10.9-60.9l-110.3-76.7C471.5,174.5,462.7,171.8,453.8,171.8L453.8,171.8z"/>
</svg>
