<?xml version="1.0" encoding="utf-8"?>
<!-- Generator: Adobe Illustrator 23.0.2, SVG Export Plug-In . SVG Version: 6.00 Build 0)  -->
<svg version="1.1" id="Layer_1" xmlns="http://www.w3.org/2000/svg" xmlns:xlink="http://www.w3.org/1999/xlink" x="0px" y="0px"
	 viewBox="0 0 780 832" style="enable-background:new 0 0 780 832;" xml:space="preserve">
<style type="text/css">
	.st0{fill:#2E1B00;}
	.st1{fill:#A55002;}
	.st2{fill:#F27B00;}
	.st3{opacity:0.15;fill:#FFFFFF;}
	.st4{fill:#F78C2D;}
	.st5{fill:#FFFDFA;}
</style>
<title>close-button</title>
<g id="Layer_5">
	<path class="st0" d="M390,11c207.3,0,375.3,168,375.3,375.3c0,9.8-0.4,19.4-1.1,29c0.7,9.6,1.1,19.2,1.1,29
		c0,207.3-168,375.3-375.3,375.3S14.7,651.7,14.7,444.4c0-9.8,0.4-19.4,1.1-29c-0.7-9.6-1.1-19.2-1.1-29C14.7,179,182.7,11,390,11
		 M390,1C177.4,0.8,4.9,173.1,4.7,385.7c0,0.2,0,0.4,0,0.6c0,9.7,0.4,19.5,1.1,29c-0.7,9.6-1.1,19.4-1.1,29
		c0,212.8,172.6,385.3,385.5,385.3c154.8,0,294.6-92.7,354.9-235.2c20.1-47.5,30.4-98.5,30.3-150c0-9.7-0.4-19.5-1.1-29
		c0.7-9.6,1.1-19.4,1.1-29C775.5,173.7,603.3,1.2,390.6,1C390.4,1,390.2,1,390,1z"/>
	<path class="st0" d="M388.1,13c80,0.1,158.8,25.9,223,73.7c96.5,71.4,152.9,184.9,151.4,305c-0.1,6.5-0.3,12.9-0.7,19.4
		c-0.5,7.4,0.2,14.7,0.5,22.1c0.4,11.5,0.2,22.9-0.4,34.4c-5.6,99.7-51,192.9-126.1,258.7c-60,52.4-135.2,84-214.6,90.2
		C215.1,832.8,34.8,678.8,18.5,472.7c0-0.6-0.1-1.2-0.1-1.8c-0.8-10.6-1.1-21.2-1-31.9c0.1-7.1,0.3-14.2,0.8-21.3
		c0.5-7-0.4-14.1-0.6-21.2c-0.7-21.5,0.5-43.1,3.5-64.4C43.5,171.5,167.7,44.1,327.7,17.9C347.7,14.6,367.9,13,388.1,13
		c1.6,0,6-4.1,3.8-4.1c-80.6,0.2-159.1,25.9-224.2,73.5C104.5,128.8,56,194.3,31.2,268.7c-13,39-19.5,79.9-19.2,121
		c0,7.1,0.2,14.2,0.7,21.3c0.5,7.7-0.3,15.4-0.5,23.1c-0.3,11.4-0.2,22.8,0.5,34.1c11.2,186.8,158.1,336.9,344.6,352.2
		c81,6.4,161.9-13.2,231-56c66.4-41.3,119.5-103,150-175c15.7-37.2,25.3-76.8,28.5-117.1c0.9-11.1,1.2-22.2,1.1-33.3
		c-0.1-7.1-0.3-14.2-0.8-21.3c-0.5-7,0.4-14.1,0.7-21.2c5.9-188.9-129.3-352.7-315.9-382.8C432,10.6,412,9,391.9,9
		C390.3,9,385.9,13.1,388.1,13L388.1,13z"/>
	<path class="st0" d="M391.9-1c-83.7,0.2-165.1,27.2-232.3,77C95,124,45.8,191.6,20.8,268.3C7.6,309.1,1.3,351.7,2.1,394.6
		c0.1,5.5,0.3,11,0.6,16.5c0.2,5.8,0.1,11.6-0.3,17.4c-0.5,11.4-0.5,22.8,0,34.1C10.8,657,162.7,814.7,356.7,830.5
		c167.7,13.2,325.1-82.3,390.9-237.2c16.7-39.6,26.7-81.7,29.5-124.5c1.5-22.5-0.4-45,0.5-67.4c0.9-22.1,0-44.2-2.8-66.1
		c-10.8-82.7-48-159.7-106.1-219.5c-57.5-59-133.5-98.8-215-111.9C433.3,0.6,412.6-1,391.9-1c-1.6,0-6,4.1-3.8,4.1
		C470.8,3.2,552.3,30,618.5,79.7c99.3,74.2,156.7,191.8,154,315.8c-0.1,5.2-0.3,10.4-0.6,15.5c-0.2,5.8-0.1,11.6,0.3,17.4
		c0.5,10.8,0.5,21.5,0.1,32.3c-0.8,20.8-3.2,41.5-7.3,61.9C731.6,689,591.7,813.1,422.4,826.5C256.1,839.7,100.2,744.2,36.5,590
		c-16.2-39.2-25.8-80.7-28.4-123.1c-1.3-21.6,0.6-43.1-0.3-64.6c-1-21.5-0.2-43,2.4-64.4C30.3,170.2,158.7,35.8,325.4,8.1
		c20.7-3.3,41.7-5,62.7-5C389.7,3,394.1-1,391.9-1z"/>
	<circle class="st1" cx="390" cy="443.7" r="375.3"/>
	<g>
		<path class="st2" d="M391,756.4c-43.8,0-86.6-7.6-127.4-22.4c-39.4-14.4-75.8-35.3-108.3-62c-65.2-53.8-110.5-128.7-127.5-211
			c-5.1-24.6-7.7-49.9-7.7-75.3c0-0.4,0-0.7,0-1c0.2-50,10.1-98.5,29.4-144c18.7-44,45.5-83.6,79.5-117.5
			c70-69.8,163-108.2,261.8-108.2c50.1,0,98.6,9.8,144.3,29.1c44.2,18.7,83.8,45.4,117.9,79.5c34.1,34.1,60.8,73.7,79.5,117.9
			c19.3,45.7,29.1,94.3,29.1,144.3c0,17.1-1.2,34.3-3.5,51.2c-3.2,23.1-8.6,46-16.1,68c-12.3,36.2-30.1,70.2-52.9,101
			c-22.6,30.5-49.5,57.3-80.2,79.6C545.5,731.9,470,756.4,391,756.4z"/>
	</g>
	<path class="st3" d="M746.5,506.3C696.2,654.4,556.1,760.9,391,760.9c-181.2,0-332.3-128.4-367.5-299.1
		c83.3-83.8,205.8-136.7,342.3-136.7C525.1,325.2,665.3,397.2,746.5,506.3z"/>
	
		<ellipse transform="matrix(0.9568 -0.2907 0.2907 0.9568 -10.1992 89.9818)" class="st3" cx="297.7" cy="79.3" rx="83.2" ry="31.8"/>
	
		<ellipse transform="matrix(0.9982 -6.065894e-02 6.065894e-02 0.9982 -8.2433 11.7774)" class="st3" cx="189.9" cy="141.7" rx="31.5" ry="28.1"/>
	<path class="st4" d="M391,19.4c49.5,0,97.4,9.7,142.6,28.8C577.2,66.6,616.4,93,650,126.6c33.6,33.6,60.1,72.8,78.5,116.4
		c19.1,45.2,28.8,93.1,28.8,142.6c0,16.9-1.2,33.9-3.5,50.6c-3.2,22.9-8.5,45.5-15.9,67.2c-12.1,35.7-29.7,69.3-52.2,99.8
		c-22.3,30.1-48.9,56.6-79.2,78.7c-30.6,22.3-64.4,39.7-100.2,51.6c-37.1,12.3-75.9,18.5-115.3,18.5c-43.2,0-85.6-7.5-125.8-22.2
		c-38.9-14.2-74.9-34.8-107-61.3c-31.8-26.2-58.8-57.4-80.3-92.5C56.1,540.1,40.7,501.1,32.3,460c-5-24.3-7.6-49.3-7.6-74.4
		c0-0.3,0-0.6,0-0.9l0-0.1l0-0.1c0.1-49.3,9.9-97.2,29.1-142.2c18.5-43.5,44.9-82.5,78.6-116.1C166,92.7,205.1,66.4,248.7,48
		C293.8,29,341.6,19.4,391,19.4 M391,10.4c-206.9,0-374.7,167.4-375.3,374.1c0,0.4,0,0.8,0,1.2c0,26.1,2.7,51.6,7.8,76.2
		C58.7,632.6,209.8,760.9,391,760.9c165.1,0,305.2-106.6,355.5-254.6c7.5-22.1,13-45.1,16.3-68.9c2.3-16.9,3.5-34.2,3.5-51.8
		C766.3,178.4,598.3,10.4,391,10.4L391,10.4z"/>
	<path class="st5" d="M326.8,619.3c-7.4,0-14.6-2.3-20.7-6.5L195.9,536c-16.4-11.5-20.5-34-9.1-50.5l47-67.5
		c6.7-9.6,4.3-22.9-5.3-29.6l-67.5-47c-16.4-11.4-20.5-34-9.1-50.5c0,0,0,0,0,0l76.8-110.2c11.4-16.4,34.1-20.5,50.5-9.1l67.5,47
		c3.6,2.5,7.8,3.8,12.1,3.8c7,0,13.5-3.4,17.5-9.1l47-67.5c11.5-16.4,34.1-20.5,50.5-9c0,0,0,0,0,0l110.3,76.7
		c16.4,11.5,20.4,34.1,9,50.5l-47,67.5c-6.7,9.6-4.3,22.9,5.3,29.6l67.5,47c16.4,11.5,20.4,34.1,9,50.5l-76.6,110.2
		c-11.5,16.4-34.1,20.5-50.5,9c0,0,0,0,0,0l-67.5-47c-9.6-6.7-22.9-4.4-29.6,5.3c0,0,0,0,0,0l-47,67.5
		C349.9,613.4,338.7,619.3,326.8,619.3z"/>
	<path class="st0" d="M453.1,137.6c5.9,0,11.6,1.8,16.4,5.2l110.3,76.8c13,9.1,7.9,39.1-1.2,52.1L540,327.1c-9.1,13-5.9,31,7.2,40.1
		l79.6,48.1c13,9.1,4.2,25.9-4.8,38.9l-76.8,110.3c-9.1,13-27,16.3-40,7.2c0,0,0,0,0,0l-59.6-33.9c-5-3.5-18.6-18.3-24.3-18.3
		c-9.4,0-18.3,4.6-23.6,12.3l-48.5,79.9c-5.6,8-13,0-22.1,0c-5.9,0-11.6-1.8-16.4-5.2L187.6,527c-13-9.1-3.7-24.2,5.3-37.2l47-67.5
		c9.1-13-3.7-31.8-16.8-40.8l-58-46.2c-13-9.1-9.4-27-0.3-40.1l50.8-83c5.6-8,33.5-39.6,42.6-39.6c5.9,0,11.6,1.8,16.4,5.2
		l67.5,42.5c5,3.5,10.8,9.7,16.4,9.7c9.1,0,25.6-28.2,31.2-36.3l39.5-43.5C434.9,142.3,443.7,137.6,453.1,137.6 M453.1,122.6
		L453.1,122.6c-14.3,0-27.8,7-36,18.8l-47,67.5c-4.3,6.2-12.9,7.8-19.2,3.4l-67.5-47c-19.8-13.8-47.1-8.9-60.9,10.9c0,0,0,0,0,0
		l-76.8,110.3c-13.8,19.9-8.9,47.1,10.9,60.9l67.5,47c6.2,4.3,7.8,12.9,3.4,19.2c0,0,0,0,0,0l-47,67.5
		c-13.8,19.8-8.9,47.1,10.9,60.9l110.3,76.7c19.8,13.8,47.1,8.9,60.9-10.9c0,0,0,0,0,0l47-67.5c4.3-6.3,12.9-7.8,19.1-3.5
		c0,0,0,0,0.1,0l67.5,47c19.8,13.8,47.1,8.9,60.9-10.9c0,0,0,0,0,0l76.7-110.3c13.8-19.8,8.9-47.1-10.9-60.9c0,0,0,0,0,0l-67.5-47
		c-6.2-4.4-7.8-12.9-3.4-19.2l47-67.5c13.8-19.8,8.9-47.1-10.9-60.9l-110.3-76.7C470.8,125.4,462.1,122.6,453.1,122.6L453.1,122.6z"
		/>
</g>
</svg>
