<svg id="Layer_1" data-name="Layer 1" xmlns="http://www.w3.org/2000/svg" viewBox="0 0 780 832"><defs><style>.cls-1{fill:#2e1b00;}.cls-2{fill:#18848c;}.cls-3{fill:#21d8ff;}.cls-4{fill:#5fecff;}.cls-5{fill:#fffdfa;}</style></defs><title>continue_button</title><path class="cls-1" d="M388.68,10.2h.6c1.4,0,4.2.1,4.5,1.4v.2h-4.1v.1h-4.1C385.38,10.5,387.68,10.2,388.68,10.2Zm2.7-6.9h-.6c-.9,0-4.7.1-5.1-1.4V1.8h8.1C394,2.9,392.48,3.2,391.38,3.3Z"/><path class="cls-1" d="M1.28,417.8c.2-5.4-.5-11-.7-16.4A385.56,385.56,0,0,1,155.08,77.7C222.18,27.3,305,.4,388.78.2c-1,0-3.4.2-3.1,1.6v.1c.4,1.5,4.2,1.4,5.1,1.4h.6c1.1-.1,2.6-.4,2.4-1.5V1.7c-.3-1.1-2.5-1.3-4-1.4A399.65,399.65,0,0,1,450.58,5a390.8,390.8,0,0,1,214.5,108.4,384.67,384.67,0,0,1,114.1,282.7c-.1,5.8-.4,11.6-.8,17.4-.4,5.4.4,11,.6,16.4.4,11.3.4,22.7-.1,34a384.19,384.19,0,0,1-27.7,126.4,389.51,389.51,0,0,1-151.1,181.2c-71,45.2-156,65.8-239.8,59.4-82.5-6.2-162.3-38.8-225.1-92.8a384.79,384.79,0,0,1-134-269c-.7-11.2-.9-22.5-.6-33.7C.58,429.4,1,423.6,1.28,417.8ZM388.68,10.2c-1,0-3.4.2-3,1.7h0c.4,1.5,4.2,1.4,5.1,1.4h0c1,0,3.2-.2,3-1.5v-.2c-.4-1.2-3.2-1.4-4.5-1.4Z"/><path class="cls-1" d="M385.68,11.9h0c.4,1.5,4.2,1.4,5.1,1.4h0c1,0,3.2-.2,3-1.5v-.2c-.4-1.2-3.2-1.4-4.5-1.4h-.6C387.68,10.2,385.38,10.5,385.68,11.9Z"/><path class="cls-1" d="M385.68,1.9h0c.4,1.5,4.2,1.4,5.1,1.4h.6c1.1-.1,2.6-.4,2.4-1.5V1.7c-.3-1.1-2.5-1.3-4-1.4h-1.1C387.78.2,385.38.5,385.68,1.9Z"/><circle class="cls-2" cx="389.78" cy="444.5" r="375.3"/><circle class="cls-3" cx="389.78" cy="386.4" r="375.3"/><path class="cls-4" d="M34.08,507.7c50.3,148.1,190.4,254.6,355.5,254.6,181.2,0,332.3-128.3,367.5-299.1-83.3-83.8-205.8-136.7-342.3-136.7C255.48,326.6,115.28,398.6,34.08,507.7Z"/><ellipse class="cls-4" cx="482.89" cy="80.71" rx="31.8" ry="83.2" transform="translate(265.28 519.28) rotate(-73.1)"/><ellipse class="cls-4" cx="590.67" cy="143.1" rx="28.1" ry="31.5" transform="translate(412 724.01) rotate(-86.52)"/><path class="cls-4" d="M389.58,20.8A365.89,365.89,0,0,0,23.28,387a371.93,371.93,0,0,0,3.5,50.6,365.09,365.09,0,0,0,68.1,167,367.22,367.22,0,0,0,179.4,130.3,366,366,0,0,0,348.1-65,370,370,0,0,0,80.3-92.5,365.9,365.9,0,0,0,45.7-115.9,369.73,369.73,0,0,0,7.6-74.4V386A366.09,366.09,0,0,0,389.58,20.8m0-9c206.9,0,374.7,167.4,375.3,374.1v1.2a375.17,375.17,0,0,1-7.8,76.2c-35.2,170.7-186.3,299-367.5,299-165.1,0-305.2-106.5-355.5-254.6a373.92,373.92,0,0,1-16.3-68.9,384.07,384.07,0,0,1-3.5-51.8c0-207.2,168-375.2,375.3-375.2Z"/><path class="cls-5" d="M323.38,643.4a72.73,72.73,0,0,1-51.5-21.3l-9.7-9.7a72.91,72.91,0,0,1,0-103l87-87a58,58,0,0,0,0-81.8l-87-87a72.91,72.91,0,0,1,0-103l9.7-9.7a72.91,72.91,0,0,1,103,0v.1l189,189a72.82,72.82,0,0,1,0,103h0L374.78,622A71.43,71.43,0,0,1,323.38,643.4Z"/><path class="cls-1" d="M323.38,127.2c20.7.1,36.1,1,51.5,13.8,16.2,13.5,43.8,44.4,58.5,59.4,39.9,41,69.1,77.4,109,118.4,15.5,15.9,35,27.9,37.6,51.1,2.7,24.7,1.7,38.9-13.9,55.6-38.2,40.9-95.5,92.6-135.3,131.9-9.8,9.7-10.7,14.8-20.6,24.4-9,8.7-26.9,22.2-36.6,30.1-17.4,14.3-38.9,26.4-62.2,22.6-22.6-3.7-40.1-6.2-50.9-25.8-5.8-10.5-15.6-29.1-15.4-41.1.1-10.1,5.8-26.1,10.3-35.1,18.3-36.6,51.9-65.8,79.7-94.2,15-15.4,27.3-30.2,31-52,3.8-22,1.6-30.4-12.3-46.4-14.4-16.5-32.8-39-49.3-53.2-16.3-14-38.3-32.4-49.1-51.2s-8.4-37.4-.8-58a79.08,79.08,0,0,1,40.2-43.9,68,68,0,0,1,28.6-6.4m-.1-15h0a79.82,79.82,0,0,0-56.7,23.5l-9.6,9.6a80.45,80.45,0,0,0,0,113.6l87,87a50.46,50.46,0,0,1,0,71.2l-87,87a80.45,80.45,0,0,0,0,113.6l9.6,9.7a80.27,80.27,0,0,0,113.6,0h0l189.1-189a80.27,80.27,0,0,0,0-113.6l-189.1-189a79.79,79.79,0,0,0-56.9-23.6Z"/></svg>