<svg id="Layer_1" data-name="Layer 1" xmlns="http://www.w3.org/2000/svg" viewBox="0 0 780 832"><defs><style>.cls-1{fill:#2e1b00;}.cls-2{fill:#18848c;}.cls-3{fill:#21d8ff;}.cls-4{fill:#5fecff;}.cls-5{fill:#fffdfa;}</style></defs><title>continue_button_pressed</title><path d="M388,51.2c1.2,0,2.7,2,3.5,4H388C387.06,53.2,386.86,51.2,388,51.2Zm0-6h3.5c.8,1.8,1.1,3.7.2,3.9h-.2C390.26,49.1,388.86,47.1,388,45.2Z"/><path class="cls-1" d="M159.86,115.6c65.9-48.4,146.3-74.2,228-74.5-.9.2-.6,2.1.2,4s2.3,3.9,3.5,3.9h.2c.9-.2.6-2.1-.2-3.9-.8-2-2.3-4-3.5-4h0a394,394,0,0,1,61.4,4.8c78.9,12.6,152.8,50.3,209.8,106.3a397.54,397.54,0,0,1,111,204.6c8,40.1,9.6,82.2,6.1,123a385.84,385.84,0,0,1-179.8,294.4c-69.9,43.8-153.1,63.9-235.4,57.5A388.26,388.26,0,0,1,142,741.5,397.17,397.17,0,0,1,16.46,546.6C5.36,506.9,1.76,466.7,2,425.6A385.24,385.24,0,0,1,159.86,115.6ZM388,55.2c.9,2,2.3,3.9,3.5,3.9s.9-2,0-3.9-2.3-4-3.5-4S387.06,53.2,388,55.2Z"/><path class="cls-1" d="M388,55.2c.9,2,2.3,3.9,3.5,3.9s.9-2,0-3.9-2.3-4-3.5-4S387.06,53.2,388,55.2Z"/><path class="cls-1" d="M388,45.2c.9,2,2.3,3.9,3.5,3.9h.2c.9-.2.6-2.1-.2-3.9-.8-2-2.3-4-3.5-4h-.2C386.86,41.4,387.16,43.3,388,45.2Z"/><circle class="cls-2" cx="389.66" cy="443.7" r="375.3"/><circle class="cls-3" cx="389.66" cy="430.4" r="375.3"/><path class="cls-4" d="M32.76,550.1C83,698.2,223.16,804.7,388.26,804.7c181.2,0,332.3-128.4,367.5-299.1C672.46,421.9,550,369,413.46,369,254.16,369,114,441,32.76,550.1Z"/><ellipse class="cls-4" cx="481.46" cy="123.1" rx="31.8" ry="83.2" transform="translate(223.72 547.98) rotate(-73.1)"/><path class="cls-5" d="M323.36,687.5a72.14,72.14,0,0,1-51.5-21.3l-9.6-9.7a72.91,72.91,0,0,1,0-103l87-87a58,58,0,0,0,0-81.8l-87-87a72.91,72.91,0,0,1,0-103l9.6-9.6a72.82,72.82,0,0,1,103,0h0L564,374a72.82,72.82,0,0,1,0,103h0L374.86,666.1A72.82,72.82,0,0,1,323.36,687.5Z"/><path class="cls-1" d="M323.36,171.2c20.7.1,36.1,1,51.5,13.8,16.2,13.5,43.8,44.4,58.5,59.4,39.9,41,69.1,77.3,109,118.4,15.5,15.9,35,27.9,37.6,51.1,2.7,24.7,1.7,38.9-13.9,55.6-38.2,40.9-95.5,92.6-135.2,131.9-9.8,9.7-10.7,14.8-20.6,24.4-9,8.7-26.9,22.2-36.6,30.1-17.4,14.3-38.9,26.4-62.2,22.6-22.6-3.7-40.1-6.2-50.9-25.8-5.8-10.5-15.6-29.1-15.4-41.1.2-10.1,5.8-26.1,10.3-35.1,18.3-36.6,51.9-65.8,79.6-94.2,15-15.4,27.3-30.2,31.1-52,3.7-22,1.6-30.4-12.3-46.4-14.4-16.5-32.8-39-49.3-53.2-16.3-14.1-38.3-32.3-49.1-51.2s-8.4-37.4-.8-58a78.92,78.92,0,0,1,40.2-43.8,67.94,67.94,0,0,1,28.5-6.5m0-15h0a79.63,79.63,0,0,0-56.8,23.5l-9.6,9.6a80.45,80.45,0,0,0,0,113.6l87,87a50.46,50.46,0,0,1,0,71.2l-87,87a80.45,80.45,0,0,0,0,113.6l9.7,9.7a80.27,80.27,0,0,0,113.6,0l189-189a80.27,80.27,0,0,0,0-113.6h0l-189-189.1a80.45,80.45,0,0,0-56.9-23.5Z"/><ellipse class="cls-4" cx="589.35" cy="185.41" rx="28.1" ry="31.5" transform="translate(368.54 762.43) rotate(-86.52)"/><path class="cls-4" d="M388.26,63.1A366,366,0,0,0,22,429.4a371.93,371.93,0,0,0,3.5,50.6,365.09,365.09,0,0,0,68.1,167A367.22,367.22,0,0,0,273,777.3a366,366,0,0,0,348.1-65,366.09,366.09,0,0,0,133.5-282.9v-1.1A366.09,366.09,0,0,0,388.26,63.1m0-9c206.8,0,374.6,167.4,375.2,374.2v1.2a382.4,382.4,0,0,1-7.7,76.2c-35.2,170.7-186.4,299.1-367.5,299.1-165.1,0-305.2-106.5-355.5-254.6a374.81,374.81,0,0,1-16.3-68.8A384.07,384.07,0,0,1,13,429.6C13,222.2,181,54.1,388.26,54.1Z"/></svg>