<svg id="Layer_1" data-name="Layer 1" xmlns="http://www.w3.org/2000/svg" viewBox="0 0 730.16 239.48"><defs><style>.cls-1,.cls-4{fill:#fff;}.cls-2{fill:#0c5582;}.cls-3{fill:#0977db;}.cls-4{opacity:0.18;}</style></defs><title>guide_section_name</title><path class="cls-1" d="M678.16,14.22a42.12,42.12,0,0,1,42,42V187.48a42.12,42.12,0,0,1-42,42H52a42.12,42.12,0,0,1-42-42V56.22a42.12,42.12,0,0,1,42-42H678.16m0-10H52a52.06,52.06,0,0,0-52,52V187.48a52.06,52.06,0,0,0,52,52H678.16a52.06,52.06,0,0,0,52-52V56.22a52.06,52.06,0,0,0-52-52Z"/><rect class="cls-2" x="10" y="34.56" width="710.17" height="194.92" rx="42"/><rect class="cls-3" x="10" y="14.22" width="710.17" height="194.92" rx="42"/><path class="cls-4" d="M720.17,157.83v9.3a42.13,42.13,0,0,1-42,42H52a42.12,42.12,0,0,1-42-42v-9.3a42.12,42.12,0,0,0,42,42H678.17A42.13,42.13,0,0,0,720.17,157.83Z"/></svg>