<?xml version="1.0" encoding="utf-8"?>
<!-- Generator: Adobe Illustrator 23.0.2, SVG Export Plug-In . SVG Version: 6.00 Build 0)  -->
<svg version="1.1" id="Layer_1" xmlns="http://www.w3.org/2000/svg" xmlns:xlink="http://www.w3.org/1999/xlink" x="0px" y="0px"
	 viewBox="0 0 780 832" style="enable-background:new 0 0 780 832;" xml:space="preserve">
<style type="text/css">
	.st0{fill:#2E1B00;}
	.st1{fill:#18848C;}
	.st2{fill:#21D8FF;}
	.st3{fill:#5FECFF;}
	.st4{fill:#FFFDFA;}
</style>
<title>previous_button</title>
<path class="st0" d="M390.9,10.2h-0.6c-1.4,0-4.2,0.1-4.5,1.4c0,0.1,0,0.1,0,0.2c1.4,0,2.7,0,4.1,0v0.1c1.4,0,2.7,0,4.1,0
	C394.2,10.5,391.9,10.2,390.9,10.2z M388.2,3.3L388.2,3.3c0.2,0,0.4,0,0.6,0c0.9,0,4.7,0.1,5.1-1.4c0,0,0,0,0-0.1
	c-1.4,0-2.7,0-4.1,0V1.8h-0.5c-1.2,0-2.3,0-3.5,0C385.6,2.9,387.1,3.2,388.2,3.3z"/>
<path class="st0" d="M778.3,417.8c-0.2-5.4,0.5-11,0.7-16.4c4.9-126.7-52.9-247.8-154.5-323.7C557.4,27.3,474.6,0.4,390.8,0.2
	c1,0,3.4,0.2,3.1,1.6c0,0,0,0,0,0.1c-0.4,1.5-4.2,1.4-5.1,1.4c-0.2,0-0.4,0-0.6,0h0c-1.1-0.1-2.6-0.4-2.4-1.5c0,0,0-0.1,0-0.1
	c0.3-1.1,2.5-1.3,4-1.4c-20.3,0-40.7,1.6-60.8,4.7c-81.1,12.7-156.1,50.6-214.5,108.4C39.2,187.8-2.1,290.1,0.4,396.1
	c0.1,5.8,0.4,11.6,0.8,17.4c0.4,5.4-0.4,11-0.6,16.4c-0.4,11.3-0.4,22.7,0.1,34c2,43.4,11.4,86.1,27.7,126.4
	c30.4,74.6,83.2,137.8,151.1,181.2c71,45.2,156,65.8,239.8,59.4c82.5-6.2,162.3-38.8,225.1-92.8c62.1-53.4,105.7-125.1,124.6-204.8
	c4.9-21.1,8.1-42.6,9.4-64.2c0.7-11.2,0.9-22.5,0.6-33.7C779,429.4,778.6,423.6,778.3,417.8z M390.9,10.2c1,0,3.4,0.2,3,1.7
	c0,0,0,0,0,0c-0.4,1.5-4.2,1.4-5.1,1.4h0c-1,0-3.2-0.2-3-1.5c0-0.1,0-0.1,0-0.2c0.4-1.2,3.2-1.4,4.5-1.4H390.9z"/>
<path class="st0" d="M393.9,11.9C393.9,11.9,393.9,11.9,393.9,11.9c-0.4,1.5-4.2,1.4-5.1,1.4h0c-1,0-3.2-0.2-3-1.5
	c0-0.1,0-0.1,0-0.2c0.4-1.2,3.2-1.4,4.5-1.4h0.6C391.9,10.2,394.2,10.5,393.9,11.9z"/>
<path class="st0" d="M393.9,1.9C393.9,1.9,393.9,1.9,393.9,1.9c-0.4,1.5-4.2,1.4-5.1,1.4c-0.2,0-0.4,0-0.6,0h0
	c-1.1-0.1-2.6-0.4-2.4-1.5c0,0,0-0.1,0-0.1c0.3-1.1,2.5-1.3,4-1.4c0.2,0,0.5,0,0.7,0h0.4C391.8,0.2,394.2,0.5,393.9,1.9z"/>
<circle class="st1" cx="389.8" cy="444.5" r="375.3"/>
<circle class="st2" cx="389.8" cy="386.4" r="375.3"/>
<path class="st3" d="M745.5,507.7C695.2,655.8,555.1,762.3,390,762.3C208.8,762.3,57.7,634,22.5,463.2
	c83.3-83.8,205.8-136.7,342.3-136.7C524.1,326.6,664.3,398.6,745.5,507.7z"/>
<ellipse transform="matrix(0.9568 -0.2907 0.2907 0.9568 -10.6494 89.7515)" class="st3" cx="296.7" cy="80.7" rx="83.2" ry="31.8"/>
<ellipse transform="matrix(0.9982 -6.065894e-02 6.065894e-02 0.9982 -8.3301 11.7193)" class="st3" cx="188.9" cy="143.1" rx="31.5" ry="28.1"/>
<path class="st3" d="M390,20.8c49.5,0,97.4,9.7,142.6,28.8C576.2,68,615.4,94.4,649,128c33.6,33.6,60.1,72.8,78.5,116.4
	c19.1,45.2,28.8,93.1,28.8,142.6c0,16.9-1.2,33.9-3.5,50.6c-3.2,22.9-8.5,45.5-15.9,67.2c-12.1,35.7-29.7,69.3-52.2,99.8
	c-22.3,30.1-48.9,56.6-79.2,78.7c-30.6,22.3-64.4,39.7-100.2,51.6c-37.1,12.3-75.9,18.5-115.3,18.5c-43.2,0-85.6-7.5-125.8-22.2
	c-38.9-14.2-74.9-34.8-107-61.3c-31.8-26.2-58.8-57.4-80.3-92.5c-21.8-35.9-37.2-74.9-45.7-115.9c-5-24.3-7.6-49.3-7.6-74.4
	c0-0.3,0-0.6,0-0.9l0-0.1l0-0.1c0.1-49.3,9.9-97.2,29.1-142.2c18.5-43.5,44.9-82.5,78.6-116.1c33.6-33.5,72.8-59.9,116.3-78.2
	C292.8,30.4,340.6,20.8,390,20.8 M390,11.8c-206.9,0-374.7,167.4-375.3,374.1c0,0.4,0,0.8,0,1.2c0,26.1,2.7,51.6,7.8,76.2
	C57.7,634,208.8,762.3,390,762.3c165.1,0,305.2-106.5,355.5-254.6c7.5-22.1,13-45.1,16.3-68.9c2.3-16.9,3.5-34.2,3.5-51.8
	C765.3,179.8,597.3,11.8,390,11.8L390,11.8z"/>
<path class="st4" d="M456.2,643.4c19.3,0,37.8-7.6,51.5-21.3l9.7-9.7c28.4-28.5,28.4-74.5,0-103l-87-87c-22.5-22.6-22.5-59.2,0-81.8
	l87-87c28.4-28.5,28.4-74.5,0-103l-9.7-9.7c-28.4-28.4-74.5-28.4-103,0l0,0.1l-189,189c-28.4,28.4-28.5,74.5,0,103c0,0,0,0,0,0l0,0
	l189.1,189C418.3,635.8,436.9,643.5,456.2,643.4z"/>
<path class="st0" d="M456.2,127.2c-20.7,0.1-36.1,1-51.5,13.8c-16.2,13.5-43.8,44.4-58.5,59.4c-39.9,41-69.1,77.4-109,118.4
	c-15.5,15.9-35,27.9-37.6,51.1c-2.7,24.7-1.7,38.9,13.9,55.6c38.2,40.9,95.5,92.6,135.3,131.9c9.8,9.7,10.7,14.8,20.6,24.4
	c9,8.7,26.9,22.2,36.6,30.1c17.4,14.3,38.9,26.4,62.2,22.6c22.6-3.7,40.1-6.2,50.9-25.8c5.8-10.5,15.6-29.1,15.4-41.1
	c-0.1-10.1-5.8-26.1-10.3-35.1c-18.3-36.6-51.9-65.8-79.7-94.2c-15-15.4-27.3-30.2-31-52c-3.8-22-1.6-30.4,12.3-46.4
	c14.4-16.5,32.8-39,49.3-53.2c16.3-14,38.3-32.4,49.1-51.2s8.4-37.4,0.8-58c-7.1-19.3-21.6-35-40.2-43.9
	C476,129.5,466.2,127.2,456.2,127.2 M456.3,112.2L456.3,112.2c21.3,0,41.7,8.4,56.7,23.5l9.6,9.6c31.3,31.4,31.3,82.2,0,113.6
	l-87,87c-19.6,19.7-19.6,51.5,0,71.2l87,87c31.3,31.4,31.3,82.2,0,113.6l-9.6,9.7c-31.4,31.4-82.2,31.4-113.6,0c0,0,0,0,0,0l0,0
	l-189.1-189c-31.4-31.4-31.4-82.2,0-113.6l189.1-189C414.4,120.6,434.9,112.2,456.3,112.2L456.3,112.2z"/>
</svg>
