<?xml version="1.0" encoding="utf-8"?>
<!-- Generator: Adobe Illustrator 23.0.2, SVG Export Plug-In . SVG Version: 6.00 Build 0)  -->
<svg version="1.1" id="Layer_1" xmlns="http://www.w3.org/2000/svg" xmlns:xlink="http://www.w3.org/1999/xlink" x="0px" y="0px"
	 viewBox="0 0 780 832" style="enable-background:new 0 0 780 832;" xml:space="preserve">
<style type="text/css">
	.st0{fill:#2E1B00;}
	.st1{fill:#18848C;}
	.st2{fill:#21D8FF;}
	.st3{fill:#5FECFF;}
	.st4{fill:#FFFDFA;}
</style>
<title>previous_button_pressed</title>
<path d="M392.1,51.2c-1.2,0-2.7,2-3.5,4c0.6,0,1.2,0,1.8,0c0.6,0,1.2,0,1.7,0C393,53.2,393.2,51.2,392.1,51.2z M392.1,45.2
	c-0.6,0-1.2,0-1.7,0h-0.6c-0.4,0-0.8,0-1.2,0c-0.8,1.8-1.1,3.7-0.2,3.9h0.2C389.8,49.1,391.2,47.1,392.1,45.2z"/>
<path class="st0" d="M620.2,115.6c-65.9-48.4-146.3-74.2-228-74.5c0.9,0.2,0.6,2.1-0.2,4c-0.9,2-2.3,3.9-3.5,3.9h-0.2
	c-0.9-0.2-0.6-2.1,0.2-3.9c0.8-2,2.3-4,3.5-4h0.2c0,0-0.1,0-0.2,0c-20.6,0-41.1,1.6-61.4,4.8c-78.9,12.6-152.8,50.3-209.8,106.3
	c-56.3,55.3-95.5,127.1-111,204.6c-8,40.1-9.6,82.2-6.1,123c10.3,121,76.9,230,179.8,294.4c69.9,43.8,153.1,63.9,235.4,57.5
	c80.7-6.5,157.3-38,219.2-90.2c60.3-51.1,104-118.9,125.5-194.9c11.1-39.7,14.7-79.9,14.5-121C777.8,303.1,719.2,188,620.2,115.6z
	 M392.1,55.2c-0.9,2-2.3,3.9-3.5,3.9c-1.1,0-0.9-2,0-3.9c0.9-2,2.3-4,3.5-4C393.2,51.2,393,53.2,392.1,55.2z"/>
<path class="st0" d="M392.1,55.2c-0.9,2-2.3,3.9-3.5,3.9c-1.1,0-0.9-2,0-3.9c0.9-2,2.3-4,3.5-4C393.2,51.2,393,53.2,392.1,55.2z"/>
<path class="st0" d="M392.1,45.2c-0.9,2-2.3,3.9-3.5,3.9h-0.2c-0.9-0.2-0.6-2.1,0.2-3.9c0.8-2,2.3-4,3.5-4h0.2
	C393.2,41.4,392.9,43.3,392.1,45.2z"/>
<circle class="st1" cx="390.4" cy="443.7" r="375.3"/>
<circle class="st2" cx="390.4" cy="430.4" r="375.3"/>
<path class="st3" d="M747.3,550.1c-50.2,148.1-190.4,254.6-355.5,254.6c-181.2,0-332.3-128.4-367.5-299.1
	C107.6,421.9,230.1,369,366.6,369C525.9,369,666.1,441,747.3,550.1z"/>
<ellipse transform="matrix(0.9568 -0.2907 0.2907 0.9568 -22.8935 92.1199)" class="st3" cx="298.6" cy="123.1" rx="83.2" ry="31.8"/>
<path class="st4" d="M456.7,687.5c19.3,0.1,37.9-7.6,51.5-21.3l9.6-9.7c28.4-28.5,28.4-74.5,0-103l-87-87
	c-22.5-22.6-22.5-59.2,0-81.8l87-87c28.4-28.5,28.4-74.5,0-103l-9.6-9.6c-28.4-28.4-74.5-28.5-103,0c0,0,0,0,0,0l0,0L216.1,374
	c-28.4,28.4-28.5,74.5,0,103c0,0,0,0,0,0l0,0l189.1,189.1C418.9,679.8,437.4,687.5,456.7,687.5z"/>
<path class="st0" d="M456.7,171.2c-20.7,0.1-36.1,1-51.5,13.8c-16.2,13.5-43.8,44.4-58.5,59.4c-39.9,41-69.1,77.3-109,118.4
	c-15.5,15.9-35,27.9-37.6,51.1c-2.7,24.7-1.7,38.9,13.9,55.6c38.2,40.9,95.5,92.6,135.2,131.9c9.8,9.7,10.7,14.8,20.6,24.4
	c9,8.7,26.9,22.2,36.6,30.1c17.4,14.3,38.9,26.4,62.2,22.6c22.6-3.7,40.1-6.2,50.9-25.8c5.8-10.5,15.6-29.1,15.4-41.1
	c-0.2-10.1-5.8-26.1-10.3-35.1c-18.3-36.6-51.9-65.8-79.6-94.2c-15-15.4-27.3-30.2-31.1-52c-3.7-22-1.6-30.4,12.3-46.4
	c14.4-16.5,32.8-39,49.3-53.2c16.3-14.1,38.3-32.3,49.1-51.2s8.4-37.4,0.8-58c-7.2-19.3-21.6-35-40.2-43.8
	C476.4,173.5,466.6,171.3,456.7,171.2 M456.7,156.2L456.7,156.2c21.3-0.1,41.8,8.4,56.8,23.5l9.6,9.6c31.3,31.4,31.3,82.2,0,113.6
	l-87,87c-19.6,19.7-19.6,51.5,0,71.2l87,87c31.3,31.4,31.3,82.2,0,113.6l-9.7,9.7c-31.4,31.4-82.2,31.4-113.6,0l-189-189
	c-31.4-31.4-31.4-82.2,0-113.6c0,0,0,0,0,0l0,0l189-189.1C414.9,164.6,435.4,156.2,456.7,156.2L456.7,156.2z"/>
<ellipse transform="matrix(0.9982 -6.065894e-02 6.065894e-02 0.9982 -10.898 11.9095)" class="st3" cx="190.7" cy="185.4" rx="31.5" ry="28.1"/>
<path class="st3" d="M391.8,63.1c49.5,0,97.4,9.7,142.6,28.8c43.6,18.4,82.8,44.9,116.4,78.5c33.6,33.6,60.1,72.8,78.5,116.4
	c19.1,45.2,28.8,93.1,28.8,142.6c0,16.9-1.2,33.9-3.5,50.6c-3.2,22.9-8.5,45.5-15.9,67.2c-12.1,35.7-29.7,69.3-52.2,99.8
	c-22.3,30.1-48.9,56.6-79.2,78.7c-30.6,22.3-64.4,39.7-100.2,51.6c-37.1,12.3-75.9,18.5-115.3,18.5c-43.2,0-85.6-7.5-125.8-22.2
	c-38.9-14.2-74.9-34.8-107-61.3c-31.8-26.2-58.8-57.4-80.3-92.5C57,583.8,41.6,544.9,33.1,503.8c-5-24.3-7.6-49.3-7.6-74.4
	c0-0.3,0-0.6,0-0.9l0-0.1l0-0.1c0.1-49.3,9.9-97.2,29.1-142.2c18.5-43.5,44.9-82.5,78.6-116.1c33.6-33.5,72.8-59.9,116.3-78.2
	C294.6,72.8,342.5,63.1,391.8,63.1 M391.8,54.1C185,54.1,17.2,221.5,16.6,428.3c0,0.4,0,0.8,0,1.2c0,26.1,2.7,51.6,7.7,76.2
	c35.2,170.7,186.4,299.1,367.5,299.1c165.1,0,305.2-106.5,355.5-254.6c7.5-22.1,13-45.1,16.3-68.8c2.3-16.9,3.5-34.2,3.5-51.8
	C767.1,222.2,599.1,54.1,391.8,54.1L391.8,54.1z"/>
</svg>
