<?xml version="1.0" encoding="utf-8"?>
<!-- Generator: Adobe Illustrator 23.0.2, SVG Export Plug-In . SVG Version: 6.00 Build 0)  -->
<svg version="1.1" id="Layer_1" xmlns="http://www.w3.org/2000/svg" xmlns:xlink="http://www.w3.org/1999/xlink" x="0px" y="0px"
	 viewBox="0 0 780 832" style="enable-background:new 0 0 780 832;" xml:space="preserve">
<style type="text/css">
	.st0{fill:#2E1B00;}
	.st1{fill:#437004;}
	.st2{fill:#80F600;}
	.st3{fill:#B0EF60;}
	.st4{fill:#FFFDFA;}
</style>
<title>reload-button</title>
<g id="Layer_3">
	<path class="st0" d="M390,11.5c207.3,0,375.3,168,375.3,375.3c0,9.8-0.4,19.4-1.1,29c0.7,9.6,1.1,19.2,1.1,29
		c0,207.3-168,375.3-375.3,375.3S14.7,652.2,14.7,444.9c0-9.8,0.4-19.4,1.1-29c-0.7-9.6-1.1-19.2-1.1-29
		C14.7,179.5,182.7,11.5,390,11.5 M390,1.5C177.4,1.3,4.9,173.6,4.7,386.2c0,0.2,0,0.4,0,0.6c0,9.7,0.4,19.5,1.1,29
		c-0.7,9.6-1.1,19.4-1.1,29c0.1,212.8,172.7,385.3,385.5,385.3C545,830,684.7,737.4,745,594.9c20.1-47.5,30.4-98.5,30.3-150
		c0-9.7-0.4-19.5-1.1-29c0.7-9.6,1.1-19.4,1.1-29c0.2-212.6-172-385.2-384.6-385.4C390.4,1.5,390.2,1.5,390,1.5z"/>
	<path class="st0" d="M388.9,14.8c206.6-0.2,374.2,167,374.4,373.6c0,2.1,0,4.1,0,6.2c-0.1,6.5-0.4,12.9-0.8,19.4
		c-0.5,7.4,0.5,14.8,0.7,22.2c0.3,11.3,0.1,22.6-0.5,33.9c-1.2,20.1-4.1,40.1-8.5,59.7C736.7,606.3,694,676,634.4,727.1
		c-157.1,134.4-393.4,116-527.8-41.1c-51.9-60.6-83-136.2-88.9-215.7c-0.8-11.1-1.2-22.1-1-33.2c0.1-7.1,0.5-14.2,0.9-21.3
		s-0.7-14.2-0.8-21.2c-0.6-21.6,0.7-43.1,3.9-64.5c11.7-78,48.1-150.2,103.9-206c55.6-55.5,127.3-92.1,205-104.6
		C349.1,16.4,369,14.8,388.9,14.8c1.9,0,4.3-6.6,2.2-6.6c-81.2,0.1-160.2,26.4-225.3,74.9C68.4,156,11.6,271,12.8,392.6
		c0.1,6.7,0.3,13.3,0.7,20c0.5,8.1-0.4,16.3-0.6,24.4c-0.3,10.9-0.1,21.9,0.6,32.8c12.4,207.3,190.5,365.4,397.9,353
		c63.6-3.8,125.2-23.7,179-57.8c101.7-64.8,166.9-173.8,175.8-294c0.8-11.3,1.2-22.5,1-33.9c-0.1-6.7-0.5-13.3-0.8-20
		c-0.3-7.5,0.5-15,0.7-22.5c0.6-21.6-0.7-43.1-3.8-64.5C739.6,167.6,613.2,39.1,451,12.9c-19.8-3.1-39.8-4.7-59.9-4.7
		C389.2,8.2,386.8,14.8,388.9,14.8L388.9,14.8z"/>
	<path class="st0" d="M391.1-1.8c-84.3,0.2-167.2,27.9-234.2,79.2c-99.5,76-156.8,194.9-154,320.1c0.1,5.1,0.3,10.1,0.6,15.2
		c0.4,6.2-0.2,12.4-0.4,18.7c-0.4,10.9-0.4,21.9,0.1,32.8c8.4,194.5,160.4,352.4,354.4,368.1c84.6,6.7,170.1-14.6,241.3-60.8
		c104-67.7,169.9-180.6,177.6-304.5c1.4-22.6-0.4-45,0.5-67.6c0.8-21.7-0.2-43.3-2.9-64.8c-10.8-82.7-48-159.8-106.2-219.6
		c-57.5-59.1-133.4-98.9-215-111.9C432.4-0.2,411.7-1.8,391.1-1.8c-2,0-4.3,6.6-2.2,6.6C471.2,5,552.2,31.5,618.2,80.7
		c100.4,74.3,158.2,192.9,155,317.7c-0.1,5.2-0.4,10.3-0.7,15.5c-0.3,5.4,0.2,10.7,0.4,16c0.5,11.1,0.5,22.3,0,33.5
		c-0.9,21.1-3.5,42.1-7.9,62.8c-17,80-60.4,152.8-122,206.5c-160.2,139.2-403,122.2-542.3-38C45.4,631,12.6,550.7,7.3,466.4
		C6,444.8,7.9,423.2,7,401.7c-1-21.9-0.1-43.8,2.7-65.6C20,254.4,57.8,177.5,115.6,118.9C172.9,61,247.1,22.7,327.5,9.7
		c20.3-3.2,40.8-4.8,61.4-4.8C390.8,4.8,393.2-1.8,391.1-1.8z"/>
	<circle class="st1" cx="390" cy="444.2" r="375.3"/>
	<circle class="st2" cx="390" cy="386.1" r="375.3"/>
	<path class="st3" d="M31.9,505.6c50.2,148.1,190.4,254.6,355.5,254.6c181.2,0,332.3-128.4,367.5-299.1
		c-83.3-83.7-205.8-136.6-342.3-136.6C253.3,324.5,113.2,396.5,31.9,505.6z"/>
	
		<ellipse transform="matrix(0.2907 -0.9568 0.9568 0.2907 265.7411 515.5818)" class="st3" cx="480.6" cy="78.6" rx="31.8" ry="83.2"/>
	
		<ellipse transform="matrix(6.070018e-02 -0.9982 0.9982 6.070018e-02 412.1947 719.7771)" class="st3" cx="588.5" cy="140.9" rx="28.1" ry="31.5"/>
	<path class="st3" d="M388.1,19.8C185.9,19.6,22,183.4,21.8,385.5c0,0.2,0,0.4,0,0.6c0,16.9,1.2,33.8,3.5,50.6
		c8.4,60.5,31.8,117.9,68.1,167C138.4,664.6,201,710.1,272.8,734c119.5,39.6,251,15.1,348.1-65c84.6-69.6,133.6-173.4,133.5-282.9
		V385C753.9,183.1,590,19.7,388.1,19.8 M388.1,10.8c206.8,0,374.6,167.4,375.2,374.2v1.2c0,25.6-2.6,51.1-7.7,76.2
		c-35.2,170.7-186.4,299.1-367.5,299.1C223,761.5,82.9,655,32.6,506.9c-7.6-22.4-13-45.4-16.3-68.8c-2.3-17.2-3.5-34.5-3.5-51.8
		C12.8,178.9,180.8,10.8,388.1,10.8z"/>
	<path class="st4" d="M190.8,511c-25.5-43.8-35.9-94.7-29.4-145h0.1c1.7-16.1,10.9-30.4,24.9-38.5c24.7-14.4,56.9-5.1,71.9,20.6
		c6.8,11.6,9.1,25.2,6.6,38.4l0.3,0.1c-8.2,70.9,42.6,135.1,113.6,143.3c70.9,8.2,135.1-42.6,143.3-113.6S479.5,281.2,408.5,273
		c-4.3-0.5-8.7-0.8-13-0.8l10.3,17.7c11.6,20-6.7,44-29,38.1l-111.3-29.5c-13.8-3.7-22.1-17.8-18.4-31.7c0,0,0,0,0,0l29.5-111.3
		c5.9-22.3,35.9-26.4,47.5-6.4l12.7,21.9C433,148,536.9,189.4,589.2,279.4c64,110,26.6,251.1-83.4,315.1S254.8,621,190.8,511z"/>
	<path class="st0" d="M193.5,509.6c-24-41.7-33-89.7-27-137.3l-1.6,1.9h0.1c1.3,0.2,1.5-0.9,1.6-1.9c3.4-26.3,27.3-45.9,53.8-43.1
		c11.5,1.2,22.3,6.3,30.5,14.5c9.5,9.8,11.3,23.5,8.9,36.5c-0.7,3.9,4.1,13.7,8.4,14.5l0.4,0.1l-8.4-14.4
		c-5.4,48.5,16.3,98.7,54.2,129.2c31.3,25.2,72.3,34.9,111.5,26.4c40.4-9.2,74.1-36.8,90.9-74.6c16.9-38.2,13.8-81.7-4.6-118.7
		c-22.8-45.8-68.4-77.4-120-78.5c-3.9-0.1,0,8.5,0.7,9.6c3.2,5.5,6.4,11,9.6,16.4c4,7,1.2,15.8-3.7,21.7c-6.3,7.6-16.1,10.3-25.5,8
		c-2.7-0.7-5.5-1.5-8.2-2.2l-87.2-23.1c-6.5-1.7-22.8-3.8-26.1-10.5c-1.8-3.8-0.2-8.7,0.8-12.6l3.6-13.6l23-87
		c0.7-2.6,1.3-5.2,2-7.8c2.4-8.5,8.4-15,17-17.6c8.4-2.6,17.5-0.3,23.5,6.1c-0.9-1-0.5-0.9,0.2,0.2c0.8,1.4,1.7,2.9,2.5,4.3l6,10.4
		l3.5,5.9c1.2,2,3.9,7.4,7,6.7c65.6-15.4,136.3-0.8,190.2,39.8c52.4,39.7,83.5,101.4,84.3,167.1c0.8,63.3-25.5,125.6-71.7,169
		c-47.3,44.5-112.6,67.4-177.3,61.7c-63-5.6-122.4-37.4-160.4-88.1C201.4,522.5,197.2,516.2,193.5,509.6c-1-1.5-4.4-8-7.1-6.6
		s0.8,8.2,1.6,9.5c34.7,59,91.2,102.5,158.6,116.5c66.8,13.7,136.3-2.6,190.1-44.5c52.3-41,84.7-103.9,88.5-170.1
		c4-70.8-25.1-142.1-75.8-191.3c-50.5-49.1-121.8-73.2-191.7-64.7c-8.5,1.1-16.9,2.6-25.3,4.5l7,6.7l-10.5-18.1
		c-4.7-8.1-9.7-16.2-18.4-20.5c-16.3-7.9-34.4,1.2-39,18.3c-7.9,29.2-15.5,58.4-23.2,87.6l-4.7,17.6c-1.1,4.3-2.4,8.5-2.4,13
		c0.1,13.7,8.3,29.1,20.2,36.1c3.9,2.3,8.1,3.3,12.5,4.4l92.3,24.4c11.7,3.1,23.9,7.8,35.3,0.6c9.6-6.1,14.2-17.5,12.7-28.7
		c-1.4-9.7-6.7-17.8-11.5-26l-4.4-7.6l0.7,9.6c40.1,0.8,79.7,20.2,101.8,54.4c19.6,30.3,21.8,69.5,9.8,103.1
		c-23.9,66.5-97.2,101.1-163.7,77.3c-5.9-2.1-11.7-4.7-17.3-7.7c-17.9-9.6-33.1-23.6-44-40.8c-13.7-21.9-18.1-48.3-15.3-73.8
		c0.4-4-3.9-13.6-8.4-14.4l-0.4-0.1l8.4,14.5c4.8-26.4-9.1-56.1-31.3-70.8c-19-12.6-44.8-12.8-62.8,1.8c-11.2,9-17.5,22-19.3,36
		l1.6-1.9H158c-1.3-0.2-1.5,0.9-1.6,1.9c-6.6,52.9,5.2,106.6,31.7,152.7c0.9,1.6,4.3,8.1,7,6.7S194.2,510.9,193.5,509.6z"/>
</g>
</svg>
