<?xml version="1.0" encoding="utf-8"?>
<!-- Generator: Adobe Illustrator 23.0.2, SVG Export Plug-In . SVG Version: 6.00 Build 0)  -->
<svg version="1.1" id="Layer_1" xmlns="http://www.w3.org/2000/svg" xmlns:xlink="http://www.w3.org/1999/xlink" x="0px" y="0px"
	 viewBox="0 0 780 832" style="enable-background:new 0 0 780 832;" xml:space="preserve">
<style type="text/css">
	.st0{fill:#437004;}
	.st1{fill:#80F600;}
	.st2{fill:#B0EF60;}
	.st3{fill:#FFFDFA;}
	.st4{fill:#2E1B00;}
</style>
<title>reload-button-pressed</title>
<g id="Layer_4">
	<path d="M390,57.8c207.3,0,375.3,168,375.3,375.3c0,2.2,0,4.4-0.1,6.6c0,2.2,0,4.4,0.1,6.6c0,207.3-168,375.3-375.3,375.3
		S14.7,653.7,14.7,446.4c0-2.2,0-4.4,0.1-6.6c0-2.2,0-4.4-0.1-6.6C14.7,225.9,182.7,57.8,390,57.8 M390,47.8
		C177.4,47.7,4.9,219.9,4.7,432.5c0,0.2,0,0.4,0,0.6c0,2.2,0,4.4,0.1,6.6s-0.1,4.4-0.1,6.6c0.1,212.8,172.8,385.3,385.6,385.2
		C545,831.5,684.7,738.9,745,596.4c20.1-47.5,30.4-98.5,30.3-150c0-2.2,0-4.4-0.1-6.6s0.1-4.4,0.1-6.6
		C775.5,220.5,603.2,48,390.6,47.8C390.4,47.8,390.2,47.8,390,47.8L390,47.8z"/>
	<circle class="st0" cx="390" cy="446.4" r="375.3"/>
	<circle class="st1" cx="390" cy="433.1" r="375.3"/>
	<path class="st2" d="M33.9,552.5c50.2,148.1,190.4,254.6,355.5,254.6c181.2,0,332.3-128.4,367.5-299.1
		c-83.3-83.7-205.8-136.6-342.3-136.6C255.3,371.4,115.1,443.4,33.9,552.5z"/>
	
		<ellipse transform="matrix(0.2907 -0.9568 0.9568 0.2907 222.1679 550.7834)" class="st2" cx="482.6" cy="125.5" rx="31.8" ry="83.2"/>
	
		<ellipse transform="matrix(6.070018e-02 -0.9982 0.9982 6.070018e-02 367.1287 765.8673)" class="st2" cx="590.5" cy="187.9" rx="28.1" ry="31.5"/>
	<path class="st2" d="M390,66.8C187.9,66.6,23.9,230.4,23.8,432.5c0,0.2,0,0.4,0,0.6c0,16.9,1.2,33.8,3.5,50.6
		c8.4,60.5,31.8,117.9,68.1,167C140.3,711.6,203,757.1,274.8,781c119.5,39.6,251,15.1,348.1-65c84.6-69.6,133.6-173.4,133.5-282.9
		V432C755.9,230,592,66.6,390,66.8 M390,57.8c206.8,0,374.6,167.4,375.2,374.2v1.2c0,25.6-2.6,51.1-7.7,76.2
		C722.3,680.1,571.1,808.5,390,808.5C224.9,808.5,84.8,702,34.5,553.9c-7.6-22.4-13-45.4-16.3-68.8c-2.3-17.2-3.5-34.5-3.5-51.8
		C14.8,225.9,182.8,57.8,390,57.8z"/>
	<path class="st3" d="M190.8,558c-25.5-43.8-35.9-94.7-29.4-145h0.1c1.7-16.1,10.9-30.4,24.9-38.5c24.7-14.4,56.9-5.1,71.9,20.6
		c6.8,11.6,9.1,25.2,6.6,38.4l0.4,0.1c-8.2,70.9,42.6,135.1,113.6,143.3s135.1-42.6,143.3-113.6S479.5,328.2,408.5,320
		c-4.3-0.5-8.7-0.8-13-0.8l10.3,17.7c11.6,20-6.7,44-29,38.1l-111.3-29.5c-13.8-3.6-22.1-17.8-18.4-31.6c0,0,0,0,0-0.1l29.5-111.3
		c5.9-22.3,35.9-26.4,47.5-6.4l12.7,21.9C433,195,536.9,236.4,589.2,326.3c64,110,26.6,251.1-83.4,315.1S254.8,668,190.8,558z"/>
	<path class="st4" d="M198,552.6c-25.1-43.6-35.4-94.2-29.1-144.1l-14,10.4h0.1c4.9,0.7,13.4-5.4,14-10.4
		c1.5-11.7,6.9-24.5,17.8-30.4c9.9-5.4,22.1-5.5,32.7-2.5c26.7,7.7,42.8,35.4,37.8,62.4c-0.1,0.6,0.4,1.2,1,1.4l0.4,0.1l-1-1.4
		c-5.1,46.5,15.2,93.7,53.4,121c32.5,23,73.5,30.4,112,20.1c40.4-10.8,75.9-39.8,94.2-77.5c17.3-35.8,17.5-77.5,0.7-113.6
		c-21.4-45.3-67.4-73.8-117.1-74.9c-3.3-0.1-15,7.1-12.5,11.3c7,12,19.8,27.5,10.3,41.6c-5.1,7.5-18.4,2.1-25.9,0.1L285.1,343
		c-10.9-2.9-22.4-4.6-28.4-15.6c-5.7-10.3-1.3-21,1.5-31.4l23.1-87.4c0.8-3.1,1.6-6.1,2.4-9.2c0.6-2.7,1.7-5.2,3.2-7.4
		c0.4-0.5,2.1-1.8,0.8-1c1.6-0.8,3.3-1.3,5-1.6c18.2-2.7,25.7,15.1,33.2,28l3.4,5.9c0.6,1,2.8,0.4,3.5,0.3
		c65.9-15.5,137.4,0.3,190.9,41.7c53,41,86.2,104.8,89,171.8c2.6,62.4-21,125.8-66.1,169.5c-46.1,44.6-111.3,65.8-174.9,58.9
		s-122.5-40.6-160.3-92.3C206.6,566.6,202.1,559.7,198,552.6c-2.1-3.6-17,6.4-14.5,10.8c33.8,57.8,91.8,98.9,157.7,111.2
		c67.6,12.6,137.9-5.8,192-47.8c53.1-41.1,88.1-102.6,93.9-169.7c5.9-68.8-20.2-138.4-70-186.3c-50.4-48.6-122-72.1-191.4-63.2
		c-8.5,1.1-17,2.7-25.4,4.7l3.5,0.3l-10.5-18.1c-4.1-7.1-9-13.2-17.1-15.9c-19.2-6.3-42,9.3-47.2,27.8
		c-7.9,28.5-15.1,57.2-22.7,85.8c-2.5,9.5-5.9,19.1-7.4,28.9c-1.9,12.5,5.6,24.9,17.3,29.4c3.1,1.1,6.3,2,9.5,2.7l93,24.6
		c3.7,1,7.4,2,11.1,3c10,2.5,19.6,0,28.1-5.5c10.3-6.7,19.3-17.8,18.9-30.6c-0.3-8.7-5.5-15.9-9.7-23.2l-4.4-7.5l-12.5,11.3
		c41.8,1,80.6,22.3,103.8,57.1c21,31.6,27.1,72,15.7,108.3c-10.9,34.7-36.5,63.3-71.4,74.9c-35.1,11.8-74.3,6.7-105.8-12.6
		c-42.1-25.7-65.3-75-59.9-123.8c0.1-0.6-0.4-1.2-1-1.4l-0.4-0.1l1,1.4c4.6-25.5-8.5-51-31.9-62.1c-22.6-10.6-48.6-3.5-66.5,12.8
		c-11,9.8-18.1,23.2-20,37.8l14-10.4h-0.1c-4.9-0.7-13.4,5.4-14,10.4c-6.2,50.6,4.2,101.8,29.6,145.9C185.6,567,200.6,557,198,552.6
		z"/>
</g>
</svg>
