<svg id="OK_button" data-name="OK button" xmlns="http://www.w3.org/2000/svg" width="440" height="289" viewBox="0 0 440 289">
  <metadata><?xpacket begin="﻿" id="W5M0MpCehiHzreSzNTczkc9d"?>
<x:xmpmeta xmlns:x="adobe:ns:meta/" x:xmptk="Adobe XMP Core 5.6-c142 79.160924, 2017/07/13-01:06:39        ">
   <rdf:RDF xmlns:rdf="http://www.w3.org/1999/02/22-rdf-syntax-ns#">
      <rdf:Description rdf:about=""/>
   </rdf:RDF>
</x:xmpmeta>
                                                                                                    
                                                                                                    
                                                                                                    
                                                                                                    
                                                                                                    
                                                                                                    
                                                                                                    
                                                                                                    
                                                                                                    
                                                                                                    
                                                                                                    
                                                                                                    
                                                                                                    
                                                                                                    
                                                                                                    
                                                                                                    
                                                                                                    
                                                                                                    
                                                                                                    
                                                                                                    
                           
<?xpacket end="w"?></metadata>
<defs>
    <style>
      .cls-1 {
        fill: #a4a4a5;
      }

      .cls-1, .cls-2, .cls-5, .cls-6 {
        fill-rule: evenodd;
      }

      .cls-2 {
        fill: #585858;
      }

      .cls-3 {
        fill: #3e3e3e;
      }

      .cls-4, .cls-6, .cls-7 {
        fill: #fff;
      }

      .cls-5 {
        fill: #818181;
      }

      .cls-6 {
        opacity: 0.19;
      }

      .cls-7 {
        font-size: 72px;
        font-family: "Movavi Grotesque";
        font-weight: 800;
      }
    </style>
  </defs>
  <path id="Rounded_Rectangle_1_copy_6" data-name="Rounded Rectangle 1 copy 6" class="cls-1" d="M20.926,0.537H418.074l20.578,23.139V264.324l-20.578,23.139H20.926L0.348,264.324V23.676Z"/>
  <path id="Rounded_Rectangle_1_copy_7" data-name="Rounded Rectangle 1 copy 7" class="cls-2" d="M21.926,0.537H419.074l20.578,23.139L439,260l-23,23H313.879L310,278l-0.682,5H245.674L253,280l-15.106,3H25l-3.069-2.941L32,278l-18-4L1,260,1.348,23.676Z"/>
  <g>
    <rect id="Rounded_Rectangle_1_copy_2" data-name="Rounded Rectangle 1 copy 2" class="cls-3" x="6" y="1" width="426" height="273" rx="20" ry="20"/>
    <rect id="Rounded_Rectangle_1_copy_3" data-name="Rounded Rectangle 1 copy 3" class="cls-4" x="6" y="1" width="426" height="248" rx="20" ry="20"/>
    <path id="Rounded_Rectangle_1_copy_4" data-name="Rounded Rectangle 1 copy 4" class="cls-5" d="M26,1H412l20,20V222.979L420,237l-8,5.979L401,243l-99.123,3.5-122.268-4.526-111.872,3-41.737-2-8.825-6.825L6,222.979V21Z"/>
    <path id="Rounded_Rectangle_1_copy_5" data-name="Rounded Rectangle 1 copy 5" class="cls-6" d="M431,81l1,141.979L420,237l-8,5.979L401,243l-99.123,3.5-122.268-4.526-111.872,3-41.737-2-8.825-6.825L6,222.979V164s107.738-35.443,213-56C326.22,87.061,431,81,431,81Z"/>
    <text id="OK" class="cls-7" transform="translate(121.2 170.715) scale(1.84)">OK</text>
  </g>
</svg>
