<svg id="Hien_thi" data-name="Hien thi" xmlns="http://www.w3.org/2000/svg" xmlns:xlink="http://www.w3.org/1999/xlink" width="1306" height="599" viewBox="0 0 1306 599">
  <defs>
    <style>
      .cls-1 {
        fill: #717070;
      }

      .cls-1, .cls-10, .cls-2, .cls-3, .cls-4, .cls-5, .cls-6, .cls-7, .cls-8, .cls-9 {
        fill-rule: evenodd;
      }

      .cls-2 {
        fill: #908f90;
      }

      .cls-10, .cls-3 {
        fill: #fff;
      }

      .cls-3 {
        opacity: 0.12;
      }

      .cls-4 {
        fill: #c2c1c2;
        stroke: #9b9b9b;
        stroke-linejoin: round;
        stroke-width: 13px;
      }

      .cls-5 {
        fill: #a6a6a4;
        filter: url(#filter);
      }

      .cls-6, .cls-8 {
        fill: #d1d1d1;
      }

      .cls-6, .cls-7, .cls-8 {
        stroke: #565654;
      }

      .cls-6 {
        stroke-width: 1px;
      }

      .cls-7 {
        fill: #cecece;
      }

      .cls-7, .cls-8 {
        stroke-width: 4.96px;
      }

      .cls-9 {
        fill: #565654;
      }
    </style>
    <filter id="filter" x="197" y="90" width="331" height="393" filterUnits="userSpaceOnUse">
      <feOffset result="offset" dx="24" dy="41.569" in="SourceAlpha"/>
      <feGaussianBlur result="blur" stdDeviation="7.141"/>
      <feFlood result="flood" flood-opacity="0.75"/>
      <feComposite result="composite" operator="in" in2="blur"/>
      <feBlend result="blend" in="SourceGraphic"/>
    </filter>
  </defs>
  <path id="Rounded_Rectangle_1_copy_3" data-name="Rounded Rectangle 1 copy 3" class="cls-1" d="M36.858,65H1183.14C1203.5,65,1220,77.63,1220,93.21V199c0,20.1,86,44.856,86,67.705v135.41c0,23.365-86,42.975-86,63.473V570.906c0,15.58-16.5,28.21-36.86,28.21H36.858C16.5,599.116,0,586.486,0,570.906V464.177c0-20.115,86-42.053,86-64.884V263.883C86,241.034,0,219.094,0,199V93.21C0,77.63,16.5,65,36.858,65Z"/>
  <path id="Rounded_Rectangle_1_copy_5" data-name="Rounded Rectangle 1 copy 5" class="cls-2" d="M36.858,0H1183.14C1203.5,0,1220,12.63,1220,28.21V134c0,20.1,86,44.856,86,67.705v135.41c0,23.365-86,42.975-86,63.473V505.906c0,15.58-16.5,28.21-36.86,28.21H36.858C16.5,534.116,0,521.486,0,505.906V399.177c0-20.115,86-42.054,86-64.884V198.883C86,176.034,0,154.094,0,134V28.21C0,12.63,16.5,0,36.858,0Z"/>
  <path id="Rounded_Rectangle_1_copy_4" data-name="Rounded Rectangle 1 copy 4" class="cls-3" d="M1183.14,0C1203.5,0,1220,12.63,1220,28.21V134c0,20.1,86,44.856,86,67.705v135.41c0,23.365-86,42.975-86,63.473V505.906c0,15.58-16.5,28.21-36.86,28.21H36.858S512.681,453.412,799,320C1085.82,186.354,1183.14,0,1183.14,0Z"/>
  <g id="Light_bulb" data-name="Light bulb">
    <g>
      <path class="cls-4" d="M337.853,47.74c119.848,0,217,97.271,217,217.26s-97.157,217.26-217,217.26-217-97.271-217-217.26S218,47.74,337.853,47.74Z"/>
      <path class="cls-5" d="M337.913,100.314A112.236,112.236,0,0,1,450.149,212.55c0,28.536-9.616,55.55-28.191,74.388-51.505,52.236-27.454,68.719-45.6,86.8-17.892,17.825-57.2,18.682-75.506-.258-17.8-18.411,4.545-34.3-46.876-86.414-18.62-18.87-28.3-45.917-28.3-74.513A112.237,112.237,0,0,1,337.913,100.314Z"/>
      <path id="Ellipse_2_copy_3" data-name="Ellipse 2 copy 3" class="cls-6" d="M338.484,422.152a17.153,17.153,0,0,1-10.287-3.436,11.754,11.754,0,0,1-3.764-5.755c0.031-.555,1.226.47,3.666,1.616a23.513,23.513,0,0,0,20.575,0c2.44-1.146,3.635-2.171,3.666-1.616a10.922,10.922,0,0,1-3.568,5.755A17.151,17.151,0,0,1,338.484,422.152Z"/>
      <path id="Ellipse_2_copy_2" data-name="Ellipse 2 copy 2" class="cls-7" d="M338.617,418.685a43.87,43.87,0,0,1-25.035-7.916c-5.622-4.158-5.939-12.225-6.011-13.261,0.072-1.279,1.495,1.081,7.116,3.722a54.175,54.175,0,0,0,47.408,0c5.622-2.641,7.044-5,7.116-3.722-0.072,1.036.063,9.1-5.559,13.261A43.873,43.873,0,0,1,338.617,418.685Z"/>
      <path id="Ellipse_2_copy" data-name="Ellipse 2 copy" class="cls-8" d="M338.646,411.481c-11.191.122-22.4-4.317-28.776-9.1-6.462-4.78-6.826-14.052-6.909-15.242,0.083-1.471,1.718,1.243,8.18,4.278a62.271,62.271,0,0,0,54.492,0c6.461-3.035,8.1-5.749,8.179-4.278-0.083,1.19.072,10.462-6.39,15.242C361.043,407.164,349.837,411.6,338.646,411.481Z"/>
      <path id="Ellipse_2_copy_4" data-name="Ellipse 2 copy 4" class="cls-8" d="M338.673,400.17c-12.534.137-25.085-4.835-32.229-10.191-7.237-5.353-7.645-15.737-7.738-17.071,0.093-1.647,1.924,1.392,9.161,4.792a69.745,69.745,0,0,0,61.031,0c7.237-3.4,9.068-6.439,9.161-4.792-0.093,1.334.08,11.718-7.157,17.071C363.757,395.335,351.207,400.307,338.673,400.17Z"/>
    </g>
    <path class="cls-9" d="M368.128,231.95l-52.256,96.415,22.259-87.5-29.828,9.09,10.333-19.406,52.155-97.51-22.149,88.481,29.819-8.973Z"/>
    <path id="Rounded_Rectangle_1" data-name="Rounded Rectangle 1" class="cls-10" d="M242.063,186.085a77.7,77.7,0,0,1,44.946-56.422c4.74-2.093,9.706-.263,10.731,3.437,0.041,0.134.082,0.269,0.122,0.4,1.036,3.713-1.366,7.647-5.08,9.3a63.307,63.307,0,0,0-36.621,45.972c-0.78,3.989-4.078,7.211-7.928,7.031l-0.42-.029c-3.836-.172-6.729-4.6-5.75-9.692h0Z"/>
    <path id="Ellipse_1_copy" data-name="Ellipse 1 copy" class="cls-10" d="M310.208,122.957a7.658,7.658,0,1,1-7.6,7.658A7.631,7.631,0,0,1,310.208,122.957Zm2.249,0a7.658,7.658,0,1,1-7.6,7.658A7.631,7.631,0,0,1,312.457,122.957Z"/>
  </g>
</svg>
