<svg id="Cam_bien" data-name="Cam bien" xmlns="http://www.w3.org/2000/svg" xmlns:xlink="http://www.w3.org/1999/xlink" width="1306" height="599" viewBox="0 0 1306 599">
  <defs>
    <style>
      .cls-1 {
        fill: #717070;
      }

      .cls-1, .cls-12, .cls-13, .cls-16, .cls-17, .cls-18, .cls-19, .cls-2, .cls-20, .cls-21, .cls-3, .cls-4, .cls-5, .cls-6, .cls-8, .cls-9 {
        fill-rule: evenodd;
      }

      .cls-2 {
        fill: #908f90;
      }

      .cls-16, .cls-19, .cls-3 {
        fill: #fff;
      }

      .cls-3 {
        opacity: 0.12;
      }

      .cls-4 {
        fill: #3a3a3a;
      }

      .cls-5 {
        fill: #393939;
      }

      .cls-6 {
        fill: #252525;
      }

      .cls-7, .cls-9 {
        fill: #3b3b3b;
      }

      .cls-10 {
        fill: #b0aeae;
      }

      .cls-11 {
        fill: #dbd9d9;
      }

      .cls-12, .cls-14 {
        fill: #454444;
      }

      .cls-13, .cls-15 {
        fill: #767676;
      }

      .cls-16 {
        opacity: 0.25;
      }

      .cls-17 {
        filter: url(#filter);
      }

      .cls-18 {
        fill: #676767;
      }

      .cls-19 {
        opacity: 0.31;
      }

      .cls-20 {
        fill: #474747;
      }

      .cls-21 {
        fill: #909090;
      }
    </style>
    <filter id="filter" x="200" y="260" width="436" height="269" filterUnits="userSpaceOnUse">
      <feOffset result="offset" dx="16.5" dy="28.579" in="SourceAlpha"/>
      <feGaussianBlur result="blur" stdDeviation="9.165"/>
      <feFlood result="flood" flood-opacity="0.47"/>
      <feComposite result="composite" operator="in" in2="blur"/>
      <feBlend result="blend" in="SourceGraphic"/>
    </filter>
  </defs>
  <path id="Rounded_Rectangle_1_copy_3" data-name="Rounded Rectangle 1 copy 3" class="cls-1" d="M36.858,65H1183.14C1203.5,65,1220,77.63,1220,93.21V199c0,20.1,86,44.856,86,67.705v135.41c0,23.365-86,42.975-86,63.473V570.906c0,15.58-16.5,28.21-36.86,28.21H36.858C16.5,599.116,0,586.486,0,570.906V464.177c0-20.115,86-42.053,86-64.884V263.883C86,241.034,0,219.094,0,199V93.21C0,77.63,16.5,65,36.858,65Z"/>
  <path id="Rounded_Rectangle_1_copy_5" data-name="Rounded Rectangle 1 copy 5" class="cls-2" d="M36.858,0H1183.14C1203.5,0,1220,12.63,1220,28.21V134c0,20.1,86,44.856,86,67.705v135.41c0,23.365-86,42.975-86,63.473V505.906c0,15.58-16.5,28.21-36.86,28.21H36.858C16.5,534.116,0,521.486,0,505.906V399.177c0-20.115,86-42.053,86-64.884V198.883C86,176.034,0,154.094,0,134V28.21C0,12.63,16.5,0,36.858,0Z"/>
  <path id="Rounded_Rectangle_1_copy_4" data-name="Rounded Rectangle 1 copy 4" class="cls-3" d="M1183.14,0C1203.5,0,1220,12.63,1220,28.21V134c0,20.1,86,44.856,86,67.705v135.41c0,23.365-86,42.975-86,63.473V505.906c0,15.58-16.5,28.21-36.86,28.21H36.858S512.681,453.412,799,320C1085.82,186.354,1183.14,0,1183.14,0Z"/>
  <g>
    <g id="sencor">
      <g id="Body">
        <path class="cls-4" d="M112.267,61.407h260.4C380.947,61.407,401,76.716,401,85L387.662,191.809a15,15,0,0,1-15,15L121,220c-8.284,0-23.733-19.907-23.733-28.191V76.407A15,15,0,0,1,112.267,61.407Z"/>
        <path class="cls-5" d="M190.652,249.963l19.251,14.1,4.176-12.2L193.929,240.4Z"/>
        <path id="Rounded_Rectangle_1_copy_2" data-name="Rounded Rectangle 1 copy 2" class="cls-4" d="M158.378,82.328H368.019a14.745,14.745,0,0,1,14.745,14.745v95.368a14.745,14.745,0,0,1-14.745,14.745H309.966c-9.089,0-20.5,43.006-30.678,43.006H192.17c-10.175,0-18.312-43.006-27.4-43.006h-6.391a14.745,14.745,0,0,1-14.745-14.745V97.073A14.745,14.745,0,0,1,158.378,82.328Z"/>
        <path id="Rounded_Rectangle_1_copy" data-name="Rounded Rectangle 1 copy" class="cls-6" d="M126.79,76.184H388.039a14.745,14.745,0,0,1,14.745,14.745V206.776a14.744,14.744,0,0,1-14.745,14.745H329.986c-9.089,0-20.5,43.006-30.678,43.006H212.19c-10.175,0-18.312-43.006-27.4-43.006h-58a14.745,14.745,0,0,1-14.745-14.745V90.929A14.745,14.745,0,0,1,126.79,76.184Z"/>
      </g>
      <g id="Screws">
        <g>
          <circle class="cls-7" cx="243.281" cy="148.438" r="3.781"/>
          <path class="cls-8" d="M239.5,147.317h7.578v1.024H239.5v-1.024Z"/>
        </g>
        <g id="Group_2_copy" data-name="Group 2 copy">
          <path class="cls-9" d="M271.955,144.655a3.789,3.789,0,1,1-3.789,3.788A3.788,3.788,0,0,1,271.955,144.655Z"/>
          <path class="cls-8" d="M268.166,147.317h7.577v1.024h-7.577v-1.024Z"/>
        </g>
      </g>
      <g id="Eyes">
        <g id="left">
          <circle id="Ellipse_1_copy_4" data-name="Ellipse 1 copy 4" class="cls-10" cx="178.297" cy="142.016" r="50.985"/>
          <circle class="cls-11" cx="185.938" cy="147.219" r="51"/>
          <path id="Ellipse_1_copy_3" data-name="Ellipse 1 copy 3" class="cls-12" d="M185.942,101.321a45.894,45.894,0,1,1-45.894,45.893A45.893,45.893,0,0,1,185.942,101.321Z"/>
          <path id="Shape_2_copy_7" data-name="Shape 2 copy 7" class="cls-8" d="M184.1,97.45h0.41v98.71H184.1V97.45m46.693,0v98.71h-0.41V97.45m-40.139,0v98.71h-0.41V97.45m6.554,0v98.71h-0.41V97.45m6.144,0v98.71h-0.41V97.45m6.144,0v98.71h-0.41V97.45m6.144,0v98.71H213.18V97.45m6.143,2.048v98.71h-0.409V99.5m6.143,0v98.71h-0.409V99.5m-92.566-3.277v98.71h-0.41V96.221m46.693,0v98.71h-0.41V96.221m-40.139,0v98.71h-0.41V96.221m6.554,0v98.71h-0.41V96.221m6.144,0v98.71h-0.41V96.221m6.144,0v98.71h-0.409V96.221m6.143,0v98.71h-0.409V96.221m6.144,2.048v98.71h-0.41V98.269m6.144,0v98.71h-0.41V98.269m61.438,53.246h-98.71v-0.409h98.71m0,46.692h-98.71v-0.41h98.71m0-40.139h-98.71V156.84h98.71m0,6.553h-98.71v-0.41h98.71m0,6.144h-98.71v-0.409h98.71m0,6.143h-98.71v-0.409h98.71m0,6.144h-98.71v-0.41h98.71m-2.048,6.144H132.9v-0.41h98.71m0,6.144H132.9v-0.41h98.71m3.277-92.566h-98.71v-0.41h98.71m0,46.692h-98.71v-0.409h98.71m0-40.14h-98.71v-0.409h98.71m0,6.553h-98.71v-0.409h98.71m0,6.143h-98.71v-0.409h98.71m0,6.144h-98.71v-0.41h98.71m0,6.144h-98.71v-0.41h98.71M232.84,133.9H134.13v-0.41h98.71m0,6.144H134.13v-0.409h98.71"/>
          <path id="Ellipse_1_copy_5" data-name="Ellipse 1 copy 5" class="cls-13" d="M185.942,118.3a28.914,28.914,0,1,1-28.913,28.913A28.913,28.913,0,0,1,185.942,118.3Z"/>
          <path id="Shape_2_copy_8" data-name="Shape 2 copy 8" class="cls-8" d="M184.1,97.45h0.41v98.71H184.1V97.45m46.693,0v98.71h-0.41V97.45m-40.139,0v98.71h-0.41V97.45m6.554,0v98.71h-0.41V97.45m6.144,0v98.71h-0.41V97.45m6.144,0v98.71h-0.41V97.45m6.144,0v98.71H213.18V97.45m6.143,2.048v98.71h-0.409V99.5m6.143,0v98.71h-0.409V99.5m-92.566-3.277v98.71h-0.41V96.221m46.693,0v98.71h-0.41V96.221m-40.139,0v98.71h-0.41V96.221m6.554,0v98.71h-0.41V96.221m6.144,0v98.71h-0.41V96.221m6.144,0v98.71h-0.409V96.221m6.143,0v98.71h-0.409V96.221m6.144,2.048v98.71h-0.41V98.269m6.144,0v98.71h-0.41V98.269m61.438,53.246h-98.71v-0.409h98.71m0,46.692h-98.71v-0.41h98.71m0-40.139h-98.71V156.84h98.71m0,6.553h-98.71v-0.41h98.71m0,6.144h-98.71v-0.409h98.71m0,6.143h-98.71v-0.409h98.71m0,6.144h-98.71v-0.41h98.71m-2.048,6.144H132.9v-0.41h98.71m0,6.144H132.9v-0.41h98.71m3.277-92.566h-98.71v-0.41h98.71m0,46.692h-98.71v-0.409h98.71m0-40.14h-98.71v-0.409h98.71m0,6.553h-98.71v-0.409h98.71m0,6.143h-98.71v-0.409h98.71m0,6.144h-98.71v-0.41h98.71m0,6.144h-98.71v-0.41h98.71M232.84,133.9H134.13v-0.41h98.71m0,6.144H134.13v-0.409h98.71"/>
        </g>
        <g id="right">
          <circle id="Ellipse_1_copy_4-2" data-name="Ellipse 1 copy 4" class="cls-10" cx="329.015" cy="142.016" r="50.984"/>
          <circle class="cls-11" cx="336.672" cy="147.219" r="50.984"/>
          <circle id="Ellipse_1_copy_3-2" data-name="Ellipse 1 copy 3" class="cls-14" cx="336.672" cy="147.203" r="45.891"/>
          <path id="Shape_2_copy_7-2" data-name="Shape 2 copy 7" class="cls-8" d="M334.826,97.45h0.41v98.71h-0.41V97.45m46.693,0v98.71h-0.41V97.45m-40.139,0v98.71h-0.41V97.45m6.553,0v98.71H346.7V97.45m6.144,0v98.71h-0.41V97.45m6.144,0v98.71h-0.41V97.45m6.144,0v98.71h-0.41V97.45M370.05,99.5v98.71h-0.409V99.5m6.143,0v98.71h-0.409V99.5m-92.566-3.277v98.71H282.4V96.221m46.693,0v98.71h-0.41V96.221m-40.139,0v98.71h-0.41V96.221m6.554,0v98.71h-0.41V96.221m6.144,0v98.71h-0.41V96.221m6.144,0v98.71h-0.409V96.221m6.143,0v98.71H311.48V96.221m6.143,2.048v98.71h-0.409V98.269m6.144,0v98.71h-0.41V98.269m61.438,53.246h-98.71v-0.409h98.71m0,46.692h-98.71v-0.41h98.71m0-40.139h-98.71V156.84h98.71m0,6.553h-98.71v-0.41h98.71m0,6.144h-98.71v-0.409h98.71m0,6.143h-98.71v-0.409h98.71m0,6.144h-98.71v-0.41h98.71m-2.048,6.144h-98.71v-0.41h98.71m0,6.144h-98.71v-0.41h98.71m3.276-92.566H286.9v-0.41h98.709m0,46.692H286.9v-0.409h98.709m0-40.14H286.9v-0.409h98.709m0,6.553H286.9v-0.409h98.709m0,6.143H286.9v-0.409h98.709m0,6.144H286.9v-0.41h98.709m0,6.144H286.9v-0.41h98.709m-2.048,6.144H284.857v-0.41h98.709m0,6.144H284.857v-0.409h98.709"/>
          <circle id="Ellipse_1_copy_5-2" data-name="Ellipse 1 copy 5" class="cls-15" cx="336.672" cy="147.219" r="28.922"/>
          <path id="Shape_2_copy_8-2" data-name="Shape 2 copy 8" class="cls-8" d="M334.826,97.45h0.41v98.71h-0.41V97.45m46.693,0v98.71h-0.41V97.45m-40.139,0v98.71h-0.41V97.45m6.553,0v98.71H346.7V97.45m6.144,0v98.71h-0.41V97.45m6.144,0v98.71h-0.41V97.45m6.144,0v98.71h-0.41V97.45M370.05,99.5v98.71h-0.409V99.5m6.143,0v98.71h-0.409V99.5m-92.566-3.277v98.71H282.4V96.221m46.693,0v98.71h-0.41V96.221m-40.139,0v98.71h-0.41V96.221m6.554,0v98.71h-0.41V96.221m6.144,0v98.71h-0.41V96.221m6.144,0v98.71h-0.409V96.221m6.143,0v98.71H311.48V96.221m6.143,2.048v98.71h-0.409V98.269m6.144,0v98.71h-0.41V98.269m61.438,53.246h-98.71v-0.409h98.71m0,46.692h-98.71v-0.41h98.71m0-40.139h-98.71V156.84h98.71m0,6.553h-98.71v-0.41h98.71m0,6.144h-98.71v-0.409h98.71m0,6.143h-98.71v-0.409h98.71m0,6.144h-98.71v-0.41h98.71m-2.048,6.144h-98.71v-0.41h98.71m0,6.144h-98.71v-0.41h98.71m3.276-92.566H286.9v-0.41h98.709m0,46.692H286.9v-0.409h98.709m0-40.14H286.9v-0.409h98.709m0,6.553H286.9v-0.409h98.709m0,6.143H286.9v-0.409h98.709m0,6.144H286.9v-0.41h98.709m0,6.144H286.9v-0.41h98.709m-2.048,6.144H284.857v-0.41h98.709m0,6.144H284.857v-0.409h98.709"/>
        </g>
      </g>
    </g>
    <g id="Shadow">
      <path class="cls-16" d="M158.705,145.371l52.836-.819L359.4,294.05,265.2,355.9Z"/>
      <path id="Rectangle_3_copy" data-name="Rectangle 3 copy" class="cls-16" d="M307.793,145.371l52.837-.819,147.86,149.5-94.2,61.847Z"/>
      <path class="cls-17" d="M268.064,316.577h166.7l97.481,96.662h-166.7Z"/>
    </g>
    <g id="Brick_wall" data-name="Brick wall">
      <g id="half_brick_copy_3" data-name="half brick copy 3">
        <path id="Rounded_Rectangle_1_copy_10" data-name="Rounded Rectangle 1 copy 10" class="cls-18" d="M398.75,219.312H509.594c5.523,0,8.043,4.361,12.406,8.688l16,16c0,5.523-22.883,19.25-28.406,19.25L413,281l-15-14c-3.97-3.463-9.288-7.023-9.25-16.75V229.312A10,10,0,0,1,398.75,219.312Z"/>
        <path class="cls-19" d="M456.677,364.5l3.686-4.3,21.2,21.81-5.387,3.072Z"/>
      </g>
      <g id="A_brick_copy_3" data-name="A brick copy 3">
        <path id="Rounded_Rectangle_1_copy_9" data-name="Rounded Rectangle 1 copy 9" class="cls-18" d="M262.75,361.312H373.594c5.523,0,8.043,4.361,12.406,8.688l16,16c0,5.523-22.883,19.25-28.406,19.25L277,423l-15-14c-3.97-3.463-9.288-7.023-9.25-16.75V371.312A10,10,0,0,1,262.75,361.312Z"/>
        <path class="cls-19" d="M323.358,364.5l3.686-4.3,21.2,21.81-5.387,3.072Z"/>
      </g>
      <g id="half_brick_copy_4" data-name="half brick copy 4">
        <path class="cls-19" d="M256.391,364.5l3.686-4.3,21.2,21.81-5.387,3.072Z"/>
      </g>
      <g id="A_brick_copy_4" data-name="A brick copy 4">
        <path class="cls-19" d="M390.017,318.113l3.687-4.3,21.2,21.81-5.387,3.072Z"/>
      </g>
      <path id="Rounded_Rectangle_1_copy_8" data-name="Rounded Rectangle 1 copy 8" class="cls-18" d="M263.75,314.312H374.594c5.523,0,8.043,4.361,12.406,8.688l16,16c0,5.523-22.883,19.25-28.406,19.25L278,376l-15-14c-3.97-3.463-9.288-7.023-9.25-16.75V324.312A10,10,0,0,1,263.75,314.312Z"/>
      <g id="A_brick_copy_5" data-name="A brick copy 5">
        <path class="cls-19" d="M256.391,318.113l3.686-4.3,21.2,21.81-5.387,3.072Z"/>
      </g>
      <g id="A_brick_copy" data-name="A brick copy">
        <path class="cls-19" d="M390.017,225.65l3.687-4.3,21.2,21.81-5.387,3.072Z"/>
      </g>
      <g id="A_brick" data-name="A brick">
        <path id="Rounded_Rectangle_1_copy_6" data-name="Rounded Rectangle 1 copy 6" class="cls-18" d="M264.75,220.312H375.594c5.523,0,8.043,4.361,12.406,8.688l16,16c0,5.523-22.883,19.25-28.406,19.25L279,282l-15-14c-3.97-3.463-9.288-7.023-9.25-16.75V230.312A10,10,0,0,1,264.75,220.312Z"/>
        <path id="Rounded_Rectangle_1_copy_7" data-name="Rounded Rectangle 1 copy 7" class="cls-18" d="M263.75,267.312H374.594c5.523,0,8.043,4.361,12.406,8.688l16,16c0,5.523-22.883,19.25-28.406,19.25L278,329l-15-14c-3.97-3.463-9.288-7.023-9.25-16.75V277.312A10,10,0,0,1,263.75,267.312Z"/>
        <path class="cls-19" d="M256.391,225.65l3.686-4.3,21.2,21.81-5.387,3.072Z"/>
        <path id="Shape_1_copy" data-name="Shape 1 copy" class="cls-19" d="M256.391,272.113l3.686-4.3,21.2,21.81-5.387,3.072Z"/>
      </g>
      <g id="Front_brick" data-name="Front brick">
        <path class="cls-20" d="M278.815,244.388l258.426,1.825V420.425L278.815,422.25V244.388Z"/>
        <path id="Rounded_Rectangle_1_copy-2" data-name="Rounded Rectangle 1 copy" class="cls-21" d="M285.743,241.316H396.606a10,10,0,0,1,10,10v23.928a10,10,0,0,1-10,10H285.743a10,10,0,0,1-10-10V251.316A10,10,0,0,1,285.743,241.316Z"/>
        <path id="Rounded_Rectangle_1_copy-3" data-name="Rounded Rectangle 1 copy" class="cls-21" d="M419.37,241.316H530.232a10,10,0,0,1,10,10v23.928a10,10,0,0,1-10,10H419.37a10,10,0,0,1-10-10V251.316A10,10,0,0,1,419.37,241.316Z"/>
        <path id="Rounded_Rectangle_1_copy-4" data-name="Rounded Rectangle 1 copy" class="cls-21" d="M285.743,287.7h44.2a10,10,0,0,1,10,10V321.63a10,10,0,0,1-10,10h-44.2a10,10,0,0,1-10-10V297.7A10,10,0,0,1,285.743,287.7Z"/>
        <path id="Rounded_Rectangle_1_copy-5" data-name="Rounded Rectangle 1 copy" class="cls-21" d="M352.71,287.7H463.573a10,10,0,0,1,10,10V321.63a10,10,0,0,1-10,10H352.71a10,10,0,0,1-10-10V297.7A10,10,0,0,1,352.71,287.7Z"/>
        <path id="Rounded_Rectangle_1_copy-6" data-name="Rounded Rectangle 1 copy" class="cls-21" d="M486.03,287.7h44.2a10,10,0,0,1,10,10V321.63a10,10,0,0,1-10,10h-44.2a10,10,0,0,1-10-10V297.7A10,10,0,0,1,486.03,287.7Z"/>
        <path id="Rounded_Rectangle_1_copy-7" data-name="Rounded Rectangle 1 copy" class="cls-21" d="M419.37,333.78H530.232a10,10,0,0,1,10,10v23.928a10,10,0,0,1-10,10H419.37a10,10,0,0,1-10-10V343.78A10,10,0,0,1,419.37,333.78Z"/>
        <path id="Rounded_Rectangle_1_copy-8" data-name="Rounded Rectangle 1 copy" class="cls-21" d="M285.743,333.78H396.606a10,10,0,0,1,10,10v23.928a10,10,0,0,1-10,10H285.743a10,10,0,0,1-10-10V343.78A10,10,0,0,1,285.743,333.78Z"/>
        <path id="Rounded_Rectangle_1_copy-9" data-name="Rounded Rectangle 1 copy" class="cls-21" d="M285.743,380.165h44.2a10,10,0,0,1,10,10v23.928a10,10,0,0,1-10,10h-44.2a10,10,0,0,1-10-10V390.165A10,10,0,0,1,285.743,380.165Z"/>
        <path id="Rounded_Rectangle_1_copy-10" data-name="Rounded Rectangle 1 copy" class="cls-21" d="M352.71,380.165H463.573a10,10,0,0,1,10,10v23.928a10,10,0,0,1-10,10H352.71a10,10,0,0,1-10-10V390.165A10,10,0,0,1,352.71,380.165Z"/>
        <path id="Rounded_Rectangle_1_copy-11" data-name="Rounded Rectangle 1 copy" class="cls-21" d="M486.03,380.165h44.2a10,10,0,0,1,10,10v23.928a10,10,0,0,1-10,10h-44.2a10,10,0,0,1-10-10V390.165A10,10,0,0,1,486.03,380.165Z"/>
      </g>
    </g>
  </g>
</svg>
