<svg id="Di_chuyen" data-name="Di chuyen" xmlns="http://www.w3.org/2000/svg" xmlns:xlink="http://www.w3.org/1999/xlink" width="1306" height="599" viewBox="0 0 1306 599">
  <defs>
    <style>
      .cls-1 {
        fill: #717070;
      }

      .cls-1, .cls-10, .cls-11, .cls-12, .cls-13, .cls-14, .cls-15, .cls-16, .cls-2, .cls-3, .cls-4, .cls-5, .cls-6, .cls-7, .cls-8, .cls-9 {
        fill-rule: evenodd;
      }

      .cls-2 {
        fill: #908f90;
      }

      .cls-3 {
        fill: #fff;
        opacity: 0.12;
      }

      .cls-10, .cls-4 {
        fill: #d3d3d4;
      }

      .cls-4 {
        filter: url(#filter);
      }

      .cls-5, .cls-9 {
        fill: #e6e6e6;
      }

      .cls-5 {
        filter: url(#filter-2);
      }

      .cls-6 {
        fill: #706f6f;
      }

      .cls-7 {
        fill: #8d8c8c;
      }

      .cls-8 {
        fill: #5a5a5a;
      }

      .cls-10 {
        filter: url(#filter-3);
      }

      .cls-11 {
        fill: #7c7979;
        filter: url(#filter-4);
      }

      .cls-12 {
        fill: #3c3c3c;
      }

      .cls-13 {
        fill: #2b2b2b;
      }

      .cls-14 {
        fill: #959595;
      }

      .cls-15 {
        fill: #363636;
      }

      .cls-16 {
        fill: #7d7d7d;
      }
    </style>
    <filter id="filter" x="65" y="135" width="426" height="301" filterUnits="userSpaceOnUse">
      <feOffset result="offset" dx="3" dy="5.196" in="SourceAlpha"/>
      <feGaussianBlur result="blur" stdDeviation="6.782"/>
      <feFlood result="flood" flood-opacity="0.75"/>
      <feComposite result="composite" operator="in" in2="blur"/>
      <feBlend result="blend" in="SourceGraphic"/>
    </filter>
    <filter id="filter-2" x="-61" y="79" width="524.75" height="163" filterUnits="userSpaceOnUse">
      <feOffset result="offset" dx="68.5" dy="118.645" in="SourceAlpha"/>
      <feGaussianBlur result="blur" stdDeviation="6.325"/>
      <feFlood result="flood" flood-opacity="0.75"/>
      <feComposite result="composite" operator="in" in2="blur"/>
      <feBlend result="blend" in="SourceGraphic"/>
    </filter>
    <filter id="filter-3" x="65" y="211" width="312" height="212" filterUnits="userSpaceOnUse">
      <feOffset result="offset" dx="7.5" dy="12.99" in="SourceAlpha"/>
      <feGaussianBlur result="blur" stdDeviation="4.899"/>
      <feFlood result="flood" flood-opacity="0.71"/>
      <feComposite result="composite" operator="in" in2="blur"/>
      <feBlend result="blend" in="SourceGraphic"/>
    </filter>
    <filter id="filter-4" x="378" y="171" width="161.906" height="182" filterUnits="userSpaceOnUse">
      <feOffset result="offset" dx="2.5" dy="4.33" in="SourceAlpha"/>
      <feGaussianBlur result="blur" stdDeviation="2.236"/>
      <feFlood result="flood" flood-opacity="0.75"/>
      <feComposite result="composite" operator="in" in2="blur"/>
      <feBlend result="blend" in="SourceGraphic"/>
    </filter>
  </defs>
  <path id="Rounded_Rectangle_1_copy_3" data-name="Rounded Rectangle 1 copy 3" class="cls-1" d="M36.858,65H1183.14C1203.5,65,1220,77.63,1220,93.21V199c0,20.1,86,44.856,86,67.705v135.41c0,23.365-86,42.975-86,63.473V570.906c0,15.58-16.5,28.21-36.86,28.21H36.858C16.5,599.116,0,586.486,0,570.906V464.177c0-20.115,86-42.053,86-64.884V263.883C86,241.034,0,219.094,0,199V93.21C0,77.63,16.5,65,36.858,65Z"/>
  <path id="Rounded_Rectangle_1_copy_5" data-name="Rounded Rectangle 1 copy 5" class="cls-2" d="M36.858,0H1183.14C1203.5,0,1220,12.63,1220,28.21V134c0,20.1,86,44.856,86,67.705v135.41c0,23.365-86,42.975-86,63.473V505.906c0,15.58-16.5,28.21-36.86,28.21H36.858C16.5,534.116,0,521.486,0,505.906V399.177c0-20.115,86-42.053,86-64.884V198.883C86,176.034,0,154.094,0,134V28.21C0,12.63,16.5,0,36.858,0Z"/>
  <path id="Rounded_Rectangle_1_copy_4" data-name="Rounded Rectangle 1 copy 4" class="cls-3" d="M1183.14,0C1203.5,0,1220,12.63,1220,28.21V134c0,20.1,86,44.856,86,67.705v135.41c0,23.365-86,42.975-86,63.473V505.906c0,15.58-16.5,28.21-36.86,28.21H36.858S512.681,453.412,799,320C1085.82,186.354,1183.14,0,1183.14,0Z"/>
  <g>
    <g id="upper_body" data-name="upper body">
      <path class="cls-4" d="M118.063,182.978l252.05,15.975L448.657,387.99l-252.05-15.975Z"/>
      <path class="cls-5" d="M463.745,136.384L212.138,120.409l-94.313,62.967L369.4,199.232Z"/>
      <path id="Rectangle_1_copy" data-name="Rectangle 1 copy" class="cls-6" d="M338.607,381.334l110.05,6.656L370.113,198.509,259.176,192.3Z"/>
      <path id="Shape_1_copy" data-name="Shape 1 copy" class="cls-7" d="M463.745,136.384l-109.607-7.1L259.62,192.74l109.78,6.492Z"/>
      <path class="cls-7" d="M451.763,143.484h34.613v15.531H451.763V143.484Z"/>
      <path id="Shape_2_copy" data-name="Shape 2 copy" class="cls-1" d="M486.815,143.438L550.72,297.022l-94.272,62.934L392.475,206.332Z"/>
      <path class="cls-8" d="M464.184,135.894l78.548,188.64-94.271,62.935L369.844,198.788Z"/>
    </g>
    <g id="under_body" data-name="under body">
      <path class="cls-9" d="M338.851,224.549L137.767,211.782l-34.236,23.37,201.058,12.672Z"/>
      <path class="cls-10" d="M103.721,234.834L305.16,247.6,367.932,398.68,166.493,385.913Z"/>
      <path id="Rectangle_1_copy-2" data-name="Rectangle 1 copy" class="cls-6" d="M279.98,393.36l87.952,5.32L305.16,247.246,216.5,242.281Z"/>
      <path id="Shape_1_copy-2" data-name="Shape 1 copy" class="cls-7" d="M338.851,224.549l-87.6-5.674-34.4,23.761,87.736,5.188Z"/>
      <path class="cls-8" d="M339.2,224.158L399.5,376.692l-31.72,21.571L304.944,247.469Z"/>
    </g>
    <g id="circle">
      <path id="Ellipse_1_copy" data-name="Ellipse 1 copy" class="cls-11" d="M478.671,176.826c41.331,8.049,68.055,52.593,59.689,99.491s-48.654,78.392-89.985,70.343-68.055-52.592-59.689-99.49S437.34,168.778,478.671,176.826Z"/>
      <path class="cls-8" d="M481.775,182.934c38.256,7.707,63.2,49.236,55.714,92.757s-44.568,72.555-82.824,64.848-63.2-49.236-55.714-92.757S443.519,175.227,481.775,182.934Z"/>
      <g>
        <path class="cls-12" d="M436.525,197.175c9.746-4.245,21.586.928,26.445,11.556s0.9,22.683-8.849,26.928-21.586-.928-26.445-11.555S426.779,201.42,436.525,197.175Z"/>
        <path id="Ellipse_2_copy" data-name="Ellipse 2 copy" class="cls-13" d="M434.257,202.6c7.509-3.271,16.632.715,20.376,8.9s0.691,17.478-6.818,20.749-16.632-.716-20.376-8.9S426.748,205.867,434.257,202.6Z"/>
      </g>
      <g id="Group_3_copy" data-name="Group 3 copy">
        <path class="cls-12" d="M421.622,264.7c9.746-4.245,21.586.928,26.445,11.556s0.9,22.683-8.848,26.928-21.586-.928-26.445-11.556S411.876,268.948,421.622,264.7Z"/>
        <path id="Ellipse_2_copy-2" data-name="Ellipse 2 copy" class="cls-13" d="M419.354,270.124c7.51-3.271,16.632.715,20.376,8.9s0.692,17.478-6.818,20.749-16.632-.716-20.375-8.9S411.845,273.4,419.354,270.124Z"/>
      </g>
      <g id="Group_3_copy_2" data-name="Group 3 copy 2">
        <path class="cls-12" d="M499.846,223.021c9.747-4.245,21.586.929,26.445,11.556s0.9,22.683-8.848,26.928S495.857,260.577,491,249.95,490.1,227.266,499.846,223.021Z"/>
        <path id="Ellipse_2_copy-3" data-name="Ellipse 2 copy" class="cls-13" d="M497.579,228.442c7.509-3.271,16.632.715,20.375,8.9s0.692,17.477-6.817,20.748-16.632-.715-20.376-8.9S490.069,231.713,497.579,228.442Z"/>
      </g>
      <g id="Group_3_copy_3" data-name="Group 3 copy 3">
        <path class="cls-12" d="M483.279,285.433c9.746-4.246,21.586.928,26.445,11.555s0.9,22.684-8.849,26.929-21.586-.929-26.445-11.556S473.533,289.678,483.279,285.433Z"/>
        <path id="Ellipse_2_copy-4" data-name="Ellipse 2 copy" class="cls-13" d="M481.011,290.853c7.509-3.271,16.632.716,20.376,8.9s0.691,17.478-6.818,20.749-16.632-.716-20.376-8.9S473.5,294.124,481.011,290.853Z"/>
      </g>
      <g id="Group_3_copy_4" data-name="Group 3 copy 4">
        <path class="cls-14" d="M458.85,241.522c9.747-4.246,21.586.928,26.446,11.555s0.9,22.684-8.849,26.929S454.861,279.077,450,268.45,449.1,245.767,458.85,241.522Z"/>
        <path id="Ellipse_2_copy_2" data-name="Ellipse 2 copy 2" class="cls-13" d="M455.977,247.856c7.509-3.271,16.632.715,20.376,8.9s0.691,17.477-6.818,20.748-16.632-.715-20.376-8.9S448.468,251.127,455.977,247.856Z"/>
      </g>
    </g>
    <g id="arrow">
      <path id="Shape_3_copy" data-name="Shape 3 copy" class="cls-15" d="M360.373,254.094a122.344,122.344,0,0,1,57.039-79.853l6.761,10.4c21.277-22.037,48.186-34.807,75.359-34.82-35.882-13.382-71.5-14.006-101.487-5.364l6.762,10.4a122.349,122.349,0,0,0-57.038,79.853l12.6,19.386h0Zm0,0.593a122.347,122.347,0,0,1,57.039-79.853q3.38,5.2,6.761,10.4c21.277-22.037,48.186-34.808,75.359-34.82-35.882-13.382-71.5-14.006-101.487-5.364l6.762,10.4A122.349,122.349,0,0,0,347.769,235.3l12.6,19.385h0Zm0,0.594a122.347,122.347,0,0,1,57.039-79.853l6.761,10.4c21.277-22.037,48.186-34.807,75.359-34.819-35.882-13.383-71.5-14.007-101.487-5.365l6.762,10.4A122.346,122.346,0,0,0,347.769,235.9l12.6,19.385h0Zm0,0.594a122.344,122.344,0,0,1,57.039-79.853l6.761,10.4c21.277-22.037,48.186-34.807,75.359-34.82-35.882-13.382-71.5-14.006-101.487-5.364l6.762,10.4a122.348,122.348,0,0,0-57.038,79.854l12.6,19.385h0Zm0,0.594a122.346,122.346,0,0,1,57.039-79.854q3.38,5.2,6.761,10.4c21.277-22.037,48.186-34.808,75.359-34.82-35.882-13.382-71.5-14.006-101.487-5.364l6.762,10.4a122.349,122.349,0,0,0-57.038,79.853l12.6,19.386h0Zm0,0.593a122.347,122.347,0,0,1,57.039-79.853q3.38,5.2,6.761,10.4c21.277-22.036,48.186-34.807,75.359-34.819-35.882-13.382-71.5-14.007-101.487-5.364l6.762,10.4a122.346,122.346,0,0,0-57.038,79.853l12.6,19.385h0Zm0,0.594A122.347,122.347,0,0,1,417.412,177.8l6.761,10.4c21.277-22.037,48.186-34.807,75.359-34.82-35.882-13.382-71.5-14.006-101.487-5.364l6.762,10.4a122.344,122.344,0,0,0-57.038,79.853l12.6,19.385h0Zm0,0.594A122.344,122.344,0,0,1,417.412,178.4l6.761,10.4c21.277-22.037,48.186-34.807,75.359-34.82-35.882-13.382-71.5-14.006-101.487-5.364l6.762,10.4a122.349,122.349,0,0,0-57.038,79.853l12.6,19.386h0Zm0,0.593a122.347,122.347,0,0,1,57.039-79.853q3.38,5.2,6.761,10.4c21.277-22.036,48.186-34.807,75.359-34.819-35.882-13.382-71.5-14.006-101.487-5.364l6.762,10.4a122.349,122.349,0,0,0-57.038,79.853l12.6,19.385h0Zm0,0.594a122.347,122.347,0,0,1,57.039-79.853l6.761,10.4c21.277-22.037,48.186-34.807,75.359-34.819-35.882-13.383-71.5-14.007-101.487-5.365l6.762,10.4a122.346,122.346,0,0,0-57.038,79.853l12.6,19.385h0Zm0,0.594a122.344,122.344,0,0,1,57.039-79.853l6.761,10.4c21.277-22.037,48.186-34.807,75.359-34.82-35.882-13.382-71.5-14.006-101.487-5.364l6.762,10.4a122.349,122.349,0,0,0-57.038,79.853l12.6,19.386h0Zm0,0.594a122.346,122.346,0,0,1,57.039-79.854q3.38,5.2,6.761,10.4c21.277-22.037,48.186-34.808,75.359-34.82-35.882-13.382-71.5-14.006-101.487-5.364l6.762,10.4a122.349,122.349,0,0,0-57.038,79.853l12.6,19.386h0Zm0,0.593a122.347,122.347,0,0,1,57.039-79.853l6.761,10.4c21.277-22.036,48.186-34.807,75.359-34.819-35.882-13.382-71.5-14.007-101.487-5.365l6.762,10.4a122.346,122.346,0,0,0-57.038,79.853l12.6,19.385h0Zm0,0.594a122.344,122.344,0,0,1,57.039-79.853l6.761,10.4c21.277-22.037,48.186-34.807,75.359-34.82-35.882-13.382-71.5-14.006-101.487-5.364l6.762,10.4a122.348,122.348,0,0,0-57.038,79.854l12.6,19.385h0Zm0,0.594a122.342,122.342,0,0,1,57.039-79.853l6.761,10.4c21.277-22.037,48.186-34.807,75.359-34.82-35.882-13.382-71.5-14.006-101.487-5.364l6.762,10.4a122.349,122.349,0,0,0-57.038,79.853l12.6,19.386h0Zm0,0.593a122.347,122.347,0,0,1,57.039-79.853q3.38,5.2,6.761,10.4c21.277-22.036,48.186-34.807,75.359-34.819-35.882-13.382-71.5-14.007-101.487-5.364l6.762,10.4a122.349,122.349,0,0,0-57.038,79.853L360.373,263h0Zm0,0.594a122.347,122.347,0,0,1,57.039-79.853l6.761,10.4c21.277-22.037,48.186-34.807,75.359-34.819-35.882-13.383-71.5-14.007-101.487-5.365l6.762,10.4a122.344,122.344,0,0,0-57.038,79.853l12.6,19.385h0Z"/>
      <path class="cls-16" d="M360.373,254.094a122.344,122.344,0,0,1,57.039-79.853l6.761,10.4c21.277-22.037,48.186-34.807,75.359-34.82-35.882-13.382-71.5-14.006-101.487-5.364l6.762,10.4a122.349,122.349,0,0,0-57.038,79.853l12.6,19.386h0Z"/>
    </g>
  </g>
</svg>
